<svg id="Layer_1" data-name="Layer 1" xmlns="http://www.w3.org/2000/svg" viewBox="0 0 350 350"><defs><style>.cls-1{fill:#999;}.cls-2{fill:#f90;}</style></defs><title>M</title><path class="cls-1" d="M312.71,90.74c-6,.64-10.16,2.54-11.43,4.26s-1.09,5.53-6.44,4.72-2.27,3.35-2.36,4.62-2.72,5.62-6.26,5.53-12.6-3-13-4.53-1-.45-3.17-.82.09-3,.91-5.62.63-11.15-3.35-13.87-9.34,3.45-10.25,6.07c-2.63-.09-6.08,0-4.26-7s1.27-13.87-2-14.69-.63,3.45-5.26-.64-7.44-3.08-10.61-6.08a19.35,19.35,0,0,1-4.08-4.9s.27,8-3.08,9.43-4.81-3.72-5.62-5.35-.64-8.25-2.09-9.52S207.25,45.86,202.26,45s-7.53,0-7.89,2.09-1.18,8.7,1.45,10.43,6.26,3.81,6.26,6,1,8.26-3.63,13.79-8.7,6.88-10.7,8.34S183,89.2,181,89.2s-1.36,2.36-1.45,3.81-4.81,6.26-8,7.44.73,3.17-.36,5.44-3.54,5.35-3.54,7.34,1.72,4.08-1.09,6.08-4.44,1.18-6.53.45-7.53,3.72-10.43,5.8a101.4,101.4,0,0,1-12.6,6.53l-2.81,1.54a16.75,16.75,0,0,1,4.08,10.52c.09,6.35-1.2,12.82-9.58,16.57s-11.13,9.81-15.73,12.82-10,6.5-11.62,9.69-2,9-1.7,13.34a12.94,12.94,0,0,1-4.17,10.25c-2.54,2.45-7.8-.36-9.79-5.53-2.54-5-4.33-.63-5.26,1.5s-1.8,10-3,13.74-1.36,6.08-3.9,7.16a10.55,10.55,0,0,1-5.26.63l2,2.88s-7.12,4.24-21.45,0c2.72-4.33,9.15-6.49,9.07-10s-.36-12.69.18-15.87,1.81-8.79-1.36-10a5.7,5.7,0,0,0-6.8,2.47c-.64,1.51-10,8.07-12.5,6s-2.1-5.41-4-5.41-9.07,2.82-9.48,8.12.43,6.79-8.11,8.75-10.16.91-9.43,7.62.13,14.32,5.53,19.22,9.16,7.53,9.79,11.61,3.17,14.42,3.17,17.5,1.47,6.86,4.55,8.24,6.16,3.85,9.15,3.91,14.33-.73,18.32,1.18,8.52,5.26,11.7,5.53a83.84,83.84,0,0,1,11.33,1.27c5.08,1,9.16,2.27,10.52,2.18s0-1.54,4.72-1.72,9.25,2,13.15,2.9,6.53,1.72,8.61,2.09,7.71,2.27,13.15,3.26,8,2.45,9.43,2.36.27,1.27,3.08-1.27,1.4-2,4.81-4.9,6.8-1.45,9.88-1.45,9.16.36,10.79.54a40.41,40.41,0,0,0,6.26.14c1.9-.14,5.41-3.7,8.8.68s1.18,8.34,4.72,9.88,9,1.9,12.15.63,6.35-3.26,12-2.36,10.43.63,13.33,3.13,4.81,2.76,9.52,0,9-5.86,9.52-7.66,3.81-8.37,6.71-8.39,8.07,1.5,8.52-1-.39-9.86,2-9.07,6.53,5.08,7.8,2.81,4.44-8,4.44-10.43-1-8.41.34-8.78,3.74-1.1,5.29,2.62,5.3,8.45,6.89,10.52,3.33,8.42,3.93,9,3.14,1.73,6.31-1.72-6.09-16.16-5.31-20.5,3-4.74,4.68-3.07,1.62,6.3,2.24,9.32-.67,6.16,6.21,6.26,9.79-.36,12.44.71,8.77,6,9.86,2.84.37-6.52,0-8.8-.18-3.73,1.06-4.95a8.24,8.24,0,0,0,2.2-7.66,16.75,16.75,0,0,0-6.44-8.7c-2.32-1.34-8.52-7.34-10.61-5.62s-5,5.59-6.71,4.72-1.27-1.36-1.09-4.72,4.35-5.67,2-12.79-2.81-10.25.27-16,3.17-13.43,2.54-18.46-5.8-7.84-5.62-12.1,2.63-6.26,4.35-4.44,5.71,6.89,7.8,4.35,5.53-8.34,7.44-8.8,13.78-3.72,12.42-12-1.36-7.5-2.72-11-2.59-18.58-2.36-21.67,3.17-7.8,4.26-9.25,6.78-5.62,7.7-9.61,1.55-11.33-4.52-14-17.36-9-19.5-10.61l-.84-.11a3.48,3.48,0,0,0-1.16,1.79C316.83,87.71,315.7,90.43,312.71,90.74Z"/><path class="cls-2" d="M229.48,306.82c-1.75,0-3.31-.77-5.11-2.32s-4.63-1.85-8.23-2.24c-1.4-.15-2.86-.31-4.4-.56-4.37-.71-7.11.49-9.76,1.65-.49.22-1,.43-1.46.62-3.42,1.38-9.24,1.1-13.25-.65-2.56-1.12-3-3.3-3.3-5.22a10.47,10.47,0,0,0-2-5.09c-1.75-2.26-3.17-1.79-5.35-.84a7,7,0,0,1-2.22.7,42.16,42.16,0,0,1-6.51-.14c-1.55-.17-7.58-.54-10.63-.54a22,22,0,0,1-2.49-.19c-2.35-.27-4.37-.5-6.47,1.3a14.84,14.84,0,0,0-2.53,2.51,15.92,15.92,0,0,1-2.25,2.36c-1.77,1.6-2.67,2.41-3.93,1.63a10.3,10.3,0,0,1-3.44-.74,47.91,47.91,0,0,0-6.35-1.64c-3.36-.62-6.71-1.55-9.39-2.3-1.6-.45-3-.83-3.74-1-1.24-.22-2.6-.57-4.32-1-1.26-.33-2.7-.7-4.38-1.09-1.25-.29-2.52-.69-3.86-1.12-2.9-.92-5.89-1.87-8.91-1.75-2.4.09-2.7.5-2.83.67a2.32,2.32,0,0,1-1.85,1,22.26,22.26,0,0,1-5.23-.94c-1.67-.4-3.56-.85-5.66-1.26a63,63,0,0,0-8.9-1.08l-2.28-.17c-2.43-.21-5.24-1.81-8.21-3.51-1.33-.76-2.7-1.55-4-2.15-2.87-1.37-10.7-1.18-14.92-1.08-1.21,0-2.19.05-2.82,0-2.39,0-4.68-1.33-6.89-2.57-1-.54-1.89-1.06-2.8-1.47-3.72-1.66-5.38-6-5.38-9.53,0-1.8-1-6.81-1.89-10.83-.53-2.53-1-4.91-1.27-6.45-.45-2.91-3-5.14-6.82-8.52-.79-.7-1.64-1.45-2.53-2.25-4.84-4.39-5.27-10.51-5.68-16.43-.09-1.28-.18-2.5-.31-3.7-.71-6.57,1.08-7.24,6.85-8.38,1-.21,2.26-.45,3.67-.77,6.66-1.53,6.7-2.21,6.92-6,0-.46.06-1,.1-1.48C23,196.21,30.81,193,33.43,193c1.93,0,2.61,1.68,3.11,2.9a6.39,6.39,0,0,0,1.79,2.82,1.62,1.62,0,0,0,1,0c3.24-.56,8.73-4.61,9.31-5.55.93-2.21,4.76-4.6,8.57-3.19,4,1.5,3,7.33,2.39,10.82l-.13.71c-.48,2.82-.28,10.91-.18,14.8l0,.8c.07,2.71-2.27,4.53-4.75,6.45a29.53,29.53,0,0,0-3.3,2.83c8.78,2.21,14.42,1,16.87.17l-2.84-4.19,3.26.54a9.18,9.18,0,0,0,4.47-.54c1.39-.6,1.75-1.68,2.51-4.31.18-.61.37-1.28.6-2a66.32,66.32,0,0,0,1.53-7.2,38.93,38.93,0,0,1,1.51-6.67l.07-.15c.77-1.76,1.93-4.43,4.11-4.5,2,0,3.25,2.3,3.65,3.07l.06.13c1.23,3.18,3.68,5,5.45,5.44a2.12,2.12,0,0,0,2-.42,11.61,11.61,0,0,0,3.74-9.15c-.26-4.52.1-10.59,1.85-14.06s7.05-6.92,11.74-10l.37-.24a26.61,26.61,0,0,0,4.54-4.19c2.76-2.94,5.89-6.28,11.38-8.73,7.82-3.5,8.82-9.4,8.74-15.25a15.32,15.32,0,0,0-3.69-9.56L132,133.28l4.57-2.5a100.79,100.79,0,0,0,12.4-6.42l1.36-1c4.57-3.39,8-5.74,10.28-4.93l.46.16c1.79.64,2.78,1,4.79-.43,1.27-.9,1.12-1.54.79-2.94a8.66,8.66,0,0,1-.3-2c0-1.74,1.21-3.74,2.37-5.67.5-.83,1-1.61,1.3-2.29.15-.31,0-.7-.41-1.51a3.49,3.49,0,0,1-.48-2.92,3.17,3.17,0,0,1,2-1.73c2.86-1.06,6.79-5.26,7.07-6.28,0-.18,0-.48,0-.79,0-1.11-.1-2.5.82-3.45a2.75,2.75,0,0,1,2.06-.81c1.32,0,3.67-1.73,5.22-2.88l.65-.48a21.55,21.55,0,0,1,2-1.22,27.85,27.85,0,0,0,8.46-6.88c3.68-4.4,3.46-9.22,3.33-11.81,0-.42,0-.78,0-1.07,0-1.18-3-3.1-4.76-4.25l-.85-.55c-3.35-2.19-2.56-9-2.07-11.86a3.86,3.86,0,0,1,1.63-2.55c1.62-1.13,4.21-1.36,7.91-.69,5,.91,17,6.17,18.82,7.76,1.18,1,1.5,3.19,1.88,6.61a17.71,17.71,0,0,0,.54,3.34c.14.27.29.64.46,1.05.48,1.15,1.38,3.29,2.42,3.7a1.09,1.09,0,0,0,.91-.07c1.68-.73,2.33-5.25,2.23-8.08l-.23-6.81,2.93,6.15a18.89,18.89,0,0,0,3.77,4.47,10.39,10.39,0,0,0,4,2.21,18.81,18.81,0,0,1,6.62,3.83,17.85,17.85,0,0,0,1.44,1.17,2.83,2.83,0,0,1,3.22-.85,4.48,4.48,0,0,1,2.74,2.18c1.71,2.88,1.82,8.33.28,14.25-.78,3-.4,4.11-.1,4.51a2.84,2.84,0,0,0,2.09.66c1.21-2.31,4-5.4,7-6.38a5.45,5.45,0,0,1,5,.59c4.67,3.18,4.86,12.4,3.91,15.46a19,19,0,0,1-1,2.51c-.19.4-.45.94-.6,1.34a4.84,4.84,0,0,0,1.12,0,2.21,2.21,0,0,1,2.77,1.69c1.18,1.14,8.47,3.56,11.68,3.64,2.55.11,4.69-3.39,4.81-4.23l-.26-.76c-.43-1.24-1-2.94.06-4.22s2.89-1.13,4.19-.93c3,.45,3.45-.67,4.16-2.37a8.4,8.4,0,0,1,.92-1.78c1.71-2.32,6.58-4.21,12.42-4.83h0c2.26-.24,3-2.49,3.22-3.18a4.9,4.9,0,0,1,1.69-2.57l.46-.34,1.77.24.3.23a161.3,161.3,0,0,0,19.2,10.43c7.32,3.17,6.18,12,5.34,15.58-.77,3.33-4.16,6.51-6.4,8.61a18.86,18.86,0,0,0-1.54,1.53c-1.3,1.73-3.8,6-4,8.5-.22,3,1,17.83,2.26,21.05.18.46.33.84.47,1.18,1,2.35,1.12,2.77,2.33,10.08,1.6,9.69-11.94,13.21-13.49,13.58-.89.29-3.21,3.57-4.46,5.33-.8,1.13-1.56,2.19-2.21,3a3.15,3.15,0,0,1-2.41,1.21c-2.25.06-4.53-2.21-6.82-4.73l-.69-.76c-.26-.28-.39-.23-.45-.21-.55.21-1.36,1.5-1.46,3.74-.07,1.68,1,3.21,2.32,5s2.94,4.05,3.29,6.88c.44,3.46,1,12.26-2.69,19.3-2.76,5.2-2.52,7.85-.18,14.94a12.25,12.25,0,0,1-.95,10.62,7.33,7.33,0,0,0-1,2.68c0,.61-.07,1.12-.11,1.56a7.73,7.73,0,0,0,0,1.54s.09.07.41.24c.68-.1,2.37-1.78,3.29-2.69.68-.67,1.32-1.31,1.93-1.82,2.4-2,6.35,1.06,9.83,3.75a29,29,0,0,0,2.39,1.74,18.11,18.11,0,0,1,7.1,9.57,9.69,9.69,0,0,1-2.58,9c-.71.69-1,1.49-.66,3.7l.09.56c.41,2.39,1,5.67-.15,8.92a2.81,2.81,0,0,1-1.7,1.81c-2.06.76-4.86-.88-7.57-2.46a23.42,23.42,0,0,0-2.46-1.33c-1.63-.66-3.49-.64-6.89-.61-1.41,0-3.06,0-5,0-6.36-.1-7.12-2.84-7.39-5.89a13.14,13.14,0,0,0-.19-1.51c-.19-.94-.32-2-.45-3.07-.25-2.09-.57-4.69-1.4-5.52-.37-.37-.74-.56-1-.48s-1,.8-1.31,2.8c-.26,1.44,1.31,5,2.7,8.06,2.42,5.41,4.7,10.51,2.26,13.16a7.68,7.68,0,0,1-5.08,2.81,4.49,4.49,0,0,1-3.24-1c-.47-.44-.76-1.18-1.59-3.44A28.55,28.55,0,0,0,285.2,275l-.37-.47c-1.82-2.35-5.21-6.74-6.71-10.36-1-2.3-2-2.22-3.2-1.9a25,25,0,0,0,.13,4.75c.09,1,.17,2,.17,2.77,0,2.54-2.47,7.28-4.62,11.12a2.59,2.59,0,0,1-1.67,1.3c-1.64.4-3.44-.78-5.33-2a20.35,20.35,0,0,0-2.07-1.26,23.29,23.29,0,0,0-.36,4.5,22.9,22.9,0,0,1-.2,3.31c-.57,3.08-4.49,2.64-7.35,2.32a21.24,21.24,0,0,0-2.56-.2c-1.63,0-4.67,5.08-5.36,7.38-.76,2.53-5.95,6-10.16,8.48C233.07,306.09,231.19,306.82,229.48,306.82Zm-20.24-8.16a18.49,18.49,0,0,1,3,.24c1.47.24,2.89.39,4.26.54,3.92.43,7.31.8,9.77,2.91,2.29,2,3.48,2.43,7.88-.15,6.55-3.84,8.67-6.16,8.88-6.85.35-1.17,3.86-9.36,8.06-9.4a26.94,26.94,0,0,1,2.9.22c1.23.14,3.8.43,4.25,0a25,25,0,0,0,.15-2.85c.07-3.71.22-6,1.63-7a2.24,2.24,0,0,1,2-.27,14.74,14.74,0,0,1,3.15,1.75,12,12,0,0,0,3,1.64c3.49-6.24,4.22-8.7,4.22-9.66,0-.62-.08-1.55-.16-2.53-.33-3.93-.6-7,1.55-7.62,1.42-.39,5-1.36,7,3.44,1.36,3.28,4.6,7.47,6.34,9.72l.37.48c1.08,1.4,2.1,4.21,2.92,6.46.33.89.72,2,.92,2.38.36.2,1.9.84,4.23-1.69,1.17-1.27-1.2-6.57-2.77-10.08-1.78-4-3.31-7.41-2.9-9.71.62-3.49,2.11-4.65,3.25-5a3.79,3.79,0,0,1,3.82,1.18c1.53,1.52,1.88,4.41,2.21,7.19.13,1,.24,2,.41,2.84a15.63,15.63,0,0,1,.23,1.83c.19,2.22.28,3.23,4.61,3.3,1.95,0,3.58,0,5,0,3.63,0,5.82-.06,8,.81a24.32,24.32,0,0,1,2.83,1.52c1.3.76,4.32,2.53,5.13,2.26l0-.08c.88-2.58.4-5.44,0-7.53l-.1-.58c-.35-2.12-.42-4.35,1.47-6.19a6.86,6.86,0,0,0,1.82-6.28,15.3,15.3,0,0,0-5.78-7.84,29.18,29.18,0,0,1-2.71-2c-1.45-1.12-5.31-4.09-6.33-3.78-.47.4-1.07,1-1.7,1.62-2.15,2.14-4.37,4.35-6.53,3.24s-2.11-2.5-2-4.55c0-.42.07-.92.1-1.5a9.58,9.58,0,0,1,1.28-3.81,9.45,9.45,0,0,0,.78-8.46c-2.38-7.22-3-10.79.37-17.16s2.7-15.13,2.38-17.61c-.27-2.1-1.48-3.79-2.77-5.57-1.46-2-3-4.1-2.86-6.77.13-3.16,1.4-5.56,3.29-6.27a3.19,3.19,0,0,1,3.5.91l.74.81c1,1.14,3.44,3.8,4.63,3.8h0c.06,0,.14,0,.29-.18.59-.72,1.32-1.74,2.09-2.83,2.65-3.74,4.38-6,6.12-6.45,1.29-.31,12.53-3.2,11.35-10.36-1.15-7-1.29-7.32-2.16-9.47l-.48-1.21c-1.49-3.81-2.68-19.26-2.45-22.29.26-3.57,3.45-8.54,4.54-10a17.71,17.71,0,0,1,1.87-1.9c1.87-1.75,5-4.69,5.58-7.18.84-3.65,1.47-10.1-3.71-12.35a171.17,171.17,0,0,1-19.31-10.43,2.07,2.07,0,0,0-.25.57,6.78,6.78,0,0,1-5.66,5.26l-.15-1.41.15,1.41c-6.14.65-9.6,2.57-10.43,3.69a6.38,6.38,0,0,0-.58,1.19c-.76,1.82-2,4.87-7.21,4.08a4.24,4.24,0,0,0-1.53,0,7,7,0,0,0,.4,1.46,4.91,4.91,0,0,1,.41,1.9c-.15,2-3.38,7-7.71,6.85-2.56-.07-12.89-2.48-14.21-5.33a7.24,7.24,0,0,1-2.13,0A2.39,2.39,0,0,1,268,104.7c-.63-1.22,0-2.55.74-4.09a16.58,16.58,0,0,0,.9-2.13c.68-2.2.51-10-2.8-12.28a2.65,2.65,0,0,0-2.47-.24c-2.6.86-5.13,4.12-5.64,5.61l-.34,1-1.27,0c-1.57-.05-3.72-.12-5-1.83-1.1-1.47-1.22-3.67-.37-6.92,1.29-5,1.3-9.94,0-12.08-.44-.73-.85-.84-1-.87a2,2,0,0,0-.36-.06l0,.07a2.12,2.12,0,0,1-1.5,1.17c-1,.16-1.94-.36-3.95-2.13a16.16,16.16,0,0,0-5.74-3.31,13.15,13.15,0,0,1-4.91-2.8c-.76-.71-1.39-1.37-1.92-2-.38,2.63-1.34,5.74-3.71,6.76a3.94,3.94,0,0,1-3.09.1c-2.13-.86-3.24-3.49-4-5.23-.15-.35-.27-.65-.39-.88a14.4,14.4,0,0,1-.82-4.3c-.17-1.49-.47-4.27-.94-4.81-1.14-1-12.55-6.2-17.44-7.09-3.91-.71-5.35-.08-5.78.22a1,1,0,0,0-.46.71c-.64,3.68-.57,8.08.83,9l.83.54c2.84,1.83,6.06,3.91,6.06,6.63,0,.26,0,.57,0,.94.13,2.76.4,8.51-4,13.76a30.75,30.75,0,0,1-9.23,7.53,19.84,19.84,0,0,0-1.72,1l-.64.47c-2.18,1.61-4.65,3.43-6.91,3.43h0a6.94,6.94,0,0,0,0,1.31c0,.41,0,.81,0,1.17-.15,2.37-5.73,7.5-8.9,8.68l-.29.12c.07.18.19.42.28.59a4.32,4.32,0,0,1,.43,4c-.38.8-.89,1.64-1.43,2.53-.88,1.45-2,3.25-2,4.2a6.37,6.37,0,0,0,.22,1.33c.36,1.55.91,3.9-1.91,5.9-3.21,2.28-5.42,1.49-7.38.79l-.44-.15c-1.2-.27-5.9,3.22-7.66,4.53l-1.47,1.08a101.27,101.27,0,0,1-12.82,6.66l-1.27.7a18.14,18.14,0,0,1,3.34,10.06c.09,6.12-1,13.68-10.41,17.88-5,2.22-7.89,5.34-10.47,8.09a29,29,0,0,1-5.06,4.62l-.37.24c-4.17,2.73-9.37,6.13-10.77,8.9-1.51,3-1.78,8.66-1.55,12.62a14.37,14.37,0,0,1-4.6,11.35A4.91,4.91,0,0,1,91.9,209c-3.06-.68-6-3.53-7.45-7.11a4.11,4.11,0,0,0-1-1.43,9.55,9.55,0,0,0-1.58,2.76l-.07.15a41.79,41.79,0,0,0-1.32,6,66.59,66.59,0,0,1-1.63,7.57c-.22.68-.4,1.32-.57,1.91-.77,2.67-1.44,5-4.12,6.13a10.68,10.68,0,0,1-3.13.78l1.28,1.88-1.29.77c-.31.19-7.82,4.51-22.57.14L46.65,228l1-1.58a21.15,21.15,0,0,1,5.2-5.12c1.9-1.47,3.69-2.86,3.65-4.14l0-.79c-.11-4.28-.31-12.25.22-15.35l.13-.73c.43-2.44,1.24-7-.58-7.66a4.3,4.3,0,0,0-5,1.69c-.78,1.84-6.92,6.07-10.76,7a4.37,4.37,0,0,1-3.93-.47,9,9,0,0,1-2.64-4,6.54,6.54,0,0,0-.53-1.13c-1.37.07-7.68,2.44-8,6.81,0,.51-.07,1-.09,1.43-.29,5-1.06,6.74-9.12,8.59-1.44.33-2.68.58-3.75.79-5,1-5,1-4.58,5.3.14,1.25.23,2.55.31,3.8.39,5.61.77,10.9,4.76,14.52.88.8,1.71,1.53,2.5,2.23,4.14,3.65,7.13,6.29,7.74,10.21.23,1.47.72,3.82,1.24,6.31,1,4.58,2,9.32,2,11.41,0,2.63,1.27,5.85,3.71,6.94,1,.46,2,1,3,1.58,2,1.12,3.88,2.17,5.57,2.21.6,0,1.54,0,2.69,0,6.44-.15,13-.18,16.2,1.36,1.37.65,2.79,1.46,4.16,2.25,2.57,1.47,5.23,3,7,3.15l2.23.16a66.29,66.29,0,0,1,9.26,1.13c2.15.42,4.15.9,5.77,1.28a36.33,36.33,0,0,0,4.21.87c.76-1,1.89-1.61,4.93-1.73,3.52-.13,6.9.94,9.88,1.88,1.29.41,2.51.79,3.65,1.06,1.7.4,3.16.77,4.44,1.11,1.66.43,3,.77,4.09,1,.89.15,2.27.54,4,1,2.63.73,5.91,1.65,9.14,2.24a50.34,50.34,0,0,1,6.7,1.73,10.19,10.19,0,0,0,2.38.61,2.81,2.81,0,0,1,1.05.12q.4-.32,1.17-1a13.2,13.2,0,0,0,1.91-2,17.33,17.33,0,0,1,2.92-2.92c3-2.6,6.14-2.25,8.64-2a19.62,19.62,0,0,0,2.17.17c3.2,0,9.3.37,10.95.55a39.34,39.34,0,0,0,6,.13,6.24,6.24,0,0,0,1.28-.47c1.94-.85,5.54-2.43,8.73,1.7a13.17,13.17,0,0,1,2.52,6.33c.33,1.86.51,2.63,1.64,3.12,3.28,1.43,8.35,1.72,11.05.62.46-.19.92-.39,1.38-.59A19.7,19.7,0,0,1,209.24,298.65Z"/></svg>