<svg id="Layer_1" data-name="Layer 1" xmlns="http://www.w3.org/2000/svg" viewBox="0 0 350 350"><defs><style>.cls-1{fill:#999;}.cls-2{fill:#f90;}</style></defs><title>M</title><path class="cls-1" d="M342.76,223.53c-9.64-3.17-29.79-10.78-31.32-11.16s-8.11,1.52-16.61,7.23c-7.48,3.93-20.29,10.52-20.29,10.52l-6.09-2-8.62-5.2s.76-4.44,3.3-5.07c-.76-3.93-3.42-7.73,2-6.47-.13-4.44-1.14-22.69,3.3-25.86-.51-5.71-2.28-13.82,5.07-16.36,1.9-5.58,7.48-22.57,6.09-24.85s-5.07,3.8-6.34,0c-.38-3.17,1.52-6.85,4.18-6.21s7.35-1.65,7.35-1.65-10.9-3.3-13.19,1.52c-1.27.25-4.44,1.52-2.79-3.8-1.9-2.41-2-2.41-2.79-5.83s-1.39-9.38,4.06-8.24a11.25,11.25,0,0,0,9.89-3.8c.63-.89,3.3.63,5.07.76s11-6,11.16-5.58.89,3.8,3.93,3.3,7.48,0,7.61-3.31c-.63-4.29-2.79-8.48-.25-13.42,2-5.71,1.52-6.21.76-10-1.9,2.66-4.31,4.44-6.47,0s-9.51-24.47-11.28-27.26c-1.9,2.28-7.23,11.54-19.27,11.79-5.2,1.52-6.59,1.14-6.59,1.14S257.82,46,255.91,44.25s-1.78-4.56-3.68-4.82-8.24-1-10.78,1.39.76,6.85-2.54,9.38c-2.54,1.39-9.38-.51-11,2.28s-11.54,13.44-20,14.2c-6.34,4.56-11.28,8.62-15.47,7.86s-10.14-4.18-7.86-5.45c2.79-1.27,2,.38,2.79-1.27s-.38-2.66-1-2.28-1.39,2-3.55,2.79a5.55,5.55,0,0,1-3,.51c-.51,0-2.54,1.52-5.2.13s-5.45-.38-5.07-8c.13-5.83,0-6.34,0-6.34s-6.94,4.06-9,6.59S153.34,73.67,153,74s-1.65,2.92-4.69.25c-2.92,1.52-5.2,5.45-6.34,6.47s-10.52,6.85-20,1.78c-7.73-3.68-12.43-5.2-10.78-11.79l1-3.55s-19.4-4.56-25.86-13.06C83.36,60,79.68,65.93,79.68,65.93a13,13,0,0,1-2.41,3c-1.52,1.39-6.72,2.79-6.72,2.79s-1.14,7.61-3.42,8.75-2.92,8-3.17,8.37a30.36,30.36,0,0,1-5.07,7c-3.42,3.55-4.94,4.56-7.35,4.69s-3.42.63-7.1,1.27-3.93.51-2.54,2.16,3.55,3.93,3.42,5.32,2.28,2.79-2.16,2.79-7.23,1.27-8,2.41-15.59.38-20.54,4.56S9.44,125.65,13,131s7.1,5.83,9.13,9.26,3.93,7.48,3.55,11.28-5.32,5.32-7.61,10.65S11.72,169.9,14.89,176s3.8,4.69,8,7.86,4.69,1.14,5.2,6.21-1.65,5.2-3.17,7.48-2.59,3.66-3.68,3.68l-1.1,0a2,2,0,0,1-.3,1.67c-5.83-1.65-11.28.76-12.65,5.32a5.31,5.31,0,0,0,2.51,6.47L13,219l10-4.31.25-7.23a39.17,39.17,0,0,1,5.83-.38c6,0,3.55-3.17,4.82-3.93s3-3,4.56-4.06c3-3.68,12.43.38,14.2,2s.89,2.79-.13,4.06a6.22,6.22,0,0,0-.89,5.2c-.25,3.93-2.92,10.4-6.34,13.06s-7.23,1-8.62,1.9c-1.27,5.58-6.47,3.68-8.49,2s-1.14.38-6.21,0c3.8,2,3,5.2,3.17,6s-1.14,2.54-.38,3.17c4.82,1,3.42,5.45,3,5.58s-5.71-.76-5.71-.76,1.14,10.9.63,13.95.13,2.41-3.93-.13c-4.31-2.54-10,0-11.41,2.66s4.06,5.45,5.83,6a67.09,67.09,0,0,1,9.26,2.66c3.8,3.17,6.21.63,8.37.89.13,1.39-1.52,9.26-2.79,10a30,30,0,0,1-7.73,4.44c-4.94,5.58,2.92,9.13,4.94,10.27s5.71,3.8,4.94,5.07-1.39,1.9-6.09,2.54c.38,1.39,7,6.09,7.86,7s1.77-.51,5.45-.89,29-11.66,30.43-12.81,7.86-4.82,11.79-5.07,72.78-11.66,72.78-11.66l1.39,6.49c2.28,10.55,9,9.49,13.57,5.94s.38-10.4-2.16-12.55c.51-2,4.56-3.55,9.51-2.92,10,2.66,15.34.25,15.34.25l11-13.06s7.73,5.45,10.14,6.09,10.9,3.17,12.81,1.65,3.55-7.1,3.55-9.51,1.39-5.71,4.06-3.3,10.78,13.69,12.93,15.34,3.55,3.42,3.3,4.56-5.71,3.17-9.51,4.31c-3.42,1-3.17,9-3.42,10.65s-5.45,5.83-5.07,9.26c1.21,2.54,12.9,10.72,14,11.48.07,0,.1,0,.09.06s3.4-11.58,4-12.09c1.75,0,9,5.66,9.69,6s14-16.19,14-16.19a2.14,2.14,0,0,1-1-3.55c1.86-2.54,3.55-5.75,4.73-5.75h1.86l4.56-4.06a7.49,7.49,0,0,0,6.93-2.54,53.47,53.47,0,0,1,6.59-6.59l-5.92-5.41-3.55,4.06-4.9-3a5.75,5.75,0,0,1,2-3l8.54-11.5,3.8,2.28,4.82-5.32h2.16s6-4.69,7.35-6a13.1,13.1,0,0,0,2.41-3.3s2.79,2.41,4.18-1.27c2-.13,2.66,1.52,3.55,1-1.65-2.79-3.55-3.42-1.39-5.58s3.55-2.66,6.21-2.66,5.2,2.16,6.47,1.78C335.28,225.68,345,224.79,342.76,223.53Z"/><path class="cls-2" d="M243.76,312.44l-.66-.46c-3.93-2.73-13.19-9.37-14.46-12l-.1-.22,0-.24c-.31-2.75,1.86-5.44,3.6-7.61a12.55,12.55,0,0,0,1.48-2.06c0-.23.06-.67.09-1.23.19-3.29.56-9.41,4.32-10.53,4.19-1.26,7.6-2.71,8.5-3.41a8.34,8.34,0,0,0-2.74-3c-1.17-.89-3.33-3.59-6.76-7.93a91.41,91.41,0,0,0-6.26-7.49c-.5-.46-.77-.48-.8-.47a3.71,3.71,0,0,0-.89,2.71c0,2.58-1.68,8.7-4.08,10.62-1.9,1.52-6.46.68-13.2-1.16l-.85-.23c-2.1-.55-7.23-4-9.53-5.56L191,274.51l-.29.13c-.24.11-5.87,2.57-16.2-.15-3.76-.46-6.44.43-7.44,1.29,1.84,2,3.88,5.48,3.81,8.75a6.5,6.5,0,0,1-2.58,5.15c-3.25,2.53-6.75,3.38-9.6,2.35-3.06-1.11-5.15-4.17-6.22-9.1l-1.11-5.17c-9.88,1.64-67.89,11.22-71.58,11.46-3.41.22-9.6,3.63-11,4.75-1.54,1.26-27.13,12.7-31.18,13.12a12.61,12.61,0,0,0-3.29.79c-1,.36-2.2.8-3.31-.31-.2-.2-1-.86-1.85-1.49-4.22-3.3-6-4.88-6.38-6.11l-.43-1.56,1.6-.22c3.78-.51,4.46-.95,4.89-1.59a14.49,14.49,0,0,0-4.25-3.38l-.52-.28c-2-1.05-6-3.24-6.67-6.75a6.37,6.37,0,0,1,1.88-5.41l.22-.25.31-.12a24.48,24.48,0,0,0,6.38-3.53c.38-.29.71-.53,1.05-.75.67-.85,1.68-4.88,2.06-7.22l-.17,0a7.31,7.31,0,0,1-7.37-1.34,46.51,46.51,0,0,0-7-2.05c-.77-.18-1.43-.33-1.93-.48-1.41-.4-5.64-2.34-6.78-5a3.36,3.36,0,0,1,.08-3,9.25,9.25,0,0,1,5.64-4,9.82,9.82,0,0,1,7.74.81c.75.47,1.33.87,1.8,1.19V255c.39-2.34-.33-10.59-.65-13.57l-.19-1.85,1.84.31c1.6.27,3.45.55,4.52.68a2.5,2.5,0,0,0-.2-1.33,2.89,2.89,0,0,0-2.18-1.38l-.34-.07-.27-.23c-1.23-1-.67-2.58-.33-3.52.07-.2.17-.48.2-.62a5.26,5.26,0,0,1,0-.67,4,4,0,0,0-2.4-4.16l-5.94-3.17,6.71.5a7.34,7.34,0,0,0,3.61-.38c1.17-.45,2-.46,3.39.69,1,.81,3.05,1.73,4.48,1.24.31-.11,1.27-.44,1.74-2.49l.13-.57.49-.31a5.51,5.51,0,0,1,3.16-.51c1.68,0,3.58.07,5.36-1.31,2.91-2.27,5.45-8.12,5.78-11.8a7.69,7.69,0,0,1,1.21-6.22c1.05-1.32,1.06-1.4.27-2.13-1-.9-6.12-3.36-9.75-3.13a3.26,3.26,0,0,0-2.4,1l-.13.16-.17.12a16.71,16.71,0,0,0-2.16,1.95,16.91,16.91,0,0,1-2.23,2c0,.09,0,.2,0,.29-.17,2-1,4-5.75,4a43.93,43.93,0,0,0-4.46.22l-.24,6.92-11.86,5.1-3.78-4.95a6.71,6.71,0,0,1-2.92-8c1.48-4.92,7-7.65,12.85-6.63l-.27-1.44,1.77.06,1,0c.56-.11,2-2.32,2.52-3A11.15,11.15,0,0,1,25.2,195c1.07-1.08,1.77-1.79,1.47-4.83-.27-2.66-.27-2.66-1.4-3.23A18.93,18.93,0,0,1,22,185a24.71,24.71,0,0,0-2.78-1.82c-2.15-1.25-3.28-2-5.61-6.51-2.67-5.13-.82-8.16,1.13-11.37a28.35,28.35,0,0,0,2-3.66,19,19,0,0,1,4.72-6.24c1.48-1.43,2.64-2.56,2.78-4,.36-3.65-1.74-7.69-3.36-10.42a11.48,11.48,0,0,0-3.25-3.21,23.32,23.32,0,0,1-5.84-6c-4-6-3.53-9.18,1.91-13.79,3.57-3,11-3.65,16.43-4.1a38.9,38.9,0,0,0,4.07-.46c1.4-1.68,4.84-2.74,8.94-2.74.42,0,.74,0,1,0a3.22,3.22,0,0,1-.24-1.47c0-.69-1.78-2.75-2.54-3.63l-.56-.65c-.69-.81-1.4-1.65-1-2.7s1.39-1.26,3.56-1.63l.84-.14c1.45-.25,2.46-.48,3.35-.68a21.12,21.12,0,0,1,3.91-.61c1.82-.1,3-.72,6.41-4.26a28.25,28.25,0,0,0,4.65-6.33l.14-.26c0-.17.09-.45.15-.8.62-3.41,1.47-7.14,3.68-8.24.85-.42,2.12-4.09,2.66-7.69l.14-.92.9-.24c2-.54,5.26-1.67,6.13-2.46a11.73,11.73,0,0,0,2.12-2.67c.08-.13,3.72-6,6.57-11.75l1-2,1.38,1.81c6.09,8,24.87,12.49,25.06,12.54l1.45.34-1.42,5c-1.16,4.64,1,5.91,8.14,9.24l1.88.88c8.54,4.56,17.24-.45,18.48-1.55a14.7,14.7,0,0,0,1.2-1.44c1.33-1.7,3.14-4,5.42-5.22l.86-.45.73.64c.94.82,1.45.87,1.63.85s.57-.34.83-.69l.2-.25c.2-.3.9-1.58,1.57-2.82a98.06,98.06,0,0,1,5.89-10c2.13-2.66,8.63-6.5,9.36-6.93l1.53-.89.54,1.69c.06.2.23.73.1,6.8-.25,5,.73,5.37,2.51,6a12,12,0,0,1,1.8.73,3.76,3.76,0,0,0,3.46,0,3,3,0,0,1,1.5-.25,4.57,4.57,0,0,0,2.16-.45,5.25,5.25,0,0,0,2.29-1.73,4.32,4.32,0,0,1,1-.94,2.12,2.12,0,0,1,2.51.31,3.16,3.16,0,0,1,.52,3.78c-.4.86-.84,1.82-2.18,1.58a1.54,1.54,0,0,0-.6.11,16.75,16.75,0,0,0,6.82,3c3.15.57,7.43-2.56,12.4-6.18l2-1.44.31-.23.39,0c7.85-.7,17.48-11,18.94-13.51s4.66-2.35,7.56-2.37a12.36,12.36,0,0,0,3.92-.38c1-.84,1-1.94.89-3.78s-.23-3.85,1.44-5.43c2.06-2,6.08-2.55,11.94-1.77,1.84.25,2.54,1.78,3.1,3a6.61,6.61,0,0,0,1.35,2.17c1.92,1.79,6.67,20.14,8.9,29.06a27.84,27.84,0,0,0,5.08-1.11l.37-.06c10-.21,15-6.94,17.36-10.17.34-.45.62-.83.85-1.11l1.24-1.49,1,1.64c1,1.57,3.22,7.14,6.5,15.47,2,5.16,3.95,10,4.87,11.93.66,1.36,1.27,1.87,1.61,1.9s1.28-.5,2.43-2.11l1.9-2.66.64,3.21c.08.41.16.78.23,1.13.68,3.18.8,4.43-1,9.64l-.07.17c-1.69,3.29-1,6.23-.26,9.35.24,1,.5,2.12.66,3.21l0,.13v.13c-.15,3.83-4.18,4.2-6.84,4.44-.7.06-1.36.12-1.95.22a4.46,4.46,0,0,1-5-2.76l-1.76,1c-5.06,2.93-7.4,4.13-8.71,4.05a12,12,0,0,1-2.61-.61,13.12,13.12,0,0,0-1.47-.4A12.71,12.71,0,0,1,270,121.48l-.13,0a2.34,2.34,0,0,0-2.17.28c-.82.83-.9,3.17-.21,6.26.64,2.9.67,2.93,2.19,4.84l.79,1-.22.71a5.63,5.63,0,0,0-.38,2.28,5.91,5.91,0,0,0,.89-.14c3.21-4.88,13.33-2,14.52-1.64l3.47,1-3.26,1.58c-.53.26-5.24,2.48-8.3,1.75a1.17,1.17,0,0,0-1.13.35,5.35,5.35,0,0,0-1.33,4.17l.07.16a7.88,7.88,0,0,0,1.27-.69c1-.62,2.12-1.31,3.31-1a2.41,2.41,0,0,1,1.51,1.14c.46.76,1.88,3.07-6,26l-.22.66-.66.23c-5.11,1.76-5,6.49-4.32,13,.07.66.14,1.3.19,1.91l.07.81-.66.47c-1.59,1.14-3.36,6.12-2.74,23.44l.09,3.07-1.79-.42a5.77,5.77,0,0,0-1.61-.21,13,13,0,0,0,.56,2.26,27.08,27.08,0,0,1,.74,2.76l.26,1.32-1.3.33c-.94.24-1.66,1.81-2,3l7.6,4.58,5.37,1.79c2.49-1.28,13.14-6.78,19.68-10.21,8-5.38,15.29-8,17.68-7.38.67.17,3.75,1.29,9.59,3.42,6.84,2.5,16.21,5.92,21.82,7.76l.25.11a1.79,1.79,0,0,1,1.06,1.83c-.19,1.46-1.79,1.88-5.3,2.79-2.49.65-5.59,1.45-7.37,2.53l-.33.15c-1.1.33-2.21-.16-3.5-.72a9.07,9.07,0,0,0-3.37-1c-2.22,0-3.29.33-5.21,2.25-.51.51-.55.72-.55.73a5.22,5.22,0,0,0,.76,1.13,18.49,18.49,0,0,1,1.4,2l.73,1.24-1.25.71a2.47,2.47,0,0,1-2.71-.33,3.9,3.9,0,0,0-.71-.39,3.5,3.5,0,0,1-4.5,1.67,12.39,12.39,0,0,1-2,2.43c-1.42,1.29-7.19,5.83-7.43,6l-.39.3h-2l-5.18,5.72-3.7-2.22-8,10.73a4.72,4.72,0,0,0-1.16,1.36L285.6,263l3.71-4.24,8.19,7.49-1.26,1a52.41,52.41,0,0,0-6.39,6.39,8.73,8.73,0,0,1-7.57,3.13l-4.49,4h-2.23a17.26,17.26,0,0,0-2.23,3c-.49.74-1,1.5-1.53,2.22-.31.42-.38.71-.34.82s.52.49.69.55L274,288l-1.26,1.56C258.68,307,258.21,306.78,257,306.07c-.22-.12-.59-.39-1.49-1a63.67,63.67,0,0,0-6.73-4.49c-.72,2-2.15,6.57-3.37,10.75l-1.41-.34-.84,1a1.36,1.36,0,0,0,1.38.19Zm-12.44-13.51c1,1.55,6.53,5.85,11.88,9.65,3-10.12,3.49-10.55,3.81-10.84l.4-.36H248c1.35,0,3.67,1.35,9.17,5.35l.49.36c1.85-1.86,7.09-8.07,12-14.12a3.3,3.3,0,0,1-.84-1.37,3.66,3.66,0,0,1,.77-3.33c.5-.68,1-1.41,1.45-2.11,1.63-2.45,2.81-4.21,4.42-4.21h1.32l4.69-4.17.69.14a6,6,0,0,0,5.55-2,50.78,50.78,0,0,1,5.57-5.74l-3.67-3.36-3.39,3.87-6.76-4.2.19-1a7.07,7.07,0,0,1,2.38-3.75l9.2-12.39,3.91,2.34,4.46-4.93h2.29c1.34-1.06,5.75-4.55,6.89-5.59a11.73,11.73,0,0,0,2.1-2.88l.82-1.62,1.38,1.19a1.67,1.67,0,0,0,1.13.42c.27-.07.57-.49.8-1.11l.32-.85.91-.06h.23c-.57-1.13-.67-2.47,1-4.14a8.8,8.8,0,0,1,7.21-3.08,11.35,11.35,0,0,1,4.51,1.23,10.17,10.17,0,0,0,1.52.58,35.56,35.56,0,0,1,7.84-2.68l1-.25c-5.63-1.93-13.24-4.71-19-6.83-4.5-1.64-8.75-3.19-9.31-3.33-.87-.15-6.72,1.15-15.48,7l-.13.08c-7.4,3.89-20.17,10.46-20.3,10.53l-.53.27-6.94-2.35-9.45-5.7.16-1c.08-.47.77-4.07,3.05-5.62-.13-.47-.27-.94-.41-1.41-.6-2-1.17-3.83,0-5.08a3.24,3.24,0,0,1,2.61-.85c-.35-10.35-.18-21.14,3.29-24.78q-.06-.56-.12-1.15c-.59-5.46-1.38-12.87,5.54-15.71,4.24-12.52,6.18-20.64,6-22.75-.29.14-.67.38-.93.54-1.07.66-2.4,1.49-3.76,1a3.09,3.09,0,0,1-1.8-2.1l-.06-.28a8.19,8.19,0,0,1,2.24-6.77,4.55,4.55,0,0,1,1-.67,3.13,3.13,0,0,0-2.18,1.54l-.3.64-.7.14-.34.08c-.94.23-2.69.65-3.83-.57s-.84-2.92-.45-4.39c-1.62-2-1.87-2.51-2.61-5.83-1-4.28-.63-7.26,1-8.87.76-.77,2.2-1.58,4.7-1.08a9.89,9.89,0,0,0,8.52-3.22c1-1.38,2.78-.82,4.36-.32a10.12,10.12,0,0,0,2,.49c.91-.1,5.08-2.51,7.08-3.67,3.33-1.93,3.67-2.13,4.46-1.83l.63.24.28.82c.71,2.44,1.82,2.26,2.3,2.17.69-.12,1.44-.18,2.16-.25,3-.27,4.14-.56,4.25-1.61-.14-.93-.36-1.85-.59-2.83-.77-3.3-1.65-7,.46-11.21,1.26-3.57,1.46-4.82,1.23-6.42a4.07,4.07,0,0,1-3,1.07c-1.54-.13-2.86-1.3-3.92-3.49-1-2-2.9-6.92-5-12.13-1.82-4.62-4-10.11-5.3-13.07-2.72,3.59-8.39,10.23-18.8,10.53-5,1.46-6.77,1.21-7.18,1.1l-.8-.22-.2-.81c-3.22-13-7.24-27.31-8.39-28.77a9,9,0,0,1-2-3c-.43-.94-.65-1.34-.9-1.38-4.76-.64-8.26-.27-9.61,1-.68.64-.65,1.64-.56,3.21.11,1.88.26,4.47-2.08,6.27l-.18.12c-1.36.75-3.3.76-5.35.78s-4.58,0-5.14,1c-1.86,3.15-11.87,13.77-20.73,14.85l-1.67,1.21c-5.72,4.17-10.24,7.46-14.58,6.67-3.08-.56-9-3-9.5-5.77a2.3,2.3,0,0,1,0-.29,6.19,6.19,0,0,1-2.75.39h0l-.16.07a6.56,6.56,0,0,1-5.83-.11,9.46,9.46,0,0,0-1.4-.55c-2.71-.92-4.76-2.14-4.43-8.76,0-1.68,0-2.91,0-3.79-2.3,1.46-5.4,3.59-6.53,5a103,103,0,0,0-5.62,9.55c-1.55,2.83-1.71,3.12-2,3.37l0,.07a4.07,4.07,0,0,1-2.8,1.79,4.48,4.48,0,0,1-2.93-.88,20.13,20.13,0,0,0-3.75,4,14.8,14.8,0,0,1-1.55,1.82c-1.56,1.39-11.61,7.32-21.64,2l-1.81-.85c-6.66-3.11-11.47-5.36-9.68-12.54l.63-2.19C106,67,93,63.16,86.58,56.64c-2.71,5.17-5.66,10-5.7,10A14.34,14.34,0,0,1,78.23,70c-1.37,1.26-4.71,2.36-6.42,2.86-.46,2.56-1.65,7.7-4,8.9-.51.26-1.3,1.54-2.16,6.22a4.24,4.24,0,0,1-.47,1.67L65,89.9a31,31,0,0,1-5.1,6.94c-3.36,3.48-5.25,5-8.3,5.12a18.39,18.39,0,0,0-3.44.55c-.88.2-2,.44-3.49.7l-.85.14-.51.09.21.24c2,2.3,3.37,4.05,3.21,5.74a3.59,3.59,0,0,0,.19.48,2.42,2.42,0,0,1,0,2.42c-.64,1-2,1.18-3.8,1.18-4.21,0-6.44,1.22-6.81,1.78-.62.93-1.75,1.06-6,1.42-4.76.4-12,1-14.84,3.44-4.35,3.68-4.57,5.28-1.38,10a20.31,20.31,0,0,0,5.21,5.3,14,14,0,0,1,4,4c1.82,3.07,4.19,7.67,3.74,12.15-.25,2.46-1.89,4.06-3.63,5.74a16.19,16.19,0,0,0-4.08,5.32,31,31,0,0,1-2.18,4c-1.85,3-3,4.87-1,8.58,2,3.93,2.82,4.38,4.52,5.37a27.74,27.74,0,0,1,3.07,2,15.85,15.85,0,0,0,2.79,1.72c2.16,1.08,2.6,1.9,3,5.49.44,4.38-1,5.83-2.28,7.11a8.66,8.66,0,0,0-1.12,1.3c-1.59,2.39-2.87,4.11-4.58,4.29a3,3,0,0,1-.56,1.14l-.59.73-.9-.25c-5-1.4-9.75.52-10.91,4.37a3.87,3.87,0,0,0,1.79,4.79l.28.15.21.26,2.63,3.43,8.18-3.52.26-7.49L23,206a40.56,40.56,0,0,1,6.07-.4c2.81,0,2.86-.56,2.93-1.4a2.72,2.72,0,0,1,1.16-2.33,13.58,13.58,0,0,0,1.91-1.72A20.19,20.19,0,0,1,37.52,198a6,6,0,0,1,4.25-1.83c4.39-.3,10.25,2.39,11.86,3.88,2.75,2.56,1,4.78,0,6a4.81,4.81,0,0,0-.64,3.9l.08.25,0,.26c-.28,4.35-3.18,11.2-6.88,14.09A10.48,10.48,0,0,1,39,226.43c-.38,0-.84,0-1.18,0a5.39,5.39,0,0,1-3.35,3.72c-2.45.85-5.44-.3-7.19-1.72a4.07,4.07,0,0,0-.42-.31l-.17.07a8.44,8.44,0,0,1-1.22.38,7.18,7.18,0,0,1,1.07,4.21c0,.13,0,.23,0,.32a3.88,3.88,0,0,1-.35,1.9l-.13.36a5,5,0,0,1,3.63,4.57s.15,2.93-1.44,3.46c-.31.1-.63.21-4.56-.41.31,3.34.85,10,.44,12.48-.05.32-.09.6-.13.84-.14,1-.27,1.86-1.18,2.25s-1.64-.11-2.64-.82c-.5-.36-1.19-.84-2.13-1.43a7.11,7.11,0,0,0-5.5-.5,6.61,6.61,0,0,0-3.91,2.62.55.55,0,0,0,0,.54c.59,1.38,3.59,3,5,3.4.47.13,1.08.27,1.8.44A47.92,47.92,0,0,1,23,265.07l.2.08.17.14c2.06,1.72,3.42,1.35,5,.92a6.81,6.81,0,0,1,2.64-.35l1.14.13.1,1.15c.11,1.21-1.31,10.06-3.47,11.36a10.81,10.81,0,0,0-.9.64,26.67,26.67,0,0,1-6.71,3.77,3.46,3.46,0,0,0-1,2.79c.39,2.16,3.65,3.91,5.22,4.75l.57.31c.52.29,5.05,2.9,5.68,5.29a2.2,2.2,0,0,1-.22,1.74c-.87,1.46-1.8,2.21-4.56,2.79,1.27,1.12,3.06,2.52,4,3.27s1.58,1.23,1.93,1.55l.52-.18a15.38,15.38,0,0,1,4-.94c3.34-.35,28-11.28,29.7-12.51,1.54-1.26,8.29-5.09,12.58-5.37,3.05-.2,48.85-7.71,72.63-11.65l1.33-.22,1.68,7.81c.83,3.86,2.36,6.29,4.42,7,2.72,1,5.73-1,6.9-1.92a3.66,3.66,0,0,0,1.49-3c.06-2.72-2.1-6-3.69-7.38l-.67-.57.21-.85c.73-2.93,5.6-4.68,11.06-4l.18,0c8.1,2.15,13,.83,14.13.43l11.63-13.77,1.06.75c2.91,2.05,8.11,5.46,9.69,5.87l.87.24c8.13,2.22,10.19,2,10.7,1.67,1.36-1.09,3-6.09,3-8.4,0-2.07.8-4.52,2.57-5.31.7-.31,2.13-.6,3.85,1a88.15,88.15,0,0,1,6.58,7.83c2.48,3.14,5.29,6.69,6.26,7.43,1.64,1.26,4.33,3.71,3.82,6-.13.59-.53,2.38-10.49,5.36-1.87.55-2.2,6.14-2.3,8,0,.68-.07,1.17-.12,1.53-.15,1-1,2-2.07,3.37C233.06,295.25,231.35,297.38,231.32,298.94Zm-205.84.19-1.72-65.6h0Zm0-.15Zm254.31-96.63a4,4,0,0,0,.59,0ZM62.78,88.09l0,0Z"/></svg>