<svg id="Layer_1" data-name="Layer 1" xmlns="http://www.w3.org/2000/svg" viewBox="0 0 350 350"><defs><style>.cls-1{fill:#999;}.cls-2{fill:#f90;}</style></defs><title>M</title><path class="cls-1" d="M200,267.58,184,270l-1.75-8.52L70.81,283.75l-2.19-9.29,7.21-7.76.44-5.24v-4.92l-.66-5.14L79.33,250s.44-2.51-.33-3.82-.76-1.86-.55-4.37,1.75-9.51,1.75-9.51A68.8,68.8,0,0,1,78.35,225c-.11-1.53,2.68-2.19,2.68-2.19v-3.28l-24.64-.22V217H22.84l-9.72,3.71-1.64-1.86,1.86-2.19a13.53,13.53,0,0,0-1.09-2.84c-.33-.22-2.08-1.42-3.06-2s2.08-2.19,2.08-2.19l.44-3.61s2,3,2.73,1.42,3.93-2,3.93-2,.87-.11.55-1.75-4.37-2.84-4.37-2.84l-7.87.87s-1.35-4,.76-7.36a19.74,19.74,0,0,0,3-10.63c-.15-3.06-.87-12.38-.87-12.38L21.35,170l-.29-4.66h1.78v-7.14a2,2,0,0,0,0-2.91c3-1,6.52-2.48,6.52-2.48l-.87-3.06,3.35-6h1.31l-.15-6,2.77,3.93,6.56-.15.87,3.06,5.24,2.48,4.08,2.48,4.08,1.89-.15,5a5.94,5.94,0,0,1,1.31,2.91,13.8,13.8,0,0,1-.58,3.79c-.29.87.44,3.5.44,3.5l3.93,1.46s8.16-3.06,9.18-1.31l1,1.75,4.22.58L78,171s.62,4.37,3,2.19a22.36,22.36,0,0,0,3.26-3.5l2.62,1.46,7.87-.15s5.54,4.81,6,5,4.37-7.28,6.41-15l2.19-1.6,5.54.15s3.5-3.35,7.28-3.5v-1.89l4.81-4.81,7.72-1.17-.58-2.19,14.71-3.79,10.34-12.09-3.64-1.31L142,122l1.6-2.19-10.93-6.56s6.56-4.81,6.26-10.93c2.91,2.19,7.87,1,7.87,1l1.6,4.52,12.67,4.66,12.09-10.2,1.6.73-.15-4.37,3.21-5.54h4.52s-.15,2.91,1,1.75,6.7-7.72,6.7-7.72l8.6-.87h3.93l7.87-20.1,17.63,8.16a11.32,11.32,0,0,1,0,3.21c-.29.87,2.62,4.81,2.62,4.81l2.91,2s-2.48,3.5-2.48,5.39a37.61,37.61,0,0,0,.44,4.66L257.94,107l5.24.15s4.08,5.39,4.52,5.54,7,4.08,7,4.08l1,3.21,2.19.15,1.31,2.48-1.46,1.17-.29,2.77-7.14,7s-1.89,3.5-.73,3.64,3.5.73,3.5.73l10.2,7.28,5.54,3.21,1.31,5,1.6.15,2.33,3.93,2.62.44v2.19l-3.93,3.06s4.66,8.6,3.93,13a65.37,65.37,0,0,1-1.6,7.28l-.44,3.06a7,7,0,0,1,3.5,3.64c1,2.62.87,4.81,3.21,7.72s-2.62,10.34,1.31,12.38l3.93,2v2.48l2.33,2.77-1,3.73-3.79,5-2.62,1.31s2,.73,3.79,1.31a35.85,35.85,0,0,0,4.81,1l2.48.87s1.6,3.2,4.81,2.77l3.21-.44,6.26.29,1.17-7,4.66.29.58,2.62,2.91-.29v3.2l4.66,2.62a14.24,14.24,0,0,1-3.2,1.31c-.73,0-3.5-1.31-2.19,1.46a12.17,12.17,0,0,0,4.22,4.52l4.08.87v3.64l-5-.73-1.31,5.39-6.26,5-9.76,1.89-.87,5.1s-2.62,2.33-10.2.29a60.65,60.65,0,0,0-14.13-2s-5.68-10.63-7.72-11.8c-6.56,4.81-12.82,5.83-16.61,1.46-4.37,3.35-5.39,4.81-11.95,4.81-.58,5.68,0,10.2-1.31,10.78S247,266.27,243.23,265c-4.81,0-16.32,1.46-16.32,1.46s1.89-4.52,1.89-7.14-.15-7.58-3.93-8.3c.15-5.54-11.51-4.81-12.82-5.39a72.59,72.59,0,0,1,3.64,7.72l-6.26,2,1.6,2.19S197.48,258.84,200,267.58Z"/><path class="cls-2" d="M69.75,285.41l-2.67-11.36,7.39-8,.39-4.7v-4.77l-.79-6.15L78,249a4.44,4.44,0,0,0-.24-2.09c-1-1.69-1-2.6-.73-5.21.2-2.27,1.38-7.84,1.7-9.33a57.85,57.85,0,0,1-1.81-7.28c-.12-1.62,1.2-2.72,2.68-3.32v-.84L55,220.69v-2.28H23.11l-10.4,4-3.1-3.52,2.15-2.53c-.2-.63-.41-1.21-.54-1.5-.58-.39-1.94-1.31-2.72-1.75a1.73,1.73,0,0,1-.92-1.53c0-.39,0-1.36,2.37-2.77l.73-6-5,.55-.36-1.08c-.06-.19-1.53-4.69.91-8.56A18.41,18.41,0,0,0,9,183.88c-.14-3-.86-12.25-.87-12.34L8,170.19l11.82-1.46-.3-4.84h1.88v-6.36l.48-.42c.35-.34.15-.61-.1-.88l-1.5-1.61,2.08-.7c1.89-.64,4-1.46,5.26-2l-.69-2.4,4-7.21h.69l-.22-9.19,5,7.14,6.89-.15,1,3.49,4.79,2.27,4,2.44,4.85,2.25L57.89,156a6.41,6.41,0,0,1,1.3,3.37,15.28,15.28,0,0,1-.66,4.24,8.45,8.45,0,0,0,.28,2l2.74,1c5.86-2.14,9.36-2.31,10.4-.51l.67,1.15,4,.55,2.74,2.54.07.5a4.81,4.81,0,0,0,.47,1.48l.17-.14a21.85,21.85,0,0,0,3-3.24l.73-1.07,3.42,1.9,8-.15.41.36c1.73,1.5,3.63,3.12,4.77,4a63.09,63.09,0,0,0,5.32-13.39l.13-.48,3-2.19,5.46.14a15.27,15.27,0,0,1,6.39-3.32v-1.23L126.3,148l6.62-1-.54-2,15.67-4,8.72-10.19L154.9,130l-15.06-7.45,1.68-2.29-11.42-6.85,1.72-1.26c.06,0,5.94-4.44,5.69-9.72l-.14-3,2.41,1.81c2,1.47,5.49,1.06,6.69.77l1.24-.29,1.8,5.09L160.78,111l12.15-10.24.34.15-.08-2.49L177,91.78h6.82l0,.57c1.65-1.88,4.08-4.74,5.18-6l.37-.44,9.31-.94h3l8.06-20.6,19.71,9.12.1.78a12.69,12.69,0,0,1,0,3.55,20,20,0,0,0,2.21,3.61l3.89,2.72-.82,1.16c-.89,1.26-2.22,3.59-2.22,4.57a31.47,31.47,0,0,0,.31,3.71l25.41,12.07,5.63.16.41.54c1.62,2.14,3.6,4.65,4.14,5.18.54.27,2.08,1.14,7,4.07l.46.28.89,2.79,2,.13L281,123l-1.91,1.53-.28,2.69-7.35,7.19a12.72,12.72,0,0,0-.67,1.55c1.19.23,2.56.57,2.64.59l.26.07,10.36,7.4,6,3.47,1.21,4.56,1.34.12,2.36,4,3.16.53v4.08l-3.55,2.76c1.3,2.58,4.18,8.9,3.53,12.8a68.23,68.23,0,0,1-1.61,7.35l-.28,2a8.25,8.25,0,0,1,3.28,3.9,22.55,22.55,0,0,1,.78,2.54,11.26,11.26,0,0,0,2.21,4.81c1.46,1.82,1,4.41.48,6.92-.53,2.77-.77,4.5.38,5.09l4.7,2.44v2.82l2.48,2.94-1.29,4.71-4.11,5.44.64.21a34.6,34.6,0,0,0,4.56,1l.27.07,3,1.06.26.51c0,.09,1.21,2.29,3.35,2l3.33-.45,5.14.24,1.17-7,7,.44.54,2.44,3.22-.32v3.94l6.2,3.49-2.29,1.21a10.56,10.56,0,0,1-3.87,1.48,3.1,3.1,0,0,1-.65-.08,11.19,11.19,0,0,0,3.24,3.31l4.95,1.06v6.43l-5.3-.78-1.12,4.61-6.92,5.47-9.14,1.77-.79,4.62-.37.33c-.33.29-3.43,2.78-11.51.6a59.83,59.83,0,0,0-13.76-2h-.85l-.4-.75a79.89,79.89,0,0,0-6.57-10.66c-6.59,4.49-12.65,5-16.63,1.54l-.37.29c-3.18,2.5-4.89,3.85-10.16,4-.12,1.51-.16,2.92-.2,4.19-.11,3.59-.18,5.76-1.83,6.49-1.84.82-12.39-.39-16.24-1.62-4.79,0-15.8,1.43-15.91,1.44l-2.43.31.95-2.26c.5-1.19,1.79-4.68,1.79-6.59,0-3-.32-6.44-2.78-6.91l-1.18-.23,0-1.2c.07-2.83-5.81-3.38-8.95-3.63a54.25,54.25,0,0,1,2.53,5.55l.45,1.35-5.76,1.87,1.92,2.61-2.48.24c-1.94.19-7.4,1.32-9.35,4.18a4.62,4.62,0,0,0-.49,4.07l.44,1.55-18.87,2.84-1.74-8.46Zm.43-10.53,1.7,7.22,111.49-22.3,1.76,8.59,13.16-2a7.06,7.06,0,0,1,1.19-4.88c2.08-3.05,6.36-4.43,9.05-5l-1.4-1.91,6.67-2.17c-.5-1.13-1.41-3.08-3-6.2L209,242.66l3.67,1.63c.16,0,1.05.11,1.77.17,3.91.3,10.95.85,11.8,5.44,4,1.6,4,7.18,4,9.39a19.1,19.1,0,0,1-1.17,5.45c3.64-.43,10.62-1.19,14.17-1.19h.24l.23.08c3.55,1.23,12.32,2,14.24,1.81a22.56,22.56,0,0,0,.32-4c.05-1.66.11-3.55.33-5.64l.13-1.27H260c5.33,0,6.52-.94,9.71-3.44l1.38-1.07,1.06-.81.87,1c4.35,5,11.73.5,14.7-1.67l.74-.54.8.46c2,1.17,6.15,8.46,7.87,11.63a63.16,63.16,0,0,1,13.64,2.07c5.09,1.37,7.65.61,8.54.2l.93-5.43,10.38-2,5.61-4.44,1.5-6.17,4.61.68v-.86l-3.19-.68-.2-.12a13.58,13.58,0,0,1-4.78-5.12c-.23-.49-.93-2,0-3.05s2.31-.72,3.17-.51l.33.08.08,0L334.76,233v-2.47l-2.61.26-.62-2.81-2.32-.15-1.16,7-7.39-.34-3.08.42a6.18,6.18,0,0,1-6-3l-1.86-.66a35.45,35.45,0,0,1-4.91-1.06c-1.76-.59-3.82-1.32-3.82-1.32l-3.13-1.12,5.3-2.65,3.42-4.53.75-2.75-2.18-2.59v-2.13L302,211.44c-3.1-1.61-2.41-5.23-1.86-8.14.34-1.79.73-3.82.09-4.62a14,14,0,0,1-2.74-5.86,19.78,19.78,0,0,0-.68-2.23,5.6,5.6,0,0,0-2.72-2.85l-1-.43.63-4.34a65.17,65.17,0,0,0,1.56-7.11c.53-3.19-2.55-9.79-3.78-12.06l-.57-1.06,4.34-3.37v-.29l-2.09-.35-2.3-3.88-1.87-.17-1.41-5.34-5.14-3-10-7.13c-.77-.19-2.29-.54-3.07-.63a1.79,1.79,0,0,1-1.39-1c-.18-.36-.74-1.44,1.05-4.76l.1-.19,6.93-6.79.3-2.85,1-.8-.39-.74-2.36-.16-1.15-3.61c-2.87-1.72-5.92-3.52-6.34-3.71s-.74-.24-4.7-5.45l-4.86-.13-27.31-13-.12-.74a38.65,38.65,0,0,1-.45-4.88c0-1.57,1.12-3.68,2-5l-2-1.38-.14-.19c-3.35-4.53-3-5.59-2.83-6.1a7.5,7.5,0,0,0,0-1.81l-15.53-7.19-7.67,19.6h-4.83l-8,.81c-1.27,1.5-5.39,6.34-6.41,7.37a1.88,1.88,0,0,1-2.17.54,2.27,2.27,0,0,1-1.2-1.88h-2.35L176,99.09l.21,6.25-2.87-1.3-12,10.15L147.27,109l-1.43-4a13.43,13.43,0,0,1-5.67-.4c-.69,3.79-3.35,6.85-5.11,8.51l10.57,6.34-1.52,2.08,12,5.92,5.5,2-12,14L135.85,147l.62,2.33-8.83,1.33-4.06,4.06v2.67l-1.36.05c-2.67.1-5.49,2.27-6.36,3.1l-.43.41-5.64-.15-1.39,1c-1.76,6.39-5.43,14.59-6.92,15.39l-.54.29-.64-.18c-.29-.1-.69-.23-6-4.87l-7.71.14-1.9-1.06A31.82,31.82,0,0,1,82,174.22a2.85,2.85,0,0,1-3,.84c-1.48-.53-2.06-2.33-2.28-3.36l-1.37-1.27-4.46-.62-1.26-2.15c-1-.24-4.4.55-7.57,1.73l-.5.19-5.11-1.89-.19-.7c-.32-1.13-.79-3.21-.42-4.32a12.47,12.47,0,0,0,.51-3.34,4.48,4.48,0,0,0-1-2l-.34-.41.13-4.55-3.37-1.57-4-2.44L42,145.63,41.27,143l-6.22.14-.51-.73.07,2.75H32.67L30,149.9l1.06,3.7-1.16.48c-.12.05-2.51,1-5.06,2a3.1,3.1,0,0,1,.07.82,3.38,3.38,0,0,1-.66,1.82v8H22.57l.28,4.49-11.78,1.45c.21,2.71.66,8.7.77,11.08a21.21,21.21,0,0,1-3.2,11.46,7.43,7.43,0,0,0-.87,5.05l6.9-.77.28.08c1.46.43,4.91,1.69,5.36,3.92a3.21,3.21,0,0,1-.38,2.58,2.07,2.07,0,0,1-1.39.86c-1.13.16-2.6.71-2.84,1.19A2.08,2.08,0,0,1,14,209.34a2.35,2.35,0,0,1-1.2-.27l-.18,1.5-.65.35c-.26.14-.54.31-.79.47.65.42,1.3.86,1.67,1.1l.22.15c.34.23.76.51,1.67,3.62l.21.73-1.56,1.83.18.2,9-3.46H57.81v2.31l24.64.22v5.81l-1.09.26a3.7,3.7,0,0,0-1.58.77,65.75,65.75,0,0,0,1.79,6.95l.11.35-.08.36c0,.07-1.51,6.93-1.72,9.33s-.17,2.62.36,3.53c1,1.67.59,4.28.5,4.78l-.14.79-3.43,1.31.53,4.21v5l-.48,5.73ZM11.45,215h0Zm-.27-12.27,1.7,2.55a6.9,6.9,0,0,0,.73.9,7.36,7.36,0,0,1,3.94-2c0-.05,0-.11,0-.17a7.53,7.53,0,0,0-3.12-1.68Zm7,1.39h0Zm83.24-29.42Zm166.8-63.3.1,0ZM229.42,78.05h0Z"/></svg>