<svg id="Layer_1" data-name="Layer 1" xmlns="http://www.w3.org/2000/svg" viewBox="0 0 350 350"><defs><style>.cls-1{fill:#999;}.cls-2{fill:#f90;}</style></defs><title>M</title><path class="cls-1" d="M331.3,97.27a14.62,14.62,0,0,1-3,.3c-1.68,0-5.24-4.15-10.48-6.62,1.09-.89,1.58-6.92.79-12.45,2.08-.49.1-3.06.1-3.06l-.2-4.35-1.09-.49a28.68,28.68,0,0,0-1.38-3.76c-.69-1.38,1.09-4,1.09-4s1,.1,3.85.1-1.09-4-1.09-4,2.57-6.52,2.77-6.82,2.47-3.85,2.47-3.85,6.92-3.56,7.12-4.05a55.11,55.11,0,0,0,.2-8.4c-.2-1.68.1-8.89.1-8.89l7.71-1.19-2-3A30.4,30.4,0,0,0,334,19c-2.27-1.58-3.06-6.52-3.06-6.52S330,11.39,329,10.4s-5.34-1.78-5.34-1.78l-6.32-2.37v6l-1.78,1.58-1.48,5.53s-1.48,0-3.56,2.37-2.37,9.29-2.37,9.29l-6,6.62s-1.78-.4-4.15-.69-2.37-4.05-2.37-4.05h-5.53s-2.47-2.87-3.36-3.06-4.25-3.06-4.25-3.06L276.05,25l-.59,4.05s-.4-.2-1.88-.89-6.13,3.56-9.69,2.87c-2.08,4.15-6.82,6.33-11.27,7.51.2,7.71-1.58,8.2-1.58,8.2l-5.83-2s-10.28,4.15-11.66,4-1.88-4.55-1.58-6.42a7.32,7.32,0,0,0-.59-3.76L223,40l-14.13,6.82-10,.1L196.2,44.2l-2.67.89a9.79,9.79,0,0,0-.59-4.15,5.2,5.2,0,0,0-2.47-2.37l-4.05,5.63a19.87,19.87,0,0,1-4.55,1.48,33.6,33.6,0,0,0-4.65,1s-8.3-3.26-11.46-3.66-5.63,2.37-5.63,2.37l-4,.89.2,4.25s5.73,10.08,6.52,11.66-2,2.57-2,2.57L145.5,70.39l-4.84,6.72-6.42,2.67-5-15.62s-.89,1.19-1.78,2.17-3.36-1.38-5.63-1.09a84.8,84.8,0,0,1-9.19-.1s-17.79.79-20.26.69-15.42-3.46-15.42-3.46l-1.19,3.76s-9-2.57-9.29-2.57-8.89-3.36-8.89-3.36l-3.46.59-1.24-1.53s-7.12,1.63-8.6,1.78l-1.48.15s-1,3.11,0,4.15l1,1,3.11-.15L40.54,69.8l.89,4.74s-5.63,1.78-5.34,4.89,2.82,11.27,2.82,12.9-.15,4.3-.15,4.3L30,98.85S35.65,100.78,40,100l1.33-.3s2.37,7.86-.15,8.3-6.67-2.08-7.41.74,1.48,5.78.44,7.86-3.56,7.71-.15,7.26,1,3.11,5,4.15,8.89,2.22,10.23,1.33,7.86.44,7.86.44v4.89l8.75,2.52,4.6,5.93s-3.26,1.93-3,3.11-.15,8.15-2.22,10.38-8.3,3.85-10.23,3.71a13.49,13.49,0,0,1-4.6-1.78l-2.67-4L45.29,154s-.44-6.37.74-7,3.26-.15,3.26-2.67v-1.19l-8.3-.3s-11-6.52-12-9.49c.89,5.93,1.48,9,1.48,9s-5.93,4.3-6.82,7.56l-.89,3.26L9.71,158l4.45,10.23,3.66-.59,5.53,2.57,3.16,5.53,6.72,3.56,7.51,4.55s.69,7.91,1.68,9,1.88-2.08,3.06-2a27.37,27.37,0,0,1,4.35,1.28l2.57-2s6.23,4.15,7.91,8.89c3,3.36,11.17,5.14,11.17,5.14l-1,5.83-2.08.89,2.08,5.53-5.44,3.16,3.46,8.89s5.34,3.06,5.53,3.76.79,5.34.79,5.34l2.87,1.58.69,4.64s-3.76,2.77-3.46,4.55,2.37,1.09,2.37,1.09,3.85-1.19,4.15-1,2.27,2.77,2.27,2.77l1,6.13s5.24.79,6.92-.3a2,2,0,0,1,2.77.59s2.17,6.82.4,11.07-2.27,2.87,4.05,6.82c3.66-1.78,7.21-3.76,7.21-3.76l.79,6.92s-3,3.06-2.87,4.65.2,3.46.2,3.46l4,10.28,3.66,16.5-8.6,5s-2.37,11.86-.69,21.54L106,342s9.88-4.35,10.67-4.35,1.58,3.36,1.58,3.36l19,2.77s2.57-16,2.67-18.18a4.25,4.25,0,0,1,2.87-3.46c.4,0,1.88,4.52,1.88,4.52l2.57.22v-1.48c0-1.48,1.09-5.93,2.17-9.49s-2.27-7-2.08-10.77.3-5.24,1.09-7.21-1.28-7-1.28-7l12-5.34a13.44,13.44,0,0,0,.4-3.06c-.1-1,1.58-4.74,2.08-6a29.7,29.7,0,0,1,4.25-6.72,8.12,8.12,0,0,1,3.36-2.17L183.94,318s11.46-.4,12.25-.4,11.56,2.77,11.56,2.77l-.4,2.87,3.56,2-.69-3.36,1.58-7.21s-.4-2.47-.49-3.76a57.24,57.24,0,0,1,1-6.92l19.77-3.26s12.16,4,16.11,6.42c2.17-6.23,7.71-5.63,7.71-5.63l3.36-6.13-.59-8.3,1.48-1.78,3.66-1.58a6.86,6.86,0,0,1,3.66.89c1.38,1,4.84.49,4.84.49s2-.69,2.77-1,.79-.49,1.58-1.19.4-.2.79-.79,2.17-1.28,3.46-2.37.89-5.44.89-5.44l.49-1.48c1.38-4.55-1.48-7.61-2.08-9.88s-5-7.81-5-7.81-1.78-2.77-1.78-4.05.4-5.63.4-5.63l4.15.2s2.67-1.19,3.46-2.57,6-6.13,6-6.13l2.27-1.68L286,233.36l-1.58-8.1,7.91-4.35.1-1.88,2.47-1.88a7,7,0,0,0,1.68-1.19c1-.89,1.19-7.31,1.19-7.31s-2-.59-2.47.39-1.88,3.36-1.88,3.36L288.9,204a19,19,0,0,1-3.76,1.58c-1.19.2-2.17,4.94-2.17,4.94l2,2-8.2,12.75-5.24-7.61s-.2-5.73-.4-6.32,0,0-.79-.2a7.54,7.54,0,0,0-3.06.49c-1.19.3-2.67-2.67-2.67-2.67s1.28-.69,2-1.09,5.24-4.45,5.24-4.45-.3-1.68-.49-2.77-.89-5,.1-6.72-3.66-8.3-3.66-8.3l2.77-1.78.89-2.47,2.47-3.36a12,12,0,0,0-1.28-2.47c-.4-.3-2.17,1.19-2.17,1.19l-4.15-.39s1.09-3.36-.89-4.15-3.06,2.57-3.06,2.57l-1.68-2.37-1.48,1.78a6,6,0,0,1-2.67,1.48c-.69.1-1.09,1.38-1.78,2.27s.49,4.35.49,4.35-5.44-.3-6.72-.2-2.47.4-3.46.4a12.45,12.45,0,0,0-5.44,1.19c-2.77,1.19-4.15,1-4.15-.4s-4.15-.1-4.15-.1l-.3-2,1.09-2c1.09-2,.79-2,.79-4.45a19.81,19.81,0,0,0-1.58-6.92c-.69-1.68,1.19-4.94,1.19-4.94l4.45.1,3.16.3,1.28-.1s0-2.27.59-2.87a23.68,23.68,0,0,1,3.26-2l2.17,1.68,4.15-.79a8.81,8.81,0,0,0,1.28,2.17c.4.2,1.19-.1,2.87-1.68a4,4,0,0,0,1-3.85s-.1-1.58-.2-4.74-2.77-4.25-4-5.24-.89-4.84-.89-6.13-.4-8.2-.4-8.2,10.08-.89,12.55-.4,5.83,4.84,5.83,4.84l9.49-.79s-.49-1.58-1.09-4.35,4.45-5.34,4.45-5.34l-1.78-.89-.49-2a18.65,18.65,0,0,1,2.17-4.15c1.09-1.28,4.64-2.57,4.64-2.57s5.24.2,6.82.2a32.58,32.58,0,0,1,5.34,1l1.19-3.46,4.65.3.3-3.36-7.21-1.48a24.66,24.66,0,0,1-5.24-2.67c-2-1.48-1.28-3.06,1.09-4.25S307,106,307,106l2.47,5.24.89.1,3.66,1.88s4.15-3,6.33-3.46,4,1.48,5.53.89,3.76-4.65,3.76-4.65l6.52-3,.4-3.46a26,26,0,0,1-3.16.4C331.69,100,331.3,97.27,331.3,97.27Z"/><path class="cls-2" d="M138.38,345.35l-21.31-3.11-.22-.94a14.08,14.08,0,0,0-.66-2.08c-1.66.6-5.87,2.38-9.64,4l-.62.27-4.69-2.41-.12-.7c-1.71-9.83.6-21.57.7-22.07l.12-.62,8.26-4.84-3.41-15.39-4-10.39v-.22s-.1-1.87-.2-3.44c-.11-1.73,1.66-4,2.8-5.22l-.48-4.18c-1.39.75-3.4,1.8-5.42,2.78l-.71.34-.67-.42c-1.07-.67-1.94-1.18-2.64-1.6-3.13-1.85-4-2.52-2.53-5.69.16-.36.35-.78.56-1.28,1.24-3,.21-7.92-.37-9.87a.47.47,0,0,0-.72-.06c-2,1.28-6.55.71-7.9.51l-1-.15-1.1-6.79c-.54-.69-1.12-1.43-1.5-1.87-.73.16-2.06.53-3.17.87a3.74,3.74,0,0,1-2.9-.22,2.74,2.74,0,0,1-1.29-2c-.34-2,1.85-4.19,3.33-5.39l-.47-3.13-2.88-1.59-.09-.71c-.24-1.89-.55-4.1-.7-4.89a46.64,46.64,0,0,0-4.93-3.15l-.43-.25L63.29,219l5.45-3.17-2.13-5.68L69.22,209l.64-3.77c-2.55-.68-8.11-2.43-10.61-5.26l-.18-.21-.09-.26c-1.16-3.28-4.88-6.35-6.54-7.6l-2.36,1.81-.74-.28a30.09,30.09,0,0,0-3.72-1.16c-.15.15-.35.42-.48.59a3.14,3.14,0,0,1-2.21,1.58,2,2,0,0,1-1.56-.69c-1-1.12-1.63-5.42-2-9.11l-6.9-4.17-7-3.71-3.14-5.5-4.73-2.2-4.31.7L7.81,157.18l13.77-5,.7-2.55c.82-3,4.9-6.45,6.64-7.79-.24-1.32-.72-4.11-1.33-8.23l2.74-.68c.52,1.5,6.1,5.56,11.08,8.55l9.3.33v2.55c0,3-2.23,3.48-3.29,3.72l-.52.13a18.52,18.52,0,0,0-.25,4.65l2,.48,2.8,4.2A11.15,11.15,0,0,0,55.18,159c1.54.11,7.31-1.36,9.08-3.26,1.59-1.71,2.1-8,1.88-9.07-.35-1.4.85-2.74,2.28-3.79l-3.37-4.35-9.33-2.69V131c-2.61-.46-5.12-.65-5.71-.41-1.59,1.06-5.06.44-11.31-1.17a4.7,4.7,0,0,1-3.68-3.5,3.24,3.24,0,0,0-.24-.6s-.1,0-.35,0h-.3a2.71,2.71,0,0,1-2.72-1c-.39-.54-1.56-2.19,1.48-8.27a4.86,4.86,0,0,0-.24-2.75,9.55,9.55,0,0,1-.31-4.83c.81-3.09,4-2.45,5.93-2.06a9.79,9.79,0,0,0,2.47.3c.31-.68.09-2.93-.48-5.25h0c-4.67.81-10.45-1.15-10.7-1.23l-4.51-1.54L37.4,95.51c0-.91.09-2.24.09-3.18a47.39,47.39,0,0,0-1.17-5.2,63.89,63.89,0,0,1-1.64-7.56c-.3-3.18,3.19-5.11,5.14-5.93L39,69.06l3.53-2-.73-.73c-1.54-1.54-.65-4.68-.34-5.6l.29-.87,2.4-.24c1-.1,5.6-1.1,8.42-1.75l.86-.2,1.27,1.57,3-.52.37.14c3.81,1.49,8.15,3.15,8.68,3.3h0c.54.11,2.17.53,8.05,2.21L76,60.67l1.3.34c5.15,1.34,13.42,3.35,15.12,3.42,1.9.07,14-.42,20.14-.69h.14a80,80,0,0,0,8.93.11,7.75,7.75,0,0,1,4,.88c.3.13.71.31,1,.39.75-.87,1.45-1.79,1.46-1.8l1.64-2.19,5.41,16.76L139.74,76l4.86-6.75,15.83-5.78a3.35,3.35,0,0,0,1.15-.69c-.93-1.81-6.39-11.41-6.44-11.51l-.17-.29-.27-5.78,4.71-1.06c.89-.84,3.39-2.88,6.52-2.49,2.9.36,9.57,2.88,11.37,3.57a29.55,29.55,0,0,1,4.47-.91,16.22,16.22,0,0,0,3.72-1.21L190,36.83l1,.43a6.56,6.56,0,0,1,3.21,3.08,8.61,8.61,0,0,1,.7,2.8l1.67-.56,2.87,2.87,9.07-.09,14-6.77L232.21,37l.46,1a8.61,8.61,0,0,1,.71,4.58,10.35,10.35,0,0,0,.58,4.77,101.94,101.94,0,0,0,10.73-3.84l.49-.2,5.39,1.83c.3-.74.75-2.54.65-6.51l0-1.12,1.08-.29c5.34-1.43,8.83-3.71,10.36-6.78l.48-1,1.06.21c1.54.3,3.7-.79,5.42-1.67s3.32-1.68,4.59-1.09l.15.07.55-3.75,8.27,2.29.24.2a26.42,26.42,0,0,0,3.71,2.78c.76.17,2,1.18,3.63,3H297v1.42c0,.67.28,2.54,1.13,2.65,1.47.18,2.71.4,3.47.55l5.15-5.65c.12-1.81.64-7.29,2.69-9.64a8.79,8.79,0,0,1,3.47-2.61l1.38-5.14,1.62-1.44V4.21l8.12,3c1.51.28,4.82,1,6,2.15s1.94,2.13,2,2.18l.24.29.06.38c.27,1.68,1.19,4.69,2.47,5.58a31.61,31.61,0,0,1,4.59,4.06l.13.17,3.21,4.81L334,28.23c-.1,2.82-.18,6.5-.06,7.51.16,1.38.1,8.11-.29,9.09-.21.52-.39,1-7.44,4.61l-2.24,3.49c-.24.5-1.4,3.42-2.34,5.78,1.22,1.37,2.29,3.05,1.74,4.39a2.24,2.24,0,0,1-2.3,1.3c-1.46,0-2.46,0-3.09-.05a3.62,3.62,0,0,0-.58,1.86,25.93,25.93,0,0,1,1.28,3.36l1.3.59.22,4.8a4,4,0,0,1,.73,3.34,2.34,2.34,0,0,1-.69,1c.41,3.57.44,8.35-.43,11a43.37,43.37,0,0,1,5.78,3.92,13.71,13.71,0,0,0,2.83,1.91,13.33,13.33,0,0,0,2.61-.26l1.5-.34.22,1.52a2.71,2.71,0,0,0,.62,1.46,25.69,25.69,0,0,0,2.94-.38l1.91-.38-.71,6.19-6.82,3.1c-.77,1.37-2.55,4.23-4.27,4.88a4.69,4.69,0,0,1-3.49-.39,4,4,0,0,0-2.23-.45c-1.38.31-4.3,2.15-5.82,3.23l-.7.5-4.19-2.15-1.42-.16L305.92,107c-5.08-2.3-10.31-3.95-11.36-3.55-1.14.57-1.43,1.05-1.44,1.18s.09.29.59.66a22.83,22.83,0,0,0,4.78,2.44l8.34,1.71-.53,6-4.95-.32-1.26,3.68-1.27-.33a29.48,29.48,0,0,0-5-.94c-1.39,0-5.47-.15-6.59-.19a12.72,12.72,0,0,0-3.79,2.06,15.52,15.52,0,0,0-1.77,3.33l.23.9,3.7,1.85-2.49,1.28c-1.71.88-3.94,2.67-3.71,3.78.57,2.66,1,4.21,1.05,4.22l.53,1.69-12,1-.47-.61c-1.26-1.63-3.65-4.05-5-4.32s-6.91,0-10.78.3c.12,2.1.32,5.95.32,6.91,0,.19,0,.43,0,.72-.08,3.1.18,4.07.41,4.34s.43.31.7.5c1.36.93,3.64,2.5,3.75,5.77.08,2.57.16,4.1.19,4.56a5.33,5.33,0,0,1-1.42,5.12c-1.73,1.63-3.15,2.58-4.47,1.92-.25-.12-.68-.34-1.46-1.85l-3.71.71-2-1.51a19.08,19.08,0,0,0-2.06,1.25,7,7,0,0,0-.24,1.91v1.31l-2.71.21-3.23-.3-3.51-.08a5.45,5.45,0,0,0-.73,3,21.42,21.42,0,0,1,1.69,7.46c0,.49,0,.88,0,1.2a5.89,5.89,0,0,1-1,3.93l-.82,1.5a4.79,4.79,0,0,1,3.57.3,1.92,1.92,0,0,1,.77,1.32,7.21,7.21,0,0,0,2.19-.66,13.9,13.9,0,0,1,6-1.3,11.89,11.89,0,0,0,1.6-.17c.56-.08,1.14-.17,1.75-.22.85-.07,3.2,0,4.93.1-.31-1.43-.36-2.87.29-3.71a7.53,7.53,0,0,0,.53-.84c.46-.8,1-1.8,2.17-2a5.06,5.06,0,0,0,1.78-1l2.66-3.2,1.43,2a4,4,0,0,1,1.39-1.15,2.88,2.88,0,0,1,2.36-.06c1.82.73,2.2,2.58,2.05,4.2l2,.19c1.6-1.24,2.63-1.48,3.46-.86.21.16.71.53,1.75,3.07l.3.74L272.67,182l-1,2.73L269.74,186c2.08,3.15,3.95,6.81,2.89,8.61-.12.21-.7,1.48.07,5.75.2,1.09.5,2.77.5,2.77l.14.78-.59.53c-1.4,1.25-4.74,4.2-5.48,4.62l-.7.39a4,4,0,0,0,.6.69l.41-.11a6.77,6.77,0,0,1,2.87-.37l.29-.19.73.2a1.61,1.61,0,0,1,1,1.16c.06.19.25.76.45,6.31l3.8,5.52,6.43-10L281.43,211l.16-.75c1.19-5.69,2.8-6,3.33-6a16.87,16.87,0,0,0,3.32-1.43l1.25-.67,4,7.4c.23-.42.44-.8.58-1.08.76-1.52,2.71-1.55,4.15-1.12l1,.31,0,1.09c-.14,4.66-.7,7.46-1.65,8.32a9.07,9.07,0,0,1-1.88,1.35l-1.83,1.39-.11,2L286,226l1.25,6.41,5.08,2.61-4.05,3a52.21,52.21,0,0,0-5.7,5.73c-1,1.7-3.6,2.93-4.11,3.16l-.31.14-3.13-.15c-.12,1.47-.27,3.42-.27,4.15a10.71,10.71,0,0,0,1.51,3.22c.88,1.09,4.63,5.88,5.26,8.28a11.05,11.05,0,0,0,.77,1.8c1,2.12,2.46,5,1.29,8.85l-.41,1.24c.12,1.67.16,5-1.41,6.35a15.57,15.57,0,0,1-2.23,1.49,8.41,8.41,0,0,0-1,.65l-.08.14a1.69,1.69,0,0,1-.53.56,3.91,3.91,0,0,0-.37.3c-.2.18-.35.32-.47.44a3.79,3.79,0,0,1-1.55,1c-.8.3-2.8,1-2.8,1l-.27.07c-.67.1-4.11.51-5.87-.74a5.15,5.15,0,0,0-2.53-.63L261,286.41l-.9,1.08.58,8.15-4,7.32-.94-.1c-.17,0-4.46-.35-6.22,4.69l-.58,1.68-1.5-.94c-3.41-2.13-13.52-5.53-15.47-6.17l-18.44,3a43.52,43.52,0,0,0-.78,5.57c.09,1.21.48,3.62.48,3.64l0,.26-1.57,7.18,1.25,6.09-7.1-3.95.35-2.57c-4.12-1-9.36-2.34-10.06-2.41s-9,.29-12.13.4l-1.1,0-14.67-49.88a7.12,7.12,0,0,0-1.43,1.17,28.31,28.31,0,0,0-4,6.26c-.11.28-.26.66-.45,1.11a28,28,0,0,0-1.54,4.33,13.72,13.72,0,0,1-.43,3.48l-.16.68-11.37,5.08c.67,1.9,1.52,5,.8,6.8s-.79,3-1,6.76a11,11,0,0,0,1.07,4.34c.79,2,1.68,4.35.94,6.77a51.86,51.86,0,0,0-2.11,9.07v3l-5-.44-.29-.89c-.34-1-.76-2.2-1.09-3a2.39,2.39,0,0,0-.89,1.59c-.1,2.19-2.42,16.7-2.69,18.34Zm-19-5.64L136,342.15c.81-5.13,2.36-15.08,2.43-16.64a5.5,5.5,0,0,1,4.28-4.81c1,0,1.5.38,2.93,4.61h.1c0-1.94,1.35-6.93,2.24-9.84.45-1.49-.16-3.08-.88-4.92a13.24,13.24,0,0,1-1.26-5.51c.2-3.85.32-5.5,1.19-7.67.34-.86-.38-3.77-1.28-6l-.52-1.27,12.56-5.6a9,9,0,0,0,.22-1.92c-.1-1,.48-2.58,1.74-5.63.17-.42.32-.79.42-1a30.61,30.61,0,0,1,4.54-7.18,9.42,9.42,0,0,1,4-2.57l1.35-.37L185,316.5c2.91-.1,10.54-.36,11.2-.36s6.92,1.53,11.92,2.81l1.22.31h0l1-4.72c-.11-.69-.38-2.52-.47-3.6a49.51,49.51,0,0,1,1-7.3l.19-1,21.08-3.48.33.11c.45.15,10.1,3.3,15,5.77a9,9,0,0,1,7.56-5.07l2.75-5-.6-8.45,2.06-2.48,4.21-1.82h.26a8.11,8.11,0,0,1,4.54,1.15c.53.38,2.3.44,3.69.26.46-.16,1.94-.68,2.6-.93a1.09,1.09,0,0,0,.56-.38c.15-.15.33-.32.59-.55s.36-.31.46-.38l.08-.13a5.55,5.55,0,0,1,1.9-1.46,13.19,13.19,0,0,0,1.83-1.21c.35-.39.55-2.45.39-4.23l0-.29.59-1.76c.83-2.73-.21-4.86-1.13-6.74a13,13,0,0,1-1-2.33c-.38-1.44-3.13-5.23-4.77-7.28l-.09-.12c-.47-.73-2-3.24-2-4.82,0-1.33.39-5.58.4-5.76l.12-1.35,5.15.25a7.14,7.14,0,0,0,2.51-1.84c.86-1.5,5.41-5.66,6.31-6.48l.55-.41-2.24-1.15-1.91-9.79L291,220l.09-1.75,3.29-2.45h0a6,6,0,0,0,1.22-.87,19.32,19.32,0,0,0,.71-4.74c-.61,1.13-1.58,2.79-1.63,2.88l-1.27,2.18-5.09-9.4a15.1,15.1,0,0,1-2.65,1,12.45,12.45,0,0,0-1.13,3.15l2.23,2.23-10,15.5-6.68-9.71v-.41c-.06-1.88-.17-4-.26-5.21a8.1,8.1,0,0,0-1.52.32l-.71.19c-2.07.52-3.68-2.21-4.28-3.41l-.61-1.23,1.21-.65s1.27-.68,1.95-1.07c.39-.25,2.45-2,4.41-3.75l-.35-2c-.65-3.58-.58-6.14.22-7.6,0-.91-1.58-4.07-3.54-6.87l-.85-1.21,3.6-2.32.8-2.21,2.11-2.87-.25-.53c-.22.16-.47.34-.68.52l-.45.38-6.5-.62.54-1.68c.26-.83.37-2.22-.07-2.4-.32,0-.93.88-1.19,1.69l-.87,2.69-2.25-3.18-.3.36A7.44,7.44,0,0,1,257,177c-.11.15-.27.42-.38.62a10.91,10.91,0,0,1-.67,1.06,10,10,0,0,0,.63,3.13l.68,2-2.1-.11c-2.15-.12-5.66-.27-6.54-.2-.53,0-1.05.12-1.54.19a13.72,13.72,0,0,1-2,.21,11,11,0,0,0-4.88,1.07c-2.37,1-4,1.16-5.05.45a2.35,2.35,0,0,1-1-1.37,11.56,11.56,0,0,0-2.41.48l-1.58.49-.61-4.08,1.32-2.4a3.33,3.33,0,0,0,.64-2.47c0-.35,0-.77,0-1.29a18.93,18.93,0,0,0-1.47-6.38c-.91-2.21.9-5.54,1.27-6.19l.42-.73,5.39.12,3,.28a4.41,4.41,0,0,1,.94-2.54,20.58,20.58,0,0,1,3.61-2.23l.8-.42,2.39,1.84,4.62-.88.46,1c.18.4.39.82.57,1.15a11.72,11.72,0,0,0,1.32-1.11,2.56,2.56,0,0,0,.6-2.41l-.06-.32c0-.07-.1-1.64-.2-4.79-.06-1.83-1.31-2.69-2.52-3.52-.35-.24-.67-.46-.93-.68-1.43-1.19-1.48-3.9-1.41-6.57,0-.25,0-.47,0-.64,0-1-.26-5.74-.39-8.12l-.08-1.37,1.37-.12c1.05-.09,10.36-.89,13-.37,2.39.48,5,3.37,6.19,4.76l7-.59c-.18-.72-.41-1.65-.65-2.78-.49-2.28,1.34-4.24,3-5.48l-.13-.07-.76-3,.16-.42a19.28,19.28,0,0,1,2.42-4.56c1.27-1.5,4.59-2.75,5.25-3l.26-.09h.28c.05,0,5.23.2,6.77.2a24.18,24.18,0,0,1,4.42.72l1.12-3.25,4.34.28.06-.72-6.18-1.28a25.86,25.86,0,0,1-5.6-2.87,3.54,3.54,0,0,1-1.71-3.19c.08-.94.68-2.3,3-3.46,2.69-1.35,10.88,2.17,14.27,3.74l.47.22,2.35,5,.36,0,3.13,1.61c1.36-.92,4.24-2.76,6.12-3.19a6.37,6.37,0,0,1,3.89.57,3.17,3.17,0,0,0,1.46.37c.57-.21,2-2.12,3-4l.23-.42,6.23-2.83.09-.82c-.45.05-.94.1-1.46.13a3.31,3.31,0,0,1-3.2-2.48,16.92,16.92,0,0,1-1.92.11c-1.28,0-2.57-1-4.53-2.49a36.11,36.11,0,0,0-6.55-4.26l-2-1,1.67-1.37c.56-.9,1.12-5.83.35-11.21l-.18-1.28,1-.25a3.94,3.94,0,0,0-.49-.87l-.27-.35L317.17,72l-.89-.4L316.1,71a27.38,27.38,0,0,0-1.29-3.52c-1-2,.66-4.63,1.19-5.39l.48-.69.83.08s.8.07,2.91.09A12.21,12.21,0,0,0,318.93,60l-.66-.66.34-.86c2.63-6.66,2.81-6.94,2.91-7.09S324,47.59,324,47.59l.21-.32.34-.17C327,45.79,330,44.2,331,43.55a64.08,64.08,0,0,0,.11-7.49c-.21-1.74.06-8.37.09-9.12l0-1.17,6.66-1-.68-1a28.93,28.93,0,0,0-4-3.57c-2.36-1.64-3.32-5.71-3.58-7.06-.32-.37-.92-1.06-1.55-1.7A15.62,15.62,0,0,0,323.43,10l-.24-.07-4.41-1.65v4.62l-1.94,1.72-1.65,6.17H314.1a5.38,5.38,0,0,0-2.49,1.89c-1.27,1.46-1.92,5.93-2,8.42l0,.51-6.93,7.61-.8-.18s-1.75-.39-4-.67-3.17-2.29-3.48-4h-4.9l-.42-.49a17.05,17.05,0,0,0-2.68-2.63c-.82-.23-2.34-1.29-4.53-3.14l-4.57-1.27-.64,4.4-1.75-.87-1.71-.81a12.65,12.65,0,0,0-2.25,1c-1.82.92-4.07,2-6.19,2-1.94,3.17-5.51,5.55-10.62,7.08,0,6.38-1.4,8.16-2.63,8.5l-.42.12-5.75-1.95c-4.76,1.91-10.49,4.05-11.91,3.85a2.38,2.38,0,0,1-1.59-1c-1.26-1.71-1.45-5.43-1.19-7a5,5,0,0,0-.14-1.94l-7,1.16-14.23,6.87-10.89.11-2.47-2.47-3.87,1.29.17-2.14a8.23,8.23,0,0,0-.46-3.43,3.28,3.28,0,0,0-.82-1.06l-3.49,4.85-.35.16a19.65,19.65,0,0,1-5,1.6,31,31,0,0,0-4.36.94l-.46.13-.44-.17c-2.26-.89-8.67-3.26-11.12-3.57s-4.38,1.89-4.4,1.91l-.3.34-3.24.73.13,2.72c1,1.71,5.66,10,6.39,11.43a2.57,2.57,0,0,1,.1,2.16,5.06,5.06,0,0,1-2.87,2.38l-15,5.48-4.82,6.69-8.22,3.41-4.71-14.59-.18.2c-1.13,1.26-2.77.56-4,0a5.58,5.58,0,0,0-2.54-.68,81.49,81.49,0,0,1-9.38-.09c-1.4.06-17.86.78-20.31.69-2.15-.09-10.94-2.28-14.41-3.17l-1.2,3.79-1.33-.38c-3.22-.92-8.55-2.42-9.11-2.53h0c-.46-.09-1.86-.57-8.83-3.29l-3.89.67-1.2-1.49c-2,.45-6.65,1.49-7.91,1.61l-.51.05a3.92,3.92,0,0,0-.08,1.88l.56.55,8.51-.4-10.75,6,.93,5-1.2.38c-1.42.45-4.49,1.94-4.35,3.41a64.47,64.47,0,0,0,1.57,7.14,35.06,35.06,0,0,1,1.25,5.9c0,1.65-.14,4.27-.15,4.38l-.06,1-3.84,1a13.55,13.55,0,0,0,3.43-.08l2.55-.57.38,1.26c.46,1.52,1.85,6.66.47,8.91a2.51,2.51,0,0,1-1.73,1.2,10.05,10.05,0,0,1-3.66-.29c-2.14-.43-2.53-.35-2.62,0a7.21,7.21,0,0,0,.32,3.43c.39,1.56.78,3.18,0,4.7-1.42,2.85-1.8,4.62-1.72,5.24h.12c3-.25,3.56,1.56,3.88,2.53a2,2,0,0,0,1.7,1.65c5.27,1.37,8.34,1.88,9.11,1.51,1.48-1,5.66-.41,8.9.25l1.13.23v5L66.73,136l5.86,7.56-1.38.82a8.78,8.78,0,0,0-2.26,1.82c.27,2-.25,8.89-2.61,11.42s-9,4.32-11.37,4.15a14.43,14.43,0,0,1-5.23-2l-.27-.16-2.53-3.8-3-.7-.07-1c-.51-7.32,1-8.06,1.52-8.33a6,6,0,0,1,1.4-.44c1-.21,1.07-.25,1.08-.78l-7.3-.26-.31-.19a79.27,79.27,0,0,1-9.16-6.27c.46,2.83.74,4.32.75,4.34l.17.88-.73.53c-2.14,1.55-5.73,4.77-6.28,6.79l-1.08,4-12.32,4.48L15,166.66l3-.49,6.34,2.94,3.18,5.57L33.89,178l8.2,5,.06.72a60.29,60.29,0,0,0,1,7.11,2.83,2.83,0,0,1,2.44-1.38,21.16,21.16,0,0,1,4,1.1l2.76-2.12.85.56c.27.18,6.41,4.32,8.35,9.32,2.3,2.37,8.13,4.05,10.24,4.51l1.32.29L71.76,211l-1.54.66,2,5.39-5.42,3.16,2.84,7.3c5.41,3.14,5.61,3.83,5.76,4.34s.54,3.32.74,4.83L79,238.29l.92,6.18-.69.51c-1.47,1.09-2.88,2.64-2.9,3.2h0a1.65,1.65,0,0,0,.54-.06c4.51-1.39,4.84-1.18,5.37-.82.19.12.49.33,2.61,3.08l.22.28L86,256.1c2.06.22,4.29.19,4.92-.21a3.32,3.32,0,0,1,4.73,1l.16.34c.1.3,2.31,7.37.35,12-.22.53-.43,1-.6,1.36s-.33.72-.41,1a21,21,0,0,0,1.8,1.13c.57.33,1.24.73,2,1.22,3.32-1.65,6.41-3.36,6.45-3.38l1.86-1,1.11,9.69-.47.48c-1.28,1.32-2.46,3-2.47,3.58.08,1.25.16,2.69.19,3.24l3.93,10.27,3.88,17.51-8.93,5.23c-.43,2.46-1.89,11.78-.68,19.72L106,340.4c9.57-4.2,10.31-4.2,10.63-4.2C117.17,336.21,118.35,336.21,119.36,339.72Zm89.54-17.29h0v0Zm60.82-110.79,0,0Zm1.87-35.1h0ZM243,161.22Zm43.37-130h0Z"/></svg>