<svg id="Layer_1" data-name="Layer 1" xmlns="http://www.w3.org/2000/svg" viewBox="0 0 350 350"><defs><style>.cls-1{fill:#999;}.cls-2{fill:#f90;}</style></defs><title>M</title><path class="cls-1" d="M148.68,342.59l-6.27-3.8s-1.85-6.46-1.85-7.41-.19-2.47-.24-2.9-.14-1.76-.86-2.28-1,.24-1,.24l-.76-3.42L143,325.2l.19-1.62s2,1.33,2.95,1.9,2.76,1.71,2.76,1.71.29-1.14.57-2.38,1.62-1.62,2.09-2.09,0,0-.67-1.33,0,0,.57-.86,0,0,1.24-1-.1-.48-.19-1.33.48-1,1.43-1.43.1-.57-.76-1.62-1-.86-.67-2.28-.48-1.62-.48-1.62-1.24.86-1.71,1.24-.57,0-1-.1a1.58,1.58,0,0,1-1-1.24,3.61,3.61,0,0,0-1.24-1.71c-.57-.57-1.71-.38-2.76-.48s-1-.38-1-.38a2.35,2.35,0,0,1,1.14-1c.76-.28,3.33-.28,5.23-2.85s-1.14-1.43-1.9-1.62-.57-.57-1-.67,0-1.62-1.24-2.85-5.32-3.14-5.8-3.61-.38.48-.29.86a9.28,9.28,0,0,1-.1,1.81s-1.9-.76-2.57-1,.19-1.14.38-2-1.14-.09-1.43.48-1-.86-1.9-.38-.67.1-.76-.19a8.28,8.28,0,0,0-1.52-2,13.1,13.1,0,0,0-4.56-2c-1-.19-6-.57-7.41-.67s-1.52.48-2.66.38-.48-1.52-.57-1.81-.57,0-1.9-.1-.48-2.28-.57-2.85-1,.86-1.71.57.1-2.76-.1-3-2.66-2.09-3.42-2.85-2.28-4.75-2.28-4.75-.48-.86-.67-5-.86-5.23-.86-5.23l14.16-3-1-4,2.38-1a16.16,16.16,0,0,1,1.81-2,3.74,3.74,0,0,1,2.85-.86c1,0,.86-.67.86-.67a20.38,20.38,0,0,1-2-2.57c-.38-.76,2.47-1.62,2.47-2.19s.19-.67.86-1.62.57-.86.57-1.52,1.24-.67,1.52-1,.1-.67,0-1,.57-.48,1-.57.29-.67.29-.67a6.09,6.09,0,0,1,1.33-.38c.67-.1,2,.86,2.76,1.24A15,15,0,0,1,136.8,246s1,1,1.14,1.24-.38,1-.67,1.52a5,5,0,0,0-.38,2,2.64,2.64,0,0,0,.48,1.24l1.71,1.24s2.76-.19,3.42-.67,2.95.28,2.95.28a12.62,12.62,0,0,1-.19,2.47,5.56,5.56,0,0,0-.38,1.81,5,5,0,0,1-.48,1.43c-.1.29,1.24,1.33,1.52,1.52a2.76,2.76,0,0,0,2,0,23.72,23.72,0,0,1,2.38-.57h.86c.28,0,2,0,3-.1a4.34,4.34,0,0,1,1.62.1,10.52,10.52,0,0,1,.67-2.09,2.27,2.27,0,0,0,0-2.09,6.43,6.43,0,0,1,1.24-2.09c.57-.67.1-.57.57-1.62s-1.71-2.38-1.71-2.38l1-3c1-3-1.62,1.24-2.08,2s-.77.29-1.25.29h-.57a2.41,2.41,0,0,0-1.81,1.62c-.67,1.52-.19,1.43-1,1.9s-1.14.1-1.33-.29,0-.86-.19-1.14-1.14-.28-1.62-.76,0-1.33.57-2.09.1-.76.1-.76a3.72,3.72,0,0,1-1.52-1.14c-.38-.67-.1-1,.76-1.81s.86-.38,1-1.24a2.74,2.74,0,0,0-.29-1.52,4.66,4.66,0,0,0-2-1.33c-1.33-.48-.57-.19,1-1.33s.1-1.52.1-1.52a10.91,10.91,0,0,0,1.9,0c1-.1.29-.86,1.52-.86s1.62.67,2,.67-.19-3.14-.19-3.9.57-.29,2.19-.67-.09-1.62-.67-2.28-1-.19-1.81-.67-2.19-.86-2.95-1.33-1-.28-1.14-.86-2.57-5.42-2.57-5.42A44.77,44.77,0,0,0,147,227c.57,1.52-.1,1.43-1,1.71s.57,1.43,1.14,2.19,0,0-.57.1-.19,1.33,0,2.19-.86.76-1.9.86,0,0-.38-.1-.48-.76-.76-1.43,0-.67,0-.67a8.79,8.79,0,0,1-2-1c-1.33-.86,0,0,.19-.67s1.24-1.33,1-1.9,0,0-.57.19a6.76,6.76,0,0,1-2,.38c-.67,0-.67-.48-1-1s.19-.57.48-1.43,1-1,1.24-1.52.48-1.33.86-1.9a6.79,6.79,0,0,0,.76-1.43,2.32,2.32,0,0,0-.1-2.09c-.38-.67,0,0-.76-.67s-.38-.86-.38-2a5.91,5.91,0,0,0-.19-2.09c-.19-.57-.48-.48-.76-.67s-.67-1.62-.67-1.62h.76s1.14-1,1-1.62a4.08,4.08,0,0,1,1.62-2.66c.86-.57,0-2.47,0-2.47A8.7,8.7,0,0,0,142,204c-.38-.28-2.47-1.14-3.9-1.9s-2.38,0-3.52-.1-2.38-.76-1.9-5.32-1.14-5.13-1.14-5.13a28.44,28.44,0,0,0-3-1.14c-1.33-.38-1.71-3.23-.86-5s.57-5,.57-5l1.24-1.43,1.43-.76a7.85,7.85,0,0,1,1.14-1.43c.48-.38.67-1.33,1.43-2.82s.29-1.17.1-1.84-.19-1.9-.28-2.45-.57-2-.57-2l3,1.33a10.26,10.26,0,0,1,.67-2,6.24,6.24,0,0,0,1-2.38,3.31,3.31,0,0,1,1.43-2.76c1.24-1,0,0-.38-.57s0-.67,1.24-2,0-1.33,0-1.33-1.14-1.14-1.14-1.9a4.4,4.4,0,0,0-1-2.76c-.67-.67-.57-.48-.09-3a4.47,4.47,0,0,0-1-4L118.84,152l-3.14-1-6,14.25-3.52-1.24a7.29,7.29,0,0,1-4.09,1c2-3.61-1.14-12.64-1.14-12.64s.19-.76,1-7.6c1.71-13.21-3.71-19.76-1.62-26.8,4.09,1.81,11.31-1.43,14.63-2.57s17-4.94,17-4.94-.19-13.11-1-18.05-3.71-17.77-3.71-17.77l-7.7-.38s-4.85,1.43-6,1.9-7.51,0-7.51,0L93.28,42a40.2,40.2,0,0,0,0-5.13c-.19-2.47-2.85-5.8-2.85-5.8s-.29-5.8-1.14-7.13,0-6.08,0-6.08h0l2.21.36s2.26-.1,2.47-.19a10.8,10.8,0,0,0,1.19-1.92,10,10,0,0,0,.45-1.52h2.92s3.75,1.52,4.85,1.28a11.25,11.25,0,0,1,2.38-.31c.55,0,3.11.12,3.52.12s.78-.67,1.52-1.09a4.78,4.78,0,0,1,1.59-.59c.48-.12.57.07,1.26-.76s6.44-3.92,6.44-3.92a30.61,30.61,0,0,1,4.28,0,3.55,3.55,0,0,0,2-.08c.29-.11,1.14-3,2.19-3.05a48,48,0,0,1,5.61.67s2,2.66-2.47,5.13a5.6,5.6,0,0,0,1.62,2.09l3.9-3.23H141l9.41,4.66s3.23,10.64,4.47,12.16A9.61,9.61,0,0,1,157.14,34c2.47,2.09,9.22,7.7,9.22,7.7s3,5.61,3.52,5.61h1.9s4.66,2.57,6.08,2.85,4.94,4.28,10.07,2.85c3.8,3.23,9.5,4.56,9.5,4.56s-2,.67-1.71,2.19,3.42,4.85,4.18,5.13,5.32.28,5.7.48,6.94,1.33,8.17,1.81a12.12,12.12,0,0,0,5.23,0,11.8,11.8,0,0,1,3.71.29l3.52.95s-1.14-2.28,2.76-1,6,2.38,6.56,3.14,4.94-.48,5.23-.48,3.52.29,3.52.29-1.9,1.43-.67,2.76,7.13,1,9.88,1l.57,2.09s1.52,1.37,1.9,1.73-.48,3,1,3.68,3.33,1.71,3.33,1.71l.86,2.95s-3.33.08-3.9.9-2.28.26-3.23.54a16.39,16.39,0,0,0-2.38,1,2,2,0,0,0-1.52.86c-.38.76-1.71-.57-3.14,1.24s-2.66,1.81,0,3.42,2,2.57,2,2.57l.67,2.19-5.7,4.18-.67,1.8a26,26,0,0,1,2.28,2.66c.29.57.19,3.42.29,3.8a5.75,5.75,0,0,0,2.09,2.38c1,.48.76,4.75-1,7.51-1.9-1.14,0,5-2.38,5.13l-.1,1s-2.09,1-2.28,2.47a14.34,14.34,0,0,1-1.43,3.8l-3.14.76a6.27,6.27,0,0,0-2.66,2c-1,1.43-2.76,3.23-4.09,3.23s-1.9,1.43-2,2.76-2.66,3.8-2.95,4.66-.67,3.71-1.9,4.47.19,1.24-1.71,2.57a4.68,4.68,0,0,0-2.19,3.61c0,.57-.48,6.75-.48,6.75l-3.52,2s.67,2.47-.1,4-1.81,4.47-1.81,4.47l.67,4a11.06,11.06,0,0,1-1.81,2.57c-1.52,1.81-4.18,9.5-4.18,9.5l3.9,2.19s-.86,4.37-.19,4.56,6.65,1,7.6,2,3.9,0,3.9,0l-.29,1.24-5,2.28s3,2.57,1.24,5.61a8.79,8.79,0,0,0-1.24,5.8l-1.9,1.9a13.78,13.78,0,0,0-.57,1.81c0,.29-2.09,2.57-2.47,3.14a39.72,39.72,0,0,1-2.85,2.85h-2.76s.57-2-1-1.24c-.28-1.62-.57-2.57-2.85-.29s-5.7,6.65-5.7,6.65l-1.14,1.33s-3.61-6.75-6.18-6.08c-1.14,2-3.42,3.23-1.9,3.61a20.1,20.1,0,0,0,2.38.48s1,2.19,1.43,2,3.8.76,3.8.76-1.62,4.28-1.43,4.56-3.71-.29-4.28,0a29.49,29.49,0,0,1-3.42.86s.48-1.43-1-1.43-3.23-2.28-3.8-.48c-1.9.19-1.62,2.19-1.52,2.57s-2.47,1-.38,2.38a31.33,31.33,0,0,1-.86,6.56s-4.56,1.14-4.66,2.28a10.13,10.13,0,0,0,0,1.9,11.66,11.66,0,0,1-4.18,0l-2.95,1s14.82,17.86,16.34,20,8.27,10,8.27,10a16.44,16.44,0,0,1,2.57-.38c.29.09-.19,1.52.67,1.71s1.43.29,1.43.29.67,1.71,1,2.19.67.86,2.47,1,2.57,0,3.42-.67,2.57-1,3.14-1.52.67.38,1.71.76,1.24.86,2.47-.86a2.25,2.25,0,0,0,1.71.48s.57,1.24,1.62.86l1-.38,5.23.19s.19,2.38,2.38,2.28a4.85,4.85,0,0,0,3.42-1.71s2.28.1,3-3.14l1,.19.1,1.24s3.23.29,2.66,1.9a1.38,1.38,0,0,0,1.14,1.9s.29-.48,2.19,0,3.42,1.14,4,1.24a36.12,36.12,0,0,0,4.37,1.14,13,13,0,0,0,2-.19l2.47,2s-3.52,1-2.85,2.47a14.52,14.52,0,0,1,1,3.42l-.48.76s-1.71.38-.38,1.24.38,2.28,1,3.14a6.14,6.14,0,0,1,1,1.9l-5.13,1.81.67,2,1.49.54,1.17,0a2.72,2.72,0,0,1,.6.32c.25.19,1.71-.19,1.71-.19s1.24,2,.19,2.09a5.82,5.82,0,0,1-2.22-.16,6.76,6.76,0,0,0-1.52-.63,3.28,3.28,0,0,0-1.2.51c-.1.1-.13.25.09.89s.67,1,.41,1.17a7.06,7.06,0,0,0-1.46.67,1.34,1.34,0,0,0-.51,1,5.81,5.81,0,0,1-.22,1s-.82-2-1.33-1.2-.48,1-.22,1.36.86,1.52.6,2.06a1.11,1.11,0,0,1-.82.6l-.57.1-3.77-.92s-.38-2.66-1.77-2.82-2.09.7-2.95-.25-.76-1.46-1.52-1.24a1.91,1.91,0,0,1-1.84-.48c-.32-.35-1.46-.35-1.46-.35s1.08.22-.1.67a5.16,5.16,0,0,1-2.22.32s.1,1.68.1,1.77,1.74,1.2,2.12,1.49a4.78,4.78,0,0,0,2.06.25,18.21,18.21,0,0,1,2.6,2.09s-2.47,1.52-2.5,2.09-1.3,1.65-1.77,1.55-1.14-.57-1.93-.13a8,8,0,0,1-1.93.86c-.38.06-1.58-3-1.77-3.8s-1.08.32-1.36.54a4,4,0,0,1-.73.41s-1,.06-1.36.73-1.11-1.08-1.55-1.39a8.85,8.85,0,0,0-2.6-.35,19,19,0,0,1-.57-1.93,1.89,1.89,0,0,0-.6-1l-1.62.22s-1.71.57-1.84.57-2-1.49-2-1.49l-.38,2.5,1.68.67-.28,1.52a7,7,0,0,0-2.09-.89c-.48.06-.92-.06-1,.13s-.7,1-.48,1.43.48.6.32,1l-.63,1.55s-1,3.1-.82,3.36,1.52-.06,1.52-.06l1.49,1.74-.35.54s-2.41-.16-2.69.25a9.21,9.21,0,0,0-.22,2.63s-2.34-1.9-2.91-1.27,0,2.53-.44,2.79.38,1.58-.63,1.77-1.27.13-1.39.86a7.89,7.89,0,0,1-.54,1.62,37.34,37.34,0,0,0-3.86-.92,7,7,0,0,1-4.12-1.46c-1.17-1.17-2.25-2.53-2.88-.67-1.55,0-1.77.41-1.9,1.43-2-1-2.85-1.27-3.45-1a3,3,0,0,1-2.28-.25,20.49,20.49,0,0,0-3.29-1l-.41.76s3.71,2.09,4,4.09A21.81,21.81,0,0,0,173.1,338c-2.28,0-1.2-1.49-3.33-1.52s-2.76.06-3.42.92a7,7,0,0,1-1.71,1.71c-.35.16-3.07.7-3.07.7a6.64,6.64,0,0,1-4.31,3.36c-3,.63-3.45.86-4.75.32A11.12,11.12,0,0,0,148.68,342.59Z"/><path class="cls-2" d="M153.83,345.16a4.62,4.62,0,0,1-1.86-.41,9.75,9.75,0,0,0-3.29-.75h-.4l-7.08-4.29-.15-.53a62,62,0,0,1-1.91-7.8c0-.56-.08-1.39-.15-2l-.78,2.24-2.44-11,6,2.52.24-2L144,322.4s2,1.32,2.89,1.86l1.11.68.1-.45a3.73,3.73,0,0,1,1.65-2.25l-.11-.22c-.34-.69-.73-1.47-.05-2.21l.65-.72.42.15a1.51,1.51,0,0,1,.57-.44,2.13,2.13,0,0,1-.11-.49,2.22,2.22,0,0,1,1-2.24l0-.06-.31-.36a2.54,2.54,0,0,1-.82-1.91,1.8,1.8,0,0,1-2,0,3,3,0,0,1-2-2.24c-.06-.25-.18-.39-.64-.83l-.23-.22-.92,0c-.32,0-.65,0-1,0-2.11-.19-2.33-1.32-2.33-1.79v-.33l.15-.3a3.72,3.72,0,0,1,1.91-1.74,5.65,5.65,0,0,1,.85-.22,5.86,5.86,0,0,0,3.16-1.48,2.34,2.34,0,0,1-.52-.06,2.37,2.37,0,0,1-1.35-.82,2.07,2.07,0,0,1-.88-1.61,2.36,2.36,0,0,0-.61-1.46,23,23,0,0,0-3.7-2.31c0,.17,0,.35-.07.55l-.24,1.81-1.69-.68s-1.92-.77-2.6-1.06a1.8,1.8,0,0,1-1-1,1.83,1.83,0,0,1-.08-.29,2.68,2.68,0,0,1-.87-.44l-.06,0a1.82,1.82,0,0,1-1.66.07,1.57,1.57,0,0,1-.84-1.24,10.18,10.18,0,0,0-1.16-1.41,12.52,12.52,0,0,0-3.81-1.6c-.88-.16-5.47-.53-7.25-.65a1.93,1.93,0,0,0-.93.13,3.92,3.92,0,0,1-1.76.25,2.08,2.08,0,0,1-1.54-.8,2.12,2.12,0,0,1-.42-1.08l-.49,0a2.15,2.15,0,0,1-1.56-.8,2.48,2.48,0,0,1-.51-1.44,2.06,2.06,0,0,1-.61-.13c-1.59-.6-1.26-2.53-1.07-3.68l0-.09-.83-.66c-.83-.65-1.68-1.33-2.14-1.78-.87-.87-2.08-3.88-2.58-5.2-.24-.54-.61-1.94-.78-5.53s-.67-4.59-.68-4.6l-1.09-1.72,2-.36L117.32,262l-.9-3.77,3.16-1.26a16.81,16.81,0,0,1,1.74-1.87,4.49,4.49,0,0,1,2.26-1.12,8.87,8.87,0,0,1-.87-1.28c-.82-1.64,1-2.68,1.93-3.18l.45-.26a3.34,3.34,0,0,1,.69-1.31l.36-.49c.15-.21.25-.35.32-.46v-.25a2,2,0,0,1,1.51-1.92,1.59,1.59,0,0,1,.2-.8,2,2,0,0,1,1-.83l-.07-.45,1-.44a7.45,7.45,0,0,1,1.69-.48,5,5,0,0,1,3,1c.23.13.44.26.62.35a15.29,15.29,0,0,1,2.38,1.71l.08.07a13.78,13.78,0,0,1,1.32,1.45,2.26,2.26,0,0,1-.33,2.53c-.09.14-.18.28-.24.41a3.69,3.69,0,0,0-.23,1.36,1.46,1.46,0,0,0,.11.25l1.06.76a10.07,10.07,0,0,0,2.25-.4c1-.7,2.81-.32,4.16.13l1,.32v1c0,2.43-.23,2.88-.34,3.1a4.58,4.58,0,0,0-.23,1.17,3.39,3.39,0,0,1-.27,1.22c.2.17.43.36.58.47a2,2,0,0,0,.86-.09,24.48,24.48,0,0,1,2.56-.62l.26,0h.86c.58,0,2,0,2.91-.09.25,0,.48,0,.69,0h0c.1-.31.23-.66.4-1.08s.15-.63.1-.74a1.91,1.91,0,0,1-.21-.83c0-1.09,1.46-2.87,1.57-3a3.46,3.46,0,0,1,.24-1,4.73,4.73,0,0,0-1-.87l-.69-.42a2.39,2.39,0,0,1-.91-.12h-.4a1.44,1.44,0,0,0-.62.77,4.79,4.79,0,0,0-.32,1,2.21,2.21,0,0,1-1.17,1.58,2.39,2.39,0,0,1-2,.36,2.22,2.22,0,0,1-1.39-1.21,2.29,2.29,0,0,1-.23-.79,3.2,3.2,0,0,1-1.31-.75c-.81-.81-.83-1.88-.06-3.21a3.61,3.61,0,0,1-1-1.08c-1-1.75.33-2.93,1-3.57.2-.17.36-.3.49-.4a1.36,1.36,0,0,0-.08-.51,3.53,3.53,0,0,0-1.27-.78c-.72-.26-1.57-.56-1.62-1.57a1.66,1.66,0,0,1,1.12-1.58,6.37,6.37,0,0,0,1.08-.65,1.4,1.4,0,0,0,.24-.21.88.88,0,0,0-.06.74.72.72,0,0,0,.39.46l.5-2.78a10.11,10.11,0,0,0,1.33,0,2.19,2.19,0,0,1,2-.88,4.53,4.53,0,0,1,.57,0l0-.34c-.06-.49-.1-.85-.13-1.14H148a1.89,1.89,0,0,1-.37,1.24,3,3,0,0,1-2.4.91l-.44,0c-.54.05-1.65.15-2-.94a4.32,4.32,0,0,1-.44-1c-.05-.15-.1-.3-.17-.46s-.08-.2-.11-.3a15.52,15.52,0,0,1-1.35-.78c-.64-.41-1.42-.92-1.22-1.86a2.23,2.23,0,0,1-1.42-1.36,1.91,1.91,0,0,0-.1-.2,1.92,1.92,0,0,1,.13-2.2,1.54,1.54,0,0,0,.21-.41,3.63,3.63,0,0,1,1.21-1.68,1.75,1.75,0,0,0,.18-.16c0-.06.13-.32.21-.53a6.72,6.72,0,0,1,.65-1.39,5.48,5.48,0,0,0,.64-1.2.93.93,0,0,0,0-.74,4.07,4.07,0,0,1-.51-.39,2.42,2.42,0,0,1-.91-2.45,4.36,4.36,0,0,0,0-.62,7.83,7.83,0,0,0-.06-1.43l-.26-.15c-.25-.17-.73-.48-1.25-2.43l-.47-1.78h2a3,3,0,0,0,.22-.29,5.48,5.48,0,0,1,2-3.56,3.51,3.51,0,0,0-.25-.9,10.59,10.59,0,0,0-.73-1.17c-.23-.13-.82-.4-1.3-.62-.77-.35-1.64-.75-2.38-1.15a1.77,1.77,0,0,0-1.4-.07,5.35,5.35,0,0,1-1.57.14,3.19,3.19,0,0,1-2.29-1.13c-.91-1.1-1.2-2.92-.9-5.75.25-2.43-.17-3.48-.38-3.72a26.35,26.35,0,0,0-2.78-1,2.93,2.93,0,0,1-1.86-1.74,6.71,6.71,0,0,1,.11-5.26,10.57,10.57,0,0,0,.44-4.31l-.05-.6,1.8-2.08,1.34-.71a7.31,7.31,0,0,1,1.24-1.45l.31-.74c.18-.43.41-1,.73-1.61l.17-.35a2.52,2.52,0,0,1-.18-.45,9.87,9.87,0,0,1-.25-1.87c0-.29,0-.55-.07-.73s-.34-1.26-.52-1.81l-1-3,4.48,2c.08-.21.17-.42.27-.64s.32-.65.46-.91a2.09,2.09,0,0,0,.36-1,4.55,4.55,0,0,1,1-2.84c-.5-1.18.34-2,.92-2.6l.41-.42a4.32,4.32,0,0,1-1.24-2.56,3.15,3.15,0,0,0-.54-1.75c-1.11-1.1-1-1.76-.67-3.35l.18-1a3.4,3.4,0,0,0-.22-2.06l-17,5.52-2.33-.78-6,14.27-4.16-1.46a9.5,9.5,0,0,1-4.23.91h-2.4l1.16-2.1c1.23-2.23-.11-8.23-1.24-11.49l-.14-.4.1-.41s.21-1,1-7.43a43.57,43.57,0,0,0-1.08-16c-.84-4-1.57-7.41-.49-11.07l.46-1.54,1.47.65c3,1.31,8.58-.76,11.92-2l1.68-.61c2.82-1,12.73-3.75,16-4.67-.07-3.24-.32-12.79-1-16.74S126.85,79.16,126.15,76l-6.38-.31c-1.48.44-4.78,1.43-5.61,1.78-1.26.53-5.65.29-8.16.11l-.9-.07L91.85,42.25l0-.31a39.17,39.17,0,0,0,0-4.92c-.11-1.47-1.62-3.86-2.54-5L89,31.64l0-.46c-.14-2.91-.56-5.85-.92-6.43-1-1.62-.49-5.5-.2-7.1l.25-1.37,3.44.56,1.62-.1c.14-.23.36-.62.7-1.26a10.44,10.44,0,0,0,.32-1.17l.25-1.11h4.33l.26.1a16.31,16.31,0,0,0,4.06,1.2,12.51,12.51,0,0,1,2.63-.33l2,.07,1.15,0,.07-.06a5.87,5.87,0,0,1,1.07-.83,5.77,5.77,0,0,1,1.78-.7l.18,0,.31-.06.2-.23c.75-.91,4.62-3.06,6.86-4.26l.27-.15.31,0a30.84,30.84,0,0,1,4.58,0,4.44,4.44,0,0,0,.88.07l.07-.14c.58-1.24,1.38-2.93,2.89-3.07a39.51,39.51,0,0,1,6,.68l.56.09.34.45a4.1,4.1,0,0,1,.64,3.19,4.46,4.46,0,0,1-.49,1.27l1.25-1h4.64l10.25,5.08.18.59c1.51,5,3.55,10.86,4.21,11.68a11,11,0,0,1,2.58,6.49c2.76,2.33,8.72,7.28,8.72,7.28l.21.17.13.24c1,1.85,2.26,4,2.86,4.87h1.67l.32.18a38.68,38.68,0,0,0,5.67,2.7,6.55,6.55,0,0,1,2.07,1c1.77,1.14,4.2,2.7,7.34,1.83l.72-.2.57.49c3.48,3,8.85,4.25,8.91,4.26l4.87,1.14-4.74,1.58c-.34.12-.79.44-.77.58.16.86,2.48,3.52,3.31,4.07.48.09,2,.16,2.89.2a9.87,9.87,0,0,1,2.81.28c.32.09,1.57.34,2.59.54a52,52,0,0,1,5.57,1.26,11.08,11.08,0,0,0,4.37-.05A12.15,12.15,0,0,1,223,66l2,.53a2.07,2.07,0,0,1,.17-.23c1-1.21,2.92-.78,4.26-.36,2.52.8,5.68,2,7,3.32a15.7,15.7,0,0,0,3.39-.55,4.4,4.4,0,0,1,1-.17c.29,0,2.14.16,3.64.29l3.69.33-3,2.22a1.61,1.61,0,0,0-.52.66c.66.51,3.48.69,8.38.51l1.57-.05.76,2.77,1.61,1.47a2.5,2.5,0,0,1,.54,2.09,4,4,0,0,0,.1,1.39c1.39.63,3.27,1.66,3.35,1.7l.51.28L263,87.5l-1.84,0a10,10,0,0,0-2.87.42,3.52,3.52,0,0,1-3,.93,4.41,4.41,0,0,0-.86,0,14.49,14.49,0,0,0-2.11.93L252,90l-.29,0a1.07,1.07,0,0,0-.42.14,2,2,0,0,1-2.16,1,1,1,0,0,0-1.08.46,12,12,0,0,1-.9,1l.52.33c1.6,1,2.48,1.95,2.7,3a2.31,2.31,0,0,1,0,.76l.84,2.76-6.17,4.53-.21.58a14.91,14.91,0,0,1,1.91,2.36,8.6,8.6,0,0,1,.38,3.25c0,.33,0,.62,0,.81a4.74,4.74,0,0,0,1.34,1.48,2.34,2.34,0,0,1,1.16,1.59,11.4,11.4,0,0,1-1.65,8l-.75,1.14h0v0c-.05,1.25-.14,3.37-1.46,4.22l-.09,1-.75.34c-.56.26-1.4.89-1.46,1.36a15.18,15.18,0,0,1-1.59,4.3l-.3.55-3.66.89a4.87,4.87,0,0,0-1.94,1.48c-1,1.42-3.11,3.81-5.23,3.81-.25,0-.53.67-.58,1.44-.08,1.16-.95,2.33-2.16,3.86a11.79,11.79,0,0,0-.88,1.19c0,.11-.09.35-.16.64-.34,1.43-.85,3.58-2.27,4.5a3.37,3.37,0,0,1-1.7,2.56,3.3,3.3,0,0,0-1.58,2.45c0,.59-.4,5.81-.48,6.85l-.06.75-3.29,1.87a6.93,6.93,0,0,1-.41,3.89c-.57,1.13-1.32,3.16-1.61,4l.67,4-.13.36a11.82,11.82,0,0,1-2,3c-.87,1-2.48,5-3.53,7.94l3.75,2.1-.2,1a24.17,24.17,0,0,0-.41,3.08l.26,0c4.07.74,6.3,1.28,7.18,2.16a6.34,6.34,0,0,0,2.46-.35l2.38-.77-1,4.35-4,1.8a5.39,5.39,0,0,1,.17,5.81,7.37,7.37,0,0,0-1.06,4.8l.14.74L218,217.28c-.18.48-.33,1-.38,1.15,0,.6-.4,1-1.79,2.68-.34.41-.81,1-.92,1.12a31.21,31.21,0,0,1-3.07,3.11l-.41.38h-5.19l.23-.8-.47.22-.32-1.79-.46.44c-2.19,2.19-5.55,6.48-5.59,6.52L198.27,232c-.51,1.34-1.07,3-1.28,3.72l.19.29-.44.79c-.5.86-1.24.81-3,.68-.58,0-1.62-.11-2-.08a27.79,27.79,0,0,1-3.61.9l-2.39.48.64-1.93a6.21,6.21,0,0,1-1.85-.76l-.24-.13-.1.32-.95.14a.47.47,0,0,0-.24.07,1.28,1.28,0,0,0,0,.75,1.61,1.61,0,0,1-.71,1.71l.39.27,0,.77a32.62,32.62,0,0,1-.9,6.89l-.22.81-.81.2a14.62,14.62,0,0,0-3.61,1.35,8.48,8.48,0,0,0,0,1.29l.16,1.34-1.33.23a14,14,0,0,1-4.38.08l-.55.18c3.7,4.47,13.79,16.66,15.06,18.42s6,7.35,7.66,9.26c1.9-.36,2.19-.27,2.47-.17a1.75,1.75,0,0,1,1.08,1.79l.8.15.8.13.29.75c.3.77.71,1.75.84,2,0,.06.28.21,1.33.26,1.72.09,2,0,2.48-.37a8.71,8.71,0,0,1,2.15-1.08,7.47,7.47,0,0,0,1-.42,1.83,1.83,0,0,1,2.63.2,1.31,1.31,0,0,0,.46.32l.43.17c.09-.11.23-.27.41-.53l.82-1.13,1.14.8a1.07,1.07,0,0,0,.64.24l1.25-.51.29,1.31,0,0,1.12-.41,6.76.25.1,1.26c0,.45.24,1,.9,1a3.42,3.42,0,0,0,2.37-1.17l.45-.56.73,0c.15,0,1.15-.13,1.6-2l.31-1.33,3.35.67.09,1.21a4,4,0,0,1,2.45,1.49,2.32,2.32,0,0,1,.27,1.92,6.25,6.25,0,0,1,2.28.22c1.15.29,2.17.64,2.91.9.37.13.84.29,1,.32a13,13,0,0,1,1.42.4,19.51,19.51,0,0,0,2.71.72,11.78,11.78,0,0,0,1.74-.17l.64-.12,5.07,4.1-2.58.77a6.61,6.61,0,0,0-1.82.85,16.67,16.67,0,0,1,.92,3.48l.07.51-.76,1.22a3.61,3.61,0,0,1,.62,2.33,3,3,0,0,0,0,.48,7.11,7.11,0,0,1,1.15,2.31l.35,1.27-5.06,1.78v0l.59.21,1.17,0,.25.09a4.29,4.29,0,0,1,.58.27,9,9,0,0,0,.89-.18l1-.27.55.9c.57.93,1.13,2.26.6,3.28a1.8,1.8,0,0,1-1.53,1,6.57,6.57,0,0,1-2.89-.28l-.28-.13a1.54,1.54,0,0,1-.6,2,3.51,3.51,0,0,1-.74.32,3.57,3.57,0,0,0-.54.21h0s0,.09,0,.14a7.18,7.18,0,0,1-.28,1.26L243.72,320l-.24-.58a2.54,2.54,0,0,1-1.52.78l-.78.13-5-1.21-.14-.95a3.7,3.7,0,0,0-.6-1.62,3.11,3.11,0,0,0-.83.09,2.75,2.75,0,0,1-2.93-.8,7.59,7.59,0,0,1-.57-.72,3.42,3.42,0,0,1-2.26-.54,3.48,3.48,0,0,1-.52.25,6.55,6.55,0,0,1-.9.27l.38.25.75.51a5.31,5.31,0,0,0,1.19.07c.57-.06.92-.1,3.7,2.46l1.38,1.27-1.6,1a13.6,13.6,0,0,0-1.9,1.37,3.77,3.77,0,0,1-1.35,1.78,2.55,2.55,0,0,1-2,.67,4.32,4.32,0,0,1-.58-.17l-.38-.11a8.9,8.9,0,0,1-2.39,1c-1.36.24-2.34-1.7-2.9-3.27a6,6,0,0,1-.63.32l-.23.1-.25,0a1.05,1.05,0,0,0-.24.06,1.61,1.61,0,0,1-1.26.82c-1,.07-1.63-.77-2.11-1.46l-.2-.28a13.05,13.05,0,0,0-1.81-.14l-1,0-.33-.93c0-.13-.4-1.16-.58-1.91l-.55.08-1.37.44-.79,4.19-1.74-1a10.63,10.63,0,0,0-1.31-.66,1.93,1.93,0,0,1,0,1.63l-.63,1.54c-.12.38-.26.83-.38,1.25l.28-.07,2.74,3.2L208,331.16l-.83-.05a13.3,13.3,0,0,0-1.38,0c0,.4,0,.95,0,1.44l.09,3.08-2.4-1.94a10.2,10.2,0,0,0-.87-.62,3.15,3.15,0,0,1-.3,1.7c.14,1.88-1,2.38-1.67,2.51l-.34.06a10,10,0,0,1-.57,1.61l-.51,1.09-1.16-.33c-1.4-.39-3.15-.84-3.52-.87h0a8.25,8.25,0,0,1-5.08-1.87l-.34-.34-.37-.37-.15.45-1,0a4.81,4.81,0,0,0-.5,0l0,.15-.25,2L185,338c-1.77-.93-2.24-1-2.34-1a3.93,3.93,0,0,1-1.92.15,4.28,4.28,0,0,1,.84,1.94l.28,2.25-2.14-.72a20.27,20.27,0,0,0-6.61-1.26,3.11,3.11,0,0,1-2.88-1.34,1.22,1.22,0,0,0-.12-.15s-.11,0-.35,0c-2,0-2.05.08-2.28.37a8,8,0,0,1-2.24,2.13,15.08,15.08,0,0,1-2.76.67,7.94,7.94,0,0,1-4.92,3.48l-1.06.23A13.35,13.35,0,0,1,153.83,345.16Zm-4.73-4a13.09,13.09,0,0,1,4,1c.69.29.8.28,2.84-.16l1.08-.23a5.27,5.27,0,0,0,3.32-2.59l.31-.63.69-.15c1.06-.21,2.35-.49,2.75-.6a8.18,8.18,0,0,0,1.19-1.29c1.12-1.45,2.4-1.5,4.56-1.47a3,3,0,0,1,2.7,1.32,1.14,1.14,0,0,0,.12.16,3.45,3.45,0,0,0,.48,0,18.82,18.82,0,0,1,3,.24l-.57-.35-1.21-.69,1.58-2.92,1,.23a19,19,0,0,1,3.68,1.13,1.58,1.58,0,0,0,1.09.16,4.2,4.2,0,0,1,3.21.44,2.72,2.72,0,0,1,1.71-.83,2.1,2.1,0,0,1,1.31-.95c1.3-.29,2.3.73,3.18,1.63l.32.32a5.63,5.63,0,0,0,3.11,1,17.57,17.57,0,0,1,3,.62l0-.15a2.11,2.11,0,0,1,1.87-1.89,2.05,2.05,0,0,1,.32-1.26c0-.11,0-.24,0-.34a3.61,3.61,0,0,1,.63-2.64,2.15,2.15,0,0,1,2.67-.29,2.08,2.08,0,0,1,.35-.93,1.5,1.5,0,0,1,.44-.45,1.58,1.58,0,0,1-.37-.36c-.43-.57-.58-1,.61-4.65l.51-1.26-.09-.16c-.62-1.15.22-2.4.53-2.86a1.76,1.76,0,0,1,1.52-.76l.76-5,1.91,1.5c.47.37,1,.79,1.39,1.06l1.15-.37.25-.06,2.22-.31.48.38a3.3,3.3,0,0,1,1.11,1.89c0,.2.12.5.22.82a4.24,4.24,0,0,1,2.38.57,3.14,3.14,0,0,1,.69.74,3.74,3.74,0,0,1,1-.3l.26-.15.11-.1a2.45,2.45,0,0,1,2.32-.94,1.7,1.7,0,0,1,1.18,1.28,20,20,0,0,0,.93,2.42l.7-.37a3,3,0,0,1,2.62-.13,2.32,2.32,0,0,0,.39-.36c.06-.39.3-1,1.59-1.94l-.63-.51a4.61,4.61,0,0,1-2.57-.55l-.75-.51c-1.61-1.07-1.94-1.29-1.94-2.11,0-.16-.09-1.69-.09-1.69l0-.39L214,311.39h13.93a3.43,3.43,0,0,1,2.51.81.61.61,0,0,0,.39.07,2.07,2.07,0,0,1,2.5,1,5.39,5.39,0,0,0,.45.6l.27-.05a5.42,5.42,0,0,1,1.8-.13c1.72.19,2.48,1.9,2.81,3.06l2.45.6a2.71,2.71,0,0,0-.23-.43,2.41,2.41,0,0,1,.19-3,1.7,1.7,0,0,1,1.94-.73,3.75,3.75,0,0,1,.34-.35,2.88,2.88,0,0,1,.63-.43,2.07,2.07,0,0,1,.28-2.26l.17-.14-.52-.19-1.32-4,5-1.76-.15-.2a3.23,3.23,0,0,1-.57-2.15c0-.58,0-.59-.12-.66a1.91,1.91,0,0,1,.12-3.57,11.49,11.49,0,0,0-.73-2.44,2.25,2.25,0,0,1,0-1.9,3.76,3.76,0,0,1,1.46-1.52l-.19-.15a12.93,12.93,0,0,1-1.59.11,14.68,14.68,0,0,1-3.56-.85c-.41-.13-.92-.29-1.06-.31a9.83,9.83,0,0,1-1.43-.43c-.73-.25-1.64-.57-2.67-.83a5.47,5.47,0,0,0-.92-.16l-.21.34-1-.16a3.11,3.11,0,0,1-2.09-1.37,2.67,2.67,0,0,1-.25-2.08,4.92,4.92,0,0,0-1.35-.33l-.65-.06a4.44,4.44,0,0,1-2.64,1.71,6.26,6.26,0,0,1-4,1.78,3.51,3.51,0,0,1-3.54-2.32l-3.9-.14-.79.29a2.57,2.57,0,0,1-2.85-.78,3.64,3.64,0,0,1-.57-.13,2.37,2.37,0,0,1-3,.57l-.34-.14a3.74,3.74,0,0,1-1-.56c-.31.15-.65.29-1,.43a7.13,7.13,0,0,0-1.44.68c-1.23,1-2.34,1.07-4.37,1s-3-.55-3.61-1.64a15.48,15.48,0,0,1-.76-1.67l-.71-.15a2,2,0,0,1-1.54-1.54l-1.1.21-.82.17-.54-.64c-.28-.32-6.8-8-8.34-10.06s-16.14-19.71-16.29-19.88l-1.34-1.61,5.4-1.74.45.16a6.91,6.91,0,0,0,2.25.08c0-.23,0-.49,0-.76,0-.56.17-2,4.88-3.31a31.75,31.75,0,0,0,.6-4.75,2.37,2.37,0,0,1-.8-1.72,2.4,2.4,0,0,1,1.13-1.9,3.59,3.59,0,0,1,.59-2.14,2.89,2.89,0,0,1,1.46-1.08,2.08,2.08,0,0,1,.92-.73,3.29,3.29,0,0,1,2.83.56,4.14,4.14,0,0,0,1,.46,2.36,2.36,0,0,1,2,.94l.13.2a14.57,14.57,0,0,0,1.61-.43c.57-.29,1.35-.26,3.27-.13l.44,0c.16-.55.39-1.27.74-2.22a14,14,0,0,0-1.65-.33c-1.28.32-2.16-1-2.68-2.11-.43-.08-1-.2-1.75-.38a1.91,1.91,0,0,1-1.51-1.29c-.32-1.08.41-1.87,1.19-2.72A9.78,9.78,0,0,0,190,224l.3-.52.58-.15c2.6-.67,5.23,2.63,6.74,5,.69-.87,3.57-4.48,5.63-6.54,1.11-1.11,2.31-2.08,3.57-1.68a2.16,2.16,0,0,1,1.36,1.43,1.84,1.84,0,0,1,.78.39,1.92,1.92,0,0,1,.61,1h.78c1-.93,2-2,2.24-2.23s.54-.7,1.11-1.37c.36-.43.94-1.11,1.17-1.43a15.11,15.11,0,0,1,.6-1.84l.11-.29,1.64-1.64a10.58,10.58,0,0,1,1.5-6c1.14-1.92-.72-3.62-.94-3.81l-1.67-1.45,3.67-1.67a2.51,2.51,0,0,1-.65-.47c-.42-.29-2.35-.77-5.68-1.37-.65-.12-1.14-.21-1.31-.26-1.12-.32-1.65-1.31-1-5.18l-4-2.27.39-1.12c.28-.81,2.79-8,4.44-10a15.79,15.79,0,0,0,1.41-1.89l-.65-3.88.12-.34c0-.12,1.08-3,1.87-4.63a5.48,5.48,0,0,0,0-3l-.29-1.06,3.81-2.16c.21-2.73.41-5.54.41-5.89a6,6,0,0,1,2.79-4.77,1.78,1.78,0,0,0,.51-.45s0-.06,0-.1a2.39,2.39,0,0,1,1.27-2.06c.31-.19.67-1.13,1.06-2.78.09-.38.17-.71.24-.92a7.53,7.53,0,0,1,1.33-2,10.39,10.39,0,0,0,1.55-2.32c.18-2.46,1.51-4.06,3.41-4.06.42,0,1.67-.92,2.94-2.65a7.62,7.62,0,0,1,3.33-2.49l.14,0,2.5-.61a10.91,10.91,0,0,0,1-2.75,4.73,4.73,0,0,1,2.34-3.17l.14-1.54,1.05,0a8.7,8.7,0,0,0,.21-1.89c.05-1.34.1-2.61,1.17-3.18a1.77,1.77,0,0,1,.48-.18,9,9,0,0,0,.88-4.88,7,7,0,0,1-2.54-3.14,7.45,7.45,0,0,1-.1-1.47,19.7,19.7,0,0,0-.11-2.09c-.24-.34-1.2-1.43-2-2.27l-.61-.64,1.12-3,5.23-3.84-.57-1.88.09-.13a5.29,5.29,0,0,0-1.26-1c-1.14-.69-2.1-1.36-2.23-2.44A2.68,2.68,0,0,1,245,90.68a10.27,10.27,0,0,0,.79-.87,3.66,3.66,0,0,1,3.35-1.54,3.53,3.53,0,0,1,2-1,15.94,15.94,0,0,1,2.43-1,5.64,5.64,0,0,1,1.74-.13,6.35,6.35,0,0,0,.85,0,4.91,4.91,0,0,1,3.09-1.21l-.2-.7c-.65-.35-1.8-1-2.73-1.39-1.79-.83-1.71-2.9-1.67-4v-.23l-1.54-1.4-.31-.28-.38-1.41c-5.37.17-8.55,0-9.85-1.44a2.79,2.79,0,0,1-.78-2.18,2.86,2.86,0,0,1,0-.32l-1-.08-.43.1c-3.4.77-5.16.94-6-.19-.22-.29-1.7-1.32-5.85-2.64l-.67-.19,1,2-6.55-1.73a9.94,9.94,0,0,0-3-.28c-1.26.31-4.45.57-6.08-.05-.61-.23-3.42-.79-5.1-1.13-2.07-.41-2.69-.54-3-.65s-1.27-.09-2-.12a15.89,15.89,0,0,1-3.78-.38c-1.29-.48-4.71-4.26-5.08-6.2a2.85,2.85,0,0,1,.25-1.83,25.52,25.52,0,0,1-7-3.64c-4,.8-7-1.15-8.9-2.35a8.48,8.48,0,0,0-1.12-.66,35.92,35.92,0,0,1-6.14-2.82h-1.54c-.84,0-1.31,0-4.63-6.11-1.16-1-6.8-5.66-9-7.53l-.5-.42V34a8.14,8.14,0,0,0-2-5.38c-1.22-1.5-3.6-9-4.54-12.06l-8.56-4.24h-3l-4.32,3.58-.88-.59a6.85,6.85,0,0,1-2.1-2.63l-.61-1.22,1.19-.66c1.24-.69,2-1.45,2.15-2.15a1.27,1.27,0,0,0,0-.47c-1.72-.27-3.55-.51-4.27-.53a9.08,9.08,0,0,0-.8,1.46c-.36.77-.6,1.28-1.24,1.52a5,5,0,0,1-2.7.16,25.8,25.8,0,0,0-3.66,0,50.32,50.32,0,0,0-5.77,3.46,2.66,2.66,0,0,1-1.88,1.19l-.11,0-.22.05a3,3,0,0,0-1,.39,3.32,3.32,0,0,0-.56.46,2.43,2.43,0,0,1-1.67.83l-1.59-.05L105.75,17a10.15,10.15,0,0,0-2.07.28c-1.25.28-3.83-.62-5.42-1.25H96.71a4.7,4.7,0,0,1-.3.77c-1,2-1.35,2.33-1.86,2.55-.23.1-.46.2-3,.31h-.14l-.93-.15a10.15,10.15,0,0,0,0,3.7c.88,1.37,1.22,5.32,1.33,7.37.77,1,2.69,3.81,2.87,6.2a40.82,40.82,0,0,1,0,5l12.4,33a33.79,33.79,0,0,0,6,0c1.14-.48,5.59-1.79,6.1-1.94l.23-.07,9,.45.23,1.05c.12.53,2.87,12.92,3.72,17.83s1.06,17.74,1.07,18.28l0,1.09-1.05.29c-.14,0-13.68,3.8-16.93,4.92l-1.61.58c-3.49,1.29-8.52,3.16-12.43,2.43-.38,2.52.18,5.12.85,8.28a46.58,46.58,0,0,1,1.12,16.9c-.59,4.7-.87,6.57-1,7.31.53,1.59,2.2,7.09,1.64,11.08a4.49,4.49,0,0,0,1.3-.54l.59-.41.7.23,2.26.79,6-14.23,3.94,1.31,17.93-5.82.61.57a5.92,5.92,0,0,1,1.47,5.28l-.19,1c-.06.29-.11.58-.14.77a5.86,5.86,0,0,1,1.4,3.71,3.18,3.18,0,0,0,.47.69,1.8,1.8,0,0,1,1.08,1,2.38,2.38,0,0,1-.78,2.61l-.24.25a1.23,1.23,0,0,1,.13.19c.56,1-.23,1.7-.87,2.24a2,2,0,0,0-.93,1.8,4.81,4.81,0,0,1-.71,2.12c-.11.2-.23.42-.37.71a8.94,8.94,0,0,0-.57,1.69l-.35,1.72-2-.89,0,.34a8.77,8.77,0,0,0,.15,1.3c.68,1,.33,1.84-.2,2.87-.28.55-.48,1-.64,1.42a4.3,4.3,0,0,1-1.16,1.86,6.48,6.48,0,0,0-.83,1.08l-.2.31-1.52.81-.68.79A12.19,12.19,0,0,1,129,186a3.6,3.6,0,0,0,0,3.11,26.89,26.89,0,0,1,3.11,1.15c.69.28,2.54,1.51,2,6.59-.29,2.81.17,3.53.27,3.65s.08.09.34.11a3.24,3.24,0,0,0,.79-.1,4.47,4.47,0,0,1,3.28.35c.66.35,1.5.74,2.23,1.07a11.91,11.91,0,0,1,1.85.94,7.1,7.1,0,0,1,1.54,2.18c.69,1.53.9,3.41-.46,4.32a3.38,3.38,0,0,0-1,1.41,2.39,2.39,0,0,1-.35,1.34L147,221.1c.66,1.34,2.13,4.35,2.54,5.35a5.45,5.45,0,0,1,.64.34,9,9,0,0,0,1.24.55,10.62,10.62,0,0,1,1.7.78s0,0,.24,0a2.5,2.5,0,0,1,1.89.9c.09.1.2.21.33.34.69.68,1.63,1.6,1.29,2.81a2.07,2.07,0,0,1-1.7,1.43,7.93,7.93,0,0,1-1,.17l0,.28c.27,2.21.33,3-.23,3.65l-.42.48-.69,0a2.19,2.19,0,0,1-1.2-.41,1.28,1.28,0,0,0-.63-.25,2.06,2.06,0,0,1-1.54.84l-.21,0a3.06,3.06,0,0,1-.76,1,5.17,5.17,0,0,1,1,.92l.11.17a4.12,4.12,0,0,1,.46,2.38,2.07,2.07,0,0,1-1,1.79,4,4,0,0,0-.45.35l-.25.23a3.68,3.68,0,0,0,.51.3,1.6,1.6,0,0,1,1,.82,2,2,0,0,1-.4,2.15l-.26.37a2.34,2.34,0,0,1,1.28.74l.07-.15a3.78,3.78,0,0,1,3-2.46h.69l.27,0c1.75-2.84,2.58-3.84,3.86-3.24s.79,2.1.54,2.82l-.7,2c1.13.95,1.9,2.22,1.32,3.5a1,1,0,0,0-.12.41,2.34,2.34,0,0,1-.66,1.54,7.69,7.69,0,0,0-.8,1.19,3.61,3.61,0,0,1-.19,2.6,10.16,10.16,0,0,0-.58,1.78l-.27,1.63-1.57-.5a2.9,2.9,0,0,0-.6,0l-.44,0c-1,.09-2.4.1-3.17.1h-.72a20.77,20.77,0,0,0-2.06.5,4,4,0,0,1-3.23-.17c-2.56-1.7-2.2-2.79-2.08-3.15,0-.11.1-.27.18-.45a3.66,3.66,0,0,0,.22-.57,7,7,0,0,1,.47-2.28,8.46,8.46,0,0,0,.07-.87,4.47,4.47,0,0,0-.85-.11,11.05,11.05,0,0,1-4,.82l-.51,0L136.35,253l-.14-.19a3.88,3.88,0,0,1-.74-2.06,6.48,6.48,0,0,1,.53-2.63c.09-.19.21-.38.33-.57l-.5-.51a13,13,0,0,0-1.76-1.29c-.23-.11-.5-.27-.78-.44a8.74,8.74,0,0,0-1.25-.65l-.2,0a1.77,1.77,0,0,1-.91.87,1.8,1.8,0,0,1-.55,1.23,2.49,2.49,0,0,1-1.12.58,3.37,3.37,0,0,1-.81,1.7l-.4.55-.2.28c0,1.07-1,1.59-1.84,2.08l-.28.16c.36.47.85,1.06,1.28,1.54l.29.32.06.42a2,2,0,0,1-.46,1.55,2.26,2.26,0,0,1-1.79.74,2.4,2.4,0,0,0-1.9.49,14.8,14.8,0,0,0-1.62,1.79l-.24.32-1.61.64,1,4.21-14.06,3a25.74,25.74,0,0,1,.46,4.1,18.55,18.55,0,0,0,.52,4.48l0,.12a24.8,24.8,0,0,0,2,4.26c.33.33,1.19,1,1.88,1.55a8.34,8.34,0,0,1,1.71,1.5,2.22,2.22,0,0,1,.18,1.74,1.47,1.47,0,0,1,.88.07,1.55,1.55,0,0,1,1,1.22,3.71,3.71,0,0,1-.07,1.21c0,.13,0,.31-.07.48l.53,0c1.08-.08,1.76.27,2,1.08a1.7,1.7,0,0,1,.07.69,4.51,4.51,0,0,1,1.91-.23c1.22.08,6.4.47,7.57.68s4.23,1.31,5.31,2.39a12.24,12.24,0,0,1,1.39,1.68,2.42,2.42,0,0,1,1.36.27,2.43,2.43,0,0,1,2.21-.57,1.62,1.62,0,0,1,1,.94,1.66,1.66,0,0,1,.28-.2,1.59,1.59,0,0,1,2,.35c.12.08.86.49,1.45.82a22.61,22.61,0,0,1,4.34,2.79,5,5,0,0,1,1.39,2.92,1.85,1.85,0,0,1,.18.2l.36,0c.91-.1,2.29-.25,2.95.89s-.29,2.51-.65,3a7.85,7.85,0,0,1-3.15,2.55,2.48,2.48,0,0,1,.45.36l.2.2a4.39,4.39,0,0,1,1.4,2.17.6.6,0,0,0,.1.23l.06,0c.55-.41,1.27-.9,1.37-1l.53-.37.62.16c.72.18,2,1.09,1.52,3.27,0,.13-.08.38-.1.55l.12.14.35.42a4.61,4.61,0,0,0,.61.59,1.75,1.75,0,0,1-.31,3.19l-.16.08a1.46,1.46,0,0,1,.21.58,2.14,2.14,0,0,1-1,1.92,6.15,6.15,0,0,1-.93.68l0,.07v0a1.49,1.49,0,0,1,.54,1,1.66,1.66,0,0,1-.6,1.34,4.53,4.53,0,0,1-.85.62c-.48.29-.8.51-.86.78-.29,1.25-.58,2.4-.58,2.4l-.48,1.9-1.66-1s-1.79-1.13-2.73-1.69l-1.08-.67-.14,1.21-3.08-1.29a5.78,5.78,0,0,1,.63,2.3l0,.25a28.86,28.86,0,0,1,.23,2.88c0,.55.85,3.69,1.65,6.49ZM189,335.53Zm11.29-2.66h0Zm20.13-10.61h0Zm11-.69h0Zm-24-.62h0ZM230,318.72h0Zm11.52-1.35h0Zm-31.48-1Zm18.41-.51h0Zm-1.38-.36c0,.06,0,.1,0,.11S227.12,315.49,227.12,315.46ZM149,313.74h0Zm2.12-1.56ZM149.79,311Zm-.1,0h0Zm-3.26-7.23h0Zm2.42-.51h0Zm9-47.7ZM130,242.87h0Zm50.18-4.94h0Zm11.48-.51ZM148.6,232l2.66.86c0-.81.37-1.76,2-1.86l0,0h0a3.11,3.11,0,0,1-1.54-.47,9.13,9.13,0,0,0-1.23-.54,10.59,10.59,0,0,1-1.71-.79,2.55,2.55,0,0,0-.37-.19,1.87,1.87,0,0,1-.49.54c.17.19.34.38.46.55A1.66,1.66,0,0,1,148.6,232Zm45.08,0h0Zm-50.31-1.8a4.76,4.76,0,0,0,.6.27l1,.33a1.82,1.82,0,0,1,.07-.19,2.29,2.29,0,0,1-.65-2,1.75,1.75,0,0,1,1.18-1.22h0a46.15,46.15,0,0,1-1.25-5.44l-.15-.84a3.92,3.92,0,0,1-.29,1.06,8.2,8.2,0,0,1-.88,1.65,4.7,4.7,0,0,0-.36.81,6.36,6.36,0,0,1-.46,1,3.28,3.28,0,0,1-.75.82c-.25.21-.31.28-.36.42a4.13,4.13,0,0,1-.17.43l.58-.14.29-.57,1,0a1.56,1.56,0,0,1,1.35,1.21,2.49,2.49,0,0,1-.76,2.42Zm50.24-.94a11,11,0,0,1,1.45.24,11.88,11.88,0,0,0-3.07-3.43,13.1,13.1,0,0,1-.89,1.08c.51.1.79.13.79.13l.81.09.33.75A10,10,0,0,0,193.61,229.32Zm-50.87-11.46a1.88,1.88,0,0,1,1,1l.08.15-1.19-6.83a5.31,5.31,0,0,1-.84,1.09,2.18,2.18,0,0,1,.74,1.09,7.11,7.11,0,0,1,.26,2.54,7,7,0,0,1-.07,1Zm74.92.44s0,0,0,.07S217.66,218.32,217.66,218.3ZM139.92,156h0ZM258.35,87.84h0Zm-3.71-9.62ZM205.21,66.68h0Z"/></svg>