<svg id="Layer_1" data-name="Layer 1" xmlns="http://www.w3.org/2000/svg" viewBox="0 0 350 350"><defs><style>.cls-1{fill:#999;}.cls-2{fill:#f90;}</style></defs><title>M</title><path class="cls-1" d="M199.87,340.66v0h0a2.64,2.64,0,0,0,.19-.74A4.69,4.69,0,0,1,199.87,340.66Z"/><path class="cls-2" d="M200.17,343.72l-1.86-2.79.23-.72a3.17,3.17,0,0,0,.12-.48l1.92.27.29-.29.18.22-.17.11.58.08a4.08,4.08,0,0,1-.29,1.13Z"/><path class="cls-1" d="M278.92,197.52c-.12-.28-.26-.56-.38-.83-1.53-3.32-1.64-7.11-2.82-10.57-1.85-5.43-7.26-4.89-5.71-10a4.48,4.48,0,0,0-2.35-5.39,2,2,0,0,0-1.65-.54,2.18,2.18,0,0,1-.32-.37c-.44-.71-.95-1.4-1.42-2.09l-2.83-4.19a2.67,2.67,0,0,0-3-1.12,7.9,7.9,0,0,0-7.48,5.39,2.19,2.19,0,0,0-.07,1.16c-1,1-4.22,0-5-.28a2.44,2.44,0,0,0-2.18.34c-1.74-1.34-3.33-3.08-4.53-4.12a2.87,2.87,0,0,0-4.66,1.75l-1.15.32-.46.13.08-3.64c0-1.23.38-2.94-.11-4.13a4.53,4.53,0,0,0-2.71-2.4,20.73,20.73,0,0,1,2.25-1.85,2.33,2.33,0,0,0,2-.84l1-1.14a2.72,2.72,0,0,0-.55-4.21c0-.08.13-.27.37-.69a16.68,16.68,0,0,0,1.3-2.36,5.94,5.94,0,0,0,.31-3.43,2.13,2.13,0,0,0-.42-2.06c-3.53-4.59,2.55-10.1,3.35-14.84.84-5-1.62-9.4.4-14.4,1-2.55,2.68-4.83,1-7.42-1.36-2.15-4.92-3.46-7.93-4.41a19.6,19.6,0,0,0,1-5.29c.1-2.22-.34-3.86.45-6a9.4,9.4,0,0,1,1.33-2.37,2.9,2.9,0,0,0,1,.33c7.43.91,15.24,2,21.32,6.71,1.84,1.43,4.45.58,4.6-1.91A33.94,33.94,0,0,1,267,76.51a20.16,20.16,0,0,1,3.55-5.25c1.8-1.63,4.2-1.62,5.95-3.08,3.56-3,2-7.06-2-8.26-1.43-.43-3.61-.26-4.84-1.23-2.28-1.81-.87-4.17-.64-6.48a23.26,23.26,0,0,0-1.24-10.14,44.46,44.46,0,0,0-2.24-4.57c-1.46-3-1-4.12-.45-7.15s.5-5.41-1.31-7.87a2.92,2.92,0,0,0-.28-.31c-3.69-3.77-9-2.48-13.34-.43-3,1.39-5.86,3.13-9.07,3.88L236,22.07a5.2,5.2,0,0,0-1.59-.86,5,5,0,0,0-2,0,16.06,16.06,0,0,0-5.43,1.5c-1.64.88-4.06,6.94-5.45,6.66a1.83,1.83,0,0,1-.38-.12c.61-1.25,1.26-2.49,2-3.7a5.14,5.14,0,0,0,.68-3.36c.9-1,1.74-1.8-.62-3.52-2.72-2-5.25-1.58-7.94-2-2.46-.35-4.59-1.65-7-2a44,44,0,0,0-17.12,1.8,5.28,5.28,0,0,0-3.61,4.32c0,.5,0,1,0,1.49a4.68,4.68,0,0,1-.65,1.63,19.21,19.21,0,0,1-3.7,4.63c-4.42,4-8.21,8.15-12.43,12.3a14.62,14.62,0,0,0-4.12,13c-.14-.73-8.06-2.33-9.23-2.14-2.74.44-4.45,3.25-7.28,3.37,0,0,0,0,0,.06-3.05.11-5.13-1.57-7.69-3.07A4.71,4.71,0,0,1,141,51c-1.11-1.39-.36-3.4.09-5.13s0-4.19-1.76-4.31c2.49-2.23,5.07-4.58,6.21-7.72s.27-7.28-2.75-8.7a1.68,1.68,0,0,0-1.06-.2c-.68.15-1,.92-1.4,1.48s-1.39.93-1.72.31c.17-2.07-1-4-2.07-5.75-2.37-3.78-4.07-6.94-8-9.17-2.22-1.24-5.11-1.6-7.25-.24-3.59,2.29-3.17,7.5-4.1,11.65a15.44,15.44,0,0,1-7,9.71,2.59,2.59,0,0,1-1.12.44,2.1,2.1,0,0,1-1.88-1.37c-.84-1.83-.1-4,.87-5.74s2.22-3.47,2.43-5.47c.35-3.25-2.09-6.08-4.47-8.31s-5.85-4.37-8.56-2.62c-1.67,1.08-2.21,3.21-3,5-3.89,8.8-6.5-2.7-8.83-5.42l-.17-.18a84.29,84.29,0,0,0-13.24,22.4c-1.5,3.79-2.62,8.46-.07,11.64a12.16,12.16,0,0,0,2,1.84c.19.06.38.12.57.16l.08.37A11,11,0,0,1,76,46.88c3,3.38,2.29,8.62,2.62,13.27.64,2.09,1.28,4.18,1.91,6.27a7.19,7.19,0,0,0,.9,1c2.32,2.11,5.87,2.42,8.17,4.55s2.84,6.11,1.84,9.29-3.14,5.86-5.23,8.45c2.55.51,4,3.28,4.47,5.83s.43,5.3,1.68,7.58A11.59,11.59,0,0,0,95,106.2,30.68,30.68,0,0,1,99,110a5.58,5.58,0,0,1,.78,1.4,12.66,12.66,0,0,1,2.59,1.62,1.74,1.74,0,0,1,2,.27c4.26,3.78,9.15,10.18,2.65,13.9s-12.66,8.84-5.28,15.6c3.91,3.58,8.24,6.78,12.33,10.13a1.57,1.57,0,0,1,.42,1.57c-1.55,4.41-3.51,9.7-2.1,14.41,1.48,4.94,5.81,6.2,10.07,7.81,5.39,2,5.43,7.7,5.78,12.82a56.67,56.67,0,0,1-.34,11.26c-.25,1.91-.88,3.92-1,5.82-.3,3.56,1.17,4.6,3.2,7.13,3.52,4.4,6.84,10.94,13.57,8.86,4.32-1.33,7.73-5,9.92-8.8a1.64,1.64,0,0,1,3,.39l3.62,16.21c.56,2.52.91,3.58,3.21,4.51a17.82,17.82,0,0,1,4.33,2c5.47,4,6.57,10.53,6.45,16.88a1.35,1.35,0,0,1,.2,1l-.35,2.7a1.64,1.64,0,0,1,.19,1.73s1.28.12,1.54.1a8.18,8.18,0,0,0,2.59-.67,1.65,1.65,0,0,1,1.83.74,5.37,5.37,0,0,1,.7,1.37,30.5,30.5,0,0,0,11.44-2.7,1.67,1.67,0,0,1,2.21.58c2,3.17,4.1,7.5,1.32,10.93-1.63,2-4.89,1.72-6.35,3.82-3,4.31,3.3,6.86,6.55,7.45a1.64,1.64,0,0,1,1.13,2c-1.37,6.07-6.4,8.18-12,7.11-8-1.51-13.32,5.89-13.15,13.44.1,4.35,2.43,2.69,5.3,4.59,5.11,3.39,4.83,12.5,7.41,17.45a25.83,25.83,0,0,0,3.48,5l.66-1.56a4.89,4.89,0,0,1,1.49,3.82c1.45,1.4,3,2.7,4.57,4a16.28,16.28,0,0,0,2.75,1.41,3.78,3.78,0,0,0-.12-1.49c.61.37,1.25.7,1.9,1a30.43,30.43,0,0,0-2.65-4.35,11.13,11.13,0,0,0-1-2.23c-1.12-1.9-3.5-3.47-4.33-5.45-1-2.34.88-3.62,2.75-5.14,1.67-1.36,3.31-3.2,5.27-4.12,2.53-1.18,4.15.13,6.37-3l15.79-22.41c1.71-2.42,3.45-4.92,4.15-7.79.59-2.42.84-5.56,3.21-6.32,1.4-.45,3,.23,4.36-.2s2.42-2.1,3.92-2.62c3.54-1.22,5.81,3.53,8.88,4.18,1.61.34,3.61-.61,3.74-2.25.07-.83-.35-1.7-.06-2.49.77-2.15,4.51-.32,6.21-1.86,1.31-1.19.33-3.5-1.19-4.42s-3.39-1.14-4.86-2.13c-2.59-1.75-3.14-5.56-1.9-8.43s3.83-4.92,6.55-6.47c2.44-1.39,5.08-2.5,7.2-4.33s3.68-4.67,3-7.41c-.53-2.3-2.44-4-4-5.77a20.34,20.34,0,0,1-2.51-3.69c.1-1.72.15-3.42.1-5.09a2.88,2.88,0,0,0,.29-.66,10.23,10.23,0,0,0,.24-6.49A17.56,17.56,0,0,0,257,213.1a9,9,0,0,0-.33-1.5c1.28-4.57,4-9.81,8.83-8.22,1.64.54,3.14,2,4.82,1.61s2.25-2.19,3.65-2.92c1.71-.89,4.39-.23,5.21-2A3.08,3.08,0,0,0,278.92,197.52Z"/><path class="cls-2" d="M202.51,340.71l-3.6-1.75-.13,1.09-1.7-.65a17.67,17.67,0,0,1-3-1.52l-.15-.1c-1.94-1.56-3.38-2.81-4.67-4.06l-.43-.42v-.6c0-.11,0-.22,0-.33l-.3.71L187,331.37a27.18,27.18,0,0,1-3.66-5.29,30.65,30.65,0,0,1-2.2-6.89c-1-4-2-8.18-4.74-10a6.82,6.82,0,0,0-2.26-.9c-2-.5-3.59-1.21-3.68-4.85A16,16,0,0,1,175.7,291a11.22,11.22,0,0,1,9.64-2.49c5.42,1,9.31-1.22,10.4-6a.44.44,0,0,0-.07-.32c-2.38-.41-6.86-2-8.1-5a4.67,4.67,0,0,1,.71-4.65,7.38,7.38,0,0,1,3.87-2.49,5.64,5.64,0,0,0,2.54-1.41c1.7-2.1,1.26-5-1.42-9.29,0-.06-.11-.18-.43,0a32,32,0,0,1-12,2.82l-1,0-.35-1a3.91,3.91,0,0,0-.51-1,.79.79,0,0,0-.24-.22,9.25,9.25,0,0,1-2.93.73,7.42,7.42,0,0,1-1-.06l-.54,0,0-1.36-1.38-.64a.23.23,0,0,0,0-.28l-.35-.46.42-3.28-.26-.38,0-.44c.15-7.68-1.71-12.67-5.87-15.71a10.52,10.52,0,0,0-2.81-1.36c-.39-.15-.8-.29-1.22-.47-3-1.21-3.47-2.88-4.06-5.52l-3.62-16.21a.27.27,0,0,0-.22,0s-.11,0-.13.06c-1.61,2.79-5.15,7.72-10.73,9.45-6.65,2.06-10.45-3.08-13.5-7.21-.54-.73-1.07-1.45-1.6-2.11-.3-.38-.59-.72-.87-1-1.58-1.87-2.94-3.48-2.64-7.09a27.73,27.73,0,0,1,.58-3.4c.19-.87.36-1.69.47-2.49a55.42,55.42,0,0,0,.34-11l-.06-.92c-.3-4.67-.59-9.08-4.81-10.67l-.94-.35c-4.13-1.54-8.41-3.12-10-8.38-1.5-5,.43-10.5,2-14.9l.14-.38s0,0,0-.08c-1.26-1-2.62-2.1-4-3.17-2.79-2.21-5.68-4.5-8.35-6.94S96.74,138.68,97,136c.5-4.52,5.54-7.9,9.29-10a4.13,4.13,0,0,0,2.42-3.07c.23-2.19-1.76-5.38-5.31-8.54a.43.43,0,0,0-.31-.1l-.86.51-.76-.65a11.23,11.23,0,0,0-2.31-1.44l-.5-.24-.2-.51a4.16,4.16,0,0,0-.58-1,18.89,18.89,0,0,0-2.8-2.69c-.37-.31-.75-.63-1.11-1a13,13,0,0,1-3-3.48,15.92,15.92,0,0,1-1.5-5.8c-.1-.77-.19-1.49-.32-2.19-.39-2-1.47-4.33-3.35-4.71l-2.3-.46,1.47-1.82c2-2.47,4.05-5,5-8,.78-2.5.64-5.89-1.46-7.83a12.24,12.24,0,0,0-3.69-2,14.73,14.73,0,0,1-4.47-2.51,8.64,8.64,0,0,1-1.07-1.17l-.15-.2-.07-.24q-.61-2-1.23-4l-.74-2.54c-.07-1.06-.1-2.15-.12-3.2-.07-3.59-.14-7-2.14-9.23a9.62,9.62,0,0,0-1-1l-.63-.52A13.57,13.57,0,0,1,71,44.28c-2.39-3-2.43-7.26-.13-13A85.46,85.46,0,0,1,84.36,8.45l1-1.27L86.5,8.4l.2.21a18.61,18.61,0,0,1,2.12,3.75c.66,1.38,2,4.26,2.78,4.44,0,0,.6-.24,1.56-2.42.15-.34.29-.7.44-1.06.65-1.63,1.39-3.47,3.1-4.58C99.45,7,103.2,8,107,11.51c2.51,2.34,5.33,5.54,4.91,9.49a12.48,12.48,0,0,1-2,5c-.2.33-.39.67-.58,1-.72,1.29-1.44,3.11-.83,4.46a1,1,0,0,0,.5.55,1.58,1.58,0,0,0,.49-.24A14.08,14.08,0,0,0,115.77,23c.22-1,.36-2,.51-3.16.46-3.43,1-7.32,4.21-9.38,2.88-1.83,6.38-1.1,8.7.2,3.94,2.21,5.79,5.2,7.93,8.66l.62,1a15.21,15.21,0,0,1,2.09,4.38,2.75,2.75,0,0,1,1.58-1.06,3.07,3.07,0,0,1,2,.3c3.84,1.8,4.8,6.84,3.48,10.46a18.67,18.67,0,0,1-5.18,7l.12.15a6,6,0,0,1,.66,4.74l-.17.64c-.35,1.27-.71,2.58-.18,3.25a3.75,3.75,0,0,0,1,.7l1.29.78c1.8,1.11,3.25,2,5.1,2.1l.59-.05a6.31,6.31,0,0,0,3.1-1.45,9.77,9.77,0,0,1,4-1.9,36.72,36.72,0,0,1,7.79,1.29,16.34,16.34,0,0,1,4.79-11.75c1.49-1.46,2.92-2.92,4.35-4.37,2.57-2.62,5.24-5.33,8.12-8a17.73,17.73,0,0,0,3.43-4.29,3.53,3.53,0,0,0,.48-1.13,4.4,4.4,0,0,0,0-.65c0-.24,0-.48,0-.72a6.6,6.6,0,0,1,4.52-5.57,45.44,45.44,0,0,1,17.84-1.87,19.45,19.45,0,0,1,3.7,1.07,16.58,16.58,0,0,0,3.3,1c.61.09,1.21.13,1.86.17a11.73,11.73,0,0,1,6.72,2c1.35,1,2,1.87,2.11,2.87a2.52,2.52,0,0,1-.23,1.34,3.12,3.12,0,0,1,.42-.27,17.43,17.43,0,0,1,5.91-1.65,6.18,6.18,0,0,1,2.53,0,6.46,6.46,0,0,1,2,1.06l4.54,3.18a33,33,0,0,0,5.85-2.49c.78-.39,1.55-.78,2.34-1.14,6.49-3,11.52-2.78,15,.73a4.3,4.3,0,0,1,.41.46c2.28,3.09,2.07,6.27,1.56,9l-.16.84c-.46,2.37-.62,3.17.49,5.43.24.5.5,1,.76,1.46a23.37,23.37,0,0,1,1.54,3.26,24.76,24.76,0,0,1,1.32,10.76,15.75,15.75,0,0,1-.34,1.87c-.42,1.88-.49,2.61.45,3.35a5.68,5.68,0,0,0,2.4.62,12.25,12.25,0,0,1,2,.36,6.72,6.72,0,0,1,4.86,4.83,6.06,6.06,0,0,1-2.37,5.87,10.34,10.34,0,0,1-3.25,1.68,7.81,7.81,0,0,0-2.65,1.37A18.47,18.47,0,0,0,268.34,77l-.1.19a32.28,32.28,0,0,0-3.72,13.66,4.08,4.08,0,0,1-2.35,3.57,4.43,4.43,0,0,1-4.54-.63c-5.94-4.62-13.74-5.58-20.63-6.42l-.29,0a7.16,7.16,0,0,0-.57,1.18,8.42,8.42,0,0,0-.37,3.51c0,.64,0,1.3,0,2a20.32,20.32,0,0,1-.67,4.3c3.11,1.06,6,2.4,7.37,4.57,1.76,2.78.63,5.25-.36,7.43-.19.42-.39.85-.56,1.28-1,2.53-.73,5-.43,7.53a22.43,22.43,0,0,1,.11,6.57,19.69,19.69,0,0,1-2.27,5.59c-1.93,3.66-3,6-1.35,8.15a3.58,3.58,0,0,1,.75,3,7.4,7.4,0,0,1-.45,3.89,11.72,11.72,0,0,1-1,2l-.17.27a4.1,4.1,0,0,1,.89,2,4.23,4.23,0,0,1-1.08,3.44l-1,1.14a3.81,3.81,0,0,1-2.62,1.32l-.26.2a5.13,5.13,0,0,1,1.58,2.09,8.14,8.14,0,0,1,.28,3.74c0,.34-.06.66-.06,1V164a4.55,4.55,0,0,1,1.53-1,4,4,0,0,1,4.19.77c.46.4,1,.9,1.55,1.45s1.45,1.4,2.24,2.07a4,4,0,0,1,2.38,0l.2.06a11.71,11.71,0,0,0,3,.59,3.42,3.42,0,0,1,.16-.65,9.33,9.33,0,0,1,8.56-6.34h.11a4.08,4.08,0,0,1,4.29,1.74l3.29,4.85c.27.39.54.78.8,1.18a3.56,3.56,0,0,1,1.7.73,5.93,5.93,0,0,1,3,7c-.6,2,.06,2.51,1.66,3.83a11.27,11.27,0,0,1,4,5.31,37,37,0,0,1,1.18,4.75,25.39,25.39,0,0,0,1.59,5.68l.12.25.27.6h0a4.41,4.41,0,0,1,.24,3.73c-.84,1.75-2.68,2-4,2.2a6,6,0,0,0-1.8.42,5.07,5.07,0,0,0-1.19,1.08,4.71,4.71,0,0,1-7,1,9.15,9.15,0,0,0-1.4-.67,3.37,3.37,0,0,0-2.77.17c-1.63.87-3.13,3.3-4.14,6.71.08.32.16.65.21,1l.22.35a15,15,0,0,1,1.71,3.26c.86,2.53.53,4.77-.22,7.35a4.08,4.08,0,0,1-.22.59c0,1.33,0,2.76-.09,4.44a18.86,18.86,0,0,0,2.15,3.09c.29.34.6.68.9,1,1.34,1.47,2.86,3.15,3.38,5.36.82,3.54-1.27,6.87-3.5,8.8a27.5,27.5,0,0,1-5.39,3.39c-.69.36-1.37.72-2,1.1-3.08,1.76-5,3.65-5.95,5.8s-.65,5.31,1.39,6.69a9.6,9.6,0,0,0,2.2,1,13,13,0,0,1,2.61,1.13,5.32,5.32,0,0,1,2.46,3.83,3.33,3.33,0,0,1-1.06,2.85c-1.18,1.07-2.8,1.06-4.09,1.07a4.65,4.65,0,0,0-1.71.17,2,2,0,0,0,0,.81,5.81,5.81,0,0,1,.09,1.36,3.68,3.68,0,0,1-1.53,2.67,5,5,0,0,1-3.92.86,9.81,9.81,0,0,1-4.08-2.43c-1.67-1.4-2.75-2.23-4-1.79a5,5,0,0,0-1.44,1,5.61,5.61,0,0,1-5.22,1.77,4.61,4.61,0,0,0-1.65,0c-1.13.36-1.52,1.85-2,4.08-.09.42-.18.84-.28,1.23-.78,3.18-2.69,5.88-4.37,8.27l-15.79,22.41a6.18,6.18,0,0,1-4.94,3,6.47,6.47,0,0,0-2,.5,15.32,15.32,0,0,0-3.44,2.6c-.51.46-1,.92-1.52,1.33l-.38.31c-2,1.59-2.41,2.13-2,3.18a9.87,9.87,0,0,0,2,2.59,15,15,0,0,1,2.22,2.69,12.43,12.43,0,0,1,1,2.29,32,32,0,0,1,2.64,4.37Zm-6.86-5.2.05,0-.56-2,.22.13a9.7,9.7,0,0,0-.87-1.95,12.84,12.84,0,0,0-1.81-2.16,11.92,11.92,0,0,1-2.6-3.45c-1.34-3.16,1-5.09,2.79-6.49l.37-.3c.47-.38.94-.81,1.41-1.24A17.36,17.36,0,0,1,198.8,315a9.14,9.14,0,0,1,2.8-.74,3.48,3.48,0,0,0,3-1.81l15.79-22.41c1.61-2.29,3.28-4.66,3.93-7.31.09-.37.17-.76.26-1.15.5-2.36,1.13-5.29,3.9-6.18a6.81,6.81,0,0,1,2.75-.17,3,3,0,0,0,3.11-1.07,7.18,7.18,0,0,1,2.4-1.58c2.87-1,5,.84,6.78,2.3a7.83,7.83,0,0,0,2.85,1.83,2.14,2.14,0,0,0,1.63-.36.87.87,0,0,0,.4-.62,3.59,3.59,0,0,0-.07-.71,4.21,4.21,0,0,1,.08-2.15c.76-2.11,3-2.11,4.41-2.1a4,4,0,0,0,2.18-.33c.05,0,.17-.16.14-.49a2.5,2.5,0,0,0-1.12-1.67,10.67,10.67,0,0,0-2.06-.87,11.86,11.86,0,0,1-2.86-1.29c-3.42-2.3-3.79-7-2.41-10.16,1.17-2.73,3.51-5.07,7.15-7.14.7-.4,1.41-.77,2.13-1.15a25,25,0,0,0,4.85-3c1.53-1.33,3.13-3.7,2.6-6a10,10,0,0,0-2.71-4.09c-.33-.36-.65-.71-1-1.07a21.8,21.8,0,0,1-2.68-3.94l-.19-.35,0-.4c.11-1.93.15-3.51.1-5v-.41l.21-.35a1.42,1.42,0,0,0,.15-.33,8.87,8.87,0,0,0,.26-5.64,12.66,12.66,0,0,0-1.42-2.65l-.55-.87,0-.3a7.65,7.65,0,0,0-.28-1.27l-.13-.4.12-.41c.88-3.12,2.56-7.19,5.65-8.83a6.15,6.15,0,0,1,5-.36,11.35,11.35,0,0,1,1.86.87,2.1,2.1,0,0,0,3.53-.41,7.31,7.31,0,0,1,2-1.68,8.2,8.2,0,0,1,2.73-.72c1-.14,1.7-.26,1.87-.61s-.09-.94-.28-1.38h0l-.25-.54-.12-.26a27.85,27.85,0,0,1-1.8-6.31,34.63,34.63,0,0,0-1.08-4.39,8.64,8.64,0,0,0-3.16-4c-1.74-1.43-3.71-3.06-2.57-6.83a3.06,3.06,0,0,0-1.52-3.67l-.21-.09-.18-.15a.68.68,0,0,0-.5-.21l-.71.11-.51-.51a3.5,3.5,0,0,1-.52-.62c-.29-.47-.6-.92-.92-1.37l-3.31-4.88a1.26,1.26,0,0,0-1.45-.54l-.2.05h-.2a6.4,6.4,0,0,0-6.09,4.45.8.8,0,0,0,0,.42l.15.75-.55.53c-1.35,1.31-3.91.8-6.23.12l-.18-.05a1,1,0,0,0-1,.12l-.86.63-.84-.65a38.76,38.76,0,0,1-3.16-2.83c-.52-.5-1-1-1.44-1.35a1.24,1.24,0,0,0-1.33-.26,1.56,1.56,0,0,0-1,1.12l-.12.93-4.35,1.2.13-5.55c0-.35,0-.73.07-1.13a6.36,6.36,0,0,0-.08-2.43,3.11,3.11,0,0,0-1.94-1.62l-1.95-.81,1.49-1.5a21.3,21.3,0,0,1,2.42-2l.45-.33.55.06a.9.9,0,0,0,.82-.38l1-1.14a1.39,1.39,0,0,0,.38-1.14,1.27,1.27,0,0,0-.61-.91l-1.24-.76.79-1.22a6.69,6.69,0,0,1,.33-.63l.4-.66a9.42,9.42,0,0,0,.81-1.5,4.51,4.51,0,0,0,.25-2.61l-.09-.4.13-.38c0-.09.11-.32-.21-.73-2.85-3.71-.76-7.69,1.09-11.2a17.61,17.61,0,0,0,2-4.73,20,20,0,0,0-.13-5.77c-.33-2.81-.68-5.72.61-8.93.19-.47.4-.94.61-1.4.95-2.08,1.44-3.32.54-4.74-1.23-1.94-5.38-3.26-7.16-3.82l-1.37-.43.45-1.36a18.19,18.19,0,0,0,.94-4.91c0-.63,0-1.23,0-1.82a11,11,0,0,1,.55-4.6A10.87,10.87,0,0,1,235,84.79l.73-1,1.08.58a1.49,1.49,0,0,0,.53.17c6.89.84,15.47,1.9,22,7a1.61,1.61,0,0,0,1.63.28,1.25,1.25,0,0,0,.69-1.16,35.54,35.54,0,0,1,4.06-14.84l.1-.19a20.42,20.42,0,0,1,3.74-5.43,10.25,10.25,0,0,1,3.58-1.93,7.83,7.83,0,0,0,2.41-1.19A3.3,3.3,0,0,0,277,64a3.93,3.93,0,0,0-2.9-2.69,10.24,10.24,0,0,0-1.51-.26,7.46,7.46,0,0,1-3.8-1.21c-2.42-1.92-1.86-4.39-1.46-6.2a13.29,13.29,0,0,0,.29-1.54,21.91,21.91,0,0,0-1.17-9.52,20.83,20.83,0,0,0-1.37-2.86c-.28-.51-.55-1-.81-1.56-1.53-3.12-1.23-4.67-.73-7.22l.16-.82c.48-2.55.48-4.68-1.06-6.76a1.08,1.08,0,0,0-.12-.12c-2.58-2.63-6.42-2.68-11.77-.18-.76.35-1.51.73-2.26,1.11A32.35,32.35,0,0,1,241.41,27l-.62.14-5.59-3.92a4.2,4.2,0,0,0-1.14-.65,3.86,3.86,0,0,0-1.41,0,14.55,14.55,0,0,0-5,1.34,14.22,14.22,0,0,0-2,2.83c-1.48,2.41-2.64,4.31-4.38,4a3.2,3.2,0,0,1-.66-.21L219.27,30l.65-1.33c.68-1.39,1.34-2.63,2-3.8a3.71,3.71,0,0,0,.5-2.44l-.09-.66.52-.57a6.25,6.25,0,0,0,.44-.51,3.92,3.92,0,0,0-.92-.83,9,9,0,0,0-5.25-1.5c-.66,0-1.34-.09-2.05-.19A19,19,0,0,1,211.23,17a17,17,0,0,0-3.17-.93,42.57,42.57,0,0,0-16.41,1.72A4,4,0,0,0,189,20.87c0,.17,0,.33,0,.5a6.5,6.5,0,0,1,0,1.11,6,6,0,0,1-.82,2.14,20.57,20.57,0,0,1-4,5c-2.83,2.59-5.35,5.15-8,7.86-1.44,1.46-2.88,2.93-4.38,4.41A13.23,13.23,0,0,0,168,53.57h0l-2.78.55h0a1.16,1.16,0,0,0,.44.72c-1-.59-7.06-1.81-8.09-1.73a7.45,7.45,0,0,0-2.8,1.43A10.05,10.05,0,0,1,151,56.39l-.06.13-.88,0c-3,.11-5.13-1.23-7.23-2.52l-1.23-.74a6,6,0,0,1-1.75-1.38c-1.43-1.79-.83-4-.34-5.77l.16-.6a3.24,3.24,0,0,0-.22-2.37.31.31,0,0,0-.27-.17l-3.36-.23,2.51-2.25c2.24-2,4.78-4.27,5.82-7.15.89-2.47.3-5.84-2-6.93l-.12-.05c-.08.11-.19.28-.27.4s-.21.33-.32.48A2.9,2.9,0,0,1,139,28.5a2,2,0,0,1-1.67-1.07l-.2-.37,0-.42c.13-1.56-.77-3.13-1.86-4.88l-.63-1c-2-3.26-3.61-5.83-6.91-7.68a5.8,5.8,0,0,0-5.79-.28c-2.13,1.35-2.51,4.27-2.92,7.36-.15,1.13-.3,2.3-.55,3.41a16.74,16.74,0,0,1-7.6,10.61,3.89,3.89,0,0,1-1.76.65,3.45,3.45,0,0,1-3.28-2.19c-.89-1.95-.58-4.31.92-7,.2-.35.41-.71.61-1.06a10.26,10.26,0,0,0,1.65-3.87c.29-2.71-2-5.23-4-7.12-1-1-4.52-3.94-6.82-2.46-1,.62-1.47,1.9-2,3.25-.16.39-.31.78-.48,1.15-.77,1.75-2,4.07-4.13,4.1h0c-2.43,0-3.9-3.08-5.32-6.05-.3-.64-.61-1.28-.91-1.84A82.59,82.59,0,0,0,73.54,32.27c-1.89,4.76-2,8.1-.28,10.23A9.94,9.94,0,0,0,74.79,44L75,44l.91.2L76,45a10.54,10.54,0,0,1,1,.94C79.72,49,79.8,53,79.88,57c0,1,0,2,.1,2.9L80.61,62q.58,1.9,1.16,3.79a5.76,5.76,0,0,0,.57.59,12.45,12.45,0,0,0,3.66,2,14.5,14.5,0,0,1,4.53,2.57c2.64,2.44,3.52,6.67,2.23,10.76a23.94,23.94,0,0,1-4.31,7.46A9.15,9.15,0,0,1,92,95.26c.15.79.25,1.59.35,2.37a13.62,13.62,0,0,0,1.18,4.8,10.38,10.38,0,0,0,2.34,2.71c.35.31.71.61,1.06.91a21.35,21.35,0,0,1,3.21,3.12,6.64,6.64,0,0,1,.75,1.23,14.53,14.53,0,0,1,1.78,1.08,3.22,3.22,0,0,1,2.63.79c2.52,2.24,6.69,6.64,6.25,10.95-.22,2.15-1.51,3.91-3.83,5.24-5,2.88-7.61,5.47-7.88,7.9-.19,1.69.77,3.52,2.85,5.42,2.59,2.38,5.44,4.63,8.19,6.81,1.37,1.09,2.74,2.17,4.08,3.27a3,3,0,0,1,.85,3.14l-.14.39c-1.49,4.23-3.18,9-1.94,13.15,1.17,3.9,4.45,5.12,8.25,6.53l1,.36c5.92,2.24,6.32,8.28,6.63,13.14l.06.91a58.27,58.27,0,0,1-.35,11.54c-.12.91-.32,1.83-.51,2.71a25.07,25.07,0,0,0-.53,3c-.21,2.43.48,3.24,2,5,.29.34.59.7.91,1.1.56.7,1.11,1.44,1.67,2.2,3.41,4.62,6,7.55,10.38,6.19,4.65-1.44,7.7-5.73,9.11-8.16a3,3,0,0,1,3.13-1.44,2.87,2.87,0,0,1,2.44,2.23l3.62,16.21c.54,2.42.75,2.85,2.36,3.51l1.13.43a13.28,13.28,0,0,1,3.5,1.74c6.38,4.66,7.1,12.24,7,17.68a2.86,2.86,0,0,1,.18,1.49l-.29,2.21a3.07,3.07,0,0,1,.24.72,6.81,6.81,0,0,0,2.08-.56,3,3,0,0,1,3.52,1.23,6.39,6.39,0,0,1,.45.72,29.24,29.24,0,0,0,10-2.52,3.09,3.09,0,0,1,4,1.13c1.35,2.18,4.95,8,1.22,12.57a8,8,0,0,1-3.77,2.28,5.06,5.06,0,0,0-2.52,1.45c-.69,1-.57,1.58-.42,1.95.62,1.49,3.56,2.85,6.06,3.3a2.74,2.74,0,0,1,1.8,1.21,3.28,3.28,0,0,1,.46,2.49c-1.44,6.38-6.68,9.52-13.69,8.19a8.47,8.47,0,0,0-7.28,1.87,13.08,13.08,0,0,0-4.19,10.15c0,1.78.21,1.82,1.54,2.16a9.54,9.54,0,0,1,3.13,1.28c3.72,2.47,4.9,7.39,5.93,11.74a28.81,28.81,0,0,0,2,6.24,22.63,22.63,0,0,0,1.84,2.93l.53-1.25,1.49,1.39a6.1,6.1,0,0,1,1.92,4.23C192.77,333.12,194,334.2,195.65,335.52Z"/></svg>