<svg id="Layer_1" data-name="Layer 1" xmlns="http://www.w3.org/2000/svg" viewBox="0 0 350 350"><defs><style>.cls-1{fill:#999;}.cls-2{fill:#f90;}</style></defs><title>M</title><path class="cls-1" d="M342.2,166.86a6.93,6.93,0,0,0-9.24-4.71c-.38.13-.75.45-1.17.05a1,1,0,0,1,1-1c3.1-.44,3.42-2.52,3.07-5-.1-.75,0-1.55-.14-2.28-.42-2,0-4.33-1.6-5.77a31.82,31.82,0,0,1-3.31-3.92,4.39,4.39,0,0,0-2-2.35,2.08,2.08,0,0,1,.1-2c1.88-4.18,4.27-7.9,8.17-10.49a2,2,0,0,0,.8-1.8A23.53,23.53,0,0,1,339,121c.73-2.74-.6-6.35-2.54-7.21-.91-.4-2.15-.38-2.17-1.74s1.12-2,2.2-2.52c2.37-1.19,3.83-3.28,3.46-5.75-.44-2.91,1.38-6.17-1.25-8.76-.16-.15,0-.65,0-1a2.15,2.15,0,0,0-1.36-2.47,16.22,16.22,0,0,1-7.6-9.4c-1.54-4.72-.94-4.38-6.7-4.19a12.84,12.84,0,0,1-1.51.18c-3.61-.33-7.25-.61-10.18-3.18-3.73-3.26-7-2.76-9.68,1.48a11.32,11.32,0,0,0-.72,1.35c-.42.93-1.21.87-2,.86q0,.78.12,1.56A2.13,2.13,0,0,0,298,80a6,6,0,0,0-2.26.43,2.46,2.46,0,0,0-2.65-1,6.7,6.7,0,0,0,0-1.06,4.77,4.77,0,0,0-.71-2.21c-1.29-1.89-3.61-2.16-5.64-1.47a8.76,8.76,0,0,0-5.15,5c-.65,1.42-.93,3-1.82,4.3-1.29,1.9-2.34,1.61-4.49,1.71a2.29,2.29,0,0,0-1.71,3.73c-1.71,1.38-4.16,2.1-4.24,4.91,0,1.29.73,2.54,1.08,3.77a35.81,35.81,0,0,1,1.07,5.35c-1.15.14-2.32.21-3.47.34l-.21,0a16.66,16.66,0,0,0-3.7.6,2,2,0,0,0-.46.19,2.5,2.5,0,0,0-.3-.14,2.69,2.69,0,0,0-.64-1.78l-.06-.07-.26-.37-.39-.56a19.91,19.91,0,0,0-1.24-1.66,8,8,0,0,0-3.44-2.31,1.89,1.89,0,0,0-1.26,0,2.57,2.57,0,0,0-.55-.27L251,95.9l0-.07-.07-.19a2.62,2.62,0,0,0-1.08-1.36,2.39,2.39,0,0,0-1-1.29c-.34-.22-.7-.41-1.06-.61l-.45-.26-.06,0,0,0a2.46,2.46,0,0,0-1.91-.63,46.3,46.3,0,0,1-4.6-1.87,17.7,17.7,0,0,0-4.7-2.79,13.66,13.66,0,0,0-.79-5.44c-1.3-3.14-4.46-4.63-6.24-7.39a2.17,2.17,0,0,0-2.08-1,39.1,39.1,0,0,0-6.8-9.24,2.25,2.25,0,0,0-1-.57,2.13,2.13,0,0,0-2.19-2.17,2.47,2.47,0,0,0-.33,0,2.08,2.08,0,0,0-1.13-.73,16.65,16.65,0,0,0-3.7-.6,2,2,0,0,0-.48.05,2.34,2.34,0,0,0-1.7.46l0,0h0a2.29,2.29,0,0,0-2.1,2.25,2.48,2.48,0,0,0,.16.74,2.21,2.21,0,0,0-.16.81c0,.55,0,1.11,0,1.67,0,.17,0,.34,0,.51,0-.1-.09.49-.11.57a2.43,2.43,0,0,0,0,.75,2.22,2.22,0,0,0-.4.31A16.87,16.87,0,0,0,204.89,70h-.18c-1.09.17-3,1.19-3.93.49h0A18.94,18.94,0,0,0,199.3,65a2.16,2.16,0,0,0-.63-1.62,10.07,10.07,0,0,0-2.87-2.06c-.27-.14-.55-.28-.84-.4-1.39-.62-2.86-1.11-4.25-1.77a2.34,2.34,0,0,0-1.15-.23,2.13,2.13,0,0,0-.76-.95,2.64,2.64,0,0,0-.35-.61,2.19,2.19,0,0,0-.64-1.47A9.92,9.92,0,0,0,186,54.37c-1-2.59-1-5.23-2.84-7.52a2.16,2.16,0,0,0-2.52-.46,2.33,2.33,0,0,0-1.68-1c-3.77-.44-7.56-.55-11.28-1.31a2.3,2.3,0,0,0-3-.7,2.33,2.33,0,0,0-.82,3.12l1.07,2.13a20.17,20.17,0,0,0-1.84,2.8,2.53,2.53,0,0,0-.23.69,2.07,2.07,0,0,0-.86,1.75v7.58a4.1,4.1,0,0,1-.91.3l-.06,0c-3.87-2.29-8.05-1-10,3.1s-.28,9.14.42,13.68a3.24,3.24,0,0,1-.91.49,3.74,3.74,0,0,0,2.18-2.22A2,2,0,0,1,155,75.3c1.14.2,1.45,1.09,1.58,2.05.29,2.19.51,4.39.79,6.58.46,3.61,1.76,6.73,5.09,8.67,1.47.86,1.93,1.77.84,3.49-1.73,2.72-2.25,5.88-.4,8.69,1.46,2.22,1.84,4.75,2.68,7.14a29.5,29.5,0,0,1,.29,3,1.73,1.73,0,0,1-.45.19c-2.17.59-2.54,2.23-2.51,4.16,0,1.25.35,2.84-1.05,3.44-3,1.3-3,5.21-6,6.62-.84.4-.33,1.54.15,2.29.78,1.21,1.3,2.57,2,3.8,1.94,3.52,1,7.94,3.75,11.17.87,1,.2,1.77-1.08,1.7a8.12,8.12,0,0,1-2-.47c-1.75-.56-3-.36-3.3,1.81a4.87,4.87,0,0,1-1.49,2.61,5.16,5.16,0,0,0-.24,7.14c.37.48,1.34.74.82,1.62-.34.57-1,.51-1.61.58-3.59.45-3.61.54-4,4.21-.26,2.52-.8,4.94-4,5.33a2.44,2.44,0,0,0-2.1,2,8.32,8.32,0,0,1-3.2,4.49c-1.65,1.27-2.69,2.52-.8,4.47-2.28.79-4.1-.22-6-.52-3.11-.5-5.66.94-5.59,3.2s-1.66,3.47-3.59,2.32c-1.39-.83-2.4-1-3.49.44a4.09,4.09,0,0,1-2,1.1,4.34,4.34,0,0,0-3.24,4.61,15.17,15.17,0,0,1-.27,2.53c-.33,1.9-1.58,2.35-3.2,1.73a9.2,9.2,0,0,1-2.3-1.56c-.8-.64-1.5-1.44-2.69-.91s-1.17,1.53-1.27,2.57a19.91,19.91,0,0,1-1.87,7.61c-1.69,3.18-4.27,5.73-6.09,8.8-1.71,2.89-4.1,4.19-7.42,3.69a3.11,3.11,0,0,0-3.11,1.16,8.73,8.73,0,0,1-11.54.74,22.69,22.69,0,0,0-5.29-3c-2-.92-3.06-.1-3.21,1.79-.22,2.76-1.71,3.33-4.22,3.55-5.74.5-11.37,1.34-16,5.48-1.21,1.07-2.26,2.86-4.09,3.11-1.55.22-2.12,1.2-2.66,2.4a13.34,13.34,0,0,0-1.17,5.68c0,3,.19,6.18-1.75,8.83-1.52,2.07-1.1,3.58,1.07,4.79a5.88,5.88,0,0,1,1.41,1.08c.92,1,.78,4.44-.25,5.48-1.34,1.36-2.54.36-3.6-.44a3.82,3.82,0,0,0-3.09-.77c-5,.78-8.19,4.53-11.75,7.59A2.52,2.52,0,0,0,20,267a12,12,0,0,1-1.13,6.13,5.82,5.82,0,0,0-1.2,2.16c-.11.18-.22.35-.34.53a3.39,3.39,0,0,0-.61,1.91,3.72,3.72,0,0,1-1.82,3.67c-3.1,1.72-4.44,4.22-4.85,7.79-.23,1.95-.26,3,1.54,3.83,1.09.51,2.87.77,2.6,2.33-.23,1.35-1.84,1.84-3.08,2.39-.23.1-.51.08-.74.18-1.54.61-2.88,1.67-2.54,3.37.41,2,1.13,4.17,3.48,5a1.32,1.32,0,0,0,1.16-.24c1.29-1.58,2.66-.72,3.87-.06a7,7,0,0,0,7.27-.16,57.42,57.42,0,0,1,9.52-4.22c.74-.27,1.73-.56,1.69-1.35-.2-3.87,4.05-7.27.75-11.45.86-.09,1.27-.16,1.68-.17,4.45-.06,8.31-.62,8.38-6.56,0-1.7,1.48-2.84,3.76-3,4.22-.23,8.51-.7,11.54-4.37a12.43,12.43,0,0,1,2.46-1.8,1.75,1.75,0,0,1,2.15-.22c1.88,1.54,4.43,1.38,6.42,2.89,3,2.29,5.17,1.47,6.68-2,.48-1.12,1.33-1.76,2.38-1.35a3.15,3.15,0,0,0,3.8-1.12c.79.84.33,2.5,1.71,2.45A3.23,3.23,0,0,0,89,271.6a3.32,3.32,0,0,1,2.07-1.74A16.36,16.36,0,0,0,95.5,268c1.55-1,4.29-.38,4.65,1.09s1.77,2.48,2.21,4a1.52,1.52,0,0,0,2.26,1c2.86-1.23,5.15-.31,7.26,1.68a2.55,2.55,0,0,0,2.9.25c3.38-1.56,6.71-3.23,10-4.87A1.88,1.88,0,0,0,126,269.5c.14-2.62.5-5.25-.93-7.71-1.09-1.87.54-5.74,2.63-6.3a41.84,41.84,0,0,1,5.47-1.15c1.24-.16,2.33-.3,3-1.51.54-1,1.42-.82,2.42-.85a8.67,8.67,0,0,1,7.06,3.33,3,3,0,0,0,3.65,1c1.58-.69.74-2,.71-3.13,0-.39,0-.81,0-1.24a5.84,5.84,0,0,0,1-1.26c.44-.75.84-1.52,1.23-2.29a8.12,8.12,0,0,1,3,2.38c1.44,1.53,3.22,2.23,5.06,1.49,2.79-1.13,5.78-2.31,5.87-6.18a11.94,11.94,0,0,1,.66-3.24c.72-2.27.87-4.67,1.54-6.91.78-2.56,3.22-2.32,5.51-2.83,3.71-.83,6.76-1.23,9.94,1.49,1.89,1.62,5.31,0,5.34-2.16.06-3.6,1.85-5.3,5.51-5.21,3,.07,3.59-.31,3.52-3.44,0-1.87.71-2.48,2.33-2.5,1.9,0,3.23-.67,3.76-2.69a3.56,3.56,0,0,1,2.12-2.43c2.38-.93,4.59-2.46,7.45-1.31a21.79,21.79,0,0,0,5.25,1c5.54.73,5.85.46,5.9-5,0-4.09,1.48-5,5.41-3.64a5.79,5.79,0,0,1,2.33,1.48,6,6,0,0,0,1.79,2.85c.35.75.66,1.53,1,2.27.48,1,.68,2.26,2.15,2.07s1.93-1.2,2.15-2.67l.08-.49a5.66,5.66,0,0,0,2-1.28l1-.93.73.26c.47.17,1,.09,1.5.27,1.4.54,2.92.9,3.45,2.65.37,1.22,1.29,1.5,2.58,1.53,3.85.11,6.61-2,9.19-4.36,1.72-1.57,3.53-1.28,5.16-.5,3.75,1.8,3.91,1.87,6.38-1.33a3.75,3.75,0,0,1,1.26-1.22c1.93-.84,1.5-2,.84-3.54-.44-1-2.38-1.8-.91-3.21a17.16,17.16,0,0,1,3.39-2.2,4,4,0,0,1,1.25-.21c1.58-.28,2-1.2,1.79-2.76-.44-2.69-1-5.21-4-6.29-.46-.17-1.11-.45-1-1,.24-1.95,1.56-3.35,2.74-4.77.81-1,1.93-.79,3.06-.4,2.81,1,5.43-.41,5.85-3.33.28-1.92,1.36-2.94,2.63-4.12a6.12,6.12,0,0,1,.82-.63c1.06-.47,2.14-.93,3.21-1.39a14.22,14.22,0,0,0,2.83-1.19l2.17-.88a1.65,1.65,0,0,1,0,.68,1.75,1.75,0,0,0,1,2.1c3.11,1.5,12.62-.78,13.83-4.47.94-2.86,3.46-3.32,5.57-1.1s4.87,2.17,7.45,2.83a1.54,1.54,0,0,0,1.62-2.58c-.29-.38-.88-.73-.56-1.29a1.05,1.05,0,0,1,1.38-.27c3.79,1.69,8,.25,11.81,1.47A1.87,1.87,0,0,0,342.2,166.86Z"/><path class="cls-2" d="M19.77,308.34a8.61,8.61,0,0,1-4.16-1.13l-.17-.09c-1.44-.79-1.54-.67-1.92-.19a2.67,2.67,0,0,1-2.71.69c-3.06-1-4-3.75-4.43-6s.82-3.93,3.41-5a2.9,2.9,0,0,1,.67-.17l.11,0,.42-.19c.71-.3,1.68-.71,1.75-1.11a3.46,3.46,0,0,0-1-.48c-.29-.11-.56-.21-.81-.33C8.13,293,8.37,290.9,8.59,289c.5-4.27,2.22-7,5.57-8.86.53-.29,1.14-.83,1.09-2.39a4.76,4.76,0,0,1,.86-2.76l.21-.32h0a7.27,7.27,0,0,1,1.29-2.31,10.51,10.51,0,0,0,.92-5.25,3.87,3.87,0,0,1,1.07-3.08c.64-.56,1.28-1.13,1.91-1.71,3-2.71,6-5.5,10.55-6.21a5.26,5.26,0,0,1,4.16,1l.12.09c1.2.91,1.28.83,1.62.48a4.77,4.77,0,0,0,.21-3.53,4.47,4.47,0,0,0-1.05-.79,4.8,4.8,0,0,1-2.62-3,4.74,4.74,0,0,1,1.1-3.82c1.55-2.11,1.52-4.7,1.48-7.44v-.54a14.76,14.76,0,0,1,1.29-6.28,4.73,4.73,0,0,1,3.76-3.23,4.46,4.46,0,0,0,2.27-1.68,15,15,0,0,1,1.08-1.09c5.06-4.47,11.1-5.33,16.86-5.83,2.42-.21,2.8-.67,2.93-2.25a3.61,3.61,0,0,1,1.66-3.07,3.7,3.7,0,0,1,3.58.11l.71.33a20.6,20.6,0,0,1,4.89,2.86c2.61,2.21,7.34,1.91,9.56-.59A4.52,4.52,0,0,1,90,216.28c2.68.4,4.52-.53,6-3A42.74,42.74,0,0,1,99,209.13a33.58,33.58,0,0,0,3.15-4.61,18.52,18.52,0,0,0,1.71-7.09l0-.2a3.74,3.74,0,0,1,2.09-3.53,3.45,3.45,0,0,1,3.89.89l.56.46a6.66,6.66,0,0,0,1.62,1.1,1.35,1.35,0,0,0,1,.13c.1-.06.25-.3.33-.78a13.94,13.94,0,0,0,.25-2.29,5.75,5.75,0,0,1,4.23-6c1-.3,1.21-.53,1.28-.62,2.11-2.72,4.54-1.27,5.34-.79a1.06,1.06,0,0,0,1,.17c.22-.13.45-.52.43-1.23a4.16,4.16,0,0,1,1.46-3.3,7.09,7.09,0,0,1,5.77-1.34,17.2,17.2,0,0,1,1.68.38,12.65,12.65,0,0,0,1.75.38,3.18,3.18,0,0,1-.09-1,5.05,5.05,0,0,1,2.36-3.41,6.92,6.92,0,0,0,2.69-3.72,3.83,3.83,0,0,1,3.3-3c1.85-.22,2.47-1.14,2.77-4.07.42-4.15.81-4.91,5-5.45a6.54,6.54,0,0,1,.35-8.92,3.61,3.61,0,0,0,1.13-1.83,3.7,3.7,0,0,1,1.54-2.84,4.36,4.36,0,0,1,3.6-.14l.16.05c.28.09.55.18.81.25a14.58,14.58,0,0,1-2.06-6.15,14.19,14.19,0,0,0-1.28-4.51c-.29-.52-.54-1.06-.8-1.6a19.33,19.33,0,0,0-1.12-2.12,3.71,3.71,0,0,1-.74-3,2.15,2.15,0,0,1,1.16-1.36,5.86,5.86,0,0,0,2.28-2.69,8,8,0,0,1,3.75-4c.21-.09.27-.33.22-1.48,0-.22,0-.43,0-.63,0-1.17-.06-4.14,2.9-5.33,0-.59-.11-1.16-.19-1.72-.25-.71-.45-1.43-.66-2.13a16.34,16.34,0,0,0-1.82-4.57c-2-3-1.83-6.74.39-10.23.42-.67.38-.91.38-.91s-.06-.2-.74-.6c-3.34-1.95-5.18-5-5.78-9.71-.13-1-.25-2-.37-3.06s-.27-2.34-.42-3.51c-.1-.79-.25-.81-.41-.84-.33-.06-.51-.09-.8.62A5.91,5.91,0,0,1,152.91,79v.09l-.55.42a4.66,4.66,0,0,1-1.42.79l-.58-1.67-.38.06c-.14-.93-.33-1.89-.52-2.85-.77-3.92-1.57-8,.23-11.66a8.69,8.69,0,0,1,5.24-4.68,8.22,8.22,0,0,1,5.62.4v-6a3.5,3.5,0,0,1,1-2.54,3.54,3.54,0,0,1,.23-.55,17.9,17.9,0,0,1,1.44-2.29l-.68-1.36a3.73,3.73,0,0,1,1.32-4.94,3.59,3.59,0,0,1,2.75-.43,3.71,3.71,0,0,1,1.85,1,68.26,68.26,0,0,0,6.84.82c1.27.11,2.55.22,3.82.37a3.79,3.79,0,0,1,2,.81A3.38,3.38,0,0,1,184.29,46a13.49,13.49,0,0,1,2.28,5.33c.19.74.37,1.44.61,2.13a13,13,0,0,1,1.65,1.45,3.61,3.61,0,0,1,1,2l.12.21a3.56,3.56,0,0,1,.47.5,3.81,3.81,0,0,1,.92.31c.74.36,1.51.66,2.32,1,.63.25,1.27.5,1.88.77.29.12.61.27.93.44a11.28,11.28,0,0,1,3.23,2.34,3.57,3.57,0,0,1,1,2.27A18.67,18.67,0,0,1,202,69.31c.35-.08.82-.23,1.12-.33s.64-.2.94-.28a19.22,19.22,0,0,1,1.72-1.94h0a3.57,3.57,0,0,1,.07-.38l0-.14c0-.1,0-.2.06-.29s0-.28,0-.42c0-.47,0-.94,0-1.41V64a3.65,3.65,0,0,1,.1-.82,3.74,3.74,0,0,1-.09-.67,3.68,3.68,0,0,1,3-3.67,3.75,3.75,0,0,1,2.22-.57,3.35,3.35,0,0,1,.57,0,18,18,0,0,1,4,.64,3.47,3.47,0,0,1,1.33.66,3.5,3.5,0,0,1,3.25,2.6,3.79,3.79,0,0,1,.68.53,39.21,39.21,0,0,1,6.66,8.88,3.58,3.58,0,0,1,2.42,1.64A15.64,15.64,0,0,0,232.75,76a13.85,13.85,0,0,1,3.78,4.8,13.58,13.58,0,0,1,.9,5,20.14,20.14,0,0,1,4,2.53c1.32.64,2.72,1.17,4.06,1.65h0a3.89,3.89,0,0,1,2.56,1l.33.19.09,0c.36.2.72.39,1.07.62A3.81,3.81,0,0,1,251,93.37a4.11,4.11,0,0,1,1.09,1.39L256,96.05l.3.12a3.21,3.21,0,0,1,1.54.16,9.34,9.34,0,0,1,4,2.72,21.32,21.32,0,0,1,1.33,1.78l.64.92a4.42,4.42,0,0,1,.65,1.09,16,16,0,0,1,3.33-.47H268l1.54-.15.33,0a34,34,0,0,0-.82-3.71c-.1-.34-.24-.72-.4-1.11a7.79,7.79,0,0,1-.73-3.08c.08-2.88,2.1-4.19,3.57-5.15l.28-.18a3.72,3.72,0,0,1,.2-2.51,3.67,3.67,0,0,1,3.24-2.17l.91,0c1.48,0,1.79,0,2.48-1.06a10,10,0,0,0,1-2.33c.2-.58.41-1.18.68-1.77a10.15,10.15,0,0,1,6-5.73c2.91-1,5.76-.2,7.27,2A5.89,5.89,0,0,1,294.5,78a3.89,3.89,0,0,1,1.69.82,7.6,7.6,0,0,1,1.38-.21l-.05-1.32,1.6,0a2.85,2.85,0,0,0,.61,0,8.43,8.43,0,0,1,.77-1.52c1.56-2.49,3.4-3.9,5.46-4.2s4.18.51,6.35,2.41c2.51,2.2,5.72,2.49,9.11,2.81l.26,0a2.5,2.5,0,0,0,.45-.07,5.33,5.33,0,0,1,.89-.12l1.13,0c4.6-.17,5.33.07,6.64,4.21l.32,1a14.86,14.86,0,0,0,6.94,8.6,3.49,3.49,0,0,1,2.06,4l0,.11c1.78,2.1,1.53,4.5,1.32,6.46a10.79,10.79,0,0,0-.08,2.66c.45,2.93-1.17,5.69-4.22,7.23-1.19.6-1.43.8-1.42,1.23.13.06.35.13.51.17a7.47,7.47,0,0,1,.82.29c2.62,1.16,4.24,5.47,3.33,8.87a22.43,22.43,0,0,0-1,6.11,3.38,3.38,0,0,1-1.43,3c-3.17,2.11-5.53,5.16-7.67,9.9a2.17,2.17,0,0,0-.18.54,5.74,5.74,0,0,1,2,2.55l.56.72a21.71,21.71,0,0,0,2.46,2.86c1.52,1.39,1.69,3.33,1.83,4.89a13.77,13.77,0,0,0,.21,1.63,7.44,7.44,0,0,1,.13,1.56,6.4,6.4,0,0,0,0,.83,7.09,7.09,0,0,1-.51,4.39,8.22,8.22,0,0,1,6.81,6.11,3.38,3.38,0,0,1-.9,3.33,3.22,3.22,0,0,1-3.25.73,16.61,16.61,0,0,0-5-.5,20.41,20.41,0,0,1-5.4-.49,2.65,2.65,0,0,1-.14,2.26,3,3,0,0,1-3.61,1.42c-.58-.15-1.17-.26-1.76-.37-2.08-.39-4.43-.83-6.37-2.86a2.3,2.3,0,0,0-2-.93c-.51.12-1,.66-1.23,1.5-.7,2.13-3.06,3.52-4.92,4.31-3.33,1.42-8.27,2.25-10.87,1a3.15,3.15,0,0,1-1.75-2l-.23.09a15.57,15.57,0,0,1-3,1.24l-3,1.31a4.51,4.51,0,0,0-.54.42c-1.27,1.17-2,1.91-2.19,3.28a5.54,5.54,0,0,1-2.54,4,6.1,6.1,0,0,1-5.16.43c-1.2-.41-1.38-.19-1.51,0l-.35.42a8.9,8.9,0,0,0-2,3.12h0c3.91,1.43,4.5,5,4.89,7.39s-.68,4-2.94,4.39a5.49,5.49,0,0,1-.6.06l-.25,0-.66.37A11.66,11.66,0,0,0,274,202h0l.3.33a5.22,5.22,0,0,1,1.41,4.78,3.54,3.54,0,0,1-2.05,1.9,3.63,3.63,0,0,0-.64.71c-3,3.91-3.92,3.86-8.17,1.82-1.54-.74-2.58-.66-3.59.26-2.57,2.35-5.68,4.86-10.19,4.73a3.72,3.72,0,0,1-3.9-2.54c-.24-.8-.77-1.06-2.11-1.55l-.49-.18a2.61,2.61,0,0,0-.38-.05,4.52,4.52,0,0,1-1-.18l-.33.32a7.32,7.32,0,0,1-1.66,1.23,3.85,3.85,0,0,1-3.32,3.6c-2.29.3-3-1.52-3.41-2.39-.06-.16-.13-.31-.2-.46-.23-.47-.44-1-.66-1.44l-.27-.61a7.49,7.49,0,0,1-1.86-2.93,4.42,4.42,0,0,0-1.54-.9c-2.09-.72-2.74-.51-2.92-.38s-.58.63-.6,2.69c0,2.94-.11,4.8-1.38,5.9s-3.16.92-6.13.52l-1.13-.13a16.76,16.76,0,0,1-4.46-.92c-1.78-.72-3.23-.08-5.05.74-.45.2-.9.4-1.35.58a2.16,2.16,0,0,0-1.27,1.47c-.65,2.46-2.37,3.72-5.11,3.74-.65,0-.79.13-.8.14s-.15.17-.13.91c0,1.46,0,3-1,3.93s-2.37,1-4,1a4.25,4.25,0,0,0-3.11.85,4.11,4.11,0,0,0-.95,3,4.32,4.32,0,0,1-2.76,3.74,4.58,4.58,0,0,1-4.92-.52c-2.69-2.3-5.2-2-8.71-1.18-.5.11-1,.19-1.49.26-1.94.3-2.64.5-3,1.59a28.55,28.55,0,0,0-.7,3.19,30,30,0,0,1-.85,3.74,10.76,10.76,0,0,0-.6,2.85c-.12,4.76-3.91,6.3-6.67,7.42-2.33.95-4.74.28-6.7-1.79l-.15-.16a17.32,17.32,0,0,0-1.24-1.23c-.2.36-.39.7-.58,1a7.35,7.35,0,0,1-.76,1.08c0,.23,0,.46,0,.68a4.13,4.13,0,0,0,.1.62c.17.86.57,2.87-1.66,3.84a4.4,4.4,0,0,1-5.29-1.38,7.2,7.2,0,0,0-6-2.85h-.42a3.13,3.13,0,0,0-.75.05c-1.07,1.9-2.75,2.12-4.1,2.29a40.28,40.28,0,0,0-5.29,1.11,3.13,3.13,0,0,0-1.58,1.87,3,3,0,0,0-.19,2.35c1.5,2.57,1.32,5.28,1.17,7.67l-.05.83a3.28,3.28,0,0,1-2,2.77l-1.37.68c-2.84,1.4-5.77,2.85-8.7,4.21a3.91,3.91,0,0,1-4.47-.51c-2-1.87-3.69-2.29-5.73-1.41a3.16,3.16,0,0,1-2.62,0,3,3,0,0,1-1.56-1.91,4.9,4.9,0,0,0-.84-1.43,7.16,7.16,0,0,1-1.38-2.6,1.14,1.14,0,0,0-.63-.38,2.36,2.36,0,0,0-1.87.14,17.8,17.8,0,0,1-4.8,2.05,1.91,1.91,0,0,0-1.23,1.06c-1.17,2.13-2.66,2.63-3.7,2.67a2.31,2.31,0,0,1-2.37-1.57,4.26,4.26,0,0,1-3.71.15c-.22-.08-.44.27-.58.59-1,2.29-2.25,3.61-3.85,4s-3.19-.08-5-1.44a8.62,8.62,0,0,0-2.75-1.19,10.33,10.33,0,0,1-3.71-1.73s-.17.09-.42.27-.6.4-.91.6a5.44,5.44,0,0,0-1.28,1c-3.35,4.07-8,4.64-12.55,4.89-.56,0-2.4.23-2.42,1.56-.08,7.39-5.68,7.89-9.16,8,.87,2.44,0,4.67-.75,6.54a9.1,9.1,0,0,0-.91,3.59c.09,1.79-1.65,2.41-2.48,2.71l-.14.05A56.55,56.55,0,0,0,24.27,307,8.88,8.88,0,0,1,19.77,308.34ZM14,303.71a6,6,0,0,1,2.79.92l.16.09a5.51,5.51,0,0,0,5.88-.14,59,59,0,0,1,9.76-4.32l.16-.06c.16-.06.42-.15.59-.23a12,12,0,0,1,1.11-4.43c1-2.48,1.45-4,0-5.87l-1.6-2,2.57-.26.76-.08a10.06,10.06,0,0,1,1-.09c4.79-.06,6.93-.82,7-5.16,0-2.45,2.07-4.2,5.1-4.36,4.2-.23,7.89-.67,10.52-3.86a7.66,7.66,0,0,1,2-1.56c.25-.16.51-.32.75-.49a3.1,3.1,0,0,1,3.87-.17,7.79,7.79,0,0,0,2.75,1.22,11.08,11.08,0,0,1,3.63,1.64,3.52,3.52,0,0,0,2.56,1c.86-.23,1.55-1.44,2-2.42.84-1.94,2.48-2.77,4.19-2.12.77.3,1.34.26,2.25-.75l1-1.14,1.05,1.12a4,4,0,0,1,.88,1.82l0,.11a2.59,2.59,0,0,0,1.06-1.14,4.7,4.7,0,0,1,2.91-2.41,14.92,14.92,0,0,0,4.05-1.71,5.18,5.18,0,0,1,4.6-.35,3.45,3.45,0,0,1,2.21,2.29,4.74,4.74,0,0,0,.9,1.59,7.28,7.28,0,0,1,1.29,2.32.47.47,0,0,0,.07.16s.1,0,.27-.09c3.1-1.34,6-.7,8.79,2,.39.37,1.06.12,1.33,0,2.9-1.34,5.82-2.78,8.64-4.18l1.38-.68c.24-.12.37-.25.38-.38l.05-.86c.14-2.18.27-4.24-.79-6.06a5.62,5.62,0,0,1,0-4.85,5.72,5.72,0,0,1,3.46-3.53,43,43,0,0,1,5.65-1.18c1.23-.16,1.65-.26,2-.8a3.3,3.3,0,0,1,3.26-1.57h.36a10.11,10.11,0,0,1,8.16,3.81c.86,1,1.5.88,2,.65l.11-.06a4.43,4.43,0,0,0-.1-.64,6.26,6.26,0,0,1-.15-1.11c0-.25,0-.51,0-.78l0-1.07.45-.44a4.38,4.38,0,0,0,.74-1c.38-.66.77-1.38,1.19-2.22l.52-1,1.13.31a8.52,8.52,0,0,1,3.5,2.62l.15.16c1.16,1.23,2.34,1.62,3.5,1.15,3.08-1.25,4.92-2.14,5-4.9a13.2,13.2,0,0,1,.73-3.63,27.58,27.58,0,0,0,.76-3.39,31.09,31.09,0,0,1,.78-3.5c.88-2.9,3.41-3.29,5.26-3.57.43-.07.87-.13,1.3-.23,3.93-.88,7.49-1.35,11.17,1.8a1.83,1.83,0,0,0,1.91.09c.63-.28,1.09-.79,1.09-1.2a6.76,6.76,0,0,1,1.82-5,6.89,6.89,0,0,1,5.14-1.64,4.63,4.63,0,0,0,1.93-.14,4.77,4.77,0,0,0,.13-1.85,3.9,3.9,0,0,1,.93-2.95,3.75,3.75,0,0,1,2.81-1c1.66,0,2.13-.58,2.4-1.63a5,5,0,0,1,3-3.39c.42-.16.83-.35,1.24-.53,2-.91,4.37-1.94,7.26-.77a14.45,14.45,0,0,0,3.72.73l1.19.14c1.15.15,3.53.47,3.9.15s.39-2.66.4-3.79c0-1.74.24-3.88,1.8-5s3.76-.58,5.48,0a7.18,7.18,0,0,1,2.89,1.83l.25.26.09.35a4.57,4.57,0,0,0,1.37,2.16l.22.2.12.27.4.9c.2.45.4.9.61,1.34.1.2.18.41.27.62a4.23,4.23,0,0,0,.32.68h.1c.44-.06.73-.1.93-1.48l.21-1.32.77-.29a4.27,4.27,0,0,0,1.46-1l.65-.62,1-.91.81.27.77.27a2.65,2.65,0,0,0,.39.05,4.11,4.11,0,0,1,1.14.23l.45.17c1.34.49,3.17,1.16,3.85,3.4.09.3.15.49,1.26.53,3.1.09,5.43-1.46,8.19-4,1.88-1.72,4.15-2,6.73-.73a9.25,9.25,0,0,0,2.78,1.1c.35-.07,1.26-1.24,1.86-2a4.83,4.83,0,0,1,1.81-1.65,1.28,1.28,0,0,0,.55-.34,4.52,4.52,0,0,0-.44-1.32,3.67,3.67,0,0,0-.4-.47c-.55-.59-2.24-2.37-.19-4.33a13.93,13.93,0,0,1,3-2l.69-.39a3.11,3.11,0,0,1,1.42-.35l.29,0c.64-.11.81-.15.64-1.14-.48-2.93-1.07-4.46-3.07-5.19-1.79-.66-2.05-1.73-2-2.51a9.9,9.9,0,0,1,2.71-5.1l.33-.4c1.55-1.88,3.77-1.13,4.61-.85a3.25,3.25,0,0,0,2.77-.16,2.72,2.72,0,0,0,1.22-2c.35-2.43,1.73-3.71,3.07-5a7.59,7.59,0,0,1,1-.78l.2-.11c1.07-.47,2.15-.93,3.22-1.39l.11,0a13.21,13.21,0,0,0,2.55-1.06l.19-.09,2.19-.89,1.49-.6.41,1.56a3.06,3.06,0,0,1,.05,1.29c-.07.41,0,.45.25.56,1.34.65,5.28.33,8.53-1,1.81-.77,3.06-1.74,3.34-2.59a4.67,4.67,0,0,1,3.3-3.38,5,5,0,0,1,4.64,1.74c1.31,1.37,2.94,1.67,4.84,2,.65.12,1.3.24,1.94.41a.83.83,0,0,0,.39,0,2.42,2.42,0,0,0-.25-.38l-.13-.14a2.13,2.13,0,0,1-.53-2.72,2.41,2.41,0,0,1,3.19-.85,13.84,13.84,0,0,0,5.78.79,19,19,0,0,1,5.88.63.39.39,0,0,0,.43-.07.54.54,0,0,0,.13-.54h0a5.51,5.51,0,0,0-2.72-3.49,5.86,5.86,0,0,0-4.69-.26l-.12.05a2.09,2.09,0,0,1-2.49-.32l-.44-.42v-.61a2.41,2.41,0,0,1,2.21-2.38c1.62-.23,2.23-.76,1.87-3.45a9.18,9.18,0,0,1-.06-1.2,5.13,5.13,0,0,0-.06-1,16,16,0,0,1-.26-2c-.11-1.29-.21-2.4-.92-3a24.25,24.25,0,0,1-2.79-3.22l-.67-.87-.15-.19-.08-.23a3,3,0,0,0-1.37-1.59l-.32-.19-.18-.33a3.51,3.51,0,0,1,0-3.29c2.37-5.25,5-8.67,8.68-11.09.16-.1.17-.42.17-.59a24.94,24.94,0,0,1,1.13-6.89c.58-2.16-.51-5-1.74-5.55a4.64,4.64,0,0,0-.51-.18,3,3,0,0,1-2.5-2.85c0-2.29,1.84-3.23,3-3.78s3.1-1.84,2.72-4.28a13,13,0,0,1,.06-3.39c.22-2.07.29-3.4-.9-4.58a2.21,2.21,0,0,1-.36-2.2c.08-.37.13-.59-.64-1a17.64,17.64,0,0,1-8.26-10.2l-.33-1a7.69,7.69,0,0,0-.85-2.16,10.51,10.51,0,0,0-3-.08l-1.14,0a2.69,2.69,0,0,0-.43.07,4.15,4.15,0,0,1-1.26.11l-.26,0c-3.7-.34-7.52-.69-10.72-3.5-1.52-1.33-2.89-1.92-4.08-1.74s-2.37,1.15-3.47,2.91a10,10,0,0,0-.63,1.18A2.67,2.67,0,0,1,300.5,80v.13l.3,2.74-2.4-1.35a.67.67,0,0,0-.36-.09,4.6,4.6,0,0,0-1.73.33l-1,.43-.65-.92a1.09,1.09,0,0,0-1.13-.47l-1.84.49.06-2.13a3.88,3.88,0,0,0,0-.61,3.46,3.46,0,0,0-.48-1.59c-.94-1.37-2.69-1.38-4-.93a7.33,7.33,0,0,0-4.32,4.23c-.22.47-.39,1-.58,1.52a12.24,12.24,0,0,1-1.35,3c-1.51,2.23-3.09,2.27-4.76,2.31l-.84,0a.85.85,0,0,0-.8.5.89.89,0,0,0,.12.92l.89,1.1-1.11.89a16.66,16.66,0,0,1-1.43,1c-1.47,1-2.25,1.51-2.28,2.84a5.55,5.55,0,0,0,.54,2,14.29,14.29,0,0,1,.49,1.38,37.22,37.22,0,0,1,1.11,5.57l.17,1.41-1.41.17c-.62.07-1.24.13-1.85.18l-1.63.16-.14,0-.28,0a15.63,15.63,0,0,0-3.32.56l-.13.06-.65.35-.78-.39-1-.34,0-1.07a1.3,1.3,0,0,0-.32-.83l-.05-.07h0l-.08-.09h0l-.65-.93a18.72,18.72,0,0,0-1.16-1.54,6.58,6.58,0,0,0-2.85-1.9.52.52,0,0,0-.32,0l-.64.22-.57-.36a1.18,1.18,0,0,0-.24-.12l-5-1.68-.45-1a1.2,1.2,0,0,0-.49-.62l-.45-.28-.16-.5a1,1,0,0,0-.41-.53c-.28-.18-.58-.34-.88-.51l-.09,0-.53-.3-.29-.22a1.06,1.06,0,0,0-.81-.27l-.32,0-.3-.11a47.65,47.65,0,0,1-4.73-1.93l-.25-.16a16.22,16.22,0,0,0-4.32-2.58l-.93-.35v-1a12.19,12.19,0,0,0-.69-4.88,11.51,11.51,0,0,0-3.1-3.81,18,18,0,0,1-3-3.35.76.76,0,0,0-.77-.39l-.92.08-.45-.8a37.52,37.52,0,0,0-6.55-8.91.84.84,0,0,0-.37-.22l-1-.28,0-1a.73.73,0,0,0-.78-.81l-.94.12-.5-.62a.67.67,0,0,0-.37-.24,15.59,15.59,0,0,0-3.39-.56l-.14,0-.24.05-.25,0a.92.92,0,0,0-.68.19l-.32.21-.42.09c-.43.05-.88.38-.86.78a1.1,1.1,0,0,0,.07.32l.18.5-.19.5a.83.83,0,0,0-.06.3v.17c0,.52,0,1,0,1.57,0,.19,0,.38,0,.57l-1,0,1,.24,0,.26c0,.14,0,.27-.06.31a1,1,0,0,0,0,.3l.07.86-.74.46-.15.11a15.37,15.37,0,0,0-1.76,2l-.37.53-.77.07a7.77,7.77,0,0,0-.9.25c-1.14.36-2.7.86-3.94.05l-.58-.29-.11-.73a17.81,17.81,0,0,0-1.36-5.1l-.16-.33,0-.37a.74.74,0,0,0-.24-.58,8.61,8.61,0,0,0-2.47-1.77c-.26-.14-.49-.25-.74-.35-.62-.27-1.21-.51-1.81-.74-.82-.33-1.67-.66-2.51-1.06a.93.93,0,0,0-.46-.1l-1,0-.38-.92a.72.72,0,0,0-.26-.32l-.35-.24-.16-.39a1.29,1.29,0,0,0-.16-.28l-.27-.35,0-.44a.78.78,0,0,0-.22-.53,8.71,8.71,0,0,0-1.55-1.31l-.41-.25-.17-.45a24.55,24.55,0,0,1-.87-2.87,10.94,10.94,0,0,0-1.76-4.29.86.86,0,0,0-.85,0l-1,.44-.66-.92a.91.91,0,0,0-.68-.4c-1.24-.14-2.49-.25-3.74-.36a66.62,66.62,0,0,1-7.67-1l-.61-.12-.32-.53a.79.79,0,0,0-.49-.3.81.81,0,0,0-.57.05.93.93,0,0,0-.32,1.29l1.46,2.92-.52.7a19,19,0,0,0-1.72,2.6,1.17,1.17,0,0,0-.09.31l-.11.55-.46.33a.66.66,0,0,0-.27.6v8.48l-.81.38a5.52,5.52,0,0,1-1.22.41l-.56.12-.58-.37a5.61,5.61,0,0,0-4.47-.68,5.9,5.9,0,0,0-3.5,3.21c-1.33,2.73-.74,6.13-.08,9.45a3.27,3.27,0,0,1,3.09-1c1.57.27,2.5,1.37,2.75,3.26.16,1.18.29,2.37.43,3.56.12,1,.23,2,.36,3,.48,3.78,1.84,6.13,4.39,7.62a3.46,3.46,0,0,1,1.32,5.48c-1.15,1.8-2.15,4.5-.41,7.15a18.8,18.8,0,0,1,2.18,5.34c.2.71.41,1.41.65,2.1l.07.26a31.28,31.28,0,0,1,.3,3.17l0,.84-.72.43a3.17,3.17,0,0,1-.81.34c-1,.28-1.5.76-1.47,2.77,0,.17,0,.35,0,.53.06,1.17.16,3.33-1.94,4.23-1.11.47-1.71,1.53-2.4,2.74a8.88,8.88,0,0,1-3.05,3.6,3.84,3.84,0,0,0,.27.49,21.65,21.65,0,0,1,1.29,2.43c.24.49.47,1,.73,1.45a16.52,16.52,0,0,1,1.6,5.4c.35,2.06.69,4,2,5.53a2.39,2.39,0,0,1,.52,2.71,2.74,2.74,0,0,1-2.75,1.33,8.58,8.58,0,0,1-2.17-.49l-.15,0c-1-.31-1.21-.17-1.21-.17s-.18.22-.25.8A6.14,6.14,0,0,1,155,153.2a3.78,3.78,0,0,0-.16,5.33l.15.11a2.17,2.17,0,0,1,.75,3.09,2.79,2.79,0,0,1-2.39,1.24l-.26,0a8.93,8.93,0,0,0-2.33.46,9.39,9.39,0,0,0-.41,2.5c-.2,2-.61,6-5.25,6.6-.2,0-.67.08-.9.93a9.63,9.63,0,0,1-3.7,5.25c-1,.78-1.25,1.17-1.26,1.37s.14.51.61,1l1.55,1.6-2.11.73a8.53,8.53,0,0,1-5.27-.14c-.49-.13-1-.25-1.41-.33a4.35,4.35,0,0,0-3.45.67,1.32,1.32,0,0,0-.5,1.08,4.07,4.07,0,0,1-1.82,3.77,3.75,3.75,0,0,1-3.91-.18c-1.07-.64-1.18-.5-1.64.1a5.33,5.33,0,0,1-2.66,1.58c-1.59.5-2.24,1.45-2.25,3.27a16.41,16.41,0,0,1-.29,2.77,3.68,3.68,0,0,1-1.73,2.75,3.82,3.82,0,0,1-3.37.06,8.93,8.93,0,0,1-2.4-1.55l-.59-.48c-.69-.58-.73-.55-.93-.47s-.31.18-.41,1.2l0,.21a21.13,21.13,0,0,1-2,8.14,36.27,36.27,0,0,1-3.4,5,39.62,39.62,0,0,0-2.72,3.86c-2.06,3.47-5,4.94-8.85,4.37a1.72,1.72,0,0,0-1.84.69,10.12,10.12,0,0,1-13.52.88A18.12,18.12,0,0,0,70,218.2l-.73-.34c-.61-.29-.91-.25-.95-.23s-.2.24-.25.85c-.31,3.87-2.83,4.61-5.51,4.85-5.51.48-10.82,1.23-15.23,5.13-.28.24-.56.56-.87.89a6.77,6.77,0,0,1-4,2.57c-.75.1-1,.4-1.56,1.57a12,12,0,0,0-1,5.09v.53c0,2.94.08,6.28-2,9.16a2.27,2.27,0,0,0-.61,1.54c.08.36.52.77,1.23,1.17a7.31,7.31,0,0,1,1.75,1.34c1.45,1.55,1.29,5.86-.28,7.45-2.17,2.19-4.4.5-5.35-.22l-.11-.09a2.39,2.39,0,0,0-2-.5c-3.69.57-6.3,3-9.07,5.5-.65.6-1.31,1.2-2,1.77a2.17,2.17,0,0,0-.09.69,13.32,13.32,0,0,1-1.25,6.84l-.09.19-.14.16a4.43,4.43,0,0,0-.91,1.63l-.06.19-.21.32-.27.41a2,2,0,0,0-.35,1.05,5.06,5.06,0,0,1-2.55,5c-2.51,1.39-3.74,3.4-4.13,6.71-.23,1.93-.12,2,.74,2.38.18.09.39.16.6.24,1,.39,3.21,1.21,2.79,3.61-.33,1.94-2.13,2.7-3.44,3.25l-.46.2a2.81,2.81,0,0,1-.74.2l-.11,0C9.6,299.75,9,300.35,9.17,301c.45,2.26,1.13,3.35,2.39,3.84A3.28,3.28,0,0,1,14,303.71Zm147-156.85Z"/></svg>