<svg id="Layer_1" data-name="Layer 1" xmlns="http://www.w3.org/2000/svg" viewBox="0 0 350 350"><defs><style>.cls-1{fill:#999;}.cls-2{fill:#f90;}</style></defs><title>M</title><path class="cls-1" d="M307.08,69.18c-3-3.44-7.21-5.84-10.6-9a5.46,5.46,0,0,1-1.24-4.27c1.28-7.51.15-9.87-7.36-13.38l3.65-33.65c-6.48,0-13.13,1.3-19-.32-7.54-2.09-10.89,2.15-14.93,6.39l-2,2.11-3.75-2.21-5.32,5.74c-3-1.55-5.56-3.18-8.3-4.14a113.58,113.58,0,0,0-12-3.25,4.37,4.37,0,0,0-3.18.58c-2,1.46-3.55,3.84-5.74,4.75-4.34,1.8-4.5,4.44-3.18,8.28.59,1.72.25,3.79.21,5.69,0,2.26-.59,4.57-.29,6.78.86,6.29-2.28,10.76-8.45,11.54a26.69,26.69,0,0,1-3.86.49c-3.51-.08-5.55,1.13-4.37,6-3.63-.39-6.63-.8-9.65-1-1.13-.07-3,0-3.3.66-.54,1-.32,2.63-.06,3.92a41.92,41.92,0,0,0,1.46,4.24c.55,1.75,1,3.55,1.53,5.3s1.59,3.4,1.8,5.17.32,3.31.42,5a1.59,1.59,0,0,0-.31.9A13.79,13.79,0,0,0,190.9,88s0,.07,0,.1c-.49,1.22-2.33,2.27-3.33,3a57.67,57.67,0,0,1-5.75,3.73A3.89,3.89,0,0,1,178.68,93c-.95-1.21-3.63-1.95-5.22-1.58-2.54.58-3.23,0-3.87-2.35-.88-3.2-2.86-3.91-6.31-2.78-5.23,1.72-9.17,4.37-11,9.91l3.34,1.71a34.49,34.49,0,0,1-1.41,4.72,6,6,0,0,1-2.09,2.24c-2.07,1.4-4.46,2.38-6.3,4-1.53,1.37-2.45,3.42-3.93,5.59-2.58-2.06-4.69-4-7.05-5.54-1.45-.94-3.45-2-4.94-1.7-3.42.67-6.69,2.15-10.05,3.31l-1.8,4.42-10.76-8.38C101.41,112,95.7,117.61,89.64,122.8c-1.08.92-4,.85-5.38,0-2.73-1.71-4.83-4.41-7.45-6.35a3.88,3.88,0,0,0-3.67,0C69,119.83,65,123.46,61,127a12.65,12.65,0,0,0,11.59,4c1.16-.26,3.44,1.25,4.08,2.52,1.13,2.24,1.39,4.91,2.12,7.81-.11.11-.61.6-1.13,1.07-1.08,1-3.24,2.28-3.06,2.8.65,1.9,1.74,4.53,3.29,5.06,3.55,1.23,5.21,3.65,6.76,6.69,5,9.7-1.5,20.12-12.38,19.83-1.89-.05-3.78,0-6.94,0,3.38,2.66,5.49,4.76,8,6.2,5.07,2.93,5.53,4.17,2.5,9.14a6.3,6.3,0,0,0-.69,2c-1.35,6.75-6.25,9.7-13,7.9-1.13-.3-2.75-.59-3.53,0-4.84,3.42-9.7,6.56-15.83,7.23-3.19.35-6.09,5-6,8.14,0,1.36.07,2.73.08,4.11a1.89,1.89,0,0,0-1,2c1.19,3.48.15,6.35-3.06,8.62a1.69,1.69,0,0,0-1.63,0,9.9,9.9,0,0,1,2.09.09,2.74,2.74,0,0,0-.36,1.62,10.51,10.51,0,0,0,1.41,4.85c.91,1.56,3.45,2.1,4.72.61a29.72,29.72,0,0,1,2.8-2.87l1.21-.26a3.16,3.16,0,0,0,3.4.26,23.44,23.44,0,0,0,2.78-1.57l1.48-.31c2.2,2,3.91,4.46,6.17,5.13,1.14.34,3.45-2.47,4.89-4.14,2.13-2.47,4-5.19,5.94-7.84l4.06,7.3,2-1.87a11,11,0,0,1,1.21,2.1c.5,1.57.83,3.19,1.3,5.06l8.51-4,37.2,13.29a5.36,5.36,0,0,0,1.25.73,8.8,8.8,0,0,0,3.9.07,2.33,2.33,0,0,0,.49.34A118.43,118.43,0,0,0,138.9,255l.45.43,1.74,2.67a22.91,22.91,0,0,1-3.89,3.69c-3.82,2.8-3.08,7.52-3.5,11.77a2.56,2.56,0,0,0,3,2.85c0,.52,0,1.05,0,1.6.25-.6.46-1.17.67-1.73a3.08,3.08,0,0,0,2.29-2.72c.09-.9.12-2.29.17-3.56a9,9,0,0,1,.94-1.41c2.29-2.76,5.59-4.68,7.51-6.22-.93,2.32,0,3.84,2.79,4.5a34.93,34.93,0,0,1,9.12,3.7c3.37,1.9,5.14,5.36,4.05,9-1.66,5.58,2.62,7.44,5.44,10.27.88.88,2.17,1.36,4.18,2.57,1.4-2.74,3.37-5.33,4.33-8,2.45,4.58,3.45,9.81,5.31,14.66a3.5,3.5,0,0,0,3.17,2.23c.27.43.54.86.8,1.31l-.6-1.32a2.5,2.5,0,0,0,1.65-.9c2.55-3,5.25-3.58,7.9-2.8A13.43,13.43,0,0,0,200.1,300a22.91,22.91,0,0,0-4.53,8.48c-1,4,.25,7.16,1.34,10.94a3.13,3.13,0,0,0,4.75,1.59h0v0a2.7,2.7,0,0,0,1-1.57c0-.16.08-.35.12-.56,2.27-3.78,4.77-5.33,7.91-5,1.14,1.52,2.14,3.25,2.77,4.19,3.6,5.38,6.42,11.59,10.88,16.34a3,3,0,0,0,4.25,0c.29-.36.62-.85,1-1.39.37.54.74,1.09,1.07,1.67l5.88-8.66a2.61,2.61,0,0,1,1.66.39c2.39,1.48,4,6.61,5.45,9,1.27,2.11,2.84,4.25,3.92,6.52l7.45-4.82a1.84,1.84,0,0,0-1.19-3.37c-.84-3.56-1.91-7.06-2.86-10.51,10.21-4.11,18.37-11.66,13.24-17.85,2.73-1.61,7.7-2.28,4.44-5.73.94-4.85,2.57-8.62,2.08-12.08s.67-4.16,3.06-4.85c1.5-.43,3.08-.6,4.63-.89,5-.93,5.82-2.9,3.16-7.17-1.26-2-2.41-4.13-3.12-5.36,1.21-2.27,2.58-3.68,2.5-5s-1.52-2.83-2.36-4.22c5.42-3.71,5.64-4.09,2.32-9.33-2.53-4-5.37-7.82-8.28-11.55-2.29-2.93-5.09-2.64-7.47.33-3.22,4-6.59,7.9-9.78,11.93-1.63,2.05-2.7,1.7-4.44,0-5.24-5.23-10.45-10.52-17.51-13.48-1.51-.63-2.51-2.44-3.83-3.79,3.24-2.85,5.69-3.88,8.41-.18a4.78,4.78,0,0,0,4.32,1.11c3.45-1.24,7.57-2.32,9.77-4.89,2.49-2.91,6.51-5.79,5.34-10.88-.26-1.16.3-2.52.54-3.78,1.45-7.81,3.13-15.6-1.21-23.13-1.47-2.55-1-4.59,1.88-5.91a22.32,22.32,0,0,0,3.17-2.22c3.81-2.61,4.63-5.45,2.64-9.6-1-2.14-2.18-4.21-2.88-5.55,2.81-1.73,5.45-2.78,7.34-4.61,4-3.88,7.53-8.25,11.46-12.21,1.2-1.21,3.52-2.8,4.61-2.38,3.29,1.29,6.18,3.58,9.34,5.27a16.22,16.22,0,0,0,4,1c-.41-1.63-.34-3.68-1.32-4.82-3.62-4.19-7.59-8.09-11.61-12.29l15-17.22-1-6.82,8.26-4.59-.85-9.67L318.46,103c0-5.78-.74-11.2.16-16.34C320.35,76.8,311.67,74.38,307.08,69.18Z"/><path class="cls-2" d="M247,344.07l-.69-1.46a38.94,38.94,0,0,0-2.47-4.2c-.48-.74-.95-1.47-1.38-2.19a32.8,32.8,0,0,1-1.46-2.94c-1-2.14-2.22-4.81-3.51-5.62l-.21-.11-6.68,9.84-1.05-1.83a3.93,3.93,0,0,1-2.74,1.17,4.49,4.49,0,0,1-3.45-1.32,60.25,60.25,0,0,1-7.6-10.95c-1.1-1.87-2.24-3.79-3.43-5.57-.21-.31-.45-.7-.73-1.14-.46-.74-1-1.63-1.63-2.48-1.61-.05-3.63.58-5.82,4.13l-.08.36a4.13,4.13,0,0,1-1.25,2.13l-.93,2-.73-1.07a4.72,4.72,0,0,1-2.82-.08,4.32,4.32,0,0,1-2.79-2.91l-.36-1.24c-1-3.36-1.93-6.54-1-10.43A21.91,21.91,0,0,1,198,300.5c-.57-.38-1.14-.83-1.72-1.3l-.42-.33c-2.25-.56-4.27.24-6.18,2.44a4,4,0,0,1-1.84,1.23l-1.51.78-.41-.68a5,5,0,0,1-3.66-3.07c-.71-1.85-1.29-3.76-1.86-5.6-.67-2.16-1.31-4.24-2.12-6.22-.43.78-.89,1.55-1.35,2.31-.59,1-1.21,2-1.72,3l-.69,1.35-1.3-.78c-.69-.42-1.29-.74-1.82-1a10.76,10.76,0,0,1-2.64-1.76c-.53-.53-1.11-1-1.73-1.55-2.52-2.13-5.65-4.79-4.06-10.13.86-2.88-.44-5.7-3.39-7.37a33.3,33.3,0,0,0-8.74-3.55,5.38,5.38,0,0,1-3.82-2.49,3.73,3.73,0,0,1-.21-.49,25.69,25.69,0,0,0-4.86,4.22,6.79,6.79,0,0,0-.62.91l0,.72c0,1-.07,1.89-.14,2.58a4.48,4.48,0,0,1-2.6,3.68c-.15.38-.3.77-.46,1.17l-2.73,6.62v-7.45a4.06,4.06,0,0,1-2-1.08,3.93,3.93,0,0,1-1.06-3.22c.08-.82.11-1.65.15-2.52.15-3.57.32-7.61,3.92-10.25a20.38,20.38,0,0,0,3-2.68l-1.06-1.63-.13-.12-2.64-.93a78.8,78.8,0,0,1-8.52-3.34l-.25-.14a8.78,8.78,0,0,1-4-.23,6.41,6.41,0,0,1-1.41-.79l-36.46-13-9.54,4.51-.42-1.67c-.14-.57-.27-1.11-.4-1.64-.28-1.17-.54-2.28-.88-3.33a2.1,2.1,0,0,0-.14-.33l-2.07,1.94-3.87-7-.44.6c-1.34,1.85-2.73,3.77-4.26,5.55l-.3.35c-2.41,2.81-4.25,4.76-6.06,4.23s-3.45-2.14-4.91-3.65c-.42-.43-.84-.87-1.28-1.3l-.51.11A23.91,23.91,0,0,1,47,237.71a4.66,4.66,0,0,1-4.29,0l-.26.06a30.94,30.94,0,0,0-2.37,2.47,4,4,0,0,1-3.48,1.37,4.59,4.59,0,0,1-3.54-2.18,12,12,0,0,1-1.6-5.47q0-.2,0-.4h-.23l-5.49.32,4.65-2.93a3,3,0,0,1,2.11-.4,5.43,5.43,0,0,0,2-6.6l-.06-.23a3.28,3.28,0,0,1,1-2.95c0-1.12,0-2.23-.07-3.34-.13-3.87,3.25-9.16,7.25-9.6,5.78-.63,10.47-3.66,15.17-7,1-.7,2.54-.76,4.72-.18,3,.79,5.54.58,7.47-.62s3.18-3.31,3.76-6.18a7.61,7.61,0,0,1,.87-2.49c1.35-2.22,1.83-3.43,1.64-4.17s-1.62-1.83-3.65-3a37.4,37.4,0,0,1-5.14-3.85c-.9-.76-1.89-1.58-3-2.47l-3.21-2.53h7c1.59,0,2.83,0,4.08,0a12,12,0,0,0,10.85-5.44,12.37,12.37,0,0,0,.23-12.32c-1.54-3-3-5-6-6-1.65-.57-3-2.46-4.16-5.94-.45-1.33.75-2.23,2.27-3.38.43-.32.88-.66,1.18-.93l.51-.47c-.14-.62-.27-1.23-.39-1.83a19.8,19.8,0,0,0-1.42-4.88,4.39,4.39,0,0,0-2.53-1.77A14.07,14.07,0,0,1,60,128l-1-1.07,1.09-1,3.07-2.72c2.94-2.62,6-5.32,9.11-7.83a5.18,5.18,0,0,1,5.4-.06,36.5,36.5,0,0,1,3.39,3,25.94,25.94,0,0,0,4,3.32,4.69,4.69,0,0,0,3.71.1c4.49-3.84,8.88-8,13.12-12q2.23-2.11,4.48-4.22l.88-.83,10.24,8,1.34-3.28.61-.21c1-.33,1.91-.69,2.86-1a47.24,47.24,0,0,1,7.37-2.31c1.57-.31,3.53.31,6,1.91a52.35,52.35,0,0,1,4.92,3.78l1,.85.41-.68a16.44,16.44,0,0,1,2.91-3.87,23,23,0,0,1,4.08-2.72c.83-.47,1.62-.92,2.36-1.42a4.57,4.57,0,0,0,1.6-1.65,17.53,17.53,0,0,0,.92-2.94l.11-.45-3.4-1.74.38-1.15c2.25-6.86,7.54-9.39,11.89-10.82,2.3-.75,4.09-.76,5.48,0A5.66,5.66,0,0,1,171,88.64c.47,1.7.48,1.73,2.19,1.34,2-.46,5.28.34,6.65,2.09a3.06,3.06,0,0,0,1.67,1.29,55.35,55.35,0,0,0,5.24-3.43l.72-.51a11.25,11.25,0,0,0,1.88-1.5,15.1,15.1,0,0,1-1.4-6.45,2.84,2.84,0,0,1,.28-1.23c-.11-1.73-.24-3.16-.39-4.48a11,11,0,0,0-1-2.89c-.28-.64-.56-1.31-.79-2-.31-.95-.57-1.9-.82-2.83s-.45-1.66-.71-2.48c-.17-.52-.37-1-.58-1.55a16.13,16.13,0,0,1-.93-2.84c-.32-1.6-.54-3.44.19-4.85s2.92-1.53,4.65-1.42c2.16.14,4.35.38,6.66.65l1.2.14a5.43,5.43,0,0,1,1-4c1.34-1.66,3.59-1.8,5.16-1.77a12,12,0,0,0,2.29-.26c.45-.08.9-.16,1.35-.21a8.34,8.34,0,0,0,5.78-3,9.16,9.16,0,0,0,1.44-7,19.32,19.32,0,0,1,.09-4.6c.08-.84.16-1.63.18-2.41,0-.48,0-1,.07-1.46a10.25,10.25,0,0,0-.2-3.74c-1.25-3.63-1.76-7.67,4-10a10.49,10.49,0,0,0,3-2.41,20.22,20.22,0,0,1,2.43-2.18,5.79,5.79,0,0,1,4.33-.81,114.06,114.06,0,0,1,12.11,3.29,38.63,38.63,0,0,1,5.74,2.75l1.79,1L251.58,13l3.76,2.21,2-2.11c3.78-4,7.69-8.15,15.57-6,3.81,1.06,8,.8,12.48.52,2-.12,4.08-.25,6.12-.25h1.58l-3.71,34.23c7.17,3.52,8.6,6.53,7.24,14.46a4.16,4.16,0,0,0,.81,3c1.36,1.27,2.91,2.45,4.4,3.6a43.15,43.15,0,0,1,6.29,5.5A30.5,30.5,0,0,0,312.41,72c4.22,3.26,9,7,7.61,14.9a50.08,50.08,0,0,0-.29,10.65c.07,1.76.15,3.59.15,5.45v1.7l-11.46-2.11.76,8.73-8.2,4.56,1,6.49-14.58,16.74,2.41,2.49c2.93,3,5.71,5.86,8.35,8.93a7.48,7.48,0,0,1,1.36,3.92c.08.53.15,1,.27,1.48l.57,2.24-2.25-.51c-.4-.09-.8-.15-1.21-.22a9.79,9.79,0,0,1-3.18-.89c-1.25-.67-2.46-1.43-3.63-2.16a34.49,34.49,0,0,0-5.49-3,7.65,7.65,0,0,0-3.15,2c-1.77,1.79-3.5,3.7-5.17,5.56-2,2.23-4.09,4.54-6.3,6.68a22.32,22.32,0,0,1-5,3.32l-1.46.81,0,.07c.66,1.23,1.48,2.76,2.23,4.33,2.28,4.75,1.29,8.37-3.11,11.38-.35.24-.68.5-1,.77a11.34,11.34,0,0,1-2.38,1.58,3,3,0,0,0-1.8,1.56,3.08,3.08,0,0,0,.56,2.35c4.44,7.69,3,15.58,1.54,23.21l-.16.88c-.07.39-.17.78-.27,1.18a5.17,5.17,0,0,0-.28,2c1.13,4.94-1.87,8.1-4.28,10.63-.48.5-.95,1-1.37,1.49-2.12,2.47-5.66,3.68-8.79,4.75l-1.58.55c-1.66.59-4.79,0-5.94-1.6-.84-1.14-1.6-1.72-2.33-1.8s-1.66.33-2.92,1.3l.27.33a6.79,6.79,0,0,0,2.09,2c7.15,3,12.47,8.31,17.61,13.43l.36.35c1,1,1.32,1,1.37,1s.29,0,1-.87c1.72-2.17,3.51-4.33,5.25-6.41,1.52-1.83,3-3.67,4.54-5.53,1.93-2.4,3.82-2.91,5.08-2.91h0a5.83,5.83,0,0,1,4.58,2.6c3.57,4.58,6.15,8.17,8.36,11.67,3.29,5.2,3.61,6.71-1.56,10.44l0,.07a7.34,7.34,0,0,1,1.76,3.71c.09,1.34-.65,2.49-1.5,3.82-.26.4-.52.82-.78,1.26l.29.51c.67,1.19,1.51,2.67,2.41,4.11,1.11,1.79,2.28,4.11,1.37,6.16s-3.4,2.76-5.48,3.15l-1.48.25a26,26,0,0,0-3,.61c-1.84.53-2.41.81-2.05,3.29.38,2.63-.3,5.24-1.08,8.26-.3,1.16-.61,2.36-.87,3.62a3.56,3.56,0,0,1,.91,3c-.38,1.82-2.32,2.65-4.19,3.45l-.6.26a7.38,7.38,0,0,1,.67,5.45c-1.36,5.37-8.07,10-14.29,12.68l.54,1.89c.6,2.11,1.22,4.28,1.76,6.47a3.26,3.26,0,0,1,2,1.93,3.17,3.17,0,0,1-1.23,4Zm-10.18-19.44a4,4,0,0,1,2.15.62c2,1.25,3.39,4.22,4.59,6.84.47,1,.92,2,1.32,2.67s.87,1.4,1.33,2.11c.65,1,1.31,2,1.91,3.1l6.14-4a.35.35,0,0,0,.14-.5c-.07-.18-.21-.29-.28-.29l-1.34.27-.31-1.34c-.58-2.46-1.29-4.94-2-7.34-.3-1-.59-2.08-.88-3.12l-.34-1.22,1.17-.47c7.39-3,12.79-7.38,13.77-11.24a4.72,4.72,0,0,0-1.09-4.4l-1.06-1.28,1.43-.84a20.29,20.29,0,0,1,2.28-1.09c.83-.36,2.39-1,2.53-1.43h0s0-.32-.69-1l-.5-.53.14-.71c.31-1.61.69-3.06,1-4.46.7-2.73,1.31-5.08,1-7.15-.6-4.18,1.19-5.59,4.07-6.41a28.64,28.64,0,0,1,3.35-.68l1.41-.24c2.6-.49,3.25-1.15,3.4-1.51s.21-1.28-1.18-3.52c-.93-1.49-1.78-3-2.47-4.21l-.68-1.19-.4-.68.37-.7c.43-.81.88-1.51,1.27-2.13a5.84,5.84,0,0,0,1.06-2.12,5.53,5.53,0,0,0-1.22-2.21c-.32-.44-.66-.89-.94-1.37l-.69-1.15,1.1-.75c1.88-1.29,3.66-2.5,3.87-3.28s-.73-2.21-1.94-4.12c-2.16-3.41-4.69-6.94-8.2-11.44a3.21,3.21,0,0,0-2.37-1.51h0a4.11,4.11,0,0,0-2.87,1.85c-1.5,1.87-3,3.72-4.57,5.56-1.72,2.07-3.51,4.22-5.2,6.36a4.42,4.42,0,0,1-3,1.94c-1.4.09-2.53-.84-3.54-1.85l-.36-.36c-5.17-5.16-10.06-10-16.7-12.82a8.75,8.75,0,0,1-3.19-2.82c-.38-.46-.73-.9-1.11-1.29l-1-1.07,1.12-1c1.87-1.65,3.91-3.14,6.19-2.9,1.56.17,3,1.13,4.31,2.94a3.67,3.67,0,0,0,2.7.62l1.62-.56c2.92-1,5.94-2,7.55-3.91.45-.53,1-1.06,1.46-1.59,2.24-2.36,4.36-4.59,3.57-8a7.13,7.13,0,0,1,.29-3.35c.09-.34.17-.67.23-1l.16-.88c1.39-7.45,2.7-14.49-1.21-21.28a5,5,0,0,1,2.53-7.91,9.09,9.09,0,0,0,1.78-1.21c.39-.31.77-.61,1.17-.89,3.24-2.22,3.83-4.34,2.16-7.82-.73-1.51-1.53-3-2.17-4.22l-.68-1.28-.61-1.17,1.13-.69c.94-.58,1.85-1.08,2.73-1.56a20,20,0,0,0,4.36-2.87c2.14-2.07,4.19-4.34,6.17-6.54,1.69-1.88,3.45-3.82,5.27-5.65.15-.15,3.67-3.66,6.13-2.7a36.71,36.71,0,0,1,6,3.28c1.13.71,2.29,1.44,3.45,2.06a5.59,5.59,0,0,0,1.63.48,4.81,4.81,0,0,0-.65-2.16c-2.59-3-5.33-5.82-8.24-8.8-1.1-1.13-2.21-2.27-3.33-3.44l-.9-.94L299,121.47l-1.07-7.14,8.31-4.62-.93-10.61L317,101.26c0-1.22-.08-2.44-.13-3.62a52.11,52.11,0,0,1,.33-11.26c1.1-6.25-2.45-9-6.55-12.17A33,33,0,0,1,306,70.12h0A40.43,40.43,0,0,0,300.12,65c-1.55-1.19-3.15-2.41-4.61-3.78a6.87,6.87,0,0,1-1.67-5.55c1.2-7,.28-8.66-6.56-11.85l-.92-.43,3.59-33.07c-1.46,0-2.93.13-4.37.22-4.49.28-9.14.56-13.41-.62-6.23-1.73-9.11,1.32-12.75,5.18l-3.57,3.74-3.73-2.2-5.27,5.69-1-.49c-1-.5-1.91-1-2.81-1.5a36.62,36.62,0,0,0-5.31-2.56,111.75,111.75,0,0,0-11.81-3.21,3,3,0,0,0-2,.35,17.9,17.9,0,0,0-2.08,1.88,12.64,12.64,0,0,1-3.94,3c-3.14,1.3-3.67,2.76-2.38,6.51a12.4,12.4,0,0,1,.35,4.83c0,.46-.05.91-.06,1.35,0,.89-.11,1.77-.2,2.63a16.94,16.94,0,0,0-.1,3.92,11.91,11.91,0,0,1-2,9.07,11.1,11.1,0,0,1-7.67,4.06c-.41.05-.81.12-1.22.19a14.47,14.47,0,0,1-2.84.3c-1.51,0-2.48.21-2.89.71s-.49,1.81-.07,3.55l.47,2-2-.21-3.08-.34c-2.37-.27-4.42-.51-6.51-.64a7.28,7.28,0,0,0-2,.13,7.45,7.45,0,0,0,.16,2.77,13.82,13.82,0,0,0,.78,2.34c.22.56.45,1.14.65,1.75.27.85.5,1.72.74,2.58s.49,1.81.78,2.71c.19.57.43,1.15.69,1.76a13.26,13.26,0,0,1,1.16,3.68c.17,1.47.31,3.07.43,5l0,.48-.27.4a.43.43,0,0,0-.06.12,12.4,12.4,0,0,0,1.43,5.82l.27.53-.16.48a1.5,1.5,0,0,1-.08.26c-.56,1.38-2,2.38-3.16,3.18l-.64.45A58.85,58.85,0,0,1,182.5,96l-.31.18h-.36a5.32,5.32,0,0,1-4.26-2.4,4.89,4.89,0,0,0-3.79-1.07c-3.62.83-4.81-.67-5.55-3.35a3.07,3.07,0,0,0-1.24-2c-.66-.35-1.76-.28-3.26.21-5.11,1.68-8.07,4.07-9.67,7.88l3.25,1.67L157,98.25c-.15.51-.27,1-.4,1.5a19.83,19.83,0,0,1-1.09,3.42,7.33,7.33,0,0,1-2.59,2.83c-.83.56-1.71,1.06-2.55,1.54a20.52,20.52,0,0,0-3.59,2.37,14.25,14.25,0,0,0-2.38,3.24c-.41.67-.84,1.38-1.33,2.1l-.86,1.26-1.19-1c-.8-.64-1.56-1.27-2.29-1.87a50.27,50.27,0,0,0-4.65-3.58c-2.42-1.57-3.54-1.57-3.9-1.5a44.38,44.38,0,0,0-6.93,2.19l-2.33.86-2.27,5.56-11.28-8.78-3.58,3.38c-4.27,4-8.69,8.21-13.23,12.1-1.63,1.39-5.3,1.24-7.05.14a28.44,28.44,0,0,1-4.42-3.67A33.87,33.87,0,0,0,76,117.6a2.91,2.91,0,0,0-1.95,0c-3.06,2.46-6.08,5.14-9,7.73L63.1,127a11.21,11.21,0,0,0,9.19,2.55c2.05-.46,4.84,1.66,5.65,3.26a22.13,22.13,0,0,1,1.67,5.58c.17.82.34,1.66.56,2.52l.2.8-.69.66c-.21.2-.63.61-1.07,1s-.89.72-1.36,1.08c-.31.23-.77.58-1.07.84,1.09,3,1.94,3.46,2.18,3.54,4.25,1.47,6.13,4.58,7.56,7.38a14.65,14.65,0,0,1-13.68,21.89c-.93,0-1.86,0-3,0h0A34.92,34.92,0,0,0,74,181.72c2.86,1.66,4.5,2.9,5,4.76s-.37,3.72-2,6.34a5.13,5.13,0,0,0-.51,1.57c-.73,3.67-2.48,6.44-5,8s-6,2-9.69,1a4.51,4.51,0,0,0-2.37-.24c-5,3.53-10,6.77-16.48,7.47-2.38.26-4.81,4.14-4.72,6.68,0,1.38.07,2.76.08,4.14v.86l-.76.4a.47.47,0,0,0-.31.44,8.12,8.12,0,0,1-2.34,9l-.44.74a1.34,1.34,0,0,0-.16.8A9.14,9.14,0,0,0,35.52,238a1.77,1.77,0,0,0,1.34.78,1.23,1.23,0,0,0,1.07-.37,30.74,30.74,0,0,1,3-3l.27-.22,2.22-.47.53.44a1.87,1.87,0,0,0,1.9.06,22.5,22.5,0,0,0,2.61-1.48l.22-.14,2.44-.52.54.48c.7.63,1.33,1.28,1.95,1.92a11.12,11.12,0,0,0,3.49,2.84,18.67,18.67,0,0,0,3.3-3.29l.3-.35c1.45-1.68,2.74-3.47,4.11-5.36.58-.8,1.17-1.61,1.76-2.41l1.31-1.75,4.24,7.63,2-1.83.9,1.52c.12.19.24.38.37.58a7.16,7.16,0,0,1,1,1.82c.36,1.12.63,2.26.92,3.46l7.47-3.53,38,13.56.17.13a4,4,0,0,0,.91.54,8.57,8.57,0,0,0,3.2,0l.63-.08.48.42a1,1,0,0,0,.19.14,76.66,76.66,0,0,0,8.21,3.22c1,.34,2,.69,3,1l.3.11.22.22.34.33.3.34,2.32,3.56-.69.81a24.3,24.3,0,0,1-4.14,3.92c-2.5,1.83-2.62,4.73-2.76,8.08,0,.88-.07,1.79-.16,2.68a1.06,1.06,0,0,0,.25.95,1.6,1.6,0,0,0,1.25.35l.41-.07a1.68,1.68,0,0,0,1.28-1.5c.06-.61.09-1.48.13-2.41l.06-1.41.16-.29a10.3,10.3,0,0,1,1.09-1.64,30.68,30.68,0,0,1,5.92-5.1c.67-.48,1.28-.91,1.79-1.32l4.21-3.36-2,5a2.08,2.08,0,0,0-.15,1.55,3,3,0,0,0,2,1,36.14,36.14,0,0,1,9.5,3.85c4.1,2.32,6,6.49,4.72,10.64-1,3.4.47,4.87,3.18,7.16.64.54,1.3,1.1,1.91,1.71a8.88,8.88,0,0,0,2,1.27l.65.35c.36-.64.74-1.26,1.11-1.87a27.07,27.07,0,0,0,2.44-4.67l1.07-3,1.51,2.82a52.08,52.08,0,0,1,3.58,9.41c.55,1.8,1.13,3.66,1.8,5.42a2.1,2.1,0,0,0,1.8,1.32h.09a1.09,1.09,0,0,0,.73-.41c3.41-3.94,7-3.94,9.37-3.24l.26.08.21.17.66.53a9.56,9.56,0,0,0,2.49,1.66l2,.59-1.25,1.63a21.69,21.69,0,0,0-4.27,7.95c-.76,3.15,0,5.84,1,9l.37,1.26a1.51,1.51,0,0,0,1,1,1.77,1.77,0,0,0,1.54-.16l0,0a1.28,1.28,0,0,0,.49-.77c0-.15.08-.33.12-.52l0-.23.12-.2c2.54-4.23,5.58-6.08,9.29-5.64l.6.07.36.48c.82,1.09,1.55,2.25,2.14,3.19.26.41.48.77.68,1.06,1.24,1.85,2.4,3.81,3.52,5.71a58.13,58.13,0,0,0,7.22,10.44,1.7,1.7,0,0,0,1.27.43,1.12,1.12,0,0,0,.84-.34c.27-.34.6-.82.92-1.3l1.15-1.72,1.13,1.61,5.06-7.44.67-.06Z"/></svg>