<svg id="Layer_1" data-name="Layer 1" xmlns="http://www.w3.org/2000/svg" viewBox="0 0 350 350"><defs><style>.cls-1{fill:#999;}.cls-2{fill:#f90;}</style></defs><title>M</title><path class="cls-1" d="M342.43,327.39s-.77-.19-1,.89l-.26,1.08s-.51.89-2.87,1.08-5.8.83-6.31.45a12.68,12.68,0,0,1-1.59-2.36.83.83,0,0,0-1.47.06,3.7,3.7,0,0,1-2,1.4l-3.19-.81s.06-3.72-1.34-3.21-1.47,1.4-2.87,1.53a16.63,16.63,0,0,0-4.27,1,15.16,15.16,0,0,1-1.59.76s.83.32-.77.06a2.46,2.46,0,0,0-2.42,1.4c-.19.19-2.1.19-2.55.89s-4.53,1.79-4.53,1.79l-2-1.53.7-3.57L284,326.62l-2.87,2.49a23.88,23.88,0,0,1-9.25-1.28l-.83.7-3.89-.83-1,2-4.34-.36.32-1.91s-4.85-5.42-5.68-5.68-.83-.89-1.79,0-5.61,6.06-5.61,6.06l-4.46-.45a4,4,0,0,0-.64-2.42l-.7-.7-.45-2.95-3.06-.56-1.08-19a17.45,17.45,0,0,0,0-3.25l-.19-1a8.73,8.73,0,0,0,0-4.4,15.72,15.72,0,0,1-.38-4.46l-5.23-2.61s-6.38,9.69-8.86,18.43c-4.21,1.59-5.8,2.87-7.21,2.36s-6.89-1.85-8.35-.64-11.1-2.36-13.71-4a8.39,8.39,0,0,1-1.28-3.13s3.06-2.93,3.83-2.87,2-1.85,3.06-2,4-1.47,1.15-3.51l-.89-.51.06.57-1.21-.77-.26-3.38-.06-2.87-1.21-.51s1.72-3.32,2.55-3.19,2,.83,1.79-.89a18,18,0,0,0-.83-3.51,2.6,2.6,0,0,1-2.3.64,2.06,2.06,0,0,0-2.1,1.08s-.83-1.28-1.72-.32-4.91,4.46-4.91,4.46-.57-2.17-3.51,1.34c-1.79.45-1.28,3.32-4.08,4.59l.38.45-1.28,1.85s-2.74-3.25-4.91-1.47a71.28,71.28,0,0,0-6.25-5l5.42-12.69a16.41,16.41,0,0,0-2.42-1.85c-.64-.26-.83-1.21-.83-1.21v-2l1.4-1-3.57-5.23s-1.91.06-2.17,5.68l-2.17-.64,1.91-6.44,2-1,.38-7.08H168.9L163,257.62a25.51,25.51,0,0,1-2.49,6.19c-1.4,2-3.12,4.78-3.12,4.78l-3.51-.57s-8.1,1.47-9.5-.32a29.52,29.52,0,0,1-4.72.83l-2.74-3-1.4-6.89-.7-2.23-.45-4h.45l.64-3.06s-.7-5.29-.77-5.48l-1.91-5.74s-5.87-2.49-7-2.81a17.67,17.67,0,0,1-5.17-2.81c-.83-.89-4.91-4.08-4.91-4.08l-1.47,10.33,1.08,8.61-3.19-1.79-2.93-.38s-1.28-1.47-2.1-1.66a2.41,2.41,0,0,1-1.28-.77s-1.28-.89-1.53-4.27c-.19-1.72-3.19-.32-3.19-.32l-.77-1.34-6-1.72L89.7,235v-1.47s-2.36.06-3-.45-3.57-4-2.23-5.36,4.15-1.66,4.15-4.15,1-5,1-6.38-6.06-6.57-6.06-6.57a8.77,8.77,0,0,1-2.81,0,8.29,8.29,0,0,1-5.48.45c-.32-3.06-2.1-3.64-2.1-3.64L67.57,206s-2.87,1.08-2.93,2.1-2.87,1.47-2.87,1.47A24.94,24.94,0,0,1,57.3,211c-1.59,1.72-3,1.21-3.38-.19s.45-1.59-5-1.28c-2.17-2.42-4.21-2-5.55-3.13l-1.34-1.15-1.85-1.53s-1.85-3.44-2.42-4.21-1.66-1.08-2.1-2.93a15,15,0,0,1-.57-3.51c0-.77-.7-3.89-1.59-4.34s-2-1.66-5,.45a56.87,56.87,0,0,0-2.93-9.31l-3.51-2-2.17-9-.32-4a28.39,28.39,0,0,1-2.74,1.85c-.51.19-1.66.45-1.66.45l-2.87-1.47a10.55,10.55,0,0,1-2-2.93,9.94,9.94,0,0,1,.32-5.87c.7-2,4.66-6,6.25-6.19s4.34-1.66,7-1.28a13.2,13.2,0,0,0,2.61-1.59l-1.85-16.58s-1.28-6.82-1.91-9.12a39.14,39.14,0,0,0-1.34-8.42,58.55,58.55,0,0,0,.51-8.29c2.3.38,10.27,4.34,11,4.34s1.15,1.28,1.4-1.53S31.79,78,31.79,78L30.64,66s-6.51-8.16-7-9.37a21.38,21.38,0,0,0-2.87-5.87c-1.79-2.49-7.7-2.42-10.83-2-2.43-9.57-3.64-14-3.64-14S19,26.82,23.56,22.55s6.63-5.93,6.63-5.93l28.63,22.7,2.36,2.1S73,44,88.55,48a145.2,145.2,0,0,0,16.58,5l31.5,5.8a19,19,0,0,0,2.36-.89,5.81,5.81,0,0,0,.51-1.28s4.34-2.36,5.42-4.4l1.08-2s4-2.55,1.47-3.64c.45-1.85-2.49-4.59-2.49-4.59l5.93-5.68a4.89,4.89,0,0,0,5,.77,69,69,0,0,1,7.21-2.1s-.38-2.55.7-2.55.45,2.42.45,2.42,1.4,3.25,2.55,3.32,1.85-.83,2.23.19a1.25,1.25,0,0,0,1.59.89c.57-.06,1.4.51,1.28,2s1.59-1.28,2.42-.45.26,1.21,2.1,3.51,1,4.21,3.25,4.59a2.65,2.65,0,0,0,1.53-.77l3.19,1.15,4.59.89L189,51.95l1,.26.19,1.28.89.13L192.44,57l.77,1.53,3.76.26,1.85-1.91,2.55.06s1.91,1.59,2.55,1.47,2.68-.77,2.68-.77L212,61.77a20.25,20.25,0,0,1,4.27-.19c.89.26,2.68,1.53,2.49,3.25,1.47-1.08,2.68-.26,5.68.7a13.32,13.32,0,0,1,5.1,3.12c.57.45,2.1-.64,4.91,2.55s5.93,6.19,6,6.89,0,2.81,2.36,2.3c1.79,2,3.83,5.68,4.53,5.36a48.12,48.12,0,0,0,3.89-2.87l1.53.19s2.1,20.22,1.08,24.68.38,15,.38,15l3.12,17.79a21,21,0,0,1,5.61,4.72,14.9,14.9,0,0,0,3.06,3.38,8.32,8.32,0,0,0-1.79,4.66c-.19,2.87.19,17,.19,17a62.26,62.26,0,0,0,6.19,2.55c1.08.19,6.82,2,8,2.81a10.93,10.93,0,0,1,2.1,2.17l-6.25,1.91-1,1.47s1.85,6.82,1.47,12.05a31.56,31.56,0,0,0,1.34,10.52l.51,5.48-7.84-3.19s-1.66,7.91-2.3,9.63l.89,3s4.34,1.21,6.7.57l2.68-1A26.48,26.48,0,0,1,278,225.8c3.06,1.85,4.34,2.81,4.34,2.81s-1.59-.32-1.72.26,2.23,8.8,3.76,11.93,1.4,3.06,1.59,3.44,2.68,4.72,2.68,4.72-.32,4.53-.64,5a8.59,8.59,0,0,0-.7,1.53l-.77,7-2-.45-6.19.25s-3.7,2.74-5.8,2.61A61.13,61.13,0,0,0,275,271.2l8-.64s-.19,2.36-.51,4a21.16,21.16,0,0,0-.38,4c0,.83,1.34,1.91,1.34,1.91l-1.21,2.1-2.87.38s4.72,4.21,5.42,4.27,1.72-.25,2.3.45a21.79,21.79,0,0,0,3.57,3.06,6.63,6.63,0,0,0,3.51-.13A12,12,0,0,1,297,290s2-2.84,1.66-4.37-.19-3.73,1.34-3.64,3.83.1,3.83.1l3.64,1s5.64,3.35,6.6,3.73a3.85,3.85,0,0,0,2.2.48,23.5,23.5,0,0,0,3.44-1.15s2.77.86,4.78,1.24,3.83,1.24,5.45,1,2.2-.24,2.15,0,0,1.15-.43,1.15a5.49,5.49,0,0,0-1.48.67l.33,2.1s-1,.86-1.39.86-1.29.62-1.29.86.14.81.14,1-.57.86-.57.86l.53.72,2-.33s-.77,1.72-1,2.06-.14.57-1,.33-.53-.57-1.2-.43-.81,1.24-.81,1.24-.29,1-.43,1.05-1.53.86-1.53.86a14.47,14.47,0,0,1-2.34,1.2,11,11,0,0,0-1.15.33s-1.43,3-1.63,3.2-.57.29-1.1.38a4.37,4.37,0,0,0-1.91.86,24.88,24.88,0,0,1-2.15,2.25c-.24.1-.81,2.3-1.43,2.3a5.1,5.1,0,0,1-.86,0l-1,.53s-.86.33-.33,2.06l0,2,3.2,1.2,2.77.57a2.65,2.65,0,0,1,1.77-1.24l.19-2.1,1.67,3.16.62-.33-.1-.67,1.87-1.77,2.73.24,0-1.29s0-1.39.1-3.2a11.28,11.28,0,0,1,.33-3.06,12.13,12.13,0,0,1,.86-2.63,4.62,4.62,0,0,1,1.43-1,8.12,8.12,0,0,1,1.24.14s-.33-1.29.19-1.63a1.61,1.61,0,0,1,1.39-.29,1.48,1.48,0,0,1,.72,1.15c0,.43.53.24.72.19a.33.33,0,0,1,.38.38.8.8,0,0,0,.67,1,1.94,1.94,0,0,1,1.05.24c.19.14,1.2,1.29,1.67,1.63a7.28,7.28,0,0,0,2.3.53,2.56,2.56,0,0,0,.62-.29,14.9,14.9,0,0,0,2,.67l1.48.19s.91.33.77.43,1.15,1.15.81,2.1a23.86,23.86,0,0,0-1.05,3.59,8.74,8.74,0,0,0,.25,2.34,3.5,3.5,0,0,1,0,2.1c-.3.48-.49.62.13,1s1,1.43.73,1.77-1.2.33-1.2.33l-1.24,1.1Z"/><path class="cls-2" d="M303,334.93l-3.22-2.5.57-2.89-15.95-1.46-2.77,2.4-.47,0a26,26,0,0,1-9.07-1.07l-.73.62-3.49-.74-.9,1.83-6.84-.56.46-2.76a55.49,55.49,0,0,0-4.71-4.8,3.39,3.39,0,0,1-.39-.17c-.94.92-4.19,4.5-5.41,5.86l-.48.53-6.5-.66,0-1.33a3.11,3.11,0,0,0-.24-1.37l-1-1-.36-2.41-3.16-.58-1.15-20.22v-.1a15.43,15.43,0,0,0,0-2.87l-.26-1.41.14-.37h0a7.9,7.9,0,0,0-.06-3.62,20.87,20.87,0,0,1-.44-3.88l-3.27-1.63c-1.68,2.72-6.09,10.21-8,17l-.2.69-.67.25c-1.36.52-2.46,1-3.34,1.4-2,.91-3.37,1.5-4.85,1-1.92-.7-6.17-1.4-7-.87-2.6,2.15-14-3-15.34-3.84l-.2-.12-.15-.18a9.57,9.57,0,0,1-1.57-3.76l-.14-.75.55-.53c2.94-2.82,4.06-3.23,4.64-3.27.16-.12.4-.34.58-.5a4.73,4.73,0,0,1,2.49-1.46,2.36,2.36,0,0,0,.69-.23l-2.78-1.75-.31-4.09,0-2L196,283.9l.71-1.36c2.19-4.22,3.47-4,4-3.94h.07c-.06-.34-.13-.68-.21-1a3.74,3.74,0,0,1-1.74,0c-.24-.05-.53.38-.53.38l-1.14,2.09L196,278.33c-1.28,1.25-4.29,3.88-4.66,4.21l-1.72,1.5-.41-1.56a8.23,8.23,0,0,0-1.22,1.24l-.3.35-.45.11c-.17,0-.39.52-.61,1a7.59,7.59,0,0,1-1.7,2.52l.06.07L182,292l-1.2-1.42s-1.9-2.13-2.93-1.29l-1,.79-.91-.84a70.15,70.15,0,0,0-6.1-4.92l-.93-.66,5.46-12.79a10.16,10.16,0,0,0-1.26-.94,3.11,3.11,0,0,1-1.67-2.24l0-.28v-2.7l.87-.63-1.8-2.64A11.61,11.61,0,0,0,170,265l-.08,1.8-5.27-1.55,2.5-8.41,1.85-.87.23-4.24-5,6.56a25.28,25.28,0,0,1-2.61,6.35c-1.37,2-3.08,4.71-3.09,4.73l-.5.8-4.2-.69c-3,.52-7.65,1.06-9.86-.23a26.05,26.05,0,0,1-4.37.72H139l-3.43-3.75-1.47-7.2-.74-2.43-.62-5.59h.88l.35-1.7c-.29-2.2-.62-4.59-.7-5.06l-1.68-5.05c-2.26-1-5.55-2.3-6.25-2.5a18.33,18.33,0,0,1-5.82-3.21c-.35-.38-1.58-1.4-2.82-2.4l-1.09,7.69L117,250l-5.4-3-3.19-.42-.35-.41a5.89,5.89,0,0,0-1.39-1.22,3.79,3.79,0,0,1-1.92-1.12c-.49-.43-1.58-1.71-1.91-4.71a5.37,5.37,0,0,0-1.22.38l-1.18.55-1.13-2-5.27-1.51-5.79-.16V234.9a4.72,4.72,0,0,1-2.47-.73c-.61-.49-3-3.06-3.1-5.29a2.74,2.74,0,0,1,.73-2.15,8.18,8.18,0,0,1,2.06-1.43c1.34-.74,1.7-1,1.7-1.73a19.35,19.35,0,0,1,.66-4.38,13.8,13.8,0,0,0,.36-1.86c-.4-.84-2.82-3.24-5.08-5.21a10.47,10.47,0,0,1-2.18,0,9.64,9.64,0,0,1-6.05.35l-.93-.26-.1-1c-.19-1.82-1-2.34-1.15-2.44l-5.06-1.32a6.88,6.88,0,0,0-1.65.95c-.3,1.62-2.44,2.26-3.85,2.5A27.29,27.29,0,0,1,58,212.31a3.51,3.51,0,0,1-3.3,1.12,3,3,0,0,1-2.14-2.25c0-.13-.06-.25-.08-.36-.78,0-2.4.06-3.44.13l-.68,0-.46-.51a6,6,0,0,0-3.07-1.84,6.39,6.39,0,0,1-2.35-1.16l-3.38-2.84L39,204.4c-.7-1.3-1.94-3.54-2.31-4a3.29,3.29,0,0,0-.42-.4,5.37,5.37,0,0,1-1.93-3,16.39,16.39,0,0,1-.61-3.84,9.08,9.08,0,0,0-.93-3.13l-.31-.18c-.69-.4-1.28-.75-3.16.57l-1.69,1.19-.5-2a64.12,64.12,0,0,0-2.67-8.66l-3.63-2.08L18.45,169l-.12-1.53a6.23,6.23,0,0,1-1,.58,17.65,17.65,0,0,1-1.85.5l-.5.11-3.54-1.81-.17-.17A11.65,11.65,0,0,1,9,163.27a11.24,11.24,0,0,1,.31-6.81c.76-2.21,5-6.85,7.42-7.13a11.65,11.65,0,0,0,1.7-.45,13.57,13.57,0,0,1,5.18-.87,12.4,12.4,0,0,0,1.36-.8l-1.75-15.71c-.12-.63-1.29-6.84-1.88-8.95l-.05-.19v-.19a38,38,0,0,0-1.29-8l-.08-.28,0-.28a57.55,57.55,0,0,0,.5-8l-.12-1.79,1.77.29a45.89,45.89,0,0,1,7.64,3c1.12.49,2.47,1.09,3.07,1.31l0-.18c.18-2-1.35-19-2.42-30L29.27,66.53c-2.12-2.67-6.46-8.21-6.91-9.44l-.18-.51a18.74,18.74,0,0,0-2.51-5c-1.12-1.57-5.74-1.92-9.51-1.46l-1.24.15L8.61,49C6.21,39.6,5,35.08,5,35L4.7,34l.9-.56c.13-.08,12.56-7.82,17-12s6.62-5.92,6.71-6l.88-.72L59.71,38.21l2.15,1.91c2.1.47,13.14,3,27,6.5l.18.06a144.6,144.6,0,0,0,16.38,4.91l31.08,5.72c.52-.17,1.07-.37,1.41-.5.07-.19.15-.43.2-.61l.17-.56.52-.28c1.53-.83,4.21-2.61,4.85-3.82l1.26-2.37.32-.2a7.24,7.24,0,0,0,1.46-1.23l-.89-.38.28-1.17c.13-.53-.9-2.12-2.08-3.22l-1.09-1,8-7.65,1,.95a3.51,3.51,0,0,0,3.55.46,63.59,63.59,0,0,1,6.22-1.87,3.5,3.5,0,0,1,.67-2.17,2,2,0,0,1,3.07.06,3.79,3.79,0,0,1,.38,2.93,8.16,8.16,0,0,0,1.3,2,3.07,3.07,0,0,0,.46-.12c1.77-.53,2.53.37,2.86,1.23h.11a2.41,2.41,0,0,1,1.94.7,2.89,2.89,0,0,1,.64.95,1.93,1.93,0,0,1,2.28.36,3.67,3.67,0,0,1,.91,1.49,6.74,6.74,0,0,0,1.3,2.13,8.94,8.94,0,0,1,1.55,3c.25.76.32.93.56,1a1.75,1.75,0,0,0,.46-.21l.54-1,1,.62,3.09,1.11,5.67,1.1-.07,1.85.82.21.18,1.17.67.1,1.62,4.15.37.75,2.3.16,1.82-1.89,3.67.09.38.32a10.18,10.18,0,0,0,1.6,1.11c.56-.14,1.65-.47,2.3-.67l.7-.22,5.48,4.17a14.78,14.78,0,0,1,4.26-.08,5.52,5.52,0,0,1,3.15,2.7,8.32,8.32,0,0,1,3.49.73c.46.16,1,.35,1.56.53a13.83,13.83,0,0,1,5.25,3.1l.11.1h.05c1,0,2.79.11,5.24,2.89,1,1.11,2,2.2,2.91,3.17,2.6,2.78,3.35,3.62,3.44,4.52l0,.22a2.49,2.49,0,0,0,.16.88s.16,0,.47-.06l.82-.18.55.63c.71.81,1.42,1.81,2.11,2.77.41.57,1,1.35,1.36,1.83.74-.53,2-1.47,3-2.29l.47-.37,3.24.41.12,1.12c.22,2.09,2.1,20.58,1.06,25.14-1,4.17.39,14.38.41,14.48l3,17.1a21.16,21.16,0,0,1,5.47,4.76,14.62,14.62,0,0,0,2.72,3l1.3.92-1,1.2a7,7,0,0,0-1.43,3.81c-.16,2.36.09,12.88.17,16a48.42,48.42,0,0,0,5,2.08c1,.18,7.1,2,8.55,3.05a12.37,12.37,0,0,1,2.43,2.49l1.15,1.6L275.27,181l-.37.53a43.15,43.15,0,0,1,1.35,11.88,30.34,30.34,0,0,0,1.27,10l.06.31.73,7.81L269.87,208c-.48,2.23-1.32,6-1.84,7.7l.54,1.8a13.76,13.76,0,0,0,5.15.39l4-1.42.45,1.38a28.7,28.7,0,0,1,1.28,7.1c2.6,1.6,3.73,2.44,3.78,2.47l5,3.75L282.29,230a71.38,71.38,0,0,0,3.38,10.13c1.14,2.33,1.38,2.93,1.51,3.26,0,.07,0,.11.08.18.15.29,1.7,3,2.64,4.65l.21.37,0,.43c-.35,4.93-.68,5.39-.9,5.7a6.66,6.66,0,0,0-.46,1l-.92,8.36-3.34-.75-5.57.23a17.74,17.74,0,0,1-4.46,2.34c.45,1.32,1.05,2.81,1.44,3.75l8.61-.69-.13,1.66c0,.1-.2,2.46-.53,4.12a19.79,19.79,0,0,0-.35,3.58,3.77,3.77,0,0,0,.82.91l.93.76L283,283.8l-.44.06a27.47,27.47,0,0,0,2.41,1.88h.24a3.2,3.2,0,0,1,2.84,1,23.18,23.18,0,0,0,3.09,2.68,6.38,6.38,0,0,0,2.3-.14,9.81,9.81,0,0,1,2.73-.58,5.76,5.76,0,0,0,1.08-2.67c-.33-1.32-.37-3.28.61-4.46a2.61,2.61,0,0,1,2.19-.93c1.47.09,3.72.09,3.74.09l.36,0,3.83,1,.17.1c2.73,1.62,5.87,3.42,6.4,3.63l.22.09c.76.31.88.34,1.3.3a21.5,21.5,0,0,0,3.07-1.05l.47-.19.48.15s2.72.84,4.63,1.21c.74.14,1.42.33,2.08.52a7.66,7.66,0,0,0,2.9.48c1.68-.25,2.66-.35,3.34.33a1.54,1.54,0,0,1,.42,1.35v.11c-.17,1.71-1,2.16-1.66,2.21l-.08,0,.3,1.87-.57.52a4.06,4.06,0,0,1-2.11,1.21c0,.13,0,.26,0,.35l2.87-.49-1.07,2.42c-.19.42-.81,1.82-1,2.18a2,2,0,0,1-2.59,1l-.27-.09c-.26.9-.53,1.62-1.23,1.9-.3.15-1.36.77-1.36.77A13.07,13.07,0,0,1,322,304l-.46.12a20.15,20.15,0,0,1-1.53,2.92,2.74,2.74,0,0,1-1.82.87l-.13,0a3.78,3.78,0,0,0-1.15.45,24.11,24.11,0,0,1-2.11,2.24l-.13.3c-.46,1.09-1,2.44-2.36,2.44h-.56l-.34.19a2.29,2.29,0,0,0,.11.53l.07.22,0,1.23,2.16.8,1.83.38a4.23,4.23,0,0,1,1-.69l.54-6,2.85,5.38,1.68-1.59,1.78.16c0-.52,0-1.65.1-3l0-.58a9.69,9.69,0,0,1,.38-2.85c.07-.2.13-.47.2-.75a6.08,6.08,0,0,1,.9-2.32,5.83,5.83,0,0,1,2.09-1.46,1.37,1.37,0,0,1,.25-.06,2,2,0,0,1,.87-1.27,2.92,2.92,0,0,1,2.71-.39,2.72,2.72,0,0,1,1.26,1.25,1.77,1.77,0,0,1,1.39,1.39,2.44,2.44,0,0,1,1.18.46,5.94,5.94,0,0,1,.65.63,12.85,12.85,0,0,0,1,1,8.42,8.42,0,0,0,1.28.24l.1-.06.61-.38.65.28a15.45,15.45,0,0,0,1.62.58l1.48.19.3.07c.57.21,1.4.52,1.64,1.3a3.27,3.27,0,0,1,.78,3,19.17,19.17,0,0,0-1,3.22,8.23,8.23,0,0,0,.18,1.77,5.37,5.37,0,0,1,.11,2.79,3.42,3.42,0,0,1,.88,1.72,2,2,0,0,1-.41,1.73,2.67,2.67,0,0,1-1.69.78l-.2.18,1.78,5.95-1.78-.45-.23,1-.1.18c-.21.36-1.1,1.56-4,1.79-.74.06-1.59.17-2.42.27-3,.37-4.09.47-4.86-.1a7.87,7.87,0,0,1-1.54-2,5.29,5.29,0,0,1-2.39,1.37l-.34.08-4.61-1.17,0-1.12a8.7,8.7,0,0,0-.11-1.47l-.21.17a3.87,3.87,0,0,1-2.34,1.05,17.53,17.53,0,0,0-3.69.78,9.4,9.4,0,0,1-.9.47c-.52.83-1.67.65-2.39.53-.34-.06-.54.08-.89.61a2.78,2.78,0,0,1-.31.4,2.34,2.34,0,0,1-1.42.55,6.11,6.11,0,0,0-1,.23c-.3.4-1.18,1.17-5.27,2.26Zm-.1-3.67.72.56a17.66,17.66,0,0,0,3.13-1.14,4.22,4.22,0,0,1,2.76-1.22h0a3.48,3.48,0,0,1,3.5-1.56h0a12.85,12.85,0,0,0,1.35-.64,17,17,0,0,1,4.89-1.17c.34,0,.42-.1.78-.4a5.37,5.37,0,0,1,1.74-1.05,2,2,0,0,1,1.9.24,4.36,4.36,0,0,1,1.31,3.19l1.75.44a2.06,2.06,0,0,0,.91-.7,2.27,2.27,0,0,1,1.84-1.15,2.43,2.43,0,0,1,2,1l.11.17a17.59,17.59,0,0,0,1.08,1.75h0c.63,0,2-.17,2.92-.28s1.76-.22,2.54-.28a4.16,4.16,0,0,0,1.7-.42L340,328a2.76,2.76,0,0,1,.69-1.33l-1.23-4.13,2.11-1.87a1.76,1.76,0,0,1-.55-.88,1.93,1.93,0,0,1,.37-1.59l0,0a3.29,3.29,0,0,0-.08-1,9.62,9.62,0,0,1-.33-2.92,17.35,17.35,0,0,1,1.09-3.84,3.38,3.38,0,0,0-.37-.55l-.18-.25-1.29-.17a8.79,8.79,0,0,1-1.73-.52,1.73,1.73,0,0,1-.7.15,8,8,0,0,1-3.11-.78,11.17,11.17,0,0,1-1.41-1.33l-.24-.25-.37,0a2.08,2.08,0,0,1-1.52-.82,2.21,2.21,0,0,1-.27-.48,1.62,1.62,0,0,1-.53-.22l.29,1.11-2.17-.38-.71-.11a3.3,3.3,0,0,0-.62.46,10.33,10.33,0,0,0-.36,1.24c-.09.36-.18.7-.26,1a7.65,7.65,0,0,0-.23,2.1l0,.59c-.09,1.75-.09,3.12-.09,3.13l.11,2.84-3.69-.32-.87.83.13.92L319.15,320l-.86-1.62-.08,0a1.35,1.35,0,0,0-.86.53l-.48,1-1.06-.28-3-.63-4.15-1.55.07-2.8c-.55-2.08.38-3.15,1.12-3.5l1.36-.75.51.1h0c.11-.23.23-.52.3-.69a2.59,2.59,0,0,1,.93-1.38c.31-.28,1.28-1.34,1.84-2a5.61,5.61,0,0,1,2.73-1.32l.14,0,.19,0c.29-.54.88-1.73,1.37-2.75l.25-.52.54-.2a12.6,12.6,0,0,1,1.31-.38,14.28,14.28,0,0,0,1.92-1l1.21-.7.1-.31a2.73,2.73,0,0,1,1.79-2.29l-.77-1.05.73-.85.18-.22a4.14,4.14,0,0,1-.09-.73c0-1.18,1.51-2.11,2.46-2.26l.1-.06-.31-1.95a15.71,15.71,0,0,1-2.6-.57c-.61-.17-1.23-.34-1.85-.46-1.57-.3-3.55-.87-4.45-1.14a18.3,18.3,0,0,1-3.35,1.06,4.76,4.76,0,0,1-2.67-.49l-.21-.08c-1-.38-5.37-3-6.63-3.73l-3.27-.86c-.57,0-2.31,0-3.61-.09a3.52,3.52,0,0,0,0,1.87c.5,2-1.31,4.75-1.88,5.54l-.39.55-.67,0a10.34,10.34,0,0,0-2.43.38A7.74,7.74,0,0,1,290,292a21.61,21.61,0,0,1-4-3.4,4.2,4.2,0,0,0-.56,0,5.7,5.7,0,0,1-.82,0c-.44,0-1.17-.11-6.24-4.63l-2.3-2.05,5.24-.7.31-.54a3.47,3.47,0,0,1-1-2.16,22.75,22.75,0,0,1,.41-4.23c.13-.65.24-1.44.32-2.13l-7.29.58-.4-.93a61.49,61.49,0,0,1-2.43-6.58l-.49-1.89,1.94.12c1,.06,3.55-1.36,4.87-2.34l.35-.26,6.81-.28.61.14L286,255a10.09,10.09,0,0,1,.78-1.72,39,39,0,0,0,.45-4c-.75-1.3-2.33-4.07-2.5-4.42-.07-.14-.11-.24-.17-.39s-.33-.83-1.43-3.07c-1.25-2.55-4.16-11.56-3.87-12.86a1.69,1.69,0,0,1,.09-.27c-.56-.36-1.24-.78-2-1.27l-.7-.42v-.82a22.72,22.72,0,0,0-.75-5.59l-1.35.48c-2.66.72-7-.44-7.45-.58l-.75-.21-1.25-4.2.16-.44c.49-1.33,1.78-7.26,2.24-9.43l.35-1.66,7.26,2.95-.28-3a32.67,32.67,0,0,1-1.36-10.91c.36-4.92-1.4-11.51-1.42-11.58l-.17-.64,1.68-2.41,4.59-1.41c-.13-.11-.26-.22-.39-.31a42.5,42.5,0,0,0-7.39-2.56,52.72,52.72,0,0,1-6.53-2.66l-.8-.37,0-.88c0-.58-.38-14.26-.19-17.16a10,10,0,0,1,1.33-4.33,23.67,23.67,0,0,1-2.33-2.78,19.74,19.74,0,0,0-5.17-4.32l-.58-.33L252.77,123c-.07-.5-1.43-10.89-.37-15.55.74-3.24-.36-16.63-1-22.95A30.69,30.69,0,0,1,247.87,87c-1.5.68-2.54-.76-4.25-3.16-.49-.68-1-1.38-1.47-2a3,3,0,0,1-1.89-.57A3.75,3.75,0,0,1,239,78.42c-.35-.53-1.64-1.91-2.7-3s-2-2.1-3-3.24c-1.65-1.87-2.59-1.91-3.22-1.93a2.43,2.43,0,0,1-1.5-.44l-.45-.38A11,11,0,0,0,224,66.88c-.62-.2-1.16-.39-1.65-.56-1.95-.69-2.25-.72-2.76-.35l-2.61,1.93.36-3.22c.09-.84-1.05-1.62-1.47-1.73a19.78,19.78,0,0,0-3.7.23l-.58.08-5.24-4c-.68.21-1.67.5-2.12.59s-1.2.24-3.35-1.45l-1.45,0-1.87,1.94-5.23-.35-1.18-2.38-1-2.67L189,54.73l-.21-1.38-1.22-.3.06-1.72L184,50.6l-2.46-.89a5.09,5.09,0,0,1-1.47.55l-.27.06-.27,0a3.65,3.65,0,0,1-3.06-3,6.23,6.23,0,0,0-1.07-2.13,9.54,9.54,0,0,1-1.7-2.79h0a2,2,0,0,1-2.3.53,1.72,1.72,0,0,1-.83-1.82,1.59,1.59,0,0,0,0-.49A2.53,2.53,0,0,1,168,39.38a3.84,3.84,0,0,1-1.26.14c-1.39-.08-2.53-1.63-3.33-3.22a67.47,67.47,0,0,0-7,2,6.36,6.36,0,0,1-5.38-.28L147,42a7.71,7.71,0,0,1,1.93,3.77,2.29,2.29,0,0,1,.82,1.56c.14,1.66-1.6,3.11-2.64,3.82l-.91,1.72c-1,2-4.21,3.95-5.49,4.69a3,3,0,0,1-.69,1.32c-.21.21-.43.43-2.93,1.24l-.34.11-.35-.07-31.5-5.8a144.94,144.94,0,0,1-16.77-5C72.79,45.45,61,42.83,60.88,42.81l-.36-.08-2.64-2.35L30.22,18.45c-1,.85-2.86,2.5-5.7,5.14C20.55,27.28,11,33.42,8,35.31c.46,1.71,1.49,5.62,3.08,11.86,2.81-.21,8.76-.26,10.91,2.74a21.53,21.53,0,0,1,2.88,5.73l.17.48c.34.76,3.69,5.17,6.73,9l.26.33L33.2,77.83c.28,2.82,2.68,27.7,2.42,30.56-.12,1.35-.29,2.42-1.19,2.91a1.81,1.81,0,0,1-1.78-.09h0a20.54,20.54,0,0,1-4.05-1.6c-1.58-.7-3.73-1.64-5.29-2.23-.06,2.48-.4,5.37-.51,6.27A39.7,39.7,0,0,1,24.08,122c.66,2.48,1.84,8.78,1.89,9.05l0,.1,1.93,17.35-.59.49a14.58,14.58,0,0,1-2.93,1.79l-.38.17-.42-.06a10.47,10.47,0,0,0-4.37.72,13,13,0,0,1-2.21.56c-.94.19-4.49,3.52-5.08,5.24a8.59,8.59,0,0,0-.33,4.92,8.52,8.52,0,0,0,1.52,2.27l2.18,1.11c.38-.09.78-.2,1-.27s1.46-1,2.39-1.66l2.06-1.53.51,6.46,2,8.26,3.37,1.93.19.41A51.76,51.76,0,0,1,29.38,187a4.51,4.51,0,0,1,4.5.29l.26.15c1.83.91,2.38,5.17,2.38,5.6a13.78,13.78,0,0,0,.53,3.18,2.6,2.6,0,0,0,1,1.58,5.39,5.39,0,0,1,.83.84c.55.73,1.91,3.22,2.41,4.14l3,2.52a4.14,4.14,0,0,0,1.38.61,9,9,0,0,1,3.82,2.14c3.94-.23,5.31-.2,5.7,2,0,.11,0,.24.08.38a.54.54,0,0,0,.12.26,2.48,2.48,0,0,0,.85-.66l.34-.36.49-.08a23,23,0,0,0,4.12-1.37l.34-.1a6.46,6.46,0,0,0,1.74-.53c.36-1.4,2.22-2.38,3.79-3l.42-.16,6,1.58c.31.1,2.3.83,3,3.81a7,7,0,0,0,3.67-.55l.4-.18.43.07a7.42,7.42,0,0,0,2.3,0l.66-.12.52.44C91,215.13,91,216.68,91,217.19a12.35,12.35,0,0,1-.44,2.64,16.87,16.87,0,0,0-.58,3.74c0,2.48-1.91,3.52-3.17,4.22a6,6,0,0,0-1.37.91c-.09.55,1.35,2.61,2,3.23a8.14,8.14,0,0,0,2.13.18l1.46,0v1.55l3.57.14,6.55,1.88.46.8a3.83,3.83,0,0,1,2.81.11,2.27,2.27,0,0,1,1.15,1.79c.19,2.56,1,3.31,1,3.32l.21.15,0,.09a1.1,1.1,0,0,0,.48.26,5.9,5.9,0,0,1,2.48,1.7l2.69.35,1,.55-.76-6,1.84-12.95,1.93,1.51c.43.33,4.2,3.29,5.08,4.24a17.37,17.37,0,0,0,4.51,2.4c1.2.33,6.58,2.61,7.19,2.87l.59.25L136,243.4c.05.15.11.32.83,5.74l0,.24-.94,4.43.26,2.31.7,2.24,1.33,6.5,2,2.18c.61-.08,1.79-.28,3.85-.73l.87-.19.55.7c.65.53,4.54.45,8.14-.2l.24,0,2.82.46c.62-1,1.7-2.65,2.65-4a23.45,23.45,0,0,0,2.28-5.74l.07-.27,6.53-8.63h4.05l-.51,9.42-.19.09,4.72,6.92-1.93,1.4v1.07l.06.14a15.56,15.56,0,0,1,2.72,2.05l.76.68-5.38,12.59c1.08.8,3,2.23,4.7,3.78a4.16,4.16,0,0,1,3.39.36l1.63-.74a3.71,3.71,0,0,0,1.84-2.15,4.22,4.22,0,0,1,2-2.36c1-1.17,2.47-2.49,4-2.15a2.15,2.15,0,0,1,.36.11c1.36-1.2,3.31-2.94,3.84-3.52a2.37,2.37,0,0,1,1.93-.8,2.29,2.29,0,0,1,.68.17,3,3,0,0,1,2.59-.55,1.17,1.17,0,0,0,1-.26L202,273l.75,2.11a19.44,19.44,0,0,1,.9,3.83,2.52,2.52,0,0,1-.68,2.25,2.4,2.4,0,0,1-2.32.3,9.25,9.25,0,0,0-.72,1l.58.24.08,3.79.16,2.07,1.54.89c1.84,1.31,2,2.6,1.74,3.45-.42,1.65-2.4,2.48-3.55,2.62a6.09,6.09,0,0,0-.91.75,3.74,3.74,0,0,1-2.16,1.24,17.13,17.13,0,0,0-2.41,1.92,6.3,6.3,0,0,0,.67,1.58c2.84,1.62,10.41,4.18,12,3.85,2.55-1.86,9.56.46,9.63.49.4.15,1.43-.31,2.73-.89.77-.34,1.7-.76,2.83-1.21,2.63-8.65,8.58-17.75,8.84-18.14l.69-1.05,7.25,3.63-.12,1a15,15,0,0,0,.37,4,11.15,11.15,0,0,1,.06,4.74l.13.69a16.93,16.93,0,0,1,0,3.53l1,17.79,3,.54.53,3.49.37.37a3.89,3.89,0,0,1,1,2.13l2.56.26c1.26-1.39,4.4-4.85,5.22-5.61a2.16,2.16,0,0,1,2.94-.44,1,1,0,0,0,.23.12c.36.11,1.21.37,6.32,6.09l.45.51-.18,1.06,1.84.15,1-2.08,4.29.92,1-.81.79.32a21.75,21.75,0,0,0,8.16,1.2l3-2.56L303.76,327Zm3.91-.62Zm25.64-1.06Zm-22.57-.18Zm-54-6.41Zm85.56-4.81Zm-30-4.77Zm1.81-5.07h0ZM207.54,305h0Zm.17-.1Zm125.84-.31h0Zm-3.91-.85h0ZM197,294.78Zm131.83-2.94Zm1.87-3.64h0ZM63.22,208h0ZM32.81,111.21h0Zm105-54.13Zm66.17,0Zm-23.86-9.79Zm.07-.09Zm-9.73-9.24Z"/></svg>