<svg id="Layer_1" data-name="Layer 1" xmlns="http://www.w3.org/2000/svg" viewBox="0 0 350 350"><defs><style>.cls-1{fill:#999;}.cls-2{fill:#f90;}</style></defs><title>M</title><path class="cls-1" d="M167,340.66v-8.73H163.8v2.91h-5.49v-7.39h3.36v-4.7h2.46v-5.15h3.58l-13.21-13.66s-4-1.34-4.81.56c-2.35-3.92-5.82-22.28-8.62-24.41,4-4.14,11.76-11.53,11.76-11.53H147v-1.79h-7.84v-2.13H142v-5h9.52v-4.93h8.84s4.59-10.75,4.93-16.68c0-2.24-3-3.81-7.17-2.46s-14.67,6-14.67,6-4.48,3.13-3.47,10.86c-1.9.9-15.11,0-15.11,0l-.67,8.84s-2.69.56-2.69,1.12a20.22,20.22,0,0,1-1,6c-.9,2.35-3.92,2.46-3.92,2.46s-2.69,2.46-2.91,5.15c-.45,2.8-3.13,1.57-3.13,1.57v2.8l-2.57-.45v2.35s-10.41-2.18-10.3,5.52c.22,6,1.12,8.14,1.9,9.26s1.79,7.39,0,9.63-9.52,1-9.52,1-.78-5.6-.78-7.84,3.13-12.54,3.13-12.54h-12v-2.57H63.6a17.89,17.89,0,0,0,.45-5.49c-.34-2.24-.56-2.24.34-3.36s1-1.46,1.34-1.9-1.57-7.05-1.57-7.61-.67-1.12-.56-3.25,2.8-4.7,2.8-4.7l-.45-9.18H61.69v-4.59h-3v-2.24H55.54V235H51.39V225.9s-4.48-.34-.67-5c4.14-2.69,10.41-5.15,10.19-7.17s-3.92-3.36-1.68-5.93.78-6.49.78-6.49a36.6,36.6,0,0,1,9,0c3.47.67,4.59-3.36,4.59-3.36s17.58,2.69,23.74-5.37c1.79,1.9-1.23,5.93-4,9.52a71.82,71.82,0,0,0-.11,8.28l-2.24.11-.22,4.48-2.57-.22v4s13.32,1.23,18.81.22,7.17-.78,7.17-3.69-.67-4.59-.11-7.84-1.12-4.93,2.13-4.93,4.59.34,7.73,0,13.1-2.35,15.79-2.91a13.59,13.59,0,0,0,6.38-3c1.68-1.46.9-2.24,0-4s1.23-5.49,1.23-6.16-.34-10.3-2.35-12.88-5.6-2.91-8.4-2.91-3.13-2.13-2-5.26.34-16,.34-16l6.38-1.68.56-5.93,5.82-4.48s-2.8-5.82-2.57-6.16a27.15,27.15,0,0,1,1.46-4,5,5,0,0,1,4.25-2.91c1.57,0,3.58-3,1.68-4.93s-6.38-1.34-6.38-1.34-3.36-6.38-3.58-6.72-6.72,1-8.28-5.71a4.72,4.72,0,0,1,.56-6.16c1.57-1.57.11-5.37.11-5.37l-6.72-1.23c4.14.11,5.26,1.12,5.26-2.24s-.56-5.26-2.69-7.17c.34-4-.45-10.3-4-11.42-3.69,1-4.93,3.81-5,0s.34-6.49,2-8.51,2.91-3.81,3.92-1.23,3.36,2.35,5.6,2S143,62.56,143,62.56l3.47,18.7,3.13-.45s.9,4.59,4.59,3.81,4.7-.11,5.37-1.46.9-3,2.13-4.25.34-3,.45-3.81-2.46-6.61-2.46-6.61,6.49-.45,8.06-1.57,2.8-.11,1.79-2.8-.56-3.81-3.47-2.57a30.37,30.37,0,0,1-5,1.9c-2,.56-2.91.78-3,.34s-3.25-6.27.9-7.17,4.25-.22,6.49-.9S167,52.37,167,52.37s-1.23.34-2.69-1.46.56-1.23-2.35-2.58-9.74.45-9.74.45-1.79-2.57-.45-7.73,3.69-7.84,7.39-6.61.34,3.81,3.92,4.25,11-2.24,11-2.24-1-6.27-1.9-9.18-1.12-3.92-2.35-4.81-4.25,0-4.25,0l-1.79-2.35a29.63,29.63,0,0,0,6.61-4.25c3.13-.11,8.28,1.57,8.28,14.78,3.69,2.24,4.93,2.57,6,1.46s3.25-5.37,4.14-4.93,1,2.35,2.91,2.46,5,.34,5-1.34,4-15,4-15,4.25-.11,7.05-1.79A104.11,104.11,0,0,1,217.54,7s-.9,7.73,0,9.18,1.68,1.68,3.69,3,4.93.78,4.93,3.25-2.69,9.07-2.69,9.07,5,1.12,2.69,4.93c-2.46,1.46-4.81.78-3.13,3.69s-.11.34,1.68,2.91,1.47,3.25,2.08,5,1.39,4.59,1.39,4.59l-.45,3.58s9.63.78,11.53.22,2.24-4.48,2.57-5.15-.78-2.69-.78-2.69l6.38,2.46s-2.24,5.71-4.25,6.72-1.68.34-1.9,2-1.9,3.58-2.91,5.15-5.49,2.46-5.49,2.46-.11,2.8-.11,4.37,3.81,1.34,4.37,1.68,12.32-5.37,12.32-5.37l1.68,2.35s-1.57,2.58-1.57,3.36,1,1.23,1.57,2.58-1.34,1-2.91,1-3.47-2.69-3,.22-.22,3.69-1.12,3.69-2.46-1.57-3.92-1.46-6,.45-7.17,1.23-3.92.78-4.25.78a4.33,4.33,0,0,0-2.13,2c-.45,1,.22,3.92.56,5.26s1.23,3.81,2,4a7.66,7.66,0,0,1,3,2.35c.9,1.12,5.49,1,6.38,1.57a22.13,22.13,0,0,1,4,4.48c-2.35,1.57-11.2,1.57-12,5.6s-1,3.58,1,5.49,3.13,4,4.7,6.16,3.36,7.73,3.92,10.08,4.48,3.81,7.17,4.25,10.52-.78,11.08-1.12,8.51-7.39,10.19-7.73,5.37-3.36,10.64,4.14c4-.11,3.47.67,5,1.46s8.84,1.23,8.84,1.23.22,2.24,3.58,6.72c1.23,3.25-.67,7.17,0,10.86s-2.24,7.84-2.35,8.4a9.89,9.89,0,0,0-.11,3.69c.34,1,1.57.11,2.35,2.13s.34,2.69,1.57,4,2.24,1.68,2.13,3.25-.56,3.58-2.13,4.59-3.69.45-4.7,1.23-3.69.78-4.7,2.69c-2.8-.34-6.49,3.13-8.28,6.16-3.58,1-5.82,1-5.71,5.15a5.59,5.59,0,0,0-2.46,4l3.13,7.84,5.26,13.32s-1.9,4.81-1.9,5.37,1.9,5.15,4.81,6.16a9.34,9.34,0,0,1,5.26,4.37c.56,1.23-.9,1.12,1.34,2.8s3.58,2.58,4,4.59a29.48,29.48,0,0,0,1.79,5c.67,1.68,1.57,2.13,1.68,3.69s-.45,1.34-.34,2.8,4.72,4.37,2.92,8.62c-1.35,2.8-3.37,8.17-4.26,8.62a11.16,11.16,0,0,1-4.25,1.46c-2.91.56-5,1.23-6.94,3.81a20.22,20.22,0,0,0-2.8,5.93s-.22,9.85,4.48,10.41,5.71-.22,8.4.9,3.58,0,3,2.8.11,2.8-1.34,5.49-3.47,5.93-3.47,5.93l-8.17-.78s-7.5-1.23-10.3,1.34a18.93,18.93,0,0,0-4.7,6.72,30.32,30.32,0,0,0-1.79,4.59s-5.37-.9-6.38,3.58c-2.35.34-7.95-1.57-11.2,1.57-3.13,1.23-1.9.34-4.59.34s-5.71-.78-4.81,4.93c-1.34,2.13-5.49,5.93-4.14,10.3s2.57,6.83-.45,6.27-.9-1.79-3.58-3.47-3.47-1.46-3.69-2.35,1.46-1.12,2.24-3,1.9-3.25-.56-5.49a16.85,16.85,0,0,0-5.71-3.92c-2.35-1-3.69-1.46-4.48,1.57s-2,4.93-2.69,4.93-2.24-3.13-5-3.47-3.58,1.46-5.37,1.9a27.54,27.54,0,0,0-4.14,1.57s-5.93-9.74-9-10.08-7.95,4.48-2,9.29c1.9,1.57-.56.67-3.25.67s-3-.45-4-1.9-4.81-3.13-8.51,2.8c.34,3.81,1.68,4.37,6.27,5.37.78.45,2.24,0,.67,1.79a6.44,6.44,0,0,1-4.37,2.13c-.9.11-.11-3.36-2.35-4s-6.49,1.23-6.72,2.46-3,1.9-3,1.9Z"/><path class="cls-2" d="M237.41,344.4a5.3,5.3,0,0,1-1-.1c-2.06-.38-2.68-1.18-3.05-2.42a1.81,1.81,0,0,0-1-1.24,19.42,19.42,0,0,0-2.34-1.26c-.86-.4-1.68-.78-2-2a2.43,2.43,0,0,1,1.16-2.52,3.4,3.4,0,0,0,1.14-1.38c.11-.26.22-.51.33-.75.67-1.49.85-1.89-.53-3.15-2.34-2.13-3.11-2.72-5.32-3.66a6.34,6.34,0,0,0-2-.64h0s-.26.19-.54,1.26c-.36,1.41-1.73,6-4.06,6-.85,0-1.39-.58-2.06-1.32s-1.83-2-3.14-2.16a3.47,3.47,0,0,0-2.71.81,6.8,6.8,0,0,1-2.16,1.06,26.18,26.18,0,0,0-3.88,1.47l-1.15.55-.67-1.09c-3-4.87-6.66-9.27-7.9-9.4a3.42,3.42,0,0,0-3,2.1c-.78,1.86.68,3.58,2,4.68.51.42,1.57,1.29,1.08,2.46s-1.66,1-3,.89a20.76,20.76,0,0,0-2.2-.15c-3.16,0-3.93-.69-5.2-2.51a2.18,2.18,0,0,0-1.78-.78c-1.33,0-2.78,1.14-4.1,3.12.27,2.35.9,2.71,5.11,3.64l.21,0,.19.11.29.07a2.05,2.05,0,0,1,1.7,1.27c.36,1.1-.5,2.08-1,2.61a7.83,7.83,0,0,1-5.23,2.6c-1.74.22-2-1.63-2.16-2.32-.19-1.09-.36-1.63-.8-1.76-1.43-.43-4.38.8-4.95,1.51-.46,1.83-3,2.62-4.05,2.88l-1.22.29-.87-2.31v-7.57h-.41v2.91H156.9V326h3.36v-4.7h2.46v-5.15h1.66l-10.63-11A4.49,4.49,0,0,0,151,305l-1.07,2.61-1.45-2.43c-1.11-1.85-2.29-6.08-3.66-11-1.27-4.53-3.38-12.1-4.6-13l-1.28-1,1.12-1.15c2.56-2.63,6.63-6.59,9.25-9.13h-3.72v-1.79h-7.84v-5h2.8v-5h9.52v-4.93h9.31c1.07-2.63,4.19-10.67,4.46-15.34a1.17,1.17,0,0,0-.56-.87c-.79-.57-2.44-.91-4.75-.17-3.76,1.22-13.08,5.35-14.38,5.93-.57.46-3.6,3.25-2.79,9.45l.13,1-.94.44c-1.81.85-9.84.5-14.41.22l-.65,8.51-1,.22a12.66,12.66,0,0,0-1.58.44,20.51,20.51,0,0,1-1.08,5.84,5.64,5.64,0,0,1-4.59,3.31,7.61,7.61,0,0,0-2.15,3.91v.11a3.42,3.42,0,0,1-1.71,2.66,3.23,3.23,0,0,1-1.41.37v2.8l-2.58-.45v2.41l-1.71-.36c-1.38-.28-5.4-.67-7.37,1A3.74,3.74,0,0,0,99,287.82c.24,6.46,1.3,8,1.65,8.47,1,1.43,2.24,8.46-.05,11.33-2.14,2.68-8.84,1.84-10.85,1.52l-1-.17-.14-1c0-.23-.8-5.72-.8-8,0-1.86,1.69-7.87,2.65-11.12H79v-2.58H61.8l.42-1.75a16.22,16.22,0,0,0,.42-4.94c-.06-.37-.11-.68-.15-.94-.26-1.55-.3-2.16.78-3.51a12.47,12.47,0,0,0,.94-1.31l.11-.17c-.11-.88-.68-3.15-1-4.43a19.43,19.43,0,0,1-.58-2.62l-.07-.18a7,7,0,0,1-.49-3.24c.11-2.07,1.88-4.22,2.77-5.18l-.35-7.21H60.28v-4.59h-3v-2.24H54.12v-7.44H50V227a3.35,3.35,0,0,1-2-1.76c-.62-1.45-.1-3.17,1.6-5.27l.14-.17.19-.12c1.33-.86,2.83-1.68,4.29-2.48,1.93-1.05,4.82-2.63,5.24-3.43a4.58,4.58,0,0,0-.84-1.19c-.94-1.12-2.7-3.19-.48-5.74,1.64-1.89.54-5,.52-5.07l-.63-1.68,1.78-.22a37.5,37.5,0,0,1,9.4,0c2.14.42,2.92-2.23,3-2.35l.34-1.21,1.24.19c.17,0,16.82,2.46,22.4-4.83l1-1.33,1.14,1.22c2.62,2.78-.79,7.31-3.69,11a75.36,75.36,0,0,0-.07,7.68l.06,1.41-2.36.12L92,216.47l-2.5-.22v1.18c3.44.27,12.88.91,17.14.13l2.21-.38c3.79-.64,3.79-.71,3.79-1.92a26,26,0,0,0-.17-2.69,18.15,18.15,0,0,1,.08-5.39,9.63,9.63,0,0,0,.06-2.35,3.52,3.52,0,0,1,.64-2.86,3.75,3.75,0,0,1,2.82-.9c1.2,0,2.16,0,3,.09a26.18,26.18,0,0,0,4.57-.08c3-.32,12.54-2.24,15.65-2.89a12.18,12.18,0,0,0,5.74-2.71c.45-.39.5-.56.5-.57a4.62,4.62,0,0,0-.48-1.08l-.35-.68c-.92-1.84.1-4.4.77-6.09.12-.29.26-.65.31-.81,0-2.4-.64-10.09-2-11.89-1.64-2.1-4.75-2.37-7.28-2.37a3.83,3.83,0,0,1-3.36-1.49c-.9-1.27-.89-3.13,0-5.66.74-2.08.55-10.58.26-15.45l-.07-1.16,6.55-1.72.52-5.56,5.4-4.16c-2.51-5.29-2.44-5.81-2-6.43,0-.11.08-.28.13-.47a16.34,16.34,0,0,1,1.31-3.53,6.43,6.43,0,0,1,5.51-3.67,1.91,1.91,0,0,0,.95-1.17,1.19,1.19,0,0,0-.27-1.34c-1-1-3.73-1.12-5.21-.94l-1,.12-.46-.86c-1-1.9-2.53-4.79-3.2-6-2,0-7.17-.34-8.73-6.49a6.11,6.11,0,0,1,.88-7.72c.48-.48.34-2,0-3.13l-5.89-1.08.29-2.81c.93,0,1.71.09,2.34.15a12.29,12.29,0,0,0,1.4.08,5.61,5.61,0,0,0,.07-1c0-3.16-.52-4.59-2.21-6.11l-.53-.47.06-.7c.34-4.09-.58-8.7-2.68-9.8a12.16,12.16,0,0,0-2.26,1.08c-.94.54-1.92,1.11-2.94.54s-1.15-1.84-1.19-3.08c-.13-4.56.54-7.3,2.34-9.46l.35-.43c1.24-1.51,2.3-2.81,3.82-2.56s2,1.67,2.15,2.15c.5,1.29,1.38,1.53,4.07,1.13,2.24-.33,9.83-1.56,9.84-1.56l1.37-.22,3.48,18.72,3.12-.45.26,1.32A4.39,4.39,0,0,0,152.42,83a1.82,1.82,0,0,0,1.46.21,25.64,25.64,0,0,1,3.3-.47,6.46,6.46,0,0,0,1.05-.14l0-.09a12,12,0,0,0,.5-1.25,8.51,8.51,0,0,1,1.89-3.37c.31-.31.29-.74.13-1.66a4.86,4.86,0,0,1-.1-1.19,51.75,51.75,0,0,0-2.34-6l-.82-1.85,2-.14c2.94-.2,6.59-.78,7.33-1.31a5.26,5.26,0,0,1,1.44-.72c0-.12-.09-.26-.15-.43-.21-.55-.36-1-.49-1.46-.06-.21-.14-.45-.2-.64a7.8,7.8,0,0,0-.9.33l-1.29.55a23.42,23.42,0,0,1-3.92,1.42c-2.08.58-3.13.87-4,.37a1.68,1.68,0,0,1-.79-1.05c0,.05,0,0-.08-.15-.53-1.21-1.92-4.43-.74-6.73a3.89,3.89,0,0,1,2.79-2,21.49,21.49,0,0,1,4.36-.57,6.54,6.54,0,0,0,2-.3,1,1,0,0,0,.69-.77,5.4,5.4,0,0,1-2.39-1.8,3.78,3.78,0,0,1-.89-1.72c-.18-.1-.47-.24-1-.47-1.78-.82-6.34-.11-8.79.53l-1,.25-.57-.81c-.22-.32-2.12-3.27-.65-8.89,1-3.82,2.47-6.21,4.5-7.31a5.74,5.74,0,0,1,4.71-.28c2.74.91,2.89,2.7,3,3.66,0,.13,0,.29,0,.39a2.38,2.38,0,0,0,.64.15c2.27.28,6.71-1,9.2-1.78-.33-1.93-1-5.78-1.66-7.81l-.21-.67c-.71-2.32-.9-2.89-1.62-3.42a5.72,5.72,0,0,0-3,.21l-.94.28-3.46-4.54,1.61-.74a28.38,28.38,0,0,0,6.24-4l.39-.35.52,0a7.69,7.69,0,0,1,5.77,2.15c2.54,2.45,3.88,6.9,4,13.23,3.08,1.81,3.37,1.52,3.63,1.26a16.38,16.38,0,0,0,1.32-1.85c1.48-2.25,2.76-4.19,4.45-3.34a3.53,3.53,0,0,1,1.37,1.44c.42.67.57.85,1,.87H192a11.57,11.57,0,0,0,3.42-.12c.18-2.21,3.15-12.15,4.08-15.22l.3-1,1,0a15.72,15.72,0,0,0,6.36-1.59A103.55,103.55,0,0,1,217,5.71l2.22-.91-.28,2.39c-.39,3.35-.55,7.49-.18,8.31a4.94,4.94,0,0,0,2,1.76c.36.23.77.48,1.25.8a7,7,0,0,0,1.94.75c1.44.41,3.62,1,3.62,3.67,0,2-1.43,6.07-2.25,8.23a5.05,5.05,0,0,1,2.59,2.46,4.28,4.28,0,0,1-.55,4.06l-.18.3-.3.18a11.78,11.78,0,0,1-2.33,1l-.58.21a5.21,5.21,0,0,0,.28.55,10.08,10.08,0,0,1,.93,1.82l.69,1a10.26,10.26,0,0,1,1.93,4.2,12.11,12.11,0,0,0,.33,1.19c.61,1.81,1.38,4.55,1.41,4.66l.08.27-.3,2.39c4.21.3,8.62.44,9.54.16.43-.13.88-1.18,1.33-3.14a8.91,8.91,0,0,1,.28-1.06,6.93,6.93,0,0,0-.66-1.59l-1.9-3.42,11.36,4.38-.52,1.33c-.57,1.46-2.62,6.31-4.94,7.47-.46.23-.81.38-1.08.49,0,.13,0,.27-.05.44a11.19,11.19,0,0,1-2.31,4.55c-.29.41-.57.8-.81,1.18-1,1.51-3.63,2.4-5.3,2.83,0,.85-.06,2-.07,2.93a9.68,9.68,0,0,0,1.95.36,9.15,9.15,0,0,1,1.15.17c1.37-.41,6.79-2.89,11.54-5.2l1.08-.52,2.92,4.09-.49.8A17.82,17.82,0,0,0,251,73.79l.23.27a6.64,6.64,0,0,1,1.19,1.83,2.07,2.07,0,0,1-.12,2.05c-.71,1-2,1-3.33.93l-.76,0a3.66,3.66,0,0,1-1.5-.36,4.54,4.54,0,0,1-.74,3.43,2.46,2.46,0,0,1-1.91.85,4.49,4.49,0,0,1-2.14-.78,4.29,4.29,0,0,0-1.67-.68c-5.2.4-6.26.85-6.47,1-1.21.84-3.42,1-4.79,1a3.58,3.58,0,0,0-1.1,1.18s-.24.83.64,4.34a10.67,10.67,0,0,0,1.24,3.08,9.41,9.41,0,0,1,3.53,2.76,14,14,0,0,0,3.07.57,7.71,7.71,0,0,1,3,.68,22.54,22.54,0,0,1,4.52,5l.64,1.14-1.09.73a15,15,0,0,1-4.57,1.48c-2.73.62-6.46,1.46-6.8,3.21-.09.47-.18.88-.25,1.25a9.31,9.31,0,0,0-.29,1.81,6.89,6.89,0,0,0,.85.87l.28.26a25.12,25.12,0,0,1,3.58,4.49c.41.62.83,1.24,1.29,1.86,1.84,2.5,3.69,8.64,4.16,10.59.3,1.25,3,2.68,6,3.19,2.22.37,9-.62,10.18-1l1.46-1.22c5.69-4.78,7.91-6.39,9.12-6.63a6,6,0,0,0,.67-.22c2-.74,6.06-2.25,11,4.33,2.6,0,3.37.45,4.26,1.15a3.65,3.65,0,0,0,.69.46c.81.4,4.94.88,8.3,1.08l1.2.07.12,1.2h0s.33,2,3.31,6l.12.16.07.19c.8,2.1.51,4.31.22,6.45a15.28,15.28,0,0,0-.16,4.66c.62,3.4-1.23,6.87-2.11,8.53-.11.21-.21.38-.26.5a10.89,10.89,0,0,0-.19,2.61,3.46,3.46,0,0,1,2.38,2.33,11.87,11.87,0,0,1,.59,2.06,2.5,2.5,0,0,0,.7,1.53c.29.32.57.57.82.8a4,4,0,0,1,1.68,3.5C301.61,173,300.65,175,299,176a7.16,7.16,0,0,1-3.33.93,4.35,4.35,0,0,0-1.27.23,6.24,6.24,0,0,1-2,.88c-1,.31-2,.62-2.34,1.35l-.46.86-1-.12c-1.94-.23-5.25,2.7-6.9,5.47l-.29.49-.55.15-1.28.34c-2.8.72-3.47.9-3.4,3.41l0,.72-.57.44a4.68,4.68,0,0,0-1.88,2.71l3,7.51,5.47,13.85-.21.52c-.74,1.87-1.57,4.11-1.78,4.84.31,1,1.92,4.17,3.83,4.83a10.74,10.74,0,0,1,6.09,5.12,2.69,2.69,0,0,1,.22,1.68,6.49,6.49,0,0,0,.69.57l.39.29c2.11,1.58,3.64,2.72,4.17,5.12A20.49,20.49,0,0,0,297,242l.44,1.08a7.36,7.36,0,0,0,.73,1.34,5.43,5.43,0,0,1,1,2.78,4.48,4.48,0,0,1-.25,2,1.39,1.39,0,0,0-.09.69,8.85,8.85,0,0,0,.78,1.08c1.35,1.71,3.61,4.57,2,8.28-.43.9-.9,2-1.39,3.11-1.82,4.21-2.55,5.73-3.54,6.22l-.38.2a12.35,12.35,0,0,1-4.25,1.38c-3,.57-4.53,1.17-6.07,3.26a18.58,18.58,0,0,0-2.52,5.3c0,2.86.71,8.5,3.23,8.8a32.32,32.32,0,0,0,4.15.22,10.45,10.45,0,0,1,4.63.77,8.36,8.36,0,0,0,1.72.5c2.1.42,2.65,1.4,2.15,3.89a14.27,14.27,0,0,0-.25,2,8,8,0,0,1-1.23,3.93c-1.46,2.69-3.43,5.87-3.51,6l-.46.75-9-.87c-2.73-.44-7.54-.55-9.2,1a16.25,16.25,0,0,0-4.09,5.69l-.31.62a29.2,29.2,0,0,0-1.7,4.35l-.35,1.22-1.25-.21c-.41-.06-4.08-.55-4.77,2.5l-.21,1-1,.14a13.74,13.74,0,0,1-3-.08c-2.47-.23-5.54-.52-7.39,1.27l-.2.2-.26.1c-2.11.83-2.68.87-3.68.6a4.67,4.67,0,0,0-1.43-.17l-.92,0c-.94,0-2-.06-2.33.3-.13.14-.51.78-.16,3l.08.53-.28.45c-.31.49-.71,1-1.17,1.6-1.64,2.12-3.68,4.75-2.82,7.53.18.57.35,1.11.51,1.62.88,2.74,1.47,4.55.39,5.77A2.54,2.54,0,0,1,237.41,344.4Zm-1.24-3.09a5.44,5.44,0,0,0,.77.2l.17,0a25.39,25.39,0,0,0-.81-2.83c-.17-.52-.34-1.07-.53-1.66-1.29-4.19,1.46-7.74,3.29-10.1.28-.35.52-.68.73-1-.27-2.22,0-3.74.92-4.76,1.2-1.36,3.05-1.3,4.54-1.26l.83,0a7.37,7.37,0,0,1,2.17.27c.23.06.36.09,1.66-.41,2.77-2.47,6.59-2.11,9.4-1.85.54.05,1.07.1,1.51.12,1.19-2.92,4.12-3.7,6.31-3.7h.11a30.7,30.7,0,0,1,1.53-3.72l.3-.6a19,19,0,0,1,4.71-6.53c3.21-3,10.65-1.84,11.49-1.7l7.2.69c.68-1.11,2-3.26,3-5.11a5.34,5.34,0,0,0,.9-2.78,16.88,16.88,0,0,1,.3-2.31c0-.23.08-.41.1-.55h0a11.22,11.22,0,0,1-2.25-.66,7.78,7.78,0,0,0-3.54-.55,34.72,34.72,0,0,1-4.48-.24c-5.81-.69-5.75-10.71-5.73-11.85l0-.33a21.53,21.53,0,0,1,3-6.41c2.27-3.08,4.88-3.79,7.81-4.36A9.77,9.77,0,0,0,295,266.3l.32-.17a38.07,38.07,0,0,0,2.35-4.89c.5-1.17,1-2.27,1.41-3.15.82-1.94-.23-3.51-1.68-5.36a5,5,0,0,1-1.37-2.54,4.21,4.21,0,0,1,.24-1.92,1.73,1.73,0,0,0,.1-.89,2.71,2.71,0,0,0-.6-1.44,10.12,10.12,0,0,1-1-1.83c-.14-.36-.29-.7-.43-1a23.48,23.48,0,0,1-1.43-4.22c-.29-1.33-1.11-2-3.1-3.47l-.4-.3c-1.4-1.05-2.1-1.89-1.79-3.29a7.76,7.76,0,0,0-4.43-3.67c-3.53-1.22-5.77-6.4-5.77-7.5,0-.26,0-.79,1.8-5.37L271,194.38v-.27a6.68,6.68,0,0,1,2.47-4.7c.15-4.13,2.76-4.81,5.52-5.52l.69-.18c1.71-2.63,5.12-6.13,8.46-6.37a7.06,7.06,0,0,1,3.47-2,5.55,5.55,0,0,0,1.1-.42,5,5,0,0,1,2.73-.81,4.75,4.75,0,0,0,2.07-.5c1.07-.69,1.39-2.28,1.48-3.5,0-.43,0-.5-.77-1.22-.3-.28-.64-.59-1-1a5.24,5.24,0,0,1-1.39-2.86,9,9,0,0,0-.46-1.61c-.21-.53-.3-.56-.65-.67A2.33,2.33,0,0,1,293,161.3a11,11,0,0,1,.07-4.42,4.47,4.47,0,0,1,.52-1.18c.74-1.38,2.27-4.25,1.83-6.69a17.64,17.64,0,0,1,.13-5.54,11.49,11.49,0,0,0,0-4.9,22.76,22.76,0,0,1-3.43-6c-2.4-.17-6.92-.59-8.37-1.31a6.4,6.4,0,0,1-1.18-.77c-.44-.35-.76-.6-3.18-.53l-.76,0-.44-.62c-3.85-5.49-6.31-4.58-8.1-3.91a7.28,7.28,0,0,1-1.1.35c-1.08.34-6.18,4.62-7.85,6a22.7,22.7,0,0,1-1.89,1.53c-1,.63-9.33,1.75-12,1.3-.75-.12-7.36-1.34-8.31-5.32-.56-2.35-2.32-7.72-3.68-9.56-.48-.65-.92-1.31-1.36-2a22.57,22.57,0,0,0-3.18-4l-.27-.25c-2-1.84-2-2.38-1.4-5.32.07-.35.15-.76.24-1.22.69-3.56,5.28-4.6,9-5.43.76-.17,1.53-.35,2.19-.53a19.33,19.33,0,0,0-2.56-2.65c-.19-.07-1.16-.19-1.8-.27-2.44-.3-4.1-.57-4.94-1.62a6.55,6.55,0,0,0-2.31-1.87c-1.69-.48-2.66-3.69-3-5-1-4.12-.8-5.47-.48-6.18.56-1.26,2.29-2.86,3.42-2.86a8.12,8.12,0,0,0,3.44-.53c1-.7,3.26-1.13,7.77-1.48a5.91,5.91,0,0,1,3.38,1l.55.3a6.65,6.65,0,0,0-.09-1.95c-.1-.65-.31-2,.72-2.7s2-.08,2.68.35a3.83,3.83,0,0,0,1,.49l.86,0h.14l-.13-.16a3.07,3.07,0,0,1-.94-2,8.11,8.11,0,0,1,1.3-3.28l-.45-.63c-10.74,5.19-11.76,5.25-12.46,4.87l-.72-.09c-1.56-.18-4.47-.5-4.47-2.88,0-1.58.11-4.31.11-4.42l0-1.11,1.09-.22c1.84-.37,4.17-1.22,4.57-1.84.26-.41.57-.84.89-1.29a9.56,9.56,0,0,0,1.81-3.28c0-.19,0-.35.06-.48A2.13,2.13,0,0,1,241.52,57c.23-.1.56-.23,1-.46.76-.38,2-2.51,3-4.65l-2.25-.87a2.1,2.1,0,0,1-.21.93c0,.1-.08.35-.15.65-.39,1.71-1.05,4.57-3.29,5.23-2.05.6-10.39,0-12-.17l-1.47-.12.6-4.77c-.21-.74-.81-2.83-1.29-4.25a14.67,14.67,0,0,1-.4-1.46,7.65,7.65,0,0,0-1.5-3.22,6.37,6.37,0,0,1-1.16-2c-.09-.17-.26-.49-.59-1.06a3.69,3.69,0,0,1-.61-3.06,3.43,3.43,0,0,1,2.46-1.8,10.85,10.85,0,0,0,1.48-.59,1.41,1.41,0,0,0,.18-1.16c-.3-.71-1.59-1.21-2.14-1.33l-1.64-.36.63-1.55c1-2.46,2.58-6.94,2.58-8.53,0-.4,0-.5-1.55-.94a9.26,9.26,0,0,1-2.74-1.12c-.45-.3-.84-.54-1.18-.76a7.53,7.53,0,0,1-2.94-2.7c-.77-1.26-.68-4.75-.44-7.69a75.85,75.85,0,0,0-7.25,3.46,17,17,0,0,1-6.71,1.92c-1.83,6.12-3.66,12.68-3.69,13.66a2.44,2.44,0,0,1-.78,1.81c-1.18,1.11-3.25,1.09-5.63.95h-.13a3.81,3.81,0,0,1-3.09-2c-.39.52-.86,1.23-1.19,1.73a16,16,0,0,1-1.69,2.3c-2,2-4.39.81-7.78-1.25l-.68-.41v-.8c0-5.88-1.08-10-3.12-12a4.79,4.79,0,0,0-3.21-1.36,29.21,29.21,0,0,1-5,3.33l.2.26c1.27-.26,3.27-.46,4.53.45,1.52,1.1,1.9,2.37,2.67,4.88l.2.66c.91,3,1.91,9.11,1.95,9.37l.19,1.16-1.1.4c-.79.29-7.82,2.8-11.63,2.31-2.93-.37-3.08-2.22-3.15-3.11-.06-.71-.07-.88-1-1.2a3,3,0,0,0-2.46.08c-1.27.69-2.34,2.6-3.11,5.54a10.3,10.3,0,0,0-.12,5.72c2.23-.48,6.94-1.28,9.53-.09,1.51.7,2.51,1.16,2.55,2.5,0,0,0,.15.3.47.69.85,1.19.95,1.31,1l1.36-.37.31,1.47c.29,1.37.1,4.18-2.66,5a9.35,9.35,0,0,1-2.75.42,18.66,18.66,0,0,0-3.85.51c-.67.14-.81.43-.87.53-.25.48-.32,1.56.68,4,.49-.11,1.17-.3,1.64-.43a20.9,20.9,0,0,0,3.57-1.29l1.3-.55c1.31-.55,2.38-.83,3.31-.39s1.3,1.45,1.61,2.48c.11.37.24.81.43,1.29a3.57,3.57,0,0,1,.24,2.87,2.39,2.39,0,0,1-1.62,1.17,2.9,2.9,0,0,0-.92.41c-1.28.92-4.52,1.41-6.8,1.65,1.93,4.55,1.83,5.22,1.78,5.57,0,0,0,.29.08.47a4.42,4.42,0,0,1-.92,4.14,6.12,6.12,0,0,0-1.23,2.33,14.32,14.32,0,0,1-.63,1.55c-.78,1.55-2,1.66-3.38,1.78a23,23,0,0,0-3,.42,4.65,4.65,0,0,1-3.61-.62,6.36,6.36,0,0,1-2.27-3l-3.28.47-3.47-18.67c-2.3.37-6.85,1.1-8.5,1.35-2,.3-5.66.85-7.13-2.9l0-.09c-.34.34-.78.88-1.11,1.28l-.36.44c-1.31,1.57-1.8,3.76-1.69,7.56v.1a13.32,13.32,0,0,1,3.25-1.43l.4-.11.4.12c4.44,1.39,5.28,8,5.07,12.2,2.2,2.22,2.65,4.55,2.65,7.73a6.88,6.88,0,0,1-.22,2l1.3.24.29.74c.18.48,1.72,4.73-.43,6.88a3.31,3.31,0,0,0-.37,4.38l.14.21.06.24c.91,3.9,3.67,4.48,6.26,4.54a2,2,0,0,1,1.83.7c.21.31,2,3.6,3.22,6,1.63-.07,4.79.05,6.56,1.83a4.08,4.08,0,0,1,.83,4.58,4.17,4.17,0,0,1-3.51,2.76,3.63,3.63,0,0,0-3,2.16,13.6,13.6,0,0,0-1.08,2.94c-.06.23-.11.42-.17.59.3.9,1.41,3.36,2.39,5.39l.5,1-6.24,4.8-.59,6.31-6.22,1.64c.17,3.4.53,12.57-.48,15.41-.81,2.27-.45,3-.36,3.08s.79.29,1,.29c2.92,0,7.09.36,9.51,3.46s2.65,13.65,2.65,13.75a5,5,0,0,1-.51,1.75c-.33.84-1.22,3.07-.87,3.77l.32.62c.74,1.39,1.65,3.11-.66,5.11a15.1,15.1,0,0,1-7,3.34c-3.14.65-12.81,2.6-15.92,2.93a28.72,28.72,0,0,1-5,.09c-.85,0-1.74-.08-2.87-.08a4.42,4.42,0,0,0-.66,0c0,.2,0,.48,0,.7a12.32,12.32,0,0,1-.1,3,15.35,15.35,0,0,0,0,4.63,28.59,28.59,0,0,1,.18,3c0,3.68-2.45,4.09-6.16,4.71l-2.17.38c-5.61,1-18.64-.16-19.2-.21L86.7,220v-6.87l2.65.23.21-4.29,2.13-.11a61.18,61.18,0,0,1,.17-7.1l0-.4.25-.32a41.09,41.09,0,0,0,3.65-5.27c-6.6,4.73-17.73,3.94-21.32,3.54-.87,1.77-2.73,3.79-5.77,3.2a29.49,29.49,0,0,0-6.93-.14,7.52,7.52,0,0,1-1.47,6.17c-.55.63-.58.76.51,2a5.32,5.32,0,0,1,1.51,2.8c.26,2.34-2.67,3.93-6.72,6.15-1.34.73-2.72,1.48-3.91,2.24-1.05,1.35-1.13,2-1.06,2.19a1.4,1.4,0,0,0,.89.37l1.28.12v9H57v7.44h3.14v2.24h3v4.59H67.3l.55,11.17-.46.45c-.95.91-2.31,2.68-2.37,3.75a4.27,4.27,0,0,0,.3,2.06,3,3,0,0,1,.26,1c0,.28.3,1.29.5,2.11,1.25,5,1.33,5.7.78,6.44-.09.12-.16.24-.25.37a15,15,0,0,1-1.13,1.57,2.8,2.8,0,0,0-.33.46c0,.06.07.44.13.81s.1.6.16,1a15.4,15.4,0,0,1-.14,4.28h16.5v2.58H94.28l-.56,1.83c-1.19,3.9-3.07,10.65-3.07,12.13s.41,4.87.63,6.58c3.05.35,6.47.2,7.15-.64,1.26-1.58.49-7-.06-7.94-.87-1.24-1.91-3.51-2.15-10a6.5,6.5,0,0,1,2.26-5.41c2.35-1.94,5.93-2,8-1.78v-2.41l2.58.45v-3.32l2,.92a1.41,1.41,0,0,0,.9.1c.08,0,.17-.23.23-.56.29-3.12,3-5.73,3.36-6l.38-.35.52,0s2.1-.12,2.65-1.55a18.67,18.67,0,0,0,.92-5.54c0-1,.82-1.73,2.77-2.26l.7-9.21,1.4.1a116,116,0,0,0,13.49.29c-.47-7.54,4-10.76,4.19-10.9l.23-.13c.43-.19,10.64-4.75,14.81-6.1,2.82-.92,5.54-.7,7.29.57a4,4,0,0,1,1.73,3.24c-.35,6.19-4.85,16.79-5,17.24l-.37.86H152.9V261h-9.52v4.33h5v1.79h7.94l-2.55,2.44c-.07.07-6.72,6.43-10.84,10.6,1.41,2.24,2.75,6.77,4.57,13.3.93,3.32,1.88,6.73,2.69,8.81a8,8,0,0,1,4.72.29l.33.11L171.06,319h-5.51v5.15h-2.46v4.7h-3.36v4.55h2.65v-2.91h6.08v9.15a2.09,2.09,0,0,0,.57-.37,3.66,3.66,0,0,1,1.87-2.12,10.35,10.35,0,0,1,5.63-1.52,7.75,7.75,0,0,1-1-3.6l0-.47.25-.4c2.45-3.94,5-4.81,6.69-4.85a5,5,0,0,1,4.18,2c.86,1.24.9,1.29,2.87,1.29H190a6,6,0,0,1-1.05-6.14,6.19,6.19,0,0,1,5.94-3.82c3,.34,7.36,6.56,9.35,9.69a23.78,23.78,0,0,1,3.25-1.15,4.32,4.32,0,0,0,1.28-.67,6.24,6.24,0,0,1,4.61-1.26c2.32.28,3.9,2,4.85,3a13,13,0,0,0,1.34-3.41,4.5,4.5,0,0,1,2-3.09c1.41-.69,3,0,4.37.58a18.28,18.28,0,0,1,6.1,4.17c2.91,2.65,1.93,4.82,1.21,6.41-.1.21-.2.44-.29.67a5.78,5.78,0,0,1-1.67,2.25,22,22,0,0,1,2.57,1.39,4.54,4.54,0,0,1,2.24,2.83,1.59,1.59,0,0,0,.08.25Zm-56.39-3.42a7.78,7.78,0,0,1,.49,1.76,4.61,4.61,0,0,0,2.09-1.08A26.58,26.58,0,0,1,179.78,337.89Zm115.53-71.7ZM122.9,262.4h0Zm23.29-130.56v0ZM160.72,74.9h0Zm77.14-2.59h0Zm-78.54-9,0,.13ZM240.48,51Z"/></svg>