<svg id="Layer_2" data-name="Layer 2" xmlns="http://www.w3.org/2000/svg" viewBox="0 0 350 350"><defs><style>.cls-1{fill:#999;}.cls-2{fill:#f90;}</style></defs><title>M_</title><path class="cls-1" d="M332.09,135.77c-1.87-.38-2.52.08-2.64-2.3-.06-1.14.38-2.41.39-3.58a11.11,11.11,0,0,0-2.15-7.2,8.25,8.25,0,0,0-5.19-3c-2.83-.37-4.2,1.28-6.48,2.51-3.8,2.07-9.55.54-13.81.21-1.62-.13-13.22-.37-16.26-2.74l-.73-1.24a1.37,1.37,0,0,1,.07-.45,1.31,1.31,0,0,0-1.34-1.73c-.53-.92-.9-1.58-1-1.81-.47-1.12-1.59-.47-3.07-.59s-9.62,1.89-10.5,1.89-3.54-.41-4.72-.59-1.42-1.53-2.18-3.42-1.59-2.24-2.6-4.43-.06-1.42,1.42-3.19,1.65-4.37,2.24-7.49,1.89-.53,2.3-2.12c-1.36-.24-2.89-4.43-4.19-4.6s-1,2.6-1.89,2.83-2.12-.06-3.78-1.06-.59-1.12-2.77-1.24-1.71,3.3-1.71,4.43.06,2.77,0,4.84-.53,3.13-.89,3.42-3.54,4.31-4.07,5-3.19,1.59-4.25,2.24-.65-.06-1.06-1.24.24-3.89.35-5.66-.24-8,.35-11.45c-.53.77-.53,1.53-2.3,1.65a6.89,6.89,0,0,1-3.84-.71c-1.18-.53-4.07-3.36-5.66-4.66s-1.77-2.3-3.42-2.89-1.53.06-2.71.59a7.4,7.4,0,0,0-2.89,3.19c-.35.89.06,1.18-.47,2.6a2.92,2.92,0,0,1-3.36,2c-1.59-.3-.35-.94-.65-2.6s-.77-1.71-1.59-1.89-1.59.71-1.89,1.06-2.77,3.36-4.37,3.42-4.13-2.36-4.13-2.36l-11.27,13.22s-3.13,3.84-3.42,4a8.92,8.92,0,0,1-2.07.35,13.61,13.61,0,0,1-4-1.59,11.52,11.52,0,0,0-3.19-1.59c-1.53-.65-.89-.41-1.59-.41a23.57,23.57,0,0,1-3.25.3c-1.06-.12-.94-.35-2.83-.71s-2.07-.06-4,.41-2.48.83-2.7,1.83.39,1.77,0,2.3A14.57,14.57,0,0,1,163,113c2.07-.41,2.3,3.3,2.77,3.6s.06,1.36-.3,2.24-.18,2.12.53,3.89.06,1.42-.41,2.07a23.94,23.94,0,0,0-1.24,3.48c-.35.89-.53,3.72-.89,4.37s-.35.59-1.95.77-.65.65-1.59,1.42-1.06.83-2.12.71-1.12-.71-2.07.29-.35,3.19-.18,4.43,2.6,1,2.71,1.83-1.53,3.78-1.53,3.78L144,134.73l2.24-2.3-2.3-1.95L149,123.4a34.13,34.13,0,0,1-3.3-3.25c.06-.24,1.83-1.95,1.65-2a37.78,37.78,0,0,1-2.89-2.48,12.18,12.18,0,0,1,.47-2.3l-1.77-.47.35-1.18-3.3-2.18-2.54.77-5.49-2.89,1.53-3-2.18-.77a27.75,27.75,0,0,1,2.18-3.19s-1.3-1.3-1.77-1.83-1.48-.94-2.71-1.89a8.4,8.4,0,0,1-2.07-3.07l-4.13-3.19,1.18-1.71-5.13-2.83-.59.35s-5.49-3.66-5.72-3.66S111,85.45,109,84.45c-1,3.13-3.19,2.89-3,3.19s-.06.94-.41,1.36a3.09,3.09,0,0,0-.94,1.83c-.18,1.06,1.24,1.77,2.3,2.36s.12,1.24-1.12,2.48c-.35,1.65,3.19,5,3.19,5s-3.25,6.26-3.3,6.49a16.18,16.18,0,0,1-1.89,2.12,11,11,0,0,1-2.3-1.36c-.35-.24-.35.35-1.18.35a7.73,7.73,0,0,1-2.07-.06c-.59-.18-.89-.53-1.95-1.3s-1.89-2-2.3-1.83a6.55,6.55,0,0,0-2.12,1.48c-.77.83-2.12,1.06-3.13,1.59s-3.48.53-4.9.35-2.12-1.59-2.6-2.89a15.49,15.49,0,0,0-2.42-3.78c-.41-.41-2.71-2.24-2.71-2.24L76,101.09c-2.77-.24-4.07,1.3-6.08,2.48s-1.65,1.42-3.84,2.07c.06.29.24.94,0,1.3s-3.13,2.89-4.54,4.19-8.38,5.9-8.56,6-2.18,3.84-2.71,4.37-6.67,5.9-6.67,5.9a16,16,0,0,1-.35,3.78c-.41,1.48-2.36,2.18-5.37,3.19a7.46,7.46,0,0,1-5.73-.65,19.71,19.71,0,0,0-2.24,3.13,48.48,48.48,0,0,0-2.12,6.2s4.19,1.53,5.66,1.95a10.11,10.11,0,0,1,3.89,2.71,2.25,2.25,0,0,1,.47,1.95,7.37,7.37,0,0,0-1.18,2.6c-.53,3-4.6,5.25-5.67,5.61s-1.12.06-1.53,1.12c-.94.3-2.36,2.86-2.36,2.86a3,3,0,0,0-.59,2.69c.24.94-.35,2.77-.3,4s-2.54.24-4.66,0c-.06.94-1.53.41-2.77.47-.18,1-3.89,3.19-4.6,4.48-.5.91-1.52,4-2.2,5.86,2.74.94,6.09,1,9.21,2.44,6.18,2.77,10.07,8.44,13.34,14.13,4-.35,6.18,2.21,9.31,4a7.13,7.13,0,0,1,1.33-.21c2.24-.12,4-2.36,5.9,0s1.77,7.44,2,9.09,2.12,0,3.42-.12.83-2.12,1.18-3,0-10,2.83-11.57c.47-2.36-1.77-5.55-3.07-6.14a1.77,1.77,0,0,1-.83-2.12,3.6,3.6,0,0,0,2,0,15.72,15.72,0,0,1,4.6-.71h3.3s-5.67-16.29.83-23.37c5.07-.47,14.75,4.6,19.95,8.73s13,11.8,13,11.8l1.89,3.42s-1.18,1.77-1.53,2.48-1.77,1.65-1.89,2-2.48-1.3-2.48-1.3-4.64.71-4.25,2.6.94,2.28.87,3.15-1.42,1.57-1.42,2.28.24,2.36-.63,3.23-1.73-.55-1.73,1-.24,3.54.87,4,2.6.63,3.46,1.26a3.14,3.14,0,0,1,1.18,2.44c0,.71-.94.47.08,1.73s2.68,2.83,3.38,3.62a19.62,19.62,0,0,0,2.6,2,10.09,10.09,0,0,1,1.89,2c.08.24.71-.31,0,.79a26.58,26.58,0,0,0-1.81,3.07c-.16.47-1.26,2,.71,2.36a12,12,0,0,1,3.62,1.26,6.33,6.33,0,0,1,1.65-.79c.71-.16.63-.47,1.65-.79s1.65.08,1.81-.71-1.42-1.57-1.42-2.44a1.14,1.14,0,0,1,1.43-1c.46.16,1.33-.31,2.27.16s.71,1.18,1.26,1.1.63-.94,1.18-.94a6.63,6.63,0,0,0,1.68-.63c.24.5.45,1,.65,1.52.09.8.14,1.68.18,2a4.31,4.31,0,0,0,1,1.84,25.6,25.6,0,0,1,.46,8.91,11.44,11.44,0,0,0-2.61,8.89c.13,1.25,2,2.13,2.65.72a31.07,31.07,0,0,0,1.26-3l.28-.11a8.31,8.31,0,0,1,11.3,11.14,1.44,1.44,0,0,0,1.6,2.09c5.12-.77,7,2.37,10.9,4.39a5.17,5.17,0,0,0,3.12.62,21.52,21.52,0,0,0-1.51,1.68c-1.33,1.85-2.12,3.19-1.87,5.5a1.44,1.44,0,0,0,2.42,1,11.41,11.41,0,0,0,3.8-7.53,5.13,5.13,0,0,0,1.06-3.93c-.45-2.65-2.33-3.55-4.8-3.26-.9.1-2.55.8-3.39.59-4.67-1.17-2.29-4.53-1.79-7.05.27-1.35-.31-2.38-.15-3.55.26-2,2.32-1.48,4.17-1.33a22.55,22.55,0,0,0,7.38-.73,1.43,1.43,0,0,0,.85-2.09l-1.83-3a19.23,19.23,0,0,0,0-2.87c-.18-1.24,0-1,.94-2.36s2.83-.24,4.13-.29,1.65-.18,2.66-.18,2.71.53,3.3-.59,1.18-.35,2-.29,1,.89,1.48,1.48,1.65.24,3,.12.65-1.06,1.48-1.77,1.06.65,1.77-.59.94-2.66,1.95-2.48,1,1.36.71,2.24a3.37,3.37,0,0,0,.71,3,34,34,0,0,0,3.48,1.89c2.24,1.24,1.24,1.65,2.36,1.83a3,3,0,0,0,2.36-.59c.47-.35,2.48-4.72,2.71-5.31s0-1.18-.65-1.95-.3-1.3-.77-2.66a13.42,13.42,0,0,1-.59-3.13c-.29-1.77-.18-.94.65-2.54s.53.35,1.77.65,0,0,.94-1.65.47-.29,3.13.29.94-.18,2.24-.83.35-.77.41-2.24.24-5.9.18-6.67a5.63,5.63,0,0,1,1.3-3c.77-1.12,1.48-2.12,1.95-2.77a1.42,1.42,0,0,1,2.07-.06,6.84,6.84,0,0,0,2.89,1.18c1.77.47,1.12,0,2.36-.3s.65-.65,1.53-1.95,2-1.53,3-2.12a7.69,7.69,0,0,1,3.72-.89,13.85,13.85,0,0,1,3.66.89,4.76,4.76,0,0,1,2.48,1.77c.77.94.24.71.06,1.95s-.06,1.06.29,1.36a5.75,5.75,0,0,0,2.42,1.12,9,9,0,0,0,2.77.3c.47-.12.35-.53.35-.77s.89-1.12.89-1.12-.59-.83-.77-.83a20,20,0,0,1,1.59-2.54s-1.24-.47-1.36-.77.18-1.12,1-2.12-.12-1.06-.12-1.06-1.3-.59-2.12-.89a5.66,5.66,0,0,1-2.54-1.59c-.47-.71-.12-.77-.41-1.42a17.78,17.78,0,0,1-.12-3.89c0-.3.24-.3.65-.18s.89,0,1.48-.59,0-.29-.18-1a3.12,3.12,0,0,1,.94-2.66c.77-.71.24-1.18,1.12-1.24s4.37,2.36,4.37,2.36l.59-.53s.41-1.42.71-2.54,1.95-2.07,2.07-3.13-.65-2.3-1-3.36,2.71-6.49,2.71-6.49,7-10.92,8.62-13.75a5.34,5.34,0,0,1-2.91-.26,2,2,0,0,1-.75.23c-4.11.38-7.71,2.33-11.45,3.9a11.81,11.81,0,0,0-2,2.9,1.6,1.6,0,0,1-1.3.94,2,2,0,0,1-2.87-1,7.47,7.47,0,0,1-.34-1.46,2,2,0,0,1-.53-2.46c1.42-3.18,2.31-6.61,5.67-8.23,2.9-1.41,6.14-1.06,9.34-.72.28-1.32,4.11-7.78,4.29-7.78s1.53,0,1.89-.47,1.77-2.77,2.36-2.6,1.12,1.18,1.71,1.3a.85.85,0,0,0,.48,0,27.52,27.52,0,0,1,5.06,8.33,1.44,1.44,0,0,0,2.37.63l3.35-3.51c7.88,8.63,19.17,13.29,30.73,14.38,5.19.49,11,.1,15.53-2.72a19.17,19.17,0,0,0,4.52-4.52,5.75,5.75,0,0,1,5.87-2.22,13.43,13.43,0,0,0,2.7.59c4.19-.19,5.95-4.66,9.34-6.32s9.59,3.56,11.67-1.53C339.35,138.29,335.25,136.42,332.09,135.77Z"/><path class="cls-2" d="M145.45,268.8a2.76,2.76,0,0,1-1-.18,3,3,0,0,1-1.9-2.5c-.29-2.74.66-4.42,2-6.28a8.22,8.22,0,0,1-1-.42,26.36,26.36,0,0,1-3.19-2c-2.19-1.55-3.78-2.67-6.84-2.22a3,3,0,0,1-2.86-1.12,2.86,2.86,0,0,1-.24-3,6.89,6.89,0,0,0-9.18-9.37c-.34.91-.71,1.78-1.11,2.6a2.54,2.54,0,0,1-2.8,1.49,3.11,3.11,0,0,1-2.54-2.66,12.89,12.89,0,0,1,2.66-9.61,24.13,24.13,0,0,0-.41-7.71A5.23,5.23,0,0,1,116,223.5c0-.15,0-.4-.06-.69s-.06-.74-.1-1.15a3.74,3.74,0,0,1-.45.13,2.18,2.18,0,0,1-1.48,1,1.77,1.77,0,0,1-1.9-1c-.09-.16-.09-.16-.19-.21a1.33,1.33,0,0,0-.78,0l-.36,0a2.64,2.64,0,0,1,.88,2.3,2.1,2.1,0,0,1-2.16,1.69,2.63,2.63,0,0,0-.63.09,1.66,1.66,0,0,0-.57.28,3.06,3.06,0,0,1-1.19.54,4.83,4.83,0,0,0-1.17.58l-.73.48-.76-.43A10.7,10.7,0,0,0,101.2,226a2.66,2.66,0,0,1-2.09-1.32,3.07,3.07,0,0,1,.2-2.77l.07-.15a17.16,17.16,0,0,1,1.7-3,10.56,10.56,0,0,0-1.32-1.34c-.2-.15-.43-.32-.68-.49a12.37,12.37,0,0,1-2.1-1.72c-.24-.26-.59-.62-1-1-.78-.79-1.74-1.78-2.45-2.65a2.26,2.26,0,0,1-.42-2.87,1.67,1.67,0,0,0-.58-1,5.89,5.89,0,0,0-1.57-.58,12.43,12.43,0,0,1-1.61-.53c-1.82-.78-1.77-3-1.73-4.62,0-.24,0-.47,0-.69a2.29,2.29,0,0,1,.68-1.81,1.86,1.86,0,0,1,1.56-.36,4.47,4.47,0,0,0,.13-1.63c0-.17,0-.32,0-.45a3,3,0,0,1,1-2,4.72,4.72,0,0,0,.39-.46,2.63,2.63,0,0,0-.18-.52,11.7,11.7,0,0,1-.66-2.14,2.48,2.48,0,0,1,.41-2c1.12-1.62,4.12-2.19,5-2.32l.56-.08.46.33c.42.3.89.6,1.26.82l.18-.16a6.38,6.38,0,0,0,.85-.84c.23-.47.75-1.29,1.14-1.9l-1.38-2.49c-1.09-1.07-8-7.83-12.72-11.56-5.19-4.13-13.91-8.46-18.38-8.46h0c-5.25,6.61-.22,21.36-.17,21.52l.65,1.88h-5.3a15.77,15.77,0,0,0-4,.56,2.57,2.57,0,0,1-.35.14c1.74,1.46,3.5,4.62,3,7.13l-.13.65-.58.32c-1.43.78-1.78,6.56-1.9,8.47a8,8,0,0,1-.31,2.41,5.85,5.85,0,0,0-.06.61c-.06.9-.22,3-2.29,3.19a4.76,4.76,0,0,0-1,.34,3.26,3.26,0,0,1-2.92.25A2.17,2.17,0,0,1,51.63,209c-.05-.37-.09-.91-.14-1.55-.13-2-.36-5.34-1.57-6.85-.57-.72-.79-.69-2.17-.14a7.9,7.9,0,0,1-2.54.67,5.72,5.72,0,0,0-1.06.17l-.56.14-.5-.29c-.83-.48-1.58-1-2.31-1.51-2.06-1.43-3.7-2.55-6.16-2.34l-.9.08-.45-.79c-3.15-5.49-6.87-10.92-12.69-13.54a23.85,23.85,0,0,0-5.22-1.45,29.24,29.24,0,0,1-3.87-.94l-1.36-.47.49-1.36c.17-.48.37-1,.57-1.6a40.46,40.46,0,0,1,1.72-4.46,11.11,11.11,0,0,1,2.73-2.68,15.36,15.36,0,0,0,1.75-1.53l.17-1,1.13-.05a9.89,9.89,0,0,1,1.31.05h.16l0-.7,1.48.17c.66.07,1.32.21,2,.33.34.07.79.16,1.15.21,0-.41.1-.83.17-1.24a7.19,7.19,0,0,0,.14-1.57,4.36,4.36,0,0,1,.75-3.76,10.15,10.15,0,0,1,2.46-3.13,2.18,2.18,0,0,1,1.7-1.33c.13,0,.29-.07.5-.14,1-.32,4.33-2.36,4.72-4.51l.05-.21a10.11,10.11,0,0,1,1.17-2.66,1,1,0,0,0-.21-.52,8.87,8.87,0,0,0-3.19-2.26c-1.51-.42-5.6-1.92-5.77-2l-1.23-.45.35-1.26a46.88,46.88,0,0,1,2.24-6.49,21,21,0,0,1,2.43-3.4l.79-.88,1,.61a6.08,6.08,0,0,0,4.54.52c2-.66,4.22-1.41,4.45-2.22a14.27,14.27,0,0,0,.3-3.36l0-.66.5-.44c2.36-2.06,6.24-5.47,6.6-5.84s1-1.65,1.46-2.4c1-1.73,1.19-2.06,1.66-2.25.9-.55,7-4.6,8.2-5.72l1.56-1.41c.87-.78,2.11-1.9,2.62-2.4,0-.08,0-.17,0-.23l-.28-1.4,1.24-.37a4.93,4.93,0,0,0,2-.91,18.35,18.35,0,0,1,1.55-1c.43-.26.83-.53,1.22-.8a8.93,8.93,0,0,1,4.26-1.86l.22-2.9L77,98.45c.55.44,2.4,1.91,2.83,2.35a16.52,16.52,0,0,1,2.75,4.29c.47,1.28.92,1.91,1.44,2a10.31,10.31,0,0,0,4.06-.2,11.4,11.4,0,0,1,1.28-.55,4.36,4.36,0,0,0,1.47-.75,8,8,0,0,1,2.6-1.81c1.13-.48,2,.38,2.68,1.07a9.08,9.08,0,0,0,1,.91l.83.63a2.45,2.45,0,0,0,.69.46,3.43,3.43,0,0,0,.89,0l.71,0a1.67,1.67,0,0,1,2-.12l.22.15,1,.67c.36-.39.77-.85.92-1,.2-.45.82-1.69,2.83-5.57-1.36-1.4-3.22-3.72-2.83-5.53l.09-.41.3-.3.52-.5.16-.16c-1.15-.67-2.54-1.71-2.25-3.41a4.31,4.31,0,0,1,1.16-2.4l.11-.12.05-.07-.13-.21.22-.68a1.68,1.68,0,0,1,1.16-1A2.71,2.71,0,0,0,107.63,84l.5-1.57,1.48.74c.4.2.92-.13,1.77-1.13a1.83,1.83,0,0,1,1.43-.85c.49,0,.65,0,5.76,3.4l.52-.31,7.22,4L125,90.17l3.38,2.61.14.37a6.76,6.76,0,0,0,1.6,2.45,16.8,16.8,0,0,0,1.43,1A6.44,6.44,0,0,1,133,97.67c.36.41,1.36,1.42,1.71,1.77l.87.87-.74,1c-.39.51-.81,1.08-1.17,1.58l.51.18,1.53.54-1.63,3.21,3.74,2,2.62-.79,4.74,3.13-.24.79,1.74.46-.38,1.38c-.13.49-.26,1-.35,1.38.61.55,1.66,1.44,2,1.74l.54.18.2.75c.21.83-.22,1.31-1.16,2.33.62.61,1.55,1.47,2.38,2.21l1,.85-5.11,7.05,2.46,2.08L146,134.64l10.3,8.93c.15-.33.28-.63.38-.88-.83-.25-2.31-.72-2.53-2.27,0-.18-.06-.39-.1-.61-.27-1.53-.63-3.63.65-5a2.38,2.38,0,0,1,2.82-.84,1.89,1.89,0,0,0,.44.11,3.27,3.27,0,0,0,.53,0l.55-.44A2.32,2.32,0,0,1,161.4,132l.39,0,.49-.05c.08-.28.2-1.1.28-1.66a12.19,12.19,0,0,1,.52-2.5c.12-.29.24-.71.37-1.16a9.08,9.08,0,0,1,1-2.63,2.72,2.72,0,0,1,.36-.4l-.11-.3c-.87-2.17-1-3.7-.53-4.95.09-.23.28-.69.36-1A4.73,4.73,0,0,1,164,116a4.72,4.72,0,0,0-.76-1.69l-6.64,1.33,5.57-3.86a12.65,12.65,0,0,0,2.83-2.94l0-.13a4.33,4.33,0,0,1-.05-1.86c.42-2,1.88-2.45,3.75-2.91l1-.27a6.4,6.4,0,0,1,3.59-.16,12.06,12.06,0,0,1,2,.51,2.7,2.7,0,0,0,.75.18,8.32,8.32,0,0,0,1.78-.16,8.81,8.81,0,0,1,1.31-.15,2.46,2.46,0,0,1,1.69.33l.45.19.91.37a9.46,9.46,0,0,1,2.56,1.38,11.42,11.42,0,0,0,3.3,1.32c.27,0,.84-.13,1.18-.21.51-.54,1.89-2.18,3-3.58l12.26-14.38,1.08,1a7.58,7.58,0,0,0,3.09,2h0c.32,0,1.54-.77,3.31-2.89,1.07-1.29,2.17-1.8,3.29-1.56,1.44.31,2.31.89,2.69,3a4.44,4.44,0,0,1,0,1.48,1.6,1.6,0,0,0,1.28-1.13,2.76,2.76,0,0,0,.21-1.13,3.86,3.86,0,0,1,.27-1.5,8.76,8.76,0,0,1,3.63-4,3,3,0,0,0,.54-.33,3,3,0,0,1,3.23-.3A5.84,5.84,0,0,1,229.81,86a9.86,9.86,0,0,0,1.21,1.2c.53.44,1.21,1,1.92,1.67a27.18,27.18,0,0,0,3.43,2.8,5.53,5.53,0,0,0,3.16.59c.65,0,.65-.05.88-.47a6.48,6.48,0,0,1,.35-.57l3.65-5.28-1.09,6.32a55.66,55.66,0,0,0-.32,8.38c0,1.29,0,2.31,0,2.93s-.14,1.33-.24,2a12.37,12.37,0,0,0-.21,3.06l.9-.42a14,14,0,0,0,2-1l.65-.81c2.53-3.16,3.2-4,3.5-4.23a5.5,5.5,0,0,0,.44-2.44c0-1.43,0-2.66,0-3.65,0-.43,0-.81,0-1.15,0-.13,0-.29,0-.48-.06-1.35-.15-3.39,1.06-4.58a2.74,2.74,0,0,1,2.16-.78c1.44.08,2,.17,2.7.88a3.17,3.17,0,0,0,.73.56,5.54,5.54,0,0,0,2.3.93l.09-.34c.23-.85.77-2.82,2.73-2.55,1.29.18,2.11,1.44,3.06,2.9a10.11,10.11,0,0,0,1.29,1.73l1.41.25-.39,1.49A2,2,0,0,1,265,96.5c0,.11-.06.25-.1.42-.11.56-.2,1.11-.29,1.64-.43,2.55-.81,4.76-2.26,6.5a7.19,7.19,0,0,1-1.39,1.29l.17.4a11.21,11.21,0,0,0,1.24,2.07,10.64,10.64,0,0,1,1.38,2.41c.15.38.29.74.41,1.07a5.81,5.81,0,0,0,.68,1.49l.33,0c1.13.17,3.47.52,4.17.52.31,0,2-.38,3.33-.66,3.74-.79,6.28-1.3,7.29-1.22a6.09,6.09,0,0,0,1,0c.87-.08,2.49-.23,3.21,1.49,0,.07.16.32.6,1.08a2.84,2.84,0,0,1,1.47,1.05,2.58,2.58,0,0,1,.39,2.14l.31.53c1.72,1.11,6.49,1.87,14.19,2.24l1.11.06c1,.08,2.09.22,3.22.37,3.42.45,7.28,1,9.8-.41.52-.28,1-.6,1.48-.91,1.58-1,3.21-2.11,5.86-1.77a9.7,9.7,0,0,1,6.1,3.46,12.33,12.33,0,0,1,2.47,8.11,11.8,11.8,0,0,1-.22,1.9,8,8,0,0,0-.17,1.6,5.12,5.12,0,0,0,.08.75l.4.06c.3,0,.64.09,1,.17h0c1.86.38,5.17,1.39,6.52,3.92A5.32,5.32,0,0,1,339,143c-1.71,4.2-5.72,3.23-8.38,2.59-1.52-.37-3.1-.75-4-.32a12.6,12.6,0,0,0-3.14,2.6c-1.72,1.75-3.68,3.73-6.76,3.87a5.8,5.8,0,0,1-2.14-.38,5.05,5.05,0,0,0-.83-.22,4.35,4.35,0,0,0-4.58,1.72l-.55.66a17.62,17.62,0,0,1-4.31,4.15c-4.15,2.58-9.68,3.57-16.41,2.93-12.2-1.16-23-6-30.6-13.73L255,149.28a2.68,2.68,0,0,1-2.49.81,3.07,3.07,0,0,1-2.23-1.9,26.23,26.23,0,0,0-4.42-7.46h-.07a2.9,2.9,0,0,1-1.48-.91c-.33.42-.71,1-.87,1.22l-.31.45c-.17.23-.64.86-2.28,1a53.2,53.2,0,0,0-3.65,6.7l-.29,1.21-1.24-.1c-3.11-.33-6-.64-8.57.59-2.32,1.13-3.24,3.35-4.31,5.92-.22.54-.45,1.08-.68,1.61a.64.64,0,0,0,.11.76l.46.36.07.58a6,6,0,0,0,.27,1.18.43.43,0,0,0,.26.3.76.76,0,0,0,.6-.05l.25-.14.29,0s.08,0,.17-.17a13.19,13.19,0,0,1,2.29-3.24l.2-.21.27-.11c.73-.31,1.46-.63,2.18-.95,3-1.34,6.16-2.73,9.69-3.06a.58.58,0,0,0,.22-.07l.52-.28.56.18a5.24,5.24,0,0,0,2,.29l3.95-1.79-2.2,3.81c-1.6,2.84-8.37,13.37-8.66,13.82a28.07,28.07,0,0,0-2.51,5.43c.08.23.19.47.29.71a6.25,6.25,0,0,1,.72,3.1,4.39,4.39,0,0,1-1.38,2.4,4,4,0,0,0-.72.93c-.3,1.14-.72,2.57-.72,2.57l-.11.39-1.73,1.55-.92-.64a27.94,27.94,0,0,0-3.16-1.92,3.14,3.14,0,0,1-.56.68,1.94,1.94,0,0,0-.53,1.16,1.53,1.53,0,0,1,.48,1,1.89,1.89,0,0,1-.67,1.43,3.35,3.35,0,0,1-1.75,1,10.26,10.26,0,0,0,.06,2.15,2.58,2.58,0,0,1,.23,1.08l0,.06a4.64,4.64,0,0,0,1.83,1c.7.25,1.67.68,2.06.85a1.84,1.84,0,0,1,1.31,1,2.12,2.12,0,0,1-.52,2.28,5.71,5.71,0,0,0-.43.59l.19.08,1.7.65-1,1.49c-.34.49-.72,1-1,1.49l.17.24.7,1-.85.85c-.16.16-.34.36-.47.51a1.84,1.84,0,0,1-1.43,1.75,8.47,8.47,0,0,1-3.4-.28,7.14,7.14,0,0,1-3-1.42c-1.06-.74-.93-1.67-.79-2.65a4.74,4.74,0,0,1,.21-.89,3.35,3.35,0,0,0-1.75-1.27l-.8-.25a8.87,8.87,0,0,0-2.46-.57,6.31,6.31,0,0,0-3,.67c-.3.18-.61.34-.92.5a3.63,3.63,0,0,0-1.61,1.22,2.81,2.81,0,0,0-.38.79,2.39,2.39,0,0,1-2,1.74,1,1,0,0,0-.37.15,2.92,2.92,0,0,1-2.68.13,8.17,8.17,0,0,1-3.38-1.42.8.8,0,0,0-.17-.1c-.46.64-1.12,1.57-1.82,2.6-1,1.49-1.06,2-1.06,2,0,.59,0,2.62-.17,6.78a1.78,1.78,0,0,0,.11.74,2,2,0,0,1-1.18,2.7,1.61,1.61,0,0,1-.65.95c-.67.47-1.46.33-2.67.06a7.2,7.2,0,0,1-1.76-.62.54.54,0,0,0,0,.28,1.53,1.53,0,0,1-.45,1.43,1.84,1.84,0,0,1-1.86.25,2.55,2.55,0,0,1-.8-.34c0,.13.05.3.09.52.13.76.17,1.18.21,1.52a5.11,5.11,0,0,0,.33,1.46A7.23,7.23,0,0,1,187,225c0,.42.06.43.15.54a3.32,3.32,0,0,1,.88,3.39c0,.05-2.2,5.19-3.18,5.92a4.4,4.4,0,0,1-3.43.86,2.13,2.13,0,0,1-1.72-1.12c-.08-.14-.22-.37-1.11-.87s-1.63-.86-2.11-1.09a7.4,7.4,0,0,1-1.58-.94,4.41,4.41,0,0,1-1.31-3,2,2,0,0,1-2.08,1.09,2.28,2.28,0,0,1-2.19,1.84l-.8.1c-1.12.15-2.52.34-3.38-.74a5.94,5.94,0,0,1-.46-.7l-.16-.26a3.59,3.59,0,0,1-.67-.16c-1,1.4-2.77,1.21-3.75,1.11a7.67,7.67,0,0,0-1.81,0c-.37,0-.79.08-1.41.11a7.22,7.22,0,0,1-1.72-.21,3.72,3.72,0,0,0-1.28-.14c-.28.39-.48.65-.63.85l-.15.19c0,.07,0,.18,0,.35a12.08,12.08,0,0,1,0,2.62v.08l1.6,2.59a2.85,2.85,0,0,1-1.71,4.21,23.69,23.69,0,0,1-7.84.77l-.77-.08a5.62,5.62,0,0,0-1.84,0s0,.07,0,.2a4.16,4.16,0,0,0,.09,1.16,6.68,6.68,0,0,1,0,2.48,15.34,15.34,0,0,1-.5,1.78c-.33,1-.71,2.18-.4,2.74a2.64,2.64,0,0,0,1.65.89,7.45,7.45,0,0,0,1.49-.31,10,10,0,0,1,1.39-.31c3.45-.4,5.83,1.25,6.37,4.43a6.4,6.4,0,0,1-1.08,4.65,12.79,12.79,0,0,1-4.21,8.08A2.83,2.83,0,0,1,145.45,268.8Zm3.35-9.48-.37.42-.54.58a9.69,9.69,0,0,0-.87,1c-1.27,1.77-1.8,2.73-1.61,4.53a.19.19,0,0,0,.07.15,10.22,10.22,0,0,0,3.33-6.64Zm-13.94-7.08c3.16,0,5.2,1.44,7.18,2.84a24,24,0,0,0,2.86,1.82,3.78,3.78,0,0,0,2.3.48l2.63-.33a3.05,3.05,0,0,0,0-1.29c-.2-1.2-.74-2.39-3.24-2.09a8.85,8.85,0,0,0-1,.23,6,6,0,0,1-2.92.32,5,5,0,0,1-3.44-2.27c-.9-1.64-.3-3.5.19-5a13.35,13.35,0,0,0,.42-1.45,4.17,4.17,0,0,0-.07-1.49,6.54,6.54,0,0,1-.1-2c.41-3.1,3.39-2.79,5-2.62l.7.07a20.94,20.94,0,0,0,6.93-.7l-2-3.12-.05-.22a3.14,3.14,0,0,1,0-1,9.64,9.64,0,0,0,0-2,2.85,2.85,0,0,1,.68-2.69c.13-.17.3-.38.51-.68,1.18-1.7,3.09-1.29,4.23-1.05a4.24,4.24,0,0,0,1,.15c.55,0,.93-.06,1.26-.09a10.29,10.29,0,0,1,2.39,0,4.77,4.77,0,0,0,1.16,0,2.24,2.24,0,0,1,3-1.08,1.83,1.83,0,0,0,.3.09,2.82,2.82,0,0,1,2.24,1.63l.1.17c.24,0,.64-.06.93-.1l.7-.09a2.91,2.91,0,0,1,.91-1.46,2.09,2.09,0,0,1,1.63-.54c.09-.19.18-.38.26-.57.44-1,1.17-2.6,3-2.28a2.38,2.38,0,0,1,1.66,1.13,3.72,3.72,0,0,1,.14,3,2.26,2.26,0,0,0,.28,1.49,5.4,5.4,0,0,0,1,.56c.51.25,1.2.59,2.23,1.16a5.31,5.31,0,0,1,2,1.68,1.53,1.53,0,0,0,1-.26,52.23,52.23,0,0,0,2.33-4.72,2.43,2.43,0,0,0-.39-.57,3.42,3.42,0,0,1-.8-2,4.55,4.55,0,0,0-.23-1.07,7.8,7.8,0,0,1-.47-2.08c0-.3-.08-.69-.18-1.28-.22-1.3-.3-1.8.32-2.66a5.35,5.35,0,0,0,.47-.76,2.1,2.1,0,0,1,1.74-1.38h0a1.49,1.49,0,0,1,1,.35v0a2.54,2.54,0,0,1,1.53-1.46,2,2,0,0,1,1.59.42,3.89,3.89,0,0,0,1.54.66l.34.07a2.44,2.44,0,0,1,.7-.64,4.35,4.35,0,0,1-.11-1.18c.19-4.82.2-6.19.18-6.5-.1-1.27.72-2.67,1.54-3.86s1.49-2.15,2-2.81a2.54,2.54,0,0,1,1.68-1,3.23,3.23,0,0,1,2.38.67,5.5,5.5,0,0,0,2.41.94l.56.13a3.7,3.7,0,0,1,1.1-.44h0A5.51,5.51,0,0,1,205,200a6.27,6.27,0,0,1,2.69-2.16c.23-.12.46-.23.68-.37a9.07,9.07,0,0,1,4.47-1.1,11,11,0,0,1,3.35.72l.71.23a6.14,6.14,0,0,1,3.18,2.24,2.18,2.18,0,0,1,.51,2.51,1.86,1.86,0,0,0-.15.53l0,.2a4.52,4.52,0,0,0,1.62.69c.74.15,1.24.23,1.57.27a2.63,2.63,0,0,1,.25-.42l-.12-.22c-.36-.7-.22-1.17.78-2.67a1.6,1.6,0,0,1-.59-.76,3.27,3.27,0,0,1,.69-2.83c-.36-.15-.77-.32-1.09-.43a6.81,6.81,0,0,1-3.24-2.14,2.64,2.64,0,0,1-.51-1.55c-.3-.7-.36-1.8-.27-4.28v-.27a1.65,1.65,0,0,1,.64-1.33,1.77,1.77,0,0,1,1.3-.31,4.57,4.57,0,0,1,1.4-3.82c.06-.06.06-.06.1-.18a1.93,1.93,0,0,1,1.89-1.44c.29,0,1.14-.08,4,1.76.12-.44.27-1,.39-1.42a5.22,5.22,0,0,1,1.37-2.12,4.36,4.36,0,0,0,.66-.84,4.93,4.93,0,0,0-.52-1.64c-.16-.37-.31-.74-.43-1.08s-.55-1.66,2.83-7.64c.09-.15,4.89-7.6,7.41-11.72l-.39-.09a3.42,3.42,0,0,1-.69.14c-3.07.29-5.86,1.52-8.81,2.83l-2,.85a10.52,10.52,0,0,0-1.61,2.35,3.05,3.05,0,0,1-2.13,1.66,3.58,3.58,0,0,1-2.73.08,3.26,3.26,0,0,1-1.91-2A8.72,8.72,0,0,1,220,161a3.5,3.5,0,0,1-.5-3.72c.23-.51.44-1,.65-1.54,1.18-2.85,2.4-5.8,5.69-7.39,2.92-1.41,6-1.27,9-1,.32-.71.89-1.82,1.89-3.57,2.34-4.11,2.5-4.11,3.33-4.11a4,4,0,0,0,.88-.08l.11-.16c1.07-1.58,2.19-3.21,3.66-2.76a3.43,3.43,0,0,1,1.44,1l.18.19.54-.24.69.78a29,29,0,0,1,5.31,8.75.3.3,0,0,0,.08.11l4.34-4.56,1,1.12c7.16,7.84,17.75,12.78,29.82,13.93,6.11.58,11-.27,14.65-2.52a15,15,0,0,0,3.62-3.54L307,151a7.18,7.18,0,0,1,7.15-2.72,7.52,7.52,0,0,1,1.31.33,3.28,3.28,0,0,0,1.13.24c2-.09,3.31-1.45,4.87-3a14.84,14.84,0,0,1,3.91-3.15c1.79-.88,3.87-.38,5.89.11,3.33.8,4.41.78,5.09-.9a2.58,2.58,0,0,0,0-2.27c-.58-1.08-2.3-2-4.59-2.48h0c-.32-.06-.6-.1-.84-.13-1.84-.25-2.8-.86-2.93-3.48a10.2,10.2,0,0,1,.21-2.22,10,10,0,0,0-1.66-7.74,6.8,6.8,0,0,0-4.27-2.44c-1.6-.21-2.53.4-3.94,1.33-.52.34-1.05.69-1.67,1-3.33,1.81-7.69,1.24-11.53.73-1.09-.14-2.13-.28-3.07-.35l-1-.06c-6-.29-13.32-.9-16-3l-.21-.17-1.06-1.81v-.39a2.8,2.8,0,0,1,.1-.76h-.78l-.4-.69c-.59-1-.86-1.5-1-1.78l-.43,0a8.68,8.68,0,0,1-1.54,0,55.79,55.79,0,0,0-6.47,1.17,29.54,29.54,0,0,1-3.92.72,44.28,44.28,0,0,1-4.59-.55l-.34-.05c-1.78-.27-2.35-1.81-2.9-3.3-.12-.31-.24-.64-.38-1a8,8,0,0,0-1.06-1.83,13.93,13.93,0,0,1-1.51-2.54c-.75-1.64-.87-2.73.64-3.81a4.66,4.66,0,0,0,1-.88c1-1.15,1.26-2.92,1.64-5.16.09-.54.19-1.11.3-1.69a3.85,3.85,0,0,1,1.12-2.33c-.25-.35-.49-.72-.74-1.1s-.46-.7-.71-1c-.22.79-.56,1.91-1.69,2.21-1.35.36-2.94,0-4.88-1.22A5.93,5.93,0,0,1,254,92c-.13,0-.38,0-.86-.07-.22.19-.3,1-.24,2.41,0,.23,0,.44,0,.6,0,.33,0,.7,0,1.11,0,1,0,2.29,0,3.77-.06,2.19-.56,3.77-1.4,4.47-.29.29-2.39,2.91-3.18,3.89l-.7.87a8.65,8.65,0,0,1-3,1.78c-.62.28-1.26.57-1.6.78a2.07,2.07,0,0,1-2,.3,1.9,1.9,0,0,1-1-1.61,3.57,3.57,0,0,0-.15-.68,10.49,10.49,0,0,1,.06-4.42c.09-.67.18-1.29.21-1.81s0-1.53,0-2.71c0-1.67,0-3.73,0-5.63l-.5.05a8.21,8.21,0,0,1-4.51-.83A22.14,22.14,0,0,1,231.05,91c-.68-.6-1.32-1.18-1.83-1.59a12.4,12.4,0,0,1-1.54-1.52,3.14,3.14,0,0,0-1.46-1.13,3,3,0,0,0-.51-.15l-.13.09a5.69,5.69,0,0,1-1,.6,6.18,6.18,0,0,0-2.16,2.42,1.11,1.11,0,0,0-.07.49,5.51,5.51,0,0,1-.39,2.08,4.31,4.31,0,0,1-4.95,2.9,2.45,2.45,0,0,1-1.7-1,2.22,2.22,0,0,1-.17-1.83,2.09,2.09,0,0,0,.08-.94,3.44,3.44,0,0,0-.17-.68l-.22,0a2.28,2.28,0,0,0-.6.56c-2.13,2.56-3.95,3.88-5.4,3.93s-2.95-.93-4-1.77l-10.35,12.14c-3.34,4.1-3.61,4.2-4,4.35a8.22,8.22,0,0,1-2.94.41,14.34,14.34,0,0,1-4.44-1.82,6.72,6.72,0,0,0-1.93-1l-1-.4-.46-.2-.27-.12h-.31a8.29,8.29,0,0,0-.87.11,9.88,9.88,0,0,1-2.53.17,5.47,5.47,0,0,1-1.37-.32,9.18,9.18,0,0,0-1.57-.41,3.72,3.72,0,0,0-2.31.11l-1.11.29c-1.31.32-1.54.5-1.58.55a.73.73,0,0,0-.06.21,1.77,1.77,0,0,0,.06.7,2.54,2.54,0,0,1-.31,2.15l-.12.17a18.31,18.31,0,0,1-1.79,2.16,8,8,0,0,1,1.17,2.54c0,.16.09.31.13.43,1,1,.36,2.68-.06,3.72-.14.34-.16,1.12.53,2.84.45,1.12.82,2.4-.5,3.37l-.09.07a12,12,0,0,0-.6,1.75c-.16.53-.3,1-.46,1.41a14.52,14.52,0,0,0-.34,1.86,8.83,8.83,0,0,1-.61,2.66c-.68,1.24-1.34,1.31-2.65,1.46l-.38,0h0a2.78,2.78,0,0,1-.85,1.11,3.38,3.38,0,0,1-3.17,1,4.29,4.29,0,0,1-.84-.18l0,0c-.31.33,0,2,.08,2.56l.08.46c.17.07.44.15.62.21.73.22,2,.59,2.13,1.86,0,.32.19,1.3-1.7,4.67l-.85,1.52-15.25-13.22,2.23-2.29L142,130.71l5.16-7.11c-2.94-2.67-3-3-2.78-3.79.11-.43.36-.73,1-1.45a26.45,26.45,0,0,1-2.08-1.91c-.27-.41-.37-.75-.07-2.08l-1.83-.49.47-1.57L140,111.08l-2.46.74L130.33,108l1.43-2.81-.64-.22-.69-.23-.22-.7c-.21-.67-.2-.94,1.68-3.47-.36-.37-.74-.76-1-1a5.74,5.74,0,0,0-.86-.59,19.57,19.57,0,0,1-1.65-1.11,9,9,0,0,1-2.37-3.3l-4.9-3.78,1.05-1.53-3-1.68-.66.4-.75-.5c-1.71-1.14-3.6-2.38-4.67-3.05a4.7,4.7,0,0,1-3.23,1.68h0a5.2,5.2,0,0,1-2.47,2.44,3.55,3.55,0,0,1-.73,1.39l-.14.16a1.51,1.51,0,0,0-.46.86,6.65,6.65,0,0,0,1.37.9l.2.11a2.09,2.09,0,0,1,1.17,1.57c.14,1.1-.66,1.87-1.5,2.68l0,0a13.36,13.36,0,0,0,2.7,3.36l.79.73-.5,1c-1.45,2.8-3.08,6-3.24,6.35h0a12.94,12.94,0,0,1-2.42,2.8c-.88.58-1.68.13-3.27-.95a2.63,2.63,0,0,1-1,.18l-.64,0a5.29,5.29,0,0,1-1.83-.14,4.68,4.68,0,0,1-1.61-.94l-.76-.57a11.33,11.33,0,0,1-1.36-1.21l-.16-.16a4.76,4.76,0,0,0-1,.83A6.34,6.34,0,0,1,90.37,109a9.1,9.1,0,0,0-1,.41c-1.85,1-5.7.51-5.74.51-2.48-.31-3.4-2.85-3.75-3.81a14.73,14.73,0,0,0-2.09-3.26l-.51-.44,0,.26-1.42-.12c-1.64-.14-2.56.5-3.85,1.38-.44.3-.9.61-1.39.9a15.43,15.43,0,0,0-1.34.88,6.76,6.76,0,0,1-1.69.95,2.17,2.17,0,0,1-.35,1.1A27.9,27.9,0,0,1,64,110.77l-1.54,1.39c-1,.92-6.69,4.87-8.54,6-.18.29-.52.87-.77,1.32a18.47,18.47,0,0,1-1.91,3c-.48.48-4.72,4.2-6.25,5.54a15.13,15.13,0,0,1-.41,3.52c-.63,2.26-3.25,3.14-6.28,4.15a8.59,8.59,0,0,1-5.78-.25,15.35,15.35,0,0,0-1.39,2.05,34.63,34.63,0,0,0-1.64,4.64c1.34.48,3.4,1.21,4.32,1.46a11.42,11.42,0,0,1,4.6,3.17,3.65,3.65,0,0,1,.73,3.3,1.92,1.92,0,0,1-.37.66,8.87,8.87,0,0,0-.78,1.85c-.72,3.54-5.13,6.1-6.59,6.59-.25.08-.45.14-.62.18l0,.11-.25.64-.65.2a10.64,10.64,0,0,0-1.54,2.19l-.05.09c-.55.85-.52,1.09-.4,1.57a7.06,7.06,0,0,1-.09,2.69,9.41,9.41,0,0,0-.16,1.6A1.9,1.9,0,0,1,27,170c-.92.79-2.22.53-3.87.2l-.89-.17a3.35,3.35,0,0,1-2.45.4l-.21,0a15.85,15.85,0,0,1-2.13,1.9,12.57,12.57,0,0,0-2,1.82c-.32.58-1,2.58-1.54,4l-.07.19c.67.16,1.38.3,2.12.45a26,26,0,0,1,5.83,1.64c6.29,2.82,10.26,8.33,13.56,14,3,0,5.07,1.47,7.1,2.88.54.37,1.09.76,1.66,1.11a7.63,7.63,0,0,1,1-.12,5.63,5.63,0,0,0,1.65-.48c1.4-.55,3.52-1.39,5.43,1,1.77,2.21,2,6,2.19,8.43,0,.22,0,.43,0,.62l.14-.06a7.59,7.59,0,0,1,1.48-.5c0-.19,0-.44.06-.62a5,5,0,0,1,.24-1.43c0-.24.08-.94.12-1.56.26-4.25.69-8.5,2.7-10.31a6.21,6.21,0,0,0-2.3-4.08,3.09,3.09,0,0,1-1.59-3.83l.4-1.31,1.32.36a2.75,2.75,0,0,0,1,.09,16.64,16.64,0,0,1,5.21-.84h1.38c-1.32-4.66-4-16.71,1.7-22.91l.37-.4.54-.05c5.88-.56,16,5.07,21,9,5.19,4.13,12.77,11.59,13.09,11.9l.15.14,2.4,4.36-.48.72c-.44.66-1.22,1.87-1.44,2.33a6.28,6.28,0,0,1-1.5,1.69l-.38.34-.16.46-.72.27c-.56.19-1.13.2-3.2-1.19a6.62,6.62,0,0,0-2.51,1,8.87,8.87,0,0,0,.48,1.51,3.8,3.8,0,0,1,.37,1.9,3.57,3.57,0,0,1-1.13,2.06l-.27.31v.12c0,1,.12,2.73-1.05,3.9a2.36,2.36,0,0,1-1.33.69s0,.06,0,.08a7.63,7.63,0,0,0,.11,2,12,12,0,0,0,1.15.36,7.55,7.55,0,0,1,2.49,1A4.57,4.57,0,0,1,96,208.94a2,2,0,0,1-.2.89c.62.76,1.51,1.67,2.23,2.41.43.44.8.82,1.06,1.11a10.43,10.43,0,0,0,1.62,1.3c.29.2.56.4.79.57a13.76,13.76,0,0,1,1.9,1.94,1.48,1.48,0,0,1,.66.59,2,2,0,0,1-.35,2.19,25,25,0,0,0-1.66,2.76,4.39,4.39,0,0,1-.17.41l-.05.12a13.45,13.45,0,0,1,3.16,1,5.87,5.87,0,0,1,1.4-.56.6.6,0,0,0,.18-.09,4.41,4.41,0,0,1,1.36-.66l.13,0a2.74,2.74,0,0,1-.74-1.75,2.4,2.4,0,0,1,1-2,2.64,2.64,0,0,1,2.13-.43l.19,0a4,4,0,0,1,2.41.3,3.26,3.26,0,0,1,.63.41,1.86,1.86,0,0,1,1.17-.4l.63-.29.53-.24,1.24-.49.57,1.21c.25.53.47,1.06.69,1.6l.07.18,0,.19c.05.49.09,1,.13,1.41,0,.26,0,.48.05.61a3.91,3.91,0,0,0,.68,1.08l.23.26.08.34a27,27,0,0,1,.49,9.4l-.05.41L120,235a10,10,0,0,0-2.3,7.84.19.19,0,0,0,0,.07,29,29,0,0,0,1.12-2.73l.24-.69.7-.2a9.73,9.73,0,0,1,13.25,13,.38.38,0,0,0,0,.09s.06,0,.14,0A11.64,11.64,0,0,1,134.87,252.24Zm18.26-17.18Zm-51.7-11.92Zm8.69-2.23Zm.5-2.15h0Zm-6.87-1.11a1.62,1.62,0,0,1,.13.27A1.3,1.3,0,0,0,103.74,217.66Zm-47.41-12.5,0,0Zm42.56-16.23Zm144.92-49.59ZM157,136.54ZM53.8,118.24a2.8,2.8,0,0,1-.37.19A1.43,1.43,0,0,0,53.8,118.24ZM165,117.75h0Zm.17-9.13h0Zm23-1.07h0Zm-83.81-1a1.37,1.37,0,0,0-.06.15Zm145.31-4.46h0ZM214.79,90.69Z"/></svg>