<svg id="Layer_1" data-name="Layer 1" xmlns="http://www.w3.org/2000/svg" viewBox="0 0 350 350"><defs><style>.cls-1{fill:#999;}.cls-2{fill:#f90;}</style></defs><title>M</title><path class="cls-1" d="M225.36,320.53c2.27-21.89,7.1-33.9,8.05-38s5.64-9.23,5.64-9.23l5.27,3.66,3.37-3.15-1-1.76s4.54-5.56,4.76-5.56,5.2,3.81,5.78,3.66,2.6-2.53,3.67-3.58h0l-3-3a23.46,23.46,0,0,0,3-4c-.81-1.17-2.49-2.42-4.1-1.83-.88-1.54-3.73-.44-3.73-.44s.22-.66-1.83-2.34-9.88-7-9.88-7,4.47-6.15,5.05-6.15,5,3.51,5.2,3.29,1.76,0,1.76,0l-5.78-5.71,4.76-5.27,2.56-3.15h2.42l4.32-4.69a13.24,13.24,0,0,1,5.71,2c2.64,1.76,4.32-.59,4.25-1.32s-.73-1.76,1.1-2.31,2.2-.62,2.12-2.23,3.08-4,4.32-3.66.29-1,1.46,2.49,1.76,3.81,2.49,3.08,3.37-4.54,4-4.32,1.68,1.32,2.86,0,.51-1.39,1-3.66,0-.81-1.17-2.64-2.71-.15-3.73-2.49-1-4.1,2-4.25,3.44-1.46,2.78-2.34-2.27-1.83-1.76-2.42c1-2.2,4.17-4.76,4.17-4.76,3.88-1,5.64.51,6.88-.37s1.24-3.08.73-5.27c0-3.51,4.32-3.66,6.24-4.1s.86-1.24.42-1.68-1-1,1.1-2.49a4.69,4.69,0,0,0,3.21-3.13h0s-5-1.41-5.77-2.21-1.9,1.39-4.61-1.1S287,172,283.28,173.36c-2.56,1.1-2.64,2.66-4.1,3.34s-3.08,1.21-1.83-3.7c.07-2.42,2.64-7,3.37-7.48s-6.15-3-6.15-3-9.3,8.13-8.64,9.81,1.62,4.32,0,4.32-13.22-2.71-13.22-2.71V169s-4.83,1.83-7.18,1.54a100.16,100.16,0,0,1-10.84-3.44l-4.17-3.59-1.54,2.86,2.05,3.88a10.37,10.37,0,0,1-6.66,3.08c-3.88.07-12.59-.07-14.42.15s-6.08,2.49-6.08,2.49-4-2.78-4-5.71c1.76-2.49,4.76-3.15,5.42-5.56s-.07-4-1.39-4.39-5.42,1-6.08,2.27c-1.39-.88-2.05-5.42.88-6.22,2.42-.37,5.13,2.12,4-1.61s-1.17-8.86.51-9.15c2.86.73,3.29,1.24,5.86,1.39s5.56,1.39,6.81-1.39a9.53,9.53,0,0,1,4.76-4.69c-3.08-.88-8-3.22-8.71-6.3.59-1.68,2.27-5.64,8.93-5.42s12.52,1.9,15.45,2.12,2.12-4.1,2.71-5.35a4.79,4.79,0,0,1,2.78-2.05c.51-.15-2.71-7.25-2.71-7.25a9,9,0,0,1-2.49-2.42c-1-2.56-1.68-7.32-3.51-7.91s-5.42-5.71-8.42-5.05c4.17-2.2,4-3.15,5.27-2.86s2.12,4.1,2.12,4.1,6.15.07,6.74-.73.44-10.32.44-10.32H232.1a19.56,19.56,0,0,0-4.32-2.2c-2.34-.81-6.22-2-6.22-2S215.4,79.27,215,75.39c0-4,.37-5.49-1-9.23a85.36,85.36,0,0,0-4-9.74,6.41,6.41,0,0,0,.59,4c.15.22,3.15,5.2,2.05,7.91-1,1.76-.29,2.64-2.49,2.56a4.89,4.89,0,0,1-4.54-2.86c-1.1-1.9-2.49-2.12-4.25-2.93A30,30,0,0,1,197,62.28s-5.49.29-6.81,1.24a6.56,6.56,0,0,1-4.83,1.54c-2.71,0-9.08-6-9.08-6s-1-4.83.73-5.93,2.27-2.49,2.12-2.93-5.42,0-5.42,0-35.8,4.25-41.74,1.24c-4-2.49-4.47-8.27-4.39-10.84-3.51-.66-10.91-1.1-12.45-5.86-2.2-2.71-5.71-3.81-3.73-6,2.05-2.56,6.08-8.79,5.56-12.52-1.1-4.25-2.49-8.79-3.88-9.3a32.84,32.84,0,0,0-5.78-.73S89,11.76,78.26,19.37c-10.76,5.86-19.18,7.69-20.65,9a24.94,24.94,0,0,0-3,3.51s-.37,4-4.61,8.93c-2.64,3.22-5.49,4.1-7.25,5.64s-4.1,3.15-4.1,3.15-.44,1.1,1.68,4.83a14.37,14.37,0,0,1,2.27,6.81c.37,2.12,3.22,5.93,3.73,6.66s-2.12,6-2.2,6.3,3.22-.37,3.08.66c-1.76,2.49-3.37,4.76-3.44,6s-5.42,5.05-5.49,7.83c.07,2.34-.73,1.54.59,3.15s1.61,4.76,3.15,5.27c1.61-.59,2.93-1.17,3.59-2.49s1.68-2.71,2.71-2.93a6.12,6.12,0,0,0,3.44-3.29c.81-1.76.66-4.76,1.17-5.35s2.49-1,4-1,11.13-.73,13.4-1.24,14.64-1.68,17.21-1.17,5.64.81,6.3,6.44c1.39,3.44,2.34,3.44,3.88,4.61s5.64,1.61,6.08.73c.44-2.86.37-8.64,1.24-9.23,1.61-.22,10.4,1.1,10.76,1.68.44.88,1.1,12.67,1.1,12.67s7.69,4.76,10.54,5.56,27.82,9.08,30.09,11.64c2.12,3.08,3.37,4.47,4.25,5.13s1,1.54-.59,2.2-2.71.81-2.71,2.56-.73,2.2-2.86,2.93-4,3.08-2.78,7.69a49.61,49.61,0,0,0-2,4.83c-1,2.2-1.46,9.37-1.54,10s-7.69,2.49-9.67,2.42-2.86.44-2.12,2.71c-.37,2.05-3.44,9.08-4.91,9.74s-3.81,1-4,2.42-1.54,12.89-1.54,12.89-.81,7.69-2.2,10-1.32,8.05-1.32,8.27-1.76,22-1.76,22,1,20.5,1,22.48a63.39,63.39,0,0,1-1.24,10.1,101.41,101.41,0,0,0-1.32,12.08,13.16,13.16,0,0,0,2,6.81c1.17,1.68,6.15,9,6.37,13.47s-.73,8.42.15,10.47S133.62,307.64,135,309s8.71,8.57,11.42,16.69,5.71,11.93,6.88,13.18,2.49,3.59,3.66,3.51,15.74-4.69,16.84-4.39c2.56,1,11.42,2,11.42,2s11.2,1.54,14.64,2.93a15.06,15.06,0,0,0,8,.59c1.46-.15,6.44-1.46,9.08-1.46a18.74,18.74,0,0,0,5.44-1.23A205.05,205.05,0,0,1,225.36,320.53Z"/><path class="cls-2" d="M204.53,345.22a13.71,13.71,0,0,1-5.18-1c-2.69-1.09-11.24-2.42-14.31-2.84-.87-.1-8.62-1-11.49-2-1.25.13-6.78,1.73-10.14,2.7a57.51,57.51,0,0,1-6.36,1.7c-1.59.09-2.72-1.37-3.82-2.79-.34-.44-.67-.86-1-1.17-1.22-1.3-4.37-5.23-7.2-13.7-1.16-3.48-4-9.08-11-16l-.1-.1c-1.09-1.1-2.82-5.1-5.62-12.11-.4-1-.72-1.82-.91-2.25-.65-1.51-.52-3.57-.37-5.95a44.78,44.78,0,0,0,.11-5c-.15-3.13-3.26-8.63-6.12-12.73a14.53,14.53,0,0,1-2.23-7.67,100.42,100.42,0,0,1,1.36-12.38,63,63,0,0,0,1.2-9.75c0-1.92-1-22.2-1-22.41v-.19c.48-5.93,1.72-21.43,1.75-22,0-1.87.11-6.57,1.51-8.93.9-1.51,1.71-6.6,2-9.46,0-.14,1.39-11.52,1.54-12.89.2-1.94,2.21-2.64,3.68-3.15.39-.13.77-.27,1.1-.42.91-.66,3.48-6.2,4-8.39a3.45,3.45,0,0,1,.31-3.07,3.79,3.79,0,0,1,3.33-1.12,38.33,38.33,0,0,0,8.26-1.8c.29-3.34.77-7.91,1.59-9.79.38-.88.63-1.58.85-2.21a17.49,17.49,0,0,1,.92-2.27c-1.1-5.14,1.21-7.93,3.82-8.83,1.9-.66,1.9-.76,1.9-1.59,0-2.5,1.66-3.13,3-3.64l.56-.22a27.3,27.3,0,0,1-4.2-5.13c-2.12-2.09-24.79-9.88-29.37-11.17-3-.84-10.1-5.23-10.91-5.72l-.63-.39,0-.74c-.26-4.74-.65-10-.91-11.74a59.85,59.85,0,0,0-8.63-1.29c-.19,1-.32,2.83-.41,4.16s-.19,2.81-.35,3.88l0,.22-.1.2a2.21,2.21,0,0,1-1.59,1.12,9.82,9.82,0,0,1-6.62-1.36c-.28-.21-.54-.38-.78-.54-1.38-.91-2.37-1.72-3.56-4.67l-.07-.18,0-.19c-.5-4.32-2.38-4.68-4.75-5.14l-.41-.08c-2.27-.45-14.37.66-16.62,1.16-2.47.56-12.32,1.28-13.71,1.28a8.32,8.32,0,0,0-2.81.46c-.07.3-.13.84-.18,1.26A13.13,13.13,0,0,1,53,89a7.48,7.48,0,0,1-4.43,4.09c-.23,0-1,.67-1.74,2.18-.9,1.8-2.58,2.54-4.37,3.19l-.46.17-.47-.16C40,98,39.43,96.41,38.83,94.9a8.76,8.76,0,0,0-1.06-2.14c-.87-1.07-1.25-1.59-1-2.75a4.46,4.46,0,0,0,.1-1.25c.06-2.31,2.14-4.48,4-6.39a16.67,16.67,0,0,0,1.54-1.74c.14-1.25,1.05-2.77,2.53-4.92-.77,0-1.39,0-1.86-.57l-.44-.55.17-.72a6.36,6.36,0,0,1,.42-1A27,27,0,0,0,45,68.42c-1.57-2.19-3.41-4.95-3.75-6.93-.07-.4-.12-.75-.16-1.1a11.94,11.94,0,0,0-1.94-5.25c-2.14-3.76-2-5.41-1.77-6.06l.16-.4.35-.24s2.3-1.58,4-3a17.1,17.1,0,0,1,2.38-1.64,16.86,16.86,0,0,0,4.7-3.83c3.87-4.48,4.3-8.14,4.3-8.17l0-.37.21-.31a26,26,0,0,1,3.21-3.76c.77-.7,2.29-1.25,5.05-2.25a110.94,110.94,0,0,0,15.79-6.9c10.83-7.63,28.65-13.1,29.41-13.33l.24-.07h.25a31.06,31.06,0,0,1,6.2.82c1.44.53,2.73,2.43,4.76,10.27l0,.16c.58,4.23-3.58,10.75-5.86,13.6a1.24,1.24,0,0,0-.27.38,7.82,7.82,0,0,0,1.5,1.44,17.49,17.49,0,0,1,2.5,2.41l.17.21.08.25c1.06,3.28,6.25,4.09,9.69,4.63.61.1,1.18.18,1.67.28l1.19.22,0,1.21c0,1.19,0,7.22,3.67,9.56,4.21,2,26.71.27,40.88-1.41,5.88-.49,6.57-.13,6.93,1,.44,1.31-.72,3.28-2.69,4.56-.39.33-.47,2.28-.19,4,2.83,2.61,6.5,5.3,7.77,5.3a5.21,5.21,0,0,0,4-1.26c1.54-1.12,6.19-1.44,7.57-1.52l.53,0,.42.32A28.93,28.93,0,0,0,202,63.85l.93.4a6.93,6.93,0,0,1,4,3.11,3.52,3.52,0,0,0,3.36,2.15,3.64,3.64,0,0,0,.48,0l.07-.24a8.49,8.49,0,0,1,.6-1.49c.61-1.69-1.23-5.43-1.94-6.54a7.65,7.65,0,0,1-.75-5.25l.73-2.17,1.62,1.62c.84.84,3.79,8.66,4.36,10.27a18,18,0,0,1,1.06,7.63c0,.6,0,1.25,0,2,.31,2.73,4.17,8.39,6,10.79,1.09.33,3.93,1.21,5.83,1.86a20.79,20.79,0,0,1,4.29,2.12h8.14l0,1.4c.15,10-.43,10.79-.71,11.18s-1,1.38-7.81,1.32a6.48,6.48,0,0,0,1.38,1c2.06.66,2.89,3.6,3.7,6.44.23.8.44,1.55.66,2.17a7.79,7.79,0,0,0,2,1.86l.36.23.18.39c3.28,7.23,3,7.8,2.74,8.39l-.27.59-.66.21a3.5,3.5,0,0,0-1.89,1.29,7.76,7.76,0,0,0-.15,1.17c-.14,1.57-.45,5.23-3.95,5-1.14-.08-2.64-.37-4.38-.69a71.45,71.45,0,0,0-11-1.43c-4.92-.17-6.62,2.11-7.39,4,.82,1.95,4.39,4,7.6,4.9l3.63,1-3.42,1.61a8,8,0,0,0-4.07,4c-1.42,3.16-4.55,2.71-6.61,2.41-.56-.08-1.08-.16-1.57-.18a13.13,13.13,0,0,1-3.92-.78c-.43-.14-.91-.29-1.5-.46a14.93,14.93,0,0,0,.49,7.19c.34,1.15.57,2.43-.26,3.3s-2.06.6-3,.36a5.6,5.6,0,0,0-1.81-.25,1.31,1.31,0,0,0-.87,1.13,3.6,3.6,0,0,0,0,1.51c1.89-1.19,4.79-1.89,6.2-1.42,1.68.56,3.3,2.5,2.31,6.11-.5,1.83-1.87,2.83-3.21,3.8a11.84,11.84,0,0,0-2.12,1.82c.27,1.33,1.67,2.78,2.65,3.61a23.33,23.33,0,0,1,5.75-2.22c1.23-.15,4.93-.14,8.85-.14,2.17,0,4.28,0,5.72,0a8.49,8.49,0,0,0,4.92-2l-1.89-3.57,2.73-5.07,5.33,4.58a103.52,103.52,0,0,0,10.36,3.28c1.49.13,4.71-.82,6.41-1.46l1.92-.73v5.83c4.65,1.08,9.54,2.12,11.27,2.36a13.74,13.74,0,0,0-.75-2.33c-.31-.78-1-2.61,9-11.4l.64-.56.79.29c7,2.6,7,3.27,7.12,4.11a1.5,1.5,0,0,1-.65,1.38c-.62.63-2.71,4.45-2.77,6.36l0,.3a12.35,12.35,0,0,0-.39,2.18l.25-.11a2.83,2.83,0,0,0,.92-.86,7.84,7.84,0,0,1,3.23-2.5c4.21-1.49,16.53,1,19.75,4,1.14,1.05,1.63.91,2.24.72a2.22,2.22,0,0,1,2.46.47,29.7,29.7,0,0,0,5.1,1.8l1.38.38-.39,1.37a6,6,0,0,1-3.89,4,6.79,6.79,0,0,0-.55.45,2.29,2.29,0,0,1,.81,2.22c-.33,1.21-1.7,1.53-2.15,1.63s-.66.13-1.05.2c-2.68.47-4,1-4.08,2.38.71,3.19.25,5.46-1.33,6.57a4.18,4.18,0,0,1-3.19.44,10.34,10.34,0,0,0-3.87.08,16.51,16.51,0,0,0-3.31,3.61l.34.32a8.37,8.37,0,0,1,1,1.09,2.5,2.5,0,0,1,.31,2.6c-.4.84-1.44,1.88-4.15,2-.84,0-1.14.24-1.18.31s-.24.42.44,2c.23.53.27.54.86.62a3.54,3.54,0,0,1,2.77,1.67,1.38,1.38,0,0,0,.56.59c1.34.73,1.08,1.89.8,3.12a8.08,8.08,0,0,0-.21,1.57,3.69,3.69,0,0,1-1.14,2.72,3,3,0,0,1-3.86.67c-.55.57-1.42,1.68-1.89,2.27s-.92,1.17-1.19,1.43a2.08,2.08,0,0,1-2,.69c-1.26-.3-1.94-1.69-2.81-4.32-.22-.67-.37-1.17-.48-1.55-.69.09-2.48,1.59-2.55,2.23.12,2.52-1.06,3-3,3.59l-.14,0-.24.08,0,.14a4.93,4.93,0,0,1,.11.59,3.5,3.5,0,0,1-1.81,3,4.21,4.21,0,0,1-4.63-.33,11.64,11.64,0,0,0-4.38-1.66L258,232.4h-2.36L253.48,235l-3.9,4.32,7.87,7.77-4.25-.6a8.88,8.88,0,0,0-1-.08c-.82.45-1.71-.19-3.79-1.66-.52-.37-1.27-.9-1.81-1.25-.72.81-2,2.46-3.24,4.11,2.3,1.56,7.17,4.89,8.77,6.21a9.81,9.81,0,0,1,1.73,1.74,4.28,4.28,0,0,1,3.44.58,5.58,5.58,0,0,1,4.76,2.58l.42.61-.26.69a15.88,15.88,0,0,1-2.39,3.46l2.08,2.08-1,1,1,1-.16.16c-.3.3-.65.68-1,1.07-1.92,2-2.49,2.56-3.14,2.72-.87.23-1.58-.15-5.39-2.84l-.53-.37c-.76.87-2,2.39-3.27,3.9l1,1.88-5,4.68-5.16-3.58c-1.32,1.6-3.87,4.94-4.5,7.65-.21.9-.58,2.12-1.06,3.68a167.66,167.66,0,0,0-7,34.15l0,.12c-2.14,11.16-2.84,18.74-3,20.15l-.08.91-.86.31a19.83,19.83,0,0,1-5.92,1.32,38.84,38.84,0,0,0-6.23,1c-1.19.24-2.12.44-2.71.5l-.6.07A22,22,0,0,1,204.53,345.22ZM173.7,336.6a1.81,1.81,0,0,1,.48.06l.13,0c2,.73,8.67,1.62,11.09,1.9.49.07,11.45,1.58,15,3a12.51,12.51,0,0,0,6.63.57l.68-.08c.44,0,1.4-.24,2.42-.45a39.53,39.53,0,0,1,6.8-1,14.69,14.69,0,0,0,4.11-.86c.26-2.66,1-9.72,2.9-19.46A170.27,170.27,0,0,1,231,285.7c.46-1.5.82-2.69,1-3.49,1-4.41,5.77-9.64,6-9.86l.84-.92,5.35,3.71,1.73-1.62L245,271.9l.6-.74c5-6.09,5-6.09,5.86-6.09.53,0,.66.1,2.37,1.3.82.58,2.36,1.67,3.21,2.16.47-.45,1.17-1.19,1.64-1.68l.25-.27-3-3,.9-1a32.79,32.79,0,0,0,2.33-2.9,2.05,2.05,0,0,0-1.89-.68l-1.12.41-.59-1c-.1-.17-1.14-.15-2,.18l-2.8,1.08.81-2.42a6.94,6.94,0,0,0-1.24-1.23c-2-1.62-9.7-6.82-9.78-6.88l-1.22-.82.86-1.19c4.89-6.73,5.47-6.73,6.2-6.73h.17l-1-1,5.67-6.28,2.94-3.62h2.47l4.36-4.73.68,0a14.65,14.65,0,0,1,6.4,2.21,1.62,1.62,0,0,0,1.4.35,1.24,1.24,0,0,0,.62-.51l0-.08a2.72,2.72,0,0,1,2.15-3.56l.14,0c.36-.11.76-.23,1-.32,0-.09,0-.23,0-.45-.07-1.59,1.28-3,2.09-3.63.53-.44,2.39-1.85,4-1.48h0a1.49,1.49,0,0,1,1.11.15,1.67,1.67,0,0,1,.77,1.2,21.37,21.37,0,0,0,.6,2.07c.29.88.52,1.47.7,1.86l.41-.52c2.16-2.74,3.16-3.93,4.51-3.48a4.26,4.26,0,0,1,.71.33,2.59,2.59,0,0,0,.49.23s.06-.05.16-.16c.4-.45.4-.45.43-1a11,11,0,0,1,.27-2l.08-.35a4.57,4.57,0,0,1-1.06-1.21c-.2-.31-.28-.32-.79-.39a3.46,3.46,0,0,1-3-2.29c-.55-1.25-1.17-3.09-.25-4.58a4,4,0,0,1,3.45-1.65,4.22,4.22,0,0,0,1.53-.29c-.15-.16-.34-.33-.51-.49-.64-.59-2.1-1.94-1.15-3.3,1.13-2.4,4.17-4.86,4.52-5.14l.24-.19.3-.07a13.1,13.1,0,0,1,5.22-.2,3.59,3.59,0,0,0,1.19.06c.44-.31.67-1.62.17-3.79l0-.32c0-4.19,4.34-4.95,6.43-5.31l.17,0a2.07,2.07,0,0,1-.36-1.32c.07-.92.7-1.74,2.1-2.76l.17-.12.19-.07a4.16,4.16,0,0,0,1.58-.94,18.66,18.66,0,0,1-4.3-1.77c-.87.26-2.64.76-4.94-1.36s-13.71-4.53-16.8-3.44a5,5,0,0,0-2.07,1.67,5.35,5.35,0,0,1-1.9,1.62c-.73.34-2.24,1-3.41.08s-1.15-2.38-.43-5.28a18.12,18.12,0,0,1,2.76-7c-1-.46-2.43-1.07-3.84-1.61-3.41,3-7,6.7-7.51,7.94.72,1.88,1.3,3.78.44,5a2.22,2.22,0,0,1-1.9.95c-1.73,0-11.58-2.29-13.54-2.75l-1.09-.26V171a16.64,16.64,0,0,1-5.93,1l-.19,0a100.47,100.47,0,0,1-11-3.5l-.22-.09-3-2.59-.34.64,2.17,4.1-.68.74a11.78,11.78,0,0,1-7.68,3.53c-1.45,0-3.58,0-5.78,0-3.49,0-7.44,0-8.5.12a25.36,25.36,0,0,0-5.58,2.33l-.77.41-.71-.5c-.47-.33-4.56-3.31-4.56-6.87v-.45l.26-.37a12.48,12.48,0,0,1,3.07-2.86c1.18-.86,1.91-1.43,2.14-2.26.38-1.4.2-2.45-.47-2.68-.84-.2-3.92.9-4.37,1.58l-.7,1.4-1.31-.86c-1.45-.92-2-3.34-1.78-5.15a4.19,4.19,0,0,1,3-3.64l.16,0a7.43,7.43,0,0,1,2.9.27l0-.08c-1-3.24-1.29-7.75,0-9.75a2.45,2.45,0,0,1,1.68-1.2l.3-.05.29.08c1,.27,1.79.51,2.39.71a10.43,10.43,0,0,0,3.2.64c.61,0,1.22.12,1.82.21,2.39.35,3.15.29,3.62-.76a10.41,10.41,0,0,1,2.87-3.76c-2.94-1.29-6.22-3.44-6.91-6.32l-.1-.4.14-.39c1.91-5.48,6.66-6.49,10.32-6.37a73.76,73.76,0,0,1,11.44,1.47c1.66.31,3.09.58,4.07.65.43,0,.7-.07.91-2.41a6.4,6.4,0,0,1,.41-2.13,5.3,5.3,0,0,1,2.47-2.33c-.43-1.22-1.36-3.45-2.24-5.42a10.29,10.29,0,0,1-2.55-2.59l-.14-.28c-.28-.74-.52-1.61-.78-2.54-.39-1.37-1.19-4.21-1.84-4.52a9.86,9.86,0,0,1-3.06-2.21c-1.44-1.3-3.42-3.08-4.62-2.8l-10.26,2.25,9.3-4.89a21.75,21.75,0,0,0,3.37-2.13,3.09,3.09,0,0,1,2.87-.86c1.55.35,2.44,2.37,2.92,4.07a28.35,28.35,0,0,0,4.43-.32c.18-1.26.25-4.67.23-7.91h-6.22l-.37-.26a18.27,18.27,0,0,0-4-2c-2.29-.79-6.13-2-6.17-2l-.44-.13-.28-.36c-.66-.86-6.41-8.5-6.8-12.66v-.13c0-.79,0-1.49,0-2.12a23.59,23.59,0,0,0-.08-3.34l-.06.19c-.46,1.46-1.16,2.3-3.35,2.22a6.27,6.27,0,0,1-5.72-3.56,4.26,4.26,0,0,0-2.57-1.91c-.33-.14-.68-.28-1-.44a28,28,0,0,1-4.24-2.7c-2.52.17-5,.59-5.54.95a8,8,0,0,1-5.66,1.8c-3,0-8.46-4.89-10.05-6.39l-.33-.31-.09-.45c-.27-1.35-1-5.89,1.35-7.39a5.09,5.09,0,0,0,.66-.51c-.92,0-2.06.09-3.06.18-3.66.44-36.36,4.2-42.49,1.1l-.11-.06c-4.19-2.59-5-8-5.06-10.84l-.43-.07c-4-.63-10.12-1.58-11.86-6.28a16.31,16.31,0,0,0-2-1.83c-1.24-1-2.4-2-2.51-3.44a3.19,3.19,0,0,1,.94-2.38c2.35-2.94,5.55-8.42,5.22-11.3-1.8-6.94-2.79-8.09-3.05-8.27a30.5,30.5,0,0,0-5-.6c-2.16.68-18.63,6-28.43,12.91l-.14.09a113.32,113.32,0,0,1-16.25,7.12,25.47,25.47,0,0,0-4.13,1.7,22,22,0,0,0-2.6,3,20.12,20.12,0,0,1-4.89,9.31,19.44,19.44,0,0,1-5.39,4.42,15,15,0,0,0-2,1.36c-1.25,1.1-2.76,2.21-3.6,2.81a12.66,12.66,0,0,0,1.48,3.41A14.54,14.54,0,0,1,43.85,60c0,.31.09.64.15,1,.13.73.8,2.33,3.29,5.79l.21.3c.63.9.39,2.16-1.2,5.77a2.67,2.67,0,0,1,1.89.75,1.76,1.76,0,0,1,.44,1.45l0,.34-.2.28C47,77.61,45.24,80.13,45.19,81c-.06,1-.91,1.9-2.31,3.36-1.18,1.23-3.15,3.29-3.18,4.43a7,7,0,0,1-.13,1.72l.4.5a10.8,10.8,0,0,1,1.5,2.89,11.58,11.58,0,0,0,.77,1.68A3.58,3.58,0,0,0,44.34,94c.61-1.21,1.89-3.3,3.68-3.68a4.89,4.89,0,0,0,2.45-2.5,11.31,11.31,0,0,0,.6-2.92,5.05,5.05,0,0,1,.79-2.77c1.24-1.42,4.87-1.44,5-1.44,1.41,0,11-.73,13.09-1.21,2.32-.52,14.95-1.75,17.8-1.18l.39.08c2.48.48,6.21,1.2,7,7.39.91,2.2,1.48,2.58,2.42,3.19.29.19.6.4.94.65a7.64,7.64,0,0,0,3.91.9c.09-.85.16-1.89.23-2.9.29-4.28.48-5.85,1.53-6.55l.27-.18.32,0c.82-.11,11.13.7,12.16,2.34l.07.12c.14.28.55,1.11,1.2,12.48,2.46,1.5,7.56,4.46,9.56,5,.27.08,28,8.89,30.77,12.07l.11.13a23.46,23.46,0,0,0,3.93,4.8,2.55,2.55,0,0,1,1.2,2.4c-.08.67-.52,1.59-2.1,2.24l-.65.26c-1.18.45-1.18.45-1.18,1,0,2.74-1.58,3.5-3.81,4.27-2,.68-2.67,2.87-1.87,6l.14.55-.28.5a12.9,12.9,0,0,0-1,2.31c-.24.67-.5,1.42-.92,2.39-.34.78-.85,3-1.38,9,0,.29,0,.49-.05.57-.29,2.61-11,3.68-11.12,3.68h0a4.18,4.18,0,0,0-.91,0,3.62,3.62,0,0,0,.19.82l.11.34-.06.35c-.31,1.75-3.45,9.76-5.72,10.78-.4.18-.87.34-1.33.51a5.82,5.82,0,0,0-1.82.84c-.12,1.31-1.46,12.37-1.52,12.84-.08.8-.88,8-2.39,10.58-.79,1.34-1.13,4.74-1.12,7.51,0,.12,0,.32-1.75,22.1.08,1.68,1,20.51,1,22.46A64.68,64.68,0,0,1,123,252.64a101.87,101.87,0,0,0-1.27,11.78,11.85,11.85,0,0,0,1.72,6c1.92,2.75,6.4,9.65,6.62,14.21a47.17,47.17,0,0,1-.12,5.33c-.12,1.93-.23,3.76.15,4.65.19.44.52,1.27.94,2.31,1.11,2.79,4.07,10.21,5,11.16l.1.1c5.83,5.81,9.86,11.74,11.66,17.15,2.72,8.16,5.72,11.75,6.57,12.66.39.41.77.9,1.14,1.38A9.52,9.52,0,0,0,157,341c.67-.13,3.31-.9,5.65-1.57C170.35,337.19,172.67,336.6,173.7,336.6ZM157,341Zm99.62-72.14h0Zm4.26-2.35-.62-1.23Zm9.3-39.7h0Zm11.21-60.1h0Zm.11-.08Zm-40.12-44.08h0ZM161,120.22h0Zm.05-.64Zm67.19-18.77a17.51,17.51,0,0,1,2.39,1.82,8.75,8.75,0,0,0-1.08-2.78l-.46.33C228.9,100.35,228.62,100.56,228.27,100.81Zm9.29.4h0ZM54.11,83.83ZM42.41,80.56ZM40,49.91Z"/></svg>