<svg id="Layer_1" data-name="Layer 1" xmlns="http://www.w3.org/2000/svg" viewBox="0 0 350 350"><defs><style>.cls-1{fill:#999;}.cls-2{fill:#f90;}</style></defs><title>M</title><path class="cls-1" d="M180.47,248.39l6.69-11.86-8.51-3.34s4.86-5.47,9.73-4,7.91.61,10-3.65,9.12-2.13,10.64-4.26,2.43-.91,6.39-7c-.91-11.86,4.56-3.65,10.64-1.82s4.56,0,12.77-2.54,4.86,3.15,9.73,4.06,9.12-.3,10.64-1.52,1.22-5.47-1.22-11.86,13.07.91,15.51-3.65,7.91.91,7.91.91l4-7.91s-3.65-.3-4.86-2.13,0-3.65,2.43-4.86,1.82-3.65.61-7.6,5.47-4,5.47-4l8.51-21.28s7,2.74,13.07,0,2.13-9.43-1.22-10.95S320,136.8,324,137.41s4.86-4.86,6.69-5.78,13.07-1.52,13.07-1.52l-9.43-28s-16.42-6.08-22.8-7.91-19.16-13.38-19.16-13.38l-25.54-3.65a60.92,60.92,0,0,0-21.89,1.52c-11.25,3-60.2,4.86-60.2,4.86l1.52,12.47a33.14,33.14,0,0,1-9.12,1.52c-4.56,0-22.8-7.6-22.8-7.6s-7.6-1.22-13.68-1.52-11.55-1.82-19.46-1.82-7,.3-14.59-2.43-29.8-10.64-29.8-10.64L6.25,160.21l91.52,3.65,22.5-3.65L72.53,236.84,99,241.09s-1.52,8.21-2.74,9.12L78.31,263.59s6.39.91,6.69,3.34a5.86,5.86,0,0,0,5.47,5.47c3.65.3,3.34-1.52,5.47,1.22s-.3,1.52,2.13,2.74,14.29-11.86,19.46-12.77,19.16-8.51,19.16-8.51l28.89,6.69S175.3,245.35,180.47,248.39Z"/><path class="cls-2" d="M98.44,277.86a2.19,2.19,0,0,1-1-.23c-1.3-.65-2.1-1.05-2-2.17a5.74,5.74,0,0,0-.65-1,4.09,4.09,0,0,0-.93-1s-.19.07-.36.1a9.62,9.62,0,0,1-3.18.23,7.27,7.27,0,0,1-6.76-6.71c-.07-.6-2.67-1.71-5.48-2.12l-3.39-.49,2.75-2,17.87-13.33c.5-.67,1.35-3.83,2-6.87L70.2,237.9l47.21-75.78-19.56,3.17h-.14L3.36,161.52l73-89.63.94.34s22.2,7.91,29.8,10.64l.19.07c6.41,2.31,6.41,2.31,11.79,2.29h2.13a84.05,84.05,0,0,1,12.23,1c2.5.34,4.85.67,7.3.79,6.09.3,13.52,1.49,13.84,1.54l.32.09c5,2.08,18.75,7.49,22.26,7.49A30.68,30.68,0,0,0,184.7,95l-1.56-12.8,1.54-.06c.49,0,48.92-1.85,59.89-4.82A61.78,61.78,0,0,1,267,75.8l26,3.71.32.29c.13.11,12.6,11.35,18.59,13.07,6.36,1.82,22.23,7.69,22.91,7.94l.63.23,10.24,30.38-1.86.1c-5.26.28-11.54.89-12.52,1.37a6.83,6.83,0,0,0-1.18,1.66c-1.14,1.91-2.85,4.79-6.36,4.25a54.07,54.07,0,0,0-11.92.39,9.49,9.49,0,0,1,3.35,6.67c0,2.45-1.43,4.44-4,5.6-5,2.23-10.37,1.17-12.83.46L290,172.88h-1c-1.29,0-3.47.38-4.07,1.19-.07.1-.24.33-.05.93,1.13,3.67,2.3,7.47-1.33,9.29a3.85,3.85,0,0,0-2.09,1.91,1,1,0,0,0,.21.9c.63.94,2.83,1.42,3.81,1.5l2.08.18-5.76,11.53-1.39-1.39c-1-1-3.08-2.5-4.43-2.29-.31,0-.77.21-1.22,1-1.6,3-6.24,2.45-10.33,2-1.73-.21-4.58-.55-5.27-.15a2,2,0,0,0,.17.67c1.88,4.93,3.54,11.26.78,13.47-2,1.58-6.78,2.75-11.79,1.81a5.59,5.59,0,0,1-4.16-3.29c-.73-1.33-1.1-2-4.89-.81a37.48,37.48,0,0,0-5.6,2.21c-2.62,1.25-3.74,1.62-8,.34a22.94,22.94,0,0,1-5.45-2.78,11.93,11.93,0,0,0-3.12-1.63c-.14.22-.53,1.18-.26,4.77l0,.48-.26.4c-2.67,4.11-4.12,5.13-5.17,5.88a4.34,4.34,0,0,0-1.25,1.17c-1,1.4-2.92,1.59-4.95,1.79-2.74.27-4.74.6-5.58,2.27-2.37,4.74-6.09,6.13-11.72,4.37-2.44-.77-5.06.82-6.68,2.11l7.92,3.11L181,250.34l-1.24-.73c-2.57-1.51-9.18,6.51-13,12.88l-.53.89-29.37-6.8c-2.55,1.37-14.27,7.55-19.11,8.41-2.24.4-6.66,4-10.22,7C103,275.75,100.32,277.86,98.44,277.86Zm-.17-3,.27.14c1.16-.24,4.79-3.23,7.22-5.23,4.2-3.47,8.55-7.06,11.53-7.58,4.88-.86,18.59-8.29,18.72-8.36l.47-.26,28.41,6.58c2.39-3.88,9.44-14.44,14.93-13.49l5.31-9.41-8.89-3.49,1.35-1.52c.22-.25,5.54-6.14,11.21-4.36,4.34,1.35,6.6.56,8.34-2.93,1.6-3.2,5.2-3.56,7.83-3.83,1-.1,2.67-.27,2.92-.62a7.08,7.08,0,0,1,1.92-1.83c.88-.62,2-1.39,4.17-4.71-.27-4.06.22-6.09,1.66-7,1.74-1.05,3.76.22,6.09,1.69a20.85,20.85,0,0,0,4.75,2.46c3.43,1,3.86.82,6-.18a40,40,0,0,1,6-2.36c5.55-1.72,7,0,8.22,2.16.54,1,.89,1.62,2.19,1.87,4.4.82,8.26-.25,9.49-1.23.56-.45.9-3.55-1.65-10.25a3.34,3.34,0,0,1,.22-3.41c1.34-1.72,4.37-1.35,7.87-.93,2.71.32,6.8.82,7.49-.48a4.44,4.44,0,0,1,3.31-2.52c2-.29,4.05.86,5.39,1.85l2.3-4.6a6.76,6.76,0,0,1-3.93-2.4,3.86,3.86,0,0,1-.59-3.2,6.27,6.27,0,0,1,3.57-3.72c1.22-.61,1.2-1.66-.11-5.92a3.72,3.72,0,0,1,.48-3.45c1.25-1.69,3.9-2.16,5.37-2.29l8.7-21.75,1.31.51c.06,0,6.53,2.48,12,0,1.57-.71,2.33-1.69,2.33-3a6.86,6.86,0,0,0-3.55-5.34c-1.58-.72-1.38-1.88-1.28-2.21.92-3.1,15.85-2.43,16.67-2.3,1.5.24,2.33-.94,3.49-2.9a6.61,6.61,0,0,1,2.35-2.74c1.61-.8,8.07-1.32,11.77-1.56l-8.62-25.57c-3.08-1.13-16.51-6.05-22.07-7.64-6.12-1.75-17.3-11.53-19.39-13.4l-25.12-3.59A60,60,0,0,0,245.3,80.1c-10.28,2.78-50.43,4.51-59,4.85L187.8,97l-1.1.37A34.32,34.32,0,0,1,177.13,99c-4.6,0-20.67-6.6-23.19-7.64-1.13-.18-7.92-1.21-13.37-1.48-2.57-.13-5-.46-7.54-.81a81.68,81.68,0,0,0-11.85-1h-2.12c-5.81,0-5.94,0-12.76-2.45l-.19-.07c-6.66-2.4-24.54-8.77-28.85-10.3L9.14,158.91l88.55,3.53,25.44-4.13L74.87,235.77l25.78,4.15-.26,1.43c-1.08,5.81-2.18,9.17-3.28,10L81.64,262.88c2.15.66,4.51,1.84,4.77,3.88A4.49,4.49,0,0,0,90.59,271a6.9,6.9,0,0,0,2.33-.17c1.66-.37,2.54-.14,4.14,1.93A6,6,0,0,1,98.27,274.87Zm-3-25.72Z"/></svg>