<svg id="Layer_1" data-name="Layer 1" xmlns="http://www.w3.org/2000/svg" viewBox="0 0 350 350"><defs><style>.cls-1{fill:#999;}.cls-2{fill:#f90;}</style></defs><title>M</title><path class="cls-1" d="M341.48,60.94s-5.26-3.65-5.78-4.74c-.16-1.41,2-3.12,2.08-3.8s0-4,1.41-4.37c1.56-.47,3.8-1.3,3.91-1.77s-.47-1.2-1.35-1.87-4.22-5.31-5.31-6.3-1.67.36-1.67,1.35-.68,3.28-1.46,3.91-4.27-.42-5.26-.68a27,27,0,0,1-4.17-2.5l-4.53,5.36s-2.19,1-6.3-.1c-2-.26-3.7.36-3.91,1.2,1,.89,2.76,3.7.89,5.16s-4.63,1.89-5.57-2.44l-.57-2.67S275.6,51.36,274,51.47a12.39,12.39,0,0,0-4.84,2.08c-.57.47-11,5.1-12.5,5.26s-1.87.73-2.24.36-3.07-2.29-3.23-2.86c1.93-.26,2.19-.52,2.5-1s-1.2-1.61-2-2.08-4.06-1.93-2-4.22a12.3,12.3,0,0,0,3.18-1.82c.52-.31,1.2-3.54,1.15-4.11-.89-.1-1.87.94-3.44-.36a27.55,27.55,0,0,0-3.8-1.09c-.73-.21-3-1.35-2.4-2.45A3.7,3.7,0,0,1,249,38c1.67,1,1.41,1.3,1.61.05a40.34,40.34,0,0,0-.26-5.73s2.19.36,2.34.31a1.54,1.54,0,0,0-1.25-2.29c-.31-.26.21-1,.16-1.3a2.36,2.36,0,0,0-1.3-2.45c2.08.16,1.72-.68,2.55,0s3,1.46,3.49-.83c.57-.36,2.14.31,3.54-.78a8.73,8.73,0,0,0,2.6-5.36,2.55,2.55,0,0,1,.36-2.14c.42-.52.78-1,.05-1.67s-4.58-2.34-5.83-.83c-.62.42-1.35,1.35-1.87,1.67s.47,1.61-2,1.61a16.09,16.09,0,0,0-2.4.16l-.1,3-4.11,1.77-1.35-1.77a2.18,2.18,0,0,1-1-2.66c.56-1.87,2.8-2.86,5.2-2.19.89-1.09-2.45-4.53-4.63-5.78s-3.65-2.76-4.53-.42c-1.25,2.45-2.71,4-1.82,5.16a3.6,3.6,0,0,1,.47,4.06,17.58,17.58,0,0,0-1.51,2.92c-.26.94.05,2.86-.73,4.79s-2.71,5.05-4.9,5.68-2.55,2.24-2.81,4.43.52,2.14-1.51,4.06-2.19,4-4.69,1.2c-2.4-1.25-3.28,0-3.91.36s-1.61,2.71-1.61,2.71S210.77,50.48,207,51s-10.88,2.92-17.29,1.61-5.36-.78-7.29-1.77-6.14.94-7.71.31-6.94-.1-8-.38c-1.67.69-4.13-.31-5.24-.62-.21,1.63.52,3.23-.52,4.34S154,55,153.4,55s.31,2.53,0,3.89-.42.42-.8,2-1.35,3.44,1.6,2.92c.9-.07,1.15-.21.49.52s-1.53,3.06-.14,2.19,2.12-.73,1.84.19a3,3,0,0,0,.59,2.72c.52.56,2.22,1.32,2.15,2s-2.6,1.39-5,.9c-1.6,1.42-2.08,4.69-3.26,5.24s-2.22,1.18-5.62.66-3.92,1-3.71,2.26S141,82.89,140.38,84s-3.23,5.07-3.58,5.52a3.18,3.18,0,0,1,1.08,1.84s-2.74,3-2.85,3.12-3.06-.24-4.13,0a30.08,30.08,0,0,0-5.62,3.33c-.56.49-1.15-.49-2.85-1.91s-1.39-3.44-2.74-4.1-2.46-.21-1.63,2.64c0,.87.35,1.15-.73,2.5s-3.33,4.58-5.83,4.76a4.06,4.06,0,0,0-5.83-1c-3.44,2.43-3.82,4.83-3.78,7.15-1,.66-4.65,1.74-.9,3.23.66.07-.07,3.68-2,3.4s-5.35-.87-4.86,3.85c-2,1.18-6.91,5.1-9.1,5s-3.71-.9-4.3-.73-3.51,3.3-4.13,3.3.38,3.33-2.81,3-2.19-1.32-4-2.74S63,121.3,61.16,124c-2,.83-1.15.62-2.86-.47s-3-3.44-4.32-4.06-5.57-2.14-4,1.15c0,1.51-1.35,1.56-2.4.57a46.34,46.34,0,0,0-3.8-2.66c-.26-.26.1-2.14-1.56-3.12a9.09,9.09,0,0,1-3.65-6.35c-1.56.42-3.54,1.09-3.54,1.09s.16,1.61-.31,1.93-2.55,2.76-3,2.86-4-2.6-4.11-2.6-3.38,4-3.38,4l.68,1.25-2.4,2.24-3.75-2.6s-3.33,3.65-4,6.56-4.11,11.46-5.73,27A140.89,140.89,0,0,0,6.9,165.41l17.29-3.12s16.56,10.05,21.66,12,12.45,4.84,15.83,10.05c.62,1.2,6.09,6.72,7.5,13,0,0,2.08,3.33,1,5.68s-1.51,3.49-1.3,4S70,218.78,70,218.78l2.14,18.28L55.9,260.91s-1,19.89-4.95,29.21a11.67,11.67,0,0,1,.62,3c.21.78-.42,5.21-.52,5.88s9,9.37,9,9.37,9.17,11.61,18.07,16.4a109.39,109.39,0,0,0,14.69,4.37,12.33,12.33,0,0,0,7.71,2.14,22.31,22.31,0,0,1,6.82.94c1.25.47,22.86,6.41,22.86,6.41s10.05,2.29,11.2,2.24c1.09-1.56,12.65-16.61,14.48-18.38a9.62,9.62,0,0,0,1.87-7.29,10.75,10.75,0,0,1,1.61-8.33c2-2.66,7.86-16.35,8.18-17.65a43.88,43.88,0,0,1,3.44-7.5c1.87-3.54,8.9-16,10.47-19.74,1.2-3.85.47-8.54,5.05-12.34,1.56-3.12,1.67-4.11,1.77-5.83S190,227,190.46,224.25s2.86-8.38,7-13.64,8.12-13.54,14.06-18.75c2.81-3.7,10.1-15.62,12.24-19S234.46,160,235.51,156s5.57-13.54,8.7-16.72,8-8,10.62-10.52c2.66-2.71,9.63-7.66,10.68-9s6.35-7,10.52-9.58S294.51,96.3,300.23,94s14.27-6.51,17.08-8.49,17-12.81,20.26-14.53A36.3,36.3,0,0,0,341.48,60.94Z"/><path class="cls-2" d="M141.41,342.26c-1.38,0-8.48-1.58-11.51-2.27-2.28-.62-21.77-6-23-6.46a20,20,0,0,0-6.35-.85,13.6,13.6,0,0,1-8.24-2.24c-.62-.18-1.27-.33-2-.5a93.35,93.35,0,0,1-12.61-3.86l-.18-.08c-8.77-4.72-17.55-15.57-18.45-16.69-9.58-9.14-9.49-9.73-9.36-10.55a41,41,0,0,0,.54-5.37,7.31,7.31,0,0,1-.17-1.11,4.38,4.38,0,0,0-.32-1.5l-.31-.59.26-.62c3.82-9,4.83-28.54,4.84-28.73l0-.4L70.63,236.7l-2.07-17.76c-.4-5-.89-10.62-1-11.46-.35-1,.07-2.24,1.37-5,.62-1.33-.48-3.63-.91-4.33l-.12-.2-.05-.24c-1-4.53-4.34-8.71-6.13-11a14.78,14.78,0,0,1-1.21-1.63c-3.17-4.82-10.36-7.61-15.13-9.46s-18.66-10.19-21.43-11.86L5.35,167.13l.13-1.82a140.71,140.71,0,0,1,2.14-14.74,121.6,121.6,0,0,1,5-24.68c.33-1.06.58-1.9.71-2.46.75-3.24,4.2-7,4.34-7.2l.84-.92L22.39,118l.76-.71-.61-1.12.6-.74c3.65-4.48,3.69-4.48,4.48-4.48.5,0,.67.11,1.92,1,.46.33,1.37,1,2,1.36.3-.3.67-.69.93-1,.56-.59.89-.94,1.15-1.17a4.76,4.76,0,0,0,0-.86l-.1-1.11,1.06-.36c.08,0,2-.7,3.63-1.12l1.56-.42.21,1.6a7.73,7.73,0,0,0,3,5.32,4.46,4.46,0,0,1,2.1,3.5l.44.28a26.89,26.89,0,0,1,2.78,1.93,2.24,2.24,0,0,1,.57-2c1.37-1.39,4.19-.39,5.75.33a8.27,8.27,0,0,1,2.53,2.24,10.28,10.28,0,0,0,2,1.91,9.71,9.71,0,0,1,.9.64l.25-.11.07,0a3.68,3.68,0,0,1,2.25-1.22c2.57-.38,5.81,1.61,8.08,3.36a6.34,6.34,0,0,1,1.51,1.66c.31.46.41.62,1.83.8.78.09.81.07.94-1s.6-1.8,1.35-1.94c.37-.25,1.22-1,1.75-1.51,1.32-1.2,1.79-1.61,2.32-1.76a3.83,3.83,0,0,1,2.09.2,11.18,11.18,0,0,0,2.66.47h0c1.17,0,4.52-2.3,6.13-3.4l1.43-1a4.71,4.71,0,0,1,1.25-3.6c1.51-1.45,3.79-1.12,5.15-.92l.12,0c.19-.07.45-.56.57-1a2.85,2.85,0,0,1-1.84-2.25c-.06-1.51,1.44-2.28,2.58-2.84.1-2.43.88-5,4.37-7.45a5.51,5.51,0,0,1,4.25-1,5.73,5.73,0,0,1,2.93,1.63c1.47-.57,3-2.59,3.85-3.63l.35-.45c.48-.6.47-.69.45-1s0-.29,0-.45c-.25-.89-.71-2.9.58-4a2.68,2.68,0,0,1,3.09-.12A4.13,4.13,0,0,1,122.24,93a4,4,0,0,0,1.1,1.79c.52.44.95.83,1.3,1.16l.33.31c1.36-1,4.41-2.91,5.62-3.19a13.47,13.47,0,0,1,3.29,0l.5,0L136.27,91a1.08,1.08,0,0,0-.29-.35l-1.19-.85.89-1.16c.29-.38,2.87-4.33,3.47-5.37l.28-.46c.51-.85.82-1.4.73-2a3.32,3.32,0,0,1,.82-3c.94-.94,2.41-1.24,4.51-.93,2.78.42,3.62,0,4.6-.44l.21-.1a10.2,10.2,0,0,0,.77-1.56,9.74,9.74,0,0,1,2.16-3.46l.53-.47.7.14a7.14,7.14,0,0,0,2.32.08,5.2,5.2,0,0,1-.83-.67A4.44,4.44,0,0,1,154.88,68a1.72,1.72,0,0,1-2.09-.39,2.32,2.32,0,0,1-.2-2.29,2.31,2.31,0,0,1-1.31-.71c-.9-1-.53-2.31-.23-3.37.06-.2.12-.41.16-.61a3.64,3.64,0,0,1,.71-1.67c0-.08.05-.18.09-.34a6.84,6.84,0,0,0-.12-1.8c-.16-1.09-.29-2,.3-2.63a1.59,1.59,0,0,1,1.21-.55l.69,0c4.32.25,5.52,0,5.85-.19s.17-.68.11-1.53a9.62,9.62,0,0,1,0-2l.21-1.63,1.58.45.65.2c1,.3,2.73.87,3.67.48l.44-.18.46.12a24.3,24.3,0,0,0,2.44,0c2.63,0,4.59,0,5.7.41a8.92,8.92,0,0,0,2.5-.29c1.89-.36,3.84-.73,5.33,0a5.92,5.92,0,0,0,2.52.81c.87.15,2.2.39,4.41.84,4.53.92,9.62-.17,13.33-1,1.33-.29,2.49-.53,3.48-.67,2.67-.37,7.35-3.38,9.3-4.78a6.72,6.72,0,0,1,2-3l.18-.13c.68-.52,2.28-1.73,5.09-.26l.23.12.17.19a5.81,5.81,0,0,0,.82.8c.15-.16.34-.4.5-.59a14.31,14.31,0,0,1,1.33-1.49c1-1,1-1,1-1.63a10.83,10.83,0,0,1,.07-1.57c.22-1.87.56-4.69,3.83-5.62,1.42-.41,3.13-2.78,4-4.84a8.65,8.65,0,0,0,.49-3,7.49,7.49,0,0,1,.19-1.67,7.26,7.26,0,0,1,.88-1.89c.2-.34.45-.75.73-1.3a2.16,2.16,0,0,0-.33-2.54c-1.24-1.61-.23-3.34.76-5,.28-.48.59-1,.89-1.59a3,3,0,0,1,1.79-1.94c1.29-.44,2.48.31,3.74,1.09.32.2.65.41,1,.61,1.73,1,5,3.86,5.45,6.06a2.33,2.33,0,0,1-.14,1.39,19,19,0,0,1,2.43-.15l.39,0a1.84,1.84,0,0,1,.86-1.39,6.57,6.57,0,0,0,.63-.58,9.44,9.44,0,0,1,1-.94,3.31,3.31,0,0,1,2.25-1,9.21,9.21,0,0,1,5.49,1.82c1.13,1,1.16,2.25.09,3.59a1.2,1.2,0,0,0-.12.83l.08.25,0,.26a10.13,10.13,0,0,1-3.15,6.39,5.05,5.05,0,0,1-3.38,1,2.94,2.94,0,0,1-1.66,1.48,3.72,3.72,0,0,1-2.71-.22c0,.21,0,.39,0,.52a1.81,1.81,0,0,1,0,.61,2.8,2.8,0,0,1,1.31,2.26c0,.19.07,1.85-1.16,2.27a2.27,2.27,0,0,1-1.22,0,24,24,0,0,1,.08,4.29l0,.33a1.78,1.78,0,0,1-1,1.57,1.84,1.84,0,0,1-1.89-.42c-.2-.14-.46-.33-.84-.56a2.09,2.09,0,0,0-1.58-.11,2.58,2.58,0,0,0-.83.4,4.55,4.55,0,0,0,1.26.69l.7.17a20.47,20.47,0,0,1,3.26,1l.2.08.17.14c.51.43.71.37,1.29.21a3.5,3.5,0,0,1,1.4-.17l1.14.13.1,1.14c0,.39-.41,4.61-1.83,5.46-.09.05-.18.13-.29.21a11.63,11.63,0,0,1-2.73,1.56.53.53,0,0,0-.12.31c0,.22.37.64,1.72,1.37l.25.13c.71.4,2.41,1.47,2.73,2.69A1.75,1.75,0,0,1,254.9,56a2.89,2.89,0,0,1-.94,1l.51.4.44.35a7,7,0,0,1,1.59-.35c1.32-.19,10.85-4.39,11.82-5a13.52,13.52,0,0,1,5.58-2.34c1.14-.08,18.42-2.9,29.75-4.78l1.33-.22.86,4c.27,1.25.74,2.08,1.28,2.28a2.41,2.41,0,0,0,2-.66.67.67,0,0,0,.29-.58,3.85,3.85,0,0,0-1.22-2.38l-.67-.57.21-.85c.41-1.66,2.71-2.61,5.46-2.26l.18,0a10.12,10.12,0,0,0,5.11.26l5.11-6.05,1.06.75a25.68,25.68,0,0,0,3.71,2.29l.37.1a14.5,14.5,0,0,0,3.73.73,7,7,0,0,0,.84-2.69,3.16,3.16,0,0,1,1.55-2.94,2.23,2.23,0,0,1,2.48.54,33.77,33.77,0,0,1,2.8,3.32c.83,1,2.08,2.63,2.42,2.91,1.46,1.11,2.11,2.26,1.87,3.31-.13.57-.32,1.44-4.79,2.79a6,6,0,0,0-.45,2.55c0,.31,0,.56-.06.71a4,4,0,0,1-1,1.78,8.47,8.47,0,0,0-1,1.42,49.57,49.57,0,0,0,5.12,4l.73.51-.14.88c-.27,1.7-2.2,7.77-4.14,10.58l-.2.29-.31.16c-2.21,1.18-10.13,7.06-15.38,11-2.18,1.62-3.91,2.9-4.73,3.48-3,2.1-11.63,6.3-17.36,8.64-3.64,1.49-11.34,7.07-17,11.15-3,2.18-5.6,4.06-7,4.95-3.94,2.42-9.11,7.9-10.14,9.24a36.37,36.37,0,0,1-4.75,4.06,77.7,77.7,0,0,0-6,5.07c-2.7,2.59-7.55,7.39-10.63,10.52-2.91,3-7.32,12.19-8.33,16.08-.72,2.78-4.06,7.18-8.36,12.64-1.55,2-2.88,3.67-3.54,4.69-.52.81-1.34,2.13-2.33,3.71-3.11,5-7.81,12.49-10,15.34l-.19.21c-3.69,3.24-6.58,7.71-9.38,12-1.54,2.38-3,4.63-4.51,6.54-4.29,5.41-6.41,10.83-6.74,13-.41,2.69-2.07,17.69-2.17,19.4-.12,1.9-.25,3.05-1.92,6.38l-.13.27-.23.19c-2.92,2.42-3.37,5.21-3.86,8.16a26,26,0,0,1-.75,3.52l0,.12c-1.16,2.79-5.13,10-8,15.28-1.07,2-2,3.6-2.49,4.57-2.41,4.54-3.13,6.41-3.31,7.17-.37,1.55-6.31,15.34-8.42,18.17a9.2,9.2,0,0,0-1.35,7.25,11,11,0,0,1-2.13,8.36l-.15.17c-1.65,1.61-13.09,16.44-14.3,18.18l-.4.57-.7,0Zm-62.69-18.8a90.34,90.34,0,0,0,12.17,3.72c.85.2,1.58.37,2.33.59l.31.13c2.87,1.65,3.92,1.95,7,1.95a24,24,0,0,1,7.32,1c.9.33,14.09,4,22.74,6.37,4,.9,8.44,1.85,10.15,2.12,2.49-3.35,12.09-15.79,14.06-17.82a8.16,8.16,0,0,0,1.56-6.13,12.07,12.07,0,0,1,1.88-9.41c1.8-2.42,7.6-15.85,7.94-17.14a42.58,42.58,0,0,1,3.56-7.83c.52-1,1.43-2.64,2.51-4.61,2.68-4.89,6.73-12.25,7.87-14.95a24,24,0,0,0,.64-3.07c.51-3.11,1.09-6.63,4.61-9.68,1.36-2.76,1.41-3.58,1.5-5,.1-1.73,1.78-16.94,2.2-19.66.48-3.13,3.15-9,7.32-14.31,1.43-1.8,2.85-4,4.35-6.32,2.74-4.23,5.84-9,9.78-12.52,2.13-2.83,6.7-10.15,9.74-15,1-1.59,1.83-2.92,2.35-3.74.73-1.14,2.1-2.89,3.7-4.91,3-3.87,7.21-9.18,7.84-11.6,1.11-4.27,5.71-13.95,9.06-17.35,3.09-3.14,8-8,10.65-10.55a78.68,78.68,0,0,1,6.27-5.28,48.87,48.87,0,0,0,4.26-3.57c1.14-1.48,6.58-7.28,10.9-9.93,1.36-.83,3.91-2.68,6.87-4.82,6.06-4.39,13.6-9.86,17.55-11.47,6.08-2.49,14.25-6.54,16.8-8.34.79-.56,2.5-1.83,4.67-3.44,5.39-4,12.7-9.43,15.41-11a37.24,37.24,0,0,0,3.31-8.31c-2.37-1.67-5-3.68-5.47-4.75l-.1-.22,0-.24c-.16-1.47.89-2.78,1.66-3.74.15-.19.35-.43.44-.57s0-.19,0-.3c.09-1.55.26-4.45,2.37-5.07a23.22,23.22,0,0,0,2.44-.87l-.35-.29a25.58,25.58,0,0,1-2.92-3.4c-.59-.75-1.28-1.61-1.8-2.24-.14,1.32-.82,3.66-2,4.58s-3,.54-6.16-.32l-.35-.09a16.7,16.7,0,0,1-3.55-2l-3.91,4.63-.29.13c-.27.12-2.74,1.15-7.15,0a5,5,0,0,0-1.58.05,5.91,5.91,0,0,1,1.08,3.27,3.48,3.48,0,0,1-1.38,2.76A5,5,0,0,1,306.15,54c-1.54-.56-2.58-2-3.08-4.35l-.29-1.35c-6,1-27.21,4.49-28.7,4.59a11.26,11.26,0,0,0-4,1.77c-.81.67-11.43,5.38-13.25,5.57a4.37,4.37,0,0,0-1.15.28,2,2,0,0,1-2.23-.32c-.1-.09-.36-.29-.68-.54-2-1.6-2.71-2.21-2.91-3l-.43-1.56,1.6-.22.59-.09c-.2-.14-.41-.28-.62-.4l-.2-.11c-.92-.49-2.84-1.52-3.17-3.36a3.41,3.41,0,0,1,1-2.92l.22-.25.31-.12a9.14,9.14,0,0,0,2.43-1.34l.3-.22a8.85,8.85,0,0,0,.41-1.35,3.73,3.73,0,0,1-2.45-.84,19.12,19.12,0,0,0-2.64-.76l-.83-.21c-.54-.15-2.68-1-3.32-2.53a2.22,2.22,0,0,1,.06-1.94,4.65,4.65,0,0,1,2.83-2.07,4.94,4.94,0,0,1,3.36.17c0-1.19-.17-2.87-.3-4.06l-.19-1.85,1.33.22a2.42,2.42,0,0,1,.07-1.78l0-.08c0-.06,0-.12,0-.18a.85.85,0,0,0-.55-1l-5.94-3.17,2.43.18-1.83-2.4a3.57,3.57,0,0,1-1.43-4.14A5,5,0,0,1,247.42,15,13.45,13.45,0,0,0,244.07,12c-.39-.22-.76-.45-1.11-.67a10.92,10.92,0,0,0-1.28-.73,2.62,2.62,0,0,0-.11.26l-.06.14c-.34.66-.69,1.25-1,1.8a7.11,7.11,0,0,0-.93,1.92,4.89,4.89,0,0,1,.58,5.51c-.32.62-.59,1.07-.81,1.45a4.7,4.7,0,0,0-.59,1.2,6.79,6.79,0,0,0-.09,1,11.26,11.26,0,0,1-.7,3.91c-.82,2-3,5.7-5.82,6.51-1.19.34-1.52.94-1.79,3.23a8.23,8.23,0,0,0,0,1.19c0,1.45-.23,2.16-1.89,3.73a11.51,11.51,0,0,0-1.07,1.21c-.68.84-1.38,1.71-2.58,1.74a3.94,3.94,0,0,1-2.88-1.64c-1-.49-1.39-.23-1.86.12l-.38.27a11,11,0,0,0-1.11,2.09l-.15.36-.31.23c-.69.51-6.86,5-10.91,5.52-.89.12-2,.36-3.27.63-4,.85-9.38,2-14.49,1-2.17-.44-3.48-.67-4.33-.82a8,8,0,0,1-3.28-1.06c-.66-.34-2.33,0-3.55.21-1.6.31-3,.57-4.08.14a21.33,21.33,0,0,0-4.61-.21,26.13,26.13,0,0,1-2.72,0,7.46,7.46,0,0,1-3.92-.17,4.19,4.19,0,0,1-.93,3.39c-.92,1-2.91,1.29-7.24,1.07a7.63,7.63,0,0,1,.06,2.72,3.12,3.12,0,0,1-.65,1.49s-.06.15-.15.53-.13.48-.2.73-.1.34-.14.51l.31,0,.46,0a1.72,1.72,0,0,1,1.9.79,1.44,1.44,0,0,1,0,1.41,1.87,1.87,0,0,1,.87.36,1.91,1.91,0,0,1,.6,2.19,1.7,1.7,0,0,0,.27,1.35,6.68,6.68,0,0,0,.58.42c.88.6,2.08,1.42,2,2.73a2,2,0,0,1-.85,1.4,7.78,7.78,0,0,1-5,.89,12,12,0,0,0-1,2c-.56,1.27-1.09,2.48-2.16,3l-.19.09c-1.48.71-2.88,1.2-6.25.69-1.33-.2-1.94,0-2.06.12a.73.73,0,0,0,0,.51,5.57,5.57,0,0,1-1.1,3.89l-.25.42c-.47.82-2.06,3.28-3,4.7a5,5,0,0,1,.68,1.71l.12.69-.47.51c-1,1.08-2.63,2.87-2.79,3.06-.46.62-1,.59-2.41.51a14.93,14.93,0,0,0-2.5,0,32.05,32.05,0,0,0-5,3c-1.36,1.19-2.65,0-3.51-.83-.32-.3-.7-.66-1.18-1.06A6.72,6.72,0,0,1,119.61,94a5.45,5.45,0,0,0-.37-.82,6.56,6.56,0,0,0,.19.8l.07.22v.23a2.78,2.78,0,0,0,0,.35,3.67,3.67,0,0,1-1.05,3l-.33.42c-1.35,1.75-3.62,4.67-6.51,4.87l-.82.06-.46-.68a2.59,2.59,0,0,0-3.86-.62c-3,2.1-3.19,4-3.16,6v.79l-.67.42c-.21.14-.52.29-.86.46l-.41.21,0,0a1.65,1.65,0,0,1,1,.95,4.61,4.61,0,0,1-.85,4,3,3,0,0,1-2.84,1.26l-.13,0c-.91-.13-2.27-.33-2.78.16a2.83,2.83,0,0,0-.34,2.16l.09.91-.79.46c-.49.29-1.19.77-2,1.33-3.27,2.25-6,4-7.85,3.9a13.82,13.82,0,0,1-3.31-.57l-.56-.14c-.31.25-.83.72-1.19,1.06A18.33,18.33,0,0,1,77.68,127c-.36,2.47-1.73,3.58-4.08,3.3-2.52-.33-3.18-1.05-3.84-2a3.58,3.58,0,0,0-.89-1c-2.47-1.91-4.73-3-5.92-2.8a.85.85,0,0,0-.63.39l-.23.34-.77.33c-1.21.52-1.89.74-3-.17a7.23,7.23,0,0,0-.79-.58A12.48,12.48,0,0,1,55,122.29a7.21,7.21,0,0,0-1.58-1.53,10,10,0,0,0-2.12-.71l.12.25v.32a2.54,2.54,0,0,1-1.45,2.46,3.13,3.13,0,0,1-3.34-.86,21.42,21.42,0,0,0-2.65-1.86,7.16,7.16,0,0,1-1.18-.82,2.12,2.12,0,0,1-.53-1.37c-.08-.69-.19-1.21-.75-1.54a10,10,0,0,1-4-5.79l-1,.32a2.54,2.54,0,0,1-1,2.09c-.11.09-.63.64-1,1-1.43,1.51-1.86,1.91-2.43,2.06-.83.21-1.44-.15-4.17-2.08l-.07-.05c-.5.59-1.21,1.43-1.9,2.27l.75,1.38-4,3.77L19,119.08a15.19,15.19,0,0,0-2.88,5c-.15.65-.42,1.53-.76,2.65a118.94,118.94,0,0,0-4.94,24.21l0,.12c-1.12,5.84-1.68,10.3-1.94,12.64l16-2.89.46.28c.17.1,16.51,10,21.44,11.92,5.12,2,12.86,5,16.51,10.6l.07.12c.09.17.55.75,1,1.26,1.9,2.39,5.42,6.82,6.62,11.88.53.92,2.18,4.15.94,6.81a15.68,15.68,0,0,0-1.22,3c.12.48.38,2.32,1.14,12l2.19,18.75-16.27,24c-.16,2.89-1.25,19.76-4.81,28.74a8.25,8.25,0,0,1,.35,1.87,6,6,0,0,0,.11.74c.26,1-.18,4.39-.42,6,1,1.23,4.92,5.18,8.51,8.62l.13.15C61.27,307.59,70.21,318.84,78.72,323.46ZM70.23,206.75Zm0-.22h0Zm0,0Zm6.39-82.06h0Zm4.72-.6h0ZM51,119.43Zm73.31-22.72h0ZM134,93.49l-.09.11ZM252.45,54.56l0,0h0S252.44,54.58,252.45,54.56ZM160,53.44ZM339.6,49.39h0ZM251.76,46.2Zm.3-.27h0Zm-32.51-1.68h0Zm.11-.08h0Zm113-2.06ZM250.2,28.93Zm2.14-4a2.18,2.18,0,0,1,1.4.58,1.54,1.54,0,0,0,1,.37.91.91,0,0,0,.17-.42l.13-.57.49-.31a3,3,0,0,1,1.76-.34,2.4,2.4,0,0,0,1.67-.36,7.5,7.5,0,0,0,2-4.14,4,4,0,0,1,.62-3,6.6,6.6,0,0,0-3.15-.9.69.69,0,0,0-.35.09l-.13.16-.17.12a6.69,6.69,0,0,0-.76.7c-.24.24-.48.48-.72.68-.26,1.45-1.32,2.14-3.16,2.14-.38,0-.73,0-1,0l-.09,2.63-5.89,2.53,4.19.31a2.28,2.28,0,0,0,1.13-.1A2.28,2.28,0,0,1,252.34,24.94Zm-4.43-7.16a2.28,2.28,0,0,0-2.34,1.39c-.21.69.21.93.3,1l.3.15.88,1.16,2.27-1,.08-2.42-.39-.11A4.1,4.1,0,0,0,247.91,17.78Zm8,.11h0Z"/></svg>