<svg id="Layer_1" data-name="Layer 1" xmlns="http://www.w3.org/2000/svg" viewBox="0 0 350 350"><defs><style>.cls-1{fill:#999;}.cls-2{fill:#f90;}</style></defs><title>M</title><path class="cls-1" d="M173.74,257.61c-.05.17-.11.35-.18.54C173.63,258,173.69,257.78,173.74,257.61Z"/><path class="cls-2" d="M174.87,258.66l-2.64-1c.05-.14.1-.28.14-.41l2.72.78C175,258.21,175,258.44,174.87,258.66Z"/><path class="cls-1" d="M67.56,143.37c-.85,1.17-9.79,1.06-9.79,1.06s-1.17-5.53-3.09-6-1.6,1-7.66,4.15c4.36-1,9.58,6.49,12.24,7.34s3.72,7.77,5.11,11.49A13.13,13.13,0,0,0,68,165s4.68,10.32,3.94,10.54-3.19,1.17-4,3,.32,8.09-3.94,7.77-12.77-2.77-22.45-3.09-12.13,5.43-13,7.87c1.06,4.47,8.19,7.87,12.66,9.15A13.85,13.85,0,0,0,34.25,207c-1.81,4-6.17,2.23-9.9,2s-4.36-1-8.51-2c-2.45.43-2.34,7.87-.74,13.3s-2.34,1.81-5.85,2.34c-4.26,1.17-3.3,7.77-1.28,9,1-1.92,6.92-3.94,8.83-3.3s3,2.87,2,6.39-5.32,4.47-7.87,8.09c0,4.26,5.75,8.3,5.75,8.3s6.17-3.3,8.83-3.62,15.32-.11,21-.21,9.68-4.47,9.68-4.47l-3-5.64,2.23-4.15,6.07,5.21a145.59,145.59,0,0,0,15.75,5c3.41.43,10.43-2.23,10.43-2.23v7.13s16.81,3.94,19.21,3.94,1-3.83,0-6.28,12.56-14.26,12.56-14.26,10,3.72,8.94,4.36-4.79,7.34-4.9,10.87c-1.81,7.14.53,6.37,2.66,5.38s2.23-3.26,6-4.86c5.43-1.92,22.56,1.81,26.5,5.43s5.64.43,6.7,1.6,8.36,3.21,8.38,3.21a5.86,5.86,0,0,0,.23-2c3.09,0,11.17,1.06,13-.21s14.9-16.6,15.22-16.07a65,65,0,0,0,10,7.87c4.47-1,14.15-1.7,14.15-1.7s5.21.32,3.51-2.55-4.26-5-1.81-8.51c1.38-6.7,6.07-3.19,12.34.11,6.6,3.3,22.13-.11,23.31,1.17,1.06,5.75,3.83,14.58,6.17,15.86,1.92-3.09,9.9-7.24,13.2-7.45,1.06,1.7,5.85,4.36,6.07,8.19s2.13,13.3,2.23,16.81c1.28-2,4.26-5.32,8-6a13.34,13.34,0,0,1,7.45,1.21s-1.38-4.79-2-5.21,0-4,0-4,1.6-6,3.72-7.13,1.49-.32,3.94,1.7,8.73,2.87,8.73,2.87a52.38,52.38,0,0,0-4.15,9.68c-1.28,4.58.53,5.85,3.62,7.66s3.62,1.06,6.07-3.41-.43-2.66-1.06-7.66,5.11-5.53,7.13-9,3.62-5.32,4-10.64-1.17-13.41-1.17-13.41c.21-4.47,5.21-2.77,7.87-5.43,1.6-6.49-5.08-8.27-5.08-8.27h0c-.29,0-.58-.1-.88-.17-5.68-1.42-5.25,1.28-7,6.68-1.7,1.86-3.41,1.41-9.36-.58-5.82-3.83-11.64-2-15.61,0s-8.66-1.42-9.51-6,.57-4.82,2.41-3.83c3,2.41,5.68-1.7,8.8-4.4s1.14-5.25-2.55-10.93-2-.43-10.78-6c0,0,9.22-1,11.49-1s1.13-2.13-3.55-4.4-6.24-5.82-8.09-6.81-.14-7.95-3.83-5.25-5.82,3-7.24,1.42c-2.41-4.26-11.92-4.26-11.92-4.26s-5-8.09-5.25-9.79.57-2.41,2.13-5.25.57-3.69-.43-6c-3.26-5-12.91-2.41-12.91-2.41V130.17c0-2,2.55-6.53,5.53-5.82s5.82-4.11,5.82-4.11l.76-5.32-4-3.05L250.6,103a31.46,31.46,0,0,0-4.47-4.9c-2.13-1.7-1-3.3-2.13-6.49s-10.32-9.47-10.32-9.47-2.45-2.66-4.36-2.87S218,80.9,214.51,82.5s-12.65,1.06-17,.53c0,3.3,14.58,22.35,16.49,26s-1.7,2-7.45,3.41a20.49,20.49,0,0,1-14.79,1.38c-2-.53-5.32-4.47-5.64-4.79s-2.66,4.36-2.66,4.36l-2.34-1.92s-5.21,2.87-8.19,3.09-8.3,3.72-9.79,4.26a20.77,20.77,0,0,1-11.17,0c-5.21-1.38-4.79-4.26-4.58-6.6s1.7-3.09,1.49-5.32a10,10,0,0,0-3.19-6c-1.7-1.7-1.17-5.32-3.19-8.09-.85.11-8.62-.53-13-1-.53,1.17-6.39,5.43-8.94,7.66s-4.68,1.06-8.3-1.17-8.19,2-8.19,2c-2,.64-4.47,3-4.68,5.43,1.17,1.17.11,3.62-.85,5s-3.41,6-4.47,6.7-2.77,4.26-3.41,5.64-3.72,1.17-8.73,0c-1.6,1.6-3.51,3.41-6.17,3.83-2.23-.32-6.81,1.49-6.81,1.49l-.74.46C68.24,131.54,68.31,142.34,67.56,143.37Z"/><path class="cls-2" d="M290.08,273.73l-.14-4.63c-.05-1.72-.59-5.14-1.11-8.44s-1-6.42-1.12-8.34-2.14-3.88-3.77-5.34c-.56-.51-1.08-1-1.49-1.42-3.31.65-9.86,4.24-11.38,6.69l-.71,1.14-1.18-.64c-3.19-1.74-5.81-11.59-6.72-16-1,0-3.09.1-4.82.23-5.66.41-13.42,1-17.89-1.25l-2.13-1.14c-2.78-1.51-5.65-3.07-6.88-2.51-.72.33-1.11,1.58-1.31,2.56l-.06.29-.17.24c-1.38,2-.75,3.07.82,5.36.35.52.72,1.06,1,1.62a2.81,2.81,0,0,1,.18,3c-1,1.69-3.89,1.71-4.9,1.66s-9.78.79-13.87,1.67l-.57.12-.49-.32a79,79,0,0,1-9.34-7.16c-1.39,1.4-4.22,4.54-6.41,7-4.28,4.75-6.95,7.69-7.89,8.35-1.6,1.13-5.33,1-10.43.64l-2-.12a7.8,7.8,0,0,1-.21,1l-.38,1.33-1.34-.35c-.07,0-6.91-1.84-8.83-3.4l-.25.08c-1.22.37-3.49,1.05-6.61-1.82-3.41-3.13-20-6.94-25.07-5.13a8,8,0,0,0-3.29,2.62,7.15,7.15,0,0,1-2.54,2.19c-1,.47-2.89,1.35-4.27.2s-1.39-3.11-.4-7.07c.17-3,2.54-8.1,4.33-10.56-1.42-.73-4.14-1.87-6.67-2.84-5.41,4.79-11.07,10.63-11.47,12.28,1,2.64,1.9,5.33.8,6.95a2.6,2.6,0,0,1-2.24,1.1c-2.49,0-17.8-3.57-19.54-4l-1.09-.26v-6.26c-2.45.8-6.59,2-9.19,1.64l-.19,0A145.55,145.55,0,0,1,61,239.61l-.22-.09-4.91-4.22-1,1.93,3.1,5.86-.68.74c-.18.2-4.52,4.81-10.7,4.92-2.12,0-5.17,0-8.41,0-5.08,0-10.83,0-12.41.17-2,.24-6.68,2.58-8.33,3.46l-.77.41-.71-.5c-.65-.46-6.35-4.61-6.35-9.46v-.45l.26-.37a17.6,17.6,0,0,1,4.31-4c1.65-1.2,2.95-2.15,3.35-3.63.66-2.43.24-4.22-1.1-4.67s-6.54,1.44-7.12,2.59l-.7,1.4-1.32-.84c-1.69-1.07-2.7-4.07-2.29-6.84a5.48,5.48,0,0,1,3.95-4.77l.16,0a10.51,10.51,0,0,1,4.09.41l.89.2a8.91,8.91,0,0,0-.27-1.16c-1.36-4.63-1.79-11-.14-13.65a2.93,2.93,0,0,1,2-1.45l.3-.05.29.08c1.49.38,2.57.73,3.43,1a15.65,15.65,0,0,0,4.81,1c.86,0,1.74.18,2.58.3,3.44.5,5,.51,5.94-1.48a14.62,14.62,0,0,1,4.85-5.89c-4.36-1.74-9.66-4.89-10.68-9.16L27,191l.14-.39c2.12-6.1,7-9,14.37-8.83a106.55,106.55,0,0,1,16.53,2.13c2.43.46,4.53.85,6,1s1.72-.74,2-4.08a8.92,8.92,0,0,1,.54-2.88,7.51,7.51,0,0,1,3.8-3.31c-.53-1.68-2.07-5.4-3.54-8.65a14.41,14.41,0,0,1-3.68-3.69L63,162c-.39-1.06-.75-2.31-1.12-3.64-.7-2.47-1.87-6.61-3.09-7s-2.56-1.58-4.22-3.08c-2.19-2-5.2-4.7-7.28-4.23l-10.26,2.25,9.29-4.89a32.25,32.25,0,0,0,5-3.15c1.15-.87,2-1.5,3.64-1.13,2.12.47,3.33,3.74,3.9,5.93a36.45,36.45,0,0,0,7.5-.59c.31-1.46.47-6.82.39-13.49v-.8l1.64-1c.49-.19,4.72-1.82,7.29-1.6,2.07-.4,3.65-1.83,5.21-3.4l.56-.56.77.18c5.94,1.39,7,.84,7.16.72,1.53-3.36,2.84-5.45,3.83-6.14a30.43,30.43,0,0,0,2.8-4.23c.53-.88,1-1.65,1.31-2.12,1-1.44,1.3-2.91,1-3.19l-.47-.47.06-.66c.26-3,2.93-5.64,5.37-6.55,1.1-.93,5.66-4.45,9.67-2,3.8,2.34,4.94,2.78,6.62,1.31.9-.79,2.17-1.8,3.51-2.86a46.34,46.34,0,0,0,5.1-4.37l.42-.92,1,.15c4.84.47,11.85,1,12.69,1l.79-.06.51.63a12.9,12.9,0,0,1,2,5,6.4,6.4,0,0,0,1.08,2.89,11.27,11.27,0,0,1,3.6,6.83,6.14,6.14,0,0,1-.82,3.58,5.28,5.28,0,0,0-.67,2l0,.21c-.21,2.24-.36,3.86,3.55,4.89a19.54,19.54,0,0,0,10.33,0c.35-.13,1.23-.6,2.08-1.06,2.41-1.31,5.71-3.1,8.08-3.27C175,113,179,111,180.43,110.2l.84-.46,1.73,1.41c1.79-3.4,2.27-3.47,2.84-3.57l.72-.12.56.53.31.34c2.9,3.24,4.18,3.94,4.68,4.08a18.79,18.79,0,0,0,13.78-1.27l.32-.12a31.6,31.6,0,0,1,5.13-.73c.55,0,1.2-.09,1.63-.17-.05-.12-.12-.28-.23-.47-.61-1.16-2.85-4.35-5.22-7.72C199.61,90.68,196.08,85.27,196.08,83v-1.6l1.59.19c4.67.57,13.22,1,16.26-.42,3.59-1.63,13.28-3.58,15.55-3.31s4.47,2.5,5.14,3.2c1.85,1.28,9.49,6.7,10.72,10.06a12.87,12.87,0,0,1,.72,3.53c.11,1.23.16,1.7,1,2.34a31.59,31.59,0,0,1,4.6,5l11.75,8.71L268,114.3l-.92,6.42L267,121c-.34.59-3.48,5.7-7.37,4.77a1.86,1.86,0,0,0-1.57.5,6.56,6.56,0,0,0-2.22,3.94v11.17c3.2-.53,9.8-1,12.68,3.37l.11.21c.15.35.31.67.45,1,.81,1.66,1.57,3.23-.08,6.24-.39.72-.75,1.3-1,1.8-.91,1.52-1,1.81-.93,2.53.16.87,2.47,5,4.66,8.62,2.55.1,9.78.74,12.25,4.8.43.44,1.47,1.06,5.26-1.71a3.3,3.3,0,0,1,3.12-.71c1.43.61,1.66,2.29,1.87,3.92a7.74,7.74,0,0,0,.42,2,10.45,10.45,0,0,1,2.45,2.26,17.07,17.07,0,0,0,5.51,4.48c2.75,1.33,5.91,3.36,5.43,5.49-.09.38-.52,1.6-2.5,1.6-1.12,0-4.08.26-6.69.51a7.88,7.88,0,0,0,2.53.57c1.87.14,2.66.62,4.65,3.68l.65,1c3.32,5.08,5.51,8.43,1.64,11.77-.63.54-1.26,1.17-1.87,1.77-2.38,2.36-5.35,5.28-8.63,2.75a3.26,3.26,0,0,0-.44-.19,7.91,7.91,0,0,0,.19,2.56,7,7,0,0,0,3.59,4.86,4.26,4.26,0,0,0,3.89.09c6.3-3.15,12-3.16,16.86,0,5.35,1.78,6.54,2,7.49,1.12.22-.73.41-1.4.58-2,1-3.81,1.87-6.82,8-5.29.26.06.51.11.76.15l1.19.19v.2c2.77,1.14,6.38,4.14,5,9.62l-.09.38-.28.28a9.09,9.09,0,0,1-4.53,2.15c-2.19.55-2.81.86-2.92,2.18.24,1.27,1.56,8.54,1.16,13.61a19,19,0,0,1-3.34,9.74c-.28.47-.58,1-.89,1.5a11.76,11.76,0,0,1-3.84,3.62c-2.17,1.48-3.38,2.43-3.11,4.54a5.44,5.44,0,0,0,1.17,3c1.12,1.5,1.33,2.6-.26,5.51s-2.46,4.49-4.12,4.95c-1.25.34-2.46-.15-3.91-1-3.45-2-5.77-3.87-4.27-9.27a48.53,48.53,0,0,1,3.35-8.24c-2.2-.44-5.62-1.33-7.46-2.85a15.12,15.12,0,0,1-1.7-1.65l-.15-.17-.5.26c-.95.52-2.32,3.61-3,6.19a13.85,13.85,0,0,0-.24,2.88c.42.5,1.11,1.79,2.24,5.68l.91,3.14-2.91-1.48a11.92,11.92,0,0,0-6.55-1.08c-3.26.6-6,3.65-7,5.37Zm19.79-27.8a2.8,2.8,0,0,1,2.05,1.2,12.25,12.25,0,0,0,1.4,1.36c1.75,1.45,6.38,2.34,8,2.56l2.07.28-1,1.82a51.37,51.37,0,0,0-4,9.37c-1,3.54-.07,4.28,3,6.06,1.24.73,1.62.74,1.72.71.5-.14,1.55-2,2.38-3.58,1-1.78.89-1.9.48-2.46a8.17,8.17,0,0,1-1.71-4.34c-.5-3.94,2.17-5.77,4.32-7.24a9.38,9.38,0,0,0,3-2.69c.32-.55.62-1.06.92-1.54a16.25,16.25,0,0,0,2.94-8.5c.41-5.06-1.13-12.94-1.15-13l0-.17v-.17c.18-3.72,3-4.44,5.07-5a7.85,7.85,0,0,0,2.94-1.15c.85-4.54-3.48-6-4.13-6.14-.29,0-.58-.1-.88-.18-3.42-.86-3.53-.46-4.55,3.28-.2.74-.43,1.56-.71,2.45l-.09.3-.21.23c-2.41,2.63-5.06,1.74-10.86-.19l-.33-.16c-4.07-2.68-8.72-2.66-14.2.08a7,7,0,0,1-6.42-.08,9.8,9.8,0,0,1-5.12-6.88c-.37-2-.61-4.42.89-5.52.92-.67,2.13-.61,3.59.18l.22.15c1.17.95,2.22.25,5-2.47.64-.64,1.31-1.3,2-1.9,1.83-1.58,1.31-2.76-2.16-8.08l-.66-1c-1.51-2.32-1.72-2.34-2.49-2.4-1.23-.09-3.28-.25-7.86-3.13l-3.45-2.17,4.06-.44c.33,0,7.13-.77,10.43-1a17.23,17.23,0,0,0-3-1.75,19.77,19.77,0,0,1-6.39-5.15,8.66,8.66,0,0,0-1.75-1.69c-1.36-.73-1.6-2.5-1.81-4.05a15,15,0,0,0-.25-1.48l-.27.18c-1.68,1.23-6.15,4.5-9.12,1.23l-.18-.25c-1.64-2.89-8.43-3.54-10.69-3.54h-.79l-.42-.68c-1.2-2-5.13-8.47-5.44-10.3s.33-2.85,1.29-4.45c.29-.48.62-1,1-1.71,1-1.73.74-2.17,0-3.64-.14-.29-.3-.61-.45-1-2.7-3.88-11.22-1.75-11.3-1.73l-1.78.47V130.17a9.25,9.25,0,0,1,3.29-6.16,4.6,4.6,0,0,1,4-1c1.39.34,3.31-1.93,4.13-3.23l.6-4.21L261.66,113,249.58,104l-.13-.17a30.19,30.19,0,0,0-4.21-4.63,5.31,5.31,0,0,1-2-4.29,10.17,10.17,0,0,0-.56-2.82c-.7-1.91-6.15-6.29-9.79-8.79l-.24-.21c-.87-.94-2.53-2.32-3.48-2.43-1.52-.16-10.6,1.5-14.07,3.08-3.67,1.66-11.66,1.21-15.56.87,1.82,3.57,7.17,11.19,10.3,15.65,2.63,3.75,4.71,6.71,5.41,8a3.48,3.48,0,0,1,.41,3.28c-.68,1.24-2.12,1.35-4.1,1.51a29.12,29.12,0,0,0-4.52.62,21.57,21.57,0,0,1-15.65,1.42c-1.62-.43-3.54-2.2-5.18-4-.45.79-1,1.85-1.49,2.79l-.79,1.59-3-2.44c-1.69.87-5.38,2.63-7.92,2.81-1.76.13-4.87,1.82-6.93,2.94a21.94,21.94,0,0,1-2.48,1.24,22,22,0,0,1-12,0c-6.22-1.65-5.86-5.56-5.64-7.9l0-.2a8,8,0,0,1,1-3,3.41,3.41,0,0,0,.54-2,8.56,8.56,0,0,0-2.78-5.09,8.36,8.36,0,0,1-1.84-4.27,12.62,12.62,0,0,0-1.12-3.4c-2.56-.08-9-.65-11.56-.89a52.72,52.72,0,0,1-5.25,4.47c-1.31,1-2.55,2-3.41,2.77-3.44,3-6.62,1-10-1-2.6-1.61-6.45,1.82-6.49,1.86l-.23.21-.3.1a6.11,6.11,0,0,0-3.61,3.72c1,1.78.07,4.36-1.18,6.17-.27.4-.73,1.16-1.21,2-1.59,2.67-2.7,4.46-3.61,5.1a20.06,20.06,0,0,0-2.93,5.07c-1.06,2.3-4.44,2.11-9.57,1A11.89,11.89,0,0,1,76,128.38l-.21,0-.21,0c-1.31-.19-4.25.7-5.92,1.34.12,13-.58,14-.92,14.48h0c-.35.48-1.29,1.76-11,1.65H56.62l-.24-1.11c-.47-2.23-1.47-4.6-2-4.88-.35-.07-.35-.07-1.28.63-.48.37-1.14.87-2.08,1.48a26.67,26.67,0,0,1,5.52,4.17,15,15,0,0,0,3.19,2.49c2.67.85,3.83,5,5,8.93.34,1.2.66,2.34,1,3.27a11.93,11.93,0,0,0,3.09,3l.36.23.18.39c4.65,10.24,4.27,11.06,4,11.66l-.27.59-.68.23c-.79.23-2.61,1.07-3.15,2.22a9.06,9.06,0,0,0-.28,1.92c-.22,2.44-.61,7-5,6.66-1.62-.12-3.79-.53-6.3-1a104.25,104.25,0,0,0-16.1-2.08C33,184.29,30.76,189,30,191.09c1.12,3.21,6.69,6.35,11.57,7.75l3.63,1-3.42,1.61a12.24,12.24,0,0,0-6.23,6.11c-1.86,4.15-5.78,3.58-8.93,3.13-.82-.12-1.6-.23-2.34-.27a18.37,18.37,0,0,1-5.53-1.1c-.76-.25-1.62-.53-2.77-.84-.73.94-1.08,6.09.48,11.4.46,1.56.75,3.15-.22,4.17s-2.41.68-3.79.34A8.55,8.55,0,0,0,9.54,224a2.68,2.68,0,0,0-1.81,2.43,6,6,0,0,0,.37,3.06c2.48-1.86,7.15-3.15,9.15-2.49,2.18.73,4.26,3.28,2.94,8.1-.67,2.44-2.57,3.83-4.42,5.17a16.59,16.59,0,0,0-3.38,3c.29,2.38,2.86,4.92,4.44,6.19,1.85-.95,6.19-3.07,8.52-3.35,1.75-.21,7.1-.2,12.76-.19,3.22,0,6.26,0,8.35,0a13.13,13.13,0,0,0,8-3.34l-2.83-5.35L55,230.86l7.22,6.21a150.24,150.24,0,0,0,15.27,4.83c2.54.26,7.82-1.47,9.66-2.16l1.92-.73v8.06c6.39,1.48,15.94,3.58,17.71,3.64.05-.44-.09-1.55-1.19-4.34-1.32-3.38,9.42-12.76,12.94-15.84l.64-.56.79.29c9.77,3.64,9.85,4.55,9.94,5.43a1.55,1.55,0,0,1-.76,1.48c-.77.67-4.12,6.68-4.21,9.69l0,.3c-.69,2.73-.64,3.84-.56,4.23a6.4,6.4,0,0,0,1.25-.48,4.65,4.65,0,0,0,1.55-1.42A10.72,10.72,0,0,1,131.6,246c5.8-2,23.55,1.58,28,5.69,1.93,1.78,2.92,1.48,3.88,1.19a2.6,2.6,0,0,1,2.92.5c.52.47,3.39,1.51,6.17,2.35,0-.06,0-.09,0-.09l-.14-1.54H174c.9,0,2.13.08,3.55.17,2.49.16,7.66.5,8.61-.13.73-.52,4.6-4.8,7.42-7.93,7.67-8.51,7.75-8.5,8.73-8.4l.71.07.35.56a69.81,69.81,0,0,0,9.12,7.17c4.69-.91,13.38-1.58,13.76-1.61h.2a6.28,6.28,0,0,0,2.29-.26l-.08-.16c-.3-.51-.63-1-1-1.47-1.46-2.14-3.26-4.8-1-8.34.51-2.23,1.44-3.64,2.83-4.28,2.53-1.17,5.58.49,9.43,2.59l2.06,1.11c3.75,1.88,11.36,1.32,16.39,1,4.86-.36,6.44-.42,7.3.52l.27.3.07.4c1.1,5.94,3.22,11.79,4.67,14,3.1-3.17,9.88-6.54,13.21-6.76l.84-.05.45.72a11.24,11.24,0,0,0,1.57,1.57c1.91,1.72,4.53,4.07,4.71,7.29.1,1.78.6,5,1.09,8.06.3,1.87.58,3.69.8,5.26a13.1,13.1,0,0,1,6.66-3.82,12.85,12.85,0,0,1,5.48.31,13.15,13.15,0,0,0-.75-1.85c-.48-.37-1.16-1.31-.45-5.35l0-.12c.29-1.09,1.88-6.61,4.41-8A4.51,4.51,0,0,1,309.88,245.92Zm-106.51-7.45,0,0Zm-75.67-3.73h0Zm0,0h0Z"/></svg>