<svg id="Layer_1" data-name="Layer 1" xmlns="http://www.w3.org/2000/svg" viewBox="0 0 350 350"><defs><style>.cls-1{fill:#999;}.cls-2{fill:#f90;}</style></defs><title>M</title><path class="cls-1" d="M65.08,194.24a24.88,24.88,0,0,0-4.32-3.1c-1.41-.56-4.51-1.41-4.51-1.41l-2.16-6s.56-2.91,2-8.92c-.19-4.51-3.29-9.67-3.29-9.67H43.86l-1.92-2c1.93-1.41,2.2-4.41,2.77-6.29s-.66-2-.66-2l-.38-3.47,4.69-.66v-4.32L42,147.4a20.74,20.74,0,0,1,1.19-7.76l3.13-3.13,1.25-2c1.25-2,2.13-5.51,3.88-8.51a69.48,69.48,0,0,1,4.76-6.76,25.62,25.62,0,0,0,.88-2.5c.13-.63-.88-7.89-.88-7.89s.25-2,3.38-2.38,6-4.51,6-4.51l.13-6.76,15.15-5s2.63-2,2.63-2.88-.88-3.25-.5-5.26,3.38-2.13,3.38-2.13a13.93,13.93,0,0,1,4.07.53,8,8,0,0,0,3.57.19,57,57,0,0,0,8.17-1.13l2.66-.34a5.94,5.94,0,0,0,1.44-1.13,34.32,34.32,0,0,1,3.38-2.63l-5.45-5.76a17.62,17.62,0,0,1,1.31-3.57C106.2,65,109.58,63,109.58,63l1.69,1-.75,1.63a6.54,6.54,0,0,0,2.25,2.07c1.31.63,1.75-.06,2.38-.25a17.48,17.48,0,0,1,2.44-.63c.63-.06,1.88-.44,2.88-.69a13.75,13.75,0,0,1,3.5.13l4.94,4.44s6.2,1.63,6.82,2,11.58,4.19,11.58,4.19l2-1.5a7.21,7.21,0,0,1,.75-2.32c.56-.94,1.56-3.38,1.56-3.38l1.06-6.26,3.07-.13a15.39,15.39,0,0,1,2.57-2.5c1.38-1,2.07-4.57,2.57-5s.44-2.19,1.75-2.25a5.88,5.88,0,0,1,2.25.31,2.76,2.76,0,0,1,3.11-.61c2.07.7,2.25,2,3.14,3.14s1.17,2.49,2.63,3.43a17.33,17.33,0,0,1,2.86,2.49l-.33,2.82c.3,3.46,1.41,3.38,2.44,3.57s8,3.57,8,3.57l5.73,1.13L202.9,83.75,205,82l-3.76-9V65.63c0-3.76.94-10.23,1.88-16.05s6-7.7,9.39-10.51S218,29.3,218,29.3l11.27,2.24a69.79,69.79,0,0,1,9.11,3.86c2.63,1.6,5.35,7.51,5.35,7.51L252,45.73A45.49,45.49,0,0,1,257.07,44c.66,0,0,0,2.07-.47s.47-4,1.41-5.18,3.57-3.74,3.57-3.74l2.63-.75a47.14,47.14,0,0,0,4.79,1.69c.28-.09.47-6.1.47-6.1l-1.69-2.07.47-4.88s1.41-3.76,2.25-4,4.13-2.07,4.13-2.07l-.56-6.29,3-2.35,3.1,12.86,7.23-1.13,1-2.63,4,.38,2-3s1.31,1.22,2.35,2.16a16.69,16.69,0,0,0,3.94,2.44,8.27,8.27,0,0,1,4,3.47c.94,2,.75,8.45.75,8.45s-2.63-.09-4.41-.09-4.41,1.5-5.82,2.16-.75,5.91-.75,5.91H291.8s-.66,2.63.28,11.17-4,12.2-4,12.2L283.63,36.9l-3,5S280.25,53,279.5,54.46s-7.7,8.36-7.7,8.36l-.75-2.07-5.26,3-1.13,15.11a30.28,30.28,0,0,0-3.57,2.44c-1.31,1.13-4.32,1-5.26.84s-1.41.56-2.35,3.1A23.77,23.77,0,0,1,251,90l4.6,4.22-.94,2.07s6,6.48,6.48,7.23,6.38,1.41,6.38,1.41l1.5-2.44.09-1.78-2.53-4.6s7.51,1.31,8.73,1.41,3.76.38,5.07.38,5.35,1.31,7,1.88,3.19,3,3.19,3-1.31-.66-1.31,1.28a6.34,6.34,0,0,0,.75,3.44,2.43,2.43,0,0,1,.13,1.44,5.48,5.48,0,0,1-.63,1.88c-.31.38-1.5,1.5-1.5,1.5a13.8,13.8,0,0,1,.19,3.38c-.19,1.25-.63,3.13-.63,3.13l-2,.81s0-.63-.75-.44a2.4,2.4,0,0,0-1.06.5l-1.38.19-.19,1.38s-1.82-2.44-2.44-1.13-.69,3.19,0,3.76a2.72,2.72,0,0,1,.88,1.25l-.38,2.94s-4.44.63-5,.38-.81,2.32-.5,3.94a17.16,17.16,0,0,0,.56,2.32,13.56,13.56,0,0,1-1.38,2.5c-.56.63.13.56-1.5.88s-2.13,1.13-2.38,1,.25-1.25-.88-1.19a22.62,22.62,0,0,0-3.57.69,4.17,4.17,0,0,0-2.32.94,6.64,6.64,0,0,0-1.75,3.44c-.44,1.94-1.44,3.38-.25,4.38a5.75,5.75,0,0,0,3.32.94l4.76.56s1.44,4.19,2,4.57.88,1.88.88,1.88-3.19,1.5-4,1.94a4.27,4.27,0,0,1-2.13,1,13.92,13.92,0,0,0-3.5,1.06,6.2,6.2,0,0,1-1.82.38s-.81-1.5-.81-.25.25,2.57.13,3.44a4.52,4.52,0,0,0,.63,2.94c.56.81,2.19,2.82,2,4.13s-.88,6.76-.88,6.76l-4.32,1.75s.19,4.57.06,4.76-1.25.94-1.82,1.56-.94,1.38-1.19,1.44-1.63-.5-2-.13-1.5,1.63-1.5,1.63-4,3.13-4,3.32a15,15,0,0,1-2.82-.56s.25-1.13-.38-1.31a11.63,11.63,0,0,0-2.69.06A4.94,4.94,0,0,1,242,192c-.19,1.25-.13,7.13-.13,7.13s-14.77-.94-15.33-.5-1.63,3.76-1.69,4.44-1.69,1.82-2.07,2.07,1.5,1.25,2.32,1.56,3.13-.06,3.63.75,2.13,3,2.13,3-2.57.25-2.63,1.19a2.2,2.2,0,0,1-1,1.56c-.25.25-1.25,2.19-.81,2.88a10.67,10.67,0,0,1,1.31,3.44,5.81,5.81,0,0,1-.63,3.5c-.56.69-1.06,2.44-2.38,2.94a6,6,0,0,1-2.69.63c-.38-.13-2.07-.25-2.07-1.5s.44-7.13.31-7.57-3.07-.81-3.07-.81.44,1.19-.38,1.63-2,.38-2.5,1.31a7.67,7.67,0,0,0-.44,3.76c.06,1.5-.31,2.57.25,3.57a9.54,9.54,0,0,1,.88,3.82c.13,1.5.63,2.25,1.31,2.44s1.38.31,1.31.56a8.06,8.06,0,0,0,.19,3.57c.5,1.38,1.69,3.13,1.69,4a19.3,19.3,0,0,1-.44,5.07,13.28,13.28,0,0,0,.19,9c-4.32,3.44-8.89,6.32-9.2,7.07s-2.63,4.57-2.63,4.57-6.63,1.56-8.07,1.69-1.75.13-1.75.13a21.93,21.93,0,0,0-2.88.75c-.19.19-1.69,1.38-1.82,2.69s-.5,3.57-1.69,3.88l-1.19.31s.5,4-.38,5.07a41.32,41.32,0,0,1-3.13,3.07l-.63,6.7s-7,3-8.76,3.13-3.07.44-3.82-.31-1.44-5.26-1.13-5.32a4.37,4.37,0,0,0,2.19-.69,3.4,3.4,0,0,0,.64-1.81l2.86-2-1.13-.88-.63-1.81s3.19.56.81-1.31l-1-1.38s1.38-.56,1.31-1.25.19-1.94-.5-2.32-2.38.38-2.88.38-2.69-.06-2.69-.06l-1.25,2.13-3.32-.44-1.38,1.94v2.32l-5.88.44s-.63-2.13-4.26-1.75V279h2.5s-.06-1.63-1.06-2-2.5-.81-2.5-.81a6,6,0,0,0,.19-2.75c-.31-1.13-.56-2.32-.56-2.32s3.76-4.69,3.57-5.63a27.45,27.45,0,0,0-.88-2.82l.5-5.38s-.94-.06-1.69-.06h-4.51l-.44,3.88-2.75.06,1.06,1.06a36.39,36.39,0,0,0-1.25,3.5c0,.38-.69.44.56,1.19s2.38,3.88,2.38,4.88-.13,15.65-.13,15.65a2.7,2.7,0,0,0-2.82,1.06,11.67,11.67,0,0,0-1.19,3.5s-7.89,7.32-9.58,8.76a8.74,8.74,0,0,0-2.25,2.69s-1.31,5.38-.31,5.88,14.21,2.13,14.21,2.13-2.63,5.45-2.82,5.7-1.82-.25-2.07,1.19-.69,3.57-2.19,4.76-5.19,3.76-5.19,3.76l1.63,5,2.07.88a7.82,7.82,0,0,1-1.69,1.88,18.23,18.23,0,0,0-1.75,1.19,8.93,8.93,0,0,1-.38,2.19h-1.5s.13-1.44-.19-1.56-6.2-1.56-6.38-1.56-4.38,2.44-4.38,2.44l-.63,2s-3.44,2.32-3.69,2.44-2.32-.31-3.07,0a5,5,0,0,1-2.25.44c-.31-.13-1.56-.56-1.38-1.13s.25-2.69-.81-3.63.38-3.5-.5-5.88c.56-2.69,1.44-3.88,1.25-4.13s-2.38-1.44-2.5-2.75-.13-3.07-.13-3.07-.31-2.88-.25-3.25a24.85,24.85,0,0,0,.38-2.5c.06-.94,1.88-1.13,1.88-1.13l-.56-2.88,1.19-.75s-.88-3.13-1.13-3.76-1-2.38-1.25-2.94-1.69-1.5-1.69-1.5a11.57,11.57,0,0,1-1.44.56,9.06,9.06,0,0,1-2.13-1.25c-.06-.19-.94-4.38-.94-4.38l4.88-3.19,3.63-2.13s-.56-5.7-.44-5.88,1.5-2.07,1.5-2.07l-1.5-2,2.07-2.69s-5.19-3.25-4.82-3.82a3.23,3.23,0,0,0,.38-1.5s2.19.19,1.94-.56-.56-2.25-.56-2.25H108s-5-6.51-5.7-7.2a50.89,50.89,0,0,1-3.82-6.95c-.56-1.31-1.75-4.88-1.75-4.88s-1-1.44-1.25-1.44a26.91,26.91,0,0,0-3.94,1.19,6,6,0,0,1-3.5.31l-1.25-.63-5.7.56s.56-2-1.88-2.19-4.07-.06-4.32-.19-1.19,0-2.32-1.81a20.12,20.12,0,0,0-1.81-2.75c-.19-.13-6.13-2-7.26-.88S62,249,62,249s-2.32.19-3,.88a9.11,9.11,0,0,0-1.13,1.38l.31,2.82-2.32,1.06s.25-2.07-.06-2.44a6.12,6.12,0,0,0-1.13-.88L53.31,253l-1.5-.63a22.89,22.89,0,0,0-.38-4.44c-.38-1.13.88-1-.94-1.82l-1.82-.81-1.31-6.63s5.19,1.31,6.32.56a3,3,0,0,0,1.38-3.76,5,5,0,0,0-1.81-2.75c-.69-.69-1.82-1.94-1.82-1.94s-1.63-1.25-1.44-1.5l1-1.31s.94-.31,1.81-.56,1.75-.56,1.75-.56l1.06-6.7,5.51.44,3.63-5.45s5.63-.94,5.7-3.63S65.39,199.66,65.08,194.24Z"/><path class="cls-2" d="M113.92,343.61a2.15,2.15,0,0,1-.79-.13c-2.32-.9-2.47-2.07-2.2-2.89a3,3,0,0,0-.41-2.12c-1.09-1-.93-2.38-.79-3.64a6.25,6.25,0,0,0-.1-2.82l-.14-.38.08-.4a18.79,18.79,0,0,1,1-3.29c-.9-.67-2.15-1.74-2.29-3.17-.12-1.22-.13-2.76-.13-3.12a16.4,16.4,0,0,1-.23-3.57l.06-.35a19.11,19.11,0,0,0,.3-2,2.46,2.46,0,0,1,1.65-2.06l-.5-2.54,1.11-.7c-.32-1.11-.67-2.31-.79-2.6-.24-.59-.93-2.22-1.2-2.83a4.31,4.31,0,0,0-.59-.52,2.94,2.94,0,0,1-1.27.36c-.62,0-3.15-1.26-3.47-2.22,0-.09-.09-.26-1-4.54l-.2-.95,5.69-3.72,2.91-1.71c-.52-5.31-.43-5.44-.12-5.91l.92-1.27-1.52-2,1.78-2.32c-3.9-2.56-4.06-3.34-4.16-3.77a1.55,1.55,0,0,1,.22-1.19,2,2,0,0,0,.14-.72l0-1.39h-.67l-.42-.55c-2.43-3.16-5.18-6.66-5.58-7.06-1-1-3.71-6.44-4.12-7.39-.51-1.19-1.46-4-1.73-4.79l-.41-.54a28.36,28.36,0,0,0-2.84.89c-.76.42-3.46,1-4.81.33l-.88-.44-7.35.73.56-2a.52.52,0,0,0,0-.23,1.09,1.09,0,0,0-.6-.16c-1.26-.1-2.29-.11-3-.12a4.82,4.82,0,0,1-1.66-.16,4.6,4.6,0,0,1-3-2.4l-.11-.17c-.6-1-1.1-1.77-1.35-2.14-1.26-.43-4.56-1.23-5.49-1a8.35,8.35,0,0,0-1,3.22l-.14,1.14-1.15.1a6.45,6.45,0,0,0-2.15.49,7.6,7.6,0,0,0-.63.73l.37,3.3-5.55,2.55.3-2.52c0-.37.07-.78.08-1.11l-.89.81-3.2-1.33v-.94a20.33,20.33,0,0,0-.3-4,2.72,2.72,0,0,1-.15-1h0l-2.48-1.11-1.89-9.55,2.17.55A17.64,17.64,0,0,0,53,238a1.57,1.57,0,0,0,.75-2.08,3.33,3.33,0,0,0-1.09-1.84l-.38-.36c-.6-.6-1.5-1.59-1.78-1.9-1-.79-2.6-2.07-1.61-3.4l1-1.32.26-.35.41-.14s1-.32,1.87-.58l.88-.27,1.13-7.15,6,.48,3.51-5.26.61-.1c2.07-.35,4.49-1.42,4.51-2.26s-1-3.53-2-5.86c-1.41-3.52-3-7.48-3.35-10.65a20,20,0,0,0-3.48-2.48c-1.32-.53-4.32-1.35-4.35-1.36l-.71-.19-2.54-7.07.07-.38c0-.12.57-2.94,1.94-8.78A22.31,22.31,0,0,0,52,166.56H43.27L39.79,163l1.32-1c1.09-.8,1.51-2.57,1.88-4.13.12-.51.24-1,.36-1.42l.05-.19-.63,0-.65-6,4.83-.68V148.1L40.7,149l-.12-1.5a22.07,22.07,0,0,1,1.27-8.38l.11-.29,3.23-3.23,1.17-1.87a23.19,23.19,0,0,0,1.55-3.42,36.75,36.75,0,0,1,2.31-5.05A68.68,68.68,0,0,1,55,118.52c.3-.76.62-1.65.71-2,0-.73-.44-4.33-.87-7.48l0-.19,0-.19c.14-1.15,1.28-3.21,4.62-3.61,1.84-.22,3.87-2.41,4.77-3.58l.14-7.31,15.87-5.25A11.51,11.51,0,0,0,82,87.15c0-.21-.1-.54-.16-.8a11.88,11.88,0,0,1-.3-4.54c.46-2.46,3.18-3.22,4.71-3.28a14.73,14.73,0,0,1,4.65.63,6.42,6.42,0,0,0,2.8.11l.14,0a56,56,0,0,0,7.89-1.08l.2,0,2.37-.31a4,4,0,0,0,.8-.63,16,16,0,0,1,2.35-2l-4.87-5.15.19-.76a18.21,18.21,0,0,1,1.48-4c.81-1.33,3.71-3.06,4.57-3.56l.72-.41,3.5,2.08-.93,2a4.22,4.22,0,0,0,1.21,1c.33.16.33.16.64,0a3.66,3.66,0,0,1,.72-.32l.21-.06a15.12,15.12,0,0,1,2.5-.61A16.94,16.94,0,0,0,119.2,65l.93-.24a13.43,13.43,0,0,1,4.06.1l.42.06,5,4.5a49.92,49.92,0,0,1,6.86,2.07c.53.26,5.74,2.12,10.6,3.82l1-.72a7.72,7.72,0,0,1,.83-2.24c.39-.65,1.1-2.3,1.41-3l1.23-7.23,3.59-.15a15.84,15.84,0,0,1,2.41-2.26,8.48,8.48,0,0,0,1.41-2.87,5.59,5.59,0,0,1,.93-1.94c0-.09.07-.2.11-.31a3,3,0,0,1,2.63-2.41,7.71,7.71,0,0,1,2,.16,4.36,4.36,0,0,1,3.91-.39,5.59,5.59,0,0,1,3.29,2.83,7.15,7.15,0,0,0,.51.78,10.58,10.58,0,0,1,.9,1.41,4.3,4.3,0,0,0,1.38,1.71,18.71,18.71,0,0,1,3.14,2.73l.43.48-.39,3.31c.18,2,.49,2,1,2.11l.25,0a75.84,75.84,0,0,1,8.18,3.61l6,1.17L203,81.82l.3-.26-3.47-8.33V65.63c0-4,1-10.8,1.9-16.28.81-5,4.3-7.44,7.38-9.55.9-.62,1.75-1.2,2.5-1.83,2.51-2.09,4.53-7.27,5.09-9.1l.38-1.22,12.71,2.54a69.84,69.84,0,0,1,9.37,4c2.5,1.52,4.84,5.94,5.64,7.57L252,44.22c4.22-1.6,4.88-1.6,5.1-1.6h.1c.26-.08.66-.21,1.61-.42a6.27,6.27,0,0,0,0-1.51,4.56,4.56,0,0,1,.63-3.2c1-1.18,3.55-3.74,3.66-3.85l.26-.26,3.44-1,.45.18c1,.41,2.22.86,3.11,1.18.08-1,.15-2.45.19-3.79l-1.72-2.1.61-5.82c1.65-4.39,2.73-4.75,3.13-4.88s1.74-.81,3.08-1.53l-.55-6.13,5.35-4.18,3.31,13.73,5.14-.8L290,15.4l4.25.4,2.42-3.69,1.23,1.14s1.31,1.22,2.34,2.15a17,17,0,0,0,3.36,2.12,9.53,9.53,0,0,1,4.95,4.23c1,2.17.92,8,.89,9.1l0,1.43L308,32.22s-2.62-.09-4.36-.09c-1.13,0-3,1-4.32,1.59l-.74.36a12.29,12.29,0,0,0-.1,4.53l.2,1.59h-5.61a56.22,56.22,0,0,0,.44,9.6c1,9.25-4.38,13.33-4.61,13.5L287,64.65l-4.15-23.78L282,42.29c-.15,4.34-.51,11.39-1.28,12.83s-6.28,7-7.95,8.69l-1.57,1.57-.94-2.58-3.14,1.8L266,79.71l-.64.38A29,29,0,0,0,262,82.38c-1.78,1.52-5.15,1.36-6.26,1.19a12.93,12.93,0,0,0-.94,2.17,24,24,0,0,1-2,4.06l4.47,4.11-1,2.14c1.87,2,5,5.4,5.82,6.5a26.67,26.67,0,0,0,4.63.89l.84-1.36.05-1-3.77-6.84,2.91.51c3,.52,7.75,1.33,8.6,1.39l1.31.12c1.23.11,2.77.26,3.65.26.7,0,2.24.2,7.49,2,2.12.71,3.77,3.31,4,3.61l2.61,4.24-3.7-1.85a4.72,4.72,0,0,0,.53,2.33,3.32,3.32,0,0,1,.35,2.19,6.41,6.41,0,0,1-1,2.78c-.21.26-.69.73-1.08,1.11a12.36,12.36,0,0,1,.08,3.07c-.19,1.29-.63,3.16-.65,3.24l-.17.71-4.63,1.88v-.57l-.21-.07-.31,0-.51,3.75-2.07-2.79c-.1-.13-.21-.26-.32-.39a2.73,2.73,0,0,0,0,1.15,4.08,4.08,0,0,1,1.26,1.9l.07.27-.55,4.29-1.07.15a39.08,39.08,0,0,1-4.38.44,8.2,8.2,0,0,0,.07,2.21,16.87,16.87,0,0,0,.51,2.11l.19.52-.22.52a13.37,13.37,0,0,1-1.62,2.89c-.43,1-1.13,1.1-2.29,1.32a3.44,3.44,0,0,0-1.41.6,1.78,1.78,0,0,1-1.86.28,1.5,1.5,0,0,1-.79-1c-.88.13-2,.4-2.53.54l-.15,0-.51.11a2.25,2.25,0,0,0-1.1.4,5.27,5.27,0,0,0-1.42,2.8c-.13.57-.3,1.09-.44,1.55a4.62,4.62,0,0,0-.33,1.39,4.35,4.35,0,0,0,2.41.65h.1l5.75.68.29.84a29.5,29.5,0,0,0,1.61,4,4.87,4.87,0,0,1,1.31,2.65l.23,1.09-1,.48c-.82.39-3,1.42-3.8,1.83a5.88,5.88,0,0,1-2.68,1.22,16.28,16.28,0,0,0-2.94.83,4,4,0,0,1-1.93.57,9.47,9.47,0,0,1,0,2,3.16,3.16,0,0,0,.39,1.94l.25.35c1.13,1.56,2.21,3.21,2,4.78-.19,1.31-.87,6.74-.87,6.74l-.1.82L259,179.44c.15,4.06.05,4.21-.22,4.61a3.64,3.64,0,0,1-.86.8,10,10,0,0,0-1.08.93,7.49,7.49,0,0,0-.53.69,2,2,0,0,1-2.6,1.09l-.42-.09c-.46.5-1.14,1.25-1.15,1.25l-.18.17c-1.3,1-2.79,2.21-3.46,2.79v.11l-.56.44c-.58.45-1,.47-4-.33l-.51-.14a3.45,3.45,0,0,1,0,.48c-.12.83-.13,4.68-.11,6.91l0,1.53-1.52-.1c-5.95-.38-12.56-.68-14.42-.61a17.9,17.9,0,0,0-1.1,3.27c0,.28-.08.92-1.18,1.94l.52.23a7.76,7.76,0,0,0,.91.07c1.21,0,2.71.11,3.42,1.27.38.62,1.62,2.31,2.06,2.9l1.5,2-2.5.24a6.06,6.06,0,0,0-1.41.32,3.39,3.39,0,0,1-1.28,2l0,0a4.91,4.91,0,0,0-.54,1.35,11.84,11.84,0,0,1,1.41,3.84c.14,1.16,0,3.42-.94,4.57a5.84,5.84,0,0,0-.36.62,5.37,5.37,0,0,1-2.61,2.75c-2.29.87-3.1.82-3.64.65l-.11,0c-1.94-.41-2.92-1.36-2.92-2.82,0-.55.07-1.79.15-3.23.06-1.07.14-2.54.17-3.42l-.3-.07a2.26,2.26,0,0,1-1.06,1.21,5.82,5.82,0,0,1-1.19.44,2.16,2.16,0,0,0-.74.29,7,7,0,0,0-.27,3,14.38,14.38,0,0,1,0,1.51,2.72,2.72,0,0,0,.1,1.42,10.64,10.64,0,0,1,1.05,4.4c.08,1,.32,1.21.33,1.22l.27.06c.65.17,2.39.62,2,2.19a6.73,6.73,0,0,0,.14,2.74,15.92,15.92,0,0,0,.74,1.6,7.06,7.06,0,0,1,1,2.89v.26a18.78,18.78,0,0,1-.51,5.26,11.82,11.82,0,0,0,.16,8l.39,1-.82.65c-1.93,1.54-3.93,3-5.53,4.14a40.83,40.83,0,0,0-3.3,2.51c-.46,1-2.13,3.75-2.66,4.62l-.31.51-.58.14c-.69.16-6.78,1.59-8.28,1.72-1,.09-1.48.12-1.71.13-.86.18-1.86.42-2.27.54-1,.89-1.16,1.4-1.19,1.62-.29,3-1.18,4.71-2.74,5.12h0c.11,1.61.07,3.84-.81,4.91a35.49,35.49,0,0,1-2.86,2.85l-.65,7-.77.33c-1.21.52-7.32,3.11-9.22,3.24l-.89.08c-1.44.14-2.94.28-4-.8s-1.83-5.66-1.53-6.67l.25-.81.88-.23.35-.05a3.22,3.22,0,0,0,1.14-.27,2.85,2.85,0,0,0,.21-.89l0-.67,1.87-1.32L174,279.9l.94.17-1.22-1.67,1.67-.68a2.82,2.82,0,0,0,.42-.23c0-.1,0-.21,0-.33s0-.21,0-.33c-.27.06-.58.14-.77.2a4.6,4.6,0,0,1-1.19.23l-1.89,0-1.3,2.22-3.4-.45-.62.88V283l-8.34.62-.32-1.1h0s-.45-1-2.75-.74l-1.56.16v-4.43h.09l-.13,0-1.38-.4.42-1.37a4.51,4.51,0,0,0,.18-2c-.32-1.16-.57-2.35-.58-2.4l-.14-.65.42-.52a30.8,30.8,0,0,0,3.23-4.69c-.18-.73-.6-1.94-.77-2.39l-.11-.3.39-4.21H151.9l-.43,3.85-1.55,0-.09.23c-.46,1.14-1,2.54-1.13,3,1.76,1.21,2.92,4.81,2.92,6,0,1-.12,15.06-.12,15.66v1.76l-1.71-.39s-.94-.18-1.28.4a10.32,10.32,0,0,0-1,3l-.08.49L147,293c-.32.3-7.93,7.36-9.62,8.8a8.22,8.22,0,0,0-1.83,2.11,20.28,20.28,0,0,0-.61,4.22c1.73.36,7.83,1.21,13.34,1.89l2,.24-.86,1.78c-2.69,5.57-2.86,5.8-3,5.93a1.85,1.85,0,0,1-1.52.66l-.3,0c-.24,1.38-.75,4-2.69,5.53-1.08.85-3.21,2.36-4.4,3.2l1.1,3.39,3,1.29-1,1.42a8,8,0,0,1-2.19,2.33,12.25,12.25,0,0,0-1.08.71c-.16,1.63-.41,2.85-1.73,2.85h-3l.13-1.54c0-.1,0-.2,0-.31-1.29-.33-4-1-5-1.22-.64.34-2,1.13-3.37,1.91l-.61,2-.41.28c-3.52,2.37-3.76,2.49-3.85,2.53a2.91,2.91,0,0,1-1.68.11,8,8,0,0,0-1.52-.05h0A7.83,7.83,0,0,1,113.92,343.61Zm.16-2.8h0Zm-.31-.13.22.09a5.84,5.84,0,0,0,1.37-.36,6.19,6.19,0,0,1,2.83-.13l.36,0,2.91-1.93.64-2.05.48-.28c4.52-2.63,4.64-2.63,5.09-2.63s6.87,1.65,6.91,1.67l.17.08V335l.5-.38a18.69,18.69,0,0,1,1.93-1.31l.08-.06-.93-.39-2.15-6.62.87-.6s3.67-2.55,5.12-3.7c1.16-.92,1.51-2.92,1.67-3.89a2.61,2.61,0,0,1,2.54-2.23c.36-.71,1-2,1.6-3.25-5.67-.72-11.8-1.57-12.7-2-.65-.33-2-1-.43-7.49l.08-.25a10,10,0,0,1,2.63-3.19c1.45-1.23,7.66-7,9.19-8.41a12.45,12.45,0,0,1,1.27-3.5,3.63,3.63,0,0,1,2.63-1.77c0-3.69.11-13.43.11-14.23s-1-3.28-1.69-3.67a2.64,2.64,0,0,1-1.4-1.55,1.68,1.68,0,0,1,.19-1.23,21.89,21.89,0,0,1,1-2.79l-2.75-2.75,4.83-.11.44-3.91h5.77c.79,0,1.78.07,1.78.07l1.45.1-.61,6.52a24.64,24.64,0,0,1,.83,2.72c.1.5.3,1.51-3.43,6.26.1.43.24,1,.4,1.59a5.63,5.63,0,0,1,.1,2.16c.44.14.93.31,1.35.46,1.83.69,2,3,2,3.28l0,.82a4.19,4.19,0,0,1,1.06.95l3.71-.28v-1.45l2.13-3,3.23.43,1.2-2,.84,0s2.16.06,2.65.06l.43-.13a4.26,4.26,0,0,1,3.13-.08c1.27.69,1.25,2.19,1.23,3,0,.16,0,.31,0,.44a2.14,2.14,0,0,1-.71,1.74l0,0c.59.48,1.67,1.48,1.12,2.72a1.66,1.66,0,0,1-.78.82l2,1.52-3.93,2.75a3.94,3.94,0,0,1-1,2,3.66,3.66,0,0,1-1.79.89,12.08,12.08,0,0,0,.79,3.18,9.38,9.38,0,0,0,1.69-.09l1-.08a47.67,47.67,0,0,0,7.53-2.69l.6-6.41.42-.37a38.35,38.35,0,0,0,3-2.91,11.15,11.15,0,0,0,.06-4l-.15-1.23,2.39-.63a6.33,6.33,0,0,0,.64-2.64,6,6,0,0,1,2.17-3.51c.33-.33.54-.53,3.64-1.18l.29,0s.41,0,1.63-.12c.9-.08,4.73-.92,7.29-1.52,1-1.67,2.07-3.5,2.23-3.87.31-.75,1.19-1.41,4.2-3.58,1.36-1,3-2.17,4.63-3.43a14.78,14.78,0,0,1,.14-9,17.52,17.52,0,0,0,.37-4.35v-.28a10,10,0,0,0-.72-1.61,17.84,17.84,0,0,1-.88-1.91,8.42,8.42,0,0,1-.37-3.2l-.17,0c-1-.26-2.14-1.11-2.35-3.69a8.39,8.39,0,0,0-.7-3.24,5,5,0,0,1-.46-3,11.83,11.83,0,0,0,0-1.22A8.78,8.78,0,0,1,213,219a3.61,3.61,0,0,1,2.45-1.68l.35-.1h0L215,215l2.32.3c3.27.42,4,.94,4.25,1.83.12.4.12.87-.11,4.89-.07,1.17-.13,2.37-.15,2.93a3.77,3.77,0,0,0,.68.19l.26.06a8.4,8.4,0,0,0,1.89-.56c.43-.16.81-.88,1.12-1.45a6.64,6.64,0,0,1,.66-1.07,5.07,5.07,0,0,0,.32-2.44,9.43,9.43,0,0,0-1.1-2.85c-1-1.61.65-4.28,1-4.64l.27-.24c.28-.23.31-.29.32-.42a2.37,2.37,0,0,1,1.65-2c-.31-.43-.61-.86-.82-1.19a8.34,8.34,0,0,0-1.24-.11,5.87,5.87,0,0,1-1.81-.25c-1.16-.45-3.13-1.38-3.26-2.64A1.52,1.52,0,0,1,222,204a7.26,7.26,0,0,0,1.47-1.22c.19-1,1.16-4.42,2.2-5.23.47-.36.95-.74,14.78.11,0-1.88,0-4.89.15-5.84A3.52,3.52,0,0,0,240,190l-1.18-1.89,2.21-.27a10.46,10.46,0,0,1,3.27,0,2,2,0,0,1,1.38,1.57l.86.2c.63-.57,1.71-1.43,3.58-2.89.27-.3,1.14-1.26,1.47-1.59a2.56,2.56,0,0,1,2.48-.41,9.27,9.27,0,0,1,.67-.85,11.61,11.61,0,0,1,1.44-1.26l.05,0c0-.82,0-2.54-.11-4l0-1,4.47-1.81c.2-1.58.63-5,.77-6,0-.26-.19-1-1.47-2.72l-.29-.4a6,6,0,0,1-.86-3.95,8.67,8.67,0,0,0,0-1.56c0-.52-.09-1.1-.09-1.69a1.69,1.69,0,0,1,1.21-1.87,1.64,1.64,0,0,1,1.69.61l.42-.08a16.09,16.09,0,0,1,4-1.24,2.94,2.94,0,0,0,1.4-.63l.31-.23c.52-.28,1.92-1,2.93-1.44v0c-.33-.24-.92-.87-2.17-4.38l-3.79-.45h0a6.89,6.89,0,0,1-4.13-1.27c-1.61-1.35-1-3.16-.6-4.48.14-.42.28-.85.38-1.3a8.05,8.05,0,0,1,2.09-4.08,4.5,4.5,0,0,1,2.62-1.27l.4-.09.15,0a22.33,22.33,0,0,1,3.68-.69,2.14,2.14,0,0,1,1.63.53l.09.09a6.51,6.51,0,0,1,1.34-.41l.44-.09a3.05,3.05,0,0,1,.27-.35,9.81,9.81,0,0,0,.92-1.65c-.11-.41-.27-1-.44-2s-.49-4.25.82-5.29a1.6,1.6,0,0,1,1.48-.28,27.39,27.39,0,0,0,3.34-.28l.19-1.47a1.5,1.5,0,0,0-.32-.36c-1.46-1.2-1.09-4-.38-5.46a2,2,0,0,1,1.62-1.19,2.29,2.29,0,0,1,1.25.26l1.88-.26a4.39,4.39,0,0,1,1.26-.52A2.1,2.1,0,0,1,286,118l.39-.16c.14-.64.34-1.59.45-2.31a12.25,12.25,0,0,0-.18-2.92l-.13-.75.55-.52c.54-.51,1.23-1.19,1.39-1.38a7.35,7.35,0,0,0,.3-1.07c0-.07,0-.15,0-.25a1.88,1.88,0,0,0,0-.43,7.74,7.74,0,0,1-.92-4.1,3.25,3.25,0,0,1,.49-1.88,4,4,0,0,0-1.4-1.07c-5-1.67-6.32-1.8-6.59-1.8-1,0-2.62-.15-3.91-.27L275.17,99c-.77-.06-3.67-.54-6-.92l1.31,2.37-.13,2.55-2.16,3.51-.89-.1c-6.6-.73-7.12-1.57-7.43-2.07s-3.48-4-6.32-7l-.64-.69.9-2-4.76-4.37.72-1a22.51,22.51,0,0,0,2.36-4.46c.81-2.19,1.66-4.46,4-4,1,.19,3.31.11,4.06-.53a27.45,27.45,0,0,1,3.13-2.2l1.13-15.14,7.37-4.21.56,1.54a73.64,73.64,0,0,0,5.88-6.43c.37-.9.79-6.92,1-12v-.37l5.15-8.53L288.93,59a13.49,13.49,0,0,0,1.74-8.89c-.94-8.55-.32-11.38-.25-11.67l.27-1.07h4.81c-.15-2.48.12-5,1.71-5.78l.84-.41c1.6-.79,3.79-1.88,5.58-1.88.95,0,2.11,0,3,.05,0-2.45-.18-5.43-.63-6.38a7.09,7.09,0,0,0-3.12-2.71,17,17,0,0,1-4.54-2.76l-1.13-1-1.52,2.32-3.83-.36-.94,2.39-9.32,1.45-2.89-12-.66.52.58,6.45-.82.44c-.53.29-3.07,1.66-4.15,2.09a15.26,15.26,0,0,0-1.51,3.09L271.77,27l1.66,2,0,.53c-.22,7-.45,7.07-1.44,7.4-.51.17-.76.25-5.31-1.54l-1.81.52c-.67.68-2.5,2.51-3.21,3.38a10.87,10.87,0,0,0,0,1.27c.06,1.35.17,3.85-2.21,4.39a13.83,13.83,0,0,0-1.43.37,2.41,2.41,0,0,1-1,.13c-.38.07-2.7.88-4.56,1.6l-.48.18-9.32-3.18-.25-.55c-1-2.14-3.16-5.9-4.8-6.89a67,67,0,0,0-8.75-3.7l-10-2c-.81,2.22-2.78,6.89-5.57,9.22-.85.71-1.79,1.36-2.71,2-2.86,2-5.57,3.82-6.19,7.67-.8,5-1.86,12-1.86,15.83v7l4,9.7-3.83,3.31-11-10.95-5.65-1.16c-3.23-1.57-7-3.29-7.63-3.45l-.17,0c-1.87-.3-3.1-1.21-3.41-4.81v-.14l.27-2.29A14.31,14.31,0,0,0,173,61a7,7,0,0,1-2.32-2.7,8.13,8.13,0,0,0-.65-1,9.65,9.65,0,0,1-.72-1.08,2.87,2.87,0,0,0-1.77-1.6c-1.07-.36-1.54.15-1.55.15l-.66.82-1-.39h0a4.38,4.38,0,0,0-1.55-.22,5.11,5.11,0,0,0-.2.52,3.32,3.32,0,0,1-.67,1.26c-.09.19-.26.66-.39,1-.53,1.48-1.19,3.32-2.41,4.21a14,14,0,0,0-2.29,2.24l-.4.51-2.57.11-1,5.43a37.63,37.63,0,0,1-1.66,3.57,5.7,5.7,0,0,0-.56,1.78l-.08.59-3.08,2.31-.71-.25c-5.06-1.76-11.22-3.94-11.84-4.32-.44-.2-3.71-1.13-6.45-1.85l-.33-.09-4.88-4.38a10.53,10.53,0,0,0-2.54-.1l-.89.23a16.37,16.37,0,0,1-2.19.49,15.75,15.75,0,0,0-2,.51l-.22.07-.19.1a3.16,3.16,0,0,1-3.21.08,7.87,7.87,0,0,1-2.83-2.57l-.43-.66.44-.95a11.94,11.94,0,0,0-2.62,2,12.69,12.69,0,0,0-.94,2.44l6,6.37-1.34.94a34.81,34.81,0,0,0-3.09,2.36,7,7,0,0,1-1.85,1.47l-.24.13-2.84.37a57.59,57.59,0,0,1-8.28,1.14,9.09,9.09,0,0,1-4.26-.28,12.43,12.43,0,0,0-3.53-.43c-.46,0-1.88.3-2,1a9.69,9.69,0,0,0,.29,3.44,8.13,8.13,0,0,1,.23,1.55c0,.39,0,1.58-3.19,4l-.19.14L67.1,96.23,67,102.42l-.25.35c-.33.48-3.35,4.66-7,5.1-1.52.18-2,.79-2.1,1.07,1,7.22.87,7.81.82,8.06a23.55,23.55,0,0,1-.95,2.75l-.08.19-.13.16a68.53,68.53,0,0,0-4.64,6.59,34,34,0,0,0-2.12,4.67,25,25,0,0,1-1.78,3.88l-1.45,2.25-2.9,2.9a21,21,0,0,0-1,5.35l6.41-.94V152l-4.55.64.15,1.34a2.3,2.3,0,0,1,.46.49,3.18,3.18,0,0,1,.23,2.8c-.11.38-.21.81-.32,1.26a12.13,12.13,0,0,1-1.82,4.63l.53.55h9.12l.41.69c.13.22,3.29,5.53,3.49,10.34v.19l0,.19c-1.1,4.7-1.69,7.52-1.88,8.49l1.78,4.95c1,.29,2.9.84,3.95,1.26A24,24,0,0,1,66,193.18l.45.39,0,.6c.16,2.8,1.85,7,3.21,10.38s2.21,5.58,2.18,7c-.08,3.22-4.42,4.48-6.26,4.88L61.85,222l-5-.4-1,6.23-.79.28s-.92.33-1.84.59l-1.35.41-.06.08.5.41.19.17s1.11,1.23,1.77,1.89l.3.28a6,6,0,0,1,1.86,3,4.4,4.4,0,0,1-1.93,5.38c-1,.67-3.17.51-5.29.11l.75,3.79,1.15.51c.75.34,2.32,1,1.72,2.71a16.89,16.89,0,0,1,.41,3.65L54.47,250l.91.56a8.85,8.85,0,0,1,1,.74l0-.44.27-.42a10.41,10.41,0,0,1,1.32-1.62,5.46,5.46,0,0,1,2.79-1.15,8.16,8.16,0,0,1,1.72-3.86c2.05-2.05,9,.66,9,.7.44.29.66.66,2.13,3l.11.17c.62,1,1,1.08,1.22,1.12l.29.08c.17,0,.44,0,.8,0,.75,0,1.88,0,3.23.12A3.42,3.42,0,0,1,82,250.43a2.87,2.87,0,0,1,.35.69l4.67-.46,1.62.81a6.08,6.08,0,0,0,2.2-.3,23.48,23.48,0,0,1,4.61-1.36c.77,0,1.31.46,2.42,2L98,252l.06.19s1.18,3.53,1.71,4.77a55.57,55.57,0,0,0,3.53,6.52c.62.62,4,5,5.38,6.77h3.21l.24,1.13c.08.4.34,1.54.52,2.09a1.69,1.69,0,0,1-.27,1.61,2.45,2.45,0,0,1-1.71.81,42.58,42.58,0,0,0,3.89,2.71l1.32.83-2.36,3.07,1.49,2-.62.85-1.24,1.7c0,.88.24,3.21.44,5.27l.09.9-4.41,2.59-4,2.63c.25,1.18.49,2.32.62,2.92.26.17.64.39.93.54l.79-.34.71-.32.65.42a6.26,6.26,0,0,1,2.21,2.11c.25.57,1,2.35,1.27,3s1,3.36,1.18,3.9l.28,1-1.26.8.67,3.45-1.54.16a2.92,2.92,0,0,0-.64.16c-.07.74-.22,1.51-.31,2l-.05.3c0,.21.13,1.68.26,2.87v.15s0,1.7.12,2.93c0,.18.34.58,1.5,1.41a3,3,0,0,1,.72.62c.56.75.25,1.51-.05,2.25a16.41,16.41,0,0,0-.87,2.66,9.3,9.3,0,0,1,.12,3.69,6.82,6.82,0,0,0-.07,1.27A5.39,5.39,0,0,1,113.77,340.69Zm81.93-70,0,0Zm-47-5h0Zm62.67-2.58h0ZM75.46,249h0Zm-.29-.09ZM64.3,246h0ZM53,238Zm163.22-4.49,0,.08Zm6.2-8.2h0Zm1-22.39v0Zm.06-.19Zm33.1-20.41h0Zm6.93-21.85,0,0Zm12.33-33.26h0Zm0,0Zm14.13-23.13h0Zm-27.66-1.3,0,0ZM161.84,56.9h0ZM273.74,19.7Z"/></svg>