<svg id="Layer_1" data-name="Layer 1" xmlns="http://www.w3.org/2000/svg" viewBox="0 0 350 350"><defs><style>.cls-1{fill:#999;}.cls-2{fill:#f90;}</style></defs><title>M</title><path class="cls-1" d="M342,240.77h-3.61l-13.54,3.71L322,247.7l-1.4-.7-2.11-.5v.6a1.73,1.73,0,0,0-1.91.6c-4.71-.8-6.22-.9-6.22-.9l-1.91-.3s-1.1,1.81-5.32-.3c-3-1.71-6.32,1.5-6.32,1.5l-5.22-6.42-5.22-1.4-2.61-1.2-1.91-1.6-4.51-.4-1-2-5.22,3.61-4,4.11a15.51,15.51,0,0,1-4.31.4c-1.81-.2-4.71.2-5.72,1.91a30.65,30.65,0,0,1-3.81,5.12c-.8.7-2.41,1.2-1.71,3.11a23.47,23.47,0,0,1,1,4.51,15.2,15.2,0,0,1-3.31,0c-1.81-.2-4.21.5-7.12,3.21s-6.52,4.21-12.34,9.43c-1.71,1.4-2-.9-4.61,3.21s-2.81,3.41-3.51,3.51-1.6,1.5-3,1-1.81-.7-1.81-.7a22.85,22.85,0,0,1-2.11,4.11,14.77,14.77,0,0,0-1.71,2.71s2.11,3.81-1.71,9.33c-3.51-1.6-9.83-1.3-11.74-1.3s-5.72-2.21-5.72-2.21-5.82,1.5-7.12,3.51c-3.11-.3-6.62,1.61-7,3.21a22.55,22.55,0,0,1,0,5.22h-1a3.67,3.67,0,0,0-.8-2.51c-.9-.9-2.11-2.71-3.41-2.41s-5.12,1.3-5.12,1.3a16,16,0,0,0-.5-2.71,14.1,14.1,0,0,1,0-3.61s-.1.4-1.2-.4a29.82,29.82,0,0,0-3.81-2l-1-3.11s-2.41-.3-2.91.2-7.12-1-7.12-1a37.24,37.24,0,0,1,6.62-1,5.55,5.55,0,0,0,3.21-.8l.9-2.11s-1.48-1.45-1.1-2.58,3.39-2.78,2.11-4.44-2,.08-4.74-1.66-2.71-1.58-.3-3.23,5.64-1.58,6.09-2.11.68-.68,1-2.93,1.58-2.63,1.58-2.63l1.88-.38,1.88-1.35.38-4.36-.3-4.74.15-2.41-1.35-1.81-3.76-2,2.63-1.73.53-2.18s-2.63.75-3.46.9c-1.5.68-4.06,1.88-4.06,1.88l-5.34-.23L156.33,240l-3.76-2s-.15-5.42-1.88-7.22c-1.43.08-2.48.38-5.64-2.93s-2.78-3.91-2.78-3.91l-5.27-.75L134.51,222h-5.34a6.24,6.24,0,0,1-2.33,4.14c-2.18,1.73-3.91,2.93-3.91,2.93l-3.39,4.81s.53,4.51,1.2,5.27-.15,3.76-.15,3.76l-2.48.3s-2.11,3.23-2.63,4.06-2,4.29-3.31,6.17-9.18,6.92-10.68,7.82c-1.73-2.93-3.69-6.24-3.46-7a44.42,44.42,0,0,1,3-4.59s-3.69-2.11-2-3,4-1.73,4.81-4.81,1.73-7.3,1.73-7.3l-8-7.67-5-4.89s-4.21-3.91-6.17-3.91a60.19,60.19,0,0,0-6.09,4.51l-3.84,2.33s.75,3.39,0,4.66-5.49,5.64-5.49,5.64l-9.48-3.76-1.58.45-4.81-1.73s3-3.91,2.56-4.89-4.36-1.2-4.36-1.2.38-.68-.45-.6-3.76-1.88-7.22-5.42-6.24-4.74-8.5-10.53a22.48,22.48,0,0,0-2.71-4.06L38,198.72l-3-2.18-3.54-2.86-.6-2.93-3.69-.68-3.76-4.21,2.26-1.28-1-4.74-.6-.68-.68-5.79s-3.54-3.76-2-7.07a60.25,60.25,0,0,0-5-3.61l-5.87-6.24v-1.2s-2.18-2.18-3-2.11-1.28-.9-1.28-.9,1.28-2,2.41-2a5.77,5.77,0,0,0,2.56-1,33,33,0,0,0-2-3.08l-.68-.83s4.44-3.76,7.52-3.08c.08,2.26,1.28,2.63,1.81,2.86s.9.83.6,2.48,1.28,2.86,2,1.35c1.13,2.11,1.2,2,2,.3,1.2,1.5,3.46.83,3.46.83l2.41-4.74,3.46,3.76,33.85.15s-.15-2.86.9-3.91a15.87,15.87,0,0,1,3-2.11l.45-1.06s-.45-2.78-1.2-3.15a4.85,4.85,0,0,1-1.43-1.35l-.15-5L75,128a15.58,15.58,0,0,1,1.2-1.28,7.88,7.88,0,0,0,.83-2,4,4,0,0,0,1,0c.3-.08.68-3.23.68-3.23L80.43,120l1.43-4.66-19.79-2.78s-.53-6.85,1.73-8.8,7.15-4.89,10.68-9c1.28-2.18,4.66-3.23,4.66-3.23h1L83.28,88s1.43-6.09,1.66-6.24,3.39-2.86,3.39-2.86L90.2,76.4s3.69.08,5.42,0,4.14,1.81,5,2.41,7.6-.3,7.6-.3l.6-4,1.35-1.5,2.11.83,1.43-.83,1.2.45L118,69.87l5.27,1.71.75-1.71,1.81.58-.68,1.28s-2.33.53-1.81.75.83.53.08,1.13,1.2,2.71,1.2,2.71l1.28,1.05s-2-.75-1.88.6a9.46,9.46,0,0,0,1,3.08L123.38,81l.75,2.33,4.74,1.13-1.28,4.06-4.14-1.28.53-1.81-.38-1.58-1.05-.68-1.66-.3.3,2.41-3.61.38s.45,3.08.53,3.76,1.43,4.21,2.56,4.59,4.89.9,12.79-1.35a52,52,0,0,1,5.94-1.73,4.84,4.84,0,0,1-.15-3.23c.6-1.43.3-5.64.3-5.64a62,62,0,0,0,5.12-4.14A17.08,17.08,0,0,0,146.33,75l-1.13-.23V71.66l2-.45s2.56-4.74,2.78-5.19a4.32,4.32,0,0,0,.23-1.43,50.77,50.77,0,0,1,6-.9c1.58,0,1.88-1.05,6.32-1s4.59-1.43,7.9-.68c2.33-2.11,3.39-4.66,6.09-6.17s11.74-7.3,12.94-7.52c-.75,3.54-.38,5.34.45,5.49s9.55.08,9.55.08a5.41,5.41,0,0,1,.08,2.78,12.33,12.33,0,0,0,2,7.67,15.56,15.56,0,0,0,2.86,3.23,34.44,34.44,0,0,1,8.35,2.28c2.86-2.43,4.66-.92,7.22.81a13.28,13.28,0,0,1,5.77,1.38c2.26,1.2,12.14,1.15,13.24,2.81s6.42,5.92,6.42,5.92,6.77.9,7,.8a13.42,13.42,0,0,1,1.66-.25l2.41,8.22s-.65,5.72-.75,7.32-1.15,10.23-2.16,11.89-2,3.51-2,3.51-2.51-2-3.31-1.3-1.2,4.66-1,6.17a7.35,7.35,0,0,0,1.1,2.76c.35.7.15,3.21.85,4.26s6.37,3.16,7.42,4.41,3.71,1.55,4.36,2.71.55,2.56,3.51,4.61,4,4,4,7.47v6.72s4.86,2.36,5.77,3.71a4.93,4.93,0,0,0,2.61,2.16c.5,0,1.5-1.71,2.41-1.25s4.26,1.6,4.91,1.15,2.46-2.26,3.36-2.41,4.66,1.55,6.32,2.06a27,27,0,0,0,4.11.75s.25,3.36,6.37,6.17,7.42,9.23,11,8.83c.7-3.71,4.21-4,7.32-2.91s7.52-3.11,9.23.5,9.33,7.72,9.33,7.72l-.4,3.71,2.91,2.41s-3.41,6.32-3.31,8.63l-2.71-.5s1.3,2.91,1.2,4.41.1,3.31.6,3.81a16.76,16.76,0,0,1,1.5,3.11s-6.72,7.62-6.92,7.92.5,1.91,1.1,3.11a8.24,8.24,0,0,1,.9,3.41c0,.9-.3,2.41.1,2.71a4.53,4.53,0,0,1,.4,3.31c-.4.7.3,3.21.3,3.21s5.32,0,5.52,1,.2,4.21.4,5.72S344.65,237.06,342,240.77Z"/><path class="cls-2" d="M180.94,303.08h-3.7l.09-1.51a2.25,2.25,0,0,0-.39-1.42c-.2-.2-.42-.44-.64-.7s-1.14-1.29-1.48-1.33c-1.24.29-5,1.28-5,1.29l-1.6.42L168,298.2a14.12,14.12,0,0,0-.42-2.36,8.74,8.74,0,0,1-.19-3c-.19-.11-.36-.23-.52-.35a27.46,27.46,0,0,0-3.55-1.86l-.58-.26-.91-2.81a5.78,5.78,0,0,0-1,0c-.54.45-1.66.72-8.27-.79l-6-1.36,6-1.4a36.8,36.8,0,0,1,7-1,4.27,4.27,0,0,0,2-.39l.37-.85a3.71,3.71,0,0,1-.8-3.28,5.18,5.18,0,0,1,1.31-1.81c.33-.34,1-1,1-1.33a1.25,1.25,0,0,0-.25-.23,3.35,3.35,0,0,0-.4,0,6.13,6.13,0,0,1-3.73-1.07l-.26-.16c-1.6-1-2.49-1.54-2.51-2.68s.8-1.67,2.05-2.53l.36-.24a13.39,13.39,0,0,1,5.11-1.86c.3-.06.67-.13.88-.19.17-.22.29-.53.49-2,.41-3.08,2.36-3.74,2.58-3.81l.12,0,1.58-.32,1.1-.79.31-3.61-.3-4.72.12-2-.85-1.13-5.62-2.92,2.27-1.49-3.23,1.5-.32.15-6.7-.28L155.14,241l-4-2.06,0-.83A15.85,15.85,0,0,0,150,232.3c-1.6,0-3.11-.41-6-3.41a17.15,17.15,0,0,1-2.86-3.62l-4.6-.66-2.39-1.23h-3.85a7.74,7.74,0,0,1-2.6,3.83c-1.78,1.41-3.25,2.47-3.77,2.84L121,234.22a19.48,19.48,0,0,0,.83,4c.93,1.12.58,3.34.11,5l-.25.92-2.77.34c-.62,1-1.88,2.88-2.26,3.5-.15.24-.5.95-.84,1.64a41.7,41.7,0,0,1-2.49,4.57c-1.64,2.41-11,8.19-11.12,8.24l-1.22.73-.73-1.23c-3.15-5.35-4-6.95-3.6-8.12A22.15,22.15,0,0,1,99,250a3.87,3.87,0,0,1-1.86-2.81,2.09,2.09,0,0,1,1.17-1.82L99,245c1.49-.77,2.9-1.49,3.46-3.59s1.25-5.11,1.55-6.46L91.55,223a18.34,18.34,0,0,0-4.89-3.46,67.3,67.3,0,0,0-5.48,4.13l-.17.12-3,1.82c.21,1.35.38,3.44-.35,4.68-.82,1.39-4.94,5.21-5.75,6l-.66.6-9.86-3.91-1.56.44-7.07-2.54,1.18-1.54a20.82,20.82,0,0,0,2.15-3.36,14.21,14.21,0,0,0-2.92-.46l-2.25-.13.47-.85c-2.52-1.16-6-4.64-6.82-5.47s-1.66-1.59-2.44-2.29a20.18,20.18,0,0,1-6.34-8.66,21.24,21.24,0,0,0-2.49-3.71l-.74-.87L36,199l-1.83-1.33-4-3.22-.51-2.5-3.22-.59-5.25-5.89,2.89-1.64-.69-3.36-.65-.73L22,174c-.86-1-3-4.07-2.26-7.2-1.67-1.3-4.11-2.87-4.14-2.89l-.27-.22L9.12,157v-1.16a9.4,9.4,0,0,0-1.66-1.29h0A2.89,2.89,0,0,1,5,152.82l-.32-.7.41-.65c.4-.63,1.83-2.69,3.61-2.69a1.86,1.86,0,0,0,.58-.13A17.56,17.56,0,0,0,8.16,147L6.6,145.13l1.06-.9c.51-.43,5.08-4.19,8.74-3.39l1.08.24,0,1.1c0,1.23.43,1.39.84,1.56l.1,0c.79.34,1.63,1.13,1.56,3l.44-.88L21.62,148l.67-1.35,1.38,1.73a1.64,1.64,0,0,0,1.41.44l3-5.93,4.42,4.81,31.84.14a5.76,5.76,0,0,1,1.29-3.49,15.39,15.39,0,0,1,2.9-2.1l.1-.23a8,8,0,0,0-.55-1.82,6.28,6.28,0,0,1-1.78-1.72l-.24-.34-.19-6.21,8.19-5a15.23,15.23,0,0,1,1.09-1.16,11.62,11.62,0,0,0,.51-1.39l.34-1.12,1,.11c.1-.56.22-1.33.29-2l.06-.52,1.83-1.67.83-2.71-19.27-2.71-.09-1.14c-.1-1.26-.45-7.67,2.21-10,.75-.65,1.71-1.36,2.84-2.18a47.24,47.24,0,0,0,7.63-6.54c1.55-2.49,5-3.63,5.39-3.75l.21-.06h.56L82,87.31c1.48-6.29,1.63-6.39,2.17-6.75.18-.13,1.72-1.44,3.13-2.66L89.51,75h.72s3.66.07,5.33,0c1.84-.08,3.79,1.18,5.48,2.36l.29.2a31.08,31.08,0,0,0,5.68-.32l.5-3.35,2.3-2.55,2.38.94,1.42-.82.9.34,3.05-3.56,4.95,1.61.75-1.71,4.63,1.49L126.13,73l-.64.14-.18,0a2,2,0,0,1-.47,1.07,7.36,7.36,0,0,0,.79,1.06l7.94,6.54-7.94-3.05a10.06,10.06,0,0,0,.65,1.63l1.14,2.18h-.3l3.55.84-2.16,6.86-6.82-2.11.46-1.57-3,.31c.13.91.28,2,.32,2.35a10.24,10.24,0,0,0,1.67,3.43c.61.18,3.9.88,11.87-1.4,2.26-.71,3.69-1.14,4.6-1.4a5.18,5.18,0,0,1,.27-2.76,17.33,17.33,0,0,0,.19-5l-.05-.78.63-.46A56.17,56.17,0,0,0,143.58,77a7.18,7.18,0,0,0,.62-.93l-.42-.08V70.53l2.43-.56c1-1.87,2.32-4.3,2.46-4.59a4.16,4.16,0,0,0,.08-.8V63.43l1.13-.23a49,49,0,0,1,6.3-.93,2.86,2.86,0,0,0,1-.24,13.3,13.3,0,0,1,5.32-.74,12,12,0,0,0,3.78-.49,7.64,7.64,0,0,1,3.64-.3,24.84,24.84,0,0,0,1.7-2,14,14,0,0,1,4.16-3.9c.93-.52,2.68-1.59,4.54-2.72,5.85-3.57,7.94-4.79,8.83-5l2.09-.39-.44,2.08a10.36,10.36,0,0,0-.31,3.83c1.3.05,5.3.06,8.91,0h.92l.38.84a6.54,6.54,0,0,1,.19,3.59,11.06,11.06,0,0,0,1.79,6.65,16.52,16.52,0,0,0,2.3,2.69,38,38,0,0,1,7.51,2c3.18-2.23,5.64-.55,7.82.94l.13.09.18,0a13.56,13.56,0,0,1,5.77,1.49,26.13,26.13,0,0,0,5.5,1c4.64.54,7.31.91,8.25,2.32A45.15,45.15,0,0,0,246,79.44c2.63.35,5.45.69,6.18.74a14.77,14.77,0,0,1,1.72-.25l1.17-.12,2.82,9.63,0,.28c0,.06-.65,5.7-.75,7.25,0,.78-1,10.37-2.36,12.53-1,1.6-2,3.43-2,3.45l-.81,1.49-1.33-1.06a8.93,8.93,0,0,0-1.58-1,13.67,13.67,0,0,0-.4,4.53,4.61,4.61,0,0,0,.67,1.81c.1.18.21.36.3.54a5.87,5.87,0,0,1,.4,2,7,7,0,0,0,.37,2.06,24.2,24.2,0,0,0,3,1.63c2.25,1.12,3.67,1.86,4.34,2.66a5.5,5.5,0,0,0,1.75,1,5.29,5.29,0,0,1,2.76,1.95,7.84,7.84,0,0,1,.47,1,5.88,5.88,0,0,0,2.62,3.12c3.33,2.31,4.57,4.66,4.57,8.64v5.84c1.67.85,4.66,2.5,5.53,3.8a5.06,5.06,0,0,0,1.29,1.34c.6-.56,1.79-1.61,3.18-.92a15.07,15.07,0,0,0,3.67,1.11l.51-.43c1.29-1.1,2.28-1.9,3.23-2.06s2.15.29,4.82,1.32c.84.32,1.63.63,2.14.78a25.68,25.68,0,0,0,3.85.7l1.18.12.09,1.18h0s.43,2.64,5.55,5a19.13,19.13,0,0,1,6.94,6,10.21,10.21,0,0,0,2.5,2.55,5.11,5.11,0,0,1,2.19-2.53c1.71-1,4.06-1,6.61-.12.85.3,2.12-.08,3.35-.45,2.05-.61,5.16-1.54,6.68,1.68,1.24,2.62,6.71,6,8.72,7.08l.84.45-.42,3.9,3.22,2.66-.55,1c-1.34,2.48-3.2,6.57-3.14,7.89l.08,1.78-2-.37a8.19,8.19,0,0,1,.42,2.66,7.37,7.37,0,0,0,.25,2.78,14.37,14.37,0,0,1,1.76,3.54l.31.8-.57.64c-2.13,2.42-5.43,6.17-6.51,7.43a18,18,0,0,0,.89,2,9.6,9.6,0,0,1,1.05,4c0,.3,0,.66-.06,1s-.06.69-.05.94a6,6,0,0,1,.49,4.63,5.52,5.52,0,0,0,.13,1.23c5.38.15,5.64,1.42,5.78,2.13a25.27,25.27,0,0,1,.23,3c0,1,.1,2.13.18,2.8a7.54,7.54,0,0,0,.19.83,9.29,9.29,0,0,1-1.24,8.4l-.42.6h-4.16l-13,3.55-3.35,3.7-2.42-1.16v.77l-1.86-.62s-.22,0-.3.07l-.51.73-.88-.15c-4.53-.77-6.06-.88-6.08-.89h-.12l-1.24-.2c-1,.65-2.9,1.21-6.39-.54-2.11-1.19-4.68,1.23-4.7,1.26l-1.11,1.06-5.9-7.25-5-1.37L283,239.88l-1.71-1.44-4.86-.43-.63-1.25-3.76,2.6-4.2,4.31-.4.1a16.68,16.68,0,0,1-4.8.43c-1.65-.18-3.78.26-4.34,1.22a31.25,31.25,0,0,1-4.1,5.46,7.7,7.7,0,0,1-.69.51c-.8.55-.8.57-.62,1a24.77,24.77,0,0,1,1.08,4.84l.16,1.38-1.38.18a16.59,16.59,0,0,1-3.65,0c-1.73-.19-3.8.79-6,2.84a36.33,36.33,0,0,1-4.46,3.37,68.08,68.08,0,0,0-7.9,6.08,3.54,3.54,0,0,1-2.38.91c-.34,0-.73,0-2,2-2.13,3.35-3,4.16-4.43,4.16l-.25.18a3.67,3.67,0,0,1-3.51.75l-.57-.21a13.8,13.8,0,0,1-1.86,3.29,10.37,10.37,0,0,0-1.15,1.78c.52,1.55,1.19,5.29-2.1,10.06l-.67,1-1.08-.49c-2.82-1.29-8.08-1.21-10.32-1.18h-.83c-1.83,0-4.65-1.42-5.91-2.1-2.43.69-5.17,1.88-5.75,2.76l-.47.72-.86-.08c-2.47-.24-5,1.23-5.45,2a23,23,0,0,1,0,5.26Zm-6.1-7.79c1.55,0,2.75,1.34,3.57,2.27,0-.31,0-.65-.07-1l0-.24.06-.23c.57-2.29,4.32-4.31,7.75-4.31h0c2-2,6.44-3.19,7.39-3.43l.56-.15.5.29c1.45.84,4,2,5,2h.79c2.35,0,7-.1,10.38,1,2.42-4.12,1.09-6.8,1-6.92l-.33-.64.31-.66a15,15,0,0,1,2-3.08,22.25,22.25,0,0,0,1.8-3.65l.58-1.41,1.36.68h0s.41.19,1.65.63c.19.07.36,0,.92-.4a3.26,3.26,0,0,1,1.41-.67,2.28,2.28,0,0,1,.45,0,15,15,0,0,0,2.07-2.84c1.74-2.74,2.8-3.26,4.27-3.32a.76.76,0,0,0,.64-.23,71.2,71.2,0,0,1,8.15-6.27,34.27,34.27,0,0,0,4.12-3.1c2.86-2.67,5.63-3.87,8.24-3.58a13.72,13.72,0,0,0,1.5.08h0a17.38,17.38,0,0,0-.69-2.7,3.45,3.45,0,0,1,1.68-4.36,4.52,4.52,0,0,0,.42-.31,30.42,30.42,0,0,0,3.52-4.77c1.48-2.51,5.29-2.8,7.09-2.6a13,13,0,0,0,3.44-.29l3.92-4,6.56-4.54,1.38,2.76,4.17.37,2.1,1.77,2.33,1.07L292.4,240l4.63,5.7c1.49-1,4.16-2.26,6.8-.76,2.42,1.21,3.32.79,3.47.69l.43-.71,2.79.44c.34,0,1.86.17,5.58.79a3,3,0,0,1,1-.46v-1l4.16,1,.44.22,2.46-2.72,14.12-3.87h3a6.49,6.49,0,0,0,.43-5.45,10.21,10.21,0,0,1-.26-1.17c-.1-.79-.16-1.93-.21-3,0-.73-.07-1.53-.12-2.08a20.77,20.77,0,0,0-4.19-.37h-1.08l-.29-1c-.55-2-.62-3.4-.21-4.22a4.69,4.69,0,0,0-.2-1.74c-.67-.7-.58-1.79-.49-2.85,0-.28,0-.56,0-.79a6.78,6.78,0,0,0-.75-2.78c-1.47-2.94-1.5-3.81-1-4.53.06-.09.24-.36,6.46-7.42a12.63,12.63,0,0,0-.9-1.86c-1.16-1.16-1-4.26-1-4.87a11.86,11.86,0,0,0-1.08-3.74l-1.11-2.46,3.92.73a35.73,35.73,0,0,1,2.71-6.61l-2.61-2.16.38-3.54c-2.17-1.25-7.54-4.6-9.1-7.9-.38-.81-.76-.94-3.31-.17-1.59.48-3.39,1-5.11.4a5.42,5.42,0,0,0-4.25-.09,2.61,2.61,0,0,0-1.2,1.93l-.19,1-1,.12c-2.58.29-4.18-1.68-5.86-3.76a16.54,16.54,0,0,0-5.92-5.19c-4.69-2.15-6.33-4.69-6.89-6.17a24.17,24.17,0,0,1-3.41-.69c-.62-.19-1.45-.51-2.34-.85a26.17,26.17,0,0,0-3.38-1.15,13.9,13.9,0,0,0-1.81,1.4c-.38.33-.72.61-.94.76-1.38,1-4.88-.41-6-.89-.13.1-.28.24-.38.34a2.41,2.41,0,0,1-1.88.9c-1.12-.11-2.65-1.28-3.65-2.78-.41-.61-3.07-2.19-5.21-3.22l-.8-.39v-7.61c0-3-.82-4.54-3.35-6.31a8.56,8.56,0,0,1-3.64-4.41,5.14,5.14,0,0,0-.3-.67,5.86,5.86,0,0,0-1.41-.73,7.2,7.2,0,0,1-2.8-1.76,20.11,20.11,0,0,0-3.43-1.95c-2.32-1.15-3.55-1.79-4.08-2.59a7.4,7.4,0,0,1-.83-3.39,8.59,8.59,0,0,0-.13-1.09l-.19-.34a7.42,7.42,0,0,1-1-2.76c-.23-1.35-.08-6.16,1.42-7.47,1-.9,2.46-.47,3.77.31.36-.64.81-1.43,1.27-2.18.73-1.21,1.82-9.18,2-11.24.09-1.43.59-5.92.73-7.11l-2-6.79-.13,0c-.43.18-1.13.14-7.66-.73l-.39-.05-.31-.25c-.55-.44-5.35-4.3-6.66-6.16-.73-.51-4.19-.91-6.27-1.15-3.29-.38-5.36-.66-6.51-1.27a10.85,10.85,0,0,0-4.66-1.17l-.93-.08-.75-.51c-2.48-1.7-3.28-2.11-5.06-.6l-.64.54-.78-.3a33.84,33.84,0,0,0-8-2.19l-.41,0-.33-.25a17,17,0,0,1-3.16-3.55,13.72,13.72,0,0,1-2.27-8.7,8,8,0,0,0,.1-1.14c-3,0-7.83,0-8.58-.11a2.16,2.16,0,0,1-1.4-.95,5.62,5.62,0,0,1-.59-3.45c-1.73,1-4.13,2.47-5.81,3.5-2,1.2-3.66,2.24-4.64,2.78a11.44,11.44,0,0,0-3.32,3.19,22.42,22.42,0,0,1-2.51,2.79l-.55.49-.72-.16a5.07,5.07,0,0,0-3,.12,14.63,14.63,0,0,1-4.58.59,10.72,10.72,0,0,0-4.33.58,5.47,5.47,0,0,1-2,.4,37.54,37.54,0,0,0-4.7.67,3.38,3.38,0,0,1-.27.88c-.23.46-2.54,4.74-2.8,5.23l-.3.56-1.48.34v.87l1.75.35-.75,1.63a17.78,17.78,0,0,1-1.85,3.17A45,45,0,0,1,141,82.72c.07,1.43.11,4.18-.45,5.51a3.42,3.42,0,0,0,.16,2.15l.79,1.95h-2c-.27.06-1.42.34-5.64,1.67-8.85,2.53-12.7,1.67-13.66,1.35-2.07-.69-3.45-5.2-3.52-5.78s-.52-3.71-.52-3.71L116,84.4l3.64-.38-.36-2.89,2.85.52-.7-2.17,1.51.07a6.89,6.89,0,0,1-.27-1.49,2.17,2.17,0,0,1,.4-1.45,4.47,4.47,0,0,1-1.17-2.76,1.92,1.92,0,0,1,.2-.73,1.4,1.4,0,0,1-.17-.5l-3.4-1.1-3.11,3.63-1.5-.56-1.44.83-1.83-.72-.41.46-.7,4.62-1.05.14c-7.22,1-8.21.32-8.57.08l-.46-.32c-.81-.57-2.69-1.91-3.73-1.85-1.3.06-3.61,0-4.78,0L89.25,80c-1.88,1.61-2.73,2.33-3.14,2.66-.27.85-.92,3.46-1.44,5.69l-.08.35-3.82,4.28H79.38c-.92.33-2.92,1.24-3.67,2.53l-.15.21a49,49,0,0,1-8.17,7.05c-1.07.79-2,1.47-2.66,2-1,.87-1.34,4-1.3,6.49l20.27,2.85-2,6.62L80,122.23c-.37,3-.7,3.67-1.68,3.92l-.3.05c-.47,1.27-.79,1.51-1,1.66s-.62.65-1,1.07l-.15.17-7.16,4.35.11,3.68a2.72,2.72,0,0,0,.66.59c.93.46,1.59,1.88,2,4.19l.07.4-.81,1.89-.44.24a14.16,14.16,0,0,0-2.68,1.86,5.37,5.37,0,0,0-.49,2.84l.07,1.49h-1.5l-34.47-.15-2.5-2.71L27,151.23l-.58.17a5.38,5.38,0,0,1-3.44-.14,1.65,1.65,0,0,1-1.29.64,1.86,1.86,0,0,1-1.6-.93,2.22,2.22,0,0,1-1.16-.06,3.11,3.11,0,0,1-1.83-3.6,3.4,3.4,0,0,0,.07-1,3.77,3.77,0,0,1-2.33-2.73,11.14,11.14,0,0,0-4.26,2c.73,1,1.73,2.75,1.85,3l.64,1.13-1.07.74a6.86,6.86,0,0,1-3.36,1.23,1.39,1.39,0,0,0-.3.25,9.72,9.72,0,0,1,3.18,2.37l.42.42v1.23l5.37,5.71a58.26,58.26,0,0,1,5.05,3.63l.82.71-.47,1c-1.12,2.35,1.68,5.46,1.71,5.49l.32.34.68,5.81.56.63,1.26,6.12-1.63.92,2.27,2.54,4.15.76.69,3.37,3.14,2.54,4.13,3-3.82,5a21.67,21.67,0,0,1,2.19,3.47l0,.1A17.39,17.39,0,0,0,44,214.64c.82.73,1.67,1.49,2.58,2.42,3.33,3.4,5.65,4.81,6.22,5a1.79,1.79,0,0,1,1.61.7c2.5.27,4,.92,4.48,1.94.19.42.67,1.45-1.59,4.79l2.61.94,1.6-.46,9.1,3.61a44.39,44.39,0,0,0,4.58-4.71,8.25,8.25,0,0,0-.16-3.64l-.22-1,4.61-2.81a58.44,58.44,0,0,1,6.23-4.6l.32-.18h.37c2.33,0,6,3.28,7.13,4.29l13.6,13.13-.17.77c0,.17-.92,4.28-1.75,7.37s-3.08,4.44-4.76,5.3a9.26,9.26,0,0,0,1.32.92l1.37.78-.93,1.28c-1.08,1.49-2.34,3.32-2.72,4a36.16,36.16,0,0,0,2.51,4.77c3-1.92,8.21-5.45,9-6.65a40.69,40.69,0,0,0,2.29-4.23c.44-.89.76-1.53,1-1.9.53-.83,2.64-4.08,2.64-4.08l.36-.55,2.15-.26a6,6,0,0,0,.14-1.67c-.6-.82-1.08-2.81-1.45-5.91l-.06-.54,3.84-5.46.21-.14s1.72-1.2,3.84-2.88a4.85,4.85,0,0,0,1.8-3.12l.08-1.33h7l2.58,1.33,7.18,1-.81,1.3a17.53,17.53,0,0,0,2.26,2.73c2.5,2.62,3.24,2.58,4.26,2.51l.93-.05.45.47c1.66,1.73,2.11,5.51,2.23,7.32l3.57,1.86.94,3.14,4,.17c.73-.34,2.58-1.21,3.77-1.74l.33-.1c.62-.11,2.61-.67,3.32-.87l2.34-.67L171,244.06l-1.08.71,1.9,1,1.86,2.48-.18,2.84.3,4.76-.44,5.12-2.66,1.91-2,.4a2.08,2.08,0,0,0-.63,1.47c-.29,2.2-.55,2.8-1.24,3.59l-.07.08a3.78,3.78,0,0,1-2.31.93,10.89,10.89,0,0,0-4.05,1.42L160,271l-.18.12.53.33.26.16a3.4,3.4,0,0,0,2.19.64,3.14,3.14,0,0,1,2.92,1.35c1.6,2.07-.3,4.06-1.21,5a6.13,6.13,0,0,0-.68.78,4.16,4.16,0,0,0,.77,1.09l.68.68-1.44,3.37-.34.23-.12.08.58.07,1.09,3.37a25.29,25.29,0,0,1,3.49,1.89,2.22,2.22,0,0,0,.42.27,1,1,0,0,0-.78.1,1.29,1.29,0,0,0-.65.84l2.78.5a13.88,13.88,0,0,0-.07,3,8.72,8.72,0,0,1,.35,1.4c1.22-.32,2.84-.73,3.61-.91A2.75,2.75,0,0,1,174.84,295.29Zm-10.25-28.74h0ZM99.42,254.33m22.44-16.08Zm-.06-.08h0ZM52.88,222.07Zm282.48,0h0Zm0-.1h0Zm1.68-3.74,0,0ZM340.54,198h0ZM278.62,156l0,0Zm-271-1.44h0Zm-.27,0ZM121.23,92.71Zm4-6.42,1.46.45.4-1.27-1.71-.41.09.4Zm112.6-10.63h0Z"/></svg>