<svg id="Layer_1" data-name="Layer 1" xmlns="http://www.w3.org/2000/svg" viewBox="0 0 350 350"><defs><style>.cls-1{fill:#999;}.cls-2{fill:#f90;}</style></defs><title>M</title><path class="cls-1" d="M340.58,87.28c-1.08-.45-4.51-5-6.54-10.3-2-5.11-2.14-6.19-1.83-7.75l0-.2,0-.2c-.17-2-2.52-2.44-4.07-2.73-.3-.06-.71-.13-.83-.18a12,12,0,0,0-3.92-.32h-.58c-.14,0-.21,0-.78-.46-.35-.26-.78-.57-1.41-1a3.48,3.48,0,0,1,.27-1.25,2.61,2.61,0,0,0,.11-2.07,8.53,8.53,0,0,1-.75-2.42c-.15-1.42-1.67-2.78-3.09-3.95l-.19-.15a10.38,10.38,0,0,0-1.58-1c-.23-.13-.55-.31-.64-.37-.52-.45-1.31-.62-3-.84l-.57-.08A2.11,2.11,0,0,0,309,53.26l-.18-.12-.58-.39c-.78-.51-1.48-1-1.87-1.28A14.79,14.79,0,0,1,308.81,48l.83-.91L307,44c.71-1.34,2.09-4,2.84-5.73.56-1.32,1.61-3.26,2.53-5,.67-1.24,1.3-2.42,1.68-3.23a5.48,5.48,0,0,0,.26-4.18,4,4,0,0,1-.14-.58,2.14,2.14,0,0,0-.05-.24,1.55,1.55,0,0,0,.43-2,6.13,6.13,0,0,0-7.12-2.4,1.55,1.55,0,0,0-.87-.36,3.24,3.24,0,0,0-2.73,1,2,2,0,0,1-.38-.72c0-.32,0-.71,0-1.1a5.57,5.57,0,0,1-4.16-.61,5.37,5.37,0,0,1-2-3.06H297a13.22,13.22,0,0,0-2.18,0,2.77,2.77,0,0,0-1.31.75c-.33.28-1,.87-1.36.8l-1.3-.17c-1.54-.19-5.62-.71-6.49-1.26l-.84-.53-1.26-2.66a1.47,1.47,0,0,0-2.61.12c-1.52-2.36-4.39-3.7-6.94-1.45a4.38,4.38,0,0,0-1.29,5.06c.05.11.12.19.18.28l-2.51,2.42,1.31,1c2,1.47,6.69,4.91,8.46,5.23a2.62,2.62,0,0,1,.78.29,6.17,6.17,0,0,0,.82.35,2.09,2.09,0,0,1,.48.11l3.05,3.3a7.43,7.43,0,0,1-.91,1.14,6.43,6.43,0,0,0-.93.79,5.89,5.89,0,0,1-.72.6,8,8,0,0,1-3.2,4.67c-3.14,2.12-7.81,2.44-10.08,5.85-.84,1.26-.81,2.73-1.19,4.16-.72,2.73-1.94,5.37-2.88,8-2.44,6.89-4.35,13.81-4.51,21.16a1.91,1.91,0,0,1-1.74,1.91,5.41,5.41,0,0,1,.34.83c.09.3.16.61.23.92l.09.4a15.51,15.51,0,0,1-5.62.58c-3.11-.31-5.76-1.8-8.65-2.87a40.62,40.62,0,0,0-17.71-2.37,1.53,1.53,0,0,0-1.45,1.9c.54,3.49-4,5.7-4.42,9.19l-1.46.3c1.21,2.38,2.7,5,2.1,7.43a1.73,1.73,0,0,1-1,2l-.08.11c-2.56,3-6.11,1.42-8.54-.82-3.31,2.22-6.76,4.26-10.1,6.44-2.66,1.74-9.8,5.15-10.79,8.41a1.87,1.87,0,0,1-1.46,1.35,4.14,4.14,0,0,0-.52,1.39c0,.1,0,.19-.07.29a4.56,4.56,0,0,0-.13.64.79.79,0,0,1-.08.29,6.51,6.51,0,0,1-.64,1.18,4.78,4.78,0,0,0-.85,3.06c0,.83.05,3.64.75,4.73l0,0a22.19,22.19,0,0,1-9.43,9.17,1.29,1.29,0,0,0-.74,1,8.57,8.57,0,0,0-4.55,3l0,0a6.28,6.28,0,0,1-3.82.91c-7.86,7.8-21,9.58-31.54,7.07a6.25,6.25,0,0,0,0,.77c0,.7,0,2,0,3v1c0,.22-.22,1.11-.42,2l-2.1-4.91-1.18.34c-5.41,1.56-7.12,2.09-7.72,2.3s-4.7.47-7.94.76c-8.82.8-8.91.84-9.23,1a2.06,2.06,0,0,0-.45.26,1.33,1.33,0,0,0-1-.8c-.3-.06-.4-.08-10.11.71l-2,.16c-1.37.1-10,.23-11.94-.31-2.32-.65-6.41-.33-7.29-.25-4.35-.34-11.37-.92-12-1-1-.18-9.91.54-15.15,1l-1.58.13.34,1.55a44.51,44.51,0,0,1,.89,5.39c-1.1,1-3.66,3.5-2.3,5.51.4.59.37,1.34.29,2.74,0,.28,0,.57,0,.87a17.6,17.6,0,0,0,.07,2.14,9.71,9.71,0,0,1,0,1.07,12.28,12.28,0,0,1-1.27,1l-.32.22c-1.1.79-2.1,2.78-1,4.32.21.31.41.56.59.77A11.39,11.39,0,0,1,43,179l-.46.28c-.35.21-.92.57-1.32.76l-.09-.09c-1.25-1.24-5-5-6.25-7.7a14.29,14.29,0,0,0-6-6.08l-.72-.37-.68.45c-.08,0-1.85,1.23-3,2.07A4.67,4.67,0,0,0,23,170.28c-.25.52-.37.76-.67.93a19.82,19.82,0,0,1-4.77,1.08l-1,.13-.16,1c0,.2-.32,2-.38,2.73a5.09,5.09,0,0,0,0,.57h0l-.09.08a4.35,4.35,0,0,0-.49.49,1.87,1.87,0,0,0-1.25.64,4.48,4.48,0,0,1-.59.37l-2.87.34.54,1.63a7.33,7.33,0,0,1,.37,1.77c-1.08,1-1.1,2.22-1.05,4.86a5,5,0,0,0,.28,1.83,2.83,2.83,0,0,1,.16,1.06,9.58,9.58,0,0,1-1.29,3.57l-.3.59c-.1.2-.38.29-.75.4a2.26,2.26,0,0,0-.78.35c-1.08.81-1.07,3.66-.77,5l.14.62A5.45,5.45,0,0,0,8.39,203a8.33,8.33,0,0,0,1.9,1.73l.34.25a5.46,5.46,0,0,0,.91.54,2.21,2.21,0,0,1,.88.77c.27.32.5.58.69.79a3,3,0,0,1,.49.64c0,.13,0,.26.05.39.07.49.08.57-.07.81-1.14,1.94-1.53,3.28-1.26,4.33a8.86,8.86,0,0,0,1.81,3.57,47.44,47.44,0,0,0,4.24,3.41,34.91,34.91,0,0,1,7.06-5.43,2.05,2.05,0,0,1,2.69.69,38.61,38.61,0,0,0,12.14-17.6,2,2,0,0,1,2.46-1.4c10.72,4.38,22.71,7.76,27.38,19.51.59,1.47-1.12,2.82-2.46,2.46C61.31,216.8,54,223.36,49.39,227c-2.95,2.34-5.79,4.85-8.72,7.23,1.09-.44,1.86-.78,2.43-1a6.71,6.71,0,0,1,1.28-.5,16.92,16.92,0,0,1,2.45-.05h.27l.87-.31c.43,1.83,1.13,4.73,1.28,5.34.19.75.69,5,.7,5.53,0,1.86,3.46,2.73,3.92,2.73a15.63,15.63,0,0,0,2.58-.35c.21.09.53.25.67.32a4.78,4.78,0,0,0,.54.25l.22.07a6,6,0,0,1,1.27.5,23.12,23.12,0,0,0,2.33,1.07l.25.11.19.07a8.53,8.53,0,0,0-.62,6.83c1,3.25,1.6,4.34,3.11,5.31l.66.43a3.45,3.45,0,0,0,.44.27,3.92,3.92,0,0,0,2.21.35c.5.29,1.59,1,2.1,1.33l.7.45a15.13,15.13,0,0,0,3.19,1.35,9.08,9.08,0,0,0,1.72.25c3.53,4.83,4.45,4.66,5.14,4.53a1.65,1.65,0,0,0,1.27-.95,2.27,2.27,0,0,0-.47-2.19,9.1,9.1,0,0,1-.93-1.82,23.82,23.82,0,0,0-1.16-2.58,10.71,10.71,0,0,1-.85-1.95,4.16,4.16,0,0,0-.45-2.11l-.07-.17c1.58-.14,2.18-.11,2.76.87a7.18,7.18,0,0,1,.61,1.46c.41,1.23,1,3.11,4,2.85,2.31-.19,2.37-.09,2.71.46A5.2,5.2,0,0,0,92,265.73l.36,0c-2.09,1.2-8.37,5.74-9.11,6.27l-.55.4,0,.68a4.06,4.06,0,0,0,1,2.9,2.35,2.35,0,0,0,1.88.61,4.75,4.75,0,0,0,2.76-1.42h0a1.67,1.67,0,0,1,.38,1.1,11.56,11.56,0,0,1-.65,3.1,24.66,24.66,0,0,0-1.14,4c0,1.23,1.19,1.57,1.58,1.68a2.92,2.92,0,0,1,.46.16l.53.24c-.55,1-1.18,2.34.06,3.16.73.49,3.1,1.61,3.37,1.73a16.41,16.41,0,0,1,1.63.94,5.55,5.55,0,0,0,2,1c.42.06,2.61.55,3.57.79l2.18.57.44.4a14.82,14.82,0,0,0-.41,3.6,7.19,7.19,0,0,0,1.4,3.74,6.62,6.62,0,0,1,.38.61c.34.69,2.81,6.1,4.06,8.86l.17.38,3.61,2.3-2,2.18-1.29-.77-3.52,2.45L101,315.64a6.81,6.81,0,0,0-1.75-.43,3.93,3.93,0,0,1-1.55-.44,12.94,12.94,0,0,0-4-1.69c-.44-.05-1.24-.22-1.58-.29L87,312l-.42.23a21,21,0,0,1-3.09,1.47,5.68,5.68,0,0,0-2.86,1.16,30.81,30.81,0,0,0-2.42,2.37l-1.9-.08-.44.61a12.88,12.88,0,0,0-2.1,3.85,3.91,3.91,0,0,1-.12.47,2.09,2.09,0,0,0,.14,1.86,1.86,1.86,0,0,0,1.45.77l.68.05h.19c.32,1.06,1,2.84,2.67,2.84h.49c.35,0,.81,0,1.07,0,.12.18.3.46.43.66.73,1.14,1.13,1.77,2,1.77s3-1.57,3.58-2.05,1.14-.89,1.58-1.22c1.6.89,3.64,2,4,2.29.57.38,1.82.74,5.35,1.55l.87.2c.73.18,2.26.5,2.9.63l11.87,8.3.78-.48c.4-.24,1.89-1.44,4.12-6.57,1.06-2.44,3.52-7,5.89-11.47,2.92-5.46,4.77-8.93,5.17-10.22L134,299.57l.07-.21c0-.1,2.64-10,3.63-14.05,13-10.59,49.82-37.56,52.86-39.79,2.41-.71,20.76-6.11,28.76-9.39a97,97,0,0,0,11.1-5.38c2.07-1.14,4.22-2.31,7.19-3.73,7.57-3.62,10.27-5.25,12.42-8.45,2-2.93,16.89-32.32,17.52-33.57l.16-.32-.06-1.47c6.53-13.8,17.38-36,19.16-37.93l1.07-1.14c4.44-4.72,17.94-19.1,23.53-24.79,3.52-3.59,8.31-8.76,12.53-13.32,3.15-3.41,6.13-6.62,7.92-8.47l1.23-1.26c3.24-3.34,4.45-4.59,7.64-6.54l2.32-1.42ZM275.24,13.37c1.15-.4,2,.72,2.31,1.86Zm5.87,3.87.17.35-.35.36-.4-.33A4.12,4.12,0,0,0,281.12,17.24Z"/><path class="cls-2" d="M112.95,341.45l-12.39-8.67c-.82-.17-2-.42-2.67-.58l-.7-.16L97,332c-3.86-.88-5.06-1.24-5.83-1.75-.24-.16-1.49-.87-3.11-1.78l-.81.63c-3,2.36-4.09,2.36-4.47,2.36-1.67,0-2.42-1.18-3.21-2.42l0,0h-.77c-1.66,0-2.9-1-3.71-2.91a3.23,3.23,0,0,1-2.46-1.38,3.45,3.45,0,0,1-.33-3,2.88,2.88,0,0,0,.08-.32,12.51,12.51,0,0,1,2.35-4.45l.88-1.23,2,.08a19,19,0,0,1,2.15-2.06,7.13,7.13,0,0,1,3.47-1.43A27.91,27.91,0,0,0,85.92,311l.85-.47,5.56.9c.57.12,1.22.24,1.53.28a14.23,14.23,0,0,1,4.56,1.89,3.18,3.18,0,0,0,1,.24,8,8,0,0,1,2.1.53l3.4,1.46,3.62-2.52,1.09.65.08-.09-2.53-1.61-.35-.76c-1.4-3.08-3.73-8.19-4-8.82a4,4,0,0,0-.25-.4,8.67,8.67,0,0,1-1.68-4.52,14.14,14.14,0,0,1,.23-2.9l-1.37-.36c-1-.26-3.11-.71-3.43-.76a6.48,6.48,0,0,1-2.51-1.16,15.87,15.87,0,0,0-1.48-.86s-2.67-1.25-3.56-1.84a2.9,2.9,0,0,1-1.16-3.55,3,3,0,0,1-2.1-2.87,23.87,23.87,0,0,1,1.24-4.54,7.17,7.17,0,0,0,.33-1.17,5.22,5.22,0,0,1-1.36.33,3.78,3.78,0,0,1-3-1,5.4,5.4,0,0,1-1.44-4l0-1.37,1.12-.81c.52-.37,4-2.87,6.68-4.7a8,8,0,0,1-2.3-2.41,11.74,11.74,0,0,0-1.47.08,4.77,4.77,0,0,1-4-1.19c.13.3.26.62.37.94a7.77,7.77,0,0,0,.79,1.53,3.59,3.59,0,0,1,.57,3.53,3.08,3.08,0,0,1-2.31,1.77c-1.62.29-3-.33-6.15-4.57a8.87,8.87,0,0,1-1.33-.24,16.41,16.41,0,0,1-3.57-1.52l-.72-.46c-.47-.3-1.19-.77-1.7-1.08a4.9,4.9,0,0,1-2.55-.56,4.23,4.23,0,0,1-.55-.34l-.61-.4c-2-1.29-2.76-2.92-3.7-6.1a10.63,10.63,0,0,1,.06-6.5c-.49-.21-1-.45-1.53-.74a4.61,4.61,0,0,0-1-.39l-.24-.07a6,6,0,0,1-.79-.35l-.18-.09a16.93,16.93,0,0,1-2.41.28c-.91,0-5.33-1.13-5.33-4.15,0-.44-.5-4.56-.66-5.18-.12-.47-.55-2.3-.95-4h-.15a16.26,16.26,0,0,0-2.13,0,9.47,9.47,0,0,0-.95.4c-.59.27-1.38.62-2.49,1.07L32.48,239l7.29-5.93c1.27-1,2.53-2.09,3.78-3.15,1.61-1.36,3.27-2.76,5-4.09l1.2-1c4.7-3.79,11.81-9.51,18.29-7.77a.79.79,0,0,0,.69-.28c.14-.16.11-.24.09-.29-3.89-9.79-13-13.38-22.74-17.18-1.29-.51-2.58-1-3.86-1.54,0,0,0,0-.11,0a1,1,0,0,0-.48.54A40,40,0,0,1,29,216.64l-1.19.94L27,216.33a.65.65,0,0,0-.82-.25,34.11,34.11,0,0,0-6.78,5.22l-.87.84-1-.73a43.42,43.42,0,0,1-4.43-3.58A10.36,10.36,0,0,1,11,213.63c-.35-1.4.05-3,1.31-5.21v-.14l-.19-.21L12,208l-.65-.75a3,3,0,0,0-.34-.37l-.09,0a6.78,6.78,0,0,1-1.11-.66l-.34-.25a9.66,9.66,0,0,1-2.17-2,6.79,6.79,0,0,1-1.44-3.3L5.7,200c-.23-1-.67-4.93,1.3-6.41A3.61,3.61,0,0,1,8.25,193h0l.09-.17,0-.09a9.68,9.68,0,0,0,1.13-2.9,1.57,1.57,0,0,0-.09-.63,6.43,6.43,0,0,1-.36-2.28c0-2.25-.08-4,1-5.33a7.17,7.17,0,0,0-.22-.85l-1.1-3.28,4.31-.51.1-.06a3.31,3.31,0,0,1,1.37-.84c.07-.86.39-2.82.39-2.84l.33-2.08,2.09-.26a22.06,22.06,0,0,0,4.17-.87c.05-.09.1-.2.17-.35a6,6,0,0,1,1.9-2.47c1.22-.89,3-2.1,3.06-2.11l1.37-.91,1.46.75c.18.09,4.71,2.42,6.64,6.76.67,1.52,2.45,3.74,5.29,6.6l.33-.2.34-.21a12,12,0,0,0,1-1.87l-.12-.17c-1.59-2.31-.23-5.13,1.37-6.28l.33-.23.65-.47,0-.28a19.28,19.28,0,0,1-.07-2.35c0-.31,0-.61,0-.9a5.32,5.32,0,0,0,0-1.86c-1.31-1.94-.58-4.42,2-6.88-.13-1.07-.45-2.88-.8-4.51L45.76,149l3.19-.27c14.23-1.21,15.14-1,15.52-1,.56.09,6.52.59,11.77,1,1.33-.12,5.25-.37,7.68.31,1.65.46,9.92.38,11.45.26l2-.16c9.87-.8,10-.79,10.48-.69A3,3,0,0,1,109,149c.67-.14,2.37-.3,9.17-.92,2.73-.25,6.79-.62,7.74-.74.64-.22,2.22-.71,7.66-2.28l2.39-.69.26.61a7.54,7.54,0,0,1,.05-.83l.19-1.58,1.55.37c9.41,2.25,22.4,1,30.21-6.7l.45-.45.63,0a5,5,0,0,0,2.8-.59,9.62,9.62,0,0,1,4.41-3,2.81,2.81,0,0,1,1.19-1.14,20.87,20.87,0,0,0,8.48-8,15.19,15.19,0,0,1-.59-4.7,6.17,6.17,0,0,1,1.09-3.84,4.92,4.92,0,0,0,.5-.92,6,6,0,0,1,.16-.78l0-.16a5.59,5.59,0,0,1,.71-1.88l.32-.53.61-.12a.47.47,0,0,0,.38-.38c.88-2.87,4.7-5.28,9.24-7.91.86-.5,1.6-.93,2.13-1.27,1.46-1,2.94-1.87,4.42-2.8,1.87-1.17,3.81-2.38,5.67-3.63l.93-.62.82.76A6.68,6.68,0,0,0,217,96.37a3,3,0,0,0,2.11-1.15l.06-.08.19-.23.27-.14c.09,0,.34-.21.3-.34l-.1-.35.09-.36c.43-1.75-.66-3.86-1.7-5.89l-1.13-2.23,1.84-.36.56-.11a12.4,12.4,0,0,1,2.35-3.89c1.1-1.39,2-2.59,1.85-3.88a3.09,3.09,0,0,1,.58-2.43,3,3,0,0,1,2.15-1.11,41.83,41.83,0,0,1,18.32,2.46c.81.3,1.6.63,2.39,1a20.63,20.63,0,0,0,5.9,1.82,12.75,12.75,0,0,0,3.75-.22,4.24,4.24,0,0,0-.21-.47l-.89-1.78,2-.26c.5-.07.5-.39.51-.53.18-8.13,2.42-15.48,4.59-21.6.33-.93.7-1.87,1.06-2.8a48.38,48.38,0,0,0,1.78-5.11c.11-.41.18-.82.25-1.23A8.3,8.3,0,0,1,267,41.7c1.67-2.51,4.4-3.58,6.8-4.51a18.92,18.92,0,0,0,3.67-1.73,6.54,6.54,0,0,0,2.63-3.88l.14-.48.41-.29a4.39,4.39,0,0,0,.55-.46,8.43,8.43,0,0,1,1-.83l-2-2.09-.14-.05a7.46,7.46,0,0,1-1-.43,1.31,1.31,0,0,0-.4-.16c-1.52-.28-4.56-2.12-9.06-5.49l-2.64-2,3-2.87a5.89,5.89,0,0,1,1.89-6.09,5.48,5.48,0,0,1,4.45-1.46,6.33,6.33,0,0,1,3.64,2,2.87,2.87,0,0,1,1.33-.28,2.66,2.66,0,0,1,2.36,1.56l1.09,2.29.5.31c.22.11,1.27.47,5.91,1.05l1,.13c.18-.12.42-.33.51-.41a4.17,4.17,0,0,1,2-1.1,12.87,12.87,0,0,1,2.47,0l1,0,.47,1a3.94,3.94,0,0,0,1.47,2.29,4.14,4.14,0,0,0,3.13.39l1.56-.27.08,1.25a4.74,4.74,0,0,1,1.9-.18,3,3,0,0,1,.91.24,7.55,7.55,0,0,1,8.1,3.13,2.92,2.92,0,0,1,0,3.21v.05a6.9,6.9,0,0,1-.34,5.15c-.39.83-1,2-1.72,3.3-.91,1.68-1.93,3.59-2.47,4.85-.63,1.47-1.67,3.52-2.44,5l2.82,3.34L309.86,49A18.47,18.47,0,0,0,308.21,51l.49.33a3.23,3.23,0,0,1,2.76-.72l.5.07c1.7.23,2.81.42,3.66,1.12l.47.27a11.44,11.44,0,0,1,1.8,1.16l.18.15c1.63,1.34,3.4,2.94,3.6,4.89a7.23,7.23,0,0,0,.61,1.93,3.93,3.93,0,0,1,0,3.15l0,.13.69.49.24.17h.26a12.88,12.88,0,0,1,4.44.41l.6.12c1.61.3,5,.93,5.22,4l0,.4-.08.39c-.23,1.17-.15,2,1.76,7s5,9,5.8,9.51l5,2.11L341.5,91c-3,1.86-4.13,3-7.36,6.32l-1.23,1.26c-1.76,1.8-4.67,5-7.76,8.29L325,107c-4.22,4.56-9,9.74-12.55,13.35-5.55,5.65-19,20-23.44,24.7l-1.14,1.21c-1.41,1.51-10.8,20.45-18.76,37.26l.06,1.49-.33.65c-1.59,3.14-15.63,30.78-17.61,33.72-2.33,3.47-5.15,5.19-13,8.93-2.94,1.4-5.06,2.57-7.12,3.69a98.36,98.36,0,0,1-11.24,5.45c-7.89,3.24-25.66,8.49-28.66,9.37-4.87,3.56-39.32,28.82-52.23,39.3-.62,2.48-1.83,7.17-3.44,13.31l-.23.73-5.05,11.38c-.48,1.47-2.23,4.76-5.25,10.39-2.39,4.46-4.81,9-5.84,11.36-2.25,5.17-3.89,6.74-4.68,7.22ZM87.87,325.1l.8.45c.83.46,3.58,2,4.12,2.35a28.36,28.36,0,0,0,4.89,1.35l.15,0,.75.18c.71.18,2.21.49,2.83.61l.29.06,11.35,7.94c.14-.1,1.47-1.14,3.54-5.92,1.08-2.48,3.53-7.06,5.9-11.49s4.73-8.82,5.11-10.05l.06-.16,5.17-11.75c1.71-6.53,3-11.4,3.54-13.73l.11-.46.37-.3c12.85-10.48,48.85-36.86,52.92-39.83l.2-.15.24-.07c2.09-.61,20.61-6.06,28.62-9.34a95.56,95.56,0,0,0,11-5.31c2.09-1.14,4.25-2.33,7.26-3.76,7.31-3.49,9.89-5,11.86-8,1.53-2.27,11.67-22.07,17.43-33.41l-.06-1.45.15-.31c.17-.36,16.84-35.57,19.41-38.3l1.07-1.14c4.5-4.79,18-19.14,23.55-24.81,3.52-3.58,8.29-8.74,12.5-13.29l.14-.15c3.1-3.35,6-6.51,7.81-8.34l1.22-1.26c3.22-3.32,4.56-4.71,7.88-6.74-1.85-.83-5.43-6.28-7.27-11.08-2-5.2-2.29-6.55-1.89-8.54-.07-.77-1.12-1.11-2.92-1.45a7.07,7.07,0,0,1-1.07-.25,12.35,12.35,0,0,0-3.4-.23h-.58a2.59,2.59,0,0,1-1.64-.73c-.32-.24-.72-.53-1.31-.89l-.42-.26-.17-.46a3.28,3.28,0,0,1,.25-2.18c.14-.41.28-.83.19-1a9.88,9.88,0,0,1-.89-2.91c-.1-1-1.84-2.39-2.58-3l-.19-.15a9.29,9.29,0,0,0-1.36-.86,6.52,6.52,0,0,1-.83-.5,6.33,6.33,0,0,0-2.3-.55l-.62-.09c-.28,0-.45,0-.79.55l-.77,1.25-1.44-1-.53-.36c-.79-.52-1.51-1-1.92-1.31l-.9-.64.4-1a16.07,16.07,0,0,1,2.74-3.89l-2.45-2.89.45-.85c.59-1.11,2-3.87,2.79-5.63.59-1.37,1.65-3.34,2.58-5.08.69-1.28,1.29-2.4,1.65-3.17a4.07,4.07,0,0,0,.17-3.2,5.3,5.3,0,0,1-.18-.79l-.21-.92.74-.64a.34.34,0,0,0,0-.11,4.72,4.72,0,0,0-5.43-1.8l-.78.28-.62-.54a1.83,1.83,0,0,0-1.65.55l-1.18,1.25-1-1.4a3.61,3.61,0,0,1-.57-1.09,6.1,6.1,0,0,1-3.64-1,6.23,6.23,0,0,1-2.26-2.85,8.94,8.94,0,0,0-1.11,0,2,2,0,0,0-.64.44c-.84.7-1.62,1.29-2.54,1.11l-1.22-.16c-4.92-.62-6.38-1-7.07-1.47l-1.19-.75L281,13.42a.31.31,0,0,0-.13.11l-1.14,2.09-1.29-2a4,4,0,0,0-2.63-1.94,2.65,2.65,0,0,0-2.1.7l1-.36a2.7,2.7,0,0,1,2.15.13,4.4,4.4,0,0,1,2,2.64l.56,1.78.39-.21a2.75,2.75,0,0,0,.39-.25l1.4-1.1L283,17.88l-2,2-8.08-6.5a2.65,2.65,0,0,0-.23,2.51,1.37,1.37,0,0,1,.12.18l.56,1-2.12,2c4.3,3.22,7,4.81,7.84,5a4,4,0,0,1,1.16.42,5.32,5.32,0,0,0,.52.24,3.85,3.85,0,0,1,.53.14l.36.11.3.29,3.84,4.15-.67.94a6.33,6.33,0,0,1-1.23,1.46,5.45,5.45,0,0,0-.78.66c-.16.16-.32.3-.49.44a9.19,9.19,0,0,1-3.63,5,21.29,21.29,0,0,1-4.22,2c-2.21.86-4.29,1.68-5.47,3.45a5.85,5.85,0,0,0-.7,2.27c-.08.49-.17,1-.3,1.47a50.77,50.77,0,0,1-1.88,5.42c-.35.91-.71,1.81-1,2.72-2.1,5.91-4.26,13-4.43,20.71a3.29,3.29,0,0,1-1.36,2.66c.06.21.11.43.15.65l.41,1.74-1.33.36a16.74,16.74,0,0,1-6.13.62,23.11,23.11,0,0,1-6.72-2c-.75-.32-1.51-.63-2.28-.92a39.05,39.05,0,0,0-17.1-2.29.36.36,0,0,0-.16,0,.54.54,0,0,0,0,.23c.39,2.51-1.11,4.4-2.43,6.07a8,8,0,0,0-2,3.52l-.13,1-.63.14c1,2,1.86,4.19,1.44,6.43a3.1,3.1,0,0,1-1.53,3.07,5.78,5.78,0,0,1-4,2.07,8.64,8.64,0,0,1-5.62-2.1c-1.61,1.06-3.25,2.09-4.85,3.08s-2.93,1.83-4.37,2.77c-.6.39-1.37.83-2.26,1.35-2.74,1.59-7.33,4.25-8,6.28a3.28,3.28,0,0,1-1.81,2.1,3.81,3.81,0,0,0-.14.52c0,.15-.06.26-.09.37a3.33,3.33,0,0,0-.09.46,2.18,2.18,0,0,1-.19.66,7.8,7.8,0,0,1-.75,1.39,3.4,3.4,0,0,0-.61,2.27,10.83,10.83,0,0,0,.5,3.93l.5.78-.41.74a23.68,23.68,0,0,1-10,9.74l-.11.81-.85.28a7.09,7.09,0,0,0-3.84,2.47l-.17.23-.25.15a7.62,7.62,0,0,1-4,1.14c-8.14,7.68-20.9,9.24-30.72,7.38,0,.42,0,.88,0,1.32l0,1.71v.08a21.19,21.19,0,0,1-.45,2.15l-1,4.21-3.3-7.74c-4.56,1.32-6.91,2-7.62,2.27l-.27.07c-.67.1-3.89.4-8,.77-5.71.52-8.5.78-8.84.87l-.13.08-1.44,1-.7-1.64c-.33,0-2.79.2-9.73.76l-2,.16c-1.18.09-10.18.27-12.43-.36a23.39,23.39,0,0,0-6.78-.21h-.24c-.11,0-11.19-.88-12.16-1-.28,0-2.23-.06-14.76,1a44.87,44.87,0,0,1,.91,5.6l0,.68-.52.45c-1.42,1.23-2.6,2.83-2.05,3.65.69,1,.61,2.17.53,3.62,0,.27,0,.56,0,.85a16.64,16.64,0,0,0,.06,2,9.59,9.59,0,0,1,0,1.28l0,.55-.4.38a13.26,13.26,0,0,1-1.41,1.09l-.33.23c-.52.37-1.24,1.55-.68,2.36.18.27.36.48.51.67l.54.65-.31.78c-.29.73-1.33,3.17-2.27,3.83l-.55.34c-.47.29-1,.62-1.45.83l-.92.44-.71-.73c-2.32-2.29-5.44-5.56-6.62-8.2a12.9,12.9,0,0,0-5.32-5.38c-.17.11-1.85,1.22-2.94,2a3.32,3.32,0,0,0-1,1.4A3.06,3.06,0,0,1,23,172.45c-1.27.73-5,1.21-5.28,1.25-.07.42-.31,2-.36,2.6a3.79,3.79,0,0,0,0,.42l0,.63-.45.44-.17.15a2.82,2.82,0,0,0-.31.31l-.37.44-.58.06a.47.47,0,0,0-.33.18l-.11.11a5.27,5.27,0,0,1-.84.55l-.24.13-1.41.17a8.6,8.6,0,0,1,.43,2.17v.64l-.47.43c-.57.52-.64,1.24-.59,3.79a3.68,3.68,0,0,0,.21,1.41,4.22,4.22,0,0,1,.24,1.49A10,10,0,0,1,10.95,194l-.28.56A2.36,2.36,0,0,1,9,195.75a1.26,1.26,0,0,0-.33.12,6,6,0,0,0-.24,3.51l.14.63a4.11,4.11,0,0,0,.88,2.15,7,7,0,0,0,1.62,1.46l.35.26a4.08,4.08,0,0,0,.69.41,3.58,3.58,0,0,1,1.35,1.13l.6.69.07.08a3.25,3.25,0,0,1,.79,1.17l.09.52a2.38,2.38,0,0,1-.23,1.81c-.9,1.53-1.27,2.63-1.11,3.27a7.49,7.49,0,0,0,1.48,3c.36.39,1.88,1.58,3.09,2.51a34.73,34.73,0,0,1,6.46-4.81,3.4,3.4,0,0,1,3.42.06,37.57,37.57,0,0,0,10.76-16.2,3.87,3.87,0,0,1,2-2.18,3,3,0,0,1,2.34-.06c1.26.51,2.54,1,3.82,1.52,9.83,3.86,20,7.84,24.34,18.78a3.07,3.07,0,0,1-.61,3.22,3.61,3.61,0,0,1-3.54,1.13c-5.1-1.37-11.53,3.81-15.78,7.24l-1.22,1c-1.26,1-2.53,2.05-3.77,3.1h.38l2.1-.75.37,1.54c.43,1.82,1.12,4.72,1.27,5.32.23.92.73,5.3.74,5.82s1.71,1.26,2.58,1.36a16.18,16.18,0,0,0,2.17-.32l.45-.11.43.17c.25.1.63.3.79.38l.35.17.16,0a7.37,7.37,0,0,1,1.53.62,21.66,21.66,0,0,0,2.19,1l.39.16,1.63.6-.91,1.47a7.17,7.17,0,0,0-.46,5.69c.91,3.09,1.4,3.8,2.52,4.52l.71.47.33.2a2.84,2.84,0,0,0,1.42.17l.43,0,.37.21c.49.29,1.54,1,2.09,1.32l.75.49a13.85,13.85,0,0,0,2.81,1.18,7.57,7.57,0,0,0,1.43.2l.66,0,.39.54c2.69,3.69,3.56,4,3.65,4l.1,0c.19,0,.22-.1.23-.13s-.12-.45-.38-.87a10.45,10.45,0,0,1-1.06-2.09A22.45,22.45,0,0,0,78,262.15a7.37,7.37,0,0,1-1-2.51v-.13l0-.13a3.2,3.2,0,0,0-.36-1.38l-.74-2,1.86-.16c1.49-.13,3-.26,4.11,1.56a8.43,8.43,0,0,1,.74,1.74c.43,1.31.78,2,2.5,1.88,2.18-.18,3.17-.26,4,1.12a3.84,3.84,0,0,0,3,2.15,4.3,4.3,0,0,1,.54.07l3.76.71L93.09,267c-2.07,1.19-8.59,5.9-9,6.18a2.67,2.67,0,0,0,.55,1.8.91.91,0,0,0,.76.24,3.39,3.39,0,0,0,2-1.06l.18-.14,1.1-.73.81,1a3.09,3.09,0,0,1,.67,2.11,12.82,12.82,0,0,1-.74,3.5,27.44,27.44,0,0,0-1,3.51c0,.06.11.17.55.29a4.37,4.37,0,0,1,.7.25l.46.21,1.45.63-.78,1.37c-.5.88-.48,1.16-.47,1.22h0l.08.06c.53.35,2.47,1.3,3.18,1.63a17.29,17.29,0,0,1,1.76,1,5.68,5.68,0,0,0,1.43.77c.51.07,2.79.58,3.72.82l2,.53.5.13,1.31,1.19-.18.8a13.59,13.59,0,0,0-.37,3.23,5.89,5.89,0,0,0,1.17,3,7.36,7.36,0,0,1,.46.76c.44.88,3.94,8.6,4.08,8.9l4.7,3-4,4.27-1.49-.89L105.26,319l-.72-.31-4.12-1.77a5.58,5.58,0,0,0-1.39-.33,5.12,5.12,0,0,1-2.1-.64,11.87,11.87,0,0,0-3.41-1.48c-.53-.07-1.43-.25-1.7-.31l-4.53-.73a21.9,21.9,0,0,1-3.5,1.61l-.14,0a4.27,4.27,0,0,0-2.14.89,27.65,27.65,0,0,0-2.24,2.21l-.44.47L77,318.58a11.12,11.12,0,0,0-1.84,3.25,5.21,5.21,0,0,1-.14.59c-.11.39-.15.59-.07.7s.09.13.41.16l.51,0,1.31.1.28.93c.49,1.62,1,1.83,1.32,1.83h.48a11.73,11.73,0,0,1,1.24,0l.63.07.37.52.39.6.07.11a5.85,5.85,0,0,0,.82,1.13,11.2,11.2,0,0,0,2.71-1.75c.56-.45,1.16-.91,1.61-1.24ZM8.12,193.36h0ZM322,64.14Zm-29.7-48.19h0Z"/><path class="cls-1" d="M179.57,138h0Z"/><polygon class="cls-2" points="179.57 139.41 178.16 139.41 178.16 137.99 179.57 137.99 179.57 136.57 179.57 137.99 180.99 137.99 179.57 137.99 179.57 139.41"/></svg>