<svg id="Layer_1" data-name="Layer 1" xmlns="http://www.w3.org/2000/svg" viewBox="0 0 350 350"><defs><style>.cls-1{fill:#999;}.cls-2{fill:#f90;}</style></defs><title>Fix</title><path class="cls-1" d="M272.19,184.73c-.71-9-1.59-18.07-2.17-27-1.54-24,3.38-52.6-11.22-73.48-1.41-2-3-4-3.71-6.37-1.53-5.19,1.29-11.89-2.66-15.59a5.92,5.92,0,0,0-6.86-.75c-1.28.76-11.46-26.41-12.22-28.76-1-3.08-2-6.17-3.27-9.14-2.34-5.42-6.43-13.9-12.58-15.7a16.66,16.66,0,0,0-5.24-.4q-6.11.2-12.22.63c-3.72.26-8.61.56-11.51,3.27-3.79,3.55-1,8-3.51,11.85a23.88,23.88,0,0,1-2.58,2.62c-2.28,2.55-2.08,6.43-3.39,9.59-1.85,4.47-6.58,8.7-10.63,11.12A16,16,0,0,1,161.93,49c-1.64.15-4.68-1.17-6-.77-4.1,1.23-4.68,9.61-4.33,12.9a144.52,144.52,0,0,0,3.25,18.85,1.29,1.29,0,0,0,1.91,1.16c2.72-.65,5.55-.92,7.21-3.49,1.28-2,3.93-4.71,6.55-4a9.17,9.17,0,0,1,3.31,2.05c1.94,1.62,5.13,3.07,6,5.64,1.06,3.14-1.38,6.61-.56,9.86.94,3.71,6.35,6,5.93,9.74a14.16,14.16,0,0,1-3.34-.79c-6.45-1.75-14.38,3.34-15.44,10.07-.57,3.64-1.22,7.27-1.88,10.89-.94,5.18-6.2,7.08-8.9,11.07-2.93,4.33,1.47,13-2.9,15.2a1.91,1.91,0,0,0-.62.4c-.63.74.45,1.73,1.37,2s2.15.85,1.91,1.79a39.23,39.23,0,0,0-8.53,1.18c-2.75.77-5.72.4-8.45,1.24-6.26,1.93-9.31,9.67-5.27,15,1.11,1.47,2.69,3-.11,4.46a.45.45,0,0,0-.17.23c-2.4,6.22-8.5,8-13.44,11.22-2.82,1.81-5.92,1.16-8.91.32-.92-.26-1.82-.27-1.72.69A2.6,2.6,0,0,1,108,188c-.91,1.21.42,3.18,2.1,3.22,3.89.1,7.74-.69,11.66-.35,1.37.12,1.75.18,1.13,1.65-.76,1.79-.77,3.7-3.53,4.16-2,.33-3.42,2.16-4.59,4.16-2.7,4.64-4.89,9.54-7.83,14.09a23.83,23.83,0,0,1-6.89,7.5,2.11,2.11,0,0,0-.89,2.52c.88,4.29-.65,8.48-.53,12.76.06,2.24-1.25,4.18-2.83,5.81-.19,1-.52,1.81-1.71,1.86l-.05,1c-.19,3.34,2,14.38-.16,16.47a8.3,8.3,0,0,1-3.17,1.61l-10.14,3.43c-1.43.48-5.25,3.63-3.3,3.2-1.34,2.58-.49,5.77.94,8.3s3.41,4.75,4.51,7.44,1,6.19-1.18,8.06c-1.28,1.08-3.38,2.18-2.75,3.72,1,2.39,8.25-.27,9.76-.63,5-2.58,10.52-3.65,15.95-4.94,3.78-.9,5.54-4.86,7.81-7.58a12.62,12.62,0,0,1,6.17-4,44.91,44.91,0,0,1,8-1,21.57,21.57,0,0,0,7.2-2.33,6.17,6.17,0,0,1,1.75-.62c3.31-.47,3.45,4.3.73,5.2-3,1-4.89,4.33-7.12,6.32a2.22,2.22,0,0,0-.85,1.19c-.12.73.5,1.37,1.12,1.79,2.18,1.47,4.88,1.93,7.23,3.12s4.47,3.69,3.76,6.23-3.91,3.58-6.26,5-3.86,5.43-1.34,6.54c1.56.69,4-.24,4.72,1.31a2.86,2.86,0,0,1-.09,2,87.55,87.55,0,0,0-3.39,25.9c.05,2.55,15.2-6,16.76-8,3.07-4,3.74-11.11,9.38-12.53,3.69-.93,7.47,1.63,11.26,1.23,4.13-.43,7-4.12,10.17-6.79s6.87-4.48,9.21-7.78c1.85-2.61,2.58-5.83,3.51-8.9,3.5-11.53,11.29-24.81,22-30.95,2-1.13,4.18-2.1,5.5-4,5-7.06-13-8.29-7.71-12a14.63,14.63,0,0,1,3-1.25c5.57-2.32,7.65-9.26,13.51-11.78,1.31,2.39,2.26,9,6.54,8.09a6.09,6.09,0,0,0,2.44-1.35c11.1-8.81,17.15-23.49,29.72-30,1.45-.75,3.08-1.49,3.79-3a6.82,6.82,0,0,0,.37-3.43C273.35,201.36,272.84,193,272.19,184.73Z"/><path class="cls-2" d="M134.49,343.89a2.25,2.25,0,0,1-.7-.1,1.83,1.83,0,0,1-1.29-1.74,88.7,88.7,0,0,1,3.45-26.32,2.82,2.82,0,0,0,.17-1,3.72,3.72,0,0,0-1.38-.19,6.82,6.82,0,0,1-2.63-.43A3.54,3.54,0,0,1,130,311a7,7,0,0,1,3.32-5.93c.6-.36,1.23-.69,1.84-1,1.74-.9,3.39-1.74,3.79-3.17.48-1.73-1.2-3.65-3-4.58a24.26,24.26,0,0,0-2.89-1.16,19.21,19.21,0,0,1-4.49-2,3.26,3.26,0,0,1-1.72-3.19,3.5,3.5,0,0,1,1.31-2,24.59,24.59,0,0,0,2-2.12c1.52-1.73,3.24-3.69,5.61-4.48a1.6,1.6,0,0,0,.89-1.86c-.12-.5-.4-.67-1-.59a5.11,5.11,0,0,0-1.34.5,22.92,22.92,0,0,1-7.67,2.46c-.69.07-1.39.12-2.09.18a28.08,28.08,0,0,0-5.64.81,11.22,11.22,0,0,0-5.48,3.55c-.53.63-1,1.35-1.56,2.1-1.71,2.42-3.65,5.16-7,6l-2.14.5C97.91,296,93.41,297,89.2,299.2l-.32.12c-.22.05-.57.16-1,.29-3.4,1-9.08,2.7-10.39-.5-.92-2.25,1.15-3.82,2.4-4.76.26-.2.52-.39.75-.58,1.74-1.47,1.63-4.37.78-6.44A23.82,23.82,0,0,0,78.86,283c-.64-.94-1.3-1.9-1.88-2.93-1.68-3-2.19-5.93-1.48-8.37a1.52,1.52,0,0,1-.13-.32c-.6-2.14,4.37-4.73,4.75-4.85l10.14-3.43a7.21,7.21,0,0,0,2.65-1.3c1-.95.34-7.51.06-10.31a40.68,40.68,0,0,1-.34-5.21l.13-2.24L94,244a.48.48,0,0,0,.17,0,2,2,0,0,0,.21-.69l.08-.41.29-.3c1.7-1.76,2.47-3.29,2.43-4.79a34.46,34.46,0,0,1,.41-5.4,21.41,21.41,0,0,0,.15-7.11,3.54,3.54,0,0,1,1.51-4,22.75,22.75,0,0,0,6.48-7.08c1.7-2.64,3.19-5.47,4.62-8.2,1-1.92,2-3.91,3.17-5.83s2.83-4.38,5.57-4.84c1.38-.23,1.58-.8,2-2.17.09-.28.19-.56.3-.84a39.85,39.85,0,0,0-6.15.15,52.43,52.43,0,0,1-5.24.22,4,4,0,0,1-3.42-2.26,3.07,3.07,0,0,1,.23-3.23l.06-.09c.44-.59.48-.64.44-1a2.1,2.1,0,0,1,.71-1.89,3.1,3.1,0,0,1,2.81-.3c2.76.78,5.43,1.35,7.76-.15,1.2-.77,2.47-1.47,3.7-2.14,3.87-2.12,7.53-4.13,9.18-8.4a1.8,1.8,0,0,1,.85-1c.69-.35.8-.58.8-.58a5,5,0,0,0-.89-1.38l-.29-.37a10.49,10.49,0,0,1-1.58-9.68,11.55,11.55,0,0,1,7.56-7.52,21,21,0,0,1,4.66-.72,19.9,19.9,0,0,0,3.82-.54,39.66,39.66,0,0,1,5.23-1,3.13,3.13,0,0,1-1.11-1.54,2.15,2.15,0,0,1,.44-2,2.88,2.88,0,0,1,1-.7c1.52-.78,1.48-2.88,1.25-6.26-.19-2.87-.42-6.13,1.2-8.52a22.29,22.29,0,0,1,4-4.21c2.13-1.85,4.13-3.59,4.63-6.32.58-3.21,1.26-7,1.87-10.86A14.56,14.56,0,0,1,182.2,98.74l1,.29.17.05a14.49,14.49,0,0,0-2.11-2.55c-1.34-1.41-2.86-3-3.37-5a11.63,11.63,0,0,1,.32-5.47,8.28,8.28,0,0,0,.27-4.28c-.48-1.41-2.08-2.52-3.64-3.59-.66-.45-1.34-.92-1.92-1.42A8.07,8.07,0,0,0,170.13,75c-1.6-.44-3.71,1.45-5,3.4-1.74,2.7-4.53,3.31-7,3.85l-1.08.24a2.65,2.65,0,0,1-3.62-2.2,146.49,146.49,0,0,1-3.28-19c-.28-2.62-.18-12.75,5.33-14.41a8.15,8.15,0,0,1,3.87.33,10.08,10.08,0,0,0,2.42.39,14.84,14.84,0,0,0,5.91-2.15c3.51-2.1,8.25-6.1,10-10.44a20.69,20.69,0,0,0,1-3.51c.49-2.26,1-4.61,2.67-6.48a13.68,13.68,0,0,1,1.18-1.13,7,7,0,0,0,1.26-1.31,8.61,8.61,0,0,0,1-4.63c.09-2.4.19-5.11,2.72-7.49,3.22-3,8.41-3.38,12.2-3.64h.18c4.07-.28,8.19-.49,12.27-.63a18.07,18.07,0,0,1,5.68.45c6.53,1.91,10.83,10.33,13.49,16.5,1.31,3,2.33,6.2,3.32,9.27s8.76,23.44,11.17,27.48a7.33,7.33,0,0,1,7.53,1.43c2.87,2.69,2.76,6.48,2.65,10.14a20.24,20.24,0,0,0,.41,6.08,17.42,17.42,0,0,0,2.83,5l.68,1c11.23,16.07,11.18,36.25,11.13,55.77,0,6.44,0,12.53.35,18.43.37,5.7.87,11.54,1.35,17.19.28,3.27.56,6.54.82,9.82.58,7.36,1.17,16.08,1.17,25a7.85,7.85,0,0,1-.51,4c-.86,1.78-2.56,2.65-4.06,3.42l-.36.18c-6.92,3.6-11.76,9.73-16.89,16.21-3.8,4.81-7.73,9.79-12.61,13.67a7.37,7.37,0,0,1-3,1.62c-4.47.93-6.21-3.87-7.25-6.75l-.28-.78a21.92,21.92,0,0,0-5.13,5c-2,2.4-4.06,4.87-7.14,6.16-.37.16-.76.28-1.15.41a6.1,6.1,0,0,0-1.59.68l-.25.2a17,17,0,0,0,2.86,1.65c2.71,1.37,5.78,2.92,6.46,5.61a5.06,5.06,0,0,1-1,4.22,13.45,13.45,0,0,1-4.91,3.8l-1,.58c-10.89,6.25-18.16,19.66-21.33,30.13-.15.49-.29,1-.43,1.47a19.35,19.35,0,0,1-9.59,13.52c-1.11.79-2.16,1.53-3.14,2.36-.69.58-1.36,1.21-2.07,1.87-2.56,2.39-5.2,4.86-8.87,5.24a16.18,16.18,0,0,1-5.71-.74c-1.9-.48-3.7-.94-5.34-.53-3.08.78-4.44,3.8-5.87,7a24.85,24.85,0,0,1-2.73,5C150.44,336.62,138.62,343.89,134.49,343.89Zm-4.88-53.55a2,2,0,0,0,.47.41,16.83,16.83,0,0,0,3.85,1.72,26.72,26.72,0,0,1,3.23,1.31c2.82,1.43,5.42,4.5,4.48,7.87-.73,2.62-3.12,3.85-5.22,4.93-.6.31-1.16.6-1.67.91a4.31,4.31,0,0,0-2,3.33.71.71,0,0,0,.46.71,4.82,4.82,0,0,0,1.56.19c1.21,0,3.05.08,3.87,1.81a4.17,4.17,0,0,1,0,3A85.87,85.87,0,0,0,135.31,341c3.22-.82,13.08-6.35,14.23-7.84a22.49,22.49,0,0,0,2.39-4.46c1.57-3.5,3.35-7.47,7.77-8.59,2.34-.59,4.58,0,6.74.53a13.9,13.9,0,0,0,4.72.66c2.72-.29,4.91-2.33,7.23-4.5.71-.66,1.43-1.34,2.18-2,1.07-.9,2.21-1.72,3.32-2.5a22.69,22.69,0,0,0,5.64-5,22.87,22.87,0,0,0,2.86-7c.15-.5.29-1,.44-1.5,3.33-11,11-25.1,22.64-31.77l1.09-.6a11.21,11.21,0,0,0,4-2.94c.78-1.11.63-1.71.58-1.9-.36-1.43-2.92-2.73-5-3.77-2.46-1.24-4.4-2.22-4.54-4a3,3,0,0,1,1.56-2.68,8.4,8.4,0,0,1,2.35-1.06c.32-.1.63-.21.94-.33,2.44-1,4.2-3.12,6.05-5.35,2.05-2.46,4.18-5,7.45-6.42l1.19-.51.62,1.13a18.54,18.54,0,0,1,1,2.45c1.29,3.56,2.26,5.3,4,4.93a4.94,4.94,0,0,0,1.85-1.07c4.62-3.67,8.45-8.51,12.15-13.2,5.08-6.44,10.34-13.09,17.8-17l.37-.19c1.21-.62,2.36-1.21,2.81-2.14a5.83,5.83,0,0,0,.23-2.72c0-8.9-.59-17.55-1.17-24.85h0c-.26-3.27-.54-6.53-.82-9.8-.48-5.66-1-11.52-1.35-17.25-.38-6-.37-12.13-.35-18.62,0-19.08.1-38.81-10.62-54.14l-.66-.93a19.81,19.81,0,0,1-3.25-5.85,22.29,22.29,0,0,1-.52-7c.1-3.31.19-6.18-1.75-8a4.48,4.48,0,0,0-5.17-.57,1.55,1.55,0,0,1-1.34.11c-.78-.3-1.66-.63-7.22-14.56-2.75-6.9-5.36-14-5.73-15.09-1-3-2-6.1-3.22-9-2.44-5.64-6.29-13.33-11.68-14.9a15.36,15.36,0,0,0-4.79-.34c-4,.13-8.13.34-12.16.62H200c-3.55.25-8,.55-10.45,2.88-1.68,1.58-1.74,3.32-1.83,5.52A11.22,11.22,0,0,1,186.22,24a9.39,9.39,0,0,1-1.77,1.9,11.38,11.38,0,0,0-.94.9c-1.18,1.32-1.58,3.2-2,5.19a23.15,23.15,0,0,1-1.12,4c-2.06,5-7.14,9.36-11.21,11.79a17.65,17.65,0,0,1-7.11,2.54,11.34,11.34,0,0,1-3.33-.45,9,9,0,0,0-2.41-.37c-2.88.86-3.7,7.88-3.33,11.39a143.59,143.59,0,0,0,3.22,18.66l0,.15.17,0,1.13-.25c2.2-.48,4.1-.89,5.22-2.62,1.83-2.8,4.92-5.46,8.11-4.59a10.46,10.46,0,0,1,3.84,2.33c.48.41,1.08.82,1.71,1.25,1.84,1.27,3.94,2.72,4.71,5a10.61,10.61,0,0,1-.19,5.81,9.26,9.26,0,0,0-.34,4.15c.33,1.3,1.47,2.5,2.68,3.77,1.68,1.77,3.59,3.77,3.28,6.48l-.15,1.3-1.31,0a10.06,10.06,0,0,1-2.79-.57l-.88-.26a11.75,11.75,0,0,0-13.67,8.92c-.61,3.87-1.29,7.7-1.88,10.93-.67,3.7-3.16,5.86-5.56,7.95a19.87,19.87,0,0,0-3.56,3.66c-1.07,1.58-.89,4.2-.72,6.73.22,3.26.47,6.94-2.29,8.69l.1,0c3.24,1,3,2.92,2.87,3.5l-.26,1-1.06,0a37.88,37.88,0,0,0-8.24,1.14,22.25,22.25,0,0,1-4.33.62,18.56,18.56,0,0,0-4,.6,8.71,8.71,0,0,0-5.69,5.68,7.69,7.69,0,0,0,1.14,7.1l.27.34c.78,1,1.75,2.25,1.42,3.75a3.58,3.58,0,0,1-1.89,2.28c-2.07,5-6.27,7.32-10.34,9.55-1.24.68-2.41,1.32-3.53,2-3.29,2.11-6.87,1.38-10,.51a4.12,4.12,0,0,1-1,2.19l-.06.08a.4.4,0,0,0,.06.3,1.19,1.19,0,0,0,.94.66,49.44,49.44,0,0,0,5-.21,41.65,41.65,0,0,1,6.79-.13c.94.08,1.91.17,2.44,1.06a2.81,2.81,0,0,1-.14,2.55c-.13.32-.24.64-.35,1-.51,1.49-1.2,3.54-4.25,4.05-1.19.2-2.33,1.3-3.59,3.47-1.09,1.87-2.11,3.83-3.11,5.72-1.46,2.79-3,5.68-4.75,8.43a25.29,25.29,0,0,1-7.31,7.92c-.3.2-.44.29-.28,1a23.87,23.87,0,0,1-.12,8,31.83,31.83,0,0,0-.39,5c.06,2.19-.91,4.33-3,6.54a3.3,3.3,0,0,1-1.65,2.27,43.4,43.4,0,0,0,.33,4.7c.63,6.29.93,10.88-.93,12.65a9.58,9.58,0,0,1-3.69,1.93L81,269.2a8.35,8.35,0,0,0-1.8,1.14l-.69,1.37c-1.3,2.5.21,5.69.92,6.94.52.92,1.12,1.8,1.76,2.73A26.29,26.29,0,0,1,84,286.26c1.26,3.09,1.25,7.28-1.58,9.67-.27.22-.56.45-.87.68-.47.35-1.44,1.08-1.49,1.4.31.23,1.67.45,7-1.12l1-.28c4.48-2.28,9.32-3.4,14-4.48l2.13-.5c2.32-.55,3.79-2.63,5.35-4.83.54-.77,1.1-1.56,1.7-2.28a14.09,14.09,0,0,1,6.87-4.46,30.67,30.67,0,0,1,6.21-.91c.68-.05,1.35-.1,2-.17a20.48,20.48,0,0,0,6.73-2.2,7.44,7.44,0,0,1,2.16-.75,3.54,3.54,0,0,1,4.14,2.75,4.41,4.41,0,0,1-2.76,5.2c-1.63.54-3,2.13-4.37,3.66A27,27,0,0,1,130,290,4.33,4.33,0,0,0,129.61,290.34Z"/></svg>