<svg id="Layer_1" data-name="Layer 1" xmlns="http://www.w3.org/2000/svg" viewBox="0 0 350 350"><defs><style>.cls-1{fill:#999;}.cls-2{fill:#f90;}</style></defs><title>M</title><path class="cls-1" d="M333.41,266.81a5.61,5.61,0,0,0-3.22-3.15c-1-.9-2-1.76-3-2.6v0a5.16,5.16,0,0,0,.11-3,28,28,0,0,1-2.7-1.41,4.08,4.08,0,0,1,.13,1.61,17.57,17.57,0,0,1-3-1.52c-1.71-1.37-3.37-2.78-4.93-4.29a5.28,5.28,0,0,0-1.61-4.13l-.71,1.69a27.88,27.88,0,0,1-3.75-5.42c-2.79-5.35-2.48-15.17-8-18.83-3.1-2.06-5.62-.27-5.72-5-.18-8.15,5.6-16.13,14.19-14.5,6.09,1.16,11.52-1.13,13-7.67a1.77,1.77,0,0,0-1.22-2.15c-3.5-.63-10.31-3.39-7.07-8,1.58-2.26,5.09-1.94,6.85-4.12,3-3.7.7-8.38-1.43-11.79a1.8,1.8,0,0,0-2.39-.63,32.91,32.91,0,0,1-12.34,2.91,5.79,5.79,0,0,0-.76-1.47,1.78,1.78,0,0,0-2-.8,8.83,8.83,0,0,1-2.8.72c-.28,0-1.64-.16-1.66-.11a1.77,1.77,0,0,0-.21-1.87l.38-2.91a1.46,1.46,0,0,0-.22-1c.13-6.85-1.05-13.9-7-18.21a19.23,19.23,0,0,0-4.67-2.16c-2.48-1-2.85-2.15-3.46-4.87l-3.91-17.49a1.76,1.76,0,0,0-3.19-.42c-2.36,4.08-6,8.06-10.7,9.5-7.27,2.24-10.84-4.81-14.65-9.56-2.19-2.73-3.78-3.84-3.45-7.69.17-2.05.85-4.22,1.12-6.28A61.15,61.15,0,0,0,249.95,98c-.38-5.53-.42-11.64-6.24-13.84-4.59-1.74-9.27-3.09-10.86-8.43-1.52-5.08.59-10.79,2.26-15.55a1.7,1.7,0,0,0-.45-1.7c-4.42-3.62-9.09-7.08-13.3-10.93-8-7.29-1.22-12.87,5.7-16.83s1.73-10.92-2.86-15a1.87,1.87,0,0,0-2.11-.29,13.66,13.66,0,0,0-2.8-1.75c1.11,2.84.42,6.61-2.5,6.91a6.43,6.43,0,0,1-3-.68l-11.47-4.63C194.12,12,184.5,9,176.24,13.6c-6.22,3.47-9.43,11.14-16.77,12.92-2.81.68-4-.45-4.41-2.27A3.49,3.49,0,0,1,154,22c0-.16,0-.33,0-.5a6.43,6.43,0,0,1-.55-.8l-.37,0a11.83,11.83,0,0,1-4.36-1.3c-2.46-1-.73-.53-3-.88a13.65,13.65,0,0,0-1.87-.14,7.79,7.79,0,0,0-.66.5.59.59,0,0,0-.09.71,3.69,3.69,0,0,1,.47,1.84c.68,1.94.17,3.86-1.61,6.26-1.35,1.82-3.47.45-3.19,4.58,0,.41,1.05.74,1.08,1.34.08,1.54.38,1.83-.76,3.09a1.74,1.74,0,0,1-1.7.45c-1.22-.33-3.48-2-2.36-3.51a1.76,1.76,0,0,1-3.25-.88c0-.18,0-.36,0-.54h-.09c-.24-.16-.48-1.38-.56-1.63-.88-2.94-.58-5.94-1-8.93A7.36,7.36,0,0,0,129,19a51.46,51.46,0,0,1-5.19-.17,16.57,16.57,0,0,1-6-1.8,6.37,6.37,0,0,0-1.67,1.71,11.16,11.16,0,0,0-.49,3.43,6.63,6.63,0,0,1-1.88,4.71c-.11.55-.22,1.08-.36,1.6a10.74,10.74,0,0,0-1.24-.34,7.2,7.2,0,0,1-4.56.9,2.19,2.19,0,0,1-.68.51A18.63,18.63,0,0,1,105,31c-5.3,3.22-12.22,3.39-17.88,6.13a4.1,4.1,0,0,0-2.13,1.76A4.2,4.2,0,0,0,85,41.6C88.6,56,94.61,70.11,95,85a16.7,16.7,0,0,1-.71,6.07,10.1,10.1,0,0,1-12.45,5.85c-2,4,1,9.28-1.18,13.16-4.94,8.63-17.57,1.54-24.47,3a27.76,27.76,0,0,0-4.54,1.76c-6.2,2.54-13.2,1.8-19.86,1-3,2.86-9.14,11.34-13.06,12.37a5,5,0,0,1-2.27.08,10.23,10.23,0,0,0,3.25,2.92,1.64,1.64,0,0,0,1.08.24c-.24.2-.46.43-.72.61a15,15,0,0,0,1.69,2.46,27.66,27.66,0,0,0,3.65,3.36.53.53,0,0,1,.46.09,7.68,7.68,0,0,1,6.64,3.4c.66,1,1.43,1.57,2.66,1.2h0c.41-.94.28-2.13,1.29-2.79.16-.43.2-.83.8-1.06,3-1.16,6-2.13,9.09-3.07a8,8,0,0,0,2.79-.72,9,9,0,0,1,3,.38c2.39.78,3,2.72,3.6,4.8-.35-.14-.71-.27-1.06-.41.94,4.38,3,8.2,5.43,11.93,2.37,2.5,3.22,5.84,4.78,8.78,3.24,3.86,3.22,8.77,3.75,13.31.36,3.08.61,5.23,3.86,6.41A10.49,10.49,0,0,0,83.66,184l.19-.06a154.73,154.73,0,0,1,15.39,2c2,.31,4.42.33,5.51-2.3.43-1,.85-.07,1.28.12,2.7,1.21,4.58,4,7.89,4.06,4.38-.3,7.1,2.92,10.37,4.95,1.33.82.47,1.63-.12,2.42-2.17,2.94-1.87,4.38,1.46,5.81a26.25,26.25,0,0,1,5.84,3.36,7.81,7.81,0,0,0,7.23,1.49c2.24-1,3.54-.73,2.9,2.18a4.66,4.66,0,0,0,.14,1.41,2.3,2.3,0,0,1,1.57,1.54,8.38,8.38,0,0,0,1.18,4.45,6.09,6.09,0,0,0,4.51,2.85c.22,1.42.42,3,2.12,3.57l1.08-.73a3.92,3.92,0,0,1,1.15-2.83l.09-.1a4.42,4.42,0,0,1,.24-1.75,6.28,6.28,0,0,0,.72-1,1.37,1.37,0,0,1,.24-.13c2.23-.88,3.2-2.19,3-4.64,0-.58.84-.8,1.9-.72l-.34-.39a4.05,4.05,0,0,1,1,.1c1.8.45,3,2.57,3.77,4.09a3.7,3.7,0,0,1,.12,4c-1,.14-2,.33-2.25,1.69-.27,1.66-.72,3.62,1.71,4.36.55.17.39.81.38,1.29-.06,2.37,1.27,3.41,3.48,3.36a2.47,2.47,0,0,1,2.56,1.58c1.34,3.3,4.14,4.79,7.2,6a3.52,3.52,0,0,1,1.62.57c4.06,2.41,8.09,3.52,12-.41.39-.4,1.17-.78,1.52-.14,1.44,2.65,4.29,4.49,4.81,7.6.39,2.35.55,4.67,2.4,6.36.11.55.25,1.09.41,1.62a5.77,5.77,0,0,0,.28.72c-1.07,2.31-1.31,4.94-2.51,7.19q-.14.23-.25.47a8,8,0,0,1-.65.93c-.24,1-.5,2.06-.72,3.1-.43,2.1.39,3.33,2.55,3.68a8.66,8.66,0,0,1,1.07.24,5.3,5.3,0,0,0,1.18.45,11.27,11.27,0,0,1,4.53,4.29l2.59,2.93c.67.42,1.37.71.64,1.78-1.57,2.31.12,3.14,1.94,3.72,1.05.34,2.48-.08,2.77,1.57,1.41.56,2.94,1,3,2.94l.34,1.25a1,1,0,0,1,.25.5c2,1.37,4,2.65,4.08,5.62,0,1.27.17,2-1.09,2.42a2,2,0,0,0-.83.82c-1,1.46.82,8.84,2.36,9.74,1.77,1,3.48,2.11,4.43,4.07.71,1.46,1.79,1.74,3.07.57.22-.2.47-.36.7-.54a4.53,4.53,0,0,1,4.77-.55c1.4.66.7,2.55.49,3.74-.41,2.37-.88,4.83-2.67,6.7l-.26,1.16c.26,1.7.52,3.38,2.78,1.6,1.6-1.26,3.14.42,3.24,1,.55,3.18,3.38,4.32,5.15,6.36a5.68,5.68,0,0,0,.54,1.91,7.7,7.7,0,0,0,2.16,2.25,6,6,0,0,1-.3.8c-.83,1.81.14,3.13,1.95,3.49,2.6.52,9.6-3.18,10.65-5.67a9.19,9.19,0,0,1,2.64-3.1c2-1.9,3-4.36,6.24-5.43,1.94-.64,4.13-3.11,5.14-5.72a2.9,2.9,0,0,1,2.73-1.79,7.42,7.42,0,0,0,6-3.61,19.2,19.2,0,0,1,5.55-5.93,9.19,9.19,0,0,0,4.16-6.17,4.77,4.77,0,0,1,2-3.2c3.45-2.34,4.25-6.26,5.11-9.72s2.77-6.41,3.56-9.83c.24-1.06.77-2.52,2.41-2.61.35-.9,1.17-.4,1.75-.61,1.72-.61,4,1.8,5.4-1.17.23-.51,1.79.19,2.72.48,3,.93,6,1.69,9.13.51l0,0a12.57,12.57,0,0,0,.62-3.38c0-1.11-.75-3,2-1.93,1.56.61,1.88-1.43,2.38-2.66a8.69,8.69,0,0,1,2.74,2.71C332.12,269.59,334.15,268.71,333.41,266.81Z"/><path class="cls-2" d="M247.93,340.18a4,4,0,0,1-.77-.07,4.16,4.16,0,0,1-3-2.07,3.78,3.78,0,0,1-.05-3.15,8.88,8.88,0,0,1-1.67-2,5.82,5.82,0,0,1-.66-2,18.7,18.7,0,0,0-1.44-1.29c-1.53-1.28-3.26-2.73-3.76-5.35a1.15,1.15,0,0,0-.58-.43c-.06,0-.18,0-.41.14-.46.36-1.86,1.46-3.25.91s-1.62-2.13-1.81-3.41l0-.26.41-1.8.27-.28c1.43-1.5,1.87-3.5,2.3-6,0-.21.08-.43.14-.67a4.26,4.26,0,0,0,.17-1.56,3.16,3.16,0,0,0-3.29.39l-.33.25a3.54,3.54,0,0,0-.3.23,3.37,3.37,0,0,1-3,1,3.34,3.34,0,0,1-2.34-2c-.75-1.56-2.14-2.46-3.87-3.47-1.51-.89-2.43-4-2.85-5.82-.46-2-.83-4.65,0-5.93a3.26,3.26,0,0,1,1.52-1.36l.18-.08c0-.16,0-.46,0-.69v-.27c-.08-2.13-1.29-3-3.42-4.48l-.49-.33-.12-.49-.17-.18-.48-1.94c0-.72-.25-.93-1.72-1.5l-1.08-.43-.14-.78a.58.58,0,0,0-.05-.18h0l-.59-.06a5.93,5.93,0,0,1-1.17-.22c-.92-.3-2.83-.92-3.39-2.55a3.54,3.54,0,0,1,.55-3.07l-.23-.14-2.85-3.25a9.89,9.89,0,0,0-3.83-3.73,6.74,6.74,0,0,1-1.21-.46,7.23,7.23,0,0,0-.77-.17,4.11,4.11,0,0,1-3.72-5.36c.15-.73.32-1.46.5-2.19l.3-1.27.21-.26a6.44,6.44,0,0,0,.5-.71c.09-.18.18-.35.28-.52a18,18,0,0,0,1.23-3.5,27.59,27.59,0,0,1,1-3l-.1-.29c-.13-.42-.24-.85-.35-1.31-1.72-1.79-2.07-4.06-2.38-6.07l-.12-.77a9.13,9.13,0,0,0-2.44-4.13,23.13,23.13,0,0,1-1.78-2.29c-4.81,4.58-9.94,2.4-13.41.34a2.16,2.16,0,0,0-1-.37h-.22l-.21-.08c-3.24-1.26-6.45-3-8-6.77a1.08,1.08,0,0,0-1.22-.7,4.85,4.85,0,0,1-3.7-1.26,4.66,4.66,0,0,1-1.22-3.55s0-.09,0-.13c-2.82-1.24-2.35-4.07-2.11-5.48l0-.24a3.19,3.19,0,0,1,2.68-2.74,2.47,2.47,0,0,0-.4-2.1,10,10,0,0,0-2.09-3l-1.16-.08h-.36c0,2.48-1.21,4.14-3.7,5.19q-.21.3-.44.57a3.27,3.27,0,0,0-.09,1l0,.59-.64.68c-.43.35-.52.91-.64,1.88l-.08.64-.54.4-1.68,1.13-.68-.25a4.48,4.48,0,0,1-2.87-3.7,7.49,7.49,0,0,1-4.5-3.33,9.74,9.74,0,0,1-1.38-4.88.8.8,0,0,0-.56-.47l-.89-.27-.1-.93c0-.11,0-.23-.06-.34a3.64,3.64,0,0,1-.05-1.53,4.75,4.75,0,0,0,.13-.94,5.43,5.43,0,0,0-1.08.37l-.17.06a9.23,9.23,0,0,1-8.49-1.73,24.66,24.66,0,0,0-5.54-3.17c-1.43-.61-3.13-1.53-3.58-3.22s.58-3.43,1.55-4.73l.22-.29.14-.18c-.82-.52-1.6-1.1-2.35-1.65-2.29-1.7-4.28-3.17-7-3h-.11c-2.55,0-4.37-1.39-6-2.58a14.47,14.47,0,0,0-2.35-1.54c-1.87,2.94-5.34,2.41-6.55,2.22l-3.45-.55A112.2,112.2,0,0,0,84,185.39h0a11.87,11.87,0,0,1-9.71-1.6,12,12,0,0,1-2.67-2.45c-3.7-1.52-4-4.39-4.39-7.42-.08-.68-.15-1.37-.21-2.06-.38-3.88-.73-7.55-3.21-10.5l-.17-.25c-.52-1-1-2-1.39-3a18.11,18.11,0,0,0-3.16-5.48l-.17-.21A37.72,37.72,0,0,1,53.32,140l-.57-2.66.27.11a3.05,3.05,0,0,0-1.3-.78,7.24,7.24,0,0,0-2.26-.32h0a9.36,9.36,0,0,1-2.82.7c-2.83.87-5.83,1.82-8.73,2.95v0l-.24.67-.4.26c-.18.12-.26.34-.41,1a7.52,7.52,0,0,1-.3,1l-.06.68-.92.28c-1.67.5-3.1-.09-4.24-1.75a6.29,6.29,0,0,0-5.49-2.78l-.5,0-.22.05-.51-.35a20.72,20.72,0,0,1-3.06-2.73l-.78-.79a9.61,9.61,0,0,1-1.43-2c-.15-.24-.29-.49-.45-.72l-.56-.84a11.26,11.26,0,0,1-3-2.92l-2-2.91,3.45.72a3.56,3.56,0,0,0,1.63-.07c2.34-.61,6.2-5,9-8.27,1.34-1.54,2.49-2.86,3.43-3.75l.48-.46.66.08c6.16.72,13.14,1.54,19.15-.92.42-.17.84-.36,1.26-.55a17.47,17.47,0,0,1,3.52-1.29c2.65-.57,5.83,0,9.18.51,6,1,11.62,1.93,14.36-2.86.91-1.59.7-3.65.47-5.83-.25-2.43-.5-4.94.67-7.27l.57-1.12,1.18.43a8.69,8.69,0,0,0,10.64-5A15.44,15.44,0,0,0,93.55,85c-.25-10.22-3.29-20.31-6.24-30.07-1.28-4.24-2.61-8.63-3.69-13a5.52,5.52,0,0,1,0-3.64,5.45,5.45,0,0,1,2.8-2.45A44.05,44.05,0,0,1,95,33.08c3.37-.85,6.55-1.65,9.26-3.3a17.3,17.3,0,0,0,1.9-1.34l.2-.14a1.57,1.57,0,0,0,.28-.18l.5-.67.78.17a5.78,5.78,0,0,0,3.66-.72l.47-.27.42.09,0-.12.08-.41.29-.3a5.22,5.22,0,0,0,1.49-3.71,12.62,12.62,0,0,1,.55-3.86l.06-.2.12-.17a7.82,7.82,0,0,1,2-2.09l.68-.47.75.36A15.3,15.3,0,0,0,124,17.41a49.81,49.81,0,0,0,5,.16h.82l.42.7a8.78,8.78,0,0,1,1.14,3.2c.19,1.23.25,2.46.31,3.64a21.38,21.38,0,0,0,.67,5.1c0,.07.05.19.09.35l.07.27H133l.1,1.92c0,.25.09.28.14.29a.55.55,0,0,0,.57-.22h0l2.25,1.72h0c0,.32.94,1.1,1.6,1.28a.39.39,0,0,0,.28,0c.51-.57.51-.57.45-1.28,0-.14,0-.29,0-.46l-.1-.08a2.19,2.19,0,0,1-1-1.55c-.23-3.4,1-4.24,2.48-4.86a2.1,2.1,0,0,0,1-.66c1.88-2.54,1.77-3.93,1.41-5l-.1-.27,0-.29a2.49,2.49,0,0,0-.33-1.13,2,2,0,0,1,.43-2.39,9.25,9.25,0,0,1,.78-.6l.38-.27h.46a14.94,14.94,0,0,1,2.07.16c.61.09.91.12,1.08.14a2.32,2.32,0,0,1,1,.27c.19.09.53.25,1.27.55l.71.3a8.37,8.37,0,0,0,3.13.9l1.13-.08.44.76a5,5,0,0,0,.42.63l.28.35,0,.45c0,.15,0,.26,0,.38a2.18,2.18,0,0,0,.59,1.36l.36.3.11.45c.25,1,.6,1.73,2.7,1.23,3.86-.94,6.51-3.73,9.32-6.69a30.85,30.85,0,0,1,7.09-6.09c8.62-4.81,18.64-1.89,27.3,1.6l11.47,4.63a5.55,5.55,0,0,0,2.32.58,1.56,1.56,0,0,0,1.25-.81,5.06,5.06,0,0,0,.08-4.17l-1.33-3.39,3.27,1.59a16.26,16.26,0,0,1,2.45,1.44,3.36,3.36,0,0,1,2.79.81c2.71,2.4,7.18,7.12,6.71,11.72-.24,2.28-1.61,4.16-4.08,5.57-5.47,3.13-8.27,5.94-8.56,8.61-.21,1.86.84,3.86,3.11,5.95,2.8,2.56,5.87,5,8.84,7.35,1.48,1.17,3,2.34,4.4,3.53a3.12,3.12,0,0,1,.89,3.26l-.15.42c-1.61,4.58-3.44,9.76-2.1,14.25,1.27,4.26,4.84,5.59,9,7.12l1,.39c6.32,2.39,6.73,8.6,7.09,14.08l.07,1a62.8,62.8,0,0,1-.38,12.43c-.13,1-.34,2-.54,2.92a27.19,27.19,0,0,0-.57,3.3c-.23,2.67.57,3.61,2.16,5.5.31.37.64.76,1,1.19.6.75,1.2,1.55,1.8,2.37,3.16,4.28,6.15,8.32,11.32,6.72s8.37-6.22,9.89-8.85a3.16,3.16,0,0,1,3.26-1.5,3,3,0,0,1,2.54,2.32l3.91,17.49c.59,2.62.83,3.14,2.61,3.87.42.17.83.32,1.22.47a14.21,14.21,0,0,1,3.75,1.86c6.85,5,7.62,13.16,7.54,19a3,3,0,0,1,.2,1.56l-.31,2.43a3.2,3.2,0,0,1,.28.87h.07a7.38,7.38,0,0,0,2.3-.62,3.16,3.16,0,0,1,3.66,1.29,6.77,6.77,0,0,1,.51.83,31.68,31.68,0,0,0,10.85-2.74,3.23,3.23,0,0,1,4.17,1.17c1.45,2.33,5.3,8.53,1.32,13.43a8.55,8.55,0,0,1-4,2.43,5.54,5.54,0,0,0-2.78,1.61,2.15,2.15,0,0,0-.46,2.21c.68,1.65,3.9,3.14,6.62,3.63a2.84,2.84,0,0,1,1.87,1.25,3.43,3.43,0,0,1,.48,2.6c-1.54,6.82-7.14,10.17-14.64,8.75a9.25,9.25,0,0,0-8,2,14.23,14.23,0,0,0-4.56,11c0,2,.27,2.06,1.75,2.44a10.07,10.07,0,0,1,3.34,1.37c4,2.64,5.24,7.93,6.35,12.6a31.13,31.13,0,0,0,2.12,6.76,24.6,24.6,0,0,0,2.11,3.34l.58-1.38,1.48,1.39a6.48,6.48,0,0,1,2,4.53c1.21,1.14,2.57,2.32,4.35,3.75l.3.18-.61-2.14,3.05,1.82a26.89,26.89,0,0,0,2.56,1.34l.63.29.16.68a6.7,6.7,0,0,1,.1,2.84c.76.65,1.47,1.27,2.13,1.88a7.06,7.06,0,0,1,3.78,3.86h0a3.09,3.09,0,0,1-.15,2.77c-.88,1.52-2.94,2-4.09,2.21l-.86.13-.5-.71a12.86,12.86,0,0,0-.95-1.2,3.14,3.14,0,0,1-1.48,1.63,2.56,2.56,0,0,1-2.06,0l-.07,0c0,.21,0,.41,0,.59a10.4,10.4,0,0,1-.48,3.06c-.06.23-.12.46-.18.7l-.11.44-.53.46-.28.12c-3.52,1.34-6.9.49-10.05-.48l-.69-.23-.75-.25c-1.39,2.1-3.44,1.6-4.6,1.31a3.12,3.12,0,0,0-1.2-.16,2.82,2.82,0,0,1-1,.14l-.2.48-.91.07c-.29,0-.76,0-1.1,1.51a31.12,31.12,0,0,1-1.88,5.26,30.54,30.54,0,0,0-1.68,4.59l-.14.57c-.86,3.5-1.84,7.46-5.55,10a3.37,3.37,0,0,0-1.36,2.27,10.54,10.54,0,0,1-4.76,7.11,17.83,17.83,0,0,0-5.14,5.5,8.81,8.81,0,0,1-7.05,4.28c-1.24.11-1.44.64-1.54.89-1.18,3-3.71,5.78-6,6.55a8.49,8.49,0,0,0-4,3.18A21.32,21.32,0,0,1,261.7,331l-.62.57a5.82,5.82,0,0,0-1.69,2.05C258.18,336.46,251.5,340.18,247.93,340.18Zm-12-19.18a3.28,3.28,0,0,1,1.18.22,3.71,3.71,0,0,1,2.26,2.44c.29,1.68,1.46,2.66,2.81,3.79a17.44,17.44,0,0,1,2,1.88l.27.31.06.4a5.52,5.52,0,0,0,.35,1.4,6.3,6.3,0,0,0,1.76,1.83l.83.58-.29,1a7.3,7.3,0,0,1-.37,1,1.17,1.17,0,0,0-.11.93,1.5,1.5,0,0,0,1,.58c2,.39,8.29-3,9.07-4.84a8.34,8.34,0,0,1,2.41-3.05l.57-.52a19,19,0,0,0,1.51-1.68,11.17,11.17,0,0,1,5.27-4.06c1.34-.44,3.3-2.39,4.27-4.89a4.25,4.25,0,0,1,3.92-2.69,6,6,0,0,0,4.9-2.94,20.63,20.63,0,0,1,6-6.36,7.72,7.72,0,0,0,3.55-5.24,6.17,6.17,0,0,1,2.56-4.13c2.81-1.91,3.61-5.17,4.39-8.31l.14-.58a33,33,0,0,1,1.83-5,28.53,28.53,0,0,0,1.72-4.78c.55-2.39,1.79-3.3,2.95-3.59a2.51,2.51,0,0,1,2-.68h.17a4.91,4.91,0,0,1,2.75.1c1.27.31,1.39.31,1.77-.5.73-1.58,2.6-.92,3.84-.48l.58.2c2.57.8,5.09,1.44,7.56.75v0a7.8,7.8,0,0,0,.38-2.25c0-.14,0-.3,0-.46a2.86,2.86,0,0,1,.76-2.79,3.13,3.13,0,0,1,3-.09,8.31,8.31,0,0,0,.41-1c.1-.28.19-.55.29-.79l.62-1.5,1.4.81a8.93,8.93,0,0,1,2.63,2.37,2.27,2.27,0,0,0,1.24-.66c0-.06,0-.16,0-.32h0a4.2,4.2,0,0,0-2.35-2.32l-.29-.1-.22-.21c-.88-.82-1.83-1.65-2.91-2.54l-.72-.6.3-1a3.5,3.5,0,0,0,.19-1.37l-.12,1-1.7-.65a19,19,0,0,1-3.21-1.63l-.15-.1c-2.09-1.68-3.64-3-5-4.37l-.43-.42v-.6a6.88,6.88,0,0,0,0-.82l-.43,1-1.49-1.72a29.21,29.21,0,0,1-3.94-5.69,33,33,0,0,1-2.36-7.41c-1-4.36-2.12-8.87-5.16-10.89a7.46,7.46,0,0,0-2.47-1c-2.07-.53-3.8-1.28-3.88-5.12a17.12,17.12,0,0,1,5.56-13.26,12,12,0,0,1,10.31-2.67c5.92,1.13,10.16-1.34,11.35-6.59a.56.56,0,0,0-.11-.45c-2.6-.46-7.39-2.12-8.72-5.32a4.94,4.94,0,0,1,.76-4.91,7.87,7.87,0,0,1,4.13-2.65,6.26,6.26,0,0,0,2.79-1.55c1.87-2.31,1.4-5.44-1.53-10.15-.05-.08-.17-.27-.6-.08a34.42,34.42,0,0,1-12.87,3l-1,0-.35-1a4.34,4.34,0,0,0-.57-1.12.92.92,0,0,0-.35-.29,9.93,9.93,0,0,1-3.18.8,8.2,8.2,0,0,1-1.11-.07l-.58-.05,0-1.37-1.38-.63h0a.36.36,0,0,0-.05-.42l-.35-.46.45-3.49-.26-.37,0-.51c.16-8.33-1.86-13.74-6.38-17a11.61,11.61,0,0,0-3.06-1.49c-.42-.16-.86-.32-1.31-.5-3.14-1.28-3.66-3-4.31-5.87l-3.91-17.49s0-.11-.21-.14a.39.39,0,0,0-.37.12c-1.73,3-5.53,8.3-11.51,10.14-7.11,2.19-11.17-3.32-14.44-7.74-.58-.79-1.15-1.56-1.73-2.28-.33-.41-.64-.78-.94-1.13-1.76-2.08-3.15-3.72-2.82-7.56a29.55,29.55,0,0,1,.63-3.66c.2-.94.39-1.83.5-2.69a60,60,0,0,0,.36-11.87l-.07-1c-.33-5.07-.64-9.87-5.26-11.61l-1-.38c-4.43-1.65-9-3.35-10.7-9-1.61-5.38.47-11.27,2.14-16l.15-.42a.62.62,0,0,0-.06-.18c-1.39-1.13-2.85-2.29-4.32-3.45-3-2.38-6.12-4.85-9-7.48s-4.33-5.54-4-8.35c.54-4.83,5.95-8.45,10-10.76,1.66-.95,2.53-2.06,2.67-3.4.25-2.4-1.91-5.88-5.77-9.31a.54.54,0,0,0-.45-.13l-.86.51-.74-.62a6.7,6.7,0,0,1-.89,3.3A4.41,4.41,0,0,1,216.93,22a7.58,7.58,0,0,1-3.67-.77l-11.47-4.63c-8.44-3.4-17.29-6-24.86-1.75a28.31,28.31,0,0,0-6.42,5.56c-3,3.13-6,6.36-10.71,7.49-4,1-5.47-1.22-6-2.89a5.08,5.08,0,0,1-1.23-2.78v-.09a11.61,11.61,0,0,1-3.77-1.1l-.68-.28c-.82-.34-1.2-.51-1.41-.61h0c-.28,0-.62-.06-1.25-.16-.24,0-.5-.07-.77-.09a4.59,4.59,0,0,1,.25,1.37c.93,3-.63,5.62-1.89,7.32a4.76,4.76,0,0,1-2.14,1.57c-.62.27-.85.37-.8,1.63a2.49,2.49,0,0,1,1.11,1.8c0,.26,0,.47.05.67a3.71,3.71,0,0,1-1.18,3.45,3.14,3.14,0,0,1-3.12.87,5.84,5.84,0,0,1-3.37-2.67,3.24,3.24,0,0,1-1.18-.15,3,3,0,0,1-2.11-2.87,6,6,0,0,1-.56-1.64l-.05-.21a23.88,23.88,0,0,1-.79-5.76c-.06-1.16-.12-2.26-.29-3.36a6.09,6.09,0,0,0-.42-1.48h0c-1.65,0-3.07-.06-4.43-.18a17,17,0,0,1-5.65-1.55,5.06,5.06,0,0,0-.58.67,9.87,9.87,0,0,0-.37,2.79,8.07,8.07,0,0,1-2,5.38c-.09.44-.19.88-.3,1.3l-.39,1.47L113,29.81l-.59-.18a8.64,8.64,0,0,1-4.28.86l-.34.22a20.2,20.2,0,0,1-2.12,1.49c-3.07,1.87-6.61,2.76-10,3.62a41.29,41.29,0,0,0-8,2.57,3.1,3.1,0,0,0-1.45,1.07,3.22,3.22,0,0,0,.13,1.79c1.07,4.3,2.39,8.66,3.66,12.87,3,9.94,6.1,20.22,6.36,30.82a17.93,17.93,0,0,1-.79,6.59,11.15,11.15,0,0,1-5.81,6.18,11.39,11.39,0,0,1-7.1.91,14.51,14.51,0,0,0,0,4.63c.26,2.53.53,5.15-.83,7.53-3.72,6.5-11.24,5.25-17.28,4.25-3.09-.51-6-1-8.12-.54a15.14,15.14,0,0,0-3,1.1c-.45.2-.9.4-1.35.59-6.46,2.64-13.83,1.9-19.88,1.19-.78.8-1.76,1.92-2.78,3.1-3.23,3.71-6.86,7.88-9.95,9,.27.2.56.39.87.57a.26.26,0,0,0,.16.05l4.78-.65-3.46,3a6.08,6.08,0,0,0,.84,1.16l.82.83a20.93,20.93,0,0,0,2.31,2.14,1.91,1.91,0,0,1,.33.09,9,9,0,0,1,7.46,4,2.73,2.73,0,0,0,.46.54,4.12,4.12,0,0,1,1.14-2.2,2.44,2.44,0,0,1,1.49-1.53c3.07-1.2,6.22-2.19,9.18-3.1l.31-.06a6.52,6.52,0,0,0,2.3-.59l.26-.12h.29a10.33,10.33,0,0,1,3.51.45c3.16,1,4,3.76,4.53,5.75l.8,2.75-1.1-.43a40.64,40.64,0,0,0,4.44,8.71,20.87,20.87,0,0,1,3.61,6.2c.4.93.79,1.82,1.23,2.67,3,3.6,3.38,8,3.76,11.93.07.68.13,1.35.21,2,.38,3.24.62,4.4,2.93,5.24l.4.15.25.34a9.14,9.14,0,0,0,2.24,2.12,9,9,0,0,0,7.4,1.22l.38-.12h.26A111.82,111.82,0,0,1,96,184.06l3.42.54c2.36.36,3.4,0,4-1.44a2,2,0,0,1,1.4-1.31,2,2,0,0,1,1.81.67l.06.06a16.42,16.42,0,0,1,2.92,1.87c1.42,1.06,2.65,2,4.25,2,3.77-.23,6.46,1.77,8.85,3.54.79.58,1.53,1.14,2.31,1.62a2.65,2.65,0,0,1,1.34,1.77,3.13,3.13,0,0,1-.89,2.47l-.18.23c-1.13,1.54-1.14,2.13-1.09,2.31s.33.66,2,1.36a27.41,27.41,0,0,1,6.16,3.54,6.42,6.42,0,0,0,5.88,1.27c1.18-.51,2.83-1,4,0s.89,3.18.74,3.86c0,0,0,.06,0,.12a3.77,3.77,0,0,1,1.63,2l.1.25v.27a6.94,6.94,0,0,0,1,3.7,4.66,4.66,0,0,0,3.45,2.16l1.07.12.17,1.07a5.13,5.13,0,0,0,.53,2,4.66,4.66,0,0,1,1.1-2.42,5.47,5.47,0,0,1,.33-1.66l.1-.25.18-.2a4.85,4.85,0,0,0,.56-.74l.17-.27.27-.17a2.77,2.77,0,0,1,.49-.26c1.75-.69,2.26-1.47,2.11-3.21a1.87,1.87,0,0,1,.54-1.49l.15-.14-.93-1h3.21a5.44,5.44,0,0,1,1.32.14c2.45.61,3.85,3.23,4.69,4.8a5.1,5.1,0,0,1,.11,5.38l-.34.64-.72.09c-1,.13-1,.2-1,.51l0,.25c-.32,1.9-.22,2.23.77,2.53s1.49,1.15,1.39,2.49v.19a2,2,0,0,0,.4,1.48,2.32,2.32,0,0,0,1.63.43,3.89,3.89,0,0,1,3.91,2.46c1.07,2.62,3.17,3.92,6.22,5.12a5.1,5.1,0,0,1,2,.74c4.56,2.71,7.43,2.66,10.23-.18a2.81,2.81,0,0,1,2.27-.88,2,2,0,0,1,1.5,1.07,16,16,0,0,0,1.89,2.56,11.56,11.56,0,0,1,3.07,5.49l.13.8c.3,1.92.56,3.58,1.83,4.75l.34.31.09.45c.11.55.24,1,.38,1.49a4.61,4.61,0,0,0,.21.54l.27.59-.27.59a20.81,20.81,0,0,0-1.05,3.13,20.22,20.22,0,0,1-1.49,4.13c-.1.18-.17.3-.23.42l-.07.13c-.18.3-.36.57-.55.82l-.16.65c-.17.7-.33,1.39-.48,2.09a1.37,1.37,0,0,0,1.39,2,10,10,0,0,1,1.25.28l.27.11a3.89,3.89,0,0,0,.87.33l.25.09a12.53,12.53,0,0,1,5.06,4.71l2.38,2.69a2.61,2.61,0,0,1,1.4,1.65,2.55,2.55,0,0,1-.51,2c-.39.58-.37.82-.37.82s.26.33,1.58.76a3.77,3.77,0,0,0,.63.1,3.18,3.18,0,0,1,2.87,1.74c1.34.53,3.11,1.39,3.22,3.81l.22.82.12.21c2.06,1.39,4.2,3,4.33,6.49v.25c0,1.15.12,2.72-1.93,3.52a2.72,2.72,0,0,0-.23.31c-.44,1.14,1,6.91,1.94,7.76a11.28,11.28,0,0,1,4.94,4.65,1.36,1.36,0,0,0,.35.5,2.77,2.77,0,0,0,.5-.36,6.28,6.28,0,0,1,.54-.43l.23-.17a5.93,5.93,0,0,1,6.25-.73c2.2,1,1.66,3.52,1.4,4.72,0,.19-.08.38-.11.55-.38,2.21-.86,4.94-2.76,7.13l-.12.53c0,.22.08.47.13.68l.34-.25A3.35,3.35,0,0,1,235.89,321Zm.64,3.14h0Zm-16.07-27.31Zm-5-9v0ZM304.83,274h0Zm.1,0ZM140.33,206.55Zm-33.72-24h0Zm26.12-151.1Z"/></svg>