<svg id="Layer_1" data-name="Layer 1" xmlns="http://www.w3.org/2000/svg" viewBox="0 0 350 350"><defs><style>.cls-1{fill:#999;}.cls-2{fill:#f90;}</style></defs><title>M</title><path class="cls-1" d="M313.78,192.33l-5.12-6.72s1.6-5.2,1.52-6.16c-2.8-1.2-6,1.12-7.92,1.6S300.9,183,300.9,183l-9.44-.56v-6.08H277.77l3.36-3s-3.76-.32-4.4-.4-1.28,0-1.12-1.6c-1.76-.24-2.8-.32-2.8-3.44-.8,2.72-1.92,4.08-4.24,2.24a10.27,10.27,0,0,0-4-3c-1.2-.32-4.4,3.84-6,4.88s-2.56.32-4.88.24-3.76-2.16-1.2-4.16,8.48-6.08,9.6-7.44,3-3.52,2.88-5.2-5.6-2.8-5.6-2.8l-.08-7.36s-5.6,2.8-7.6,2.8-7.28.72-8,.56-1.12-1-2.16-1.6c7-5.44,15.93-14.65,18.89-16.41s5.6-5.68,6-6.08,3-2.4,3.44-3.44,2.32-1.44,4.64-1.2a9.08,9.08,0,0,0,3.28-.07l-3.12-13.22.08-3.36-3-1.2s-2,.32,1.2-2c3.36-2.56,4.16-3.28,4.16-3.28l-13.29-4s-.8-1.84,0-5.68S273.6,56.59,275.12,54s19.13-39.14,19.37-39.78,3.59-7.84,3.59-7.85l-2.71,5.28s-6.8-2.8-9.6-2.64-7.2,1.28-8.8,1.28S273.76,11.6,272.4,9c0,5.12-.08,6.48-.08,6.88s10-.08,10.89.88c.08.56-1.28,1.84-2.08,2.24s-9,1.44-10.65,1-2.64,3.2-8.32,2a50.41,50.41,0,0,1-5.44-1.28l.08-12.09H246.71l-.4,4.16-3.84-.24-2.4,4.08s1,2.64-1.76,3.12a13.13,13.13,0,0,0-4,.4c-.4,0-7.84,12-7.84,12L242,40.34V55.22s-1.12,1.12-1.36,1.12-12.65-3-12.65-3L222.3,65.31s-5,3.36-5,7.36,1,8.64,2.88,8.48a15.39,15.39,0,0,1,3.6.16s-1.12,5.6,0,7c.72,1.12,1.76.8.08,1.52s-2.56,3.36-3,4.48A8.16,8.16,0,0,1,218.94,97c-.24.08-1.52-.72-2.16,1.6-1.28.32-6.16-.64-5.36,4-1.28-.48-4-1.44-5.12.88-2.24-1.36-6-4-7.52-4.32-2.4,1.36-8.72,3.68-10.08,7.76s-3.44,10.4-2.4,11.29c2.56.48,5.36,2.8,5.52,4.24.08,1.84.08,5.12-.8,6.88s-2.48,6.48-3.84,6.72a12,12,0,0,1-2.8-1.36s-2,5.6-2.8,5.6c-1.2-1-2.88,4.56-4.24,4s-7-4.16-7-4.16l-6.64,5.6s4.4,13.13,6.32,17c1.76,3.92,3,6.32,3,6.32l-5.92,13.37a55.45,55.45,0,0,0-4.24,8.4c-1.76,2-4.16,2.88-4.16,5,0,1.36.08,6.48.08,6.48l-8,.16-.08,3-12.49,7,.72,14,4.64.48-.08,6.16L138.18,235l-1.52,2.32-4.4-.56s.64-1.68-1.52-1.76a8.38,8.38,0,0,0-4.72,1,21.54,21.54,0,0,0-3.28,2.32c-1.28,1.2-3,4.72-6.24,4.8a7.17,7.17,0,0,1-6.16-3.76c-.56-1.28-5.28-7.2-5.28-7.2s2.64-2.88,3.92-4.32c-.08-1.52-11-3.2-11-3.2s-5-1-3.76,3.84c-1.44-.24-9.36-1.6-9.44,5,.24,4.32-.32,14.25-.32,14.25L75.27,250l-1.68-34.26s-3.68-1.76-5-1.84-4.48.88-3.92,5.76a15.57,15.57,0,0,1-4.88-3.12c-2.8,1.12-10,1.92-10,1.92l-.4,17.29.32,8.16-7.44,5.19.88,6.26s-2.16,1.12-1.52,2.4,1.28,4.88.72,6.48a16.33,16.33,0,0,1-1.67,4.32l.79.32s6.32.08,7.2.4c.8.64.24,2-.56,3.12s-6.08,6.72-7.6,14.25A34.2,34.2,0,0,1,37,296a23.13,23.13,0,0,0-.72,8.08c3.44-.16,9.28-1.6,9.68,2.64a6.37,6.37,0,0,0,5,0c1.2-.56,9.6-4.08,11.77-4.56a39.51,39.51,0,0,1,7.12,7.76c1.6,2.64,7.92,9,7.92,9l1,2v1.6l1.84-.48v-5l1.84-.24v-2.08h6.32v-4l4.32.08-.4-2.24,3,.08v-1.68h4.48s1.28-1.76,2.08-1.92,4.48-.16,5.36-.88,2.88-2,2.88-2l-.4,4.64,4.48.64-2.48,8.48-3.52,11.61,19.93,1.68-.48,14.41H147.7l3.2-4s5.36-.8,8.48-9.36a48.46,48.46,0,0,0,6.56-.08v-2.32l5.92.32v-5.52l8.48-.4.56-12,18.65.24s7.6-7.68,9.28-13.45c.4-3.12-1.76-5.28-.56-6.64,1.84-1.2,11.69-10.16,16.09-21.85-1.52-.64-6.08-6.48-21.13-3.6-9.28,1.52-28.81,7.2-28.81,7.2l-.08-6.56,26.81-8.72s69.79-23.37,72.35-24.09,12.17-4.8,13.37-4.8-2.16-8.32,10.24-10.16c3.28-1,5.52-2,5.36-4.16a22.55,22.55,0,0,1-4.48-3.84l11.21-1.28v-8.08a12.76,12.76,0,0,0,3.68-4A7,7,0,0,0,313.78,192.33Z"/><path class="cls-2" d="M148.39,345H126.63l.48-14.53-20.33-1.71,4-13.28,2-6.9-4.19-.6.26-3-.32.25c-.91.74-2.61.92-4.92,1.08l-1,.08a6.8,6.8,0,0,0-1.28,1.38l-.42.58H97.18v1.72L94.5,310l.4,2.23-4.6-.09v4H84V318l-1.84.24v4.81l-4.68,1.22v-3.09l-.78-1.5c-1-1-6.43-6.53-8-9.08a37,37,0,0,0-6.26-6.93c-2.67.83-9.5,3.67-10.82,4.28a7.77,7.77,0,0,1-6.13,0l-.84-.31-.08-.89a1.5,1.5,0,0,0-.51-1.13c-1-.85-3.74-.59-5.72-.39-.71.07-1.38.13-2,.16l-1.2.06-.25-1.18a24,24,0,0,1,.8-8.93c.16-.38.35-.75.57-1.17a30.46,30.46,0,0,0,2.8-7.9c1.37-6.79,5.7-12.11,7.33-14.11.23-.28.4-.49.5-.62a4.76,4.76,0,0,0,.59-1c-1.24-.11-3.86-.2-6.1-.23h-.27l-2.47-1,.69-1.37a14.51,14.51,0,0,0,1.52-3.76V264l.07-.19c.4-1.13-.13-4.35-.65-5.38-.71-1.43,0-2.8,1.26-3.74l-.87-6.22,7.52-5.24-.29-7.39.43-18.62,1.23-.14c2-.22,7.49-1,9.63-1.83l.87-.35.66.66a17.65,17.65,0,0,0,2.47,1.88,5.84,5.84,0,0,1,1.49-3.34,5.11,5.11,0,0,1,3.92-1.59c1.52.09,4.65,1.54,5.57,2l.76.36,1.64,33.37,6.51-1.64c.13-2.65.45-9.67.27-13a6.27,6.27,0,0,1,2.12-5c1.62-1.36,4-1.9,7.14-1.64a3.72,3.72,0,0,1,1-2.51c1.61-1.67,4.33-1.15,4.64-1.09,11.95,1.84,12,3.58,12.09,4.51l0,.58-.39.43c-.83.94-2.23,2.48-3.12,3.45a59,59,0,0,1,4.72,6.57,5.77,5.77,0,0,0,4.83,2.91c1.75,0,3.06-1.71,4.12-3a12.66,12.66,0,0,1,1.19-1.37,15.53,15.53,0,0,1,2.72-2c.27-.16.51-.31.72-.46a9.76,9.76,0,0,1,5.59-1.29,3,3,0,0,1,2.56,1.23,2.45,2.45,0,0,1,.32.7l2.29.29,1.3-2,4.88-1.67.05-3.87-4.56-.47-.83-16.1,12.55-7,.09-3.51,7.95-.16c0-1.63-.06-4.19-.06-5.09,0-2.1,1.49-3.33,2.8-4.41a16.34,16.34,0,0,0,1.54-1.38,56.81,56.81,0,0,1,4.22-8.32l5.61-12.66c-.49-1-1.5-3-2.76-5.79-1.92-3.92-6.19-16.64-6.37-17.18l-.31-.91,8.18-6.9.88.57c1.86,1.19,4.92,3.1,6.27,3.82.27-.35.64-.93.88-1.32.82-1.32,1.52-2.45,2.68-2.65l.14,0a34.82,34.82,0,0,0,1.95-4.56l.62-1.73,1.52,1a11.07,11.07,0,0,0,1.8.95,25,25,0,0,0,2-4c.3-.71.57-1.34.8-1.79.53-1.07.77-3.29.66-6.11-.16-.66-2.19-2.58-4.37-3l-.37-.07-.29-.24c-1.41-1.19-1-3.95,2-12.82,1.29-3.88,6-6.19,9.1-7.72.64-.31,1.2-.59,1.63-.83l.47-.26.52.11c1.29.27,3.23,1.48,6,3.28l.83.53a4.42,4.42,0,0,1,4.06-.86,3.81,3.81,0,0,1,.79-1.75c1.27-1.57,3.43-1.65,4.86-1.7h.13a2.75,2.75,0,0,1,2.67-1.75,8.16,8.16,0,0,0,1.12-1.72l.18-.44c.51-1.26,1.32-3.26,2.82-4.34-.91-1.47-.7-4.39-.39-6.47a12.29,12.29,0,0,0-1.82,0,2.58,2.58,0,0,1-2-.73c-1.78-1.63-2.41-6-2.41-9.17,0-4.09,4.05-7.4,5.26-8.3l6-12.63,1.12.27c4,1,10.18,2.42,12,2.83l.24-.22V41.2l-16.12-8.39.81-1.3c7.65-12.34,8-12.67,9-12.68l.13,0a12.63,12.63,0,0,1,3.83-.37.91.91,0,0,0,.58-.29,1.36,1.36,0,0,0,0-.9l-.23-.63.33-.59,2.84-4.83,3.34.21.39-4.08h12.8l-.08,12.43c.94.25,2.48.63,4.27,1,3.12.66,4.41-.27,5.54-1.08a3.42,3.42,0,0,1,2.88-.9c1.21.29,8.68-.59,9.74-1l.08,0c-1.53-.11-3.63-.14-4.86-.15-3.85-.05-4.88-.07-4.88-1.62,0-.1,0-.24,0-.47,0-.73.07-2.43.07-6.41V3.35l2.67,5c.52,1,.72.94,1.82.72A7.34,7.34,0,0,1,277,8.91a28.67,28.67,0,0,0,3.47-.52,47.37,47.37,0,0,1,5.25-.76c2.38-.15,6.82,1.43,9,2.27l2.13-4.14,2.59,1.15-.09.21c-2,4.28-3.37,7.28-3.5,7.64-.07.2-17.82,37.21-19.48,40C275,57,266,83.21,265.15,87.37a11.63,11.63,0,0,0-.22,4.27l14.94,4.5L278,97.82s-.88.79-4.25,3.36l-.14.11,2.57,1-.1,4.17,3.38,14.32-1.25.4a10.07,10.07,0,0,1-3.86.13c-2.25-.24-3.12.26-3.21.39a13.28,13.28,0,0,1-3.23,3.41l-.5.43-.35.45c-1,1.28-3.31,4.29-5.93,5.85a76,76,0,0,0-7.46,6.45c-3.13,2.89-6.63,6.11-9.9,8.76l.22.18c.5,0,2.1-.14,3.29-.26,1.66-.16,3.38-.33,4.4-.33s4.77-1.55,7-2.65l2-1,.09,8.51c2.72.67,5.52,1.85,5.61,3.87s-1.73,4.39-3.07,6l-.13.16c-.81,1-3.14,2.72-6.59,5.25-1.24.91-2.42,1.77-3.24,2.41s-.85,1-.8,1.12.48.49,1.18.51a17,17,0,0,1,2,.2c1.12.17,1.44.19,2.07-.22a18.43,18.43,0,0,0,2.09-1.93c2-2.06,3.52-3.55,5.06-3.13,1.33.35,2.83,1.43,4.59,3.28.65.5.93.48.92.48s.45-.18,1-2.07l2.78-9.45v9.84c0,1.82,0,1.82,1.47,2l1.46.2-.14,1.36v.07c.71.08,3.26.3,4.24.38l3.25.28-3.05,2.76h11.42v6.16l6.73.4.1-.22a3.2,3.2,0,0,1,2.21-1.58,12.48,12.48,0,0,0,1.63-.63c1.94-.85,4.6-2,7.19-.9l.78.34.07.85a27.14,27.14,0,0,1-1.37,6l4.89,6.42.06.33a8.26,8.26,0,0,1-1,5,13.52,13.52,0,0,1-3.52,4.06v8.64l-9.49,1.08a22.29,22.29,0,0,0,2.12,1.59l.58.38.05.7c.27,3.68-4.05,4.95-6.38,5.63l-.19,0c-8.31,1.23-8.55,5.39-8.68,7.63,0,.83-.15,2.55-1.77,2.55-.64.09-4.35,1.53-6.81,2.48s-5,1.94-6.17,2.27c-2.5.7-71.59,23.84-72.29,24.07l-25.83,8.41,0,3.66c5.07-1.44,19.48-5.46,27.19-6.73,13.28-2.54,18.86,1.5,21.24,3.23a7.89,7.89,0,0,0,.68.46l1.18.56-.41,1.25c-4.28,11.37-13.58,20.34-16.36,22.35a5.8,5.8,0,0,0,.33,1.39,10.13,10.13,0,0,1,.59,4.44l0,.22c-1.76,6-9.32,13.72-9.64,14l-.42.43-17.88-.23-.56,11.93-8.42.4v5.67l-5.92-.32v2.13l-1.3.1c-.15,0-3.19.25-5.73.15-2.81,6.84-7.06,8.68-8.62,9.14Zm-18.83-2.83H147l3.12-3.9.55-.08c.17,0,4.61-.89,7.36-8.45l.37-1,1.09.1a38.83,38.83,0,0,0,5,0v-2.49l5.92.32v-5.38l8.55-.4.56-12.08L199,309c1.56-1.65,7.09-7.71,8.49-12.31a7.62,7.62,0,0,0-.5-3.13c-.39-1.27-.89-2.85.27-4.16l.13-.14.16-.11a54.67,54.67,0,0,0,15.12-20.1l0,0c-2.08-1.51-7-5.06-19.08-2.74-9.13,1.5-28.49,7.12-28.68,7.17L173,274l-.12-9.47,27.8-9c2.84-1,69.84-23.39,72.41-24.11,1-.29,3.52-1.25,5.91-2.18,3.67-1.43,5.64-2.16,6.77-2.48v-.07c.14-2.37.5-8.66,11-10.25,2.85-.84,3.85-1.52,4.15-2.1a23.43,23.43,0,0,1-4-3.61l-1.7-2,12.57-1.44v-7.57l.62-.42a11.4,11.4,0,0,0,3.22-3.48,6.18,6.18,0,0,0,.76-2.9l-5.31-7,.21-.7c.5-1.61,1-3.5,1.28-4.67a9.88,9.88,0,0,0-3.91,1.11,14.14,14.14,0,0,1-2.08.79,1,1,0,0,0-.4.17l.8,2.06-2.19-.26L290,183.74v-6H274.09l3.68-3.33-1.22-.12h-.13a2.2,2.2,0,0,1-2.18-1.79,3.52,3.52,0,0,1-1.8-.95,3,3,0,0,1-1.14.68,3.89,3.89,0,0,1-3.62-1l-.15-.14a9.91,9.91,0,0,0-3.1-2.48,19.46,19.46,0,0,0-2.55,2.31,18.62,18.62,0,0,1-2.55,2.31,5.12,5.12,0,0,1-4,.64,14.41,14.41,0,0,0-1.68-.17,3.93,3.93,0,0,1-3.78-2.47c-.22-.68-.5-2.47,1.75-4.23.84-.66,2-1.53,3.31-2.46a62.07,62.07,0,0,0,6.08-4.76l.13-.16c.77-.93,2.32-2.81,2.42-3.91a12.47,12.47,0,0,0-4.46-1.64l-1.12-.23-.07-6.3c-1.95.88-4.72,2-6.21,2-.89,0-2.61.17-4.13.31a18.74,18.74,0,0,1-4.18.21,3.62,3.62,0,0,1-1.73-1.07,5.22,5.22,0,0,0-.87-.71L239,147.16l1.62-1.25c3.55-2.74,7.56-6.44,11.09-9.7s6.36-5.87,7.94-6.8c2.16-1.28,4.25-4,5.14-5.15.29-.37.49-.62.59-.72s.35-.31.66-.58a13.68,13.68,0,0,0,2.5-2.45c.75-1.63,2.9-2.34,6.07-2,.55.06,1,.08,1.38.08l-2.79-11.81.06-2.55-1.82-.72a1.73,1.73,0,0,1-1.69-1c-.56-1.35.76-2.45,2.28-3.55l2-1.55-11.34-3.42-.26-.6c-.1-.23-1-2.37-.09-6.54.79-3.81,9.9-30.73,11.53-33.49,1.35-2.27,18.43-37.61,19.27-39.59.05-.14.24-.56.51-1.17-2.6-1-6.29-2.17-7.84-2.08a45.62,45.62,0,0,0-4.9.72,27.5,27.5,0,0,1-4,.56,5.11,5.11,0,0,0-.93.13,5.4,5.4,0,0,1-2.23.11c0,1.23,0,2.09,0,2.69l2.06,0c5.79.08,7.6.24,8.42,1.14l.3.32.06.43c.25,1.74-2.36,3.46-2.85,3.71-1.12.56-9.39,1.59-11.51,1.17a6.31,6.31,0,0,0-.65.43,8.67,8.67,0,0,1-7.74,1.56,51.31,51.31,0,0,1-5.57-1.31l-1-.31.08-11.71H248l-.41,4.25-4.34-.27-1.66,2.82a3.81,3.81,0,0,1-.35,2.58,3.6,3.6,0,0,1-2.7,1.73l-.14,0h-.14a10.23,10.23,0,0,0-3.19.28h0c-.89,1.19-3.78,5.7-6.56,10.15l14.93,7.77V55.81l-.42.42c-1.42,1.43-1.88,1.54-2.36,1.54-.21,0-.4,0-11.86-2.73l-5.35,11.24-.32.22c-1.21.82-4.34,3.54-4.34,6.19,0,3.89.92,6.58,1.47,7.06a17.18,17.18,0,0,1,3.85.19l1.42.26-.28,1.41c-.5,2.51-.62,5.33-.26,5.91l.06.09a1.37,1.37,0,0,0,.4.38,1.66,1.66,0,0,1,.81,1.55c-.11,1-.91,1.29-1.75,1.66s-1.72,2.32-2.09,3.25l-.2.49c-.36.85-1.79,3.1-2.78,3.43a1.78,1.78,0,0,1-.94,0h-.05a2.31,2.31,0,0,0-.25.62l-.22.8-.8.2a7,7,0,0,1-1.39.13c-.91,0-2.29.08-2.76.65a2.19,2.19,0,0,0-.17,1.6l.42,2.44-2.31-.87c-2.55-1-3.07-.42-3.35.17l-.68,1.41-1.33-.81c-.58-.35-1.26-.79-2-1.25a42.7,42.7,0,0,0-4.66-2.75l-1.22.61c-2.69,1.32-6.75,3.31-7.66,6.07-.66,2-2.57,7.72-2.62,9.66,2.63.82,5.57,3.11,5.81,5.26.11,2.48,0,5.73-.94,7.67-.21.41-.45,1-.72,1.63-1.42,3.34-2.48,5.56-4.14,5.85l-.34.06-.33-.1a11.88,11.88,0,0,1-1.62-.66c-1.93,5-2.82,5-3.55,5h-.07c-.25.32-.59.87-.81,1.23-.94,1.51-2.12,3.4-3.9,2.67-1.14-.47-4.62-2.65-6.31-3.72l-5.11,4.31c1,3,4.38,12.76,5.94,16,1.74,3.87,3,6.26,3,6.28l.33.61-6.29,14.17a54.42,54.42,0,0,0-4.11,8.14l-.09.25-.18.2a16.94,16.94,0,0,1-2,1.89c-1.16,1-1.77,1.49-1.77,2.22,0,1.36.08,6.46.08,6.46l0,1.41-8.06.16-.07,2.42-12.42,6.93.61,11.91,4.72.49-.11,8.46-5.85,2-1.74,2.66-7.07-.9.58-1.51h-.18a7.23,7.23,0,0,0-3.86.79c-.26.18-.55.36-.87.56a12.83,12.83,0,0,0-2.25,1.64,11.39,11.39,0,0,0-.9,1.06c-1.27,1.61-3.2,4-6.27,4.12h-.18A8.58,8.58,0,0,1,109,240a77.8,77.8,0,0,0-5.09-6.89l-.76-.95.82-.89s1.56-1.7,2.86-3.14a59.68,59.68,0,0,0-9.08-2,2.76,2.76,0,0,0-2.1.27c-.26.28-.29.94-.07,1.83l.51,2.09L94,229.9c-4.17-.7-6,.19-6.68.79a3.47,3.47,0,0,0-1.11,2.79c.24,4.25-.3,13.9-.32,14.31l-.06,1-11.89,3-1.72-35.13a17.61,17.61,0,0,0-3.75-1.35,2.29,2.29,0,0,0-1.7.71,4.3,4.3,0,0,0-.73,3.48l.24,2.08-2-.55a15.52,15.52,0,0,1-4.83-2.88,58.67,58.67,0,0,1-8.3,1.57l-.37,16.06.35,8.85-7.37,5.13.9,6.39-.89.46a3,3,0,0,0-.83.66c.66,1.47,1.4,5.12.78,7.24a10.47,10.47,0,0,1-1,3,35.07,35.07,0,0,1,6.4.46l.22.08.18.15c.5.4,1.94,1.93-.29,5.05-.12.17-.33.42-.6.77-1.51,1.85-5.52,6.78-6.76,12.94a33.49,33.49,0,0,1-3.05,8.59c-.18.35-.34.65-.47,1a22.88,22.88,0,0,0-.72,6l.47,0c2.74-.27,5.86-.57,7.8,1a4.09,4.09,0,0,1,1.35,2.08,4.67,4.67,0,0,0,3.21-.19c1-.49,9.65-4.13,12.06-4.66l.68-.15.54.45a40.87,40.87,0,0,1,7.43,8.12c1.24,2,6,7,7.71,8.7L79,318l.31.59v-2.83l1.84-.24v-2.25h6.32v-4l4,.07-.4-2.25,3.25.09v-1.64h5.2a5.19,5.19,0,0,1,2.5-1.89,13.12,13.12,0,0,1,1.42-.14,14.79,14.79,0,0,0,3.37-.48c.89-.73,2.88-2,3-2.06l2.42-1.55-.53,6.17,4.77.68-2.94,10.05-3,9.94L130,327.89Zm1.53-105.71ZM277,171.89ZM271.68,102l.43-1.09a1,1,0,0,0-.64-.31ZM282.41,18Z"/></svg>