<svg id="Layer_2" data-name="Layer 2" xmlns="http://www.w3.org/2000/svg" viewBox="0 0 350 350"><defs><style>.cls-1{fill:#999;}.cls-2{fill:#f90;}</style></defs><title>M_</title><path class="cls-1" d="M298.54,194.19a7.11,7.11,0,0,1-1-4.92c.81-3.81-1-6.94-3.8-9.08a5,5,0,0,1-2.15-4.3c-.3-4.83-1.67-5.57-6.07-3.44a36.5,36.5,0,0,1-5.3,2.17c-2.93.88-5.91-1.11-8.06-5.47-.94-1.89-1.49-2.25-3.49-.88A57.47,57.47,0,0,0,258.27,177a5.45,5.45,0,0,1-.55.42c-1.71,1.45-3.15,1.08-3.58-1s-1.84-3.88-1.29-6.28c.36-1.6-.27-2.44-2.64-2.07-2.94.45-6.52,1.05-9,0-2.87-1.18-5.71-.26-8.34-1.37-.53-.22-1.44-.06-1.43.54,0,1.89-1.41,2.42-2.61,3.22s-1.19,1.76-.26,2.85a15.68,15.68,0,0,1,2.4,3.2c2.33,4.86,6.94,8.46,6.43,14.93-.2,2.57-.63,4.26-2.09,5.25a3.9,3.9,0,0,0-3.88,1.34,1.83,1.83,0,0,0-1.15,2.53,7.86,7.86,0,0,1-2.78,1.44,3.9,3.9,0,0,1-3.4-3c-2,4.51-5.75,4.66-9.38,5.18a3.34,3.34,0,0,0-1.9.7,8,8,0,0,1-.83.79,18.13,18.13,0,0,1-9.15-.23,3.79,3.79,0,0,0-.94-.55l-2.08-.82c-1-1.11-1-2.66-1.33-4.51-1-6.24.41-12.58-1.16-18.78-.74-2.91-.52-6.2-5.12-5.27-.66.13-1.49-.54-2.23-.86-4.9-2.12-9.44-5.09-14.92-5.85-2-.27-3.74-.65-5.72.09-4.39,1.64-8.4.7-11-2.21a3.35,3.35,0,0,1-1.77-.89,9.7,9.7,0,0,1-2.33-2.78c-1.42-2.93,1.56-6.53,4.67-4.67,2.94,1.76,6.28,2.25,9.64,2.53a3.41,3.41,0,0,1,3,2.26c.63-.23,1-.91,1.24-2.25.31-2.12-1.19-4.42.7-6.42.35-.37-.18-1.46-.82-1.74-2.27-1-2.07-3.19-1.78-4.76,1-5.23,2.39-10.4,3.72-15.56.3-1.18.8-2.54,2.42-2.4,3.12.27,3.21-2,3.44-4,.27-2.4-.28-5.12.68-7.16,1.56-3.32-.09-4.37-2.53-4.12-3.27.33-6.42-1.75-9.66-.22-.74.35-1-.37-1.3-.79-1.35-1.71-2.65-3.46-4.06-5.12s-1.49-3,0-4.54c2-2.17,4.71-3.73,5.82-6.72.42-1.14,1.27-.37,2-.29,1.61.18,3.05.26,4.19-.61a7.66,7.66,0,0,1,.49-1.66c1.49-3.51,2.29-6.87,4.46-10.07,1.69-2.49,4.27-4.75,5.41-7.58,1.41-3.49-1.08-3.81-3-6.65A10.66,10.66,0,0,1,181,64.26a9.09,9.09,0,0,0-1.67-1.08,4.12,4.12,0,0,0-4-1.52c-.82.1-2.22.53-2.17-1.3a18.1,18.1,0,0,0-.27-4.1c-.28-1.37.13-2,1.46-2,.83,0,2.23-1.86,2.46.68.1,1.08,1.28,1.18,2,1.33,4.89,1,6.93-.39,8.86-5.11,1.79-4.37,2.09-9.41,4.86-13.21,2.24-3.08,2.19-5.1-.71-7.18-1.92-1.37-2.1-3-.83-4.74,1.68-2.29,1.48-4.77,1.13-7.3-.27-1.94-.81-3.84,1.09-5.37.72-.58.47-1.42.08-2.22-2.09-4.28-5.92-5.45-10.21-3.3-4.62,2.31-9.42,4.3-9.07,10.72l-.43.53a3.72,3.72,0,0,0-.54.9c-.89,0-1.77.08-2.69.16h0c-.64-.37-.83-1.1-.49-2,1.05-2.84-1.11-3-2.82-3.51-.87-.24-2.28.18-2.66-.31-1.91-2.48-3.55-3.84-7.37-3.45-2.21.23-5.42-.77-8.2-1.17-1.7-.24-2.82.52-3.05,2.07a13.8,13.8,0,0,1-1.33,4.85l.51-.29c-.78.76-1.6,1.49-2.44,2.19l-1,.27.07-.07a7.55,7.55,0,0,1-1.89.21c-.11,0-.21.25-.33.5A6.08,6.08,0,0,0,137,21a7.17,7.17,0,0,0-1.62,2.94,25.58,25.58,0,0,1-3.6,2.77c-2,1.25-5.24,6.93-4.33,8.23,1.7,2.44-.72,5.67,1.33,7.91q.05.68.07,1.36c-3.15,2.46-2.64,5.78-2.15,8.89a8.86,8.86,0,0,0-.2,1.09,23.55,23.55,0,0,0,.28,6.28,5.33,5.33,0,0,0-.89,1,10.64,10.64,0,0,0-1.05,2.85q.09.9.22,1.8a6.76,6.76,0,0,0-.91-1.56,6.51,6.51,0,0,1-.46.54,3.47,3.47,0,0,1-4.83,0,3.44,3.44,0,0,1-.16-4.62,3.79,3.79,0,0,1,.18-.51c-.77-2.2-3.5-3.46-5.54-1.43l-3.65,2.12c1.45-3.21-2.71-7.4-5.36-4.14s-6,7.67-10.67,7.88c-1.92.09-3.82-.71-5.72-.66a9.8,9.8,0,0,1,4.2,2.57,3.69,3.69,0,0,1,.36.4c2.29,3.11,2.34,6.28,1.65,10-.72,3.83-1.28,5.28.57,9a56.3,56.3,0,0,1,2.83,5.78,29.43,29.43,0,0,1,1.57,12.83c-.3,2.93-2.08,5.91.81,8.2,1.55,1.22,4.31,1,6.12,1.55,5,1.51,7,6.66,2.51,10.45-2.21,1.86-5.25,1.84-7.52,3.9-1.86,1.69-3.32,4.47-4.49,6.64a42.94,42.94,0,0,0-4.92,18c-.19,3.15-3.49,4.23-5.82,2.41-7.7-6-17.58-7.33-27-8.49a3.67,3.67,0,0,1-1.3-.41,11.89,11.89,0,0,0-1.69,3c-1,2.69-.44,4.76-.57,7.57A24.81,24.81,0,0,1,54,163.85c3.8,1.2,8.31,2.87,10,5.58,2.08,3.29,0,6.16-1.31,9.39-2.55,6.32.56,11.86-.51,18.21-1,6-8.7,13-4.24,18.77a2.69,2.69,0,0,1,.53,2.61,7.51,7.51,0,0,1-.4,4.34,21.14,21.14,0,0,1-1.65,3c-.31.53-.41.78-.47.87a3.44,3.44,0,0,1,.69,5.32l-1.3,1.44a2.94,2.94,0,0,1-2.57,1.07,26.22,26.22,0,0,0-2.85,2.34,5.73,5.73,0,0,1,3.43,3c.61,1.5.17,3.67.14,5.22l-.1,4.61.58-.16,1.46-.4a3.63,3.63,0,0,1,5.9-2.21c1.52,1.32,3.54,3.52,5.74,5.22a3.09,3.09,0,0,1,2.76-.43c1,.29,5.1,1.59,6.37.36a2.77,2.77,0,0,1,.09-1.47,10,10,0,0,1,9.46-6.82,3.37,3.37,0,0,1,3.76,1.41l3.58,5.3c.6.88,1.23,1.75,1.79,2.65a2.75,2.75,0,0,0,.4.47,2.57,2.57,0,0,1,2.09.68,5.67,5.67,0,0,1,3,6.82c-2,6.48,4.88,5.79,7.23,12.66,1.49,4.37,1.64,9.17,3.57,13.37.16.34.32.69.48,1a3.9,3.9,0,0,1,.33,3.24c-1,2.2-4.44,1.37-6.6,2.5-1.77.92-2.68,3.21-4.61,3.7-2.12.54-4-1.35-6.09-2-6.08-2-9.54,4.62-11.17,10.4a11.38,11.38,0,0,1,.42,1.9,22.22,22.22,0,0,1,2.46,4.5c1,2.84.52,5.4-.3,8.21a3.64,3.64,0,0,1-.36.83c.06,2.12,0,4.26-.13,6.44a25.73,25.73,0,0,0,3.17,4.66c1.95,2.27,4.35,4.39,5,7.3a7,7,0,0,1,.17,1.49l2.06.13c.31.43.61.87.92,1.3a14.47,14.47,0,0,1,5.53-.9h0a12.6,12.6,0,0,1,1.85.21c1.81.35,3.6.79,5.41,1.09,1.35.22,2.76,0,2.81-1.69.08-2.75,1.33-5.89-2.56-7.71,1.94-.39,3.5-.65,3.51-2.64s2.5-3.84,1.57-5.39c-1.22-2-3.79.27-5.73-.39a3.37,3.37,0,0,0-.69,0c-1.44-.15-1.68-.86-1.11-2.13,2.12-4.72,3.74-5.76,9-5.66a32.15,32.15,0,0,1,3.46.08,4.49,4.49,0,0,0,5.22-4.27,6.09,6.09,0,0,1,.57-2.26,21.73,21.73,0,0,0,2.58-1.35,12.17,12.17,0,0,1,1.53.08c3.89.42,4.24-.21,2.9-3.94.34-.05.67-.11,1-.16,2.13-.26,5.19,1,6.14-.93.85-1.73-2.19-3.26-3.06-5.15.06-.1.1-.24.19-.29a13.5,13.5,0,0,1,1.21-.64c4.69-2.08,8.51-7.21,14.68-4.23.29.14.83-.32,1.28-.41,5-1,5-1,7.1,3.78.43,1,.79,1.91,2.09,2,3.28.14,7.77-2.8,8.9-6,1.36-3.79,3.42-7,7.16-8.79q6.35-3.06,12.77-6c1.08-.49,2.7-1.14,2.11-2.25-1.18-2.2.58-5-1.64-6.81-.87-.72-.7-1.89-1-2.87-1.23-4.06.69-7.63,1.65-11.35l1.16-2.93c.19-.66.69-1.42.52-2-1.91-5.94,2.45-8.35,6.12-11.2a12.51,12.51,0,0,0,1.74-2.09,13.31,13.31,0,0,0,.43-2.37c0-2.49.53-4.1,3.62-3,1.43.5,2.25-.72,3-1.85,1.26-2,2.63-2.59,5.12-1.44a32.55,32.55,0,0,0,9.06,3.16c1.87.26,3.43.72,2.56,3.53-.55,1.77,1.35,3.59,1.15,5.78-.11,1.17,1.5,1.27,2.79.91,2.27-.64,4.06-2.11,6.06-3.21s3.78-3.58,6.85-1.74a5.93,5.93,0,0,0,3.57.06,81.65,81.65,0,0,1,23.84-3.88c2.1-1.3,4.51-1.69,6.85-2.26,1.27-.52,11.86-11,16.22-15.21,1.37-1.33,1.4-2.27.3-3.76-1.32-1.79-1.78-3.49.79-5.06C300.38,204,301.35,199.76,298.54,194.19Z"/><path class="cls-2" d="M110.58,344.61a6.6,6.6,0,0,1-1.06-.09c-1.12-.18-2.24-.42-3.32-.66-.71-.15-1.42-.31-2.13-.44a11.27,11.27,0,0,0-1.64-.19,13.07,13.07,0,0,0-5,.81l-1,.37-.63-.86-.54-.76-2.7-.17,0-1.31a5.63,5.63,0,0,0-.13-1.19c-.46-2-1.94-3.61-3.51-5.34-.41-.45-.82-.9-1.21-1.36a27.22,27.22,0,0,1-3.35-4.92l-.19-.35,0-.4c.14-2.46.19-4.47.13-6.32V321l.21-.35a2.26,2.26,0,0,0,.23-.51c.81-2.76,1.14-5,.32-7.36a16.27,16.27,0,0,0-1.83-3.43l-.49-.78-.16-.26,0-.3a9.86,9.86,0,0,0-.37-1.67L82,306l.12-.41c1.09-3.88,3.18-8.93,7-10.94a7.42,7.42,0,0,1,6-.43,14.1,14.1,0,0,1,2.29,1.07c1.15.62,2.14,1.16,3,.94a4.62,4.62,0,0,0,1.92-1.54,8.94,8.94,0,0,1,2.39-2,10.09,10.09,0,0,1,3.33-.87c1.59-.22,2.37-.39,2.65-1,.2-.42.1-1-.35-2.06L110,288l-.14-.31a35,35,0,0,1-2.25-7.9,44,44,0,0,0-1.38-5.6,11.24,11.24,0,0,0-4.12-5.28c-2.11-1.74-4.5-3.71-3.13-8.25a4.26,4.26,0,0,0-2.15-5.1l-.21-.09-.17-.15a1.19,1.19,0,0,0-.94-.36l-.71.11-.51-.51a4.11,4.11,0,0,1-.6-.71c-.37-.59-.76-1.16-1.15-1.72l-.62-.9-3.58-5.3a2,2,0,0,0-2.24-.83l-.2.05h-.2A8.57,8.57,0,0,0,77.61,251a1.35,1.35,0,0,0,0,.73l.15.75-.55.53c-1.57,1.53-4.68.89-7.51.06l-.23-.07a1.68,1.68,0,0,0-1.54.21l-.86.63-.84-.65a48.78,48.78,0,0,1-4-3.56c-.66-.64-1.29-1.25-1.83-1.71a1.94,1.94,0,0,0-2.06-.39,2.37,2.37,0,0,0-1.51,1.72l-.12.93-4.78,1.33.15-6.52c0-.43,0-.91.09-1.41a8.16,8.16,0,0,0-.12-3.25,4.32,4.32,0,0,0-2.66-2.26l-1.94-.81,1.48-1.5a26.62,26.62,0,0,1,3-2.49l.45-.33.55.06a1.55,1.55,0,0,0,1.36-.61l1.3-1.44a2.13,2.13,0,0,0,.57-1.74,2,2,0,0,0-1-1.42L54,227.07l.77-1.22c.09-.19.21-.44.44-.83s.33-.55.5-.82a12.29,12.29,0,0,0,1.05-2,6.09,6.09,0,0,0,.34-3.52l-.09-.4.13-.38a1.26,1.26,0,0,0-.32-1.28c-3.46-4.5-.87-9.42,1.42-13.76a22.49,22.49,0,0,0,2.55-6.1,25.5,25.5,0,0,0-.16-7.4c-.42-3.51-.85-7.15.75-11.11.24-.59.5-1.18.77-1.75,1.25-2.75,1.9-4.39.66-6.35-1.63-2.58-7-4.27-9.26-5l-1.37-.43.45-1.36a23.43,23.43,0,0,0,1.2-6.31c0-.81,0-1.58,0-2.33a13.69,13.69,0,0,1,.67-5.67,13.32,13.32,0,0,1,1.87-3.35l.73-1,1.08.58a2.26,2.26,0,0,0,.8.26c8.67,1.06,19.46,2.38,27.68,8.77a2.4,2.4,0,0,0,2.44.41,2,2,0,0,0,1.1-1.79,44.61,44.61,0,0,1,5.09-18.62l.13-.25c1.19-2.22,2.68-5,4.65-6.77a12.66,12.66,0,0,1,4.41-2.36,10.3,10.3,0,0,0,3.16-1.57c1.55-1.3,2.23-2.84,1.93-4.32a5.34,5.34,0,0,0-3.93-3.68,13.14,13.14,0,0,0-2-.34A9.14,9.14,0,0,1,99,113.62c-2.88-2.28-2.23-5.16-1.71-7.47a17.09,17.09,0,0,0,.37-2A28.07,28.07,0,0,0,96.17,92a26.78,26.78,0,0,0-1.75-3.67c-.35-.65-.7-1.29-1-2-1.88-3.84-1.51-5.74-.89-8.9l.2-1c.62-3.32.62-6.1-1.4-8.85a1.84,1.84,0,0,0-.18-.2,8.41,8.41,0,0,0-3.64-2.25L79,62.51l8.82-.19a14.4,14.4,0,0,1,3.07.36,11.46,11.46,0,0,0,2.62.31c3.83-.17,6.74-3.77,9.31-6.95l.33-.41a4.1,4.1,0,0,1,5.56-1,5.75,5.75,0,0,1,2.48,3.52l1.22-.71a4.53,4.53,0,0,1,4.15-1.19,5.08,5.08,0,0,1,3.59,3.28l.18.52-.22.51a2.48,2.48,0,0,0-.11.32l-.08.3-.2.24a2,2,0,0,0,0,2.67,2.07,2.07,0,0,0,2.86,0,3.62,3.62,0,0,0,.27-.32l.88-1.11a6.72,6.72,0,0,1,.87-2,5.84,5.84,0,0,1,.56-.7,23.79,23.79,0,0,1-.18-5.93,9.42,9.42,0,0,1,.17-1c-.47-3-.94-6.64,2.14-9.47v-.18a6.47,6.47,0,0,1-.81-4.73,4.36,4.36,0,0,0-.3-2.92,2.93,2.93,0,0,1-.31-2.35c.48-2.36,3-6.62,5.05-7.9a23.62,23.62,0,0,0,3.11-2.36,8.49,8.49,0,0,1,1.82-3.1,7.05,7.05,0,0,1,2.46-1.72,1.67,1.67,0,0,1,1.35-.8,5.23,5.23,0,0,0,1.53-.17l.66-.17c.42-.35.8-.69,1.17-1l.16-.26a12.79,12.79,0,0,0,1.15-4.34c.35-2.33,2.17-3.62,4.65-3.26,1,.14,2,.34,2.95.54a19.09,19.09,0,0,0,4.9.62c4.16-.43,6.28,1,8.4,3.69.13,0,.31,0,.44,0a5.56,5.56,0,0,1,1.71.12l.51.13c1.15.29,2.59.66,3.28,2a3.88,3.88,0,0,1,0,3.25l0,.05,1-.06a4.76,4.76,0,0,1,.31-.42l.09-.11c-.09-6.57,4.78-9,9.09-11.12l.78-.39a9.2,9.2,0,0,1,7.12-.8,8.83,8.83,0,0,1,5,4.75c1,2.12.32,3.32-.47,3.95-1,.82-.94,1.69-.67,3.44l.09.63c.38,2.74.58,5.65-1.39,8.33a2,2,0,0,0-.52,1.44,2.36,2.36,0,0,0,1,1.3,6.14,6.14,0,0,1,2.83,3.91c.33,2-.87,4-1.8,5.26-1.58,2.17-2.3,4.85-3.05,7.68A43.24,43.24,0,0,1,189,51.7c-2.24,5.48-5,7-10.45,6l-.2,0c-.71-.13-2.54-.46-2.9-2.21a2.44,2.44,0,0,1-1.15.27h-.06c0,.08,0,.17,0,.29a19.42,19.42,0,0,1,.3,4.36l.26,0,.32,0a5.53,5.53,0,0,1,5.08,1.8,11,11,0,0,1,1.65,1.1l.54.43v.69a9.19,9.19,0,0,0,1.68,5.36,11.83,11.83,0,0,0,1.6,1.84c1.33,1.33,2.84,2.83,1.52,6.13a20.47,20.47,0,0,1-3.57,5.31c-.73.87-1.42,1.69-2,2.54a29,29,0,0,0-3,6.54c-.39,1.07-.8,2.17-1.28,3.29a6.21,6.21,0,0,0-.4,1.35l-.1.54-.44.33c-1.55,1.18-3.35,1.09-5.2.89a3.6,3.6,0,0,1-.72-.17,14.57,14.57,0,0,1-4.09,5c-.66.59-1.28,1.14-1.83,1.74-.81.88-1,1.44.05,2.66s1.92,2.36,2.82,3.52l1.27,1.63.12.16a10.68,10.68,0,0,1,6.1,0,12.14,12.14,0,0,0,3.48.36c2.42-.24,3.58.62,4.13,1.4.82,1.16.76,2.76-.17,4.74a9.59,9.59,0,0,0-.46,3.94,23.36,23.36,0,0,1-.09,2.77l0,.28c-.2,1.89-.58,5.41-4.94,5-.29,0-.57-.05-.93,1.34l-.52,2c-1.14,4.4-2.32,8.95-3.17,13.46-.41,2.14,0,2.8,1,3.2a3.25,3.25,0,0,1,1.73,2.23,2,2,0,0,1-.45,1.78c-.73.77-.65,1.55-.44,3a9.12,9.12,0,0,1,.11,2.67c-.1.68-.4,2.73-2.15,3.38l-1.32.49-.5-1.31a2,2,0,0,0-1.79-1.35c-3.43-.28-7.05-.81-10.26-2.72a1.67,1.67,0,0,0-2.14.16,2.3,2.3,0,0,0-.53,2.68,8.43,8.43,0,0,0,2,2.35,2,2,0,0,0,1,.55l.49.08.33.37c2.32,2.56,5.78,3.23,9.5,1.84a11,11,0,0,1,5.81-.25l.6.09c4.18.58,7.81,2.36,11.32,4.08,1.3.64,2.64,1.3,4,1.87.26.11.53.26.8.41a5.27,5.27,0,0,0,.68.34,5.41,5.41,0,0,1,4.16.52c1.54,1,1.91,2.89,2.24,4.53.08.43.17.86.28,1.28a41.68,41.68,0,0,1,.84,10.85,49.41,49.41,0,0,0,.34,8.07c0,.32.09.63.13.93a6.3,6.3,0,0,0,.67,2.61l1.73.69a5,5,0,0,1,1.06.58,16.46,16.46,0,0,0,7.87.2c.16-.14.29-.28.42-.42a4.45,4.45,0,0,1,2.75-1.15l.87-.12c3.31-.44,5.93-.8,7.41-4.22l1.49-3.44,1.16,3.56a2.43,2.43,0,0,0,2,2,9.69,9.69,0,0,0,1.32-.59,3.1,3.1,0,0,1,1.82-3.05,5.33,5.33,0,0,1,4.36-1.69c.63-.66.93-1.76,1.1-3.86.31-4-1.59-6.8-3.61-9.78a34.73,34.73,0,0,1-2.68-4.43,11.53,11.53,0,0,0-1.77-2.4l-.43-.49a3.47,3.47,0,0,1-1-2.73,3.21,3.21,0,0,1,1.54-2.22l.64-.4c1.09-.67,1.36-.92,1.35-1.62a1.93,1.93,0,0,1,.88-1.65,2.76,2.76,0,0,1,2.52-.21,10.14,10.14,0,0,0,3.53.54,13.54,13.54,0,0,1,4.8.82c2,.84,5.34.33,8-.08l.26,0c.63-.1,2.56-.4,3.67.8a3.13,3.13,0,0,1,.57,3,5.83,5.83,0,0,0,.59,3.45,14.07,14.07,0,0,1,.71,2.24,1.44,1.44,0,0,0,.32.77h0a2,2,0,0,0,1-.55,3.9,3.9,0,0,1,.36-.27l.1-.07a58.69,58.69,0,0,1,10.61-8.88,4.09,4.09,0,0,1,3.27-1,4,4,0,0,1,2.3,2.42c.86,1.75,3.21,5.7,6.38,4.74a35.62,35.62,0,0,0,5.09-2.09c2.08-1,4.24-1.8,5.93-.82s2,3.2,2.18,5.45a3.67,3.67,0,0,0,1.58,3.26c3.65,2.75,5.19,6.48,4.34,10.51a5.73,5.73,0,0,0,.87,4h0c3.18,6.3,1.84,11.29-4,14.82-.68.42-1.1.84-1.17,1.2s.18,1,.78,1.81c1.54,2.09,1.4,3.82-.45,5.62l-1.83,1.79c-10.32,10.08-13.78,13.28-14.83,13.71l-.2.06-1.24.29a16.8,16.8,0,0,0-5.2,1.8l-.34.21H271a80.62,80.62,0,0,0-23.43,3.82,7.09,7.09,0,0,1-4.73-.2c-1.5-.9-2.28-.42-3.89.75a14.9,14.9,0,0,1-1.55,1c-.59.33-1.17.69-1.74,1a17.68,17.68,0,0,1-4.62,2.29c-.58.16-2.55.61-3.79-.42a2.23,2.23,0,0,1-.8-2,5.21,5.21,0,0,0-.56-2.27,5.49,5.49,0,0,1-.53-3.79c.24-.78.2-1.16.14-1.26s-.34-.28-1.54-.45a32.64,32.64,0,0,1-9.19-3.15l-.27-.12c-1.84-.85-2.44-.52-3.33.9-.67,1.08-2.07,3.32-4.62,2.43-1.11-.39-1.44-.23-1.44-.23s-.29.23-.3,1.92a8.39,8.39,0,0,1-.31,2c-.05.23-.11.45-.15.68l-.07.35-.23.28c-.17.2-.32.42-.47.63a7.88,7.88,0,0,1-1.49,1.68l-1.19.9c-3.63,2.72-5.79,4.6-4.45,8.75a3.27,3.27,0,0,1-.32,2.3,4.81,4.81,0,0,0-.19.49l0,.13-1.13,2.85c-.23.88-.51,1.75-.78,2.59-.86,2.69-1.67,5.23-.86,7.91a7.71,7.71,0,0,1,.23,1.15c.08.55.14.9.31,1,1.81,1.51,1.75,3.5,1.71,5a4.65,4.65,0,0,0,.27,2.28,2.27,2.27,0,0,1,.18,1.84c-.41,1.22-1.71,1.81-2.75,2.28l-.19.09c-5,2.28-9,4.18-12.75,6-3,1.42-5,4-6.44,8-1.33,3.72-6.32,7.07-10.3,6.91a3.67,3.67,0,0,1-3.27-2.68l-.06-.13c-.81-1.82-1.39-3.14-1.85-3.38s-1.8,0-3.67.42l-.21.11a2.14,2.14,0,0,1-2,.19c-3.77-1.81-6.47-.05-9.59,2a28.18,28.18,0,0,1-3.9,2.26c.2.23.43.46.65.69,1.13,1.17,2.67,2.76,1.7,4.73-1.08,2.18-3.5,1.95-5.28,1.78-.42,0-.85-.08-1.25-.09a3.53,3.53,0,0,1-.29,3.21c-.95,1.2-2.74,1.12-4.65.91-.35,0-.68-.06-1-.07-.59.35-1.22.68-1.88,1a6.21,6.21,0,0,0-.25,1.33,6.34,6.34,0,0,1-2.27,4.38,5.89,5.89,0,0,1-4.55,1.17,15.77,15.77,0,0,0-2.15-.07h-1.15c-4.65-.09-5.79.63-7.68,4.82l-.06.14h.11a2.46,2.46,0,0,1,.91.11,3.89,3.89,0,0,0,1.77-.22c1.29-.33,3.46-.89,4.72,1.22.94,1.57,0,3.13-.6,4.26a4.65,4.65,0,0,0-.77,1.86,3.32,3.32,0,0,1-1.86,3.19c1.44,1.81,1.21,4,1,5.74-.05.49-.1,1-.12,1.44a3.1,3.1,0,0,1-1.08,2.41A3.52,3.52,0,0,1,110.58,344.61Zm-8.66-4.22h.57a14.42,14.42,0,0,1,2.11.24c.73.14,1.46.3,2.19.45,1,.23,2.13.46,3.18.63.84.14,1.1,0,1.11,0a.79.79,0,0,0,0-.3c0-.54.07-1.1.13-1.65.26-2.48.29-3.72-1.88-4.73l-3.89-1.82,4.38-.89c2.2-.44,2.2-.62,2.21-1.22a6.75,6.75,0,0,1,1.15-3.25,4.45,4.45,0,0,0,.63-1.39c-.12-.2-.18-.3-1.59.06a6.07,6.07,0,0,1-3.27.2,3.64,3.64,0,0,1-.5,0,2.87,2.87,0,0,1-2.36-1.3,3.15,3.15,0,0,1,.11-2.82c2.37-5.27,4.47-6.6,10.32-6.49h1.07a18,18,0,0,1,2.54.09,3.08,3.08,0,0,0,2.41-.57,3.56,3.56,0,0,0,1.22-2.43,7.46,7.46,0,0,1,.72-2.78l.23-.44.45-.2a20.45,20.45,0,0,0,2.41-1.26l.33-.2h.39a12.88,12.88,0,0,1,1.7.08,9.8,9.8,0,0,0,2,.08,11.09,11.09,0,0,0-.62-2.13l-.58-1.62,2-.32.73-.11a11.86,11.86,0,0,1,2.57.06c1.28.12,2.28.18,2.47-.21,0-.28-.76-1-1.2-1.5a9.34,9.34,0,0,1-1.88-2.44l-.33-.7.42-.65a1.66,1.66,0,0,1,.67-.75,14.66,14.66,0,0,1,1.34-.7,25.71,25.71,0,0,0,3.5-2c3.25-2.13,6.93-4.53,11.91-2.38a3.43,3.43,0,0,1,.85-.31c5.64-1.14,6.29-.79,8.68,4.59l.06.13c.43,1,.51,1,.8,1,2.74.09,6.59-2.47,7.51-5,1.71-4.78,4.22-7.83,7.88-9.59s7.81-3.71,12.8-6l.2-.09a9.83,9.83,0,0,0,1.08-.55,7.53,7.53,0,0,1-.44-3.35c0-1.36,0-2.1-.69-2.69a4.09,4.09,0,0,1-1.3-2.81,5.46,5.46,0,0,0-.14-.74c-1.07-3.53-.08-6.61.88-9.6.28-.87.54-1.69.75-2.52l.06-.17,1.14-2.87c.07-.24.17-.48.28-.73s.15-.36.19-.49c-1.91-6.18,2.19-9.26,5.49-11.73l1.15-.87a5.64,5.64,0,0,0,.94-1.11l.35-.48.11-.46a6.18,6.18,0,0,0,.23-1.3c0-1.57.19-3.29,1.5-4.22,1-.69,2.28-.73,4-.14.24.09.48,0,1.29-1.26,1.71-2.73,3.9-3.36,6.92-2l.27.12a30.49,30.49,0,0,0,8.39,2.92c.94.13,2.68.37,3.54,1.74A4.19,4.19,0,0,1,228,236a3.48,3.48,0,0,0,.45,1.89,8.34,8.34,0,0,1,.78,3.14,3.23,3.23,0,0,0,1-.13,15.32,15.32,0,0,0,3.88-2c.62-.39,1.24-.78,1.88-1.13a12.64,12.64,0,0,0,1.26-.84c1.62-1.17,3.84-2.77,7-.88a5.4,5.4,0,0,0,2.42-.07A83.51,83.51,0,0,1,270.54,232a20.25,20.25,0,0,1,5.7-1.94l1-.25c1.37-.86,10.12-9.42,13.88-13.09L293,215c.83-.81.84-1,.15-1.9a5.27,5.27,0,0,1-1.28-4,4.81,4.81,0,0,1,2.48-3.07c4.57-2.78,5.44-6.11,2.91-11.13h0a8.54,8.54,0,0,1-1.11-5.85c.78-3.71-1.34-6.21-3.27-7.66a6.44,6.44,0,0,1-2.71-5.35c-.17-2.63-.64-3.1-.78-3.18s-.81-.26-3.26.93a38.25,38.25,0,0,1-5.5,2.25c-3.65,1.1-7.28-1.22-9.74-6.2a6,6,0,0,0-.5-.87,5.22,5.22,0,0,0-.92.54,56.35,56.35,0,0,0-10.16,8.49,2.94,2.94,0,0,1-.58.48l-.1.07c-1.62,1.38-2.92,1.33-3.73,1.05a3.47,3.47,0,0,1-2.15-2.88,12,12,0,0,0-.58-1.8,8.32,8.32,0,0,1-.7-5.08,2.31,2.31,0,0,0,.06-.4,3.61,3.61,0,0,0-1.1,0l-.26,0c-3,.46-6.73,1-9.5-.1a11,11,0,0,0-3.84-.61,13.55,13.55,0,0,1-4.07-.59,4.84,4.84,0,0,1-2.62,3.12l-.54.34a1.26,1.26,0,0,0-.32.28,4.45,4.45,0,0,0,.34.48l.41.47a13.73,13.73,0,0,1,2.19,3,32.11,32.11,0,0,0,2.48,4.06c2.2,3.25,4.48,6.62,4.09,11.59-.18,2.29-.55,4.85-2.71,6.31l-.51.34-.6-.14a2.48,2.48,0,0,0-2.45.82l-.22.28-.33.15c-.57.25-.53.35-.39.78l.28.84-.63.62a8.92,8.92,0,0,1-3.31,1.77l-.35.12-.37-.07a5.5,5.5,0,0,1-3.15-1.57c-2.23,2.84-5.43,3.27-8.32,3.66l-.84.12a2.68,2.68,0,0,0-1.08.28,8.8,8.8,0,0,1-1,.9l-.28.23-.35.07a19.52,19.52,0,0,1-9.84-.27l-.25-.08-.21-.16a2.33,2.33,0,0,0-.59-.35l-2.38-.94-.22-.24a7.41,7.41,0,0,1-1.56-4.37c0-.28-.08-.58-.12-.88a52.46,52.46,0,0,1-.37-8.53,38.94,38.94,0,0,0-.76-10.12c-.12-.47-.22-1-.31-1.42-.24-1.21-.47-2.35-1-2.72a3.23,3.23,0,0,0-2.12-.09,3.7,3.7,0,0,1-2.52-.66c-.19-.1-.37-.21-.56-.29-1.39-.6-2.77-1.28-4.1-1.93-3.46-1.7-6.73-3.3-10.46-3.82l-.62-.09a8.39,8.39,0,0,0-4.41.1c-4.63,1.73-9.18.88-12.27-2.25a4.81,4.81,0,0,1-2-1.14,10.88,10.88,0,0,1-2.64-3.2,5.15,5.15,0,0,1,1.17-6,4.49,4.49,0,0,1,5.5-.5c2.55,1.53,5.46,2,9,2.33a4.89,4.89,0,0,1,2.74,1.09,7.68,7.68,0,0,0-.13-1.72A6.09,6.09,0,0,1,172,154h0c-3.45-1.5-2.76-5.1-2.54-6.29.88-4.6,2.06-9.19,3.21-13.64l.52-2c.64-2.47,1.95-3.64,3.92-3.46,1.42.12,1.63-.16,1.88-2.5l0-.29a20.87,20.87,0,0,0,.07-2.44,11.71,11.71,0,0,1,.73-5.17c.58-1.22.5-1.78.42-1.89s-.48-.32-1.53-.21a14.39,14.39,0,0,1-4.31-.4c-1.8-.36-3.36-.67-4.88.05a2.11,2.11,0,0,1-2.9-1l-.11-.17-1.29-1.66c-.88-1.14-1.8-2.32-2.74-3.42-2.36-2.76-1.29-5,0-6.43.64-.69,1.34-1.32,2-1.92A11.45,11.45,0,0,0,168,96.77c.36-1,1.21-2,3.19-1.3a1.78,1.78,0,0,0,.32.1,5.87,5.87,0,0,0,2.78-.1,9.12,9.12,0,0,1,.44-1.31c.45-1.06.84-2.13,1.23-3.16a31.64,31.64,0,0,1,3.36-7.15c.65-1,1.42-1.87,2.16-2.76a18.15,18.15,0,0,0,3.11-4.55c.63-1.55.34-1.84-.88-3.06a14.55,14.55,0,0,1-2-2.27A12.1,12.1,0,0,1,179.65,65a6.85,6.85,0,0,0-.89-.53l-.28-.14-.2-.24a2.72,2.72,0,0,0-2.74-1l-.24,0a3.13,3.13,0,0,1-2.68-.51,2.78,2.78,0,0,1-.84-2.27,17,17,0,0,0-.25-3.77,3.27,3.27,0,0,1,.48-2.8,2.84,2.84,0,0,1,2.27-.9l.27-.14a2.53,2.53,0,0,1,2.46-.27,2.71,2.71,0,0,1,1.22,2.25,4.91,4.91,0,0,0,.65.15l.25,0c4.11.81,5.54,0,7.28-4.26a40.46,40.46,0,0,0,1.53-4.89c.79-3,1.61-6,3.5-8.62,1-1.36,1.41-2.39,1.29-3.14A3.59,3.59,0,0,0,191,31.93a4.87,4.87,0,0,1-2.18-3.16,4.7,4.7,0,0,1,1-3.57c1.35-1.83,1.2-3.84.87-6.26l-.09-.59c-.27-1.75-.64-4.14,1.61-6a2.72,2.72,0,0,0-.22-.56,6,6,0,0,0-3.36-3.31,6.46,6.46,0,0,0-4.95.65l-.79.39c-4.83,2.39-7.77,4.11-7.5,9l0,.54-.79,1a2.34,2.34,0,0,0-.33.57l-.36.81-.89,0c-1,0-1.78.08-2.52.15h-.12l-.44,0-.38-.22a2.88,2.88,0,0,1-1.11-3.76c.27-.72.17-1,.17-1-.11-.2-1-.44-1.47-.55l-.58-.15a4.16,4.16,0,0,0-.85,0,2.85,2.85,0,0,1-2.55-.79c-1.78-2.31-3-3.22-6.1-2.9a19.34,19.34,0,0,1-5.43-.59L146,17.35c-.73.72-1.56,1.46-2.52,2.26l-.23.19-.29.08-1,.28-.93.24-.59.36.14-.24-.1,0-.53.2A4.6,4.6,0,0,0,138,22a5.77,5.77,0,0,0-1.31,2.37l-.11.39-.3.27a26.88,26.88,0,0,1-3.8,2.92c-1.45.91-3.85,5.16-3.83,6.36a6.92,6.92,0,0,1,.7,4.68c-.14,1.44-.19,2.29.42,3l.33.36,0,.48c0,.48.06,1,.08,1.44l0,.72-.57.44c-2.33,1.82-2.17,4.07-1.62,7.55l0,.28-.06.27a7.32,7.32,0,0,0-.17.91,22,22,0,0,0,.27,5.9l.12.76-.58.52a3.87,3.87,0,0,0-.66.72,4.87,4.87,0,0,0-.6,1.54c-.06.22-.12.45-.19.68q.08.72.18,1.44L128.06,77,123.77,66.8a4.93,4.93,0,0,1-5.9-.66,4.87,4.87,0,0,1-.59-6.18A2.18,2.18,0,0,0,116,59a1.73,1.73,0,0,0-1.66.57l-.29.22-7.47,4.33,1.81-4a2.63,2.63,0,0,0-1.1-3.08,1.28,1.28,0,0,0-1.87.42l-.33.41c-2.79,3.46-6.27,7.77-11.38,8h-.12l0,0c2.79,3.79,2.53,7.71,1.9,11.05L95.29,78c-.59,3-.81,4.13.65,7.11.31.63.64,1.25,1,1.86A29.33,29.33,0,0,1,98.84,91a30.94,30.94,0,0,1,1.65,13.45,19.52,19.52,0,0,1-.43,2.33c-.51,2.27-.71,3.5.7,4.62a7.2,7.2,0,0,0,3.22.87,15.21,15.21,0,0,1,2.43.44,8.14,8.14,0,0,1,5.89,5.82c.52,2.51-.53,5.09-2.88,7.06a12.6,12.6,0,0,1-4,2.06,10.13,10.13,0,0,0-3.48,1.8c-1.61,1.46-3,4-4.06,6l-.13.25A41.21,41.21,0,0,0,93,153.16a4.79,4.79,0,0,1-2.76,4.2,5.22,5.22,0,0,1-5.35-.75c-7.6-5.91-17.52-7.12-26.28-8.2a5.08,5.08,0,0,1-.59-.11,9.49,9.49,0,0,0-.9,1.79,10.92,10.92,0,0,0-.5,4.59c0,.8.05,1.63,0,2.55a25.53,25.53,0,0,1-.93,5.71c3.86,1.3,7.74,3,9.46,5.74,2.12,3.35.74,6.37-.48,9-.25.54-.49,1.08-.72,1.64-1.33,3.29-1,6.41-.56,9.71a28.07,28.07,0,0,1,.14,8.21,24.71,24.71,0,0,1-2.83,7c-2.07,3.94-4,7.65-1.68,10.72a4.16,4.16,0,0,1,.86,3.53,9,9,0,0,1-.53,4.79,14.51,14.51,0,0,1-1.28,2.42l-.36.58A4.81,4.81,0,0,1,59,228.84a5,5,0,0,1-1.27,4l-1.3,1.44a4.43,4.43,0,0,1-3.17,1.55l-.82.63a6.24,6.24,0,0,1,2.27,2.78,10,10,0,0,1,.32,4.55c0,.44-.07.86-.08,1.24l0,1.73a5.41,5.41,0,0,1,2.46-1.91,4.76,4.76,0,0,1,4.92.9c.59.51,1.25,1.15,1.94,1.81.93.9,2,1.89,3,2.78a4.64,4.64,0,0,1,3-.1l.25.07a12.63,12.63,0,0,0,4.26.75,4,4,0,0,1,.22-1.06,11.45,11.45,0,0,1,10.65-7.76,4.79,4.79,0,0,1,5.08,2l3.58,5.3.6.87c.37.53.74,1.07,1.09,1.61a4.11,4.11,0,0,1,2.17.89,7.11,7.11,0,0,1,3.58,8.45c-.83,2.73.19,3.57,2.21,5.24a13.93,13.93,0,0,1,5,6.55,46.7,46.7,0,0,1,1.47,6,32.3,32.3,0,0,0,2,7.27l.14.3c.12.25.24.51.35.77a5.25,5.25,0,0,1,.31,4.41c-1,2-3.1,2.33-4.82,2.57a7.81,7.81,0,0,0-2.4.57,6.64,6.64,0,0,0-1.61,1.45,6.89,6.89,0,0,1-3.31,2.37c-1.94.5-3.6-.4-5.06-1.19a11.8,11.8,0,0,0-1.83-.87,4.62,4.62,0,0,0-3.8.24c-2.2,1.17-4.13,4.29-5.45,8.81a12.66,12.66,0,0,1,.3,1.41l.32.51a18.64,18.64,0,0,1,2.12,4c1.06,3.11.65,5.87-.28,9.07a4.84,4.84,0,0,1-.3.77c0,1.72,0,3.58-.12,5.79a24.25,24.25,0,0,0,2.81,4.06c.37.44.76.87,1.16,1.3,1.75,1.92,3.55,3.91,4.18,6.6,0,.15.07.31.09.47l1.51.09.71,1A15.91,15.91,0,0,1,101.92,340.39Zm7-13.74h0Zm-.46-2.87Zm39.81-312.7a.9.9,0,0,0-1,.91c-.08.56-.17,1.1-.26,1.62l3.76-2.12c-.7-.14-1.39-.27-2-.36Z"/></svg>