<svg id="Layer_1" data-name="Layer 1" xmlns="http://www.w3.org/2000/svg" viewBox="0 0 350 350"><defs><style>.cls-1{fill:#999;}.cls-2{fill:#f90;}</style></defs><title>M</title><path class="cls-1" d="M59.84,85.53s1-.46.23-2.36a16.55,16.55,0,0,1-.89-5.85,3.17,3.17,0,0,1,2.17-1.78c.81-1,1.74-2.56,1.32-3.68l-1.08-2.4a1.37,1.37,0,0,0-1.9,0c-1.2.85-5.46,3.25-5.46,3.25-.54-1-.46-1.28-.77-1.43-.54-.39-.89-2-2.36-1.43-.81-.77-1.74-3.1-2.21-3.45a27.34,27.34,0,0,1-2.75-2.09c-.74-.74-1.9-1.74-2.32-2.28,1.39-.46,5.11-.93,6-1.32s.89-2.21.35-3.56c-.5-1-1.2-3.68-2.48-2.83a27.31,27.31,0,0,1,.62-6C48.73,46,49.62,43.9,50.63,43s4.38-6.23,5-7.24c.81-1.51,1.43-3.6,3.6-4.53a50.18,50.18,0,0,0,6.31-5.69c1.47-1.67,8.29-8.79,9.64-9.37s5.58-2.05,6.62-2.87S91.95,9,93.26,8.46c1.59-.77,3.6-3.1,6.12-1.63,1,.89,7.47,4.72,8.6,5.58s4.8,2.71,6.54,3.87,5,3.56,7,4.92,8.95,6.39,11.08,7.59,10.53,7.47,12.66,8.67,7.32,5.19,8,5.38,6.89.85,9.06,4.84c1.74,2.4,5.85,7.94,6.74,9.84s7.2,11.81,7.78,13.4,4.92,7.63,5.81,9.41,6,10.07,6.7,11.23,10.61,16.92,11.89,18.7c1,1.36,13.52,16.3,14.6,18.12,1.08,1.39,6.89,9,8.75,11.11s13.48,16.73,15,18.24c0,0,5.58,7.16,5.89,7.78a1.59,1.59,0,0,1,.19,1.51c-.54.85-2.75,4.49-3.52,5.5s-4.57,5.93-5.38,7.32-1,2.52-2.13,3.41-1.59.77-3,0a12.42,12.42,0,0,1-3-2.52,12.82,12.82,0,0,0-3.14-2.56c-1.08-.5-1.08-.27-2.25.15A106.54,106.54,0,0,0,214,183.9a3.73,3.73,0,0,0-1.59,4.49c.43,2.05,2.21,4.8,5.93,2.17,1.9-.31,7.67-.74,10.11.85,1.59,1.16,3.21,1.55,3.21,4.69-.19,1,0,3.83-2,4.57-2,.93-2.94,1.39-4.57.85s-5.73-2.13-7.24-1.94c-1.74-.19-7.09-1.08-8.06.62a2.46,2.46,0,0,0,1.47,3.45,3.76,3.76,0,0,1,2.75,3c.46,1.9,1,4.41,3,5.34s3,1.72,5.19,2,7.2-1.68,8.6,1c-.12,1.1,1.51,6.8,1.74,8.19s1.86,1,3,1.34,3.89.06,5.75,2c1.74,1.51,3.89.06,5.93,1.28a19.3,19.3,0,0,1,4.18,4.41,14.51,14.51,0,0,0,6.1,3.83,16.66,16.66,0,0,1,5.52,2.38,10.93,10.93,0,0,0,3,1.45c1,.46,1.45,3.54,1.63,4.76s0,3.72,2.21,5.75c2,1.8,3.49,3.25,4.3,4.18s1.16,2.09,2,2.09,6.16-4,8.83-3.54a7.72,7.72,0,0,1,5.05,3c.52,1.28,1.22,4.07,1.68,5.81s2.09,4.88,2.21,8-.41,3.6,0,5.58.52,5.93,4.18,5.17c-.41.76.12,2.9-2.73,4.65-.23,1.57-1.51,2.5.46,6.33,1.34,3.19,1.8,4.94,4.47,4.82,2.21-.06,4.12-.06,5.23.7s.64,1.39,0,2.09c-.52.41-3.19,1.16-3.54,2.09s-2.85,2.5-3.31,3.37-3.25,1.57-2.79,7a7.31,7.31,0,0,1,.76,3.78c.12,1.28-.81,1.16-1.22,2.15s-3.31,3-3.31,3.89c0,0-1.1.64.29,2.15a18.36,18.36,0,0,1,1.92,2.44c-.81.41-1.86.64-1.68,1.92.17.81.29,1.68.35,2.09-.41.46-.7.52-1.16-.76-.35-.81-1.74-.7-2.15.64-.64.81-2.81,2.42-3.31,2.92s.31,1.24,1.9,1.39a14.84,14.84,0,0,0-4.34,9.33c-1,0-7.32-1.2-8.48-1.16s-4.61-1.9-5.11-3.14-.23-3.41-2.59-3c-.58.15-2.25.81-2.4,2.36a5,5,0,0,1-4.45.54c-.89-.66-3.06-2.63-2.83-5.5.39-1,1.7-3.14,2.52-2.87s2.48,1.16,2.17-2c.19-1.51.5-3.14,1.67-4,1-.5,5.42-3.45,5.89-4.34s-.08-2-2.05-2c.12-.81.39-3.14-.54-4s-2.21-3.41-2.56-3.76-.43-.5.08-.89c0,0,2.32-1.08,1.43-2.63a8.49,8.49,0,0,1-2.17-3.14,3.09,3.09,0,0,0-2.83-2.17c-1.24,0-2.52.12-2.71,0,0,0-.23-.54.35-1.51s3.91-5.73,4-6.47c-.15-.81-.72-1.32-2.34-1.72s-5.72-1.37-4.68,2.18c.52.9,1.54,2.41,1.54,2.41a29.58,29.58,0,0,0-2.32,3.8c-1.83-1.07-5.2-5.23-5.55-6.74-.17-.41-.41-2.15-2.5-.17a69.85,69.85,0,0,0-7.75,8.36c-.78,1.31-2.53,2.29-3.8,1.63-1.1-.7-1.39-3.14-1.86-3.75a6.33,6.33,0,0,1-.73-3.78c.2-1.31,2.73-6.59,3-8.25s2.53-8.07,2.82-8.71,1.95-3,.15-4.15c-1.39.15-2.5.64-4,0-1.19.15-1.95.12-1.1,4,.09.9.61,4.62.49,5.17s-1.14,1.16-1.41,1.28-.79.52-.91-.73c0,0-.7-5.81-2.67-8a14.94,14.94,0,0,0-5.93-4.53c-1.54-.73-3.46-2.21-4.56-1.31-.58,0-1.54-.81-3.19-.15-1.07.41-1.39.2-1.45-.09,0,0-.93-3.92-2.64-4.33,0,0-1,.41-1.28-1.31-.29-1.28-.44-1.77-1-2.18s-.73-1.16-2.35-.46c-1.22.12-4.07.49-4.56.55,1.19-.58,4.39-2.24,5.72-2.76a69.74,69.74,0,0,0,8.25-4.47c.67-.64,1.16-.41,1.16-1.28s-.81-4.59-1.39-5.26-1.77-1.48-2.59-.76c-.73.44-5.23,2.7-6.13,3.11s-3.8,1.34-4.07,1.57c.23-1.42.55-4.71,1.16-6,.41-1.28-.38-3.72-.58-4.39s-.55-1.16-2.09-.35c-1.37.67-4.91,2.21-6.56,2.35-1.16,0-2.32.06-2.41-3.28.12-.32,2.7-1,3.34-1.31s.49-.78-.44-2c-.49-1-1.39-2.21-3.63-1.16a7.08,7.08,0,0,1-1.71.44s-6.94-4.65-7.45-5.11c-.89.54-5.77,5.58-5.77,5.58s-1.28-3.76-1-4.57c1.2-.31,4.38-.62,5.27-1s2.09-1.12,1.74-2.4a3.28,3.28,0,0,0-3.83-1c-.35-.54-.66-2.32-.15-2.9.7-.81,2.71-2.17,1-3.91a4.33,4.33,0,0,0-1.94-.46,7.73,7.73,0,0,0-3.06-5.54,11.14,11.14,0,0,1-.7-2.83,17.37,17.37,0,0,0-1.47-4.72c-.43-.54-1.32-1.86.31-2.87,1.59-1.32,8.71-8,9-8.25s1.86-1.82.15-2.67c-1.24-.7-4.69-1.2-6.47-.23S172.34,197,171.8,198c-.43.74-.46,1-.89,1.59s-2.17,1.43-2.79,1.94-2.21-.74-3.1.74c-.39.31-2.32,1-3.21.23a8.1,8.1,0,0,0-5.54,0,13.87,13.87,0,0,0-3.45.89,15.81,15.81,0,0,1-1.7-2.59c.08-.58,1.86-4-.5-5.5a4.62,4.62,0,0,0-5-.62c-.43.27-.93-1-.46-2.17s2.79-5.62,2.83-7c-.23-1.43-1-3.06-.81-3.72-.81-1.08-1.86-2-2.59-2.05s-1.74-.39-2.13,1.7c-.43.81-2.67,5.46-2.67,5.46a16.07,16.07,0,0,1-2.59-1.51c.31-.7,1.63-3.76,1.63-3.76s.16-2-2-.7c-1.2.62-9.14,5.42-9.6,5.93-.23,0-1.78,1-2.52-.12a32.31,32.31,0,0,0-3.41-5.73c.74-.39,8.17-3.18,10.11-3.06,1.7.12,4.11.12,4.34-1.2.12-.74-2-2.32-3.33-2.44-.85.31-11.46,4-11.46,4l1.24-5.5s.31-1.39-1.78-1.59c-1.51.08-4.38.12-5.46-.5a26.57,26.57,0,0,0-4.26-3.64,27.18,27.18,0,0,0-4.8-1.08c-1.59-.19-2.63-.23-2.63-.23a2.21,2.21,0,0,0-1-2.71c-.89-.39-4.8-2.13-5.11-2.21s0-4.49.58-5.07,2.83-1.16,3.33-2.67c.5-1.28-.23-1.2-1-1.2-1.2.5-4.11,1.28-4.84,1.67A7.13,7.13,0,0,0,93.73,150c-.77-.7-1.43-2.83-1.9-3.37a2.31,2.31,0,0,0-2.32-.58c-1.16.19-2.63-1.16-2-3.45.58-.85,1.9-3.21,2.09-3.64s2.13-.54,3.64-.58a49.24,49.24,0,0,0,5.31-.46c.93-.19,1.7-.85,1-2.17a14.72,14.72,0,0,1-.77-2.52,23.58,23.58,0,0,1-3.87-.74c-1.12-.43-1.32-1-2.36-.62a20.92,20.92,0,0,1-2.63,1,6.93,6.93,0,0,0-1.43.39s-3.14-5.15-3.14-5.5a3.34,3.34,0,0,1,2.59-2.4c1.78-.35,2.59-.31,2.32-1.86-.23-.93-2.17-5.46-3-6.23s-1.43-.15-1.9.43c-.31-.77-1.12-1.82.31-2.13,1.12-.43,2.32-.54,1-1.74-.5-.81-.66-.74-1.12-.66s-1.67.43-1.67.43-1.36-4.61-1.59-5.69c-.74-1-5.81-5.65-7.24-6H73.75l-.43-1.55S75.88,100,75.18,98a3.24,3.24,0,0,0-1.24-.27c1-.74,2.05-1.08,1.74-2.44a14.09,14.09,0,0,0-3.06-1.7c-1.28-.58-4.92-1.12-4.65.66.19,1.43.15,3.29-.62,4-.5.43-1.36,1.28-1.86.89a10,10,0,0,0-1.94-1.32s-3.18-1.36-4-.46a10.8,10.8,0,0,0,.54,2c-1-.89-2.52-2.05-3.21-2.71a9.89,9.89,0,0,0-1.74-1.59c1.63-1.51,4.22-3.41,4.45-4.3s-.19-1.55-1.32-2.13a11.24,11.24,0,0,1-2.32-1.7c1.55-.35,3.45-.66,3.91-1.16"/><path class="cls-2" d="M283.87,345.06a37.27,37.27,0,0,1-4.26-.58,39,39,0,0,0-4.13-.58c-1.75,0-5.74-2.22-6.47-4a8.1,8.1,0,0,1-.31-1.16,3.75,3.75,0,0,0-.3-1h-.06a1.89,1.89,0,0,0-.3,0c-.23.07-1.24.43-1.31,1.12l0,.5-.36.36a6.21,6.21,0,0,1-6.08.82l-.22-.14c-.87-.65-3.7-3-3.4-6.75l0-.2.07-.19s1.84-4.52,4.29-3.7l.13,0,.21.09a5.18,5.18,0,0,0,0-.63l0-.16,0-.16c.17-1.29.47-3.68,2.26-4.93l.18-.11a36.87,36.87,0,0,0,5.11-3.58,2.63,2.63,0,0,0-.67-.08l-1.6,0,.23-1.59c.26-1.83,0-2.62-.11-2.75a14.23,14.23,0,0,1-2.11-3c-.2-.33-.45-.75-.53-.86a1.91,1.91,0,0,1-.64-1.48,2.07,2.07,0,0,1,.91-1.47l.26-.16a2.49,2.49,0,0,0,.77-.58,9.69,9.69,0,0,1-2.28-3.57,1.72,1.72,0,0,0-1.45-1.08c-.57,0-1.11,0-1.56,0a3.21,3.21,0,0,1-1.88-.23l-.39-.24-.18-.42a3.08,3.08,0,0,1,.43-2.8c.18-.29.6-.93,1.11-1.7.7-1,2-3,2.56-4a4,4,0,0,0-1.11-.4,5.19,5.19,0,0,0-3.09-.3,2.66,2.66,0,0,0,.08.55c.51.86,1.39,2.16,1.4,2.18l.54.8-.55.79a38.79,38.79,0,0,0-2.1,3.3l-.23,2L254.79,302a19.55,19.55,0,0,1-6.12-7.32l-.24.21-.08.07a71.72,71.72,0,0,0-7.43,8c-1.12,1.87-3.61,3.23-5.68,2.15l-.1-.06c-1.15-.72-1.61-2.17-2-3.33a7.45,7.45,0,0,0-.29-.81,7.56,7.56,0,0,1-1-4.8,25.37,25.37,0,0,1,1.53-4.22,35.76,35.76,0,0,0,1.53-4.08c.09-.47.31-1.27.59-2.19a5.24,5.24,0,0,1-1.74,1.29,1.92,1.92,0,0,1-1.84.05,2.39,2.39,0,0,1-1-2c-.25-2-1.09-5.81-2.3-7.13l-.07-.08a13.64,13.64,0,0,0-5.26-4.07l-.16-.07c-.36-.17-.75-.38-1.14-.6a6.18,6.18,0,0,0-2-.86l-.36.29-.39,0a3.38,3.38,0,0,1-1.15-.22,2,2,0,0,0-1.58,0,3,3,0,0,1-2.49.09,1.76,1.76,0,0,1-.88-1.21,7.6,7.6,0,0,0-1.46-3.15,2.41,2.41,0,0,1-1.18-.3,2.87,2.87,0,0,1-1.29-2.2c-.25-1.09-.32-1.18-.44-1.26a3.89,3.89,0,0,1-.55-.46l0,0a2.75,2.75,0,0,0-.42.15l-.2.09-.22,0c-.88.08-2.62.31-3.68.44l-.85.11-8.26,1,7.47-3.65,1.21-.6c1.5-.75,3.56-1.79,4.62-2.2a74.41,74.41,0,0,0,7.81-4.2,3.66,3.66,0,0,1,.68-.51,18.16,18.16,0,0,0-1.06-4.11,2,2,0,0,0-.65-.47l-.09.06c-.79.47-5.34,2.76-6.27,3.18-.45.2-1.23.48-2.05.78-.59.21-1.46.52-1.77.66L201.59,257l.64-3.94c.05-.31.11-.72.17-1.18a22,22,0,0,1,1.06-5.06,7.07,7.07,0,0,0-.48-3.09l-.19.1c-.09,0-4.76,2.31-7.1,2.51-2,.06-3.84-.47-4-4.66v-.27l.09-.25c.31-.84,1.11-1.11,2.88-1.69l.35-.12-.12-.17-.14-.22c-.37-.73-.6-1.06-1.76-.51l-.13.05a8.17,8.17,0,0,1-2.11.51l-.47,0-.39-.26c-1.62-1.08-4.91-3.29-6.6-4.49-1.08,1-3.09,3-4.8,4.77l-1.61,1.66-.75-2.19c-1.43-4.21-1.12-5.16-1-5.47l.24-.73.75-.19c.57-.15,1.44-.28,2.35-.42a21.46,21.46,0,0,0,2.7-.51,2.94,2.94,0,0,0,.86-.54,1.81,1.81,0,0,0-1.84-.27l-1.1.47-.65-1c-.51-.8-1.14-3.32,0-4.6.13-.15.3-.32.49-.51.88-.87,1-1.08.75-1.34a3.42,3.42,0,0,0-1.06-.18h-1.41v-1.41a6.35,6.35,0,0,0-2.54-4.44l-.29-.23-.14-.34a12.48,12.48,0,0,1-.79-3.25,18.32,18.32,0,0,0-1.21-4,3.48,3.48,0,0,1-.86-2.78,3.1,3.1,0,0,1,1.47-2.07c1.26-1.06,5.54-5,7.61-7l1.32-1.22a2.3,2.3,0,0,0,.34-.39c-1-.51-3.81-.87-5-.2-3.43,1.87-4,2.62-4,2.76-.18.31-.28.5-.36.68a7.87,7.87,0,0,1-.61,1,6.77,6.77,0,0,1-2.18,1.67c-.34.2-.73.43-.88.56a2.55,2.55,0,0,1-2.15.36,2.38,2.38,0,0,0-.61-.05l-.13.21-.22.22c-.73.59-3.25,1.51-4.83.35a6.92,6.92,0,0,0-4.4.13l-.19,0a13,13,0,0,0-3.07.78l-1,.46-.69-.88c-1.79-2.31-1.92-2.93-2-3.17l-.05-.24,0-.24a4.18,4.18,0,0,1,.23-.81c.56-1.59.75-2.76-.1-3.32a3.28,3.28,0,0,0-3.63-.51,1.64,1.64,0,0,1-1.78-.24,3.45,3.45,0,0,1-.59-3.75c.13-.33.41-.92.74-1.62a33.32,33.32,0,0,0,2-4.76,14.22,14.22,0,0,0-.39-1.43,8.35,8.35,0,0,1-.44-1.9,3.85,3.85,0,0,0-1.27-1.09l-.22,0-.21,0a2.35,2.35,0,0,0-.17.59l0,.21-.1.19c-.41.78-2.63,5.37-2.65,5.42l-.62,1.27-1.28-.62a14.46,14.46,0,0,1-3-1.79l-.69-.69.4-.89,1-2.31c-2.23,1.28-8.1,4.87-8.73,5.39l-.33.36h-.32c-2.42,1.07-3.57,0-4-.75l-.15-.31a35.67,35.67,0,0,0-3-5.08l-1.93-1.2,1.59-.84-1,.35,1.75-7.74a1.7,1.7,0,0,0-.39-.09c-3,.15-5.06-.08-6.12-.69l-.18-.1-.14-.15a29.7,29.7,0,0,0-3.76-3.3,26.33,26.33,0,0,0-4.33-1h-.12c-1.5-.18-2.5-.22-2.51-.22l-2.06-.08.81-1.9a.76.76,0,0,0-.36-.91l-.87-.38c-1.17-.52-3.6-1.59-4-1.71a1.47,1.47,0,0,1-1-1c-.24-.83-.07-5.24,1-6.35a3,3,0,0,1,.64-.5,14.66,14.66,0,0,0-1.46.52l-1.68.88-.37-1.86a6,6,0,0,0-1-2.71,8.06,8.06,0,0,1-1.58-2.58,9.66,9.66,0,0,0-.46-.94c-.17-.19-.69-.14-1-.09a3.12,3.12,0,0,1-2.82-1.05,4.37,4.37,0,0,1-.81-4.16l.06-.23.13-.2c.54-.79,1.81-3.07,2-3.43.46-1,1.56-1.33,4.9-1.41a47.76,47.76,0,0,0,5.09-.44h0l0-.08a12.08,12.08,0,0,1-.68-1.93,18.06,18.06,0,0,1-3.23-.69,7.36,7.36,0,0,1-1-.5,2.26,2.26,0,0,0-.26-.14l-.12,0c-.39.13-.74.28-1.06.42a7.33,7.33,0,0,1-1.81.6,5.6,5.6,0,0,0-1.11.3l-1.12.45-.63-1c-3.34-5.49-3.34-5.79-3.34-6.24v-.12A4.69,4.69,0,0,1,87.61,124l.54-.1.65-.13a32.07,32.07,0,0,0-2.4-5.18l0,0-1.52,1.9-.9-2.26c0-.1-.09-.21-.14-.31a2.82,2.82,0,0,1-.26-2.51,1.83,1.83,0,0,1,.18-.3l-.85.25L82.5,114c-.13-.44-1.18-4-1.54-5.46a37.28,37.28,0,0,0-6.19-5.26h-2.1l-1.08-3.94-2.69.27,4.21-3.08.59-.41.4-.27c-.7-.42-1.64-.84-2.06-1a6.21,6.21,0,0,0-2.61-.42c.15,1.47.13,3.67-1.09,4.84l-.23.2c-.63.55-2.1,1.83-3.47.78l-.33-.26a7.67,7.67,0,0,0-1.37-.9,10.52,10.52,0,0,0-1.64-.52c0,.15.08.22.08.22l2.5,6-4.76-4.36c-.47-.43-1.09-.94-1.7-1.43s-1.15-.94-1.53-1.29-.46-.46-.67-.67a5.63,5.63,0,0,0-.7-.66l-1.92-.89L54.16,94c.51-.47,1.1-1,1.7-1.48a19.77,19.77,0,0,0,2.35-2.18c0-.08-.14-.22-.51-.42A10.29,10.29,0,0,1,55,88l-2-1.83,2.66-.6.89-.19a13.29,13.29,0,0,0,2.39-.64.55.55,0,0,0-.1.09L60,85.92l-.75-1.69c-.25.11-.3.23-.3.26a1.65,1.65,0,0,0-.19-.77,17.42,17.42,0,0,1-1-6.64l.07-.26a4.35,4.35,0,0,1,2.61-2.47c.87-1.21.93-1.84.88-2l-.8-1.77c-1.33.94-5.44,3.26-5.62,3.36l-1.26.71L53,73.38a9.65,9.65,0,0,1-.5-1.06,3.7,3.7,0,0,1-.65-.79c-.07-.1-.17-.26-.25-.35l-.75.27-.73-.58a10.18,10.18,0,0,1-1.61-2.42c-.17-.32-.43-.79-.56-1l-.39-.28a19.94,19.94,0,0,1-2.42-1.88c-.26-.26-.57-.55-.88-.84A17.1,17.1,0,0,1,42.7,62.9l-1.24-1.58,1.91-.64A29.14,29.14,0,0,1,46.65,60c.77-.14,1.89-.35,2.37-.49a3.33,3.33,0,0,0-.21-1.8c-.06-.13-.18-.4-.3-.7s-.33-.82-.52-1.17l-1.44,1-.31-2.24A28,28,0,0,1,46.88,48c.56-2.75,1.61-5,2.81-6.08.33-.29,1.35-1.62,4.36-6.3l.39-.6c.13-.24.25-.5.38-.77A8,8,0,0,1,58.56,30a50,50,0,0,0,6-5.39c.08-.09,8.16-8.89,10.15-9.74.38-.16,1-.4,1.68-.66a33.28,33.28,0,0,0,4.63-2c.77-.6,3.72-1.82,9.23-4,1.19-.47,2.13-.85,2.49-1a10.47,10.47,0,0,0,1-.61c1.4-.94,3.74-2.52,6.44-.95l.2.14c.5.43,3,2,4.75,3.08s3.24,2,3.79,2.45,1.8,1.11,3.05,1.81,2.54,1.43,3.42,2,2,1.36,3.16,2.21c1.38,1,2.8,2,3.89,2.71.75.5,2.09,1.44,3.64,2.53,2.69,1.9,6,4.27,7.35,5,1.13.64,3.72,2.47,6.46,4.42,2.56,1.82,5.21,3.69,6.21,4.26,1.17.66,3.12,2,4.84,3.27,1.11.79,2.48,1.77,2.9,2l.28.05c1.8.34,7.27,1.35,9.52,5.37l.64.89a87.65,87.65,0,0,1,6.18,9.11c.37.79,1.92,3.36,3.43,5.84a83.26,83.26,0,0,1,4.41,7.67,51.16,51.16,0,0,0,3.11,5.06c1.18,1.8,2.21,3.35,2.63,4.21.68,1.37,4.11,7,5.75,9.66l.9,1.47c.55,1,10.5,16.76,11.82,18.61.26.34,1.55,1.91,3.19,3.9,5.5,6.68,10.51,12.8,11.43,14.25l.93,1.2c2,2.62,6.22,8.07,7.72,9.79.74.85,2.94,3.57,5.49,6.71,3.62,4.47,8.57,10.58,9.46,11.45l.13.14c2.39,3.07,5.27,6.8,5.92,7.83a3,3,0,0,1,.38,2.78l-.15.31-.62,1c-1.19,1.92-2.4,3.85-3,4.61l-.1.12c-3.87,5-4.91,6.57-5.19,7s-.42.79-.58,1.15a6.6,6.6,0,0,1-1.89,2.65c-1.83,1.45-3,1-4.55.13a12.15,12.15,0,0,1-3-2.38l-.37-.37a12.06,12.06,0,0,0-2.73-2.27l-.32-.14-.22.09-.62.25c-.91.33-7.62,4.37-9,5.36a2.34,2.34,0,0,0-1,3,2.9,2.9,0,0,0,1.32,2.1c.73.29,1.71-.25,2.41-.74l.27-.19.32-.05c.08,0,7.67-1.17,11.11,1.06.32.23.57.39.82.55a5.5,5.5,0,0,1,3,5.32l0,.28c0,.15,0,.35-.07.58-.14,1.43-.39,4.09-2.74,5-2.08,1-3.44,1.61-5.58.89l-1-.35c-1.28-.45-4.66-1.66-5.59-1.52l-.17,0-.17,0-.69-.08c-4.41-.55-5.64-.25-6,0a1,1,0,0,0,0,.71,1.38,1.38,0,0,0,.8.71,5.14,5.14,0,0,1,3.59,4l.05.22c.41,1.67.87,3.57,2.18,4.17.52.24,1,.47,1.4.69a8.45,8.45,0,0,0,3.34,1.14,12.21,12.21,0,0,0,2.22-.18c2.56-.34,6.06-.82,7.49,2l.19.38,0,.42a45,45,0,0,0,1.08,5c.29,1.19.53,2.13.63,2.69a6.1,6.1,0,0,0,.77.1,7.94,7.94,0,0,1,1.21.18,8.27,8.27,0,0,0,.87.12,8.64,8.64,0,0,1,5.51,2.19c.47.38,1,.39,2,.37a6.39,6.39,0,0,1,3.68.74,17.52,17.52,0,0,1,4.08,4.13l.48.61a13.16,13.16,0,0,0,5.38,3.36,18,18,0,0,1,5.93,2.58,6.12,6.12,0,0,0,1.82,1,8.36,8.36,0,0,1,.94.37c1.23.58,1.91,2.22,2.43,5.85,0,.22.05.47.08.75a5.7,5.7,0,0,0,1.69,4.16c2.16,2,3.61,3.38,4.41,4.29a9.5,9.5,0,0,1,.82,1.12l.22.34c.33-.17.77-.42,1.15-.64,2.89-1.65,5.66-3.1,7.79-2.73a9.14,9.14,0,0,1,6,3.65l.12.24a50.87,50.87,0,0,1,1.5,5.07l.24.91c.12.45.35,1.05.61,1.75a21.45,21.45,0,0,1,1.65,6.58,22.49,22.49,0,0,1-.09,3.18,6.2,6.2,0,0,0,.07,2.16c.05.26.1.56.16.87.18,1.11.44,2.62,1.12,3.09.1.07.4.28,1.24.11l3-.61-1.44,2.67s0,.19,0,.35a6.14,6.14,0,0,1-2.67,4.49c-.06.22-.13.42-.19.61-.32,1-.59,1.79.65,4.21l0,.1.33.79c1.2,2.93,1.46,3.21,2.78,3.17,2.58-.07,4.65,0,6.09.94a2.64,2.64,0,0,1,1.27,1.86,3,3,0,0,1-1,2.36l-.17.16a6.35,6.35,0,0,1-1.36.69,9.35,9.35,0,0,0-1.77.9,7.57,7.57,0,0,1-2.13,2.3,10.07,10.07,0,0,0-1.22,1.13,3.58,3.58,0,0,1-.92,1c-.82.7-1.94,1.64-1.71,4.91a6.92,6.92,0,0,1,.74,3.27c0,.23,0,.47,0,.75a2.72,2.72,0,0,1-1.05,2.52c-.19.17-.24.21-.27.3a7.93,7.93,0,0,1-1.93,2.27,14.25,14.25,0,0,0-1.28,1.31v.59l-.27.15.18.22a19.16,19.16,0,0,1,2.05,2.61l.89,1.33-1.43.72-.43.2c-.15.07-.36.16-.48.23.14.73.25,1.49.32,1.95l.11.8L294,331a1.9,1.9,0,0,1-1.82.76,2,2,0,0,1-1.35-1.06l-.1.13a16.13,16.13,0,0,1-2.22,2l3,.29-2.32,2.15a13.51,13.51,0,0,0-3.88,8.35l-.05,1.31-1.31,0Zm-8.36-4a41.13,41.13,0,0,1,4.56.62l2.58.41a16,16,0,0,1,3.15-7.12,2.29,2.29,0,0,1-.9-1.1,1.83,1.83,0,0,1,.46-1.95c.22-.22.58-.52,1.15-1s1.5-1.23,1.92-1.67a2.84,2.84,0,0,1,2.44-1.83h.35a2.58,2.58,0,0,1,1-1.8,10.93,10.93,0,0,0-.83-1,3.3,3.3,0,0,1-1.09-2.74,2.33,2.33,0,0,1,.55-1.18,8.15,8.15,0,0,1,2-2.37,11,11,0,0,0,1.27-1.33,3.42,3.42,0,0,1,1-1.32l.1-.09v0c0-.36,0-.67,0-1a4.42,4.42,0,0,0-.58-2.32l-.11-.24,0-.26c-.42-4.93,1.6-6.64,2.69-7.56a3.91,3.91,0,0,0,.3-.26,8.31,8.31,0,0,1,1.84-1.88,10,10,0,0,0,1.38-1.3c.43-1.15,1.92-1.78,3.25-2.34l.57-.25a12,12,0,0,0-4.16-.32c-3.44.14-4.38-2.2-5.5-4.92l-.3-.72c-1.63-3.18-1.31-4.82-.8-6.35a4.87,4.87,0,0,0,.22-.78l.1-.65.56-.35a3.45,3.45,0,0,0,1.7-2,3.75,3.75,0,0,1-1.36-.58c-1.67-1.15-2-3.35-2.31-5,0-.28-.09-.54-.14-.77a8.93,8.93,0,0,1-.11-3,19.88,19.88,0,0,0,.08-2.82,19,19,0,0,0-1.47-5.69c-.29-.77-.54-1.43-.69-2l-.24-.92c-.4-1.51-.93-3.55-1.33-4.59a6.43,6.43,0,0,0-4-2.29c-1.29-.22-4.39,1.55-5.89,2.4s-2,1.17-2.69,1.17a3,3,0,0,1-2.47-1.77,7.21,7.21,0,0,0-.58-.8c-.72-.82-2.13-2.19-4.19-4.07a8.42,8.42,0,0,1-2.6-6c0-.22,0-.42-.06-.59-.39-2.74-.79-3.53-.94-3.73s-.37-.15-.54-.2a8.85,8.85,0,0,1-2.51-1.31,15.41,15.41,0,0,0-5.1-2.19,15.85,15.85,0,0,1-6.82-4.31l-.51-.65a15,15,0,0,0-3.35-3.47,3.81,3.81,0,0,0-2.1-.3,5.33,5.33,0,0,1-4-1.09l-.09-.08a5.94,5.94,0,0,0-3.83-1.4,9.5,9.5,0,0,1-1.25-.19,5.79,5.79,0,0,0-.78-.1c-1-.09-2.94-.27-3.29-2.37-.07-.43-.33-1.47-.6-2.56a41.34,41.34,0,0,1-1.15-5.43c-.71-.76-2.77-.49-4.44-.26a13,13,0,0,1-2.89.19,11,11,0,0,1-4.34-1.44c-.39-.2-.81-.42-1.3-.64-2.56-1.18-3.25-4-3.75-6.08l-.05-.22c-.31-1.28-.74-1.52-1.92-2a4.14,4.14,0,0,1-2.36-2.3,3.84,3.84,0,0,1,.15-3.06l0-.09c1.23-2.16,5-1.88,8.79-1.41l.52.06c1.49-.09,3.92.7,6.69,1.68l1,.34c1,.35,1.54.14,3.48-.77l.14-.06c.75-.28.89-1.71,1-2.66,0-.27.05-.5.08-.7,0-1.72-.57-2.07-1.74-2.82-.29-.19-.59-.38-.89-.6-1.71-1.11-6.36-1-8.74-.64-2.16,1.42-3.79,1.27-4.8.87a5.41,5.41,0,0,1-3-4.1,5.09,5.09,0,0,1,2.13-5.91,105.4,105.4,0,0,1,9.69-5.74l.51-.2a2.87,2.87,0,0,1,2.82.09,13.8,13.8,0,0,1,3.54,2.83l.39.39A9.38,9.38,0,0,0,232.4,182a4.1,4.1,0,0,0,1,.45,3.27,3.27,0,0,0,.46-.32,4,4,0,0,0,1.08-1.64c.19-.41.41-.87.7-1.37.56-1,2.32-3.36,5.39-7.35l.1-.12c.55-.71,2-3.1,2.82-4.38l.54-.87-.17-.26c-.3-.5-3.49-4.66-5.68-7.48-1-1.06-4.65-5.5-9.61-11.62-2.53-3.12-4.71-5.82-5.42-6.63-1.56-1.78-5.8-7.28-7.83-9.92l-1.07-1.4c-.71-1.2-7.55-9.51-11.23-14-1.72-2.09-3-3.59-3.27-4-1.4-1.95-11.42-17.78-12-18.9l-.85-1.39c-1.79-2.93-5.13-8.4-5.87-9.87-.35-.71-1.43-2.34-2.47-3.92a41.33,41.33,0,0,1-3.41-5.64c-.27-.74-2.52-4.46-4.17-7.18s-3.13-5.18-3.57-6.1a97.72,97.72,0,0,0-5.9-8.65l-.8-1.12c-1.58-2.9-6.11-3.75-7.6-4l-.62-.13c-.5-.15-1.14-.58-3.69-2.4-1.66-1.18-3.55-2.53-4.58-3.11s-3.72-2.47-6.46-4.42C135.6,32.47,133,30.59,132,30c-1.43-.81-4.71-3.12-7.59-5.16-1.53-1.08-2.85-2-3.57-2.49-1.12-.74-2.57-1.77-4-2.76-1.17-.83-2.29-1.63-3.09-2.16s-2-1.22-3.23-1.9a36.09,36.09,0,0,1-3.38-2c-.45-.34-2-1.34-3.58-2.3C101,9.67,99.29,8.57,98.58,8c-1-.54-1.84-.11-3.34.9a11.56,11.56,0,0,1-1.36.83c-.42.19-1.4.58-2.64,1.07-2.34.93-7.81,3.1-8.55,3.63a27.1,27.1,0,0,1-5.34,2.42c-.65.25-1.22.47-1.58.62-1.11.58-7.25,6.87-9.14,9a51.28,51.28,0,0,1-6.55,5.91l-.26.15c-1.28.55-1.85,1.72-2.45,3-.16.33-.31.64-.47.93l-.06.1-.41.64c-2.31,3.6-4,6.14-4.87,6.89a9.4,9.4,0,0,0-1.91,4.53,35.52,35.52,0,0,0-.59,4.35c1.09.52,1.63,1.86,2.07,3,.09.24.18.45.26.62.85,2.12.67,4.69-1,5.47a17,17,0,0,1-3.2.75l-.5.09.48.47a18.59,18.59,0,0,0,2,1.56l.56.4A5.45,5.45,0,0,1,51,67.1c.2.36.46.84.69,1.22a3.18,3.18,0,0,1,2.5,1.64l.14.2a1.85,1.85,0,0,1,.53.57c1.43-.82,3.33-1.94,4-2.42a2.76,2.76,0,0,1,3.74.18l.17.18.1.22S63.38,70,64,71.27c.56,1.46,0,3.17-1.49,5.14l-.26.33-.4.14a2.18,2.18,0,0,0-1.25.82,16.69,16.69,0,0,0,.82,4.92c.93,2.16.14,3.46-.61,4l.11.1a3.5,3.5,0,0,1-1.58.87,3,3,0,0,1,1.64,3.53c-.26,1-1.35,2-3.26,3.58l-.41.35c.18.18.36.38.56.56s.46.4.77.66c1.36-1.27,4-.41,5.52.23l.13.07a11.42,11.42,0,0,1,1.64,1.05l.34-.29.21-.18a5.56,5.56,0,0,0,.13-2.75,2.25,2.25,0,0,1,.87-2.18c1.62-1.23,4.79-.4,5.77,0a14.15,14.15,0,0,1,3.41,1.93l.35.3.1.45a2.76,2.76,0,0,1-.55,2.54v0a2.92,2.92,0,0,1-.21,2.58,3,3,0,0,1-.48.59c2.25,1,6.93,5.52,7.58,6.41l.18.24.06.29c.13.63.73,2.71,1.17,4.26l.46-.1a2.16,2.16,0,0,1,2.46,1.15,2.37,2.37,0,0,1,.82,2.13,1.78,1.78,0,0,1-.62,1l.19.16c1.19,1.08,3.21,6,3.44,6.94.51,2.87-1.63,3.26-2.91,3.5l-.51.1a2,2,0,0,0-1.34,1c.39.74,1.32,2.33,2.25,3.87l.58-.11a5.46,5.46,0,0,0,1.1-.4c.4-.17.83-.36,1.29-.51a2.93,2.93,0,0,1,2.66.32,4.69,4.69,0,0,0,.66.32,21.05,21.05,0,0,0,3.53.65l1,.11.21,1a12.89,12.89,0,0,0,.67,2.2,2.78,2.78,0,0,1,.21,2.59,2.92,2.92,0,0,1-2.17,1.58,50.93,50.93,0,0,1-5.56.49,16.78,16.78,0,0,0-2.62.2c-.43.81-1.3,2.35-1.83,3.17a1.59,1.59,0,0,0,.18,1.26.5.5,0,0,0,.29.21,3.64,3.64,0,0,1,3.62,1.06,7,7,0,0,1,.87,1.59,8,8,0,0,0,.9,1.65,6,6,0,0,1,1.51,2.67l1-.31c.89-.28,1.81-.57,2.32-.78l.26-.11h.4a2.37,2.37,0,0,1,2.15.85,2.45,2.45,0,0,1,.06,2.29c-.49,1.49-2,2.28-3,2.8l-.51.28a16.32,16.32,0,0,0-.4,3.14l3.39,1.48,1.19.55a3.62,3.62,0,0,1,1.72,2.59l1.22.13a28.5,28.5,0,0,1,5.13,1.15l.12,0c1.17.51,3.74,3,4.53,3.77a14.42,14.42,0,0,0,4.55.26h.2a3.42,3.42,0,0,1,2.59,1.27,2.61,2.61,0,0,1,.45,2l-.68,3c3.18-1.09,8.46-2.91,9-3.12l.29-.11.31,0a6.73,6.73,0,0,1,4.05,2.31,2.26,2.26,0,0,1,.56,1.76c-.49,2.76-4.37,2.49-5.83,2.39-1.06-.07-5.42,1.39-7.82,2.28a40,40,0,0,1,2.38,4.21,3.84,3.84,0,0,0,.54-.21l.12-.05c1.79-1.34,9-5.58,9.64-5.93a2.79,2.79,0,0,1,3-.29,2.57,2.57,0,0,1,1.07,2.36l0,.23-.09.22L139,184.89l.18.1c.64-1.32,1.58-3.26,2-4,.43-1.95,1.56-2.84,3.41-2.66h.15c1.52.08,2.94,1.67,3.65,2.62l.46.61-.21.59a9.92,9.92,0,0,0,.32,1.16,14.65,14.65,0,0,1,.52,2l0,.13v.13c0,1.19-1,3.32-2.26,6-.27.58-.5,1.06-.63,1.37a5.88,5.88,0,0,1,4.82,1.13c2.9,1.9,1.73,5.39,1.31,6.61.16.26.42.64.69,1a19.22,19.22,0,0,1,2.63-.59,9.26,9.26,0,0,1,6.44.1l.2.09.16.15a2.66,2.66,0,0,0,1.27-.25,3.19,3.19,0,0,1,3.28-1l.19,0c.27-.19.59-.38.95-.59a9.14,9.14,0,0,0,1.31-.87,5.26,5.26,0,0,0,.39-.68c.11-.21.23-.45.42-.78.56-1,2.11-2.21,5.16-3.87,2.26-1.23,6.22-.67,7.84.24a2.55,2.55,0,0,1,1.49,2,3.74,3.74,0,0,1-1.4,3l-1.26,1.16c-2.29,2.13-6.57,6.09-7.79,7.11l-.16.11a.9.9,0,0,0-.27.23h0a1.84,1.84,0,0,0,.33.56,17.61,17.61,0,0,1,1.77,5.49,9.41,9.41,0,0,0,.48,2.09,9.53,9.53,0,0,1,3.11,5.1,4.42,4.42,0,0,1,1.45.55l.27.22c2.36,2.47.09,4.73-.66,5.47l-.25.25a1.86,1.86,0,0,0,0,.41,4.91,4.91,0,0,1,3.94,1.79l.18.23.08.28a3,3,0,0,1-.18,2.07c1.09.77,3.79,2.61,6.34,4.32.21-.05.5-.13.87-.26,1.38-.63,3.84-1.18,5.37,1.72a3.32,3.32,0,0,1,1,2.69,2,2,0,0,1-1.12,1.34,12.76,12.76,0,0,1-1.55.56l-1,.32a2,2,0,0,0,.28,1,4.72,4.72,0,0,0,.62,0,27.12,27.12,0,0,0,6-2.21,3.31,3.31,0,0,1,2.75-.4,2.4,2.4,0,0,1,1.32,1.61c.53,1.72,1,3.77.58,5.23l-.07.18a14.82,14.82,0,0,0-.7,3.17c.68-.24,1.41-.51,1.74-.65.89-.4,5-2.48,5.9-3a2.48,2.48,0,0,1,1.73-.53,4.35,4.35,0,0,1,2.74,1.52c1,1.13,1.74,5.34,1.74,6.19a2.13,2.13,0,0,1-1.27,2.08,1.34,1.34,0,0,0-.33.22c-.81.78-5.74,3.37-7.89,4.4a3.91,3.91,0,0,1,.48.4,1.12,1.12,0,0,0,.15.14c1.12.75,1.35,1.76,1.64,3l0,.12v.07l.19,0c1.89.45,2.94,2.87,3.42,4.41a4.7,4.7,0,0,1,3.31,0c1.47-.61,3.14.31,4.41,1,.31.17.62.34.91.48a16.44,16.44,0,0,1,6.47,4.93,11.9,11.9,0,0,1,2.16,4.53h0c-.06-.48-.11-.88-.14-1.14-.53-2.44-.5-3.68.12-4.54a2.75,2.75,0,0,1,2.12-1l.47-.06.34.14a3.61,3.61,0,0,0,2.25.06c.35-.06.71-.12,1.09-.16l.51-.05.42.28c1.76,1.16,1.92,3.07.5,5.68-.06.1-.1.18-.13.25-.24.54-2.41,6.83-2.72,8.39a32.72,32.72,0,0,1-1.69,4.63,33.59,33.59,0,0,0-1.35,3.57,5.3,5.3,0,0,0,.46,2.7,5.29,5.29,0,0,1,.69,1.61,6.3,6.3,0,0,0,.75,1.76c.45.14,1.4-.34,1.87-1.13a69.53,69.53,0,0,1,8-8.7,3.44,3.44,0,0,1,3-1.21,2.52,2.52,0,0,1,1.68,1.84l.09.29c.18.79,2.1,3.37,3.71,4.89.27-.44.62-1,1.08-1.65-.34-.52-.77-1.18-1.06-1.69l-.13-.31a3.29,3.29,0,0,1,.61-3.53c1.5-1.48,4.31-.88,5.85-.4s3,1,3.31,2.81l0,.24,0,.24c-.11.67-.7,1.68-3.18,5.39l-.62.94h.78a4.5,4.5,0,0,1,4.16,3.25,7.91,7.91,0,0,0,1.62,2.32l.21.17.19.28a2.73,2.73,0,0,1,.27,2.23,3.82,3.82,0,0,1-1.41,1.83l.31.52a14.43,14.43,0,0,0,1.6,2.36c.82.75,1.2,2,1.12,3.85a3,3,0,0,1,1.73,1.28,2.6,2.6,0,0,1,.06,2.56c-.74,1.41-5.43,4.35-6.39,4.9a4.46,4.46,0,0,0-1,2.78c.07.74.13,2.43-1.05,3.28a2.7,2.7,0,0,1-2.59.18,7.18,7.18,0,0,0-1.07,1.67,5.16,5.16,0,0,0,2.15,3.95,4.16,4.16,0,0,0,2.47-.17,4.66,4.66,0,0,1,3.3-2.87l.12,0c3.18-.58,3.77,2.13,4,3.16a5.71,5.71,0,0,0,.19.74,8.6,8.6,0,0,0,3.75,2.2Zm21.92-37h0Zm.05-.08h0Zm-37.17-2.23Zm-25.06-25.07a11.46,11.46,0,0,0,.33,2.16l0,.17c0,.23.07.65.14,1.15.25,2,.36,3.07.38,3.71.75-2.3,1.6-4.72,1.78-5.11,0-.11.13-.26.23-.44a3.72,3.72,0,0,0,.62-1.61l-.16,0A6.52,6.52,0,0,1,235.25,276.67Zm-19.33-6.24,0,.07Zm60-15.19ZM194,242.69Zm-16-8.07c0,.21.1.45.17.71l.87-.87-.11,0Zm2.6-7.56h0ZM132.5,175.79l-2.77,1a7.4,7.4,0,0,1,1.73-.19,10.38,10.38,0,0,0,2.38,0A4.61,4.61,0,0,0,132.5,175.79ZM98.89,156.52ZM69.38,94h0ZM58.2,90.39h0Zm0-.1ZM54.37,70.2Z"/></svg>