<svg id="Layer_2" data-name="Layer 2" xmlns="http://www.w3.org/2000/svg" viewBox="0 0 350 350"><defs><style>.cls-1{fill:#999;}.cls-2{fill:#f90;}</style></defs><title>M_</title><path class="cls-1" d="M297.17,218.88a3.39,3.39,0,0,0-1.1-2.08c-.72-.62-2.1-.71-2.93-1.4a5.53,5.53,0,0,1-.94-1,1.83,1.83,0,0,1-1.36-2.32c.07-.29.16-.58.24-.87-.23-2.56.9-5.7.63-8.05-1.76.91-3.61,1.55-5.35.78-1.92-.85-3.45-3.89-2.43-5.89.67-1.32,2.25-1.78,4.16-1.83a2,2,0,0,1,.92-.1c.26,0,.51.09.77.14,3.45.27,7.4,1.4,9.19,1.47.65,0,3.13.26,3.64-.13,1.13-.88-.2-.87-.81-1.56a19.69,19.69,0,0,1-2.8-3.64c-2.45-4.54-3.18-10.21-4.43-15.16a66.5,66.5,0,0,1-2.12-15.47c-.08-6.54.62-13.06-.28-19.56-1.64-4-4.65-4.08-3.74-5s7.32-7.32,8.11-10.07-.58-11.16-.43-12.61,2.39-6.23,2.32-9.93,0-9.2-.65-11.88,2.61-18.26,2.75-20.14,1.09-8.11,2.61-9.35.72-1.23-.94-1.23c-4.35,0-1.52-2.68-1.52-2.68,1.16-1.45,2-5,.07-8.84S295.7,39,294,37.52a67.83,67.83,0,0,1-6.74-7.61c-.8-1.3-.51-2.46-1.3-3.91a6.12,6.12,0,0,0-4.49-2.68c-1.67-.14-.43,4.42-3.91,4.49s-1.88-2.75-2.61-2.46c-.5.2-1.53,1.69-2.16,1.5a9.26,9.26,0,0,1-.92,2.42l-17.24-.51,2.43.14-.29,2.35,2.35-.07s1.3,3.69.51,4.09-2.25,3.66-3,4.42A7.53,7.53,0,0,1,253,41.62c-1,0-.83-1.85-1.2-3.22s-2-.94-3.84-.47-3.08,2.39-4.13,4.31-.83,1.45-3.08,1.41c-4.35-2-11.52-3-11.52-3-4.75-2-7.25-1.45-8.91-.69s-1.88,1.49-2.17,3.55c-.14,2.46-1.27,1.67-4.27,1.78s-.3-2.33-.09-2.52c-.28.25-4.54,4.08-6.47,2s-1.16-4.53.76-6c.25-.76-1.16-3.73-3.19-5-.14,2-1.49,4-2.57,6.7S196.65,45,196.55,45s-4.09-2.17-5.07-2.72a12.47,12.47,0,0,1-10.4.25s-7.21-.83-8.37-1.05-1.34.83-2.79,1.09-2.43-.11-5.43.25-3-1.88-2-3.84c-1.52.4-3-3.44-3-3.66a15.65,15.65,0,0,1-.18-4.09c.33-1.41,6.92.43,7.72,1.05s4.13,2.21,5.54,2.21,2.5-.14-.36-4.67-4.67-3.62-4.67-3.62a13.12,13.12,0,0,0-4.06,2.21c-1.81,1.52-3.22-.29-3.15-1.52s1.12-2.21,1.49-4.31-.8-2.75-2.93-3.44a6.37,6.37,0,0,1-3.66-2.32c-1.45-1.45-.65-1-2-3.51s-1.23-1.67-2.75-1.49-2.72,2.43-3.73,4.13-.07,4.56-.07,4.56-3.7,4.13-4.31,4.67S140.65,28,138,24.7s0-4.71.62-5.43c-1.12,0-2.21,0-2.75,1.74s-1.38,3.55-3.3,3.26-2.9-.14-3.91-1.3-2.61-.87-3.66.29-2.68,4.42-4.53,8.59-8.15,5.07-9.89,5.76a52.39,52.39,0,0,1-7,1.49s-.22,13-.33,16.08,5.4,11,5.4,11L95.48,71.21l-6.41,1.34L90.19,74c1.12,1.41,2.43,10.76,2.14,12.43s-1,2,.4,3.51c2.28,1.56,1.3,3.73,1.81,5.87s.18,2.28,1.63,3.8.18,4.46-.33,5.33-4.31,3-4.67,4,.33,3-.69,4.38-.94,1.56-.33,2.68,1.7,2.72.36,3.73-1,2.61-1.38,3.44S84,125,82.44,125.08s-1.38.62-1.34,2.14a3.66,3.66,0,0,1-2,3.37c.07,1.85-.33,2.83-2.35,3.8-4.38,0-1.81,2.61-2.61,3.77s-2.21,2.86-4.24,5.76-1.16,11.66-1.34,14.89,1.23,4.56,2.5,6.27.4,9.6.4,9.6S71,189.05,71,190.5s1.63,1.74,1.74,3.62a7.29,7.29,0,0,1-2.1,4.78A6.89,6.89,0,0,0,69,202a12.75,12.75,0,0,1-1.63,3.33c-.22.11-3.33,3.37-3.33,3.37s0,1.52.33,5.18a23.06,23.06,0,0,1-.62,7s-6.34,7-7.25,7.75-4.56-.43-5.36,1,.36,12.93,0,16.59-2.43,2.25-3.66,3.12S45.7,253.1,46.21,257s3.33,2.54,5.43,2.75c1.23.72,1.27,5.25,1.27,6.09s.18,16.59,0,18-.36,8.51-.4,11.7c1.56-.54,6.27.07,8.11.83s3.22.94,3.08,3.08c1.38,0,1.45,1.23.43,2.93s0,3.84-1.16,4.67-1.38,0-3.3,1.3-2.35,5.76-2.61,7.72.69,3,2.83,3.3c3.69-.43,11.92,4.09,13,4.56s6.56.83,6.56.83a4.2,4.2,0,0,0,0,1.56c.14,2.21,2.1,1.3,3.19-.94.94.36,4.46-1,5.54-1s2.21,2.21,2.14,3.8-.76,3.08-2,3.33-1.74,0-1.09.8,2.21,1.45,4.35,2.1,2.28,2.68,3.51,3.37a4,4,0,0,0,3.48.43c1.12-.4,1.27-3.48,1.27-3.48s1.34,1.12,2.83-2.75,2.61-3.95,4.27-3.66,4.2,2.35,6.52,2.21,4.71-1.3,6.63-1.67c-.07-1.12-.25-10-.25-10.11s0-7,.29-8.19,3-1.3,3.12-2.43a5,5,0,0,1,1.34-3.26c.83-.65,3.84,0,4-2s-2.1-2.35-5-3c-3-1.67-1-3.77,1.81-3.69-1.09-1.63,3.62-8.59,3.48-9.89s0-3.66-.65-9.31,4.24-3.95,6.23-3.8,3.73.29,5.51,2.5c-2.5-6.7,1.49-5.29,2.9-5.51s2.17-2.17,2.87-2.17,1.12,1,.36,1.92-.18,2.35.54,3.22,2.83,2.35,4.13,1.56c-.54-5.9,4.78-4.56,4.75-4.46s4.71,2.14,6.85,2.06,4,1.49,4,2.32.11,4,0,4.82a11.3,11.3,0,0,0,.8,3.69,2.93,2.93,0,0,1,2.21,3.77c-.83,3-1.85-.72-2.1-.65a14.91,14.91,0,0,0-2.32-.36c-.33,1.67,2,4.78,3.15,5.18,2.15-2.47,3.6-.57,4.39,1l-.11-.39c-.62-2.72,1.38-2.61,3.55-3s4.46,2.39,7,3.59a10.81,10.81,0,0,1-2.14-2.5c-1.63-3.8.51-4,2.06-4.53,2.39-1.16,1.09-2.32.65-3.55.43-3.26,6.59-1.09,8-.69s3.44-.11,3.12-1-1.74-.43-3.41-.69c-1.23-3.84,1.92-4.49,4.56-4.53s2.43-1.67,2.43-2.75,0-1.63-.62-1.85-1.38,1.78-2.57,1.34c-1.78-1.67.8-3,.8-3s1.41-1.23,1.41-2.35a4.92,4.92,0,0,1-2.5-1.09c-1.78-2.79-.25-5.18,1-6.41s2.21.94,3,1.81c.16-3.3,2.22-2.18,4.23-1.33-2.12-1.1-1.85-4-.24-4.72s4.82-.87,4.56-2.57-1.59-1.77-2.39-3.84c-.22-2.86,3.37.4,3.8.36s4.53-3.51,4.53-4-.4-1.88-1.56-1.56c-3-1.2-.94-4.35,2.32-4.13s5.8,3.88,5.8,3.88,2.79.69,2.68.29a8.68,8.68,0,0,1,1.7-3.91c.8-.72.8-1.67.94-2.83-1.88-3.26.07-5.54,2.64-6.92,4.42-.94,7.72,4.56,7.72,4.56,1.74.47,3.37.65,2.9,2.17s-1.38.87-1.67,4.67,1.78,6.74,5.07,9.09c2.46,4,5.4,1.27,5.4,1.27,3.37-1.81,6.38-8.19,6.92-9.06s.83-7.79.11-9.78-2.32-2.39-1.81-4.17c2.54-1,2.61-2.83,5-4.78,2.72-3.77,7.39-1,8.77,0s1.34,2.21,2.57,5.29,1.85,2.75,3.62,2.9,6-1.34,8-1,4.09,1.81,5.51,1.81,5.47-1.45,5.54-2.39-1.45-.83-1.92-2.37c-.43-1.9,1.45-5.93,3.33-5.93a8.53,8.53,0,0,1,2.41.38A10.56,10.56,0,0,1,297.17,218.88Z"/><path class="cls-2" d="M97.29,339.9a6,6,0,0,1-2.94-.83,4.86,4.86,0,0,1-1.66-1.78c-.51-.79-.83-1.24-1.57-1.47-2.66-.81-4.2-1.59-5-2.53a1.89,1.89,0,0,1-.53-1.93,1.86,1.86,0,0,1,1.73-1.07c.18,0,.42-.05.69-.11s.84-.85.89-2a3.56,3.56,0,0,0-.88-2.32c-.37,0-1.2.27-1.77.42a17.78,17.78,0,0,1-2.81.6c-1,1.55-2.33,2.36-3.54,2.13A2.43,2.43,0,0,1,78,326.5c0-.14,0-.27,0-.39a27.23,27.23,0,0,1-5.67-.85l-1-.5c-2.11-1.06-8.54-4.29-11.26-4l-.19,0-.19,0c-4-.61-4.22-3.32-4-4.88l.05-.41c.41-3.25,1-6.84,3.17-8.29a5.44,5.44,0,0,1,2.7-1.08.88.88,0,0,0,.57-.2,9.3,9.3,0,0,0,0-1,6.35,6.35,0,0,1,.72-3.26,4.77,4.77,0,0,0,.39-.79h-1l0-1.52c.05-.76.05-.8-1.45-1.37l-.76-.3c-1.7-.7-6-1.19-7.11-.81l-1.91.67,0-2c0-.1.12-10,.42-11.9.08-.53.14-3.81,0-16.46,0-.72,0-1.2,0-1.33a15.14,15.14,0,0,0-.54-4.69l-.75,0c-1.69.11-4.84.32-5.4-4s.15-7.77,1.93-9a4,4,0,0,1,2-.62c.83-.09,1-.1,1.07-1.46s0-4.51-.13-7.45c-.27-6.06-.32-8.63.27-9.7.88-1.6,3-1.54,4.49-1.5a9.46,9.46,0,0,0,1.32,0c.73-.67,3.88-4.08,6.75-7.25A21.86,21.86,0,0,0,63,214c-.29-3.66-.33-5.2-.33-5.26v-.59l.41-.43c2.19-2.29,3-3.1,3.38-3.42a14.65,14.65,0,0,0,1.25-2.7,8.1,8.1,0,0,1,2.08-3.8,6.13,6.13,0,0,0,1.56-3.59,1.84,1.84,0,0,0-.63-1.2,3.64,3.64,0,0,1-1.11-2.5c0-1.45.42-15.29.44-15.87v-.11c.42-3.85.36-7.87-.13-8.6l-.45-.59a8.81,8.81,0,0,1-2.33-6.6c0-.77,0-1.91,0-3.23-.1-5.39,0-10,1.6-12.39,1.21-1.73,2.19-3,3-4.06.47-.62.86-1.13,1.17-1.57,0-.13,0-.36-.08-.52a3.25,3.25,0,0,1,.47-2.85A4.12,4.12,0,0,1,76.37,133c1.2-.63,1.33-1.08,1.28-2.33l0-1,.9-.38a2.24,2.24,0,0,0,1.17-2.07v-.41c0-1.1-.12-3,2.68-3.14a22.44,22.44,0,0,0,5.56-1.3c0-.12,0-.28.06-.41a4.65,4.65,0,0,1,1.69-3.36l.08-.07a4.36,4.36,0,0,0-.65-1.52l-.18-.33c-.93-1.69-.84-2.52.44-4.22a3.49,3.49,0,0,0,.29-2,5.54,5.54,0,0,1,.19-2c.33-.93,1.4-1.73,3.11-3a15.3,15.3,0,0,0,1.71-1.34c.51-.88,1.15-2.89.49-3.58a5.21,5.21,0,0,1-1.75-3.31c-.06-.31-.13-.67-.24-1.15a10.6,10.6,0,0,1-.22-2.29c0-1.44-.08-2.1-1-2.73l-.26-.23c-1.44-1.63-1.3-2.62-.95-3.83a7.43,7.43,0,0,0,.21-.87c.26-1.49-1-10.12-1.86-11.31l-2.54-3.2,8.55-1.79,11.49-4.4c-1.73-2.65-4.74-7.68-4.65-10.34.11-3,.32-15.93.33-16.06l0-1.2,1.18-.18a48.81,48.81,0,0,0,6.65-1.4c.4-.16.91-.3,1.57-.48,2.37-.66,6.32-1.77,7.55-4.53,2.87-6.48,4.1-8.22,4.77-9a4.3,4.3,0,0,1,3.14-1.49h0A3.48,3.48,0,0,1,129.76,22c.43.5.74.55,2,.69l1.09.14c.34.05,1,.15,1.73-2.29a3.7,3.7,0,0,1,4.15-2.72l2.83.09-1.77,2.21a5.62,5.62,0,0,1-.53.54c-.86.79-1.47,1.37-.08,3.13.91,1.15,1.36,1.21,1.36,1.21a2.63,2.63,0,0,0,.48-.48,4.92,4.92,0,0,1,.42-.45c.31-.28,2-2.15,3.68-4a7.07,7.07,0,0,1,.42-4.91l.25-.43c1.14-1.94,2.44-4.14,4.53-4.39a3.33,3.33,0,0,0,.6-.14c2-.61,2.73.77,3.57,2.37a14.73,14.73,0,0,1,.95,2.11c.14.39.15.43.79,1.07l.29.29a4.72,4.72,0,0,0,2.81,1.69c1.69.54,4.51,1.45,3.9,5a10.55,10.55,0,0,1-1,3,3.8,3.8,0,0,0-.44,1.19.78.78,0,0,0,.33.59c.09.05.32-.09.49-.24A14.56,14.56,0,0,1,167,24.85c.76-.3,3.28-.79,6.38,4.21,1.92,3,2.38,4.54,1.74,5.7a2.71,2.71,0,0,1-2.59,1.13c-1.92,0-5.58-1.86-6.41-2.51a18.16,18.16,0,0,0-5.48-1.29h0a14.9,14.9,0,0,0,.2,2.43c0,.27.07.46.08.61a7,7,0,0,0,1.42,2.41l2.84-.74-1.4,2.8a2.58,2.58,0,0,0-.41,1.75,1.81,1.81,0,0,0,1,.05,24,24,0,0,1,3.73-.17,8.22,8.22,0,0,0,1.63-.07,1.83,1.83,0,0,0,.84-.41,3,3,0,0,1,2.46-.67c.91.17,6.28.81,8.27,1l.26,0,.23.12a11,11,0,0,0,9.15-.29l.65-.29.62.35c.82.46,3.37,1.82,4.47,2.41,1.15-.52,3.73-2,4.35-3.54.38-.95.79-1.81,1.15-2.58a11.67,11.67,0,0,0,1.32-3.7l.17-2.35,2,1.25c2.32,1.45,4.33,5,3.78,6.65l-.14.41-.34.26A3.18,3.18,0,0,0,207.58,42a2.38,2.38,0,0,0,.76,1.81c.57.61,2.87-.63,4.48-2.09l1.92,2.09-.06.05,1,0c.32,0,.7,0,.94,0a3.55,3.55,0,0,0,.05-.48v-.11c.3-2.17.61-3.56,3-4.64,1.86-.85,4.67-1.55,9.88.6a54.06,54.06,0,0,1,11.46,3l.84,0,.25,0c.12-.2.29-.5.42-.75,1.17-2.13,2.67-4.39,5-5,1.82-.47,4.85-1.26,5.57,1.48a12.37,12.37,0,0,1,.26,1.44c0,.17.05.38.09.57a8.38,8.38,0,0,0,2.12-1.37,13.88,13.88,0,0,0,1.08-1.7,11.69,11.69,0,0,1,1.78-2.59,10.65,10.65,0,0,0-.37-1.75l-2.94.09.31-2.5-.92-.05.13-2.83,16.32.48a11.07,11.07,0,0,0,.43-1.33l.37-1.44,1,.31.44-.41a3.84,3.84,0,0,1,1.2-.92,1.56,1.56,0,0,1,1.47.14,1.8,1.8,0,0,1,.7,1.64,1.88,1.88,0,0,0,0,.48,2,2,0,0,0,.8.11h.1c.82,0,1-.31,1.45-1.86.24-.91.73-2.79,2.61-2.63a7.51,7.51,0,0,1,5.61,3.41,7.81,7.81,0,0,1,.79,2.39,4.24,4.24,0,0,0,.48,1.47,67.24,67.24,0,0,0,6.48,7.3c1.28,1.17,2.84,4.41,5.07,9.22.72,1.56,1.4,3,2,4.15,2.06,4,1.44,8.28-.23,10.37l-.13.14-.18.2a6.24,6.24,0,0,0,.73,0c1.43,0,2.66,0,3.08,1.19s-.66,2.09-1.25,2.56c-.78.66-1.85,5.34-2.09,8.35,0,.59-.29,2-.77,4.63-.78,4.37-2.41,13.46-2,15.07.57,2.36.62,6.45.66,10.06,0,.75,0,1.47,0,2.12a25.54,25.54,0,0,1-1.7,8,17.29,17.29,0,0,0-.63,2.13c0,.35.12,1.9.24,3.13.41,4.19.7,7.81.15,9.73-.69,2.38-4.41,6.55-7.69,9.89a9.73,9.73,0,0,1,3.27,4.22l.09.35a81.21,81.21,0,0,1,.38,13.31c-.06,2.11-.12,4.29-.09,6.43A64.72,64.72,0,0,0,296,176.88c.32,1.28.61,2.6.9,3.95.82,3.78,1.67,7.68,3.4,10.89a15.41,15.41,0,0,0,2.21,2.92l.41.46a2.44,2.44,0,0,0,.33.2,2,2,0,0,1,1.26,1.6,2.16,2.16,0,0,1-1,1.82c-.72.56-1.92.59-4.16.45l-.4,0a27.74,27.74,0,0,1-3.72-.59,48.4,48.4,0,0,0-5.53-.88l-.33-.05-.52-.09a.61.61,0,0,0-.28,0l-.2.07h-.21c-1.61,0-2.6.4-2.94,1.06a2.46,2.46,0,0,0,0,1.88,3.69,3.69,0,0,0,1.71,2.08c1,.45,2.25.23,4.12-.74l1.82-.94.24,2a16.69,16.69,0,0,1-.31,4.34,16.59,16.59,0,0,0-.32,3.74l0,.26-.14.5c-.06.19-.11.38-.16.58a.43.43,0,0,0,.34.61l.49.13.3.41a4.17,4.17,0,0,0,.7.75,4,4,0,0,0,1.09.49,5.42,5.42,0,0,1,1.85.93,4.77,4.77,0,0,1,1.57,2.94l.11.72-.52.51a9.12,9.12,0,0,0-1.77,2.61l-.53,1.11-1.17-.36a7.15,7.15,0,0,0-2-.32c-.06,0-.43.18-.9.86a5.63,5.63,0,0,0-1.06,3.28c.09.26.25.38.64.63a2.39,2.39,0,0,1,1.32,2.21c-.19,2.41-5.87,3.7-7,3.7a8.49,8.49,0,0,1-3.19-.94,11.68,11.68,0,0,0-2.54-.89,15.09,15.09,0,0,0-4,.51,15.47,15.47,0,0,1-3.89.51l-.5,0c-2.13-.12-3.11-.71-4.32-3.75-.39-1-.65-1.76-.87-2.4-.48-1.43-.65-1.86-1.21-2.26-1.09-.77-4.79-3.07-6.8-.29l-.25.27a10.8,10.8,0,0,0-1.9,2.09,8.07,8.07,0,0,1-2.59,2.49,5.62,5.62,0,0,0,.42.57,7.64,7.64,0,0,1,1.32,2.21c.8,2.2.64,9.61-.24,11-.07.12-.19.34-.36.65-1.14,2.11-3.78,7-7,8.82a4.9,4.9,0,0,1-3.65,1.11,5.21,5.21,0,0,1-3.61-2.56c-3.9-2.87-5.73-6.29-5.44-10.19.21-2.72.75-3.59,1.38-4.39a1.7,1.7,0,0,0,.3-.46,11.17,11.17,0,0,0-1.21-.35l-.66-.17-.55-.15-.29-.49s-2.73-4.46-6-3.94a4.76,4.76,0,0,0-2.37,2.46,3.06,3.06,0,0,0,.47,2.4l.24.41-.11.89a4.68,4.68,0,0,1-1.35,3.28,9,9,0,0,0-1.23,2.72l.15.55-.58.65c-.56.57-1.27.71-4,0l-.52-.13-.31-.44c-.6-.86-2.63-3.13-4.73-3.27a2.72,2.72,0,0,0-2,.64.71.71,0,0,0-.24.38.72.72,0,0,0,.27.23,2.32,2.32,0,0,1,1.56.48,3.4,3.4,0,0,1,1.2,2.54c0,1.49-4.92,5.36-5.83,5.43a1.88,1.88,0,0,1-1.15-.33,4.1,4.1,0,0,1,1,2.18c.37,2.46-2.28,3.17-3.87,3.6a12,12,0,0,0-1.53.48,1,1,0,0,0-.43.87,1.37,1.37,0,0,0,.75,1.29l-1.21,2.56-.38-.16a8.27,8.27,0,0,0-1.73-.62,2.91,2.91,0,0,0-.14.88l-.17,3.28-2.27-2.37a9.16,9.16,0,0,1-.71-.88c-.14-.18-.35-.47-.53-.67a3.43,3.43,0,0,0-.68,4.22,3.17,3.17,0,0,0,1.43.59l.36.08,1,.29v1.08a4.34,4.34,0,0,1-1.12,2.62,1.78,1.78,0,0,1,.52.09c1.59.53,1.59,2,1.58,3v.37c0,1,.05,3.9-3.83,4-2.31,0-3,.56-3.26.87a1.36,1.36,0,0,0-.17.91h.45c1,0,2.57,0,3.13,1.51a1.92,1.92,0,0,1-.4,2c-.94,1-3,1.24-4.42.84l-.53-.16c-3-.89-4.86-1.11-5.56-.66l-.06.05.08.17a3.42,3.42,0,0,1,.44,2.73,3.66,3.66,0,0,1-2.06,2l-.15.06-.53.17c-.42.13-1,.33-1.13.51s-.18.47.39,1.84a9.79,9.79,0,0,0,1.57,1.93l-1.3,2.52a18.66,18.66,0,0,1-2.85-1.82c-1.21-.88-2.47-1.79-3.26-1.65l-.82.12a5.37,5.37,0,0,0-1.65.38,1.91,1.91,0,0,0,.06.71l.11.38,3.52,13-6.15-12c-.67-1.32-1.11-1.38-1.12-1.38s-.41.1-.94.7l-.62.71-.89-.3c-1.78-.59-4.58-4.32-4.09-6.8l.19-1,1-.14a5.8,5.8,0,0,1,2.18.27l.28.07a1.37,1.37,0,0,1,.32,0,2.51,2.51,0,0,0-.75-.34c-1.51-.5-1.91-4.79-1.82-5.31s0-2.69,0-3.62c0-.31,0-.57,0-.77a3.43,3.43,0,0,0-2.52-1.08c-1.79.08-5.89-1.27-7.46-2.19a2.82,2.82,0,0,0-2.13.32c-.69.56-.73,1.78-.64,2.72l.08.88-.75.46c-2.18,1.34-5-.72-6-1.86a5.09,5.09,0,0,1-1.23-2.94,3.31,3.31,0,0,1-1.24.46,6.21,6.21,0,0,1-1.12,0,3.34,3.34,0,0,0-1.3.11s-.41.66.63,3.46l3.07,8.24-5.5-6.85c-1.41-1.75-2.64-1.84-4.5-2-.32,0-.72-.08-1.15-.15-1.05-.16-2.65-.41-3.22.14a2.91,2.91,0,0,0-.35,2.25c.42,3.85.51,6.18.56,7.71,0,.69,0,1.19.09,1.59.1.89-.41,2-1.57,4.28-.69,1.38-2.1,4.21-2.06,5.09l1.45,2.17-2.73-.07a2.72,2.72,0,0,0-1.8.49,2,2,0,0,0,.55.45l.1,0c2.8.64,6,1.36,5.75,4.42-.18,2.4-2.6,2.72-3.76,2.87a7.06,7.06,0,0,0-.81.14,4.12,4.12,0,0,0-.75,2.24c-.14,1.39-1.41,1.95-2.33,2.35a6,6,0,0,0-.85.42c-.14.82-.23,4-.22,7.66,0,.45.18,9,.25,10.05l.08,1.25-1.23.23A20.64,20.64,0,0,0,118,331a18.87,18.87,0,0,1-4.51,1,10.22,10.22,0,0,1-4.95-1.44,9.34,9.34,0,0,0-1.91-.79c-1.06-.19-1.54-.27-2.71,2.77-.8,2.08-1.74,3.29-2.88,3.68-.22,1.32-.77,2.92-2.06,3.38A5.07,5.07,0,0,1,97.29,339.9Zm-7.43-7.53c.52.22,1.2.46,2.08.73a5.5,5.5,0,0,1,3.13,2.65,3,3,0,0,0,.66.84,2.66,2.66,0,0,0,2.16.38,6.53,6.53,0,0,0,.47-2.26l.13-2.86,1.8,1.51a6.09,6.09,0,0,0,1-1.85c1.49-3.9,3-5,5.84-4.55a10.59,10.59,0,0,1,2.67,1,8.21,8.21,0,0,0,3.52,1.15,16.5,16.5,0,0,0,3.83-.91c.49-.16,1-.31,1.43-.44-.08-2.77-.21-9-.21-9a62,62,0,0,1,.34-8.56,3.69,3.69,0,0,1,2.43-2.16c.21-.09.5-.22.68-.32a6.14,6.14,0,0,1,1.84-3.95,4.27,4.27,0,0,1,2.13-.67,4.21,4.21,0,0,0,1.35-.31c0-.55-1.48-.94-3.59-1.41l-.51-.12-.18-.1c-2.46-1.37-2.31-3.06-2.13-3.72a3.85,3.85,0,0,1,3.09-2.49,22.19,22.19,0,0,1,2.31-5.76,22.82,22.82,0,0,0,1.28-2.81c0-.44-.06-1-.09-1.69-.06-1.5-.14-3.76-.55-7.51-.23-2.07.18-3.62,1.21-4.6,1.58-1.51,4-1.14,5.61-.89.35.05.66.1.92.12a11.56,11.56,0,0,1,3.19.55,3.63,3.63,0,0,1,.61-2.24c1-1.37,2.67-1.33,3.68-1.3a5.17,5.17,0,0,0,.61,0c.29,0,.74-.56,1-.91a2.78,2.78,0,0,1,2-1.28,2.15,2.15,0,0,1,1.94,1.25,2.82,2.82,0,0,1-.48,3c-.13.16,0,.83.53,1.43a4.46,4.46,0,0,0,1.6,1.14,4.66,4.66,0,0,1,2.44-4.2,5.27,5.27,0,0,1,4.62-.06c.79.4,4.4,1.82,5.93,1.77a6.4,6.4,0,0,1,4.42,1.69,2.92,2.92,0,0,1,1,2c0,.19,0,.51,0,.9a31.39,31.39,0,0,1-.07,4.16,11.84,11.84,0,0,0,.49,2.34,4.21,4.21,0,0,1,2.48,5.26,4.81,4.81,0,0,1-.47,1.19l.19,0a3.07,3.07,0,0,1,1,.32c.83-1,2.16-1.22,3.46-1.41l.75-.11a4.8,4.8,0,0,1,3.07.63,3.52,3.52,0,0,1,.28-1.83,4.13,4.13,0,0,1,2.86-2l.37-.12a2.32,2.32,0,0,0,.51-.32,5.24,5.24,0,0,0-.26-.56,8.11,8.11,0,0,1-.39-.88l-.11-.32,0-.34a3.18,3.18,0,0,1,1.44-2.33c1.53-1,3.79-.76,6.17-.16a4.32,4.32,0,0,1,.58-3.57c1-1.34,2.77-2,5.52-2.05.95,0,1-.06,1-.83a2.41,2.41,0,0,1-2.26.32l-.27-.1-.21-.2a2.93,2.93,0,0,1-1-2.59,4,4,0,0,1,2-2.64c.1-.09.19-.19.28-.3a6.07,6.07,0,0,1-1.44-.91l-.17-.14-.12-.18c-1.7-2.68-1.27-5.74,1.17-8.17a2.43,2.43,0,0,1,1.91-.78,2.69,2.69,0,0,1,1.64.78,2.54,2.54,0,0,1,.53-.44,2.62,2.62,0,0,1,1.26-.39c0-.11,0-.22,0-.34a3.77,3.77,0,0,1,2.12-3.37,13.9,13.9,0,0,1,1.93-.62,9,9,0,0,0,1.77-.6,2,2,0,0,0-.64-.92,6.94,6.94,0,0,1-1.64-2.47l-.08-.19,0-.21a2.35,2.35,0,0,1,1-2.42c1.34-.79,3,.26,4.14,1h0a33.75,33.75,0,0,0,2.88-2.5l-.39-.12c-2.12-.83-2.58-2.43-2.3-3.66.44-2,2.73-3.38,5.24-3.21,3.17.21,5.64,2.92,6.52,4l.71.15a9.47,9.47,0,0,1,1.9-3.55c.27-.25.33-.59.44-1.5a5.62,5.62,0,0,1-.51-4.17A7.45,7.45,0,0,1,227,228l.18-.09.2,0c4.52-1,7.86,3.22,8.9,4.72l.09,0c1.23.31,2.5.63,3.12,1.72a2.57,2.57,0,0,1,.16,2.08,4.28,4.28,0,0,1-.84,1.53c-.3.38-.61.77-.77,2.83-.22,3,1.24,5.52,4.48,7.83l.23.17.15.24a2.9,2.9,0,0,0,1.74,1.49,2.17,2.17,0,0,0,1.49-.51l.29-.21c2.49-1.34,5-6,5.94-7.75.18-.33.32-.58.41-.74.39-1.12.58-7.09,0-8.62a5,5,0,0,0-.88-1.42,3.69,3.69,0,0,1-1-3.62l.19-.67.65-.26a4.85,4.85,0,0,0,2.25-2,13.74,13.74,0,0,1,2.23-2.47c2.83-3.71,7.47-2.45,10.62-.21,1.34.95,1.72,2.09,2.25,3.67.21.64.46,1.36.81,2.25.77,1.91.85,1.92,1.85,2l.57,0a15.75,15.75,0,0,0,3.09-.46,15.59,15.59,0,0,1,5-.54,14,14,0,0,1,3.21,1.09,7.54,7.54,0,0,0,2.07.71,11.45,11.45,0,0,0,3.54-1.08,3.64,3.64,0,0,1-1.27-1.84l0-.1c-.43-1.89.59-4.49,1.78-6a3.78,3.78,0,0,1,2.94-1.69,9.33,9.33,0,0,1,1.67.16,11.94,11.94,0,0,1,1.23-1.77,1.76,1.76,0,0,0-.45-.62,4,4,0,0,0-.92-.39,6,6,0,0,1-2-1,6.91,6.91,0,0,1-.89-.89,3.26,3.26,0,0,1-1.88-3.87c.06-.23.12-.45.19-.68a19.89,19.89,0,0,1,.36-4.16c.08-.54.17-1.07.23-1.57a6.12,6.12,0,0,1-4.45-.1,6.48,6.48,0,0,1-3.23-3.72,5.19,5.19,0,0,1,.12-4.11c.82-1.62,2.57-2.5,5.2-2.6a3.34,3.34,0,0,1,1.34-.09c.24,0,.47.08.7.12H290a51.27,51.27,0,0,1,5.78.92,27.63,27.63,0,0,0,3.28.54l.46,0,.72,0a17.48,17.48,0,0,1-2.46-3.31c-1.92-3.55-2.81-7.66-3.68-11.63-.29-1.31-.57-2.61-.88-3.86a67.42,67.42,0,0,1-2.16-15.8c0-2.19,0-4.4.09-6.54a80.33,80.33,0,0,0-.33-12.66,7,7,0,0,0-2.62-3.12,2.51,2.51,0,0,1-1.32-1.79,1.8,1.8,0,0,1,.58-1.45c4.29-4.29,7.33-8,7.75-9.46s0-6-.25-8.66a25,25,0,0,1-.24-3.69,15.07,15.07,0,0,1,.76-2.74,23.48,23.48,0,0,0,1.55-7c0-.67,0-1.39,0-2.15,0-3.29-.08-7.39-.58-9.43s.61-8.55,2-16.24c.36-2,.69-3.87.73-4.35,0-.07.54-6.1,2.16-9.09a3.08,3.08,0,0,1-2.77-1.64c-.59-1.49.67-2.93,1.1-3.37.84-1.12,1.52-4-.13-7.25-.6-1.17-1.29-2.67-2-4.25-1.46-3.14-3.45-7.44-4.41-8.32a67,67,0,0,1-7-7.92,6.76,6.76,0,0,1-.84-2.39,5.15,5.15,0,0,0-.5-1.58,4.65,4.65,0,0,0-2.87-1.87c0,.15-.09.31-.12.45-.33,1.27-1,3.91-4.14,4a3.9,3.9,0,0,1-3-.94,2.74,2.74,0,0,1-.39-.47L274,28a9.27,9.27,0,0,1-.87,2l-.43.68-12.31-.36.13.37c1.47,4.17.75,5.31-.1,5.78a15.07,15.07,0,0,0-1.22,1.9,11.56,11.56,0,0,1-1.57,2.32c-.76.72-3,2.31-4.6,2.31-1.92,0-2.21-2.06-2.37-3.17,0-.34-.1-.69-.17-1a9.81,9.81,0,0,0-2.14.41c-1.3.34-2.37,2-3.25,3.62s-1.37,2.33-3.36,2.2c-.26,0-.58,0-1,0h-.3l-.27-.12C236,43,229.09,42,229,42l-.34-.1c-4.3-1.81-6.41-1.33-7.77-.71-1,.45-1.09.55-1.35,2.4-.22,3.21-2.37,3.13-3.93,3.07-.49,0-1.05,0-1.7,0a2.87,2.87,0,0,1-2.29-.7c-1.75.9-3.84,1.36-5.36-.26a5.15,5.15,0,0,1-1.51-4,5.65,5.65,0,0,1,1.82-3.59,7.48,7.48,0,0,0-.94-1.71c-.27.7-.6,1.39-.94,2.11s-.74,1.56-1.08,2.42c-1.17,2.93-6.29,5.79-7.52,5.38-.28-.09-3.36-1.76-4.7-2.49a14,14,0,0,1-10.71.06c-1.39-.16-7.14-.83-8.24-1a1.66,1.66,0,0,0-.27.18,4.56,4.56,0,0,1-2,.91,10.76,10.76,0,0,1-2.17.11,21.12,21.12,0,0,0-3.34.15c-2.09.25-3.12-.53-3.62-1.24a3.76,3.76,0,0,1-.38-3.15l-.29-.24a8.78,8.78,0,0,1-2.29-4.25h0c0-.08,0-.22-.05-.4a11.77,11.77,0,0,1-.09-4,2,2,0,0,1,1.33-1.41,3,3,0,0,1,.59-.14,3.6,3.6,0,0,1-.94-2.56,5.9,5.9,0,0,1,.72-2.25,7.93,7.93,0,0,0,.78-2.22c.15-.86.2-1.15-2-1.85a7.3,7.3,0,0,1-3.95-2.39l-.28-.28a4.75,4.75,0,0,1-1.46-2.11,12.07,12.07,0,0,0-.79-1.74c-.23-.44-.39-.72-.51-.9a5.58,5.58,0,0,1-.83.16c-.7.08-1.82,2-2.42,3l-.26.44c-.51.86-.18,2.66.06,3.4l.25.77-.54.61c-.63.7-3.78,4.22-4.43,4.79l-.16.18a3.35,3.35,0,0,1-2.68,1.45c-1.17,0-2.32-.77-3.52-2.28a7.91,7.91,0,0,1-.94-1.47,3.59,3.59,0,0,1-3.6,1.56l-1-.13a5.1,5.1,0,0,1-3.77-1.64.63.63,0,0,0-.51-.25,1.54,1.54,0,0,0-1,.56c-.57.63-1.78,2.57-4.28,8.21-1.77,4-6.72,5.37-9.38,6.11-.55.15-1,.29-1.29.39a40.36,40.36,0,0,1-6.08,1.38c-.06,3.3-.22,12.41-.31,14.92-.06,1.77,3,7,5.15,10.12l1,1.49L95.77,72.6l-4.22.88C92.91,76,94,84.9,93.72,86.63a10.21,10.21,0,0,1-.29,1.18,3.14,3.14,0,0,0-.12.49h0a1.81,1.81,0,0,0,.37.54c2,1.47,2.05,3.45,2.08,4.9a8.17,8.17,0,0,0,.15,1.69c.13.52.2.94.27,1.28a2.6,2.6,0,0,0,1,1.88c2.43,2.55,0,6.84-.13,7a9,9,0,0,1-2.47,2.16,16.73,16.73,0,0,0-2.11,1.68,7,7,0,0,0,0,.92,5.73,5.73,0,0,1-.87,3.78,6.26,6.26,0,0,0-.46.67c.06.14.18.36.25.48l.17.3c.6,1.07,2,3.58-.19,5.25-.41.31-.49.75-.6,1.49a4.69,4.69,0,0,1-.36,1.43c-1,2-7.82,2.72-7.88,2.72h0c0,.07,0,.13,0,.2l0,.49a5.14,5.14,0,0,1-2,4.2c-.09,1.77-.78,3.14-3.15,4.29l-.3.14H76.7a4.26,4.26,0,0,0-1.22.12c0,.15.05.37.08.53a3.19,3.19,0,0,1-.29,2.51c-.34.49-.78,1.08-1.33,1.8-.77,1-1.73,2.28-2.91,4s-1.15,7.37-1.08,10.71c0,1.38,0,2.57,0,3.45-.13,2.3.65,3.31,1.74,4.71l.48.63c1.43,1.93,1,8,.68,10.55,0,1-.43,14.37-.43,15.73,0,.13.07.24.42.65A4.57,4.57,0,0,1,74.14,194a8.53,8.53,0,0,1-2.64,6,6,6,0,0,0-1.11,2.36s-1.1,3.2-2.14,4.06h0c-.24.2-1.52,1.5-2.75,2.78,0,.73.12,2.19.3,4.52a24.41,24.41,0,0,1-.66,7.47l-.09.33-.23.25c-1.07,1.19-6.47,7.15-7.41,7.91a4.64,4.64,0,0,1-3.09.56,7.36,7.36,0,0,0-1.94.1,65.58,65.58,0,0,0,.1,8.15,75.49,75.49,0,0,1,.13,7.82c-.29,3.23-1.9,3.85-3.6,4a2.47,2.47,0,0,0-.65.12c-.47.33-1.27,2.32-.75,6.34.22,1.69.64,1.66,2.4,1.54a10.36,10.36,0,0,1,1.78,0l.31,0,.27.16c.49.29,2,1.16,2,7.31,0,.13,0,.59,0,1.3.1,10.94.08,16-.06,16.92s-.3,6-.36,9.87a21.77,21.77,0,0,1,7.21,1.14l.69.27c1.23.47,2.85,1.09,3.21,3a2.24,2.24,0,0,1,.87.86c.39.69.61,1.92-.58,3.9A3.86,3.86,0,0,0,65,305a3.7,3.7,0,0,1-1.23,3.23,3.61,3.61,0,0,1-1.88.71,2.74,2.74,0,0,0-1.45.61c-1.26.86-1.76,4.81-1.95,6.3l-.05.42c-.11.86-.07,1.42,1.47,1.69,3.15-.24,8.15,2,12.64,4.26l.88.43a41.66,41.66,0,0,0,6.09.72l1.75.12-.48,1.69h0a3.33,3.33,0,0,0,0,.5,4.63,4.63,0,0,0,.55-.89l.57-1.17,1.13.44a15.54,15.54,0,0,0,2.46-.52,10.42,10.42,0,0,1,2.7-.52,2.77,2.77,0,0,1,2,1,6.4,6.4,0,0,1,1.55,4.29A5.24,5.24,0,0,1,89.86,332.37Zm35.45-26.26Zm42.41-19Zm-.93-2.14h0Zm.42,0Zm-12.8-13.67a1.33,1.33,0,0,0,.48.35A2.56,2.56,0,0,1,154.41,271.28Zm2.41-.51v0ZM145,269Zm55.21-9.31Zm11.62-15.82Zm40.93-2.62,0,0ZM302,196.34h0ZM92.45,109.51h0ZM301,60.44ZM206.68,38.51h0ZM164,29.75a13.36,13.36,0,0,1,3.87,1.39,15.42,15.42,0,0,0,4.49,1.9A18.26,18.26,0,0,0,171,30.56c-1.73-2.8-2.83-3-3-3l-.05,0a11.79,11.79,0,0,0-3.56,1.94Z"/></svg>