<svg id="Layer_1" data-name="Layer 1" xmlns="http://www.w3.org/2000/svg" viewBox="0 0 350 350"><defs><style>.cls-1{fill:#999;}.cls-2{fill:#f90;}</style></defs><title>M</title><path class="cls-1" d="M249.54,301.62c-8.68-2.08-11.9,2.38-11.9,2.38L258,318.29l-10.54,10.2-10.88-2.72-2.72,3.74L223,327.13s-2,7.14-2,10.2-7.71,6-7.71,6l-5.9-9.41s-14.51-7.82-17.68-8.27-17.23-5-17.23-5l4.08-13.15-14.06,4.08s-18.59-10.88-25.85-17.68-29-14.51-29-14.51-4.08-32.2-9.52-34.46-25.85-8.16-40.81-21.31c2.27-14.06.45-49-1.36-53.05L70.2,156.75l3.63-14.06L87,133.17l9.52,7s10.88-4.08,20-6.35,34.46.45,34.46.45l2.95,23.35,21.54-7.71a115.21,115.21,0,0,1-.45-18.36c.68-7.93,13.6-21.31,13.6-21.31l10.2-19L180.38,62,155.9,40.89,125.74,20,146.8,6.66l45.26,29.7-2.38,15L204,63.57l20.41-10.88s9.52-5.1,13.26-4.76a9.67,9.67,0,0,0,6.12-1.36l24.49-2.72s12.58,3.74,13.6,8.84-1.7,5.44-1.7,5.44-9.86,1.36-12.24,6.12-8.5-4.42-8.5-4.42L258,71s-9.52,5.1-6.46,6.8,8.5,5.44,9.52,6.12,3.4,8.84,3.4,8.84l-5.78,6.8,5.1,5.78,30.27-11.56v30.95l-10.2,34.35-34.35-.34L262.46,187S256,198.92,258,204s7.82,6.12,7.82,6.12l-9.52,7.14-10.2,5.9,3.4,18.59s15.64,3.4,15,7.14-1.7,8.16-1.7,8.16l4.42,9.52L290,274.76s-6.46,16-14.28,19-10.88,16-10.88,16S258,303.67,249.54,301.62Z"/><path class="cls-2" d="M212.68,345.08,206.36,335c-5.57-3-14.79-7.64-16.88-7.94-3.26-.47-16.89-4.86-17.47-5l-1.33-.43,3.72-12-12.11,3.52-.53-.31c-.76-.45-18.81-11-26.1-17.87-7-6.52-28.31-14.13-28.52-14.21l-.82-.29-.11-.87c-1.91-15.09-5.77-32.13-8.66-33.33-.86-.36-2.12-.81-3.71-1.39-8-2.92-24.77-9-37.49-20.17l-.59-.52.12-.77c2.22-13.78.36-48.61-1.26-52.25l-.4-.9L68.92,156l3.66-14.16L87,131.41l9.74,7.19c2.6-.95,11.68-4.2,19.38-6.13,9.21-2.3,33.91.31,35,.42l1.11.12L155,155.73,173.88,149a110.66,110.66,0,0,1-.35-17.52c.68-8,12.37-20.47,13.86-22l9.72-18.15L179.3,62.91,155,42,123.18,20,146.81,5l46.8,30.71-2.4,15.09,12.95,11.1L223.7,51.43c1-.54,10-5.29,14.06-4.92a8.27,8.27,0,0,0,5.18-1.11l.29-.2.36,0,24.77-2.75.27.08c1.37.41,13.44,4.15,14.59,9.92.49,2.47.27,4.38-.66,5.68a3.42,3.42,0,0,1-2.25,1.44c-2.52.35-9.48,2-11.15,5.35A3.44,3.44,0,0,1,266.25,67c-2.07.12-4.26-1.8-5.86-3.6l-1,8.52-.65.35c-2.79,1.49-5.51,3.48-6.18,4.46,2.73,1.56,6.89,4.37,8.7,5.59l.66.45c.4.26,1.45,1,4,9.62l.21.73-5.48,6.45,3.64,4.12L295.5,91.77V125l-10.57,35.57-33.19-.33L264,187.07l-.34.62c-2.37,4.38-5.66,12.54-4.35,15.8,1.71,4.28,6.71,5.24,6.76,5.25l3.19.58L257,218.51l-9.34,5.4,3.05,16.68c6.39,1.46,15.9,4.36,15.13,8.57-.55,3-1.32,6.5-1.61,7.75l4,8.55,23.62,8.46-.55,1.37c-.27.68-6.79,16.59-15.08,19.83-7,2.76-10,14.87-10,15l-.55,2.32-1.78-1.59c-.07-.06-6.65-5.91-14.69-7.84h0c-5-1.19-7.86-.08-9.3.86l20.35,14.25-12.34,11.94-10.72-2.68-2.7,3.72L224,328.8a46.34,46.34,0,0,0-1.63,8.53c0,3.75-6.6,6.56-8.62,7.33Zm-38.46-25.33c4.56,1.45,13.4,4.18,15.66,4.51,3.33.48,16.65,7.62,18.16,8.43l.33.18,5.46,8.71c2.89-1.27,5.73-3.18,5.73-4.24,0-3.22,2-10.29,2.1-10.59l.37-1.28,11.28,2.47,2.74-3.77,11,2.76,8.74-8.46-20.18-14.12.84-1.17c.15-.21,3.89-5.21,13.38-2.93h0a40,40,0,0,1,14.21,7.09c1.28-4,4.67-12.32,11.13-14.85,5.4-2.11,10.68-11.9,12.91-16.9l-21.93-7.85-4.87-10.5.11-.47s1-4.43,1.69-8.1c-.22-1.34-6.83-4-13.87-5.5l-.92-.2-3.75-20.5,11-6.35,7.29-5.47a11.4,11.4,0,0,1-6.12-6.09c-2-5,2.72-14.8,4.16-17.58l-13.56-29.62,35.51.35,9.84-33.13V95.89l-29.26,11.18-6.56-7.44,6.08-7.15a44.74,44.74,0,0,0-2.72-7.4l-.57-.39c-1.85-1.25-6.17-4.17-8.75-5.6A2.41,2.41,0,0,1,249.55,77c0-2.41,4.23-5.17,7.17-6.8l1.73-14.3L260.58,59c1.67,2.5,4.3,5.23,5.5,5.16.18,0,.37-.21.56-.58,2.64-5.28,12.23-6.74,13.32-6.89.38-.1,1-1,.5-3.76-.61-3-7.78-6.28-12.35-7.68l-23.88,2.65a11.45,11.45,0,0,1-6.73,1.4c-2.4-.22-8.93,2.7-12.47,4.6L203.78,65.27,188.16,51.88,190.52,37,146.78,8.35,128.31,20.08l28.51,19.73L181.47,61l.11.18,18.8,29.94L189.7,111.11l-.14.14c-3.5,3.62-12.69,14.36-13.21,20.45a114.41,114.41,0,0,0,.45,18.09l.12,1.11-24.25,8.68-3-24c-5-.49-25.19-2.29-32.85-.37-8.88,2.22-19.69,6.26-19.8,6.3l-.72.27L87,134.93l-11.9,8.62-3.6,13.95L57.53,171c1.83,7.11,3.24,38.3,1.26,52.09C71,233.58,87,239.38,94.8,242.2c1.63.59,2.91,1.06,3.83,1.44,5.55,2.31,9.15,26.12,10.27,34.73,4.12,1.5,22,8.27,28.69,14.52,6.38,6,22,15.37,25.07,17.19l16-4.64ZM260.3,85.14h0Z"/></svg>