<svg id="Layer_1" data-name="Layer 1" xmlns="http://www.w3.org/2000/svg" viewBox="0 0 350 350"><defs><style>.cls-1{fill:#999;}.cls-2{fill:#f90;}</style></defs><title>M</title><path class="cls-1" d="M157.18,229.61l10.64-3.42,18.47-8.56,1.58-6.76s5.41-4.73,6.08-5.41,22.75-12.39,22.75-12.39l-.45-2c-6.76-12.84,8.11-10.24,8.11-10.24a12.09,12.09,0,0,1,6.76-9.13s8.33,16.44,8.79,15.09,7.21-3.83,7.21-3.83L246.89,171l6.08-5.41s4.73,16.67,5.63,11.49,12.84-15.54,13.52-15.77-2-4.51-3.83-7.21-6.53-11.71-7.43-14.87,1.58-4.05,2-5.18,3.6-1.8,3.6-1.8,3.6,3.38,4.28,5.63,5.63,5.18,7.66,5.63,4.28,4.51,4.51,5.63,2.25,11.49,2.25,11.49l3.15,2.93,4.28-6.31s36.49-15.54,36.72-21.17,14.42-23,14.42-23l-7.66-3.83-1.8,5-4.05,2s-7.66,2.93-9.24,2S305.46,114,305.46,114A129.85,129.85,0,0,1,289,108.15c-6.76-3.15-3.15-9-3.15-9l4.73-8.56A8.22,8.22,0,0,0,285.41,89a5.65,5.65,0,0,1-4.73-2l-9.24-2.25S253,82.92,250,81.79s-17.35-.23-19.37,0S219,85.4,219,85.4s-2.48,4.05-5.41,8.11-4.51,1.8-9.46,2.25-36.27-2.25-36.27-2.25L95.66,92.39H44.09L42.2,114.47,40,147.27l-7.73,16.4-2,.47L7.35,159.25l1.26,10.09L6.25,182.27,9.4,195.36l16.87,2.84v28.07L29,231l2.37,1.42,24.91,4.1,1.26,3.78,2.21,1.42,9.68,4.52,6.31,2.48S80,253,80.87,253.44s4.05,6.08,7.43,6.08h11L110.15,262l15.77,6.76h5c2.7,0,4.51-.9,4.73-2.7s2.25-5.41,2.25-5.41l-.45-1.58,1.8,2,4.05.23,1.35.45-.23-6.31s-4.51-10.14.9-15.54a31.32,31.32,0,0,1,10.59-7.21l4.73.68s-1.07.18-2.25-1.8Z"/><path class="cls-2" d="M130.88,270.18h-5.25l-15.92-6.82-10.53-2.41H88.3c-3.09,0-5.6-3.14-7.26-5.21-.33-.41-.73-.92-.9-1.08a46.41,46.41,0,0,1-5.24-4.73l-6-2.37-9.92-4.64-2.63-1.69-1.15-3.45-24.34-4L27.91,232l-3-5.38V199.4L8.25,196.6,4.8,182.31l2.38-13L5.7,157.45l24.51,5.24,1.07-.25L38.6,146.9l2.19-32.53,2-23.4H95.66l72.28,1.12c10.79.93,32.19,2.59,36,2.25a19.49,19.49,0,0,1,4.18.11c2.12.23,2.76.3,4.26-1.78,2.86-4,5.32-8,5.35-8l.26-.43.48-.17c1-.35,9.9-3.44,12-3.67,1.25-.14,16.56-1.25,20,.08,2,.78,13.68,2.13,21,2.84l.2,0,9.77,2.38.31.46a4.35,4.35,0,0,0,3.55,1.4,9.65,9.65,0,0,1,6.11,1.93l.86.75-5.28,9.56a5.52,5.52,0,0,0-.62,4,5.32,5.32,0,0,0,3.13,3.06,129.09,129.09,0,0,0,16.23,5.78c3.27.79,14.24,3.49,15.87,4.42.74.2,4.47-.77,8-2.1l3.49-1.74,2.15-5.92L346,112.63,344.85,114c-5.37,6.57-13.95,18.38-14.1,22.14-.23,5.82-25.77,17.38-37.19,22.26l-5,7.33-4.7-4.37-.09-.45s-2-10.36-2.25-11.48c-.19-.93-2.22-4.26-3.42-4.53-2.14-.48-7.79-3.55-8.71-6.61-.36-1.19-2.06-3.18-3.34-4.47a5.91,5.91,0,0,0-1.9.83,4.71,4.71,0,0,1-1,1.36c-.77.8-1.33,1.37-.92,2.83.83,2.9,5.4,11.7,7.25,14.47,4.59,6.88,4.32,7.67,4.08,8.36a1.56,1.56,0,0,1-.82.91c-1.48,1-12,10.41-12.73,14.73-.3,1.73-1.18,2.13-1.86,2.17-.92,0-2.47.14-5.9-11.35l-3.92,3.48.23,12.3-.95.35c-2.91,1.07-5.86,2.49-6.41,3.08a1.51,1.51,0,0,1-1.27.91c-1,.09-1.87.14-9.41-14.65a10.76,10.76,0,0,0-4.75,7.42l-.23,1.41-1.41-.24c-1.54-.26-6.26-.57-7.72,1.44-1.17,1.61,0,4.56,1.1,6.75l.09.17.73,3.27-1,.51c-8.09,4.29-21.24,11.34-22.48,12.2-.78.75-4.51,4-5.74,5.11l-1.63,7-19.26,8.91-8.95,2.88.27.46a2.8,2.8,0,0,0,.95,1.08l9.25,1.32-8.92,1.52a2.34,2.34,0,0,1-1-.07l-3.81-.54a31.33,31.33,0,0,0-9.75,6.75c-4.67,4.66-.65,13.87-.61,14l.11.25.31,8.62-3.11-1-4.49-.29a15.73,15.73,0,0,0-1.5,3.79C136.87,267.42,136,270.18,130.88,270.18Zm-4.67-2.83h4.67c.94,0,3.16-.14,3.32-1.46a20.12,20.12,0,0,1,2.14-5.4l-2-7,5.54,6.23,3.25.18-.15-4.12c-.72-1.75-4.27-11.28,1.31-16.86a32.54,32.54,0,0,1,11.12-7.54l.33-.11.85.12-1.54-2.59,12.25-3.94,17.77-8.23,1.52-6.53.34-.3c2.16-1.89,5.54-4.87,6-5.34s8-4.62,22.14-12.13l-.18-.79c-2.14-4.14-2.41-7.35-.8-9.57,2.14-2.93,6.78-2.94,9.13-2.74a13.39,13.39,0,0,1,7.35-8.88l1.21-.48.59,1.16c2.77,5.47,6,11.46,7.51,13.75a26.26,26.26,0,0,1,5.79-2.82l-.22-11.59,8.26-7.34.62,2.17a90.53,90.53,0,0,0,3.4,10c2.18-5,9.87-12.26,12.87-14.54a51.63,51.63,0,0,0-3.49-5.77c-1.79-2.69-6.66-11.92-7.62-15.26A5.23,5.23,0,0,1,261.1,134a4.22,4.22,0,0,0,.47-.53c.63-1.57,3.16-2.33,4.62-2.64l.72-.16.54.51c.4.37,3.9,3.71,4.67,6.26.46,1.54,4.76,4.25,6.61,4.66,2.82.63,5.31,5.35,5.59,6.74.2,1,1.77,9,2.17,11l1.61,1.49,3.59-5.29.38-.16c17-7.25,35.58-16.93,35.86-19.93.21-5.16,10.08-18,13.63-22.44l-4.66-2.33-1.45,4-4.69,2.34c-3.78,1.44-8.66,3-10.45,1.93-.93-.51-8.45-2.51-15.17-4.13a129.4,129.4,0,0,1-16.71-6,8,8,0,0,1-4.65-4.83,8.34,8.34,0,0,1,.89-6.2l4-7.31a7.93,7.93,0,0,0-3.28-.66,7.39,7.39,0,0,1-5.51-2.18l-8.69-2.12c-2.33-.23-18.7-1.86-21.67-3-2.41-.92-15.87-.23-18.71.09a110.82,110.82,0,0,0-10.93,3.37c-.73,1.16-2.83,4.48-5.2,7.77s-4.51,3.19-6.87,2.94a17.31,17.31,0,0,0-3.62-.1c-5,.46-34.6-2.09-36.47-2.25L95.64,93.81H45.39l-1.78,20.78-2.22,33-8.13,17.26-3,.7L9,161.05l1,8.33L7.7,182.23l2.86,11.89L27.69,197v28.89L30,230l1.81,1.09,25.49,4.19,1.37,4.12,1.71,1.1L70,245l6.5,2.55.21.21a58,58,0,0,0,4.83,4.48A6.29,6.29,0,0,1,83.25,254c1.16,1.45,3.32,4.15,5,4.15l11.35,0,11.05,2.56Zm115-80Zm31.61-24.82Zm-1.1-2.6a1.27,1.27,0,0,0-.37.2A2,2,0,0,1,271.67,160Zm-7.47-25.39h0Z"/></svg>