<svg id="Layer_2" data-name="Layer 2" xmlns="http://www.w3.org/2000/svg" viewBox="0 0 350 350"><defs><style>.cls-1{fill:#999;}.cls-2{fill:#f90;}</style></defs><title>M_</title><path class="cls-1" d="M308.11,143.37c.8-1-2.28-2.41-2.28-2.41l.8-1.67s.74-.2,0-1.27-4.42-2.28-5.82-2.81-.8-2.94-.8-2.94l1.47-3.35a10.86,10.86,0,0,1-2.41-1c-1.14-.67-1.47-1.2-2.61-2.81s-1.2-.94-2.48-.94a27.16,27.16,0,0,1-3.35,0,35.29,35.29,0,0,0-4.08-1.34c-2.07-.47,0-1.74,0-1.74s-4.35-1.07-4.68-1-1.41,2.54-1.41,2.54-1.67.07-2.68.07-8.36-1.87-9.23-1.87-5.29.67-8.1.13-8.9-3.68-9.23-3.95-1.67-1.61-1.67-1.61.2-2.81.4-3.88-2.27-7.09-2.74-8.43-3-5.49-3-7.36-1.94-3.08-4.15-5.62-3.61-7.36-3.81-10.17-4.55-3.21-5.49-3.55-3.28.74-4.82,1.54-4.68,3.35-6.62,3.55a2.34,2.34,0,0,0-2,2.27,44.85,44.85,0,0,1-4.88-3.68c-1.34-1.34-3.88-.8-3.88-.8L198,69s5.09-12.71,6.29-14.59.67-10.3,0-14.72c-9.64.27-12.45-2.94-13.92-5.62a64.42,64.42,0,0,0-4.42-6.69c-1.61-2.27-1.61-2.54-1.87-5.09s-1-6.87-1-6.87a40.47,40.47,0,0,1,0-7.58l-2.23-1.2s-2.28,3.21-2.54,4.55-2.34,6.22-1.07,10.64,1.61,10.17-.4,13.85-7.23,9-9.17,12.51a36.37,36.37,0,0,0-3.95,12.71,27.93,27.93,0,0,1-3.21,8.36s-5.82,6.83-6.22,7.76S144.64,89.7,143.1,92s-3.88,3.88-3.48,6,8.1,12.33,8.1,12.33l1.27,1s.8-2.74,1.81-3.35,2.94.67,3.81,1.61,2.88.76,2.88.76a5.27,5.27,0,0,0,1,3.46c1.2,1.54,2.48,2.88,1.81,6.76-.4.8,2.54,5.89,2.54,5.89s-1.81,3.21-2.21,3.81-1.61.6-1.14,2.07a26.38,26.38,0,0,0,2.94,6.09,9.13,9.13,0,0,0,2.74,2.61s-2.94,1.34-2.21,2.74,2.14,3.48,2.07,5.29,1.87,5,1.87,5-1.47,1.2-1.47,1.41-.2.33-.87.27-.6,1.74,0,2.68,1.54,1.47.2,1.2-1.47-.6-1.74-1.2-1.54.2-2,1.14a4.67,4.67,0,0,0-.4,2.07s-1.14-.27-2.14-.4a6.12,6.12,0,0,0-3.35.94c-.67.47-1.81,1.07-1.54,0s-.07-2.88-1.94-1.27-2,2.81-2.94.67-.6-2.28-1.47-2.28-2.74,2-4.62,2.74a79.46,79.46,0,0,0-12.11,7.18,6.22,6.22,0,0,0-1.7.36c-.54.27-4.37,2.76-4.37,2.76s-.36.9-1.34,2.87-.8,2.59-1.78,4.64-3.5,1.76-3.53,1.75a1.14,1.14,0,0,0,.81.85c1.67.6,1.47-.74,1.67.6a5.36,5.36,0,0,1,0,2.74,4.63,4.63,0,0,0,0,1.94,9.28,9.28,0,0,0,.18,1.34,8.68,8.68,0,0,0-3.12-1.2c-1.14,0-2.21.4-2.34,1.07s-1.54,1-1.87,1.94-1.07,2.91-1.07,2.91-1.2,1.37-1.67,1.84-2.48.74-3.61.6-4.48-.2-5.49-.33a4.77,4.77,0,0,0-3.88,2.28c-1.07,1.61-1,2.81-.6,5.09A9.81,9.81,0,0,1,97,205a1.18,1.18,0,0,0-1.23-.12A4.3,4.3,0,0,0,93,207.31l-.36.67-.43.16s-1.21.68-.61,1.68a13.56,13.56,0,0,1-2.1,2.72l-3.11,2.11a1.47,1.47,0,0,0-.69,1.53q-1,1-2,2a10.67,10.67,0,0,0-4.59.13c-1.86.2-2.7,1.51-3.17,3.09a9.49,9.49,0,0,0-.48,1.43,1,1,0,0,1-.74-.62c-.2-.74-1.34-3.95-1.67-1.81-.28,1.82-.7,3.3-.09,4.15a1.4,1.4,0,0,0-.94.37,12.68,12.68,0,0,0-4.42,1.69l0-.15a1.51,1.51,0,0,0-2.56-1.06l-.57.69c-.53-1.13-.82-1.79-1.5-1.88a1.71,1.71,0,0,0-.86.27,4.09,4.09,0,0,0-2.41-1.41,3.19,3.19,0,0,0-4,2.77c-.18,1.56.56,2.67,1,3.76-1.88.52-2.25,3.37-2.37,5.64a2.12,2.12,0,0,0-.34,2.06c-4.92-.46-12.67-1-12.32,4.47A8.71,8.71,0,0,0,43,244.91c.17.37.31.72.45,1.08a10.19,10.19,0,0,0-.1,2.1,2.66,2.66,0,0,0,.86.67c.23,1.2.38,2.42.61,3.78a10,10,0,0,0,1.89,4.76c.44,1.39,1,3.21,1.58,4.9a1.55,1.55,0,0,0-.92,2.18c2,3.93.62,8.23,1.12,12.4a13.28,13.28,0,0,0,1.31,4.4,22.6,22.6,0,0,1,2.47,8.24c.37,3.2.85,6.44,2.75,9.12l.06.82.87.12c.19.15.39.3.61.45l.05,1.64,1.87.74.27,3.88s.87-1.41,1.34-1.61,1.67.33,2,.54l.07,0a3.52,3.52,0,0,0-.1,2.57,1.53,1.53,0,0,0,2.2.9l2,.73v.05l1.61.74a6.26,6.26,0,0,0,1,.43,1.49,1.49,0,0,0,1.18,2.36h2.05c-.16,1-.65,3.37-.65,3.37l7.36.6.13,1a11.54,11.54,0,0,0,3.28.27C84,318,96.6,318,96.6,318l.2-.8a3,3,0,0,1,1.07-.2,29.36,29.36,0,0,0,3.88-1.27,7.14,7.14,0,0,1,1.74.4c.54.27,1.34-.07,2.48-.6s1.07.8,1.54,1.14a5.31,5.31,0,0,0,2,.33,3.43,3.43,0,0,1,.13,1.27c-.07.67.74,11.31.74,11.31l-1.27.07-2.34.07.6,5.22a31.88,31.88,0,0,0,4.22-1.47,20.74,20.74,0,0,0-.13-3l1.07-.27a28.7,28.7,0,0,1,3-.47,10.44,10.44,0,0,0,2.41,1c.4-.07,3.28-.2,4.28-.33a31.26,31.26,0,0,1,3.55,0,10.91,10.91,0,0,0,3.68-1,11,11,0,0,1,3.41-.65c.6-.11,1.07,1.32,1.14,1.52a7.27,7.27,0,0,1-.13,2.34c-.2.47-2.34.54-2.34.54l.94,6.29s4,.27,4.28.27l4.15-.07a38.31,38.31,0,0,1,5-.67,11.2,11.2,0,0,1,3.55.33,21.36,21.36,0,0,1,3.75,2.34,8.36,8.36,0,0,0,3.75.94,21.73,21.73,0,0,1,3.61.8l.15,0c3.12-1.36,8-2,9.93-4.7a2.5,2.5,0,0,0,.25-.5l.12-.46a2,2,0,0,1,.17-.42c.91-3.25,1.6-10.38-1.44-8.5a2,2,0,0,1-2.94-2.26,17.27,17.27,0,0,1,4.18-7.51,69,69,0,0,0,.23-9.68c-.2-2.44-.74-5.26-2.66-7-1.45-1.31-2.71-1.06-4.19-1.89-4.79-2.66-3.11-8.22-1.43-12.81a1.78,1.78,0,0,1-.36-1.23c.16-2.91,2.27-8.79.78-10.61-1.12-1.37-2.34-1.36-2.44-3.49-.1-1.92,1.3-3.6,1.73-5.35.38-1.55.38-3.28.66-4.86.72-4.17,4.13-15.24,8.9-9.8a16.83,16.83,0,0,1,2.83-5.66c1.4-1.74,4.84-2.32,5-4.59a2.09,2.09,0,0,1,.18-.75,33.42,33.42,0,0,1,.51-8c.47-2.3-1.19-5.17-1.56-7.79s-.49-5.75,1.86-7.67c2.69-2.2,7.36.71,9.54-1.66a2,2,0,0,1,2.83,0c2.36,2.87,2.83,5.4.61,8.54-1.5,2.12-3,3.58-4,6.11a23.71,23.71,0,0,0-1.36,7.42c3.77-.84,8.29-.16,10.83,2.11l.07-1.54v-.44c4,1.77,5.15,6.39,6.05,10.51a1.51,1.51,0,0,0,1.45,1.1,20.78,20.78,0,0,0,6.9-1.48c3.25-1.38,4.64-3.5,8.51-3.54,3.2,0,5.43,1.07,6.87-2.88,1.5-4.12.36-10.55-1.37-14.42-1.31-2.93-2.66-5.39-2-8.78a60.49,60.49,0,0,1,2.09-6.85,7.34,7.34,0,0,0,2.9.85,47.64,47.64,0,0,0,7.27-.18c1,0,9.88-1.32,8.44,1.79-.23.49-3.66,1.06-4.41,1.51a10.06,10.06,0,0,0-2.85,2.56,10.62,10.62,0,0,0-1.74,9.34,1.51,1.51,0,0,0,2.51.66,5.69,5.69,0,0,1,9,.76,1.52,1.52,0,0,0,2.59,0,53.86,53.86,0,0,0,9.06-31c.89-.31,2.4-.78,2.64-.83a17.63,17.63,0,0,0,4.28-1.87,5.9,5.9,0,0,0,1.94-3.21,9.25,9.25,0,0,1,.8-2.41c.4-1,.27-2.21.67-2.74s4-.67,4-.67a8.79,8.79,0,0,1,.67,2.71c-.07.9,0,2.91.54,2.71s1.47-.13,1.61.6,1.94,1.07,2.68,1.74.74,2,1.2,3.88,1.87.33,2.61-.07,1.27-2.14,1.07-3.15a4.17,4.17,0,0,1,.54-2.74c.4-.74,5.15-.47,5.15-.47s2,.54,2.88.74,2.07.6,2.94.13.4-2.74.4-2.74l1.07-1.2c.54-.6.33-1.47.87-2.48s-1.07-2.88-1.87-2.94a2.23,2.23,0,0,1-1.41-3c.6-1.61-.4-1.47-1.94-1.47s-3.21-2.21-3.81-2.81.6-2.48.87-3a13.51,13.51,0,0,1,1.74-2,4.65,4.65,0,0,1,1.94-1.14c.47-.2,1.14-1.54,2.34-2.07s.07-1.54.07-2.28-1.14-3.21-1.81-5.29-4.22-4.28-4.22-4.28.33-.74.4-.94,1.07-.33,1.94,0,.6-1.41.6-1.41l1.67-.94a14.58,14.58,0,0,0,1.87-2.81c.47-.74,2.88-.74,3.41-.6s.4.27.8.6a13.68,13.68,0,0,1,1.61,1.94,3.78,3.78,0,0,0,2.14,1c.27.07.33-1,1.27-2.28s-2.07-2.81-2.07-2.81l.54-1.67A36.42,36.42,0,0,0,308.11,143.37Z"/><path class="cls-2" d="M160.77,344.9l-.47-.12-.22-.06a20.68,20.68,0,0,0-3.3-.74,9.62,9.62,0,0,1-4.42-1.16c-.35-.23-.73-.5-1.13-.78a11.54,11.54,0,0,0-2.27-1.4,10.11,10.11,0,0,0-3.12-.27,35.59,35.59,0,0,0-4.68.64l-.25,0-4.17.07c-.27,0-2.86-.17-4.38-.27l-1.14-.08-1.34-9,1.59-.05a9.73,9.73,0,0,0,1.13-.11c0-.35,0-.79,0-1s-.11-.28-.15-.38h-.15a6.66,6.66,0,0,0-2.26.45,12.14,12.14,0,0,1-4.29,1.14l-.9,0a18.62,18.62,0,0,0-2.46,0c-.61.08-1.78.16-2.8.22-.67,0-1.25.08-1.44.11s-.81.13-2.9-.95c-.64.08-1.65.21-2.29.36.16,2,0,2.27-.12,2.56-.28.56-.41.82-5.08,2.2l-1.62.48-1-8.43,3.68-.1c-.28-3.74-.63-8.71-.63-9.9a3.58,3.58,0,0,1-1.55-.52,2.18,2.18,0,0,1-.65-.76,3.65,3.65,0,0,1-3.18.34,4.89,4.89,0,0,0-.93-.22,16,16,0,0,1-4,1.23l-.25,1H96.6c-3.5,0-12.88,0-14.21.13a12.91,12.91,0,0,1-3.74-.31l-.93-.23-.11-.83-7.82-.64.33-1.57s.17-.81.34-1.65H70.1a2.78,2.78,0,0,1-2.46-1.4,3,3,0,0,1-.38-1.54l-2.09-1-.89-.33a3.09,3.09,0,0,1-2-.19,2.84,2.84,0,0,1-1.52-1.8,5.66,5.66,0,0,1-.24-1.93c-.17.22-.35.49-.51.74l-2.32,3.73-.51-7.37-1.91-.75-.06-1.74-1.43-.19L53.67,299c-1.89-2.85-2.39-6.1-2.78-9.44a21.31,21.31,0,0,0-2.34-7.78,14.63,14.63,0,0,1-1.44-4.85,29.58,29.58,0,0,1-.06-4.72c.1-2.57.2-5-.91-7.2a2.88,2.88,0,0,1-.13-2.39,3,3,0,0,1,.64-1c-.42-1.29-.84-2.6-1.18-3.68a11.59,11.59,0,0,1-2-5.19c-.08-.52-.16-1-.23-1.5s-.17-1.11-.26-1.65a2.59,2.59,0,0,1-.79-.8c-.3-.51-.26-1-.17-2.15l0-.47c-.09-.23-.19-.46-.29-.69s-.27-.53-.41-.78a6.62,6.62,0,0,1-1-2.88,5.09,5.09,0,0,1,1.47-4.11c2.23-2.16,6.41-2.31,10.81-2a3.6,3.6,0,0,1,.4-1c.09-1.58.36-4.31,1.93-5.75a6.15,6.15,0,0,1-.62-3.36,4.55,4.55,0,0,1,1.8-3.19,4.89,4.89,0,0,1,3.85-.81,5.43,5.43,0,0,1,2.5,1.17,2.08,2.08,0,0,1,.71,0,2.41,2.41,0,0,1,1.67,1,2.81,2.81,0,0,1,2.24-.07,3.12,3.12,0,0,1,1.27.89,14.27,14.27,0,0,1,2.92-1,11.5,11.5,0,0,1,.26-2.57c0-.29.1-.58.15-.89.25-1.6,1.16-1.89,1.67-1.92.31,0,1.08-.06,1.86,1.26a4.64,4.64,0,0,1,3.63-2.59,10.78,10.78,0,0,1,4.36-.23l1.1-1.1a3,3,0,0,1,1.31-2.11l3-2a11.37,11.37,0,0,0,1.45-1.81,2.33,2.33,0,0,1,.05-1,3.08,3.08,0,0,1,1.42-1.76l.13-.07.1-.19a5.68,5.68,0,0,1,3.43-3.07l.18-.07c-.41-2.31-.56-4,.83-6.07,1.25-1.88,3.51-3.12,5.25-2.89.45.06,1.61.11,2.63.16s2.23.1,2.84.17a6.83,6.83,0,0,0,2.52-.27c.34-.35,1-1.08,1.37-1.51.21-.55.71-1.92,1-2.65a3.79,3.79,0,0,1,1.6-1.8l.29-.2c.4-1.19,1.8-1.95,3.66-1.95a4.76,4.76,0,0,1,1.41.26,4.07,4.07,0,0,1,.18-1.33,2.74,2.74,0,0,0,.06-1.38,4.3,4.3,0,0,1-.86-.22,2.56,2.56,0,0,1-1.71-1.89l-.43-2,2,.24s1.55.14,2.08-1a13.25,13.25,0,0,0,.8-2.12,14.45,14.45,0,0,1,1-2.54c.93-1.86,1.29-2.75,1.29-2.75l.17-.42.38-.25c.92-.59,3.95-2.55,4.51-2.83a6.06,6.06,0,0,1,1.81-.46,80,80,0,0,1,12.12-7.13,11.84,11.84,0,0,0,2.36-1.47,5.18,5.18,0,0,1,2.77-1.37c1.48,0,1.88.76,2.23,1.76.09.25.21.58.39,1,.24-.25.53-.53.88-.82,1.5-1.29,2.6-1.08,3.25-.68a2.33,2.33,0,0,1,1,1.47,7.14,7.14,0,0,1,3.67-.79l.72.11a4.93,4.93,0,0,1,.37-1,3.8,3.8,0,0,1,2.92-2.13,3,3,0,0,1,.36-1.61,1.74,1.74,0,0,1,1.49-.86,7.59,7.59,0,0,1,.58-.58,11.1,11.1,0,0,1-1.49-4.75c0-1.08-.78-2.54-1.44-3.71-.17-.31-.33-.6-.47-.86a2.39,2.39,0,0,1-.14-1.93,3.82,3.82,0,0,1,1.15-1.58,11.42,11.42,0,0,1-1.45-1.68,27.94,27.94,0,0,1-3.14-6.47,2.57,2.57,0,0,1,1.2-3.25l.15-.1c.27-.43,1.07-1.83,1.72-3-2.53-4.48-2.5-5.71-2.28-6.3.47-2.91-.3-3.89-1.35-5.22l-.2-.25a6.31,6.31,0,0,1-1.24-3,4.21,4.21,0,0,1-2.56-1.17,4.64,4.64,0,0,0-2.1-1.31,8.41,8.41,0,0,0-1.12,2.48l-.58,2-3.06-2.37-.11-.15c-1.85-2.45-7.93-10.64-8.36-12.93-.4-2.14.93-3.69,2.22-5.19a18.78,18.78,0,0,0,1.47-1.87c.75-1.14,3.1-4.23,5.59-7.51,2.3-3,5.17-6.79,5.49-7.38.39-.92,4.12-5.37,6.35-8a27.5,27.5,0,0,0,3-7.77,37.65,37.65,0,0,1,4.11-13.15A50.8,50.8,0,0,1,171,41.25a50.58,50.58,0,0,0,4.61-6.3c1.91-3.51,1.35-9.08.28-12.78-1.15-4,.1-8.13.77-10.35.13-.41.23-.74.27-1,.3-1.52,2.2-4.28,2.78-5.09l.73-1L184.56,7l-.08.93a37.72,37.72,0,0,0,0,7.21c0,.2.73,4.42,1,7l0,.15c.24,2.29.25,2.34,1.61,4.26l.83,1.16a53.23,53.23,0,0,1,3.67,5.67c1.4,2.55,4,5.13,12.64,4.89l1.25,0,.19,1.24c.4,2.63,1.53,13-.21,15.7-.78,1.22-3.78,8.41-5.81,13.47l9.4,9.16a5.57,5.57,0,0,1,4.39,1.3,29.34,29.34,0,0,0,3.18,2.48,3.4,3.4,0,0,1,2.56-1.49c1-.1,2.93-1.37,4.21-2.21.74-.48,1.37-.9,1.91-1.18,3.77-2,5.16-1.9,6-1.62.13,0,.34.09.59.15,1.67.38,5.59,1.26,5.83,4.63.2,2.8,1.58,7.17,3.47,9.34.61.7,1.21,1.31,1.74,1.85,1.48,1.5,2.75,2.79,2.75,4.7,0,.94,1.21,3.32,1.93,4.75a21.2,21.2,0,0,1,1,2.15c.1.28.28.76.51,1.36,2,5.09,2.46,6.84,2.28,7.8-.12.64-.25,2.11-.33,3.07.49.48,1,.94,1.1,1,.49.31,6.14,3.19,8.61,3.66a27.27,27.27,0,0,0,6.52-.06c.62-.06,1.08-.1,1.31-.1a34.51,34.51,0,0,1,4.66.92c1.64.37,4.12.93,4.59,1s1.19,0,1.73,0c1-2.18,1.47-2.43,2.06-2.55.33-.07.64-.13,5.3,1l3.3.81-2,1.26c.92.27,1.67.57,2.22.78.27.11.48.19.62.23a42.09,42.09,0,0,0,3.54-.1c1.31-.24,2.06.14,3.09,1.6l.2.29c1,1.39,1.19,1.66,2,2.12a9.51,9.51,0,0,0,2.05.86l1.6.43-2.08,4.73a2.39,2.39,0,0,0,0,1.23,5.32,5.32,0,0,1,.66.21c2.67,1,4.94,1.87,5.76,3.06a2.45,2.45,0,0,1,.46,2.28,1.86,1.86,0,0,1-.52.76l-.05.11a4,4,0,0,1,1.91,2.18,2,2,0,0,1-.39,1.72h0a33.22,33.22,0,0,1-2.55,2.64l-.08.26a4.5,4.5,0,0,1,1.92,2.38,2.28,2.28,0,0,1-.39,1.9,6,6,0,0,0-.76,1.44c-.45,1.13-1.12,1.59-2,1.37a4.81,4.81,0,0,1-2.94-1.55A11.09,11.09,0,0,0,301,151a3.15,3.15,0,0,1-.34-.32,5.72,5.72,0,0,0-1.87.15l-.33.56c-.86,1.48-1.33,2.22-1.94,2.56l-.92.52a2.27,2.27,0,0,1-.75,1.67,1.73,1.73,0,0,1-.65.33,8.47,8.47,0,0,1,2.57,3.38c.26.79.58,1.65.9,2.48a12,12,0,0,1,1,3.17,2.65,2.65,0,0,0,.12.27,2.71,2.71,0,0,1,.24,2.13,2.26,2.26,0,0,1-1.26,1.25,3.88,3.88,0,0,0-1.19,1.07,3.35,3.35,0,0,1-1.17,1l-.33.13A2.67,2.67,0,0,0,294,172l-.61.64a8.32,8.32,0,0,0-.91,1l-.2.38a8.82,8.82,0,0,0-.64,1.32l.14.16c1.14,1.27,1.94,1.92,2.37,1.92h.32c1.08,0,2.2,0,2.86.93a2.66,2.66,0,0,1,.09,2.45.94.94,0,0,0,.29,1.11,4.28,4.28,0,0,1,2.72,2.24,2.88,2.88,0,0,1,.19,2.77,3.24,3.24,0,0,0-.28.93,3.57,3.57,0,0,1-.78,1.82l-.62.7c.13,1.15.07,2.85-1.23,3.55a4.91,4.91,0,0,1-3.6.08l-.33-.08c-.74-.17-2.3-.58-2.78-.71a21.18,21.18,0,0,0-3.86.09,2.52,2.52,0,0,0-.22,1.43c.27,1.36-.29,3.85-1.78,4.67a3.74,3.74,0,0,0-.34.23,3.09,3.09,0,0,1-2.85.79,2.42,2.42,0,0,1-1.47-1.86c-.15-.58-.25-1.12-.34-1.6a4.92,4.92,0,0,0-.44-1.57,5.07,5.07,0,0,0-.9-.47,3.84,3.84,0,0,1-2.05-1.56,1.61,1.61,0,0,1-1.41-.26c-.94-.71-1-2.53-.91-3.93a4.41,4.41,0,0,0-.24-1.12,16.24,16.24,0,0,0-1.92.24l-.05.42a7.43,7.43,0,0,1-.41,1.81l-.25.61a5.34,5.34,0,0,0-.47,1.48,7.3,7.3,0,0,1-2.46,4.12,18.18,18.18,0,0,1-4.89,2.16c-.15,0-.81.24-1.5.46a55.46,55.46,0,0,1-9.31,30.73,2.9,2.9,0,0,1-2.51,1.36,2.94,2.94,0,0,1-2.45-1.38,4.18,4.18,0,0,0-3.17-2,4.42,4.42,0,0,0-3.64,1.42,2.86,2.86,0,0,1-2.81.78,2.9,2.9,0,0,1-2.1-2.07,12.05,12.05,0,0,1,2-10.55,11.46,11.46,0,0,1,3.26-2.91,10.3,10.3,0,0,1,2.36-.78l.43-.11a28.15,28.15,0,0,0-5.29.17l-.75.06c-.66,0-1.33.08-2,.12a29.89,29.89,0,0,1-5.49.05,10.76,10.76,0,0,1-1.88-.37l-.1.28a38.68,38.68,0,0,0-1.46,5c-.52,2.63.38,4.61,1.52,7.11l.37.82c1.93,4.32,3,11,1.41,15.48-1.53,4.18-4.19,4-6.55,3.87-.51,0-1.06-.07-1.64-.06a8.49,8.49,0,0,0-4.9,1.75,21.23,21.23,0,0,1-3.07,1.67,21.89,21.89,0,0,1-7.36,1.59,2.9,2.9,0,0,1-2.92-2.21c-.74-3.37-1.54-6.37-3.35-8.21l-.11,2.44-2.23-2c-2.05-1.85-6-2.58-9.57-1.78l-1.81.4.09-1.85a24.73,24.73,0,0,1,1.45-7.86,17.76,17.76,0,0,1,2.94-4.81c.4-.51.81-1,1.22-1.62,1.71-2.41,1.56-4.26-.55-6.83a.52.52,0,0,0-.3-.06.64.64,0,0,0-.4.12c-1.58,1.71-3.83,1.51-5.81,1.34-1.54-.13-3-.26-3.87.46-1.67,1.37-1.75,3.54-1.36,6.38a18.11,18.11,0,0,0,.75,2.85c.57,1.79,1.16,3.64.79,5.41a32.1,32.1,0,0,0-.49,7.69v.32l-.13.3a.66.66,0,0,0-.06.25c-.11,2.14-1.93,3.2-3.39,4.05a7.24,7.24,0,0,0-1.88,1.35,15.4,15.4,0,0,0-2.58,5.19l-.74,2.44-1.68-1.92c-.67-.77-1.25-1.09-1.73-1-1.79.5-4,5.73-4.71,10.07-.1.61-.17,1.25-.23,1.93a21.3,21.3,0,0,1-.44,3,12.36,12.36,0,0,1-.88,2.26,6.14,6.14,0,0,0-.82,2.67c0,.8.19.92.83,1.43a8,8,0,0,1,1.29,1.23c1.43,1.75.75,5,.1,8.24a26.9,26.9,0,0,0-.56,3.34.38.38,0,0,0,.06.28l.49.62-.27.74c-2,5.45-2.58,9.21.78,11.08a6.21,6.21,0,0,0,1.4.52,6.92,6.92,0,0,1,3,1.55c2.38,2.15,2.92,5.55,3.12,7.93a54.69,54.69,0,0,1-.12,8.11c0,.59-.08,1.18-.11,1.77l0,.48L172,320a15.94,15.94,0,0,0-3.88,6.89.74.74,0,0,0,.3.73.41.41,0,0,0,.51,0,2.55,2.55,0,0,1,3-.06c2.7,2,.55,10.07.53,10.15l-.11.28a.69.69,0,0,0-.06.13l-.17.62a3.71,3.71,0,0,1-.42.8c-1.66,2.31-4.77,3.28-7.52,4.13a30.52,30.52,0,0,0-3,1Zm-14.93-7.36a8.86,8.86,0,0,1,7,2.19c.36.26.71.51,1,.71a7.31,7.31,0,0,0,3.08.71,21.82,21.82,0,0,1,3.57.76c.87-.35,1.81-.64,2.8-.95,2.44-.76,5-1.54,6.06-3.08l.05-.11.1-.38a3.18,3.18,0,0,1,.21-.56,17.12,17.12,0,0,0,.54-6.73,3.24,3.24,0,0,1-3.54-.17,3.55,3.55,0,0,1-1.43-3.65,18.21,18.21,0,0,1,4.18-7.76c0-.44.06-.88.08-1.32a51.76,51.76,0,0,0,.12-7.69c-.16-1.89-.56-4.58-2.2-6.06a4.17,4.17,0,0,0-1.92-.93,8.8,8.8,0,0,1-2-.77c-5.85-3.25-3.74-9.94-2.29-13.93a3.35,3.35,0,0,1-.22-1.43,28.43,28.43,0,0,1,.61-3.76c.37-1.81,1.06-5.17.49-5.88a5.43,5.43,0,0,0-.87-.81,4.22,4.22,0,0,1-1.89-3.51,8.42,8.42,0,0,1,1.08-4,10.16,10.16,0,0,0,.69-1.74,19,19,0,0,0,.38-2.63c.07-.7.14-1.43.26-2.14,0-.11,1.94-11,6.73-12.31a3.75,3.75,0,0,1,2.9.37,16.64,16.64,0,0,1,2.38-4.17,9.13,9.13,0,0,1,2.67-2c1.18-.69,2-1.18,2-1.75a3.5,3.5,0,0,1,.17-.91,34.58,34.58,0,0,1,.55-8.07,9.11,9.11,0,0,0-.72-4,20.46,20.46,0,0,1-.85-3.32c-.43-3.12-.49-6.62,2.37-9,1.77-1.45,4-1.25,5.91-1.09,1.77.15,2.89.2,3.48-.44a3.45,3.45,0,0,1,2.6-1,3.14,3.14,0,0,1,2.36,1.1c1.83,2.23,3.89,5.71.67,10.26-.43.61-.87,1.18-1.3,1.72a15.05,15.05,0,0,0-2.52,4.07,19.85,19.85,0,0,0-1.15,5.24,15.19,15.19,0,0,1,7.94,1.24v-1.59l2,.87c4.81,2.1,6,7.54,6.87,11.5,0,0,0,0,.06,0a19.34,19.34,0,0,0,6.36-1.38,18.65,18.65,0,0,0,2.67-1.47,11.17,11.17,0,0,1,6.38-2.18c.66,0,1.27,0,1.85.07,2.23.14,2.91.18,3.71-2,1.3-3.58.35-9.6-1.33-13.36l-.36-.8c-1.24-2.73-2.42-5.31-1.72-8.84a41.43,41.43,0,0,1,1.56-5.33c.19-.56.39-1.13.57-1.69l.54-1.66,1.52.88a6,6,0,0,0,2.35.67,27.91,27.91,0,0,0,5-.06c.7,0,1.4-.1,2.08-.13l.59-.05c4.57-.45,7.86-.4,9.06,1.29a2.46,2.46,0,0,1,.14,2.57c-.41.89-1.45,1.16-3.34,1.66a14.88,14.88,0,0,0-1.65.49,8.63,8.63,0,0,0-2.44,2.19,9.16,9.16,0,0,0-1.49,8.12.19.19,0,0,0,.12,0,7.22,7.22,0,0,1,5.95-2.29,7,7,0,0,1,5.3,3.27c0,.07.08.07.09.07s.07,0,.13-.09a52.65,52.65,0,0,0,8.83-30.15l0-1,1-.34c.73-.25,2.43-.8,2.83-.88a16.94,16.94,0,0,0,3.68-1.59,4.56,4.56,0,0,0,1.42-2.31,8,8,0,0,1,.66-2.17l.23-.56a5.1,5.1,0,0,0,.23-1.13,4,4,0,0,1,.62-1.94c.28-.38.81-1.08,5.1-1.24l1,0,.37.92a9.19,9.19,0,0,1,.77,3.35,8.53,8.53,0,0,0,0,1.11,2.61,2.61,0,0,1,1,.32,2.17,2.17,0,0,1,1,1.19c.17.1.47.23.68.33a6.19,6.19,0,0,1,1.64,1,5.22,5.22,0,0,1,1.32,3.14c.06.29.11.6.19.93l0,0a6.71,6.71,0,0,1,.64-.42,3,3,0,0,0,.36-1.62,5.55,5.55,0,0,1,.68-3.7c.31-.57.83-1.53,6.48-1.21l.29,0s2,.53,2.83.73l.38.09a5.6,5.6,0,0,0,1.34.22,5.1,5.1,0,0,0-.09-1.26l-.14-.7,1.54-1.74a3.21,3.21,0,0,0,.12-.49,6.07,6.07,0,0,1,.49-1.57,2.43,2.43,0,0,0-.8-1,3.23,3.23,0,0,1-2.14-1.52,3.78,3.78,0,0,1-.47-2.95h-.48c-1.91,0-3.52-1.79-4.48-2.86l-.33-.36c-1.27-1.27-.19-3.21.46-4.38l.15-.27a8,8,0,0,1,1.4-1.74l.55-.59a5.35,5.35,0,0,1,2.21-1.4l.1,0,.26-.3a7.13,7.13,0,0,1,1.72-1.58,3,3,0,0,1-.31-1.22,22.19,22.19,0,0,0-.79-2.23c-.31-.82-.67-1.75-1-2.62-.35-1.08-2.33-2.71-3.62-3.51l-1.05-.66.51-1.13s.28-.61.35-.81a1.58,1.58,0,0,1,.85-.92,3.35,3.35,0,0,1,1.57-.24l-.08-.55.86-.48,1.56-.87a16.34,16.34,0,0,0,1-1.58c.18-.32.35-.61.49-.82,1.06-1.67,4.52-1.32,5-1.22a2.14,2.14,0,0,1,1.29.8l.08.09a12.11,12.11,0,0,1,1.84,2.2.8.8,0,0,0,.28.17,8.12,8.12,0,0,1,.65-1.16,5.63,5.63,0,0,0-1.38-1l-1.06-.55,1-3.17.27-.25c.4-.37,1.38-1.31,2.08-2.06a8,8,0,0,0-1.3-.76l-1.31-.6,1.41-2.95a23.13,23.13,0,0,0-4.27-1.89l-.76-.28c-1.78-.68-2.12-2.81-1.67-4.61l.08-.23.86-2a10.68,10.68,0,0,1-1.22-.61,8.28,8.28,0,0,1-2.85-2.93l-.2-.28c-.15-.21-.26-.35-.33-.44a22,22,0,0,1-2.31.13,9.59,9.59,0,0,1-2.37-.07,9.44,9.44,0,0,1-1-.34,20.85,20.85,0,0,0-3.09-1c-1.47-.33-1.9-1.13-2-1.74a1.87,1.87,0,0,1,0-.48l-1.71-.38c-.22.42-.5,1-.75,1.58l-.35.82-.89,0s-1.71.07-2.73.07a38.7,38.7,0,0,1-5.2-1c-1.54-.35-3.65-.82-4.06-.85-.15,0-.53,0-1,.09a28.76,28.76,0,0,1-7.31,0c-3-.58-9.32-3.81-9.85-4.23-.37-.29-1.46-1.38-1.79-1.71l-.46-.46,0-.65c0-.29.2-2.8.41-4a47.91,47.91,0,0,0-2.13-6.34c-.24-.64-.44-1.15-.54-1.44s-.48-1.05-.86-1.8c-1.26-2.5-2.23-4.53-2.23-6,0-.72-.66-1.42-1.94-2.71-.56-.57-1.2-1.21-1.87-2-2.53-2.92-4-8.19-4.16-11-.09-1.27-2.48-1.81-3.63-2.07a9.34,9.34,0,0,1-.92-.24,11.24,11.24,0,0,0-3.69,1.46c-.41.21-1,.61-1.66,1-1.77,1.17-3.78,2.49-5.47,2.66a.88.88,0,0,0-.74.91l-.08,2.53-2.12-1.4a45.33,45.33,0,0,1-5.11-3.86c-.64-.64-2.12-.51-2.59-.42l-.73.15-.54-.52-11.25-11,.35-.88c.53-1.31,5.17-12.9,6.41-14.83.68-1.06.64-7.22,0-12.52-9.22,0-12.29-3.4-13.93-6.37a50.35,50.35,0,0,0-3.5-5.38l-.83-1.17a8.7,8.7,0,0,1-2.11-5.6l0-.15c-.26-2.47-1-6.74-1-6.79a35.61,35.61,0,0,1-.08-7l-.29-.16a14,14,0,0,0-1.61,3c-.06.28-.18.7-.34,1.23-.59,1.94-1.68,5.55-.76,8.74,1.27,4.42,1.8,10.66-.52,14.92A52.09,52.09,0,0,1,173.18,43a50.29,50.29,0,0,0-4.28,5.81A34.79,34.79,0,0,0,165.12,61l0,.13A29.19,29.19,0,0,1,161.69,70l-.11.15c-2.69,3.15-5.67,6.8-6,7.44s-1.51,2.26-5.79,7.89c-2.35,3.09-4.79,6.29-5.48,7.35A21.36,21.36,0,0,1,142.6,95c-1.08,1.26-1.73,2.06-1.59,2.83.24,1.12,3.93,6.53,7.38,11.14a5,5,0,0,1,1.67-2.13c2-1.22,4.72.93,5.58,1.86a2.94,2.94,0,0,0,1.71.31l1.71-.15-.18,1.71a3.88,3.88,0,0,0,.71,2.44l.19.24c1.24,1.56,2.64,3.34,1.9,7.63v0a27.77,27.77,0,0,0,2.38,4.92l.41.7-.4.71c-.19.33-1.84,3.28-2.26,3.91a3,3,0,0,1-.93.85l0,0a25,25,0,0,0,2.75,5.69,7.9,7.9,0,0,0,2.27,2.19l2.44,1.37-2.54,1.16a4.9,4.9,0,0,0-1.44,1l.33.6c.83,1.48,1.87,3.33,1.8,5.21,0,.95,1,3,1.67,4.23l.63,1.05-.95.78c-.42.34-.86.73-1.08.95a1.63,1.63,0,0,1-.41.58,1.79,1.79,0,0,1-.76.4,1.75,1.75,0,0,0,.2.56,5.06,5.06,0,0,0,.44.57,1.78,1.78,0,0,1,.46,2.14,1.88,1.88,0,0,1-2.18.66,3.73,3.73,0,0,1-2.11-1,1,1,0,0,0-.09.15,3.21,3.21,0,0,0-.25,1.36l.11,1.9-1.85-.43s-1.08-.25-2-.38a5,5,0,0,0-2.35.69c-.48.33-1.93,1.35-3.08.56a1.7,1.7,0,0,1-.72-1.52c-.22.21-.41.41-.59.6a2.56,2.56,0,0,1-2.27,1.14c-1.09-.19-1.56-1.27-1.87-2-.21-.48-.36-.86-.47-1.17l-.8.57a14.08,14.08,0,0,1-3,1.82,77.93,77.93,0,0,0-11.79,7l-.32.24-.4,0a5.22,5.22,0,0,0-1.18.21c-.3.15-2.14,1.32-3.87,2.44-.2.46-.58,1.3-1.21,2.55a11.73,11.73,0,0,0-.82,2.1,16.06,16.06,0,0,1-1,2.51,4.25,4.25,0,0,1-1.14,1.46,3.94,3.94,0,0,1,.21.93,6.68,6.68,0,0,1,0,3.37,1.71,1.71,0,0,0,0,.84,4.47,4.47,0,0,1,.07.68,7.75,7.75,0,0,0,.15,1.06l.64,3.16-2.76-1.67a7.31,7.31,0,0,0-2.39-1,2.55,2.55,0,0,0-1,.18A3.08,3.08,0,0,1,115,191a2.83,2.83,0,0,0-.55.44c-.33.92-1.07,2.91-1.07,2.91l-.09.24-.17.2c-.13.14-1.25,1.42-1.74,1.91-1.06,1.06-3.92,1.11-4.78,1-.51-.06-1.59-.11-2.63-.16s-2.3-.1-2.88-.18A3.58,3.58,0,0,0,98.58,199c-.76,1.14-.77,1.89-.39,4.05a11.15,11.15,0,0,1,.2,1.95v2.9l-2.16-1.69A2.94,2.94,0,0,0,94.29,208l-.62,1.16-.52.18-.13,0,.26.44-.42.74a14.88,14.88,0,0,1-2.32,3l-.19.16-3.11,2.11a.3.3,0,0,0-.1.09l.15.75-.55.53q-1,1-2,2l-.48.5-.69-.08a9.53,9.53,0,0,0-4,.07l-.31.07c-.83.09-1.48.47-2,2.08l-.06.17a8.08,8.08,0,0,0-.4,1.21l-.39,1.47-1.44-.49a3,3,0,0,1-.92-.49l0,0,1.56,2.17-2.67.08-.3.29-.41.06a11.2,11.2,0,0,0-3.94,1.5l-1.77,1.09-.43-2.34v-.15l-.12,0-1.93,2.33-1-2.15c-.13-.27-.28-.59-.4-.81l-1,.5-.74-.85a2.66,2.66,0,0,0-1.6-.95,2.1,2.1,0,0,0-1.64.3,1.73,1.73,0,0,0-.67,1.24,4.2,4.2,0,0,0,.62,2.37c.11.22.21.44.31.66l.65,1.5-1.57.44c-.42.11-1.14.83-1.33,4.35l0,.42-.25.34a.72.72,0,0,0-.13.8l.64,2-2.12-.2c-2.47-.23-8.26-.77-10.16,1.07a2.21,2.21,0,0,0-.62,1.9,4.15,4.15,0,0,0,.66,1.7c.17.31.34.62.5,1s.35.79.49,1.18l.11.29,0,.31c0,.29,0,.57-.07.82s0,.36,0,.52l.16.09.57.32.13.64c.15.77.27,1.55.39,2.37.07.47.14,1,.23,1.46a8.6,8.6,0,0,0,1.6,4.11l.16.2.08.24c.44,1.38,1,3.2,1.57,4.89l.43,1.31-1.29.47a.29.29,0,0,0-.16.14c1.47,2.91,1.35,5.84,1.24,8.66a27,27,0,0,0,0,4.27,11.92,11.92,0,0,0,1.18,4,24.09,24.09,0,0,1,2.6,8.69c.36,3.1.81,6.08,2.5,8.46l.23.39.12,0,.31.24.54.39.59.41,0,1.42,1.84.72.13,1.84a4.92,4.92,0,0,1,2.76.68l1.39.52-.67,1.41a2.19,2.19,0,0,0,0,1.55c0,.05.14.06.28,0l.52-.22,3.4,1.26v.13l.91.42h0a5,5,0,0,0,.77.32l1.7.55-.93,1.53a.3.3,0,0,0,0,.25l3.71,0-.25,1.64c-.07.47-.21,1.2-.34,1.87l6.91.57.15,1.11a9.29,9.29,0,0,0,1.9.07c1.43-.11,10.18-.13,13.33-.14l.1-.41.65-.28a4.38,4.38,0,0,1,1.63-.32c.3-.05,2-.65,3.37-1.18l.32-.13.34,0a8.37,8.37,0,0,1,2.08.48,8.64,8.64,0,0,0,1.37-.55,2.22,2.22,0,0,1,1.76-.14,2.39,2.39,0,0,1,1.31,1.39,7.42,7.42,0,0,0,1.08.08h1l.32,1a4.8,4.8,0,0,1,.2,1.86c0,.61.4,6.55.7,10.5l.43-.11a29.6,29.6,0,0,1,3.21-.5l.43,0,.38.2a15.94,15.94,0,0,0,1.76.82l1.46-.1c.93-.06,2.09-.14,2.61-.21a19.67,19.67,0,0,1,2.94,0l.79,0a9.86,9.86,0,0,0,3.07-.87,9.07,9.07,0,0,1,3.26-.71c.21,0,.38,0,.5,0,.83-.15,2,.15,2.74,2.46a7.6,7.6,0,0,1-.17,3.35c-.21.49-.64,1-2,1.25l.55,3.68,3.06.19,4-.06A36.4,36.4,0,0,1,145.85,337.54Zm-37.49-6.44.23,2c.62-.2,1.19-.39,1.61-.54,0-.43-.06-1-.11-1.53Zm9.71-1.77Zm-73.55-82.1h0Zm238.72-49.1ZM109.5,194.59Zm4.26-6.2Zm183.41-3.64Zm.42-2.79h0ZM295,151.6Zm11-.13h0Zm1-9h0Zm-146.2-10.69Zm.87-11Z"/></svg>