<svg id="Layer_1" data-name="Layer 1" xmlns="http://www.w3.org/2000/svg" viewBox="0 0 350 350"><defs><style>.cls-1{fill:#999;}.cls-2{fill:#f90;}</style></defs><title>M</title><path class="cls-1" d="M330.63,253.92s.36.29,0-1.37-2.24-10.19-2.24-10.19l-1,.43a28.39,28.39,0,0,1-3.32.79c-1.16.14-5.71,2.67-5.71,2.67a13.66,13.66,0,0,1-.65-2.82,43.71,43.71,0,0,0-1.3-5.85c-.22-.58-.36-2.75-.72-3.61s-2.1-3.32-2.6-3.4l-3.32-.43.07-5.78s.22-.43,2.1-.43c.29-1.37-1.37-6.72-1.52-9.47a40.24,40.24,0,0,0-1.59-7.37,7.9,7.9,0,0,1-2.75,0,2.26,2.26,0,0,1-1.45-1.66l-1.45.58-.87-2.38-1-1.08s0-3.4-.07-3.69-2.24-.36-2.24-.36-1.45-3.4-1.45-4.77a11.36,11.36,0,0,1,.72-3.25,5.91,5.91,0,0,1,.22-1.23c.22-.87,0,0,.14-.51s2.24-2.1,2.24-2.1l-2-3,.65-.58c.65-.58,1.88.36,1.88.36l2.53-2.24a2.58,2.58,0,0,0,.36-.94c.07-.51.29-2.1.29-2.82s-.8-.94-1.59-2a3.89,3.89,0,0,1-.8-2.1s-3.11-.07-4-1.66-.36-4.91-.36-4.91l-9.11-48.24-25.37-8-17.34-1.19-10.52,1.08s-3.36,4.66-4.12,6-3.9,6.07-5.2,7-3.36,2.93-3.36,2.93l-6.61,1.19a29.14,29.14,0,0,1-4.55-6.72c-1.3-3.14.11-11.6-4-15.18-6.29.76-19.3,3.58-19.3,3.58s-3.9-9.32-3.14-10.62a6.67,6.67,0,0,1,1.3-1.73s-.65-1.19,1.3-1.63c-.76-5-4-17.24-4-17.24l-3.36.22a24.19,24.19,0,0,0-9.76-7.59l-3.79,1-.87-2.28-3.58.43s0,1.63-1.08,1.63c-2.38-7.37-2.6-8.35-2.6-8.35l-2,.33-2.06-7,1.73-.76-.43-1.63,2-.54-2.38-10,4.55-1.08,1,1.41,1.63-.54.65,1.3,1.63-.22,1,3.58s1.3-.54,1.84-.11,1.84,1,2.28.76a8.84,8.84,0,0,1,1.52-.43V46.25l2.71-.33-.11-2.6,3-.33-.11-2.28,2.93-.65-.33-1.73L184,37.8l1.08,6.4-3.36,1.08.76,3.69,3-.22.43,4,20.92-3.36s6.94-15.29,6.94-16.26c-7.26-.65-82.5-8.46-82.5-8.46L130.41,21l-5.53,1.3s-25.58-8.78-39.46-16a76.3,76.3,0,0,0-9,1.73l-.11,2.28s-1.19.65-1.19,1.19S72.3,12.32,72,13s-2.93,1.3-2.93,1.3V15.9l-1.73,1.19.87,2.06-1.41,1.08L67,21.32,54.63,24.79l1.3,5.31-1.41.33.11,1.08-3.58.65.33,2.06-3.14,1.41a4.54,4.54,0,0,1,.76,2.6,10.27,10.27,0,0,1-.54,1.84l3.36,13.77L49.76,55l1.19,4.44,17.56-4.23-.65-4.55,3.47-1.52-.87-2.71,10-2.93,1.63,5.53,1.73-.65.43,2.49,3.9-1.19s5.1.65,5.64-.11,2.6-1.08,3-1.08,4.34,1.3,6.18.87l.43,1.73,2-.11a35.36,35.36,0,0,0,.76,3.9c.43,1.52.76,3.25-1.08,3.9l-4.88,1.73,5.1,17.78-1.73.87.76,2.49s6.5-1.41,12.57-8.78l1.52,5.42,1.84-.54.65,2.71-5.2,1.63-1.52-.33-3.69,1.73,1.63,7.26-3.25,1.41s-2.38-1.84-3.58-.76l-1.19,1.08-1.52-3.25-2.17.54-.22-1.41-1.73-.22-.65-4s-6.4,2.71-7,3.14-4.55,5.09-4.55,5.09l-3.47-13-2.93,1.19-1.3,1.19-1.3.43-1.3-.43-2.71.43-.87-1.3-1.73.54L71,83.33l-2,.76.87,2.49-5.31,2L62.22,88l-3.58,1.08-1.19-.54L54,89.07l-1-3.79-4.44.33s.87-4.23,3.79-5.85a13.72,13.72,0,0,0,4-3l-1.3-4.31H52.9l.65,1.93H51.82L52.9,76.5s-.65,1.73-2.17,1.73a7.46,7.46,0,0,1-3.25-1.08l-1.08-1.3-1.52.43-.43,2-1.3.87L41,80v2.38l-4.55,2.17-3,2.6.22-5-5.2,4.12L26,85.82a7.72,7.72,0,0,1-3.14,2l2.06,5.85L23.85,95l-4,1.19.76,2.53-1.33.87s2.13,8,2.71,10.26-2.67,2.31-2.67,2.31l0,2c0,2-1.56,1.59-1.56,1.59l1.56,6.14,5.24-1.16,2,6.29s1.88.79,2.17.94a35.82,35.82,0,0,1,1.88,4.34L29.05,134l1.3,5.85-1.88.65.58,1.66,3.76-1s.94,3.47,2.67,8.6c7.08-1.66,6.58-1.81,7.95,1.45,4.84-4,13.15-3.18,13.15-3.18l.29,3.18a6.64,6.64,0,0,0,2.46,2.53c1.37.58,6,3.54,7.73,4.34a8.15,8.15,0,0,0,5.56.43,5.85,5.85,0,0,1,4,.87l1.3-1,.36-2c.36-2,2.67-1.16,2.67-1.16l.22-1.45c.22-1.45,2-1.3,2-1.3l.51-2c.51-2,2.46-1.59,3.54-.72a8.43,8.43,0,0,1,1.88,2.6l1.73-1,1.66,2.67,1.08-.29,1.52,1.66L98,154s2.89.72,3.61,1,1.16,2.53,1.16,2.53l.87.07,1.88-.29,1.16,3.54,3.76-1,1.08,1.37,5.42-1.23,2.6,10.41-1.66.94,3.76,14.24,2.31.14.51,2.6-1,2.82s3.69,12.94,3.83,14.45-3.11,2-3.11,2l4,1.3,8.67,3.69.87,2.82,2.17.43L142.37,226l-3.25,1.3-4.48-2.82-5.49.43s3.54,3.11,3.69,3.32a30.17,30.17,0,0,1,.58,3,3.7,3.7,0,0,0-3,1.52c-1.37,1.66.14,4.77,2.24,8.82s2.1,6.58,1.3,9.32a17.78,17.78,0,0,0-.22,6.43,5.54,5.54,0,0,1-2.53,1.73c-1.52.43-2.24-1.66-2.24-1.66l-1.3-.14c-2,5.64,2.89,10.55,2.89,10.55l5.06,11.85,1.3-.51a3.79,3.79,0,0,1,1.81.94c.51.65.51,3,.51,3a16.5,16.5,0,0,1,3,8.24c.58,8.17,3.76,13.08,3.69,16.62s4,9,4,9l5.56.36,11.42,26.45,7.44-.65,5.71-1.59s.58-.22,2.53-1.16,8.38-6.72,8.38-6.72l3.61.36,4.26-3.32.79-6,2.24-.29,1.3,1.52,3.4,1.08,2.67,3.69,5.06-1.52-1.66-7.52,12.43-3.54,15.83,10.12,9.32-5.35,9.18-1.59,3.83-2.24-1.08-5.42,25.08-11.2.8-5.49s-.72-2.17-1.37-3.61,2.53-1.52,1.88-2.31-.8-5.13-.8-5.13,8.09-1.73,9.32-2.24,6.36-1.08,8.74-2.67,6.29-1,6.29-1l-1.52-2.46c-.72-3.47,5.06-13.95,5.64-15.1s1-1.81,1.52-2.67,5.71-3.11,5.71-3.11l2.31.8a8.86,8.86,0,0,0,2.82,1.59c1.59.51,3.69-.79,3.69-.79Z"/><path class="cls-2" d="M166,345.25l-11.48-26.59-5.36-.35-.39-.53c-.44-.6-4.33-6-4.25-9.9a17.74,17.74,0,0,0-1.2-5.08,45.39,45.39,0,0,1-2.48-11.41,15.23,15.23,0,0,0-2.75-7.48l-.29-.38V283a7.68,7.68,0,0,0-.25-2.16,3.28,3.28,0,0,0-.57-.25l-2.13.83-5.5-12.88c-1-1.08-5.1-6-3-11.82l.38-1.05,3.3.37.29.85a1.74,1.74,0,0,0,.53.77,3.78,3.78,0,0,0,1.41-.87,18,18,0,0,1,.34-6.34c.7-2.42.73-4.55-1.2-8.28-2.11-4.07-4.1-7.92-2.07-10.37a5.58,5.58,0,0,1,2.43-1.76c-.08-.44-.15-.83-.21-1.08-.54-.51-2-1.83-3.36-3l-2.52-2.21,9.31-.74,4.27,2.68,1.43-.57-2-8-2.12-.42-.92-3-8-3.4-9.54-3.12,5.84-.91a5.21,5.21,0,0,0,1.89-.66c-.25-1.41-2.07-8.12-3.76-14l-.12-.44,1-2.88-.22-1.14-2.24-.14-4.3-16.28,1.68-.95-2-8L111,162.85l-1.06-1.34-4.15,1.12-1.2-3.67-.86.13-2.1-.18-.21-1.05a6.81,6.81,0,0,0-.49-1.56c-.56-.18-1.78-.51-2.76-.76L94.81,157l-1.62-1.78-1.27.34-1.49-2.4-1.9,1.11-.65-1.42a7,7,0,0,0-1.48-2.09,1.57,1.57,0,0,0-1.11-.4s-.12.15-.17.36l-.8,3.19-1.2-.1a1,1,0,0,0-.53.1l-.46,3.17-1.64-.61a1.58,1.58,0,0,0-.75-.08s0,.06,0,.15l-.46,2.56-2.53,2-.85-.55a4.36,4.36,0,0,0-2.91-.68,9.51,9.51,0,0,1-6.51-.52c-.93-.43-2.48-1.34-4.12-2.31-1.4-.82-3-1.76-3.58-2a7.86,7.86,0,0,1-3.15-3.15l-.15-.26-.21-2.26c-2.32-.06-7.63.15-10.94,2.92l-1.47,1.23-1-2.27a6.46,6.46,0,0,0-.59-1.24,22.49,22.49,0,0,0-4.16.81l-2.61.62-.41-1.22c-1.1-3.27-1.88-5.85-2.31-7.32l-3.68,1-1.48-4.25,2-.7-1.19-5.34L28.93,132c-.46-1.18-1-2.37-1.21-2.91L26,128.32l-.6-.25-1.83-5.68-5.32,1.17L15.67,113.5l2.16.79s0-.1,0-.16l.05-3.31,1.36,0a2.54,2.54,0,0,0,1.36-.39s0-.06,0-.15C20,108,17.89,100,17.89,100l-.26-1,1.3-.85-.86-2.87L23,93.81l.34-.44L21,86.78l1.5-.38A6.23,6.23,0,0,0,25,84.84l.53-.55,2.51.45,7.13-5.65-.21,4.82.87-.68,3.75-1.78V79l2.92-1.17.7-.47.49-2.22,3.22-.92L48.41,76a5.74,5.74,0,0,0,2.32.77.79.79,0,0,0,.56-.36l-1.77-3.54h2.05L50.92,71h5.2l1.82,6-.44.58A14.85,14.85,0,0,1,53,81a6.36,6.36,0,0,0-2.46,3l3.5-.26,1,3.7,2.62-.41,1.09.5,3.43-1,2.34.53,3.61-1.33-.86-2.47,2.08-.81-.45-1.93,4-1.25,1,1.43L76,80.35l1.18.39.57-.19L79,79.4l4.65-1.9,3.19,11.95a29.34,29.34,0,0,1,3.1-3.29c.69-.46,5.32-2.44,7.28-3.27l1.66-.71.77,4.75,1.74.22.14.93,1.79-.45,1.21,2.58c1.29-.94,3.05-.46,4.45.39l1.46-.63-1.62-7.23L114,80.32l1.62.35,2-.62-.18.05-1.21-4.31c-5.75,6-11.35,7.23-11.61,7.29l-1.28.28-1.49-4.89,1.75-.88L98.44,59.67l1.25-.45,4.88-1.74c.4-.14.74-.26.19-2.18a28.26,28.26,0,0,1-.6-2.81l-1.84.1-.43-1.71a21.77,21.77,0,0,1-4.5-.79l-.66-.16a5.07,5.07,0,0,0-1.86.54c-.31.44-1,1.36-6.62.67l-5.15,1.57-.42-2.39-1.56.58L79.48,45.3l-7.22,2.12L73.07,50l-3.65,1.6.68,4.76L49.94,61.18l-1.83-6.83,2.08-1.21L47,39.95l.19-.44A9.09,9.09,0,0,0,47.61,38,3.35,3.35,0,0,0,47,36.39L46.16,35l3.66-1.64L49.44,31l3.65-.67-.1-1L54.22,29l-1.29-5.25,12.41-3.48-.13-.66,1.24-1-.89-2.12,2.07-1.42v-2l1.07-.27a9.91,9.91,0,0,0,2.12-.76,4.3,4.3,0,0,1,2.44-1.32l.65-.21a3.39,3.39,0,0,1,1-1.14l.12-2.58,1-.27a77.14,77.14,0,0,1,9.18-1.77l.44-.06.4.21c12.7,6.65,35.63,14.7,38.88,15.83l6.51-1.53,1,4.08c9,.93,74.76,7.75,81.47,8.35l1.29.12v1.3c0,.35,0,1.28-7.06,16.85l-.31.69-23.15,3.72-.45-4.14-2.91.21L180,44.32l3.4-1.1-.65-3.84-1.28.17.3,1.61-3.1.69.12,2.42-3,.33.11,2.58-2.76.33v1.64l-1.14.23a7.77,7.77,0,0,0-1.16.31c-1.18.6-2.92-.32-3.59-.77a2.7,2.7,0,0,0-.61.16l-1.49.62-1.07-3.94-1.4.19-.55-1.11-1.47.49-1-1.49-2.23.53,2.37,9.92-1.92.53.39,1.45-1.71.75,1.36,4.64,2-.34.29,1.31s.22.9,1.75,5.67l5.06-.62.81,2.13,3-.78.44.18a25.79,25.79,0,0,1,9.88,7.43l3.76-.24.3,1.13c.13.5,3.28,12.38,4,17.39l.2,1.31-1.29.29-.14,0,.28.6-.86.72h0a6.18,6.18,0,0,0-.87,1.19c0,1.06,1.29,4.94,2.69,8.43,3.35-.71,13-2.72,18.26-3.35l.62-.08.47.41c3.14,2.73,3.49,7.54,3.78,11.41a17.35,17.35,0,0,0,.61,4.29,25.44,25.44,0,0,0,3.79,5.72l5.41-1c.64-.59,2.12-1.95,3.17-2.74s3.93-5.08,4.83-6.63c.78-1.34,4.05-5.88,4.19-6.08l.37-.52,11.27-1.16h.12l17.67,1.25L290,117.35l9.31,49.31,0,.24a8.62,8.62,0,0,0,.2,4c.3.55,1.83.9,2.77.92l1.38,0v1.38h0a2.6,2.6,0,0,0,.52,1.26,5.15,5.15,0,0,0,.74.79,2.72,2.72,0,0,1,1.12,2.07,28.68,28.68,0,0,1-.3,3,4,4,0,0,1-.59,1.52l-.24.27-3.32,2.94,1.17,1.83-1,.79a15.85,15.85,0,0,0-1.8,1.55v0l-.06.25a5.69,5.69,0,0,0-.18.92v.22l-.08.25a9.72,9.72,0,0,0-.63,2.74,14.45,14.45,0,0,0,1,3.4c1.58.12,2.4.43,2.64,1.39a19.37,19.37,0,0,1,.11,3.47l.83.89.47,1.28,1.65-.66.35,1.65c0,.16.21.53.4.58a6.38,6.38,0,0,0,2.15,0l1.23-.22.37,1.2a41.07,41.07,0,0,1,1.65,7.72,35.94,35.94,0,0,0,.81,4.65c.57,2.65.88,4.2.68,5.18l-.24,1.13h-1.15c-.29,0-.51,0-.69,0l0,3.53,2.09.27c1.65.24,3.7,4.22,3.71,4.25a11.89,11.89,0,0,1,.55,2.56c.06.4.14,1,.19,1.12a42.07,42.07,0,0,1,1.39,6.34,4,4,0,0,0,.12.73,20.59,20.59,0,0,1,4.65-2,25.59,25.59,0,0,0,3-.72l2.51-1.08.37,1.67s1.88,8.53,2.24,10.19a5.06,5.06,0,0,1,.17,1.75l1.86,4.77-1,.62c-.27.17-2.71,1.63-4.86.94a10.31,10.31,0,0,1-3.09-1.68l-1.55-.53a28.73,28.73,0,0,0-4.6,2.39l-.35.59c-.35.58-.67,1.12-1.07,1.92l-.32.61c-4.81,9.15-5.31,12.32-5.23,13.36l3,4.8-3-.45c-.94-.14-3.72-.26-5.29.79-1.84,1.23-4.86,1.87-7.06,2.34a18.75,18.75,0,0,0-1.93.47c-1.06.43-5.93,1.52-8.38,2.06a14.33,14.33,0,0,0,.46,3.17,1.68,1.68,0,0,1,.32,1.41,2.41,2.41,0,0,1-1.59,1.52l-.24.11c.6,1.44,1.19,3.18,1.22,3.26l.11.32-1,6.6-24.76,11.06,1.06,5.3-4.92,2.88-9.18,1.59-9.85,5.65-16-10.24-10.53,3,1.66,7.5-7.28,2.19-3-4.12-3.34-1.07-1.06-1.24-.4.05-.73,5.49-5.17,4-3.56-.36c-1.61,1.43-6.43,5.65-8.25,6.53s-2.58,1.18-2.65,1.21l-.12,0-6,1.64Zm-15.32-29.68,5.76.37,11.36,26.31,6.29-.55,5.51-1.53c.17-.07.83-.35,2.37-1.09,1.29-.62,5.62-4.31,8.05-6.5l.47-.42,3.67.37,3.36-2.62.86-6.5,4.08-.53,1.54,1.79,3.46,1.1,2.36,3.25,2.83-.85L211,320.64l14.33-4.08,15.64,10,8.79-5,9.17-1.59,2.74-1.6-1.11-5.54L286,301.44l.63-4.38c-.22-.64-.74-2.12-1.21-3.17-.58-1.3-.07-2.38,1.52-3.21a21.29,21.29,0,0,1-.56-4.77l0-1.18,1.16-.25c3.31-.71,8.32-1.85,9.08-2.17a16.4,16.4,0,0,1,2.42-.62c1.87-.4,4.68-1,6.08-1.92a9.21,9.21,0,0,1,4.48-1.33l-.26-.43-.05-.24c-.52-2.48,1.22-7.39,5.46-15.47l.29-.56c.45-.9.82-1.51,1.18-2.11l.38-.65c.18-.31.74-1.27,6.37-3.7l.5-.22,3.1,1.06.21.19a7.51,7.51,0,0,0,2.31,1.3,2.6,2.6,0,0,0,1.45-.17l-3.1-7.94,1.36,1.09-1.39-6.34a25.23,25.23,0,0,1-3.13.72,35.21,35.21,0,0,0-5.2,2.51l-1.49.83-.54-1.62a13.46,13.46,0,0,1-.72-3.27,46.77,46.77,0,0,0-1.21-5.36,8.94,8.94,0,0,1-.34-1.68,12,12,0,0,0-.37-1.88,13.21,13.21,0,0,0-1.8-2.58l-3-.39-1.25-.16.09-7.37.15-.29a2.42,2.42,0,0,1,1.89-1.11c-.14-.87-.4-2.08-.59-3a36.68,36.68,0,0,1-.87-5.1,32.54,32.54,0,0,0-1.2-5.91,7.35,7.35,0,0,1-2.06-.16,3.19,3.19,0,0,1-1.79-1.23l-1.59.63-1.27-3.49-1.2-1.28v-.56c0-.88,0-1.87,0-2.57l-.92-.06-.9,0-.35-.83c-.26-.61-1.56-3.74-1.56-5.32a11.94,11.94,0,0,1,.74-3.55,9.21,9.21,0,0,1,.24-1.27q0-.13.07-.25l0-.08h0l0-.13h0c.1-.34.24-.85,1.75-2.11l-1.91-3,1.56-1.38a2.45,2.45,0,0,1,2.63-.31l1.6-1.42a1,1,0,0,0,.08-.24c.11-.79.24-1.84.27-2.42l-.19-.17a7.85,7.85,0,0,1-1.12-1.21,5.69,5.69,0,0,1-.83-1.62c-1.28-.19-3.19-.74-4-2.3-.94-1.73-.68-4.57-.55-5.56l-8.91-47.18-24.4-7.72-17.05-1.17-9.76,1c-1.1,1.54-3.15,4.43-3.67,5.33-.4.69-3.86,6.18-5.58,7.47-1.22.92-3.22,2.8-3.24,2.82l-.31.29-7.8,1.41-.53-.58a30.22,30.22,0,0,1-4.81-7.13,18.12,18.12,0,0,1-.82-5.17c-.23-3.13-.51-7-2.38-9.06-6.37.85-18.37,3.44-18.49,3.47l-1.15.25-.46-1.09c-4.17-10-3.37-11.36-3.06-11.88a11.13,11.13,0,0,1,1-1.47,2.3,2.3,0,0,1,.21-1,2.51,2.51,0,0,1,1-1.12c-.79-4.33-2.75-12-3.5-14.85l-3,.19-.46-.66a23,23,0,0,0-8.71-6.9l-4.55,1.17-.92-2.42-1.45.18a2.41,2.41,0,0,1-2.29,1.76h-1l-.32-1c-1.26-3.9-1.92-6-2.27-7.18l-1.94.32-2.76-9.45,1.76-.77-.48-1.81,2-.55-2.4-10,6.88-1.64.92,1.33,1.78-.59.75,1.5,1.85-.25.94,3.46a2.42,2.42,0,0,1,1.72.48,3.44,3.44,0,0,0,1,.48l.46-.16V45l2.66-.32-.11-2.62,3-.32-.1-2.13,2.75-.61-.35-1.86,7-.92,1.52,9-3.32,1.07.25,1.23,3.16-.23.42,3.89,18.7-3c2.41-5.32,4.93-11.06,6-13.74-13.43-1.31-80-8.21-80.73-8.29l-1-.1-.77-3.29-4.55,1.07-.39-.13c-.25-.09-25.36-8.73-39.26-15.92-3.21.44-6,1.05-7.38,1.39l-.1,2-.7.38a3.46,3.46,0,0,0-.5.34c-.23,1-1.38,1.36-2.4,1.68-.3.09-.78.24-1,.35a5,5,0,0,1-2.62,1.47v1.3l-1.4,1,.84,2-1.58,1.21.3,1.51-12.3,3.45,1.32,5.38-1.59.37.11,1.14-3.5.64L53,35.07l-2.81,1.26a4.21,4.21,0,0,1,.24,2.18,12.53,12.53,0,0,1-.45,1.66l3.51,14.37-2,1.18L52,57.78l15-3.6-.62-4.34,3.29-1.44-.92-2.88L81.4,41.78,83,47.21l1.91-.72.45,2.6L88,48.28l.3,0a21.11,21.11,0,0,0,4.55.19c1.24-1.26,3.92-1.39,3.95-1.39a5.63,5.63,0,0,1,1.29.25c1.06.27,3.54.9,4.57.65L104,47.7l.49,2,2.09-.12.18,1.3a34,34,0,0,0,.72,3.7c.32,1.11,1.28,4.48-2,5.63l-3.62,1.29,5.05,17.63-1.49.74A26,26,0,0,0,115.76,72l1.73-2.1,1.86,6.65,1.9-.56,1.31,5.45-6.82,2.13-1.41-.3-2.23,1,1.63,7.3-5.1,2.21-.66-.51a3.52,3.52,0,0,0-1.81-.8l-2.56,2.35-1.84-3.94-2.54.64-.29-1.89-1.73-.22-.53-3.27c-2.47,1.06-4.79,2.09-5.17,2.32S89,91.28,87.27,93.34l-1.75,2.09L81.76,81.34l-1.2.49-1.34,1.23-2,.68-1.42-.47-3.2.51.1.43-1.83.71.88,2.52L64.7,90l-2.43-.55-3.73,1.13L57.25,90l-4.32.67-1-3.89-5.13.38.38-1.83a12.26,12.26,0,0,1,3-5.7,9.29,9.29,0,0,1-3.46-1.27l-.19-.12L46,77.62l-.33,1.47-2,1.32-1.28.51v2.32L37.2,85.72l-5.37,4.61.22-5.15-3.28,2.59-2.31-.42a9.68,9.68,0,0,1-1.8,1.24l1.86,5.3-1.83,2.38-3.09.92.66,2.18-1.36.89c.59,2.22,2,7.52,2.45,9.28a2.89,2.89,0,0,1-.45,2.56,3.93,3.93,0,0,1-2.2,1.33v.75a3,3,0,0,1-1.07,2.47l-.18.13.87,3.43,5.15-1.14,2.22,6.9c.62.26,1.43.61,1.65.72.51.25.79.39,2.57,5.1l.31.82-1.61,1.76,1.23,5.54,2-.53.37,1.37s.8,2.94,2.24,7.29l.09,0c4.77-1.13,6.2-1.47,7.51,1,5.23-3.17,12.38-2.47,12.71-2.44l1.16.12.37,4a4.77,4.77,0,0,0,1.62,1.67c.78.33,2.23,1.19,3.92,2.18,1.43.85,3.06,1.81,3.85,2.17a6.76,6.76,0,0,0,4.62.35,6.52,6.52,0,0,1,4.26.55l.14-.11.27-1.49a2.89,2.89,0,0,1,1.41-2.11,3.16,3.16,0,0,1,1.47-.4v-.05a2.91,2.91,0,0,1,2.29-2.4l.26-1.06a3.12,3.12,0,0,1,2-2.36,4.16,4.16,0,0,1,3.78.87,7.58,7.58,0,0,1,1.52,1.76l1.68-1,1.84,3,.9-.24,1.41,1.55,2.33-1,.47.12c.5.13,3,.76,3.8,1.07a3.51,3.51,0,0,1,1.75,2.45l2.6-.4,1.11,3.41,3.36-.91,1.11,1.4,5.9-1.34,3.2,12.8-1.65.93,3.22,12.19,2.39.15.79,4.06-1,2.76c.83,2.92,3.61,12.79,3.75,14.27a2.42,2.42,0,0,1-.66,1.93l.67.23,9.28,3.94.81,2.64,2.22.44,3,12.19-5.07,2-4.69-3-1.7.13a9.25,9.25,0,0,1,1.43,1.39c.17.25.32.48.8,3.53l.28,1.8-1.81-.17a2.44,2.44,0,0,0-1.74,1c-.83,1,1,4.62,2.41,7.26,2.34,4.53,2.26,7.42,1.4,10.37a16.08,16.08,0,0,0-.18,5.82l.09.61-.38.48a6.89,6.89,0,0,1-3.26,2.23,2.87,2.87,0,0,1-3-.89c-.29,4,2.91,7.24,2.94,7.28l.19.19.11.25,4.52,10.59.42-.16.42.09a4.87,4.87,0,0,1,2.62,1.45,6.5,6.5,0,0,1,.8,3.37,17.76,17.76,0,0,1,3,8.63,43,43,0,0,0,2.35,10.71,19.55,19.55,0,0,1,1.34,6C147.35,310.18,149.52,313.81,150.72,315.57Zm136.75-23.68h0Zm2.2-1.79h0ZM100.81,156.19ZM54.11,75.75l.33.67-.11.31.44-.39-.18-.59ZM167,48.77h0ZM73,13.92ZM70.89,12.1Zm5.65-.64h0Z"/></svg>