<svg id="Layer_2" data-name="Layer 2" xmlns="http://www.w3.org/2000/svg" viewBox="0 0 350 350"><defs><style>.cls-1{fill:#999;}.cls-2{fill:#f90;}</style></defs><title>M_</title><path class="cls-1" d="M294.51,184.35c-2.49-2.54-4.87-5.18-7.22-7.84s-4.51-3-7.32-4.69c-4.6-2.68-2-7.18.4-10.69,3-4.38,7.45-6.26,12.2-7.8.13-.24.24-.47.38-.71,1-1.67,2.68-1.89,8.58-3.23.11-3.34-6.91-10.7-7.47-11.37s0-.56.33-1.11-.11-.78-.56-1.11-.56-1-.56-1.9,1.11-.67,2.45-1.34-.67-.78-1.11-2.12a15,15,0,0,0-1.34-2.45c-.78-1.11.67-1.56.56-2.68s.11-1.11-.67-1.45.67-.89.67-.89a8.7,8.7,0,0,1-1-1.56,2.45,2.45,0,0,1,0-1.23c.07-.56-.08-.67-.08-.67a2.14,2.14,0,0,0-.1-1.45c-.33-.78.33-.78,0-1a9.24,9.24,0,0,1-1.34-1.45c-.67-.78.56-3.79.86-5s-2,.33-2,.33-.89.78-2,1.67a13.57,13.57,0,0,0-2.34,3,21.36,21.36,0,0,1-3.79,3c-2.56,1.67-2.34,1.45-3.34,2.45a47.28,47.28,0,0,1-3.34,3.46,2.34,2.34,0,0,1-2.34.67s-4.46-1.56-6-2.23-13.93-5.91-16.61-6.58-13.6-2.56-13.6-2.56-9.36,6-11,7.25-12.37,5.57-13.49,6.24-4.79.78-4.79.78l-.56,12.71-9.47,1.89a7,7,0,0,0,0-2.34,21.45,21.45,0,0,0-.56-3.23,10,10,0,0,1-.56-3.34,2.49,2.49,0,0,0-.89-1.9l-.87.25a1.93,1.93,0,0,0-.09-.26l-3.07-6.51a1.77,1.77,0,0,0-2-.81c-14.16,4.86-22.82-11.25-18.71-23.16,4.52-13.1,18.24-19.58,30.61-23.27,6.21-1.85,12.82-3.09,19.22-1.41,1.61.42,2.56,1.11,4.1.76,2.46-.57,5.69-3.56,8-4.84A143.82,143.82,0,0,1,269.64,58.2a1.78,1.78,0,0,0,.78-2.95,141,141,0,0,1-27.61-43c-.59-1.44-3-1.9-3.4,0-1.37,6.59-14.67,2.28-16,10.47-.42,2.56,1,4.39,3.17,5.56,2.45,1.35,5.31.51,6.74,4.05a11.91,11.91,0,0,1,.31,3.88,4.11,4.11,0,0,0-.25,2.65c-.19-.08-.37-.17-.57-.24a1.78,1.78,0,0,0-2.23,1.7,2.86,2.86,0,0,0,3.5,2.88c4.37,3.42,1.12,10.47-3.06,12.95s-10.43,3.41-14.8.85c-4.79-2.82-7.34-8.64-12.56-10.84a8.51,8.51,0,0,0-5.8-.38c-2.29.64-5,4-7.16,4-4.27.17-3.55-7.33-4.4-9.82a20,20,0,0,0-4-6.77,34.31,34.31,0,0,1,1.42-10.79,1.79,1.79,0,0,0-2.17-2.17l-14.81,2.83a1.76,1.76,0,0,0-3.44-.43l-2.91,1.65-1.42.27a1.5,1.5,0,0,0-1.24,1.74,5.1,5.1,0,0,1-2.93-1.52,1.76,1.76,0,0,0-1.72-.45L131.94,30.8c-5.57,1.71-16.15,7-21.11,2a1.78,1.78,0,0,0-2.95.78C102.75,53.28,79.09,53.29,62.6,56.3c-2.24.49-1.27,3.81.94,3.4,5.08-1.11,3.95,5,1.44,7.68A48.16,48.16,0,0,0,54.38,68.5c-1.7.33-1.67,3.05,0,3.4,3.66.77,8.75.94,12.36-.93a10.68,10.68,0,0,1,6.69,3.3c3.6,4,1.22,9.65,3,14.32A14.29,14.29,0,0,0,83,96a1.77,1.77,0,0,0,1.57,1.21l1.85.16a16.64,16.64,0,0,0,3.91.59,1.69,1.69,0,0,0,.84-.19l28.28,2.37c2.94.25,8.44-.24,10.56,2.29,1.14,1.35,2,4.83,2.81,6.47a47.47,47.47,0,0,0,6.74,10.34c2.44,2.8,8,5.45,9.68,8.54,4.57,8.32-2.9,5.6-5,9.58a4.08,4.08,0,0,0-.45,1.62,1.5,1.5,0,0,0,0,1.21c2,5.75,7.56,4.59,12,2.16a1.66,1.66,0,0,0,.82-1.41c.8,0,1.34.21,1.35.79a1.8,1.8,0,0,0,3.33.85l4.13,10.68s-2.89,1.93-3.7,2.45a86.35,86.35,0,0,1-9.29,4.9c-2,.67-8.32,3-10,3.12a26.46,26.46,0,0,0-4.68.52,37.49,37.49,0,0,1-6.54.82c-1.26,0-5.28-1-6-1s-3.12-.3-3.42-.22-1.78.82-1.78.82a37.05,37.05,0,0,1-7.13,4.46c-3.12,1.26-8.55,5.42-13.15,10.18s-10.4,11.52-10.18,16.5,2.3,16.13,2.3,16.13-23.11-2-25.07-2.68a7,7,0,0,0-1.71-.37c-3-1.93-6-3.85-9.14-5.63-2.6-1.5-5.23-3-8.33-2.32-4.7,1.09-6.12,7.05-1.46,9.25a2,2,0,0,0,1,.17c3.94,7.9,12.63,10.76,20.61,14.26,0,.11.09.23.15.37.56,1.23,1.56,1.9,2.62,3s3,2,3.85,3.4,1.39,1.5,2.56,2.62,5.57,4.9,8.08,5.41,10.92,2.34,13.32,3.34a58.62,58.62,0,0,1,6.74,3.4c.17.22-1.34,5.18-.95,5.46s1.78-.28,2.34.84,3.73,8.08,4.68,9.64,2.06,4.07,2.56,4.79a4.05,4.05,0,0,0,3,1.62,24.11,24.11,0,0,0,5-1.39c1.17-.45,3.07-.39,4.12-1.23S128.6,264,128.6,264s-2.45-5.35-2.29-5.8,1.39-.95,2.34-.95a20.59,20.59,0,0,1,4.29,1.34c1.28.45,4,.78,4.51,2.28a4.76,4.76,0,0,0,1.39,2.12l3,.33a4.18,4.18,0,0,0,.84-1.62c0-.56-.33-3,.5-3s4.12.17,4.63.67,2.51,4,3.62,5.18a13.56,13.56,0,0,0,2.68,2.06s.06-.45,1.17-.22,2.45.61,2.4.78a4.44,4.44,0,0,0,0,2.17c.28.95,1,3,1,3s-1.5,2.23-1.28,3.34a28.12,28.12,0,0,0,1.12,3.34,2.17,2.17,0,0,1,2,1.12,51,51,0,0,1,4.34,9.59,2.37,2.37,0,0,1-1.64,2.89c-3.2.68-6.4,1.26-5.34,5,.61,2.15,2.38,4.27,3.57,6.1,2.14,3.32,4.8,7.09,4.32,11.26a2.43,2.43,0,0,1-1.73,2.27,15,15,0,0,1-10.84-1.06,2.4,2.4,0,0,1-1.08-2.66c2.16-9-4.81-11.12-11.91-12.68l-.78.35,1.28.84-3,1.89,1.65,1.32a3.78,3.78,0,0,1-.93,1.08c-.45.26-.74,0-1.11,0s-.71.33-1.45.74-1,.07-2-.22-.41-.3-.82-1a4.33,4.33,0,0,0-.85-1c-.26-.3-.85-.56-1.41-1s-.59-.52-.41-.85.19-.56,0-1.11-.41-2-1-1.78-1,0-2.56,0-2.34,2.9-2.34,2.9a17.67,17.67,0,0,1,3.07,2.23c1.11,1.11,1.73.95,2.4,1.73s2.06,2,1.5,2.62-.33.56-1.45.72-2.12.33-3.07.56a20.16,20.16,0,0,0-2.79,1.15c-.61.25-1.62.41-2.12,1.14s-1.45,1-1.39,1.39.72.84,1.56,1.17,1.56-.06,1.89.39.33.84,1.06,1,1.62,0,2,.33-.22.79.89,1.29.95.67,2,.72a9.5,9.5,0,0,1,2,.06c.28.17-.11,1.45.39,2.4s1.28,1,1.56,1.5,1.67.67.06,1.45-2.79,1.11-2.84,1.5-1.11.61,1.11,1.11,4.29.95,4.51,1.45,1.56.72,1.17,1.45-.72.33-.95,1.23-1.06,1.11.28,1.11,2.06-.33,2.4.17a4.48,4.48,0,0,1,.45,1.56,3.11,3.11,0,0,1,2.4-.89c1.28.22,2.06-.11,2.56,1.06s.28,2.12,1.11,2.23a3.05,3.05,0,0,0,2.34-.28c1.23-.56,2.12-1.11,2.53-1s.92-.06,1.37.28a9.67,9.67,0,0,0,2.34,1.67c1.45.72,2.84,1.5,2.84,1.5s3-1.34,3.51-1.67a17.4,17.4,0,0,0,1.9-1.67s-2.9-1.45-1.67-2.79,1.9-1.89,2.45-2.56a52.42,52.42,0,0,0,4.24-5.46c.78-1.45,1.56-2.9,2.56-1.34s1.34,2.68,1.89,2.68a14.55,14.55,0,0,0,1.45-.33,10.16,10.16,0,0,0,1.78-.67s-.78-.78,0-1.34a6,6,0,0,1,1.78-1c.45-.11,1.23-.11.78-.78a20.74,20.74,0,0,0-1.11-2.23c-.56-.67-2.68-1.78-1.45-3.12s.56-.11,1.23-1.34.71-2.34,1.47-2.45,1.28-.17,1.54-.92c1.23-3.59,2-5.33,2.68-6s1-2.68,1.11-3a5.64,5.64,0,0,1,1.89-1.56,7.75,7.75,0,0,1,2.56-.22l2.23-.56.89,1,1-.67a5.4,5.4,0,0,0,2,.33c.78-.11,0,0,.67-.45s4.24-2.56,4.24-2.9-.89-.67-2-1,3.12-4.79,4.46-5.91.11-2.34-.11-2.68-2.79-1.11-3.85-1.45,1.06-1.23,1.06-1.23,4.9-2.34,6.69-3.46-1.11-3.46-1.11-3.9,3.23-3,4.79-4.12,7.91-5.35,9.7-7.58,3-7.69,3-7.69,4.68-2,6.35-1.67,2-2.12,2.79-2.68,3,1.34,4.32.67,6.38-2.68,5.83-3.68-3.34-4-3.23-4.46,3-1.67,3.34-1.89a20.75,20.75,0,0,0,2.23-1.56,7.17,7.17,0,0,0,.89-2.12,9.49,9.49,0,0,0-1.45-2.79,1.24,1.24,0,0,1-.56-1.11s.45-.56,1.23-1.34a12.13,12.13,0,0,1,3.46-1.67c.56-.22.89,1.34,2.12,2.12s1.23,0,1.56-.11a5.74,5.74,0,0,0,1.56-1.67c.56-.78,1.78-.45,2.56-.45a9,9,0,0,1,2.12.33,4.57,4.57,0,0,0,3.12-1c.89-.56.33-1-.11-1.67s.78-1.34,1.45-2a4.61,4.61,0,0,1,2.12-.89s1.67,1.45,3.68,3.46a38.31,38.31,0,0,1,5.13,6.58c.56,1.11.89.33,1.67,0s2-1.56,3.12-2.12a13.9,13.9,0,0,0,3.34-2.34,4.29,4.29,0,0,1,3.23-1.34c1.34,0,1.89-.22,2.23-.89s-1.23-1.11-2.12-1.56-1.78-.89-2.68-1.45-.78-.89-.67-2.12-1-1.45-1.9-2,.33-1.34,1.11-3a2.27,2.27,0,0,1,2.45-1.34,8.19,8.19,0,0,0,1.78-1.78,7.36,7.36,0,0,1,2.34-1.78s2.34-1.67,2.79-2.9-1.61-3.12-1.61-3.12,4.4-3.68,6-5.13,3.34-4.57,4.79-5.24,3.9.33,3.9.33a9.31,9.31,0,0,1,1.34-2.12,18.76,18.76,0,0,0,2-2.56,10.68,10.68,0,0,0,1.15-2.09C302.14,192,298.17,188.09,294.51,184.35Z"/><path class="cls-2" d="M157.62,340.59l-.62-.35s-1.38-.77-2.78-1.47a9.19,9.19,0,0,1-2.3-1.58l-.19-.17h-.15a4.12,4.12,0,0,1-.54,0c-.21.08-.59.26-.88.41l-1,.46a4.17,4.17,0,0,1-2.83.44l-.29,0a2.41,2.41,0,0,1-2-2.2,5,5,0,0,0-.26-.88l0-.07-.44,0a10,10,0,0,1-1-.11,1.72,1.72,0,0,0-1.15.5l-2.1,2.1-.31-3a4.59,4.59,0,0,0-.1-.54h-.07a12.71,12.71,0,0,1-1.27.07,2,2,0,0,1-2-.85,1.67,1.67,0,0,1,.18-1.76,1,1,0,0,0,.14-.27,2.74,2.74,0,0,1,.45-1,2.24,2.24,0,0,1-.41-.43,27.11,27.11,0,0,0-3.46-.91l-.26-.06c-1.15-.26-2.13-.55-2.44-1.5a1.61,1.61,0,0,1,.33-1.56c.29-.79,1.11-1.14,2.2-1.61l.42-.18a3.83,3.83,0,0,1-1.33-1.44,4.07,4.07,0,0,1-.43-1.69c-.24,0-.51,0-.79,0a3.39,3.39,0,0,1-1.79-.51,6.74,6.74,0,0,0-.66-.34,2.44,2.44,0,0,1-1.44-1.4h0a6.1,6.1,0,0,1-1.16-.12,2.47,2.47,0,0,1-1.68-1.2,3.88,3.88,0,0,1-1.49-.26c-1.49-.59-2.3-1.36-2.44-2.29a2,2,0,0,1,1.1-2,2.4,2.4,0,0,0,.53-.45,4.31,4.31,0,0,1,2.39-1.52l.37-.13.62-.29a12.73,12.73,0,0,1,2.37-.93c1.05-.25,2.15-.42,3.18-.58h0l-.46-.51-.46-.51a1.51,1.51,0,0,0-.55-.37,6.46,6.46,0,0,1-1.78-1.28,15.86,15.86,0,0,0-2.77-2l-1-.54.29-1.06c.18-.66,1.19-3.95,3.71-3.95.69,0,1.18,0,1.56.07a3.92,3.92,0,0,0,.5,0,1.66,1.66,0,0,1,1.38.06,3.19,3.19,0,0,1,1.34,2.26c0,.13.06.25.09.34a2.92,2.92,0,0,1,.18,1.48l.4.26a4.21,4.21,0,0,1,1,.75l.12.11a4.43,4.43,0,0,1,.88,1.08,2.85,2.85,0,0,1,.21.41l.5.18.23.09c.24-.13.41-.24.54-.33a3.59,3.59,0,0,1,1-.5l-1.43-1.14,2.77-1.78-1.61-1,3.55-1.62.46.1c4.85,1.07,9.79,2.42,12.12,6.15,1.36,2.18,1.65,5,.86,8.25a1,1,0,0,0,.34,1.06,13.6,13.6,0,0,0,9.86.95c.46-.12.61-.64.66-1.06.39-3.39-1.68-6.59-3.69-9.68l-.42-.64c-.29-.44-.61-.9-.94-1.38a18.11,18.11,0,0,1-2.8-5.11,4.73,4.73,0,0,1,.3-3.85c1.13-1.87,3.54-2.38,5.87-2.87l.23,0a.85.85,0,0,0,.49-.43.82.82,0,0,0,.12-.6,48.91,48.91,0,0,0-4.22-9.33.81.81,0,0,0-.71-.43l-1,0-.36-.93A30.16,30.16,0,0,1,156,276c-.25-1.23.51-2.81,1.11-3.8-.24-.7-.61-1.79-.8-2.43a5.33,5.33,0,0,1-.19-1.7l-.75-.19-.13,1-1.85-1.05a14.93,14.93,0,0,1-3-2.32,28.65,28.65,0,0,1-2.56-3.61c-.33-.52-.74-1.15-1-1.44a16.94,16.94,0,0,0-2.86-.34c0,.39,0,.84,0,1s0,.41,0,.53a4.59,4.59,0,0,1-1.14,2.49l-.49.62-4.17-.46-.31-.22a6.14,6.14,0,0,1-1.88-2.77c-.18-.49-1.84-.93-2.55-1.12-.41-.11-.79-.21-1.1-.32l-1.08-.4a14.75,14.75,0,0,0-2.74-.86,2.51,2.51,0,0,0-.73.13c.39,1,1.21,3,2,4.61l.52,1.13-1,.66s-1.62,1-2.61,1.81a7,7,0,0,1-3.2,1.14,8.11,8.11,0,0,0-1.29.29,26.47,26.47,0,0,1-5.45,1.48,5.58,5.58,0,0,1-4.24-2.23,21.13,21.13,0,0,1-1.16-2.14c-.46-.92-1-2-1.45-2.72-.66-1.09-2.14-4.22-3.73-7.62-.45-1-.8-1.72-1-2.07a2.7,2.7,0,0,0-.45,0,2.6,2.6,0,0,1-1.48-.36c-1-.72-.73-1.87,0-4.93.07-.3.16-.66.23-1-1.26-.69-3.95-2.05-5.75-2.81-2.24-.94-10.47-2.75-13.05-3.26C81.38,240.12,76,235.07,76,235c-.34-.33-.63-.56-.88-.77a7.89,7.89,0,0,1-1.9-2.11,7.84,7.84,0,0,0-1.92-1.73A13.07,13.07,0,0,1,69.49,229c-.28-.3-.56-.56-.83-.82a8.4,8.4,0,0,1-2-2.46l-2.3-1c-7-3-14.29-6.07-18.12-13a3.12,3.12,0,0,1-.7-.23,6,6,0,0,1-3.63-6.09,6.85,6.85,0,0,1,5.38-5.82c3.63-.84,6.65.91,9.32,2.45,3,1.73,5.83,3.52,9,5.51a8.82,8.82,0,0,1,1.69.4c1.32.43,14,1.66,22.89,2.44-.6-3.4-1.82-10.65-2-14.49-.19-4.32,3.17-9.9,10.58-17.55,4.68-4.83,10.29-9.15,13.64-10.51a35.82,35.82,0,0,0,6.78-4.25l.25-.16a11.47,11.47,0,0,1,2.08-.92,7.48,7.48,0,0,1,2.23.07c.56,0,1.26.11,1.53.11a18.16,18.16,0,0,1,2.59.41,30,30,0,0,0,3.43.55,37.67,37.67,0,0,0,6.09-.75,15.24,15.24,0,0,1,3.6-.49l1.4-.1a72.42,72.42,0,0,0,7.92-2.46l1.72-.59a87.26,87.26,0,0,0,9-4.76c.51-.32,1.82-1.2,2.73-1.8l-3.08-8a3.4,3.4,0,0,1-1.65,0,3.08,3.08,0,0,1-2-1.49,2.88,2.88,0,0,1-.47.32c-2.66,1.47-6.53,3-9.8,1.71a7.19,7.19,0,0,1-4.19-4.64,3,3,0,0,1,0-2,5.52,5.52,0,0,1,.59-1.93c1-1.9,2.79-2.61,4.24-3.18.92-.36,1.79-.7,2-1.18.11-.3.21-1.28-1.22-3.88-.82-1.5-2.94-3-5-4.53a27.88,27.88,0,0,1-4.51-3.76,49,49,0,0,1-6.95-10.65,25.57,25.57,0,0,1-1-2.49,15.5,15.5,0,0,0-1.64-3.69c-1.28-1.52-4.84-1.62-7.44-1.69-.79,0-1.53,0-2.16-.1L91.42,99.16a3.12,3.12,0,0,1-1.11.16,18.08,18.08,0,0,1-4.12-.6l-1.72-.14A3.16,3.16,0,0,1,81.93,97a15.59,15.59,0,0,1-6.77-7.86,18.59,18.59,0,0,1-.92-6.59c-.05-2.87-.09-5.35-1.85-7.29A9.06,9.06,0,0,0,67,72.44c-4.86,2.28-11.05,1.24-12.87.85a3.09,3.09,0,0,1-2.39-3.14,3,3,0,0,1,2.41-3,49.65,49.65,0,0,1,10.21-1.16c1.16-1.55,1.66-3.78,1.18-4.62-.25-.45-1-.38-1.67-.24A3.3,3.3,0,0,1,60,58.46a2.93,2.93,0,0,1,2.32-3.55c2.6-.47,5.26-.86,8.08-1.27,15-2.18,32-4.65,36.14-20.42A3.11,3.11,0,0,1,108.74,31a3.19,3.19,0,0,1,3.09.8c3.46,3.47,10.88.78,16.3-1.18,1.22-.44,2.38-.86,3.39-1.17L152.58,23a3.18,3.18,0,0,1,3.15.82,3.86,3.86,0,0,0,.92.7,2.89,2.89,0,0,1,2-1.32l1.19-.23,2.27-1.28a3,3,0,0,1,3.1-1.67,3.29,3.29,0,0,1,2.4,1.47l13.62-2.6a3.41,3.41,0,0,1,3.14,1,3,3,0,0,1,.66,2.93,33,33,0,0,0-1.38,9.85,21.09,21.09,0,0,1,4,6.85,16,16,0,0,1,.54,3.14c.43,3.84.94,5.76,2.46,5.73.73,0,2-1,3.06-1.77a12.51,12.51,0,0,1,3.78-2.22,9.89,9.89,0,0,1,6.73.44c3.14,1.32,5.34,3.76,7.46,6.12a23.61,23.61,0,0,0,5.27,4.81c3.93,2.31,9.7,1.32,13.36-.84a9.64,9.64,0,0,0,4.43-7,4.05,4.05,0,0,0-1.1-3.24,4.05,4.05,0,0,1-2.67-.79,4.6,4.6,0,0,1-1.8-3.51,3.11,3.11,0,0,1,1.29-2.62,3.22,3.22,0,0,1,1.46-.61,6.17,6.17,0,0,1,.33-1.26,10.57,10.57,0,0,0-.26-3.12c-.69-1.64-1.67-1.88-3.26-2.27a11,11,0,0,1-2.81-1c-3-1.64-4.37-4.14-3.89-7,.88-5.29,5.79-6.31,9.74-7.12,3.63-.75,5.87-1.36,6.29-3.41A2.86,2.86,0,0,1,240.6,9.6a3.54,3.54,0,0,1,3.52,2.12,139.54,139.54,0,0,0,27.33,42.56,3.29,3.29,0,0,1,.73,3.19A3,3,0,0,1,270,59.57a142.77,142.77,0,0,0-36.71,14.29,30.43,30.43,0,0,0-2.55,1.72c-1.93,1.39-3.92,2.83-5.79,3.26a6,6,0,0,1-3.64-.41c-.35-.12-.72-.25-1.13-.36-6.48-1.71-13.27-.15-18.45,1.4C185.24,84.4,175.53,91.72,172,101.86c-2.17,6.28-.48,14.11,4,18.61,3.44,3.44,8,4.42,12.9,2.74a3.19,3.19,0,0,1,3.74,1.55l2.67,5.68.36-.1.56.42a3.9,3.9,0,0,1,1.46,3,8.6,8.6,0,0,0,.47,2.85,9.47,9.47,0,0,1,.46,2.26c0,.39.09.79.17,1.21a7.55,7.55,0,0,1,.1.85l6.61-1.32.57-12.91,1.32,0a14.16,14.16,0,0,0,4.11-.58c.48-.29,1.88-.9,4.54-2.05,3.16-1.37,7.93-3.45,8.84-4.12,1.69-1.24,10.72-7,11.11-7.29l.46-.3.54.09c.45.08,11,1.91,13.7,2.58,3,.75,16.69,6.59,16.82,6.65,1.5.64,5.88,2.18,5.93,2.19h0c.07,0,.41,0,.95-.43a20.23,20.23,0,0,0,2.1-2.13c.39-.44.77-.86,1.15-1.24a10.19,10.19,0,0,1,2.44-1.9l1.13-.74a21.8,21.8,0,0,0,3.43-2.69,13.83,13.83,0,0,1,2.59-3.25c1.08-.87,1.95-1.62,2-1.63l.13-.1c2.08-1.42,3-1.11,3.52-.75a1.72,1.72,0,0,1,.64,1.93c-.08.31-.2.72-.35,1.18a13.63,13.63,0,0,0-.67,2.74l.26.31a7.28,7.28,0,0,0,.65.72,1.56,1.56,0,0,1,.7,1,1.47,1.47,0,0,1-.09.84,3.62,3.62,0,0,1,.17,1.66,3,3,0,0,1,0,.94l0,.19c0,.34,0,.34,0,.44a11.09,11.09,0,0,0,.78,1.1l1.21,1.51-1,.39a3.4,3.4,0,0,1,.08.66c0,.13,0,.3,0,.52a3.08,3.08,0,0,1-.65,2.1l0,.06a16.9,16.9,0,0,1,1.37,2.56l0,.1c0,.15.34.35.55.5a1.78,1.78,0,0,1-.15,3.34,8.29,8.29,0,0,1-1.61.58h0a1.69,1.69,0,0,0,.05.3l0,0c1.53,1.11,1.16,2.28.8,2.88,5.08,5.64,7.41,9.4,7.33,11.81l0,1.09-2.64.59c-4.46,1-5.54,1.27-6.11,2.23-.09.15-.16.29-.24.44l-.38.72-.55.18c-5.17,1.67-8.89,3.46-11.46,7.25-1.53,2.24-3,4.78-2.62,6.6a3.31,3.31,0,0,0,1.76,2.07c.8.46,1.55.83,2.29,1.19a15.08,15.08,0,0,1,5.38,3.78c1.93,2.19,4.49,5,7.17,7.79h0c3.62,3.69,7.52,7.53,11.92,10.23l1,.62-.43,1.1a12,12,0,0,1-1.31,2.38,19.94,19.94,0,0,1-2.16,2.75,7.71,7.71,0,0,0-1.05,1.71l-.57,1.23-1.26-.51a4.79,4.79,0,0,0-2.77-.36,11.43,11.43,0,0,0-2.29,2.5,21.51,21.51,0,0,1-2.13,2.49c-1.09,1-3.47,3-4.89,4.23a3.8,3.8,0,0,1,.91,3.47c-.55,1.52-2.66,3.11-3.29,3.57l-.19.11a6,6,0,0,0-1.77,1.27,9.37,9.37,0,0,1-2.15,2.18l-.5.37-.61-.12a.83.83,0,0,0-.89.55,10.8,10.8,0,0,1-.94,1.59,2.92,2.92,0,0,1,1.85,3l0,.28c0,.15,0,.33,0,.46l.07,0c.84.53,1.71,1,2.56,1.38l.58.26c.94.41,1.92.82,2.26,1.77a1.8,1.8,0,0,1-.08,1.43c-.74,1.47-2.12,1.68-3.5,1.68a2.87,2.87,0,0,0-2.23.92,15.38,15.38,0,0,1-3.71,2.61,10.8,10.8,0,0,0-1.51,1,8.6,8.6,0,0,1-1.69,1.12,1.8,1.8,0,0,0-.3.19,2.12,2.12,0,0,1-1.78.45,2.33,2.33,0,0,1-1.41-1.3,37.19,37.19,0,0,0-4.86-6.21c-1.28-1.28-2.42-2.33-3.07-2.91a2.09,2.09,0,0,0-.72.34c-.2.2-.43.4-.67.59l-.21.18a2.17,2.17,0,0,1,.4,1.65,2.23,2.23,0,0,1-1.11,1.46,5.81,5.81,0,0,1-4.15,1.19l-.76-.16a4,4,0,0,0-1.08-.15c-.21,0-.44,0-.68,0a4.77,4.77,0,0,0-.79,0,6.45,6.45,0,0,1-1.9,2c-.6.62-1.58,1-3.08.09a5.67,5.67,0,0,1-1.63-1.7,8.45,8.45,0,0,0-2.18,1.06l-.55.57a10.53,10.53,0,0,1,1.66,3.2l.14.41-.11.42a7,7,0,0,1-1.26,2.75,15.24,15.24,0,0,1-2.16,1.55l-.28.18a8.87,8.87,0,0,1-1,.5c-.3.14-.82.39-1.27.63.3.39.66.83.92,1.15a18.85,18.85,0,0,1,1.66,2.21,1.76,1.76,0,0,1,.13,1.43c-.4,1.22-2,2.13-5.48,3.7-.45.2-.83.38-1.07.5-1.28.65-2.68.1-3.71-.31l-.55-.21-.15.29c-.47.91-1.47,2.79-3.61,2.37-.66-.13-2.94.55-4.87,1.32-.42,1.66-1.53,5.56-3.11,7.54s-6.42,5.37-9,7.16l-1,.69c-1.29.92-3,2.26-3.82,3a4.4,4.4,0,0,1,1.29,3.29,2.5,2.5,0,0,1-1.21,1.74c-1.28.8-4,2.16-5.59,2.94,1.47.52,1.85.79,2.12,1.21,1.88,2.43.51,4-.16,4.55a29.16,29.16,0,0,0-3.64,3.91c.92.38,1.7.92,1.7,1.92s-.51,1.36-4.07,3.58L196,302l0,0a1.69,1.69,0,0,1-1.38.73,5.36,5.36,0,0,1-2-.19l-1.47,1L190,302.24l-1.61.4h-.22a7.25,7.25,0,0,0-1.88.09,6.29,6.29,0,0,0-1.19.88l0,.11a7.09,7.09,0,0,1-1.4,3.3c-.48.48-1.26,2.31-2.33,5.45a2.67,2.67,0,0,1-2.34,1.81l-.16.4a10.68,10.68,0,0,1-.61,1.37c-.36.65-.58,1.06-1.07,1.25l-.28.28a6.74,6.74,0,0,0,.7.65,5.86,5.86,0,0,1,.72.68,5.64,5.64,0,0,1,.89,1.65,4.15,4.15,0,0,0,.32.71,1.82,1.82,0,0,1,.24,1.77,2.08,2.08,0,0,1-1.7,1.14l-.15,0a2.86,2.86,0,0,0-.71.38l1,1-1.86.83a6.91,6.91,0,0,1-2.28.8l-.19.06a4.14,4.14,0,0,1-1.36.27c-1.21,0-1.77-1-2.32-2-.14-.25-.29-.53-.47-.83-.15.26-.31.54-.42.76a42.63,42.63,0,0,1-4.09,5.34l-.3.36c-.32.38-.66.73-1.06,1.13s-.74.74-1.25,1.29a4.58,4.58,0,0,0,1.07.76l1.76.88-1.39,1.39a16.4,16.4,0,0,1-2.17,1.89c-.6.36-3.15,1.52-3.65,1.75Zm-6-6.41h.07a2.76,2.76,0,0,1,1.7.51c.15.11.3.24.47.4a6.41,6.41,0,0,0,1.66,1.14c.87.44,1.72.89,2.27,1.19,1.23-.56,2.46-1.15,2.72-1.3a3.76,3.76,0,0,0,.38-.3,3.4,3.4,0,0,1-1.1-1.81,2.4,2.4,0,0,1,.63-2.09c.63-.69,1.12-1.17,1.52-1.58s.63-.63.89-.94l.32-.38a47.47,47.47,0,0,0,3.76-4.85c.71-1.33,1.45-2.7,2.87-2.75a2.42,2.42,0,0,1,2.13,1.32c.36.55.63,1.05.87,1.48l.25.44h0a3.41,3.41,0,0,1,.86-.21l.16-.05s0-.08,0-.12a2.15,2.15,0,0,1,.93-1.58,10.07,10.07,0,0,1,1.64-1l0-.09a3.29,3.29,0,0,0-.42-.86,4,4,0,0,0-.38-.34,4.11,4.11,0,0,1-1.77-2.7,2.59,2.59,0,0,1,.74-2,5.67,5.67,0,0,1,.92-.85l.11-.21a8,8,0,0,0,.45-1c.31-.83.74-2,2.06-2.15l.44-.07c1.32-3.84,2.13-5.59,3-6.44a5.9,5.9,0,0,0,.64-1.94c.06-.25.11-.43.14-.52.39-1.17,2.58-2.37,2.61-2.38a7.26,7.26,0,0,1,3.06-.38l2.86-.71.64.72.57-.38.67.25a5.27,5.27,0,0,0,1.11.26,3,3,0,0,1,.29-.22l.88-.55,1.46-.92a1.64,1.64,0,0,1-.89-1.15c-.46-2.24,5.06-7,5.12-7.09a.51.51,0,0,0,.12-.12c0-.05-.24-.33-.33-.44-.58-.28-2.37-.84-3-1l-.29-.09a1.68,1.68,0,0,1-1.29-1.53c0-.95.66-1.69,2.22-2.35h0s4.54-2.17,6.34-3.26a7.55,7.55,0,0,0-.84-1.18,2.54,2.54,0,0,1-.8-1.61c0-.46,0-1.43,5.39-5.28l1-.71c2.1-1.46,7-4.87,8.39-6.6s2.41-5.69,2.73-7.12l.16-.71.67-.29c1.19-.51,5.24-2.15,7.19-1.76a4.93,4.93,0,0,0,.54-.9,4.08,4.08,0,0,1,1.14-1.54c1-.71,2.12-.26,3.11.14a4.54,4.54,0,0,0,1.42.41c.23-.12.65-.32,1.15-.54a33.53,33.53,0,0,0,3.59-1.82c-.28-.36-.62-.78-.92-1.16-1.62-2-2.22-2.74-2-3.68s1-1.35,3.32-2.44l.65-.32.29-.19a18.14,18.14,0,0,0,1.69-1.17,7,7,0,0,0,.4-1.06,7.81,7.81,0,0,0-.89-1.77,2.64,2.64,0,0,1-1-2.46l.07-.34.22-.27a19.62,19.62,0,0,1,1.33-1.45,10.39,10.39,0,0,1,3.58-1.85l.36-.13c1.35-.54,2.16.69,2.51,1.21a3.82,3.82,0,0,0,.82,1,1.73,1.73,0,0,1,.27-.15,7.92,7.92,0,0,0,1-1.21,3.37,3.37,0,0,1,3.27-1.07l.45,0a6.66,6.66,0,0,1,1.69.21l.7.15a2.64,2.64,0,0,0,1.56-.49h0c-1-1.56.5-2.84,1.15-3.38.17-.14.33-.27.47-.41a5.77,5.77,0,0,1,2.9-1.29l.65-.1.5.43c.07.06,1.73,1.51,3.75,3.52a43.43,43.43,0,0,1,5.06,6.36l.18-.08a8.23,8.23,0,0,0,1.08-.76,12.69,12.69,0,0,1,2-1.33,12.44,12.44,0,0,0,3-2.08,5.68,5.68,0,0,1,3.36-1.7c-.79-.4-1.61-.82-2.44-1.34a2.8,2.8,0,0,1-1.35-3.19l0-.25a5.06,5.06,0,0,0-.54-.3c-.23-.12-.47-.24-.69-.38a2,2,0,0,1-.94-1.29,2.92,2.92,0,0,1,.76-2.27,8.65,8.65,0,0,0,.76-1.25,3.65,3.65,0,0,1,3.28-2.18,5.53,5.53,0,0,0,1-1.09,8,8,0,0,1,2.8-2.25,8.94,8.94,0,0,0,2.17-2.1,4.77,4.77,0,0,0-1.21-1.66l-1.19-1.09,1.24-1s4.39-3.67,5.9-5.08a19.77,19.77,0,0,0,1.82-2.15c1.12-1.44,2.17-2.8,3.34-3.34a5.93,5.93,0,0,1,3.8-.09,7.27,7.27,0,0,1,1-1.41,17.68,17.68,0,0,0,1.85-2.37c.18-.26.34-.52.48-.76a72.27,72.27,0,0,1-11.38-10c-2.73-2.78-5.32-5.68-7.27-7.9a12.46,12.46,0,0,0-4.49-3.11c-.78-.38-1.59-.77-2.48-1.29a6.05,6.05,0,0,1-3.1-3.89c-.65-2.87,1.08-5.93,3-8.82,3.22-4.73,8-6.73,12.39-8.17l.16-.27c1.22-2,3-2.44,7.92-3.53l.24-.05c-.5-1.35-2-4-6.49-8.9l-.42-.48a2.05,2.05,0,0,1-.56-1.5,1.6,1.6,0,0,1,.28-.76,4,4,0,0,1-.83-2.77,2.21,2.21,0,0,1,1.86-2.15,3.08,3.08,0,0,1-.43-.8,13.59,13.59,0,0,0-1.18-2.15,2.52,2.52,0,0,1,.13-3.11,2.31,2.31,0,0,0,.19-.31c0-.11,0-.21,0-.32a1.62,1.62,0,0,1-.88-1.46,1.61,1.61,0,0,1,.33-1,3.77,3.77,0,0,1-.4-.81,3.32,3.32,0,0,1-.1-1.56L291,120l.35-1h0a.87.87,0,0,0-.06-.42,2.38,2.38,0,0,1-.21-1l-.51-.59-.39-.46c-.71-.83-.63-2-.24-3.58l-.92.75a11.66,11.66,0,0,0-2,2.61l-.18.25a22.77,22.77,0,0,1-4.06,3.24l-1.15.74a8,8,0,0,0-2,1.52c-.34.34-.68.73-1,1.13a22.74,22.74,0,0,1-2.4,2.42,3.77,3.77,0,0,1-3.72.92h0c-.18-.06-4.52-1.58-6.11-2.26-2.67-1.15-14-5.9-16.39-6.5-2.26-.56-10.72-2.06-13-2.45-1.91,1.23-9.09,5.86-10.5,6.9-1.08.79-4.73,2.41-9.39,4.43-1.81.79-3.87,1.68-4.21,1.88a11.33,11.33,0,0,1-4.16.91L208.27,142l-12.65,2.53.42-2.08a5.64,5.64,0,0,0,0-1.81c-.09-.48-.14-.94-.2-1.38a7.5,7.5,0,0,0-.29-1.6,11.41,11.41,0,0,1-.65-3.84,1,1,0,0,0,0-.26l-1.25.35-.44-1.42L190.11,126a1.32,1.32,0,0,0-.28-.07c-5.93,2-11.55.83-15.8-3.43-5.3-5.31-7.23-14.17-4.68-21.54,3.82-11.07,14.14-19,31.54-24.17,5.54-1.65,12.82-3.31,20-1.43.5.13.94.29,1.35.43a3.38,3.38,0,0,0,2.06.32c1.32-.3,3.15-1.63,4.77-2.8a32.27,32.27,0,0,1,2.81-1.89A145.6,145.6,0,0,1,269.3,56.82s.12,0,.16-.17a.47.47,0,0,0-.09-.44A142.37,142.37,0,0,1,241.5,12.79a.66.66,0,0,0-.36-.32.54.54,0,0,0-.32,0h0s0,0,0,.12c-.84,4-4.91,4.86-8.49,5.6-4.33.9-7,1.67-7.52,4.81-.28,1.66.55,3,2.46,4.09a8.57,8.57,0,0,0,2.12.71c1.79.44,4,1,5.25,4.05l.06.19a13.4,13.4,0,0,1,.34,4.34l0,.22-.08.2a2.71,2.71,0,0,0-.19,1.75l.72,2.77-2.85-1.2-.27-.11a.37.37,0,0,0-.22.1.35.35,0,0,0-.13.19,1.79,1.79,0,0,0,.65,1.37,1.26,1.26,0,0,0,1.09.2l.67-.17.55.43a6.86,6.86,0,0,1,2.61,6,12.53,12.53,0,0,1-5.82,9.25c-4.24,2.51-11.13,3.85-16.24.85a26.05,26.05,0,0,1-5.94-5.36c-2-2.22-3.9-4.32-6.45-5.4a7,7,0,0,0-4.87-.33,10.91,10.91,0,0,0-2.84,1.76c-1.49,1.12-3,2.27-4.64,2.33-4.47.15-5-5.09-5.39-8.24a15.11,15.11,0,0,0-.41-2.54,18.55,18.55,0,0,0-3.77-6.29l-.34-.38,0-.51A35.79,35.79,0,0,1,182.27,22a.2.2,0,0,0,0-.23.55.55,0,0,0-.51-.15L165.3,24.78l-.07-1.64c0-.28-.38-.33-.39-.33-.17,0-.22,0-.28.22l-.16.56-3.62,2-1.65.32c-.08,0-.1.09-.09.2l.18,1.81-1.8-.27a6.5,6.5,0,0,1-3.74-1.94.36.36,0,0,0-.28-.09l-21.06,6.48c-.94.29-2.07.7-3.26,1.13-6.14,2.22-14.54,5.27-19.28.52a.36.36,0,0,0-.34-.07.3.3,0,0,0-.23.21c-4.59,17.6-23.38,20.32-38.48,22.51-2.79.41-5.43.79-7.93,1.24a.24.24,0,0,0-.1,0,.53.53,0,0,0,.11.41.37.37,0,0,0,.42.16c2.92-.64,4.19.74,4.69,1.62,1.34,2.35.06,6.25-2,8.42l-.44.47-.64,0a47,47,0,0,0-10.27,1.09c-.11,0-.11.28-.11.28s0,.32.14.34c3.39.71,8.17.88,11.41-.8l.4-.21.45.06a12.12,12.12,0,0,1,7.54,3.75C77,76,77,79.45,77.07,82.46a16.22,16.22,0,0,0,.73,5.61,12.82,12.82,0,0,0,5.91,6.64l.48.26.18.51a.36.36,0,0,0,.35.27l2.11.2a15.25,15.25,0,0,0,3.58.54.37.37,0,0,0,.15,0l.36-.19,28.7,2.41c.58,0,1.26.07,2,.09,3.31.09,7.43.21,9.53,2.7a16,16,0,0,1,2.14,4.56c.31.86.6,1.67.85,2.2a46.26,46.26,0,0,0,6.54,10,25.64,25.64,0,0,0,4,3.33c2.3,1.67,4.69,3.41,5.81,5.46,1.52,2.77,2,4.69,1.4,6.21-.61,1.68-2.19,2.31-3.59,2.86-1.17.46-2.27.89-2.76,1.85a2.64,2.64,0,0,0-.3,1.06l0,.28-.13.25a.35.35,0,0,0,0,.1,4.45,4.45,0,0,0,2.52,2.94c1.77.67,4.41.12,7.43-1.54a.35.35,0,0,0,.09-.25l.08-1.33h1.36c2.57,0,2.74,1.82,2.75,2.18,0,.14,0,.25.24.3a.45.45,0,0,0,.43-.08l1.45-2.75,5.66,14.63-.94.63s-2.91,1.95-3.73,2.47-7.43,4.33-9.6,5.05l-1.68.58a58.92,58.92,0,0,1-8.59,2.61l-1.48.11a14.21,14.21,0,0,0-2.88.35,37.33,37.33,0,0,1-7,.89,26.57,26.57,0,0,1-4-.6c-.77-.15-1.81-.35-2.07-.36h0c-.38,0-1.06-.06-1.77-.12-.44,0-1.08-.1-1.37-.11l-1.29.61a37.26,37.26,0,0,1-7.36,4.57c-3,1.2-8.3,5.35-12.67,9.85-6.64,6.86-9.93,12.06-9.78,15.45.22,4.82,2.26,15.82,2.28,15.93l.34,1.83-1.86-.16c-3.89-.34-23.38-2.06-25.4-2.75a5.67,5.67,0,0,0-1.37-.3l-.35,0-.3-.19c-3.21-2-6.11-3.88-9.08-5.6-2.47-1.43-4.76-2.76-7.3-2.17a4,4,0,0,0-3.21,3.36,3.15,3.15,0,0,0,2,3.23.6.6,0,0,0,.29,0l.93-.06.42.84c3.24,6.5,10,9.36,17.07,12.38l2.85,1.22.55.24.21.57.11.27a5.65,5.65,0,0,0,1.42,1.7c.3.29.62.58.94.92a10.86,10.86,0,0,0,1.38,1.12,10,10,0,0,1,2.63,2.49,5.21,5.21,0,0,0,1.33,1.46c.29.24.62.52,1,.9,1.65,1.57,5.52,4.67,7.38,5,2.05.41,10.93,2.31,13.59,3.43.44.19,6.71,3,7.33,3.86.47.62.36,1.06-.15,3.19-.12.49-.29,1.23-.42,1.84a2.66,2.66,0,0,1,2.1,1.48c.16.33.55,1.15,1,2.19,1.11,2.36,3,6.31,3.59,7.35.52.86,1.07,2,1.56,2.92.36.72.77,1.54,1,1.8a2.71,2.71,0,0,0,1.78,1,23.24,23.24,0,0,0,4.58-1.3,10.12,10.12,0,0,1,1.81-.44,5.21,5.21,0,0,0,1.94-.58c.55-.44,1.25-.92,1.82-1.3-2.17-4.84-2-5.25-1.82-5.78.48-1.27,2.47-1.87,3.67-1.87a12.45,12.45,0,0,1,3.74,1l1,.37c.25.09.56.17.89.26,1.6.43,3.79,1,4.48,2.88a4.23,4.23,0,0,0,.7,1.25l1.68.19a2.07,2.07,0,0,0,.11-.21c0-.07,0-.15,0-.25-.09-1.46-.11-2.72.62-3.51a1.78,1.78,0,0,1,1.31-.57c1.07,0,4.62.08,5.63,1.08a14.59,14.59,0,0,1,1.41,2,29,29,0,0,0,2.23,3.19,10.8,10.8,0,0,0,1.7,1.39,3.49,3.49,0,0,1,1.4,0c2.84.57,3.13,1.06,3.34,1.42l.32.55-.2.64a3.11,3.11,0,0,0,0,1.33c.26.9,1,2.92,1,2.94l.24.67-.4.59a6.52,6.52,0,0,0-1.06,2.31,21.71,21.71,0,0,0,.75,2.3,3.64,3.64,0,0,1,2.15,1.68,51.46,51.46,0,0,1,4.46,9.85,3.58,3.58,0,0,1-.32,2.93,3.63,3.63,0,0,1-2.37,1.82l-.23,0c-1.66.35-3.54.75-4,1.56a2.1,2.1,0,0,0,0,1.61,15.89,15.89,0,0,0,2.4,4.26c.35.5.69,1,1,1.46l.41.64c2.17,3.35,4.63,7.15,4.12,11.55a3.81,3.81,0,0,1-2.79,3.48,16.33,16.33,0,0,1-11.83-1.17,3.82,3.82,0,0,1-1.82-4.25c.62-2.56.45-4.55-.51-6.08-1.43-2.29-4.59-3.48-8-4.35l-2,1.29,1.07.85-.63,1.06a4.72,4.72,0,0,1-1.44,1.58,2.21,2.21,0,0,1-1.77.21l-.08.05c-.21.14-.45.29-.75.46a2.76,2.76,0,0,1-2.59.07l-.51-.18a3,3,0,0,1-1-.45,2.12,2.12,0,0,1,0,2.79l-.18.21a2.5,2.5,0,0,1-2,.95l-.13,0c-1,.15-2,.31-3,.54a11,11,0,0,0-1.8.73c-.3.14-.57.27-.78.35l-.54.19a2.43,2.43,0,0,0-.94.44,3.51,3.51,0,0,1-.39.47,2,2,0,0,0,.45,0,2.25,2.25,0,0,1,2,.8,4.63,4.63,0,0,1,.31.48h0a4.69,4.69,0,0,0,.57,0,3,3,0,0,1,2,.59,1.83,1.83,0,0,1,.61,1.09c.39.18.64.32.84.43l.18.1a2,2,0,0,0,.36,0,9.39,9.39,0,0,0,1,0,2.82,2.82,0,0,1,1.68.26,2,2,0,0,1,.8,1.94,2.6,2.6,0,0,0,.11,1,1.23,1.23,0,0,0,.52.48,3,3,0,0,1,.93.83l.08,0a1.92,1.92,0,0,1,1,1.72c-.08,1.08-1.12,1.59-1.57,1.8l-.61.28c2.32.54,3.45.91,4,1.7l.15.09c1.72,1,1.42,2.23,1.1,2.83l-.08.15a2,2,0,0,1,1.74.9l.12.21a3.62,3.62,0,0,1,1.78-.15,6.73,6.73,0,0,0,.74.08,2.91,2.91,0,0,1,2.88,1.82,7.52,7.52,0,0,1,.42,1.37l0,.08c.4.06.5.06,1.13-.23l.89-.43a3.78,3.78,0,0,1,2.6-.66Zm-5.13,1.25h0Zm-2.67-.39Zm-8.23-5.54h0ZM174,324.43h0Zm-4.66-.32Zm-34.12-1.41h0Zm-9-20.3a15.45,15.45,0,0,1,2.33,1.82,3.67,3.67,0,0,0,1.07.76,4.2,4.2,0,0,1,1.4,1l.39.43c.15.17.33.36.51.57a1.87,1.87,0,0,1-.11-.44,1.68,1.68,0,0,0-.36-.46,4.21,4.21,0,0,1-.34-.34c-.07-.05-.2-.13-.35-.22a9.31,9.31,0,0,1-.89-.61,1.93,1.93,0,0,1-.83-2.52l0-.11c0-.14-.09-.32-.15-.51l-.05-.2c-.22,0-.44,0-.66,0s-.74-.06-1.32-.06A2.36,2.36,0,0,0,126.26,302.4Zm3.7-1h0ZM127.43,259Zm-22.89-8.73h0Zm139.3-12.66Zm6.34-2.2Zm.19-.09h0ZM273.5,123.88l.05,0Zm18.33-5.63h0Zm.68-3.28Zm-.15-.27h0Z"/></svg>