<svg id="Layer_1" data-name="Layer 1" xmlns="http://www.w3.org/2000/svg" viewBox="0 0 350 350"><defs><style>.cls-1{fill:#999;}.cls-2{fill:#f90;}</style></defs><title>M</title><path class="cls-1" d="M329.82,178.46C328.41,177,313,162.6,312.18,161.85S299.81,150,297.58,148.3s-8.27-9.16-9.38-10.57-12-15.12-13.63-17-12-15.34-12.81-16.09-13-15.71-13.93-17.2c-1.19-1.71-2.31-1.56-5.73-1.79-2.53-.6-24.65-3-26.73-2.9-1.64,0-9.76-1-15.34-1.94s-13.48-4.77-17.5-6.7a197.12,197.12,0,0,0-19.44-8.56c-3.95-1.41-20-5.36-23.38-6-2.9-.89-19.36-3.87-22.34-4.47S92.72,50,89.81,49.4s-21.3-4.32-24.65-4.84c-2.31-.67-15.64-2.9-19.66-3.57s-17.59-3.57-17.59-3.57c.61,1,1.28.34.84,1.73s-2,6.35-2,7.81c0,1-.28,3.64-2.68,4.36-2.12,1.12-5,2.85-6.2,4.86s-4.13,5.19-6.42,5.14c-.28.61-1.17,1.51.5,2.57.78.73,1.17.84,1.17,2a34.91,34.91,0,0,1-2.46,4.41L6.25,77.43a7.16,7.16,0,0,1,1.55,2c.22,1.42,2.43,9.89,3.07,11.37s1.76,1.62,3.69.92c-2.49,6.93.95,8.94,2.12,10.14a46.46,46.46,0,0,1,4.72,6c1.12,4.13,3.8,4.8,5.14,5a3.08,3.08,0,0,1,3.1,1.31c.67,2.68,1.68,2,4.66,2,2.18-.45,3.46-1.54,5.05-3.35s1.31-4.19,1.51-5c.61-3.55,3.16-3,4.91-1.87s2,3,3.63,5.61c1.76,4,4.58,4.33,4.58,4.33-.31-5.05,3.16-7.09,5.14-7.29,2.76.45,2.57,2.9,2.76,4.41,1,.7,7.48-.47,9.24-.87s2.76-2,3.43-3c.5-2.26,2.18-1.76,2.63-1s1.76,3.83,3.18,4.64c2.21-.36,7.29-1,8.32-.7.87,2.21,3.16,9,3.16,9l-1.12.78c-1.09.47-6.2,3.63-7.15,5.05.14,1.06,2.37,3.66,3.85,6.42s4.66,3.57,6.48,4.52a19.07,19.07,0,0,1,5.17,4.55c1.12,1.84,1.68,4.38,2.12,5.39s3.38,2.43,5.33,3.41a2.89,2.89,0,0,0,3.8-.59c.28-.67-1.93-5.08-2.82-7-.92-3.18-.39-3.46.75-3.07a14,14,0,0,0,10.61,3.71c1.26,0,2.93-.42,3.1-.14s-.11.84-.25,1.17-.31,1.28,0,1.31.81,1.48,1.06,1.56.92,0,1.26.36a1.59,1.59,0,0,1-.17,1.84c-.06.64-.47.89-1.51,1.23s-1.37.84,0,2.43c.92,1.54,2,.87,3,.56a1.53,1.53,0,0,1,1.65.2s1,4,1.28,4.72,1.09,0,1.23.36.28.45.81.36a22.87,22.87,0,0,1,2.29-.31c.28,0,.45,1.59.95,2.88.5-.06,1.51-.08,1.51-.08l.64,1.2s2.23-.28,2-.31,0-1.23.08-1.26,3.49-1.2,3.49-1.2l.61,1.56,2.54-.56c-.15-1.27,2-1.36,1.9-1.53a9.64,9.64,0,0,0-.52-2.51c-2.07.43-1.56-1.81-1.71-2.74s-.82-.88-1.84-.48a1.69,1.69,0,0,1-1.69-.19l-.8-3.13c-.39-1.25-.3-2,.37-2.38,1-.15,1.66-.63,1.38-1.66a1,1,0,0,1,.6-1.28s2.63-.73,4-1c1.51-.11,1.71.74,1.84,1.62s1.12,6,1.12,6a7.68,7.68,0,0,1,4.56-.13c.67.71,1.36,3.82,1.82,5.57.2,1.79-.6,1.38-1.53,2-.11.48,1.21,3.95,1.41,5,.47-.58.87,0,1.25.86.82,2.36,0,2.44-.95,2.94a13.56,13.56,0,0,0,1.1,3c1.58-1.08,1.79,1.45,1.79,1.45a15.66,15.66,0,0,0,1.92-.58c1-.2,1.38.19,1.38.19s.58,1.51.74,2.12.6,1.79.6,1.79l3.57-.8a8.66,8.66,0,0,0-.39-1.23,2.64,2.64,0,0,1,.06-1.49l2.49-.47c.09.35.45,1.1,1.9,2.27s2.53.45,2.57-.67c-.07-1.38-1.84-2.31-2.4-2.72a1.81,1.81,0,0,1-.19-2.17c.95-1.76,2.79-1,3-1.48s-.17-1.31-.53-2.46-1.2-.42-2.07-.28c-.7,0-1-3.3-1.45-4-2,.73-2-1-2.15-1.48-.2-1.4,2.43-1.59,3.41-1.87-.45-.42.56-1.09.56-1.09s4.11-1.09,5.31-1.54a1.46,1.46,0,0,1,1.65,1,1.44,1.44,0,0,0,1.14-.74c.19-.34-.52-.67-.52-.67a15.79,15.79,0,0,1-.74-1.79c-.74.37-1.57-1-1.71-1.21s-.39-1.7-.7-2.51c-.64.25-1.14-1.06-1.37-1.82a1.33,1.33,0,0,1,.53-1.31s1.73-.5,3-.89c1.51-.47,1.82.84,2.12,1.73a3.44,3.44,0,0,1-.36,3,4.71,4.71,0,0,0,1.2.67c.42.17,1.42,3,1.9,3.8,1,1.26.22,2.09-1.06,2.68.78-.14.84.17,1.2.81.64-.22,1.28.14,2.26.2.95.61,1.37,3,1.06,3.91-.42.7-.08,1.84,0,2.6a2.3,2.3,0,0,1,.84,3.3c-.34.61-.25,1.06.11,2.09.08-.81.81-.53,2.09-.59a2.41,2.41,0,0,1,1.17,3.43c.64.95.22,1.7-.61,2.23.39,1,.22,1.62-.92,2.51.81.22.87.28,1.9.59,1.56.64,1.2,3.69.53,5.05.22,3.07-1.28,3.52-1.28,3.52a8,8,0,0,0,.06,1.76c.45,3.52-.5,3.6-1.62,4.13s-2.76,3.1-3.35,4c.95,1.76-.06,2.49-1.26,2.76a18.51,18.51,0,0,1,.59,2.29c.28,1.31,2.07,7.18,2.63,9.33.17-.31.84-.47,1.73-.31a9.81,9.81,0,0,1,2.6,4.13c-.08,1.31.34,1.4,1.4,1.79.87.61.22,1.17-.17,2.23.22.84,1.17,4.16.53,5.17,1.4.7,1.79,3.32,2,4.86.06-.75.59-.17,1.12.61a4.74,4.74,0,0,0,2.37,2.4c.81.89.87,3.83.87,3.83a3.15,3.15,0,0,0,.92,0c1.42,0,1.51,1.42,2,3,.34-2,1.65-1.65,2.65-1.31a14.85,14.85,0,0,1,3.57,2c2,1.12,2.9,4.3,2.76,5.25a22.76,22.76,0,0,0,.78,4.13s.11.36,1.09.78c.92.67.81,3.85.61,4.8a4.88,4.88,0,0,1,1.54,3.24c2,.31,1.4,2.15,1,2.85.08.28,1.48,5.45,1.93,6.9a5.77,5.77,0,0,1,0,2,2.12,2.12,0,0,1-1,1.68c-.45.92.39,1.26.53,1.84.73.28.95.34,1.09,1.12,0,0,1.42-.59,2-.78,1.42-.47,1.51,1.06,1.76,2.12.39,1.48-.47,1.68-1.65,1.82.78,1.09-.2,2.65-.14,3a4.65,4.65,0,0,1-1,2.62,2.77,2.77,0,0,1-.73,1.62c-.59.67-.92.14-.92.14s.25.92.08,1.12c-.75,1.54-1.73.42-2.23.06s-2.4.59-3,.7c-.47.42.39,2.37.87,2.9A3,3,0,0,1,216,292.4c.2.53,1,0,1.17.42.25.95.22,1.4,1.14,1.2a17.43,17.43,0,0,1,.89,3.3,4.77,4.77,0,0,0,1.14.67,1.86,1.86,0,0,1,.47,2.15c1.17-.59,1.9.73,2,1.14s1.51,5.7,1.79,6.73,1.17.11,1-.81c-.47-1.73,1.12-1.51,1.31-1.37a21.19,21.19,0,0,0,2.21.61s1.4.95,2.18,1.37c1.87.14,1.87,1.4,1.93,1.79s.53.64,1,.92.34.67.87,1.54a1.84,1.84,0,0,0,2.51,0l-.42-1.82.78-.64a2.21,2.21,0,0,0-.11-1.23c-.31-1.62,2-1.45,2.43-1.62.47,0,.59.11,1.14.7.56-.11,1.62-.25,1.93.34a2.5,2.5,0,0,1-.28,2.35,1.22,1.22,0,0,0,.08,1.17l1.76-.61-.14-1.48,3.71-1.12.89.64a5.65,5.65,0,0,0-.28-1.56c-.7-1.68-.2-2-.2-2s5.61-1.51,7-1.68a7.74,7.74,0,0,1,3,1.37s-.11-.39-.31-1.14,0-.64.22-1.26.28-.75.45-.89.64-.31.59-.67a6,6,0,0,0-.28-1.59c0-1.2,2.23-1.65,2.74-1.31s.7,1.23,1.51,2.76c-.42-1,.34-1.17.17-1.87.42-.78,2-.2,1.93.28a1.58,1.58,0,0,1,1.14.11c.45.31.59.92.73.87a3.22,3.22,0,0,1,1.2-.47c1.12.14,1.23,1,2.09,2.15-.14-.5-1.12-3.88-1.12-3.88-.25-.59-1.17-4.27-1.7-5.5a2.64,2.64,0,0,1,.08-2.71,9.78,9.78,0,0,1,2.79-.06c.73.11,1.34.28,1.34,1.14a4,4,0,0,0,.59,1.79s2.49-.53,3.57-.78,1.76-.36,2,0a14,14,0,0,0,1.7,1.62,10.53,10.53,0,0,0,2.88,2,4.25,4.25,0,0,1,2.93.64c.47,0,.92-1.06.81-1.42-.28-1.2-1.87-2.26-2.46-3.1-1-1.84,1.42-2.35,1.45-2.9s-.25-.59-.2-1.48c-.28-1.51-1.84-1.06-3.13-.64a2.62,2.62,0,0,1-2.15,0,17.69,17.69,0,0,0-.89-2.46,22.72,22.72,0,0,1-4.41,1.12c-.53.06-.81-.81-1.26-.89-1.06-.75-1.15-2.63-1.23-3.57s-1.3-.74-1.45-1.34c0-1.23-1.15-1-1.41-1s-2.23.82-3.28,1.08c-1.49.22-3,1.12-3.05,2,.45,2-.82,2.49-1.94,2.87a1.59,1.59,0,0,1-2.42-.63,11.1,11.1,0,0,1-.48-6.14c0-1.75,3.61-.82,4.24-.74-.48-2.16,1.68-2,2.16-2.42-.67-1.53.45-1.86.82-2.23-.56-.78-.37-3.16-.89-4.36-.37-2.61,8-11.47,9.31-12.88,2.31-4.32,9.46-8.34,11-9.31s15.27-10.57,17.43-11.84,20.55-19.21,20.55-19.21L340.25,196s3.35-3.43,3.5-4.32C343.38,190.37,329.82,178.46,329.82,178.46Z"/><path class="cls-2" d="M236.29,314a3,3,0,0,1-2.16-.92l-.22-.27a5.44,5.44,0,0,1-.53-1.14,2.66,2.66,0,0,1-1.56-1.86l0-.14c0-.34,0-.4-.61-.44l-.3,0-.26-.14c-.65-.35-1.65-1-2.09-1.3-.68-.16-1.16-.29-1.5-.39a2.35,2.35,0,0,1-1.52,2.44,1.84,1.84,0,0,1-2.23-1.34l0-.1c-.19-.7-.88-3.32-1.35-5.08l-.44-1.65a.88.88,0,0,0-.12-.19l-2.66,1.33.76-3c.1-.41.1-.55.06-.63a4.28,4.28,0,0,1-1.4-.93l-.23-.28-.07-.36c-.15-.79-.34-1.62-.5-2.18A2,2,0,0,1,216,294a1.72,1.72,0,0,1-1.36-1.12c-.06-.18-.09-.29-.12-.41-.2-.72-.31-1-.82-1.2l-.3-.12-.22-.24a6.31,6.31,0,0,1-1.36-3.58,1.86,1.86,0,0,1,.61-1.33l.3-.26.39-.07a6.43,6.43,0,0,0,.68-.23c1.15-.42,2.34-.85,3.27-.33l-2.36-8.67,4.14,6.56a2.46,2.46,0,0,1,.42-.74,2.16,2.16,0,0,0,.53-1.38,2.79,2.79,0,0,1,.21-1.08c.09-.27.33-1,.19-1.18l-1.4-2,2.38-.28.44-.06c0-.18-.08-.34-.11-.5s-.07-.34-.11-.51l-1.58.63-1.62.67-.3-1.69-.12,0-.7-.27-.22-.64-.1-.14a2.5,2.5,0,0,1-.37-2.77l.2-.42.41-.22s.17-.17.24-.64a4.06,4.06,0,0,0,0-1.42v0c-.36-1.18-1.16-4.12-1.6-5.73l-.29-1.07-.18-.6.32-.54a1.76,1.76,0,0,0,.23-.67l-.21,0-1-.15-.17-1a3.59,3.59,0,0,0-1-2.36l-.7-.54.18-.87a8.74,8.74,0,0,0-.12-3.37,2.71,2.71,0,0,1-1.55-1.52,17.67,17.67,0,0,1-.83-4.75c.05-.63-.7-3.06-2-3.81l-.09-.05a13.58,13.58,0,0,0-3.25-1.8,4,4,0,0,0-.71-.19,1.89,1.89,0,0,0-.1.39l-1,5.76-1.79-5.56c-.09-.3-.18-.59-.25-.86a5.86,5.86,0,0,0-.39-1.13,4,4,0,0,1-1.25,0l-1.09-.24,0-1.12a9.37,9.37,0,0,0-.42-2.75,6.19,6.19,0,0,1-2.64-2.81,3.07,3.07,0,0,0-.36-.45,1,1,0,0,0,.55.21l1.05-.45-.61.41.16-.05a1.18,1.18,0,0,0,.75-.87l-2.82,0c-.34-3.18-1-3.68-1.18-3.75l-1.41-.7.85-1.33c0-.1.14-.89-.66-3.88l-.16-.59.16-.42c.09-.25.2-.48.3-.69a2.49,2.49,0,0,1-1.62-2.71,9.8,9.8,0,0,0-1.79-2.92h-.07l-1.52,2.78-.9-3.47c-.25-1-.74-2.64-1.23-4.33-.64-2.2-1.25-4.29-1.41-5.06a19.56,19.56,0,0,0-.51-2l-.58-1.52,1.57-.41a1.62,1.62,0,0,0,.55-.21s-.06-.19-.22-.5l-.4-.73.45-.7c2.54-4,3.65-4.43,4-4.58l.23-.1c.56-.25.79-.35.52-2.48a9.18,9.18,0,0,1-.07-2.1l.07-1,.83-.25c.16-.14.48-.72.39-2.09l0-.38.17-.34c.53-1.08.53-2.82.22-3.11l-.9-.28c-.25-.08-.45-.15-.85-.26l-2.72-.75,2.22-1.73c.48-.37.56-.54.57-.56h0a1.61,1.61,0,0,0-.1-.32l-.38-1-.19,1.83-2.1-6a3.6,3.6,0,0,1,0-3.24,1.49,1.49,0,0,0,.15-1c0-.1-.1-.23-.36-.35l-.68-.33-.11-.74c0-.12,0-.26-.07-.4a4.69,4.69,0,0,1,.12-2.93,4.4,4.4,0,0,0-.4-2l-.64-.12a2.73,2.73,0,0,0-.52-.08l-1.12.39-.58-1.09-10.64,1.9,6.35-2.92-.35-.89a1.05,1.05,0,0,0-.07-.14c-1,.33-2.86.86-4.08,1.19l.75.7-2.41.69c-.21.06-.5.12-.82.19a8.89,8.89,0,0,0-1.51.4l0,.12.16-.05,1-.39.62.92a6.71,6.71,0,0,1,.73,2.2c.06.26.14.62.22.93a2.11,2.11,0,0,1,2.73,1.46c.1.31.18.54.26.76a3.44,3.44,0,0,1,.19,2.85,2,2,0,0,1-1.87,1c-.68,0-.94.1-1.18.54l-.11.2a1.12,1.12,0,0,0,0,.25l.13.09c.85.56,2.61,1.72,2.71,3.61v.12a2.66,2.66,0,0,1-1.47,2.39,3.14,3.14,0,0,1-3.38-.64,9.7,9.7,0,0,1-1.8-1.81l-.38.07a9.55,9.55,0,0,1,.37,1.21l.32,1.39-6.18,1.38-.43-1.17c0-.13-.47-1.3-.63-1.91-.07-.26-.26-.79-.44-1.28a17.06,17.06,0,0,1-1.93.57l-1.59.35-.13-1.62s0-.06,0-.09l-.78.53-.83-1.32a15,15,0,0,1-1.24-3.39l-.24-1.06.43-.23-.5-2.55c-.07-.35-.35-1.23-.61-2-.76-2.32-.94-3-.8-3.58l.12-.52.43-.31a4.5,4.5,0,0,1,1-.52s0-.08,0-.12l-.23-.91a30.26,30.26,0,0,0-1.11-3.72,7.33,7.33,0,0,0-3.14.26l-1.57.6-.32-1.65c0-.21-1-5.14-1.13-6a3.73,3.73,0,0,0-.08-.42h-.17c-1,.21-2.53.63-3.31.84a2.51,2.51,0,0,1-.35,1.82,2.84,2.84,0,0,1-1.65,1.15,3.53,3.53,0,0,0,.16.69l.62,2.42h0a3.14,3.14,0,0,1,2.79-.06,2.14,2.14,0,0,1,1,1.7,7.27,7.27,0,0,1,0,.84c0,.17,0,.45,0,.66l1-.2.51.9a7.32,7.32,0,0,1,.65,2.68l0,.19.16.47-.29.55a1.73,1.73,0,0,1-1.22.83c-.11,0-.33.09-.49.15l.11,1-5,1.09-.56-1.42-1.33.46v.23c0,1.29-.77,1.38-3.29,1.7l-1,.12-.68-1.28-.52,0-1.08.12-.4-1a15.15,15.15,0,0,1-.56-1.87l-.86.14-.28,0a2.07,2.07,0,0,1-1.77-.4,1.88,1.88,0,0,1-1.78-1.13,41.31,41.31,0,0,1-1.18-4.17l-.4.13a3.23,3.23,0,0,1-4.26-1.2c-.71-.85-1.41-1.84-1.13-2.92a2.62,2.62,0,0,1,1.81-1.66c.33-.11.52-.18.63-.23l0-.25.17-.21a2,2,0,0,1-.35-.08c-.66-.22-.94-.77-1.27-1.4l-.18-.34a1.59,1.59,0,0,1-.49-.51,2.48,2.48,0,0,1-.21-1.67,12,12,0,0,1-1.31.09h-.36a15,15,0,0,1-9.79-3l.11.4.29.61c2.61,5.4,2.89,6.48,2.51,7.4a3.37,3.37,0,0,1-2.2,1.71,4.35,4.35,0,0,1-3.61-.43l-.22-.11c-3.07-1.53-5.12-2.63-5.71-4-.18-.4-.35-.93-.54-1.54a18.54,18.54,0,0,0-1.44-3.59,17.15,17.15,0,0,0-4.67-4.12c-.37-.19-.8-.38-1.26-.58-1.92-.83-4.55-2-5.83-4.58-.61-1.14-1.4-2.31-2.1-3.34-1.16-1.71-1.77-2.64-1.88-3.52l-.07-.53.3-.44c1.18-1.76,6.32-4.86,7.61-5.5l.15-.1c-.58-1.7-1.76-5.15-2.49-7.11a61.91,61.91,0,0,0-7.08.77l-.5.08-.44-.25c-1.39-.79-2.44-2.67-3.38-4.54l-.22-.42a2.12,2.12,0,0,0-.13.4l-.06.29-.37.51a7.1,7.1,0,0,1-4.08,3.24c-1.43.32-8.67,1.85-10.38.64l-.5-.36-.08-.61c0-.22,0-.45-.07-.69-.15-1.67-.35-2.25-1.32-2.46-1.21.22-3.94,1.59-3.69,5.77l.1,1.68-1.67-.18c-.15,0-3.62-.44-5.69-5.08-.56-.92-1-1.74-1.31-2.47A5.63,5.63,0,0,0,45,107.2a2.67,2.67,0,0,0-2-.57c-.32.14-.59.68-.72,1.49a4.46,4.46,0,0,0-.07.66,8,8,0,0,1-1.77,5c-1.77,2-3.29,3.28-5.84,3.8l-.28,0c-.53,0-1,0-1.41,0-1.8.08-3.67.17-4.54-2.79a1.56,1.56,0,0,0-1.6-.59l-.22,0-.23,0c-3.15-.53-5.23-2.48-6.21-5.81a41.75,41.75,0,0,0-4.37-5.57c-.17-.17-.3-.29-.45-.42-1.32-1.2-3.9-3.54-2.72-9a3.48,3.48,0,0,1-2.93-2l-.06-.13A118.83,118.83,0,0,1,6.43,79.83,12.13,12.13,0,0,0,5.21,78.4l-.74-.8,5-8a41.27,41.27,0,0,0,2.23-3.87.64.64,0,0,0,0-.14l-.3-.27L11.12,65a2.77,2.77,0,0,1-1-4.1l.1-.18.39-.85.94,0h0c1.41,0,4-2.41,5.13-4.44,1.06-1.81,3.21-3.53,6.76-5.4l.25-.1c1.51-.46,1.67-2.25,1.67-3,0-1.75,1.58-6.86,2-8.05a3.08,3.08,0,0,1-.64-.75L25,35.36l3.2.66c.14,0,13.68,2.84,17.57,3.57,7.78,1.3,17.48,3,19.7,3.58,3.68.59,22.24,4.35,24.63,4.84l2.48.51c6.78,1.39,22.67,4.65,25.08,5.15l4.16.79c8,1.51,16,3,18.23,3.69,3.51.7,19.53,4.64,23.52,6.08a198.32,198.32,0,0,1,19.66,8.66l.34.16c4,1.91,11.35,5.47,16.69,6.38,5.59,1,13.62,1.92,15.1,1.92,2.18-.12,23.83,2.27,26.93,2.91l1,.06c2.67.15,4.28.25,5.72,2.33.91,1.39,12.69,16,13.73,17,.46.42,2.44,2.92,6.83,8.53,2.62,3.35,5.34,6.82,6.08,7.65,1.68,1.91,12.56,15.62,13.68,17,4.26,5.39,7.74,9.34,9.09,10.3,1.62,1.24,7.12,6.43,12.82,11.85l1.91,1.81c.74.67,16,15,17.67,16.62,13.83,12.16,14.2,13.41,14.32,13.82l.09.31-.05.32c-.05.33-.22,1.33-3.88,5.08l-16.79,18.58c-1.94,1.9-18.5,18.1-20.89,19.49-1.21.71-6.54,4.39-10.83,7.34-3.29,2.27-5.89,4.06-6.56,4.48l-.55.33c-2,1.2-8,4.84-10,8.44l-.19.28-.55.61c-7.36,8-8.32,10.42-8.4,11.05a10.71,10.71,0,0,1,.42,2.34,7.6,7.6,0,0,0,.24,1.51l.7,1-.87.81a3.64,3.64,0,0,1-.45.37l-.14.11a1.68,1.68,0,0,0,.07.19l.41.93-.74.69a2.93,2.93,0,0,1-1.21.59,3.35,3.35,0,0,0-.57.21s0,.12,0,.27l.44,2-2-.24-.49-.08a8,8,0,0,0-2.21-.21l0,.34a8.87,8.87,0,0,0,.44,4.87h0a.17.17,0,0,0,.31,0l.17-.11.19-.06c1.14-.38,1.17-.42,1-1.22l0-.18v-.18c.07-1.75,2.2-3,4.18-3.34.55-.14,1.42-.46,2.06-.68a7.67,7.67,0,0,1,1.3-.41,2.69,2.69,0,0,1,2.24.53,2.24,2.24,0,0,1,.7,1.13,2.34,2.34,0,0,1,1.54,2v.15a5.32,5.32,0,0,0,.54,2.3,2.6,2.6,0,0,1,.8.65,27.06,27.06,0,0,0,3.36-.83l.6-.43.75.33c.75.33,1,1,1.42,2.57a1.36,1.36,0,0,0,.49-.11l.12,0c1-.33,2.53-.83,3.75-.1a2.57,2.57,0,0,1,1.21,1.83l0,.17v.17a.83.83,0,0,0,0,.41,2.71,2.71,0,0,1,.15,1.06,2.19,2.19,0,0,1-1.17,1.65,3.72,3.72,0,0,0-.5.39l0,0a9.16,9.16,0,0,0,.66.69,6.25,6.25,0,0,1,2,2.84,2.92,2.92,0,0,1-.59,2.27,2,2,0,0,1-1.61.89h-.38l-.33-.19a2.88,2.88,0,0,0-1.92-.48l-.36.08-.35-.11a9.45,9.45,0,0,1-3.11-2.07l-.28-.24a19.85,19.85,0,0,1-1.62-1.49c-.29,0-.69.14-.85.17-1.09.25-3.6.79-3.6.79l-1,.21-.53-.83a5.41,5.41,0,0,1-.8-2.27l-.15,0a10.33,10.33,0,0,0-1.56,0,2.25,2.25,0,0,0,.2.85,39.57,39.57,0,0,1,1.2,3.8c.19.68.43,1.52.51,1.71l.06.16s1,3.39,1.12,3.9l1.91,6.92-4.39-5.67a10.94,10.94,0,0,1-.71-1,5.57,5.57,0,0,0-.33-.5l-.28.15a2.8,2.8,0,0,1-.34.17,1.52,1.52,0,0,1-2-.84l0-.08h0l-2,.47,0-.48-1.78.89c-.32-.6-.54-1.1-.73-1.52-.09-.19-.18-.41-.27-.57a2.08,2.08,0,0,0-.47.14,6,6,0,0,1,.15,1,1.88,1.88,0,0,0,0,.19,1.87,1.87,0,0,1-1,1.92l-.13.35a3.94,3.94,0,0,1-.18.42c.19.72.29,1.09.3,1.1l1.14,4L258.19,306a6.84,6.84,0,0,0-2.19-1.08c-1,.15-3.63.81-5.7,1.35,0,.11.08.24.15.39l0,.11a7,7,0,0,1,.35,2v2.76l-2.57-1.85-1.93.58.13,1.43L242.64,313l-.62-.88a2.6,2.6,0,0,1-.19-2.62,3.64,3.64,0,0,0,.3-.72l-.4.06L241,309l-.54-.57-.2-.21-.22,0a6.36,6.36,0,0,0-.66.1,3.29,3.29,0,0,1,0,1.68l-.13.4-.43.35.41,1.78-.62.56A3.56,3.56,0,0,1,236.29,314Zm-1.71-4.92.31.18a2.34,2.34,0,0,1,.8.71l-.06-.26.94-.77,0-.13,0-.17a2.44,2.44,0,0,1,.4-2,3.8,3.8,0,0,1,2.78-1.25l.2,0,.21-.08.31,0A2.37,2.37,0,0,1,242,306a2.5,2.5,0,0,1,2.69,1.18,3.78,3.78,0,0,1,.22.59l2.68-.81c-.53-1.86.19-2.65.57-2.92l.21-.15.25-.07c.58-.16,5.76-1.54,7.24-1.71l.13,0h.13a4.9,4.9,0,0,1,1.34.3l.1-.2a1.41,1.41,0,0,0,.1-.21,3,3,0,0,1,.87-1.5l0,0a3.17,3.17,0,0,0-.16-.7l-.08-.23v-.25a2.69,2.69,0,0,1,1.59-2.3,3.68,3.68,0,0,1,3.35-.16,2.42,2.42,0,0,1,.56.52,2.71,2.71,0,0,1,2-.1,2.93,2.93,0,0,1,.91.46,2.41,2.41,0,0,1,1.63.7l.38-.09c-.12-.35-.29-.92-.55-1.85-.34-1.18-.8-2.81-1.07-3.45-.7-1.62-.52-3.44.42-4.31l.19-.17.23-.1a10.16,10.16,0,0,1,3.52-.15c1.72.26,2.57,1.12,2.57,2.55a.91.91,0,0,0,0,.16l2.41-.53c1.19-.28,2.67-.62,3.5.57a12.37,12.37,0,0,0,1.46,1.35l.31.27a11.51,11.51,0,0,0,1.82,1.39,5,5,0,0,1,1.56.11c-.19-.21-.39-.4-.55-.56a8.65,8.65,0,0,1-1.05-1.15l-.08-.13c-.83-1.53-.44-2.9,1.16-4.07a3.3,3.3,0,0,1-.08-.62,7.16,7.16,0,0,0-1.21.31,4,4,0,0,1-3.17,0c-.65-.21-.81-.75-1.08-1.65l-.1-.33c-1.52.42-3.43.74-3.45.74a2.19,2.19,0,0,1-1.94-1h0l-.25-.18c-1.47-1-1.7-3.06-1.79-4.27a2.22,2.22,0,0,1-1.41-1.34l-.62.22c-.76.27-1.71.61-2.39.78l-.13,0a3.71,3.71,0,0,0-1.8.75c.38,2.79-1.75,3.66-2.78,4A2.91,2.91,0,0,1,260,286a3.25,3.25,0,0,1-2-1.67,11.63,11.63,0,0,1-.69-6.4l.06-.49a2.3,2.3,0,0,1,.85-1.7,4.59,4.59,0,0,1,3.51-.59,3.07,3.07,0,0,1,1.83-1.65,2.57,2.57,0,0,1,.78-1.8,14.48,14.48,0,0,1-.21-1.54,7.94,7.94,0,0,0-.31-1.79l-.08-.18,0-.19c-.31-2.15,2.34-6,9.12-13.45l.43-.47c2.36-4.22,8.57-8,10.92-9.37l.52-.31c.62-.38,3.45-2.33,6.45-4.4,4.55-3.13,9.7-6.69,11-7.46,1.58-.91,13.27-12.14,20.28-19L339.2,195a38.15,38.15,0,0,0,2.88-3.26c-1.65-1.84-7.66-7.36-13.19-12.22l-.07-.06C327.4,178,312,163.57,311.22,162.9l-2-1.85c-3.25-3.09-10.87-10.34-12.55-11.62-2.15-1.52-7-7.43-9.63-10.82-1-1.23-12-15.07-13.58-16.92-.79-.9-3.41-4.24-6.18-7.78s-6.06-7.74-6.54-8.21c-.94-.85-13.12-15.88-14.14-17.46-.61-.88-1-.93-3.53-1.08l-1.34-.1c-2.36-.56-24.29-3-26.36-2.87h0c-1.85,0-10-1-15.63-2s-13.35-4.64-17.45-6.62l-.43-.21a194.11,194.11,0,0,0-19.3-8.51c-3.92-1.41-19.86-5.33-23.17-6l-.14,0c-2.12-.65-12.45-2.59-18-3.63l-4.21-.8c-2.41-.51-18.29-3.76-25.07-5.15l-2.49-.51C86,50.06,68.15,46.46,64.94,46l-.18,0c-.86-.25-4.54-1-19.5-3.54-2.89-.54-10.94-2.2-15.1-3.06l-.08.25A47.45,47.45,0,0,0,28.21,47c0,2.19-.94,4.8-3.55,5.67-2.92,1.55-4.78,3-5.53,4.26-1,1.7-3.72,5-6.52,5.7l.14.09.21.16.32.28a3.13,3.13,0,0,1,1.31,2.76l0,.34a28.93,28.93,0,0,1-2.64,4.83L8,77.28A4.06,4.06,0,0,1,9.2,79.22c.2,1.26,2.32,9.42,2.95,11,.3.53.48.74,1.93.21l2.84-1-1,2.84c-1.9,5.29,0,7,1.29,8.19.19.17.37.33.51.48a46.61,46.61,0,0,1,4.87,6.18l.14.2.06.24c.8,2.95,2.42,3.69,3.8,4a4.45,4.45,0,0,1,4.16,1.85l.2.25.08.31c.2.81.37,1,.37,1a5.66,5.66,0,0,0,1.37,0c.41,0,.87,0,1.39,0,1.71-.38,2.74-1.27,4.14-2.87a5.45,5.45,0,0,0,1.07-3.36,6.42,6.42,0,0,1,.13-1,4.3,4.3,0,0,1,2.35-3.5,5,5,0,0,1,4.7.77,8.14,8.14,0,0,1,2.86,3.76,25.48,25.48,0,0,0,1.22,2.31l.09.17a7,7,0,0,0,2,2.72A7.46,7.46,0,0,1,59,107.24l.18,0,.18,0c3.18.51,3.68,3.07,3.85,4.62h0a47.93,47.93,0,0,0,7.63-1.06,4.59,4.59,0,0,0,2.38-2.11l.05-.08a3,3,0,0,1,2.37-2.42,2.79,2.79,0,0,1,2.78,1.3c.1.17.24.44.41.77a14.94,14.94,0,0,0,1.93,3.1c1.78-.27,6.93-1,8.35-.56l.66.2.25.64c.87,2.21,3.09,8.78,3.18,9.06l.34,1-2.23,1.53a37.22,37.22,0,0,0-6.08,4c.29.5.79,1.24,1.19,1.82a41.22,41.22,0,0,1,2.28,3.64c.84,1.72,2.75,2.54,4.43,3.27.53.23,1,.45,1.45.67a20,20,0,0,1,5.59,4.89l.13.18a20.39,20.39,0,0,1,1.77,4.29c.17.51.32,1,.43,1.26.4.58,3.19,2,4.39,2.57l.43.23a1.62,1.62,0,0,0,1.52.06c-.39-1.21-1.71-4-2.26-5.08l-.43-.94c-.63-2.18-.81-3.61.11-4.5a2.36,2.36,0,0,1,2.46-.31l.26.09.21.18a12.49,12.49,0,0,0,9.24,3.39h.46a13.14,13.14,0,0,0,1.48-.13c1.22-.15,2.26-.27,2.83.67a2.52,2.52,0,0,1-.11,2.33l0,.11v0a5.76,5.76,0,0,1,.56.94v0a2.37,2.37,0,0,1,1.52.78,3,3,0,0,1,.09,3.34,2.83,2.83,0,0,1-2,1.88l.24.29.13.18a.92.92,0,0,0,.23.29,2.35,2.35,0,0,0,.73-.21l.45-.15a2.9,2.9,0,0,1,3.09.57l.26.28.09.37c.34,1.41.76,3.05,1,3.92a1.63,1.63,0,0,1,1,.41,10.92,10.92,0,0,1,2.32-.26c1.14.11,1.41,1.18,1.67,2.2,0,.19.1.39.15.6l.46,0,.88,0,.47.88a1.56,1.56,0,0,1,1.12-1.18l3.36-1.16,1.29-.45.67,1.71.49-.11a3,3,0,0,1,1.52-1.27l0-.17a2.37,2.37,0,0,1-1-.47,3.47,3.47,0,0,1-1-2.82,3.1,3.1,0,0,1-3.1-.46l-.33-.29-.91-3.55c-.81-2.58.35-3.62,1.11-4l.2-.1.22,0,.19,0a2.39,2.39,0,0,1,1.6-2.86c.13,0,2.71-.75,4.08-1l.18,0c1.93-.15,3,.81,3.35,2.82.08.52.5,2.77.83,4.47a7.83,7.83,0,0,1,4.05.3l.24.11.18.19c.75.79,1.25,2.57,1.91,5.19l.25,1,0,.2c.21,1.84-.47,2.56-1.33,3,.15.51.36,1.15.51,1.6l.35,1.08a3.22,3.22,0,0,1,1.51,1.82c.81,2.32.41,3.44-.59,4.18.07.2.14.42.23.65a2.12,2.12,0,0,1,.84.2,2.49,2.49,0,0,1,1.14,1.18l.44-.16.22-.06a2.76,2.76,0,0,1,2.71.63l.18.2.09.25c.06.16.61,1.59.79,2.26,0,.13.09.31.15.5l.83-.19a4.14,4.14,0,0,1,.13-2.11l.26-.8.83-.15,2.48-.46.55-.11a3.73,3.73,0,0,1-.1-.72,2.85,2.85,0,0,1,.54-1.91,3.66,3.66,0,0,1,2.62-1.76l0-.12-.09-.26a4.37,4.37,0,0,1-.67.17l-.14,0h-.14c-1.5-.06-1.87-1.67-2.26-3.38l-.1-.44a2.49,2.49,0,0,1-1.13-.31,3.08,3.08,0,0,1-1.39-2.26l-.06-.31c-.32-2.27,2.17-2.95,3.53-3.24a3.36,3.36,0,0,1,1.06-1.1l.2-.13.23-.06c1.12-.3,4.24-1.15,5.18-1.49l.13,0a5.84,5.84,0,0,1-1-1.14,4,4,0,0,1-.52-1.49c-.05-.22-.11-.47-.17-.71-.35-.2-1.06-.75-1.61-2.6a2.7,2.7,0,0,1,1-2.85l.2-.15.24-.07s1.71-.5,2.93-.88c1.82-.57,3.1.25,3.83,2.44l.06.18a4.61,4.61,0,0,1,.1,2.89c.71.33,1.07,1.11,1.85,2.92.2.48.48,1.12.62,1.36a2.88,2.88,0,0,1,.62,2.47,2.62,2.62,0,0,1-.16.46h0a5.34,5.34,0,0,0,.81.13l.37,0,.32.2c1.59,1,2.13,4.15,1.63,5.57l-.12.26a3.73,3.73,0,0,0,.1,1,3.3,3.3,0,0,1,1.15,1.62,4.16,4.16,0,0,1-.1,2.64h.92l.26.09a3.65,3.65,0,0,1,2.27,2.42,3.94,3.94,0,0,1,0,2.33,2.66,2.66,0,0,1,.1,1.43,2.82,2.82,0,0,1-.7,1.33,2.81,2.81,0,0,1-.13,1.25l.06,0a3,3,0,0,1,1.67,1.8,7.28,7.28,0,0,1-.25,4.83,4.88,4.88,0,0,1-1.33,4,3.83,3.83,0,0,0,0,.68l0,.14c.46,3.59-.41,4.69-2.17,5.48l-.25.11a11.47,11.47,0,0,0-2.36,2.88,3,3,0,0,1,0,2.22,2.82,2.82,0,0,1-1.11,1.23c.12.49.22.95.27,1.17.14.68.79,2.9,1.36,4.86.3,1,.61,2.09.86,3a5.59,5.59,0,0,1,1,.09l.32.06.26.2a11,11,0,0,1,3.14,5l0,.18v.18c0,.08,0,.14,0,.19l.32.12.49.23a2.39,2.39,0,0,1,.59,3.31l-.09.18a13.66,13.66,0,0,1,.64,4.53,7.76,7.76,0,0,1,1.59,4,5,5,0,0,1,1,1.21l.13.24a3.34,3.34,0,0,0,1.64,1.66l.28.12.2.22a6.38,6.38,0,0,1,1.14,3.36,2.7,2.7,0,0,1,2.13,1.53,4.07,4.07,0,0,1,2.58.19,15.91,15.91,0,0,1,3.86,2.09c2.49,1.42,3.65,5.17,3.43,6.67a23.17,23.17,0,0,0,.66,3.22,2.94,2.94,0,0,0,.37.18l.28.16c1.47,1.07,1.4,4,1.27,5.41a6,6,0,0,1,1.27,2.67,2.65,2.65,0,0,1,1.34,1.3,3.49,3.49,0,0,1-.08,2.81l.16.58c.45,1.65,1.29,4.71,1.61,5.75l.07.38a6.85,6.85,0,0,1,0,2.24,3.94,3.94,0,0,1-.9,2.07l.09.13a2.87,2.87,0,0,1,.69.43l.83-.33a2.49,2.49,0,0,1,2.11.12,3.56,3.56,0,0,1,1.43,2.61c0,.13.05.27.08.39a2.78,2.78,0,0,1-.27,2.35,2.39,2.39,0,0,1-1,.84,6,6,0,0,1-.38,1.86l-.06.19a4.87,4.87,0,0,1-1,3,4.43,4.43,0,0,1-1,2.1,2.8,2.8,0,0,1-.46.42,1.62,1.62,0,0,1-.23.64,2.53,2.53,0,0,1-1.69,1.42,2.76,2.76,0,0,1-2.31-.73c-.3.07-.76.24-1,.35a5.43,5.43,0,0,0,.36.76,3.94,3.94,0,0,1,1.95,2.42,1.61,1.61,0,0,1,1.34,1l.07.22.2,0,.63.62c.18.21.53.62,1.09,3.36l.5.26.28.18a3,3,0,0,1,1.07,1.85l.11,0a3.47,3.47,0,0,1,1.76,2.12l.44,1.66.55,2.07a2.63,2.63,0,0,1,2.37-.06c.27.09,1.16.33,1.88.49l.25.06.22.15c.33.22,1.22.81,1.82,1.16A3.11,3.11,0,0,1,234.58,309.08Zm5.22-3.64h0Zm-12.07-.76h0Zm0,0h0Zm0,0h0Zm58-9.65v0Zm-68.6-.25h0Zm61.78-11.85h0Zm-62.05-9.07a.6.6,0,0,0,0,.11Zm49.55-.3Zm-2-.32h0Zm-60.15-34Zm138.2-47h0Zm-.08-1Zm-152.58-5.11Zm-1-14.62-.37,3.64.93-.59a1.4,1.4,0,0,0,.24-.18l0-.06-.56-.83.6-.81a1.08,1.08,0,0,0,0-.74.87.87,0,0,0-.31-.43Zm.83,2.94Zm-34.11-6.92-.27.33.11-.05.19-.09A1.82,1.82,0,0,0,155.53,167.56Zm-17.16-3.74-.14,0ZM154.12,159h0Zm26.19-4.62a2.09,2.09,0,0,1,.79,1,1.65,1.65,0,0,1-.08,1.23l.37-.17a2.64,2.64,0,0,0,.63-.38l-.1-.15-.08-.12a15.09,15.09,0,0,1-.85-1.8c-.21-.48-.53-1.23-.72-1.59a7.09,7.09,0,0,1-.83-.45l.38,1.13C180,153.64,180.17,154.11,180.31,154.42Zm-2.3-2.68c.12.17.21.29.28.38l.75-.37-.1-.1-.8-.8.6-1a2,2,0,0,0,.24-1.79l-.09-.25a5.49,5.49,0,0,0-.24-.64h0c-.81.26-1.85.57-2.46.75,0,.12.08.23.12.32l.61-.24.51,1.34a15,15,0,0,1,.49,1.74C177.92,151.38,178,151.6,178,151.75Zm-56.44-3.59h0Zm18.82-.32Z"/></svg>