<svg id="Layer_1" data-name="Layer 1" xmlns="http://www.w3.org/2000/svg" viewBox="0 0 350 350"><defs><style>.cls-1{fill:#999;}.cls-2{fill:#f90;}</style></defs><title>M</title><polygon class="cls-1" points="189.92 158.65 181.58 158.65 177.85 158.65 173.68 157.55 170.83 157.55 169.07 158.1 165.56 158.1 162.27 157.55 159.42 156.46 159.42 158.65 159.42 161.94 156.57 161.94 155.25 164.8 155.25 166.77 151.3 166.77 147.57 166.77 138.35 165.67 134.84 165.01 128.04 164.58 124.75 164.58 121.89 165.67 117.94 166.77 114.43 167.87 111.36 167.87 108.95 170.5 104.12 172.7 100.61 172.7 96.66 172.7 95.34 172.7 95.34 169.4 95.34 167.65 95.34 165.89 91.61 168.09 81.96 174.45 79.54 175.77 70.55 180.16 67.03 181.94 65.94 184.76 65.94 192.01 62.87 199.03 57.16 204.29 48.38 208.03 38.95 209.12 34.34 209.12 29.07 206.05 26.88 202.54 24.68 200.56 23.15 196.18 21.17 194.86 14.81 194.42 14.81 198.37 8.66 198.81 7.13 199.69 7.13 202.32 7.13 204.73 7.13 206.71 6.25 209.12 6.25 211.32 6.25 213.73 7.35 215.71 9.32 215.71 11.3 215.71 13.27 215.71 15.69 215.71 19.2 214.61 20.95 215.71 20.95 217.02 20.95 219.66 21.17 223.61 22.49 224.7 23.8 226.46 23.8 229.31 23.37 233.7 24.46 236.11 25.34 236.11 30.17 236.11 34.56 236.11 40.26 236.11 43.55 236.11 45.75 237.87 51.02 237.87 54.75 236.77 55.84 234.36 57.16 235.68 57.6 231.94 58.92 228.43 60.89 226.46 61.11 224.04 64.62 224.04 69.89 223.61 72.74 223.61 76.91 223.61 79.98 222.95 83.71 222.73 85.25 220.97 88.32 220.09 91.83 218.12 98.09 216.37 104.78 214.17 113.78 210.88 119.26 209.78 124.75 208.25 128.26 208.25 134.18 208.25 140.33 207.81 142.74 207.59 146.69 206.93 150.64 206.27 154.15 205.17 158.1 204.73 162.93 204.29 169.07 203.42 173.9 203.2 183.56 201 187.29 200.13 191.68 198.81 195.63 197.16 195.63 201.22 195.63 204.51 195.63 208.03 195.63 210.66 199.36 211.76 201.55 211.76 205.94 211.76 210.77 211.76 215.38 210.88 218.45 209.12 222.18 207.59 224.81 202.1 226.57 197.16 229.2 193.98 230.74 190.47 232.49 186.74 232.49 185.2 232.49 184.55 230.74 183.23 232.49 179.5 234.25 176.21 234.25 173.57 234.25 171.6 234.25 169.84 235.35 167.87 238.42 166.11 241.27 164.8 242.37 163.48 244.78 160.41 246.98 157.77 250.49 156.46 254.66 156.46 256.85 155.39 261.46 154.04 263.87 154.04 266.51 152.95 269.14 152.95 269.14 155.39 271.55 155.39 274.19 155.39 278.14 152.95 283.4 151.19 286.92 151.19 291.96 148.56 302.28 145.92 306.66 144.83 313.25 143.29 323.12 139.56 327.29 138.02 333 136.49 336.95 136.49 339.8 134.73 342.43 134.73 342.43 130.34 343.75 128.59 343.75 126.39 339.8 126.39 334.97 127.49 330.36 127.93 326.19 129.03 322.9 130.56 319.83 130.56 315.66 130.56 309.08 130.78 303.76 130.56 300.52 130.56 293.28 129.69 283.84 128.15 278.8 126.39 273.75 126.39 270.68 124.86 271.12 130.78 271.55 133.42 271.55 135.39 268.92 137.15 266.51 138.46 262.12 138.68 257.95 138.68 254.22 139.34 253.34 142.41 251.8 145.05 249.39 146.8 245.44 146.8 244.12 146.36 244.12 142.41 244.12 137.81 244.12 135.61 244.12 133.2 244.56 129.69 244.56 124.86 244.12 121.79 243.9 118.71 242.59 115.2 242.59 112.13 239.95 112.13 237.32 113.23 231.84 115.2 226.79 116.08 222.4 117.62 218.45 120.47 214.28 121.79 210.77 123.54 203.31 128.59 197.82 131.44 193.43 132.98 189.92 132.98 184.66 133.85 180.27 133.85 177.41 134.29 175 136.49 177.63 138.9 179.83 139.34 181.58 140.66 183.12 142.63 184.88 145.71 185.97 147.46 186.41 150.09 188.82 153.38 190.14 155.39 189.92 158.65"/><path class="cls-2" d="M51.22,239.29h-6l-2.19-1.76H23.55l-1.63-3.59.47-4.7v-2.31l-.93-1.25-1.66-1.39-.25-4.57v-3.24l-.54-.33-3.1,1H6.51l-1.68-3v-5.23l.88-2.41v-7.59l2.53-1.45,5.15-.37V192.9l8.25.57,2.68,1.79,1.57,4.49L28,201.62,30.09,205l4.63,2.7h4.14L48,206.64l8.36-3.55,5.31-4.9,2.83-6.48V184.5l1.39-3.58,4-2,9-4.4,2.3-1.26,9.61-6.33,5.93-3.49v7.86h7.05l4.28-1.95,2.64-2.88h3.48l3.3-1,3.93-1.09,3-1.17H128l7.06.46,3.51.66,9,1.07h6.18v-.87l1.83-4H158v-6.13l4.64,1.79,3,.51h3.18l1.76-.55,3.43,0,4,1.05H188.6l.1-1.46-1.06-1.61-2.57-3.5-.45-2.69-.95-1.52-1.73-3-1.36-1.75-1.35-1-2.27-.45-4.07-3.73,3.88-3.53,3.49-.52h4.27l5.38-.88h3.27l4.07-1.42,5.32-2.77,7.55-5.09,3.72-1.84,4-1.25,3.93-2.84,4.81-1.66,4.93-.86,5.37-1.93,2.83-1.18H244v4.23l1.3,3.46.23,3.28.44,3.17v5l-.43,3.42v12.06l.13,0h3.26l1.8-1.31,1.3-2.22,1.07-3.75,4.85-.83h4.17l4-.2,2.07-1.13,2-1.3v-1.1l-.43-2.65-.62-8.41,5,2.5h5l5.16,1.79,9.31,1.52,7.1.86h3.15l5.33.22,6.53-.22h7l3.25-1.49,4.4-1.14,4.52-.43L339.8,125h5.37v4.08l-1.32,1.76v5.33H340.2l-2.85,1.76h-4.16l-5.46,1.47-4.11,1.51-10,3.78L307,146.21l-4.37,1.09-10.15,2.59-5.21,2.72h-3.63l-4.89,1.63-4.15,2.57h-6.87v-2.45h-.93l-2.63,1.1h-2.49l-4.3,1.26L255,157.87h-4.24l-2.92,1.1-2,2.34-3.72,4.63-3.09,1.42-2.67,1.53-.73,1.31v6.35l-1.92,3.6-1.23,2.62,1.4,1v3.22l-1.89,4-1.6,3.66-2.6,3.14-1.73,4.84-2.87,6-4.15,1.71-3.2,1.83-5.11.95H199.15l-4.94-1.45V199.29l-2.12.88-4.39,1.32-3.81.9L174,204.61l-4.76.22-6.08.87-4.9.45-3.79.42-3.57,1.1-8,1.33-2.41.22-6.27.44h-9.24l-5.4,1.51-5.38,1.08-8.89,3.25-6.74,2.21-6.15,1.73-3.67,2-2.67.76-1.65,1.89-4.21.25-3.26.67h-7l-5.33.44H62.4l-.15,1.64-2.12,2.12L59,232.28l-.76,6.46-1.94-1.94-.52,1.14Zm-5-2.83h4.57l2.91-.86,1.68-3.69.69.7.18-1.16,1.42-3.8,1.83-1.83.29-3.19h4.75l5.33-.44h6.87l3.14-.66,3.14-.18,1.42-1.62,3.31-.95,3.68-2L97.7,215l6.63-2.18,9.16-3.33,5.43-1.09,5.62-1.57h9.58l8.43-.65,7.75-1.29,3.68-1.12,4-.44,4.85-.44L169,202l4.7-.21,13.25-3,4.24-1.27L197,195V209.6l2.52.74h11.07l4.24-.81,3-1.72,3.23-1.33,2.37-4.93,1.81-5.1,2.67-3.22,1.46-3.33,1.64-3.48v-1.17L229,183.67l2.25-4.78,1.62-3v-6.38l1.47-2.64,3.52-2,2.56-1.18.89-1.07,2.39-3,2.46-3,4.1-1.54h4.1l2.12-1,4.8-1.41h2.33l2.63-1.1h4.33V154h3.23l3.9-2.37,5.48-1.83h3.39l5-2.59,14.71-3.73,6.51-1.52,14.09-5.28,6.07-1.58h3.55l2.85-1.76H341v-3.44l1.32-1.76v-.3H340l-4.85,1.09-4.49.43-3.93,1L323.22,132h-7.56l-6.59.22L303.7,132h-3.26l-7.33-.89-9.73-1.6-4.82-1.68h-5.14l-1.14-.57.25,3.37.45,2.8v2.73l-3.37,2.24-2.7,1.47-4.71.24h-4.12l-2.74.48-.77,2.54L252.88,146l-3,2.2h-4.64l-2.5-.83V133l.43-3.42V125l-.42-3-.21-3-1.33-3.56v-1.91h-.93l-2.37,1-5.79,2.06-4.93.86-4.08,1.43-4,2.87-4.28,1.35-3.33,1.67L204,129.85l-5.67,2.93-4.62,1.62H190l-5.38.88h-4.28l-2.32.36-.95.86,1.2,1.1,2.12.42,2.28,1.77,1.65,2.14,1.76,3.07,1.22,1.95.43,2.58,2.21,3,1.62,2.47-.34,5.05-13.75,0-4-1.05H171l-1.76.55-4,0-3.57-.62-.93-.36v4.84h-3.36l-.81,1.75v3.08H147.4l-9.22-1.1-3.52-.66-6.72-.43H125l-2.74,1-4,1.1-3.67,1.15H112l-2.19,2.39-5.37,2.44H93.93v-5.74l-1.59.94-9.7,6.39L80.22,177l-9.05,4.42-3,1.53L67.35,185v7.27L64,199.87l-6.11,5.63-9.19,3.91-9.8,1.13H34l-5.9-3.44-2.28-3.64-2.32-2.08L22,197.09l-1.27-.84-4.47-.31v3.75l-7.14.51-.54.31V207l-.88,2.41v4l.51.92h7.29l3.93-1.23,3,1.86v4.74l.18,3.26,1.07.94,1.6,2.13v3.47l-.4,4,.56,1.24H44.05Z"/></svg>