<svg id="Layer_2" data-name="Layer 2" xmlns="http://www.w3.org/2000/svg" viewBox="0 0 350 350"><defs><style>.cls-1{fill:#999;}.cls-2{fill:#f90;}</style></defs><title>M_</title><path class="cls-1" d="M334.67,142.77a1.54,1.54,0,0,0-1.82-.23,7.65,7.65,0,0,1-2.08,1.13c.61-3.63,5.32-6.08,7.66-8.36a17.54,17.54,0,0,0,3.86-5.21c1.81-4,1.44-9.26-2.35-12-3.55-2.57-8-1.46-11.89-.16-8.69,4.58-18.65,5.33-27.88,8.45a2,2,0,0,1-2.26-.92A42.09,42.09,0,0,0,295,121a38,38,0,0,0-4.52,2.64c-1.25.95-3-.35-3-1.73,0-5.22,1.07-16-6.26-16.43-1.54-.09-2.89-2.25-1.41-3.41,5.36-4.22,6-12.66,6.31-19a77.46,77.46,0,0,0-.54-13.43c-2.52,1.49-5.15,3.15-7.39,4.56-2.45,1.54-4.56,2.88-5.76,3.51-3.37,1.78-16.16,12.76-18.11,15.29-1.13,1.47-5.06,9.56-7.93,15.48-2.66,5.47-4.07,8.36-4.57,9-1.24,1.7-6.2,3.85-7.69,4.46l-.19.08-.21,0-1.8.18a15.55,15.55,0,0,1-2.85,1.08,16.54,16.54,0,0,1-2.14,1.32,14.69,14.69,0,0,1-5,1.63c-1.53.17-4.26-.59-5.77.33a26.66,26.66,0,0,0,.28,4.24c.2,1.39-.85,3-2.46,2.46a15,15,0,0,1-3.83-1.74,2.1,2.1,0,0,1-2.77,0c-6.07-4.73-2.7-10.72.43-16.34l-.47.4-.8-1.44c-.7-.77-4.94-3.82-8.48-4.1-5-.06-12.11-.83-17-2.78a22.93,22.93,0,0,1-8.38-6.24c-.4-.42-.79-.84-1.18-1.22l-.13-.15c-1-1.31-5,.09-7.72,1-.74.26-1.45.49-2.11.7a1.5,1.5,0,0,0-1.46-.52c-5.38,1-9,6.35-6.6,11.65a9.41,9.41,0,0,0,2.5,3.22c2.14,1.9,3.79,1.85,3.9,5.05a4.52,4.52,0,0,1-1.2,3.61l-2.07,1.29c-.93.39-2,.72-3,1.15a4.05,4.05,0,0,0-2.11,1.21c-2.34,3.25.31,14,4,15.55,2.72,1.18,6.17-2.05,8.57-2.75s14.4-3.07,15.25,1a1.54,1.54,0,0,0,1.2,1.09l-.26.33c-.34.43-8.36,10.54-10.58,12.56-1.88,1.7-10,6.66-11.47,6.66a21.48,21.48,0,0,1-6.15-2.17c-.49-.4-5.64-5.59-8.26-8.24l-14,.22-.57-9.29c-3.31-3.42-8-8.26-10.43-10.64-.23.69-.45,1.32-.64,1.88a22.57,22.57,0,0,0-1,3.29l0,.27-.14.24a7.19,7.19,0,0,1-2.12,1.8c-5.17,3.65-9.66,7.71-7.6,12.62,2.8,6.49,9.7,16.67,9.77,16.77a7.26,7.26,0,0,1,1.05,5.38,6.05,6.05,0,0,1-3.19,3.82c-2.57,2.09-7.39,7.34-7.52,8.69l.13,2.59-2.25-1.32a20.57,20.57,0,0,1-6.78-7.14,15.92,15.92,0,0,0-1.64-1.67c-1.84-1.73-3.06-3-3.31-4.21-.22-.76-2.6-3.62-4.69-5.8L73.1,153.3c-1.31,1.92-3.1,5-3.28,7.3l0,.19a25.14,25.14,0,0,1-3.34,8.94,35.22,35.22,0,0,1-5.4,7.39c0,8.57.08,18.9,0,19.51l-.05.32-.18.26c-1.19,1.69-5.48,2.32-6.93,1.89-.36-.11-1.75-.29-2.76-.42l-1.47-.2.07.5c.47,3.26,1,6.63-.61,8.61l-.2.25-.77.39c-1.74.88-3.29,1.67-4.49,1.29a6.35,6.35,0,0,0-.48.45c.34,1.26.71,2.54.84,2.82.54,1.08-.13,2.21-2.32,5.59-.55.84-1.06,1.64-1.31,2.1l-.18.34c-1.32,2.5-2.85,5.25-4.23,6.31a4.37,4.37,0,0,1-3.45,1,57,57,0,0,0-3.74,5c3.21,2.45,10.9,8.4,12.19,10.07a9.87,9.87,0,0,1,1.64,4.65,9.54,9.54,0,0,0,.2,1,1.88,1.88,0,0,1,.23,2c-.57,1.1-1.94,1.1-2.77,1.1-1.74,0-11.09-5.08-14.32-7-3.73,3.88-13.9,15.62-14,15.75l-.25.29-.37.12c-1.09.36-3,1-4.64,1.51A3.46,3.46,0,0,1,7.46,265a.78.78,0,0,0,0,.36,5.65,5.65,0,0,1,.38,1.52,2.73,2.73,0,0,0,.68,1.58l.12.16c1,1.36,1.73,2.52,1.5,4.27,5.86,1.79,14.06-4.8,17.93-8.57a2,2,0,0,1,3.14.4c3.21,4.53,11.2,7.81,16.26,9.72,7.5,2.83,13.56-1.16,19.73-4.84,2.7-3.18,6.75-4.71,11.46-5.36,3.81-.53,7.69-.58,11.48-1.32,4.32-.85,8.31-3.12,12.61-4.19,9.19-2.28,18.23-1.52,27.31.69,5.89,1.43,11.32,2.73,16.6-1.06,4.13-3,7.33-7.13,10.86-10.74,1.5-1.53,3.67.09,3.34,1.95-1.71,9.66-8.67,25.83,4.89,29.75,5.78,1.67,13.22,1.6,17.11-3.63a33.34,33.34,0,0,0,4.38-9.5,33.63,33.63,0,0,0-2.43-6.35,1.53,1.53,0,0,1-.52-1.08c0-.62-.08-1.46,4.89-5.6l.74-.62,2.19,1.2,9-5.51L209,259a8.81,8.81,0,0,1,3.7-.06c3.33-2.22,10.69-6.89,11-7.1l.62-.4,2.67,1.11.11,0c1.54,5.17.33,11,5.8,14.77,4.48,3,12.94,3.29,16.73-1.14,1.94-2.27,1-4.69,1.19-7.44.36-4.71,4-7.58,3.84-12.37-.15-6.19,2.75-12,3-18.09l8.4,1.75a3.64,3.64,0,0,0,1-.72l-.05-.17a47.5,47.5,0,0,0,8,1.67c3.29.34,6.07-.8,8.81-2.19a1.22,1.22,0,0,0,1.72-.26,12.51,12.51,0,0,1,1.22-1.27c.94-.48,1.89-.95,2.88-1.35a1.56,1.56,0,0,0,1-1.39c2.41-1.43,4.94-2.72,6.88-4.83,3.68-4,6.5-8.57,10.53-12.31a59.6,59.6,0,0,1,30.34-14.84c1.33-.23,1.38-2.12.36-2.74A20.82,20.82,0,0,1,330,179.25l.35.38a1.51,1.51,0,0,0,2.51-1.46,15.26,15.26,0,0,1-.55-5.18c.08-1.42-1.64-1.81-2.56-1.06a3.43,3.43,0,0,1-1.85.75,1.58,1.58,0,0,0-1.06-.08,3.18,3.18,0,0,1-1.85-1.18c-3.21-4.22,2.34-5.85,4.55-7l12.81-6.69A1.52,1.52,0,0,0,343,156,28,28,0,0,0,334.67,142.77Z"/><path class="cls-2" d="M172.32,281.72a25.17,25.17,0,0,1-6.91-1c-12.52-3.62-9.39-16.52-7.1-25.94.47-2,.92-3.8,1.21-5.43a.82.82,0,0,0-.42-.84c-.16-.08-.3-.09-.52.13-1,1-2,2.15-3,3.22a53.15,53.15,0,0,1-8,7.68c-5.84,4.19-11.9,2.72-17.76,1.29-10.12-2.46-18.59-2.68-26.63-.69a46.06,46.06,0,0,0-5.64,1.93,41.44,41.44,0,0,1-7,2.27,64.6,64.6,0,0,1-6.91.85c-1.53.13-3.11.27-4.64.48-4.9.68-8.36,2.28-10.57,4.88a1.42,1.42,0,0,1-.35.3l-.86.51c-6,3.63-12.3,7.38-20.1,4.44-6.15-2.32-13.62-5.57-16.92-10.23a.85.85,0,0,0-.58-.38.5.5,0,0,0-.42.17C26.39,268,17,276.47,9.77,274.27a1.42,1.42,0,0,1-1-1.54c.16-1.16-.25-1.93-1.23-3.23l-.12-.16a4.1,4.1,0,0,1-.95-2.24,4.32,4.32,0,0,0-.29-1.17A2.12,2.12,0,0,1,6,265a2.07,2.07,0,0,0-.52-1.46,1.42,1.42,0,0,1,.7-2.22c1.6-.5,3.53-1.14,4.62-1.5h0c.1-.11,10.28-11.87,14.06-15.8a1.42,1.42,0,0,1,1.73-.24c4.56,2.64,12.3,6.65,13.64,6.76.44,0,1.31,0,1.48-.33.07-.13,0-.32-.14-.56a1.4,1.4,0,0,1-.17-.34,8.67,8.67,0,0,1-.25-1.26,8.61,8.61,0,0,0-1.36-4c-.82-1.05-5.39-4.81-11.94-9.82a1.42,1.42,0,0,1-.31-1.93,57.83,57.83,0,0,1,3.88-5.21,1.42,1.42,0,0,1,1.19-.43,3,3,0,0,0,2.43-.67c1.25-1,3-4.26,3.84-5.85l.18-.34c.28-.52.81-1.34,1.37-2.21,1.2-1.86,2.45-3.78,2.24-4.19a30.27,30.27,0,0,1-.94-3.08,1.42,1.42,0,0,1,.35-1.35,7.83,7.83,0,0,1,.59-.56,1.41,1.41,0,0,1,1.33-.26c.65.2,2.12-.54,3.42-1.2l.5-.25c1.19-1.51.75-4.57.32-7.53l-.07-.5a1.42,1.42,0,0,1,1.6-1.6l1.46.19a26.53,26.53,0,0,1,3,.47c1.12.34,4.65-.32,5.37-1.34h0c0-.29.09-2.84,0-19.27a1.42,1.42,0,0,1,.4-1,33.77,33.77,0,0,0,5.17-7.07,23.84,23.84,0,0,0,3.2-8.56v-.1c.2-2.67,2.29-6.09,3.51-7.89a1.42,1.42,0,0,1,2.19-.19l15.74,16.32c.19.2,4.57,4.79,5,6.39l0,.11c.17.83,1.35,2,2.89,3.45a11.11,11.11,0,0,1,1.9,2l.06.11a19.18,19.18,0,0,0,6.19,6.5,1.45,1.45,0,0,1,0-.18c.23-2.22,6.06-8,8-9.64l.21-.14a4.64,4.64,0,0,0,2.5-2.93,5.9,5.9,0,0,0-.85-4.25c-.06-.09-7.05-10.41-9.89-17s4.56-11.84,8.09-14.34a8.52,8.52,0,0,0,1.71-1.36h0a22.86,22.86,0,0,1,1.06-3.55c.19-.56.41-1.18.64-1.87a1.42,1.42,0,0,1,2.34-.56c2.3,2.29,6.91,7,10.45,10.66a1.42,1.42,0,0,1,.4.9l.48,7.94,12.6-.2a1.33,1.33,0,0,1,1,.42c5.54,5.61,7.84,7.88,8.14,8.14a22.64,22.64,0,0,0,5.27,1.85c1.23-.2,8.65-4.61,10.51-6.29,1.57-1.42,6.57-7.55,9.74-11.52a2.65,2.65,0,0,1-.53-1.11c0-.09-.06-.3-.46-.54-2.46-1.48-10.4-.15-13,.6a13.38,13.38,0,0,0-2.35,1.14c-2.1,1.17-4.71,2.62-7.18,1.55-2.89-1.25-4.4-5.74-4.92-7.6-.92-3.35-1.31-7.75.36-10.08a4.37,4.37,0,0,1,2.31-1.54l.42-.16c.5-.2,1-.38,1.49-.56s1-.35,1.41-.53l1.82-1.14a3.18,3.18,0,0,0,.69-2.45c-.06-1.61-.46-1.89-1.66-2.71a16.36,16.36,0,0,1-1.76-1.33,10.64,10.64,0,0,1-2.86-3.7,9.31,9.31,0,0,1,.22-8.28,10.56,10.56,0,0,1,7.42-5.34,2.94,2.94,0,0,1,2,.33l1.36-.46c4.34-1.49,7.78-2.47,9.28-.56l.1.12c.32.31.7.72,1.1,1.14a21.84,21.84,0,0,0,7.91,5.94c4.71,1.88,11.82,2.62,16.48,2.68,4.06.32,8.61,3.57,9.51,4.56a1.4,1.4,0,0,1,.19.27l.18.32a1.42,1.42,0,0,1,1.09,2.1c-3.68,6.6-5.55,10.83-.8,14.53.2.16.66.39.93.14a1.42,1.42,0,0,1,1.78-.14,13.59,13.59,0,0,0,3.47,1.56c.21.07.27,0,.33,0a1.06,1.06,0,0,0,.29-.89,27.94,27.94,0,0,1-.3-4.46,1.42,1.42,0,0,1,.68-1.18c1.38-.84,3.14-.71,4.7-.58a10.37,10.37,0,0,0,1.65.05,13.19,13.19,0,0,0,4.54-1.48,15.07,15.07,0,0,0,2-1.21,1.41,1.41,0,0,1,.44-.21,14.16,14.16,0,0,0,2.59-1,1.42,1.42,0,0,1,.5-.15l1.79-.18c3.58-1.48,6.43-3.08,7.08-4,.45-.62,2.3-4.43,4.44-8.83,3.75-7.73,7-14.26,8.08-15.72,2.06-2.68,15-13.79,18.57-15.68,1.16-.62,3.25-1.93,5.67-3.46,2.16-1.36,4.85-3.06,7.42-4.58a1.42,1.42,0,0,1,2.13,1,79,79,0,0,1,.55,13.68c-.33,7.85-1.38,15.71-6.85,20-.1.08-.12.11-.08.26a1,1,0,0,0,.7.63c7.95.48,7.74,10.28,7.62,16.14,0,.61,0,1.19,0,1.71a.8.8,0,0,0,.45.57c.19.09.26,0,.29,0a24.29,24.29,0,0,1,3.41-2.06l1.27-.69a1.42,1.42,0,0,1,1.89.48c.33.52.69,1,1.06,1.53a19,19,0,0,1,1.94,3.09.74.74,0,0,0,.52.17c3.58-1.21,7.29-2.08,10.88-2.91,5.95-1.39,11.57-2.7,16.79-5.45l.22-.09c4.21-1.39,9.06-2.62,13.17.36,4.47,3.24,4.79,9.36,2.81,13.74a18.85,18.85,0,0,1-4.16,5.64,29.83,29.83,0,0,1-2.48,2.06,29.67,29.67,0,0,0-3,2.56,3.1,3.1,0,0,1,1.68.77h0a29.19,29.19,0,0,1,8.74,13.91A2.94,2.94,0,0,1,343,159l-12.81,6.69c-.32.17-.71.35-1.14.54-1.33.61-3.34,1.53-3.6,2.58a2.27,2.27,0,0,0,.66,1.77,1.74,1.74,0,0,0,.8.59,3,3,0,0,1,1.12.08,2,2,0,0,0,.82-.39,3.17,3.17,0,0,1,3.4-.36,2.67,2.67,0,0,1,1.47,2.6,13.78,13.78,0,0,0,.5,4.72,2.92,2.92,0,0,1-1.44,3.32l-.27.13a19.8,19.8,0,0,0,7,7.12,3,3,0,0,1,1.34,3.15,2.67,2.67,0,0,1-2.19,2.2A53.73,53.73,0,0,0,303,215.18c-1.37,1.75-2.79,3.55-4.35,5.25a24.83,24.83,0,0,1-6.13,4.46l-.54.31a2.94,2.94,0,0,1-1.72,1.8c-.94.38-1.86.83-2.58,1.2a10.9,10.9,0,0,0-.94,1,2.63,2.63,0,0,1-2.77.93,16.12,16.12,0,0,1-9,2,46.35,46.35,0,0,1-7.29-1.46,6.66,6.66,0,0,1-.86.53,1.42,1.42,0,0,1-.94.13L259,230a53.65,53.65,0,0,1-1.4,6.93,35.52,35.52,0,0,0-1.48,9.41c.07,2.89-1,5.09-2.05,7.21a14.43,14.43,0,0,0-1.79,5.3,17.19,17.19,0,0,0,0,2.15c.09,1.91.2,4.07-1.55,6.11-4.28,5-13.51,4.86-18.6,1.39-4.41-3-5-7.33-5.53-11.15a36.22,36.22,0,0,0-.63-3.66L224.5,253c-1.33.84-7.92,5-11,7.09a1.41,1.41,0,0,1-1.16.19,7.33,7.33,0,0,0-3.08.08,1.42,1.42,0,0,1-1.39-.56l-7.1-9.69L192.92,255a1.42,1.42,0,0,1-1.43,0l-1.34-.74c-4,3.3-4.35,4.22-4.39,4.37a2.94,2.94,0,0,1,.28.42,33.78,33.78,0,0,1,2.66,6.91,1.42,1.42,0,0,1-.05.69,34.74,34.74,0,0,1-4.59,9.9C181.24,280.34,176.79,281.71,172.32,281.72Zm-13.41-36.1a3.24,3.24,0,0,1,1.48.37,3.65,3.65,0,0,1,1.91,3.86c-.3,1.72-.76,3.61-1.25,5.6-2.71,11.15-4,19.89,5.14,22.54,5.28,1.53,12.14,1.51,15.58-3.12a30.82,30.82,0,0,0,4-8.73,39,39,0,0,0-2.07-5.37,2.94,2.94,0,0,1-.82-1.9c-.07-1.31.27-2.49,5.4-6.77l.74-.62a1.42,1.42,0,0,1,1.59-.15l1.47.81L200.4,247a1.42,1.42,0,0,1,1.89.37l7.36,10.05a10.12,10.12,0,0,1,2.77,0c3.26-2.15,9.29-6,10.52-6.77l.66-.42a1.41,1.41,0,0,1,1.31-.11l2.33,1a1.42,1.42,0,0,1,1.26,1,32.14,32.14,0,0,1,.92,4.81c.51,3.7,1,6.9,4.32,9.19,4,2.73,11.65,2.86,14.86-.89,1-1.13,1-2.25.87-4.13a19.43,19.43,0,0,1,0-2.5,16.86,16.86,0,0,1,2.08-6.33c.93-1.9,1.82-3.7,1.76-5.9a38.21,38.21,0,0,1,1.56-10.16,40.83,40.83,0,0,0,1.45-8,1.42,1.42,0,0,1,1.71-1.33l7.81,1.63a1.42,1.42,0,0,1,1.66-.74,46.84,46.84,0,0,0,7.73,1.62c2.76.29,5.21-.61,8-2a1.42,1.42,0,0,1,1.33,0,14.42,14.42,0,0,1,1.29-1.34,1.42,1.42,0,0,1,.31-.22c.8-.41,1.87-.95,3-1.4.05,0,.1,0,.11-.17a1.42,1.42,0,0,1,.69-1.13l1.09-.64a22.35,22.35,0,0,0,5.47-3.93c1.49-1.61,2.87-3.38,4.21-5.08a56.54,56.54,0,0,1,37.35-22.49.29.29,0,0,0,0-.16,22.26,22.26,0,0,1-9.39-11,1.42,1.42,0,0,1,2.36-1.47l.35.38s.09-.08.1-.13a16.54,16.54,0,0,1-.61-5.58.38.38,0,0,0-.25.05,4.81,4.81,0,0,1-2.62,1.06,1.42,1.42,0,0,1-.74-.13l-.11,0a1.39,1.39,0,0,1-.66,0,4.58,4.58,0,0,1-2.66-1.71,4.86,4.86,0,0,1-1.15-4.17c.6-2.38,3.24-3.59,5.17-4.47.37-.17.72-.33,1-.48l12.81-6.69s0,0,0-.06a26.43,26.43,0,0,0-7.91-12.58h0a.32.32,0,0,0-.13-.07,9.11,9.11,0,0,1-2.33,1.25,1.42,1.42,0,0,1-1.88-1.57c.53-3.17,3.35-5.36,5.83-7.29a27.91,27.91,0,0,0,2.24-1.85,16.09,16.09,0,0,0,3.56-4.78c1.51-3.33,1.35-7.93-1.89-10.27-3-2.17-6.83-1.2-10.51,0-5.51,2.88-11.54,4.29-17.36,5.65-3.53.82-7.17,1.67-10.62,2.84a3.41,3.41,0,0,1-4-1.67,16.6,16.6,0,0,0-1.67-2.63l-.41-.58-.19.1a21.77,21.77,0,0,0-3,1.81,3.05,3.05,0,0,1-3.27.26,3.6,3.6,0,0,1-2-3.12c0-.54,0-1.13,0-1.76.14-6.54-.13-13-5-13.25a3.78,3.78,0,0,1-3.23-2.61,3,3,0,0,1,1-3.33c4.56-3.59,5.47-10.73,5.77-17.9a78.87,78.87,0,0,0-.28-11c-1.94,1.18-3.86,2.39-5.48,3.41-2.47,1.56-4.6,2.9-5.86,3.57-3.17,1.68-15.81,12.51-17.65,14.91-1,1.35-5.26,10-7.78,15.23-3,6.25-4.15,8.51-4.7,9.26-1.36,1.88-5.78,3.9-8.29,4.94l-.19.08a1.43,1.43,0,0,1-.4.1l-1.75.17a17,17,0,0,1-2.63,1,17.33,17.33,0,0,1-2.12,1.29,15.89,15.89,0,0,1-5.51,1.77,12.05,12.05,0,0,1-2.18,0,11.87,11.87,0,0,0-2.32,0,26.56,26.56,0,0,0,.27,3,3.87,3.87,0,0,1-1.27,3.46,3.11,3.11,0,0,1-3,.55,19.13,19.13,0,0,1-3.38-1.42,3.63,3.63,0,0,1-3.64-.6c-6.5-5.06-3.62-11.44-.67-16.83l-.45-.81c-.83-.77-4.54-3.31-7.44-3.54-5-.06-12.34-.85-17.4-2.88a24.13,24.13,0,0,1-8.88-6.59c-.42-.44-.78-.83-1.15-1.19l-.2-.23h0c-1-.38-4.74.92-6.18,1.42-.76.26-1.48.51-2.16.72a1.42,1.42,0,0,1-1.5-.44s-.06-.05-.12,0a7.71,7.71,0,0,0-5.43,3.87,6.53,6.53,0,0,0-.14,5.8,8,8,0,0,0,2.15,2.73,13.87,13.87,0,0,0,1.48,1.11,5.38,5.38,0,0,1,2.9,5,5.92,5.92,0,0,1-1.62,4.67,1.4,1.4,0,0,1-.25.2l-2.07,1.29-.19.1c-.52.22-1.08.42-1.66.63s-.92.33-1.39.52l-.52.19c-.58.21-.81.31-1,.53-.73,1-.94,4,.07,7.67.93,3.37,2.37,5.35,3.31,5.76,1.19.51,3-.52,4.68-1.43a15,15,0,0,1,2.94-1.38c.11,0,11-2.87,15.26-.31a3.65,3.65,0,0,1,1.77,2.38s0,0,.11,0a1.42,1.42,0,0,1,.83,2.26l-.26.33c-1.42,1.79-8.55,10.74-10.75,12.73-1.6,1.44-10.19,7-12.42,7a21.2,21.2,0,0,1-7-2.48c-.15-.12-.61-.49-8-7.92l-13.35.21h0a1.42,1.42,0,0,1-1.41-1.33l-.53-8.77c-2.77-2.85-6.09-6.26-8.45-8.64a20.39,20.39,0,0,0-.84,2.76l0,.28a1.41,1.41,0,0,1-.18.51l-.14.24a8,8,0,0,1-2.52,2.25c-6.41,4.53-8.47,7.69-7.11,10.91,2.73,6.34,9.57,16.43,9.63,16.53a8.61,8.61,0,0,1,1.25,6.52,7.37,7.37,0,0,1-3.76,4.65c-2.59,2.14-6.41,6.48-6.9,7.65l.12,2.37a1.42,1.42,0,0,1-2.13,1.29l-2.25-1.32a22.13,22.13,0,0,1-7.3-7.68c-.17-.19-1-1-1.37-1.33-2-1.88-3.34-3.24-3.71-4.86a38.07,38.07,0,0,0-4.34-5.19l-14.5-15a13.55,13.55,0,0,0-2.09,5.13l0,.28a26.59,26.59,0,0,1-3.49,9.41,36.88,36.88,0,0,1-5.23,7.28c.1,18.34,0,18.91,0,19.19l-.05.32a1.42,1.42,0,0,1-.24.58L62,198c-1.63,2.33-6.63,3-8.5,2.43-.26-.07-1.39-.22-2.16-.32.42,3.11.61,6.19-1.09,8.34l-.2.25a1.42,1.42,0,0,1-.48.39l-.77.39A13.09,13.09,0,0,1,44.9,211c.19.67.33,1.1.38,1.21.91,1.81-.14,3.42-2.42,7-.51.78-1,1.59-1.25,2l-.18.34c-1.46,2.75-3,5.53-4.62,6.76a5.77,5.77,0,0,1-3.71,1.29c-.58.71-1.46,1.9-2.42,3.27,4.75,3.66,10.19,8,11.38,9.51a11.19,11.19,0,0,1,1.92,5.3c0,.22.07.5.11.69a3.26,3.26,0,0,1,.17,3.22c-1,1.87-3.11,1.87-4,1.87-2.18,0-11.08-4.91-14.06-6.59C22,251.28,13.08,261.59,13,261.7l-.26.3a1.42,1.42,0,0,1-.62.42l-.37.12-3.06,1a5.18,5.18,0,0,1,.2,1.47,7.2,7.2,0,0,1,.41,1.7,1.45,1.45,0,0,0,.41.93l.12.16a7.56,7.56,0,0,1,1.81,4c4.54.47,11.06-4.11,15.5-8.43a3.32,3.32,0,0,1,2.65-1,3.66,3.66,0,0,1,2.63,1.56c2.89,4.08,10.29,7.21,15.61,9.21,6.51,2.45,11.92-.79,17.64-4.22l.67-.4c2.68-3,6.67-4.9,12.19-5.67,1.6-.22,3.22-.36,4.79-.5a62.73,62.73,0,0,0,6.61-.81,38.76,38.76,0,0,0,6.56-2.13,48.92,48.92,0,0,1,6-2c8.51-2.11,17.4-1.89,28,.69,5.72,1.39,10.66,2.6,15.44-.84a51,51,0,0,0,7.6-7.29c1-1.09,2-2.22,3.07-3.29A3.28,3.28,0,0,1,158.91,245.61Z"/></svg>