<svg id="Layer_2" data-name="Layer 2" xmlns="http://www.w3.org/2000/svg" viewBox="0 0 350 350"><defs><style>.cls-1{fill:#999;}.cls-2{fill:#f90;}</style></defs><title>M_</title><path class="cls-1" d="M313.78,48.82A23.87,23.87,0,0,0,309,47L308.7,47a1.52,1.52,0,0,0-1.89-1.35,16.57,16.57,0,0,0-2.53.94,12.92,12.92,0,0,0-2,.23,22.64,22.64,0,0,0-2.56-2.37v0c-.2-.11-1-.71-1.7-1.2l-.42-.31-2,0a19,19,0,0,0-4.15,2.24,17.11,17.11,0,0,0-2.1,6,2,2,0,0,1-2.46,1.4,6.33,6.33,0,0,1-3.5-3,11.63,11.63,0,0,0-.55,3.54,71.75,71.75,0,0,1-7.77-1.8,1.76,1.76,0,0,0-1.35.17c-.23.13-.75.42-1.28,1.73l-13.89-.79a12.41,12.41,0,0,0-2.73-2.16,17.6,17.6,0,0,0-4.23-1.16l-.55-.11A24.2,24.2,0,0,0,247,44a1.51,1.51,0,0,0-.44-.29l.13-2.71c-3.28-5.82-9.28-8.63-14.65-12.22l-1.14-.09c-4.12-.32-4.28-.33-4.88.22l-.5.47v.46c-.16.46-.68,1.73-1.16,2.88a37.61,37.61,0,0,0-3.2,3.29c2.09,1.33.11,4.68-2.1,3.4l-.17-.09c-.08.16-.15.32-.21.48A15.37,15.37,0,0,0,218,42a7.08,7.08,0,0,0-3.29-.19,21.65,21.65,0,0,0-3.49.83l-.15-.24c-6.89,4.94-17.6.69-25.71-3-1.66-.75-1.12-2.68.15-3.38l-.15-.07-.2-.12-.52.76A31.44,31.44,0,0,0,178,34.12a1.59,1.59,0,0,0-1.22.23,145.42,145.42,0,0,0-1.16-19.88c-.2-1.53-2.53-2.2-2.95-.4a3.19,3.19,0,0,1-.54,1.13,2.47,2.47,0,0,0-.68-.68l.5-.3-2.16-2c-.64.41-1.27.83-1.91,1.24a14,14,0,0,0-2.78,0,1.82,1.82,0,0,0-.76-.27c-4.45-.49-9.83.08-12.72,4-1.83,2.46-2,5.63-2.42,8.57L149,27q-4.47,3.5-8.82,7.15a34.45,34.45,0,0,0-29.9-10.69c-4.75.71-7.93,2.77-6.76,7.95,2,8.69,4,16.61,3.11,25.65A61.37,61.37,0,0,1,104,70.17c-.89,2.76-3.1,6.15-2.31,9.19,1.19,4.64,6.92,4.39,10.68,4.3A21.28,21.28,0,0,1,124,86.44a20.55,20.55,0,0,1,4.79,3.89c2.3,2.55,2.06,4.86,1.78,8A119.78,119.78,0,0,1,124.51,127c-1.39,4-3.26,9.48-7.4,11.5-5.63,2.76-10.76-2.35-14.31-6.06-4.13-4.31-9.14-9.08-15.26-8.4.34-3.55-1.91-6.6-4.93-9.09-5.91-4.87-13.51-8.22-20.12-12a1.52,1.52,0,0,0-2.2.9l-8,22.19c-1.33,3.69-2.83,7.36-4,11.1-.67,2.15-1.42,4.44-.38,6.63,1.83,3.86,6.64,3.46,10.11,4.61,5.72,1.91,10,6.88,12,12.43a19.74,19.74,0,0,1-.65,15.94c-1.44,2.77-4.89,6.52-1.92,9.56,1.59,1.63,4.15,1.37,6.17,1.81a19.61,19.61,0,0,1,8.87,4.53,20.87,20.87,0,0,1,7.11,17.75,1.25,1.25,0,0,0,.35,1.06c0,.08,0,.17.05.25a1.56,1.56,0,0,0-2.35.78c-3.35,10-7.12,21.15-16.65,26.91-4.58,2.77-9,3.12-14.16,2.53-3.72-.42-7.17-.52-10.46,1.51-5.67,3.49-17.76,25.4-6,27.18,4.83.73,8.46,1.18,12,5a20.2,20.2,0,0,1,5.23,13.24c.17,10.45-6.68,19-13.34,26.33-4.28,4.68-8.73,10.55-6.09,17.19,2.37,6,7.38,6.44,12.64,4.17,5.64-2.43,10.77-4.32,17.05-4.16a35.88,35.88,0,0,1,9.63,1.6l.05,0A11.52,11.52,0,0,0,92.05,333a1.28,1.28,0,0,0,.28-.37,9.69,9.69,0,0,0,3.89-1c4.74-2.35,5.34-7.7,5.2-12.44-.11-3.46-.74-7.26,1.08-10.45,2.85-5,6.3-1.68,10.22-.45,6.4,2,8.72-6.76,11-11,4.38-8.26,9.23-16.42,13.15-24.91a17,17,0,0,0,1.9-8.59c-.32-3.7-2.9-6.93-2.41-10.68.83-6.34,9.76-4.38,13.32-8.89,3.75-4.76-.77-9.69-.49-14.75.41-7.57,14.44-5.08,19.38-8.55a13.83,13.83,0,0,0,5.6-13.27,59.58,59.58,0,0,1,22.11,4.11,1.51,1.51,0,0,0,1.9-1.45,38.56,38.56,0,0,1,2-12.6,40.68,40.68,0,0,0,5.54-2.93c1.3-.86,3.94-2.89,6-4.51a9,9,0,0,0,6.21,7.69c4.47,1.57,9-.23,13-2.44.91.45,1.85.93,2.74,1.39l5,3.53.87.6.88-.58a4.55,4.55,0,0,1,4.4-.21l.23.12,1.93.29v1.73l1.56,0a15.24,15.24,0,0,1,4.26.53,10.71,10.71,0,0,0,5,.33,68.49,68.49,0,0,0,9.87-1.36l3.37-.44.26-.15a8.21,8.21,0,0,0,2.17-1.72,40.88,40.88,0,0,1,3.72-2.84l1.46-1-7.13-7.54a15.53,15.53,0,0,1,1.16-3,15.94,15.94,0,0,1,3.54-2.67l0,0-.67,1.45.47.72a9.22,9.22,0,0,0,3.32,3,3.64,3.64,0,0,0,3.7-.09,1.66,1.66,0,0,1,.25-.13l.05,0A82.91,82.91,0,0,1,286,170.89c-7.86-7.53-16-15.69-17-27-.13-1.41,1.37-2.13,2.53-1.93a32.62,32.62,0,0,0,7.89.13,14.51,14.51,0,0,1-.91-1.76l1.47.47a1.51,1.51,0,0,0,1.9-1.45l.15-6.87c4.39.64,7.21-3.68,8.69-7.78,3-5,3.44-11.74,4.29-17.66A107.67,107.67,0,0,0,296.3,90c-.09-5.61-.24-11.23,1.82-16.56,2.2-5.68,5.23-10.86,7.85-16.14a46.07,46.07,0,0,0,8.12-6.15A1.51,1.51,0,0,0,313.78,48.82ZM215.45,193a5.32,5.32,0,0,0,2.46-.16c.35.07.7.14,1.06.18a1.14,1.14,0,0,0,.34.46,13.48,13.48,0,0,0,3,1.82C219.46,195.76,216.77,195.34,215.45,193ZM279,137.35l-1.08-.34a5.36,5.36,0,0,1,.49-2A5.52,5.52,0,0,1,279,134Z"/><path class="cls-2" d="M45.55,339.18a9,9,0,0,1-3.48-.66,9.55,9.55,0,0,1-5.12-5.65c-2.86-7.19,1.61-13.47,6.36-18.67,6.36-7,13.13-15.23,13-25.35a18.85,18.85,0,0,0-4.86-12.31c-3.09-3.36-6.13-3.82-10.74-4.51l-.41-.06a6.62,6.62,0,0,1-6-5.49c-1.61-7.93,6.88-21.51,11.43-24.31,3.78-2.33,7.69-2.12,11.36-1.71,5.64.63,9.48,0,13.27-2.34,9.12-5.52,12.79-16.48,16-26.15a2.85,2.85,0,0,1,1.76-1.82l.13,0a19.43,19.43,0,0,0-6.64-16.46,18.12,18.12,0,0,0-8.23-4.21c-.49-.1-1-.17-1.61-.23-1.77-.2-3.77-.42-5.28-2-3.18-3.26-.81-7.09.75-9.62.35-.57.68-1.1.93-1.58a18.4,18.4,0,0,0,.57-14.79c-2.06-5.6-6.22-9.93-11.14-11.57a22.88,22.88,0,0,0-2.87-.67c-3-.57-6.43-1.23-8.07-4.68-1.25-2.64-.45-5.23.27-7.51l0-.15c.79-2.54,1.74-5.06,2.66-7.5.46-1.22.92-2.44,1.35-3.65l8-22.19a3.07,3.07,0,0,1,1.82-1.87,2.82,2.82,0,0,1,2.42.22c1.91,1.1,4,2.2,5.94,3.26,5,2.65,10.08,5.39,14.38,8.92,3.36,2.77,5.18,5.69,5.44,8.7,5.93.11,10.75,4.61,14.86,8.9,3.95,4.12,8.18,8,12.67,5.77,3.6-1.76,5.37-6.9,6.67-10.66a118.27,118.27,0,0,0,6-28.32l0-.17c.26-3,.41-4.75-1.44-6.8a19.16,19.16,0,0,0-4.46-3.62,19.81,19.81,0,0,0-10.93-2.59h-.23c-3.89.1-10.4.27-11.85-5.37-.69-2.69.45-5.38,1.46-7.76.34-.79.66-1.54.88-2.22a60.15,60.15,0,0,0,2.64-12.85c.77-8.2-.9-15.6-2.68-23.44l-.4-1.77a7.51,7.51,0,0,1,.82-6.09c1.28-1.88,3.61-3,7.11-3.57a35.68,35.68,0,0,1,30.21,10.16c2.29-1.91,4.73-3.88,7.4-6l.22-1.7c.33-2.69.71-5.73,2.56-8.21,3.63-4.88,10.34-4.94,14-4.53a3.15,3.15,0,0,1,.89.24,15.33,15.33,0,0,1,2.13,0l.32-.21L169,11l.92-.58L172,12.36a2.61,2.61,0,0,1,2-.79,3.17,3.17,0,0,1,3,2.72,147.44,147.44,0,0,1,1.18,18.42l.12,0a30.11,30.11,0,0,1,5.86,2.1l.6-.87,1.36.82L188.65,36l-2.42,1.33a.87.87,0,0,0-.46.67s0,.09.21.18c9.12,4.13,18.38,7.37,24.3,3.13l1.28-.92.36.63a21,21,0,0,1,2.62-.56,9.86,9.86,0,0,1,2.46-.07c.11-.38.24-.73.37-1.06s.16-.38.25-.57l.66-1.37,1.5.86c.11.06.44.25.73-.23a.5.5,0,0,0-.11-.75L219,36.37l1.05-1.24a39.07,39.07,0,0,1,3.09-3.21c.4-1,.75-1.83.93-2.3V28.8l1-.89c1.06-1,1.52-.94,5.94-.59l1.52.12.31.21c1.06.71,2.14,1.38,3.22,2.06,4.46,2.79,9.07,5.67,11.88,10.65l.2.36L248,43a25.69,25.69,0,0,1,3.92,4.68A17.56,17.56,0,0,1,256.51,49a13.06,13.06,0,0,1,2.67,2l12.41.71A3.72,3.72,0,0,1,273,50.25a3.17,3.17,0,0,1,2.44-.29c1.79.51,4.26,1.13,6.07,1.5a11.37,11.37,0,0,1,.52-2.33l1-3.06,1.54,2.84a5,5,0,0,0,2.77,2.38.81.81,0,0,0,.55-.34,18,18,0,0,1,2.3-6.54l.11-.17.16-.14a13.1,13.1,0,0,1,3.32-1.92c.37-.17.75-.34,1.12-.52l.29-.14,2.84-.05.81.6c.76.56,1.44,1,1.57,1.12l1.16.7-.09.18q.54.49,1.27,1.21c.37-.05.75-.09,1.12-.11a17.65,17.65,0,0,1,2.49-.9,3,3,0,0,1,2.53.49,2.9,2.9,0,0,1,.89,1.08,25.53,25.53,0,0,1,4.55,1.73h0a2.78,2.78,0,0,1,1.49,2.09,2.91,2.91,0,0,1-.84,2.56,47.69,47.69,0,0,1-8,6.12c-.73,1.47-1.5,2.93-2.27,4.4A110.54,110.54,0,0,0,299.43,74c-1.9,4.92-1.82,10.09-1.73,15.56V90a108.78,108.78,0,0,1-1.27,17.29c-.13.9-.25,1.82-.37,2.75-.69,5.33-1.41,10.85-4,15.32-1.94,5.3-5,8.35-8.59,8.63l-.12,5.44a3,3,0,0,1-1.29,2.38,2.88,2.88,0,0,1-.88.42l.7,1.17-2.31.15a34,34,0,0,1-8.24-.14,1,1,0,0,0-.79.2.2.2,0,0,0-.08.2c1,11.14,9.63,19.41,16.57,26.06l.62.59-.23.82a81.1,81.1,0,0,0-2.67,16.3l-.07,1-1,.32a5,5,0,0,1-5,.12,10.57,10.57,0,0,1-3.9-3.52l-.15-.23a6,6,0,0,0-.85.72,11.4,11.4,0,0,0-.74,1.87l7.69,8.13-2.81,2c-1.73,1.21-3.17,2.33-3.46,2.61a9.64,9.64,0,0,1-2.54,2l-.5.28-3.55.46a68.94,68.94,0,0,1-10,1.38,11.93,11.93,0,0,1-5.7-.42,13.67,13.67,0,0,0-3.74-.42l-3,0v-1.94l-1-.14-.44-.23a3.11,3.11,0,0,0-3,.14l-1.67,1.1-1.66-1.14-4.93-3.48-2-1c-3.75,2-8.55,3.91-13.46,2.18a10.39,10.39,0,0,1-6.64-6.53c-1.64,1.26-3.35,2.55-4.32,3.2a40.25,40.25,0,0,1-5.17,2.79,37.26,37.26,0,0,0-1.69,11.55,3,3,0,0,1-1.32,2.45,2.67,2.67,0,0,1-2.51.33,57.66,57.66,0,0,0-20.06-4,15.13,15.13,0,0,1-6.33,13c-2.14,1.51-5.41,2-8.86,2.49-5.88.86-9.74,1.67-9.92,5a15.4,15.4,0,0,0,.94,5.08c1,3.23,2.06,6.89-.75,10.47-1.81,2.29-4.67,3.14-7.2,3.89-3.39,1-5.48,1.75-5.82,4.31-.24,1.8.41,3.57,1.1,5.45a19.05,19.05,0,0,1,1.31,4.93,18.68,18.68,0,0,1-2,9.31c-2.69,5.84-5.86,11.59-8.92,17.15-1.41,2.56-2.87,5.22-4.26,7.83-.39.73-.79,1.63-1.22,2.59-2,4.45-5,11.16-11.45,9.14a25.14,25.14,0,0,1-2.69-1.07c-3.19-1.42-4.36-1.77-5.87.87-1.29,2.27-1.14,5-1,7.85,0,.63.07,1.24.09,1.85.14,4.56-.32,10.94-6,13.75a10.76,10.76,0,0,1-3.8,1.05l-.07.06a13,13,0,0,1-16,1.16,34.64,34.64,0,0,0-9.09-1.49c-6.17-.16-11.31,1.82-16.46,4A15.11,15.11,0,0,1,45.55,339.18ZM53.22,243a10.91,10.91,0,0,0-6,1.54c-3.84,2.36-11.44,14.93-10.14,21.33a3.84,3.84,0,0,0,3.63,3.25l.41.06c4.64.7,8.65,1.3,12.41,5.4A21.72,21.72,0,0,1,59.1,288.8c.17,10.63-6.48,19.41-13.71,27.31-4.37,4.78-8.1,10-5.82,15.71a6.85,6.85,0,0,0,3.58,4.08c2.35,1,5.21.16,7.19-.69,5.45-2.35,10.92-4.44,17.65-4.27a37.48,37.48,0,0,1,10,1.66l.22.07.24.15A10,10,0,0,0,91.11,332l.38-.71h.77a8.19,8.19,0,0,0,3.34-.81c3.24-1.6,4.6-5,4.41-11.12,0-.59-.05-1.18-.09-1.78-.17-3-.36-6.41,1.35-9.41,2.85-5,6.68-3.31,9.48-2.06a23,23,0,0,0,2.39,1c3.76,1.18,5.69-2.4,8-7.59.45-1,.87-1.94,1.3-2.76,1.4-2.63,2.86-5.29,4.28-7.87,3-5.52,6.18-11.22,8.83-17a15.32,15.32,0,0,0,1.78-7.87,16.66,16.66,0,0,0-1.15-4.2c-.78-2.11-1.58-4.3-1.25-6.79.59-4.53,4.44-5.66,7.83-6.66,2.33-.69,4.53-1.34,5.78-2.92,1.81-2.3,1.28-4.5.26-7.9a17.72,17.72,0,0,1-1.06-6c.32-5.87,6.71-6.81,12.34-7.63,3-.44,6.05-.89,7.64-2a12.4,12.4,0,0,0,5-11.92l-.22-1.6h1.62a62.2,62.2,0,0,1,22.53,4.17.27.27,0,0,0,.07-.1,39.88,39.88,0,0,1,2-13l.2-.6.58-.25a39.1,39.1,0,0,0,5.32-2.81c1-.67,3.06-2.21,5.93-4.45l2-1.57.27,2.53a8.66,8.66,0,0,0,.17,1l2.44.42a3.88,3.88,0,0,0,1.81-.12l.35-.11.36.07c.32.07.64.12,1,.17l.79.11.3.7a12,12,0,0,0,2.64,1.58l4.26,1.84a32.6,32.6,0,0,0,3-1.5l.65-.36.67.33c.92.45,1.87.94,2.77,1.4l.16.1,5.07,3.58.08-.05a5.93,5.93,0,0,1,5.84-.29h0l2.9.44V201h.13a16.12,16.12,0,0,1,4.81.63,9.12,9.12,0,0,0,4.26.24h.12a67.66,67.66,0,0,0,9.61-1.32l.18,0,3.12-.41a6.76,6.76,0,0,0,1.74-1.36,42.42,42.42,0,0,1,4-3.13l.12-.08-6.56-6.94.23-.78a16.81,16.81,0,0,1,1.31-3.36c.6-1,3-2.52,4-3.14l.72-.45,1.84,1.08-.85,1.92,0,.06a7.88,7.88,0,0,0,2.74,2.51,2.22,2.22,0,0,0,2,.14,84.17,84.17,0,0,1,2.48-15.23c-7.17-6.87-15.76-15.41-16.82-27.27a3,3,0,0,1,1-2.54,3.83,3.83,0,0,1,3.21-.91,24.77,24.77,0,0,0,5.4.24L276,138.08l3.36,1.07,1.07.35s0-.09,0-.13l.19-8.47,1.58.23c3.87.56,6.14-4.06,7.16-6.86l.12-.25c2.39-4,3.07-9.26,3.73-14.35.12-.94.24-1.87.37-2.78A104.63,104.63,0,0,0,294.88,90v-.47c-.09-5.5-.18-11.19,1.92-16.62a112.8,112.8,0,0,1,5.48-11.54c.82-1.57,1.64-3.14,2.42-4.72l.19-.37.36-.21a44.86,44.86,0,0,0,7.87-6,.69.69,0,0,1,0-.09,22.29,22.29,0,0,0-4.47-1.63l-.4-.13L307.3,48l0-1s-.07,0-.1,0h0a15.08,15.08,0,0,0-2.3.86l-.26.12h-.28a11.47,11.47,0,0,0-1.74.2l-.75.15-.54-.55A22,22,0,0,0,299,45.6l-1.09-.72,0,0-.69-.5,0,0-1.24,0-.93.43a11.77,11.77,0,0,0-2.48,1.35,15.82,15.82,0,0,0-1.78,5.35,3.28,3.28,0,0,1-1.67,2.21,3.17,3.17,0,0,1-2.7.26,8.73,8.73,0,0,1-2.1-1.15c0,.14,0,.27,0,.39l0,1.57-1.56-.21a72.73,72.73,0,0,1-8-1.85.34.34,0,0,0-.27,0,2.3,2.3,0,0,0-.66,1l-.38.94-15.45-.88-.38-.4a11.09,11.09,0,0,0-2.4-1.91,18.09,18.09,0,0,0-3.83-1l-1.15-.24-.32-.51A22.85,22.85,0,0,0,246,45.07l-.91-.39,0-1,.11-2.29c-2.47-4.14-6.48-6.65-10.71-9.29-1-.62-2-1.25-3-1.9l-.77-.06a33.44,33.44,0,0,0-3.75-.21L227,30l0,0v.09l-.08.23c-.18.52-.73,1.86-1.19,3l-.12.29-.23.21c-.4.36-1.29,1.2-2.26,2.24a3.5,3.5,0,0,1-3.33,5.09c-.11.36-.22.76-.32,1.21l-.35,1.53-1.49-.5a5.71,5.71,0,0,0-2.63-.13,20.07,20.07,0,0,0-3.26.78l-.88.28c-7,4-16.61.68-26-3.57a3,3,0,0,1-1.87-2.65,3.2,3.2,0,0,1,0-.69,27.36,27.36,0,0,0-5.3-1.9.19.19,0,0,0-.13,0L175.34,37l0-2.63a144.76,144.76,0,0,0-1.15-19.69.21.21,0,0,0,0-.1l-.18.11a4.89,4.89,0,0,1-.69,1.36l-1.2,1.69L171,16a1.09,1.09,0,0,0-.3-.29l-1.73-1.19-.69.45-.5-.06a12.62,12.62,0,0,0-2.5,0l-.47,0-.4-.25a.43.43,0,0,0-.16-.06c-3.07-.34-8.64-.34-11.43,3.4-1.4,1.88-1.7,4.3-2,6.87l-.38,2.87-.45.36c-3.22,2.52-6.09,4.85-8.78,7.12l-1,.86-.92-1a32.94,32.94,0,0,0-28.66-10.26c-2.64.4-4.39,1.19-5.2,2.37a4.78,4.78,0,0,0-.39,3.86l.4,1.76c1.83,8.06,3.56,15.68,2.74,24.33a63,63,0,0,1-2.76,13.45c-.26.8-.6,1.61-1,2.46-.87,2.06-1.78,4.19-1.33,5.95.82,3.19,4.58,3.35,9,3.24h.23a22.61,22.61,0,0,1,12.45,3,22,22,0,0,1,5.12,4.15c2.68,3,2.43,5.73,2.16,8.94v.17a121,121,0,0,1-6.16,29c-1.47,4.26-3.46,10-8.11,12.32-6.72,3.29-12.73-3-16-6.36-4.18-4.36-8.71-8.57-14.07-8l-1.74.2.17-1.74c.25-2.59-1.24-5.24-4.42-7.86-4.07-3.36-9.07-6-13.91-8.61-2-1.07-4.07-2.17-6-3.3,0,0-.12,0-.16.15l-8,22.19c-.44,1.23-.9,2.46-1.37,3.69-.9,2.4-1.84,4.89-2.6,7.35l0,.15c-.61,2-1.19,3.81-.41,5.45,1,2.15,3.35,2.6,6,3.11a25.19,25.19,0,0,1,3.23.77c5.73,1.91,10.55,6.88,12.91,13.28a21.23,21.23,0,0,1-.72,17.08c-.3.57-.65,1.15-1,1.76-1.72,2.79-2.65,4.59-1.13,6.15.81.83,2.15,1,3.57,1.14.62.07,1.27.14,1.89.28a20.91,20.91,0,0,1,9.5,4.85,22.24,22.24,0,0,1,7.59,18.92l.24.23.12.57.85,3.4-3-1.79a.29.29,0,0,0-.23,0C85.66,223,81.81,234.49,71.8,240.55c-5.41,3.27-10.43,3.25-15.05,2.73A31.94,31.94,0,0,0,53.22,243Zm165.09-46.38,0,0a11.64,11.64,0,0,0,8.24-.61l-4,.63A11.22,11.22,0,0,1,218.31,196.67Zm62-57.4-1.8-.57-1.06-.33L276.4,138l.06-1.11a6.57,6.57,0,0,1,1.45-3.85l2.63-3.38Z"/></svg>