<svg id="Layer_1" data-name="Layer 1" xmlns="http://www.w3.org/2000/svg" viewBox="0 0 350 350"><defs><style>.cls-1{fill:#999;}.cls-2{fill:#f90;}</style></defs><title>M</title><path class="cls-1" d="M325,287.09l-29-19.57,8.53-5.89-8.09-3-12.16-3.53-2.35-8-2.16-3.73,3.73-5.49s-5.1-2.55-6.28-4.9,5.89-5.3,5.89-5.3L280.57,226l-3.14-4.71s.59-5.49,3.92-6.08,11,2.16,11,2.16l4.12-2.16-1.57-3.73-2.16-4.9s-1.57-3.73-1.57-5.1,1.57-6.08,1.57-6.08a27.4,27.4,0,0,0-6.67,2.94c-2.55,1.77-5.89-3.73-5.89-3.73s-10.79.2-11.18,2.75-3.73,6.87-3.73,6.87a41.83,41.83,0,0,1-7.46,2.35c-5.49,1.37-5.49-14.71-6.28-20.79s7.06-3.14,7.26-6.43-7.06-20.26-8.63-19.67-6.67-1.18-10.79-2.35-10.2-6.77-10.2-6.77a22.5,22.5,0,0,0-5.89,5.59c-2.75,3.73-10.2,2.75-13.54,1s-8-5.89-1.37-11.18c-7.06,0-5.49-15.11-5.49-15.11s-2.35-3.33-3.53.2c-4.9,8.44-8,5.3-12.56,4.9s-1.37-10.2-1.37-10.2,8.44-3.73,11.77-4.51,16.67-9.42,16.67-9.42l1.18-5.49s-11.18,4.51-13.54,5.3-11.38,1.18-11.38,1.18L184.44,106l-4.71-2.75-9.54-11.57s-6.16-2-11.45-3.14-3.33-10.79-3.33-10.79l10.4-18.83-11.18-10.2-34.13-9.22s-5.89,1.28-7.65,1.77-11.57-1-13.83-3.14,8.14-14.32,8.14-14.32L96.46,28.48l-3.53,6.87s-4.41-3.63-5-5.2-3.33-.49-3.33-.49-3.92,5-4.81,5.49A25.67,25.67,0,0,1,72,37.6c-2.75.2-5.89-1.67-5.89-1.67l-3.92,2.94s-7.06,1-7.06,3.92a9.36,9.36,0,0,1-.78,4.32s-3.14-5.3-8.24-5.1-8.24,4.71-8.24,4.71L25.73,45.35s-6.47-1.18-10,1.77-7.65,6.28-7.65,6.28,2.75,8,3.92,9.42,3.34,4.32,4.12,4.32,4.12.39,4.71,0,3.73-11.57,3.73-11.57l3.53-2.16L30.24,61s4.51,1.37,7.85.39A22.86,22.86,0,0,1,45.94,61l-9.42,5.89L24.95,80.66l-5.69,4.9,2.94,1.77,6.87-.78,5.69,2.55,7.06,4.12,3.73,6.08L42.6,114.6l1.77,15.3s4.32,2.55,5.89,6.87,1,7.26-.59,7.45-11.77.39-11.77.39-4.9,9.22,1,13.54c6.87,4.12,11.18,3.92,11.18,3.92s3.92,4.9.2,7.85-12,7.06-12,7.06l-6.47,2.4s8.44,8.19,9.22,12.11a15.86,15.86,0,0,0,3.53,6.87l5.1-4.32s8.24-3.92,12.16.59a123.91,123.91,0,0,0,10.59,10.2s7.45,2.16,9.81,3.53,5,5.49,5,5.49l3.83,6.08,3.14-1.77,7.06,8.63-1.57,5.89,3.34,4.9,7.65-7.26,11.18.78s15.11,3.53,15.69,3.92,6.28,5.3,6.28,5.3-4.9,2.94-6.47,5.1a9.11,9.11,0,0,1-7.06,3.73c-2.75,0-9.81,1.57-9.81,1.57l-2.35,3.53-6.28.78-.2,1-13.54,10L87.23,282.53l14.32,5.89-1.77,3.14,3.83,3.14s5.49-4.12,7.75-4.22,7-4,8.83-4.51,9.22-1.67,9.22-1.67l4.51,2.55,5.2-1.77s7.36,12,10.59,11.67,8.63-4.61,9.22-5.4,7.45-1,7.75-1,5.2-2.65,5.69-4.22,5.89,10.69,5.89,10.69l10.5-2.45s4.61.88,3.24,3-3.92,6.57-3.92,6.57l-4.61,1.77,1.67,8v3.63l7.36,5.79,5.2-4.81s7.06.59,15-4.41c3.92-1.67,6.18,2.84,8.93,4.41s14.81,7.45,14.81,7.45a69,69,0,0,0,8.39-1.72c2.65-.88,7.65-2.06,8.39-2.35s27.66,4.41,27.66,4.41L292.34,313l2.94.74,7.8-8.83,2.94,1.47-.74,3.53,8.24,2.21,7.8,6.33,4.12-5.3-2.94-3.24,4-5.59,9,2.06,6.47-5.89Z"/><path class="cls-2" d="M281.41,327.76l-.79-.14c-9.54-1.67-25.06-4.29-27.15-4.4-.46.15-1.26.36-2.64.72-1.82.48-4.08,1.07-5.56,1.57a69,69,0,0,1-8.63,1.77l-.43.06-.39-.19c-.49-.24-12.14-5.92-14.89-7.5a14.8,14.8,0,0,1-2.71-2.2c-1.88-1.78-3.13-2.86-4.86-2.18a28.79,28.79,0,0,1-15.13,4.59l-5.66,5.23-8.85-7V314l-1.88-9.08,5.27-2c.68-1.17,2.55-4.37,3.69-6.16a5.59,5.59,0,0,0-2-.85l-11.33,2.65-.47-1.08c-1.49-3.39-3.35-7.26-4.44-9.15-1.85,1.79-5.14,3.52-5.83,3.52a39,39,0,0,0-6.8.63c-1.27,1.35-6.54,5.42-10,5.73s-8.69-7.22-11.33-11.38l-4.74,1.61-4.63-2.62c-1.66.27-7.09,1.16-8.59,1.56a18.26,18.26,0,0,0-3,1.71c-2.16,1.36-4.39,2.77-6.08,2.84-1.12,0-4.49,2.08-7,3.94l-.89.67L98,291.9l1.56-2.78L85.1,283.19l12-18.13,13.3-9.83.29-1.45,6.65-.83,2.31-3.46.56-.12c.29-.07,7.25-1.6,10.12-1.6a7.72,7.72,0,0,0,5.92-3.14,23.14,23.14,0,0,1,5.25-4.44c-2.09-1.79-4.09-3.48-4.61-3.89-1.16-.4-8.57-2.21-15.2-3.76l-10.45-.73-8.41,8L98.16,233l1.55-5.81L93.86,220l-3.28,1.84L86,214.62c-.68-1.06-2.83-4-4.52-5s-7.46-2.81-9.49-3.39l-.29-.08-.23-.2a123.59,123.59,0,0,1-10.74-10.35c-2.88-3.31-9.27-.76-10.33-.31l-6,5.06-.92-1a17.23,17.23,0,0,1-3.88-7.55c-.51-2.54-5.68-8.33-8.82-11.38l-1.61-1.56,8.5-3.16c.79-.4,8.26-4.19,11.66-6.87a2.57,2.57,0,0,0,1-1.77,6.17,6.17,0,0,0-1.12-3.57c-1.64-.13-5.66-.8-11.16-4.1L38,159.3c-6.8-5-1.62-14.92-1.39-15.34l.39-.74.83,0c4.07-.08,10.52-.25,11.62-.38.24-.22.7-2.07-.57-5.56-1.37-3.77-5.24-6.11-5.28-6.13l-.6-.36-.08-.7-1.79-15.52,2.88-15L40.8,94.26l-6.69-3.9L28.84,88l-7,.8-5-3,7.09-6.11L35.58,65.85l5.6-3.5a13.23,13.23,0,0,0-2.69.45c-3.7,1.09-8.46-.33-8.66-.4l-.74-.22-1.86-6.6-1.46.89C22.62,67.64,22.09,68,21.61,68.31c-.71.47-1.81.49-4.54.29-.42,0-.77-.06-1-.06-1.17,0-2.16-1.08-4.31-3.74-.33-.4-.63-.78-.88-1.07C9.67,62.27,7.4,55.8,6.74,53.85l-.32-.94.77-.62s4.15-3.36,7.64-6.27C18.81,42.7,25.7,43.9,26,44l11.29,1.27c1.19-1.4,4.3-4.46,8.81-4.63A10.18,10.18,0,0,1,53.69,44c0-.36.05-.75.05-1.19,0-3.7,6-5,7.92-5.27l4.4-3.3.82.48a10.46,10.46,0,0,0,5.06,1.47,24.46,24.46,0,0,0,7.16-2.28,55.46,55.46,0,0,0,4.38-5.13l.24-.3.36-.14a5.48,5.48,0,0,1,3.78-.18,2.6,2.6,0,0,1,1.41,1.49,16.8,16.8,0,0,0,3.24,3.45l2.94-5.72L112.26,20l-4,4.72c-4.49,5.25-8.22,11-8.13,12.47,2,1.66,10.83,3.1,12.36,2.7,1.78-.5,7.49-1.73,7.73-1.78l.34-.07,34.8,9.4,12.26,11.19L156.76,78.2c-.21,1.26-1.19,8.15,2.29,8.93,5.3,1.18,11.32,3.09,11.58,3.17l.4.13,9.64,11.7,4.71,2.75,5.4,6.52c3.57-.18,8.8-.58,10.29-1.07,2.29-.76,13.34-5.22,13.45-5.27l2.48-1-1.86,8.68-.49.32c-1.39.9-13.65,8.79-17.12,9.61a98.81,98.81,0,0,0-10.93,4.17c-.7,2.49-1.23,6.08-.37,7.36a.82.82,0,0,0,.7.39,20.5,20.5,0,0,1,2.8.49c3,.67,5,1.12,8.34-4.58.64-1.79,1.67-2.31,2.43-2.42,1.85-.28,3.28,1.62,3.55,2l.31.43-.05.53c-.27,2.59-.43,9.92,2,12.6a2.65,2.65,0,0,0,2.09.94h4.06l-3.18,2.53c-2,1.59-3,3.09-2.83,4.47.2,2.19,3.1,3.88,4,4.35,2.79,1.48,9.54,2.41,11.73-.57a23.81,23.81,0,0,1,6.3-6l.91-.54.78.71c1.62,1.49,6.52,5.56,9.63,6.45l2.37.7c2.47.74,6.61,2,7.53,1.69a1.79,1.79,0,0,1,1.74.31c2.52,1.86,9,17.19,8.8,20.77-.15,2.47-2.6,3-4.22,3.28-2.52.5-3.31.83-3,2.88.15,1.17.27,2.65.41,4.35.41,5.05,1.08,13.51,3.31,15.11a.89.89,0,0,0,.81.14,49.39,49.39,0,0,0,6.89-2.12c1.21-1.62,3-4.44,3.24-5.94.47-3.08,7.09-3.85,12.56-3.95H281l.42.69c.77,1.27,2.35,3.15,3.43,3.38a.5.5,0,0,0,.44-.08,28.5,28.5,0,0,1,7.09-3.14l2.58-.74-.85,2.55a33.73,33.73,0,0,0-1.5,5.63,20.26,20.26,0,0,0,1.46,4.55l2.15,4.88,2.08,4.95-5.82,3.05-.59-.21c-2-.73-7.84-2.53-10.26-2.1-1.65.29-2.44,2.94-2.69,4.35l2.67,4,4.64,2.86-2.55,1.07c-2.52,1.05-5,2.73-5.15,3.45.68,1.3,3.82,3.27,5.63,4.17l1.45.72-4.14,6.1,1.85,3.27,2.14,7.3L297,257.27l10.63,4-9.06,6.25L325.88,286l18.23,14.42-8.26,7.51-8.77-2-2.76,3.89,3,3.27-5.74,7.38-8.69-7-9.24-2.48.79-3.77-1-.5-7.65,8.66-2.93-.73Zm-28.19-7.34c1.3,0,6.06.6,27.1,4.28l11.52-13.29,3,.74,7.95-9,4.89,2.45-.68,3.29,7.24,1.94,6.91,5.61,2.5-3.21-2.91-3.2,5.18-7.29,9.18,2.11,4.69-4.26-15.57-12.32-30.66-20.7,8-5.52-5.5-2.07-12.86-3.73-2.52-8.62-2.52-4.35,3.35-4.94c-1.74-1-4.54-2.85-5.5-4.77a2.69,2.69,0,0,1-.1-2.19c.58-1.55,2.6-2.95,4.3-3.89l-.61-.38-3.6-5.39.05-.51c0-.27.75-6.56,5.09-7.33,3.15-.56,9.12,1.33,11.12,2l2.42-1.27-1.06-2.53-2.15-4.88c-.4-1-1.69-4.13-1.69-5.67a18.22,18.22,0,0,1,.8-3.83,19,19,0,0,0-3.68,1.85,3.33,3.33,0,0,1-2.65.52c-2.11-.45-3.94-2.73-4.8-4-4.27.15-8.33.88-9,1.63-.5,2.83-3.63,6.94-4,7.41l-.2.26-.29.14a42.75,42.75,0,0,1-7.75,2.46,3.7,3.7,0,0,1-3.15-.59c-3-2.19-3.83-9.08-4.48-17.18-.13-1.67-.25-3.11-.39-4.22-.63-4.85,3.23-5.61,5.31-6a5.45,5.45,0,0,0,1.93-.59c.16-2.51-5.37-15.85-7.4-18.16-1.73.23-4.53-.57-8.64-1.8l-2.34-.69c-3.48-1-8.05-4.72-9.93-6.34a22.29,22.29,0,0,0-4.63,4.64c-3.36,4.56-11.65,3.35-15.34,1.39-1.91-1-5.17-3.22-5.48-6.6a6.79,6.79,0,0,1,2-5.16,5.79,5.79,0,0,1-1.4-1.14c-3.31-3.67-3-11.76-2.76-14.19a2.77,2.77,0,0,0-.46-.4,2.81,2.81,0,0,0-.26.59l-.12.26c-4.11,7.07-7.35,7-11.48,6a18.29,18.29,0,0,0-2.42-.43,3.65,3.65,0,0,1-2.81-1.64c-2-3-.17-9.19.21-10.4l.19-.61.58-.26c.35-.15,8.6-3.79,12-4.6,2.2-.52,10.43-5.49,15.74-8.91l.5-2.31c-3.45,1.38-9.45,3.77-11.14,4.33-2.47.82-10.82,1.21-11.76,1.25l-.7,0-6-7.21-4.71-2.75-9.43-11.45c-1.44-.45-6.52-2-10.93-3-5.25-1.17-5.25-8.38-4.42-12.46l0-.21,10-18L153.92,50l-33.47-9c-1.27.28-5.77,1.27-7.24,1.67-2.33.65-12.56-1-15.19-3.48-1.74-1.66-.28-5.59,4.34-11.69l-4.88,2.15-4.1,8L92,36.44c-1.09-.89-4.65-3.92-5.4-5.71a3.14,3.14,0,0,0-1.19.14c-1.83,2.32-4.08,5-5,5.52A26.91,26.91,0,0,1,72.13,39a12.53,12.53,0,0,1-5.85-1.41l-3.5,2.62-.36.05c-2.95.41-5.84,1.66-5.84,2.52a10.58,10.58,0,0,1-1,5L54.4,49.93l-1.24-2.09s-2.8-4.6-7-4.41c-4.34.17-7.1,4.06-7.13,4.1l-.48.69-13-1.47c-.15,0-6-1-8.94,1.45-2.59,2.16-5.53,4.55-6.89,5.66,1.24,3.52,2.77,7.36,3.33,8,.27.31.59.71.93,1.13a24.68,24.68,0,0,0,2.39,2.69l.88.06c.62,0,1.91.14,2.62.11.61-1.52,2.08-6.36,3.3-10.71l.15-.54,5.6-3.42,2.44,8.67a13.8,13.8,0,0,0,6.3.2,24.07,24.07,0,0,1,8.43-.44l3.92.51L37.46,68,25.87,81.74l-4.2,3.62.85.51,6.77-.77,6.18,2.78,7.37,4.3L47,99l-3,15.63,1.66,14.43a16.1,16.1,0,0,1,5.89,7.2c1.23,3.38,1.34,6.28.32,8a2.82,2.82,0,0,1-2.06,1.39c-1.37.17-8.42.33-11,.39-.91,2.08-3,8,.86,11C46,160.74,50,160.65,50,160.66l.71,0,.45.55c.25.31,2.42,3.13,2.08,6.17A5.41,5.41,0,0,1,51.13,171c-3.8,3-11.87,7-12.21,7.22l-.14.06L34.37,180c2.6,2.69,7.4,8,8.05,11.27a13.74,13.74,0,0,0,2.34,5.12l4.29-3.57c.38-.18,9.27-4.33,13.84.94a119.93,119.93,0,0,0,10.22,9.86c1.45.43,7.6,2.28,9.83,3.58,2.57,1.5,5.19,5.5,5.48,6l3.11,5,3-1.69,8.28,10.12-1.59,6,2,3,6.89-6.54,12,.86c15.35,3.59,15.9,3.95,16.16,4.12.62.41,5.07,4.24,6.42,5.4l1.48,1.28-1.68,1c-1.3.78-4.91,3.14-6.06,4.72a10.53,10.53,0,0,1-8.21,4.31,63.67,63.67,0,0,0-8.95,1.42l-2.4,3.59-5.91.74-.1.52L99.17,267l-9.8,14.83,14.21,5.84-2,3.5,2.06,1.69c1.82-1.3,5.54-3.75,7.64-3.84.94,0,3.19-1.46,4.69-2.41a17,17,0,0,1,3.84-2.06c1.91-.5,9.05-1.65,9.36-1.7l.49-.08,4.39,2.48,5.67-1.93.59,1c3.59,5.84,7.92,11,9.27,11,2.66-.24,7.61-4.11,8.22-4.85,1-1.36,6.57-1.52,8.63-1.53,1.1-.49,4.23-2.45,4.59-3.25a1.56,1.56,0,0,1,1.4-1.11c1-.05,1.89-.11,6.65,10.6l9.65-2.25.3.06c.84.16,3.65.83,4.44,2.66a2.66,2.66,0,0,1-.27,2.54c-1.34,2.11-3.87,6.48-3.89,6.52l-.25.43-4,1.51,1.45,7.15v2.94l5.86,4.61,4.77-4.41.62.05a25.56,25.56,0,0,0,14.13-4.2l.2-.11c3.58-1.52,6.15.91,8,2.69a12.7,12.7,0,0,0,2.16,1.8c2.4,1.37,12.23,6.19,14.33,7.22a62.21,62.21,0,0,0,7.71-1.59c1.57-.52,3.88-1.13,5.74-1.62,1.09-.29,2.32-.61,2.57-.71A1.21,1.21,0,0,1,253.22,320.42Zm-93.14-28.21h0Zm6.22-3.19h0Zm84.37-128h0ZM16.12,65.71h0Z"/></svg>