<svg id="Layer_1" data-name="Layer 1" xmlns="http://www.w3.org/2000/svg" viewBox="0 0 350 350"><defs><style>.cls-1{fill:#999;}.cls-2{fill:#f90;}</style></defs><title>M</title><path class="cls-1" d="M210.58,91.21a4.44,4.44,0,0,1,.33-1.76l-.22.23A1.08,1.08,0,0,0,210.58,91.21Z"/><path class="cls-2" d="M212.11,96.1,209.4,92a2.47,2.47,0,0,1,.21-3.23l.27-.29,5-4.9L212.22,90a3,3,0,0,0-.22,1.19Z"/><path class="cls-1" d="M279.82,232.38c-1.82-.84-3.89-1.33-5.32-2.73s-1.69-4.26.11-5.14l-3.25-1a3.66,3.66,0,0,0-.45,3.94,37.3,37.3,0,0,1-15.35-1.87,8.1,8.1,0,0,1-3.88-2.33c-1.68-2.12-1.14-5.17-.52-7.8l4-17a6.06,6.06,0,0,0,.15-3.35c-1.39-4-9.17-2.2-10.3-6.29-1.06-3.83,5-5.19,7.45-8.35a5.19,5.19,0,0,0,1-5c-.82-1.18-1.67-2.34-2.57-3.45a14.09,14.09,0,0,0-4.78-2.5l-10.34-3a6.94,6.94,0,0,0-3.83-.36c-2.24.65-3.17,3.23-4.63,5.06a8.77,8.77,0,0,1-8.44,3c-7.9-1.65-8.52-13.5-10.21-19.72-.75-2.78-1.15-6.48,1.39-7.83,1-.54,2.26-.51,3.3-1,4.3-2.08,1.74-7.75,1.07-11-.49-2.36.84-5.62,3.21-5.2,5.58,1,6.42-2.35,4.64-8.19-3.18-.52-6.54-1-9.53.16-2.68,1.06-5.67,3.39-8,1.72-1.55-1.11-1.64-3.32-1.87-5.21s-1.24-4.15-3.15-4.16a26.2,26.2,0,0,0,7.14-3.5,3.52,3.52,0,0,0,1.52-1.72c.49-1.63-1.32-3.34-.75-4.94s3.24-1.57,4.58-2.85c2.07-2-.19-5.24-1.44-7.81a10.26,10.26,0,0,1-1-3.76c-.37-5.32,3.34-10,6.84-14,5.47-6.31,12.66-12.65,17-19.75A26.71,26.71,0,0,0,235,52.54c-2.08-1.1-5.92-2.76-4.06-7-.9,2.08-10.82-.41-12.65.58C214.75,48,210.54,42,207.7,40.4c-4.58-2.55-9.69-6.24-9.53-11.48.11-3.94,3.22-7,5.44-10.28,2.58-3.78,3.52-13.5-3.94-11.32a5.08,5.08,0,0,0-3.54,4.8s-2.94-1.27-3.25-1.44c-1.22,1.54-2.14,1-3.87.36a.55.55,0,0,0-.61.17l-.21.25a2,2,0,0,0-.08,3.13c.37.44.21,1-.07,1.88a6.34,6.34,0,0,0-.34,1.45,4,4,0,0,0-.93.3l-.39.16a6.49,6.49,0,0,1-3.88.45L182,18.7c-1-.21-1.22-.31-1.14-1.16.06-.61-.35-1.11-1.22-1.48a6.59,6.59,0,0,0-5.84.49c-3.6,2.09-2,5.32-4.08,7.87s-5.74,1.11-7.26,4.64c-1,2.45-.44,5.33.84,7.66.88,1.6,2.11,3.16,2.15,5s-2.07,3.72-3.56,2.64A4.39,4.39,0,0,1,159,48.83c1.45,4.49,7.34,7.84,5.87,12.32-.8,2.43-3.73,3.67-6.24,3.22a10.76,10.76,0,0,1-6.2-4.21c.69,2.16-.61,4.53-2.42,5.9s-4,2-6.15,2.84c-4.77,1.91-12.1,13.27-2.07,12.89l-10.88,7.64c1.55.79,1.63,2.9,1.87,4.62s1.57,3.79,3.2,3.2c.89-.32,1.33-1.31,2-2a4.31,4.31,0,0,1,5.22-.42,7,7,0,0,1,2.94,4.65c.75,3.7-.58,7.47-1.89,11-2.31-2.15-2.61-4.51-3-7.49a1.69,1.69,0,0,0-.36-1,1.71,1.71,0,0,0-1.51-.23l-9,1.51c-2.15.36-4.94.39-5.81-1.61-.7-1.6.39-3.66-.55-5.14s-3-1.3-4.64-1c-7.92,1.38-8.16,1.8-11.65,8.76a1.65,1.65,0,0,0,.55,2.43,14.25,14.25,0,0,1,2.79,2.75c.25.37-7.45,15.64-7.7,18.17-.39,3.9.61,8.28,3.89,10.71,1.68,1.25,4.43.34,5.68,1.76,1.58,1.78,1.4,8.34,1.78,10.73a2.61,2.61,0,0,1-.12,1.71,2.72,2.72,0,0,1-1.52,1,16.4,16.4,0,0,0-7.22,4.71c-3.07,3.79-2.08,14.11,5,11.09a10.14,10.14,0,0,1-.4,5.72,6.54,6.54,0,0,0-5.91,7,5.26,5.26,0,0,0,3.19,1.08,20.45,20.45,0,0,1-7.28,10.28c-1.29-1.76-4.37-.15-4.74,2s.81,4.21,1.59,6.25a17.61,17.61,0,0,1,1,8.57c-.54,4-2.42,7.63-4.26,11.19-1.14,2.21-2.34,4.48-4.28,6-3.74,3-8.34-.38-7.56,6.14,0,.25.06.51.1.76.36,2.76-.23,4.87-.73,7.53-1.13-.86-2.82-.3-3.83.69-3.17,3.09-1.78,8.4-3,12.66-.63,2.25-2,4.24-2.62,6.49s-.15,5.12,1.94,6.15,10.52,1,7,6.15c-1.28,1.86-3.73,2.43-5.95,2.85,1.5,1.81-.27,5.24,1.64,6.61a9.4,9.4,0,0,1,1.38.83c1.15,1.18-.37,3.52.79,4.69s3.71-.11,4.43,1.34a2.3,2.3,0,0,1,.15,1.07L83.3,298c0,1.85-.23,4-1.76,5-2.24,1.5-5.93-.37-7.66,1.69-3.95,4.7,2.74,8.71-4.45,12.05-2.51,1.16-1.45,5.8-4,6.91-.73.32-1.61.25-2.26.71-3.85,2.73,7.68,5.16,8.48,6.09a16.47,16.47,0,0,1,2.85,6.31,17.18,17.18,0,0,0,6.2-12.53c10-7.75,26.34-5.33,33.69,5a2.59,2.59,0,0,1,.66,1.82c-.14.83-1,1.34-1.44,2-1.12,1.71.21,3.93,1.51,5.51s2.91,3.44,5,4.16,4.83-.07,5.48-2.16-.9-4.15-.67-6.27c.27-2.49,2.84-4.08,5.28-4.65s5.06-.56,7.29-1.69c7-3.52,5.83-14.19,6.39-20.6.53-6.08,9.61-.56,12,1.73,4.19,4.08.2,10.37,3.38,13a2.17,2.17,0,0,1,2.49-1,3.73,3.73,0,0,0,1.67.2.55.55,0,0,0,.43-.4c.08-.31.15-.62.23-.93.41-1.7.79-3.31,2-4.42,4.7-4.43,8.42-3.82,12.19-9.82.49-.77,1.11-1.63,2-1.67a2.85,2.85,0,0,1,1.56.6l10.86,6.89a59.41,59.41,0,0,1,5.48-15.14,14.11,14.11,0,0,1,3.89-5.07,16,16,0,0,1,6-2.24c3.66-.84,7.77-1.6,10.94.42,7.37,4.71,8.82-1.62,15.52-6.1,1.86-1.25,4.77-2.19,6-.33.73,1.09.38,2.53.23,3.83s.16,2.95,1.42,3.31,2.4-.86,3.13-2a73,73,0,0,0,9.84-22.1,11.06,11.06,0,0,1,1.66-4.17c5-6.39,13.41,4.21,15.41,8.09.92,1.77,2.21,3.95,4.13,4.7a6.37,6.37,0,0,1,.19-4.15c1.05-2.56,5.7-3.84,6.29-5.62.72-2.16-1.86-4.91-2.07-3.84a28.57,28.57,0,0,0,.42-8l4-.09C290,246.54,287.24,235.8,279.82,232.38ZM212.27,79.66l.69-.35c-.09.18-.17.35-.24.54a3.48,3.48,0,0,0-.47.66c0-.24,0-.47,0-.71A.53.53,0,0,0,212.27,79.66Z"/><path class="cls-2" d="M121.72,344.42a6.29,6.29,0,0,1-2.06-.34c-2.36-.82-4-2.64-5.61-4.6-2.9-3.53-2.47-5.86-1.6-7.19a6.44,6.44,0,0,1,.75-.9,2.69,2.69,0,0,0,.48-.59s0-.22-.41-.78a23.22,23.22,0,0,0-31.16-5.08,18.63,18.63,0,0,1-6.68,12.89l-1.66,1.36-.6-2.06a15.7,15.7,0,0,0-2.48-5.67c-.35-.18-1.36-.54-2.18-.83-4.2-1.48-7.19-2.69-7.49-4.83a2.68,2.68,0,0,1,1.36-2.62,4.45,4.45,0,0,1,1.83-.68,3.57,3.57,0,0,0,.68-.17c.59-.26.86-1.16,1.2-2.51.4-1.57.89-3.53,2.75-4.4,3.07-1.43,2.89-2.54,2.53-4.75-.3-1.84-.71-4.36,1.44-6.92,1.37-1.63,3.43-1.59,5.08-1.55a5.35,5.35,0,0,0,2.88-.4c.94-.63,1.1-2.23,1.13-3.87L82,291.4c0-.09,0-.24,0-.35a6.11,6.11,0,0,0-1-.06,4.29,4.29,0,0,1-3.21-1,4,4,0,0,1-.8-3.49,3.38,3.38,0,0,0,0-1.21,2.5,2.5,0,0,0-.39-.21,5.17,5.17,0,0,1-.81-.45c-1.62-1.16-1.59-3-1.56-4.54a4,4,0,0,0-.34-2.33l-1.53-1.85,2.36-.45c2-.39,4.1-.88,5-2.26.47-.69.69-1.28.57-1.58-.34-.85-3-1.42-4.35-1.73a12.75,12.75,0,0,1-2.68-.76c-2.78-1.37-3.46-5-2.69-7.8a21.44,21.44,0,0,1,1.4-3.5,19.39,19.39,0,0,0,1.22-3,21.84,21.84,0,0,0,.56-4.56c.18-3.13.36-6.37,2.78-8.74a5.18,5.18,0,0,1,3.73-1.5,15.91,15.91,0,0,0,.41-5.51l-.1-.78c-.6-5,1.78-5.78,4.49-6.17a6.89,6.89,0,0,0,3.59-1.25c1.74-1.39,2.84-3.52,3.91-5.58,1.77-3.42,3.6-7,4.12-10.73a16.17,16.17,0,0,0-.9-7.88c-.15-.39-.31-.79-.48-1.18-.72-1.73-1.54-3.69-1.18-5.81a5,5,0,0,1,3.69-3.82,3.54,3.54,0,0,1,2.45.24,19.07,19.07,0,0,0,5.36-7.33,6.62,6.62,0,0,1-2.14-1.1l-.48-.37-.07-.6a7.69,7.69,0,0,1,1.87-5.76,7.85,7.85,0,0,1,4.38-2.65,8.83,8.83,0,0,0,.29-2.59,5.1,5.1,0,0,1-5.27-1.94c-2.25-3-2.07-8.87.37-11.88a17.55,17.55,0,0,1,7.83-5.15,2.94,2.94,0,0,0,.79-.37,3,3,0,0,0-.06-.77c-.12-.75-.18-1.78-.26-3-.13-2.14-.38-6.13-1.19-7a3.46,3.46,0,0,0-1.9-.48,6.77,6.77,0,0,1-3.57-1.08c-3.29-2.45-5-6.93-4.45-12,.16-1.62,2.27-6.28,5.24-12.68.9-1.93,1.89-4.07,2.3-5.08A12,12,0,0,0,108,108.4l-.7-.6a3,3,0,0,1-.9-4.09c3.69-7.38,4.27-8.1,12.69-9.57,1.12-.19,4.53-.79,6.08,1.65a5.52,5.52,0,0,1,.57,3.56,4.18,4.18,0,0,0,.08,1.78c.54,1.25,3.17,1,4.28.77l9-1.51a3,3,0,0,1,2.75.63,3,3,0,0,1,.76,1.8l0,.13a14.35,14.35,0,0,0,1.13,4.65c.94-2.84,1.48-5.35,1-7.83a5.58,5.58,0,0,0-2.3-3.72,2.92,2.92,0,0,0-3.46.19,6.23,6.23,0,0,0-.48.59,4.52,4.52,0,0,1-2,1.76,3.07,3.07,0,0,1-2.68-.28,5.85,5.85,0,0,1-2.41-4.06l-.08-.59c-.16-1.28-.32-2.6-1-3l-2.09-1.07,9.91-7a4.18,4.18,0,0,1-2.62-3.06c-.93-4.35,4.25-10.57,7.86-12L144.8,67a17,17,0,0,0,4.36-2.1c1.33-1,2.42-2.81,1.93-4.33l-2.36-7.35,4.82,6c1.17,1.46,3,3.29,5.35,3.7,1.78.32,4.07-.52,4.65-2.27S163,57.15,161,54.6a17.78,17.78,0,0,1-3.28-5.34l-.43-1.33,1.32-.45a3,3,0,0,0,1.91-3l-.33-3.17,2.58,1.87s.13.1.4,0a1.78,1.78,0,0,0,.9-1.42,7.15,7.15,0,0,0-1.34-3.25c-.22-.36-.43-.72-.63-1.08a10.22,10.22,0,0,1-.9-8.9c1.12-2.61,3.21-3.22,4.89-3.7a4.89,4.89,0,0,0,2.57-1.29,5.84,5.84,0,0,0,1-2.78c.34-1.73.76-3.88,3.42-5.42a8,8,0,0,1,7.11-.57,2.94,2.94,0,0,1,2.08,2.55h0l.57.13a5.22,5.22,0,0,0,3-.41l.29-.12.27-.11c.07-.26.15-.52.23-.78s.16-.5.2-.7a3.4,3.4,0,0,1,.22-4.8l.19-.22a2,2,0,0,1,2.17-.62l.56.2c1.29.47,1.29.47,1.74-.1l.74-.93,1,.57,1.48.67A6.46,6.46,0,0,1,199.27,6c3.77-1.1,5.63.52,6.41,1.58,2.31,3.18,1,9.07-.9,11.9-.49.72-1,1.44-1.57,2.16-1.83,2.43-3.55,4.73-3.63,7.37-.1,3.55,2.7,6.79,8.81,10.21a19.45,19.45,0,0,1,3.16,2.5c2.1,1.89,4.49,4,6.09,3.17,1.1-.59,3-.46,6.16-.16,1.86.17,5.32.48,6,0a.52.52,0,0,0-.17.22l2.6,1.13h0c-1,2.39.09,3.48,3,5l1.54.82-.49,1.19a30,30,0,0,1-1.47,3.15c-3,4.92-7.35,9.44-11.52,13.81-2,2.11-3.91,4.1-5.66,6.12-3.46,4-6.82,8.29-6.5,13a8.89,8.89,0,0,0,.86,3.24c.18.38.39.77.6,1.18,1.29,2.47,3.06,5.86.54,8.28a7,7,0,0,1-2.63,1.41c-.88.31-1.47.54-1.59.89a2.93,2.93,0,0,0,.35,1.51,5.06,5.06,0,0,1,.43,3.35,4.81,4.81,0,0,1-2.06,2.47,27.6,27.6,0,0,1-4.76,2.66,7.91,7.91,0,0,1,1.36,3.67l.07.6c.17,1.47.34,3,1.22,3.63s2.51.1,4.65-1c.66-.32,1.33-.66,2-.92,3.44-1.36,7.23-.74,10.28-.24l.87.14.26.84c1.29,4.25,1.2,7-.3,8.69-1.21,1.36-3.21,1.8-5.95,1.3a.81.81,0,0,0-.8.3,4,4,0,0,0-.77,3.21c.11.53.27,1.12.45,1.76.87,3.19,2.33,8.53-2.29,10.76a8.25,8.25,0,0,1-1.91.58,5.37,5.37,0,0,0-1.34.4c-1.87,1-1.11,4.68-.69,6.21.34,1.24.63,2.66.93,4.17,1.21,6,2.72,13.39,8.2,14.53a7.32,7.32,0,0,0,7-2.53,18.46,18.46,0,0,0,1.08-1.56c1-1.57,2.15-3.35,4.26-4a8.22,8.22,0,0,1,4.62.36l10.34,3a15.57,15.57,0,0,1,5.28,2.76l.21.21c.81,1,1.65,2.12,2.63,3.53l.12.17.07.2a6.58,6.58,0,0,1-1.25,6.28,15.7,15.7,0,0,1-4,3.32c-2.45,1.62-3.57,2.52-3.21,3.8s1.76,1.62,4.09,2.19,5.24,1.3,6.18,4a7.33,7.33,0,0,1-.1,4.14l-4,17c-.55,2.34-1,5,.25,6.6a6.89,6.89,0,0,0,3.23,1.87,36.16,36.16,0,0,0,13.11,1.91,5.09,5.09,0,0,1,1.15-3.55l.61-.72,7.53,2.37-3.18,1.56a.84.84,0,0,0-.45.72,2.63,2.63,0,0,0,.71,2.14,9.59,9.59,0,0,0,3.28,1.78c.55.22,1.1.43,1.63.68h0A15.89,15.89,0,0,1,286.33,254l-.41.56-3.27.07a30,30,0,0,1-.3,5.47,4.06,4.06,0,0,1,.38.35,5.31,5.31,0,0,1,1.4,5c-.44,1.31-1.81,2.17-3.26,3.08-1.25.79-2.67,1.68-3.06,2.63a4.93,4.93,0,0,0-.14,3.21l.82,2.77-2.69-1.05c-2.31-.9-3.76-3.22-4.87-5.37-1.59-3.07-6.46-9-10.1-9.31a3.15,3.15,0,0,0-2.93,1.44,9.27,9.27,0,0,0-1.34,3.41l-.06.24a74.09,74.09,0,0,1-10,22.53c-1.8,2.71-3.55,2.88-4.71,2.54-2-.58-2.66-2.85-2.43-4.84,0-.2.05-.41.08-.61a3.73,3.73,0,0,0-.08-2.26.87.87,0,0,0-.61-.39,5.36,5.36,0,0,0-3.44,1.1,32.49,32.49,0,0,0-4.61,3.92c-3.24,3.15-6.3,6.13-12.46,2.19-2.64-1.69-6.32-1-9.86-.23a14.82,14.82,0,0,0-5.46,2,12.92,12.92,0,0,0-3.47,4.58,57.93,57.93,0,0,0-5.35,14.78l-.43,2-12.58-8a2.66,2.66,0,0,0-.75-.38s-.28.06-.88,1a17.53,17.53,0,0,1-7.4,6.62,22.73,22.73,0,0,0-5,3.47c-.88.82-1.2,2.17-1.57,3.72l0,.1c-.07.28-.14.57-.21.85a2,2,0,0,1-1.54,1.45,4.93,4.93,0,0,1-2.28-.22c-.3-.08-.6-.11-1,.42l-.88,1.26-1.19-1c-2-1.66-1.93-4.16-1.84-6.58s.17-4.73-1.62-6.48-6.89-4.72-8.85-4c-.18.07-.61.23-.71,1.37s-.14,2.39-.19,3.74c-.23,6.56-.52,14.73-7,18a16.6,16.6,0,0,1-5.2,1.38c-.84.13-1.64.24-2.4.43-2,.46-4,1.7-4.2,3.42a6.89,6.89,0,0,0,.36,2.34A7.34,7.34,0,0,1,127,341a4.68,4.68,0,0,1-2.42,2.76A6.28,6.28,0,0,1,121.72,344.42Zm-27-26.2a27.47,27.47,0,0,1,4,.3,25,25,0,0,1,16.79,9.86,3.36,3.36,0,0,1-.32,5,4.33,4.33,0,0,0-.44.51c-.67,1,.6,2.84,1.42,3.83,1.39,1.7,2.68,3.15,4.35,3.72a3.6,3.6,0,0,0,2.67-.17,1.89,1.89,0,0,0,1-1.08,5.05,5.05,0,0,0-.28-2.63,9.18,9.18,0,0,1-.44-3.37c.36-3.32,3.65-5.24,6.37-5.88.88-.21,1.77-.34,2.64-.47a14.26,14.26,0,0,0,4.34-1.1c5-2.51,5.21-9.75,5.42-15.57,0-1.39.1-2.7.2-3.89a4,4,0,0,1,2.55-3.78c3.89-1.44,10.34,3.18,11.81,4.62,2.69,2.62,2.57,5.94,2.48,8.61a11,11,0,0,0,.17,3.28,3.49,3.49,0,0,1,2.61-.25l.52.13,0-.13,0-.1c.44-1.83.89-3.72,2.38-5.12a25.44,25.44,0,0,1,5.59-3.89A14.77,14.77,0,0,0,177,305c.43-.68,1.42-2.27,3.17-2.33a4.11,4.11,0,0,1,2.38.82l9.18,5.82a60.7,60.7,0,0,1,5.15-13.53,15.38,15.38,0,0,1,4.31-5.56,17.2,17.2,0,0,1,6.49-2.48c4.12-.94,8.45-1.67,12,.61,4.26,2.73,5.73,1.3,9-1.84a34.76,34.76,0,0,1,5-4.25c.71-.48,3.22-2,5.57-1.53a3.7,3.7,0,0,1,2.41,1.59,5.83,5.83,0,0,1,.53,4.22c0,.19-.05.37-.07.56-.11.91.13,1.71.41,1.79s.89-.37,1.56-1.38a71.27,71.27,0,0,0,9.65-21.67l.06-.24a11.68,11.68,0,0,1,1.85-4.45,6,6,0,0,1,5.43-2.52c5.31.49,10.71,7.64,12.36,10.83a17.64,17.64,0,0,0,1.31,2.19,7.27,7.27,0,0,1,.44-1.54c.74-1.79,2.57-2.94,4.18-4a8,8,0,0,0,2.08-1.58,2.7,2.7,0,0,0-.9-2.31,1,1,0,0,0,.88,0,1.17,1.17,0,0,0,.69-.81l-2.78-.54h0a27.11,27.11,0,0,0,.4-7.57l-.13-1.51,4.83-.11a12.6,12.6,0,0,0,1.3-9.81,12.42,12.42,0,0,0-6.5-8.25h0c-.48-.22-1-.42-1.48-.61a11.81,11.81,0,0,1-4.24-2.4,5.31,5.31,0,0,1-1.23-1.93l-1.24.11a38.85,38.85,0,0,1-15.94-1.94,9.46,9.46,0,0,1-4.53-2.8c-2.24-2.84-1.29-6.85-.79-9l4-17a4.91,4.91,0,0,0,.19-2.56c-.41-1.17-1.92-1.62-4.18-2.19s-5.35-1.33-6.14-4.19c-.94-3.4,2-5.35,4.39-6.92a13.74,13.74,0,0,0,3.3-2.67,3.86,3.86,0,0,0,.87-3.49c-.85-1.21-1.58-2.19-2.28-3.07a12.68,12.68,0,0,0-4.17-2.15l-10.34-3a5.76,5.76,0,0,0-3-.36c-1.09.32-1.83,1.46-2.68,2.78a20.91,20.91,0,0,1-1.25,1.8,10.22,10.22,0,0,1-9.83,3.53c-7.3-1.53-9.09-10.32-10.4-16.75-.3-1.46-.58-2.85-.89-4-1.63-6,.23-8.46,2.09-9.46a7.71,7.71,0,0,1,2.08-.67,6,6,0,0,0,1.27-.37c2.32-1.12,1.79-3.8.79-7.46-.19-.7-.37-1.35-.49-1.93a6.72,6.72,0,0,1,1.51-5.77,3.64,3.64,0,0,1,3.34-1.11c1.17.21,2.69.31,3.33-.4.39-.44.88-1.69-.05-5.14-2.61-.42-5.46-.75-7.89.22-.57.23-1.17.52-1.8.83-2.26,1.11-5.07,2.5-7.56.72-1.9-1.36-2.17-3.72-2.38-5.61l-.07-.58c-.18-1.43-.88-2.91-1.75-2.92l-9.1-.05,8.68-2.72a24.7,24.7,0,0,0,6.75-3.31c.26-.18.86-.6,1-1a3.11,3.11,0,0,0-.35-1.53,4.84,4.84,0,0,1-.37-3.48c.58-1.64,2.1-2.18,3.31-2.61a4.85,4.85,0,0,0,1.62-.78c.91-.88.12-2.59-1.09-4.92-.23-.43-.44-.85-.64-1.26a11.75,11.75,0,0,1-1.14-4.28,14.93,14.93,0,0,1,2.48-8.83l0-.62-.22-1,1-.54.67-.34.3-.16c.92-1.23,1.92-2.42,2.93-3.59,1.8-2.07,3.81-4.18,5.75-6.22,4.07-4.26,8.27-8.67,11.16-13.35a16.41,16.41,0,0,0,.75-1.55c-1.75-1-4.13-2.58-4.17-5.43a35.89,35.89,0,0,1-5.49-.25,20.78,20.78,0,0,0-4.59-.15c-3.33,1.8-6.64-1.18-9.3-3.57A18,18,0,0,0,207,41.64c-4.49-2.51-10.44-6.55-10.26-12.76.1-3.54,2.18-6.31,4.19-9,.51-.68,1-1.37,1.5-2.05,1.53-2.23,2.26-6.82.94-8.63-.22-.31-.9-1.24-3.32-.53a3.67,3.67,0,0,0-2.53,3.42v.82l-.71.42c-.24.15-.86.51-3.72-.93-1.43,1.09-2.85.6-4,.17-.38.46-.36.56.1,1.1a3.18,3.18,0,0,1,.19,3.23,5.19,5.19,0,0,0-.27,1.12L189,19.15l-1.12.17a3,3,0,0,0-.6.21l-.47.18a7.74,7.74,0,0,1-4.72.48l-.44-.1c-.84-.18-2.38-.52-2.25-2.53a1.81,1.81,0,0,0-.35-.19,5.16,5.16,0,0,0-4.57.41c-1.55.9-1.76,2-2.06,3.52a8.36,8.36,0,0,1-1.64,4,7.29,7.29,0,0,1-4,2.2c-1.59.46-2.51.78-3.08,2.1a7.46,7.46,0,0,0,.78,6.42c.18.33.38.66.58,1a9.44,9.44,0,0,1,1.74,4.66,4.59,4.59,0,0,1-2.42,4,3.54,3.54,0,0,1-1.27.39,5.9,5.9,0,0,1-2.33,3.41,22.4,22.4,0,0,0,2.35,3.36c2,2.48,4.19,5.3,3.05,8.74s-4.84,4.71-7.84,4.18a10.19,10.19,0,0,1-4.72-2.3,8.37,8.37,0,0,1-2.81,3.72,19.31,19.31,0,0,1-5.07,2.49l-1.4.54c-2.74,1.1-6.68,6.28-6.14,8.79.21,1,1.39,1.44,3.5,1.37l4.8-.18L133.1,89.62a9.28,9.28,0,0,1,1,3.69l.07.55a3.12,3.12,0,0,0,1.06,2c.14.08.19.06.25,0,.21-.08.48-.44.75-.79a8.94,8.94,0,0,1,.7-.86,5.71,5.71,0,0,1,7-.64,8.4,8.4,0,0,1,3.59,5.58c.85,4.21-.7,8.41-2,11.79l-.74,2-1.56-1.44c-2.65-2.46-3-5.25-3.44-8.21l0-.13v0l-.23,0-9,1.51c-4.85.81-6.67-.88-7.35-2.44a6.31,6.31,0,0,1-.31-3.12,3.32,3.32,0,0,0-.13-1.82c-.35-.55-1.46-.68-3.2-.38-7.25,1.26-7.25,1.26-10.62,8a3.53,3.53,0,0,0-.15.37,3.8,3.8,0,0,0,.37.36l.65.56a11.63,11.63,0,0,1,2.38,2.47c.55.81.55.81-2.47,7.33-1.82,3.93-4.87,10.5-5,11.77-.4,4.06.84,7.59,3.32,9.44a4.61,4.61,0,0,0,2.16.53,5.28,5.28,0,0,1,3.74,1.43c1.35,1.52,1.64,4.72,1.89,8.75.07,1.08.13,2.09.23,2.7a3.89,3.89,0,0,1-.29,2.64,4,4,0,0,1-2.26,1.61,14.85,14.85,0,0,0-6.61,4.27c-1.64,2-1.8,6.42-.31,8.39.29.38,1.18,1.56,3.64.5l1.57-.67.37,1.67a11.62,11.62,0,0,1-.45,6.52l-.33.87-.93,0a4.85,4.85,0,0,0-3.37,1.78,5,5,0,0,0-1.23,3,3.82,3.82,0,0,0,1.79.45h1.93l-.57,1.84a21.87,21.87,0,0,1-7.79,11l-1.14.85-.84-1.14c-.05-.07-.18-.25-.64-.14A2.19,2.19,0,0,0,97,195.65c-.22,1.32.37,2.74,1,4.24.18.42.35.85.51,1.27a19,19,0,0,1,1.06,9.27c-.58,4.26-2.61,8.19-4.41,11.65-1.15,2.21-2.45,4.72-4.65,6.49a9.57,9.57,0,0,1-5,1.84c-2,.29-2.4.34-2.08,3l.08.66a19.51,19.51,0,0,1-.49,6.84c-.08.4-.16.8-.24,1.23l-.42,2.26L80.6,243c-.41-.31-1.36,0-2,.57-1.63,1.59-1.77,4.15-1.93,6.87a24.23,24.23,0,0,1-.66,5.16,21.83,21.83,0,0,1-1.38,3.44,19,19,0,0,0-1.23,3c-.46,1.7-.14,3.85,1.2,4.51a12.37,12.37,0,0,0,2,.54c2.45.53,5.49,1.2,6.39,3.45.5,1.25.2,2.67-.86,4.23A8.25,8.25,0,0,1,77,277.92a10.92,10.92,0,0,1,.12,2.24c0,1.14,0,1.92.38,2.19a2.53,2.53,0,0,0,.38.2,3.94,3.94,0,0,1,1.19.78,4,4,0,0,1,.79,3.49,3.39,3.39,0,0,0,0,1.2,3.42,3.42,0,0,0,1.22.14c1.08,0,2.71,0,3.47,1.58a3.58,3.58,0,0,1,.29,1.72L84.72,298c0,1.5-.1,4.62-2.39,6.16a7.5,7.5,0,0,1-4.51.88c-1.47,0-2.39,0-2.85.54-1.31,1.56-1.09,2.92-.81,4.65.39,2.43.89,5.45-4.13,7.78-.59.28-.86,1.18-1.2,2.52-.4,1.59-.9,3.57-2.8,4.41a5.72,5.72,0,0,1-1.28.36,2.48,2.48,0,0,0-.73.21l0,0c.88.82,4.05,1.93,5.48,2.44,2.1.74,2.85,1,3.3,1.55a13.74,13.74,0,0,1,2.46,4.63,15.78,15.78,0,0,0,4.1-10l0-.67.53-.41A24.35,24.35,0,0,1,94.76,318.22Zm177.28-93a2.32,2.32,0,0,0-.06,1l0-.11a4.32,4.32,0,0,1,.21-.81ZM189.49,12.1l0,0Z"/></svg>