<svg id="Layer_1" data-name="Layer 1" xmlns="http://www.w3.org/2000/svg" viewBox="0 0 350 350"><defs><style>.cls-1{fill:#999;}.cls-2{fill:#f90;}</style></defs><title>M</title><path class="cls-1" d="M324,166.09c1.55-1.24,8.36-2.66,8.36-2.66l5-1.55-.62-4.46s-4.21,1-5.63-1.11c-1-1.55-2.29-1.61-2.91-2.79-.34-1.08-1.39-4.62-1.81-6l-4.06.89-1-2.6s-5.62,1.95-5.8,2-.46,2-.14,2.09-3.39.51-3.39.51l-1.07-2s-1.67,0-2.51.14c-.84-2.14-1.11-4.74-1.58-4.78a38,38,0,0,0-3.81.51c-.88.14-1.11,0-1.35-.6s-1.53.51-2-.6-2.14-7.85-2.14-7.85a2.55,2.55,0,0,0-2.74-.33c-1.67.51-3.53,1.63-5.06-.93-2.23-2.65-1.9-3.3,0-4,1.72-.56,2.41-1,2.51-2a2.64,2.64,0,0,0,.28-3.06c-.56-.65-1.67-.46-2.09-.6s-1.25-2.55-1.76-2.6-.23-1.63,0-2.18.7-1.49.42-2-3.06.23-5.15.23-9.29,1-17.64-6.18c-1.9-.65-2.79-.19-1.25,5.11,1.49,3.11,5.15,10.45,4.69,11.56s-3.71,2.69-6.31,1c-3.25-1.63-8.13-4-8.87-5.66s-1.67-5.9-3.53-9c-2.55-3-5.57-6-8.59-7.57s-8.54-3-10.77-7.52c-2.46-4.6-6.18-8.91-6.41-10.68,1.58-2.37,10.08-7.61,11.89-8.4l1.86-1.3s-3.81-11.28-5.25-15c-1.72-.51-10.17.56-13.84,1.16-2.37-1.35-4.55-6.45-5.29-7.71s-3.53-2.09-4.36,1.67c-1.11,1.53-2.79,4.27-5.71,4.92s-13.74,2.6-15.37,1.44c-.33-2.51,0-6.59-4.6-7.34-3.3.32-9.05,3.71-8.54,12.12,0,0-4.69-.51-7.61-7.2-2.65-4.32-3.11-7.48-6-9.33s-7.15-2.79-8.17,3.11c-.33,1.35.14,5.29-2.51,8.31s-4.78,4.83-8.4,5.57c-5,0-6.64,1.11-7.75-3.34a5.12,5.12,0,0,0-5.15-2.18c-2.23-.37-6.69-1.49-8.54-8.36-2.23-3.2-5.76-8.08-7.85-10s-7.66-5.34-3.53-16.85c-3.2,1.16-4.83.79-6.13-1.53-1.07-2.46-4.74-16.53-5.11-18.9C99.18,9.2,98.19,8,96.68,6.36l-.2.33s-2.41,3.81-2.88,4.74-2.51,2.23-3.06,3S75.67,28.88,74.65,30.27s-.93,7.34-.37,9.66a76.82,76.82,0,0,1,.93,14c-.56,2.6-2.14,8.73-4.36,10.86-1,1.76-7.34,11.24-12.81,14-.93.65-5.11,5.94-6.41,7.61s-7.06,4-8.26,3.9-2.6-2.51-3.62-3.71-5.57-6.41-8.64-9.47a4.8,4.8,0,0,0-7.06.19l-5.48,4.18s-1.3.84.09,3.34c1.21,2.23,1.39,3.53,2.63,6a53.48,53.48,0,0,1,4.33,15.23c.25,6.69-.25,14.49.37,15.72a2.84,2.84,0,0,0,3.59,1.49c1.49-.62,2.72-2.19,4,.2s4.33,9,4.58,10.32,1.11,3.22-1,4-5.57,1.73-3.59,5.94c1.24,3,3,7.68,4.58,7.92a25.24,25.24,0,0,0,5.32-1.49s1.36,2.1,2.23,2.1,9.9-2,10.52-2,0,3,2.1,4.21c2.23.12,8.54-1.24,8.17,1.73.25,1.73-2.48,7.18-1.61,10.4-.87,2.35-2.48,4.7-1.49,7.18s5.2,7.68,6.81,7.92c1.73,1.11,3.59,5.45,2.72,6.81s-.74,3.22-1.86,2.48-1.86-2.72-3-3.84A23.3,23.3,0,0,0,61.9,183c-3.22-1.61-9.53-3.71-11.89-3.47s-17.09,1.61-18.94,7.3c0,2.35-.5,11.51,2.1,16.59-.12,1.24-.37,5-.62,6.69s-.12,3.71-.5,6.44-1.73,6.56-1.86,9.29.25,9,1.36,11.27-.25,3.84-1.49,4.7-7.43,2.48-8.54,2.48H12.62c2.72,1.86,5.57,6.44,6.69,6.56s4.7,2.6,4.46,5.08.74,2.35-2,4.33-6.44,3.47-6.07,5.08,3.22,4.33,3.22,4.33,1.49,3.47,1.49,5.45.5,3-.37,4.58a5.36,5.36,0,0,1-.76,1.11h0s8,2.11,9.61,2.79c2.48.19,4.33-.43,4,1.73-1,2.35-3.65,3.59-3.71,5.2.06,1.42-3,6.31-3.53,7.61a3.54,3.54,0,0,0,2,4.09,76.87,76.87,0,0,0,8.11,1.92c1.86.43,2.23,1.11,2.6,3.1s.19,5,.43,6,2.48,3.22,2.79,3.71c1.61-1.42,2.91-1.61,3.9,1.36.31,1.05,2.79,3.59,4,2.91a3.56,3.56,0,0,1,4.64,2.1A25.09,25.09,0,0,0,56,332c1.11,3.22,2.35,7.06,4.7,8.3,2.66.5,5.63,1.49,7.86-1,1.3-1.36,7.37-4.15,9.22-3.59.74,1,3,4.64,3.28,6.31,0,1.73.37,1.61.37,1.61s9.66-5.2,11.27-6.62,2.91-2.85,2.91-3.78.87-3.16,2.54-2.66,2.41,1.3,3.78.56,6.19-4.52,6.5-4.64c-2.54-.93-5.57-2.6-2.23-5,1.73-.12,3.47-.43,3.84-.5a32.31,32.31,0,0,1,4.58-6.44s1.18-3.22,1.49-3.28.12-3,.74-3.53,1.11-2.35,1.24-3.4-3.9-8.67-3.9-8.67-.8-1.67,2.29-2c2.66-1,5.14-1.73,5.14-1.73a6.25,6.25,0,0,1-1.92-3.34c-.56-2.29-.37-5.57,1.24-6.13-.31-1.61-1.3-5.88,1.86-6.13,1.92-.12,1.67.37,2.35.93-.43-2.91-.12-4.46,2.6-4.77,2.72-.62,4.83-.74,5.57.62,2.1-.25,2.72-1.7,6-1.06-2.35-1.85-4.89-4.69-5.26-6.3-.19-1.73,2-6.44,1.86-7.43s1.55-2.48,3-2.41c-1.42-2.6-3.78-5.14-1.67-7.49,1.67-.74,4.46-2,5.94-.74,1.18,1.05,1.8.56,2.35,1.86a8.69,8.69,0,0,1,.68,2.29c1.86-.62,5.76-1.42,5.76-1.42s-.43-1.86.62-2.48c2-.56,7.12-2.17,8.17-.25.8-1.8,1.8-3.47,5.14-3-2.23-1.18-2.1-3.28-2.6-4.77-1.36-.12-2,.62-2.23-2.48-.62-1.24-2-5.32,1.05-5.39,1.67-.43,3-1.55,3.16-2.29s.31-3.59,1.3-3.9c-.43-2.85-.62-5.14,1.8-5.51,1.8-.43,2.41-1.42,3.4-1.3-.93-2.41-2-5.2,1-6,2,0,3.47,0,3.78,2.79.43.62,2.23,1.86,2.54,3.1,1.05-.06,1.49-2.6,3.47-2.41s2,2.35,2.72,5c2-.19,3.9-1.24,4.64-1.11a33.14,33.14,0,0,1-2.54-7.3c1.05-1.36,1.3-2.35,3.1-1.36a22.81,22.81,0,0,1-1.61-5.7c.06-.8.43-1.55,2.48-1.86s7.55-2.35,9.41-2.48c0-1.8-.19-3.84,2.17-4.33l9.53-2.72c0-1.73,1.11-2.35,2.91-2.6,2.1-.37,3.28-.12,4.09.87,2.6-.87,6.56-1.73,8.3-2.1s3,.93,3.53,2.35,1.55,6.69,2.35,7.92c1.11,1,2.91,2.41,5.26,1.67a81.07,81.07,0,0,1,8-2.1c1.86,0,2.54-.56,3.34,3.22.56,3,1.36,5.14,1.8,5.57,1.67-.56,2.72-1.18,3.59,1,1.55-.19,1-.12,1.67.8,1.3-.12,2.35,0,3.34,2.48,1.86-.37,3.28-1.11,4.7.25,1.05.8,1.92.87,2.23,2,2.41-.25,4.89-1.67,5.45.93.5,1.8.25,2.85.87,3.4s1.8.93,3-1.8c1.18-.56,2.6-2.1,4.33-1.42a11.3,11.3,0,0,1,3.4,1.86c.87.8,3-.25,3.47.87l.56,2.6,5.94-1.61s14.73-3.59,20.49-6.69c7-4.7,10.83-6.44,13.62-16.34-.25-2.79-1.24-4.89.31-6,1.92-.37,2.79-1.55,4.4-1.67a3,3,0,0,0-3.65-1.49c-1.36.25-3.84.31-4-2.48-.31-1.73-.74-1.36-2-.68s-4-.12-5-5.32c-1.11-3.1-1.24-3.47-2.91-4.4s-3.4-2-1.55-3.71a3.63,3.63,0,0,1,5.39-2c.25.62,1.24,1.36,1,2.66C321.9,171.66,324.07,167.33,324,166.09Z"/><path class="cls-2" d="M81.16,345.21l-.67-.45a3.07,3.07,0,0,1-.87-2.59A23.46,23.46,0,0,0,77,337.05c-1.66.11-6.31,2.09-7.41,3.23-2.49,2.76-5.68,2.11-8.24,1.59l-.91-.18-.21,0-.19-.1c-2.75-1.45-4.07-5.29-5.24-8.67l-.14-.41a27.46,27.46,0,0,1-1.82-8.91,1.88,1.88,0,0,0-1-1,2.07,2.07,0,0,0-1.49-.11,2.67,2.67,0,0,1-2.39,0,7.55,7.55,0,0,1-3.68-3.78,3,3,0,0,0-.7-1.35,5,5,0,0,0-.9.65l-1.25,1.11-.89-1.42c-.08-.11-.29-.33-.54-.61a9.56,9.56,0,0,1-2.43-3.55,14.32,14.32,0,0,1-.19-2.59A24.44,24.44,0,0,0,37,307.5c-.32-1.69-.43-1.72-1.53-2-.51-.12-1.23-.26-2-.42a44.81,44.81,0,0,1-6.28-1.56c-2.38-1.1-3.65-3.79-2.84-5.91a25.47,25.47,0,0,1,1.24-2.43c.7-1.28,2.15-3.93,2.19-4.64.05-1.47,1-2.47,2-3.43a9.25,9.25,0,0,0,1.68-2c-.29,0-.7,0-1,0-.51,0-1.06,0-1.65,0l-.23,0-.21-.09c-1.24-.53-7.22-2.14-9.42-2.72l-2.28-.6,1.6-1.73a4.12,4.12,0,0,0,.55-.82,3.43,3.43,0,0,0,.29-2.27c0-.47-.08-1-.08-1.63a16.39,16.39,0,0,0-1.27-4.63c-.82-.81-3-3.1-3.4-4.83-.49-2.13,1.77-3.5,4.16-5,.83-.5,1.69-1,2.45-1.58a5.46,5.46,0,0,0,1.38-1.17s0-.28,0-.46a11.09,11.09,0,0,1,0-1.7c.14-1.44-2.44-3.36-3.23-3.53-1-.11-1.87-1-3.53-3a23.15,23.15,0,0,0-3.77-3.8L8,242.86H21.54c1,0,6.79-1.56,7.73-2.22,1.84-1.29,1.25-2.47,1-2.91-1.34-2.68-1.62-9.55-1.51-12a31.07,31.07,0,0,1,1.06-5.65,38.52,38.52,0,0,0,.81-3.77c.2-1.43.25-2.67.3-3.76,0-.94.08-1.83.2-2.68.16-1.13.33-3.24.46-4.78,0-.55.08-1.05.12-1.44-2.28-4.86-2.15-12.54-2.09-15.87,0-.4,0-.74,0-1v-.23l.07-.21c1.39-4.25,8.09-7,19.91-8.25l.23,0c2.94-.33,9.82,2.18,12.67,3.61a25.19,25.19,0,0,1,6.56,4.48,11.67,11.67,0,0,1,1.52,2.05c.16.26.34.53.51.79a6.5,6.5,0,0,1,.6-1.24c.24-.72-.94-3.8-2.15-4.75-2.59-.91-6.66-6.59-7.5-8.69-1-2.49,0-4.74.86-6.73.16-.36.32-.72.46-1.09-.41-2.26.39-5,1-7.29a13.77,13.77,0,0,0,.64-2.8l0-.17,0-.2c-.48-.52-3.32-.31-4.54-.23a18.92,18.92,0,0,1-2.3.09l-.34,0-.3-.17a5.2,5.2,0,0,1-2.34-3.84l-3.32.67a60.83,60.83,0,0,1-6.25,1.14,4,4,0,0,1-2.75-1.82,20.9,20.9,0,0,1-4.71,1.19h-.16l-.15,0c-2.07-.32-3.42-3.27-5.25-7.74l-.43-1a5.39,5.39,0,0,1-.38-4.44c.84-2,3.07-2.78,4.54-3.29l.27-.09c.49-.17.57-.2.23-1.63-.06-.26-.12-.51-.16-.74a92.49,92.49,0,0,0-4.46-9.95,2.09,2.09,0,0,0-.31-.47,5.86,5.86,0,0,0-.74.38,9.5,9.5,0,0,1-1.09.57,4.24,4.24,0,0,1-5.4-2.16c-.48-1-.5-2.88-.46-8.14,0-2.54,0-5.43-.06-8.11A52.62,52.62,0,0,0,20,91.51a32.43,32.43,0,0,1-1.33-3.08,22.33,22.33,0,0,0-1.28-2.88c-1.8-3.25-.13-4.81.3-5.14h0L23,76.34a6.66,6.66,0,0,1,4.06-2,6,6,0,0,1,5,1.86c3.1,3.1,7.69,8.35,8.72,9.56.28.33.58.74.9,1.17a9.89,9.89,0,0,0,1.78,2c1.17-.11,6.07-2.14,7-3.35,1.65-2.12,5.6-7.12,6.71-7.91l.17-.1C62.51,75,68.69,65.7,69.62,64.11l.1-.17.15-.14c1.65-1.58,3.15-6.39,3.94-10.06a77.57,77.57,0,0,0-.9-13.47c-.54-2.24-.87-8.81.61-10.83.62-.85,4.43-4.6,10.18-10.24,2.66-2.61,5.41-5.31,5.73-5.69a9.48,9.48,0,0,1,1.46-1.37,9.17,9.17,0,0,0,1.45-1.36c.48-1,2.7-4.46,2.95-4.86L96.45,4l1.26,1.34c2.55,2.73,2.86,3.52,2.95,4.09.36,2.29,3.93,16,5,18.49.77,1.36,1.49,1.87,4.37.83l2.83-1-1,2.84c-3.37,9.38.24,12.66,2.4,14.62.3.28.58.53.81.76,2.07,1.89,5.5,6.57,8,10.16l.14.2.06.24c1.5,5.56,4.78,6.85,7.2,7.29a6.59,6.59,0,0,1,6.23,2.72l.2.25.08.31c.63,2.5.81,2.49,3.86,2.34.7,0,1.48-.07,2.37-.07,3.15-.68,5-2.26,7.49-5.09,1.71-2,1.89-4.47,2-6.14a10,10,0,0,1,.18-1.57c.45-2.62,1.59-4.4,3.38-5.18,2.58-1.14,5.45.27,6.93,1.21,2.26,1.43,3.25,3.49,4.41,5.87a43.4,43.4,0,0,0,2.08,3.92l.09.17a11.23,11.23,0,0,0,4.89,5.79c.43-7.71,6.06-11.18,9.83-11.55l.18,0,.18,0c5.08.82,5.45,5,5.67,7.55v.14c2.22.23,9.46-.82,13.74-1.78,2.1-.47,3.5-2.44,4.52-3.87l.19-.26c.7-2.71,2.31-3.36,3.23-3.51a3.72,3.72,0,0,1,3.67,1.71c.16.27.38.7.65,1.23.78,1.52,2.33,4.56,3.76,5.71,2.39-.36,11.66-1.7,13.91-1l.66.2.25.64c1.44,3.66,5.11,14.55,5.27,15l.34,1-3,2c-1.62.71-8.78,5.16-10.88,7.41a36.7,36.7,0,0,0,2.34,3.74,68.3,68.3,0,0,1,3.74,6c1.54,3.14,5,4.64,7.82,5.85.85.37,1.65.71,2.35,1.08,2.76,1.45,5.8,4.11,9,7.91l.13.18a33.27,33.27,0,0,1,2.85,6.93c.29.92.55,1.71.76,2.19.5,1.13,5.57,3.65,7.73,4.73l.63.32a3.39,3.39,0,0,0,2.66.42,3.5,3.5,0,0,0,1.47-.69c-.28-1.59-3-7.13-4-9.28L263.7,117c-1.09-3.77-1.11-5.54-.06-6.54s2.57-.5,3.14-.3l.26.09.21.18c7.19,6.15,13.36,5.95,16,5.85l.73,0a22.76,22.76,0,0,0,2.57-.22c2-.24,3.16-.38,3.79.67s.1,2.23-.24,3L290,120a3.23,3.23,0,0,0-.16.7,6.36,6.36,0,0,1,1.11,1.72l.26.49a3.34,3.34,0,0,1,2.41,1,4,4,0,0,1,0,4.57c-.4,1.83-2.13,2.39-3.41,2.81a5,5,0,0,0-.52.23,9.1,9.1,0,0,0,1.12,1.55l.13.18c.71,1.18,1.15,1.09,2.71.54l.72-.24a4,4,0,0,1,4.18.7l.26.28.09.37c.69,2.86,1.54,6.1,1.92,7.25a1.85,1.85,0,0,1,2.06.73l.38-.06a19.58,19.58,0,0,1,3.74-.45c1.25.13,1.55,1.31,2,3,.14.55.29,1.15.47,1.74l1.48-.06.88,0,1,1.91,1-.14c.06-.91.35-2,1.35-2.3l5.69-2,1.29-.45,1.08,2.74,4.17-.92.37,1.27c.49,1.68,1.39,4.71,1.75,5.85a2.75,2.75,0,0,0,.75.62,6.57,6.57,0,0,1,2.05,2c.63.93,3.09.73,4.12.5l1.51-.35,1,7.19-6.29,1.94a41.09,41.09,0,0,0-7.34,2.13c-.48,2.13-2.44,5.76-3.8,6.78l-2.93,2.2.69-3.6c.06-.31-.06-.52-.41-1l-.24-.35a2,2,0,0,0-1.66,0,2.27,2.27,0,0,0-1.3,1.33l-.1.44-.34.3a1.77,1.77,0,0,0-.3.33,5.66,5.66,0,0,0,1.59,1.09c2.12,1.18,2.39,1.93,3.53,5.09l.08.28c.59,3.11,1.72,4,2.18,4.22a.94.94,0,0,0,.77.09l.14-.08a2.66,2.66,0,0,1,2.53-.45,2.82,2.82,0,0,1,1.31,2.24l0,.16a1.34,1.34,0,0,0,.38,1,2.73,2.73,0,0,0,2,.18,4.43,4.43,0,0,1,5.1,2.11l1.28,2-2.37.18a4,4,0,0,0-1.57.61,9.5,9.5,0,0,1-2.24.95c-.2.32-.14,1,.11,2.4.11.65.24,1.39.31,2.19l0,.26-.07.25c-2.68,9.51-6.53,12.07-12.37,15.93l-1.82,1.21-.12.07c-5.85,3.15-20.22,6.67-20.83,6.81l-7.35,2-.75-3.5h-.44a3.59,3.59,0,0,1-2.73-.7,7.72,7.72,0,0,0-2.35-1.31l-.67-.29c-.52-.2-1.12.15-2,.75l-.63.4a4.09,4.09,0,0,1-2.61,2.53,2.67,2.67,0,0,1-2.4-.7,3.55,3.55,0,0,1-1-2.42,11.11,11.11,0,0,0-.31-1.66,1.21,1.21,0,0,0-.17-.47,5.71,5.71,0,0,0-1.86.24,17,17,0,0,1-1.91.34l-1.19.12-.32-1.15c0-.17-.06-.2-.63-.53a9.27,9.27,0,0,1-1.09-.7l-.12-.1c-.54-.52-.93-.49-2.39-.13-.34.08-.69.17-1.05.24l-1.16.23-.44-1.09c-.68-1.71-1.06-1.67-1.89-1.59l-.8.08-.48-.65-.18-.26-.16,0-1.08.13-.43-1a1.8,1.8,0,0,0-.37-.66c-.09,0-.61.2-1,.33l-1.3.44-.62-.62c-.93-.93-1.76-4-2.19-6.32a5.25,5.25,0,0,0-.69-2.12,3.53,3.53,0,0,1-.57,0l-.55,0c-2,.37-5.42,1.32-7.69,2-3.26,1-5.71-1.15-6.63-2l-.14-.13-.1-.16c-.64-1-1.25-3.31-2-6.25-.21-.85-.41-1.65-.53-2s-.74-1.64-1.88-1.4a83,83,0,0,0-8.15,2.06l-.93.31-.62-.76c-.23-.28-.61-.74-2.74-.37-1.74.24-1.74.67-1.74,1.21v1.06l-1,.3-6.25,1.79-3.38,1c-.9.19-1.06.57-1,2.57V203l-1.32.09a34.83,34.83,0,0,0-4.81,1.26,39.87,39.87,0,0,1-4.49,1.21c-1,.16-1.25.4-1.25.4h0a.69.69,0,0,0,0,.17,24.67,24.67,0,0,0,1.51,5.07l1.44,3.66-3.45-1.9a2.78,2.78,0,0,0-.41-.19c-.11.13-.28.36-.4.54l-.11.15a45.17,45.17,0,0,0,2.35,6.36l1.05,2.4-2.5-.42a9.89,9.89,0,0,0-1.06.32,14.39,14.39,0,0,1-3.3.8l-1.2.11-.3-1.16c-.11-.4-.2-.79-.29-1.17-.49-2-.72-2.67-1.25-2.74-.25,0-.46.14-1,.9a3,3,0,0,1-2.18,1.53l-1.17.07-.29-1.14a5.75,5.75,0,0,0-1.39-1.64,7,7,0,0,1-.93-1l-.21-.3,0-.36c-.16-1.47-.36-1.52-2.17-1.52a1.15,1.15,0,0,0-.68.44c-.34.66.3,2.33.77,3.54l.85,2.21-2.31-.2a3.93,3.93,0,0,0-.58.3,8.37,8.37,0,0,1-2.32,1l-.12,0c-.73.11-1.15.36-.61,3.9l.18,1.2-.92.29a10.2,10.2,0,0,0-.43,2c-.06.39-.11.72-.16.92-.34,1.36-2.14,2.79-4.18,3.32l-.33,0c-.17,0-.39,0-.44.11-.27.45,0,2,.62,3.23l.12.25,0,.27a9.45,9.45,0,0,0,.15,1.16,6.18,6.18,0,0,1,.79,0l.92.08.29.88a12,12,0,0,1,.32,1.24c.29,1.32.52,2.15,1.6,2.72l7.34,3.87-8.21-1.21c-2.39-.35-2.91.54-3.64,2.15l-1.17,2.6-1.37-2.5c-.22-.21-1.28-.58-6.15.82l-.06,0a3.43,3.43,0,0,0,.05.89l.31,1.4-1.4.3s-3.84.79-5.59,1.38l-1.45.48-.37-1.48c-.11-.42-.16-.68-.2-.89a4.6,4.6,0,0,0-.41-1.19.84.84,0,0,0-.13-.24l-.26-.12a5.38,5.38,0,0,1-1.6-1c-.7-.58-2.91.32-4.11.85-.65.91-.26,1.88,1.16,4.18.3.49.6,1,.87,1.47l1.21,2.2-2.51-.1h0a2.18,2.18,0,0,0-1.52.9,9.82,9.82,0,0,1-.85,3.55,18.28,18.28,0,0,0-1,3.75c.33,1.08,2.36,3.56,4.73,5.42l4.61,3.61L139,273.46a4.54,4.54,0,0,0-3.26.38,7.63,7.63,0,0,1-2.31.7l-1,.11-.46-.84c-.1-.17-.66-.68-4,.08l-.16,0a2.08,2.08,0,0,0-1.28.46c-.4.52-.16,2.15-.08,2.69l.54,3.63-2.84-2.32a4.08,4.08,0,0,1-.57-.58l0,0a4.28,4.28,0,0,0-.77,0c-.44,0-.57.2-.62.27-.6.79-.15,3.08,0,3.94l.28,1.44-1.16.4c-.38.13-.88,2.18-.33,4.46a4.93,4.93,0,0,0,1.42,2.57l2.06,1.69-2.54.78s-2.47.74-5.05,1.7l-.35.08a3.5,3.5,0,0,0-1,.22c4.06,7.72,3.94,8.78,3.89,9.18,0,0-.36,2.95-1.57,4.17a10.78,10.78,0,0,0-.18,1.49,3.14,3.14,0,0,1-.69,2.19c-.25.47-.74,1.69-1.1,2.69l-.1.26-.19.21a31.05,31.05,0,0,0-4.34,6.07l-.31.69-.86.14c-.5.08-1.92.33-3.42.46-.54.44-.59.69-.59.69h0s.26.69,2.77,1.61l3.49,1.28L109,327.77c-.26.17-1,.74-1.7,1.25-2.09,1.56-3.89,2.89-4.75,3.36a4.22,4.22,0,0,1-4.15-.14l-.72-.3c-.3.06-.71.88-.71,1.3,0,1.29-1,2.74-3.39,4.84-1.68,1.49-10.53,6.27-11.53,6.81l-.22.1Zm-4-11a3.4,3.4,0,0,1,1,.13l.45.13.28.37a26.91,26.91,0,0,1,3.48,6.64A101,101,0,0,0,91.73,336c2.26-2,2.43-2.73,2.44-2.76a4.83,4.83,0,0,1,1.73-3.51,2.91,2.91,0,0,1,2.63-.47l.11,0c.34.13.65.26.93.39,1.08.47,1.22.49,1.66.25.74-.41,2.92-2,4.38-3.12a4.17,4.17,0,0,1-2.29-2.85c-.18-1.28.51-2.49,2-3.59l.33-.24.4,0c1.13-.08,2.27-.25,3-.36a35.06,35.06,0,0,1,4.29-5.9,15.49,15.49,0,0,1,1.49-3.31c0-.17,0-.38,0-.56.11-1.35.21-2.63,1-3.3a7.34,7.34,0,0,0,.7-2.34,63.54,63.54,0,0,0-3.73-8A2.59,2.59,0,0,1,113,294a3.89,3.89,0,0,1,3.16-1.68c1.13-.42,2.21-.79,3.08-1.07a8.61,8.61,0,0,1-.91-2.28c-.51-2.12-.57-5.52,1-7.12-.29-1.6-.55-3.95.64-5.5a3.58,3.58,0,0,1,2.68-1.38,8.79,8.79,0,0,1,.91,0,4.15,4.15,0,0,1,.79-2.26,4.38,4.38,0,0,1,3.13-1.54c1.62-.37,4.64-1,6.35.45.26-.09.52-.2.8-.32a11.26,11.26,0,0,1,1.16-.45,12,12,0,0,1-3.14-4.71l0-.17c-.13-1.17.37-2.76,1.15-5a19,19,0,0,0,.71-2.37,2.91,2.91,0,0,1,.8-2.29,5.29,5.29,0,0,1,1.47-1.16c-1.3-2.11-2.91-4.94-.56-7.57l.2-.23.28-.12c2-.87,5.26-2.34,7.43-.54a2.71,2.71,0,0,0,.87.54,3.13,3.13,0,0,1,1.88,1.85c.21.5.33.81.42,1.07,1.1-.29,2.33-.57,3.21-.77a3.06,3.06,0,0,1,1.41-2.57l.33-.14.38-.11c2.19-.63,5.49-1.57,7.66-.86a4.91,4.91,0,0,1,2.61-2.1,9.65,9.65,0,0,1-.67-2.15c-1.79-.12-2.31-1.39-2.51-3.5-.42-.92-1.55-3.79-.39-5.7a3.13,3.13,0,0,1,2.61-1.47,3.79,3.79,0,0,0,2-1.28c0-.08,0-.3.08-.57a7.79,7.79,0,0,1,1.06-3.49c-.33-2.43-.48-5.75,3-6.33a5.71,5.71,0,0,0,1.53-.67l.31-.17c-.53-1.56-.85-3.14-.15-4.5a3.9,3.9,0,0,1,2.64-1.94l.36,0c1.92,0,4.52,0,5.12,3.58l.37.35a15.68,15.68,0,0,1,1.13,1.14,3.69,3.69,0,0,1,3.29-1.61c2.54.34,3.12,2.55,3.65,4.74.51-.13,1-.3,1.47-.45l.14,0c-1-2.56-2-5.27-2-6.3v-.48l.3-.38c.15-.2.28-.38.41-.55a4.12,4.12,0,0,1,1.72-1.59,14.43,14.43,0,0,1-.93-4.16c.2-2.62,2.82-3,3.68-3.15a40.64,40.64,0,0,0,4.09-1.11c1.52-.46,3-.9,4.12-1.16,0-1.71.45-3.9,3.24-4.51l3.24-.92,5.34-1.52c.4-1.62,1.74-2.59,4-2.9a5.8,5.8,0,0,1,4.65.67c1.85-.56,4.41-1.2,7.63-1.89,2.18-.47,4.19.8,5.14,3.22.18.54.37,1.31.61,2.28a42,42,0,0,0,1.53,5.25c1.23,1.06,2.35,1.66,3.72,1.23a81.34,81.34,0,0,1,8.16-2.15l.25,0,.57,0c2.47-.09,3.41.88,4.15,4.36a23.92,23.92,0,0,0,1.1,4.14,3,3,0,0,1,3.73,1.22h0a1.7,1.7,0,0,1,1.61.85,3.82,3.82,0,0,1,3.34,2.28c1.43-.35,3.18-.72,4.83.8a7,7,0,0,0,.72.45,4.5,4.5,0,0,1,1.37,1.06l.67-.14c1.38-.3,2.81-.62,4,.15a3.27,3.27,0,0,1,1.38,2.18,13.28,13.28,0,0,1,.37,2c0,.19.05.42.08.58a4.4,4.4,0,0,0,.7-1.21l.21-.49.48-.23a7.51,7.51,0,0,0,.78-.47c1.08-.7,2.7-1.77,4.68-1l.71.31a10.21,10.21,0,0,1,3.07,1.76,4.89,4.89,0,0,0,.77,0c.85,0,2.45-.09,3.1,1.38l.09.28.24,1.14,4.5-1.22c.18,0,14.55-3.57,20.13-6.53l1.78-1.18c5.63-3.72,8.76-5.79,11.14-14.08-.06-.59-.16-1.16-.25-1.71-.32-1.87-.68-4,1.17-5.32l.25-.18.31-.06a4.68,4.68,0,0,0,1-.33,5.09,5.09,0,0,1-4-.77,3.87,3.87,0,0,1-1.42-2.55,3.72,3.72,0,0,1-3.28-.12c-1.25-.63-2.9-2.21-3.66-6.1-1-2.87-1-2.88-2.23-3.53s-2.87-1.6-3.06-3.28a3,3,0,0,1,.95-2.43,5.14,5.14,0,0,1,2.84-2.88,4.84,4.84,0,0,1,4.55.4l.39.25.17.43a1.69,1.69,0,0,0,.14.21,12.5,12.5,0,0,0,1.46-3.47l0-.73.57-.43c1.7-1.36,7.56-2.65,8.89-2.93l3.8-1.17-.26-1.85c-1.69.14-4.29,0-5.6-1.93a3.91,3.91,0,0,0-1.27-1.19,4.74,4.74,0,0,1-1.72-1.73l-.1-.23c-.28-.88-1-3.29-1.44-4.79l-4,.87-1-2.46-3.69,1.27v1c0,1.32-.54,1.38-4.65,1.9l-1,.12-1.11-2.08c-.51,0-1.12.06-1.52.1l-1.08.12-.4-1a25.06,25.06,0,0,1-.91-3.06l-.19-.75c-.73.1-1.8.27-2.3.35l-.44.07a2.46,2.46,0,0,1-2.42-.68,2.28,2.28,0,0,1-2.48-1.33c-.48-1-1.64-5.69-2.09-7.54a1.8,1.8,0,0,0-1,.11l-.68.23c-1.44.5-4.09,1.42-6-1.66-1.32-1.58-2.06-2.81-1.74-4.07a3.5,3.5,0,0,1,2.43-2.12c1.57-.51,1.59-.69,1.6-.84l0-.49.33-.36a1.51,1.51,0,0,0,.24-1.15,3.54,3.54,0,0,0-.58-.07,3.48,3.48,0,0,1-.88-.14c-.74-.25-1.09-.93-1.58-1.87-.12-.24-.32-.61-.45-.83a1.68,1.68,0,0,1-.69-.64c-.73-1.22.08-3.31.09-3.33l0-.06-.54.06a24.84,24.84,0,0,1-2.92.24l-.63,0c-2.67.09-9.72.33-17.63-6.27a16.25,16.25,0,0,0,.69,3.27l.52,1.08c4.08,8.45,4.63,10.36,4.15,11.53A4.86,4.86,0,0,1,268,131a6.32,6.32,0,0,1-5.26-.64l-.41-.2c-4.77-2.38-8.2-4.21-9.05-6.12-.27-.62-.55-1.48-.87-2.48a31.21,31.21,0,0,0-2.52-6.23c-3-3.47-5.67-5.87-8.09-7.14-.61-.32-1.36-.64-2.16-1-3.06-1.32-7.25-3.13-9.22-7.16a66.73,66.73,0,0,0-3.56-5.67c-1.79-2.65-2.81-4.21-3-5.45l-.07-.53.29-.44c1.79-2.69,10.23-7.86,12.36-8.85l.88-.62c-.89-2.63-3.31-9.72-4.59-13.12a89,89,0,0,0-12.58,1.28l-.5.08-.44-.25c-2.26-1.29-4.13-5-5.25-7.15-.24-.46-.42-.84-.56-1.07a.89.89,0,0,0-.78-.36c-.4.06-.77.68-1,1.61l-.06.29-.51.71c-1.21,1.71-3,4.3-6.21,5-.14,0-13.9,3.06-16.5,1.21l-.5-.36-.08-.61c0-.35-.08-.72-.11-1.12-.24-2.75-.58-4.48-3.12-5-2.17.32-7.56,2.79-7.09,10.6l.1,1.68-1.67-.18c-.22,0-5.5-.68-8.72-7.95A45.54,45.54,0,0,1,165,59.77c-1-2.16-1.8-3.71-3.37-4.71s-3.28-1.45-4.27-1-1.54,2-1.75,3.17a9.08,9.08,0,0,0-.13,1.19c-.14,1.92-.37,5.14-2.71,7.81-2.8,3.2-5.21,5.21-9.18,6l-.29,0c-.9,0-1.69,0-2.39.07-3,.15-5.44.26-6.66-4.17a3.59,3.59,0,0,0-3.65-1.45l-.23,0-.22,0c-4.89-.81-8.12-3.89-9.61-9.14-3.35-4.8-6-8.19-7.5-9.55-.25-.26-.49-.47-.74-.7-2.15-2-6.43-5.85-3.94-15.2a4.91,4.91,0,0,1-5.25-2.84l-.06-.13C102,26.66,98.34,12.73,97.87,10a8.1,8.1,0,0,0-1-1.32c-.85,1.37-1.78,2.88-2,3.36a8.33,8.33,0,0,1-2.17,2.27,10,10,0,0,0-1,.92c-.26.34-1.51,1.58-6,6-3.71,3.64-9.33,9.15-9.88,9.89-.61.91-.7,6.15-.14,8.49a78,78,0,0,1,1,14.5l0,.15C76,56.86,74.47,63.13,72,65.7c-.9,1.44-7.15,11.19-13.17,14.33a94,94,0,0,0-6.05,7.28c-1.59,2-7.79,4.57-9.49,4.44-1.55-.12-2.7-1.68-3.81-3.19-.28-.38-.54-.73-.78-1-1-1.19-5.52-6.34-8.56-9.38a3.2,3.2,0,0,0-2.49-1.07,3.92,3.92,0,0,0-2.39,1l-.14.22-.17.11-5.45,4.16c-.06.13-.08.62.44,1.55a25.17,25.17,0,0,1,1.44,3.23,29.8,29.8,0,0,0,1.22,2.83A54.9,54.9,0,0,1,27,105.94v.11c.1,2.76.08,5.7.06,8.29a48.44,48.44,0,0,0,.19,6.9A1.43,1.43,0,0,0,29,122a7.19,7.19,0,0,0,.77-.41,3.69,3.69,0,0,1,2.95-.68,3.5,3.5,0,0,1,2,1.95c1.33,2.71,4.43,9.12,4.72,10.72,0,.19.08.39.13.59.28,1.17.94,3.91-2,5l-.28.1c-1.11.39-2.5.87-2.86,1.71a3,3,0,0,0,.35,2.19l.46,1.11c.66,1.61,2.16,5.28,3,6a25.79,25.79,0,0,0,4.6-1.36l1.08-.42.63,1a7.21,7.21,0,0,0,1.21,1.44c.81-.11,3.61-.68,5.52-1.07a44.21,44.21,0,0,1,4.84-.89c1.44,0,1.66,1.45,1.77,2.15a3.4,3.4,0,0,0,.79,2.07c.43,0,1,0,1.56-.09,2.55-.18,5.44-.39,6.84,1.09a2.71,2.71,0,0,1,.73,2.14,12.51,12.51,0,0,1-.75,3.79c-.6,2.08-1.34,4.67-.92,6.25l.12.44-.16.42c-.2.54-.43,1.08-.67,1.62-.74,1.69-1.38,3.16-.83,4.54.91,2.28,4.65,6.7,5.76,7.06l.3,0,.21.15c2.15,1.38,4.58,6.51,3.15,8.76a5.51,5.51,0,0,0-.5,1.19,2.76,2.76,0,0,1-1.53,2,2,2,0,0,1-1.81-.31,7.85,7.85,0,0,1-2.05-2.45,9.78,9.78,0,0,0-1.13-1.57,22.48,22.48,0,0,0-5.82-3.94c-3.24-1.62-9.23-3.53-11.1-3.33l-.23,0c-9.8,1-16.28,3.29-17.44,6.13,0,.22,0,.49,0,.78-.06,3.2-.19,10.71,2,14.91l.19.37,0,.42c0,.39-.09,1-.15,1.79-.13,1.66-.3,3.74-.47,5-.1.71-.14,1.5-.17,2.4,0,1.16-.11,2.46-.32,4a40.42,40.42,0,0,1-.87,4.07,29.39,29.39,0,0,0-1,5.09c-.13,2.94.33,8.8,1.21,10.57,1.19,2.39.47,4.82-1.94,6.5-1.58,1.11-8.05,2.73-9.36,2.73H16.25c.52.57,1,1.16,1.5,1.71a18.82,18.82,0,0,0,1.91,2.05c1.91.38,5.85,3.35,5.52,6.6a8.39,8.39,0,0,0,0,1.29c.07,1.76-.37,2.47-2.53,4-.85.62-1.76,1.17-2.65,1.71a13.18,13.18,0,0,0-2.84,2,13.92,13.92,0,0,0,2.78,3.5l.21.2.11.27a19.73,19.73,0,0,1,1.6,6c0,.53,0,1,.08,1.39a6.33,6.33,0,0,1-.4,3.42c2.37.64,6.26,1.71,7.71,2.26.44,0,.86,0,1.24,0,1.3,0,2.52,0,3.33.94a2.85,2.85,0,0,1,.54,2.37l-.1.35a10.48,10.48,0,0,1-2.42,3.24,5.3,5.3,0,0,0-1.18,1.44c0,1.25-1,3.2-2.54,6-.47.85-.95,1.74-1.08,2.08a2.18,2.18,0,0,0,1.32,2.3A46.36,46.36,0,0,0,34,302.32c.83.17,1.58.32,2.11.44,2.56.6,3.23,1.84,3.67,4.22a26.14,26.14,0,0,1,.29,3.91,16.24,16.24,0,0,0,.12,2A10.32,10.32,0,0,0,41.87,315a3.09,3.09,0,0,1,2.38-.41c1.54.42,2.25,2,2.65,3.24a5,5,0,0,0,2.14,2,4.84,4.84,0,0,1,3.8.06,4.59,4.59,0,0,1,2.74,3l.06.22v.23a23.83,23.83,0,0,0,1.65,8.11l.15.44c.92,2.66,2.05,6,3.72,7l.72.15c2.59.53,4.26.75,5.59-.74S74.13,334.23,77.18,334.23Zm38.61-24.36h0Zm1.91-1h0Zm.22-.26ZM31.54,284.82Zm102.94-26.23h0Zm0-.13Zm-114.76-9Zm-.25-.07h0Zm295.43-76Zm1.08-24.3-.09,0ZM288.55,123h0Z"/></svg>