<svg id="Layer_1" data-name="Layer 1" xmlns="http://www.w3.org/2000/svg" viewBox="0 0 350 350"><defs><style>.cls-1{fill:#999;}.cls-2{fill:#f90;}</style></defs><title>M</title><path class="cls-1" d="M190.56,289.2s-8.3-8.05-7.93-8.91c.73-1.22-.49-4.15-1.71-4.64s-1.46-3.05-1.46-3.05l12-7.44c4.52-2,1.59-2.93-1-5.61s-.85-4.39-1.46-7.2c-.73-3.05-3.66-4.15-4.52-7.08a3.44,3.44,0,0,1,1.47-4.15h0c-1.62-.35-.21-1.22,1.22-4.07,2.68-.57,9.84-4.88,15.54-8.05-1.46-2.2-5.86-5.61-8.95-8.22s-3.09-2.93-11.8-2.93c3.34-3,4.39-3.82,8.54-7.48s10-13.67,9.76-15.78c-1.3-1.38-11.15-6-13.67-7.65s-1.38-2.44,0-4.15a23.07,23.07,0,0,0,4-11.55c.41-5.37,5-9.68,7.4-9.68s4.64,2.2,6,3.74,6.26,11.63,7.65,13.26c2,1.55,6.75,2,10.25,1.22,5-1,5.53-7.24,6.75-9.44s5.37-4.31,6.51-6.92,6.92-13.34,7.24-15.62.41-2.36-1.14-5.29-1.46-7-2.52-11.23,1.3-6.1,1.14-8.38.57-4.31,1.87-5.13,1.71-.33,5.21,1,2.68,1.71,3.74,3.82.16,2.44,3.66,3.42,6.75-5.37,7-9.44-.65-3.5-1.22-5.29-2.12-2.6-2-4.15,2.2-3,4.56-3.5,6.75.24,7,.24,5.86.89,7.73-.24,2.85-1.46,3.34-3.5,2.93-3.58,4.8-5.86c1.71-2.2,4.56,1.14,4.64,3s-4.88,8.71-6.56,10.82-15.49,22.62-17.76,24.33-4.07,5.69-1,5.37c3.42-1.06,5.29-.41,5.21.49a34.72,34.72,0,0,0,.41,6.83c.41,1.55,5.13,3.09,6.67,3.09s4.47.49,6.43.73,1.14,1.06,2.93,0,6.26-.73,8.54-2.6,8.95-3,8.95-3l1.16-.66-.35-17.12-15.86.73s-3.05-15.5,1.71-18.91S310.88,99.81,313,92.12c1.46-7.81-6.47-12.08-6.47-12.08l8.3-11-10.49-7.32s-2.93-6.35-4.39-7.08-4,1-5.86.68a37.12,37.12,0,0,0-6.1,0A37.07,37.07,0,0,0,291,62.83c1.59,2.44,1.83,8.3,1.46,10.25s-9.64,1-9.64,1,1-6.83-.49-10.25c-1.46-2.2-1.22-8.79-1.1-12.81S277,31.35,277.93,27.69c.85-3.91,1.1-5.86-4.52-10.13a147.29,147.29,0,0,1-12-11.31l-.77.45s-6.47,13.06-10.13,20c-2.68,10.86-14.16,24.41-18.91,28.63s-24,12.37-31.24,15.67-28.07,9.76-36.61,12.57c-8.05,1.71-20.87,13.79-23.43,16.11s-26.48,20.87-26.48,20.87-20.26,15.86-24.28,18.18c-1.22,1.83-5.74,20.62-7.2,24-2.68,2.81-13.42,29.17-13.42,29.17s-5.74,10.13-6.1,11.84-.24,2.44-4.15,7.93c-5.37,6.35-15.62,18.67-17.57,23.55-1.22,4.88-5.61,37-5.86,40.76,2.56,2,0,8.05,0,8.05l9.15,8.36-1.59,2.14,2.07,2.81s-2.68,4.88-3.05,4.88,1.59,1.34,4.52,3.54c2.32,4.15,9.4,8.79,13.06,10.37-.24,2,3.66,4.76,3.66,4.76l7.69,9.94a39.83,39.83,0,0,0,6.35-8.6c2.68-5,2.93-6.1,3.78-10.13.37-4.76,5.37-11.1,5.37-11.1l20,20.75s5.61,5.86,6,7.69,5.13,5.25,5.74,6.59a23,23,0,0,0,7.32,7.69c-.12-2.44,7.2-9.76,9.64-11.72,5.74-3.05,2.07-8.54,2.07-8.54s-8.3-12.2-11.72-20.14c-4.15-9.88,10.74-17.08,11.59-18.55.24-1.71,1.46-4.52,2.81-8.91,0-.37,14.77,14.89,14.77,14.89l.61,10,15.62-.24s9.52,9.64,10.13,10.13a26.91,26.91,0,0,0,6.22,2.2c.85,0,9.88-5.13,12.45-7.44s12.33-14.64,12.33-14.64l6.22-7.93s-13.91-1.22-16.35-1.22S190.56,289.2,190.56,289.2Z"/><path class="cls-2" d="M126.82,346.28l-2.25-1.3a24.15,24.15,0,0,1-7.91-8.33,17.17,17.17,0,0,0-2-2.06c-2.13-2-3.56-3.44-3.84-4.84-.22-.9-3.08-4.34-5.61-7L86.37,303.24c-1.4,2-3.87,6-4.11,9l0,.19c-.86,4.06-1.12,5.29-3.92,10.5a41,41,0,0,1-6.6,8.94L70.58,333,62,322c-1-.77-3.46-2.75-4-4.84-3.66-1.77-10.25-6.08-12.81-10.36l-1.87-1.39c-2.87-2.12-3.31-2.44-3-3.54l.32-1h.43c.44-.65,1.26-2,2-3.37L41,294.57l1.45-2-8.94-8.17.38-.92c.89-2.14,1.54-5.54.45-6.38l-.6-.46,0-.76c.25-3.94,4.69-36.2,5.9-41l.06-.18c1.48-3.7,7.29-11.51,17.77-23.9,3.36-4.73,3.54-5.64,3.79-6.91l.09-.45c.38-1.76,4.79-9.65,6.21-12.16,1.23-3,10.48-25.57,13.48-29.3.67-1.69,2-6.43,3.21-11,2.21-8.08,3.32-12,4-13.06l.18-.28.29-.17c3.89-2.24,23.92-17.91,24.12-18.07s23.91-18.55,26.4-20.8l.58-.53c3.84-3.51,15.5-14.16,23.43-15.9l6.29-2c9.72-3.13,24.41-7.85,30.1-10.46,1.23-.56,2.82-1.27,4.63-2.08,8.41-3.74,22.48-10,26.26-13.36,5-4.45,15.94-17.62,18.48-27.91l.12-.32c3.61-6.86,10-19.85,10.11-20l.19-.38,2.11-1.22.77.81a147,147,0,0,0,11.9,11.18c5.84,4.45,6,6.93,5,11.54-.49,1.85.82,8.38,1.77,13.14.87,4.31,1.61,8,1.56,9.91v.33c-.1,3.21-.3,9.89.87,11.65l.12.23c1.17,2.74,1,7.21.75,9.53,3,.22,5.85.12,6.73-.26.27-2.12-.1-7.06-1.31-8.91a38,38,0,0,1-3.22-7.87l-.49-1.68,1.74-.13a36.75,36.75,0,0,1,6.45,0,6.16,6.16,0,0,0,2.19-.39c1.3-.38,2.78-.8,4.06-.16,1.59.79,3.68,4.83,4.88,7.4l11.39,7.95-8.27,10.94c2.42,1.75,7.06,6,5.81,12.7l0,.11c-1.62,6-9.9,9.79-16.55,12.81a44.61,44.61,0,0,0-6.32,3.22c-2.73,2-2.33,10.56-1.36,16.29l16.08-.74.39,19.42-2.11,1.19-.24,0c-2.44.42-6.84,1.52-8.29,2.71-1.62,1.33-3.91,1.71-5.93,2a10.4,10.4,0,0,0-2.79.68c-1.11.65-1.86,1-3,.43a2.12,2.12,0,0,0-.85-.25l-1.75-.24a41.59,41.59,0,0,0-4.5-.48c-1.49,0-7.35-1.51-8-4.15a34.8,34.8,0,0,1-.47-6.76,7.39,7.39,0,0,0-3.35.43l-.27.06a2.62,2.62,0,0,1-3-1.53c-.82-2.08,1.22-5,3-6.38,1.4-1.05,9.39-12.52,13.23-18,2.17-3.11,3.73-5.36,4.27-6,2.76-3.47,6.18-8.72,6.26-9.9A3.45,3.45,0,0,0,287,95c-.13,0-.17-.06-.33.15a28.67,28.67,0,0,1-2.19,2.32c-1.14,1.11-2.12,2.08-2.35,3-.57,2.36-1.79,3.08-3.33,4l-.65.39c-1.4.85-4,1-8.3.48l-.26,0-.53-.06a23.62,23.62,0,0,0-6.09-.21c-2,.42-3.4,1.58-3.43,2.18,0,.35.22.68.67,1.3a8,8,0,0,1,1.3,2.34,3.27,3.27,0,0,0,.43.86c.64,1,1,1.9.86,4.94-.19,3.22-2.12,7.93-4.88,9.9a4.51,4.51,0,0,1-3.91.82c-2.92-.82-3.53-1.42-4.1-3.06a8.37,8.37,0,0,0-.44-1.09,11.82,11.82,0,0,1-.59-1.42c-.28-.79-.34-.95-2.38-1.71-.7-.26-1.28-.49-1.77-.68-1.75-.69-1.75-.69-2.19-.42-.71.44-1.35,1.89-1.21,3.82a7.36,7.36,0,0,1-.68,3.2,7.37,7.37,0,0,0-.5,4.94c.42,1.69.66,3.31.9,4.87a19.49,19.49,0,0,0,1.5,6c1.56,3,1.68,3.46,1.32,5.93l0,.22c-.24,1.66-2.42,6.1-5.25,11.72-.94,1.87-1.75,3.48-2.09,4.26-.75,1.72-2.38,3.09-3.95,4.41a12.5,12.5,0,0,0-2.62,2.62,13.86,13.86,0,0,0-.75,2c-1,2.9-2.41,7.27-7,8.17-3.51.82-8.9.48-11.4-1.5l-.2-.19a55.49,55.49,0,0,1-3.89-6.73,67.27,67.27,0,0,0-3.73-6.51c-2.42-2.7-4-3.27-5-3.27-1.55,0-5.63,3.62-6,8.37a24.21,24.21,0,0,1-4.3,12.34l-.44.53a8.49,8.49,0,0,0-.7.9,3.81,3.81,0,0,0,.8.64c1,.62,3.13,1.75,5.44,2.94,4.7,2.44,7.61,4,8.49,4.92l.32.34.05.47c.34,3-6.32,13.56-10.23,17-1.82,1.6-3,2.66-4.13,3.6l-1.67,1.44c5.15.14,6.08.74,8.65,2.91l.37.32,1.76,1.46c3,2.5,6.14,5.08,7.46,7.05l.85,1.28-1.34.75-3.6,2c-4.68,2.66-9.13,5.19-11.66,6-.37.68-.72,1.23-1,1.67l3,.66-3.6,1.8a2,2,0,0,0-.74,2.49,7.41,7.41,0,0,0,1.91,2.84,8,8,0,0,1,2.73,7.44,3.46,3.46,0,0,0,1,3.42c.5.53,1,1,1.52,1.42,1.24,1.09,2.4,2.11,2.17,3.58s-1.67,2.23-3.08,2.85L181,273.3a2.47,2.47,0,0,0,.47,1.06,5.15,5.15,0,0,1,2.45,3.13,5.09,5.09,0,0,1,.21,2.81,76.46,76.46,0,0,0,6.47,7c3.1-2.64,8.65-7.06,11-7.06s15.91,1.18,16.48,1.23l2.61.23-7.84,10c-.41.51-9.87,12.45-12.49,14.82-2.1,1.9-11.73,7.81-13.4,7.81a24.85,24.85,0,0,1-7.11-2.51c-.59-.47-7.2-7.15-9.83-9.81l-16.37.26-.66-10.84c-4.07-4.2-10-10.23-12.71-12.95-.32,1-.62,1.85-.89,2.62a26.83,26.83,0,0,0-1.19,3.94l0,.27-.14.24a8.47,8.47,0,0,1-2.43,2c-11.94,8.44-10,13-9.08,15.24,3.32,7.7,11.5,19.77,11.58,19.89a8.49,8.49,0,0,1,1.21,6.15,6.92,6.92,0,0,1-3.66,4.37c-3.15,2.55-9,8.91-9,10.47Zm-40.7-47.39,21.14,21.91c1.78,1.85,5.95,6.38,6.35,8.39.15.65,2,2.39,3,3.33a11.76,11.76,0,0,1,2.63,2.95,22.75,22.75,0,0,0,5.29,6.06c2.26-4.31,9.41-10.54,9.5-10.61l.22-.14a4.29,4.29,0,0,0,2.36-2.61,5.65,5.65,0,0,0-.81-3.9c-.33-.49-8.4-12.39-11.83-20.36-3.74-8.91,5.93-15.74,10.06-18.66.57-.4,1.2-.85,1.52-1.11a34.84,34.84,0,0,1,1.24-4c.44-1.28.95-2.73,1.48-4.45v-.74l.89-.36c1.13-.46,1.13-.46,16.31,15.22l.36.38.56,9.18,14.87-.23.43.43c3.59,3.63,9.48,9.57,10,10a32.9,32.9,0,0,0,5.23,1.86c1.56-.57,9.36-5,11.59-7.06,2-1.77,8.81-10.24,12.17-14.47l4.6-5.86c-4.14-.35-11.91-1-13.62-1-1.23.08-6.25,3.79-10.17,7.22l-1,.86-.94-.91c-9-8.73-8.63-9.58-8.25-10.48l.09-.17a3.48,3.48,0,0,0-1-2.6c-1.86-.74-2.26-3.42-2.33-4.23l-.08-.87,12.89-8a7.28,7.28,0,0,0,1.36-.72,14.79,14.79,0,0,0-1.1-1c-.52-.46-1.11-1-1.7-1.59a6.24,6.24,0,0,1-1.78-5.63,7.13,7.13,0,0,0,0-2.25,7,7,0,0,0-2-3,10,10,0,0,1-2.53-4,4.94,4.94,0,0,1,.76-4.58c-.27-.91.25-1.72.84-2.64a21,21,0,0,0,1.18-2l.31-.61.67-.14c1.92-.41,7-3.31,11.52-5.86l2.15-1.22a72.59,72.59,0,0,0-5.92-5.24l-1.78-1.48-.38-.32c-2.48-2.1-2.69-2.27-10.5-2.27h-3.69L181,216.8c1.89-1.7,3-2.71,4.45-3.92,1.08-.93,2.3-2,4.1-3.58,3.76-3.32,8.56-11.58,9.21-14.1-1.32-.9-4.84-2.73-7.28-4s-4.6-2.39-5.67-3.08a4.11,4.11,0,0,1-2.12-2.61c-.19-1.27.61-2.21,1.38-3.13l.41-.49a21.91,21.91,0,0,0,3.67-10.77c.46-6.07,5.66-11,8.82-11,2.23,0,4.54,1.38,7.08,4.21a53.05,53.05,0,0,1,4.11,7.06c1.27,2.36,2.83,5.27,3.47,6.12,1.63,1.15,5.89,1.57,8.94.87s4-3.75,4.87-6.29a15.06,15.06,0,0,1,1-2.46,13.78,13.78,0,0,1,3.27-3.41,11.84,11.84,0,0,0,3.18-3.38c.37-.85,1.2-2.5,2.16-4.4,1.79-3.56,4.79-9.52,5-10.85l0-.23c.26-1.78.26-1.78-1-4.2a21.71,21.71,0,0,1-1.8-6.94c-.22-1.5-.45-3-.84-4.6a10.12,10.12,0,0,1,.6-6.63,5.1,5.1,0,0,0,.5-2c-.2-2.86.77-5.32,2.53-6.43s2.68-.62,4.73.19l1.72.66c2.83,1.05,3.46,1.74,4.06,3.41a9,9,0,0,0,.46,1.11,11.22,11.22,0,0,1,.59,1.42c.23.65.25.72,2.19,1.26a1.65,1.65,0,0,0,1.5-.4c2-1.42,3.55-5.23,3.7-7.76.14-2.36-.11-2.75-.43-3.26a6.06,6.06,0,0,1-.73-1.52,5.41,5.41,0,0,0-.89-1.53,4.72,4.72,0,0,1-1.21-3.13c.13-2.52,3-4.26,5.68-4.81a24.51,24.51,0,0,1,7,.17l.35,0h0l.43,0c4.89.6,6.19.09,6.47-.09l.68-.41c1.36-.8,1.73-1,2-2.21.41-1.72,1.73-3,3.12-4.37a26.14,26.14,0,0,0,2-2.06,3,3,0,0,1,3.41-1.08,6.18,6.18,0,0,1,3.74,4.93c.13,2.92-6.8,11.68-6.87,11.76-.48.61-2.19,3.06-4.17,5.89-6.61,9.5-12.22,17.46-13.86,18.68a6,6,0,0,0-2,2.82c2.68-.79,4.87-.71,6,.22a2.08,2.08,0,0,1,.8,1.82,34,34,0,0,0,.37,6.35c.43.71,4,2,5.3,2a41.91,41.91,0,0,1,4.89.51l1.71.23a5,5,0,0,1,1.59.44l.44-.25a11.39,11.39,0,0,1,3.77-1c1.67-.28,3.56-.59,4.59-1.44,2.31-1.9,8-3,9.36-3.27l.21-.12-.3-14.82-15.63.72-.24-1.2c-.33-1.68-3.07-16.5,2.27-20.34a44.9,44.9,0,0,1,6.8-3.5c5.77-2.62,13.66-6.22,15-10.92,1.2-6.64-5.47-10.36-5.76-10.52l-1.44-.79,8.4-11.12-9.6-6.7-.16-.35c-1.41-3.06-3.14-6-3.77-6.42a5.53,5.53,0,0,0-2,.37,7.89,7.89,0,0,1-3.46.46,23.62,23.62,0,0,0-4-.08,27.52,27.52,0,0,0,2.33,5.41c1.91,2.93,2,9.32,1.67,11.28-.61,3.24-8.57,2.4-11.18,2.13l-1.46-.15.21-1.46c.25-1.77.67-6.86-.35-9.39-1.46-2.38-1.43-7.6-1.26-13.18V51c0-1.55-.74-5.47-1.5-9.26-1.45-7.21-2.35-12.11-1.75-14.37.76-3.47,1-4.79-4-8.64A141.48,141.48,0,0,1,261.39,8.3c-1.56,3.14-6.53,13.11-9.58,18.92C249,38.08,237.71,51.78,232.5,56.4c-4.11,3.65-17.88,9.78-27,13.83-1.8.8-3.38,1.5-4.6,2.06-5.84,2.67-20.63,7.43-30.42,10.58l-6.34,2.05L164,85c-4.77,1-12.23,6.14-22.18,15.24l-.59.54c-2.57,2.33-25.59,20.18-26.56,20.94-.8.63-19.35,15.15-24.09,18.08-.66,1.47-2.31,7.52-3.54,12-1.39,5.1-2.71,9.91-3.42,11.58l-.1.24-.18.19c-1.82,1.9-9,18.63-13.13,28.72l-.08.16c-2.76,4.87-5.74,10.48-6,11.44l-.08.41c-.35,1.78-.73,3-4.3,8l-.07.09c-12.5,14.77-16.32,20.7-17.3,23.07-1.17,4.85-5.18,33.91-5.74,39.77,1.9,2.26.84,6.32.2,8.2l9.39,8.58-1.72,2.32,2,2.69-.44.8c-1.07,1.95-1.81,3.22-2.36,4.05l1.31,1,2.12,1.57.24.18.15.26c2,3.6,8.57,8.11,12.38,9.76l1,.42-.13,1.05c0,.58,1.48,2.28,3.08,3.43l.17.12,6.79,8.78a38.69,38.69,0,0,0,5-7.08c2.59-4.82,2.8-5.79,3.63-9.67.45-5.11,5.45-11.5,5.66-11.78Zm100.68,12.6h0Zm-145-10.64h0Z"/></svg>