<svg id="Layer_1" data-name="Layer 1" xmlns="http://www.w3.org/2000/svg" viewBox="0 0 350 350"><defs><style>.cls-1{fill:#999;}.cls-2{fill:#f90;}</style></defs><title>M</title><path class="cls-1" d="M343.11,244l-5.73-1.27.56-5.89-.72.24-.72,5.41-6.2-1.75-4.69-5.89-10.1-7.71,1.35-4-.56-3.82s-4.45-3.1-5-3a15.11,15.11,0,0,0-2.7,1c-.24.16-3.58,4.45-3.58,4.45s-.32-.87-3.82-1.67a9.5,9.5,0,0,0-6.68,1.35l-1.83,1a11.85,11.85,0,0,1-4,1.27l-.87-1.75a2,2,0,0,1-.87-3.26l-2.47-5.41s-1.35-1.83-2.23-2.07-3-5.49-3-5.49l3.66-4-1.83-6.2a36.53,36.53,0,0,0-5.81-5.25,7.24,7.24,0,0,0-6-1l-2,1.59-2.31-.4a6.85,6.85,0,0,1-2.86-1.83,55.21,55.21,0,0,1-5.17,2.15c-1.43.4-2.78,1.75-6,1.59a18.13,18.13,0,0,1-5.73-1.27s.87-2.31,1.43-4.22a4.21,4.21,0,0,1,1.75-2.54l-2.31-3.5-5.41-1a6.63,6.63,0,0,1-1-2.54c-.16-1.35,2.23-2.86,2.23-2.86L239,172.1l-9.46-1a11.56,11.56,0,0,1-3.26-1.11s-6-.56-7.56.32-6,1.43-6,1.43l-5.17-3.58-2.23,1.31s.48,1.39-.48,1.87-2.86,1.51-2.86,1.51l-7.63-4.06s-.16-6-.16-6.6.72-3.74.4-4.85,1.67-1.59,1.67-1.59l4.29-11L190.81,142s-5.09.4-7.08,1.43-2.62-.24-2.62-.24.24-2,.4-2.47,1.91-6.6,2.15-7.48a51.92,51.92,0,0,0,.64-6c0-.87,2.15-5.65,2.15-5.65s-5.17,2.7-5.89,3.26a14.66,14.66,0,0,1-3.42,1.19l-2-.24-.56-4.06a54,54,0,0,0,1.67-5.57,12.56,12.56,0,0,1,2.07-4.06,39,39,0,0,0,0-6.68,6.85,6.85,0,0,0-7.16-.56l-4.61,3.1-2.39,4-1.67,3.34-1.91,12.49-4.06-1.11-5.25-1.51-5.57-.72-4-3.18-5.57,1.59-2.47-7.56,6.28-2-.4-2.15-1.51.64-.64-2.07s-4.85-1.83-6.6-2.62-1.67-.87-1-2.54,1.43-2,1.43-2l.48-1c.48-1-.72-2.54-3.26-5.57-.16-1.35-2.15-4.77-2.31-5.73s-2.78-3.5-4.06-5.09a15.15,15.15,0,0,0-4.14-3l-2.23.08-1.43-1.67c-2,.08-8,3.42-8,3.42s-3.66.8-4,.8-12.41,1.91-12.41,1.91H76.69l-.4,3.5H69.45l-3.9,3.18-1.35.87c-1.27-.32-7.4,2.31-7.4,2.31l-.32,1.67-5.89,2.15-.16,2.31s-6.6,3.5-7.48,4.37-.24,2.86-1.19,3.34-4.53-.48-4.53-.48l-2.07,6.52s-2.31,1-2.86,1.19a17.81,17.81,0,0,1-2.94,0,5.51,5.51,0,0,0-2.78,1.51c-1.67,1.43-1.83,0-1.83,0l-4.56,1.54s-.85,12.83-.85,13-.53,1.59-1.27,1.86a6.06,6.06,0,0,0-1.7.69c-.27.27-1.27.85-1.7,1.17s-1.27.69-1.38,1a7.33,7.33,0,0,1-1.06,1.11l-.11,7,2.23.58L14,149s-1,1.43-1.91,1.54a3.07,3.07,0,0,0-2.07.8c-.8.64-1.54.27-1.64,1.33a14.65,14.65,0,0,0-.05,2s-1.22,1.38-1.22,1.8a8.75,8.75,0,0,0,.26,1.43l1.75,1.27L9,161.07l1.8.9a8.81,8.81,0,0,0-.16,1.64c.05.48.21,1.48.05,1.64a6.24,6.24,0,0,0,.05,1.75S8.53,170.67,8,171.3a32.15,32.15,0,0,0-1.75,2.76,12.3,12.3,0,0,0,2.6.85c.64,0,3.18-.53,3.18-.53S15.26,176,16.75,176a23.57,23.57,0,0,0,4.77-1.06,22,22,0,0,1,1.38-2.65c.42-.53,1.11-1.43,1.11-1.43l1.8.37s1-1.27,1.17-1.22,1.86,1.17,1.86,1.17a12.14,12.14,0,0,0-1.17,2.23v1.17s3.13.69,3,1-.26.85,0,1.17,1.32,1.38,1.32,1.7.53.8,1,.9a7.63,7.63,0,0,0,2.17-.05,4,4,0,0,0,1.64-.64,5.58,5.58,0,0,1,2.49-.21s-.16-2.07.32-2.39a6.46,6.46,0,0,1,1.43-.58l1-2.65-2.07-1,.21-1.64s-5.78.74-6,.74.27-1.27.27-1.27-1.22,1.64-1.8.42.16-3.34.16-3.55a31.15,31.15,0,0,1,4.14-1.33l-2.23-2.81a8.07,8.07,0,0,0,.64-2c.05-.74-.21-3,.11-3.55s4.08-3.23,3.66-4.88a4.08,4.08,0,0,0-1-2.07s3.29.48,3.5-.37a2.52,2.52,0,0,0,.05-1.64A3.78,3.78,0,0,1,42,146a2.2,2.2,0,0,0,2-.5c.74-.8,1.27-.74,1.27-.74l2,1.59s2.28.05,2.92.05,1.59.11,1.59.11l1.11.16v2.81l1.22.53v2s2.7-1.27,2.92-.8a8.89,8.89,0,0,0,.64,1.64,24,24,0,0,1,1.38,2.33s1.86-.48,2-.16a3.18,3.18,0,0,1,0,2.12c-.32.69-.21,1.86-.37,1.91s-1.17-.64-1.22-.21-.48,7.05-.48,7.05,2.54,1.22,3.18,1.64.64,1.27,1.38,1.43,1.43.37,1.43.37a24.2,24.2,0,0,1,1.59,2.54,2.54,2.54,0,0,0,.26.69,2.8,2.8,0,0,0,2.07-.42,22.26,22.26,0,0,0,2-1.27A23.09,23.09,0,0,0,73,173.37a2,2,0,0,0,1.43.48c.21,0,.85-.11.85-.11l.9,3.13a6.74,6.74,0,0,0,1.22,1.86s1.11-.32,1.48.27a2.88,2.88,0,0,0,1.43,1.43c.85.37,2.17,1.06,2.17,1.38s.9-1.06,1.38.11a4.1,4.1,0,0,1,.42,1.7l-.74.05s-.16.9,1,1.8,1.75.64,2,1.27,0,.42.74,1.17,1.33,1.17,1.33,1.75v3.13l3.76,5.2,2.23,1.7,3.08-.11,1.64,3.87s2.7,1,2.7,1.33,1.17.9,1.17.9l.42,1.22s2.7-.64,4.4.74a10.89,10.89,0,0,1,2.76,2.76A11.48,11.48,0,0,0,112,212s3.08,1.59,3.29,3.18a8.54,8.54,0,0,1,2.23,2.76s-2.86-1-4.45,0a4.21,4.21,0,0,0-1.91,2.54l-3.18.74L106.94,224h-2.76s-2.12.74-2.12,1.7a17.13,17.13,0,0,0,.32,2.54s-.42,1.06-.53,1.38-.42,1.59-.64,2-1.17,1-1.06,1.7a12.2,12.2,0,0,1,.21,1.48c0,.42-.53.53,0,1.48a3.83,3.83,0,0,1,.53,2c.11.85.32,1.91.32,1.91a3.63,3.63,0,0,1,.74,1.38c.11.64.21,1.38.21,1.38l.85.74a8.6,8.6,0,0,1,1,2.86c.21,1.59.21,5.09.21,5.09l-.11,1.8,1.56.66a4.16,4.16,0,0,0,1.35,1.67,12.74,12.74,0,0,0,3,1.83c.87.32,2.07.72,2.07.72s.87-1.19,4.77,0a11.29,11.29,0,0,1,3.5-.56c.8-1.83,3-.87,4.06-.72s5-.8,5-.8L129.1,254l8.43-.8c.8-.08,1.35-1,2.23.24,0,2.31-2.7,5.09-2.7,5.09a12.72,12.72,0,0,0,6.36-1.83c1.43.32,1.35,3.9,1.35,3.9l.16,2.15a3.73,3.73,0,0,0-1.67,1c-1,.87-2-.32-2-.32a25.59,25.59,0,0,1-2.23,2.94c2.39-1.91,2.47-.56,4.29-.8s6.84-.24,6.84-.24-.56-3.74-.48-4.29,0-3.66,0-3.66l8.35-1.19,2.86,1a38.33,38.33,0,0,1,7.87,2.62c-.4-1.27-.32-3.1.4-3.42S174,257,174,257l.16-.87L170,254.81l-.72-6.36-2.15.56-2.23-7.16,6.76-2,2.47,5.09,4.45-.4,1,.64,2.78-.56a12.58,12.58,0,0,1,1.51,2.07c.32.72,1.91.32,1.91.32a6.82,6.82,0,0,1,1.27,1.51c.16.48-1,3.42-1,3.42l2.78-2a20.93,20.93,0,0,1,.4-4.45c.48-2.31,2.39-.08,2.39-.08s2,.72,5.09,2a8.28,8.28,0,0,1,5.25.64c1.35.4,2.62,4.45,2.62,4.45l1.75.4a6.87,6.87,0,0,0,2.39.72c1.19.08,1.27.72,1.27.72l3.34-1.43,4.77,8s10.18-1.19,11.37-1.75,4.53-1.59,4.53-1.59l2.47,9.78,4.45,2.15-1-5.33a51.37,51.37,0,0,0,5.81-4.06,7.66,7.66,0,0,1,3-1.75l4.77-3.9v-1.83l3.34-.64a6.91,6.91,0,0,0,1.75-2.31c.24-1,1.59-.64,2.15,1.11,1.19,3.82-1.11,4.29-1.11,4.29s1.59-.08,2.39,2.23c2.15-1.19,6.36-.72,6.36-.72a17.55,17.55,0,0,1,6.92-2.47c1.11-1.83,3.42-2.07,4.37-2.07s1.75-.48,3.26-1.35,5.65-2.86,5.65-2.86,3.18,3.18,4.14,4.45-.64,3.9-.64,3.9l6.2.4s-.08-.64-.24-2.31S300.8,256,300.8,256l14.47-.64s1.83-2.86,2.7-3,1.51,1.91,1.51,1.91H322c6.28,0,8.67.64,9.07.8a7,7,0,0,0,2.23-.56l4.06,1.11a4.83,4.83,0,0,1,1.11-2.47c.87-.8,5.33-.4,5.33-.4Z"/><path class="cls-2" d="M242.85,271.95l-7.59-3.66-2.26-9c-1.07.35-2.34.79-2.93,1.06-1.26.59-8.68,1.51-11.81,1.87l-.91.11-4.61-7.68-3.93,1.69-.17-1.34h0a8,8,0,0,1-2.77-.79l-2.37-.54-.25-.78a10.21,10.21,0,0,0-1.74-3.54c-.29-.09-.56-.19-.83-.29a6.1,6.1,0,0,0-3.75-.28l-.39.06-.36-.15c-3-1.24-5-2-5-2l-.35-.13-.24-.29,0,0a19.65,19.65,0,0,0-.27,3.58l0,.76-7.37,5.27,1.83-4.52a24.87,24.87,0,0,0,.89-2.54l-.3-.34a2.51,2.51,0,0,1-2.72-1.26,7.12,7.12,0,0,0-.76-1.09l-2.51.5-1.11-.68-5,.44-2.37-4.89-4.23,1.24,1.4,4.49,2.42-.63.8,7.08,4.53,1.45-.65,3.56-1.45-.33a31.62,31.62,0,0,0-3.73-.65,4.16,4.16,0,0,0,.15,1.63l1,3.34-3.07-1.67a37,37,0,0,0-7.5-2.49l-.18-.05-2.53-.91-6.76,1c0,1,0,2.22,0,2.63s.24,2.3.48,3.89l.24,1.63h-1.64s-4.94,0-6.66.23a4.88,4.88,0,0,1-2-.15c-.43-.11-.61-.15-1.62.65l-1.95-2a24.34,24.34,0,0,0,2.09-2.76l1.06-1.68,1.24,1.55.05,0a7.47,7.47,0,0,1,1-.7l-.09-1.2v-.07a8.2,8.2,0,0,0-.22-2,15,15,0,0,1-6.08,1.43h-3.34l2.32-2.4a10.87,10.87,0,0,0,2-3,2.79,2.79,0,0,1-.41.07l-7,.66.29,2-1.25.3c-1.28.31-4.38,1-5.56.82-.21,0-.46-.09-.74-.16-1.5-.36-1.69-.22-1.8,0l-.39.91-1-.06a10.36,10.36,0,0,0-3,.5l-.41.12-.41-.12c-2.21-.68-3.11-.45-3.33-.36l-.5.68-1-.33s-1.21-.4-2.1-.73a14.2,14.2,0,0,1-3.4-2,6,6,0,0,1-1.51-1.69l-2-.85.17-2.8h0s0-3.35-.2-4.82a7.24,7.24,0,0,0-.68-2.16l-1-.92-.07-.52s-.1-.73-.21-1.34a2.49,2.49,0,0,0-.42-.69l-.24-.28-.08-.36s-.22-1.12-.33-2c0-.21,0-.38-.05-.53a1.74,1.74,0,0,0-.31-1,2.39,2.39,0,0,1-.19-2.35c0-.09,0-.2-.06-.35s-.08-.44-.12-.75A2.87,2.87,0,0,1,99.81,231l.15-.15c.1-.26.29-.92.37-1.21s.13-.45.16-.56.26-.71.41-1.07a15.82,15.82,0,0,1-.27-2.4c0-1.77,2.15-2.71,3.07-3l.23-.08h2l1-2.55,3.16-.74a5.63,5.63,0,0,1,2.26-2.56,4.58,4.58,0,0,1,1.89-.59l-.27-.24-.07-.53c-.08-.44-1.33-1.48-2.53-2.11l-.19-.1L111,213a12.91,12.91,0,0,1-1.45-1.81,9.54,9.54,0,0,0-2.47-2.44,4.29,4.29,0,0,0-3.18-.46l-1.24.29-.66-1.91a3.35,3.35,0,0,1-1.17-1,21.72,21.72,0,0,0-2-.87l-.57-.21L96.73,201l-2.61.09L91.33,199l-4.16-5.74V189.8c-.1-.12-.32-.33-.49-.49l-.42-.41a2.87,2.87,0,0,1-1-1.43,6.08,6.08,0,0,1-1.57-.88,3.46,3.46,0,0,1-1.54-3.17l0-.18a1.56,1.56,0,0,1-.31-.12l-.79-.39v-.32a11.82,11.82,0,0,0-1.33-.68,3.86,3.86,0,0,1-1.86-1.65l-.1,0-.85.24-.59-.65a7.46,7.46,0,0,1-1.53-2.42l-.57-2a3.37,3.37,0,0,1-2.15-.8,13.54,13.54,0,0,1-1.47-1.62c-.29.18-.63.39-1,.6a4.14,4.14,0,0,1-3.19.54l-.53-.17-.28-.48a4,4,0,0,1-.4-1c-.15-.29-.63-1-1.11-1.74l-.85-.21A2.6,2.6,0,0,1,61.55,169a2.17,2.17,0,0,0-.17-.26c-.36-.24-2-1-3-1.53l-.86-.41.06-1c.1-1.56.43-6.7.49-7.14a1.55,1.55,0,0,1,.78-1.18,1.58,1.58,0,0,1,.69-.2,3.56,3.56,0,0,1,.24-.74.46.46,0,0,0,0-.09l-.4.09-1.08.28-.53-1c-.42-.78-1-1.73-1.15-2a2.67,2.67,0,0,1-.6-1.11c-.4.15-.89.35-1.33.55l-2,.95V151l-1.22-.53v-2.51c-.28,0-.89-.08-1.29-.08-.64,0-2.95-.05-2.95-.05h-.47l-1.7-1.34,0,.05a3.16,3.16,0,0,1-1.93,1,.51.51,0,0,0,0,.1,3.82,3.82,0,0,1-.06,2.28c-.1.4-.36,1.44-2.59,1.57l0,.17c.53,2.05-1.67,4-3.28,5.5l-.47.43a16.55,16.55,0,0,0,0,1.67c0,.52,0,1,0,1.29a6.71,6.71,0,0,1-.42,1.68l1,1.31,1.77-2.33L38,164.24,39.4,166l-2.08.56-.21.06-1,2.65,3.89-.5,1.82-.23L41.51,171l2.3,1.06-1.64,4.56-.71.2a7.15,7.15,0,0,0-.71.25,8,8,0,0,0,0,1.25l.13,1.73-1.72-.21a4.59,4.59,0,0,0-1.65.06l-.15.08a5,5,0,0,1-1.94.7,8.84,8.84,0,0,1-2.7,0,2.79,2.79,0,0,1-2.07-1.88c-.17-.22-.53-.62-.7-.8l-.35-.39a2.06,2.06,0,0,1-.47-1.24c-.52-.15-1.2-.32-1.77-.45l-1.11-.25v-2.3a1.63,1.63,0,0,1,.11-.61l-1.77-.37-.59.75a20.7,20.7,0,0,0-1.19,2.35l-.26.57-.6.19a23.64,23.64,0,0,1-5.21,1.13,15,15,0,0,1-4.9-1.52,23,23,0,0,1-3,.46,10.44,10.44,0,0,1-3.16-1l-1.46-.63L5,173.35a30.54,30.54,0,0,1,1.89-3c.27-.32,1.37-2.06,2.38-3.71a4.33,4.33,0,0,1,.06-1.9c0-.22-.06-.58-.08-.75l0-.27a5.13,5.13,0,0,1,0-1l-1.72-.86.12-2-1.53-1.12L6,158.3a8.85,8.85,0,0,1-.31-1.79c0-.31,0-.86,1.21-2.31A15.81,15.81,0,0,1,7,152.55a2.29,2.29,0,0,1,1.76-2.11,1.23,1.23,0,0,0,.41-.18,4.42,4.42,0,0,1,2.8-1.1,3,3,0,0,0,.73-.7l.07-.4-2-.53.13-8.73.46-.41c.3-.26.64-.6.76-.74a3.11,3.11,0,0,1,1.32-1.12c.16-.1.33-.19.45-.28s.49-.34.8-.54.65-.42.76-.51a4,4,0,0,1,1.67-.82l.45-.15a2.75,2.75,0,0,0,.43-.76c0-.6.19-3,.84-12.87l.06-.95,7.13-2.4.06.53a6.35,6.35,0,0,1,3.24-1.55h.19a18.58,18.58,0,0,0,2.51,0c.2-.06,1.13-.45,2-.86l2.28-7.2,1.31.35a16.26,16.26,0,0,0,3.33.57h0c0-.15,0-.32.05-.46a4.05,4.05,0,0,1,1-2.6c.83-.83,4.83-3,7.12-4.25l.17-2.44,6-2.19.31-1.62.69-.3c2.57-1.1,5.78-2.33,7.55-2.43l.92-.6,4.23-3.45H75l.4-3.5H89.78c12.09-1.91,12.38-1.91,12.52-1.91s1.95-.39,3.47-.72c1.39-.76,6.37-3.41,8.48-3.49l.69,0,1.43,1.67,1.91-.07.32.16a16,16,0,0,1,4.61,3.4c.38.48.91,1.07,1.47,1.69,1.72,1.92,2.71,3,2.88,4.05a18.25,18.25,0,0,0,.84,1.92,20.09,20.09,0,0,1,1.39,3.41c2.73,3.25,4.09,5.07,3.21,6.83l-.72,1.44-.4.16a2.93,2.93,0,0,0-.73,1.22l0,.12-.15.4.49.23c1.69.77,6.47,2.57,6.51,2.59l.65.25.38,1.23,1.69-.71.95,5.11-6.11,1.93,1.6,4.9,5-1.42,4.24,3.39,5.38.71,7.75,2.2,1.7-11.13,1.82-3.64,2.55-4.25,4.87-3.28a8.23,8.23,0,0,1,8.71.54l.59.38.06.69a40.08,40.08,0,0,1,0,7l0,.39-.24.32a10.77,10.77,0,0,0-1.8,3.45,49.48,49.48,0,0,1-1.62,5.46l.36,2.63.65.08a12.85,12.85,0,0,0,2.64-.88c.75-.58,4.85-2.74,6.09-3.39l3.63-1.9-1.68,3.74a41,41,0,0,0-2,5.14,50.45,50.45,0,0,1-.68,6.34c-.2.74-2,7-2.17,7.55,0,.15-.13.63-.2,1.19a2.78,2.78,0,0,0,.43-.18c2.18-1.13,7.07-1.54,7.62-1.59l.25,0,11.53,3.28-5.13,13.12-.72.17a2.79,2.79,0,0,0-.55.21,14.88,14.88,0,0,1-.3,4c-.06.39-.12.71-.13.87,0,.36.09,3.72.14,5.71l6.24,3.31c.59-.31,1.44-.77,2-1.08a1.3,1.3,0,0,0,0-.25l-.34-1.07,4-2.36,5.46,3.78A20.42,20.42,0,0,0,218,169c1.83-1,6.87-.62,8.37-.49l.28,0,.25.13a10,10,0,0,0,2.76,1l9.46,1,.42,0,4.8,3.89-1.67,1.06a4.38,4.38,0,0,0-1.58,1.56,4.48,4.48,0,0,0,.45,1.37l5.35.94,3.5,5.31-1.37.73h0a3,3,0,0,0-1.06,1.69c-.29,1-.67,2.12-1,3a16.8,16.8,0,0,0,4,.71,7.35,7.35,0,0,0,4-.92,9.1,9.1,0,0,1,1.52-.62,51.63,51.63,0,0,0,4.95-2.07l.92-.43.7.74a5.39,5.39,0,0,0,2.08,1.41l1.67.29,1.69-1.35.23-.08a8.66,8.66,0,0,1,7.3,1.21,37.63,37.63,0,0,1,6.07,5.49l.21.23,2.14,7.27-3.58,3.9a23.49,23.49,0,0,0,2,3.93,8.14,8.14,0,0,1,2.71,2.49l.15.25,2.84,6.23-.58.69a1,1,0,0,0-.23.6c0,.07.17.25.61.46l.46.21.62,1.25a9.58,9.58,0,0,0,2.49-.92l1.79-1a10.88,10.88,0,0,1,7.73-1.52,14.17,14.17,0,0,1,3.24,1.08c2.66-3.4,2.85-3.53,3.05-3.66a14.58,14.58,0,0,1,3.29-1.18c.52-.07,1.11-.16,6,3.26l.5.35.7,4.76-1.13,3.34,9.54,7.34,4.41,5.53,4.19,1.18.62-4.66,3.62-1.21-.64,6.8,5.53,1.23.83,11.46-1.66-.15a15,15,0,0,0-4.31.09,3.72,3.72,0,0,0-.61,1.56l-.23,1.59L333.32,256c-2,.72-2.52.5-2.82.38,0,0-2.05-.69-8.54-.69h-3.51l-.31-1a4.7,4.7,0,0,0-.2-.52,17.53,17.53,0,0,0-1.47,2l-.4.62-15.9.7-.45-.52.14,1.15-10.25-.66,1.21-2a4,4,0,0,0,.71-2.32c-.58-.77-2.21-2.47-3.29-3.58-1.29.63-3.62,1.78-4.64,2.37l-.13.07c-1.53.88-2.54,1.47-3.84,1.47-.39,0-2.36.07-3.16,1.39l-.35.57-.66.1a16.43,16.43,0,0,0-6.32,2.23l-.44.3-.53-.06c-1.46-.16-4.25-.16-5.52.55l-1.48.82-.55-1.6c-.41-1.19-1-1.27-1.05-1.27V255l-.29-1.39c.32-.12.52-1,.05-2.47a10.25,10.25,0,0,1-1.61,1.81l-.29.26-2.57.49v1.33l-5.53,4.51-.29.08a6.28,6.28,0,0,0-2.39,1.38,40.64,40.64,0,0,1-5.23,3.74Zm-5.17-5.64,1.31.63-.68-3.52.84-.51a47.89,47.89,0,0,0,5.54-3.85,8.92,8.92,0,0,1,3.34-2l4-3.3v-2.33l4.08-.78a5.11,5.11,0,0,0,1-1.34,2,2,0,0,1,1.92-1.6c1.25,0,2.43,1,2.95,2.63a5.78,5.78,0,0,1,0,4.37,4.63,4.63,0,0,1,.65.79,16.63,16.63,0,0,1,5.32-.38,19.66,19.66,0,0,1,6.45-2.31,6.85,6.85,0,0,1,5.19-2.18c.52,0,1.09-.31,2.42-1.09l.13-.07c1.54-.89,5.57-2.83,5.74-2.91l.91-.44.71.71c.13.13,3.26,3.27,4.27,4.61a3.86,3.86,0,0,1,.34,3.46l2.51.16-.06-.65a1.72,1.72,0,0,1,1-1.88c.69-.29,1.6-.39,3.82,2.05l13.08-.58c1.89-2.79,2.89-3,3.24-3,1.08-.2,2.07.5,2.73,1.89H322c6,0,8.52.56,9.31.8a10.92,10.92,0,0,0,1.46-.47l.44-.17,3.14.86a4.71,4.71,0,0,1,1.15-1.77c.73-.66,2.32-1,4.75-.87l-.44-6.08-4.07-.9v0l-.81-.23-1-.23v-.06l-6.38-1.8-4.87-6.1-10.77-8.23,1.57-4.62-.42-2.87c-1.46-1-3.09-2-3.75-2.37-.5.14-1.4.47-1.79.65-.47.55-2,2.45-3.31,4.16l-1.57,2-.79-2.16a8.67,8.67,0,0,0-2.89-1,8.14,8.14,0,0,0-5.58,1.15l-.09.06-1.83,1a13.27,13.27,0,0,1-4.52,1.45l-1,.11L286.78,223a3.35,3.35,0,0,1-1.73-2.17,3.4,3.4,0,0,1,.32-2.23L283.28,214a6.49,6.49,0,0,0-1.42-1.45c-.49-.13-1.5-.41-3.91-6.3l-.34-.83,3.72-4-1.51-5.12a34.55,34.55,0,0,0-5.34-4.79,5.87,5.87,0,0,0-4.59-.92l-2.25,1.8-.62-.1-2.32-.4a6.63,6.63,0,0,1-2.89-1.54,42.42,42.42,0,0,1-4.52,1.83,7,7,0,0,0-1.05.45,10.1,10.1,0,0,1-5.36,1.19,19.48,19.48,0,0,1-6.22-1.39l-1.24-.54.48-1.26s.86-2.28,1.4-4.11a6.37,6.37,0,0,1,1.26-2.39l-1.3-2-5.4-1-.34-.5a8,8,0,0,1-1.18-3.17,3.84,3.84,0,0,1,1.37-3l-1.25-1-9.05-1a12,12,0,0,1-3.5-1.13c-2.87-.25-5.86-.17-6.48.17-1.78,1-6,1.54-6.47,1.6l-.54.07-4.87-3.37-.62.37a2.56,2.56,0,0,1-1.38,2.4c-.94.47-2.82,1.49-2.82,1.49l-.67.36-9-4.8,0-.83c0-.62-.16-6.08-.16-6.64a9.36,9.36,0,0,1,.16-1.29,14.88,14.88,0,0,0,.29-3.17,2.23,2.23,0,0,1,.22-1.75,3.51,3.51,0,0,1,1.74-1.37l3.48-8.9-8-2.29a23.3,23.3,0,0,0-6.28,1.26,3.84,3.84,0,0,1-3,.42,2.69,2.69,0,0,1-1.55-1.28l-.19-.38.05-.42a20.72,20.72,0,0,1,.46-2.75c.13-.41,1.87-6.46,2.12-7.4a53.88,53.88,0,0,0,.59-5.67,9.07,9.07,0,0,1,.71-2.51c-1.1.6-1.94,1.08-2.16,1.25a13.43,13.43,0,0,1-4,1.45l-.25.06-3.32-.4-.75-5.48.12-.33a50.56,50.56,0,0,0,1.61-5.35,12.61,12.61,0,0,1,2.08-4.32,39,39,0,0,0,0-5.32,5.29,5.29,0,0,0-5.05-.2l-4.31,2.9-2.2,3.66-1.55,3.09-2.12,13.84L156.16,128,151,126.49l-5.85-.75-3.72-3-6.18,1.76-3.33-10.21,5-1.58-.61-2c-1.39-.53-4.64-1.78-6-2.41-2.32-1.05-2.69-1.92-1.82-4.22l0-.12a5.45,5.45,0,0,1,1.66-2.46l.25-.5c-.17-.75-2.08-3-3-4.14l-.27-.33,0-.42a17.21,17.21,0,0,0-1.23-3,12.36,12.36,0,0,1-1.07-2.67,23.74,23.74,0,0,0-2.19-2.62c-.59-.65-1.14-1.27-1.58-1.81a12.63,12.63,0,0,0-3.35-2.48l-2.54.09-1.35-1.58a42.58,42.58,0,0,0-6.8,3.13l-.18.1-.2,0c-3.3.72-4,.81-4.2.83-.69.08-7.68,1.17-12.27,1.89l-.22,0H78l-.4,3.5H70l-3.63,3-1.87,1.21-.6-.15h0a30.71,30.71,0,0,0-5.78,1.94l-.33,1.71L52,101.38l-.15,2.17-.7.37A74.45,74.45,0,0,0,44,108a4,4,0,0,0-.15.89,3,3,0,0,1-1.41,2.71c-.92.46-2.62.28-4.22-.06l-1.86,5.87-.58.26c-.56.25-2.45,1.09-3.05,1.26a13.26,13.26,0,0,1-3.27.06,5.33,5.33,0,0,0-1.93,1.16,2.81,2.81,0,0,1-2.87.84,1.9,1.9,0,0,1-.43-.24l-2.66.9c-.33,5-.77,11.67-.78,12a4.19,4.19,0,0,1-2.21,3.14l-.61.21c-.22.07-.51.17-.64.22a9.26,9.26,0,0,1-1.13.8c-.25.16-.49.31-.64.42a7.89,7.89,0,0,1-.73.46l-.35.21a5.68,5.68,0,0,1-.8.89l-.08,5.28L16,146l-.66,3.6-.16.24A4.75,4.75,0,0,1,12.24,152c-.82.09-.84.09-1.34.49a3.69,3.69,0,0,1-1.14.61,13.56,13.56,0,0,0,0,1.55l0,.58-.38.44a10.77,10.77,0,0,0-.84,1.07c0,.11,0,.25.08.39l2,1.42-.1,1.7,1.92,1-.19,1a8.23,8.23,0,0,0-.14,1.24l0,.22a4.38,4.38,0,0,1,0,2c0,.25,0,.71.1,1.11l.07.5-.26.43c-.38.63-2.31,3.78-2.88,4.47a12.9,12.9,0,0,0-.76,1.13,3.42,3.42,0,0,0,.56.15c.27,0,1.71-.26,2.85-.5l.48-.1.44.21a14.65,14.65,0,0,0,4.09,1.45,18.41,18.41,0,0,0,3.75-.81,15.24,15.24,0,0,1,1.29-2.37c.42-.52,1.09-1.41,1.09-1.41l.54-.71,1.81.38c.65-.78,1.26-1.23,2.08-1,.23.06.46.11,2.31,1.37l1.13.77L30,171.9c-.35.55-.71,1.18-.88,1.53,2.33.6,2.55,1,2.77,1.36l.31.55L32,176l0,.07,0,0a5.45,5.45,0,0,1,1.32,1.84h0a7.21,7.21,0,0,0,1.62-.08,2.29,2.29,0,0,0,1-.4l.16-.09a4.36,4.36,0,0,1,1.74-.42c.13-1.55.7-1.94,1-2.11a5.59,5.59,0,0,1,1.12-.54l.28-.78-1.83-.85.11-.86c-4.09.52-4.25.52-4.35.52h-.74l-.29-.4H33a2.08,2.08,0,0,1-1.67-1.25,6.35,6.35,0,0,1,0-4.18l0-.13c.05-.92.62-1.26,3.11-2l-1.43-1.81.36-.79a6.56,6.56,0,0,0,.51-1.53c0-.21,0-.57,0-1-.07-1.55-.08-2.53.33-3.21A5.57,5.57,0,0,1,35.31,155c1.56-1.41,2.38-2.35,2.43-2.78a4.23,4.23,0,0,0-.51-1.25l-6.95-3.75,8.09,1.27a11.22,11.22,0,0,0,2,.11,2.19,2.19,0,0,0-.07-.42,4.88,4.88,0,0,1,.41-2.7l.48-1.08,1.15.27a.85.85,0,0,0,.6-.09,3.05,3.05,0,0,1,2.45-1.19l.41,0,2,1.55,2.41,0c.71,0,1.7.11,1.75.11l2.38.34v3.11l1.22.53V150a2.64,2.64,0,0,1,1.9-.12,1.57,1.57,0,0,1,.9.83,9,9,0,0,1,.3.87c.05.17.1.34.15.47a11.58,11.58,0,0,1,1,1.61c1.08-.18,2.08-.11,2.55.82a4.53,4.53,0,0,1,0,3.35,3.86,3.86,0,0,0-.13.86,1.78,1.78,0,0,1-1.07,1.8,1.5,1.5,0,0,1-.37.07c-.08,1.24-.2,3-.3,4.56.85.42,2,1,2.49,1.32a3.32,3.32,0,0,1,1,1.16l.06.1c.72.16,1.34.35,1.37.36l.47.15.28.4a23.89,23.89,0,0,1,1.64,2.58,2.59,2.59,0,0,0,.42-.19,21.61,21.61,0,0,0,1.88-1.18l1.13-.83.84,1.12a20.61,20.61,0,0,0,1.84,2.2.54.54,0,0,0,.45.15c.25,0,.69-.09.69-.09l1.25-.22.34,1.22.9,3.13a3.35,3.35,0,0,0,.46.74,2.41,2.41,0,0,1,2.08,1l.13.22c.26.43.33.53.67.68a12.18,12.18,0,0,1,1.88,1,1.85,1.85,0,0,1,1.07,0,2,2,0,0,1,1.35,1.29,5.23,5.23,0,0,1,.52,2.37l-.07.74a3.41,3.41,0,0,0,.73.37,2.25,2.25,0,0,1,1.5,1.43c0,.13.07.22.09.31l.31.31.38.37A3.34,3.34,0,0,1,90,189.65v2.67L93.38,197,95,198.23l3.54-.12,1.79,4.21c1.82.7,2.62,1.17,2.92,1.77a5.28,5.28,0,0,0,.52.3l.52.26.23.67a6.31,6.31,0,0,1,4.33,1.2,12.3,12.3,0,0,1,3,3.07,10.58,10.58,0,0,0,1,1.23c1,.52,3.07,1.84,3.68,3.56a9.45,9.45,0,0,1,2.27,3l1.2,2.87-3-1c-.91-.3-2.58-.55-3.28-.13a2.8,2.8,0,0,0-1.25,1.63l-.2.86-.86.22-2.45.57-1.14,3h-3.47a4.46,4.46,0,0,0-1,.53,18.19,18.19,0,0,0,.28,2l.08.41-.16.39s-.4,1-.5,1.3c0,.09-.07.24-.12.43a11.5,11.5,0,0,1-.59,1.77,3.25,3.25,0,0,1-.66.83l-.23.24c0,.16.05.3.07.43a5.42,5.42,0,0,1,.12,1,2,2,0,0,1-.17.8,4.41,4.41,0,0,1,.65,2.1c0,.12,0,.26,0,.42.06.51.17,1.11.24,1.48a4.37,4.37,0,0,1,.81,1.75c0,.3.1.63.14.89l.63.55.12.2a9.92,9.92,0,0,1,1.13,3.39c.22,1.67.22,5.13.22,5.28l-.05.89,1.21.51.21.58h0a2.93,2.93,0,0,0,.88,1,11.43,11.43,0,0,0,2.64,1.62l1.39.49c.87-.4,2.39-.64,5,.09a14.44,14.44,0,0,1,2.69-.48c1.3-1.62,3.54-1.08,4.56-.83l.51.11a18.2,18.2,0,0,0,3.21-.49l-.34-2.4,1.48-.14,8.42-.79a1.59,1.59,0,0,0,.23-.09,2.45,2.45,0,0,1,3.28.9l.27.37v.46a6.82,6.82,0,0,1-1,3.19,8.13,8.13,0,0,0,2.39-1.09l.51-.36.61.13c2.33.52,2.48,4.05,2.46,5.24l.25,3.37,2.11,0a13,13,0,0,1-.25-3.09c0-.32,0-2,0-3.42l0-1.26,9.95-1.42,3.11,1.12a48.82,48.82,0,0,1,5.85,1.72,2.83,2.83,0,0,1,1.42-2.44l-.55-4.88-1.87.49-3.06-9.82,9.29-2.73,2.56,5.29,3.95-.35,1,.59,3-.61.54.61a15.38,15.38,0,0,1,1.53,2,2.88,2.88,0,0,0,.49-.07l.74-.18.56.52c.31.29.58.56.81.82.06-.5.15-1,.26-1.58a2.42,2.42,0,0,1,1.72-2.11,3.18,3.18,0,0,1,2.86,1.1c.65.24,2.24.84,4.47,1.75a8.42,8.42,0,0,1,4.78.49c.22.08.44.17.68.24,1.56.46,2.68,2.82,3.32,4.61l1.16.26.17.09a5.41,5.41,0,0,0,1.81.55,3.34,3.34,0,0,1,1.52.44l3.57-1.53,4.94,8.23a100.11,100.11,0,0,0,10-1.53c1.23-.57,4.34-1.54,4.69-1.65l1.43-.44Zm93.49-12.65Zm-129.71-4.28Zm-16.27-3.25h0Zm5.49-.54ZM100,230.85Zm182.64-21h0ZM81.08,181.8s0,0,0,0ZM30.6,178.41h0Zm34.59-6.24h0ZM34,167.53q-.06.25-.09.46l.43-.57Zm-22.3-1.3,0,0Zm25-8.85Zm-28.31-.51ZM56.82,154h0Zm-42.47-14.8ZM12,137.79h0Zm5.28-.49Zm.66-3.64Zm0-.11s0,.07,0,.11S17.93,133.62,17.93,133.54Zm7.28-15.17Z"/></svg>