<svg id="Layer_1" data-name="Layer 1" xmlns="http://www.w3.org/2000/svg" viewBox="0 0 350 350"><defs><style>.cls-1{fill:#999;}.cls-2{fill:#f90;}</style></defs><title>M</title><polyline class="cls-1" points="213.28 64.14 210.87 73.53 207.5 78.35 207.5 82.2 200.28 84.13 194.5 86.53 188.24 90.87 179.09 92.79 170.91 92.79 163.2 90.38 155.98 88.94 145.39 85.57 141.54 84.13 134.8 78.47 134.8 83.16 134.8 90.87 134.8 96.64 131.43 101.46 131.43 107.23 131.43 114.46 131.43 123.12 136.24 127.46 138.17 133.23 142.5 136.18 147.8 140.16 154.54 140.16 160.32 142.38 164.17 142.38 167.54 145.27 172.35 145.27 172.35 153.4 177.65 155.86 181.5 159.23 184.39 162.6 186.31 167.42 182.46 169.34 175.24 169.34 169.46 169.34 163.2 166.45 156.95 165.01 147.32 162.12 131.43 155.86 119.87 153.4 115.06 153.4 110.73 159.23 106.87 163.57 102.54 165.49 98.69 169.34 95.32 171.75 95.32 174.64 88.58 174.64 83.76 170.31 79.43 172.23 74.14 178.01 68.36 183.79 61.14 190.53 52.47 197.75 43.32 204.97 34.66 212.19 20.21 227.12 10.58 234.34 6.25 238.19 6.25 242.52 14.44 242.52 19.73 239.15 27.91 239.15 37.06 237.23 44.77 237.23 49.58 237.23 53.91 239.63 60.66 242.52 68.36 248.78 77.02 255.52 85.21 260.82 92.43 268.04 100.13 274.3 103.98 274.3 109.76 279.11 115.54 283.93 118.43 285.86 141.06 280.56 236.87 247.82 263.35 237.71 315.83 220.38 343.75 199.67 343.75 193.9 339.42 189.08 320.16 172.23 313.42 166.45 306.2 163.08 300.42 159.71 293.2 153.4 286.94 153.4 280.68 146.23 270.09 143.34 269.12 136.18 277.79 130.83 281.16 124.57 287.9 121.2 292.23 119.75 292.23 110.5 286.48 108.65 284.29 104.35 284.29 96.16 279.24 87.25 273.94 87.25 265.96 84.96 263.2 82.42 250.35 80.75 237.35 79.79 234.85 73.76 225.92 67.59 222.91 64.14 216.65 64.14"/><polygon class="cls-2" points="118.15 287.38 114.63 285.02 103.47 275.72 99.63 275.72 91.43 269.04 84.31 261.93 76.15 256.64 67.49 249.9 59.91 243.75 53.23 240.87 49.21 238.65 37.21 238.65 27.91 240.57 20.14 240.57 14.85 243.94 4.83 243.94 4.83 237.56 9.73 233.21 19.27 226.05 33.75 211.1 42.41 203.88 51.59 196.64 60.23 189.44 67.39 182.75 73.13 177.01 78.59 171.06 84.03 168.64 89.12 173.22 93.9 173.22 93.9 171.02 97.77 168.26 101.72 164.3 106.02 162.4 109.63 158.34 114.35 151.99 120.17 152.02 131.95 154.54 147.78 160.78 157.35 163.65 163.8 165.17 169.78 167.93 182.13 167.93 184.51 166.73 183.16 163.35 180.49 160.23 176.87 157.06 170.94 154.31 170.94 146.69 167.01 146.69 163.64 143.8 160.05 143.8 154.27 141.57 147.32 141.57 141.65 137.32 136.98 134.14 135.02 128.26 130.01 123.75 130.01 101.01 133.38 96.2 133.38 75.43 142.26 82.88 145.89 84.24 156.34 87.56 163.63 89.03 171.13 91.38 178.94 91.38 187.67 89.54 193.95 85.22 199.91 82.76 206.08 81.11 206.08 77.9 209.56 72.93 211.9 63.79 214.65 64.5 212.18 74.14 208.91 78.8 208.91 83.29 200.73 85.47 195.18 87.78 188.81 92.19 179.09 94.21 170.69 94.21 162.85 91.76 155.55 90.29 144.96 86.92 140.81 85.37 136.22 81.51 136.22 97.09 132.85 101.91 132.85 122.49 137.47 126.65 139.36 132.33 143.3 135.01 148.27 138.74 154.8 138.74 160.58 140.96 164.69 140.96 168.06 143.85 173.77 143.85 173.77 152.5 178.43 154.66 182.58 158.31 185.62 161.86 188.11 168.1 182.8 170.76 169.15 170.76 162.74 167.8 156.63 166.39 146.8 163.44 131.02 157.22 119.72 154.82 115.77 154.82 111.78 160.17 107.73 164.74 103.36 166.68 99.51 170.5 96.74 172.48 96.74 176.06 88.03 176.06 83.5 171.97 80.28 173.41 75.18 178.97 69.36 184.79 62.1 191.56 53.38 198.84 44.2 206.08 35.62 213.23 21.06 228.25 11.48 235.44 7.67 238.83 7.67 241.11 14.02 241.11 19.32 237.74 27.77 237.74 37.06 235.81 49.95 235.81 54.54 238.36 61.4 241.3 69.25 247.68 77.85 254.37 86.21 259.82 93.38 266.99 100.64 272.88 104.5 272.88 116.39 282.79 118.7 284.33 140.67 279.19 236.41 246.48 262.84 236.38 315.17 219.1 342.33 198.96 342.33 194.44 338.42 190.09 319.23 173.3 312.64 167.66 305.48 164.31 299.49 160.78 292.67 154.82 286.29 154.82 279.89 147.49 268.81 144.46 267.6 135.46 276.72 129.82 280.13 123.5 287.45 119.85 290.82 118.73 290.82 111.54 285.49 109.82 282.87 104.69 282.87 96.54 278.41 88.67 273.74 88.67 265.24 86.23 262.57 83.77 250.16 82.16 236.37 81.14 233.7 74.68 224.85 68.52 222.26 65.56 216.65 65.56 216.65 62.73 223.55 62.73 226.87 66.52 236 72.83 238.32 78.44 250.45 79.34 263.83 81.07 266.67 83.69 274.14 85.84 280.06 85.84 285.71 95.79 285.71 104.01 287.48 107.48 293.65 109.47 293.65 120.77 288.44 122.51 282.2 125.63 278.86 131.83 270.65 136.91 271.37 142.22 281.47 144.98 287.58 151.99 293.73 151.99 301.25 158.56 306.85 161.83 314.19 165.25 321.08 171.16 340.47 188.13 345.17 193.35 345.17 200.39 316.49 221.65 316.27 221.72 263.79 239.06 237.37 249.14 141.38 281.94 118.15 287.38"/></svg>