<svg id="Layer_1" data-name="Layer 1" xmlns="http://www.w3.org/2000/svg" viewBox="0 0 350 350"><defs><style>.cls-1{fill:#999;}.cls-2{fill:#f90;}</style></defs><title>M</title><path class="cls-1" d="M6.6,175.43s4.85-39.53,4-43.17c0,0-.29-.58,1.27-.64,0,0,.92.61,1-1.16s-.12-6,3.55-5.89,10.86,1.5,11.88,2.08,8,2.72,11.62,2.17,22.22,0,35.05-14.42L78,112.76s12-6.41,18.38-6.85,3.38-2.51,12.48,1.3,5.63,3.27,9.39,3.35,6.67,0,6.67,0,2.05,1.5,5.84.49a3.41,3.41,0,0,1,2.95.92s4.1.2,5.35,1.16,13,.66,19.42,2.8,13.84,8.26,13.84,8.26,4,2.25,6,2.6a8.33,8.33,0,0,0,4.28,1.73s5.78,1.62,6.76,1.62a3.94,3.94,0,0,0,2.43-1.13c.8-1,3,1.71,3,1.71a3.62,3.62,0,0,0,2.45,1.13c1.34-.07,5.24,1.34,6.93,2.23s2.1-1.32,4.51.91,5.11,6.5,8.73,7.09,4.36.48,5,1.08,5.77,1.66,6.52,1.47,6.39,2.86,6.39,2.86l6.18,2.86a11.24,11.24,0,0,0,2.93.23,14.22,14.22,0,0,1,3.11,2.15,71.45,71.45,0,0,0,5.82,4.62,4.31,4.31,0,0,0,3.06,1.13c2,0,4-.93,4.33-2a7.24,7.24,0,0,0,3.06-5.81l.3-5V145l3.38-1.71,1-.54,5,5.44s-.76,2.54-.33,3.14,1.47,4,5.16,4.83,4.51-4.66,4.51-4.66h2.23s.65,7.56,2.38,8.3a36.35,36.35,0,0,0,5.37,1.43s1,.56,1.86-1.06,5.16-2.43,5.16-2.43,9.06-.41,13.41,2c0,0,4.07-2.49,8.08-.82s5.2,3.16,5.2,3.16l4,6.84s3.15,4.23,4.93,4.8c0,0,4.35,2,5.4,3.11s2.67,2.92,2.67,2.92l.23,9.32s-2.86,2.95-3.29,4c0,0-5.37,0-7.69,1.85a23.25,23.25,0,0,0-.64,3.7s-4.83,3.61-5.69,4.25c0,0-2.37,3-4.28,3.93l-1.36,2.63,3.41,7.22s.72.81,1.13.9-.64,1.36-.64,1.36l-14.3,7.6s-7.63,3.29-11.1,0-2.89-6.76-9.13-6.07c0,0-2.72.87-6.65-2.08,0,0-3.29-.29-6.53,3.87S267,231,267,231s-1.5,2.43.87,6.41c0,0-2.89,10.11-8.32,7.11s-7.74-10.86-7.74-10.86L249.49,224s-.75-3.76-7.28-4.8-15-5.43-15-5.43-7.05-2.66-12-1.73c0,0-7.11-.87-10.11-4,0,0-6.47-7.05-10.52,1s-11.1,8.84-11.1,8.84l-7.05,2.54s-3.93,4.22-3.93-1.1.17-10.34-3.12-9.59-4.62-1.1-8.09,3.64a23.59,23.59,0,0,1-6.53.06,5.19,5.19,0,0,0-.64,6.74c2.48,4-2.6,3.26-2.6,3.26L142.81,222s-7.28-1.68-5.78,2.66c0,0,4.1,1,.12,3.76,0,0-1.79,1.27-1.85,6,0,0-20.4-6.82-23.87-10.75L108,219.76s-.64-7.4-2.08-9.94-1.5-6.59-1.5-6.59-2.08-7.11-3.35-8.55-3.35-10.58-3.35-10.58-2.08-12.54-7.74-11.27c0,0-2,2.08-8.67,1.1s-13.18-4.62-17.4,1.07c0,0-11.38,1.76-15.2,4.59a22,22,0,0,1-12.6,4.85c-5.66.52-9.48-.35-10.75-1.16s-15.6-6.18-17.8-6.41l-1.27-.17Z"/><path class="cls-2" d="M261.53,246.46a5.5,5.5,0,0,1-2.67-.73c-5.87-3.25-8.32-11.36-8.42-11.7l-2.33-9.66c0-.14-.78-2.88-6.13-3.73-6.41-1-14.43-5-15.37-5.53-.73-.26-6.92-2.43-11.13-1.64l-.22,0-.22,0c-.31,0-7.65-1-11-4.41-.72-.78-3-2.69-5-2.4-1.23.17-2.33,1.2-3.26,3-4,8-10.79,9.39-12,9.59l-6.61,2.38c-.79.78-2.61,2.28-4.31,1.62s-1.83-3.14-1.83-3.94v-.76c0-2.84,0-6.73-.87-7.43a.67.67,0,0,0-.52,0,11.88,11.88,0,0,1-2.72.26c-1.6,0-2.48,0-4.54,2.84l-.35.47-.58.09a26.65,26.65,0,0,1-6.2.17,3.76,3.76,0,0,0,0,4.47c1,1.61,1.17,3,.49,4-1.13,1.75-3.93,1.46-4.48,1.39l-8.77-1.45c-1.86-.42-3.92-.39-4.31,0a.23.23,0,0,0,0,.13,3.2,3.2,0,0,1,2,2.21c.36,1.93-1.65,3.33-2.31,3.79h0s-1.2,1.14-1.24,4.86l0,1.94-1.84-.62c-2.12-.71-20.87-7.06-24.48-11.16l-3.78-4.28,0-.47c-.17-2-.84-7.5-1.9-9.36a17.39,17.39,0,0,1-1.68-7.06c-1-3.24-2.36-7.11-3-7.84-1.4-1.59-3.16-9-3.67-11.2s-1.85-8.17-4.36-9.86a2.06,2.06,0,0,0-1.41-.39c-1,.69-3.71,2-9.47,1.16-1.62-.24-3.21-.62-4.75-1C71,173,67.55,172.42,65,175.84l-.35.47-.58.09c-3.07.48-11.68,2.18-14.57,4.33a23.51,23.51,0,0,1-13.31,5.13c-5.73.52-10-.31-11.64-1.37-1.15-.7-15.2-6-17.19-6.2l-2.92-.4.74-2.73c1.85-15.11,4.56-39.81,4-42.52a1.7,1.7,0,0,1,.17-1.35,2.47,2.47,0,0,1,2-1v-.06c0-1.49,0-4.27,1.73-5.88a4.38,4.38,0,0,1,3.29-1.14c3.41.13,11.09,1.44,12.52,2.27.82.46,7.5,2.49,10.7,2,.5-.08,1.22-.13,2.13-.2,5.81-.44,21.24-1.61,32.08-13.76l.17-.19.22-.12,3.13-1.65c.49-.26,12.38-6.56,18.94-7a15.85,15.85,0,0,0,3.59-.61c2.2-.61,3.12-.67,9.53,2,3.68,1.54,5.35,2.39,6.25,2.84a2.23,2.23,0,0,0,1.49.38h1.14c3.66.09,6.56,0,6.58,0l.5,0,.4.29s1.63,1.07,4.63.27a4.75,4.75,0,0,1,3.86.91c1.38.1,4.24.41,5.58,1.36a38.83,38.83,0,0,0,5.26.59c4.42.34,9.93.76,13.82,2.06,6.26,2.08,13.24,7.66,14.19,8.43a25.39,25.39,0,0,0,5.4,2.38l.37.06.29.24a6.94,6.94,0,0,0,3.45,1.41l.31,0c2.54.71,5.62,1.49,6.33,1.56a2.45,2.45,0,0,0,1.37-.6,2,2,0,0,1,1.56-.75h0c1.43,0,2.91,1.53,3.67,2.45a2.26,2.26,0,0,0,1.29.61c1.77-.09,6,1.5,7.66,2.39.16.09.16.09.56,0,1.08-.35,2.38-.57,4.25,1.17.69.64,1.37,1.39,2.08,2.2,1.76,2,3.75,4.18,5.91,4.53,1,.17,1.83.28,2.45.36,1.67.23,2.46.34,3.23,1a22.75,22.75,0,0,0,5.33,1.18h0c.5-.11,1.53-.12,7.32,3l6,2.75a10,10,0,0,0,2.39.17l.4,0,.36.19a13.78,13.78,0,0,1,3.56,2.53,68.45,68.45,0,0,0,5.53,4.34l.19.17a3,3,0,0,0,2,.68h0a4.25,4.25,0,0,0,3-1l.15-.49.42-.26a5.76,5.76,0,0,0,2.43-4.58v-.07l.31-5.08v-1.35l4.16-2.11,1.87-1.07,6.34,6.86-.23.77a9.24,9.24,0,0,0-.4,2.12c.08.13.16.3.26.5a5.92,5.92,0,0,0,3.93,3.58,1.37,1.37,0,0,0,1.17-.18c.95-.65,1.5-2.51,1.62-3.31l.18-1.21h4.75l.11,1.29c.28,3.22,1,6.51,1.61,7.15a34.74,34.74,0,0,0,5,1.31l.12,0a1.77,1.77,0,0,0,.23-.35c1.08-2.08,5-2.95,6.16-3.17l.19,0c.37,0,8.65-.36,13.46,1.84a10.84,10.84,0,0,1,8.64-.54c4.22,1.76,5.62,3.41,5.76,3.59l.12.17,3.94,6.77c1.39,1.85,3.38,4,4.17,4.23l.16.06c.77.35,4.67,2.16,5.85,3.43s2.69,2.94,2.69,2.94l.35.39.26,10.44-.41.43a23.91,23.91,0,0,0-3,3.56l-.36.86-.94,0c-1.74,0-4.86.38-6.44,1.29a17.63,17.63,0,0,0-.47,2.8l0,.74-.59.44L327.43,204a19,19,0,0,1-4.21,3.94l-.84,1.62,3,6.39a3.86,3.86,0,0,0,.4.36,1.52,1.52,0,0,1,1,.94c.26.74,0,1.5-1,2.65l-.18.22L311,227.88c-.35.15-8.53,3.62-12.63-.27a17.37,17.37,0,0,1-2.54-3.15c-1.33-2-1.95-2.91-5.36-2.55-.76.19-3.58.61-7.35-2-.78.08-2.83.57-5,3.31-3,3.8-8.56,7.77-10,8.75-.19.56-.54,2.21,1,4.74l.31.53-.17.59c-.2.68-2,6.73-5.83,8.31A4.85,4.85,0,0,1,261.53,246.46Zm-44-36a33.44,33.44,0,0,1,10.18,2l.15.07c.08,0,8.37,4.3,14.6,5.29,7.42,1.18,8.41,5.73,8.45,5.92l2.3,9.54s2.21,7.28,7.05,10a2.22,2.22,0,0,0,2.08.22c1.92-.8,3.43-4.21,4-5.93-2.31-4.35-.61-7.2-.53-7.32L266,230l.26-.17c.07,0,6.61-4.43,9.66-8.36,3.67-4.72,7.61-4.43,7.77-4.41l.4,0,.32.24c3.21,2.4,5.31,1.88,5.39,1.85l.25,0c5.21-.58,6.63,1.53,8.13,3.77a14.78,14.78,0,0,0,2.13,2.68c2.25,2.15,7.58.56,9.51-.25l13.7-7.28-.33-.35-.14-.15-3.8-8,1.9-3.67.42-.21a15.48,15.48,0,0,0,3.78-3.53l.12-.15.16-.11,5.16-3.85a31.07,31.07,0,0,1,.63-3.29l.12-.47.38-.3c2.12-1.67,6-2,7.74-2.13a30.41,30.41,0,0,1,2.68-3.18l-.2-8.2c-.53-.59-1.56-1.72-2.3-2.51a24.58,24.58,0,0,0-4.89-2.76c-2-.73-4.75-4.21-5.54-5.27l-.09-.13L325.38,163a14.34,14.34,0,0,0-4.59-2.69c-3.27-1.36-6.77.71-6.8.73l-.7.42-.72-.4c-3.24-1.8-10.06-1.94-12.56-1.84-1.84.36-3.8,1.16-4.06,1.67a3.37,3.37,0,0,1-2,1.81,2.49,2.49,0,0,1-1.57,0,35.55,35.55,0,0,1-5.52-1.49c-1.78-.76-2.64-4.34-3.06-7.76a7,7,0,0,1-2.42,3.6,4.21,4.21,0,0,1-3.4.6,8.65,8.65,0,0,1-5.83-5.07c-.07-.14-.13-.26-.18-.34-.17-.24-.71-1-.08-3.56l-3.73-4-2.66,1.35-.28,4.71a8.52,8.52,0,0,1-3.32,6.69c-.87,1.63-3.36,2.52-5.47,2.55h-.07a5.77,5.77,0,0,1-3.92-1.46,56.15,56.15,0,0,1-6-4.83,11.34,11.34,0,0,0-2.32-1.59,13.56,13.56,0,0,1-2.92-.29l-.27-.09-6.18-2.86A44.11,44.11,0,0,0,229,146c-1.59.06-6.53-.92-7.53-1.85a5.69,5.69,0,0,0-1.75-.35c-.64-.09-1.46-.2-2.51-.37-3.15-.51-5.5-3.13-7.57-5.44-.67-.75-1.31-1.46-1.9-2-.82-.76-1-.7-1.45-.55a3.25,3.25,0,0,1-2.75-.15c-1.78-.93-5.35-2.14-6.21-2.07a4.81,4.81,0,0,1-3.56-1.58,8.67,8.67,0,0,0-1.35-1.31,5.63,5.63,0,0,1-3,1.19h-.12a53.57,53.57,0,0,1-7-1.63,9.68,9.68,0,0,1-4.64-1.82,31,31,0,0,1-6-2.69l-.2-.14c-.07-.06-7.3-6-13.39-8-3.56-1.19-9.1-1.61-13.14-1.92-4.34-.33-5.88-.48-6.69-1.1-.53-.4-2.82-.78-4.55-.86l-.51,0-.38-.35a2.07,2.07,0,0,0-1.65-.59,8.9,8.9,0,0,1-6.54-.44c-.95,0-3.37.08-6.34,0h-1.08a4.44,4.44,0,0,1-2.77-.69c-.86-.44-2.47-1.25-6.06-2.76-5.8-2.43-6.23-2.31-7.68-1.9a18.53,18.53,0,0,1-4.16.71c-6,.41-17.69,6.62-17.81,6.69l-2.9,1.53C64.21,128.37,48.08,129.59,42,130c-.85.06-1.52.11-1.92.18-4,.61-11.4-1.69-12.53-2.34A56,56,0,0,0,16.31,126a1.51,1.51,0,0,0-1.22.36c-.82.78-.84,2.78-.85,3.86v.28a2.56,2.56,0,0,1-1.16,2.44,1.83,1.83,0,0,1-1,.21c.21,7-3.29,36-4.07,42.38,3.16.59,16.69,5.7,18.07,6.58,1,.62,4.53,1.43,9.86.94a20.5,20.5,0,0,0,11.88-4.58c3.59-2.66,12.87-4.36,15.27-4.76,3.76-4.56,8.9-3.32,13.88-2.11,1.48.36,3,.73,4.5.95,5.64.84,7.47-.71,7.48-.72l.29-.3.37-.05a4.91,4.91,0,0,1,3.9.76c4,2.67,5.4,10.75,5.55,11.66.94,4.11,2.39,9.12,3,9.87,1.37,1.56,3.14,7.35,3.65,9.09l.05.18v.19s.07,3.72,1.32,5.91c1.38,2.43,2,8.25,2.22,10l3.16,3.58c2.19,2.49,13.46,7,21.51,9.75.45-3.7,2-5,2.32-5.23a4.51,4.51,0,0,0,1.06-.93,2.71,2.71,0,0,0-.69-.29l-.74-.19-.26-.72a3.36,3.36,0,0,1,.47-3.57c1.75-2,5.78-1.21,7-.93l8.64,1.43a3.93,3.93,0,0,0,1.63-.12,3,3,0,0,0-.46-1,6.58,6.58,0,0,1,.89-8.55l.52-.46.69.13a20.62,20.62,0,0,0,5.49,0c2.5-3.23,4.19-3.5,6.44-3.51a9.06,9.06,0,0,0,2.11-.19,3.31,3.31,0,0,1,2.92.57c1.94,1.55,1.94,5.3,1.93,9.65v.76a4.74,4.74,0,0,0,.12,1.19,5.5,5.5,0,0,0,1.36-1.06l.23-.25,7.69-2.73c.25,0,6.37-.87,10-8.07,1.37-2.72,3.19-4.26,5.4-4.57,3.85-.53,7.28,3.11,7.42,3.27,2.08,2.16,7,3.24,9,3.51A14.21,14.21,0,0,1,217.51,210.46Zm108.13,5.77h0Zm-37.53-57.62Zm-13.8-8.06h0Zm-45-4.56-.23,0Zm-.36,0ZM11.36,130.81ZM139.83,111.9Z"/></svg>