<svg id="Layer_2" data-name="Layer 2" xmlns="http://www.w3.org/2000/svg" viewBox="0 0 350 350"><defs><style>.cls-1{fill:#999;}.cls-2{fill:#f90;}</style></defs><title>M_</title><path class="cls-1" d="M337.8,119.15a61.63,61.63,0,0,1,1.8-9.89c.67-2.79,2.1-8.21,1.7-12.33a3.16,3.16,0,0,1-.41-1.06c0-.26-.07-.77-.12-1.34A4.39,4.39,0,0,0,338.65,92a2.55,2.55,0,0,1-.86.23c-.68,0-.78,1.07-1.46,1.16s-.39-.78-1.55-1.36-2.23,0-2.8-.19a1.4,1.4,0,0,0-1.76,1.26c0,1.07,1.94,2,1.75,3s-1,.48-2.23.87-1.16.78-2,1a7.82,7.82,0,0,0-2,1,14.86,14.86,0,0,0-4.46-1.55c-2.43-.39-1.07-2.33-.87-2.91a32.74,32.74,0,0,1,2.23-3.78c.87-1.36.1-.68,0-1a12.44,12.44,0,0,0-2.33-2.52,24.25,24.25,0,0,1-3.2-2.52c-.87-1-2.91-2.91-4.17-4.46s-.1-1.26-.1-2.13a3.88,3.88,0,0,0-1.46-3c-1.07-.78-2.91-1-4.27-1.55s-1.07-3-1.07-4.95,1.07-.19,2.14-1.26.78-3.11.78-4,1.65-1.75,1.75-2.81S310,59,309.55,56.67s5.24-3.2,5.24-3.2,2.91,2,3.06,1.6,1.89-1.6,2.33-2.47,1.89-3.06,1.89-3.06l-2.33-4.22s-9.61-9.46-16-14.56S285.39,19.41,279.13,20c-8,8.73-1,28.82-1,28.82H274a19.38,19.38,0,0,0-5.68.87,4.44,4.44,0,0,1-2.47,0s-.58,1.89,1,2.62,4.37,4.66,3.78,7.57c-3.49,1.89-3.06,13.25-3.49,14.26s.15,3.49-1.46,3.64-3.93,2.18-4.22.15-.15-8.3-2.47-11.21-4.51-.15-7.28,0a8.74,8.74,0,0,0-1.13.14,11.56,11.56,0,0,0-3.54-5.3c-3.63-2.75-9-1.92-13-4.18-3.64-2.05-4-6.56-7.33-8.5-3.12-1.82-9.84,1.88-10.56-3.49a1.74,1.74,0,0,0-2.93-1.21c-1.84,1.55-10.16,15.09-13.22,8.53a1.72,1.72,0,0,0-2.69-.35c-3.07,3.54-5.29,6.77-4.8,11.59.07.73.66,1.37.74,2.07a12.65,12.65,0,0,1-2,7.61,21.31,21.31,0,0,0-2,4.75l-1.08-.45s.87,2.18-.07,3.42-1.09,1.46-3.2,2.4-2.33.95-6.91.95-2.33,0-3.35,1.16a4.35,4.35,0,0,1-3.28,1.82c-1.09-.07-2,.8-2.69,1.38s-.65,1.09.29,2.77,4.15,9.17,4.15,9.39a3.7,3.7,0,0,1-.95,2.26c-.87,1-.07,1,.44,1.53s1.53,1.67.87,2.55.65,1.24,2,2.18a4.17,4.17,0,0,1,1.82,2.77c.07.66-1.09,1.38-1.53,2a4.92,4.92,0,0,1-3.71,1.53c-1.89,0-1.46.73-2.84,1.09s-4.95,1-6.62.65a46.6,46.6,0,0,0-7.57-1c-2.62-.07-7.13-2.33-9.17-2.69a4.15,4.15,0,0,1-3.06-1.75c-.87-.87-.51-1.31-1.31-3.13A15.2,15.2,0,0,0,139.4,105c-.8-.8-1.82,1.24-.95,2.4s1.31,2.33.07,2.62-2.33,1.75-3.06,2-1.82.66-3.13,1.09-3.49,1.46-4.66,1.82-2.4.07-4.15-.73a6.53,6.53,0,0,1-2.77-2c-1-1-1.75-3.13-2.18-2.62a2.74,2.74,0,0,1-2.11.8c-.73-.07-1.38-.8-2-1.89a9.13,9.13,0,0,0-3-2.55c-1-.65-1.46-.8-1.82-1.82a9.48,9.48,0,0,0-1.09-2.77c-.73-1.09-1.89-2.11-2.26-3.78s-1.38.15-3.06-.29-.95-.51-3.06-1-.66,1.53-.15,2,.22,1.82-.22,2.62-.29,1.31-.65,2,.29,1.53.87,2.26-.95,1.31-2.33,2-1.89,1.31-3.71,1-2.4-1.82-4-2.91a25.27,25.27,0,0,1-4.37-4.08c-1.46-1.6-1.75,0-2,.07S82,102.59,82,103.17s1.53,1.6,1.75,3.42-.44,2.18-4,3.35c-4.44,3.57-5.09,3.64-5.75,3.86s-.07,2.11.15,3.2a36.17,36.17,0,0,1,.66,3.64c0,.58-.07,2.91-.22,4.88s1,1.31,1,1.31a29.79,29.79,0,0,1,1.67,4.66c.73,2.69,0,3.86-.95,4.37s-.95,0-2.91.07-6.26,1-7.35,1-6.48-1.09-6.4-.22-.22,1.16-1.67,2.69-7.13,3.2-8.37,3.57-7.06,3.42-7.06,3.42,2.55,1.6,3.06,2a8.46,8.46,0,0,1,1.82,3c.07.58-6.26,6.84-7.06,7.64s-1.6,3.13-3,3.13-3.57-2.4-4.44-3.06A7.2,7.2,0,0,0,28.85,157c-3-.73-.73.65-2.62,2.4s-1.16.73,0,2.33.22,6.62.15,6.84S24,175.08,24,175.3s2.11,2.11,2.11,2.11-3.06,11.94-3.2,13.17-2,4.44-3.49,7.28-2.11,9.9-2.11,9.9A22,22,0,0,1,13.64,212c-1.82,1.46-2.11,1.67-2.91,3.06s3,3.93,2.91,4.66-2.4,3.2-3.27,4-.73,2.77-.8,4.37a23.6,23.6,0,0,1-.73,5.53c-.58,2.11.22,2.77.36,3.49s1.46.87,3.28,1.38,3.28-.44,5.39-.8,5.46.73,5.75.8,2.33,1.53,2.62,2.69,1.89,1.89,2,2.18,1.9,1.53,1.39,2.84a13.71,13.71,0,0,0-1.38,4.22,7.65,7.65,0,0,0,1.24,4.22c.51.51,2.62.07,3.64-.15a21,21,0,0,1,3.64-.58,2.39,2.39,0,0,0,1.89-.8c.07-.22,2.91-2.4,2.91-2.4S46,245.75,46,245.46a2.77,2.77,0,0,1,2.84-1.53c.8-2.18,2.62-2.62,3.86-1.24,2.11-2.77,3.57-1.75,3.57-1.75L58,238l3.71,2.33s2-4.66,2.69-4.51a14.12,14.12,0,0,1,3.06,2.11c.29.29,0,3.06-.22,3.35s-3.78,9-3.2,9.83,2.84,2.55,4.22,2.69,3.13-.65,5-1.38,0,0,7.13-1.67,4,.65,4.88.87a15.61,15.61,0,0,0,4,.36,47.16,47.16,0,0,1,7.86.73c1.38.36,7.79.95,8.73,1.09s1.38,1.24,2,1.53,4.8,1.24,4.8,1.24a9.41,9.41,0,0,1,1.46-.66c.22,0,2.79,1.82,5.8,3.28s5.68,6.11,5.68,6.11-6.31,13.49-6.74,14.12a55.4,55.4,0,0,0-2,8.49c0,.78,1.55.87,1.55,2.13.68.15,7.62,2.72,9.8,3.74a34.68,34.68,0,0,1,6.84,4.71c1.26-2.33,5.48,1.79,5.48,1.79s1.16-.92,1.84,1.07,5.39,7.08,5.39,7.08l.92-2.28a11,11,0,0,1,2.28,1.07c.24-1.5,1.07-1.7,2.77-1,.92-1.36,1.07-1.5,2.28.68.44-1.5,1.89-2.28,3.11-.73a2.2,2.2,0,0,1,3.16-1.75c.54-1.21,2.66-.15,2.66-.15a6.27,6.27,0,0,0,.78-1.46,15.15,15.15,0,0,1,1.55-2.47s-.39-.29,1.94.39,1.26.58,1.26.58a11.24,11.24,0,0,0-.78,1.84c-.39,1.16.78,1.07.78,1.65a5.17,5.17,0,0,1-1.16,2.81c-.87,1.16-1.94.58-2.72,1.94s1.46,3.11.78,3.88.58,1.65.58,1.65a30.06,30.06,0,0,1-.87,3c-.39,1-1.16.49-1.94.68s-.68,1.07-1.55,2.33-.58,1.55-1.16,2.72.78.48,3.11,3.3.48,1,1,2.13.78,1,2,0,1.26-.68,4.37-.87c1.65-2.43,2.23-4.37,3.3-4.37a11.57,11.57,0,0,1,2.52.49c1.07.19,2.23.68,3.59,0s.58-.58.68-1.16a9.34,9.34,0,0,1,.78-1.84,5.18,5.18,0,0,1,1.26-2.14c.78-.58,1.07.39,2,0s.78-.87.78-.87-1.36-1.84-1.26-2.62a6.09,6.09,0,0,1,1.7-2.72c.34-.1,1.41.19,2,.1s4.17,2,7.18,4.46a3.52,3.52,0,0,1,2.81-.58c.68-2.23,6.5-13.1,6.5-13.1l-4.56-2.91,2.91-6.11a4.06,4.06,0,0,0-1.26-.78c-.49-.1-1.16-1.84-1.16-1.84a36.86,36.86,0,0,0,2-4,23.15,23.15,0,0,1,1.55-3.88c.29-.39.58.19,1.16.78a3.35,3.35,0,0,0,1.94.78,19.22,19.22,0,0,1,3.2.39,12.69,12.69,0,0,0,2.14.39A11.58,11.58,0,0,0,216,285.1c.49-.87,0-1.16-.49-1.65s-1.36-.68-1.55-2.43,1.07-1.94.78-2.23-2.52-1.26-4.17-2.33a29.75,29.75,0,0,1-2.81-1.75c-1.26-1,1.75-4.27,3.59-7.08.39-2.23,1.46-3.11,4.08-3.2,1.07-4.08,7.47-9,7.47-9l2.62-5.82,2.62,1.36L229,249l4.46,2.52,1.75-3.11L241,237.84a31.42,31.42,0,0,1,7.57,4c.49-1.94.49-1.75,3-.58.49-2.23,1.26-2.43,3.11-1.84a12.3,12.3,0,0,0,1.55-2.91l1.75-2.81s3.69,1.55,4,1,1.65-3.2,2.72-4.95c.68-1.75,2.23,0,2.23,0s2.81-4.85,3.49-5.82-.1-.78-.1-1.26,1.16-2,1.46-2.91,0-.58,0-1.36,1.75-1.46,1.07-1.94-.68-1.94.58-3.3c.1-.87-1.16-.87-1.16-.87s1.55-3.88,1.65-4.27.87,0,1.55.49,1.16.29,2.14-.58.58.29,1.55,1.26,1.84,2.13,2.33,1.16-.19-1.36,1.07-1.36,3.49,2.23,3.3,1,2.91-2.72,2.91-2.72,2.52-1.75,3.4-2.33a3.15,3.15,0,0,0,1.07-1.94s-2,0-2.14-.39a7.86,7.86,0,0,1,.29-2.33c.19-.87,1.84-1.84,1.84-2.23s1.94-1.07,1.94-1.07h1.75l1.07-1.55,4.08,1.55s1.75-3.11,2.23-3.78.87-1.84.68-2.14-1.46-.19-2-.68-3.11-1.16-3.11-1.55.68-2.72.29-2.72-1.65-.29-1.65-1.26,2.23-2.52,2.23-2.52l.87-1.46s1.55-3.3,2.33-4.56.68-.49,1.16-.58,1.26.39,2.43-.49,2.14.87,2.43.68a12,12,0,0,1,2.43-1.65c1.26-.58,1.65.29,1.65.29a20,20,0,0,0,4.66,1.65c2.43.49-.19-1-.49-1.07a5,5,0,0,1-2.13-2.33c-.39-1.16.49-.58,1.26-1.94s0,0,0-.19.68-1,.68-1l2.13,1,1.65-2.43-1.46-1,2.91-3.49,1.26-2.81-4.27-1.16c-.68-.19-.58-1.26-.39-2.23s-.78-.58-1.84-1.55-.78-.87-.39-1.55.1-.49-.78-.78-.1-1.07.19-2.23.39-1.75.39-1.75l-1.36-1.26,1.46-3.3s.78.87,2.62-.19,1.07-1.07.78-2.33,1.36-2,1.36-2l.78-1.26c-.87-1.94.49-3.3,1.94-3,0-1.16,1.84-2.91,3.49-1.84a2.15,2.15,0,0,1,3-1.94,3.61,3.61,0,0,1,4.27-2.33c.77-2.21,1.26-1.76,3.15-2.5-.06-.14-.1-.29-.16-.43a20,20,0,0,1-2.22-3.37C335.52,121.47,336.12,119.42,337.8,119.15Z"/><path class="cls-2" d="M167.23,331.47a1.86,1.86,0,0,1-.48-.07,2.47,2.47,0,0,1-1.53-1.61,2.13,2.13,0,0,1-.18-1.07l-.57-.7a7.64,7.64,0,0,0-2.25-1.94,2,2,0,0,1-1-2.9,4.11,4.11,0,0,0,.32-.87,5.77,5.77,0,0,1,.95-2,5.88,5.88,0,0,0,.57-1.08,2.66,2.66,0,0,1,1.8-1.81,3.86,3.86,0,0,1,1.06-.09c.17-.5.37-1.2.52-1.77a2.65,2.65,0,0,1-.61-1.34,2.12,2.12,0,0,1,.23-1.25l-.21-.4c-.46-.85-1.23-2.28-.42-3.7a3.59,3.59,0,0,1,2.16-1.71c.39-.14.5-.19.65-.38a4.82,4.82,0,0,0,.8-1.54,2.2,2.2,0,0,1-.63-2.52c.08-.25.17-.47.24-.68l-.66-.18a9.71,9.71,0,0,0-.87,1.42,7.56,7.56,0,0,1-1,1.84l-.71,1-1.07-.54a3.28,3.28,0,0,0-.84-.27l-.49,1.1-1.33-.69a.69.69,0,0,0-.6,0,1.18,1.18,0,0,0-.53.83l-.67,2.9L158,307c-.21-.26-.34-.31-.34-.31a1.72,1.72,0,0,0-.29.56l-1,3.26-1.65-3-.12-.21-.41.6-1.07-.46a4.41,4.41,0,0,0-.78-.27s0,.1,0,.16l-.31,1.94-1.74-.91-.86-.44-1.21,3-1.52-1.64c-.82-.89-4.95-5.42-5.69-7.59l0-.09-.57.45-.89-.87a8,8,0,0,0-3.26-2.11l-.79,1.45-1.35-1.06a33.15,33.15,0,0,0-6.54-4.52c-2.15-1-8.87-3.48-9.51-3.64l-1.07-.27,0-1.11s-.19-.1-.31-.19a2.38,2.38,0,0,1-1.24-1.95c0-.76,1.52-8.26,2.24-9.3.38-.63,3.94-8.17,6.3-13.22-.94-1.46-2.85-4-4.69-4.93a54.27,54.27,0,0,1-4.83-2.72l-.45-.28-.7.35-.46.25-.51-.11a41.85,41.85,0,0,1-5.13-1.35,3.59,3.59,0,0,1-1.08-.93,2.44,2.44,0,0,0-.47-.47c-.28,0-1.08-.13-2.09-.23-3.13-.33-5.8-.63-6.78-.89a46,46,0,0,0-7.43-.68,17,17,0,0,1-4.42-.41,1.63,1.63,0,0,1-1-.75,1.59,1.59,0,0,1-.21-.66,22.36,22.36,0,0,0-3,.54c-3.6.85-5,1.09-5.6,1.21a5.05,5.05,0,0,0-1.34.41l-.77.3a11,11,0,0,1-4.91,1.17c-1.91-.2-4.46-2.23-5.22-3.27-1.38-1.9,3.16-11.43,3.22-11.51a1.06,1.06,0,0,0-.16.28,10.47,10.47,0,0,0,.21-2c-.38-.31-1-.78-1.49-1.11A33.93,33.93,0,0,0,63,240.86l-.66,1.51-3.87-2.43-1.79,3-1.16-.81c-.21,0-.83.19-1.73,1.37l-1,1.36-1.14-1.28c-.12-.14-.36-.37-.6-.31s-.6.36-.87,1.09l-.37,1-1.07-.09a1.6,1.6,0,0,0-1.36.53c-.19.56-1,1.61-4.75,5.77l-.19.18c-1,.8-2.3,1.8-2.63,2.12a3.89,3.89,0,0,1-3,1.38,18.66,18.66,0,0,0-3.08.5l-.26.06c-2.45.53-4,.66-4.94-.24a8.85,8.85,0,0,1-1.65-5.29,10.52,10.52,0,0,1,1.09-3.74c.14-.32.27-.62.39-.93,0-.15-.27-.49-.78-1a4.15,4.15,0,0,1-.4-.44L27,244.1a4.85,4.85,0,0,1-2.11-2.6,5.52,5.52,0,0,0-1.74-1.7l-.08,0c-2.92-.86-4.35-.82-4.93-.71a15.72,15.72,0,0,0-1.76.44,7.24,7.24,0,0,1-4.25.33l-1-.28c-1.52-.38-2.95-.74-3.24-2.19a1.87,1.87,0,0,0-.11-.27,5.16,5.16,0,0,1-.23-3.88,22,22,0,0,0,.67-5.11V228c0-.27,0-.56,0-.84,0-1.61.07-3.44,1.24-4.5A24.81,24.81,0,0,0,12,219.76l-.5-.52c-1.29-1.32-3.05-3.13-2-4.92A9.73,9.73,0,0,1,12.65,211l.1-.08a19.43,19.43,0,0,0,3.15-3.61c.17-1.62.83-7.34,2.23-10,.38-.74.79-1.51,1.19-2.26a27.32,27.32,0,0,0,2.16-4.54c.13-1.14,2.22-9.39,3-12.51-1.76-1.56-2.17-2.15-1.87-3.05l1.18-3.33L25,168.08c.29-1.21.61-4.79.05-5.56a2.39,2.39,0,0,0-.62-.61,1.71,1.71,0,0,1-.82-1.31c0-.79.44-1.23,1.05-1.77l.56-.51a1.13,1.13,0,0,0,.43-1,2,2,0,0,1,.74-1.64c.75-.56,1.69-.39,2.74-.13a8.21,8.21,0,0,1,4.2,2c.13.11.25.23.39.33s.58.48,1,.84c.57.51,2.07,1.88,2.63,1.94a6.51,6.51,0,0,0,1-1.35,7.56,7.56,0,0,1,1-1.36l.23-.23c4.26-4.24,5.75-5.92,6.27-6.57a9.79,9.79,0,0,0-1.13-1.71c-.3-.21-1.93-1.25-2.94-1.88l-2.08-1.31,2.18-1.14c1-.52,6-3.14,7.32-3.53,4.82-1.42,7.16-2.57,7.74-3.18A11.36,11.36,0,0,0,58.23,137s0,0,0-.13a1.6,1.6,0,0,1,.5-1.3c.82-.78,2.29-.67,5.69-.21.63.09,1.41.19,1.63.19.38,0,1.64-.21,2.75-.4a42.11,42.11,0,0,1,4.55-.62,8.78,8.78,0,0,1,2,.12l.24,0s0,0,.08-.06c.71-.39.53-1.71.25-2.75a30,30,0,0,0-1.22-3.57,1.9,1.9,0,0,1-.54-.23,2.64,2.64,0,0,1-1-2.64c.14-1.91.21-4.21.21-4.77,0-.35-.31-1.83-.48-2.62l-.15-.74c0-.18-.08-.38-.13-.6-.35-1.54-.83-3.64.93-4.23l.13,0c.45-.14,1.21-.39,5.17-3.57l.2-.16.25-.08a12,12,0,0,0,3-1.25h0a1.57,1.57,0,0,0,0-.58,3.86,3.86,0,0,0-1-1.84,2.86,2.86,0,0,1-.81-1.75c0-1.12,1.27-2.34,2.09-2.92a2.23,2.23,0,0,1,1.66-1.16,3,3,0,0,1,2.36,1.16,24.22,24.22,0,0,0,4.12,3.86,10.76,10.76,0,0,1,1.69,1.49c.71.73,1.08,1.08,1.73,1.19a2.47,2.47,0,0,0,2.11-.48l.72-.4.66-.34.64-.33a2.88,2.88,0,0,1-.45-3,2.08,2.08,0,0,0,.17-.58,4.87,4.87,0,0,1,.51-1.51,2.87,2.87,0,0,0,.32-1.09c-.52-.55-1.71-2-1-3.33.26-.5.94-1.28,2.66-.87a9.26,9.26,0,0,1,2,.67,4.87,4.87,0,0,0,1,.36,1.56,1.56,0,0,0,.94-.19,2.06,2.06,0,0,1,3.14,1.55A5.79,5.79,0,0,0,109,99.58c.26.33.52.66.73,1a7.24,7.24,0,0,1,1,2.33c.07.23.13.48.23.75s.17.43.85.85l.57.36a9.7,9.7,0,0,1,3.26,2.9c.65,1.08,1,1.21,1,1.22a1.41,1.41,0,0,0,.86-.32,1.62,1.62,0,0,1,1.35-.57c1,.08,1.43.87,2,1.77a7.71,7.71,0,0,0,.93,1.33l.48.49a4.38,4.38,0,0,0,1.88,1.26c1.51.69,2.42.89,3.13.66.54-.17,1.4-.52,2.23-.87s1.72-.71,2.41-.94c1.21-.4,2.35-.78,3.05-1.06a7,7,0,0,0,.62-.51,7.59,7.59,0,0,1,2.12-1.43,5.5,5.5,0,0,0-.37-.55,3.38,3.38,0,0,1,.39-4.35,1.91,1.91,0,0,1,2.69.09,12.41,12.41,0,0,1,2.14,3.8l.34.78a11,11,0,0,1,.65,1.92c.12.5.14.55.37.78l.41.43c.48.52.65.7,1.89.92a24,24,0,0,1,3.57,1.14,21.8,21.8,0,0,0,5.39,1.53,47.71,47.71,0,0,1,7.83,1.05,18.48,18.48,0,0,0,6-.64,1.13,1.13,0,0,0,.54-.29,3.63,3.63,0,0,1,2.66-.85,3.6,3.6,0,0,0,2.58-1,6.37,6.37,0,0,1,.77-.8c.12-.11.3-.28.43-.41a3,3,0,0,0-1.18-1.51c-.3-.22-.6-.4-.87-.57-.8-.49-1.63-1-1.82-2a2,2,0,0,1,.32-1.5,3.09,3.09,0,0,0-.64-.84,1.09,1.09,0,0,0-.18-.13,2.07,2.07,0,0,1-1-1.44,2.42,2.42,0,0,1,.71-1.89,2.51,2.51,0,0,0,.58-1.16c-.5-1.29-3.11-7.39-3.94-8.86-.74-1.31-1.76-3.12.06-4.57l.27-.22a4.9,4.9,0,0,1,3.4-1.47A3.2,3.2,0,0,0,173.65,85a1.57,1.57,0,0,1,.41-1.11c.56-.6.89-.6,4.05-.6,4.5,0,4.5,0,6.33-.82s1.8-.85,2.61-1.92c.35-.45.13-1.57-.08-2.09l-1.26-3.14,2.77,1.16a22,22,0,0,1,1.6-3.54c1.49-2.63,2.05-4.71,1.83-6.76a2.77,2.77,0,0,0-.23-.55,4.5,4.5,0,0,1-.51-1.53c-.57-5.56,2.23-9.3,5.14-12.66a3,3,0,0,1,2.74-1,3,3,0,0,1,2.31,1.63c.28.6.58.92.9,1,1.94.23,6.15-5.11,7.93-7.39a19.9,19.9,0,0,1,2.2-2.58,3.17,3.17,0,0,1,3.2-.6,3.34,3.34,0,0,1,2,2.71c.24,1.78,1.17,2,4.5,1.78,1.88-.11,3.82-.23,5.37.68a11.59,11.59,0,0,1,4,4.57,9.77,9.77,0,0,0,3.35,3.92,17.94,17.94,0,0,0,5.63,1.64c2.58.47,5.25,1,7.48,2.63a11.9,11.9,0,0,1,3.59,4.89h.15a7.13,7.13,0,0,0,2.14-.61c1.64-.64,4.11-1.62,6.32,1.14S262.58,73,262.78,76c0,.46.06.87.09,1.22l.6-.24a8.19,8.19,0,0,1,2-.63,6.85,6.85,0,0,0,.12-1,5.79,5.79,0,0,1,.29-1.7c.05-.28.11-1.19.16-2,.32-5.25.85-10.5,3.33-12.58a7.9,7.9,0,0,0-3-5.48,3.52,3.52,0,0,1-1.79-4.33l.4-1.31,1.32.36a3.38,3.38,0,0,0,1.47.1,20.1,20.1,0,0,1,6.31-1h2.15C274.62,42,271,26.75,278.09,19l.37-.4.54-.05c6.85-.63,19.26,6,25.61,11.07s15.73,14.27,16.12,14.66l.15.14,2.84,5.16-.48.72c-.39.59-1.48,2.25-1.8,2.9a7.5,7.5,0,0,1-1.77,2c-.18.16-.42.37-.54.5l-.16.49-.73.28c-.49.16-1,.35-3.77-1.5-1.67.34-3.34,1-3.54,1.48a12.43,12.43,0,0,0,.66,2,4.36,4.36,0,0,1,.44,2.19A4.09,4.09,0,0,1,310.72,63c-.14.15-.33.36-.43.49v.27c.05,1.2.14,3.22-1.2,4.56a2.57,2.57,0,0,1-1.72.79c0,.13,0,.26,0,.39,0,.79-.05,2.43.24,2.74a14.48,14.48,0,0,0,1.56.49,9.06,9.06,0,0,1,3,1.2,5.29,5.29,0,0,1,2,4.16,2.16,2.16,0,0,1-.31,1.13l.09.11c.78,1,1.91,2.11,2.81,3,.53.54,1,1,1.31,1.37a13.16,13.16,0,0,0,2.06,1.66c.35.25.68.48,1,.7a16.41,16.41,0,0,1,2.33,2.41,1.47,1.47,0,0,1,.74.62,2.17,2.17,0,0,1-.42,2.35A29.48,29.48,0,0,0,321.67,95a5.14,5.14,0,0,1-.21.49,5.38,5.38,0,0,0-.23.54l.19,0a16.09,16.09,0,0,1,4.18,1.33,7.16,7.16,0,0,1,1.79-.73.68.68,0,0,0,.34-.17,5.11,5.11,0,0,1,1.59-.77,5.3,5.3,0,0,1,.68-.16,3.55,3.55,0,0,1-1.2-2.37A2.64,2.64,0,0,1,329.92,91a2.9,2.9,0,0,1,2.4-.47l.3,0a4.58,4.58,0,0,1,2.78.34,3.6,3.6,0,0,1,.93.65,2,2,0,0,1,1.44-.61s.08,0,.33-.13l.59-.24.57.29A5.77,5.77,0,0,1,342.1,94l.07.19.06.73c0,.33,0,.61.07.78h0a2.44,2.44,0,0,0,.24.53l.14.26,0,.29c.39,4-.84,9.11-1.57,12.13l-.16.66a60.81,60.81,0,0,0-1.76,9.66l-.08,1.13-1.12.17a.5.5,0,0,0-.4.28,3,3,0,0,0,.19,2.38,14.93,14.93,0,0,0,1.68,2.61c.17.22.32.41.43.58l.22.49.07.2.53,1.33-1.33.52c-.48.19-.88.31-1.22.41-.75.23-.75.23-1.11,1.24l-.41,1.17-1.21-.24a2.22,2.22,0,0,0-2.64,1.37l-.47,1.49-1.44-.62a.72.72,0,0,0-.67,0,.8.8,0,0,0-.36.68l-.14,2.43-2-1.32a.58.58,0,0,0-.61,0,1.31,1.31,0,0,0-.7.72V138l-1.69-.37a.42.42,0,0,0-.43.13,1,1,0,0,0,.06.91l.31.68-1.39,2.26-.38.18a1.5,1.5,0,0,0-.58.5c0,.13.11.27.18.44.78,1.79-.32,2.62-1.63,3.37a4.63,4.63,0,0,1-2.55.71l-.53,1.2,1.18,1.09-.13.75s-.11.65-.41,1.86a6.53,6.53,0,0,1-.26.79,1.58,1.58,0,0,1,.92.85,1.73,1.73,0,0,1-.12,1.53h0a2.22,2.22,0,0,0,.78.43,2,2,0,0,1,1.5,2.45,6.11,6.11,0,0,0-.11.73l3.75,1,1.6.43-2,4.51-2,2.43,1.33.89-3.12,4.6-2.06-.93,0,0a3.92,3.92,0,0,1-1,1.15,4.46,4.46,0,0,0,1.16,1.11c.51.2,2.74,1.17,2.32,2.75s-2.1,1.13-2.67,1a21.37,21.37,0,0,1-5-1.78l-.44-.24a8.38,8.38,0,0,0-1.76,1.19c-.19.15-.33.27-.43.33a1.77,1.77,0,0,1-2.2-.38l-.3-.25a3.75,3.75,0,0,1-2.82.67h-.13l-.2,0c-.62,1-1.79,3.45-2.19,4.32l-.07.13-1,1.72-.25.17a9.13,9.13,0,0,0-1.39,1.2h0a1.48,1.48,0,0,1,1.14.56c.55.68.39,1.57.11,2.88l.5.2a7.36,7.36,0,0,1,1.94,1,5.87,5.87,0,0,0,.62.13,2.3,2.3,0,0,1,1.69.86c.93,1.39-.69,3.72-.71,3.75-.32.45-1.49,2.48-2.15,3.66l-.6,1.06-4.17-1.59-.86,1.25h-2.24a9.79,9.79,0,0,0-1,.42,4.23,4.23,0,0,1-.93,1,4.86,4.86,0,0,0-.77.8c-.08.37-.14.66-.17.89l.66,0h1.63l-.23,1.62A4.43,4.43,0,0,1,293,206c-.87.58-3.38,2.31-3.38,2.31l-.2.12a7,7,0,0,0-2.09,1.43,1.65,1.65,0,0,1-.7,1.54c-.93.63-1.87.08-2.78-.45-.23-.13-.58-.34-.87-.48a3.6,3.6,0,0,1-.18.42,1.94,1.94,0,0,1-1.46,1.13c-1.12.18-2-.69-2.75-1.51l-.4-.41a4.11,4.11,0,0,1-.45-.53,2.49,2.49,0,0,1-2.92.1l-.68,1.73a2.11,2.11,0,0,1,.22.22,2.05,2.05,0,0,1,.5,1.62l-.05.46-.32.34a2,2,0,0,0-.66,1.29,1.7,1.7,0,0,1,.61,1.19,2.35,2.35,0,0,1-1,1.84l-.19.18a2.43,2.43,0,0,1-.12,1.58,10.26,10.26,0,0,1-.9,1.77l-.31.54a2,2,0,0,1-.33,2.23c-.53.76-2.65,4.39-3.43,5.72l-1,1.7-1.3-1.46-.05-.05c-1.06,1.76-2.35,4.26-2.57,4.7-.58,1.16-1.85,1.23-4.67.16l-1,1.69a13,13,0,0,1-1.73,3.18l-.61.74-.92-.29a3.7,3.7,0,0,0-1-.22,3.39,3.39,0,0,0-.33,1l-.37,1.73-2.18-1L250,242l0,.11-.5,2L247.8,243a32,32,0,0,0-6.1-3.37L234,253.45,229.67,251l-.85,1.89-2.62-1.36L224,256.31l-.28.22c-1.68,1.3-6.19,5.31-7,8.26l-.27,1-1.05,0c-2.18.08-2.49.65-2.73,2l-.05.29-.16.25c-.45.69-1,1.41-1.49,2.12a20.58,20.58,0,0,0-2.11,3.3,5.88,5.88,0,0,0,.87.54c.34.18.76.4,1.54.91s1.89,1.09,2.73,1.52a6.92,6.92,0,0,1,1.68,1,1.53,1.53,0,0,1,.46,1.09,1.74,1.74,0,0,1-.6,1.26c-.19.19-.28.28-.23.73A1.24,1.24,0,0,0,216,282a4.65,4.65,0,0,1,.52.44l.14.14a2.41,2.41,0,0,1,.58,3.2,13,13,0,0,1-1.44,2l-.49.55-.73-.08a9.41,9.41,0,0,1-2.52-.49,25.11,25.11,0,0,0-2.67-.28,4.92,4.92,0,0,1-2.52-.84c-.33.81-.67,1.73-.73,2s-.12.74-1.85,3.81a5.24,5.24,0,0,0,.27.5,5.74,5.74,0,0,1,1.51,1l.81.71-2.83,6,4.61,2.94-.62,1.16c-2.31,4.32-5.93,11.3-6.4,12.84l-.38,1.25L200,318.5a2.11,2.11,0,0,0-1.55.25l-.9.82-.94-.76a33.26,33.26,0,0,0-6.32-4.14,6.83,6.83,0,0,1-1.29-.08h-.11A7,7,0,0,0,188,316a8.1,8.1,0,0,0,1,1.67l.18.32c.25.62.24,2-1.57,2.71a2.58,2.58,0,0,1-1.9,0,5.25,5.25,0,0,0-.58,1.22l-.1.25a11.35,11.35,0,0,0-.56,1.21,1.57,1.57,0,0,1,0,1,2.56,2.56,0,0,1-1.52,1.38A5.44,5.44,0,0,1,179,326l-.53-.11a11.43,11.43,0,0,1-1.12-.27,3.83,3.83,0,0,0-1-.19,11.44,11.44,0,0,0-.91,1.45c-.37.64-.83,1.44-1.4,2.29l-.39.57-.69,0c-.76,0-1.33.07-1.79.08-1.2,0-1.2,0-1.8.5A3.86,3.86,0,0,1,167.23,331.47ZM164,323.84a10.61,10.61,0,0,1,2.66,2.37,13,13,0,0,1,1.3,1.73,4.51,4.51,0,0,1,3.18-.9l1,0c.34-.54.64-1.06.91-1.53.88-1.55,1.65-2.88,3.18-2.88a6.31,6.31,0,0,1,1.92.3,8.22,8.22,0,0,0,.85.21l.65.14a2.94,2.94,0,0,0,1.94,0c0-.06,0-.12,0-.18a8.91,8.91,0,0,1,.87-2.17,6.08,6.08,0,0,1,1.72-2.71,2.16,2.16,0,0,1,1.54-.46,3.8,3.8,0,0,1-.54-2.07c.13-1,1.57-3.58,2.72-3.91a3.5,3.5,0,0,1,1.41,0,5,5,0,0,0,.74.06c1.5-.23,5.73,2.81,7.5,4.15a4.8,4.8,0,0,1,1.78-.36c1.19-2.78,4.22-8.56,5.58-11.12l-4.51-2.88,2.9-6.09c-.41-.14-1.13-.62-1.92-2.65l-.24-.63.33-.59a39.84,39.84,0,0,0,1.89-3.6,22,22,0,0,1,1.8-4.41,1.66,1.66,0,0,1,1.28-.69,2.12,2.12,0,0,1,1.7,1c.1.11.2.24.33.36a2.07,2.07,0,0,0,1,.36h0a16.71,16.71,0,0,1,3.81.54c.08,0,.45.09.9.15a8.94,8.94,0,0,0,.52-.75l-.14-.14a1.94,1.94,0,0,0-.2-.16,4,4,0,0,1-1.75-3.11,3.76,3.76,0,0,1,.22-1.86h0c-.84-.43-2-1-3-1.66-.68-.44-1-.62-1.33-.79a9.37,9.37,0,0,1-1.58-1c-2.05-1.58-.06-4.32,1.86-7,.43-.59.87-1.2,1.26-1.78a4.61,4.61,0,0,1,4.37-4c1.54-3.75,6.07-7.56,7.36-8.59l3.09-6.87,2.62,1.36.9-2,4.58,2.59,1.05-1.87,6.38-11.59,1.11.36a31.66,31.66,0,0,1,6.46,3.17,1.84,1.84,0,0,1,.67-.54,2.46,2.46,0,0,1,2.17.17,3,3,0,0,1,1.13-1.24,3.12,3.12,0,0,1,2.2-.29A13.4,13.4,0,0,0,255,236l.13-.26,2.38-3.84,1.12.47a20.89,20.89,0,0,0,2.55.89c.54-1,1.5-2.84,2.33-4.21a2.37,2.37,0,0,1,1.76-1.52,2.41,2.41,0,0,1,1.28.13c.8-1.37,2-3.4,2.6-4.32a1.75,1.75,0,0,1-.16-.74,4.59,4.59,0,0,1,.88-2.13,9.23,9.23,0,0,0,.65-1.23l0-.08a3,3,0,0,1-.1-.83,2.49,2.49,0,0,1,.87-1.77,2.9,2.9,0,0,1-.24-.9,4,4,0,0,1,.39-2.06l-1.16,0,.72-1.88c.71-1.79,1.51-3.81,1.6-4.12a1.6,1.6,0,0,1,1-1.1c.72-.27,1.53,0,2.63.72a5.87,5.87,0,0,0,.48-.4,2.07,2.07,0,0,1,1.82-.63,1.9,1.9,0,0,1,1.31,1.3,1.81,1.81,0,0,0,.37.64l.35.36a2.12,2.12,0,0,1,2-1,4.93,4.93,0,0,1,2.35.83,8.16,8.16,0,0,1,3.15-2.39l2.78-1.91a1.63,1.63,0,0,1-1.12-1.17,6.68,6.68,0,0,1,.28-3,4.58,4.58,0,0,1,1.62-2.21l.28-.26c.26-.72,1.1-1.26,2.8-1.86l.23-.08h1.24l1.28-1.86,4,1.52c.57-1,1.37-2.38,1.71-2.85a2.61,2.61,0,0,0,.18-.29,3.18,3.18,0,0,1-1.29-.61,12.39,12.39,0,0,0-1.16-.5c-1.37-.54-2.45-1-2.45-2.14a5.7,5.7,0,0,1,.18-1.12l.11-.51a2.57,2.57,0,0,1-1.65-2.36c0-1.32,1.35-2.61,2.59-3.51l.68-1.14c.23-.49,1.62-3.41,2.37-4.63a2.59,2.59,0,0,1,1.5-1.36,1.58,1.58,0,0,1,1,.09l.51,0a1,1,0,0,0,.93-.22,2.54,2.54,0,0,1,3.19.06,10,10,0,0,1,1.92-1.19,2.86,2.86,0,0,1,2.26-.17,2.33,2.33,0,0,1,.65.37,2,2,0,0,1,.92-2.54,1.24,1.24,0,0,0,.31-.24,3.59,3.59,0,0,1,1-1.63l.26-.36,0,0,.4-.45,2,.91.17-.26-1.58-1.05,3.8-4.55.5-1.12-2.69-.74c-1.23-.35-1.73-1.45-1.49-3.26A4.69,4.69,0,0,1,317,157c-.6-.55-1.39-1.26-1.17-2.27a1.83,1.83,0,0,1-.7-.8,2.53,2.53,0,0,1,.2-2.12,5.4,5.4,0,0,0,.28-.76q.13-.54.21-.91l-1.51-1.41,2.75-6.24,1.34,1.51a1.81,1.81,0,0,0,1-.34l.29-.17a4.78,4.78,0,0,1-.18-.61,3.24,3.24,0,0,1,1.73-3.42l.23-.37a3.48,3.48,0,0,1,.58-3.09,3.2,3.2,0,0,1,1.87-1.14,4.24,4.24,0,0,1,1.72-1.75,3.51,3.51,0,0,1,1.89-.46,3.52,3.52,0,0,1,1.22-1.26,3.58,3.58,0,0,1,1.91-.52,5,5,0,0,1,4.16-2.23,3.19,3.19,0,0,1,1.88-1.77,18.72,18.72,0,0,1-1.45-2.39l0-.09a5.64,5.64,0,0,1-.09-4.91,3.34,3.34,0,0,1,1.33-1.33,68.82,68.82,0,0,1,1.76-9.2l.16-.67c.68-2.78,1.8-7.38,1.53-10.92a4,4,0,0,1-.43-1.31c0-.19,0-.5-.08-.86l0-.31a3.13,3.13,0,0,0-.91-1.26l-.26.06a2.45,2.45,0,0,1-1.67,1.19,1.9,1.9,0,0,1-2-1.1.72.72,0,0,0-.37-.39,1.89,1.89,0,0,0-1.15-.06,3.78,3.78,0,0,1-1.17,0l.34.38a3.17,3.17,0,0,1,1.19,2.75A2.24,2.24,0,0,1,331,98.26a3.55,3.55,0,0,0-.85.13,2.32,2.32,0,0,0-.8.39,3.44,3.44,0,0,1-1.35.61,6.23,6.23,0,0,0-1.56.77l-.73.49-.76-.43a13.56,13.56,0,0,0-4-1.38,3,3,0,0,1-2.34-1.45,3.5,3.5,0,0,1,.26-3.12l.09-.2a23.94,23.94,0,0,1,2.2-3.81,13.73,13.73,0,0,0-1.83-1.89c-.24-.19-.54-.4-.85-.62A15.12,15.12,0,0,1,316,85.66c-.3-.33-.74-.78-1.23-1.29-.95-1-2.13-2.18-3-3.23-.71-.88-1.39-2-.43-3.24a2.42,2.42,0,0,0-.86-1.65,7.36,7.36,0,0,0-2-.76,15.3,15.3,0,0,1-1.95-.63c-2-.87-2-3.38-1.94-5.39,0-.29,0-.58,0-.86a2.45,2.45,0,0,1,.72-2,2,2,0,0,1,1.75-.35l.12,0a4.25,4.25,0,0,0,.34-2.39c0-.21,0-.39,0-.54a3.42,3.42,0,0,1,1.18-2.26,3.75,3.75,0,0,0,.58-.72,2.11,2.11,0,0,0-.25-.83,14.06,14.06,0,0,1-.8-2.59,2.74,2.74,0,0,1,.46-2.16c1.35-1.94,5.2-2.61,6-2.73l.56-.08.46.33c.62.43,1.3.86,1.78,1.14l.4-.36A7.51,7.51,0,0,0,318.91,52c.31-.62,1-1.74,1.5-2.49l-1.81-3.29c-1.23-1.21-9.91-9.66-15.75-14.31-6.45-5.13-17.12-10.5-22.85-10.5h-.19c-6.75,8.24-.42,26.78-.36,27l.65,1.88H274a19.33,19.33,0,0,0-5,.72,3.28,3.28,0,0,1-1.05.31c2.2,1.38,4.79,5.62,4.14,8.89l-.13.65-.58.32c-1.93,1-2.35,8.07-2.51,10.71a10,10,0,0,1-.35,2.86,5.39,5.39,0,0,0-.1.86c-.08,1.11-.25,3.42-2.53,3.63a5.81,5.81,0,0,0-1.3.44c-1,.44-2.24.94-3.31.32a2.36,2.36,0,0,1-1.13-1.83C260,77.64,260,77,260,76.23c-.17-2.5-.45-6.69-2-8.63-.87-1.08-1.35-1-3.06-.28a9.51,9.51,0,0,1-3,.8,7.71,7.71,0,0,0-.95.12l-1.16.21-.42-1.1a10.4,10.4,0,0,0-3.07-4.68c-1.69-1.28-3.92-1.68-6.27-2.11a20.32,20.32,0,0,1-6.52-2,12.27,12.27,0,0,1-4.39-4.95,9.2,9.2,0,0,0-3-3.56c-.81-.47-2.32-.38-3.77-.29-2.73.16-6.86.41-7.48-4.23a.53.53,0,0,0-.26-.44c-.12,0-.27.06-.35.13a25.62,25.62,0,0,0-1.79,2.16c-3.65,4.67-7.21,8.83-10.48,8.46a4,4,0,0,1-3.14-2.58.57.57,0,0,0-.36,0C195.28,57,193.61,59.76,194,63.8a2.66,2.66,0,0,0,.24.58,4.44,4.44,0,0,1,.5,1.48,14.2,14.2,0,0,1-2.18,8.46,20,20,0,0,0-1.83,4.44l-.44,1.54-.24-.1a3.7,3.7,0,0,1-.72,2A7.15,7.15,0,0,1,185.61,85c-2.39,1.07-2.87,1.07-7.49,1.07h-1.83a2.84,2.84,0,0,1-.45.67c-1.4,1.6-2.94,2.4-4.44,2.3-.38,0-.92.42-1.4.82l-.21.17a9.55,9.55,0,0,0,.53,1c.26.46,4.33,9.17,4.33,10.09a5,5,0,0,1-1,2.75l0,0c1.64,1.64,1.64,2.94,1.36,3.74l.25.15c.33.2.69.42,1.06.69a5.53,5.53,0,0,1,2.4,3.76,3.15,3.15,0,0,1-1.37,2.54,5.23,5.23,0,0,0-.43.43,6.29,6.29,0,0,1-4.85,2.09c-.61,0-.67.05-.87.21a3.88,3.88,0,0,1-1.61.83c-1.22.32-5.16,1.13-7.29.67a44.63,44.63,0,0,0-7.31-1,22.78,22.78,0,0,1-6.29-1.71,23.44,23.44,0,0,0-3.08-1,5.14,5.14,0,0,1-3.47-1.78l-.34-.36a3.9,3.9,0,0,1-1.11-2.09,8.61,8.61,0,0,0-.3-1,2.31,2.31,0,0,1-1.63,1.2,4.58,4.58,0,0,0-1.43,1,5.38,5.38,0,0,1-1.43,1c-.78.31-1.91.69-3.21,1.12-.59.2-1.42.54-2.22.87s-1.81.75-2.47,1c-1.79.56-3.54,0-5.16-.79a7,7,0,0,1-2.74-1.88l-.43-.45a9.55,9.55,0,0,1-1.31-1.81,4.14,4.14,0,0,1-2.12.4c-1.48-.15-2.44-1.45-3.11-2.57a7.71,7.71,0,0,0-2.36-2l-.54-.34a4,4,0,0,1-2-2.3c-.12-.34-.21-.65-.29-.94a4.47,4.47,0,0,0-.65-1.52c-.18-.27-.39-.53-.6-.8a9.24,9.24,0,0,1-1.68-2.8,3.79,3.79,0,0,1-2.21.11,8.51,8.51,0,0,1-1.25-.41,4.88,4.88,0,0,1-.57,3.28,2.16,2.16,0,0,0-.22.7,4.91,4.91,0,0,1-.34,1.14,6.25,6.25,0,0,0,.61.86,1.9,1.9,0,0,1,.42,1.63c-.24,1.11-1.32,1.64-2.56,2.27l-.61.31-.63.35a5.19,5.19,0,0,1-4,.81,5.7,5.7,0,0,1-3.32-2,8.29,8.29,0,0,0-1.26-1.13,25.92,25.92,0,0,1-4.51-4.18,1.48,1.48,0,0,1-.38.27,5.87,5.87,0,0,0-.69.63h0a6.51,6.51,0,0,1,1.53,3.25c.36,3-1.54,3.74-4.72,4.78-3.24,2.59-4.51,3.35-5.28,3.68.06.37.17.85.24,1.16s.11.47.15.67l.15.72a21.21,21.21,0,0,1,.53,3.19c0,.6-.06,2.57-.18,4.37l.2-.1.64,1.31a31,31,0,0,1,1.76,4.9c1,3.68-.34,5.29-1.64,6a2.89,2.89,0,0,1-2.12.33,6.59,6.59,0,0,0-1.41-.09,40.89,40.89,0,0,0-4.18.58,25.17,25.17,0,0,1-3.22.44,18,18,0,0,1-2-.22c-.78-.11-2.2-.3-3.08-.34a7.17,7.17,0,0,1-1.89,2.52c-1.21,1.27-4.24,2.6-9.06,4-.55.16-2.62,1.17-4.61,2.19l1,.68a9.15,9.15,0,0,1,2.4,4c.11.85.15,1.23-7.24,8.6l-.23.22a6.53,6.53,0,0,0-.58.85c-.71,1.14-1.67,2.69-3.4,2.69-1.47,0-2.92-1.21-4.53-2.67-.31-.28-.57-.52-.76-.67s-.41-.33-.6-.51a5.47,5.47,0,0,0-3-1.36l-.08,0a3.92,3.92,0,0,1-1.24,2.08l-.1.09c.09.11.19.23.29.36,1.68,2.31.36,8.07.34,8.13l-1.24,3.49L25.57,175c.38.37,1,.9,1.44,1.31l.66.57-.22.85c-1.47,5.74-3.08,12.25-3.17,13-.13,1.13-1,2.84-2.47,5.54-.39.74-.8,1.49-1.17,2.22-1.09,2.13-1.79,7.49-2,9.38l0,.35-.19.3a23.3,23.3,0,0,1-3.94,4.55l-.1.08c-1.57,1.25-1.79,1.43-2.35,2.37a10.31,10.31,0,0,0,1.47,1.73c.93.95,1.6,1.64,1.5,2.57-.16,1.62-3.69,4.87-3.73,4.91a6.64,6.64,0,0,0-.32,2.47c0,.31,0,.62,0,.91v.11A24.41,24.41,0,0,1,10.2,234a2.42,2.42,0,0,0,.09,2c.07.15.14.32.2.51.28.11.81.24,1.25.35l1.12.29a4.71,4.71,0,0,0,2.68-.32,18,18,0,0,1,2.08-.52,14.75,14.75,0,0,1,6.21.79l.13,0c.69.17,3.2,2,3.64,3.72.08.3.74.78,1,1a3,3,0,0,1,.81.75l.12.12c.59.59,2.14,2.15,1.41,4-.13.34-.28.69-.44,1a8.1,8.1,0,0,0-.85,2.74,7.24,7.24,0,0,0,.72,3,10.87,10.87,0,0,0,2.44-.35l.26-.05a19.9,19.9,0,0,1,3.68-.56,1.47,1.47,0,0,0,.73-.2,19.61,19.61,0,0,1,3.11-2.62c1.73-1.93,3.63-4.12,4.08-4.74a3.24,3.24,0,0,1,.87-1.24,4.43,4.43,0,0,1,2.37-1.13,3.87,3.87,0,0,1,2.59-2,3.2,3.2,0,0,1,2,.25,4.18,4.18,0,0,1,3.07-1.44l2-3.37,3.58,2.25c1.84-3.87,2.68-4,3.62-3.83,1.22.27,3.73,2.47,3.75,2.49,1,1,.44,4.17,0,5.06h0a60.23,60.23,0,0,0-3.05,8.54,7.69,7.69,0,0,0,3,1.85,9.64,9.64,0,0,0,3.57-1l.8-.31a7.34,7.34,0,0,1,1.86-.55c.63-.11,1.93-.35,5.46-1.18s5.21-.85,6.06,0a1.77,1.77,0,0,1,.49,1,14.19,14.19,0,0,0,2.57.14,47.53,47.53,0,0,1,8.29.77c.85.22,4.3.59,6.36.81,1.07.11,1.93.21,2.23.25a3.59,3.59,0,0,1,2.17,1.4,3.14,3.14,0,0,0,.25.27c.47.17,2.29.62,3.95,1,1.14-.58,1.41-.58,1.65-.58.48,0,.72.14,1.84.84a52.06,52.06,0,0,0,4.57,2.58c3.37,1.63,6.17,6.48,6.29,6.68l.37.64-.31.67c-2.29,4.91-6.15,13.11-6.81,14.23a67.54,67.54,0,0,0-1.75,7.41,3.52,3.52,0,0,1,1.27,1.38c2.2.74,7.47,2.75,9.22,3.57a31.65,31.65,0,0,1,6.2,4.13,2.69,2.69,0,0,1,.77-.24c1.8-.27,3.92,1.27,5.09,2.28a2.3,2.3,0,0,1,.93.08,3,3,0,0,1,1.92,2.15,25,25,0,0,0,3.58,4.89l.42-1.05h1c.22,0,.45,0,1.59.55a2.36,2.36,0,0,1,.67-.55,3,3,0,0,1,2.27-.16,2,2,0,0,1,1.55-.73,1.89,1.89,0,0,1,1.3.62,2.86,2.86,0,0,1,1.1-.47,2.73,2.73,0,0,1,1.42.11,3.49,3.49,0,0,1,3.29-1.24,2.34,2.34,0,0,1,.48-.23,3.49,3.49,0,0,1,2,0l.07-.17a12.84,12.84,0,0,1,1.56-2.6l0-.1c.59-1.18,1.74-.85,3.63-.3,1.48.43,2.76.81,2.5,2.18a1.51,1.51,0,0,1-.64.95c-.09.21-.21.49-.33.83a1.87,1.87,0,0,1,.75,1.48,6.59,6.59,0,0,1-1.45,3.66,3.82,3.82,0,0,1-2,1.35c-.43.15-.5.18-.65.44a6.16,6.16,0,0,0,.46.95,3,3,0,0,1,.46,2.7l0,0,.76.55-.2.93a29.8,29.8,0,0,1-.94,3.21,2.41,2.41,0,0,1-2.57,1.52h-.15l-.08.2a8.43,8.43,0,0,1-.84,1.57,3.06,3.06,0,0,0-.54,1.16A7.84,7.84,0,0,1,164,323.84ZM186.72,318Zm1.3-2.08Zm-21.69-3.38h0ZM152.49,307Zm-32.39-26.95-.05.09ZM40,253.54a1.48,1.48,0,0,1-.08.2A1.3,1.3,0,0,0,40,253.54Zm-9.82-.12Zm35.23-2.67Zm-35.89-8h0Zm-6.35-2.9.08,0Zm-.13-.05h0Zm250.16-21.44-1.36.48,1.35-.36A.89.89,0,0,0,273.22,218.33Zm2.09-10,0,.07Zm16.72-11Zm21.13-21.9Zm5.48-1.69.08,0ZM76,126Zm7.35-22.53h0Zm0-.73Zm.82-.17h0Zm-.93-2.68a1.34,1.34,0,0,0-.4.21A2.06,2.06,0,0,1,83.2,99.94ZM99,99.25l.06.05Zm232.48-6h0Zm-7.7-4.11a1.32,1.32,0,0,1,.07.16A1.23,1.23,0,0,0,323.82,89.12ZM265.89,73.58v0Z"/></svg>