<svg id="Layer_1" data-name="Layer 1" xmlns="http://www.w3.org/2000/svg" viewBox="0 0 350 350"><defs><style>.cls-1{fill:#999;}.cls-2{fill:#f90;}</style></defs><title>Fix</title><path class="cls-1" d="M152,326.54a18.12,18.12,0,0,1,12.54,5.09,21.35,21.35,0,0,1,4.45,6.43c.07-.32.16-.64.26-.95,1.08-3.33,3.65-5.62,6.14-7.84.53-.47,1-.93,1.55-1.41,5.91-5.55,9.81-13,13.58-20.3s7.66-14.74,13.62-20.57a37.53,37.53,0,0,1,3-2.45c3.18-2.45,8.5-6.54,7.61-9-1.06-3-7.9-1.51-10.83-.87l-1.05.22c-3.4.68-7.33,1.3-10.95,0s-7-5.42-5.87-9.66a4.44,4.44,0,0,1,1.33-2.24,5.84,5.84,0,0,1,4.24-1,49.64,49.64,0,0,0,28.76-8.16c6.65-4.35,17.06-13.11,16.68-18.12a6.56,6.56,0,0,0-1.67-3.11l-.52-.69a20.45,20.45,0,0,1,4.3-27.73c4.28-3.1,9.57-4.3,14.24-5.36,9-2,20.08-5.8,16.77-7l.57-2.75a4.1,4.1,0,0,0,3.3-1.36,10.43,10.43,0,0,0,2.46-7.71,40.27,40.27,0,0,0-.89-5.11c-.69-3.15-1.4-6.4-.76-9.73,1.05-5.53,5.28-9.22,9.36-12.8a53.38,53.38,0,0,0,5.27-5c5-5.84,6.74-13.45,8.54-21.52.58-2.62,1.19-5.32,1.91-7.92,2.9-10.42,10.55-22.48,22.41-22.19,4.1.1,12.42,0,11.42-3.06-9.88-2-11.09-15.52-10.3-22.59.07-.59.15-1.18.23-1.77.33-2.39.64-4.65-.13-6.6a13.2,13.2,0,0,0-2.73-3.78c-2.7-3-5.48-6-9-7.84s-7.76-2-10.5-.27a16.66,16.66,0,0,0-4,4.17c-.7.91-1.42,1.86-2.24,2.73a18.42,18.42,0,0,1-12.47,5.78A5.86,5.86,0,0,1,277.91,61a6.54,6.54,0,0,1-1.47-2.81c-2.56-8.23-3.16-17-3.74-25.39-.5-7.37-1-14.35-2.67-20.88-2.08,1.2-3.65,3.51-4.77,7-.34,1.06-.64,2.19-.93,3.27-.84,3.13-1.7,6.36-3.71,9.1-1.89,2.58-5.72,4.17-9.74,4.07-3.73-.09-6.82-1.59-8.48-4.11-3.45-5.23-7.46-4.65-12.53-3.92-1.4.2-2.85.41-4.32.48a12.94,12.94,0,0,0-10.21,5.91,13.11,13.11,0,0,0-1.48,11.86c5.12,14-1.56,23.49-8.62,33.57-1.52,2.17-3.1,4.42-4.6,6.77-2,3.12-4.47,4.33-6.62,3.22-2.49-1.28-2.09-4.12-1.79-6.2a16.15,16.15,0,0,0,.2-1.87A4.06,4.06,0,0,0,190.82,78a4.28,4.28,0,0,0-2.73-1l-2.58,6.53-.64.21c-4.39,1.42-9.29-.3-15-5.26l-.65-.57c-3.51-3.08-7.15-6.27-11.39-6.27h0a22.83,22.83,0,0,0-3.61.41c-2.56.43-5.42.9-7.73-.46-6.9,7.63-15.94,9.38-24.7,11.07-7.39,1.43-14.36,2.78-20.05,7.44-.51.42-1,.88-1.55,1.35-2.68,2.4-6,5.38-9.65,3.38a8.31,8.31,0,0,1-2.65-2.69L77.27,77c-1.61-2.28-3.62-5.12-6.38-6.23a16.05,16.05,0,0,0-3-.77,20.08,20.08,0,0,1-3.23-.8c-2.73-1-4.78-3-6.76-4.87-.79-.76-1.53-1.47-2.32-2.13C53,60,50.45,59.07,47.94,59.31c-5.29.52-10,6.36-14.15,11.52a61.66,61.66,0,0,1-5.34,6.1,7.75,7.75,0,0,0-2.62,4.9,2,2,0,0,0,.64,1.54,6.54,6.54,0,0,0,.86.62,4.51,4.51,0,0,1,2.27,2.59c.55,2.15-1.28,3.8-2.16,4.59a31.25,31.25,0,0,0-8.74,13.35c-2.16,6.51-2.15,13.56-2.14,20.39l0,16.84q0,18.71.07,37.43c0,1.94-.15,3.86-.28,5.56-.27,3.55-.51,6.62.74,7.74.78.7,2.38.84,4.76.41,2.14-.38,4.8-1.74,7.38-3.05,4.52-2.3,9.2-4.68,13-3.14,2,.82,3.54,2.66,4.51,5.47,1.24,3.6,5.06,5.25,9.09,7,3.05,1.32,6.21,2.68,8.6,5a25.05,25.05,0,0,1,3.1,3.91,20.48,20.48,0,0,0,3,3.73c2.65,2.38,6.07,1,11.38-1.65s12.15-6,16.68,1a21.87,21.87,0,0,1,1.4,2.65,14.08,14.08,0,0,0,1.66,2.92c1.76,2.17,4.75,3,7.92,3.9,3.79,1.06,7.71,2.16,9.79,5.74,2,3.38,1.43,8.06-1.46,12.84-.59,1-1.23,1.92-1.85,2.84-1.63,2.4-3.16,4.67-3.77,7.27-1,4.11.46,8.94,4.25,14.35.87,1.24,1.81,2.47,2.72,3.67,2.46,3.23,5,6.56,6.53,10.48A23.42,23.42,0,0,1,118.6,304a51.31,51.31,0,0,1-5.82,3.71c-4.34,2.5-8.45,4.87-9.56,9.1-1.32,5,2.81,10.21,7.38,12.18,8.66,3.74,22.51,2.52,31.15-.54a4.26,4.26,0,0,1,3.06-.13A15,15,0,0,1,152,326.54Z"/><path class="cls-2" d="M169.43,342.48l-1.75-3.83a19.94,19.94,0,0,0-4.15-6A16.59,16.59,0,0,0,152,328a13.66,13.66,0,0,0-6.51,1.57l-.62.34-.64-.29a3.05,3.05,0,0,0-2,.18c-8.9,3.15-23.2,4.39-32.18.5-5.11-2.21-9.7-8.13-8.19-13.85,1.27-4.8,5.82-7.43,10.22-10a50.14,50.14,0,0,0,5.67-3.6,22,22,0,0,0,6.8-24.5c-1.45-3.73-3.93-7-6.33-10.13-.92-1.21-1.88-2.46-2.76-3.72-4-5.76-5.53-11-4.47-15.49.67-2.85,2.28-5.22,4-7.74.65-1,1.26-1.87,1.81-2.78,2.62-4.33,3.14-8.48,1.45-11.4-1.79-3.08-5.27-4.06-8.95-5.09-3.24-.91-6.59-1.85-8.64-4.37a15.3,15.3,0,0,1-1.84-3.22,20.88,20.88,0,0,0-1.3-2.48c-3.56-5.49-8.41-3.66-14.86-.49-4.84,2.38-9.4,4.62-13,1.43a21.49,21.49,0,0,1-3.23-4,23.94,23.94,0,0,0-2.92-3.7c-2.21-2.14-5.24-3.45-8.18-4.72-4.14-1.79-8.42-3.64-9.87-7.83-.83-2.41-2.08-4-3.7-4.62-3.22-1.3-7.61.93-11.85,3.09-2.67,1.36-5.43,2.76-7.77,3.18-2.87.52-4.82.27-6-.76-1.76-1.59-1.51-4.82-1.2-8.9.13-1.7.27-3.58.27-5.45q0-15.6-.06-31.2l0-23.07c0-6.94,0-14.11,2.21-20.84a32.68,32.68,0,0,1,9.14-14c1.08-1,2-2,1.73-3.18-.2-.76-.79-1.19-1.67-1.75a7.52,7.52,0,0,1-1.06-.77,3.38,3.38,0,0,1-1.09-2.57,9.09,9.09,0,0,1,3.07-5.94,60.64,60.64,0,0,0,5.2-5.95c4.33-5.38,9.24-11.47,15.12-12,2.91-.28,5.76.78,8.7,3.25.81.68,1.56,1.4,2.36,2.16,1.91,1.83,3.84,3.69,6.29,4.59a18.94,18.94,0,0,0,3,.74,17.09,17.09,0,0,1,3.27.84c3.15,1.27,5.29,4.3,7,6.73L89.08,91.28a7.09,7.09,0,0,0,2.17,2.26c2.55,1.41,4.93-.43,8-3.19.54-.49,1.08-1,1.6-1.39,6-4.88,13.12-6.27,20.68-7.73,8.52-1.65,17.34-3.36,23.92-10.63l.77-.86,1,.59c1.87,1.1,4.36.68,6.78.28a23.89,23.89,0,0,1,3.84-.43c4.78,0,8.62,3.37,12.33,6.63l.64.56c5.27,4.6,9.72,6.23,13.6,5l2.68-6.78.94,0a5.69,5.69,0,0,1,3.65,1.31,5.48,5.48,0,0,1,2.14,4.27,17.49,17.49,0,0,1-.21,2c-.33,2.29-.44,4,1,4.74,2.12,1.09,4.19-1.81,4.78-2.73,1.52-2.37,3.1-4.63,4.63-6.82,7.14-10.19,13.31-19,8.45-32.27A14.51,14.51,0,0,1,214.17,33a14.34,14.34,0,0,1,11.32-6.54c1.4-.07,2.82-.27,4.19-.47,5.12-.74,10-1.43,13.91,4.54,1.4,2.13,4.08,3.39,7.33,3.48,3.55.09,7-1.32,8.57-3.5,1.85-2.52,2.68-5.62,3.48-8.62.31-1.16.61-2.27,1-3.34,1.24-3.86,3-6.41,5.41-7.8l1.61-.93.47,1.8c1.72,6.66,2.2,13.69,2.71,21.14.57,8.35,1.16,17,3.67,25.06A5.31,5.31,0,0,0,278.92,60a4.61,4.61,0,0,0,3.61,1A17,17,0,0,0,294,55.68c.78-.83,1.47-1.74,2.15-2.63a17.68,17.68,0,0,1,4.36-4.51c3.16-2,7.84-1.92,11.92.21,3.73,2,6.61,5.09,9.38,8.14a14.24,14.24,0,0,1,3,4.22c.91,2.3.55,4.85.21,7.32-.08.6-.16,1.17-.23,1.74-.72,6.49.27,19.23,9.18,21l.81.16.26.78a2.72,2.72,0,0,1-.39,2.53c-.84,1.14-3,2.62-12.42,2.39h-.38c-10.87,0-17.9,11.35-20.63,21.16-.71,2.56-1.31,5.24-1.89,7.83-1.85,8.26-3.59,16-8.85,22.15a54.42,54.42,0,0,1-5.41,5.19c-3.9,3.42-7.94,7-8.9,12-.58,3.05.1,6.16.76,9.17a41.44,41.44,0,0,1,.92,5.29,11.77,11.77,0,0,1-2.86,8.83,5.76,5.76,0,0,1-3.15,1.72l-.16.78a1.83,1.83,0,0,1,.43,1.28c-.19,3.21-13,6.46-18.47,7.71-4.54,1-9.67,2.2-13.72,5.13A19,19,0,0,0,236,231l.46.6a7.76,7.76,0,0,1,2,3.93c.59,7.62-17.14,19.29-17.32,19.41a51.08,51.08,0,0,1-29.59,8.39,4.59,4.59,0,0,0-3.26.66,3.07,3.07,0,0,0-.89,1.55c-.95,3.45,1.85,6.82,5,7.95s7,.59,10.19-.05l1-.22c3.57-.78,11-2.39,12.47,1.79,1.13,3.21-3.18,6.86-8.08,10.64-1.14.88-2.22,1.71-2.87,2.34-5.79,5.66-9.64,13.05-13.35,20.2-3.83,7.37-7.78,15-13.87,20.69-.51.48-1,1-1.58,1.43-2.35,2.1-4.78,4.26-5.74,7.22-.09.27-.16.54-.22.82ZM152,325.12a19.45,19.45,0,0,1,13.53,5.49,22,22,0,0,1,3.23,4,24.56,24.56,0,0,1,5.68-6.44c.52-.46,1-.92,1.53-1.38,5.73-5.38,9.58-12.77,13.29-19.92C193.06,299.56,197,292,203.13,286a38.4,38.4,0,0,1,3.12-2.56c5.1-3.93,7.5-6.43,7.14-7.45-.24-.68-1.75-1.58-9.19,0l-1.08.23c-3.59.72-7.75,1.37-11.71-.06-4.32-1.56-8.13-6.35-6.76-11.37a5.84,5.84,0,0,1,1.76-2.94,7.08,7.08,0,0,1,5.21-1.35,48.24,48.24,0,0,0,27.95-7.93c8-5.21,16.32-13.21,16-16.82a6,6,0,0,0-1.38-2.35l-.54-.71a21.87,21.87,0,0,1,4.6-29.72c4.52-3.27,10-4.5,14.75-5.59,6.91-1.57,13.24-3.71,15.56-5l.14-.93.83-4,1.23.09a2.73,2.73,0,0,0,2.19-.94,9.05,9.05,0,0,0,2.06-6.6,39.12,39.12,0,0,0-.87-4.92c-.72-3.29-1.46-6.68-.77-10.3,1.15-6,5.56-9.87,9.82-13.6a52.3,52.3,0,0,0,5.13-4.91c4.8-5.57,6.47-13,8.23-20.9.59-2.65,1.2-5.36,1.93-8,3-10.78,10.91-23.24,23.36-23.24h.45c5.32.13,8-.35,9.25-.78-3.89-1.44-6.76-4.8-8.36-9.83A35.66,35.66,0,0,1,322,69.85c.07-.59.15-1.19.23-1.78.31-2.23.6-4.31,0-5.92a12.22,12.22,0,0,0-2.45-3.34c-2.62-2.87-5.32-5.82-8.61-7.54s-6.77-1.8-9.09-.33a15.68,15.68,0,0,0-3.63,3.83c-.68.89-1.46,1.91-2.33,2.84a19.85,19.85,0,0,1-13.44,6.23c-2.53.12-4.42-.47-5.76-1.82a7.82,7.82,0,0,1-1.81-3.37c-2.62-8.4-3.22-17.21-3.8-25.73a130.58,130.58,0,0,0-2.12-18.46,13.42,13.42,0,0,0-2.56,4.92c-.32,1-.61,2.08-.89,3.13-.89,3.33-1.79,6.7-4,9.65s-6.43,4.76-10.92,4.65c-4.2-.1-7.71-1.83-9.63-4.75-3-4.48-6.21-4-11.14-3.3-1.43.21-2.92.42-4.45.49a11.54,11.54,0,0,0-9.1,5.28,11.7,11.7,0,0,0-1.33,10.59c5.37,14.66-1.83,24.93-8.79,34.87-1.52,2.16-3.08,4.4-4.57,6.72-2.4,3.75-5.64,5.17-8.46,3.72-3.39-1.74-2.86-5.44-2.55-7.66a15.12,15.12,0,0,0,.18-1.7,2.68,2.68,0,0,0-1.09-2,3.27,3.27,0,0,0-.93-.53l-2.41,6.1-1.27.41c-4.91,1.59-10.26-.22-16.34-5.54l-.65-.57C165,76,161.58,73,157.87,73a21.78,21.78,0,0,0-3.36.39c-2.33.39-5.14.85-7.66-.13-7.1,7.32-16.07,9.05-24.75,10.73-7.21,1.4-14,2.71-19.43,7.14-.49.4-1,.85-1.51,1.31-2.7,2.41-6.77,6.05-11.28,3.56a9.61,9.61,0,0,1-3.12-3.11L76.12,77.85c-1.5-2.13-3.38-4.78-5.75-5.74a14.93,14.93,0,0,0-2.71-.68,21.28,21.28,0,0,1-3.48-.87c-3-1.1-5.17-3.17-7.25-5.18-.79-.76-1.51-1.45-2.25-2.07-2.33-2-4.48-2.8-6.61-2.6-4.69.46-9.2,6.06-13.18,11A62.5,62.5,0,0,1,29.43,78a6.42,6.42,0,0,0-2.17,3.86.56.56,0,0,0,.18.5,6,6,0,0,0,.67.47A5.84,5.84,0,0,1,31,86.22c.77,3-1.58,5.09-2.58,6A29.84,29.84,0,0,0,20.06,105C18,111.25,18,118.19,18,124.9L18,148q0,15.6.06,31.2c0,2-.15,3.92-.28,5.63-.2,2.54-.46,6,.27,6.62.07.06.74.58,3.56.07,1.93-.35,4.5-1.65,7-2.92,4.81-2.45,9.77-5,14.2-3.19,2.42,1,4.21,3.11,5.32,6.33,1,3,4.41,4.47,8.32,6.15,3.17,1.37,6.45,2.78,9,5.28a26.19,26.19,0,0,1,3.28,4.13,19.39,19.39,0,0,0,2.78,3.48c1.81,1.62,4.14.92,9.81-1.86,5.29-2.6,13.28-6.53,18.49,1.49a22.78,22.78,0,0,1,1.49,2.81,13.14,13.14,0,0,0,1.48,2.64c1.48,1.82,4.26,2.6,7.2,3.43,3.88,1.09,8.27,2.32,10.64,6.4,2.23,3.84,1.7,9.05-1.47,14.29-.59,1-1.22,1.92-1.84,2.83-1.6,2.37-3.07,4.54-3.62,6.88-.87,3.7.49,8.14,4,13.21.85,1.22,1.79,2.44,2.69,3.62,2.52,3.31,5.13,6.72,6.72,10.83a24.89,24.89,0,0,1-7.71,27.77,52.28,52.28,0,0,1-6,3.82c-4.08,2.35-7.93,4.57-8.9,8.23-1.09,4.12,2.52,8.77,6.57,10.52,8.33,3.6,21.73,2.39,30.11-.57a6.1,6.1,0,0,1,3.41-.33A16.66,16.66,0,0,1,152,325.12Z"/></svg>