<svg id="Layer_1" data-name="Layer 1" xmlns="http://www.w3.org/2000/svg" viewBox="0 0 350 350"><defs><style>.cls-1{fill:#999;}.cls-2{fill:#f90;}</style></defs><title>M</title><path class="cls-1" d="M333.21,177.68c-.89-2-2.56-3.67-2.67-5.89s.78-2.22.11-3.67-1.67-2.67-1.78-4.67-.56-1.22-1.89-3.56-2.67-2.89-3.11-4.45,6.89-3.33,6.89-3.33-1.22-2.45-.67-2.67a25.79,25.79,0,0,0,6.34-5.67c-3.22-8.89,2.56-9.12,7.11-9.12-3.78-4.22-3.89-11.23-6-14.23-3.56-3.56-2.33-8.56-2.33-12s3.89-7.56,3.89-7.56A29.21,29.21,0,0,1,333,98.09c-4.34-3.22-5.22-9.23-5.78-12.45-.11-3.11.44-5.56,1-10.12-2.33,1.89-6.89-.44-6.56.56-.67,4.56-6.11,5.78-6.11,5.78s-4-5.67-5.34-7.67c-2.33,2-4.34,2.22-5.67.78-.78,1.22-9.89,7.45-12.56,8.23,2.45,3.11-.44,3.78-.44,3.78s.56.33,1,1.78c-.11,1.56-4.22,4.11-6,3.89-1-1.33-8.34-13.12-8.34-13.12-.89-1.56-3.85-5.19-4.74-7.26a13.45,13.45,0,0,1-2.82,1.82c-3.11,1.45-2.89.11-4.56-3.56-.67,1.22-14.45,24.34-15.78,26s-9.67,2.78-9.67,2.78-10.56,2.67-14,2.67c-2.89-.89-4.67-4.45-5.34-5.22a9,9,0,0,1-1.78-5.11c-.11-2.45-2.33-3.67-2.81-5.22s-1-1.22-.41-3.56.89-3.56-1.33-5.34S213.27,75,211.49,75s-2,1.22-3.89,0-4.56-4.78-5.89-5.78a13.35,13.35,0,0,1-3.11-4.56c-.56-1.22-2.11-2.56-3.45-2a10.17,10.17,0,0,1-3.56-1.22L186,52.07l-.34-.69c-2.88,2.53-5.75,5.34-6.55,7.47-1.89,2.22-3.22,8.34-5.34,11.34s-5.34,6.45-9.89,4.45c-4.34-2-8.45-5-13.45,2.78-2.11,4.22-3.33,11.12-6.89,13.34-3,2-9.34-.33-11.56,0s-3.89-1-5.67,5.45c-1.78,2.67-4.67,9.67-5.67,16.34-.89,2.89-.33,5.45-3.67,5.67s-10.78,4.45-16.23,0c-5.45-2.33-11.45-6.11-14.67-5.67-3.78-.44-11.67-5.34-15.45.11-2.78,3-3.81,6.56-2.57,9.89-4-5.22-7.32-9.56-10.54-5.78-2.78,2.33-3.78,5.34-5.45,6.56s-1,7.23-1,10.78c-.33,3.45-2.22,3.45-4.34,2s-5.56-7.45-6.45-8.89-5.89-4.89-7-5.89-2.56-4.45-2.33-5.78c-3-1.56-4.34-5.78-4.34-9.89-.33-2.45.22-2.89-1.11-4.56s-9-7.23-9.34-7.34a12.74,12.74,0,0,1-1.6-1.56h0L12.51,94a13.37,13.37,0,0,1-3.33,5.62c.31,5.49.76,14.17.81,19.21,0,7.71-1.33,8.08-3,10.75s.22,4.08,3,5.41c2.82,2.08,6.89,12.45,7.11,14.67.22,1.19,2.74,1.85,2.74,1.85l7.93,6.89,2.15-.22,6.3-.44,1.26-1.78s7.41-3,9.12-2.82,2.3.52,2.22,2.37-6.89,9.49-9,13.34,0,11.12,0,11.12a10.38,10.38,0,0,0,3.26-2.52c1.11-1.48,12.67-5.48,12.67-5.48l5.63,7.86s8.89-5.48,11.26-7.26c3-2,3.41-7.41,3.41-8.08s-1-6.6-1-6.6l5.41,3.26,5-2.74,3.93,5.41,6.23-3.93-.89-2.37,3-2.82,2.22,2.07,5.93-4.15,3,3.85L94.77,165l1.41,5.34,4.67,9.56L102,182l-2,1.48,1.26,2.52-2.89,1.7,3.33,7.86-2.22,1-14.3,9.71,5,6.22-2.82.67,1.48,2.67-8.15,5.65-6.67-10.24-2.3,1.7-2.45-3.63-6,4.59s13.56,19.56,13.34,19.71-5.11,4.3-5.11,4.3l12.82,20.08-3.11,2.67,2.67,4.59L93,259.24s-.67-2.15-.89-2.59,3.26-2.52,3.26-2.52l6.08-3.11,6.67,9.93,1.41-1.78a8.72,8.72,0,0,1,2.15,2.67c.59,1.63,2.82.07,2.82.07s3.63,4.37,3.85,4.22,5.89-7.41,5.89-7.41l4.67,6.23c0,.67-4.34,2.67-3.67,4.45-2.11,1.22-.44,2.89.89,4.22a4.55,4.55,0,0,1-.89,3s4.11,6.34,5.11,8.34l1.78-2.11s1.78,2.78,3.22,4.67a13.93,13.93,0,0,1,4.34-2.56,42.17,42.17,0,0,0,2.33,5c1,.44,2-2.45,2-2.45s1.45,1.89,3.22,3.78c.11,1.11-2.33,1.56-2.33,1.56s1.78,2.33,4.11,5.78c.11-3.78,5.56-8.45,5.56-8.45l1.22-5.78,9.12-9.12,10.78,1.89s4.89-3,5.45-3.45,5.56-2.45,7.23-2.45,4.34-1.45,6-3.45c1.78-2.45,4,1.45,4.67,2.11a5.11,5.11,0,0,1,1,4.34c-.44,1.78-1.33-.44-2.33.22a3.93,3.93,0,0,1-4.11-.22c-1-.89-2.33.56-4.34-.22s-3.22,1-4.34,1.56-2.33,3.11-2.89,3.22-1,1.78-1.45,2.67-.67,2.11-1.67,4.11.33,2.89,1.22,4.34a6.17,6.17,0,0,0,3.67,2.5,62.56,62.56,0,0,0,7.23,0,16.49,16.49,0,0,0,4.22-.49c2-.56,1.11-1.11,1.56-2.11a30.44,30.44,0,0,0,1.11-5.22c.44-2.45,3.67.22,6.11,1.11s3.56,1.45,5.56,2.33.56,1.89.78,2.22,2.22.11,3.78-.11a9,9,0,0,1,3.45.33c.56.11,1.67,1.22,2.56,1.78s2.78-.44,3.89-1.22,1.67-2.11,3.11-4c.22-4.22,2.45-.78,3.33-.78s2.67-.78,4.22-.78a4.81,4.81,0,0,0,3.89-1.78c.78-1.11,3.56-3,3.78-5.11s2.89-4.22,5.67-5.89c-1.22-2.56,2.33-4.56,3.11-5.78-1.56-2.22,1.56-6,1-8.89-.78-5.78,6.67-6,6.67-6s-1.45,2.22,4.34,4.34,6-3.56,4.89-6.34a5.46,5.46,0,0,1,.89-6c1.11-1.33,2.78-1.78,5.45-.89-.11-2.89,1.45-5.34,3.56-4.78s4.78,4.56,5,3.45c-1-3.45-.78-2.45,4.78-2.33a9.17,9.17,0,0,1-3.78-1.78c-1.11-1,3.78-3.33,4.11-4.56s2.78-1.78,3.67-1.45,2.89,1.78,4.56,2a44,44,0,0,0,5.56,0,9.93,9.93,0,0,1-2.33-1.78c-.44-2.33,2-4.45,3.78-5.67-.33-2.22,3.78-4.67,4.78-5.34.11-2.22,2.33-3.45,5.22-3.67-1-2.89,5-5.89,5-5.89s-.56,0-2.11-2.22c-2.11-3.89,4.11-6.45,8.67-8-2.22-.67-2.89-5.22-2.78-7.78-2.56-2.33,2.22-4.78,2.89-6.45-.89-2.67,0-1.45.78-2.67-.67-1.45-.78-1.78.56-3.33,2.56-2.11,3,1,3.89,1.56s2.78.67,7.45,0C337.66,182.24,334.1,179.68,333.21,177.68Z"/><path class="cls-2" d="M150.31,303.05l-2.46-3.63c-2.28-3.37-4-5.69-4.07-5.72l-1.4-1.84,2.27-.41a4.93,4.93,0,0,0,.66-.18c-.36-.41-.7-.8-1-1.16a3.21,3.21,0,0,1-1.27,1.13,2,2,0,0,1-1.59,0l-.42-.19-.23-.4a37.41,37.41,0,0,1-1.87-3.84,10,10,0,0,0-2.57,1.69l-1.15,1.15-1-1.29c-.76-1-1.6-2.21-2.24-3.16L130,287.51l-1-1.93c-1-1.91-5-8.14-5-8.2l-.55-.84.61-.79a3.49,3.49,0,0,0,.62-1.53c-1-1-2.09-2.3-1.89-3.79a2.8,2.8,0,0,1,.92-1.7c.17-1.6,1.89-2.89,3.1-3.79l.17-.13L124.2,261c-4.69,6-4.86,6.11-5.08,6.26-1.13.76-1.71.32-5-3.61a3.35,3.35,0,0,1-2.23.18,2.44,2.44,0,0,1-1.53-1.45,7.44,7.44,0,0,0-.74-1.12l-1.62,2L101,252.85l-5,2.54a27.38,27.38,0,0,0-2.29,1.52c.23.66.49,1.48.62,1.91l.32,1-11.33,7.49-4-6.91,3.07-2.63L69.57,237.69l.94-.8,4.2-3.55c-1.93-3-8.46-12.49-12.67-18.58l-.77-1.11,8.27-6.33L72,211l2.32-1.72L81,219.53l5.9-4.08-1.77-3.18,2.46-.58L83.08,206l15.77-10.68,1-.46-3.29-7.74,2.82-1.66-1.2-2.4,2-1.47-.56-1.08-4.78-9.85-1.68-6.36,13.69-8.24-1.21-1.54-5.77,4-2.09-1.95-1.32,1.25,1,2.57-8.32,5.25-4-5.48-4.66,2.54L77,160.67c.29,1.72.54,3.36.54,3.78,0,.07-.11,6.67-4,9.26-2.32,1.75-10.93,7.06-11.3,7.29l-1.13.69-5.78-8.07c-4.91,1.74-10.28,3.92-11,4.69a11.45,11.45,0,0,1-3.74,2.9l-1.5.73-.47-1.6c-.09-.32-2.29-7.88.12-12.21a68.74,68.74,0,0,1,4.65-6.61c1.61-2.13,4-5.34,4.22-6.17a2.44,2.44,0,0,0,0-.65,4.39,4.39,0,0,0-1-.19c-.84-.05-4.74,1.25-8,2.57l-1.41,2-7,.49-2.71.28-8.16-7.09c-1-.32-3.12-1.17-3.44-2.87l0-.12c-.2-2-4-11.65-6.45-13.6-1.75-.84-3.58-2-4.13-3.76a4.37,4.37,0,0,1,.62-3.59c.3-.48.58-.89.84-1.27,1.16-1.67,1.92-2.77,1.92-8.74,0-5.13-.53-14.19-.81-19.13l0-.64.46-.45a12.07,12.07,0,0,0,3-5l.11-.43,3.44-3,.93,1a17.49,17.49,0,0,0,1.33,1.34,1.12,1.12,0,0,0-.31-.16c.86.29,8.66,6.13,10,7.8a5,5,0,0,1,1.28,3.61,14.77,14.77,0,0,0,.12,1.64v.19c0,4.12,1.4,7.51,3.57,8.64l.92.47-.17,1a9.17,9.17,0,0,0,1.88,4.49c.3.27,1,.84,1.84,1.44,2.65,2,4.73,3.64,5.43,4.77l.41.68c1,1.65,4,6.69,5.63,7.79,1,.68,1.51.7,1.61.65s.39-.42.51-1.55c0-.72,0-1.54-.06-2.4-.17-4.86-.15-8.15,1.64-9.46A9.4,9.4,0,0,0,53,120a19.62,19.62,0,0,1,3.53-4.23,4.72,4.72,0,0,1,3.7-1.83c2.12.06,4.05,1.72,6.06,4.08a12.56,12.56,0,0,1,3.25-6.24C73,106.95,79,108.92,83,110.22a22.74,22.74,0,0,0,3.15.89c2.7-.26,6.31,1.52,10.47,3.56,1.57.77,3.19,1.57,4.74,2.23l.18.08.15.13c3.46,2.83,8,1.53,11.64.49a18.87,18.87,0,0,1,3.6-.81c1.35-.09,1.5-.4,1.9-2.52a20.89,20.89,0,0,1,.47-2.05A50.14,50.14,0,0,1,125,95.61c1.47-5.2,3.06-6.15,5.83-6.2a7.33,7.33,0,0,0,.94-.06,14.23,14.23,0,0,1,3.91.32c2.35.38,5.58.9,7.08-.1,2.05-1.28,3.3-4.74,4.51-8.08a44.79,44.79,0,0,1,1.9-4.72l.08-.13c5.23-8.14,10.15-5.76,14.1-3.84l1.14.54c3.25,1.42,5.62-.57,8.16-4a28.09,28.09,0,0,0,2.52-5.5,23.83,23.83,0,0,1,2.72-5.72c.83-2,3-4.4,6.85-7.81l1.39-1.22,1.13,2.3,5.33,9a8.86,8.86,0,0,0,2.41.83c2.08-.54,4.12,1.24,4.86,2.86a12.1,12.1,0,0,0,2.67,4,24,24,0,0,1,2.6,2.58,26,26,0,0,0,3.25,3.17c.56.36.59.35,1.09.16a5.25,5.25,0,0,1,2-.41A3.15,3.15,0,0,1,214.38,75a8.39,8.39,0,0,0,1.44,1.45c2.89,2.31,2.41,4.33,1.85,6.66l0,.11c-.29,1.2-.24,1.29-.07,1.66A8.18,8.18,0,0,1,218,86a5,5,0,0,0,.88,1.3,7.17,7.17,0,0,1,2,4.28,7.58,7.58,0,0,0,1.44,4.26,9.93,9.93,0,0,1,.65.91c.74,1.12,2.11,3.17,3.83,3.81,2.88-.09,10.62-1.91,13.44-2.62l.16,0c4-.54,8.14-1.6,8.76-2.27,1.21-1.51,14.92-24.47,15.64-25.8l1.36-2.49,1.17,2.58c.3.65.53,1.23.74,1.73a10.48,10.48,0,0,0,.73,1.56,4.6,4.6,0,0,0,1.21-.44,17,17,0,0,0,2.25-1.34l1.35-2.36,1.12,2.62a32.11,32.11,0,0,0,2.91,4.52c.75,1,1.39,1.94,1.77,2.6,1.78,2.86,6.29,10.06,7.82,12.36a8.42,8.42,0,0,0,3.8-2.41,2.5,2.5,0,0,0-.34-.65l-2.9-1.74,3.42-.79a.76.76,0,0,0,.33-.2s.06-.38-.68-1.33l-1.3-1.65,2-.59c2.33-.68,10.89-6.51,11.78-7.66l1-1.55L305.57,74c1,1.05,2.55.1,3.71-.89l1.21-1,.89,1.33c1,1.5,3.55,5.14,4.72,6.79,1.3-.5,3.66-1.72,4.12-4.14A1.55,1.55,0,0,1,320.6,75c.66-.76,1.57-.59,2.72-.38s3.08.58,4-.17l2.72-2.2-.42,3.48c-.16,1.28-.31,2.4-.46,3.42a36.16,36.16,0,0,0-.54,6.38l0,.25c.54,3.14,1.43,8.38,5.12,11.17a28.1,28.1,0,0,0,5.72,2.6l2.2.66-1.58,1.67c-1,1-3.5,4.23-3.5,6.59,0,.71,0,1.45-.1,2.24-.19,3-.4,6.35,2,8.76l.16.19a19.26,19.26,0,0,1,2.19,5.71c.8,2.88,1.7,6.15,3.71,8.39l2.11,2.36h-3.17c-2.6,0-5.21.11-6.16,1.47-.73,1-.6,3,.38,5.74l.24.67-.4.6a26.81,26.81,0,0,1-6.11,5.68,11.45,11.45,0,0,0,.53,1.24l.8,1.59-1.73.42a23.6,23.6,0,0,0-5.67,2,6.89,6.89,0,0,0,.82,1,14.6,14.6,0,0,1,2,2.65,7.19,7.19,0,0,0,1,1.44,3.61,3.61,0,0,1,1,2.74,6.74,6.74,0,0,0,1,3c.21.39.42.77.6,1.17a3.35,3.35,0,0,1,.19,2.65,4.14,4.14,0,0,0-.18,1.54,7.25,7.25,0,0,0,1.37,3.25,18.35,18.35,0,0,1,1.18,2.13h0c.5,1.11,2.39,2.75,3.29,3.54s1.27,1.1,1.27,1.82v1.23l-1.22.17c-4.79.69-7.07.63-8.4-.2a3.75,3.75,0,0,1-1.14-1.34,4.61,4.61,0,0,0-.49-.71,2,2,0,0,0-.51.31,3.14,3.14,0,0,0-.62.87,6.37,6.37,0,0,0,.35.85l.32.7L327,185a3,3,0,0,1-.81.87c0,.15.1.34.19.59l.16.49-.19.48a7.4,7.4,0,0,1-1.82,2.27c-.64.63-1.72,1.68-1.71,2.2,0,.14.2.34.28.41l.49.45,0,.66c-.12,2.85.77,6.06,1.77,6.36l4.23,1.27-4.18,1.43c-4.77,1.63-7.47,3.19-8,4.63a1.45,1.45,0,0,0,.12,1.29,9.45,9.45,0,0,0,1.28,1.55h5.6L319,212.63c-2,1-4.66,3.1-4.3,4.16l.6,1.74-1.83.14c-.9.07-3.82.44-3.92,2.33l0,.71-.91.6c-3.73,2.41-3.89,3.47-3.85,3.74l.13.88-.73.5c-2,1.37-3.13,2.74-3.21,3.83a8.39,8.39,0,0,0,1.55,1.16l4.92,2.38-5.43.32a43.1,43.1,0,0,1-5.83,0,11.91,11.91,0,0,1-3.9-1.57,10.72,10.72,0,0,0-1-.5,2.8,2.8,0,0,0-1.83.55c-.23.87-1.12,1.58-2.55,2.65-.35.26-.83.62-1.2.94a8.9,8.9,0,0,0,2.18.9h-.07l0,2.83h0c-1.29,0-2.32-.1-3.07-.15l-.53,0,.17.59.13.46-.07.34a1.62,1.62,0,0,1-1.1,1.26c-1.06.33-1.83-.41-3-1.54a9.22,9.22,0,0,0-2.67-2.08.78.78,0,0,0-.75.17,4,4,0,0,0-1,3.18l.08,2L274,244.5c-2.76-.92-3.57,0-3.91.45a4.07,4.07,0,0,0-.66,4.57c.76,1.9,1.18,5.46-.79,7.48-.94,1-2.72,1.87-5.91.71-3-1.1-4.73-2.41-5.26-4v0a5.94,5.94,0,0,0-3.22,1.63,3.12,3.12,0,0,0-.62,2.57,10,10,0,0,1-.77,4.84c-.45,1.37-.92,2.79-.47,3.43l.54.78-.51.8a8.05,8.05,0,0,1-1.3,1.41c-1.48,1.39-2.12,2.2-1.73,3l.56,1.16-1.11.66c-4.32,2.59-4.93,4.24-5,4.82-.21,2-1.87,3.6-3.08,4.78a10.06,10.06,0,0,0-1,1,6.17,6.17,0,0,1-5.05,2.38,9.91,9.91,0,0,0-2.31.42,8,8,0,0,1-1.92.36,3.13,3.13,0,0,1-1.86-.87l0,0c0,.1,0,.21,0,.33l0,.44-.27.35c-.49.64-.88,1.23-1.23,1.75a8.88,8.88,0,0,1-2.2,2.56c-1.32.92-3.78,2.31-5.46,1.26a14.12,14.12,0,0,1-1.27-.94,9.8,9.8,0,0,0-.9-.67l-.31-.07a6.72,6.72,0,0,0-2.57-.23c-3.5.5-4.56.4-5.16-.51a1.69,1.69,0,0,1-.07-1.67l-.1,0-1.13-.51c-1.36-.61-2.44-1.1-4.34-1.79a20,20,0,0,1-2.27-1.06,15.12,15.12,0,0,0-2-.92c-.09.48-.17.94-.24,1.37a18.19,18.19,0,0,1-.93,4,.78.78,0,0,0,0,.29c0,1.38-.75,2.14-2.44,2.61a18,18,0,0,1-4.59.55,50.18,50.18,0,0,1-7.58,0,7.62,7.62,0,0,1-4.54-3.13c-.17-.27-.35-.52-.53-.76-.81-1.1-1.93-2.6-.75-4.95a20.94,20.94,0,0,0,1.11-2.69,11.85,11.85,0,0,1,.56-1.42c.12-.23.23-.53.35-.83.43-1.08.84-2.11,1.72-2.48.15-.17.38-.51.57-.77a7.44,7.44,0,0,1,2.33-2.45,5.54,5.54,0,0,0,.69-.48c.19-.15.41-.31.65-.48a26.23,26.23,0,0,0-3.64,1.48c-.53.43-4.38,2.8-5.54,3.51l-.46.28L165.4,276.8l-8.3,8.3-1.23,5.84-.36.31c-1.92,1.65-5,5.13-5.06,7.41Zm-3.12-9.51c.37.51.82,1.13,1.32,1.85a22.65,22.65,0,0,1,4.78-6l1.21-5.73,9.93-9.93,11,1.92c2.21-1.36,4.53-2.82,4.85-3.07.77-.62,6.09-2.75,8.11-2.75,1.17,0,3.47-1.21,4.91-2.94a2.91,2.91,0,0,1,2.35-1.31h0c1.81,0,3.2,1.81,4,2.89.15.19.26.35.35.44a6.5,6.5,0,0,1,1.37,5.68,2.26,2.26,0,0,1-1.25,1.66,2.12,2.12,0,0,1-2-.37l0,0a5.34,5.34,0,0,1-5.42-.49,5.35,5.35,0,0,0-.57.1,5.54,5.54,0,0,1-3.4-.12c-.66-.26-1.1,0-2,.73a7.2,7.2,0,0,1-1.15.77,7.74,7.74,0,0,0-1.29,1.55,4.9,4.9,0,0,1-1.53,1.65c-.13.24-.32.71-.44,1s-.3.75-.45,1a9.84,9.84,0,0,0-.42,1.09,23.63,23.63,0,0,1-1.25,3c-.38.77-.24,1,.49,2,.23.31.46.62.67,1a4.77,4.77,0,0,0,2.8,1.86,58.83,58.83,0,0,0,6.82,0h.1a15.11,15.11,0,0,0,3.81-.44l.37-.12a3.26,3.26,0,0,1,.27-1.2,17.85,17.85,0,0,0,.73-3.29c.09-.5.18-1,.28-1.61a2.5,2.5,0,0,1,1.33-1.92c1.39-.68,3,.16,4.73,1a18.05,18.05,0,0,0,1.93.91c2,.73,3.12,1.23,4.53,1.87l1.12.5a3,3,0,0,1,1.78,1.67,2.16,2.16,0,0,1,.13.56c.45,0,1.05-.11,1.87-.22a9.42,9.42,0,0,1,3.64.28l.28.07a5.21,5.21,0,0,1,2,1.21c.32.25.65.52.92.7a5.89,5.89,0,0,0,2.41-1.13,6.82,6.82,0,0,0,1.47-1.81c.31-.46.65-1,1.07-1.55a3.15,3.15,0,0,1,1.48-2.82c1.24-.57,2.36.29,3.1.86l.34.26c.27,0,.67-.15,1-.24a12.16,12.16,0,0,1,3-.52,3.46,3.46,0,0,0,2.73-1.17,10.87,10.87,0,0,1,1.3-1.4c.9-.88,2.13-2.08,2.23-3,.22-2.08,2-4.18,5.42-6.38-.28-2.21,1.56-3.93,2.72-5l.37-.35c-.48-1.57.1-3.32.62-4.9a8.07,8.07,0,0,0,.67-3.49,6,6,0,0,1,1.26-4.86c2.26-2.66,6.58-2.82,6.76-2.83l2.71-.08-1.41,2.17c0,.25.6,1.25,3.57,2.34,1,.35,2.26.64,2.9,0,.82-.85.76-3,.19-4.46a6.9,6.9,0,0,1,1.12-7.44,5.29,5.29,0,0,1,5.24-1.76,6,6,0,0,1,2-3.67,3.62,3.62,0,0,1,3.25-.7,7.74,7.74,0,0,1,3,1.89,1.93,1.93,0,0,1,.2-.3,1.81,1.81,0,0,1,1-.64,1.86,1.86,0,0,1-.1-.68c.06-1.26,1.32-2.21,2.78-3.31a12.39,12.39,0,0,0,1.58-1.31,3.24,3.24,0,0,1,1.71-1.84,5.3,5.3,0,0,1,3.79-.45,11.09,11.09,0,0,1,1.35.68,10,10,0,0,0,2.9,1.24,15,15,0,0,0,1.68.08l0-.19c-.3-1.57.14-4,3.76-6.67.29-2.11,2.55-3.91,4.87-5.44.45-2,2.29-3.52,5-4.06.32-2.09,2.45-3.85,4.1-4.92-.27-.32-.55-.7-.87-1.16l-.08-.14a4.33,4.33,0,0,1-.3-3.74c1-2.47,4.12-4.16,7.53-5.48a13.76,13.76,0,0,1-1.52-6.7,3.15,3.15,0,0,1-.73-2c0-1.74,1.41-3.14,2.57-4.27.29-.28.68-.66.93-1-.32-1.07-.47-2.21.62-2.92-.43-1.32-.17-2.23,1.19-3.81l.17-.17a3.59,3.59,0,0,1,2.89-1,3.71,3.71,0,0,1,2.43,2.05c.09.14.21.35.29.44.36.18,1.27.31,3.4.12a11,11,0,0,1-2.5-3.16h0a16.07,16.07,0,0,0-1-1.8,9.71,9.71,0,0,1-1.79-4.59,6.88,6.88,0,0,1,.28-2.45c.11-.38.11-.38,0-.7s-.34-.67-.52-1a9.35,9.35,0,0,1-1.39-4.18c0-.69,0-.69-.31-1a9.94,9.94,0,0,1-1.4-1.94,11.86,11.86,0,0,0-1.62-2.17,6.47,6.47,0,0,1-1.63-2.59,2,2,0,0,1,.21-1.56c.79-1.36,3.71-2.44,6.09-3.12a2.82,2.82,0,0,1-.16-2.09,1.61,1.61,0,0,1,.91-.94,28.21,28.21,0,0,0,5.28-4.6c-1.09-3.35-1-5.85.21-7.61s3.62-2.43,5.79-2.6a30.87,30.87,0,0,1-2.69-7.24,18.76,18.76,0,0,0-1.72-4.75c-3.22-3.31-2.95-7.66-2.74-10.85,0-.74.09-1.44.09-2.06,0-2.56,1.66-5.24,2.92-6.91a30.84,30.84,0,0,1-4.46-2.22l-.11-.07c-4.64-3.45-5.7-9.66-6.27-13l-.08-.53a38.22,38.22,0,0,1,.56-7l.15-1.06a12.4,12.4,0,0,1-3.69-.28c-1.39,4.56-6.72,5.81-7,5.87l-.92.21-.55-.77c-.14-.19-2.85-4-4.52-6.46-2.34,1.51-4.1,1.19-5.2.61a69.22,69.22,0,0,1-10.63,7,3.33,3.33,0,0,1,.18,2.5,2.85,2.85,0,0,1-.67,1.07,7.8,7.8,0,0,1,.35.93l.08.25,0,.26a4.44,4.44,0,0,1-1.9,2.89c-1.28,1.05-3.85,2.53-5.69,2.3l-.6-.07-.36-.48c-1-1.34-7.65-12-8.41-13.22-.33-.58-1-1.46-1.64-2.4-.81-1.13-1.69-2.36-2.37-3.48-.44.27-1,.58-1.7.94a4.52,4.52,0,0,1-3.5.55,3.65,3.65,0,0,1-1.9-2.22c-3.72,6.29-13.3,22.28-14.48,23.75-1.51,1.89-7.79,2.92-10.51,3.29-1.06.27-10.82,2.69-14.27,2.69h-.21l-.2-.06c-2.79-.86-4.59-3.57-5.55-5-.19-.28-.33-.51-.44-.64a10.35,10.35,0,0,1-2.12-6,4.6,4.6,0,0,0-1.35-2.62,6.83,6.83,0,0,1-1.4-2.26,5.5,5.5,0,0,0-.31-.78c-.48-1-.56-1.67-.12-3.52l0-.11c.53-2.21.62-2.6-.87-3.79a11.19,11.19,0,0,1-1.88-1.88,3.87,3.87,0,0,0-.29-.34,3.88,3.88,0,0,0-.39,0,2.54,2.54,0,0,0-1,.23,3.53,3.53,0,0,1-3.66-.45,26.58,26.58,0,0,1-3.75-3.6,24.51,24.51,0,0,0-2.22-2.24c-1.69-1.27-3-4-3.55-5.1-.35-.78-1.26-1.42-1.61-1.28l-.34.14L195,64a11.62,11.62,0,0,1-4.12-1.42l-.31-.18-5.25-8.81c-2.72,2.51-4.35,4.43-4.84,5.73l-.09.23-.16.19a21.34,21.34,0,0,0-2.39,5.09A29.63,29.63,0,0,1,175,71c-1.69,2.29-5.61,7.57-11.62,4.93l-1.21-.58c-3.82-1.85-6.58-3.19-10.43,2.76A44.08,44.08,0,0,0,150,82.46c-1.37,3.79-2.79,7.71-5.64,9.49-2.39,1.6-6.09,1-9.07.52a14.37,14.37,0,0,0-3-.32,9.84,9.84,0,0,1-1.31.09c-1.26,0-2,0-3.21,4.33l-.06.22-.13.19c-1.67,2.5-4.49,9.37-5.45,15.76l0,.21a17.52,17.52,0,0,0-.43,1.86c-.39,2-.88,4.57-4.5,4.81a17.9,17.9,0,0,0-3,.71c-3.78,1.08-9.46,2.7-14-.89-1.56-.68-3.16-1.46-4.7-2.22-3.53-1.73-7.18-3.53-9-3.27l-.18,0-.18,0a21.39,21.39,0,0,1-3.85-1c-4.57-1.5-8.22-2.41-10.27.54l-.12.15c-2.5,2.69-3.31,5.69-2.29,8.44L72.72,131l-5.78-7.57c-2.36-3.1-5-6.6-6.8-6.65-.18,0-.73,0-1.54.93l-.17.17a16.82,16.82,0,0,0-3.09,3.72,11.2,11.2,0,0,1-2.43,2.9c-.7.69-.55,5-.48,7.07,0,.92.06,1.8.06,2.57v.14c-.2,2-.91,3.34-2.13,3.91s-2.72.28-4.41-.88c-1.87-1.28-4.32-5.1-6.46-8.67L39.1,128c-.47-.77-3.24-2.87-4.72-4-.91-.69-1.63-1.24-2-1.59a11.84,11.84,0,0,1-2.79-6c-2.72-1.88-4.33-5.75-4.35-10.6a17.46,17.46,0,0,1-.14-1.83,2.37,2.37,0,0,0-.67-1.93c-1.08-1.35-7.88-6.34-8.83-6.93a3.85,3.85,0,0,1-1.09-.9l-.74.64a15.07,15.07,0,0,1-3.12,5.35c.29,5.07.73,13.66.78,18.66,0,6.54-.92,8.2-2.43,10.37-.24.34-.49.7-.75,1.13a1.72,1.72,0,0,0-.33,1.3c.18.6,1.11,1.31,2.77,2.09l.23.14c3.24,2.39,7.24,12.77,7.66,15.48a4.74,4.74,0,0,0,1.72.82l.32.08,7.71,6.7,1.54-.16,5.68-.4,1.11-1.57.38-.16c2.33-1,8-3.16,9.84-2.91s3.58.73,3.46,3.83c-.05,1.32-1.43,3.26-4.79,7.7a67.46,67.46,0,0,0-4.43,6.28c-1.17,2.09-.8,5.76-.32,8.2A6,6,0,0,0,42,176.57c1.19-1.59,8.87-4.43,13.34-6l1-.35,5.48,7.64c2.46-1.53,8.24-5.15,10-6.49,2.36-1.56,2.84-6.11,2.84-6.94,0-.45-.53-3.59-1-6.35L73.13,155l7.38,4.45,5.42-2.95,3.88,5.34,4.13-2.6-.81-2.17,4.61-4.38,2.36,2.2,6.08-4.26,4.86,6.17-14.62,8.8,1.1,4.17,4.61,9.43,1.65,3.19-2,1.49,1.32,2.64-3,1.75,3.38,8-3.36,1.57L87.2,206.64l5.4,6.78-3.17.75,1.2,2.15-10.41,7.21-6.64-10.2L71.3,215l-2.43-3.61-3.73,2.86c13,18.73,12.94,18.92,12.8,19.67l-.11.58-.5.33c-.21.16-2.31,1.94-4,3.4l12.82,20.08L83,261l1.32,2.27,7-4.66c-.21-.65-.41-1.22-.48-1.37-.63-1.26.23-2.24,3.8-4.37l7.28-3.73,6.29,9.36,1.07-1.35,1.11.85a10,10,0,0,1,2.52,3.08,3.2,3.2,0,0,0,.78-.38l1.07-.75.83,1c.88,1.07,1.91,2.26,2.64,3.06,1.22-1.52,3.42-4.32,4.89-6.22l1.14-1.46,6.07,8.08v.47c0,.95-.7,1.47-1.77,2.27a8.3,8.3,0,0,0-2,1.78l.38,1-1,.6a1,1,0,0,0-.32.25,8.55,8.55,0,0,0,1.5,1.75l.33.33.07.47a5.41,5.41,0,0,1-.62,3.18c.82,1.28,2.5,3.91,3.67,5.88l1.7-2,1,1.62s1.13,1.77,2.29,3.39a17.48,17.48,0,0,1,3.6-1.85l1.3-.47.5,1.29s.62,1.61,1.42,3.24c.1-.21.19-.43.26-.64l.87-2.48,1.6,2.09s1.43,1.86,3.13,3.67l.33.35,0,.48A2.46,2.46,0,0,1,147.18,293.54Zm70.14-1.64h0Zm-.12,0h0ZM228.75,286Zm-29.4-1.28h0Zm-17-4.54h0Zm-1-2.58h0Zm11.46-5.08a2.55,2.55,0,0,1,1.77.66,2.6,2.6,0,0,0,2.38.1,2.08,2.08,0,0,1,1.83-.27,3.73,3.73,0,0,0-.71-2.11,8.4,8.4,0,0,1-.59-.72c-.85-1.11-1.44-1.7-1.76-1.77,0,0-.07.08-.17.21a11.78,11.78,0,0,1-6.17,3.93l.42.14a2.83,2.83,0,0,0,1.78,0A5.73,5.73,0,0,1,192.77,272.57Zm93.94-39.79h0Zm.06-.14Zm-211-.13-.12.09Zm255.31-51.17h0Zm-.42-30.57h0Zm.07,0-.06,0Zm-40-62.64Z"/></svg>