<svg id="Layer_1" data-name="Layer 1" xmlns="http://www.w3.org/2000/svg" viewBox="0 0 350 350"><defs><style>.cls-1{fill:#999;}.cls-2{fill:#f90;}</style></defs><title>M</title><path class="cls-1" d="M122.88,294.89s-1.92-.61-1.48,1.75,1.13,3-1.4,2.44-4.1-1.48-5.32.17c-2.09.09-11.72,0-11.72,0s-1.18-2.14-2.55-2.47c-1.31.07-3.21-.59-3.53,1.57a17.77,17.77,0,0,0-4.84-.79A4.8,4.8,0,0,0,89.81,300c.52-3.21,1.11-4.84-1.83-3.21,0-1.31-1.11-2.23-2.49-1,0-1.18-.2-2-1.83-1a1.94,1.94,0,0,0-3.47.14,20.43,20.43,0,0,0-2.81-.33l-3.34-.2s2.75-1.83.79-2.16a23.24,23.24,0,0,0-3.21.39l-6.74-4.19a12.3,12.3,0,0,1-1.11-9.95c1-2.95,3-5.37,3.34-7,.39-.39-2.4-.92-3.88-.39.09-1-1.42-4.71-5.8-3.8-1-.46-6-3.8-6.41-6.81s1.9-4.12,2.55-3.86c.2-2.68.13-4.25-1.51-4.65-1-1.51-2.23-3.47-4.71-3.67.65-2.16-1.37-3.08-4.25-2.62-.33-1.24-.46-2.88.92-3.93,1-1.7,2-4.19-.46-5a55.5,55.5,0,0,1-5.17-2.88c-.59-.46-7.53-3.27-6,1.31-.59.79-2,.33-2,.33s-.13-2.68-2.42-1.44c-.13-1.11.59-2.81-2.09-3.21.52-1.77.39-2.23-1.24-2.09a21.47,21.47,0,0,0-2-4s-4.06-2.23-4.78.52c-1.64.26-7.59-.33-9.29,1.64-1.24-.79-2.29-1-1.51-4.65.59-2.09,2-5-.85-4.45.2-1.77.59-5.37.59-6.94a7.8,7.8,0,0,1,6,.33c.72-2.23,1.7-4,4.58-.33-.13.39-1.7,2.62.92,3.21,2.49.79,2.23,1,3.08,2.16,2.49-.46,5.76-.52,7.79-3.73,1.83-2.62,4.65-6.22,6.74-6.74l5.69-4.71s-.2-1.77-1-2.36,1-1,2.95-1c1-.2,1.7-1,.07-1.77-1.24-.39-.79-2.09-.79-2.09s1.57-.2,1.9-.72,1.24-2.29,2.23-2.29,1.7-.65,1.7-2.23c0-.92,2.75-5-.79-5.83,1.57-.79,4.39-1.51,5.63-2.49a10.68,10.68,0,0,0,2.36-3c.13-.26.72,2.95,3.08-.92a3.64,3.64,0,0,0,5.64-2.09c.64.65,1.69,1,2.54-.65,1.51.26,3.93,1,4.12-1.9.92-.79,2.29.39,1-1.18,1.83.26,2.16-.2,2.16-1.18,3.21-.07,4.39-.39,3.93-1.18s2.95,1.51,1-2.09c1.11-.46,5.3-2.62,5.3-2.62s3.67-.26,5.43-1.31,7.46-5,8.18-5.89,3.4-6.94,6.61-9c2.29-3,5.11-6.94,5.11-6.94s4.58.85,5.69-4.78c.72-.52,2.36-3.08,6-2.16a5,5,0,0,0,3.4-2.23,3.42,3.42,0,0,0,1.37-2.75c2.42-.33,4.32-.33,3.67-4.71a18.91,18.91,0,0,1,.13-4.12l4.71-6.55,4.25-5.11,7.2-5.63,2.81,2.29,7.53-4.84s1.57-4.58,5.56-4.65c1.37-.59,3.47-.85,5-3.93,1.57-1.24,3.21-1.83,4.52-1.51s3.67.39,3.93-2.75c1.51,1.57,1.9,3.86,3.4,3.53,1.57-.92,2.95-2.95,4.78-2.75s5.89-.65,6.22,1.18c.2,1.11.72,2.42,1.83,1.44.2,1.37.33,3.27,3.34,3.34,2.49,1.11,5.56,2.29,6.68,1.57s2.36-.46,2-3a12.57,12.57,0,0,0,.07-3.86l6.67-.65s1.7,1.77,3,0c1.37-.85,4.39-.2,4.39-.2v5.76a37.84,37.84,0,0,0,6-1c3.6-.79,7.07.65,8.25.65s1.83-1.57.52-1.9c3.73-.07,3.67.2,3.73-1.24.07-1.9,0-2.88,0-2.88s-1.37,1.11-1.77.72.2-8.38.2-8.38L232,77.9l1.7-1.51,3.53.85c.26.07,2.09-1.64,2.81-1.83s6.28-2.42,6.41-3.8,3.86,2,3.93-2.29c2.16.33,3.47-1.57,5.11-2.88s5.69-.59,5.83-6.22a37,37,0,0,1,.92-5.3s7.13,2.75,9.3,2.68,10.34.65,15.58-.92a32.3,32.3,0,0,1,20.62.85C313,59.18,313,58.66,313,58.66s.59,2.81,2.16,1.31c1.37-.26,1.31,3.21,3.08,1.57-.26,2.23-.92,3.6,4.06,3.14,2.88.07,3.86.26,3.47-2,1-.92,2.42-1.51,3.14-1.31s1.37,2.81,3.4.2c1.24-.26,6.09-.26,6.81-.65a42.33,42.33,0,0,1,4.71-1.31L340.38,67l-8.71,17s-5.56-2.29-7.85-2.16-5.89,1-7.2,1-2.62,1-3.73-1c0,4.19-.07,5.3-.07,5.63s8.18-.07,8.9.72c.07.46-1,1.51-1.7,1.83s-7.4,1.18-8.71.85-2.16,2.62-6.81,1.64a41.22,41.22,0,0,1-4.45-1l.07-9.88h-8.25l-.33,3.4-3.14-.2-2,3.34A1.79,1.79,0,0,1,285,90.6a10.74,10.74,0,0,0-3.27.33c-.33,0-6.41,9.82-6.41,9.82l12.7,6.61v12.18s-.92.92-1.11.92S276.56,118,276.56,118l-4.65,9.75s-4.06,2.75-4.06,6,.85,7.07,2.36,6.94a12.58,12.58,0,0,1,2.95.13s-.92,4.58,0,5.76c.59.92,1.44.65.07,1.24s-2.09,2.75-2.49,3.67a6.68,6.68,0,0,1-1.57,2.16c-.2.07-1.24-.59-1.77,1.31-1,.26-5-.52-4.39,3.27-1-.39-3.27-1.18-4.19.72-1.83-1.11-4.91-3.27-6.15-3.53-2,1.11-7.13,3-8.25,6.35s-2.81,8.51-2,9.23c2.09.39,4.39,2.29,4.52,3.47.07,1.51.07,4.19-.65,5.63s-2,5.3-3.14,5.5a9.78,9.78,0,0,1-2.29-1.11s-1.64,4.58-2.29,4.58c-1-.79-2.36,3.73-3.47,3.27s-5.69-3.4-5.69-3.4L224,193.56s3.6,10.74,5.17,13.94,2.49,5.17,2.49,5.17l-4.84,10.93a45.34,45.34,0,0,0-3.47,6.87c-1.44,1.64-3.4,2.36-3.4,4.12,0,1.11.07,5.3.07,5.3l-6.55.13-.07,2.42-10.21,5.69.59,11.46,3.8.39-.07,5-4.39,1.51-1.24,1.9-3.6-.46s.52-1.37-1.24-1.44a6.86,6.86,0,0,0-3.86.85,17.62,17.62,0,0,0-2.68,1.9c-1,1-2.49,3.86-5.11,3.93a5.86,5.86,0,0,1-5-3.08,70.31,70.31,0,0,0-4.32-5.89s2.16-2.36,3.21-3.53c-.07-1.24-9-2.62-9-2.62s-4.06-.85-3.08,3.14c-1.18-.2-7.66-1.31-7.72,4.06.2,3.53-.26,11.65-.26,11.65l-7.53,1.9-1.37-28a19.46,19.46,0,0,0-4.12-1.51c-1.11-.07-3.67.72-3.21,4.71a12.73,12.73,0,0,1-4-2.55c-2.29.92-8.18,1.57-8.18,1.57l-.33,14.14.26,6.68-6.09,4.24.72,5.12s-1.77.92-1.24,2a9.63,9.63,0,0,1,.59,5.3C124.63,291.68,122.88,294.89,122.88,294.89Z"/><path class="cls-2" d="M110.68,300.71c-3.38,0-7.47,0-7.73,0h-.83l-.4-.73a4.94,4.94,0,0,0-1.52-1.73l-.71,0a3.49,3.49,0,0,0-1.11,0,1.09,1.09,0,0,0-.1.35L98,300.15l-1.54-.43a19.1,19.1,0,0,0-4.1-.73,3.2,3.2,0,0,0-1.26,1.48l-2.73-.71c.05-.33.11-.65.16-1s.09-.54.14-.81l0,0-2.11,1.17v-2.44l-.12.1L84.07,299v-2.78l-1.1.66-.63-1.53c0-.1-.22-.13-.36-.13s-.42.1-.46.22l-.42,1.16-1.2-.25a19.1,19.1,0,0,0-2.58-.3l-7.58-.45L72.11,294l-.19,0-.56.12-7.48-4.65-.17-.24a13.68,13.68,0,0,1-1.31-11.15,24.25,24.25,0,0,1,2.12-4.43c.27-.48.54-.95.75-1.36a4.34,4.34,0,0,0-1.58.12l-2.07.73L61.8,271a3.08,3.08,0,0,0-1.1-1.77,3.5,3.5,0,0,0-3-.52l-.44.09-.42-.18c-.77-.34-6.64-3.9-7.25-7.89A4.88,4.88,0,0,1,51.23,256a4.09,4.09,0,0,1,1-.57c.06-1.76-.18-2-.49-2.05l-.55-.13-.31-.47c-1.12-1.72-2-2.9-3.64-3l-1.76-.14.51-1.69c0-.12.11-.42,0-.53s-1.11-.53-2.69-.28l-1.27.2-.33-1.24c-.73-2.77.19-4.36,1.2-5.23.72-1.23.85-2,.74-2.36-.06-.16-.25-.29-.57-.4l-.17-.07a55.92,55.92,0,0,1-5.41-3,8.73,8.73,0,0,0-3.9-1,2.46,2.46,0,0,0,.15.69l.24.71-.45.6a3.23,3.23,0,0,1-3.59.83l-.94-.3,0-1a1.62,1.62,0,0,0-.08-.38l-.25.12-1.84,1-.24-2.08a6.23,6.23,0,0,1,0-.93c0-.91,0-.91-.87-1L24,232l.46-1.57.08-.27-1,.08-.33-1.09a18.45,18.45,0,0,0-1.61-3.33,3.83,3.83,0,0,0-2.26-.47s-.09,0-.15.26l-.23.89-.91.15a17.48,17.48,0,0,1-2.2.11c-1.75,0-5.41.08-6.25,1.06l-.8.92L7.53,228c-1.85-1.12-2.64-2.35-1.85-6,.11-.4.22-.75.33-1.09a15.12,15.12,0,0,0,.46-1.67h0l-1.88.35.21-1.9c.16-1.43.58-5.23.58-6.78v-.81l.7-.41c1.22-.72,3.87-.87,5.93-.31a3.19,3.19,0,0,1,2.22-2c1.72-.31,3.2,1.24,4.28,2.62l.47.6-.24.72a3.65,3.65,0,0,1-.19.44,3,3,0,0,0-.32.81,1.58,1.58,0,0,0,.39.13l.12,0c2.08.66,2.65,1,3.31,2l.15,0c2.24-.35,4.36-.68,5.77-2.92,3-4.22,5.32-6.59,7.26-7.26l4.82-4a1.77,1.77,0,0,0-.31-.65,1.69,1.69,0,0,1-.73-2c.33-1,1.51-1.41,2.81-1.55a3.47,3.47,0,0,1-.41-2.87l.25-.92.95-.12a4.69,4.69,0,0,0,1-.23l0,0c.57-1,1.63-2.76,3.31-2.76a.35.35,0,0,0,.14,0h0s.15-.17.15-.79a4.59,4.59,0,0,1,.43-1.59c.26-.67.79-2.05.53-2.54-.1-.18-.47-.28-.63-.31l-3.9-.87,3.57-1.79a24.45,24.45,0,0,1,2.34-1,13.8,13.8,0,0,0,3-1.38,9.22,9.22,0,0,0,2-2.53l.39-.78.89,0a1.44,1.44,0,0,1,1.23.68,7.75,7.75,0,0,0,.63-.9l.86-1.41,1.26,1.07a2.74,2.74,0,0,0,2,.21,2.17,2.17,0,0,0,1.33-1.62l.68-2.31,1.69,1.72,0,0a2,2,0,0,0,.23-.36l.48-.92,1.43.25c.51.1,1.57.3,1.84.09.06,0,.18-.26.21-.76l0-.59.45-.39.15-.12-1.5-1.89,3.52.5.54.06V168l1.39,0a20.09,20.09,0,0,0,2.53-.17,1.48,1.48,0,0,1,.26-.59,1.4,1.4,0,0,1,.83-.55l-.68-1.26,1.46-.6c.87-.36,4-2,5.19-2.57l.26-.13.29,0A14.19,14.19,0,0,0,89.35,161a72.19,72.19,0,0,0,7.8-5.55c.1-.14.43-.72.71-1.23,1.28-2.3,3.39-6.1,6-7.9,2.23-2.93,4.91-6.68,4.94-6.71l.53-.73.89.16c.53.09,3.26.32,4-3.66l.11-.55.45-.33c.08-.06.17-.16.29-.28a6.8,6.8,0,0,1,6.65-2.17,3.87,3.87,0,0,0,2.17-1.61,3.56,3.56,0,0,1,.49-.53,1.56,1.56,0,0,0,.62-1.4v-1.24l1.61-.22c.88-.11,1.71-.22,2-.54.12-.16.38-.74.12-2.51a20.38,20.38,0,0,1,.13-4.55l.05-.33,5-6.9,4.47-5.31,8.09-6.33,2.89,2.36,6.28-4c.58-1.33,2.49-4.88,6.41-5.11l.54-.2A5.19,5.19,0,0,0,166,90.63l.14-.29.25-.2c2-1.57,4-2.2,5.74-1.77a2.1,2.1,0,0,0,1.62-.1,2,2,0,0,0,.55-1.4l.26-3.13L176.78,86a11.33,11.33,0,0,1,1.51,2.1,10.18,10.18,0,0,0,.59.91c.28-.21.57-.46.88-.72,1.12-.95,2.51-2.13,4.34-1.93a14.28,14.28,0,0,0,1.69,0c2.25-.08,5.32-.2,5.78,2.34l0,.15L193,87.65l.46,2.73c.19,1.35.26,1.9,1.94,1.94h.29l.26.12c4.2,1.88,5.22,1.7,5.38,1.65a5.77,5.77,0,0,1,.91-.46,3.26,3.26,0,0,0,.42-.2,3.92,3.92,0,0,0-.05-.91l0-.29.07-.28a11.06,11.06,0,0,0,0-3.31l-.2-1.46,8.81-.87.48.49a1.26,1.26,0,0,0,.64.35s.08,0,.22-.21l.16-.22.23-.14c1.77-1.1,4.84-.51,5.43-.38l1.12.24v5.33c1-.13,2.46-.37,4.21-.79a11.9,11.9,0,0,1,1.74-.24l-3.39-.85,10.73-.19h2.34q0-.24,0-.46a1.71,1.71,0,0,1-1.37-.5c-.48-.48-.82-.82-.28-8.53l-4-2,3.84-3.4.72.17,3,.72.46-.34A7.37,7.37,0,0,1,239.72,74c.93-.26,4.71-1.94,5.41-2.77a1.74,1.74,0,0,1,.7-1.09,2.59,2.59,0,0,1,2.24-.14,4.77,4.77,0,0,0,.83.16,2.65,2.65,0,0,0,.12-.89l0-1.62,1.6.24c.95.14,1.66-.47,2.85-1.56.38-.35.76-.7,1.16-1a6.78,6.78,0,0,1,2.17-1c1.7-.57,3.05-1,3.12-4.12a38.35,38.35,0,0,1,1-5.62l.39-1.54,1.49.57c2.82,1.09,7.33,2.59,8.69,2.59h0c.51,0,1.27,0,2.23,0,3.4.1,9.1.27,13-.89a33.82,33.82,0,0,1,21.52.88c3.51,1.09,4.32,1.11,4.39,1.1a1.22,1.22,0,0,0-.8.43l1,.86,1.47-.25a2.5,2.5,0,0,0,.08.29h0l.41-.08a2.56,2.56,0,0,1,2.69,1.64L320,57.88l-.45,3.82c0,.2,0,.4-.08.59a7.77,7.77,0,0,0-.09.95,7.85,7.85,0,0,0,2.69,0h.08l.67,0c.54,0,1.12,0,1.5,0,0-.09,0-.19,0-.32l-.14-.79.6-.53c1.22-1.07,3.07-2,4.45-1.61a2.63,2.63,0,0,1,1.3,1l.17.2a3.71,3.71,0,0,0,.44-.49l.32-.41.51-.11a26.75,26.75,0,0,1,3.17-.27,30.7,30.7,0,0,0,3.34-.28,37.33,37.33,0,0,1,5-1.41l2.82-.65-4.62,10-9.33,18.16-1.21-.5c-2-.84-5.81-2.14-7.23-2.06a37,37,0,0,0-4,.59,22.62,22.62,0,0,1-3.3.46,4.07,4.07,0,0,0-.71.1,5.11,5.11,0,0,1-1.62.13c0,.7,0,1.24,0,1.65l1.42,0c4.82.07,6.34.21,7.08,1l.3.32.06.43c.23,1.59-2,3.08-2.47,3.3a34.16,34.16,0,0,1-9.48,1l-.43.29a7.32,7.32,0,0,1-6.53,1.32,41.84,41.84,0,0,1-4.58-1.08l-1-.31.06-9.51h-5.53l-.34,3.49-3.64-.23L288,88.27a3.35,3.35,0,0,1-.33,2.19A3.19,3.19,0,0,1,285.24,92l-.14,0H285a8.41,8.41,0,0,0-2.49.2c-.76,1-3,4.51-5.15,8l12.1,6.3v13.62l-.41.42c-1.13,1.13-1.58,1.33-2.12,1.33-.21,0-.35,0-9.56-2.19L273,128.74l-.32.22c-1,.65-3.44,2.8-3.44,4.85a11.61,11.61,0,0,0,1.06,5.51,14.28,14.28,0,0,1,3.08.17l1.42.26-.28,1.41c-.38,1.93-.5,4.15-.24,4.65a1,1,0,0,0,.3.31,1.62,1.62,0,0,1,.76,1.51c-.1.93-.86,1.25-1.59,1.56s-1.31,1.85-1.58,2.52l-.17.41c-.29.69-1.49,2.63-2.43,2.95a1.6,1.6,0,0,1-.75.06,2.54,2.54,0,0,0-.1.29l-.22.8-.8.2a5.82,5.82,0,0,1-1.19.12c-.62,0-1.76.06-2.06.44a1.55,1.55,0,0,0-.08,1.1l.42,2.44-2.31-.87c-2-.76-2.27-.28-2.42,0l-.68,1.41-1.33-.81c-.48-.29-1-.65-1.63-1a38.74,38.74,0,0,0-3.66-2.18l-.89.44c-2.16,1.06-5.42,2.66-6.14,4.81a52.15,52.15,0,0,0-2.12,7.64c2.18.75,4.54,2.66,4.74,4.46.09,2.08,0,4.78-.79,6.42-.17.33-.36.8-.58,1.32-1.23,2.9-2.09,4.68-3.58,4.94l-.34.06-.33-.1a9.72,9.72,0,0,1-1.11-.43c-1.52,3.84-2.3,4-3,4-.18.25-.42.63-.58.88-.78,1.25-1.84,3-3.5,2.28a56.8,56.8,0,0,1-5-3l-3.9,3.29c.9,2.65,3.54,10.31,4.79,12.86,1.42,3.16,2.46,5.11,2.47,5.13l.32.61L228,224.36a44.28,44.28,0,0,0-3.34,6.61l-.09.25-.18.2a14,14,0,0,1-1.7,1.57c-.94.77-1.35,1.16-1.35,1.62,0,1.11.07,5.28.07,5.28l0,1.41-6.61.13-.05,1.88L204.64,249l.48,9.36,3.88.4-.09,7.33L204,267.73,202.57,270l-6.55-.83.66-1.17a5.43,5.43,0,0,0-2.7.6c-.21.15-.46.3-.72.46a10.36,10.36,0,0,0-1.8,1.31,9.27,9.27,0,0,0-.71.84c-1.07,1.36-2.69,3.4-5.33,3.47a7.29,7.29,0,0,1-6.37-3.93,64.76,64.76,0,0,0-4.13-5.58l-.76-.95.82-.89L177,261a53.19,53.19,0,0,0-7-1.52,2.13,2.13,0,0,0-1.49.15c-.09.09-.19.47,0,1.26l.51,2.09-2.12-.35c-3.31-.55-4.71.13-5.26.59a2.6,2.6,0,0,0-.82,2.09c.2,3.48-.25,11.38-.26,11.71l-.06,1-10.22,2.58-1.42-28.88a14.12,14.12,0,0,0-2.83-1,1.62,1.62,0,0,0-1.19.5,3.28,3.28,0,0,0-.53,2.64l.24,2.08-2-.55a12.46,12.46,0,0,1-3.93-2.32,47.38,47.38,0,0,1-6.48,1.22l-.3,12.91.29,7.36-6,4.19.74,5.25-.89.46a2.52,2.52,0,0,0-.5.36,11.32,11.32,0,0,1,.59,5.94,19.15,19.15,0,0,1-2,4.77l-.56,1-.78-.25v0c.08.41.16.77.23,1.07.22.93.45,1.89-.29,2.65s-2,.57-3,.37c-.57-.12-1.1-.26-1.58-.39-1.85-.49-2-.41-2.31,0l-.4.55-.68,0C114,300.7,112.45,300.71,110.68,300.71Zm-6.93-2.87c2.11,0,7.94.06,10.27,0,1.46-1.41,3.25-.94,4.84-.51.4.11.84.22,1.3.32-.05-.23-.11-.49-.16-.77a2.89,2.89,0,0,1,.73-2.9,2.35,2.35,0,0,1,1.32-.57,13.65,13.65,0,0,0,1.22-3v-.19l.06-.2a8.62,8.62,0,0,0-.52-4.2,2.65,2.65,0,0,1,1-3.28l-.72-5.1,6.17-4.3-.23-5.9.35-15.47,1.23-.14a44,44,0,0,0,7.81-1.48l.87-.35.66.66a13.75,13.75,0,0,0,1.65,1.28,4.91,4.91,0,0,1,1.22-2.47,4.5,4.5,0,0,1,3.41-1.38,18.15,18.15,0,0,1,4.65,1.64l.76.36L153,277.06l4.84-1.22c.11-2.29.36-7.78.21-10.45a5.4,5.4,0,0,1,1.83-4.33c1.34-1.12,3.28-1.59,5.77-1.42a3.25,3.25,0,0,1,.88-2c1.41-1.46,3.77-1,4-1,10,1.54,10,3,10.09,3.93l0,.58-.39.44c-.64.72-1.68,1.86-2.41,2.66a45.94,45.94,0,0,1,3.76,5.26,4.45,4.45,0,0,0,3.71,2.23c1.31,0,2.3-1.29,3.17-2.39a10.7,10.7,0,0,1,1-1.15,13.12,13.12,0,0,1,2.26-1.66c.21-.13.41-.25.58-.37a8,8,0,0,1,4.73-1.11,2.69,2.69,0,0,1,2.3,1.12,2.25,2.25,0,0,1,.24.48l1.55.2,1-1.56,3.9-1.34,0-2.75-3.72-.38-.7-13.55L212,241.62l.08-3,6.49-.13c0-1.33,0-3.22,0-3.91,0-1.84,1.27-2.89,2.39-3.81a13.52,13.52,0,0,0,1.2-1.07,46.87,46.87,0,0,1,3.44-6.78l4.53-10.22c-.42-.83-1.22-2.44-2.21-4.64-1.57-3.21-5.07-13.63-5.22-14.07l-.31-.91,7-5.88.88.57c1.43.92,3.75,2.37,4.91,3,.19-.27.42-.63.57-.88.7-1.13,1.31-2.1,2.36-2.28a30.33,30.33,0,0,0,1.51-3.58l.62-1.73,1.52,1a8.78,8.78,0,0,0,1.24.67,23.39,23.39,0,0,0,1.47-3c.25-.58.47-1.11.66-1.48a11.89,11.89,0,0,0,.51-4.83,5.6,5.6,0,0,0-3.37-2.24l-.37-.07-.29-.24c-1.27-1.08-1-3.29,1.53-10.76,1.09-3.28,5-5.19,7.58-6.46.51-.25,1-.48,1.32-.67l.47-.26.52.11c1.1.23,2.7,1.23,5,2.72l.52.33a3.85,3.85,0,0,1,3.14-.68,3.33,3.33,0,0,1,.65-1.3c1.1-1.35,3-1.44,4.11-1.48a2.43,2.43,0,0,1,2.23-1.44,6.27,6.27,0,0,0,.8-1.25l.15-.35a8.62,8.62,0,0,1,2.21-3.52c-.62-1.23-.52-3.27-.29-5a9.27,9.27,0,0,0-1.17,0,2.36,2.36,0,0,1-1.84-.66c-1.52-1.39-2.06-5-2.06-7.69,0-3.43,3.24-6.14,4.35-7l5-10.46,1.12.27c3.17.76,8.06,1.92,9.7,2.29h0V108.22L273.3,101.3l.8-1.3c6.27-10.12,6.63-10.48,7.52-10.49l.08,0a10.48,10.48,0,0,1,3.17-.31.66.66,0,0,0,.28-.11,1,1,0,0,0,0-.5l-.25-.64,2.75-4.68,2.64.17.32-3.32h11l-.07,10.23c.77.2,1.93.48,3.28.72a4.63,4.63,0,0,0,4.34-.84,3,3,0,0,1,2.56-.78,32.29,32.29,0,0,0,5.72-.41l-1.73,0c-3.09,0-4.25-.06-4.25-1.58,0-.08,0-.2,0-.39,0-.59.06-2,.06-5.24V76.07l2.67,5c.33.63.33.63,1.21.46a6.22,6.22,0,0,1,1.27-.16,23.53,23.53,0,0,0,2.79-.42,38.85,38.85,0,0,1,4.33-.63c1.89-.11,5.39,1.08,7.26,1.79l8.12-15.81,2.13-4.59a12.91,12.91,0,0,0-1.51.47c-.62.34-1.72.43-4.45.58-.82,0-1.71.09-2.29.15a3.23,3.23,0,0,1-2.3,1.25h0a3,3,0,0,1-2.29-1.33l0,0a4.35,4.35,0,0,0-1.12.55,2.65,2.65,0,0,1-.57,1.89c-.83,1-2.09.92-3.85.87h-.5c-2.73.24-4.13,0-5-.91a2.69,2.69,0,0,1-.72-1.94,3.22,3.22,0,0,1-1.48-1.56l0,0a2.2,2.2,0,0,1-1.48.07,2.88,2.88,0,0,1-1.67-1.63,33.27,33.27,0,0,1-4.59-1.2,31.1,31.1,0,0,0-19.8-.84c-4.31,1.29-10.29,1.12-13.87,1-.9,0-1.62,0-2.06,0h-.1c-1.85,0-5.88-1.36-8.21-2.21a30.45,30.45,0,0,0-.53,3.52c-.12,5-3.21,6.06-5.06,6.67a5,5,0,0,0-1.29.54c-.35.28-.68.59-1,.89a7.68,7.68,0,0,1-3.72,2.27,3,3,0,0,1-1.07,1.76,3.56,3.56,0,0,1-3.15.33c-1.6,2.22-7,4-7,4a13.5,13.5,0,0,0-1.22.87c-1,.75-1.53,1.17-2.32,1l-.46-.11-.07.94c-.16,2.11-.29,4.52-.32,6.12l1.71-1.38L238,86.9s.07,1.08,0,3c-.1,2.34-1.28,2.56-3.09,2.59a2.69,2.69,0,0,1-2.58,1.92,9.1,9.1,0,0,1-1.86-.31,14.12,14.12,0,0,0-6.08-.38,38.82,38.82,0,0,1-6.18,1l-1.5.08v-6a5.5,5.5,0,0,0-2.06.11A3,3,0,0,1,212.54,90a3.56,3.56,0,0,1-2.29-.73l-4.69.46a11.45,11.45,0,0,1-.16,2.65c.31,2.59-.91,3.35-2.08,3.86a4,4,0,0,0-.55.27c-1.35.87-3.61.48-7.77-1.36a4.09,4.09,0,0,1-4.12-3l-.28-.08c-.92-.32-1.53-1.23-1.81-2.71a10.16,10.16,0,0,0-2.9-.14,15.31,15.31,0,0,1-2.1,0c-.62-.07-1.39.58-2.2,1.27a12.11,12.11,0,0,1-1.71,1.29l-.19.11-.22,0c-1.72.38-2.7-.88-3.36-1.94a3.71,3.71,0,0,1-.66.6,4.74,4.74,0,0,1-4,.54,4.11,4.11,0,0,0-3.06,1.06,7.9,7.9,0,0,1-4.89,4.06l-.64.24-.26.11h-.28c-3,0-4.23,3.65-4.25,3.69l-.16.47-8.81,5.67-2.73-2.23L140.22,109l-4.13,5-4.48,6.22a17.16,17.16,0,0,0-.08,3.45c.31,2.07.1,3.54-.67,4.56a4.44,4.44,0,0,1-3.14,1.55,4.32,4.32,0,0,1-1.37,2.2l-.15.14a6.28,6.28,0,0,1-4.43,2.79l-.23,0-.22-.05a4,4,0,0,0-4.23,1.38l-.16.16c-1.06,4.38-4.15,5.5-6.27,5.5h0c-.9,1.25-2.94,4.06-4.66,6.32l-.15.2-.22.14c-2.13,1.35-4.18,5-5.29,7a14,14,0,0,1-1,1.62c-1,1.24-7.14,5.38-8.57,6.24A16.08,16.08,0,0,1,85,164.91c-.69.36-2.49,1.27-3.83,1.93A2.25,2.25,0,0,1,81,169a1.82,1.82,0,0,1-1.52.7c-.62.78-1.86,1-3.9,1.14a2.14,2.14,0,0,1-.53.68,2.36,2.36,0,0,1-1,.5l0,.08a1.58,1.58,0,0,1-1.55.83,3.27,3.27,0,0,1-1.14,1.79,4.49,4.49,0,0,1-3.57.55,2.81,2.81,0,0,1-1.73,1,2.57,2.57,0,0,1-.77,0,4.58,4.58,0,0,1-2.63,2,5.66,5.66,0,0,1-3.22-.06,3.23,3.23,0,0,1-2.56,1.53,2.08,2.08,0,0,1-.75-.17,9.54,9.54,0,0,1-1.73,1.87,14.29,14.29,0,0,1-3.67,1.76c.86,1.63.11,3.58-.39,4.87-.09.22-.2.52-.24.66,0,2.54-1.59,3.49-3,3.55a5,5,0,0,0-1,1.37l-.15.26a2.64,2.64,0,0,1-1.3,1A2.24,2.24,0,0,1,46,197.15a2.49,2.49,0,0,1-2.2,2l-.15,0h-.16c-.32,0-.62,0-.89,0a6.83,6.83,0,0,1,.45,1.75l.08.76-.59.49-5.7,4.72-.25.2-.31.08c-.46.11-2.23.9-5.92,6.18-2.06,3.27-5.32,3.78-7.7,4.15l-1,.17-.88.16-.52-.73c-.15-.21-.28-.4-.38-.56-.33-.5-.37-.57-1.92-1.06a3.14,3.14,0,0,1-2.29-1.65,3.32,3.32,0,0,1,.08-2.7,4.09,4.09,0,0,0-1-.86,5.59,5.59,0,0,0-.6,1.4l-.56,1.73-1.54-1a6.94,6.94,0,0,0-3.89-.5c-.07,1.25-.23,2.94-.4,4.58a2.22,2.22,0,0,1,1,.64c1.05,1.19.5,2.93,0,4.61-.1.31-.2.62-.28.92-.36,1.66-.31,2.17.07,2.52,1.93-1.14,5-1.18,7.35-1.22l1.06,0a3,3,0,0,1,1.36-1.16c2-.85,4.56.47,5.06.74l.32.18.2.31a26.37,26.37,0,0,1,1.75,3.34,2.21,2.21,0,0,1,1.49.77,2.29,2.29,0,0,1,.44,1.75,3,3,0,0,1,1.79,2.47,2.48,2.48,0,0,1,.95.3,2.55,2.55,0,0,1,.61.48,2.53,2.53,0,0,1,1-1.35c2.23-1.59,6.81.54,7.38,1,.41.32,2.82,1.67,4.86,2.69a3.47,3.47,0,0,1,2.22,2.09c.48,1.34.11,3-1.11,5l-.14.22-.21.16a1.41,1.41,0,0,0-.58,1.27,4.86,4.86,0,0,1,3.85,1.35,3,3,0,0,1,.73,1.67A8.13,8.13,0,0,1,53,250.82c2.37,1,2.16,3.82,2,5.94l-.14,1.93-1.55-.62c-.29.13-1.11.65-.87,2.23.3,2,3.82,4.73,5.24,5.54a5.93,5.93,0,0,1,6.68,3.66c1.54-.09,3.42.18,4,1.11a1.51,1.51,0,0,1,.12,1.39A13.56,13.56,0,0,1,67,275.11,22.08,22.08,0,0,0,65.1,279a11,11,0,0,0,.8,8.47l6,3.73c.57-.1,1.54-.23,2.83-.31h.16l.16,0a2,2,0,0,1,1.85,1.53,1.82,1.82,0,0,1,0,.78l.56,0s1,0,2.07.19a3.41,3.41,0,0,1,2.4-1,3.31,3.31,0,0,1,2.13.68,2.19,2.19,0,0,1,1.75.13,1.92,1.92,0,0,1,.66.61,2.56,2.56,0,0,1,1.3.2,2.6,2.6,0,0,1,1,.85,2.25,2.25,0,0,1,2,.22,1.87,1.87,0,0,1,.77,1.14l.11-.06H92a17.24,17.24,0,0,1,4,.52c.94-1.47,2.77-1.37,3.65-1.32.24,0,.48,0,.7,0h.2l.2,0A5.74,5.74,0,0,1,103.75,297.85Zm-17-1.21Zm-1.88-.85Zm-78-76.58Zm36.46-21.74h0ZM50,188.78Zm0-.13h0Zm15.46-15.18ZM321,89.29Zm-73-17.54h0Zm.94-1.49Zm89.57-10.58,0,0Z"/></svg>