<svg id="Layer_1" data-name="Layer 1" xmlns="http://www.w3.org/2000/svg" viewBox="0 0 350 350"><defs><style>.cls-1{fill:#999;}.cls-2{fill:#f90;}</style></defs><title>M</title><path class="cls-1" d="M287.79,270.83l-1.13-2.25,1.65-3-2.63-1.8-2,1.28-.9-.75-1.13.6L277.8,263l3.08-4.13-3.23-1.66s-3.31,4.73-4.36,5-2.93,2.55-2.93,2.55a55.62,55.62,0,0,0-4.66-3.08c-.23.08-2,.53-2,.53l-1.28-2.71s-1.73-3-3-2.33-2.1-2.63-2.4-1.13-4-.3-4-.3l-2.93-1.5-3,.9-2.1-2.48-1.65,1.35-1.28-1,1.13-1.35-1.8-2,2-2.78L245,244l-8.49-7.89-3.46,1.43s-1.35-1.5-1.35-1.88a7.56,7.56,0,0,1,.3-1.35l-.6-1.73,1.2-1.43-1.13-1.35,1-.9-1.05-1,1.65-2.63-1.88-1,.83-1.65,3.08-.68,3.46,1.2,1.5-2.4,2.63,1.28,2.71-2.18,1.88,1.73-1.65,1.73.75,1.58,1.58,2-.75,1.13s1.5,1.58,1.43,1.8a25.91,25.91,0,0,0,1.88-2l1.2-2.33,1.43-3.61,1.58.6-.9,1.73,2.33,1.88,1.58-.9,3.38,3.76-2,2.48,3.46,2.55-.38.83,5.41,3.91,1.88-3-2-.75.45-2.86-1.58-2.63.45-1.58-1.65-4.28-1.2-2.78,2.33-3.08.23-2.25.23-1.88-2-1.05s.9-2.18.53-2.25a47,47,0,0,1-3.91-3.31l-.75-1.28-1.88-.68.08-1.35-4.66-2.78.6-2.4-1.58-1.43-1.43,2.18-4.43-3.23L250.3,191l2.25-.53,2.63-1.88s6.16-8,6.39-8a17.63,17.63,0,0,0,1.65-2l1.5.83,2.55.9,1.88-.23,1.28.83a18,18,0,0,0,3.23,1.28c.6,0,2.63.08,3.46.08a18,18,0,0,0,2.86-.53,8.32,8.32,0,0,1-2-3.68c-.68-2.48-6-5.86-6-5.86l-3.38.45-1.5-.75.23-2.55-3-1.88,3.61-6.09-14.35-1.8v-3.46l-6.31,1.58a17.85,17.85,0,0,0-3.61-1.58c-1.2-.23-4.21,1.8-4.21,1.8l-26.38-3.38-3.31,3.83-4.58-.83L201,152.93,189.81,150l-3.23-1.2-5.64-1.5-1.65-4.21-7.81-3.16-2.86.23-2.48,4.58L151,141.81l-17.58-1.43-12.62-1.13-9.09-4.81-16.08-6s-.68-.3-1.28-2-3.31-3.16-3.31-3.16l-7.06-1H78.6l-2.93,1.43s-6.16-.38-8-2.18.9-8.27.9-8.27l-2-.75.38-1.8s-2.63-.45-3.91-.83-5.86-5-5.86-5a6.05,6.05,0,0,0-.15,1.8c0,1.43-2.4,6.91-2.4,6.91l1.73,2.4-.83,1.28L51.47,116l-2.1-4.13-1.5,3.23-3.08-.53-3.08,2.86L23.52,110.7l-1.35,1.73h0l-5.47-.66,2.39-3.25L6.25,105l3.74-4.9,6.39,1,4.88-.83,3.38-3.38.9-3.38L27,88l2.33,3.23s-.45,2,.6,2.71c0,2.33,1.5,4.43,2.18,1.88,1.35-3.61,3.38-2.4,3.38-2.4l2.63,2.78.08,3.61s3,3,5.41,3.31,5.11-2.25,5.11-2.25,4,4.43,4.73,4.13,2.93-4.21,2.93-4.21l-.68-5.34,4-1.88,1.05,4.73a10.37,10.37,0,0,0,1.2,2.93,5.83,5.83,0,0,0,3.61,1.88,4.87,4.87,0,0,0,3.46-.45c1-.6,2.1-4,2.1-4s3.46,2.88,4.51.48.55-3.11.55-3.11l5.91-5,2.81,1.1,1.5,4.21L76.24,110.88s-1.1,2.4,2.5,2.1,6.31-5,6.31-5l4.71-3.91s-.1,7-.3,9.12.9,4.21,3.71,3.11,3.81-2,3.81-2.6-3.41-12.62-3.41-12.92,2.3-3,2.4-3.51,1-5.81,3-2.71,1.5,3.51,3.91,2.81-.2,4.81,1.4,5.41,7.21-.3,7.21-.3-1.2,1.9-.7,3.41-1.1,3-.8,4.21.5,1.7.8,2.91,5.61,4.11,6.11,4.11a19.38,19.38,0,0,1,3.31,1.88l4.91-2.08,2-2.71,3.31-.7-2.2,3.31,2.6,5.61,2,5.51,3,.8,4,1.8s2.3,1,4.41-2.61a30.53,30.53,0,0,0,3-7.81l2.2-.4.9-3.81.6.5-.3,3.51,5,.5,4.71.9,2.5,1.35L165,124l1.5,2.55,5.56-3,3.16.45,5.86-.15,3.91-1.2s1.65-.6,1.65-1.05-.15-2.71-.15-2.71l.6-.9,1.2-3.61s5.11,4.51,7.51,3.31,2.55-6,2.55-6,4.06,2.4,5-1.05,2.55-4.51,2.55-4.51l6.16-6,1.3,1.45s.65,3.36,1.85,3.36a3.79,3.79,0,0,1,3,1.55,5.36,5.36,0,0,0,1.65,1.8c.2,0,2.05.35,2.25.35s2.05,1.9,2.81,1.8a37.3,37.3,0,0,0,3.86-1.3s3.56-1.65,4-2.3a1.89,1.89,0,0,0,0-2.4c-.75-.8-2.81-4.76-1.9-6.36s3.11-2,.8-6.81-1.1-7.51-1.1-7.51,3,3.41,4.31,3.61,3.41-2.91,4.11-3.11,3.91-2.2,3.91-3,1.5-1.2,1.8-1.3,8.82-4.51,8.82-4.51.3,3.61.8,3.91,2.61,1.9,2.61,1.9-.1,2.81.2,3.11,2.2,2.1,2.2,2.1l5.61-1.7a10.34,10.34,0,0,1,1.3,2.4c0,.5-.4,2.91-.4,3.21a1.52,1.52,0,0,0,2.5.8c1.5-1.2,6-5.41,7-5.61s3.91-.6,3.91-.6l3,1L284,84l5.11,1.8s2.1,7.51,3.71,7.41,2.61-2.81,3.61-3.31,3.86-1.4,4.48-1.9,3.93,0,3.93,0a4.33,4.33,0,0,0,0,3.81c1,2-.4,2.91,1.2,6.11s1.3,6.11,4.21,6.31a16.29,16.29,0,0,0,3.81,0l.8,4.61a2.94,2.94,0,0,0,2.5-1.3,10.89,10.89,0,0,1,2-2.3s-.6,3-2.91,4.11A10.72,10.72,0,0,0,313,112s-1.4,2.4-.1,3.41,2.71,1.9,3.51,1.6,3.91.4,3.91.4l3.11-.2s-2.91,1.6-3.11,4.21.4,3.61,1.9,3.81a19.42,19.42,0,0,0,3.21.1c.3,0,1.4-.9,2.3-2.71a30.68,30.68,0,0,1,2.71-4.11l3,1.1s1.1.9.6,3.31,2.4,2.2,1.2,4.81-2.71,7.11-.5,9.22l-1.8,4.41-1.7,7.61s-4,10.82-3.31,11,2.1.7,2.1.7-.6,6.91-.4,7.21l2,3.11s-1.4,1.7-.3,2.71a5,5,0,0,0,2.71,1.1l2.71.4s-3.61,4.91-2.3,5.11,4.41,3.11,4.41,3.11v1.5l1,2.5s-2.81.3-1.2,1.8,1.7,1.9,1.2,2.1-3.41.9-3.41.9-4,5.51-3.81,5.91,2.1.4,2.81.4,3.61.1,3.61.1l1.5,4-1.1,2.4,1.1,1.5,2.2-.4,1,.7-.6,1.1-1.5-.4-2.61.3-3.31,3.91.3,1.8-1,1.6-2.2.2-2.81,2.3.9,2.1s-.7,3.11.6,3.21a17.29,17.29,0,0,0,2.91-.1l2.71,1.9-.5,2.71,1.1,1-.8,1.6,1.1.9,1.2,2-2.5,3.31,2.5,1-3.71-.3-2,1.3s-2.2-.9-3.11.4-2.91,3.81-1.5,4.71a20.46,20.46,0,0,1,2.3,1.7s-.8,1.7.2,2.71a12.73,12.73,0,0,0,2.91,1.9s-5,4.81-4.71,6.11a2.32,2.32,0,0,0,1.7,1.6l-4.11,5.61s.4,2.3-1,2.3-4.91,5.46-4.91,5.46l-5,1.25h-8L303,269.28l-2,1.7h-1.78a12.21,12.21,0,0,0-1.7-.5,20.24,20.24,0,0,0-2.61,2.3h-2.4l-1.4,1.8-2.2-1.7S289.65,271.78,287.79,270.83Z"/><path class="cls-2" d="M291.3,276.57l-4.41-3.41.62-.85a2.24,2.24,0,0,0-.36-.22l-.41-.21-1.67-3.33,1.39-2.53-.79-.54-2,1.33-1-.81-.92.49-6.11-2.93,3.11-4.17-.65-.33c-3,4.18-4.06,4.48-4.41,4.58a10,10,0,0,0-2.23,2.1l-.84,1-1.07-.76c-1.47-1-3.22-2.25-4-2.72l-1.54.39-1.13.28-1.75-3.7a6.07,6.07,0,0,0-1.34-1.62,2.3,2.3,0,0,1-2.56-.74c-1.42.69-3.65-.2-4.86-.79l-2.45-1.25-3.35,1-1.8-2.13-1.44,1.18L240,253.33l1.29-1.55-1.74-2,2.57-3.65,1.12-1.9-7-6.5-3.54,1.46-.67-.74c-1.72-1.91-1.72-2.46-1.72-2.83a5.75,5.75,0,0,1,.23-1.31l-.72-2.06,1-1.14-1.23-1.48.84-.78-.79-.73,1.46-2.32-1.75-.91,1.75-3.5,4.13-.91,2.77,1,1.58-2.53,3,1.44,3-2.38,3.84,3.53-2,2.07.26.56,1.94,2.49.89-1.73,1.92-4.84,4.38,1.67-1.1,2.11.67.54,1.73-1,4.94,5.49-1.79,2.27,3.2,2.37-.37.82,2,1.44.54-3.39-1.63-2.71.49-1.71-1.48-3.84-1.51-3.49,2.59-3.42.3-2.79-2.31-1.2.5-1.2c.14-.33.27-.7.37-1-.63-.5-1.66-1.38-3.4-3l-.16-.14-.6-1-2.39-.86.09-1.55-4.83-2.88.37-1.5-.78,1.19-6.66-4.86,3.87-6.75,2.58-.6,2.23-1.59c4.78-6.18,6-7.69,6.53-8.13.2-.19.86-1,1.37-1.68l.74-1,2.47,1.36,2.13.75,2.06-.25,1.63,1.06a20.76,20.76,0,0,0,2.61,1.1l1.44,0,1.94,0a3.47,3.47,0,0,0,.47,0,11.42,11.42,0,0,1-.93-2.37c-.34-1.24-3-3.45-5-4.76l-3.29.44-2.76-1.38.23-2.65-3.44-2.15,3.21-5.42-13.45-1.69V157.9l-5.1,1.27-.49-.28a15.81,15.81,0,0,0-3.17-1.42,11,11,0,0,0-3.15,1.59l-.44.3L213.68,156l-3.34,3.87-5.85-1.06-4.25-4.63-10.93-2.87-3.17-1.18-6.26-1.67-1.69-4.31-6.94-2.8-1.75.14-2.61,4.82-16-3.11-17.5-1.42-12.92-1.15-9.26-4.9-16-6c-.45-.2-1.39-.79-2.11-2.8a6.65,6.65,0,0,0-2.45-2.27l-6.69-.93h-5l-3,1.45-.37,0c-1.12-.07-6.8-.51-8.88-2.59-1.86-1.86-.79-6,.07-8.44l-1.83-.68.33-1.58c-.86-.17-1.92-.39-2.62-.6-1-.28-2.76-1.8-4.39-3.31a44,44,0,0,1-2,5.53l1.82,2.54-2,3-5.65-2-1-2-.73,1.57L45.23,116,42,119l-18-6.63-1.21,1.54-8.68-1,2.61-3.54L3.85,105.82l5.53-7.24,7,1.07,4.21-.71,2.79-2.79,3-11.41,4.46,6.19-.14.62a2.4,2.4,0,0,0,0,1.25l.65.42,0,.73s0,.1,0,.14A4.33,4.33,0,0,1,33.6,92a3.19,3.19,0,0,1,2.59.21l.17.1,3.14,3.32.07,3.56c1.12,1,3,2.37,4.18,2.52s3.24-1.19,4-1.88l1.06-1,1,1.08a37.49,37.49,0,0,0,3.39,3.36c.48-.65,1.17-1.75,1.76-2.78l-.75-5.89,6.52-3.07L62.1,98a8.64,8.64,0,0,0,1,2.41,4.52,4.52,0,0,0,2.7,1.31,3.54,3.54,0,0,0,2.47-.26,12.33,12.33,0,0,0,1.5-3.22l.66-2L72,97.59a4.33,4.33,0,0,0,2.25,1.1l.05-.11a5.23,5.23,0,0,0,.55-1.92l-.61-.86,7.55-6.4L86,91.06l2,5.5-10.42,15a3.3,3.3,0,0,0,1.11,0c2.33-.2,4.55-3.17,5.2-4.31L84,107l7.27-6,0,3.07c0,.29-.1,7.09-.31,9.23a2.09,2.09,0,0,0,.44,1.74c.34.25,1,.06,1.34-.08a10,10,0,0,0,2.85-1.48c-.28-1.22-1.32-5-2-7.59-1.32-4.82-1.32-4.85-1.32-5.14,0-.62.29-1,1.36-2.42.35-.46.91-1.21,1.1-1.51.58-3,1.44-4.37,2.79-4.63.71-.13,1.76,0,2.77,1.58.43.67.75,1.21,1,1.65.17.29.35.6.47.78.26,0,.68-.17.84-.22a2.16,2.16,0,0,1,2.09.35c1,.85.84,2.31.68,3.73a12.89,12.89,0,0,0-.11,1.44,29.31,29.31,0,0,0,6.13-.45l3.1-.5-1.68,2.65a3.39,3.39,0,0,0-.56,2.2,4.67,4.67,0,0,1-.44,3.4,3.9,3.9,0,0,0-.32.94c.14.55.26,1,.38,1.37s.24.83.39,1.39a20.63,20.63,0,0,0,5,3.17c.38,0,1.11.29,3.24,1.68l3.85-1.63,2.09-2.83,7.23-1.53-3.69,5.54,2.32,5,1.75,4.82,2.51.69,4,1.8c.4.12,1.49-.12,2.6-2a29.31,29.31,0,0,0,2.85-7.4l.2-.92,2.21-.41,1.22-5.13,2.93,2.44-.24,2.85L156,119l4.92.94,2.79,1.51,2.39,1.54,1,1.67,4.77-2.58,3.5.5,5.55-.14,3.72-1.14a6.72,6.72,0,0,0,.63-.28c0-.57-.08-1.41-.12-2l0-.48.76-1.14,1.82-5.46,1.6,1.41c2.08,1.83,5.06,3.55,5.94,3.1,1.24-.62,1.73-3.49,1.77-4.79l.08-2.39,2.06,1.22a3.57,3.57,0,0,0,2.39.55c.08,0,.31-.13.47-.74.89-3.41,2.49-4.84,3-5.24l7.14-7,2.55,2.84.08.38a7.6,7.6,0,0,0,.77,2.22,5.19,5.19,0,0,1,3.93,2.26,5.77,5.77,0,0,0,.92,1.13l.86.14,1,.16c.51,0,.83.28,1.44.79a11.77,11.77,0,0,0,1.28,1c.6-.16,2.11-.7,3.34-1.18a23.13,23.13,0,0,0,3.31-1.81c.26-.45.16-.57.12-.6-.85-.91-3.51-5.53-2.1-8a6.76,6.76,0,0,1,.9-1.19c.76-.85,1.25-1.41-.14-4.32-2.51-5.25-1.27-8.36-1.12-8.7l.9-2,1.46,1.65a17.32,17.32,0,0,0,3.38,3.1,10.4,10.4,0,0,0,1.71-1.55,4.74,4.74,0,0,1,1.87-1.48,12.26,12.26,0,0,0,2.91-2c.24-1.52,2.05-2.09,2.67-2.28.45-.19,5.57-2.83,8.69-4.44l1.89-1,.18,2.12a20.36,20.36,0,0,0,.45,3c.74.51,2.1,1.54,2.41,1.77l.58.45,0,.73a20.09,20.09,0,0,0,0,2.29l1.33,1.27,5.82-1.77.59.86c1.55,2.27,1.55,2.9,1.55,3.21a20.85,20.85,0,0,1-.25,2.15c0,.31-.09.6-.12.81l0,0,.13-.1c.42-.34,1.08-.92,1.84-1.58,3.52-3.08,4.85-4.13,5.78-4.32s3.87-.6,4-.62l.33,0,2.46.82,1.82-1.92,6.67,2.35.2.71a25.27,25.27,0,0,0,2.5,6.26,8.26,8.26,0,0,0,1.1-1.29,5.31,5.31,0,0,1,1.72-1.74c.47-.24,1.21-.51,2-.81a19.83,19.83,0,0,0,2.26-.94c.29-.23,1.09-.88,5-.28l2,.31-1,1.78a2.9,2.9,0,0,0,0,2.48,5.51,5.51,0,0,1,.54,3,5.41,5.41,0,0,0,.67,3.12,21,21,0,0,1,1.16,3c.7,2.15.95,2.48,1.87,2.55a17.21,17.21,0,0,0,3.43,0l1.4-.25.27,1.4.52,3a1.4,1.4,0,0,0,.19-.24,12.34,12.34,0,0,1,2.3-2.63l3.06-2.51-.78,3.88c0,.15-.77,3.72-3.68,5.11a9.79,9.79,0,0,0-2.95,2.14,2.67,2.67,0,0,0-.39,1.49,6.46,6.46,0,0,0,2.24,1.34,11.11,11.11,0,0,1,4.41.34l9.23-.59-5.55,3.06c-.62.35-2.26,1.58-2.38,3.08-.17,2.18.26,2.24.68,2.29a16.14,16.14,0,0,0,2.67.1,6.32,6.32,0,0,0,1.39-1.93,31.78,31.78,0,0,1,2.86-4.35l.64-.81,4.2,1.54.19.15c.18.15,1.75,1.54,1.09,4.69-.08.4,0,.47.42,1a3.36,3.36,0,0,1,.68,4.15c-1.3,2.81-2.19,6.28-.81,7.6l.7.67-2.12,5.19-1.73,7.68c-1.31,3.54-2.72,7.7-3.16,9.51l1.1.38,1,.37-.09,1.09c-.23,2.59-.44,5.66-.44,6.6l1.82,2.83.56.87-.66.8a2.13,2.13,0,0,0-.4.79,3.6,3.6,0,0,0,1.8.7h.12l5,.75-1.39,1.9a25,25,0,0,0-2.07,3.29,21.28,21.28,0,0,1,4,3l.45.42v1.84l1.6,4-1.61.17c.88.88,1.42,1.65,1.25,2.54a1.73,1.73,0,0,1-1.13,1.3c-.45.18-2.06.58-3.09.84-.91,1.26-1.86,2.63-2.51,3.63h.67c.71,0,3.66.1,3.66.1l.95,0,2,5.45-1,2.18.09.12,1.91-.35,2.52,1.77-1.74,3.19-2.32-.62-1.78.21-2.52,3,.28,1.69-1.66,2.66-2.47.22-1.65,1.35.66,1.55-.1.45a6.61,6.61,0,0,0-.15,1.5,18,18,0,0,0,2.1-.12l.54-.07,3.9,2.74-.52,2.82,1.31,1.19-.78,1.55.42.34,1.82,3-2,2.59,9.5,3.8-12.59-1-2.22,1.44-.69-.28c-.54-.21-1.29-.27-1.4-.1l-.3.43a10.72,10.72,0,0,0-1.41,2.4,21.6,21.6,0,0,1,2.29,1.71l.79.7-.45,1c-.12.28-.27.91-.08,1.1a11.17,11.17,0,0,0,2.51,1.63l1.86.88-1.48,1.42a26.17,26.17,0,0,0-4.24,4.93,1.08,1.08,0,0,0,.55.38l2.14.46-5.08,6.93A3.64,3.64,0,0,1,328,266a2.29,2.29,0,0,1-1.62.81,21.3,21.3,0,0,0-3.89,4.81l-.3.47-5.9,1.43h-8.37L303.15,271l-1.69,1.42h-2.54l-.23-.08-.94-.31c-.46.4-1.25,1.15-1.89,1.78l-.42.42h-2.3Zm-.87-4.25.36.28,1-1.23h2.51c2.34-2.3,2.67-2.3,3.19-2.3a6,6,0,0,1,1.95.5h1l2.36-2,5.84,3.09h7.49l4.3-1.08c3.06-4.66,4.66-5.47,5.42-5.61a3,3,0,0,0,0-.68l-.1-.59,3.52-4.82a3.36,3.36,0,0,1-1-1.72c-.12-.52-.42-1.83,3.76-6.11a9.52,9.52,0,0,1-1.57-1.22,3.49,3.49,0,0,1-.83-3.21c-.36-.28-.86-.64-1.44-1a2.39,2.39,0,0,1-1.09-1.59c-.31-1.6.92-3.33,1.91-4.71l.28-.4a3.68,3.68,0,0,1,4.06-1.15l1.85-1.2.34,0,2-2.68-.58-1-1.79-1.46.83-1.66-.89-.81.48-2.59L334,224.35a16.54,16.54,0,0,1-2.63,0,2.08,2.08,0,0,1-1.54-.85,5.07,5.07,0,0,1-.43-3.61l-1.15-2.68,4-3.26,1.94-.18.34-.55-.32-1.92,4.09-4.84.4,0-.92-1.25,1.2-2.63L338,200c-.9,0-2.18-.07-2.61-.07-2.36,0-3.57-.18-4.07-1.19-.4-.8-.59-1.17,3.93-7.38l.31-.42.51-.12,1.74-.43-.17-.16a2.3,2.3,0,0,1-.84-2.48,2.26,2.26,0,0,1,1.13-1.26l-.53-1.33V184a13.56,13.56,0,0,0-3.22-2.33,1.71,1.71,0,0,1-1.33-1c-.17-.42-.55-1.32,1.41-4.4l-.41-.06a6.31,6.31,0,0,1-3.5-1.46,3,3,0,0,1-.43-3.75l-1.5-2.32c-.3-.45-.46-.69.07-7l-1-.32-.6-.17-.33-.6c-.29-.57-.69-1.35,3.26-12l1.75-7.75,1.48-3.62c-1.94-2.88-.36-7.45.85-10.06.25-.54.25-.54-.21-1.06a3.61,3.61,0,0,1-1.09-3.45,2.8,2.8,0,0,0-.08-1.83l-1.64-.6a24.41,24.41,0,0,0-1.94,3c-.65,1.3-2.13,3.49-3.57,3.49h-.19a19.2,19.2,0,0,1-3.2-.12c-3.5-.47-3.22-4.12-3.13-5.32a5.57,5.57,0,0,1,.89-2.56,13.32,13.32,0,0,0-3-.38c-1.41.53-3.14-.56-4.79-1.83-1.81-1.39-1-4-.26-5.24l.12-.17a10.38,10.38,0,0,1,1.68-1.58l-.65-3.75c-.65,0-1.53,0-2.73-.09-3-.21-3.71-2.48-4.37-4.49a18.51,18.51,0,0,0-1-2.6,8.18,8.18,0,0,1-1-4.5,2.82,2.82,0,0,0-.24-1.61,5.66,5.66,0,0,1-.55-3.21,7.23,7.23,0,0,0-1.39,0,15.77,15.77,0,0,1-2.85,1.25c-.68.26-1.38.52-1.72.69a7.7,7.7,0,0,0-.7.89c-.76,1-1.81,2.46-3.45,2.57-.73,0-2.64.16-5-7.74l-3.55-1.25-1.79,1.89-3.55-1.18c-.75.11-2.62.37-3.42.53a46,46,0,0,0-4.55,3.69c-.79.69-1.49,1.3-1.93,1.66a2.84,2.84,0,0,1-3.09.47,3,3,0,0,1-1.72-2.38,13,13,0,0,1,.18-1.46c.07-.49.18-1.25.21-1.61a9,9,0,0,0-.49-.87L258.91,88l-.6-.57s-1.93-1.83-2.23-2.13-.68-.68-.64-3.42c-.84-.64-1.68-1.25-1.9-1.38-.38-.23-.88-.53-1.25-2.92-6.83,3.53-7.07,3.61-7.2,3.65l-.12,0a4,4,0,0,0-.76.3c-.44,1.77-3.79,3.51-4.68,3.91a11.12,11.12,0,0,0-.8.79c-1.2,1.25-2.55,2.68-4.11,2.43a6.78,6.78,0,0,1-2.9-1.77,13,13,0,0,0,1.19,3.67c2,4.25,1,5.94-.3,7.42a4.45,4.45,0,0,0-.55.7c-.37.72,1,3.9,1.7,4.7a3.22,3.22,0,0,1,.17,4.12c-.17.28-.62,1-4.57,2.85a31.54,31.54,0,0,1-4.27,1.42c-1,.13-2-.6-3.28-1.66l-.23-.19-.85-.14-1-.16h0c-1.29,0-2.78-2.5-2.8-2.52a2.49,2.49,0,0,0-1.77-.83c-1.91,0-2.78-2.42-3.16-4.11l-.06-.07-5.33,5.16h0A6.8,6.8,0,0,0,204.7,111a3.67,3.67,0,0,1-2.14,2.65,4.71,4.71,0,0,1-3,.06c-.33,1.79-1.13,4.27-3.12,5.26-2.24,1.12-5.41-.69-7.45-2.19l-.72,2-.33.5c0,.72.12,2,.12,2.32,0,1-.8,1.73-2.59,2.38l-4.16,1.28-6.17.16-2.81-.4L166,128.45,164,125l-1.77-1.14-2.26-1.22-4.43-.85-6.23-.62-.82.15a31.16,31.16,0,0,1-2.94,7.3c-2.71,4.64-6.06,3.25-6.2,3.19l-3.92-1.76-3.61-1-2.24-6.15L126.79,117l-.75,1-6,2.53-.64-.43a23.47,23.47,0,0,0-2.8-1.68,1,1,0,0,0,.28,0c-1.1,0-7-3.19-7.49-5.18-.14-.58-.27-1-.39-1.4s-.26-.88-.42-1.51a4.18,4.18,0,0,1,.47-2.71,2.62,2.62,0,0,0,.36-1.39,4.34,4.34,0,0,1-.11-2.13c-1.93.21-4.37.35-5.55-.09-1.77-.66-1.53-2.79-1.35-4.34,0-.24.06-.55.09-.84-2,.44-2.69-.14-3.8-2.05-.22-.37-.48-.83-.83-1.37a11.52,11.52,0,0,0-.52,1.95l0,.1c-.11.54-.48,1.06-1.59,2.52-.21.28-.5.66-.69.93.22.83.69,2.58,1.13,4.16,2,7.37,2.19,8.13,2.19,8.54,0,1.44-1.45,2.65-4.71,3.92a4,4,0,0,1-4.08-.29A4.68,4.68,0,0,1,88.06,113c.11-1.13.19-3.78.24-5.92l-2.14,1.78c-.65,1-3.45,5.16-7.28,5.48-1.8.16-3.05-.26-3.73-1.23a3,3,0,0,1-.18-2.88l.13-.22,9.7-13.93-1-2.91-1.42-.56-4.65,3.94a7.74,7.74,0,0,1-.79,3.12,2.89,2.89,0,0,1-2,1.73,4.66,4.66,0,0,1-3.12-.61,6.93,6.93,0,0,1-2.06,3,6.22,6.22,0,0,1-4.45.64,7.27,7.27,0,0,1-4.51-2.45,11.47,11.47,0,0,1-1.43-3.42l-.67-3-1.45.68.61,4.78-.23.41c-.25.45-.48.86-.7,1.22L58.18,104a36.07,36.07,0,0,0,5.29,4.61c1.15.34,3.69.78,3.72.78l1.45.25-.43,2,2.27.84-.57,1.36c-1.18,2.82-1.78,6.15-1.21,6.72.93.93,4.34,1.56,6.68,1.74l2.88-1.4H84.2l7.33,1,.23.13c.53.29,3.21,1.86,3.95,3.91a3.51,3.51,0,0,0,.63,1.18l16.06,6,8.84,4.67,12.34,1.1,17.73,1.45,14.08,2.73,2.35-4.35,4-.31,8.69,3.51,1.61,4.11,5.07,1.36,3.16,1.18,11.53,3,4.17,4.54,3.32.6,3.28-3.8,26.61,3.41c1.36-.87,3.44-2,4.81-1.72a15.41,15.41,0,0,1,3.54,1.46l7.54-1.88v4l15.26,1.92-4,6.76,2.57,1.61-.22,2.46.25.13,3.46-.46.44.28c1,.61,5.84,3.82,6.62,6.68a7.19,7.19,0,0,0,1.57,3l1.79,1.75-2.41.64a17.69,17.69,0,0,1-3.21.57l-2,0-1.44,0c-.23,0-.93,0-3.85-1.42l-.15-.08-.85-.55-1.7.2L264,180.63l-.44-.24a7.71,7.71,0,0,1-1.16,1.26c-.63.71-3.56,4.45-6.14,7.78l-.13.17-3,2.16-1.93.45-2,3.47,2.2,1.61L253,195l3.44,3.11-.55,2.21,4.49,2.68-.06,1.15,1.37.49.9,1.54c1.28,1.17,2.78,2.48,3.3,2.86l.43.09.38.64c.16.3.39.72-.08,2.19l1.79.93-.6,5.48-2.07,2.74.87,2,1.85,4.78L268,229.3l1.53,2.54-.35,2.23,2.49,1-3.59,5.75-7.58-5.47.38-.84-3.71-2.74,2.12-2.69-1.82-2-1.43.81-2.8-2.25-.24.59-1.39,2.61c-2.13,2.45-2.57,3-3.65,2.35l-1-.58.16-.49c-.23-.28-.57-.67-.9-1l-.78-.82.81-1.22-1.11-1.48-1.17-2.46.73-.77-1.77,1.43-2.29-1.11-1.43,2.28L235,223.46l-1.69.37,1.76.92-1.85,2.94,1.31,1.22-1.11,1,1,1.23L233,232.88l.49,1.41-.14.44c-.07.24-.15.51-.19.71l.3.4,3.34-1.38,10,9.28-2.37,4-1.31,1.86,1.42,1.59.57-.46,2.4,2.83,2.66-.8,3.44,1.76a8.86,8.86,0,0,0,2.12.72,1.57,1.57,0,0,1,1.11-.94,2,2,0,0,1,2,1.1l.28.37c2.12-.65,3.92,2.14,4.45,3.06l.05.1.78,1.65.81-.21c.7-.24.87-.29,4.88,2.54a7.89,7.89,0,0,1,2.65-2,28.33,28.33,0,0,0,3.69-4.52l.71-1,5.82,3L280,262.49l1.71.82,1.33-.71.83.69,1.87-1.22,4.47,3.07-1.91,3.48.6,1.21a3.14,3.14,0,0,1,1.5,1.91A2.49,2.49,0,0,1,290.44,272.32Zm-24.28-9.24h0Zm6.75-2.18h0ZM266.29,236l1,.7.16-.26Zm-19-6.58h0Zm26.37-48.68h0Zm-12.92-1.39,0,0ZM96.39,127.23Zm229-3.34h0ZM23,109l18.34,6.74,3-2.74,2.7.46,2.27-4.89,3.17,6.22,1.6.56L53,113.88l.32-.74a35.13,35.13,0,0,0,2.29-6.35,7.36,7.36,0,0,1,.25-2.33l.14-.35c-1.25,1.87-1.78,2.09-2.05,2.2-.69.28-1.55.62-5.41-3.51a7.74,7.74,0,0,1-5.14,1.72c-2.81-.35-5.89-3.37-6.24-3.71l-.4-.4-.08-3.63-2-2.13a.44.44,0,0,0-.15,0c-.13.06-.6.34-1.08,1.59-.59,2.13-1.9,2.2-2.43,2.13-1.46-.19-2.32-2-2.49-3.81a4.19,4.19,0,0,1-.7-3l-.23-.32-1.67,6.33-4,4-5.56.94-5.78-.88-2,2.56,12.79,3.51-2.17,3,2.27.27Zm7.53-13.15Zm271-6.59Zm-36.78-1.91h0Zm10.9-.48h0Zm-40.83-1h0Zm4.65-.42-.19.08A.88.88,0,0,0,239.53,85.51Zm0,0h0Zm4.72-4.28h0Z"/></svg>