<svg id="Layer_1" data-name="Layer 1" xmlns="http://www.w3.org/2000/svg" viewBox="0 0 350 350"><defs><style>.cls-1{fill:#999;}.cls-2{fill:#f90;}</style></defs><title>M</title><path class="cls-1" d="M138.27,8s-2.07,9.76-2.57,11.62-1.57,3.92-1.57,4.77.86,6.13,1,7.2.71,3.35-.14,4.63-1.07,6.63-.86,9.26-.36,9.83-2.78,12.47-1.43,2.07-1.64,3.63-1.21,7.84-1.5,10-3,3.21-4.92,3.28-9.76-.5-11.33.5a24.12,24.12,0,0,0-5,5.27c-.5.93-1.85,3-1.85,8.48-2,4.56-8.62,14.61-10.48,16.75s-4.85,4.63-5.2,6.56c-.71,1.85,1.43,1.92,3,2.92s2.14,1.07,1.57,3.78-1.64,6.2-1.64,6.2a8.72,8.72,0,0,1-4.92,3c-3.35.78-3.28.93-3.14,2.92s1.43,9.18,4.85,12.15c1.35,2.54,1.5,3.39.14,6.45s-.86,6.91-.86,10.55-1.5,8.62-.78,9.55S91,175,91,176.35s-.5,7.63-1.92,10-.78,6.7-.78,7.91-.21,9.05-1.57,11,0,4.7.64,5.84S90.17,216,90.17,217s-1,3.06-1.28,4.13a11.23,11.23,0,0,0,.71,6.41c1.07,2-1.21,2.92-1.35,4.77s.86,2.85.86,4.77-3.06,5-3.28,5.42.93,4.85,1.71,5.63-1.28,4.92-1.64,7.41-2.49,3.35-1,5.56,3.49,4.63,4.92,4.63,7.77.21,9.12,1.14,5,5.06,6.34,6.06,3.06,4.42,4.49,2.78,4.63-2.85,7.91-3.63a25.08,25.08,0,0,0,9-4.56c1.43-1.35,5.42-3,7.48-2.71s4.49.5,2.92-4.28.29-6.49,2.57-6.63,5.13,1.07,8.05.36a46.51,46.51,0,0,0,4.7-1.64c1-.21,3.56.86,5.13.86s3.06-1.07,4.7,0a32.81,32.81,0,0,1,7,6.06c1.71,2.28,6.63,8.12,8.05,8.12a2.81,2.81,0,0,1,3,2.28c.5,1.71,1.85,5.49,1.85,5.49s-3.63,7.41-3.56,7.91,3.56,3.49,3.56,3.49a11.58,11.58,0,0,0,0,6.13c-.29,2.21-2.85,7.77-2.42,13.68,5.06,1.85,4.92,1.57,7.48,3.56s1.85,1.43,4.56,3.71,2.78,5.77,3.71,6.7,7.13,2,9.41,2.49,9.41,4.85,13.26,5.49,5,2.21,9.12,2.78,5.63,1,5.7,1.21a28.19,28.19,0,0,0,2.07,2.07s2,1.14,2.21,1.85S243,343,244.68,343a6.26,6.26,0,0,0,4.06-1.92c.71-.78,2.64-1.28,3.92-2.14s.57-1.85,2.57-2.49,3.85.36,4.92-1.14,4.28-2.14,4.49-6.27,0-9.55,0-11.4,3.49-10.83-2-13.9-14.4-7.06-15.18-8.12-3.49-2-4.77-2.71-3.92-4.42-5.13-4.7-6.63-3.85-8.12-7.06-3.14-15-3.56-17.67-3.42-15.11-2.57-17.75.21-9.62-.57-13.33-1.71-6.63-1.71-6.84-.5-1,2.49-2.71,11.26-6.56,13.18-7.84,4.28-1.78,3.42-7.27-.64-7.95.57-8.46,6.84-1.23,8.34-2.37,7.2-1.5,9.48-2.42,7.2-.64,6.77-3.78a93.17,93.17,0,0,1-.21-10.33s.14-1.43-1.92-1.92-10.62-7.84-12.9-9.05-6.56-5.06-10-5.27S224.44,162,223.72,162a11.82,11.82,0,0,1-2.21-.43,15,15,0,0,0,3.28-6.13c.71-3.35.29-12.4-.64-14.32s-2.85-4.77-2-6.13,2.28-1.71,3.56-4.28,1-7.55.78-8.48-6.7-.71-7.41-1.92-.78-4.35-1.92-3.78-2.64,4.06-4,3.71-4.42-.64-5.13.64-1.28,6.34-1.28,6.34a33.92,33.92,0,0,1-3.63-4.42c-.71-1.35-4.77-1.92-6.27-6.27s-.78-7.06-.71-8.91.43-2.21-1.35-5.42-3.35-8.41-3.35-11.33S188,79.65,185.91,78s-2.24-3.92-2.88-6.06-2.71-4.2-3.78-6.91.5-6.49-2-8.27-2.21-3.49-2.71-7.27a9.75,9.75,0,0,0-5.63-7.55c-2.49-1.07-.43-2.78-2.85-10.62-1.57-5.35-1.85-4.7-5-5.84s-5.49-.64-5.63-3.28-3.49-8.12-6.13-8.91-3.56-5.56-5-5.92A40.22,40.22,0,0,0,138.56,7,7,7,0,0,0,138.27,8Z"/><path class="cls-2" d="M244.68,344c-2.23,0-8.17-6.13-8.5-7.24a8.62,8.62,0,0,0-1.72-1.24l-.2-.14a26.46,26.46,0,0,1-2.09-2.06,31.92,31.92,0,0,0-5.1-.94A18.13,18.13,0,0,1,222,330.9a16.28,16.28,0,0,0-4-1.27c-2.41-.4-5.81-2.06-8.81-3.52a31,31,0,0,0-4.5-2l-1.65-.34c-4.95-1-7.45-1.61-8.28-2.44a5.63,5.63,0,0,1-1.09-2.24,9.11,9.11,0,0,0-2.55-4.4l-1.05-.89c-1.35-1.14-1.35-1.14-2.9-2.35l-.57-.45a12.16,12.16,0,0,0-4.93-2.59l-2.26-.81-.65-.24,0-.69c-.32-4.38.93-8.57,1.76-11.34.28-1,.53-1.79.64-2.36a12.85,12.85,0,0,1-.11-5.81c-3.3-2.87-3.37-3.36-3.42-3.72s-.12-.81,3.46-8.13c-.37-1-1.31-3.73-1.72-5.12a1.77,1.77,0,0,0-2-1.52c-2.46,0-8.84-8.46-8.9-8.55a31.82,31.82,0,0,0-6.71-5.8c-.68-.44-1.3-.33-2.33-.09a7.82,7.82,0,0,1-1.79.26,12.94,12.94,0,0,1-2.92-.51,8.67,8.67,0,0,0-2-.37,5.43,5.43,0,0,0-1,.37,19.56,19.56,0,0,1-3.69,1.26,13.77,13.77,0,0,1-5.53-.08,13.3,13.3,0,0,0-2.71-.25,2.14,2.14,0,0,0-1.75.84c-.57.84-.52,2.4.13,4.39.76,2.33.74,3.86-.08,4.84-1,1.23-2.81,1-4,.82-1.66-.23-5.37,1.25-6.61,2.43a26.07,26.07,0,0,1-9.46,4.82c-3.6.86-6.28,2.06-7.35,3.3a2.13,2.13,0,0,1-1.63.8h0c-1.26,0-2.23-1.15-3.17-2.25a8.59,8.59,0,0,0-1.11-1.17,35.76,35.76,0,0,1-3.14-3,34.87,34.87,0,0,0-3.17-3c-.81-.55-5.65-1-8.52-1-.58,0-2.34,0-5.8-5.1-1.29-1.91-.54-3.27.07-4.37a5.46,5.46,0,0,0,.76-1.93,23.17,23.17,0,0,1,1-3.66,14.85,14.85,0,0,0,.8-3c-.94-1.22-2.27-5.71-1.78-6.71a5.17,5.17,0,0,1,.67-.88c.68-.81,2.5-3,2.5-4.06a6.11,6.11,0,0,0-.4-2,7,7,0,0,1-.45-2.86,5,5,0,0,1,1-2.44c.62-.91.74-1.19.44-1.75a12.27,12.27,0,0,1-.8-7.19c.12-.44.33-1,.55-1.59a11.36,11.36,0,0,0,.7-2.27c0-.22-.34-1.23-2.6-5.25-1.62-2.87-1.82-5.35-.63-7.05,1-1.39,1.37-7.89,1.37-10.36,0-.21,0-.51,0-.88-.12-1.86-.35-5.31,1-7.57,1.22-2.08,1.78-8,1.78-9.51,0-.83-2.17-4.52-3.13-5.77-.64-.83-.45-2.25,0-5.12a34.83,34.83,0,0,0,.56-5.07c0-.76,0-1.53,0-2.3-.09-3-.17-6,1-8.68s1.12-3.21,0-5.36c-3.68-3.36-4.92-10.88-5.06-12.74v-.1c-.19-2.7.52-3.13,4-3.93a8,8,0,0,0,4.2-2.46c.23-.76,1.08-3.64,1.56-5.92.37-1.75.37-1.75-.71-2.42l-.39-.24a8.65,8.65,0,0,0-1.23-.6c-1.06-.45-3-1.29-2.22-3.51.36-1.68,2-3.38,3.75-5.17.61-.63,1.18-1.22,1.67-1.79A111.09,111.09,0,0,0,104.07,88.9c0-5.25,1.28-7.49,1.88-8.57l.1-.18a24.57,24.57,0,0,1,5.35-5.67c1.33-.85,4.93-.82,9.49-.7,1,0,1.91.05,2.37,0,1.51-.06,3.71-.91,3.9-2.36.16-1.2.54-3.69.89-5.93.27-1.76.52-3.36.61-4.05a2.11,2.11,0,0,0,0-.65c-.14-1.09.16-1.65,1.91-3.56,2.05-2.23,2.73-8.88,2.5-11.67-.18-2.2-.14-8.19,1-9.94.49-.74.23-2.34.07-3.3,0-.22-.07-.43-.09-.6s-.14-.93-.25-1.71c-.43-2.8-.75-5-.75-5.63a8.7,8.7,0,0,1,.77-2.67,24.85,24.85,0,0,0,.83-2.38c.48-1.8,2.53-11.46,2.55-11.56h0a8.07,8.07,0,0,1,.33-1.16l.26-.68h.73a38.73,38.73,0,0,1,6,.39c1.06.27,1.68,1.42,2.4,2.75s1.54,2.86,2.63,3.18c3.2,1,6.73,7,6.89,9.87.05,1,.31,1.14,2.34,1.61a21.24,21.24,0,0,1,2.59.72l1.07.37c2.59.85,3.17,1.39,4.58,6.18a30.18,30.18,0,0,1,1.42,7.82c.11,1.78.16,1.84.83,2.13a10.79,10.79,0,0,1,6.26,8.39c.09.65.15,1.23.21,1.77.27,2.52.38,3.57,2.07,4.77,2,1.39,2,3.64,2,5.61a9.08,9.08,0,0,0,.37,3.13,19.54,19.54,0,0,0,1.91,3.42,14.47,14.47,0,0,1,1.9,3.58c.13.45.25.9.36,1.35.41,1.66.77,3.09,2.16,4.17,2.45,1.91,5.94,10.48,5.94,13.67,0,2.68,1.5,7.73,3.21,10.82,1.61,2.9,1.63,3.76,1.53,5.29,0,.21,0,.43,0,.68s-.05.78-.1,1.22a15.48,15.48,0,0,0,.75,7.3,8,8,0,0,0,4.13,4.4,5,5,0,0,1,2.07,1.72,17.69,17.69,0,0,0,1.94,2.51,17.34,17.34,0,0,1,1.1-4.46c1.1-2,4.81-1.53,6.25-1.17a7.45,7.45,0,0,0,1.44-1.63,6.28,6.28,0,0,1,1.89-2,1.54,1.54,0,0,1,1.36,0c.89.41,1.17,1.53,1.47,2.72a8.52,8.52,0,0,0,.45,1.44,14.69,14.69,0,0,0,3.43.66c2.41.29,3.87.47,4.14,1.64.2.87.62,6.22-.87,9.19a10,10,0,0,1-2.58,3.27,5.37,5.37,0,0,0-1,1.1c-.35.56.82,2.74,1.38,3.79.25.46.48.9.68,1.31,1.12,2.32,1.43,11.7.72,15a14.76,14.76,0,0,1-2.44,5.24l.33,0c.32,0,1.45.16,4.87.64,4.07.58,9.65,1.37,11.73,1.5,2.72.17,5.69,2.23,8.08,3.88a27.71,27.71,0,0,0,2.33,1.52,56.16,56.16,0,0,1,5.29,3.82c2.53,1.95,6.37,4.89,7.36,5.13,2.35.57,2.81,2.25,2.73,3.06h0a93.29,93.29,0,0,0,.21,10.08c.44,3.26-3,3.93-5.27,4.37a13,13,0,0,0-2.15.53,25.59,25.59,0,0,1-4.5,1.06c-1.82.33-4.09.74-4.73,1.23-1.06.81-3.31,1.33-6.14,1.92a21.59,21.59,0,0,0-2.43.58c-.1,0-1,.62.06,7.32.85,5.48-1.37,6.8-3.16,7.87-.24.15-.49.29-.72.45-2,1.31-10.37,6.23-13.25,7.88-1.81,1-2,1.56-2,1.56a.34.34,0,0,1,0,.08h0c0,.13.11.44.24.9.33,1.17.93,3.36,1.46,5.87.81,3.85,1.47,11,.54,13.88-.57,1.75,1.13,10,2,13.94.31,1.48.55,2.65.65,3.31l.2,1.34c.55,3.66,2,13.37,3.27,16.06,1.33,2.85,6.47,6.25,7.4,6.47s1.9,1.22,3.38,2.83a14.16,14.16,0,0,0,2,2c.36.2.85.42,1.37.66,1.49.68,3,1.38,3.75,2.35a64.92,64.92,0,0,0,7.17,3.85c2.54,1.27,5.42,2.71,7.67,4,5.06,2.83,3.56,9.8,2.84,13.15a13.25,13.25,0,0,0-.3,1.68c0,.48,0,1.2,0,2.08.05,2.5.13,6.29,0,9.38a7.09,7.09,0,0,1-3.53,5.85,5.55,5.55,0,0,0-1.15,1c-1,1.35-2.37,1.33-3.52,1.34a6.17,6.17,0,0,0-1.94.2c-.73.24-.82.41-1,.84a3.47,3.47,0,0,1-1.27,1.52,14,14,0,0,1-2.05,1.06,6.6,6.6,0,0,0-1.67.91A7.32,7.32,0,0,1,244.68,344Zm-6.49-7.94c.62,1,5.36,5.64,6.53,5.82a5.23,5.23,0,0,0,3.25-1.58,7.15,7.15,0,0,1,2.37-1.42,12.43,12.43,0,0,0,1.74-.89,1.43,1.43,0,0,0,.54-.69,3.34,3.34,0,0,1,2.29-1.93,8,8,0,0,1,2.6-.3c1.08,0,1.48,0,1.78-.45a6.87,6.87,0,0,1,1.63-1.47c1.25-.91,2.54-1.85,2.66-4.24.16-3,.08-6.75,0-9.23,0-.89,0-1.63,0-2.12a11.86,11.86,0,0,1,.35-2.12c.91-4.25,1.6-8.95-1.8-10.85-2.21-1.24-4.95-2.6-7.59-3.93-5.31-2.66-7.37-3.73-7.93-4.5a10.16,10.16,0,0,0-2.92-1.68c-.56-.26-1.1-.5-1.52-.73a13,13,0,0,1-2.56-2.39,13.23,13.23,0,0,0-2.32-2.21c-1.61-.38-7.24-4.23-8.83-7.64-1.22-2.61-2.43-9.87-3.45-16.64l-.2-1.32c-.1-.61-.33-1.76-.63-3.21-1.39-6.72-2.58-12.92-1.89-15,.78-2.4.16-9.17-.6-12.78-.52-2.44-1.09-4.51-1.43-5.74a8.36,8.36,0,0,1-.3-1.23c-.21-1.28.7-2.39,3-3.72,2.86-1.63,11.2-6.52,13.12-7.8.27-.18.54-.34.81-.5,1.61-1,2.78-1.66,2.15-5.72-1-6.22-.64-8.82,1.21-9.61a18.54,18.54,0,0,1,2.83-.71c1.8-.38,4.52-.95,5.28-1.53,1-.8,3.18-1.18,5.65-1.63a25.19,25.19,0,0,0,4.08-.94,14.24,14.24,0,0,1,2.55-.65c2.64-.52,3.72-.91,3.57-2a92.18,92.18,0,0,1-.22-10.51c0-.12-.06-.6-1.11-.86-1.33-.32-4.09-2.39-8.15-5.51a59.85,59.85,0,0,0-5-3.63,28.36,28.36,0,0,1-2.54-1.64c-2.17-1.5-4.87-3.37-7-3.51s-7.79-.93-11.89-1.52c-2.11-.3-4.28-.61-4.59-.62h0a12,12,0,0,1-2.48-.47l-1.66-.47,1.17-1.27a14,14,0,0,0,3-5.63c.69-3.22.21-12.05-.56-13.64-.18-.38-.4-.79-.63-1.23-1.08-2-2.31-4.33-1.3-5.93a7.25,7.25,0,0,1,1.42-1.55,7.87,7.87,0,0,0,2.09-2.63c1-2,.91-6,.76-7.4a22.6,22.6,0,0,0-2.38-.37c-2.68-.33-4.36-.58-5-1.62a8.24,8.24,0,0,1-.71-2.07c-.06-.25-.15-.59-.24-.88-.23.28-.5.64-.71.92-1,1.33-2.1,2.84-3.61,2.45-1.67-.44-3.7-.29-3.93.13a28,28,0,0,0-1.15,5.95l-.26,2.26L206,127.91a32.92,32.92,0,0,1-3.81-4.66,5.33,5.33,0,0,0-1.27-.87,10.08,10.08,0,0,1-5.07-5.55,17.55,17.55,0,0,1-.86-8.2c0-.4.07-.76.09-1.1s0-.52,0-.74c.08-1.16.11-1.64-1.26-4.11-1.92-3.46-3.48-8.77-3.48-11.85,0-2.76-3.35-10.61-5.12-12-2-1.53-2.47-3.55-2.91-5.33-.11-.42-.21-.84-.33-1.26a13,13,0,0,0-1.64-3,21.4,21.4,0,0,1-2.1-3.79,10.72,10.72,0,0,1-.52-3.89c0-1.95-.08-3.18-1.11-3.91-2.46-1.76-2.65-3.56-2.94-6.27-.06-.52-.12-1.09-.2-1.72a8.74,8.74,0,0,0-5-6.72c-1.92-.82-2-2.13-2.11-3.95a28.29,28.29,0,0,0-1.34-7.33c-1.21-4.12-1.36-4.17-3.2-4.77l-1.13-.39a19.4,19.4,0,0,0-2.34-.65c-1.89-.44-3.84-.89-4-3.57-.13-2.34-3.25-7.32-5.37-7.95-1.93-.57-3-2.59-3.89-4.21A7.17,7.17,0,0,0,144,8.39a32.49,32.49,0,0,0-4.67-.3l0,.15h0c-.08.4-2.08,9.81-2.58,11.67a26.3,26.3,0,0,1-.9,2.6,10.59,10.59,0,0,0-.63,1.9c0,.53.47,3.64.73,5.31.12.79.22,1.44.26,1.75,0,.15.05.33.08.53.22,1.35.56,3.39-.39,4.83-.55.83-.93,5.56-.68,8.59.19,2.34-.19,10.16-3.06,13.28a7.88,7.88,0,0,0-1.39,1.72l0,.13a4.22,4.22,0,0,1,0,1.21c-.1.7-.34,2.31-.62,4.09-.34,2.22-.72,4.7-.88,5.89-.35,2.6-3.31,4.1-5.93,4.2-.53,0-1.4,0-2.51,0-2.21-.06-7.4-.2-8.29.37a23.51,23.51,0,0,0-4.62,4.88l-.11.21c-.52.95-1.61,2.91-1.61,7.77v.22l-.09.2c-2,4.66-8.67,14.73-10.65,17-.53.61-1.15,1.25-1.76,1.88-1.41,1.45-3,3.1-3.21,4.18l-.05.19a.71.71,0,0,0-.07.3,4.15,4.15,0,0,0,1.11.58,10.37,10.37,0,0,1,1.53.76l.37.23c1.67,1,2.29,1.75,1.67,4.67-.57,2.72-1.62,6.15-1.66,6.29l-.05.16-.1.14a9.78,9.78,0,0,1-5.54,3.41,10.14,10.14,0,0,0-2.37.72,8.11,8.11,0,0,0,0,1v.1c.15,2.14,1.5,8.83,4.48,11.42l.15.13.09.17c1.5,2.82,1.68,4,.18,7.39-1,2.19-.89,4.9-.81,7.75,0,.79,0,1.58,0,2.36a36.28,36.28,0,0,1-.59,5.41,17,17,0,0,0-.37,3.57c.44.63,3.52,5.08,3.52,7,0,.88-.41,7.77-2.07,10.59-1,1.7-.8,4.73-.69,6.35,0,.43.05.78.05,1s0,9.15-1.76,11.59c-1,1.39.16,3.76.7,4.71,2.43,4.31,2.92,5.65,2.92,6.36a10,10,0,0,1-.83,3c-.2.54-.39,1.05-.48,1.39a10.23,10.23,0,0,0,.62,5.64A3.49,3.49,0,0,1,90,231a3.16,3.16,0,0,0-.68,1.41,5,5,0,0,0,.36,2,8.11,8.11,0,0,1,.5,2.64c0,1.72-1.55,3.7-3,5.43l-.3.36a15.87,15.87,0,0,0,1.42,4.52c.93.93.36,2.64-.43,5a21.72,21.72,0,0,0-.92,3.29,7.46,7.46,0,0,1-1,2.66c-.55,1-.73,1.32-.17,2.15,2.23,3.29,3.62,4.17,4,4.17.08,0,7.84,0,9.72,1.33a33,33,0,0,1,3.49,3.3,36.75,36.75,0,0,0,2.88,2.78,9.52,9.52,0,0,1,1.47,1.51,6.61,6.61,0,0,0,1.53,1.5L109,275c1.77-2,5.58-3.28,8.46-4a24.28,24.28,0,0,0,8.49-4.3c1.68-1.6,6-3.32,8.36-3,.54.08,1.81.25,2.08-.07,0-.05.42-.59-.31-2.82-.89-2.71-.84-4.81.13-6.25a4.26,4.26,0,0,1,3.38-1.77,14.93,14.93,0,0,1,3.17.27,12,12,0,0,0,4.7.11,17.69,17.69,0,0,0,3.33-1.14,7,7,0,0,1,1.4-.51,7.34,7.34,0,0,1,3,.39,11.92,11.92,0,0,0,2.4.45,6.12,6.12,0,0,0,1.31-.21,4.7,4.7,0,0,1,4,.38c1.37.89,5.35,3.77,7.25,6.31,2.37,3.17,6.28,7.43,7.29,7.71h0a3.8,3.8,0,0,1,3.9,3c.48,1.66,1.82,5.39,1.83,5.43l.15.42-.2.4c-1.42,2.89-2.94,6.14-3.36,7.25.53.59,1.91,1.85,3.1,2.87l.54.46-.22.67a10.63,10.63,0,0,0,0,5.51l.06.21,0,.22a20.9,20.9,0,0,1-.74,2.89,31.09,31.09,0,0,0-1.71,9.9l1.58.57a14,14,0,0,1,5.53,2.91l.57.45c1.59,1.23,1.59,1.23,3,2.4l1.05.89a11,11,0,0,1,3.2,5.35,6.14,6.14,0,0,0,.57,1.41c.69.56,5.25,1.47,7.2,1.86l1.69.35a29.29,29.29,0,0,1,5,2.14c2.73,1.33,6.12,3,8.23,3.34a18.29,18.29,0,0,1,4.53,1.41,16.1,16.1,0,0,0,4.57,1.36c5.64.78,6.28,1.22,6.5,1.76.25.28,1.05,1.06,1.75,1.71A6,6,0,0,1,238.18,336.1Zm0,.08h0Zm0-.11h0ZM88.52,169.29l0,0Z"/></svg>