<svg id="Layer_1" data-name="Layer 1" xmlns="http://www.w3.org/2000/svg" viewBox="0 0 350 350"><defs><style>.cls-1{fill:#999;}.cls-2{fill:#f90;}</style></defs><title>M</title><path class="cls-1" d="M277.45,48.07c-.72-3-.72-10-2.33-13.54s-9.78-2.78-9.78-2.78-11.12-4.22-13.81-4.93A37.08,37.08,0,0,1,244,24.39c-2.24-1.17-1.61-4,1.7-7.71s2-6.1,1.43-8.79-4.66-1.26-7.71-1.26-16.5,3.23-20.72,4.48-17.49,6.82-21.26,8.07-15.16,3.23-16.77,3.68-8.88,3-11.75,4.31-9.24,3.14-12.65,3-16.59,2.6-19.28,4.13-8.16,7.09-9.6,9.69-10.76,9-12.47,15.43-1.61,34.44-.9,49.6,7.09,19,8.16,20.54,5.83,1,6.55,3.14-3.41,4.57-.45,6.55,9.69,16.23,12.11,19.1,4.93,11.66,2.87,12.74-2.42,2.51-2.33,3,3.23,8.52,3.23,8.52l-3.41,2c-8.61,0-26.64,5.29-30.49,6s-14.35,6.82-17.13,9.42-13.36,7-13.36,7L71.5,212.7c0,1.68.07,10.9.82,12.47.82,1.73,6.37.55,6.37.55l-2.55,4.46c3.09,5.37,1.46,15.28,2.09,20.83,2.09,3.91,8.09,21,8.55,24.74,2.91,2.91,16.82,12,21.74,13.73s14.28,16.82,17.55,22c1.46,5.18,9.82,22.1,13.64,25.92s10.54,6.24,10.87,6.36a19.39,19.39,0,0,0,1.4-2.21c1.47-2.58,5.74-2.51,7-5.38s2.87-9.51,5.29-16.14,9.33-13.72,12.47-15,8-6.1,8.88-7.53,18.92-13,26.73-14.53,8.07-6.19,8.07-9.15,3.68-11.3,5.56-13.9,8.16-11.66,10.49-16.23,4.31-16.5,4.31-16.5,1.7-.63,2.15-1.79,3.59-16.77,4.66-20.9-.45-5.47-.36-13.9,4.22-18.92,5.29-20.36,5.74-13.36,6.19-16.23a137.69,137.69,0,0,1,4.84-16.23,29,29,0,0,0,1.88-10c0-3.5-3.5-12.83-4.22-15.07s-2.69-1.88-1.52-5.56a117.42,117.42,0,0,0,3.41-16.32c6.46-5,8.25-10.67,13.27-22C279.87,56.5,278.17,51.12,277.45,48.07Z"/><path class="cls-2" d="M151.05,345.43l-1-.35c-.76-.28-7.5-2.8-11.38-6.69s-12.26-20.66-13.95-26.33l-.29-.47c-3-4.77-12.17-19.29-16.42-20.79-5.3-1.86-19.33-11.13-22.27-14.07l-.35-.35-.06-.48c-.4-3.31-6.29-20.3-8.39-24.24l-.13-.24,0-.27a55.51,55.51,0,0,1-.15-6.6c.07-4.87.14-10.38-1.76-13.68l-.41-.71L76,227.51c-2,.12-4.24-.16-5-1.74s-.94-8-1-13.07v-.75l9.15-6.17c2.88-1.2,10.81-4.73,12.94-6.72,2.92-2.73,13.59-9,17.84-9.78.94-.17,2.84-.65,5.25-1.26,6.94-1.75,18.46-4.66,25.12-4.77l2-1.18c-2.76-7-2.84-7.51-2.86-7.67-.16-1,.28-3,3-4.48.62-1.29-1-8.07-3.19-10.62a64.8,64.8,0,0,1-4.6-7.59c-2.41-4.33-5.72-10.25-7.21-11.24-2.84-1.89-1.42-4.46-.73-5.7.3-.55.72-1.29.62-1.58s-1.72-.79-2.57-1c-1.47-.33-3-.67-3.79-1.8a8.66,8.66,0,0,0-.64-.69c-2.14-2.14-7.14-7.16-7.77-20.6-.65-13.75-.9-43,.94-50,1.23-4.68,5.91-9.1,9.33-12.33a23.69,23.69,0,0,0,3.27-3.42c1.58-2.87,7.27-8.61,10.14-10.23s16.34-4.38,20-4.31c3.09.08,9.18-1.68,12-2.93S178.58,22,180.3,21.5c.57-.16,2-.43,4.38-.91,3.95-.77,9.91-1.94,12.32-2.75,1.58-.53,5-1.87,8.59-3.3,5-2,10.25-4.05,12.71-4.79C222,8.66,236,5.21,239.42,5.21A22.56,22.56,0,0,0,241.79,5c2.42-.27,6.08-.68,6.74,2.58.08.38.17.76.26,1.13.58,2.32,1.29,5.2-2,8.89-2.17,2.4-2.79,4.09-2.65,4.86a.86.86,0,0,0,.54.64,27.45,27.45,0,0,0,5.8,1.94l1.44.37c2.51.67,11.81,4.17,13.65,4.86,1.83-.14,9-.42,10.87,3.64,1.12,2.49,1.5,6.2,1.84,9.48a40.3,40.3,0,0,0,.58,4.32l.13.54c.81,3.35,2.18,9-1.22,20.89l-.07.19c-.67,1.52-1.29,2.94-1.87,4.26C272.19,81.93,270,87,264.44,91.5a120.94,120.94,0,0,1-3.4,16c-.52,1.65-.3,1.91.24,2.54a5.9,5.9,0,0,1,1.29,2.16c.13.4.35,1,.62,1.81,1.77,5.12,3.67,10.83,3.67,13.69a30.51,30.51,0,0,1-2,10.62,137.82,137.82,0,0,0-4.74,15.88c-.44,2.83-5.15,15.12-6.46,16.87-.76,1-4.92,11.19-5,19.52a52.14,52.14,0,0,0,.48,7.9,14.67,14.67,0,0,1-.17,6.35c-.53,2-1.59,7-2.54,11.42-1.33,6.22-1.94,9-2.18,9.63a4.66,4.66,0,0,1-2.21,2.26c-.48,2.73-2.23,12.08-4.31,16.17-2.33,4.57-8.59,13.64-10.61,16.42s-5.29,10.64-5.29,13.07c0,2.61,0,8.74-9.22,10.54-7.35,1.44-24.56,12.47-25.85,14-1,1.63-6,6.64-9.5,8-2.61,1-9.32,7.73-11.66,14.15-1.21,3.33-2.21,6.63-3.09,9.53a70.47,70.47,0,0,1-2.23,6.69c-.87,2-2.7,2.85-4.31,3.61a6,6,0,0,0-2.75,1.91,21.16,21.16,0,0,1-1.52,2.39ZM88.1,275c3.3,3,16.26,11.47,20.88,13.09s11.6,12,17.88,22l.51.81.06.2c1.43,5.11,9.68,21.7,13.28,25.3,2.73,2.73,7.3,4.8,9.33,5.63.19-.3.42-.69.7-1.19a8.17,8.17,0,0,1,4-3.07c1.33-.62,2.48-1.16,2.92-2.18.59-1.34,1.29-3.67,2.11-6.38.89-2.94,1.9-6.28,3.15-9.68,2.56-7,9.82-14.43,13.27-15.81,2.82-1.13,7.45-5.76,8.2-7,1.24-2,19.72-13.62,27.66-15.17,6.93-1.35,6.93-5.21,6.93-7.76,0-3.52,4-12.15,5.83-14.73,2-2.74,8.12-11.62,10.38-16s4.15-16,4.17-16.09l.13-.81.77-.29a2.7,2.7,0,0,0,1.32-1c.21-.59,1.19-5.17,2-9.21,1-4.65,2-9.46,2.56-11.54a12,12,0,0,0,.1-5.28,55.23,55.23,0,0,1-.5-8.28c.09-8.48,4.18-19.33,5.58-21.19.83-1.11,5.48-12.77,5.92-15.6a135.61,135.61,0,0,1,4.95-16.59,27.64,27.64,0,0,0,1.76-9.47c0-2.62-2.37-9.47-3.51-12.76-.28-.81-.51-1.46-.64-1.88a3.2,3.2,0,0,0-.74-1.18c-1-1.14-1.71-2.32-.79-5.24a116,116,0,0,0,3.35-16l.06-.61.48-.37c5.3-4.12,7.32-8.75,11-17.15.57-1.31,1.17-2.7,1.84-4.19C278.2,57.15,277,52,276.21,49l-.13-.56a41.07,41.07,0,0,1-.64-4.68c-.3-2.91-.67-6.53-1.61-8.6s-6-2.18-8.34-2l-.33,0-.31-.12c-.11,0-11.08-4.2-13.67-4.89l-1.41-.37a29.49,29.49,0,0,1-6.41-2.17,3.67,3.67,0,0,1-2-2.65c-.36-2,.76-4.42,3.33-7.27,2.32-2.57,1.93-4.14,1.39-6.3-.1-.42-.21-.83-.29-1.26-.12-.61-1.27-.59-3.64-.32a24.53,24.53,0,0,1-2.68.2c-2.72,0-15.64,3-20.31,4.43-2.34.7-7.73,2.83-12.48,4.71-3.64,1.44-7.08,2.8-8.73,3.35-2.59.86-8.42,2-12.67,2.84-2,.39-3.68.72-4.17.86-1.61.45-8.8,3-11.56,4.24-3.1,1.36-9.62,3.25-13.25,3.17h-.15c-3.37,0-15.94,2.55-18.4,3.94s-7.73,6.74-9.05,9.14a21.89,21.89,0,0,1-3.8,4.11c-3.17,3-7.51,7.1-8.54,11-1.62,6.14-1.58,33.66-.85,49.17.58,12.35,5,16.83,7,18.74a9,9,0,0,1,1,1.05,6.94,6.94,0,0,0,2.1.66c1.78.4,4,.89,4.64,2.84.49,1.47-.24,2.79-.83,3.85-.84,1.52-.75,1.58-.17,2,1.92,1.28,4.46,5.67,8.12,12.22a67.48,67.48,0,0,0,4.29,7.15c2.16,2.56,4.51,9.48,3.85,12.78a2.85,2.85,0,0,1-1.41,2.12c-1.3.68-1.53,1.4-1.57,1.58.28.88,2,5.24,3.14,8.21l.45,1.13-4.79,2.77h-.38c-6.23,0-17.86,2.93-24.81,4.69-2.46.62-4.4,1.11-5.42,1.3-3.38.63-13.66,6.48-16.42,9.06S82,207.68,80.45,208.34l-7.53,5.1c0,5.43.31,10,.65,11,.58.33,2.86.26,4.82-.16l3.1-.66-3.73,6.53c1.89,3.95,1.82,9.48,1.75,14.4a58.11,58.11,0,0,0,.11,6C81.75,254.79,87.24,270.34,88.1,275Z"/></svg>