<svg id="Layer_1" data-name="Layer 1" xmlns="http://www.w3.org/2000/svg" viewBox="0 0 350 350"><defs><style>.cls-1{fill:#999;}.cls-2{fill:#f90;}</style></defs><title>M</title><path class="cls-1" d="M87.73,246A88.44,88.44,0,0,1,83,234.83l11.3-6.32s.57-2-4.31-2.3c-8-.86-3.73-3.45-3.73-3.45l-8.9-3.16s-9.19-11.77-10.05-11.77-16.37,5.46-18.67,6-4-1.44-6-4S40.92,208.12,38,207s-5.74-4.59-5.17-8-2-6.6-1.15-9.76S34,180,32.59,180s-5.74,4.31-8.9,4.31-3.45-2.3-4.88-4.88-.57-4-2-4.31-3.45-4.88-2.58-6.89-3.16-3.45-6.6-7.75,2.3-9.19,2.3-9.19S19.09,135.75,24,138.63l6.32-11.2-8-3.16s4.59-5.17,9.19-3.73,7.47.57,9.48-3.45,8.61-2,10.05-4,2.3-.86,6-6.6c-.86-11.2,4.31-3.45,10.05-1.72s4.31,0,12.06-2.4,4.59,3,9.19,3.84,8.61-.29,10.05-1.44,1.15-5.17-1.15-11.2,12.35.86,14.65-3.45,7.47.86,7.47.86L123,83.49s-3.45-.29-4.59-2,0-3.45,2.3-4.59,1.72-3.45.57-7.18S126.49,66,126.49,66l8-20.1s6.6,2.58,12.35,0,2-8.9-1.15-10.34,10.05-2.3,13.78-1.72,4.59-4.59,6.32-5.46,12.35-1.44,12.35-1.44a34.49,34.49,0,0,0,7.56,3.16c5,1.53,18.76-5,18.76-5l33.69,4.21,29.48,22.21,8.81,6.13s8.42-5,24.89,2.68,42.12,16.46,42.12,16.46v81.55l-13,53.6-28.72,51.69-17.61,26.8s-5-5-10.34-3.45-95.63,37.91-95.63,37.91l-55.61-21.06L111.08,264Z"/><path class="cls-2" d="M178.2,326.42,121.4,304.92l-11.55-40.06L86.6,246.95l-.15-.29a89.13,89.13,0,0,1-4.77-11.4l-.35-1.1,11-6.13a8.36,8.36,0,0,0-2.35-.4c-4-.43-5.81-1.29-6.17-2.91a2.24,2.24,0,0,1,.1-1.31l-7.35-2.61-.25-.33c-3.65-4.68-7.87-9.82-9.24-11.13-1.51.43-5.92,1.91-9.25,3-3.95,1.33-7.68,2.58-8.77,2.86-3.33.83-5.64-2.14-7.49-4.52-1.17-1.5-1.22-1.51-2.08-1.77a19.7,19.7,0,0,1-1.92-.66c-3.44-1.38-6.73-5.44-6-9.59a9.73,9.73,0,0,0-.6-4.21c-.52-1.81-1.06-3.68-.51-5.69a38.71,38.71,0,0,0,1.41-6.94l-1.26.83c-2,1.34-4.5,3-6.82,3-3.41,0-4.47-2.21-5.39-4.17-.22-.46-.45-.95-.73-1.44a10,10,0,0,1-1.12-3.22c0-.13-.06-.3-.09-.42a4.65,4.65,0,0,1-2.55-2.57c-.91-1.73-1.69-4.4-.9-6.24-.07-.34-1.19-1.28-2-2a30.31,30.31,0,0,1-4.41-4.34c-3.32-4.15,0-8.91,2.3-11,1.76-2.94,9-14.29,14.51-13.43l4.94-8.76-8.42-3.31,1.35-1.52c.21-.24,5.27-5.83,10.67-4.15,4.05,1.27,6.16.53,7.79-2.73,1.53-3.06,5-3.41,7.46-3.66.92-.09,2.47-.25,2.71-.55a6.74,6.74,0,0,1,1.83-1.75c.83-.58,1.85-1.3,3.91-4.41-.25-3.85.23-5.78,1.61-6.61,1.69-1,3.61.19,5.83,1.59a19.62,19.62,0,0,0,4.47,2.32c3.21,1,3.57.79,5.57-.17A37.85,37.85,0,0,1,78.69,101c5.3-1.64,6.7,0,7.85,2.07.51.94.82,1.5,2,1.72,4.13.77,7.75-.23,8.9-1.15.33-.27,1-2.68-1.59-9.59a3.23,3.23,0,0,1,.21-3.3c1.29-1.66,4.17-1.31,7.51-.91,2.54.3,6.37.76,7-.41A4.27,4.27,0,0,1,113.78,87c1.88-.28,3.8.78,5.07,1.71l2.09-4.18a6.38,6.38,0,0,1-3.67-2.27,3.73,3.73,0,0,1-.57-3.09,6,6,0,0,1,3.41-3.56c1-.52,1.14-1.3-.15-5.49a3.59,3.59,0,0,1,.47-3.33c1.2-1.62,3.65-2.07,5.08-2.19L133.74,44l1.31.51c.06,0,6.14,2.33,11.25,0,1.45-.65,2.16-1.56,2.16-2.78a6.39,6.39,0,0,0-3.31-5,1.8,1.8,0,0,1-1.25-2.18c.28-1,1-1.78,7.28-2.24a47.49,47.49,0,0,1,8.56,0c1.37.21,2.13-.88,3.22-2.7a6.3,6.3,0,0,1,2.25-2.62c1.84-.92,10.34-1.45,12.91-1.58l.45,0,.38.24a33.85,33.85,0,0,0,7.22,3c3.24,1,12.6-2.48,17.74-4.91l.37-.18L238.75,28l29.78,22.43L276.62,56c2.62-1.1,11.16-3.57,25.35,3,16.21,7.54,41.72,16.32,42,16.41l1,.33,0,82.9-13.06,53.79-.09.17-28.77,51.78-18.57,28.26-1.23-1.23s-4.47-4.37-8.95-3.09c-5.23,1.49-94.58,37.49-95.49,37.86Zm-54.46-23.65,54.43,20.61c8.05-3.24,90-36.26,95.25-37.75,4.39-1.25,8.43,1.16,10.42,2.69l16.7-25.42,28.6-51.48,12.93-53.25V77.8c-4.82-1.68-26.75-9.42-41.3-16.19-15.46-7.19-23.5-2.79-23.58-2.74l-.78.44-.74-.51-8.81-6.13-29.22-22-32.91-4.11c-2.59,1.2-14.36,6.43-19.41,4.88a39,39,0,0,1-7.49-3.07c-4.85.28-10.46.83-11.37,1.27a6.7,6.7,0,0,0-1.08,1.54c-1.09,1.82-2.72,4.56-6.09,4.05a51.19,51.19,0,0,0-11.06.34,8.86,8.86,0,0,1,3,6.25,5.82,5.82,0,0,1-3.83,5.36c-4.67,2.1-9.74,1.13-12.11.46l-7.91,19.76h-1c-1.2,0-3.23.35-3.78,1.09-.06.08-.2.28,0,.81,1.08,3.5,2.19,7.12-1.29,8.86a3.57,3.57,0,0,0-1.94,1.75.9.9,0,0,0,.19.79c.58.86,2.67,1.31,3.53,1.38l2.09.17-5.55,11.1L118.31,92c-.79-.78-2.83-2.34-4.12-2.14-.27,0-.69.18-1.09.95-1.54,2.89-5.95,2.36-9.84,1.89-1.58-.19-4.17-.5-4.88-.17a2.16,2.16,0,0,0,.15.56c1.78,4.68,3.35,10.7.71,12.81-1.92,1.54-6.39,2.62-11.2,1.72a5.35,5.35,0,0,1-4-3.14c-.67-1.21-1-1.83-4.53-.73a35.37,35.37,0,0,0-5.28,2.08c-2.49,1.19-3.56,1.54-7.61.32a21.74,21.74,0,0,1-5.17-2.63,12.4,12.4,0,0,0-2.86-1.52c-.13.26-.45,1.23-.21,4.41l0,.48-.26.4c-2.53,3.9-3.9,4.86-4.91,5.57a4,4,0,0,0-1.16,1.08c-1,1.35-2.79,1.53-4.73,1.73-2.56.26-4.43.56-5.21,2.1-2.26,4.52-5.81,5.84-11.17,4.17-2.22-.7-4.61.7-6.13,1.89l7.44,2.92L24.5,140.58l-1.24-.73c-2.38-1.4-8.58,6.15-12.13,12.14l-.12.2-.18.15c-.19.16-4.65,4-2.11,7.22a28,28,0,0,0,4,3.94c1.9,1.6,3.7,3.12,2.78,5.25-.5,1.18.84,4.43,1.64,5a2.76,2.76,0,0,1,2.08,2.61,7.19,7.19,0,0,0,.81,2.38c.31.55.56,1.09.81,1.6.92,1.94,1.29,2.55,2.83,2.55s3.65-1.46,5.24-2.54,2.65-1.77,3.66-1.77a1.86,1.86,0,0,1,1.48.74c.43.57,1.34,1.75-1,10.24a7.92,7.92,0,0,0,.5,4.15,12.19,12.19,0,0,1,.68,5.47c-.44,2.64,1.91,5.54,4.3,6.49a17,17,0,0,0,1.67.57c1.46.43,2,.73,3.52,2.75,2.05,2.64,3.25,3.84,4.57,3.52,1-.25,4.83-1.54,8.56-2.79,8.6-2.89,9.89-3.28,10.45-3.28.79,0,1.54,0,10.91,12l11.35,4L87,224l-.19.13a12.29,12.29,0,0,0,3.34.69c2.57.15,4.25.8,5.09,2a2.56,2.56,0,0,1,.43,2.13l-.16.56-10.77,6a92.09,92.09,0,0,0,4.09,9.62l23.47,18.08.13.45ZM17.08,173.71h0Z"/></svg>