<svg id="Layer_1" data-name="Layer 1" xmlns="http://www.w3.org/2000/svg" viewBox="0 0 350 350"><defs><style>.cls-1{fill:#999;}.cls-2{fill:#f90;}</style></defs><title>M</title><path class="cls-1" d="M7.14,182.58S7.76,162.23,9.91,159s3.35-4.52,4.94-5.19,5.19-5.59,2-6.92-3.59-2-4.65-1.86c2.53-.93,2.93-1.6,2.66-3.06s1.33-3.19,1.73-4.39,1.86-3.19,2.13-5.59-2.53-12.24,0-13.57,3.59-.8,5.85,0,1.73,2.93,4,3.06,3.06.27,2.66-2-2.66-2.39-1.46-4,2-.93,3.46,0S35.73,119,36.53,119c0,0,2.59,1.43,3.69,1.43s1.1-3.29,3.49-4.19,4.29-.7,7,.4a57.54,57.54,0,0,0,6.18,2s1.5,10,2.49,10.87c-2.39-1.1-5.69-.3-3.39,4.19,2.39,3.89,1.6,4.79,4.79,4.79s1.9-2.49,3.19,0-.3,1.7-.9,3.49-2.8,4.09,1.39,4.59,7-.9,7.19-2.89-4.89-3.29-4-5.89,0-3.69,3.49-1.8.7,3.09,4,3.29,5.79-.3,3.49-2.59-4.29-3.29-2-4.09,1.38.3,2.88-1.5a5.13,5.13,0,0,0,.81-5c-.4-.7,7.18.8,8.68,1.3s1.7.1,2.89-2.59-3-2.29-3-2.29-1.6-1.8,1.5-1.8,2.89.5,4.89-1.7,1.4-3.49,1-5.09-1.4-2.29-2.39-1.8c2.09-1.7,2.49-5-.9-5-2-.8-1.9-2.89-.7-4.49,1.5,3.19,3,2.39,4.4,0,.79-.3,2.79.4,3.88.9s4.69-1.8,1.4-3.69c-2.59-1.8-2.19-2.39-.8-2.69s4.59-.4,5-.9.2-2.29,0-3a14.9,14.9,0,0,0-2.89-4.39c-1.2-1.1,3.09,2.89,6.38,0S114,85.33,112,83.63s-2-3.49-.1-3.89,2.29-.9,3.39,1.1,1.8,2.79,3.79,3.39,4.49,1.1,5.39-3-.3-2.49.9-4.09-1.3-3.59-.8-4.59.9-4.09,4.39-3.29,3.59,3.09,5.19,4a9,9,0,0,0,3.39,1c.4.1-1.6,4-1.5,5.49s-1.8,8.18,5.49,11.87c3.49,2.49,6.78,3.79,8.38,2.39s6-6.68,6-6.68,2.89-4.79,3.09-8-.7-10.27-2.39-12.27c4.19-2.49,3.89-6.28,8.78-6.18s5,5.29,6.78,7.38,1.9,4,8.48,3.09,8.78-1.1,11.17-.1a7.7,7.7,0,0,0,7.08-1.1c1.8-1.3,3.89-.4,1.5-2.69s-2.79-4.19-1.2-5.29,4.89-2.69,4.79.1c-.5,2.89.4,4.29,2,4.69s5-.5,5.19-2.39,1.6-6.78,1.3-8.08-.3-1-1.9-1.7-1.1-4.09,1.4-1.8,3.19,2.59,5.59,1.4a7.43,7.43,0,0,0,4.09-6c.3-2.59,2.29-4.49,0-6.08s-2.29-2.19-3.49-2.29-.2-1.1,1.3-2.29,4.29-1.3,5.39,0,1.9,2.79,3.09.8-.8-2.39,2.09-2.49,3.09.1,5.69.1,6.58-1.6,7.18-1.5c.2,2.39.4,4.49,1.8,4.19s-.7,1.2,0,3.29.68,11.47.49,12.17-17.65,7.48-17.75,7.78.1,6.48.1,6.48l19.35-1.7,39.2-1.4s15.56,1.8,15.86,1.8,0,13,0,13l18.25,13.67s4.59,0,5.49-.1,1-.8,1.1-1.8c3-.1,3.29-1,4.09-2.49,4.79-.1,8.78-.1,8.78-.1l1.8-2.59s1.4,0,1.4.6V95.6l-11,15.16-18.25.1-.4,10.47-1.8,4.89v14.16l2,.3-1,6.08a11.47,11.47,0,0,0-.8,4.69c.1,2.69,1.4,14.46,1.4,14.46a16.38,16.38,0,0,1-.6,3.89c-.6,2.19-4.09,6.78-4.09,6.78l-2,2.29.2,52.87H296.38l-.6,1.1s-4.69-2.69-5.19-3.39-.5-6.28-.5-6.28h-5.69l-.6,3.59s-2.69.1-2.49-.2.4-14.56.4-14.56H269.35v-2.59h-2.89v-2h-2.19v-2.59h-3.09V202h-2.69s-2.29-6.88,5.79-9.28,8.48-2.59,8.18-3.39-6.38-4.19-12.07-3.69-40.9,3.19-43.49,3.79-9.58,6.28-10.37,9.28-2.29,1.1-3.59,1.2-9.48,6.18-11,6.18-4.69.1-6.58.1-2.19,1.3-1,2.69,2.69,5.79,4,6.78,2.59,5.59,2.39,6.48S189,227,189,227s11.07-.2,12.07,1.1,8.18,5.89,13.37,12.77,5.59,2.89,6.18,7-.8,7.78-1.7,10-5,6.18-5,6.18-12.27.3-15.26,0-5.19.1-9.08-.9-6.18-.9-10.77-.8-4.79-.43-7.48,1.83-3.59,4.26-2.59,6.95,2.49,5.89,5.39,6.28,2.09-1.3,3.29,0,0,1.3,1.9,3.69,5.79,4.49,6.68,5.19-.2,5.49-2,6A3.83,3.83,0,0,0,181,295.9c0,1.9-2.09,4.09-2.09,5.59S175.68,314,175.68,314s-4.89-.4-8.18,1.4c-1.5-2.09-7.68-1.2-9.78-2s.4-3.49-1-5.79-4.59-3.59-6.18-5.39-4-2.29-5.29-3.19-4.59-1.8-2.59-6.78c-1.5-3.19-3.49-4.69-4.19-6.38s-1.3-3.49-1.3-3.49l-1.7.2s-.7-2.59-.7-2.89a7,7,0,0,1-8.68,2.89c-.8.6-.7,2.29-.8,2.79s-2.49,5.19-2.39,7.58.6,4.59.6,5-6.38,3.79-10.17,3.09-6.38.3-9.88,1.7S93.29,304,93.29,304H88.6s-4-1-7.08.4-4,.8-6.78.8-4.09-.4-5.09-.3.2-14.66.6-18.75a44.06,44.06,0,0,0-.4-11.37c-.5-2.09-.9-3.09-.9-3.49s7-6.18,7-6.18l11,.5v-2.89l-16-7.38s-1.1-.8.3-2.59,5.49-3.19,6.28-4.09,1-5,1-5.49-.1-6.18-3.59-7.28-3.69-2.49-.7-3.29,5.39,1.6,7,.9,2.49-2.79,3-3.79.1-6.18.1-6.18l-6.78,1.8s-4.29-4.09-6.68-4.49c-1.3-1.7.2-1.8-2.29-2.19s-14.16-.4-14.16-.4-5.69-2.09-8.88-4.59-2.59-6.08-2.29-8.58,1.9-2.29,2.79-3.59,1.4-9.58,1.4-11-2.19-2.29-5.19-1.8-6.18-3.89-7.48-5.09-.9-3.39-4.19-3.39-10.67-.4-7,8.18c-.5,0,1.4.8-1.2,2.19s-2.89,1.4-3.89.6-2.49-2.69-3.09-2.89-2.69-.5-3.89-.9-1.57-2.59-1.58-3.89S7.14,182.58,7.14,182.58Z"/><path class="cls-2" d="M167.08,317.2l-.73-1c-.54-.76-3.41-.9-5.13-1a14.23,14.23,0,0,1-4-.52c-2.2-.84-1.82-2.95-1.62-4.08a3.2,3.2,0,0,0-.08-2.29,11.3,11.3,0,0,0-3.2-2.87,16.27,16.27,0,0,1-2.83-2.32,8.85,8.85,0,0,0-3.12-2,12,12,0,0,1-1.91-1c-.15-.1-.33-.21-.53-.32-1.48-.85-4.51-2.58-2.8-7.55a19.83,19.83,0,0,0-2.23-3.29,11.33,11.33,0,0,1-1.73-2.63c-.37-.9-.71-1.81-1-2.49l-1.78.21-.32-1.18-.08-.28a7.89,7.89,0,0,1-7.2,1.6c0,.27-.05.55-.06.71a6.13,6.13,0,0,1-.07.67,7.24,7.24,0,0,1-.5,1.29c-.58,1.33-1.93,4.46-1.87,5.95a33,33,0,0,0,.46,3.93,7.59,7.59,0,0,1,.14,1.12,1.61,1.61,0,0,1-.65,1.26c-1,.86-7.13,4-11.2,3.23-3.29-.61-5.49.18-9.09,1.62s-10.44,1.4-10.72,1.4l-5,0s-3.56-.86-6.15.32a9.8,9.8,0,0,1-5.64,1c-.5,0-1.06-.07-1.73-.07a30,30,0,0,1-3.6-.22,7.75,7.75,0,0,0-1.35-.09l-.67.07-.57-.51c-.37-.37-1.51-1.51.28-19.86a43,43,0,0,0-.37-10.91c-.24-1-.45-1.74-.61-2.28a5.81,5.81,0,0,1-.33-1.54c0-.77,0-1.06,7.5-7.28l.42-.35,10,.46v-.5l-15.38-7.14a2.57,2.57,0,0,1-1-1.69,3.88,3.88,0,0,1,1-2.92,14.09,14.09,0,0,1,4.58-3.16,13.12,13.12,0,0,0,1.77-1,17.46,17.46,0,0,0,.63-4.53c0-1.42-.47-5.26-2.6-5.93-.95-.3-3.83-1.2-3.78-3.28,0-1.27,1.09-2.19,3.15-2.74a8.39,8.39,0,0,1,5.19.56,4.55,4.55,0,0,0,1.59.4c1-.43,1.71-1.93,2.14-2.82l.15-.3a19.45,19.45,0,0,0,.06-3.74l-5.88,1.56-.57-.55c-1.65-1.57-4.59-3.89-5.94-4.12l-.55-.09-.34-.44a4.58,4.58,0,0,1-.82-1.55l-.58-.1c-2-.31-10.73-.38-13.94-.38h-.25l-.24-.09c-.24-.09-5.93-2.2-9.26-4.8-3.69-2.88-3.17-7-2.87-9.54l0-.32a4.51,4.51,0,0,1,2.28-3.6,2.62,2.62,0,0,0,.75-.63c.55-1,1.14-8.09,1.14-10.17-.1-.16-1.24-.78-3.54-.4-3.16.52-6.07-2.64-7.8-4.53-.35-.38-.64-.7-.87-.92a5.72,5.72,0,0,1-1.19-1.73c-.47-.94-.65-1.29-2-1.29h-.43c-1.82,0-4.86,0-5.8,1.39-.6.91-.41,2.57.55,4.81l.85,2h-.64a4,4,0,0,1-2,2c-2.56,1.38-3.67,1.88-5.45.46a17.9,17.9,0,0,1-1.6-1.55,15.37,15.37,0,0,0-1.14-1.13c-.22-.06-.69-.15-1.08-.23a24.28,24.28,0,0,1-2.72-.64C9,188,8.59,185.22,8.51,184a4.91,4.91,0,0,0-1.17,0l-1.66.23,0-1.68c.11-3.47.75-20.93,3-24.29,2.15-3.18,3.53-4.85,5.57-5.7.62-.26,2.4-2.39,2.4-3.74,0-.28-.06-.41-.41-.56-1.34-.56-2.2-1-2.83-1.32-.84-.43-.93-.46-1.1-.44L.12,148l11.58-4.26c1.9-.7,1.87-.86,1.76-1.47-.27-1.48.54-2.87,1.19-4a7.59,7.59,0,0,0,.58-1.11,12.12,12.12,0,0,1,.72-1.57,11.22,11.22,0,0,0,1.35-3.72,24.26,24.26,0,0,0-.41-3.76c-.71-4.69-1.44-9.53,1.16-10.9,2.92-1.54,4.53-1,6.57-.23l.41.15a5,5,0,0,1,2.63,2.22c.43.65.5.73,1,.76h.24c.33,0,.71,0,1,0,0-.11,0-.23-.06-.39a2.53,2.53,0,0,0-.81-1.35,2.63,2.63,0,0,1-.39-3.74c1.92-2.55,3.83-1.32,5.1-.51l.25.16a9.31,9.31,0,0,1,2.28,2.42c.19.25.45.61.63.81h0l.32.18a16.38,16.38,0,0,0,2.59,1.16l.2-.42a6,6,0,0,1,3.21-3.58c3-1.13,5.39-.65,8,.41a56.2,56.2,0,0,0,6,1.93l.91.23.14.93c.62,4.16,1.6,9.14,2.13,10.11l6.72,6a1.88,1.88,0,0,1,.86-.78c1-.48,2.19.07,3.82.95,2,1.09,2.48,2.15,2.73,3.05a5.61,5.61,0,0,0,.67.07,11.7,11.7,0,0,0,2.52-.05l-.12-.12c-.48-.48-1-.91-1.37-1.28-1.27-1.15-2.28-2.06-2-3.35a2.69,2.69,0,0,1,1.93-1.8,7.13,7.13,0,0,1,1.71-.41l.56-.66a3.84,3.84,0,0,0,.65-3.39,1.48,1.48,0,0,1,.14-1.68c1.34-1.64,10.14.91,10.22.94l.24.07a20.27,20.27,0,0,0,.91-1.9l.06-.16a4.39,4.39,0,0,0-1.63-.15l-.71.06-.48-.53a2.57,2.57,0,0,1-.59-2.71c.65-1.45,2.53-1.45,3.15-1.45s1.06,0,1.45,0c1.2,0,1.2,0,2.39-1.26a2.79,2.79,0,0,0,.79-3.35l-.12-.44a1.54,1.54,0,0,0-.45-.89l-11.62,5.8L93,111.06A2.39,2.39,0,0,0,94,108.94c-.12-.33-.84-.35-1.06-.35h-.27l-.25-.1A3.74,3.74,0,0,1,90.15,106a4.88,4.88,0,0,1,1-4.2l1.42-1.89,1,2.14a3.66,3.66,0,0,0,.81,1.25A4.1,4.1,0,0,0,95.46,102l.25-.44.47-.18c1.37-.52,3.73.38,4.83.87a1.55,1.55,0,0,0,.9-.62h0a2.89,2.89,0,0,0-.65-.49l-.1-.06c-1.35-.93-2.76-2.05-2.47-3.5s1.71-1.64,2.19-1.74,1.33-.21,2.13-.3c.57-.06,1.43-.16,2-.26a6.51,6.51,0,0,0-.18-1.56A14.34,14.34,0,0,0,102.31,90a1.44,1.44,0,1,1,1.62-2.38c1.36.85,3.29,1.58,4.79.27l.66-.58a16.6,16.6,0,0,0,2.2-2.11,3.23,3.23,0,0,0-.46-.45c-1.57-1.33-2.27-2.87-1.92-4.23a3,3,0,0,1,2.45-2.13l.71-.17c1.91-.47,3-.3,4.21,2,1,1.84,1.48,2.28,3,2.72A3.56,3.56,0,0,0,122,83a3.37,3.37,0,0,0,1.09-2.1,7.55,7.55,0,0,0,.31-2.51c-.11-.88.17-1.24.83-2.13.16-.22-.2-.91-.47-1.42a3.17,3.17,0,0,1-.46-3,4.91,4.91,0,0,0,.18-.47c.45-1.24,1.64-4.52,5.79-3.57A7.26,7.26,0,0,1,133.94,71a3.63,3.63,0,0,0,.94,1,6.53,6.53,0,0,0,2.51.77l.54.09.61.15.33.59c.38.72.13,1.39-.47,3a13.76,13.76,0,0,0-.91,3,8.34,8.34,0,0,1-.05,1.19c-.2,2.37-.59,6.79,4.77,9.51l.18.11C146,93,148.33,93.53,149,92.94c1.22-1.06,4.5-4.93,5.76-6.44.79-1.33,2.7-5,2.84-7.25.21-3.4-.82-9.8-2.06-11.26l-1.09-1.28,1.44-.86A11.06,11.06,0,0,0,159,62.91c1.37-1.73,2.78-3.51,6.42-3.44,4.33.09,5.77,3.48,6.72,5.73a9.1,9.1,0,0,0,1.11,2.15c.3.35.55.69.8,1,1.08,1.45,1.67,2.24,6.42,1.59,6.67-.91,9.12-1.17,11.91,0a6.29,6.29,0,0,0,5.71-.94,5.68,5.68,0,0,1,1.21-.66c-1.74-1.71-2.56-3.31-2.44-4.78A3.38,3.38,0,0,1,198.42,61c1.1-.75,3.85-2.4,5.7-1.38a2.72,2.72,0,0,1,1.31,2.7l0,.19c-.47,2.72.56,3,.94,3.07a4.61,4.61,0,0,0,3-.67c.25-.18.42-.37.43-.5.08-.79.33-2,.6-3.2a24.52,24.52,0,0,0,.72-4.43l-.07-.3-.17-.07L210,56.1a3,3,0,0,1-1.77-2.82A2.42,2.42,0,0,1,209.62,51c.7-.31,1.85-.39,3.33,1,2.23,2.05,2.3,2,4,1.17a6,6,0,0,0,3.32-4.88,11.52,11.52,0,0,1,.68-2.58c.58-1.64.53-1.76-.08-2.18a21.47,21.47,0,0,1-2-1.53c-.57-.49-.57-.49-.84-.51a1.83,1.83,0,0,1-1.76-1.25c-.39-1.29.75-2.33,2.29-3.56,1.94-1.56,5.65-1.82,7.35.19l.42.52.38.46a1.25,1.25,0,0,0,.22-.89,2,2,0,0,1,.44-1.54c.57-.63,1.4-.71,2.6-.75a32,32,0,0,1,3.41,0c.61,0,1.26.07,2.32.07a21.31,21.31,0,0,0,4.93-1,6.2,6.2,0,0,1,2.49-.47l1.09.18.09,1.1a15.8,15.8,0,0,0,.41,2.87,1.63,1.63,0,0,1,1.54.56,1.9,1.9,0,0,1,0,2.09,2.18,2.18,0,0,0-.26,1.63c.79,2.37.78,12,.51,13s-.3,1.09-12.54,6.13c-2,.81-4.13,1.7-5.19,2.17,0,.88,0,2.43.08,4.05l17.86-1.56,39.38-1.4h.11c6,.7,15.23,1.75,15.77,1.79h.6l.35.43c.5.51.69.71.41,13.26l17.29,12.95c1.59,0,3.81,0,4.64-.07,0-.18.05-.42.07-.54l.12-1.23,1.24,0c2-.07,2.13-.31,2.75-1.49l.52-1,.83,0c3.54-.07,6.68-.09,8.06-.1l1.8-2.59h.74c1.71,0,2.81.79,2.81,2v8.64l-11.66,16.12-17.62.1-.36,9.34-1.79,4.86v12.69l2.21.33-1.34,7.85a10.23,10.23,0,0,0-.67,4.05c.1,2.61,1.38,14.24,1.39,14.36v.16a17.77,17.77,0,0,1-.65,4.26c-.65,2.39-4,6.78-4.33,7.27l-1.7,2,.2,53.76H297.22l-.89,1.63-1.26-.72c-3.29-1.89-5.18-3.17-5.63-3.8-.21-.29-.67-.95-.75-5.69h-3.08l-.59,3.55-1.16,0c-2.6.1-3.34-.08-3.79-.87l-.42-.76.31-.49c.11-1.39.25-7.87.32-12.64H267.93v-2.59H265v-2h-2.19v-2.59h-3.09v-2.79h-2.3l-.32-1a9,9,0,0,1,.54-6.49,9.64,9.64,0,0,1,6.19-4.6c2.43-.72,4.92-1.46,6.37-2a18.59,18.59,0,0,0-9.73-2.34l-8.72.71c-11.44.92-32.72,2.62-34.57,3-2.27.52-8.71,6-9.32,8.26a3.72,3.72,0,0,1-1.64,2.48,3.14,3.14,0,0,1-2.63-.06,4.5,4.5,0,0,0-.54-.17,45.23,45.23,0,0,0-4.32,2.59c-4,2.55-5.71,3.59-6.81,3.59-.7,0-1.77,0-2.9,0-1.3,0-2.67.05-3.69.05h-.18a2.56,2.56,0,0,0,.25.35,17.48,17.48,0,0,1,1.92,3.37,14.6,14.6,0,0,0,1.85,3.21c1.82,1.4,3.22,6.55,2.91,7.92-.12.54-.59,1.88-1,3,9.84,0,10.77,1.2,11.14,1.67a24.33,24.33,0,0,0,2.1,1.78,63.3,63.3,0,0,1,11.27,11c2.49,3.3,3.71,3.85,4.37,4.15,1.36.61,1.77,1.29,2.09,3.48.69,4.68-1,8.91-1.79,10.72-1,2.4-4.87,6.23-5.31,6.66l-.4.39H214c-.51,0-12.39.3-15.44,0-.95-.09-1.8-.12-2.71-.14a26.39,26.39,0,0,1-6.57-.8c-3.54-.91-5.64-.86-9.82-.77h-.57c-.88,0-1.61,0-2.22,0-2.45,0-2.6,0-4.38,1.49-2.66,2.23-2.81,3.66-2.18,5.37.87,2.35,2.14,5.08,4.25,5.37.95.13,1.17,0,1.32-.12a2,2,0,0,1,2.82.56,3.52,3.52,0,0,1,1,2,3.45,3.45,0,0,0,1,1.76,22.65,22.65,0,0,0,5.2,4.12c.56.36,1,.62,1.24.83.83.65,1.07,1.91.71,3.74-.13.68-.92,4.1-3.19,4.73a2.47,2.47,0,0,0-2.05,2.33,8.31,8.31,0,0,1-1.31,3.79,6.43,6.43,0,0,0-.78,1.8c0,1.58-2.49,10.25-3.25,12.86l-.32,1.11-1.15-.09s-4.52-.34-7.39,1.23ZM158.26,312a15,15,0,0,0,3.09.33c2.39.11,4.85.23,6.4,1.29a18.16,18.16,0,0,1,6.87-1.16c1.42-4.94,2.8-10.17,2.83-11a7,7,0,0,1,1.13-3.14,6.57,6.57,0,0,0,1-2.44,5.23,5.23,0,0,1,4.13-5.06c.63-.3,1.38-2.73,1.28-3.66l-.8-.51a24.83,24.83,0,0,1-5.9-4.75,6.08,6.08,0,0,1-1.52-3,.74.74,0,0,0-.12-.36,4.84,4.84,0,0,1-2.63.22c-4.06-.56-5.79-5.21-6.52-7.2-1.5-4.06.82-6.69,3-8.53,2.48-2.08,3.33-2.16,6.22-2.15.59,0,1.29,0,2.14,0h.57c4.3-.1,6.67-.15,10.58.85a23.69,23.69,0,0,0,5.94.71c.92,0,1.88,0,2.93.15,2.52.25,12.09.06,14.52,0,1.52-1.54,3.75-4,4.27-5.32a17.53,17.53,0,0,0,1.61-9.23,6.79,6.79,0,0,0-.25-1.22l-.2-.09c-1.23-.55-2.77-1.44-5.47-5a60.82,60.82,0,0,0-10.78-10.49,21.5,21.5,0,0,1-2.46-2.13c-1.11-.51-6.53-.76-11-.68l-2.1,0,.76-2c.61-1.57,1.51-4,1.63-4.59,0-.83-1.14-4.49-1.87-5.05-1-.76-1.8-2.44-2.67-4.21a17.27,17.27,0,0,0-1.53-2.77,3.27,3.27,0,0,1-.83-3.49,2.89,2.89,0,0,1,2.91-1.54c1,0,2.35,0,3.63-.05,1.11,0,2.17,0,2.88,0a42.16,42.16,0,0,0,5.36-3.14c3.42-2.2,4.7-3,5.58-3a4.11,4.11,0,0,1,1.76.33l.36.12a3.38,3.38,0,0,0,.21-.6c1-3.59,8.45-9.61,11.42-10.29,1.89-.44,18.32-1.78,35-3.11l8.7-.71c5.9-.51,12.86,2.85,13.52,4.6a2,2,0,0,1,0,1.59c-.54,1.09-1.53,1.42-9.07,3.66a7,7,0,0,0-4.47,3.16,5.82,5.82,0,0,0-.56,3.34h3v2.79h3.09V206h2.19v2h2.89v2.59h12.39l0,1.44c-.08,5.81-.15,9.35-.23,11.54l.3-1.8h8.3v1.42a38.64,38.64,0,0,0,.3,5.52c.4.33,1.88,1.28,3.42,2.19l.3-.55h9.59l-.2-52,2.35-2.7c1.23-1.62,3.41-4.82,3.79-6.23a15.55,15.55,0,0,0,.55-3.45c-.13-1.18-1.3-11.86-1.39-14.48a13.21,13.21,0,0,1,.84-5.13l.74-4.51-1.78-.27V126l1.81-4.91.44-11.61,18.89-.1,10.28-14.21v-5.8l-1,1.49h-.74s-3.58,0-7.92.08A4.36,4.36,0,0,1,328,93.34a2.38,2.38,0,0,1-2.15,1.88c-.93.1-4.86.11-5.64.11h-.47L300.53,80.94l0-.73c.1-4.56.16-9.55.11-11.65-1.67-.18-5.54-.62-14.61-1.66L247,68.29l-20.77,1.82,0-1.5c-.21-6.44-.12-6.7,0-7,.24-.73.24-.73,6.84-3.45,3.55-1.46,9.27-3.81,10.92-4.68.1-2,0-9.39-.5-10.92a4.4,4.4,0,0,1,0-2.59l-.23-.15c-.93-.69-1.25-1.93-1.43-3.45l-.21.06a22.84,22.84,0,0,1-5.71,1.12c-1.14,0-1.83,0-2.48-.07a30.8,30.8,0,0,0-3.16,0h-.31a4.23,4.23,0,0,1-.62,1.79A3,3,0,0,1,227,40.93c-1.29.06-2.09-.92-2.8-1.8l-.38-.46c-.51-.6-2.43-.6-3.42.19l-.41.33a8.31,8.31,0,0,1,.79.63,19,19,0,0,0,1.73,1.35c2.45,1.71,1.66,4,1.13,5.45a9.18,9.18,0,0,0-.53,2,8.89,8.89,0,0,1-4.86,7.09c-1.88.94-3.11,1.06-4.34.51.24,1-.11,2.83-.72,5.65-.25,1.16-.49,2.26-.55,2.9A3.55,3.55,0,0,1,211,67.26a7.35,7.35,0,0,1-5.32,1.09c-1.18-.3-3.83-1.49-3.07-6.19h0a7.2,7.2,0,0,0-2.57,1.2c-.32.22-.34.39-.34.46,0,.45.4,1.37,1.72,2.64,1,.92,1.72,1.76,1.46,2.83a2.22,2.22,0,0,1-1.81,1.48,4.17,4.17,0,0,0-1.3.56,9.13,9.13,0,0,1-8.46,1.26c-2-.83-3.88-.7-10.44.2-6,.81-7.46-.55-9.07-2.71-.21-.28-.42-.57-.67-.86a10.87,10.87,0,0,1-1.57-2.89c-1-2.45-1.79-3.95-4.17-4s-2.91.81-4.15,2.37a15.62,15.62,0,0,1-2.71,2.82c1.47,3.17,2.09,9.11,1.91,11.94-.22,3.5-3.17,8.42-3.29,8.63l-.12.17c-.18.22-4.48,5.39-6.14,6.84-2,1.77-5.49,1-10.05-2.25-7-3.59-6.42-9.86-6.21-12.23,0-.29.06-.65,0-.76a11.6,11.6,0,0,1,1.08-4.22l.08-.22a8.84,8.84,0,0,1-2.34-.9,5.94,5.94,0,0,1-1.81-1.76,4.51,4.51,0,0,0-3-2.08c-1.56-.35-1.94.24-2.5,1.78-.07.18-.13.35-.19.5s.21.44.31.63c.55,1,1.47,2.79.23,4.44l-.26.35a11.2,11.2,0,0,1-.39,3.2,5.64,5.64,0,0,1-2.42,3.94c-1.73,1-3.7.42-4.76.11-2.45-.73-3.4-1.85-4.62-4.07a4.58,4.58,0,0,0-.46-.72l-.59.13-.81.19a.81.81,0,0,0-.32.12,3.54,3.54,0,0,0,1,1.3,3.52,3.52,0,0,1,1.5,2.57c0,1.47-1.14,2.47-3.22,4.29l-.66.58a5.57,5.57,0,0,1-3.76,1.42h0a8.24,8.24,0,0,1,.7,1.51s.78,3-.26,4.27c-.59.74-1.7.9-3.94,1.15l-.94.11.35.25c2.18,1.28,2.31,3,1.69,4.22-.74,1.45-2.94,2.64-4.44,2a11,11,0,0,0-2.48-.81A4.65,4.65,0,0,1,95,106.13,3.22,3.22,0,0,1,96.72,108a4.24,4.24,0,0,1-.35,3.31,4.48,4.48,0,0,1,1.28,2.3l.1.4c.4,1.52.91,3.41-1.43,6-1.48,1.63-2.13,2.11-3.51,2.19a2.5,2.5,0,0,1,.24.28,2.8,2.8,0,0,1,.13,2.94c-1.19,2.67-1.9,4.27-4.64,3.36a52.83,52.83,0,0,0-6.5-1.3A6.55,6.55,0,0,1,80.6,132c-1,1.21-1.32,1.57-2.33,1.65a3.07,3.07,0,0,0-.69.12l.57.52c.45.4,1,.86,1.47,1.38,1.2,1.2,1.58,2.33,1.12,3.36-.6,1.34-2.36,1.85-5.7,1.65-2-.12-2.83-.67-3.21-2.1-.1-.36-.19-.73-1.37-1.37-.46-.25-.8-.42-1.05-.54a13.49,13.49,0,0,1-.42,1.55c-.15.44.61,1.08,1.63,1.87,1.22.95,2.6,2,2.43,3.7a4,4,0,0,1-1.55,2.72c-1.58,1.27-4.21,1.79-7.21,1.44-1.14-.14-2.74-.46-3.44-1.75s-.07-2.67.46-3.75a8.72,8.72,0,0,0,.41-.94A3.86,3.86,0,0,1,63,139.72l-.09-.22a4.92,4.92,0,0,1-2.11.41c-3,0-3.66-1-4.64-3a27.84,27.84,0,0,0-1.35-2.49l-.06-.1c-1.56-3.05-.88-4.75,0-5.63a3.63,3.63,0,0,1,2.48-1.06,76.21,76.21,0,0,1-1.55-7.9A54.59,54.59,0,0,1,50.16,118c-2.5-1-4-1.12-6-.38-.76.29-1.15,1-1.62,2.09s-1,2.19-2.37,2.19a11.64,11.64,0,0,1-4.15-1.49c-.85-.21-1.44-1-2.1-1.92a7.44,7.44,0,0,0-1.52-1.71l-.26-.17a7,7,0,0,0-1-.56,1.89,1.89,0,0,0-.3.32l.16.17a5.23,5.23,0,0,1,1.52,2.79,3.37,3.37,0,0,1-.47,2.93c-.8.9-2,.83-3.43.74h-.24a3.78,3.78,0,0,1-3.17-2,2.26,2.26,0,0,0-1.21-1.11l-.42-.15c-1.91-.68-2.48-.89-4.3.07-.76.77,0,5.82.32,8a21.54,21.54,0,0,1,.43,4.5,13.68,13.68,0,0,1-1.64,4.69,10.79,10.79,0,0,0-.55,1.18,9.09,9.09,0,0,1-.83,1.65,4.71,4.71,0,0,0-.85,2,3.24,3.24,0,0,1-.71,3c.48.24,1.08.52,1.85.84a3.32,3.32,0,0,1,2.15,3.18c0,2.55-2.51,5.67-4.15,6.36-1.23.51-2.28,1.65-4.31,4.67-1.25,1.85-2.16,13.08-2.48,21.3a3.5,3.5,0,0,1,2,.71,2.14,2.14,0,0,1,.76,1.63A4.32,4.32,0,0,0,12,186c.58.19,1.56.38,2.34.54a14,14,0,0,1,1.51.34A6.41,6.41,0,0,1,18,188.76a16.29,16.29,0,0,0,1.32,1.3,2.12,2.12,0,0,0,.34.25,18,18,0,0,0,2-1,4.25,4.25,0,0,0,.5-.31,1.6,1.6,0,0,1-.13-.55c-1.21-3-1.24-5.31-.11-7,1.78-2.69,5.79-2.67,8.18-2.67h.42a4.45,4.45,0,0,1,4.57,2.84,3.36,3.36,0,0,0,.58.92c.27.25.63.63,1,1.08,1.26,1.37,3.6,3.93,5.25,3.65,2.4-.4,4.56,0,5.77,1a2.85,2.85,0,0,1,1.06,2.18c0,.09-.31,9.84-1.65,11.78a5.17,5.17,0,0,1-1.51,1.38,1.75,1.75,0,0,0-1,1.58l0,.33c-.29,2.38-.62,5.07,1.8,7a38,38,0,0,0,8.27,4.29c1.79,0,11.74,0,14.13.42,1.34.21,2.5.4,2.82,2a1.35,1.35,0,0,0,.13.4c2.19.7,4.92,3,6.2,4.16l7.67-2,.13,1.7c.2,2.54.31,5.81-.25,6.93l-.14.28c-.61,1.25-1.62,3.33-3.55,4.18-1.24.54-2.48.1-3.68-.33a5.86,5.86,0,0,0-3.51-.5l-.42.13a9.62,9.62,0,0,0,1.18.44c4.46,1.4,4.58,7.9,4.58,8.63,0,0-.06,5-1.36,6.43A9.21,9.21,0,0,1,76,251.19a13.06,13.06,0,0,0-3.65,2.38,2.28,2.28,0,0,0-.38.64l16.34,7.56v5.28l-11.91-.54c-2.42,2-5,4.21-5.94,5.13l.1.36c.17.57.39,1.36.64,2.41a45,45,0,0,1,.43,11.84,170.63,170.63,0,0,0-1,17.22l.74.08a27.23,27.23,0,0,0,3.29.2c.74,0,1.35,0,1.91.08a7.15,7.15,0,0,0,4.29-.75c3.14-1.42,6.94-.72,7.83-.52h4.53c.08,0,6.46.08,9.65-1.2,3.43-1.37,6.4-2.56,10.66-1.77,2.51.46,6.85-1.39,8.4-2.31v-.05a35.45,35.45,0,0,1-.49-4.27c-.08-2,1-4.75,2.1-7.19.15-.34.27-.61.32-.76s0-.17,0-.28c.07-.93.18-2.48,1.31-3.33l.6-.45.71.25c2.95,1,5.2.32,6.89-2.18a1.46,1.46,0,0,1,1.73-.74l1,.31v1c0,.21.17.78.34,1.42l1.62-.19.36,1.09s.59,1.77,1.26,3.4a9.58,9.58,0,0,0,1.33,2,21.3,21.3,0,0,1,2.83,4.37l.26.56-.23.57c-1.26,3.15-.05,3.84,1.35,4.64.28.16.53.3.74.45a10.3,10.3,0,0,0,1.46.74,11.35,11.35,0,0,1,4.08,2.67,14.12,14.12,0,0,0,2.34,1.88,13.49,13.49,0,0,1,4,3.71,5.76,5.76,0,0,1,.45,4.27A7.25,7.25,0,0,0,158.26,312Zm133.58-83.22Zm-11.71-3,0,.06Zm-95.25-18.08Zm6.94-3Zm11.31-3.38h0Zm68.13-11.19h0ZM63.38,144.86a3.75,3.75,0,0,0,1.25.3c2.22.26,4.12,0,5.1-.83a1.2,1.2,0,0,0,.51-.79,9,9,0,0,0-1.35-1.17c-1.35-1.05-3.39-2.64-2.56-5a11.29,11.29,0,0,0,.36-1.35,4.81,4.81,0,0,1,.44-1.36l-8.33-3.82a2.23,2.23,0,0,0-2.05-.12c-.18.19-.2,1,.49,2.33.69,1.12,1.13,2,1.45,2.67.68,1.39.68,1.39,2.1,1.39.89,0,1.06-.23,1.18-.38a1.57,1.57,0,0,1,1.45-.73c.89.08,1.21.67,1.82,1.87,1,1.87.88,3-.35,4a1.16,1.16,0,0,0-.46.6,10.83,10.83,0,0,1-.55,1.27A6.79,6.79,0,0,0,63.38,144.86Zm15-7.2Zm16.12-34.28ZM301.75,68.67h0ZM226.46,38.2Zm16.45-2.13h0Z"/></svg>