<svg id="Layer_1" data-name="Layer 1" xmlns="http://www.w3.org/2000/svg" viewBox="0 0 350 350"><defs><style>.cls-1{fill:#999;}.cls-2{fill:#f90;}</style></defs><title>M</title><path class="cls-1" d="M160.37,244.82c-.08-.73-.14-1.38-.18-2A9.67,9.67,0,0,0,160.37,244.82Z"/><path class="cls-2" d="M159,245.08a11,11,0,0,1-.21-2.24l2.83-.08c0,.56.1,1.2.18,1.91Z"/><path class="cls-1" d="M148.09,16.33h-1.52A1.93,1.93,0,0,0,148.09,16.33Z"/><path class="cls-2" d="M147.38,17.91a3.56,3.56,0,0,1-1.4-.29l-5.88-2.7h14l-5.33,2.68A3,3,0,0,1,147.38,17.91Z"/><path class="cls-1" d="M336.58,243.46a5.21,5.21,0,0,1-2.67-1.65c-.79-1-.62.06-2-1.08s-1.53-2.55-.62-4.77.11-2.55-1.48-3.35-3.41-.06-3.8-.28-1.65-1.31-2.72-2.1-.23-.85-1.31-1.68-1.08-.25-1.76-.08a3,3,0,0,1-2.61-.74c-1.19-.85-1.36.45-1.53-.45s-1.42-.51-2.1-.85-.28-1.31-1.42-1.93.79-2.44-.06-2.44-.57-.4-.57-.4-.34-3-.51-5.45c.28-4.88,8.12-3.58,11.81-3.18-.4-2,.34-5.68.17-6s.57-1.82,1.59-2.72,1.53-1.25,1.61-2.67-.59-1.7-1.78-2.5a11.66,11.66,0,0,1-2.5-1.87c.06-.17.62-3.29.85-4.14s1.48-.79,2.78-.23,1.65,1.19,2.16,1.25,2.77-6.64,2.77-6.64a38.63,38.63,0,0,1-3.87-1.15c-1.71-.64-4.69-1.92-5-2.77a21.34,21.34,0,0,1-.51-3.45c-.17-1.28-.13-1.53-1.28-1.79s-9.32-.43-9.32-.43-1-1.75-.3-3,1.23-1.53.85-2-6.6-2.09-6.6-2.09-11.92-2.68-12.94-3-3.53-2.51-3.58-3.87-.3-2.72-.34-4.47,1.75-2.3-1.32-2.55-6.13-.09-6.64-1.32a11.36,11.36,0,0,1-.26-4.56c.13-.81,1.28-5.92.13-7s-1.53-1.66-1.53-2.38a11,11,0,0,1,1.92-4.85c1.11-1.28,2.72-3.87,2.77-4.68s-1.15-.6-2.38-.77-1.7-1.11-.43-1.58,1-.17,2-1.15,1.15-.64,1.45-1.32a13.79,13.79,0,0,0,.55-1.75c0-.13.43-3.66-.13-4.17s-1.87-.64-3.07-1.45-4.73-2-5.32-5.28,0-3-.3-4.43-2.6-1.83-2.6-1.83H271a31.29,31.29,0,0,0,2-5.49c.38-2-.3-3.32.26-3.58s1.15.21,1.87-1.06-.6-1.32,1-1.32,1.92.34,2.51-.38.47-1.28.6-2,.09-6.47.09-6.47-.55-2.55,1-2.47a23.48,23.48,0,0,1,3.83.77,6,6,0,0,0,3.07.21,10.45,10.45,0,0,0,3.07-1.32c.51-.38,2,0,2,0l.6-2.09h1.49l0-2.13,2.68.34s-.38-1.79.3-1.83,12,0,12,0V74.32s20.9.55,20.9,0,2-2.43,2-2.68a5.11,5.11,0,0,1,.82-2,29,29,0,0,0,1.48-4.48H329s-1.53,3.18-5.34.74c-3.18-1.59-4-.74-5.05.17s-2,1.19-2.55-.34-.06-1.65-.51-3.29a25.37,25.37,0,0,0-1.36-3.07c-.28-.91-.11-3,.68-3.63A4.46,4.46,0,0,0,316,52.32c-.17-.91.45-3-1-3.18s-.91-1.08-2.21,1.31-1.53,5-2.9,5.9-2,1.65-3.24,1.65-2.33.74-4.83-.68-2.5-2.1-3.8-2.84-1.31-3.41-1.31-3.41L287,50.62l-.57,2.1H282l.23,1.82-2,.23v3.52h-4.31l-.28-1.93h-2.44V54.7H271V52.15h-1.67V50.56h-4.48V47.1h-2.21V35.69a2.42,2.42,0,0,1,3-1.87,45,45,0,0,1,4.83,1.42s4-1,5.39-1.5,2-.37,1.82-2.3-.91-1.76-.91-1.76l-3-.28V26.55l-8.23,2s-9.42,3.63-10.33,4.94-13.45,8.4-13.45,8.4-11,7.89-15.27,9.48-11.07,4.83-15.5,6.42S196.7,63,194.71,64a91.49,91.49,0,0,0-11.92,7.66c-2.67,2.27-5.05,2.9-.62,4.94-6.3-.68-7.95-.74-8.29-.85S173.08,55,173.08,55s-.79-.74-3.46-.62-4-.06-2.55-.62a4.18,4.18,0,0,0,2.16-2.67,15.79,15.79,0,0,0,1.14-2.38c.11-.79.23-3.75-1.48-4.71s.43-3.35-2.4-1.82-3.39,1.7-6.29,1.42-10.67,7.49-10.84,7.55-2,.51-2,.51l.23-7.15h-2v-7h2.61l-.23-5.17a3.18,3.18,0,0,0-4.48-.11c-2.33,2.1-4,4.6-5,4.83s-1.14-.23-3.63-1A30.51,30.51,0,0,1,131.25,35c-1-.4-1.36-2.78-.17-3.69s4.09-1.76,4.66-2a3.34,3.34,0,0,1,2.78-.68c1.82.23,2.84,1.14,4.09.17s.79-2.67,1.76-4.26,1.53-2.44,1.93-.62.11,3.46,1.65,3.07.62-2.27,1.93-2.5,2-.23,2.1-.51.57-1.76-.28-2.44-4.14-.68-4.65-1-.45-4.2-.45-4.2-5.68.4-9.88.28-.4.06-5.22-2.72c-5.17-3-2.84-3.12-5-5.39S119.27,7,116.2,8c.23,3.8-1.36,10.28-3.07,12s-1.48,2.33-3.63,2.5-4.09.11-4.09.11a3.36,3.36,0,0,1-2.33,3.63c-2.78,1.08-2.67.51-3.86-.28s-.23-3.46-.62-4.37,1-2.61,1.65-4.2.85-2.5-1.14-3-1.65,1.36-1.48,4-.79,3-2.67,2.78a6.76,6.76,0,0,0-2.55,0,42.81,42.81,0,0,1-5.34,6.36c-2.5,2.21-.45,8.06-1.42,8.63s-1.36,1.08-2.5,2.78-.51,2.38-4.31,2.44-4.94,3-6.76,3.41A9.73,9.73,0,0,1,66,44.43c-2.9-.91-3.18-1.14-3.35-3.75a10.65,10.65,0,0,1,1-4.88,14.41,14.41,0,0,1-3.29.45c-2.78.23-2.38-.91-2.5-3.69s-1.31-2.33-2.61-3.35-2.44-.28-6.81.4S46.43,30,42.63,29s-4.14.85-7,2.55-1.08,2.78-1,4,2,3,2.84,4.71.57,4.43.11,7.21.34,2.67.11,4.54S35,53.4,31.84,54.65s-3,2.72-3.92,7.15.79,4.66.85,7.21S27,71.68,24.69,72.13s-1.76-1.25-3.92-1.76-1.19,1.82-1.7,3.29-3.18.62-4.66,1.42S12,82.92,11.69,84.34s2,3.07,2.61,3.52,3.18,1.93,3.58,2.16,1.53-.62,2.72-1c-.51-2,.57-.11,1.76-.74-.79-1.87,2.38-2.1,2.38-2.1V84.34a25.31,25.31,0,0,1,3.58.28c0,.17.17,4.26.4,6.36,1.19,0,1.08,0,.79,1.53s-1.59,3.63-3.18,8.4.74,3.75.74,3.75,6.81-5.9,8.06-7.1,1.93-.68,1.93,1.53-.17,3.24-1.31,3.46-1.36.4-1.42,3.12c.91-.62,5.28,1.36,5.28,1.36s1.76-.34,1.93-1.42S45,105,45,105s.28,2.16.62,2.1,1.19,1,1.93,1.36.85.34,1.65.06,2,.91,2,.91,1.65,1,1.93,1.19.28,2.33.57,2.21a10.37,10.37,0,0,1,2.33.68s-.45,3.29-.45,3.52,2.16,0,2.16,0,7.38-11.35,8-11.47,2.1.17,3.8,1.59c-.11-2.55,2.1-2.38,2.1-2.38a16,16,0,0,0,0-2c-.06-1.59,2.33-1.65,4-1-.4-2.9,2.38-2.1,2.38-2.1-.34-2,1.25-2.1,1.25-2.1l16.07,7.15,7.78,2S110,104,111,104.15s1.08,4.77,1.08,4.77,1.53,2.44,1.42,3.46.62,5,0,9.76c.4-.34,5.34-2.72,7.15-3s1.7.34,1.93.57.17.91.06,2.67-.17,1.93.85,3a1.9,1.9,0,0,1-.11,2.9c-.68.28-1,1.82-1.36,2.38s-1,1.42-1.42,2.16-.06,1.7-.62,2.78a4.78,4.78,0,0,1-1.59,2.16c-.91.68-4.88.28-4.88.28l.4,7.78s8.57.91,8.57.34.34-5.05.34-5.05a4.55,4.55,0,0,1-1.7-2.21,6.32,6.32,0,0,1-.23-3.46c.17-.62,1.87-.85,1.87-.85V131.8l8.34-1.25s4.54-.51,5,0a1.58,1.58,0,0,1,.17,2.21c-.74.79.85,1.48.85,1.48a19.68,19.68,0,0,1,1.53,2.27A17.75,17.75,0,0,1,138,140a1.13,1.13,0,0,1-1,.62,5,5,0,0,0-1.76.4,28.52,28.52,0,0,1-2.84.85,19.7,19.7,0,0,1,0,2.61c-.11.45,3.52-.11,4.88,0s1.19-.06,1.19,1.82-1.53,5.56-1.53,5.56a10.1,10.1,0,0,1,3.35-2.33c2.1-2.33,3.18-1.14,3.18-1.14v13.51s7.1-.57,8.34-.23,2.67,4.66,2.67,4.66l4.94-.51.45,4a23.15,23.15,0,0,1,3.24.62,11.25,11.25,0,0,0,1.42,2,7.11,7.11,0,0,0,3.24,2c2,.79.51,1,2.27,3.12s1,1.93-.11,4.6a30.53,30.53,0,0,0-1.59,4c0,.23.57,4.83.57,4.83l5.39.28s.4,1.82,1.25,1.82h5.79v1.65a3.81,3.81,0,0,1,2,.45c1.19.57.34,3.18.34,3.18a21.27,21.27,0,0,0-2.16,3.41c-.17.74-2,.68-3.63.51a22.24,22.24,0,0,0-4.14.17c-.91.06-.45,1.36-.45,1.36a8.88,8.88,0,0,0-1.87,2.9c-.23,1.14-.11,2.9-1,3.86s-.91.23-1.82,1.19-1.14,2.27-1,7c.17,5-1.93,5.34-1.93,5.34s-3.41,1.59-4.48,1.36a6,6,0,0,0-3.18.62,15.4,15.4,0,0,1-4,.79,3.11,3.11,0,0,0-2.21,1.19,16.05,16.05,0,0,1-2.44,2.67c-.57.28-1.82-.11-3.29-.23s.57.57,1.65,2.27.51,5.45.51,5.45,1,1.65,1.59,1.76.4-.11,2.1-.4.68-.4,1.42-1.25,2.55-.79,5.05-.45c1.86.3,1.45.43,1.8,4.86,0-1.54.65-2,1.2-2.25.74-.28,3.29,1.65,3.75.74s1.19-2.5,3.24-2.16,1.76,3.24,1.76,3.24,1,5.62,1.31,6.76,3.41,2.16,3.8,2.16,2.33-.11,3.8-.11,3.18,1.14,4.54,1.82,2.78.34,3.63.45.68.68.62,2.38a4.32,4.32,0,0,1-1.42,3.24c-.57.45-1.7.17-1.7,1.82s.74,4.37.45,6.24a17.66,17.66,0,0,1-1.59,4.37s7-.4,8.63,0,1.42,2.21,2.33,3.58-.28,3.41.51,4.66,5.73,1.31,6.87,1.31a22.35,22.35,0,0,1,7.1,1.19c2.27,1,1.7,3.46,2.55,3.8s4.43,2.55,4.43,2.55a9.13,9.13,0,0,0,4.26.11,3.28,3.28,0,0,1,3.69,1.14c.4.74,3.86,1.82,4.71,2s.79.51,1,1.53-.51,1.93-1.7,2.78c.79,2-2,3.24-2,3.24-.68,2.38-1.36,1.14-2.5,1.48s-1.48-2.27-2.16-1.7a6.72,6.72,0,0,1-2.38,1.31c-.51.06-.45,2.55-.45,2.55h2c1.59,0,1.7,1,2.55,2a19.08,19.08,0,0,0,2.33,2.84c1.48,1.36.17,1.31,2.44.74s4.26-2.33,5.22-2,1,4.54,1.19,6.93c.79-1.42,4.37-1.76,4.31-2.16s1.14-1.19,1.59-1.53.45-1.48.17-2.21-2.21-.45-2.5-.91a4.93,4.93,0,0,1,0-3.41c.51-1.08.4-2,.62-3.69s1.19-1.48,2.5-2a4.57,4.57,0,0,1,3.46,0c1.31.34,1.19,3.52,1.19,3.52a8,8,0,0,1,2.47,0c1.11.23.48.85.48,2.9s2.27,3.46,3.86,3.92,2.44.68,3.12,1.87.57,1.31-.17,2.9-2.27,2-3.58,2.5-1,.79-2.27,1.7-1.25,2.1-1.42,3.41.45,3,.57,4.54a26.46,26.46,0,0,1,0,7.55c2.55.23,1.7,3.86,1.76,5.05s1.25,4,2.72,4.83,1.14.85,2.5.4,1.76-1,3.46-2.44,1.42.06,3.58,0,1.65-1.08,1.87-1.87a3.71,3.71,0,0,1,1.19-2.33c.85-.62,3.35-1.7,4.31-3.52a7.49,7.49,0,0,1,4.6-3.24c1.14-.17,2.78,1.59,2.78,1.59s2.78-1.19,2.72-1.82.06-1.48,2-2,2.61-1.08,2.1-2.55.4-1.93,1.08-3.35.06-1-1-2.16-.11-4.14-.11-4.14-1.36-1.59-2-2.61-.28-2,.85-2.78a5.08,5.08,0,0,0,1.53-2.72,8.65,8.65,0,0,1,.68-2.38c.62-1.53,2.78-1.59,5.51-3.12s3.63-.79,3.63-1S294,289.9,293.83,289a4.94,4.94,0,0,1,.91-3c.57-1,4.26.17,4.2,0a35.31,35.31,0,0,1-1-5.39c0-1.42,1.36-4.54,1.25-7.66s-1.65-2.84-1.65-3.63.85-2.84.91-3.8.28-3.07.28-5.05.79-2.38,1.65-3.29,1.82-.51,3.69.17,4.26,2.38,5.45,2.44,2-.62,3.35-.91,8.06.91,10.39.91,1.76-.62,1.59-1-.12-3.12-.34-4.2.11-1.48,1.14-2.33,3,.45,4,.28,2.33-1.65,3.8-1.19,4.31-2.72,4.77-3.46S337.77,243.91,336.58,243.46Z"/><path class="cls-2" d="M254.56,344.39a3,3,0,0,1-1.52-.53l-.58-.32c-2.11-1.14-3.4-4.56-3.47-6a10,10,0,0,1,0-1.06c.15-2.16-.07-2.61-.51-2.64l-1.49-.13.21-1.48a22.48,22.48,0,0,0,.08-6.27c0-.35-.07-.67-.09-1a14.78,14.78,0,0,0-.27-1.71,9.82,9.82,0,0,1-.28-3.12l0-.41a5,5,0,0,1,1.94-4,4.49,4.49,0,0,0,.76-.69,4,4,0,0,1,1.88-1.21l.21-.07c1.31-.45,2.13-.79,2.54-1.68l.1-.21a7,7,0,0,0,.39-.92s-.06-.09-.27-.46c-.36-.63-.64-.75-2.21-1.19-2.43-.69-5-2.63-5-5.3a12.4,12.4,0,0,1,.1-1.57,7.16,7.16,0,0,0-1.41.07l-1.71.28.06-1.73a5.6,5.6,0,0,0-.3-2.14,3,3,0,0,0-2.37,0c-.35.15-.68.26-1,.36a3.2,3.2,0,0,0-.59.22,1.43,1.43,0,0,0-.08.35c-.07.49-.1.92-.13,1.3a7.55,7.55,0,0,1-.61,2.8,3.61,3.61,0,0,0-.13,1.7H239c.8.11,2.14.28,2.6,1.49.39,1,.56,3-.64,3.86l-.24.18c-.18.13-.59.43-.82.63-.22.88-1.28,1.19-2.09,1.42-.52.15-2.12.62-2.36,1l-2.3,3.68-.34-4.27c0-.39-.05-.84-.08-1.31a34.51,34.51,0,0,0-.4-4.15c-.29.13-.63.31-.91.46a14.72,14.72,0,0,1-3.27,1.38c-.42.11-.71.19-.92.25a1.77,1.77,0,0,1-2.29-.7,2.77,2.77,0,0,0-.54-.63,10.34,10.34,0,0,1-1.82-2.13A7,7,0,0,0,222,306a8.28,8.28,0,0,1-.68-.91c-.4-.6-.4-.6-.82-.6h-3.43l0-1.38c0-1.88.13-3.82,1.72-4a7,7,0,0,0,1.63-1,1.67,1.67,0,0,1,1.39-.38,2.44,2.44,0,0,1,1.59,1.42l.17.29a3.6,3.6,0,0,1,.91,0c0-.1.09-.24.14-.43l.19-.65.62-.27s1.5-.7,1.22-1.42l-.4-1,.9-.64c.37-.26,1.21-.92,1.13-1.39l-.05-.33,0-.11c-1.51-.41-4.77-1.42-5.46-2.7a2,2,0,0,0-2-.46,10.23,10.23,0,0,1-5.07-.09l-.2-.05-.18-.11c-1.71-1.06-3.75-2.26-4.21-2.44a2.69,2.69,0,0,1-1.43-2.07c-.24-.88-.42-1.43-1.15-1.74a20.79,20.79,0,0,0-6.54-1.08c-6.82,0-7.72-1.43-8.06-2a4.66,4.66,0,0,1-.44-3.11,2.92,2.92,0,0,0-.06-1.52,7.46,7.46,0,0,1-.84-1.87c-.31-.94-.4-1.05-.64-1.11a55.72,55.72,0,0,0-8.22,0l-2.49.14,1.15-2.21a15.93,15.93,0,0,0,1.44-3.93,14,14,0,0,0-.22-3.5,19.27,19.27,0,0,1-.25-2.53,2.74,2.74,0,0,1,2.08-2.89l.21-.08a3,3,0,0,0,.82-2.13l0-.68v-.26h-.13a6.81,6.81,0,0,1-3.39-.58l-.94-.5a7.82,7.82,0,0,0-3-1.17c-1,0-2.1,0-2.88.08l-.92,0c-.51,0-4.63-1-5.18-3.23-.29-1.17-1.28-6.62-1.33-6.85l0-.2,0-.2s.08-1.59-.58-1.7c-.82-.14-1.15.21-1.7,1.32-.89,1.79-2.91.92-4,.45l-.7-.29a2,2,0,0,0-.15.82l-2.83.08c-.07-.83-.11-1.51-.14-2.07s-.07-1.12-.11-1.44l-.37-.07c-2.92-.4-3.6-.15-3.75,0-.21,1.38-1.44,1.58-2.26,1.72a7.83,7.83,0,0,0-1.25.29,2.36,2.36,0,0,1-1.36.1c-.29-.06-1.17-.23-2.52-2.4l-.27-.44.08-.52c.2-1.34.24-3.62-.31-4.48a6,6,0,0,0-1.38-1.4c-.46-.37-1.31-1-.9-2.1a1.75,1.75,0,0,1,1.94-.94c.56,0,1.1.12,1.58.2a10.21,10.21,0,0,0,1,.13,25.37,25.37,0,0,0,1.66-1.93l.25-.32a4.46,4.46,0,0,1,3.42-1.71,15.1,15.1,0,0,0,3.37-.71l.22-.08a6.7,6.7,0,0,1,3.75-.6,15.52,15.52,0,0,0,3.59-1.26l.25-.09c.16-.12,1-.86.87-3.91-.17-4.75,0-6.57,1.35-8a3,3,0,0,1,1.6-1,.93.93,0,0,0,.22-.19,4.18,4.18,0,0,0,.51-2c0-.42.09-.81.16-1.16a8,8,0,0,1,1.74-3,2.35,2.35,0,0,1,.34-1.5,2,2,0,0,1,1.54-.86l.75-.07A17.14,17.14,0,0,1,178,201a9.9,9.9,0,0,0,2.29.06,21.89,21.89,0,0,1,2.06-3.21,4.19,4.19,0,0,0,.16-1.34,2.38,2.38,0,0,0-1-.24l-1.62.23,0-1.87h-4.37a2.62,2.62,0,0,1-2.3-1.87l-5.61-.3-.15-1.18c-.58-4.69-.58-4.9-.58-5,0-.45.08-.77,1.7-4.58.27-.64.52-1.13.73-1.52.12-.23.26-.51.31-.65a5.6,5.6,0,0,0-.71-1,5.31,5.31,0,0,1-1.3-2.54l-.4-.17a8.59,8.59,0,0,1-3.77-2.35,13.46,13.46,0,0,1-1.33-1.81c-.57-.12-1.61-.29-2.48-.41l-1.08-.16-.42-3.72-4.68.48-.36-1.08a13,13,0,0,0-1.8-3.75,64.22,64.22,0,0,0-7.76.29l-1.53.12V149.84a5.26,5.26,0,0,0-.71.67l-.28.31-.4.11a8.44,8.44,0,0,0-2.7,1.95l-5.15,5.29,2.83-6.82a18.86,18.86,0,0,0,1.42-5v-.41c-.47,0-1.32,0-2.06.09-2.15.16-3,.22-3.66-.52l-.47-.55.16-.77c0-.21,0-1.34,0-2.19l-.06-1.17,1.13-.28a25.67,25.67,0,0,0,2.63-.78,5.9,5.9,0,0,1,2-.48l.16,0c.14-.52.32-1.8.39-2.45-.22-.33-.63-.91-1-1.44a2.85,2.85,0,0,1-1.49-1.76,2,2,0,0,1,.53-1.8s0,0,0,0a28.22,28.22,0,0,0-4,.2L124.15,133v2.86l-1.23.16a4.59,4.59,0,0,0-.76.18,5.26,5.26,0,0,0,.26,2.27,3.2,3.2,0,0,0,1.11,1.47l.73.45-.07.86c-.17,2.18-.34,4.62-.34,4.94v.63l-.5.47c-.48.43-1,.88-9.64,0l-1.2-.13L112,136.52l1.64.16a13.19,13.19,0,0,0,4-.06,2.66,2.66,0,0,0,.89-1.21l.22-.43a2.36,2.36,0,0,0,.2-1,3.73,3.73,0,0,1,.47-1.85c.24-.39.53-.81.8-1.21s.46-.67.61-.93a4.33,4.33,0,0,0,.23-.54,4.18,4.18,0,0,1,1.61-2.33.68.68,0,0,0-.18-.7c-1.34-1.42-1.37-2.06-1.25-3.87l0-.46c0-.6.08-1.18.08-1.52l-.49,0a31.31,31.31,0,0,0-6.47,2.68l-2.81,2.41.55-3.72a36.52,36.52,0,0,0,.06-7.77,12.11,12.11,0,0,1-.07-2,9.7,9.7,0,0,0-1.21-2.55l-.21-.33V109a18.4,18.4,0,0,0-.35-3.27c-1.33.35-4.21,1.39-6.62,2.34l-.43.17L94.79,106,79.42,99.17a2,2,0,0,0,0,.26l.38,2.22L77.66,101a1.35,1.35,0,0,0-.64,0s0,.17.05.56L77.4,104l-2.26-.91a3.73,3.73,0,0,0-2.08-.25A15.81,15.81,0,0,1,73,105l-.17,1.34-1.34-.1c-.06,0-.31,0-.42.14a1.15,1.15,0,0,0-.15.77l.14,3.21-2.47-2.06A5.49,5.49,0,0,0,66.3,107c-1.1,1.35-4.45,6.31-7.38,10.81l-.37.57-.67.07c-2.4.25-2.83,0-3.24-.33l-.47-.42,0-.66c0-.09,0-.27.31-2.58l-.57-.18-.31.13-.65-.35c-.71-.42-.81-1.15-.93-2.08,0-.13,0-.3-.06-.45l-1.45-.88-.26-.2a3.31,3.31,0,0,0-.77-.54,2.7,2.7,0,0,1-2.62-.21,7.36,7.36,0,0,1-1.26-.94l-.23-.2-.13,0-.56-.38c-.24-.18-.62-.46-.92-1.89a5.85,5.85,0,0,0-.93,0,3.88,3.88,0,0,1-2.92,2.07l-.44.09-.41-.19A16.32,16.32,0,0,0,35,107l-2.09,1.44.06-2.76c.05-2.55.2-4,2.56-4.48a6.89,6.89,0,0,0,.17-2.07V99c-1.94,1.76-7.39,6.49-7.65,6.71l-.16.14-.2.09a2.33,2.33,0,0,1-2.5-.34c-1.27-1.16-.75-3.36-.16-5.15.85-2.55,1.63-4.37,2.2-5.71a17.1,17.1,0,0,0,.9-2.36h-.64l-.14-1.26c-.16-1.46-.29-3.83-.36-5.27l-.79,0v1.66l-1.32.09a3.76,3.76,0,0,0-1.12.27l.43,1L23,89.51a2.53,2.53,0,0,1-.76.26l0,.15-1.25.42a9.59,9.59,0,0,0-1.19.53c-.88.44-1.79.89-2.69.38l-.09-.05A34.31,34.31,0,0,1,13.42,89l-.19-.14c-1-.79-3.44-2.63-2.92-4.81.07-.27.15-.77.26-1.39.92-5.19,1.67-8,3.17-8.78a6.58,6.58,0,0,1,2.78-.59,6.55,6.55,0,0,0,1.23-.15,5.53,5.53,0,0,0,.08-1,3.25,3.25,0,0,1,1-2.73A2.61,2.61,0,0,1,21.1,69a4.58,4.58,0,0,1,2.46,1.49c.35.37.35.36.85.26l.59-.11c2.32-.44,2.38-.61,2.36-1.59a4.32,4.32,0,0,0-.44-1.72,8.39,8.39,0,0,1-.38-5.82c.14-.65.26-1.24.36-1.78.62-3.15,1-5,4.42-6.39a19.9,19.9,0,0,1,3.3-.93,5.86,5.86,0,0,0,1.66-.48,3.26,3.26,0,0,0-.08-1.3,7.74,7.74,0,0,1,0-3.35c.33-2,.69-4.9,0-6.38a12.55,12.55,0,0,0-1.29-2,6.64,6.64,0,0,1-1.68-3.29,3.14,3.14,0,0,0-.17-.44c-.63-1.45-.9-3.15,1.88-4.82a15.29,15.29,0,0,0,1.74-1.25c1.48-1.18,2.87-2.29,6.3-1.47a13.08,13.08,0,0,1,2.51.81l.2.08a21.11,21.11,0,0,0,2.15-.29l.33-.05c1.21-.19,2.17-.38,3-.54,2.18-.44,3.5-.71,5,.43a4,4,0,0,0,.77.45c1.19.58,2.27,1.31,2.38,4,0,.37,0,.72,0,1a10.58,10.58,0,0,0,.07,1.3,4.06,4.06,0,0,0,.87,0,19.74,19.74,0,0,0,2.9-.37l3.55-1.58-1.77,3.54A9.3,9.3,0,0,0,64,40.59c.12,1.78.12,1.78,2.36,2.49a8.31,8.31,0,0,0,5.36.32,4.44,4.44,0,0,0,1.32-.94,8.36,8.36,0,0,1,5.75-2.51c2.17,0,2.22-.13,2.55-.75A10.4,10.4,0,0,1,82,38.14a9.39,9.39,0,0,1,2.54-3c0-.36,0-.94-.07-1.4-.16-2.32-.39-5.5,1.68-7.33a41.64,41.64,0,0,0,5.11-6.1l.27-.39.45-.15a7.79,7.79,0,0,1,3.17-.06,2.65,2.65,0,0,0,1,0,4.5,4.5,0,0,0,.06-1.29c0-.34,0-.66-.07-1-.14-1.7-.26-3.17.77-4.08A2.73,2.73,0,0,1,99.41,13a3.51,3.51,0,0,1,2.43,1.61,4,4,0,0,1-.27,3.3,16,16,0,0,1-.91,1.82,8.7,8.7,0,0,0-.7,1.44,5.25,5.25,0,0,1,.11,2.11,5.76,5.76,0,0,0,0,1.54c.2.14.37.27.53.39a3.07,3.07,0,0,0,.3.21,6.17,6.17,0,0,0,1.67-.51A1.92,1.92,0,0,0,104,22.8l-.23-1.66,1.67,0s1.89.05,3.93-.11c1-.08,1-.09,1.61-.83.28-.33.62-.75,1.13-1.25,1.26-1.26,2.87-7.21,2.65-10.89L114.72,7l1.06-.33c2-.62,8.62-2.38,11.73.89A5.88,5.88,0,0,1,129,9.9c.21.6.39,1.12,3.22,2.77a8.85,8.85,0,0,1,3.13,2.49l1.11,0h.3c4.08.11,9.68-.28,9.74-.28l1.54-.11,0,1.54a25.32,25.32,0,0,0,.12,3l.6.07c1.77.2,3.08.38,3.86,1,1.4,1.12,1.11,3.09.72,4.07S152,25.56,151,25.7l-.6.09,0,.1a2.85,2.85,0,0,1-2.09,2.42,2.38,2.38,0,0,1-2-.26,2.76,2.76,0,0,1-1.08-1.94c-.07.24-.12.49-.17.75a4.63,4.63,0,0,1-1.57,3,3.85,3.85,0,0,1-3.81.41,8.63,8.63,0,0,0-1.32-.3,1.74,1.74,0,0,0-1.49.25,4.75,4.75,0,0,1-.48.29,11.68,11.68,0,0,1-1.13.44,16.38,16.38,0,0,0-3.3,1.46.69.69,0,0,0-.17.45,1.57,1.57,0,0,0,.14.85,16.64,16.64,0,0,0,2,.64l1.35.4a22.37,22.37,0,0,1,2.16.76c.57.23.57.23.77.18A16.13,16.13,0,0,0,139.81,34a36.46,36.46,0,0,1,2.7-2.78,4.55,4.55,0,0,1,6.45.18l.38.39.32,7.19H147v4.15h2l-.21,6.67.19-.18c5.8-5.39,9.19-7.6,11.35-7.39,2.53.25,2.83.18,5.47-1.25.94-.51,1.93-1,2.84-.44a2,2,0,0,1,.89,1.85,2,2,0,0,0,0,.43c2.81,1.58,2.22,6,2.19,6.14a6.11,6.11,0,0,1-.91,2.1,4.81,4.81,0,0,0-.28.5,5.94,5.94,0,0,1-.63,1.44c2.72-.06,3.82.76,4.1,1l.44.41V55c.14,6.35.42,16.31.64,19.42l.55,0,2.61.25c-.1-1.37,1.05-2.24,2.27-3.16.4-.3.85-.64,1.3-1a92,92,0,0,1,12.22-7.86c2-1,11.83-4.62,16.38-6.25,2.26-.81,5.2-2.09,8-3.32S223.85,50.8,226,50c4.08-1.5,14.83-9.22,14.93-9.3l.13-.08c5.81-3.29,12.27-7.19,13-8,.92-1.33,6.46-3.68,10.95-5.4l.18-.06,10-2.41V28.1l1.62.15a1.9,1.9,0,0,1,1.12.37,3.5,3.5,0,0,1,1.17,2.69c.2,2.28-.64,3-2.17,3.55l-.54.2c-1.42.56-5.16,1.46-5.58,1.56l-.42.1-.4-.15a44.18,44.18,0,0,0-4.65-1.37,1,1,0,0,0-.83.06,1.33,1.33,0,0,0-.44.63v9.8h2.21v3.46h4.48v1.59h1.67v2.55h2.13v1.65h2.25l.28,1.93h1.67V53.49l1.88-.21-.25-2h4.95l.58-2.15,12.25.57v1.35a3.5,3.5,0,0,0,.59,2.17,7.14,7.14,0,0,1,1.51,1.16,10.12,10.12,0,0,0,2.29,1.68,3.93,3.93,0,0,0,3,.6,7,7,0,0,1,1.08-.1c.43,0,.74-.2,1.58-.8.26-.19.55-.39.87-.61a5.86,5.86,0,0,0,1.15-2.35,20.14,20.14,0,0,1,1.28-3.06l.11-.19c.85-1.56,1.47-2.69,3.12-2a1.66,1.66,0,0,0,.45.14c2.27.36,2.17,2.78,2.14,3.69a5.28,5.28,0,0,0,0,.63,5.73,5.73,0,0,1-1.65,4.78,3.8,3.8,0,0,0-.21,2.1,4,4,0,0,0,.37.75,9.53,9.53,0,0,1,1,2.37,7.08,7.08,0,0,1,.28,2,3.29,3.29,0,0,0,.19,1.18l.28-.23c1.48-1.32,3-2.22,6.63-.38l.13.08a3.17,3.17,0,0,0,2.29.65,1.8,1.8,0,0,0,1-.83l.4-.76.87,0h7.28l-.46,1.77c-1.1,4.21-1.58,4.81-1.74,5a4.24,4.24,0,0,0-.52,1.22c0,.57-.37,1-1,1.74-.24.28-.71.82-.91,1.11v.33l-.44.44c-.5.49-.94.91-20.47.42v5.29h-1.42c-3.47,0-8.71,0-10.9,0l0,.13.42,2-3-.38,0,1.93h-1.87l-.68,2.39-1.34-.34a4.86,4.86,0,0,0-1-.13A12.22,12.22,0,0,1,287.52,88a6.2,6.2,0,0,1-3.14-.1l-.52-.11c-.55-.11-1-.23-1.46-.35a11.21,11.21,0,0,0-1.75-.36,3.51,3.51,0,0,0,.06.72l0,.29c0,1.77,0,6-.11,6.73,0,.14,0,.28,0,.41a3.71,3.71,0,0,1-.85,2.25,2.6,2.6,0,0,1-2.6.95l-.52,0a3.55,3.55,0,0,1-.27.59,3,3,0,0,1-1.87,1.58,9.5,9.5,0,0,1-.1,2.62,22.44,22.44,0,0,1-1.24,3.83h0c.33.06,3.24.67,3.72,2.93a4.83,4.83,0,0,1,.08,1.66,9.08,9.08,0,0,0,.22,2.81c.36,2,2.27,3,3.67,3.75.43.23.79.42,1.06.6a6.69,6.69,0,0,0,1.54.7,4.71,4.71,0,0,1,1.7.88c1.35,1.24.52,5.62.51,5.66l0,.1a12.71,12.71,0,0,1-.58,1.77,2.36,2.36,0,0,1-1.06,1.22,3.58,3.58,0,0,0-.7.55l-.53.49a1.9,1.9,0,0,1,1.73,2c-.08,1.48-2.23,4.52-3.11,5.54a10,10,0,0,0-1.57,3.94c0,.15.12.45,1.08,1.33,1.32,1.22,1.11,4,.39,7.83,0,.19-.06.33-.08.42a10.9,10.9,0,0,0,.12,3.68,13.59,13.59,0,0,0,3.48.44c.65,0,1.33.07,2,.13,1.24.1,2.31.26,2.85,1.13a2.12,2.12,0,0,1,0,2,1.93,1.93,0,0,0-.21.79c0,.89.1,1.69.18,2.45s.14,1.33.16,2a6.39,6.39,0,0,0,2.56,2.56c.71.21,8.08,1.88,12.85,3,6.68,1.78,7.06,2.21,7.34,2.52a2.05,2.05,0,0,1-.12,2.74c-.15.21-.34.49-.55.86a1.34,1.34,0,0,0,0,.93c2.56.06,7.64.21,8.68.44,1.9.42,2.16,1.37,2.34,2.76l0,.23c.05.4.1.81.14,1.2a12.61,12.61,0,0,0,.27,1.83,16.71,16.71,0,0,0,4.19,2,37.49,37.49,0,0,0,3.7,1.1l1.51.36-.5,1.47c-2.62,7.78-3.17,7.72-4.27,7.6a2.79,2.79,0,0,1-1.42-.67,5.15,5.15,0,0,0-1.14-.69,3.71,3.71,0,0,0-.95-.29c-.14.64-.34,1.69-.49,2.43l-.08.44c.48.34,1.21.83,1.7,1.16l.34.22c1,.68,2.22,1.45,2.1,3.55a4.31,4.31,0,0,1-1.87,3.46l-.22.19a4.78,4.78,0,0,0-1.11,1.54,8.33,8.33,0,0,1-.09,1.74,17,17,0,0,0-.11,4.13l.37,1.89-2.81-.31c-2.46-.29-7-.82-8.71.58a1.77,1.77,0,0,0-.62,1.29c.12,1.7.31,3.61.42,4.6a1.52,1.52,0,0,1,.63.55,2,2,0,0,1-.09,2.07l-.07.15a3.24,3.24,0,0,1,1.07,1.59l.17,0a2.93,2.93,0,0,1,2,.83,2.78,2.78,0,0,1,1.42.56c.91.65,1.23.57,1.44.52l.08,0a2.33,2.33,0,0,1,2.89.38A2.8,2.8,0,0,1,324,229l.14.11c.52.38,1.07.82,1.55,1.21l.81.64.2,0a6.41,6.41,0,0,1,3.75.43l.1,0c1.54.77,3.45,1.72,2.06,5.11-.84,2-.4,2.63.22,3.14a1.93,1.93,0,0,0,.42.29,2.16,2.16,0,0,1,1.76,1,3.64,3.64,0,0,0,1.92,1.16l.16.06a4.58,4.58,0,0,1,2.24,2.93c.25.75.77,2.6.11,3.68,0,.05-3.53,5-6.39,4.08-.35-.11-.92.21-1.47.53a5.14,5.14,0,0,1-1.68.71,4.81,4.81,0,0,1-2.14-.3,4.14,4.14,0,0,0-1.24-.25,5.77,5.77,0,0,0-.62.62h0a1.93,1.93,0,0,0,0,.28,19.3,19.3,0,0,1,.23,2.72c0,.44,0,1,.07,1.28a1.8,1.8,0,0,1,0,1.81c-.55.93-1.75,1.06-3,1.06s-3-.23-5-.48a38.14,38.14,0,0,0-5.09-.46,7.36,7.36,0,0,0-1.22.4,5.89,5.89,0,0,1-2.48.54A9.51,9.51,0,0,1,306,259.9a20.33,20.33,0,0,0-2.36-1.14l-.2-.07a6.78,6.78,0,0,0-1.89-.54h0l-.09.08-.45.45a2,2,0,0,0-.82,1.87c0,1.51-.12,3.05-.21,4.18,0,.38-.06.71-.07,1a11,11,0,0,1-.53,2.28c-.1.33-.23.78-.31,1.1a4.91,4.91,0,0,1,1.58,3.92,20.34,20.34,0,0,1-.84,5.75,11.68,11.68,0,0,0-.4,2,34.51,34.51,0,0,0,.91,5l.21.74L300,287c-.57.64-1.26.5-2,.35a9.94,9.94,0,0,0-2.2-.3c-.55,1-.63,1.49-.59,1.68.21,1,.54,11.37.54,11.46v.66l-.51.44a1.52,1.52,0,0,1-1.29.31,4.75,4.75,0,0,0-2.55.79,22.21,22.21,0,0,1-3,1.35c-1.09.42-1.77.7-1.92,1.07a7.91,7.91,0,0,0-.58,2l0,.17a6.36,6.36,0,0,1-2.11,3.6c-.71.5-.59.68-.48.83.63.94,1.93,2.46,1.94,2.48l.52.6-.25.76a4.42,4.42,0,0,0-.18,2.75,3.54,3.54,0,0,0,.64.55c1.32.94,1.2,1.95.61,3.17a10,10,0,0,1-.71,1.21c-.44.68-.44.69-.31,1.06a3,3,0,0,1,0,2.48,4.49,4.49,0,0,1-3,1.9,2.24,2.24,0,0,0-1,.46s0,0,0,.09c.08.86-.3,1.84-3.58,3.25l-.91.39-.68-.73a4.45,4.45,0,0,0-1.6-1.15,6.23,6.23,0,0,0-3.49,2.5,10,10,0,0,1-4,3.54c-.3.18-.56.32-.73.45s-.39.51-.56,1.18l-.11.4a1.54,1.54,0,0,0,0,.26c-.09,1.1-.51,2.57-3.17,2.64a4.74,4.74,0,0,1-2.41-.55l-.29.23-1,.84a7.72,7.72,0,0,1-2.95,1.86l-.16.05A4.38,4.38,0,0,1,254.56,344.39Zm-4.36-13c1.94,1.11,1.74,4,1.66,5.24,0,.29,0,.55,0,.73,0,.83,1.06,3.15,2,3.64l.64.36.21.12.36-.12.17-.06a5,5,0,0,0,2-1.31l1-.88c1.42-1.19,2.35-1.1,3.38-.58a1.88,1.88,0,0,0,1.06.25l.42,0h0a4,4,0,0,1,.13-.81l.09-.33a4.45,4.45,0,0,1,1.63-2.75c.23-.17.57-.37,1-.61a7.94,7.94,0,0,0,2.93-2.43,8.81,8.81,0,0,1,5.64-4,4.51,4.51,0,0,1,3.26,1.3,10.13,10.13,0,0,0,1-.59c.11-1.4,1.11-2.39,3-2.94a5.45,5.45,0,0,0,1.23-.47,1.94,1.94,0,0,0-.07-.26,3.6,3.6,0,0,1,.62-3.55,7.89,7.89,0,0,0,.47-.78,6,6,0,0,1-.74-.7c-1.2-1.32-.91-3.53-.63-4.75-.48-.58-1.2-1.48-1.66-2.17-.85-1.28-1-3.19,1.22-4.73a3.6,3.6,0,0,0,.94-1.79,10.76,10.76,0,0,1,.77-2.69c.62-1.52,2-2.07,3.52-2.65A19.38,19.38,0,0,0,290,300a9,9,0,0,1,2.87-1.11c-.1-2.81-.33-8.84-.44-9.54a6,6,0,0,1,1.06-3.9c.67-1.21,2.17-1.26,3.59-1.06a22.19,22.19,0,0,1-.53-3.64A11.78,11.78,0,0,1,297,278a18.11,18.11,0,0,0,.76-5c-.05-1.43-.41-1.72-.72-2a2.14,2.14,0,0,1-.93-1.7,8.8,8.8,0,0,1,.5-2.26,11,11,0,0,0,.41-1.63c0-.27,0-.61.08-1,.09-1.08.21-2.55.21-3.95a4.73,4.73,0,0,1,1.67-3.9l.36-.37c1.46-1.56,3.19-.93,5-.26l.2.07a22.1,22.1,0,0,1,2.72,1.3,11.13,11.13,0,0,0,2.31,1.05,2.92,2.92,0,0,0,1.31-.34,9.84,9.84,0,0,1,1.69-.54c.94-.19,2.9,0,6,.42a43.05,43.05,0,0,0,4.76.46c0-.3,0-.69-.06-1.2a19.64,19.64,0,0,0-.17-2.26c-.39-1.86.46-2.75,1.62-3.71s2.75-.55,3.78-.25a5.36,5.36,0,0,0,.9.22h0a5.81,5.81,0,0,0,.71-.37,4.66,4.66,0,0,1,3.63-.8c.71-.11,2.55-1.87,3.13-2.7a5.06,5.06,0,0,0-.92-2.63l-.1,0a6.29,6.29,0,0,1-3.08-2,3.41,3.41,0,0,1-1.82-.91c-2.44-2-1.75-4.62-1-6.4a2.41,2.41,0,0,0,.27-1c-.07,0-.59-.31-1-.5l-.1,0a3.86,3.86,0,0,0-2.15-.15,2.66,2.66,0,0,1-1.72-.17,13.47,13.47,0,0,1-1.4-1c-.46-.37-1-.78-1.47-1.14a2.72,2.72,0,0,1-1.17-1.57l-.16-.13,0,0a2.77,2.77,0,0,1-.53.19,4.35,4.35,0,0,1-3.74-.93,1.5,1.5,0,0,1-1.23,0,1.56,1.56,0,0,1-.78-.86h-.08a3.7,3.7,0,0,1-1.39-.32,2.43,2.43,0,0,1-1.2-1.54c-.11-.32-.12-.33-.26-.41a2.11,2.11,0,0,1-.92-2.79,1.61,1.61,0,0,1-.46-1.42c-.09-.82-.34-3.15-.48-5.22v-.18a4.64,4.64,0,0,1,1.64-3.38c2.4-2,6.8-1.68,10-1.32,0-1.08.12-2.19.22-3.1,0-.37.09-.83.1-1-.31-1.4,1.22-3.33,2-4.06l.23-.2c.8-.71.87-.77.91-1.49,0-.47,0-.47-.82-1l-.33-.22c-2.73-1.82-3.45-2.31-3.06-3.5l.2-1c.26-1.35.49-2.51.63-3a2.2,2.2,0,0,1,1.19-1.43,4.53,4.53,0,0,1,3.53.27,7.67,7.67,0,0,1,1.11.59c.39-.91.91-2.3,1.41-3.7-.75-.21-1.68-.49-2.52-.81-5.25-2-5.67-3.17-5.83-3.63a11.86,11.86,0,0,1-.45-2.61c0-.37-.08-.74-.13-1.12l0-.24,0-.33-.1,0c-.66-.14-5.12-.31-9-.39l-.79,0-.4-.68c-.15-.25-1.4-2.51-.31-4.44l.28-.48c-1.24-.41-3.33-1-5.17-1.5-1.17-.26-11.94-2.69-13-3-1.33-.39-4.53-2.95-4.6-5.19,0-.57-.08-1.17-.15-1.8-.08-.78-.17-1.67-.2-2.68a4.06,4.06,0,0,1,.14-1.16h-.16c-.65-.05-1.3-.09-1.92-.12-2.77-.15-5.17-.28-5.91-2.07a12.69,12.69,0,0,1-.35-5.32c0-.11,0-.28.09-.5.74-3.93.52-5,.41-5.28-1.22-1.14-1.92-2.06-1.92-3.37a12.15,12.15,0,0,1,2.26-5.78,18.69,18.69,0,0,0,2.05-3c-.26,0-.52,0-.79-.08a2.52,2.52,0,0,1-2.4-2,2.21,2.21,0,0,1,1.68-2.27c.35-.13.59-.2.78-.26l.22-.07c.07,0,.4-.36.55-.51a6.34,6.34,0,0,1,1.14-.9,10.48,10.48,0,0,0,.42-1.32l0-.14a16.22,16.22,0,0,0,.1-2.9l-.54-.2a9.17,9.17,0,0,1-2.17-1c-.2-.14-.48-.28-.79-.45-1.58-.84-4.53-2.4-5.13-5.76a11.59,11.59,0,0,1-.25-3.58,2.07,2.07,0,0,0,0-.8,2.43,2.43,0,0,0-1.36-.71h-4l.95-2a29,29,0,0,0,1.89-5.15,7.18,7.18,0,0,0,0-2.06c-.07-.75-.17-2,1-2.54a2.71,2.71,0,0,1,1-.23h.08a1.65,1.65,0,0,0,.16-.24l0-.08a1.53,1.53,0,0,1,.25-1.34c.48-.62,1.13-.62,2-.62.52,0,.91,0,1.23.06l.23,0a1.1,1.1,0,0,0,.18-.65c0-.2,0-.41.08-.64.06-.46.08-3.43.06-6.08a4.1,4.1,0,0,1,.57-3.25,2.25,2.25,0,0,1,1.91-.78,12.64,12.64,0,0,1,2.73.48c.39.1.8.21,1.3.31l.54.11a3.62,3.62,0,0,0,1.92.11,9.34,9.34,0,0,0,2.53-1.07,2.88,2.88,0,0,1,1.83-.45l.55-1.92h1.11l0-2.32,2.66.34a2.2,2.2,0,0,1,.39-.94,1.73,1.73,0,0,1,1.29-.69c.58,0,7.36,0,10.63,0V72.86l1.46,0c8.22.22,17.43.34,19.89.17a14.49,14.49,0,0,1,1.17-1.45l.42-.49a6.67,6.67,0,0,1,1.07-2.38,19.56,19.56,0,0,0,.72-2.18h-2.84a4.47,4.47,0,0,1-2.24,1.5,5.57,5.57,0,0,1-4.54-.94c-2.2-1.09-2.56-.77-3.35-.06a3.32,3.32,0,0,1-3.06,1.08,2.72,2.72,0,0,1-1.85-2,6,6,0,0,1-.35-2.07,4.31,4.31,0,0,0-.18-1.29,6.68,6.68,0,0,0-.74-1.72,6.39,6.39,0,0,1-.61-1.3c-.37-1.19-.3-4,1.16-5.17a3.44,3.44,0,0,0,.62-2,5.72,5.72,0,0,1,0-1.27,7.54,7.54,0,0,0,0-.82l-.14,0-.26.47-.11.2a17.69,17.69,0,0,0-1.1,2.64c-.54,1.52-1,3-2.25,3.76l-.78.55a5.27,5.27,0,0,1-3.24,1.34,4.45,4.45,0,0,0-.66.07,6.62,6.62,0,0,1-4.87-.94,12.84,12.84,0,0,1-2.84-2.08,4.53,4.53,0,0,0-1-.76,4.51,4.51,0,0,1-1.91-3.28L288,52.09l-.55,2h-3.91l.21,1.65-2.21.25V59.7h-7l-.28-1.93h-2.63V56.12h-2.13V53.57h-1.67V52H263.4V48.51h-2.21l0-13.12a4.22,4.22,0,0,1,1.72-2.53,3.81,3.81,0,0,1,3-.44,45.83,45.83,0,0,1,4.59,1.32c1.31-.32,3.87-1,4.8-1.35l.67-.24.28-.1a4.32,4.32,0,0,0,0-.52,4.21,4.21,0,0,0-.07-.52l-3.85-.36V28.35l-6.39,1.54c-4.11,1.59-8.94,3.73-9.64,4.45-.9,1.3-9,6-13.81,8.73-1,.72-11.23,8-15.55,9.62-2,.75-4.59,1.86-7.3,3-2.88,1.25-5.87,2.54-8.21,3.39-4.78,1.71-14.24,5.23-16.1,6.13a90,90,0,0,0-11.62,7.47c-.5.43-1,.8-1.43,1.13-.29.22-.64.48-.9.7a10.16,10.16,0,0,0,1.38.74l7.86,3.63L182,78c-3.34-.36-5.37-.55-6.59-.66a10.05,10.05,0,0,1-2-.26c-1.22-.41-1.29-.43-1.75-21.08a7.54,7.54,0,0,0-2-.14c-2.64.11-4.27.11-4.58-1.34-.13-.6,0-1.45,1.44-2a2.83,2.83,0,0,0,1.31-1.7,4.58,4.58,0,0,1,.57-1.18,5.56,5.56,0,0,0,.54-1.06c.13-.94,0-2.84-.77-3.28a2.75,2.75,0,0,1-1.33-1.64c-2.74,1.47-3.65,1.73-6.8,1.42-.3,0-2.16.15-9.15,6.64-.7.65-.79.74-1.12.84,0,0-.22.07-2.15.54l-1.81.44.24-7.55h-1.94V36.14h2.55l-.13-3.06a1.64,1.64,0,0,0-2.15.25,34.06,34.06,0,0,0-2.49,2.57c-1.28,1.42-2.12,2.36-3.15,2.58a3.6,3.6,0,0,1-2.43-.32,19.61,19.61,0,0,0-1.91-.67l-1.34-.39a18.52,18.52,0,0,1-2.37-.79A3.19,3.19,0,0,1,129,33.65a3.66,3.66,0,0,1,1.26-3.46,16.46,16.46,0,0,1,4.05-1.87c.38-.14.68-.24.83-.31l.19-.12a4.46,4.46,0,0,1,3.4-.7,11.39,11.39,0,0,1,1.74.38c1,.28,1.07.25,1.3.07s.36-.55.53-1.35a7.61,7.61,0,0,1,.89-2.52c.8-1.32,1.5-2.46,2.76-2.32-.36-.39-.68-1.24-.74-3.61-2,.11-5.57.27-8.5.19h-.3c-2.1-.06-2.73-.07-3.31-1.15-.08-.16-.34-.64-2.28-1.75-3.48-2-4-3-4.47-4.28a3.11,3.11,0,0,0-.84-1.36c-1.31-1.38-4.78-1.21-7.81-.42-.07,4.06-1.56,10-3.5,11.92-.42.42-.71.76-1,1.07a4.24,4.24,0,0,1-3.56,1.84c-1.08.08-2.09.12-2.86.13a4.82,4.82,0,0,1-3.16,3.53c-2.46,1-3.39.93-4.73-.11-.12-.1-.26-.2-.43-.31-1.43-1-1.29-2.75-1.2-4.06,0-.2,0-.46,0-.67a4.88,4.88,0,0,1-2.49.2,10.1,10.1,0,0,0-1.58-.08,40.93,40.93,0,0,1-5.2,6.1c-1,.91-.85,3.38-.73,5s.22,3.11-.91,3.78c-.68.4-.93.69-2,2.35a7.74,7.74,0,0,0-.45.79c-.86,1.67-1.71,2.23-5,2.28a5.64,5.64,0,0,0-3.94,1.82,6.19,6.19,0,0,1-2.49,1.55,11.18,11.18,0,0,1-6.9-.36c-3.27-1-4.12-1.65-4.34-5a11.08,11.08,0,0,1,.29-3.21l-1.09.1a3.92,3.92,0,0,1-3-.69c-.91-.82-.93-2-1-3.38,0-.3,0-.62,0-1,0-1.17-.15-1.22-.78-1.53a6.63,6.63,0,0,1-1.29-.76c-.37-.29-.67-.28-2.64.12-.8.16-1.81.36-3.08.56l-.33.05c-2.63.41-2.91.46-3.93,0a10.37,10.37,0,0,0-2-.65c-2.09-.5-2.58-.11-3.88.93a18.14,18.14,0,0,1-2,1.46c-.82.49-.93.77-.93.77a3.5,3.5,0,0,0,.19.49,4,4,0,0,1,.4,1.44,8.31,8.31,0,0,0,1.12,1.73,14.82,14.82,0,0,1,1.59,2.45c1,2.15.68,5.27.23,8A5,5,0,0,0,39,50a5.87,5.87,0,0,1,.12,2.19c-.27,2.21-2.19,2.61-3.88,3a17.28,17.28,0,0,0-2.85.79c-2,.78-2.09,1.32-2.68,4.3-.11.55-.23,1.16-.38,1.83a5.7,5.7,0,0,0,.23,4.14A7,7,0,0,1,30.2,69c.08,3.53-2.66,4.05-4.66,4.43l-.56.11a3.26,3.26,0,0,1-3.46-1.09,1.93,1.93,0,0,0-.82-.61c0,.11,0,.23,0,.32a6.37,6.37,0,0,1-.27,2c-.61,1.76-2.48,1.88-3.72,1.95a5.48,5.48,0,0,0-1.54.22c-.73.86-1.53,5.33-1.79,6.81-.12.7-.22,1.25-.3,1.56,0,.08.2.61,1.88,1.9l.23.18a33.43,33.43,0,0,0,3,1.79l.45-.22.46-.23A1.56,1.56,0,0,1,19.62,87a1.53,1.53,0,0,1,1.42-.3,2.45,2.45,0,0,1,.13-.24A3.62,3.62,0,0,1,23.33,85v-2.1l1.46,0c3.7.12,4.95.16,4.95,1.7,0,.27.12,3,.29,5.09a1.62,1.62,0,0,1,.7.5,2.41,2.41,0,0,1,.25,2.2l-.07.36a15.72,15.72,0,0,1-1.11,3.1c-.58,1.36-1.3,3-2.12,5.49-.16.48-.27.88-.34,1.19,2-1.74,5.92-5.16,6.82-6s2-1.24,2.85-.86c1.48.63,1.48,2.66,1.48,3.42,0,1.84,0,4.36-2.45,4.85l-.17,0c0,.07,0,.15,0,.26a17.71,17.71,0,0,1,3.89,1.3,1.73,1.73,0,0,0,.44-.23c.41-2,3.29-1.95,5-1.71l1.07.15.14,1.07c.05.4.13.84.21,1.15a6.48,6.48,0,0,1,.85.66,5.69,5.69,0,0,0,.76.59l.17.09.27-.1c1.43-.52,2.86.57,3.43,1.08s1.67,1,2,1.23a2.91,2.91,0,0,1,.8,2.08c.43.12,1,.31,1.73.6l1,.41-.15,1.11-.2,1.5c7.06-10.82,7.56-10.91,8.25-11a5.23,5.23,0,0,1,3.19.7,3.1,3.1,0,0,1,.47-.58,3.21,3.21,0,0,1,1.1-.69c0-.22,0-.49,0-.81a2.52,2.52,0,0,1,1.09-2.22,4.47,4.47,0,0,1,3.11-.57,2.7,2.7,0,0,1,.77-1.13,2.92,2.92,0,0,1,1.53-.67,2.82,2.82,0,0,1,.49-1,2.9,2.9,0,0,1,2-1.07l.35,0,16.28,7.25,7.22,1.84c6.85-2.69,7.81-2.53,8.17-2.46.67.12,2,.36,2.24,5.74.67,1.11,1.56,2.85,1.42,4,0,.19,0,.85.08,1.44a45.46,45.46,0,0,1,.15,5.73,24,24,0,0,1,5.34-1.92c1.19-.15,2.49-.13,3.21,1.08.56.64.51,1.44.38,3.39l0,.46c-.08,1.15-.08,1.15.48,1.74a3.56,3.56,0,0,1,.91,3.18,2.77,2.77,0,0,1-1.35,1.93,4.26,4.26,0,0,0-.3.64l7.11-1.06c5.32-.6,5.87,0,6.26.46a3.06,3.06,0,0,1,.65,3.39l.22.09.23.3c1.82,2.42,1.82,2.67,1.82,3.12,0,0-.27,3.37-.84,4.27a2.52,2.52,0,0,1-2.07,1.28l-.24,0a3.12,3.12,0,0,0-1.12.27,18.27,18.27,0,0,1-1.94.63c0,.09,0,.18,0,.27l.92-.06a19.07,19.07,0,0,1,2.61-.08l.28,0c2.08.15,2.23,1.25,2.22,2.67v.54a8.86,8.86,0,0,1-.25,1.87,4.41,4.41,0,0,1,3-1.49h0a2.57,2.57,0,0,1,1.87.77l.37.41v12.53c2.53-.18,6.21-.37,7.3-.07,1.39.38,2.5,2.47,3.26,4.5l5.22-.54.49,4.34c2.44.37,3,.58,3.26,1.33a11,11,0,0,0,1.15,1.62,5.75,5.75,0,0,0,2.71,1.62c1.37.53,1.91,1.09,2.14,2.22a2.55,2.55,0,0,0,.7,1.31c1.7,2,1.68,2.92.74,4.73-.18.35-.4.77-.64,1.33-.36.84-1.26,3-1.47,3.58,0,.42.22,1.85.4,3.36l5.28.28.23,1.06a3.56,3.56,0,0,0,.25.7h6.82v1.8a6.56,6.56,0,0,1,1.18.43c1.71.81,1.68,3.06,1.08,4.9l-.07.22-.14.19a22.08,22.08,0,0,0-1.93,2.93c-.47,2-3.63,1.71-5.15,1.55a14.33,14.33,0,0,0-3,.09l.13.38-.58.63a7.52,7.52,0,0,0-1.52,2.21c-.05.27-.08.57-.12.89a6,6,0,0,1-1.26,3.66,3,3,0,0,1-1.6,1,1,1,0,0,0-.22.19c-.52.55-.74,1.58-.58,6,.18,5.31-2,6.47-2.87,6.73-1.45.67-4,1.69-5.25,1.41a4.65,4.65,0,0,0-2.15.48l-.23.09a16.54,16.54,0,0,1-4.58.88,2.1,2.1,0,0,0-1,.68l-.24.3a10.71,10.71,0,0,1-2.67,2.74,2.43,2.43,0,0,1-.95.24c.94,1.73.79,4.4.65,5.64a7.55,7.55,0,0,0,.5.64,11.09,11.09,0,0,1,1.48-.34l.1,0a2.81,2.81,0,0,1,.48-.76c1.28-1.48,3.72-1.28,6.32-.93,2,.33,2.56,1.13,2.76,2.58a4.6,4.6,0,0,1,2.25.58l.65.27a4.05,4.05,0,0,1,4.38-2.24c2.22.37,3.08,2.58,3,4.56.29,1.61,1,5.34,1.23,6.38a7.4,7.4,0,0,0,2.54,1.19l.72,0c.81,0,2-.08,3-.08a9.56,9.56,0,0,1,4.32,1.51l.86.45a4.28,4.28,0,0,0,2.06.29,7,7,0,0,1,1.13,0c2,.27,1.94,2,1.88,3.19l0,.64a5.65,5.65,0,0,1-2,4.29,3.13,3.13,0,0,1-1,.51l-.14,0s0,.09,0,.16a17.64,17.64,0,0,0,.22,2.13,15.86,15.86,0,0,1,.22,4.32,13.14,13.14,0,0,1-.76,2.64,37.11,37.11,0,0,1,6.73.15,3.81,3.81,0,0,1,2.67,3,5.14,5.14,0,0,0,.51,1.2,4.87,4.87,0,0,1,.52,3.38,4.13,4.13,0,0,0,0,1.24c.45.29,2.31.71,5.7.71a23.47,23.47,0,0,1,7.65,1.3,4.87,4.87,0,0,1,2.78,3.62l.09.33c1.08.53,3.31,1.9,4.11,2.39a7.26,7.26,0,0,0,3.25.09,4.7,4.7,0,0,1,5.3,1.66,18.82,18.82,0,0,0,3.91,1.49,2.42,2.42,0,0,1,2,2.38l0,.29a3.86,3.86,0,0,1-1.54,3.58,4.18,4.18,0,0,1-2.39,3.67c-.58,1.53-1.48,2.09-2.93,1.86a1.24,1.24,0,0,0-.32,0,2,2,0,0,1-1.34,0,4.52,4.52,0,0,1,1.15,1.28,5.52,5.52,0,0,0,.45.61,9.61,9.61,0,0,1,.84,1.12,7.56,7.56,0,0,0,1.39,1.62,7,7,0,0,1,.55.56l.59-.16a12.25,12.25,0,0,0,2.63-1.14c1.22-.65,2.27-1.2,3.34-.89,1.52.45,1.84,2.38,2.06,5.74.53-.2,1.07-.36,1.54-.5l.38-.11a6.31,6.31,0,0,1,1.65-1.52h0a1.83,1.83,0,0,0,0-.35l-.41-.06a2.58,2.58,0,0,1-2.05-1,6.13,6.13,0,0,1-.08-4.76,5,5,0,0,0,.35-1.82c0-.43.08-.91.15-1.46a3.21,3.21,0,0,1,2.61-2.89,7.48,7.48,0,0,0,.73-.26,5.88,5.88,0,0,1,4.37-.08c1.51.39,2,2,2.2,3.38a7.15,7.15,0,0,1,1.41.13c2,.42,1.81,2.15,1.72,2.89a10.32,10.32,0,0,0-.1,1.39c0,1.19,1.69,2.23,2.83,2.55,1.71.49,3,.86,4,2.53s.76,2.31,0,4l-.1.21a6.34,6.34,0,0,1-4.19,3.17l-.2.07a1.28,1.28,0,0,0-.73.46,7.3,7.3,0,0,1-1.17,1.05c-.59.43-.66.89-.79,2l-.05.44a8,8,0,0,0,.25,2.2,17.11,17.11,0,0,1,.32,2.06c0,.27.05.56.09.88A24.72,24.72,0,0,1,250.19,331.42Zm-13.06-19.82h0Zm2.81-.4h0Zm-20-9.5h.5a3.68,3.68,0,0,1,1.53.3,3.69,3.69,0,0,1-.84-.93A8.85,8.85,0,0,1,220,301.71Zm-23.81-22.77ZM326.24,258.5h0Zm-153.49-9.8,164.17-1.22Zm-15.6-17.64Zm-4.63-1h0Zm8-22.45h0Zm-14-32.3h0ZM161.75,171a1.35,1.35,0,0,0,.09.21A1.84,1.84,0,0,1,161.75,171Zm-46.52-26.37c2.25.22,4.59.39,5.86.4.06-1,.16-2.32.23-3.19a5.94,5.94,0,0,1-1.57-2.39c-.08-.24-.15-.48-.21-.72l-.32.26c-.84.63-2.55.75-4.23.68Zm165.42-13.37Zm0-1.27Zm-156.56-.43ZM122.81,127h0ZM283,122.16h0Zm-161.44-1.41h0Zm-.26-.46Zm-69.4-9.05Zm-6.51-5.55h0Zm65.51-.14Zm162.83-4.84h0Zm.22-3.21ZM18.58,88.78h0Zm8.33-4.16s0,0,0,.06ZM15.19,76.26Zm318.35-4.63s0,0,0,.06S333.54,71.65,333.54,71.64Zm-2.83-.11s0,.07,0,.11S330.7,71.56,330.71,71.53Zm-13.22-6ZM147,22a3.43,3.43,0,0,1,.7,1.58c.07.32.12.64.17.94a2.25,2.25,0,0,1,1.78-1.47l1-.15.18,0a1.1,1.1,0,0,0,0-.28,13.15,13.15,0,0,0-2.37-.4C147.75,22.12,147.31,22.07,147,22Zm-47-.79Zm-1.06-5.45c0,.29,0,.68,0,1.06a7.86,7.86,0,0,0,.31-.93A2.7,2.7,0,0,0,98.89,15.75Z"/></svg>