<svg id="Layer_2" data-name="Layer 2" xmlns="http://www.w3.org/2000/svg" viewBox="0 0 350 350"><defs><style>.cls-1{fill:#999;}.cls-2{fill:#f90;}</style></defs><title>M_</title><path class="cls-1" d="M335.49,221.88l-.21,0c-.71.14-2.6.51-3.36-1.24-.11-.27-.19-.49-.27-.71a6.57,6.57,0,0,0-.51-1.18,5.58,5.58,0,0,1-1.68-3,4.68,4.68,0,0,1-.36-3.46,2.92,2.92,0,0,1,1.61-1.94,6.44,6.44,0,0,0,1.13-.77,4.12,4.12,0,0,1,1-2.17c-.16-1.22-.08-3,1.89-3.66l.17,0a3.15,3.15,0,0,0,1.37-.76l.28-.22a14.51,14.51,0,0,0,1.67-2.15c.07-.37.17-1,.25-1.51l-17.71-14.73v-.67a5.74,5.74,0,0,1,1.38-3.72c1-1.77,4.08-6.25,4.62-6.84l.34-.38c1.27-1.41,2.54-2.8,3.22-3.38.45-.38,2.52-2.81,4.39-5.08l-.57-14.41c-1.71-2.25-5.54-7.24-6.6-8.36l-.21-.29c-1-1.79-4.94-10.4-5-12.39a37.27,37.27,0,0,0-1.33-4.9,18.72,18.72,0,0,1-.73-2.6c-.09-.78-1.61-9.33-2.09-11a31.86,31.86,0,0,0-5.65-4.26c-.81-.14-6.29.18-8.36.29l-1.43.08c-.44,0-1,.07-1.72.13-2.8.23-4.87.37-5.93,0-1.4-.48-7.25-3.31-10.4-8.36-1.69-2-3.84-4.33-5.79-6.38l-.08-.06c-1.94-1.46-5.09-3.82-6.17-4.56-1.5-.37-2.89-1.94-3.63-3.05a7.94,7.94,0,0,1-.72-.61c-1-.93-1.63-1.33-2.25-1l-.57.26-.57-.25a15.4,15.4,0,0,0-2.81-.68,19.4,19.4,0,0,1-4.07-1.06l-.37-.16c-1.93-.84-7.06-3.06-10.29-1.14l-.11.06a36.86,36.86,0,0,0-7.81,5.64,11,11,0,0,1-.9,1.13,20.59,20.59,0,0,0-4.48,7.71,16.16,16.16,0,0,1-3.4,4.73l-.07.25c-.46,1.54-1.33,4.41-8.11,8.66-.44.27-1.14.63-2,1.08-1.53.78-4.38,2.24-5.05,3l-.74.88-1-.54a7.31,7.31,0,0,0-1.87-.4c-1.34-.19-2.84-.39-3.75-1.34-1.29-.14-6.11-.06-10.17.12-4.77-.1-10-.15-11.47-.1a6.25,6.25,0,0,1-2.52.87c-.27,0-2.7.1-4.74.19l-.22,2.39-1,.25c-.73.19-3.2.71-4.52-.61l-.32-.32-.08-.45c-.19-1.16-.16-9.39-.15-12.33a2.68,2.68,0,0,1-.72-2c0-.94,0-1.61,0-2a8.84,8.84,0,0,0-.06-1.22c-.33-.39-.64-1.2-.3-4a3.34,3.34,0,0,1-.85-2.48v-.19c.1-.76.15-1.85.18-2.8.08-2,.11-2.58.49-3.08l.13-.16,0-2.94L173,79.3l.12-1.74h-2a1.93,1.93,0,0,1-1.49-.41,2.06,2.06,0,0,1-.7-1.79v0l-9.29,0a2.88,2.88,0,0,1-2.28-2.34,12.43,12.43,0,0,1-1-3,6.48,6.48,0,0,1-.45-3.19,2.46,2.46,0,0,1-1.71-1.9l0-.1q0-.25,0-.47a3.17,3.17,0,0,1-1.47-1.68,16.39,16.39,0,0,0-2.39-.23l-.34,0c-1.26-.32-3.37-1.42-3.26-3.55l.05-1,.63-.2.06-2-.83-.22.43-5.3c-2.7-1.67-8.56-5.39-9.85-6.88a1.9,1.9,0,0,1-.37-2.38,2,2,0,0,1,1.58-.89,3.07,3.07,0,0,1,.3-2,2,2,0,0,1,.46-.54c.07-.65.17-1.24.23-1.61l-.89-.09c-1.5.14-7.32.68-8.09.68a16.45,16.45,0,0,1-3.41-.76c-.73-.2-1.48-.41-1.83-.48l-1-.18c-1.15-.2-2.15-.37-2.9-.55l-.08.06a4.63,4.63,0,0,0-.41.37l-.35,2-1.79-1.16a2.18,2.18,0,0,0-.36-.16,2.66,2.66,0,0,1-1.31-.93,1.49,1.49,0,0,1-.44-.29,1.51,1.51,0,0,1-.45-.75,14.5,14.5,0,0,1-1.78-2.22,13.48,13.48,0,0,0-.92-1.23l-.43-.49a1.6,1.6,0,0,0-1.17-.73c-.72.11-1.43.24-2,.36l0,3-5.88.05-.12,0a1.63,1.63,0,0,1-1.11-.78,2.29,2.29,0,0,1-.28-1.39l-15-.33-4-.3a3.3,3.3,0,0,1-3.06.24,2.41,2.41,0,0,1-1.6-1.11l-.11-.19a22.28,22.28,0,0,1-3.29,1.23,4.67,4.67,0,0,1-5.68-.86l-.21,0-.08.13-.21.17-.14.18a3,3,0,0,1-2.13,1.32,3.48,3.48,0,0,1-2.45-1,6.62,6.62,0,0,1-2.37-1,5.57,5.57,0,0,1-1.57-1.2l-.58-.39-.48-.3-.14-.54a1.08,1.08,0,0,0-.12-.25,2.48,2.48,0,0,1-1.25-1.31l-.28-.12-.21-.09-.11.05a2.91,2.91,0,0,1-.56.19l-.23.34-1-.13a1.37,1.37,0,0,1-1-.8,2.64,2.64,0,0,1-.72-.25l-.51-.27a5.85,5.85,0,0,0-.61.28l-.63.34-.65-.3c-.1,0-.51-.24-.87-.43a1.6,1.6,0,0,1-2.2.16l-.13-.08a2.43,2.43,0,0,1-.59-.47l-.12,0-.12,0a3.85,3.85,0,0,0-1.45-.24,4.36,4.36,0,0,1-1-.09l-.27,0-.12.1c-.79.46-1.95,1.08-1.95,1.08l-.5.27L41.47,24l-.38-.07a2,2,0,0,1-.49.44l0,0-1.19.68-.26.13-.64.31a13.26,13.26,0,0,1-2.31.88l-.11,0a2.64,2.64,0,0,1-1.21.25l-.36,0a1.55,1.55,0,0,1-.85.32,2.72,2.72,0,0,1-3.2,1l-.13,0a2.7,2.7,0,0,0-.43.35l-.48.46-.57-.07-.42.07a7.51,7.51,0,0,1-1.39.16l-.38.09c-.5.11-.77.17-1,1.16l.07.26a3.94,3.94,0,0,1-.11,3.13,2.14,2.14,0,0,1-.62.63,3.66,3.66,0,0,1-.41.46l-.12.12a1.58,1.58,0,0,1-.64.83,1.51,1.51,0,0,1-.77.24L23,36A4.34,4.34,0,0,0,22,38a8.36,8.36,0,0,1-.27,2.87,5.85,5.85,0,0,1-1.38,4.52l-.05.12a3.25,3.25,0,0,0,.66.69l.32.27.12.41a6.82,6.82,0,0,1-.05,3c0,.14,0,.26-.06.34,0,.53-1.7,11-4.28,17.32A2.28,2.28,0,0,1,15.67,69a3.1,3.1,0,0,1-2.41-.15c0,.13,0,.29-.06.48a19.33,19.33,0,0,1-1.59,5.18c.1.42.29,1.08.45,1.62l.06.2,0,9.2c-.06,2-.28,4.64-1,5.64a1.24,1.24,0,0,0-.14.27,2.08,2.08,0,0,1-.25.45,5.51,5.51,0,0,1-.13,2.49c0,.49,0,1.41,0,3.25a8,8,0,0,0,1,3.4,9.76,9.76,0,0,1,1.72,2.61l.14.29a2.74,2.74,0,0,1,.46,3.14l-.06.19a5.8,5.8,0,0,0-.35,2.39,11.74,11.74,0,0,0,.52,1.84,11.87,11.87,0,0,1,.44,1.48,13.78,13.78,0,0,1,.23,3.76c0,.79-.1,2-.2,3.2a44.29,44.29,0,0,0-.22,5.53,41.06,41.06,0,0,1-.31,7.57c5.6-1.54,11.67-1.2,17.46-1.09a29.71,29.71,0,0,1,10.87,1.83c3.7,1.45,7,3.33,11.13,2.87a2,2,0,0,1,1.93,1.47c1.71,4.9,6.39-.2,7.49-2.43a65.49,65.49,0,0,0,2.63-7.47c.59-1.68,3.51-2.11,3.86,0,.1.6.21,1.2.31,1.79a26.17,26.17,0,0,0,3.63-.28,2,2,0,0,1,2.46,2.46,23.05,23.05,0,0,0,.07,4.33,5.87,5.87,0,0,1,4.28,4.3l3.31.1v-1.66h2.59v-1.94H90.4v-2h6.86l3,12.18,4.52.3.11-.82,1.33,0v-1l12.32.35-3.16,6h.28l.8-.05.36-1.22,9.71.86-2,3.75,2.07,0,2.55-6.77,1,7,4,0V157l3.73.08v-5.21l2.36,2.1c2.65,2.36,11.35,10.09,11.84,10.63l.18.19.1.24c.05.14.12.31,6.05,26.87,2.5,2.53,7.67,7.86,8.32,9.2l.06.14c.13.37.46,1.24.88,2.35,1.27,3.36,2.45,6.52,3.09,8.36h-.1l-4.94.46a1.65,1.65,0,0,0-1.36,1c-1.07-3.76-5.95-4.42-9.57-3.12-1.66.59-3.8,2.4-5.55,2.46l-4-1a3.64,3.64,0,0,0-.46-1.51c-1.46-1.66-2.11-2.48-4.43-2.67-1.07-.09-1.59,1-1.45,1.9q-1.82,3.26-5,2.81a1.51,1.51,0,0,0-1.5,1.5c.43,6.77-8.06,2.9-8,8.13,0,2.87,4.25,4.26,2.8,7.58-1.24,2.85-5.93-.43-8,0-1.41.3-1.75.65-2.3,2-.35.88,0,2.1-.08,3a15.88,15.88,0,0,1-1.92,5.92,72,72,0,0,0-6.23,19.48c-.14.85.38,2,1.45,1.9a51.74,51.74,0,0,0,7.46-1.27c1.37-.36,9.18-4,9.6-.91.22,1.61,2.45,1.22,2.89,0l.9-2.51c2.71.93,5.49-.28,8.48-.58-.06,1,.67,1.95,1.81,1.52l1.38.52c.67,1.34,2.24.75,2.66-.35.14.07.26.14.41.21a1.53,1.53,0,0,0,2.25-1.18,22,22,0,0,0,2-1.21c1-.12,2.1-.29,3.15-.49a1.59,1.59,0,0,0,1.85,1.23l1.8-.28.09,1.36c-.29,1,.75,2.26,1.84,1.85a11.58,11.58,0,0,1,7.29-.51,3.72,3.72,0,0,0,.58,3.1c.64.91,2.54,1.05,2.74-.36l.1-.75c1.38,2.39.34,4.83,4,5.81,3.91,1.06,7-2,10.51-2.91l.09.17.44.83a12.69,12.69,0,0,1,3.1,2.52l.63.64a19.28,19.28,0,0,1,4.5,6.32c1,2.53,5,11,5.41,11.79.4.66,3.48,5.65,4.76,7.78,2.11,0,6.92,0,7.87.4l.21.12c1.16.81,1.78,3.21,2.09,5.17a1.8,1.8,0,0,0,.5.71,6,6,0,0,1,3.56,4.29c.15.7,1.11,3.78,1.88,6.19.49,0,1.06,0,1.5,0a2.06,2.06,0,0,1,1.66.71l.07.11a2.19,2.19,0,0,1,1.7.62,2,2,0,0,1,.47.78,18,18,0,0,0,1.89,0l.65,0,5,5.21c.27.21,1.14.9,2,1.7.38.19.79.35,1.22.52a7.39,7.39,0,0,1,2.9,1.68,3.8,3.8,0,0,1,3.83,2.25c.54.31,1.27.68,1.93,1a15.72,15.72,0,0,1,2.31,1.3h.08a4.6,4.6,0,0,1,1.26.36,11,11,0,0,1,3.62-1.51,12,12,0,0,0,1.73-.92l.37-.23.44,0a2.55,2.55,0,0,1,2.14,1.45l1.08.07,1.26.09a2.35,2.35,0,0,1,1.19-1.36,6.12,6.12,0,0,0,.35-.6,4.64,4.64,0,0,1,.78-1.17,4,4,0,0,1,4.2-.68,2.39,2.39,0,0,1,.36-.59,2.33,2.33,0,0,1,.72-.59l0,0a4.08,4.08,0,0,1-.09-3.58v0a2.67,2.67,0,0,1-.71-.94,2.57,2.57,0,0,1,.06-2.18l.09-.16a27,27,0,0,1,3.41-3.82,2.41,2.41,0,0,1,.61-1.06,2.83,2.83,0,0,1,2.38-.81c.12,0,.41-.1.64-.16a5.63,5.63,0,0,1,4.74.29,7.61,7.61,0,0,0,1.66-.05,5.35,5.35,0,0,0,1.81-1.23,16.51,16.51,0,0,0,1.19-4.83,6.47,6.47,0,0,1-.61-5.1l0-.11a3.46,3.46,0,0,0,.36-2.77c-1.26-1.65-2.43-3.54-1.92-5.24l.1-.32.23-.24a8,8,0,0,1,2.71-1.53c.32-.13.71-.3.84-.37a5.93,5.93,0,0,1,1.7-.57,11,11,0,0,0,2-.6,36.71,36.71,0,0,1,3.71-1.1l-.07-.16a9.61,9.61,0,0,1-1-3.37,6,6,0,0,1,.21-6.55c0-.41.07-.83.1-1.26a23.53,23.53,0,0,1,.39-3.33l.05-.22a4.81,4.81,0,0,1,4-4.05l.13,0a8.28,8.28,0,0,1,2.58,0h0l.08-.18.13-.15a5.58,5.58,0,0,1,2-1.26c.23-.11.44-.2.57-.28a10.73,10.73,0,0,1,1.85-1l0,0,.86-1.62a6.24,6.24,0,0,1-.4-4c.35-2.46,1.56-5.77,3.83-7l.2-.09a7.32,7.32,0,0,0,1.31-.73,9.13,9.13,0,0,1,2.38-1.2,6,6,0,0,1,5.56.76A16,16,0,0,0,318,250l.39.13c.53.08,1-.24,1.67-.72l.38-.26.09-.06,0-.15a3.57,3.57,0,0,1,.86-3.78,6.78,6.78,0,0,0,.73-2.67c0-.11-.1-.22-.17-.35a4,4,0,0,1-.41-3.39c-.18-1.3-.33-3,.46-4.2.78-3.64,3.47-3.66,4.62-3.49l.3,0,.25.16.75.49a12.37,12.37,0,0,0,1.42.86,25.93,25.93,0,0,1,3.5-2.52,21.76,21.76,0,0,1,3.67-4c.41-.52,2.11-3.2,2.94-4.63A9.54,9.54,0,0,1,335.49,221.88Z"/><path class="cls-2" d="M247.5,328.93l-.69-.33a3.23,3.23,0,0,0-.88-.24l-.37-.06-.37-.25a17.81,17.81,0,0,0-2.07-1.14c-.68-.35-1.44-.73-2-1.05l-.43-.25-.18-.46A2.49,2.49,0,0,0,238,323.8l-.63,0-.43-.46a6.14,6.14,0,0,0-2.38-1.34,14.33,14.33,0,0,1-1.35-.57l-.3-.2c-.89-.78-1.74-1.46-2-1.65l-.15-.13-4.55-4.75a18.35,18.35,0,0,1-2.05,0l-1-.06-.29-.92a.54.54,0,0,0-.13-.22.78.78,0,0,0-.64-.2l-.81,0-.43-.68c-.08-.1-.27-.13-.67-.17s-.87,0-1.36,0h-1l-.32-1c-.51-1.6-1.72-5.43-1.91-6.31a4.5,4.5,0,0,0-2.7-3.28,2.57,2.57,0,0,1-1.23-1.37l-.11-.2,0-.23c-.42-2.58-1-3.87-1.47-4.21l-.06,0a42.57,42.57,0,0,0-7.21-.26l-.82,0-.42-.7c-1.12-1.86-3.61-5.9-4.49-7.33l-.34-.57c-.75-1.55-4.51-9.41-5.46-11.9a17.91,17.91,0,0,0-4.17-5.82l-.14-.14-.52-.53a11.4,11.4,0,0,0-2.73-2.24l-.39-.21-.16-.31c-.71.28-1.41.62-2.15,1-2.31,1.13-4.93,2.41-8,1.57a5,5,0,0,1-4-4.11l-.23.07a3.26,3.26,0,0,1-3.33-1.21,5.19,5.19,0,0,1-.95-2.77,10.35,10.35,0,0,0-5.26.69,2.68,2.68,0,0,1-2.82-.58,3,3,0,0,1-1-2.3l-.22,0a3.06,3.06,0,0,1-2.84-1.05c-.64.11-1.27.2-1.88.28-.39.25-.84.53-1.28.78a2.69,2.69,0,0,1-1.08,1.33,3.18,3.18,0,0,1-2.3.41,3,3,0,0,1-1.9.83,2.54,2.54,0,0,1-2.21-1l-.53-.2a2.62,2.62,0,0,1-2-.47,2.81,2.81,0,0,1-.8-1l-1.37.26a15,15,0,0,1-5.14.41l-.47,1.32a3.19,3.19,0,0,1-3.3,2,2.57,2.57,0,0,1-2.32-2.23c-.5-.22-2-.09-6.43,1.54-.64.24-1.1.41-1.42.5a53.82,53.82,0,0,1-7.67,1.31,2.59,2.59,0,0,1-2.18-.8,3.33,3.33,0,0,1-.82-2.74,72.76,72.76,0,0,1,6.35-19.86l.08-.17a14.16,14.16,0,0,0,1.71-5.24,6.9,6.9,0,0,0,0-.9,5.61,5.61,0,0,1,.21-2.56,3.89,3.89,0,0,1,3.33-2.89,8,8,0,0,1,3.74.56c2,.6,3,.8,3.27.25.45-1,.09-1.6-1-3a6.54,6.54,0,0,1-1.88-4c0-3.56,2.86-4.29,4.79-4.78,2.33-.59,3.36-.94,3.21-3.28a2.72,2.72,0,0,1,.74-2,3,3,0,0,1,2.15-1H134l.11,0c1,.14,2.22,0,3.36-1.76a3.24,3.24,0,0,1,.82-2.12,2.65,2.65,0,0,1,2.18-.84c2.81.23,3.83,1.39,5.24,3l.31.41a5.16,5.16,0,0,1,.44,1l2.9.74a9.41,9.41,0,0,0,2.67-1.22,15.17,15.17,0,0,1,2.28-1.14,10.72,10.72,0,0,1,8.24.25,6.3,6.3,0,0,1,2.32,2,3.13,3.13,0,0,1,.73-.16l3.22-.3c-.67-1.85-1.57-4.25-2.46-6.61l-.08-.21c-.39-1-.68-1.82-.81-2.17l0-.06c-.26-.54-2.54-3.21-8-8.76l-.29-.29-.09-.4c-4.91-22-5.84-26.06-6-26.66-.42-.43-5-4.56-11.74-10.52v3.5l-6.56-.14v-1.13l-3.81,0-.36-2.67-.93,2.47-5.35-.12,2-3.89-6.44-.57-.3,1-1,.09-.88.06h-.21l-2.59.23,3.31-6.27-8.59-.24v.93l-1.5,0-.12.94-6.88-.46-3-12.11H91.81v2H87.36v1.95H84.77v1.7l-5.87-.19-.24-1.08a4.49,4.49,0,0,0-3.34-3.26l-.92-.31,0-1c0-.37,0-.73-.07-1.09a16.15,16.15,0,0,1,0-3.5.88.88,0,0,0-.18-.76.7.7,0,0,0-.61-.11,18.16,18.16,0,0,1-2.91.26l-.92,0-1.26.07-.32-1.8q-.11-.62-.22-1.24c0-.2-.07-.22-.24-.24a.92.92,0,0,0-.88.47c-.28.79-.52,1.59-.77,2.41a34.91,34.91,0,0,1-1.92,5.22c-.73,1.47-3.66,5.47-6.77,5.27-1.06-.07-2.5-.64-3.33-3a.92.92,0,0,0-.44-.53c-3.71.42-6.85-.9-9.89-2.17-.63-.26-1.26-.53-1.9-.78a28.47,28.47,0,0,0-10.38-1.73l-1.8,0c-5.13-.12-10.43-.25-15.25,1.08l-2.1.58.32-2.15a39.67,39.67,0,0,0,.3-7.21,43.13,43.13,0,0,1,.21-5.75c.09-1.2.18-2.39.19-3.16a12.4,12.4,0,0,0-.2-3.44,11,11,0,0,0-.39-1.31,12.94,12.94,0,0,1-.58-2.06,6.94,6.94,0,0,1,.4-3.05l.15-.41a1.32,1.32,0,0,0-.21-1.5l-.14-.15-.1-.18-.13-.25,0-.09A8.39,8.39,0,0,0,10.53,102l-.17-.21A8.15,8.15,0,0,1,9.3,99.06H9.08l0-1.45c0-1.55,0-2.61,0-3.16v-.27l.09-.25a4.16,4.16,0,0,0,.07-1.85l-.07-.56.33-.45a.77.77,0,0,0,.08-.16,2.61,2.61,0,0,1,.29-.54c.06-.09.61-1,.73-4.85l0-9h0c-.17-.56-.36-1.25-.47-1.68l-.13-.54.27-.49a17.88,17.88,0,0,0,1.43-4.7c0-.16,0-.33.06-.47l.26-1.82,1.69.71a1.76,1.76,0,0,0,1.31.15.88.88,0,0,0,.5-.62l.05-.15C18.09,61,19.78,51,19.85,50.1a4.14,4.14,0,0,1,.06-.45,6,6,0,0,0,.1-2.43h0a4.64,4.64,0,0,1-.94-1l-.37-.6.26-.66s0-.12.1-.22l.09-.18.13-.15a4.45,4.45,0,0,0,1-3.37l0-.26.06-.26a7.08,7.08,0,0,0,.24-2.38l0-.23,0-.23a5.69,5.69,0,0,1,1.35-2.58l.51-.62.63,0c.07,0,.1-.05.12-.11l.1-.29.21-.23.15-.15a2.43,2.43,0,0,0,.27-.3l.15-.21.22-.14a.72.72,0,0,0,.21-.22c.31-.49.1-1.34-.07-2l-.14-.57.05-.29a2.4,2.4,0,0,1,2-2.29l.29-.07.2-.06h.21a5.82,5.82,0,0,0,1.12-.13l.13,0,.39-.06.16,0H29a4.56,4.56,0,0,1,.57-.47l1.83-1.46.24,1.42a1.72,1.72,0,0,0,1-.68l.39-.45.59,0,.32-.24.48-.08.35,0a2.66,2.66,0,0,0,.68-.07l.42-.16a11.87,11.87,0,0,0,2.08-.79l.75-.36,1.14-.7A.7.7,0,0,0,40,23l.5-.65.82.1a5,5,0,0,1,.54.1h0s1-.55,1.79-1l.57-.48.64.15.29,0a3.2,3.2,0,0,0,.66.06,5.17,5.17,0,0,1,1.89.29l.64.18.27.29a1.07,1.07,0,0,0,.26.21l.13.07a.92.92,0,0,0,.39.16l.75-.81,1,.47c.3.16.63.32.76.38h0a7.28,7.28,0,0,1,.77-.36l.64-.25.59.35.42.22a1.27,1.27,0,0,0,.33.12l.72.13.33.66.05-.08.12,0v-1l1.9.68.34.15.21.09.51.21.23.5a1.07,1.07,0,0,0,.53.61l.37.16.23.33a2.48,2.48,0,0,1,.31.64l0,.06.67.45.18.13.13.18a5.8,5.8,0,0,0,1.16.82,5.27,5.27,0,0,0,1.93.79l.34.07.27.22a2.11,2.11,0,0,0,1.44.64,1.68,1.68,0,0,0,1.13-.79l.2-.25.16-.15.24-.42.59-.14a2.32,2.32,0,0,1,.54-.06h.63l.42.46a3.33,3.33,0,0,0,4,.56l.27-.11a20.89,20.89,0,0,0,3.07-1.15l1.2-.58.72,1.29a1,1,0,0,0,.63.47l.18,0c1.18.34,1.6.18,1.74.05l.45-.38,4.58.34,16.44.36-.12,1.49a1,1,0,0,0,.08.54.24.24,0,0,0,.13.11l4.38,0,0-2.73,1.12-.23c.58-.12,1.32-.26,2.06-.37l.27,0,.27.06A3,3,0,0,1,114,28.71l.39.45a13.73,13.73,0,0,1,1,1.35,13.63,13.63,0,0,0,1.6,2l.3.28.1.4.4.16.29.44a1.4,1.4,0,0,0,.64.4,3.26,3.26,0,0,1,.63.3l0-.28.27-.3a6.49,6.49,0,0,1,.56-.52l.63-.51.68.16c.68.16,1.61.33,2.81.53l.24,0,.84.15c.39.08,1.05.26,1.94.5a18.85,18.85,0,0,0,3,.71c.35,0,2.63-.18,8-.68h.14l2.54.27-.27,1.5c-.06.35-.15.91-.22,1.52l-.06.57-.45.37a.64.64,0,0,0-.14.17,1.68,1.68,0,0,0-.12,1l.26,1.53-1.55.12c-.32,0-.43.14-.49.23-.16.25.1.55.18.63.86,1,4.51,3.52,9.58,6.67l.74.46-.4,5,.77.2-.12,4.13-.65.21c-.07,1.37,1.75,2,2.12,2.09l.16,0a18.35,18.35,0,0,1,2.53.25l.81.14.28.77a1.78,1.78,0,0,0,.82.93l.68.38,0,.78c0,.13,0,.26,0,.4v0c0,.12.1.55.78.78l1,.34,0,1a5.3,5.3,0,0,0,.28,2.48l.12.22,0,.25a10.64,10.64,0,0,0,.87,2.56l.1.21,0,.23a1.45,1.45,0,0,0,1.07,1.07l10.37,0,.13,1.44c0,.52.13.65.19.7a.54.54,0,0,0,.4.1h3.71l-.28,4.21-1,.32,0,2.47-.38.4a7.25,7.25,0,0,0-.25,2.33c0,1-.08,2.11-.19,2.94v.09a2.06,2.06,0,0,0,.43,1.37l.5.49-.08.69c-.29,2.37,0,2.87,0,2.89l.26.31.05.39a10.42,10.42,0,0,1,.07,1.42c0,.41,0,1.09,0,2.07a1.27,1.27,0,0,0,.33,1l.39.41v.57c0,6.65,0,11.39.13,12.09h0c.58.58,2,.54,3.16.24l.24-2.63,1.24-.05c.73,0,4.4-.19,4.8-.19a5.2,5.2,0,0,0,1.72-.62l.34-.23.41,0c1.55-.06,7.08,0,11.56.1,3.88-.18,8.85-.27,10.3-.11l.51.05.36.37a5.44,5.44,0,0,0,2.92.92,7.43,7.43,0,0,1,2.34.55h0c.72-.86,2.56-1.89,5.5-3.39.84-.43,1.54-.79,1.92-1,6.33-4,7.1-6.5,7.51-7.87l.19-.64.31-.27a15,15,0,0,0,3-4.15,21.71,21.71,0,0,1,4.73-8.13,10.82,10.82,0,0,0,.78-1l.15-.2a37.82,37.82,0,0,1,8.24-6l.06,0c3.79-2.25,9.4.17,11.51,1.09l.37.16a18.26,18.26,0,0,0,3.77,1,16.14,16.14,0,0,1,3.12.77h0c1.58-.72,2.91.49,3.79,1.29a6.44,6.44,0,0,0,.58.5l.22.15.15.22a6,6,0,0,0,2.78,2.46l.26.06.22.15c1.05.73,4,3,6,4.42L280,91c2,2.06,4.14,4.46,5.84,6.43l.13.17c2.91,4.65,8.45,7.35,9.66,7.77.87.3,3.46.09,5.36-.07.69-.06,1.32-.11,1.78-.13l1.62-.09a71.82,71.82,0,0,1,8.46-.26l.22.06c1.21.41,5,3.41,6.19,4.59l.26.26.1.35c.52,1.78,2,10.42,2.14,11.21a23.13,23.13,0,0,0,.67,2.33,29.27,29.27,0,0,1,1.39,5.29c0,1.48,3.58,9.47,4.78,11.67l.11.15c1.39,1.51,6.09,7.69,6.63,8.4l.27.36.61,15.39-.34.42c-.39.47-3.79,4.6-4.56,5.25s-2,2-3.09,3.25l-.35.38c-.45.5-3.39,4.79-4.45,6.6l-.21.28a4.29,4.29,0,0,0-1,2.73l17.82,14.82-.13.8c-.08.52-.19,1.16-.26,1.54l0,.19-.08.17a14.71,14.71,0,0,1-2,2.56l-.14.11-.2.16a4.47,4.47,0,0,1-2,1.06l-.09,0c-.32.11-1.08.38-.85,2.1l.09.67-.46.49a2.72,2.72,0,0,0-.67,1.45l-.09.5-.39.33a7.86,7.86,0,0,1-1.41,1,1.57,1.57,0,0,0-.89,1.08,3.27,3.27,0,0,0,.25,2.38l.11.2,0,.22a4.18,4.18,0,0,0,1.23,2.17l.14.15a5.44,5.44,0,0,1,.74,1.59c.08.23.16.43.26.69s.4.64,1.77.37l.52-.1.28.06a8.88,8.88,0,0,0,3.33-.41l3.2-.76-1.64,2.85c-.82,1.41-2.57,4.18-3.06,4.81l-.18.19a20.14,20.14,0,0,0-3.38,3.68l-.19.31-.31.18a24.43,24.43,0,0,0-3.28,2.36l-.68.61-.83-.37a12.34,12.34,0,0,1-1.57-.94l-.78-.51h0a2.55,2.55,0,0,0-3,2.39l-.06.25-.14.22c-.57.88-.34,2.53-.24,3.23l.05.38-.14.35a2.66,2.66,0,0,0,.37,2.22l0,.1a3.72,3.72,0,0,1,.17.38l.1.27v.29a8.09,8.09,0,0,1-1,3.38l-.24.28c-.75.68-.66,1.4-.43,2.43,0,.11,0,.19,0,.25l.13.93-.81.48-.37.25a3.69,3.69,0,0,1-2.69,1l-.25-.06-.39-.13a17.32,17.32,0,0,1-2.84-1.17l-.14-.08a4.58,4.58,0,0,0-4.35-.56,7.85,7.85,0,0,0-2,1,8.86,8.86,0,0,1-1.54.85l-.1,0c-1.67,1-2.75,3.68-3.07,6a5,5,0,0,0,.25,3.11l.36.67-1.33,2.5-.48.4-.16.07a9.71,9.71,0,0,0-1.5.85l-.13.09a5.27,5.27,0,0,1-.55.28l-.17.08a6.87,6.87,0,0,0-1.39.76v1h-1.54l-.12,0a7,7,0,0,0-2.14,0h-.06a3.4,3.4,0,0,0-2.92,3l-.05.23a23.34,23.34,0,0,0-.35,3.11c0,.48-.07.89-.1,1.28l0,.38-.22.31a4.69,4.69,0,0,0-.12,5.07l.15.29v.33a8.47,8.47,0,0,0,.85,2.84l.73,1.7-1.62.4a35.17,35.17,0,0,0-3.54,1,12.17,12.17,0,0,1-2.17.66,5.2,5.2,0,0,0-1.29.4,8.26,8.26,0,0,1-1,.47,7.57,7.57,0,0,0-2.22,1.19h0c-.34,1.13.8,2.8,1.69,4l.18.3a4.75,4.75,0,0,1-.37,3.91l0,.06a5.12,5.12,0,0,0,.45,3.75l.26.37v.45a17.57,17.57,0,0,1-1.33,5.44l-.06.11a6.55,6.55,0,0,1-2.39,1.77l-.2.1-.22,0a8.77,8.77,0,0,1-2.07.06l-.31,0L276,310a4.34,4.34,0,0,0-3.61-.12c-.34.09-.67.17-.81.2l-.19,0-.19,0a1.44,1.44,0,0,0-1.2.39,1,1,0,0,0-.25.43l-.1.39-.3.28a25.74,25.74,0,0,0-3.18,3.54l0,.08a1.14,1.14,0,0,0,0,.94,1.27,1.27,0,0,0,.34.44l.72.62-.3.9a2.85,2.85,0,0,0-.06,2.42l.79,1.28-1.31.73a.94.94,0,0,0-.29.23,1,1,0,0,0-.14.24l-.51,1.23-1.26-.43a2.66,2.66,0,0,0-2.74.34,3.64,3.64,0,0,0-.53.83,7.79,7.79,0,0,1-.45.77l-.21.29-.32.16a.94.94,0,0,0-.48.6l-.39,1-1.07-.1-1.21-.08-1.13-.08-.8-.07-.35-.73a1.15,1.15,0,0,0-.91-.64h0a12.38,12.38,0,0,1-2.11,1.09l-.28,0a10.13,10.13,0,0,0-3,1.31Zm-.85-3.33a6.39,6.39,0,0,1,.66.16,11.62,11.62,0,0,1,3.42-1.34c.17-.09.76-.39,1.3-.73l.74-.47.88,0a4,4,0,0,1,2.89,1.5l.34,0,.38,0a3.59,3.59,0,0,1,1-.93l.11-.21a5.92,5.92,0,0,1,1-1.51,5.19,5.19,0,0,1,4.56-1.3,5.58,5.58,0,0,1,0-2.84,3.93,3.93,0,0,1-.42-.72,4,4,0,0,1,.06-3.34l.12-.24a26.77,26.77,0,0,1,3.43-3.94,3.9,3.9,0,0,1,.82-1.27,4.19,4.19,0,0,1,3.3-1.25l.3-.08a7.18,7.18,0,0,1,5.6.25c.25,0,.57,0,.8,0a6.28,6.28,0,0,0,1-.65,17.5,17.5,0,0,0,.95-3.67,8.09,8.09,0,0,1-.5-5.93l.07-.17a3.14,3.14,0,0,0,.41-1.56c-1.4-1.87-2.69-4.07-2-6.32l.19-.64.45-.49a9,9,0,0,1,3.19-1.87c.25-.11.56-.23.69-.3a7,7,0,0,1,2.07-.72,9.81,9.81,0,0,0,1.73-.52c.61-.24,1.49-.52,2.37-.76a8.59,8.59,0,0,1-.52-2.2,7.36,7.36,0,0,1,.23-7.41c0-.26,0-.54.06-.8a24.59,24.59,0,0,1,.43-3.65l0-.21a6.21,6.21,0,0,1,5.1-5.11l.19,0a10.79,10.79,0,0,1,2.2-.09,7.64,7.64,0,0,1,2.25-1.37l.18-.08.2-.09a12.37,12.37,0,0,1,1.63-1l.32-.61a8.43,8.43,0,0,1-.23-4.11c.42-2.91,1.83-6.56,4.55-8.07l.4-.18a6.66,6.66,0,0,0,1-.57,10.56,10.56,0,0,1,2.78-1.39,7.38,7.38,0,0,1,6.7.9,14.81,14.81,0,0,0,2.33.94l.12,0a4.08,4.08,0,0,0,.39-.25,4.68,4.68,0,0,1,1.27-4.17,6.09,6.09,0,0,0,.41-1.53,5.47,5.47,0,0,1-.57-4.15,7.38,7.38,0,0,1,.58-4.58c.91-3.74,3.77-4.7,6.15-4.35l.6.09.51.33.76.5.48.32a29.75,29.75,0,0,1,2.63-1.84,24.3,24.3,0,0,1,3.65-4c.21-.29.66-1,1.15-1.75a5.77,5.77,0,0,1-1.14-.06c-3,.58-4.32-.81-4.87-2.08-.13-.33-.22-.56-.3-.79s-.21-.58-.3-.78a7,7,0,0,1-1.9-3.37,6.09,6.09,0,0,1-.37-4.33,4.3,4.3,0,0,1,2.42-2.85,3.57,3.57,0,0,0,.41-.27,5.51,5.51,0,0,1,.85-1.82,4.24,4.24,0,0,1,2.89-4.54l.27-.08a1.93,1.93,0,0,0,.83-.47l.27-.21a17.81,17.81,0,0,0,1.25-1.56l.08-.45-17.6-14.64v-1.33a7.18,7.18,0,0,1,1.66-4.58c1.06-1.78,4-6.2,4.71-6.94l.34-.37c1.29-1.44,2.59-2.86,3.35-3.51.3-.27,1.85-2,3.87-4.49l-.53-13.42c-1.89-2.49-5.3-6.9-6.23-7.89l-.42-.57c-.79-1.43-5.1-10.55-5.17-13,0-.6-1-3.53-1.26-4.5a18.07,18.07,0,0,1-.79-2.88c-.08-.75-1.41-8.21-1.95-10.37a36.19,36.19,0,0,0-4.75-3.62c-.74,0-3.33.06-7.69.31l-1.65.09c-.44,0-1,.07-1.68.12-3.07.25-5.19.39-6.51-.07a24.49,24.49,0,0,1-11.08-8.85C282,97.27,279.92,95,278,93l-.22-.16c-1.83-1.37-4.55-3.41-5.7-4.23a8.71,8.71,0,0,1-4-3.36c-.2-.15-.39-.33-.6-.51a7.2,7.2,0,0,0-.93-.76l-1,.43-1.15-.49a14.84,14.84,0,0,0-2.47-.58,20.85,20.85,0,0,1-4.42-1.16l-.37-.16c-1.59-.69-6.4-2.77-9-1.22l-.17.09a36.48,36.48,0,0,0-7.35,5.27,13.72,13.72,0,0,1-.94,1.17,19.3,19.3,0,0,0-4.2,7.19,17.75,17.75,0,0,1-3.5,5.09c-.53,1.76-1.62,4.91-8.68,9.33-.48.3-1.19.67-2.09,1.12a24.66,24.66,0,0,0-4.65,2.7l-1.47,1.76-2-1.07a10.22,10.22,0,0,0-1.38-.25,8.39,8.39,0,0,1-4.16-1.37c-1.6-.08-5.69,0-9.53.16-4.34-.08-9.29-.14-11.12-.11a7.62,7.62,0,0,1-2.94.88l-3.44.13-.2,2.14-1.92.5c-1.17.3-4.08.82-5.88-1l-.64-.64-.15-.89c-.19-1.11-.2-7.07-.17-12.07a4.1,4.1,0,0,1-.72-2.57c0-.92,0-1.57,0-1.95s0-.56,0-.72c-.48-.84-.6-2.05-.4-4a5,5,0,0,1-.79-2.92l0-.29c.1-.79.14-1.83.18-2.75.08-2,.11-2.86.63-3.68l0-3.12a3.31,3.31,0,0,1-1.81-.74,3.27,3.27,0,0,1-1-1.49l-8.41-.08A4.35,4.35,0,0,1,156,73.34a13.91,13.91,0,0,1-1-2.92,7.22,7.22,0,0,1-.5-2.75,3.78,3.78,0,0,1-1.69-2.52v0a4.51,4.51,0,0,1-1.06-1.19,14.56,14.56,0,0,0-1.46-.11l-.68-.08c-2.26-.57-4.47-2.33-4.33-5l.1-2,.36-.11-.65-.17.46-5.62c-3.78-2.36-8.22-5.28-9.44-6.7a3.27,3.27,0,0,1-.49-4.07A3.23,3.23,0,0,1,137,38.91a4.09,4.09,0,0,1,.52-1.66h0c-3.09.29-6.44.58-7.07.58a16.27,16.27,0,0,1-3.79-.82c-.59-.16-1.41-.39-1.72-.45l-.79-.14-.24,0L122,36l-.56,3.17-3.59-2.32-.09,0A4.21,4.21,0,0,1,116,35.72a3,3,0,0,1-.48-.36,2.87,2.87,0,0,1-.71-1,17.88,17.88,0,0,1-1.71-2.18,13.28,13.28,0,0,0-.8-1.08l-.47-.54-.16-.19-.51.09,0,3.2-7.38.07-.24,0a3,3,0,0,1-2.1-1.44,3.24,3.24,0,0,1-.33-.74l-13.78-.3-3.57-.27a5,5,0,0,1-3.77.17,3.67,3.67,0,0,1-1.83-1c-1,.4-1.86.68-2.34.82a6.2,6.2,0,0,1-6.17-.29A4.09,4.09,0,0,1,66.88,32a4.7,4.7,0,0,1-3.18-1.06,7.88,7.88,0,0,1-2.49-1.07,7.42,7.42,0,0,1-1.81-1.36L59,28.28l-1-.6L57.9,27a3.63,3.63,0,0,1-.67-.6l-.13.2-1.83-.25a2.83,2.83,0,0,1-1.73-1l-.35-.15L52,25.81l-1.3-.6-.15-.07a3.14,3.14,0,0,1-3.05-.27l-.12-.07a4,4,0,0,1-.6-.43,2.25,2.25,0,0,0-.89-.17,5.7,5.7,0,0,1-1-.06c-.77.44-1.71.94-1.71.94l-1,.53-.62-.17-.23.15-1.19.68-.4.19-.59.28a14.53,14.53,0,0,1-2.5,1,4.13,4.13,0,0,1-1.66.34,3,3,0,0,1-.58.23,4,4,0,0,1-3.69,1.2l-.78.74-1-.13h-.05l-.14,0a9.64,9.64,0,0,1-1.45.18h0a5,5,0,0,1-.35,4,3.51,3.51,0,0,1-.82.89c-.12.14-.23.26-.33.36a3,3,0,0,1-1.08,1.23,2.85,2.85,0,0,1-.76.35,2.61,2.61,0,0,0-.5.92,9.62,9.62,0,0,1-.27,2.84,7.33,7.33,0,0,1-1,4.39l.38.33.24.81a8.09,8.09,0,0,1,0,3.63l0,.25c-.13,1.56-1.84,11.48-4.35,17.64a3.65,3.65,0,0,1-2.11,2.38,3.87,3.87,0,0,1-1.82.28,20.62,20.62,0,0,1-1.28,4.07c.09.34.2.72.3,1.05l.12.41,0,9.41c-.13,4.4-.78,5.79-1.26,6.45l-.08.2A6.56,6.56,0,0,1,12,94.58c0,.64,0,1.63,0,3a6.52,6.52,0,0,0,.73,2.57A11.17,11.17,0,0,1,14.54,103l.05.11a4.19,4.19,0,0,1,.6,4.47l0,.09a5.11,5.11,0,0,0-.31,1.72,10.48,10.48,0,0,0,.47,1.62,13,13,0,0,1,.49,1.66,15,15,0,0,1,.26,4.08c0,.85-.11,2.08-.2,3.28a45.81,45.81,0,0,0-.22,5.27,39,39,0,0,1-.09,5.87c4.62-.93,9.41-.82,14.06-.7l1.79,0a31,31,0,0,1,11.36,1.93c.66.26,1.31.53,2,.8,2.83,1.19,5.5,2.31,8.49,2a3.42,3.42,0,0,1,3.43,2.41c.14.4.43,1.08.83,1.11,1.07.1,3.26-2.09,4.05-3.7a32.73,32.73,0,0,0,1.75-4.8c.26-.85.52-1.69.81-2.51a3.73,3.73,0,0,1,3.8-2.36,3,3,0,0,1,2.79,2.6l.1.56a14.28,14.28,0,0,0,2.18-.2,3.46,3.46,0,0,1,3.1.83,3.65,3.65,0,0,1,1,3.22,13.75,13.75,0,0,0,0,2.9l0,.24a7.27,7.27,0,0,1,4,3.91l.84,0v-1.61h2.59v-1.95H89v-2h9.39l3,12.25,2.17.14.09-.71,1.16,0V144.5l16.05.45-2.52,4.76,8.72.77,2.77-7.33,1.54,11.29,4.17,0v1.22l.89,0v-6.92l4.72,4.19c5.18,4.6,11.46,10.2,11.94,10.72l.36.39.19.48c.11.27.17.41,6,26.69,7.49,7.6,8.1,8.87,8.3,9.29l.08.19c.16.43.45,1.2.83,2.21l.08.21c1.21,3.21,2.44,6.49,3.1,8.4l.63,1.83-2,.05h0l-4.87.45a.24.24,0,0,0-.2.12L164,217.53,163,213.76a3.28,3.28,0,0,0-1.75-2.07,7.93,7.93,0,0,0-6-.1,13.19,13.19,0,0,0-1.83.94,9.51,9.51,0,0,1-4.15,1.61h-.2l-5.18-1.32-.08-1a2.17,2.17,0,0,0-.22-.81l0,0c-1.29-1.47-1.65-1.88-3.24-2a.54.54,0,0,0,0,.25l.08.49-.24.43c-1.84,3.29-4.38,3.77-6.25,3.55a.23.23,0,0,0-.09.07c.32,4.7-3.22,5.59-5.33,6.13-2.26.57-2.66.87-2.65,2a4.21,4.21,0,0,0,1.25,2.25c1.1,1.36,2.61,3.21,1.43,5.91-1.29,3-4.67,1.94-6.69,1.33a7.55,7.55,0,0,0-2.33-.5c-.89.19-.89.19-1.28,1.17a4,4,0,0,0,0,1.3,9,9,0,0,1,0,1.31,16.77,16.77,0,0,1-2,6.25l-.08.17a70.05,70.05,0,0,0-6.12,19.1.56.56,0,0,0,0,.25,50.52,50.52,0,0,0,7.12-1.22c.18,0,.67-.23,1.15-.41,3.45-1.29,7-2.45,8.94-1.28a2.64,2.64,0,0,1,1.25,1.78.41.41,0,0,0,.19-.12l1.37-3.81,1.32.45c1.52.52,3.15.19,5-.18.91-.18,1.85-.37,2.84-.47l1.66-.17-.11,1.67a.45.45,0,0,0,0,.06l.36-.13.54.18,1.9.72.21.42a.36.36,0,0,0,.1-.14l.55-1.47,1.59.79.14.07a.43.43,0,0,0,.33,0l0-.84.7-.31a20.34,20.34,0,0,0,1.88-1.12l.28-.18.33,0c1-.11,2-.27,3-.48l1.39-.27.27,1.4s0,.13.24.1l3.33-.52.22,3.15-.07.24.07.09a13,13,0,0,1,8.06-.53l1.38.35-.35,1.38a2.31,2.31,0,0,0,.36,1.93.46.46,0,0,0,.21.08l.64-4.67,2.07,3.58a9.61,9.61,0,0,1,1,2.68c.35,1.43.5,2,2.13,2.47,2.08.56,3.92-.34,6.05-1.38a21.09,21.09,0,0,1,3.72-1.53l1.09-.29.61,1.14.26.5a14.73,14.73,0,0,1,3.06,2.58l.46.47.14.14a20.78,20.78,0,0,1,4.79,6.76c.93,2.44,4.78,10.46,5.36,11.67l.23.38c.78,1.27,2.83,4.61,4.07,6.65,2.17,0,6.47,0,7.69.55l.42.24c1.25.88,2.12,2.8,2.64,5.87a7.4,7.4,0,0,1,4.07,5.11c.11.49.71,2.49,1.55,5.13l.59,0a3.64,3.64,0,0,1,2.29.85,3.45,3.45,0,0,1,2,1,3.4,3.4,0,0,1,.32.38l1,0,1.29-.07,5.38,5.61c.31.25,1.07.85,1.88,1.56.28.13.58.25.89.37a9.76,9.76,0,0,1,3,1.62,5.09,5.09,0,0,1,4.35,2.64l1.49.77A24.69,24.69,0,0,1,246.64,325.61Zm32.48-19ZM24.58,34.78h0l0,0Z"/></svg>