<svg id="Layer_1" data-name="Layer 1" xmlns="http://www.w3.org/2000/svg" viewBox="0 0 350 350"><defs><style>.cls-1{fill:#999;}.cls-2{fill:#f90;}</style></defs><title>M</title><path class="cls-1" d="M321.22,8.42c-1-1.59-3.27-1.24-5.21-1.32s-4.24-1.59-5.74-1-14.74.09-23.65,0c-8.91.79-64.15.44-67.68.53-3.18.09-28.94.62-34.77.62C178.71,7,141.82,8.68,138,8.68s-27.53.62-29.56.79-26.12.63-26.12.63a2.7,2.7,0,0,1-.12,1.31c-.82,1.29-4.18,6.82-5.35,8.35s-6.94,9-8.18,11.12-1.53,3.82-3.24,5.18-2.41,1.18-4.53,0a18.87,18.87,0,0,1-4.59-3.82,19.47,19.47,0,0,0-4.77-3.88c-1.65-.76-1.65-.41-3.41.24S35.92,35.61,34,37s-3.35,3.11-2.41,6.82c.65,3.12,3.35,7.29,9,3.29,2.88-.47,11.65-1.12,15.35,1.29,2.41,1.76,4.88,2.35,4.88,7.12-.29,1.47-.06,5.82-3,6.94-3,1.41-4.47,2.12-6.94,1.29s-8.71-3.24-11-2.94c-2.65-.29-10.77-1.65-12.24.94A3.74,3.74,0,0,0,29.86,67c2.12.88,3.47,1.65,4.18,4.53s1.53,6.71,4.59,8.12,4.53,2.62,7.88,3,10.94-2.56,13.06,1.59c-.18,1.68,2.29,10.32,2.65,12.44s2.82,1.59,4.59,2,5.91.09,8.74,3c2.65,2.29,5.91.09,9,1.94,2.91,1.94,4.94,4.94,6.35,6.71a22,22,0,0,0,9.27,5.82,25.31,25.31,0,0,1,8.38,3.62c2.56,1.76,3,1.5,4.5,2.21s2.21,5.38,2.47,7.24,0,5.65,3.35,8.74c3,2.74,5.29,4.94,6.53,6.35s1.76,3.18,3,3.18,9.35-6.09,13.41-5.38a11.72,11.72,0,0,1,7.68,4.59c.79,1.94,1.85,6.18,2.56,8.82s3.18,7.41,3.35,12.18-.62,5.47,0,8.47.79,9,6.35,7.85c-.62,1.15.18,4.41-4.15,7.06-.35,2.38-2.29,3.79.71,9.62,2,4.85,2.74,7.5,6.79,7.32,3.35-.09,6.27-.09,7.94,1.06s1,2.12,0,3.18c-.79.62-4.85,1.76-5.38,3.18s-4.32,3.79-5,5.12-4.94,2.38-4.24,10.59c1.41,2.91,1,3.79,1.15,5.74s-1.24,1.76-1.85,3.27-5,4.59-5,5.91c0,0-1.68,1,.44,3.27A27.91,27.91,0,0,1,156,253c-1.24.62-2.82,1-2.56,2.91.26,1.24.44,2.56.53,3.18-.62.71-1.06.79-1.76-1.15-.53-1.24-2.65-1.06-3.27,1a45.85,45.85,0,0,1-4.56,4l.18,1.13s3.29.18,4.59.35a3.55,3.55,0,0,1,2.76,2,32.91,32.91,0,0,0,2.65,4.12c1.12,3.47-.29,8-1.18,9.47-1.41.35-10.65,4.06-11.65,4.47-1,5.53-3.88,7.12-4.88,7.71-.29,1.88,1.65,11.24,1.82,12.41s4.47,6.59,4.77,7.41a7.78,7.78,0,0,0,3.29,3.88c4.12,4.06,6.71,1.82,8.3,1.41,3.41-1.18,7.24-6.3,9.35-8.65s2.82-1.41,3.59-1.18,5.65,3.53,7.88,4.65c0,0,3.35-3.24,4.35-4.29,1.47-2.59,4.53-5.41,6.24-5.59,7-1.41,8.12,3.18,8.65,5.12.76,7.3-2.24,8.94-4.29,10.41a63,63,0,0,1-9.12,7.77c0,1.53,3.53,7.88,4.59,9.82.41-2.53,2.65-2.29,3.71-1.47a2.47,2.47,0,0,1,.76,2.06L195,339a10.46,10.46,0,0,1,1.88-2.18c.47-1.12,2.77-1.47,3.65-1.06,1.18-2.06,3.82-1.59,3.82-1.59,1.47,3.94-2.82,5.53-5.18,6.71-1.59,2.35-.18,2.29,2.29,3,2.88.82,4.24-3.71,4.65-6.65.47-3.94,3-3.12,4.77-3.59s2.47-.76,3.29-2.29.35-2.47.35-4.35a18.23,18.23,0,0,0-1.41-5.18s-2.71-2.59-3.06-4.12,3.18-2.94,5.77-4.82,1.65-1.76,1.88-4.12-3.18-4.71-4.24-4.82-3.77-4.47-6.35-6.24h8.47c1.06,0,6.94-1.53,8.12-2.35s2.47-2.35,1.41-4.47-1.41-8.12-1.29-10.71,1.41-6.24,1.76-8.82.24-4.47.47-6.12.47-5.18.59-6.35c-2.47-4.82-2-13.53-2-15.77,1.76-5.41,15.77-6.71,18-6.94s8.24,1.76,11.3,3.29a22.15,22.15,0,0,1,5.88,4c1.06,1.06,1.76,2.94,2.82,3.65s.94-1.06,1.76-2.35-.94-5.41-2.59-6.47c-1.53-.24-5.53-5.18-6.47-7.53s.59-4.59,1.41-6.82c-.82-3.06,1.76-8.24,1.53-9.88.35-2.82-5.65-1.53-7.77-1.65-2-1.18-1.41-4-2-4s-9.18,1.88-10,1.88-2.12-2-2.12-2a24,24,0,0,1-5.06,1.41c-1.53-.24-3.18-4.71-4.35-7.53-1.88-4,1.41-4.94,3.41-5.65s1.18-2.47.94-3.77-3.18-7.41-4.35-9.81-2.35-.78-3.77-.19a2.7,2.7,0,0,1-3.41-1.41c-.59-1.18-.12-8.59-.35-14.94A50.83,50.83,0,0,0,215.36,152c-1.18-2.35-1.35-3.59-2.5-5.71-1.32-2.38-.09-3.18-.09-3.18l5.21-4a4.57,4.57,0,0,1,6.71-.18c2.91,2.91,7.24,7.85,8.21,9s2.29,3.44,3.44,3.53,6.62-2.12,7.85-3.71,5.21-6.62,6.09-7.24c5.21-2.65,11.21-11.65,12.18-13.33,2.12-2,3.62-7.85,4.15-10.32a73,73,0,0,0-.88-13.33c-.53-2.21-.62-7.85.35-9.18S280.63,80,281.16,79.28s2.47-1.94,2.91-2.82,2.74-4.5,2.74-4.5L294,60.39s3.53-5.56,3.88-7c0-1.85-.62-2-1.85-3.18-2.65-1.68-1.24-3.09-.79-4.06,3.62.09,8.3-4.94,10.15-8.12s6.44-5.91,9.8-7.68c3.79-1.15,4.24-5.29,4.24-6.89,0-2.3,2.38-10.14,3.09-12.34S322.19,10,321.22,8.42Z"/><path class="cls-2" d="M202.15,345.44a3.89,3.89,0,0,1-1.06-.15l-.89-.24c-1.29-.34-2.52-.65-3-1.83a3.43,3.43,0,0,1,.78-3.08l.21-.31.33-.17.71-.35c2.7-1.3,4.06-2.23,4-3.69a1.91,1.91,0,0,0-1.47.89l-.65,1.13-1.18-.55a2.55,2.55,0,0,0-1.77.37l-.11.25-.17.15a12,12,0,0,0-1.63,1.84l-.71,1.59-1.37-1.11-4.93-3.56.12-.85h0a1,1,0,0,0-.29-.79,1.19,1.19,0,0,0-1-.18c-.27.1-.38.55-.42.81l-.66,4.08-2.19-4c-3.28-6-4.56-8.83-4.56-10.13v-.88l.78-.39a65.24,65.24,0,0,0,8.63-7.37l.13-.17.53-.37c1.86-1.3,4-2.78,3.36-8.75-.55-2-1.39-5.11-7-4l-.13,0c-1,.1-3.73,2.38-5.15,4.88l-.2.27c-1,1.07-4.26,4.21-4.4,4.34l-.72.7-.9-.45c-1.21-.61-3.1-1.78-4.76-2.81-1.16-.72-2.61-1.62-2.95-1.76a4.34,4.34,0,0,1-.49-.2,1.87,1.87,0,0,0-.27-.11s-.38.05-1.32,1.09c-.37.42-.8.92-1.27,1.47-2.33,2.73-5.51,6.48-8.67,7.57l-.11,0a6,6,0,0,0-.71.27c-1.67.69-4.76,2-8.77-1.88a9.41,9.41,0,0,1-3.8-4.58c-.12-.24-.92-1.37-1.57-2.28-2.11-3-3.12-4.46-3.26-5.4,0-.24-.15-.84-.3-1.64-1.11-5.85-1.75-9.76-1.52-11.2l.1-.66.58-.34c1-.61,3.34-2,4.21-6.74l.14-.76.72-.3c.09,0,8.45-3.42,11.21-4.34.69-1.52,1.64-5,.86-7.68-.25-.37-.53-.77-.81-1.18a14.52,14.52,0,0,1-1.88-3.1,2.25,2.25,0,0,0-1.61-1c-1.22-.17-4.44-.34-4.47-.34l-1.14-.06-.49-3,.61-.52,1.15-1a35.46,35.46,0,0,0,3.08-2.71,3.61,3.61,0,0,1,3.11-2.45A2.91,2.91,0,0,1,152,256a3.38,3.38,0,0,1,1.87-3.49,20.1,20.1,0,0,0-1.8-2.16,4.31,4.31,0,0,1-1.45-3.53,2.77,2.77,0,0,1,.74-1.51c.36-1,1.41-2,2.91-3.46a14.46,14.46,0,0,0,2.08-2.22,4.54,4.54,0,0,1,1.35-1.77c.44-.38.44-.38.4-.83s-.05-1-.06-1.41a7.4,7.4,0,0,0-1-3.84l-.11-.24,0-.26c-.61-7.11,2.28-9.55,3.83-10.86a5.28,5.28,0,0,0,.58-.54,11.69,11.69,0,0,1,2.67-2.72,12.89,12.89,0,0,0,2.27-2.21c.53-1.4,2.3-2.25,4.56-3.21.42-.18,1-.42,1.21-.55a3.89,3.89,0,0,0,.49-.63,2,2,0,0,0-.36-.3c-1.3-.89-4-.9-7.1-.81-4.67.18-5.93-2.83-7.65-7L157,201.3c-2.55-5-1.79-7.27-1.18-9.11a7.79,7.79,0,0,0,.36-1.31l.1-.66.56-.35a5.83,5.83,0,0,0,3.1-4.31,5.09,5.09,0,0,1-2.54-.87c-2.28-1.57-2.81-4.73-3.2-7-.07-.43-.14-.84-.21-1.2a12.8,12.8,0,0,1-.16-4.32,30.88,30.88,0,0,0,.13-4.38,29.3,29.3,0,0,0-2.27-8.87c-.43-1.15-.8-2.14-1-3l-.36-1.35c-.62-2.36-1.46-5.57-2.09-7.17a10.48,10.48,0,0,0-6.67-3.86c-2.22-.39-6.74,2.19-9.44,3.73-2.19,1.25-3,1.68-3.72,1.68-1.59,0-2.44-1.31-3.13-2.36a11.52,11.52,0,0,0-.94-1.3c-1.11-1.27-3.27-3.37-6.42-6.24a12.13,12.13,0,0,1-3.71-8.65c0-.35-.05-.66-.09-.93-.74-5.21-1.55-6.06-1.71-6.18a10,10,0,0,0-1-.4,12.65,12.65,0,0,1-3.64-1.9,24,24,0,0,0-8-3.42,23.21,23.21,0,0,1-10-6.3l-.76-1a23.73,23.73,0,0,0-5.27-5.44,6.47,6.47,0,0,0-3.61-.57c-1.74,0-3.72.09-5.53-1.48l-.09-.08c-1.8-1.86-4.39-2.14-6.27-2.34a13.92,13.92,0,0,1-1.79-.27,9.25,9.25,0,0,0-1.3-.18c-1.46-.14-3.9-.36-4.34-3-.11-.69-.51-2.28-.93-4a57.85,57.85,0,0,1-1.74-8.34c-1.09-1.58-4-1.34-7.57-.85a19.46,19.46,0,0,1-4.22.29A16.16,16.16,0,0,1,40,81.93c-.61-.31-1.26-.64-2-1-3.56-1.65-4.56-5.74-5.29-8.74l-.08-.33c-.57-2.31-1.48-2.78-3.34-3.56a5.57,5.57,0,0,1-3.18-3.08,5.1,5.1,0,0,1,.21-4.07l0-.09C28,58.18,33.78,58.64,39,59.3l.85.1c2.12-.16,5.9,1.09,9.93,2.5l1.51.52c1.83.61,2.79.23,5.83-1.2l.16-.07c1.45-.55,1.76-2.6,2-4.66,0-.42.08-.79.13-1.08,0-3.06-1.15-3.78-3-5-.43-.28-.88-.57-1.32-.89-2.83-1.84-10.31-1.63-14-1.09-2.48,1.67-4.75,2.13-6.75,1.34-3-1.19-4-4.66-4.18-5.7-1.14-4.47.85-6.68,3-8.24S45.68,28,47.67,27.26c.33-.12.58-.23.81-.32a3.68,3.68,0,0,1,3.69.13,20.47,20.47,0,0,1,5.16,4.16l.59.6a14.87,14.87,0,0,0,3.7,3c1.83,1,1.88,1,3,.13a6.81,6.81,0,0,0,1.86-2.75c.29-.61.61-1.29,1-2C68.29,28.77,71,25,75.61,19.08l.14-.18c.85-1.11,3-4.61,4.32-6.7l.86-1.38a1.25,1.25,0,0,0,0-.49l-.27-1.62,1.64,0c8.32-.16,24.46-.49,26-.62,2.15-.19,26.08-.8,29.69-.8,1.33,0,7.06-.22,13.69-.47,12.9-.49,28.95-1.11,32.53-.94,5.8,0,31.45-.53,34.66-.62.92,0,5,0,11.16,0,17.42,0,49.86.07,56.44-.52h.14c2.5,0,5.35.08,8.18.14,5.83.12,13.81.29,15-.05,1.33-.55,2.78-.08,4.18.37a9.17,9.17,0,0,0,2.12.51l1,0c1.83,0,4.1,0,5.31,2h0a1.19,1.19,0,0,0,.54.5c1.42.79,1.39,1.93.92,3.41-1.25,3.92-3,10.21-3,11.91,0,1.55-.37,6.68-5.11,8.21-4.79,2.53-7.85,4.91-9.12,7.08-1.6,2.74-6.11,8.17-10.5,8.77-.37.68-.34.85.68,1.5l.21.16.52.47a4.17,4.17,0,0,1,1.78,3.75l0,.34c-.38,1.51-3.2,6-4.06,7.39L288,72.71c-.91,1.44-2.37,3.78-2.67,4.38a8,8,0,0,1-2.08,2.18,9.8,9.8,0,0,0-1,.86c-.25.33-1.44,1.51-5.7,5.69-3.52,3.45-8.85,8.67-9.38,9.39-.57.88-.64,5.82-.12,8A74.21,74.21,0,0,1,268,117l0,.15c-.53,2.48-2,8.45-4.42,10.92-.87,1.4-6.81,10.64-12.53,13.64-.62.53-3.1,3.51-5.74,6.91-1.48,1.91-7.12,4.25-8.95,4.25h-.13c-1.5-.12-2.61-1.61-3.68-3.06-.26-.36-.51-.7-.74-1-1-1.13-5.23-6-8.13-8.91a3,3,0,0,0-2.3-1,3.68,3.68,0,0,0-2.24,1l-.13.22-.17.11-5.16,3.94a2.21,2.21,0,0,0,.42,1.4,24.05,24.05,0,0,1,1.38,3.08,28.16,28.16,0,0,0,1.15,2.68,52.25,52.25,0,0,1,4.26,14.94v.11c.1,2.63.08,5.42.06,7.88a46.66,46.66,0,0,0,.17,6.53,1.3,1.3,0,0,0,1.58.68,6.46,6.46,0,0,0,.72-.38,3.61,3.61,0,0,1,2.86-.65,3.39,3.39,0,0,1,2,1.89c1.27,2.57,4.21,8.67,4.49,10.2,0,.18.08.37.12.56.27,1.13.9,3.78-2,4.8l-.27.09c-1,.34-2.35.82-2.67,1.59a2.83,2.83,0,0,0,.33,2l.44,1.07c.61,1.5,2,4.92,2.85,5.62A24.78,24.78,0,0,0,235.9,207l1.08-.42.63,1a7,7,0,0,0,1.11,1.33c.8-.12,3.42-.65,5.21-1a41.62,41.62,0,0,1,4.61-.85c1.42,0,1.66,1.47,1.76,2.1A3.24,3.24,0,0,0,251,211c.4,0,.91,0,1.45-.08,2.44-.17,5.21-.37,6.56,1.06a2.65,2.65,0,0,1,.71,2.08,12,12,0,0,1-.71,3.62c-.57,2-1.27,4.42-.87,5.9l.12.44-.16.42c-.19.51-.41,1-.64,1.55-.7,1.6-1.3,3-.79,4.26.85,2.13,4.38,6.31,5.43,6.67l.3,0,.2.15c2.07,1.33,4.4,6.26,3,8.42a5.2,5.2,0,0,0-.47,1.11,2.68,2.68,0,0,1-1.49,2,2,2,0,0,1-1.79-.3,7.52,7.52,0,0,1-2-2.35,9.2,9.2,0,0,0-1.07-1.48,21.31,21.31,0,0,0-5.52-3.73c-3.07-1.54-8.72-3.34-10.51-3.15l-.22,0c-9.28,1-15.41,3.1-16.51,5.76,0,.21,0,.46,0,.73-.05,3-.18,10.16,1.86,14.13l.19.37,0,.42c0,.37-.09,1-.14,1.71-.13,1.58-.29,3.55-.45,4.71-.1.67-.13,1.42-.17,2.28,0,1.1-.1,2.35-.3,3.83a38.54,38.54,0,0,1-.83,3.87,27.89,27.89,0,0,0-.92,4.83c-.13,2.78.31,8.34,1.15,10,1.15,2.3.45,4.65-1.87,6.27-1.51,1.06-7.69,2.61-8.93,2.61h-4.86c.46.51.9,1,1.32,1.51a18.44,18.44,0,0,0,1.79,1.93c1.85.38,5.6,3.23,5.29,6.34a7.89,7.89,0,0,0,0,1.22c.07,1.7-.36,2.39-2.44,3.9-.81.59-1.68,1.12-2.52,1.63a13.26,13.26,0,0,0-2.65,1.87,13.19,13.19,0,0,0,2.61,3.27l.21.2.11.27A18.82,18.82,0,0,1,216,327c0,.5,0,.93.07,1.32a5.88,5.88,0,0,1-.59,3.71c-1.07,2-2.14,2.45-4.18,3a8.91,8.91,0,0,1-1.45.23c-1.48.15-2,.2-2.27,2.16-.24,1.73-1.05,5.86-3.41,7.4A3.58,3.58,0,0,1,202.15,345.44Zm-2-3.35.79.21,1,.26a.79.79,0,0,0,.71-.1,5.41,5.41,0,0,0,1.59-2.83,16.08,16.08,0,0,1-3.68,2.23l-.33.16Zm-8-6.85,2.56,1.85c.28-.32.62-.68,1-1.07a3.43,3.43,0,0,1,1.8-1.42,5.89,5.89,0,0,1,2.42-.36,5.33,5.33,0,0,1,4.66-1.41l.8.14.28.76c0,.12.09.24.12.36a4.94,4.94,0,0,1,3.72-1.62,6.93,6.93,0,0,0,1-.14c1.58-.42,1.85-.55,2.41-1.6a3.16,3.16,0,0,0,.26-2.12c0-.46-.08-1-.08-1.56a15.44,15.44,0,0,0-1.19-4.36c-.79-.78-2.86-3-3.24-4.61-.48-2.07,1.69-3.39,4-4.79.79-.48,1.61-1,2.33-1.5a5.37,5.37,0,0,0,1.29-1.09s0-.23,0-.4a10.44,10.44,0,0,1,0-1.62c.13-1.32-2.28-3.12-3-3.28-1-.11-1.92-1.15-3.39-2.87a22,22,0,0,0-3.57-3.6l-3.8-2.59h13.07a33.13,33.13,0,0,0,7.31-2.1c1.7-1.19,1.16-2.27,1-2.68-1.28-2.56-1.55-9.11-1.44-11.41a29.63,29.63,0,0,1,1-5.38c.32-1.31.63-2.54.77-3.57.18-1.35.24-2.53.28-3.57s.08-1.74.19-2.56c.15-1.07.32-3.07.43-4.53,0-.52.08-1,.11-1.35-2.17-4.64-2-11.93-2-15.09,0-.38,0-.7,0-.94v-.23l.07-.21c1.33-4.07,7.71-6.73,19-7.89l.21,0c2.84-.31,9.37,2.08,12.08,3.44a24.06,24.06,0,0,1,6.25,4.26,11.13,11.13,0,0,1,1.46,2l.41.63a5.93,5.93,0,0,1,.53-1.06c.2-.66-.91-3.53-2-4.42-2.49-.9-6.36-6.3-7.16-8.3-1-2.39,0-4.55.82-6.45.15-.34.3-.68.43-1-.38-2.16.38-4.79,1-6.94a13.32,13.32,0,0,0,.61-2.64l0-.17v-.21c-.64-.4-3.15-.21-4.24-.14a19.39,19.39,0,0,1-2.2.08l-.34,0-.3-.17a5,5,0,0,1-2.25-3.63l-3.08.62a57.68,57.68,0,0,1-6,1.09A3.81,3.81,0,0,1,235.9,210a19.81,19.81,0,0,1-4.44,1.12h-.16l-.15,0c-2-.31-3.29-3.13-5-7.39l-.41-1a5.18,5.18,0,0,1-.36-4.27c.81-1.94,2.94-2.68,4.35-3.17l.26-.09c.42-.15.48-.17.17-1.46-.06-.25-.12-.49-.16-.71a87.82,87.82,0,0,0-4.23-9.44,2.22,2.22,0,0,0-.25-.4,6.65,6.65,0,0,0-.65.34,9.29,9.29,0,0,1-1,.54,4.1,4.1,0,0,1-5.23-2.09c-.46-.92-.49-2.75-.45-7.77,0-2.42,0-5.15-.05-7.7a49.92,49.92,0,0,0-4-13.95,30.87,30.87,0,0,1-1.26-2.93,21.16,21.16,0,0,0-1.21-2.74c-1.74-3.13-.12-4.65.3-5h0L217,138.1a6.42,6.42,0,0,1,3.9-2,5.72,5.72,0,0,1,4.82,1.79c3,3,7.32,7.94,8.29,9.09.26.31.55.7.86,1.11a9.68,9.68,0,0,0,1.65,1.91c1.14-.13,5.72-2,6.58-3.16,1.57-2,5.33-6.78,6.4-7.53l.17-.1c4.85-2.47,10.72-11.26,11.59-12.77l.1-.17.15-.14c1.55-1.49,3-6,3.73-9.52a73.68,73.68,0,0,0-.86-12.78c-.51-2.13-.83-8.42.59-10.35.59-.81,4.22-4.38,9.68-9.73,2.53-2.48,5.14-5,5.44-5.4a9.05,9.05,0,0,1,1.4-1.31,8.9,8.9,0,0,0,1.36-1.27c.46-.92,2.57-4.25,2.8-4.62l7.23-11.55a57.52,57.52,0,0,0,3.67-6.42c0-.71-.09-.78-.81-1.41l-.5-.44c-3.25-2.13-1.91-4.52-1.4-5.43.07-.12.14-.24.19-.35l.39-.85.94,0h.07c2.79,0,7-4.3,8.82-7.42,1.57-2.69,5-5.37,10.36-8.22l.25-.1c3-.91,3.23-4.47,3.23-5.54,0-2.88,3-12.37,3.16-12.78l.08-.26A3.94,3.94,0,0,1,320,9.16h0c-.35-.58-1.38-.62-2.9-.63-.39,0-.78,0-1.16,0a11.18,11.18,0,0,1-2.86-.64,5.1,5.1,0,0,0-2.27-.43c-1.23.51-5.61.47-16.06.25-2.79-.06-5.6-.12-8.08-.14-6.86.59-39.21.54-56.62.52-5.92,0-10.2,0-11.08,0-3.21.09-28.92.62-34.8.62-3.53-.17-20.19.47-32.35.94-6.94.27-12.42.48-13.8.48-4.18,0-27.57.63-29.44.79s-19.81.51-24.91.61c0,.12-.06.25-.11.37l-.15.31-.95,1.52C81.06,16,78.93,19.41,78,20.64l-.14.18c-5.61,7.29-7.42,9.89-7.94,10.79-.37.63-.65,1.23-.92,1.81a9.31,9.31,0,0,1-2.66,3.77c-2.35,1.87-3.73,1.45-6.1.13a17.63,17.63,0,0,1-4.34-3.49l-.56-.57A18.73,18.73,0,0,0,51,29.65c-.76-.35-.76-.35-1.41-.08-.25.1-.55.23-.92.36-1.59.58-11.91,6.85-13.83,8.24-1.47,1.1-2.64,2.27-1.87,5.32.29,1.4,1.1,3.16,2.45,3.7s3.14-.35,4.35-1.21l.27-.19.32-.05c2.91-.48,12.17-1.22,16.36,1.5.46.33.86.59,1.24.84,2,1.29,4.28,2.76,4.28,7.47l0,.28c0,.24-.08.57-.11,1-.2,2-.56,5.77-3.72,7-3.12,1.47-5,2.33-7.95,1.33l-1.55-.54C46.52,63.76,41.63,62,40,62.24l-.17,0-.17,0-1-.13c-7.64-1-9.42-.23-9.79.32a2.22,2.22,0,0,0-.11,1.77A2.78,2.78,0,0,0,30.4,65.7c2.32,1,4.16,2,5,5.51l.08.34c.63,2.57,1.4,5.76,3.72,6.83.79.36,1.47.71,2.1,1a13.51,13.51,0,0,0,5.33,1.81,18,18,0,0,0,3.54-.28c3.67-.49,8.69-1.17,10.63,2.63L61,84l0,.42c-.08.88,1.06,5.44,1.66,7.89.45,1.81.84,3.38,1,4.18.06.34.15.48,1.81.64a11.37,11.37,0,0,1,1.72.25,12.36,12.36,0,0,0,1.41.2c2.17.24,5.44.59,8,3.14.92.77,2,.78,3.57.75a9,9,0,0,1,5.2,1,26,26,0,0,1,6,6.1l.72.93a20.91,20.91,0,0,0,8.55,5.35,26.72,26.72,0,0,1,8.8,3.81,10,10,0,0,0,2.94,1.56,12.31,12.31,0,0,1,1.36.54c1.59.75,2.53,3.16,3.27,8.32,0,.32.08.69.11,1.1.16,1.93.38,4.57,2.8,6.8,3.27,3,5.44,5.09,6.64,6.46a14,14,0,0,1,1.18,1.62,7.3,7.3,0,0,0,.75,1c.47-.2,1.49-.78,2.32-1.26,3.42-2,8.1-4.61,11.34-4.06a13.13,13.13,0,0,1,8.62,5.21l.12.24a77.69,77.69,0,0,1,2.26,7.66l.35,1.34c.19.72.54,1.65.95,2.73a31.52,31.52,0,0,1,2.45,9.76,33.51,33.51,0,0,1-.14,4.74,10.1,10.1,0,0,0,.11,3.5c.08.39.15.83.23,1.3.3,1.81.72,4.29,2,5.17a3.1,3.1,0,0,0,2.44.28l3-.61L163,184.7a5.87,5.87,0,0,0-.15.77,8.71,8.71,0,0,1-4,6.49c-.1.4-.22.77-.34,1.14-.51,1.55-1,3,1,7l0,.1.49,1.19c1.75,4.26,2.31,5.38,4.93,5.26,3.77-.1,6.8-.07,8.8,1.3a3.31,3.31,0,0,1,1.61,2.31,4,4,0,0,1-1.37,3l-.17.16a9.1,9.1,0,0,1-1.91,1c-.82.35-2.73,1.16-3,1.65-.36,1-1.41,1.92-3.07,3.33a13.47,13.47,0,0,0-2,1.91,4.84,4.84,0,0,1-1.24,1.34c-1.3,1.1-3.26,2.76-2.85,8.21a10,10,0,0,1,1.12,4.79c0,.37,0,.75,0,1.19a3.39,3.39,0,0,1-1.35,3.21,1.88,1.88,0,0,0-.6.72,11.71,11.71,0,0,1-2.75,3.2,16,16,0,0,0-2.17,2.31v.68l-.7.4a6.22,6.22,0,0,0,.76,1.08,28.74,28.74,0,0,1,3,3.88l.89,1.34-1.44.72-.62.29c-1.21.54-1.23.66-1.17,1.11.24,1.15.42,2.37.51,3l.12.84-.43.49A2.27,2.27,0,0,1,153,261c-1.11-.21-1.64-1.3-2-2.35-.15,0-.46.18-.63.74l-.08.25-.16.21a24.75,24.75,0,0,1-3.26,3c.93.06,1.93.15,2.54.23a5,5,0,0,1,3.92,3,17.49,17.49,0,0,0,1.51,2.37c.35.49.69,1,1,1.42l.1.16.06.18c1.25,3.89-.24,8.84-1.31,10.64l-.3.5-.57.14c-1.1.28-8.2,3.09-10.75,4.12-1,4.66-3.36,6.61-4.73,7.5.09,2.08,1.15,7.66,1.52,9.64.16.86.28,1.49.32,1.75a40.15,40.15,0,0,0,2.77,4.18,17.27,17.27,0,0,1,1.93,3,6.44,6.44,0,0,0,2.56,3.08l.22.1.17.17c2.75,2.71,4.33,2.06,5.87,1.44a9.15,9.15,0,0,1,1-.37c2.42-.87,5.41-4.38,7.4-6.71.49-.58.93-1.1,1.32-1.53,2.18-2.42,3.63-2.23,4.87-1.66l.19.08a23,23,0,0,1,3.57,2c1.23.77,2.59,1.61,3.66,2.21,1-1,2.7-2.63,3.45-3.41,1.6-2.72,4.86-5.83,7.15-6.13,8.13-1.61,9.7,4.15,10.21,6l.07.33c.81,7.72-2.41,10-4.54,11.48l-.19.13a69.31,69.31,0,0,1-8.51,7.37,53.7,53.7,0,0,0,3.08,6.34,3.23,3.23,0,0,1,.7-.39,4,4,0,0,1,3.8.63A3.82,3.82,0,0,1,192.16,335.25Zm21.47-32.67h0Zm-41-91.95Zm52.73-27.49Z"/></svg>