<svg id="Layer_2" data-name="Layer 2" xmlns="http://www.w3.org/2000/svg" viewBox="0 0 350 350"><defs><style>.cls-1{fill:#999;}.cls-2{fill:#f90;}</style></defs><title>M_</title><path class="cls-1" d="M327.23,157a10.09,10.09,0,0,0-5.92-4.41c-1.9-.56-3.59-.05-5.46-.28a11,11,0,0,0-2.11.45q-4.36-3.66-1.2-6.08a1.84,1.84,0,0,0-.84-3,58.41,58.41,0,0,0,1.24-14.84c-.16-3.15.09-8.67-3.15-10.48-2.3-1.29-4.09,0-6.54-2-1.54-1.24-2.66-2.92-4.23-4.15a13.58,13.58,0,0,0-3.43-1.89c-.51-.21-1.17,0-1.68-.2a14.64,14.64,0,0,1-1.55-.62c-.2-4.27,6.53-6.32,6.53-11.1,0-2.35-1.53-4.05-2.91-5.76a37.41,37.41,0,0,1-5.32-9c-2.24-5.15-4.37-9.5-9.5-12.18-4.23-2.21-8.72-4.08-6.51-9.94a8.74,8.74,0,0,1,.92-1.78,28.17,28.17,0,0,1,10.71-5.62,1.62,1.62,0,0,0,1.25-1.39c3.35-1.65,6.48-3.59,8.62-6.82,3.21-4.85,2.61-11.34-2.3-14.68a1.79,1.79,0,0,0-2.61,1.06c-.92,3.54-8.67-5.95-10.86-6.82s-4.74-.6-7.14-.3c-5.89.73-9.42.66-11.85-5.14-1-2.39-1.63-5.12-3.34-7.14-8.73-10.27-21.52,11.27-31,8.34a1.8,1.8,0,0,0-2.19,1.24c-.86,3.42-5.19,6.08-7.65,8.23a53.84,53.84,0,0,0-6.94,6.6c-2.11,2.63-3.34,5.39-3,8.51-6.75-.79-10,9.26-12.22,14.8l-6.93-2.41a1.8,1.8,0,0,0-2,.82,43.34,43.34,0,0,0-6.21,15.14l-.2.11a38.1,38.1,0,0,1-5.47,2.45A30.25,30.25,0,0,0,169.47,79a16.22,16.22,0,0,1-3.61,1.76,36.75,36.75,0,0,0-5,1.43l-8.32-1.89-10.76,0-.41.68c-2.39,3.94-5.45,8.54-6.34,9.26-.68.07-2.87-1-4.67-2.24l-.55-.38-6.68,1.89-16.49,1.43.5,1.33a4.53,4.53,0,0,1-.82.8c-.76-.82-2.08-2.11-4.4-4.22a57.81,57.81,0,0,1-4.15-4.37c-1.18-1.57-5.35-3.5-6.6-4l-.58-.26-.58.27c-2.41,1.12-5.39,2.74-5.95,4.13a9.52,9.52,0,0,1-2,2.32L78,91l1.54.93c2.77,1.68,1.69,7.71-.08,12.36l-.07.18a4.93,4.93,0,0,0-.16,1,15.48,15.48,0,0,1-1,4.64c-1,2.05-3.24,4.94-8.18,10.64l-.25.29-.07.37a13.45,13.45,0,0,1-2.08,4.6l-6.64-.6-2.37,5.93-4.92,4.83-5.3-4.48L41.62,128l-6.91,4.13,7,14.21h-4l2.37,6.85a31.94,31.94,0,0,1-5.6,1.31l-1.94.29,7.86,15.33-1.92,10.57,6.46,12.14H24.58l-3.12,4.27,6.07,8.51,4.06,1.59,10.35,12.58V222l6.17,8.41,7.24-5.4c1.79-.91,25.34-12.95,33.75-16.82-.19,3.54-.75,10.92-1.16,16a30.82,30.82,0,0,1-6.17,7.21c-4.43,3.84-9.1,7.22-9.15,7.25l-1.12.81,2.13,3.08-1.68,4.95.86,2.35h1a20.82,20.82,0,0,1,4.25.82,29.87,29.87,0,0,0,7.9,1.27l3.36-.07-2.4-2.35a3.59,3.59,0,0,1-1.32-2.62c.05-1.75,2-3.42,3-4.32l.29-.25c1.8-1.6,2.44-2.89,3.71-6.52s3.18-6.22,5-6.69a8.47,8.47,0,0,0,3.89-2.52,9.9,9.9,0,0,1,1.3-1.14,35.09,35.09,0,0,0,7.17,1.67c1.12.2,2.1.37,2.65.5,2.26.54,6.69.1,7.2.05a11.31,11.31,0,0,1,3.59.48,16.15,16.15,0,0,0,5.54,0c-1.35,2.08-3.15,4.88-4.2,6.58-1.67,2.7-11,10.71-13.36,12.3l-1.82,1.22,1.86,1.15c4.88,3,5.88,6.75,5.91,6.89l.41,1.72,1.59-.79a7.63,7.63,0,0,0,1.59-1.05,41,41,0,0,1,3.91-1.52l6.84,5,.73-.29s2.41-1,4.83-1.74a19.26,19.26,0,0,1-.43,2.71,10.84,10.84,0,0,0-.29,4.69c.54,2.18,3.57,4.59,5.4,5.87-1.71,2.43-5.5,7.93-6.62,10.39-.29.63-.66,1.38-1.08,2.21-1.74,3.49-3.91,7.84-3.76,10.83a47.41,47.41,0,0,0,1.78,8.46c.44,1.64.85,3.19,1.13,4.49a6.7,6.7,0,0,1-.81,5.18c-.23.48-.47,1-.69,1.5a35.37,35.37,0,0,0-1.26,4,27.11,27.11,0,0,1-1.08,3.45A12.62,12.62,0,0,0,128,327.2c.1,1.6,2.8,5.22,4.4,7.24l.39.5.63,0c4.59.25,11.71,1,13.18,2,2.67,1.71,4.33,1.86,9.85,2.36l.46,0c5.82.52,9.11.61,9.25.62h.47l.38-.27c6.5-4.62,16.92-11.8,19-12.62a9.7,9.7,0,0,0,3.91-3.16,4.78,4.78,0,0,1,1.84-1.64c2.42-.78,5.12-6,6.1-8l7.27-5.34,1.43-.19a22.23,22.23,0,0,0,4.66-.2c1.58-.3,8-2.2,10.29-2.86a18.56,18.56,0,0,0,4.42,2.86c1.74.75,4.43,3.68,5.31,4.75l.44.61.78-.11s1.74,0,3.83,3.28l.38.6.71,0c1.12.08,3.88,1.85,5.7,3a15.88,15.88,0,0,0,4.14,2.26,28.47,28.47,0,0,1,4.11,2,28.77,28.77,0,0,0,4.15,2c1.72.52,3-.09,4.72-.85.67-.31,1.44-.65,2.37-1,1.85-.7,3.36-1.2,4.28-1.49l1.48,2.38c2.94-6,5-12.57,10.59-16.56,1.88-7.78,5.67-18.07-1.68-24.06-3.51-2.86-8.25-3.94-12.33-6a2.37,2.37,0,0,1-2-1.15,2.45,2.45,0,0,1,1.05-4.2,46.71,46.71,0,0,1,3.93-7.2,2.54,2.54,0,0,1,.63-.92l.17-.24a2.54,2.54,0,0,1,3.48-.58c5.52-.46,11.05-.56,16.59-.58,4-7.81,8.06-15.56,11.57-23.56a16.71,16.71,0,0,1-2.35-1.3,40.43,40.43,0,0,0-2.7-3.27c-.08-.19-.19-.54-.28-.82a11.65,11.65,0,0,0-1.26-2.9c-.45-.65-1.36-2.22-2.08-3.48-.59-1-1-1.66-1.16-2-.52-.78-1.76-1.29-3.67-1.51a18.72,18.72,0,0,1-3.31-3,2.1,2.1,0,0,1,.57-.5l.61-.34.1-.69c.09-.66.3-2.13.35-2.84.27-.55,1.37-2.2,2.31-3.52l.2-.29.63-4.88.26-1.39-1.4-.18a3.51,3.51,0,0,1-1.43-1.08c-.5-.54-1.49-1.76-2.45-2.94-2.63-3.23-3.21-3.89-3.68-4.17a32.46,32.46,0,0,0-3.61-1.54l-1.94-.77c-1.28-.51-1.93-3.34-1.68-7.2a4.93,4.93,0,0,0-.41-2.25l.32,0,2.81-6.22-1.28-2.45c.75-.91,2-2.42,2.57-3.15.95-1.22,1.49-4.79,1.69-6.32l.19-2.11c.78-.3,1.54-.65,2.3-1a1.62,1.62,0,0,0,.62,2.33,12,12,0,0,0,2,1,20.11,20.11,0,0,1,4.82,3.44c1.24,1.22,2.17,3.17,3.6,4.13s1.88.22,3.21.81c3.2,1.42,3.8,2.34,4.22,5.39.2,1.47,2.07,1.51,3,.78,4.49-3.63,10.49,11.55,17.59,9.13,5.5-1.87,8.65-12.46,8.07-17.57-.22-2-1.53-3.73-1.74-5.63-.38-3.5,1.49-4.05,2.27-6.83A9,9,0,0,0,327.23,157Z"/><path class="cls-2" d="M167.11,341.38l-.94,0c-.37,0-3.68-.11-9.34-.62l-.46,0c-5.64-.5-7.54-.67-10.5-2.58-.85-.55-6.38-1.41-12.49-1.74l-1.27-.07-.79-1c-4.56-5.75-4.67-7.47-4.71-8-.11-1.73.35-3.63,1.54-6.36a26.19,26.19,0,0,0,1-3.25,36.37,36.37,0,0,1,1.31-4.19c.23-.57.48-1.08.73-1.59a5.32,5.32,0,0,0,.69-4.27c-.27-1.27-.68-2.8-1.11-4.41a48.23,48.23,0,0,1-1.83-8.75c-.18-3.36,2.08-7.89,3.9-11.53.41-.82.78-1.56,1.06-2.18a86.13,86.13,0,0,1,6-9.47c-2.1-1.61-4.29-3.73-4.82-5.85a12.06,12.06,0,0,1,.27-5.31l.07-.35c-1.44.52-2.54,1-2.55,1l-1.46.59-6.88-5c-1.5.54-2.51.94-2.87,1.11a9.36,9.36,0,0,1-1.76,1.14l-3.18,1.59-.83-3.46c0-.12-.92-3.32-5.28-6l-3.74-2.32,3.66-2.44C113,244.25,122,236.36,123.46,234c.68-1.11,1.68-2.67,2.66-4.2a11.59,11.59,0,0,1-3.17-.31,10.3,10.3,0,0,0-3.1-.44c-.83.09-5.22.5-7.65-.08-.52-.13-1.56-.31-2.56-.48a49.54,49.54,0,0,1-6.68-1.45l-.55.53a9.78,9.78,0,0,1-4.52,2.88c-1,.28-2.74,2.21-4,5.79-1.34,3.83-2.08,5.31-4.1,7.11l-.3.26c-.74.65-2.48,2.17-2.51,3.29a2.37,2.37,0,0,0,.9,1.56l4.81,4.71-6.73.13a30.44,30.44,0,0,1-8.2-1.29,21.32,21.32,0,0,0-4-.8h-2l-1.36-3.75,1.61-4.74-2.51-3.64,2.24-1.62s4.7-3.41,9.05-7.17a29.78,29.78,0,0,0,5.71-6.59c.34-4.22.75-9.57,1-13.23C78,215.08,58,225.29,56.1,226.25l-8.28,6.18-7.29-9.93v-2.18l-9.79-11.91-4.11-1.61-6.91-9.68,4.14-5.67H42.57L37,180.95l1.92-10.58-8.54-16.66,3.88-.59a38.15,38.15,0,0,0,4-.82L35.72,145h3.73l-6.58-13.34,8.72-5.22,7.72,4.15,4.31,3.65,3.79-3.71,2.65-6.64,6.84.62a10.93,10.93,0,0,0,1.42-3.38l.14-.74.5-.57c4.79-5.53,7-8.43,8-10.35a14.68,14.68,0,0,0,.9-4.16,5.86,5.86,0,0,1,.23-1.29l.08-.22c1.95-5.14,2.24-9.71.67-10.66l-3.09-1.87,5.34-5.34A9.94,9.94,0,0,0,82.77,84c.37-.93,1.48-2.47,6.66-4.87l1.16-.54,1.17.52c2.12.94,5.87,2.77,7.17,4.49a57.4,57.4,0,0,0,4,4.2q1.12,1,2,1.85l18-1.56,7.19-2,1.1.77a16.92,16.92,0,0,0,3.37,1.86,95.89,95.89,0,0,0,5.62-8.45L141,78.9l11.87.07,7.92,1.8a36,36,0,0,1,4.8-1.36,18.5,18.5,0,0,0,3.15-1.59,31.31,31.31,0,0,1,5-2.48,36.47,36.47,0,0,0,4.88-2.15,44.86,44.86,0,0,1,6.27-15,3.22,3.22,0,0,1,3.66-1.38l5.65,2,.16-.4c2.14-5.46,5.3-13.5,11.43-14a13.8,13.8,0,0,1,3.39-8A43.41,43.41,0,0,1,215,30.69l1.28-1.1c.55-.48,1.18-1,1.86-1.51,2.14-1.69,4.8-3.78,5.35-6a3.16,3.16,0,0,1,1.53-2,3.13,3.13,0,0,1,2.45-.29c3.43,1.07,8-2.12,12.32-5.2,6.34-4.46,13.52-9.51,19.3-2.71a17.45,17.45,0,0,1,2.84,5.6c.24.65.47,1.29.73,1.91,2,4.82,4.57,5,10.37,4.28l.12,0c2.51-.31,5.12-.63,7.72.41.94.38,2.12,1.45,4.11,3.31,1.38,1.28,3.81,3.55,5,4.09a3.26,3.26,0,0,1,1.87-1.78,3,3,0,0,1,2.77.29c5.3,3.6,6.48,10.91,2.69,16.63a21.48,21.48,0,0,1-8.61,7,3.06,3.06,0,0,1-2.06,1.77,26.77,26.77,0,0,0-10,5.21A7.27,7.27,0,0,0,276,62c-1.56,4.14.66,5.52,5.06,7.79l.77.4C287.27,73,289.56,77.49,292,83a36,36,0,0,0,5.12,8.67l.3.37c1.37,1.68,2.92,3.59,2.92,6.27,0,3-2,5-3.84,6.83a9.2,9.2,0,0,0-2.59,3.37l.49.17h.36a3.64,3.64,0,0,1,1.4.22A15,15,0,0,1,299.9,111a19.75,19.75,0,0,1,2.34,2.27,18.08,18.08,0,0,0,1.9,1.88,4.54,4.54,0,0,0,2.93,1,7.74,7.74,0,0,1,3.41.9c3.55,2,3.72,7.07,3.83,10.44,0,.43,0,.83,0,1.2A58.66,58.66,0,0,1,313.29,143a3.41,3.41,0,0,1,1.06,1.71,3.11,3.11,0,0,1-.76,2.92l-.18.17a1.61,1.61,0,0,0-.77,1.11c0,.28.14,1,1.47,2.28a12.43,12.43,0,0,1,1.59-.28l.17,0,.17,0a12.48,12.48,0,0,0,2,0,10.85,10.85,0,0,1,3.69.3,11.51,11.51,0,0,1,6.74,5.05h0a9.8,9.8,0,0,1-.17,10.79,4.55,4.55,0,0,0-.9,3.46,9.24,9.24,0,0,0,.76,2.37,12.08,12.08,0,0,1,1,3.25,24.48,24.48,0,0,1-1.85,10.69c-1.77,4.44-4.31,7.41-7.17,8.39-4.55,1.55-8.46-2.5-11.61-5.75-2.66-2.75-4.47-4.48-5.54-3.62a3.68,3.68,0,0,1-3.52.55,2.75,2.75,0,0,1-1.75-2.24c-.35-2.56-.61-3.05-3.39-4.28a1.36,1.36,0,0,0-.72-.11,4.12,4.12,0,0,1-2.7-.81,10.74,10.74,0,0,1-2.54-2.73,13.31,13.31,0,0,0-1.27-1.56,18.69,18.69,0,0,0-4.41-3.15,13.29,13.29,0,0,1-2.18-1.06,3.45,3.45,0,0,1-.92-.79l0,.53c-.46,3.6-1.12,6-2,7.06-.44.56-1.28,1.6-2,2.46l1.16,2.23-3.06,6.76a6,6,0,0,1,.18,1.89c-.25,3.76.45,5.56.81,5.81l1.91.76a31.28,31.28,0,0,1,3.82,1.64c.67.4,1.2,1,4,4.5,1,1.21,1.94,2.38,2.39,2.88a3.44,3.44,0,0,0,.76.66l2.7.34-.54,2.87-.66,5.15-.41.58c-.91,1.29-1.75,2.55-2.08,3.12-.08.78-.24,1.94-.33,2.62l-.2,1.38-.3.17c.45.4,1,.88,1.68,1.38,2.16.3,3.57,1,4.3,2.08.23.34.59,1,1.21,2s1.6,2.77,2,3.37a12.71,12.71,0,0,1,1.44,3.27l.17.49c.37.4,1,1.18,2.45,3a15.75,15.75,0,0,0,2,1.06l1.28.58-.56,1.28c-3,6.88-6.5,13.67-9.86,20.23l-2.13,4.17h-.86c-5.23,0-10.84.1-16.48.58l-.47,0-.4-.25a1.17,1.17,0,0,0-1.58.22l-.35.45a1.12,1.12,0,0,0-.27.41l-.14.26a45.18,45.18,0,0,0-3.81,7l-.29.66-.71.15a1.12,1.12,0,0,0-.73.83.79.79,0,0,0,.28.88l.23.19.14.26a1,1,0,0,0,.81.39l.29,0,.26.13c1.38.69,2.83,1.27,4.36,1.87a30.3,30.3,0,0,1,8.23,4.28c7.24,5.89,4.8,15.28,2.84,22.82-.24.92-.47,1.81-.68,2.67l-.12.52-.43.31c-4.19,3-6.25,7.52-8.42,12.34-.55,1.21-1.12,2.47-1.72,3.69l-1.13,2.29-2.24-3.61c-.85.28-1.93.66-3.16,1.12-.91.34-1.67.69-2.28,1-1.8.82-3.49,1.59-5.72.92a28.63,28.63,0,0,1-4.41-2.11,35.24,35.24,0,0,0-3.74-1.85c-1.14-.24-2.36-1-4.61-2.46-1.15-.74-4.21-2.72-5-2.81l-1.42-.1-.77-1.21c-1.32-2.09-2.36-2.52-2.63-2.6l-1.43.2-.9-1.27c-1.21-1.45-3.53-3.79-4.75-4.31a19.12,19.12,0,0,1-4.18-2.59c-2.88.85-8.22,2.4-9.7,2.68a23.31,23.31,0,0,1-4.86.23l-.94.13-6.7,4.91c-1.69,3.45-4.18,7.59-6.79,8.42a5.28,5.28,0,0,0-1.19,1.2,11,11,0,0,1-4.47,3.57c-1.66.66-10.8,6.85-18.68,12.45Zm-33.57-7.83c.28,0,11.47.64,13.87,2.18s3.82,1.66,9.21,2.14l.46,0c5.57.5,8.8.6,9.16.61.69-.49,16.34-11.61,19.28-12.78a8.4,8.4,0,0,0,3.34-2.75,5.74,5.74,0,0,1,2.5-2.09c1.25-.4,3.36-3.32,5.25-7.27l.15-.32,7.85-5.76,1.92-.26h.14a21.11,21.11,0,0,0,4.31-.18c1.22-.23,6-1.61,10.15-2.83l.74-.22.58.5a17.15,17.15,0,0,0,4.06,2.64c2.39,1,5.65,4.91,5.84,5.14l.12,0,.14,0c.81.05,2.76.57,4.89,3.93,1.38.1,3.6,1.47,6.37,3.25a17.45,17.45,0,0,0,3.66,2.07,24.49,24.49,0,0,1,4.49,2.12,29.29,29.29,0,0,0,3.88,1.89c1.16.35,2,0,3.73-.78.65-.3,1.46-.67,2.46-1,1.87-.71,3.4-1.21,4.36-1.52l1.05-.33.68,1.1.57-1.27c2.17-4.8,4.41-9.76,8.93-13.17.18-.72.37-1.46.57-2.21,1.85-7.11,3.94-15.16-1.89-19.91a27.78,27.78,0,0,0-7.48-3.84c-1.44-.57-2.93-1.16-4.36-1.86a3.79,3.79,0,0,1-2.67-1.62,3.62,3.62,0,0,1-1-3.56,4,4,0,0,1,2.15-2.69,47.32,47.32,0,0,1,3.72-6.75,3.92,3.92,0,0,1,.79-1.15l.12-.17a3.94,3.94,0,0,1,4.92-1.19c5.28-.43,10.51-.52,15.42-.55l1.35-2.63c3.15-6.13,6.39-12.46,9.24-18.85-.66-.36-1.13-.67-1.31-.79l-.19-.13-.14-.18c-1.64-2.1-2.31-2.86-2.58-3.13l-.21-.2-.11-.27c-.08-.19-.2-.55-.3-.85a11,11,0,0,0-1.1-2.59c-.49-.7-1.37-2.23-2.15-3.58-.5-.86-.92-1.61-1.11-1.88-.07-.11-.53-.65-2.65-.89l-.38,0-.31-.23a21.16,21.16,0,0,1-3.65-3.32l-.52-.79.53-.78a3.49,3.49,0,0,1,1-.93h0c.18-1.25.3-2.27.34-2.74l0-.28.13-.25c.37-.73,1.65-2.61,2.42-3.7l.58-4.52-.1,0a4.73,4.73,0,0,1-2.1-1.49c-.51-.56-1.45-1.71-2.44-2.93a40.49,40.49,0,0,0-3.37-3.93,35.19,35.19,0,0,0-3.4-1.44l-1.94-.77c-2.76-1.11-2.72-6.39-2.57-8.62a3.51,3.51,0,0,0-.3-1.6L270,187l1.38-.19,2.21-4.88-1.4-2.67.6-.73c.74-.9,2-2.4,2.54-3.12.41-.52,1-2.46,1.4-5.63l.26-2.93.81-.32c.71-.28,1.42-.6,2.18-1l4.49-2.28-2.64,4.29a.29.29,0,0,0-.05.19s.07.11.2.19a10.58,10.58,0,0,0,1.79.87l.16.07a21.52,21.52,0,0,1,5.15,3.68,15.45,15.45,0,0,1,1.56,1.91,8.63,8.63,0,0,0,1.83,2.05,1.39,1.39,0,0,0,1.06.34,4.16,4.16,0,0,1,1.94.36c3.56,1.57,4.55,2.85,5.06,6.49a.85.85,0,0,0,.67-.12c3.16-2.56,6.46.85,9.36,3.85s5.82,6,8.66,5c4.44-1.51,7.68-11.13,7.12-16.07a9.66,9.66,0,0,0-.79-2.49,11.46,11.46,0,0,1-1-3.15,7.3,7.3,0,0,1,1.3-5.25,7.91,7.91,0,0,0,1-2.12,7.53,7.53,0,0,0-.87-5.74h0a8.69,8.69,0,0,0-5.1-3.78,8.33,8.33,0,0,0-2.77-.19,15.33,15.33,0,0,1-2.29,0,9.7,9.7,0,0,0-1.69.37l-.74.24-.6-.5c-2.08-1.74-3.07-3.38-3-5a4.17,4.17,0,0,1,1.76-3.2.24.24,0,0,0,0-.23.6.6,0,0,0-.35-.38l-1.19-.4.25-1.23a56.6,56.6,0,0,0,1.21-14.48c0-.39,0-.81,0-1.26-.1-2.89-.23-6.85-2.38-8.06a5.11,5.11,0,0,0-2.27-.55,7.33,7.33,0,0,1-4.47-1.61,20.47,20.47,0,0,1-2.21-2.17,17.34,17.34,0,0,0-2-2,12.09,12.09,0,0,0-3.09-1.69h-.35a3.83,3.83,0,0,1-1.25-.16,15.93,15.93,0,0,1-1.7-.68l-.77-.36,0-.85c-.13-2.73,1.81-4.65,3.52-6.35,1.55-1.53,3-3,3-4.82,0-1.67-1.11-3-2.28-4.48l-.31-.38a38.67,38.67,0,0,1-5.51-9.31c-2.27-5.2-4.23-9.07-8.86-11.49l-.76-.39c-4-2.06-8.94-4.61-6.41-11.31a10.21,10.21,0,0,1,1.06-2.06l.11-.17.16-.13a29.51,29.51,0,0,1,11.23-5.9c.21-.06.22-.13.23-.2l.09-.76.69-.34c3-1.48,6-3.26,8.07-6.33,3-4.49,2.15-10-1.92-12.73a.25.25,0,0,0-.18,0,.44.44,0,0,0-.26.23A2.3,2.3,0,0,1,291,34.36c-1.92.56-4.28-1.47-7.93-4.87a23.88,23.88,0,0,0-3.23-2.75c-1.93-.77-4.06-.51-6.32-.23l-.12,0c-6,.75-10.51.75-13.33-6-.28-.66-.53-1.35-.78-2A15.11,15.11,0,0,0,257,13.76c-3.83-4.51-8.42-1.8-15.51,3.19-4.93,3.47-10,7.06-14.8,5.58a.34.34,0,0,0-.22,0,.36.36,0,0,0-.17.18c-.79,3.15-3.87,5.58-6.35,7.53-.63.5-1.23,1-1.75,1.42l-1.3,1.12a41.24,41.24,0,0,0-5.46,5.29c-2.1,2.63-3,5-2.74,7.49l.16,1.74-1.74-.2c-5-.6-7.95,6.82-10.07,12.24-.23.59-.46,1.16-.67,1.68l-.51,1.25-8.2-2.85a.57.57,0,0,0-.35.25,42.06,42.06,0,0,0-6,14.65l-.13.64-.76.43a39,39,0,0,1-5.7,2.56,29.25,29.25,0,0,0-4.53,2.26,15.28,15.28,0,0,1-4.08,1.93,36.25,36.25,0,0,0-4.73,1.37l-.39.14-8.57-1.94-9.8,0c-1.4,2.31-5.31,8.53-6.66,9.62l-.33.26-.42,0c-1.78.19-5.43-2.35-5.63-2.49l-6.3,1.76L108.66,92.2l.11.3-.46.62a6,6,0,0,1-1.08,1.06l-1,.82-.89-1c-.85-.92-2.31-2.32-4.31-4.13a62,62,0,0,1-4.34-4.57c-.62-.83-3.05-2.28-6-3.6-4.71,2.18-5.21,3.32-5.23,3.37A10.89,10.89,0,0,1,83,88l-2.72,2.72c4.41,2.68,1.5,11.45.51,14.07l-.06.16s0,.29-.08.64a16.63,16.63,0,0,1-1.19,5.14c-1.09,2.17-3.35,5.13-8.37,10.93a14.88,14.88,0,0,1-2.3,5.13l-.47.69-6.42-.58-2.09,5.23L53.76,138l-6.17-5.22-5.93-3.15-5.1,3.05L44,147.79H39.7l2.17,6.27-1.28.49a33,33,0,0,1-5.89,1.38l7.18,14L40,180.49l7.33,13.79h-22l-2.09,2.86,5.23,7.33,4,1.57L43.36,219.3v2.27l5.05,6.88,6.29-4.67c1-.53,25.29-12.92,33.8-16.84l2.13-1-.13,2.35c-.18,3.43-.72,10.51-1.16,16l0,.32-.17.28a32.31,32.31,0,0,1-6.46,7.56c-4.42,3.82-9,7.14-9.24,7.32l1.74,2.53-1.75,5.15.35,1a21.48,21.48,0,0,1,4.59.87,28.66,28.66,0,0,0,7.5,1.23,5,5,0,0,1-1.74-3.66c.07-2.37,2.28-4.3,3.47-5.34l.29-.25c1.49-1.32,2-2.32,3.3-5.92,1.47-4.21,3.64-7,5.94-7.59a7.11,7.11,0,0,0,3.26-2.16,10.93,10.93,0,0,1,1.49-1.3l.66-.45.73.33a35.66,35.66,0,0,0,6.83,1.57c1.09.19,2.13.37,2.74.52a26.37,26.37,0,0,0,6.72,0,12.15,12.15,0,0,1,4.1.52,14.62,14.62,0,0,0,5,0l3-.38L130,229c-1.33,2.05-3.13,4.85-4.18,6.55-1.87,3-11.56,11.25-13.77,12.73,5.37,3.33,6.49,7.57,6.53,7.75h0a6.2,6.2,0,0,0,1.25-.82l.27-.2c.77-.44,3.59-1.43,4.14-1.62l.7-.24,6.81,5c.11,0,2.49-1,4.94-1.77l2-.62-.11,2a20.24,20.24,0,0,1-.45,2.9,9.93,9.93,0,0,0-.3,4.08c.31,1.26,2.12,3.15,4.84,5.05l1.16.81-.81,1.16c-1.59,2.27-5.41,7.79-6.49,10.16-.29.64-.68,1.41-1.1,2.26-1.58,3.17-3.75,7.51-3.61,10.13a46.74,46.74,0,0,0,1.73,8.17c.44,1.65.86,3.22,1.15,4.57a8,8,0,0,1-.92,6.09c-.22.45-.44.91-.65,1.41a34.42,34.42,0,0,0-1.2,3.86,27.92,27.92,0,0,1-1.15,3.64,11.42,11.42,0,0,0-1.31,5.05C129.48,327.62,130.38,329.56,133.54,333.55Z"/></svg>