<svg id="Layer_1" data-name="Layer 1" xmlns="http://www.w3.org/2000/svg" viewBox="0 0 350 350"><defs><style>.cls-1{fill:#999;}.cls-2{fill:#f90;}</style></defs><title>M</title><path class="cls-1" d="M343.75,163.94l-3-13.67-3.27-8.51s-.08-1.56-.16-2.86,2.37-3.85,2.37-3.85l-.65-5.73s-2.95,1.64-6,3.11c-5.24-3.27-4.83-2.13-3.36-5.65s-.33-9.17-.33-9.17a1.62,1.62,0,0,0-2.29-.49c-1.39.9-5.73.25-5.73.25l-.82-5.08s-1.64-2.13-1.88-2.29a19.29,19.29,0,0,0-3.44.82s-1.72.57-2-.9,2.87-3.77,2.87-3.77l-.57-3.85L313.14,101s-.49-3.85-.65-4.42-4.58-3.11-4.58-3.11L305,86.09l4.5-2.62-1.72-4.58,1.72-.74.82-4.83s-6.79-1.47-9.25-4.26c-1.39-3.93-6.55-7.37-6.55-7.37l-2.13,1.64a22.66,22.66,0,0,0-3.6-1.06c-1-.08-1.72,2.54-2.54,1.64s-1.39-7.45-1.39-7.45l-6.22-3.77-5.57-2.95-2.62-4.58L265.9,43l-3,.49s.86,4.67,2.09,5.4,1.6,2,1.84,4.05.49,5.89-.12,8-4.3,2.33-4.3,2.33L258.82,63,256.61,67s-2.21-3.78-3.19-2.92-3.19,1.35-3.32,2.33a4.19,4.19,0,0,1-1.11,2s-1.35.49-1.35,0a9.26,9.26,0,0,0-.49-1.84h-1s-2.58-3.56-2.58-4.91a15.58,15.58,0,0,0-.37-2.95L241,58.51l-6.75,3.81L234,64.15l2.21,10.44s-3.81-1.47-4.91,0-2.95,2-2.7,3.68.37,4.42.37,4.42l.12,3.07s3.32,3.32,4.17,3.56a16.65,16.65,0,0,1,1.72.61l-2.46,4.3c-.49.86-2,1.23-2.46,1.72S227.88,93,227.88,93l-2,1.84s-5.77-1.11-7-.74l-1.23.37.49,1.52s-5.53.57-6.63,1.55l-1.11,1,.12,4.67s-4.05-2.09-5.4-2.09h-3.07s-.61-2.58-2.58-2.7l-2-.12-1.47-1.47s.25-2.21-.74-2.46-3.56.25-3.93,1.72-2.82,4.91-5.65,5.53c-.74,3.44.49,3.93-1.23,5.16a15.77,15.77,0,0,1-3.44,1.84s.61,2-2.46,3.68a36.52,36.52,0,0,1-6.26,2.7s-.25,2.82-2.33,2-3.56-1.6-3.56-1.6-1.23-3.32-2.21-3.44a13.43,13.43,0,0,1-2.33-.61l-1.72-2-2.95-.25L155.93,106l-4.54.86-1.6,2.21-4.54.86a13.34,13.34,0,0,1-.74,3.93,10.57,10.57,0,0,1-2.7,2.7l-2.46-2.82-2.58-1.35a9,9,0,0,1-1.84,3.07,7.8,7.8,0,0,1-3.56,1.64s-1.6-.53-2.82,1.43a3.9,3.9,0,0,1-3.07,2l-5-1.35-1.23-7-2.09-1-.74-3.32.49-2.21s-5.65-16-6.63-16.94-.25-12.28-2-16.33a94.5,94.5,0,0,1-3.19-9.21s-6-7.61-3.93-23C92.81,38,78.82,33.58,78.82,33.58s-.49,2.46-1,4.42-1.11,2.82-2.46,5.16A35.48,35.48,0,0,0,72.19,53,99.54,99.54,0,0,0,71.08,63.3c0,1.72.61,7,0,9.58s-1.6,5-1.6,7,.61,7.86.61,7.86-11.54-5.28-15.84-4.54-7,2.21-9.21,5.16S40,94.61,35,95.71s-28.73,5.4-28.73,5.4l10.31,54.64s-.57,3.77.41,5.57,4.5,1.88,4.5,1.88a4.4,4.4,0,0,0,.9,2.37c.9,1.23,1.8,1.47,1.8,2.29s-.25,2.62-.33,3.19a2.92,2.92,0,0,1-.41,1.06l-2.87,2.54s-1.39-1.06-2.13-.41l-.74.65,2.21,3.44s-2.37,1.8-2.54,2.37.08-.41-.16.57a6.69,6.69,0,0,0-.25,1.39,12.86,12.86,0,0,0-.82,3.68c0,1.56,1.64,5.4,1.64,5.4s2.46.08,2.54.41.08,4.17.08,4.17l1.15,1.23,1,2.7,1.64-.66a2.56,2.56,0,0,0,1.64,1.88,9,9,0,0,0,3.11,0,45.58,45.58,0,0,1,1.8,8.35c.16,3.11,2,9.17,1.72,10.72-2.13,0-2.37.49-2.37.49L30,227.62l3.77.49c.57.08,2.54,2.87,2.95,3.85s.57,3.44.82,4.09A49.5,49.5,0,0,1,39,242.69a15.47,15.47,0,0,0,.74,3.19s5.16-2.86,6.47-3A32.16,32.16,0,0,0,50,242l1.15-.49s2.13,9.66,2.54,11.54,0,1.56,0,1.56l1.88,4.83s-2.37,1.47-4.17.9a10,10,0,0,1-3.19-1.8l-2.62-.9s-5.89,2.54-6.47,3.52-1.06,1.72-1.72,3-7.2,13.18-6.38,17.11L32.69,284,38,290.9,45.71,315l4.42-4.75,6.14-4.09,9.09-1.31,5.08.57,2.46,4.34,7.61,1.15-.49,5s4.83-.74,7.45-2.21c.65-5.81-2.29-15-2.29-15l2.7-1.06,2.78,3.11,7-2.62s-5.4-14.65-5.73-18.34c2,.74,7.2-.33,7.2-.33s2-.9,4.34-2,13.75-6.06,16.45-7.2c3.36-.41,5.4,5.4,5.4,5.4a13.48,13.48,0,0,1,3.68,3.44c2.21,2.7,6.47,1.8,6.47,1.8l6.3-2.7,5.65-7.2a33.67,33.67,0,0,0,4.09-3.44c2-2,.9-6.22.65-7s-1.39-6.88-2.21-10.89a20.84,20.84,0,0,1-.16-7.37l3.36-.82,6-3.11a16.84,16.84,0,0,1,4.91-1.06l-.74-2.21,3.93-1.15,2.29,7-2.13.9-.74,7.12s.57,2.37,1.06,3.77,2.87,6.71,2.87,6.71l4.91,9.82,3.93,1.64,9.9.74L189,270.6c1.56-3.6,4.67.49,4.67.49l2.7-.65a3.81,3.81,0,0,0,.9-2.78,4.91,4.91,0,0,1,.9-3,23.56,23.56,0,0,0-.57-3.6c-.49-2.13.49-3,3.44-4.26,4.34-1.64,10.4,1.15,10.4,1.15l3.27-1.31-4.17-8.35,15.47-9s-7-11.38-7.78-12.93-.08-6.3-.08-6.3l10.56-.9s8.27.65,10.31,2,.08,3.77.08,3.77l2,3.6,14.41,3.85,3.19-2.29,8.27-9.25a49.12,49.12,0,0,0,4.09-3.27,8.24,8.24,0,0,1,4.75-2l1.47,2a10.11,10.11,0,0,0,3.44,2.54l.57-2.95,5.08-2.13L285,209.7l2.87-8.43,4.83.57,2.87-3.85,2-.25c2-.25,7.53-1.31,7.53-1.31a74.41,74.41,0,0,1,1.64,11.3c1.47-1.55,6.79-1.06,6.79-1.06l-.25-3.44,9.91-6.47a12.15,12.15,0,0,1,5.81,1.06c1.8-.9,1.8-2.37.9-3s-3.19-6-3.19-6,3.77-1.31,9.33-2.86c-1.39-8,.57-17.84.57-17.84Z"/><path class="cls-2" d="M45.09,317.71l-8.36-26.13-5.25-6.8-1.85-3-.05-.24c-.57-2.76,1.39-8.29,6.17-17.39l.33-.64c.51-1,.92-1.71,1.33-2.38l.44-.73c.2-.34.81-1.39,7.13-4.11l.5-.22,3.4,1.17.21.19a8.66,8.66,0,0,0,2.68,1.51,3.31,3.31,0,0,0,1.95-.25l-3.32-8.52,1.41,1.13-1.74-7.89a30.27,30.27,0,0,1-3.71.87,39,39,0,0,0-6,2.86l-1.49.83-.54-1.62a15.48,15.48,0,0,1-.81-3.64,52.32,52.32,0,0,0-1.38-6.13,10,10,0,0,1-.37-1.87,13.53,13.53,0,0,0-.43-2.18,14.79,14.79,0,0,0-2.12-3L29.81,229l-1.25-.16.1-8.14.15-.29A2.77,2.77,0,0,1,31,219.25c-.15-1-.46-2.48-.7-3.57a41.46,41.46,0,0,1-1-5.74,37.74,37.74,0,0,0-1.41-6.88,8.27,8.27,0,0,1-2.43-.17,3.46,3.46,0,0,1-2-1.45l-1.75.7-1.38-3.8L19,196.91v-.56c0-1.07,0-2.28,0-3.08-.36,0-.81-.07-1.22-.08l-.9,0-.35-.83c-.29-.69-1.75-4.2-1.75-6a13.36,13.36,0,0,1,.84-4,10.16,10.16,0,0,1,.27-1.43c0-.08,0-.19.09-.31v-.06h0l0-.13h0l0-.11c.08-.29.24-.84,2-2.3l-2.17-3.38,1.64-1.46a2.63,2.63,0,0,1,2.89-.27l1.93-1.71a1.35,1.35,0,0,0,.12-.36c.13-.94.29-2.19.31-2.84l-.28-.27a8.69,8.69,0,0,1-1.24-1.34,6.25,6.25,0,0,1-1-1.9c-1.39-.2-3.61-.79-4.55-2.52-1.05-1.93-.73-5.22-.6-6.21L4.59,100,6,99.72c.24,0,23.73-4.3,28.68-5.39,4.54-1,7.15-4,9.24-6.83,2.4-3.19,5.42-4.9,10.1-5.7,3.52-.6,10.71,2.12,14.43,3.68-.18-1.89-.39-4.4-.39-5.6a18.71,18.71,0,0,1,1-4.93c.22-.78.46-1.58.65-2.39.4-1.68.2-4.95.06-7.11-.06-.9-.1-1.66-.1-2.14a101.32,101.32,0,0,1,1.12-10.55,36.74,36.74,0,0,1,3.36-10.3l.54-.92a12.77,12.77,0,0,0,1.77-3.87c.48-1.91,1-4.33,1-4.35l.31-1.55,1.51.48c.14,0,14.06,4.44,22.28,6.61l1.21.32-.17,1.24c-2,14.48,3.58,21.82,3.64,21.9l.17.22.08.27a93.92,93.92,0,0,0,3.13,9c1.07,2.51,1.26,7.06,1.42,11.07a34.57,34.57,0,0,0,.39,5c1.16,1.65,4.31,10.21,6.81,17.28l.14.38-.51,2.3.52,2.33,2.12,1,1.2,6.83,3.92,1.05a2.66,2.66,0,0,0,1.74-1.28,4,4,0,0,1,4-2.13,6,6,0,0,0,2.55-1.19,7.59,7.59,0,0,0,1.5-2.52l.53-1.57,4.28,2.24,1.74,2a5.77,5.77,0,0,0,1.25-1.38,11.5,11.5,0,0,0,.59-3.36l.05-1.12,5.09-1,1.6-2.21,6.21-1.17,1.46,3.33,2.68.22,1.85,2.11a10.59,10.59,0,0,0,1.69.43c.43.05,1.71.21,3.15,3.81.59.28,1.66.78,3,1.32l.13,0a2.23,2.23,0,0,0,.26-.83l.09-.93.9-.29a35.47,35.47,0,0,0,6-2.58c1.93-1.08,1.78-2.06,1.78-2.1l-.62-1.4,1.51-.29a14.56,14.56,0,0,0,3.09-1.66,1.43,1.43,0,0,0,.37-.33,4,4,0,0,0,0-.64,12.71,12.71,0,0,1,.28-3.33l.19-.89.89-.19c2.2-.48,4.31-3.42,4.57-4.48a3.75,3.75,0,0,1,2.65-2.5,5.79,5.79,0,0,1,3-.25c1.38.35,1.86,1.81,1.84,3.28l.64.64,1.43.09a4.25,4.25,0,0,1,3.49,2.7h2.07a12.37,12.37,0,0,1,3.92,1.22l-.08-3,1.6-1.42c1-.87,3.66-1.4,5.7-1.69l-.41-1.26,2.61-.79c1.23-.37,4.63.15,7,.57l2.83-2.65.85,1.7a20.13,20.13,0,0,0,1,1.84l.15-.07a3.78,3.78,0,0,0,1-.61l1.62-2.83h0c-.81-.23-2.42-1.55-4.79-3.92l-.39-.39-.14-3.62s-.12-2.65-.36-4.28c-.27-1.9,1-2.94,1.89-3.69a6.51,6.51,0,0,0,1.08-1c1-1.28,2.69-1.36,4.18-1.13l-1.78-8.41.37-2.78,7.73-4.36,3.69.2.24,1a16.91,16.91,0,0,1,.41,3.27,13.43,13.43,0,0,0,1.9,3.49h1.24l.34.93.14.41a.85.85,0,0,0,.07-.22c.17-1.36,1.45-2,2.58-2.54a6.66,6.66,0,0,0,1.21-.68,1.92,1.92,0,0,1,1.6-.45,4.47,4.47,0,0,1,2.42,1.76l1.53-2.7,4.35.3c1.13-.1,2.73-.6,2.94-1.31.5-1.7.35-5.06.08-7.42-.25-2.11-.57-2.65-1.16-3-1.55-.93-2.39-4.38-2.75-6.36l-.26-1.42,4.89-.79,5.39,2.5,2.64,4.62,5.2,2.75,6.91,4.18.06.72c.16,1.86.45,4,.72,5.38a2.33,2.33,0,0,1,1.91-.86,17,17,0,0,1,3.24.88L294.49,60l.85.56c.22.15,5.33,3.59,7,7.79,1.89,1.91,6.61,3.26,8.32,3.63l1.32.29-1.17,6.92-1.19.51,1.66,4.44-4.49,2.61L309,92.48c4.5,2.61,4.67,3.21,4.81,3.7s.43,2.56.61,3.92l2.36,1.3.8,5.38-.69.51a9.58,9.58,0,0,0-2.18,2.18h0c3.85-1.18,4.14-1,4.66-.65.19.12.44.29,2.22,2.61l.22.28.71,4.38a9.19,9.19,0,0,0,3.73-.16,3,3,0,0,1,4.25.91l.16.34c.08.25,1.94,6.19.28,10.15-.19.44-.35.82-.5,1.13s-.19.43-.27.6c.3.21.81.51,1.32.81l1.57.94c2.7-1.34,5.18-2.72,5.21-2.73l1.86-1,1,8.5-.46.48a8.65,8.65,0,0,0-2,2.82c.06,1,.13,2.13.15,2.61L342.1,150l3.25,14.68L337.91,169c-.39,2.24-1.59,10.17-.45,16.71l.22,1.26-1.23.34c-3.44,1-6.2,1.83-7.78,2.35a23.86,23.86,0,0,0,2.15,4,2.77,2.77,0,0,1,1.11,2.47,3.74,3.74,0,0,1-2.27,2.93l-.59.3-.61-.27a11.25,11.25,0,0,0-4.78-1l-8.9,5.81.31,4.27-1.66-.15c-2.2-.2-5,0-5.64.63l-2.23,2.35-.21-3.24a75.65,75.65,0,0,0-1.31-9.74c-1.78.33-4.82.89-6.27,1.07l-1.44.17-3,4-4.5-.53-2.36,6.94,1.6,6.1-5.51,2.31-.77,4-1.63-.73a11.23,11.23,0,0,1-4-3l-1-1.35a7,7,0,0,0-3.16,1.58,51.66,51.66,0,0,1-4.08,3.28l-8.39,9.34-3.74,2.68-15.63-4.17-2.82-5L238,224a2.21,2.21,0,0,0,.52-1.31c0-.06,0-.2-.3-.38-1.18-.8-6.23-1.53-9.51-1.8l-9.29.79a13,13,0,0,0,.09,4.38c.52,1.09,4.89,8.25,7.7,12.79l.77,1.24-15.58,9.07,4.27,8.54-5.27,2.11-.55-.25c-.06,0-5.58-2.52-9.31-1.11-2.88,1.2-2.78,1.64-2.56,2.61a24.88,24.88,0,0,1,.61,3.84l0,.56-.36.43a3.66,3.66,0,0,0-.56,2.11,5.17,5.17,0,0,1-1.36,3.83l-.27.24-4,1-.56-.74c-.61-.79-1.55-1.48-1.82-1.41a.63.63,0,0,0-.19.21l.77,2.49-12.2-.91-4.63-1.93-5.15-10.29c-.12-.28-2.43-5.45-2.93-6.87s-1.08-3.8-1.11-3.91l-.06-.24.85-8.2,1.7-.72-1.46-4.5-1.2.35.85,2.54-1.82.13a14.79,14.79,0,0,0-4.35.91l-6,3.11-.32.12-2.42.59a20.18,20.18,0,0,0,.28,5.94c.3,1.46.64,3.2,1,4.85.5,2.56,1.08,5.46,1.21,5.91.29,1,1.58,5.86-1,8.45a35.22,35.22,0,0,1-4.11,3.47l-5.74,7.33-6.9,2.93c-.21,0-5.13,1-7.86-2.29a12.93,12.93,0,0,0-3.24-3.08l-.49-.26-.2-.53c-.53-1.49-2.12-4.47-3.73-4.48-3.09,1.31-14,6.06-16.19,7.09s-4.37,2-4.37,2l-.29.09a29.28,29.28,0,0,1-5.73.61c1,4.24,4,12.75,5.31,16.17l.49,1.32-9.18,3.46-2.77-3.1-.57.22c.8,2.79,2.51,9.51,2,14.3l-.08.72-.63.36c-2.81,1.58-7.72,2.34-7.93,2.38l-1.8.28.54-5.47-7-1-2.44-4.31-4.18-.47-8.59,1.24-5.73,3.82Zm28.68-9.28L82,309.67l-.44,4.45a23.92,23.92,0,0,0,4.51-1.37c.3-5.46-2.27-13.55-2.3-13.64l-.41-1.26,4.85-1.91,2.79,3.12,4.74-1.78c-1.39-3.84-5-14.16-5.33-17.38l-.2-2.24,2.11.79c1.07.4,4.25,0,6.28-.36.5-.22,2.25-1,4.17-1.89,2.3-1.07,13.73-6.05,16.5-7.22l.18-.08.2,0c3.83-.47,6.07,4.22,6.73,5.85a17.56,17.56,0,0,1,3.63,3.5c1.45,1.78,4.34,1.43,5,1.33l5.82-2.49,5.56-7.09.18-.12a32.55,32.55,0,0,0,3.9-3.27c1.11-1.11.77-4,.3-5.63-.17-.56-.59-2.71-1.28-6.18-.32-1.65-.67-3.38-1-4.83a22.2,22.2,0,0,1-.17-7.92l.17-.89,4.07-1,5.82-3a12.67,12.67,0,0,1,3.68-1l-.65-2,6.66-1.94,3.12,9.58-2.56,1.08-.62,6c.15.62.59,2.33,1,3.39s2.17,5.14,2.82,6.61l4.65,9.29,3.23,1.35,7.91.59,0-.08a3.38,3.38,0,0,1,2.68-2.32c1.57-.19,3,1,3.79,1.79l1.37-.33a3.34,3.34,0,0,0,.31-1.53,6.74,6.74,0,0,1,.86-3.4,25,25,0,0,0-.5-2.92c-.8-3.46,1.57-4.75,4.27-5.88,4.09-1.54,9.24.23,11,.92l1.3-.52-4.08-8.16L224,238.76c-1.9-3.09-6.46-10.51-7.09-11.83-.85-1.8-.37-5.89-.21-7.1l.15-1.12,11.81-1h.12c1.44.11,8.76.76,11,2.29a3.35,3.35,0,0,1,1.52,2.33,4.39,4.39,0,0,1-.58,2.65l1.33,2.34,13.19,3.52,2.52-1.81,8.41-9.35a48.4,48.4,0,0,0,4-3.17,9.7,9.7,0,0,1,5.64-2.4l.76,0,.44.62,1.47,2a5.37,5.37,0,0,0,1.27,1.16l.34-1.75,4.64-1.95-1.19-4.54,3.37-9.92,5.16.61,2.74-3.68,2.65-.32c2-.24,7.38-1.28,7.43-1.29l1.33-.26.32,1.32a74.15,74.15,0,0,1,1.51,9.46,15.09,15.09,0,0,1,4-.39l-.19-2.67,10.88-7.1.32,0a13.34,13.34,0,0,1,5.84.88.61.61,0,0,0,.22-.3c-1-.72-2.55-4-3.67-6.55l-.6-1.4,1.44-.5s3.32-1.15,8.21-2.55c-1-7.9.69-16.71.77-17.1l.12-.62,6.78-4-2.78-12.56L336,142.05v-.22s-.08-1.55-.16-2.85c-.09-1.48,1.34-3.34,2.31-4.42l-.34-3c-1.13.6-2.65,1.4-4.19,2.14l-.71.34-.67-.42c-.88-.55-1.6-1-2.18-1.32-2.63-1.55-3.47-2.22-2.19-5,.13-.29.29-.64.46-1.05,1-2.35.18-6.29-.29-7.93l-.1-.07a1,1,0,0,0-.15.08c-1.71,1.11-5.57.63-6.71.46l-1-.15-.93-5.74c-.39-.5-.81-1-1.1-1.38-.61.14-1.62.42-2.46.68A3.35,3.35,0,0,1,313,112a2.5,2.5,0,0,1-1.18-1.81c-.29-1.75,1.48-3.56,2.74-4.61l-.35-2.34-2.39-1.32-.09-.71c-.19-1.5-.44-3.25-.56-4a41.41,41.41,0,0,0-4-2.53l-.43-.25-3.49-9,4.52-2.63L306,78.12l2.25-1,.47-2.77c-2.24-.61-6.63-2-8.7-4.38l-.18-.21-.09-.26c-.91-2.56-3.77-5-5.19-6.07l-1.91,1.47-.74-.28a26.65,26.65,0,0,0-2.9-.92l-.29.37a2.79,2.79,0,0,1-2,1.41,1.87,1.87,0,0,1-1.48-.65c-.72-.79-1.28-3.33-1.69-7.56l-5.61-3.39-5.86-3.1-2.6-4.55L265.7,44.5l-1.12.18a9.35,9.35,0,0,0,1.17,3.07c1.85,1.11,2.24,3.11,2.47,5.06.16,1.33.61,5.9-.17,8.55-.87,3-5.08,3.32-5.56,3.35h-.1l-2.77-.19-3,5.26-1.24-2.12a11.86,11.86,0,0,0-1.59-2.15,12.7,12.7,0,0,1-1.27.68,8.4,8.4,0,0,0-1.05.58A5.6,5.6,0,0,1,250,69.33l-.22.22-.29.11c-1.68.61-2.35.14-2.57,0a1.59,1.59,0,0,1-.68-1.32,3.48,3.48,0,0,0-.1-.42h-.68l-.42-.59c-.86-1.18-2.85-4.11-2.85-5.74A11.06,11.06,0,0,0,242,60l-.69,0-5.78,3.25-.12.9,2.7,12.76-2.44-.95c-1.38-.53-3-.69-3.28-.45a8.78,8.78,0,0,1-1.52,1.5c-.85.7-.93.85-.89,1.11.25,1.77.38,4.44.38,4.56l.1,2.52A25.47,25.47,0,0,0,233.76,88a16.85,16.85,0,0,1,1.8.64l1.46.63-3.24,5.68a4.82,4.82,0,0,1-2.15,1.73,5.18,5.18,0,0,0-.56.31,1.54,1.54,0,0,1-1.35.42c-.41-.07-1-.17-2.2-2.1l-1.16,1.08-.71-.14a37.39,37.39,0,0,0-6.16-.79l.57,1.78-1.74.18c-2.6.27-5.33.83-5.85,1.21l-.6.53.17,6.4-2.13-1.1a20.75,20.75,0,0,0-4.75-1.93H201l-.26-1.09c-.08-.32-.54-1.57-1.29-1.62l-2.5-.16-2.33-2.33.08-.68a4.3,4.3,0,0,0,0-1c-.7,0-1.79.4-1.87.71A11.08,11.08,0,0,1,187,102.7a10,10,0,0,0-.08,1.85,3.33,3.33,0,0,1-1.57,3.36,17.51,17.51,0,0,1-2.84,1.63c-.15,1.09-.83,2.66-3.19,4a37.68,37.68,0,0,1-5.73,2.55,3.53,3.53,0,0,1-1.45,2.08,2.82,2.82,0,0,1-2.65.11c-2.11-.87-3.59-1.61-3.66-1.64l-.5-.25-.19-.52a10.58,10.58,0,0,0-1.31-2.56,15.42,15.42,0,0,1-2.39-.65l-.34-.12-1.58-1.81-3.22-.27-1.24-2.81-2.88.55-1.6,2.21-4,.76a10.92,10.92,0,0,1-.8,3.37,11.23,11.23,0,0,1-3.15,3.23l-1,.74-3.12-3.59-1-.53a7.36,7.36,0,0,1-5.84,4.14l-.35.06-.34-.11c-.09,0-.62-.06-1.17.84a5.35,5.35,0,0,1-4.27,2.63l-.37,0-5.91-1.58-1.26-7.16-2.05-1-1-4.3.47-2.12c-2.56-7.21-5.53-15.07-6.22-16.09-.73-.8-.83-2.38-1-6.63-.14-3.4-.34-8-1.2-10.08a93.73,93.73,0,0,1-3.18-9.13c-1-1.42-5.72-8.89-4.2-22.55-6.67-1.81-16.1-4.73-19.72-5.86-.19.86-.43,2-.68,2.94A15.45,15.45,0,0,1,77.14,43l-.53.91a34.07,34.07,0,0,0-3,9.35A99,99,0,0,0,72.5,63.29c0,.45,0,1.14.1,2,.15,2.47.36,5.85-.13,7.94-.2.86-.45,1.7-.68,2.52a17,17,0,0,0-.87,4.15c0,1.87.6,7.65.61,7.71L71.77,90l-2.26-1c-4.31-2-12.2-4.92-15-4.44-4,.69-6.34,2-8.31,4.61-2.57,3.42-5.67,6.75-10.9,7.9-4.35,1-22.17,4.21-27.38,5.16L18,155.73l0,.24c-.21,1.37-.26,3.73.25,4.68.38.7,2.19,1.12,3.29,1.14l1.38,0v1.38a3.1,3.1,0,0,0,.63,1.54,6,6,0,0,0,.87.92,2.93,2.93,0,0,1,1.21,2.21,32.36,32.36,0,0,1-.34,3.39,4.31,4.31,0,0,1-.63,1.65l-.24.27-3.74,3.31-.44-.34,1.62,2.52-1,.79a17.41,17.41,0,0,0-2.09,1.81l0,.05-.08.3a6.43,6.43,0,0,0-.2,1.08v.23l-.08.25a11.21,11.21,0,0,0-.72,3.18,16.89,16.89,0,0,0,1.19,4c1.78.12,2.69.44,2.94,1.44a23,23,0,0,1,.12,4l1,1,.58,1.6,1.84-.74.35,1.65c0,.13.24.71.6.8a7.32,7.32,0,0,0,2.52,0l1.23-.22.38,1.19a46.28,46.28,0,0,1,1.86,8.7,40,40,0,0,0,.92,5.3c.64,3,1,4.72.77,5.79L33.6,222H32.44a8.25,8.25,0,0,0-1,0l-.05,4.33,2.53.33c1.74.25,4,4.66,4.05,4.71a13.38,13.38,0,0,1,.62,2.85c.07.47.16,1.12.22,1.29a47.24,47.24,0,0,1,1.56,7.12,5.7,5.7,0,0,0,.19,1.11A24.49,24.49,0,0,1,46,241.44a29.31,29.31,0,0,0,3.46-.83l2.65-1.13.37,1.67s2.13,9.66,2.54,11.55a5.38,5.38,0,0,1,.18,2l2.07,5.3-1,.62c-.3.19-3,1.8-5.35,1a11.46,11.46,0,0,1-3.47-1.89l-1.85-.64a31.89,31.89,0,0,0-5.35,2.79l-.41.69c-.39.66-.77,1.27-1.22,2.19l-.36.69c-5.37,10.22-6.08,13.94-5.94,15.28l1.53,2.48,5.43,7,7,22,3-3.19,6.41-4.27,9.58-1.38,6,.67Zm244.77-197ZM109.22,89.68l0,0Zm2-2,.1.12Z"/></svg>