<svg id="Layer_1" data-name="Layer 1" xmlns="http://www.w3.org/2000/svg" viewBox="0 0 350 350"><defs><style>.cls-1{fill:#999;}.cls-2{fill:#f90;}</style></defs><title>M</title><path class="cls-1" d="M330.35,223l-6.48.62-1.25-.62-.47-.7h-.94l-4.45-3h-1s-6.48-2.34-9.06-4.14l-7.19-2s-4.37-.08-7-3.2-3.28-3.28-3.28-3.28l-2.89-.39-2-.94-3.91-.78L278,202.71l-2.19.78L269.19,202,264,199.74,258.41,196s-2.26-3.44-12.42-4.84-10.78-1.72-10.78-1.72-2.73-.31-3.36-.94l-3.12.47-2.34-1h-6.48a21.26,21.26,0,0,1-4.22-2.34l-2.85-.7s-1.33-1.72-5.58-.62l-6.37,1.13-6.4,2.73-4.69,2.38s-6.33,5.9-9.06,6.72c-2.5,2.11-15,4.18-15,4.18l-7.19-.35s-10.39-3.83-15.07-3.24a22.65,22.65,0,0,0-1.44,5l-1.6-.08-3,31.67L135.59,248l1.48,22.81-7.42-.46-1.05,3.78-12.3-.59-1.09-3.91s-1.87-2.3-7.77,0l-4.14,3.49-1.56-.68-.78-2-2.5-1.25s-9.18-1.33-10.74-2.62l-4,.94.2,1.76-1.8-.2-6.56,3-2.38-2.81-.82-3.55s-4.84-11.48-5.27-11.56-3.79-2.11-3.79-2.11l-10.7.35-1.84.86-1.6-4.8-4.06-.35-1.68-.7L38,251.09,34,251l-4-1.33-3,.62-4.14-.59-6.68.82L14.8,252,6.25,246l4.26-7.15,4.14-7.58,4.1-9.41,2.69-6.05,7.3-4.45,11.21-2,8.2-8.75,15.7-14.41,24.68-22.69,16.75-13.94,9-5.51,23.16-5.66L152,134.91l5.62-2.34,4.76-12.22,5.15-11.68,4.41-10L173,96l11.87-10.62,10.93-9.45,13.4,3.28,30,1.76,23,1.6s-18.67-.59,2.42.08,30.85.62,30.85.62L305.74,83l19.41-.66,18.16-.12s.66.16-.51,3c1.09,2.27.94,22.34.94,22.34l-.16,6.87-.2,17.77,0,8.94-1.21,1.76-12.22-3.32L328,146.24,324.53,153l-3.71,8.86-1.37,3.75,1.25,3.67-.7,11.25s12.5,0,13.16-.55l0,.74.66.51.12,6.17s3.83,10.35,3,12.77l0,2.11-2.11,6,.23,3.59.7,1.37-3.36,2-.9,6.29Z"/><path class="cls-2" d="M129.66,275.57l-14.45-.69L114,270.4c-.47-.27-2.13-.92-5.79.48l-4.63,3.9-2.9-1.26-.8-2L98,270.62c-2.23-.33-8.14-1.28-10.54-2.48l-2.24.52.25,2.26-3.17-.34-7.18,3.29-3.3-3.9L71,266.22c-1.93-4.57-4.14-9.59-4.83-10.85-.51-.24-1.45-.75-3.24-1.83l-10,.33-3,1.41-1.81-5.43-3.35-.29-1.18-.49-5.13,3.46-4.68-.09-3.87-1.28-2.92.6-4.2-.59-6,.73L15,253.82l-10.66-7.4,4.93-8.28,4.08-7.47,4.08-9.35,2.88-6.47L28.24,210l11-1.92,8-8.48,40.38-37.1,17-14.11,9.17-5.62,37.79-9.24,5-2.07L161,119.83l10.84-24.7L184,84.3l11.51-9.94,14,3.42,29.9,1.75,23.06,1.6,2.37.07c20.81.66,30.7.63,30.8.63l10.12-.27,19.4-.66,18.37-.12.16,0a1.61,1.61,0,0,1,1,.84c.4.77.29,1.87-.38,3.64.92,3.83.89,17.83.86,22.29l-.16,6.89-.2,17.75,0,9.37-2,2.94-11.84-3.22-1.63,5.56-3.45,6.67-3.69,8.81L321,165.58l1.18,3.46-.63,10c4.85,0,9.84-.18,11-.39l1.95-1.49.15,2.77.69.53.13,6.62c1,2.7,3.65,10.38,3,13.23l0,2.17-2.09,6,.2,3,1.17,2.28-3.92,2.37-.86,6-1.78,2.26-7.49.72-2-1-.26-.39h-.62l-4.45-3h-.83l-.23-.08c-.27-.1-6.37-2.31-9.18-4.17l-6.81-1.85a11.67,11.67,0,0,1-7.89-3.69,22.33,22.33,0,0,0-2.69-2.83l-2.8-.38-2.07-1-4.08-.82-2-1.6-1.83.65-7.29-1.66-5.46-2.39L257.38,197l-.16-.24s-2.27-3-11.43-4.22C238,191.47,235.69,191,235,190.83a11.07,11.07,0,0,1-3.41-.85l-3,.45-2.45-1.06h-6.46l-.25-.1a22.93,22.93,0,0,1-4.3-2.35l-3.06-.75-.3-.39h0s-1.06-.9-4.11-.12l-.1,0-6.21,1.1L195,189.45l-4.42,2.25c-1.11,1-6.32,5.75-9.2,6.81-3,2.17-13.35,4-15.44,4.31l-.15,0-7.55-.37-.2-.08c-2.58-1-9.62-3.22-13.5-3.22h-.09a18.09,18.09,0,0,0-1,3.82l-.13,1.35-1.6-.08-2.88,30.32L137,248l1.58,24.27-7.88-.48Zm-12.27-3.42,10.15.48,1.06-3.79,7,.43-1.39-21.34L136,234.27l3.13-33,1.7.08a28.41,28.41,0,0,1,1.32-4.11l.32-.76.82-.1c4.64-.58,14,2.68,15.53,3.24l6.82.33c5-.84,12.66-2.57,14.17-3.84L180,196l.28-.08c1.76-.53,6.15-4.2,8.5-6.4l.15-.14,4.86-2.47,6.8-2.87,6.31-1.12c3.81-1,5.78.07,6.58.72l2.78.68.23.17a19.6,19.6,0,0,0,3.65,2.06h6.49l2.24,1,3.43-.51.5.5a11.68,11.68,0,0,0,2.52.53l.36.09c.36.09,2.21.5,10.45,1.64,9.25,1.28,12.41,4.24,13.21,5.2l5.25,3.55,5,2.16,6.11,1.37,2.54-.91,2.69,2.15,3.88.82,1.84.85,2.83.39c.32.08,1.07.27,4,3.74,2.19,2.58,5.94,2.7,6,2.7l.34,0,7.42,2,.2.14c2.13,1.49,7.34,3.46,8.5,3.88h1.2l4.45,3h1.26l.68,1,.55.27,5.48-.53.56-.71.94-6.57,2.8-1.69-.23-.45-.27-4.18,2.13-6.07,0-2.1.07-.21c.39-1.17-1.23-7.05-3-11.82l-.08-.22-.11-5.73-.44-.34c-1.75.18-5.16.32-12,.34h-1.51l.78-12.48-1.32-3.88,1.54-4.22,3.78-9,3.41-6.59,2.26-7.85,12.6,3.42.39-.57,0-8.5.2-17.78.16-6.89c.07-9.55-.21-20.3-.8-21.7l-.23-.54.2-.6c.18-.45.31-.81.4-1.09l-16.72.11-19.37.66-10.16.27c-.13,0-10.07,0-30.93-.62l-7.88-.25-.68,0-1.48,0v0a2.11,2.11,0,0,1-1-.31l-14.46-1-30.27-1.79-12.68-3.11-10.38,9-11.62,10.4-1,2.37-9.58,21.73-5,12.73-6.39,2.64-37.47,9.16-8.71,5.34L89.44,164.67l-40.29,37-8.49,9.06-11.41,2-6.7,4.08L20,222.46,15.89,232l-4.14,7.58-3.61,6.06,6.45,4.48.81-.88,7.38-.91,4.08.58,3.18-.65,4.18,1.38,3.36.07,5.65-3.81,2.18.91,4.77.41,1.39,4.18.66-.31,11.41-.37.36.22c1.33.8,3,1.75,3.42,1.95.83.17,1.28.69,6.22,12.38l.08.23.74,3.22,1.46,1.73,5.94-2.72.43,0h0l-.14-1.25,5.93-1.38.54.45c.8.63,5.84,1.7,10,2.31l.23,0,3.19,1.59.76,1.91.22.1,3.64-3.07.21-.08c6.67-2.65,9.14.07,9.39.38l.19.23ZM67.31,252.82h0ZM288.56,208Zm44.06-29.32h0Z"/></svg>