<svg id="Layer_2" data-name="Layer 2" xmlns="http://www.w3.org/2000/svg" viewBox="0 0 350 350"><defs><style>.cls-1{fill:#999;}.cls-2{fill:#f90;}</style></defs><title>M_</title><path class="cls-1" d="M335.24,90.38c-.3-.11-.55-.19-.76-.25l-.08,0c0-.1,0-.24-.08-.45a16.83,16.83,0,0,1-.16-2.48c.53-1.15-.55-1.81-1.2-2.21a3,3,0,0,1-.64-.54,2.76,2.76,0,0,0-1.36-.88,7,7,0,0,1-.05-1.33V82l0-.17a5.28,5.28,0,0,1,0-2.1c1.07-.53,2.46-1.12,2.48-1.12l3.28-1.38L329.89,75l.07-1.87L323.75,69l-.28,0a3.06,3.06,0,0,1-2.23-1.22,1.28,1.28,0,0,1-.13-.35c2.46-1,3.12-2.39,3.21-3.4a3.34,3.34,0,0,0-1.82-3.16,4.59,4.59,0,0,0-5.91.81,6.92,6.92,0,0,0-1.11,1.58l-.21.37-.33-.25a31.58,31.58,0,0,0-7.28-4l-.42-.18A71.76,71.76,0,0,0,300.38,57l-2-.56a7.66,7.66,0,0,0-1.56-.29c-.54-.05-.72-.07-1.84-1.64a5.12,5.12,0,0,1-.71-4.57l0-.14c0-.07.51-1.81.67-2.74a9.69,9.69,0,0,1,3-2.67c.28-.17.49-.29.66-.38A2.1,2.1,0,0,0,300,41.68c0-.22,0-.49,0-.85a8.51,8.51,0,0,0-2.15-6.33c-1.45-1.38-6.38-1.36-8.2-1.13-1.4.18-2.17.54-2.56,1.18a16.25,16.25,0,0,1-1.88,2.09c-.23.23-.36.35-.45.46s-.66.53-1.25,1a36.88,36.88,0,0,0-4.42,3.74,10.65,10.65,0,0,1-1.76.19h-.18a10,10,0,0,0-4.24,2.07c-.24.24-.53.53-.73,2.54-3,.14-6.13.25-7.39.22v0a8.27,8.27,0,0,0-.27-1.11c-.61-1.83-4.53-3.43-4.53-3.43a6,6,0,0,1-.51-.32,17.71,17.71,0,0,0-3.92-2l-.37-.13-.38.09a8.48,8.48,0,0,1-.89.16c.14-.3.32-.65.46-.9l1.85-3.49L252.78,37a9.12,9.12,0,0,1-2.14.66,13.51,13.51,0,0,1,0-1.53c0-.29,0-.59,0-.91V29.93l-2.54,4.7c-.29.54-.48.77-1.73.14-.76-.38-2-.41-3.75,1.53A21,21,0,0,1,240,37.8l-.74.38v2.35h-4.45V42.3l-4-.22v2.14H229.5l-2.34,3.15-.82,5.52h2.22v2.43l-.29,0a5.34,5.34,0,0,0-1.73.43,2.7,2.7,0,0,1-1.49.28,5.47,5.47,0,0,0-3.76.68l-.77.34a4.73,4.73,0,0,0-2.36,2.4c-.31-.72-.64-1.66-.86-2.28-.75-2.13-1.08-3-1.81-3.42-1.7-1-2.83.79-3.51,1.84-.18.28-.37.58-.59.89s-.37.55-.51.78c-.49.78-.6,1-2.25,1.4-1.46.39-1.62.06-2.06-.83l-.07-.15a4.08,4.08,0,0,1-.19-.47,3.81,3.81,0,0,0-3.22-2.79c-2.51-.56-3.11.68-3.49,1.89a5.71,5.71,0,0,1-.48,1.21,2.82,2.82,0,0,0-.57,2.28,1.65,1.65,0,0,0,1,1A2.53,2.53,0,0,0,199.1,63a3.2,3.2,0,0,1,0,2.21,2.75,2.75,0,0,1-1.86.83c-.88.15-1.47.22-2,.28A14.9,14.9,0,0,0,192,67l-2,.63,1.43,1.57a.75.75,0,0,1,.17.25,2.07,2.07,0,0,1-.47.65,12.21,12.21,0,0,1-1.64,0,16.32,16.32,0,0,0-3,.1c-1.15.19-2.59,1.2-4.86,2.83-1.45,1-4.12,3-4.95,3l-.47,0a19.82,19.82,0,0,0-.89-2.72c-1.6-4-3.73-4.27-5.41-4.07l-.18,0c-2.13,0-3.3,3.73-3.31,3.77-.21.8-.85,3.44-1.1,5.16a5.37,5.37,0,0,0-1.41.1,2.17,2.17,0,0,0-1.71,1.46c-.37,1.23.38,2.76,2.38,4.81a3.26,3.26,0,0,1,.47.57c-.05.11-.16.28-.24.41a8.56,8.56,0,0,0-1,2c-.77,2.35-.38,3.23.62,4.55.14.19.3.4.47.64a3.93,3.93,0,0,1,.5,1c-1.52,0-3.86-.11-4.51-.18a13.74,13.74,0,0,0-1.73,0,11.37,11.37,0,0,1-3.11-.14,2.61,2.61,0,0,1-.56-.3,2.07,2.07,0,0,0-1.64-.4c-.84.19-1.34.93-1.91,1.87-1.46,2.41.25,4.34,1.38,5.61a11.29,11.29,0,0,1,.88,1.07c.62.89.62.89-1.46,4.23-1.14,1.72-2.28,2.7-3.22,2.76a1.61,1.61,0,0,1-1.22-.52l-.12-.13c-.35-.33-.53-.64-.51-.85s.22-.69,1.59-1.46a1.37,1.37,0,0,0,.76-1.78l-.5-1.09-1,.25a11.67,11.67,0,0,1-1.18-.49c-.65-.29-1.55-.69-2.7-1.12l-.9-.34c-1.9-.74-2.45-.77-4,.53l-.43.36A2.79,2.79,0,0,0,138,104c.16,1.42,1.55,2.12,2.64,2.66a8.76,8.76,0,0,0,1,.39l.31.12v0a4.26,4.26,0,0,1-1.64,1.79,28.36,28.36,0,0,0-2.29,2c-2.66,2.54-2.65,5.72-2.64,9.75v.77c0,3.64-2.28,6.17-4.42,8.25-.36.35-.65.65-.9.91-1.09,1.13-1.42,1.47-5.12,3a6.33,6.33,0,0,1-2.23.62h-.07a4,4,0,0,1-.29-1,9.68,9.68,0,0,0-.42-1.5c-.18-.47-.3-.79-.35-1a5.26,5.26,0,0,0,.22-1.28c.15-2.17-2-2.65-3.47-3a8.45,8.45,0,0,1-2.06-.63c-.38-.21-.69-.4-1-.58a6.42,6.42,0,0,0-5-1.09c-2.84.32-3.1,2.36-3.25,3.46a2.59,2.59,0,0,1-.36,1.26c-.27.33-.47.35-.54.35a2.84,2.84,0,0,1-1.71-.89c-.18-.16-.19-.23-.24-.52-.21-1.42-1.09-2-2.75-1.82a4.37,4.37,0,0,0-3,2.16c-.71,1-1.15,1.49-2,1.58-1.3.12-3.77-.19-8.1-2.41-2.29-1.17-12-5.87-14.85-7.23-.89-.42-1.54-.78-2.17-1.13a32,32,0,0,0-5.7-2.55c-5.59-2-10.52,2.8-12.13,4.37-2,2-2.46,5-2.83,7.45-.07.48-.14.94-.22,1.35-.24,1.28-.45,1.34-2.68,1.65l-.2,0c-.35,0-.71.1-.94.12-.09-.18-.21-.46-.33-.71s-.31-.69-.51-1.14l-.06-.11c-.39-.66-1.57-2.68-3.49-2.68h0c-1.7,0-2.78,1.53-3.45,2.68a4.18,4.18,0,0,1-.91,1,8,8,0,0,0-2.58,4.21c-1.6,5.6,2,8.58,3.7,10,.23.19.51.43.61.54a2.52,2.52,0,0,1,.12.27,4.44,4.44,0,0,1-1,.86,5.69,5.69,0,0,1-3.09,1.12c-.47.07-1,.16-1.71.29-3,.57-3,3.07-3,4.42a4.13,4.13,0,0,1-.12,1.29c-.09.2-.14.31-.42.2l-1.89-.88,0,2.08c0,3.42.31,4.48.72,4.92-1.19-.15-1.87.95-2.64,2.21a7.27,7.27,0,0,0-.85,2.41c-.16.77-.25,1.1-.5,1.29s-.31.2-1.25-.07a10.73,10.73,0,0,0-1.66-.37,4.26,4.26,0,0,0-3.25.67l-.18.11c-.14.07-.43.17-.79.3a15.72,15.72,0,0,0-3.88,1.79,3.49,3.49,0,0,0-1.2,3.3,3,3,0,0,0,1.67,2.54,17.71,17.71,0,0,0,2.28.76l1.27.37a18.64,18.64,0,0,1,1.82.64,3.43,3.43,0,0,0,2.32.31c1-.22,1.79-1.11,3-2.47a32.74,32.74,0,0,1,2.38-2.46,1.57,1.57,0,0,1,2.06-.24l.13,2.93H27.45v9.37h1.86l-.23,7.21,1.72-.42c1.85-.45,2-.5,2.06-.52.3-.1.38-.17,1.06-.8,6.68-6.2,8.45-6.37,8.75-6.35,3,.3,3.88,0,6.5-1.36a2.62,2.62,0,0,0,1.27,1.57c.73.41.87,2.23.74,3.13a5.31,5.31,0,0,1-.52,1,4.39,4.39,0,0,0-.54,1.13,2.7,2.7,0,0,1-1.25,1.62c-1.36.54-1.5,1.34-1.37,1.92.3,1.38,1.85,1.39,4.37,1.28a7.27,7.27,0,0,1,1.92.13c.44,19.72.5,19.75,1.66,20.14a9.52,9.52,0,0,0,1.92.25c1.16.11,3.1.28,6.28.63l8.19.88-7.48-3.45a9.64,9.64,0,0,1-1.32-.71c.24-.21.58-.47.86-.67s.89-.67,1.37-1.08a86,86,0,0,1,11.1-7.13c1.77-.86,10.81-4.22,15.38-5.86,2.24-.8,5.09-2,7.85-3.24,2.59-1.12,5-2.18,7-2.9,4.12-1.52,13.9-8.5,14.85-9.19,4.59-2.59,12.33-7.09,13.19-8.34.66-.69,5.28-2.73,9.21-4.25l6.11-1.48v2.23l3.68.35a3.9,3.9,0,0,1,.07.49,4.14,4.14,0,0,1,0,.5l-.27.1-.64.23c-.89.35-3.33,1-4.58,1.29a44.08,44.08,0,0,0-4.38-1.27,3.63,3.63,0,0,0-2.86.42,4,4,0,0,0-1.64,2.41l0,12.53h2.12v3.31h4.28v1.52h1.6V193h2v1.57h2.52l.27,1.84h6.64v-3.5l2.11-.23-.2-1.58h3.73l.53-2,7.07.33a4.31,4.31,0,0,0,1.82,3.13,4.35,4.35,0,0,1,.92.72,12.26,12.26,0,0,0,2.71,2,6.33,6.33,0,0,0,4.65.9,4.28,4.28,0,0,1,.63-.07,5,5,0,0,0,3.09-1.27l.75-.53c1.15-.77,1.64-2.14,2.15-3.59a16.89,16.89,0,0,1,1-2.52l.1-.19.25-.45.14,0a7.19,7.19,0,0,1,0,.79,5.48,5.48,0,0,0,0,1.21,3.29,3.29,0,0,1-.59,1.94c-1.4,1.1-1.46,3.8-1.11,4.94a6.07,6.07,0,0,0,.58,1.24,6.39,6.39,0,0,1,.71,1.65,4.12,4.12,0,0,1,.17,1.24,5.74,5.74,0,0,0,.33,2,2.6,2.6,0,0,0,1.76,1.89,3.16,3.16,0,0,0,2.92-1c.75-.67,1.1-1,3.2.06a5.32,5.32,0,0,0,4.34.9,4.27,4.27,0,0,0,2.14-1.43h2.72a18.83,18.83,0,0,1-.69,2.09,6.36,6.36,0,0,0-1,2.27l-.4.47a13.66,13.66,0,0,0-1.11,1.39c-2.35.16-11.15,0-19-.16l-1.39,0v5.12c-3.13,0-9.61,0-10.16,0a1.65,1.65,0,0,0-1.23.66,2.1,2.1,0,0,0-.37.9l-2.54-.32,0,2.22h-1.06l-.52,1.83a2.7,2.7,0,0,0-1.75.43,9,9,0,0,1-2.42,1,3.46,3.46,0,0,1-1.84-.11l-.52-.11c-.47-.09-.87-.2-1.24-.3a12.08,12.08,0,0,0-2.61-.46,2.17,2.17,0,0,0-1.82.75,3.92,3.92,0,0,0-.54,3.1c0,2.53,0,5.37-.06,5.81,0,.21-.06.41-.08.61a1,1,0,0,1-.17.63l-.22,0c-.3,0-.68-.05-1.18-.05-.79,0-1.41,0-1.87.6a1.46,1.46,0,0,0-.24,1.27l0,.07a1.61,1.61,0,0,1-.16.24h-.08a2.59,2.59,0,0,0-.95.22,2.13,2.13,0,0,0-1,2.42,6.87,6.87,0,0,1,0,2,27.73,27.73,0,0,1-1.81,4.92l-.9,1.92h3.82c.6.14,1.26.5,1.3.68a2,2,0,0,1,0,.77,11.06,11.06,0,0,0,.24,3.42c.57,3.2,3.39,4.69,4.9,5.5.3.16.57.3.76.43a8.78,8.78,0,0,0,2.07,1l.52.19a15.41,15.41,0,0,1-.1,2.78l0,.13a10.15,10.15,0,0,1-.4,1.26,6.08,6.08,0,0,0-1.09.86c-.15.14-.46.44-.53.49l-.21.07c-.18.06-.41.13-.75.25a2.11,2.11,0,0,0-1.6,2.16,2.41,2.41,0,0,0,2.29,1.95c.26,0,.52.06.76.07a17.93,17.93,0,0,1-2,2.91,11.61,11.61,0,0,0-2.16,5.52c0,1.24.67,2.13,1.84,3.21.11.26.32,1.28-.39,5,0,.22-.07.38-.09.48a12.11,12.11,0,0,0,.33,5.08c.71,1.71,3,1.83,5.64,2,.6,0,1.22.06,1.84.12h.16a3.87,3.87,0,0,0-.14,1.11c0,1,.11,1.81.19,2.55s.12,1.18.14,1.73c.07,2.14,3.11,4.58,4.39,5,1,.29,11.28,2.61,12.39,2.86,1.75.47,3.76,1,4.94,1.44l-.27.46c-1,1.84.15,4,.29,4.24l.38.65.76,0c3.76.08,8,.24,8.64.37l.1,0,0,.32,0,.23c0,.36.08.72.12,1.07a11.37,11.37,0,0,0,.43,2.5c.15.44.56,1.59,5.57,3.46a38,38,0,0,0,3.85,1.15l1,.23.51-.84c.87-1.43,1.94-3.22,2.11-3.7l.11-.31c1.34-4,2-4.68,2.11-4.78.4-.34.72-.35,2.16-.2l1.3.11c.27,0,.91.06,1.2.11a5.47,5.47,0,0,0,.66.62,8.3,8.3,0,0,1,1.25,1.53,6.37,6.37,0,0,0,1.39,1.62c.65.44,2.28.72,4.87.81l.61,0,1.59-1.69-.9-.92-.17-.18.28,0a7.12,7.12,0,0,0,1.47-.13,1.87,1.87,0,0,0,.54-.13c1.84-.51,3.37-1.8,2.8-4a1.62,1.62,0,0,0-1.18-1.23c1.84-2.69,6.58-2.34,9.52-1a31.15,31.15,0,0,1,5.9,3.84c1.29,1,3.09-.64,2.66-2-.87-2.84-2.23-6.6-1.28-9.52,1.51-4.67,2.56-3.26,5.43-4.67,2.06-1,2.49-2,3.72-3.86,5.2-7.8,13.25-7.53,20.72-3.8,3.76,1.88,6.5,2,8.85-1.84,2-3.24,3.07-8.26,6.63-10.38,5.17-3.08,9.36.75,13.82,3.26a1.84,1.84,0,0,0,2.66-2c-1.34-6.91-1.67-15.41-4.43-21.89-1.58-3.7-4.48-4.5-8.25-4.29-14.95.85-28.62-1.06-41.81-8a2.91,2.91,0,0,0,1.29-2.27c0-.16.06-.33.11-.52a26.49,26.49,0,0,0-.16-5.57c-.21-2.69-.6-7.71-.1-8.64a7.58,7.58,0,0,1,4-2.83c.61-.16,2.06-.7,4.37-1.57,1.92-.72,4.09-1.54,4.93-1.77,1.84-.52,14.26-5.92,16.14-6.95,1.68-.92,9.56-5.39,11.18-6.5l.17-.12a10.17,10.17,0,0,1,5.53-2.25,50.6,50.6,0,0,0,10-1.77c1.79-.55,7.9-3,8.86-3.41.92-.19,3.32-.83,4.11-2.42a2.47,2.47,0,0,0,0-2.25,9.89,9.89,0,0,0-3.87-4.31c-.66-.38-6.26-3-9-2.6a44.82,44.82,0,0,1-5.94-.18c-2.51-.16-5.1-.32-6.85-.25-2.28.11-5.06,0-6.65,0,0-4.14-.06-17,0-19.33a6.47,6.47,0,0,1,.17-1.62,8.06,8.06,0,0,1,1.88-.65l.46-.13c3.07-.87,6.45-2.35,8.21-6.74a26.65,26.65,0,0,0,1-2.87,3.57,3.57,0,0,1,1.69-2.57l.21-.16c2-1.53,2-1.53,6-2.19,4.38-.73,11.71-2.36,11.79-2.37l1.14-.25-.57-8-9.47-.72c.34-9.86,0-10.08-.71-10.54l-.68-.42-.69.34c-.8.4-17,8-21.32,9.26A59.18,59.18,0,0,1,272,137.08l-2.53-.23c-4.71-.42-12.09-1.07-15.72-2,1.6-1.8,3.56-3.9,5.46-5.93,2.64-2.82,4.92-5.26,5.92-6.57a13.37,13.37,0,0,1,1.91-1.91c1.32-1.15,3-2.58,2.2-4.87a7.73,7.73,0,0,0-1.29-2.26,2.25,2.25,0,0,0,1.55-1.51c.35,0,.71,0,1.05.05a5.57,5.57,0,0,0,2.27-.13c.91-.34,1.43-1.36,1.92-2.35.11-.23.29-.57.34-.65a41.78,41.78,0,0,1,4.29-3.57c.85-.42,4.06-2.44,4.43-2.67l.2-.15a9,9,0,0,1,2.58-1.75,3.44,3.44,0,0,0,1,.45c.23.08.7.23,1.47,4a16.65,16.65,0,0,1,.25,6.33,7.62,7.62,0,0,0,.1,3.47c.88,2.95,2.56,4.38,5.12,4.38s4.69-1.66,5.07-3.7a7.53,7.53,0,0,0,.1-1.48,8.2,8.2,0,0,1,.57-3.2,22.51,22.51,0,0,0,.72-2.64c.36-1.6.59-2.46,1.41-3.07a18,18,0,0,0,1.51-1.26,4.58,4.58,0,0,1,2.22-1.3l1.1-.33a10.35,10.35,0,0,1,3-.69,16.79,16.79,0,0,0,4.89.07,5.73,5.73,0,0,1,2,.69,7.42,7.42,0,0,0,3.74,3.88c1.93.79,4.14.56,6.57-.71l.11-.06c5.08-3.26,6.09-4.76,6.76-5.76l.19-.28a1.83,1.83,0,0,0,.37-2,1.9,1.9,0,0,1,0-.48.84.84,0,0,1,.06-.23,2,2,0,0,1,.24-.15,2.92,2.92,0,0,0,1.52-1.77C337.08,93.54,337.77,91.33,335.24,90.38ZM33.61,161.3l-.92.15A2.16,2.16,0,0,0,31,162.85c0-.29-.09-.6-.16-.91a3.25,3.25,0,0,0-.68-1.52,13.71,13.71,0,0,0,1.37.19,12.45,12.45,0,0,1,2.27.38,1,1,0,0,1,0,.27Z"/><path class="cls-2" d="M207.18,321.69l-2-.47a39.34,39.34,0,0,1-4-1.2c-5-1.85-6-3.17-6.41-4.32a12.49,12.49,0,0,1-.5-2.82l0-.47c-1.43-.09-4.26-.2-7.51-.27l-1.55,0-.78-1.34a6.38,6.38,0,0,1-.76-4.53c-1-.3-2.2-.64-3.34-.94-.06,0-11.31-2.54-12.43-2.86-1.61-.47-5.32-3.32-5.41-6.27,0-.52-.07-1.06-.13-1.63-.08-.74-.16-1.56-.19-2.5l-.52,0c-2.87-.15-5.83-.31-6.88-2.85-.93-2.25-.43-5.81-.42-5.84s.05-.29.1-.53a18.9,18.9,0,0,0,.48-4.06,5.4,5.4,0,0,1-1.95-3.93,12.76,12.76,0,0,1,2.51-6.45,12.29,12.29,0,0,0,.77-1,3.41,3.41,0,0,1,.32-6.48l.73-.25.25-.24a8.42,8.42,0,0,1,.91-.77c.09-.27.16-.54.2-.7l0-.06c0-.35.09-1,.1-1.5a9.28,9.28,0,0,1-2-1c-.13-.09-.3-.17-.5-.28l-.13-.07c-1.6-.85-4.93-2.62-5.62-6.49a12.77,12.77,0,0,1-.27-3.67l-.09,0h-5.86l1.85-3.94a26.77,26.77,0,0,0,1.7-4.58,5.52,5.52,0,0,0,0-1.59c-.07-.79-.25-2.9,1.78-3.83l.39-.15a2.79,2.79,0,0,1,.55-1.23,3.51,3.51,0,0,1,3.24-1.14c0-.3.06-2.63,0-5.43a5.11,5.11,0,0,1,.88-4.15,3.57,3.57,0,0,1,3-1.24,13.35,13.35,0,0,1,2.87.5c.37.1.74.19,1.17.28l.53.11c.91.19.91.19,1.24.11a8.05,8.05,0,0,0,1.9-.79,3.55,3.55,0,0,1,1.5-.63l.54-1.91h.69l0-2.42,3.09.39.15-.21a3,3,0,0,1,2.27-1.22c.53,0,5.27,0,8.84,0v-5.15l2.84.07c7,.19,15.19.3,18.22.19.23-.29.5-.6.79-.94l.14-.16,0,0a8,8,0,0,1,1-2.28h-.14A5.58,5.58,0,0,1,203,205.8a6.63,6.63,0,0,1-5.41-1,4.19,4.19,0,0,0-1.32-.5s-.13.15-.25.26a4.5,4.5,0,0,1-4.23,1.34,4,4,0,0,1-2.74-2.81,7.11,7.11,0,0,1-.41-2.4,2.78,2.78,0,0,0-.12-.88,5,5,0,0,0-.58-1.32,7.51,7.51,0,0,1-.7-1.52,5.79,5.79,0,0,1-.22-1.17l-.38.27a6.34,6.34,0,0,1-3.92,1.54,2.24,2.24,0,0,0-.33,0h-.1a7.75,7.75,0,0,1-5.55-1.07,13.74,13.74,0,0,1-3-2.19,3,3,0,0,0-.65-.52,5,5,0,0,1-2.25-3l-4.87-.23-.52,1.91h-3.21l.18,1.41-2.28.25v3.65h-9.28l-.27-1.84H147.9v-1.57h-2V192h-1.6v-1.52H140v-3.31h-2.12l.06-14.23a5.36,5.36,0,0,1,.39-1.14,20.65,20.65,0,0,0-2.67,1.38c-.48.6-2.26,2.22-13.47,8.57-1.37,1-10.91,7.77-15.13,9.32-1.91.7-4.33,1.75-6.9,2.87-2.78,1.21-5.65,2.45-7.93,3.27-5.16,1.85-13.66,5-15.24,5.8a85.65,85.65,0,0,0-10.81,6.94l-.52.43,14.62,6.75-16.79-1.81c-3-.33-4.9-.5-6.08-.61l-.18,0a9.57,9.57,0,0,1-2.24-.32c-2.12-.71-2.17-.73-2.6-20.2h-.48c-2.45.11-5.25.23-5.81-2.4-.12-.57-.32-2.51,2.23-3.53a1.74,1.74,0,0,0,.41-.66,5.56,5.56,0,0,1,.7-1.49c.18-.3.29-.51.35-.62a4.09,4.09,0,0,0-.19-1.65,4.17,4.17,0,0,1-1-.84,9.41,9.41,0,0,1-5.95.9c-.32.09-2.23.81-7.78,6a3.8,3.8,0,0,1-1.58,1.11c-.09,0-.23.08-2.17.55l-3.53.85.24-7.61H26V175c-1.18,1.31-2.11,2.23-3.41,2.52a4.79,4.79,0,0,1-3.16-.37,17,17,0,0,0-1.7-.6l-1.27-.37a19.17,19.17,0,0,1-2.42-.81,4.43,4.43,0,0,1-2.53-3.67,4.88,4.88,0,0,1,1.75-4.62,16.64,16.64,0,0,1,4.25-2l.22-.08.43-.16a5.66,5.66,0,0,1,4.22-.91,11.84,11.84,0,0,1,1.82.4l0-.14a8.56,8.56,0,0,1,1-2.85A8.21,8.21,0,0,1,27,159.16L26,158l1.14.26A24.31,24.31,0,0,1,27,155l.06-4.27,2.4,1.12c0-1.6.43-4.62,4.18-5.33.7-.13,1.26-.22,1.75-.3a4.38,4.38,0,0,0,2.23-.7c-2-1.72-5.37-5.16-3.68-11.09a9.4,9.4,0,0,1,3-4.86,2.94,2.94,0,0,0,.65-.7c.48-.84,2-3.38,4.67-3.39,1.82,0,3.41,1.14,4.72,3.38l.09.17c.18.38.32.7.44,1h.09c.48-.07,1.12-.16,1.43-.24,0-.06,0-.15.06-.27.07-.38.13-.8.2-1.24.38-2.58.89-6,3.25-8.31,1.77-1.73,7.17-7,13.6-4.69A33.07,33.07,0,0,1,72,117.85c.65.36,1.27.7,2.1,1.09C77,120.3,86.72,125,89,126.19c4.23,2.17,6.4,2.35,7.32,2.26.23,0,.37-.11,1-1a5.68,5.68,0,0,1,4-2.72c3.24-.35,4.07,1.75,4.28,2.85l.05,0v0a4.82,4.82,0,0,1,4.49-4.68,7.78,7.78,0,0,1,5.88,1.3c.27.17.55.35.9.54a7.78,7.78,0,0,0,1.68.49c1.44.32,4.81,1.07,4.58,4.45a7.3,7.3,0,0,1-.16,1.14l.19.48a9.49,9.49,0,0,1,.4,1.34l.75-.28c3.43-1.4,3.66-1.64,4.64-2.66.27-.28.57-.58.93-.94,2-2,4-4.15,4-7.24v-.77c0-4.2,0-7.82,3.08-10.78a29.69,29.69,0,0,1,2.38-2l.2-.16c-1.18-.61-2.77-1.61-3-3.55a4.11,4.11,0,0,1,1.76-3.72l.43-.35c2-1.68,3.11-1.66,5.43-.76l.88.33c1.18.44,2.09.85,2.75,1.14l.71.31,1.74-.43,1,2.16a2.84,2.84,0,0,1,0,2.13l.23-.33c.72-1.16,1.33-2.13,1.53-2.57l0-.07a10.51,10.51,0,0,0-.77-.93c-1.15-1.29-3.53-4-1.53-7.28a4.68,4.68,0,0,1,2.8-2.51,3.45,3.45,0,0,1,2.73.59,1.46,1.46,0,0,0,.27.16,13.66,13.66,0,0,0,2.57.06,14.57,14.57,0,0,1,1.93,0c.24,0,.88.06,1.76.09-.89-1.41-1.12-2.76-.35-5.14a9.22,9.22,0,0,1,.82-1.82c-1.56-1.65-3.12-3.76-2.46-5.94a3.59,3.59,0,0,1,2.77-2.43l.5-.09c.33-1.75.81-3.68.93-4.16,0,0,1.41-4.82,4.68-4.82,3.16-.4,5.42,1.22,6.91,4.94.25.61.43,1.13.58,1.58,1-.54,2.6-1.71,3.3-2.22l.29-.21c2.5-1.81,4-2.84,5.46-3.08a15,15,0,0,1,2.81-.13l-1.59-1.75,4.17-1.29a16.18,16.18,0,0,1,3.5-.74c.51-.06,1.07-.13,1.89-.27a3.68,3.68,0,0,0,.88-.24,4,4,0,0,0-.16-1.05,3.85,3.85,0,0,1,0-2.12,2.93,2.93,0,0,1-.54-.94,4.09,4.09,0,0,1,.67-3.44,4.39,4.39,0,0,0,.36-.93c.29-.93,1.16-3.76,5.15-2.86a5.22,5.22,0,0,1,4.25,3.7,2.76,2.76,0,0,0,.12.31l.07.14.08.17.34-.08c1.11-.29,1.11-.29,1.42-.78.16-.25.33-.53.56-.85s.39-.58.56-.84c.63-1,2.55-3.94,5.41-2.3,1.19.68,1.63,1.89,2.4,4.06a5.69,5.69,0,0,1,1.35-.83l.76-.34a6.83,6.83,0,0,1,4.53-.79c.16,0,.27,0,.77-.2l.4-.15h-1.74l1.12-7.5,3-4h.57V40.59l4,.22V39.11h4.45v-1.8l1.51-.77c1-.53,2-1.1,2.29-1.29C244,32.6,246,33,247,33.49l.08,0,5-9.21V35.26c0,.19,0,.38,0,.55l.23-.09,7-2.78L256.2,38.7a19.11,19.11,0,0,1,4,2.1l.16.11.21.13h0c1.43.53,4.58,2.24,5.25,4.24l.05.17c1.16,0,2.89-.07,5-.17a3.57,3.57,0,0,1,1-2.18c.47-.48,3.2-2.38,5.16-2.49h.18c.54,0,.88-.06,1.1-.08.6-.61,1.73-1.54,4.26-3.55l.2-.16.95-.76.37-.37a15.16,15.16,0,0,0,1.74-1.89A4.63,4.63,0,0,1,289.44,32c.07,0,7-.75,9.36,1.51a9.93,9.93,0,0,1,2.59,7.39c0,.33,0,.59,0,.8a3.48,3.48,0,0,1-2,3.59c-.14.08-.33.18-.58.33a11.13,11.13,0,0,0-2.43,2c-.21,1.05-.65,2.59-.65,2.61l-.07.2a3.7,3.7,0,0,0,.52,3.29,10.46,10.46,0,0,0,.82,1.06h0a9,9,0,0,1,1.83.34l1.95.56a71.87,71.87,0,0,1,7.05,2.22l.41.18a37.6,37.6,0,0,1,6.65,3.49,6.47,6.47,0,0,1,.72-.87,6,6,0,0,1,7.61-1,4.73,4.73,0,0,1,2.53,4.53,4.84,4.84,0,0,1-2.05,3.44h0l.57.1,7.13,4.7L331.35,74l9.25,3.14L333.89,80c-.13.06-.92.39-1.71.75a5.88,5.88,0,0,0,.09.89l.07.34,0,.35c0,.1,0,.2,0,.3a4.85,4.85,0,0,1,1,.86,1.62,1.62,0,0,0,.35.31c1.73,1.06,2.35,2.3,1.87,3.69,0,.41,0,1,.09,1.58l.08,0h0c2.51.94,3.29,3,2.32,6.1a4.17,4.17,0,0,1-1.69,2.29,3.37,3.37,0,0,1-.75,2.74l-.15.22c-.75,1.11-1.86,2.76-7.18,6.18l-.16.1c-2.88,1.5-5.49,1.75-7.82.79a8.59,8.59,0,0,1-4.27-4.12,6.55,6.55,0,0,0-.86-.33,18.92,18.92,0,0,1-5.19-.1,18.59,18.59,0,0,0-2.24.61l-1.24.37a3.26,3.26,0,0,0-1.67,1,19.41,19.41,0,0,1-1.62,1.35c-.38.28-.54.76-.87,2.24a23.64,23.64,0,0,1-.76,2.8,6.83,6.83,0,0,0-.49,2.73,8.78,8.78,0,0,1-.13,1.74c-.51,2.72-3.35,4.86-6.46,4.86-2.22,0-5.14-.93-6.47-5.39a9,9,0,0,1-.15-4.06,15.21,15.21,0,0,0-.23-5.86,16,16,0,0,0-.82-3l-.26-.1a10.89,10.89,0,0,0-1.58,1.2l-.4.3S281,105.91,280,106.4a49.36,49.36,0,0,0-3.79,3.17L276,110a5.51,5.51,0,0,1-2.69,3,6.73,6.73,0,0,1-2.87.22h-.1a3.36,3.36,0,0,1-.4.46,7.49,7.49,0,0,1,.63,1.39c1.06,3.18-1.24,5.18-2.61,6.38a12.06,12.06,0,0,0-1.72,1.71c-1,1.37-3.35,3.83-6,6.67l-.1.11c-1.24,1.33-2.52,2.7-3.69,4,3.87.67,9.5,1.17,13.14,1.49l2.53.23a57.63,57.63,0,0,0,17.94-1.7c4.16-1.19,20.32-8.79,21.08-9.17l1.39-.7,1.35.83c1.45.93,1.71,1.78,1.43,10.44l9.33.71.75,10.46-2.33.52c-1.86.41-8,1.74-11.86,2.39-3.59.6-3.59.6-5.33,1.92l-.21.16c-.85.65-.85.65-1.19,1.83a27.83,27.83,0,0,1-1,3c-2,5-5.93,6.67-9.14,7.57l-.46.13-1,.29c0,.17,0,.38,0,.66-.06,2.11,0,13,0,17.92,1.51,0,3.48.06,5.17,0,1.85-.08,4.59.09,7,.25a50.17,50.17,0,0,0,5.62.19c3.5-.56,9.89,2.74,9.95,2.77A11.28,11.28,0,0,1,325,191a3.91,3.91,0,0,1,0,3.51c-1,2-3.48,2.83-5,3.15-1.41.57-7.09,2.86-8.87,3.41a51.42,51.42,0,0,1-10.41,1.83,8.9,8.9,0,0,0-4.77,2l-.17.12c-1.69,1.15-9.56,5.62-11.3,6.58-2,1.08-14.48,6.51-16.43,7.06-.79.23-3.12,1.1-4.82,1.74-2.64,1-3.86,1.44-4.5,1.61a6.29,6.29,0,0,0-3.1,2.11c-.28,1.11.11,6.19.24,7.88.25,3.2.37,4.91.13,6,0,.17-.07.34-.1.48a6.78,6.78,0,0,1-.47,1.56c11.49,5.7,24.1,8,39.51,7.07,3.38-.19,7.54.22,9.64,5.15,2,4.63,2.73,10.12,3.47,15.44.33,2.38.64,4.62,1,6.74a3.39,3.39,0,0,1-1.32,3.38,3.16,3.16,0,0,1-3.43.17c-.76-.42-1.5-.89-2.25-1.35-3.53-2.18-6.57-4.06-10.15-1.93-2.06,1.23-3.22,3.81-4.35,6.31a31.37,31.37,0,0,1-1.81,3.6c-3.23,5.21-7.41,4-10.69,2.36-5.71-2.85-13.63-4.59-18.91,3.32l-.46.7a8.5,8.5,0,0,1-3.82,3.65,11.3,11.3,0,0,1-2.31.82c-1.16.3-1.55.4-2.39,3-.72,2.22.25,5.34,1,7.85l.25.82a3.3,3.3,0,0,1-1.36,3.59,3,3,0,0,1-3.52,0l-.3-.23a28.1,28.1,0,0,0-5.33-3.45c-1.94-.87-5-1.31-6.78-.34a3.36,3.36,0,0,1,.4.94c.66,2.55-.7,4.73-3.48,5.63l.06.06-3,3.15-1.25,0c-3.81-.13-5-.63-5.62-1.05a7.42,7.42,0,0,1-1.75-2,8.57,8.57,0,0,0-1-1.24c-.17-.13-.31-.26-.43-.37l-.64,0-1.34-.12c-.29,0-.83-.08-1.11-.08a21.71,21.71,0,0,0-1.68,4.11l-.11.31a27,27,0,0,1-2.24,4Zm-20.36-12.38c.66,0,7.78.17,8.87.41l1.07.27.21,1.5c0,.33.08.68.11,1a11,11,0,0,0,.37,2.26c.16.44,1.49,1.39,4.73,2.6a36.23,36.23,0,0,0,3.64,1.08,36.72,36.72,0,0,0,2-3.41l.09-.28c1.53-4.55,2.28-5.19,2.53-5.4.9-.77,1.77-.68,3.22-.54l1.26.11c.29,0,1,.07,1.32.12l.49.08.34.37a4,4,0,0,0,.49.46,8.92,8.92,0,0,1,1.51,1.81,5.9,5.9,0,0,0,1,1.28c.07,0,.76.44,4.08.56l.22-.24L222,310.8l3.36,0h.21a5.85,5.85,0,0,0,1.22-.1l.13,0,.13,0,.16-.06c1.48-.41,2.09-1.18,1.81-2.28,0-.18-.11-.2-.16-.21l-2-.5L228,306c2.23-3.26,7.47-3.21,11.27-1.51a30.74,30.74,0,0,1,5.88,3.78l.3.22a.46.46,0,0,0,.34-.21.41.41,0,0,0,.11-.29l-.25-.8c-.9-2.89-2-6.49-1-9.57,1.24-3.81,2.48-4.39,4.38-4.88a8.61,8.61,0,0,0,1.78-.62,5.77,5.77,0,0,0,2.69-2.65l.48-.73c4.94-7.4,13.15-9,22.53-4.28,3.58,1.79,5.29,1.47,7-1.32a29,29,0,0,0,1.63-3.27c1.24-2.76,2.65-5.89,5.48-7.58,5.05-3,9.32-.37,13.09,2,.71.44,1.43.88,2.15,1.29a.31.31,0,0,0,.38,0,.54.54,0,0,0,.2-.55c-.42-2.19-.74-4.47-1.07-6.89-.71-5.13-1.44-10.43-3.27-14.71-1.14-2.68-3.06-3.65-6.87-3.43-16.65,1-30.18-1.65-42.56-8.19l-2.32-1.23,2.3-1.27c.12-.07.37-.21.58-1.3,0-.18.07-.36.11-.56a30.09,30.09,0,0,0-.19-5.16c-.48-6.15-.46-8.43.07-9.42a9.06,9.06,0,0,1,4.89-3.53c.58-.15,2.36-.82,4.24-1.53,2.34-.88,4.2-1.57,5-1.81,1.75-.5,14.1-5.87,15.85-6.83s9.51-5.36,11.06-6.42l.17-.12a11.52,11.52,0,0,1,6.3-2.5,49.67,49.67,0,0,0,9.66-1.71c1.33-.4,5.54-2.07,8.75-3.37l.25-.07c1.18-.25,2.71-.83,3.12-1.66a1.06,1.06,0,0,0,0-1,8.5,8.5,0,0,0-3.31-3.72c-1-.6-6-2.76-8.09-2.43a40.69,40.69,0,0,1-6.25-.16c-2.34-.15-5-.32-6.7-.24-2.37.11-5.25,0-6.76,0l-1.36-.05v-1.36c0-5.06-.06-17.07,0-19.38,0-1.46.13-2,.42-2.39l.11-.14c.39-.43.94-.61,2.56-1.06l.46-.13c2.88-.81,5.75-2.09,7.28-5.9a25.39,25.39,0,0,0,.91-2.73,4.88,4.88,0,0,1,2.2-3.32l.21-.16c2.29-1.74,2.54-1.78,6.57-2.46,3.81-.64,9.88-2,11.64-2.34h0l-.4-5.58-9.6-.73,0-1.36c.08-2.26.28-8.16-.06-9.29-1.06.52-17.16,8.1-21.54,9.35a60.86,60.86,0,0,1-19,1.79l-2.52-.23c-4.86-.43-12.2-1.08-16-2.07l-2.23-.59,1.53-1.73c1.59-1.79,3.52-3.85,5.38-5.85l.1-.11c2.5-2.68,4.86-5.21,5.83-6.46a14.64,14.64,0,0,1,2.1-2.12c1.4-1.22,2.22-2.06,1.79-3.35a6.4,6.4,0,0,0-1.07-1.84l-1.17-1.52,1.8-.67c.6-.22.66-.46.68-.53l.28-1.09,1.12,0c.36,0,.73,0,1.08.05a5,5,0,0,0,1.71,0c.39-.15.81-1,1.15-1.66a6.68,6.68,0,0,1,.45-.83l.09-.12a39.71,39.71,0,0,1,4.69-3.88c.69-.34,3.35-2,4.28-2.58l.1-.07a10.12,10.12,0,0,1,3.11-2l.64-.18.55.38a2.09,2.09,0,0,0,.58.27c1,.34,1.61,1.15,2.41,5.05a18.11,18.11,0,0,1,.27,6.8,6.32,6.32,0,0,0,.06,2.88c.89,3,2.4,3.37,3.76,3.37,1.7,0,3.42-1.19,3.68-2.55a6.22,6.22,0,0,0,.08-1.22,9.52,9.52,0,0,1,.65-3.67,21.25,21.25,0,0,0,.67-2.48c.36-1.58.67-2.94,2-3.9a16.42,16.42,0,0,0,1.4-1.17,6,6,0,0,1,2.77-1.61l1.21-.37c1.74-.53,2.77-.83,3.55-.69a15.62,15.62,0,0,0,4.32.08l.16,0a5.92,5.92,0,0,1,2.79.84l.45.23.2.46a6.08,6.08,0,0,0,3,3.14c1.52.63,3.33.41,5.38-.65l.05,0c4.78-3.07,5.69-4.42,6.3-5.32l.22-.32c.3-.42.28-.46.24-.54l-.1-.21,0-.24a3.31,3.31,0,0,1,0-.85,2.22,2.22,0,0,1,.18-.62l.11-.23.18-.18a2.41,2.41,0,0,1,.54-.37,1.55,1.55,0,0,0,.87-1c.57-1.81.35-2.24-.61-2.6h0c-.26-.1-.49-.16-.67-.22l-.79-.24-.27-.83c0-.12-.06-.29-.1-.55a18.51,18.51,0,0,1-.18-2.7v-.31l.11-.24a4,4,0,0,0-.64-.45,4.29,4.29,0,0,1-.92-.77,1.43,1.43,0,0,0-.68-.49l-.91-.23-.14-.92a8.44,8.44,0,0,1-.07-1.63,6.45,6.45,0,0,1,0-2.85l.2-.53.5-.25c.82-.41,1.91-.88,2.39-1.09L328.44,76l.08-2.13-5.3-3.5A4.32,4.32,0,0,1,320,68.44a2.69,2.69,0,0,1-.28-.74l-.25-1.16,1.09-.45c1-.42,2.24-1.15,2.35-2.23a2,2,0,0,0-1.11-1.8,3.19,3.19,0,0,0-4.2.59,5.69,5.69,0,0,0-.88,1.27l-.24.42-.76,1.25-1.23-.81a5.27,5.27,0,0,1-.45-.34,30.42,30.42,0,0,0-6.93-3.82l-.42-.18c-1.3-.57-4.42-1.45-6.69-2.09l-2-.57a6.2,6.2,0,0,0-1.29-.24c-1.19-.12-1.68-.58-2.86-2.23a6.49,6.49,0,0,1-.88-5.9l0-.09c.07-.27.48-1.76.61-2.52l.07-.26c.36-1,2.13-2.46,3.61-3.37.31-.2.55-.32.73-.42.54-.29.54-.29.53-1.07,0-.23,0-.52,0-.89a7.21,7.21,0,0,0-1.71-5.26c-.78-.74-4.69-1.06-7-.75-.86.11-1.4.3-1.54.52a15.6,15.6,0,0,1-2.1,2.36l-.38.38-.14.14-1.1.88-.2.16a44.85,44.85,0,0,0-4.19,3.51l-.28.35-.43.13a9.81,9.81,0,0,1-2,.25h-.22a9.1,9.1,0,0,0-3.32,1.67,4.76,4.76,0,0,0-.32,1.67L273.44,48l-1.22.06c-2.13.1-5.94.25-7.48.22l-1.11,0-.25-1.08a7.65,7.65,0,0,0-.24-1c-.22-.66-2-1.81-3.47-2.46h0l-.29-.14a4.77,4.77,0,0,1-.52-.31l-.14-.1a16.4,16.4,0,0,0-3.61-1.87,10.17,10.17,0,0,1-1,.18l-2.53.3,1.07-2.31c.15-.33.35-.7.5-1l0-.08a10.07,10.07,0,0,1-2.34.68l-1.38.15-.18-1.38a14.12,14.12,0,0,1,0-1.74V36c0-.17,0-.35,0-.53-1.09,1.72-2.76.88-3.49.51-.42-.21-1.21.25-2.05,1.2l-.11.11A21.92,21.92,0,0,1,240.66,39v2.9h-4.45V43.8l-4-.22v2.06h-2l-1.71,2.29L228,51.47h2v5.15l-1.29.12-.36,0a4.13,4.13,0,0,0-1.27.34,4,4,0,0,1-2.21.36,4.13,4.13,0,0,0-3,.57l-.77.34a3.36,3.36,0,0,0-1.66,1.73l-1.36,2.77L216.86,60c-.32-.76-.66-1.71-.88-2.35A8.53,8.53,0,0,0,214.79,55c-.26-.15-.53-.31-1.62,1.37-.19.29-.39.61-.62.94s-.34.51-.47.72c-.72,1.15-1.16,1.5-3.09,2-2.16.57-3-.14-3.69-1.57l-.07-.14a5,5,0,0,1-.24-.58,2.47,2.47,0,0,0-2.21-1.93c-1.44-.32-1.55,0-1.82.93a7,7,0,0,1-.6,1.48c-.22.4-.53.95-.47,1.13s0,.07.19.14l1.62.68-1,1.44a1.11,1.11,0,0,0-.22,1A4.14,4.14,0,0,1,200.3,66a3.87,3.87,0,0,1-2.82,1.46c-.89.15-1.49.22-2,.28a13.2,13.2,0,0,0-2.34.43L193,69.58a2.61,2.61,0,0,1-.83,1.47l-.33.37-.49.08a11.53,11.53,0,0,1-1.89,0,15.38,15.38,0,0,0-2.79.08c-.87.14-2.51,1.33-4.25,2.58l-.29.21c-3,2.15-4.47,3.09-5.59,3h-.39l-1.09,0-.26-1.06A18.36,18.36,0,0,0,174,73.8c-1.4-3.5-3-3.3-3.92-3.19l-.3,0c-.73,0-1.66,1.64-2,2.76-.19.7-.81,3.28-1,5l-.18,1.27-1.29-.06a3.85,3.85,0,0,0-1,.07.8.8,0,0,0-.65.49c-.09.3-.08,1.24,2,3.42a4.51,4.51,0,0,1,.68.84l.39.67-.35.69c-.07.14-.2.36-.31.52a7.2,7.2,0,0,0-.83,1.69c-.62,1.91-.32,2.3.41,3.26.18.24.34.45.51.7a5.33,5.33,0,0,1,.68,1.36l.63,1.91-2-.05c-1.13,0-3.85-.11-4.62-.19a12.41,12.41,0,0,0-1.49,0,11.25,11.25,0,0,1-3.67-.22,4,4,0,0,1-.84-.44c-.28-.18-.42-.25-.56-.22-.3.07-.67.64-1,1.22-.78,1.29-.23,2.3,1.22,3.93a12.69,12.69,0,0,1,1,1.2c1.14,1.66.75,2.29-1.43,5.79-1.45,2.19-2.9,3.33-4.33,3.42a3,3,0,0,1-2.25-.87l-.23-.25a2.37,2.37,0,0,1-.86-2c.11-.85.82-1.66,2.18-2.45l-.3-.08a10.57,10.57,0,0,1-1.4-.56c-.66-.29-1.52-.68-2.61-1.08l-.92-.35c-1.52-.59-1.52-.59-2.58.29l-.44.36q-.81.66-.75,1.22c.07.61.85,1,1.86,1.55a7.33,7.33,0,0,0,.81.33l.35.13,1.45.57-.69,1.39a5.49,5.49,0,0,1-2,2.29A27.29,27.29,0,0,0,139,112c-2.22,2.12-2.21,4.89-2.2,8.72v.77c0,4.55-3.15,7.62-4.85,9.27-.34.33-.62.62-.86.87-1.27,1.32-1.81,1.76-5.61,3.32a11.42,11.42,0,0,1-1.95.63l-.67,1.2-1.31-1.63a3.66,3.66,0,0,1-.57-1.56,8.43,8.43,0,0,0-.36-1.28c-.21-.53-.34-.89-.39-1.08l-.12-.4.12-.4a3.86,3.86,0,0,0,.16-1c0-.66-.29-1-2.37-1.5a9.52,9.52,0,0,1-2.42-.77c-.41-.22-.75-.44-1.06-.63a5.09,5.09,0,0,0-4.06-.89c-1.62.18-1.83,1-2,2.23a3.7,3.7,0,0,1-.67,2,2.15,2.15,0,0,1-1.54.87,3.87,3.87,0,0,1-2.74-1.24,2,2,0,0,1-.7-1.38c-.07-.49-.11-.73-1.2-.62-.83.09-1.33.69-2,1.6a4.2,4.2,0,0,1-3,2.15c-2.17.2-5.16-.65-8.88-2.56-2.28-1.17-11.92-5.85-14.8-7.21-.92-.43-1.58-.8-2.22-1.15a31,31,0,0,0-5.53-2.48c-4.76-1.7-9.21,2.63-10.67,4.05-1.67,1.62-2.08,4.41-2.41,6.64-.08.54-.15,1-.22,1.4-.43,2.32-1.66,2.49-3.88,2.79l-.21,0c-.38.05-.77.11-1,.13l-.95.07-.43-.85c-.1-.2-.23-.5-.36-.78s-.3-.68-.5-1.11l0-.06c-.25-.43-1.12-1.92-2.23-1.92-.74,0-1.45.63-2.23,2a5.49,5.49,0,0,1-1.19,1.37,6.64,6.64,0,0,0-2.18,3.57c-1.24,4.33,1,6.67,3.25,8.51.33.27.63.53.75.66l.13.14.09.18a3.9,3.9,0,0,1,.19.43l.26.71-.45.61a5.76,5.76,0,0,1-1.37,1.18A7,7,0,0,1,35.85,149c-.46.07-1,.16-1.66.28-1.6.3-1.87,1.18-1.88,3a4.74,4.74,0,0,1-.24,1.87,1.64,1.64,0,0,1-2.22.94c0,3.18.31,3.79.35,3.84l0,0,.24.05c.26.06.7.11,1.21.17a10.53,10.53,0,0,1,2.66.49L35,160l.15.74a2.39,2.39,0,0,1,0,.68l-.1,1.08-1.25.21-.22-1.32h0l.2,1.33h-.07l-.82.13a.74.74,0,0,0-.63.55l-2,4.9-.75-5.23c0-.26-.08-.53-.14-.81a2.14,2.14,0,0,0-.33-.86l-.05-.06H29c-.31,0-.85.88-1.26,1.54a6,6,0,0,0-.67,2,3.25,3.25,0,0,1-1,2.12,2.46,2.46,0,0,1-2.51.17,9.45,9.45,0,0,0-1.45-.32,2.87,2.87,0,0,0-2.29.45,2.93,2.93,0,0,1-.33.2c-.15.07-.4.17-.72.28l-.21.08a15.12,15.12,0,0,0-3.5,1.59,2.1,2.1,0,0,0-.65,2,1.74,1.74,0,0,0,.8,1.42,16.25,16.25,0,0,0,2.11.7l1.29.38a20.14,20.14,0,0,1,1.95.68,2.09,2.09,0,0,0,1.49.24c.54-.12,1.3-1,2.26-2a34.29,34.29,0,0,1,2.48-2.56,3,3,0,0,1,3.77-.38l.62.4.23,5.14h-2.5v6.54h1.9l-.22,6.82c1.43-.35,1.76-.43,1.85-.46s.24-.21.54-.5c7.42-6.9,9.22-6.77,9.81-6.73,2.77.27,3.35.08,5.73-1.19L50,179l.5,1.66a1.21,1.21,0,0,0,.61.75c1.59.9,1.58,3.6,1.44,4.57a4.62,4.62,0,0,1-.69,1.52,3.93,3.93,0,0,0-.4.76,4.06,4.06,0,0,1-2.1,2.59,1.17,1.17,0,0,0-.53.32,9,9,0,0,0,2.94.15,8.71,8.71,0,0,1,2.31.17l1.06.25,0,1.09c.24,10.76.39,17.46.77,18.84.2,0,.64.08,1.47.16l.23,0c1.13.1,2.92.27,5.73.57a9.88,9.88,0,0,1-1.16-.65l-1.54-1,1.42-1.21c.26-.22.63-.5.93-.73s.85-.64,1.3-1a86.61,86.61,0,0,1,11.4-7.33c1.9-.92,11.2-4.36,15.52-5.91,2.2-.79,5-2,7.75-3.2s5.06-2.2,7.05-2.93c3.2-1.18,10.63-6.22,14.51-9l.13-.08c8.61-4.87,12.24-7.32,12.74-7.93l.13-.16c1.27-1.31,9.37-4.45,9.71-4.59l.18-.06,7.86-1.9v2.74l3.42.32.22,1a5.26,5.26,0,0,1,.1.68,5.69,5.69,0,0,1,0,.67l0,1-1.17.42-.59.21c-1.08.42-3.92,1.14-4.77,1.34l-.41.1-.39-.14a42.54,42.54,0,0,0-4.23-1.22,2.24,2.24,0,0,0-1.78.23,2.57,2.57,0,0,0-1,1.4l0,10.93h2.11v3.31h4.28v1.52h1.6v2.44h2v1.57h2.32l.27,1.84h4v-3.36l1.94-.22-.22-1.74h4.25l.54-2,9.35.44.19,1.13a3.1,3.1,0,0,0,1.12,2.14,5.61,5.61,0,0,1,1.18.92,10.92,10.92,0,0,0,2.45,1.79,5,5,0,0,0,3.73.73,5.49,5.49,0,0,1,.84-.08,3.73,3.73,0,0,0,2.26-1l.8-.56c.76-.51,1.15-1.61,1.6-2.88a17.92,17.92,0,0,1,1.14-2.74l.88-1.59,2.17.51.09,1a8.61,8.61,0,0,1,0,1,4.56,4.56,0,0,0,0,.9,4.43,4.43,0,0,1-1.07,3.29c-.81.63-.91,2.65-.67,3.43a4.75,4.75,0,0,0,.45,1,7.84,7.84,0,0,1,.85,2,5.49,5.49,0,0,1,.23,1.59,4.34,4.34,0,0,0,.26,1.55c.18.55.45.88.78,1s.95-.13,1.61-.72c1.41-1.26,2.48-1.29,4.78-.15l.13.07a4,4,0,0,0,3.2.73,2.88,2.88,0,0,0,1.43-1l.43-.52h5.28l-.53,1.81a12.72,12.72,0,0,1-.81,2.38l-.13.2a5,5,0,0,0-.74,1.69l-.07.33-.21.26-.3.35-.13.15a13.13,13.13,0,0,0-1,1.23l-.39.59-.7,0c-2.5.17-11.62,0-19.07-.15v5.08h-1.42c-5.72,0-9.68,0-10.07,0a.23.23,0,0,0-.18.1.76.76,0,0,0-.11.3l-.25,1.32L171,217l0,2h-1.44l-.54,1.89-1.12-.06a1.33,1.33,0,0,0-.83.15,10.1,10.1,0,0,1-3,1.27,4.74,4.74,0,0,1-2.43-.1l-.53-.11c-.49-.1-.91-.21-1.31-.31a10.76,10.76,0,0,0-2.34-.42.8.8,0,0,0-.67.25,2.62,2.62,0,0,0-.22,1.92l0,.25c0,.21,0,5.22-.08,6,0,.23-.05.39-.07.55a2.37,2.37,0,0,1-.44,1.33l-.46.64-.93-.07,0-1.42-.13,1.41c-.27,0-.61,0-1,0a3.73,3.73,0,0,0-.75,0s0,0,0,.1l.1.45-.29.64a2.85,2.85,0,0,1-.31.46l-.38.45-.59,0a1.48,1.48,0,0,0-.54.1c-.13.06-.22.17-.14,1a8.2,8.2,0,0,1-.06,2.36,29,29,0,0,1-1.87,5.17l1.91,0c.35.08,2.11.54,2.37,1.77a3.33,3.33,0,0,1,.06,1.2,9.83,9.83,0,0,0,.23,3c.45,2.52,2.78,3.76,4.17,4.49l.13.07a8.71,8.71,0,0,1,.76.43,7.48,7.48,0,0,0,1.75.82l.59.22.77.32.1.83a16.58,16.58,0,0,1-.1,3.15l0,.18-1.4-.25,1.37.36a11.35,11.35,0,0,1-.46,1.45l-.18.42-.39.24a4.56,4.56,0,0,0-.85.68,6.19,6.19,0,0,1-.72.64l-.22.12-.32.12-.72.24c-.45.17-.7.42-.67.68s.48.62,1.07.7l.67.06,2.19.15-1,1.93a19.25,19.25,0,0,1-2.14,3.17,10.56,10.56,0,0,0-1.81,4.59c0,.57.22,1.09,1.39,2.18l.22.21.12.28c.24.56.47,1.78-.3,5.86,0,.2-.07.35-.08.45a10.79,10.79,0,0,0,.24,4.31c.37.88,2.33,1,4.41,1.1.61,0,1.25.07,1.88.12l1.85.18-.44,1.62a2.42,2.42,0,0,0-.09.71c0,.9.1,1.71.18,2.43s.13,1.26.15,1.84c0,1.35,2.5,3.38,3.37,3.64S179,302.11,181,302.55s3.92,1.09,5.07,1.47l1.72.57-1,1.53-.24.4A3.23,3.23,0,0,0,186.83,309.32Zm-29.07-47.79.16.38ZM49.81,185.4Zm-.08-1.51h0Zm95.08-14.71c1.37.34,2.62.73,3.45,1l.6-.15-.36,0v-1.72Zm147.59-4.65Zm.56-.71h0ZM106.24,127.95Zm43.89-21.55-.16.09c-.21.12-.37.22-.5.31A1.68,1.68,0,0,0,150.13,106.39Zm47.75-41.86Zm98.4-16.86Z"/></svg>