<svg id="Layer_2" data-name="Layer 2" xmlns="http://www.w3.org/2000/svg" viewBox="0 0 350 350"><defs><style>.cls-1{fill:#999;}.cls-2{fill:#f90;}</style></defs><title>M_</title><path class="cls-1" d="M275.35,128.91c2.85-.85,3.67-3.72,4.4-6.25a19.29,19.29,0,0,1,1-2.86,80.87,80.87,0,0,0,3.12-8.5l24.32-13.6.14-.48a1.54,1.54,0,0,0,.05-.32c.64-.35,1.28-.7,1.91-1.07,1.95-1.13,4.81-2.39,5.19-4.92.34-2.29-1.41-4.07-3.35-5-1.52-.7-3.25-.59-4.77-1.24-2.23-1-2.31-2.64-3.53-4.51a6.81,6.81,0,0,0-5.92-3c-4,0-7.69,2.93-11.67,1.78-6.77-2-7.4-10-6.71-15.77a1.46,1.46,0,0,0-1.84-1.4l-12,3.89a1.42,1.42,0,0,0-.76.55,1.77,1.77,0,0,0-.51-.24,3.55,3.55,0,0,1-.74-2.23c.63-1.47-.59-2.5-1.66-3.4a15,15,0,0,1-2.18-2.14c-1.16-1.45,1-3.37,1.12-3.45l1.82-1.55-13.42-3.11L248,39.07c-.1-.84-.86-1.77-1.84-1.4a32,32,0,0,1-13.75,2.14A30.45,30.45,0,0,1,225,38.29c-1.95-.66-4-2.21-6-2.47-2.3-.29-4.48,1.49-6.39,3.95l-1.82-.29L202,49.7l-2.38-3.28,2.79-3.25-1.78-3.43,3.61-1.08L203,37.25s-3.39-3.84-7.77-8.82a2.85,2.85,0,0,0,0-1.7c-.54-1.7-2.49-3.18-5-3.77-1.16-.28-3.8-.66-7.14-1.14C177,20.95,167.73,19.62,165,18.4c-3.05-1.36-2.49-3-2.43-3.21l.52-1.18-2.44-.89-1.56-4.3-.91.07a42.34,42.34,0,0,1-6.18.16,2.12,2.12,0,0,0-1.63,0,7.74,7.74,0,0,1-3.64.14c-4.2-.49-16.15,0-16.66,0l-.82,0-1.14,3.27a17.8,17.8,0,0,0-4.65,2.23A15.57,15.57,0,0,1,121.14,16c-1.23.37-8.95,2-12.86,2.85l-.58.12-1.64,3.45C103.95,25,93.65,30,89.81,31.68l-2,.91,1.88,1.2c.07,0,1.61,1,7.48,4.17a2,2,0,0,0-.22.76c-.15,1.73,1.85,3,3.46,4,.08.05.32.21.14.76s-.75,1.05-1.15,1a1.75,1.75,0,0,0-1.66.76c-.47.72-.41,1.89.18,3.51a6.49,6.49,0,0,0-3-.22,13,13,0,0,1-2.43,0,13.89,13.89,0,0,0-2.48,0c-1.29.18-4.28,2.35-5.51,3.27l-.42.31-.38,3.39A70.2,70.2,0,0,0,84,65.35l.06.64,2.06,1.12.55.82-.32,2.58L88,72.9l-2.54.8.86,3.44H83.65l.62,4.54-1,2.14c-5.59-.26-6.21.21-6.52.44-.47.35-4.08,2.92-5.79,4.14l-3.21-3.76-.36-.1a40.74,40.74,0,0,0-7.35-1.32c-1.49,0-6.74-1.53-9.7-2.5l-.51-.17-7.77,4.56,3,.65c.81.17,1.78,2.82,2.1,5.07L51,105l5.55,1.17-2.17,8L58.18,123l.1.19c.48.72,1.72,2.89,1.72,4.29s-.83,6.32-1.35,9.21l-2.88-.78-7.66,6.7,1,1.59-14.62,8.77,11.64,12.18,7.94-.18.3-.22a29.3,29.3,0,0,0,4.54-4.05.39.39,0,0,1,.31-.17,3.86,3.86,0,0,1,2.06,1.06l6.43,7.18c-.8,4-1.33,8.9.25,11.26a2.73,2.73,0,0,0,1.79,1.24c1.64.3,15.54.22,19.6.19a14.41,14.41,0,0,1-.1,4.52c-.65,4.23.89,12,4.52,17.18a34.05,34.05,0,0,0,6.33,7.14l.28.21.35,0c.06,0,6.56.61,17.42,4.76l.66.25.54-.46c5-4.26,8-2.22,13,1.16l1.2.81.31,0,1.19.1a37.18,37.18,0,0,1,5.21.69,43,43,0,0,0,3,31.89c6.63,12.73,18.85,21.09,29.88,29.7a103.25,103.25,0,0,1,15.65,14.44c6,7.1,9,14.57,10.14,23.73.77,6,2.65,11.07,7.3,15.07s10.77,6.35,16.58,8.43a1.47,1.47,0,0,0,1.79-1,81.14,81.14,0,0,1,8.93-20.64c4.11-6.69,9.49-12,14.51-17.9,4.52-5.36,8-13.73,4.91-20-7.37-6.09-14.63-12.29-21.88-18.52-8.23-7.08-16.24-15.44-25.76-20.76-5.61-3.13-11.68-5.35-17.32-8.43-3.59-2-7.76-4.58-8.87-8.81-1.28-4.84,2.1-9.44,5.15-12.81a135.52,135.52,0,0,1,19.84-17.37c5.73-4.2,11.52-6.49,18.44-5.93,6.42,6.17,15.8,9.33,24.62,9.91a46.94,46.94,0,0,0,30.73-9l.86-.28c1.93-.66,3.75-1.49,4.38-3.05a11.35,11.35,0,0,0,1-1.06c2.33-2.79,3.74-4.41,7.56-5a32.53,32.53,0,0,1,4-.29l.07,0c8.82,4.27,17.31-3.05,19.13-11.73.49-2.35.1-3.66-.91-4.55a1.46,1.46,0,0,0-1.82-1c-.73-.29-1.56-.55-2.48-.85a38.83,38.83,0,0,1-10.12-6.57l.12-.64c.61-3.2,1-6.25-1-8.81v-.87l-.75.08a1.47,1.47,0,0,0-1.63-.13c-.17.1-.33.21-.48.32-2.4.16-6.14.24-7.84-.37-2.88-1-7.48-1.06-12.63,0-2.83.56-3.43-.18-4.19-1.1a7.42,7.42,0,0,0-.86-.94,8.93,8.93,0,0,1-1.64-2.44l2.86-1.66L270,133l1.71-3.3A20.9,20.9,0,0,0,275.35,128.91Z"/><path class="cls-2" d="M223.15,342.6a2.57,2.57,0,0,1-.87-.15c-6.49-2.33-12.26-4.58-17-8.69-4.45-3.83-6.85-8.76-7.78-16-1.2-9.29-4.23-16.39-9.81-23a102.39,102.39,0,0,0-15.44-14.24q-1.94-1.51-3.91-3c-10-7.68-20.35-15.62-26.35-27.14A44.15,44.15,0,0,1,138.48,219c-1.25-.2-2.45-.29-3.55-.38l-1.88-.16-1.5-1c-5-3.4-7-4.81-11.25-1.25l-1.18,1-1.45-.55c-10.59-4-17-4.67-17-4.68l-.75-.07-.6-.46a35.41,35.41,0,0,1-6.63-7.46c-3.88-5.54-5.47-13.61-4.76-18.21a16.35,16.35,0,0,0,.21-2.88c-6.8,0-17,.06-18.56-.22a4.12,4.12,0,0,1-2.72-1.85c-1.44-2.15-1.64-6.06-.6-11.63l-5.91-6.6a4.3,4.3,0,0,0-.71-.49,32.62,32.62,0,0,1-4.37,3.79l-.67.48-9,.2-13.3-13.92,14.9-8.94-.88-1.39,9.15-8,2.11.58a74.11,74.11,0,0,0,1.06-7.43,9.13,9.13,0,0,0-1.48-3.51l-.22-.41-4-9.32,1.91-7-4.94-1L45.82,91a11.1,11.1,0,0,0-1.25-3.94l-6.33-1.36L49.7,79l1.12.37c3.59,1.17,8.17,2.43,9.26,2.43a41.12,41.12,0,0,1,7.71,1.37l.79.21,2.65,3.11c1.79-1.27,4.33-3.08,4.71-3.37.69-.52,1.67-.93,6.47-.76l.4-.89L82,75.73h2.52l-.74-3,1.95-.62-.9-1.26.33-2.61-.06-.09-2.41-1.32-.13-1.38a70.21,70.21,0,0,1-.32-10.14l.45-4,.91-.68c2.9-2.18,5-3.37,6.16-3.54a14.55,14.55,0,0,1,2.77,0c.47,0,1.63.1,2,.06A4.48,4.48,0,0,1,96,47.07a3.8,3.8,0,0,1,.52-2.56,3.09,3.09,0,0,1,1.94-1.33c-1.55-1.07-3.09-2.48-3-4.5C90.36,35.91,89,35,88.9,35l-4.1-2.61,4.43-2c5.44-2.45,13.77-6.74,15.64-8.78l1.85-3.91,1.27-.27c4.52-1,11.65-2.5,12.74-2.82a18.8,18.8,0,0,0,2-1.09,23.51,23.51,0,0,1,4.3-2.18l1.22-3.48L130,7.77c.51,0,12.52-.49,16.87,0a6.53,6.53,0,0,0,3-.08,3.55,3.55,0,0,1,2.44,0,51.16,51.16,0,0,0,5.69-.2l2-.15,1.7,4.69L165,13.2l-1.1,2.47c0,.21.25.8,1.67,1.43,2.56,1.14,12,2.5,17.69,3.32,3.39.49,6.05.87,7.28,1.16,3,.71,5.29,2.52,6,4.72a4.41,4.41,0,0,1,.2,1.71c4.13,4.7,7.28,8.26,7.32,8.3l2.71,3.07-4.09,1.23,1.44,2.76-2.68,3.13.67.92,8.07-9.47,1.79.29c2.38-2.84,4.78-4.13,7.15-3.83A13,13,0,0,1,223.25,36a17.1,17.1,0,0,0,2.16,1,28.91,28.91,0,0,0,7.1,1.45,30.71,30.71,0,0,0,13.14-2.05,2.56,2.56,0,0,1,2.28.21,3.24,3.24,0,0,1,1.47,2.36L250.6,49l15.2,3.52-4,3.37c-.57.49-1.08,1.3-.93,1.49a13.72,13.72,0,0,0,2,1.94c1.12.94,3,2.5,2.15,4.8a2.54,2.54,0,0,0,.08.29l.09,0,12-3.89a2.89,2.89,0,0,1,2.69.57,2.65,2.65,0,0,1,1,2.35c-.44,3.66-.76,12.36,5.7,14.24,1.88.55,3.83-.08,5.89-.74a17,17,0,0,1,5.4-1.09A8.16,8.16,0,0,1,305,79.43a15.42,15.42,0,0,1,1,1.75c.56,1.14.86,1.76,2,2.24a8.92,8.92,0,0,0,2,.5,10.94,10.94,0,0,1,2.8.76c2.31,1.07,4.62,3.33,4.15,6.45-.43,2.91-3.15,4.42-5.14,5.53l-.73.41-1.37.77-.23.82L285,112.27a76.9,76.9,0,0,1-3,8.14,18.28,18.28,0,0,0-.9,2.64c-.75,2.6-1.77,6.15-5.36,7.22a27.81,27.81,0,0,1-3.08.77l-1.13,2.19,1.5,6.38-2.57,1.49a4.2,4.2,0,0,0,.66.85,8.73,8.73,0,0,1,1,1.11c.6.73.82,1,2.82.61,5.4-1.06,10.28-1,13.39.11a22.54,22.54,0,0,0,6.88.32l.23-.14a2.86,2.86,0,0,1,2.67-.11l1.85-.19v2c2,2.88,1.63,6.21,1,9.39a37.41,37.41,0,0,0,9,5.75l.15,0c.73.23,1.44.46,2.08.7a3,3,0,0,1,1.87.48,2.68,2.68,0,0,1,1,1.24c1.63,1.71,1.39,4,1.05,5.6a18.46,18.46,0,0,1-9.43,12.72,12.89,12.89,0,0,1-11.47.1,30.13,30.13,0,0,0-3.47.27c-3.23.47-4.31,1.64-6.68,4.47a11.84,11.84,0,0,1-.93,1c-.92,1.9-3,2.83-5.09,3.56l-.5.16-.17.05A48.31,48.31,0,0,1,247,200.26c-9.88-.65-19-4.26-25.13-9.95-5.89-.36-11.15,1.41-17,5.7a131.81,131.81,0,0,0-19.63,17.18c-2.61,2.89-6,7.22-4.83,11.5.93,3.55,4.48,5.91,8.18,7.93,2.69,1.47,5.55,2.77,8.31,4,3,1.36,6.07,2.77,9,4.41,7.27,4.06,13.65,9.84,19.83,15.43,2,1.83,4.11,3.72,6.17,5.49,6.86,5.9,14.25,12.22,21.86,18.51l.23.19.13.27c3.32,6.75-.16,15.67-5.09,21.52-1.4,1.66-2.84,3.28-4.23,4.85a92.34,92.34,0,0,0-10.15,12.88,80,80,0,0,0-8.77,20.28,3,3,0,0,1-1.5,1.8A2.76,2.76,0,0,1,223.15,342.6ZM134,215.66l1.12.09a38.62,38.62,0,0,1,5.4.72l1.47.33-.42,1.45a41.44,41.44,0,0,0,2.85,30.84c5.71,11,15.8,18.71,25.57,26.2q2,1.52,3.93,3A105,105,0,0,1,189.82,293c6,7.05,9.19,14.6,10.46,24.47.83,6.46,2.94,10.84,6.82,14.18,4.38,3.77,9.85,5.92,16,8.13l0,0a82.74,82.74,0,0,1,9.08-21,95.92,95.92,0,0,1,10.45-13.28c1.38-1.56,2.81-3.16,4.19-4.79,4.27-5.06,7.38-12.59,4.84-18.17-7.53-6.23-14.86-12.49-21.66-18.34-2.08-1.79-4.19-3.7-6.22-5.54-6.06-5.48-12.32-11.16-19.31-15.06-2.84-1.59-5.87-3-8.81-4.3s-5.72-2.6-8.5-4.12c-4.25-2.32-8.36-5.11-9.56-9.69-1.48-5.61,2.42-10.75,5.47-14.12a134.6,134.6,0,0,1,20.05-17.56c6.51-4.77,12.66-6.74,19.39-6.2l.5,0,.36.35c5.65,5.43,14.3,8.9,23.73,9.52a45.41,45.41,0,0,0,29.8-8.71l.18-.13.62-.2.43-.14c1.51-.52,3.1-1.19,3.52-2.24l.12-.3.23-.22a9.88,9.88,0,0,0,.89-.92c2.33-2.79,4-4.81,8.44-5.46a34.42,34.42,0,0,1,4.17-.31H296l.4.23a10.15,10.15,0,0,0,9.14,0,15.79,15.79,0,0,0,7.91-10.76c.49-2.35-.15-2.92-.46-3.19l-.37-.32-.08-.4a.31.31,0,0,0-.13,0l-.43.1-.41-.16c-.64-.26-1.37-.49-2.23-.76l-.15,0c-1.92-.61-7.14-3.66-10.65-6.88L298,156l.26-1.42c.56-3,.89-5.58-.75-7.67l-.3-.39-.21-.16a1.31,1.31,0,0,0-.42.22l-.33.23-.4,0c-2.26.15-6.36.29-8.42-.45-2.6-.94-7-.94-11.88,0-3.4.67-4.49-.29-5.56-1.6a6.25,6.25,0,0,0-.7-.77,9.59,9.59,0,0,1-2-2.87l-.6-1.19,3.11-1.8-1.26-5.36,2.3-4.44.76-.08a19.59,19.59,0,0,0,3.34-.77h0c2-.59,2.64-2.47,3.44-5.28a20.29,20.29,0,0,1,1.06-3.08,80.56,80.56,0,0,0,3-8.31l.17-.54,24.28-13.58,0-.7,1-.59,1.54-.87.78-.44c1.64-.91,3.49-1.94,3.71-3.47s-1.16-2.83-2.54-3.47a8.52,8.52,0,0,0-2.09-.54,11.19,11.19,0,0,1-2.64-.69,6.4,6.4,0,0,1-3.37-3.59,13.06,13.06,0,0,0-.79-1.44,5.38,5.38,0,0,0-4.75-2.36,15.44,15.44,0,0,0-4.5,1c-2.38.76-4.84,1.55-7.55.76-6-1.74-8.8-8-7.74-17.15l-.06,0L266.08,67l-.79,1.16-1.19-.77-.11-.06-.36-.1-.26-.27c-.61-.62-1.47-2.57-1.06-3.7.2-.48-.06-.84-1.24-1.84a16.5,16.5,0,0,1-2.38-2.34c-1.32-1.65-.48-3.71,1-5.13L248,51.3l-1.42-12.06a.52.52,0,0,0-.07-.19,33.52,33.52,0,0,1-14.21,2.18,31.77,31.77,0,0,1-7.8-1.59A19.34,19.34,0,0,1,222,38.48a11,11,0,0,0-3.22-1.26c-1.48-.19-3.19,1-5.08,3.41l-.52.67-1.86-.3-9.37,11-4.1-5.64L200.71,43l-2.13-4.1,3.12-.94-7.55-8.57-.52-.59.23-.75a1.46,1.46,0,0,0,0-.86c-.39-1.22-2-2.35-3.94-2.82-1.1-.26-3.84-.66-7-1.11-8.19-1.18-15.75-2.34-18.45-3.54-3.84-1.71-3.43-4.18-3.23-4.86l-1.65-.6-1.42-3.91a43,43,0,0,1-6.43.12l-.25-.08c-.19-.08-.29-.06-.64,0a9.18,9.18,0,0,1-4.23.2c-3.89-.45-14.89-.06-16.29,0l-1.09,3.11-.77.17a17,17,0,0,0-4.23,2.06,14.51,14.51,0,0,1-2.64,1.38c-1.53.46-11.65,2.6-12.87,2.86l-1.52,3.11c-2.54,3.1-14.12,8.48-16.4,9.52.72.43,2.68,1.56,7,3.91l1.23.66-.65,1.24a.59.59,0,0,0-.06.23c-.08.87,1.66,2,2.81,2.7a2,2,0,0,1,.72,2.41,2.8,2.8,0,0,1-2.6,2c-.27,0-.34.09-.37.13s-.31.5.33,2.25l.9,2.47-2.56-.6a5.1,5.1,0,0,0-2.22-.25,9.56,9.56,0,0,1-2.94,0,13.73,13.73,0,0,0-2.21,0c-.43.06-2.05.9-4.79,2.94l-.31,2.78a63.73,63.73,0,0,0,.31,9.44l1.7.93,1,1.55-.32,2.56,2.52,3.53-3.13,1,1,3.91H85.28l.45,3.33-1.52,3.38-1,0c-4.57-.21-5.47.09-5.6.15-.44.33-3.19,2.29-5.83,4.17l-1.06.75L67,85.89a37.31,37.31,0,0,0-6.92-1.25c-2.11,0-9.16-2.25-10-2.54l-4.16,2.44c1.88,1,2.61,5.19,2.74,6l3.49,13.21,6.17,1.3L55.83,114l3.67,8.43c.27.42,1.92,3,1.92,5,0,1.62-1,7.15-1.37,9.46l-.27,1.53-3.64-1L50,142.83l1.14,1.79-14.35,8.61,10,10.45,6.87-.16a27.42,27.42,0,0,0,4.22-3.76,1.8,1.8,0,0,1,1.32-.69,5.27,5.27,0,0,1,3.1,1.43l.1.1,6.91,7.71-.14.7c-1,5-1,8.67,0,10.19a1.36,1.36,0,0,0,.87.64c1,.18,8.75.24,19.33.16h1.21l.2,1.19a15.8,15.8,0,0,1-.1,5c-.61,4,1,11.41,4.28,16.16a34,34,0,0,0,6,6.79c.7.07,7.15.81,17.62,4.8,5.79-4.85,9.67-2.2,14.58,1.15ZM265,64h0Z"/></svg>