<svg id="Layer_1" data-name="Layer 1" xmlns="http://www.w3.org/2000/svg" viewBox="0 0 350 350"><defs><style>.cls-1{fill:#999;}.cls-2{fill:#f90;}</style></defs><title>M</title><path class="cls-1" d="M29.58,93.14c.09-.23.2-.45.3-.67l-.87.44a.67.67,0,0,1,0,.17c0,.3,0,.59,0,.89A4.38,4.38,0,0,1,29.58,93.14Z"/><path class="cls-2" d="M27.27,100.08l.34-6.92-.21-1,1-.55.85-.43,3.83-2-1.9,3.88c-.09.19-.18.38-.26.58l-.09.23-.17.18a3,3,0,0,0-.4.57Z"/><path class="cls-1" d="M336.73,236.53l-.42,0c-3.15-.27-4.81-4.05-6.27-7s-5.63-6-8-3.51c-1.84,2-.34,5.08.34,7.69,3.14,12.08-11.14,1.29-9.15.72a11.68,11.68,0,0,1-10.43-2.15,6.2,6.2,0,0,1-2.55-4.49c0-1.78,1.49-3.61,3.26-3.41.84.09,1.59.59,2.43.71,2.39.34,4.1-2.83,3.2-5.07s-3.35-3.46-5.71-4c-2.61-.59-28.44-11.89-28.79-10.81,1.58-4.9-5.44-9.83-9.51-6.68a27,27,0,0,0-1.29-13.14l0,0c7.27-8.19-.51-5.6-8.08-10.1-3.33-2-6-5.54-5.76-9.41a11.15,11.15,0,0,0-8.83,3.67c.64-1.72-1-3.54-2.73-4.09s-3.66-.33-5.45-.71a8.56,8.56,0,0,1-6.49-8.71A2.31,2.31,0,0,0,227,156a16,16,0,0,0,6-3l9.82-3.77a10,10,0,0,0,4.47-2.71c2-2.59,1.08-6.39,1.94-9.58,1.45-5.4,7.59-7.87,11.24-12.12h-.07l.17-.12-.1.11c.47-.07.7-.38,1-1.21l0-.06,0-.07s0-.07,0-.11a4,4,0,0,1,.62-1.08.32.32,0,0,0,0-.3.54.54,0,0,0-.26-.27c0,.11,0,.22,0,.34s-.05.21-.08.31a3.11,3.11,0,0,0,0-.68l.1,0c.14-3-3.54-4.7-6.55-5.34s-7-2.06-7.09-5.25c0-2.3,2.16-4.15,2.28-6.45a5.93,5.93,0,0,0-1-3.19c-3.5-6.09-10.79-8.61-16.94-12s-12.21-9.84-10.16-16.56c-.34,1.17-6.37,2.82-7.21,3.06a6.54,6.54,0,0,0,1.37-4.92A6.12,6.12,0,0,0,212,66.21c4.15-.3,6.39-6.08,4-9.48s-7.82-3.73-11.09-1.17c-1.82,1.42-3.09,3.9-2.24,6,.35.87,1,1.6,1.35,2.47.94,2.37-.78,5.12-3.08,6.22s-5,1-7.51.87c-2.09-2.85-2.16-7.51.8-9.44a27.05,27.05,0,0,1,2.89-1.33,10.37,10.37,0,0,0,5.06-7.08c.78-3.32.59-7.23.64-10.5-2.54.06-6.53,1-8.64,2.71-1.31-4-.57-9.18-1.73-13.68-.32-1.26-.83-2.64-2-3.18s-2.32-.1-3.48.13c-6.7,1.34-13.08-2.85-19.53-5.11s-15.72-1.1-17.21,5.56a16.65,16.65,0,0,0-12.88,11.21,38.57,38.57,0,0,0-14.55-12.06,9.21,9.21,0,0,1-9.66-.32l1.73-9.65a14.29,14.29,0,0,1-11.26,8.43c4.24-.49,2.73-17.08,1.88-19.38-2.17,3.06-5.32,4.42-8.56,6.21,2.06,4.47-2.48,9.29-7.06,11.08s-10,2.45-13.21,6.15a14.87,14.87,0,0,0-3.12-9.4,6.37,6.37,0,0,0-3.17,7.77,16.18,16.18,0,0,0-4-4.82c-3.4.49-3.12,5.45-2.21,8.76s-.29,8.53-3.61,7.63c4.23,1.16-3.23,19.39-4.65,21.69-5.5,8.91-14.53,16.87-21.39,24.79-4,4.6-8.18,9.82-8.57,15.75a3.38,3.38,0,0,0-.28,1.6,4.45,4.45,0,0,0,.45,1.61,12.85,12.85,0,0,0,1.07,3.32c1.57,3.24,4.4,7.32,1.81,9.81-1.67,1.61-5,1.39-5.74,3.57-.72,2,1.55,4.15.94,6.2a4.41,4.41,0,0,1-1.9,2.15,32.88,32.88,0,0,1-9,4.39c2.39,0,3.66,2.85,3.95,5.22s.4,5.15,2.34,6.54c2.94,2.1,6.7-.83,10.05-2.15,3.76-1.49,8-.85,12-.19,2.23,7.33,1.18,11.55-5.82,10.28-3-.54-4.64,3.56-4,6.52.84,4,4.06,11.15-1.34,13.75-1.3.63-2.86.59-4.14,1.27-3.18,1.71-2.69,6.35-1.75,9.83,2.12,7.81,2.89,22.68,12.81,24.75a11,11,0,0,0,10.59-3.8c1.83-2.29,3-5.52,5.82-6.34a8.71,8.71,0,0,1,4.81.46l13,3.78c5.54,1.61,12.86,7.21,7.92,13.71-3,4-10.67,5.67-9.34,10.47,1.41,5.13,11.18,2.87,12.92,7.89a7.6,7.6,0,0,1-.18,4.2l-5,21.33c-.78,3.3-1.45,7.13.65,9.79A10.17,10.17,0,0,0,83.33,276a46.82,46.82,0,0,0,19.27,2.35,4.6,4.6,0,0,1,.57-4.95l4.08,1.28c-2.26,1.11-1.94,4.68-.14,6.45s4.39,2.38,6.68,3.43c9.31,4.3,12.79,17.77,6.73,26l-5.08.11a35.85,35.85,0,0,1-.53,10c.26-1.35,3.5,2.1,2.59,4.82-.75,2.24-6.57,3.84-7.9,7.05s-.23,7.77,3.06,9.18c7.27,3.1,18.49-4.47,22.56-9.85,3.67-4.85,6.35-10.5,10.68-14.77a28.55,28.55,0,0,1,17.88-7.84c2.06-.15,4.49.09,5.61,1.82,1.24,1.93.14,4.42-.61,6.59-1.66,4.79.8,12.13,5.75,11,3.23-.71,4.55-4.66,4.5-8s-.84-6.8.52-9.82c2.58-5.72,11.49-5.61,16-1.28s5.84,11,6.92,17.16a33.11,33.11,0,0,0,5.36-24.15c-.38-2.25-.92-4.85.55-6.59a6.92,6.92,0,0,1,4.06-1.86c5.89-1.21,13.37-1.35,16.37,3.86a33.47,33.47,0,0,1,14.07-4.68c.33,4.47.74,9.16,3.19,12.92s7.67,6.12,11.57,3.89l.35-5a10.12,10.12,0,0,1,7.57,1.82L273.48,288a6.07,6.07,0,0,0,8.36-.84c-.78,7.16,5.6,12.86,11.35,17.19,2.14,1.61,4.38,3.27,7,3.82,5.78,1.2,11.52-3.8,12.77-9.57s-1-11.78-4.24-16.71a15.77,15.77,0,0,1-2.47-4.64A6.65,6.65,0,0,1,318.81,273a34,34,0,0,1,13.76-4.85c-1.54-5.48-3.09-11.06-2.89-16.75S332.09,239.82,336.73,236.53Z"/><path class="cls-2" d="M116.38,343.91a10.81,10.81,0,0,1-4.27-.82c-4.19-1.79-5.37-7.24-3.82-11,.88-2.14,3.13-3.55,5.1-4.79,1.09-.68,2.58-1.62,2.76-2.17.43-1.29-.79-3.05-1.28-3.32a1,1,0,0,0,.81,0,1.09,1.09,0,0,0,.62-.74h0l-2.78-.54h0a34.37,34.37,0,0,0,.51-9.6l-.13-1.51,5.87-.13a16.12,16.12,0,0,0,1.78-12.75,16,16,0,0,0-8.35-10.6c-.61-.28-1.25-.53-1.88-.78a14.58,14.58,0,0,1-5.2-2.93,6.39,6.39,0,0,1-1.54-2.55l-1.85.16a48.47,48.47,0,0,1-19.85-2.42A11.54,11.54,0,0,1,77.35,274c-2.7-3.42-1.54-8.35-.92-11l5-21.33a6.4,6.4,0,0,0,.22-3.41c-.61-1.76-3-2.35-5.5-3-3.05-.76-6.51-1.62-7.45-5-1.11-4,2.33-6.28,5.35-8.28a17.45,17.45,0,0,0,4.23-3.43,5.15,5.15,0,0,0,1.1-4.94c-1-3-4.92-5.57-8.29-6.55l-13-3.78a7.46,7.46,0,0,0-4-.46c-1.5.44-2.5,2-3.56,3.64A26,26,0,0,1,49,208.67,12.45,12.45,0,0,1,37,213c-8.93-1.87-11.15-12.77-12.77-20.73-.37-1.84-.73-3.59-1.12-5-2-7.32.23-10.27,2.44-11.45a9.34,9.34,0,0,1,2.51-.81,7.73,7.73,0,0,0,1.68-.49c3.15-1.52,2.44-5.17,1.18-9.78-.23-.86-.46-1.67-.61-2.41a8,8,0,0,1,1.8-6.91A4.23,4.23,0,0,1,36,154.06c1.56.28,3.6.41,4.51-.61.67-.75,1.18-2.59-.05-7-3.39-.55-7.11-1-10.33.26-.73.29-1.48.66-2.29,1.06-2.89,1.43-6.17,3-9.12.93-2.26-1.62-2.58-4.49-2.84-6.79l-.08-.73c-.2-1.59-1-4-2.55-4l-9.1,0,8.69-2.72a31.36,31.36,0,0,0,8.57-4.2,3.32,3.32,0,0,0,1.35-1.39,3.92,3.92,0,0,0-.45-2.15,5.8,5.8,0,0,1-.46-4.12c.68-1.9,2.48-2.54,3.94-3.06A6.27,6.27,0,0,0,28,118.42c1.33-1.28.3-3.54-1.3-6.6-.28-.54-.55-1.06-.8-1.56a14.2,14.2,0,0,1-1.16-3.5,5.67,5.67,0,0,1-.51-1.95,4.79,4.79,0,0,1,.3-2c.51-6.19,4.67-11.47,8.9-16.34,2.25-2.59,4.77-5.23,7.2-7.79C45.71,73.28,51,67.73,54.65,61.83c2-3.18,7.19-17.95,5.45-19.59l.77-2.72a.94.94,0,0,0,1-.26c1-1,1.37-3.66.83-5.63-.37-1.34-1.42-5.91.37-8.64a4.21,4.21,0,0,1,3-1.9l.61-.09.48.39a17.19,17.19,0,0,1,1.66,1.54,7.41,7.41,0,0,1,4-4.69l1-.44.67.86A16.2,16.2,0,0,1,77.79,28a27.87,27.87,0,0,1,7.73-3.27c1.32-.41,2.56-.79,3.75-1.26a11.45,11.45,0,0,0,6.29-5.65,4.3,4.3,0,0,0,0-3.52L95,13.1l1.16-.64,1.41-.76c2.69-1.44,5-2.68,6.68-5l1.55-2.19L106.74,7c.73,2,1.81,12,.34,17.39a13,13,0,0,0,6.42-6.51l4.93-11.6-3.79,21.08a7.85,7.85,0,0,0,7.38-.19l.65-.38.68.32a39.92,39.92,0,0,1,13.54,10.53A18.21,18.21,0,0,1,149,28a9,9,0,0,1,4.33-5c3.77-2.1,9.59-2.35,14.48-.64,1.71.6,3.41,1.33,5.06,2,4.72,2,9.18,3.93,13.72,3l.48-.1a6,6,0,0,1,3.87.07c1.76.79,2.42,2.62,2.8,4.12a35.47,35.47,0,0,1,.83,7,41.18,41.18,0,0,0,.43,4.8,19.87,19.87,0,0,1,7.7-1.87l1.47,0,0,1.47c0,.64,0,1.3,0,2a39.91,39.91,0,0,1-.67,8.82,15,15,0,0,1-.51,1.73,8.36,8.36,0,0,1,1-.93,9.91,9.91,0,0,1,7.44-1.88,8.3,8.3,0,0,1,5.68,3.35,7.77,7.77,0,0,1,.42,7.68,7.52,7.52,0,0,1-2.12,2.7,7.45,7.45,0,0,1,2.72,4.52,7.06,7.06,0,0,1-.12,2.88c2.75-.92,3.29-1.4,3.36-1.47a.72.72,0,0,0-.15.28l2.72.81,0,.05c-1.72,5.72,3.53,11.59,9.5,14.87,1.25.69,2.59,1.36,3.89,2,5.22,2.62,10.61,5.33,13.6,10.52a7.13,7.13,0,0,1,1.14,4,8.83,8.83,0,0,1-1.31,3.72,5.92,5.92,0,0,0-1,2.63c0,2.17,3.27,3.31,6,3.89,3.55.76,7.26,2.71,7.65,6l7.21-5.11-7.28,8v.25l-.14-.08-.49.53a2.82,2.82,0,0,1-1.4,1.54,36.52,36.52,0,0,1-4.5,4c-2.76,2.19-5.36,4.25-6.17,7.26a16.76,16.76,0,0,0-.4,3.47c-.11,2.29-.23,4.65-1.79,6.63a11.22,11.22,0,0,1-5.08,3.15l-9.63,3.7a17.51,17.51,0,0,1-5.73,2.91,7.19,7.19,0,0,0,5.35,6.18,15.27,15.27,0,0,0,2.2.24,14,14,0,0,1,3.38.5,5.92,5.92,0,0,1,3.32,2.65,12.53,12.53,0,0,1,7.9-2.29l1.42.08-.08,1.42c-.18,3,1.81,6.17,5.07,8.1a27.22,27.22,0,0,0,6.51,2.59c2.53.74,4.52,1.32,5.05,3.16.43,1.5-.3,3.19-2.62,5.91a28.37,28.37,0,0,1,1.35,10.54,7.81,7.81,0,0,1,6,1.44,7.5,7.5,0,0,1,3.46,6.29c2.16.6,6.69,2.34,17.22,6.63,4.6,1.88,9.37,3.82,10.25,4,3.38.77,5.77,2.49,6.71,4.85a5.56,5.56,0,0,1-.85,5.33,4.13,4.13,0,0,1-3.87,1.67,6.69,6.69,0,0,1-1.48-.43,4.08,4.08,0,0,0-.9-.28,1.27,1.27,0,0,0-1,.38,2.25,2.25,0,0,0-.73,1.61,4.83,4.83,0,0,0,2,3.41,10.2,10.2,0,0,0,9.14,1.89h0l.78,2.72a1.17,1.17,0,0,0,.74-.67,1,1,0,0,0,0-.81c.6,1.17,5.12,4.19,6.63,3.62.31-.12.71-1.08,0-3.87-.12-.46-.26-.93-.41-1.41-.74-2.4-1.66-5.39.4-7.6a4.31,4.31,0,0,1,3.88-1.34c2.69.39,5.25,2.91,6.39,5.19l.28.58c1.26,2.55,2.69,5.45,4.84,5.63h.29l4.49,0-3.66,2.6c-3.83,2.73-6.24,7.88-6.44,13.78-.19,5.55,1.35,11,2.84,16.32l.45,1.59-1.64.2a32.62,32.62,0,0,0-13.19,4.65l-1.4.87-.65-1.52a5.23,5.23,0,0,0-9.88,3.32,12.29,12.29,0,0,0,1.9,3.64l.38.57c2.84,4.33,5.92,10.94,4.44,17.79-1.34,6.18-7.6,12.07-14.44,10.66-3-.62-5.42-2.45-7.57-4.07-5.52-4.16-11.05-9.19-11.88-15.5a7.7,7.7,0,0,1-2.49.68,7.52,7.52,0,0,1-3.82-.59l-7.95,19.21-1.46-1.08a8.71,8.71,0,0,0-5.39-1.66l-.32,4.58-.66.38c-4.63,2.64-10.7-.12-13.46-4.35-2.4-3.68-3-8.21-3.3-12.11a32.12,32.12,0,0,0-12,4.31l-1.24.75-.72-1.26c-2.79-4.85-10.5-4.08-14.85-3.18A5.85,5.85,0,0,0,209.5,297c-1,1.16-.63,3.17-.29,5.12l.05.32a34.42,34.42,0,0,1-5.59,25.2l-2,2.84-.59-3.41c-1.16-6.67-2.44-12.5-6.5-16.37a10.72,10.72,0,0,0-9.08-2.58,6.18,6.18,0,0,0-4.68,3.41c-.86,1.92-.7,4.18-.53,6.57.06.86.13,1.76.14,2.64.06,4-1.65,8.51-5.62,9.38a5.57,5.57,0,0,1-5.53-1.88c-2.33-2.63-3.13-7.36-1.86-11l.23-.65c.63-1.75,1.27-3.55.53-4.71s-2.76-1.3-4.31-1.18a27.27,27.27,0,0,0-17,7.44,49.87,49.87,0,0,0-6.67,8.89c-1.22,1.9-2.48,3.87-3.88,5.72C132.91,337.33,124,343.91,116.38,343.91Zm.18-24.41a4.34,4.34,0,0,1,.61.53,6.29,6.29,0,0,1,1.68,6c-.51,1.52-2.1,2.52-3.94,3.67-1.62,1-3.45,2.17-4,3.47-1.05,2.55-.29,6.23,2.31,7.33,6.45,2.75,17.18-4.53,20.88-9.4,1.33-1.76,2.56-3.68,3.75-5.54a52.68,52.68,0,0,1,7.06-9.38,30.15,30.15,0,0,1,18.77-8.24c3.36-.24,5.69.59,6.9,2.47,1.5,2.33.53,5-.24,7.2l-.22.63c-.93,2.67-.34,6.35,1.3,8.2a2.74,2.74,0,0,0,2.8,1c2.39-.52,3.43-3.77,3.39-6.56,0-.81-.07-1.62-.13-2.48-.19-2.64-.38-5.36.78-7.93a8.93,8.93,0,0,1,6.72-5,13.48,13.48,0,0,1,11.58,3.31c4,3.83,5.67,9.38,6.66,14.27a31.6,31.6,0,0,0,3.24-20l-.05-.31c-.41-2.35-.91-5.26.92-7.43a8.19,8.19,0,0,1,4.86-2.33c8-1.65,14-.45,17.08,3.37a35,35,0,0,1,13.5-4.21l1.44-.14.11,1.45c.3,4.08.65,8.71,3,12.25,1.88,2.88,5.9,5,9,3.75l.37-5.31,1.1-.18a11.5,11.5,0,0,1,7.13,1.13l8-19.33,1.48,1.26a4.66,4.66,0,0,0,6.33-.63l3.05-3.88-.53,4.91c-.68,6.33,5.07,11.59,10.8,15.91,1.91,1.44,4.07,3.07,6.44,3.56,5.08,1.05,10-3.61,11.1-8.48,1.28-5.89-1.49-11.75-4-15.63l-.37-.55a14.54,14.54,0,0,1-2.29-4.53,8.05,8.05,0,0,1,14.45-6.51A35.55,35.55,0,0,1,330.78,267c-1.35-4.85-2.69-10.22-2.51-15.63a21.38,21.38,0,0,1,5.55-14.2c-2.25-1.33-3.62-4.1-4.77-6.44l-.28-.57c-.9-1.8-2.81-3.44-4.26-3.65a1.45,1.45,0,0,0-1.4.47c-.88.94-.48,2.53.23,4.84.16.52.32,1,.45,1.53,1.37,5.24-.36,6.88-2,7.34-3,.79-7.86-2.38-9.5-4.58a13.08,13.08,0,0,1-10.3-2.74,7.49,7.49,0,0,1-3.07-5.57,5.07,5.07,0,0,1,1.66-3.75A4.05,4.05,0,0,1,303.7,223a6.27,6.27,0,0,1,1.61.45,4.52,4.52,0,0,0,.87.27,1.34,1.34,0,0,0,1.24-.62,2.72,2.72,0,0,0,.45-2.52c-.8-2-3.29-2.82-4.71-3.14-1.06-.24-4.57-1.66-10.69-4.16-6.43-2.62-16.15-6.59-17.61-6.69a1.28,1.28,0,0,0,1.17-.91l-2.7-.87h0c.63-2-.74-3.8-2.1-4.75s-3.55-1.63-5.19-.36l-2.8,2.17.53-3.5a25.5,25.5,0,0,0-1.22-12.45l-.28-.79.64-.72c2.59-2.92,2.5-3.71,2.48-3.79-.2-.37-2-.89-3.12-1.23a29.58,29.58,0,0,1-7.16-2.87,12.73,12.73,0,0,1-6.42-9.19,9.8,9.8,0,0,0-6.4,3.18l-5,5.65,2.63-7.08a1,1,0,0,0-.09-.83,3,3,0,0,0-1.74-1.41,11.64,11.64,0,0,0-2.71-.38,17.85,17.85,0,0,1-2.61-.3,10,10,0,0,1-7.6-10.2l.09-1.25,1.25-.06.17,0a14.59,14.59,0,0,0,5.51-2.7l.16-.12,10-3.84a8.94,8.94,0,0,0,3.87-2.27c1-1.26,1.09-3.08,1.18-5a19.16,19.16,0,0,1,.5-4.06c1.05-3.91,4.15-6.37,7.15-8.74l.12-.09-1.53.42,6.51-4.85.1-.24,0-.1,0-.07,0-.1c.08-.18.16-.37.26-.56l-.11,0a1.77,1.77,0,0,0,0-.37l-.12-1.14c-.7-1.4-3-2.47-5.22-2.94-5.4-1.15-8.16-3.38-8.21-6.61a8.17,8.17,0,0,1,1.31-4,6.58,6.58,0,0,0,1-2.52,4.5,4.5,0,0,0-.77-2.41c-2.56-4.46-7.34-6.86-12.41-9.4-1.32-.66-2.68-1.35-4-2.06-6-3.27-11.23-8.93-11.29-15a48.53,48.53,0,0,1-4.86,1.59l-4.24,1.21,2.57-3.39a5.12,5.12,0,0,0,1.1-3.83,4.68,4.68,0,0,0-3.65-3.7l-6.14-1.15a7.48,7.48,0,0,1-4.06,5.12c-2.68,1.29-5.74,1.13-8.2,1l-.67,0-.4-.54a9.46,9.46,0,0,1-1.64-7,6.58,6.58,0,0,1,2.81-4.42,10.89,10.89,0,0,1,2-1c.35-.14.7-.28,1-.45A8.88,8.88,0,0,0,200.74,53a37.32,37.32,0,0,0,.59-8.17v-.47A13.68,13.68,0,0,0,195,46.62l-1.6,1.33-.65-2a28.77,28.77,0,0,1-1-7.35A33.5,33.5,0,0,0,191,32.2c-.21-.82-.56-1.94-1.23-2.24a3.86,3.86,0,0,0-2.1.12l-.52.11c-5.41,1.08-10.48-1.09-15.39-3.2-1.61-.69-3.27-1.4-4.88-2-4.17-1.46-9.06-1.28-12.17.45a6.11,6.11,0,0,0-3.2,4.09l-.21.93-.94.16a15.18,15.18,0,0,0-11.76,10.24l-.84,2.69-1.66-2.28A37.07,37.07,0,0,0,122.76,30a10.61,10.61,0,0,1-10.5-.74l-.76-.52.79-4.43a15.57,15.57,0,0,1-8.61,4h0l-.33-2.82h0c.11,0,.27-.18.43-.43,1.54-2.52,1.26-10.26.75-14.46a27.85,27.85,0,0,1-5.64,3.64l-.33.18a7.29,7.29,0,0,1-.38,4.5,14.22,14.22,0,0,1-7.89,7.23c-1.29.5-2.64.92-3.95,1.33-3.4,1.05-6.61,2-8.71,4.44l-2.57,2.94.09-3.9a13.57,13.57,0,0,0-2.1-7.47,5.1,5.1,0,0,0-1.44,5.39L69,30A14.79,14.79,0,0,0,66,26.07a1.38,1.38,0,0,0-.5.47c-.73,1.12-.74,3.67,0,6.34s.34,6.49-1.56,8.38a4.1,4.1,0,0,1-.91.69c1.31,5.54-5,19.9-6,21.37-3.8,6.15-9.2,11.81-14.42,17.28-2.53,2.65-4.91,5.15-7.11,7.69-4,4.58-7.87,9.5-8.23,14.91l0,.25-.1.23a2,2,0,0,0-.16.94,3,3,0,0,0,.32,1.08l.08.17,0,.19a11.47,11.47,0,0,0,1,3c.23.48.49,1,.76,1.49,1.57,3,3.72,7.11.75,10a8.46,8.46,0,0,1-3.17,1.69c-1.24.44-2,.75-2.22,1.34a3.68,3.68,0,0,0,.44,2.15,6.07,6.07,0,0,1,.53,4A5.63,5.63,0,0,1,23,132.53,34.21,34.21,0,0,1,16.7,136a9.23,9.23,0,0,1,1.93,4.79l.09.75c.22,1.93.44,3.92,1.68,4.81,1.45,1,3.4.21,6.21-1.17.82-.4,1.66-.82,2.5-1.15,4.23-1.67,8.93-.9,12.71-.28l.87.14.26.84c1.58,5.2,1.49,8.56-.3,10.57-1.43,1.61-3.83,2.12-7.13,1.52a1.39,1.39,0,0,0-1.33.48,5.3,5.3,0,0,0-1.06,4.36c.14.65.35,1.42.57,2.23,1.13,4.15,2.85,10.41-2.68,13.08a10.1,10.1,0,0,1-2.31.71,7,7,0,0,0-1.77.54c-2.49,1.33-1.72,5.72-1,8.21.42,1.54.78,3.33,1.17,5.22,1.54,7.59,3.46,17,10.57,18.52a9.55,9.55,0,0,0,9.2-3.3,23.85,23.85,0,0,0,1.38-2c1.23-1.92,2.63-4.09,5.15-4.83a10,10,0,0,1,5.6.46l13,3.78c4.09,1.19,8.83,4.25,10.19,8.38a7.92,7.92,0,0,1-1.54,7.55,19.4,19.4,0,0,1-4.92,4.08c-3.22,2.13-4.69,3.33-4.18,5.16.46,1.67,2.35,2.25,5.4,3s6.38,1.59,7.5,4.8a8.93,8.93,0,0,1-.14,5l-5,21.33c-.71,3-1.33,6.42.38,8.59a9,9,0,0,0,4.22,2.47,45.64,45.64,0,0,0,17,2.4,6,6,0,0,1,1.33-4.57l.61-.72,8.36,2.63L107.88,276a1.46,1.46,0,0,0-.76,1.17,3.7,3.7,0,0,0,1,3,12.27,12.27,0,0,0,4.24,2.31c.69.27,1.37.54,2,.84a19.58,19.58,0,0,1,7.28,28.16l-.41.56-4.29.09A37.17,37.17,0,0,1,116.56,319.5Zm-12.77-44.4a3.19,3.19,0,0,0,.07,2.62l.47.92a6,6,0,0,1,0-2,4.88,4.88,0,0,1,.4-1.3ZM260.88,122.27a1,1,0,0,0,.06.23,1,1,0,0,0,.08.16l.42-.3ZM194.16,69.79a13,13,0,0,0,6.1-.77,4.62,4.62,0,0,0,2.5-3.09l-1.85-.35,1.9-.14a2.32,2.32,0,0,0-.16-.86,6.59,6.59,0,0,0-.56-1,8.84,8.84,0,0,1-.79-1.46,5.46,5.46,0,0,1-.22-3.28,9.92,9.92,0,0,1-3.39,2.82c-.41.2-.83.37-1.25.54a8.7,8.7,0,0,0-1.5.71,3.77,3.77,0,0,0-1.57,2.55A6.65,6.65,0,0,0,194.16,69.79Zm15.78-14.5a6.9,6.9,0,0,0-4.22,1.39c-1.34,1-2.39,2.9-1.79,4.41a6.57,6.57,0,0,0,.55,1,8.89,8.89,0,0,1,.79,1.47,5.18,5.18,0,0,1,.36,1.69l6.21-.45A3.91,3.91,0,0,0,215,62.37a4.9,4.9,0,0,0-.18-4.83A5.5,5.5,0,0,0,211,55.36,7.22,7.22,0,0,0,209.95,55.28Z"/><path class="cls-1" d="M60.79,42l.19,0-.15.21A.34.34,0,0,1,60.79,42Z"/><path class="cls-2" d="M60.62,44.86l-1.07-2.12a1.74,1.74,0,0,1-.17-.91l.09-1.06,1-.21.2,0L64.17,40ZM61.14,42l1.06.09a1.09,1.09,0,0,0-.09-.55Z"/><path class="cls-1" d="M58.89,57.57l-.14.34A3.11,3.11,0,0,1,58.89,57.57Z"/><path class="cls-2" d="M60.05,58.46l-2.65-1a4.31,4.31,0,0,1,.2-.49l2.58,1.17Z"/></svg>