<svg id="Layer_1" data-name="Layer 1" xmlns="http://www.w3.org/2000/svg" viewBox="0 0 350 350"><defs><style>.cls-1{fill:#999;}.cls-2{fill:#f90;}</style></defs><title>M</title><path class="cls-1" d="M276.07,316.31a8.28,8.28,0,0,0-2.26.48c-.71.36-5.82,3.67-5.82,3.67s-.48,1.2-1.78,3.82-1.07,3.45-2.38,6.18-4.71,2.34-4.71,2.34c-.24-1.1.61-2.51.55-2.69s1-5.88,1-5.88-4.72-.09-5.88-.09a8.09,8.09,0,0,1-3.48-.53c-1.25-.53-1.34-.18-2.14-.8s-.36-1.43-.71-2.33-1.6-1.06-2-1.77-.36-1.78-.8-2.5a12.7,12.7,0,0,0-2.94-2v-14.8s-15.69-.18-16.13-.36,1.43,4.28,1.43,4.28.27,3.74.36,4.55-.45.71-1.25.89-14.8-3-16.22-3-1.52-1.07-3.92-6.51-1.07-6-.89-7.49,4.37-13.64,5.35-16.31,10-6.33,10-6.33l-.89-4-10.87,5.7s-10.25,4.72-11.41,5.08-8-.8-8-.8a12.38,12.38,0,0,0-3.12-.18c-1.16.18-6.77-1.16-6.77-1.16v-4.19l-6.68-.18a27.57,27.57,0,0,1-1-3.39c0-.53-2.76-7.49-3.3-9.27a35,35,0,0,0-2.94-6.06,18,18,0,0,0-2.82-1,15.07,15.07,0,0,1,0,3.39c-.24,1.16-2.61,6.68-2.61,6.68L157,262.8l-5.79-.09-3.3-4.1s-6.33-.53-6.6-.53-1.69,2.94-2.85,3.3-2.94-1-3.21-1.43-3.21-5.26-3.57-5.79-2-2.32-1.87-2.76a35,35,0,0,1,2.85-3.12s-.09-2.14-.09-3a5.43,5.43,0,0,0-.62-2.5,32.9,32.9,0,0,1-1.07-4.28l-3-.59s-2.14.15-3,.33a12.42,12.42,0,0,1-4.46-.27c-.8-.36-.8,1-1.34,1.69s-.8-.45-2.5,1.07a3.8,3.8,0,0,0-1.43,3.21l-4.37-2.76s-.62,4.63-1.25,5.62-6.42,6.51-6.42,6.51L98.89,246s-4-1.25-4.81,0-2.23,0-2.23,0l-3.48,1.43s-.09,9.71.36,10.7,4.28-.89,4.28-.89v2.14l-3.57,1.87a12.27,12.27,0,0,0-2.32,2.32c-1,1.34-3.39,2-4.72,3.83s-2.5,1-3.83-1.78-.62-5.7.53-8.29-1.07-2.14-2.76-1.43-3.83,4.55-7.84,9.71-6.06,4.37-7,4.37-3.48-1.43-4.55-1.25-3.48,1.25-2.67,2.85-.53,2.23-1.34,2.67a42.3,42.3,0,0,0-3.48,2.84,22.92,22.92,0,0,1-2.32,1.53,7.59,7.59,0,0,1-3,.71H39.62a22.09,22.09,0,0,0-2.41-.71c-.62-.09-5.08-.27-5.35-.27s-2-.09-2-.09-2-1.87-2.93-2.58-2.32-.09-2.32-2.32-1.07-3.65-1.07-4.63,0-2,2-1.52,2.67,1.34,4,.09,3-2.76,4.19-2.5,3.39-1.07,4,0,1.07.71,2,.36,2.41-1,2.41-1,.36-1.78,1.69-2.23,2.76-.8,2.76-.8.8-.89-.09-2.5-1-1.87-.45-2.41.27-4.55-.53-5-11.5,4.9-12.12,5.08a11,11,0,0,1-1.6.27s-3.21-1.16-1.87-3.39,3.39-2.94,4.46-3.57,2-2.76,2.67-3.21a2.75,2.75,0,0,0,1.43-1.69c.27-1,.71-1.16,1.25-2.32s2.23-2.14,2.5-2.67a31.93,31.93,0,0,0,.53-4.37,20.1,20.1,0,0,1-3.83-.53c-.8-.36-4-4.19-3.92-1.6s.53,4.46-.09,5.44l-.62,1A3.69,3.69,0,0,1,31.86,241a21.32,21.32,0,0,1-3.21-.36l-3.21.36s-2.41-.56.62-3.09a24,24,0,0,1,4-3l.09-1.43s-3.39-1.07-4.81,1.25l-1.6.18-1.07-4.81s-1.25-.18-1.16-1.25a5.8,5.8,0,0,0-.53-2.41l-1.34-.53a5.59,5.59,0,0,0,2.41-1.69s1.6-3.12,1.16-4.55l-.45-1.43H20.45A19.35,19.35,0,0,0,22.15,213a20.88,20.88,0,0,0-.62-5.35H18.31l-3.92-4.82s1.43-2.4,0-8.28a2.19,2.19,0,0,0-3-.53l-1,1.43-3.48,1.43s1-3.18,1.07-3.24a21.49,21.49,0,0,0-1.07-2.38,47.87,47.87,0,0,0,4.81-2.41,14.46,14.46,0,0,1,2-1.25s2.41-1,2.41-2.5,1.6-3.92,1.6-3.92l-2.94-1.78,1.34-1.52a2.23,2.23,0,0,0,2.23,0c1-.71,1.78-3.21,3-3.39l4.81-.71.27-3.83s2.5,1.52,2.5-5.08h2.85a8.52,8.52,0,0,1,0-2.67A3.91,3.91,0,0,1,33,160.66a5.68,5.68,0,0,0,1.78,0c.53-.18,2.14.36,2.5,0s1.25-.45,1.69-.62,1.07-1,1.52-1,2.32.8,2.67.71.18-1.87.53-3,.8-1.52,2.67-1.6a3.71,3.71,0,0,1,3,1.16,5.43,5.43,0,0,0,1.07.62,7.6,7.6,0,0,0,.45-2.41c0-1.25.45-1.43.89-1.07a3.13,3.13,0,0,0,1.34.45l.89-1.87s-1-2.32-.8-2.76-1.69-1.16-.27-1.52,1.16-.89,3.74,0,4.55.8,5.53.18.18-3.3,2.32-5A28.09,28.09,0,0,1,69.38,140a3.45,3.45,0,0,1-.62-2.85c.45-1.52-1.25-4.81.8-5.79a61.4,61.4,0,0,0,8.11-4c2.67-1.78,3.12-2.41,4.9-1.69A23.36,23.36,0,0,1,86,127.42a4.61,4.61,0,0,1,.53,3.83,14,14,0,0,1,2.32,3.92A4.18,4.18,0,0,0,90.33,137c.62.45,2.85,2,4.9,1.34A4.58,4.58,0,0,0,98,135.62s3,1.52,3.21.27-1-3.83,1-4.28c.53-3.21.36-4.55.89-4.9a3.91,3.91,0,0,0,1-1.36,7.51,7.51,0,0,1-1.6-3.72,7.18,7.18,0,0,1,.45-3.39l-2.23-2a5.57,5.57,0,0,0,.62-2.23,19.07,19.07,0,0,0-.62-3.83c-.18-.53-.53-2.23-.53-2.23s1.16-.27,1.07-2.14-.53-5.79-.53-5.79,2.85,1.78,3.12,0a12.55,12.55,0,0,0-.27-4S105.66,99,106.73,99s6.06,1.43,6.77,1.52,4.55,1,5.62-.62a37.56,37.56,0,0,1,4-4.63c.89-.89,2.85-.45,2.85-.45a11.52,11.52,0,0,0,5.17-.62c2.23-1,2.67-.36,3.65-3.39s.71-4,1.34-5.88,3.12-4.46,3.12-4.46-2.32-1.87-2.23-2.85a14.41,14.41,0,0,0-.18-2.67l-1.6-3.21s1.34,2.5,2.58,2.14,3.92-.45,4.55-.09,4.1-.62,4.9-1.07,2-1,2-1a1.8,1.8,0,0,0,.89-2c-.36-1.43-1.25-2.32-.36-4a7.25,7.25,0,0,0,1.16-3.3c.45-2.14,1.16-2.94,1.52-3.21s2.23-1.52,5.79-.8,10.52-.22,10.52-.22,3.39-5.58,5.79-7.18a17.92,17.92,0,0,1,4.72-2.23s3.21-.18,2.76,1.43,0,3.57,1.43,2.32a8.84,8.84,0,0,1,2.85-1.69L189,52.28s-1.87,1.69-.36,2l4.1.71,3,1.16a1.89,1.89,0,0,0,1.6-1.87,18.72,18.72,0,0,1,1.25-5.53A8.14,8.14,0,0,1,200,46.84l2.67,2A12.35,12.35,0,0,0,204.5,51c.45.18,1.16-1.69,1.34-2.94s.8-3,1.43-2.5,2.32,2,2.14,2.67-1.34,2-.45,2.23a5.83,5.83,0,0,0,2.5.36c.27-.18,1.69-1.52,1.69-1.52s.09-3.4.71-3.84a12.93,12.93,0,0,1,3.3-.79A10.56,10.56,0,0,0,219,43.64s1.78.45,2.41,0,.89-2.76.89-2.76,1.6,1.25,2.23.45a5,5,0,0,0,.8-2,2.55,2.55,0,0,0,2.67,2h2.32s.09,4.46,1.25,4.63,1.43,2,1.43,2-.71,2.85,1.34,2.85,4-2.41,4-2.41l2.41-.45s.62,2.5,5.26,2.5l1.16.62a2.06,2.06,0,0,0,0,2.41c.89,1.25,4,.71,4.46.53s1.43-2.23,1.43-2.23l2.76-.45.36-2s3.74,1.07,4.1.62a8,8,0,0,0,.71-2l1-1.43a20.15,20.15,0,0,0,4-.62c.53-.36,1.07-.18,1.16-1.07s.71-2.41.89-3.48.53-3.65-.27-4.81-2.41-1.52-2.32-3.39l-2.41-1.16.53-3.3s2.85.71,2.85-1.78-.09-3.21-.09-3.21l2-.8s4.72.62,6.42,0,1.25-1.43,1.25-1.43,3.3,1.34,4.28,0a6.46,6.46,0,0,0,.8-3.65l3.12.62s5.53-2,8.2-.62c-.27,1.52.53,2.67,2,3.48a23.42,23.42,0,0,0,2.76,1.25s.62,2.32,1.25,2.32,3.12.09,4.19-.53a6.92,6.92,0,0,0,2-2.5l2.76.62s-1,3.92.71,5.44,3.83,5.62,4.63,7,1.07,3.65,2,5.44,2.32,4.19,1.69,6.51,1.52,5.62,1.87,5.79,2.32.8,2.32,1.07v2.23s-6.33,4.81-7.66,5.44a6.05,6.05,0,0,1-2.32.62,14.1,14.1,0,0,1-2.5,3.57l-1.43,1.34a31,31,0,0,0-.36,3.12c0,.89,1.34,1-.27,2.32s.62,1.87.62,1.87,2.5-.27,2.41,1.52a6.94,6.94,0,0,1-.62,2.76l-2.41,2.85,1.34,4.37L310,84.37l33.07,15.24s-3,4.28-3.39,6.06-3.12,8.29-1.43,14.17,2.14,13.55-.53,18.45-9.63,12-12.21,16.67a48.44,48.44,0,0,0-5.26,16.93A37.21,37.21,0,0,1,316,183s-7.75,9.09-8.29,10.34-12.83,16.93-14.88,20.05-5.17,5.17-4.63,8S299,237.87,299,237.87l1.69,1.31s1.07-3.65,2.41-4.46,3.92.89,5.08,2.14,3.83,1,3.83,1a7,7,0,0,0,1.34,4.6c1.6,2,3.3,3.83,2.41,9-.53,1.07,3.39,7.84,3.39,7.84s-2.41,4.28-2.94,5.08-2.14.8-1.52,2.76a35.15,35.15,0,0,0,3.92,8.11,12.16,12.16,0,0,0,3.65,3.48s-3.92,1.78-2.94,3.65,2.85,4.63,2.76,7,2.5,6.68,2.5,6.68-2,1.6-2,1.87-.27.45-1.16.36-.8,2.32,0,3.57,2,2,.27,1.6-2-.8-2.32-1.6-2,.27-2.67,1.52a6.22,6.22,0,0,0-.53,2.76s-1.52-.36-2.85-.53a8.16,8.16,0,0,0-4.46,1.25c-.89.62-2.41,1.43-2,0s-.09-3.83-2.58-1.69-2.67,3.74-3.92.89-.8-3-2-3-3.65,2.67-6.15,3.65A105.86,105.86,0,0,0,276.07,316.31Z"/><path class="cls-2" d="M259.57,334.22a5.59,5.59,0,0,1-.61,0l-1-.12-.21-1a5.41,5.41,0,0,1,.47-3l.05-.14a43.7,43.7,0,0,1,.69-4.32l-4.18-.06a9.39,9.39,0,0,1-4-.65,3.48,3.48,0,0,0-.85-.26,3.31,3.31,0,0,1-1.61-.73,2.9,2.9,0,0,1-1.09-2.37,1.93,1.93,0,0,0-.08-.56,3.71,3.71,0,0,0-.51-.32,3.71,3.71,0,0,1-1.42-1.21,5,5,0,0,1-.59-1.72,3.12,3.12,0,0,0-.21-.77,14,14,0,0,0-2.41-1.55l-.75-.4V300.74c-7.15-.09-10.88-.16-12.86-.24.26.69.58,1.49.88,2.21l.09.22,0,.23c.09,1.29.28,3.88.35,4.49.15,1.32-.53,2.11-2,2.37l-.34.06c-.59.13-1.42,0-8.91-1.53-2.95-.61-7-1.44-7.63-1.46-2.06,0-2.63-1.33-4-4.56-.33-.77-.72-1.69-1.21-2.79-1.95-4.4-1.68-6-1.17-7.6a3.35,3.35,0,0,0,.17-.63c.22-1.87,4.81-15,5.42-16.63,1-2.64,6.72-5.41,9.67-6.69l-.23-1L210.24,272c-1.79.83-10.46,4.81-11.65,5.18s-5.39-.2-8.67-.76a10.65,10.65,0,0,0-2.67-.18c-1.29.2-5.55-.76-7.32-1.18l-1.09-.26v-3.93l-6.29-.17-.32-.93a18.78,18.78,0,0,1-1.05-3.7c-.14-.54-1-2.79-1.6-4.45-.71-1.91-1.39-3.71-1.64-4.56a36.87,36.87,0,0,0-2.56-5.38l-.33-.12a9,9,0,0,1-.13,1.72c-.25,1.24-2.29,6-2.7,7l-.14.33-4.6,3.66-7-.11L147.18,260l-5.23-.43-.1.15c-.95,1.45-1.83,2.68-3,3-2,.61-4.38-1.28-4.84-2.05-.26-.44-3.2-5.24-3.53-5.74-.08-.13-.26-.34-.47-.58-1.15-1.39-2-2.39-1.54-3.49.09-.24.27-.67,2.73-3.15,0-.72-.07-1.87-.07-2.47a4.06,4.06,0,0,0-.44-1.79,18.65,18.65,0,0,1-1-3.77l-1.91-.37c-.68.05-2.07.17-2.67.29a15.13,15.13,0,0,1-4.41-.1,4.13,4.13,0,0,1-.52,1,2,2,0,0,1-1.9.81h-.1a2,2,0,0,0-.68.48,2.48,2.48,0,0,0-1,2l.3,2.9-5-3.12a14.25,14.25,0,0,1-1.12,4,93.16,93.16,0,0,1-6.63,6.77l-1.3,1.24-4.8-8.28a7.5,7.5,0,0,0-2.78-.3,2.5,2.5,0,0,1-1.68,1,3,3,0,0,1-1.8-.35l-1.92.79c0,3.33,0,6.92.18,8.51a14.77,14.77,0,0,0,2.43-.94l2-1v5.27l-4.22,2.22a10.87,10.87,0,0,0-1.94,2,8.13,8.13,0,0,1-2.39,1.93,7.83,7.83,0,0,0-2.33,1.88,3.1,3.1,0,0,1-2.75,1.57c-1.65-.14-2.7-1.88-3.52-3.56-1.29-2.66-1.14-5.71.45-9.33a7.79,7.79,0,0,0-.85.31c-.75.32-2.21,2.36-3.76,4.51-1,1.4-2.14,3-3.52,4.76-3.57,4.6-5.91,5.09-7.92,4.93h-.24a7.59,7.59,0,0,1-2.45-.67,9.33,9.33,0,0,0-1.89-.59,2.93,2.93,0,0,0-1.63.87c.93,1.77.33,3.27-1.78,4.43l-.12.06a28.64,28.64,0,0,0-2.51,2l-.76.66a24.2,24.2,0,0,1-2.51,1.66,8.91,8.91,0,0,1-3.73.9h-4.7l-.23-.08a20,20,0,0,0-2.14-.65c-.49-.07-4.7-.25-5.15-.25-.27,0-2.12-.09-2.12-.09l-.51,0-.38-.35s-2-1.85-2.86-2.52a2.09,2.09,0,0,0-.44-.15c-.79-.22-2.42-.67-2.42-3.28a7.61,7.61,0,0,0-.61-2.74,5.56,5.56,0,0,1-.46-1.9,3,3,0,0,1,.95-2.6,3.24,3.24,0,0,1,2.81-.29c.51.14.94.29,1.33.43,1,.35,1,.34,1.34,0,1.86-1.73,3.67-3.25,5.47-2.84a5.34,5.34,0,0,0,1.09-.19c1.07-.25,2.84-.67,3.76.75l0,0,.37-.14c.54-.2,1.24-.49,1.73-.69a4.08,4.08,0,0,1,2.41-2.53c.77-.26,1.56-.48,2.12-.63a1.83,1.83,0,0,0-.23-.63c-.82-1.47-1.47-2.65-.39-3.9a8.82,8.82,0,0,0-.13-2.61c-1.91.66-6.49,2.82-8.38,3.71a27,27,0,0,1-2.57,1.16,12.11,12.11,0,0,1-1.87.32l-.31,0-.3-.11a5.15,5.15,0,0,1-3-2.65,3.2,3.2,0,0,1,.35-2.8A9.86,9.86,0,0,1,33,248.79l.6-.32a7,7,0,0,0,1.27-1.58,6,6,0,0,1,1.29-1.56l.23-.16c.46-.32.55-.38.65-.75a4.9,4.9,0,0,1,.79-1.62,5.65,5.65,0,0,0,.53-.91,7.31,7.31,0,0,1,2-2.33l.47-.42c.08-.41.19-1.37.29-2.4a11.54,11.54,0,0,1-2.88-.54,6.28,6.28,0,0,1-1.46-1.12l-.38-.34,0,.53c.14,1.75.26,3.13-.44,4.22l-.74,1.14a5,5,0,0,1-3.48,1.74A21.51,21.51,0,0,1,28.6,242l-3.25.36-.24-.06a2.57,2.57,0,0,1-1.94-1.82c-.41-1.75,1.39-3.25,2-3.74l.86-.71-3.38.38-1.18-5.29a2.47,2.47,0,0,1-1.36-2.44,3.47,3.47,0,0,0-.22-1.2l-4.62-1.85,4-1.14a4.21,4.21,0,0,0,1.61-1.13,7.83,7.83,0,0,0,1-3.32l-.13-.43H18.19l1-2a17.5,17.5,0,0,0,1.56-4.76,16,16,0,0,0-.35-3.81H17.64l-5-6.12.51-.85h0s1-2-.07-6.84a.76.76,0,0,0-.76-.18l-1,1.51L4.67,199.3l.88-2.87c.44-1.42.71-2.3.91-2.85-.19-.43-.53-1.13-.82-1.71L5,190.54l1.35-.6a47.08,47.08,0,0,0,4.49-2.2,15.21,15.21,0,0,1,2.2-1.41l.13-.06c.82-.34,1.52-1,1.52-1.18a8.13,8.13,0,0,1,1.09-3.44l-3.19-1.93,3.22-3.65,1,.57c.15.08.54.2.69.08a6.11,6.11,0,0,0,.78-1.09c.7-1.11,1.49-2.36,2.88-2.56l3.68-.54.35-5,1.77,1.07c.18-.3.56-1.23.56-3.74v-1.42h2.73a5.45,5.45,0,0,1,.19-1.7,5.15,5.15,0,0,1,1.76-2.21l.46-.34.57.08a5.11,5.11,0,0,0,1.17,0,4,4,0,0,1,1.73,0l.54.06a4.62,4.62,0,0,1,1.43-.54,3.32,3.32,0,0,0,.38-.1l.24-.22a2.82,2.82,0,0,1,1.8-.87,5.27,5.27,0,0,1,1.57.38,8.16,8.16,0,0,1,.29-1.7c.63-2,1.93-2.51,4-2.6a5,5,0,0,1,3.2.83v0A2.48,2.48,0,0,1,50.69,152a1.83,1.83,0,0,1,1.73.1l.08-.17a9.4,9.4,0,0,1-.68-2.34,2,2,0,0,1-.75-1.93,1.9,1.9,0,0,1,1.56-1.34,4.5,4.5,0,0,0,.64-.22c1.1-.44,1.82-.47,3.91.25s3.61.62,4.16.4c0-.17.1-.47.14-.7a6.34,6.34,0,0,1,2.2-4.28,27.18,27.18,0,0,1,3.79-2.45,4.33,4.33,0,0,1-.08-2.63,6,6,0,0,0-.11-1.5c-.22-1.53-.6-4.09,1.66-5.17.57-.27,1.24-.57,2-.88a39.46,39.46,0,0,0,6-3l1-.67c1.86-1.28,3-2,5.22-1.16A20.45,20.45,0,0,1,86.28,126l.32.19c.34.17.79.53,1.18,1.76a6.92,6.92,0,0,1,.29,3,15.78,15.78,0,0,1,2.07,3.73,2.85,2.85,0,0,0,1,1.13c1.4,1,2.74,1.42,3.67,1.13a3.19,3.19,0,0,0,1.84-1.8l.55-1.48,1.42.69a8.54,8.54,0,0,0,1.11.45v-.07c-.13-1-.4-3.15,1.18-4.12.12-.84.19-1.52.25-2.09.15-1.44.25-2.4,1.13-3l.08-.09a8.38,8.38,0,0,1-1.33-3.69,9.38,9.38,0,0,1,.22-3.06l-2.38-2.09.53-1a4.14,4.14,0,0,0,.45-1.56,18.35,18.35,0,0,0-.55-3.39c-.19-.58-.52-2.09-.58-2.38l-.29-1.36,1.22-.28a1.28,1.28,0,0,0,.11-.72c-.09-1.8-.52-5.66-.53-5.7l-.33-2.92,2.49,1.56a5.48,5.48,0,0,0,1,.48,12.17,12.17,0,0,0-.29-3l-1.63-6.87,4.16,5.7a10.78,10.78,0,0,0,2.21,2.36,35.07,35.07,0,0,1,4.86,1.05c.77.2,1.73.44,1.94.47l.43.07c3.3.56,3.78,0,3.82-.07a38.94,38.94,0,0,1,4.19-4.85c1.3-1.3,3.46-1,4.08-.84a10,10,0,0,0,4.37-.52c.54-.24,1-.39,1.37-.52.91-.31,1-.33,1.51-2a19.12,19.12,0,0,0,.79-3.42,13.7,13.7,0,0,1,.55-2.47,13.68,13.68,0,0,1,2.46-3.9c-.94-.94-1.73-2.05-1.64-3.09a11.91,11.91,0,0,0-.14-2.11l-1.5-3L136.5,71a4.73,4.73,0,0,0,1.12,1.4c1.15-.28,3.93-.56,5.24,0h0a14.32,14.32,0,0,0,3.73-1c.84-.47,2-1,2.06-1a.34.34,0,0,0,.11-.42,7.55,7.55,0,0,0-.3-.87,4.49,4.49,0,0,1,.06-4.15l.31-.58a4.21,4.21,0,0,0,.59-1.71l.13-.63c.51-2.46,1.4-3.56,2.05-4.05s2.88-1.87,6.92-1.06c2.68.54,7.62.05,9.39-.15,1-1.57,3.66-5.57,5.85-7a19.3,19.3,0,0,1,5.14-2.42l.29,0c.83,0,2.85,0,3.82,1.17a2.23,2.23,0,0,1,.39,2c0,.08,0,.15-.05.22a9.67,9.67,0,0,1,2.54-1.33l.59-.18L191.4,52l-1.18,1.07,2.76.48.27.07,2.56,1a.63.63,0,0,0,.15-.44,20,20,0,0,1,1.4-6.09,9.46,9.46,0,0,1,1.6-2.23l.86-.86,3.84,2.82.13.19.48.66a6.25,6.25,0,0,0,.17-.77c.13-.94.6-3.17,2-3.7a1.74,1.74,0,0,1,1.77.33c2.51,2.15,2.84,3.21,2.58,4.14a3.73,3.73,0,0,1-.32.74l.46.07.85-.78c.17-3.58,1-4.12,1.29-4.36a9,9,0,0,1,3.46-1l.38-.06c.11-.05.78-.46,1.35-.85l.53-.36.62.15a5.66,5.66,0,0,0,1.18.16h0a8.91,8.91,0,0,0,.37-1.71l.29-2.5,2,1.54a3.28,3.28,0,0,0,.47.29,4.28,4.28,0,0,0,.29-1l1.27-8.41L226.75,39c.07.28.33.8,1.28.8h3.71l0,1.39a12.48,12.48,0,0,0,.47,3.36,3.68,3.68,0,0,1,2.19,3.05l0,.28-.07.27a2.83,2.83,0,0,0,0,1.08,5.23,5.23,0,0,0,2.92-1.88l.33-.4,4.23-.79.32,1.29s.55,1.42,3.88,1.42h.36l2.94,1.58-1,1.32a.6.6,0,0,0,0,.72,4.86,4.86,0,0,0,2.58.09A13.56,13.56,0,0,0,251.8,51l.32-.67,2.51-.4.46-2.51,1.5.43a24.79,24.79,0,0,0,2.77.63c.09-.29.19-.67.27-1l.06-.27L261.2,45l.68-.05a24.55,24.55,0,0,0,3.43-.45,3.25,3.25,0,0,1,.48-.24,14.29,14.29,0,0,1,.46-1.78,14,14,0,0,0,.41-1.53c.4-2.37.16-3.49,0-3.77a4,4,0,0,0-.72-.7A4.44,4.44,0,0,1,264.12,34l-2.63-1.27,1-5.86,1.5.37a1.73,1.73,0,0,0,1,0,.66.66,0,0,0,.06-.36c0-2.31-.08-3-.08-3l-.12-1.08,3.4-1.34.36,0c1.82.24,4.8.42,5.74.08l.14-.05-1.59-2.86L276.6,20a4.88,4.88,0,0,0,2.65.43,5.12,5.12,0,0,0,.48-2.66l-.14-1.87,4.57.91c1.46-.5,6.18-1.9,9-.41l.91.48-.18,1c-.06.35-.21,1.17,1.32,2a22.28,22.28,0,0,0,2.58,1.17l.7.25.19.71a8.77,8.77,0,0,0,.45,1.27A6.82,6.82,0,0,0,302,23a5.47,5.47,0,0,0,1.4-1.88l.49-1,5.28,1.19-.35,1.41c-.32,1.3-.4,3.43.28,4,1.54,1.38,3.17,4.22,4.58,6.78l.35.62A13.76,13.76,0,0,1,315.11,37a15.77,15.77,0,0,0,.91,2.59l.27.52c.94,1.84,2.23,4.36,1.53,7-.35,1.3.77,3.52,1.31,4.23l.32.12c1.57.59,2.61,1,2.61,2.15v2.93l-.56.43c-1.08.82-6.52,4.94-7.92,5.59a8.46,8.46,0,0,1-2,.66,14.2,14.2,0,0,1-2.43,3.28l-1.07,1c-.11.76-.24,1.74-.26,2.27l0,0a2.14,2.14,0,0,1-.16,2.91,3.57,3.57,0,0,1,2.09.87,2.63,2.63,0,0,1,.81,2.12,8.26,8.26,0,0,1-.8,3.37l-.16.23-1.91,2.26.63,2,1.7-.82L345.24,99l-1,1.39c-1.19,1.68-2.95,4.5-3.15,5.52-.08.4-.24.92-.44,1.59-.8,2.63-2.28,7.53-1,11.91,1.67,5.8,2.37,14-.65,19.52a69.14,69.14,0,0,1-6.47,8.88,67.2,67.2,0,0,0-5.75,7.8,46.83,46.83,0,0,0-5.09,16.42l0,.13a38.4,38.4,0,0,1-4.47,11.6l-.11.15c-3.65,4.28-7.67,9.19-8.07,10s-2.08,3.09-7.67,10.44c-3.14,4.13-6.38,8.39-7.32,9.81A28,28,0,0,1,291.8,217c-1.52,1.78-2.45,2.93-2.22,4.16.29,1.57,5.5,9.17,10.4,15.68a7.29,7.29,0,0,1,2.36-3.35c2.43-1.46,5.84,1.31,6.85,2.39a4.12,4.12,0,0,0,2.67.56l1.7-.14-.17,1.7a5.64,5.64,0,0,0,1,3.58l.26.32c1.59,2,3.38,4.28,2.43,9.79l0,.12a34.82,34.82,0,0,0,3.24,6.77l.41.7-.4.71c-.25.44-2.45,4.35-3,5.17a3.56,3.56,0,0,1-1.1,1,3.57,3.57,0,0,0-.33.23s0,.13.09.33a33.79,33.79,0,0,0,3.73,7.72,11,11,0,0,0,3.18,3.05l2.45,1.37L322.83,280a5,5,0,0,0-2.27,1.76c.17.28.37.63.58,1,1.08,1.92,2.43,4.32,2.34,6.69-.05,1.44,1.38,4.38,2.29,5.9l.63,1.05-.95.78c-.61.5-1.26,1.08-1.54,1.36a1.69,1.69,0,0,1-.46.69,2.09,2.09,0,0,1-1.23.5,3.2,3.2,0,0,0,.4,1.38,7.36,7.36,0,0,0,.63.81,1.92,1.92,0,0,1,.57,2.3c-.59,1-1.77.78-2.4.65a4,4,0,0,1-2.87-1.55,2.44,2.44,0,0,0-.57.71,4.85,4.85,0,0,0-.39,2l.11,1.9-1.85-.43s-1.47-.34-2.72-.51a6.94,6.94,0,0,0-3.46,1c-1.57,1.1-2.71,1.33-3.57.74a2,2,0,0,1-.67-2.24,2.3,2.3,0,0,0,.07-.55c-.1.07-.22.16-.35.28a18.36,18.36,0,0,0-1.4,1.36c-.77.81-1.5,1.57-2.6,1.38s-1.66-1.27-2.14-2.36c-.4-.92-.64-1.58-.8-2l0-.07c-.34.2-1,.71-1.58,1.1a18.13,18.13,0,0,1-3.89,2.37,104.55,104.55,0,0,0-15.81,9.39l-.32.24-.4,0a6.9,6.9,0,0,0-1.73.33c-.38.19-2.94,1.81-5.32,3.35-.25.57-.76,1.71-1.65,3.5a16,16,0,0,0-1.11,2.87,21,21,0,0,1-1.25,3.28A5.92,5.92,0,0,1,259.57,334.22Zm1.52-4.24a2.4,2.4,0,0,1-.24,1.1l-.06.15a2.66,2.66,0,0,0,1.76-1.4,18.07,18.07,0,0,0,1.1-2.89,18.76,18.76,0,0,1,1.29-3.31c1.25-2.51,1.73-3.69,1.73-3.71l.17-.42.38-.25c.86-.56,5.21-3.38,6-3.75a8,8,0,0,1,2.37-.58,106.1,106.1,0,0,1,16.14-9.51,16.07,16.07,0,0,0,3.26-2c1.38-1,2.37-1.73,3.41-1.73,1.68,0,2.08.77,2.53,2,.15.43.37,1,.73,1.85l.08.17h0a21.08,21.08,0,0,1,1.61-1.56c1.79-1.53,3-1.31,3.78-.86a2.88,2.88,0,0,1,1.24,2.29,9.43,9.43,0,0,1,5.18-1.31c.46.06.95.14,1.38.22a6.42,6.42,0,0,1,.55-1.68c.62-1.25,2.13-2.58,3.49-2.58h0a2.05,2.05,0,0,1,.45.06,3.87,3.87,0,0,1,.37-2.43,1.85,1.85,0,0,1,1.78-.91h0a9.8,9.8,0,0,1,1.16-1.14c-.83-1.54-2.17-4.38-2.1-6.41.06-1.57-1.07-3.58-2-5.19-.23-.4-.44-.79-.62-1.14a2.73,2.73,0,0,1-.16-2.2,5.09,5.09,0,0,1,1.82-2.24,14.64,14.64,0,0,1-2.27-2.54,36.64,36.64,0,0,1-4.11-8.5,3,3,0,0,1,1.4-3.79,2.81,2.81,0,0,0,.31-.22c.3-.46,1.52-2.59,2.47-4.26-3.41-6-3.37-7.59-3.12-8.26.68-4.14-.46-5.57-1.89-7.38l-.26-.34a8.08,8.08,0,0,1-1.6-4.08,5.43,5.43,0,0,1-3.49-1.45c-1.11-1.19-2.88-2-3.32-1.88a9.3,9.3,0,0,0-1.77,3.63l-.58,2L298,238.88l-.11-.15c-1.75-2.31-10.48-14-11-17-.49-2.62,1.21-4.61,2.85-6.53a25.49,25.49,0,0,0,2-2.54c1-1.5,4.12-5.62,7.43-10,3.1-4.08,7-9.15,7.35-9.9.54-1.26,6-7.76,8.43-10.58a37,37,0,0,0,4-10.55,49.68,49.68,0,0,1,5.42-17.37,67.47,67.47,0,0,1,6-8.2,67.66,67.66,0,0,0,6.19-8.46c2.62-4.8,1.86-12.36.42-17.38-1.49-5.19.14-10.61,1-13.52.17-.57.32-1.06.37-1.32a19.71,19.71,0,0,1,2.66-5.2L310,85.93l-3.47,1.68-2-6.69,2.78-3.3a6.33,6.33,0,0,0,.41-2,2.37,2.37,0,0,0-.85-.08l-.23,0-.24-.05a2.92,2.92,0,0,1-2.24-1.9,2.38,2.38,0,0,1,1-2.44l.07-.06a2.32,2.32,0,0,1-.32-1.17,30.56,30.56,0,0,1,.37-3.34l.08-.48,1.78-1.67a12.72,12.72,0,0,0,2.19-3.15l.39-.8h.89a5,5,0,0,0,1.72-.49c.77-.36,4.29-2.92,6.85-4.86v-.72l-.77-.29c-.35-.13-.64-.25-.77-.31-1-.5-3.41-4.46-2.61-7.43.42-1.56-.54-3.44-1.31-5l-.28-.55a18.13,18.13,0,0,1-1.1-3.06,11.94,11.94,0,0,0-.83-2.31l-.36-.65c-.87-1.58-2.68-4.87-4-6-1.55-1.38-1.57-3.83-1.39-5.41l-.42-.09a6.39,6.39,0,0,1-2,2.1,10,10,0,0,1-4.7.73h-.2c-.67,0-1.63-.29-2.41-2.67-.54-.22-1.36-.58-2.27-1.06A4.72,4.72,0,0,1,291,18.7c-1.83-.34-4.87.44-6.26,1l-.38.14-1.89-.38a6.1,6.1,0,0,1-1,2.78c-1.07,1.46-3.14,1.27-4.57.92a4.06,4.06,0,0,1-1.61,1c-1.73.64-5.38.28-6.73.12l-.76.3c0,.52,0,1.25,0,2.26a3.12,3.12,0,0,1-1.15,2.6,3.49,3.49,0,0,1-1.92.69l-.16,1,2.3,1.11,0,.94c0,.49.13.67.83,1.25a6.32,6.32,0,0,1,1.24,1.26c.8,1.16,1,3.07.5,5.85a15.68,15.68,0,0,1-.49,1.88,10.54,10.54,0,0,0-.39,1.5,2.23,2.23,0,0,1-1.61,2l-.17.07c-.22.14-.77.51-4,.8l-.45.65a6.76,6.76,0,0,1-.93,2.35c-.39.49-.82,1-4.09.25l-.26,1.44-3,.49c-1,1.92-1.54,2.14-1.84,2.26-.5.2-4.61,1.11-6.14-1a3.36,3.36,0,0,1-.62-2.45c-3.09-.14-4.62-1.35-5.37-2.32l-.94.17c-.77.82-2.62,2.52-4.75,2.52a2.73,2.73,0,0,1-2.21-1,4.25,4.25,0,0,1-.57-3.24,1.76,1.76,0,0,0-.26-.58c-.58-.1-2-.48-2.31-4.61h-1a4.32,4.32,0,0,1-2.26-.58l-.09.13a2.21,2.21,0,0,1-2.31.75,3.39,3.39,0,0,1-1.11,1.85,4.09,4.09,0,0,1-2.94.36,5.5,5.5,0,0,1-1.89.95l-.49.08a16.57,16.57,0,0,0-2.08.41,15.06,15.06,0,0,0-.3,2.79l0,.59-.43.4A23.51,23.51,0,0,1,212.24,52c-.29.19-1,.64-3.69-.18a1.83,1.83,0,0,1-1.21-1.07,2.94,2.94,0,0,1,.5-2.54l0-.06a7,7,0,0,0-.5-.56,6.33,6.33,0,0,0-.13.66s-.49,3.15-1.85,3.94a1.61,1.61,0,0,1-1.41.11c-.29-.11-.81-.32-2.37-2.54l-1.39-1a5.56,5.56,0,0,0-.33.56,17.64,17.64,0,0,0-1.1,5,3.29,3.29,0,0,1-2.85,3.21l-.35,0-3.23-1.23-4-.69a2,2,0,0,1-1.69-1.38,2.15,2.15,0,0,1,.18-1.54l-.66-.37a8,8,0,0,0-1.82,1.19,2.22,2.22,0,0,1-2.79.44c-1.12-.7-1.33-2.32-1-3.75a5.71,5.71,0,0,0-1.06-.09,17,17,0,0,0-4.17,2c-1.76,1.17-4.47,5.26-5.37,6.74l-.35.58-.67.09c-.29,0-7.23,1-11,.2-3-.6-4.5.43-4.66.55,0,0-.58.46-1,2.36l-.13.62a6.44,6.44,0,0,1-.86,2.48l-.3.56c-.36.68-.24,1,.08,1.81a9.86,9.86,0,0,1,.4,1.2A3.2,3.2,0,0,1,149.88,73c-.05,0-1.16.54-1.91,1-.28.15-4.6,1.89-6.22,1.1a10.49,10.49,0,0,0-3.43.15,14.14,14.14,0,0,1,.13,2.37,8.22,8.22,0,0,0,1.7,1.78l1.2,1-1.07,1.11a14.46,14.46,0,0,0-2.79,3.92,11.08,11.08,0,0,0-.44,2,22.16,22.16,0,0,1-.9,3.86c-.85,2.61-1.53,3.22-3.29,3.82-.31.11-.69.23-1.14.43a12.93,12.93,0,0,1-5.91.73l-.14,0a2.55,2.55,0,0,0-1.54.07,35.76,35.76,0,0,0-3.83,4.42c-1.45,2.18-5.1,1.56-6.66,1.29l-.31-.05c-.34,0-1-.2-2.29-.54s-3.77-1-4.31-1a2.78,2.78,0,0,1-1.49-.52c0,.13,0,.26,0,.39a2.24,2.24,0,0,1-1.27,1.78,2.77,2.77,0,0,1-1.59.18c.12,1.21.25,2.62.29,3.56a3.69,3.69,0,0,1-.9,2.83c.11.49.23,1,.29,1.15a20.21,20.21,0,0,1,.7,4.28,5.83,5.83,0,0,1-.34,1.84l2.26,2-.45,1h0a6,6,0,0,0-.32,2.66,6.09,6.09,0,0,0,1.27,2.92l.58.68-.36.82a5.43,5.43,0,0,1-1.23,1.77c0,.24-.1.7-.14,1.12-.08.74-.18,1.74-.4,3l-.16.94-.93.21a3.79,3.79,0,0,0,0,1.37,6.57,6.57,0,0,1,.07,1.72,1.93,1.93,0,0,1-1,1.46,3.87,3.87,0,0,1-3-.12,5.64,5.64,0,0,1-3,2.22c-2.43.74-4.89-.65-6.14-1.54a5.56,5.56,0,0,1-2-2.44,12.63,12.63,0,0,0-2.06-3.49l-.65-.74.47-.87a3.91,3.91,0,0,0-.26-2.09l-.19-.11A17.59,17.59,0,0,0,82,126.95c-.83-.33-.83-.33-2.56.86l-1,.7a41.65,41.65,0,0,1-6.4,3.27c-.7.3-1.34.58-1.88.84-.35.17-.24,1.1-.08,2.2a6.53,6.53,0,0,1,0,2.71,2,2,0,0,0,.38,1.58l1.06,1.4-1.58.76A26.82,26.82,0,0,0,65.45,144a3.68,3.68,0,0,0-1.17,2.54A3.37,3.37,0,0,1,63,149.11c-1.49.95-3.94.93-6.75,0a3.9,3.9,0,0,0-1.66-.39,1.5,1.5,0,0,1,.06.77,14,14,0,0,0,.7,2l.25.59L54,155.4l-1-.1a5.19,5.19,0,0,1-.7-.12,9.1,9.1,0,0,1-.51,2.25l-.53,1.37-1.35-.58a6.79,6.79,0,0,1-1.4-.82l-.24-.21a2.18,2.18,0,0,0-1.83-.64,2.93,2.93,0,0,0-1.22.19,1.64,1.64,0,0,0-.17.42,7.79,7.79,0,0,0-.2,1.49c-.08,1-.16,2.21-1.35,2.5a4.13,4.13,0,0,1-2.24-.4l-.6-.2-.14.12a3.82,3.82,0,0,1-1,.68,6.2,6.2,0,0,1-.74.22,5,5,0,0,0-.55.16,3,3,0,0,1-2.48.38c-.19,0-.47-.06-.61-.07a5.33,5.33,0,0,1-1.65.09,1.66,1.66,0,0,0-.37.49,7.43,7.43,0,0,0,.06,2l.23,1.62H30.3c-.16,2.65-.82,4.22-2,4.9a2.54,2.54,0,0,1-.51.22L27.49,175l-1.12.17-4.82.71a8.81,8.81,0,0,0-.89,1.27A6.6,6.6,0,0,1,19.15,179a3,3,0,0,1-1.36.55l1.9,1.15-.82,1.23a8.4,8.4,0,0,0-1.37,3.14c0,2.27-2.64,3.53-3.21,3.78a12.26,12.26,0,0,0-1.65,1,25.17,25.17,0,0,1-3.82,2c.58,1.23.77,1.92.4,2.45l.23-.09.87-1.26.18-.14a3.61,3.61,0,0,1,4.95.72l.24.27.08.35c1.06,4.37.65,7,.24,8.36l3,3.66h3.64l.27,1.07a22.07,22.07,0,0,1,.66,5.81,14.83,14.83,0,0,1-1,3.72h1.22l.76,2.42c.57,1.84-.81,4.76-1.25,5.62l-.19.28a7.87,7.87,0,0,1-.81.81,7.28,7.28,0,0,1,.63,2.76l.87.17.24.91.75,3.36c1.7-1.68,4.34-1.47,5.78-1l1.06.33-.21,3.38-.78.35A26.08,26.08,0,0,0,27,239c-.21.17-.38.33-.51.46l2.24-.25.21,0a20,20,0,0,0,2.94.33,2.22,2.22,0,0,0,1.28-.69l.56-.88a7.39,7.39,0,0,0,0-2.47c-.05-.65-.11-1.37-.14-2.16a2.09,2.09,0,0,1,1.1-2.19c1.37-.64,2.75.6,4.09,1.81.28.25.66.59.79.68a22.64,22.64,0,0,0,3.27.38l1.43.08-.1,1.43c-.29,4.11-.57,4.69-.68,4.9a4.44,4.44,0,0,1-1.18,1.28A5.57,5.57,0,0,0,41,243.07a8.33,8.33,0,0,1-.77,1.33,2.2,2.2,0,0,0-.4.77A3.86,3.86,0,0,1,38,247.51l-.19.14c-.08.08-.39.53-.59.83a7.72,7.72,0,0,1-2.2,2.44c-.21.12-.46.25-.73.39A7.2,7.2,0,0,0,31.12,254c-.16.26-.12.36-.11.39a2.18,2.18,0,0,0,1,.81,7.84,7.84,0,0,0,1-.18l2.14-1c9.37-4.41,10.15-4.46,11.06-4,.74.41,1.2,1.35,1.42,3,.16,1.12.3,3.06-.39,4.06.14.29.37.7.5.94a3.56,3.56,0,0,1-.1,4.13l-.29.32-.42.1s-1.39.35-2.66.77c-.4.13-.69.86-.75,1.17l-.15.71-.67.3c-.06,0-1.48.65-2.49,1l-.31.12a2.42,2.42,0,0,1-3.27-.8,9.21,9.21,0,0,0-.91.18,5.26,5.26,0,0,1-2.38.19c-.39,0-1.38.73-2.9,2.15s-3,1-4.24.61c-.32-.12-.68-.25-1.11-.36l-.17,0c0,.07,0,.13,0,.19a5.17,5.17,0,0,0,.29.92,10.25,10.25,0,0,1,.78,3.72,2,2,0,0,0,0,.46l.3.09a3.82,3.82,0,0,1,1.44.66c.69.55,2,1.72,2.63,2.3l1.47.06c.21,0,4.8.17,5.55.28a18.44,18.44,0,0,1,2.44.7h4.22a6.31,6.31,0,0,0,2.33-.53,21.71,21.71,0,0,0,2.13-1.4l.68-.59a23.82,23.82,0,0,1,3-2.39l.13-.07a3.1,3.1,0,0,0,.73-.49s0-.09-.1-.24a2.71,2.71,0,0,1,0-2.5,5.45,5.45,0,0,1,3.72-2.38,7,7,0,0,1,3.34.74,9.57,9.57,0,0,0,1.46.49l.44,0c.82.06,2.34.18,5.47-3.84,1.34-1.73,2.46-3.29,3.45-4.68,2.17-3,3.47-4.85,5-5.48,2.12-.89,3.57-.89,4.45,0s.8,1.87.15,3.3c-1.31,2.92-1.48,5.17-.55,7.09A7.08,7.08,0,0,0,81,266.91a2.69,2.69,0,0,0,.24-.3A10.27,10.27,0,0,1,84.38,264a6.28,6.28,0,0,0,1.6-1.2,13.69,13.69,0,0,1,2.62-2.62l.18-.11.34-.18a2.28,2.28,0,0,1-.61-.12,1.85,1.85,0,0,1-1.08-1c-.38-.84-.54-4.64-.48-11.29v-.94l5.16-2.12.66.58a1.36,1.36,0,0,0,.22.14c1.31-1.67,4.49-1,6.31-.43l.53.16,3.56,6.14c2.34-2.26,4.58-4.51,4.9-5a26.88,26.88,0,0,0,1-5l.29-2.19,4.49,2.84a5.85,5.85,0,0,1,1.47-2,3.84,3.84,0,0,1,2.46-1.19l.07-.19a2.55,2.55,0,0,1,1.3-1.66,1.86,1.86,0,0,1,1.52,0,12.15,12.15,0,0,0,3.6.17c1-.19,3-.33,3.21-.35h.19l4.15.81.18.94a33.92,33.92,0,0,0,.93,3.88,6.78,6.78,0,0,1,.79,3.16c0,.87.09,3,.09,3l0,.62-.44.44c-.79.79-1.69,1.73-2.21,2.32.24.33.57.73.77,1s.52.64.64.82c.39.59,3.38,5.47,3.6,5.85a3.2,3.2,0,0,0,1.59.8,10.16,10.16,0,0,0,1.42-1.87c.58-.89,1-1.48,1.83-1.48.22,0,2.48.18,6.71.54l.6.05,3.26,4.05,4.62.07,3.25-2.58c1.1-2.58,2.26-5.47,2.39-6.08a13.06,13.06,0,0,0,0-3l-.22-2.08,2,.56c2.91.81,3.22,1.12,3.44,1.34a32.34,32.34,0,0,1,3.3,6.65c.23.75.92,2.6,1.58,4.38,1.63,4.36,1.77,4.83,1.77,5.3,0,.2.29,1.08.59,2l7.07.19v4.44a32.9,32.9,0,0,0,5.15.88,13.36,13.36,0,0,1,3.57.19,45.31,45.31,0,0,0,7.4.83c.65-.2,6.26-2.73,11.19-5l12.45-6.53,1.55,7-1.11.45c-4.07,1.65-8.73,4.26-9.19,5.5-1.31,3.58-5.11,14.76-5.27,16a5.76,5.76,0,0,1-.29,1.18c-.28.85-.59,1.8,1.07,5.56.49,1.12.89,2.05,1.22,2.83a17.46,17.46,0,0,0,1.35,2.83h.06a79.89,79.89,0,0,1,8.19,1.52c2.9.6,6.82,1.41,7.8,1.51-.1-1.12-.23-3-.28-3.68-1.88-4.49-1.75-4.93-1.09-5.6l.66-.67.75.28c1.29.12,10.27.26,15.79.32l1.4,0V313.3a8.65,8.65,0,0,1,2.73,2.13,5,5,0,0,1,.59,1.72,3.1,3.1,0,0,0,.21.77s.27.17.43.26a3.58,3.58,0,0,1,1.74,1.74,4.37,4.37,0,0,1,.27,1.45,2.62,2.62,0,0,0,0,.35,1,1,0,0,0,.36.11,6.27,6.27,0,0,1,1.43.44,6.82,6.82,0,0,0,2.92.42c1.16,0,5.91.09,5.91.09l1.68,0-.31,1.65C261.61,326.76,261.15,329.37,261.09,330Zm-2.76.55h0ZM227,297.65l.06,0Zm-.2-.05h0Zm-199-62.9a1.76,1.76,0,0,0-1.25.77l-.21.35C26.93,235.35,27.41,235,27.81,234.69Zm-1-66ZM35.09,162Zm.16,0h0Zm2.94-.26h0Zm-1.9-2.09h0Zm18.27-9.88h0Zm30.75-21.09h0Zm0,0h0Zm53.11-51.19h0Zm3.25-2.5h0Zm1.4-2.46h0ZM250.81,52.76h0Zm-68.4-1.28Zm38-8.85Zm.32-.23Zm77.76-19.08h0Z"/></svg>