<svg id="Layer_1" data-name="Layer 1" xmlns="http://www.w3.org/2000/svg" viewBox="0 0 350 350"><defs><style>.cls-1{fill:#999;}.cls-2{fill:#f90;}</style></defs><title>M</title><path class="cls-1" d="M290.18,340.62a6,6,0,0,1-1.47,1.71c-.71.41-1.18,0-1.77-.06s-1.12.53-2.3,1.18-1.65.12-3.18-.35-.65-.47-1.3-1.53A6.88,6.88,0,0,0,278.8,340c-.41-.47-1.36-.88-2.24-1.59s-.94-.83-.65-1.36.29-.88,0-1.77-.65-3.18-1.53-2.83-1.59,0-4.07,0-3.71,4.6-3.71,4.6a16.15,16.15,0,0,1-3.8-1.33c-1.06-.71-7.07-3.63-7.52-4.24s-.71,1.06-1.06,1.06-1.33-1.06-2.56-.18-2.3,1-2.83.62-1.24-1.5-1.86-1.5-.53.53-2.21,1.95-1.59-1.15-2.83-2.12-3.1-4.16-3.89-5.75-1.41-1.33-2.48-3.1.35-4.07-1.06-4-.09,2.65-.09,4.42-2.39.35-2.12,1.77-1.86,1.59-3.18,1.59-1.15.44-1.59,2.3-2.48-.27-3.54-1.59a2,2,0,0,1,.27-2.65,17.42,17.42,0,0,1-2.48-1.33,9.72,9.72,0,0,1,1,3c.35,2.12-.8,2-1.5,2.74s-1.68,1.68-5,2.92-.18-1.15-.18-1.86.18-1.86.27-2.83-1.77-1.15-2.12-1.24-.44-1.77-.18-3.27a5.36,5.36,0,0,1,1.95-2.74A43.22,43.22,0,0,0,218,314.3c.62-2.39,2.3-9.11,2.92-9.55s-.62.44-2,1.33-3.18,1.06-5.13,1.68-2.74,2.92-4.42,5-1.33,1.68-1.59,3.8-.09,3.1-.44,5-.27,2.83-1.5,4.24-3.71-.53-5.75-1.41-3.71-4.78-4.78-4.78-.8,1.24-1.95,2.56-2.92-.18-4.24-.88a18.73,18.73,0,0,1-4.86-3.71c-1.5-1.68-3.89-6.63-4.78-8.31s-1.41-2.3-1.68-4,.88-2,1.77-3.1,2.74-1.5,3.8-2.12.27-1,0-2.21-.88-5-1.59-5.75-2-.71-3.89-.09a28.79,28.79,0,0,1-6.46.62c-.35,0-4-6.81-4.33-8s-1.59-6.37-1.9-7.69-3-4.78-4.2-7.16-7.25,1.59-8.22,1.95a46.47,46.47,0,0,1-5.92.62s-9.73,0-10-.35-1.33-5.22-2.48-6.1-2.12-1.77-4.24-3.45-2.12-5.22-2.12-5.22a7.59,7.59,0,0,0-1.15-2.65c-.62-.53-3,.53-3.89,1.06s-4.16-2.83-4.16-2.83h-.35l-1.15.53a15.87,15.87,0,0,0-4.07,3.8,6.74,6.74,0,0,1-4.07,2.12c-1,.18-.44.18-2.28,1.95s-2.49,9.11-2.49,9.11a17.3,17.3,0,0,1-2.12.09c-1.5,0-1.24-.71-1.86-1.86s-.27-1.59-1.68-4.51-.62-3.18-2.12-2.92-.8,1.33-1.86.88a2.92,2.92,0,0,0-3,.35c-1.24.71-.62,2.3-1.06,3.54s-1.95.62-4,1-2.92-2.12-4-3.71-1.95-.53-2.92-.53-3.63-3-3.63-3.8-2.92-.27-4.16-.18-5.92-.27-6.54-.62-4-2-5.48-2.65-2.12,1.41-3.1,1.59-2.83-.8-4.33-1-1.86,2.39-1.86,2.39-.06.29-1.59,1.3a11.12,11.12,0,0,1-3.54,1.47,16.34,16.34,0,0,1-3.36.82c-.47-.12-2.3.06-2.89-.77s-2.42-3.07-3-3.89-2.65-2.59-3.83-3.89a26.74,26.74,0,0,1-2.95-3.83c-.77-1.24-4.72-5-4.6-6.48s.29-1.65.41-3-.89-2.18-.42-3.18a2,2,0,0,0-1.59-2.59c-1.12-.06-1.06.71-1.53-2.48s-.94-6.37,0-8.08a16.06,16.06,0,0,0,1.53-3.12,6.83,6.83,0,0,0,.59-3.6c-.18-1.83-.41-5-.47-5.9s-.41-2.89-.12-2.95,1.36,1.24,2.18.24-.65-7.31-.94-9.43-1.47-5.84-1.12-7.37,1.12-4.07,1.36-5.37,2.3-4.89,1.24-8.19,1.36-4.19.77-9.14-.83-6,1.3-7.78,3.12-6.19,4.54-8.78a9.21,9.21,0,0,1,3.77-4.19,6.13,6.13,0,0,0,2.53-4.76c0-1.78-.83-4.2-.29-5.79s-.47-2.18.35-3.65,2.36-1.3,1.77-3.6S38.15,128,38.5,124.9a24.93,24.93,0,0,0,.29-6.9c-.29-2.89-.06-6.43-1.65-6.9s-3.83-.65-5.07-2.59-1.57-3.71-3.41-4.89-4.91-1-5-3.66.83-3.83,2.3-6.25a70.34,70.34,0,0,0,3.3-6.6s-2.3-.24-2.89-1.47a4.69,4.69,0,0,0-2.95-2.48c-1.18-.29-5-1.36-5-1.36s1.12-4.83,2.83-5.54,2.42-.06,2.83-1.41.59-1.77,1.47-2.24.83-1.06,1.95-2.12a6.53,6.53,0,0,1,3.6-1.36,1.87,1.87,0,0,0,1.65-1,45.73,45.73,0,0,1,3.6-5.66c1.3-1.59-3.36-5.78-3.36-5.78s-1.09,2.18-4.41,0-5.32-3.48-5.5-3.54-2.42-.53-2.42-.53l-1.83-4.48s7.63-2.83,9.74-4.54,4.53-3.48,5.82-3.89a29.06,29.06,0,0,1,5.72-.53c.94,0,10.43.88,12.38.59s3.24-2.59,5.37-2.59,3.54.94,4.6,0a4.59,4.59,0,0,1,4.07-1.06,18.33,18.33,0,0,0,4.3.35,19.61,19.61,0,0,1,3.24-.06,4,4,0,0,0,2.24-.53c1.06-.47,5.6-2.42,6.19-3.12a7.47,7.47,0,0,0,1.53-1.95,3.18,3.18,0,0,1,2.24-2.06c1.47-.53,1.95-1.71,3.07-1.3a12.34,12.34,0,0,0,3.71,1.3c1.71.18,2.24,0,3.6.53s2.26.29,2.63,1,1.08,1.59,1.55,1.59a33.28,33.28,0,0,0,5.48-2.36c.94-.59,2-1.18,2.06-2.48a14,14,0,0,1,.88-4.07c.47-1.24.88-1.41.88-2.48a40,40,0,0,1,.18-4.78,12.3,12.3,0,0,1,1.89-2.59s2.3-1.65,3.54-1.59a13.43,13.43,0,0,0,5.66-1.24,13.23,13.23,0,0,1,4.24-1.24c1.77-.35,1.53-.94,3.07-1.18s.94-.59,2.95,0,2.24,1.3,4.72.59a32,32,0,0,1,3.42-.91c1.3-.27,3.54-1.68,4.36-1.21s2,2,2.83,2.36a15,15,0,0,0,4.6.59c1.77,0,2.59-.35,3.54,0s1.3.24,2.95.71,3.54,1.18,3.54,1.18-.35,1.41,1.41,2.12,1.18.12,2.36.71,1.18,1.06,2,1.3,2.71,1.77,3.3-.47,1.06-2.36,2-2.83,1.41-.24,2.24-1.41,2.95-.59,6.13-.47,2.12-1.77,3.42-1.89L187.18,8a36.87,36.87,0,0,0,5.54-.35c1.3-.35,1.06,1.06,4.24,1.53s15.68,3.89,21.93,2.24,10.26.35,15.45,1.06,11.44.24,13.68,1.89,8.73,2.95,12.38,3.07,10.14.35,11.44-.59,2.71-2.12,2.71-2.12A41.17,41.17,0,0,0,281.39,28c5,6.25,5.42,11.91,7.31,15s7.9,14.5,7.9,14.5l12.22-2.71,1.34,13.68L297.9,75.2l5,12.38,21.7-6.13,6.94,17.92s-4.58,3.07-5.88,3.89S314.06,110,310.87,111s-13.21,4.72-15.8,5-5.66.24-7.43.83a59.47,59.47,0,0,1-10.38,1.3c-2,0-8.37-1.53-9.55-1.53s-5-.47-5.42-.35-2.83,1.3-2.83,1.3-6.37,5.07-11.32,7.07-13.56,8.61-20.87,16.15S210.77,159,211.12,166.94s3.66,25.59,3.66,25.59-36.66-3.18-39.78-4.24-4.79-.44-4.79-.44,3.75,4.78,4.79,8.4,3.25,4,2.37,9.64-1.5,5.39-.62,7.34,2.48,3,4.16,4.78,4.69,3.18,6.1,5.39,2.21,2.39,4.07,4.16,8.84,7.78,12.82,8.58,17.33,3.71,21.14,5.31a93.08,93.08,0,0,1,10.7,5.39c.27.35-2.12,8.22-1.5,8.67s2.83-.44,3.71,1.33,5.92,12.82,7.43,15.3,3.27,6.46,4.07,7.61a6.43,6.43,0,0,0,4.78,2.56c1.86-.09,6.1-1.5,8-2.21s4.86-.62,6.54-1.95,4.33-3,4.33-3-3.89-8.49-3.63-9.2,2.21-1.5,3.71-1.5,4.78,1.41,6.81,2.12,6.28,1.24,7.16,3.63a7.56,7.56,0,0,0,2.21,3.36l4.78.53s1.33-1.68,1.33-2.56-.53-4.78.8-4.78,6.54.27,7.34,1.06,4,6.37,5.75,8.22a21.5,21.5,0,0,0,4.24,3.27s.09-.71,1.86-.35,3.89,1,3.8,1.24a7,7,0,0,0,0,3.45c.44,1.5,1.59,4.78,1.59,4.78s-2.39,3.54-2,5.31a59.85,59.85,0,0,0,2.92,8,48.47,48.47,0,0,0,2.48,4.69c.8,1.15,5,4.07,2.56,3.36s-2.12-3.8-5-2.3a137.85,137.85,0,0,0-11.67,7.34c-2.39,1.77-4.6,4.6-5,4.51s-.62,1.68.71,2.48-.09,2.65-.09,2.65l-4.07-.88-7,4.33.35,1.59-3.18,2.56,1.33.8-2.92,1.33,2,1.33-4.69,3Z"/><path class="cls-2" d="M283.63,345.17a4.75,4.75,0,0,1-1.73-.41c-.25-.09-.53-.2-.86-.31-.82-.25-1.85-.57-2-1.9a.45.45,0,0,0-.09-.25,3.43,3.43,0,0,0-.74-.92,5.64,5.64,0,0,1-.47-.47,5.6,5.6,0,0,0-.73-.51,14.13,14.13,0,0,1-1.33-.91c-.8-.64-1.91-1.53-1-3.15a.62.62,0,0,0,0-.1,3.83,3.83,0,0,0-.15-.53c-.07-.2-.14-.47-.22-.77s-.17-.65-.28-1a7.23,7.23,0,0,1-1.59,0c-.54,0-1.21-.1-2.17-.1s-1.95,2.07-2.35,3.55l-.35,1.31-1.33-.3a16.27,16.27,0,0,1-4.28-1.53c-.35-.23-1.54-.86-2.69-1.46-1.91-1-3.1-1.64-3.86-2.1a1.55,1.55,0,0,1-1.24.62,2.18,2.18,0,0,1-1.06-.33c-.48-.25-.51-.23-.68-.11-1.61,1.15-3.31,1.4-4.44.65a5.19,5.19,0,0,1-.89-.83l-.12-.13a13,13,0,0,1-1.35,1.3,2.54,2.54,0,0,1-2.17.71,2.92,2.92,0,0,1-1.87-1.87,3.22,3.22,0,0,0-.57-.93c-1.9-1.49-4.26-6.18-4.28-6.23a3.1,3.1,0,0,0-.85-1.09c-.19-.17-.39-.36-.62-.6a2.59,2.59,0,0,1-1.6.79,2.33,2.33,0,0,1-.51,1.13c-.71.86-2,1.26-4,1.27l-.07.35c-.05.25-.11.53-.19.86a2.17,2.17,0,0,1-1.62,1.77c-.7.16-1.82.1-3.7-2a4,4,0,0,1-1,.83,2.2,2.2,0,0,0-.33.23c-.76.75-1.9,1.9-5.45,3.24-.93.35-2.34.89-3.13-.22s.07-2.05.67-2.78c.11-.13.27-.34.38-.48,0-.48.09-1,.15-1.64l.06-.54a6.7,6.7,0,0,0-.69-.15l-.32-.06c-1.74-.43-1.52-3.25-1.23-4.89a6.3,6.3,0,0,1,2.18-3.38,39.87,39.87,0,0,0,1.74-4.87l.19-.73c.58-2.25,1-4,1.41-5.25a20.51,20.51,0,0,1-2.24.65c-.57.14-1.17.29-1.79.49-.86.27-1.49,1.25-2.3,2.5-.41.64-.88,1.36-1.44,2.07-1.13,1.42-1.13,1.42-1.2,2.15,0,.25-.05.56-.1.95-.11.88-.14,1.56-.17,2.21a17.74,17.74,0,0,1-.29,2.83c-.07.34-.11.66-.16.95a6.75,6.75,0,0,1-1.67,4c-1.69,1.93-4.18.61-6-.36-.47-.25-.94-.5-1.38-.69a9.86,9.86,0,0,1-3.48-3.38c-.18-.24-.4-.54-.6-.8a6.36,6.36,0,0,1-1,1.6c-1.73,2-4.06.59-5.31-.17-.23-.14-.46-.28-.68-.39a20.17,20.17,0,0,1-5.25-4c-1.26-1.41-2.87-4.47-4.4-7.49l-.57-1.11c-.19-.35-.36-.66-.51-.94a9.25,9.25,0,0,1-1.32-3.48,3.71,3.71,0,0,1,1.48-3.63,6.32,6.32,0,0,0,.6-.6,7.74,7.74,0,0,1,3.08-1.93l.7-.31a5.2,5.2,0,0,1-.28-.89c0-.21-.1-.5-.17-.83a22.71,22.71,0,0,0-1.12-4.3h0s-.4-.31-2.36.34a28.55,28.55,0,0,1-6.9.69c-.88,0-1.2-.17-3.42-4.31a43.6,43.6,0,0,1-2.28-4.77c-.37-1.3-1.63-6.54-1.92-7.76a21.35,21.35,0,0,0-1.93-3.31c-.78-1.2-1.58-2.44-2.15-3.53-.28-.12-1.4-.07-5.24,2a10.82,10.82,0,0,1-1.24.62,38.13,38.13,0,0,1-6.33.7h-.12c-10.4,0-10.6-.27-11.08-.92A5.62,5.62,0,0,1,135,271c-.26-.89-1.07-3.61-1.57-4.1s-1.07-.85-1.7-1.38-1.45-1.2-2.54-2.07c-2.33-1.85-2.62-5.26-2.66-6.13a10,10,0,0,0-.54-1.55,9.44,9.44,0,0,0-2.35,1c-.52.32-1.72,1-5.3-2.46l-.49.23a14.74,14.74,0,0,0-3.57,3.42,8,8,0,0,1-4.91,2.62l-.09,0-.06.07a18.06,18.06,0,0,1-1.4,1.49c-.9.87-1.77,4.94-2.07,8.21l-.1,1.12-1.11.16a18.37,18.37,0,0,1-2.32.1,2.63,2.63,0,0,1-2.83-2,4.85,4.85,0,0,0-.27-.63,6.32,6.32,0,0,1-.59-1.6,13.64,13.64,0,0,0-1.12-3,16.45,16.45,0,0,1-.81-2,1.85,1.85,0,0,1-2.44.63c-.55-.23-.79-.28-1.76.28a2.39,2.39,0,0,0-.15.94,6,6,0,0,1-.28,1.84c-.62,1.75-2.31,1.77-3.42,1.78a10.15,10.15,0,0,0-1.65.11c-2.6.45-3.94-1.85-4.83-3.38-.19-.33-.38-.66-.57-.95a1.61,1.61,0,0,0-.18-.23l-.3.09a4,4,0,0,1-1.25.24c-1.47,0-3.95-2.49-4.77-4.24-.55,0-1.45.1-1.93.16l-1,.1c-1,.07-6.24-.17-7.35-.8-.52-.3-3.85-2-5.32-2.57a4.94,4.94,0,0,0-.49.49,3.36,3.36,0,0,1-1.81,1.19,6.41,6.41,0,0,1-2.93-.49,12.31,12.31,0,0,0-1.7-.46,3.1,3.1,0,0,0-.41,1.16c-.12.63-.52,1.17-2.22,2.28a12.11,12.11,0,0,1-3.75,1.6l-.19,0-.6.18c-2,.63-2.83.81-3.47.65H41.5c-1,0-2.55-.13-3.39-1.3-.29-.4-.88-1.15-1.47-1.9s-1.24-1.57-1.54-2a21.23,21.23,0,0,0-1.77-1.81c-.69-.66-1.4-1.34-2-2a28,28,0,0,1-3.1-4,19.49,19.49,0,0,0-1.33-1.6c-2.18-2.48-3.6-4.22-3.48-5.74a14.37,14.37,0,0,1,.24-1.79,10.57,10.57,0,0,0,.17-1.23,2.36,2.36,0,0,0-.22-1,3.28,3.28,0,0,1-.06-2.67.84.84,0,0,0-.4-.57l-.28,0c-2,.21-2.2-1.25-2.56-3.7-.52-3.52-1-6.84.16-9l.37-.66a10.92,10.92,0,0,0,1.06-2.23l.18-.51a4.69,4.69,0,0,0,.34-2.5c-.17-1.79-.41-4.93-.48-5.94,0-.25-.06-.59-.1-.93-.19-1.64-.38-3.19,1.11-3.49a1.77,1.77,0,0,1,1.3.29,47.19,47.19,0,0,0-.82-5.76c-.16-.87-.3-1.62-.37-2.14s-.28-1.51-.48-2.42c-.47-2.12-.92-4.13-.61-5.46.15-.66.38-1.49.61-2.34.3-1.11.61-2.26.74-3a10.25,10.25,0,0,1,.5-1.57c.57-1.56,1.44-3.91.79-5.94a7,7,0,0,1,.2-4.79,9.57,9.57,0,0,0,.51-4.61l-.08-.63c-.54-4.53-.75-6.22,1.87-8.41,1.12-.93,2-3.13,2.75-5.08a30.34,30.34,0,0,1,1.45-3.3,10.54,10.54,0,0,1,4.27-4.71,4.77,4.77,0,0,0,1.87-3.56,14.21,14.21,0,0,0-.21-2,9.34,9.34,0,0,1,0-4.28,2,2,0,0,0,0-1.08,3.9,3.9,0,0,1,.43-2.82,5.29,5.29,0,0,1,1.31-1.5c.49-.41.49-.41.32-1.06a3.59,3.59,0,0,0-.87-1.48,5.23,5.23,0,0,1-1.4-4.46l.16-1.31a19,19,0,0,0,.14-5.28c-.07-.66-.11-1.35-.15-2-.07-1.24-.19-3.31-.58-3.7l-.78-.18c-1.55-.38-3.68-.9-5-3a21,21,0,0,1-1-1.88,5.74,5.74,0,0,0-1.94-2.58,8,8,0,0,0-1.66-.69c-1.55-.52-3.89-1.31-4-4.12s.86-4.35,2.14-6.43l.36-.59c.86-1.41,1.87-3.49,2.52-4.9a3.87,3.87,0,0,1-2.18-1.83,3.26,3.26,0,0,0-2-1.71c-1.19-.3-4.84-1.32-5-1.37l-1.3-.37.31-1.32c.39-1.67,1.52-5.64,3.67-6.53a7.48,7.48,0,0,1,1.85-.49l.17,0h0c.45-1.47.77-2.33,2.16-3.08.17-.09.21-.14.45-.49a8.15,8.15,0,0,1,1.19-1.41,7.53,7.53,0,0,1,4.18-1.7l.17,0c.52-.08.54-.12.6-.23a48.55,48.55,0,0,1,3.67-5.8A9.19,9.19,0,0,0,33,58.63a3.39,3.39,0,0,1-.79.32,5.43,5.43,0,0,1-4.37-1.08c-3.77-2.48-4.91-3.2-5.24-3.39L20.46,54l-.74-.16-2.66-6.53,1.37-.51c2.06-.76,7.76-3,9.34-4.31,2.89-2.34,5-3.73,6.29-4.14a31,31,0,0,1,6.15-.6c.31,0,1.07.06,2.63.17a92.86,92.86,0,0,0,9.54.43,4.74,4.74,0,0,0,1.79-1A6.35,6.35,0,0,1,58,35.76a12.3,12.3,0,0,1,2.35.27c.72.14,1.17.21,1.3.09a6,6,0,0,1,5.18-1.41l1.2.16a12.12,12.12,0,0,0,2.65.21,12.33,12.33,0,0,1,2.67-.1l.85,0a2.78,2.78,0,0,0,1.66-.41l.42-.18c4.09-1.79,5.08-2.41,5.31-2.61a8.06,8.06,0,0,1,.55-.6,3.06,3.06,0,0,0,.73-1,4.53,4.53,0,0,1,3-2.79,4,4,0,0,0,1-.62,3,3,0,0,1,3-.68c.39.14.75.31,1.11.49a6.24,6.24,0,0,0,2.26.73c.49.05.88.07,1.22.09a7.57,7.57,0,0,1,2.75.53,6.21,6.21,0,0,0,1.14.3,2.82,2.82,0,0,1,2.23,1.36,4.07,4.07,0,0,0,.5.73,40.46,40.46,0,0,0,4.53-2l.15-.1c.93-.58,1.23-.83,1.24-1.24a15.43,15.43,0,0,1,1-4.51,10,10,0,0,1,.55-1.18,1.3,1.3,0,0,0,.25-.79,29.86,29.86,0,0,1,.22-5.12,10.31,10.31,0,0,1,2.21-3.2l.22-.2c.63-.46,2.82-1.94,4.43-1.86a12,12,0,0,0,5-1.12,12.47,12.47,0,0,1,3.64-1.17l.91-.17a2.82,2.82,0,0,0,1.16-.45,4.59,4.59,0,0,1,2-.74,4.48,4.48,0,0,0,.75-.17c.86-.26,1.3-.23,2.82.21a14.5,14.5,0,0,1,1.42.51,2.88,2.88,0,0,0,2.5.08l1.47-.43a18.39,18.39,0,0,1,2-.51,9.84,9.84,0,0,0,1.44-.53c1.43-.6,2.79-1.17,3.92-.52a8.57,8.57,0,0,1,1.59,1.33,7.68,7.68,0,0,0,1.1,1,14.28,14.28,0,0,0,4,.47,15.14,15.14,0,0,0,1.54-.09,5.22,5.22,0,0,1,2.5.18,4.83,4.83,0,0,0,1,.24,16.86,16.86,0,0,1,1.86.43c1.69.48,3.57,1.18,3.65,1.21l1.33.5-.45,1.17c0,.19.35.38.57.46a3.08,3.08,0,0,0,1,.3,3.43,3.43,0,0,1,1.48.46,6.06,6.06,0,0,1,1.42,1c.22.19.23.2.34.23a5.32,5.32,0,0,1,.83.34,6.7,6.7,0,0,0,.68.29l0-.1c.62-2.36,1.27-3,2.6-3.67l.15-.07a6.32,6.32,0,0,1,.94-.37,1.1,1.1,0,0,0,.77-.59c1.08-1.55,3-1.39,5.21-1.21.64.05,1.36.11,2.13.14,1.06,0,1.13-.12,1.28-.41a2.36,2.36,0,0,1,2-1.48l2.72-.24a33.66,33.66,0,0,0,5.17-.3,2.64,2.64,0,0,1,2.5.59,4.32,4.32,0,0,0,2.32.91c.7.1,1.77.33,3.12.62,4.76,1,13.61,2.88,18.24,1.66,4.87-1.29,8.53-.49,12.06.28,1.27.28,2.58.56,3.94.75,1.74.24,3.62.34,5.44.44,3.8.2,7.08.38,8.89,1.71s7.92,2.67,11.59,2.79h.27c2.51.08,9.16.3,10.31-.34,1.22-.89,2.6-2,2.61-2l1.7-1.42.57,2.14a40.11,40.11,0,0,0,6.58,12.81,35.4,35.4,0,0,1,5.81,11.28,21.13,21.13,0,0,0,1.59,3.84c1.59,2.58,5.94,10.79,7.44,13.63l12.72-2.82,1.59,16.2-12,6.57,4,10,21.71-6.13,7.81,20.18-.94.63c-.19.13-4.61,3.08-5.9,3.91s-11.68,6.81-15.05,7.93l-2.69.93c-5.9,2-11.36,3.91-13.43,4.09-.75.07-1.54.12-2.32.17a22.71,22.71,0,0,0-4.79.59,59.52,59.52,0,0,1-10.82,1.37,43.67,43.67,0,0,1-6.13-.94c-1.35-.26-3-.59-3.42-.59-.59,0-1.64-.09-2.75-.19-.8-.07-2-.18-2.39-.18s-1.43.64-2.35,1.1c-.93.73-6.79,5.26-11.55,7.18s-13.39,8.61-20.38,15.83c-10.71,11.05-16,19.51-15.76,25.13.34,7.71,3.6,25.21,3.63,25.39l.34,1.83-1.86-.16c-3.77-.33-36.92-3.23-40.11-4.31a10.72,10.72,0,0,0-1.61-.42,26.29,26.29,0,0,1,3.43,6.65,11.07,11.07,0,0,0,1.14,2.53c1,1.69,1.94,3.44,1.27,7.72-.31,2-.59,3.27-.78,4.13-.34,1.55-.34,1.55,0,2.41a9.71,9.71,0,0,0,2.43,3c.47.44,1,.91,1.46,1.44a17.82,17.82,0,0,0,2.3,1.88,14.94,14.94,0,0,1,4,3.73,9,9,0,0,0,2.27,2.51c.45.37,1,.79,1.58,1.39,2.41,2.3,8.81,7.55,12.12,8.21,2.69.54,17.22,3.64,21.4,5.39,2.1.88,10.58,4.91,11.29,5.85.51.67.39,1.17-.38,4.38-.25,1.06-.67,2.78-.85,3.87a3.74,3.74,0,0,1,3.57,2c.26.51.86,1.8,1.62,3.43,1.76,3.77,4.72,10.07,5.75,11.77.81,1.34,1.68,3.06,2.44,4.58.64,1.28,1.25,2.49,1.58,3a5.06,5.06,0,0,0,3.54,2,37,37,0,0,0,7.52-2.12,15.37,15.37,0,0,1,2.72-.65,8.45,8.45,0,0,0,3.45-1.08c1.06-.84,2.47-1.79,3.42-2.42-3.61-8-3.36-8.63-3.16-9.17.58-1.56,3.35-2.42,5-2.42,1.29,0,3.15.66,5.64,1.6l1.63.6c.42.14.93.28,1.48.43,2.36.63,5.6,1.49,6.54,4a7.08,7.08,0,0,0,1.49,2.49l3.5.39a4.31,4.31,0,0,0,.58-1.11c0-.08,0-.29,0-.55-.14-2.11-.17-3.94.77-4.95a2,2,0,0,1,1.48-.64c.28,0,6.88,0,8.34,1.48a24,24,0,0,1,2.13,3.07,45.34,45.34,0,0,0,3.64,5.18,18.55,18.55,0,0,0,3.15,2.54,4.22,4.22,0,0,1,2.2,0c4.14.83,4.55,1.53,4.74,1.86l.32.55-.19.66a5.78,5.78,0,0,0,0,2.6c.43,1.45,1.56,4.67,1.57,4.71l.24.67-.4.59c-1,1.44-2,3.54-1.82,4.24a59.82,59.82,0,0,0,2.8,7.69l.38.77a36.36,36.36,0,0,0,2,3.75,14.63,14.63,0,0,0,1.48,1.4c1.56,1.37,2.59,2.27,1.92,3.49-.41.76-1.22,1-2.39.64a5.27,5.27,0,0,1-2.76-2.08,3.46,3.46,0,0,0-.51-.58,2.25,2.25,0,0,0-.63.25c-2.7,1.43-9.14,5.48-11.49,7.23a29.39,29.39,0,0,0-3.21,2.94,15.92,15.92,0,0,1-1.5,1.41.68.68,0,0,0,.26.28,2.52,2.52,0,0,1,1.21,1.7,4.24,4.24,0,0,1-.9,3l-.55.72-4.39-1-5.64,3.5.33,1.47-2.29,1.84,1.9,1.14-3,1.38,1.71,1.11L290,338.65l2,1.63-.63,1.06a6.84,6.84,0,0,1-2,2.21,2.78,2.78,0,0,1-2.38.19l-.13,0-.47.29c-.31.21-.68.44-1.13.69A3.44,3.44,0,0,1,283.63,345.17Zm3.37-1.5h0Zm-5.24-2,.11,0c.41.13.74.25,1,.37.72.28.72.28,1,.1s.68-.41.93-.58a3.28,3.28,0,0,1,2.19-.77,4,4,0,0,1,.78.17l.17.05a1.68,1.68,0,0,0,.21-.2l-3.11-2.48,4.51-2.89L287.27,334l2.81-1.28-.75-.45,4.08-3.29-.38-1.71,8.33-5.17,3.36.73a3.43,3.43,0,0,1-1.23-3.76,1.72,1.72,0,0,1,1.15-1.08c.25-.22.7-.67,1.08-1.05a32,32,0,0,1,3.54-3.22,139.37,139.37,0,0,1,11.85-7.45,5.42,5.42,0,0,1,1-.43c-.48-.88-1-1.88-1.36-2.69l-.36-.74a60.3,60.3,0,0,1-3-8.4c-.37-1.84,1-4.43,1.86-5.77-.36-1-1.06-3.07-1.39-4.19a8,8,0,0,1-.22-3.07,25.12,25.12,0,0,0-2.5-.63l-.27,0-.16,1.29-1.85-1.05a22.82,22.82,0,0,1-4.57-3.52,45.13,45.13,0,0,1-4-5.6c-.63-1-1.4-2.17-1.69-2.53a25.73,25.73,0,0,0-5.82-.7,15.65,15.65,0,0,0,0,2.57c0,.34,0,.61,0,.78a6.92,6.92,0,0,1-1.63,3.44l-.49.62-5.93-.66-.31-.22a8.85,8.85,0,0,1-2.7-4c-.44-1.18-2.95-1.85-4.61-2.29-.63-.17-1.22-.33-1.69-.49s-1.09-.4-1.7-.63a21.68,21.68,0,0,0-4.64-1.42,5.23,5.23,0,0,0-2.2.57c.44,1.4,2,5.06,3.4,8.12l.52,1.13-1,.66s-2.61,1.66-4.21,2.92a10.44,10.44,0,0,1-4.71,1.65,13.34,13.34,0,0,0-2.2.51c-1.58.6-6.18,2.2-8.4,2.3a8,8,0,0,1-6-3.17,34.19,34.19,0,0,1-1.78-3.29c-.74-1.47-1.58-3.14-2.33-4.38-1.11-1.83-4-8-5.89-12-.75-1.6-1.34-2.86-1.59-3.36-.16-.32-.42-.41-1.43-.4a3,3,0,0,1-1.84-.41c-1.1-.78-.84-2.09.33-7,.17-.69.37-1.56.5-2.15-1.71-1-6.55-3.46-9.75-4.8-3.62-1.52-16.75-4.4-20.87-5.22-5.09-1-13.44-8.86-13.52-8.94-.56-.53-1-.9-1.43-1.26a11.81,11.81,0,0,1-2.85-3.16,13,13,0,0,0-3.26-3,20.07,20.07,0,0,1-2.68-2.21c-.46-.49-.92-.92-1.35-1.33a12.14,12.14,0,0,1-3.07-3.83c-.78-1.71-.63-2.38-.24-4.18.19-.87.45-2.07.75-4,.52-3.3-.09-4.39-.94-5.89a13.77,13.77,0,0,1-1.39-3.14c-1-3.31-4.51-7.87-4.55-7.92l-1.2-1.53,1.83-.67c.22-.08,2.25-.76,5.74.43,2.08.71,22.95,2.72,37.59,4-.85-4.76-3.05-17.46-3.34-24s5.12-15.43,16.55-27.23c7.35-7.59,16.14-14.37,21.36-16.48,4.7-1.9,10.91-6.82,11-6.87l.25-.16a26,26,0,0,1,3.12-1.41,12.49,12.49,0,0,1,3.27.13c1,.09,2,.18,2.49.18a29.78,29.78,0,0,1,4,.64,46.1,46.1,0,0,0,5.59.89,58.74,58.74,0,0,0,9.93-1.22,23.68,23.68,0,0,1,5.51-.73c.76,0,1.52-.09,2.24-.16,1.89-.17,9-2.63,12.75-3.95l2.73-.94c2.92-1,12.93-6.68,14.43-7.63.91-.58,3.5-2.3,4.9-3.24l-6.06-15.66L302,89.3l-5.89-14.73,12.54-6.87-1.1-11.15-11.71,2.6-.5-1c-.06-.11-6-11.43-7.85-14.42a22.88,22.88,0,0,1-1.85-4.39,33,33,0,0,0-5.36-10.45,42.52,42.52,0,0,1-6.45-11.81c-.37.29-.77.59-1.16.87-1.4,1-5.15,1.09-12,.87h-.27c-3.77-.12-10.61-1.45-13.18-3.34-1.12-.83-4.29-1-7.36-1.16-1.88-.1-3.82-.21-5.67-.46-1.47-.2-2.84-.5-4.16-.79-3.35-.73-6.52-1.42-10.73-.31-5.28,1.4-14.21-.49-19.55-1.62-1.31-.28-2.34-.49-3-.58a7.09,7.09,0,0,1-3.6-1.44L193,9a35.62,35.62,0,0,1-5.77.38l-2.24.2c-.54,1.06-1.39,2-3.89,1.92-.82,0-1.58-.09-2.26-.15a7.71,7.71,0,0,0-2.66,0A3.79,3.79,0,0,1,174,13.06a3.53,3.53,0,0,0-.54.21l-.16.08c-.59.29-.72.35-1.11,1.84a2.89,2.89,0,0,1-1.52,2,3.68,3.68,0,0,1-3.15-.38,3.48,3.48,0,0,0-.39-.17,3.41,3.41,0,0,1-1.43-.83,3.28,3.28,0,0,0-.81-.56,2.32,2.32,0,0,0-.37-.16,5.36,5.36,0,0,1-1.89-.5,3.44,3.44,0,0,1-2.25-2.42c-.68-.24-1.66-.57-2.56-.83A14.12,14.12,0,0,0,156.2,11a7.52,7.52,0,0,1-1.47-.38,2.89,2.89,0,0,0-1.23,0,18,18,0,0,1-1.81.1,16,16,0,0,1-5.16-.7,7.19,7.19,0,0,1-2-1.53c-.28-.28-.62-.61-.86-.79a10.93,10.93,0,0,0-1.57.57,11.34,11.34,0,0,1-2,.69,15.5,15.5,0,0,0-1.82.46l-1.49.43a5.56,5.56,0,0,1-4.34-.17,11.92,11.92,0,0,0-1.16-.42A6.22,6.22,0,0,0,130.29,9l-.11,0a7.35,7.35,0,0,1-1.15.27,1.85,1.85,0,0,0-.9.34,5.58,5.58,0,0,1-2.1.83l-1,.18a9.74,9.74,0,0,0-3,1,14.73,14.73,0,0,1-6.31,1.36h0a7.43,7.43,0,0,0-2.52,1.24,12.07,12.07,0,0,0-1.48,1.93,39.48,39.48,0,0,0-.12,4.37,4,4,0,0,1-.58,2.12,7.08,7.08,0,0,0-.4.87,12.62,12.62,0,0,0-.79,3.63c-.09,2-1.59,2.91-2.58,3.52l-.15.09c-.7.44-5.2,2.57-6.23,2.57-1.32,0-2.32-1.49-2.71-2.17L97.86,31a9,9,0,0,1-1.63-.45,4.79,4.79,0,0,0-1.86-.34c-.38,0-.82,0-1.37-.1a9,9,0,0,1-3.19-1c-.27-.13-.53-.26-.81-.36-.1.06-.27.18-.4.28a6.66,6.66,0,0,1-1.76,1,1.87,1.87,0,0,0-1.44,1.33,5.77,5.77,0,0,1-1.28,1.77c-.14.14-.29.29-.44.48-.48.58-1.63,1.28-6.3,3.33l-.41.18a5.36,5.36,0,0,1-2.82.65l-.94,0a10.8,10.8,0,0,0-2,.05,11.86,11.86,0,0,1-3.59-.18l-1.17-.16a3.19,3.19,0,0,0-2.95.71c-1.19,1.05-2.53.8-3.71.58A9.59,9.59,0,0,0,58,38.6a4,4,0,0,0-2.1,1.05,6.91,6.91,0,0,1-3,1.52c-1.43.22-5.63-.07-10.17-.41-1.08-.08-2.2-.17-2.42-.17a27.88,27.88,0,0,0-5.29.46,24.54,24.54,0,0,0-5.36,3.64C27.83,46.11,23.17,48,20.79,49l1,2.44c1.62.35,1.76.39,1.83.42.26.09.43.14,5.83,3.7,1.23.81,1.86.76,2.07.71a.73.73,0,0,0,.29-.16l.83-1.66L34,55.64c1.7,1.53,5.45,5.35,3.51,7.73a44.86,44.86,0,0,0-3.43,5.4,3.28,3.28,0,0,1-2.7,1.77l-.2,0a5.05,5.05,0,0,0-2.64,1,5.35,5.35,0,0,0-.8,1,3.83,3.83,0,0,1-1.45,1.38c-.4.21-.43.23-.78,1.4a2.6,2.6,0,0,1-2.45,2,4.7,4.7,0,0,0-1.19.31c-.43.22-1.12,1.64-1.63,3.25,1.2.33,2.86.79,3.55,1A6.08,6.08,0,0,1,27.69,85a3,3,0,0,0,1.76.67l1.92.21-.77,1.77a70.85,70.85,0,0,1-3.39,6.77l-.37.6c-1.21,2-1.77,2.87-1.72,4.88,0,.69.34.93,2,1.5a10.26,10.26,0,0,1,2.29,1,8.31,8.31,0,0,1,2.94,3.69,18.57,18.57,0,0,0,.9,1.63c.71,1.11,2,1.41,3.28,1.74.35.09.69.17,1,.26,2.19.65,2.36,3.48,2.52,6.21,0,.64.08,1.29.14,1.91a21.75,21.75,0,0,1-.14,5.92l-.15,1.29a2.46,2.46,0,0,0,.77,2.33A6.24,6.24,0,0,1,42.11,130a3.35,3.35,0,0,1-1.24,3.92,2.65,2.65,0,0,0-.67.72,1.17,1.17,0,0,0-.11,1A4.67,4.67,0,0,1,40,138a7.84,7.84,0,0,0,.12,3,16.33,16.33,0,0,1,.25,2.39,7.55,7.55,0,0,1-3.2,6A7.87,7.87,0,0,0,33.85,153a28.48,28.48,0,0,0-1.3,3c-.94,2.37-1.9,4.82-3.58,6.21-1.37,1.14-1.41,1.42-.87,5.89l.08.63a12.29,12.29,0,0,1-.62,5.81,4.29,4.29,0,0,0-.2,3.06c1,3-.16,6-.83,7.79a10.13,10.13,0,0,0-.37,1.1c-.15.81-.47,2-.79,3.19-.22.81-.44,1.61-.58,2.24a16.18,16.18,0,0,0,.62,4.21c.22,1,.42,1.88.53,2.65.07.49.2,1.2.35,2,1,5.34,1.17,7.43.28,8.51a2.38,2.38,0,0,1-1.82.9c0,.31.07.59.08.83.05.87.29,4,.47,5.85a7.48,7.48,0,0,1-.5,3.74l-.16.45a13.57,13.57,0,0,1-1.27,2.71l-.36.65c-.71,1.29-.25,4.42.16,7.18.06.38.13.87.2,1.27h0a3.24,3.24,0,0,1,2.55,1.66,3.16,3.16,0,0,1,.25,3s.1.31.17.5a5,5,0,0,1,.38,2.21,13.53,13.53,0,0,1-.21,1.51,11.57,11.57,0,0,0-.2,1.48c.11.62,1.92,2.67,2.78,3.65a18.14,18.14,0,0,1,1.61,2,25.21,25.21,0,0,0,2.79,3.63c.49.54,1.17,1.19,1.82,1.82a19.89,19.89,0,0,1,2.11,2.21c.29.4.87,1.14,1.46,1.89s1.19,1.51,1.5,1.94a4.8,4.8,0,0,0,1.27.18,5.88,5.88,0,0,1,.68.06,21.15,21.15,0,0,0,2.12-.58l.69-.21.21-.06a9.38,9.38,0,0,0,2.92-1.24,10.88,10.88,0,0,0,1-.75c.35-1.75,1.49-3.38,3.35-3.16a13,13,0,0,1,2.35.59,9.78,9.78,0,0,0,1.48.4c.1-.09.24-.24.34-.34A3.13,3.13,0,0,1,60.47,254c1.5.62,4.75,2.24,5.57,2.69a32.64,32.64,0,0,0,5.81.48l.87-.09c2.09-.24,3.42-.32,4.24.4a1.69,1.69,0,0,1,.56,1.09,9.18,9.18,0,0,0,2.33,2.55l.27-.08a2.89,2.89,0,0,1,3.71,1.27c.23.34.44.71.67,1.1.85,1.47,1.33,2.11,1.89,2a12.71,12.71,0,0,1,2.1-.16c.27,0,.62,0,.83,0a5.21,5.21,0,0,0,.08-.87A3.5,3.5,0,0,1,91,261.07a4.37,4.37,0,0,1,3.71-.63,2.92,2.92,0,0,1,1.61-.78c1.63-.29,2.35.13,2.84,1.68a13.59,13.59,0,0,0,.8,2,16.3,16.3,0,0,1,1.32,3.5,3.67,3.67,0,0,0,.33,1,7.53,7.53,0,0,1,.43,1l0,.13h1c.29-2.4,1.07-7.13,2.79-8.79a15.29,15.29,0,0,0,1.2-1.28,2.49,2.49,0,0,1,1.81-1,5.18,5.18,0,0,0,3.23-1.63c1-1.25,3-3.46,4.57-4.19l1.43-.66h1.26l.42.43a16,16,0,0,0,2.82,2.37c1.12-.61,3.78-1.86,5.14-.69a7.38,7.38,0,0,1,1.6,3.39l0,.34c0,.79.3,3.09,1.58,4.11,1.12.88,1.92,1.55,2.59,2.11s1.1.91,1.64,1.33c1.08.83,1.76,2.91,2.54,5.53l.13.45c1.55.12,5.44.19,8.93.19a43.41,43.41,0,0,0,5.44-.54c.16-.06.46-.23.85-.45,2.67-1.45,5.45-2.81,7.45-2.19a2.72,2.72,0,0,1,1.66,1.37c.5,1,1.27,2.15,2,3.29a16.86,16.86,0,0,1,2.31,4.2c.33,1.41,1.55,6.45,1.88,7.63a63,63,0,0,0,3.64,7,23.05,23.05,0,0,0,5.33-.54c1-.35,3.83-1.28,5.4.49.72.8,1.15,2.52,1.76,5.61.06.31.11.58.16.78a3.13,3.13,0,0,0,.24.66,2.14,2.14,0,0,1-.92,3.07,12.47,12.47,0,0,1-1.42.67,5.92,5.92,0,0,0-2,1.14,8.67,8.67,0,0,1-.86.87c-.63.58-.67.64-.59,1.09a6.55,6.55,0,0,0,1,2.55c.16.29.34.62.54,1l.59,1.14c1,2,2.87,5.63,4,6.88a17.54,17.54,0,0,0,4.48,3.41c.25.14.53.3.81.47a5.07,5.07,0,0,0,1.67.78,4.27,4.27,0,0,0,.71-1.22,2.5,2.5,0,0,1,2.34-1.87c1.21,0,2,1.07,3,2.42a8.64,8.64,0,0,0,2.34,2.47c.53.23,1.06.51,1.58.79.69.37,2.14,1.13,2.53,1a4.11,4.11,0,0,0,1-2.56c0-.32.1-.66.18-1a15.22,15.22,0,0,0,.24-2.42c0-.68.06-1.44.19-2.44,0-.35.07-.63.09-.86.15-1.57.37-1.84,1.8-3.65.48-.6.89-1.24,1.28-1.85,1-1.51,2-3.08,3.82-3.66.68-.22,1.34-.38,2-.54a10,10,0,0,0,2.84-1c.92-.58,1.77-1.15,2-1.35a1.42,1.42,0,0,1,2.06.29,1.4,1.4,0,0,1-.3,1.92,84,84,0,0,0-2.38,8.18l-.19.73a44.19,44.19,0,0,1-2,5.61l-.15.34-.3.22a3.93,3.93,0,0,0-1.39,1.85,8.65,8.65,0,0,0-.13,1.81c1.74.44,2.56,1.31,2.44,2.58,0,.35-.08.73-.12,1.1s-.12,1-.14,1.4a8.41,8.41,0,0,0,2.7-1.86,4.42,4.42,0,0,1,.85-.64,2.45,2.45,0,0,0,.3-.2,2.35,2.35,0,0,0,0-.67,8.32,8.32,0,0,0-.83-2.57l-.67-1.19,2.32-1.43.65,1c.36.22,1.27.67,2,1l1.85.85-1.44,1.44c-.15.16-.38.49-.16.77a11.58,11.58,0,0,0,1.23,1.34c.24-1.15.55-2.58,2.79-2.58a5.63,5.63,0,0,0,1.75-.2,1.91,1.91,0,0,1,.38-1.34,2.26,2.26,0,0,1,1.73-.78c0-.4-.15-.85-.24-1.29-.28-1.26-.55-2.45.15-3.37a2.16,2.16,0,0,1,3.12-.25,2.83,2.83,0,0,1,.58,2.36,3.19,3.19,0,0,0,.21,1.76,4.84,4.84,0,0,0,1.06,1.28,5.82,5.82,0,0,1,1.47,1.92,21.81,21.81,0,0,0,3.5,5.27,5.07,5.07,0,0,1,1.35,1.88,9.52,9.52,0,0,0,1-1,2.28,2.28,0,0,1,1.84-1,3.21,3.21,0,0,1,2.26,1.35l.33.35a2.48,2.48,0,0,0,1.27-.55,3,3,0,0,1,2.83-.45,1.69,1.69,0,0,1,1.27-.83,1.6,1.6,0,0,1,1.41.61c.51.4,2.87,1.64,4.29,2.39s2.5,1.32,2.95,1.61a9.57,9.57,0,0,0,2.1.8c.68-1.69,2.14-4.31,4.63-4.31,1.07,0,1.84.06,2.4.11a2.76,2.76,0,0,0,1.14,0,1.85,1.85,0,0,1,1.54.06c1,.52,1.39,1.86,1.7,3,.06.23.11.43.16.59a3.42,3.42,0,0,1,.12,2.41l.07.05a11.51,11.51,0,0,0,1.06.73,6,6,0,0,1,1.36,1,2.89,2.89,0,0,0,.25.25,6.2,6.2,0,0,1,1.25,1.54A3.39,3.39,0,0,1,281.76,341.71Zm-25.33-11.08h0Zm48.09-12.56h0Zm.78-.13h0ZM138,271.28h0Zm164.64-2.41ZM81.24,263.6Zm-38.76-3.06h0Zm-.22,0h0Zm-1.92-.26Zm34.35-1.48s0,0,0,.06S74.7,258.79,74.7,258.77Zm0,0h0Zm2.8-.25Zm-11.41-1.8h0Zm-9.66-1.16h0Zm-33.67-181ZM169.32,14.75Z"/></svg>