<svg id="Layer_1" data-name="Layer 1" xmlns="http://www.w3.org/2000/svg" viewBox="0 0 350 350"><defs><style>.cls-1{fill:#999;}.cls-2{fill:#f90;}</style></defs><title>M</title><path class="cls-1" d="M255.1,249.8l-10.43,7.55L241.8,268.5l-11.33,11c-1.44-3.24-15.1-3.6-15.1-3.6s3.24-6.47,2.16-7.55a54.31,54.31,0,0,1-9.21-10.79c-4.9-7.19-4.45-2.88-3.37-8.27s3.24-6.83,1.8-7.55-3.6,0-5.39-2.52-2.88-7.19-2.88-7.19l4.32-11.51-11.87-4-8.27,5.39-2.88,12.95-18.34,20.86s-25.17,10.43-26.25,10.43S114,271.92,114,271.92L92,321.18,72.6,308.24l-5.39,3.6L60,311.47,18.3,261.85l-7.91-1.62V246.92H6.25V244l4.14-2.7V232.9s12,.72,13.49-.54a10.74,10.74,0,0,1,4.14-1.8v4.68h9.71L39,241.17l13.67,1.44,5-.9h5.57l9.35-2.52-.18-8.45h28.41v-7.55H89.68l-2.43-2.43H66.13l-.9-19.33H75.3v-5a115.18,115.18,0,0,0,14.2,2.34,24.48,24.48,0,0,0,11-2.34l-1.8-20.68-3.42-2.16-1.08-4.14h-4.5l-.36-12.59-3.24-3.78,2.16-3.6,6.11,6.83,15.28,11.87v-18.7l14.56,4.67,4.14-1.26L127.26,145l3.51-1.62s2.43-10.43,1-12.59,2.7-4.68,2.7-4.68l1.44-13.67h3.78l-2.16-7,12.59-3.24L142.9,85.1a39.54,39.54,0,0,0,6.83,0c2.7-.36,11.87-7.37,12.95-7.73s5.93-2.7,5.93-2.7l.72,9.89,7.37-17.08h8.45l1.44-6.11h7.55l.9-13.31,24.09-11.51v-2.7H224s4,2,6.47,0a20.75,20.75,0,0,1,0-5l15.82.9L209.79,62.8l27.87,43.33s19.42,21,21.94,33.62c7.19-3.06,17.26-7.37,17.26-7.37l25.69,17.08-16.7,10.61,23.91,16.54,19.42,16.72,14.56,23.2-8.09,15.1s-10.25,10.61-10.79,16.9a91.37,91.37,0,0,0,.36,14.56l-17.08,6.11-2.34-18.52s-20.14-2.16-27.33-.36-15.82,5-15.82,5Z"/><path class="cls-2" d="M92.63,323.29l-20-13.35-5,3.33-8.28-.41-41.8-49.72L9,261.39v-13H4.83v-5.06L9,240.58v-9.19l1.5.09c5.16.31,11.37.3,12.53-.24a11.93,11.93,0,0,1,4.73-2.07l1.7-.34v5h9.44l1.28,6,12.44,1.31,5.09-.89h5.39l8.1-2.18L71,229.32H99.41v-4.72H89.09l-2.43-2.43H64.77l-1-22.16H73.88v-5.4l1.73.4a114.51,114.51,0,0,0,14,2.3A22.27,22.27,0,0,0,99,195.52l-1.65-19L94,174.46l-.94-3.62H88.3l-.38-13.46-3.57-4.17L88,147.09l7.31,8.17,12.9,10V147.52l16,5.13,2.56-.78-1.06-7.76,3.82-1.76c1.1-5,1.58-9.91,1-10.81a3.15,3.15,0,0,1-.46-2.48c.38-1.71,2-3.11,3-3.79l1.5-14.27h3.13l-2-6.6,12.43-3.2-7.47-17.73,2.34.2a38.36,38.36,0,0,0,6.52,0c1.46-.19,6.6-3.71,9.07-5.39A22.15,22.15,0,0,1,162.23,76c.72-.24,3.92-1.74,5.77-2.63l1.88-.9.45,6.19,5.45-12.62H184l1.44-6.11h7.35l.87-12.81,24-11.48V32.43h6.61l.3.15s2.54,1.2,4.33.51a23.37,23.37,0,0,1,.11-4.47l.17-1.3,20.51,1.17L211.63,63l27.15,42.22c1.52,1.65,18.15,20,21.79,32.54,7-3,15.73-6.72,15.73-6.72l.7-.3,28.14,18.71-16.73,10.63,22.27,15.42,19.58,16.86,15.12,24.07-8.57,16-.14.14c-2.75,2.85-10,11.29-10.4,16a90.42,90.42,0,0,0,.36,14.29l.12,1.11L307,271.15,304.55,252c-4.29-.41-19.8-1.76-25.72-.28-7,1.76-15.58,5-15.67,5l-.72.27-7.34-5.42-9.18,6.65-2.85,11L230,281.9l-.82-1.85c-.57-1.29-7-2.57-13.85-2.75l-2.23-.06,1-2a22.06,22.06,0,0,0,2.23-6.1l-.4-.37a55.42,55.42,0,0,1-8.8-10.44,25.44,25.44,0,0,0-3.33-4.15c-1.1-1.1-1.15-1.65-.76-3.12.13-.46.3-1.1.5-2.08a24.72,24.72,0,0,1,1.82-5.57l.26-.59-.68-.12a6.39,6.39,0,0,1-4.76-2.69c-1.94-2.72-3.06-7.49-3.1-7.7l-.1-.42,3.95-10.53-9.82-3.27-7.21,4.71-2.83,12.74-18.8,21.38-.3.13c-25.43,10.54-26.46,10.54-26.79,10.54-1.06.13-12.69,3.38-20.19,5.52Zm-20-16.76,18.81,12.54,21.52-48.34.64-.18c9.27-2.65,20.55-5.81,21.61-5.81l-.19,0c1.4-.3,16.31-6.37,25.59-10.21l17.88-20.34,2.92-13.16,9.33-6.08,13.91,4.64-4.68,12.47a22.23,22.23,0,0,0,2.55,6.28,3.6,3.6,0,0,0,2.89,1.54,6.47,6.47,0,0,1,2,.54c2,1,1.15,2.87.59,4.12a21.87,21.87,0,0,0-1.64,5c-.22,1.08-.41,1.79-.54,2.27l-.08.27.1.09a28,28,0,0,1,3.67,4.56,52.77,52.77,0,0,0,8.38,10l.67.63c.45.45,1.56,1.56-1,7.23,4.1.23,10.18.9,12.95,2.91l10-9.7,2.9-11.26L255.11,248l7.77,5.74c2.24-.82,9.27-3.32,15.25-4.82,7.35-1.84,27,.24,27.83.33l1.11.12,2.26,17.88,14.38-5.15a87.33,87.33,0,0,1-.25-13.72c.55-6.38,9.74-16.25,11-17.62l7.61-14.21-14-22.32-19.2-16.53L283.29,160l16.66-10.58L276.71,134c-2.41,1-10.5,4.5-16.56,7.07l-1.6.68-.34-1.71c-2.41-12.05-21.4-32.73-21.59-32.94l-.15-.19L208,62.56l34.88-31.62-11.07-.63a16.76,16.76,0,0,0,.11,3.33l.13.82-.65.51c-2.74,2.15-6.52.79-7.66.3h-3.13v2.17L196.41,49l-.93,13.8h-7.75l-1.44,6.11h-8.64l-9.3,21.54-1-13.6c-1.53.72-3.52,1.64-4.22,1.87-.28.13-1.68,1.09-2.91,1.93-4.63,3.16-8.32,5.6-10.29,5.86a31.07,31.07,0,0,1-4.83.14l6.95,16.5-12.74,3.28,2.29,7.43h-4.42l-1.38,13.09-.6.36c-.83.51-2.14,1.62-2.31,2.38a.32.32,0,0,0,.05.29c1.61,2.41,0,10.38-.79,13.69l-.16.68-3.18,1.47,1.1,8.07-5.71,1.74-13.14-4.22v19.65L93.3,157.24l-4.83-5.4-.64,1.07,2.9,3.38L91.06,168h4.21l1.21,4.65L100,174.9,102,197.23l-.86.43a25.78,25.78,0,0,1-11.69,2.48,103,103,0,0,1-12.7-2v4.69h-10l.77,16.49H87.84l2.43,2.43h12v10.39H73.87l.17,8.11-10.79,2.85H57.8l-5.11.91L37.8,242.47l-1.23-5.82h-10v-4.2a6.09,6.09,0,0,0-1.78,1c-1.42,1.24-7.56,1.24-13,1v7.72l-4.14,2.7v.69H11.8v13.57l7.26,1.49L60.7,310.09l6.11.31Z"/></svg>