<svg id="Layer_1" data-name="Layer 1" xmlns="http://www.w3.org/2000/svg" viewBox="0 0 350 350"><defs><style>.cls-1{fill:#999;}.cls-2{fill:#f90;}</style></defs><title>M</title><path class="cls-1" d="M341.5,158.83l-5.06-4.44c.79-5.66-6.69-6.76-8.25-11.82-.11-.37-1.72-.28-2.63-.41a61.44,61.44,0,0,1-8.11-1.28c-4.86-1.41-5.3-1.33-7.75,3.35-.44.84-1.6,2.2-1.86,2.08-2.78-1.27-4.45.88-6.49,1.86-1.75.85-3.56,2.26-4.5-1-.16-.55-1.3-1-2.05-1.16-2-.34-4-.54-6.05-.78-.62.31-1.25.59-1.89.85l.27.45-1.21-.08-.39.15a.35.35,0,0,1-.48-.21l-2.07-.14v-1.56a2,2,0,0,1-.25-.49c-.24-.76.21-1.53.08-2.26-.5-2.66-2.48-.39-3.16.44a.44.44,0,0,1-.61,0h0l-.52.38-5.6-7.62.82-.49,2.21,3a15.35,15.35,0,0,1-.87-4.49,7.76,7.76,0,0,1,1.64-5c.56-.74,1.35-1.23,1.92-1.93a2.85,2.85,0,0,0,.32-2.78c-2-1.83-3.25-.68-6.35,3.63a13.4,13.4,0,0,1-1.29,1.51,8.89,8.89,0,0,1-2.85,2.78l-.22.22-.05-.1a2.58,2.58,0,0,1-.81.17c-2.31.09-2.54-2.82-4.35-3-.13.35-.27.69-.42,1a4.41,4.41,0,0,1-.82,2.83c-.57.66-1,.82-1.67.19-.25-.25-.3-.65-.52-.91-1-1.09-1.89-.79-2.85-.29s-1.62,1.27-2.55,1.73c-2,1-4.37.7-6.54.92l0,0a14.1,14.1,0,0,1-2.09.6l-.86.31a.37.37,0,0,1-.51-.34,3.25,3.25,0,0,1-1-.38,5.73,5.73,0,0,1-2.41-3.25l-5.95,3.92c-.65-.78-1.19-1.37-1.66-2-2.86-3.84-5.78-7.64-8.52-11.57a28.71,28.71,0,0,1-2.25-4.34,8.93,8.93,0,0,1-2.46.22l-.11,0a9.94,9.94,0,0,1-2,.2l-.56-.08c-.21.13-.42.28-.64.4a2.09,2.09,0,0,1-1,.27l-.17.88,0-.12a1.83,1.83,0,0,1-.53,1.36l.52.78-.83.67-.83-1.09a5.36,5.36,0,0,1-.74,0c-.55,0-.55-.91,0-.86h.06l-4.59-6a6.15,6.15,0,0,1-2.59-.59,5.87,5.87,0,0,1-.66-.4,6.45,6.45,0,0,1-2-1.9c-1-1.15-1.89-2.43-2.85-3.41-2.74-2.79-6-2-9.32-3.76-2.87-1.49-4-1.62-6.77-.32a21.54,21.54,0,0,1-4.43,1.64,2.21,2.21,0,0,1-1.11,0l-.17.09.58.82-.83.58-1-1.42a2.24,2.24,0,0,1-.76-.66,13.18,13.18,0,0,1-1.21-2.17l-3.44-4.95.07,0a2.27,2.27,0,0,0-1-.32l-.1,0a5.82,5.82,0,0,1-3.9,2l-1.26.75c-2.33,1.39-4.62,2.84-7,4.08-1.39.71-3.2.7-4.63,1.28l-.26.2-3.2,3.23,0,0a.4.4,0,0,1-.2.3l-.09.06c-.27.33-.54.66-.81,1a22.44,22.44,0,0,1-2.94,2.72,2.24,2.24,0,0,1-.58,1c-2.05,1.88-4.86,3-7.41,4.26-.42.21-1.17-.1-1.72-.29-1.64-.56-1.52-.31-3.46.46-1.32.52-3.45.72-4.43,0-3.09-2.27-6.88-2.94-10.11-5.28s-2.29-6-4.81-8.08c-3,1.17-4.61.75-6-2.34a9.9,9.9,0,0,1-1-2.85l-.13-.48a6.71,6.71,0,0,1-.72-2.42.35.35,0,0,1,0,0c-.32.23-.65.44-1,.65a8.71,8.71,0,0,1-2,.63l-.11-.16,0,0v0l.14.11h0c.35.39,1,.74,1,1.17.08.65-.59,1.62-.32,2,2.87,3.94-.66,7.6-.45,11.43.11,2-1.44,2.51-3.23,1.36v1.76c-.24.09-.47.25-.59.2A5.84,5.84,0,0,0,92,118.52c-.9,1.71-5.06,3.62-7.1,3.12A2.44,2.44,0,0,1,83,123c-3.69.45-8.83,0-11.2-3.29-2.64-3.67-1.93-12.17-8.48-11.18a2.38,2.38,0,0,1-.58,0l-2.85,1.86c-.49.5-1,1-1.46,1.51a3.34,3.34,0,0,1-.68,1.93,4.45,4.45,0,0,0-.44.83,5.2,5.2,0,0,0-.85,1.1,1.31,1.31,0,0,0,.46,1.77l.7.67a1.19,1.19,0,0,0,.11.14c.66,1.23.5,2.61-.65,4.29a65.55,65.55,0,0,0-4.61,8.43c-3.9,8.06-7.58,16.23-11.58,24.24-4.42,8.86-9.13,17.58-13.65,26.4C23.27,189.42,19,197,15.66,205c-2.92,7-4.74,14.46-7,21.73-.57,1.83.3,2.79,2.09,3.41,8.62,3,17.31,5.47,26.6,4.9,3-.18,5.95,0,8.79,0,1.42,3.52,2.74,6.61,6.44,7.94A14.49,14.49,0,0,1,57,245.65c1.92,1.66,3,1.32,3.87-.95.92-2.45,1.91-4.88,3.15-8a66.26,66.26,0,0,0,6.3,3.14,4.42,4.42,0,0,0,3.15-.33c1.27-.62,2.23-1.9,3.51-2.5a20.65,20.65,0,0,1,4.15-1l.52,1-7.35,14.89a25.26,25.26,0,0,1,3.36-.72c1.08-.1,2.84-.28,3.17.26,2.48,4,5.27,1.2,8.09,1.05-.59-1.24-1.31-2.05-1.31-2.87,0-4.35.18-8.7.4-13,0-.56.69-1.13,1.14-1.63,1.58-1.79,3.2-3.55,5.15-5.7.3,0,1.64.66,2.47.25,2.44-1.22,3.81-.51,4.75,2.5l18.94-7.15a6.93,6.93,0,0,1-1.21,1.65,7.47,7.47,0,0,0-2.55,9.05c.73,1.91,1.75,2.22,3.1.65,1.66-1.94,3.58-3.77,4.76-6a47.83,47.83,0,0,0,3.24-8.73,14.19,14.19,0,0,0,.06-3.91c3.1-.75,5.85-1.18,8.36,1.43,1.74,1.81,4,2,6.59,1.18a12.82,12.82,0,0,1,6,.13c1.93.39,3.71,2.07,5.4-.59.28-.45,2.5-.37,3,.2a10.85,10.85,0,0,1,2.7,4.55c.7,2.78,1.44,5.6,4.16,6.78,5.53,2.4,16.13-1,19-5.79,1-1.78,1.64-4.39,3.18-5.15s4,.27,5.69.47l3.21-3.55c.28,1.87.17,3.11.69,4,.34.56,2.05,1,2.38.7a15.63,15.63,0,0,0,3.13-4.09c.68-1.32.53-3.12,1.33-4.32a5.07,5.07,0,0,1,3.32-1.82c.62-.08,1.44,1.29,2.13,2,1,1.11,1.77,2.81,3,3.27,2.35.88,3,2.21,2.54,4.46a11.87,11.87,0,0,0,0,2.26c2.18-.16,4.54-1,6-.25s2.3,3.24,3.39,5l-.8,1-9.26-3-.95,1,2.56,7.29c1.53,0,3.06,0,4.58,0,2.84,0,5.74-.47,8.5,0s5.33,1.44,8.16.23c.62-.27,1.78.31,2.51.78,2,1.29,3.57.92,4.74-1s2.25-4,3.44-6.21c2.28,1.4,2.21,3,1.38,5.09a3.91,3.91,0,0,0,.24,3.1c.26.42,1.84-.11,2.79,0,2.85.38,5.32.17,6.33-3.14,0-.15.57-.23.87-.22a71.55,71.55,0,0,1,8.84.26,62.43,62.43,0,0,1,8,2.16c2.79-4.55,5.9-5.29,8.89-1.67,1.27-1.5,3.07-2.71,3.29-4.15s-1.19-3.05-2.07-5h11c1-2.52,2-4.27,2.28-6.15s-.21-3.86-.41-6.36a105.77,105.77,0,0,0,9.22-7.06c1.06-1,1.75-3.62,1.18-4.84-1.08-2.31-2.88-.7-4.35.27-.88.58-1.85,1-3.41,1.86a22.47,22.47,0,0,1,.61-4.33c1.18-3.11,3.76-3.86,6.78-3.5a2.56,2.56,0,0,0,3.22-2.48,11.63,11.63,0,0,0-.46-3l-3.48,1.52c-.08,0-.12.17-.19.24-2.49,2.29-7.56,1.39-9.37-1.46-.48-.75-1.88-.85-2.66-1.5a8.51,8.51,0,0,1-1.4-2.11c3.21-.69,1.86-3.22,2.17-5.14a3,3,0,0,1,1.52-1.73c3.28-1.8,6.87-.75,9,2.39a16.41,16.41,0,0,0,2.42,2.33c1.6-4.22.84-7.27-2.53-9.6a2,2,0,0,1-.34-1.82c.57-1.61,1.35-3.14,1.94-4.46a29.21,29.21,0,0,0,5.29.81c.8,0,1.58-1,2.37-1.61L313,165.39c-.49-5,3.06-3,6-2.06l-.22-3.81a28.2,28.2,0,0,1,4.76,1.69,39.72,39.72,0,0,1,4.38,3.37c3.11-3.95,4-4,7.57-1.28,1.06.83,2.17,1.58,3.25,2.37l1-.81-3.11-5.58Zm-33.85,41.54c-1,4.24-3.14,5.52-6.62,4.17Zm-5.13-6.8-3,3.69-1.65-4.1Z"/><path class="cls-2" d="M84.06,255a4.88,4.88,0,0,1-4.2-2.5,12.88,12.88,0,0,0-2,.09,15.36,15.36,0,0,0-2.41.49l-.83.21-2.89.65,8-16.24a8.94,8.94,0,0,0-2.15.6,7.43,7.43,0,0,0-1.47,1.06,10,10,0,0,1-2,1.43,5.81,5.81,0,0,1-4.27.38,40.16,40.16,0,0,1-4.63-2.25l-.42-.23L64.24,240c-.74,1.87-1.39,3.51-2,5.16-.39,1-1.07,2.46-2.52,2.83s-2.76-.57-3.61-1.3a13.07,13.07,0,0,0-4-2.47c-4-1.44-5.64-4.74-6.92-7.86l-1.76,0c-2,0-4-.07-6,.06-9,.55-17.39-1.59-27.15-5-3.6-1.25-3.41-3.77-3-5.17.64-2.06,1.24-4.14,1.85-6.21a147.73,147.73,0,0,1,5.19-15.64c2.49-6,5.54-11.78,8.5-17.4,1-2,2.08-4,3.1-5.94,1.83-3.57,3.68-7.12,5.54-10.67,2.69-5.14,5.47-10.45,8.1-15.72,2.35-4.71,4.63-9.56,6.83-14.25,1.57-3.33,3.13-6.67,4.74-10a67.21,67.21,0,0,1,4.71-8.61c1-1.41.87-2.19.63-2.71l-.47-.45A2.56,2.56,0,0,1,55,117.25a2.78,2.78,0,0,1,.23-2.18,6.44,6.44,0,0,1,.88-1.2,5.32,5.32,0,0,1,.47-.84,2,2,0,0,0,.42-1.11v-.54l.36-.4c.37-.41.76-.81,1.16-1.2l.58-.54.76-.49,2.1-1.37.41-.27.49,0h.24c5.67-.85,7.12,4,8.19,7.6a14.92,14.92,0,0,0,1.65,4.15c1.91,2.66,6.36,3.14,9.88,2.71a1,1,0,0,0,.84-.55l.48-1.07,1.14.28c1.44.35,4.94-1.32,5.51-2.4a7.29,7.29,0,0,1,8-4v-2.81l2.18,1.4a2,2,0,0,0,1,.39,4.24,4.24,0,0,0,0-.48,13.26,13.26,0,0,1,.85-4.69c.78-2.52,1.2-4.16-.13-6a2.36,2.36,0,0,1-.09-2.26l0-.12-.15,0-.43-.69-1-.79.82-1.19L103,94.82l.78,1.28a2.57,2.57,0,0,0,.65-.23c.31-.19.61-.39.91-.59l2.23-1.55v2.71a5.52,5.52,0,0,0,.58,1.85l.14.42.08.28a8.78,8.78,0,0,0,.85,2.54l.07.13c1,2.25,1.71,2.53,4.13,1.58l.79-.31.65.54a8.51,8.51,0,0,1,2.45,4.26,6.48,6.48,0,0,0,2.28,3.76,24.51,24.51,0,0,0,4.85,2.52,25.88,25.88,0,0,1,5.27,2.77,4.44,4.44,0,0,0,3.08-.17l.89-.37a3.84,3.84,0,0,1,3.55-.11l.21.07c.16.06.43.15.6.19l1.57-.76a21.59,21.59,0,0,0,5.33-3.18.94.94,0,0,0,.18-.39l.13-.43.36-.27a21.15,21.15,0,0,0,2.76-2.55c.26-.28.51-.59.76-.9l.41-.5,3.65-3.61.29-.14a12.68,12.68,0,0,1,2.35-.62,8.55,8.55,0,0,0,2.16-.61c1.85-.94,3.67-2,5.44-3.12l1.52-.92,1.27-.75.3-.17.34,0a4.38,4.38,0,0,0,2.94-1.56l.21-.23.67-.26H171a3.68,3.68,0,0,1,1.64.5L174.59,97l-.75.51,2.74,4a12.61,12.61,0,0,0,1.05,1.92.89.89,0,0,0,.27.26h0l.64-.32.53.15a.8.8,0,0,0,.4,0,20.42,20.42,0,0,0,4.14-1.54c3.31-1.55,4.91-1.27,8,.35a14,14,0,0,0,3.62,1.15c2,.45,4.13.91,6.06,2.88a27.18,27.18,0,0,1,1.81,2.12c.36.46.73.92,1.11,1.36a5.61,5.61,0,0,0,1.58,1.54l.19.11a4.53,4.53,0,0,0,.5.3,4.7,4.7,0,0,0,2,.44l.68,0,4.82,6.3.45-6.48,1.6,4.39.23-.15.64-.41,1,.14a9.36,9.36,0,0,0,1.68-.18l.29-.06.19,0a7.68,7.68,0,0,0,2.07-.2l1.08-.2.83,1.79a21.23,21.23,0,0,0,1.76,3.33c2,2.93,4.22,5.84,6.34,8.65l2.16,2.88c.24.33.51.64.79,1l6.45-4.26.57,1.78a4.41,4.41,0,0,0,1.79,2.47,1.84,1.84,0,0,0,.55.22l.48.11.34-.1a10.37,10.37,0,0,0,1.54-.44l.45-.17.23,0c.65-.06,1.31-.09,2-.11a10,10,0,0,0,4.07-.67,6.74,6.74,0,0,0,1.07-.73,9.4,9.4,0,0,1,1.46-1,3.42,3.42,0,0,1,4.56.61,2.38,2.38,0,0,1,.28.39,4.5,4.5,0,0,0,.26-1.62v-.27l.11-.25c.14-.31.27-.62.39-.94l.39-1,1.1.13a4.18,4.18,0,0,1,2.8,2c.64.84.89,1.08,1.33,1a1.15,1.15,0,0,0,.37-.08l.16-.07a8,8,0,0,0,2.33-2.34l.13-.15a12,12,0,0,0,1.15-1.35c2.4-3.34,3.77-4.87,5.51-5a3.75,3.75,0,0,1,3,1.2l.33.3.1.43a4.18,4.18,0,0,1-.6,4,9.36,9.36,0,0,1-1.07,1.07,6,6,0,0,0-2.17,4.94,14,14,0,0,0,.79,4.06l1,2.92.52.71.25-.19.15.12c.86-.89,2-1.68,3.16-1.38.66.17,1.51.71,1.81,2.35a4.12,4.12,0,0,1-.06,1.53,2.28,2.28,0,0,0-.06.56.83.83,0,0,0,.08.14l.23.35v.66l1.32.09.6-.25c.69-.28,1.26-.54,1.79-.8l.38-.19,1.28.14c1.81.2,3.52.39,5.26.69.11,0,2.69.48,3.18,2.17.25.86.48,1,.49,1a5.46,5.46,0,0,0,1.4-.6l.63-.32a12.17,12.17,0,0,0,1.34-.8c1.36-.89,3.17-2.08,5.55-1.37a6.8,6.8,0,0,0,.83-1.14c2.74-5.22,3.79-5.68,9.4-4a32.76,32.76,0,0,0,5.37.92c.86.1,1.71.2,2.56.32.26,0,.59.05.91.07,1.23.06,2.5.13,2.86,1.33.55,1.8,2.13,3.06,3.79,4.4,2.21,1.77,4.69,3.76,4.58,7.25l7,6.14-6,.56,2.63,4.71-2.74,2.25-.89-.65-1-.73c-.77-.55-1.53-1.09-2.27-1.67-2.9-2.26-3-2.31-5.59,1l-.88,1.11-1.11-.87c-.45-.35-.89-.72-1.33-1.09a21.14,21.14,0,0,0-2.89-2.16,11.83,11.83,0,0,0-2.52-1l.22,3.84-2-.64c-.4-.13-.81-.28-1.23-.43-.84-.3-2.4-.86-2.8-.69a2.37,2.37,0,0,0-.14,1.05l3.54,2.48-1.62,1.17a7.65,7.65,0,0,0-.61.52,4.12,4.12,0,0,1-2.54,1.36,16.38,16.38,0,0,1-3.81-.49l-.69-.14-.06.12c-.48,1-1,2.11-1.37,3.21a1.29,1.29,0,0,0,0,.34c3.72,2.68,4.65,6.32,2.83,11.12l-.75,2-1.54-1.46c-.26-.24-.52-.47-.79-.69a9.65,9.65,0,0,1-1.83-1.87c-1.78-2.59-4.59-3.36-7.16-1.95a2.18,2.18,0,0,0-.82.75,7,7,0,0,0,0,1.26c.08,1.18.21,3.17-1.54,4.31a1.49,1.49,0,0,0,.27.32,3.88,3.88,0,0,0,.86.4,4,4,0,0,1,2.1,1.43,5.15,5.15,0,0,0,3.66,2,4.55,4.55,0,0,0,3.46-.78,1.61,1.61,0,0,1,.68-.58l2.77-1.21,2.38-1,.3,1.79c0,.28.12.57.18.86a7.48,7.48,0,0,1,.29,2.56,4.17,4.17,0,0,1-1.48,2.95,4.33,4.33,0,0,1-3.32.78c-3.65-.43-4.74,1.16-5.29,2.59a5.42,5.42,0,0,0-.27,1.35c.36-.19.67-.37,1-.57l.46-.31c1.09-.75,2.45-1.68,3.92-1.28a2.68,2.68,0,0,1,.73.32l1.49-.94-.47,2a5,5,0,0,1,.28.52c.88,1.88-.11,5.19-1.5,6.48a69.29,69.29,0,0,1-6.95,5.43L299.43,213c.05.49.11,1,.17,1.42a12.44,12.44,0,0,1-1.28,8.74c-.29.67-.61,1.39-.92,2.19l-.35.91h-9.58a6,6,0,0,1,1.11,3.81c-.23,1.46-1.34,2.55-2.42,3.61-.41.41-.84.82-1.2,1.24l-1.09,1.29-1.08-1.31q-1.54-1.87-2.91-1.78c-1.13.08-2.44,1.25-3.68,3.28l-.56.92-1-.29c-.82-.23-1.63-.49-2.45-.74a33.59,33.59,0,0,0-5.34-1.38,41.35,41.35,0,0,0-6.09-.25h-2.34c-1.72,4.13-5.8,3.59-7.59,3.35a5.77,5.77,0,0,0-1,.07c-1,.12-2.14.26-2.77-.75a5.32,5.32,0,0,1-.35-4.37,3,3,0,0,0,.31-2.27l-.2.37c-.8,1.5-1.55,2.91-2.41,4.3a4.72,4.72,0,0,1-2.95,2.33,4.89,4.89,0,0,1-3.78-.89,4.24,4.24,0,0,0-1.3-.61c-2.6,1.07-5,.57-7.18.13-.54-.11-1.09-.22-1.64-.31A26.05,26.05,0,0,0,222,236c-.92.05-1.83.1-2.74.11-1.06,0-2.12,0-3.18,0h-2.42L210.45,227l1.81-1.85v-1.48c0-.18,0-.37,0-.57a8.15,8.15,0,0,1,.07-1.95c.32-1.68,0-2.26-1.64-2.87a6.37,6.37,0,0,1-2.73-2.55,12.1,12.1,0,0,0-.84-1.09c-.21-.23-.42-.5-.64-.78s-.43-.55-.62-.75a3.58,3.58,0,0,0-2,1.14,5.19,5.19,0,0,0-.53,1.76,8.8,8.8,0,0,1-.72,2.42,17,17,0,0,1-3.42,4.47,2.14,2.14,0,0,1-1.83.46,4,4,0,0,1-2.73-1.45,4.16,4.16,0,0,1-.53-1.44l-1.61,1.77-.73-.09a16.76,16.76,0,0,1-1.77-.35c-1.1-.26-2.47-.58-3.12-.26s-1.13,1.52-1.61,2.6a19.7,19.7,0,0,1-1,2c-3.21,5.5-14.65,9-20.74,6.37-3.41-1.48-4.28-4.95-5-7.74a9.37,9.37,0,0,0-2.27-3.84,3.29,3.29,0,0,0-1.14-.12c-1.86,2.54-4.11,1.71-5.48,1.21a8.15,8.15,0,0,0-1.14-.36,11.9,11.9,0,0,0-5.29-.16c-3.35,1-6.05.5-8-1.55-1.61-1.67-3.21-1.84-5.87-1.29v0a8.79,8.79,0,0,1-.17,3.17,48.93,48.93,0,0,1-3.35,9,24.76,24.76,0,0,1-3.7,4.85c-.42.46-.84.93-1.24,1.4a3.31,3.31,0,0,1-3,1.47c-1.06-.18-1.88-1-2.46-2.53a8.8,8.8,0,0,1,.57-8l-15.33,5.79-.45-1.43c-.48-1.53-.93-1.93-1.16-2a2.28,2.28,0,0,0-1.61.37,3.73,3.73,0,0,1-2.65.1l-1,1.1c-1.27,1.4-2.41,2.66-3.54,3.93l-.32.35a5.5,5.5,0,0,0-.47.53c-.25,4.8-.38,9-.4,12.86a4.38,4.38,0,0,0,.5,1c.22.37.45.78.67,1.25l.91,1.92-2.12.11a8.52,8.52,0,0,0-2,.49A9.63,9.63,0,0,1,84.06,255Zm-4.64-5.35a2.88,2.88,0,0,1,2.65,1c1.19,1.92,2.09,1.63,4.05,1l.66-.21a3.83,3.83,0,0,1-.56-1.87c0-3.93.15-8.21.41-13.11a3.64,3.64,0,0,1,1.24-2.22l.25-.27c1.14-1.28,2.29-2.55,3.57-4l2.1-2.31.74.1a4,4,0,0,1,.57.15,3.33,3.33,0,0,0,1.1.22,4,4,0,0,1,6.17,2l22-8.29-2.68,3.78c-.07.1-.14.22-.22.36a5.46,5.46,0,0,1-1.26,1.59,6,6,0,0,0-2.11,7.43,3.51,3.51,0,0,0,.3.63,3.25,3.25,0,0,0,.4-.4c.42-.49.85-1,1.29-1.45a22.37,22.37,0,0,0,3.3-4.28,46.8,46.8,0,0,0,3.14-8.47,6.56,6.56,0,0,0,.06-2.16c0-.45-.06-.9-.06-1.35v-1.12l1.08-.26c3.4-.82,6.71-1.3,9.72,1.83,1.22,1.27,2.81,1.52,5.16.8a14.12,14.12,0,0,1,6.68.1,10.58,10.58,0,0,1,1.56.48c1.4.51,1.69.62,2.36-.44a2.25,2.25,0,0,1,1.83-.92c.1,0,2.37-.21,3.43.91a12.44,12.44,0,0,1,3,5.18c.74,3,1.37,5,3.35,5.82,4.74,2.05,14.68-1,17.16-5.2a17.57,17.57,0,0,0,.82-1.71c.71-1.6,1.44-3.25,2.95-4s3.4-.34,5,0l.77.17,4.7-5.19.44,3c.1.65.15,1.23.2,1.74a6.56,6.56,0,0,0,.25,1.58,2.58,2.58,0,0,0,.58.21,14,14,0,0,0,2.52-3.39,6.54,6.54,0,0,0,.46-1.65,7.33,7.33,0,0,1,1-2.8,6.49,6.49,0,0,1,4.32-2.44c1.24-.15,2.09.92,2.84,1.87.18.22.35.45.51.63a14.33,14.33,0,0,1,1,1.35c.46.65,1,1.38,1.41,1.54,2.91,1.09,4,3,3.43,6a2.8,2.8,0,0,0,0,.39l.45-.08c1.68-.29,3.42-.58,4.86.18s2.28,2.35,3.06,3.87c.29.57.57,1.11.86,1.58l.54.84-2,2.59-8.94-2.9,1.79,5.08h.42c1,0,2.1,0,3.14,0,.87,0,1.74-.06,2.62-.11a28.6,28.6,0,0,1,6.12.1c.59.1,1.18.21,1.76.33,2,.42,3.79.78,5.62,0,1.23-.53,2.77.19,3.84.89a2.39,2.39,0,0,0,1.61.5,2.07,2.07,0,0,0,1.15-1.05c.81-1.32,1.55-2.7,2.33-4.15.35-.66.71-1.32,1.08-2l.71-1.3,1.27.77c3.38,2.07,2.73,4.89,2,6.83a2.53,2.53,0,0,0-.06,1.28l.2,0a7.19,7.19,0,0,1,1.76-.07c3,.4,4.17-.12,4.79-2.15.35-1.14,1.68-1.25,2.25-1.23.83,0,1.67,0,2.51,0a44.22,44.22,0,0,1,6.51.28,36.24,36.24,0,0,1,5.79,1.48l1.37.43c1.63-2.33,3.41-3.58,5.3-3.71a5.6,5.6,0,0,1,4.19,1.65l.3-.29c.71-.7,1.52-1.49,1.6-2a5.65,5.65,0,0,0-1-2.31c-.32-.57-.69-1.22-1-1.9l-.9-2h12.2c.2-.49.41-1,.6-1.4a9.83,9.83,0,0,0,1.06-7.26c-.09-.73-.19-1.5-.25-2.33l-.06-.78.63-.47c.77-.57,1.59-1.16,2.43-1.76,1.35-1,2.73-1.95,4.07-3a7.75,7.75,0,0,1-3.08-.61l-2.62-1,1-.65.23-1.77c.08-.65.13-1.23.18-1.75,0-.36.06-.7.1-1l-.31.39-3.41-8.49,2,.18a6.45,6.45,0,0,1-1.2-1.39,7.26,7.26,0,0,0-.73-.3,5.71,5.71,0,0,1-1.64-.86,5.8,5.8,0,0,1-1.35-1.84c-.11-.21-.22-.41-.34-.61L291.32,185l2-.43c1.12-.24,1.15-.45,1-2a8.71,8.71,0,0,1,0-1.94,4.31,4.31,0,0,1,2.24-2.75c3.88-2.13,8.25-1,10.86,2.83a4,4,0,0,0,.51.59c.46-2.53-.37-4.36-2.6-5.9a3.3,3.3,0,0,1-.87-3.46c.44-1.24,1-2.42,1.48-3.47l.51-1.1.45-1,1.08.19c.66.11,1.27.24,1.85.36a14.32,14.32,0,0,0,3.16.43l.1-.08-1.51-1.06-.06-.65c-.07-.75-.3-3,1.19-4.21,1.29-1,3-.59,4.65,0l-.22-3.79,2,.68c.59.2,1.15.37,1.67.52a15,15,0,0,1,3.34,1.28,23.62,23.62,0,0,1,3.29,2.44l.19.16c3-3.43,4.81-3.4,8.64-.4l.41.32-2.47-4.42,3.83-.36-3.16-2.78.1-.76c.31-2.27-1.11-3.54-3.47-5.43-1.67-1.34-3.54-2.83-4.47-5.07l-.56,0c-.42,0-.84,0-1.18-.1-.82-.12-1.64-.22-2.47-.31a35.3,35.3,0,0,1-5.83-1C313,141,313,141,311,144.87c-.08.15-1.88,3.54-3.71,2.71-1.3-.6-2.14-.12-3.62.86a14.51,14.51,0,0,1-1.66,1l-.56.28c-1.09.57-2.45,1.27-3.84.68a3.88,3.88,0,0,1-2-2.64,3,3,0,0,0-1-.37c-1.66-.28-3.33-.47-5.1-.67l-.46-.05-.1,0,.83,1.39-3.59-.24-.12,0a1.77,1.77,0,0,1-1.59-.16l-2.87-.19V145a3,3,0,0,1-.18-.44,3.86,3.86,0,0,1,0-1.91l0-.14a8.86,8.86,0,0,0-.63.7,1.75,1.75,0,0,1-1.1.63l.72,2.06L279,144.13l-.8.59-7.36-10,2.8-1.68a9.23,9.23,0,0,1,1.93-5.78,8.69,8.69,0,0,1,1.2-1.23,7,7,0,0,0,.76-.74c.24-.29.26-.5.14-1.1a.78.78,0,0,0-.42-.2c-.77.08-2.68,2.74-3.5,3.88a14.48,14.48,0,0,1-1.35,1.6,10.39,10.39,0,0,1-3.09,3l-1.38,1.41-.48-.85h0a4.15,4.15,0,0,1-3.54-2,4.66,4.66,0,0,1-1,2.29,2.7,2.7,0,0,1-1.91,1.08,2.48,2.48,0,0,1-1.84-.8,2.74,2.74,0,0,1-.59-.93l-.06-.13c-.23-.24-.28-.3-1.07.11a7,7,0,0,0-1,.71,9.13,9.13,0,0,1-1.55,1,12.42,12.42,0,0,1-5.24,1c-.54,0-1.08,0-1.6.08l-.24.08a13.56,13.56,0,0,1-1.85.52l-.74.26a1.76,1.76,0,0,1-1.95-.49,4.6,4.6,0,0,1-.73-.36,6.61,6.61,0,0,1-2.29-2.37l-5.61,3.7-.81-1-.61-.72c-.41-.48-.77-.9-1.1-1.35l-2.15-2.87c-2.13-2.83-4.33-5.77-6.4-8.73a22.52,22.52,0,0,1-1.92-3.57,8.12,8.12,0,0,1-1.54.07,11.31,11.31,0,0,1-2.29.21l-.19,0-.27.16a3.54,3.54,0,0,1-.47.22l-.2,1,.66,1-1,.81-.47,2.38-.53-1.58-1,.77-1.3-1.69h-.15a1.86,1.86,0,0,1-1.7-2,2,2,0,0,1,0-.29L207.74,115a7.27,7.27,0,0,1-2.48-.69,6.92,6.92,0,0,1-.74-.44,8.2,8.2,0,0,1-2.47-2.27c-.35-.4-.74-.89-1.13-1.38a24.78,24.78,0,0,0-1.61-1.9c-1.34-1.37-2.8-1.69-4.65-2.1a16.73,16.73,0,0,1-4.31-1.4c-2.56-1.33-3.23-1.37-5.52-.3a25.79,25.79,0,0,1-3.8,1.5l.05.07-3.16,2.22L176.29,106a3.91,3.91,0,0,1-.89-.85,13.64,13.64,0,0,1-1.32-2.33l-3-4.29a7,7,0,0,1-3.73,1.7l-1,.58-1.5.91c-1.81,1.09-3.68,2.23-5.62,3.22a10.72,10.72,0,0,1-2.9.86,12.22,12.22,0,0,0-1.66.4l0,0-3,3a1.83,1.83,0,0,1-.55.65c-.24.3-.48.59-.73.86a24.2,24.2,0,0,1-2.8,2.63,3.34,3.34,0,0,1-.81,1.19,24,24,0,0,1-6,3.65c-.57.27-1.15.55-1.71.83a3.31,3.31,0,0,1-2.64-.15l-.19-.07c-.8-.27-.8-.28-1.5,0l-1,.41c-1.45.57-4.19,1-5.79-.18a23.36,23.36,0,0,0-4.71-2.45,27.07,27.07,0,0,1-5.39-2.82,9.2,9.2,0,0,1-3.31-5.18,8.15,8.15,0,0,0-1.06-2.41c-3.29,1-5.36,0-6.83-3.34a11.22,11.22,0,0,1-1.1-3.19l-.08-.28h0a5.38,5.38,0,0,1-.26,1l0,.09c1.87,2.92,1,5.77.27,8.09a11,11,0,0,0-.73,3.7,3.1,3.1,0,0,1-1.42,3.09,3,3,0,0,1-1.81.36v.75l-1,.38a1.79,1.79,0,0,1-1.53.12,4.4,4.4,0,0,0-5.73,2.24c-1.07,2-5,3.94-7.65,3.95a4,4,0,0,1-2.48,1.29c-2.1.26-9.21.74-12.52-3.87a17,17,0,0,1-2.07-5c-1.27-4.24-2.13-6.05-5.05-5.61l-.39,0-1.72,1.12-.63.41-.25.25-.74.75a5,5,0,0,1-.89,2.14,3.22,3.22,0,0,0-.29.57l-.11.25-.19.2a3.84,3.84,0,0,0-.56.7l1.23,1.31c.93,1.74.68,3.68-.73,5.76a65.06,65.06,0,0,0-4.5,8.25c-1.6,3.31-3.16,6.63-4.72,10-2.21,4.7-4.5,9.57-6.86,14.3-2.64,5.29-5.43,10.62-8.12,15.77-1.85,3.54-3.71,7.09-5.53,10.64-1,2-2.07,4-3.11,6-2.93,5.57-6,11.32-8.39,17.18a145.53,145.53,0,0,0-5.08,15.34c-.61,2.09-1.22,4.19-1.86,6.26-.21.67-.35,1.12,1.2,1.65,9.44,3.27,17.48,5.35,26.05,4.83,2.1-.13,4.19-.09,6.21-.06l2.67,0h1l.36.89c1.5,3.73,2.62,6.06,5.6,7.13a15.68,15.68,0,0,1,4.89,3,2.69,2.69,0,0,0,1.08.69,4.3,4.3,0,0,0,.54-1.06c.63-1.67,1.28-3.33,2-5.22l1.13-2.85.57-1.46,1.39.71c.63.32,1.25.66,1.86,1a37.61,37.61,0,0,0,4.3,2.09,3.16,3.16,0,0,0,2-.28,7.65,7.65,0,0,0,1.44-1.05,9.79,9.79,0,0,1,2.08-1.46,12.62,12.62,0,0,1,3.21-.89c.41-.08.82-.15,1.23-.24l1.09-.25L83.27,237l-6.34,12.84.64-.08C78.18,249.68,78.82,249.62,79.43,249.62Zm134.2-24.5L221,227.5l-.08-.15a6.57,6.57,0,0,0-1.86-2.65c-.59-.31-1.84-.1-3.05.11-.71.12-1.45.25-2.2.3Zm-16.68-4.83Zm109.71-27a12.4,12.4,0,0,1,1.48.09,1.76,1.76,0,0,0,1.22-.19,1.59,1.59,0,0,0,.42-1,3.11,3.11,0,0,0-.07-.88l-1.57.69-.12.13a6.1,6.1,0,0,1-2,1.22Zm1.17-1.19h0Zm-12.19-44.27Zm-82.75-26.75h0Zm-63.3-13.54,0,0Zm-46.72-8.1Z"/></svg>