<svg id="Layer_2" data-name="Layer 2" xmlns="http://www.w3.org/2000/svg" viewBox="0 0 350 350"><defs><style>.cls-1{fill:#999;}.cls-2{fill:#f90;}</style></defs><title>M_</title><path class="cls-1" d="M327.19,155.3c-.75-2-1.34-3.55-1.58-4.21l-.06-.14c-1.14-2.34-11.8-13.22-14.62-16.07C300.49,88.06,300.36,87.74,300.3,87.6l-.1-.24-.18-.19c-.87-.95-18.68-16.77-20.7-18.57L277,66.51v8.17l-1.35.35v3H275V74.31l-6.75-.14v-2l-6.86.07-1.23-9L257,71.84l-6.1-.14L254.33,65l-14.57-1.28-.58,2a21.48,21.48,0,0,1-2.23.18,4.32,4.32,0,0,0-4.18,4,2.59,2.59,0,0,1-.63.34,3.14,3.14,0,0,0-1-.9l-.25-2.45h3.26l6.08-11.51-18.8-.53v1.71l-2.46.07-.16,1.2c0,.1,0,.22,0,.33l-9.71-.64L203.83,36.2H193.7v3.48h-7.82v3.41h-4.55V46l-5-.16A12,12,0,0,0,171.76,44c-1.71-.3-4.25.05-5.74-.9-3.35-2.14-2.47-4.78-1.45-7.69s1.54-5,.3-7.7a1.51,1.51,0,0,0-1.69-.69l-4.12,1.18-2.39-4.58c-.66-1.27-2.29-.73-2.74.36q-4.78,11.61-8.54,23.58a17.47,17.47,0,0,0-5.34.63q-1.19.33-2.4.59-4.39-.6-5-4.2c-.56-.87-.83-1.82-1.49-2.66a11,11,0,0,0-11-3.87c-1.18-6.43-10.5-7.24-16-7.11-6.72.16-13.44.37-20.16.55-5.75.16-11.76-.17-17.45.75-11.7,1.88-10.63,11.83-10.51,21.47L56.32,75c.06,5.24,2.6,24.06-7.51,21.74A1.52,1.52,0,0,0,47,98.6l.49,3.22c-5.44-1-9.35,7.42-3.14,10.28,3.22,1.48,6.85-.34,9.86-1.44a9.28,9.28,0,0,1,2.85-.91,2.66,2.66,0,0,1,2.85,1.89c.23,1.29.42,2.58.58,3.87q0,.36.08.72c0,.19,0,.38.06.57.25,2.81.23,5.72.27,8.57l-1.36.14-.86.09-.33.79s-.38.83-.92.75h-.23c-.1,0-10.1.51-11.31,1.42s-1.42,1.77-1.35,4a37.9,37.9,0,0,1-1,7.1,3,3,0,0,1-1.6.33l-2.26-.38.67,2.19c.15.47.27.87.39,1.22.53,1.64.52,1.65.27,2.37-.09.26-.32.81-.64,1.58-1.5,3.64-4.63,11.2-5.11,15.79L35.07,164l1.17.31a9,9,0,0,0,2.42,0c7.12-.3,8.82.55,9,1.33l0,.12a8.31,8.31,0,0,1,.23,2.77,12.93,12.93,0,0,0,.37,4.06,12.45,12.45,0,0,1-.72,5.17,2.12,2.12,0,0,1-.3.23,3.56,3.56,0,0,0-1.71,3.23,1.73,1.73,0,0,1-.94,1.45l-2.45-.57.93,2.47a1.6,1.6,0,0,1,.1,1.18,1.49,1.49,0,0,1-.91.53c-1.75.56-12.27,1.13-14.23.44l-.88-.31-.63.69c-1.57,1.71-2.84,3.08-2.12,5.17a.31.31,0,0,1-.1.08,1,1,0,0,1-.65-.19l-.94-.54-.77.77A6.7,6.7,0,0,0,20.85,194c-.49.9-.52.89-.83.83l-1.86-.33.21,1.88c.44,4,.68,6.27,2.51,7.72.11.11.22.21.33.31s.09.07.09,0a2.53,2.53,0,0,1-.07.92,28.37,28.37,0,0,0-.31,3.65c-.05,1.18-.11,2.41-.27,3.75a24.42,24.42,0,0,0,.51,6.79c.12.71.23,1.33.27,1.74a8.42,8.42,0,0,0,.92,2.72c.09.19.21.44.3.66-.9.48-2,1.19-2,2.5a1.67,1.67,0,0,1-.85.4H18.16l.21,1.6c.24,1.9.77,2.53,1.71,3.09a1.77,1.77,0,0,1,.4.29c.36.36.9.9-.13,2.59l-.13.28c-.66,1.91-.66,1.91-1.71,2.13l-.1,0a2.18,2.18,0,0,0-1.58,1.56,4,4,0,0,0,1,3.22,4.07,4.07,0,0,0,1.1.67,9.83,9.83,0,0,1,1.72,1c.89.8,2.31.81,4.46.82,1,0,2.21,0,3.4.11,2.56.22,9.15.57,12.07.71l-.37,7.74,1.68-.22a1.11,1.11,0,0,1,1,.44l.39.68.79,0a28.11,28.11,0,0,1,7.51,1.13c-.33,2.48-1.41,9.74-2,11.68l-.14.45c-1.12,3.68-2.19,7.43-2,9.36a15.72,15.72,0,0,1-.13,3.66L47,282.51l1.87-.22a.85.85,0,0,1,.21,0,1,1,0,0,1,.07.54v.06l.07,1.17a19,19,0,0,0,.6,4.86,9.33,9.33,0,0,1,.2,2.32l-.19.3-.94-.51-.51,1.65c-.22.71-.67,1.87-1.14,3.09a40.48,40.48,0,0,0-2.47,7.69c-.09.75-.31,2-.58,3.46a66.28,66.28,0,0,0-1.34,10.24,3.33,3.33,0,0,0,.77,2.8.89.89,0,0,1,.26.52l.29,1.27,1.29-.18c2.53-.36,22.45-2.81,25.75-2.34l1.18.16.37-1.13.25-.79c.73-2.42,1.37-4.51,5.34-5.27a149,149,0,0,1,19.18,1.05c1,.17,1.62.31,2.07.41,1.28.29,1.78.31,2.77-.5.1-.08,2.45-2,4-.49l.58.54.76-.21c1.78-.48,7.67-1.67,7.73-1.68l.16,0a7.42,7.42,0,0,1,3.58-.2l.37.11.38-.1c2.89-.76,11.66-2.3,11.75-2.32l.31-.09a2.17,2.17,0,0,1,.71-.16,1.54,1.54,0,0,1,0,.31l0,1.51,2.06-.08c.51,0,1.42-.07,2.3-.06l1.65,3.4a6.68,6.68,0,0,1,.67,2.27,3.67,3.67,0,0,0,1.13,2.48l.37.35.51,0a13.42,13.42,0,0,0,2,0c1.1-.09,1.22-.09,1.64.48l.4.54,1.31.06a16.09,16.09,0,0,1,2.79.25l.88,1.32,1.22-1.36c1-1.09,1.26-1.09,1.79-1.09h.26l.24-.09.73-.3c.48-.21,1.94-.82,2.29-.64l.32.26.41,0a9.87,9.87,0,0,1,3.18.68l.62.39.67-.21c.31-.1.7-.22,1-.29-.07.15-.16.32-.25.48a2.63,2.63,0,0,0-.1,3.14l.4.49.63,0a3.61,3.61,0,0,0,3.25-1.36l.31-.49,0-.14h0l3,.14c14.19.7,15.19.62,15.74.4,0,1.47,0,2.27,0,2.28l-.11,1.62,1.62-.11a52.17,52.17,0,0,1,6.88,0c1.3.12,3.46.21,6,.32,3.45.15,7.36.31,9.93.6,2.13.24,5,.27,7.8.3a49.82,49.82,0,0,1,7.5.39,12.31,12.31,0,0,0,2.41.28,6.72,6.72,0,0,0,1.61-.19,2,2,0,0,1,.31-.06h1.47l-.05-1.47c0-.78,0-1.46,0-2l2.59-.22V317.8h.08l0,.11a2.52,2.52,0,0,0,.36,1l2.4,3.59.2-4.32c0-.12,0-.22,0-.31l.89.17.38-1.19c.13-.41.22-.76.29-1.06H239c.54,0,.54,0,.77.21l2.57,2.58-.18-4.17c-.27-4.76.43-6.07,1.13-6.37,2.32-1.09,2.93-1.75,3.13-2.17.11-.13.79-.85,2.93-1.27l1.23-.24-.09-1.25a17.73,17.73,0,0,0-.62-3.34,8.19,8.19,0,0,1-.23-1,5,5,0,0,1,.17-1,9.25,9.25,0,0,0,.25-1.37c.16-1.85-1.2-2.39-2.2-2.78l-.14-.06c-.25-.11-.49-.2-.72-.28a3.06,3.06,0,0,1-.64-.27.83.83,0,0,1-.07-.34l0-.18c0-.37-.08-.84-.08-1.17a1.87,1.87,0,0,0,1.65-.29,1.91,1.91,0,0,0,.65-1.57c0-1,.13-3.5.22-4a5,5,0,0,0,.23-1.3l0-.26.46-.19,0-1a5.55,5.55,0,0,1,.11-1.2,2.86,2.86,0,0,0,2.35-1.94,2.66,2.66,0,0,1,.38-.65c.29-.24.67-.63,1.15-1.12a18,18,0,0,1,3.2-2.81,8.57,8.57,0,0,0,3.9-1c1.27-.84,2.2-6.1,2.2-8.07l0-.21a8.43,8.43,0,0,0-1.45-3.56,8.07,8.07,0,0,1-.5-.86l.28,0a27.09,27.09,0,0,0-15.6-4.73c-7.13-.08-14,.14-21.06-1.39a2,2,0,0,1-1.2-2.94c3.36-6.41,8-12,11.7-18.18,3.35-5.69,3.25-11.21,4.13-17.55.6-4.32,1.91-9.15,6-11.51s7.85.92,12-.16c5.58-1.45,2.36-5.41.86-8.08a12.5,12.5,0,0,1-1.53-6.12c-.13-3.55.54-5.19,3-7.6,3.74-3.6,6.29-8.36,10.21-11.73a10,10,0,0,1,4.54-2.52c3.08-.67,5,.72,6.23-3.36a2,2,0,0,1,2.46-1.4c1.95.72,3.33,1.53,4,3.57.28.84,0,1.87.31,2.66.75,2.06,2.4,2.23,4.24,2.59a26.92,26.92,0,0,0,15.53-1.41c6.21-2.67,14.64-6,16.2,2.19A51.81,51.81,0,0,0,333.26,172C332.64,169.82,329.93,162.58,327.19,155.3Zm-263-30.39-.2,0c0-1.58,0-3.16-.12-4.74A17,17,0,0,1,64.2,124.92Zm73.41,185.31a4,4,0,0,1,1.48.23l.25.18.16,0a2.15,2.15,0,0,1,.42.71Z"/><path class="cls-2" d="M228.08,328.52a13.74,13.74,0,0,1-2.69-.31,50.85,50.85,0,0,0-7.23-.36c-2.82,0-5.74-.07-7.94-.31-2.52-.28-6.4-.45-9.83-.59-2.41-.1-4.68-.2-6-.33a51.34,51.34,0,0,0-6.64,0l-3.25.23.21-3.24c0-.09,0-.3,0-.62-1.81,0-5.63-.12-14.4-.55l-.47,0-1.64-.08a5.05,5.05,0,0,1-4.47,1.95l-1.26-.06-.8-1a3.4,3.4,0,0,1-.79-2.7l-.75-.47a12.24,12.24,0,0,0-2.62-.49l-.83-.09-.21-.17a13,13,0,0,0-1.27.49l-.79.32-.48.18h-.61a4.65,4.65,0,0,0-.63.62l-2.44,2.72-1.57-2.35c-.36,0-1-.08-2-.12l-2-.08-.76-1-.44,0a14.79,14.79,0,0,1-2.19,0l-1-.06-.75-.7a5.05,5.05,0,0,1-1.57-3.32,5.33,5.33,0,0,0-.54-1.84l-1.26-2.6-1.16,0-3.76.15,0-1.54c-3.4.61-8.92,1.64-11,2.18l-.75.2-.75-.21a5.93,5.93,0,0,0-2.77.19l-.37.09c-1.39.28-6.05,1.24-7.56,1.65l-1.52.41-1.15-1.08c-.65-.61-2.15.54-2.17.55a3.91,3.91,0,0,1-4,.79c-.43-.1-1.05-.24-2-.4a150.17,150.17,0,0,0-18.75-1c-3.06.6-3.48,2-4.17,4.27l-.25.82L73.39,321,71,320.64c-3-.42-22,1.86-25.36,2.34l-2.59.37-.57-2.51a4.81,4.81,0,0,1-1.07-3.78,67.12,67.12,0,0,1,1.36-10.4c.26-1.43.48-2.66.57-3.37.23-2,1.46-5.22,2.55-8,.47-1.22.9-2.34,1.11-3l1-3.3.35.19a22.08,22.08,0,0,1-.59-5l0-.3-2.45.29.52-3.68a14.49,14.49,0,0,0,.13-3.31c-.25-2.2.82-6,2-9.93l.14-.45c.45-1.48,1.31-6.89,1.79-10.26a34.52,34.52,0,0,0-6-.71l-1.57-.05-.62-1.08-3.12.41.38-8c-3.21-.17-8.48-.45-10.71-.65-1.14-.1-2.28-.1-3.28-.11-2.39,0-4.12,0-5.41-1.19a11.08,11.08,0,0,0-1.38-.78,5.23,5.23,0,0,1-1.49-.95,5.3,5.3,0,0,1-1.33-4.58A3.61,3.61,0,0,1,18,236.24l.16,0,.27-.05c.1-.24.25-.68.41-1.15l.26-.56a2.9,2.9,0,0,0,.38-.81l0,0-.12-.07c-1.47-.88-2.12-2-2.39-4.13l-.41-3.2h2.81a4.05,4.05,0,0,1,1.47-2,8.42,8.42,0,0,1-.82-2.72c0-.35-.14-1-.25-1.61a25.59,25.59,0,0,1-.52-7.22c.16-1.29.21-2.49.26-3.64a29.35,29.35,0,0,1,.33-3.83v0c-2.14-1.81-2.42-4.36-2.87-8.53l-.41-3.77,3.06.55h0A8,8,0,0,1,21,191.42l1.53-1.53.41.23a9.42,9.42,0,0,1,2.6-4l1.27-1.37,1.76.62c1.48.53,11.22.1,13.2-.42l-1.81-4.84,4.23,1a4.86,4.86,0,0,1,2.25-4.23,11.86,11.86,0,0,0,.5-4,14.48,14.48,0,0,1-.4-4.38,7.43,7.43,0,0,0-.15-2.27c-.38-.2-2-.73-7.63-.49a9.57,9.57,0,0,1-2.85-.08l-2.34-.62.25-2.41c.5-4.78,3.68-12.47,5.21-16.17l0-.11c.28-.69.49-1.18.57-1.41a2.54,2.54,0,0,0,.09-.28c0-.09-.2-.65-.37-1.19l0-.1-.36-1.14-1.35-4.39,4.53.76.17,0a36.22,36.22,0,0,0,.79-6c-.08-2.33.21-3.93,1.91-5.21s11.21-1.67,12.06-1.7l.6-1.44,1.7-.18h.08v-.26c0-2.29,0-4.66-.25-6.9l-.05-.54c0-.25-.05-.48-.08-.71-.14-1.17-.32-2.38-.55-3.69-.17-.48-.43-.81-1.5-.83a5.19,5.19,0,0,0-1.58.52l-.76.31-1.2.46c-2.85,1.11-6.4,2.48-9.75.94a6.36,6.36,0,0,1-3.67-8,7.25,7.25,0,0,1,5.74-5l-.24-1.55A3.12,3.12,0,0,1,46.47,96a2.89,2.89,0,0,1,2.65-.67,3.75,3.75,0,0,0,3.45-.58c3.24-2.73,2.72-12,2.45-17-.06-1.09-.11-2-.12-2.73l-.26-21.29c0-.67,0-1.34,0-2-.17-8.87-.36-18.93,11.73-20.87a82.82,82.82,0,0,1,12.78-.71c1.63,0,3.25,0,4.86-.06l6.89-.19q6.64-.19,13.28-.36c5.53-.13,14.78.64,17.05,6.93a12.41,12.41,0,0,1,11.08,4.6,9.31,9.31,0,0,1,1,1.75,9.15,9.15,0,0,0,.53,1l.16.25,0,.29c.2,1.16.78,2.54,3.55,3,.7-.16,1.39-.33,2.08-.52a21.55,21.55,0,0,1,4.69-.71c2.46-7.72,5.24-15.35,8.25-22.68a3.21,3.21,0,0,1,2.77-2,2.69,2.69,0,0,1,2.54,1.5l1.85,3.55,3-.86a2.91,2.91,0,0,1,3.38,1.47c1.46,3.24.79,5.78-.25,8.75-1.13,3.25-1.35,4.61.87,6a7.23,7.23,0,0,0,3.07.52,16.46,16.46,0,0,1,2.15.18,13.42,13.42,0,0,1,4.75,1.85l3.16.1V41.67h4.55V38.26h7.82V34.78h12.66l5.29,21.39,7.36.49.19-1.42,2.29-.06V53.39l22.53.64-5.52,10.45,1-.07.64-2.18,17.84,1.57-3.41,6.54,2.82.06,4.87-12.93,1.82,13.3,7-.08v2.08l5.84.12V63.35l4.72,4.19c2,1.8,19.86,17.64,20.8,18.67l.35.38.19.48c.11.27.23.57,10.62,47.1,5.1,5.17,13.47,13.84,14.6,16.16l.09.2c.27.73.85,2.28,1.6,4.26,2.74,7.28,5.47,14.57,6.11,16.81L335,173l-1.41.36A53,53,0,0,1,323.21,175l-1.24.07-.23-1.22a4.63,4.63,0,0,0-2.14-3.52c-3-1.57-8.69.89-12.11,2.36a28.48,28.48,0,0,1-16.37,1.5l-.39-.08c-1.75-.33-3.93-.75-4.91-3.42a5.24,5.24,0,0,1-.24-1.79,3.63,3.63,0,0,0-.08-.91c-.5-1.48-1.42-2.05-3.16-2.7a.36.36,0,0,0-.23,0,.77.77,0,0,0-.38.42c-1.15,4-3.35,4.06-5.29,4.14a11.51,11.51,0,0,0-2,.21,8.63,8.63,0,0,0-3.92,2.21,40.2,40.2,0,0,0-5.36,6.07,50.66,50.66,0,0,1-4.79,5.61c-2.21,2.13-2.72,3.41-2.6,6.53a11.1,11.1,0,0,0,1.35,5.47c.16.29.35.6.54.92,1.13,1.88,2.54,4.22,1.66,6.39-.55,1.34-1.87,2.3-3.94,2.83a12.27,12.27,0,0,1-5.87-.26c-2.08-.45-3.87-.84-5.79.27-3.75,2.18-4.81,7-5.29,10.48-.18,1.29-.32,2.54-.45,3.77-.54,4.9-1,9.52-3.86,14.3-1.63,2.76-3.46,5.42-5.24,8a99.14,99.14,0,0,0-6.42,10.13.81.81,0,0,0,0,.68.33.33,0,0,0,.25.22c5.84,1.27,11.56,1.3,17.62,1.33l3.16,0a28.34,28.34,0,0,1,16.38,5L265,262.2l-1.88.22a9.1,9.1,0,0,1,1,3l0,.43c0,.88-.6,7.77-2.83,9.25a9.7,9.7,0,0,1-4.31,1.24,24.6,24.6,0,0,0-2.55,2.38c-.44.45-.82.83-1.13,1.11,0,.09-.1.19-.14.29a4.81,4.81,0,0,1-2.32,2.47v0l0,2-.58.23a5.16,5.16,0,0,1-.2.9c-.07.59-.19,2.75-.19,3.72a3.27,3.27,0,0,1-1.18,2.67l-.27.2c1,.42,3.24,1.37,3,4.19a10.54,10.54,0,0,1-.28,1.57c0,.2-.11.48-.13.62s.12.48.18.73a19.23,19.23,0,0,1,.66,3.6l.17,2.5-2.46.48a5.08,5.08,0,0,0-2.07.76c-.53.85-1.64,1.63-3.61,2.55-.12.19-.59,1.21-.37,5l.35,7.83-4.43-4.43-.62,1.94-.52-.1-.33,7.31-2.66-4v1.5l-2.58.22q0,.31,0,.65l.1,2.93-2.91,0A8.24,8.24,0,0,1,228.08,328.52Zm-36.65-4.85c1.05,0,2.17,0,3.19.13,1.28.12,3.52.21,5.89.32,3.48.15,7.41.32,10,.61,2.06.23,4.91.26,7.66.29a48.59,48.59,0,0,1,7.8.42,11,11,0,0,0,2.09.24,5.29,5.29,0,0,0,1.29-.16,2.67,2.67,0,0,1,.63-.09c0-.81,0-1.51,0-2.05v-1.29l2.58-.22V316.2l2.74.35.16,1-1.08.21h.2l.89-.1a1.29,1.29,0,0,0,.14.49h0l.12-1.94,1.23.23c.12-.37.19-.68.26-1l.26-1.1H239a2,2,0,0,1,1.78.62l0-.52c-.27-4.71.33-7,2-7.74,2.1-1,2.4-1.48,2.41-1.5l.17-.27c.3-.37,1.27-1.28,3.75-1.77h0a16.52,16.52,0,0,0-.57-3.08,6.51,6.51,0,0,1-.28-1.36,5.91,5.91,0,0,1,.21-1.36,8,8,0,0,0,.21-1.16c.06-.68-.14-.88-1.31-1.35l-.14-.05c-.27-.12-.48-.19-.68-.27a2.86,2.86,0,0,1-1.17-.62,1.85,1.85,0,0,1-.47-1.19l0-.18c0-.41-.08-.91-.09-1.27l0-1.79,1.75.38c.3.07.4,0,.46,0a.66.66,0,0,0,.13-.47c0-1,.13-3.61.24-4.28l.06-.25a3.83,3.83,0,0,0,.15-.95l.11-1.13.35-.14a6.94,6.94,0,0,1,.14-1.54l.24-1.07,1.1,0c.48,0,.78-.43,1.12-1.14a3.18,3.18,0,0,1,.74-1.12c.24-.2.64-.61,1.05-1,2-2,3-2.89,3.73-3.15l.22-.08h.24a7.33,7.33,0,0,0,3.13-.78c.6-.59,1.55-4.68,1.57-6.84v-.1a7,7,0,0,0-1.23-3,9.61,9.61,0,0,1-.57-1,25.7,25.7,0,0,0-14.08-4l-3.14,0c-6.21,0-12.07-.06-18.2-1.4a3.18,3.18,0,0,1-2.22-1.79,3.61,3.61,0,0,1,.07-3.19,101.17,101.17,0,0,1,6.6-10.43c1.75-2.53,3.55-5.14,5.13-7.81,2.5-4.26,3-8.39,3.48-13.17.14-1.25.28-2.53.46-3.85.56-4,1.86-9.74,6.68-12.54,2.86-1.67,5.49-1.1,7.81-.59a9.75,9.75,0,0,0,4.56.28c1.12-.29,1.84-.7,2-1.16.35-.86-.7-2.59-1.46-3.86-.21-.34-.41-.68-.59-1a14,14,0,0,1-1.71-6.76c-.15-3.94.66-6,3.46-8.67a48,48,0,0,0,4.52-5.3,42.89,42.89,0,0,1,5.75-6.48,11.5,11.5,0,0,1,5.17-2.83,14,14,0,0,1,2.48-.27c1.7-.07,2.11-.09,2.69-2.1a3.6,3.6,0,0,1,1.83-2.16,3.09,3.09,0,0,1,2.49-.17c1.86.69,3.93,1.66,4.87,4.45a5.61,5.61,0,0,1,.23,1.78,3.37,3.37,0,0,0,.07.85c.39,1.07,1,1.27,2.78,1.61l.4.08a25.61,25.61,0,0,0,14.7-1.32c5.26-2.26,10.72-4.3,14.56-2.26a6.84,6.84,0,0,1,3.29,4.26,49.88,49.88,0,0,0,7.23-1.1c-1-3.06-3.3-9.12-5.58-15.18-.75-2-1.34-3.56-1.58-4.23l0-.07c-.63-1.3-6.4-7.61-14.32-15.63l-.29-.29-.09-.4c-6.67-29.9-10.23-45.72-10.58-47.07-.82-.85-12.74-11.49-20.59-18.46v6.11l-1.35.35v3.27l-3.41.07V75.7l-6.75-.14v-2l-6.68.07-.64-4.69-1.63,4.33-9.38-.21,3.55-6.82-11.3-1L240.3,67l-.91.13a22.92,22.92,0,0,1-2.37.2,2.63,2.63,0,0,0-1.8.68l-.16.3h-.13A3.13,3.13,0,0,0,234.2,70l0,.62-.49.39a4,4,0,0,1-1,.55l-1.06.44L231,71a1.73,1.73,0,0,0-.53-.49l-.6-.37-.49-4.71h4L238,56.73,222.9,56.3v1.63l-2.63.07c0,.12,0,.25-.06.39L220,59.66l-1.28-.08L209,58.93l-1-.07-5.26-21.24h-7.6V41.1H187.3v3.41h-4.55v3l-6.9-.22-.34-.24a10.6,10.6,0,0,0-4-1.63,14.14,14.14,0,0,0-1.77-.14,9,9,0,0,1-4.49-1c-4.33-2.76-3-6.57-2-9.36.9-2.56,1.37-4.29.39-6.54h-.08l-5.21,1.5-2.9-5.56a.42.42,0,0,0-.2.19c-3.12,7.58-6,15.48-8.49,23.47l-.34,1.07L145.3,49a16.08,16.08,0,0,0-4.92.59c-.77.21-1.6.42-2.43.6l-.24.05-.25,0c-4.28-.59-5.72-3-6.15-5.08-.22-.37-.39-.72-.56-1.07a6.71,6.71,0,0,0-.71-1.25,9.6,9.6,0,0,0-9.58-3.35l-1.43.31-.26-1.44c-1-5.65-10.53-6-14.56-5.95q-6.63.16-13.27.36l-6.89.19c-1.62,0-3.27.05-4.92.06a80.5,80.5,0,0,0-12.34.67c-9.67,1.56-9.52,9.19-9.35,18,0,.68,0,1.36,0,2L57.73,75c0,.67.06,1.56.12,2.61.33,5.88.87,15.72-3.45,19.36a6.48,6.48,0,0,1-5.91,1.17h-.1a.45.45,0,0,0,0,.26l.79,5.18-2-.36a4.11,4.11,0,0,0-4.44,3,3.58,3.58,0,0,0,2.15,4.56c2.25,1,4.93,0,7.53-1l1.24-.47.62-.25a7.65,7.65,0,0,1,2.75-.74,4.05,4.05,0,0,1,4.17,2.86l.05.21c.24,1.4.44,2.69.59,3.94,0,.25.06.5.08.75l.06.56c.21,2.38.23,4.81.26,7.15l0,2.83-1.28.14-1.4.14v0a2.39,2.39,0,0,1-2.41,1.61c-3.07.13-9.58.67-10.59,1.18-.47.36-.78.7-.71,2.79a38.75,38.75,0,0,1-1.06,7.53l-.17.59-.55.28a4.28,4.28,0,0,1-2.48.47h0l.35,1.1,0,.1c.54,1.69.67,2.09.26,3.27-.09.26-.32.81-.63,1.56l0,.1c-1.48,3.58-4.55,11-5,15.39a11.17,11.17,0,0,0,2,0c7-.3,10,.38,10.44,2.43l0,.05a9.44,9.44,0,0,1,.28,3.18,11.6,11.6,0,0,0,.32,3.65l0,.19a13.49,13.49,0,0,1-.87,6l-.21.29a2.7,2.7,0,0,1-.44.37A2.21,2.21,0,0,0,47,181.2,3.11,3.11,0,0,1,45.14,184l-.41.16-.3-.07a2.86,2.86,0,0,1,0,2.32,2.77,2.77,0,0,1-1.8,1.25c-1.77.57-12.62,1.27-15.07.41h0c-1.68,1.82-2.23,2.57-1.82,3.75l.27.78-.55.62a1.7,1.7,0,0,1-.6.44,2.2,2.2,0,0,1-1.91-.26,5.47,5.47,0,0,0-.88,1.29c-.49.88-1,1.8-2.32,1.55h0c.44,4,.67,5.72,2,6.76l.14.13.23.22-.9,1v0l1.42-.27a1.67,1.67,0,0,1,0,.2l.13.88-.17.1c0,.1,0,.2,0,.31a27.42,27.42,0,0,0-.29,3.46c-.05,1.21-.11,2.46-.28,3.86a23.33,23.33,0,0,0,.5,6.37c.13.76.24,1.4.28,1.87a7.42,7.42,0,0,0,.79,2.24c.1.21.22.47.32.71l.51,1.2L23.3,226c-1.11.59-1.26,1-1.26,1.25v.6l-.43.42a3,3,0,0,1-1.84.8c.2,1.56.53,1.76,1,2.06a3,3,0,0,1,.67.5c1.14,1.14,1.17,2.5.11,4.27l-.07.14c-.67,2-.92,2.61-2.75,3h-.06a.74.74,0,0,0-.53.54,2.63,2.63,0,0,0,.59,1.86,4.63,4.63,0,0,0,.73.4,9.9,9.9,0,0,1,2,1.23c.48.44,1.82.44,3.51.45,1.06,0,2.26,0,3.52.12,2.55.22,9.25.57,12,.71l1.41.07-.35,7.46h.18A2.42,2.42,0,0,1,44.07,253h0c2.77.09,6.53.58,8,1.25l1,.43-.14,1.05c-.31,2.34-1.42,9.82-2,11.91l-.14.45c-.74,2.44-2.12,7-1.92,8.79a16.94,16.94,0,0,1-.14,4h0a2.21,2.21,0,0,1,.83.07l.32.11.24.24a2.06,2.06,0,0,1,.49,1.58l.06,1.1a20,20,0,0,0,.5,4.44,10.12,10.12,0,0,1,.29,2.84v.38l-.19.33c-.08.14-.17.28-.26.4l-.73,1-.54-.29c-.23.75-.68,1.91-1.15,3.14a41.18,41.18,0,0,0-2.4,7.38c-.09.8-.32,2.08-.59,3.56a65.47,65.47,0,0,0-1.32,10c-.08,1.29.15,1.56.42,1.87a2.25,2.25,0,0,1,.57,1.14c1.72-.25,22.47-2.86,26.15-2.34h0l.24-.77c.76-2.5,1.62-5.33,6.43-6.25l.16,0a150.86,150.86,0,0,1,19.53,1.07c1,.18,1.67.32,2.13.43,1,.23,1,.23,1.56-.21,1.26-1,3.91-2.29,5.9-.43h0c1.54-.42,5.92-1.32,7.73-1.69l.17,0a8.55,8.55,0,0,1,4.32-.19h0c2.76-.72,10.61-2.12,11.79-2.33l.17-.05a3.53,3.53,0,0,1,1.17-.23h1.18l.21,1.16a2.6,2.6,0,0,1,0,.4l3.8.15a4,4,0,0,1,1.86.42l.1.06.27.05.29.28a3.58,3.58,0,0,1,.77,1.24l1.3,3.4L140,313h0a8.09,8.09,0,0,1,.8,2.69,2.32,2.32,0,0,0,.7,1.65h0a11.87,11.87,0,0,0,1.79,0c1.2-.1,2-.16,2.89,1l.64,0a14.31,14.31,0,0,1,3.15.32l.48.15.14.22c1.08-1.21,1.72-1.56,2.84-1.56h0l.64-.26c2-.84,2.81-1,3.53-.6l.24.16a10.85,10.85,0,0,1,3.82.92h.06c.34-.11.77-.24,1.09-.32l2.82-.66-1.21,2.63c-.08.19-.2.39-.3.58-.47.85-.53,1.2-.24,1.55h0a2.3,2.3,0,0,0,2-.71l-.3-1.44,1.9.16,2.53.12.47,0c8.63.43,14.5.67,15.15.5l1.89-.75,0,2c0,1.3,0,2.1,0,2.38v0h0C188,323.77,189.59,323.67,191.43,323.67ZM160.08,320h0Zm83.85-10.67h0ZM253.23,280h0ZM44,181.45Zm2.3-15.38v0Zm11.26-40.32h0Zm5,.86v-1.67c0-1.6,0-3.16-.12-4.65l2.81-.36a18.36,18.36,0,0,1,.34,5.1l-.09,1.11Z"/></svg>