<svg id="Layer_1" data-name="Layer 1" xmlns="http://www.w3.org/2000/svg" viewBox="0 0 350 350"><defs><style>.cls-1{fill:#999;}.cls-2{fill:#f90;}</style></defs><title>M</title><path class="cls-1" d="M330.94,116.27a31,31,0,0,0-.14-3.25A31.15,31.15,0,0,1,330.94,116.27Z"/><path class="cls-2" d="M332.36,116.33l-2.83-.11h0c0-.46,0-.94,0-1.44,0-.32,0-.65-.07-1l0-.66,2.83-.19,0,.61c0,.34.05.69.07,1C332.36,115.16,332.38,115.75,332.36,116.33Z"/><path class="cls-1" d="M330.74,111.06c0-.07,0-.14,0-.22S330.74,111,330.74,111.06Z"/><polygon class="cls-2" points="332.16 111.1 329.32 111.03 329.33 110.79 332.16 110.91 332.16 111.1"/><path class="cls-1" d="M330.75,112c0,.08,0,.16,0,.25C330.75,112.18,330.75,112.1,330.75,112Z"/><polygon class="cls-2" points="329.34 112.33 329.33 112.07 332.16 111.97 332.17 112.2 329.34 112.33"/><path class="cls-1" d="M330.84,117.26a7.73,7.73,0,0,0,.1-.91A7.73,7.73,0,0,1,330.84,117.26Z"/><path class="cls-2" d="M332.24,117.49l-2.79-.48a6,6,0,0,0,.08-.74l2.83.13A9.16,9.16,0,0,1,332.24,117.49Z"/><path class="cls-1" d="M330.83,117.33a5.43,5.43,0,0,1-.23.88A5.43,5.43,0,0,0,330.83,117.33Z"/><path class="cls-2" d="M331.94,118.68l-2.67-1a4,4,0,0,0,.16-.65l2.79.5A6.9,6.9,0,0,1,331.94,118.68Z"/><path class="cls-1" d="M25.43,237.87s4.67-1.8,6.11.72c2.64-1,5.39,1.08,6.71,3-.72,1.92-4.91,6.59-4.91,6.59l4.93,4.93a7.21,7.21,0,0,1,.82-.73c1.08-.72.72-4.43.72-4.43s4.55-1.56,8.15-2.52c.84,6.47,4.55,12.35,8.39,14.62s3,6.59,3.6,7.19,6.35,3.84,8.75,6.11,5.51,2.16,5.51-1.32c-3.6-7.55,6.11-4.08,9.23-2.64s6,6.83,9.95,9.35,2,3,6.59,1.08c4.31-6.23,15.5,1.56,19.74,4.83S121.63,290,129,291s5-6.79,6.47-6.79,8.15-7.19,9.51-7.59,4.87,1.52,9.91,1.68,16.3-8.87,20.94-11.59c-1.12-10.87,6.71-9.51,11.19-8.87s6.15-7.67,4.63-7.83c-8.63-3.44-.32-5.91,2.08-7.43-.08-5.35.8-10.87,8.71-16.46,8.15-5.51,13.42,2.32,13.42,2.32,5.75-.4,10.95-7.83,13.42-10.95s1.6-3.76,1.68-5.75c-1.92-6.55.64-7.59,3.76-6.07s2.4,6.15,6.31,9.43,5.27,5.51,6.55,4.39,10.47-7.11,12.94-7.67,9.27.32,9.51,0,6.55-7.19,6.55-7.19a7.32,7.32,0,0,0-2.48-4.23c.8-1,6.79-10.23,8.23-12.7s3.2-4.79,2.72-7.75.72-6.39,8.55-5.19,10.23-.24,12.94-1.52,3.84-8.79,7.51-12.07c5.43,1.12,11.27-.4,11.43-2.08s-3.76-3.44-5-4.71a7,7,0,0,1-1.36-6.27c.64-2.12-1.36-2.28-4.24-.44-3.2,2-1.2-3.36.32-5s1-1.36-1.12-1.2c-6.79,1.2-4.55-3-3.68-6.71s1.12-1.52,1.84-4.63-1.44-8.95,0-8.95,14.94,1.28,17.34-1.28a4.53,4.53,0,0,0,1-1.61c-1.39-3.84-1.88-8.23-2.74-9.82-1.12-2.08-3.2-1.12-3.36-6.07s2.08-6.07,3-9.43,4.15-1.76,7.51-1.28,4-.16,6.87-2.88,1.6-3.84,1.12-6.39-.8-3.68-2.88-5.75-7.19.48-9.59,2.72-4.47,1.12-4.47,1.12,1.44-9.75.8-13.42-.48-5-5.91-7.35c-5.14-2.27-8.14,1.9-13.87,1h0s7.52,2,5.72,9.31c-3,3-8.63,1.08-8.87,6.11,0,0,1.8,9.11,1.32,15.1s-2.28,8-4.55,12-8.75,4.55-8,10.19,4,3.6,1.2,8.63-3.36,5.87-6.83,3.84-5.51-3.48-4.08-8.63a59,59,0,0,1,4.67-10.91s-7.07-1-9.83-3.24-2-3.24-4.43-1.92-4.2,8-4.2,8-.72,4.08,0,4.55,2.28,5.87,2.28,5.87a15,15,0,0,0-8.39-1.37c-4.19.77-7.55,4.48-9,6.76-.12-4-2.28-14.62-2.52-18.94s-5.63-7.31-6.83-9.23c-3.72.24-12.7,4.91-14.86,8.39-2.64-1.44-5.75-11.39-7-17.86-1.32-1.44-18.82,2.4-26.25-1.32-7.07-3.72-12.35-7.67-13.9-.12-2.76,4,.12,6.35,2,9.59s-4,2.88-4,2.88-10.91.84-15.94,1.92C159.55,96.8,154,92,153.67,91.41s-15.1,16.66-17.14,18.1-11.15.24-14.62.24c0,0,.6,5.27-5.51,7.43-3.48,2.52-2.52,3.36-1.8,4.08s2.45,2-.69,2.76-10.22,1-10.22,6.71c.84,3.6.84,7.19-1.2,8.63s-4.91-1-11.27.6c0,0-5.27,4.2-6.83,7.79-.84,1,1.8,2.52,2.88,4s.24,3.6-4.55,3.84-4.91,3.12-3.24,7,4.2,1.08,6.11,4.08,2.76.6,1.92,4.31.24,3.84-1.68,6-3.6.36-4.67,0-5.39,5.87-6.59,7.07-2.16.72-4.08-5-.36-3.6-2.4-4.08-7.19,3.36-7.07,6-.48,2.74-3.48,3.65-1.92,2.58-1.8,3.78-2.64,5-7,2.16a21.68,21.68,0,0,0-9.35-3.24l-7.07,7.67h-4L24.23,200l-7.79,8.63L25.91,218s-2.52-.36-2.88,0-7.55-5.39-8.51-5.39-8.27,10.07-8.27,10.07S19.07,231.28,22.43,234,25.43,237.87,25.43,237.87Z"/><path class="cls-2" d="M130.12,292.46a11,11,0,0,1-1.3-.08c-5-.66-6.19-1.91-7.52-3.89a10,10,0,0,0-2.45-2.71c-6.26-4.84-11.73-7.32-15-6.82a3.82,3.82,0,0,0-2.68,1.67l-.23.34-1.29.55c-2.46,1.05-3.2,1.37-5-.11a18.4,18.4,0,0,0-2-1.47,27.35,27.35,0,0,1-5.53-5.27c-1.52-1.74-2.95-3.39-4.25-4-3.72-1.72-7.33-2.33-7.94-1.71-.08.08-.23.75.58,2.45l.14.29V272a4,4,0,0,1-2.22,4c-1.69.72-3.87.1-5.69-1.63a50,50,0,0,0-6.37-4.5,17.74,17.74,0,0,1-2.4-1.64,3.26,3.26,0,0,1-.7-2.07c-.19-1.53-.44-3.62-2.62-4.91-4.12-2.45-7.61-8.08-8.81-14.05-2.11.61-4.29,1.32-5.53,1.73,0,1.68-.17,3.79-1.42,4.62a6.35,6.35,0,0,0-.62.56l-1,1-6.87-6.87.9-1a46.68,46.68,0,0,0,4.3-5.48c-1.07-1.2-2.9-2.44-4.56-1.83l-1.12.41-.59-1c-.62-1.08-3.26-.52-4.38-.1l-2.79,1.06.84-2.52a9,9,0,0,0-2.45-2.6c-3.27-2.68-15.94-11.22-16.07-11.31L4.24,223l.86-1.19c7.74-10.65,8.67-10.65,9.42-10.65s1.62.48,5.45,3.2l.92.65-6.42-6.33,8.7-9.64,4.57-5.62h4l7.11-7.72.68,0a23,23,0,0,1,10,3.47,3.36,3.36,0,0,0,3.27.6,2.79,2.79,0,0,0,1.47-1.51c0-.14-.06-.29-.09-.44-.25-1.09-.83-3.64,2.9-4.77l.24-.07c2.3-.69,2.3-.69,2.24-2.16-.1-2.29,2.13-4.4,3.09-5.2,1.63-1.35,4-2.64,5.72-2.24a1,1,0,0,0,.28,0,1.56,1.56,0,0,1,1.3.11,1.86,1.86,0,0,1,.83,1.38,35.71,35.71,0,0,0,1,3.48,20,20,0,0,0,1.82,4.38c.33-.36.93-1.12,1.56-1.92,3.4-4.32,4.83-5.91,6.39-5.39a6.16,6.16,0,0,1,1,.48c1.09.6,1.44.74,2.16-.07a2.55,2.55,0,0,0,.93-2.16,17.09,17.09,0,0,1,.43-3.2c.05-.23.18-.78.25-1.18a6.07,6.07,0,0,1-2-2.06c-.54-.85-1-.92-1.93-1.05a4.82,4.82,0,0,1-4.29-3.22c-.82-1.87-1.75-4.59-.47-6.67.86-1.39,2.52-2.15,4.93-2.27s3.43-.78,3.6-1.15c0,0,.08-.17-.11-.42a11.29,11.29,0,0,0-1.25-1.27c-1.09-1-2.88-2.66-1.72-4.27,1.76-3.83,6.95-8,7.17-8.16l.24-.19.3-.07a20.29,20.29,0,0,1,8.21-.32c1.38.18,2.12.26,2.58-.06,1.22-.86,1.46-3.6.64-7.15l0-.32c0-6.1,6.36-7.21,9.78-7.8.57-.1,1.09-.19,1.53-.29l.31-.08-.08-.08-.22-.21a3,3,0,0,1-1.1-2.37c.09-1.21,1-2.37,3.07-3.85l.17-.12.19-.07c5-1.76,4.58-5.89,4.58-5.93l-.18-1.58h1.59c1,0,2.39.09,4,.2,2.84.19,8.75.58,9.81-.18.84-.59,5-5.23,8.38-9,8.57-9.51,8.68-9.5,9.68-9.41l.71.07.39.63a80.25,80.25,0,0,0,10.34,8.09c5.26-1,15.11-1.79,15.55-1.83h.2a6.34,6.34,0,0,0,2.82-.39,1.73,1.73,0,0,0-.17-.35c-.34-.58-.71-1.12-1.08-1.66-1.7-2.5-3.62-5.32-1.07-9.22.56-2.48,1.57-4,3.1-4.73,2.77-1.28,6.16.57,10.46,2.91.75.41,1.53.83,2.33,1.25,4.27,2.14,12.87,1.51,18.56,1.09,5.41-.4,7.16-.47,8.08.52l.27.3.07.4c1.2,6.48,3.64,13.54,5.41,16,3.38-3.58,11.14-7.47,14.92-7.72l.85-.05L246,96a12.61,12.61,0,0,0,1.81,1.81c2.13,1.91,5,4.54,5.24,8.09.11,2,.68,5.61,1.23,9.08.36,2.25.7,4.44.95,6.29a14.77,14.77,0,0,1,7.66-4.52,14.57,14.57,0,0,1,6.42.43,16.41,16.41,0,0,0-1-2.46c-.51-.38-1.26-1.36-.46-5.88l0-.12c.33-1.22,2.1-7.37,4.88-8.91,2.1-1.15,3-1.05,4.42.52a14,14,0,0,0,1.59,1.55c2,1.66,7.26,2.67,9.12,2.92l2.07.28-1,1.82a58,58,0,0,0-4.54,10.59c-1.14,4.1,0,5,3.43,7,1.08.63,1.79.91,2.08.82.64-.18,1.73-2.18,2.79-4.12,1.16-2.11,1-2.27.52-3a9,9,0,0,1-1.89-4.81c-.55-4.33,2.41-6.35,4.79-8a10.7,10.7,0,0,0,3.42-3.09c.36-.62.7-1.19,1-1.74a18.67,18.67,0,0,0,3.34-9.65c.46-5.72-1.28-14.63-1.3-14.71l0-.17V76c.19-4.06,3.3-4.85,5.57-5.42a8.73,8.73,0,0,0,3.43-1.37c1.08-5.56-4.55-7.13-4.8-7.19l-.85-.23-.57-2.86,2,.31a12.24,12.24,0,0,0,5.93-.78c2.46-.77,5-1.56,8.29-.11,5.53,2.44,6,4.12,6.62,7.69l.12.72c.53,3-.23,9.66-.61,12.52a3.45,3.45,0,0,0,1.92-1c2.57-2.4,8.6-5.64,11.56-2.68,2.29,2.3,2.74,3.67,3.27,6.49.09.47.21.89.33,1.31.61,2.13.83,3.83-1.87,6.38l-.08.08c-2.88,2.72-4,3.74-8,3.17-.74-.11-1.44-.25-2.12-.4-3.13-.67-3.5-.48-3.83.67a15.21,15.21,0,0,1-1.47,3.32,9.4,9.4,0,0,0-1.51,5.68c.08,2.59.64,3,1.42,3.56a5.38,5.38,0,0,1,1.77,1.89,19.41,19.41,0,0,1,1.28,4.35,47.39,47.39,0,0,0,1.54,5.66l.17.48-.17.48a5.91,5.91,0,0,1-1.28,2.1c-1.77,1.89-6.71,2.41-17.06,1.79l-.38,0c0,.55.16,1.31.25,1.92a17.13,17.13,0,0,1,.21,5.89,5.34,5.34,0,0,1-1.13,2.67c-.14.17-.33.4-.71,2-.13.53-.28,1.07-.43,1.6-.29,1-.84,3-.5,3.33,0,0,.48.49,3,.05l.14,0,.79-.07c1-.1,2-.2,2.55.81s-.24,1.91-1.06,2.82A8.39,8.39,0,0,0,315,146c2.06-1.14,3.76-1.33,4.84-.52a2.59,2.59,0,0,1,.72,3,5.67,5.67,0,0,0,1,4.89,12.37,12.37,0,0,0,1.64,1.23c1.82,1.24,3.88,2.64,3.69,4.59a2.7,2.7,0,0,1-1.21,1.91c-1.91,1.41-6.51,2.33-11.15,1.56a22.29,22.29,0,0,0-3.32,5.89c-1.2,2.72-2.23,5.07-4.06,5.93l-.45.21c-2.7,1.29-5.49,2.62-13.31,1.42-3.11-.48-5.36-.19-6.34.8a3.06,3.06,0,0,0-.59,2.77c.5,3.06-1,5.53-2.3,7.7l-.59,1c-1.2,2.07-5.69,9-7.59,11.79a9.41,9.41,0,0,1,2,4.2l.12.69-.47.51c-2.35,2.56-6.19,6.75-6.48,7.11-.53.71-1.07.68-4,.51a32.53,32.53,0,0,0-6.29,0c-2.1.47-11,6.23-12.32,7.35-1.87,1.64-3.69-.07-5.61-1.87-.78-.73-1.67-1.57-2.79-2.5a13.72,13.72,0,0,1-3.88-6c-.7-1.75-1.14-2.77-2.14-3.25s-1.82-.55-2-.36c0,0-.89.81.27,4.76l.07.22v.23a8.17,8.17,0,0,0,0,1c.14,1.63.07,2.9-2,5.54l-.77,1c-2.93,3.77-7.83,10.09-13.67,10.5l-.82.06-.46-.68c-.46-.67-4.72-6.49-11.45-1.93-7.59,5.37-8.16,10.49-8.09,15.26v.79l-.67.42c-.48.3-1.12.62-1.8,1-1,.48-3.28,1.61-3.46,2.25h0s.34.67,2.82,1.67a1.93,1.93,0,0,1,1.29,1.16c.72,1.67-.1,5.12-1.72,7.24a5.07,5.07,0,0,1-4.81,2.2l-.29,0c-2.58-.37-6.12-.88-7.94.87-1.22,1.17-1.67,3.35-1.34,6.49l.09.91-.79.46c-1.18.69-2.82,1.82-4.73,3.13-5.63,3.86-12.61,8.66-16.8,8.66h-.17a30.15,30.15,0,0,1-7.21-1.25,10.83,10.83,0,0,0-2.24-.49,38.45,38.45,0,0,0-3.52,3c-2.89,2.65-4.44,4-5.57,4.45,0,.19-.06.43-.08.62C136,288,135.41,292.46,130.12,292.46Zm-25.44-16.4c5.39,0,12.17,4.59,15.9,7.47a12.75,12.75,0,0,1,3.07,3.38c.91,1.36,1.41,2.11,5.51,2.65,3.44.41,3.9-1.19,4.23-3.88.14-1.13.35-2.81,1.89-2.92a37.14,37.14,0,0,0,4.66-3.89c2.68-2.45,3.77-3.4,4.61-3.64s2.17,0,3.8.47a27.31,27.31,0,0,0,6.55,1.15h.1c3.29,0,10.43-4.9,15.17-8.16,1.58-1.08,3-2,4.13-2.77-.22-3.6.54-6.26,2.28-7.93,2.82-2.71,7.33-2.06,10.31-1.63l.29,0a2.11,2.11,0,0,0,2-1,7.46,7.46,0,0,0,1.53-4.29c-1.93-.8-4.29-2.08-4.38-4.13-.09-2.35,2.75-3.75,5-4.87l.87-.43c0-5.44,1.4-11.2,9.31-16.79a10.93,10.93,0,0,1,8.36-2.05,11.81,11.81,0,0,1,6.51,4c4.33-.83,8.57-6.3,10.91-9.31l.79-1c1.55-2,1.51-2.52,1.42-3.54a11.53,11.53,0,0,1-.05-1.15c-1.07-3.76-.84-6.22.68-7.51.71-.59,2.31-1.39,5.12,0,2,1,2.8,2.91,3.53,4.75a11.06,11.06,0,0,0,3.07,4.86c1.18,1,2.14,1.89,2.91,2.61a16.62,16.62,0,0,0,2,1.68c1.74-1.39,10.68-7.24,13.42-7.86a31.92,31.92,0,0,1,7.07-.06c.71,0,1.55.09,2,.1,1-1.17,3.74-4.11,5.69-6.24a5.33,5.33,0,0,0-1.74-2.69l-1.19-.85.89-1.16c.72-.93,6.68-10.05,8.13-12.55l.61-1c1.21-2,2.26-3.74,1.93-5.78a5.78,5.78,0,0,1,1.38-5.22c1.68-1.7,4.63-2.24,8.78-1.61,7,1.07,9.24,0,11.66-1.18l.46-.22c.87-.41,1.83-2.59,2.67-4.51,1.13-2.57,2.41-5.48,4.5-7.33l.53-.47.7.14c4.45.92,8.74-.15,9.67-.92a14.49,14.49,0,0,0-2.41-1.87,13.23,13.23,0,0,1-2.11-1.64,8.43,8.43,0,0,1-1.74-7.47,7.47,7.47,0,0,0-2.06,1c-1.92,1.2-2.95.5-3.38,0-1.16-1.38-.07-4.12,1-5.85-1.58.17-3.39.09-4.47-1.11-1.39-1.54-.75-3.81-.13-6,.14-.49.28-1,.4-1.48.5-2.07.85-2.61,1.3-3.15.12-.15.26-.31.53-1.48a15.75,15.75,0,0,0-.25-4.84c-.32-2.21-.54-3.67.25-4.58a1.79,1.79,0,0,1,1.38-.62c.23,0,.75,0,1.48.07,11.52.68,14.24-.27,14.83-.9a3.08,3.08,0,0,0,.49-.69,54,54,0,0,1-1.45-5.46,19.81,19.81,0,0,0-1-3.63,2.71,2.71,0,0,0-.94-.94c-1.34-1-2.47-2.09-2.59-5.76A12.19,12.19,0,0,1,325,95.22a12.55,12.55,0,0,0,1.23-2.72c1.13-3.94,4.6-3.2,7.14-2.66.63.14,1.29.28,1.93.37,2.65.38,2.87.17,5.62-2.43l.08-.08c1.65-1.56,1.52-2,1.09-3.54-.13-.45-.28-1-.39-1.56-.44-2.36-.67-3.2-2.49-5-1.14-1.14-5.33.61-7.62,2.75-3.11,2.9-6,1.39-6.11,1.33l-.87-.47.14-1c.39-2.65,1.3-10.14.8-13l-.12-.74c-.49-2.94-.61-3.64-5-5.56-2.32-1-4.08-.47-6.3.22-.69.21-1.41.44-2.18.62a8.34,8.34,0,0,1,2.27,8.51l-.09.38-.28.28a10.1,10.1,0,0,1-5,2.37c-2.45.62-3.3,1-3.42,2.64.26,1.36,1.76,9.59,1.31,15.31A21.21,21.21,0,0,1,303,102.17c-.32.53-.66,1.09-1,1.69a13.13,13.13,0,0,1-4.27,4c-2.5,1.71-3.9,2.8-3.58,5.29a6.28,6.28,0,0,0,1.35,3.48c1.21,1.63,1.44,2.82-.31,6s-2.73,5-4.53,5.49c-1.34.37-2.67-.17-4.27-1.11-3.81-2.24-6.38-4.28-4.72-10.23a55,55,0,0,1,3.87-9.46c-2.44-.47-6.45-1.47-8.56-3.21a16.77,16.77,0,0,1-1.89-1.84l-.26-.28c-.14.06-.35.17-.69.35-1.26.69-2.82,4.62-3.49,7.1a15.1,15.1,0,0,0-.27,3.35c.45.5,1.21,1.85,2.52,6.38l.91,3.14-2.91-1.48a13.63,13.63,0,0,0-7.49-1.24c-3.73.68-6.81,4.17-8,6.13l-2.48,3.92L252.7,125c-.06-2-.67-5.81-1.26-9.53s-1.14-7.21-1.26-9.37c-.13-2.39-2.45-4.47-4.31-6.14a23.42,23.42,0,0,1-1.73-1.66c-3.73.7-11.29,4.82-13,7.63l-.71,1.14-1.18-.64c-3.57-1.95-6.51-13.16-7.5-18-1.11-.08-3.56.1-5.6.25-6.36.46-15.07,1.1-20.06-1.4-.84-.44-1.63-.87-2.39-1.29-3.31-1.81-6.44-3.51-7.91-2.83-.7.33-1.23,1.34-1.58,3l-.06.29-.17.24c-1.61,2.32-.84,3.66.92,6.25.39.57.79,1.17,1.17,1.81a3,3,0,0,1,.21,3.24c-1.12,1.83-4.27,1.84-5.37,1.78s-11,.89-15.66,1.88l-.57.12-.49-.32a89.76,89.76,0,0,1-10.62-8.16c-1.53,1.53-4.82,5.18-7.35,8-4.83,5.35-7.83,8.66-8.85,9.38-1.75,1.23-5.93,1.06-11.63.69l-2.43-.15a9,9,0,0,1-6.21,7.24,6.5,6.5,0,0,0-1.69,1.58l.18.19.22.21c.58.56,1.67,1.59,1.29,2.94s-1.8,1.79-2.85,2c-.48.11-1.06.21-1.68.32-4,.7-7.34,1.55-7.43,4.86,1.09,4.82.45,8.35-1.8,9.94-1.39,1-2.87.78-4.58.56a17.64,17.64,0,0,0-6.86.19c-1,.83-4.82,4.12-6.11,6.9a13.58,13.58,0,0,0,1,1,13,13,0,0,1,1.59,1.65,3.21,3.21,0,0,1,.41,3.33c-.54,1.16-2,2.58-6,2.78-1,0-2.24.25-2.66.93-.24.39-.48,1.44.66,4a2.07,2.07,0,0,0,2.1,1.55,4.87,4.87,0,0,1,3.91,2.33A3.06,3.06,0,0,0,88,167.07c1.59.87,1.32,2.09.86,4.12a14.26,14.26,0,0,0-.36,2.72,5.19,5.19,0,0,1-1.64,3.9c-2.26,2.54-4.64,1.23-5.65.67l-.14-.08a41.07,41.07,0,0,0-3.66,4.26c-.81,1-1.46,1.85-1.88,2.27a2.57,2.57,0,0,1-2.46.89c-1.46-.34-2.46-2-4-6.48-.48-1.45-.75-2.42-.92-3.06l-.46-.08a6.27,6.27,0,0,0-3.4,1.78c-1.36,1.17-1.95,2.25-1.93,2.77.16,3.52-1.19,4.08-4.25,5l-.23.07c-1.2.36-1.18.44-1,1.43a7.14,7.14,0,0,1,.16.85c.13,1.3-1,3.06-2.53,4-1.15.69-3.54,1.54-6.61-.51a20.14,20.14,0,0,0-8-2.93l-7,7.6H29.1l-3.77,4.63-6.93,7.68L30,220l-4.25-.61a12.87,12.87,0,0,0-2-.14c-.92.61-2-.15-5.39-2.56-1.15-.82-2.77-2-3.63-2.48-1.15,1.16-3.92,4.7-6.43,8.1,3.31,2.24,12.28,8.35,15.07,10.64a13.42,13.42,0,0,1,3,3.17c1.87-.44,4.26-.5,5.74.88,2.93-.46,5.79,1.52,7.35,3.79l.42.61-.26.69c-.6,1.59-2.93,4.44-4.3,6l3,3a9.83,9.83,0,0,0,.13-3L38.29,247l1.06-.36c.19-.06,4.64-1.58,8.24-2.54l1.56-.42.21,1.6c.83,6.41,4.51,11.69,7.71,13.59,3.37,2,3.77,5.25,4,7,0,.17,0,.38.07.54.35.24,1.08.7,1.74,1.12a50.57,50.57,0,0,1,6.81,4.84c1,1,2.12,1.3,2.62,1.08s.46-.69.49-1.08c-1.07-2.39-1-4.19.11-5.34,2.53-2.56,9.17.22,11.14,1.13s3.48,2.72,5.2,4.7a25,25,0,0,0,4.91,4.74,21.09,21.09,0,0,1,2.29,1.67l.42.34a17.64,17.64,0,0,0,1.65-.65l.56-.24a6.57,6.57,0,0,1,4.33-2.51A8.39,8.39,0,0,1,104.68,276.06Zm30.77,6.7h0Zm-74.29-16.2ZM24,237.86ZM24,219h0ZM269,210.83l-.09.1Zm48.89-63.49Zm-4.14-.69Zm-199.2-24.34h0ZM222.2,88.5Z"/></svg>