<svg id="Layer_1" data-name="Layer 1" xmlns="http://www.w3.org/2000/svg" viewBox="0 0 350 350"><defs><style>.cls-1{fill:#999;}.cls-2{fill:#f90;}</style></defs><title>M</title><path class="cls-1" d="M342.1,214l-16,5.06,1.75,11.68H325v5.64c0,1.36,2.53,8.17,3.7,9.15s3.65,9,3.65,9l-1.51,3.31s-3.11-3.5-2.14,2.14c-3.31,2.34-9,1-12.07-2.92s-10.51-11.68-10.51-11.68-3.31.19-3.89.78-2.92.39-2.92,1-1.95,1.75-2.53,1.75-2.34-.78-3.11-.78-3.31-.58-3.89-.19-5.84,1.95-5.84,1.95v1.75L289,262.89a7.35,7.35,0,0,1-3.31,2.53c-2.14.78-3.89,1.36-3.89,1.36l-3.11,3.31s-8.76-.19-9.73,0a5.35,5.35,0,0,0-2.14,1.56L264.44,275s0,1-1.36,1.95-3.7,1.75-3.89,2.53-.58,2.14-1.75,2.14-10.7,1.36-11.29,1.36-2.72-3.7-5.45,0a17.85,17.85,0,0,0-5.45,2.72h-5.06a11.68,11.68,0,0,0-3.11-1c-2.53-.58-3.5-.78-3.5-.78s-2.14-4.67-4.87-7-7.2.78-7.2.78l-1.75-2.53s-43,7-47.1,5.64c-.58-4.09-1.95-4.67-4.87-4.87s-4.09-.78-4.67-.39,0-.58-.58.39,1.75,2.72,0,4.28-3.89,3.5-3.89,3.5l2.14,4.28s-11.09,3.31-13.24,3.7-11.48,1.56-12.26,1.17-3.7-1.56-3.7-1.56,1.17-7.79,2.34-7S129.36,288,134,287s6.42-1.36,6.23-2.14-3.5-3.89-2.34-5.45a16,16,0,0,1,3.7-3.7c.58-.19-.58-.78,1.75-2.34a41.26,41.26,0,0,0,3.89-2.92,8.83,8.83,0,0,0,1.75-1c.78-.58,0-2.53,0-2.53s3.31-3.11-.39-4.09l-3.89-1,.78-3.11s1.75-.78,5.06.58,1-2.14.78-4.28a5,5,0,0,0-4.67-4.48c-2.72-.19-5.38-1.95-4.8-4.41s2.4-1.69,2.85-3,1.23-3.31,2.34-1.75,1.36,1.75,2.4.52,2.47-2.4,3.18-.39,2.21,2.34,3,1.43,2.47-2.92,3.18-2.08,2.27,4.93,3.44,4,.78-4.54,3.37-2.72,2.72.84,4,.06a6.11,6.11,0,0,0,2.47-2.66c.71-1.3.39-1.88-1.1-2.6a12.66,12.66,0,0,1-3.24-2.92s5.71,2.79,5.06.58-2.92-1.49-1.56-3.44,3.57-2.53,1.82-3.76-4-1.69-1.49-2,3.7-.06,5.45-1.1,3.18-1.82,1.69-3.89a4.13,4.13,0,0,0-3.63-1.82l-4.18-3.41s4.38-1.85,3-3.11-.58-4.09-2.53-3.41-1.95,1.36-1.95.68,2.72-1.85,1.17-3.5-2.72-2.43-3.89-2,2.34-3-.39-5.55-5.45-2.92-3.21-4.67,3.5-3.8.88-5.74c-3.21-.1-4.28,1.36-4.28,1.36s-2-1.85-3.5-.68-2.53,1.95-2.53,1.95a4.54,4.54,0,0,0-5-1.75c-3.11,1-.88,2.14-5.35,2.72s-1.75,4.28-5.06,1.75-1.56-3.6-5.16-4.09-6.91-.88-7.3-.88-4,.49-2.92,2.24,1.27,3.5-.1,5-1.46.78-3.41,2.53-.78,3.5-4.09,2.34c-2.43-3.11-3.56-.29-5.33.1a22.11,22.11,0,0,0-4.69,1.46c-.88.49-2.51,1-3.49,2s-2.34,0-3.22,1.07-1.17-2.72-3.21-1.27a8.94,8.94,0,0,1-3.21,1.65,2,2,0,0,1-1.95.29c-1.27-.39-4,1.95-4.48,2.53a7.76,7.76,0,0,0-1.85,2.63c-.88,1.85-.88,2.72-2.63,4.09s-6.13-1.07-8.27-2.34a8.37,8.37,0,0,0-5.06-1.56c-2.24-.1-2.53.1-3.7,1.56s-1.95,1.36-8.76-2.82S6.25,185.42,6.25,185.42s1.95-1,0-3.6c2.72-1.56,3.41-.88,5.35-1.36s5.06-1.07,2.34-5c.68-2.14.88-3,2.82-3.8s2.53-1.75,2.82-2.82.58-2.43.19-2.92a28.81,28.81,0,0,1-2.43-6.42c-.29-1.75-1-3.7-1.36-5.45s.49-2.43-.19-4.18a2.47,2.47,0,0,1,.68-2.82l4.38-1s.77,3.31,3.16,1.36,4.92-4.87,5.21-5,3.21,1.75,4.57.58,2.34-1.17,1.85-2.92.19-2.43,0-3.89a12.42,12.42,0,0,1,.1-3.8c.19-1.46,0-3.41.19-5.35s.39-1.95.68-3.89-.19-1.46.49-2.92,1.95-5.35,2.34-6,.88-2.14,1.17-2.24,3.5.29,5.16,0,2,.1,3.41-.49,3.11.49,3.7,0,3.41-9.05,3.89-12.94l.49-3.89s-1.27-.78,0-3.5-1.27-3-1.17-6.91.78-5.84.1-8.27-1.95-6.33-2.82-7.2-3.6-3.8-3.6-3.8l-1.56-1.85s.39-2.82,2-2.63,3.7,1.27,4.77,1.07,1.75-2.43,3.41-1.75,5.35,2.53,6,2.92,5.84.78,7.2.68,4.57-.68,4.57.19,2.92,4.18,4,4.18,2-1.17,3.21.58,2.14,4.48,4.38,4.09,3.89.29,4.38-1.07-.19-3.11,1.17-3.89a3.22,3.22,0,0,1,3.31-.39c1.17.49.39-.68,2-1s.78,0,2.34,3.21,1.17,3.7,1.85,5,.39,2,2,2a19,19,0,0,0,2.34-.1s.72-8.08,2.75-10,1.44-1.95,2.51-2.14A7.42,7.42,0,0,0,117,61.83c1.36-1.65,3.21-3.6,4.48-4.18l1.27-.58h.39s3.6,3.7,4.57,3.11S131.3,58.42,132,59s1.27,2.92,1.27,2.92,0,3.89,2.34,5.74,3.41,2.82,4.67,3.8,2.43,6.33,2.72,6.71,11,.39,11,.39a51.15,51.15,0,0,0,6.52-.68c1.07-.39,7.69-4.77,9.05-2.14s4.28,6.42,4.62,7.88,1.7,7.1,2.09,8.47S180.64,101,181,101s5.06,0,7.1-.68,3.5-.78,4.28.1,1.46,5,1.75,6.33,1.17,1.75,0,2.43-3.21,1.17-4.18,2.34-2.24,1.56-1.95,3.41.88,2.53,1.85,4.38,3.6,7.3,5.26,9.15a20.61,20.61,0,0,0,5.35,4.09c1.46.78,3.41,2.43,4.67,1s1-2.82,2.14-2.82,3,4.28,5.26,5.26,5,3.11,6.33,1.56,1.27-2.63,1.65-4.67.19-3.11.49-5.45-.1-1.85,1.75-4.18,2.72-4.87,4.87-5.55,4.09-.88,5.64-1.85,2.92-1.95,2.24-1.46-2.53,7.88-3.21,10.51a47.56,47.56,0,0,1-2.14,5.94,5.9,5.9,0,0,0-2.14,3c-.29,1.65-.19,3.5.19,3.6s2.43.29,2.34,1.36-.29,2.34-.29,3.11-3.41,3.41.19,2,4.67-2.43,5.45-3.21,2-.68,1.65-3a10.7,10.7,0,0,0-1.07-3.31,19.17,19.17,0,0,0,2.72,1.46,2.24,2.24,0,0,0-.29,2.92c1.17,1.46,3.41,3.8,3.89,1.75s.29-2.53,1.75-2.53,3.8-.19,3.5-1.75,2.34,0,2.34-1.95-1.46-4.77.1-4.87,0,2.43,1.17,4.38,1.85,1.65,2.72,3.41,2.92,5.26,4.28,6.33,1.27,3.89,3.11,2.34,1.75-2.14,2.43-2.14,1.46,1.27,2,1.65,1.75.29,3.11-.68,2.43.19,2.82.19.68-1.85,1.17-1.17,7.1,3.89,8.27,4.67a17.77,17.77,0,0,0,4.18,1.46,30.88,30.88,0,0,1,5.35,3.89c1.95,1.95,3,1.65,4.18,3s3.6,3.5,2.63,4.57-.58,1-2.53,1.27-3.7.58-5.35,1a35.24,35.24,0,0,0-4.87,2c-1.07.43-2.82.72-3.7,2s-2.53,1.75-2.43,2.43,1.27,1.46,2.72,2,2.72-.1,3.31.68.58,1.46,1.85,1.75,2.82,0,3.5.57-.39,1.37,1.56,2.25,1.65,1.17,3.41,1.27,3-.19,3.5.1-.19,2.53.68,4.18,2.24,1.75,2.72,2.63,2.92,1.17.1,2.53-4.87,1.95-5,2.63-1.95,1.07,1.95,1.95,7.49,1.65,7.88,2.53,2.72,1.27,2,2.53-1.27.58-1.65,2.14-1.85,1.95.49,1.95,3.6-.58,4.18.29a7.83,7.83,0,0,1,.78,2.72s1.95-1.95,4.18-1.56,3.6-.19,4.48,1.85.49,3.7,1.95,3.89a5.33,5.33,0,0,0,4.09-.49c2.14-1,3.69-1.95,4.43-1.75s1.61-.1,2.39.49a16.89,16.89,0,0,0,4.09,2.92c2.53,1.27,5,2.63,5,2.63Z"/><path class="cls-2" d="M126.28,294.32a4.45,4.45,0,0,1-1.64-.19c-.6-.3-2.79-1.19-3.59-1.51l-1-.42.17-1.11c1.1-7.33,2.35-7.89,2.88-8.12a1.71,1.71,0,0,1,1.65.14c3.35,2.24,6.38,3.07,9,2.52,1.77-.37,3.59-.75,4.63-1.05l0,0c-1.21-1.6-3-4-1.57-6a21.8,21.8,0,0,1,3.67-3.8,4.24,4.24,0,0,1,2.13-2.56,40.26,40.26,0,0,0,3.75-2.81l.18-.16.22-.09a7.83,7.83,0,0,0,1.21-.63,4,4,0,0,0-.25-1l-.35-.89.7-.66a3.16,3.16,0,0,0,.92-1.42,3.77,3.77,0,0,0-.7-.27L143,262.95l1.29-5.16.63-.28c.23-.1,2.22-.91,5.68.37l-.08-.25a11.57,11.57,0,0,1-.59-2.4,3.57,3.57,0,0,0-3.36-3.19,7.35,7.35,0,0,1-5.35-2.63,4.17,4.17,0,0,1-.73-3.52,4,4,0,0,1,2.59-3l.32-.15c.4-1.14,1.07-3,2.59-3.19a2.27,2.27,0,0,1,2.22,1.14l.24.33c.81-1,2-2.12,3.49-1.85a2.69,2.69,0,0,1,2,2c.27.75.6,1,.67,1l.31-.36c1.24-1.37,2.26-2.46,3.52-2.4a2,2,0,0,1,1.48.7,9.81,9.81,0,0,1,.94,1.55c.21.38.54,1,.86,1.5l0-.12a3.51,3.51,0,0,1,2-2.52,3.19,3.19,0,0,1,2.73.65,3.82,3.82,0,0,0,1.42.78s.14-.14.26-.23a8,8,0,0,1,.71-.52,4.76,4.76,0,0,0,2-2.14,2.73,2.73,0,0,0,.14-.29,4.24,4.24,0,0,0-.62-.34,13.57,13.57,0,0,1-3.74-3.32l-3.89-4.9,5.62,2.74c.48.23,1,.46,1.48.65a2,2,0,0,1-.41-.9,2.87,2.87,0,0,1,.65-2.15,10.69,10.69,0,0,1,1.68-1.81l.19-.18c-.38-.24-.79-.45-1.16-.64-.92-.48-2-1-1.75-2.23s1.55-1.41,2.34-1.51,1.35-.14,1.91-.18a5.92,5.92,0,0,0,3-.73l.12-.07a5.57,5.57,0,0,0,1.51-1.08h0a1.73,1.73,0,0,0-.36-.69,2.72,2.72,0,0,0-2.31-1.24l-.6.07-6.48-5.27,2.17-.92a10.38,10.38,0,0,0,2.18-1.24,6,6,0,0,1-.92-2.23l-.07-.28a4.56,4.56,0,0,0-1,.55,1.57,1.57,0,0,1-1.68.2,1.59,1.59,0,0,1-.8-1.54,2.56,2.56,0,0,1,1-1.81,4.63,4.63,0,0,0,.59-.64l-.07-.08c-1.18-1.25-2-1.81-2.41-1.67a1.58,1.58,0,0,1-1.73-.39,1.94,1.94,0,0,1,0-2.25c.67-1.47.84-2.37-.05-3.21a18.45,18.45,0,0,0-2.22-1.71c-1.19-.82-2.23-1.52-2.27-2.79a3,3,0,0,1,1.37-2.33c1.64-1.28,1.81-2,1.8-2.3a1.43,1.43,0,0,0-.56-.91,3.68,3.68,0,0,0-2.67.83l-.93,1.27-1.13-1.1c-.34-.3-1.31-.91-1.67-.63-1.47,1.17-2.54,2-2.58,2l-1.18.86-.82-1.21a3.07,3.07,0,0,0-3.37-1.19c-.91.29-1.07.49-1.3.81-.77,1-1.65,1.62-4.29,2-1.42.18-1.61.64-1.84,1.18a2.15,2.15,0,0,1-1.38,1.4c-1,.26-1.89-.35-2.88-1.11a9.51,9.51,0,0,1-2.61-2.87c-.39-.63-.46-.75-1.87-.94-3.7-.5-6.74-.85-7.13-.86a5.66,5.66,0,0,0-1.52.38c1.79,3.2.5,5.35-.45,6.37A6.08,6.08,0,0,1,122,198a6.85,6.85,0,0,0-1.63,1.17,3.78,3.78,0,0,0-.89,1.27c-.93,1.87-2.14,2.22-4.61,1.35l-.39-.14-.25-.33c-.88-1.13-1-1.08-1.94-.38a5.42,5.42,0,0,1-2,1,21.09,21.09,0,0,0-4.31,1.32c-.27.15-.62.31-1,.47a6.7,6.7,0,0,0-2.15,1.29,3.34,3.34,0,0,1-2.69,1,2.53,2.53,0,0,0-.5,0,1.71,1.71,0,0,1-1.47.7,2.33,2.33,0,0,1-1.76-1.31c-.07-.11-.17-.26-.26-.38a11.66,11.66,0,0,1-3.39,1.79,3.42,3.42,0,0,1-2.91.36,8.46,8.46,0,0,0-3,2.06c-.14.17-.28.31-.43.46a5.54,5.54,0,0,0-1.23,1.86c-.19.41-.34.77-.48,1.09a7.23,7.23,0,0,1-2.56,3.51c-2.33,1.81-6.49-.24-9.86-2.23a7,7,0,0,0-4.4-1.36c-1.65-.07-1.65-.07-2.53,1-2.15,2.69-4.46,1.28-10.61-2.5C48.08,207,6.06,186.9,5.64,186.7L3,185.45l2.59-1.3s.06,0,.08-.16a2.14,2.14,0,0,0-.58-1.33l-1-1.28,1.39-.79a8.44,8.44,0,0,1,4.29-1.32,7,7,0,0,0,1.42-.19l.23-.06c.58-.14,1.94-.48,2.08-.85.06-.16,0-.76-.8-1.86l-.4-.57.3-1c.65-2,1.08-3.4,3.55-4.39,1.52-.61,1.81-1.24,2-1.88a6.62,6.62,0,0,0,.33-1.84,30.28,30.28,0,0,1-2.6-6.9,31,31,0,0,0-.74-3c-.22-.79-.44-1.58-.61-2.33a6.18,6.18,0,0,1,0-2.43,2.53,2.53,0,0,0-.1-1.54A3.9,3.9,0,0,1,15.59,146l.25-.2,6.06-1.35.32,1.37a2,2,0,0,0,.47.9s.14-.09.42-.31A49.57,49.57,0,0,0,27,142.68c1.1-1.14,1.34-1.37,1.77-1.52a2.26,2.26,0,0,1,1.7.27c1.92.81,2.33.65,2.41.58a12.3,12.3,0,0,1,1-.78c.15-.11.35-.24.45-.33a2.06,2.06,0,0,0-.07-.35,6.16,6.16,0,0,1-.1-2.91,3.74,3.74,0,0,0,.07-1.18,13.76,13.76,0,0,1,.1-4.17,19,19,0,0,0,.08-2.31c0-.92,0-2,.1-3a15.83,15.83,0,0,1,.37-2.3c.1-.42.2-.86.32-1.66a6,6,0,0,0,.09-1.22,3.89,3.89,0,0,1,.52-2.09c.32-.68.81-2,1.25-3.25a25.55,25.55,0,0,1,1.14-2.88c.13-.22.26-.54.4-.85.47-1.07.77-1.77,1.56-2a4.71,4.71,0,0,1,1.73,0,20.28,20.28,0,0,0,3.63,0,10,10,0,0,1,1.78-.15,2.74,2.74,0,0,0,1.32-.24,5.19,5.19,0,0,1,3.15-.09l.23,0a63.45,63.45,0,0,0,3.36-11.77l.41-3.27c-.5-.78-.89-2.21.2-4.55.38-.81.25-1-.2-1.93a8.24,8.24,0,0,1-1.1-4.42c0-1.42.15-2.58.24-3.6a11.09,11.09,0,0,0-.09-4.25c-1-3.54-2-6.12-2.46-6.58-.88-.88-3.52-3.71-3.63-3.83l-2-2.39.09-.62c.29-2.09,1.52-4.09,3.61-3.84A14.17,14.17,0,0,1,53,59.8a9.46,9.46,0,0,0,1.72.44,5.69,5.69,0,0,0,.43-.42c.62-.66,1.92-2,3.84-1.25,1.67.69,5.25,2.48,6.13,3a36,36,0,0,0,6.46.54l1-.1c2.26-.26,3.7-.35,4.55.41a1.72,1.72,0,0,1,.57,1.13,10,10,0,0,0,2.69,2.92l.37-.11a3,3,0,0,1,3.92,1.34c.25.37.49.78.73,1.2,1,1.71,1.52,2.41,2.23,2.28A13.85,13.85,0,0,1,89.85,71a7.62,7.62,0,0,0,1-.05A5,5,0,0,0,91,69.83a3.74,3.74,0,0,1,1.66-3.49,4.65,4.65,0,0,1,4.06-.65,3,3,0,0,1,1.75-.88c1.73-.31,2.45.12,3,1.75a15,15,0,0,0,.89,2.24,17.83,17.83,0,0,1,1.44,3.82,4.16,4.16,0,0,0,.38,1.09,8.06,8.06,0,0,1,.47,1.06l.08.23h.25L106,75c.31-2.59,1.15-7.89,3-9.71a16.83,16.83,0,0,0,1.33-1.42,2.61,2.61,0,0,1,1.9-1.1,5.83,5.83,0,0,0,3.64-1.84c1.13-1.37,3.27-3.78,5-4.57l1.55-.71h1.3l.42.43a16.91,16.91,0,0,0,3.2,2.67c1.1-.6,4.11-2.06,5.56-.82.89.76,1.46,2.62,1.72,3.65l0,.34c0,.89.34,3.47,1.8,4.63,1.23,1,2.11,1.7,2.85,2.32s1.21,1,1.81,1.47c1.16.89,1.93,3.25,2.75,6l.17.59c1.64.14,6,.21,9.94.21a47.12,47.12,0,0,0,6-.6c.13,0,.59-.3,1-.5,2.91-1.58,5.94-3.07,8.09-2.4a2.86,2.86,0,0,1,1.74,1.44c.55,1.07,1.4,2.37,2.22,3.63a18.51,18.51,0,0,1,2.53,4.58c.36,1.54,1.7,7.08,2.07,8.4a68.54,68.54,0,0,0,4.07,7.82,25.79,25.79,0,0,0,6-.6c1.92-.64,4.31-1.16,5.79.5.77.86,1.24,2.73,1.91,6.11.07.34.12.64.17.86a3.58,3.58,0,0,0,.28.76,2.2,2.2,0,0,1-.95,3.19,13.45,13.45,0,0,1-1.55.73,6.58,6.58,0,0,0-2.26,1.29,9.45,9.45,0,0,1-.94.95c-.7.64-.79.75-.7,1.33a7.32,7.32,0,0,0,1.11,2.85c.18.32.38.68.6,1.09l.65,1.26c1.11,2.17,3.16,6.21,4.41,7.6a19.41,19.41,0,0,0,5,3.78c.28.15.58.33.88.51.95.57,1.81,1.06,2.05.78a4.63,4.63,0,0,0,.77-1.34,2.59,2.59,0,0,1,2.44-2c1.26,0,2.11,1.15,3.19,2.6a9.34,9.34,0,0,0,2.63,2.77c.57.25,1.16.56,1.73.86.86.46,2.66,1.42,3,1.06a4.59,4.59,0,0,0,1.14-2.87c.06-.35.11-.72.19-1.13a17,17,0,0,0,.27-2.69c0-.74.07-1.58.2-2.67,0-.39.08-.7.1-1,.16-1.68.36-1.94,1.95-3.94.53-.67,1-1.37,1.42-2,1.11-1.72,2.16-3.34,4.13-4,.76-.24,1.47-.42,2.16-.59a11.15,11.15,0,0,0,3.17-1.11c1-.63,1.94-1.27,2.26-1.48a1.45,1.45,0,0,1,2.08.28,1.41,1.41,0,0,1-.33,1.95,89.87,89.87,0,0,0-2.64,9.05l-.21.8a48.51,48.51,0,0,1-2.22,6.15l-.15.34-.3.22a4.48,4.48,0,0,0-1.59,2.12,9.65,9.65,0,0,0-.14,2.13c1.9.46,2.8,1.38,2.68,2.72,0,.39-.08.79-.13,1.2-.08.67-.16,1.36-.16,1.79h0a9.63,9.63,0,0,0,3.22-2.17,4.73,4.73,0,0,1,.91-.68,2.11,2.11,0,0,0,.36-.25,1.65,1.65,0,0,0,0-.85,9.24,9.24,0,0,0-.93-2.88l-.66-1.19,2.32-1.44.66,1c.38.23,1.41.75,2.26,1.14l1.84.85-1.44,1.44c-.2.21-.5.64-.19,1a11.85,11.85,0,0,0,1.55,1.65l0-.21c.27-1.29.57-2.75,2.94-2.75a5.64,5.64,0,0,0,2.08-.27,2,2,0,0,1,.37-1.49,2.45,2.45,0,0,1,1.91-.82h0a12.44,12.44,0,0,0-.29-1.58c-.3-1.35-.59-2.63.14-3.59a2.11,2.11,0,0,1,1.59-.82,2,2,0,0,1,1.63.56,3,3,0,0,1,.59,2.48,3.59,3.59,0,0,0,.25,2,5.44,5.44,0,0,0,1.19,1.44,6.28,6.28,0,0,1,1.59,2.06c1,1.93,2.85,5,3.89,5.85a5.53,5.53,0,0,1,1.46,2l.07.14a10.69,10.69,0,0,0,1.22-1.24,2.36,2.36,0,0,1,1.92-1.06,3.43,3.43,0,0,1,2.38,1.44,5.27,5.27,0,0,0,.45.46,3,3,0,0,0,1.5-.66,3.22,3.22,0,0,1,3.1-.44,1.76,1.76,0,0,1,1.35-.94,1.62,1.62,0,0,1,1.44.64c.55.44,3.17,1.82,4.75,2.65s2.75,1.45,3.23,1.77a15.69,15.69,0,0,0,3.71,1.25l.21,0,.18.11a32,32,0,0,1,5.65,4.12,7.4,7.4,0,0,0,2.14,1.52,6.31,6.31,0,0,1,2.12,1.57c.2.24.45.5.7.77,1.42,1.53,3.57,3.84,1.9,5.68l-.34.38c-.83,1-1.23,1.06-2.81,1.3l-.23,0c-1.71.26-3.53.55-5.24,1a19.48,19.48,0,0,0-3.36,1.35c-.51.24-1,.45-1.3.59s-.57.21-.89.31a4.3,4.3,0,0,0-2.17,1.17A6.91,6.91,0,0,1,281,170a8,8,0,0,0,1.4.7,3.56,3.56,0,0,0,1.33.17,2.91,2.91,0,0,1,2.59,1,6.78,6.78,0,0,1,.47.73c.24.41.24.41.57.49a7.57,7.57,0,0,0,1.3.12,4.36,4.36,0,0,1,2.81.77,2.27,2.27,0,0,1,.76,1.72v.05a2.29,2.29,0,0,0,.44.25,15.84,15.84,0,0,1,1.49.76,2.26,2.26,0,0,0,1.41.38,17.29,17.29,0,0,0,1.82,0,4,4,0,0,1,2.34.31c.9.54.89,1.56.88,2.46a5.05,5.05,0,0,0,.32,2.27,3.16,3.16,0,0,0,1.27,1.24,4,4,0,0,1,1.4,1.3c.07.06.22.16.33.24a2.34,2.34,0,0,1,1.32,2.06c-.08,1.13-1.12,1.78-2.14,2.27s-1.76.81-2.48,1.12c-.48.21-1,.45-1.44.65l.6.14.43.1c5.61,1.26,7.72,1.84,8.39,3.14a5.53,5.53,0,0,0,.51.34c.64.39,2.59,1.58,1.53,3.55a3.48,3.48,0,0,1-1.34,1.43l-.1.06s0,.1-.09.32l0,.16,1-.08c1.25-.12,2.66-.26,3.52,1a5,5,0,0,1,.54,1.15,5.66,5.66,0,0,1,3.49-.6,13.39,13.39,0,0,0,1.4.15c1.4.1,3.14.22,4.13,2.54a12.14,12.14,0,0,1,.67,2.21,7.48,7.48,0,0,0,.22.85l.54.08a3.58,3.58,0,0,0,2.71-.46c.57-.26,1.1-.52,1.58-.76,1.65-.81,2.75-1.35,3.79-1.07a2.85,2.85,0,0,0,.51,0,3.84,3.84,0,0,1,2.37.69c.23.17.47.39.74.63a12.24,12.24,0,0,0,3.13,2.15c2.53,1.27,5,2.65,5,2.66l1.81,1-3.47,2.85-15.07,4.78,1.82,12.11h-3.15v4.23c0,1.2,2.34,7.22,3.2,8.07,1.28,1.07,3.11,6.48,4.08,9.61l.16.52-2.63,5.78L330,259c0,.21.06.45.11.73l.15.88-.73.52c-4,2.8-10.37,1.33-14-3.19-2.6-3.25-8.31-9.34-10-11.1a11.46,11.46,0,0,0-2.43.41,4.35,4.35,0,0,1-2.29.78l-.41.06a5.68,5.68,0,0,1-3.65,2.2,6.26,6.26,0,0,1-1.79-.42,9,9,0,0,0-1.33-.36,11,11,0,0,1-1.38-.15,13.08,13.08,0,0,0-1.91-.18,42.58,42.58,0,0,1-5,1.72v.39L290.57,263l-.43.65a8.83,8.83,0,0,1-4,3.08c-1.59.58-3,1.05-3.59,1.26l-3.3,3.51h-.63c-4.12-.09-8.78-.12-9.44,0a4.21,4.21,0,0,0-1.29,1l-2.11,3a4.44,4.44,0,0,1-1.88,2.55,16.66,16.66,0,0,1-2,1.16,12.3,12.3,0,0,0-1.39.79c-.55,2-1.58,3-3.07,3-.59,0-4.6.53-7,.84-3.16.42-4,.52-4.29.52a2.35,2.35,0,0,1-1.57-.8c-.4-.35-1-.89-1.45-.84a2.38,2.38,0,0,0-1.29,1.06l-.26.35-.41.14a17.2,17.2,0,0,0-5,2.46l-.4.34h-6l-.36-.24a16.49,16.49,0,0,0-2.65-.77c-2.48-.57-3.44-.77-3.46-.77l-.71-.14-.3-.66s-2-4.42-4.5-6.52c-1.82-1.56-5.44.84-5.47.87l-1.16.8-2.05-3c-8.91,1.44-42.84,6.79-46.89,5.45l-.83-.28-.12-.87c-.49-3.45-1.33-3.5-3.56-3.65a28.36,28.36,0,0,1-3.08-.38l-.51-.08c.41.94,1.17,2.8-.62,4.4-1.08,1-2.31,2.07-3.09,2.77l2.42,4.83-1.62.48c-.46.14-11.19,3.33-13.39,3.73A107.91,107.91,0,0,1,126.28,294.32Zm-.53-2.81a100.64,100.64,0,0,0,11.53-1.22c1.45-.26,7.75-2.09,11.46-3.18l-1.87-3.73.79-.72s2.15-2,3.9-3.51c.24-.21.29-.26-.12-1.21a2.88,2.88,0,0,1-.15-2.74c.31-.51.76-1.26,1.67-1.13a5.2,5.2,0,0,1,2.1.1,25.46,25.46,0,0,0,2.8.35c3.21.21,5.17,1.12,6,5,4.81.29,26.38-2.67,45.65-5.81l.88-.14,1.52,2.19c1.79-.92,5.18-2.13,7.7,0a24.11,24.11,0,0,1,4.92,6.84l2.85.64a18.28,18.28,0,0,1,3.12.94h4.25a21.31,21.31,0,0,1,5.06-2.5,4.56,4.56,0,0,1,3-1.85,4.81,4.81,0,0,1,3.63,1.55l0,0,3.55-.46c4-.52,6.65-.87,7.37-.87a4.09,4.09,0,0,0,.38-1.07c.27-1.1,1.38-1.67,2.78-2.39a14.57,14.57,0,0,0,1.67-.95,1.94,1.94,0,0,0,.76-.85l-.09-.52.36-.24,2.42-3.41a6.22,6.22,0,0,1,2.94-2c.94-.19,6.47-.1,9.41,0l2.93-3.11.34-.11s1.74-.58,3.86-1.35a5.8,5.8,0,0,0,2.14-1.43l-4.82-10.76v-3.11l1-.3c2.3-.68,5.06-1.56,5.51-1.8.73-.49,1.86-.38,3.63-.13.37.05.84.12,1,.12a7.88,7.88,0,0,1,2.19.5c.27.09.66.21.87.26a5,5,0,0,0,1.21-.74c.28-1.15,1.69-1.36,2.48-1.47a7.07,7.07,0,0,0,.9-.17c.34-.3,1.29-.89,4.71-1.1l.66,0,.45.48c.3.32,7.47,7.87,10.59,11.77,2.4,3,6.66,4.31,9.42,3.06-.18-1.59-.06-3.1,1.19-3.7a2.17,2.17,0,0,1,1.95.08l.54-1.18c-1.07-3.38-2.51-7.19-3.08-7.81-1.61-1.34-4.17-8.63-4.17-10.2v-7.06h2.69l-1.69-11.25,16.57-5.25c-.86-.46-1.91-1-3-1.54a15.09,15.09,0,0,1-3.77-2.59c-.19-.18-.36-.33-.53-.46s-.32-.11-.74-.12a5.23,5.23,0,0,1-1-.1,12.9,12.9,0,0,0-1.94.85c-.5.25-1.06.52-1.66.79a6.24,6.24,0,0,1-4.33.68l-.53-.08c-1.92-.26-2.3-1.92-2.55-3a9.49,9.49,0,0,0-.51-1.71c-.3-.71-.41-.73-1.72-.83a15.92,15.92,0,0,1-1.69-.18,4,4,0,0,0-2.95,1.17l-2.09,2-.32-2.9a7.5,7.5,0,0,0-.47-1.94,7.58,7.58,0,0,0-1,.07,20.78,20.78,0,0,1-2.12.12c-.94,0-2,0-2.52-.94a1.87,1.87,0,0,1,.27-2,2.62,2.62,0,0,0,.39-.79,3,3,0,0,1,1.43-2.1l0,0-.21-.13a3.87,3.87,0,0,1-1.48-1.31c-.78-.52-4.11-1.27-6.57-1.82l-.43-.1c-2-.46-3.15-.88-3.49-1.91a1.9,1.9,0,0,1,.51-1.88h0c.31-1.06,1.47-1.56,3.31-2.36.64-.28,1.38-.6,2.19-1a2.55,2.55,0,0,1-.53-.66,3.26,3.26,0,0,0-.5-.36,5.91,5.91,0,0,1-2.24-2.29,7.34,7.34,0,0,1-.65-3.55h-.26a20.14,20.14,0,0,1-2.1,0,4.86,4.86,0,0,1-2.66-.75,13.09,13.09,0,0,0-1.25-.64,3,3,0,0,1-2.09-2.5l-.87,0a9.82,9.82,0,0,1-1.83-.19,3.35,3.35,0,0,1-2.39-1.84l-.17-.28h-.42a6.21,6.21,0,0,1-2.39-.37c-2.22-.89-3.43-1.95-3.6-3.16s.79-1.9,1.49-2.4a4.78,4.78,0,0,0,1.18-1,6.55,6.55,0,0,1,3.62-2.25c.26-.08.5-.16.71-.25s.7-.31,1.15-.52a21.44,21.44,0,0,1,3.92-1.54c1.8-.42,3.69-.73,5.47-1l.23,0c.38-.06.75-.11.91-.15l.16-.19.19-.22a12.43,12.43,0,0,0-1.67-2.07c-.28-.31-.55-.6-.78-.86a3.58,3.58,0,0,0-1.27-.9,10.15,10.15,0,0,1-2.84-2,28.55,28.55,0,0,0-4.88-3.56,16.84,16.84,0,0,1-4.44-1.61c-.39-.26-1.7-1-3-1.62-2.2-1.16-3.52-1.87-4.35-2.37a1.59,1.59,0,0,1-1.33.72,2.24,2.24,0,0,1-1.1-.34c-.56-.3-.65-.29-.9-.11-1.72,1.23-3.53,1.5-4.73.71a5.61,5.61,0,0,1-1-.89l-.24-.26a13.93,13.93,0,0,1-1.58,1.54,2.74,2.74,0,0,1-2.27.75c-1.11-.23-1.58-1.2-2-2a3.53,3.53,0,0,0-.67-1.07c-1.72-1.35-4-5.37-4.67-6.81a3.52,3.52,0,0,0-1-1.24,9.34,9.34,0,0,1-.79-.79,2.67,2.67,0,0,1-1.88,1A2.42,2.42,0,0,1,249,138c-.76.92-2.15,1.34-4.38,1.34h-.06c0,.15-.07.33-.11.5s-.12.59-.21.95a2.23,2.23,0,0,1-1.67,1.84c-.75.17-2,.09-4-2.25a3.79,3.79,0,0,1-1.17,1,2.5,2.5,0,0,0-.39.27c-.82.82-2.07,2.06-6,3.53-1,.37-2.47.94-3.28-.19s.1-2.12.73-2.89c.13-.16.33-.41.44-.57,0-.54.09-1.17.17-1.84,0-.24.06-.48.08-.71a6.42,6.42,0,0,0-.89-.21l-.33-.07c-1.88-.47-1.5-3.81-1.25-5.22a6.82,6.82,0,0,1,2.38-3.66,44.28,44.28,0,0,0,1.93-5.41l.21-.8c.68-2.64,1.21-4.6,1.63-6.06a19.91,19.91,0,0,1-2.72.82c-.65.16-1.31.33-2,.54-1,.32-1.71,1.42-2.61,2.81-.45.7-1,1.5-1.58,2.27-1.27,1.6-1.27,1.6-1.35,2.44,0,.28-.06.61-.11,1-.12,1-.15,1.72-.19,2.44a19.48,19.48,0,0,1-.32,3.1c-.07.38-.13.73-.18,1a7.31,7.31,0,0,1-1.8,4.29c-1.78,2-4.47.62-6.43-.42-.54-.29-1.06-.56-1.53-.77-1.54-.67-2.73-2.27-3.77-3.68-.24-.32-.55-.74-.82-1.06a7,7,0,0,1-1.17,1.94c-1.82,2.1-4.32.6-5.66-.21-.26-.16-.51-.31-.75-.44a22.44,22.44,0,0,1-5.74-4.39c-1.38-1.54-3.14-4.9-4.82-8.2l-.63-1.23c-.21-.39-.39-.73-.56-1a10.08,10.08,0,0,1-1.43-3.79,3.91,3.91,0,0,1,1.59-3.86,6.91,6.91,0,0,0,.67-.67,8.42,8.42,0,0,1,3.34-2.09c.33-.14.64-.27.9-.4a5.68,5.68,0,0,1-.35-1.08c-.05-.23-.11-.54-.18-.91a24.44,24.44,0,0,0-1.26-4.8c-.05-.06-.52-.42-2.76.33s-6.31.75-7.55.75c-.9,0-1.23-.18-3.63-4.66a48.19,48.19,0,0,1-2.5-5.22c-.41-1.42-1.81-7.24-2.11-8.53a23.23,23.23,0,0,0-2.14-3.68c-.85-1.32-1.74-2.68-2.36-3.87-.27-.19-1.37-.34-6,2.15a11.7,11.7,0,0,1-1.34.67,43.64,43.64,0,0,1-6.93.76h-.12c-11.38,0-11.6-.3-12.09-1a6,6,0,0,1-.7-1.87c-.3-1-1.2-4-1.77-4.58s-1.18-.95-1.88-1.52-1.59-1.32-2.8-2.28c-2.54-2-2.83-5.74-2.87-6.65a10.54,10.54,0,0,0-.66-1.84,10.18,10.18,0,0,0-2.74,1.11c-.55.33-1.81,1.09-5.73-2.75l-.63.29a16.29,16.29,0,0,0-4,3.8,8.63,8.63,0,0,1-5.32,2.83l-.15,0-.1.11A19.87,19.87,0,0,1,111,67.33c-1.12,1.08-2,6.08-2.32,9.13l-.1,1.12-1.11.16a20.08,20.08,0,0,1-2.54.11,2.74,2.74,0,0,1-3-2.08,5.43,5.43,0,0,0-.31-.71,6.83,6.83,0,0,1-.63-1.73A15.13,15.13,0,0,0,99.76,70a17.9,17.9,0,0,1-1-2.4l-.07,0s0,0,0,0a1.9,1.9,0,0,1-2.6.78c-.66-.28-1-.31-2.06.31-.15.09-.2.31-.23,1.15a6.54,6.54,0,0,1-.3,2c-.65,1.83-2.38,1.85-3.64,1.86a11.14,11.14,0,0,0-1.84.13c-2.76.48-4.21-2-5.16-3.65-.21-.37-.42-.73-.64-1.05a1.16,1.16,0,0,0-.3-.35,3.43,3.43,0,0,1-.39.14,4.23,4.23,0,0,1-1.34.26c-1.56,0-4.31-2.8-5.15-4.66-.61,0-1.67.11-2.24.17l-1.07.11c-1.06.07-6.83-.19-8-.86-.66-.38-4.32-2.2-5.87-2.84-.18,0-.5.36-.7.57A3.58,3.58,0,0,1,55.26,63a7,7,0,0,1-3.15-.53,12.6,12.6,0,0,0-2-.52,2.37,2.37,0,0,0-.4.83l1.11,1.31h0s2.67,2.86,3.52,3.71c1.2,1.2,2.51,5.42,3.19,7.82a13.49,13.49,0,0,1,.18,5.29c-.09,1-.2,2.08-.23,3.4a5.47,5.47,0,0,0,.78,3,4.4,4.4,0,0,1,.26,4.43,2.83,2.83,0,0,0-.4,1.79l.63.39-.6,4.8c-.37,3-3.14,12.81-4.39,13.86a2.89,2.89,0,0,1-2.57.3,3.15,3.15,0,0,0-1.48-.09,5.47,5.47,0,0,1-2.4.47,7.22,7.22,0,0,0-1.32.11,21.24,21.24,0,0,1-4.28,0l-.35,0-.18.4c-.18.41-.37.83-.53,1.12s-.6,1.52-.94,2.45c-.48,1.32-1,2.69-1.35,3.48-.26.56-.26.59-.25.81a8.71,8.71,0,0,1-.12,1.72c-.14.91-.25,1.42-.36,1.87a13.16,13.16,0,0,0-.32,2c-.09.9-.09,1.83-.09,2.72a20.84,20.84,0,0,1-.11,2.68,11.07,11.07,0,0,0-.1,3.42,6.46,6.46,0,0,1-.08,2,3.42,3.42,0,0,0,0,1.7,3,3,0,0,1-1.49,3.77,9.47,9.47,0,0,0-.8.6c-1.59,1.37-3.85.51-5.17,0l-.52.53a52,52,0,0,1-4.12,3.91,3.18,3.18,0,0,1-3.14.79A3.32,3.32,0,0,1,20,147.75l-2.79.62a1,1,0,0,0-.08,1,5.27,5.27,0,0,1,.26,3,3.45,3.45,0,0,0,0,1.41c.16.7.36,1.44.57,2.18a33,33,0,0,1,.81,3.34,29.36,29.36,0,0,0,2.18,5.82c.71.89.53,2.3,0,4.13A5.46,5.46,0,0,1,17.29,173c-1.15.46-1.31.74-1.79,2.27a4.4,4.4,0,0,1,.74,3.89c-.67,1.78-2.71,2.28-4.06,2.61l-.22.06a9.66,9.66,0,0,1-1.94.27,5.25,5.25,0,0,0-1.78.33,3.64,3.64,0,0,1,.22,2.24l-.06.2c7.77,3.72,41.7,20,47.85,23.77,1.9,1.17,5.86,3.58,6.62,3.46h0a3.18,3.18,0,0,0,.29-.32c1.5-1.87,2.28-2.2,4.87-2.09a9.72,9.72,0,0,1,5.72,1.75c5.52,3.26,6.64,2.47,6.68,2.44a4.5,4.5,0,0,0,1.68-2.35c.15-.36.32-.76.53-1.22a8.29,8.29,0,0,1,1.77-2.64c.09-.09.18-.18.27-.29s3.53-3.74,6-3c.4.12.57,0,.6,0l.34-.47.36.14a8.59,8.59,0,0,0,2.62-1.41,2.75,2.75,0,0,1,2.15-.56,3,3,0,0,1,1.82,1.29,4,4,0,0,1,1.64-.27c.49,0,.56,0,.61-.08a9.05,9.05,0,0,1,3.08-2c.29-.13.56-.25.77-.37a23.2,23.2,0,0,1,5.08-1.6,3.47,3.47,0,0,0,.95-.54c1-.72,3.1-2.18,5.53.62a4.47,4.47,0,0,0,.66.16l.12-.23a6.53,6.53,0,0,1,1.53-2.11,9.46,9.46,0,0,1,2.2-1.57,3.37,3.37,0,0,0,1.12-.87c.54-.58,1-1.47-.08-3.26a2.38,2.38,0,0,1-.11-2.46c1-1.79,4.21-1.94,4.24-1.94.62,0,4.83.53,7.49.89s3.21,1.12,3.91,2.26a6.71,6.71,0,0,0,1.92,2.1l.25.19a4.58,4.58,0,0,1,3.77-2.22c1.94-.25,2.14-.53,2.38-.85a4.65,4.65,0,0,1,2.73-1.82,5.72,5.72,0,0,1,5.55,1.21l1.48-1.16a3.72,3.72,0,0,1,4.34,0,7.79,7.79,0,0,1,4.38-1h.44l.36.26a4.35,4.35,0,0,1,2,3.43c0,1.54-.93,3-2.89,4.57h0c.22.17.51.37.76.54a21.06,21.06,0,0,1,2.55,2,4.73,4.73,0,0,1,1.18,5.27,8.71,8.71,0,0,1,3.17,2.39,2.68,2.68,0,0,1,.84,2.34,2.13,2.13,0,0,1,.48.19,3.25,3.25,0,0,1,1.4,2.32,3.07,3.07,0,0,0,.52,1.31,2.12,2.12,0,0,1,.68,1.94,4.22,4.22,0,0,1-2.1,2.47l2.11,1.72a5.66,5.66,0,0,1,4.29,2.42,3.67,3.67,0,0,1,.83,2.94c-.3,1.44-1.59,2.2-2.84,2.94l-.11.07a7.64,7.64,0,0,1-3.45,1.06,2.35,2.35,0,0,1,.83,1.59,3.23,3.23,0,0,1-1.46,2.49,8.66,8.66,0,0,0-1.2,1.25,4.12,4.12,0,0,1,1.69,2.31,2,2,0,0,1-.55,2.17,1.81,1.81,0,0,1-.48.3,2.55,2.55,0,0,1,.62,1,3.2,3.2,0,0,1-.42,2.53,7.47,7.47,0,0,1-3,3.18,5.43,5.43,0,0,0-.47.34c-1.38,1.09-2.54,1.32-5.06-.45l-.17-.11c-.08.19-.16.42-.22.6a4.46,4.46,0,0,1-1.3,2.2,2,2,0,0,1-1.64.39c-1.28-.27-2.11-1.64-3.14-3.55l-.24-.45c-.39.35-.85.87-1.1,1.14l-.33.36a2.83,2.83,0,0,1-2.66.88,4,4,0,0,1-2.75-2.75,5.62,5.62,0,0,0-.77.79,2.88,2.88,0,0,1-2.21,1.31,2.68,2.68,0,0,1-2-1.3c-.08.2-.18.46-.29.78a3,3,0,0,1-1.86,1.75c-.57.25-.78.34-1,1.09a1.36,1.36,0,0,0,.25,1.19,4.62,4.62,0,0,0,3.27,1.48,6.39,6.39,0,0,1,6,5.76,9.73,9.73,0,0,0,.47,1.78c.46,1.42.94,2.88-.1,3.84s-2.53.33-3.09.1a7.56,7.56,0,0,0-3.36-.69l-.22.87,2.52.63c1.91.5,2.54,1.54,2.74,2.32a4.19,4.19,0,0,1-1.1,3.5c.25,1,.36,2.48-.75,3.31A9.88,9.88,0,0,1,148,271.7a44.47,44.47,0,0,1-3.86,2.88c-.8.54-.94.82-.94.82a1.61,1.61,0,0,1-1.07,1.65,18.19,18.19,0,0,0-3.09,3.23c0,.46,1.17,2,1.56,2.57a5.19,5.19,0,0,1,1,1.68,1.83,1.83,0,0,1-.23,1.43c-.7,1.11-2.31,1.44-7.09,2.44-3.16.66-6.57-.11-10.17-2.28a33.3,33.3,0,0,0-1,4.28C124,290.76,125.15,291.24,125.75,291.52Zm16.36-14.45h0Zm12.12-1.55h0ZM263,275Zm27.51-25.87,0,0Zm6.07-1.61Zm6.6-.32h0Zm-5.34,0h0Zm-133.43-3.95Zm-13.25-1.38Zm21.27-13ZM170.72,210Zm137.85-15.66Zm-9.64-3.57h0Zm-.48-10.87Zm-37.77-35h0Zm13.86-2h0Zm-45.61-1.4Zm8.53-8.15h0Zm-1.1-17.86h0ZM41.6,113ZM74.8,63.7h0Zm0,0h0Zm0,0h0Zm0,0h0Zm2.83,0h0Z"/></svg>