<svg id="Layer_1" data-name="Layer 1" xmlns="http://www.w3.org/2000/svg" viewBox="0 0 350 350"><defs><style>.cls-1{fill:#999;}.cls-2{fill:#f90;}</style></defs><title>M</title><path class="cls-1" d="M264.8,224l-10.58-1.05-12.28-2.5-22.45,5.69L183.14,253.3l-15.87,4.12-22.74,1.37-18.3,6L108.35,282.5l-33.28-8.64L42.44,250.6,19.25,240.34l-13-2.67,5.9-8.4a5,5,0,0,0,2.14-4.76c-.24-3.42-.09-3.39,1.15-5.39S19.35,209,19.35,209L25.19,198,26.4,194l.12-2.24,2.42-3,.61-10.12a11.35,11.35,0,0,1,.79-4.85c1-1.94,9.63-14.3,9.63-14.3S46,149.85,46.82,148a7.9,7.9,0,0,1,2.85-3.7c1-.55,2.54-5.09,2.85-6.24a14.57,14.57,0,0,1,2.42-4.54c1.15-1.45,3.39-4.73,4.91-5.82S69.72,118,69.72,118s8.6-6.91,12.36-8.66,4.18-3.63,7.45-4.3c2.42-.67,4.24-2.79,7-5s6.91-5.51,6.91-5.51l2.12-7.33,6.24-7.51,2.06-3.39s.64.58,1,.36a3.17,3.17,0,0,0,.82-1.09,1.07,1.07,0,0,0,1.24-.45,2,2,0,0,0,.48,0l.85-1.09L114,69.19l3.27-1.7,8.6,2.6-1.45,1.7-1.27-.09-1.39.21.61.94,1.82,0,1.21,1.94s1.45.58,1.58.64,1.88.42,2.09,1.36.15,1.42.06,1.42l-1.61.12.51,2.09-1.91-.76-.3-1.21-1.88-1.3-1.88,1.42-.51,2,2.18,1.42,1,2.7,1.51.64,1.73.85.88-1a4.8,4.8,0,0,0-.64-1.88,2,2,0,0,1,.21-2.12L132.78,84a7.34,7.34,0,0,1,1.85.42c.06.18-.21,2.54-.21,2.54s.94,1.06,1.27.94,1-1.18,1.64-.88,3.45,2,3.45,2l1.15-.06.79.61,1.27-.42,1,.06,1.45-.42,3.33.24,4.06-.06,1.33.06,1-1.58,1.7,1.27,2.95,1.21-.36.65.79.65a5.26,5.26,0,0,1,1.6-.87c.46,0,1.43-.83,1.82-.93s1.9-.34,1.9-.34l.93.53,1.07-.36s1.51,2.46,2.18,2.4a4.43,4.43,0,0,0,1.9-1.11,5.67,5.67,0,0,1,1.6-.2c.06,0,1.07-.55,1.17-.87s1.21,2.2,1.21,2.2l2.16-.5s.95.18.67.63-.81,1.35-.81,1.35l-.95.36.34,1.66v.75l1.51,1.19,1.07-1a5.48,5.48,0,0,0,3.09-.91c.81-.34,1.27.59,1.84.91s3,1.53,3,1.53a14.19,14.19,0,0,0,1.73-.35c.55-.18,1.58-.42,1.73-.48s5.69.91,5.69.91L200.15,95l.61.15,1.61-1.82.61.3-.15.73,1.7.45,1.61,1.3L207,95l-.61-.67.82-1.15,1.85.42,1.33-1.21-3.48-2.76-6-4,1.76-1.21,6.12,4.39,3,2.12a7.34,7.34,0,0,1,.3-1.61c.15-.15.94-.18,1.24-.45s.91-.79.91-.79l2.39.51a10.8,10.8,0,0,0-.09,1.7,18.4,18.4,0,0,1,1.51,1.58l5.33.76.15,1,2.54,2.57h1.24l.39-.94,1.48,1,1.06-.67.61-.15.48-1.82.55-.7,7.33,2.7,1.24-1.15,1.24.21.61-1.3.85,1.67,1.64.58.33-.51-.7-1a15.09,15.09,0,0,0,1-2.79,2.44,2.44,0,0,1,.06-.73,14.55,14.55,0,0,0,2.36,2c.51.15,1.58.33,1.58.33l-.15.73.82.3s-1.09,2.6-.36,3.33,3.21.88,3.21.88l1.18-.58h2.18l2.85.39s1.09.61,1.33,1.27.51.79.51.79l6.48,2.42,3.67,1.94,5.09.45,7.09.58,6.09,1.18,1-1.85,1.15-.09,3.15,1.27.67,1.7,2.27.61,1.3.48,4.51,1.18,1.7,1.85,1.85.33,1.33-1.54L319,112s1.21-.82,1.7-.73a7.2,7.2,0,0,1,1.45.64l2.54-.64v1.39l5.79.73L329,115.81l1.21.76-.09,1,.61.3,1.36-.18s2.15,1.36,2.42,2.36a3.35,3.35,0,0,0,.79,1.48,7.24,7.24,0,0,1-1.15.21l-1.39,0a7.25,7.25,0,0,1-1.3-.51l-.51-.33-.76.09-1-.36-.61-.33a7.11,7.11,0,0,1-.67.79c-.09,0-2.57,3.24-2.57,3.24l-1.06.76-.91.21-1.18,2.06,1.79,1.3.58-.88.64.58-.24,1,1.88,1.12,0,.55.76.27.3.51a19,19,0,0,0,1.58,1.33c.15,0-.21.91-.21.91l.82.42-.09.76-.09.91-.94,1.24.48,1.12.67,1.73-.18.64.64,1.06L330.3,143l.79.3-.76,1.21L328.15,143l.15-.33-1.39-1,.79-1-1.36-1.51-.64.36-.94-.76.36-.7-.64-.24-.58,1.45-.48.94a10.45,10.45,0,0,1-.76.82c0-.09-.58-.73-.58-.73l.3-.45-.64-.82-.3-.64.67-.7-.76-.7-1.09.88-1.06-.51-.61,1-1.39-.48-1.24.27-.33.67.76.39-.67,1.06.42.39-.39.36.45.55-.48.58.24.7a3,3,0,0,0-.12.55c0,.15.55.76.55.76l1.39-.58,3.42,3.18-.7,1.18-.79,1.12.73.82-.45.55.51.39.67-.55.85,1,1.21-.36,1.18.61s1.48.73,1.61.12.45.73,1,.45,1.21.94,1.21.94l.51,1.09.82-.21a22.41,22.41,0,0,1,1.88,1.24s.76-.91,1.18-1,1.76-2,1.76-2l1.3.67-1.24,1.66,1.58.76.45-.24.36.3.79-.51,1.06.73-.67,1.21.45.91-.88.48.21,1.54-.48.64-.79-.12-.55.55-.82-.3L330.79,166l-.82,3.3.45,2.21s.06,1.24.36,1.3.39.82.09.91-.76.95-.15,1.28,1,.51,1,.51l.79-.51.45.24.48-.64a7.89,7.89,0,0,0,.91.7,6.86,6.86,0,0,0,.79-.88l1.21.58s-.67,1.21-.58,1.36.67,1.48.67,1.48l-1.33,1.33-.73.82.45,1.27,1.21,1,.88-.45.91.24.48-.18.67.58-.42.64,1.64,1.33.48-.15.42.73.3.45,1.39-1,.91.61s-1,.7,0,1.36a1.33,1.33,0,0,1-.7.85s-2.39-2.15-2.76-1.7a17.46,17.46,0,0,1-1.33,1.33l-1.61-1.09s.82-.61.51-1.06-4.82-3.76-4.82-3.76l-.82.51-.73-.48-.24.61-.73-.09s-1.18-.73-1.39-.45-1.33,2-1.33,2l.55.73-.82.48-1.36-.61-1,1.39,1.91,1.51.76-.79.51.3-1.06,1.54s1.45,1.58,1.88,1.54a8.92,8.92,0,0,0,1-.24c.12,0,.7.73.7.73L331,191l-.82.48s-.61.61-.7.51a1.81,1.81,0,0,0-1.09.3c-.06.15-.88.27-.88.27s-.76.36-.88.21-.67-1.18-.67-1.18l-1.76-.61-.33-1-.82-.21-.73.64-.21-.55-.12-.55V189l-.27-.21,0-.45-1-1.12-1.09.64-1-2.24,0-.58-.15-.7-.73-.51.15-2.76-.64-.79s.67-.7.36-.85-5-3.6-5-3.6l-1,.42-.94-.12-1.18-.82-1.27-1s-.12-.64-.18-.82-.88-.39-.88-.39l-1.82-.91-.42.24-.85-.61-.55.09-1.61-1.18-.51.45s-1.12-.82-1.3-.58a2.86,2.86,0,0,0-.3.85l-1.36.55-1.67-.15s-1-2.06-1.7-2.12-1.67,0-1.88-.82-1.39-.42-2.09-.82a28.83,28.83,0,0,1-2.82-2.42s-.33-1.39-.88-1.76a10.52,10.52,0,0,0-1.88-.79l-.67.85a1.29,1.29,0,0,0-.18-1.27c-.48-.51-.48-1.09-.7-1.27s-.21-.85-.21-.94a8.73,8.73,0,0,1,.51-.94l1-1.45-.42-.45-.42-.94-.67-.27-.27.39-1.36-.55-.27.36-1-.51-.76-.45-.48.18s-.91-1.36-1.06-1a2.51,2.51,0,0,1-.33.55l-3-2.09-1,1.15.15.73a8.45,8.45,0,0,0-1.54,0,7.52,7.52,0,0,1-1.27.15l-1.06-.27s-1.45.67-1.39,1.24.76,1.15.64,1.36-1.09-.15-1.54-.15-.7,1.06-.85,1.51a2,2,0,0,1-.61.88c-.24.24-.79.48-.7.61s.82.91.82.91l-1,1.64s-1.88.36-1.76,1.09.42,1.51.15,1.82-.85.42-1,.76a3,3,0,0,1-.48.91l-.55.15-1.51.48,3.76,3.51-1.67-.24-1,1.15-1,.2s-2.1.16-2.22.24a6.36,6.36,0,0,1-.73.28l-.85.69-.53.48-.69.89a5.66,5.66,0,0,0,.89.57c.12,0,1.53-.28,1.53-.28l.89.28,0,.81,1.74,1.21,1.66-1.09.89.69,1.37-1.66,1.74,1,.77-.4.89.57,1.9-3.23.32-1.09-.93-.52.53-.36,1,.69.08.73L269.89,175l-.32,1.13.44.57-.08.36,2.06,1.86-.08,7.31-4.32,13.61S265.17,214.37,264.8,224Z"/><path class="cls-2" d="M108.77,284.08l-34.31-8.91-.21-.15L41.73,251.84,18.82,241.7l-15-3.07,7.32-10.43.28-.16a3.61,3.61,0,0,0,1.42-3.42c-.24-3.43-.08-3.94,1.13-5.87l.23-.37c.94-1.52,3-7.6,3.76-9.81l.09-.22,5.78-10.94L25,193.77l.14-2.52,2.43-3,.57-9.59a12.31,12.31,0,0,1,.94-5.48c1-2,8.85-13.2,9.74-14.48,2.37-3.78,6.16-9.94,6.71-11.2a9.29,9.29,0,0,1,3.37-4.32,22.87,22.87,0,0,0,2.25-5.41,16.06,16.06,0,0,1,2.68-5.06c.26-.33.57-.75.92-1.21A25.92,25.92,0,0,1,59,126.59c1-.74,6.49-6.24,9.69-9.53l.13-.12c.36-.29,8.78-7,12.65-8.84A15.09,15.09,0,0,0,84.76,106a9.55,9.55,0,0,1,4.48-2.29c1.34-.37,2.61-1.47,4.23-2.86.69-.59,1.4-1.2,2.21-1.84,2.28-1.78,5.49-4.37,6.54-5.22l2.08-7.19,6.36-7.66,2.9-4.77.91.82.53-1.08.9.3.24-.42-4.4-5L117.13,66l11.23,3.4-2.73,3.18.71,1.13,1.13.46c.8.23,2.6.78,3,2.37s.09,2.25-.19,2.61l-.43.53h-.54l.12.49,3.88,2.49c1.63.23,2.4.47,2.69,1.34.08.24.14.41,0,1.9a2,2,0,0,1,2-.14c.59.27,2.38,1.34,3.23,1.85l1.24-.06L143,88l.82-.27,1.06.06,1.46-.43,3.52.26,4-.06.61,0,1.42-2.17,2.76,2.07L162.37,89l.31-.06c.14-.07.4-.23.56-.33a4.14,4.14,0,0,1,1.11-.56c.42-.11,1.66-.31,2-.37l.49-.08.81.46,1.54-.52.59,1A12.78,12.78,0,0,0,171,90.09a5.36,5.36,0,0,0,.65-.47c.23-.28.64-.64,2.33-.69l.25-.16.2-.65,1-.08c1,0,1.4.55,2.08,2l1.32-.31.3.06A2.29,2.29,0,0,1,180.82,91a1.66,1.66,0,0,1-.14,1.57c-.27.43-.77,1.3-.78,1.3l-.25.43-.29.11.15.84.64-.59.62.05A4.16,4.16,0,0,0,183,94l.2-.11a2.56,2.56,0,0,1,2.87.77,2.08,2.08,0,0,0,.24.21c.33.19,1.59.81,2.56,1.29a9.26,9.26,0,0,0,1.06-.23c.34-.11.85-.25,1.25-.35l.45-.12c.39-.16.47-.19,5.62.71l2.41-2.78.61.15,1.76-2,2.56,1.28-.1.48.72.21h0l1.37-1.92.68.16-1.22-1-7.65-5.16,4.29-3,8.23,5.88a1.57,1.57,0,0,1,.21-.25,2.18,2.18,0,0,1,1.14-.53l.26-.06.84-.72.53-.45,4.32.93-.13,1.27c0,.31-.06.65-.08.91.23.24.5.53.81.88l5.85.83.24,1.55,1.6,1.62.62-1.48,2.15,1.49.47-.29.34-1.29,1.36-1.74L238.92,94,240,93l.86.15,1.38-3,1.27,2.49a9.71,9.71,0,0,0,.47-1.37,3,3,0,0,1,.16-1.17l.8-2,1.52,1.52a18.71,18.71,0,0,0,1.86,1.67c.35.09,1,.21,1.31.27l1.45.25-.2,1,1.06.39-.57,1.36a7.1,7.1,0,0,0-.5,1.86,8.4,8.4,0,0,0,1.77.36l1.13-.55h2.7l3.11.43.23.13a4.49,4.49,0,0,1,2,2l0,.08,6.3,2.36,3.41,1.8,4.8.43,7.23.6,5.07,1,.87-1.61,2.25-.18,4,1.63.63,1.6,1.71.46,1.24.46,4.85,1.27,1.66,1.8.58.11,1.3-1.51,10.88,1.4a3.11,3.11,0,0,1,2.29-.65,5.81,5.81,0,0,1,1.38.52l3.78-.95v2l6.69.84-1.85,3.12.77.48,0,.52.76-.1.44.28c.79.5,2.65,1.81,3,3.19a2.11,2.11,0,0,0,.42.85l1.64,1.74-2.28.63a7.28,7.28,0,0,1-1.51.26l-.83,0h-.56a4.28,4.28,0,0,1-1.92-.66l-.24-.14-.58.07-1.1-.39-.1.09c-.3.36-1.42,1.78-2.4,3l-.13.17-1.31.94,1.75,1.58-.19.77,1.71,1,0,.35.25.09.45.77c.38.34.8.71,1,.91l.36.07.34.61a1.52,1.52,0,0,1,.18.82l.68.35-.34,3-.68.9.16.36.86,2.22-.14.5.58,1-.08.53,1.32.51-2.47,4-4.35-3.14.16-.34-1.65-1.22.6-.76-.68-.55-.31.52c-.87,1-1.49,1.72-2.53,1.13l-1-.58.13-.39,0,0-.8-.82.38-.55-.22-.38-.69-.33-.53.85-1.38-.48-.28.44.69.64-.53.49.35.42-.45.53.47-.2,4.92,4.58-1.3,2.21.8.94.87-.26,1.69.87.19.08a1.47,1.47,0,0,1,2,.3,2.86,2.86,0,0,1,2.14,1.69l.08.15c.43,0,.84.2,1.74.83a3.2,3.2,0,0,1,.7-.45,14.47,14.47,0,0,0,1.24-1.57l.71-1,3.89,2-.9,1.21h0l.7-.46,2.9,2-.93,1.69.73,1.46-1.22.67.16,1.16-1.35,1.78-.91-.14-.68.68-.69-.25-3.55,4.66-.67,2.71.42,2.11c0,.13,0,.28,0,.41a2,2,0,0,1,.6,1.39s0,.08,0,.13l.11.06.67-.87.95.81.56-.71,3.59,1.72-.73,1.31c-.1.19-.21.4-.3.58l.45,1,.38.88L336,180.3l0,.12.19.16.53-.28,1,.27.85-.32,2.25,1.94-.4.61,0,0,.84-.26.47.81.95-.7,3.49,2.33-1,.68.09.06-.27,1a2.73,2.73,0,0,1-1.52,1.77l-.82.34-.66-.59c-.32-.29-.68-.58-1-.83h0l0,0-.35-.26c-.35.35-.69.66-.79.75l-.83.75-4.18-2.84L336,185c-.74-.59-1.9-1.47-3-2.32h0l-.78.49,0,0-2.12-.26-.26-.16,0,0-.22.33.9,1.2-1.24.74,1.19.7-1.25,1.83.26.23.12,0a2.22,2.22,0,0,1,.69-.13c.75,0,1.2.5,1.81,1.26l.28.36.12,2.61-1.41.83a2.26,2.26,0,0,1-1.76.81h0a2.88,2.88,0,0,1-1.32.5,1.93,1.93,0,0,1-2.41-.27,6.16,6.16,0,0,1-.55-.91l-1.89-.65-.12-.34-1.23,1.08-1-2.63-.1-.45-.28-.22,0-.43-1.36.79-1.7-3.94,0-.76-.92-.65.16-3-1.08-1.33.35-.36c-.66-.47-1.69-1.22-3.29-2.4l-.64.26-1.65-.21-1.46-1-1.76-1.33-.1-.53,0-.1h0l-.28-.1-1.14-.57-.55.32-1.11-.79-.56.09L302,172.6l-.51.45-.62-.45-2.23.89-2.81-.26-.35-.73a7.12,7.12,0,0,0-.81-1.33A3,3,0,0,1,292,169.8h-.09a3.78,3.78,0,0,1-1.5-.4,25.86,25.86,0,0,1-3.1-2.63l-.3-.29-.1-.41a4,4,0,0,0-.36-1,5.6,5.6,0,0,0-.54-.24l0,0-6.1,7.77,3.64-9.09a3.82,3.82,0,0,1-.66-1.22v0a2.79,2.79,0,0,1-.49-1.79c0-.41.11-.68.72-1.67l.34-.5-.8-.32-.33.44-2.35-1.2-.9.34-.38-.57-.22.26-2.54-1.79.26,1.25-1.9-.16c-.4,0-.85-.06-1.08-.06a7.7,7.7,0,0,1-1.54.18h-.22l-.56-.14a1.66,1.66,0,0,1,.12,1.75,1.84,1.84,0,0,1-2.15.69l0,.14-.09.27a3.07,3.07,0,0,1-.65,1.13l.6.65-1.94,3.07-.6.12a4.25,4.25,0,0,0-.49.13,2.49,2.49,0,0,1-.33,2.33,3,3,0,0,1-.81.6,2.44,2.44,0,0,1-1,1.37l3.6,3.37,2.92-2,2.3,1.63.21,1.88-1.26,1.87-.06.21.41.52,0,.21,1.92,1.73-.09,8.16L269,200.16c-.21,1.29-2.41,14.87-2.75,23.87l-.06,1.51-12.22-1.22-12-2.44-21.87,5.55-36.34,27.18-16.41,4.23L144.8,260.2,127,266ZM75.68,272.56l32.24,8.37,17.56-17.4,19-6.15L167,256l15.47-4,36.35-27.18,23-5.84,12.52,2.55,9,.9c.53-9.5,2.64-22.26,2.73-22.83l0-.2L270.5,186l.07-6.46-1.44-1.29-.54.92-1.43-.91-.73.39-1.38-.8-1.48,1.79-1.17-.91-1.61,1.06-3.1-2.16,0-.32a5.7,5.7,0,0,1-1.07.16c-.47,0-.82-.17-1.73-.84l-1.17-.86,1.73-2.21.53-.48,1.12-.91.24-.08s.3-.1.47-.17.54-.25,2.74-.42l.48-.09.43-.48L258,167.66l3.81-1.22.06,0,.07-.18a2.07,2.07,0,0,1,.92-1.06l0-.14c0-.22-.1-.44-.14-.66-.19-1.17.64-2.1,2.26-2.57l.15-.24-.18-.21-.37-.49.09-.64a1.84,1.84,0,0,1,.94-1.22l.18-.13c.21-.21.21-.21.24-.3l.06-.2c.2-.65.58-1.9,1.62-2.21.05-1.16,1.21-1.94,2.22-2.4l.46-.21,1.33.34.65-.06a2,2,0,0,1,.65-.11l2-2.29,2.91,2.05.57-.08a1.85,1.85,0,0,1,1.6.8l.13-.05,1.22.73.21-.28,1.32.53.28-.4,2.24.92.56,1.24,1,1.12-1.64,2.39-.22.38a2.8,2.8,0,0,1,.28.61,1.43,1.43,0,0,0,.16.34l.28.09a10.83,10.83,0,0,1,2.23,1,4,4,0,0,1,1.36,2.18,23.56,23.56,0,0,0,2.25,1.94l.41.05a2.5,2.5,0,0,1,2.25,1.34l.46,0,.26,0c.88.07,1.71.81,2.48,2.19l.55,0,.4-.16a2.68,2.68,0,0,1,.34-.64c.52-.69,1.28-.8,2.28-.33l.59-.52,2,1.51.53-.09.59.42.29-.17,2.37,1.19c1,.28,1.51.66,1.72,1.28,0,.11.08.28.12.46l1.69,1.23.22,0,1.42-.58.64.47c1.81,1.33,4.52,3.3,4.86,3.52a1.5,1.5,0,0,1,.77,1.09,1.7,1.7,0,0,1-.09.89l.34.42-.14,2.52.54.38L320,185l0,.32.23.54.73-.42,2,2.37,0,.29.32.25v.11l1.55.4.36,1,1.63.56.26.49.12.23.24,0a3.09,3.09,0,0,1,1.24-.5h.06c-.46-.08-1.2-.46-2.6-2l-.77-.83.29-.42-2.54-2,2.46-3.43.91.41h0c.35-.54,1.18-1.84,1.41-2.14.53-.68,1.34-.79,2.41-.33l.4-1,1.42.94.86-.54,0,0,.93-1,.71-.71c-.09-.21-.18-.4-.22-.48a1.41,1.41,0,0,1-.15-.33,1.51,1.51,0,0,1-.67-.14l-.36.47-.78-.41-.73.47-.7-.3s-.47-.2-1.15-.57a2,2,0,0,1-1-2,2.48,2.48,0,0,1,.34-1,4.21,4.21,0,0,1-.35-1.59l-.5-2.42,1-3.9,5.17-6.79,1,.35.41-.41.2,0L336,157.2l.54-.3-.09-.18-.21-.17-.25.13-2.82-1.36-.09,0a5.11,5.11,0,0,0-.61.61l-.84,1-1.07-.76-1.27-.88-.26.07-1.13.29-1-2.08-.1-.15a1.92,1.92,0,0,1-.92-.28,3.94,3.94,0,0,1-2.14-.48l-.7-.36-1.55.47-.55-.65-.46.37-2.58-2,.62-.74-.66-.75,1.49-2.14-1.92-1.79-1.48.61-.67-.74c-.67-.75-.91-1.19-.91-1.71a2.18,2.18,0,0,1,.06-.49l-.37-1.05.24-.29-.56-.67.26-.24-.16-.15.47-.75-.63-.33,1.26-2.52,2.29-.5.7.24.68-1.09,1.4.68,1.34-1.08,1.9,1.75.35-.89,3.43,1.31-.2.38,1,1.16-.71-1.64,1.2-1.58,0-.32-1.1-.57.42-1-.93-.84-.16-.14-.15-.26-1.27-.46,0-.74-1-.59,0,0-.49-.36-.54-.32,0-.06-3-2.19,2.12-3.7,1.24-.29.66-.47A36,36,0,0,1,327,120c.16-.18.42-.53.43-.54l.74-1,1.58.87.61.21.94-.11.87.56c.29.14.61.28.78.34h.14a7.9,7.9,0,0,0-1.32-1.14l-1.26.17-1.86-.93.1-1.13-1.65-1,1.06-1.79-4.88-.61V113l-1.33.33-.49-.28a8.57,8.57,0,0,0-.86-.42,5.85,5.85,0,0,0-.81.45l-.44.3-10.41-1.33-1.36,1.58-3.11-.56-1.74-1.89-4.25-1.12-1.24-.46-2.9-.77-.71-1.79-2.27-.92h0l-1.13,2.08-7-1.37-12.39-1-3.84-2-6.4-2.39a2.57,2.57,0,0,1-1.35-1.63,2.9,2.9,0,0,0-.49-.39l-2.45-.34h-1.76l-1.22.6-.37,0c-.91-.06-3.13-.29-4.13-1.29s-.75-2.27-.42-3.49l-.66-.25.11-.53-.3-.08a3.09,3.09,0,0,1-1.12-.67l-.25.64.79,1.11-1.46,2.27-3.21-1.13L240.94,96l-1.37,1.27-7-2.58L232,96.63l-1.2.3-1.66,1-.82-.57-.08.19h-2.78l-3.28-3.32-.06-.38-4.81-.68-.35-.39c-.41-.46-.92-1-1.17-1.27l-.18-.14c-.48-.39-.58-.83-.54-1.68l-.48-.1-.35.31a2.52,2.52,0,0,1-1,.52c0,.2-.06.42-.08.63L213,93.48l-.94-.66-2.6,2.36-.67-.15-2.41,3.1-2.49-2-1.66-.44-.95,1.07-.6-.15-2.32,2.67-.79-.14c-2.16-.38-4.57-.78-5.3-.87l-.35.1c-.35.09-.79.21-1.08.3a14.39,14.39,0,0,1-2,.41l-.43.06-.39-.19c-.26-.13-2.54-1.24-3.13-1.58a4,4,0,0,1-.77-.61l-.06-.06a7.18,7.18,0,0,1-2.82.85L179.66,99l-3-2.36V95.32l-.43-2.08-.39.09-.47-1.08-.32-.7a2,2,0,0,1-.77.21c-.22,0-.63,0-.89.06a5.11,5.11,0,0,1-2.48,1.25c-.45,0-1.32.12-2.89-2.12l-.63.21-1-.59-1.21.22c-.11.05-.24.14-.38.23a4.24,4.24,0,0,1-1.66.75,6.53,6.53,0,0,0-.95.6l-.89.67-2.57-2.11.16-.29-1.78-.78-.49-.37-.65,1-2.14-.1-4,.06-3.14-.23-1.44.42-1-.06-1.73.58-1-.75-1.06.06-.37-.23c-.9-.54-2.2-1.32-2.9-1.71l-.07.07a2.55,2.55,0,0,1-.9.64c-.86.31-1.73-.1-2.82-1.33l-.42-.47.07-.63c0-.43.1-.91.14-1.32l-.56-.08-.31,0L130,83.92a4.74,4.74,0,0,1,.26,1.24l0,.55-2,2.29-2.72-1.33-2-.84L122.56,83l-2.64-1.73.89-3.49,3.09-2.35.36.25-.87-1.39-1.8,0-2.2-3.41,2.71-.41L117.41,69l-1.15.6L120.14,74l-1.91,2.45-.55.09h-.09a2.39,2.39,0,0,1-1.07.48,3,3,0,0,1-.95.91,1.82,1.82,0,0,1-1.14.2l-1.53,2.49L106.86,88l-2.16,7.47-.35.28s-4.16,3.36-6.92,5.53c-.77.6-1.46,1.2-2.11,1.75-1.81,1.56-3.37,2.9-5.42,3.46a7,7,0,0,0-3.37,1.75,18,18,0,0,1-3.85,2.47c-3.39,1.58-11.2,7.79-12,8.43-1.11,1.15-8.46,8.68-10,9.79A26,26,0,0,0,57,133.17c-.37.49-.7.93-1,1.27a13.25,13.25,0,0,0-2.16,4c0,.06-1.73,6.11-3.52,7.12a6.56,6.56,0,0,0-2.24,3c-.81,1.86-6.32,10.65-6.95,11.64-3.5,5-8.89,12.82-9.56,14.18a9.78,9.78,0,0,0-.64,4.13v.08l-.64,10.65-2.42,3-.16,2.13-1.31,4.18-5.79,11c-.41,1.26-2.76,8.3-4,10.31l-.24.38c-.9,1.43-.9,1.43-.7,4.17a6.46,6.46,0,0,1-2.54,5.88l-4.5,6.42L19.83,239l23.43,10.4Zm254-79.74,0,0Zm-69.23-16.73.38.26,1.7-1.12.61.47,1.27-1.52,2.1,1.22.8-.42.34.22.82-1.39-5.12-.75-.84.94-1.66.31c-.69.05-1.53.13-1.86.18l-.07,0,1.5.48Zm70.84-1h0Zm-24.11-.42ZM268,173.16l.54.51.09-.15Zm63.08-1.73Zm-36.53-.35Zm-8.05-6ZM283,162.55h0Zm-10-6h0Zm60.1-1.24Zm-3.17-.16-.12,0Zm-3.65-4.42h0ZM49,143.11h0Zm284-22.75h0Zm-.24,0h0ZM163,91.78h0Zm.18,0h0Zm10.67-.35-.15.16Zm-8.73-.6h0Zm-39.21-7.12,1.24.54L127,84a3.23,3.23,0,0,1-.24-2.53l-1.83-.73-.35-1.4-.6-.41-.66.5-.14.57,1.72,1.12Zm-.88-7.5,1.24.86.85-.07-.36-.11a2.58,2.58,0,0,1-.38-.14Zm4.11.64h0Z"/></svg>