<svg id="Layer_1" data-name="Layer 1" xmlns="http://www.w3.org/2000/svg" viewBox="0 0 350 350"><defs><style>.cls-1{fill:#999;}.cls-2{fill:#f90;}</style></defs><title>M</title><path class="cls-1" d="M297.72,91.7c-3.85-2.12-2.89-6.75-3.57-10.6s-.58-9.06-1.35-9.93-3-2.79-2-3.57,17.92-6.36,21.49-8c-7.13-8.48-4.82-25-4.63-29C300.42,31.67,296.27,25,296,23.87s-1.83-3.28-2-6.07c-1.64-6.17-5.59-6.46-8.77-6.46-.77,4.82-6.75,2.51-10.5,1-3.66-1.93-6.65.19-10.6,2.31-2.89.29-9.06-6.75-9.93-7.9s-6.07-.29-8.58,2.22c3.28,12.91-3.47,16.48-4.24,20-1,4.14-6.07,7.23-7.81,8.19-.67,3.66-1.73,2.12-4.26,2.41-2-1.64-1.52-8.67-1.52-8.67s2.41-8.19,1.16-7.42-1.93.1-3.66,0c-2.7,2-4.91,2.51-8.29,3.08-4.91,4.14-8.29,1.45-8.29,1.45l-4,2.89-.39-2.6c0-3.76-2.79-3.18-2.79-3.18a4.81,4.81,0,0,1-4.72,2.22c-3.57-.87-3.47,1.16-2.22,3.76.29,2.89-1.45,2.12-3.66.67a24.44,24.44,0,0,1-5.3,5.11c1.45,1.25.29,3.57.19,5.2s-.39,6.46-.67,8.58,2.51,7.81,3.66,10,.48,2.79-.67,2.41-4.24.19-8.77.77-3.76-1.35-4.14-3.08c-.48-.19-5,.19-7.9.58s-2.7,1.35-5.11,1.73c-1.16-.87,2.12-4.82,4-5.11,1.64-.29,6.17-14.84,8-18.41s-5.88-1.06-7.42,1.45c-4.72,7.42-10,1.35-11.66-.19-2.79,1-4.34-.29-6.84-.58.29,2.7.58,7.42-1.06,6.84s-1.06,1.06-1.16,2.31-.77,1.64-1.54,4c-1.25,1.54-3.18,1.06-5.2.87s-1.45-.19-1.16-2.89c-1.16,1.16-2.79,1.16-3-1-2.6,1-2.12.19-3.08-.77-.87.58-1.64-.1-2.41-1.64-1.16.67-2.89.39-2.7-2.22-1.45.87-2.41-.67-3.08-3.85-3.08,1.25-1.45-3.76-1.83-5.4-15.23,3.08-41.05-2-41.05-2l-1.06.2c-.66.54-2,1.59-4.43,3.46-3.85,2.79-1.45,2.41-1.45,2.41l3.66,1.45-.1,4L81.38,62a10.93,10.93,0,0,1-4,.08c-2.79-.29-5,.19-5.59,1.45s-3.66,3.66-4.14,4.14S64,72.91,60.47,75,46.21,88.24,37.73,94.79c1.25.77,1.73,1.73,2.6,1.93S47.56,96,50,96s9.15-3.37,9.15-3.37l.1,8.87s6.65,1.35,6.75,3.37-2.12,4.63-3.47,6.26-8.48,6.55-11.56,9-1.35,4.91,1.45,5,4,1,5.88-.29S64,118.59,65.48,119s3.18,1.83,4.82,3.57c2.79,2.22,4.14.58,5.11-2.7,0,3.76,1.25,3.85,3.37,4.14-.19,1.93.58,1.83,1.35,1.93s5.3.48,5.3.48l-4,3.66H97.86v7.32l11.37.67s-.67-1.73,1.64-2.31,6.17-3.37,9.54-1.93c.1,1.16-1.83,7.42-1.83,7.42l6.17,8.09a8.36,8.36,0,0,1-1.06,4.91,15.36,15.36,0,0,1-4.43,4.82v9.73l-13.49,1.54a27.15,27.15,0,0,0,5.4,4.63c.19,2.6-2.51,3.85-6.46,5-14.94,2.22-10.89,12.24-12.33,12.24a15.08,15.08,0,0,0-3,.9l5.81-1.19,11.37-4.14L106,233.65l-.1,52s3,0,4.14-.1,3.57-1.64,4.43-2.51,2.31-3,5.4-2.79a3.66,3.66,0,0,1,3.37,1.83l-.19,2.79,10.89.1a14.46,14.46,0,0,0,1.73,3.66c.77.77-.1,4-.1,4h-4l-.1,6.75h-3l-.1,10.79,24.38.19s12.91.39,14.26,1.64a12.26,12.26,0,0,1,3,5.59c.77,2.51.77,8.38.77,9.54s.48,4.14,1.35,4.34,4.72.48,4.72.48l.87,7.81a60.12,60.12,0,0,1,6.17-1.93c.77,0,2.41-1.45,5.4-1.64-.77-2.31,1.25-4.43,4.34-4.91.48-3.57,4.34-3.37,6.17-2.89,3-3.08,5.11-.77,4.24,2.7.29,1.35,5.59-.48,5.59-.48s0,3.37.39,3.47a14.79,14.79,0,0,0,2.7,1.25c1.25.29,7.13,2.41,8.87,4.24s.1,3.08,1.35,3.28,8.19.77,8.19-.77,1.45-2.89,2-3.57a7.15,7.15,0,0,1,3.66-1.54c1.35-.19,3.18-.48,4-1.16s1.25-1.73,2.12-3.28,3.66-2.89,6.36-3.76c-.87-1.54,2.51-5.69,2.51-5.69l-.48-37.1-3.66-.1c-5,1.06-3.85-6.36-4.43-9.54s2.6-5.2,5.69-6.84c-.58-1.93-.48-12.53,0-18.21s6.46-3.76,6.46-3.76,6.84-6.65,7.9-8c2-4.72.19-8,.39-11.66s3.66-6.94,6-9.15c.1-3.85,1-4,2.51-6.07,1.35-2,1.16-3.47.19-5.78-.67-2.31-.87-28.91-1-30.45-1.64-1.64-2.79-5.88-3.37-14.65-1.45-12.14,4.34-15.51,6-18.21,1-1.83,0-3.47,1.35-4.53s4.43-.39,4-1.93,2-5.88,3.37-7.81,10.12-6.26,10.7-8.19c-1.93-3.18-1.06-5.4.58-8.29-.58-5.3,2.6-6,3.85-7.32a7.74,7.74,0,0,0,1.93-5.88C295.69,96.43,296.95,93,297.72,91.7Z"/><path class="cls-2" d="M227.07,344.52a35.61,35.61,0,0,1-4.35-.29,1.93,1.93,0,0,1-1.7-2.37,1.39,1.39,0,0,0-.46-1.33c-1.39-1.46-6.76-3.51-8.16-3.83a8.77,8.77,0,0,1-2.47-1.09l-.34-.2c-.84-.25-1.21-1-1.33-2.92-1.78.47-3.63.72-4.65.15a1.91,1.91,0,0,1-1-1.27l-.07-.32.08-.32c.35-1.38,0-2.23-.2-2.36s-.66,0-1.65,1l-.58.6-.8-.21a4.91,4.91,0,0,0-3.59.25,1.89,1.89,0,0,0-.81,1.46l-.14,1-1,.16a4.31,4.31,0,0,0-3,1.68,1.57,1.57,0,0,0-.16,1.39l.58,1.74-1.83.12a9.65,9.65,0,0,0-3.72,1.08,4.17,4.17,0,0,1-1.77.56c-.48.06-3.35,1-5.69,1.84l-1.69.6-.94-8.42c-1.27-.11-3.1-.28-3.75-.42-2.39-.53-2.46-5.67-2.46-5.72a39.5,39.5,0,0,0-.71-9.12c-.76-2.46-1.52-3.94-2.54-4.92-1.16-.6-7.81-1.14-13.39-1.31l-25.77-.2.12-13.62h3l.1-6.75h4.21a5.76,5.76,0,0,0,.11-1.66,11.74,11.74,0,0,1-1.62-3.13l-11.4-.1.26-3.82a2.43,2.43,0,0,0-1.93-.79,4.66,4.66,0,0,0-4,1.93l-.42.44c-.92.92-3.62,2.77-5.32,2.92-1.2.1-4.14.1-4.26.1h-1.42l.1-53.46.55-43.83-9.64,3.5-5.81,1.19-.76-2.72c1.18-.43,2-.67,2.49-.81l0-.29c.18-3.06.59-10.2,13-12.08,3.74-1.1,5-2,5.29-2.91a28,28,0,0,1-5-4.42l-1.7-2,14.86-1.7v-9.22l.62-.42a14,14,0,0,0,4-4.3,7.62,7.62,0,0,0,.95-3.72L117,141.51l.21-.7c.65-2.11,1.33-4.58,1.63-6-1.65-.21-3.51.61-5.18,1.33a16.82,16.82,0,0,1-2.46.93,1.16,1.16,0,0,0-.64.31.29.29,0,0,0,0,.16l.8,2.06-2.22-.18-12.7-.75v-7.24H77.71l4.37-4-2.11-.2-.17,0a2.39,2.39,0,0,1-2.4-2.11,3.92,3.92,0,0,1-2.4-1.32,3.46,3.46,0,0,1-1.48,1c-1.23.39-2.61,0-4.09-1.18l-.15-.14c-2-2.17-3.31-2.88-4-3.11a20.42,20.42,0,0,0-3.25,2.9A22.33,22.33,0,0,1,59,126a5.86,5.86,0,0,1-4.65.73,17.44,17.44,0,0,0-2.05-.21A4.44,4.44,0,0,1,48,123.79c-.25-.77-.55-2.77,2-4.77,1-.79,2.45-1.85,4-3,2.77-2,6.57-4.81,7.37-5.78l.16-.19c1-1.26,3-3.59,3-5-.46-.63-3.08-1.63-5.61-2.15l-1.12-.23-.08-7.79C55.4,96,51.83,97.46,50,97.46c-1.08,0-3.17.2-5,.38-3.16.3-4.32.4-4.94.26a4.14,4.14,0,0,1-1.94-1.21A6.6,6.6,0,0,0,37,96l-1.75-1.07,1.62-1.25C41.14,90.36,46,85.9,50.24,82s7.63-7,9.51-8.15C62.39,72.24,64.93,69,66,67.55a9.53,9.53,0,0,1,.69-.84c.13-.12.4-.37.77-.68A19.19,19.19,0,0,0,70.56,63c.84-1.81,3.39-2.64,7-2.26a18.07,18.07,0,0,0,2.06.1L76.2,46.27,76.28,43l-2.44-1A1.86,1.86,0,0,1,72,41c-.59-1.43.92-2.68,2.65-3.93,2.39-1.82,3.7-2.86,4.36-3.41l.28-.23L81,33.12l.27.05c.26.05,25.73,5,40.49,2l1.35-.27.31,1.34a8.74,8.74,0,0,1,0,2.51,14.43,14.43,0,0,0-.07,1.89l1.53-.62.35,1.66a7.62,7.62,0,0,0,1,2.9l2.22-1.33-.12,2.68a1.57,1.57,0,0,0,.13,1,.69.69,0,0,0,.44-.11l1.31-.76.68,1.35a4.92,4.92,0,0,0,.58.94l.74-.49.83.82a5.1,5.1,0,0,1,.62.76,8.51,8.51,0,0,0,1-.31l1.74-.64.17,1.84a1.68,1.68,0,0,0,.09.42,1.39,1.39,0,0,0,.49-.33L140,47.58l-.43,4c-.06.53-.12,1-.18,1.32h.06l.83.09c1.65.19,2.45.22,3-.28a16.41,16.41,0,0,1,1-2.28,2.83,2.83,0,0,0,.41-1.15,6.17,6.17,0,0,0,0-.75,2.82,2.82,0,0,1,.81-2.62,2,2,0,0,1,1.52-.36,20.59,20.59,0,0,0-.1-5.18l-.19-1.76,1.76.2a15.78,15.78,0,0,1,2.42.52,5.62,5.62,0,0,0,3.8.13l.81-.28.62.59.4.39c1.16,1.14,3.32,3.26,5.46,3,1.26-.14,2.48-1.13,3.63-2.93,1.43-2.33,7-4.76,9.21-3.51.32.18,1.84,1.19.67,3.48-.63,1.23-1.66,4-2.74,6.91-3.73,10-4.72,12-6.27,12.24a4,4,0,0,0-1.72,1.17,9,9,0,0,1,2.35-.6c.07,0,7.4-1,8.61-.49l.7.28.16.73a9.43,9.43,0,0,1,.16,1.07,3.2,3.2,0,0,0,.15.85h0s.38.3,2.27.06l2.77-.37a31.35,31.35,0,0,1,5.71-.51l-.12-.24c-1.91-3.67-4.13-8.53-3.81-10.87.13-1,.36-3.24.66-8.47a11.51,11.51,0,0,1,.28-1.7c.25-1.17.4-2,0-2.35l-1.33-1.16,1.42-1.05a23,23,0,0,0,5-4.84l.8-1,1.09.71a13.45,13.45,0,0,0,1.49.87c-.67-1.44-1.32-3.4-.23-4.74s3.27-1,4.09-.77a3.33,3.33,0,0,0,3.25-1.52l.32-.54.63-.14a3.78,3.78,0,0,1,3,.74,4.62,4.62,0,0,1,1.49,3.72l0,.21,3-2.17.84.67c.09.06,2.59,1.86,6.49-1.42l.29-.25.38-.06c3.15-.54,5.2-1,7.68-2.82l.41-.31.52,0a10.42,10.42,0,0,1,1.68.25c.73.16.83.17,1.16,0a1.59,1.59,0,0,1,1.84.06c.7.53,1.42,1.08-.84,8.81-.14,2.61.13,5.78.75,7a11.52,11.52,0,0,1,1.3.08l.56,0a5.08,5.08,0,0,0,.37-1.33l.12-.66.58-.33c1.87-1,6.31-3.83,7.11-7.27a10.78,10.78,0,0,1,1.81-3.52c2-3,4.68-7,2.44-15.85L244,8.5l.57-.57a12.06,12.06,0,0,1,8.25-3.08,3.19,3.19,0,0,1,2.42,1c1.63,2.17,6.6,7.13,8.47,7.38l.92-.5C268.1,10.79,271.37,9,275.28,11c2,.82,6,2.46,7.7,1.53a1.75,1.75,0,0,0,.8-1.43L284,9.92h1.21c2.85,0,8.14,0,10.14,7.51l0,.27a11.52,11.52,0,0,0,1.31,4.15,9.62,9.62,0,0,1,.68,1.68c.25.8,3.82,6.61,10.08,5.69l1.7-.25-.08,1.72c0,.47-.07,1.11-.13,1.88-.45,5.71-1.52,19.08,4.43,26.15l1.2,1.42-1.69.78c-1.78.82-6.66,2.54-11.38,4.21-3.44,1.21-7.58,2.68-9.23,3.36.33.42.82.93,1.08,1.2l.53.56c.73.82.89,2.4,1.14,5.6.13,1.63.27,3.47.55,5a29.35,29.35,0,0,1,.32,3.18c.21,3.24.44,5.28,2.53,6.43l1.3.72-.78,1.27c-.46.75-1.69,3.38,1.69,6l.52.41,0,.66a9.13,9.13,0,0,1-2.31,6.89,8.16,8.16,0,0,1-1.25,1c-1.33,1-2.59,1.86-2.23,5.17l0,.45-.23.4c-1.56,2.75-2.13,4.33-.6,6.85l.33.54-.18.6c-.45,1.49-2.59,2.92-6.35,5.33a27.62,27.62,0,0,0-4.54,3.27c-1.74,2.49-3.31,5.76-3.17,6.6a2.06,2.06,0,0,1-.19,1.75,3.47,3.47,0,0,1-2.68,1.26,4.5,4.5,0,0,0-1.57.42c-.2.16-.25.33-.29,1.18a6.66,6.66,0,0,1-.68,2.9,14.46,14.46,0,0,1-1.52,2c-2.15,2.49-5.39,6.25-4.3,15.41.51,7.73,1.51,12.35,3,13.81l.38.38,0,.53c0,.41.05,2,.1,5.24.11,6.89.35,22.91.8,24.85,1,2.54,1.31,4.51-.36,7-.35.46-.62.79-.87,1.09-1,1.15-1.33,1.58-1.39,4.23v.58l-.51.49c-2.1,2-5.29,5.06-5.45,8.12a17.89,17.89,0,0,0,.26,3.39,14.94,14.94,0,0,1-.76,8.75l-.19.32c-1.09,1.38-7.32,7.45-8,8.14l-.61.59-.81-.26a4.78,4.78,0,0,0-3.53.2,2.9,2.9,0,0,0-1.08,2.33c-.5,5.86-.53,16.11-.05,17.68l.33,1.11-1,.55c-3.24,1.72-5.33,3.29-5,5.34a22.65,22.65,0,0,1,.24,2.86c.09,2,.21,4.67,1.16,5.41.11.08.43.33,1.34.14l.16,0,5.19.14.51,39-.32.4c-1.25,1.54-2.36,3.53-2.33,4.16l.81,1.45-1.65.53c-2.83.91-5,2.13-5.56,3.1-.21.38-.39.72-.56,1a7.51,7.51,0,0,1-1.93,2.66c-1.11.87-2.94,1.19-4.72,1.44a6.31,6.31,0,0,0-2.79,1.06l-.3.34c-.52.57-1.38,1.52-1.38,2.3a2,2,0,0,1-.71,1.49C231,344.31,229,344.52,227.07,344.52Zm-3.2-3a23.41,23.41,0,0,0,5.88,0,7.2,7.2,0,0,1,2.07-3.62l.25-.28c1-1.15,3.25-1.84,4.54-2a10.44,10.44,0,0,0,3.38-.87,5.44,5.44,0,0,0,1.16-1.75c.18-.34.37-.71.6-1.11,1.06-1.89,3.92-3.25,6.06-4,.17-1.75,1.52-3.8,2.62-5.2L250,287.35l-2.14-.06a4.22,4.22,0,0,1-3.49-.7c-2-1.54-2.13-4.72-2.26-7.52a21,21,0,0,0-.2-2.48c-.73-4,2.92-6.43,5.51-7.86a124.56,124.56,0,0,1,.16-17.57,5.58,5.58,0,0,1,2.34-4.45A7,7,0,0,1,255,246c2.59-2.53,6.18-6.09,7.1-7.17,1.09-2.67.8-4.81.48-7.07a20.32,20.32,0,0,1-.28-3.93c.21-4,3.58-7.38,6-9.71a7.4,7.4,0,0,1,2-5.4c.22-.27.47-.56.74-.91.9-1.35.91-2.22,0-4.38l-.05-.15c-.46-1.59-.7-11-.92-25.66,0-2.07-.06-3.81-.08-4.63-1.8-2.25-2.85-7-3.39-15.11-1.23-10.33,2.66-14.83,5-17.53a13.08,13.08,0,0,0,1.2-1.51,4,4,0,0,0,.31-1.66,4,4,0,0,1,1.37-3.25,6.1,6.1,0,0,1,2.87-1l.49-.08c-.11-2.85,3.26-7.76,3.68-8.35.73-1,2.51-2.21,5.34-4a41.52,41.52,0,0,0,4.86-3.42c-1.65-3.33-.63-6,.78-8.52-.34-4.61,2-6.3,3.44-7.32a6.21,6.21,0,0,0,.83-.66,6.08,6.08,0,0,0,1.55-4.25c-3-2.67-3.27-5.77-2.42-8.08-2.49-2-2.69-5.17-2.87-8a26.93,26.93,0,0,0-.28-2.87c-.29-1.69-.45-3.6-.58-5.28a24.58,24.58,0,0,0-.5-4l-.39-.4C290,70.33,289,69.23,289.13,68a2,2,0,0,1,.77-1.46c.6-.48,2.81-1.3,10.64-4.07,3.57-1.26,7.24-2.56,9.51-3.44-5.42-8.14-4.4-21-3.94-26.67l0-.19c-7,0-11.12-6.39-11.51-7.93a8.73,8.73,0,0,0-.49-1.15,14.24,14.24,0,0,1-1.56-5c-1.19-4.33-3.52-5.13-6.29-5.26A4.26,4.26,0,0,1,284.37,15c-2.65,1.49-6.67.06-10.23-1.4l-.12-.06c-2.48-1.3-4.45-.34-8,1.62l-1.25.68-.25.13-.28,0c-3.8.4-10.07-7.07-11.06-8.29a9.27,9.27,0,0,0-6,1.7c2.16,9.48-1,14.15-3,17.27a9.16,9.16,0,0,0-1.4,2.57c-1,4.11-5.16,7.18-7.94,8.81-.65,2.72-1.89,3.14-3.88,2.93a6.49,6.49,0,0,0-1.48,0l-.61.07-.47-.39c-2.32-1.95-2.13-8-2-9.84l.05-.31c.52-1.78,1-3.87,1.3-5.24a6.38,6.38,0,0,1-1.28-.18c-.24-.05-.49-.1-.77-.14-2.63,1.86-4.88,2.4-8.08,3-4,3.24-7.27,2.5-8.81,1.79l-5.2,3.71-.74-5.1a2.23,2.23,0,0,0-.45-1.63.66.66,0,0,0-.22-.12,6.16,6.16,0,0,1-5.6,2.19l-.17,0a4,4,0,0,0-1.25-.16,5.6,5.6,0,0,0,.65,1.92l.11.23,0,.25c.06.59.24,2.39-1.1,3.2-1.08.66-2.36.21-3.66-.53a24.68,24.68,0,0,1-3.71,3.57,6.75,6.75,0,0,1-.08,3.69,9.42,9.42,0,0,0-.22,1.27c-.25,4.21-.48,7.21-.69,8.68C186.32,52,187.76,55.76,190,60c.34.64,1.36,2.61.27,3.89a2.29,2.29,0,0,1-2.65.52c-.59-.2-3,.13-5.34.46l-2.8.38c-2.13.27-3.48.07-4.39-.65a3.42,3.42,0,0,1-1.17-2.46c-1.45.06-4.18.3-6.47.6a5.56,5.56,0,0,0-2.35.77,7.36,7.36,0,0,1-2.72,1l-.59.09-.48-.36a2.15,2.15,0,0,1-.71-2.39,8.83,8.83,0,0,1,5-5.17c.95-1.16,3.11-7,4.42-10.51,1.08-2.91,2-5.46,2.72-6.91-1.41.22-4.11,1.41-4.8,2.52-1.64,2.58-3.55,4-5.71,4.25-3.33.38-6.1-2.17-7.56-3.59a8.79,8.79,0,0,1-4.61-.32l-.26-.07c.28,4.31-.4,5.52-1.14,6.1a2,2,0,0,1-1.24.43h0a7.74,7.74,0,0,1,0,1,5.45,5.45,0,0,1-.71,2.2,13.53,13.53,0,0,0-.9,2.17l-.08.25-.17.21c-1.58,1.94-3.84,1.68-5.66,1.47l-.78-.08c-1-.1-1.82-.17-2.36-.88a1.89,1.89,0,0,1-.38-1.24,2.65,2.65,0,0,1-.78-.15,2.71,2.71,0,0,1-1.42-1.23,2.37,2.37,0,0,1-2.68-.91,2.33,2.33,0,0,1-.67-.08A3.44,3.44,0,0,1,129,49.75a3,3,0,0,1-2-.41,3.07,3.07,0,0,1-1.33-1.91,2.43,2.43,0,0,1-.46-.15c-1.06-.46-1.82-1.62-2.41-3.7a2.27,2.27,0,0,1-1.17-.43c-1.31-1-1.15-2.9-1-4.62l0-.27C105.91,40.62,83.83,36.55,81,36l-.44.08c-.75.61-2,1.63-4.19,3.26l-.58.44,3.38,1.33L79,46l4,17-1.25.4a11.9,11.9,0,0,1-4.53.14c-2.76-.29-4,.31-4.16.63-.53,1.15-2.11,2.56-3.82,4-.29.25-.51.43-.61.53s-.23.29-.44.57c-1.18,1.53-4,5.12-7.06,7-1.62,1-5.22,4.29-9,7.8S44,91.58,40,94.8l0,0a3.28,3.28,0,0,0,.61.51c.39,0,2.51-.17,4.06-.32,2-.19,4.05-.39,5.27-.39,1.43,0,5.84-1.88,8.52-3.22l2-1,.11,10c2.87.69,6.64,2.05,6.76,4.45s-2.05,5.13-3.64,7l-.15.19c-1,1.16-3.74,3.23-7.88,6.27-1.5,1.1-2.92,2.14-3.9,2.91-.79.62-1.2,1.25-1.06,1.66a1.81,1.81,0,0,0,1.69.82,20.37,20.37,0,0,1,2.37.24c1.28.19,1.81.27,2.69-.3A21.86,21.86,0,0,0,60,121.3c2.55-2.57,4.19-4.13,5.81-3.7s3.32,1.68,5.41,3.88c.73.56,1.2.69,1.39.64s.71-.33,1.4-2.68L76.83,110v9.84c0,2.45.23,2.48,2,2.72l1.48.2-.14,1.36c0,.15,0,.27,0,.37l.14,0c.61.08,4,.37,5.24.48l3.25.28-3.74,3.38H99.28V136l8.59.51a2.9,2.9,0,0,1,.18-.43,3.58,3.58,0,0,1,2.48-1.76,15.24,15.24,0,0,0,2-.78c2.29-1,5.43-2.36,8.43-1.08l.78.34.07.85c.09,1.13-.93,4.77-1.68,7.26l5.93,7.79.06.33a9.64,9.64,0,0,1-1.2,5.82,16.07,16.07,0,0,1-4.27,4.88v10.28l-11.82,1.35a27.32,27.32,0,0,0,3.09,2.37l.58.38.05.7c.31,4.2-4.56,5.62-7.47,6.48l-.19,0c-10,1.49-10.52,6.49-10.69,9.29l.56-.11,13.2-4.81-.6,47.92-.09,50.59c.91,0,2,0,2.61-.08a10,10,0,0,0,3.55-2.1l.33-.35a7.33,7.33,0,0,1,6.16-2.85h0a5,5,0,0,1,4.56,2.64l.16.33-.11,1.66,10.4.09.32,1a13.05,13.05,0,0,0,1.39,3.11c1.12,1.12.76,3.51.27,5.32l-.28,1H133l-.1,6.75h-3l-.07,8,23,.18c6.16.18,13.78.68,15.21,2s2.45,3.19,3.38,6.21c.69,2.24.83,6.65.83,10a9.63,9.63,0,0,0,.57,3c.87.12,2.85.3,4.19.4l1.17.09.8,7.2a28.48,28.48,0,0,1,4.86-1.41c.13,0,.42-.18.65-.29a13.41,13.41,0,0,1,3.27-1.16,4.47,4.47,0,0,1,.66-2.09,6.66,6.66,0,0,1,4.07-2.8,4.56,4.56,0,0,1,1.81-2.43,7.19,7.19,0,0,1,5.1-.8c2.17-1.87,3.83-1.31,4.48-.95,1.29.72,1.94,2.31,1.79,4.24a19.13,19.13,0,0,0,3.54-.87l1.88-.65v2a24.17,24.17,0,0,0,.11,2.45l.21.12a6.31,6.31,0,0,0,1.66.77c1,.23,7.44,2.39,9.58,4.65A4.15,4.15,0,0,1,223.87,341.51Zm-40.08-5.11Zm.12,0h0Zm25.76-1h0Zm0,0h0Zm.7-2.75h0ZM166.17,313.1h0Zm-31.54-23.43h0Zm-.13-.19ZM65.42,120.36,188.66,61.78h0Zm64.58-54Z"/></svg>