<svg id="Layer_1" data-name="Layer 1" xmlns="http://www.w3.org/2000/svg" viewBox="0 0 350 350"><defs><style>.cls-1{fill:#999;}.cls-2{fill:#f90;}</style></defs><title>M</title><path class="cls-1" d="M35.5,129.7C35.95,129,50.12,97,51.14,95.38c0,0,8.55-18.68,11.81-22.39,3.6-3.94,33.42-35.11,35.44-38.37,2.93-2.93,22.5-25.32,27.79-28.13-1.91,1.91-3.83,8.44-3.83,8.44l-3.15.9-1.35,4.28,1.69.79a1.87,1.87,0,0,0,.9,2.7c2,1,2,.11,3.83-1,1.8,0,3.15.56,4.61-7.2.56-1.8.9-3.15.9-3.15,1.58,4.05,4.28,15.53,6.75,17.67s9.9,3,11.59,3.49,3.6-2.36,4.61-2.59,11.14-4.16,13.5-3,5.51.45,6.64.11c1,1.13.34.34,2.36,1.69-3.15,1.46-4.05,1.35-5.85,3.83s-6.19,9.45-6.19,9.45,3.83,2.14,4.05,5.4c3,.56,10-1.35,11.36.11,1.35.9,4.84,4.28,4.61,5.06s-.11,1.35.68,3.15a39.29,39.29,0,0,0,4.84,7.54c1.91.68,5.29,2,10-2.48.56-.79,15.75-1.69,15.75-1.69a10,10,0,0,0,6.64,3.49,8,8,0,0,1,.9,4.67c0,1.41-.53,3,0,4.78a24.31,24.31,0,0,1,1.11,5.06,7.66,7.66,0,0,0,.56,2.36l4.05-.23a15.44,15.44,0,0,1-1,3.26c-.56,1-3.6,3.26-3.49,5.63-.11,2.36-.9,13.39-.9,13.39l7.88,1.46s9.34-.22,10.69,1c1.13.68,8.89,4.28,8.89,4.28s6.41,1.91,9.34,6.41c2,1.69,4.61,3.83,5.51,5.29s1.58,3.15,4.16.56c2.48-.68,4.73-2,5.85,0,1,1.8,5.85,7.09,6.86,8.33s.9,3.71,3.49,2.59a17.76,17.76,0,0,0,1.24,6.3c.9,2.36,3,8.1,4.39,10.24-.79,2.25-1,8.1-2.59,11.59s-4.28,11.48-4.05,13.73a3.93,3.93,0,0,1-2.59,3.94c-.68,2-.45,7.65,1.46,8.78,1.58-.45,4.61-2.14,5.51-1.13s5.18,6.41,5.18,6.41A5.32,5.32,0,0,0,298,189.9c-3.83,3.94-8.21,5.85-7.88,11,1.13,1.24,5.51,3.15,7.88,3.15,3.26,0,11.48.79,12.6,1-1.58,2.14-4.61,3.49-5,5.29a3.73,3.73,0,0,0,2.48,4.39c-.23,2-1.46,12.38.56,16.76,2.48,1.69,6.41,3.71,5.74,8.21-1,1.8-1.13,3.71-3.6,4.84s-8.1,1.69-10.24,6.64c-2.25,2.25-11.59,9-13.16,13.16-1.91,2.25-3.26,8.44-5.4,11.48s-5.4,6.53-10,4.5c-4.39-2-8.55-5.06-13.61,2.81-2.14,4.28-3.38,11.25-7,13.5-3,2-9.45-.34-11.7,0s-3.94-1-5.74,5.51c-1.8,2.7-4.73,9.79-5.74,16.54-.9,2.93-.34,5.51-3.71,5.74s-10.91,4.5-16.43,0c-5.51-2.36-11.59-6.19-14.85-5.74-3.83-.45-11.81-5.4-15.64.11-2.81,3-3.86,6.64-2.61,10-4-5.29-7.41-9.68-10.67-5.85-2.81,2.36-3.83,5.4-5.51,6.64s-1,7.31-1,10.91c-.34,3.49-2.25,3.49-4.39,2s-5.63-7.54-6.53-9-6-5-7.09-6-2.59-4.5-2.36-5.85c-3-1.58-4.39-5.85-4.39-10-.34-2.48.23-2.93-1.13-4.61s-9.11-7.31-9.45-7.43a44.58,44.58,0,0,1-3.26-3.38S126,279.68,127,276s.56-10.35,1.46-13.28,3.49-6.3,2.59-7.54-10.13-5.85-11.36-6.19-10.13,8-12.71,11.14S97.61,272,97.61,272L87,272.15l-.22-5.85-10.91-9.9-.34-16.65-14.63.68S58.11,226.13,62.5,223s18.68-7,20.59-14.06c1.35-7.2-6-11.14-6-11.14l7.65-10.13L75.1,180.9s-2.7-5.85-4.05-6.53-3.71.92-5.4.63A34.22,34.22,0,0,0,60,175a34.18,34.18,0,0,0,2.81,6.91c1.46,2.25,1.69,7.65,1.35,9.45s-8.89.9-8.89.9.9-6.3-.45-9.45c-1.35-2-1.13-8.1-1-11.81s-3.94-18.12-3-21.49c.79-3.6,1-5.4-4.16-9.34A136.81,136.81,0,0,1,35.5,129.7Z"/><path class="cls-2" d="M155.75,344.93a5.71,5.71,0,0,1-3.13-1.18c-1.89-1.29-4.36-5.16-6.53-8.77l-.4-.66c-.48-.78-3.28-2.91-4.79-4-.92-.7-1.65-1.25-2-1.61a12,12,0,0,1-2.82-6.1c-2.75-1.89-4.38-5.82-4.4-10.73a17.81,17.81,0,0,1-.14-1.86,2.41,2.41,0,0,0-.68-2c-1.1-1.37-8-6.41-8.94-7-.35-.15-1-.63-3.72-3.72l-.59-.66.33-.82c.07-.17,6.73-16.62,7.71-20.21a37.39,37.39,0,0,0,.73-6.83,30.33,30.33,0,0,1,.74-6.49,24.86,24.86,0,0,1,1.54-3.57,13.16,13.16,0,0,0,1.17-2.8c-1.17-1-8.3-4.74-10.21-5.47-1.83.92-8.92,7.38-11.54,10.57s-9.24,11.8-9.31,11.89l-.42.55-12.64.13-.25-6.63L74.49,257l-.32-15.81-14.39.66-.24-1.2c-.31-1.55-2.85-15.29,2.14-18.87A41.47,41.47,0,0,1,68,218.59c5.3-2.41,12.54-5.71,13.75-10,1.09-6-5-9.43-5.26-9.58L75,198.23,82.76,188,74,181.84l-.16-.35c-1.26-2.73-2.87-5.48-3.44-5.88a6,6,0,0,0-1.73.35,7.32,7.32,0,0,1-3.24.43,20.86,20.86,0,0,0-3.48-.08A24.7,24.7,0,0,0,64,181.14c1.77,2.73,1.9,8.66,1.56,10.49-.14.76-.58,3.09-10.43,2l-1.46-.15.21-1.46c.23-1.62.62-6.28-.31-8.59-1.36-2.23-1.33-7-1.18-12.21V171A60,60,0,0,0,51,162.43c-1.34-6.66-2.17-11.19-1.61-13.29.69-3.14.95-4.34-3.65-7.85a136.38,136.38,0,0,1-11.31-10.62l-.78-.82.6-.9c.35-.67,3-6.54,5.53-12.22,5.37-12,9.27-20.62,10.06-22s8.71-18.92,12-22.67c.94-1,3.58-3.82,6.93-7.36,9.41-10,26.94-28.5,28.38-30.82l.2-.25c.67-.67,2.31-2.47,4.38-4.74,9.43-10.34,19.81-21.54,23.74-23.63L133.9.79,127.19,7.5c-1.2,1.2-2.77,5.45-3.47,7.84l-.22.75-3.17.91-.75,2.36,1.95.91-.75,1.33a.81.81,0,0,0-.07.46.68.68,0,0,0,.34.26,2.38,2.38,0,0,0,.8.31l.45-.35a12.38,12.38,0,0,1,1.22-.88l.34-.22h.78c.91,0,1.7,0,2.85-6.05l0-.16c.54-1.73.87-3.06.88-3.07l1.08-4.32,1.61,4.15c.5,1.27,1.07,3.16,1.74,5.35,1.28,4.19,3.2,10.53,4.62,11.76,1.64,1.41,6.65,2.34,9.07,2.79.86.16,1.53.29,2,.4s1.5-.93,1.88-1.27a5.08,5.08,0,0,1,2.06-1.33c.15,0,.79-.26,1.41-.47,6.54-2.23,11-3.42,13-2.47,1.75.83,4.36.41,5.62,0l.86-.26.6.67c.24.27.36.4.45.48l.05,0a14,14,0,0,1,1.6,1l2.1,1.4-2.29,1.06c-.72.33-1.32.59-1.85.81a6.15,6.15,0,0,0-3.45,2.57c-1.31,1.81-4.09,6.14-5.41,8.22a9.24,9.24,0,0,1,3.32,4.49,36.1,36.1,0,0,0,3.93-.27c3.28-.34,5.88-.61,7.18.64.93.71,5.63,4.43,5,6.51-.08.29-.14.48.61,2.19a40.52,40.52,0,0,0,4.34,6.89c1.84.65,4.35,1.38,8.15-2.2.49-.6,1.9-1.28,16.73-2.16l.74,0,.46.58a8.66,8.66,0,0,0,5.61,3l.82,0,.37.74a8.6,8.6,0,0,1,1.06,4.74c0,.18,0,.37,0,.56a13.56,13.56,0,0,1-.12,1.55,6.78,6.78,0,0,0,.07,2.83,26.67,26.67,0,0,1,1.17,5.47,3.79,3.79,0,0,0,.15.89l4.8-.27-.36,1.79A16.11,16.11,0,0,1,228,84a8.15,8.15,0,0,1-1.17,1.44c-.87.94-2.19,2.35-2.14,3.43V89c-.09,1.9-.6,9.18-.81,12.16l6.49,1.2c4.34-.1,9.7,0,11.37,1.26.94.54,5.58,2.73,8.61,4.13.9.28,6.86,2.3,9.9,6.78,2.18,1.82,4.66,3.88,5.65,5.5l.21.35a6.15,6.15,0,0,0,.58.86,4,4,0,0,0,1.17-.91l.27-.27.36-.1c.47-.13.93-.28,1.38-.43,1.95-.65,4.62-1.54,6.09,1.11a69.44,69.44,0,0,0,5.23,6.39c.67.77,1.22,1.39,1.49,1.73a6.47,6.47,0,0,1,.87,1.55,4.18,4.18,0,0,0,.42.82,5.62,5.62,0,0,0,.53-.19l2-.86v2.16a16.33,16.33,0,0,0,1.14,5.8l.21.54c.93,2.46,2.88,7.58,4.06,9.45l.37.58-.23.65a26.62,26.62,0,0,0-.72,3.73,32.46,32.46,0,0,1-1.91,8c-1.77,3.92-4.1,11.3-3.93,13a5.44,5.44,0,0,1-2.8,5.13,12,12,0,0,0,.64,6.1l.58-.23c2-.8,4.29-1.7,5.62-.21.75.84,3.64,4.47,4.77,5.9a3.91,3.91,0,0,0,1.51-.62c.41-.37.81-.76,1.21-1.17l2.14,1.85a7.56,7.56,0,0,1-1.57,1.53c-.53.48-1.05.93-1.57,1.38-2.53,2.18-4.41,3.8-4.45,6.6a14.93,14.93,0,0,0,6.48,2.38c3.42,0,11.68.8,12.88,1l2.18.44-1.32,1.79a15.43,15.43,0,0,1-2.74,2.66c-.87.71-1.86,1.52-2,2a2.34,2.34,0,0,0,1.63,2.82l1,.41-.14,1.25c-1.08,9.64-.33,13.76.32,15.47l.43.28c2.51,1.65,6.31,4.14,5.57,9.08l0,.26-.13.23a12.78,12.78,0,0,0-.6,1.27,6.9,6.9,0,0,1-3.65,4.16,20.34,20.34,0,0,1-2.19.78c-2.64.83-5.92,1.87-7.33,5.13l-.11.25-.19.19c-.64.64-1.73,1.55-3.12,2.7-3.25,2.71-8.7,7.25-9.73,10l-.09.23-.16.19a21.6,21.6,0,0,0-2.42,5.15,30,30,0,0,1-2.9,6.22c-1.71,2.31-5.67,7.65-11.74,5l-1.23-.58c-3.87-1.88-6.68-3.23-10.58,2.8a44.45,44.45,0,0,0-1.76,4.4c-1.39,3.84-2.82,7.8-5.7,9.6-2.42,1.61-6.16,1-9.17.52a14.62,14.62,0,0,0-3.08-.32,10,10,0,0,1-1.32.09c-1.28,0-2.06,0-3.26,4.4l-.06.22-.13.19c-1.69,2.53-4.54,9.49-5.52,16l0,.21a17.65,17.65,0,0,0-.44,1.88c-.4,2.05-.89,4.61-4.54,4.85a18.16,18.16,0,0,0-3.05.71c-3.82,1.09-9.57,2.74-14.21-.9-1.58-.68-3.19-1.48-4.76-2.24-3.58-1.76-7.28-3.57-9.16-3.32l-.18,0-.18,0a21.67,21.67,0,0,1-3.9-1c-4.63-1.52-8.33-2.44-10.41.55l-.12.15c-2.53,2.73-3.35,5.77-2.32,8.56l3.32,8.93-5.78-7.57c-2.39-3.14-5.1-6.69-6.89-6.74-.19,0-.75,0-1.57.95l-.17.17a17,17,0,0,0-3.13,3.77,11.33,11.33,0,0,1-2.46,2.93c-.72.69-.57,5.07-.5,7.17,0,.93.06,1.82.06,2.6v.14c-.2,2-.92,3.37-2.15,3.95A3.08,3.08,0,0,1,155.75,344.93Zm-32.83-46.56c.87.29,8.76,6.2,10.11,7.89a5.08,5.08,0,0,1,1.3,3.65,14.85,14.85,0,0,0,.13,1.66v.19c0,4.18,1.42,7.61,3.62,8.76l.92.47-.17,1a9.29,9.29,0,0,0,1.91,4.56c.31.28,1.06.85,1.86,1.45,2.68,2,4.79,3.68,5.49,4.82l.42.69c1,1.67,4.07,6.77,5.7,7.89,1,.69,1.54.71,1.65.66s.4-.43.52-1.58c0-.73,0-1.56-.06-2.43-.17-4.92-.15-8.24,1.65-9.56a9.51,9.51,0,0,0,1.78-2.22,19.84,19.84,0,0,1,3.57-4.28,4.76,4.76,0,0,1,3.73-1.85c2.15.06,4.11,1.76,6.15,4.15a12.67,12.67,0,0,1,3.29-6.35c3.46-4.86,9.54-2.87,13.56-1.55a23,23,0,0,0,3.19.9c2.73-.26,6.38,1.53,10.6,3.6,1.59.78,3.23,1.59,4.8,2.26l.18.08.15.13c3.51,2.87,8.1,1.56,11.79.5a19.11,19.11,0,0,1,3.64-.82c1.38-.09,1.53-.41,1.94-2.56a20.94,20.94,0,0,1,.48-2.08,50.74,50.74,0,0,1,5.82-16.82c1.48-5.25,3.09-6.21,5.88-6.27a7.38,7.38,0,0,0,1-.06,14.44,14.44,0,0,1,3.95.33c2.39.39,5.65.91,7.18-.1,2.08-1.3,3.35-4.8,4.57-8.19a45.38,45.38,0,0,1,1.92-4.77l.08-.13c5.29-8.23,10.25-5.82,14.25-3.88l1.16.55c3.3,1.45,5.7-.57,8.28-4.06a28.48,28.48,0,0,0,2.55-5.57,24.07,24.07,0,0,1,2.75-5.79c1.43-3.37,6.64-7.72,10.47-10.91,1.15-1,2.15-1.79,2.75-2.36,2-4.24,6.17-5.56,9-6.45a18.19,18.19,0,0,0,1.87-.66c1.33-.6,1.68-1.43,2.22-2.69.18-.42.36-.85.6-1.3.3-2.77-1.62-4.27-4.35-6.06l-.81-.54-.32-.22-.16-.36c-1.37-3-1.64-8.54-.79-16.55a5,5,0,0,1-2.35-5.46c.29-1.54,1.58-2.6,3-3.72l.31-.25c-2.95-.29-7.37-.65-9.52-.65-2.8,0-7.55-2.1-8.92-3.61l-.33-.37,0-.49c-.24-3.68,1.52-6,3.76-8-1.4-1.77-4.09-5.14-5-6.16a11.49,11.49,0,0,0-2.59.81c-.58.23-1.13.45-1.61.58l-.58.17-.52-.31c-2.8-1.65-2.83-8.22-2.09-10.45l.28-.83.87-.12a2.72,2.72,0,0,0,1.38-2.39c-.28-2.82,2.79-11.41,4.17-14.45a31.13,31.13,0,0,0,1.69-7.24c.21-1.39.4-2.62.65-3.58a89.52,89.52,0,0,1-4-9.39l-.2-.54a20.06,20.06,0,0,1-1.24-5.1c-1.73-.09-2.44-1.7-2.79-2.5a4.43,4.43,0,0,0-.47-.9c-.26-.32-.78-.92-1.43-1.65a62,62,0,0,1-5.57-6.88c-.25-.45-.53-.53-2.72.2l-1.17.37a4.33,4.33,0,0,1-3.28,1.48,3.84,3.84,0,0,1-2.63-2.25l-.19-.31c-.76-1.23-3.24-3.3-5.06-4.81l-.32-.27-.12-.18c-2.6-4-8.5-5.81-8.56-5.83l-.19-.07c-.8-.37-7.87-3.65-9-4.35l-.23-.17c-.81-.48-5.69-.74-9.7-.64h-.15l-9.27-1.72.09-1.26c0-.11.77-10.86.9-13.3-.07-2.25,1.72-4.16,2.9-5.42a9.36,9.36,0,0,0,.77-.88,6.14,6.14,0,0,0,.4-1.05l-3.13.17-.39-.93a8.87,8.87,0,0,1-.67-2.91,23.42,23.42,0,0,0-1-4.65,9.39,9.39,0,0,1-.18-4,11.34,11.34,0,0,0,.1-1.23c0-.22,0-.42,0-.63a5.64,5.64,0,0,0-.44-2.72,11.47,11.47,0,0,1-6.28-3.36c-6.22.38-13,1-14.32,1.39-5.18,4.84-9.23,3.4-11.19,2.71l-.44-.16-.23-.23a40.18,40.18,0,0,1-5.13-8c-.71-1.61-1-2.57-.83-3.71a20.26,20.26,0,0,0-3.94-3.9l-.26-.22c-.53-.29-3.27,0-4.9.16a22.34,22.34,0,0,1-5.68.16l-1.08-.2-.08-1.1c-.17-2.43-3.3-4.24-3.33-4.26l-1.3-.73.79-1.26c.18-.29,4.43-7,6.24-9.53a8.22,8.22,0,0,1,3.35-2.94,10.39,10.39,0,0,1-6-.57c-.66-.28-3.09-.07-10.87,2.59-1,.34-1.45.49-1.71.55-.07,0-.51.44-.81.7-1.13,1-2.68,2.36-4.48,1.88-.32-.09-1-.21-1.75-.35-4.14-.77-8.36-1.67-10.4-3.43-1.89-1.63-3.46-6.45-5.48-13.08l-.19-.61C128.68,23,127.27,24,124.69,24c-.23.16-.43.32-.62.48-1.13.9-2.1,1.46-4.25.38a3.25,3.25,0,0,1-1.81-2,3.16,3.16,0,0,1-.13-1.23l-1.74-.81L117.66,16c-4.87,5-10.36,11-13.79,14.76-2.08,2.29-3.62,4-4.37,4.73-1.89,2.77-15.16,16.87-28.62,31.12-3.34,3.53-6,6.32-6.88,7.31-2.55,2.9-9.22,16.88-11.57,22l-.1.18c-.6,1-6.21,13.48-9.92,21.75-3.14,7-4.55,10.13-5.2,11.53a130,130,0,0,0,10.32,9.63c5.44,4.14,5.6,6.45,4.66,10.75-.45,1.69.75,7.69,1.63,12.07.8,4,1.49,7.42,1.44,9.16v.3c-.09,2.95-.28,9.09.78,10.68l.12.23c1.08,2.53.92,6.54.72,8.72a20.34,20.34,0,0,0,6-.21c.24-2-.11-6.4-1.2-8.08a35.08,35.08,0,0,1-3-7.29l-.49-1.68,1.74-.13a33.91,33.91,0,0,1,6,0,5.68,5.68,0,0,0,2-.36c1.22-.35,2.6-.76,3.83-.14,1.49.74,3.42,4.46,4.54,6.85l10.57,7.37-7.62,10.09c2.28,1.67,6.46,5.64,5.31,11.76l0,.11c-1.51,5.6-9.17,9.09-15.32,11.89a41.14,41.14,0,0,0-5.81,3c-2.34,1.68-2.15,9.29-1.23,14.82l14.84-.69.35,17.5,10.9,9.89.19,5.07,8.51-.09c1.53-2,6.72-8.7,8.95-11.42.1-.13,11.26-12.41,14.18-11.61,1,.28,10.87,5,12.14,6.72,1.07,1.47.11,3.4-1,5.65a22.47,22.47,0,0,0-1.37,3.14,29.81,29.81,0,0,0-.62,5.8,39,39,0,0,1-.83,7.42c-.91,3.32-6.1,16.26-7.49,19.71,1,1.13,2.1,2.27,2.38,2.48A1.13,1.13,0,0,0,122.92,298.37Zm-1-286.52c-.8.76-1.65,1.59-2.54,2.48l1.88-.54C121.39,13.29,121.61,12.61,121.89,11.84Z"/></svg>