<svg id="Layer_1" data-name="Layer 1" xmlns="http://www.w3.org/2000/svg" viewBox="0 0 350 350"><defs><style>.cls-1{fill:#999;}.cls-2{fill:#f90;}</style></defs><title>M</title><polygon class="cls-1" points="186.62 19.09 181.64 26.84 173.16 36.8 168.35 45.1 162.82 51.19 157.84 55.61 155.07 60.04 157.29 63.36 157.29 69.45 157.84 77.75 155.07 77.75 151.2 83.25 147.32 83.25 145.11 88.82 139.57 94.36 139.57 98.78 139.57 102.66 141.79 102.66 141.79 113.17 142.34 119.81 142.34 125.9 144.56 130.88 142.9 142.51 146.22 146.93 142.34 146.93 141.79 155.24 141.79 162.21 139.57 165.75 139.57 167.97 136.81 170.73 131.27 170.73 127.4 166.86 121.31 165.75 113.01 165.75 105.26 165.75 105.26 167.97 100.28 170.73 94.19 170.73 91.42 170.73 87.55 175.16 84.23 177.93 81.46 185.56 81.46 191.21 81.46 196.74 85.89 208.92 88.1 214.46 90.32 218.88 93.64 222.76 94.19 226.63 95.3 234.93 95.3 237.7 93.08 242.13 90.32 244.34 85.89 248.77 81.46 251.54 87.55 255.96 94.19 260.94 99.73 267.12 97.51 267.12 95.85 272.01 94.19 274.78 90.87 277 90.32 281.98 94.75 284.19 96.96 284.19 99.17 284.19 96.41 287.51 93.08 292.49 89.76 292.49 85.34 292.49 83.68 295.81 84.78 300.79 84.78 304.67 82.63 308.33 84.6 312.02 84.4 313.92 84.11 316.69 82.63 317.92 81.4 319.89 79.92 322.35 82.88 327.02 82.88 331.2 86.81 330.96 90.26 330.96 94.93 333.17 97.64 335.39 98.62 343.75 103.54 342.03 105.51 338.58 100.83 334 103.29 331.2 107.7 324.67 110.18 321.61 115.35 317.92 118.3 314.72 121.74 310.05 127.63 303.83 130.11 301.44 133.27 300.21 136.26 298.54 137.24 293.81 140.19 292.34 144.62 290.62 145.14 286.62 143.66 282.93 142.9 280.53 145.11 278.32 148.58 278.04 149.95 275.33 148.31 273.27 148.56 271.25 148.8 269.21 151.26 268.23 153.47 267.12 154.14 270.08 156.67 269.71 159.13 269.71 161.21 265.68 161.84 263.31 164.05 261.34 164.79 259.87 166.27 257.01 166.51 253.47 170.2 252.24 171.09 250.84 169.47 248.55 170.45 244.12 172.14 241.19 173.16 239.45 174.98 237.89 177.58 234.53 177.71 232.19 175.37 230.84 178.22 228.98 181.06 227.35 182.26 224.69 185.6 222.18 186.44 220.51 189.82 217.55 188.9 215.83 188.13 213.4 187.42 211.16 185.95 207.96 185.95 205.5 187.27 203.46 184.72 202.55 185.46 199.11 187.23 197.53 188.41 193.94 190.76 193.12 191.36 191.73 195.54 190.33 196.28 189.76 194.31 186.56 194.06 185.56 193.82 182.63 197.75 182.87 197.75 181.42 201.44 181.42 203.9 181.64 207.1 181.64 210.05 181.64 211.28 180.17 212.51 177.71 211.28 176.72 211.28 174.26 211.28 171.56 213.74 169.34 216.17 166.41 217.19 163.69 217.78 160.84 216.45 159.01 213.74 157.29 214.73 155.07 215.96 153.6 213.74 152.37 214.73 148.93 216.2 146.47 217.14 144.91 218.85 142.05 220.78 139.5 222.05 138.34 222.84 134.41 222.84 131.71 224.32 131.71 226.04 131.71 226.04 130.23 226.04 127.52 229 127.03 229 126.05 232.62 124.08 232.62 122.36 234.41 119.9 232.62 116.7 235.39 114.24 235.39 112.52 238.1 112.03 239.57 111.04 241.74 110.94 241.74 107.6 243.51 104.89 244.74 104.65 248.1 103.44 248.1 100.47 250.88 98.81 254.52 97.11 257.03 95.73 259.44 93.65 260.73 92.1 259.74 89.89 260.73 86.94 263.68 85.71 265.89 84.48 268.6 83.25 270.07 81.77 268.11 79.06 267.86 76.6 267.86 74.88 268.85 73.41 267.37 70.95 264.66 68.49 264.42 67.01 262.45 64.3 261.96 62.09 261.96 59.14 262.7 55.2 263.68 52.99 263.43 50.28 263.43 47.33 263.93 44.87 262.7 43.64 259.01 43.4 256.3 44.38 252.36 44.38 251.63 43.4 248.67 43.4 245.48 46.1 244.49 47.82 245.23 51.27 246.21 53.73 243.02 55.69 240.56 55.69 238.59 57.42 236.13 58.65 234.41 57.66 232.62 60.61 232.62 63.57 230.22 63.81 228.75 63.81 226.78 64.3 226.04 65.78 224.57 66.76 222.84 67.01 219.89 66.52 220.63 68.49 222.11 69.96 218.91 70.45 218.91 71.93 218.17 74.64 216.7 74.64 214.97 74.14 212.27 73.65 209.56 75.62 208.33 73.9 208.33 72.18 210.3 70.45 211.28 68.73 210.05 66.27 210.05 64.06 209.81 61.35 211.28 58.15 214.48 55.2 216.2 53.48 217.43 52 219.16 51.51 224.07 48.56 226.53 45.61 228.01 43.89 228.01 42.66 226.29 39.7 225.8 37.74 226.29 35.28 227.52 34.05 230.22 35.28 232.62 37.98 234.41 38.23 234.65 35.77 236.62 32.82 240.06 30.85 240.8 29.62 241.54 27.41 241.05 24.7 239.33 21.75 237.85 19.09 234.9 19.09 232.62 14.86 228.75 10.92 225.55 8.96 222.11 8.96 217.93 6.25 216.7 7.48 214.97 8.96 213.25 12.4 210.05 12.4 207.35 11.17 207.1 12.65 206.36 14.61 205.63 16.58 205.38 18.06 204.64 21.01 203.9 23.47 201.2 23.47 198.49 23.47 195.05 22.73 191.11 20.52 186.62 19.09"/><path class="cls-2" d="M97.42,345.67l-1.12-9.55-2.13-1.74-4.23-2H86.81l-5.35.34v-5.28l-3.2-5.07L81.55,317l1.21-1,.39-3.67-2.14-4,2.36-4v-3.33l-1.18-5.32,2.28-4.55h7.87l3-4.47.83-1H94.41L88.8,282.8l.74-6.62,3.6-2.4,1.42-2.36,1.94-5.71h.06L93.23,262l-6.53-4.9-7.77-5.65L85,247.65l4.43-4.42,2.52-2,1.92-3.85V235l-1.59-11.66-3.24-3.85L86.79,215l-2.21-5.53L80,197V185.31l3-8.22,3.53-2.94,4.22-4.83h9.13l3.93-2.18v-2.8l17.72,0,6.52,1.19,3.77,3.77h4.36l1.94-1.94v-2l2.21-3.54v-6.57l.64-9.72h2.37l-2-2.63,1.69-11.8-2.17-4.88v-6.33l-.55-6.7v-9.1h-2.21V93.77L143.9,88l2.46-6.2h4.1l3.87-5.49h2l-.45-6.79V63.79l-2.48-3.73,3.36-5.38,5.08-4.51,5.38-5.92,4.87-8.38L180.5,26,186,17.41l5.79,1.88,3.75,2.11,3.09.66h4.21l.44-1.45.71-2.83.31-1.69,1.43-3.81.53-3.16L210.36,11h2l1.46-2.92,1.9-1.63,2-2,4.79,3.1H226l3.81,2.39,4,4.08,2,3.66h2.94l1.88,3.39,1.83,3.14.6,3.31-1,2.84-.93,1.55-3.48,2L236,36.26l-.36,3.57-3.77-.52-2.54-2.87-1.54-.7-.23.23-.35,1.73.37,1.46,1.81,3.11v2.14l-1.82,2.12L225,49.65l-5.47,3.22-1.3.37-1,1.24-1.72,1.72-3,2.8-1.2,2.6.22,2.46v1.88l1.42,2.84-1.48,2.59-1.66,1.46v.62l.13.19,2-1.48,3.44.63,1.53.44h.19l.4-1.48v-2.5l1.8-.28-1.59-4.24,5.16.86,1.19-.17.9-.6.86-1.72,2.94-.69h1.4l1-.11V60.22l2.71-4.47L236.17,57l1.62-.81,2.23-2h2.59l1.84-1.13-.61-1.58-.85-4,1.38-2.41,3.79-3.2h4.18l.74,1h3l2.75-1,4.52.3,2.14,2.14-.61,3.07v2.75l.27,3-1.07,2.4-.68,3.64v2.66l.39,1.77,2,2.74.22,1.32,2.5,2.27,2,3.41-1.24,1.86v1.22l.2,2,2.45,3.37-2.51,2.52-2.89,1.31L264.23,87l-2.36,1-.61,1.82,1.12,2.52-2,2.39L257.71,97l-2.51,1.38-3.65,1.71-2,1.2v3.16L245,106l-.65.13L243.16,108v4.27l-3.13.15-1.39.93-1.83.33v1.18l-2.4,2.13,1.67,3-2,2.82v2.1l-3.62,2v1.34l-3,.49v4.4h-3.2l0,1.57-.88,4.38-1.52,1.39L220,142.85l-4,6.65-.62,2.18,2.73,1.51-2.2,2.64-.41.92,1.9,1.21,1.86,2.55-.78,3.67-1.1,2.94-2.72,3.27-2,1.79V176l1.59,1.27-1.92,3.76-1.65,2h-6.94l-2.4-.22-2.21,0v1.51l-3.8-.24.1,1.19.17.68,2.52,4.09-1.93,1.5-3.81,1.27-.59,1.39-2.28.79-1.08,3.29-1.71,1.52-.38,1.78,3.08,1.1-2.07,3.19v1.73l1.41,3.08,1.44,4.55,1.4,2.59-4,3.52-.86,1.72-3.32,2.49-1.23,2.75-3.25,1.85-.85.56,1.1.64L179,235,175.9,239l-1.64,1.41-2.48,4.28-.8,3.6,1.82,2.55-1.67,2.63-3.27,1.09-.2,2.88-2.46,4.82-2.1,1.87-.63,2.25L160,271.12h-3.22l-3.73.56-.56-2.48-.7.34-1.68.67-.32,2.63,1.84,2.3-2.15,4.23-3.74.3-1.23,1.23.49,1.53,1.59,4-.67,5.2-5.15,2-2.28,1.14-1,4.69-3.73,2.07-2.9,1.13-2.28,2.2L122.83,311l-3.49,4.72-3.17,3.39-5,3.58-2.32,2.86-4.49,6.63-1.57,1.79,4.5,4.41-2.77,4.85Zm-7.16-16.13h.32l5.25,2.53L99,334.65l.84,7.18,2.75-1,1.16-2-4.85-4.76,3.29-3.74,4.43-6.56,2.6-3.21,5.2-3.72,2.8-3,3.51-4.74,5.88-6.21,2.73-2.64,3.34-1.3,2.33-1.31,1-4.77,3.69-1.84,3.64-1.42.36-2.79-1.37-3.44-1-3.22,3.19-3.19,3.2-.26.6-1.19-1.45-1.81.67-5.48,3.19-1.27,3.78-1.89.77,3.44,1.44-.2h1.6l1.61-3.12.7-2.64,2.33-2.07,2-3.85.29-4.19,4.11-1.37.11-.17-1.44-2,1.17-5.26,2.94-5.07,1.9-1.63,2.25-2.89.05-1-3.58-2.07,4.77-3.12,2.52-1.44,1.15-2.57,3.37-2.53.81-1.62,2.74-2.4-.49-1-1.45-4.59-1.57-3.4v-3.19l.58-.89-2-.73,1.1-5.11,1.83-1.63,1.28-3.89,2.43-.84.6-1.41,4-1.33L193,187.12l-.33-1.44-.38-4.57,4.07.25V180h5.24l2.4.22h5.42l.7-.84.64-1.29-.87-.69v-6.48l2.85-2.57,2.21-2.67.9-2.4.44-2.12-.8-1.1L212,157.83l1.56-3.51.26-.31-1.7-.95,1.44-4.86,4.21-7,2.11-2.74.93-.85.67-3.33v-4h3.2v-4l3-.49v-.63l3.62-2V121.9l1.53-2.1-1.9-3.4L234,113.6v-2.27l3.58-.65,1.56-1,1.21-.06v-2.41l2.32-3.56,1.71-.34,2.32-.83V99.66l3.6-2.13,3.63-1.7,2.3-1.27,2.21-1.91.65-.78L258.23,90l1.36-4.08,3.47-1.45,2.25-1.24,2.47-1.12.44-.44-1.48-2-.29-3V74.45l.73-1.09-.91-1.51-2.92-2.65-.27-1.63-1.94-2.67-.59-2.81,0-3.21.84-4.25.83-1.88L262,50.28l0-3.23.34-1.72-.32-.32-2.86-.19-2.66,1h-4.9l-.74-1h-1.72L246.58,47l-.59,1,.6,2.8L248,54.31l-4.56,2.8h-2.33l-1.87,1.57-3.14,1.57-1.18-.67L234,61v3.83l-3.81.38h-1.3l-1.17.29-.62,1.23-2.06,1.37-2.26.32-.28,0,2.54,2.54-4.76.73v.45l-1.07,3.93H216.5l-1.85-.53-2-.37-3.37,2.45-2.33-3.26V71.53l2.27-2,.49-.86-1-2.08V64.12l-.27-3,1.75-3.8,3.4-3.14,1.64-1.64,1.47-1.76,2-.56,4.55-2.73,3.45-4.11V43L225,40.24l-.62-2.47.64-3.19,2.23-2.23,3.87,1.76,2.07,2.34.12-1.18,2.35-3.52,3.41-2,.47-.78.57-1.72-.38-2.1L237,20.5h-3l-2.59-4.79L227.86,12l-2.71-1.67h-3.46l-3.57-2.31-.5.49-1.5,1.29-2,4h-4.38l-1.34-.61L207,17l-.25,1.45-.74,3L205,24.89l-6.76,0-3.65-.78-4-2.25-3.32-1.06-4.51,7-8.4,9.86-4.91,8.43-5.64,6.19-4.83,4.29L156.76,60l1.94,2.92v6.52l.65,9.72h-3.55l-3.87,5.49h-3.65l-2,5L141,94.94v6.3h2.21v11.87l.55,6.7v5.79l2.26,5.08-1.63,11.44,4.67,6.23h-5.38l-.47,7v7.29L141,166.16v2.39l-3.6,3.6h-6.71l-4-4-5.53-1h-14.5v1.63l-6,3.35H92.07l-3.61,4.1-3,2.52-2.55,7v10.69l4.34,11.94,2.18,5.44,2.11,4.22L95,222.15l.61,4.28,1.12,8.5V238l-2.5,5-2.95,2.36L86.64,250,84,251.63l4.39,3.19L95.25,260l7.65,8.54H98.53l-1.46,4.2-1.82,3-3,2-.37,3.34,3.24,1.62h7.12l-4.66,5.59-3.7,5.55H86.21l-1,2.09,1,4.8v4.26l-1.95,3.31,1.8,3.37-.6,5.68-1.74,1.45-2.12,3.47,2.71,4.28v3.08l2.43-.15Z"/></svg>