<svg id="Layer_1" data-name="Layer 1" xmlns="http://www.w3.org/2000/svg" viewBox="0 0 350 350"><defs><style>.cls-1{fill:#999;}.cls-2{fill:#f90;}</style></defs><title>M</title><path class="cls-1" d="M227,117.91h0Z"/><path class="cls-2" d="M228.1,120.48,220.56,115l8,1.82Zm-2.51-2.73,1.39.17Z"/><path class="cls-1" d="M343.54,175.51l-2.11-2.72-4-1.16v-2.24s-3-.61-3.6-.2-2.86-.14-4.69-.61-.68-2-2.31-1.9-.41-2.38.07-3.33-.54-2.31-.2-3.6,2.24-.14,3.4-.34.07-3.81.07-3.81l-.61.14a11.21,11.21,0,0,1-4.56-.54l4-1s.07-1.22.07-2-1.16-4.49-1.29-5.92,2.45-2.24,2.45-2.24l-.41-2.18,2.92-1.63-1.43.07-.48-.48c-.48-.48,0-1.9,0-1.9l.68-.07c.68-.07,3.94-.82,3.94-.82l-.41-1c-.34-1.77,1.16-6.87,1.16-6.87s-1-1.43-1.77-2.58-2.52-.88-3.6-.88a4.2,4.2,0,0,1-2.31-1.29l-3.88,1-1.9-5.85,3.33-1.77-5.1,1.36v3l-2.38,2.11v1.56s-2,.75-4,1.29-6.33-1.43-6.33-1.43l.48,1.84s-3.81.54-6.53.68c-.48,1.16-4.15,1.5-5.24,1.9a27,27,0,0,1-7.21,1.43c-2.11-.07-1.16-1.9-1.16-1.9s-4.08-2.18-5.64-2.72-2.24-3.47-2.24-3.47l-6.8,3.4a22.09,22.09,0,0,1-6.6,1.63V130l-13.06,1.22-3.4-2.11s-1.16,2.31-2,2.65-3.33-.41-3.67-.61-3.47-2-3.47-2l-5,.34-.82-2.24-2.45,1.56a13.27,13.27,0,0,1-3.06-1.63,3.45,3.45,0,0,0-1.36-3.33c-.68-.68,0-2.31,0-2.31l-3.81.61a3.82,3.82,0,0,1-.82-1.84c0-.82,3.88-1.56,3.88-1.56l-1.21-.87a8.66,8.66,0,0,1-2.12.26c-2.45.2-2,1.84-2.92,2.79a15.32,15.32,0,0,0-2,3.26l-3.33-.27-1.84-4.49-1.43-.54a1.86,1.86,0,0,0-1.36,1.36c-.41,1.22-1.56.75-1.84-.54a2.7,2.7,0,0,1,.88-2.31,16.41,16.41,0,0,1-3.47-1.36c-.82-.61,0-1.84,0-1.84s-1.77.48-2.72.61-2.38.34-2.11-.88.61-3.2.61-3.2l-6.94.88-5.1-2.11a2.45,2.45,0,0,1,0,1.43c-.2,1-2.58,1.36-5.17.88a2,2,0,0,1-1.77-2.72,4.81,4.81,0,0,1-1.77.82,24,24,0,0,0-3.06,1.22,45.69,45.69,0,0,1-4.62-3.6c-.82.27-.54,1.36-.75,3.2s-2.31-.41-2.31-.41a14.49,14.49,0,0,1-3.2.2c-.48-.2-1,.75-1,1.77s-.41,1.63-3.74,1.43-2.65-1.36-2.92-2.18-2.58-2-5-3.67-3.26-1.5-4.28-1.56-1-3.6-1-3.6a17.67,17.67,0,0,1-2.58-.34c-1.9-.34-1.43-5.71-1.43-5.71a6.45,6.45,0,0,1-3.13-1c-.54.07-4.28,1.36-4.28,1.36L136,98.25s-.88-.34-.61-3.06c.41-3.67-.68-4.08-1.22-6.12s-1.77-1.77-3.67-2-4.76-3.2-6.19-4.15-4.15-3.4-5-4.15-8.84-2.52-9.39-2.65-3.94-3.33-4.15-3.4-3.4-1-3.4-1l-1.29-2.11L99,69.35l-9.59-8s-1.09,2.45-1.7,2.45-1.77-1.7-1.77-1.7l-1-.27c-2,0-5.17-2.24-5.17-2.24l-2.58-.41a3.43,3.43,0,0,1-2.52,1.29c-1.36-.14-1.36-1.9-2-2.72a9.21,9.21,0,0,0-4.49-2.11c-1.29-.14-1.22-3.13-1.9-5.44S64.56,49.08,63.95,48s-1-2.86-2-3.2-2.11-2.58-2.11-2.58L58.91,41c-1.56,2.72-2.65.07-4.22-1s-1.9-2.52-2.58-4.08-3.06-2.58-4.42-3.54-1.9-1.5-2.92-1.29-.82,1.9-.61,3.6-1.09,1.36-3.06.82a4.81,4.81,0,0,0-3.94.34c-1,.48-1.5.14-2-.88a9.74,9.74,0,0,0-2.45-2.31,11.88,11.88,0,0,1-.75,2.86A26,26,0,0,1,29,37.11l.14,2-3.67,1.63s-.27,4.28-.27,5.3-.75,4.15-2.11,5.51a8,8,0,0,0-1.84,2.79S24.16,64.93,25,67.24s-.07,2.52.41,3.33a2.32,2.32,0,0,1,.2,1.7l-.48,2.79,4.08,1.43,1.09-.88,2.92-.48s.27-.48.68-1.22.88-.61,2-.88c1.77-.82,2,1.36,2,1.36l.54-.14c.54-.14,1.43.68,1.43.68a28,28,0,0,0,.61,2.86c.41,1.5,1.22,1.63,2.58,2.24s.61,1.5.61,2.58,2,1.5,3.33,2.72-.27,2.38-.27,2.38a11.84,11.84,0,0,1,1.16,1.7,7.47,7.47,0,0,0,1.36,1.84,9.28,9.28,0,0,1,1.36,2.52s.34.48,0,4-2.92,5-2.92,8.23-2,5.71-2.11,9.18-1.22,3.4-1.84,4.83-.2,1.9.34,3.33a1.59,1.59,0,0,1-.48,2l.48,2.18-1.22.75.68,1.43v1l-2.92,3.06L35,136.81l-1.77,4.9-4.49,2.52,2.52,8.64L15.73,169l.41,1.63h1.09l.88,3.4h2.45L23,182.38a6.43,6.43,0,0,1-4.42,1.43c-3,0-3.67-.75-3.67-.75s-2.52-.07-4.59,0-3.86-1.9-3.86-1.9l1.38,6.94.88-.41c.88-.41,1.6,3.81,1.6,3.81l-1,1.22s1.56,3.88.75,4.22-.41,1.22-.41,1.22-.54-.14-1-.27-.27,0-.68-.07-.88.07-1.5,1.43,2.18.41,2.18.41a4.85,4.85,0,0,0,2-1.22l1.5.27,3.26-2.58-.14,3.13,1.9-1.63,2.86-1.36v-1.5l1.36-.54.82-.54.27-1.22,1-.27.68.82a4.68,4.68,0,0,0,2,.68c1,0,1.36-1.09,1.36-1.09l-.68-1.36H28L27.56,190h1.36l.82,2.7a8.6,8.6,0,0,1-2.52,1.9c-1.84,1-2.38,3.67-2.38,3.67l2.79-.2.61,2.38,2.18-.34.75.34,2.24-.68,1.5.34,3.33-1.22-.54-1.56,1.22-.48-.27-1.16,1.09-.34.54.82,1.7-.27.82.27.82-.27.82-.75,1.84-.75,2.18,8.16s2.45-2.92,2.86-3.2,4.42-2,4.42-2l.41,2.52,1.09.14.14.88,1.36-.34,1,2,.75-.68c.75-.68,2.24.48,2.24.48l2-.88-1-4.56L66,195.92l1,.2,3.26-1-.41-1.7-1.16.34-1-3.4c-3.81,4.62-7.89,5.51-7.89,5.51l-.48-1.56,1.09-.54-3.2-11.15,3.06-1.09c1.16-.41,1-1.5.68-2.45a22.18,22.18,0,0,1-.48-2.45l-1.22.07L59,175.58c-1.16.27-3.6-.54-3.88-.54s-1.56.2-1.9.68-3.54.07-3.54.07l-2.45.75L46.94,175l-1.09.41-1-3.47-6.26,1.84.54,1.7-2.18,1,.41,2.86-11,2.65-.75-2.79,1.29-.75-2.11-8.64a6.44,6.44,0,0,0,.34-1.16,2.85,2.85,0,0,0-.48-1.63l2-.88-.2-1.29,2.24-.41-.07-.68.88-.2-.82-3.33L36.4,158l-.14-.68.88-.68-.54-1.29,1.09-.75v-1s1.63-.41,1.84-.82,2-.61,2-1,.75-.75.75-.75l.07-1.43A47.85,47.85,0,0,1,48,148.51c8.71,4.56,24.76,10.07,24.76,10.07l3.47-.82.54,2.31s47.2,4.9,51.76,5.3c0,.61-4.35,10.2-4.35,10.2L111,177.69l-.27-2.52-1.9.14-.48-2.31,2.11-.68-.68-4-2.58.34.2,1.09-1.84.41.07,1.43-1.9.2.07,1.63-1.7.2v1.09a5.54,5.54,0,0,0-1,.27c-.27.14-1.09-.2-1.43-.48s-1.16.07-1.16.07L98,172.32l-1,.14-.41-.82-1,.34-.61-.88-2.86.68,1.5,6.26-1.22.34.27,1-1.09.48,1.29,4.42,1.22-.2s.14.61,1.63,5.24c.68,0,.68-1,.68-1l2.24-.27.54,1.43,2.38-.61a15.17,15.17,0,0,1,6.12,4.76l2.11-.14s2,7.69,2.52,10.81c-1.22.27-.82,1-.82,1a4.18,4.18,0,0,0-.82,1.09c-.48.82,2,6.67,2,6.67s8.16-1.77,12.11-2.24c2.58,2.24,1.7,7.55,2.52,9.52a18.28,18.28,0,0,0,2.86,4.22l4.15-.75s1.29-1.22,2.11-1.84a25.57,25.57,0,0,0,3.26-4.42c.48-.82,2.58-3.74,2.58-3.74l6.6-.68,10.88.75,15.91,5s13.13-2.38,15.91-3a9.4,9.4,0,0,0,5.58-4.08,7.26,7.26,0,0,1,5.1-2.86c2.38-.41,8.77,2.52,8.77,2.52s-.34-3.26-.34-4.35a20.52,20.52,0,0,1,.88-3.88c.34-1.43,0-4.35,0-5.3a55.14,55.14,0,0,1,.61-5.71,19.65,19.65,0,0,1,1.77-5.44,9.73,9.73,0,0,0,1.36-2.86c.27-1.09.54-2.45.54-2.45s7.75,2.45,12.38,3.67c-1.16,8.5,2.18,12.72,2.18,12.72a52.36,52.36,0,0,0,1.77,5.1c1,2.24.54,8.5,1.09,9s3.67,9.39,3.67,9.39l-.27,1.22.41,1.84,1.16.54.68,3.88,2.79.75a2.16,2.16,0,0,0,1.7-1.09,1.39,1.39,0,0,1,1.56-.79,4.32,4.32,0,0,0,2-.91,5,5,0,0,0,1-1.7l1.43.75,1.36,1.56a5.85,5.85,0,0,0,1.5-1.5,7.39,7.39,0,0,0,.41-2.18l2.52-.48.88-1.22,2.52-.48.75,1.7,1.63.14,1,1.09a7.44,7.44,0,0,0,1.29.34c.54.07,1.22,1.9,1.22,1.9s.82.41,2,.88,1.29-1.09,1.29-1.09a20.23,20.23,0,0,0,3.47-1.5c1.7-1,1.36-2,1.36-2a8.73,8.73,0,0,0,1.9-1c1-.68.27-1,.68-2.86a5.13,5.13,0,0,0,3.13-3.06c.2-.82,1.63-1.09,2.18-1s.41,1.36.41,1.36l.82.82,1.09.07c1.09.07,1.43,1.5,1.43,1.5h1.7a12.44,12.44,0,0,1,3,1.16l-.07-2.58.61-.54c.61-.54,3.67-.86,3.67-.86l-.27-.84.68-.2a18.24,18.24,0,0,1,3.88.41l1.09-1s1,1.9,1.22,1.63,1.09-.48,1.36-1l1.36-2.38a9.22,9.22,0,0,0-1-.34,14.84,14.84,0,0,1-2.31-2l-.07-1.7s-.07-1.5-.2-2.45.88-1.22,1.5-2,2.72,0,2.72,0l-1.22-5.78.14-1,3.74-2.11,1.22.07A8.63,8.63,0,0,1,307,197c0,.75,1.43,2.72,1.43,2.72H309a5.13,5.13,0,0,1,.27,1c0,.27.75,0,.75,0a2.32,2.32,0,0,0,.61-1.09c.07-.54,1.29-.82,1.84-1.29s1.77,1.62,1.77,1.62l1.22-2.16,2,.14s2-.14,2.38-1.29a13.78,13.78,0,0,0,.07-4.42c-.14-1.16-.34-1.84-1-2.24s-1.16-3-1.16-3l-2-4.69,6-2.18.41-1.5c.41-1.5,3.13-3.47,3.13-3.47s-.27-1.43-.68-4.15c.48,1.36,5.51,4.35,5.51,4.35l3.81.14v.54c0,1.16-1,1-1.5,1.22s-.34,3.2-.34,3.2l1.16.27,1.22,1.84a6.19,6.19,0,0,0,2.11.82,8.46,8.46,0,0,0,4.69-1.7c1-1,1.16-4.22,1-4.76S343.54,175.51,343.54,175.51Z"/><path class="cls-2" d="M241.59,231.07l-.37,0-3.66-1-.71-4-1.12-.53-.63-2.82.25-1.13c-1.34-3.76-2.88-7.85-3.3-8.58s-.57-1.52-.68-4a21.54,21.54,0,0,0-.62-5.37,52,52,0,0,1-1.76-5c-.7-1-3.09-5.13-2.43-12.3-3.29-.91-7.55-2.22-9.77-2.91-.07.32-.15.66-.23,1a9.17,9.17,0,0,1-1.22,2.72l-.29.5a18.41,18.41,0,0,0-1.6,5c-.26,1.56-.59,4.63-.59,5.48,0,.24,0,.61.05,1a18.19,18.19,0,0,1-.09,4.58c-.12.49-.25,1-.39,1.43a9.11,9.11,0,0,0-.46,2.12c0,.83.24,3.32.33,4.21l.26,2.47-2.26-1c-2.49-1.14-6.6-2.65-7.95-2.41a5.9,5.9,0,0,0-4.21,2.31c-1.5,2-3.31,3.93-6.41,4.61-2.78.61-15.43,2.9-16,3l-.35.06-16.09-5.09-10.59-.73-5.84.6c-.82,1.14-1.86,2.63-2.14,3.11,0,0-2.39,3.9-3.64,4.84-.74.56-2,1.72-2,1.73l-.31.29-5.34,1-.53-.58a19.55,19.55,0,0,1-3.12-4.63,11.66,11.66,0,0,1-.55-3.41c-.13-1.77-.29-3.93-1.19-5.16-4,.57-11.19,2.11-11.27,2.13l-1.15.25-.46-1.09c-2.72-6.5-2.18-7.43-1.89-7.93a7.88,7.88,0,0,1,.57-.85,1.94,1.94,0,0,1,.17-.62,2,2,0,0,1,.55-.72c-.49-2.54-1.51-6.58-2-8.53l-1.74.11-.46-.66a14,14,0,0,0-5.08-4.08l-3.14.81-.6-1.58-.19,0a2,2,0,0,1-1.81,1.15h-1l-.32-1c-.65-2-1-3.27-1.29-4.07l-1.22.2-2-6.82,1.12-.49-.32-1.2,1.26-.35-1.51-6.31,5.18-1.23.56.81,1.18-.39.5,1,1.25-.17L99.6,173a1.92,1.92,0,0,1,1,.4l.08,0v-1.08l1.65-.2-.07-1.65,1.9-.2L104.1,169l1.66-.37-.23-1.21,5.42-.71,1.11,6.57-1.47.47,1.4-.1.26,2.39,10.9-1.75c1.31-2.89,2.64-5.91,3.37-7.69-9.82-1-49.51-5.08-49.95-5.13l-1-.1-.45-1.91-2.49.58-.39-.13c-.65-.22-15.78-5.43-24.55-9.94-1.66.23-3.11.54-4,.75l-.06,1.17-.7.38-.11.07c-.29.77-1.18,1-1.81,1.24l-.46.15a3.43,3.43,0,0,1-1.45.87v.71l-.75.52.52,1.24-1.05.81L38,159l-7.7,2.16.83,3.4-1.07.25.07.74-2.17.39.16,1-1.71.77a2.84,2.84,0,0,1,0,1.18,8.44,8.44,0,0,1-.25,1l2.26,9.25-1.27.74.11.4,8.42-2-.38-2.65,2-.87-.6-1.87,9-2.64,1,3.37L48,173l.29,1.67,1.2-.37.3,0a15.6,15.6,0,0,0,2.55.14,5.09,5.09,0,0,1,2.71-.9,3.85,3.85,0,0,1,.94.17,7.93,7.93,0,0,0,2.62.41l1.36-.32.33,1.31,1.36-.08.18,1.3a21,21,0,0,0,.43,2.25c.78,2.72-.43,3.77-1.57,4.17l-1.8.64,2.87,10a16.7,16.7,0,0,0,4.78-4l1.73-2.1,1.3,4.63,1.21-.36,1.07,4.44L67,197.58l-.85-.18-.85.4,1,4.59-3.88,1.68-.66-.51a2.85,2.85,0,0,0-.64-.35l-2,1.78-1.27-2.73-1.73.43L56,201.33l-1.05-.13-.29-1.78c-1.17.51-2.19,1-2.5,1.13-.36.34-1.59,1.75-2.58,2.94l-1.75,2.09-2.47-9.25-.11,0-.85.78-1.55.52-.93-.31-1.32.21,0,.16-1.1.43.55,1.59-5,1.85-1.54-.35-2.4.73-.85-.38-3,.47-.64-2.48-3.48.25.38-1.83a8.5,8.5,0,0,1,1.42-3.15,6.9,6.9,0,0,1-1.3-.58l-.05.25-1.55,1-.47.19v1.43L18,198.82l-4.24,3.63.14-3.29-1.34,1.06-.59-.11,0,.08-.9-.22a5.67,5.67,0,0,1-2,1.05c-1.73.58-3,.5-3.64-.24a1.85,1.85,0,0,1-.24-2.1c.28-.63,1.14-2.55,3-2.25h.3a2.16,2.16,0,0,1,.33-.37A15.63,15.63,0,0,0,8,193.25l-.31-.77,1.09-1.36a16.32,16.32,0,0,0-.44-1.7l-1.56.72L4.07,176.4l3.44,3.81a4.33,4.33,0,0,0,2.76,1.44c2.1-.07,4.57,0,4.68,0l.6,0,.31.34a6.47,6.47,0,0,0,2.72.39,6.08,6.08,0,0,0,2.77-.6l-1.86-6.36H17l-.88-3.4H15l-.87-3.47,15.48-16.09L27,143.54l5-2.81,1.77-4.91,5.92-3.21,2.38-2.55L41,127.77l1.45-.89L42,124.7l.87-.52s-.06-.17-.12-.32l-.22-.56a4.19,4.19,0,0,1-.1-3.83,5.6,5.6,0,0,1,.87-1.37c.46-.56.81-1,.85-2.93A16,16,0,0,1,45.34,110a12.08,12.08,0,0,0,.94-4,9.25,9.25,0,0,1,1.56-4.76,8.73,8.73,0,0,0,1.37-3.6,14.87,14.87,0,0,0,.1-3.34l0-.07a7.72,7.72,0,0,0-1.1-2.06l-.38-.43a6.89,6.89,0,0,1-1.15-1.65,10.36,10.36,0,0,0-1-1.46l-1-1.15,1.2-.89a1,1,0,0,0,.17-.18l0,0a7.51,7.51,0,0,0-1.47-1c-1-.58-2.31-1.29-2.31-2.77a5.58,5.58,0,0,1,.14-1.14l0-.18L42,81.1a4.08,4.08,0,0,1-2.87-2.94c-.27-1-.45-1.88-.55-2.45l0,0-1.84.46-.2-1.59a1.32,1.32,0,0,0-.07-.24l-.23.08c-.3.08-.57.12-.79.17l-.29.05c-.42.76-.68,1.22-.68,1.22l-.34.59-3.22.52-1.41,1.15-6-2.08.72-4.15h0a.94.94,0,0,0-.07-.57,2.51,2.51,0,0,1-.28-1.84,3,3,0,0,0-.24-1.74C22.82,65.38,20,55.2,19.87,54.76l-.12-.42.14-.41a9.28,9.28,0,0,1,2.18-3.34,9,9,0,0,0,1.69-4.51c0-1.05.26-5.22.27-5.4l.05-.86,3.55-1.58-.13-2,.87-.41c.89-.42,2-1,2.42-1.24a18.78,18.78,0,0,0,.46-2.13l.36-2.19,1.84,1.25a10.4,10.4,0,0,1,2.9,2.82,2.93,2.93,0,0,0,.17.28,6.21,6.21,0,0,1,4.95-.43c.37.1.84.23,1.23.32-.22-1.93-.36-4.33,1.79-4.76,1.48-.29,2.42.38,3.5,1.15l.51.37c.33.23.71.46,1.12.7,1.45.87,3.1,1.85,3.79,3.43.13.3.25.59.36.88a4.76,4.76,0,0,0,1.7,2.58,8.69,8.69,0,0,1,1.4,1.22c.17.18.41.41.59.57a3.44,3.44,0,0,0,.23-.35l1.09-1.9,2.31,3.25a5.22,5.22,0,0,0,1.27,1.83c1.37.43,1.94,1.81,2.4,2.92.12.29.24.57.35.79h0c1,.2,2,.66,2.55,2.59a22.67,22.67,0,0,1,.53,2.46,12.26,12.26,0,0,0,.46,2c1.56.27,4.3,1.45,5.18,2.63a5.21,5.21,0,0,1,.67,1.39,3.3,3.3,0,0,0,.36.8h0a2.35,2.35,0,0,0,1.22-.81l.52-.62,3.72.58.27.2c1.15.82,3.26,2,4.34,2h.2l1.64.47.29.42c.13.19.29.4.44.58.19-.33.4-.73.56-1.11L88.85,59l10.71,9,2.37.3,1.35,2.21,2.93.82c.35.12.48.23,1.69,1.3.67.59,2,1.79,2.5,2.11l.34.08c7.78,1.8,8.95,2.39,9.47,2.83l.8.69c1.14,1,3.05,2.66,4.1,3.36.49.32,1.05.79,1.71,1.34,1.18,1,3,2.45,3.9,2.59l.84.1c1.47.15,3.3.33,4,3a7.93,7.93,0,0,0,.5,1.31,8.61,8.61,0,0,1,.76,5.33,7.31,7.31,0,0,0,0,1.1l1.93-.74a46.59,46.59,0,0,1,4.61-1.44l.63-.08.48.41a5.06,5.06,0,0,0,2.29.68l1.45.09-.13,1.44a9.42,9.42,0,0,0,.39,4.22,17.54,17.54,0,0,0,2.22.3l1.39,0,0,1.39a10.2,10.2,0,0,0,.23,2.21,7.61,7.61,0,0,1,4.48,1.8c.78.56,1.57,1.07,2.27,1.51,1.8,1.15,2.88,1.85,3.22,2.86a3.55,3.55,0,0,1,.15.81s0,.09,0,.14a4.59,4.59,0,0,0,1.5.26,8,8,0,0,0,2.24-.06v0a3.67,3.67,0,0,1,1.36-2.85,1.76,1.76,0,0,1,1.47-.19,17.87,17.87,0,0,0,2.59-.24l.73-.11.47.5v0c0-1.1.11-2.6,1.62-3.1l.81-.27.62.59a38.58,38.58,0,0,0,3.79,3,20.32,20.32,0,0,1,2.53-1,3.84,3.84,0,0,0,1.24-.54l3.91-3.07-1.67,4.65a.85.85,0,0,0,0,.54,1.05,1.05,0,0,0,.68.3,7.52,7.52,0,0,0,3.57,0,1.94,1.94,0,0,0,0-.38l-1.63-3.27,8.26,3.41,8.47-1.08L204.7,111c0,.07-.23,1.34-.46,2.48l.36,0c.71-.1,2.08-.45,2.55-.58l3.64-1L208.7,115l0,.08a19.58,19.58,0,0,0,2.72,1l2.5.71-.87.77.09,0,.36-.05,2.34.89,1.74,4.25,1.51.12a12.87,12.87,0,0,1,1.87-2.78,2.19,2.19,0,0,0,.32-.62,3.64,3.64,0,0,1,3.49-2.58l1.07-.1.26-1.16,5.61,4.05-3.21.62-.7.15,3.47-.56-1,2.35a2.8,2.8,0,0,0-.19.87l.07.07a4.51,4.51,0,0,1,1.6,3.41,12.4,12.4,0,0,0,1.49.79l3.32-2.12,1.06,2.91,4.39-.3.37.21s3.16,1.78,3.5,2a8.45,8.45,0,0,0,2.41.5,8.28,8.28,0,0,0,1.3-2l.7-1.39,4.31,2.67,11.3-1.06v-1.64l1.3-.11a20.78,20.78,0,0,0,6.08-1.49l8.41-4.2.41,1.75c.24,1,.87,2.29,1.33,2.45a64.49,64.49,0,0,1,5.85,2.81l1.24.66-.56,1.08h0a26.78,26.78,0,0,0,6.5-1.34,12.8,12.8,0,0,1,1.67-.42,11.85,11.85,0,0,0,2.8-.82l.29-.71.9,0c1.55-.08,3.49-.29,4.83-.46l-.82-3.15,2.7,1.22c1.87.85,4.46,1.61,5.36,1.35,1.09-.3,2.21-.67,3-.93v-1.2l2.38-2.11V118l18.15-4.84-13.25,7,1.13,3.47,3.4-.83.57.6a3,3,0,0,0,1.28.85h.49c1.21,0,3.24-.11,4.31,1.54.72,1.12,1.72,2.52,1.73,2.53l.4.56-.19.66a24.15,24.15,0,0,0-1.14,6.09l1,2.41-1.62.37-1.43.32,4.35-.21-7.3,4.07.45,2.41-1.2.38a3.61,3.61,0,0,0-1.46.84c.08.67.42,2,.69,3.08a15.43,15.43,0,0,1,.6,2.89c0,.61,0,1.52-.06,1.89l.71-.16.38,1.26c.37,1.23.89,3.49.14,4.71a1.92,1.92,0,0,1-1.31.9,5.26,5.26,0,0,1-2-.14l-.31-.06c0,.22.09.46.15.7a3.73,3.73,0,0,1,0,2.68,10.06,10.06,0,0,0-.57,1.34,2.22,2.22,0,0,1,1.66,1.63c0,.07.05.16.07.21a1.33,1.33,0,0,1,.17.05,16.2,16.2,0,0,0,3.7.71c.41-.23,1.42-.54,4.52.09l1.13.23v2.33l3.43,1,3.38,4.36-1.38.82a5,5,0,0,0-.64.46c0,1.35-.24,4.21-1.42,5.48s-4.61,2.24-5.84,2.15a7.23,7.23,0,0,1-2.74-1l-.27-.16L332.27,182l-1.63-.38-.07-1a8.1,8.1,0,0,1,.32-3.75l-1.29,0-.31-.18c-.78-.46-1.77-1.08-2.72-1.75v.06l.17.88-.73.53a8.65,8.65,0,0,0-2.59,2.7l-.6,2.2-5.26,1.91,1.53,3.62a9,9,0,0,0,.64,2.13,4.08,4.08,0,0,1,1.55,3.2,15.3,15.3,0,0,1-.12,5c-.6,2-3.34,2.29-3.65,2.31h-.1l-1.18-.08-2,3.52L313,200.7a7.58,7.58,0,0,0-.48-.71l-.28.14-.31.16a3.88,3.88,0,0,1-.91,1.46l-.22.22-.3.11a2.11,2.11,0,0,1-2-.08l-.6-.42,0-.43h-.14l-.42-.59c-.77-1.07-1.7-2.55-1.7-3.55,0,0,0-.05,0-.08l-2.44,1.38v.08l1.72,8.1-2.44-.94a4.62,4.62,0,0,0-1.24-.27,6.18,6.18,0,0,1-.79.75l-.25.21c.13,1,.19,2.35.19,2.41l0,1.15a16,16,0,0,0,1.43,1.26c.5.15.94.34,1,.36l1.46.63-2.15,3.76a3.24,3.24,0,0,1-1.45,1.21l-.19.1-.46.46-.8-.09a1.81,1.81,0,0,1-1.23-.83l-.34.32-.71-.14c-.85-.16-1.75-.3-2.41-.37l.27.85-1.74.18a13.66,13.66,0,0,0-2.94.56l-.06.05.11,4.32-2.13-1.1a12.59,12.59,0,0,0-2.39-1h-2.77l-.26-1.09a1.29,1.29,0,0,0-.21-.41l-1.55-.1-1.64-1.64a7.13,7.13,0,0,1-3,3.13c0,.22,0,.41,0,.58a2.45,2.45,0,0,1-1.13,2.4,10.14,10.14,0,0,1-1.38.82,3.89,3.89,0,0,1-2,2.32,21.25,21.25,0,0,1-3,1.36,2.44,2.44,0,0,1-1,1.2,2.21,2.21,0,0,1-2,.11c-1.19-.49-2-.91-2.07-.93l-.5-.25-.2-.52a7.2,7.2,0,0,0-.5-1.07,9.71,9.71,0,0,1-1.17-.34l-.34-.12-.82-.93-1.9-.16-.63-1.44-.85.16-.88,1.22-2,.38a5.67,5.67,0,0,1-.45,1.62,6.69,6.69,0,0,1-1.95,2l-1,.74-2-2.26a5,5,0,0,1-.61.75,5.56,5.56,0,0,1-2.73,1.3l-.35.06-.15-.05-.1.14A3.56,3.56,0,0,1,241.59,231.07Zm-1.55-3.3,1.63.44a1,1,0,0,0,.42-.39,2.88,2.88,0,0,1,2.72-1.48,2.64,2.64,0,0,0,1-.47,3.52,3.52,0,0,0,.68-1.15l.54-1.56,3.13,1.63.6.69.09-.13a6,6,0,0,0,.26-1.61l.05-1.12,3.06-.58.88-1.22,4.18-.79.86,2,1.36.11,1.07,1.23a4.64,4.64,0,0,0,.66.16c.35,0,1.25.16,2.16,2.27l.77.35.05-.58.91-.28a19,19,0,0,0,3.19-1.38,1.55,1.55,0,0,0,.65-.55l-.35-1.13,1.28-.46a7.35,7.35,0,0,0,1.5-.8v0a7.63,7.63,0,0,1,.17-2l.19-.89.89-.19a3.84,3.84,0,0,0,2.05-2c.45-1.8,2.81-2.25,3.89-2a2.13,2.13,0,0,1,1.5,2.16h0l.55,0a2.85,2.85,0,0,1,2.27,1.49h.77a4.83,4.83,0,0,1,1.52.35l0-1,1.1-1a6,6,0,0,1,2.74-1l-.2-.61,2.07-.62c.23-.07.91-.27,3.84.24l1.93-1.81-.72-.7-.39-.39-.09-2.25s-.07-1.43-.19-2.3a2.8,2.8,0,0,1,1.27-2.62,3.2,3.2,0,0,0,.5-.47,2.49,2.49,0,0,1,2-.93l-.84-3.95.26-2,4.72-2.66,2.7.15.24,1a10.06,10.06,0,0,1,.24,1.87,7.64,7.64,0,0,0,.76,1.38h.64a4.82,4.82,0,0,1,1.16-.72,4,4,0,0,0,.53-.29,1.72,1.72,0,0,1,1.4-.4,2.31,2.31,0,0,1,1.1.55l.63-1.11,2.75.19a2.36,2.36,0,0,0,1.08-.35,13.75,13.75,0,0,0,0-3.77c-.13-1.07-.27-1.15-.34-1.2-.79-.48-1.4-1.75-1.79-3.79l-2.58-5.93,6.71-2.44.22-.79c.39-1.42,2-2.89,2.95-3.69-.12-.7-.31-1.82-.54-3.34l2.74-.68a21.36,21.36,0,0,0,4.59,3.42l4.81.17v1.91a2.3,2.3,0,0,1-1.84,2.39c0,.24,0,.56,0,.9l.65.15,1.35,2a4.13,4.13,0,0,0,1.22.47,7.52,7.52,0,0,0,3.55-1.25,7.77,7.77,0,0,0,.67-3.51,2,2,0,0,1,.75-2L340.6,174,336,172.7v-2.12a8.21,8.21,0,0,0-1.58-.12c-1,.54-2.68.25-5.66-.52a2.89,2.89,0,0,1-2.13-1.85,2,2,0,0,1-1.64-.82c-.42-.59-.82-1.71.62-4.58,0-.07-.1-.47-.17-.74a5.07,5.07,0,0,1-.14-2.59c.56-2.12,2.78-1.67,3.61-1.5l.26.05c0-.21-.06-.46-.1-.73a13.44,13.44,0,0,1-4.56-.68L320,155l7.61-1.93c0-.3,0-.61,0-.86s-.3-1.38-.51-2.2a29.64,29.64,0,0,1-.77-3.58c-.14-1.46,1-2.57,2.26-3.24l-.39-2.05,1.28-.71a3.89,3.89,0,0,1,0-2.94l.29-.87,1.59-.16c.25,0,1.18-.21,2.24-.45-.19-1.78.62-5.06,1-6.58-.37-.53-.94-1.35-1.41-2.08-.2-.31-1.26-.27-1.83-.25h-.58a4.57,4.57,0,0,1-2.71-1.15L323.69,127l-1.38-4.25-2.31,2v1.92l-.93.34c-.09,0-2.12.78-4.12,1.33a9.2,9.2,0,0,1-4.64-.5l.19.72-1.57.22c-.15,0-3.35.48-6,.65-.94.87-2.59,1.21-4.19,1.55-.49.1-1,.22-1.26.3a29,29,0,0,1-7.75,1.52,2.68,2.68,0,0,1-2.42-1.24,2.43,2.43,0,0,1-.32-1.34,49.59,49.59,0,0,0-4.48-2.13,4.93,4.93,0,0,1-2.6-2.81L274.53,128a20.64,20.64,0,0,1-5.81,1.62v1.67l-14.82,1.39-2.55-1.58a5,5,0,0,1-2,2c-1.5.58-4.46-.45-4.91-.72l-3.07-1.75-5.67.38-.58-1.58-1.54,1-.65-.23a14.74,14.74,0,0,1-3.43-1.82l-.63-.46.05-.78a2,2,0,0,0-.73-2l-.22-.22a2.5,2.5,0,0,1-.7-1.6l-2.69.43-.52-.65a6.1,6.1,0,0,1-.83-1.39,3.33,3.33,0,0,1-.25.29,13.29,13.29,0,0,0-1.76,2.87l-.42.89-5.18-.42-1.93-4.73-.25-.09a1.16,1.16,0,0,0-.12.25,2.2,2.2,0,0,1-2.21,1.68,2.75,2.75,0,0,1-2.36-2.38,3.42,3.42,0,0,1,.11-1.81,9.19,9.19,0,0,1-2.16-1,2.26,2.26,0,0,1-.81-1.11l-.85.16c-.94.13-2.36.34-3.23-.6a2.13,2.13,0,0,1-.47-2c.08-.37.17-.81.25-1.24l-5.39.69-3.62-1.5c-.74,2-4,2.14-6.71,1.64a3.59,3.59,0,0,1-2.63-1.68,3.11,3.11,0,0,1-.14-.28l-.13,0a22.07,22.07,0,0,0-2.82,1.14l-.74.35-.68-.46c-.09-.06-1.61-1.1-3.09-2.28,0,.27,0,.55-.07.86a2.06,2.06,0,0,1-1.36,1.88,3.09,3.09,0,0,1-2.85-.95,15.3,15.3,0,0,1-2.26.18,2.5,2.5,0,0,0-.06.39c-.19,2.82-2.81,2.9-5.24,2.75-2.76-.17-4-1-4.16-2.95v-.12a17,17,0,0,0-2.07-1.45c-.72-.47-1.55-1-2.38-1.59-1.73-1.24-2.38-1.26-3.13-1.28l-.43,0c-1.33-.09-2.1-1.34-2.29-3.73-.39-.05-.87-.13-1.46-.23-2.34-.42-2.71-3.64-2.66-5.9a7,7,0,0,1-1.92-.7c-.76.23-2.27.73-3.55,1.17L136,99.77l-.51-.19c-.57-.22-1.86-1.1-1.51-4.52a5.88,5.88,0,0,0-.52-3.86,10.44,10.44,0,0,1-.67-1.76c-.2-.74-.2-.75-1.55-.89l-1-.11c-1.73-.25-3.63-1.82-5.31-3.21-.57-.47-1.11-.92-1.47-1.16a55.56,55.56,0,0,1-4.39-3.58l-.77-.67c-.21-.12-1.59-.69-8.28-2.24l-.53-.12c-.56-.14-1.16-.6-3.54-2.7l-.9-.79L102,73.09l-.54-.15-1.23-2-1.85-.24-8.55-7.16c-1,1.64-1.75,1.64-2.15,1.64s-1.23,0-2.64-1.89l-.3-.09c-2.07-.11-4.61-1.71-5.49-2.31l-1.55-.25a4.26,4.26,0,0,1-3.15,1.19c-1.8-.18-2.38-1.77-2.69-2.62a3.87,3.87,0,0,0-.28-.66A8.69,8.69,0,0,0,68.08,57c-1.95-.21-2.33-2.38-2.66-4.31A20.18,20.18,0,0,0,65,50.57a1.67,1.67,0,0,0-.26-.61h-.14a2.51,2.51,0,0,1-1.86-1.26,11.26,11.26,0,0,1-.57-1.23,4.68,4.68,0,0,0-.7-1.32c-1.27-.39-2.25-2-2.72-2.87a2.38,2.38,0,0,1-.91.32c-1.3.17-2.23-.77-3-1.52a6.54,6.54,0,0,0-.93-.83,7.38,7.38,0,0,1-2.78-3.9c-.1-.26-.21-.53-.33-.8-.32-.74-1.61-1.51-2.64-2.13-.47-.28-.92-.55-1.29-.81l-.54-.39a8.75,8.75,0,0,0-.93-.62,15.9,15.9,0,0,0,.16,2,2.47,2.47,0,0,1-.72,2.31c-1,.89-2.47.5-4.12,0a3.41,3.41,0,0,0-2.93.24c-.92.46-2.66.88-3.92-1.48a2.07,2.07,0,0,0-.3-.39,2.57,2.57,0,0,1-.64,1.27A9.33,9.33,0,0,1,30.47,38L30.6,40l-3.79,1.68c-.09,1.46-.22,3.71-.22,4.36,0,1.13-.75,4.74-2.52,6.51a7,7,0,0,0-1.34,1.88c.58,2.08,2.89,10.32,3.58,12.29a5.75,5.75,0,0,1,.36,3.13V70A3.76,3.76,0,0,1,27,72.57l-.26,1.55,2.2.77.77-.62,2.62-.43.34-.61a2.8,2.8,0,0,1,2.26-1.45l.51-.1a2.64,2.64,0,0,1,2.38.05,2.76,2.76,0,0,1,1.07,1.11,4,4,0,0,1,2,1.05l.37.34.07.49a27.08,27.08,0,0,0,.58,2.7c.17.63.27.67,1.24,1.08l.56.24A2.62,2.62,0,0,1,45.18,82c0,.13-.05.25-.07.37a9.11,9.11,0,0,0,.84.51,9.93,9.93,0,0,1,2,1.39,2.76,2.76,0,0,1,.95,2.21,2.83,2.83,0,0,1-.39,1.25,11.12,11.12,0,0,1,.6,1,4.33,4.33,0,0,0,.79,1.13l.4.46a10.24,10.24,0,0,1,1.57,2.83c.21.43.44,1.45.12,4.75a11.28,11.28,0,0,1-1.72,4.73A6.6,6.6,0,0,0,49.11,106a14.43,14.43,0,0,1-1.1,4.93,13.4,13.4,0,0,0-1,4.27c-.05,2.67-.7,3.68-1.48,4.65a3,3,0,0,0-.47.71c-.29.67-.26.74.11,1.65l.25.62a3.1,3.1,0,0,1-.26,3l.53,2.44-1,.61.27.56v1.84l-3.47,3.63-5.37,2.91-1.76,4.89-4,2.22,2.43,8.34-5.59,5.81L34.76,157l-.05-.26.72-.55-.57-1.35,1.42-1v-1.38l1.07-.27a7,7,0,0,0,1.1-.37,3.33,3.33,0,0,1,1.73-.93l.2-.06a2.58,2.58,0,0,1,.49-.55L41,148.5l1-.27a48.94,48.94,0,0,1,5.83-1.12l.44-.06.4.21c7.77,4.07,21.69,9,24.17,9.85l4.45-1,.64,2.71c6.86.71,46.61,4.83,50.73,5.2l1.29.12v1.3c0,.34,0,.92-4.48,10.79l-.31.69-15.35,2.47-.29-2.64-1.78.13-.81-4-1.68.18.07,1.62-1.75.21v1l-1.14.23a5,5,0,0,0-.62.16,2.87,2.87,0,0,1-2.56-.41l-.1,0-1.47.59-.71-2.57-.79.11-.31-.62-.86.29-.67-1-.53.13L95.23,179l-1.19.33.22.84-1.06.46.59,2,1.31-.22.29,1.31s.13.52,1,3.09l3.15-.38.49,1.28,1.61-.41.44.18a16.75,16.75,0,0,1,6.23,4.61l2.53-.16.3,1.13c.08.32,2.07,7.79,2.55,11l.2,1.31-.72.16.08.15-.89.72a3.25,3.25,0,0,0-.34.47,27.44,27.44,0,0,0,1.47,4.55c2.42-.51,8-1.64,11.07-2l.62-.08.47.41c2.13,1.85,2.37,5,2.55,7.52a11.07,11.07,0,0,0,.35,2.53,14.65,14.65,0,0,0,2.1,3.22l2.94-.53c.45-.42,1.3-1.18,1.92-1.65a26.53,26.53,0,0,0,2.89-4c.5-.85,2.44-3.55,2.66-3.86l.37-.52,7.35-.76,11.33.82,15.58,4.93c2.09-.38,13-2.37,15.52-2.92a8,8,0,0,0,4.75-3.55,8.64,8.64,0,0,1,6-3.4c1.84-.32,5.12.79,7.38,1.68-.07-.82-.12-1.64-.12-2.12a10.77,10.77,0,0,1,.57-2.91c.12-.42.25-.86.35-1.3a17.49,17.49,0,0,0,0-3.75c0-.51-.06-.95-.06-1.22a55.78,55.78,0,0,1,.63-5.95,21.07,21.07,0,0,1,1.94-5.92l.3-.51a6.46,6.46,0,0,0,.91-2c.26-1.06.53-2.37.53-2.38l.31-1.55,1.51.48c.08,0,7.77,2.45,12.31,3.65l1.21.32-.17,1.24c-1,7.71,1.86,11.62,1.89,11.66l.16.21.08.27a51.26,51.26,0,0,0,1.71,4.94c.64,1.5.74,4.08.84,6.35,0,.9.09,2.11.17,2.53.38.61,1.26,2.51,3.78,9.63l.14.38-.29,1.31.19.85,1.19.56Zm58.73-15.6.81,1.62.21.4.45-.78A12.82,12.82,0,0,1,298.77,212.16Zm3.1-1.08h0ZM112,206.72m.46-1ZM61,200.34a3.86,3.86,0,0,1,1.79.51l.27-.12-.94-4.22a10.68,10.68,0,0,1-2,.72l-1.28.28-1.2-4,1.11-.55-3.24-11.3,1.25-.45,3-1.07a3.76,3.76,0,0,0-.16-.74c-.12-.41-.22-.9-.31-1.35l-1.12.06L57.88,177a16.26,16.26,0,0,1-2.54-.49l-.32-.08a3.47,3.47,0,0,0-.77.2c-.34.44-1,1-4.47.56l-3.7,1.13-.25-1.46-.91.34-1.05-3.57-3.5,1,.49,1.54-2.36,1,.44,3.07-13.61,3.28-1.39-5.17,1.31-.76-2-8.07.19-.43h0a5.21,5.21,0,0,0,.25-.87,3.31,3.31,0,0,0-.28-.59l-.89-1.39L25,165.21l-.25-1.59,2.32-.42-.06-.62.7-.16-.76-3.1-9.5,9.88h.83l.88,3.4h2.41l3,10.19-.59.59a7.74,7.74,0,0,1-5.42,1.84,8.54,8.54,0,0,1-4.13-.76c-.79,0-2.57,0-4.09,0a5.35,5.35,0,0,1-1.86-.3l.41,2.06a1.72,1.72,0,0,1,.73.2c.38.2,1.38.73,2.07,4.82l.11.63L11,193c.72,2,1,3.31.68,4.19l.18,0L17,193.08l-.14,3.13,1.79-.85V193.8l2.11-.84.22-.15.33-1.49,2.65-.76,1.11,1.33a4.31,4.31,0,0,0,.69.29l-1.19-2.37H26l-.41-1.21H30L31.3,193l-.44.58a9.87,9.87,0,0,1-3,2.28,2.68,2.68,0,0,0-.88.85l1.67-.12.59,2.28,1.32-.21.65.29,2.09-.63,1.45.33,1.63-.6-.54-1.54,1.35-.52L37,194.75l3.36-1,.63.94,1.15-.18.7.23.08,0,.78-.72,3.56-1.45,1.9,7.11a8.2,8.2,0,0,1,1.4-1.41c.34-.23,1.91-.94,4.65-2.1l1.66-.71.56,3.26,1.06.13.06.41,1-.25.71,1.52A2.36,2.36,0,0,1,61,200.34Zm6-7.19a19.31,19.31,0,0,1-2,1.66l.82-.38,1.06.23.51-.16Zm252.76-4.22Zm23.79-12.33,0,.09Zm-244.72-1,.09.06Zm8.21-4.33,0,.66,1.79-.58-.08-.47Zm227.32-.78Zm-7.73-5.21h0ZM40.43,153.78Zm-2.17-1.69h0Zm4.66-.31h0ZM289.52,130Zm-99.59-20Zm-20.76-.74h0Zm-123-22.8Zm-3.51-5.07ZM57.29,40.82ZM42.76,35.09Zm-6.4-.41h0Z"/></svg>