<svg id="Layer_2" data-name="Layer 2" xmlns="http://www.w3.org/2000/svg" viewBox="0 0 350 350"><defs><style>.cls-1{fill:#999;}.cls-2{fill:#f90;}</style></defs><title>M_</title><path class="cls-1" d="M325.72,129.57a60.2,60.2,0,0,1-4.64-4.37c-1.16-1.3-3.55.27-4.51-1.23s1.37-5.05,2-5.73.27-3,0-4.3a12.57,12.57,0,0,1,0-3.35h-3.07c-1.23,0-2,1.5-3.14,2.39s-2-.89-3.28-2.53-4-2.46-5-3.07.14-1.84.41-2.94-1.09-2.87-1.16-3.35a5.5,5.5,0,0,1,1.5-3.07c.89-.82.27-1.09,0-2.8s-.14-2.46-2.18-3.55-2.25-4.23-2.25-4.23a5.38,5.38,0,0,1-3.75-2.32c-1.16.2-3.89-.82-3.89-.82l.68-3.55a78.57,78.57,0,0,0-6.83-6.49c-2.59-2-5.12-2.25-5.67-2.8s.14-2.8.55-3.75,2.12-5.53,2.12-5.73.61-1.78,1-1.84,1.3-3.35,1.3-3.35l-2-1.09c-1.3-1.16-1.16-2.8-1.37-4.85a8.1,8.1,0,0,0-2.25-4.23c-.55-.68-4.57-4.51-4.57-4.51s-4.51,4.1-5.6,4.1-5.53-2.32-6.14-2.59A33,33,0,0,1,259.36,41c-.27-.41-1.16-.82-2-1.84a18.23,18.23,0,0,1-1.77-3.41,6,6,0,0,1-1.91.55c-.75,0-1.57-.48-3.08-.61s-.27-1-.06-1.16-.21-.68-.42-1a5.09,5.09,0,0,1-.27-2c0-.75-.89-.61-1.91-1s-.2-.75-.07-1.37a12.16,12.16,0,0,1,.61-2.12c.41-1.09,1.91,0,2-1.43s-1.91-5.12-3-6.21-2.66-1-4-1.64c-.82,2.46.75,2.8.75,3.07a16.87,16.87,0,0,1-1.84,2.53c-.82,1.09-.89.61-2.12,1s-1.64,4.78-2.73,4.64-1.16-2.46-1.57-3.55-2-1.64-2.66-2.25-3.07-3.55-4.1-4.3-.48-4.64-.48-4.64-4.1,1.84-6.35,1.78a6.87,6.87,0,0,1-4-1.78L217.65,16s3.14,1.43,2.32,2.46a37.14,37.14,0,0,1-2.73,2.8l-.55,1.71s3.07,1.57,2.12,2.87a7.78,7.78,0,0,0-1,1.91,2,2,0,0,1-2.29,2.82c-3.35-.77-6.28.73-8.66,3l-.72.68a4.75,4.75,0,0,1,.92,1.53c.68,2.12,1.84,4.64,1.84,5.39s1,1.62.14,2.19c1.63,4.12-1.73,7.72-3.94,11.3a2,2,0,0,0,.59.1c1.57,0,2.59-.14,2,1.5a2.28,2.28,0,0,0,1.43,3.07c.82.07,2.46,2,1.91,3a14.48,14.48,0,0,0-.64,2.12c.9,6.06-6.13,6.15-11,6.5a9.07,9.07,0,0,0-.38,2.59l.1.57c.42,2.5-3.11,3.58-3.86,1.06,0-.1,0-.21-.07-.31-.76.54-1.71,1.17-2.08-.32-.48-1.91-.48-3.28-1.23-4s-2.59-1-2.73-1.78-1.09-.82-1.64-.61-.61-1.85-.55-2.77a2.66,2.66,0,0,0,0-.55C185,69.4,181.18,72.58,176.53,75a3.38,3.38,0,0,0,.26.81c1.08,2.28-2.25,4.28-3.4,2.11-.75,8.75-.29,17.58-4,25.82-1.1,2.43-2.92,5.21-5.9,5.35s-4.73-4.19-7.48-1.49a2,2,0,0,1-3.41-1.41c-.05-4.26,1.53-6.11,5.15-7.95,1.59-.81,6.41-3.94,4-6.25-1.14-1.09-5.13-.29-6.55-.14-4,.42-9.71-.72-12.88,2.27-2.43,2.28-6.89,15.08-1,15.6a2,2,0,0,1,1.93,1.47,37.45,37.45,0,0,1,.63,10.5,2,2,0,0,1-2.53,1.93c-6.6-2.12-11.93,1.12-17.85,3.68A2.15,2.15,0,0,1,121,127c-3.11-2.41-4.81-5.6-6.06-9.17a78.88,78.88,0,0,1-9.7.89,2,2,0,0,1-2-2c-.63-8.35,11-10.87,8.07-19.31a4.32,4.32,0,0,0-1.66.51,1.62,1.62,0,0,0-.14-.39,3.33,3.33,0,0,0-4.11-1.84c-2.7.74-1.3,2.09-5.17,2.06-.74,0-1.47-.54-2.28-.52-4.58.13-7.32,7.82-4,10.77a1.56,1.56,0,0,0,1.82.23c3.81-2,.23,4.69-.54,6.41-.91,2-.65,3.44-.8,5.67-.22,3.1-1.29,3-2.87,4.8-2,2.28-3.28,5.81-4.74,8.46a1.6,1.6,0,0,0-.15.39l-.25,0c-1.43-.2-6.49-.75-6.49-.75L79.2,133s.48,1.91-.55,2.53-1.57.89-1.78,1.78.07,1.71-.34,1.71a6,6,0,0,0-1,.14s3.41,2.73,1.37,3.07-2.32,0-2.32,0l-.2,2.39s1.37-.55,1.91,1.16.48,2,.89,2.59h0c-1.29,2.56-.68,5.26.36,8.18,1.33,3.73.67,6.3-.67,9.89a20.43,20.43,0,0,0-1.43,8.39c.43,5.58,5.67,4.55,8.32,8.7,2.14,3.35,2.39,7.43,1.52,11.33l-.39.53.1.63a24,24,0,0,1-4.15,8.23,1.52,1.52,0,0,0,.66,2.51,22.35,22.35,0,0,0,2.6.41c-.08.42-.3,1-.45,1.67-.11.51-.18.89-.23,1.23A1.88,1.88,0,0,1,85.66,212c-.06,2.69-1,5.88-3.5,7.26a4,4,0,0,1-2.88.42,10.06,10.06,0,0,1-1.71,2.85c-.68.82-.41,1.09-1.5,1a28.36,28.36,0,0,1-2.94-.61c-1.15-.19-2.65-.15-3.56-.36-5.26-2.91-9.83-6.66-15.83-4.52l-.84.08,0,0a8.14,8.14,0,0,0-.78-3c-.49-2.45-1.21-5-2.85-5.86-1.92-1-3.9.16-5.25,1.66a1.61,1.61,0,0,0-.47.58,7.59,7.59,0,0,0-.85,1.42,1.57,1.57,0,0,0,.54,2.05,37.8,37.8,0,0,1,6.42,6.19l.24,2.41s.34,2.45-.48,2.31-1.43-.55-1.71-.55-1.71.2-1.71.2a10.9,10.9,0,0,1-1,1.78c-.34.34-.75.82-.75.82s.48,5.05.55,6.14c1.43,0,2.73.14,2.87.75a12,12,0,0,1,1.3,3.69c0,1.23-2.66-.27-3.69-.75s-1.84.75-2.39,1-1.57.75-2.18,3.14a7.44,7.44,0,0,1-2.66,4.3c-1.23,1.16-5.26.55-6.14.61s-.27,1.91-.75,3.21c-1.37.2-.41,1.5-.41,2.46s-1,7.85-1,7.85H28.06l-.75,1.5h-3s-1.81,2.74-3.37,5.07a10.76,10.76,0,0,1,2.82,4.57c.11.39.21.79.28,1.19a1.39,1.39,0,0,1,.18-.22c-.08,1.08-.18,2.16-.34,3.23-.27,1.89,2.62,2.7,2.89.8q.37-2.58.5-5.17a19.63,19.63,0,0,0,5.64-3.6v-4.3l1.5-.68s2.59-.27,2.87.14.48.55,1.3.41a6.08,6.08,0,0,1,3.55.07c2,.55,4-.82,4.78-1.23s.2,1.09.2,1.09l1.3.82-.14,1.09a10.25,10.25,0,0,1-1.3,2.94,3.3,3.3,0,0,1,1.23,2c.48,1.57-.27,2-.27,2.87a2.66,2.66,0,0,0,1.43,2c.82.55-.68,2.66-.68,2.66l4-.41,1.37,1.37a8.55,8.55,0,0,1,.68,1.43s.14,5.26.14,6.69-1.78.75-1.78.75H50.73L46.22,289a3.85,3.85,0,0,0,.2,1.37,10.12,10.12,0,0,1,.55,4.23c-.07,2.32-.51,7.61-.51,7.61l.79.79v2.87H46.7v1.57h.89v1.37l-1.23.2s-.27,1.84.2,2.32.55,2.8.14,3.55-.68.75-.68.75V319h-.75s.34,9.15.27,9.42-.68,0-.68,0l-.68,1.84.89.68.75.68h1.71c.34,0,4.57-.75,4.57-.75a5,5,0,0,1,1.37.34c.61.27.82,1.09,1.43.61s.61-2.25.61-2.25l2.12-.07a3.74,3.74,0,0,0,2.32,1.23c1.23,0,1.78-2.18,1.78-2.18l1.71.48,1,1.84,1.43-.75.07,3,1.71.68.2,1.91,11.61-.41,9.9-2.12a11.66,11.66,0,0,0,3.82-1c1.3-.75,2.12.75,2.59-.48s2-.14,2.53-1.37,2.87.55,2.87.55H114l3-2.12c.68-.48,2.59-1.77,2.25-2s-2.66-7.1-2.66-7.1l.75-2.59-2.59-1.78.55-3.69,1.5-2.39.14-3s3.69-1.37,3.89-1.37,5.53.48,5.53.48l.07,2.25,12.08.2,7.58-1.57.27,1.71,3.21-1.16-.07-3.48h2.12l.14-.61,1.09.07.07-.89,2.46-.07.14-.82,1-.14a4.6,4.6,0,0,0,.07-1.3c-.07-.68.07-1.09,1.43-.55,2.32.61,5.67-.41,8.12-1.09s8.26.14,9.08.2a11.13,11.13,0,0,1,2.59,1,1.86,1.86,0,0,0,.89-1.64c-4.57-1.57-1.57-4.1-1.57-4.1H178c.82,0,1.43-1.09,1.43-1.09s.75-.07,1.16-.07a5,5,0,0,0,1.37-.48v2.39c.89,5.39.41,17.89.41,17.89h7.71l.34-1.09,2-1.91,2.25-3.75s1-1.16,1.23-1.5a8.65,8.65,0,0,1,2-1.37,15,15,0,0,0,4.37-2.59,11.94,11.94,0,0,0,5.05-2.87,20.73,20.73,0,0,0,3-3.14,6.26,6.26,0,0,1,1.91-1c1.37-.48,3.07-9.42,3.07-9.42s7.92-2.12,9.69-4,5.19-8.67,5.19-8.67,5.67-3.14,9.15-5.26c-.2-4.85,5.12-12.56,5.12-12.56h-1s-4.71,1.57-5.73,2.12-1.3-2.12-1.3-2.12l-3.41-1-.48,1.26s-2.8,1-3.82-.08-2.12.46-2.66,0-2,.14-2.46,0,.14-4.51.14-4.51L219.22,241s4.64-1.16,7.1-1.64a10.4,10.4,0,0,0,4.23-1.71c.2-.2,3.62-1.37,5.39-2.32A6.39,6.39,0,0,1,240,235l1.71-2.53L238,227.87a20.1,20.1,0,0,1,4.85-4.36c3-1.9,4.16-6.91,4.16-6.91l6.69-7.17,14.47.2L263,205.21l.61-8.06,6.21,4.57,3.69-.14,3.82-3.14.68-6.83a16.35,16.35,0,0,1,3.48.89,5.88,5.88,0,0,1,3.28,3.14,17.89,17.89,0,0,1,.34,4.64c0,2.39,1,2.53,1.84,4.64s3.75,1.37,3.75,1.37,4.71-2.39,6.42-4.16,8.94-14.68,8.94-14.68l-6.08.68-3.55-3.82,15.36-15.84s-.68-1.91-1.5-1.91-1.3-1.23-1.43-2.53,1.3-2,1.3-2-.41-1.77-.61-2.39a19.22,19.22,0,0,0-1.09-4.23c-.75-1.43,2-1.3,2.25-1.3s.34-.07.89-1.43a4.48,4.48,0,0,0,.2-3.35c-.34-.75-3.21-.68-3.21-.68l5.05-4.92a34,34,0,0,1,6.69,6.55c0-.82,1.77-8.81,1.77-8.81a8.27,8.27,0,0,0,2.32-1c1.16-.75.82-5.6.68-6.83s3.21,1.91,3.21,1.91l.75-2.53S326.33,130,325.72,129.57Z"/><path class="cls-2" d="M66.6,337.2l-.25-2.38-1.78-.71,0-1.66-.64.33-1.35-2.43a3.05,3.05,0,0,1-2.59,1.81A4.62,4.62,0,0,1,57.08,331h-.27a3.24,3.24,0,0,1-1,2,1.92,1.92,0,0,1-2.77-.31,1.27,1.27,0,0,0-.16-.15,3.35,3.35,0,0,0-.71-.18,44.35,44.35,0,0,1-4.61.73H45.27l-1.11-1-1.67-1.28,1.57-4.24,0,0c-.05-2-.17-5.24-.25-7.48l-.05-1.47h.8v-3.41h.86a4.81,4.81,0,0,0,0-2,4.63,4.63,0,0,1-.48-3.4l.15-1,.17,0v-3.3h.55v-.86l-.83-.83.05-.66c0-.05.44-5.28.51-7.53a11.32,11.32,0,0,0-.34-3.45,3.79,3.79,0,0,1-.41-2.11v-1.05l5.71-1.73,3,0c0-1.65-.1-4.85-.12-5.77-.14-.33-.28-.66-.36-.81l-.8-.8-6.46.66L47.53,277a6,6,0,0,0,.57-1,3.65,3.65,0,0,1-1.58-2.87,3.53,3.53,0,0,1,.28-1.29,1.43,1.43,0,0,0,.05-1.16,2.82,2.82,0,0,0-.6-1.17l-1.6-.58,1.12-1.4a8.55,8.55,0,0,0,1.09-2.36l0-.2-.88-.55a6.24,6.24,0,0,1-4.25.52,4.4,4.4,0,0,0-2.49-.13l-.47.09a2.43,2.43,0,0,1-2.38-.61,12.92,12.92,0,0,0-1.65.05l-.46.21v4l-.41.41a20.28,20.28,0,0,1-5.29,3.54c-.1,1.49-.25,3-.46,4.44a2.59,2.59,0,0,1-3,2.28,3.07,3.07,0,0,1-2.67-3.47c.1-.68.18-1.38.24-2.13l-.08-.43c-.07-.36-.15-.71-.25-1.06a9.36,9.36,0,0,0-2.46-4l-.81-.82.65-1c1.56-2.32,3.37-5.06,3.37-5.06l.42-.64h2.89l.75-1.5h1.22c.43-3,.83-6,.83-6.43a3.41,3.41,0,0,0-.12-.54,2.81,2.81,0,0,1,.13-2.37,2,2,0,0,1,.59-.58c0-.23,0-.49,0-.73,0-.81,0-2.72,1.84-2.86a10.73,10.73,0,0,1,1.27,0c2.3.13,3.65,0,4-.26a6.11,6.11,0,0,0,2.26-3.62c.68-2.62,1.84-3.52,2.9-4a3.06,3.06,0,0,0,.24-.21,3.1,3.1,0,0,1,3.4-.85l.51.25.76.37c-.19-.49-.43-1-.66-1.47a7.72,7.72,0,0,0-1.68-.13H43.39l-.08-1.33c-.07-1.06-.54-6-.54-6.1l-.06-.6.39-.46s.45-.52.82-.9a13,13,0,0,0,.75-1.38l.33-.69.75-.11c1-.15,1.66-.22,1.91-.22a2.19,2.19,0,0,1,.82.18c0-.12,0-.23,0-.33l-.2-2A36.27,36.27,0,0,0,42.33,216a3,3,0,0,1-1-3.76,9,9,0,0,1,.94-1.6,3,3,0,0,1,.7-.86c2.1-2.28,4.65-3,6.85-1.89s3,4,3.57,6.68a9.2,9.2,0,0,1,.61,1.8c5.33-1.52,9.64,1,13.81,3.49.72.43,1.46.86,2.2,1.27.38.06.91.1,1.42.13a18.66,18.66,0,0,1,1.88.18,13.85,13.85,0,0,1,1.47.34,6.35,6.35,0,0,0,1.26.26,5.57,5.57,0,0,1,.38-.51,8.63,8.63,0,0,0,1.46-2.39l.41-1.23,1.26.29a2.59,2.59,0,0,0,1.89-.28c2.46-1.33,2.73-5,2.75-6,0-.25-.07-.32-.1-.34a.74.74,0,0,0-.55-.13l-1.88.24.31-1.87c.06-.35.13-.76.24-1.3l0-.18-1.11-.22a2.69,2.69,0,0,1-2-1.73,3.25,3.25,0,0,1,.53-3,22.64,22.64,0,0,0,3.81-7.44l-.15-.9.57-.77c.57-2.76.74-6.64-1.4-10a8.64,8.64,0,0,0-3.61-2.86c-2.17-1.16-4.63-2.47-4.94-6.5a22,22,0,0,1,1.52-9c1.38-3.71,1.78-5.77.66-8.92-1-2.77-1.72-5.72-.6-8.59a7.85,7.85,0,0,1-.27-.88c-.09-.32-.2-.75-.39-1.36a.77.77,0,0,0-.14-.29l-2.31,1.25.48-2.67.45-5.23-1.06-.85,2.88-.64.18,0a4.8,4.8,0,0,1,.11-.74,3.89,3.89,0,0,1,2.24-2.56l.12-.07a2.44,2.44,0,0,0,0-1l-.53-2.13,2.86.52c.48.05,3.85.42,5.69.65.35-.66.69-1.37,1-2.12a27.57,27.57,0,0,1,3.61-6.11,13.89,13.89,0,0,1,1.29-1.28A3,3,0,0,0,93,120.17c0-.55.05-1,.06-1.52A10.81,10.81,0,0,1,94,114l.39-.83a36.53,36.53,0,0,0,1.51-3.5A3,3,0,0,1,93,109c-2-1.74-2.48-4.88-1.35-8s3.6-5.18,6.26-5.26a4.81,4.81,0,0,1,1.73.35,2.84,2.84,0,0,0,.59.17c1.67,0,1.91-.22,2.26-.56A5.09,5.09,0,0,1,105,94.28a4.67,4.67,0,0,1,5.3,1.83,7.89,7.89,0,0,1,.8-.15l1.15-.15.38,1.09c1.83,5.28-1.23,8.66-3.94,11.63-2.22,2.44-4.31,4.74-4.06,8,0,.27.17.68.56.69a76.89,76.89,0,0,0,9.53-.88l1.16-.17.39,1.11c1.38,4,3.11,6.6,5.59,8.52a.77.77,0,0,0,1,.13c.81-.35,1.6-.71,2.39-1.07,5-2.29,10.23-4.65,16.45-2.66a.31.31,0,0,0,.31,0,1,1,0,0,0,.38-.72,36.29,36.29,0,0,0-.62-10.11,1,1,0,0,0-.66-.29,4.25,4.25,0,0,1-3.79-3c-1.55-4.49,1.74-12.94,4-15C144,90.5,148,90.52,151.6,90.51a33,33,0,0,0,3.42-.1l.84-.11c2.84-.4,5.5-.65,6.84.63a3.26,3.26,0,0,1,1.06,2.93c-.45,3-4.9,5.35-5.4,5.61-3.43,1.74-4.42,3.24-4.37,6.66a.57.57,0,0,0,.38.52.55.55,0,0,0,.63-.1c2.44-2.4,4.66-.88,6,0a4.28,4.28,0,0,0,2.42,1.06c1.8-.08,3.33-1.56,4.67-4.52,2.8-6.17,3.15-12.63,3.53-19.47.11-1.93.22-3.92.38-5.89l.41-4.8,2.25,4.26c.07.13.15.27.48.11a.71.71,0,0,0,.39-.94,4.79,4.79,0,0,1-.37-1.14l-.21-1,.95-.49c5-2.58,8.19-5.67,9.77-9.46l2-4.71.75,5a3.91,3.91,0,0,1,0,.87,8.81,8.81,0,0,0,0,1.16,2.65,2.65,0,0,1,1.07.33,2.19,2.19,0,0,1,1,1.21c.18.1.49.24.71.34a6.28,6.28,0,0,1,1.67,1,5.31,5.31,0,0,1,1.34,3.19c.06.31.12.64.2,1l1.77-1.26.44,2.13c0,.12,0,.16,0,.2.1.35.27.47.57.4a.68.68,0,0,0,.53-.83l-.12-.71a10.25,10.25,0,0,1,.41-3l.24-1,1.91-.14c3.06-.21,6.88-.47,8.26-2.19a3.26,3.26,0,0,0,.51-2.63l-.06-.4.16-.37a3.23,3.23,0,0,0,.12-.5,6.21,6.21,0,0,1,.5-1.6,2.47,2.47,0,0,0-.84-1.08,3.26,3.26,0,0,1-2.17-1.54,3.82,3.82,0,0,1-.47-3h-.52a3.36,3.36,0,0,1-1-.16L203,55.38l1-1.55c.4-.65.84-1.31,1.28-2,1.86-2.76,3.61-5.37,2.54-8.07l-.42-1.06.51-.35a3.24,3.24,0,0,1-.33-1.31,22.21,22.21,0,0,0-.8-2.29c-.32-.84-.69-1.79-1-2.67a3.29,3.29,0,0,0-.66-1l-.85-1,.94-.92.59-.57.14-.13c3.18-3,6.53-4.11,10-3.32a.54.54,0,0,0,.6-.17.64.64,0,0,0,.09-.65l-.27-.56.28-.7a9.07,9.07,0,0,1,.94-1.83,5.66,5.66,0,0,0-1.43-1L215,23.64l1-3.21.27-.25c.41-.38,1.43-1.36,2.14-2.13a8.07,8.07,0,0,0-1.36-.8l-1.31-.6L218,11.88l1.41,1.36a5.47,5.47,0,0,0,3.09,1.38A18.18,18.18,0,0,0,228.26,13l2.34-1.05-.35,2.54a9.53,9.53,0,0,0,0,3.39,27.66,27.66,0,0,1,2.85,2.95c.49.55,1,1.18,1.25,1.36a5.75,5.75,0,0,0,.67.45A5.09,5.09,0,0,1,237.41,25a8.44,8.44,0,0,1,.32,1.16c.49-1.4,1-2.77,2.28-3.12a6,6,0,0,1,1.14-.2h0l.19-.24c.27-.36.56-.73.83-1.07l.35-.45a3.83,3.83,0,0,1-.3-3.68l.53-1.58,1.48.78a6.21,6.21,0,0,0,1.32.43,6,6,0,0,1,3,1.46c1.08,1.08,3.62,5.19,3.41,7.35a2.21,2.21,0,0,1-2.25,2.13,9.59,9.59,0,0,0-.39,1.39l0,.13a2.17,2.17,0,0,1,2,2.09,5.53,5.53,0,0,0,.12,1.34s0,0,.07.08a2.71,2.71,0,0,1,.56,1.53c.35.08.65.16.9.23a3.9,3.9,0,0,0,.76.17,4.64,4.64,0,0,0,1.31-.41l1.36-.63.56,1.39a16.11,16.11,0,0,0,1.57,3.06,6.23,6.23,0,0,0,1.13,1.05,4.58,4.58,0,0,1,.81.74,46,46,0,0,0,4.15,2.24l.78.38a32.41,32.41,0,0,0,4.7,2.07,31.24,31.24,0,0,0,4.73-3.71l1-.89,1,.91c.68.65,4.13,3.93,4.71,4.65l.23.27a8.68,8.68,0,0,1,2.33,4.7c0,.37.06.73.09,1.07.1,1.41.19,2.21.71,2.76l2.79,1.54-.29,1.07c-.82,3-1.35,3.92-1.93,4.22a5,5,0,0,0-.37.85,1,1,0,0,0,0-.25,61,61,0,0,1-2.23,6.29,9.17,9.17,0,0,0-.63,2.25l.55.2a16.24,16.24,0,0,1,4.76,2.42,78.57,78.57,0,0,1,7,6.64l.5.53-.58,3a6.9,6.9,0,0,0,2,.38l.85-.15.53.69a4.07,4.07,0,0,0,2.7,1.76l1.23.09.11,1.23c0,.65.41,2.49,1.51,3.07a4.5,4.5,0,0,1,2.84,4.05l.08.52a7.46,7.46,0,0,0,.26,1.07,2.51,2.51,0,0,1-.7,3,4.87,4.87,0,0,0-1,1.84l.17.31c.52,1,1.24,2.3.92,3.57a7.22,7.22,0,0,1-.48,1.25l-.16.36.65.3a11.36,11.36,0,0,1,4.3,2.88c.26.33.5.66.74,1s.58.79.83,1.07c.18-.17.36-.37.55-.57a4.49,4.49,0,0,1,3.2-1.88h4.69l-.21,1.6a10.89,10.89,0,0,0,0,2.87c.88,4.19,0,5.21-.33,5.54-.78.87-2.07,3.41-1.83,4a4.24,4.24,0,0,0,1,0,3.9,3.9,0,0,1,3.37,1,60.14,60.14,0,0,0,4.46,4.2h0c.66.51,2.86,2.92,3.52,3.65l.54.59L329,138.18l-1.67-1.57-.65-.59c.06,2.3-.2,4.82-1.5,5.66a9.73,9.73,0,0,1-1.88.94c-.77,3.5-1.53,7.18-1.57,7.73l-.25,4-2.32-3.23a30.18,30.18,0,0,0-5.43-5.5l-2,2a2.08,2.08,0,0,1,1.39,1.15,5.81,5.81,0,0,1-.18,4.46c-.5,1.25-.93,2.32-2.2,2.32-.26,0-.48,0-.65,0a16,16,0,0,1,.7,2.92,7.35,7.35,0,0,0,.14.74c.22.66.61,2.33.65,2.52l.26,1.11-1,.49c-.14.07-.52.35-.5.55a3.72,3.72,0,0,0,.33,1.28c1.45.22,2.25,2,2.53,2.83l.3.83-15,15.51,2.15,2.31,8.11-.91-1.35,2.41c-.75,1.34-7.38,13.12-9.16,15s-6.29,4.19-6.8,4.45l-.29.11c-1.44.37-4.42.38-5.43-2.23a7.41,7.41,0,0,0-.81-1.51,5.76,5.76,0,0,1-1.13-3.65,18.33,18.33,0,0,0-.28-4.23,4.56,4.56,0,0,0-2.43-2.23,14,14,0,0,0-1.72-.53l-.59,5.87L274,203l-4.66.17-4.55-3.35-.37,4.79,7.62,6.52-17.77-.25-6,6.45c-.36,1.3-1.72,5.52-4.69,7.4a19.08,19.08,0,0,0-3.76,3.18l3.67,4.48-2.86,4.24-1-.26a4.91,4.91,0,0,0-3.06.22,41.55,41.55,0,0,1-4,1.74c-.46.18-1,.4-1.24.5a12.26,12.26,0,0,1-4.77,1.93c-1.42.28-3.6.79-5.16,1.16l3.89,6.41-.06.49c-.11.91-.21,2-.26,2.76a3.16,3.16,0,0,1,1.54.15,2.74,2.74,0,0,1,3.32.46,3.5,3.5,0,0,0,1.72-.11l.69-1.81,5.59,1.57.1,1a5.36,5.36,0,0,0,.11.61c1.61-.65,4.41-1.6,5.07-1.81l.22-.07h3.88l-1.53,2.22c-1.41,2-5,8.12-4.87,11.7l0,.84-.72.43c-2.94,1.79-7.48,4.33-8.82,5.07-.81,1.59-3.56,6.88-5.24,8.63s-7.14,3.44-9.49,4.11c-1.78,8.91-3.21,9.41-3.83,9.63a6.34,6.34,0,0,0-1.38.64,21,21,0,0,1-3.15,3.25c-.25.19-.48.38-.71.57A11.45,11.45,0,0,1,203,301a13.25,13.25,0,0,1-3.75,2.28,5,5,0,0,0-.59.27l-.41.24a13.3,13.3,0,0,0-1.21.75c-.27.4-.84,1.06-1.22,1.5l-2.29,3.81-1.92,1.79-.54,1.73H180.88l.06-1.47c0-.12.46-12.41-.39-17.6l0-.23v-.49h-.35a3,3,0,0,1-2.2,1.15h-.2a.76.76,0,0,0-.17.4s.15.45,1.58.94l.9.31.06.94a3.26,3.26,0,0,1-1.6,3l-.66.38-.68-.34a9.8,9.8,0,0,0-2.08-.81l-.65-.07c-1.5-.17-6.08-.69-7.93-.18l-.48.13c-2.49.7-5.55,1.56-8,1a5.51,5.51,0,0,1-.1.7l-.21,1-1,.13-.16.94-2.35.07-.08,1-1.28-.08-.12.54H151l.06,3.05-5.77,2.09-.31-1.93-6.28,1.3L125.07,309l-.07-2.35-4-.35c-.43.14-1.52.53-2.66.94l-.11,2.44-1.54,2.45-.37,2.52,2.71,1.85-.91,3.15c.89,2.61,1.91,5.42,2.26,6.19l.35.28,0,.8c0,.92-.72,1.55-2.76,3l-.14.1-3,2.11-.37.26H100.7l-.38-.29a5.33,5.33,0,0,0-1-.59,2.78,2.78,0,0,1-2.19,1H97a2,2,0,0,1-2.68,1c-.34-.1-.35-.09-.42-.05a12.36,12.36,0,0,1-4.32,1.13l-10.06,2.13Zm.75-5,1.63.65.16,1.45,10.16-.36,10-2.12a9.89,9.89,0,0,0,3.23-.77,3,3,0,0,1,2.28-.32,2.69,2.69,0,0,1,2.17-1h.17a2.07,2.07,0,0,1,1.33-1,4.36,4.36,0,0,1,3.21.91h11.93l2.64-1.86.14-.1q.83-.58,1.28-.93c-.43-1-1.12-2.86-2.36-6.5l-.14-.42.59-2-2.48-1.7.72-4.86,1.46-2.33.16-3.57.88-.33c3.92-1.45,4.1-1.45,4.38-1.45.07,0,.27,0,5.66.48l1.25.11.07,2.16,10.58.18,8.88-1.84.24,1.48.64-.23-.08-3.91h2.42l.15-.69.91.06.06-.77,2.57-.07.12-.7.9-.12a2.05,2.05,0,0,1,.72-1.9,2.65,2.65,0,0,1,2.57,0c1.81.43,4.7-.38,6.82-1l.49-.14c2.11-.59,5.92-.26,9,.1l.42,0a3,3,0,0,1-.39-1,3.92,3.92,0,0,1,1.42-3.42l.4-.33h1.22a1.66,1.66,0,0,0,.31-.37l.37-.65.74-.07s.75-.07,1.22-.07a5.49,5.49,0,0,0,.81-.33l2-1V294c.7,4.45.55,13.11.46,16.58H189l.14-.46,2.18-2,2.3-3.79c.43-.49,1-1.13,1.08-1.3a5.71,5.71,0,0,1,2.15-1.62l.39-.23a7.55,7.55,0,0,1,.93-.44,10.66,10.66,0,0,0,3.23-2l.23-.2.29-.09a8.89,8.89,0,0,0,3.79-2c.26-.21.52-.43.81-.64a18.84,18.84,0,0,0,2.73-2.87l.19-.2a7.14,7.14,0,0,1,2.15-1.15c.64-.93,1.72-5,2.37-8.43l.17-.87L215,282c3.13-.84,8-2.5,9-3.57,1.33-1.38,4-6.48,4.94-8.32l.2-.39.38-.21c.05,0,5-2.77,8.43-4.83.2-3.14,2-6.95,3.5-9.54-1.33.47-2.59.94-3,1.15a1.9,1.9,0,0,1-1.81,0,3.32,3.32,0,0,1-1.4-2.27l-1.3-.36-.25.66-.62.22c-.6.21-3.63,1.19-5.24-.35l-.25.11a2.25,2.25,0,0,1-2.19,0,6.63,6.63,0,0,0-.68.1,3,3,0,0,1-1.52,0c-1.11-.37-1.4-1.2-.88-5.54L217,240.07l1.87-.47c.19,0,4.71-1.18,7.17-1.65a9.8,9.8,0,0,0,3.56-1.37c.24-.24.53-.36,2-.92a39.72,39.72,0,0,0,3.71-1.6,7.08,7.08,0,0,1,4.11-.65l.6-.89-3.79-4.62.67-.89a21.44,21.44,0,0,1,5.22-4.71c2-1.3,3.25-4.79,3.54-6l.09-.37,7.38-7.91,11.18.16-2.75-2.36.86-11.32,7.87,5.8,2.71-.1,3-2.47.77-7.68,1.44.17a17.77,17.77,0,0,1,3.82,1,7.27,7.27,0,0,1,4.12,4,18.72,18.72,0,0,1,.4,5.06,3.06,3.06,0,0,0,.67,2.1,10.19,10.19,0,0,1,1.08,2c.29.76,1.55.6,2,.53a29.76,29.76,0,0,0,5.87-3.8c1-1,4.6-7.14,7.36-12l-4,.45-5-5.33,15.62-16.11-.15-.23c-1.35-.2-2.27-1.58-2.5-3.77a3.22,3.22,0,0,1,1.11-2.73c-.13-.54-.28-1.1-.36-1.34A8.22,8.22,0,0,1,308,159a10.63,10.63,0,0,0-.76-2.86,2.07,2.07,0,0,1,0-2.14,3.33,3.33,0,0,1,2.85-1.23l.23-.55a3.91,3.91,0,0,0,.31-1.93,9.33,9.33,0,0,0-2-.15l-3.6.08,8.49-8.26,1,.7a39.17,39.17,0,0,1,5,4.44c.38-1.89.89-4.19,1.25-5.85l.19-.87.87-.2a7,7,0,0,0,1.76-.76c.33-.67.41-3.3.16-5.55a1.62,1.62,0,0,1,.86-1.69,1.8,1.8,0,0,1,1.89.18c-.76-.81-1.41-1.47-1.6-1.63a60.25,60.25,0,0,1-4.83-4.54c-.11-.12-.74-.09-1.11-.07-1,0-2.59.13-3.53-1.34-1.59-2.5,1.51-6.66,2-7.35a8.76,8.76,0,0,0-.26-3.16A9.81,9.81,0,0,1,317,112h-1.54c-.22,0-.78.61-1.12,1a11.29,11.29,0,0,1-1.13,1.1,2.27,2.27,0,0,1-1.76.54c-1.21-.16-2-1.24-2.85-2.39-.21-.29-.43-.59-.67-.89a9.3,9.3,0,0,0-3.25-2.06,11.77,11.77,0,0,1-1.39-.7c-1.7-1.09-.86-2.93-.5-3.72a5.17,5.17,0,0,0,.3-.75,5.79,5.79,0,0,0-.67-1.54,3.91,3.91,0,0,1-.52-1.27,6.56,6.56,0,0,1,1.9-4.27l0-.13a10.07,10.07,0,0,1-.35-1.45c0-.2-.06-.39-.08-.57-.17-1.2-.19-1.32-1.37-2a6.2,6.2,0,0,1-2.84-4.3A7.09,7.09,0,0,1,296,86.55a15,15,0,0,1-3.73-.92l-1.12-.42.77-4a69.63,69.63,0,0,0-6.16-5.81,13.55,13.55,0,0,0-4-2,4.67,4.67,0,0,1-1.83-.92c-1.32-1.32-.15-4.4.25-5.31s1.9-5,2-5.47h0A4.79,4.79,0,0,1,283.69,59a15.9,15.9,0,0,0,.55-1.56L283,56.76c-1.5-1.34-1.62-3.08-1.75-4.76,0-.32,0-.65-.08-1a6.14,6.14,0,0,0-1.67-3.15l-.28-.34c-.25-.32-1.84-1.88-3.5-3.46-4.09,3.58-5.15,3.59-5.57,3.59-.91,0-2.43-.6-6-2.39l-.68-.33s-4.62-2.16-5.25-3.1l-.3-.22a8.86,8.86,0,0,1-1.61-1.52,13.58,13.58,0,0,1-1.44-2.51,4.51,4.51,0,0,1-1.14.18,5.49,5.49,0,0,1-1.53-.28,8.61,8.61,0,0,0-1.68-.34c-1.32-.12-1.79-.77-2-1.29a1.74,1.74,0,0,1,.36-1.64,4.3,4.3,0,0,1-.43-2,8.16,8.16,0,0,1-1-.24,2,2,0,0,1-1.38-1.2,1.94,1.94,0,0,1,.31-1.75,1.42,1.42,0,0,0,.09-.15l0-.11a13,13,0,0,1,.63-2.11,2.25,2.25,0,0,1,1.91-1.46,14,14,0,0,0-2.54-4.69,2.54,2.54,0,0,0-1.18-.58,1.51,1.51,0,0,1,.39,1c0,.68-.39,1.18-1.34,2.37-.26.32-.53.67-.78,1a2.75,2.75,0,0,1-2.23,1.36,3.55,3.55,0,0,0-.43.06,10.78,10.78,0,0,0-.65,1.63c-.54,1.55-1.15,3.32-2.84,3.11s-2.2-2.19-2.48-3.49a8.47,8.47,0,0,0-.24-1c-.1-.28-.76-.67-1.19-.94a7.38,7.38,0,0,1-1.09-.76c-.3-.27-.76-.78-1.47-1.58A28.2,28.2,0,0,0,228.48,20c-.93-.68-1.22-2.11-1.22-3.63a14.59,14.59,0,0,1-4.81,1,6.2,6.2,0,0,1-1.06-.13,2.09,2.09,0,0,1,.08.26,2,2,0,0,1-.39,1.73,33.88,33.88,0,0,1-2.6,2.69l-.09.29a4.58,4.58,0,0,1,2,2.42,2.3,2.3,0,0,1-.4,1.92,5.51,5.51,0,0,0-.63,1.11,3.49,3.49,0,0,1-.67,3,3.35,3.35,0,0,1-3.45,1.16c-2.38-.55-4.8.27-7.19,2.46a4.79,4.79,0,0,1,.4.9c.26.81.6,1.68.92,2.53a11.28,11.28,0,0,1,1,3.3.82.82,0,0,1,.12.22,2.85,2.85,0,0,1,.19,2.24c1,3.71-1.1,6.94-3,9.81a2.06,2.06,0,0,1,1.32.84,2.69,2.69,0,0,1,.09,2.48,1,1,0,0,0,.32,1.17,4.33,4.33,0,0,1,2.76,2.27,2.91,2.91,0,0,1,.19,2.8,3.37,3.37,0,0,0-.29,1c0,.2-.09.42-.15.65A5.86,5.86,0,0,1,210.68,69c-2.13,2.64-6.52,3-10.1,3.23a4.88,4.88,0,0,0-.12,1.08l.09.5a3.52,3.52,0,0,1-2.68,4.06,3.18,3.18,0,0,1-3.31-1.13,2.15,2.15,0,0,1-1.32,0,2.44,2.44,0,0,1-1.48-1.88c-.15-.6-.25-1.14-.35-1.63a5,5,0,0,0-.46-1.62,5.07,5.07,0,0,0-.92-.48,3.87,3.87,0,0,1-2.09-1.6,1.61,1.61,0,0,1-1.44-.25,1.64,1.64,0,0,1-.28-.27,24.24,24.24,0,0,1-8,6.69,3.53,3.53,0,0,1-1.87,4.21,3.33,3.33,0,0,1-1.76.37c-.08,1.2-.15,2.4-.21,3.58-.37,6.8-.76,13.83-3.78,20.48-1.8,4-4.2,6-7.12,6.18a6.69,6.69,0,0,1-4.15-1.55c-1.48-1-1.68-1-2.4-.34a3.36,3.36,0,0,1-3.69.7,3.42,3.42,0,0,1-2.13-3.11c-.06-5.15,2.22-7.35,5.93-9.23,1.72-.87,3.73-2.52,3.88-3.49,0-.09,0-.22-.22-.47-.41-.27-1.92-.23-4.48.13l-.93.12a36.11,36.11,0,0,1-3.72.12c-3.18,0-6.44,0-8.33,1.77-1.62,1.52-4.32,8.87-3.23,12a1.43,1.43,0,0,0,1.36,1.12,3.43,3.43,0,0,1,3.2,2.65,38.69,38.69,0,0,1,.63,10.89,3.82,3.82,0,0,1-1.66,2.78,3.15,3.15,0,0,1-2.71.34c-5.17-1.66-9.45.28-14.41,2.54-.81.37-1.62.73-2.44,1.09a3.55,3.55,0,0,1-3.85-.49,19.05,19.05,0,0,1-6.13-8.73,76.41,76.41,0,0,1-8.73.75,3.45,3.45,0,0,1-3.44-3.31c-.34-4.52,2.38-7.51,4.79-10.16s4.11-4.71,3.69-7.49l-1.6,1-.44-1.93A1.93,1.93,0,0,0,105.79,97a2.33,2.33,0,0,0-1.29.73c-.8.79-1.59,1.4-4.27,1.38a4.57,4.57,0,0,1-1.52-.33A1.89,1.89,0,0,0,98,98.6c-1.82.05-3.11,1.86-3.67,3.4s-.66,3.8.57,4.9c.09.08.13.08.23,0,1.36-.7,2.42-.69,3.16,0,1.38,1.34.29,3.93-1.4,7.45-.15.31-.27.57-.36.77a8.18,8.18,0,0,0-.61,3.54c0,.51,0,1.05-.07,1.65A5.66,5.66,0,0,1,93.69,125a11.06,11.06,0,0,0-1,1,25.6,25.6,0,0,0-3.2,5.48c-.46,1-.9,1.87-1.37,2.73l-.32,1.27-1.52-.21c-1-.15-4-.48-5.55-.65a2.84,2.84,0,0,1-1.3,2.1l-.2.12c-.87.52-.88.56-.93.76a3.37,3.37,0,0,0-.06.7,2.93,2.93,0,0,1-.23,1.21,3,3,0,0,1,.92,2.62,2,2,0,0,1-1.78,1.46l-.56.08a3.33,3.33,0,0,1,1.06,1.64c.21.67.34,1.14.43,1.49a2.6,2.6,0,0,0,.2.62l.63.63-.46.91c-1,2-.59,4.21.42,7.07,1.52,4.29.64,7.33-.67,10.86a19.19,19.19,0,0,0-1.35,7.79c.19,2.48,1.49,3.17,3.44,4.21a11.19,11.19,0,0,1,4.66,3.83c2.17,3.39,2.76,7.68,1.71,12.4l-.06.29-.21.29.06.35-.08.3a25.54,25.54,0,0,1-4.4,8.73.48.48,0,0,0-.09.26,20.74,20.74,0,0,0,2.38.37l1.54.16-.29,1.52c0,.23-.12.5-.21.81s-.12.41-.18.65a3.3,3.3,0,0,1,1,.6,3.22,3.22,0,0,1,1,2.51c0,1.88-.54,6.47-4.24,8.47a5.58,5.58,0,0,1-2.68.7,13.36,13.36,0,0,1-1.5,2.23,3.28,3.28,0,0,0-.29.41A2.23,2.23,0,0,1,76,224.92a8.73,8.73,0,0,1-1.89-.35,11.25,11.25,0,0,0-1.19-.28c-.46-.08-1-.11-1.59-.15a12.94,12.94,0,0,1-2.06-.23l-.19,0-.17-.09c-.83-.46-1.65-.94-2.46-1.42-4.17-2.46-7.77-4.59-12.21-3l-.36.08-.78.08-.78.09-.77-1-.07-.48a6.73,6.73,0,0,0-.64-2.47l-.11-.34c-.21-1.05-.85-4.25-2.09-4.87-1.47-.73-3,.69-3.57,1.34l-.39.48a6.19,6.19,0,0,0-.69,1.15.46.46,0,0,0-.05.19h0a.61.61,0,0,0,.16.16,39.09,39.09,0,0,1,6.65,6.42l.27.33.28,2.84c.23,1.61,0,2.76-.61,3.38a1.73,1.73,0,0,1-1.51.47,6.61,6.61,0,0,1-1.49-.47l-.12,0-.64.08a6.77,6.77,0,0,1-1,1.47l-.28.3c.09,1,.27,2.92.39,4.29,1.18.1,2.48.43,2.88,1.6a11.85,11.85,0,0,1,1.39,4.22,1.83,1.83,0,0,1-.85,1.6c-1.11.69-2.52.08-4.4-.85l-.33-.16a4.57,4.57,0,0,0-.47.37,4,4,0,0,1-.81.58c-.42.21-1,.5-1.45,2.23a8.7,8.7,0,0,1-3,4.94c-1.32,1.25-3.67,1.22-6.16,1.08H32.7v0a6.57,6.57,0,0,1-.3,2.22l-.29.79-.21,0a4.49,4.49,0,0,1,.18,1.15c0,1-.87,6.89-1,8.06l-.18,1.21H28.94l-.75,1.5H25.07l-2.34,3.51a12,12,0,0,1,2,3.19L25.9,269l-.27,3.77c-.09,1.2-.2,2.29-.35,3.33a.15.15,0,0,0,0,.15l.07.06q.34-2.42.46-4.85l0-.87.79-.35a20.2,20.2,0,0,0,4.8-2.94v-4.59L34,261.51l.23,0c2.81-.3,3.63.08,4,.56h0l.34-.07a7.13,7.13,0,0,1,3.81.16c1.19.32,2.46-.39,3.29-.86l.49-.27a1.66,1.66,0,0,1,2,.2,1.73,1.73,0,0,1,.51,1.51l1.19.75-.25,2a8.32,8.32,0,0,1-.95,2.55,6.28,6.28,0,0,1,.83,1.77,4.2,4.2,0,0,1-.11,3,2.32,2.32,0,0,0-.1.3c0,.16.25.49.8.86a2,2,0,0,1,.84,1.29,2.55,2.55,0,0,1,0,.9l2.26-.23,1.84,1.84a5.15,5.15,0,0,1,1,1.92l.09.23v.25c0,.22.14,5.29.14,6.73a2.23,2.23,0,0,1-.94,1.93,3,3,0,0,1-2.48.24H50.94l-3.12.94a13.35,13.35,0,0,1,.57,4.64c-.05,1.87-.34,5.53-.46,7l.74.74V306H49v4l-1.31.22a2.18,2.18,0,0,0,0,.29c.87,1.18.8,4,.22,5a4.18,4.18,0,0,1-.51.75v4.16h-.7c.29,7.9.23,8.12.18,8.35a1.56,1.56,0,0,1-.83,1l-.13.06.4.37h1.16c.26,0,2.42-.39,4.33-.73l.19,0,.19,0a6.42,6.42,0,0,1,1.81.46l0,0c0-.12,0-.25,0-.36v-1.37l4.15-.14.44.5a2.65,2.65,0,0,0,1.15.74,3.22,3.22,0,0,0,.52-1.1l.36-1.4,3.67,1L65,329l2.23-1.17ZM120.43,326ZM45.56,312.3h0Zm2.18-1.75Zm149.31-6Zm.11-.14h0ZM157,300.17Zm54.51-8.54Zm-31-.87h0ZM46.21,269.41Zm180.91-17.35h0Zm4.44-13.43-.06.05ZM75.36,140.93h0l-.2-.2ZM317.5,117.29l0,.06Zm-12.81-16.55h0ZM194.57,74.3Zm90.29-12.76h0Zm-76-.91Zm.41-2.79h0Zm51.31-17.61h0Zm-.17-.19h0Z"/></svg>