<svg id="Layer_1" data-name="Layer 1" xmlns="http://www.w3.org/2000/svg" viewBox="0 0 350 350"><defs><style>.cls-1{fill:#999;}.cls-2{fill:#f90;}</style></defs><title>M</title><path class="cls-1" d="M335.63,175a16.34,16.34,0,0,1-3.73-4.36c-1.75-3.23-1.68-7.09-2.36-10.69s-2.7-7.51-6.3-8.23c3-3.66,6-7.43,7.38-11.92s.85-9.91-2.6-13.11c-3.24-3-8.25-3.45-11.52-6.42-7.6-6.9-.82-21.29-7.65-28.94-1.62-1.81-3.86-3-5.37-4.92-3.58-4.49-2-11.08.11-16.42A118.88,118.88,0,0,1,322.5,38c-5.63-4.81-11.34-11.74-17.71-15.38-5.82-3.33-13.18-3.73-19.71-4-1.72-.06-3.62-.06-4.89,1.1s-1,3.85.74,4c-4.11,2.54-7.72-4.38-12.33-5.84-4.36-1.37-8.45,2.48-11.51,5.88s-7.53,7-11.69,5.13c-2.65-1.2-4.18-4.37-7-5-2.05-.48-4.13.52-6,1.49-5.47,2.84-11.4,6.2-13.4,12a8.31,8.31,0,0,1-1.36,3c-1.05,1.16-2.77,1.34-4.33,1.46-4.35.33-9,.85-12.35,3.61s-4.56,8.6-1.2,11.38c1.54,1.28,3.63,1.64,5.39,2.59s3.27,3.09,2.34,4.87c-.61,1.16-2,1.63-3.22,2.06-2.65.91-5.38,2.16-6.86,4.54s-1,6.12,1.55,7.23c.54,3.51-3.71,5.92-7.26,5.9s-7.15-1.33-10.58-.41c-5.31,1.43-8.78,7.83-14.27,7.65-3.91-.13-6.74-3.57-9.71-6.12s-8-4.15-10.42-1.09c-2.12,2.66-1,7.58-4.14,9-1.39-4.4-2.94-9-6.42-12.06s-9.58-3.55-12.33.16c-1.84,2.49-1.67,6-3.37,8.6-2.37,3.6-7.71,4.14-11.63,2.34C107,91.28,105.18,90,103.14,90a8.67,8.67,0,0,0-4.24,1.68c-7.76,4.89-13.32,11.69-20.37,17.17-4.13,3.21-14.39,5.54-11.38,14a82.12,82.12,0,0,0-14.89-4c-6.55-1.1-15-.37-17.41,5.83-.8,2.06-.72,4.34-.9,6.55-.41,4.93-14,29-17.13,16-2.15-1.59-4.27-3.22-6.46-4.75-6.17-4.33-2.79,12.91-.82,15.44,0-1.76,2.86-.75,3.8.74A88.56,88.56,0,0,1,25.47,190a2.39,2.39,0,0,1-1.4,3c-4.56,3-9.9,5.84-11.45,11a19.65,19.65,0,0,0-.48,6.2l.31,10.55a3.73,3.73,0,0,0,.45,2A3.73,3.73,0,0,0,14.56,224c10.77,4.76,25,8.43,34.16,15.89,3.11-.07,4.71.95,3.86,4.5-.64,2.65.85,5.16,1.3,7.75a21,21,0,0,1,.77,5.71,30.43,30.43,0,0,0,21.17,29.26l2.92.27,3.16.3c1.4-.48,2.53-.71,2.22,1.5s-.44,4.55-.64,6.83q0,2,0,4c-.33,4.11-3,7.23-4.56,10.81l-.58,1.67c-1.38,3.93-2.63,7.91-4.19,11.76-2.09,5.19,1.42,9,6.23,7.79,5.12-1.34,13.12-12.42,17.06-16.16,8.7,1,17.84,2,26-1.33a36.28,36.28,0,0,1,5.93-2.3c9-1.94,25.53,7.32,32-4,2.91-5.08-1.09-12,1.54-17.2a13.2,13.2,0,0,0,16.28-7.65,21.83,21.83,0,0,0,.93-7.94c-.47-19.44-8.33-37.83-13-56.7a5.49,5.49,0,0,1-.07-3.55,5.36,5.36,0,0,1,2.78-2.3c7.4-3.58,16.44-3.8,23.37-8a24.35,24.35,0,0,0,2.69-1.9,2.87,2.87,0,0,0,.88-.67,9.41,9.41,0,0,0,6-1.17,14,14,0,0,1,1.62.44c.18-.67.33-1.37.47-2.09a8.66,8.66,0,0,0,2.46-6.15,14.58,14.58,0,0,1,.64-4.48,8.32,8.32,0,0,1,2.18-2.24,21.65,21.65,0,0,0,7.81,2.35,67.25,67.25,0,0,0,6.78.22,9.62,9.62,0,0,1,1.24,3.51c.59,3.91.19,7.84,1.35,11.67.1.33.41,1.92.73,2.13a.27.27,0,0,0,.11,0c0,.24,0,.47,0,.71.09,2.43,2.93,2.88,4.25,1.15-1.46,1.91,1.49,4.16,3.08,4.58a2.27,2.27,0,0,0,2.22-.59c1.49-1.64,1.1-2,1-4,0-.78-1.38-1.22-1.42-1.75-.37-5.4,2.41-3.6,4.17-6,2.33-3.14,3-5.65,2.11-8.19a4.82,4.82,0,0,0-.61-2.4.78.78,0,0,1,.12-.92,10.18,10.18,0,0,1,.86-.66,17.85,17.85,0,0,1,2.45.19c3,.46.7-.17,3.92,1.14,1.91.78,3.6,1.67,5.7,1.7l.49,0a8.41,8.41,0,0,0,.71,1.05c0,.22,0,.43.06.65a4.56,4.56,0,0,0,1.43,2.92c.58,2.37,2.09,3.85,5.76,3,9.58-2.32,13.78-12.34,21.91-16.88,10.79-6,23.37-2.13,34.08,2.19l15,6a8.41,8.41,0,0,0,3.92.88c4.54-.47,5-7.4,2.17-11A43.27,43.27,0,0,0,335.63,175Z"/><path class="cls-2" d="M78.56,333.74a6.4,6.4,0,0,1-4.91-2.11c-1.73-2-2-4.9-.85-7.87,1.07-2.65,2-5.43,2.93-8.12.41-1.2.82-2.4,1.24-3.59l.62-1.77c.53-1.21,1.17-2.36,1.79-3.48,1.25-2.25,2.44-4.37,2.65-6.83v-4.08c.06-.69.12-1.38.17-2.07.12-1.58.25-3.21.48-4.83v-.08l-.36.12-.29.1-6.69-.67a32,32,0,0,1-22.14-30.6,19.55,19.55,0,0,0-.72-5.33l0-.15a19.25,19.25,0,0,0-.63-2.36,11,11,0,0,1-.66-6,2.94,2.94,0,0,0,0-2.23c-.17-.21-.69-.56-2.42-.52h-.52l-.4-.33c-6.3-5.11-15.06-8.41-23.53-11.6-3.64-1.37-7.08-2.67-10.31-4.09a5,5,0,0,1-2.27-1.64,5,5,0,0,1-.7-2.79l-.31-10.55a21,21,0,0,1,.54-6.65c1.54-5.15,6.34-8.2,10.57-10.89l1.47-.94c.25-.16.76-.49.84-.72a2.5,2.5,0,0,0-.06-.88,87.7,87.7,0,0,0-11.93-30.83,2.68,2.68,0,0,0-1.21-.91l-.15,3.22-2.36-2.94c-1.62-2.09-4.72-14.45-1.74-17.58.52-.55,2-1.64,4.5.1,1.55,1.09,3.08,2.23,4.56,3.34l1.92,1.43.41.31.12.5c.31,1.29.88,2.81,1.83,2.73,4-.31,12.2-14.85,12.51-18.52,0-.5.07-1,.1-1.51a17.2,17.2,0,0,1,.89-5.44c2.67-6.85,11.54-8,19-6.71a83.76,83.76,0,0,1,12.71,3.19c-.51-5.73,4.85-8.61,8.9-10.78a27,27,0,0,0,3.55-2.12c2.82-2.19,5.46-4.65,8-7A84.65,84.65,0,0,1,98.14,90.51a9.89,9.89,0,0,1,5-1.89,10.11,10.11,0,0,1,5,1.57c.43.22.86.45,1.29.65,3.2,1.47,7.88,1.18,9.86-1.83a12.67,12.67,0,0,0,1.4-3.74,13.77,13.77,0,0,1,2-4.92,8.06,8.06,0,0,1,5.71-3.12A11.69,11.69,0,0,1,137.07,80c3.2,2.78,4.88,6.77,6.1,10.41a15.61,15.61,0,0,0,.6-2.33,11,11,0,0,1,1.82-4.79,5.85,5.85,0,0,1,4.13-2.17A12,12,0,0,1,158,84.15c.59.5,1.17,1,1.75,1.58,2.29,2.12,4.45,4.11,7.08,4.2s4.75-1.68,7.07-3.55c2-1.65,4.17-3.35,6.79-4.05a17.9,17.9,0,0,1,7.23,0,28.77,28.77,0,0,0,3.73.36h0a7.15,7.15,0,0,0,5.11-2.1,2.8,2.8,0,0,0,.71-1.53,5.46,5.46,0,0,1-2.11-2.94,7.3,7.3,0,0,1,.74-5.89c1.77-2.84,5-4.23,7.61-5.13,1-.33,2.08-.71,2.42-1.37.47-.9-.54-2.3-1.76-3a16.77,16.77,0,0,0-2-.85A12.28,12.28,0,0,1,198.84,58a7.21,7.21,0,0,1-2.52-5.72A10.43,10.43,0,0,1,200,44.45c3.63-3,8.48-3.57,13.14-3.93,1.41-.11,2.72-.27,3.39-1a5.19,5.19,0,0,0,.85-1.88c.07-.23.14-.45.22-.67,2.13-6.18,8.13-9.72,14.09-12.82,1.72-.89,4.31-2.24,7-1.61a10.09,10.09,0,0,1,4.57,3,10.39,10.39,0,0,0,2.7,2.12c3.37,1.53,7.33-1.75,10-4.78,3.38-3.77,7.92-7.88,13-6.28a16.82,16.82,0,0,1,5.52,3.58,15.06,15.06,0,0,0,3.56,2.53,4.14,4.14,0,0,1,1.13-4c1.78-1.61,4.36-1.52,5.9-1.47,7.37.26,14.47.78,20.37,4.15,4.36,2.49,8.34,6.39,12.19,10.15,2,1.94,3.86,3.77,5.74,5.38l1.06.91-.89,1.07a117,117,0,0,0-18.7,31.54c-2.75,6.92-2.85,11.83-.31,15a16.39,16.39,0,0,0,2.63,2.43,21.63,21.63,0,0,1,2.69,2.42c3.67,4.11,3.78,9.76,3.89,15.22s.21,10.48,3.66,13.61a18,18,0,0,0,5.32,2.92,20,20,0,0,1,6.21,3.51c3.56,3.3,4.73,9,3,14.57-1.29,4.13-3.87,7.68-6.39,10.85,2.63,1.43,4.57,4.49,5.36,8.61.21,1.1.35,2.22.49,3.3a19.6,19.6,0,0,0,1.73,7,15.19,15.19,0,0,0,3.42,4c.49.44,1,.86,1.51,1.29a29.64,29.64,0,0,1,4.45,4.31,10.29,10.29,0,0,1,1.4,9.8,5.42,5.42,0,0,1-4.54,3.48,9.61,9.61,0,0,1-4.59-1l-15-6c-11.13-4.49-22.82-7.87-32.86-2.27-3.22,1.79-5.78,4.49-8.49,7.35-3.83,4-7.8,8.22-13.78,9.67-3.79.92-6.38-.35-7.35-3.58a6.17,6.17,0,0,1-1.57-3.47c0-.11,0-.23,0-.34l-.09-.13a14.29,14.29,0,0,1-5.07-1.42l-.89-.38c-1.06-.43-1.55-.66-1.82-.79l-.19-.06c-.25,0-.7-.07-1.59-.21a14.89,14.89,0,0,0-1.72-.16,6,6,0,0,1,.54,2.33c.93,2.91.18,5.78-2.39,9.24a5.85,5.85,0,0,1-2.62,1.91c-1,.42-1.4.6-1.29,2.75l.09.07a2.91,2.91,0,0,1,1.35,2.09c0,.34,0,.63.07.89a4.44,4.44,0,0,1-1.43,4.17,3.7,3.7,0,0,1-3.64,1,7.1,7.1,0,0,1-4.25-3.53,3.78,3.78,0,0,1-1.67-.14,3.56,3.56,0,0,1-2.46-3.39v-.08a6.81,6.81,0,0,1-.74-2.13l-.07-.28a30.79,30.79,0,0,1-1-7.43c-.08-1.53-.16-3-.38-4.43a8.37,8.37,0,0,0-.69-2.3c-2.25,0-4.22-.07-6.06-.23a22,22,0,0,1-7.5-2.11,7,7,0,0,0-1.07,1.2,13.26,13.26,0,0,0-.52,3.85,10.12,10.12,0,0,1-2.56,6.83c-.14.69-.27,1.26-.41,1.78l-.39,1.47-1.44-.49c-.3-.1-.62-.2-1-.28a10.83,10.83,0,0,1-5.68,1.15,6.16,6.16,0,0,1-.57.37,25.79,25.79,0,0,1-2.76,1.93c-4,2.41-8.56,3.57-13,4.69a55.09,55.09,0,0,0-10.49,3.39,4.32,4.32,0,0,0-2.1,1.61,4.42,4.42,0,0,0,.15,2.63c1.4,5.63,3.12,11.33,4.79,16.84,3.91,13,8,26.37,8.29,40.17a23.1,23.1,0,0,1-1,8.45,14.15,14.15,0,0,1-7.37,7.83,14.39,14.39,0,0,1-9.41,1.07,17.56,17.56,0,0,0-.11,6.6c.33,3.24.67,6.59-1,9.57-4.71,8.23-14,6.69-22.14,5.34-4.08-.68-7.93-1.31-10.78-.7a20.12,20.12,0,0,0-3.95,1.47c-.58.26-1.16.52-1.75.76-8.41,3.44-18.08,2.43-26,1.5-1.06,1.07-2.39,2.6-3.8,4.22-4.4,5-9.38,10.77-13.42,11.83A8.5,8.5,0,0,1,78.56,333.74Zm1.65-22.36L79.65,313c-.42,1.19-.82,2.38-1.23,3.57-.93,2.72-1.89,5.54-3,8.26-.8,2-.67,3.77.35,4.93a4,4,0,0,0,4.21,1c3.19-.84,8.28-6.68,12-10.95,1.74-2,3.24-3.72,4.45-4.87l.48-.46.66.08c8.1,1,17.28,2,25.25-1.23.56-.23,1.11-.48,1.65-.72A22.59,22.59,0,0,1,129,310.9c3.38-.73,7.49,0,11.84.68,7.61,1.26,15.48,2.57,19.21-4,1.26-2.2,1-5,.68-7.88-.32-3.11-.65-6.33.83-9.26l.57-1.12,1.18.43A11.79,11.79,0,0,0,177.77,283a20.56,20.56,0,0,0,.85-7.42c-.32-13.41-4.31-26.63-8.17-39.42-1.67-5.54-3.4-11.27-4.82-17a6.67,6.67,0,0,1,0-4.47,6.74,6.74,0,0,1,3.46-3,57.2,57.2,0,0,1,11-3.59c4.43-1.12,8.62-2.17,12.22-4.36a22.92,22.92,0,0,0,2.54-1.79l.2-.14a2.19,2.19,0,0,0,.46-.31l.5-.67.81.14a8,8,0,0,0,5.06-1l.47-.27.53.11.28.06.12-.6.08-.41.29-.3a7.24,7.24,0,0,0,2.06-5.16,16,16,0,0,1,.7-4.92l.06-.2.11-.17a9.76,9.76,0,0,1,2.55-2.61l.68-.47.75.36a20.38,20.38,0,0,0,7.32,2.22,64.48,64.48,0,0,0,6.63.21h.82l.42.7a11.07,11.07,0,0,1,1.43,4c.24,1.59.33,3.18.41,4.71a28.25,28.25,0,0,0,.9,6.77c0,.08.06.24.11.44s.1.43.18.7h.53l.12,2.08c0,.43.18.69.49.79a1.15,1.15,0,0,0,1.22-.44h0l2.25,1.72h0a.37.37,0,0,0-.07.41,4.21,4.21,0,0,0,2.4,1.94.9.9,0,0,0,.8-.17c.8-.89.8-.93.7-2,0-.23,0-.48-.06-.77l-.29-.23a2.45,2.45,0,0,1-1.14-1.72c-.28-4.17,1.18-5.15,3-5.92a3.18,3.18,0,0,0,1.48-1c2.06-2.77,2.63-4.83,1.91-6.87l-.1-.27,0-.29a3.59,3.59,0,0,0-.47-1.69,2.16,2.16,0,0,1,.46-2.6,11.53,11.53,0,0,1,1-.75l.38-.27h.46a19,19,0,0,1,2.65.2c.81.13,1.21.17,1.44.19a2.64,2.64,0,0,1,1.12.31c.25.12.7.33,1.68.73l.93.39a11.25,11.25,0,0,0,4.26,1.2l.18,0,1.07-.07.44.76a7.14,7.14,0,0,0,.59.88l.28.35,0,.45c0,.22,0,.38,0,.53a3.25,3.25,0,0,0,.93,2l.36.3.11.46c.34,1.39.93,2.68,4,1.92,5.17-1.25,8.68-5,12.39-8.86C279.14,186,282,183,285.56,181c11.11-6.2,24.08-2.41,35.3,2.12l15,6a7.43,7.43,0,0,0,3.24.79,2.64,2.64,0,0,0,2.22-1.77,7.51,7.51,0,0,0-1-6.94,27.05,27.05,0,0,0-4-3.88c-.52-.44-1-.88-1.56-1.33h0a17.78,17.78,0,0,1-4-4.75,22,22,0,0,1-2.05-8c-.14-1.09-.27-2.11-.46-3.13-.58-3.05-2.25-6.52-5.18-7.1l-2.3-.46,1.47-1.82c2.84-3.52,5.78-7.16,7.13-11.45,1.16-3.7.93-8.74-2.21-11.64a17.65,17.65,0,0,0-5.37-3,20.32,20.32,0,0,1-6.14-3.44c-4.36-4-4.47-9.9-4.59-15.65-.1-5.17-.2-10.06-3.17-13.39a19.22,19.22,0,0,0-2.35-2.1,18.8,18.8,0,0,1-3.07-2.88c-3.23-4-3.26-9.88-.1-17.83a119.88,119.88,0,0,1,18.28-31.24c-1.6-1.43-3.18-3-4.84-4.6C312,30,308.13,26.2,304.08,23.89,298.75,20.84,292,20.36,285,20.11c-1.5-.05-3,0-3.89.73a1.37,1.37,0,0,0-.25,1.3c0,.05.08.23.16.23l4.28.37L281.67,25c-3.39,2.09-6.35-.43-9-2.65a14.85,14.85,0,0,0-4.53-3c-3.53-1.12-7.21,2.34-10,5.47-4.8,5.35-9.41,7.25-13.33,5.47a12.65,12.65,0,0,1-3.51-2.67,7.77,7.77,0,0,0-3.25-2.28c-1.52-.35-3.24.44-5,1.37-5.68,2.95-10.93,6-12.72,11.22l-.2.6a7.42,7.42,0,0,1-1.46,2.93c-1.48,1.63-3.76,1.8-5.27,1.92-4.38.34-8.57.84-11.57,3.29a7.63,7.63,0,0,0-2.68,5.67,4.43,4.43,0,0,0,1.49,3.52,10,10,0,0,0,2.84,1.42,19.19,19.19,0,0,1,2.32,1c2.48,1.34,4.25,4.24,2.92,6.77-.87,1.66-2.69,2.29-4,2.74-2.17.74-4.82,1.86-6.12,3.95a4.44,4.44,0,0,0-.44,3.54,2.53,2.53,0,0,0,1.35,1.64l.72.31.12.78A5.4,5.4,0,0,1,199,82.44a9.88,9.88,0,0,1-7.31,3.08,31.42,31.42,0,0,1-4.11-.38,15.57,15.57,0,0,0-6.1-.07c-2,.55-3.85,2-5.75,3.53-2.62,2.11-5.31,4.28-8.94,4.17s-6.46-2.69-8.91-5c-.56-.52-1.11-1-1.67-1.51A9.23,9.23,0,0,0,150,83.9,3,3,0,0,0,147.81,85a8.74,8.74,0,0,0-1.26,3.6c-.45,2.2-1,4.69-3.41,5.78l-1.45.64-.48-1.51c-1.27-4-2.71-8.57-6-11.42A8.93,8.93,0,0,0,128.7,80,5.26,5.26,0,0,0,125,82a11.5,11.5,0,0,0-1.55,4,15,15,0,0,1-1.77,4.58c-2.84,4.33-9,4.85-13.41,2.85-.48-.22-1-.46-1.42-.71a8.23,8.23,0,0,0-3.54-1.25h-.08a7.48,7.48,0,0,0-3.52,1.46A82.41,82.41,0,0,0,87.6,102.8c-2.6,2.43-5.29,4.93-8.2,7.2a28.8,28.8,0,0,1-4,2.38c-5.34,2.86-8.71,5.1-7,10l1,2.86-2.85-1.06A80.82,80.82,0,0,0,52,120.27c-6.32-1.06-13.8-.32-15.85,4.94a14.88,14.88,0,0,0-.71,4.56c0,.53-.06,1.06-.1,1.59-.33,4-8.84,20.62-15.11,21.11-1.55.12-3.59-.56-4.67-4.38L14,147c-1.47-1.1-3-2.23-4.5-3.29a2.45,2.45,0,0,0-.9-.44c-.92.83-.2,8.69,1.26,12.43,1.63-.34,3.75.88,4.63,2.28a90.55,90.55,0,0,1,12.32,31.84,4.46,4.46,0,0,1-.05,2.31,4.4,4.4,0,0,1-2,2.17l-1.5,1c-4,2.54-8.14,5.17-9.37,9.3a18.57,18.57,0,0,0-.42,5.75l.31,10.55a3,3,0,0,0,.21,1.27,3,3,0,0,0,1.07.65c3.15,1.39,6.55,2.68,10.16,4,8.51,3.21,17.31,6.52,23.92,11.73a5.25,5.25,0,0,1,4.17,1.58c.88,1.09,1.07,2.62.57,4.67a8.65,8.65,0,0,0,.61,4.46,22.34,22.34,0,0,1,.7,2.64,22.35,22.35,0,0,1,.8,6,29.15,29.15,0,0,0,20,27.87l5.62.53a3.09,3.09,0,0,1,3,.2,3.18,3.18,0,0,1,.77,2.93c-.22,1.53-.34,3.12-.46,4.65-.05.68-.11,1.36-.17,2v4.06c-.25,3.1-1.65,5.61-3,8C81.26,309.29,80.68,310.31,80.21,311.38ZM229,205.75h0Z"/></svg>