<svg id="Layer_2" data-name="Layer 2" xmlns="http://www.w3.org/2000/svg" viewBox="0 0 350 350"><defs><style>.cls-1{fill:#999;}.cls-2{fill:#f90;}</style></defs><title>M_</title><path class="cls-1" d="M319.89,60c-9.47-4-10.92-18.71-2.55-24.54a1.51,1.51,0,0,0-.76-2.8,9.31,9.31,0,0,1-7.89-5.79c-.93-2.22-.6-4.61-1.19-6.89A9.45,9.45,0,0,0,302,13.52c-6.8-3-13.2.92-18.45,5.17A14.46,14.46,0,0,0,272,10.33c-6.83-.88-13.06,2.71-18,7.1a1.52,1.52,0,0,0,0,2.12c7.76,7.82,6.36,23.69-6.65,24.47-14.78.88-12.42-16.15-9.5-25.41a1.51,1.51,0,0,0-2.51-1.46c-10.46,9.41-25.58,6.41-38.36,5.49-6.08-.44-12.25-.66-18.26.5-7.21,1.39-12.89,6.76-20.19,7.28-6.94.49-13.2.86-19.39,4.47-2.71,1.58-4.78,4.4-7.41,5.87-5.41,3-10.59-4.14-14-7.16-3.67-3.28-7.8-8.45-13.33-7.12-3.87.93-9.79,8.52-13.58,6-1-.7-2.14.26-2.26,1.3a7.65,7.65,0,0,1-5.88,6.77,1.51,1.51,0,0,0-1,1.85A34.92,34.92,0,0,1,80.5,70.3c-4,8-13.9,17.21-23.34,11.85-1.72-1-3,1.46-1.51,2.59l10.9,8.15c2.33,1.74,5.44,5.19,8.14,6,3.28,1,7.09-2.42,9.13-4.46,3.11-3.1,6.68-9.48,11.68-7.4,3.46,1.45,6,5.83,8.4,8.66l1.62,1.93L103.14,100l3,5.48-3.54,2.62,6.05,8.87-7.67,6.1-.81-.46a3.05,3.05,0,0,0-2.8,0,10.29,10.29,0,0,0-2.17,1.74l1.54,3.45L93,130.62l2.67,2.94-3.77,3.07,2.36,3.27-4.73,4.73,1.93,4L89.82,150a3.26,3.26,0,0,1,.66,1.72,1.92,1.92,0,0,1-.52,1.37c-1.33,1.51-9.11,6.69-13.52,9.57l2,2.92-2.14,2,5.2,7.11-6.31,4.94c.95,1.74,1.6,3.71.59,4.88l-.07.08c-1.6,1.6-3.71,3.45-5.67,3.34a2.76,2.76,0,0,1-1.43-.45l-.72,1L65,186.36l-1.54.81,2,3.94-.56.69c-1,1.22-4.42,5.08-7.09,3.74l-.28-.14-.19-.25c-.49-.63-1-1.33-1.41-1.87a3.49,3.49,0,0,1-2.45-.12l.44.74,0,.19a3.51,3.51,0,0,1-.67,2.92,2.81,2.81,0,0,1,.76,2.35,3.48,3.48,0,0,1-2.16,2.24l-1,.57,1.31,3c.13.81.64,4.78-1.89,5.73-2,1.22-9,5.73-9.06,5.78l-.94.6-1.7-1.7,1,2.08L29,225.81l10.17,15.48a4.77,4.77,0,0,1,4.53,1.77,2.82,2.82,0,0,1,2.12-.22,2.43,2.43,0,0,1,1,.68,2.88,2.88,0,0,1,3.08.69,3.08,3.08,0,0,1,2.46-.2,2.79,2.79,0,0,1,1.27,1,3.15,3.15,0,0,1,2-.36l.54.12.31.46c5.15,7.74,13,19.47,13.41,20.07l.41.55-.17.68A3,3,0,0,1,69,268l3.13,4.23A3.29,3.29,0,0,1,71,276.49c-.36.25-.73.5-1.08.71l6,9.9a2.75,2.75,0,0,1,1.11,1.83,3,3,0,0,1-1.22,2.62c-1.58,1.39-15.38,9.64-19.74,12.24l2.28,4.31v.34A5.31,5.31,0,0,1,56,312.36c-1.2.93-3,2.18-4.08,3l1.47,2.54-.15.56a4.38,4.38,0,0,1-1.7,2.2l.07.13a10,10,0,0,1,1,7.85,29.44,29.44,0,0,1,.61,3.25c0,.22.06.41.08.57a15.57,15.57,0,0,1,13.43,4.08,26.57,26.57,0,0,0,2.43-1.25c2.44-1.37,5.4-3,8.68-1.63l.34-1c1.21-3.46,3-8.69,9.36-8.69h.26l.24.09a33.6,33.6,0,0,0,5.06,1.56l.65.15c1.62.36,3.85.86,4.74.94a12.53,12.53,0,0,1,2,.44,8.73,8.73,0,0,0,1.68.36,3.06,3.06,0,0,0,.54-.12,4.76,4.76,0,0,1,4.25.54,6.82,6.82,0,0,1,3.31,4l.07.16c.37.91.67,1.08,1.64,1.65.32.19.67.39,1.07.65a8.24,8.24,0,0,1,2.65,2.91,13.51,13.51,0,0,0,.91,1.34,5.08,5.08,0,0,1,.66,1.14c2.72-4.94,6.69-9,12-12.68,4.37-3.08,9.52-4.67,14.32-6.93,3.51-1.65,7.22-3,7.29-7.25.12-8.37-2.71-17.22-5-25.16-1.65-5.64-3.2-12.84-6.31-18.29-.2.3-.39.6-.6.9a2,2,0,0,1-3.66-1.54,17.34,17.34,0,0,1,2.18-4.44,1.87,1.87,0,0,1,.78-.72,39.11,39.11,0,0,0,3-8.71,2,2,0,0,1,2.46-1.4c11.73,2.11,20.11-6.26,28.35-13.32a1.93,1.93,0,0,1,.12-1.62c1.69-3.26,1.45-7.75,1.66-11.31.26-4.52.43-9,1-13.54.78-6.68,2.86-12.56,5.55-18.67,3-6.79,6.33-13.62,10.87-19.52a35,35,0,0,1,2.87-3.32,7.59,7.59,0,0,1,1.36-2.55c.16-.19.65-.91,1.13-1.6,3.33-4.87,5.33-7.41,7-7.77l.2,0c2-.43,5-1.09,7.49.42a26.73,26.73,0,0,1,6.64,5.91,17,17,0,0,1,1.33,2.42,7.33,7.33,0,0,0,1.33,2.19,1.85,1.85,0,0,0,2.38.22,9,9,0,0,1,2.54-1.07l.07,0a12.62,12.62,0,0,1-2.14-3.2,2.21,2.21,0,0,1,.49-2.39,2.79,2.79,0,0,0,.43-.64,2.08,2.08,0,0,0,.25-1.56,4.34,4.34,0,0,1,1.73-4.55,8.13,8.13,0,0,1,1.26-.69,4.22,4.22,0,0,0,.63-.33s0,0,0-.08c-.07-2.06,2.61-5.84,3.82-6.56.46-.27,2.14-1.47,3.6-2.52l-1.14-1.64H232.6l-4.21-6,2.84-2.84-5.08-7.42,1-.71a1.57,1.57,0,0,0,2.06.68l8.22-3.92a39.56,39.56,0,0,0,7.27,17.39c2.82,3.75,6.85,8.15,12,6.49,5.68-1.81,7.1-8.38,7.85-13.46,1.09-7.36,3.93-11.72,10.34-15.34,7.42-4.19,18.64-7,21.56-16.09,1.13-3.51,0-7.31,1.07-10.78,1.3-4.12,5.88-7.88,8.58-11.18a174.86,174.86,0,0,0,14.64-20.82A1.52,1.52,0,0,0,319.89,60Z"/><path class="cls-2" d="M117.24,343l-1.15-2.63a3.68,3.68,0,0,0-.47-.82,14.81,14.81,0,0,1-1-1.47,6.89,6.89,0,0,0-2.23-2.48c-.38-.25-.72-.44-1-.62a4.18,4.18,0,0,1-2.23-2.33l-.07-.16a5.47,5.47,0,0,0-2.76-3.37,3.38,3.38,0,0,0-3.11-.37,3.43,3.43,0,0,1-.92.17,8.72,8.72,0,0,1-2.06-.41,11.55,11.55,0,0,0-1.79-.4c-.92-.08-2.77-.49-4.92-1l-.65-.15a34.9,34.9,0,0,1-5.26-1.62c-4.91,0-6.54,3.51-8,7.74-.13.36-.24.68-.35,1l-.51,1.4-1.37-.59c-2.64-1.12-5.07.24-7.43,1.56a27.93,27.93,0,0,1-2.56,1.32l-.87.37-.68-.66a14.12,14.12,0,0,0-12.2-3.7l-1.41.25L52,332.64c0-.17-.06-.37-.09-.6a27.78,27.78,0,0,0-.58-3.11l-.08-.34.08-.34a8.63,8.63,0,0,0-.9-6.85l-.62-1.2,1-.72a3.12,3.12,0,0,0,1.18-1.42l-1.83-3.15,1.07-.75c1.21-.84,2.88-2,4-2.92a4,4,0,0,0,1.81-2.8l-2.75-5.18,1.16-.69c11.06-6.59,18.54-11.22,19.52-12.08a1.79,1.79,0,0,0,.75-1.39,1.4,1.4,0,0,0-.56-.86l-.22-.16L68,276.75l1.17-.74c.33-.21.68-.44,1-.68a1.92,1.92,0,0,0,.68-2.42L67,267.66l1.16-.84a1.63,1.63,0,0,0,.64-.71h0c-.62-.84-13.07-19.55-13.45-20.12a1.93,1.93,0,0,0-1.09.25l-1.05.52-.71-.94a1.39,1.39,0,0,0-.63-.49,1.74,1.74,0,0,0-1.36.16l-.83.4-.7-.6c-.72-.61-1.15-.63-1.67-.44l-.89.32-.64-.69a1,1,0,0,0-.43-.3,1.44,1.44,0,0,0-1.1.18l-1,.43-.68-.82a3.35,3.35,0,0,0-3.21-1.28l-.91.15-11.4-17.35,10.74-8.21-4.06-8.5,6.74,6.75c.45-.29,7.11-4.57,9.06-5.78l.24-.12c1.19-.45,1.19-2.73,1-4l-1.74-4,2.23-1.25c.81-.37,1.26-.77,1.35-1.22,0-.25,0-.58-.46-1.18l-.73-.89.72-.9a2.1,2.1,0,0,0,.4-1.69l-2.68-4.56,4.18,2a2.08,2.08,0,0,0,1.46,0l.94-.26.58.78c.39.53.91,1.22,1.39,1.84,1.28.63,3.66-1.29,5.34-3.35l-2.17-4.36,3.56-1.89,2.42,1.85.67-1,1.16.77a1.34,1.34,0,0,0,.7.22c1.61.1,3.86-2.19,4.61-2.93l0,0c.26-.3.23-1.36-.79-3.24l-.58-1.06,6.17-4.83-5.13-7,2.16-2-2.16-3.11,1.22-.8c7.41-4.85,12.36-8.33,13.23-9.32a.54.54,0,0,0,.16-.4,2,2,0,0,0-.41-.94l-.73-1.05,1.78-1.53-1.89-3.91,4.59-4.59L90,136.37l3.64-3-2.7-3L95,127.32,93.51,124l.65-.69a11.72,11.72,0,0,1,2.47-2,4.44,4.44,0,0,1,4.2,0h0l5.9-4.69-6.08-8.91,3.65-2.7-2.9-5.33,2.2-2.2-.78-.93c-.6-.71-1.18-1.49-1.81-2.31-1.77-2.34-3.78-5-6.06-6-2.76-1.15-5.05,1.22-8,4.69-.74.87-1.43,1.7-2.14,2.4-4.12,4.1-7.56,5.68-10.53,4.81-2.18-.63-4.4-2.59-6.36-4.32-.81-.71-1.57-1.38-2.23-1.88l-10.9-8.15a3,3,0,0,1-.74-4.09,2.78,2.78,0,0,1,3.8-.87,10.41,10.41,0,0,0,8.47.9c5.57-1.69,10.5-7.33,12.91-12.16a33.7,33.7,0,0,0,1.18-26.8,2.66,2.66,0,0,1,.14-2.15,3.05,3.05,0,0,1,1.84-1.55,6.27,6.27,0,0,0,4.87-5.57,3.25,3.25,0,0,1,1.81-2.54,2.66,2.66,0,0,1,2.65.23c1.53,1,4.41-1.09,6.95-3,1.94-1.44,3.78-2.79,5.51-3.21,5.41-1.3,9.55,2.65,12.87,5.82.59.56,1.17,1.11,1.73,1.62s1.35,1.29,2.09,2c3.7,3.77,7,6.74,10.25,4.94a19.71,19.71,0,0,0,3.43-2.73,23.57,23.57,0,0,1,4-3.13C144.86,30,151.3,29.5,158.11,29l.4,0c3.69-.26,7-1.88,10.46-3.59a38,38,0,0,1,9.56-3.67c6.2-1.19,12.62-1,18.63-.52,1.73.12,3.5.29,5.29.45,11.52,1.06,23.43,2.15,32-5.58a3,3,0,0,1,3.65-.26,2.74,2.74,0,0,1,1.15,3.2c-2.23,7.09-3.38,16.26.1,20.72,1.67,2.14,4.27,3.09,8,2.86,4.46-.27,7.74-2.56,9.23-6.46a15.38,15.38,0,0,0-3.51-15.59,3,3,0,0,1-.84-2.18,2.75,2.75,0,0,1,.9-2c6.42-5.75,12.85-8.25,19.1-7.45a15.92,15.92,0,0,1,11.84,7.59c5.1-3.9,11.6-7.39,18.55-4.28a10.91,10.91,0,0,1,6.24,7.36,19,19,0,0,1,.46,3.15,11.84,11.84,0,0,0,.67,3.54,7.85,7.85,0,0,0,6.73,4.93,3,3,0,0,1,2.65,2.21,2.94,2.94,0,0,1-1.23,3.16c-3.48,2.42-5.32,6.92-4.81,11.74s3.23,8.72,7.1,10.33h0a3.21,3.21,0,0,1,1.85,1.93,2.76,2.76,0,0,1-.28,2.32,177,177,0,0,1-14.75,21c-.8,1-1.73,2-2.71,3-2.25,2.38-4.79,5.07-5.62,7.71a16.14,16.14,0,0,0-.46,4.9,18.47,18.47,0,0,1-.62,5.89c-2.42,7.54-9.92,11-16.54,14.09-2,.94-4,1.83-5.67,2.8-6,3.38-8.59,7.26-9.63,14.32-.59,4-1.83,12.37-8.82,14.61-6.73,2.15-11.72-4.49-13.6-7A40.5,40.5,0,0,1,236.39,128l-6.57,3.13a3.06,3.06,0,0,1-.92.28l4.16,6.07-2.83,2.84,3.11,4.47h1.92l2.36,3.39-1.13.82c-1.39,1-3.16,2.27-3.72,2.6-.84.49-3.15,3.83-3.12,5.26l.13.71-.65.53a4.39,4.39,0,0,1-.92.52,6.88,6.88,0,0,0-1.06.57,3,3,0,0,0-1.2,2.9,3.41,3.41,0,0,1-.3,2.66,4.18,4.18,0,0,1-.62.94.84.84,0,0,0-.24,1,11.36,11.36,0,0,0,1.88,2.74l1.41,1.62-2,.66a8.53,8.53,0,0,0-2.21.89,3.25,3.25,0,0,1-4.14-.31,8.13,8.13,0,0,1-1.68-2.65,15.89,15.89,0,0,0-1.21-2.22,25.47,25.47,0,0,0-6.22-5.51c-2-1.21-4.57-.65-6.46-.24l-.2,0c-1.4.3-4.35,4.61-6.11,7.18-.69,1-1,1.49-1.22,1.72a6.21,6.21,0,0,0-1.09,2.06l-.1.33-.24.24a33.29,33.29,0,0,0-2.75,3.19c-4.61,6-8,13.08-10.69,19.23a63.49,63.49,0,0,0-5.44,18.27c-.42,3.59-.62,7.28-.81,10.84l-.14,2.61c0,.67-.06,1.38-.08,2.11-.1,3.21-.22,6.86-1.73,9.78a.52.52,0,0,0-.05.46l.36.93-.76.65-2,1.72C163.52,249.6,155,257,143.52,255c-.25,0-.76,0-.83.31a40.31,40.31,0,0,1-3.09,9l-.2.41-.41.22a.58.58,0,0,0-.2.15c-.21.38-.43.75-.65,1.12a10.45,10.45,0,0,0-1.39,3,.54.54,0,0,0,.28.68.65.65,0,0,0,.83-.27c.14-.2.27-.39.4-.59l1.45-2.2,1.14,2c2.57,4.49,4.09,10.08,5.44,15,.34,1.24.67,2.45,1,3.59l.57,2c2.17,7.37,4.63,15.73,4.51,23.63-.07,4.79-3.91,6.57-7.3,8.14l-.8.37c-1.52.72-3.09,1.37-4.6,2a48.78,48.78,0,0,0-9.51,4.8c-5.36,3.78-9,7.66-11.54,12.21ZM104.47,325.7a6.18,6.18,0,0,1,3.36,1,8.19,8.19,0,0,1,3.86,4.69l.07.16c.19.47.19.47,1,1,.33.19.71.41,1.13.69a9.54,9.54,0,0,1,3.08,3.35l.34.53A40.87,40.87,0,0,1,128.53,326a51.61,51.61,0,0,1,10-5.1c1.49-.62,3-1.26,4.49-2l.82-.38c3.48-1.61,5.61-2.74,5.66-5.61.11-7.47-2.28-15.61-4.4-22.79l-.57-2c-.34-1.16-.67-2.38-1-3.64A76.48,76.48,0,0,0,139.36,272a3.45,3.45,0,0,1-3.47.38,3.34,3.34,0,0,1-1.9-3.9,12.75,12.75,0,0,1,1.73-3.79c.2-.34.41-.68.6-1a3.12,3.12,0,0,1,.92-1,37.83,37.83,0,0,0,2.7-8,3.41,3.41,0,0,1,4.1-2.48c10.12,1.82,17.77-4.83,25.17-11.27l1.39-1.2A3.45,3.45,0,0,1,171,238c1.22-2.35,1.32-5.65,1.41-8.56,0-.75,0-1.48.09-2.18l.14-2.6c.19-3.61.39-7.35.82-11a66.11,66.11,0,0,1,5.66-19.08c2.77-6.3,6.25-13.58,11-19.81a37.08,37.08,0,0,1,2.75-3.22,8.87,8.87,0,0,1,1.52-2.7c.13-.16.67-.94,1-1.47,3.71-5.42,5.72-7.91,7.86-8.37l.2,0c2.08-.45,5.57-1.21,8.53.59a28,28,0,0,1,7.07,6.31,18.06,18.06,0,0,1,1.44,2.61,7.63,7.63,0,0,0,1,1.74c.36.32.56.18.62.14a6.19,6.19,0,0,1,1.11-.62,9.29,9.29,0,0,1-1.15-2,3.65,3.65,0,0,1,.73-3.77,1.45,1.45,0,0,0,.24-.35,1.5,1.5,0,0,0,.17-.55,5.73,5.73,0,0,1,2.27-6.11,9,9,0,0,1,1.35-.75,12.93,12.93,0,0,1,4.45-7c.25-.15,1.07-.71,2.2-1.52h-1.68L226.54,140l2.85-2.85-5.21-7.6,3.42-2.41.78,1.34c.1.17.19.13.23.11l9.92-4.73.31,1.85a38.18,38.18,0,0,0,7,16.78c2.8,3.73,6.23,7.35,10.47,6,4.66-1.49,6.06-6.8,6.87-12.32,1.16-7.85,4.36-12.59,11-16.37,1.81-1,3.78-1.94,5.87-2.91,6.39-3,13-6,15-12.38a16.11,16.11,0,0,0,.48-5,18.49,18.49,0,0,1,.59-5.77c1-3.26,3.81-6.21,6.26-8.81.95-1,1.84-1.95,2.58-2.85a174.17,174.17,0,0,0,14.52-20.66.52.52,0,0,0-.23-.17h0c-4.83-2-8.21-6.86-8.82-12.65s1.68-11.35,6-14.37c0,0,.11-.09.1-.12s-.07-.09-.19-.1a10.71,10.71,0,0,1-9.05-6.66A14.17,14.17,0,0,1,306.5,23a16.63,16.63,0,0,0-.38-2.69,8,8,0,0,0-4.65-5.48c-6.15-2.75-12,1-17,5L283,21l-.75-1.7a13,13,0,0,0-10.43-7.52c-5.4-.69-11.06,1.58-16.84,6.75,0,0,0,0,.07.07a18.08,18.08,0,0,1,4.14,18.6c-1.88,4.93-6.15,7.95-11.71,8.28-4.62.28-8.1-1-10.36-3.94-5.23-6.7-1.76-19.54-.57-23.31h-.11a.15.15,0,0,0-.1,0c-9.52,8.56-22.62,7.36-34.17,6.3-1.78-.16-3.53-.32-5.24-.45-5.82-.42-12-.65-17.89.48A35.35,35.35,0,0,0,170.22,28c-3.57,1.76-7.26,3.57-11.51,3.87l-.4,0c-6.76.47-12.59.88-18.38,4.25a21.15,21.15,0,0,0-3.46,2.77,22,22,0,0,1-4,3.11c-5.37,3-10.36-2.06-13.66-5.42-.71-.72-1.37-1.4-2-1.92s-1.19-1.1-1.8-1.68c-3.12-3-6.34-6.06-10.25-5.11-1.17.28-2.86,1.53-4.49,2.74-3.27,2.42-7,5.15-10.15,3.08a.48.48,0,0,0-.12.25,9,9,0,0,1-6.9,8,.27.27,0,0,0-.08.08,36.53,36.53,0,0,1-1.33,29c-2.49,5-7.81,11.53-14.62,13.6a13.14,13.14,0,0,1-10.69-1.15l-.06,0s0,.06,0,.11,0,.07.1.14l10.9,8.15c.76.57,1.56,1.27,2.41,2,1.74,1.53,3.71,3.27,5.28,3.72,1.28.37,3.66,0,7.74-4.1.62-.62,1.28-1.4,2-2.22C87.47,88,91.15,83.65,96,85.7c3,1.25,5.24,4.23,7.23,6.86.6.79,1.17,1.54,1.71,2.19l2.46,2.92-2.54,2.54,3.07,5.63-3.44,2.55,6,8.84-9.45,7.52-1.64-.92h0a1.65,1.65,0,0,0-1.37,0,8.9,8.9,0,0,0-1.19.86l1.59,3.56-3.39,2.6,2.64,2.9-3.89,3.17,2.28,3.17-4.87,4.87,2,4.06-1.6,1.37a3.89,3.89,0,0,1,.29,1.36,3.33,3.33,0,0,1-.9,2.37c-1,1.14-5.24,4.18-12.56,9l1.9,2.73-2.12,2L83.49,175,77,180.06c1,2.31,1,4.12-.12,5.4l-.11.12c-1.86,1.86-4.26,3.92-6.78,3.8a4.27,4.27,0,0,1-.84-.12l-.92,1.33-2.35-1.8,1.25,2.51L66,192.7c-1.48,1.82-5.31,5.88-8.83,4.11l-.57-.28-.39-.5-.75-1A5,5,0,0,1,55,197a3.86,3.86,0,0,1,.46,2.67,4.52,4.52,0,0,1-2.74,3.16l.9,2.19c.45,2.79,0,6.13-2.65,7.23-2.11,1.31-8.87,5.66-8.93,5.7l-1.9,1.23,0,0-9.18,7,9,13.67a6,6,0,0,1,4.2,1.62,3.85,3.85,0,0,1,2.18.07,3.7,3.7,0,0,1,.93.47,4.11,4.11,0,0,1,2.94.65,4.28,4.28,0,0,1,2.74.07,4.09,4.09,0,0,1,1.13.64,4.11,4.11,0,0,1,2-.1l1.1.25.62.94c6.26,9.42,13,19.48,13.37,20l.81,1.09-.34,1.33a3.7,3.7,0,0,1-.67,1.29l2.53,3.47a4.67,4.67,0,0,1-1.55,6L77,286.15a4.13,4.13,0,0,1,1.43,2.6,4.38,4.38,0,0,1-1.69,3.85c-1.48,1.3-11.92,7.61-18.79,11.7l1.81,3.43v.7a6.67,6.67,0,0,1-2.9,5c-.87.68-2,1.52-3.07,2.25L55,317.66l-.31,1.13A5.17,5.17,0,0,1,53.34,321a11.09,11.09,0,0,1,.78,7.64c.22.94.35,1.66.44,2.23a16.87,16.87,0,0,1,12.49,4c.48-.24,1-.52,1.48-.8,2.22-1.24,5.17-2.89,8.49-2.15,1.29-3.67,3.49-9.3,10.57-9.3h.53l.49.19a32.13,32.13,0,0,0,4.86,1.5l.65.15c1.4.31,3.75.84,4.56.91a13.54,13.54,0,0,1,2.28.48c.33.09,1,.27,1.25.31l.22-.06A7.29,7.29,0,0,1,104.47,325.7ZM223.29,163.06h0Z"/></svg>