<svg id="Layer_1" data-name="Layer 1" xmlns="http://www.w3.org/2000/svg" viewBox="0 0 350 350"><defs><style>.cls-1{fill:#999;}.cls-2{fill:#f90;}</style></defs><title>M</title><polygon class="cls-1" points="302.79 153.15 298.31 151.38 295.95 148.34 294.6 150.74 290.89 150.74 285.83 150.74 283.13 153.15 279.08 153.15 274.69 157.45 269.96 157.45 263.89 157.45 259.5 157.45 257.48 159.47 253.76 159.47 248.03 165.21 241.95 165.21 238.58 163.86 230.81 171.96 227.78 166.9 227.78 161.5 221.7 160.15 217.31 160.15 217.31 162.18 213.6 166.22 210.23 169.6 205.5 169.26 200.78 169.26 199.09 166.56 199.09 162.18 195.04 162.18 192.68 164.88 190.65 165.89 186.26 164.54 177.83 158.13 169.39 153.15 165.68 148.34 162.98 148.34 161.29 148.34 158.25 153.15 153.53 155.43 149.48 161.84 147.79 165.55 147.79 169.26 142.73 166.9 142.73 160.15 140.36 155.09 143.74 153.15 147.45 148.34 148.8 143.95 148.8 138.21 148.13 132.81 152.18 131.46 157.24 131.46 159.6 132.81 161.29 122.69 163.65 116.95 170.7 112.22 174.79 104.13 186.6 92.99 193.35 85.9 198.75 80.16 206.18 72.4 214.62 62.27 228.79 48.77 238.58 32.58 243.98 23.13 250.39 16.71 252.08 10.3 247.01 6.25 243.64 6.25 239.93 6.25 232.84 8.95 230.81 13 226.43 14.01 224.06 16.38 223.73 21.1 221.57 24.48 218.33 24.48 217.65 26.5 215.63 29.54 211.24 33.25 203.48 33.92 195.72 34.26 191.66 34.26 184.58 34.26 173.44 34.6 163.99 32.58 158.93 34.26 150.83 37.3 144.41 39.66 142.73 42.36 145.09 45.06 147.79 47.76 148.8 51.48 149.48 55.19 151.84 57.55 153.87 60.59 154.2 65.65 154.2 69.36 156.23 73.75 156.23 77.13 153.87 81.17 152.85 84.55 147.45 89.11 142.73 94.34 138.34 96.7 133.28 101.76 133.28 105.14 133.28 109.19 133.28 112.9 129.23 112.9 126.53 104.13 123.83 95.69 121.47 87.59 121.47 81.51 116.74 75.78 105.6 72.74 99.19 71.39 93.45 68.01 90.75 75.44 88.05 89.11 85.69 96.36 83.07 102.44 80.63 106.49 83.07 109.53 87.04 109.53 87.71 111.55 85.35 114.25 83.07 118.3 83.07 121.67 83.07 124.38 83.07 132.14 86.03 136.86 88.39 141.25 93.45 150.36 94.8 153.15 94.13 157.11 91.09 161.16 88.05 168.93 85.01 174.66 83.07 179.72 78.94 186.47 76.58 191.54 78.26 193.9 81.3 193.9 83.07 196.6 89.4 196.6 96.83 196.6 102.9 191.88 106.61 187.82 110.66 183.1 113.7 181.08 116.74 181.08 119.44 184.79 120.79 188.84 125.85 196.6 128.21 200.31 129.9 204.7 124.84 209.09 119.78 213.81 115.39 215.5 112.01 218.88 107.96 218.88 99.86 218.88 96.15 217.19 92.1 214.82 88.39 213.14 84.68 213.81 79.28 214.49 76.58 209.43 72.53 209.09 66.45 209.09 59.7 210.44 54.64 212.13 52.28 216.18 49.58 218.88 49.58 224.28 47.21 227.82 53.96 227.82 56.08 230.23 61.35 233.08 63.58 236.43 69.66 239.46 75.23 239.46 78.26 239.46 81.3 239.46 83.07 241.74 86.7 244.02 91.43 244.02 93.45 244.02 96.15 247.49 97 248.57 97 253.64 97 256 98.53 259.02 100.03 260.32 102.56 260.32 102.56 263.76 102.56 266.8 107.63 266.8 112.01 266.8 116.33 266.8 121.13 265.51 124.95 265.06 130.91 260.32 136.24 257.58 140.03 254.99 147.79 256.17 151.84 256.17 155.55 257.69 154.2 260.32 151.85 265.45 150.16 269.14 149.14 271.36 150.21 275.03 154.2 280.47 159.05 285.03 163.82 288.06 169.9 291.1 172.88 293.49 176.48 293.49 181.88 293.49 183.56 293.63 182.42 295.93 179.92 300.45 178 303.76 175 306.09 172.09 306.09 174.47 309.7 176.21 311.57 181.03 314.39 182.28 316.26 184.07 318.33 186.04 320.08 186.09 324.01 184.89 325.7 183.56 327.55 179.01 330.08 179.01 333.63 182.04 337.17 183.93 340.23 186.09 343.75 192.68 336.66 195.56 335.4 200.78 333.12 212.28 322.99 216.56 319.82 220.27 317.17 225.08 312.62 230.09 309.72 244.82 298.44 251.43 293.84 257.22 289.58 249.38 282.75 243.81 279.71 239.76 276.67 234.95 268.57 234.95 261.99 230.81 260.32 226.09 258.95 220.31 253.68 212.93 250.6 211.16 245.28 214.45 244.02 229.36 240.24 240.39 236.84 253.88 234.03 261.02 231.87 264.06 221.24 268.38 214.15 276 201.64 281.21 193.09 287.53 182.72 295.18 169.42 302.79 153.15"/><path class="cls-2" d="M185.87,346.08l-5-8.07-3.31-3.86v-4.9l5-2.78,2.08-2.91,0-2.84L183,319.26,181.1,317l-1.06-1.6-4.72-2.76-2-2.21-3.83-5.81h5.05l2.4-1.86,1.79-3.07,2.65-4.83h-9l-3.26-2.6-6.07-3-5-3.2-5-4.75-4.14-5.65-1.28-4.42,5.28-11.52.67-1.31-2-.83-4,0-7.21-1.1-3.48,2.37-5.2,2.67-6.17,4.91-4.12.48-5.07,1.31H101.15v-6.48H99.5l-2.11-1.83-1.82-3.57v-7.28l-2.82-3.62H86.29l-4.19-2.63-1.5-1.93H69.32l-6.71-3.36-2.25-3.37-5.19-2.8-1.86-2.12H44.57l3.59-5.39v-5.56l3-3,2.54-4.35,5.74-1.9,7-1.38h6.19l4.82.4L80.07,213l4.43-.55,4.07-.74,4.24,1.94,4,2.33,3.37,1.53h11.26l3.17-3.17,4.41-1.7,4.86-4.54,4.35-3.77L126.94,201l-2.29-3.59-5.21-8.08-1.28-3.84-2.15-3h-1.89l-2.52,1.68-3.92,4.58L103.77,193l-6.46,5h-15l-1.77-2.7h-3l-2.59-3.63,2.79-6,4.07-6.64,2-5.1,3-5.67,3.08-7.87,2.95-3.93.54-3.18L92.18,151l-5-9-2.37-4.4-3.12-5V117.93l2.63-4.61,1.83-2.09-.09-.29H82.39L78.9,106.6l2.91-4.82,2.55-5.93,2.32-7.11L89.42,75l3.28-9,7,4.12,6.19,1.3,11.65,3.17L122.88,81v6.38l2.31,7.91,2.69,8.4,2.4,7.79h1.59V101.18l5.62-5.62,4.35-2.35,4.7-5.18,5.08-4.28,1-3.28,2.17-3.72V74.06l-2-4.39v-4l-.31-4.59-1.74-2.61-2.58-2.58-.74-4.09-.9-3.29-2.43-2.43L141,42.5l2.5-4,15-5.56,5.48-1.83,9.66,2.07,11-.33h11.18l7.7-.34,7.25-.63,3.89-3.29,1.81-2.71.94-2.81h3.49l1.54-2.42.35-4.89,3-3,4.13-1,2-3.95,7.85-3h7.85l6.17,4.94-2,7.67L245.11,24l-5.31,9.28-9.9,16.39L215.65,63.24l-8.39,10.06-7.49,7.83-5.39,5.73L187.63,94l-11.69,11-4.14,8.21-7,4.69-2.14,5.19-2,12-3.8-2.17h-4.46l-2.73.91.54,4.42v6L148.73,149l-4,5.23-2.49,1.43,1.94,4.17V166l2.23,1v-1.79l1.91-4.16,4.27-6.76,4.72-2.28,3.24-5.13h5.87l4,5.14,8.34,4.93,8.24,6.26,3.6,1.11,1.27-.63,2.6-3h6.11v5.4l1.06,1.69h4l4.08.29,2.92-2.92,3.3-3.6v-2.89l6.11,0,7.18,1.6v6.14l1.88,3.13,7.14-7.45,4,1.6h5.21l5.74-5.74h3.71l2-2h15.2l4.39-4.3h4.09l2.7-2.4h8.49l2-3.54,3.44,4.42,5.51,2.18-8.3,17.74-7.65,13.3-23.39,38.39L262.17,233l-8,2.42-13.43,2.79-11,3.38-14.9,3.78-1.95.75,1.14,3.42,7,2.93,5.72,5.22,4.55,1.32,5,2v7.15l4.47,7.52,3.74,2.81,5.73,3.16,9.18,8L252.27,295l-6.64,4.62L230.8,310.95l-4.87,2.81-4.84,4.57-3.7,2.65-4.21,3.12-11.63,10.24-8,3.51Zm-5.44-13,2.83,3.33,3.07,5,5.51-5.94,8.17-3.57,11.43-10.06,4.28-3.17,3.64-2.6,5-4.69,4.94-2.85L244,297.32l6.66-4.64,4.34-3.19-6.4-5.57L243,280.84l-4.27-3.21L233.53,269v-6l-3.18-1.29-5-1.43-5.84-5.33-7.75-3.23-2.4-7.21,4.71-1.8L229,238.86l11.09-3.41,13.43-2.79,6.34-1.92,2.88-10.07,4.42-7.25L286.32,182l7.6-13.21,6.94-14.85-3.43-1.36-1.29-1.66-.71,1.27h-9.06l-2.7,2.4h-4l-4.39,4.3H260.09l-2,2h-3.71l-5.74,5.74h-6.94l-2.74-1.1-8.38,8.75-4.19-7v-4.66l-4.81-1.07h-2.82v1.16l-4.08,4.46-3.87,3.88-5.32-.38H200L197.67,167v-3.38h-2L193.56,166l-2.78,1.39-5.17-1.59L177,159.3l-8.6-5.08L165,149.75h-2.91l-2.84,4.49-4.72,2.28-3.78,6-1.52,3.34v5.63l-7.9-3.69v-7.34l-2.78-6,4.26-2.45,3.38-4.38,1.21-3.94V138.3l-.81-6.47,5.37-1.79h5.67l.92.53,1.44-8.42,2.53-6.14,7.1-4.76,4-8,12-11.31,19.52-20.54,8.48-10.17,14-13.37,9.69-16,5.48-9.58L249.12,16l1.36-5.15-4-3.16h-6.33l-6.33,2.41-2.08,4.15-4.64,1.07-1.7,1.7-.32,4.56-2.76,4.33h-3l-.52,1.39-2.14,3.2-4.88,4.13-8.21.71-7.82.34h-11.2L173.31,36l-9.24-2-4.7,1.57-14,5.22-.87,1.4,1.67,1.91,2.9,2.9,1.14,4.19.6,3.28L153,56.76l2.23,3.35.36,5.44v3.5l2,4.39v4.07l-2.47,4.24-1.09,3.62-5.65,4.77-4.83,5.34-4.42,2.38-4.5,4.5v12h-6.51l-3-9.78-2.7-8.42L120,87.79V82l-4.12-5-10.7-2.92-6.56-1.38L94.2,70.1l-2.08,5.72L89.4,89.54,87,96.92l-2.71,6.25-1.93,3.2,1.4,1.74h4.31l1.25,3.76-2.8,3.2-2,3.6v13.06l2.74,4.38,2.41,4.47,5.05,9.1,1.58,3.26-.81,4.75-3.13,4.17-3,7.73-3,5.66-2,5.22-4.09,6.68-2,4.24.78,1.1h3.07l1.77,2.7h12.5l5.6-4.35,3.63-4,4.15-4.84,3.56-2.37h4.19l3.25,4.47,1.36,4.08,5,7.61,2.5,4,2,5.32-5.81,5L120.54,215l-4.36,1.68-3.58,3.58h-13l-4.12-1.88-4-2.33-3.24-1.47-3.28.6-6.45.81-2.79-5.24-3.22-.27H66.59l-6.53,1.31-4.47,1.49-2.32,3.88L51,219.46v5.24l-1.13,1.7h4.74L57,229.11,62.33,232l2.22,3.33L70,238H82l2,2.63,3.07,1.93h7l4.27,5.49v7.57l1.26,2.47.89.77H104v6.48h12.17L121,264.1l3.42-.4,5.88-4.64,5.24-2.69,4.18-2.86,8.21,1.25h4.22l5.4,2.21-2.06,4-4.82,10.5.85,2.92,3.77,5.14,4.66,4.38,4.6,2.93,6.26,3.17,2.6,2.08H182l3.77.32-2.08,4.16-2.52,4.57-2.08,3.57-3.59,2.8h-.77l.87,1.32,1.51,1.63,4.93,2.88,1.38,2.07,1.68,1.93,2.37,2.1.07,5-3,4.18-4.11,2.28Z"/></svg>