<svg id="Layer_1" data-name="Layer 1" xmlns="http://www.w3.org/2000/svg" viewBox="0 0 350 350"><defs><style>.cls-1{fill:#999;}.cls-2{fill:#f90;}</style></defs><title>M</title><polygon class="cls-1" points="118.91 326.95 122.12 321.94 124.92 313.92 132.94 307.11 142.96 299.49 148.57 291.48 152.98 285.46 156.59 278.65 160.19 274.24 165 270.64 171.01 268.23 177.03 263.42 184.24 260.22 187.85 256.61 187.85 252.2 183.84 250.6 177.83 248.59 174.62 246.99 171.41 246.99 167.41 250.6 162.6 250.6 161.4 246.99 158.19 246.99 157.09 251.5 153.38 253.6 149.27 253.9 146.27 251.8 146.87 246.99 150.77 240.98 154.68 239.18 158.29 235.27 164.3 230.46 167.91 226.85 173.92 224.15 183.24 224.15 190.75 224.15 255.38 222.64 264.4 217.23 279.73 208.51 293.25 200.7 305.27 196.49 314.59 191.98 320.61 187.78 326.92 185.07 333.83 181.46 336.24 173.65 338.64 166.73 342.25 158.62 343.75 155.01 329.32 157.42 322.71 157.42 312.79 157.42 298.66 157.72 287.84 157.72 279.43 157.42 278.52 131.56 277.32 119.24 277.32 106.02 277.32 96.4 275.22 94.29 269.81 94.29 263.79 97.9 256.88 99.1 249.67 97 242.15 92.19 235.24 87.68 229.83 81.97 223.82 76.26 215.1 76.26 206.08 76.26 203.08 76.26 203.98 69.04 203.08 53.41 202.47 48.6 196.76 45.3 187.15 39.59 179.93 33.58 171.51 27.56 166.71 23.05 163.1 23.05 152.28 46.2 117.11 103.91 113.5 116.54 108.09 118.04 101.18 120.44 91.56 121.65 78.94 125.55 69.02 128.56 58.19 130.96 54.29 132.47 60.9 139.08 63.91 141.18 68.11 145.39 72.02 148.7 75.33 150.32 79.84 150.32 82.54 152.31 82.54 155.91 82.54 160.12 84.65 164.63 86.75 166.43 88.25 169.74 93.06 173.35 99.67 176.95 104.78 179.66 108.99 182.36 108.99 185.07 106.35 187.17 94.26 195.59 81.64 206.11 75.03 210.02 70.82 212.42 65.11 217.83 56.69 223.84 49.18 230.16 41.96 236.77 32.34 240.98 26.63 247.59 24.53 249.4 16.47 255.29 6.25 265.29 13.94 271.01 23.33 272.24 30.54 273.44 29.94 275.85 26.93 278.25 19.12 283.66 19.93 290.1 17.32 296.89 22.12 305.3 26.33 306.51 34.75 310.71 36.71 312.43 40.16 317.93 43.77 319.73 51.03 326.95 56.39 326.95 66.61 323.94 75.21 315.62 82.24 307.71 89.86 301.79 96.67 299.29 106.35 304.1 114.1 316.73 118.91 326.95"/><path class="cls-2" d="M118.72,329.87l-5.87-12.47-7.5-12.21-8.78-4.36-6,2.21-7.34,5.71-7,7.89-8.85,8.56-10.75,3.16H50.45l-7.52-7.47L39.17,319l-3.55-5.66L34,311.9l-8.14-4.07-4.64-1.32L15.75,297l2.73-7.08L17.6,283l8.52-5.9,2.55-2,.11-.45-5.7-.95-9.71-1.27-9.31-6.94,11.56-11.29,8-5.86,2-1.7,5.85-6.78,9.7-4.24,7-6.45,7.65-6.42,8.34-6,5.91-5.54,4.21-2.4,6.5-3.84,12.63-10.52L105.54,186l2-1.62v-1.25l-3.51-2.25L99,178.21l-6.8-3.73-5.1-3.82-1.52-3.35-2.1-1.8-2.37-5.07V153l-1.75-1.29H75l-3.89-2-4-3.39L63,142.27l-3.09-2.19-8.15-8.15,6.14-2.35,10.77-2.39,9.87-3,12.86-4,9.47-1.18,6.77-2.36,4.73-1.32,3.44-12,.1-.16L151,45.53,162.2,21.64h5.07l5.15,4.83,8.42,6L188,38.43l9.52,5.65,6.31,3.65.69,5.51.92,15.85-.72,5.75h19.7l6.42,6.1,5.35,5.64L242.93,91l7.33,4.69,6.7,2,6.33-1.1,6.12-3.67h6.39l2.93,2.93v23.36l1.2,12.25.86,24.62,7.1.25h10.77l14.1-.3h16.45L346,153.19l-2.49,6-3.6,8.09-2.38,6.86L335,182.45l-7.54,3.93L321.3,189l-6.09,4.24-9.47,4.57L293.85,202l-13.41,7.75-15.34,8.72-9.31,5.59-65,1.51H174.22l-5.5,2.47-3.54,3.53-5.93,4.74-3.73,4-3.79,1.75-3.51,5.4-.46,3.64,1.89,1.33,3.29-.24,2.9-1.64,1.22-5h5.34l1.2,3.61h3.24l4-3.61H175l3.42,1.71,5.92,2,5,2v6l-4.21,4.21-7.29,3.24-6,4.83-6,2.41-4.52,3.39-3.41,4.17-3.65,6.86-4.41,6L144,300.49l-10.2,7.75-7.66,6.52-2.82,7.95Zm-67.1-4.34h4.57l9.69-2.85,8.31-8,7.18-8,7.79-6.06,7.59-2.78,10.6,5.26,8,13.11,3.72,7.9,1.73-2.71,2.88-8.22L132,306l9.9-7.53,5.48-7.83,4.37-6,3.71-7,3.85-4.65,5.13-3.79,5.82-2.33,6.16-4.87,7-3.1,3-3v-2.86l-3.12-1.25-6.12-2.05-2.91-1.45H172L168,252h-6.37l-1.2-3.61H159.3l-1,4L153.8,255l-4.93.36-4.12-2.88.75-6,4.31-6.63,4-1.86,3.57-3.85,6-4.76,3.74-3.74,6.53-2.94h17.14L255,221.23l8.7-5.22L279,207.28l13.76-7.92,11.95-4.18,9.14-4.42,6.17-4.28,6.26-2.68,6.34-3.31,2.23-7.25,2.46-7.07,4.11-9.33-12.13,2H312.79l-14.1.3H287.84l-9.79-.35-.95-27.17-1.2-12.37V97l-1.27-1.27H270.2l-5.9,3.54-7.5,1.3-7.73-2.25-7.69-4.92-7.18-4.73-5.41-5.71-5.55-5.27H201.47L202.55,69l-.89-15.5-.5-4-5.1-3-9.82-5.85-7.17-6-8.52-6.1-4.4-4.13H164L153.49,46.94l-35.07,57.55-3.77,13.2-6.18,1.72-7.12,2.45L91.86,123l-12.51,3.87-10,3L58.6,132.33l-1.77.68,5,5,3.09,2.19,4.17,4.17,3.73,3.15,2.85,1.4H80.3L84,151.59v8.22l1.84,3.95,2.11,1.81,1.48,3.26,4.44,3.33,6.52,3.56,5.2,2.76,4.86,3.12v4.16l-3.17,2.53-12.11,8.44L82.36,207.33l-6.61,3.91-4.08,2.33L65.93,219l-8.37,6-7.47,6.28L42.75,238l-9.54,4.17-5.65,6.52-2.19,1.87-8,5.83-9,8.77,6.06,4.51,9,1.18,8.78,1.46-1.09,4.36-3.38,2.7-7.19,5,.75,5.94-2.5,6.49,4.19,7.33,3.9,1.14,8.72,4.41,2.11,1.85,3.35,5.34,3.46,1.73Z"/></svg>