<svg id="Layer_1" data-name="Layer 1" xmlns="http://www.w3.org/2000/svg" viewBox="0 0 350 350"><defs><style>.cls-1{fill:#999;}.cls-2{fill:#f90;}</style></defs><title>M</title><path class="cls-1" d="M122.48,307.54v-9L115.31,296l.32-8.66-18-10.27L59.15,266.54,70.7,241.65l5.78-25.57a75.94,75.94,0,0,0,2.25-10.91c.64-5.46,11.87-18.29,11.87-18.29s1-3.85-7.38-5.78,5.13-9.63,5.13-9.63l-13.8-3.53L64,159.28s1.6-3.85,3.21-9,1.6-19.44,1.6-19.44-14.12,1.46-19.9-.63-15.08-1.76-24.07,0-9.63-2.4-12.19-4.65-4.81-7.7-4.81-7.7l6.1-3.53-2.57-10.91,4.49-8.66s1.6.32,8-1.6,6.42-10.91,9.31-17,6.42-17.65,6.42-17.65L75.73,38.29A98.84,98.84,0,0,0,81,50.8l26.1,20.11,12.84,44.5,62.15,23.53S282.94,98.3,288.93,96.59s11.55,3.85,11.55,3.85-5.78,2.35-2.89,11.34,11.23,18.61,13.48,24.39,22.14,65.47,22.14,65.47v36.91l9,7.06-2.89,9.31-19.58,1S308.5,261,305.94,260s-37.12-9.63-37.12-9.63l-5.56,8.34s-19.26-1.28-21.5-1.28-27.92-2.89-27.92-2.89l-32.41,57.12L167,303.37s-1-8-2.25-9.95-13.16-12.84-13.16-12.84l-21.5,5.13L129.43,303Z"/><path class="cls-2" d="M181.95,313.65l-16.29-9.41-.08-.7c-.38-3.19-1.26-8.2-2-9.33s-7.81-7.85-12.38-12.07l-19.72,4.71-.63,17-9.76,6.31V299.55l-7.2-2.58.33-8.84-17.07-9.75-40-10.9,12.2-26.28,5.74-25.43A75.81,75.81,0,0,0,77.32,205c.63-5.38,9.83-16.3,11.91-18.71-.11-.93-1.48-2.7-6.33-3.82-2.29-.53-3.57-1.57-3.79-3.1-.38-2.57,3-5.45,5.71-7.35L73.9,169.24l-11.65-9.53.41-1s1.6-3.86,3.17-8.87c1.22-3.9,1.47-13.66,1.53-17.46-3.92.32-14.05.92-18.95-.85-5.06-1.83-13.78-1.81-23.31.06-7.94,1.56-10.25-1.28-12.11-3.55a11.88,11.88,0,0,0-1.29-1.42c-2.79-2.44-5.09-8-5.19-8.23L6,117.27l6.26-3.62-2.45-10.4,5.23-10.08,1,.21h.08c.4,0,2.28-.08,7.25-1.57,3.72-1.11,4.95-5.4,6.25-9.93a42,42,0,0,1,2.19-6.33c2.81-5.93,6.31-17.34,6.34-17.46l.17-.54L76.55,36.21l.53,1.65a98.3,98.3,0,0,0,5,12l26.21,20.2,12.77,44.27,61,23.09c8.63-3.48,100.66-40.54,106.49-42.2,6.71-1.92,12.69,4,12.94,4.21l1.51,1.51-2,.81c-.17.07-4.5,2.06-2.07,9.59,1.63,5.06,5.1,10.42,8.17,15.15a58.1,58.1,0,0,1,5.28,9.16c2.23,5.74,21.35,63.09,22.17,65.53l.07.22v36.45l9.21,7.24-3.47,11.19-20.3,1c-3.67,1.67-11.89,5.13-14.64,4.1-2-.74-25.78-6.77-36-9.34L264,260.23l-.82-.05c-6.64-.44-19.67-1.28-21.41-1.28-2.09,0-22.06-2.22-27.15-2.79ZM168.3,302.49l12.6,7.28,32.17-56.7.93.1c10.29,1.16,26.17,2.88,27.76,2.88,2,0,17,1,20.78,1.23l5.66-8.49,1,.24c1.41.35,34.66,8.7,37.27,9.68,1.27.43,7.6-1.8,12.71-4.13l.25-.11,18.86-.93,2.31-7.43-8.76-6.88V201.87c-1.32-4-19.91-59.68-22-65.18a57.84,57.84,0,0,0-5-8.64c-3.16-4.88-6.75-10.4-8.49-15.83-2-6.22-.17-10,1.88-11.9-1.84-1.36-5.3-3.36-8.81-2.36-5.85,1.67-105.72,41.91-106.73,42.31l-.51.21-63.33-24-12.9-44.74-26-20-.15-.29a105.15,105.15,0,0,1-4.76-11.09L40.76,59.47a164.43,164.43,0,0,1-6.32,17.3,40,40,0,0,0-2,5.9c-1.46,5.06-3,10.3-8.16,11.86a36.37,36.37,0,0,1-7.57,1.67l-3.85,7.43L15.52,115l-5.91,3.42c.86,1.83,2.42,4.72,3.93,6a14.08,14.08,0,0,1,1.62,1.76c1.66,2,3.1,3.79,9.37,2.56,10.17-2,19.22-2,24.82.06,5.41,2,19.13.56,19.27.55l1.56-.16v1.57c0,.59,0,14.58-1.67,19.86-1.15,3.67-2.28,6.66-2.86,8.13l9.54,7.8L92.09,171l-3,1.74c-3.83,2.19-7.3,5.23-7.14,6.27,0,.08.34.45,1.63.75,3.95.91,6.57,2.39,7.8,4.39a4.2,4.2,0,0,1,.64,3.11l-.08.33-.23.26c-3,3.48-11,13.41-11.53,17.52a76.62,76.62,0,0,1-2.29,11.15L72,242.25,61.14,265.62l37.07,10.11,18.87,10.78-.31,8.49,7.13,2.55v7.38l4.15-2.68.65-17.67L152,279l.56.51c1.23,1.13,12,11.08,13.38,13.09C167.15,294.49,168,300.22,168.3,302.49Z"/></svg>