<svg id="Layer_1" data-name="Layer 1" xmlns="http://www.w3.org/2000/svg" viewBox="0 0 350 350"><defs><style>.cls-1{fill:#999;}.cls-2{fill:#f90;}</style></defs><title>M</title><path class="cls-1" d="M181.21,342.6s-3-5.23-3.55-5.23-5.62.39-5.62.39l-2.47.49-2.83.92-1.36-4.57,1.28-1.13s.94,0,1.24-.35-.11-1.48-.75-1.82-.44-.49-.13-1a3.61,3.61,0,0,0,0-2.17,9,9,0,0,1-.26-2.42,24.59,24.59,0,0,1,1.08-3.7c.35-1-1-2.07-.84-2.17s-.79-.44-.79-.44l-1.53-.2a15.37,15.37,0,0,1-2-.69,2.64,2.64,0,0,1-.64.3,7.5,7.5,0,0,1-2.37-.54c-.49-.35-1.53-1.53-1.73-1.68a2,2,0,0,0-1.08-.25.83.83,0,0,1-.69-1,.34.34,0,0,0-.39-.39c-.2,0-.74.25-.74-.2a1.53,1.53,0,0,0-.74-1.18,1.66,1.66,0,0,0-1.43.3c-.54.35-.2,1.68-.2,1.68a8.38,8.38,0,0,0-1.28-.15,4.76,4.76,0,0,0-1.48,1,12.5,12.5,0,0,0-.89,2.71,11.63,11.63,0,0,0-.35,3.16c-.1,1.87-.1,3.3-.1,3.3l0,1.33-2.81-.25-1.92,1.82.1.69-.64.35-1.73-3.25-.2,2.17a2.74,2.74,0,0,0-1.82,1.28l-2.86-.59-3.3-1.23,0-2.07c-.54-1.77.35-2.12.35-2.12l1-.54a5.26,5.26,0,0,0,.89,0c.64,0,1.23-2.27,1.48-2.37a25.64,25.64,0,0,0,2.22-2.32,4.51,4.51,0,0,1,2-.89c.54-.1.94-.15,1.13-.39s1.68-3.3,1.68-3.3a11.37,11.37,0,0,1,1.18-.35,14.92,14.92,0,0,0,2.42-1.23s1.43-.84,1.58-.89.44-1.08.44-1.08.15-1.13.84-1.28.39.2,1.23.44.79,0,1-.35,1-2.12,1-2.12l-2,.35-.54-.74s.59-.69.59-.89-.15-.79-.15-1,.89-.89,1.33-.89,1.43-.89,1.43-.89l-.35-2.17a5.66,5.66,0,0,1,1.53-.69c.39,0,.39-.89.44-1.18s-.54-.3-2.22,0-3.55-.64-5.62-1-4.93-1.28-4.93-1.28a24.21,24.21,0,0,1-3.55,1.18,4,4,0,0,1-2.27-.49c-1-.39-6.8-3.85-6.8-3.85l-3.75-1s-2.37,0-3.94-.1-1.77,2.17-1.38,3.75-1.71,4.5-1.71,4.5a12.38,12.38,0,0,0-3,.53,6.84,6.84,0,0,1-3.62.13,22.46,22.46,0,0,1-3.68-3.16c-.59-.72-1.64-.39-2.37-.46s-5.59-4.4-5.59-4.4l3-.39,1.25-2.17s-1.38-1.12-1.38-2a21.81,21.81,0,0,1,.39-4.08c.33-1.64.53-4.08.53-4.08l-8.22.66a63,63,0,0,1-2.43-6.57c2.17.13,6-2.7,6-2.7l6.38-.26,2,.46L110,265a8.85,8.85,0,0,1,.72-1.58c.33-.46.66-5.13.66-5.13s-2.56-4.47-2.76-4.86-.07-.33-1.64-3.55-4-11.7-3.88-12.29,1.77-.26,1.77-.26-1.31-1-4.47-2.89a27.3,27.3,0,0,0-1.25-7.69l-2.76,1c-2.43.66-6.9-.59-6.9-.59l-.92-3.09c.66-1.77,2.37-9.93,2.37-9.93L99,217.44l-.53-5.65a32.53,32.53,0,0,1-1.38-10.85c.39-5.39-1.51-12.42-1.51-12.42L96.61,187l6.44-2a11.27,11.27,0,0,0-2.17-2.24c-1.18-.85-7.1-2.7-8.22-2.89a64.17,64.17,0,0,1-6.38-2.63s-.39-14.59-.2-17.55a8.57,8.57,0,0,1,1.84-4.8,15.36,15.36,0,0,1-3.16-3.48A21.69,21.69,0,0,0,79,146.58l-3.22-18.34s-1.45-10.85-.39-15.45-1.12-25.44-1.12-25.44,3.52,2.49,4.31,2.61,3.16,1.2,3.75,1.2H84s6.71,2.37,7.3,2.47,8.28,1.68,9.07,1.87,5.42-.1,5.23-.69a20.21,20.21,0,0,0-2.76-2.92l.3-2.9s6.31,1.83,9.17,1.36,9.37-1.85,10.45-1.26,4.83,2.17,5.42,2.07,9.27,1.1,11.34,1.29,2.76,1.08,3.94-1.29,1.48-3.65.3-4.73-3.35-2.22-5-4.12S132,78.73,125.3,70.16c4.63-3.55,16.17-11.83,16.17-11.83l-2.37-6.11s6.51-2.47,10.75-1.18,5.23,4.14,6.71,3.85,4.63-.1,6.51-1.38,4-5.23,4.94-7.1a23.26,23.26,0,0,1,4.82-7.1c3-3,6.21-5.62,3.85-9s-5.92-4.54-7.3-7a18,18,0,0,0-2.56-3.65l4.54-3.25L192.06,14l12,6.11s-.89,4.93,0,6.31,1.18,7.4,1.18,7.4,2.76,3.45,3,6a41.71,41.71,0,0,1,0,5.32l13.31,35.4s6.61.49,7.79,0,6.21-2,6.21-2l8,.39s3,13.31,3.85,18.44,1.08,18.74,1.08,18.74-14.2,3.94-17.65,5.13-10.95,4.54-15.19,2.66c-2.17,7.3,3.45,14.1,1.68,27.81-.89,7.1-1.08,7.89-1.08,7.89s3.25,9.37,1.18,13.11a7.57,7.57,0,0,0,4.24-1.08l3.65,1.28,6.21-14.79,3.25,1.08L253,153.38a4.64,4.64,0,0,1,1.08,4.14c-.49,2.66-.6,2.47.1,3.16a4.56,4.56,0,0,1,1,2.86c0,.79,1.18,2,1.18,2s1.28,0,0,1.38-1.68,1.48-1.28,2.07,1.68-.49.39.59a3.44,3.44,0,0,0-1.48,2.86,6.47,6.47,0,0,1-1,2.47,10.65,10.65,0,0,0-.69,2.07l-3.16-1.38s.49,1.51.59,2.09.1,1.86.3,2.55.69.36-.1,1.91-1,2.53-1.48,2.93a8.15,8.15,0,0,0-1.18,1.48l-1.48.79-1.28,1.48s.3,3.35-.59,5.23-.49,4.83.89,5.23a29.5,29.5,0,0,1,3.16,1.18s1.68.59,1.18,5.32.79,5.42,2,5.52,2.17-.69,3.65.1,3.65,1.68,4,2a9,9,0,0,1,1.18,1.77s.89,2,0,2.56a4.23,4.23,0,0,0-1.68,2.76c.1.59-1.08,1.68-1.08,1.68h-.79s.39,1.48.69,1.68.59.1.79.69a6.13,6.13,0,0,1,.2,2.17c0,1.18-.39,1.38.39,2.07s.39,0,.79.69a2.41,2.41,0,0,1,.1,2.17,7,7,0,0,1-.79,1.48c-.39.59-.59,1.48-.89,2s-1,.69-1.28,1.58-.79,1-.49,1.48.3,1,1,1a7,7,0,0,0,2.07-.39c.59-.2.39-.79.59-.2s-.89,1.28-1.08,2-1.58-.2-.2.69a9.12,9.12,0,0,0,2.07,1.08s-.3,0,0,.69.39,1.38.79,1.48-.69.2.39.1,2.17,0,2-.89-.59-2.17,0-2.27,1.18.69.59-.1-2.07-2-1.18-2.27,1.58-.2,1-1.77a46.46,46.46,0,0,1-1.28-5.52s2.47,5,2.66,5.62.39.39,1.18.89,2.27.89,3.06,1.38,1.28,0,1.87.69,2.37,2,.69,2.37-2.27-.1-2.27.69.59,4,.2,4-.79-.69-2.07-.69-.59.79-1.58.89a11.32,11.32,0,0,1-2,0s1.48.39-.1,1.58-2.37.89-1,1.38a4.84,4.84,0,0,1,2.07,1.38,2.84,2.84,0,0,1,.3,1.58c-.1.89-.1.49-1,1.28s-1.18,1.18-.79,1.87a3.86,3.86,0,0,0,1.58,1.18s.49,0-.1.79-1.08,1.68-.59,2.17,1.48.49,1.68.79,0,.79.2,1.18.59.79,1.38.3.3-.39,1-2a2.51,2.51,0,0,1,1.87-1.68h.59c.49,0,.81.49,1.29-.3s3.24-5.23,2.16-2.07l-1.08,3.16s2.27,1.38,1.77,2.47,0,1-.59,1.68a6.67,6.67,0,0,0-1.28,2.17,2.36,2.36,0,0,1,0,2.17,10.91,10.91,0,0,0-.69,2.17,4.5,4.5,0,0,0-1.68-.1c-1.08.1-2.86.1-3.16.1h-.89a24.6,24.6,0,0,0-2.47.59,2.87,2.87,0,0,1-2.07,0c-.3-.2-1.68-1.28-1.58-1.58a5.2,5.2,0,0,0,.49-1.48,5.76,5.76,0,0,1,.39-1.87,13.09,13.09,0,0,0,.2-2.56s-2.37-.79-3.06-.3-3.55.69-3.55.69L254,263a2.74,2.74,0,0,1-.49-1.28,5.15,5.15,0,0,1,.39-2.07c.3-.59.89-1.28.69-1.58s-1.18-1.28-1.18-1.28a15.59,15.59,0,0,0-2.17-1.58c-.79-.39-2.17-1.38-2.86-1.28a6.33,6.33,0,0,0-1.38.39s.1.59-.3.69-1.08.3-1,.59.3.69,0,1-1.58.3-1.58,1,.1.59-.59,1.58-.89,1.08-.89,1.68-3,1.48-2.56,2.27a21.15,21.15,0,0,0,2.07,2.66s.1.69-.89.69a3.89,3.89,0,0,0-3,.89,16.77,16.77,0,0,0-1.87,2.07l-2.47,1,1,4.14-14.69,3.16s.69,1.08.89,5.42.69,5.23.69,5.23,1.58,4.14,2.37,4.93,3.35,2.66,3.55,3-.69,2.86.1,3.16,1.68-1.18,1.77-.59-.79,2.86.59,3,1.87-.2,2,.1-.59,1.77.59,1.87,1.28-.49,2.76-.39,6.61.49,7.69.69a13.59,13.59,0,0,1,4.73,2.07,8.59,8.59,0,0,1,1.58,2.07c.1.3-.1.69.79.2s1.68,1,2,.39,1.68-1.38,1.48-.49-1.08,1.77-.39,2.07,2.66,1.08,2.66,1.08a9.63,9.63,0,0,0,.1-1.87c-.1-.39-.2-1.38.3-.89s4.73,2.47,6,3.75.89,2.86,1.28,3,.2.49,1,.69,3.94-1,2,1.68-4.63,2.66-5.42,3a2.44,2.44,0,0,0-1.18,1.08s0,.3,1.08.39,2.27-.1,2.86.49a3.75,3.75,0,0,1,1.28,1.77,1.64,1.64,0,0,0,1.08,1.28c.39.1.49.49,1,.1s1.77-1.28,1.77-1.28.79.2.49,1.68-.2,1.28.69,2.37,1.77,1.18.79,1.68-1.58.59-1.48,1.48,1.48.3.2,1.38-.69.2-1.28,1.08-1.28-.49-.59.89,1.18.89.69,1.38-1.87.89-2.17,2.17-.59,2.47-.59,2.47-1.87-1.18-2.86-1.77-3.06-2-3.06-2l-.2,1.68-5.42-2.27.79,3.55a1.62,1.62,0,0,1-1.58,1.18c-1.28,0-2.37-.49-3.25-.3s-2.66,1.77-3.55,2a45.46,45.46,0,0,1-5.23,0l-1,1.87h-5.13s8-8.09-2.76-2.86l-.1-2.56s8.09-4.93,1.87-3.65l-7.3-.49-.59,6.11s-3.45,1.68-10.35-1.38c-2.17-1.38-2.47.1-2.47,1.38-3.55,0-4.24,1-4.24,2.56-5.82-1-11.54-1.28-10.85,5.82-4.14-1.38-4.73-1.87-4.73-1.87l-3.25.39-2.86-4.14A13.3,13.3,0,0,0,181.21,342.6Z"/><path class="cls-2" d="M200.28,352l-2.07-.69a40.43,40.43,0,0,1-4.58-1.76L190,350l-3.17-4.58a12.21,12.21,0,0,0-5.62-1.42h-.83l-.41-.72a48.07,48.07,0,0,0-2.81-4.48c-1,.06-3,.21-4.93.36l-2.3.46L165.81,341l-2-6.83,2.19-1.94a1.78,1.78,0,0,1-.59-.92,2,2,0,0,1,.38-1.6l0,0a3.46,3.46,0,0,0-.08-1,10.07,10.07,0,0,1-.34-3,17.9,17.9,0,0,1,1.12-4,3.36,3.36,0,0,0-.39-.59l-.19-.26h0l-1.34-.17a9.15,9.15,0,0,1-1.79-.54,1.75,1.75,0,0,1-.72.16,8.14,8.14,0,0,1-3.18-.8,11.34,11.34,0,0,1-1.44-1.36l-.26-.27-.41,0a2.1,2.1,0,0,1-1.54-.83,2.26,2.26,0,0,1-.29-.5,1.65,1.65,0,0,1-.66-.3l.3,1.19-2.14-.37-.75-.11a3.39,3.39,0,0,0-.67.49,10.11,10.11,0,0,0-.38,1.29c-.09.37-.18.72-.27,1a7.89,7.89,0,0,0-.24,2.18l0,.6c-.1,1.81-.1,3.22-.1,3.23l.11,2.88-3.77-.33-.93.88.13.94-2.77,1.49-.88-1.66-.11,0a1.45,1.45,0,0,0-.91.56l-.48,1-1.07-.28-3.07-.65L132,328.94l.07-2.87c-.56-2.12.38-3.21,1.13-3.57l1.39-.77.51.1h.07c.12-.24.25-.55.33-.74a2.64,2.64,0,0,1,.95-1.4c.32-.29,1.33-1.39,1.9-2a5.73,5.73,0,0,1,2.79-1.35l.15,0,.22,0c.25-.48.88-1.76,1.41-2.85l.25-.52.54-.2a13.08,13.08,0,0,1,1.35-.39,14.42,14.42,0,0,0,2-1.06l1.26-.73.11-.34a2.75,2.75,0,0,1,1.87-2.35l-.81-1.11.73-.85.19-.24a4.34,4.34,0,0,1-.09-.76c0-1.2,1.55-2.14,2.51-2.29l.14-.09-.33-2.07a15.84,15.84,0,0,1-2.71-.59c-.62-.17-1.27-.36-1.91-.48-1.63-.31-3.68-.9-4.6-1.17a18.86,18.86,0,0,1-3.46,1.09,4.9,4.9,0,0,1-2.74-.5l-.22-.09c-1-.39-5.54-3.08-6.83-3.84l-3.38-.89c-.58,0-2.4,0-3.76-.1a3.57,3.57,0,0,0,0,2c.51,2.05-1.35,4.86-1.93,5.67l-.39.55-.67,0a10.77,10.77,0,0,0-2.52.4,7.9,7.9,0,0,1-4.78.14,22.08,22.08,0,0,1-4.16-3.5,3.68,3.68,0,0,0-.61,0,5.83,5.83,0,0,1-.84,0c-.45,0-1.19-.11-6.4-4.76l-2.3-2.05,5.33-.71.35-.61a3.56,3.56,0,0,1-1-2.22,23.42,23.42,0,0,1,.42-4.35c.14-.68.25-1.52.33-2.25l-7.54.6-.4-.93a63.47,63.47,0,0,1-2.5-6.78l-.49-1.89,1.94.12c1.11.08,3.68-1.4,5.05-2.42l.35-.26,7-.29.67.15.69-5.91a10.29,10.29,0,0,1,.8-1.77,39.91,39.91,0,0,0,.47-4.13c-.69-1.21-2.4-4.2-2.58-4.56-.07-.14-.11-.24-.18-.4s-.34-.86-1.47-3.16c-1.28-2.62-4.28-11.89-4-13.22a1.71,1.71,0,0,1,.1-.3c-.59-.37-1.3-.82-2.14-1.33l-.7-.42v-.82a23.57,23.57,0,0,0-.79-5.82l-1.44.51c-2.73.74-7.16-.46-7.65-.59l-.75-.21L87,224l.16-.44c.51-1.37,1.84-7.49,2.31-9.73l.35-1.66,7.5,3-.3-3.18a33.63,33.63,0,0,1-1.4-11.23c.37-5.09-1.45-11.88-1.47-12l-.17-.64,1.71-2.46,4.79-1.47a5.73,5.73,0,0,0-.47-.38,44,44,0,0,0-7.63-2.65,54.52,54.52,0,0,1-6.73-2.74l-.8-.37,0-.88c0-.6-.39-14.69-.19-17.68a10.28,10.28,0,0,1,1.38-4.47,24.24,24.24,0,0,1-2.42-2.88,20.36,20.36,0,0,0-5.34-4.47l-.58-.33-3.34-19c-.07-.51-1.48-11.21-.38-16,.82-3.59-.55-19.25-1.15-25l-.32-3.11,2.55,1.81a29.25,29.25,0,0,0,3.79,2.38,12,12,0,0,1,2,.65,15.1,15.1,0,0,0,1.52.52h1.83l.23.08c3.11,1.1,6.62,2.3,7.09,2.41s8.34,1.69,9.15,1.89a13.48,13.48,0,0,0,2.35-.07c-.38-.37-.79-.76-1.18-1.11l-.53-.48.54-5.31,1.63.47c1.67.49,6.46,1.67,8.54,1.32l2-.36c5.92-1.08,8.22-1.35,9.32-.75a29.8,29.8,0,0,0,4.7,1.9c.54,0,1.85.11,7,.76,1.92.24,3.73.47,4.51.54a12.6,12.6,0,0,1,1.35.21,5,5,0,0,0,.7.11,5,5,0,0,0,.5-.83c1.24-2.48.93-2.76.61-3.05a16.8,16.8,0,0,0-1.5-1.15,20.66,20.66,0,0,1-3.63-3.08,13.07,13.07,0,0,0-2.13-1.62A45.32,45.32,0,0,1,124.18,71l-.88-1.13,1.14-.87c3.85-2.95,12.51-9.2,15.32-11.22l-2.49-6.42,1.34-.51c.28-.11,7-2.62,11.66-1.21a13.17,13.17,0,0,1,5.21,3.07,7.27,7.27,0,0,0,.9.72c.48-.09,1-.13,1.67-.18,1.42-.11,3.19-.25,4.22-1s2.6-3,4.48-6.58l.4-.8a22.69,22.69,0,0,1,4.67-6.65l.78-.77c3.11-3.06,4.25-4.49,2.91-6.38a16.5,16.5,0,0,0-3.81-3.59A12.12,12.12,0,0,1,168.14,24a17.11,17.11,0,0,0-2.33-3.34l-1.16-1.18L170.82,15l21.5-2.46,13.35,6.79-.19,1c-.4,2.23-.49,4.76-.2,5.3.92,1.44,1.27,5.77,1.38,7.64.79,1,2.79,3.94,3,6.42a42.25,42.25,0,0,1,0,5.22l12.88,34.26a35.22,35.22,0,0,0,6.27,0c1.19-.5,5.81-1.86,6.33-2l.23-.07,9.31.46.23,1.05c.12.54,3,13.4,3.86,18.5s1.1,18.4,1.1,19l0,1.09-1.05.29c-.14,0-14.2,3.95-17.57,5.1l-1.67.61c-3.63,1.34-8.88,3.29-12.93,2.51-.41,2.64.17,5.36.87,8.67A48.28,48.28,0,0,1,218.71,152c-.61,4.91-.9,6.85-1,7.6.54,1.65,2.31,7.43,1.7,11.57a4.76,4.76,0,0,0,1.44-.59l.59-.41.7.23,2.39.84,6.2-14.77,4.06,1.35,18.6-6,.61.57a6.09,6.09,0,0,1,1.51,5.43l-.19,1c-.06.32-.12.62-.15.83a6,6,0,0,1,1.46,3.91,4.91,4.91,0,0,0,.51.68,1.82,1.82,0,0,1,1.1,1c.35.8.08,1.7-.8,2.65l-.28.3a1.29,1.29,0,0,1,.16.23c.56,1-.24,1.71-.89,2.26a2.11,2.11,0,0,0-1,1.91,5,5,0,0,1-.73,2.18c-.11.21-.24.44-.38.74a9.38,9.38,0,0,0-.59,1.77l-.35,1.72-2.14-.93c0,.14,0,.29,0,.44a9.09,9.09,0,0,0,.16,1.36c.7,1,.34,1.88-.2,2.94-.29.57-.5,1.07-.67,1.47a4.42,4.42,0,0,1-1.19,1.91,6.82,6.82,0,0,0-.87,1.13l-.2.31-1.58.84-.73.84a12.64,12.64,0,0,1-.76,5.34,3.72,3.72,0,0,0,.06,3.29,28.21,28.21,0,0,1,3.24,1.21c.71.28,2.6,1.54,2.05,6.78-.3,2.87.14,3.65.29,3.82s.09.11.39.14a3.48,3.48,0,0,0,.83-.1,4.6,4.6,0,0,1,3.37.36c.69.37,1.56.77,2.32,1.12a12.37,12.37,0,0,1,1.91,1,7.32,7.32,0,0,1,1.58,2.24c.71,1.57.93,3.48-.46,4.41a3.54,3.54,0,0,0-1,1.5,3.54,3.54,0,0,1-1.26,2.53,2.19,2.19,0,0,1,.8,1.14,10.35,10.35,0,0,1,.2,3.63h0l.06,0a1.87,1.87,0,0,1,1,1,3.78,3.78,0,0,1,.26.56l-1.25-7.16,4.39,9c.69,1.4,2.23,4.56,2.65,5.57a5.54,5.54,0,0,1,.68.36,9.32,9.32,0,0,0,1.3.57,11,11,0,0,1,1.76.81c.05,0,.06,0,.28.05a2.55,2.55,0,0,1,1.92.92c.09.1.21.22.34.35.7.69,1.67,1.64,1.32,2.87a2.1,2.1,0,0,1-1.73,1.45,8.26,8.26,0,0,1-1.09.18l0,.34c.28,2.27.34,3.09-.23,3.74l-.42.48-.69,0a2.22,2.22,0,0,1-1.21-.42,1.39,1.39,0,0,0-.71-.27,2.06,2.06,0,0,1-1.58.88l-.24,0a3.14,3.14,0,0,1-.84,1.05,5.35,5.35,0,0,1,1.07,1l.11.17a4.2,4.2,0,0,1,.47,2.44,2.08,2.08,0,0,1-1,1.82,4.09,4.09,0,0,0-.47.36l-.31.28a3.7,3.7,0,0,0,.59.36,1.61,1.61,0,0,1,1,.82,2,2,0,0,1-.4,2.17c-.14.18-.24.33-.31.45h0a2.36,2.36,0,0,1,1.4.84l.1-.25a3.87,3.87,0,0,1,3.05-2.52h.71l.3,0c1.81-2.94,2.66-4,4-3.37s.78,2.13.53,2.86l-.74,2.16c1.17,1,2,2.28,1.38,3.59a1,1,0,0,0-.13.44,2.38,2.38,0,0,1-.67,1.57,8,8,0,0,0-.85,1.26,3.69,3.69,0,0,1-.19,2.68,10.6,10.6,0,0,0-.61,1.86l-.27,1.64-1.58-.51a2.62,2.62,0,0,0-.64-.05l-.46,0c-1,.09-2.49.1-3.28.1h-.75a21.56,21.56,0,0,0-2.15.52,4.12,4.12,0,0,1-3.31-.17c-2.62-1.75-2.26-2.85-2.14-3.21,0-.12.11-.28.19-.46a3.71,3.71,0,0,0,.23-.61,7.21,7.21,0,0,1,.49-2.35,9.11,9.11,0,0,0,.08-1,4.16,4.16,0,0,0-.95-.12,11.35,11.35,0,0,1-4.12.85l-.51,0L253,264l-.14-.19a4,4,0,0,1-.76-2.11,6.66,6.66,0,0,1,.54-2.7c.1-.2.23-.42.36-.62l-.55-.56a13.51,13.51,0,0,0-1.84-1.35c-.23-.12-.51-.28-.81-.45a8.69,8.69,0,0,0-1.32-.68l-.25.05a1.79,1.79,0,0,1-.95.91,1.85,1.85,0,0,1-.57,1.28,2.56,2.56,0,0,1-1.17.6,3.41,3.41,0,0,1-.84,1.77l-.41.57c-.09.13-.17.22-.22.3,0,1.1-1,1.62-1.88,2.13l-.35.2c.38.5.91,1.13,1.37,1.65l.29.32.06.42a2,2,0,0,1-.47,1.56,2.3,2.3,0,0,1-1.82.75,2.53,2.53,0,0,0-2,.52,15.31,15.31,0,0,0-1.69,1.87l-.24.32-1.7.68,1,4.36-14.59,3.13a26.41,26.41,0,0,1,.49,4.3,19.17,19.17,0,0,0,.55,4.67l.05.12a25.65,25.65,0,0,0,2.05,4.44c.34.34,1.24,1.05,2,1.62a8.63,8.63,0,0,1,1.76,1.55,2.37,2.37,0,0,1,.17,1.85,1.47,1.47,0,0,1,1,0,1.56,1.56,0,0,1,1,1.22,3.82,3.82,0,0,1-.07,1.23c0,.14-.06.36-.08.56.24,0,.44,0,.61,0a1.68,1.68,0,0,1,2.12,1.86,4.7,4.7,0,0,1,2-.27c.78.05,6.55.47,7.85.71,1.13.21,4.37,1.35,5.48,2.46a12.62,12.62,0,0,1,1.46,1.77,2.51,2.51,0,0,1,1.44.29,2.48,2.48,0,0,1,2.28-.6,1.62,1.62,0,0,1,1,1,1.56,1.56,0,0,1,.34-.26,1.6,1.6,0,0,1,2,.35c.12.09.9.51,1.52.86a23.5,23.5,0,0,1,4.49,2.89,5.16,5.16,0,0,1,1.43,3,2,2,0,0,1,.22.24l.4,0c.93-.1,2.34-.26,3,.9s-.3,2.55-.68,3.06a8.11,8.11,0,0,1-3.35,2.67,2.53,2.53,0,0,1,.55.42l.21.21a4.5,4.5,0,0,1,1.44,2.23.53.53,0,0,0,.14.28l.08,0c.57-.42,1.34-1,1.44-1l.53-.37.62.16c.73.18,2,1.11,1.54,3.33,0,.14-.08.42-.11.59l.14.17.36.43a4.86,4.86,0,0,0,.64.62,1.76,1.76,0,0,1-.31,3.22l-.22.11a1.46,1.46,0,0,1,.25.63,2.18,2.18,0,0,1-1,1.94,6.19,6.19,0,0,1-1,.7l-.06.08,0,.06a1.5,1.5,0,0,1,.57,1.07,1.67,1.67,0,0,1-.61,1.35,4.55,4.55,0,0,1-.87.64c-.51.31-.85.54-.92.85-.3,1.3-.6,2.49-.6,2.49l-.48,1.9-1.66-1s-1.86-1.17-2.83-1.76l-1.19-.75-.15,1.27-4.63-1.94.27,1.21-.08.32a3,3,0,0,1-3,2.26,9.86,9.86,0,0,1-1.86-.21,3.69,3.69,0,0,0-1.09-.12,9.28,9.28,0,0,0-1.3.78,7.56,7.56,0,0,1-2.25,1.19,29.63,29.63,0,0,1-4.7.07l-1,1.84h-9.37l2.38-2.41A21,21,0,0,0,236,342.3c-.64.24-1.51.61-2.69,1.18l-2,.95-.21-5.56.71-.43c.57-.35,1.14-.72,1.65-1.08l-5.06-.34-.54,5.53-.71.35c-.41.2-4.25,1.87-11.55-1.36l-.19-.1-.28-.16c0,.1,0,.21,0,.35V343h-1.42c-2.82,0-2.82.53-2.82,1.15v1.68l-1.65-.28c-3.27-.56-6.82-.93-8.32.47-.76.71-1.06,2-.88,3.82Zm-5.51-5a18,18,0,0,0,2.45,1,6,6,0,0,1,1.79-4c2.22-2.07,5.86-1.92,9.34-1.41.64-1.66,2.34-2.18,4.11-2.32a2.55,2.55,0,0,1,1.2-1.7,3.12,3.12,0,0,1,3.2.44c4.35,1.91,7.14,1.77,8.37,1.54l.63-6.53,8.48.57c1.19-.24,3.15-.56,3.74.94.25.62.63,1.61-2.69,4,1.92-.66,3.23-.66,4,.36.29.41,1,1.34-.82,3.8h1.17l1-1.91.9,0a42.65,42.65,0,0,0,4.86,0,9.42,9.42,0,0,0,1.29-.78,7.56,7.56,0,0,1,2.25-1.19,5.47,5.47,0,0,1,2.22.1,7.39,7.39,0,0,0,1.34.17h.07l-1.26-5.67,6.21,2.6.25-2.11,1.92,1.28s2.05,1.37,3,1.94l1.21.74.13-.54a3.85,3.85,0,0,1,1.73-2.33l-.14-.27c-.37-.73-.74-1.49-.06-2.24a1.45,1.45,0,0,1,1-.47,1.6,1.6,0,0,1,.71-.58,2.12,2.12,0,0,1-.13-.54,2.24,2.24,0,0,1,1.09-2.31l-.09-.11-.32-.38a2.58,2.58,0,0,1-.83-2,1.84,1.84,0,0,1-2.15,0,3.07,3.07,0,0,1-2-2.28c-.07-.28-.23-.45-.68-.89l-.23-.23a9.66,9.66,0,0,0-1,0c-.33,0-.67,0-1,0-2.14-.19-2.37-1.33-2.37-1.81v-.33l.15-.3a3.81,3.81,0,0,1,2-1.78,5.87,5.87,0,0,1,.87-.22,6.06,6.06,0,0,0,3.4-1.64,3,3,0,0,1-.66-.07,2.4,2.4,0,0,1-1.38-.84,2.1,2.1,0,0,1-.9-1.64,2.53,2.53,0,0,0-.64-1.54A23.85,23.85,0,0,0,257.6,311l-.07,0c0,.19,0,.41-.08.65l-.24,1.8-1.69-.68s-2-.8-2.69-1.1a1.81,1.81,0,0,1-1-1,1.77,1.77,0,0,1-.09-.33,2.69,2.69,0,0,1-.92-.45l-.09-.06a1.86,1.86,0,0,1-1.7.09,1.58,1.58,0,0,1-.85-1.26,10.39,10.39,0,0,0-1.22-1.48,13.11,13.11,0,0,0-4-1.68c-.95-.17-5.77-.55-7.53-.67a2,2,0,0,0-1,.14,3.89,3.89,0,0,1-1.8.25,2.11,2.11,0,0,1-1.56-.81,2.16,2.16,0,0,1-.43-1.14l-.56,0a2.18,2.18,0,0,1-1.58-.81,2.56,2.56,0,0,1-.52-1.51,2,2,0,0,1-.67-.13c-1.61-.6-1.27-2.58-1.07-3.76l0-.12-.89-.71c-.86-.68-1.74-1.38-2.21-1.85-.9-.9-2.16-4-2.67-5.39-.22-.51-.63-1.93-.8-5.71s-.7-4.78-.71-4.79l-1.09-1.72,2-.36,13.27-2.85-.93-3.92,3.25-1.3a17.28,17.28,0,0,1,1.81-2,4.61,4.61,0,0,1,2.4-1.16,9.44,9.44,0,0,1-.95-1.39c-.83-1.66,1-2.68,2-3.23l.49-.28a3.39,3.39,0,0,1,.71-1.36l.37-.51c.09-.13.25-.36.34-.5v-.27a2.09,2.09,0,0,1,1.57-2,1.59,1.59,0,0,1,.2-.85,2,2,0,0,1,1-.87l-.06-.45,1-.44a7.68,7.68,0,0,1,1.74-.5,5.21,5.21,0,0,1,3,1.05c.24.14.46.27.65.37a15.81,15.81,0,0,1,2.46,1.77l.08.07a14.18,14.18,0,0,1,1.36,1.5,2.31,2.31,0,0,1-.35,2.56c-.09.15-.18.29-.26.44a3.82,3.82,0,0,0-.24,1.44,1.41,1.41,0,0,0,.13.3l1.13.81a10.48,10.48,0,0,0,2.37-.42c1-.72,2.88-.33,4.28.14l1,.32v1c0,2.5-.24,3-.35,3.2a4.77,4.77,0,0,0-.25,1.24,3.51,3.51,0,0,1-.29,1.28c.22.19.48.4.65.53a2.17,2.17,0,0,0,.93-.1,25.67,25.67,0,0,1,2.65-.64l.26,0h.89c.6,0,2.11,0,3-.09a7.22,7.22,0,0,1,.76,0c.11-.32.25-.71.42-1.15s.16-.69.11-.8a2,2,0,0,1-.21-.84c0-1.15,1.61-3.07,1.62-3.09h0a3.57,3.57,0,0,1,.26-1.07,4.79,4.79,0,0,0-1.11-.94l-.72-.45a2.33,2.33,0,0,1-.95-.12h-.44a1.49,1.49,0,0,0-.69.83,5,5,0,0,0-.34,1,2.22,2.22,0,0,1-1.19,1.6,2.43,2.43,0,0,1-2,.37,2.25,2.25,0,0,1-1.41-1.23,2.36,2.36,0,0,1-.23-.83,3.29,3.29,0,0,1-1.37-.77c-.83-.83-.84-1.94,0-3.3a3.73,3.73,0,0,1-1.09-1.14c-1-1.78.35-3,1.08-3.64.21-.19.38-.32.52-.43a1.45,1.45,0,0,0-.09-.59,3.73,3.73,0,0,0-1.35-.83c-.76-.27-1.59-.57-1.65-1.58a1.67,1.67,0,0,1,1.13-1.58,6.71,6.71,0,0,0,1.13-.68,1.41,1.41,0,0,0,.26-.23.86.86,0,0,0,0,.72.7.7,0,0,0,.37.44l.5-2.78a11.44,11.44,0,0,0,1.41,0,2.22,2.22,0,0,1,2-.92,4.53,4.53,0,0,1,.65,0l-.05-.43c-.06-.53-.11-.93-.13-1.23H265a1.92,1.92,0,0,1-.37,1.31,3,3,0,0,1-2.45.92l-.46,0c-.51,0-1.67.15-2-.94a4.45,4.45,0,0,1-.46-1c-.05-.15-.11-.32-.18-.48s-.09-.22-.12-.32a15.81,15.81,0,0,1-1.41-.82c-.66-.42-1.47-.95-1.23-1.92a2.25,2.25,0,0,1-1.49-1.39,2,2,0,0,0-.1-.21,1.94,1.94,0,0,1,.13-2.22,1.63,1.63,0,0,0,.23-.44,3.72,3.72,0,0,1,1.24-1.72,1.74,1.74,0,0,0,.19-.17c0-.07.14-.34.23-.57a6.88,6.88,0,0,1,.67-1.43,5.78,5.78,0,0,0,.67-1.25,1,1,0,0,0,0-.83,4.22,4.22,0,0,1-.53-.41,2.44,2.44,0,0,1-.93-2.49,4.67,4.67,0,0,0,.05-.65,7.61,7.61,0,0,0-.07-1.52,2.25,2.25,0,0,1-.29-.16c-.26-.17-.74-.5-1.27-2.49l-.47-1.78h2a3.35,3.35,0,0,0,.26-.34,5.75,5.75,0,0,1,2.07-3.69,3.67,3.67,0,0,0-.27-1,11,11,0,0,0-.77-1.24c-.23-.13-.85-.42-1.36-.65-.8-.37-1.7-.78-2.47-1.19a1.91,1.91,0,0,0-1.49-.08,5.62,5.62,0,0,1-1.61.14,3.26,3.26,0,0,1-2.34-1.15c-.93-1.13-1.23-3-.92-5.93.27-2.58-.19-3.67-.42-3.91a27.57,27.57,0,0,0-2.9-1.09,3,3,0,0,1-1.89-1.78,6.91,6.91,0,0,1,.11-5.42,11.26,11.26,0,0,0,.46-4.49l-.05-.6,1.85-2.13,1.39-.74a7.54,7.54,0,0,1,1.28-1.5c0-.06.21-.47.34-.79s.42-1,.76-1.67l.19-.39a2.61,2.61,0,0,1-.19-.48,10.22,10.22,0,0,1-.26-1.93c0-.3,0-.58-.07-.76s-.35-1.3-.54-1.89l-1-3,4.59,2c.09-.23.18-.47.3-.72s.34-.68.48-.94a2.23,2.23,0,0,0,.38-1.07,4.67,4.67,0,0,1,1.09-2.94c-.53-1.2.34-2.08.93-2.67l.46-.47a4.49,4.49,0,0,1-1.3-2.66,3.3,3.3,0,0,0-.57-1.86c-1.13-1.12-1-1.79-.68-3.43l.19-1a3.57,3.57,0,0,0-.25-2.21l-17.69,5.74L232.3,160l-6.22,14.81-4.29-1.51a9.79,9.79,0,0,1-4.38.95H215l1.16-2.1c1.29-2.33-.1-8.57-1.28-12l-.14-.4.1-.41s.22-1.05,1.05-7.72c.91-7-.17-12.1-1.12-16.58-.87-4.12-1.63-7.67-.51-11.46l.46-1.54,1.47.65c3.11,1.37,8.93-.79,12.41-2.08l1.74-.63c2.94-1,13.29-3.91,16.67-4.86-.07-3.32-.33-13.3-1-17.42s-2.88-14.07-3.6-17.32l-6.67-.33c-1.53.45-5,1.49-5.84,1.85-1.3.54-5.85.3-8.44.1l-.9-.07L206.79,45.42l0-.31a40.57,40.57,0,0,0,0-5.12c-.13-1.74-2-4.37-2.65-5.24l-.29-.36,0-.46c-.15-3-.59-6.11-1-6.7-.89-1.38-.65-4.36-.37-6.28L191.79,15.5l-19.92,2.28-3,2.15a24,24,0,0,1,1.74,2.69,10.07,10.07,0,0,0,2.8,2.66,19,19,0,0,1,4.42,4.22c2.86,4-.52,7.37-3.24,10l-.76.75a20,20,0,0,0-4.14,5.91l-.42.84c-1.47,2.83-3.42,6.26-5.4,7.62-1.65,1.13-3.93,1.31-5.6,1.45-.56,0-1.09.09-1.43.15-1.35.27-2.31-.58-3.24-1.4a10.38,10.38,0,0,0-4.16-2.48c-2.64-.8-6.46.11-8.48.71l2.22,5.75-.89.64c-.11.08-9.89,7.1-15,10.93a42.09,42.09,0,0,0,9.8,8.87,14.37,14.37,0,0,1,2.66,2.09A18.15,18.15,0,0,0,142.92,84a19,19,0,0,1,1.77,1.37c2.21,2,.89,4.67,0,6.41-1.29,2.59-2.7,2.54-4.28,2.23a10.24,10.24,0,0,0-1.06-.17c-.83-.08-2.66-.31-4.6-.55-2.35-.29-5.9-.74-6.49-.74h0c-1.44.09-5.44-1.85-6.11-2.19-1-.21-5.42.61-7.56,1l-2.08.37c-2.23.37-6-.42-8.16-1l-.06.54c2.34,2.17,2.54,2.77,2.62,3a1.53,1.53,0,0,1-.34,1.54c-1.08,1.16-5.88,1.14-6.57,1S91.58,95.11,91,95s-4.24-1.36-7.31-2.45H82.31a8,8,0,0,1-2.43-.7,15.45,15.45,0,0,0-1.53-.52A6.57,6.57,0,0,1,76,90.2c.58,6.1,1.66,19.13.79,22.9-1,4.3.4,14.84.42,14.95l3.1,17.65a21.76,21.76,0,0,1,5.64,4.91,15.11,15.11,0,0,0,2.81,3.15l1.3.92-1,1.2a7.29,7.29,0,0,0-1.48,4c-.16,2.44.1,13.34.18,16.54a50.18,50.18,0,0,0,5.23,2.15c1.05.19,7.31,2.06,8.8,3.14a12.74,12.74,0,0,1,2.49,2.56l1.15,1.6-7.86,2.41-.4.58A44.49,44.49,0,0,1,98.48,201a31.18,31.18,0,0,0,1.31,10.3l.06.31.74,8-8.68-3.53c-.5,2.3-1.38,6.25-1.91,8l.56,1.89a14.19,14.19,0,0,0,5.36.41L100,225l.45,1.38a29.56,29.56,0,0,1,1.31,7.33c2.69,1.65,3.86,2.52,3.91,2.56l5,3.75-6-1.19a73.49,73.49,0,0,0,3.5,10.51c1.17,2.4,1.42,3,1.56,3.35,0,.07,0,.12.08.19.15.3,1.75,3.1,2.72,4.79l.21.37,0,.43c-.36,5.07-.71,5.56-.92,5.85a6.83,6.83,0,0,0-.49,1.08l-.94,8.57-3.4-.77-5.76.24a18.14,18.14,0,0,1-4.64,2.43c.47,1.38,1.11,3,1.51,3.95l8.85-.71-.13,1.66c0,.1-.21,2.53-.55,4.24a20.41,20.41,0,0,0-.37,3.71,3.93,3.93,0,0,0,.85,1l.94.76-2.2,3.82-.53.07a28.75,28.75,0,0,0,2.58,2h.27a3.22,3.22,0,0,1,2.9,1,23.83,23.83,0,0,0,3.19,2.77,6.66,6.66,0,0,0,2.41-.14,10.15,10.15,0,0,1,2.82-.6,6,6,0,0,0,1.13-2.8c-.34-1.35-.38-3.36.62-4.56a2.61,2.61,0,0,1,2.22-.94c1.51.09,3.83.1,3.86.1l.36,0,3.94,1,.17.1c2.81,1.67,6.05,3.53,6.61,3.75l.22.09c.8.32.92.36,1.36.31a22.14,22.14,0,0,0,3.17-1.09l.47-.19.48.15s2.81.87,4.78,1.24c.76.14,1.46.34,2.14.53a7.93,7.93,0,0,0,3,.49c1.72-.25,2.72-.36,3.4.33a1.55,1.55,0,0,1,.42,1.36v.12c-.17,1.73-1,2.19-1.68,2.24l-.12,0,.31,1.94-.57.52a4,4,0,0,1-2.2,1.24c0,.18,0,.34.05.45l2.93-.5-1.07,2.42c-.19.43-.83,1.87-1.05,2.25a2,2,0,0,1-2.62,1l-.32-.11c-.31,1.1-.6,1.72-1.26,2-.19.1-.86.48-1.4.8a13.48,13.48,0,0,1-2.81,1.39l-.49.13a20.86,20.86,0,0,1-1.58,3,2.77,2.77,0,0,1-1.85.88l-.14,0a3.93,3.93,0,0,0-1.21.47,24.81,24.81,0,0,1-2.19,2.32l-.13.32c-.47,1.11-1,2.49-2.4,2.49h-.59l-.39.21a2.29,2.29,0,0,0,.11.58l.07.22,0,1.29,2.26.84,1.91.4a4.29,4.29,0,0,1,1-.73l.55-6,2.9,5.47,1.76-1.67,1.86.16c0-.52,0-1.7.1-3.16l0-.6a10,10,0,0,1,.39-2.93c.07-.21.14-.49.21-.78a6.26,6.26,0,0,1,.91-2.37,5.92,5.92,0,0,1,2.14-1.5,1.36,1.36,0,0,1,.28-.07,2,2,0,0,1,.89-1.31,3,3,0,0,1,2.75-.4,2.76,2.76,0,0,1,1.29,1.29,1.77,1.77,0,0,1,.9.46,1.75,1.75,0,0,1,.52,1,2.52,2.52,0,0,1,1.23.47,6.1,6.1,0,0,1,.67.65,13.28,13.28,0,0,0,1,1,8.29,8.29,0,0,0,1.35.26l.12-.07.61-.38.65.28a15.63,15.63,0,0,0,1.68.6l1.53.2.3.07c.58.21,1.43.53,1.67,1.32a3.34,3.34,0,0,1,.81,3.09,19.55,19.55,0,0,0-1,3.33,8.48,8.48,0,0,0,.18,1.84,5.45,5.45,0,0,1,.1,2.88,3.51,3.51,0,0,1,.92,1.76,2,2,0,0,1-.41,1.75,2.72,2.72,0,0,1-1.73.79l-.24.21.69,2.31,1.61-.51,2.63-.52c.85-.07,5.12-.4,5.73-.4s1.36,0,4.39,5.25a14.67,14.67,0,0,1,6.54,2l.24.15,2.53,3.67,3-.37Zm-27.69-15Zm-32.36-7.24Zm126.17-4.05h0Zm-124.25-1.12h0Zm25-2.11h0Zm-20-1.29Zm13.09-1.09h0Zm-1.16-.31h0ZM152,308.9l-.15.72.21-.73Zm1.23-3.56Zm-.49-2.76h0Zm-45.09-6.22ZM268,262.26h0Zm5.8-6.31Zm-8.27-13.55,2.89.94v0c0-.84.37-1.85,2.12-1.92l-.14-.15h0a3.19,3.19,0,0,1-1.57-.48,9.43,9.43,0,0,0-1.29-.57,11,11,0,0,1-1.77-.81,2.86,2.86,0,0,0-.44-.22,1.9,1.9,0,0,1-.56.62c.19.21.38.42.52.61A1.63,1.63,0,0,1,265.55,242.4Zm-5.43-1.85a5.2,5.2,0,0,0,.69.32l1.1.36a1.93,1.93,0,0,1,.1-.27,2.35,2.35,0,0,1-.69-2.1,1.76,1.76,0,0,1,1.19-1.22l.07,0a46.87,46.87,0,0,1-1.32-5.68L261,230.6a4,4,0,0,1-.33,1.53,8.43,8.43,0,0,1-.91,1.71,5,5,0,0,0-.38.86,6.57,6.57,0,0,1-.47,1.06,3.35,3.35,0,0,1-.76.84c-.26.23-.34.3-.39.46a4.3,4.3,0,0,1-.22.54,6.81,6.81,0,0,0,.76-.19,1.43,1.43,0,0,1,1.26-.59,1.55,1.55,0,0,1,1.35,1.22,2.54,2.54,0,0,1-.77,2.45Zm-3.19-19.89h0Zm2.8-.46h0Zm-12.43-18.55h0ZM122.19,90.39Zm-.13-.06.05,0Zm5.87-.57Z"/></svg>