<svg id="Layer_1" data-name="Layer 1" xmlns="http://www.w3.org/2000/svg" viewBox="0 0 350 350"><defs><style>.cls-1{fill:#999;}.cls-2{fill:#f90;}</style></defs><title>M</title><polyline class="cls-1" points="343.75 55.57 343.75 59.06 340.58 60.33 338.68 62.24 335.5 62.24 330.75 58.91 328.52 62.24 326.31 62.24 321.23 62.24 321.23 60.65 319.01 62.24 315.52 65.72 312.03 69.82 309.18 69.82 306 67.63 303.15 65.72 301.72 67.94 299.34 71.12 299.34 73.02 301.72 73.02 304.1 75.24 304.74 78.73 304.1 81.9 307.27 86.03 308.54 88.88 306.95 94.27 303.78 96.18 301.72 96.18 299.34 98.4 304.74 101.89 304.42 106.33 301.72 106.33 299.34 108.55 295.54 108.55 295.54 110.13 292.05 110.13 287.61 114.26 284.43 114.26 284.43 118.06 284.43 122.5 282.21 125.04 279.36 125.04 276.82 127.26 273.97 129.48 271.75 132.97 270.48 135.51 273.33 139.63 273.65 143.44 270.48 143.44 268.57 145.34 265.08 146.61 261.91 146.61 261.91 151.69 261.91 153.91 260.01 157.08 260.01 159.62 257.15 165.01 254.3 169.13 251.68 170.72 251.68 172.94 248.27 175.48 248.27 177.7 248.27 179.28 251.68 183.09 248.27 184.99 248.27 188.48 246.05 190.7 243.2 190.7 241.93 190.7 241.93 192.92 239.39 194.51 238.12 197.36 235.27 197.36 232.73 197.36 228.92 197.36 223.85 200.85 221.95 202.12 219.41 204.66 217.82 207.83 214.97 213.54 214.97 217.35 219.41 218.62 221.63 218.62 224.48 221.47 223.53 225.28 220.99 227.5 219.41 228.76 214.97 230.99 214.97 232.89 214.97 234.47 212.11 234.47 212.11 235.74 212.11 239.87 214.97 244.31 214.97 247.48 213.7 250.02 212.11 257.95 209.57 261.12 205.13 261.12 201.01 262.39 197.84 262.39 195.94 262.39 194.35 265.24 191.81 265.24 190.54 262.07 187.69 261.12 187.69 260.17 182.3 260.17 178.49 259.53 174.37 258.26 169.93 258.26 168.02 258.9 163.58 259.53 159.46 259.53 155.97 257.63 151.84 256.68 150.58 259.22 150.58 261.12 146.77 265.24 144.23 265.24 142.01 267.15 138.52 270.95 134.72 270.95 129.96 269.68 128.69 270.95 131.54 276.35 131.86 281.1 128.69 283.01 124.88 283.01 123.61 283.01 121.71 280.47 118.86 280.47 115.37 279.83 112.19 279.83 109.97 281.74 109.97 284.59 108.07 284.59 103.95 281.42 99.51 279.52 96.65 279.52 93.8 279.52 91.89 277.3 89.36 279.83 86.18 280.47 86.18 283.01 83.96 284.59 80.47 284.59 78.25 287.13 76.35 289.35 74.45 289.35 71.91 289.35 68.74 289.35 68.74 292.84 65.57 292.84 61.44 297.6 59.54 300.45 59.54 303.31 59.54 306.48 57.64 306.48 57.64 310.29 53.2 310.29 38.92 310.29 37.02 308.06 37.02 306.8 34.8 303.62 31.31 302.67 28.77 301.72 24.96 297.92 23.06 295.38 20.84 295.38 18.3 297.6 15.77 298.55 13.54 297.92 9.11 295.38 6.25 292.52 13.54 292.2 15.77 289.03 16.72 282.06 16.72 277.3 15.13 272.54 16.4 270 20.21 269.37 25.92 267.78 27.5 264.93 26.87 262.39 24.96 257.95 26.87 253.82 27.18 248.75 29.72 247.48 32.26 247.16 36.7 244.63 38.92 239.87 39.56 236.38 41.14 232.25 43.68 228.13 48.76 228.13 53.2 228.13 58.27 228.13 60.17 230.99 60.81 232.89 60.17 238.91 58.27 240.5 56.69 243.04 54.78 246.21 55.73 249.38 58.59 252.24 58.59 254.46 58.59 257.63 59.86 260.17 61.13 258.58 63.66 257.31 68.1 257.31 71.59 257.31 74.13 260.17 77.62 263.02 78.57 265.56 78.57 269.68 78.89 273.81 82.69 274.44 85.23 271.59 87.77 267.15 87.77 263.66 85.55 260.49 84.92 257.63 88.41 251.92 93.8 245.26 100.46 240.5 102.68 238.91 104.27 236.38 106.8 235.74 108.7 234.16 108.7 230.35 110.93 227.81 115.05 222.74 124.88 219.57 127.1 217.03 128.69 209.42 132.5 207.51 138.21 205.29 139.16 200.85 136.62 194.51 139.79 191.65 144.55 188.16 146.13 186.89 142.96 182.93 143.6 177.7 146.77 176.43 149.94 178.01 151.84 180.87 155.33 181.19 160.73 179.28 159.78 176.11 159.14 174.84 160.41 170.08 163.26 167.55 165.17 163.74 167.71 158.98 171.19 155.81 173.41 152.32 171.51 149.47 171.51 145.34 175 139.31 179.44 135.51 180.71 132.97 181.34 131.07 180.39 128.85 179.76 126.63 183.88 124.72 189.27 120.6 192.13 114.89 197.52 112.99 195.3 108.86 193.4 102.84 192.76 98.08 194.35 93.32 189.91 91.73 190.86 87.29 196.57 82.22 198.47 77.78 201.96 77.46 204.82 75.24 203.23 71.12 201.96 69.82 201.65 66.04 203.87 66.68 206.72 66.36 208.94 66.36 212.43 66.36 214.65 64.77 216.24 64.77 218.77 64.77 222.58 64.77 224.17 62.87 225.75 59.7 229.88 61.6 232.82 62.87 237.49 68.26 242.56 69.82 245.1 69.82 253.03 71.12 258.74 71.12 269.21 68.26 270.62 63.21 273.36 60.12 276.82 58.43 283.48 59.38 283.8 54.62 284.97 49.45 286.43 44.09 289.51 42.89 294.27 42.57 301.72 41.55 313.56 39.94 322.18 39.72 322.18 43.2 322.18 48.28 325.35 48.18 328.36 47.98 332.01 46.38 334.51 47.42 338.36 49.23 341.53 51.45 343.14 54.44"/><polygon class="cls-2" points="59.05 311.7 38.27 311.7 35.6 308.59 35.6 307.24 33.93 304.86 30.81 304 27.99 302.94 23.83 298.76 22.35 296.8 21.37 296.8 19.04 298.83 15.82 300.04 12.84 299.14 8.24 296.51 2.97 291.25 12.79 290.82 14.41 288.5 15.3 281.96 15.3 277.53 13.6 272.43 15.46 268.72 19.9 267.98 24.97 266.57 25.99 264.73 25.52 262.84 23.41 257.93 25.47 253.47 25.82 247.85 29.31 246.1 31.8 245.79 35.61 243.62 37.56 239.43 38.23 235.87 39.94 231.51 42.89 226.71 59.03 226.71 61.52 230.54 62.25 232.73 61.52 239.64 59.35 241.44 57.89 243.79 56.32 246.4 56.99 248.63 60.01 251.65 60.01 257.3 60.13 257.55 60.21 257.45 63.33 255.9 72.23 255.9 75.11 259.14 78.81 262.17 79.99 265.3 79.99 269.63 80.22 272.59 82.16 272.92 84.08 270.75 86.35 266.77 86.35 264.1 84.23 261.07 83.41 257.38 87.3 251.03 92.82 244.22 101.63 237.93 103.37 235.14 106.14 234.45 107.29 233.49 107.29 229.82 109.86 226.88 114.22 221.52 124.07 218.34 125.79 216.38 127.44 208.46 131.98 206.19 136.98 204.25 137.68 200.98 134.94 194.12 138.95 190.51 144.14 186.67 141.48 183.35 142.29 176.69 146.83 174.88 150.91 176.91 152.65 179.52 155.15 179.75 158.98 178.4 158.45 176.63 157.63 174.99 159.15 169.31 162.12 166.67 163.9 163.1 166.57 158.1 170.1 154.89 171.72 152.34 170.09 149.9 170.09 144.96 173.9 138.4 178.3 134.62 179.4 132.43 179.83 131.13 179.03 129.24 178.06 125.85 183.15 123.5 188.15 119.67 191.12 113.74 195.49 112.2 193.95 109.29 191.99 103.02 191.31 97.94 192.57 94.19 188.26 92.65 189.57 86.54 195.39 81.37 197.5 76.44 201.42 76.09 203.12 74.77 202.01 71.9 200.59 70.45 200.06 64.11 203.99 65.24 206.72 64.94 211.98 64.94 214.19 63.35 221.92 63.35 222.97 62.09 225.1 57.84 230.47 60.31 233.68 61.69 238.29 67.03 242.78 68.4 245.33 68.42 253.15 69.7 258.55 69.7 268.06 67.11 269.34 62.52 272.49 58.97 276.59 56.97 282.17 57.76 282.42 54.31 283.59 49.14 285.25 43.03 289.2 41.49 294.17 41.16 313.52 38.52 323.6 38.26 323.6 46.82 325.31 46.77 328.02 46.58 332 44.83 335.06 46.11 339.17 48.07 342.62 50.48 344.39 53.77 341.89 55.11 340.44 52.42 337.64 50.46 333.91 48.7 332.03 47.92 328.7 49.38 325.45 49.6 320.76 49.74 320.76 41.17 313.68 41.35 294.46 43.97 289.82 44.29 287.61 45.15 286.34 49.83 285.21 54.83 284.8 61 277.05 59.89 274.23 61.27 271.89 63.91 270.36 69.42 258.74 72.53 252.8 72.52 244.99 71.24 242.35 71.24 236.68 69.5 231.97 64.04 229.32 62.9 226.41 61.56 225.25 63.78 223.24 66.19 215.1 66.19 212.88 67.78 206.8 67.78 203.74 68.11 203.23 67.97 203.33 69.19 204.45 70.33 206.52 75.71 202.5 78.83 199.44 79.11 197.75 83.07 192.15 88.05 191.56 90.82 196.13 92.45 194.21 98.22 194.79 102.53 196.61 108.31 199.56 113.77 193.14 116.04 190.4 121.53 184.48 126.01 181.46 127.41 181.73 128.37 182.86 131 181.98 133.6 180.58 136.4 176.1 140.23 172.93 145.72 172.93 149.04 175.1 152.3 172.29 156.73 168.84 159.87 166.42 164.41 164.41 168.42 161.67 170.86 160.65 174.69 161.13 175.7 162.47 180.17 155.51 182.62 151.04 182.22 148.97 179.11 146.71 177.98 144.9 178.7 144.44 182.51 148.13 187.12 145.44 189.27 140.69 192.75 138.3 194.9 140.63 200.73 139.43 206.34 133.07 208.81 129.94 210.38 128.41 217.68 125.69 220.79 115.89 223.96 112.03 228.71 110.12 230.88 110.12 234.82 107.46 237.04 105.16 237.61 103.73 239.91 94.78 246.3 89.56 252.74 86.42 257.88 86.87 259.9 89.19 263.21 89.19 267.52 86.29 272.53 83.23 275.97 77.56 275.02 77.15 269.68 77.15 265.82 76.43 263.88 73.07 261.11 70.96 258.73 64 258.73 62.04 259.71 59.58 262.78 57.17 257.96 57.17 252.82 54.48 250.13 53.24 246.02 55.47 242.31 57.19 239.56 58.82 238.19 59.37 233.04 58.89 231.61 57.51 229.55 44.47 229.55 42.42 232.89 40.93 236.76 40.21 240.47 37.8 245.63 32.72 248.53 30.14 248.86 28.55 249.65 28.27 254.18 26.52 257.97 28.24 262.05 29.01 265.13 26.87 268.99 20.44 270.76 17.35 271.28 16.66 272.65 18.14 277.07 18.12 282.25 17.12 289.56 14.31 293.59 9.53 293.8 9.97 294.24 14.1 296.6 15.71 297.06 17.56 296.36 20.31 293.96 23.77 293.96 26.04 296.98 29.56 300.5 31.74 301.32 35.66 302.39 38.44 306.35 38.44 307.54 39.57 308.87 56.22 308.87 56.22 305.06 58.12 305.06 58.12 300.02 60.37 296.67 64.92 291.42 67.32 291.42 67.32 287.93 75.7 287.93 79.83 283.18 83.51 283.18 84.77 282.28 84.77 279.31 88.66 278.53 91.97 275.21 94.45 278.1 99.8 278.1 104.81 280.3 108.56 283.18 108.56 281.08 111.67 278.42 115.62 278.44 118.98 279.05 122.42 279.05 124.32 281.59 128.3 281.59 130.39 280.33 130.15 276.74 126.95 270.69 129.53 268.1 134.9 269.54 137.9 269.54 141.09 266.07 143.71 263.83 146.15 263.83 149.16 260.56 149.16 258.88 151.08 255.05 156.48 256.29 159.82 258.12 163.48 258.12 167.69 257.51 169.69 256.85 174.58 256.85 178.81 258.15 182.41 258.75 189.1 258.75 189.1 260.1 191.62 260.94 192.77 263.83 193.52 263.83 195.1 260.97 200.8 260.97 204.92 259.7 208.89 259.7 210.79 257.33 212.35 249.55 213.55 247.15 213.55 244.72 210.7 240.28 210.7 233.06 213.55 233.06 213.55 230.11 218.64 227.56 220.11 226.39 222.26 224.5 222.91 221.91 221.04 220.03 219.21 220.03 213.55 218.41 213.55 213.21 218.24 203.82 221.16 200.94 223.06 199.67 228.48 195.94 237.2 195.94 238.27 193.54 240.51 192.14 240.51 189.28 245.47 189.28 246.86 187.89 246.86 184.16 249.44 182.72 246.86 179.82 246.86 174.76 250.26 172.23 250.26 169.92 253.31 168.08 255.94 164.27 258.59 159.26 258.59 156.69 260.5 153.51 260.5 145.19 264.83 145.19 267.79 144.12 269.89 142.02 272.11 142.02 271.95 140.13 268.83 135.63 270.55 132.21 272.9 128.51 275.95 126.14 278.83 123.62 281.57 123.62 283.02 121.97 283.02 112.84 287.05 112.84 291.49 108.72 294.12 108.72 294.12 107.13 298.78 107.13 301.16 104.91 303.1 104.91 303.26 102.62 297.05 98.6 301.16 94.76 303.39 94.76 305.75 93.34 307.03 88.98 306.05 86.76 302.58 82.25 303.29 78.72 302.79 75.96 301.16 74.44 297.93 74.44 297.93 70.64 300.56 67.14 302.74 63.75 306.79 66.45 309.62 68.4 311.38 68.4 314.52 64.72 318.19 61.08 322.65 57.9 322.65 60.82 327.77 60.82 330.37 56.91 335.95 60.82 338.09 60.82 339.78 59.13 342.33 58.1 342.33 55.57 345.17 55.57 345.17 60.02 341.38 61.54 339.26 63.65 335.06 63.65 331.12 60.9 329.28 63.65 319.81 63.65 319.81 63.44 316.56 66.69 312.69 71.24 308.73 71.24 303.56 67.7 302.85 68.8 300.76 71.6 302.28 71.6 305.41 74.53 306.18 78.74 305.62 81.55 308.57 85.45 310.05 88.78 308.16 95.2 304.18 97.59 302.28 97.59 301.64 98.19 306.21 101.15 305.74 107.74 302.28 107.74 299.9 109.96 296.95 109.96 296.95 111.55 292.6 111.55 288.16 115.67 285.85 115.67 285.85 123.04 282.86 126.46 279.89 126.46 277.75 128.33 275.03 130.45 272.98 133.67 272.12 135.39 274.71 139.14 275.19 144.86 271.06 144.86 269.35 146.57 265.33 148.03 263.33 148.03 263.33 154.3 261.43 157.47 261.43 159.97 258.32 165.81 255.29 170.19 253.09 171.52 253.09 173.65 249.69 176.19 249.69 178.74 253.91 183.46 249.69 185.82 249.69 189.07 246.64 192.12 243.35 192.12 243.35 193.71 240.51 195.48 239.04 198.78 229.36 198.78 222.85 203.22 220.57 205.5 216.38 213.87 216.38 216.28 219.61 217.2 222.22 217.2 226.05 221.03 224.8 226.05 221.93 228.56 220.04 230.03 216.38 231.86 216.38 235.89 213.53 235.89 213.53 239.45 216.38 243.89 216.38 247.81 215.05 250.48 213.44 258.56 210.26 262.54 205.35 262.54 201.22 263.81 196.77 263.81 195.18 266.66 190.85 266.66 189.47 263.21 186.27 262.14 186.27 261.58 182.06 261.57 178.07 260.89 174.15 259.68 170.16 259.68 168.22 260.3 163.58 260.95 159.1 260.95 155.46 258.97 152.61 258.31 151.99 259.55 151.99 261.67 147.39 266.66 144.76 266.66 143 268.17 139.15 272.37 134.35 272.32 130.47 271.29 132.94 275.95 133.33 281.87 129.08 284.42 122.91 284.42 121 281.89 118.6 281.86 115.24 281.25 112.72 281.25 111.39 282.39 111.39 286.01 107.59 286.01 103.22 282.65 99.22 280.94 93.14 280.94 91.81 279.38 90.06 281.14 87.6 281.63 87.6 283.74 84.42 286.01 81.12 286.01 77 290.77 70.16 290.77 70.16 294.26 66.21 294.26 62.57 298.46 60.96 300.88 60.96 307.9 59.05 307.9 59.05 311.7"/></svg>