<svg id="Layer_1" data-name="Layer 1" xmlns="http://www.w3.org/2000/svg" viewBox="0 0 350 350"><defs><style>.cls-1{fill:#999;}.cls-2{fill:#f90;}</style></defs><title>M</title><path class="cls-1" d="M340.95,137.79c0-1.63,0-3.21.45-3.3a10.8,10.8,0,0,0,1.7-2.18l-.52-4.66s-2.42-.18-3-.3-.85-2-.85-2.72a28.8,28.8,0,0,0-.48-6,7.7,7.7,0,0,0-1.88-3.51c-.85-.79-9-1-9-1L312.14,114l.06-6.78h1.88l.06-4.24h2.48s.54-2,.06-2.48a9.08,9.08,0,0,1-1.09-2.3l-6.84-.06.12-1.76a2.3,2.3,0,0,0-2.12-1.15A4.06,4.06,0,0,0,303.36,97a6.77,6.77,0,0,1-2.78,1.57c-.73.06-2.6.06-2.6.06L298,65.92l.36-28.81-7.14,2.6-3.64.74c-2.54.92-6.8,2.67-8.22,3.07-1.94.54-54.72,18.22-54.72,18.22l-20.28,6.6.06,5s14.77-4.3,21.79-5.45c11.38-2.18,14.83,2.24,16,2.72A42,42,0,0,1,230.06,87.1c-.91,1,.73,2.66.42,5-1.27,4.36-7,10.17-7,10.17l-14.1-.18-.42,9.08-6.42.3v4.18l-4.48-.24v1.76a36.65,36.65,0,0,1-5,.06c-2.36,6.48-6.42,7.08-6.42,7.08l-2.42,3H169.41l.36-10.89-15.07-1.27,2.66-8.78,1.88-6.42-3.39-.48.3-3.51s-1.51,1-2.18,1.51-3.45.54-4.06.67-1.57,1.45-1.57,1.45H145v1.27l-2.24-.06.3,1.69-3.27-.06v3H135v1.57l-1.39.18V111l-1.39.36v-1.21l-.44-.85-.28,1.64a23.49,23.49,0,0,1-3.63,2.54c0,2.12-.85,2.72-1.82,2.84a2.78,2.78,0,0,1-2.42,2.6,15.48,15.48,0,0,0-2.42,0c.24,2.6-.54,7.44-1.33,8.41a13.6,13.6,0,0,1-4.6,3c-1,.61-1.82,2.3-.79,4.54-.73,1.94-1.57,2.6-1.33,5.08-.18,2.6-2.42,3.93-2.24,5.51a43.86,43.86,0,0,0,1,5.45c-1.45.73-1.51,1.09-2.42,3s-.54,3-1.76,3.21a23.28,23.28,0,0,1-3,.3v1.15l-3.33.36s-4.06,3.81-3.63,8.17c1,1.57,1.39.61,1.69,2.3a5.61,5.61,0,0,0,1.09,2.66c.3.48.18,2.91-1.51,3s-4.78-.91-5.87,1.76c-.48,1.94-1.39,2.06-.73,4.3a16.24,16.24,0,0,0,.54,2.42l1.15,1,.12,4.84a6.77,6.77,0,0,0-4.66,6.05c-1.09.54-2.91,1.39-3,3.57a2.43,2.43,0,0,0,0,3,47.84,47.84,0,0,0-2.84,4.6c-1.51.48-1.21,4.66-1.21,4.66l-3.21.42v13.07H73.78l-.85,1.39H68.58L68.21,230H65.13l-.42,2.06H59.38s-1.27,2.54-5.57,3c-1.21,2.3-2.84,1.51-3.21,3.39a17.18,17.18,0,0,0,0,4.54l-1.82.3s-.24,4.9-4.66,4.42c-3.87.18-13-1.09-13.92,3.09-.61,1.88-2.3,2.36-3.75,3.51s-3.09,1.69-3.09,6.6a14.52,14.52,0,0,1-.54,4.24l-2.48.36v1.15H17.13l-.42-3.09-9.5.3-.3,2.3a1.86,1.86,0,0,1,1.39,2.24c-.24,1-1.09.91-.73,2.42.54.91,2,1.45,2.36,2.3a26.82,26.82,0,0,0,4.84-.85s.12,2.91.18,3.09a43.32,43.32,0,0,0,4.42,1.15s1.88-2.84,3.81,0c.85-.3,1.33-3.63,2.12-4.18s2.78-1.33,4.24-.24,3.69,1.69,4.06,5.14c-.48,2,.36,2.12-.06,3.39s-2.66,2.84-3.33,4-3.51,6-3.09,9.56c1,2.54,3.21,6,5.93,7.57s7.38,2.91,8.23,4.48.48,2.36.48,2.36,4-1.82,5.93-1.57,2,.85,2.3,1.57c1.94-1.51,2.66-1.63,4.18,0,1.82-1.27,3.51-3.21,3.81-.48.42,1.27-.79,2.3-.54,3.27s.85,2,1.94,1.33,2.24-2.54,3-4.78a5.38,5.38,0,0,0-.36-4.48c-.48-1.27-2.18-3.21,1.69-3.75a4.58,4.58,0,0,0,1.82-4.42,8.66,8.66,0,0,0-1.15-2.36s-1-4.18-.06-4.6a1.69,1.69,0,0,1,1.45.12,4.52,4.52,0,0,1,2.48-.85,2,2,0,0,0,1.88-1.69l3.27.24-.42,2.24,1.82.42a21.81,21.81,0,0,1-.06,4.42c2.24-2.54,3.39-4.42,7.2-4.72a42.09,42.09,0,0,0,6.54-1l.91-6.78s-3.45-2.66-4.06-3a4.44,4.44,0,0,1-1.45-5.08c.85-2.84,1.88-6.84,5.21-6.84.36-.79.91-.67.36-1.39s-1-2.48,1.82-1.69c1.82.79,1.88,1.76,3.87,1.39,1.15-.79,1.21-2.24.3-4.42-.61-2.66.54-8,5.75-9.44.42.48,3.45-.54,1.88-2.42-1.51-1.27-1.76-2.48.18-2.36-.73-1.76-.67-4-1.27-5.08s-2.3-3.75-.61-5.45a11.21,11.21,0,0,1,9.56-2.78c3-.61,5.93-1.15,8,.73,1.15,1.57,1.09,2.91,1.69,3.93,2.3-.54,4.9-1.94,4.06,2.6-.06,1.45-.91,3.21.91,4.3,1.33.61,2.3.79,3.39,0s3.57-3.45,6.54-3.51c3-1.33,3.69-1.39,4-3.27s-.54-6.9,2.18-7.2c1.57-1.94,1.27-4.84,3.93-4.84a12.67,12.67,0,0,0,2.54.61l-.48-5.63s4.9-.24,5,2.54c-.79,2.42-1.69,2.54-1.69,2.54a13.24,13.24,0,0,1,1.33,4.12c1.88-2.12,1.21-2.78,3-2.78s3.09-.36,5.14-2.6,1-8.41,1-8.41a10,10,0,0,1,7.2-.48,9,9,0,0,1,4.6,3.69c.73.85,2.3,4.18,10.41,3.09,2.42-.24,2.84-.73,2.84-.73s-1-4.18,1.63-4.42c2.48-.42,5-1,5.27-1s0-1.45,0-1.45-6.05-4.42-2.24-10.65a15.13,15.13,0,0,0,1.33-1.27c.18-.06,1.51-3.09,3.09-2.66,1,.42,3.69,3.75,3.69,3.75l2.42-1.82s1.45-5.93,3.63-7.2,7.08-2.72,8.29-2.42,10.89,5.39,10.89,5.39l14.53,5s2-4.12,4.6-3.33c.91,1.15,2.18,3.75,3.87,1.39.42-1.88,1.88-5,5.87-2,1.76,1.33,5.51,1.21,5.51,3.15.06,1.21-1.39,4.78,2.42,3a15.28,15.28,0,0,0,8.29-11.68c.12-3,1.51-7.26,4.36-9-1.69-.67-3.09-3.69.36-5.63a18.82,18.82,0,0,0,4.42,1s5.51.67.85,2.91c-.18,1,1.27,2.24,2.91,1.09a4.63,4.63,0,0,0,1.82-3.09s-3.33-2.72-1.94-6.48c.73-1.45,1.94-2.18,4.66-.73l5.54-.48a6.46,6.46,0,0,1,0-5.17c-1.45-2.58-3.88-5.25,0-7.42.65-2.26,2.39-5.6,2.69-6.48s2.78-1.21,4.45,1.36a19.15,19.15,0,0,1,1.82,4c.73,0,3.78-1.94,4.9-2.91a6.76,6.76,0,0,1,4.36-1.69,9.92,9.92,0,0,0,2.27-.76s-2-2.88,1.39-2.45c2.72-.12,3.84-.61,4.12-.79a2.67,2.67,0,0,0,.58-.76,14,14,0,0,1,0-1.63,3.59,3.59,0,0,1,.27-.94,1.93,1.93,0,0,1,0-3.18c1.91-1.72,4.54-4.06,5.9.3.48.7.76,1.06,1.24.85a13.81,13.81,0,0,0,3.3-2.78c.39-.73,2.18-2.72,3.27-.94.24,1.27,1.85,3.09,2,4,1.12-1.82,2.33-3.36,5.24-2.51a12.92,12.92,0,0,1,2.36-.64v-1.88A1.56,1.56,0,0,1,340.95,137.79Z"/><path class="cls-2" d="M58.72,314.31a2.27,2.27,0,0,1-.86-.17,3.31,3.31,0,0,1-1.8-2.45,3.51,3.51,0,0,1,.34-2.25c.19-.45.29-.73.23-.91v0L56,309c-.32.25-.65.5-1,.74l-1,.71-.84-.91c-.63-.68-.85-.72-.86-.73h0c-.08,0-.39.09-1.41.88l-1.47,1.14-.8-1.93a2.4,2.4,0,0,0-.12-.27,2.33,2.33,0,0,0-1-.22c-1.06-.13-3.66.77-5.17,1.46l-3.47,1.58,1.55-3.35a2.56,2.56,0,0,0-.39-1.21c-.32-.58-2.68-1.6-4.09-2.21a36.51,36.51,0,0,1-3.6-1.71c-3-1.74-5.45-5.41-6.55-8.29l-.08-.34c-.31-2.65.77-6.14,3.24-10.39a10.37,10.37,0,0,1,1.73-2,8,8,0,0,0,1.51-1.77c.07-.21.07-.24,0-.57a5.13,5.13,0,0,1,0-2.44c-.27-1.91-1.23-2.51-2.44-3.26-.36-.22-.71-.44-1-.68a2.48,2.48,0,0,0-2.49.21,10.77,10.77,0,0,0-.54,1.39c-.49,1.41-.91,2.63-2,3l-1,.37-.62-.91c-.36-.53-.61-.64-.68-.64h0c-.2,0-.62.39-.78.63l-.54.82-1-.21c-5.14-1.14-5.19-1.27-5.46-2.09a7,7,0,0,1-.17-1.76,16.68,16.68,0,0,1-3.57.49l-.89,0-.35-.82a4.77,4.77,0,0,0-.71-.59,5.59,5.59,0,0,1-1.57-1.54l-.11-.19-.05-.21a3,3,0,0,1,.57-2.85,1.55,1.55,0,0,0,.14-.19c0-.43-.14-.54-.25-.56l-1.32-.25L6,262.46l12-.38.43,3.13h.55v-1l2.75-.4a23,23,0,0,0,.28-3c0-4.55,1.41-6,3.1-7.25l.5-.38a15.36,15.36,0,0,1,1.4-1c1-.66,1.62-1.05,1.89-1.84,1.08-4.38,7.65-4.23,12.44-4.12,1.05,0,2,0,2.78,0h.22a2.45,2.45,0,0,0,2-.47,4.17,4.17,0,0,0,1.14-2.62l.07-1.13,1.63-.28a15.29,15.29,0,0,1,.14-3.63,3.38,3.38,0,0,1,2-2.52,2.62,2.62,0,0,0,1.33-1.26l.36-.68.76-.07c3.38-.33,4.41-2.14,4.45-2.21l.4-.73.85,0h4.17l.42-2.06h2.95l.36-3.93h4.85l.85-1.39h4.89v-12.9l3.17-.42c0-1.55.33-3.57,1.58-4.45a33.78,33.78,0,0,1,2-3.19l.33-.49a3.48,3.48,0,0,1,.22-3.26,5.23,5.23,0,0,1,3.06-4.09,8.1,8.1,0,0,1,4.52-6.08l-.08-3.22-1-.8-.13-.35a16.86,16.86,0,0,1-.6-2.58,4.54,4.54,0,0,1,.28-3.75,6.1,6.1,0,0,0,.46-1.21l.06-.19c1.23-3,4.18-2.8,5.94-2.67a9.4,9.4,0,0,0,1.14,0c.05,0,.06,0,.11-.06a1.66,1.66,0,0,0,.22-.93l0,0a6.76,6.76,0,0,1-1.17-3c0-.15,0-.25-.07-.31a4.15,4.15,0,0,1-1.44-1.49l-.17-.28,0-.33c-.48-5,3.89-9.17,4.07-9.34l.35-.33,2.54-.28V156l1.37,0a22.62,22.62,0,0,0,2.7-.26c0-.12.09-.31.14-.47a11.09,11.09,0,0,1,.72-2l.23-.48a5.55,5.55,0,0,1,1.84-2.56c-.31-1.5-.65-3.76-.74-4.6a4.78,4.78,0,0,1,1.11-3.16,5.58,5.58,0,0,0,1.11-2.5,7.27,7.27,0,0,1,.88-4.34c.11-.23.23-.48.34-.75a4.74,4.74,0,0,1,1.56-5.74l.22-.14.25-.05a12.71,12.71,0,0,0,3.8-2.5,19.87,19.87,0,0,0,1-7.36l-.12-1.29,1.28-.23a14,14,0,0,1,2.59,0c.52-.11.89-.33,1.11-1.46l.2-1,1-.13c.21,0,.57-.07.57-1.44v-1l1-.32a20,20,0,0,0,2.77-2l.91-5.26,1.1,2.12v-1l1.39-.18v-1.75h4.78V101l3,.05L141,99.38l2.52.07V98.21h4.12a4,4,0,0,1,2-1.42,9.93,9.93,0,0,1,1.12-.11,13,13,0,0,0,2.38-.31c.73-.58,2.09-1.46,2.25-1.56l2.42-1.55-.43,5,3.68.53-2.34,8-2.16,7.11,14.67,1.24-.36,10.78h12.68l2.34-2.93.55-.08c.11,0,3.29-.67,5.29-6.17l.37-1,1.09.1a27.46,27.46,0,0,0,3.41,0v-1.92l4.48.24v-4l6.48-.31.43-9.16,14.86.19c1.28-1.37,5.2-5.72,6.23-9a5.56,5.56,0,0,0-.37-2.2c-.31-1-.73-2.34.27-3.48l.13-.14.16-.11a41,41,0,0,0,11.2-14.79c-1.64-1.18-5.31-3.53-14-1.87-6.89,1.13-21.51,5.38-21.66,5.42l-1.79.52-.1-7.87,21.27-6.92c2.15-.72,52.82-17.69,54.77-18.23.77-.22,2.63-.94,4.43-1.64,1.31-.51,2.65-1,3.69-1.4l.2-.05,3.54-.72,9-3.27-.39,30.86-.06,31.24c.42,0,.83,0,1.06,0a6.43,6.43,0,0,0,1.9-1.16l.19-.21a5.16,5.16,0,0,1,4.29-2h0a3.68,3.68,0,0,1,3.3,2l.16.33,0,.62,6.35.06.32,1a8.91,8.91,0,0,0,.77,1.77c.68.68.78,2,.28,3.83l-.28,1h-2.17l-.06,4.24H313.6l0,4,13.9.11c8.67.26,9.57,1.09,9.91,1.41a8.84,8.84,0,0,1,2.27,4.13,27.27,27.27,0,0,1,.55,6.41,6.19,6.19,0,0,0,.22,1.41c.57.06,1.49.15,2.28.21l1.17.09.71,6.36-.3.43a14.79,14.79,0,0,1-1.82,2.37,22.32,22.32,0,0,0-.08,2.3l0,.25a.83.83,0,0,0,0,.34s.14,0,.25,0h0l1.46,0,0,4.55-1.2.19a11.62,11.62,0,0,0-2.07.56l-.45.17-.46-.13c-1.79-.52-2.47,0-3.63,1.9l-1.91,3.09-.69-3.57a8.61,8.61,0,0,0-.7-1.24,11.32,11.32,0,0,1-1.19-2.26,3,3,0,0,0-.77.82,13.92,13.92,0,0,1-4,3.41c-1.56.68-2.52-.68-3-1.34l-.12-.18-.07-.21c-.34-1.09-.7-1.45-.85-1.49-.57-.15-2.15,1.28-2.75,1.82-.28.25-.4.44-.39.53a1,1,0,0,0,.3.47l.9.69-.48,1a2.2,2.2,0,0,0-.15.52,12.16,12.16,0,0,0,0,1.38l0,.39-.18.34a3.63,3.63,0,0,1-1,1.28c-.39.26-1.64.88-4.84,1h-.24l-.2,0a2.33,2.33,0,0,0,.15.26l.84,1.21-1.24.79a10.54,10.54,0,0,1-2.68.94l-.31,0a5.31,5.31,0,0,0-3.48,1.35c-.72.63-4.33,3.19-5.77,3.25l-.87,0-.43-.76a4.92,4.92,0,0,1-.35-.9,12.8,12.8,0,0,0-1.43-3.08,2.39,2.39,0,0,0-2-1.34c-.14.35-.36.82-.63,1.42a38.59,38.59,0,0,0-1.91,4.68l-.16.56-.51.28c-.53.3-1.2.77-1.34,1.3-.2.76.53,1.95,1.23,3.1.22.36.44.73.65,1.09l.35.62-.29.65a5,5,0,0,0,0,4l.89,1.85-8,.71-.37-.2c-1.34-.71-1.92-.65-2.11-.59s-.3.09-.58.63c-1,2.74,1.51,4.79,1.53,4.81l.58.48-.07.75a6,6,0,0,1-2.41,4.11,3.38,3.38,0,0,1-3.83.22,2.73,2.73,0,0,1-1.29-2.73l.13-.71.65-.31.22-.11c-.21,0-.43-.08-.63-.11a22.86,22.86,0,0,1-4.08-.8,1.8,1.8,0,0,0-.87,1.48,1.55,1.55,0,0,0,.86,1.25l2.64,1-2.41,1.49c-2.27,1.4-3.57,5-3.69,7.87v.12a16.7,16.7,0,0,1-9.13,12.8c-1,.48-2.52,1-3.68.18s-1-2.57-.81-3.67a6.44,6.44,0,0,0,.08-.71,5.89,5.89,0,0,0-1.86-.75,9.72,9.72,0,0,1-3.09-1.34c-1-.75-1.89-1.08-2.41-.89a2.84,2.84,0,0,0-1.22,2.07l-.06.28-.17.23a3.12,3.12,0,0,1-2.55,1.55c-1.54,0-2.51-1.38-3.22-2.38l0-.06c-1,.14-2.19,1.9-2.54,2.62l-.55,1.13-15.91-5.52c-4.6-2.42-9.82-5-10.59-5.27s-5.18,1.08-7.22,2.27c-1.13.66-2.44,4.16-3,6.32l-.12.49-3.93,2.95-.86-1.07a25.65,25.65,0,0,0-3-3.21,5.19,5.19,0,0,0-1.22,1.57,2.59,2.59,0,0,1-.65.81l0,0a7.1,7.1,0,0,1-1.07,1.06c-2.76,4.82,1.5,8.18,2,8.55l.43.32.11.53c.34,1.63.1,2.21-.22,2.6l-.43.52-.74,0-1.52.29c-1,.19-2.24.44-3.51.65h-.11c-.2,0-.24.08-.28.13a4.24,4.24,0,0,0-.11,2.56l.16.71-.48.55c-.53.6-1.79,1-3.77,1.2-7.2,1-9.91-1.28-11.46-3.35l-.17-.22c-.15-.17-.3-.37-.46-.59a7,7,0,0,0-3.59-2.7,8.05,8.05,0,0,0-5.12.08c.24,2.1.44,6.37-1.48,8.46-2.36,2.57-4,3.06-6.19,3.06l-.35,0c-.05.08-.1.17-.17.28a12,12,0,0,1-1.45,2l-2.48,2.8V229a11.43,11.43,0,0,0-1.18-3.48l-.1-.21.13,1.54h-1.54a13.17,13.17,0,0,1-2.73-.6c-.49,0-.69.29-1.25,1.69a9.56,9.56,0,0,1-1.4,2.62l-.37.45-.58.06c-.8.09-.82,2.71-.83,4a14.43,14.43,0,0,1-.1,2c-.39,2.4-1.6,2.93-3.79,3.89l-1,.45-.26.12h-.29c-1.9,0-3.7,1.56-4.89,2.56-.33.28-.62.52-.84.68-1.74,1.25-3.34.81-4.81.14l-.14-.08c-2.23-1.34-1.9-3.45-1.7-4.72a7.83,7.83,0,0,0,.1-.85l0-.2a5.18,5.18,0,0,0,.12-1.56,9.43,9.43,0,0,0-1.48.34l-1,.26-1,.24-.53-.9a7.24,7.24,0,0,1-.66-1.69,6.43,6.43,0,0,0-.87-2c-1.45-1.22-3.59-.91-6.65-.29l-.24,0-.24,0a9.82,9.82,0,0,0-8.35,2.38c-.72.72-.09,2.12.71,3.51l.14.24a8.62,8.62,0,0,1,.75,2.73,11.79,11.79,0,0,0,.6,2.5l.87,2.1-1.25-.08a2.67,2.67,0,0,1-.22,3.93,3.7,3.7,0,0,1-2.81.87,6.83,6.83,0,0,0-4.35,7.52c1.14,2.82.85,4.84-.86,6l-.25.17-.3.05a4,4,0,0,1-3.54-.81,6.53,6.53,0,0,0-.94-.58,1.78,1.78,0,0,1-.39,2.07.72.72,0,0,0-.15.21l-.38.82H89c-2,0-2.82,2.36-3.73,5.45l-.11.38a3.15,3.15,0,0,0,.77,3.44c.62.31,3.17,2.26,4.25,3.09l.65.5-1.14,8.53-.92.24A43.23,43.23,0,0,1,82,289.88c-2.79.22-3.76,1.34-5.51,3.38l-.75.86L72,298.4l1.32-5.53a14.78,14.78,0,0,0,.09-3l-2.11-.49.38-2-.63,0A3.39,3.39,0,0,1,68.36,289a3.58,3.58,0,0,0-1.71.52l-.93.85-.4-.38a17.4,17.4,0,0,0,.34,2.34,14.83,14.83,0,0,1,1.15,2.43l.08.31a6,6,0,0,1-2.34,5.74l-.3.24-.38.05a3.93,3.93,0,0,0-1.24.32,6,6,0,0,0,.34.78c.13.26.25.51.33.74l.16.41a6.34,6.34,0,0,1,.23,5c-.85,2.63-2.19,4.71-3.57,5.55A2.64,2.64,0,0,1,58.72,314.31Zm.65-6.52a4,4,0,0,1-.35,2.74,3.34,3.34,0,0,0-.2.56l.06.18A9.46,9.46,0,0,0,61,307.46a3.62,3.62,0,0,0-.16-3.08l-.18-.46c-.06-.16-.15-.33-.23-.51a3.59,3.59,0,0,1-.35-3.35,4,4,0,0,1,3-1.74,3.09,3.09,0,0,0,1-2.72,11,11,0,0,0-.83-1.78l-.22-.22-.09-.39c-1.23-5.3.14-5.93.72-6.21l.27-.1a3.87,3.87,0,0,1,1.61-.06,7.12,7.12,0,0,1,2.5-.69c.15,0,.55-.06.61-.45l.11-1.41,1.4.15,4.85.36-.47,2.46,1.5.35.08,1c0,.13,0,.4,0,.74a8.57,8.57,0,0,1,5.57-2.35,43.51,43.51,0,0,0,5.38-.78l.67-5c-1.4-1.07-2.87-2.16-3.19-2.33a5.77,5.77,0,0,1-2.16-6.78l.1-.35c.79-2.68,1.95-6.59,5.26-7.35a2.52,2.52,0,0,1,.09-2.45c.66-1,1.89-1.2,3.66-.71l.19.07a8.86,8.86,0,0,1,1.65,1c.46.33.61.43,1,.4.28-.42.16-1.27-.37-2.54L94,260a9.69,9.69,0,0,1,6.75-11.12l.86-.24.2.23.15-.08c-1.71-1.49-1.73-2.68-1.43-3.42a2,2,0,0,1,.86-1c-.12-.52-.2-1-.28-1.51a7.65,7.65,0,0,0-.43-1.82l-.12-.22c-.71-1.25-2.59-4.57-.24-6.92a12.64,12.64,0,0,1,10.52-3.22c3-.61,6.43-1.21,9,1.11l.19.21a8.94,8.94,0,0,1,1.38,3l0,.08c1.33-.37,2.79-.68,3.87.31s1,2.74.74,4.15c0,.34-.07.7-.13,1.06-.19,1.25-.16,1.52.29,1.81,1.2.53,1.49.4,1.89.1.18-.13.41-.33.68-.55,1.35-1.14,3.59-3,6.36-3.22l.8-.35c2-.87,2-.87,2.13-1.74a13.34,13.34,0,0,0,.07-1.62c0-2.22,0-5.82,2.68-6.63a9.74,9.74,0,0,0,.7-1.51c.59-1.47,1.39-3.48,4.07-3.48h.2l.2.06.56.16-.44-5.17,1.47-.07c.37,0,3.62-.13,5.35,1.48a3.37,3.37,0,0,1,1.1,2.44v.24l-.07.23a7.42,7.42,0,0,1-1.29,2.52l.17.42a2.85,2.85,0,0,1,2.43-.92c1.32,0,2.23-.1,4.1-2.14,1.09-1.18,1-4.93.62-7.21l-.18-1,.94-.47a11.42,11.42,0,0,1,8.33-.54,9.74,9.74,0,0,1,4.85,3.67c.12.16.22.3.33.43l.29.37c.7.93,2.32,3.11,8.86,2.24a12.55,12.55,0,0,0,1.47-.22,5.55,5.55,0,0,1,.76-3.64,3.11,3.11,0,0,1,2.25-1.29c1.22-.21,2.44-.45,3.39-.63l.27-.05c-2.31-2.22-4.76-6.64-1.65-11.72l.15-.24.23-.17a4.25,4.25,0,0,0,.82-.78,3.18,3.18,0,0,1,.35-.37l.07-.12c.64-1,2.14-3.5,4.39-2.89l.17.06a12.9,12.9,0,0,1,3.38,3.12l.94-.71c.47-1.73,1.88-6.25,4.17-7.59,2-1.16,7.46-3,9.35-2.57,1.26.31,8.7,4.19,11.11,5.46l13.32,4.61c1.17-1.78,3.21-3.7,5.65-3l.43.13.28.35c.15.18.3.4.46.63a7.5,7.5,0,0,0,.9,1.11l.1-.1a5.27,5.27,0,0,1,2.92-3.78c1.49-.55,3.21-.12,5.1,1.28a7.71,7.71,0,0,0,2.2.89c1.64.49,3.88,1.17,3.88,3.4a6.65,6.65,0,0,1-.11,1.19c0,.2-.07.49-.1.75a6.25,6.25,0,0,0,.6-.25,14,14,0,0,0,7.49-10.52,14.37,14.37,0,0,1,3.53-8.89,4.4,4.4,0,0,1-.93-2.38c-.07-1,.2-3,2.84-4.49l.63-.35.66.3a17.16,17.16,0,0,0,4,.85,8.19,8.19,0,0,1,2.4.63,6.6,6.6,0,0,1-.24-5.28l.06-.14a3.92,3.92,0,0,1,2.29-2.13,5.27,5.27,0,0,1,3.92.59l3.42-.3a7.82,7.82,0,0,1,.27-3.78l-.26-.44c-1-1.58-2.06-3.37-1.55-5.3a4.74,4.74,0,0,1,2.19-2.75,47.12,47.12,0,0,1,1.89-4.54c.29-.64.57-1.24.65-1.47a2.52,2.52,0,0,1,2.2-1.57,5.13,5.13,0,0,1,4.78,2.63,16,16,0,0,1,1.45,2.91,22.59,22.59,0,0,0,3.15-2.09,8.21,8.21,0,0,1,5.07-2l.57-.16a2.52,2.52,0,0,1,.24-1.94c.55-.91,1.6-1.28,3.12-1.12a10.26,10.26,0,0,0,3.21-.52,10.8,10.8,0,0,1,0-1.42,4.18,4.18,0,0,1,.07-.42,3.33,3.33,0,0,1-.67-1.85,3.44,3.44,0,0,1,1.34-2.74c1.39-1.26,3.32-3,5.38-2.43a4.24,4.24,0,0,1,2.67,3,13.52,13.52,0,0,0,2.09-1.82c.34-.63,1.63-2.33,3.35-2.37a2.63,2.63,0,0,1,2.36,1.4l.13.22,0,.25a6.82,6.82,0,0,0,.84,1.64,4.93,4.93,0,0,1,5-1.34l.45-.14a2.71,2.71,0,0,1-.52-.45,3,3,0,0,1-.65-2.55c0-2.12,0-3.83,1.13-4.41.13-.15.41-.51,1-1.31l-.33-3c-.76-.07-1.63-.16-2-.24-1.93-.43-2-4-2-4.11a24.86,24.86,0,0,0-.42-5.58,6.83,6.83,0,0,0-1.39-2.79,47.66,47.66,0,0,0-8.13-.75l-16.7-.13.09-9.6h1.88l.06-4.24h2.71a2.77,2.77,0,0,0,0-.31,7.53,7.53,0,0,1-.87-1.65l-7.36-.06.19-2.71a1.17,1.17,0,0,0-.67-.18,2.42,2.42,0,0,0-2.11,1l-.28.3a7.92,7.92,0,0,1-3.67,2c-.76.06-2.52.07-2.72.07h-1.42l.06-34.1L297,39.14l-5.42,2-3.54.72c-1,.37-2.28.86-3.53,1.34-1.95.75-3.78,1.47-4.69,1.72-1.51.42-36.41,12.09-54.65,18.2l-19.3,6.28,0,2.06c4.17-1.18,14.52-4,20.17-5,10.18-2,14.48,1.17,16.32,2.51a5,5,0,0,0,.46.32l1.26.53-.51,1.27A43.8,43.8,0,0,1,231.22,88c0,.21.14.53.22.78a8,8,0,0,1,.46,3.5l0,.22c-1.36,4.65-7.13,10.52-7.37,10.77l-.42.43-13.33-.17-.42,9-6.35.3v4.32l-4.48-.24v1.57l-1.3.1c-.11,0-2.24.18-4.13.12-2.11,5-5.23,6.44-6.54,6.86l-2.56,3.19h-17l.37-11-15.48-1.31L156,106l1.41-4.83-3.1-.44.16-1.86a9.76,9.76,0,0,1-3.52.64l-.65,0a5.84,5.84,0,0,0-.82.91l-.42.58h-2.69v1.31l-2-.05.3,1.68-3.55-.07v3h-4.78v1.4l-1.39.18v3.6l-4,1.06c-.57.43-1.2.88-1.75,1.21a3.5,3.5,0,0,1-2,3.11,4,4,0,0,1-3.35,2.86l-.16,0h-.17l-.87,0c-.05,2.75-.69,6.7-1.69,7.93l-.1.11a15.75,15.75,0,0,1-5,3.27,2.29,2.29,0,0,0-.12,2.65l.25.54-.21.55c-.22.58-.44,1.05-.64,1.47a4.59,4.59,0,0,0-.61,3V140a8.07,8.07,0,0,1-1.58,4,3.6,3.6,0,0,0-.66,1.28,47.64,47.64,0,0,0,.88,5.09l.42,1.18-1.11.6c-.88.44-.88.44-1.54,1.83l-.23.49a8.4,8.4,0,0,0-.54,1.51,2.85,2.85,0,0,1-2.21,2.47,17.92,17.92,0,0,1-1.89.25v1.09l-4.09.45c-.82.89-3,3.52-2.9,6.34a1,1,0,0,0,.35.31,2.74,2.74,0,0,1,1.35,2.21,4,4,0,0,0,.72,1.89l.18.27a4,4,0,0,1-.12,3.49,3,3,0,0,1-2.49,1.71,11.47,11.47,0,0,1-1.54,0c-1.95-.14-2.69,0-3.09.84a8.94,8.94,0,0,1-.61,1.61,1.89,1.89,0,0,0-.1,1.82l0,.16c.16.92.3,1.52.39,1.85l1.31,1.11.17,6.6-1.09.28a5.37,5.37,0,0,0-3.61,4.82l-.08.78-.7.35c-1.29.65-2.15,1.16-2.18,2.34v.35l-.17.3c-.43.76-.43.77,0,1.6l.39.71-.42.69c-.18.3-.47.73-.81,1.24a26.09,26.09,0,0,0-2,3.2l-.26.59-.49.16a7.61,7.61,0,0,0-.35,3.25l.09,1.33-3.3.44v13.25H74.58l-.85,1.39H69.87l-.36,3.93H66.28l-.42,2.06H60.11a8.55,8.55,0,0,1-5.44,2.87,5.43,5.43,0,0,1-2.1,1.78c-.52.28-.52.28-.57.56a15.82,15.82,0,0,0,0,4.08l.18,1.36-2.16.36a6.38,6.38,0,0,1-2,3.46,5.24,5.24,0,0,1-4,1.15c-.81,0-1.81,0-2.87,0-3.41-.08-9.12-.21-9.63,2l0,.12a6.26,6.26,0,0,1-3.08,3.41,13.15,13.15,0,0,0-1.14.78l-.58.45c-1.1.83-2,1.48-2,5a15.48,15.48,0,0,1-.65,4.78l-.31.75-2.07.3V268H15.89l-.42-3-7,.22v.1a3.32,3.32,0,0,1,1.26,3.24l0,.17A3.31,3.31,0,0,1,9,270l-.1.13a.14.14,0,0,1,0,0,6.34,6.34,0,0,0,.72.59,7.87,7.87,0,0,1,1,.85,33.84,33.84,0,0,0,3.79-.77l1.7-.44.07,1.75c0,.71.07,1.52.1,2.1.64.17,1.61.4,2.57.62a3.64,3.64,0,0,1,2.46-1.11,2.88,2.88,0,0,1,1.54.42l.12-.35a5.29,5.29,0,0,1,1.52-2.73c1.11-.77,3.77-1.8,5.89-.21.25.19.53.36.82.54a6.79,6.79,0,0,1,3.8,5.59l0,.24-.06.24a2.51,2.51,0,0,0,0,1.41,3.5,3.5,0,0,1-.06,2.1,8.35,8.35,0,0,1-2.21,2.89,9.51,9.51,0,0,0-1.24,1.37c-2.6,4.49-3,7.09-2.92,8.52.92,2.31,2.92,5.33,5.25,6.67a34.56,34.56,0,0,0,3.31,1.57c2.51,1.09,4.68,2,5.46,3.46a7.08,7.08,0,0,1,.45,1,12.19,12.19,0,0,1,4.89-1,4.34,4.34,0,0,1,2.55,1,3.1,3.1,0,0,1,3.85.17c1.17-.9,2.38-1.82,3.67-1.28A2.77,2.77,0,0,1,59.38,307.79Zm42.68-58.9Zm.67-2Zm46.45-25.53.2,2.36,1.07-.14a3.92,3.92,0,0,0,.7-1.33A.56.56,0,0,0,151,222,3.59,3.59,0,0,0,149.18,221.33ZM193.32,214h0Zm-.46-10.62h0ZM317.6,148.77Zm23.5-15.66h0Zm-5.49-16.82h0Z"/></svg>