<svg id="Layer_1" data-name="Layer 1" xmlns="http://www.w3.org/2000/svg" viewBox="0 0 350 350"><defs><style>.cls-1{fill:#999;}.cls-2{fill:#f90;}</style></defs><title>M</title><path class="cls-1" d="M201.83,338.67c1.69-1.22,4.86-3.81,6.08-3.38s2.17.9,3.81-.26.63-2.38.63-3.54,1.43-3,2.06-4.28-1.64-2.48.21-3.17,4.6-3.49,4.65-4.33-.32-2.22.85-2.22,2.75-1.27,3.91-2.11,3.54-1.64,6.24-4.86,2.11-6.77,2.11-8-2.11-2.48-3.65-3.49-1.06-4.86-.85-6.08,1.69-1.74,4.6-1.22A44.06,44.06,0,0,1,243.06,296c.85.74.74,4.6,1.22,5.55s1.32,4,3.28,3.12,1.8-5.5,1.8-5.5a11.28,11.28,0,0,0,2.38,2.85c1.85,1.74,3.49,1.16,6.18,3.54s1.16-.11,3.07.37,2.22,4.49,1.16,8.56,1,4,2.48,4.07c.53-1.53,3.65-5.13,6-3.54s2.43,6.55,2,8.09-1.8,3.07-.53,3.28,1.64-.42,1.85.48,5.5,2.59,7.56,2.64,3.59-2.48,3.65-3.22-1.74-3.17,1.37-2.7,3-1.74,3.75-2.75,3.14-2.11,6.66-2.48a3.16,3.16,0,0,0,2.59-2.46,2,2,0,0,1,.68-1l.4.05c-.27-.3-.55-.61-.81-.94a25.15,25.15,0,0,1,0-7.69c.71-3.17-.63-6.11-2.54-9.75a25.86,25.86,0,0,1-2.7-7.37c-.48-2-1.82-9-7.77-12.77s-10.7-6.11-12.05-10.78c.4-4.76-.16-9.28-2.3-11a37.8,37.8,0,0,0-10.31-5.07c-2.54-.63-5-2.54-9.36-2.62s-3.73,1.74-10.78-1c-4.12-1.82-6.26-1.66-10.39-2.62s-6.82-3.49-8.88-4.6-4.92-.24-7.45-2.3-6.26-4-5.79-8.72c1.27-4.12,4.2-12.37,4.12-15s-1-6.58-1.11-9.51.24-7.29,2.14-9.36,5.55-8,5.63-12.53-1.43-5.95-3.81-6.66-5.87-2.06-7-3.89-5-7.22-9.87-7.93-3.88,4.84-10.62,2.85a77,77,0,0,0-9-7.45c-2.46-1.59-4.28-5.71-6.66-6.9s-8.88-5.55-11.73-8.88-5.79-8.17-5.07-11.34,3.09-3.57,3.09-5.95-1.19-3.49-.79-6-2.06-6.66-3.33-9.2,1.66-4,1.51-6.18-2.7-4.84-1.11-7.29,2.3-3.17,1.27-5,3.09-2.7-2.85-9.2c-1-5.31-1.82-8.72-8.56-12.29a32.81,32.81,0,0,1-.87-7.37c.16-3.65.63-10.78-1.66-12.84s-6.26-2.14-9.44-2.78-15.86-7.14-17.84-8.72a16.19,16.19,0,0,0-8.72-3c-3.09-.08-5.63-5.15-6-7.53s-3.49-5.23-6-3C93.18,27.2,89.85,31,84.85,30.53c-3.65-.79-12.92-6.9-15.86-11.18a17.3,17.3,0,0,1-.48-6.42c.4-3.65-.79-6.26-2.54-5.87s-2.78,1.74-3.73,3.73S59,13,58.05,13.88s-2.3,5.95-3.89,9.51-4.44,10.07-4.68,12.37,1.35,6.18,2,8.72S55,52.1,57.74,53.37c.87,3.81,2.62,13.24,2.3,16.81s-1.9,5.71-3.25,6.26-2.38,3.17-1,5.15,1.43,4.12,1.74,5.47,2.06,5.55,3.65,6.26a22,22,0,0,0,7,2.14c2.54.16,4.84,1.19,6.5.32s3.17.87,3.81,1.74,4.12,1.9,5.63,2.54,3.73,1.43,3.65,3-1,6.82-4.52,10.07-3.41,4.44-3.17,7.29-2,5.39-2.93,8.56.24,10.39.48,11.42,3.09,4.12,3.88,4.76,6.9,3.81,6.42,5.95-3.81,4.28-4.6,4.44-.48,2.78-2.06,3.09-3.09-.32-3.41.32S74.63,171.19,79,177.22c5.31,5.79,12.92,6.42,15.86,10.39s3.65,3.65,5.95,13.4c2.62,1.9,2.38,2.54,10.78,2.62s3.81,6.74,11.58,12.92,9.83,4.2,11.81,9.51,1.35,10.23,3.73,11.89,3.89,2.14,4.92,3.33,3.57,4.52,5.15,5.15,6.66,3.41,1.82,4.36c-4.52-1-10.7-2.14-13.88-.08s-3.88,8-2.62,9.67,4.44,4,.71,5.71-12.29,4.36-14.27,5-5.31,3.88-8.64,3.88c2.22,1.43,8.4,2.38,10.62,7.93s1.82,10.94,4.68,12.21,8.25,7,14,9.67,16.33,9.91,17.68,12.37a91.72,91.72,0,0,1,5.07,10.07c1.11,3,2.7,4.76,9.12,5.39s17.68,2.22,20.46,10.07l.1.29.91-.5A59.11,59.11,0,0,0,201.83,338.67Z"/><path class="cls-2" d="M192.79,345l-.65-1.86c-2.37-6.72-12.13-8.43-19.26-9.14-7-.69-9-2.75-10.31-6.31a78.91,78.91,0,0,0-4.45-8.9l-.54-1c-1-1.86-10.87-8.85-17-11.77a50.41,50.41,0,0,1-9.41-6.41,28.64,28.64,0,0,0-4.52-3.25c-2.42-1.07-3-3.88-3.76-7.12a37.17,37.17,0,0,0-1.66-5.86c-1.44-3.59-4.82-5-7.54-6.08a16,16,0,0,1-2.53-1.19l-4.06-2.61h4.82c1.75,0,3.66-1.21,5.35-2.28a13.66,13.66,0,0,1,2.86-1.54l1-.31c3-.93,9.92-3.12,13.11-4.61.83-.39.94-.67.94-.67.07-.34-.94-1.47-1.32-1.89s-.61-.69-.85-1c-.84-1.1-1.1-3.1-.71-5.37.23-1.34,1.06-4.65,3.68-6.35,3.44-2.23,9.33-1.29,14.64-.18l.27-.07a10.92,10.92,0,0,0-2.62-1.52c-1.52-.61-3.26-2.61-5.07-4.79l-.63-.76a8.09,8.09,0,0,0-2.06-1.46c-.7-.41-1.58-.92-2.6-1.63-1.87-1.31-2.3-3.76-2.79-6.59a32.55,32.55,0,0,0-1.45-6c-1-2.59-1.73-3-4-4.16a40.45,40.45,0,0,1-7.36-4.74,16.83,16.83,0,0,1-5.75-8.66c-1-2.77-1.34-3.92-5-4-7.56-.07-8.62-.61-10.83-2.31l-.77-.58-.43-.31-.12-.51c-1.88-8-2.59-8.87-4.48-11.28-.36-.47-.77-1-1.23-1.6-1.16-1.57-3.39-2.62-6-3.82-3.18-1.49-6.79-3.17-9.79-6.45l-.1-.13c-4.83-6.68-1.72-18.88-1.31-19.7.6-1.2,1.92-1.1,2.8-1a6.1,6.1,0,0,0,1.6,0,4.06,4.06,0,0,0,.35-1c.21-.75.54-1.89,1.71-2.13.69-.22,3.2-2,3.49-3.36-.07-.3-.77-1.31-4.79-3.79a13,13,0,0,1-1.13-.74c-.62-.5-4-3.91-4.38-5.55,0-.08-1.62-8.26-.45-12.14a23.51,23.51,0,0,1,1.5-3.58c.8-1.65,1.5-3.07,1.38-4.46v-.13c-.26-3.15-.22-4.82,3.64-8.33,3.1-2.82,4-7.52,4.06-9.09,0-.47-1.83-1.24-2.43-1.49l-.35-.14c-.39-.16-.91-.35-1.49-.56-2.5-.91-4.07-1.53-4.74-2.45C77,98,76,96.68,75.28,97c-1.53.8-3.26.48-4.93.18A19.62,19.62,0,0,0,68,96.88a23,23,0,0,1-7.47-2.26c-2.46-1.11-4.27-6.5-4.45-7.23-.08-.33-.14-.7-.21-1.1a9.4,9.4,0,0,0-1.33-3.9,5.2,5.2,0,0,1-.65-4.44,4.32,4.32,0,0,1,2.31-2.82c.77-.32,2.1-2,2.38-5.08S57.42,58.53,56.5,54.31c-3.13-1.92-5.79-7-6.4-9.47-.17-.69-.42-1.5-.69-2.36-.71-2.31-1.52-4.92-1.33-6.85.24-2.31,2.56-7.77,4.79-12.8.63-1.43,1.25-3.16,1.79-4.7,1.06-3,1.65-4.57,2.43-5.29a6.55,6.55,0,0,1,1.73-1A4,4,0,0,0,61,10.18c.91-1.9,2.19-3.93,4.69-4.5a2.87,2.87,0,0,1,2.61.69c1.36,1.21,2,3.72,1.65,6.71a16.28,16.28,0,0,0,.37,5.65c2.89,4,11.6,9.64,14.78,10.39,4.15.36,7-2.81,8.79-5.23l.2-.22a4.29,4.29,0,0,1,4.43-.88,6.41,6.41,0,0,1,3.93,4.73c.35,2.09,2.61,6.3,4.66,6.35a17.73,17.73,0,0,1,9.57,3.32c1.91,1.53,14.32,7.86,17.23,8.44.71.14,1.47.26,2.24.37,2.71.41,5.78.87,7.87,2.74,2.46,2.21,2.42,7.78,2.16,13.3l0,.66a23,23,0,0,0,.65,6l.09.43c6.41,3.57,7.53,7.16,8.59,12.54,4,4.52,3.67,6.79,2.94,8.73a3.13,3.13,0,0,0-.16.49c1.35,2.33.41,3.75-.88,5.72l-.44.67c-.59.91-.21,2,.47,3.57a9.3,9.3,0,0,1,.86,2.85,5.57,5.57,0,0,1-1.09,3.32c-.7,1.16-.92,1.63-.56,2.34.19.38.4.79.63,1.23,1.44,2.76,3.24,6.21,2.83,8.82a5.82,5.82,0,0,0,.3,2.8,10.27,10.27,0,0,1,.51,3,5.19,5.19,0,0,1-1.63,3.61,5.65,5.65,0,0,0-1.5,2.65c-.48,2.15,1.43,6.21,4.77,10.1,2.65,3.09,8.9,7.34,11.29,8.54a12.92,12.92,0,0,1,3.92,3.88,13.93,13.93,0,0,0,2.87,3.1,77.6,77.6,0,0,1,9,7.37c2.72.73,3.57,0,4.72-1.08a5.89,5.89,0,0,1,5.39-1.9c5.58.81,9.73,6.77,10.87,8.58.68,1.08,3.06,2.33,6.23,3.28,3.46,1,4.9,3.44,4.82,8-.09,5-4,11.24-6,13.46-1.45,1.57-1.93,5.31-1.77,8.32.07,1.36.32,3,.55,4.6a45.94,45.94,0,0,1,.56,4.95c.06,2.13-1.34,6.64-3.18,12.32-.36,1.11-.69,2.13-1,3-.26,3.13,1.86,4.73,4.1,6.43.41.31.81.61,1.18.92a7,7,0,0,0,3.86,1.29,9.24,9.24,0,0,1,3.37.86c.64.35,1.32.8,2,1.28a19.24,19.24,0,0,0,6.5,3.18c1.28.29,2.35.48,3.39.66a26.8,26.8,0,0,1,7.25,2c4.33,1.65,5.38,1.44,6.85,1.16a14.55,14.55,0,0,1,3.39-.33,18.54,18.54,0,0,1,7.31,1.79,17,17,0,0,0,2.37.87,39.06,39.06,0,0,1,10.86,5.35c3,2.48,3.11,8.44,2.84,12,1.08,3.33,4.35,5.36,8.85,8.15.81.51,1.66,1,2.53,1.59,6.13,3.92,7.71,10.73,8.31,13.3l.2.83a23.79,23.79,0,0,0,2.46,6.56c2,3.85,3.48,7.09,2.66,10.72a22.63,22.63,0,0,0,0,6.79l.51.57,2.65,2.89-3.42-.47a4.5,4.5,0,0,1-3.78,3.39c-3.49.37-5.33,1.45-5.67,1.92a3.72,3.72,0,0,0-.27.57c-.44,1.06-1.36,3.26-4.84,2.74h0l0,.06a3.33,3.33,0,0,1,.27,1.34c-.1,1.37-2.13,4.54-5,4.54h-.1c-1.18,0-7-1.17-8.56-3.08a4.7,4.7,0,0,1-1-.06,2,2,0,0,1-1.5-1c-.51-1,0-2,.42-2.91a9.37,9.37,0,0,0,.49-1.16c.4-1.29.17-5.43-1.4-6.5a.94.94,0,0,0-.92-.07A6,6,0,0,0,266,319l-.34,1-1.17,0a4,4,0,0,1-3.37-1.3c-.76-1-.86-2.45-.32-4.54.8-3.07.64-5.64.08-6.59l-.07-.11a1.66,1.66,0,0,1-1,.57c-.88.14-1.62-.35-2.79-1.38a8.81,8.81,0,0,0-3.16-1.82,8.15,8.15,0,0,1-3.06-1.76l-.35-.34a4.54,4.54,0,0,1-2.29,3.25,2.88,2.88,0,0,1-2.26.06c-1.47-.59-2.17-2.26-2.64-3.37-.08-.19-.15-.35-.21-.48a8.63,8.63,0,0,1-.54-2.7,13.3,13.3,0,0,0-.42-2.47,45.33,45.33,0,0,0-9.82-4c-2.4-.44-2.94,0-2.95.05-.43,2.48-.15,4.42.23,4.66l.48.31c1.78,1.15,3.81,2.45,3.81,4.36,0,.14,0,.32,0,.52a11.49,11.49,0,0,1-2.46,8.43,18.44,18.44,0,0,1-5.54,4.52c-.39.22-.72.41-.95.57l-.37.27a10,10,0,0,1-3.82,2.06c0,.07,0,.14,0,.2,0,.26,0,.51,0,.74-.1,1.66-3.18,4.44-5.15,5.39a2.94,2.94,0,0,1,.15,2.64c-.24.49-.55,1-.86,1.53a8.12,8.12,0,0,0-1.06,2.14,3.42,3.42,0,0,0,.11.64,3.42,3.42,0,0,1-1.35,4.05,4.56,4.56,0,0,1-4.84.54l-.14,0c-.8.12-3.05,1.79-4,2.52l-.87.64-.08.05a60.1,60.1,0,0,1-7.48,3.88ZM116,275.27c2.76,1.19,6.19,3.06,7.81,7.11a39.44,39.44,0,0,1,1.8,6.3c.55,2.5,1,4.65,2.14,5.14a28.24,28.24,0,0,1,5.14,3.63,48.24,48.24,0,0,0,8.84,6.06c5.55,2.62,16.7,10,18.32,13l.54,1a80.55,80.55,0,0,1,4.63,9.29c.85,2.31,1.86,3.87,7.93,4.47,4.81.47,17.21,1.7,21.15,9.81a59.06,59.06,0,0,0,6.73-3.52l.79-.58c2.9-2.15,4.92-3.52,6.54-3l.27.1c1,.35,1.33.47,2.25-.18.41-.29.41-.3.23-1.1a5.51,5.51,0,0,1-.19-1.29,7.73,7.73,0,0,1,1.47-3.61c.27-.44.52-.86.7-1.21a3.85,3.85,0,0,0-.2-.43,2.58,2.58,0,0,1-.3-2.19,2.43,2.43,0,0,1,1.53-1.34,10.3,10.3,0,0,0,3.73-3.23c0-.1,0-.21,0-.32a3.13,3.13,0,0,1,.64-2.45,2.18,2.18,0,0,1,1.63-.65,8.29,8.29,0,0,0,2.69-1.56l.38-.28a13,13,0,0,1,1.21-.75,15.7,15.7,0,0,0,4.77-3.88,8.68,8.68,0,0,0,1.81-6.47c0-.25,0-.47,0-.65-.14-.46-1.74-1.49-2.51-2l-.5-.32c-2.25-1.47-1.77-5.74-1.47-7.51a2.83,2.83,0,0,1,1.19-1.87c1.08-.76,2.74-.92,5.05-.5,3.05.56,10.13,3.68,11.25,4.66.85.75,1.06,2.1,1.29,4.24a12.24,12.24,0,0,0,.27,1.77c.07.15.17.37.28.63.47,1.12.83,1.73,1.08,1.84l.08,0c.54-.23,1-2.29.94-4.15l-.21-6.77,2.91,6.11h0A10.8,10.8,0,0,0,252.7,301a5.52,5.52,0,0,0,2.11,1.17,11.63,11.63,0,0,1,4,2.34l.42.36a2.33,2.33,0,0,1,2.06-.3,3.16,3.16,0,0,1,2,1.54c1.28,2.16,1,5.94.23,8.75-.45,1.72-.16,2.12-.16,2.13a.8.8,0,0,0,.42.12,8.72,8.72,0,0,1,4.21-3.66,3.75,3.75,0,0,1,3.41.42c3,2,3.12,7.71,2.51,9.68a10.72,10.72,0,0,1-.59,1.43,1.74,1.74,0,0,1,1.83,1.24,19,19,0,0,0,6.32,1.89h0c.94,0,1.91-1.28,2.14-1.87l-.09-.26a3,3,0,0,1,.14-3c.89-1.07,2.47-.83,3-.75,1.28.2,1.39-.06,1.79-1a5.44,5.44,0,0,1,.61-1.16c1.1-1.5,4-2.67,7.65-3.05.92-.1,1.27-1,1.37-1.42a3.45,3.45,0,0,1,.37-.87l-.08-.1-.06-.37a26.33,26.33,0,0,1,0-8.22c.61-2.7-.62-5.35-2.41-8.79a26.53,26.53,0,0,1-2.7-7.22l-.2-.83c-.52-2.26-1.92-8.25-7.07-11.55-.86-.55-1.7-1.07-2.5-1.57-4.94-3.07-8.85-5.49-10.15-10l-.07-.25,0-.26c.4-4.82-.28-8.58-1.78-9.8a36.54,36.54,0,0,0-9.76-4.8,19.31,19.31,0,0,1-2.78-1,15.7,15.7,0,0,0-6.26-1.57,12,12,0,0,0-2.8.28c-2.05.4-3.56.55-8.47-1.32a24.35,24.35,0,0,0-6.65-1.87c-1-.18-2.2-.38-3.55-.69a21.6,21.6,0,0,1-7.44-3.59c-.68-.46-1.27-.86-1.79-1.14a7,7,0,0,0-2.37-.55,9.59,9.59,0,0,1-5.3-1.9c-.35-.28-.73-.57-1.11-.86-2.4-1.82-5.69-4.31-5.2-9.11l.06-.27c.28-.9.63-2,1-3.17,1.23-3.8,3.1-9.55,3-11.36a44.51,44.51,0,0,0-.53-4.62c-.24-1.66-.5-3.37-.58-4.86-.19-3.5.37-8.07,2.51-10.39,1.85-2,5.18-7.59,5.25-11.59s-1.22-4.81-2.8-5.28c-2.8-.84-6.44-2.3-7.81-4.49-2-3.19-5.39-6.78-8.87-7.28-1.52-.22-2.11.31-3.08,1.19-1.37,1.24-3.23,2.94-7.75,1.62l-.33-.1-.25-.23a75.86,75.86,0,0,0-8.83-7.29,15.75,15.75,0,0,1-3.58-3.75,11.33,11.33,0,0,0-2.94-3.07c-2.63-1.32-9.26-5.82-12.18-9.23-1.53-1.78-6.42-7.95-5.38-12.57A8.41,8.41,0,0,1,157.1,127c.65-.76.94-1.12.94-1.76a7.59,7.59,0,0,0-.4-2.23,8.53,8.53,0,0,1-.38-4c.26-1.69-1.42-4.93-2.54-7.07-.24-.45-.46-.88-.66-1.27-1.09-2.17,0-3.92.67-5.08a3.37,3.37,0,0,0,.69-1.64,7.38,7.38,0,0,0-.65-2c-.71-1.68-1.68-4-.24-6.21L155,95c1.28-1.95,1.25-2,.77-2.84a3.09,3.09,0,0,1,0-2.82c.36-1,.86-2.28-2.65-6.12l-.27-.29-.08-.39c-1-5-1.55-8-7.83-11.31l-.75-.4V70c0-.11-.08-.38-.16-.74a25.94,25.94,0,0,1-.71-6.69l0-.67c.13-2.86.44-9.56-1.23-11.06-1.45-1.3-4-1.68-6.4-2-.81-.12-1.61-.24-2.37-.4-3.36-.67-16.3-7.28-18.45-9a14.81,14.81,0,0,0-7.87-2.7c-4.19-.11-7-6.28-7.39-8.72a3.63,3.63,0,0,0-2.09-2.53,1.46,1.46,0,0,0-1.5.26c-1.37,1.84-5.21,6.8-11.32,6.22l-.17,0C80.44,31,70.92,24.67,67.83,20.15L67.71,20l-.06-.2a18.69,18.69,0,0,1-.53-7c.3-2.73-.45-4.23-.79-4.34-1.11.25-1.89,1.08-2.79,3a6.47,6.47,0,0,1-3.52,3,5.13,5.13,0,0,0-1,.53,26.77,26.77,0,0,0-1.67,4.15c-.56,1.58-1.2,3.37-1.88,4.9-1.07,2.41-4.34,9.76-4.56,11.94-.14,1.35.61,3.77,1.21,5.72.28.9.54,1.75.73,2.51.61,2.42,3.3,6.94,5.48,7.93l.64.29.16.68c.87,3.8,2.67,13.43,2.33,17.25-.39,4.41-2.47,6.77-4.12,7.45a1.69,1.69,0,0,0-.67,1,2.41,2.41,0,0,0,.27,2,12.06,12.06,0,0,1,1.77,5c.06.34.11.66.18.93.36,1.52,2,4.92,2.85,5.3a21,21,0,0,0,6.48,2,22.07,22.07,0,0,1,2.65.38c1.31.24,2.44.45,3.1.1.88-.46,3.18-1.17,5.61,2.17A19.74,19.74,0,0,0,83,98.15c.62.23,1.2.44,1.62.61l.33.14c1.71.71,4.3,1.78,4.18,4.25s-1.31,7.7-5,11c-3,2.73-2.94,3.42-2.72,6v.13c.18,2.17-.75,4.08-1.66,5.94a21.32,21.32,0,0,0-1.33,3.15c-.81,2.7.23,9.51.5,10.69a21.1,21.1,0,0,0,3.39,4c.14.11.45.29.85.54,3.38,2.08,6.63,4.32,6.07,6.82s-3.6,4.67-5.16,5.34l-.09.3c-.26.91-.74,2.62-2.52,3a8.68,8.68,0,0,1-2.35.08h-.21c-.6,2.36-2.22,11.42,1.17,16.2,2.62,2.82,5.93,4.37,8.85,5.74s5.45,2.55,7,4.7c.44.59.83,1.09,1.18,1.54,2.17,2.77,3.05,4.17,4.89,11.88l.4.31c1.66,1.27,2.16,1.66,9.14,1.72,5.62.05,6.63,3,7.61,5.87a14,14,0,0,0,4.83,7.36,37.92,37.92,0,0,0,6.9,4.44c2.41,1.25,4,2.07,5.36,5.69a34.78,34.78,0,0,1,1.59,6.47c.38,2.21.72,4.12,1.62,4.76s1.71,1.1,2.4,1.51a10.24,10.24,0,0,1,2.77,2.06l.67.8c.88,1.07,3,3.57,3.94,4s5,2.12,4.75,4.59c-.12,1.25-1.18,2.08-3.17,2.47l-.28.06-.28-.06c-3.49-.73-10-2.1-12.81-.28a6.67,6.67,0,0,0-2.43,4.46,5.19,5.19,0,0,0,.17,3.16c.2.26.45.53.71.82,1,1.16,2.35,2.61,2,4.35a4,4,0,0,1-2.51,2.68c-3.36,1.57-10.44,3.8-13.46,4.75l-1,.31a12.63,12.63,0,0,0-2.21,1.23A30.86,30.86,0,0,1,116,275.27Zm167.65,51.11Zm-65.78-7h0Z"/></svg>