<svg id="Layer_2" data-name="Layer 2" xmlns="http://www.w3.org/2000/svg" viewBox="0 0 350 350"><defs><style>.cls-1{fill:#999;}.cls-2{fill:#f90;}</style></defs><title>M_</title><path class="cls-1" d="M247.11,258.43a2.53,2.53,0,0,1,.24-.32l-.51,0a4.37,4.37,0,0,1-2.29-.92c-1.26-.81-1.91-1.11-2.83-.56a3.75,3.75,0,0,1,.16.93c.06,1-.71,1.68-1.39,2.25-.17.14-.43.37-.61.55.49,0,.95-.13,1.39-.21a4.09,4.09,0,0,1,3.3.3c.88.62,1.41,1.77,1.75,3.83a2.28,2.28,0,0,0,1.86.74c.12,0,.17-.36.12-.8C247.28,262.76,246,260.12,247.11,258.43Z"/><path class="cls-2" d="M248,266.48a3.65,3.65,0,0,1-2.86-1.48l-.13-.22,0-.25c-.35-2.11-.84-2.67-1.17-2.91-.51-.36-1.18-.26-2.23-.06-.45.08-1,.18-1.52.23l-3.81.37,2.66-2.76c.21-.22.51-.48.71-.65.54-.46.92-.8.9-1.09a2.4,2.4,0,0,0-.09-.58L240,256l1-.58c1.77-1.06,3.18-.15,4.32.58a3.41,3.41,0,0,0,1.53.7l.42,0,3.42-.23L248.41,259l-.11.14c-.55.89.17,2.81,1.16,4.25l.2.29,0,.35c.18,1.65-.62,2.15-1.11,2.31A2.22,2.22,0,0,1,248,266.48Zm0-2.83Zm-2.71-4.44.07,0v0Zm-2.08-.66a4.39,4.39,0,0,1,1.26.25l-.66-.41-.51-.32A3.14,3.14,0,0,1,243.17,258.55Z"/><path class="cls-1" d="M70.37,88.77a3.19,3.19,0,0,1-.47-.45c0,.09,0,.19,0,.28A3.16,3.16,0,0,1,70.37,88.77Z"/><path class="cls-2" d="M80.64,95l-10.85-4.9L69.53,90l-1.08-.3,0-1.12c0-.06,0-.12,0-.18l-.17-4.11L71,87.4a1.73,1.73,0,0,0,.26.25Z"/><path class="cls-1" d="M243.84,264.82c-.31-1.91-.66-2.24-.73-2.29a3.59,3.59,0,0,0-1.38.12,14.44,14.44,0,0,1-2.43.29h-.41l-.34-.24a2.77,2.77,0,0,1-1.36-2.12c-.06-1.25.94-2.09,1.67-2.71l.34-.3c-.61-.14-1.77-.28-2.31-.34-1.66.09-2.16,2.12-2.42,5.35l0,.34a5.37,5.37,0,0,1-1,2.35,1.21,1.21,0,0,0,.4.72c.81.7,2.6.6,3.17.51l7-1.15a2.43,2.43,0,0,1-.15-.39Z"/><path class="cls-2" d="M236,268a4.86,4.86,0,0,1-3.12-.92,2.66,2.66,0,0,1-.86-1.5l-.14-.67.44-.53a3.92,3.92,0,0,0,.69-1.67l0-.26c.2-2.38.53-6.43,3.75-6.61H237a23.45,23.45,0,0,1,2.48.37l2.62.62-2,1.81-.37.32c-.68.58-1.2,1.06-1.17,1.57a1.44,1.44,0,0,0,.72,1,13.19,13.19,0,0,0,2.14-.27c1.07-.2,1.83-.34,2.47.12s1,1.38,1.3,3.18l0,.11s0,0,0,.08l.85,1.72-8.94,1.46A8.08,8.08,0,0,1,236,268Zm-.81-2.91a5.22,5.22,0,0,0,1.57,0l5.52-.9-.05-.22-.22,0a15.94,15.94,0,0,1-2.69.32l-.88,0-.72-.5A4.53,4.53,0,0,1,236,261.7c0,.31-.07.65-.1,1l-.06.52A8.49,8.49,0,0,1,235.2,265.1Z"/><path class="cls-1" d="M301.38,215.92l-.06.11a6.39,6.39,0,0,1-4.12,2.92,5.31,5.31,0,0,1-4.11-.82c-2.57-1.83-3.08-4.31-1.82-9a6.76,6.76,0,0,0-2.42-.76,4.71,4.71,0,0,1-2.37-.86,4.32,4.32,0,0,1,1.7-6.61,9.31,9.31,0,0,1,8,1.41,2.63,2.63,0,0,0,.42.28v-4.49h-.06v2.32h-6.9V192h2.68v-3.75h2v-4.11h1.14l-8.23-8.5a3.72,3.72,0,0,0-2-.13l-1,2.33-1.25-2.22c-.89-1.49-1.84-4.87-2.93-8.78-1-3.58-2.67-9.56-3.62-10.32l-1.09-.87.95-1c2-2,5-5,7.14-7h-2.77v-1.43h-6.25v-4.23h2.23v-4h7.58V134h7.47c.88-2.17,3.3-8.45,3.51-12.1a.82.82,0,0,0-.39-.57,4.24,4.24,0,0,0-3.66-.11c-3,1-10.34,4.23-11.43,4.71-.46.38-2.79,2.56-2.16,7.4l.12.92-.84.39c-1.45.68-7.74.42-11.42.2l-.51,6.75-.29.06c-.35-4.43-1.86-9.81-5.62-11.46-2.19-1-5.05.23-7.14.86a87.63,87.63,0,0,0-9.28,3.41c-.28-3.57-.86-7.52-.34-10.87q-.66-2.51,2-3.78a18.23,18.23,0,0,0,2.14.06,4.94,4.94,0,0,0,2.43-.91,1.35,1.35,0,0,0-.68-2.5,29.68,29.68,0,0,1-10.85-2.76c-2.28-1.12-3.23-2-3-4.72a9.51,9.51,0,0,1,.45-2c.58-3.4,2-7.3,4.56-9.76.3-.48.61-1,.93-1.42,0,.22,0,.43,0,.65a8.36,8.36,0,0,1,2.18-1.18c5-1.77,8.31,1.92,11.79,5a12.78,12.78,0,0,1,.17-2.89,7.51,7.51,0,0,0,0-1.84,3,3,0,0,1,.55-2.38,3.11,3.11,0,0,1,2.35-.76c1,0,1.71,0,2.4.07a20.57,20.57,0,0,0,3.62-.06c2.38-.25,10-1.78,12.46-2.3A9.59,9.59,0,0,0,280.23,88a1.34,1.34,0,0,0,.36-.39c0-.08-.22-.47-.38-.75l-.29-.55c-.76-1.52.06-3.59.61-5,.08-.21.19-.48.24-.62,0-1.92-.5-8-1.6-9.37-1.27-1.63-3.71-1.83-5.7-1.83a3.18,3.18,0,0,1-2.79-1.25c-.74-1.05-.75-2.57,0-4.64.59-1.64.43-8.39.2-12.26l-.06-1L276,49l.42-4.4,4.27-3.28c-2-4.17-1.93-4.6-1.58-5.14,0-.09.06-.21.1-.35a13.15,13.15,0,0,1,1.06-2.84,5.26,5.26,0,0,1,4.51-3,1.57,1.57,0,0,0,.65-.9.81.81,0,0,0-.2-.87c-.81-.81-3.07-.83-4-.71l-.87.11-.41-.77c-.78-1.48-2-3.72-2.52-4.74-3.79-.15-6.15-1.91-7-5.25a5,5,0,0,1,.73-6.3c.32-.32.23-1.39,0-2.28l-4.61-.84,0-.25-.39,0L265.93,7a8.67,8.67,0,0,1-2.64,5.35,4.23,4.23,0,0,0-.65,1.12,1.84,1.84,0,0,1-1.05,1.17,1.92,1.92,0,0,1-1.56-.23c-.4-.21-.63-.28-.76-.22s-.73.41-1.38,2.6l-.08.26-.17.21a4.39,4.39,0,0,1-3.73,1.8,2.87,2.87,0,0,1-1.49-.67l-.07,1.35-.69.32c-1.08.51-4.77,2.07-6.68.92l-.16-.1a4.45,4.45,0,0,1-1.7,2.8,15.6,15.6,0,0,1-4.54,2.48,17.8,17.8,0,0,1-6.45.86c-1.2-.11-1.84-.22-2.35-.31a9.43,9.43,0,0,0-1.28-.16c-1.79-.1-2.26-2.29-2.71-4.42l-.06-.3a2.68,2.68,0,0,1-2.53.65c-1-.41-1.42-1.6-1.68-2.83a1.19,1.19,0,0,0-.11-.29,5.81,5.81,0,0,0-1.56.86l-.12.08a14.18,14.18,0,0,1-1.63.87,12.26,12.26,0,0,0-2.71,1.59,5.28,5.28,0,0,1-1.57,4,7.6,7.6,0,0,1-1.53,1,1.67,1.67,0,0,1,.63.86,2.66,2.66,0,0,1-.68,2.39,13.08,13.08,0,0,0-1.05,1.77c-.54,1.12-1.27,2.44-1.8,3.39,2,.88,4.39,2.17,4.91,3.4a2.83,2.83,0,0,1,0,2.3,3.52,3.52,0,0,1-2.2,1.79,6.14,6.14,0,0,0-2,1.79,1.57,1.57,0,0,1-.26,1.17,2.09,2.09,0,0,1-1.51.71c-.1,0-.24.06-.4.11-1,.28-2.59.74-3.65-.31s-.63-2.63-.46-3.25.19-1.33.23-2a7.22,7.22,0,0,0-1.27,2.23C202,46.35,196.09,47,196,47h.11a23.55,23.55,0,0,0-3.26,1.49,3.38,3.38,0,0,1-.67,2.57,3.48,3.48,0,0,1-2.68,1.17l-.73.23c-4.08,1.33-8.15,2.33-10.32.65a3.42,3.42,0,0,1-1.25-3.1A51.4,51.4,0,0,1,179,40l.14-.55a2.07,2.07,0,0,0-1.27-.57,2.31,2.31,0,0,0-.1,1c.11,2.65-.42,7.08-1.92,8.65a2.12,2.12,0,0,1-1.56.71c-.33,0-1.22,0-3.7-1.44-.08.47-.14.79-.14.82l-.18.93-.94.09a5,5,0,0,0-3.14,1.48,2.19,2.19,0,0,0-.3,1.82l.26,1.29-1.3.21a62.39,62.39,0,0,1-10.18.91,16,16,0,0,1-1.8,7.22c-1.09,1.71-3.42,1.09-4.88.67a2.31,2.31,0,0,1-1.41,1.31c-1.49.47-3-.76-4.23-2.06a6.69,6.69,0,0,0-1.45,1.22,4.71,4.71,0,0,0,1.54.64c1,.28,1.87.5,2.63.7,3.2.82,5,1.28,6.26,3.24l.33.49c.68,1,1.22,1.83.85,2.77s-1.28,1.2-2.27,1.44a12.15,12.15,0,0,1-1.66.27l-.37,0s0,.11,0,.18a5.24,5.24,0,0,1-.63,2,1.41,1.41,0,0,0-.23.84,10.79,10.79,0,0,0,.09,1.19,6.47,6.47,0,0,1-.25,3.3c-.05.13-.11.28-.16.45-.51,1.43-1.7,4.78-6,4.15a36.79,36.79,0,0,1-5.41-1.26c.35,2.34.86,6,.9,7.87a20.13,20.13,0,0,1-1.37,7.22c-.46.8-.67,1.18-11.8,0a2.26,2.26,0,0,1-1.38.47c-1.6,0-2.58-1.78-2.93-2.42-1.07-1.68-1.38-3.33-.86-4.53a2.3,2.3,0,0,1,1.73-1.38c.07,0,.43-.27,1.12-1.64a3.72,3.72,0,0,1,.19-.36l0-.08c-1.43-.44-5.39-1.25-8.78-1.86L110,87l1.72-1.72.07-.1-.14-.08c-1.28-.64-2.14-.69-3.33.8l-.4.5-.64,0c-1.13,0-6.16-1.06-7.28-2.74A6.17,6.17,0,0,1,99,83.7H98.3c.76.82,1.39,1.48,1.59,1.63A3.27,3.27,0,0,1,101.79,88a2.83,2.83,0,0,1-1.6,2.85,5.51,5.51,0,0,1-2.41.62h-.45L97,91.18c-2.16-1.77-4.75-3.76-6-4.6,0,.13,0,.24,0,.34,0,1.4-1.45,1.67-2.32,1.84a4.34,4.34,0,0,0-1.2.34c-.53.44-3,2-4.5,1a1.84,1.84,0,0,1-.38-.34,3.46,3.46,0,0,0-.29.49,1.67,1.67,0,0,1-2,1.16c-.35-.08-1.93-.59-1.77-3.44a2.26,2.26,0,0,1-1.39-.45,2.86,2.86,0,0,1-.9-2.32c0-.1,0-.19,0-.28a3,3,0,0,0-.06-.41l-.42.17.87,3-.71.52c-.23.17-2.33,1.66-4.3,1.18a3.13,3.13,0,0,1-.58-.2,2.86,2.86,0,0,1,.31.28,3.37,3.37,0,0,1,1,3.22A2.77,2.77,0,0,1,70,94.45a53.1,53.1,0,0,1-6.08.76l-.48,0-1.35-1A30.39,30.39,0,0,0,60.74,98a1.51,1.51,0,0,0,.55,1.74,22,22,0,0,1,2.78,3.91l.12.27c.22.74,1,3.2,1,3.47.19.76-.21,1.33-1.12,2a3.75,3.75,0,0,1,.24,2.39A2.3,2.3,0,0,1,63,113.18l-.22.1a3.17,3.17,0,0,1-2.59.3c-1.07-.43-1.87-1.58-3-4.23a5.67,5.67,0,0,1-.42-1.41l-2.14-.26c-1.66-.21-4.13-.52-4.7-.55h0c-2.06.33-1.86,4-1.68,5.55l.09.77-.43.29a3.2,3.2,0,0,1,.46.05,3.29,3.29,0,0,1,2.44,1.31,2.54,2.54,0,0,1,0,2.18,6.49,6.49,0,0,1-.34.7c-.15.28-.55,1-.44,1.22,0,0,.32.55,2.6.79,4.79.5,6.4.39,6.92.29l.07-.16c.62-1.34,1.91-4.13,4.44-3.88a3.44,3.44,0,0,1,2.78,1.48,3.4,3.4,0,0,1,.16,3,23.37,23.37,0,0,1-1,2.18,17.26,17.26,0,0,0-.91,1.95c-.08,1.45-2.33,2.19-6.69,2.19-.84,0-3.05,1.64-3.09,2.47a12.83,12.83,0,0,1-.42,2.49,6.9,6.9,0,0,0,2.68-2.2,3.71,3.71,0,0,1,2.89-1.89h0c1.59,0,2.63,1.41,3.33,2.35l.27.36c1.42,1.83,1,4.59-.94,6.72a18.35,18.35,0,0,1-3.62,3,23.7,23.7,0,0,0-4,3.26,8.19,8.19,0,0,1-2.4,2.87l-.16.11-2.19,1.25c.41.94,1.19,2.54,1.89,3.9l.34.65-.4.62a15.71,15.71,0,0,0-2.32,5.7,2.44,2.44,0,0,1,.72-.48,1.39,1.39,0,0,1,1.32.12,1.63,1.63,0,0,1,.63,1.48,1.58,1.58,0,0,0,0,.46,1.72,1.72,0,0,0,.87.12c.77,0,1-.31,1.38-1.75.23-.89.68-2.54,2.37-2.4a6.89,6.89,0,0,1,5.15,3.13,7.14,7.14,0,0,1,.73,2.2,3.94,3.94,0,0,0,.45,1.37,62.32,62.32,0,0,0,6,6.75c1.18,1.07,2.61,4.06,4.67,8.5.67,1.44,1.3,2.8,1.83,3.84,1.9,3.72,1.33,7.61-.21,9.53l-.12.13a2.43,2.43,0,0,0-.22.25,5.5,5.5,0,0,0,.75,0c1.3,0,2.42,0,2.8,1.07s-.61,1.89-1.14,2.32c-.73.6-1.73,4.94-1.94,7.75,0,.55-.27,1.84-.71,4.27-.72,4-2.23,12.44-1.87,13.94a50.86,50.86,0,0,1,.61,9.3c0,.69,0,1.35,0,2A23.55,23.55,0,0,1,72.85,240a15.62,15.62,0,0,0-.58,2c0,.33.1,1.7.22,2.91.38,3.86.65,7.2.14,9-.63,2.19-4.09,6.06-7.13,9.15a9,9,0,0,1,3.35,4.72c1,.09,2.36.11,3.75.11a73.45,73.45,0,0,0-.83,11.65,1.25,1.25,0,0,0,.53,1,84,84,0,0,0-.69,12.55c.24,6,1.79,15.5,7.25,19a1.23,1.23,0,0,0,.76.22c.05.64-.31,1.32-1.54,2.18-1,.73-4.32.55-5.66.46-2.61-.19-4.21-2.08-6.52-2.57-2-.42-3,.67-3.69,2.15a1.68,1.68,0,0,0-.74,2.18,18.53,18.53,0,0,1-.72,2.26c-.41.93.3,2.44,1.51,2,1.71-.66,3.39-1.38,5-2.15a36.91,36.91,0,0,0,.29,5.42,7.23,7.23,0,0,0,0,2.81c-.09.16-.17.33-.27.5a10.16,10.16,0,0,0-1.59,3,1.35,1.35,0,0,0,1.65,1.65q3-1.53,4.11,3.2c-1.13.37-1.41,2.38,0,2.58a11.09,11.09,0,0,1,2.6.85c-.29,1.32-.54,2.73.71,3.69a2.12,2.12,0,0,0,2.71-.09c1.22-1,1-2.74.39-3.94a4.4,4.4,0,0,0-.9-1.26,1.1,1.1,0,0,0-1.23-.88A6.77,6.77,0,0,0,75,336a4.11,4.11,0,0,0,.49-4.14v0a.45.45,0,0,1,.21-.24c1,.38,2,.7,2.81,1,2.38.9,5,1.62,6.79-.67a5.54,5.54,0,0,0,.89-4.74,8.84,8.84,0,0,0-.88-2.73c-.7-1.31-3-.4-2.45,1,.13.33.28.68.41,1a1.1,1.1,0,0,0-.34.39,18.24,18.24,0,0,0-.81,1.86l-.19.24a6.36,6.36,0,0,1-1.35-1.18,5.11,5.11,0,0,1-.61-1l0-.07a13.32,13.32,0,0,1,3.52-7c.55-.55,1.83-1.92,2.69-2,1.51-.22,3.9,2.26,5,3.18a1.36,1.36,0,0,0,2.24-.59c1.15-4.23,6.61-1.74,9.54-3.35a3.65,3.65,0,0,0,1.65-2.07c1-.63,1.61-1.78,1.34-3.65-.19-1.29-1.85-1.11-2.45-.32a5.82,5.82,0,0,0-.72,1.34,3.58,3.58,0,0,1-3.92-.45l-1.58-3.46c-.11-.59.45-1,.25-1.56-.41-1.26-.47-1.64-1.72-2.34-.44-.24-1.2.37-1.52.18C93.2,304,93,301.16,93,300.18c.31-3.86,3-3.75,5.69-4.05L97,297.92a9.23,9.23,0,0,1,4.73,2.23c2-3.23,4.13-6.37,6.84-6.16,1.66.12,3,1.47,4.2,4.12.52.7,1.67,2.19,2.52,2.22.32,0,.7-.22,1.12-.69l.14-.14a5,5,0,0,1,3.14-1.13,4.42,4.42,0,0,1,1.62.3,4.85,4.85,0,0,1,2.8,3.22,4,4,0,0,1,2.73-1.6,7.91,7.91,0,0,0,3.16-2.07,1.28,1.28,0,0,0,1.12-.92,1.66,1.66,0,0,1,.22-.42l.4-.45c.65-.62,1.6-1.15,2.11-1.76a6.37,6.37,0,0,0,1.47-3.95c0-2.09-1.2-3.71-2.21-5.39q-.08-.76-.16-1.52a1.4,1.4,0,0,0-.26-.67,20.18,20.18,0,0,1,2.24-.26c.5,0,1-.09,1.38-.14,1.62-.18,3-.33,3.9.67a2.61,2.61,0,0,1,.61,1.65,3.76,3.76,0,0,1,3.08.32l.82-.88c1.64-1.77,2.56-2.61,5.54-2.37,2,.17,4.21.26,6.12.26.3,0,1.74-.42,2.28-.56l.4-.11h0a9.94,9.94,0,0,1,7.35-4.09l.16-.27c1.2-2,1.71-2.67,4.38-2.6a5.23,5.23,0,0,0,2.15-.57,6.46,6.46,0,0,1,4.67-.52l.09,0c2.61.78,4.67,1.4,4.76,4.63.05,1.91.05,1.91,1.17,3a10.53,10.53,0,0,0,3.68,2.51l.51-.07c1.58-.23,4.53-.65,6.14,1a3.89,3.89,0,0,1,.87,3.56l-.1.58-.5.3a11.29,11.29,0,0,1-1.78.85l-.23.09c0,.1,0,.23.07.41a18.58,18.58,0,0,1,.34,2.61,3.07,3.07,0,0,0,0,.34,1.85,1.85,0,0,1,.09.67,18.13,18.13,0,0,0,3,0,2.76,2.76,0,0,1,2.28,1.2,6.56,6.56,0,0,0,.72.67c0-.28,0-.51.06-.7l-.32-.21a6,6,0,0,1-2.14-6.56,4.08,4.08,0,0,1,.16-4.32,3,3,0,0,1,3.42-.94l.17.05.15.1c.68.46,1.24.81,1.71,1.1a7.44,7.44,0,0,1,2.87,2.56c.17.28.55.4,1.21.6a5,5,0,0,1,2.82,1.72l.09.11.33-.06a5.37,5.37,0,0,1,1.09-.15,34.64,34.64,0,0,0-1.24-3.34,10.79,10.79,0,0,1-1.08-3.44c0-.22,0-.5-.05-.81-.12-1.43-.28-3.21.87-4.14a2.36,2.36,0,0,1,2.28-.34l.63.18a8.19,8.19,0,0,1,4.91,3.14,13.06,13.06,0,0,1,2.89,4.92l.16.43c.22.6.27.61,1.12.72a6.49,6.49,0,0,0,.85,0,4.32,4.32,0,0,1,3.06.73c-.68-1.65-.88-3-.19-3.87a2.33,2.33,0,0,1,2.5-.73,2.85,2.85,0,0,1,2.35,1.58h.16c.65-.11,2.5-2,4.26-4.23a5.2,5.2,0,0,1-1.94-2,5.7,5.7,0,0,1,0-4.87l0-.1a34.68,34.68,0,0,1,2.47-4.32,4.93,4.93,0,0,1-2.28-1,4,4,0,0,1-1.33-3.2l0-.92.66-.2a3.41,3.41,0,0,0,.41-1.12v-.09c.2-2.46.63-7.59,5-7.68h.17l1.21.14a3.42,3.42,0,0,1-.85-2.58c.18-1.34,1.28-2.33,3.27-2.94l.31-.05a18.49,18.49,0,0,1,4.76.48c1.89.39,2.77.52,4-.27a31.47,31.47,0,0,1,4.16-2.14c2.36-1.08,5-2.3,5.93-3.62l.68-1,.89.54a7.19,7.19,0,0,1-.11-.72l0-.36.16-.32c1.5-3.08,6.39-5.2,6.94-5.43l.84-.35.6.69c.88,1,2.48,2.77,3,3.21a.83.83,0,0,0,.19.13,4.82,4.82,0,0,0,.77-.08l1-.14c.4,0,.79-.06,1.16-.08a7,7,0,0,0-.54-.57,2.31,2.31,0,0,1-.88-1.78,8.42,8.42,0,0,1,1.08-3.6c.33-.42.85-.63,2.21-1.1a3.23,3.23,0,0,1-.15-2.32c.37-1.1,2-2.2,5.86-4.39l1.28-.75,0-.13c.18-1,.67-3.83,3.6-3.83a13.16,13.16,0,0,0,3.69-.72,13.47,13.47,0,0,1,2.71-.61l.42,0c2.33-.18,3.48-.26,4.11-.25a10.79,10.79,0,0,0,2.65-2.6A8.86,8.86,0,0,0,301.38,215.92Z"/><path class="cls-2" d="M76.09,344.41a3.46,3.46,0,0,1-2.13-.74,4,4,0,0,1-1.44-3.93,5.89,5.89,0,0,0-1.2-.33,2.46,2.46,0,0,1-2.16-2.28,3.05,3.05,0,0,1,.75-2.26c-.31-1-.66-1.43-.92-1.56a1.27,1.27,0,0,0-.94.18l-.24.09a2.68,2.68,0,0,1-2.62-.64,2.83,2.83,0,0,1-.8-2.7,7.47,7.47,0,0,1,1.23-2.61c.16-.25.34-.5.51-.81v0a8.79,8.79,0,0,1,0-2.6c-.14-1.14-.22-2.24-.25-3.22-1.05.46-2.09.88-3.14,1.29a2.46,2.46,0,0,1-2.74-.59,3.06,3.06,0,0,1-.58-3.27,14.29,14.29,0,0,0,.55-1.73,3,3,0,0,1,1.1-3.12A4.33,4.33,0,0,1,66.17,311a11.26,11.26,0,0,1,3.19,1.35,7.53,7.53,0,0,0,3.14,1.19c3.12.22,4.47,0,4.76-.21l.42-.32c-6.22-4.45-7.31-15.35-7.49-19.9A82.33,82.33,0,0,1,70.81,281a2.65,2.65,0,0,1-.46-1.49A75.18,75.18,0,0,1,71,269.26c-.87,0-1.62-.05-2.24-.1l-.94-.08-.29-.9a7.51,7.51,0,0,0-2.85-4l-1.3-1L64.48,262c5.5-5.6,6.57-7.85,6.78-8.55.48-1.64.09-5.57-.19-8.43a22.49,22.49,0,0,1-.22-3.19,13.06,13.06,0,0,1,.65-2.28A22.53,22.53,0,0,0,73,232.7c0-.61,0-1.27,0-2a50.41,50.41,0,0,0-.57-9c-.32-1.3.18-5.24,1.85-14.52.36-2,.65-3.63.69-4.13.09-1.12.9-7.46,2.46-8.74q.67-.54.71-.74a4.37,4.37,0,0,0-1.47-.13,6.87,6.87,0,0,1-.95-.06l-2.4-.34,1.47-1.93a3.89,3.89,0,0,1,.36-.4v0c1.21-1.54,1.63-4.85,0-8-.52-1-1.13-2.34-1.78-3.73l-.07-.16c-1.54-3.32-3.29-7.09-4.34-8.05a61.9,61.9,0,0,1-6.25-7.06,5.26,5.26,0,0,1-.63-1.83,5.76,5.76,0,0,0-.58-1.79,5.54,5.54,0,0,0-4-2.4c-.24,0-.51,0-.87,1.35-.31,1.17-.72,2.76-2.73,2.8a3.86,3.86,0,0,1-1.15-.12h-.61l-.4-.76a2.29,2.29,0,0,1-.2-1.13,1.29,1.29,0,0,0,0-.33,1.61,1.61,0,0,1-.27.26l-2.73,2.46.37-3.66a16.87,16.87,0,0,1,2.49-6.26c-.73-1.43-1.49-3-1.89-3.9L49,147.3l1.12-.63,2.14-1.22.07,0a6.67,6.67,0,0,0,1.91-2.21l.14-.28c.72-1.13,4.38-3.64,4.41-3.66a17.26,17.26,0,0,0,3.38-2.83c1.49-1.61,1.85-3.62.86-4.89l-.26-.35c-.58-.79-1.34-1.81-2.21-1.81-.58,0-1.17.44-1.77,1.29a8.22,8.22,0,0,1-3.22,2.66l-2.74,1.32.75-2.95a11.39,11.39,0,0,0,.38-2.2c.07-1.72,3.07-3.83,4.5-3.83,4.67,0,5.28-.88,5.28-.89l0-.24a13.91,13.91,0,0,1,1-2.24c.39-.76.76-1.51,1-2a2,2,0,0,0,0-1.78,2.17,2.17,0,0,0-1.72-.83c-1.34-.12-2.25,1.4-3,3.06l-.37.83-.73.13a34.11,34.11,0,0,1-7.32-.28c-2.09-.22-3.31-.73-3.72-1.57s.05-1.75.45-2.5a5.16,5.16,0,0,0,.27-.55,1.29,1.29,0,0,0,.12-1c-.18-.33-.82-.49-1.48-.62l-.25,0L43.55,115l3.33-2.22c-.62-5.51,1.45-6.76,2.8-7l.16,0h.22c.58,0,2.6.28,4.8.56l3.2.4.16,1.07a4.38,4.38,0,0,0,.32,1.06c.89,2.18,1.54,3.22,2.18,3.47.4.16.77,0,1.48-.28l.22-.1a.89.89,0,0,0,.53-.57,2.4,2.4,0,0,0-.2-1.46l-.41-1,.91-.64a1.89,1.89,0,0,0,.58-.52s-.18-.52-1-3.28l0-.12a19.13,19.13,0,0,0-2.48-3.51,2.88,2.88,0,0,1-1-3,29.55,29.55,0,0,1,1.45-4.06l.7-1.71,2.4,1.83a51,51,0,0,0,5.81-.73c.7-.16,1.12-.45,1.25-.86a2.07,2.07,0,0,0-.72-1.84l-.15-.14-9.12-7.32,10.61,4.92a1.75,1.75,0,0,0,.32.11,4.51,4.51,0,0,0,3-.89L74,83.82l3.16-1.31.36,1.65a4.49,4.49,0,0,1,.09.6c0,.09,0,.18,0,.27,0,.63.06,1.1.35,1.32a.84.84,0,0,0,.54.16l1.48,0L79.89,88c-.08,1.32.31,1.89.66,2a.26.26,0,0,0,.33-.15l.07-.21a4.51,4.51,0,0,1,.42-.71l1.06-1.55,1.2,1.45.09.08c.59.4,2.25-.42,2.79-.88a4,4,0,0,1,1.86-.65A3.08,3.08,0,0,0,89.52,87c0-.15,0-.24,0-.34l-.13-2.76,2.32,1.5c1.45.94,4.18,3.07,6.12,4.66a4.14,4.14,0,0,0,1.68-.45c.78-.42.86-.81.86-1.61,0-.64-.6-1.06-1.22-1.45L99,86.46a16.49,16.49,0,0,1-1.77-1.8L95.1,82.33l3.61,0H99a4.13,4.13,0,0,0,.82,0l.91-.16.51.77c.65,1,4.67,2,6.08,2.11,1.86-2.27,3.58-1.84,5-1.12l.29.16,1.17.76L113,85.95l-.09.13c3.22.58,7.17,1.38,8.69,1.85l1.5.46-.78,1.78-.09.18c-.84,1.7-1.4,2.12-1.8,2.3l-.34.11a.89.89,0,0,0-.68.55,3.81,3.81,0,0,0,.76,3.2c.8,1.46,1.4,1.76,1.76,1.76a1,1,0,0,0,.5-.18l.45-.34.56.06c2.54.28,9.12,1,10.43.71A19.52,19.52,0,0,0,135,92.08c0-1.32-.35-4.06-.89-7.7l-.33-2.23,2.15.66a35.53,35.53,0,0,0,5.2,1.21c2.91.43,3.81-1.36,4.47-3.22l0-.1.15-.41a5.18,5.18,0,0,0,.15-2.6,11.82,11.82,0,0,1-.1-1.35,2.77,2.77,0,0,1,.39-1.5,3.86,3.86,0,0,0,.48-1.53c0-.11,0-.2,0-.27l.19-1,1-.14.39,0a11,11,0,0,0,1.51-.24c.71-.17,1.2-.34,1.29-.58s-.21-.71-.71-1.47l-.33-.5c-.94-1.44-2.13-1.81-5.42-2.65-.77-.2-1.65-.42-2.66-.7a6.16,6.16,0,0,1-2-.87L139,64l.74-1.11a6.84,6.84,0,0,1,1.83-1.61l1-.7.83.9c1.18,1.27,2.16,1.86,2.77,1.67a.87.87,0,0,0,.54-.55l.51-1.11,1.18.34c1.65.48,2.84.65,3.29-.06a14.63,14.63,0,0,0,1.58-6.49l0-1.47,1.47.08a60.09,60.09,0,0,0,9.73-.87,3.53,3.53,0,0,1,.57-2.79,6.39,6.39,0,0,1,4-2c0-.14.07-.37.12-.67l.33-2,1.78,1a8.73,8.73,0,0,0,3,1.25.74.74,0,0,0,.53-.27c1-1.08,1.64-4.88,1.53-7.61q0-.2,0-.38l-1.6-1.17,2.71-.84a3.24,3.24,0,0,1,2.67.91l.59.57-.35,1.36a50,50,0,0,0-1.7,9.72,2,2,0,0,0,.71,1.89c1.87,1.45,6.87-.18,9-.88l.2-.07.59-.19.34,0a2.11,2.11,0,0,0,1.62-.65,2,2,0,0,0,.35-1.53l-.09-1,.85-.44a24.13,24.13,0,0,1,3.65-1.63h0l.07.37v0l.07.38v-.76h-.1c2.26-.23,5.26-1.19,5.54-2A8.61,8.61,0,0,1,203,40.92l2.7-3-.24,4c0,.7-.18,1.63-.24,2.07l0,.17c-.32,1.16-.13,1.66.09,1.87.43.43,1.35.21,2.26,0a5.18,5.18,0,0,1,.56-.14,1.69,1.69,0,0,0,.6-.15.32.32,0,0,0,0-.15l-.07-.51.28-.44a7.31,7.31,0,0,1,2.72-2.36,2.2,2.2,0,0,0,1.38-1,1.46,1.46,0,0,0-.06-1.18s-.46-1-4.18-2.65l-1.43-.63.77-1.36c.51-.91,1.23-2.22,1.76-3.31a14.49,14.49,0,0,1,1.16-2c.45-.66.59-.92.51-1.15a.27.27,0,0,0-.1-.15l-1.92-1.37,2.11-1.05a5.93,5.93,0,0,0,1.23-.76,3.92,3.92,0,0,0,1.08-2.94v-.49l.31-.38a10.32,10.32,0,0,1,3.16-2,14,14,0,0,0,1.47-.78l.11-.08a5.37,5.37,0,0,1,2.2-1.1l.93-.12.47.81a2.56,2.56,0,0,1,.26.65c.16.76.4,1.7.83,1.86.27.11.64-.1,1.2-.49l1.75-1.23.51,2.4c.31,1.45.69,3.25,1.4,3.29a10.86,10.86,0,0,1,1.44.18c.49.08,1.1.19,2.24.29a16.26,16.26,0,0,0,5.9-.8,14.16,14.16,0,0,0,4.1-2.25,3,3,0,0,0,1.17-1.94l.42-2.15,1.79,1.27c.89.54,3,.15,5.33-.9l.16-3.37,2.19,1.86a1.46,1.46,0,0,0,.76.35,3,3,0,0,0,2.45-1.29c.58-2,1.29-3.11,2.18-3.48a2.28,2.28,0,0,1,2,.28c.22.12.35.16.42.14s.14-.19.22-.38a5.68,5.68,0,0,1,.85-1.46l.13-.14a7.2,7.2,0,0,0,2.21-4.49l.26-2.25,1.76,1.13,1.62-.13-.07.64L272.3,7l.22.88c.3,1.18.48,2.77-.38,3.63a3.6,3.6,0,0,0-.52,4.57l.11.18.05.2c.7,2.74,2.51,4.07,5.69,4.19l.81,0,.38.71c.54,1,1.69,3.18,2.48,4.67.61-.06,3.69-.29,5.11,1.13a2.22,2.22,0,0,1,.57,2.25,2.82,2.82,0,0,1-1.57,1.87l-.21.07h-.22a3.86,3.86,0,0,0-3.26,2.24,11.86,11.86,0,0,0-.94,2.54c-.06.21-.09.34-.12.43l-.1.24A25,25,0,0,0,282,40.67l.49,1-4.68,3.6-.45,4.77-5.07,1.33c.07,1.23.57,10.32-.28,12.7-.56,1.58-.62,2.7-.17,3.35a1.87,1.87,0,0,0,1.63.65c2.3,0,5.16.27,6.81,2.38s1.91,10.15,1.91,10.23v.23l-.07.22c0,.14-.15.4-.24.63-.46,1.14-1.17,2.93-.69,3.88l.21.41.06.11a4.63,4.63,0,0,1,.5,1.09l0,.32a1.92,1.92,0,0,1-.85,1.46A11,11,0,0,1,276,91.51c-.1,0-9.7,2-12.6,2.32a22,22,0,0,1-3.84.07c-.67,0-1.41-.07-2.34-.07a2,2,0,0,0-1.31.31c-.22.23-.21.65-.17,1.32a8.82,8.82,0,0,1-.07,2.17,11.38,11.38,0,0,0-.15,2.58l.16,3.37-2.52-2.25-1-.91c-3-2.76-5.64-5.15-9.37-3.83a6.93,6.93,0,0,0-1.82,1l-.79.66c-2,1.9-3.5,5.17-4.14,9l0,.19a8.15,8.15,0,0,0-.38,1.7c-.18,2,.23,2.35,2.2,3.32A28.32,28.32,0,0,0,248.15,115a2.79,2.79,0,0,1,2.53,2.09,2.74,2.74,0,0,1-1.19,3,6.3,6.3,0,0,1-3,1.13h-.16c-.63,0-1.26,0-1.88,0a1.53,1.53,0,0,0-.91,2l.08.28,0,.29a36.08,36.08,0,0,0,.16,8.35l0,.25c2.69-1.09,5.2-2,7.63-2.71l.9-.28c2.16-.69,4.84-1.55,7.21-.51a9.35,9.35,0,0,1,4.52,4.77l0-.32,1.39.08c7,.42,9.9.2,10.63,0-.67-5.48,2.11-8.09,2.68-8.55l.15-.12.18-.08c1.41-.62,8.57-3.79,11.57-4.76a5.63,5.63,0,0,1,4.94.32,2.18,2.18,0,0,1,1,1.7c-.22,3.91-2.6,10.14-3.61,12.65l-.36.89h-7v3.93H278v4h-2.23v1.39H282v1.43h4.85l-2.52,2.44c-1.75,1.69-4.94,4.8-7,6.9,1,.9,1.93,3.56,4,11a58.58,58.58,0,0,0,2.62,8.14h0l.35-.24c.86-.59,2.38-.3,3.21-.07l.38.1,10.82,11.19h-3.06v4.1h-2v3.75H291V199h4.07v-2.32h2.83l.06,1.42v6.82l-2.07-1.07a4.1,4.1,0,0,1-.66-.42,8,8,0,0,0-6.61-1.18,2.53,2.53,0,0,0-1.59,2,2.67,2.67,0,0,0,.38,2.22,4.18,4.18,0,0,0,1.68.51,7.77,7.77,0,0,1,3,1l.81.57-.26,1c-1.25,4.59-.48,6.21,1.27,7.46a3.89,3.89,0,0,0,3,.58,5,5,0,0,0,3.2-2.28l0,0,1.12-2,1.29,1.92a10.43,10.43,0,0,1,.78,1.45l.32.71-.43.65a12.17,12.17,0,0,1-3.1,3l-.35.21h-.41c-.6,0-1.91.08-4,.25l-.42,0a12.53,12.53,0,0,0-2.42.56,14.44,14.44,0,0,1-4.09.78c-1.27,0-1.87.72-2.21,2.66l-.11.64-.57.46-1.23.71-.09.05c-1.86,1.06-5,2.84-5.22,3.61a1.81,1.81,0,0,0,.11,1.32l.59,1.39-1.43.5a8,8,0,0,0-1.57.65,7.62,7.62,0,0,0-.77,2.72c0,.3.11.43.44.76a8.22,8.22,0,0,1,.65.68l1.84,2.21-2.88.11c-.34,0-.7,0-1.06.07l-1,.13a3.64,3.64,0,0,1-1.27.06l-.28-.09a2.2,2.2,0,0,1-.52-.34c-.73-.61-2.69-2.83-3.09-3.28-1.83.78-5.05,2.59-6.09,4.67,0,.19,0,.37.08.53l.64,3.17-2.51-1.52c-1.17,1.59-3.85,2.81-6.43,4a30.6,30.6,0,0,0-4,2c-1.73,1.15-3.19.86-5,.48a17.31,17.31,0,0,0-4.33-.46l-.13,0c-1.36.43-2.1,1-2.2,1.75a2.06,2.06,0,0,0,.56,1.51l2.15,2.72-3.44-.43-1.2-.14c-2.52.05-3.25,2.59-3.57,6.38l0,.29a4.8,4.8,0,0,1-.62,1.6l-.28.42-.15,0a2.53,2.53,0,0,0,.84,2,3.51,3.51,0,0,0,1.63.72l2.12.42-1.22,1.78a33.9,33.9,0,0,0-2.37,4.15l0,.06a4.31,4.31,0,0,0,0,3.62,3.76,3.76,0,0,0,1.42,1.45l1.37.82-1,1.26c-1.3,1.67-3.69,4.51-5.14,4.76l-.24,0h-.28l-.8-.06-.36-.72c-.14-.28-.32-.63-1.33-.82-.57-.11-.94,0-1.12.19s-.15,1.22.37,2.48l2.28,5.55-4.52-3.94a3.24,3.24,0,0,0-2.09-.38,7.54,7.54,0,0,1-1.08,0,2.24,2.24,0,0,1-2.26-1.64l-.16-.45a11.71,11.71,0,0,0-2.62-4.46,6.85,6.85,0,0,0-4.24-2.71l-.63-.18c-.67-.19-.91,0-1,.08-.57.46-.44,1.88-.35,2.92v.13c0,.31,0,.59,0,.81a11.86,11.86,0,0,0,1,2.9,36,36,0,0,1,1.29,3.48l.51,1.78-1.85,0a4,4,0,0,0-.8.12l-.46.09-.69.09-.49-.49a2.31,2.31,0,0,1-.23-.27,3.66,3.66,0,0,0-2.09-1.21,3.19,3.19,0,0,1-2-1.21,6.12,6.12,0,0,0-2.42-2.11c-.48-.29-1-.65-1.74-1.12a1.63,1.63,0,0,0-1.84.47,2.72,2.72,0,0,0,0,2.83l.25.5-.16.53a4.63,4.63,0,0,0,1.59,5l1,.68-.11.89c0,.16,0,.35,0,.59l-.13,2.58L198,297.32a7.27,7.27,0,0,1-.91-.83c-.47-.48-.83-.83-1.07-.8a19.18,19.18,0,0,1-3.28,0l-1.34-.12.06-1.35a.46.46,0,0,0,0-.16l0-.18a3.08,3.08,0,0,1,0-.45,17.54,17.54,0,0,0-.32-2.51c0-.23-.07-.4-.08-.52l-.12-1.06,1.22-.5a10.2,10.2,0,0,0,1.54-.72,2.36,2.36,0,0,0-.5-2.26c-1.11-1.14-3.59-.78-4.92-.59l-.17,0-.45.06h-.25c-1.08-.12-3.21-1.6-4.53-2.92s-1.52-1.79-1.58-4-1-2.49-3.75-3.31a5.19,5.19,0,0,0-3.81.44,6.56,6.56,0,0,1-2.74.67c-2-.06-2.07.13-3.11,1.9l-.52.88-.7.08a8.53,8.53,0,0,0-6.08,3.16v.39l-1,.49-.39.11a18.62,18.62,0,0,1-2.53.61h-.12c-2,0-4.17-.1-6.24-.27-2.42-.2-3,.38-4.38,1.92l-.84.9-.71.74-.92-.44a2.36,2.36,0,0,0-2-.25l-1.75.56-.09-1.84a1.18,1.18,0,0,0-.25-.79c-.38-.43-1.27-.36-2.69-.2-.43,0-.91.1-1.43.14l-.61,0,.06.53.28.46a9.74,9.74,0,0,1,2,5.42,7.19,7.19,0,0,1-3.19,6c-.29.22-.56.42-.78.62l-.27.3a2.78,2.78,0,0,1-1.83,1.81c-2.26,2-3.31,2.13-3.67,2.18a2.53,2.53,0,0,0-1.77,1.06l-1.64,2.15-.83-2.57a3.46,3.46,0,0,0-2-2.34,3.51,3.51,0,0,0-3.3.57l-.06.06a2.82,2.82,0,0,1-2.24,1.11c-1.06,0-2.13-.88-3.56-2.79l-.16-.28c-.92-2.09-1.93-3.2-3-3.28-1.84-.17-3.75,2.63-5.53,5.49l-.88,1.4-1.25-1.08a7.86,7.86,0,0,0-4-1.9l-2-.3a4.12,4.12,0,0,0-.26,1.27,7.75,7.75,0,0,0,.38,2.76,2.12,2.12,0,0,1,1.63.13,4.11,4.11,0,0,1,2.32,2.93l.07.21a2.45,2.45,0,0,1-.14,1.79l1.25,2.74a2,2,0,0,0,1.73.27,6.07,6.07,0,0,1,.65-1.09,3.14,3.14,0,0,1,3.16-1.09,2.42,2.42,0,0,1,1.82,2.06,4.78,4.78,0,0,1-1.59,4.78,4.8,4.8,0,0,1-2.12,2.39,9.94,9.94,0,0,1-4.71.83c-2.69,0-3.75.19-4.14,1.65A2.65,2.65,0,0,1,93,322.53a2.94,2.94,0,0,1-2.73-.57l-.7-.62c-.62-.56-2.48-2.24-3.17-2.24h0a7.28,7.28,0,0,0-1.73,1.49l-.14.15a10.37,10.37,0,0,0-1.53,2,2.72,2.72,0,0,1,3.58,1.12,10.29,10.29,0,0,1,1,3.18,6.84,6.84,0,0,1-1.18,5.83c-2.63,3.31-6.53,1.83-8.4,1.12l-.74-.26A5.44,5.44,0,0,1,77,335.2a2.4,2.4,0,0,1,1.29,1.34,5.72,5.72,0,0,1,.92,1.38c.81,1.7,1.08,4.2-.8,5.67A3.77,3.77,0,0,1,76.09,344.41ZM75.75,338l-.25,1.15c-.31,1.45-.27,1.92.19,2.27.11.08.43.34,1-.08s.29-1.56,0-2.22a3,3,0,0,0-.62-.86Zm-3.55-1.32a13,13,0,0,1,2.23.77l1.31.54,0,0,0-.13H75.5l-.36-.17a5.44,5.44,0,0,0-.64-.28l-1.79-.64.21-.29Zm-3.42-6.26a3.28,3.28,0,0,1,1.41.31c1.3.62,2.19,2,2.71,4.36l.24,1.06.7-1a2.7,2.7,0,0,0,.35-2.71l-.25-.46.16-.57a1.83,1.83,0,0,1,.81-1l.59-.37.66.24,1.48.52,1.34.47c2.87,1.09,4.18,1,5.18-.23a4.1,4.1,0,0,0,.61-3.57l0-.27-.6.45a16.88,16.88,0,0,0-.71,1.63l-.08.22-1.14,1.39-1.06-.67a7.75,7.75,0,0,1-1.71-1.5,6.49,6.49,0,0,1-.78-1.27l-.22-.47.15-.57a14.6,14.6,0,0,1,3.89-7.69l.14-.14c1.06-1.08,2.19-2.14,3.35-2.31,1.91-.28,4,1.58,5.48,2.94l.62.55c1-3.53,4.37-3.58,6.8-3.62a8.1,8.1,0,0,0,3.39-.48,2.23,2.23,0,0,0,1-1.34l.17-.44.4-.25c.23-.14.82-.5.72-1.86a4.91,4.91,0,0,0-.5,1l-.21.51-.51.23a5,5,0,0,1-5.37-.61l-.28-.22-1.83-4.11a2.57,2.57,0,0,1,.23-1.54V307c-.24-.76-.29-.9-.67-1.13h0a2.09,2.09,0,0,1-1.86,0c-2.12-1.28-1.9-5.71-1.9-5.75.37-4.69,3.9-5,6.23-5.27l.71-.07,4-.46-2.92,3a10.73,10.73,0,0,1,1.66.88c1.78-2.75,4.13-5.77,7.33-5.51,2.19.16,3.94,1.74,5.32,4.81a8,8,0,0,0,1.27,1.41l.09-.09.31-.29a6.35,6.35,0,0,1,6.17-1,5.94,5.94,0,0,1,2.74,2.25,5.25,5.25,0,0,1,2.1-.71A7.73,7.73,0,0,0,129,297.2l.34-.32.4,0a3.07,3.07,0,0,1,.39-.74l.12-.15.36-.41.1-.11a11.33,11.33,0,0,1,1.09-.88,6.08,6.08,0,0,0,.9-.76,4.92,4.92,0,0,0,1.14-3.07c0-1.36-.7-2.52-1.53-3.86l-.47-.77-.16-.27,0-.32q-.07-.75-.16-1.5l-1.3-1.8,2.17-.42a21.93,21.93,0,0,1,2.41-.29c.48,0,.93-.09,1.33-.13,1.75-.19,3.74-.41,5.12,1.14a3.65,3.65,0,0,1,.63,1,4.9,4.9,0,0,1,1.63.26l.09-.1c1.85-2,3.2-3.17,6.75-2.88,2,.16,4.06.26,5.91.26.12,0,.56-.12,1.94-.5a11.15,11.15,0,0,1,7.31-4.16c1.29-2.14,2.33-3,5.45-3a3.7,3.7,0,0,0,1.54-.45,7.91,7.91,0,0,1,5.64-.58c2.74.82,5.74,1.72,5.86,6,0,1.34,0,1.34.75,2.06a11.8,11.8,0,0,0,2.8,2.06l.18,0c1.7-.25,5.25-.76,7.36,1.42l.06.06a4.63,4.63,0,0,1,.29-.41,4.42,4.42,0,0,1,5-1.42l.37.12.32.21c.66.45,1.21.79,1.66,1.07a8.92,8.92,0,0,1,3.22,2.84l.53.17a9.67,9.67,0,0,1,1.53.57l-.15-.37a11.41,11.41,0,0,1-1.2-4c0-.16,0-.35,0-.57V282c-.14-1.57-.34-3.95,1.38-5.36a3.76,3.76,0,0,1,3.58-.6l.62.18a9.51,9.51,0,0,1,5.58,3.56,14.5,14.5,0,0,1,3.17,5.39l.08.22h0a4.67,4.67,0,0,0,.56,0c.33,0,.72,0,1.14,0a3.74,3.74,0,0,1,.7-2.59,3.69,3.69,0,0,1,3.9-1.27,4.73,4.73,0,0,1,2.47,1.13,23.09,23.09,0,0,0,2-2.15,6.29,6.29,0,0,1-1.18-1.58,7,7,0,0,1-.08-6l.08-.17q.83-1.68,1.61-3a5.57,5.57,0,0,1-1-.71,5.42,5.42,0,0,1-1.82-4.3l0-2,1-.31,0-.17c.19-2.31.69-8.21,5.53-8.9a4.16,4.16,0,0,1,0-1.26c.18-1.33,1.06-3.13,4.26-4.11l.67-.12a20,20,0,0,1,5.11.51c1.88.39,2.24.38,2.89-.06a32.32,32.32,0,0,1,4.36-2.24c2-.9,4.68-2.14,5.36-3.13l1.43-2.09.2.12c1.83-3.3,6.56-5.42,7.51-5.82l1.79-.75,1.27,1.46c.8.91,1.79,2,2.39,2.61a3.61,3.61,0,0,1-.13-1,9.51,9.51,0,0,1,1.39-4.49,3.71,3.71,0,0,1,1.63-1.1,4.36,4.36,0,0,1,.2-1.88c.54-1.62,2.4-2.82,6.5-5.17l.09-.05.63-.36c.82-3.69,3.09-4.48,4.89-4.48a12.11,12.11,0,0,0,3.28-.66l.39-.11c-2.75-2-3.52-4.76-2.54-9.2-.34-.09-.72-.16-1-.21a5.87,5.87,0,0,1-3.07-1.21,5.72,5.72,0,0,1,2.19-9l.49-.15v-8.84h2.68v-3.75h2v-3.29l-6.4-6.62-.33-.05-1.74,4.21-2.68-4.77c-1-1.61-1.89-4.9-3.05-9.06-.68-2.42-2.45-8.77-3.22-9.69l-2.21-1.76,2-2.14c1.29-1.33,3-3,4.68-4.66h-.69v-1.43h-6.25v-7.06h2.23v-4h7.58v-3.93h7.92c.92-2.35,2.67-7.12,3-10.21a3.86,3.86,0,0,0-2.16.19c-2.76.9-9.62,3.92-11.09,4.57-.49.47-2,2.28-1.54,6l.25,1.94-1.77.83c-.47.22-1.86.88-10.71.41l-.49,6.43-2.91.61-.13-1.61c-.16-2-1-8.6-4.78-10.28-1.39-.61-3.5.07-5.21.62l-1,.3a86.09,86.09,0,0,0-9.13,3.35l-1.81.77-.16-2c-.06-.7-.12-1.42-.19-2.15a39.57,39.57,0,0,1-.18-8.77c-.46-2.21.53-4,2.81-5.12l.35-.17.39,0a17.19,17.19,0,0,0,1.89.06,3.41,3.41,0,0,0,1.63-.58A31.13,31.13,0,0,1,236.57,115c-2.26-1.12-4.11-2.35-3.77-6.12a10.61,10.61,0,0,1,.48-2.21c.45-2.57,1.66-7.2,4.84-10.32.29-.45.57-.9.88-1.33l2.68-3.82L241.61,94l.25-.09c4.67-1.65,8.07.72,11,3.32l0-.1a6.19,6.19,0,0,0,0-1.5,4.26,4.26,0,0,1,.93-3.44A4.45,4.45,0,0,1,257.23,91c1,0,1.76,0,2.47.07a19.32,19.32,0,0,0,3.4-.05c2.32-.25,9.86-1.77,12.32-2.28a8.52,8.52,0,0,0,3.42-1.44l-.18-.36c-1-2.09,0-4.61.56-6.12l.13-.33c-.06-2.67-.66-7.44-1.3-8.26-.91-1.16-3-1.29-4.58-1.29a4.59,4.59,0,0,1-3.95-1.85c-1-1.46-1.09-3.4-.19-5.93.38-1.07.44-6.43.12-11.7l-.13-2.2,5.4-1.42.38-4,3.85-3c-1.44-3.1-1.73-4.18-1.13-5.28l0-.07A14.89,14.89,0,0,1,279,32.28a7.06,7.06,0,0,1,3.83-3.42,7.46,7.46,0,0,0-1.49,0l-1.83.22-.86-1.63-2.14-4c-3.89-.39-6.45-2.47-7.45-6.06a6.38,6.38,0,0,1,.85-7.64,2.76,2.76,0,0,0,0-.28L267,8.9a10,10,0,0,1-2.64,4.4,2.88,2.88,0,0,0-.4.72A3.22,3.22,0,0,1,262.06,16a3.12,3.12,0,0,1-2.32-.13,8.81,8.81,0,0,0-.49,1.34l-.16.55-.37.44a5.8,5.8,0,0,1-5,2.29v.2l-1.47.68c-1.61.75-4.33,1.77-6.56,1.37A5.75,5.75,0,0,1,244,24.8a17,17,0,0,1-5,2.7,19.29,19.29,0,0,1-7,.92c-1.26-.11-1.93-.23-2.46-.32a8.08,8.08,0,0,0-1.11-.14c-2.28-.12-3.17-2.1-3.68-4a3.23,3.23,0,0,1-2.07-.11,3.84,3.84,0,0,1-2.13-2.34h0a15,15,0,0,1-1.82,1c-1,.51-1.63.83-2,1a6.41,6.41,0,0,1-2,4.34,5.87,5.87,0,0,1-.46.36,4,4,0,0,1-.88,3.57,11.6,11.6,0,0,0-.95,1.59c-.33.68-.73,1.44-1.11,2.14,3.12,1.57,3.92,2.72,4.24,3.48a4.29,4.29,0,0,1,0,3.42,4.87,4.87,0,0,1-3,2.56,5.63,5.63,0,0,0-1,.92A2.83,2.83,0,0,1,211,47.4a3.44,3.44,0,0,1-2.44,1.28l-.12,0-.1,0c-1.1.32-3.4,1-5-.66a3.58,3.58,0,0,1-.91-1.52,15.79,15.79,0,0,1-6,1.84h0a22.75,22.75,0,0,0-2.1,1,4.55,4.55,0,0,1-1,2.6,4.82,4.82,0,0,1-3.54,1.68l-.31.1-.21.07c-4.14,1.35-8.8,2.61-11.62.43a4.79,4.79,0,0,1-1.81-4,3.4,3.4,0,0,1-1.53.37,6.19,6.19,0,0,1-2.66-.71l-.17.9-2,.2a3.77,3.77,0,0,0-2.13.91c0,.06-.15.21-.05.7l.56,2.73-2.75.45a74.09,74.09,0,0,1-9.08.95,16.48,16.48,0,0,1-1.94,6.55,4.19,4.19,0,0,1-4.32,1.74,6.72,6.72,0,0,1,2.76,2.45l.32.49c.76,1.14,1.63,2.44,1,4.07a4.19,4.19,0,0,1-3.26,2.3c-.43.1-.82.17-1.15.22a6.59,6.59,0,0,1-.61,1.57l-.09.17c0,.33.06.7.1,1a7.87,7.87,0,0,1-.34,4l-.11.31,0,.1c-.52,1.45-2.09,5.87-7.55,5.07a34.77,34.77,0,0,1-3.5-.71c.3,2.19.58,4.51.61,5.88a21.14,21.14,0,0,1-1.56,8c-1,1.69-1.92,1.89-12.7.72a3.71,3.71,0,0,1-1.74.42c-1.63,0-3-1.09-4.15-3.16a6.27,6.27,0,0,1-.91-5.77,3.71,3.71,0,0,1,2.07-2c-1.75-.4-4.25-.9-6.72-1.34l-5.07-.9.13-.13a21.41,21.41,0,0,1-4.18-.87A3.82,3.82,0,0,1,103.2,88a4.21,4.21,0,0,1-2.35,4.1,6.93,6.93,0,0,1-3.08.79h-1l-.74-.61c-1.52-1.25-3.15-2.52-4.4-3.44a4.94,4.94,0,0,1-2.79,1.31c-.14,0-.51.1-.71.15-.89.69-3.14,2-5.12,1.37a3.11,3.11,0,0,1-3.12,1.07,3.89,3.89,0,0,1-2.84-3.66l-.09,0-.32.23a8.61,8.61,0,0,1-3,1.4,4,4,0,0,1,0,2.36,4.15,4.15,0,0,1-3.33,2.78,53.3,53.3,0,0,1-6.29.8l-1,.07-.29-.22a15.54,15.54,0,0,0-.59,1.73c0,.16,0,.25,0,.31l.16.16a22.35,22.35,0,0,1,3,4.24l.25.57c1,3.22,1,3.45,1,3.53a2.85,2.85,0,0,1-.86,2.8,4.49,4.49,0,0,1,0,2.31,3.7,3.7,0,0,1-2.11,2.35l-.21.09a4.5,4.5,0,0,1-3.69.32c-1.68-.68-2.68-2.42-3.74-5q-.15-.34-.25-.66l-1.17-.14c-1.28-.16-3.56-.45-4.39-.52-.32.22-.71,1.48-.42,4l0,.13a3.6,3.6,0,0,1,2.44,5.14,6.62,6.62,0,0,1-.31.67c.25,0,.56.1,1,.14a47.37,47.37,0,0,0,5.84.36c.82-1.66,2.48-4.41,5.59-4.11a4.55,4.55,0,0,1,4.13,6.41,23.79,23.79,0,0,1-1.07,2.29c-.18.36-.66,1.29-.8,1.64-.18,1.47-1.37,2.28-2.83,2.74a11.12,11.12,0,0,1,1.3,1.54l.24.32c1.86,2.39,1.44,5.91-1,8.56a19.9,19.9,0,0,1-3.94,3.29,29.17,29.17,0,0,0-3.51,2.76A9.83,9.83,0,0,1,54,147.65l-.34.23-1.07.61c.38.8.85,1.76,1.32,2.66l.71,1.39-.85,1.31a17.81,17.81,0,0,0-1.53,3,2.78,2.78,0,0,1,.87.39,2.72,2.72,0,0,1,.82.87c.66-2.27,1.93-3.35,3.78-3.19A8.3,8.3,0,0,1,64,158.78a8.42,8.42,0,0,1,.88,2.6,2.82,2.82,0,0,0,.27.91,63.12,63.12,0,0,0,5.74,6.44c1.38,1.26,2.81,4.22,5,9l.07.16c.63,1.36,1.23,2.65,1.73,3.63a11.27,11.27,0,0,1,.66,9.28,2.87,2.87,0,0,1,2.43,1.91c.68,1.93-.86,3.3-1.49,3.82a24.3,24.3,0,0,0-1.51,6.82c0,.62-.27,1.87-.73,4.41-1.42,7.94-2.06,12.44-1.88,13.36.56,2.32.61,6.19.65,9.6,0,.68,0,1.34,0,1.94a24.66,24.66,0,0,1-1.63,7.81c-.18.55-.48,1.46-.52,1.7s.14,1.73.22,2.61c.41,4.15.67,7.49.09,9.5-.21.71-.81,2.79-6.42,8.66a10.28,10.28,0,0,1,2.29,3.46c.76,0,1.68.06,2.73,0h1.65L74,268.06a71.33,71.33,0,0,0-.81,11.36l.52.45v.81A83.12,83.12,0,0,0,73,293c.13,3.28,1,14.24,6.58,17.89l1.3-.08L81,312.2c.16,1.86-1.57,3.07-2.14,3.47-.42.29-1.54,1.07-6.58.71A10.11,10.11,0,0,1,68,314.84a9,9,0,0,0-2.4-1.05c-.88-.19-1.48,0-2.1,1.35l-.2.45-.43.23-.09.06a1.11,1.11,0,0,0,.05.49l.1.38-.2.7a16.68,16.68,0,0,1-.67,2.08c1.54-.6,3.06-1.26,4.65-2l2.06-1,0,2.27A35.94,35.94,0,0,0,69,324l0,.21,0,.21a5.8,5.8,0,0,0,0,2.27l.12.51-.24.47c-.1.18-.19.36-.3.55-.21.36-.41.66-.6,1a5,5,0,0,0-.8,1.57A4.22,4.22,0,0,1,68.78,330.43Zm12.65-3.78,0,0,.18-.37-.07-.18Q81.49,326.39,81.43,326.66ZM194.13,292.9h1a7.45,7.45,0,0,1-.42-2.22c-.29.16-.56.29-.8.4C194,291.91,194.1,292.49,194.13,292.9Zm35.09-9.74ZM79.3,196.45Zm206.27-19.6ZM54.35,160.09h0Zm-2.92-40.78h0ZM51,118.19Z"/><path class="cls-1" d="M267,246a1.48,1.48,0,0,0,.53-.2l-.67.21Z"/><path class="cls-2" d="M255.12,248l11.31-3.29.6-.19,1.17,2.57a2.83,2.83,0,0,1-1.07.38h0l-.24,0Zm11.66-3.21,0,0,0-.18h0Zm0-.13h-.06l.06.1Z"/></svg>