<svg id="Layer_1" data-name="Layer 1" xmlns="http://www.w3.org/2000/svg" viewBox="0 0 350 350"><defs><style>.cls-1{fill:#999;}.cls-2{fill:#f90;}</style></defs><title>M</title><path class="cls-1" d="M153,342h2.25l2.56-1.74,1.64-1,.72-.82,1.43-2.87.72-1.84.61-2.15s.82-.94.82-1.33a22,22,0,0,1,1.13-2.87l1.54-1.95,2.15-.72,2.77-.61h2.36l2-.72,1.64-1.23,1.64-1.33,1.54-1.84,2-1.95,1.74-1.64,1.54-.72h8l2.77.82,2.48-.1,2.54-1.33,2.25-1.64,1.23-1,1.13-1.23,2,.61,2.66,1.84,2,1.74,2.36,1.54,2.15,1.54,2.36.2,2-1.13,2-1.74,1.95-1.33,2.25-2.46,3.59-4.92,1.23-.72,2.56-.51,3.38.72,3.48,1.13,3.69.2,2.36-1.54,2.77-2,2-.72h2.46l2.87,1.64,2.77,1.43,4.2,1.43,3,1.84,2.25,2.46,2.66,2.56,1.54,1,1.95-.2,2.46-.92,2.46-1.13,1.13-1.43,2-1.43,3.07-2.56,1.84-2.87.82-1.84,1-1.54v-3.18l-2.15-3.28-2.77-4-3.28-3.07-4.71-2.56-5.84-2.66-1.84-1.43-.2-2.87-.41-3.79-1.13-2-4.1-1.84-5.12-.92-2.15-.72-.82-1L256,265.71l-.61-1.64-2.25-1.74-4.1-.82H245.1l-1.74-1.33-2.25-1.43-3.59-4.41-5.23-6.15-.31-1.33.41-2.46.1-2.36-.2-3.07L229,236.5l-14.66-8.81-.82-1.74-.31-2.25,1.23-3.59.51-3.79.51-2.36.31-2,.2-2.15.82-2L216,203.8l-2.36-4.2-1.84-1.95-2.25-1.33-1.95-1.43-.72-2.46-1-2.46-.41-2.15-1.74-2.87L201,181.66l-5.43-3.07-3.38-3-.51-2.46-.61-1.95-3.48-.51h-4.92l-1.33,1.74L179.1,174l-2.15,1-2.77-.41-3.89-1.95-2.15-2.56h-1.95l-2.66.92-1.64-.31-2.77-1.95L156,167l-4.2-1.23-1.54-1.64-.51-2.55.82-2.47.82-3-.92-2.36L148.35,150l-3.18-3.18-1.95-3.59-2.87-4.2-3.48-1.95-.61-1.84-1.13-2-2.36-1.43-2.56-2.56-2.46-.41-2.46-1.13-1.23-1-.82-1.23v-2l.41-2.46-.41-2.77v-1.43l-1.33-.72-1.95-.61h-1.74l-1.43-2-.82-3-2.56-3.07-2.71-2.09-.88-.68-3.69-2.25-5.53-2.15L98,98.34l-1-1.84L95.57,92.6l-1.84-3.38-2.87-3.59-.92-3V72.3L88.7,68.51l-.82-2-.72-4.1,1.33-4.82,2.15-5.43L92.6,47l1.23-5,.61-4.1.2-4L94,31.31l.72-3.07V26.28L94.13,24l-.92-2.87-.51-5.64-1.54-4.3L89.83,8.55,88.19,8H86.24l-1,2v1.74l-1.33.72-1.74.82L80.6,15.11l-1.13,1.54-.92,2-.61,2L76.3,23.21l-3.18,3.18-2.87,1.84-4.1,2-1.74,2.66v3.18l-.82,2.46.51,1.54.82,2.25.2,3.79-.61,3.07-.92,1.64-.51,1.74v3.69l-.92,3,1.43,3.79L65,67.49l-.82,2.25.41,3-.1,1.13L62.57,76.3l-1.43,3.89v4.71L60,86.75,58.57,88.6v7.79l1.64,3.07,2,3.38-.1,4.1-1.33,3.38-1.43,3.48.82,2.56.72,2-.51,1.84.92,1.74-.1,3.07-.61,2.15-.72,2.56-.2,4.82-.31,3.69-.82,1.84.61,1.54.31,1.74-.92,2.46v1.43l-.41,1.74v1.54l3.48,9.33,1.95.92L65.13,163l3.59,4.61.72,2v2.25l-.82,2.25-1.95,3.38.41,1.74.72,2.56-.2,2.36-.82,2.25-.41,1.33.92,1.74v2l-.92,3.18-2,4.3,2.66,1,1.95,1.43,1.84,1.95,1.54.92,2.87.92,1.84.72L78.35,208l.92,2.56.82,2.66.72,3.07,3.69,2.46,2.36,2.66.61,2.15L87,226.45l1.33,2.15,1.23,2.25.1,2.15-.82,1.33-1.43,2.25.1,2.15,2.77,2.46.31,1.33,2.25,1.54,2,1.84.41,3,.41,3.79-.1,2.46.41,3.28,1.33,1.64,4,1.74,1.95,1.84.82,1.54-1.54,1.95-1.43,2.15v1.43l-.41,1.74-1.33,2.46-.72,2.46.61,2,1.23,1.64,1.23,2.77,2.36,3.59,1,2.25,1.43.41,2.15,1.74.92,2.25.92,1.13,1.43,1.13,2.25.82.92,2.66,1.54,3.07,1.64,5.74,2.56,2.25,3.69,1.13,4.82.72,3.07,1.84,2.66,3,1.95,4,.41,1.74,1.23.82,3.07,1.43,2.56,1.74,1.95,2.25.51,2.46,2.87,2.77,1.95,1.84,1.13,3.07Z"/><path class="cls-2" d="M155.66,343.38h-4l-.31-3.36-.95-2.59-4.9-4.7-.53-2.53-1.59-1.84-2.31-1.57-3.16-1.49-1.7-1.13-.5-2.13-1.79-3.68-2.39-2.67-2.65-1.59-4.74-.72-4-1.22-3.1-2.73-1.72-6-1.55-3.13-.7-2-1.83-.67-1.83-1.48-1.06-1.29-.87-2.12-1.65-1.33-1.79-.51-1.25-2.75-2.41-3.7-1.16-2.62L98,280.09l-.81-2.69.95-3.14L99.36,272l.33-1.4v-1.7l1.74-2.6,1-1.22-.28-.52-1.6-1.52-4.08-1.78L94.62,259l-.47-3.8.1-2.47-.4-3.69-.33-2.42-1.59-1.43-2.63-1.8L89,242l-2.88-2.56-.15-3.2,2.26-3.58-.07-1.39-1.07-2-1.58-2.55.55-3.08-.44-1.53-2-2.29-4-2.67-.85-3.62L77.92,211l-.84-2.33-1-1.44-1.44-.56-3.08-1-1.7-1-1.89-2-1.69-1.25-3.92-1.51L65,194.27l.83-2.87v-1.5l-1-2,.58-1.89.78-2.15.17-1.91-.65-2.31-.55-2.35,2.17-3.76.69-1.9v-1.76l-.56-1.6L64,163.88,62.65,162l-2.13-1-3.78-10.1,0-2.12.37-1.58v-1.53L58,143.3l-.21-1.22-.78-2L58,138l.29-3.45.25-5.08,1.29-4.55.08-2.52-1-1.91.54-2-.57-1.63-1-3.09,1.63-4,1.23-3.13.09-3.43-1.83-3-1.85-3.45V88.11l1.68-2.17.88-1.44V79.94l1.6-4.34,1.83-2.31,0-.55-.44-3.16.77-2.13-1.28-3.94-1.59-4.19,1-3.23V52.42l.69-2.23.81-1.44.54-2.68-.18-3.4L62.1,38.58l.9-2.69V32.52l2.18-3.34L69.55,27l2.68-1.72,3-3,1.44-2.17.62-2,1.07-2.31,1.21-1.64,1.73-2L83.8,11V9.76l1.57-3.13h3l2.42.76,1.67,3.36,1.61,4.65.5,5.48.87,2.72.68,2.5,0,2.46-.64,2.75.58,2.44-.23,4.34L95.2,42.3l-1.28,5.19L92,52.62,89.84,58l-1.23,4.44.64,3.64L90,68l1.33,4.09V82.44L92.13,85,95,88.54l1.93,3.57,1.4,3.79.81,1.45,2.15,1.46,5.61,2.21,3.82,2.34,3.81,3,2.76,3.31.84,3,.87,1.24h1.22l2.4.78,2.08,1.12V118l.43,2.89-.43,2.56V125l.47.7.93.77,2.12,1,2.72.45,2.76,2.76,2.53,1.54,1.41,2.62.44,1.32,3.3,1.84,3.13,4.6,1.85,3.41,3.17,3.17,2.33,4.14,1.09,2.8-.95,3.43-.72,2.18.36,1.79,1,1.06,4.13,1.25,3.19,1.82,2.52,1.77,1,.18,2.53-.88h2.85l2.39,2.84,3.43,1.71,2.12.31,1.66-.79,2-1.35,1.62-2.12,5.83,0,4.36.64.92,2.93.42,2,2.92,2.56,5.54,3.13,2.94,3.65,1.88,3.09.43,2.26,1,2.47.58,2,1.5,1.11,2.36,1.4,2.19,2.37,2.46,4.39,1,4.53-.9,2.26L217.2,212l-.32,2.13-.52,2.39-.57,4-1.12,3.27.23,1.71.54,1.16,14.41,8.67,3.8,2.85.25,3.8-.12,2.61-.36,2.18.17.72,5,5.89,3.46,4.25,2.16,1.38,1.36,1,3.69,0,4.43.88,2.84,2.19.69,1.84,1.74,2.33,1.66.55,5.35,1,4.53,2,1.49,2.71.44,4.07.16,2.29,1.22.95,5.69,2.6,5.1,2.82,3.48,3.3,2.77,4,2.4,3.66v4l-1.2,1.79-.87,1.92-2,3.05-3.34,2.77L284,312.25l-1.21,1.54-2.86,1.31-2.81,1-2.46.26-2.16-1.47-2.66-2.56L267.66,310,265,308.3l-4.24-1.47L258,305.4l-2.59-1.48h-1.84l-1.62.57-2.59,1.92-2.82,1.84-4.51-.3-3.42-1.1-3-.64-2,.41-.77.45-3.51,4.8-2.5,2.67-1.89,1.29-2.23,1.86L220.2,319l-3.17-.28L214.56,317l-2.45-1.61-2-1.7L207.69,312l-1-.29-.66.71-1.23,1-2.5,1.81-2.83,1.48-3,.13-2.8-.83h-7.47l-1,.49-3.56,3.37-1.68,2-1.64,1.33-1.86,1.4-2.48.87h-2.44l-2.54.56-1.68.56L166.07,328c-.4.88-.83,1.92-.93,2.27a3.45,3.45,0,0,1-1,1.87l-.57,2-.77,2-1.64,3.17-.86,1-1.82,1.14Zm-1.4-2.83h.52L157,339l1.51-.94.46-.53,1.32-2.65.67-1.72.68-2.39.21-.24a5.45,5.45,0,0,0,.49-.66,15.49,15.49,0,0,1,1.24-3.2l.18-.29,1.8-2.28,2.69-.89,3.07-.65h2.12L175,322l1.46-1.1,1.49-1.21,1.56-1.86,4-3.75,2-.95h8.51l2.74.81,1.93-.08,2.17-1.14,2.17-1.58,1.08-.91,1.66-1.82,3.12.93,3,2.06,2,1.68,2.28,1.49L218,316l1.54.13,1.55-.85,2.06-1.74,1.81-1.24,2.09-2.28,3.72-5.09,1.69-1,3.08-.62,3.81.82,3.31,1.07,3,.17,2-1.28,2.87-2.13,2.48-.87h3.08l3.2,1.83,2.62,1.36,4.39,1.54,3.14,1.95,2.39,2.6,2.51,2.41,1,.67,1.26-.13,2.24-.84,2.1-1,1-1.33,2.17-1.52,2.86-2.38,1.67-2.6.89-2,.79-1.18v-2.32l-1.92-2.93-2.66-3.84-3-2.85-4.56-2.48-6-2.79-2.34-1.82-.25-3.5-.37-3.46-.76-1.39L265,271.58l-5.15-.94-2.55-.85-1.08-1.35-1.49-2.05-.54-1.44-1.67-1.29-3.64-.73h-4.23l-2.07-1.59-2.4-1.52-3.73-4.59L231,248.83l-.45-1.94.44-2.65.1-2.19-.16-2.35-2.7-2-15-9-1.1-2.33-.38-2.8,1.29-3.77.51-3.77.51-2.36.29-2,.21-2.28.74-1.84-.69-3.26-2.16-3.86-1.59-1.68-2.2-1.31-2.33-1.72-.83-2.84-1.08-2.67-.36-1.9-1.56-2.57-2.43-3-5.44-3.11-3.74-3.28-.59-2.85-.33-1-2.5-.37h-4.12l-1,1.37-2.63,1.77-2.54,1.21-3.42-.51-4.36-2.18-1.92-2.28h-1l-2.79,1-2.31-.43-3-2.08-2.87-1.63L151.07,167,149,164.81l-.67-3.31.94-2.83.67-2.45-.71-1.82-2-3.54L144,147.67l-2-3.7-2.64-3.87L135.7,138,135,135.8l-.88-1.61-2.3-1.45-2.24-2.24-2.37-.44-2.78-1.33L123,127.58l-1.17-1.76,0-2.71.37-2.24-.39-2.75v-.59l-.47-.25-1.61-.51h-2.26l-2-2.85-.8-2.91-2.27-2.72-3.4-2.63-3.52-2.15-5.7-2.26L97,99.32,95.67,97l-1.4-3.8L92.54,90l-3-3.7-1.07-3.43V72.53l-1.16-3.58-.87-2.24-.77-4.41L87.18,57l2.15-5.43,1.91-5,1.19-4.87.6-4L93.22,34l-.65-2.69.76-3.24V26.47l-.56-2.07-1-3.11-.5-5.46-1.45-4.05-1-2L88,9.46h-.86l-.48,1v2.25L84.56,13.8,83,14.53,81.71,16l-1,1.37-.82,1.83-.65,2.16L77.3,24.21l-3.41,3.37-3,1.92-3.76,1.88-1.3,2v3l-.74,2.23.36,1.09.88,2.42.23,4.18-.69,3.47-1,1.7-.41,1.39v3.7l-.84,2.71,1.26,3.34,1.61,4.93-.87,2.38L66,72.68l-.16,1.71L63.82,77l-1.27,3.45v4.86l-1.43,2.32L60,89.09V96l1.47,2.76,2.23,3.67-.12,4.77-1.42,3.62-1.25,3,.66,2.07.85,2.43-.48,1.73.83,1.58-.17,3.79L61.31,130l-.2,4.65-.33,4-.67,1.52.47,1.26.38,2.12-1,2.58,0,1.5-.37,1.58v1.12l3.19,8.55,1.76.83,1.75,2.45,3.7,4.75.87,2.5v2.75l-1,2.71-1.67,2.9.28,1.2.77,2.75-.31,3-1,3,.81,1.54v2.6l-1.06,3.58-1.39,2.92,1.41.54,2.29,1.71,1.71,1.81,1.23.74,2.71.87,2.33.9,1.74,2.63.92,2.56.84,2.73.62,2.62,3.5,2.39,2.57,2.91.79,2.78-.47,2.66,1,1.69,1.42,2.61.14,2.91L88.81,237l.05,1.11,2.66,2.36.28,1.23L93.75,243l2.43,2.19.48,3.49.43,3.94-.1,2.45.34,2.76.86,1.06,3.91,1.7,2.29,2.17,1.37,2.56L103.69,268l-1.17,1.75,0,1.33-.54,2.09-1.26,2.33-.56,1.91.42,1.41,1.24,1.71,1.18,2.66,2.4,3.68.75,1.66,1.08.31,2.66,2.15,1,2.39.69.84,1.13.89,2.68,1,1.11,3.22,1.59,3.24,1.53,5.34,2,1.78,3.3,1,5,.74,3.5,2.1,2.94,3.28,2.14,4.47.28,1.2.68.45,3.17,1.5,2.84,2,2.19,2.53.5,2.39,4.73,4.53,1.32,3.75Z"/></svg>