<svg id="Layer_1" data-name="Layer 1" xmlns="http://www.w3.org/2000/svg" viewBox="0 0 350 350"><defs><style>.cls-1{fill:#999;}.cls-2{fill:#f90;}</style></defs><title>M</title><path class="cls-1" d="M13.51,264.13c0-.22.09-.43.14-.64a26.15,26.15,0,0,0,4,6,4.17,4.17,0,0,0-.47-1.54,1.56,1.56,0,0,1-.14-.18l-.91-.87a1.71,1.71,0,0,1-.61-2.31,6.8,6.8,0,0,1,1.11-1.44,5.82,5.82,0,0,1,.57-1.09,4.36,4.36,0,0,0,.89-2.52c.61-.68,1.27-1.32,1.91-2l3.73-2.43a3.12,3.12,0,0,0,.76,0c8.57-1.3,7.64,9.81,11.09,14.61,3.1,4.31,9.81,4.9,14.64,4.3a3.19,3.19,0,0,0,2.56-1.79c2.67.65,8.1-1.85,9.28-4.08a7.63,7.63,0,0,1,9.86-3.77c.17.07.46-.15.78-.26v-2.3c2.34,1.5,4.36.89,4.22-1.78-.27-5,4.35-9.8.59-14.95-.36-.49.52-1.75.41-2.61-.07-.56-.88-1-1.33-1.53h0l-.19-.15,0,0,0,0,.14.21a11.38,11.38,0,0,0,2.67-.82c.44-.26.87-.55,1.3-.84a.46.46,0,0,0,0,0,8.77,8.77,0,0,0,.94,3.16c.06.21.11.43.17.62a12.94,12.94,0,0,0,1.28,3.73c1.76,4,3.87,4.59,7.78,3.05,3.29,2.78,2,7.48,6.29,10.56s9.18,3.94,13.22,6.9c1.29.94,4.08.68,5.8,0,2.54-1,2.38-1.34,4.52-.6.73.25,1.7.66,2.25.38,3.34-1.7,7-3.12,9.69-5.58a2.92,2.92,0,0,0,.76-1.32,29.33,29.33,0,0,0,3.85-3.56c.36-.4.71-.82,1.06-1.26l.11-.07a.52.52,0,0,0,.26-.39l0,0,4.19-4.23c.11-.09.23-.17.34-.27,1.87-.75,4.23-.74,6-1.67,3.16-1.61,6.16-3.51,9.21-5.33l1.64-1a7.61,7.61,0,0,0,5.1-2.63l.13-.05a3,3,0,0,1,1.32.41l-.09.06,4.5,6.47a17.24,17.24,0,0,0,1.58,2.84,2.93,2.93,0,0,0,1,.86l1.29,1.85,1.09-.76-.76-1.07c.07,0,.15-.09.22-.12a2.89,2.89,0,0,0,1.45,0,28.17,28.17,0,0,0,5.79-2.14c3.63-1.7,5.11-1.53,8.86.42,4.36,2.27,8.6,1.27,12.19,4.92,1.26,1.29,2.44,3,3.73,4.46a8.43,8.43,0,0,0,2.68,2.48,7.65,7.65,0,0,0,.86.52,8,8,0,0,0,3.38.77l6,7.84h-.08c-.72-.06-.72,1.06,0,1.13a7,7,0,0,0,1,0l1.09,1.42,1.09-.87-.68-1a2.39,2.39,0,0,0,.7-1.78l.06.16.23-1.15a2.73,2.73,0,0,0,1.29-.36c.29-.16.56-.35.84-.52l.74.1a13,13,0,0,0,2.66-.26l.14,0a11.68,11.68,0,0,0,3.22-.28,37.53,37.53,0,0,0,2.94,5.67c3.58,5.14,7.4,10.1,11.14,15.13.62.83,1.32,1.6,2.17,2.63l7.77-5.13a7.49,7.49,0,0,0,3.16,4.25,4.25,4.25,0,0,0,1.25.5.49.49,0,0,0,.67.44l1.12-.4a18.43,18.43,0,0,0,2.73-.78l.05,0c2.84-.28,5.94.09,8.55-1.2,1.21-.6,2.14-1.65,3.33-2.27s2.46-1,3.72.38c.3.34.36.87.68,1.19.83.82,1.44.62,2.19-.25a5.76,5.76,0,0,0,1.07-3.7c.2-.44.38-.89.55-1.34,2.37.27,2.67,4.08,5.69,4a3.38,3.38,0,0,0,1.06-.22l.07.12.29-.29a11.62,11.62,0,0,0,3.73-3.63,17.5,17.5,0,0,0,1.68-2c4.05-5.64,5.7-7.14,8.31-4.75.28,1.25.59,2.4-.41,3.63-.75.92-1.78,1.56-2.51,2.53a10.15,10.15,0,0,0-2.14,6.56,20.07,20.07,0,0,0,1.13,5.87l-2.88-3.89-1.07.64,7.32,10,.67-.49h0a.57.57,0,0,0,.8,0c.88-1.09,3.47-4.06,4.13-.58.18,1-.41,2-.1,3a2.56,2.56,0,0,0,.32.64v2l2.71.18a.46.46,0,0,0,.63.28l.51-.2.25,0a25.79,25.79,0,0,0,1.93-2.55,1.48,1.48,0,0,0-.47-2.16l-1.86-10.74c4.72-.81,0-3.46-.12-5.78l6.37-4.67c-2.7-7-2.58-6.72,4.69-10.22,5.12-2.47,9.85-5.73,15.14-8.88l-7.45-11c.85-2.27,2.35-4.4,1.82-5.18-1.92-2.88-2.3-6.3-3.72-9.14-2.69-5.38-6.67-10.11-10.13-15.1-.28-.4-.64-1-1-1-3.32-.59-6.7-.89-10-1.68-2.06-.49-4.4-1.21-5.81-2.63a45.49,45.49,0,0,1-5.6-7.83c-1.9-3-3.61-6.11-5.1-8.65,3.45-3.09,6.4-5.73,9.34-8.39,1.15-1,2.11-2.47,3.45-3.11,3.25-1.53,6.67-2.7,10-4-.94-3.38-1.9-6.94-.76-7.84,3.85-3,2-6.46,1.78-9.84,2.67-1.91,5.14-2,7.54.47.42.43,1.7.7,2,.42a3.2,3.2,0,0,0,1-2.31c-.45-4.48.49-5.53,5-5.35,1.73.07,3.46,0,5.6,0,.23-4.19-2.76-7.74-4.86-11.24-1.36-2.27-2.87-7.09-5.11-8.48a2.45,2.45,0,0,0-1.56-.37l-5.52,8.13c-.31-.55-.66-1.07-1-1.57-.34.51-.65,1-.93,1.3a2.83,2.83,0,0,1-4,0c-4.19-4.45-6.83-10.29-10.22-15.34-.59-.88-1.53-2.51-2.6-3.93-2.94-.35-5.29,1.1-7.43,4.65,0,.19-.08.37-.12.53a2.53,2.53,0,0,1-1,1.48v0h0a2.93,2.93,0,0,1-4.46-1.49c-1-3.56-2.15-6.55-1.25-10.27a21.5,21.5,0,0,1,4.25-8,12.6,12.6,0,0,1-3.4-2.28c-2.49-.73-5-.14-7.42,2.63a2.35,2.35,0,0,1-1.55.84l.57,1.24c-.25-.42-.5-.83-.75-1.23a3.29,3.29,0,0,1-3-2.1c-1.75-4.56-2.68-9.47-5-13.77-.9,2.53-2.75,5-4.06,7.52-1.89-1.14-3.1-1.59-3.92-2.41-2.65-2.66-6.66-4.41-5.11-9.65,1-3.42-.64-6.67-3.81-8.45a32.79,32.79,0,0,0-8.56-3.47c-2.66-.62-3.5-2-2.62-4.22-1.8,1.44-4.9,3.25-7,5.84a8.43,8.43,0,0,0-.88,1.33c-.05,1.2-.08,2.5-.16,3.35a2.89,2.89,0,0,1-2.15,2.56c-.19.52-.4,1.06-.63,1.62,0-.52,0-1,0-1.5a2.41,2.41,0,0,1-2.85-2.67c.39-4-.3-8.42,3.28-11a21.51,21.51,0,0,0,3.65-3.47l-1.63-2.51-.43-.41a111.19,111.19,0,0,1-10.61-4.05,2.19,2.19,0,0,1-.46-.32,8.26,8.26,0,0,1-3.66-.07,5,5,0,0,1-1.18-.68L185.43,53.13l-8,3.78c-.44-1.75-.75-3.28-1.22-4.75a10.33,10.33,0,0,0-1.14-2l-1.87,1.75-3.81-6.85c-1.86,2.49-3.58,5-5.57,7.36-1.36,1.57-3.52,4.2-4.59,3.89-2.12-.62-3.73-3-5.79-4.81l-1.39.29a22,22,0,0,1-2.61,1.47,3,3,0,0,1-3.19-.24l-1.14.24A27.91,27.91,0,0,0,142.5,56a2.84,2.84,0,0,1-4.43-.57,9.86,9.86,0,0,1-1.33-4.56,2.57,2.57,0,0,1,.34-1.52c-6.37-1-10.24,4.67-15.07,7.82-.69.45-1,1.55-1.41,2.36-1.53,2.82-3.05,5.65-4.79,8.86l9.68,8.47.61.79c-1.65,5.91-2.54,6.42-8.24,6.56a18.36,18.36,0,0,0-7,1.51c-2.75,1.25-5.06,3.44-7.79,4.73S99,93.5,99,96.66s.26,6.84-1.32,9.05c-2.52,3.5-2.24,6.92-2.41,10.66-.08,1.7-1.3,4.56-2.46,4.81-6.73,1.47-6.84,10.28-13.41,11.65-.17,0-.27.44-.38.68a34.08,34.08,0,0,0-2.19,5,9,9,0,0,0,.21,3.58c.17,1.12.52,2.22.81,3.33s.21,2.44.84,2.83c3,1.86,2.3,3.77.6,6-.6.8-.69,2-1.15,2.92a36.47,36.47,0,0,1-2,3.49c-.93,1.46-2,2.86-2.89,4.32s-1.54,3.93-2.88,4.48c-2.56,1-5.55,1-8.5,1.49-.93,3.1.39,6.81-3.37,9.43-2.79,2-4.7,3.49-8.23,1.76-1.85-.9-4.42-.66-6.61-.44a27.58,27.58,0,0,0-7.89,1.71A30.55,30.55,0,0,0,29,187.82a45.26,45.26,0,0,0-4.26,4.33c-1,1.65-1.46,3.87-2.29,5.93-1.1,2.72-2.59,5.27-3.8,8q-2.4,5.33-4.58,10.75a11.64,11.64,0,0,0-.39,2.88,12.86,12.86,0,0,0,3-.22c3.69-1.15,7.33-2.44,11.2-3.74,1.24,3,1.64,6,3.34,7.6,2.26,2.14.77,3-.16,4.61s-1,3.52-1.7,5.23-1.24,3.71-2.47,5a8.23,8.23,0,0,1-4.68,2.24c-5.44.62-6.82,4.61-8,8.9-.27,1-.5,2-.81,3.21l-4.54-1.33c-.15.73-.47,1.31-.32,1.71C10,256.73,10.69,261,13.51,264.13Zm314.33-3.86,3.08,4.91c-3.32-.69-6.08,4.57-8.68-1.07Z"/><path class="cls-2" d="M14.74,264.47l.14-.64-2.33.3a33.75,33.75,0,0,0,4.19,6.28c.83,1,2.49-.07,2.13-1.24-.29-.94-1.17-1.93-1.4-2.73-.53-1.87.58-3.22,1.5-5,2.1-4.14,7.5-7.39,10.88-2.66s2.18,11.27,8,14.66a18.91,18.91,0,0,0,9.83,2.09c2.7-.06,3.87-1.05,6.09-1.87,3-1.1,5.71-1.07,8.26-3.44,1.79-1.66,2.64-4.15,5.26-4.9,2-.58,3.83.72,5.76.08a1.31,1.31,0,0,0,.94-1.23v-2.3L72,263c6.52,3.31,5.85-3.61,7.1-7.95a15.27,15.27,0,0,0,.41-8.82c-.67-2.76.08-4.11-2.08-6.09l-.56,2.13h0c.83-.24,1.35-1.52.56-2.13l-.19-.15v1.8a2.2,2.2,0,0,0,.25-.32h-2.2l.14.21a1.32,1.32,0,0,0,1.44.59,12.49,12.49,0,0,0,4.27-1.8l-1.92-1.1c-.25,2.72,2.19,8.58,4,10.65a5.47,5.47,0,0,0,3.17,1.92c2.82.55,4-1.38,5.45,2.41,1.75,4.63,3.52,7.15,8.13,9.42,3,1.47,6,2.71,8.87,4.32a7.41,7.41,0,0,0,4.89,1.17c2.38-.23,4-1.44,6.43-1.19,2.21.23,2.56.5,4.68-.46,6-2.72,9.64-6.22,14-11.08a33.46,33.46,0,0,1,3.69-3.8c2.15-1.71,4.65-1.73,7.19-2.8,3-1.27,5.6-3.35,8.45-4.88.61-.33,7-3.88,8-3.57l-.3-2.33-.09.06a1.29,1.29,0,0,0-.46,1.75l8.37,12a1.29,1.29,0,0,0,1.75.46l1.09-.76a1.29,1.29,0,0,0,.46-1.75l-.76-1.07-.46,1.75c1.09-.61,3.62-.59,5-1.15,2.46-1,4.77-2.45,7.55-1.75,2.17.55,4.15,1.94,6.35,2.53,2.92.78,5.7,1.11,8,3.3,2.51,2.36,4,5.69,7.1,7.4,1.41.78,3.1.91,4.39,1.93,1.89,1.5,3.47,4.54,5,6.48l1.1-1.92a2.51,2.51,0,0,0-1.21.42,1.27,1.27,0,0,0-.63,1.1c0,2.05,1.68,1.62,2.7,3a1.31,1.31,0,0,0,2,.26l1.09-.87a1.28,1.28,0,0,0,.2-1.55c-.32-.48.05-1.34.14-1.81h-2.46l.06.16c.41,1.05,2.19,1.36,2.46,0s3.38-1.14,4.2-1.2c3.81-.27,3.59,1.68,5.52,4.67a174.57,174.57,0,0,0,13.51,18,1.28,1.28,0,0,0,1.55.2l7.77-5.13-1.87-.76c.9,2.24,2.78,5.39,5.35,6,1.34.3,2.43-.27,3.75-.61,2.32-.59,4.53-.43,6.91-.82,2.23-.36,3.19-1.2,5.06-2.13,4.17-2.08,3.19.36,5.9.94,3.58.77,3.7-4.47,4.56-6.56l-1.57.89c1.67.53,2.4,2.74,4,3.51.7.35,2.89,1.16,2.1-.23a1.29,1.29,0,0,0,2,.26,59.59,59.59,0,0,0,5.7-5.89c.78-1,1.89-3.12,2.85-3.7q1.48-2.37,2.42,1.62a9.84,9.84,0,0,0-1.29,1.24c-1.17,2.21-2.49,3.51-2.82,6.14a19.12,19.12,0,0,0,1.08,8l2.33-1-2.88-3.89a1.31,1.31,0,0,0-1.75-.46l-1.07.64a1.28,1.28,0,0,0-.46,1.75l7.32,10a1.29,1.29,0,0,0,1.75.46c.42-.3-1.57-.12-.46-.43.19-.05.52.37.72.25s1.64-.78,1.7-.79c1.09-.23.05-1.41,1.23-.33.72.66.3,1.57.43,2.42a15.25,15.25,0,0,1,.28,2.35,1.3,1.3,0,0,0,1.28,1.28c3.25.22,4.81,1.14,6.66-2.25a4.5,4.5,0,0,0,.7-3.18c-.55-3.7-1.78-7.58-2.44-11.35l-.89,1.57c1.64-.44,3.08-1,3-2.91,0-1-1-1.54-1.2-2.39-.7-2.35,2.88-3.89,4.77-5.28a1.31,1.31,0,0,0,.59-1.44c-.44-1.15-1.94-3.73-1.57-5,.52-1.83,3.52-2.69,5-3.44,5.48-2.69,10.56-6,15.78-9.18a1.29,1.29,0,0,0,.46-1.75l-4.45-6.55c-1.47-2.16-2.52-3.15-1.84-5.7.89-3.32.7-3.31-.72-6.77-1.85-4.54-3.35-8.49-6.17-12.6-2-2.91-4.29-7.62-7.1-9.77s-7.71-1.5-11-2.3c-6-1.48-8.56-6.42-11.58-11.38-.93-1.53-3.52-4.76-3.16-6.37s3.73-3.66,5-4.76c2-1.82,4.08-4.31,6.37-5.77,2.8-1.78,6.6-2.68,9.71-3.88a1.31,1.31,0,0,0,.89-1.57,17,17,0,0,1-1-4.58c0-1.75.33-1.78,1.25-3.31a8.35,8.35,0,0,0,1.41-3.17c.59-3.33-2.42-6.29,4.81-4.91.82.16,1.17.89,2.17.88,2,0,2.74-1.73,3-3.51.37-2.32-.46-3.59,2.49-4.26,2-.47,4.75.05,6.84,0a1.29,1.29,0,0,0,1.28-1.28c-.19-5.1-3.26-8.5-5.55-12.84-1.82-3.46-2.74-7.49-6.92-8.48a1.32,1.32,0,0,0-1.44.59l-5.52,8.13h2.2l-1-1.57a1.29,1.29,0,0,0-2.2,0c-3,4.26-10.05-9.44-11.14-11.22-1.21-2-3-6.37-5.15-7.34-4.38-2-8.45,4.32-10,7.27h2.2a1.33,1.33,0,0,0-1.75-.46c-1.25.57-3.22-3.22-3.56-4.15a11.58,11.58,0,0,1-.06-6.91,23.06,23.06,0,0,1,3.9-6.92,1.28,1.28,0,0,0-.46-1.75c-2.62-1.26-3.64-3-6.71-2.68s-4.13,3-6.64,3.75a1.3,1.3,0,0,0-.76,1.87l.57,1.24,2.2-1.29A8.64,8.64,0,0,0,281.5,113c-1.82-2.13-2.78-3.14-3.64-5.85a65,65,0,0,0-3.55-9.43,1.28,1.28,0,0,0-2.2,0,85.2,85.2,0,0,1-4.06,7.52l1.75-.46a25.86,25.86,0,0,1-7.06-5.25c-2.67-3.15-.25-6.71-1.46-10.25a9.88,9.88,0,0,0-4.32-5C255,83,245.58,80.66,246.35,78c.28-1-1-2.14-1.87-1.44-2.53,1.92-5.61,3.68-7.51,6.3-1.21,1.66-.65,1.89-1.12,3.78-.44,1.74-2.14,3.6-2.83,5.38l2.51.34v-1.5a1.31,1.31,0,0,0-1.28-1.28c-2.47-.2-1.4-6.33-1.05-7.73.8-3.2,3.93-4.94,6-7.28a1.3,1.3,0,0,0,.2-1.55c-.87-1.34-1.48-2.67-2.82-3.5-2.5-1.56-7.55-3.18-10.31-3.93-5.05-1.37-10.26-2.86-15.4-4.7l-20-7.13c-1.88-.67-4.17-2-6.15-1.72-2.52.41-5.74,2.71-8,3.78l1.87.76c-.61-2.53-1.06-4.83-2.49-7a1.29,1.29,0,0,0-2-.26L172.32,51l2,.26-3.81-6.85a1.29,1.29,0,0,0-2.2,0c-2.08,2.83-4.54,8.12-7.77,9.76-3.65,1.85-4.12-3.51-7.08-3.95a5.31,5.31,0,0,0-2,.47c-1.64.45-3.55.73-5.16,1.06a8.09,8.09,0,0,0-1.78.42,9.16,9.16,0,0,0-1.27,1.14q-2.62,3.79-4.9-3.66a1.3,1.3,0,0,0-1.23-1.61c-5-.4-8.5,2.21-12.21,5.28-2,1.67-3.76,2.64-5.06,4.87-1.81,3.09-3.39,6.37-5.09,9.52a1.3,1.3,0,0,0,.2,1.55l5.32,4.66c1,.89,4.07,2.68,4.36,3.82.89,3.48-3.1,4.94-5.49,5.14-6.41.54-9.84,2.51-15.31,5.74-5.15,3-5.85,4.85-6.06,10.78-.15,4.14-2.35,6.6-3.24,10.45-.76,3.31.5,7.57-2.3,9.9-1.56,1.3-3.41,1.79-4.85,3.35-1.69,1.85-2.7,4.24-4.4,6.06-1.47,1.57-3.54,1.78-4.87,3.29a14.72,14.72,0,0,0-2.6,6.59,21.72,21.72,0,0,0,1.32,7.75c.28.9.66,1.47,1,2.31,1,2.83,1,3.3-.23,5.9-1.61,3.32-3.58,6.11-5.41,9.31a20.05,20.05,0,0,1-1.57,3.11c-2,2.22-6,1.88-8.72,2.23a1.32,1.32,0,0,0-1.23.94c-.88,4-.21,8-5,10.17-3.16,1.42-6-.54-9.22-.56a26.72,26.72,0,0,0-16.76,5.51,26.32,26.32,0,0,0-5.8,5.53c-1.88,2.75-2.55,6.4-4,9.39-2.75,5.86-7,12.46-7.48,19a1.29,1.29,0,0,0,1.28,1.28c5-.08,9.84-2.42,14.52-4L26.63,216a56.19,56.19,0,0,0,2.06,5.73c.75,1.48,2.17,2.79,1.84,4.59-.24,1.27-1.44,3.11-1.82,4.44-1,3.32-1.83,6.75-5.58,8.08-2.78,1-5.13.94-7.19,3.37-2.28,2.68-2.94,6.6-3.76,9.9l1.57-.89L9.2,249.93a1.29,1.29,0,0,0-1.57.89c-1.23,4.4,2.31,10.8,5,14.21,1,1.29,2.8-.52,1.8-1.8-1.77-2.27-5.2-8.58-4.32-11.73l-1.57.89,4.54,1.33a1.29,1.29,0,0,0,1.57-.89c1.42-5.72,2.32-9.76,8.53-11.35a9,9,0,0,0,6.38-5.32c1-2.08,1.35-4.36,2.19-6.47.51-1.27,1.74-2.57,1.88-4a4.19,4.19,0,0,0-.58-2.17c-.57-1.32-1.86-2.46-2.46-3.86s-1-2.92-1.5-4.32a1.3,1.3,0,0,0-1.57-.89c-4.37,1.48-9.19,3.84-13.84,3.91L15,219.66c.44-6,4.51-12.32,7.13-17.73s4.06-10.3,9-14.1a23.3,23.3,0,0,1,16.5-5c3.76.42,5.74,2.06,9.34.12,2.86-1.54,4.88-3.59,5.56-6.8.3-1.41-.08-3.13,1.17-4.19s5.55-.34,7.22-1.37c2.27-1.4,3.06-4.28,4.45-6.45,2.29-3.57,5.34-7.62,6.47-11.74.82-3-1.64-4.33-2.6-6.85a11.77,11.77,0,0,1,.15-9.78c1-2.21,1-1.67,2.8-2.62,2.42-1.27,3.83-3.77,5.33-5.93a12.52,12.52,0,0,1,4.8-4.49A6.43,6.43,0,0,0,94.93,121c2.6-3.29,1.18-8.06,2.48-11.76.67-1.9,1.91-3.42,2.45-5.37a24.54,24.54,0,0,0,.42-5.81c.1-3.13.77-4.56,3.46-6.47a69.13,69.13,0,0,1,6.45-4c4-2.18,8-1.22,12.07-2.45,2.23-.68,3.29-2.17,4.16-4.25,2-4.66-.87-5.6-4.39-8.68-2.42-2.12-4.86-3-3.45-6.21a36.15,36.15,0,0,1,3.73-7.08c3.16-4.06,9.67-8.63,14.76-8.23L135.86,49c-.72,3.27.24,8.8,4.48,9,1.55.09,2.23-.67,3.39-1.52,2.27-1.67,2.53-1.39,5-1.68,1.37-.16,1.36-.83,2.73-1.14,2.8-.64,2.8.72,4.55,2.11,1.27,1,2.54,2.08,4.22,1.69,4-.93,8.18-8.88,10.31-11.77h-2.2l3.81,6.85a1.29,1.29,0,0,0,2,.26L176,51.1l-2-.26c1.28,2,1.69,4.18,2.23,6.41a1.29,1.29,0,0,0,1.87.76,42.25,42.25,0,0,1,5.76-2.73c2.45-.71,4,.06,6.41.92l13.84,4.94c4.69,1.68,9.5,3.17,14.12,5,3,1.21,5.49,1.36,8.42,2.32,2.18.71,10.13,2.75,9.67,5.46-.19,1.1-3.05,2.51-3.78,3.43a9.52,9.52,0,0,0-1.8,3.74c-1,4.1-2,10.52,3.51,11L233,90.83v1.5a1.28,1.28,0,0,0,2.51.34c.7-1.81,2.21-2.54,2.83-4.52.71-2.28.87-4,2.69-5.81a45.14,45.14,0,0,1,4.77-3.6l-1.87-1.44c-.54,1.89-.44,3.47,1.15,4.78s4.12,1.43,5.89,2.1a22.54,22.54,0,0,1,4.73,2.26c3,2.08,3.18,4,3.07,7.75-.21,6.47,4.45,9.72,9.77,12.76a1.29,1.29,0,0,0,1.75-.46A85.12,85.12,0,0,0,274.31,99h-2.2c2,4.09,2.81,8.53,4.58,12.7,1,2.34,3,2.53,4.13,4.4a1.28,1.28,0,0,0,2.2-1.29l-.57-1.24-.76,1.87c1.43-.43,1.89-1.3,3.2-2.11,3.24-2,5.28-.61,8.18.78l-.46-1.75c-3.93,5.28-5.58,10.14-3.87,16.64,1,3.78,2.86,6.74,7.08,4.83l-1.75-.46h0a1.29,1.29,0,0,0,2.2,0c.27-.53.76-1.29,1.1-1.8,2.06-3.16,4.38-5.48,7.11-2,2.85,3.6,4.74,8,7.32,11.83,2.82,4.17,6.75,8.89,10.71,3.3h-2.2l1,1.57a1.29,1.29,0,0,0,2.2,0c1.24-1.82,2.49-4.84,4.19-6.17,2.21-1.73,3.24,1.65,4.17,3.58,2.17,4.49,6.12,8.78,6.31,13.91l1.28-1.28c-3.38,0-9.65-1.46-11.55,2.39-.41.84,0,2.31-.4,3-1.19,2-2.17.5-3.46.39-2.67-.22-4-.31-6.4,1.17a1.25,1.25,0,0,0-.63,1.1c.2,1.58.79,3.51.66,5.05-.51,5.79-2.16,2.29-2.73,5s.4,5.43,1.1,8l.89-1.57c-3.82,1.47-8.57,2.57-11.81,5.19-4,3.25-7.7,7.18-11.56,10.64a1.29,1.29,0,0,0-.2,1.55c3.2,5.51,6.53,13.66,11.84,17.51,2,1.48,4.64,2.05,7.07,2.54,2.18.44,4.53.47,6.66,1,2.38.65,3,2.23,4.36,4.1a106.06,106.06,0,0,1,6.54,9.57c1.68,2.92,4.08,7.73,4.14,11.23,0,2.44-1.61,3.63-.67,5.86,1.52,3.6,4.85,7.14,7,10.37l.46-1.75c-4.28,2.57-8.45,5.36-12.87,7.71-2.45,1.3-5.94,2.26-7.93,4.3a4.14,4.14,0,0,0-1.25,3.43c.06,1.11,1,2.3.95,3.33-.1,2.23-3.33,3.69-5.11,5a1.33,1.33,0,0,0-.59,1.44c.27,1.08,2.47,3.82,1,4.22a1.31,1.31,0,0,0-.89,1.57c.6,3.49,1.91,7.51,2,11,.08,4-1.65,2.7-4.45,2.51l1.28,1.28c0-2.14.48-6.08-1-7.66-1.73-1.85-5.75.59-4.54,1.7a1.3,1.3,0,0,0-1.55-.2l-.67.49,1.75.46-7.32-10-.46,1.75,1.07-.64-1.75-.46,2.88,3.89c.8,1.08,2.79.51,2.33-1-1-3.32-1.77-7.05.09-10.25,1.06-1.82,3.26-2.87,3.92-4.93s0-4.36-2.16-5.15-3.67.38-5.11,1.82c-3.17,3.16-5.77,6.84-8.94,10l2,.26-.07-.12a1.31,1.31,0,0,0-1.44-.59c-2.38.5-3.88-3-6.07-3.74a1.31,1.31,0,0,0-1.57.89,3.56,3.56,0,0,0-.59,1.68q-.66,4.34-1.57,2.12c-.52-.14-1.13-1.11-1.7-1.33-2.08-.81-3.77.58-5.42,1.63-3.39,2.16-6.38,1.57-10.07,2.27-.74.14-2.62,1.28-3,1.29-1,0-6.75-10.63-4.27-4.45a1.29,1.29,0,0,0-1.87-.76c-1.66,1.1-4.79,4.11-6.8,4-1.57-.07-5.38-6.37-6.46-7.82-3.38-4.53-6.64-8.88-9-14a1.3,1.3,0,0,0-1.44-.59c-3.14.5-5.86.52-8.88,1.35a1.26,1.26,0,0,0-.89.89l-.23,1.15h2.46l-.06-.16c-.41-1-2.2-1.37-2.46,0l-.57,1.47a1.25,1.25,0,0,0,0,1.29l-.2.34,2,.26a8.61,8.61,0,0,0-1.54-1.88c-1.26-.21-.11,1.24-1.52,1.23.88,0,1.71-1.13,1.1-1.92a80.31,80.31,0,0,0-5.48-7.16c-2.14-2.21-1.4-.08-5.22-2.43-4.19-2.58-5.59-7.6-10.49-9.47-2.65-1-5.46-1.3-8.1-2.4-1.88-.78-3.55-1.82-5.67-1.76a12.72,12.72,0,0,0-4.47,1.33,23.77,23.77,0,0,1-3.25,1.36,7.89,7.89,0,0,1-3.35.57c-.27.13-.58.14-.86.3a1.28,1.28,0,0,0-.46,1.75l.76,1.07.46-1.75-1.09.76,1.75.46-8.37-12-.46,1.75.09-.06a1.29,1.29,0,0,0-.3-2.33,4.23,4.23,0,0,0-2.13-.36c-.48.08-1.37,1-1.55,1.12a28.14,28.14,0,0,1-3.71,1.58c-4.78,2.12-8.56,5.72-13.7,7.14-3.72,1-4.83,2.09-7.61,5.06-1.8,1.92-3.77,3.92-5.84,5.86-4,3.76-7,6-12.51,5.87-3.53-.09-6,2.09-9.65.59-3.89-1.59-10.47-4.1-13.4-7.21-2.56-2.73-2.49-6.84-5.16-9.6a1.26,1.26,0,0,0-1.24-.33c-3.33,1.16-5.48-.15-6.76-3.53-.52-1.38-1.92-4.43-1.79-5.86a1.28,1.28,0,0,0-1.92-1.1q-2.45.09-2.36,1.91a1.29,1.29,0,0,0-2.2,0l.15-.19a1.28,1.28,0,0,0,0,1.8l.19.15.56-2.13h0a1.29,1.29,0,0,0-.56,2.13c1.27,1.17.54,1.86.55,3.24,0,2.48,1.73,3.82,1.22,6.51-.34,1.83-1.16,3.55-1.51,5.38-.23,1.19.2,5.15-2.6,3.73a1.29,1.29,0,0,0-1.92,1.1c0,2.5.32,1.13-1.84.7a7.7,7.7,0,0,0-4.45.87c-4.73,2.35-5.89,8.26-12.35,7.57a1.28,1.28,0,0,0-1.1.63c-2.56,3.7-12.1.55-14.35-1.77-1.9-2-2.41-4.77-3.21-7.28-1.06-3.3-2.28-7.11-5.87-8.4-4-1.44-9.13,1.18-11.25,4.74-.76,1.28-1.3,2.92-2.05,4.27a4.43,4.43,0,0,0-.87,1.92c-.21,2.13,1.79,2.91,2.35,4.75l2.13-1.24a30.48,30.48,0,0,1-3.79-5.76,1.29,1.29,0,0,0-2.33.3l-.14.64C11.94,265.4,14.39,266.08,14.74,264.47Z"/><path class="cls-2" d="M326.74,260.92l3.08,4.91,1.44-1.87a7.14,7.14,0,0,0-4.24.85,4.85,4.85,0,0,1-1.74.67c-1.08,0-1.53-1.17-1.95-2l-.46,1.75,5.6-3.84c1.35-.92.07-3.13-1.29-2.2l-5.6,3.84a1.31,1.31,0,0,0-.46,1.75c.89,1.81,2.23,3.47,4.44,3.23,1.7-.18,3.28-1.83,5-1.57,1,.15,2.09-.84,1.44-1.87l-3.08-4.91C328.07,258.24,325.86,259.52,326.74,260.92Z"/></svg>