<svg id="Layer_1" data-name="Layer 1" xmlns="http://www.w3.org/2000/svg" viewBox="0 0 350 350"><defs><style>.cls-1{fill:#999;}.cls-2{fill:#f90;}</style></defs><title>M</title><path class="cls-1" d="M340.37,254.68c-.32-2.42-5-4.83-5-4.83a17.44,17.44,0,0,1-1.93-2.42c-1-1.45-1.61-2.09-4.19-4.19s-6.68-1.13-6.68-1.13l-.64-1.85s-1.77-.89-1.77-1.37-4.11-2-4.11-2l-2.5-5.88-4.67.16-3.38-2.58-5.72-7.89v-4.75c0-.89-.89-1.53-2-2.66s-.81-.81-1.13-1.77-1.21-.56-3-1.93-1.53-2.74-1.53-2.74l1.13-.08a6.23,6.23,0,0,0-.64-2.58c-.72-1.77-2.09.32-2.09-.16s-2-1.53-3.3-2.09a4.38,4.38,0,0,1-2.17-2.17c-.56-.89-2.25-.4-2.25-.4a10.24,10.24,0,0,1-1.85-2.82l-1.37-4.75s-1,.16-1.29.16a3,3,0,0,1-2.17-.72,35.07,35.07,0,0,1-3.14-3.7,33.81,33.81,0,0,1-3.06,1.93,4.26,4.26,0,0,1-3.14.64,3.85,3.85,0,0,1-.4-1,36.74,36.74,0,0,0-2.42-3.87s-1-.32-2.17-.56-1.13-1.53-2.09-2.17-4.83-2.5-4.83-2.5.64-10.07.72-10.71,1.61.4,1.85.32.08-1.85.56-2.9a4.83,4.83,0,0,0,0-3.22c-.24-.48-3.06.24-3.06.24a36.43,36.43,0,0,0-2.09-3.54,13.49,13.49,0,0,1-1-2.5c-.32-.72-4.43,1.21-4.43,1.21v-3.06l-1.85-.81v-4.27l-1.69-.24s-1.45-.16-2.42-.16-4.43-.08-4.43-.08L234,147.82s-.81-.08-1.93,1.13a3.35,3.35,0,0,1-3,.77,5.74,5.74,0,0,0-.48,2.78,3.82,3.82,0,0,1-.08,2.5c-.32,1.29-5.32.56-5.32.56s.81.64,1.45,3.14-5.07,6.6-5.56,7.41-.08,4.27-.16,5.4a12.26,12.26,0,0,1-1,3.06l3.38,4.27s-6.28,1.69-6.28,2-1.13,3.54-.24,5.4,2.74-.64,2.74-.64-.72,1.93-.4,1.93,9.1-1.13,9.1-1.13l-.32,2.5,3.14,1.45-1.45,4a9.81,9.81,0,0,0-2.17.89c-.72.48-.48,3.62-.48,3.62s-2.58-.32-3.78.32a6.11,6.11,0,0,1-2.5,1,11.58,11.58,0,0,1-3.3.08c-.72-.16-1.53-.89-1.53-1.37s-1.61-2.09-2-2.58-.17-1.29,0-1.77-4.59-1.53-4.59-1.53v-1.77a18.44,18.44,0,0,1,1.77-3.38s-2.5-1.69-2.82-1.77-1.77,1.85-1.77,1.85l-2.74-.56s-1,1.37-1.69,2.17a33.41,33.41,0,0,0-2.09,4s-5,1.61-7.25,1.61-7.17-2.42-7.17-2.42-3.87.8-4.83.8a18.69,18.69,0,0,1-3.95-1.29,48.83,48.83,0,0,1,2.66-4.19c.81-1,4.19-6.52,4.19-6.52s-.32-2.42-.08-2.66,0-1.77-.08-2.5a13.38,13.38,0,0,1,.24-2.5l-2.74-1.37.16-2.82-2.66-1.93a13.28,13.28,0,0,1-.4-2.17c0-.64,1.85-2.74,1.85-2.74a22.23,22.23,0,0,1,.08-3.06c.16-1.61,1.29-1,2.5-2a4.66,4.66,0,0,1,3.14-1.21c1.45-.16,2.9-2.34,2.9-2.34l.56-3.06-3.38-.89.16-10.63a11.14,11.14,0,0,0,1.61-1.69c.16-.4,1.45-1,2.09-1.45s2.17-1.37,2.58-1.77a9.21,9.21,0,0,1,2.58-1c1.13-.4,1.93-2.58,1.93-2.82s1.29-19.73,1.29-19.73l6.93-2.34-1.13-7.57s-6.12.24-7.17-2,1.53-2.42,2.58-3.14,1.61-1,1.61-1,.24-3.06,0-3.06-4.27-1.21-5.56-1.61a5.6,5.6,0,0,1-2.34-1.85l-2.09.24c-1.37.16-2.66-2.09-2.66-2.09s-1.77,1.85-3.22,2.09-2.34-3.14-2.34-3.14a23.77,23.77,0,0,1-3.22-3.06c-.81-1.13-4-3.62-5.31-4.67s-2.34-3.7-3.46-1.77l-2.63,4.51s-.43-.08,0,2.09S162.24,86.86,162,87s-3.22,4.75-4.51,6.28a3,3,0,0,1-2.9,1.13,14.73,14.73,0,0,1-2.74-.81c-1-.48-3.38.48-4.51-.32a12.87,12.87,0,0,0-3.46-1.37v4.51a20.72,20.72,0,0,1-3.7.4,16.53,16.53,0,0,0-3.54.64s-2.66-2.66-2.39-5.23.78-7-.11-8.94a17.53,17.53,0,0,1,0,3.87,5.75,5.75,0,0,1-2.17-.72A12.88,12.88,0,0,1,129.38,84l-3.22.89-.81,3.54-4.67.24a4.34,4.34,0,0,0-1.13-2.66,15.85,15.85,0,0,1-2.25-3.22l-4.59.72-3.38-9.66,9.42-3.46-1-6.2-2.34-.16a29.32,29.32,0,0,0,0-3.06c-.08-2,.08-4-.72-6.2s-5.15-2.5-5.15-2.5-.48-.4-1.77-1.53-4.27-.48-4.27-.48l-.72,1.93a12.37,12.37,0,0,1-3.7-.08c-2.66-.32-2.58-2.58-2.34-4.19s1.69-6.76,1.69-6.76-1.61-2.66-2.09-3.78a29.47,29.47,0,0,1-1-3.78L89,34.6s-.24,5.88-.08,7.25a44.9,44.9,0,0,1-.16,6.84c-.16.4-5.8,3.3-5.8,3.3l-2,3.14c-.16.24-2.26,5.56-2.26,5.56s3.22,3.22.89,3.22-3.14-.08-3.14-.08S75,65.92,75.59,67a23.37,23.37,0,0,1,1.13,3.06l.89.4.16,3.54s1.61,2.09-.08,2.5c.64,4.51.24,9.42-.64,10.15,4.27,2,7.17,5.4,8.54,5.4A11.91,11.91,0,0,0,88,91.85s.32,2.25,1.69,2.17a21.15,21.15,0,0,0,2.58-.32l-.32,2.82-5.31,2.42s-1.77,3.3-3.06,3.79S80.82,101.6,79,102s-5.15,2.82-5.15,2.82l-3-1.53-.72-.08-2-4.27s-8.7-4-10.63-3.06-2.5,2.25-.89,3.46a20.1,20.1,0,0,0,4.27,2.17l5.88,1.21-.24,2.74-3.78-.24-1,2.82a26.55,26.55,0,0,0-4.35-.81c-1.29,0-5.56-.16-5.56-.16s-2.9,1-3.78,2.09a15.2,15.2,0,0,0-1.77,3.38l.4,1.61,1.45.72s-4.11,2.09-3.62,4.35.89,3.54.89,3.54l-7.73.64S35,119.88,33,119.47s-10.23.32-10.23.32.32,5.64.32,6.68-.24,4.19.72,5,3.14,1.69,3.22,4.27.16,3.87.16,3.87a3.26,3.26,0,0,1-.81,3.14c-1.37,1.29-2,1.53-2.34,1.37a7.18,7.18,0,0,1-1-1.77l-3.38.64-1.77-1.37a19.29,19.29,0,0,0-2.66,1.61c-.48.48-.48,2.34-.48,2.34l-1,.08-2.58-.24-3.62-.08s-1.53,2.66-1,4A16.14,16.14,0,0,1,7.78,155c0,2,.24,2-.64,3.62l-.89,1.61.24,1.61s3.38-1,3.38.08,1.13,1.29,3.38.32a10.15,10.15,0,0,1,4.43-1c.81,0,1.77-.24,2.82-.32s5.48.16,5.48.16-1-2.82-.4-3.54.89-1.77,1.45-1.85a4.87,4.87,0,0,0,2.17-1.21l1.21-1.45L31.78,155s.89-2.74,2.5-2.09.72,3.38.72,3.38l3.38.32s1.45-1.21,1.77-1a9.74,9.74,0,0,1,1,2l-2,2.74-.72,2-2.25,1.45s3.78,5.4,3,6.76-.24,4.59-.08,5.48.4,2.25.4,2.25-3.7,3.3-4.27,3.62-1.61.89-1.61.89,1.21,2.42,2.17,2.17a6.15,6.15,0,0,1,2.5-.4c.64.16.48-.32.64.16s.32,5.15.32,5.15l4.27,6.2,6.68-10.39-1.61-1.61s.81-3.87,1.77-4a15.51,15.51,0,0,0,3.06-1.29l3.7,6.85s1.13-1.93,1.53-2.74,2-.32,2-.32-.16,5.23-1,6a5.67,5.67,0,0,1-1.37,1l-2,1.53-.08,1.53-6.44,3.54,1.29,6.6,3,1.53-1.85,1.37s-4.27,3.87-4.91,5a7.49,7.49,0,0,1-2.82,2.09l-3.38-.16s-.32,3.54-.32,4.59,1.45,3.3,1.45,3.3,3.62,4.51,4.11,6.36,2.82,4.35,1.69,8.05l-.4,1.21s.32,3.54-.72,4.43-2.5,1.45-2.82,1.93,0,.08-.64.64-.64.72-1.29,1-2.25.81-2.25.81-2.82.4-3.95-.4a5.59,5.59,0,0,0-3-.72L30,245l-1.21,1.45.48,6.76s7,.89,8.37,1.29S50,258.79,50,258.79a3.08,3.08,0,0,1,3.54,3.14,13.24,13.24,0,0,1,13,.89l5.07,3h3.95s1,6.12,1.29,7.73.64,6.76.64,6.76l10.63,1.45.81,2.9s19,3.87,31.57,8.7a207.57,207.57,0,0,0,24.32,7.57l.16,5.64,1.29,2.74,3.54,1.61c-.16-1.77,3.38-1.61,2.25-2.42s.32-3.54.32-3.54l3.7.16.32-6.12s11.44.48,13.85.16,3.87,1.29,6.76,1.13,3.22,2.25,5.15,2.25,2.58,2.26,2.58,2.26l5.31,2.42a26.09,26.09,0,0,1,8.86,7.09l.64-4.83s1.13-4,3.7-5.64c-.64-2.09,1.77-1.45,1.45-4.83,3.22-2.25,7.25.64,7.25.64s4.83,1.61,6.44,1.13,11.44,5.64,11.44,5.64l.32-1.93,4-.16,11.27,10,21.42-2.9,16.27,5,24.64-7.25,15.46,3.7.16-2.74s0-5.31-.32-7.73a13.06,13.06,0,0,0-1.45-4.35l-1.29-1.13s-.16-1.13-.32-2.09a5.52,5.52,0,0,0-1.13-2.09s-.32-1.61-.48-2.9a5.81,5.81,0,0,0-.81-3.06c-.81-1.45,0-1.61,0-2.25a18.52,18.52,0,0,0-.32-2.26c-.16-1.13,1.29-1.93,1.61-2.58s.81-2.58,1-3.06.81-2.09.81-2.09a26,26,0,0,1-.48-3.87c0-1.45,3.22-2.58,3.22-2.58h4.19l1.61-4.19,4.83-1.13a6.39,6.39,0,0,1,2.9-3.87c2.42-1.45,6.76,0,6.76,0A13,13,0,0,0,340.37,254.68Z"/><path class="cls-2" d="M199.91,317.86l-2.08-2.73a24.85,24.85,0,0,0-8.32-6.65l-5.91-2.69-.18-.63s-.39-1.23-1.21-1.23a4.28,4.28,0,0,1-2.91-1.33,2.65,2.65,0,0,0-2.16-.92A10.25,10.25,0,0,1,173,301a5.53,5.53,0,0,0-2.57-.44c-2,.27-9.47,0-12.7-.09l-.32,6.13-4.14-.18a3.63,3.63,0,0,0-.25,1.06,1.65,1.65,0,0,1,.64,1.52c-.13,1-1.06,1.37-1.68,1.6a5.2,5.2,0,0,0-.78.34l.21,2.28-6.24-2.83-1.64-3.48-.14-4.85A213.37,213.37,0,0,1,120,294.66c-12.31-4.73-31.15-8.59-31.34-8.63l-.85-.17L87,283l-10.86-1.48-.07-1.16c-.09-1.41-.37-5.33-.62-6.57s-.81-4.72-1.11-6.59H71.25L65.76,264C61,260.7,56,262.36,54.1,263.22l-1.95.88,0-2.14a1.81,1.81,0,0,0-.48-1.36,2.23,2.23,0,0,0-1.5-.4l-.31,0-.31-.1c-3.78-1.33-11.19-3.93-12.25-4.25s-5.49-.91-8.15-1.24L28,254.5,27.34,246l1.79-2.15,3.53-1.53h.26a6.86,6.86,0,0,1,3.87,1,6,6,0,0,0,2.79.17l2.09-.75a.71.71,0,0,0,.36-.25c.13-.12.28-.27.49-.46l.35-.29,0-.07a4.66,4.66,0,0,1,1.63-1.27,10.56,10.56,0,0,0,1.45-1,8.25,8.25,0,0,0,.23-3.22l0-.29.5-1.49c.64-2.12-.15-3.73-.91-5.3a10.8,10.8,0,0,1-.81-2c-.28-1.08-2.41-4.06-3.84-5.83l-.09-.12c-.5-.78-1.67-2.75-1.67-4.07,0-1.08.29-4.35.33-4.72l.12-1.35,4.38.21a5.46,5.46,0,0,0,1.87-1.36c.7-1.23,4.15-4.4,5.19-5.34l.12-.1-1.56-.8-1.62-8.29,6.66-3.66.07-1.4,2.84-2.1h0a4.69,4.69,0,0,0,.88-.62,11.7,11.7,0,0,0,.44-2.5c-.37.66-.71,1.24-.74,1.28l-1.27,2.18-4.25-7.85a12.41,12.41,0,0,1-1.88.73,10.62,10.62,0,0,0-.8,2.26L52,185.56,43.57,198.7l-5.71-8.3V190c0-1.39-.12-3-.19-4-.27,0-.65.15-.93.23l-.58.15c-1.81.45-3.15-1.63-3.79-2.92l-.62-1.23L33,181.6s1-.55,1.58-.87c.31-.2,1.92-1.59,3.44-2.93l-.26-1.47c-.54-3-.48-5,.17-6.3-.05-.78-1.36-3.29-2.83-5.38l-.85-1.21,3.09-2,.63-1.75,1.65-2.25h0l-.29.23-.45.38-5.73-.54.54-1.68a3.26,3.26,0,0,0,.12-1.57,3.45,3.45,0,0,0-.65,1.15l-.87,2.69-1.94-2.74,0,0A6.31,6.31,0,0,1,27.57,157c-.07.12-.17.28-.24.4a9.49,9.49,0,0,1-.51.83,8.87,8.87,0,0,0,.5,2.37l.68,2-2.1-.11c-1.68-.09-4.59-.21-5.29-.16-.43,0-.84.1-1.23.16a11.46,11.46,0,0,1-1.69.17,8.73,8.73,0,0,0-3.87.85c-2,.87-3.41,1-4.36.34a2.16,2.16,0,0,1-.84-1.06,10.07,10.07,0,0,0-1.7.36l-1.58.49L4.78,160l1.12-2A2.47,2.47,0,0,0,6.38,156c0-.29,0-.63,0-1.06a15.16,15.16,0,0,0-1.18-5.1c-.77-1.87.61-4.51,1-5.27l.42-.73,4.56.1,2.17.2a3.52,3.52,0,0,1,.81-2,16.38,16.38,0,0,1,3-1.87l.8-.42,2,1.53,3.85-.73.46,1c.1.21.21.44.31.65.2-.16.47-.38.8-.7a1.84,1.84,0,0,0,.42-1.7l-.06-.32s-.08-1.3-.16-3.91c0-1.26-.79-1.87-1.93-2.66-.29-.2-.56-.39-.78-.57-1.25-1-1.3-3.23-1.24-5.56,0-.2,0-.38,0-.52,0-.83-.23-5-.32-6.6l-.08-1.37,1.37-.12c.86-.08,8.48-.73,10.63-.3,2,.39,4.1,2.67,5.1,3.86l5.29-.44c-.14-.54-.29-1.2-.46-2-.41-1.91,1-3.51,2.3-4.58l-.62-2.49L45,112a16,16,0,0,1,2-3.79c1.08-1.27,3.84-2.32,4.39-2.51l.26-.09H52s4.26.16,5.5.16a18.75,18.75,0,0,1,3.43.54l.9-2.62,3.48.22v-.1l-4.84-1a21.33,21.33,0,0,1-4.63-2.37,3.13,3.13,0,0,1-1.5-2.83c.07-.83.59-2,2.6-3,2.21-1.11,8.38,1.43,11.86,3l.47.22,1.89,4,.2,0,2.46,1.26a18.89,18.89,0,0,1,4.95-2.55,5.47,5.47,0,0,1,3.33.48,3.82,3.82,0,0,0,1,.3,10.57,10.57,0,0,0,2.31-3.13l.23-.42,5-2.28,0-.2-.88.07a2.88,2.88,0,0,1-2.79-2,14,14,0,0,1-1.4.07c-1.13,0-2.21-.83-3.85-2.08A29.18,29.18,0,0,0,76.43,88l-2-1L76,85.68c.42-.82.83-4.76.23-8.92l-.18-1.28.78-.18a2.86,2.86,0,0,0-.23-.37l-.27-.35-.14-3.12-.69-.31-.18-.62a21.5,21.5,0,0,0-1-2.82c-.87-1.74.54-4,1-4.66l.48-.69.83.08s.51,0,1.82.07a10,10,0,0,0-.71-.79L77.07,61l.34-.86a58.6,58.6,0,0,1,2.4-5.82l2-3.12.21-.32.34-.17c2-1,4.25-2.25,5.12-2.8A51.36,51.36,0,0,0,87.55,42c-.17-1.44,0-6.86.07-7.47l0-1.17L96.42,32l.28,1.31a27,27,0,0,0,1,3.52c.36.85,1.57,2.89,2,3.61L100,41l-.17.59c-.4,1.41-1.47,5.34-1.65,6.59-.06.41-.25,1.64.15,2.16a1.37,1.37,0,0,0,1,.41,17.5,17.5,0,0,0,2.52.15l.68-1.82.76-.16c.61-.13,3.76-.72,5.5.8l1.42,1.23c1.45.17,5,.84,5.9,3.37a15.71,15.71,0,0,1,.78,5.46c0,.39,0,.79,0,1.18,0,.71,0,1.32,0,1.8l2.11.15,1.32,8.47-9.2,3.38L113.66,82l4.42-.7.48.89a13.89,13.89,0,0,0,2,2.85,5,5,0,0,1,1.32,2.22l2.37-.12.76-3.32,4.93-1.35.58.71a11,11,0,0,0,2.18,2.08l.16.09a14.76,14.76,0,0,0-.1-1.83l-1.08-9,3.78,8.24c.93,2,.66,5.59.26,9.36l0,.31a5.63,5.63,0,0,0,1.47,3.5c2.35-.58,3-.51,3.35-.44a14.06,14.06,0,0,0,2-.22V90.13l1.75.42a13.78,13.78,0,0,1,4,1.59,4.68,4.68,0,0,0,1.6,0,5.15,5.15,0,0,1,2.68.19,12.94,12.94,0,0,0,2.41.7,1.6,1.6,0,0,0,1.55-.65c.69-.82,2-2.73,3-4.13,1.43-2.08,1.53-2.21,1.84-2.42l.28-.16c3.11-1.7,3-2.66,3-2.67-.34-1.83-.25-2.73.34-3.32h0l2.48-4.25a2.45,2.45,0,0,1,1.92-1.38c1.26-.08,2.08.92,2.8,1.82a7.06,7.06,0,0,0,.86,1l.67.54a32.58,32.58,0,0,1,4.91,4.41,21.26,21.26,0,0,0,3,2.78l.37.29.12.45a6.19,6.19,0,0,0,.93,2.05A7.4,7.4,0,0,0,185,85.72l1.31-1.36L187.3,86a3.56,3.56,0,0,0,1.31,1.39l2.06-.24.82-.09.48.67a4.07,4.07,0,0,0,1.61,1.33c1.49.46,4.61,1.39,5.26,1.55h.49l.45.47c.37.4.62.67.35,4.12l-.06.75-.65.37s-.54.31-1.51,1a6.44,6.44,0,0,1-1.26.63,5.05,5.05,0,0,0-.94.46,1.39,1.39,0,0,0,.11.29c.33.71,3.16,1.29,5.83,1.19l1.27,0,1.49,10-7.15,2.41c-.39,5.83-1.2,18.24-1.22,18.73s-1,3.46-2.87,4.11l-.91.31a7.54,7.54,0,0,0-1.18.45,11.43,11.43,0,0,1-1.67,1.19c-.39.25-.77.49-1,.68a11,11,0,0,1-1,.65c-.21.12-.55.32-.71.44a7.7,7.7,0,0,1-1.4,1.55l-.13,8.9,3.58.94-.85,4.64-.16.24c-.3.46-1.92,2.73-3.92,3a3.35,3.35,0,0,0-2.41.91,5.12,5.12,0,0,1-1.72.88l-.24.08V160a21,21,0,0,0-.08,2.84l0,.58-.38.44a14,14,0,0,0-1.49,2c0,.27.12.73.23,1.18l2.86,2.08-.15,2.66,2.85,1.43-.19,1a11.94,11.94,0,0,0-.23,2.09l0,.38a5.54,5.54,0,0,1,0,2.81,16.79,16.79,0,0,0,.16,1.93l.07.5-.26.43c-.35.58-3.46,5.68-4.31,6.69a28.46,28.46,0,0,0-1.69,2.58,10,10,0,0,0,1.9.57,44.89,44.89,0,0,0,4.54-.78l.48-.1.44.22c1.79.88,5.14,2.27,6.54,2.27a30,30,0,0,0,6.22-1.36,25.71,25.71,0,0,1,2-3.75c.64-.8,1.67-2.15,1.67-2.15l.54-.71,2.74.56c1.2-1.49,1.86-1.87,2.69-1.66.24.06.57.14,3.27,2l1.13.77-.73,1.16a24.6,24.6,0,0,0-1.55,2.78v.49c3.85.92,4.15,1.45,4.39,1.88l.31.55-.19.67a2.78,2.78,0,0,0-.14.55l.3.33c1.18,1.29,1.78,2,1.9,2.73a1.17,1.17,0,0,0,.45.28,10.64,10.64,0,0,0,2.78-.1,4.17,4.17,0,0,0,1.78-.68l.26-.14a6.77,6.77,0,0,1,3-.57c.06-2.57.86-3.1,1.16-3.3a8.58,8.58,0,0,1,1.87-.85l.77-2.14-2.91-1.34.22-1.71c-7.09.91-7.35.91-7.46.91h-.74l-.46-.62a2.17,2.17,0,0,1-.47,0,2.38,2.38,0,0,1-1.94-1.48c-.93-1.95-.28-4.59,0-5.86l.06-.26c0-.93.2-1.29,5.26-2.7l-2.59-3.27.36-.79a10.49,10.49,0,0,0,.84-2.57c0-.3,0-.94,0-1.56-.09-2.22-.11-3.63.39-4.47a8.09,8.09,0,0,1,1.48-1.51c3.46-3.13,4-4.34,3.92-4.81a6,6,0,0,0-1-2.45l-4.07-3.25,5.22.8a14,14,0,0,0,3.84.09,2.4,2.4,0,0,0,0-1.45,6.83,6.83,0,0,1,.57-3.64l.48-1.08,1.15.27h0A2,2,0,0,0,231,148c1.49-1.6,2.76-1.61,3.11-1.57l.41,0,3,2.38c1,0,3.18.07,3.92.07,1,0,2.51.16,2.57.17l3,.42v4.57l1.85.81v1.84c2.36-.89,3.06-.62,3.36-.51a1.66,1.66,0,0,1,.95.88,11.9,11.9,0,0,1,.43,1.23c.08.27.22.7.3.9a17.22,17.22,0,0,1,1.76,2.87c2.09-.42,3.13-.19,3.6.75a6.13,6.13,0,0,1,0,4.45,5.7,5.7,0,0,0-.26,1.56c-.06.79-.14,1.76-1.13,2.09a1.6,1.6,0,0,1-1,0c-.14,2-.37,5.46-.54,8.19,1.24.6,3.39,1.67,4.14,2.18a4.33,4.33,0,0,1,1.32,1.53,2.65,2.65,0,0,0,.3.45c1.16.24,2.23.57,2.28.58l.47.14.28.41c2.31,3.35,2.57,4,2.63,4.36a4,4,0,0,0,1.46-.52,33.05,33.05,0,0,0,2.92-1.84l1.13-.83.84,1.12a31.63,31.63,0,0,0,2.91,3.47,1.55,1.55,0,0,0,1.16.4h.1c.13,0,.62-.07,1.06-.14l1.24-.21.35,1.21,1.37,4.75a6.67,6.67,0,0,0,1,1.67,3,3,0,0,1,2.89,1.18l.2.32a2.57,2.57,0,0,0,1.35,1.32,16,16,0,0,1,3,1.64,2.21,2.21,0,0,1,1.54-.16,2.39,2.39,0,0,1,1.56,1.53,7.32,7.32,0,0,1,.74,3.26l-.12,1.19-.41,0a4.12,4.12,0,0,0,.39.34,5.79,5.79,0,0,0,1.6.89,2.71,2.71,0,0,1,1.85,1.72c.08.25.13.43.17.57v0l.61.62.58.57c.95.91,1.85,1.77,1.85,3.09v4.29l5.33,7.35,2.81,2.14,5.14-.18,2.64,6.22c3.34,1.28,4.19,1.94,4.39,2.6a8.29,8.29,0,0,0,1.05.63l.52.26.45,1.29a9.24,9.24,0,0,1,6.62,1.6c2.57,2.08,3.36,2.83,4.47,4.5a16.84,16.84,0,0,0,1.62,2.06c1.15.62,4.63,2.68,5.41,5.22a14,14,0,0,1,3.41,4.4l1.2,2.87-3-1c-1-.32-4.08-1-5.59-.13a5,5,0,0,0-2.24,2.94l-.19.87-.87.22-4.1,1-1.69,4.39h-4.91a5.64,5.64,0,0,0-2.06,1.25,24.85,24.85,0,0,0,.46,3.5l.08.41L322,275s-.62,1.55-.78,2c0,.13-.11.38-.19.67a17.51,17.51,0,0,1-.85,2.57,4.28,4.28,0,0,1-.86,1.07,3.24,3.24,0,0,0-.62.73c.06.35.12.67.17.94a7.64,7.64,0,0,1,.17,1.45,2.44,2.44,0,0,1-.33,1.18l0,0a2.09,2.09,0,0,0,.17.36,6,6,0,0,1,.91,2.91c0,.19,0,.41.07.66.11.88.3,1.94.4,2.46a6.17,6.17,0,0,1,1.2,2.47c.09.56.19,1.18.25,1.6l1.07.94.12.2a14.47,14.47,0,0,1,1.63,4.88c.33,2.48.33,7.7.33,7.92l-.26,4.51-16.74-4-24.69,7.26-16.38-5-21.76,2.94-11.33-10-2.3.09-.48,2.89-1.8-1.12c-4.08-2.54-9.17-5.31-10.41-5.45-2,.47-6-.78-7.16-1.18l-.2-.07-.18-.13s-2.72-1.9-5-1a4.4,4.4,0,0,1-1.36,3.16l-.23.26s0,.08.05.18l.32,1-.92.58c-1.68,1.05-2.75,3.68-3.06,4.73ZM267,309.93l16.16,5,24.6-7.24,14.18,3.4.06-1h0s0-5.17-.31-7.46a11.8,11.8,0,0,0-1.17-3.64l-1.49-1.3-.07-.52s-.16-1.11-.32-2.06a4.12,4.12,0,0,0-.81-1.41l-.24-.28-.07-.36c0-.07-.33-1.68-.5-3,0-.3-.06-.55-.08-.78a3.33,3.33,0,0,0-.56-1.77,2.89,2.89,0,0,1-.18-3.07h0a6.7,6.7,0,0,0-.12-.81c-.06-.3-.12-.66-.18-1.11a3.67,3.67,0,0,1,1.42-3.08,4.72,4.72,0,0,0,.35-.37c.14-.29.47-1.47.63-2,.1-.35.18-.65.23-.8.12-.37.47-1.26.68-1.79a24.44,24.44,0,0,1-.43-3.72c0-2.28,3.19-3.57,4.17-3.92l.23-.08h3.46l1.53-4,4.78-1.12a7.9,7.9,0,0,1,3.27-3.88,7.55,7.55,0,0,1,4.3-.83c-.32-.34-.7-.71-1.12-1.08l-.4-.35-.07-.53c-.15-1.09-2.56-2.89-4.24-3.76l-.19-.1-.16-.16a18.94,18.94,0,0,1-2.11-2.63c-.83-1.24-1.29-1.75-3.9-3.87-2-1.61-5.43-.86-5.47-.85l-1.24.29-.88-2.53a4.3,4.3,0,0,1-1.85-1.59,29.76,29.76,0,0,0-3.37-1.45L315,238l-2.35-5.54-4.2.15-4-3-6.11-8.43v-5.21a6.23,6.23,0,0,0-1-1l-.62-.61c-.93-.93-1.15-1.15-1.35-1.93,0-.07,0-.16-.08-.28l-.24-.09a8.57,8.57,0,0,1-2.3-1.28c-2.38-1.84-2.1-3.88-2.06-4.11l.19-1.09.65,0-.09-.25a1.53,1.53,0,0,1-1.57.15l-.79-.39v-.44a16.34,16.34,0,0,0-2.47-1.31,5.31,5.31,0,0,1-2.62-2.42l-.1-.16a2.41,2.41,0,0,0-.76.07l-.84.23-.59-.64a10.87,10.87,0,0,1-2.16-3.38l-1-3.57h-.44a4.36,4.36,0,0,1-2.9-1.05,23.58,23.58,0,0,1-2.54-2.87c-.53.35-1.23.78-2.05,1.24a5.6,5.6,0,0,1-4.26.76l-.53-.17-.28-.48a5.35,5.35,0,0,1-.54-1.38c-.2-.42-1.09-1.79-1.93-3-.39-.11-1-.27-1.59-.4a3.21,3.21,0,0,1-2.13-1.77,2,2,0,0,0-.45-.61c-.64-.43-3.2-1.7-4.66-2.4l-.86-.41.06-1c.11-1.69.65-10.14.73-10.79a1.63,1.63,0,0,1,.82-1.24,1.81,1.81,0,0,1,1.29-.17,5.63,5.63,0,0,1,.42-1.59,3,3,0,0,0,.13-1.33,15.32,15.32,0,0,0-1.55.31l-1.08.28-.53-1c-.68-1.27-1.56-2.82-1.83-3.2a4.54,4.54,0,0,1-1-2l0-.11a22.15,22.15,0,0,0-2.81,1.11l-2,1v-4.36l-1.85-.81v-4l-.47-.07h0s-1.35-.15-2.22-.15-4.46-.08-4.46-.08h-.47l-2.85-2.25a3.33,3.33,0,0,0-.6.52,4.32,4.32,0,0,1-3,1.29,2.57,2.57,0,0,0-.09,1,5.11,5.11,0,0,1-.09,3.14c-.32,1.28-1.71,1.89-4.21,1.86q.18.51.34,1.15c.69,2.68-2.59,5.66-4.77,7.62-.34.3-.74.67-.92.86a18.94,18.94,0,0,0,0,2.9c0,.76.06,1.42,0,1.88a10.35,10.35,0,0,1-.75,2.74l2.35,3,.46-.62-.31.82,1.69,2.14-2.08.56-.69.19L219,185.89l7.12-.9,1.82-.23-.42,3.29,3.38,1.56-2.14,5.94-.71.2a10,10,0,0,0-1.55.58,10.34,10.34,0,0,0-.07,2.46l.13,1.73-1.72-.21a7,7,0,0,0-2.94.17l-.26.14a6.79,6.79,0,0,1-2.69,1,12.92,12.92,0,0,1-3.82.06,3.51,3.51,0,0,1-2.61-2.44,16.71,16.71,0,0,0-1.21-1.43l-.5-.56a2.58,2.58,0,0,1-.53-2c-.82-.27-2.15-.61-3.28-.86l-1.11-.25v-2.91c0-.27,0-.8,1.27-3l-.74-.48c-.25.28-.54.65-.79,1l-.54.72-2.75-.57c-.36.46-.82,1.06-1.17,1.49a30.13,30.13,0,0,0-1.91,3.72l-.26.57-.6.19c-.53.17-5.27,1.68-7.68,1.68-2.17,0-6-1.71-7.35-2.35a38.57,38.57,0,0,1-4.65.74,16.56,16.56,0,0,1-4.51-1.4l-1.46-.63.79-1.38a47.15,47.15,0,0,1,2.8-4.39c.5-.6,2.5-3.79,3.81-5.93a5.72,5.72,0,0,1,.08-2.93c0-.35-.09-1-.13-1.33l-.05-.42a8.77,8.77,0,0,1,.09-1.85l-2.65-1.32.17-3-2.44-1.77-.13-.49a13.06,13.06,0,0,1-.45-2.54c0-.33,0-1.08,1.84-3.25a23.74,23.74,0,0,1,.1-2.69,2.76,2.76,0,0,1,2.18-2.58,2.48,2.48,0,0,0,.84-.4,6,6,0,0,1,3.87-1.51c.4,0,1.2-.79,1.72-1.49l.27-1.46-3.18-.83.19-12.36.47-.42a14,14,0,0,0,1.29-1.27,4,4,0,0,1,1.75-1.48,8.29,8.29,0,0,0,.76-.47c.28-.21.73-.5,1.18-.79s1.09-.7,1.25-.85a5.6,5.6,0,0,1,2.26-1.1l.83-.28a4,4,0,0,0,1-1.67c.07-1.17.5-7.76,1.28-19.64l.06-.95,6.7-2.26-.77-5.18c-2.29,0-6.14-.49-7.23-2.84a3.14,3.14,0,0,1-.2-2.52,4,4,0,0,1,2.53-2,5,5,0,0,0,.72-.33c.43-.3.78-.53,1.05-.71,0-.39,0-.78,0-1.11-1.5-.4-3.79-1.11-4.67-1.39A6.16,6.16,0,0,1,190.23,90l-1.33.15a3.68,3.68,0,0,1-3-1.41,6.64,6.64,0,0,1-2.78,1.4c-2.23.37-3.38-2.34-3.81-3.72a21.27,21.27,0,0,1-3.14-3.06,38,38,0,0,0-4.37-3.85l-.68-.55a9.13,9.13,0,0,1-1.28-1.37l-.31-.38-2.4,4.11a8.17,8.17,0,0,0,.15,1.11c.36,2-1.1,3.85-4.34,5.64-.24.32-.75,1.07-1.21,1.74-1,1.52-2.35,3.42-3.13,4.35a4.44,4.44,0,0,1-4.33,1.59,15.32,15.32,0,0,1-3-.89A6.13,6.13,0,0,0,150,95a5.08,5.08,0,0,1-3.53-.51,5.9,5.9,0,0,0-1.22-.6v3.77l-1.17.21c-3,.53-3.86.47-4.21.4a21.18,21.18,0,0,0-2.92.62l-.79.21-.58-.58c-.32-.32-3.13-3.23-2.8-6.38l0-.32c.09-.9.22-2.12.29-3.35a7.44,7.44,0,0,1-1.9-.76,11.26,11.26,0,0,1-2.36-2l-1.54.42-.85,3.76-7.16.37-.07-1.42a2.92,2.92,0,0,0-.67-1.68,13.45,13.45,0,0,1-2-2.71l-4.79.76L107.53,73l9.64-3.54-.61-3.93-2.63-.18L114,64a29,29,0,0,0,0-2.9c0-.42,0-.83,0-1.25a13,13,0,0,0-.61-4.52c-.31-.85-2.52-1.47-3.93-1.58l-.45,0-.35-.29s-.49-.41-1.8-1.55a3.87,3.87,0,0,0-2.3-.28l-.7,1.87-.74.17a13.29,13.29,0,0,1-4.19-.05,4,4,0,0,1-2.86-1.5,5.68,5.68,0,0,1-.7-4.3c.2-1.36,1.17-4.93,1.56-6.35-.51-.87-1.48-2.53-1.87-3.43a20.4,20.4,0,0,1-.83-2.74l-3.82.59c-.08,2.22-.14,5.09,0,5.86.12,1.06.1,6.65-.25,7.54-.2.51-.35.88-6.13,3.86l-1.78,2.77c-.19.41-1,2.46-1.83,4.53,1.31,1.49,1.77,2.75,1.36,3.73a2.1,2.1,0,0,1-2.12,1.22c-1.08,0-1.84,0-2.36,0a2.77,2.77,0,0,0-.38,1.18,20,20,0,0,1,1,2.61l1.1.5.18,4a3.48,3.48,0,0,1,.58,2.89,2.16,2.16,0,0,1-.54.83c.27,2.52.38,6.39-.31,8.75a36.47,36.47,0,0,1,4.56,3.12,12.25,12.25,0,0,0,2.2,1.51,10.66,10.66,0,0,0,2-.21l1.5-.34.22,1.52a2.68,2.68,0,0,0,.34,1A20,20,0,0,0,92,92.32l1.9-.38-.63,5.54L87.63,100c-.72,1.28-2.14,3.48-3.58,4a4.08,4.08,0,0,1-3-.32,3,3,0,0,0-1.66-.35A19.62,19.62,0,0,0,74.72,106l-.7.5-3.52-1.81-1.25-.14-1-2.1-.4,4.54-4.09-.26-1,3-1.27-.33a23.78,23.78,0,0,0-4-.76c-1.12,0-4.34-.12-5.33-.15a10,10,0,0,0-2.93,1.58,12,12,0,0,0-1.37,2.57l.13.54,3.38,1.69-2.5,1.28c-1.45.74-3,2.13-2.88,2.79.46,2.15.85,3.41.85,3.42l.53,1.69-10.26.86-.47-.61c-1-1.26-2.89-3.22-3.91-3.42a56,56,0,0,0-8.46.23c.1,1.75.25,4.63.25,5.38,0,.16,0,.36,0,.59a8.3,8.3,0,0,0,.28,3.37l.51.35a6,6,0,0,1,3.17,4.91c.06,2.06.13,3.29.15,3.68a4.61,4.61,0,0,1-1.24,4.4c-1.2,1.13-2.6,2.27-3.94,1.6-.23-.12-.59-.3-1.21-1.44l-2.95.56-1.55-1.2a16.52,16.52,0,0,0-1.43.86,6.25,6.25,0,0,0-.15,1.4v1.31l-2.48.19L11,146.82l-2.68-.06a4.22,4.22,0,0,0-.52,2.05A17.72,17.72,0,0,1,9.2,155c0,.4,0,.71,0,1a5.05,5.05,0,0,1-.84,3.33L8,160a3.5,3.5,0,0,1,2.57.39,1.83,1.83,0,0,1,.69,1,7,7,0,0,0,1.47-.49,11.56,11.56,0,0,1,5-1.08,9.68,9.68,0,0,0,1.27-.14c.46-.07.94-.14,1.44-.18.65,0,2.34,0,3.71.06a3.65,3.65,0,0,1,.35-2.9,5.92,5.92,0,0,0,.41-.66,2.89,2.89,0,0,1,2-1.73,4,4,0,0,0,1.29-.72l2.38-2.86,1.17,1.65a3.32,3.32,0,0,1,1-.75,2.61,2.61,0,0,1,2.13-.05A3.25,3.25,0,0,1,36.66,155l1.28.12c1-.78,2.13-1.33,3.06-.63.2.15.63.47,1.51,2.61l.3.74-2.36,3.21-.82,2.27-1.44.92c2.22,3.42,3,5.79,2.21,7.08-.06.1-.54,1,.09,4.5.16.89.4,2.26.4,2.26l.14.78-.59.53c-1.42,1.27-3.9,3.45-4.51,3.8l-.31.17.17.19.19-.05a6,6,0,0,1,2.35-.32l.26-.17.71.2a1.58,1.58,0,0,1,1,1.11c.06.18.22.65.38,5.14l2.83,4.11,4.91-7.64-1.34-1.35.16-.75c1-4.81,2.4-5,2.93-5.14a13.38,13.38,0,0,0,2.62-1.14l1.25-.67,3.16,5.84.23-.45c.69-1.38,2.42-1.43,3.69-1l1,.31,0,1.09c-.18,5.84-1.12,6.69-1.44,7a7.67,7.67,0,0,1-1.57,1.12l-1.38,1-.09,1.66-6.23,3.42,1,4.91,4.4,2.26-3.63,2.68a43.57,43.57,0,0,0-4.58,4.6A8.36,8.36,0,0,1,45.08,214l-.31.14L42.41,214c-.1,1.15-.2,2.56-.2,3.11a9.07,9.07,0,0,0,1.19,2.47c.74.92,3.81,4.84,4.33,6.83a9,9,0,0,0,.61,1.42c.86,1.77,2,4.18,1.07,7.4l-.32,1c.1,1.42.1,4.2-1.25,5.34A13,13,0,0,1,46,242.83c-.26.15-.61.36-.75.46l-.06.1a1.63,1.63,0,0,1-.51.53,3.2,3.2,0,0,0-.28.23l-.37.35a3.34,3.34,0,0,1-1.35.88c-.65.25-2.28.82-2.28.82l-.27.07c-.79.11-3.49.4-5-.65a3.81,3.81,0,0,0-1.86-.46l-2.4,1-.63.75.36,5c2.11.28,6.32.85,7.44,1.19,1.28.38,10.4,3.59,12.13,4.2a4.91,4.91,0,0,1,3.3,1.1,4.06,4.06,0,0,1,1.1,1.56,14.46,14.46,0,0,1,12.75,1.6l4.7,2.76H76.8l.19,1.2c0,.06,1,6.11,1.28,7.67.24,1.21.47,4.15.59,5.79l10.41,1.42.82,3c3.86.82,19.93,4.35,30.94,8.58a208.16,208.16,0,0,0,24.13,7.51l1.06.25.18,6.43.94,2,1.78.81a4.18,4.18,0,0,1,1.2-.81,6.12,6.12,0,0,1,.83-3.94l.42-.79,3.2.14.32-6.12,1.4.06c3.15.13,11.72.42,13.6.17a8.13,8.13,0,0,1,3.84.56,7.61,7.61,0,0,0,3,.55,5.42,5.42,0,0,1,4.19,1.62c.54.47.75.63,1,.63a4.12,4.12,0,0,1,3.69,2.62l4.78,2.17a25.89,25.89,0,0,1,7.27,5.15l.28-2a13.42,13.42,0,0,1,3.54-5.89,3,3,0,0,1,1-2.16,1.92,1.92,0,0,0,.57-1.91l-.08-.82.68-.47c3.59-2.51,7.73-.1,8.69.52,2.3.75,4.79,1.24,5.4,1.06s2-.61,10.79,4.69l.17-1,5.75-.23L246,312.79Zm-48.19-7.83h0Zm99.86-16.47ZM45.2,243.33h0ZM289.1,204s0,0,0,.07Zm-76.59-4.76Zm-.08-.4h0Zm52.58-9.4ZM216.3,181.8a9.1,9.1,0,0,0-.33,3.44,3.82,3.82,0,0,0,.45-.49l2.88-3.88C218.05,181.23,216.92,181.57,216.3,181.8Zm-33.48-2.49Zm-2.65-.84Zm.31-.56h0ZM252,161.27h0ZM26.83,158.19ZM16.31,144.08Zm167.88-6.75h0Zm9-6.53s0,.07,0,.12S193.19,130.86,193.2,130.79ZM61.32,100.15l6.49,1.33L67.12,100c-4-1.79-8.08-3.1-9-2.85a2.57,2.57,0,0,0-1,.71,1.62,1.62,0,0,0,.35.33A18.05,18.05,0,0,0,61.32,100.15ZM195.7,98.31h0Zm-55.16-2.83h0Zm57.72-2.12a1.38,1.38,0,0,0,.45.07A2.58,2.58,0,0,1,198.27,93.36Z"/></svg>