<svg id="Layer_1" data-name="Layer 1" xmlns="http://www.w3.org/2000/svg" viewBox="0 0 350 350"><defs><style>.cls-1{fill:#999;}.cls-2{fill:#f90;}</style></defs><title>M</title><path class="cls-1" d="M26.16,240l.26-2.26a13.91,13.91,0,0,0-2.3-2C23,235,22.73,233.94,22,233s-.87-2-2.52-2.52A2.22,2.22,0,0,0,17,231l.1-1.86a22.62,22.62,0,0,0-1.81-3.21c-.75-1-4.72-5.63-4.77-5.83s-1.31-2.26-2-2.31S6,215.33,6,215.33A12.93,12.93,0,0,1,8.65,214c.5,0,2,1.11,3,1.26a12.77,12.77,0,0,0,2.41,0c1.31,0,1-.6,1-.6l.5-.65s-1.81-3-1.86-3.16,1.16-.7,2-1.46,1.81-4.87,1.81-4.87.8-2.36,1.21-3.32a19.05,19.05,0,0,0,1.06-2.71c.3-1.11,1.46-3.87,1.46-3.87l-.5-6.73L24,184.28a13.6,13.6,0,0,0-1.26-2.81c-.8-1.31-1.56-2.26-1.41-2.91a8.89,8.89,0,0,0,.55-3,15.09,15.09,0,0,1-.5-2.06,1.89,1.89,0,0,1,.75-1.36,8.48,8.48,0,0,0,2-.6,2.83,2.83,0,0,0,1.31-1.36,6.51,6.51,0,0,0,.3-2.46c.05-.8.65-3.42.65-3.42L29.9,163s1.06-4.17,1.16-4.42.35-.5,1-.85-.35-1.36-.35-1.36a1.82,1.82,0,0,0,2-1.21,15.27,15.27,0,0,0,.72-2.68s5.12-2.86,5.88-3.35a69.77,69.77,0,0,0,6-4,24.27,24.27,0,0,1,5-2.64,9.63,9.63,0,0,1-.87-3.35,14.16,14.16,0,0,1,.26-2.86c.08-.38,1-2.83,1-2.83a14.83,14.83,0,0,0,4,1.28c1.24,0,2.71-.15,3-.11s1.47.9,2.19,1.06,3.62.79,4.3.53,2.41-2.75,3.05-3.65,1.32-2,1.32-2-.45-.49,0-1.7,1.09-2.3.87-3.13a4,4,0,0,0-1.28-1.92,7.15,7.15,0,0,1-.75-.64l2.79-5.73a9.63,9.63,0,0,0,2-.19c.11-.15,1.81-3,1.81-3S80.49,112,80.64,112s6.56,1.32,7.5,1.88,4.71,2.68,4.82,2.68,1.51-2,2.15-1.43a5.44,5.44,0,0,0,2,1.13c.57.11,2.26-1,2.64-1.13s2.26-.68,2.26-.68,1.39-3.28,2.11-3.47a4.18,4.18,0,0,1,1.62,0l1.05.75,5.58-.84a14.6,14.6,0,0,0,.34,2.53c.15,0,1.05-.15,1.05-.15s.19.57.23.75a4.63,4.63,0,0,0,2,1.13c.38-.08,1.85-2.79,1.85-2.79l1.32.45,1.62-.57.87.79,1.51-.41s-.23.9,0,1l2.56,1.21s0,1.06.34,1.06,2.56.23,3.09-.26a5.08,5.08,0,0,0,.79-2.11l-.38-2,1.73-3.58s.72,1.43,1.32,1.21a1.11,1.11,0,0,0,.64-.94s1.85,0,2-.53,1.43-.68,1.43-.68l1.66-2,1.28,2.6s-1.51,2.64-.34,2.64,1.32-.83,1.32-.83l1.21,2.3-.6,1.09s.72.45,1.17.11.49,1.54.49,1.54l2.19-1.43s4.41,2.19,5.39,2.52a17.56,17.56,0,0,1,2.64,1.39l1.32-.72a10.48,10.48,0,0,0,2.41.34c.75-.08,6-2.94,6-2.94s2.49-2.19,2.86-2.41,1.92-2.15,1.13-3.73a11.31,11.31,0,0,0-1.39-2.26l2.6-2.9-.34-1.51a7.39,7.39,0,0,0,1.88-.83c.68-.49,2.11-1.43,2.11-1.43l.19-1.36,4-1.47s.72,1.05.9,1l3.88-.75s3.92,1.77,4.37,1.24,0-3.88,1.39-5.8,2.07-2.9,2.07-2.9-.15-1.28.19-1.7A35.89,35.89,0,0,1,193,84.66a11,11,0,0,0,2.15-2.19s1.39-3.05,2.34-4.9A20.86,20.86,0,0,0,198.91,73s2.6-.08,3.65,0,2.52,0,2.6-.41,1.51-2.3.72-2.75S203.51,71,203.51,71s-.11-2.94,0-3.16a15,15,0,0,1,3.05-.45A12.26,12.26,0,0,1,208.9,65c.9-.49,3.54-1.54,3.54-1.54l.49-2s2.22,1.51,2.9,1.51a6.19,6.19,0,0,0,1.77-.45l.45,1.17s1.43.11,1.92-.41a4.41,4.41,0,0,0,.75-1.17s.34,1.7.83,1.66,1.39.15,1.54.11,1.09-.3,1.17-.64a11,11,0,0,1,1.62-1.77,19.93,19.93,0,0,1,.68-5.27,22.34,22.34,0,0,1,2.56-4.3V47.06s1.54-.53,1.47-.64-2.07-1.17-2.11-1.7-.79-2.37-.94-3.13-.26-2.07-.26-2.07,1.88.68,3.05,0a7,7,0,0,1,2.3-1c.41,0,3.24-1.36,4.26-1.54a22.37,22.37,0,0,1,6.1.45,8.83,8.83,0,0,0,3.88.45c1.24-.19,2.52-1.62,3.24-1.39a4.24,4.24,0,0,0,2.49.15,19.74,19.74,0,0,0,2.49-1.13s-.49-4.79-.68-6a7.82,7.82,0,0,0-1.09-2.56l1.13-3.05-.64-2.94,1.28-.26s.6,1.7,1.32,1.88a2.55,2.55,0,0,0,2,0c.79-.38,1.09-1.06,1.54-1.09s2-.53,2.26-.49.94.87,1.77.87a10,10,0,0,0,3.16-.49l.53-.3s0,1.24.19,1.43a2.22,2.22,0,0,0,2.45.26c1.43-.57,2-1.77,1.7-1.81a5,5,0,0,1-.87-.26V18.54s1.17-.9,1.77-1.39A9.28,9.28,0,0,0,274.08,16l1.13-3h2.07a5.91,5.91,0,0,0,1-3c0-1.36-1-3.28,1.13-5s2.41-1.7,3.2-2.37A14.16,14.16,0,0,0,284.52,0s2,1.09,2.19,1.13,2.15.87,3.09-.3C291,1.7,291.15,3,291.64,3a9.21,9.21,0,0,1,2.22.34c0,.11.23,1.88.57,2.11s.45,2.22.45,2.37.3,1,.49,1.73a11.34,11.34,0,0,0,.83,2.52,9.42,9.42,0,0,1,.72,2.07s-1.43,2.07-1.28,3.16.57,2.9.6,3,.68,4.94,2,6,1.13,1.36,2.11,1.62,3.77.57,3.77.57,1.32,3.92,3.09,4.86l1.77.94.34,2.22-2.41,0c-.23,0-.49,1.32-.49,1.32s2.64-.11,2.9-.11,3.58,1.7,3.58,1.7-.49,7.08,0,7.87a2.69,2.69,0,0,1,.26,1.92,13.54,13.54,0,0,0,.64,3.39c.23.19,1.73,2.41,1.73,2.41s3.09,1.05,4.07,1.51a5.73,5.73,0,0,1,1.81,1.58,16.85,16.85,0,0,1,1.21,2.71,1.81,1.81,0,0,1,0,1.05l-1.73,4.45a6.83,6.83,0,0,0,3.39-.53c1.51-.75,4.67-2.79,5.27-2.94a17.78,17.78,0,0,1,3.32.3s-1.81,3.24-1.51,5a14.41,14.41,0,0,0,1.51,3.92L338,73.59l1.36.75a5.24,5.24,0,0,0-.6,2.34c0,1.28.83,2.94.6,3.47s-1.66.9-.9,2.56a7.62,7.62,0,0,0,1.88,2.86C340.7,85.79,344,92,344,92s-9.49-.53-11.76.53-2.34,1.58-2.34,1.58-4.07,3.09-5.58,5.2a16.14,16.14,0,0,1-2.64,3,5.36,5.36,0,0,1-.6,1.88,25.2,25.2,0,0,1-2,2.26L319,107.5l2.64.3a72.34,72.34,0,0,0-4.82,5.65c-1.36,2-2.79,3.62-3.24,4.22s-1,.23-2.34.83-2.64,1.88-3.39.75-5-4.75-6.41-4.75-3.69.15-3.69.15-.68,7.38.15,8a1.31,1.31,0,0,1,.38,1.58l-1.28-.38-.9,2.64-4.82-5.43-2.34,1.66.15,1.66-2.49-.9-2,2.64-.45,2.64s2.41,1.06,2.71,1.13,2.26,1,2.26,1-.83,4.52-1.28,5.2-.75,5.35-.83,5.8-4.45-1.21-4.45-1.21-4.6,6.48-4.82,7.08-.45,1.13-.45,1.13l-1.51,1.88.15,8-3-.45a3.19,3.19,0,0,1-1.58-.9l-.75-.76-2.26-.53-.53-.08s-.15.3-.53,1-.68,3-1.81,3.77-2.26.6-2.34,1.05-1.05,2.34-.08,3a9,9,0,0,0,2,1.28c.9.38,3.47,1.73,3.47,1.73l.38,2.79,1.43-.08,4.3,4.75a23.44,23.44,0,0,1-2.41,1.21c-.53.15-2.49.83-2.49.83l-1.43,2,.15,3.92a44.51,44.51,0,0,0-5.58-1.21h-1.13s1.36-3.77.6-5a3.45,3.45,0,0,0-1.73-1.58s-1.28,1.28-1.21,2.19.68,2.41.53,3.24a9.93,9.93,0,0,1-.53,1.73s2,3.16,2.56,3.39a15,15,0,0,0,2,.45s.68,1.66-.08,2.56a9.62,9.62,0,0,0-1.21,1.88s1.51.45,1.36,1.21a4.73,4.73,0,0,0,.38,2s3.47.38,4.14.6,2.79,1.66,2.79,2.11a22.62,22.62,0,0,1-.83,3.92c-.23.38-6.93,3.54-6.93,3.54l-.08,1.66-9.27.68-8.89,5-3-1.06-2.19,1-.75,6.41a8.71,8.71,0,0,1-2.56,1.28,10.53,10.53,0,0,1-3.32-.61c-1.73-.44-2.79-.74-2.79-.74l-6-3.09s-5.2,4.3-5.73,4.67-2.56.83-1,1.66,2.41,1.13,2.71,2,.38,3.47.6,4.22,1.13,1.28,1.66,1.81a14.37,14.37,0,0,0,1.66,1.28l.68,2.79,1,.08.45-2.64,2.94-1s-1.88,6.41-2.34,6.86-5,1.28-5,1.28l-2,2.79s-1.66-1.51-2.49-.6-2,4.52-2,4.52-.75-.23-1.36.83a29.89,29.89,0,0,1-2.56,3.24l-4.52-2.26.23-5s-.3-.45-1.81.3l-1.51.75-2-2.19s.15-2,.15-3.09v-3.54a19.6,19.6,0,0,1,2.19,1.28c.3.3,1.81-1.88,1.81-1.88s1,1.36,1.66.6.68-4.37.68-4.37,1.36-.83,1.58-.9,2.49-3.32,1.73-4-3.62-2.19-3.77-3.24-.68-4-.68-4L198,225.44s.38,4.36.38,4.82-2.19,1.88-2.19,1.88-3.39,6.25-3.47,6.48a24.48,24.48,0,0,1-3.32,1.43v1.81l1.73,3.77-2,.38a11.53,11.53,0,0,1,.38,2.49c-.15.23-.75,1.28-.75,1.28s-1.36.08-1.05.83.3,1.13.75,1.13a14.42,14.42,0,0,1,2.71.53c.3.15,2.41,1.81,3.77.83s2.41-4.45,3.16-4.52,2.64-.08,2.64-.08,1.66,2.41,2,2.34.38-2.64,1.51-1.58,2.11,1.88,2.11,1.88L204.68,253a22.44,22.44,0,0,0,2.71,1.21c1,.3,3.24,3.09,3.24,3.09s-2,4-4,4.82a11.26,11.26,0,0,1-3.54,1,5.91,5.91,0,0,0-2.86,1.43,25.83,25.83,0,0,0-2.94,3c-.3.45-5.73,2.56-5.73,2.56L189,276.52l3.54,3.32a12.06,12.06,0,0,1-3.84,3.32c-.53-1.58-3.09,0-3.09,0l.75-3.16-3.32-.38-2.11-4.37-6.71-1.43-.3-3.24a8.12,8.12,0,0,1-1.81-4.3,21.56,21.56,0,0,0-4.45-2.86L166.1,262l-3.54.6s-1.66,3.24-.23,4.82c-3,.08-2.94.9-2.94.9l-.45,1.13-3.16-.23s-2.26,5.65-2,7.84a35.94,35.94,0,0,0-4.22-.15l.23,2.34a12.27,12.27,0,0,0-2.94,2.11,9.2,9.2,0,0,1-2.34,1.81l-1.88-4.45-2,.68s-.68-3.69-1.28-3.54a3.42,3.42,0,0,0-1.28.9s.53-7.84-.9-9.27a28.72,28.72,0,0,1,.15-3.54l-4.14-.83.83-2s-.38-.9-2.11,0l-.75-1.28a24.73,24.73,0,0,0-4.3,3.09,32.8,32.8,0,0,1-3.84,3.16l-.53.38a12.13,12.13,0,0,0-.9,1.73,4,4,0,0,1-.23.83l-3.54,1.21a6.48,6.48,0,0,0-2.56-2.41,31.73,31.73,0,0,0-5.65-1.51c-1.05,0-3.09-.23-4.07-.3s-7-1.13-7-1.13l2,3.69-.08,1.43-1.21,2s-4.75-.53-5.12-1.13-5.2-5.8-5.2-5.8l.75-1.66L86.07,260a19.08,19.08,0,0,0,2-3.84c.75-2,1.13-2.64,1.88-2.49s3.17.23,4.22-.68a24.31,24.31,0,0,1,2.86-2l.9-12.13,4.22-2.41.6,1.66s5.58-5.58,6.18-6.71.9-10.1.9-10.1l2.41-4,3.54,20.27s4-2.94,3.24-9.8-.23-9-.23-9h4.22s-.53-4.22.6-4.75,3.24-1.73,4.67-1.73,3.54.08,3.54.08.15-5.2-.6-6.78A6.64,6.64,0,0,0,128,202.9a13.4,13.4,0,0,1-3.16-2L123,199.21l-1.58,2.41-3.24-.3-.83,2.11-5.8.9L109.05,194l-2.41,1.88.45,5s-2.64,1.43-3.32,1.66-1.81,3.24-1.81,3.24l-.38,3.92,1.36,1.66s-.15,4.82-.38,4.9A37.82,37.82,0,0,1,98.73,215l-2.11.6s-2.11,2.09-2.86,3,.53,3.78-1.13,4.15-1.13.38-1.66.38a36.51,36.51,0,0,0-4.07,1.36l-6.63-2.26s-2.19-4.75-4.3-6a56,56,0,0,0-7.31-3.1l-9-1.8s-1.73,5.58-4.45,7.84-6.78,3.77-7.54,8.44a100,100,0,0,0-1.51,12.89v5.88l3,7.23L47.48,255l-8.36-8.29-4.6-.9s-5.58-2.71-6.41-2.86S26.4,242.82,26.16,240Z"/><path class="cls-2" d="M183.45,286.13l1.17-4.91-2.5-.28L180,276.48l-7-1.5-.36-3.86a9.54,9.54,0,0,1-1.79-4.12,20.26,20.26,0,0,0-3.67-2.3l-.2-.09-1.24-1.12-2.11.36c-.36,1-.57,2.16-.17,2.6l2.07,2.29-3.09.08a6.52,6.52,0,0,0-1.74.21l-.76,1.9-3.15-.22c-.8,2.19-1.65,5.07-1.5,6.15l.24,1.71-1.73-.11c-1.15-.07-2-.11-2.57-.13l.17,1.72-.85.44a10.48,10.48,0,0,0-2.52,1.77,10.46,10.46,0,0,1-2.75,2.14l-1.36.72-2-4.65-2.27.78-.3-1.62c-.1-.57-.24-1.16-.37-1.66l-2.48,2.71.27-4c.25-3.68,0-7.51-.51-8.19l-.42-.42,0-.57c0-1,0-1.81.06-2.4l-4.61-.92.57-1.34-.4.21-.71-1.2a17,17,0,0,0-2.77,2.1,33.86,33.86,0,0,1-4.06,3.35l-.28.2c-.25.42-.48.85-.58,1.05a5.25,5.25,0,0,1-.29,1l-.24.63L117.25,272l-.59-1a5,5,0,0,0-1.8-1.81c-4.18-1.39-5.11-1.43-5.2-1.43-.82,0-2.12-.12-3.16-.22l-1-.09c-.57,0-2.51-.36-4.24-.65l.81,1.47-.12,2.2-1.87,3-.89-.1c-5.43-.6-5.87-1.32-6.17-1.79s-2.79-3.17-5-5.59l-.64-.69.72-1.58-3.85-3.54.72-1a17.79,17.79,0,0,0,1.86-3.52c.66-1.78,1.41-3.8,3.49-3.38a5.22,5.22,0,0,0,3-.36,21.74,21.74,0,0,1,2.43-1.72l.91-12.16,6.34-3.62.41,1.13a56.05,56.05,0,0,0,4.36-4.79,72.43,72.43,0,0,0,.74-9.47v-.37l4.56-7.55,3.65,20.9a11,11,0,0,0,1-6.29c-.76-6.91-.25-9.22-.19-9.47l.27-1.07h3.78c-.12-2.53.4-4.08,1.55-4.61l.67-.33a11.69,11.69,0,0,1,4.61-1.54c.66,0,1.46,0,2.14,0a17,17,0,0,0-.48-4.71,5.38,5.38,0,0,0-2.33-2,14.2,14.2,0,0,1-3.75-2.28l-.66-.61-1.13,1.73-3-.28-.74,1.88-7.9,1.23-2.28-9.45-.07.05.47,5.21-.82.44c-.58.32-2.4,1.29-3.29,1.66a13.14,13.14,0,0,0-1.12,2.32l-.3,3.15,1.32,1.62,0,.53c-.17,5.49-.31,5.85-1.34,6.2-.5.17-.7.23-4.37-1.21l-1.3.37c-.67.67-1.88,1.9-2.43,2.55a6.36,6.36,0,0,0,0,.92c0,1.08.15,3.32-2,3.81a11.29,11.29,0,0,0-1.12.29,2.08,2.08,0,0,1-.77.12c-.46.1-2.22.72-3.64,1.26l-.48.18-7.69-2.62-.25-.55c-.78-1.69-2.48-4.64-3.74-5.41a53.29,53.29,0,0,0-7-2.94l-7.74-1.54c-.71,1.88-2.27,5.46-4.47,7.3-.69.58-1.46,1.1-2.2,1.61-2.25,1.54-4.37,3-4.85,6a101.55,101.55,0,0,0-1.49,12.66V246l3.3,7.92-3.43,3-9-8.91-4.52-.94c-2.49-1.21-5.52-2.61-6.07-2.75l-.12,0c-1.59-.26-2.7-1.06-3-4.11V240l.2-1.73A10.76,10.76,0,0,0,23.35,237a5.81,5.81,0,0,1-2-2.26,6.14,6.14,0,0,0-.5-.8,8,8,0,0,1-.6-.9A2,2,0,0,0,19,231.86c-.62-.21-.9,0-1,.08l-2.76,3.46.36-6a18.46,18.46,0,0,0-1.49-2.62c-.28-.36-1-1.24-1.83-2.21-2.73-3.28-3.06-3.67-3.17-4a7.3,7.3,0,0,0-1-1.42c-.51-.11-1.47-.58-3.27-3L3.93,215l1.3-.82c2.51-1.57,3.12-1.57,3.42-1.57a4.09,4.09,0,0,1,1.83.66,6.66,6.66,0,0,0,1.4.62,3.53,3.53,0,0,0,1,0c.25,0,.54,0,1,0a12.46,12.46,0,0,1-1.48-2.66c-.28-1.11.67-1.69,1.3-2.07a8.43,8.43,0,0,0,1.15-.79,17.86,17.86,0,0,0,1.37-4.13l0-.14c0-.1.83-2.42,1.24-3.41l.3-.69a11.83,11.83,0,0,0,.69-1.84c.26-1,1.06-2.94,1.39-3.73l-.52-7L22.4,184a11.09,11.09,0,0,0-.84-1.74l-.45-.71c-.74-1.16-1.39-2.16-1.13-3.26,0-.18.11-.42.19-.68a6,6,0,0,0,.35-1.73,4.51,4.51,0,0,0-.22-.78,4.39,4.39,0,0,1-.3-1.51A3.26,3.26,0,0,1,21.38,171a2.28,2.28,0,0,1,.94-.31,3.94,3.94,0,0,0,1.13-.33,1.51,1.51,0,0,0,.79-.81,4.13,4.13,0,0,0,.11-1.17c0-.24,0-.48,0-.71a35.49,35.49,0,0,1,.69-3.65l.17-.74L28.71,162c.91-3.57,1-3.79,1-3.88a2.49,2.49,0,0,1,.68-.93l-2.66-2.8,4.12.65a.35.35,0,0,0,.41-.3,13.93,13.93,0,0,0,.64-2.4l.11-.68.6-.34c2-1.14,5.27-3,5.8-3.3l.8-.5a54.41,54.41,0,0,0,5.06-3.4,18.67,18.67,0,0,1,4.14-2.35,8.77,8.77,0,0,1-.47-2.58,15.34,15.34,0,0,1,.29-3.14c.08-.4.61-1.87,1-3l.53-1.44,1.4.65a13,13,0,0,0,3.39,1.15c.64,0,1.34,0,1.89-.08a8,8,0,0,1,1.29,0,3.44,3.44,0,0,1,1.27.55,6.52,6.52,0,0,0,1,.52l.14,0a19.17,19.17,0,0,0,3.34.53,22.5,22.5,0,0,0,2.33-3l.09-.13c.33-.46.67-1,.91-1.38a3.76,3.76,0,0,1,.24-2c.11-.31.24-.6.36-.89a5.12,5.12,0,0,0,.46-1.38,2.63,2.63,0,0,0-.74-1.13,8.48,8.48,0,0,1-.92-.79l-.71-.71L70.21,116l.87,0,1.15-.05,1.46-2.46.25-.42.45-.18c5.83-2.32,5.91-2.32,6.25-2.32s7,1.37,8.23,2.09c.7.42,2.66,1.52,3.8,2.14.8-.8,2.11-1.79,3.34-.78a5.35,5.35,0,0,0,1.22.78,12.62,12.62,0,0,0,1.29-.65c.32-.17.57-.31.7-.36.29-.12,1.12-.36,1.76-.54,1.5-3.32,2.35-3.54,2.78-3.66a5.46,5.46,0,0,1,2.27,0l.29.06.83.59,6.52-1,.11,1.52c0,.33.06.7.09,1l.86-.14.37,1.15.13.42.35.22c.3-.47.69-1.13,1-1.77l.57-1.05,2,.68,2-.68.91.83,3.09-.85-.53,2.14,1.73.81.82.38v.58a6.59,6.59,0,0,0,1.09,0,7.49,7.49,0,0,0,.27-1l-.42-2.16,3.19-6.59,1,2.06h1a5.55,5.55,0,0,0,.92-.07,2.9,2.9,0,0,1,1.77-1l2.71-3.27,1.77,3.59,3,5.72,0,0a1.6,1.6,0,0,1,.38.4l1.17-.77.73.36c1.67.83,4.57,2.23,5.22,2.46a14.15,14.15,0,0,1,2.21,1.1l1.09-.59.54.13a9.45,9.45,0,0,0,1.87.31c.64-.2,3.24-1.53,5.41-2.7,1.52-1.33,2.48-2.14,2.86-2.4s1-1.35.68-1.94a10.59,10.59,0,0,0-1.19-2l-.81-.94,2.94-3.29-.47-2.1,1.29-.37a5.83,5.83,0,0,0,1.44-.61c.42-.31,1.13-.78,1.63-1.11l.22-1.56,5.83-2.15.62.92.2.28,3.14-.61.44-.09.41.19a25.42,25.42,0,0,0,2.63,1v-.1a9.86,9.86,0,0,1,1.39-5c.86-1.19,1.45-2,1.77-2.47a3.32,3.32,0,0,1,.54-2.2c.36-.44,1-.84,3.67-2.09l1-.49a9.46,9.46,0,0,0,1.59-1.67c.3-.65,1.46-3.16,2.29-4.8a19.06,19.06,0,0,0,1.34-4.19l.22-1.11,1.13,0c.09,0,2-.06,3.24,0l0-.54c-.12-3.2,0-3.42,0-3.67.31-.94,1.05-1.15,3.68-1.36a10.38,10.38,0,0,1,2.42-2.25c.68-.37,2.14-1,3-1.34l.81-3.23,1.68,1.14a13.92,13.92,0,0,0,2.19,1.26,5.68,5.68,0,0,0,1.15-.34l1.34-.55.61,1.56h0a3.12,3.12,0,0,0,.4-.66l1.79-4.21.9,4.47a5.5,5.5,0,0,0,.14.54l.5.06.17,0,.18-.07a9.08,9.08,0,0,1,1.37-1.54,18.5,18.5,0,0,1,.76-5.15,21.58,21.58,0,0,1,2.47-4.26V46.09a2,2,0,0,1-.64-1.27c0-.16-.25-.82-.4-1.25a15.31,15.31,0,0,1-.52-1.7c-.16-.82-.28-2.17-.29-2.23l-.19-2.2,2.08.75a3,3,0,0,0,1.86.11,8.2,8.2,0,0,1,2.78-1.19c.21-.07.81-.31,1.25-.49a18.79,18.79,0,0,1,3-1.05,22.89,22.89,0,0,1,6.84.51,7.43,7.43,0,0,0,3.19.39,4.37,4.37,0,0,0,1.22-.62,3.2,3.2,0,0,1,2.66-.73,2.86,2.86,0,0,0,1.65.15,11.57,11.57,0,0,0,1.39-.6c-.15-1.45-.44-4.12-.57-5a6.28,6.28,0,0,0-.87-2l-.4-.6L253,23.78l-.86-3.93L256,19l.41,1.16a4.52,4.52,0,0,0,.53,1c.57.15.64.16.88,0a2.11,2.11,0,0,0,.52-.41,2.47,2.47,0,0,1,1.52-.81c.12,0,.58-.13.86-.21a4.63,4.63,0,0,1,1.72-.27,2.24,2.24,0,0,1,1.05.52,2.23,2.23,0,0,0,.54.34,10.37,10.37,0,0,0,2.48-.32l2.61-1.49v2.44c0,.16,0,.34,0,.5a1.43,1.43,0,0,0,.62-.1V17.84l.55-.43s1.15-.89,1.75-1.37a7.35,7.35,0,0,0,.79-.77l1.39-3.7h2.23a4.69,4.69,0,0,0,.39-1.6,6.22,6.22,0,0,0-.09-.79,5.12,5.12,0,0,1,1.74-5.32A25.08,25.08,0,0,1,281,2a6.19,6.19,0,0,0,.72-.52A12.34,12.34,0,0,0,283.3-.72L284-1.9l1.21.66c.76.41,1.69.91,1.95,1l.12,0c1.18.39,1.41.13,1.42.12l.83-1,1.08.75a5.49,5.49,0,0,1,1.66,1.91c1.29.07,2.65.37,3,1.3a4,4,0,0,1,.1.49,9,9,0,0,0,.23,1.18,5.53,5.53,0,0,1,.76,3.12c0,.12.09.29.15.49s.21.69.3,1l.11.44a8.13,8.13,0,0,0,.62,1.83,10.64,10.64,0,0,1,.83,2.42l.11.58-.34.49a6.32,6.32,0,0,0-1,2.19c.13.95.5,2.59.56,2.79h0s0,.15.08.38c.69,4.19,1.42,4.87,1.45,4.9a10.81,10.81,0,0,1,1.16,1.07c.22.23.22.23.43.29.64.17,2.52.41,3.55.52l.9.1.29.86c.46,1.37,1.55,3.6,2.41,4.06l2.4,1.28.51,3.38c.59.27,1.46.7,2.76,1.36l.83.43-.06.93a49.85,49.85,0,0,0-.13,7.16,3.89,3.89,0,0,1,.41,2.56v.12a20.7,20.7,0,0,0,.43,2.48c.23.28.64.83,1.44,2,.92.32,2.94,1,3.76,1.41a7,7,0,0,1,2.36,2l.11.17A15.91,15.91,0,0,1,324,60.5a3.21,3.21,0,0,1-.08,1.87L323,64.71a3.35,3.35,0,0,0,.63-.23c.63-.32,1.61-.9,2.56-1.46a15.42,15.42,0,0,1,3-1.59,12.56,12.56,0,0,1,3.89.28l2,.33-1,1.76c-.63,1.14-1.5,3.23-1.35,4.13a11.71,11.71,0,0,0,1.08,3l4.84,1.46,2.61,1.45L340.57,75h0a3.84,3.84,0,0,0-.42,1.63,7,7,0,0,0,.33,1.61,3.63,3.63,0,0,1,.16,2.41,2.6,2.6,0,0,1-.76.94,2.54,2.54,0,0,0-.25.24s0,.1.09.24a8,8,0,0,0,1.38,2.27c.31.18.66.39,4.16,6.91l1.19,2.22-2.52-.14c-3.8-.21-9.74-.23-11.08.4a8.74,8.74,0,0,0-1.59.89l0,.18-.46.35a32.86,32.86,0,0,0-5.28,4.89A20.18,20.18,0,0,1,323,103a5.76,5.76,0,0,1-.74,1.94,13.12,13.12,0,0,1-1.13,1.35l3.44.39-1.93,2.06a71.57,71.57,0,0,0-4.69,5.49c-1,1.45-2,2.72-2.71,3.55l-.56.71a2.52,2.52,0,0,1-1.83,1,3.71,3.71,0,0,0-1.06.3,9.34,9.34,0,0,0-.88.47c-.89.52-3,1.72-4.26-.23-.65-1-4.35-3.94-5.3-4.12-.64,0-1.57,0-2.31.08a31.28,31.28,0,0,0,0,5.73,2.7,2.7,0,0,1,.55,3.09l-.51,1.11-1.15-.34-1.25,3.65L291,123l-.63.45.28,3.07-3.61-1.31-1.19,1.54-.2,1.19c.72.31,1.36.58,1.52.63a19.3,19.3,0,0,1,2.46,1.05l1,.46-.2,1.08a24.24,24.24,0,0,1-1.44,5.64,28.94,28.94,0,0,0-.56,4.35c0,.5-.08.87-.1,1l-.11.66-.62.38c-.46.26-.94.54-4.59-.78-1.91,2.71-3.82,5.49-4.06,5.95s-.45,1.12-.45,1.12l-.08.18-1.31,1.63.17,9.15-4.67-.7a4.55,4.55,0,0,1-2.38-1.3l-.47-.47-1.31-.31,0,.08c0,.09-.15.45-.23.71-.35,1.16-.82,2.75-2,3.55a6.15,6.15,0,0,1-1.93.82,5.33,5.33,0,0,0-.28,1l.52.38a4.08,4.08,0,0,0,1.07.63c.94.39,3.32,1.65,3.58,1.79l.64.34.3,2.22.8,0,5.94,6.57-1.55.87a19.47,19.47,0,0,1-2.71,1.33c-.32.09-1.33.43-2,.66l-.88,1.2.21,5.35-1.86-.5a40.29,40.29,0,0,0-5.21-1.16h-1.19a12.19,12.19,0,0,0,.94,1.23c.39.12,1.1.26,1.54.33l.78.13.3.73c.1.25,1,2.49-.3,4-.12.14-.23.29-.33.43a2.09,2.09,0,0,1,.78,2,1.65,1.65,0,0,0,.06.45,27.76,27.76,0,0,1,3.52.56s3.76,1.66,3.76,3.45a20.13,20.13,0,0,1-1,4.65c-.24.4-.43.72-6.77,3.73l-.09,2.06L254.6,208l-9.17,5.13L242.35,212l-.94.42-.73,6.24-.52.36a8.68,8.68,0,0,1-3.24,1.53,8.81,8.81,0,0,1-3.1-.47l-.69-.18c-1.76-.45-2.83-.75-2.83-.75l-.26-.1-5.12-2.66c-1.44,1.19-4.22,3.48-5,4a3.88,3.88,0,0,1,2.11,2.07,12.67,12.67,0,0,1,.43,2.72c.05.54.13,1.36.2,1.58a3.44,3.44,0,0,0,.69.67c.22.18.43.36.61.54a12.41,12.41,0,0,0,1.44,1.1l.35.24,6-2-.77,2.6c-2,6.75-2.43,7.19-2.69,7.46s-.73.73-5.22,1.57l-2.55,3.63-1.19-1.08a3.3,3.3,0,0,0-.66-.45,24.12,24.12,0,0,0-1.56,3.76l-.43,1.3-1-.3,0,.08a29.64,29.64,0,0,1-2.74,3.48l-.72.81-6.31-3.16.19-4.18L204,244l-3.08-3.44,0-.6s.15-1.92.15-3v-5.88l2.07,1.08c.64.33,1.11.59,1.46.8.23-.28.49-.62.71-.95l1.14-1.65.8,1.11a20.54,20.54,0,0,0,.15-2.42v-.79l.68-.41c.78-.48,1.23-.73,1.49-.87a10.46,10.46,0,0,0,1.21-2.07l-.54-.37c-1.8-1.2-3.09-2.15-3.27-3.42,0-.34-.14-.89-.24-1.47L199.45,226c.12,1.41.32,3.83.32,4.22s0,1.17-2.52,2.87c-1.2,2.21-3,5.49-3.22,6s-.38.8-3.22,1.89v.52l2.36,5.13-2.32.45c.26,1.46.11,1.79-.13,2.15s-.7,1.2-.7,1.2l0,0a9.24,9.24,0,0,1,1.84.47l.35.21c1.52,1,1.92.77,2,.74a8.63,8.63,0,0,0,1.45-2.23c.75-1.42,1.29-2.44,2.41-2.55.8-.08,2.58-.08,2.78-.08h.75l.42.61.44.62a1.82,1.82,0,0,1,1-.67,2,2,0,0,1,1.93.57c1.09,1,2,1.83,2.06,1.84l1.13,1L207,252.56a8.36,8.36,0,0,0,.79.3c1.21.37,3,2.38,3.92,3.55l.57.7-.4.81c-.37.75-2.32,4.53-4.73,5.51a12.68,12.68,0,0,1-3.87,1.07,4.57,4.57,0,0,0-2.15,1.1,26,26,0,0,0-2.68,2.73c-.24.35-.53.79-5.82,2.87l-2,4.94,3.71,3.48-.67,1a13.48,13.48,0,0,1-4.32,3.76l-1.5.86-.45-1.35a4.31,4.31,0,0,0-1.1.47Zm4.22-5.1a2.73,2.73,0,0,1,.93.16,2.35,2.35,0,0,1,.33.15,11.87,11.87,0,0,0,1.66-1.39l-3.26-3.05,3.15-7.88.57-.22c2.08-.81,4.57-1.86,5.21-2.24a29.18,29.18,0,0,1,3-3.1,7.33,7.33,0,0,1,3.63-1.76,10.06,10.06,0,0,0,3.16-.88c.87-.36,2-2,2.83-3.33a11.19,11.19,0,0,0-2-1.93,22.64,22.64,0,0,1-2.9-1.29l-1.64-.85,2-2.18-.11-.1a1.61,1.61,0,0,1-1.2,1.08c-.83.17-1.49-.15-3-2.3l-1.34,0c-.18.28-.42.74-.6,1.08a9.33,9.33,0,0,1-2.3,3.21c-2,1.42-4.37-.15-5.16-.66l-.06,0a16.73,16.73,0,0,0-2.11-.39,2,2,0,0,1-1.91-1.63c0-.11-.09-.25-.14-.39a1.86,1.86,0,0,1,.14-1.71,2.29,2.29,0,0,1,1.33-.92l.24-.41c-.06-.41-.21-1.17-.34-1.76l-.33-1.44,1.63-.31L188,242.17v-3.1l.92-.34c1-.37,2.19-.85,2.72-1.1.35-.67,1.19-2.26,3.31-6.16l.17-.31.3-.2a15.63,15.63,0,0,0,1.52-1.12c-.06-.82-.2-2.63-.35-4.27l-.06-.71,12.15-10.65.44,2.47c0,.12.5,2.77.67,3.92a11.7,11.7,0,0,0,2.06,1.59,12.21,12.21,0,0,1,1.28.92,2.08,2.08,0,0,1,.56,2.08c-.21,1-1.72,3.95-2.79,4.31l-.63.37c-.05,1.74-.29,3.68-1,4.51a2,2,0,0,1-1.64.69,2.24,2.24,0,0,1-.83-.21c-1,1.22-1.5,1.26-1.84,1.29l-.66.06-.32-.29v1c0,.78-.07,1.9-.11,2.59l.84.93.54-.27c2.37-1.18,3.32-.27,3.62.18l.26.39-.21,4.59,2.72,1.36a19.87,19.87,0,0,0,1.68-2.19,3,3,0,0,1,1.53-1.4,15.68,15.68,0,0,1,2-4.21,2.56,2.56,0,0,1,3.17-.39l1.5-2.13.57-.1a42.24,42.24,0,0,0,4.27-1c.07-.18.17-.43.27-.72l-2.41-.19-.79-3.26A12.21,12.21,0,0,1,222,230c-.12-.12-.27-.24-.42-.37a4.42,4.42,0,0,1-1.59-2,12.6,12.6,0,0,1-.3-2.12,15.46,15.46,0,0,0-.27-2,4.38,4.38,0,0,0-1.35-.84l-.69-.35a2.07,2.07,0,0,1-1.35-1.9c0-1.2,1.18-1.72,1.86-2,.12-.06.24-.1.33-.15.34-.24,3.63-2.95,5.62-4.59l.72-.6,6.66,3.45c.33.09,1.27.35,2.61.7l.7.18a6.77,6.77,0,0,0,2.13.39,6.3,6.3,0,0,0,1.36-.69l.77-6.55,3.43-1.54,2.94,1,8.61-4.82,8.33-.61.06-1.25.77-.36c2.56-1.21,5.42-2.62,6.35-3.16.17-.62.43-1.91.54-2.63a9.21,9.21,0,0,0-1.77-1.16c-.37-.11-2.29-.37-3.85-.54l-.84-.09-.32-.78a6.56,6.56,0,0,1-.51-2.29l-.33-.13-1.54-.48.67-1.47a11.12,11.12,0,0,1,1.4-2.2.92.92,0,0,0,0-.43,10,10,0,0,1-1.31-.35c-.34-.13-1.05-.4-3.27-4l-.38-.62.28-.67a8.45,8.45,0,0,0,.44-1.44,6.57,6.57,0,0,0-.25-1.38,9.85,9.85,0,0,1-.29-1.49c-.12-1.45,1.21-2.9,1.62-3.31l.6-.6.82.25a4.85,4.85,0,0,1,2.54,2.22c.66,1.12.43,2.94.06,4.42.92.13,2.22.43,3.33.7l-.1-2.51,2-2.71.42-.15c.2-.07,2-.7,2.56-.85a5.33,5.33,0,0,0,.53-.24l-2.62-2.9-2.06.11-.45-3.36c-.88-.46-2.17-1.12-2.7-1.34a6.77,6.77,0,0,1-1.67-1l-.63-.46c-1.67-1.15-.91-3.29-.59-4.21,0-.11.07-.2.09-.26.18-1.07,1.22-1.34,1.78-1.49a3.61,3.61,0,0,0,1.15-.45,5.22,5.22,0,0,0,.89-2,6.47,6.47,0,0,1,.47-1.27c.35-.62.49-.91.5-.93l.46-.91,1.66.24,2.66.62,1,1.05a1.84,1.84,0,0,0,.84.5l1.3.2-.13-6.82,1.7-2.13c.08-.19.22-.53.35-.9.07-.19.29-.78,5-7.41l.63-.89,1,.39c.88.33,1.9.69,2.67.92.3-3.23.52-4.38.92-5a30.42,30.42,0,0,0,.86-3.58c-.5-.22-.92-.4-1.05-.45a28.32,28.32,0,0,1-2.89-1.19l-1-.44.7-4.08,2.88-3.74,1.36.5,0-.25,4-2.86,4.05,4.56.56-1.62.13,0a32,32,0,0,1,.11-7.62l.11-1.21,1.21-.08c.1,0,2.4-.15,3.78-.15,2,0,6.23,3.73,7.38,5.11.21-.1.49-.26.69-.38a12.26,12.26,0,0,1,1.15-.61,6.42,6.42,0,0,1,1.78-.51h.1l.52-.65c.65-.81,1.64-2,2.58-3.39a46.72,46.72,0,0,1,3.08-3.75l-1.24-.14.21-2.94.37-.37a22.58,22.58,0,0,0,1.86-2,3.94,3.94,0,0,0,.38-1.27l.07-.57.45-.36a15.4,15.4,0,0,0,2.37-2.73,34.21,34.21,0,0,1,5.64-5.32,7.21,7.21,0,0,1,2.83-1.92c1.8-.84,6.75-.85,9.92-.76-1-1.79-1.89-3.37-2.21-3.83a10.19,10.19,0,0,1-2.22-3.33,2.94,2.94,0,0,1,.76-3.68c0-.17-.1-.38-.15-.55a9.13,9.13,0,0,1-.43-2.38,6.24,6.24,0,0,1,.25-1.7l-.13-.07-5.52-1.62-.28-.5A15.78,15.78,0,0,1,330,68.39a8.37,8.37,0,0,1,.79-4.14,8,8,0,0,0-.86-.06c-.38.17-1.45.8-2.24,1.27-1,.58-2,1.19-2.74,1.55a8.16,8.16,0,0,1-4.19.67l-1.82-.22,2.37-6.07a1.65,1.65,0,0,0,0-.34,14.62,14.62,0,0,0-1-2.22A4.11,4.11,0,0,0,319,57.77c-.75-.35-3.09-1.17-3.93-1.45l-.45-.15-.27-.39c-.61-.9-1.39-2-1.57-2.21h0c-.89-1-1-4.49-1-4.53l0-.21a1.14,1.14,0,0,0-.08-.83c-.21-.34-.69-1.11-.27-7.78-1-.48-1.92-.94-2.32-1.11l-2.63.11-1.8.08.35-1.77c.17-.86.49-2.46,1.88-2.46h.51l-.87-.46c-1.69-.9-2.89-3.4-3.45-4.8a29.21,29.21,0,0,1-3.11-.5,3.24,3.24,0,0,1-1.74-1.07,7.92,7.92,0,0,0-.88-.81c-.68-.55-1.68-1.83-2.47-6.65l0-.13c-.14-.53-.49-2.16-.62-3.13a6.26,6.26,0,0,1,1.16-3.61,8.38,8.38,0,0,0-.47-1.2,11,11,0,0,1-.83-2.39l-.1-.39c-.08-.3-.18-.63-.27-.92a4.1,4.1,0,0,1-.27-1.17,10.66,10.66,0,0,0-.18-1.51,3.86,3.86,0,0,1-.66-1.79c-.39-.05-.81-.1-1-.1a2.1,2.1,0,0,1-1.8-1.34c-.08-.13-.15-.27-.24-.41a4.83,4.83,0,0,1-3.21-.14A5.71,5.71,0,0,1,285,1.87a9.85,9.85,0,0,1-1.49,1.8,8.89,8.89,0,0,1-1,.74,22.47,22.47,0,0,0-2.21,1.65c-1,.79-.92,1.48-.73,2.71a8.29,8.29,0,0,1,.12,1.21c0,.45-.52,4.43-2.4,4.43h-1.09l-.87,2.32-.15.18a10.55,10.55,0,0,1-1.33,1.33l-1.25,1v.41a1.52,1.52,0,0,1,.93,1.22c.14,1.14-1,2.58-2.66,3.22a3.61,3.61,0,0,1-4-.58,1.5,1.5,0,0,1-.33-.48,17.23,17.23,0,0,1-2.54.25,3.54,3.54,0,0,1-2.08-.8l-.5.13c-.45.12-.78.2-1,.25l-.08.08a4.71,4.71,0,0,1-1.26.92,3.71,3.71,0,0,1-2.86.13l-.15,0-.15,0,0,.1-1,2.8a8.06,8.06,0,0,1,.93,2.49c.19,1.23.67,5.87.69,6.07l.1.95-.84.45A20.13,20.13,0,0,1,253,38a5.32,5.32,0,0,1-3-.07c-.16.08-.4.24-.58.34a6.22,6.22,0,0,1-2.3,1,10.28,10.28,0,0,1-4.57-.52,22.52,22.52,0,0,0-5.37-.39,21.24,21.24,0,0,0-2.43.89,8.14,8.14,0,0,1-2,.67,6.76,6.76,0,0,0-1.71.83,4.06,4.06,0,0,1-2.12.5v.07c.05.26.26.85.42,1.33.23.68.39,1.16.48,1.55A12.52,12.52,0,0,0,231,45a2.27,2.27,0,0,1,.83.68l.38.58-.22.67c-.19.55-.57.84-1.4,1.16V52.4l-.29.38a20.48,20.48,0,0,0-2.36,3.94,17.93,17.93,0,0,0-.59,4.78v.62l-.45.42a16.37,16.37,0,0,0-1.28,1.3,2.81,2.81,0,0,1-2.13,1.44,2.73,2.73,0,0,1-1,0,6.63,6.63,0,0,0-.74-.07,1.61,1.61,0,0,1-1.29-.46,4.84,4.84,0,0,1-2.43.39l-.89-.07-.29-.76a4.37,4.37,0,0,1-.93.12,4,4,0,0,1-2-.7l-.2.78-.67.27c-.71.29-2.71,1.11-3.39,1.48a10.8,10.8,0,0,0-1.93,2l-.38.49-.45,0c1.46,1.08.32,3.15-.12,4l-.16.3c-.32,1.11-1.68,1.58-4.06,1.41-.53,0-1.57,0-2.42,0a19.31,19.31,0,0,1-1.34,3.81c-.92,1.8-2.3,4.81-2.31,4.84l-.16.27a11,11,0,0,1-2.61,2.58l-1.08.53c-.69.33-2,1-2.59,1.31a4.2,4.2,0,0,0,0,.66l.06.53-.3.44s-.68,1-2.09,2.93a7.62,7.62,0,0,0-.86,3.58,3.83,3.83,0,0,1-.6,2.31c-.58.68-1.46,1.14-5.62-.69l-3.43.67a1.72,1.72,0,0,1-1.68-.71l-2.21.81-.16,1.15-.54.35s-1.4.92-2.06,1.4a5.89,5.89,0,0,1-1.06.58l.23,1-2.33,2.6c.25.39.54.89.85,1.52,1.21,2.42-.87,5.1-1.67,5.58-.23.16-1.57,1.3-2.66,2.26l-.26.18c-5.53,3-6.31,3.08-6.56,3.1a8.73,8.73,0,0,1-2.35-.25l-1.58.86-.7-.45a15.47,15.47,0,0,0-2.34-1.25c-.81-.28-3.49-1.58-4.83-2.23l-3.65,2.39-.06-2.56v-.09a3.06,3.06,0,0,1-1-.4l-1.13-.71.88-1.59-.07-.14a3.33,3.33,0,0,1-.84.1,1.79,1.79,0,0,1-1.6-.89c-.43-.74-.32-1.8.33-3.15l-.62.74-.59.05a2.29,2.29,0,0,0-.38.08,2.77,2.77,0,0,1-2.24,1.1,2.32,2.32,0,0,1-1.11.89,1.79,1.79,0,0,1-1.44-.06l-.63,1.31.34,1.74,0,.25a5.66,5.66,0,0,1-1.22,2.92c-.74.69-2,.76-3.84.65h-.22a1.69,1.69,0,0,1-1.66-1.53l-1.87-.88a1.53,1.53,0,0,1-.58-.48l-.68.19-.82-.75-1.29.45-.66-.23c-1.32,2.27-1.76,2.36-2.23,2.45a4.77,4.77,0,0,1-3.45-1.71h-.15c-1.14,0-1.45-.78-1.62-2.32l-4.65.7-1.25-.89a3.19,3.19,0,0,0-.48,0,16.42,16.42,0,0,0-1.4,2.68l-.27.63-.66.18c-.86.24-1.91.55-2.12.63l-.38.21c-1.25.69-2.2,1.16-3.06,1a5.83,5.83,0,0,1-2-1c-.2.2-.42.44-.51.54A1.72,1.72,0,0,1,93,118c-.63,0-3.37-1.56-5.55-2.88a61,61,0,0,0-6.66-1.64c-.8.3-3.08,1.19-4.87,1.9-1.5,2.53-1.6,2.66-1.65,2.73-.37.49-.82.66-2.23.73l-1.93,4a5.44,5.44,0,0,1,1.64,2.56,5,5,0,0,1-.59,3.21c-.11.25-.22.52-.32.79a1.58,1.58,0,0,0-.11.43l.54.59-.55.91s-.71,1.19-1.38,2.12l-.09.13c-1.94,2.74-2.81,3.72-3.6,4s-1.68.27-5-.43l-.13,0a6.78,6.78,0,0,1-1.87-.85l-.32-.19-.66,0c-.61,0-1.37.08-2.06.08a10.28,10.28,0,0,1-3.17-.81c-.21.6-.38,1.09-.42,1.24a12.53,12.53,0,0,0-.23,2.56,8.06,8.06,0,0,0,.73,2.75l.63,1.36-1.39.56a21.73,21.73,0,0,0-4.6,2.38,54,54,0,0,1-5.44,3.69l-.75.47c-.64.42-4,2.29-5.38,3.08a17.31,17.31,0,0,1-.65,2.25,3.17,3.17,0,0,1-1.32,1.66,1.9,1.9,0,0,1,0,.33,1.8,1.8,0,0,1-.88,1.3,3.24,3.24,0,0,0-.38.25c-.13.48-.63,2.41-1.07,4.15l-.18.72-3.44,1.3c-.21,1-.43,2.08-.45,2.45,0,.18,0,.38,0,.57a5.24,5.24,0,0,1-.45,2.47,4.22,4.22,0,0,1-1.82,1.9,6.05,6.05,0,0,1-2,.68.41.41,0,0,0,0,.1,2.18,2.18,0,0,0,.15.56,7.23,7.23,0,0,1,.33,1.24,7.12,7.12,0,0,1-.43,3l-.11.37A9.83,9.83,0,0,0,23.5,180l.48.75a15,15,0,0,1,1.41,3.15l.23.77-3.39,3.71.48,6.46-.13.31c-.31.75-1.17,2.86-1.4,3.69a14.45,14.45,0,0,1-.84,2.25l-.28.64c-.34.81-1,2.77-1.15,3.16-.4,1.71-1.21,4.64-2.24,5.55a8.82,8.82,0,0,1-1.09.8c.35.59.8,1.34,1.21,2l.51.83-.81,1a1.71,1.71,0,0,1-.22.57,2.38,2.38,0,0,1-2.19,1c-.47,0-.76,0-1,0a6.26,6.26,0,0,1-1.61-.05,7.74,7.74,0,0,1-2.29-.91l-.52-.26-.5.26a6,6,0,0,0,.72.71c1.32.31,2.43,2.14,2.85,3h0c.21.31,1.77,2.18,2.8,3.41.83,1,1.59,1.9,1.88,2.27a23,23,0,0,1,2,3.49l.15.32v.06a4,4,0,0,1,1.43.24,4.79,4.79,0,0,1,2.79,2.39,5.34,5.34,0,0,0,.39.59,8.65,8.65,0,0,1,.75,1.16,3.2,3.2,0,0,0,1,1.27,15.35,15.35,0,0,1,2.58,2.23l.43.48-.32,2.75a3,3,0,0,0,.33,1.39.84.84,0,0,1,.25,0l.2,0a57.23,57.23,0,0,1,6.61,2.9l4.84,1,7.48,7.41-2.58-6.2v-6.16a101.15,101.15,0,0,1,1.52-13.11c.67-4.17,3.65-6.21,6-7.85.72-.49,1.39-1,2-1.45,2-1.63,3.55-5.73,4-7.17l.38-1.22,10.48,2.1a56.2,56.2,0,0,1,7.58,3.23c2,1.22,3.88,4.68,4.58,6.09l5.59,1.9c3.35-1.27,3.87-1.27,4.1-1.27h0c.19-.06.49-.15,1.1-.29a7.64,7.64,0,0,0,0-1,3.86,3.86,0,0,1,.57-2.76c.79-1,2.87-3,3-3.11l.26-.26,2.92-.83.45.18,2.14.82c0-.74.09-1.67.13-2.56l-1.39-1.7.52-4.86c1.37-3.65,2.29-4,2.69-4.09s1.26-.59,2.27-1.12l-.44-4.88,4.75-3.71,2.7,11.19,3.71-.58.92-2.34,3.45.32,2-3.1,1.23,1.14,1.87,1.72a13.58,13.58,0,0,0,2.58,1.64,7.87,7.87,0,0,1,4.15,3.55c.86,1.8.77,6.51.74,7.43l0,1.43-1.43-.05s-2.08-.07-3.49-.07a10.57,10.57,0,0,0-3.34,1.24l-.49.24a10.85,10.85,0,0,0,0,3.4l.2,1.59h-4.55a47.22,47.22,0,0,0,.37,7.4c.83,7.58-3.62,11-3.81,11.09l-1.84,1.36-3.28-18.79-.26.44c-.15,4.17-.45,9.21-1.06,10.35s-4.71,5.32-6.43,7l-1.57,1.57-.79-2.17-2.11,1.2-.9,12.12-.64.38a22.87,22.87,0,0,0-2.66,1.81c-1.43,1.23-4,1.18-5.06,1a13.27,13.27,0,0,0-.64,1.53,19.29,19.29,0,0,1-1.53,3.11l3.57,3.28-.79,1.74c1.63,1.76,3.79,4.12,4.51,5a22.59,22.59,0,0,0,3.4.65l.54-.88,0-.67L95.91,263l2.91.51c2.3.4,6.21,1.06,6.87,1.11l1.06.09c1,.09,2.21.2,2.9.2.37,0,1.36,0,6.1,1.58a6.26,6.26,0,0,1,2.65,2.07l1.83-.62a7.88,7.88,0,0,1,1.09-2.19l.15-.25.77-.55a31.68,31.68,0,0,0,3.64-3,25.06,25.06,0,0,1,4.62-3.34l1.22-.7.87,1.47a2.77,2.77,0,0,1,1.57.07,2.1,2.1,0,0,1,1.23,1.13l.23.55-.38.91,3.76.75-.19,1.33a26.1,26.1,0,0,0-.14,2.9c.91,1.58,1.07,4.72,1,7.4a1.62,1.62,0,0,1,.67.25c.29.19.85.55,1.42,2.84l1.7-.59,1.73,4.09a5,5,0,0,0,.63-.6,11,11,0,0,1,2.52-2l-.27-2.77,1.34-.19a25.81,25.81,0,0,1,3.06.06,34.21,34.21,0,0,1,2-6.87l.38-1L158,268v0a1.89,1.89,0,0,1,.43-.8,3.37,3.37,0,0,1,1.91-.94,8.58,8.58,0,0,1,.94-4.25l.32-.63,4.92-.84,1.94,1.75a23.43,23.43,0,0,1,4.56,3l.49.41,0,.64a6.71,6.71,0,0,0,1.47,3.43l.29.34.25,2.65,6.37,1.36,2.07,4.29,4.13.47-.54,2.27Zm-92.29-11,0,0Zm-.3-.29ZM123,268.61Zm92.85-22.84h0ZM191.45,238a1.38,1.38,0,0,0-.08.18Zm.39-.44Zm5.27-7.88Zm12.36-2.54h0ZM91,224.51h0Zm4-5.19Zm32.75-15,.08,0Zm.63-2.76.07,0Zm141.21-1.85h0Zm-6.93-7.89h0Zm-1.72-14.42a.77.77,0,0,0-.08.19c0,.16.12.57.22,1l.07.28a2.72,2.72,0,0,0,0-1.12A2.94,2.94,0,0,0,260.88,177.35ZM22.75,178.67Zm241.72-16.61v0ZM289,136.84h0Zm0,0h0ZM58.21,136h0Zm6.52-1.12h0Zm234.31-13Zm-173-7.4h0Zm-10.73-.81v0ZM165,110l-.06,0Zm18.81-13.39h0Zm5.89-8.75h0Zm149.87-1.12h0ZM338,79.92Zm-131.41-7h0Zm16.2-10.36h0Zm-3.68-.3Zm96-10.31Zm-.94-5.41h0ZM229.9,44.61h0Zm2.6-7.52h0ZM262.3,22.4Zm-5.53-1.2h0Zm36.48-15Zm2-1.91h0Zm0,0h0Z"/></svg>