<svg id="Layer_1" data-name="Layer 1" xmlns="http://www.w3.org/2000/svg" viewBox="0 0 350 350"><defs><style>.cls-1{fill:#999;}.cls-2{fill:#f90;}</style></defs><title>M</title><path class="cls-1" d="M332.35,271h-.21c-1,0-1.29-.7-1.37-1.52a9.69,9.69,0,0,0-2.09-4.63c-1.12-1.58-1.13-2.35,1.06-2.56,3-.29,3.8-1.62,2.28-4.19-1-1.68-.65-2.86-.06-4.66.86-2.62,2.1-3.81,4.7-4a3.15,3.15,0,0,0,1.52-.92c6-5.14,6-5.45,3.31-13.07a5.89,5.89,0,0,1-.27-.72c-.74-3.49-2.47-6.14-6-7.35-1.91-.65-2.61-2-2.24-4,.29-1.6.41-3.23.63-4.84.71-5.31-1.41-8.59-6.48-10-.69-.19-1.49-.4-1.57-1.13a46.81,46.81,0,0,1-.22-5.6c0-1.1,1.12-1.39,1.89-1.91a1.83,1.83,0,0,0,.66-2.28c-.38-1.06-1.25-.61-2-.49-2.95.46-5.8,1.4-8.86,1.23-1.8-.1-2.6,1.2-2.54,2.87,0,.62,0,1.22,0,1.83a9.68,9.68,0,0,0-2.69,7.71c-2.2,2.17-5.57,2.5-9.07.48a5,5,0,0,0-1.93-.6,25.19,25.19,0,0,0-10.17.81c-1.78.55-3.47,1.27-5.27-.26-1-.84-2.33-.3-3.34.45a4.81,4.81,0,0,1-4.15.87,56.08,56.08,0,0,1-12-4.37c-1.25-.8-2.47-1.64-3.71-2.47a22.68,22.68,0,0,1-2.88-2.77c-3.56-4.09-8.32-6.52-14.18-5.15a24.62,24.62,0,0,0-3.53.62c-2.32.93-5.37.27-7,2.76-.35.55-.73,1.08-1.12,1.59a16.4,16.4,0,0,0-1.91,1.72,6.28,6.28,0,0,0-1.08,1.55c-2.35,2.26-4.93,4.28-7.2,6.62a8.86,8.86,0,0,1-3.86,2.45c-2,.58-3.27,1.9-4.65,3.39-2.24,2.43-4.79,4.34-8.53,4.45-6.86.21-13-3.37-19.81-3.38a5.39,5.39,0,0,1-2.36-.49c0-.53-.09-1.06-.13-1.58a6,6,0,0,0-.38-1.71l.11-8c.14-.44.28-.89.42-1.33a15.12,15.12,0,0,0,.56-7.85c-.2-1-.45-2-.71-3a49,49,0,0,1,1.31-9.16,14.74,14.74,0,0,0,1.73-4.55c.62-2.79,1.43-5.47,3.44-7.61a2.64,2.64,0,0,0,0-4.08,8.83,8.83,0,0,1-2.66-6.69c0-1.91-1-2.72-2.83-2.19a5,5,0,0,1-5.19-1.36,3.77,3.77,0,0,0-4.9-.65c-3.28,1.81-3.3-1.73-4.55-3A2.25,2.25,0,0,1,170,156c1.53-1.47,3-3,4.4-4.55a17.76,17.76,0,0,0,4.75-6.43,8.16,8.16,0,0,1,1.85-2.75c.85-.8,2-1.6,1.33-3s-2-1.38-3.16-1.18a32.53,32.53,0,0,1-3.24.37,4.44,4.44,0,0,0-3.87-.29,8.38,8.38,0,0,1-1,.31,59.86,59.86,0,0,1-9.93-1.53,5.4,5.4,0,0,0-4.79,1.23c-4.55,3.65-5.77,9.63-9.65,13.75-1,1-.78,2.37-.29,3.64a.51.51,0,0,1-.13.47c-2.05,1.14-3.72-.6-5.61-.77l-.23,0a5.11,5.11,0,0,0-1.06-1.14c.54-2.57.25-5.44,3.06-7.14,1.67-1,3-2.51,4.62-3.66a9.36,9.36,0,0,0,3.15-4.22,15.67,15.67,0,0,0,1.11-4.5,17.82,17.82,0,0,0,.36-1.79,6.28,6.28,0,0,0-.15-2.48,41,41,0,0,1,.27-4.66c.22-1.65-.93-2.34-2.53-1.64a89.9,89.9,0,0,0-8.78,4c-6.08,3.47-12.41,6.5-18.53,9.91-3.3,1.84-4.83,1.45-5.73-2.28-.73-3-2.83-5.13-4.43-7.61-2.24-3.48-6.1-5.17-8.53-8.38-.72-.95-1.88-1.76-1.31-3.1.63-1.5,2.11-1.2,3.37-1.17,3.16.06,6.27.84,9.47.59,3-.24,3.65-1.07,2.26-3.66-1.6-3-3.13-6-2.85-9.45a22.77,22.77,0,0,0-2.1-12.29,3.72,3.72,0,0,1-.16-.75c-.41-1.69-.78-3.23,1.35-4.25,1-.49,1.16-1.83,1-3a2.09,2.09,0,0,1,.65-2.31c1-.73.66-1.71.19-2.54-1.36-2.42-1.52-5.26-2.71-7.73-.45-.94-.17-1.53.64-2.17,1.87-1.5,1.74-2.21-.57-2.91-1.29-.39-2.5-.66-2.62-2.32-.14-1.9-1.52-2.32-3.09-2.86A15.39,15.39,0,0,1,99,54.24c-.51-.71-1-1.5-2-1.25a2.46,2.46,0,0,0-2,1.66,89,89,0,0,0-3.82,14.09c-.5,2.66-2,3.93-4.46,4.11s-5,.1-7.44.17A4.13,4.13,0,0,1,75,70.33c-1.11-2.73-3.84-3.52-5.86-5.15a2,2,0,0,0-2.41.23c-2.21,1.78-4.48,3.71-5.3,6.44a6.42,6.42,0,0,1-3.37,3.92c-7.34,4.18-14.73,4.54-22.39-.15.21,0,.39-.09.58-.14a7.52,7.52,0,0,0-2.9.13,2.75,2.75,0,0,1-.65,1.51,3,3,0,0,1-.54.86c-3,2.35-3.58,5.31-3.2,9,.59,5.8-1,7.09-6.91,7.5A25,25,0,0,0,8.88,99.71,5,5,0,0,0,7,105.47c.52,1.72,1.3,3.62,3.46,3.66,5.48.12,8.63,3.1,10.36,8,.79,2.23,2.31,3,4.62,2.55,3.43-.69,6.89-1.19,10.29-2a8.12,8.12,0,0,1,5.77.46,29.1,29.1,0,0,1,3,5l.84,1.61c.28,2.26.13,4.69,1.95,6.53a1,1,0,0,1-.05,1.2c-2.2,3.3-1.34,7.12-1.81,10.71C45.2,145,46.1,146,48,146.29a47.8,47.8,0,0,0,5.88.45,6.62,6.62,0,0,1,5.61,2.54,8.6,8.6,0,0,0,5.63,3.31,8.52,8.52,0,0,1,2.6.81,28.92,28.92,0,0,0,3.79,4.05c1.19,1.78,2,2.15,3.7,1.68a6.39,6.39,0,0,0,4.44-.86,3.84,3.84,0,0,1,2,1.86c1,1.78,1.74,3.81,3.42,5.07A7.52,7.52,0,0,1,88,171a6.32,6.32,0,0,0,1.67,4.21c.1.09.17.19.26.28.21,1.52.52,3.07.83,4.62v0C89.91,182.44,89.39,185,88,187c-2.92,4.06-3.34,8.48-3.12,13.17C85,201.85,85,203,87.4,203s3.77,2,5.1,3.55c1,1.15-1.12,1.95-1.72,3-1.51,2.61-.61,4.76,2.36,5.25a34,34,0,0,0,5.08.66c2.85,0,4.88.43,2.88,3.93a.91.91,0,0,0,.06.74c1.2,2.28.59,4.71.53,7.08a8.29,8.29,0,0,0,1.45,5.61c1.49,1.8,1.46,4,2.19,5.94a2.4,2.4,0,0,1,.12,1.32c-.34.23-.74.47-1.2.82a16.53,16.53,0,0,0-1.8,1.6c-2.6,1.85-4.85,4.16-7.56,5.82a3,3,0,0,0-1.64,3.59c.43,1.9,1.33,3.75,3.09,4.54a11.17,11.17,0,0,1,2.37,1.45,7.75,7.75,0,0,0,4.37,4.66c.43.52.87,1,1.33,1.52,1.53,1.62,3.11,2.95,5.46,2.93,1.29,0,2.21.51,2.38,1.84.63,5.16,2.07,9.91,5.48,14.05,1.27,1.53,2.27,2.32,4.23,1.91l2-.41a9,9,0,0,0,2.73-.21,26.32,26.32,0,0,0,3.1-.93c1-.17,2-.33,3.05-.45a7.31,7.31,0,0,0,5.32-3.52,78.69,78.69,0,0,0,5.4-8.72,31.89,31.89,0,0,1,4.35-5.09,5.14,5.14,0,0,1,2.12.76.56.56,0,0,0,.49-.08c1.52-1.15,2.64.18,3,1a12.54,12.54,0,0,0,1.17,2c.59,1.16,1.15,2.33,1.67,3.53a4.41,4.41,0,0,0,2.5,2.49,8.65,8.65,0,0,1,.44,1.3,3,3,0,0,0,5.82-.59c0-2.6,1.65-3.7,3.47-4.82a37,37,0,0,1,5.5-3.22c1.49-.59,3.55-1.6,4.49,1.06.52,1.49,1.45,2.63,3.12,2.61a3.34,3.34,0,0,0,2-.69c-.7-4.57-2.46-9.61-.42-13.77s6.2-5.43,10.11-3.12l.06,0a4.13,4.13,0,0,0,.91-.31V246a2.08,2.08,0,0,1,.87-1.77,2.54,2.54,0,0,1,.23-.69,20.31,20.31,0,0,1,1.86-2.82l-1.07-2.15a2.35,2.35,0,0,1,.82-3.14,2.32,2.32,0,0,1,3.06.71c3.74.77,7.57.88,11.36,1.32a2.35,2.35,0,0,1,1.69,1,2.17,2.17,0,0,1,2.53.46c1.8,2.3,1.84,5,2.86,7.57a10,10,0,0,1,1.83,1.53,2.21,2.21,0,0,1,.64,1.48,2.66,2.66,0,0,1,.35.61,2.14,2.14,0,0,1,.77,1,2.36,2.36,0,0,1,1.15.23c1.4.67,2.88,1.17,4.28,1.79.29.12.57.25.84.4a10.15,10.15,0,0,1,2.89,2.07,2.18,2.18,0,0,1,.63,1.63,19.07,19.07,0,0,1,1.5,5.55h0c1,.71,2.85-.32,4-.49h.18a17,17,0,0,1,1.93-2.26,2.24,2.24,0,0,1,.4-.32,2.44,2.44,0,0,1,0-.75c0-.08.11-.68.11-.58,0-.17,0-.34,0-.52,0-.56,0-1.12,0-1.68a2.22,2.22,0,0,1,.16-.82,2.5,2.5,0,0,1-.16-.74,2.3,2.3,0,0,1,2.12-2.27h0l0,0a2.36,2.36,0,0,1,1.71-.46,2,2,0,0,1,.48-.05,16.77,16.77,0,0,1,3.73.6,2.1,2.1,0,0,1,1.14.73,2.49,2.49,0,0,1,.34,0,2.15,2.15,0,0,1,2.21,2.18,2.27,2.27,0,0,1,1,.57,39.38,39.38,0,0,1,6.85,9.31,2.19,2.19,0,0,1,2.1,1c1.8,2.78,5,4.28,6.29,7.44a13.76,13.76,0,0,1,.8,5.48,17.82,17.82,0,0,1,4.73,2.81,46.63,46.63,0,0,0,4.63,1.89,2.48,2.48,0,0,1,1.92.64l0,0,.06,0,.45.26c.36.2.72.39,1.07.61a2.41,2.41,0,0,1,1,1.3,2.64,2.64,0,0,1,1.09,1.37l.07.19,0,.07,4.53,1.51a2.59,2.59,0,0,1,.55.27,1.9,1.9,0,0,1,1.27,0,8,8,0,0,1,3.47,2.33,20.06,20.06,0,0,1,1.25,1.67l.39.57.27.37.06.07a2.71,2.71,0,0,1,.64,1.79,2.52,2.52,0,0,1,.3.14,2,2,0,0,1,.47-.19,16.78,16.78,0,0,1,3.73-.6l.21,0c1.16-.13,2.34-.2,3.5-.34a36.07,36.07,0,0,0-1.08-5.39c-.35-1.24-1.12-2.49-1.09-3.79.07-2.82,2.54-3.55,4.27-4.94a2.3,2.3,0,0,1,1.73-3.76c2.16-.11,3.23.19,4.52-1.73.89-1.32,1.18-2.91,1.83-4.34a8.83,8.83,0,0,1,5.19-5c2-.7,4.38-.42,5.68,1.48a4.8,4.8,0,0,1,.72,2.22,6.75,6.75,0,0,1,0,1.06,2.48,2.48,0,0,1,2.67,1,6,6,0,0,1,2.27-.44,2.15,2.15,0,0,1,1.08.27Q332.38,271.82,332.35,271Z"/><path class="cls-2" d="M296.79,298.65l-.78-.38-1-.34,0-1.07a1.31,1.31,0,0,0-.32-.85l-.05-.07-.08-.09h0l-.26-.36-.39-.57a19.18,19.18,0,0,0-1.16-1.55,6.64,6.64,0,0,0-2.87-1.92.51.51,0,0,0-.33,0l-.64.22-.57-.36a1.2,1.2,0,0,0-.25-.13l-5.09-1.7-.45-1a1.22,1.22,0,0,0-.49-.62l-.45-.28-.16-.5a1,1,0,0,0-.42-.54c-.29-.19-.59-.35-.9-.52l-.1-.05-.51-.29-.29-.22a1.09,1.09,0,0,0-.83-.28l-.32,0-.3-.11A47.9,47.9,0,0,1,273,283.2l-.25-.16a16.32,16.32,0,0,0-4.35-2.6l-.93-.35v-1a12.61,12.61,0,0,0-.69-4.93,11.62,11.62,0,0,0-3.12-3.84,18.12,18.12,0,0,1-3-3.37.79.79,0,0,0-.78-.4l-.92.08-.45-.8a37.8,37.8,0,0,0-6.59-9,.86.86,0,0,0-.38-.22l-1-.28,0-1a.75.75,0,0,0-.79-.82l-.94.13-.5-.62a.68.68,0,0,0-.37-.25,15.73,15.73,0,0,0-3.41-.56.39.39,0,0,0-.14,0l-.24.05-.25,0a1,1,0,0,0-.69.19l-.34.23-.4.08c-.44.05-.89.39-.87.8a1.12,1.12,0,0,0,.07.32l.18.5-.2.5a.82.82,0,0,0-.06.3v.14c0,.54,0,1.08,0,1.61,0,.19,0,.38,0,.57l-1,0,1,.25c0,.06,0,.18,0,.28l-.05.27a1.06,1.06,0,0,0,0,.33l.07.86-.73.46-.15.12a15.5,15.5,0,0,0-1.77,2.07l-.37.53-.78.07a7.72,7.72,0,0,0-.91.26c-1.14.36-2.69.86-3.93.07l-.13-.06-.52-.52L232,263a18,18,0,0,0-1.37-5.14l-.16-.33,0-.37a.76.76,0,0,0-.25-.59,8.71,8.71,0,0,0-2.49-1.78c-.26-.14-.5-.25-.75-.35-.62-.27-1.22-.51-1.82-.75-.83-.33-1.69-.67-2.53-1.07a1,1,0,0,0-.47-.1l-1,0-.38-.92a.73.73,0,0,0-.26-.33l-.35-.24-.16-.39a1.26,1.26,0,0,0-.16-.29l-.27-.35,0-.45a.79.79,0,0,0-.23-.54,8.77,8.77,0,0,0-1.56-1.32l-.41-.25-.17-.45a24.89,24.89,0,0,1-.87-2.89,11,11,0,0,0-1.78-4.32.88.88,0,0,0-.87,0l-1,.44-.66-.93a.94.94,0,0,0-.7-.4c-1.25-.15-2.51-.25-3.77-.36a67.19,67.19,0,0,1-7.72-1l-.61-.12-.32-.53a.93.93,0,0,0-1.08-.25,1,1,0,0,0-.32,1.31l1.47,2.93-.52.7a19.09,19.09,0,0,0-1.73,2.62,1.19,1.19,0,0,0-.1.31l-.11.55-.46.33a.67.67,0,0,0-.28.62v8.54l-.81.38a5.6,5.6,0,0,1-1.23.41l-.56.12-.58-.36a5.64,5.64,0,0,0-4.51-.68,6,6,0,0,0-3.54,3.24c-1.4,2.86-.69,6.46,0,9.95.2,1,.4,2,.55,3l.13.83-.66.51a4.79,4.79,0,0,1-2.88,1c-1.22,0-3.37-.43-4.48-3.55a1.34,1.34,0,0,0-.49-.76c-.37-.17-1.28.2-1.89.45l-.26.1a21.46,21.46,0,0,0-3.75,2.13c-.51.33-1,.67-1.53,1-2,1.21-2.83,1.92-2.79,3.59a4.4,4.4,0,0,1-8.61,1c0-.2-.11-.39-.18-.59a5.93,5.93,0,0,1-2.69-3c-.52-1.2-1-2.3-1.59-3.36a13.84,13.84,0,0,1-1.24-2.15,1.27,1.27,0,0,0-.55-.64s-.15,0-.32.16a1.94,1.94,0,0,1-2.06.18,5.33,5.33,0,0,0-1-.45,30.57,30.57,0,0,0-3.59,4.29,80.57,80.57,0,0,1-5.46,8.81,8.7,8.7,0,0,1-6.3,4.1c-.85.1-1.77.24-2.86.42a27.44,27.44,0,0,1-3.15.93,10.42,10.42,0,0,1-2.94.25l-1.77.37c-2.86.59-4.34-.86-5.61-2.4-3.19-3.86-5-8.56-5.8-14.78,0-.32-.07-.59-.92-.59h-.11c-2.86,0-4.78-1.62-6.43-3.37-.4-.43-.79-.87-1.17-1.33a9.12,9.12,0,0,1-4.67-4.94,9.54,9.54,0,0,0-1.77-1c-1.93-.86-3.28-2.77-3.9-5.52a4.38,4.38,0,0,1,2.29-5.11,36.15,36.15,0,0,0,4.23-3.2c1-.84,2-1.7,3.14-2.49a17.87,17.87,0,0,1,1.86-1.65c.22-.17.44-.32.64-.45l0-.06a17.72,17.72,0,0,1-.63-2.21,7.59,7.59,0,0,0-1.33-3.32c-1.68-2-1.82-4.71-1.77-6.55,0-.58.06-1.15.11-1.73.14-1.75.26-3.26-.47-4.64a2.29,2.29,0,0,1,0-2.1,3.85,3.85,0,0,0,.62-1.54,5.87,5.87,0,0,0-2.28-.27,27.27,27.27,0,0,1-4.36-.52l-.93-.16A5,5,0,0,1,89,213.6a5.13,5.13,0,0,1,.53-4.79,5.49,5.49,0,0,1,1.25-1.35l.35-.31-.09-.1c-1.11-1.3-2.27-2.64-3.62-2.64h-.12c-3.66,0-3.79-2.61-3.86-4.18-.21-4.34,0-9.41,3.38-14.06a16,16,0,0,0,1.93-4.58c.17-.54.34-1.08.52-1.61-.25-1.22-.51-2.56-.71-3.88a7.83,7.83,0,0,1-2-5,6.08,6.08,0,0,0-2.35-4.75,11.63,11.63,0,0,1-3.14-4.26c-.22-.42-.43-.84-.66-1.24a3.54,3.54,0,0,0-.74-.94,7.8,7.8,0,0,1-4.36.69c-2.35.55-3.63-.41-4.83-2.16A25.24,25.24,0,0,1,67.29,155l-.42-.49a7.36,7.36,0,0,0-1.93-.55,10,10,0,0,1-6.54-3.85,5.17,5.17,0,0,0-4.5-2,48.91,48.91,0,0,1-6.05-.46c-2.73-.37-4.16-2.12-3.82-4.68a28.05,28.05,0,0,0,.17-3.15c0-2.65.1-5.38,1.74-8-1.52-1.79-1.71-3.9-1.87-5.77,0-.32-.06-.64-.09-1l-.17-.32-.55-1.05-.42-.82a24.13,24.13,0,0,0-2.2-3.71,7,7,0,0,0-4.54-.21c-2.09.48-4.22.86-6.27,1.23-1.35.24-2.71.48-4.06.76a5,5,0,0,1-6.23-3.47c-1.67-4.71-4.54-6.94-9.05-7-3.42-.07-4.41-3.42-4.79-4.67A6.43,6.43,0,0,1,8,98.57a26.52,26.52,0,0,1,13.9-5.44c2.9-.2,4.42-.62,5.07-1.39s.78-2.13.53-4.56C27.22,84,27.34,80,31.19,76.95l.07-.14c.07-.14.14-.28.21-.4l.11-.16a1.33,1.33,0,0,0,.34-.74L32,75l-.21-.13.23,0,0-.32.94-.27a8.88,8.88,0,0,1,3.44-.18l7.62.82-4.42,1.17c5.81,2.46,11.65,2,17.76-1.53a5,5,0,0,0,2.71-3.09c.91-3,3.25-5.11,5.77-7.14A3.34,3.34,0,0,1,70,64.07a17.51,17.51,0,0,0,1.82,1.22c1.65,1,3.52,2.16,4.46,4.49a2.72,2.72,0,0,0,2.9,1.82c.93,0,1.87,0,2.81,0,1.51,0,3.07,0,4.58-.13,1.88-.14,2.8-1,3.17-3a89.75,89.75,0,0,1,3.88-14.32,3.87,3.87,0,0,1,3-2.55A3.1,3.1,0,0,1,100,53.24l.12.17a13.83,13.83,0,0,0,7,4.94l.13,0c1.56.54,3.71,1.27,3.92,4.05,0,.5.09.61,1.42,1l.19.06c.83.25,2.55.77,2.83,2.24s-1.12,2.59-1.79,3.13a1.79,1.79,0,0,0-.32.3l.07.15a21.66,21.66,0,0,1,1.3,3.83A16.45,16.45,0,0,0,116.32,77c1.36,2.43.22,3.78-.58,4.38-.15.11-.21.16-.09,1,.32,2.16-.32,3.79-1.77,4.49-1,.47-1,.75-.59,2.64a4.17,4.17,0,0,1,.08.44V90a24.18,24.18,0,0,1,2.2,13c-.24,2.92,1.07,5.65,2.69,8.67.63,1.17,1.26,2.69.55,4s-2.4,1.63-3.95,1.75a29.93,29.93,0,0,1-5.85-.28c-1.3-.15-2.52-.29-3.75-.31l-.55,0c-1.32-.06-1.37.05-1.49.32s-.11.25.59,1c.19.21.38.43.54.65a21.55,21.55,0,0,0,3.76,3.57,21.33,21.33,0,0,1,4.83,4.9c.42.65.87,1.27,1.35,1.92a17.16,17.16,0,0,1,3.27,6.12c.43,1.78.88,2.15,1.06,2.22s.87.12,2.61-.85c2.85-1.59,5.78-3.12,8.62-4.59,3.27-1.7,6.65-3.46,9.89-5.31a60.05,60.05,0,0,1,6.64-3.12l2.28-1a3.38,3.38,0,0,1,3.45.16,3.06,3.06,0,0,1,1.06,3,38.08,38.08,0,0,0-.25,4.31A7.66,7.66,0,0,1,153,133c-.08.57-.2,1.16-.37,1.84a16.82,16.82,0,0,1-1.21,4.81,10.91,10.91,0,0,1-3.62,4.81c-.62.45-1.21,1-1.84,1.5a21.23,21.23,0,0,1-2.88,2.21c-1.56.95-1.82,2.31-2.12,4.47,0,.32-.09.63-.14.95l.29.32a9.55,9.55,0,0,1,1.94.62,5.46,5.46,0,0,0,1.62.48,4.18,4.18,0,0,1,.92-4,27.79,27.79,0,0,0,3.92-5.94c1.54-2.82,3.13-5.74,5.88-7.94a6.79,6.79,0,0,1,6-1.5,58.25,58.25,0,0,0,9.48,1.49,6.34,6.34,0,0,0,.63-.2,5.87,5.87,0,0,1,4.68.16c1-.08,1.89-.19,2.71-.33,2.16-.38,3.87.33,4.67,1.94,1.09,2.21-.55,3.69-1.34,4.4l-.29.26a6.68,6.68,0,0,0-1.53,2.28,19.26,19.26,0,0,1-5,6.87c-1.19,1.35-2.43,2.62-3.5,3.68a10.59,10.59,0,0,1,.59,1.12c.18.37.54,1.14.74,1.21a1.75,1.75,0,0,0,1-.32,5.19,5.19,0,0,1,6.57.86,3.58,3.58,0,0,0,3.8,1,3.59,3.59,0,0,1,3.36.41,3.63,3.63,0,0,1,1.29,3.16,7.39,7.39,0,0,0,2.25,5.67,4,4,0,0,1,.05,6c-1.69,1.8-2.46,4.07-3.09,6.94A16.3,16.3,0,0,1,186.6,187a47.22,47.22,0,0,0-1.2,8.47c.23.89.47,1.84.67,2.83a16.59,16.59,0,0,1-.6,8.57l-.24.75-.12.37-.11,7.56a7.43,7.43,0,0,1,.37,1.84c0,.22,0,.44.05.66a4.76,4.76,0,0,0,1,.1,38.51,38.51,0,0,1,10,1.75,33.84,33.84,0,0,0,9.78,1.64c2.77-.08,5-1.28,7.53-4a11.55,11.55,0,0,1,5.29-3.79,7.4,7.4,0,0,0,3.24-2.08c1.33-1.38,2.78-2.65,4.17-3.88,1-.85,2-1.72,2.89-2.62a7.8,7.8,0,0,1,1.2-1.66,17.86,17.86,0,0,1,1.92-1.76c.36-.47.67-.91.94-1.34,1.4-2.19,3.63-2.54,5.43-2.82a10.26,10.26,0,0,0,2.19-.49,9,9,0,0,1,2.46-.5,10.72,10.72,0,0,0,1.28-.18c5.81-1.36,11.2.57,15.57,5.6a21.06,21.06,0,0,0,2.65,2.55l.76.51c1,.64,1.9,1.28,2.87,1.9a55.16,55.16,0,0,0,11.62,4.19,3.39,3.39,0,0,0,2.93-.65c1.9-1.38,3.76-1.52,5.1-.38,1,.86,1.84.65,3.49.13l.45-.14a26.49,26.49,0,0,1,10.73-.87,6.44,6.44,0,0,1,2.49.78c2.63,1.51,5.11,1.55,6.92.14a11.13,11.13,0,0,1,2.75-7.7c0-.42,0-.81,0-1.17a4.36,4.36,0,0,1,1.16-3.34,3.63,3.63,0,0,1,2.88-1,22.59,22.59,0,0,0,5.83-.7c.89-.18,1.81-.37,2.74-.52l.3-.06c1.65-.39,2.73.11,3.22,1.48a3.24,3.24,0,0,1-1.2,3.94c-.21.14-.43.27-.66.4a3,3,0,0,0-.62.41,49.91,49.91,0,0,0,.21,5.14c.16.06.39.12.54.16,5.72,1.54,8.32,5.53,7.52,11.52-.08.57-.14,1.14-.2,1.71-.12,1-.24,2.12-.43,3.2-.29,1.55.29,2.08,1.31,2.43,3.74,1.28,6,4,6.94,8.4a1.51,1.51,0,0,0,.08.2c0,.11.1.23.14.34,2.91,8.15,2.66,9.1-3.72,14.61l-.08.07a4,4,0,0,1-2.26,1.19c-1.93.14-2.74.84-3.45,3-.57,1.73-.73,2.38-.07,3.5.37.63,1.51,2.56.63,4.27-.6,1.18-1.91,1.85-4,2l-.25,0,.21.3a10.92,10.92,0,0,1,2.34,5.31,2.36,2.36,0,0,0,0,.24l1.5,0,.05,1.34q0,.73.11,1.47l.3,2.74-2.4-1.34a.59.59,0,0,0-.37-.09,4.63,4.63,0,0,0-1.75.33l-1,.43-.65-.92a1.12,1.12,0,0,0-1.15-.48l-1.84.49.06-2.14a4.11,4.11,0,0,0,0-.61,3.49,3.49,0,0,0-.48-1.6c-.95-1.39-2.71-1.39-4.05-.94a7.4,7.4,0,0,0-4.36,4.26c-.22.48-.4,1-.58,1.53a12.33,12.33,0,0,1-1.36,3c-1.52,2.24-3.1,2.28-4.78,2.32l-.84,0a.86.86,0,0,0-.81.51.91.91,0,0,0,.12.94l.89,1.1-1.11.89a16.75,16.75,0,0,1-1.44,1c-1.49,1-2.27,1.53-2.3,2.87a5.58,5.58,0,0,0,.54,2,14.47,14.47,0,0,1,.49,1.39,37.54,37.54,0,0,1,1.12,5.61l.17,1.41-1.41.17c-.62.07-1.24.13-1.87.18l-1.64.16-.14,0-.27,0a15.8,15.8,0,0,0-3.35.56l-.13.06Zm.1-4.45,0,0a4.42,4.42,0,0,1,.66,1.1,16.18,16.18,0,0,1,3.36-.48h.24l1.55-.15.34,0a34.53,34.53,0,0,0-.83-3.75c-.1-.35-.25-.72-.4-1.12a7.81,7.81,0,0,1-.74-3.09c.08-2.9,2-4.16,3.6-5.17l.29-.19a3.74,3.74,0,0,1,.2-2.53,3.68,3.68,0,0,1,3.26-2.18l.92,0c1.49,0,1.8,0,2.5-1.07a10.06,10.06,0,0,0,1-2.34c.2-.58.41-1.19.69-1.79a10.22,10.22,0,0,1,6-5.77c2.92-1,5.79-.2,7.31,2a6,6,0,0,1,.93,2.66,3.91,3.91,0,0,1,1.7.82l.23-.05a3.91,3.91,0,0,1-.4-1.45,8.42,8.42,0,0,0-1.83-3.94c-.46-.64-1.41-2-.81-3.28s1.82-1.41,2.9-1.51c1.49-.14,1.74-.51,1.75-.52s.14-.38-.55-1.55c-1.34-2.28-.78-4-.18-5.82,1.07-3.26,2.85-4.75,5.94-5,.07,0,.42-.34.61-.51l.08-.07c5.36-4.62,5.36-4.62,2.9-11.52l-.07-.18a3.78,3.78,0,0,1-.25-.72c-.71-3.36-2.33-5.36-5.09-6.31-2.55-.88-3.68-2.87-3.18-5.62.18-1,.29-2,.4-3,.07-.59.13-1.19.21-1.77.62-4.63-1.06-7.22-5.44-8.4-.79-.21-2.44-.66-2.61-2.36a48.48,48.48,0,0,1-.23-5.77A3.25,3.25,0,0,1,326,199c.16-.09.31-.17.45-.27a.34.34,0,0,0,.19-.3l-.49.1c-.86.13-1.7.31-2.6.49a25.08,25.08,0,0,1-6.56.75,1,1,0,0,0-.74.19,1.71,1.71,0,0,0-.31,1.21c0,.6,0,1.24,0,2l0,.56-.41.39a8.26,8.26,0,0,0-2.25,6.58l0,.65-.47.46c-2.73,2.69-6.86,3-10.78.7a3.59,3.59,0,0,0-1.37-.41,23.73,23.73,0,0,0-9.6.76l-.43.14c-1.66.53-3.93,1.25-6.18-.67-.28-.24-1,.1-1.59.51a6.25,6.25,0,0,1-5.36,1.09,57.94,57.94,0,0,1-12.3-4.49c-1.07-.68-2-1.33-3-2l-.91-.62a24.24,24.24,0,0,1-3.05-2.94c-3.69-4.24-8-5.82-12.79-4.7a12.85,12.85,0,0,1-1.63.24,6.7,6.7,0,0,0-1.7.31,12.51,12.51,0,0,1-2.82.67c-1.72.27-2.8.48-3.47,1.54-.35.54-.74,1.1-1.2,1.69l-.25.25a15.08,15.08,0,0,0-1.74,1.57,4.84,4.84,0,0,0-.84,1.2l-.11.22-.18.17c-1,1-2.11,1.94-3.16,2.86-1.35,1.19-2.75,2.42-4,3.72a10.28,10.28,0,0,1-4.48,2.82c-1.58.46-2.61,1.49-4,3-2,2.21-5,4.77-9.53,4.91a36.25,36.25,0,0,1-10.61-1.73,35.8,35.8,0,0,0-9.25-1.65,6.81,6.81,0,0,1-3-.63l-.73-.35-.12-1.49c0-.31-.05-.61-.08-.92a4.6,4.6,0,0,0-.29-1.31l-.1-.25.12-8.51.24-.76c.08-.26.17-.52.25-.79a13.8,13.8,0,0,0,.51-7.12c-.2-1-.45-2-.69-2.89l-.06-.22v-.22a50,50,0,0,1,1.35-9.42l.05-.21.11-.18a13.31,13.31,0,0,0,1.55-4.12c.64-2.88,1.54-5.87,3.79-8.27.76-.81.76-1.34,0-2.11a10.19,10.19,0,0,1-3.07-7.72c0-.58-.13-.82-.18-.86s-.3-.1-.83.06a6.37,6.37,0,0,1-6.57-1.7,2.38,2.38,0,0,0-3.24-.43,4,4,0,0,1-3.2.54,4.42,4.42,0,0,1-2.44-2.69,4.66,4.66,0,0,0-.59-1,3.66,3.66,0,0,1-.54-.67l-.61-1,.82-.8c1.22-1.18,2.82-2.76,4.32-4.47l.14-.14a16.25,16.25,0,0,0,4.37-5.92,9.51,9.51,0,0,1,2.18-3.21l.33-.31c.84-.76.81-.82.7-1s-.31-.64-1.65-.41a33.62,33.62,0,0,1-3.38.39l-.42,0-.37-.21a3,3,0,0,0-2.67-.2,9.64,9.64,0,0,1-1.17.36l-.21.05h-.21a60.46,60.46,0,0,1-10.17-1.57,4,4,0,0,0-3.59,1c-2.3,1.85-3.69,4.4-5.17,7.09a30.38,30.38,0,0,1-4.34,6.52c-.18.19-.59.62,0,2.16a1.87,1.87,0,0,1-.77,2.21c-1.92,1.07-3.63.38-4.89-.12a6,6,0,0,0-1.54-.48l-.8-.07-.47-.56a3.75,3.75,0,0,0-.76-.83l-.7-.54.18-.87c.11-.51.18-1,.25-1.56.3-2.14.67-4.81,3.46-6.5a18.76,18.76,0,0,0,2.49-1.93c.65-.56,1.32-1.14,2-1.66a7.87,7.87,0,0,0,2.67-3.63,14.12,14.12,0,0,0,1-4.1l0-.19a16.47,16.47,0,0,0,.34-1.65,4.87,4.87,0,0,0-.12-1.92l0-.19v-.19a41.82,41.82,0,0,1,.28-4.82,1.33,1.33,0,0,0,0-.3,1.59,1.59,0,0,0-.57.15l-2.32,1a57.06,57.06,0,0,0-6.33,3c-3.29,1.88-6.7,3.65-10,5.37-2.82,1.47-5.73,3-8.55,4.55-1.59.89-3.45,1.7-5.12,1s-2.3-2.6-2.68-4.15a14.75,14.75,0,0,0-2.8-5.12c-.48-.66-1-1.34-1.44-2.06a18.86,18.86,0,0,0-4.23-4.23,24,24,0,0,1-4.24-4.07c-.13-.17-.27-.33-.41-.49-.7-.8-1.87-2.13-1.08-4,.93-2.21,3.08-2.11,4.23-2.06l.47,0c1.37,0,2.72.18,4,.33a27.5,27.5,0,0,0,5.31.27,5.24,5.24,0,0,0,1.65-.3,4.42,4.42,0,0,0-.52-1.27c-1.83-3.42-3.32-6.55-3-10.24a21.43,21.43,0,0,0-2-11.55,2.77,2.77,0,0,1-.24-.91s0-.09,0-.13c-.4-1.63-1.06-4.35,2.12-5.87.16-.08.33-.61.19-1.51a3.49,3.49,0,0,1,1.21-3.65l.08-.07h0a3.67,3.67,0,0,0-.29-.64,18.89,18.89,0,0,1-1.63-4.47,19.17,19.17,0,0,0-1.12-3.34,3,3,0,0,1,1-3.89l.36-.3-.45-.15-.19-.06c-1.29-.38-3.25-1-3.44-3.51-.06-.8-.32-1-2-1.59l-.13,0a16.79,16.79,0,0,1-8.41-6l-.14-.19a4.69,4.69,0,0,0-.39-.5c-.72.17-.86.32-1,.77A86.93,86.93,0,0,0,92.56,69c-.62,3.26-2.55,5-5.76,5.26-1.6.11-3.21.13-4.76.14-.91,0-1.83,0-2.74,0a5.49,5.49,0,0,1-5.61-3.59c-.6-1.47-1.86-2.25-3.32-3.15a19.87,19.87,0,0,1-2.12-1.43.88.88,0,0,0-.64.23c-2.24,1.8-4.15,3.48-4.83,5.75a7.84,7.84,0,0,1-4,4.74c-8.1,4.61-16.12,4.55-23.83-.17h0l-.43,0a4.53,4.53,0,0,1-.62,1.07l-.06.12A2.86,2.86,0,0,1,33,79.11c-2.28,1.79-3.05,4-2.67,7.79.24,2.32.28,4.93-1.18,6.67s-3.84,2.17-7,2.39a23.42,23.42,0,0,0-12.41,4.9,3.61,3.61,0,0,0-1.31,4.21c.65,2.19,1.28,2.63,2.13,2.65,5.68.12,9.61,3.12,11.66,8.93.54,1.52,1.36,2,3,1.64,1.37-.28,2.74-.52,4.12-.77,2-.36,4.12-.74,6.13-1.2a9.48,9.48,0,0,1,6.76.59l.25.13.18.21a24.8,24.8,0,0,1,2.71,4.45l.41.79.56,1.08.4.77,0,.25c.05.43.09.87.13,1.3.15,1.75.29,3.27,1.42,4.41a2.33,2.33,0,0,1,.12,3c-1.3,2-1.34,4.23-1.39,6.64a30.81,30.81,0,0,1-.19,3.47c-.1.73-.05,1.3,1.4,1.5a46.17,46.17,0,0,0,5.71.44,8,8,0,0,1,6.71,3.1,7.21,7.21,0,0,0,4.72,2.77,9.9,9.9,0,0,1,3,.94l.25.13.8,1a21.69,21.69,0,0,0,3,3.12l.17.14.12.19c1,1.44,1.21,1.36,2.14,1.11l.3-.08.3,0a5,5,0,0,0,3.47-.66l.58-.36.64.23a5.23,5.23,0,0,1,2.72,2.49c.25.44.48.89.72,1.35a9.24,9.24,0,0,0,2.32,3.3,9,9,0,0,1,3.47,6.74,4.85,4.85,0,0,0,1.24,3.32c.1.09.18.19.26.28l.3.33.12.51c.21,1.51.52,3,.82,4.53l.08.4-.14.38c-.22.62-.41,1.24-.6,1.86a18.26,18.26,0,0,1-2.34,5.4c-2.83,3.93-3,8.22-2.85,12.27a4.54,4.54,0,0,0,.18,1.36h0a2,2,0,0,0,.91.12h.06c2.66,0,4.46,2.1,5.77,3.63l.35.4a2.29,2.29,0,0,1,.61,1.7,3.51,3.51,0,0,1-1.53,2.31,4.27,4.27,0,0,0-.64.62,2.52,2.52,0,0,0-.42,2.16,2.28,2.28,0,0,0,1.79,1l1,.17a24.89,24.89,0,0,0,3.91.48c1.83,0,3.86.18,4.73,1.69.75,1.3.18,2.83-.43,4a11.08,11.08,0,0,1,.67,5.94c0,.53-.08,1.06-.1,1.58-.06,2.19.3,3.68,1.12,4.67a10.17,10.17,0,0,1,1.91,4.48,15.29,15.29,0,0,0,.52,1.87,3.82,3.82,0,0,1,.18,2.11l-.12.55-.47.32-.39.26c-.23.15-.48.31-.75.52a15.14,15.14,0,0,0-1.65,1.46l-.2.17c-1.05.75-2,1.57-3.07,2.43a38.9,38.9,0,0,1-4.57,3.44c-1.1.67-1.2,1.18-1,2.07.29,1.29.92,2.95,2.29,3.55a12.57,12.57,0,0,1,2.67,1.63l.31.25.14.37a6.32,6.32,0,0,0,3.58,3.84l.32.13.22.27c.42.5.84,1,1.28,1.46,1.49,1.58,2.71,2.52,4.41,2.48a3.42,3.42,0,0,1,3.79,3.08c.71,5.74,2.3,9.85,5.17,13.32,1.16,1.4,1.69,1.67,2.85,1.43l2.16-.45.2,0a7.51,7.51,0,0,0,2.3-.18,24.87,24.87,0,0,0,2.93-.88l.24-.06c1.2-.2,2.19-.35,3.12-.46,1.77-.21,3-1,4.33-2.93a77.44,77.44,0,0,0,5.3-8.57l.08-.14a33.37,33.37,0,0,1,4.55-5.31l.46-.43.63.05a5.93,5.93,0,0,1,2.13.64,3,3,0,0,1,2.24-.32,4,4,0,0,1,2.44,2.23,10.92,10.92,0,0,0,1,1.78l.1.16c.58,1.14,1.14,2.32,1.71,3.61a3,3,0,0,0,1.7,1.73l.57.21.24.56a10,10,0,0,1,.51,1.51c.07.28.28,1.14,1.62,1,.33,0,1.42-.23,1.41-1.23-.07-3.47,2.37-5,4.14-6.06.49-.3,1-.62,1.46-.94a23.9,23.9,0,0,1,4.27-2.4l.24-.1c1.12-.45,2.64-1.07,4.12-.4a3.87,3.87,0,0,1,2,2.4c.59,1.67,1.38,1.66,1.76,1.66a2.23,2.23,0,0,0,.49-.06c-.11-.62-.23-1.24-.36-1.87-.78-3.94-1.58-8,.24-11.74a8.75,8.75,0,0,1,5.27-4.71,8.27,8.27,0,0,1,5.66.4V246a3.52,3.52,0,0,1,1-2.55,3.61,3.61,0,0,1,.23-.56,18,18,0,0,1,1.46-2.31l-.69-1.37a3.75,3.75,0,0,1,1.32-5,3.61,3.61,0,0,1,2.76-.43,3.72,3.72,0,0,1,1.86,1,68.91,68.91,0,0,0,6.89.83c1.28.11,2.57.22,3.85.37a3.82,3.82,0,0,1,2,.82,3.41,3.41,0,0,1,3.21,1.17,13.58,13.58,0,0,1,2.29,5.36c.19.75.38,1.46.62,2.15a13.18,13.18,0,0,1,1.66,1.46,3.62,3.62,0,0,1,1,2l.12.21a3.54,3.54,0,0,1,.47.51,3.82,3.82,0,0,1,.92.31c.75.36,1.53.67,2.34,1,.64.25,1.27.5,1.89.78.3.12.62.28.93.44a11.38,11.38,0,0,1,3.25,2.35,3.6,3.6,0,0,1,1,2.28,18.88,18.88,0,0,1,1.33,4.67,11.77,11.77,0,0,0,1.14-.32c.33-.1.64-.21,1-.28a19.44,19.44,0,0,1,1.73-2h0a3.46,3.46,0,0,1,.07-.38l0-.12c0-.11,0-.21.07-.31s0-.28,0-.42c0-.49,0-1,0-1.47v-.14a3.57,3.57,0,0,1,.1-.82,3.56,3.56,0,0,1,2.91-4.35,3.78,3.78,0,0,1,2.23-.57,3.27,3.27,0,0,1,.57,0,18.11,18.11,0,0,1,4,.64,13.2,13.2,0,0,1,4.61,3.28,3.79,3.79,0,0,1,.69.53,39.51,39.51,0,0,1,6.71,8.95,3.6,3.6,0,0,1,2.44,1.65,15.75,15.75,0,0,0,2.6,2.84,13.94,13.94,0,0,1,3.81,4.83,13.7,13.7,0,0,1,.9,5.08,20.21,20.21,0,0,1,4.07,2.55c1.33.64,2.74,1.18,4.09,1.67h0a3.91,3.91,0,0,1,2.57,1l.31.18-.58,1.29.67-1.25c.37.2.74.4,1.09.63a3.83,3.83,0,0,1,1.4,1.59,4.12,4.12,0,0,1,1.1,1.41L289,288.5l.3.12a3.21,3.21,0,0,1,1.55.16,9.41,9.41,0,0,1,4.06,2.74,21.48,21.48,0,0,1,1.34,1.79ZM150.68,265h0ZM113.38,90h0Z"/></svg>