<svg id="Layer_1" data-name="Layer 1" xmlns="http://www.w3.org/2000/svg" viewBox="0 0 350 350"><defs><style>.cls-1{fill:#999;}.cls-2{fill:#f90;}</style></defs><title>M</title><path class="cls-1" d="M327.66,203.53C325.1,195.85,343.75,186,343.75,186s-20.12-9.14-30.36-9.14-21.21,10.24-24.5,11S274.26,186,271.7,186s-14.26-6.95-15.36-8.41.73-28.89,1.46-30.36-6.22-11-6.22-11l-9.88-1.46s-9.14,13.17-10.24,13.53-24.5,11-34,10.61,1.83-8.41-3.29-11.7-9.87,1.83-16.82,5.12-8.41-14.63-8.41-14.63l-5.85-5.85-20.85-9.14s-15.36,6.22-20.12,11-3.29,10.24-11.34,7.68-11.34-23.41-11.34-23.41l-16.09,11s-8.78-3.29-11-5.12-11.7,0-11.7,0a27.13,27.13,0,0,1-8.78-6.22c-4.75-4.75,8.78-13.17,8.78-13.17L51.89,88.14a19.06,19.06,0,0,0-5.49,2.38c-2.93,1.83-15,17.56-15,17.56H25.68s-2,5.85-2,7.56,2,6.34,2,6.34l2.68,6.1,2,4.63-5.12,2.68S15.68,132,11.53,132.7s-4.88,7.56-4.88,7.56l3.9,5.85,3.17,2S5,151.71,6.41,154.64s7.8,6.1,7.8,6.1l-4.63,6.83,2.68,4.63,2.93,10,15.12,4.39,10.06,3.78,36.94,26.52,18.29,12.8s.91-8.78,1.83-9.69,5.67-1.1,7.5-2.74c1.53-1.37,4.32-3.76,5.2-4.51l14.55,3.2c-.29,3-.77,10-.37,9.9s9.14,9.51,9.14,9.51l32.19,4.57.91,5.85,15.36,15.54h7.5l2.38-5.67,9,6.22,6.4-4,3.66-.91,2.93-11-13.31-1.61,5.82-7.9L175,227.89,184.1,216l15.54,2.38,11.89-2,8.23-8.23,2.19-8.23,3.47-13.35,5.67,7.86s-1.1,4.94,1.46,6.58c0,5.67,3.66,10.79,5.3,4.57,3.29-8.78,8.23-5.85,8.23-5.85l6.4,6.77.18,8.78s7.31,7.31,13.17,8,12.44-5.49,12.44-5.49,9.69,10.79,11.52,10.06,7.13-10.24,7.13-10.24l-1.65-13,9.69-4.57,2.56,11.52s1.1,4.57,2.93,7.13,5.67,4,8.78,4.57,6,.37,8.41-1.1,5.12-9.69,5.12-9.69S330.22,211.21,327.66,203.53Z"/><path class="cls-2" d="M200.71,263.56l-8.29-5.75-2.06,4.92h-9l-16.1-16.29-.82-5.27-31.66-4.5-.35-.39c-3.25-3.67-7-7.69-8.3-8.88l-.07,0-.63-.49c-.5-.4-1.06-.85-.24-9.89l-12.64-2.78c-1.16,1-3.36,2.88-4.64,4s-3.45,1.68-5.34,2.12a15.25,15.25,0,0,0-2.06.57A53.82,53.82,0,0,0,97,229.83l-.25,2.4L76.5,218l-36.8-26.42-9.83-3.69-15.81-4.59L11,172.76l-3-5.25,4.25-6.26c-2.1-1.19-5.8-3.54-7-6a3,3,0,0,1-.1-2.45c.74-2,3.56-3.8,5.72-4.93l-1.21-.74L5.2,140.61l.05-.51c0-.32.9-7.9,6-8.8,3.92-.69,11.48,1.74,13.79,2.54L28.5,132l-1.45-3.43-2.67-6.08c-.35-.84-2.07-5-2.07-6.91s1.69-7,2-8l.32-1h6.05c2.4-3.12,12.11-15.57,14.94-17.34a20.42,20.42,0,0,1,5.94-2.56l1-.22,9.91,18.38-1.13.7c-3.34,2.08-8.77,6.47-9.11,9.37a1.8,1.8,0,0,0,.58,1.59,27.77,27.77,0,0,0,7.93,5.75c2.79-.51,10.08-1.6,12.46.38,1.51,1.26,7.12,3.56,9.88,4.62l17.33-11.82.35,2.21c.88,5.56,4.46,20.4,10.37,22.28,4.35,1.38,4.93.33,6.48-2.49a20.18,20.18,0,0,1,3.42-4.84c4.9-4.9,19.95-11,20.59-11.28l.55-.22,21.64,9.49,6.41,6.41,0,.52c.36,4.42,1.91,12,4.53,13.5a1.83,1.83,0,0,0,1.87,0c1.79-.85,3.43-1.82,5-2.76,4.47-2.65,8.69-5.16,13.18-2.27,3.31,2.13,1.83,5.64.85,8-.4.94-1.06,2.5-.8,2.91.12.2.8.55,2.53.61,5.26.19,16-3.12,31.91-9.87l1.41-.59c1.05-.94,5.71-7.3,9.72-13.07l.5-.72,11.33,1.68.35.48c7.24,9.91,6.71,11.67,6.37,12.38-.71,2.38-2.17,26.13-1.53,29,1.63,1.65,12.34,7.74,14.13,7.74a49.39,49.39,0,0,1,5.7.75c3.73.6,9.36,1.52,11.18,1.11a25.12,25.12,0,0,0,4.67-2.71c5.06-3.3,12.71-8.29,20.14-8.29,10.43,0,30.11,8.89,30.94,9.27l2.62,1.19-2.55,1.35c-4.56,2.42-17.19,10.52-15.41,15.85,2.26,6.77,4.44,8.16,4.46,8.17l1.1.55-.44,1.14c-.49,1.46-3,8.8-5.72,10.45-2.47,1.52-5.63,2-9.4,1.29-1.61-.29-7.08-1.5-9.68-5.14a26.34,26.34,0,0,1-3.15-7.62L304,202.09l-7.16,3.38,1.58,12.42-.23.41c-2.07,3.72-5.85,10.07-7.84,10.87-.8.32-2.63,1.05-12.17-9.4-2.23,1.82-7.48,5.54-12.49,4.92-6.26-.78-13.68-8.14-14-8.45l-.4-.4-.18-8.8-5.85-6.18a2.93,2.93,0,0,0-2.11,0c-1.49.55-2.84,2.33-3.91,5.15-.92,3.42-2.54,4-3.72,3.8-2.53-.33-4.16-4.33-4.34-8.11-2.07-1.94-1.8-5.45-1.57-6.94L226,189.79l-2.71,10.43L221,208.83l-8.82,8.82-12.56,2.13-14.94-2.29-7.32,9.58,31.19,8.55-5.6,7.61,12.52,1.51L212,258.1l-4.25,1.06Zm-9.55-10.08,9.63,6.68,5.8-3.64,3.07-.77,2.29-8.59-14.11-1.7,6-8.2L172.6,228.7l10.89-14.26,16.15,2.47,11.21-1.9,7.64-7.64,2.1-7.86,4.23-16.26,7.8,10.82-.14.62c-.22,1-.55,4.18.85,5.08l.65.42V201c0,3.17,1.18,5.44,1.79,5.93a4.61,4.61,0,0,0,.72-1.72l0-.14c1.41-3.75,3.32-6.07,5.69-6.91a5.66,5.66,0,0,1,4.58.34l.17.1,6.91,7.31.18,8.74c1.56,1.48,7.37,6.68,11.94,7.26,5.11.65,11.23-5.05,11.29-5.11l1.06-1,1,1.08c3.77,4.19,8.56,8.84,10.12,9.55,1.07-.93,3.83-5.21,6-9.07l-1.72-13.54L306,198l2.95,13.25a23.88,23.88,0,0,0,2.7,6.62c1.57,2.2,5.1,3.51,7.87,4,3.11.55,5.54.25,7.42-.91,1.1-.67,2.94-4.5,4.2-8-1.14-1.1-3-3.57-4.8-9h0c-2.33-7,8.92-14.65,14.27-17.84-5.71-2.42-19.5-7.89-27.18-7.89-6.59,0-13.81,4.71-18.59,7.83-2.51,1.64-4.32,2.82-5.61,3.11-2.19.48-6.64-.17-12.25-1.08-2.28-.37-4.43-.72-5.25-.72-3.23,0-15.27-7.34-16.5-9-1.65-2.2.44-28.05,1.23-31.51-.15-1.14-3-5.62-5.65-9.35l-8.42-1.25c-8.95,12.84-10,13.18-10.45,13.35l-1.39.58c-6.07,2.58-24.59,10.41-33.13,10.09-1.58-.06-3.8-.33-4.82-1.92s-.22-3.63.58-5.54c1.15-2.72,1.35-3.75.23-4.47-2.88-1.85-5.61-.4-10.2,2.32-1.64,1-3.34,2-5.25,2.89a4.67,4.67,0,0,1-4.5-.08c-4.35-2.51-5.62-12.54-5.88-15.2l-5.3-5.3-20.05-8.79c-2.76,1.15-15.09,6.43-19.1,10.43a17.58,17.58,0,0,0-2.94,4.21c-1.68,3-3.26,5.91-9.83,3.82-7.28-2.32-10.79-16.61-11.92-22.35L83.53,130.5l-.69-.26c-.92-.35-9.07-3.43-11.38-5.36-1-.82-6.34-.5-10.53.3l-.38.07-.37-.13c-.18-.06-4.37-1.63-9.29-6.55a4.63,4.63,0,0,1-1.39-3.92c.5-4.32,6.65-8.92,9.31-10.72L51.18,89.81a19.13,19.13,0,0,0-4,1.9c-2,1.23-10,11.21-14.62,17.22l-.42.55h-5.4a36,36,0,0,0-1.56,6.14A25.57,25.57,0,0,0,27,121.42l2.67,6.08,2.46,5.85-6.83,3.57-.58-.21c-2.55-.91-9.84-3.17-12.93-2.62-2.48.44-3.39,4.43-3.64,5.83l3.42,5.14,5.26,3.24-2.55,1.07c-2.35,1-6.06,3.07-6.58,4.45,0,.13,0,.17,0,.19.91,1.82,4.88,4.32,7.17,5.46l1.45.72-5,7.43,2.37,4.17L16.33,181l14.47,4.21,10.39,4,36.94,26.52,16.32,11.42c.87-7.07,1.68-7.88,2-8.17.68-.68,1.85-1,3.46-1.33,1.4-.33,3.32-.77,4.09-1.47,1.55-1.39,4.39-3.83,5.23-4.54l.54-.46,16.47,3.62-.12,1.25c-.29,3-.56,7.41-.52,8.91,1.25,1,3.56,3.38,8.59,9l32.71,4.65,1,6.44,14.62,14.8h6Zm65.38-106.91a.9.9,0,0,0-.09.29A1.52,1.52,0,0,1,256.53,146.57Z"/></svg>