<svg id="Layer_1" data-name="Layer 1" xmlns="http://www.w3.org/2000/svg" viewBox="0 0 350 350"><defs><style>.cls-1{fill:#999;}.cls-2{fill:#f90;}</style></defs><title>M</title><path class="cls-1" d="M343.75,272.56l-29.36,30-26.59-20-30.39-3.8s-12.43,5.87-16.92,4.49a31.11,31.11,0,0,1-6.82-2.85l-8-23.83s-14-5.18-19.43-6.73-16.32-11.4-16.32-11.4l-21.76-3.11a51.9,51.9,0,0,0-18.65,1.3c-9.58,2.59-51.29,4.14-51.29,4.14l1.3,10.62a28.23,28.23,0,0,1-7.77,1.3c-3.89,0-19.43-6.48-19.43-6.48s-6.48-1-11.66-1.3-9.84-1.55-16.58-1.55-6,.26-12.43-2.07-25.38-9.07-25.38-9.07l72.57-69.85-15.5-14.5,21.07-47.31s19.34-5.53,20.38-5.53S130,85,130,85l17.61-20,2.76-12.43,7.94-5.18,11.4,3.8-4.14,11.05s1,4.49,2.76,6.91,3.8,1.73,5.18,2.42-.69,2.07-1.73,7.25-1.47,1,3.24,7.94a52.16,52.16,0,0,0,8.85,10.36c1,1-2.07,7.25-2.07,7.25s13.12.35,14.51,3.45,2.76,29.7,1,40.41c11.4,10,26.94,14.5,31.08,16.23s7.25,26.25,7.25,26.25,16.58,5.87,22.1,11.05,19.69,13.47,19.69,13.47l10.71-3.11-3.11,10s10.71,3.45,13.12,3.8,13.47,6.3,13.47,6.3l4.49,7.17,8.63,16.92Z"/><path class="cls-2" d="M314.54,304.49l-27.29-20.55-29.61-3.7c-2.42,1.12-13,5.79-17.57,4.39a32.33,32.33,0,0,1-7.16-3l-.43-.27-8-23.67c-2.79-1-14-5.13-18.69-6.47-5.21-1.49-14.65-9.72-16.55-11.42l-21.33-3A51,51,0,0,0,149.86,238c-8.69,2.35-42.32,3.82-50.06,4.13L101,252.39l-1.1.37a29.47,29.47,0,0,1-8.22,1.37c-3.94,0-17.59-5.6-19.81-6.52-1-.16-6.75-1-11.34-1.25-2.2-.11-4.26-.39-6.44-.7a69.49,69.49,0,0,0-10.06-.86h-1.8c-5,0-5.16,0-10.94-2.1l-.17-.06c-6.47-2.33-25.38-9.06-25.38-9.06l-2.16-.77,73.14-70.4L61.62,148.23,83.36,99.39l.64-.18c8.91-2.55,19.75-5.58,20.77-5.58l-.19,0c1.36-.29,15.65-6.11,24.56-9.8l17.15-19.51,2.81-12.64,9-5.87,13.44,4.48-4.51,12a21.25,21.25,0,0,0,2.43,6,3.41,3.41,0,0,0,2.74,1.45,6.26,6.26,0,0,1,1.92.52c2,1,1.14,2.81.6,4a21,21,0,0,0-1.57,4.77c-.21,1-.39,1.73-.52,2.18l-.06.23.07.07A27,27,0,0,1,176.17,86a50.62,50.62,0,0,0,8,9.55l.64.61c.43.43,1.51,1.51-.88,6.93,4.78.27,12.26,1.18,13.61,4.21,1.5,3.38,2.82,29.17,1.26,40.42,9.27,7.89,21.32,12.26,27.18,14.38,1.24.45,2.23.81,2.93,1.1,4.27,1.78,7,18.49,8,26.52,3.48,1.28,16.76,6.35,21.78,11.06,4.76,4.46,16.31,11.43,18.91,13L290.28,210l-3.47,11.19c3.54,1.12,9.91,3.08,11.55,3.32,2.54.36,12.06,5.44,13.94,6.46l.33.18,4.75,7.59,8.51,16.67,19.93,17Zm-57.36-27.17,31.18,3.9,25.9,19.51,27.43-28.07-18.06-15.43-8.73-17.12-4.26-6.79c-4.5-2.41-11.21-5.76-12.67-6-2.47-.35-12.25-3.5-13.36-3.85l-1.33-.43,2.74-8.84-8.76,2.54-.53-.31c-.58-.34-14.36-8.43-19.94-13.66-5.25-4.92-21.44-10.69-21.61-10.75l-.82-.29-.11-.87c-1.63-12.84-4.56-24.34-6.39-25.12-.65-.27-1.6-.62-2.81-1.05-6.14-2.23-18.92-6.86-28.66-15.42l-.59-.52.12-.77c1.69-10.46.29-36.86-.93-39.61-.53-1.2-6.85-2.44-13.25-2.61l-2.23-.06,1-2a21.57,21.57,0,0,0,2.14-5.81l-.36-.34a53.29,53.29,0,0,1-8.46-10,24.41,24.41,0,0,0-3.19-4c-1.08-1.08-1.13-1.62-.74-3,.12-.45.29-1.06.47-2a23.8,23.8,0,0,1,1.76-5.36l.22-.5-.58-.1A6.19,6.19,0,0,1,167.16,70c-1.87-2.62-2.95-7.22-3-7.41l-.1-.42,3.78-10.07L158.49,49l-6.89,4.49-2.72,12.22L130.82,86.22l-.3.13c-24.44,10.12-25.43,10.12-25.75,10.12-1,.13-12.16,3.24-19.35,5.29L65,147.54l15.85,14.84-72,69.3C14,233.51,27,238.13,32.11,240l.17.06c5.43,2,5.42,2,10,1.93h1.82a71.8,71.8,0,0,1,10.45.88c2.12.29,4.12.57,6.2.67,5.2.26,11.54,1.27,11.81,1.31l.32.09c6.14,2.56,16.24,6.37,18.88,6.37a25.59,25.59,0,0,0,6.22-.9l-1.34-11,1.54-.06c.42,0,41.65-1.58,51-4.1a52.84,52.84,0,0,1,19.22-1.33l22.19,3.17.32.29c3,2.68,11.56,9.89,15.76,11.08,5.43,1.55,19,6.56,19.53,6.77l.63.23,8.07,24a33.69,33.69,0,0,0,6.07,2.46c2.89.89,11.28-2.24,15.9-4.42Z"/></svg>