<svg id="Layer_1" data-name="Layer 1" xmlns="http://www.w3.org/2000/svg" viewBox="0 0 350 350"><defs><style>.cls-1{fill:#999;}.cls-2{fill:#f90;}</style></defs><title>M</title><path class="cls-1" d="M13.84,236.54l.77-.46,6.66,3.67L19.74,242l5.36,4.13a10.9,10.9,0,0,0,2.68,4c1.61,1.22,2.91,1.76,3.52,2.45s2.3,2.37,2.3,2.37S30.53,259,30.76,259l2.83,1-2,3.9,7.12,3.75,3.29-1,4.29,2.83-.46,1.53,2.3.61a15.78,15.78,0,0,0-.61,3,49,49,0,0,0,3.75,3.22c.23.08-2.07,2.3-2.14,2.6s4.29,4.21,4.29,4.21l-6.66,9.19,3,2.53-2.91,3,16.61,14.39s2.14-3.83,2-4.9-3.29-.77-3.52-2.37-1-4.44.23-5.74,1.3-.54,2.68-.38,1.53.08,2.76-.92,0-1.61,2.07-1.84,2.07-.15,2.53-1,.69-4.52,1.15-5.66,1-3.67,1.61-4.52,1.45-.38.54-2.68-1.15-3.9-.69-5.05,1-2.53.38-2.91-.92-5.21-3.6-4.67a18.9,18.9,0,0,0,4.31-4.52c.51-.69-.28-1.68,0-3s1-1.76,3.5-2.37,2.76-1,5.21-.54,2.3.77,3.67.92,3.29-.38,4.21-.38.08-.31,2.07.54a14.94,14.94,0,0,1,4.13,2.07,17.65,17.65,0,0,0,5.13,2.07,11.57,11.57,0,0,0,2.68-.46c.38-.15,4.44-5.13,4.44-5.13l14.62-17.15s3.29,3.14,5.36,3.06,5.28-4,5.66-4.44a6.9,6.9,0,0,1,.58-.62l-.09-.48s.36-2.3-1.17-2.91a10.44,10.44,0,0,1-3.06-1.68,1.71,1.71,0,0,1-.31-2.45c1-1.12,3.06-2.76,3.57-3.73s1-2.14.51-3-1.71-.51-2-2.4-.7-3.57-.45-4.54S132,218.27,131,217.4s-3.83-3.93-2.19-6.17,2-.87,1.33-3.21-1.38-3.47-.2-3.88,3.16-.26,5.61-.77,5.46-1.17,8.32-2,9.9-3.27,11.18-5.1,8-7.5,8.93-10.36-.31-3.27,0-4.59.05-1.63,1.28-2.65,2.45-5.56,3.78-6.84a14.51,14.51,0,0,1,6.23-3.57c2.91-.82,3.06-.61,4.18-1.22s.66.87,1.07,2.35.46,2.76,1.43,3.83,4.9,6.12,5.31,6.94,2,6.17,3.27,7.4,2,5.61,2,5.61.92,2.09,2,4.24,1.48,4.24,4.24,5.41a32.1,32.1,0,0,0,7.55,2.19c2.25.36,7.14,1.38,7.14,1.38s20.16,3.52,20.87,3.42,1.63-2.81,2.5-3.57a7.13,7.13,0,0,1,3.37-1.22,16.19,16.19,0,0,1,3.67.41c.71-3.32,1.68-4.64,2-6.94a84,84,0,0,1,2.4-10.67c.56-1.28,2-1.68,3.52-2A57.64,57.64,0,0,0,258.9,184c2-.77,3.22.1,3.16-3s-.1-6-2.09-6.79-5.05-5.21-7.6-6.38-4.69-5.87-5.51-8.17-4.9-5.87-5.61-6.43c-3.88,1.74-4.29,2.3-5.51,1.33a49.84,49.84,0,0,0-5.1-3.57c-1-.51-1.33-3.78,1.43-5.92s3.06-2.81,4.49-2.19,2,1.68,3,.71a7.53,7.53,0,0,0,1.94-3.73c.15-1,.87-2.81,1.58-2.25s1.63.41,1.22,2-1.68,2.65-.15,3.11,2.7-2.76,3.67-2.55,1,.46,2,.05,1-1.43,2.3-.66,3,1.38,3.42,2.45-.41,2,.92,2.55a1.65,1.65,0,0,0,2.25-1.68c-.1-1-1.28-6.58-1.28-6.58s1.43-.87,2.14-.31.87,1.43,1.68,1.53,2.55-1.55,2.81-1.72,5.21-2.36,5.21-2.36.77-.71-.87-1.89-3.42-1.58-3.88-3.52-1.33-2.09-.61-3.42,4.85-4.39,4.85-4.39,5.82-6,7.2-6,1.84-.36,3.62,1.07,2.4.2,2.81,3.22a21.41,21.41,0,0,1,0,6.53c-.26,2.25.36,3,.51,4.18a6,6,0,0,1-.15,3.32,13.73,13.73,0,0,0-1.22,2.5c-.1.61,1.84.46,2.4,1s.77-.92,2.65-1.38,2.09-1.12,4.49,0,2.81,1.73,3.83,1.73,2.6-1.79,4.54-1.28,2.91.61,3.16,2.5,1.38,2.76.05,4-1.38,1.63-3.67,2.3-3.06,1.12-4.24,1.33a37.78,37.78,0,0,1-6.79.1c-1.12-.2-.71,1.43-.56,1.94s1.22,1.89,1,3.32-2.14.61-.36,2.14,2.3,1.84,3.16,1.79,2.19,1,2.4-1.58-1.38-3,.2-3.62,1.94-2.19,4.8-1,4.18,2.09,4.44,2.76,1.12,1,.46,1.63-.56.61-1.58.56-2.65-.46-2.76.36-.77,1.38-.82,2.3a21.24,21.24,0,0,1-.36,2.4,15.42,15.42,0,0,1-1.68,4.13c-.92,1.17-1.89,1.48-2.81,2.45s-2.25.51-.66,1.48,2.35,1,2.19,2-2.3,1.48,1.84.87,3.57-1.84,5.77.2a14.13,14.13,0,0,1,3,3.62c.87,1.22-.15,2.19,2,2s1.53-.1,4.29-1.07a17.75,17.75,0,0,0,5.56-3.47c1.33-1,5.56-4.24,6.69-5.05s.56-3.67,2.65-3.06,1,.66,3.16-.31a11,11,0,0,1,3.44-1l.24-.95s-2.55-2.45-2.55-3.67,1.53-2.55,1.33-4.18a22.09,22.09,0,0,1,0-4.59c.1-2.86,5.92-6.33,5.92-6.33l4.8-3.06s-3-1.43-3.39-1.53-.38-1.63-.15-3,.18-.56,0-1.88-.94-.51-1.25-1.22a4.15,4.15,0,0,0-1.84-2.45c-1.12-.51-.82-.92-2.86-1.94s-1.74.1-2-1.84-1.74-3.16-1.74-4.08a2.43,2.43,0,0,1,.92-1.63,15.08,15.08,0,0,0,2.25-4.68c.31-1.93.31-.73.92-2.46s2.35.61,3.57.61,2.25-.61,2-1.63-1.33-.71-2.14-1.94,1.33-1.33,1.52-2.86a3.29,3.29,0,0,0-1.42-3.27c-.92-.61-2.35-1-2.35-2.55s1.94-.92,1.84-1.94-3.57-1.63-4.39-2.76.41-1.53.71-2.86,1.22-1.33,1.94-2.14,1.63-.1,2.55-.92,1.63-1.22.61-2.55-2.55-1.12-3.06-2.55-1.22-5.51-2.45-6.84-2.25.1-4.59,1,0,0-3.16-1.12-.1-1.63-1.63-3.16-.71-1.43-.1-3.06-.2-1-1-2.35,1.74-1.63,1.63-2a29.2,29.2,0,0,1-1.43-5.21c-.1-1.63.41-2.55-1.12-3.27s-2.76.31-3.57-.1-1.74-1-3.57-1.94-1.94.2-3.78-1.12-.82-.92-3.06.2c-3.06,0-3.06-4.8-4.18-5.92s-2.25-3-2.55-3a20.52,20.52,0,0,1-4.18-2.76c-1.63-1.33-.61-4.08-2.55-6.12s-2.65-1.43-4.08-1.33-4.49,1.22-5.41,3.16-1,7.14-2.14,8.88S268,56.7,267.11,57.11a9.84,9.84,0,0,0-3.16,2c-.82.92-1.84,1.74-5.61,2.86s-.51-1-3.37-4.08c-1.94,1.22-2.65,5.21-4.9,11.64-1.43.71-3.47.71-4.08,1s-.61,1.53-2.65,2.65-.71-.1-1.43-1.53-2.14-1.84-3.06-2.65-4.29-2.14-4.9-1-2,3.16-4.59,2.25-1.74-1.63-4.29-2.86c-1.33,1.84-3.27,1.33-4.29,1.53s-8.27,2.45-10.41,2.65-2.55-.41-6.23,1.43c-2,2.14-6.12,18.27-7.86,19.8s-2.35.51-4.39.61a8,8,0,0,0-3.88.82c-1.74.71-1.84,2.35-2.65,4.49s-1.73,1.43-4,1.74a16.8,16.8,0,0,0-5.1,2,46.08,46.08,0,0,0-3.78,3.88c-.1.41,1.43,3.27,1.43,3.67a8,8,0,0,1-.92,2.76,2.31,2.31,0,0,1-2,0,3,3,0,0,0-2.14,0,17.64,17.64,0,0,1-4.56,1.44c-2,.22-.95-1-.85-1.44s1-3.37.82-3.78-2.25-3.16-3.06-3.06-.61.51-1.23.92a1.83,1.83,0,0,1-2.24-.2c-.51-.61-1.84-1.53-2.14-1.43s-.41.92-.92,1.74a2.17,2.17,0,0,0-.31,1.84c.1.41.1,1.84.61,2.35a9.75,9.75,0,0,0,2.76,2.55c1.63.92,0,.41-.2,1.43s1.53,1.43,2.25,2.35-.71,2.86-1.33,3.88-2.45.2-3.37-.41-1.63-2.14-3.47-2.14-1.43,3-3,6c-1.43,2.86-2.25,1.12-3.47-1.74-1.22,1.53-2.86,0-2.86,0s-4.18.61-4.49.71-5.61,2.25-6.74,2.76-3.47-.1-5.21-1-2-.82-4.08.51c1.22.41,2.55,8.88,2.65,10.92s-2,3.57-4.18,6.12-6.94.71-8.57-.2-4.8-3.16-5.21-3.16-2.86-.1-3.88-1.12-1.84-1.22-4.08-.51-1.22,2.65-.82,3.88-1.22,2.65-6,.71c-.82,3.57-8.47,6.74-11.23,7.65s-9,6.23-10.51,8.47S64,166,61.76,167.13c.31,2.25-.61,5.51-1.94,6.74s-3.57,6.74-3.57,6.74-3.27,5-4,5a4.43,4.43,0,0,0-4,1.12c-1.84,1.63-2.86,5.72-2,7.65,3.47-.2,2.45,1.94,2.45,1.94s-3.06,8.57-3.6,9.7-.28,3.78-1.2,3.78-1.33.41-3.06,1.53a37.86,37.86,0,0,0-5.72-1.53,68.24,68.24,0,0,1-5,5.51c-1.74,1.53-4.59,4.49-5.61,4s-6.74-5.51-6.74-5.51-4.18,6.84-4.59,9.8c-.92,1-6.33,8.22-6.33,8.22V232C8.45,232.94,13.84,236.54,13.84,236.54Z"/><path class="cls-2" d="M63.83,316,44.77,299.47l2.9-3-2.83-2.39,6.68-9.22c-4-3.66-4-3.92-3.76-4.76.12-.47.38-.77,1.36-1.83l.17-.19a36.56,36.56,0,0,1-2.95-2.67c-.29-.43-.42-.78.06-2.76l-2.34-.62.58-1.92-2.85-1.89-3.21,1-8.87-4.67,1.89-3.71-1.28-.45-.69-.23-.23-.71c-.21-.69-.28-.91,2.33-4.42-.52-.53-1.15-1.18-1.49-1.56a6.94,6.94,0,0,0-1.21-.84,25,25,0,0,1-2.11-1.42,11.37,11.37,0,0,1-3-4.21l-6.12-4.72,1.4-2-4.57-2.52-.83.5-.75-.5c-.05,0-5.37-3.58-6.92-4.48l-.7-.41v-1.51l.28-.38c.52-.69,4.76-6.33,6.13-8,.69-3.28,4.29-9.22,4.71-9.91l.88-1.43,1.26,1.11c2.37,2.08,5.21,4.46,6.19,5.15a22.21,22.21,0,0,0,3.23-2.65l1.06-1A67.29,67.29,0,0,0,34,208.9l.54-.66.83.17a47.57,47.57,0,0,1,5.29,1.33l.2-.13a6.36,6.36,0,0,1,2.31-1.16c0-.25.09-.57.12-.82a7.48,7.48,0,0,1,.51-2.22c.37-.78,2.32-6.14,3.54-9.56a3.71,3.71,0,0,0-1,0l-1,.06-.39-.92c-1.08-2.57.13-7.24,2.41-9.26a5.53,5.53,0,0,1,4.55-1.51,39.33,39.33,0,0,0,3.1-4.21c.5-1.21,2.44-5.8,3.87-7.11.88-.81,1.76-3.57,1.5-5.5l-.14-1,.91-.45c1.87-.93,6.08-5.52,7.63-7.8s8-8,11.23-9c3.95-1.32,9.75-4.24,10.29-6.62l.37-1.62,1.54.62c2.49,1,3.64.89,4,.77l0-.13a4.6,4.6,0,0,1-.21-3.62,3.31,3.31,0,0,1,2.09-1.65c2.29-.73,3.85-.81,5.51.86a5.5,5.5,0,0,0,2.88.71c.61,0,1.07.27,3.42,1.79.9.58,1.83,1.19,2.48,1.55,1.54.87,5.39,2.2,6.79.53.58-.69,1.17-1.32,1.68-1.87,1.24-1.32,2.22-2.36,2.17-3.27-.1-2.1-1.21-8.39-2-9.74l-2.5-.83,2.47-1.6c2.36-1.54,3.21-1.79,5.52-.58,1.73.91,3.5,1.19,4,1,1.12-.51,6.51-2.69,6.88-2.81a47.21,47.21,0,0,1,4.73-.77l.68-.1.5.47c.16.14.48.33.61.3s.09-.05.17-.15l1.48-1.85.93,2.17c.21.49.54,1.25.82,1.81l.08-.15a15,15,0,0,0,1-3.08c.43-1.66,1-3.73,3.18-3.73a4.94,4.94,0,0,1,3.69,1.85,4.47,4.47,0,0,0,.56.53,4.16,4.16,0,0,0,1.5.65l.18-.28a9,9,0,0,0,1-1.91,6.16,6.16,0,0,0-.65-.46c-.77-.5-2.06-1.34-1.75-2.91a2.27,2.27,0,0,1,.12-.41,9.44,9.44,0,0,1-2-1.92c-.12-.15-.22-.27-.31-.37a4.42,4.42,0,0,1-.95-2.7c0-.13,0-.25,0-.33a3.55,3.55,0,0,1,.48-2.91,5,5,0,0,0,.39-.82,2.24,2.24,0,0,1,1.28-1.51c1.54-.52,3.66,1.84,3.68,1.87a1.16,1.16,0,0,0,.37-.07s0,0,.09-.11a2.28,2.28,0,0,1,1.75-1c2-.25,4.48,3.79,4.5,3.83.33.67.23,1.48-.58,4.3a17.29,17.29,0,0,0,3-1.05l.45-.19a4.34,4.34,0,0,1,3.23.08,1,1,0,0,0,.45.08,12.31,12.31,0,0,0,.44-1.47c-.11-.27-.32-.75-.48-1.08-.79-1.73-1-2.36-.88-3,.1-.42.2-.81,4.18-4.57l.24-.18a18.09,18.09,0,0,1,5.65-2.23,14,14,0,0,1,1.65-.11,3.71,3.71,0,0,0,.85-.07,1.63,1.63,0,0,0,.35-.65c.17-.45.31-.88.44-1.28.51-1.58,1-3.21,3-4a9.26,9.26,0,0,1,4.3-.92,8.52,8.52,0,0,1,2,.15,1.33,1.33,0,0,0,1.55-.42c.63-.71,2.18-5.37,3.32-8.78,2-6,3.28-9.7,4.45-10.93l.17-.18.22-.11c2.89-1.44,4-1.51,5.56-1.53a11.43,11.43,0,0,0,1.17,0,74.34,74.34,0,0,0,7.69-1.93c1.45-.41,2.22-.63,2.58-.7a6.55,6.55,0,0,1,1.1-.09c1.06,0,1.74-.09,2.31-.88l.69-1,1.07.51a7.52,7.52,0,0,1,2.48,1.77,3.43,3.43,0,0,0,1.67,1c.5.18,1.67.6,2.87-1.59a2.27,2.27,0,0,1,1.66-1.12c1.78-.31,4.53,1,5.43,1.76a6.84,6.84,0,0,0,.85.59,6.2,6.2,0,0,1,2.54,2.49,3.7,3.7,0,0,1,.19.45,3.71,3.71,0,0,0,.87-1,2.81,2.81,0,0,1,1.12-1.16A6,6,0,0,1,247,68.9a12.29,12.29,0,0,0,1.9-.4c.49-1.44.91-2.75,1.28-3.92,1.32-4.16,2.12-6.66,4-7.84l1-.63.8.86a5.84,5.84,0,0,1,1.7,3.76l.23-.07c3.5-1,4.32-1.72,5-2.44a10.56,10.56,0,0,1,3.65-2.39c1.9-.85,13.59-6.78,14.71-8.18a16.12,16.12,0,0,0,1-4.22,18.38,18.38,0,0,1,1-4.47c1.21-2.56,4.89-3.85,6.59-4,.22,0,.41,0,.6-.07,1.42-.21,2.67-.21,4.61,1.84a7.33,7.33,0,0,1,1.78,4.17c.16.95.28,1.54.64,1.83a26.5,26.5,0,0,0,3.6,2.47c.67.13,1.11.71,1.84,1.65a18.28,18.28,0,0,0,1.41,1.69,6.31,6.31,0,0,1,1.25,2.6c.55,1.74,1,2.67,1.65,2.86a7.12,7.12,0,0,0,.76-.49c1.24-.89,2-.47,2.91.22l.5.37a1.55,1.55,0,0,0,1.18.45,4.53,4.53,0,0,1,2.4.56c1.14.57,1.93,1,2.56,1.38.34.2.63.36.91.5l.45-.08a4.77,4.77,0,0,1,3.19.22A3.2,3.2,0,0,1,324,60.69c0,.27,0,.58,0,.92a22.25,22.25,0,0,0,1.14,4.19c.13.38.22.65.25.76.32,1.27-.9,1.84-1.36,2.05l0,0,.08.06c1.18.88,1.12,1.88.67,3.09a7.81,7.81,0,0,1-.57,1.19l.35.37A2.5,2.5,0,0,1,325.3,76l.36.14a5.6,5.6,0,0,1,2.09,1.17l.08,0a13.75,13.75,0,0,0,1.64-.8c1.16-.64,2.9-1.6,4.51.14,1.12,1.21,1.77,3.71,2.29,5.71.17.65.33,1.27.45,1.61s.19.3.8.61a5.48,5.48,0,0,1,2,1.56c1.75,2.27.18,3.63-.57,4.28l-.22.19a3.35,3.35,0,0,1-2.21.81l-.26,0a5.15,5.15,0,0,1-1,.86c-.41.28-.48.32-.55.63a4.84,4.84,0,0,1-.78,1.67l-.07.1a9.15,9.15,0,0,0,1.61.81c1.45.62,2.81,1.2,3,2.58.1,1.05-.47,1.8-1.7,2.22l-.1,0c.06.22.29.39,1,.78.25.14.48.27.7.42a4.72,4.72,0,0,1,2,4.62,3.42,3.42,0,0,1-1.38,2.25l.35.19a2.63,2.63,0,0,1,1.63,1.9,2.53,2.53,0,0,1-.52,2.13,3.7,3.7,0,0,1-2.91,1.19,4.37,4.37,0,0,1-2.26-.86l-.2-.12a3.82,3.82,0,0,1-.49.88c0,.09-.07.3-.14.76a15.89,15.89,0,0,1-2.49,5.28l-.12.17-.17.13a1.19,1.19,0,0,0-.37.52c0,.06.25.43.42.71a8.56,8.56,0,0,1,1.3,3.15l0,.29a7.42,7.42,0,0,1,1.23.5,8.14,8.14,0,0,1,2.22,1.5,1.75,1.75,0,0,0,.59.42,4.89,4.89,0,0,1,2.39,2.79,2.16,2.16,0,0,1,1.52,2c0,.35.08.52.11.63a2.33,2.33,0,0,1,0,1.11l-.1.56a9.88,9.88,0,0,0-.15,1.69c.52.22,1.4.62,2.92,1.35l2.29,1.1-6.94,4.43c-2.12,1.27-5.22,3.77-5.27,5.18,0,.74-.05,1.29-.07,1.74a11.41,11.41,0,0,0,.06,2.62,5.51,5.51,0,0,1-.87,3.34,3.88,3.88,0,0,0-.44,1,10.23,10.23,0,0,0,2.12,2.65l.59.57-.68,2.74-1,.08a9.45,9.45,0,0,0-3,.87c-.46.21-.76.37-1,.48a2.34,2.34,0,0,1-2.32.17l-.78-.25c-.06.17-.13.39-.18.56a4,4,0,0,1-1.32,2.27c-1.11.81-5.38,4.05-6.65,5l-.7.56a16.43,16.43,0,0,1-5.26,3.13l-1.35.49a8.18,8.18,0,0,1-3.24.66c-1.9.14-2.85-.49-3.12-2a1.29,1.29,0,0,0-.2-.59c-.22-.31-.39-.57-.54-.82a11,11,0,0,0-2.27-2.58,4.31,4.31,0,0,0-.94-.76l-.55.19a17.76,17.76,0,0,1-3.1.74c-2.65.39-3.45.51-4-.53a1.53,1.53,0,0,1,.34-1.82l-.24-.13c-.31-.17-.67-.36-1.09-.62-.63-.39-1.5-.92-1.41-1.94a1.72,1.72,0,0,1,1.24-1.42,1.45,1.45,0,0,0,.54-.3,9.49,9.49,0,0,1,1.42-1.19,5.81,5.81,0,0,0,1.3-1.16,13.44,13.44,0,0,0,1.43-3.62,19.63,19.63,0,0,0,.31-2.12,4.36,4.36,0,0,1,.59-1.84,2.23,2.23,0,0,0,.24-.56c.25-2,2.59-1.77,3.59-1.66l.48,0a2.65,2.65,0,0,1-.12-.26h0s-.56-.68-3.66-2c-1.32-.54-1.57-.36-2.3.17a7.7,7.7,0,0,1-1.06.68,6.3,6.3,0,0,1,.31,2.59,3.47,3.47,0,0,1-1.12,2.59,2.72,2.72,0,0,1-2.32.35,2.17,2.17,0,0,0-.3-.05c-1.5.09-2.4-.63-4.15-2.12a2.57,2.57,0,0,1-1.23-2.15,1.79,1.79,0,0,1,1.09-1.37h0a4,4,0,0,0-.61-1.77,4.57,4.57,0,0,1-.37-.82c-.42-1.41-.33-2.47.28-3.15a2,2,0,0,1,1.89-.59,37.56,37.56,0,0,0,6.29-.1,9.43,9.43,0,0,0,1.61-.48c.61-.22,1.37-.49,2.47-.81a4.16,4.16,0,0,0,2.52-1.4l.57-.56a.82.82,0,0,0,.2-.25,3.46,3.46,0,0,0-.21-.76,9.18,9.18,0,0,1-.47-1.81c-.11-.8-.11-.8-1.69-1.21l-.42-.11c-.63-.17-1.25.14-2.14.62a4.38,4.38,0,0,1-2,.71,4.61,4.61,0,0,1-2.46-.84c-.48-.27-1.07-.61-2-1-1.32-.62-1.51-.55-2.33-.27-.34.12-.73.25-1.22.37a2.34,2.34,0,0,0-1.22.76,2.12,2.12,0,0,1-1.52.79h0a1.72,1.72,0,0,1-1.16-.46,5.79,5.79,0,0,0-.67-.16c-.62-.12-2.5-.49-2.21-2.18a6.88,6.88,0,0,1,.9-2.06c.16-.28.32-.56.46-.84a5.17,5.17,0,0,0,0-2.47,6,6,0,0,0-.2-.91A8.41,8.41,0,0,1,281,125a20.19,20.19,0,0,0,0-6.18,5.07,5.07,0,0,0-.25-1.2l-.21-.08a6.22,6.22,0,0,1-1.83-1c-1-.83-1.27-.83-2-.78l-.61,0c-.91.38-4,3.13-6.31,5.54l-.17.15a25.23,25.23,0,0,0-4.44,3.92,1,1,0,0,0-.1.24s.1.18.17.33a8.52,8.52,0,0,1,.68,1.86c.19.78.74,1.13,1.88,1.79a16.82,16.82,0,0,1,1.45.91,3.37,3.37,0,0,1,1.63,2.43,2.11,2.11,0,0,1-.63,1.65l-.17.16-.22.1c-2.14,1-4.52,2-5,2.26l-.16.13c-1.47,1.24-2.53,1.93-3.59,1.8a2.77,2.77,0,0,1-1.92-1.25c.36,1.76.88,4.34,1,5.07a3.11,3.11,0,0,1-1.22,2.75,3,3,0,0,1-2.94.39,2.56,2.56,0,0,1-1.71-2.81,1.68,1.68,0,0,0,0-.56c-.12-.3-1.16-.84-1.72-1.13-.36-.19-.72-.37-1-.57a3.7,3.7,0,0,1-1.08.72,3,3,0,0,1-2.35.16l-.07,0c-.14.15-.3.35-.43.5-.75.92-2,2.45-3.78,1.92a2.34,2.34,0,0,1-1.57-1.25,1.94,1.94,0,0,1-.12-.36,8,8,0,0,1-1.51,2.09,2.67,2.67,0,0,1-3.66.06,6,6,0,0,0-.89-.5,1.08,1.08,0,0,0-.31-.1,8.71,8.71,0,0,0-1.4,1c-.38.31-.82.67-1.35,1.08a3.52,3.52,0,0,0-1.52,3.61,54.06,54.06,0,0,1,5.2,3.65,1.19,1.19,0,0,0,.26.17,12.29,12.29,0,0,0,1.88-.8l1.91-.88.78-.35.67.53s5,4.12,6.07,7.07,3.08,6.57,4.77,7.35a18.11,18.11,0,0,1,4.59,3.78,14.34,14.34,0,0,0,3,2.58c2.86,1.17,2.92,4.68,3,8.08,0,2.93-1,3.71-2.91,4.06a6.76,6.76,0,0,0-1.17.3,55.07,55.07,0,0,1-7,1.79l-.3.06c-1.32.27-2.25.58-2.51,1.17a85.66,85.66,0,0,0-2.29,10.28,15.9,15.9,0,0,1-.94,3.45,26.37,26.37,0,0,0-1.07,3.61L245,207l-1.31-.19-.71-.12a12,12,0,0,0-2.54-.29,5.42,5.42,0,0,0-2.65.89,8.49,8.49,0,0,0-.88,1.42c-.68,1.25-1.26,2.33-2.36,2.49-.28,0-.94.13-21.32-3.43-.09,0-4.94-1-7.12-1.37a33.57,33.57,0,0,1-7.89-2.29c-2.69-1.15-3.57-3.09-4.34-4.8-.19-.41-.37-.83-.6-1.25-1.13-2.16-2-4.24-2.08-4.32l-.1-.33c-.33-1.91-1.06-4.31-1.6-4.86-1-1-2-3.5-3-6.39-.21-.57-.44-1.22-.52-1.38-.35-.65-4.06-5.48-5.09-6.62a6.88,6.88,0,0,1-1.51-3.42c-.07-.32-.14-.64-.24-1a6.85,6.85,0,0,1-.19-1c-.31.1-.61.17-1,.25s-1.21.27-2.33.59a13,13,0,0,0-5.63,3.23,13.43,13.43,0,0,0-1.61,3,11.1,11.1,0,0,1-2.25,3.86c-.54.45-.54.45-.64,1,0,.24-.09.51-.16.85,0,.13,0,.21.1.6a6.15,6.15,0,0,1-.13,4.1c-.65,2-3.18,4.65-6.41,7.87a33.37,33.37,0,0,0-2.7,2.86c-1.92,2.77-11.85,5.63-12,5.66-3,.87-6.26,1.57-8.42,2a27,27,0,0,1-3.46.45c-.61,0-1.16.09-1.57.17.07.26.18.59.27.87s.28.87.43,1.38l0,.1c.41,1.44.65,2.3-.55,3.25a4.8,4.8,0,0,0-1,1.09c-.89,1.22,1.13,3.55,2,4.26a9,9,0,0,0,1.1.71c1.23.72,2.91,1.7,2.47,3.39a10.12,10.12,0,0,0,.27,2.74c.07.4.14.81.2,1.23s.15.55.55.77a3,3,0,0,1,1.29,1.15c.82,1.47.11,3.17-.49,4.32A12.06,12.06,0,0,1,135,233.2c-.53.5-1.08,1-1.42,1.4a.45.45,0,0,0-.08.12,3.11,3.11,0,0,0,.32.41l.07.08a11.67,11.67,0,0,0,2.51,1.29c1.9.76,2.21,2.87,2.08,4.18l.19,1-.57.53a5.55,5.55,0,0,0-.46.49c-1.84,2.22-4.49,4.87-6.7,4.95-1.8.06-3.94-1.4-5.26-2.47L112,261.26c-4.27,5.24-4.62,5.38-5,5.52a10.63,10.63,0,0,1-3.55.52,18.39,18.39,0,0,1-5.62-2.3,9.16,9.16,0,0,0-2.6-1.4L94,263.1l-.61-.26-.44-.19-.46,0a10.48,10.48,0,0,0-1.19.15,12.4,12.4,0,0,1-3.17.22,6.59,6.59,0,0,1-1.68-.39,12.48,12.48,0,0,0-2.09-.54,5.25,5.25,0,0,0-3.19.15c-.39.11-.85.24-1.42.37-2.29.55-2.34.8-2.45,1.3a2.65,2.65,0,0,0,.08,1.08,2.9,2.9,0,0,1-.33,2.46l-.16.21a22.53,22.53,0,0,1-2.57,3,9,9,0,0,1,1.7,3.44c.07.22.16.5.22.68,1.22,1.09.43,3.07-.11,4.42-.3.76-.07,2.1.69,4,.69,1.71.82,2.89-.51,3.88a.91.91,0,0,0-.19.16,13.41,13.41,0,0,0-.86,2.42c-.2.67-.39,1.31-.58,1.79a17.9,17.9,0,0,0-.47,2.5,11.48,11.48,0,0,1-.75,3.32c-.77,1.42-1.46,1.49-3.12,1.67l-.49.05-.27,0a3.12,3.12,0,0,1-1.06,1.49c-1.45,1.17-2,1.43-3.8,1.23a5.6,5.6,0,0,1-1.25-.3l-.24.24c-.55.58-.19,2.6,0,3.69,0,.28.1.55.13.79a5.22,5.22,0,0,0,1.06.4c.91.27,2.28.69,2.47,2.06s-1.07,3.86-2.16,5.8ZM48.9,299.29,63,311.53a18.26,18.26,0,0,0,.9-2.09l-.37-.12c-1-.31-2.78-.84-3-2.62,0-.24-.08-.51-.13-.8-.33-1.9-.79-4.5.73-6.12,1.24-1.32,2.12-1.36,3.21-1A2.85,2.85,0,0,0,65,299c.84.09.84.09,1.7-.61a.38.38,0,0,0,.19-.29c.36-1.34,1.3-1.71,2.61-1.85l.5-.05.88-.11.06-.11a18.38,18.38,0,0,0,.44-2.37,16.44,16.44,0,0,1,.64-3.14c.14-.36.31-.93.49-1.54a11.54,11.54,0,0,1,1.29-3.29,3.22,3.22,0,0,1,.61-.63c0-.15-.12-.37-.24-.69-1.08-2.71-1.29-4.59-.69-6.1a11.6,11.6,0,0,0,.53-1.55,4.9,4.9,0,0,1-.72-1.66c-.42-1.34-.87-2.57-1.44-2.46l-6.63,1.33L70.75,270a17,17,0,0,0,3.81-4l.06-.08c0-.1,0-.25-.07-.36a5.19,5.19,0,0,1-.07-2.24c.5-2.3,2.2-2.88,4.55-3.45.53-.13,1-.25,1.33-.35a7.88,7.88,0,0,1,4.47-.2,15.29,15.29,0,0,1,2.51.65,3.91,3.91,0,0,0,1.06.25,10.73,10.73,0,0,0,2.42-.21,11.18,11.18,0,0,1,1.64-.19h.18c.61-.12.89,0,1.84.41l.6.25,1.19.48a11.9,11.9,0,0,1,3.23,1.74,15.27,15.27,0,0,0,4.49,1.8,16.12,16.12,0,0,0,1.78-.32c.6-.62,2.48-2.84,4-4.75l15.61-18.31,1.09,1c1.2,1.14,3.4,2.69,4.33,2.67.56,0,2.26-1.08,4.61-3.91l.15-.18h0l0-.24c.06-.41,0-1.25-.3-1.37a12.15,12.15,0,0,1-3.61-2.08c-1.77-2-.94-3.55-.3-4.3.44-.5,1-1,1.63-1.62a13.19,13.19,0,0,0,1.77-1.84,3.25,3.25,0,0,0,.53-1.56l-.18-.1a3.49,3.49,0,0,1-2-2.82c-.06-.4-.13-.8-.2-1.18a12.59,12.59,0,0,1-.31-3.49,11.85,11.85,0,0,0-1.06-.67,10.65,10.65,0,0,1-1.51-1c-1.77-1.51-4.56-5.14-2.42-8.09a8.06,8.06,0,0,1,1.27-1.41l-.14-.48,0-.1c-.14-.48-.27-.91-.4-1.28-.46-1.41-1.14-3.54,1.09-4.32a11.11,11.11,0,0,1,2.68-.42,24.41,24.41,0,0,0,3.11-.4c2.12-.44,5.27-1.12,8.22-2,4.18-1.19,9.63-3.44,10.4-4.55a31.4,31.4,0,0,1,3-3.25c2.08-2.07,5.22-5.2,5.71-6.73a3.41,3.41,0,0,0,.11-2.44,3.7,3.7,0,0,1-.14-2c.06-.26.1-.48.13-.67a3.8,3.8,0,0,1,1.62-2.75,13.39,13.39,0,0,0,1.47-2.82,13.21,13.21,0,0,1,2.24-4,16,16,0,0,1,6.83-3.92c1.19-.34,1.94-.5,2.47-.62a4.2,4.2,0,0,0,1.42-.48,1.93,1.93,0,0,1,1.92-.11,2.41,2.41,0,0,1,1,2.19,6.18,6.18,0,0,0,.16,1.13c.11.38.19.75.27,1.11a4.38,4.38,0,0,0,.84,2.14,83.63,83.63,0,0,1,5.52,7.26c.14.29.32.77.65,1.68.51,1.4,1.69,4.68,2.35,5.35,1.36,1.36,2.11,4.89,2.35,6.2.23.51,1,2.25,1.93,4,.25.47.46.94.67,1.4.69,1.54,1.2,2.65,2.87,3.36a30.83,30.83,0,0,0,7.22,2.1c2.25.36,7,1.35,7.21,1.39,6.77,1.18,17.58,3,20.1,3.35.17-.27.39-.68.55-1a8.12,8.12,0,0,1,1.5-2.2A8.28,8.28,0,0,1,240,203.6a9.68,9.68,0,0,1,2.83.18c.28-1,.58-1.88.85-2.64a13.31,13.31,0,0,0,.8-2.86,82.76,82.76,0,0,1,2.51-11c.91-2.06,3.26-2.54,4.53-2.81l.3-.06a53.9,53.9,0,0,0,6.58-1.66,9.32,9.32,0,0,1,1.64-.43l.52-.11a4.13,4.13,0,0,0,.08-1.12c0-2.48-.08-5-1.21-5.5a14.14,14.14,0,0,1-3.9-3.21,17,17,0,0,0-3.76-3.2c-3.48-1.6-5.82-7.76-6.25-9-.51-1.43-3-4-4.5-5.25l-1.06.49c-2.28,1.07-3.43,1.61-5.11.29a49.39,49.39,0,0,0-4.86-3.42,3.08,3.08,0,0,1-1.49-2.58,6.6,6.6,0,0,1,2.69-5.73c.51-.4.94-.75,1.3-1,1.66-1.35,2.67-2.17,4.61-1.34a8.6,8.6,0,0,1,1.31.73l.26.16a6.3,6.3,0,0,0,1.42-2.81c0-.11.44-2.8,2-3.43a1.85,1.85,0,0,1,1.84.28,2.1,2.1,0,0,0,.31.17c.93.46,1.93,1.26,1.42,3.33a2.56,2.56,0,0,1,2.44-1.17c.29.06.52.13.71.18l.18.05.26-.1a1.3,1.3,0,0,0,.33-.26,2.41,2.41,0,0,1,3.24-.31c.3.18.63.35,1,.52,1.2.63,2.56,1.33,3.05,2.64a4.07,4.07,0,0,1,.21,1.68v.08a.1.1,0,0,0,.09,0,.32.32,0,0,0,.13-.22c-.07-.69-.8-4.31-1.25-6.43l-.21-1,.86-.52c.38-.23,2.34-1.32,3.75-.21a4.82,4.82,0,0,1,.92,1l.08.12a10.48,10.48,0,0,0,1.39-1c.21-.18.37-.3.44-.35s.31-.21,4.24-2c-.37-.26-.77-.49-1.16-.72-1.29-.74-2.74-1.58-3.22-3.59a5.83,5.83,0,0,0-.48-1.29,3,3,0,0,1,0-3.13c.78-1.45,4-3.95,5.16-4.79,6.17-6.32,7.64-6.32,8.13-6.32l.59,0a4.88,4.88,0,0,1,3.92,1.4,3.46,3.46,0,0,0,1.07.59c1.45.56,2,1.35,2.26,3.54a22.48,22.48,0,0,1,0,6.82,5.77,5.77,0,0,0,.22,2.63,8.43,8.43,0,0,1,.28,1.28,7,7,0,0,1-.29,4.13c-.16.32-.34.65-.52,1l-.1.17a4.9,4.9,0,0,1,.62.18,5,5,0,0,1,2.22-1.19c.39-.1.71-.2,1-.3,1.3-.44,2.25-.64,4.45.39,1,.47,1.67.85,2.17,1.14.72.41.84.46,1.06.46s.43-.22.69-.36a5.61,5.61,0,0,1,4.21-.87l.41.11c1.69.43,3.44.88,3.8,3.58a6.65,6.65,0,0,0,.34,1.28,3.33,3.33,0,0,1-.71,4l-.52.52a6.77,6.77,0,0,1-3.74,2.12c-1,.29-1.73.55-2.31.76a11.85,11.85,0,0,1-2.08.61,42.23,42.23,0,0,1-6.25.2v0l.16.3a5.94,5.94,0,0,1,.91,3.63,2.51,2.51,0,0,1-.47,1.18c1.38,1.16,1.55,1.16,1.79,1.14a3.79,3.79,0,0,1,1,.1h0c0-.1,0-.22,0-.39a3.68,3.68,0,0,0-.27-1.73,2.15,2.15,0,0,1,1.33-3.08,4.23,4.23,0,0,0,.83-.52c1.19-.87,2.47-1.57,5-.5,4,1.66,4.9,2.73,5.22,3.56a1.71,1.71,0,0,0,.15.19,2,2,0,0,1-.06,3l-.15.14a2.58,2.58,0,0,1-2.44.8c-.27,0-.55,0-.83-.08l-.65-.06a6.28,6.28,0,0,1-.35.77,1.91,1.91,0,0,0-.27.68,22.27,22.27,0,0,1-.38,2.61,15.72,15.72,0,0,1-2,4.72,8.4,8.4,0,0,1-1.87,1.71,7.71,7.71,0,0,0-.92.74,2.86,2.86,0,0,1,1.82,2.15l.21,0a14.86,14.86,0,0,0,2.65-.63c1.73-.56,2.51-.47,4.29,1.2a13.56,13.56,0,0,1,2.73,3.14c.13.21.28.43.47.7a3.79,3.79,0,0,1,.62,1.45h.11a6.16,6.16,0,0,0,2.53-.49l1.39-.5a13.82,13.82,0,0,0,4.41-2.65l.76-.61c1.25-1,5.55-4.22,6.72-5.08a5.68,5.68,0,0,0,.27-.79c.24-.81,1-3.26,3.62-2.49.44.13.75.23,1,.31l.05,0,0,0c.25-.13.59-.31,1.12-.55a14.42,14.42,0,0,1,2.16-.79c-.94-1.07-1.87-2.41-1.87-3.54a5.07,5.07,0,0,1,.77-2.35,3.27,3.27,0,0,0,.57-1.66,14.06,14.06,0,0,1-.08-3.11c0-.44,0-1,.07-1.71.12-3.45,5.53-6.85,6.61-7.49l2.59-1.66c-.41-.18-.71-.32-.83-.35-1.65-.39-1.5-2.67-1.18-4.62,0-.28.08-.47.11-.61v-.08c0-.14-.06-.3-.09-.53a1.9,1.9,0,0,1-1.18-1.1l-.1-.24c-.23-.56-.52-1.25-1-1.48a4.48,4.48,0,0,1-1.35-.93,5.47,5.47,0,0,0-1.55-1,3.91,3.91,0,0,0-1.09-.39c-1.38-.29-1.52-1.19-1.67-2.15l-.05-.34a6,6,0,0,0-.93-2.13,4.25,4.25,0,0,1-.83-2.17,3.69,3.69,0,0,1,1.27-2.58,12.91,12.91,0,0,0,1.91-4,3.75,3.75,0,0,1,.67-2,2.43,2.43,0,0,0,.32-.71,2.23,2.23,0,0,1,1.36-1.47,3.24,3.24,0,0,1,2.79.7,4.57,4.57,0,0,0,.81.44h.18a4,4,0,0,1-1.52-1.36c-.77-1.16-.51-2.26.79-3.29.29-.23.49-.4.51-.53a1.87,1.87,0,0,0-.8-1.91c-.16-.1-.33-.2-.51-.3a3.88,3.88,0,0,1-2.47-3.43,2.37,2.37,0,0,1,.86-1.94l-.26-.11a6.77,6.77,0,0,1-2.88-1.81,2.59,2.59,0,0,1,.1-3.28,2.3,2.3,0,0,0,.38-.73A3.59,3.59,0,0,1,333.7,90a2.59,2.59,0,0,0,.52-.41,2.87,2.87,0,0,1,2.19-.94c.38,0,.42,0,.49-.1l.25-.22.29-.26-.11-.15a2.86,2.86,0,0,0-1.08-.75,3.86,3.86,0,0,1-2.2-2.18c-.17-.46-.33-1.11-.53-1.85-.37-1.42-1-3.81-1.63-4.5l-.07-.07a7,7,0,0,0-1,.49,16.23,16.23,0,0,1-2,1c-1.11.43-2.48,1-3.11-.59h0a2.91,2.91,0,0,0-1-.52,3.56,3.56,0,0,1-2.29-1.67,2.21,2.21,0,0,1,.11-1.84h0c-1.41-1.42-1.61-2.33-.8-3.75a5.15,5.15,0,0,0,.39-.8l0,0a4.23,4.23,0,0,1-.92-1.06,2.2,2.2,0,0,1-.28-1.83,2.72,2.72,0,0,1,1.43-1.55,20.77,20.77,0,0,1-1.15-4.51c0-.44,0-.83,0-1.18a3.79,3.79,0,0,0,0-.73h0a1.77,1.77,0,0,0-1.71-.17,3.19,3.19,0,0,1-2.18-.11c-.35-.17-.71-.38-1.15-.63-.6-.34-1.36-.77-2.42-1.31a2,2,0,0,0-1.11-.26,4.12,4.12,0,0,1-2.86-1l-.46-.33a10.3,10.3,0,0,1-1.14.66l-.3.15h-.33c-3.08,0-4.05-3.05-4.63-4.87a7.48,7.48,0,0,0-.57-1.47,20.16,20.16,0,0,1-1.64-2c-.19-.25-.44-.58-.59-.75a25.64,25.64,0,0,1-4.39-2.9,5.28,5.28,0,0,1-1.65-3.55,4.75,4.75,0,0,0-1-2.69c-1.09-1.14-1.35-1.11-2.14-1-.25,0-.52.08-.81.1-1.14.08-3.61,1-4.23,2.36a18.23,18.23,0,0,0-.81,3.7c-.34,2.13-.66,4.15-1.43,5.34-1.48,2.29-15.78,9.14-15.92,9.2A7.86,7.86,0,0,0,265,60.09c-1.1,1.24-2.43,2.13-6.27,3.28-1.2.36-2.25.6-3.08,0a2.25,2.25,0,0,1-.77-2,3.92,3.92,0,0,0-.11-1,37,37,0,0,0-1.86,5.11c-.43,1.35-.92,2.89-1.52,4.6l-.19.54-.52.26a11.15,11.15,0,0,1-3.22.87l-.75.13-.08.14A6.49,6.49,0,0,1,244,74.48c-.75.41-1.69.93-2.57.37a1.81,1.81,0,0,1-.73-1.78,1.41,1.41,0,0,0-.08-.73A3.71,3.71,0,0,0,239.13,71a8.82,8.82,0,0,1-1.23-.87A6.61,6.61,0,0,0,235,69c-1.5,2.52-3.73,3.47-6.15,2.6a6.18,6.18,0,0,1-2.75-1.73,4.6,4.6,0,0,0-.79-.69,5.63,5.63,0,0,1-3.65,1.11,5,5,0,0,0-.63,0c-.27.05-1.28.34-2.36.65a67.08,67.08,0,0,1-8.2,2,14.66,14.66,0,0,1-1.49.06c-1,0-1.72,0-4,1.1-.87,1.23-2.55,6.3-3.69,9.71-2.13,6.4-3.1,9.1-4.13,10A4,4,0,0,1,193.31,95a6.08,6.08,0,0,0-1.34-.12,6.88,6.88,0,0,0-3.41.71c-.69.28-.9.79-1.38,2.27-.14.44-.3.91-.49,1.41a3.44,3.44,0,0,1-3.78,2.55,11.45,11.45,0,0,0-1.33.09,14.76,14.76,0,0,0-4.43,1.77c-1.16,1.1-2.47,2.38-3.08,3.05.15.37.38.86.53,1.21a5.73,5.73,0,0,1,.76,2.16c0,.18-.48,3.22-1.55,3.94a3.7,3.7,0,0,1-3.46.09,1.62,1.62,0,0,0-1.06.08l-.21.09a16.89,16.89,0,0,1-4.64,1.41,2.57,2.57,0,0,1-2.47-.81,2.26,2.26,0,0,1,.07-2.37l0-.1.11-.39a25.89,25.89,0,0,0,.65-2.54,14.3,14.3,0,0,0-1.56-1.83,2.91,2.91,0,0,1-.55.46,3.23,3.23,0,0,1-4.1-.48,3.4,3.4,0,0,0-.46-.42,6.13,6.13,0,0,1-.32.57.78.78,0,0,0-.13.74,6,6,0,0,1,.1.68,5.33,5.33,0,0,0,.19,1.07c.14.15.29.33.46.54a6.32,6.32,0,0,0,1.93,1.72c.63.35,1.49.84,1.44,1.85a1.43,1.43,0,0,1-.49,1l.06,0a5.65,5.65,0,0,1,1.46,1.22c1.23,1.58-.09,3.66-1,5l-.27.44a2.36,2.36,0,0,1-1.54,1.1c-1.55.35-3.32-.72-3.83-1.06a6.41,6.41,0,0,1-1-.91c-.59-.61-1-1-1.59-1a8.7,8.7,0,0,0-.51,1.6,17.63,17.63,0,0,1-1.26,3.64c-.31.62-1.12,2.25-2.62,2.25h-.06c-1.26,0-2-1.09-2.71-2.59a2.74,2.74,0,0,1-.42.06,3.55,3.55,0,0,1-2.16-.6c-1.71.25-3.46.53-3.74.59s-5.46,2.2-6.53,2.68c-1.89.86-4.95-.26-6.46-1.06-.7-.37-.95-.5-1.46-.27,1.54,3.41,2.11,10.29,2.11,10.38.11,2.11-1.3,3.61-2.93,5.35-.5.53-1,1.11-1.58,1.75-2.68,3.19-7.95,1.47-10.35.12-.73-.41-1.7-1-2.63-1.65-.74-.48-1.73-1.12-2.14-1.34-.85,0-3.32-.24-4.61-1.53-.54-.54-.76-.76-2.65-.16a.93.93,0,0,0-.41.21,3.69,3.69,0,0,0,.33,1.4l.17.48a2.49,2.49,0,0,1-.67,2.62c-.84.79-2.54,1.42-5.92.33-2.47,4.08-10.54,6.87-11.55,7.21-2.34.78-8.34,5.79-9.79,7.92a40.18,40.18,0,0,1-7.87,8.24c0,2.39-.86,5.54-2.45,7-.68.62-2.2,3.72-3.22,6.23l-.13.24C53.75,187,53,187,52.27,187c-.16,0-.35,0-.56,0a2.71,2.71,0,0,0-2.48.8,7.63,7.63,0,0,0-1.84,5.2,3.16,3.16,0,0,1,2.45,1.26,2.77,2.77,0,0,1,.18,2.6c-.39,1.1-3.09,8.64-3.63,9.78a6.57,6.57,0,0,0-.26,1.36c-.16,1.21-.42,3.22-2.22,3.22-.28,0-.39,0-1.45.75l-.84.55-.71.46-.74-.4a28.75,28.75,0,0,0-4.49-1.21,58.68,58.68,0,0,1-4.61,5l-1,.92c-2.4,2.21-4.46,4.12-6.17,3.26A58,58,0,0,1,18.13,216c-1.35,2.35-3.3,6.05-3.54,7.8l-.06.43-.29.32c-.61.68-3.62,4.64-5.43,7,1.6,1,3.9,2.53,5.07,3.31l.7-.42,8.75,4.82-1.66,2.4,4.6,3.55.14.37A9.28,9.28,0,0,0,28.63,249a22.15,22.15,0,0,0,1.89,1.26,8.09,8.09,0,0,1,1.84,1.37c.58.65,2.22,2.3,2.24,2.31l.87.87-.74,1c-.63.83-1.32,1.78-1.85,2.52l1.19.42,1.53.54-2.09,4.1,5.37,2.83,3.37-1L48,268.93l-.34,1.14,2.27.6L49.5,272c-.19.69-.4,1.53-.51,2.06.82.74,2.55,2.22,3,2.52a1.43,1.43,0,0,1,.7.9c.22.86-.2,1.32-1.46,2.68l-.23.25c.79.79,2.17,2.07,3.39,3.16l1,.85-6.64,9.16,3.14,2.66Zm1.46-18.13h0Zm24-4.16h0Zm1.85-2.06Zm-27.33-.39Zm25.81-8.78h0Zm158.94-57.18Zm-182-24.25Zm54.39-43.21ZM283,137.26Zm-162.08-10Zm155.18-11.5-112.37-2.83h0Zm-1.71-.4h0Zm9.87-.51h0Zm.63-1.63Zm-17.21-3.68Zm18.57-.37ZM300.24,47.89a1.31,1.31,0,0,0,.55.12A1.71,1.71,0,0,1,300.24,47.89Zm.55-2.71h0Z"/></svg>