<svg id="Layer_1" data-name="Layer 1" xmlns="http://www.w3.org/2000/svg" viewBox="0 0 350 350"><defs><style>.cls-1{fill:#999;}.cls-2{fill:#f90;}</style></defs><title>M</title><path class="cls-1" d="M284.1,105.87c-.54-6.45-2.17-13.17.13-19.21A180.41,180.41,0,0,1,273,49.36c-.61-3.31-1.16-6.71-2.78-9.66-1.48-2.7-3.77-4.86-5.34-7.51-2.58-4.34-3-9.58-4.62-14.36C259,14.12,249.84,2.23,245.74,9.1a19,19,0,0,0-1.52,3.62Q242.07,19,240,25.3c-1.63,5.05-3.32,9.51-5.17,14.56-1.23,3.37-.47,7.19-1.56,10.61-1.3,4.06-5,6.86-7.22,10.47s-3.1,8-3.59,12.25c-.45,3.89-1.29,8.64-5,9.9-6.24,2.13-10.84-5.12-9.09-10.3a16.62,16.62,0,0,1,.86-2.22,6.47,6.47,0,0,0-.63-7.25c-3.89-5.32-4.14-11.76-5.7-17.84l2.85-.53c-2.24-1.15-3.9-2.45-5.74-2.86-4.35-1-8.79-1.53-13.19-2.26-.53-.09-1.37-.14-1.49-.43-.53-1.31-.74-2.74-1.26-4-1-2.53-1.53-5.67-3.36-7.39-7-6.62-20-7-28.9-5.26l-3.32-3.11c3.1,3.09-10.7,1.55-11.91,2.07-2.89,1.24-5.47,3.29-8.57,3.85-3.44.62-6.88-.7-10.26-1.6a44.42,44.42,0,0,0-30.47,2.86C82.7,29,78.39,32.13,75.76,36.5s-3.31,10.12-.84,14.58c2.68,4.84,3.82,6.12,3.77,11.39,0,4.75-1.08,8.32,1.28,12.9,1.88,3.65,5.14,7.39,3.86,11.29-2.7,8.22-13.56,5.69-15.64,16.44a12.76,12.76,0,0,1-2.32,5.2c0,1.1-.08,2.2-.11,3.31a5.74,5.74,0,0,1,2.47,2.9c.83,2.25.71,4.79,1.73,7,2.3,4.87,8.85,5.53,14.24,5.51L97,126.9c2.07,0,4.27,0,6,1.14a4,4,0,0,1,1.69,4.66c1.28-1.25,4.15.24,5.48,2,7.72,9.93,9.22,16.42,8.06,28.51A59.78,59.78,0,0,0,118,176.3a4.66,4.66,0,0,0,.69,2.21c.93,1.28,2.77,1.36,4.34,1.33,4.24-.08,8.84.05,12.15,2.7,1.5,1.21,2.64,2.87,4.3,3.85,3.12,1.84,7,.77,10.66.78,11.15.05,14,8.82,18.77,16.73A18,18,0,0,1,181,196.54a4.64,4.64,0,0,1,2.36.14c12.12,4.88,8.64,36.46,8.18,46.14a37.79,37.79,0,0,1-.91,7.76,46.3,46.3,0,0,1-3.5,8.29c-2.79,5.78-12.06,24-4.9,29.26,2.84,2.1,7.19.07,10.26,1.81,4.5,2.55,4.08,13.76,4.67,18.15.7,5.19.82,5.18,6.07,5.65,3.22.29,6.14,1.19,7.72,4.66a12.84,12.84,0,0,0,3.89,4.6c6.25,4.74,10.49,11,14,17.86a3.52,3.52,0,0,0,3.89,2.1c1.33-.16,15.05-3.29,14.78-.27L248.73,329l3.07.62A17.12,17.12,0,0,1,247.92,313c2-6.19,7.28-10.7,10.19-16.51,2.51-5,3.1-10.75,3.64-16.33,1.11-11.32,1.92-21.13.3-32.37-1-6.75-2.68-13.2-2.86-20s.61-13.51-1.38-20.07c-.79-2.59-1.88-5.72-.07-7.74,2.2-2.45,6.88-1,9-3.47a5,5,0,0,0,1-2.29c1.08-5.34-2.16-10.39-3.34-15.41-1.63-7-2-14.58-2.35-21.71-.26-4.94-.32-10,1.48-14.65C269,128.35,285.54,123,284.1,105.87Z"/><path class="cls-2" d="M232.12,344.42a4.88,4.88,0,0,1-4.54-2.91c-4.07-8-8.26-13.33-13.59-17.37a14.38,14.38,0,0,1-4.33-5.14c-1.28-2.81-3.55-3.56-6.56-3.83-6-.53-6.57-1.11-7.34-6.87-.13-1-.21-2.19-.3-3.61-.29-4.43-.77-11.85-3.66-13.49a8.57,8.57,0,0,0-4.25-.59c-2,0-4.28.07-6.15-1.31-7.81-5.76.53-22.92,4.1-30.25l1-2a36.39,36.39,0,0,0,2.8-6.78,36.81,36.81,0,0,0,.87-7.47c0-1,.13-2.25.22-3.67.72-11.1,2.4-37.1-7.51-41.09a3.47,3.47,0,0,0-1.64,0,16.58,16.58,0,0,0-11.11,6.78l-1.24,1.77-1.13-1.85c-.78-1.28-1.51-2.58-2.21-3.84-3.65-6.53-6.81-12.17-15.36-12.21a28.89,28.89,0,0,0-2.89.14c-2.87.22-5.83.44-8.49-1.12a14,14,0,0,1-2.89-2.46,17.85,17.85,0,0,0-1.58-1.5c-2.92-2.34-7.15-2.46-11.24-2.39-1.32,0-4.07.08-5.52-1.91a6,6,0,0,1-.95-2.87A61.24,61.24,0,0,1,116.8,163c1.17-12.24-.5-18.15-7.77-27.51a5.14,5.14,0,0,0-3-1.87.56.56,0,0,0-.36.06L100.21,139l3.17-6.93a2.62,2.62,0,0,0-1.17-2.88c-1.34-.86-3.08-.93-5.24-.91l-12.76.06c-5.35,0-12.83-.6-15.53-6.32a15.4,15.4,0,0,1-1.11-4.15A16.15,16.15,0,0,0,66.9,115a4.33,4.33,0,0,0-1.83-2.16l-.75-.42,0-.86q0-1.17.07-2.34l0-1.44.28-.36a11.32,11.32,0,0,0,2-4.59c1.26-6.51,5.48-8.68,9.19-10.6,2.92-1.5,5.44-2.8,6.49-6,.79-2.42-.72-5-2.33-7.66-.49-.83-1-1.69-1.44-2.54-2-3.84-1.78-7-1.57-10.43.06-1,.13-2,.13-3.13,0-4.25-.71-5.56-2.69-9.07l-.91-1.62c-2.55-4.61-2.21-10.89.86-16C77,31.64,81.11,28.18,86.67,25.5a46,46,0,0,1,31.45-3l1.75.49c2.76.79,5.36,1.54,7.89,1.09A17.48,17.48,0,0,0,132.9,22c1-.55,2-1.12,3.12-1.59.61-.26,1.56-.26,4.22-.21,2.18,0,6.71.13,7.58-.42a.78.78,0,0,0-.27.46.88.88,0,0,0,0,.35l1.92-2,2.79,2.61c14.35-2.68,24.8,1.39,29.43,5.75,1.58,1.49,2.29,3.67,3,5.77.24.75.47,1.46.74,2.12a19.07,19.07,0,0,1,.67,2.16c.13.47.25.93.39,1.36l.22,0,.38.06c1.34.22,2.68.43,4,.64,3,.47,6.18,1,9.25,1.64a14.58,14.58,0,0,1,4.1,1.87c.62.36,1.27.74,2,1.11l3.7,1.9-5.46,1c.26,1.15.49,2.3.71,3.43.89,4.51,1.73,8.77,4.41,12.45a7.84,7.84,0,0,1,.75,8.72A13.76,13.76,0,0,0,209.8,73l-.07.21a7.41,7.41,0,0,0,1.89,7.21,5.06,5.06,0,0,0,5.4,1.3c2.77-.95,3.58-4.75,4-8.72.48-4.12,1.31-8.87,3.8-12.84a36,36,0,0,1,3.07-4c1.68-2,3.27-3.88,4-6.14a19.18,19.18,0,0,0,.65-4.77,20,20,0,0,1,.93-5.9l.9-2.45c1.49-4,2.9-7.87,4.25-12.06,1.23-3.8,2.56-7.81,4.21-12.6a20.1,20.1,0,0,1,1.64-3.89,5,5,0,0,1,5-2.76c5.14.55,11,8.54,12.07,11.77.59,1.75,1,3.56,1.45,5.31a31.29,31.29,0,0,0,3,8.79,31.44,31.44,0,0,0,2.44,3.37A30.38,30.38,0,0,1,271.5,39a30.59,30.59,0,0,1,2.8,9.4l.13.68a179.08,179.08,0,0,0,11.11,37l.22.52-.2.53c-1.68,4.42-1.11,9.24-.5,14.35.17,1.39.34,2.83.46,4.24.92,10.92-5.12,17.4-11,23.67-3.74,4-7.6,8.16-9.69,13.51-1.74,4.44-1.63,9.58-1.39,14.05l.06,1.06c.36,6.83.74,13.9,2.26,20.41a41.53,41.53,0,0,0,1.49,4.64c1.31,3.61,2.67,7.34,1.86,11.38a6.34,6.34,0,0,1-1.3,2.92c-1.42,1.68-3.54,2-5.4,2.25-1.49.21-2.89.42-3.64,1.25-1.18,1.31-.42,3.78.24,6l.13.42c1.53,5.06,1.48,10.23,1.43,15.24,0,1.71,0,3.48,0,5.2a85.62,85.62,0,0,0,1.71,13.19c.4,2.18.81,4.43,1.14,6.7,1.61,11.17.89,20.6-.29,32.71-.53,5.39-1.13,11.51-3.79,16.83a48,48,0,0,1-4.68,7.11c-2.25,3-4.37,5.85-5.42,9.19a15.76,15.76,0,0,0,3.54,15.25l3.13,3.27-5.94-1.2-1.07,12.07-2.82-.25a.61.61,0,0,0,.21.5c-.54-.35-2.8-.69-12,1.05-.72.14-1.23.23-1.44.26A6.52,6.52,0,0,1,232.12,344.42Zm-43.69-56.68a9.43,9.43,0,0,1,4.76,1c4.22,2.39,4.72,10.13,5.09,15.77.09,1.37.17,2.54.28,3.42.24,1.79.45,3.34.87,3.73s1.85.51,3.85.69c3.17.28,7,1.16,9,5.49a11.41,11.41,0,0,0,3.46,4.06c5.61,4.25,10.18,10.08,14.4,18.34a2.12,2.12,0,0,0,2.46,1.34c.18,0,.63-.11,1.25-.23,6.47-1.23,10.3-1.62,12.51-1.21l1.13-12.79.94.19a18.45,18.45,0,0,1-1.82-14.95c1.2-3.8,3.57-7,5.85-10a45.94,45.94,0,0,0,4.41-6.69c2.42-4.85,3-10.43,3.5-15.83,1.16-11.91,1.87-21.18.31-32-.32-2.21-.73-4.44-1.12-6.59a89.09,89.09,0,0,1-1.76-13.62c0-1.78,0-3.57,0-5.31.05-5,.1-9.74-1.31-14.38l-.13-.41c-.84-2.75-1.89-6.18.36-8.68,1.44-1.6,3.51-1.9,5.34-2.16,1.56-.22,2.92-.42,3.64-1.28a3.64,3.64,0,0,0,.69-1.65c.66-3.25-.51-6.45-1.74-9.85a44.22,44.22,0,0,1-1.59-5c-1.58-6.75-2-13.94-2.33-20.9l-.06-1.06c-.25-4.77-.36-10.27,1.58-15.24,2.29-5.85,6.34-10.2,10.26-14.41,5.67-6.09,11-11.83,10.21-21.5h0c-.11-1.36-.28-2.78-.44-4.14-.6-5-1.22-10.24.47-15.15a181.92,181.92,0,0,1-11.07-37.08l-.13-.68c-.54-3-1.1-6-2.5-8.55a27.79,27.79,0,0,0-2.67-3.78,34,34,0,0,1-2.65-3.68,33.85,33.85,0,0,1-3.37-9.57c-.41-1.69-.83-3.43-1.38-5.07-.85-2.51-6.08-9.47-9.68-9.85-.65-.07-1.5,0-2.31,1.39a17.73,17.73,0,0,0-1.38,3.3c-1.65,4.83-3,8.82-4.21,12.61-1.37,4.25-2.79,8.1-4.29,12.17l-.9,2.45a17.61,17.61,0,0,0-.76,5.08,21.59,21.59,0,0,1-.78,5.47c-.89,2.8-2.74,5-4.53,7.11a33.33,33.33,0,0,0-2.84,3.69c-2.19,3.49-2.94,7.85-3.39,11.66-.38,3.29-1.1,9.42-5.94,11.08a7.84,7.84,0,0,1-8.32-2A10.24,10.24,0,0,1,207,72.34l.07-.2a16.14,16.14,0,0,1,.87-2.21,5.07,5.07,0,0,0-.51-5.77c-3.05-4.18-4-9-4.9-13.57-.31-1.57-.63-3.19-1-4.75l-.38-1.47.5-.09a7.91,7.91,0,0,0-2-.8c-3-.67-6.07-1.14-9.06-1.6-1.35-.21-2.71-.42-4.06-.64l-.29,0c-.79-.11-1.87-.26-2.28-1.26a18.59,18.59,0,0,1-.69-2.21,16.62,16.62,0,0,0-.57-1.85c-.3-.75-.55-1.54-.8-2.3-.6-1.85-1.16-3.59-2.21-4.58-6.31-5.95-18.43-6.75-27.65-4.9l-.72.14-2.17-2c-1.46.81-4.33.87-9,.78-1.21,0-2.7,0-3.13,0-.93.41-1.84.9-2.79,1.43a19.84,19.84,0,0,1-6,2.48c-3.18.57-6.23-.3-9.18-1.15l-1.69-.48a43.17,43.17,0,0,0-29.49,2.77c-5.06,2.44-8.74,5.52-10.93,9.17-2.56,4.26-2.88,9.43-.81,13.17l.9,1.6c2.06,3.65,3.09,5.48,3.05,10.49,0,1.16-.08,2.24-.14,3.28-.2,3.25-.36,5.81,1.26,9,.4.78.86,1.56,1.36,2.39,1.77,3,3.78,6.35,2.59,10-1.41,4.31-4.7,6-7.89,7.65-3.45,1.78-6.71,3.46-7.71,8.62a14.22,14.22,0,0,1-2.31,5.42l0,.54q0,.77,0,1.54A7.19,7.19,0,0,1,69.56,114a18.56,18.56,0,0,1,.81,3.44,13.05,13.05,0,0,0,.88,3.41c2,4.25,8.34,4.72,13,4.69L97,125.48c2,0,4.63,0,6.79,1.36a5.73,5.73,0,0,1,2.54,4,7.87,7.87,0,0,1,5,3c7.72,9.93,9.59,16.55,8.35,29.52a58.84,58.84,0,0,0-.19,12.83,3.6,3.6,0,0,0,.42,1.55c.51.7,1.83.77,3.17.75,4.4-.08,9.4.08,13.06,3a20.29,20.29,0,0,1,1.84,1.73,11.68,11.68,0,0,0,2.29,2c1.89,1.11,4.29.93,6.84.74,1-.08,2.08-.15,3.12-.15,10.2.05,14.07,7,17.82,13.66.37.66.74,1.32,1.12,2a19.51,19.51,0,0,1,11.71-6.28,6,6,0,0,1,3.09.23c11.82,4.76,10.11,31.2,9.28,43.9-.09,1.4-.17,2.63-.22,3.62a38.92,38.92,0,0,1-1,8.05,39.12,39.12,0,0,1-3,7.31l-1,2c-2.69,5.53-10.88,22.37-5,26.73,1.1.81,2.71.79,4.43.76ZM137,23h0Z"/></svg>