<svg id="Layer_1" data-name="Layer 1" xmlns="http://www.w3.org/2000/svg" viewBox="0 0 350 350"><defs><style>.cls-1{fill:#999;}.cls-2{fill:#f90;}</style></defs><title>M</title><path class="cls-1" d="M34.87,91.33S50,95.61,52.5,97.3a10.57,10.57,0,0,0,5.84,1.47s9.7,1.38,14.38-.86a15.42,15.42,0,0,0,4.07-2.51,11.87,11.87,0,0,1,7.65-3.46A29.49,29.49,0,0,0,91.2,90.6a10.82,10.82,0,0,0,5.29-3.09c2.05-2.39,7.92-1.35,7.92-1.35L114.7,88.3a8,8,0,0,0,5.35-.58,9.45,9.45,0,0,1,5-1s1.87-.12,3,3.95,1.77,6,2.08,7.83,3.52,11.11,5.2,13.68,2.05,7.56,2.05,7.56a39,39,0,0,1,2.36,7.28c.34,2.57,1.71,5.26,1.84,6.88s-.8,4.16,2.66,6.3,7.77,4.86,7.77,4.86,10,4.47,11.93,5.08,6.06,1,6.43,2.2,0-3.76.92-5a9.46,9.46,0,0,1,2.11-2s2.36-1.44-.67-3.18c0,0-3.09-3.46,1.55-3.52s10.63.43,13.2,1.5a3.41,3.41,0,0,0,4.07-.92,4.08,4.08,0,0,0-1-2.14,6,6,0,0,1-1-5.09c.6-1.65,3.63-1.79,3.63-1.79s4,.78,5.19-.6,2.94-3.44,5.6-3.67a15.78,15.78,0,0,1,5.23.55,41.61,41.61,0,0,1,.6,9.27c-.37,4,4.18,1.88,4.18,1.88s5.65-2.8,9.36-3.49,8.86-5.09,9.45-8.22,5.09-5.19,5.09-5.19,2.39-.37,6.06,3.21,12.39,5.51,15,4.59,14.69,3.9,14.69,3.9l14,5.09s3.86.18,4.68,6.56a36.08,36.08,0,0,0,3,10.65A20.58,20.58,0,0,0,297,158c.46.41,3.26,2.34,4.13,4.86,0,0,2.39,1.42,3.9.83a9.89,9.89,0,0,0,4.54-4.73c.5-1.7,1.42-5-.28-7.48,0,0-.64-2.71,3.21-5.09a27.25,27.25,0,0,0,6.33-5.51s3.07-4.18,5.74-5c0,0,3-2.71,4.31.37a45.88,45.88,0,0,0,7.21,1.16s5.45.55,7.65,5.45c0,0-2,2.75-4,3.49s-11.08,7.22-17.13,14.26c0,0,2.82,5.32,2.88,6.55,0,0,.8.67-1.41,1.41s-4.22,2.57-5.87,5.51-5.75,6.06-8.51,5.75a13,13,0,0,0-3.63,8.52,30.83,30.83,0,0,0-1.19,7,9.54,9.54,0,0,0-1.24,4.27c-.18,2.66.46,4.73-1.33,3a30.21,30.21,0,0,0-5-3.49l-2,.14-2.34,5.42s-1.1,1.33-2.29-.5-2-1.56-2.94-.18-5.46,5.32-8.9,7.44c0,0-.28,2.94,1.29,3.17,0,0-.73,3.76,1.79,4.31a1.42,1.42,0,0,1-.32,2.11,6.17,6.17,0,0,0-2.52,4.36s-3.3,1.47-3.63,4.22l-1.24,1s-2.11-5.55-6.38-8.81c0,0-3.9-.55-4.91-.5,0,0-3.44-2.52-3.67-8.17,0,0-.78-2.07-2.34-.5s-2.57,1.79-4,1.65-1.74.14-1.74.14-.5,2.07,1.06,2.8-1.15,3.3-1.15,3.3a3,3,0,0,0,.78,1.47L249.45,224a19.57,19.57,0,0,0-10.51-3.3s-3.58,3.35-7.66,3.67a59.19,59.19,0,0,1-3.72-5.69s-2.81-.23-3.46.26-4.05-8.31-4.45-9.42-4.36-2.69-6-1.94-2.62,4.79-1.39,11.64,5.32,13.71,5.32,13.71.06,5.08-1.29,4.59c0,0,.43.61-4.16,1.29,0,0,.18,4.41,1.22,5.26s-23.28,0-23.28,0a4.74,4.74,0,0,1-5.14-3.12,24,24,0,0,0-10.83-1.24s-2,1.38-2.11,2.89c0,0-2.75,0-3,.41,0,0-1.51,1.74-1.42,2.71s-2.25-.46-2.25-.46a8.42,8.42,0,0,0-7.34.46l-11.66,6.93s-.55,1.47-3,0-8-.28-15.6-5c0,0-7,1.33-7.8,1.15s-19.23,14.14-19.6,15.28c0,0-2.48-1.29-2.57-1.74s-4.82-.87-7.39-5.28-1.51-7.8-6.79-9a48.19,48.19,0,0,0-10.6-1,57.71,57.71,0,0,1,.6-6.38s-3-2.66-3.86-2.43-13.63-2.34-17.26-5.6a7.25,7.25,0,0,1-1.93-4.68c0-2.75-1.29-13.68-3.12-16.11s-4.77-10.23-7.44-12.62-6.56-7.71-8.12-8.54l-1-3.67s-4.41-3.53-4.54-5a76.2,76.2,0,0,0,2.11-7.34c0-.92-4.08-3.17-4-6.84s-3.44.46-3.44.46-.73,1.42-3.72-.23a2.88,2.88,0,0,1-1.74-3c.09-2.43-1.1-3.95-1.79-3.26,0,0-3.35.41-3.12-2.39s.18-4.86-1-6.79-3.26-5.09-3.26-5.09v-4.41l14.73.32s1.88.83,2.11-1.15.14-4.22,2.16-3.95,9.45.55,9.45.55-.37-8.95-.6-10.28-1.84-18.57-1.59-20.53c0,0,.61-14.56,1.84-17.75Z"/><path class="cls-2" d="M101.08,266.1l-1.49-.77a10.08,10.08,0,0,1-2.95-2l-.32-.11a12.55,12.55,0,0,1-7.27-5.49,21.91,21.91,0,0,1-1.78-4.08c-.84-2.4-1.26-3.61-4.1-4.25a44.18,44.18,0,0,0-9.68-1h-.72l-1.38-.11.07-1.38c.07-1.34.23-4.14.46-5.76a12.2,12.2,0,0,0-2.27-1.57c-2.65.12-14.69-2.77-18.24-6a8.7,8.7,0,0,1-2.4-5.74c0-3.13-1.38-13.33-2.83-15.26a36.42,36.42,0,0,1-2.74-4.94c-1.38-2.77-3.1-6.22-4.51-7.48a54.35,54.35,0,0,1-4.2-4.52,28.6,28.6,0,0,0-3.64-3.82l-.54-.29-1.05-3.82c-2.14-1.75-4.55-4.06-4.71-5.63l0-.3.09-.28c.84-2.55,1.76-5.59,2-6.65-.16-.17-.4-.41-.59-.61-1.23-1.23-3.24-3.25-3.39-6.07a9.47,9.47,0,0,0-.9.9,2.61,2.61,0,0,1-1.42,1,5.36,5.36,0,0,1-4-.78A4.3,4.3,0,0,1,14,165a4.1,4.1,0,0,0-.28-1.79A4.87,4.87,0,0,1,10,162.17a3.41,3.41,0,0,1-1-2.87c.22-2.66.16-4.39-.77-6-1.12-1.87-3.2-5-3.22-5L4.83,148v-6.28l16.46.36.26.11.13,0v0c0-.24.05-.49.08-.74.14-1.48.28-3,1.41-3.9a2.88,2.88,0,0,1,2.27-.55c1.38.19,5.51.38,7.78.48-.15-3.39-.38-7.78-.51-8.56S30.85,110.58,31.1,108c.07-1.72.67-14.88,1.93-18.15l1.12-2.9,1.69,3.19c3.09.88,15.06,4.37,17.45,6a9.27,9.27,0,0,0,5,1.23h.14l.14,0c2.58.37,10.05.95,13.57-.73a14.26,14.26,0,0,0,3.71-2.26,13.25,13.25,0,0,1,8.51-3.84,28.35,28.35,0,0,0,6.4-1.27l.17,0a9.46,9.46,0,0,0,4.52-2.63c2.51-2.92,8.57-1.94,9.25-1.82l10.45,2.18a6.62,6.62,0,0,0,4.34-.51,11,11,0,0,1,5.71-1.14c.78,0,3,.51,4.24,5,.39,1.43.72,2.6,1,3.58a38.5,38.5,0,0,1,1.1,4.39c.29,1.76,3.46,10.79,5,13.13,1.66,2.53,2.16,6.91,2.26,8a37.9,37.9,0,0,1,2.37,7.44,20.81,20.81,0,0,0,1,3.73,14.3,14.3,0,0,1,.84,3.23,10,10,0,0,1,0,1.16c-.06,1.47-.11,2.74,2,4,3.18,2,7.07,4.42,7.7,4.82,2.82,1.26,10.16,4.5,11.68,5,.52.16,1.25.32,2,.48a27.87,27.87,0,0,1,2.86.7,7,7,0,0,1,.89-3.48,10.92,10.92,0,0,1,2.47-2.39,1.09,1.09,0,0,0,.2-.17,2.79,2.79,0,0,0-.79-.61l-.2-.11-.15-.17c-.33-.37-1.94-2.31-1.16-4.09.51-1.16,1.77-1.76,3.74-1.79,4.62-.06,10.9.42,13.77,1.61a2,2,0,0,0,1.94-.07,1.9,1.9,0,0,0-.4-.66,7.34,7.34,0,0,1-1.33-6.57c.89-2.47,4.49-2.71,4.89-2.72h.17l.17,0c1.59.3,3.48.25,3.83-.12,1.13-1.36,3.24-3.89,6.56-4.17a17.09,17.09,0,0,1,5.77.61l.83.25.16.85a42.62,42.62,0,0,1,.61,9.66c-.06.65.07.83.08.83a3.47,3.47,0,0,0,2.09-.37c.21-.1,5.83-2.88,9.7-3.6,3.17-.59,7.84-4.56,8.32-7.09.71-3.73,5.37-6,5.89-6.21l.18-.08.2,0c.31-.05,3.2-.36,7.26,3.6,3.33,3.24,11.46,5,13.5,4.27,2.77-1,11.89,2.41,15.69,3.92l13.86,5c1.07.16,4.9,1.21,5.75,7.77a35.15,35.15,0,0,0,2.84,10.19,25.09,25.09,0,0,0,1.43,2.88l.21.17a13.42,13.42,0,0,1,4.06,4.71,3.81,3.81,0,0,0,2.25.51,8.72,8.72,0,0,0,3.71-3.81c.38-1.29,1.28-4.31-.08-6.26L308,152l-.06-.26c0-.15-.83-3.74,3.85-6.63a25.84,25.84,0,0,0,6-5.18c.3-.41,3.21-4.28,6.15-5.34a5,5,0,0,1,3.83-1.18,3.31,3.31,0,0,1,2.13,1.58,36.78,36.78,0,0,0,6.21,1h.19c.26,0,6.29.7,8.8,6.28l.33.74-.47.66c-.23.32-2.29,3.14-4.72,4-1.64.58-9.92,6.43-15.9,13.13a33,33,0,0,1,2.51,5.8,1.81,1.81,0,0,1,.18,1.19c-.23,1.21-1.53,1.78-2.48,2.1-1.9.63-3.65,2.31-5.09,4.86-1.76,3.13-5.81,6.37-9.16,6.49a12.14,12.14,0,0,0-2.79,7.19l-.06.32a29.67,29.67,0,0,0-1.13,6.66v.39l-.22.33a8.36,8.36,0,0,0-1,3.59c0,.63,0,1.24,0,1.78,0,1.31,0,2.55-1.11,3.05s-2.15-.46-2.58-.87a26.8,26.8,0,0,0-4.4-3.07l-.69,0-2.08,4.81-.13.16a2.69,2.69,0,0,1-2.18,1,3.08,3.08,0,0,1-2.4-1.61,4.41,4.41,0,0,0-.35-.48c-.06.08-.14.18-.22.31-1.07,1.6-5.41,5.3-8.68,7.44a2.78,2.78,0,0,0,.2,1l1.36.2-.29,1.46s-.38,2.42.7,2.66l.5.11.32.41a3.11,3.11,0,0,1,.61,2.27,2.77,2.77,0,0,1-1.26,1.88,4.86,4.86,0,0,0-1.9,3.19v.92l-.84.37c-.71.32-2.61,1.51-2.79,3.09l-.07.57-3.2,2.61-.7-1.83a21.69,21.69,0,0,0-5.63-8c-1.56-.21-3.71-.46-4.27-.44l-.5,0-.4-.3a12.11,12.11,0,0,1-4.22-8.76c-1.91,1.89-3.38,2.18-5.12,2l-.19,0a.49.49,0,0,0,.24.26,2.16,2.16,0,0,1,1.27,1.63,4.48,4.48,0,0,1-1.38,3.29l0,0,1.43,1.07-1.4,1.12-3.15,2.65-.9-.67a18.36,18.36,0,0,0-9.15-3c-1.16,1-4.39,3.36-8.06,3.65l-.79.06-.47-.64c-.27-.38-2.4-3.32-3.45-5.15a8.59,8.59,0,0,0-1.81.09l-.48.37-.78-.19c-1.56-.46-3.95-6.56-5.26-10.23-.59-.67-3.33-1.58-4.12-1.22-.59.27-1.82,3.16-.58,10.1,1.16,6.51,5.11,13.16,5.15,13.23l.2.33v.38c0,3.08-.45,5-1.45,5.71a1.88,1.88,0,0,1-.49.25,8,8,0,0,1-3.42,1.12,9.07,9.07,0,0,0,.67,3l.78.65-.38,1c-.44,1.16-.64,1.69-24.56.85a6.11,6.11,0,0,1-6.28-3.42,24,24,0,0,0-9.25-1,3.42,3.42,0,0,0-1.23,1.64l-.12,1.31L172,244a13.26,13.26,0,0,0-2.1.12,5.13,5.13,0,0,0-.92,1.53,1.62,1.62,0,0,1-.77,1.54c-.32.2-1.18.74-3.57-.7a7.09,7.09,0,0,0-6,.47l-11.28,6.71a2.57,2.57,0,0,1-1.2.87,4.27,4.27,0,0,1-3.58-.69,10.39,10.39,0,0,0-3.26-.76,29.62,29.62,0,0,1-11.89-3.92,52.64,52.64,0,0,1-7.31,1.08c-2.42,1.31-17,12.67-18.53,14.48Zm-2.17-4.48a10.08,10.08,0,0,0,1,.67c1.15-1.13,3.63-3.25,9.07-7.48,9.5-7.39,10.37-7.57,11.06-7.42h0c.78,0,4.33-.58,7.28-1.14l.54-.1.47.29a27,27,0,0,0,11.29,3.82,11.76,11.76,0,0,1,4.3,1.13,3,3,0,0,0,1.08.45l.07-.19,12.08-7.18a9.91,9.91,0,0,1,8.72-.5l.5.28a9.11,9.11,0,0,1,1.37-2.11c.25-.38.77-.9,3.13-1a7.52,7.52,0,0,1,2.35-2.64l.31-.22.38,0a25.24,25.24,0,0,1,11.52,1.35l.54.24.21.55a3.28,3.28,0,0,0,3.58,2.24l.15,0h.15c7.16.25,17.2.48,21.16.33a19.17,19.17,0,0,1-.57-4.12l-.05-1.28,1.26-.19c1-.15,1.76-.29,2.27-.41l-1.63-2.33,3.37,1.22a15.36,15.36,0,0,0,.23-2.57,48,48,0,0,1-5.3-13.84c-1.26-7.06-.44-12,2.2-13.18,1.82-.82,4.42.15,5.17.47,1,.45,2.38,1.2,2.76,2.29a87,87,0,0,0,3.54,8.28,12.63,12.63,0,0,1,3.15-.06l.83.07.34.76a46.75,46.75,0,0,0,3.09,4.76,14.06,14.06,0,0,0,6-3.19l.42-.39H239a21.28,21.28,0,0,1,10.38,3l.52-.44a5.15,5.15,0,0,1-.29-.89l-.17-.78.58-.55a6.91,6.91,0,0,0,1-1.27,4,4,0,0,1-1.35-4.15l.09-.38.28-.28c.51-.51,1.43-.68,2.88-.55,1,.09,1.58.08,2.91-1.24a2.75,2.75,0,0,1,2.6-.95,3.13,3.13,0,0,1,2.07,2l.08.21v.23a9.81,9.81,0,0,0,2.79,6.82c1.41.07,4,.43,4.57.51l.37.05.29.22a22.23,22.23,0,0,1,5.8,7.19,8.16,8.16,0,0,1,3.26-3.37,7.94,7.94,0,0,1,2.92-4.54c-1.56-.83-2.15-2.7-2.06-4.54-1-.91-1.31-2.63-1.17-4.11l.07-.71.6-.37a41.35,41.35,0,0,0,8.46-7,3.32,3.32,0,0,1,2.56-1.75h0a3.54,3.54,0,0,1,2.73,1.94l.07.1,2.42-5.59,3.25-.23.37.2a36.43,36.43,0,0,1,4.24,2.76c0-.36,0-.75,0-1.16a11.43,11.43,0,0,1,1.25-4.58,32.44,32.44,0,0,1,1.19-6.87,14.35,14.35,0,0,1,4.09-9.32l.47-.41.62.07c2,.2,5.61-2.37,7.11-5,1.78-3.17,4.09-5.3,6.66-6.16l.41-.15a45.78,45.78,0,0,0-2.68-5.8l-.45-.85.63-.73c6-7,15.22-13.78,17.74-14.67a8,8,0,0,0,2.83-2.31,8.66,8.66,0,0,0-6-3.87,49.87,49.87,0,0,1-7.46-1.2l-.7-.16-.28-.66c-.07-.17-.26-.56-.48-.6-.4-.09-1.19.38-1.59.73l-.24.21-.31.09c-1.8.53-4.27,3.45-5,4.44a28.44,28.44,0,0,1-6.73,5.87c-2.33,1.44-2.58,2.89-2.58,3.41,1.85,3,.7,6.88.26,8.37-.64,2.15-3.49,4.9-5.38,5.64-2.06.81-4.65-.63-5.15-.93l-.45-.26-.17-.49c-.61-1.78-2.6-3.36-3.35-4L296,159c-.17-.15-.69-.62-2-3.75a37.24,37.24,0,0,1-3.09-11c-.65-5-3.26-5.32-3.38-5.33l-.38-.08-14-5.09c-5.61-2.23-12.44-4.32-13.73-3.9-3.06,1.09-12.33-.92-16.43-4.91-2.48-2.42-4.21-2.77-4.73-2.81-1.21.62-3.69,2.22-4,4-.7,3.65-6.24,8.54-10.59,9.34-3.48.65-8.94,3.34-9,3.36-.54.25-3.18,1.37-5,.13a3.45,3.45,0,0,1-1.26-3.41,37.4,37.4,0,0,0-.43-8,13.85,13.85,0,0,0-3.86-.29c-2,.17-3.43,1.72-4.63,3.17-1.49,1.78-5,1.35-6.36,1.12-.92.08-2.07.45-2.21.85a4.88,4.88,0,0,0,.66,3.6,5.47,5.47,0,0,1,1.39,3l.07.57-.34.46a4.83,4.83,0,0,1-5.75,1.37c-2.07-.86-7.5-1.45-12.64-1.39a3.65,3.65,0,0,0-1.12.15,3.46,3.46,0,0,0,.5.86,3.57,3.57,0,0,1,2,2.9,3.22,3.22,0,0,1-1.55,2.58h0a8.24,8.24,0,0,0-1.71,1.68,12.86,12.86,0,0,0-.42,3.28c-.06,1.2-.11,2.34-1.36,2.5a1.45,1.45,0,0,1-1.55-1,15.35,15.35,0,0,0-3.28-.92c-.84-.18-1.64-.35-2.28-.55-2-.63-11.68-5-12.09-5.14l-.18-.1s-4.31-2.72-7.76-4.86a6.45,6.45,0,0,1-3.34-6.57,7.76,7.76,0,0,0,0-.83,13.29,13.29,0,0,0-.7-2.54,23,23,0,0,1-1.13-4.27,36.34,36.34,0,0,0-2.25-6.91l-.09-.22,0-.24c-.1-1.29-.61-5-1.82-6.89-1.78-2.72-5.07-12.1-5.41-14.22a37.17,37.17,0,0,0-1-4.06c-.29-1-.63-2.18-1-3.63-.57-2.12-1.34-2.79-1.63-2.9h0l-.16,0a8.34,8.34,0,0,0-4.2.89,9.56,9.56,0,0,1-6.29.68l-10.23-2.13c-1.62-.28-5.42-.45-6.56.88a12.22,12.22,0,0,1-6,3.53,31.09,31.09,0,0,1-7,1.4,10.46,10.46,0,0,0-6.79,3.08,16.79,16.79,0,0,1-4.51,2.79c-4.69,2.24-13.73,1.13-15,1a12,12,0,0,1-6.57-1.72C50.1,97.38,41,94.57,35.2,92.9c-.61,3.68-1.08,10.63-1.27,15.26v.12c-.21,1.72,1.33,18.67,1.58,20.11s.58,9.54.62,10.46l.06,1.53-1.53-.06c-.31,0-7.53-.28-9.59-.56a.61.61,0,0,0-.19,0,9.12,9.12,0,0,0-.29,1.91c0,.27-.05.54-.08.8a2.77,2.77,0,0,1-1.33,2.23,3.09,3.09,0,0,1-2.45.17l-13.05-.28v2.53c.59.89,2.12,3.22,3.06,4.8,1.31,2.2,1.42,4.47,1.16,7.63a.75.75,0,0,0,.12.59,1.92,1.92,0,0,0,1.13.29,1.92,1.92,0,0,1,1.63,0c1.3.57,2.12,2.47,2,4.73,0,1.21.6,1.56.8,1.64l.21.09a3.21,3.21,0,0,0,1.9.61l0-.05c1.18-1.4,2.92-2.94,4.49-2.36.68.25,1.48.95,1.45,2.83s1.48,3.36,2.58,4.46c.85.85,1.46,1.47,1.46,2.36a48.71,48.71,0,0,1-2,7.36,23.33,23.33,0,0,0,3.94,3.84l.36.29,1,3.61a32.92,32.92,0,0,1,3.89,4.1,52.67,52.67,0,0,0,4,4.27c1.81,1.63,3.59,5.19,5.16,8.33a36.5,36.5,0,0,0,2.46,4.5c2.26,3,3.41,14.86,3.41,17a5.86,5.86,0,0,0,1.51,3.68c3.05,2.74,14.33,5.15,16,5.2.54-.12,1.75-.1,5,2.77l.72.63-.32.9a40.61,40.61,0,0,0-.44,4.51,45.7,45.7,0,0,1,9.42,1c4.38,1,5.24,3.46,6.16,6.08a19.25,19.25,0,0,0,1.55,3.58,9.84,9.84,0,0,0,5.75,4.24A2.7,2.7,0,0,1,98.91,261.62Zm.15.42h0Zm-.23-.5Zm67.29-15.75h0ZM70,239.59l-.22,0Zm148.37-29.52h0ZM172.85,144Z"/></svg>