<svg id="Layer_1" data-name="Layer 1" xmlns="http://www.w3.org/2000/svg" viewBox="0 0 350 350"><defs><style>.cls-1{fill:#999;}.cls-2{fill:#f90;}</style></defs><title>M</title><path class="cls-1" d="M20.27,170.78c1,2.35,2.06,3.23.44,6.17s-2.5,3.68-2.21,5.44,5.44,10.14,5.44,10.14,9.85,0,12.35,4.41c1.47,1.62,3.68,1.32,7.5-1.47s2.06,4.41,4,5.44,3.53,4.7,8.38,7.06,6,4.56,3.68,4.56-11.91,1-11.91,1c9.11,5.73,7.35.29,11.17,6.17s5.88,8.53,2.65,11.32-6,7.06-9.11,4.56c-1.91-1-3.38-.74-2.5,4s5.73,8.23,9.85,6.17,10.14-4,16.17,0c6.17,2.06,7.94,2.52,9.7.6,1.76-5.6,1.32-8.39,7.2-6.92s8.67-2.94,13.67-.74,4.85,3.38,5.44,6.76-.73,12.35-.73,12.35,1.91,1,4.12-1,6.91-4.41,8.82-2.5a8,8,0,0,1,2.65,5.29c.44,2.35,1.62,3.38-1,5.88s-3.23,3.09-6.32,2.65-6-1.91-6.91,1.18-2.94,4.12-2.79,8.67,2.06,3.68,3.09,5.59c.79,1.46,1.23,5.5,2.52,9,.78-2.19-.15-4.92.2-7.71,2.35.66,7.57,2.79,11.1,1.32,2.21.59,13.6-.51,16.91.81s12.24-2.76,16.32-.66,1.87,1,15.44,3.75,28.56-2.32,36.61-3.42,21.72-11.14,21.72-11.14,2.09-5,3.42-5.73,3.2-3.42,8.27-.77c5.29,6,5.62,1.54,9.92-2.54s2.65-4,3.2-8.6,1.32-8,6-9.37,8.71-7.94,10.36-12,1-8.16,1.54-10.14,1.54-3,3.2-6.17a7.62,7.62,0,0,0-1-8.6c-1.87-2.43,1.21-5.73,3.86-10.92,1.87-5,5-1.76,9.59.88,3.89,2.22,9.49,7.71,10.07,10.78l1,0c.95,0,1.87-1.21,3.2-3.2s3.2-2.09,2.76-6.51-.88-2.65-4.52-5.4-4.19-1.54-6.95-6.84.77-7.39,2.76-12,6.28-6,6.62-9.26-1.32-6.84-3.09-9.81-4.85-3.42-7.94-8-2.87-6.73,1.43-10.36,17.2-3,17.86-4,3.09-2.09,6.95-2.09,1.76-1.21,1.87-2.43-1.76-3.2-3-4.63-1-1.32,2.21-1.87,4.08-1,6.17-1.1,3.42-1,6.39-4.08a26.41,26.41,0,0,0,4.41-6.06c.22-.33.77-6.28,2.76-7.28,0,0-12.94,5.18-15.14-8.34-1.62-.74-28.23-1.62-31.17,1.32,2.65,2.21,3.23,6.14,1,8-2.5-.79-3.23-1.9-4.41-5-7.2,1.88-8.82,3.05-8.82,3.05L277.24,96s-3.53,1.18-4.85-4.26c-2.35-.74-16.91-6.32-16.17,2.94a74.87,74.87,0,0,1,0,9.56l-8.35,6.91s-1.76-.29-2.94-2.94c-1.91-1.32-4.26-.88-7.94-4.56-2.79,1.62-4.7,2.94-4.7,2.94S203.59,76.25,202,72c-2.35-5-9.26-11.47-9.26-11.47l-8.09-1.47s-3.38,4.41-6.32.74c-2.06-2.21-7.06-5.15-10.44,3.23,1.47,1.47,3.09,2.06,5.15,3.38,1.47,1.76-.29,1.47,1,3.53s16,30,16,30a33.51,33.51,0,0,0-3.38,6.32c-3.53,3.09-17.49,11.76-22.35,15.14s-17.05,5.59-18.67,6.32-9.7-2.65-8.38-7.64c2.35-4.26,5-12.79,7.14-15s-2.44-3.53-4.06-.88c-3.09,1-2.94.59-5.44-1.62s-5.73-5.15-5.73-5.15-3.68.44-3.68-3.09c0-1.91-4.26-6.76-4.26-6.76l-5-7.5L111.57,78V97.42l1,22.05s1.62,5-4.12,4.85c-2.65,1.32-3.23,0-4.85,2.5C101.57,128,88,128.59,88,128.59A4.75,4.75,0,0,1,83.63,124c-1.47-6.17-3.82-21.61-3.82-21.61l-7.35-.15S71.29,95.8,65.4,93c-4.12-2.06-2.79,1.32-1.32,3.53s4,4.85,1.32,5.88a15.66,15.66,0,0,1-6,.74L54.53,87.72s1.47.15,1-4.41a15,15,0,0,0-5.15-6.91l1.47,41.9a17.42,17.42,0,0,1-5.29,4c-2.65,1-12.05,11-15.58,10.88s-5.44,6-5.44,6l-6-.74-.88,6.17s-2.94,5-6,4.26-5.73,4-5.73,6v13.38S16.89,165.63,20.27,170.78Z"/><path class="cls-2" d="M115.57,296.75,114.22,293a45.64,45.64,0,0,1-1.51-5.53,18.25,18.25,0,0,0-.92-3.31,2.38,2.38,0,0,0-.83-.83c-1.26-.92-2.31-2-2.43-5.39a11.31,11.31,0,0,1,1.73-6.63,11.4,11.4,0,0,0,1.12-2.48c1.06-3.73,4.46-3,6.71-2.53.57.12,1.17.25,1.77.34,2.38.34,2.58.15,5.07-2.2l.08-.07c1.47-1.39,1.36-1.76,1-3.14-.12-.42-.26-.9-.36-1.45a6.68,6.68,0,0,0-2.25-4.55c-.93-.93-4.58.42-6.85,2.53s-4.71,1.8-5.75,1.24l-.87-.47.14-1c.36-2.43,1.19-9.31.74-11.9l-.11-.68c-.44-2.66-.55-3.29-4.5-5-2.09-.92-3.69-.42-5.71.21a13.08,13.08,0,0,1-7.73.6c-3.59-.9-3.72-.4-4.78,3.44-.21.77-.44,1.61-.73,2.53l-.09.3-.21.23c-2.47,2.7-5.21,1.78-11.2-.21l-.33-.16c-4.24-2.79-9.06-2.76-14.76.08a7.25,7.25,0,0,1-6.6-.09,10.1,10.1,0,0,1-5.28-7.09c-.38-2.05-.63-4.55.9-5.67.93-.68,2.17-.62,3.66.19l.22.15c1.25,1,2.34.28,5.21-2.56.67-.66,1.36-1.34,2.08-2,1.93-1.67,1.39-2.9-2.23-8.43l-.68-1c-1.58-2.43-1.8-2.45-2.62-2.51-1.27-.1-3.39-.26-8.12-3.24l-3.45-2.17,4.06-.44c.35,0,7.58-.81,10.94-1a17.33,17.33,0,0,0-3.17-1.9,20.45,20.45,0,0,1-6.61-5.32,9,9,0,0,0-1.83-1.76c-1.39-.75-1.63-2.56-1.85-4.16a14.09,14.09,0,0,0-.28-1.6l-.34.22c-1.73,1.27-6.34,4.63-9.38,1.28l-.18-.25c-1.71-3-8.6-3.69-11.12-3.69h-.79l-.42-.67c-1.24-2-5.31-8.76-5.63-10.65s.34-2.93,1.33-4.58c.29-.49.64-1.07,1-1.77,1-1.81.77-2.28,0-3.82-.15-.3-.31-.63-.47-1-2.82-4.05-11.68-1.84-11.77-1.82l-1.78.47V154.9a9.53,9.53,0,0,1,3.39-6.34A4.71,4.71,0,0,1,13,147.5c1.46.34,3.46-2,4.34-3.37l1-7.26,6.29.77c.83-2.06,2.92-6,6.45-5.9,1.61.08,6.41-4,9.28-6.47s4.55-3.86,5.73-4.32a14.75,14.75,0,0,0,4.37-3.2l-1.54-44,2.29,1.49a16.37,16.37,0,0,1,5.7,7.6l.08.36c.24,2.52,0,4.16-.78,5.12l4.24,13.49a12.66,12.66,0,0,0,4.46-.68.88.88,0,0,0,.3-.16,10.42,10.42,0,0,0-1.54-2.55c-.26-.36-.51-.72-.75-1.07-1.21-1.81-2.38-4.26-1.14-5.67s3.45-.33,4.28.09a14.79,14.79,0,0,1,7.53,9.13L81,101l.18,1.18c0,.15,2.36,15.45,3.8,21.5l0,.19a3.28,3.28,0,0,0,3,3.28c5.95-.26,12.92-.88,14.62-1.47a4.2,4.2,0,0,1,3.25-2.05,5.86,5.86,0,0,0,1.92-.59l.32-.16h.35a3.19,3.19,0,0,0,2.54-.75,2.88,2.88,0,0,0,.19-2.26l-.06-.36-1-22.05V75.85l7.07,3.09,5.18,7.77c1.42,1.62,4.55,5.45,4.55,7.63a1.51,1.51,0,0,0,.42,1.26A2.55,2.55,0,0,0,129,96l.63-.07.48.42s3.23,2.93,5.72,5.13l.87.79c1.18,1.08,1.28,1.17,2.74.69a4.61,4.61,0,0,1,4-1.66,3.12,3.12,0,0,1,2.75,1.83,2.71,2.71,0,0,1-.8,2.9c-1.06,1.1-2.54,4.69-3.84,7.85-1,2.39-2,4.86-3,6.67a3.4,3.4,0,0,0,1.07,3c1.81,2,4.83,2.88,5.48,2.76a28.6,28.6,0,0,1,3.62-1c4.29-1.07,11.46-2.87,14.73-5.15,1.7-1.18,4.54-3,7.55-5,5.33-3.47,11.92-7.76,14.4-9.82a33.19,33.19,0,0,1,2.95-5.57c-5.17-9.82-14.58-27.6-15.57-29.14a3.45,3.45,0,0,1-.65-2.94v0a1.85,1.85,0,0,0-.16-.23c-.59-.37-1.15-.68-1.67-1A15,15,0,0,1,166.87,64l-.66-.66.35-.87c1.52-3.77,3.57-5.91,6.09-6.38,3.3-.61,6,1.92,6.7,2.71l.07.08c.75.94,1.32.93,1.52.93,1.1,0,2.31-1.3,2.57-1.64l.53-.69,9.35,1.7.3.29c.29.27,7.14,6.71,9.57,11.9l0,.1c1.08,2.84,18.12,21.5,29.17,33.21.84-.55,2.17-1.39,3.79-2.32l.94-.55.77.77a12,12,0,0,0,5.24,3.24,9.77,9.77,0,0,1,2.5,1.15l.33.23.16.36a4.33,4.33,0,0,0,1.41,1.87l7.21-6a83.13,83.13,0,0,0,0-8.78,5.8,5.8,0,0,1,2-5.36c3.46-2.71,10-1,15.34.78l.66.22.77.24.19.78a4.61,4.61,0,0,0,1.78,3.06,1.83,1.83,0,0,0,1.25.19l1-.33L285,104.56a52.9,52.9,0,0,1,8-2.6l1.23-.32.45,1.19c.92,2.45,1.44,3.3,2.66,3.85a2.93,2.93,0,0,0,.36-1.47,5.1,5.1,0,0,0-1.87-3.76l-1.19-1,1.1-1.1c.58-.58,2.34-2.34,17.07-2.46,5.69,0,14.32.23,15.68.84l.69.31.12.75c.57,3.5,2,5.9,4.13,7.13,3.87,2.18,9,.15,9.09.13l1.16,2.58c-.33.17-1,1.08-1.78,5.28a3.85,3.85,0,0,1-.43,1.52l-.1.19a27.08,27.08,0,0,1-4.47,6.07c-3,3.06-4.63,4.37-7.34,4.51a15.89,15.89,0,0,0-3,.47c-.76.17-1.72.38-3,.61l-.74.13-.12,0c1.46,1.69,3,3.44,2.81,5.09,0,0,.09.2.15.33a2.29,2.29,0,0,1,0,2.28c-.6.92-1.82,1.11-3.46,1.11-3.94,0-5.57,1.17-5.77,1.46-.61.91-1.8,1-5.33,1.31-3.87.33-10.34.87-12.8,3-3.71,3.14-3.89,4.42-1.17,8.5a17.52,17.52,0,0,0,4.49,4.57,12.33,12.33,0,0,1,3.49,3.55c1.6,2.69,3.67,6.73,3.28,10.68-.22,2.21-1.67,3.62-3.21,5.11a13.91,13.91,0,0,0-3.51,4.57,27.14,27.14,0,0,1-1.9,3.52c-1.58,2.58-2.53,4.15-.9,7.28,1.76,3.37,2.37,3.73,3.86,4.6a24.33,24.33,0,0,1,2.68,1.76,13.73,13.73,0,0,0,2.4,1.47c1.93,1,2.36,1.75,2.67,4.92.36,3.61-.66,5-2,6.33a7.44,7.44,0,0,0-1,1.1c-1.48,2.23-2.66,3.8-4.35,3.83-.17,0-.54,0-1,0l-1.14,0-.21-1.12c-.44-2.33-5.44-7.57-9.38-9.82-.81-.46-1.57-.94-2.28-1.39-1.67-1-3.39-2.13-4.15-1.87-.37.13-.77.71-1.13,1.65l-.06.14c-.7,1.37-1.43,2.62-2.08,3.72-1.74,3-2.69,4.69-1.92,5.68A9,9,0,0,1,281,220.82c-.66,1.28-1.23,2.22-1.68,3a11.28,11.28,0,0,0-1.41,2.92,13.55,13.55,0,0,0-.24,2.54,22.57,22.57,0,0,1-1.36,7.76c-1.53,3.77-5.85,11.3-11.29,12.85-3.53,1-4.35,3.24-4.94,8.18a18.61,18.61,0,0,0-.11,2.74c0,2.52-.22,3.6-3.51,6.72a26.36,26.36,0,0,0-2.42,2.72c-1.32,1.64-2.45,3.06-4.27,3.1-1.54.06-3-.92-5.08-3.17-3.31-1.65-4.66-.63-5.85.28a8.52,8.52,0,0,1-.82.58c-.51.36-1.84,2.73-2.83,5.06l-.15.36-.31.23c-.57.42-14.06,10.26-22.37,11.4-1.95.27-4.31.77-7,1.36-8.25,1.76-19.54,4.18-30,2-4.62-.94-7.39-1.43-9.22-1.75-3.63-.64-3.76-.68-6.5-2.08-1.89-1-5.41-.29-8.52.3s-5.88,1.12-7.76.37c-1.71-.68-6.71-.61-10.36-.55a44.38,44.38,0,0,1-5.9-.11c-3.2,1.1-7.1,0-9.88-.89,0,.52.05,1,.09,1.57a11.41,11.41,0,0,1-.3,4.72Zm41.37-12.46a8.25,8.25,0,0,1,3.79.77c2.5,1.28,2.5,1.28,5.78,1.86,1.85.33,4.64.82,9.29,1.76,9.9,2,20.87-.33,28.87-2,2.79-.6,5.21-1.11,7.26-1.39,7-1,18.71-9.18,20.76-10.65.77-1.78,2.4-5.19,3.85-6a5.86,5.86,0,0,0,.54-.39c1.41-1.07,4-3.06,9.1-.42l.23.12.17.19c2,2.21,2.79,2.42,3.08,2.43.5,0,1.3-1,2.13-2a28.61,28.61,0,0,1,2.68-3c2.67-2.53,2.66-2.93,2.63-4.62a21.18,21.18,0,0,1,.13-3.12c.58-4.86,1.5-9,7-10.57,4-1.15,7.93-7.47,9.44-11.19a19.88,19.88,0,0,0,1.15-6.81,14.92,14.92,0,0,1,.34-3.18,13.87,13.87,0,0,1,1.71-3.61c.46-.77,1-1.63,1.6-2.84a6.2,6.2,0,0,0-.86-7.08c-2-2.56-.26-5.47,1.72-8.85.62-1,1.31-2.24,2-3.51.69-1.78,1.62-2.84,2.85-3.26,2-.68,4.13.63,6.56,2.16.68.43,1.41.89,2.18,1.33,3.43,2,8.83,6.86,10.39,10.57a14.4,14.4,0,0,0,2-2.52,9.88,9.88,0,0,1,1.3-1.52c.92-.93,1.48-1.49,1.22-4.05-.22-2.21-.22-2.21-1.12-2.66a16.54,16.54,0,0,1-2.85-1.75,21.6,21.6,0,0,0-2.4-1.57c-1.9-1.11-2.9-1.81-4.95-5.74-2.37-4.56-.66-7.36,1-10.07a24.6,24.6,0,0,0,1.72-3.16,16.67,16.67,0,0,1,4.14-5.49c1.39-1.35,2.25-2.23,2.36-3.36.31-3.12-1.5-6.6-2.9-8.95a9.84,9.84,0,0,0-2.78-2.74,20.43,20.43,0,0,1-5.12-5.24c-3.53-5.29-3.13-8.15,1.7-12.23,3.15-2.66,9.65-3.21,14.39-3.61,1.29-.11,2.86-.24,3.45-.38,1.28-1.47,4.3-2.4,7.88-2.4h.6a2.83,2.83,0,0,1-.14-1.12c0-.57-1.48-2.22-2.16-3l-.48-.57c-.63-.75-1.29-1.52-.92-2.53s1.34-1.21,3.23-1.53l.73-.12c1.25-.22,2.13-.41,2.9-.59a18.53,18.53,0,0,1,3.44-.54c1.53-.08,2.53-.62,5.45-3.65a24.36,24.36,0,0,0,4-5.46l.11-.2c0-.15.07-.38.13-.66a29.41,29.41,0,0,1,.9-3.81,12.57,12.57,0,0,1-8-1.2c-2.74-1.55-4.54-4.31-5.36-8.21-4.24-.65-22.3-.83-27.62.59a7.66,7.66,0,0,1,1.48,4.42,5.39,5.39,0,0,1-1.86,4.24l-.6.5-.74-.24c-2.75-.87-3.81-2.22-4.84-4.68-5.63,1.54-7.1,2.48-7.16,2.52l-1.15.76-.82-1.11-6.85-9.73a4.64,4.64,0,0,1-2.4-.58,6.66,6.66,0,0,1-2.95-4.1c-6.62-2.22-10.88-2.63-12.68-1.23-.27.21-1.08.85-.92,3a76,76,0,0,1,0,9.8l-.06.58-9.3,7.7-.64-.11c-.25,0-2.36-.47-3.81-3.36a9.67,9.67,0,0,0-1.53-.62,14.53,14.53,0,0,1-5.51-3.16c-2.21,1.32-3.68,2.33-3.7,2.34l-1,.69-.84-.88c-2.94-3.11-28.67-30.36-30.55-35-2-4.12-7.31-9.44-8.63-10.71l-6.88-1.25a6.32,6.32,0,0,1-4.2,2.08h0a4.68,4.68,0,0,1-3.68-1.95c-1-1.07-2.6-2.1-4.07-1.82-1.32.24-2.55,1.53-3.59,3.75a17.3,17.3,0,0,0,2.2,1.38c.6.34,1.28.72,2,1.19l.18.12.14.17a3,3,0,0,1,.86,2.89c0,.05,0,.14,0,.16a1.71,1.71,0,0,0,.3.62c1.34,2.09,15.48,29,16.08,30.1l.4.75-.48.7a32.38,32.38,0,0,0-3.21,6l-.12.37-.29.25c-2.38,2.08-9.08,6.45-15,10.29-3,1.95-5.81,3.78-7.47,4.94-3.7,2.58-11.19,4.45-15.67,5.57-1.42.36-2.89.72-3.23.88-1.79.82-5.52-.71-7.74-2.59s-3.23-4.33-2.6-6.71l.13-.32c.93-1.69,2-4.16,2.94-6.56,1.51-3.67,2.95-7.14,4.35-8.66a1.77,1.77,0,0,0-.58,0,1.65,1.65,0,0,0-1.17.76l-.27.44-.49.16c-3.15,1.05-4,.72-6-1.15l-.83-.75c-2-1.73-4.36-3.9-5.32-4.77a5,5,0,0,1-3.19-1.14,4.32,4.32,0,0,1-1.38-3.38c0-.76-1.86-3.49-3.91-5.83l-.12-.15-4.77-7.15-2.34-1V97.42l1,21.82a5.55,5.55,0,0,1-.67,4.61,5.36,5.36,0,0,1-4.54,1.89,8.54,8.54,0,0,1-2.42.7c-.75.12-.91.15-1.56,1.15l-.19.29-.3.17c-2.19,1.25-13,1.81-16.22,1.95H88a6.12,6.12,0,0,1-5.76-5.73C81,119,79.17,107.54,78.59,103.81l-7.32-.15-.21-1.14c0-.05-1.14-5.8-6.27-8.23l-.47-.22a10.78,10.78,0,0,0,.93,1.68c.22.32.45.65.69,1,1.19,1.66,2.42,3.38,1.92,5.07a3,3,0,0,1-2,1.93,17.06,17.06,0,0,1-6.66.83l-.94-.08L52.53,86.1l1.55.15a7.83,7.83,0,0,0,.08-2.62,14.41,14.41,0,0,0-2.21-3.82l1.37,39-.38.43a18.72,18.72,0,0,1-5.83,4.34,34.68,34.68,0,0,0-4.92,3.83c-5,4.25-8.74,7.23-11.23,7.14-1.81-.08-3.51,3.36-4,5l-.35,1.13L20.75,140,20,145.09l-.14.24c-.35.6-3.59,5.87-7.58,4.92a2,2,0,0,0-1.67.53,6.86,6.86,0,0,0-2.32,4.12v11.64c3.28-.55,10.16-1.08,13.15,3.46l.11.21c.16.37.32.7.47,1,.83,1.71,1.62,3.32-.09,6.42-.41.74-.77,1.35-1.08,1.87-.89,1.49-1.1,1.87-1,2.66s2.57,5.22,4.85,9c2.61.1,10.13.75,12.69,5,.45.46,1.54,1.14,5.52-1.76.45-.33,1.81-1.32,3.19-.73s1.69,2.35,1.91,4a7.74,7.74,0,0,0,.45,2.08A10.75,10.75,0,0,1,51,202a17.74,17.74,0,0,0,5.73,4.66c2.83,1.37,6.09,3.46,5.59,5.63-.11.49-.58,1.62-2.54,1.62-1.19,0-4.39.28-7.15.55a8.36,8.36,0,0,0,2.83.67c1.91.15,2.72.63,4.78,3.79l.67,1c3.42,5.24,5.68,8.7,1.71,12.13-.65.56-1.31,1.21-1.94,1.84-2.46,2.43-5.51,5.45-8.88,2.84a3.22,3.22,0,0,0-.52-.22,7.86,7.86,0,0,0,.19,2.73,7.31,7.31,0,0,0,3.75,5.08,4.45,4.45,0,0,0,4.07.09c6.51-3.26,12.38-3.26,17.42,0,5.59,1.86,6.82,2.07,7.83,1.14.23-.76.42-1.46.6-2.11,1.07-3.92,1.92-7,8.2-5.44a10.44,10.44,0,0,0,6.2-.56c2.17-.68,4.63-1.45,7.7-.1,5.14,2.27,5.6,3.83,6.15,7.16l.11.66c.48,2.76-.19,8.68-.54,11.4a3.21,3.21,0,0,0,1.56-.87c2.39-2.23,8-5.25,10.79-2.46a9.33,9.33,0,0,1,3,6c.08.44.2.83.3,1.19.57,2,.78,3.59-1.75,6l-.08.07c-2.68,2.53-3.68,3.48-7.42,2.95-.68-.1-1.33-.24-2-.37-2.93-.63-3.12-.41-3.39.53a14.09,14.09,0,0,1-1.37,3.08,8.56,8.56,0,0,0-1.37,5.16c.08,2.32.57,2.69,1.26,3.19a5,5,0,0,1,1.66,1.77,5.15,5.15,0,0,1,.23.5l0-.32,1.58.44c.38.11.82.25,1.32.41,2.37.75,6.34,2,8.85,1l.44-.18.47.12a39.39,39.39,0,0,0,5.61.11c4.32-.06,9.22-.14,11.46.75,1.11.44,3.8-.07,6.17-.52A36.06,36.06,0,0,1,156.93,284.3ZM314.14,136.14h0Zm25-22.27,0,0ZM172.24,67.76Z"/></svg>