<svg id="Layer_2" data-name="Layer 2" xmlns="http://www.w3.org/2000/svg" viewBox="0 0 350 350"><defs><style>.cls-1{fill:#999;}.cls-2{fill:#f90;}</style></defs><title>M_</title><path class="cls-1" d="M335.13,172.28c-1.66-1.21-4.33-3.22-4.78-3.47s-.25-1.3-.25-1.3a3.54,3.54,0,0,0-1.11,0c-.5.1-.45-1.56-.45-1.56a8.12,8.12,0,0,1-2.51-1,2.29,2.29,0,0,1-.65-1.41s-1.91-.4-2.77-.45-3.62.25-3.62.25v-4L321.6,158l-.5-1.61,1.81-4.22L327,149.5l7.19-1.36,1.51-2.36s-.65-2.67-1.81-3.72S330.1,135,330.1,135a35.52,35.52,0,0,0-2.92-3c-1.56-1.41-5.88-3.67-6-4.38a31.23,31.23,0,0,0-2.21-4.73,4.19,4.19,0,0,1-2.92-.2l-1.16,1.31-.65-.15-.6.2-.65-.45-1.46.8-1-1.26,1.06-1.86-1.16-.7,2-2.36-.6-.45L313,116l1.51,1.06v1.06h.75s1.46-.4,1.71-1,.4-1,2.46-1.41c-1-.75-2-.3-2.67-.3s-1.31-1.26-1.31-1.26l-1.21.55c-1.76-1-1.81.4-2.21.15s-2,.15-2,.15l-1.51-.25.2,1.41,1,.35v1.66a10.49,10.49,0,0,0-2.77-.5c0,1.46-.65,1.41-1.26,1.06s-.25-.8-.7-1,0-2.36,0-2.36a6.62,6.62,0,0,1-5.68-1.81c-2.72-2.51-2.67-4.27-2.62-6.39s-.7-3.52-2.11-5.28-2.72-1.31-4.38-1.21c0,1.51-.55,1.16-2,1.16s-1.81-2.06-1.81-2.06a20.79,20.79,0,0,1-2.82.7,2.21,2.21,0,0,1-2.36-1.16l-3-.86.1,3.32L277,104.18l-4.78-1.11a2.2,2.2,0,0,1-1.31,1.06c-1,.35-3.92-.75-4.07-.75s-3.62-1.81-3.62-1.81h-1.91a27.54,27.54,0,0,1-2.67-3.12,1.46,1.46,0,0,1,1.51-.8l.35-3.22,2.36-1.16,1,2s-.65.25-1.16.4-.25,1-.25,1l.7.91h2.21c0,1.31.4,1.76.91,1.16s1.71.35,1.71.35l2.26-3.52a55.34,55.34,0,0,0-5.88-2.06c-.7,0-.91-1.26-.5-2s2.21,1.11,2.87,1.21.3-.5-.25-1.16.55-1.76.35-1.76a1.72,1.72,0,0,1-1.41-.6c-.45-.6-.75-.4-1.61-.6s-.5-.55,1-1.66S266,85.58,266,82.46,267.39,79,267.39,79l5.13-1.06.2-1s2.72-.15,2.92-.2,3.77-3.17,3.77-3.17l8,2.16s2.92-1.76,4.53-2.62a10.35,10.35,0,0,1,4.48-.65l-.65-3.17,1.81-4.73c-1.76-5.93-1.11-7.34-1.11-7.34a3,3,0,0,1,2.06-.75c0-3.17-.45-4-.45-4l-.15-3.77,1.51-.8a12.8,12.8,0,0,0,2.41.45c1.81-.4-1.26-1.26-1.26-1.26l-.4-3.82s-1.11-.6-1.46-.75-3.27-.75-4.12-.91.25-1.46.25-1.46-.8-.7-1.26-1.21-2.72-1.21-3.27-1.51.3-1.81.3-1.81l1.46-1.16.4-1.21h1.11l1.66.45a2.3,2.3,0,0,0,.85-.91c.3-.6,2.46-.5,2.46-.5l1.36-.5v-.75l-2.87.05-1,.75-.6.8c-.3.4-1.06,0-1.61-.45a4.65,4.65,0,0,1-.86-.91l-7.8-4-3-.45s-4.32-.5-5.13-.7-.55.7-1.31,1,0-2.82,0-2.82l-2.41-3.72s-3.52-1.36-4.12-2,1.46-2.92,1.46-2.92l-1.21-1.46-.4.5a8.56,8.56,0,0,1-1.16-.3,20.53,20.53,0,0,1-3.27-2.26l.91-1.36-.91-3.17-3.42-.5-.91,3.72L256,14.26l-6.74,1.31-.6,3.52s-1.81,1.61-7,.2a41.88,41.88,0,0,0-9.76-1.41s-3.92-7.34-5.33-8.15c-4.53,3.32-8.85,4-11.47,1-3,2.31-3.72,3.32-8.25,3.32-.4,3.92,0,7-.91,7.44s-8-.3-10.66-1.21c-3.32,0-11.27,1-11.27,1a17.53,17.53,0,0,0,1.31-4.93c0-1.81-.1-5.23-2.72-5.73.1-3.82-7.95-3.32-8.85-3.72a50.11,50.11,0,0,1,2.51,5.33l-4.32,1.41L173,15.17s-9.35.91-7.64,6.94l-11,1.66L119.23,30l-.75,11.62s-6.34,11.62-8,16.75-1.71,17.85-1.71,17.85l-.91,19.92L96.4,110.22l6.74,3.32,3.92,5.08,1.06,2.26,2.72,3.12,1.56,3.47,3,4-10.81,7.74,1.61,2.62s-2,1.51-.5,2,.8,2.51.8,2.51l-1.51.4s2.62,2.31,2.92,3.42a6.5,6.5,0,0,1-.2,2.82l-1.21,3.22s-6.34,1-7,1.81l-2.92,2.31s-2.21,1.11-2.82,2.43a2.11,2.11,0,0,0,.8,2.7,17.93,17.93,0,0,0,2.82.3s2.72.3,3.12.3,2,2.11,2,2.11l3,.5,3.22,3.72,2.41,2.21,1.61,4.12a16.51,16.51,0,0,1,.3,4.43c-.3,1.21-.8,1.51-3.92,1.51s-3.12,2.21-2.82,2.92.7,1.91-.1,4.53-2.72-1.31-2.72-1.31a10.1,10.1,0,0,1-3.12,1.81,5.8,5.8,0,0,0-2.92,3.62s-3.32-1.81-4.43-1.71-4.12,2.21-5.63,2.41-4.06-1.41-4.06-1.41l-2.48,3,.8,1.81c.8,1.81,2.72,1.31,4.93,3.22s-2.41,3.62-3.92,5.23.4,1.61.67,2.61-.67,2.21,0,4.53.24,4.12,1,4.83,3.92,2.11,4.73,4.12a20.31,20.31,0,0,0,3,4.53l-1.91,2a35.42,35.42,0,0,1-5.63-.5c-1.21-.4-4.83-.3-7-1.21S71,226.39,71,226.39s-2.82,0-3.22-.1-4.33-1.81-4.33-1.81-.8-.2-.2-2.31-.5-1.61-1.11-2.51-2-1.81-2.92-3.82-3.12-1.51-3.52-1.51-1-.1-1.81-1.11-.91-2.11-1-4-.1-2-1-3-.91-1.31-1-2.92a5.4,5.4,0,0,0-1.11-2.82l-.7-1.91s-4.43.1-4.93-.5a15.53,15.53,0,0,1-3.32-3.82c-1.31-2.31-3.62-4.22-5.23-6S31,183.74,31,183.74L29.41,190l-1.81-.3c-1.81-.3-3.22,1.51-3.22,1.51,1,1.51,2.41,1.41,2.51,2.41s-.91,3.42,0,4,2.62,1.11,2.82,2a20.47,20.47,0,0,0,.91,3.92,4,4,0,0,1,.91,2.62c0,1.41.1,2.92.7,3.22s2.21-.4,3.22,1,2.21,3.42,3,3.32a5.81,5.81,0,0,0,1.81-.7s2.21,3,3.22,2.92,1.51,4.63,1.61,7.14.4,2.62,0,3.12-2.21,4-2.21,4l1,3-.8,3,.2,1.71s-6.94-.2-7.95.7-3,3.82-3,4.53a21.42,21.42,0,0,1-.1,3.52c-.2,1-.8,4.22-2.21,5.13s-7.54,4.93-9.05,5.33-4.33-.7-3.72,1,2,5.63,2.82,6.64a6.54,6.54,0,0,1,1,2.82l.34.06c-.34,2.59.5,5.29,1.11,8.14.92,4.26.07,6.83-2.52,10.27-1.23,1.63-2.57,3.32-2.64,5.46-.13,3.71,3.65,5.3.51,9.38-1.52,2-3.51,2.87-4.4,5.39-1.06,3-1.45,11,2.31,12.6.62.26,1.36,0,2,.19,4.45,1.13,4.73,3.59,4.17,7.07-.48,3-1.64,6-.82,9.07,1.19,4.49,5.67,7.18,10.07,7.69,4.79.55,13.67-.71,17-4.61a9.67,9.67,0,0,0,1.49-3.17,68.49,68.49,0,0,0,9.84-.83c.49-.08,1-.18,1.45-.27l.23,0c.31,0,.61-.11.9-.19q1.38-.28,2.76-.62,1.76-.44,3.5-1a5,5,0,0,0,1.2-.34c.18,0,.36.05.54.09a1.24,1.24,0,0,0,0,.23c1.3,4,4.58,4.55,8,3.83a6.07,6.07,0,0,0,2.16.14c8.07-.94,7.58-13.37,15.11-14.23a1.54,1.54,0,0,0,1.3-1,19.85,19.85,0,0,1,2.09-.09l-2-1.06v-4.45h2l2-3.7,1.51-1.89c.83-1.66,3.09-.68,3.09-.68l.83-1.43L110,308s.3-.6,2.56-.68,2.41,1.28,2.41,1.28h1.06c0-2.19,1.43-.23,2.26.38s3-1.36,4.9-1.36,2,2.11,2,2.11,2.79-.6,2.56-1.66,2-2.19,2-3.24a2.44,2.44,0,0,1,1.51-2.11c.68-.3-.45-1.66.68-3.39a8.44,8.44,0,0,0,1-4.38H131.3l-.6-4.3a12.45,12.45,0,0,0,2.41-3.62c.38-1.43,1.51-6,1.51-6s.6-1.89,1.58-2.26.23-2.87-.15-4.07a18.92,18.92,0,0,1-.48-3.57,1.56,1.56,0,0,1,1-.86,9.41,9.41,0,0,0,2.26-1.41l2.92-.55.75.8,4.12.25,2.77-.4a14.05,14.05,0,0,1-.3-2.11,1.75,1.75,0,0,1,1-1.76V262.3h3.22a39.1,39.1,0,0,0,5.13-2.77l12.67.1.2-.55,9.25-.25-.05.75c-2.51,2-2.62,3.62-2.62,3.62l-.86.5,2.21,5.48s.3.3-.1,1.21.4,1.56,1.06,3c1.56,0,1.81,1.81,1.81,1.81h3.12a4.18,4.18,0,0,1,2.46.91,8.36,8.36,0,0,1,3.52,1c3.17,1.91,3.92,1,5.58.65s1.46.86,2.31.6.6-1.41.3-2a6.68,6.68,0,0,1,.15-2.62h-2.21l-.05-.91a19.4,19.4,0,0,1-2.51-.6c-.35-.2.91-2.77,1.26-3.27s1.56-.6,1.56-.6v-3.47h3.62c3.07,1.61,8.55,1.36,8.55,1.36s3.42,1,4.93.7a4,4,0,0,0,3.32,1.21,11.28,11.28,0,0,0,1.46.55,22.72,22.72,0,0,0,3.12-1.66c1.26-.75,2.77-2.77,2.92-2.51s4.48,0,4.48,0l-3-4.83s2.67-3,3.07-4.17,1.41-2.72,1.41-4.12,2-5.53,3.22-7.85c-2.56-.1-3-1.76-3-3.57s1.51-2.92,1.51-3.47a5.26,5.26,0,0,1,1.71-3c1.11-1,3.32-.91,5.83-2s6.59-3,6.59-3a7.83,7.83,0,0,1,1.16.25c.7.2.7-1.31,1.26-1.31a20,20,0,0,0,2.67-.6l1.21,1.51.35-2a2.24,2.24,0,0,1,1.26-.65c.91-.2,4.93-.85,4.93-.85l-.35-1,2.74-1.23-.38-.38,3-1v-.91l1.36-.85s1.31-3.47,1.66-4.27-.35-2.61-.35-2.61a37.5,37.5,0,0,0,1.06-4.88c.3-2.31-.5-3.07-.5-3.07l.6-2.61,3.82-3.47s2-4.73,3-5.73.4-2.56.45-3.47,2-2.56,2-2.82.5-3.17.5-3.17l6.14,1s-.05-1.26,0-1.71-1.41-1.86-1.41-2.77c.5.2,1.81-.7,1.81-.7s1.81,1.36,2.11.91,2.06-.55,2.06-.55l.45-1a8.11,8.11,0,0,0,1-.3c.35-.15.15-1,.15-1.66s2.46.15,2.46.15l.5.86s5.53,1.51,7.8,2.21c0-1.61,1-2.36,1.51-3.82s1.51-6.24,1.51-6.24l5.73,1.06,1.81,3.67h1.76l.3.8.8.65.15,2.26.5.4.55,2.62s2.46-.05,3,.55,1.76-.15,2.06.7,1.16.7,1.41.75,3.27.86,3.27.86l.25-1.26,1.51-.65-.05-1.91,1.06-.85,1.31-2.51.91-.3c.91-.3,1.16-1.11,1.61-1.68a5.93,5.93,0,0,1,1.66-1.14s2.06,1.76,2.72.91S336.79,173.49,335.13,172.28Z"/><path class="cls-2" d="M33.53,344.5a22.3,22.3,0,0,1-2.52-.13c-4.6-.53-9.87-3.43-11.28-8.73-.7-2.62-.16-5.08.36-7.47.16-.73.32-1.46.44-2.19.54-3.32.15-4.64-3.12-5.47a2.82,2.82,0,0,0-.5,0,4.09,4.09,0,0,1-1.68-.24c-4.95-2.05-4.21-11.24-3.1-14.38a10.06,10.06,0,0,1,3-4.1,14.24,14.24,0,0,0,1.61-1.69c1.43-1.86,1-2.75.27-4.38a8.87,8.87,0,0,1-1.07-4.19c.09-2.51,1.53-4.42,2.8-6.1l.12-.16c2.53-3.35,3.06-5.48,2.27-9.11-.11-.5-.22-1-.34-1.49a25.32,25.32,0,0,1-.88-5.79l-.14,0-.12-1a5.1,5.1,0,0,0-.7-2.09c-.46-.58-1.23-1.9-3-7.05a2.08,2.08,0,0,1,.22-2.05c.72-.95,2-.86,3-.79a5.73,5.73,0,0,0,1.43,0c.53-.14,2.37-1.09,8.16-4.84l.49-.32c.26-.17.93-.9,1.57-4.12a15.22,15.22,0,0,0,.1-2.73c0-.24,0-.45,0-.61,0-1.46,2.62-4.8,3.49-5.58s3.29-1.1,7.3-1.1l0-.37.77-2.87-1.06-3.18.27-.53c.64-1.25,1.74-3.35,2.25-4.1l0-.24c0-.43-.12-1.08-.16-2.1a24.58,24.58,0,0,0-.8-5.85c-.63-.18-1.61-.76-3-2.49a5.11,5.11,0,0,1-1.22.33c-1.53.19-2.6-1.37-3.84-3.17l-.51-.73c-.22-.31-.45-.34-1.2-.33a3,3,0,0,1-1.5-.23c-1.37-.69-1.49-2.67-1.49-4.49a2.43,2.43,0,0,0-.55-1.66l-.12-.17a10.15,10.15,0,0,1-.93-3.43c-.06-.33-.11-.62-.15-.85a6.65,6.65,0,0,0-1.11-.64,10.6,10.6,0,0,1-1.13-.62c-1.37-.92-1-2.72-.78-4,0-.25.11-.6.14-.83l-.23-.14a5.75,5.75,0,0,1-2-1.82l-.57-.85.63-.81a5.15,5.15,0,0,1,4.57-2l.53.09,1.87-7.24L32,182.69c.12.11,3,2.69,4.64,4.54.47.53,1,1.06,1.55,1.62A23.25,23.25,0,0,1,42,193.51a10.47,10.47,0,0,0,2.42,2.88c.21.18.39.35.56.52a21.59,21.59,0,0,0,4,.21l1,0,1,2.66a6.76,6.76,0,0,1,1.26,3.42v.1c.08,1.34.08,1.34.64,2,1.19,1.33,1.26,1.81,1.37,3.85.1,1.82.19,2.61.7,3.25.17.21.49.57.7.57h.08c2.33-.23,3.93.56,4.73,2.35a8.34,8.34,0,0,0,1.8,2.46,8.54,8.54,0,0,1,1,1.16,1.49,1.49,0,0,0,.21.14c1.27.76,1.59,1.79,1.08,3.55a4.23,4.23,0,0,0-.16.81c1.58.69,3.24,1.39,3.66,1.54s1.76.07,2.89.07h.37l.32.18s4.28,2.38,6.38,3.25a17.21,17.21,0,0,0,4.34.78,13.15,13.15,0,0,1,2.61.4,28.06,28.06,0,0,0,4.59.41l.61-.65a18,18,0,0,1-2.44-3.93c-.42-1-2.11-2.1-3.11-2.74a10.19,10.19,0,0,1-1.23-.85,4.19,4.19,0,0,1-1.08-3.05,12.37,12.37,0,0,0-.39-2.45,7.69,7.69,0,0,1-.1-3.85,6.13,6.13,0,0,0,.1-.62l-.17-.13A2.45,2.45,0,0,1,80.63,210a2.9,2.9,0,0,1,1-2.15,12.69,12.69,0,0,1,2.13-1.65,11,11,0,0,0,1.93-1.51l0,0a7.33,7.33,0,0,0-2.35-1.31,4.57,4.57,0,0,1-2.95-2.41l-1.16-2.61L83,193.65l1.06.66a7.2,7.2,0,0,0,3.12,1.2,12.71,12.71,0,0,0,2.67-1.18,9.34,9.34,0,0,1,3-1.24,9.25,9.25,0,0,1,3.84,1.16,6.36,6.36,0,0,1,3.1-3,9.27,9.27,0,0,0,2.66-1.51l1.4-1.33.86,1.72c.1.2.21.4.33.6a3.86,3.86,0,0,0-.09-2.64,3.52,3.52,0,0,1,.33-3.19,4.19,4.19,0,0,1,3.79-1.7,7.8,7.8,0,0,0,2.49-.2,2.42,2.42,0,0,1,.06-.24,14.23,14.23,0,0,0-.3-3.69l-1.44-3.69-2.29-2.11L104.71,170l-3.07-.51-.34-.45a17.87,17.87,0,0,0-1.34-1.58c-.77-.06-2.16-.21-2.82-.28a12.28,12.28,0,0,1-3.19-.39A3.21,3.21,0,0,1,92.33,165a3.55,3.55,0,0,1,.07-2.81,7.88,7.88,0,0,1,3.33-3l2.73-2.16c.37-.37,1.5-1.11,7-2l.9-2.4a5,5,0,0,0,.18-2,13.09,13.09,0,0,0-2.49-2.73L102,146l3.17-.84a.32.32,0,0,0,0-.09,2,2,0,0,1-1.48-1.57,2.52,2.52,0,0,1,.65-2l-1.71-2.77,10.71-7.67L111.1,128l-1.47-3.28-2.71-3.11-1.07-2.3-3.63-4.69-8-4,12.29-15.15.88-19.45c0-.47.07-12.95,1.78-18.22,1.56-4.81,7-14.87,8-16.71l.81-12.42,36.25-6.38,9.64-1.45a5.31,5.31,0,0,1,.92-3.24c1.37-2,3.95-3,5.86-3.49l-.93-1.26,4.72-1.54c-.37-.81-1-2-1.87-3.82L170.66,4l3.59,1.6c.2,0,.73.08,1.16.11,2.57.2,7.66.59,8.5,3.88,2.83,1.33,2.83,5.37,2.83,6.79a12,12,0,0,1-.62,3.25c2.64-.3,6.89-.74,9.16-.74h.24l.23.08a39.11,39.11,0,0,0,9.33,1.25c.08-.54.12-1.53.14-2.36,0-1.1.08-2.47.23-3.92l.13-1.27h1.28c3.53,0,4.26-.58,6.43-2.28l1-.74,1.06-.81.87,1c2.77,3.19,7.61.21,9.56-1.22l.74-.54.8.46c1.41.81,3.9,5.07,5.49,8A44.31,44.31,0,0,1,242,17.92c3.06.82,4.71.5,5.39.25l.65-3.81,7.36-1.43,3.67-2.9,1.1-4.5,5.6.82L267.12,11l-.54.81a12.83,12.83,0,0,0,1.8,1.22l.18.05.92-1.15,3.1,3.75-.83.91a9.69,9.69,0,0,0-1,1.29c.72.37,2,.95,3.11,1.36l.43.17,3,4.62-.15.6,0,.09.3.06c.49.12,3.19.47,4.95.67l3.24.49L294,30.22l.21.31h0a3.41,3.41,0,0,0,.57.59l.06.05.24-.32,1.53-1.15,4.77-.08V32.8l-2.55.95h-.29a6.68,6.68,0,0,0-1.34.07A3.71,3.71,0,0,1,295.93,35l-.5.27-1.93-.53-.2.61-1.51,1.19.07,0A7.55,7.55,0,0,1,294.64,38c.32.36.93.91,1.14,1.09l1,.92-.44.52a26.4,26.4,0,0,1,2.89.69c.39.17,1.38.71,1.58.81l.65.36.38,3.64c1.07.4,2,1,1.93,2,0,.49-.25,1.35-1.68,1.67l-.31,0a10.82,10.82,0,0,1-2.24-.36l-.23.13.11,2.64a13.87,13.87,0,0,1,.46,4.27v1.63l-1.62-.23a1.07,1.07,0,0,0-.56.17,20.82,20.82,0,0,0,1.16,6.12l.14.46-1.83,4.79.95,4.59-1.86-.13a8.66,8.66,0,0,0-3.71.49c-1.56.83-4.43,2.56-4.46,2.58l-.52.31-7.85-2.12C276.5,78,276.35,78,276,78.1a14.44,14.44,0,0,1-2.08.18l-.17.85-5.85,1.21a3.34,3.34,0,0,0-.47,2.12c0,.61,0,1.12,0,1.53.06,1.8,0,2.72-1.35,3.85a2.85,2.85,0,0,1,.54.55.64.64,0,0,0,.27,0h.83l.43.73a1.61,1.61,0,0,1-.15,1.7l-.1.17a2.16,2.16,0,0,1,.5,2.29l2.44.95,1.6.64-4,6.28-1.23-1-.19-.13a1.75,1.75,0,0,1-1.61.25A1.89,1.89,0,0,1,264.19,99h-1.67l-.92-1.18-.17,1.54-.24-.05.77.83h1.65l.31.16c1.37.72,2.95,1.52,3.36,1.7l.46.14a8.27,8.27,0,0,0,2.81.63.87.87,0,0,0,.45-.33l.38-1.29,1.21.53,3.68.85.51-1-.15-4.9,5.49,1.56.28.57a.75.75,0,0,0,.83.38,19.65,19.65,0,0,0,2.61-.65l1.58-.54.28,1.65a1.72,1.72,0,0,0,.42.89h.58V99.38L290,99.3l.67-.06a4.81,4.81,0,0,1,4.9,1.79,8.89,8.89,0,0,1,2.42,6.2c0,2-.08,3.24,2.16,5.31a5.23,5.23,0,0,0,4.41,1.47l2.12-.45-.42,2.12c0,.18-.07.37-.1.56h1.06L306.8,113l3.14.52a6.6,6.6,0,0,1,1.83-.2,2.51,2.51,0,0,1,2.45-.22l1.87-.86.6,1.26a2.61,2.61,0,0,0,.27.43l.13,0a3.86,3.86,0,0,1,3.14.63l2.47,1.85-3,.66a4.1,4.1,0,0,0-1.42.45.71.71,0,0,1,0,.13,4,4,0,0,1-2.64,1.76l-.19.05h-2.17l-.6.7.91.56-.73,1.29.26-.15.79.55.31-.1.22.05,1.32-1.49,1,.49h0a2.79,2.79,0,0,0,1.83.12l1.15-.38.9,1.74a28.46,28.46,0,0,1,1.93,4.13c.41.36,1.55,1.09,2.33,1.59a28.26,28.26,0,0,1,3.29,2.31,36.77,36.77,0,0,1,3,3.16l.13.16.08.19c1.23,2.78,2.92,6.1,3.48,6.62a10.09,10.09,0,0,1,2.23,4.43l.14.59-2.16,3.39-7.52,1.42L324,153.12l-1.43,3.35.7,2.24-2.9,1.51v1.55a20.56,20.56,0,0,1,2.29-.1,28.05,28.05,0,0,1,3,.48l1.06.22.06,1.08a.89.89,0,0,0,.2.45,7.58,7.58,0,0,0,1.88.67l1.12.27,0,1.15s0,0,0,.08l.39,0,1.42.25-.27,1.42v.08c.49.33,1.3.94,2.64,1.92l1.84,1.36.58.42c1.13.8,1.95,1.39,2.11,2.42a2.18,2.18,0,0,1-.48,1.68,2,2,0,0,1-1.4.78,4.19,4.19,0,0,1-2.56-.86,2.25,2.25,0,0,0-.43.33,4.14,4.14,0,0,0-.24.36,3.76,3.76,0,0,1-2,1.78l-.36.12L330,180.44l-.74.6.06,2.17-1.71.74-.4,2-1.46-.39-3.13-.82a2.62,2.62,0,0,1-2.28-1.18,2.52,2.52,0,0,1-1.92-.63,7.88,7.88,0,0,0-2-.19l-1.17,0-.69-3.27-.59-.48-.15-2.27-.62-.51-.09-.24h-1.66l-1.89-3.82-3.68-.68c-.34,1.56-.91,4-1.26,5.05a9.21,9.21,0,0,1-.82,1.69,3.12,3.12,0,0,0-.61,1.67v1.93l-1.84-.57c-2.21-.69-7.69-2.18-7.75-2.2l-.56-.15-.51-.87-.07,0a1.77,1.77,0,0,1-1.05,1.63l-.49.18-.54,1.19-.86.05a6.13,6.13,0,0,0-1.18.18,1.63,1.63,0,0,1-.87.44,2.55,2.55,0,0,1-1.77-.42,2.46,2.46,0,0,1,.57,1.66c0,.21,0,.94,0,1.5l.07,1.74-6.46-1.06c-.13.79-.24,1.46-.25,1.62,0,.57-.35.95-.94,1.58a8.84,8.84,0,0,0-1.08,1.32c0,.14,0,.34,0,.54a4.45,4.45,0,0,1-.88,3.74,31.8,31.8,0,0,0-2.69,5.31l-.12.29-3.72,3.38-.37,1.6a6.07,6.07,0,0,1,.39,3.51,37.37,37.37,0,0,1-1,4.64,5,5,0,0,1,.16,3.23c-.28.63-1.27,3.25-1.63,4.21l-.17.45-1.1.69v1.16l-1.78.56.18.18-3.43,1.54.48,1.37-1.67.27c-1.11.18-4.14.68-4.85.84l-.27.08-.79,4.54-2.59-3.23c-.48.13-1,.25-1.43.33-.69,1.46-1.66,1.53-2.35,1.33l-.56-.14c-1.1.53-4.17,2-6.24,2.85a19.43,19.43,0,0,1-3.34,1,5.73,5.73,0,0,0-2.09.71,4.38,4.38,0,0,0-1.25,2,2.79,2.79,0,0,1-.7,1.58A3.28,3.28,0,0,0,233,240c0,1.79.4,2.11,1.6,2.15l2.28.09-1.09,2c-1.62,3-3,6.34-3,7.17a8.42,8.42,0,0,1-1,3.45c-.19.41-.37.8-.47,1.12a16.13,16.13,0,0,1-2.65,3.87l3.73,6L230,266a35.3,35.3,0,0,1-4.23.09l-.25.25a12.43,12.43,0,0,1-2.27,2c-3.1,1.86-3.57,1.86-3.85,1.86a4.1,4.1,0,0,1-1.69-.53,5.53,5.53,0,0,1-3.58-1.19,19.86,19.86,0,0,1-4.59-.74c-1.09,0-5.67.06-8.71-1.36H199v3.36l-1.3.11a2.76,2.76,0,0,0-.59.13,14.28,14.28,0,0,0-.65,1.32l1.09.22,1.09.2,0,.68h2.64l-.39,1.73a7.9,7.9,0,0,0-.22,1.77,3.43,3.43,0,0,1,.18,2.68,2.16,2.16,0,0,1-1.4,1.22,2.07,2.07,0,0,1-2.1-.55l-.07-.07-.25,0c-.27.06-.51.13-.75.21-1.56.48-3,.71-5.86-1a6.88,6.88,0,0,0-2.86-.8l-.49,0-.37-.32h0a2.77,2.77,0,0,0-1.54-.56h-4.35l-.17-1.22h0s-.11-.59-.41-.59h-.92l-.38-.84a10.71,10.71,0,0,0-.55-1,3.23,3.23,0,0,1-.51-3.14l.06-.15-2.65-6.56,1.39-.82a6.47,6.47,0,0,1,1.09-2l-5.43.15-.21.59L158.86,261a31.3,31.3,0,0,1-5.17,2.72l-.36,0h-1.8V266l-.88.36a.32.32,0,0,0-.13.34,13,13,0,0,0,.26,1.88l.37,1.51-4.45.65-4.83-.29-.61-.65-1.81.34a8.67,8.67,0,0,1-2.43,1.43,14.42,14.42,0,0,0,.38,2.65c.54,1.73,1.55,5-.69,5.82a3.83,3.83,0,0,0-.73,1.33c-.13.52-1.15,4.66-1.5,6a11.3,11.3,0,0,1-2.29,3.71l.34,2.43h1.84l.08,1.34a9.65,9.65,0,0,1-1.21,5.23,2.05,2.05,0,0,0-.26,1.56,2.07,2.07,0,0,1-1,2.35c-.26.11-.67.44-.67.82a3.76,3.76,0,0,1-1.43,2.54,7.33,7.33,0,0,0-.6.66c.14,1.42-1.22,2.56-3.69,3.1l-1.6.35-.12-1.63c0-.29-.15-.8-.62-.8a6.19,6.19,0,0,0-2.17.73c-1.15.54-2.46,1.15-3.57.35l-.14-.11h-3.62l-.12-1.12a1.65,1.65,0,0,0-1-.17,5.39,5.39,0,0,0-1.5.21l-.28.56-3.91-.38-1,1.74-1.16-.5s-1.06-.39-1.26,0l-.16.25-1.43,1.78-2.3,4.33h-1.4v2.19l6.36,3.43-5.85-.11s-.51,0-1.22,0a2.93,2.93,0,0,1-2,1.09c-3,.34-4.46,3.05-6.18,6.19-1.92,3.51-4.1,7.48-8.93,8a7.36,7.36,0,0,1-2.33-.1c-4.33.82-7.48-.58-9-4l-.45.09c-1.15.36-2.31.69-3.47,1q-1.4.35-2.82.64a9.81,9.81,0,0,1-1,.2l-.25,0-.35.07-1.06.19a68.13,68.13,0,0,1-9,.82,8.17,8.17,0,0,1-1.43,2.71C46.13,342.92,38.88,344.5,33.53,344.5ZM17.12,317.65a4,4,0,0,1,1,.11c5.59,1.42,5.81,5,5.22,8.67-.13.78-.29,1.56-.46,2.34-.47,2.15-.91,4.18-.39,6.14,1.07,4,5.22,6.23,8.86,6.64,4.65.53,12.91-.78,15.8-4.13a6.79,6.79,0,0,0,1-2.2l.51-1.45,1,0a66.81,66.81,0,0,0,9.63-.81l1-.18.71-.11a7.49,7.49,0,0,0,.77-.16c1-.2,1.87-.4,2.76-.62,1.14-.29,2.29-.61,3.42-1l.23-.05a3.53,3.53,0,0,0,.86-.25l.33-.13.35,0c.23,0,.45.06.67.11l1,.2.13,1s0,0,0,0c.56,1.69,1.83,3.79,6.32,2.85l.31-.07.31.07a4.72,4.72,0,0,0,1.66.11c3.37-.39,5-3.4,6.77-6.59,1.83-3.35,3.91-7.14,8.34-7.65.05,0,.09,0,.13-.12l0-.12v-6.41h2.53l1.71-3.16,1.43-1.78a3.34,3.34,0,0,1,3.6-1.56l.74-1.27,4.19.41a6.59,6.59,0,0,1,2.95-.63,4.28,4.28,0,0,1,2.76.73,1.7,1.7,0,0,1,.49-.32c1.17-.51,2.16.42,2.88,1.09l.23.21c.26-.09.66-.28.95-.42a8.22,8.22,0,0,1,3.37-1,3.24,3.24,0,0,1,2.94,1.75l.22-.11a4,4,0,0,1,1.44-2.47,6.46,6.46,0,0,0,.62-.69,3.72,3.72,0,0,1,1.69-2.9,4.72,4.72,0,0,1,.72-3.24,5.38,5.38,0,0,0,.69-2.18h-1.49l-.87-6.19.46-.49a10.68,10.68,0,0,0,2.08-3c.38-1.43,1.5-6,1.5-6a5.75,5.75,0,0,1,2-3,10.09,10.09,0,0,0-.58-2.54,19.52,19.52,0,0,1-.54-3.93v-.32l.13-.3a3,3,0,0,1,2-1.68,9.67,9.67,0,0,0,1.67-1.13l.28-.22,4-.77.9,1,3.42.21,1.19-.17c0-.25-.06-.52-.08-.81a3.11,3.11,0,0,1,1-2.61v-3.44h4.42a41.35,41.35,0,0,0,4.6-2.55l.35-.22,12.08.1.19-.52,11.77-.32-.2,2.94-.5.39c-1.88,1.47-2.08,2.64-2.08,2.65l0,.75-.44.22,1.7,4.22a2.58,2.58,0,0,1,0,2.36,6.35,6.35,0,0,0,.34.63c.1.18.22.38.34.6a3.2,3.2,0,0,1,1.88,1.67h2.1a5.49,5.49,0,0,1,3,.94,9.16,9.16,0,0,1,3.77,1.19c2,1.2,2.57,1,3.53.73.31-.09.63-.19,1-.27a3.54,3.54,0,0,1,1.44,0,5.06,5.06,0,0,1,0-1.18h-1.9l-.06-1.15a6.28,6.28,0,0,1-1.86-.55,1.52,1.52,0,0,1-.73-1c-.3-1.36,1.51-4.28,1.53-4.31a2.68,2.68,0,0,1,1.3-.93V263.5h5.39l.31.16c2.23,1.17,6.41,1.26,7.83,1.2h.23l.22.06a15.26,15.26,0,0,0,4.31.67l.73-.12.52.54a2.62,2.62,0,0,0,2.09.79l.39-.05.39.16.83.34c.5-.25,1.46-.78,2.45-1.37a10.74,10.74,0,0,0,1.7-1.52c.79-.81,1.27-1.3,2.08-1.2l.72.12h1.13l-2.29-3.67.71-.79a20.2,20.2,0,0,0,2.78-3.68,14.32,14.32,0,0,1,.59-1.41,6.39,6.39,0,0,0,.75-2.27c0-1.57,1.52-4.86,2.53-6.88-1.52-.7-2.28-2.22-2.28-4.54a5.88,5.88,0,0,1,1.34-3.49l.19-.27a6.88,6.88,0,0,1,2.15-3.73,7.15,7.15,0,0,1,3.37-1.37,16.87,16.87,0,0,0,2.87-.85c2.45-1,6.48-3,6.52-3l.37-.18.4,0s.24,0,.58.1a1.87,1.87,0,0,1,1.68-1.16,21.19,21.19,0,0,0,2.28-.55l.91-.26.07.08a3.78,3.78,0,0,1,1.92-1c.55-.12,2.1-.39,3.34-.59l-.22-.64,2.05-.92-.57-.57,4.25-1.35v-.65l1.62-1c.37-1,1.23-3.24,1.52-3.9a5.74,5.74,0,0,0-.37-1.54l-.17-.45.13-.46a36.19,36.19,0,0,0,1-4.66,3.32,3.32,0,0,0-.14-1.92l-.52-.49.89-3.84,3.92-3.56c.61-1.42,2.15-4.84,3.12-5.87.23-.24.19-.77.12-1.5a6.83,6.83,0,0,1-.05-1.08c.06-1,.83-1.92,1.82-3l.24-.26c.06-.44.19-1.26.47-2.89l.24-1.39,5.74.94-.15-.21A4.84,4.84,0,0,1,282,180v-2.09l1.65.66a5.22,5.22,0,0,0,.77-.44l.84-.58.82.61a8.55,8.55,0,0,0,.88.58,5,5,0,0,1,1.48-.42l.4-.88.67-.17.06,0c0-.19,0-.39,0-.57a1.61,1.61,0,0,1,.67-1.32c.31-.22,1-.74,3.65.12l.51.17.48.82c1.14.31,3.79,1,5.79,1.63a9,9,0,0,1,.66-1.3,6.73,6.73,0,0,0,.59-1.19c.39-1.13,1.19-4.76,1.46-6.07l.28-1.35,7.79,1.44,1.74,3.52H315l.51,1.36,1,.8.17,2.27.4.32.43,2a4.69,4.69,0,0,1,2.65.79h.3a2.23,2.23,0,0,1,2.18,1.19h0a2.74,2.74,0,0,1,.41,0l1.9.49.1-.51,1.31-.57,0-1.65,1.37-1.11,1.44-2.76,1.45-.48c.16-.05.26-.18.53-.6a6.88,6.88,0,0,1,.42-.61,6.14,6.14,0,0,1,1.84-1.38l-1-.71c-1.05-.78-2.5-1.85-2.78-2a1.89,1.89,0,0,1-.89-1.13,1.62,1.62,0,0,1-.86-.37,2.17,2.17,0,0,1-.72-1.5,6.1,6.1,0,0,1-2.11-1.05,3.38,3.38,0,0,1-.84-1.24c-.64-.12-1.34-.23-1.7-.26s-2.28.13-3.38.25l-1.57.17v-6.41l2.33-1.21-.3-1,2.19-5.1,4.72-3.05,6.86-1.3.84-1.31A6.63,6.63,0,0,0,333,143.1c-1.23-1.12-3.33-5.7-4.08-7.37a34.21,34.21,0,0,0-2.66-2.73,27.49,27.49,0,0,0-2.92-2c-2.51-1.61-3.38-2.21-3.52-3.2a30.12,30.12,0,0,0-1.59-3.34,5.73,5.73,0,0,1-1.7-.15l-1.09,1.24-1.09-.25-.9.3-.51-.36-1.76,1-2.26-3,.84-1.48-1.4-.85,1.09-1.29-.24-.08a10.55,10.55,0,0,0-1.2-.3,2,2,0,0,1-.8.88,2.46,2.46,0,0,1-3.27-1.27,2.33,2.33,0,0,1-.64-1.94,8.27,8.27,0,0,1-5-2.25c-3.18-2.94-3.12-5.23-3.07-7.44,0-1.57-.4-2.63-1.8-4.38a1.87,1.87,0,0,0-2.05-.77,2,2,0,0,1-.48.73,2.61,2.61,0,0,1-2.12.55l-.62,0a3,3,0,0,1-2.69-1.75c-.47.12-1,.25-1.68.37a3.57,3.57,0,0,1-3.5-1.33l-.65-.19.05,1.74-1.81,3.69-5-1.16a4,4,0,0,1-1.38.81c-1,.36-2.51,0-4.55-.62l-.23-.07a21.92,21.92,0,0,1-3.73-1.79h-2.16l-.42-.43a27.28,27.28,0,0,1-2.87-3.38l-.44-.73.44-.73a3,3,0,0,1,1.43-1.29l.32-2.94,3.1-1.52a3,3,0,0,1,.36-1.12,1.71,1.71,0,0,1,1-.8l-.15,0A1.77,1.77,0,0,1,262,88.66c-.24-1.17.7-1.86,2-2.82.6-.44.6-.44.56-1.76,0-.44,0-1,0-1.62,0-4,2.07-4.74,2.48-4.85l4.27-.88.23-1.16,1.1-.06,2.48-.16c.58-.46,2.06-1.73,3.36-2.87L279,72l8.15,2.2c.92-.55,2.85-1.69,4.07-2.34a8.77,8.77,0,0,1,3.4-.81l-.39-1.88,1.79-4.67c-1.57-5.46-1.16-7.32-.9-7.88l.12-.26.22-.19a5,5,0,0,1,1.57-.92,8.56,8.56,0,0,0-.28-2.13l-.13-.23-.2-5,2.63-1.4-.24-2.3-.69-.35c-.34-.11-2.92-.65-3.81-.81A1.75,1.75,0,0,1,293,41.89a2,2,0,0,1,.07-1.47c-.17-.17-.35-.35-.5-.51s-1.21-.52-1.7-.71a11.14,11.14,0,0,1-1.19-.5,1.75,1.75,0,0,1-.85-1.07,3.88,3.88,0,0,1,.6-2.68l.14-.24,1.34-1.07.52-1.54-6.63-3.38L282,28.29c-.58-.07-3.3-.39-4.66-.61a2.25,2.25,0,0,1-1.11.81,1.6,1.6,0,0,1-1.61-.33c-.33-.3-.92-.85-.35-3.56l-1.84-2.84a15,15,0,0,1-4.22-2.2c-.77-.83-.64-2,.38-3.49-.23-.05-.58-.14-1.06-.29a17.14,17.14,0,0,1-3.74-2.52l-1-.81L264,10.55l-.47-1.66-1.24-.18-.72,2.94-5,3.94-6.12,1.19-.52,3-.37.33c-.4.35-2.67,2-8.35.51a40.88,40.88,0,0,0-9.39-1.36H231l-.4-.75a62.47,62.47,0,0,0-4.24-7c-4.45,2.92-8.57,3.28-11.4,1-2.26,1.77-3.55,2.66-6.85,2.84-.06.89-.09,1.72-.11,2.48-.08,2.56-.13,4.25-1.53,4.87s-8.77-.25-11.46-1.08c-3.32,0-10.79,1-10.87,1l-2.43.31.95-2.26a15.48,15.48,0,0,0,1.2-4.38c0-2.79-.48-4.13-1.57-4.34l-1.18-.23,0-1.2c0-1.34-3-1.8-5-2a31.71,31.71,0,0,1,1.43,3.19l.45,1.35-3.82,1.24,1.42,1.94-2.48.24c-1.28.13-4.89.86-6.14,2.7a2.74,2.74,0,0,0-.28,2.44l.44,1.55-12.6,1.9-34,6L119.87,42l-.15.27c-.06.11-6.29,11.56-7.89,16.5s-1.64,17.3-1.64,17.42l-.93,20.44L98.62,109.73l5.44,2.68,4.29,5.61,1,2.08,2.72,3.13,1.58,3.52,3.74,5-10.91,7.82,1.59,2.59-1,.78h0a2.66,2.66,0,0,1,.73.92,4.09,4.09,0,0,1,.07,2.93l-.19.54a7,7,0,0,1,1.63,2.44,7.55,7.55,0,0,1-.21,3.59l0,.1-1.5,4-.82.13A34.82,34.82,0,0,0,100.4,159l-.1.08-3.16,2.47A5.72,5.72,0,0,0,95,163.33a.74.74,0,0,0,.12.81c.33.06,1.35.15,2.28.19,1.33.14,2.81.29,3.06.3.48,0,1,0,2.78,2.22l3,.5,3.5,4,2.6,2.38,1.8,4.69a15.79,15.79,0,0,1,.28,5c-.6,2.41-2.4,2.58-5.3,2.58a1.83,1.83,0,0,0-1.41.41.73.73,0,0,0-.09.55c.44,1,.84,2.59-.06,5.48-.48,1.55-1.44,1.85-2,1.89a3,3,0,0,1-2.53-1.56,15.51,15.51,0,0,1-2.15,1.07,4.4,4.4,0,0,0-2.08,2.67l-.47,1.73-1.58-.85a14.82,14.82,0,0,0-3.66-1.54,15.51,15.51,0,0,0-1.93.92,12.69,12.69,0,0,1-3.61,1.48,7.46,7.46,0,0,1-3.9-1l-1.17,1.42.45,1c.18.41.43.54,1.39.92a10.11,10.11,0,0,1,3.17,1.8,2.73,2.73,0,0,1,1.08,2.27c-.1,1.63-1.7,2.71-3.25,3.76a13.05,13.05,0,0,0-1.57,1.16,2.67,2.67,0,0,1,.93,1.36,4.25,4.25,0,0,1,0,1.95,4.91,4.91,0,0,0,0,2.55,14.93,14.93,0,0,1,.49,3,5.63,5.63,0,0,0,.18,1.23l.81.51c1.39.87,3.48,2.18,4.24,4.09a18.42,18.42,0,0,0,2.77,4.12l.86,1-3.24,3.41h-.63a32.81,32.81,0,0,1-6-.58,14,14,0,0,0-2-.27A19.15,19.15,0,0,1,77,231c-1.93-.79-5.31-2.63-6.37-3.21a15.94,15.94,0,0,1-3.2-.14c-.34-.09-1.86-.71-4.51-1.87a1.93,1.93,0,0,1-1-.85,4.05,4.05,0,0,1-.07-3.16c0-.17.08-.3.1-.4a3.1,3.1,0,0,1-1-.94,6.7,6.7,0,0,0-.68-.76,11,11,0,0,1-2.35-3.26c-.28-.62-.77-.8-1.87-.7l-.36,0a3.7,3.7,0,0,1-2.92-1.64c-1.13-1.42-1.22-3-1.31-4.83-.08-1.52-.08-1.52-.64-2.14a4.71,4.71,0,0,1-1.36-3.67v-.1a4,4,0,0,0-.79-2l-.15-.18L48,200h0c-4.16,0-4.71-.66-5-1a4.79,4.79,0,0,0-.45-.42,13.33,13.33,0,0,1-3-3.61,20.81,20.81,0,0,0-3.41-4.06c-.58-.59-1.15-1.16-1.65-1.73-.75-.84-1.8-1.87-2.69-2.71l-1.34,5.19-3.09-.52a1.42,1.42,0,0,0-.86.17l.18.11a2.73,2.73,0,0,1,1.62,2.1,6.71,6.71,0,0,1-.19,1.84,9.71,9.71,0,0,0-.19,1.3l.58.3c1,.51,2.3,1.15,2.59,2.44.06.27.13.66.2,1.1a16.08,16.08,0,0,0,.52,2.39l.07.11a5.22,5.22,0,0,1,1,3.25,10.48,10.48,0,0,0,.12,1.88,3.89,3.89,0,0,1,3.54,1.52l.54.77a16.55,16.55,0,0,0,1.44,1.89,5.52,5.52,0,0,0,1-.44l1.11-.66.76,1a11.43,11.43,0,0,0,2.18,2.34,1.8,1.8,0,0,1,1.11.45c1.34,1.17,1.71,5.54,1.81,8,0,.92.1,1.49.15,1.9a2.52,2.52,0,0,1-.46,2.16c-.2.27-1,1.81-1.79,3.26l1,2.85-.84,3.17.36,3.07-1.64,0c-2.79-.08-6.22.06-7,.4a15.59,15.59,0,0,0-2.48,3.54c0,.12,0,.26,0,.42a16.27,16.27,0,0,1-.14,3.26c-.46,2.3-1.18,5-2.84,6l-.48.31c-5.24,3.39-7.84,4.9-9,5.2a7.3,7.3,0,0,1-2.35.1h-.07c1.46,4.06,2.06,5.05,2.25,5.3a6.54,6.54,0,0,1,1.11,2.46l.72.11-.18,1.37a18,18,0,0,0,.74,6.13c.12.51.24,1,.35,1.53,1.09,5-.19,8-2.78,11.42l-.12.17c-1.12,1.48-2.17,2.87-2.23,4.49a6.19,6.19,0,0,0,.81,2.9c.84,1.82,1.89,4.08-.59,7.3a16.63,16.63,0,0,1-1.92,2,7.45,7.45,0,0,0-2.27,3c-1.06,3-1,9.76,1.52,10.82a2.37,2.37,0,0,0,.55,0ZM135.7,277.42h0Zm65-1.53Zm19-8.55Zm7-3.57,0,.06Zm-192.9-20.4h0Zm198-6.83h0ZM255,227.39ZM43.67,214.55Zm1.52-17.43h0Zm232.4-7.43Zm11-8.68h0Zm31.89,0h0Zm-36.91-2.33ZM100.42,167.46Zm228.3-1.35h0Zm-228.38-7.05h0Zm205-42.64h0Zm5.7-.19v.14l.09-.15ZM266.9,98.17Zm-.05-1a2.74,2.74,0,0,1,.7.11l.63-1c-1-.38-1.94-.73-2.67-1l.38.75-.34.13h1.3Zm28-56.91h0ZM205.48,20.17h0ZM174.31,5.62h0Z"/></svg>