<svg id="Layer_1" data-name="Layer 1" xmlns="http://www.w3.org/2000/svg" viewBox="0 0 350 350"><defs><style>.cls-1{fill:#999;}.cls-2{fill:#f90;}</style></defs><title>M</title><path class="cls-1" d="M196.79,229.85s-8.83-.14-9.25-2.62a13,13,0,0,1,0-4.69,12.36,12.36,0,0,1,1-3.17,2.23,2.23,0,0,0-3-1.66c-2.48.83.14,3.31-2.48,4.69s-6.07,2.9-6.07,2.9-6.9,6.21-7,9.8,3.87,5.52,6.07,5.38a6.3,6.3,0,0,0,3.73-1.68l2.21,1.69a25.38,25.38,0,0,0-1.24,3.17c0,.41,1.79,5.24.28,5.8s-3.31,1.24-3.31,1.24-1.79-2.76-3.86-3.45-3.31-1.1-4.69-.28-3.17,1.93-2.48,2.76a28.55,28.55,0,0,1,2.07,4.55l-1.1,1S161.87,253,162,251.1s.83-3.45,1.93-3.59,3.59-1.1,2.62-3.31-4.55,0-5.24.69-1.52,4-2.9,5.8-.55,4.83-2.07,6.76.14,4.42,1.52,4.42,3.07.21,4-1.24,2.48-.52,2.28,1.86.1,4.76-1.76,5.59-7,3.73-8.7,4.24-4.14.93-4.14,2.9,1.76,7.45.62,10.66-3.73,3.11.52,5.38c1.45,1.45,4,3.93,2.69,5.38s-4.28.72-5,.72-4.38.31-4.28,1.66,1.24,4.55.41,5.38-.21,3.11.52,3.11,2.48,2.9,2.9,5.18,1.14,3.83.93,6.11-.83,4.45.52,4.35,1.86,1.76.93,2a26.44,26.44,0,0,1-4.24.52h-4s-3.42-.31-3.62,1.45a30.65,30.65,0,0,0,0,4.55l-3.21,3.83L134,334.23v-1.35a17.28,17.28,0,0,0-2.48-1.24c-.93-.31-4,.21-4.14-.21s-.83-2.69-.83-2.69a3.2,3.2,0,0,1-3.21.83c-2.28-.41-3.31-.72-3.62-2.17s-.93-4.24-1.45-4.45-1.24-1-1.86.1.21,2.38-3.11,2.8-4.87-.93-5.69-2.07-1.24-2.48-1.55-2.38a13.73,13.73,0,0,1-2.48-.41l-6.21,2.28s-2.17-1.86-3.73.21-1,5.49-.93,6.52.31,5.49.31,5.49a9.35,9.35,0,0,1-3.93,1.35c-2.69.41-4.45-.25-4.87.71a6.05,6.05,0,0,0-.62,3.23,9.19,9.19,0,0,1-.05,2.59s-3.26,1.24-4.6,0-3.31-3.31-2-8.59,2.17-7.25,2.28-8.18a6.61,6.61,0,0,0-.21-2.07l-4.55-1.55a4.33,4.33,0,0,0-3.62-2.38c-2.8-.31-5.07-.1-5.69-1.66a11.43,11.43,0,0,0-1.55-2.69,28.11,28.11,0,0,0-2.48-2.69c-1.24-1.14-3.11-3.42-.83-6.63l-.21-2.17a19.24,19.24,0,0,0,3.73-1.55c.52-.52,2.17-2.48,2.17-2.48a30,30,0,0,1,5.49,0c2,.31,3.11.83,4.14-.1s2.8-3.21,3.73-3.31,3.83.83,5.18-2.17,1.76-7.35,4.24-9.21,5-3.73,8.49-3.73,7.35,1.24,10.15,1.66,3.52-1.55,5.38-4.76,3.52-4.66,3.31-7.56-.62-5.49-3.93-5.59-9.11.31-11.7-2.69a11.49,11.49,0,0,1-.62-12.94c2.69-4,12.22-6.83,12.22-6.83a11,11,0,0,0,4.45-6c1.45-4.35,3.11-8.07,1.14-10.46l-2-2.38s1.45-3.21-.1-5.38-3.11-2.59-3.11-4.87.31-3.21-.21-3.93-1.55-1.35-2.07-3.11-1.86-2.48-3.62-3.62-.83-2.07-2.38-4.55-3.62-1.45-5.9-4.55-3.52-5.07-3.42-5.69,2.59-2.48-.21-8.07S90.85,170.15,90,167.87s-1-3.42-1.66-3.93-2-1.24-.41-4,.93-6.83,2.69-6.83,3.62.31,5.07-2.28,2.38-5.07,4.35-5.38a17,17,0,0,0,5.28-1.45,30.61,30.61,0,0,1,4.55-1.55s5.87-1,5.87-3.93a10.39,10.39,0,0,1,1.79-5.38s-3.73-3.57-4.14-4.82.41-4.15.41-4.15a31,31,0,0,0-4.14-1.24c.41-1.79,1.79-3.73,2.76-5.52s.55-18.77.55-18.77a2.88,2.88,0,0,1-2.9-3c0-3-1.1-5.11-4.83-5.11H99.2l-2.35-2.07-4.55-.55-4.83-4.14s-5.94-1.52-9.25,0-11.46,9.8-11.46,9.8-11.32.35-14.56-.41S50.69,86.85,49,84.3s-5-6.42-5.66-8.49-2.35-3-4.14-4.9-1.1-5-.62-5.94,3.17-1.93,4.76-2,5,.62,7-1,2.55-3.24,1.17-3.38-2.07-.83-1.45-2.14,2.73-2.17,2.73-2.17H58a8.81,8.81,0,0,0,3.52-.83,26.63,26.63,0,0,0,2.69-1.78,49.12,49.12,0,0,1,4-3.3c.93-.52,2.48-1.24,1.55-3.11S71.7,42.2,72.94,42s4.14,1.45,5.28,1.45,3.52.93,8.18-5.07,7.14-10.46,9.11-11.28,4.55-1.35,3.21,1.66-2.17,6.42-.62,9.63,2.9,4.24,4.45,2.07S106.9,37.54,108,36a14.25,14.25,0,0,1,2.69-2.69l4.14-2.17V28.64s-4.45,2.17-5,1-.41-12.42-.41-12.42l4-1.66s1.66,1.45,2.59,0,5.59,0,5.59,0L126.57,24s6.73-6.42,7.45-7.56,1.45-6.52,1.45-6.52l5.07,3.21a4.41,4.41,0,0,1,1.66-3.73c2-1.76,2.28-.41,2.9-1.24s.62-2.38,1.55-2a14.43,14.43,0,0,0,5.18.31c1-.21,3.52-.38,3.52-.38l3.52.69a38.21,38.21,0,0,0,1.24,5,6.31,6.31,0,0,1,.72,2.9c0,1,.1,3.52.1,3.52a40.66,40.66,0,0,0-3.31,3.62c-.21.52,1.76,2.59,2.17,3.21s3.83,6.21,4.14,6.73,2.38,2.07,3.73,1.66,3-3.83,3.31-3.83,7.66.62,7.66.62L182.47,35l6.73.1,4.55-3.62s2.76-6.42,3-7.76a17.51,17.51,0,0,0,0-3.93,20.85,20.85,0,0,1,3.28,1.14,40.71,40.71,0,0,1,3.42,7c.62,2.07,3.83,10.15,3.83,10.77a32,32,0,0,0,1.14,3.93l7.76.21v4.87s6.52,1.55,7.87,1.35a14.38,14.38,0,0,1,3.62.21s8,1.35,9.32.93,13.25-5.9,13.25-5.9l12.63-6.63,1,4.66s-10.46,4.24-11.59,7.35-6,17.18-6.21,18.94-1.76,2.38,1,8.7,2.9,7.56,4.55,7.56,17.91,3.73,18.84,3.52,1.55-.1,1.45-1-.41-5.28-.41-5.28-2.17-5.18-1.66-5,18.74.41,18.74.41V94.69s2.9,1.55,3.42,2.38.41,2.07.93,2.9,2,1,2.38,2.05-.1,2,.83,2.71,1,.31,2.48.93a9.4,9.4,0,0,0,4,.62c1.35,0,6.83.1,6.83.1s-1.24,6.52-1.14,6.83-2,3.52.62,4.45,2.28-1.14,2.59.93.41,2.9,0,4.24a7.16,7.16,0,0,0,0,3,14.35,14.35,0,0,0,.27,2.07s-3.07-1.86-4.83-1.86-3.42.62-3.62,1.66-2.38,1.55-2.9,3-1.66,4.5-1.66,4.5-1.86,2.13-2.59,2.85-3.83,1.14-5.59.93-6.94-.31-8.49-.52-4.35,1-6,3.52-1.55,4.35-.93,7.87.21,4.45-.93,5.38a4.51,4.51,0,0,1-2.9,1.14,18.68,18.68,0,0,0-3.21.93s-2.07,1.14-.83,2.8,2.28,4.55,1,5.59-3.11,1.35-3.21,2.38,1.76,2.8,1.66,3.31a2.3,2.3,0,0,0,1.66,2.17c1.14.21,2.9.52,1.76,2.48s-2.9,2.8-3.83,3.73-2,1.66-3.21,2.8-2.9,3-4,2.8-2.48-.83-2.48-2.17a8.09,8.09,0,0,0-.52-3.31c-.31-.41-.72-2.8-2-3.42s-5.28-1.14-6.21-.31-1,3.52-2.59,3.93-3.93.1-4.24-1-2.07-6.11-2.59-2.8-1.35,5.9.52,7a40.91,40.91,0,0,0,5.59,2.48l1.14.83s-5.18,3-7.14,2.28-3.52-2.38-5.28-.83-4.55,3.42-6.63-.1-2.28-5.59-3.83-5.8-7.45,4.76-8.18,7,3.73,6.42,2.59,8-3.52,1.55-4.45,2.07-3.42,2.59-1.55,4.76,3.21,4.87,1.66,5.18-3.21-1.45-5.59-.83-6,.83-7,.31-2.9-2.07-4.35-1.86-4.66.72-3.62,3.52-.1,8.28.21,8.8a8.5,8.5,0,0,0,4.24,2.17C199.13,221.81,201.79,224.33,196.79,229.85Z"/><path class="cls-2" d="M80.77,345.31a4,4,0,0,1-2.78-.93c-2-1.82-3.79-4.43-2.38-10,.75-2.94,1.34-4.88,1.74-6.16a15.52,15.52,0,0,0,.5-1.83,3.64,3.64,0,0,0,0-.84l-4.4-1.5-.24-.6a2.94,2.94,0,0,0-2.46-1.5c-.55-.06-1.08-.1-1.57-.14-2.19-.17-4.46-.34-5.28-2.4a10.13,10.13,0,0,0-1.34-2.32,26.83,26.83,0,0,0-2.34-2.54c-2.61-2.4-3.08-5.23-1.33-8l-.27-2.81,1.08-.35a20.68,20.68,0,0,0,3.23-1.27c.28-.29,1.37-1.56,2-2.33l.38-.45.58-.05a31.13,31.13,0,0,1,5.83,0c.42.07.81.14,1.17.21,1.3.26,1.55.26,1.81,0s.64-.64,1-1.05c1.45-1.55,2.4-2.5,3.49-2.62a5.32,5.32,0,0,1,1,0c1.44.1,2.43.06,3.06-1.36a26.37,26.37,0,0,0,1-3c.78-2.56,1.58-5.2,3.64-6.74,2.51-1.88,5.35-4,9.34-4a34.72,34.72,0,0,1,7.31,1.07c1.1.24,2.15.47,3,.61,1.41.21,1.79-.27,3.35-3l.6-1.06c.49-.84,1-1.56,1.38-2.2,1.16-1.78,1.87-2.85,1.74-4.54-.24-3.34-.77-4.22-2.56-4.27l-1.44,0c-3.64,0-8.63-.08-11.29-3.16a12.83,12.83,0,0,1-.73-14.65c2.77-4.15,11.19-6.86,12.82-7.35a9.78,9.78,0,0,0,3.69-5.15c.17-.52.35-1,.52-1.52,1.13-3.27,2.1-6.1.87-7.58L114,224.83l.36-.81c.3-.69.91-2.75,0-4a12.59,12.59,0,0,0-1.37-1.57,5.35,5.35,0,0,1-2-4.12c0-.76,0-1.37.06-1.88a5.52,5.52,0,0,0,0-1.23,4.48,4.48,0,0,0-.4-.46,7.1,7.1,0,0,1-1.87-3.08c-.31-1.05-1.05-1.57-2.58-2.54l-.46-.29a4.11,4.11,0,0,1-1.94-2.86,6.54,6.54,0,0,0-.88-2.13,3.52,3.52,0,0,0-1.93-1.45,8.5,8.5,0,0,1-3.91-3c-3.35-4.56-3.84-5.77-3.67-6.77a2.62,2.62,0,0,1,.43-1c.47-.76,1.45-2.34-.5-6.24a61.68,61.68,0,0,1-4-10.73c-.28-1-.52-1.78-.73-2.36s-.42-1.21-.58-1.69a7.83,7.83,0,0,0-.65-1.65l-.12-.1c-1.13-.89-2.43-2.46-.62-5.71a11.67,11.67,0,0,0,1-3.48c.33-1.82.74-4.08,2.92-4.08h.54c1.5,0,2.4,0,3.3-1.56.25-.44.48-.88.7-1.31,1.2-2.27,2.34-4.42,4.66-4.78l.35-.05a15,15,0,0,0,4.59-1.29,31.88,31.88,0,0,1,4.79-1.63c2-.36,4.78-1.46,4.78-2.56a11.23,11.23,0,0,1,1.42-5.15c-1.36-1.35-3.31-3.44-3.69-4.6a8.06,8.06,0,0,1,.08-3.68,21.31,21.31,0,0,0-2.51-.74h-1.78l.45-1.73a16.54,16.54,0,0,1,2.06-4.43c.29-.49.57-1,.83-1.45.45-1.16.57-9.31.41-16.91a4.17,4.17,0,0,1-2.92-4.22c0-2.72-.89-3.69-3.41-3.69H98.67l-2.42-2.13-4.54-.55L86.81,85c-1.75-.4-5.8-1-8,0-2.52,1.16-8.82,7.25-11,9.5l-.4.41-.57,0c-.47,0-11.54.34-14.93-.45-2.94-.69-3.19-3.77-3.36-6a8.19,8.19,0,0,0-.68-3.35c-.55-.85-1.3-1.86-2.09-2.92-1.65-2.22-3.2-4.32-3.73-5.89a6.77,6.77,0,0,0-2.18-2.76c-.5-.46-1.07-1-1.66-1.62-2.27-2.44-1.55-6.13-.85-7.53.86-1.72,4.29-2.71,6-2.78.43,0,.92,0,1.49,0,1.52.08,3.61.19,4.73-.7a6.38,6.38,0,0,0,1-1,2.66,2.66,0,0,1-1.72-4A7,7,0,0,1,52.32,53l.26-.11H58a7.64,7.64,0,0,0,2.82-.64,25.26,25.26,0,0,0,2.5-1.65l.8-.69a27.64,27.64,0,0,1,3.44-2.74l.15-.08c1.09-.6,1.06-.66.82-1.15a2.93,2.93,0,0,1,0-2.7c.8-1.57,2.92-2.44,4.15-2.65a8,8,0,0,1,3.76.85,10.58,10.58,0,0,0,1.76.58h0l.5,0c1,.07,2.85.22,6.55-4.55,1.56-2,2.86-3.83,4-5.44,2.49-3.48,4-5.58,5.67-6.28,2.36-1,4-1,4.92,0,.79.81.84,2,.13,3.58-1.55,3.45-1.75,6.13-.64,8.43a6.57,6.57,0,0,0,1.56,2.38,2.39,2.39,0,0,0,.46-.52,11.58,11.58,0,0,1,3.58-3,7.37,7.37,0,0,0,1.92-1.46,15.69,15.69,0,0,1,3-3l.18-.11,1.32-.69a3.5,3.5,0,0,1-1.66-.08,1.93,1.93,0,0,1-1.12-1c-.54-1.18-.59-7.73-.54-13V16.3L113.8,14l.66.58a1.73,1.73,0,0,0,.48.27c1.45-2.08,5.5-1.08,7.19-.56l.53.16,4.24,7.3c2.82-2.73,5.57-5.48,5.94-6a30.15,30.15,0,0,0,1.24-5.95l.29-2.19,5.15,3.26a6.53,6.53,0,0,1,1.74-2.45A4.16,4.16,0,0,1,144.1,7h0l.14-.37a2.77,2.77,0,0,1,1.39-1.8,1.93,1.93,0,0,1,1.58,0,14,14,0,0,0,4.32.22c1.09-.22,3.44-.39,3.7-.4h.19l4.64.91.18.94a38.62,38.62,0,0,0,1.09,4.56,7.66,7.66,0,0,1,.9,3.58c0,1,.1,3.44.1,3.46l0,.62-.44.44c-1,1-2.12,2.17-2.7,2.84.29.41.75,1,1,1.28s.6.73.73.93c.44.66,3.91,6.34,4.18,6.79a3.67,3.67,0,0,0,2.09,1A10,10,0,0,0,169,29.77c.66-1,1.06-1.62,1.93-1.62.31,0,4.4.34,7.78.63l.6.05,3.79,4.72,5.56.09,3.88-3.08c1.12-2.61,2.65-6.37,2.81-7.16a15.45,15.45,0,0,0,0-3.5l-.22-2.08,2,.56c3.33.93,3.67,1.27,3.9,1.5a38.26,38.26,0,0,1,3.77,7.63c.27.88,1.07,3,1.84,5.1,1.87,5,2,5.58,2,6.07,0,.26.37,1.39.75,2.54l8.15.22v5.12a37.61,37.61,0,0,0,6.24,1.07,15.27,15.27,0,0,1,4.09.21c3.52.59,7.85,1.13,8.68,1s8.47-3.72,13-5.82l14.21-7.45,1.7,7.64-1.11.45c-4.75,1.93-10.23,5-10.8,6.52-1.34,3.65-6,17.15-6.13,18.62a6.52,6.52,0,0,1-.33,1.33c-.34,1-.72,2.18,1.25,6.63.57,1.3,1,2.38,1.42,3.28a15.6,15.6,0,0,0,1.67,3.42h.17a96,96,0,0,1,9.47,1.76c3.5.72,8.25,1.7,9.2,1.76l.16,0c-.11-1.29-.29-3.76-.35-4.54-2.24-5.36-2-5.65-1.33-6.29l.66-.67.77.28c1.38.14,11.92.3,18.39.37l1.4,0V93.85a10.46,10.46,0,0,1,3.2,2.47,5.51,5.51,0,0,1,.65,1.92,3.57,3.57,0,0,0,.28,1,3.42,3.42,0,0,0,.58.38,3.91,3.91,0,0,1,1.92,1.91,4.88,4.88,0,0,1,.3,1.61,2.57,2.57,0,0,0,0,.47,1,1,0,0,0,.59.28,7,7,0,0,1,1.61.49,8.09,8.09,0,0,0,3.48.51c1.35,0,6.86.1,6.86.1l1.68,0-.31,1.65c-.51,2.7-1.06,5.77-1.12,6.45a2.56,2.56,0,0,1-.26,1.19c-.15.39-.56,1.43-.38,1.83a.6.6,0,0,0,.33.22c.72.26.93.16,1,.1a1.6,1.6,0,0,1,1.5,0c.73.38.83,1,1,2a9.63,9.63,0,0,1,0,4.87,3.32,3.32,0,0,0,0,1.65,5.89,5.89,0,0,1,.1.93,12.7,12.7,0,0,0,.24,1.79l.64,3.17-2.77-1.68a11.6,11.6,0,0,0-4.09-1.66,3.42,3.42,0,0,0-2.26.59,3.6,3.6,0,0,1-1.79,2.09c-.48.33-1,.7-1.13,1-.52,1.46-1.66,4.52-1.66,4.52l-.09.24-.17.2c-.08.09-1.9,2.17-2.65,2.92-1.25,1.25-5.06,1.54-6.76,1.34-.81-.1-2.5-.17-4.13-.25-1.81-.08-3.53-.16-4.38-.27s-3.2.75-4.64,2.9c-1.32,2-1.34,3.31-.71,6.84s.3,5.31-1.43,6.73a5.87,5.87,0,0,1-3.65,1.45,16,16,0,0,0-2.73.8,1.19,1.19,0,0,0-.43.46h0a.58.58,0,0,0,.11.2c1.57,2.1,2.86,5.82.81,7.53a9.5,9.5,0,0,1-1.87,1.15c-.23.12-.54.28-.75.4a10.49,10.49,0,0,0,.68,1,3.23,3.23,0,0,1,.9,2.14c.06.23.31.62.5.65.93.17,2.47.45,3.07,1.76a3,3,0,0,1-.34,2.83,11,11,0,0,1-3.13,3.27,9.62,9.62,0,0,0-.92.75c-.56.56-1.13,1-1.74,1.53s-1,.81-1.52,1.3l-.65.61c-1.45,1.39-2.95,2.84-4.6,2.53-2.25-.41-3.65-1.78-3.65-3.57a9.45,9.45,0,0,0-.29-2.54,4.57,4.57,0,0,1-.46-1.07c-.14-.41-.58-1.67-1-1.86a10.1,10.1,0,0,0-4.67-.48,6.69,6.69,0,0,0-.45,1c-.44,1.16-1,2.74-2.68,3.18-2.07.55-5.38.14-6-2-.06-.2-.13-.43-.21-.67-.33,2-.36,3,.24,3.33a39.71,39.71,0,0,0,5.33,2.36l.19.07,3.06,2.23-1.88,1.09c-1.35.78-5.94,3.27-8.34,2.38a13.94,13.94,0,0,1-1.61-.74c-1.45-.75-1.74-.79-2.25-.35-1.26,1.11-3.19,2.55-5.35,2.21a5,5,0,0,1-3.44-2.66c-.75-1.27-1.26-2.36-1.67-3.23a6.42,6.42,0,0,0-1.07-1.86c-1.44.34-6.17,4.4-6.69,6-.17.54.8,2.22,1.33,3.12,1.07,1.84,2.17,3.74,1.05,5.26a6.54,6.54,0,0,1-4,2.2,6.2,6.2,0,0,0-.91.27,3.27,3.27,0,0,0-1.49,1.72,1,1,0,0,0,.32.88c1,1.16,3.23,4.07,2.54,6.06a2.17,2.17,0,0,1-1.69,1.43,5.27,5.27,0,0,1-2.9-.46,4.18,4.18,0,0,0-2.61-.38c-2.27.59-6.43,1-8,.21-.3-.15-.66-.37-1.06-.62-.71-.44-1.91-1.2-2.46-1.11-1.83.26-2.4.63-2.56.9a1,1,0,0,0,.07.73c.79,2.13.52,5.31.34,7.41,0,.44-.08.95-.09,1.28a9.76,9.76,0,0,0,3.21,1.4,4.77,4.77,0,0,1,3.57,3.14c.68,2.19-.34,4.79-3,7.75l-.43.48h-.64c-3.74-.06-10.09-.63-10.62-3.81a12.8,12.8,0,0,1-.09-4.37c0-.22.06-.45.08-.7a12.1,12.1,0,0,1,.85-3.06.85.85,0,0,0-.29-.32,1.07,1.07,0,0,0-.76,0,.73.73,0,0,0-.23.1c0,.05,0,.4,0,.62a3.77,3.77,0,0,1-2,3.87c-2.29,1.21-5.15,2.49-6,2.85-2.67,2.44-6.33,6.64-6.41,8.65a3.15,3.15,0,0,0,1,2.44,5.27,5.27,0,0,0,3.53,1.48,4.91,4.91,0,0,0,2.81-1.27l.88-.87,4.09,3.11-.46,1c-.42.94-.91,2.1-1.08,2.6l.1.36c.62,2.2,1.65,5.87-.79,6.76-1.51.55-3.28,1.23-3.29,1.23l-1.07.41-.63-1c-.4-.61-1.83-2.45-3.12-2.88-2-.67-2.73-.87-3.52-.4a15.58,15.58,0,0,0-1.76,1.18,34.36,34.36,0,0,1,1.94,4.43l.34.92-2.49,2.18-.8-.31c-2.48-1-6.6-3-6.42-5.56a9.41,9.41,0,0,1,.29-1.8,12.22,12.22,0,0,1-1.34,2.35,5.62,5.62,0,0,0-.69,2.55,8.11,8.11,0,0,1-1.39,4.22,1.31,1.31,0,0,0-.22,1.31,1.35,1.35,0,0,0,.65.81h.45c1.3,0,2,0,2.32-.6a2.54,2.54,0,0,1,3-1.22c1.34.46,2.1,2,1.93,4,0,.43-.06.85-.08,1.27-.09,2-.21,4.46-2.52,5.49-.69.3-1.9.94-3.19,1.6a51,51,0,0,1-5.66,2.7l-.72.21c-1.61.46-2.43.79-2.43,1.33a18.85,18.85,0,0,0,.35,2.44c.46,2.59,1.1,6.13.19,8.69a9.55,9.55,0,0,1-1.42,2.56l-.16.23a11.65,11.65,0,0,0,1.44.87l.18.1.3.3c1.68,1.68,4.81,4.8,2.58,7.2-1.58,1.7-4.19,1.39-5.6,1.23l-.48,0a9,9,0,0,0-2.81.5c.05.3.13.68.22,1,.42,1.94.86,3.95-.26,5.07a2.16,2.16,0,0,0,.13.81c1.82.73,3.37,4.51,3.68,6.21.12.67.27,1.27.41,1.84a13.2,13.2,0,0,1,.54,4.65c0,.48-.1,1-.16,1.41s-.13,1-.15,1.43a2.79,2.79,0,0,1,2.21,2.31,2.07,2.07,0,0,1-1.55,2.42,27.67,27.67,0,0,1-4.55.55h-4.17a4.27,4.27,0,0,0-2.09.27,29.9,29.9,0,0,0,0,4.22l0,.57-4.62,5.51-2.6-2.84v-1.07a11.28,11.28,0,0,0-1.52-.72,11.67,11.67,0,0,0-1.75,0c-1.6.07-3,.13-3.32-1.21,0-.12-.14-.47-.27-.91a5.54,5.54,0,0,1-2.64.1c-2.07-.38-4.22-.77-4.76-3.27a28.86,28.86,0,0,0-.86-3.34c-.36,1.53-1.19,2.55-4,2.9-3.1.39-5.46-.5-7-2.64a13,13,0,0,1-1-1.67l-.08-.16c-.4,0-.94-.15-1.73-.33l-6.59,2.42-.63-.54a1.81,1.81,0,0,0-1.11-.42c-.08,0-.28,0-.56.41-1.1,1.47-.8,4.22-.69,5.25l0,.28c.11,1.06.31,5.38.32,5.56l0,.75-.6.45a10.6,10.6,0,0,1-4.57,1.61,17.65,17.65,0,0,1-3,.17c-.31,0-.67,0-.91,0a4.35,4.35,0,0,0-.41,2,10,10,0,0,1,0,3.12l-.13.81-.77.29A10,10,0,0,1,80.77,345.31Zm-5.29-23.53,4.74,1.62.2.73a7.93,7.93,0,0,1,.25,2.6,14.29,14.29,0,0,1-.61,2.34c-.39,1.25-1,3.15-1.7,6-1.19,4.67.53,6.25,1.55,7.2.3.28,1.36.21,2.34,0a5,5,0,0,0,0-1.2,7.39,7.39,0,0,1,.71-4.1c.62-1.43,2.1-1.41,3.4-1.4a15,15,0,0,0,2.55-.14,10.36,10.36,0,0,0,2.69-.76c-.08-1.62-.2-3.88-.26-4.53l0-.25c-.16-1.47-.54-4.9,1.23-7.27A3.61,3.61,0,0,1,95,321.09a4.26,4.26,0,0,1,2.52.59l5.94-2.18.42.1c.77.18,1.63.35,2,.38,1.16-.21,1.76.94,2.13,1.64a10.51,10.51,0,0,0,.78,1.32c.58.8,1.67,1.83,4.37,1.5,1.26-.16,1.5-.41,1.5-.41a2.12,2.12,0,0,0,.11-.4,4.46,4.46,0,0,1,.43-1.25,2.39,2.39,0,0,1,1.46-1.26,2.55,2.55,0,0,1,2,.43l.16.09c.9.36,1.39,1.24,2.29,5.46.1.45.14.65,2.49,1.08,1.3.23,1.81-.27,1.86-.33l1.65-2.2.8,2.67c.08.25.36,1.14.59,1.87l.71,0a8.37,8.37,0,0,1,2.77.14,17.94,17.94,0,0,1,2.77,1.37l.69.41v.85l1.48-1.77a28.58,28.58,0,0,1,0-4.24c.27-2.29,2.9-2.88,5.09-2.7h4a16.8,16.8,0,0,0,1.84-.15l-.13-.13c-.87-.91-.68-2.33-.47-4,.05-.42.11-.86.15-1.31a10.46,10.46,0,0,0-.46-3.71c-.16-.63-.32-1.29-.45-2a9.92,9.92,0,0,0-1.92-4.06,2.32,2.32,0,0,1-1.57-1.53,3.83,3.83,0,0,1,.35-3.81A11.55,11.55,0,0,0,143,301a14.41,14.41,0,0,1-.32-1.81,2.18,2.18,0,0,1,.6-1.66c1.4-1.51,5.06-1.53,5.1-1.53a8.05,8.05,0,0,1,.81.07c.84.1,2.59.3,3.19-.34.06-.44-.78-1.55-2.5-3.26h0c-1.66-.91-2.61-1.62-2.85-2.69a3,3,0,0,1,.81-2.48,6.87,6.87,0,0,0,1-1.84c.66-1.85.1-5-.31-7.25a18.91,18.91,0,0,1-.39-2.94c0-2.78,2.81-3.58,4.48-4.06l.65-.19a54.56,54.56,0,0,0,5.2-2.51c1.33-.69,2.58-1.34,3.35-1.68s.75-1.15.84-3c0-.45,0-.92.08-1.38a3.14,3.14,0,0,0,0-.54c-1.27,1.51-3.15,1.48-4.43,1.46h-.44a3.64,3.64,0,0,1-3.09-2.22,4.17,4.17,0,0,1,.46-4.49,5.87,5.87,0,0,0,.81-2.83,7.76,7.76,0,0,1,1.26-3.93,15.86,15.86,0,0,0,1.67-3.37,8.12,8.12,0,0,1,1.34-2.57c.65-.65,3.24-2.4,5.37-2a2.9,2.9,0,0,1,2.17,1.75,3.49,3.49,0,0,1,.26,2.23l.2-.12c1.94-1.16,3.67-.59,5.87.15a9.41,9.41,0,0,1,3.92,3.09l2-.75a11.56,11.56,0,0,0-.65-3.44,4.33,4.33,0,0,1-.24-1.14c0-.23,0-.61.91-2.72l-.45-.34a7.45,7.45,0,0,1-3.65,1.3,8.12,8.12,0,0,1-5.69-2.28,6,6,0,0,1-1.89-4.58c.15-4,6.28-9.7,7.51-10.8l.17-.15.21-.09s3.44-1.51,6-2.86c.54-.28.55-.45.54-1.31a3.12,3.12,0,0,1,2.16-3.47,3.66,3.66,0,0,1,3.06.19,4.06,4.06,0,0,1,1.81,2.51l.1.47-.2.43a10.72,10.72,0,0,0-.84,2.72c0,.27-.06.53-.09.78a10,10,0,0,0,.08,3.54c.44.61,3.79,1.29,7.22,1.42,1.59-1.87,2.31-3.5,2-4.53a2.07,2.07,0,0,0-1.52-1.22c-2.25-.54-4.5-1.78-5.13-2.82-.34-.57-.29-1.19-.15-2.85s.4-4.65-.17-6.19a3.54,3.54,0,0,1,.16-3.16c1-1.75,3.44-2.09,4.59-2.25,1.59-.23,3.2.78,4.37,1.51.31.19.59.37.82.49a15.59,15.59,0,0,0,6-.41,6.84,6.84,0,0,1,4.31.47c.26.1.51.19.74.25a11.21,11.21,0,0,0-1.83-2.78,3.79,3.79,0,0,1-1-3.22,5.93,5.93,0,0,1,2.9-3.7,6.68,6.68,0,0,1,1.6-.54,4.71,4.71,0,0,0,2.3-1,11,11,0,0,0-1.12-2.28c-1-1.8-2.13-3.66-1.58-5.4.85-2.67,7.29-8.36,9.72-8,1.78.24,2.46,1.67,3.31,3.48.39.82.87,1.84,1.55,3,.46.78.94,1.21,1.44,1.29.72.12,1.74-.4,3-1.53,2-1.8,4.08-.74,5.42,0a11.42,11.42,0,0,0,1.28.6c.48.18,2-.25,3.61-1a32.74,32.74,0,0,1-4.42-2.06c-2.4-1.47-1.9-4.3-1.42-7,.08-.46.17-.94.24-1.44.23-1.48.86-2.26,1.87-2.32,1.71-.11,2.82,2.55,3.46,4.84a4,4,0,0,0,2.54.16c.23-.06.61-1,.76-1.45a5.31,5.31,0,0,1,1.25-2.17c1.66-1.47,6.49-.55,7.79.1s2,2.36,2.36,3.46c.06.18.11.34.16.45.69,1,.74,3.37.74,4.08,0,.41.78.67,1.25.77a9.69,9.69,0,0,0,2.2-1.77l.7-.66c.58-.53,1.12-1,1.62-1.4s1.08-.89,1.54-1.35a11.57,11.57,0,0,1,1.22-1,8.21,8.21,0,0,0,2.39-2.43l.1-.18a7.58,7.58,0,0,0-.87-.2,3.38,3.38,0,0,1-2.17-1.49,3.76,3.76,0,0,1-.67-1.92c-.1-.15-.26-.38-.37-.55a4.89,4.89,0,0,1-1.27-3.07c.14-1.4,1.38-2,2.38-2.54a7.27,7.27,0,0,0,1.33-.79c.23-.34-.14-2.16-1.26-3.65a3,3,0,0,1-.62-2.5,3.9,3.9,0,0,1,1.9-2.39l.18-.08a18.5,18.5,0,0,1,3.57-1,3.16,3.16,0,0,0,2.14-.83c.58-.48,1-.82.43-4-.62-3.53-.86-5.89,1.15-8.9s5.28-4.42,7.37-4.14c.73.1,2.46.18,4.13.25s3.42.16,4.33.26a10.24,10.24,0,0,0,4.47-.56c.52-.53,1.84-2,2.31-2.55.28-.75,1.13-3,1.56-4.24a5.23,5.23,0,0,1,2.19-2.41,6.1,6.1,0,0,0,.68-.51c.46-1.85,2.82-2.67,5-2.67a8.52,8.52,0,0,1,3.09.8v-.08a6.08,6.08,0,0,1,.12-2.93,6,6,0,0,0,0-3.09h0a5.11,5.11,0,0,1-1.73-.34,3.25,3.25,0,0,1-2-1.71c-.68-1.49,0-3.14.32-4l.08-.2a51.79,51.79,0,0,1,.85-5.29c-1.72,0-4.27-.07-5.13-.07a10.72,10.72,0,0,1-4.6-.74,4.29,4.29,0,0,0-1-.32,3.6,3.6,0,0,1-1.77-.8,3.17,3.17,0,0,1-1.17-2.59,2.34,2.34,0,0,0-.1-.72,2.45,2.45,0,0,0-.69-.49,4.12,4.12,0,0,1-1.57-1.33,5.51,5.51,0,0,1-.65-1.92,3.59,3.59,0,0,0-.28-1A15.22,15.22,0,0,0,288,95.93l-.75-.4V78.9c-8.91-.11-13.3-.2-15.5-.29.32.86.75,1.95,1.15,2.9l.09.22,0,.23s.31,4.33.41,5.22a2.18,2.18,0,0,1-2.14,2.5l-.41.08c-.63.14-1.65,0-10.25-1.78-3.45-.71-8.18-1.69-8.9-1.7-2.25,0-2.85-1.4-4.44-5.15-.38-.89-.84-2-1.4-3.25-2.23-5-1.93-6.9-1.35-8.66a4,4,0,0,0,.2-.78c.25-2.12,5.6-17.4,6.29-19.27,1.11-3,7.94-6.28,11.28-7.71l-.38-1.69-11,5.76c-1.29.6-12.1,5.57-13.49,6s-6.87-.37-10-.89a12.58,12.58,0,0,0-3.17-.2c-1.46.23-6.37-.88-8.41-1.37l-1.09-.26V44.2l-7.37-.2-.32-.93a24.29,24.29,0,0,1-1.21-4.25c-.14-.58-1.14-3.26-1.87-5.22-.83-2.21-1.61-4.31-1.9-5.28a42.51,42.51,0,0,0-3-6.37l-.77-.27a11.13,11.13,0,0,1-.15,2.27c-.29,1.42-2.65,6.94-3.12,8l-.14.33-5.23,4.16-7.9-.12-3.87-4.81L171.61,31l-.19.29c-1.08,1.65-2.07,3-3.33,3.43-2.21.68-4.85-1.43-5.36-2.28-.28-.47-3.72-6.09-4.1-6.67-.1-.15-.31-.4-.56-.69-1.29-1.55-2.22-2.67-1.75-3.83.1-.24.3-.74,3.19-3.66,0-.81-.08-2.22-.08-3a4.89,4.89,0,0,0-.54-2.2A23.29,23.29,0,0,1,157.66,8l-2.4-.47c-.78.06-2.44.2-3.16.34a17.52,17.52,0,0,1-5.22-.16A5,5,0,0,1,146.23,9a2,2,0,0,1-2,.85c-.16,0-.38,0-1.09.6a3.09,3.09,0,0,0-1.2,2.48l.33,2.94-5.73-3.59a17.55,17.55,0,0,1-1.33,4.92c-.76,1.19-6.06,6.29-7.67,7.82l-1.3,1.24-5.48-9.45a8.21,8.21,0,0,0-3.52-.35,2.64,2.64,0,0,1-1.84,1.18,3.33,3.33,0,0,1-2-.44l-2.47,1c0,4.18.05,8.6.23,10.32a16.11,16.11,0,0,0,3.13-1.16l2-1V32l-4.8,2.52a12.84,12.84,0,0,0-2.31,2.33A9.27,9.27,0,0,1,106.47,39a9.25,9.25,0,0,0-2.77,2.25,3.34,3.34,0,0,1-3,1.73c-1.8-.15-3-2.11-3.9-4-1.48-3.07-1.29-6.61.6-10.82l.1-.25a7.74,7.74,0,0,0-1.47.48c-.93.39-2.57,2.68-4.46,5.32-1.17,1.63-2.49,3.47-4.08,5.52-4.07,5.25-6.73,5.82-9,5.64l-.29,0a8.69,8.69,0,0,1-2.77-.77,10.3,10.3,0,0,0-2.29-.7c-1,.16-2.06.88-2.1,1.18a.32.32,0,0,0,0,.1c1.49,3-1.13,4.43-2,4.9l-.14.08A33,33,0,0,0,66,52l-.89.76a27.62,27.62,0,0,1-2.88,1.9,10.07,10.07,0,0,1-4.22,1H53.16a4.21,4.21,0,0,0-1.75,1.36l0,.07.34.06a2.14,2.14,0,0,1,2,1.5c.38,1.29-.49,2.9-2.39,4.4s-4.77,1.41-6.64,1.31c-.47,0-.89,0-1.22,0a7.16,7.16,0,0,0-3.59,1.27c-.29.6-.83,2.93.42,4.28.51.55,1,1,1.5,1.47a9.23,9.23,0,0,1,2.94,4A27.23,27.23,0,0,0,48,80.46c.82,1.1,1.59,2.15,2.19,3.07a9.9,9.9,0,0,1,1.13,4.67c.19,2.41.4,3.3,1.18,3.49,2.37.56,10.16.48,13.63.39,1.82-1.83,8.34-8.25,11.47-9.69,3.66-1.68,9.53-.25,10.19-.08l.32.08,4.76,4.08,4.57.55,2.28,2h5.54c2.85,0,6.25,1.13,6.25,6.52a1.42,1.42,0,0,0,1.5,1.62l1.35,0,.05,1.35c.13,5.22.31,17.56-.72,19.48-.27.51-.58,1-.88,1.54-.45.77-.91,1.55-1.26,2.29q1.1.33,2.75.92l1.25.45-.36,1.27a9.06,9.06,0,0,0-.43,3.32,25.54,25.54,0,0,0,3.78,4.24l.89.85-.72,1a9,9,0,0,0-1.53,4.55c0,4-6.31,5.2-7,5.33h0a30.32,30.32,0,0,0-4.24,1.46,17.54,17.54,0,0,1-5.28,1.5l-.34.05c-.92.15-1.7,1.61-2.6,3.31-.23.44-.48.9-.74,1.37-1.72,3.08-4.19,3-5.82,3h-.22a12.14,12.14,0,0,0-.4,1.75,14,14,0,0,1-1.32,4.35c-.85,1.52-.55,1.76-.1,2.11l.19.15a6,6,0,0,1,1.52,2.92c.15.46.33,1,.56,1.62s.49,1.53.79,2.54a58.31,58.31,0,0,0,3.81,10.25c2.59,5.19,1.14,7.77.43,8.92a31.74,31.74,0,0,0,3.07,4.65,5.75,5.75,0,0,0,2.77,2.1,6.22,6.22,0,0,1,3.19,2.54,9.29,9.29,0,0,1,1.22,2.94c.18.71.21.84.73,1.17l.44.28c1.62,1,3.15,2,3.77,4.13a4.29,4.29,0,0,0,1.21,1.92,7.12,7.12,0,0,1,.66.76,4.36,4.36,0,0,1,.53,3c0,.47-.06,1-.06,1.73,0,.88.28,1.22,1.18,2.13a15.38,15.38,0,0,1,1.66,1.91c1.45,2,1,4.61.56,5.93l1.45,1.76c2.24,2.71,1,6.4-.38,10.31-.17.49-.34,1-.51,1.49a12.37,12.37,0,0,1-5.11,6.8l-.29.12c-2.51.74-9.47,3.3-11.44,6.26a10.12,10.12,0,0,0,.52,11.23c1.82,2.11,6.07,2.15,9.17,2.18l1.5,0c4.82.15,5.13,4.54,5.3,6.91.19,2.65-.92,4.34-2.2,6.3-.42.64-.85,1.3-1.3,2.07l-.59,1c-1.5,2.65-2.78,4.94-6.23,4.42-1-.15-2.08-.39-3.24-.64a32.57,32.57,0,0,0-6.7-1c-3,0-5.28,1.67-7.64,3.44-1.31,1-2,3.18-2.63,5.3a28.94,28.94,0,0,1-1.17,3.36c-1.5,3.34-4.55,3.12-5.85,3l-.38,0a13.49,13.49,0,0,0-1.81,1.74c-.43.46-.84.9-1.2,1.22-1.35,1.21-2.82.92-4.25.64l-1.06-.19a25.41,25.41,0,0,0-4.57,0c-.54.63-1.47,1.72-1.87,2.12a10,10,0,0,1-3.21,1.54l.15,1.58-.31.43c-1.26,1.78-1.07,3.2.63,4.76a29.36,29.36,0,0,1,2.63,2.85,12.87,12.87,0,0,1,1.76,3.05c.17.42,1.6.53,2.86.63.53,0,1.09.08,1.67.15A6,6,0,0,1,75.48,321.79ZM145,306.11h0Zm-65.34-7.45Zm83.77-47.53a9.21,9.21,0,0,0,3.33,2.24,17.32,17.32,0,0,0-1.28-2.73A2,2,0,0,1,165,249a2.19,2.19,0,0,1,.07-.28,5.59,5.59,0,0,1-1,.22A3.58,3.58,0,0,0,163.43,251.13Zm0,0h0ZM165,244.7a5.19,5.19,0,0,0-2.64,1.2,14.44,14.44,0,0,0-.72,1.63l0,.09a3,3,0,0,1,2.21-1.51,2.46,2.46,0,0,0,1.55-.79c0-.06.11-.19-.05-.55A.54.54,0,0,0,165,244.7Zm17.08-.86ZM259.43,184Zm-4.29-3.24h0Zm2.27-1.7,0,0Zm52.39-66.27h0Zm-39.39-37,.07,0ZM205.9,38.68a1,1,0,0,0,0,.12S205.9,38.72,205.9,38.68ZM97.67,27.38ZM199.26,22Z"/></svg>