<svg id="Layer_1" data-name="Layer 1" xmlns="http://www.w3.org/2000/svg" viewBox="0 0 350 350"><defs><style>.cls-1{fill:#999;}.cls-2{fill:#f90;}</style></defs><title>M</title><path class="cls-1" d="M343.75,268.22l-11.48-15.37-6-13.43-10.51-12.07-4.09-8.76-15.18-19.66-26.08-12.84,44.37-54.68,3.5-77.06-5.64,1.95-46.51-7L217.65,23.21l-75.7-3.5V50.65s-7.2,3.7-9.15,6.81,6.23,13,6.81,13.82,0,37,0,37l-14.21.58L69.94,104,56.71,158.46,27.52,211,9.61,238.25S4.36,240.39,7,248.56s10.22,16.93,12.26,22.18S39.39,330.3,39.39,330.3l17.9-2.65,55.46-21.87s59.74,12.46,84.85,18.1,34.25,3.89,42,1.56,68.5-17.12,68.5-17.12l-6.23-10.12Z"/><path class="cls-2" d="M38.42,331.87,38,330.74c-.18-.54-18.11-54.32-20.12-59.48a52.57,52.57,0,0,0-4.55-7.84C10.49,259,7.23,253.94,5.64,249c-2.51-7.82,1.57-11,3-11.82l17.68-26.9,29.07-52.33,13.48-55.49,56.58,5,12.78-.53c.2-12.87.38-32.29.08-35l0-.06c-8-10.22-7.65-13.52-6.65-15.12,1.76-2.82,6.9-5.81,8.93-6.91V18.22L218,21.81l48.52,26.11,45.92,6.92,7.29-2.51-3.62,79.61L272.6,185.61l24.78,12.2L312.92,218l4,8.58,10.52,12.07,6.06,13.48,12.25,16.41-41.94,30,6.56,10.65-1.89.46c-.61.15-60.77,14.81-68.43,17.1-8.11,2.43-17.49,4.15-42.75-1.53-23.71-5.33-79.05-16.89-84.41-18L57.66,329ZM71,105.49,58,159,28.7,211.78,10.56,239.39l-.41.17c-.15.06-4,1.84-1.81,8.57,1.48,4.59,4.63,9.46,7.42,13.75a52.91,52.91,0,0,1,4.81,8.35c1.89,4.87,17.12,50.47,19.79,58.49l16.57-2.45,55.71-22,.41.09c.6.13,60,12.52,84.87,18.1,24.6,5.53,33.58,3.9,41.32,1.58,7-2.11,56.18-14.12,66.68-16.68L300,297.8l41.74-29.9L331,253.42,325,240.19l-10.5-12.06-4.1-8.8-14.88-19.27-27.38-13.48,45.2-55.7,3.39-74.51-4,1.38-47.1-7.09-48.39-26-73.9-3.42V51.51l-.77.4c-1.91,1-7.17,4-8.59,6.3,0,0-1.18,2.15,6.47,11.87l.27.35c.37.49.88,1.17.28,37.85l0,1.34-15.63.64h-.09Z"/></svg>