<svg id="Layer_1" data-name="Layer 1" xmlns="http://www.w3.org/2000/svg" viewBox="0 0 350 350"><defs><style>.cls-1{fill:#999;}.cls-2{fill:#f90;}</style></defs><title>M</title><polyline class="cls-1" points="175 30.06 181.56 33.51 185.7 36.96 190.53 47.32 197.43 52.84 207.78 60.43 214.69 64.57 219.52 63.88 222.97 66.64 227.11 75.61 227.11 83.9 229.87 88.04 231.94 92.18 238.15 94.25 240.91 100.46 245.74 109.43 249.88 111.5 259.55 110.81 270.59 110.81 279.56 112.88 285.77 116.33 289.92 126.69 285.77 133.59 284.39 141.87 291.3 147.39 296.82 152.22 300.96 156.37 312 162.58 315.45 170.17 318.21 175 322.35 179.14 327.19 183.28 332.02 185.35 337.54 188.8 343.75 192.25 338.92 198.47 333.4 203.99 333.4 212.96 333.4 223.31 333.4 228.83 326.5 232.97 316.14 233.66 312.69 238.5 302.34 239.19 300.96 246.09 302.34 252.99 303.03 260.58 307.86 268.87 307.86 277.15 302.34 280.6 292.68 280.6 288.54 279.91 288.54 276.46 281.63 273.7 275.42 274.39 269.9 280.6 266.45 286.12 261.62 277.15 254.72 272.32 249.19 269.56 240.91 266.1 236.08 268.18 228.49 271.63 219.52 264.72 219.52 256.44 219.52 251.61 219.52 249.54 158.78 257.82 153.95 259.89 148.43 258.51 142.91 257.13 139.46 268.87 136 284.05 129.1 292.33 117.37 292.33 110.47 298.54 102.19 309.59 93.9 317.12 83.55 319.94 66.11 319.94 51.8 317.12 42.83 317.12 35.24 313.73 29.72 308.89 28.34 303.37 18.67 299.23 12.46 295.09 6.25 295.09 6.25 288.19 9.7 277.84 13.15 271.63 18.67 266.79 22.81 255.75 25.57 255.75 26.27 250.23 20.74 242.64 13.15 237.81 15.91 231.59 19.36 231.59 19.36 227.45 15.91 219.86 15.91 214.34 20.05 207.44 24.19 200.54 30.41 190.18 38.69 182.59 38.69 173.62 38.69 166.03 47.66 166.03 52.49 166.03 52.49 156.37 55.94 152.91 62.16 152.91 66.11 146.7 71.13 139.8 71.13 132.9 71.13 125.31 73.89 117.03 81.48 110.81 90.45 110.81 95.28 99.08 100.11 93.56 105.64 93.56 111.16 83.9 114.61 74.92 124.27 70.78 138.07 63.19 144.98 54.91 144.98 50.08 144.98 44.55 144.98 36.96 150.5 36.96 164.3 36.96 164.3 34.89 171.89 30.06"/><polygon class="cls-2" points="83.74 321.36 65.84 321.33 51.66 318.53 42.53 318.53 34.47 314.93 28.45 309.67 27.13 304.4 17.89 300.41 12.03 296.51 4.83 296.51 4.83 287.96 8.46 277.15 12.03 270.72 17.47 265.96 21.83 254.33 24.32 254.33 24.79 250.61 19.76 243.69 11.36 238.35 14.99 230.18 17.95 230.18 17.95 227.76 14.49 220.17 14.49 213.95 29.3 189.28 37.27 181.97 37.27 164.61 51.07 164.61 51.07 155.78 55.36 151.5 61.38 151.5 64.92 145.94 69.71 139.34 69.71 125.08 72.67 116.19 80.97 109.4 89.5 109.4 94.06 98.32 99.47 92.14 104.81 92.14 109.87 83.29 113.5 73.86 123.65 69.51 137.16 62.08 143.56 54.4 143.56 35.55 162.88 35.55 162.88 34.11 171.13 28.87 172.66 31.26 165.72 35.67 165.72 38.38 146.4 38.38 146.4 55.42 138.99 64.3 124.83 72.08 115.72 75.99 112.39 84.6 106.46 94.98 100.76 94.98 96.5 99.84 91.4 112.23 81.98 112.23 75.1 117.86 72.54 125.54 72.54 140.26 67.26 147.54 62.93 154.33 56.53 154.33 53.91 156.95 53.91 167.44 40.11 167.44 40.11 183.22 31.52 191.09 17.33 214.73 17.33 219.56 20.78 227.15 20.78 233.01 16.83 233.01 14.94 237.27 21.73 241.59 27.74 249.85 26.82 257.17 23.8 257.17 19.88 267.63 14.27 272.53 11 278.41 7.67 288.42 7.67 293.67 12.89 293.67 19.35 297.98 29.54 302.35 30.98 308.12 36.01 312.52 43.13 315.7 52.08 315.73 66.25 318.52 83.36 318.52 93.2 315.84 101.13 308.63 109.52 297.49 116.83 290.91 128.44 290.91 134.7 283.4 138.07 268.55 141.93 255.43 153.83 258.4 158.4 256.44 220.94 247.92 220.94 264.03 228.68 269.98 235.5 266.88 240.9 264.57 249.74 268.25 255.53 271.15 262.71 276.18 266.54 283.3 268.84 279.66 274.72 273.04 281.83 272.25 289.95 275.5 289.95 278.71 292.79 279.18 301.93 279.18 306.44 276.36 306.44 269.25 301.65 261.02 300.93 253.19 299.51 246.09 301.16 237.84 311.93 237.13 315.38 232.3 326.06 231.58 331.98 228.03 331.98 203.4 337.85 197.53 341.62 192.69 336.85 190.04 331.36 186.61 326.43 184.5 321.35 180.14 317.08 175.87 314.16 170.75 310.9 163.59 300.09 157.5 295.81 153.23 290.36 148.46 282.86 142.46 284.42 133.09 288.34 126.56 284.65 117.33 279.05 114.22 270.43 112.23 259.6 112.23 249.6 112.94 244.71 110.5 239.62 101.04 237.11 95.4 230.94 93.34 228.64 88.75 225.69 84.33 225.69 75.92 221.82 67.54 219.11 65.37 214.39 66.04 206.94 61.57 196.59 53.98 189.38 48.22 184.55 37.85 180.76 34.7 174.34 31.32 175.66 28.81 182.46 32.42 186.85 36.08 191.67 46.42 198.31 51.73 208.57 59.25 214.98 63.1 219.92 62.39 224.11 65.74 228.53 75.3 228.53 83.47 231.14 87.4 232.95 91.02 239.19 93.1 242.19 99.83 246.78 108.37 250.17 110.06 259.55 109.4 270.91 109.43 280.08 111.55 286.9 115.34 291.49 126.81 287.13 134.09 285.93 141.28 292.18 146.28 297.75 151.16 301.82 155.22 313.1 161.57 316.71 169.52 319.35 174.13 323.32 178.1 327.94 182.06 332.77 184.15 338.29 187.6 345.88 191.82 339.92 199.47 334.81 204.57 334.81 229.64 326.93 234.37 316.91 235.03 313.46 239.87 303.52 240.53 302.4 246.09 303.75 252.86 304.41 260.14 309.28 268.48 309.28 277.93 302.75 282.02 292.44 282 287.12 281.11 287.12 277.42 281.44 275.14 276.12 275.74 271.04 281.45 266.36 288.94 260.53 278.12 253.99 273.54 248.56 270.82 240.92 267.64 236.64 269.48 228.3 273.27 218.1 265.42 218.1 251.16 159.16 259.2 154.07 261.38 143.88 258.84 140.81 269.26 137.31 284.69 129.77 293.75 117.91 293.75 111.52 299.5 103.14 310.63 94.6 318.39 83.74 321.36"/></svg>