<svg id="Layer_2" data-name="Layer 2" xmlns="http://www.w3.org/2000/svg" viewBox="0 0 350 350"><defs><style>.cls-1{fill:#999;}.cls-2{fill:#f90;}</style></defs><title>M_</title><path class="cls-1" d="M338.23,128.53l-2.82-6.75-4.07-3.56-5.46-6-5-.72s-2.74-3.43-3.4-3.41-5.16-.38-5.16-.38a29.63,29.63,0,0,1-4.66-.39,3.49,3.49,0,0,1-1.43-4.43c.95-2.21,4.56-4.13,4.56-4.13l4.73-3.93c1.13-1.36,11.56-3.26,11.56-3.26l1.87-5.36a10.75,10.75,0,0,0,.23-4.66c-.54-1.82-4.95-5.54-4.95-5.54l2.48-.72s1.09-3.35-1.42-4.12.75-3.34.75-3.34-25.78,6.91-29.08,8-7.19,1.91-18-.25-36.41-6.9-36.41-6.9L219.1,78.5l-7.62,1.31.09,3.74.24,10.59,3.55,2.66-1,3.64-7.59.55s-4.32,2.09-5.32,1.74-14.5-3.41-14.5-3.41l-2.09,3.29s-7.49-.33-8.36-.31-10.87-.87-10.87-.87l-12.08,22.48-5.68-3.11a15.93,15.93,0,0,0-1-3.84c-.52-.74-5.23-4.87-5.23-4.87l-8.31,2.19-.09,6.74-.81.55a42.34,42.34,0,0,1-14-7.54c-2.57-2.12-4.48-4.29-7.89-4.88-2.49-.43-6.17,1.09-7.65-2.34-.83-1.92.77-5,1.73-6.53,2.42-3.8,5.48-6.16,6.29-10.8a1.77,1.77,0,0,0-1.68-2.21c-3.77-.24-9.57-1.81-13.18-.33a6.86,6.86,0,0,0-1.91,1.35c-2.81,2.48,1.5,1.61-4.79,4.77-9.63,4.84-23.6,7.26-33.95,4.05-7.21-2.24-13.48-5.92-20.38-.79-3.06,2.27-5.23,5.51-7.9,8.18A42.25,42.25,0,0,1,12.24,114a1.77,1.77,0,0,0-.77,2.91,38.05,38.05,0,0,0,13.66,11c6.4,3,12.13,5,17.69,9.6,1.24,1,2.47,2.07,3.71,3.11a1.47,1.47,0,0,0,0,.4,18,18,0,0,0-2.11.28c7.07,6.23,15.13,10.37,22.62,16.06,5.57,4.22,6.9,10.26,4.31,16.73-2.89,7.25-9,12.81-14.14,18.44a116.54,116.54,0,0,0-11.65,14.26c2,1.58,5.72,2.07,6.73,3.77,1.12,1.89,1,4.22,6,7.51s6.72,6.5,6.85,12.23l.26,11.14s8.15,3.72,9.7,5.93,3.57,3.41,4.4,3.47,2.43-2.88,3.94-2.17,7.12,2.5,8.19,1.72,4-3.83,5.48-4.12,7.79,2.4,10.55,3.17a44.83,44.83,0,0,0,6.84,1.09s.54,5.56,10.79,10,12.65,15,18.62,14.21c1-6.18,6.83-6.81,12-5.1s12.35-5.44,15.31.48c2.61,5.22,12.87,10.91,15.25,12.18a29.59,29.59,0,0,1,.61-10.26c-1.29-2.63-2.78-6.51-3.54-8.52-1.06-2.8,3.63-1.08,6.11-1.8s12.46-7.6,14.76-9.15,3.17-6.89,3.46-8.56a35.4,35.4,0,0,0,0-5.82c0-1.16,3.19-6.06,4.81-7.59S225.8,229,225.8,229l-.4-2.82,1.22-5-1.78-4.95s2.86-5.89,3.5-6.73.14-1-.12-5.15-1.27-11.94-2.93-11.74-5.43-4.7-5.43-4.7a9.61,9.61,0,0,1-3,1.23c-1.33.2-3.4-3.08-5.11-5.37s-4.35-1.06-5.36-1.54-1.23-3-1.29-5.29a6.58,6.58,0,0,0-1.6-4.29c-.69-1-1.28-5-1.64-6.45S198.7,164,197.18,163s.05-5-.15-6.65-2.53-1.44-4.25-3.89c0,0,2.26-3,5.26-2.62l3,.43,2.42-10.36s4.92,4.21,7.65,7.14,6.62,6,8.87,9.77,4.78,5.21,5.63,6.19,8.16.64,8.16.64l1.24,3.13a8.92,8.92,0,0,1,1.94,4.61c.23,2.66.24,3.15,1.77,4.78s1.54,1.79,1.78,4.95.45,5,1.81,6.61,2.37,1.77,3,1.76,4.3-.93,5.87,2.36,3.93,4.73,5,6.21,2.84.6,1.92,4.11.42,3.82.42,3.82,6.55,2.68,7.21,2.83,5.32,0,5.32,0,7.24,3.82,10.93,5.24,9.67,1.11,11.68,1.73,9.33.62,9.33.62l3.08-3.4s-3.75-4.07-5.16-7.36-6.61-5.5-8-6.63-.71-4.14-1.9-7.94.31-5.83-.17-7.48-3.63-1.58-1.2-4.3,10-5.72,6.28-8.79-6.87-2.17-8.27-5.13l-1.4-3,4-5.08s4.28,2.56,6.76,2.17,7.39-4,9.22-4.2,7.38,2.66,7.38,2.66,1.06-4.51,4.68-6.09a16.69,16.69,0,0,0,5.08-3.11s3.31,6.41,4.54,2.06.52-6.33,0-7.48-.61-4.81,4.54-4.93,6-.64,6.42-2.64S338.23,128.53,338.23,128.53Z"/><path class="cls-2" d="M188.12,284.71l-2.33-1.24c-3-1.61-13.09-7.29-15.85-12.8-1.09-2.17-2.76-1.88-6.61-.63-2.48.8-5.29,1.72-7.88.87-3.15-1-6-1-7.83.1a5.26,5.26,0,0,0-2.35,3.88l-.17,1-1,.14c-3.78.5-6.2-2.36-9-5.69-2.61-3.07-5.56-6.56-10.35-8.62-8.18-3.53-10.62-7.9-11.34-10a41.25,41.25,0,0,1-6.11-1c-1-.28-2.38-.77-3.84-1.3-2-.71-5.28-1.88-6.1-1.84-.64.13-2.59,1.88-3.43,2.63-.6.54-1.07,1-1.45,1.23-2,1.48-8.69-1.2-9.54-1.55a5.74,5.74,0,0,0-1.17,1c-.72.7-1.39,1.37-2.36,1.29-1.33-.1-3.7-1.56-5.46-4.07-.91-1.3-5.89-4-9.12-5.45l-.81-.37-.28-12c-.12-5.29-1.69-8.09-6.21-11.08-4.18-2.76-5.15-5.07-5.85-6.75a9.91,9.91,0,0,0-.58-1.22c-.33-.55-1.65-1.09-2.82-1.56a14.69,14.69,0,0,1-3.56-1.82l-1-.8.72-1.09a118.34,118.34,0,0,1,11.79-14.44c.89-1,1.81-1.94,2.73-2.91,4.35-4.59,8.85-9.34,11.14-15.1,2.4-6,1-11.37-3.85-15.08-3-2.31-6.25-4.41-9.35-6.44a114.2,114.2,0,0,1-13.34-9.69l-2.17-1.91,2.29-.44-1.68-1.4C37.64,135,33.15,133,28.4,130.89c-1.26-.56-2.55-1.13-3.86-1.75a39.54,39.54,0,0,1-14.17-11.37,3.31,3.31,0,0,1-.68-2.94,3.27,3.27,0,0,1,2-2.18,41,41,0,0,0,14.35-9.16c.94-.94,1.81-1.95,2.73-3a34.33,34.33,0,0,1,5.32-5.3c6.37-4.74,12.39-2.63,18.21-.59,1.12.39,2.28.8,3.44,1.16,9.11,2.83,22.64,1.2,32.89-4a15.84,15.84,0,0,0,2.92-1.7,3.56,3.56,0,0,1,1.56-2.87,8.08,8.08,0,0,1,2.31-1.6c3-1.21,6.91-.66,10.4-.17,1.24.17,2.41.34,3.4.4A3.21,3.21,0,0,1,111.65,87a3.33,3.33,0,0,1,.63,2.67c-.62,3.58-2.47,6-4.26,8.26-.75,1-1.53,2-2.23,3.06-1.36,2.13-2,4.27-1.62,5.21.61,1.42,1.63,1.53,4,1.43a12.48,12.48,0,0,1,2.61.07c3.2.56,5.27,2.35,7.27,4.09.42.36.84.73,1.28,1.1a40.73,40.73,0,0,0,12.53,6.94l.09-6.69L142,110.52l.57.5a70.4,70.4,0,0,1,5.45,5.12,11.39,11.39,0,0,1,1.09,3.75l3.82,2.09,11.85-22,.93.08c3.77.34,10,.87,10.7.87h.12c1,0,5.57.19,7.52.27l2.18-3.44,1,.22c2.2.5,12.92,2.93,14.53,3.41a19.22,19.22,0,0,0,4.36-1.64l.25-.12,6.88-.5.5-1.75-3.32-2.49L210,78.61l8.66-1.49,23.71-10,.42.08c.26,0,25.77,4.76,36.43,6.9,10.37,2.08,14.07,1.33,17.25.29s28.1-7.72,29.15-8l6.67-1.79L326.9,68.9a5.92,5.92,0,0,0-1,1,3.55,3.55,0,0,1,1.93,1.69,5.92,5.92,0,0,1,.17,4.13l-.23.71-.75.22c1.43,1.37,3.08,3.16,3.47,4.49a11.8,11.8,0,0,1-.22,5.43l0,.1-2.15,6.14-.81.15c-4.55.83-10,2.17-10.79,2.83l-.12.12-5,4.1c-1.23.65-3.38,2.16-3.92,3.43a2.16,2.16,0,0,0,.65,2.55,31,31,0,0,0,4.17.29c2.26.2,4.72.38,5.1.38.53,0,1.3,0,4.19,3.51l5,.71,5.75,6.34,4.26,3.73,3,7.31c.2.93,1.16,5.71.66,7.91-.73,3.25-2.93,3.64-7.77,3.75-1.09,0-2.52.25-3.1,1.19a2.1,2.1,0,0,0-.18,1.73c.71,1.56,1.36,3.93.08,8.46-.55,2-1.6,2.46-2.38,2.53-1.54.17-2.94-1.35-3.91-2.83a23.34,23.34,0,0,1-4.12,2.27c-2.89,1.26-3.86,5.08-3.87,5.12l-.42,1.77-1.61-.83c-2.76-1.42-5.83-2.6-6.57-2.51a18.43,18.43,0,0,0-3.56,1.71,20.5,20.5,0,0,1-5.6,2.48c-2.13.34-5-.94-6.61-1.75l-2.7,3.44,1,2.17c.49,1,1.23,1.35,2.85,1.94a15.67,15.67,0,0,1,5,2.7,3.63,3.63,0,0,1,1.53,3c-.08,2.24-2.5,4-4.83,5.61a19.07,19.07,0,0,0-2.82,2.25,3.7,3.7,0,0,0-.49.65l.36.27a3.92,3.92,0,0,1,1.64,2,6.21,6.21,0,0,1,0,2.82,9,9,0,0,0,.19,4.63,23.94,23.94,0,0,1,.89,4.75,5.7,5.7,0,0,0,.57,2.53,16.38,16.38,0,0,0,1.58,1c2.22,1.32,5.57,3.32,6.78,6.16,1.29,3,4.86,6.92,4.9,7l.88,1-4.37,4.82H303c-.82,0-7.59,0-9.73-.68a21.86,21.86,0,0,0-3.5-.4,30.92,30.92,0,0,1-8.27-1.36c-3.32-1.27-9.28-4.36-10.76-5.13a41.3,41.3,0,0,1-5.3-.09c-.7-.16-5.38-2.06-7.4-2.88a2.28,2.28,0,0,1-1.17-1c-.61-1-.65-2.48-.12-4.51a3.07,3.07,0,0,0,.19-1.44l-.32-.17A4.43,4.43,0,0,1,255,198.9a11.48,11.48,0,0,0-1.26-1.36,17.4,17.4,0,0,1-3.83-5c-.83-1.74-2.44-1.8-4.06-1.6l-.5,0c-1.49.06-2.83-.69-4.15-2.27-1.65-2-1.89-4.1-2.14-7.41-.21-2.83-.21-2.83-1.39-4.08-1.84-2-1.92-2.84-2.14-5.46v-.17a7.56,7.56,0,0,0-1.59-3.8l-.15-.18-1-2.42c-7.06.23-7.94-.78-8.28-1.17a9.92,9.92,0,0,0-.87-.78,20.89,20.89,0,0,1-4.91-5.62,35,35,0,0,0-5.93-6.78c-1-.95-1.91-1.84-2.76-2.75-1.63-1.75-4.1-4-5.77-5.48l-2.18,9.33-4.29-.61a4.12,4.12,0,0,0-3.15,1.24,7.81,7.81,0,0,0,1.45,1,3.65,3.65,0,0,1,2.29,2.72,10.52,10.52,0,0,1-.24,2.77,9,9,0,0,0-.2,2.89,15.93,15.93,0,0,0,1.43.73c1.61.76,3.44,1.62,3.86,3.31.11.43.23,1.07.37,1.78a23.5,23.5,0,0,0,1.06,4.2l.17.24a7.71,7.71,0,0,1,1.68,4.82c.07,2.87.39,3.78.54,4l.65,0a5.5,5.5,0,0,1,5.17,2l.91,1.24c.82,1.13,2.31,3.2,3,3.55a8.5,8.5,0,0,0,2.28-1l1.09-.69.79,1c1.54,2,3.53,3.94,4.22,4.15a2,2,0,0,1,1.46.49c2.13,1.76,2.81,10.07,3,12.58.1,1.56.23,2.54.32,3.19a3.3,3.3,0,0,1-.49,2.91c-.33.44-1.81,3.33-3.09,6l1.72,4.78-1.25,5.17.59,4.17h-1.64c-5.07,0-11.17.41-12.15,1.1-1.45,1.37-4.18,5.62-4.35,6.6,0,.15,0,.46,0,.83a27.43,27.43,0,0,1-.09,5.18l0,.15c-.61,3.49-1.62,7.7-4,9.33l-.77.52c-5.89,4-12.2,8.18-14.38,8.81a11.47,11.47,0,0,1-3.58.21c-.46,0-1.07,0-1.51,0,.6,1.59,2.11,5.53,3.4,8.16l.23.47-.13.51a27.86,27.86,0,0,0-.57,9.77Zm-20.55-18.48a5.12,5.12,0,0,1,4.9,3.17c1.65,3.29,7.29,7.36,12.4,10.31a28.91,28.91,0,0,1,.7-7.6c-.91-1.92-2-4.61-3.37-8.17a2.55,2.55,0,0,1,.17-2.53c.86-1.19,2.49-1.11,4.22-1a9.7,9.7,0,0,0,2.66-.1c1.36-.4,5.93-3.23,13.58-8.44l.78-.53c.79-.53,1.92-2.26,2.83-7.47l0-.16a26.28,26.28,0,0,0,.05-4.56c0-.39,0-.73,0-1,0-1.9,3.76-7.25,5.26-8.66s7.9-1.81,12.44-1.85l-.21-1.47,1.18-4.87-1.83-5.11.26-.54c.69-1.41,3-6.08,3.65-7l0,0c0-.14,0-.47-.09-.78-.09-.69-.24-1.74-.34-3.4-.32-5.05-1.19-9.34-1.84-10.42-1.7-.19-3.78-2.23-5.47-4.29a8.63,8.63,0,0,1-2.39.82c-1.94.3-3.63-2-5.57-4.72l-.88-1.2c-.67-.89-1.5-.93-2.78-.87a4.22,4.22,0,0,1-2-.24c-1.63-.77-2-3.17-2.1-6.54a4.92,4.92,0,0,0-1.15-3.24l-.19-.27c-.62-.89-1-2.75-1.52-5.28-.13-.66-.24-1.24-.34-1.64s-1.61-1.09-2.32-1.43a16.71,16.71,0,0,1-1.8-.93c-1.78-1.13-1.36-3.67-1-5.71a10,10,0,0,0,.22-2,3,3,0,0,0-.86-.6,8.58,8.58,0,0,1-3.14-2.66l-.59-.84.61-.82c.11-.15,2.81-3.72,6.6-3.17l1.72.25,2.66-11.37,1.77,1.52c.2.17,5,4.3,7.76,7.25.79.85,1.7,1.72,2.65,2.65a37.64,37.64,0,0,1,6.4,7.37,18.35,18.35,0,0,0,4.31,4.9,13.18,13.18,0,0,1,1.06,1c.86.33,4.33.42,7.15.29l1,0,1.53,3.87a10.36,10.36,0,0,1,2.11,5.21v.17c.21,2.43.22,2.53,1.38,3.76,1.8,1.91,1.9,2.41,2.15,5.76s.44,4.61,1.49,5.86,1.66,1.26,1.92,1.25l.22,0c3.41-.41,5.75.66,7,3.19a14.56,14.56,0,0,0,3.26,4.25,13.47,13.47,0,0,1,1.59,1.75,1.75,1.75,0,0,0,.65.49c1.47.83,2.23,1.92,1.49,4.79a4.86,4.86,0,0,0-.23,2.22c3,1.23,6.36,2.56,6.83,2.69s2.9.05,5,0h.37l.33.17c.07,0,7.21,3.8,10.77,5.17A29,29,0,0,0,290,214a21.35,21.35,0,0,1,4.13.52,49.08,49.08,0,0,0,8.28.55l1.81-2a30.78,30.78,0,0,1-4.56-6.79c-.85-2-3.72-3.7-5.63-4.84a16.35,16.35,0,0,1-1.95-1.27c-1.19-1-1.37-2.57-1.57-4.39a21.24,21.24,0,0,0-.78-4.21,11.73,11.73,0,0,1-.28-5.94,4.41,4.41,0,0,0,.1-1.57c0-.12-.41-.4-.61-.55a3.21,3.21,0,0,1-1.55-2.21,4,4,0,0,1,1.26-2.88,20.32,20.32,0,0,1,3.3-2.67c1.35-1,3.61-2.56,3.64-3.41,0-.23-.35-.55-.5-.67a12.9,12.9,0,0,0-4.2-2.23c-1.69-.62-3.43-1.25-4.44-3.39l-1.77-3.75,5.29-6.75,1.07.64c1.49.89,4.38,2.21,5.81,2a20.41,20.41,0,0,0,4.66-2.16c2.15-1.19,3.52-1.93,4.61-2,1.59-.18,4.72,1.13,6.73,2.08a10,10,0,0,1,4.93-5.41,15.94,15.94,0,0,0,4.63-2.8l1.37-1.39.91,1.73a11,11,0,0,0,1.83,2.59c0-.08.06-.17.09-.27,1.16-4.11.42-5.73.07-6.51a4.92,4.92,0,0,1,.36-4.41c.69-1.11,2.2-2.44,5.44-2.52,4.75-.11,4.84-.5,5.07-1.54.27-1.21-.24-4.61-.64-6.57l-2.64-6.32-3.94-3.46-5.12-5.65-5.05-.72-.35-.44a24.92,24.92,0,0,0-2.62-2.89c-1.14,0-4-.29-5-.38a24.19,24.19,0,0,1-5-.48,4.43,4.43,0,0,1-2.25-2.39,4.94,4.94,0,0,1,0-3.92c1-2.42,4.28-4.32,5.07-4.75l4.58-3.81c1.4-1.32,6.79-2.57,11.45-3.45l1.58-4.53a9,9,0,0,0,.22-3.84c-.25-.84-2.53-3.2-4.51-4.86l-2-1.71,4.2-1.22a2.36,2.36,0,0,0-.13-1.27.75.75,0,0,0-.5-.38,2.48,2.48,0,0,1-1.91-1.9,2.3,2.3,0,0,1,0-.49c-7.15,1.93-23,6.21-25.52,7-3.55,1.15-7.64,2-18.68-.21-9.89-2-32.61-6.19-36-6.82l-23.39,9.81L212.93,81l.29,12.42L217,96.25l-1.58,5.53-8.31.6c-4.64,2.22-5.78,1.82-6.16,1.69-.7-.24-8.2-2-13.37-3.14l-2,3.14-.82,0c-3-.13-7.67-.31-8.27-.31-.83,0-7.34-.55-10.1-.8l-12.31,22.91-7.56-4.14-.1-.7a15.75,15.75,0,0,0-.74-3.26c-.29-.37-2.42-2.33-4.42-4.09l-6.53,1.72-.09,6.4-2,1.36-.66-.21a44,44,0,0,1-14.49-7.79c-.46-.38-.91-.77-1.34-1.14-1.94-1.68-3.47-3-5.9-3.44a10.29,10.29,0,0,0-2,0c-2.1.09-5.26.22-6.7-3.14-1.15-2.68.9-6.38,1.84-7.85.77-1.21,1.59-2.26,2.38-3.27,1.72-2.21,3.21-4.12,3.71-7a.56.56,0,0,0-.06-.43.44.44,0,0,0-.31-.12c-1.1-.07-2.32-.24-3.62-.42-3.13-.44-6.68-.93-8.94,0a5.41,5.41,0,0,0-1.43,1l-.08.07a2.53,2.53,0,0,0-.63.68c.1,1.62-.74,2.42-4.47,4.29C80.78,98.94,66.4,102,55,98.46c-1.21-.38-2.4-.79-3.54-1.19-5.59-2-10.41-3.65-15.58.19A31.76,31.76,0,0,0,31,102.34c-.91,1.06-1.86,2.15-2.87,3.16a43.78,43.78,0,0,1-15.34,9.8.51.51,0,0,0-.33.27.55.55,0,0,0,.16.43,36.74,36.74,0,0,0,13.15,10.57c1.3.61,2.57,1.17,3.81,1.73,4.94,2.2,9.6,4.27,14.18,8.06l2.45,2L48.06,140l-.13.8.16,1.46-.24,0c3.34,2.66,6.85,4.95,10.52,7.35,3.14,2.05,6.39,4.18,9.52,6.55,5.91,4.48,7.65,11.19,4.77,18.39-2.5,6.26-7.19,11.21-11.72,16-.91,1-1.82,1.92-2.7,2.88a124.87,124.87,0,0,0-10.68,12.86c.54.27,1.15.51,1.74.75,1.66.67,3.38,1.36,4.2,2.74a12.27,12.27,0,0,1,.75,1.57c.63,1.5,1.34,3.19,4.8,5.48,5.31,3.51,7.34,7.14,7.48,13.38l.24,10.25c2.36,1.12,8,3.94,9.46,6a8.36,8.36,0,0,0,3.09,2.78l.42-.4c.92-.9,2.46-2.4,4.27-1.54,1.56.74,5.77,1.93,6.86,1.78.27-.21.68-.58,1.11-1,1.92-1.72,3.49-3.06,4.83-3.31s3.34.45,7.55,2c1.41.51,2.75,1,3.64,1.23a43.55,43.55,0,0,0,6.57,1l1.18.09.12,1.18s.75,4.85,9.94,8.81c5.4,2.33,8.72,6.25,11.39,9.39,2.3,2.71,3.83,4.42,5.54,4.7a7.74,7.74,0,0,1,3.42-4.66c2.57-1.55,6.18-1.69,10.18-.37,1.7.56,3.95-.17,6.12-.87A17.36,17.36,0,0,1,167.57,266.24Zm17.22-3.52Zm-102-12.83h0Zm8.15-.8h0Zm134.17-57.85h0Zm92.38-81.77h0Zm-.49-.1Z"/></svg>