<svg id="Layer_1" data-name="Layer 1" xmlns="http://www.w3.org/2000/svg" viewBox="0 0 350 350"><defs><style>.cls-1{fill:#999;}.cls-2{fill:#f90;}</style></defs><title>M</title><path class="cls-1" d="M204.61,143.48s-12.5-19.47-12.88-24.09c.38-7.5-.53-14-1.74-16.44s-2.12-1.21-3.18-1.06-4.47.53-4.85-1.74-2.2-21.59-6.36-29.77c-4.47-9.24-10-16.36-14-19-2.65-4.54-3.41-5.53-2.65-11.44s-1.36-17.87-6.21-23.4-3.48-.53-22.34-9.47c-2-.45-3.26,2.73-3.71,3.79a42.43,42.43,0,0,1-11.29,16.28c-3.64,6.59-3.86,10.38-3.11,12.72s1.89,8.79.68,12.5c-.91,4.7-1.51,8.86.68,12.35,1.06,4.17,0,11.21.53,13.63s4.32,7.42,5,8.86.15,6.82-2.42,9.47-6.82,7.27-4.32,11.21,8,4.92,10.38,9.47,2.73,4.17,2.73,4.17-9.47,1.21-15.15,3.71-11.82,7.57-12.8,8.86-8.48,10.83-11.21,12-6.06,5.53-6.82,5.68,8.18,1.36,10.3,3.33c-.91,4.54-.53,7.12,3.56,10.6s8.18,6.29,8.1,9.24-3,4.7-3.26,7.35-.45,4.32,1.44,5.45,5.76,12.5,6.74,15.91,10.68,22.27,11.13,22.8,10.91,18,10.91,18-.91,1.06,3.18,1.06,23.4-3,25.6-4.09,4.47,2.12,4.85,4.62,3.71,11.51,5,13,3.48,9.54,4.09,10.22,7.65,11.21,16.06,18.1,9.16,11.29,9.92,14,.08,8.1,1.67,10.45,6.89,9.92,9.39,11.44,7.57,7,8.63,7.5,10.15,8.63,12.8,9.62A33.62,33.62,0,0,1,235,343s2.12-7.73,2.88-9.24,5.23-13.1,5.45-14.85,6.29-14,6.59-15.22,6.21-14.92,6.36-15.6,3.26-10.53,4.09-11,8-8.41,9.16-9.47,1.14-4.47.53-7.42.43-7.35.43-7.35-5.88-2.12-9.06-5.3S251.27,230.27,250.06,226c-2.73-4.32-10.53-16.89-14.62-18.33s-15.68-9-18.1-11.44c-.38-3.11-5.38-17.34-7.12-20.6-.53-4.62.83-12.88-1.74-17.34l2.12-3.71s-4.62,1-5.3-.45S204.61,143.48,204.61,143.48Z"/><path class="cls-2" d="M235.85,345.19l-1.62-1a32.37,32.37,0,0,0-5-2.52c-1.75-.65-5.16-3.39-9.44-6.91-1.45-1.19-3.1-2.55-3.48-2.76-.6-.25-1.41-1-3.58-3.07a43,43,0,0,0-5.18-4.5c-2.83-1.72-8.24-9.51-9.83-11.85-1.19-1.75-1.33-4.46-1.46-7.07a20.29,20.29,0,0,0-.4-3.79l-.14-.52c-.7-2.62-1.76-6.58-9.31-12.77-7.26-6-13.53-14.58-15.59-17.41-.32-.44-.54-.74-.63-.86-.39-.44-.67-1.2-1.63-4-.66-1.93-1.87-5.54-2.45-6.17-1.52-1.7-4.95-11.06-5.34-13.68a5.37,5.37,0,0,0-2.13-3.54.64.64,0,0,0-.67,0c-2.63,1.36-22.35,4.25-26.25,4.25-2.72,0-4-.44-4.52-1.5a1.75,1.75,0,0,1-.16-.73c-4.06-6.76-10-16.62-10.52-17.33-.71-.82-10.41-19.94-11.38-23.27C103.61,198.95,100.2,190,99,189c-2.69-1.61-2.4-4.14-2.09-6.81a9,9,0,0,1,1.8-4,6.28,6.28,0,0,0,1.45-3.24c0-1.79-2.72-4.08-5.65-6.49-.64-.53-1.3-1.07-2-1.63-4.34-3.7-4.93-6.71-4.2-11-1.76-.94-5.78-1.79-7.42-2.14-1.92-.41-2.8-.59-2.79-1.81v-1.15l1-.21c.27-.22.85-.8,1.33-1.28,1.47-1.48,3.48-3.5,5.39-4.35s7.88-8,10.66-11.61c1.17-1.53,7.59-6.76,13.35-9.3a61,61,0,0,1,13.09-3.45c-.38-.64-.83-1.45-1.36-2.48-1.08-2.09-3-3.35-5-4.69a16.35,16.35,0,0,1-5.27-4.67c-3.2-5,2.2-10.59,4.5-13s2.53-7.07,2.16-7.87c-.18-.39-.76-1.27-1.37-2.21-1.48-2.26-3.32-5.08-3.73-7a25.2,25.2,0,0,1-.13-5.23,36.37,36.37,0,0,0-.33-8.15c-2.3-3.84-1.7-8.24-.75-13.17l0-.17c1-3.15.12-9.15-.68-11.62-1.1-3.41,0-7.94,3.21-13.84l.11-.2.17-.16a41.55,41.55,0,0,0,10.78-15.4l.16-.4.08-.19c.59-1.4,2.16-5.11,5.24-4.43l.3.1c9.5,4.5,13.75,5.4,16.29,5.94,2.85.61,4,1,6.51,3.87,5.24,6,7.35,18.31,6.55,24.52-.67,5.18-.18,6,2.15,10l.16.27c4.45,3.1,10,10.65,14.23,19.39,3.64,7.14,5.51,22.38,6.22,28.12.12,1,.21,1.7.26,2,.12.7,1.72.79,3.25.57a2.57,2.57,0,0,0,.4-.13c1.27-.49,2.91-.71,4.25,2,1.47,2.93,2.24,9.93,1.9,17,.38,3.25,7.93,16,12.65,23.35l.22.35v.42a68.87,68.87,0,0,0,.5,9.86,9.87,9.87,0,0,0,3.77-.19l3.1-.66-3.31,5.79c1.55,3.33,1.48,7.91,1.43,12a49.08,49.08,0,0,0,.08,4.91c1.79,3.56,6.29,16.3,7.06,20.31,2.81,2.51,13.45,9.46,17.25,10.8s9.77,10.06,15,18.39l.44.7.06.2c1.19,4.24,8,18,11,21s8.49,5,8.54,5l1.19.43-.29,1.23s-1,4.13-.42,6.74c.41,2,1.15,6.91-1,8.77-.46.4-2.11,2.17-3.7,3.87a69.29,69.29,0,0,1-5.47,5.61c-.83,1.32-3.42,9.31-3.63,10.21-.08.36-.49,1.36-2.72,6.69-1.38,3.3-3.47,8.29-3.65,8.95a60.14,60.14,0,0,1-2.47,5.63c-1.47,3.18-3.93,8.49-4.08,9.44-.27,2-4.83,13.76-5.59,15.29-.51,1-2,6-2.78,9Zm-63.51-76.84c.13.17.38.5.73,1,2,2.76,8.12,11.16,15.1,16.88,8.25,6.77,9.51,11.44,10.25,14.23l.13.5a21.77,21.77,0,0,1,.5,4.41c.11,2.12.23,4.53,1,5.63,3.1,4.57,7.22,10,9,11a42.94,42.94,0,0,1,5.66,4.87,34.58,34.58,0,0,0,2.84,2.56,29.21,29.21,0,0,1,4.06,3.13c2.69,2.21,7.18,5.91,8.63,6.44a31.21,31.21,0,0,1,3.94,1.84,75.61,75.61,0,0,1,2.48-7.73c.85-1.7,5.13-13,5.32-14.4.14-1.08,1.45-4,4.32-10.25,1-2.2,2.17-4.69,2.3-5.15.16-.65,1.25-3.29,3.78-9.34,1.15-2.74,2.45-5.85,2.58-6.28,0,0,3.09-10.94,4.78-11.86.46-.34,3.19-3.28,5-5.22,2.07-2.22,3.36-3.6,3.91-4.07.38-.33.8-2.52.07-6.07a20,20,0,0,1,.2-6.75,28.19,28.19,0,0,1-8.44-5.18c-3.5-3.5-10.32-17.53-11.66-22l-.22-.36c-2.5-4-10.09-16-13.56-17.22-4.43-1.56-16.17-9.31-18.63-11.77l-.35-.35-.06-.48c-.33-2.74-5.21-16.84-7-20.1l-.13-.24,0-.27a46.46,46.46,0,0,1-.13-5.52c.05-4,.12-8.58-1.43-11.28l-.41-.7,1.12-2c-1.67,0-3.32-.3-3.95-1.61-.7-1.49-.81-7.75-.82-10.8-2-3.2-12.49-19.76-12.87-24.38v-.19c.37-7.4-.54-13.63-1.59-15.73a3.18,3.18,0,0,0-.43-.68l-.26.1a4.6,4.6,0,0,1-1,.3c-5.25.75-6.26-1.79-6.45-2.91-.06-.35-.15-1.1-.28-2.15-.69-5.6-2.52-20.48-5.95-27.21-4.69-9.69-10.17-16.25-13.53-18.47l-.28-.18-.48-.83c-2.47-4.22-3.3-5.64-2.52-11.79.7-5.42-1.29-17.07-5.87-22.29-2.06-2.35-2.62-2.47-5-3-2.64-.56-7.06-1.5-16.71-6.06-.29,0-.93.42-1.92,2.77l-.08.2-.13.32A44.3,44.3,0,0,1,116.52,28c-2.74,5-3.71,8.85-2.89,11.4s2,9.09.71,13.28c-.87,4.53-1.38,8.24.5,11.24l.12.19.05.22c.67,2.62.56,6.08.47,9.14a25.91,25.91,0,0,0,.07,4.54c.3,1.37,2.12,4.16,3.33,6a27.51,27.51,0,0,1,1.56,2.55c1,2.15.2,8.09-2.69,11.06s-5.9,6.69-4.14,9.46a14.05,14.05,0,0,0,4.43,3.82c2.15,1.41,4.59,3,6,5.76A28.11,28.11,0,0,0,126,120l3.49-.45L126,123l-.54-.07c-1.46.2-9.58,1.4-14.53,3.57a46,46,0,0,0-12.24,8.43c-.34.45-8.43,11-11.76,12.48a18.79,18.79,0,0,0-4.44,3.66c3.49.77,6.85,1.65,8.31,3l.58.54-.16.78c-.83,4.17-.49,6.2,3.09,9.25.65.55,1.29,1.08,1.92,1.6,3.63,3,6.76,5.58,6.68,8.75a8.74,8.74,0,0,1-1.93,4.76,6.57,6.57,0,0,0-1.33,2.71c-.31,2.75-.28,3.45.76,4.08,2.89,1.74,7.33,16.58,7.37,16.73.91,3.14,10.13,21.16,10.92,22.36h0c.85,1.21,7.19,11.73,11,18l.16.26a11.28,11.28,0,0,0,1.81.11c4.22,0,23.1-3,24.95-3.93a3.48,3.48,0,0,1,3.26,0c2,1,3.34,3.6,3.64,5.64.37,2.45,3.68,11.13,4.65,12.22s1.77,3.48,3,7.16C171.62,266.43,172.13,268,172.34,268.35Zm88.7,10h0Zm-88.77-10.06,0,.06Zm-93-117.85h0Z"/></svg>