<svg id="Layer_1" data-name="Layer 1" xmlns="http://www.w3.org/2000/svg" viewBox="0 0 350 350"><defs><style>.cls-1{fill:#999;}.cls-2{fill:#f90;}</style></defs><title>M</title><polyline class="cls-1" points="39.89 267.29 39.89 260.51 39.89 253.76 45.82 253.76 52.04 253.76 56 250.61 52.61 248.07 47.94 248.07 47.94 245.24 41.87 245.24 39.89 242.41 39.89 240.15 39.89 235.63 37.34 235.63 34.52 226.59 34.52 219.24 29.43 213.58 20.1 213.58 14.16 213.58 6.25 210.76 6.25 206.8 6.25 203.41 11.9 200.58 20.1 198.04 27.73 195.49 44.13 190.41 52.61 179.66 56 172.88 79.74 157.05 84.83 150.83 88.22 146.31 95.57 141.22 90.48 141.22 91.05 125.39 91.61 116.91 95.57 114.09 95.57 111.83 98.4 106.17 98.4 102.21 105.18 102.21 108.01 102.21 108.01 97.13 114.23 97.13 118.75 97.13 123.27 89.78 131.75 89.78 138.54 89.78 142.49 87.52 142.49 80.73 147.02 76.78 152.1 76.78 156.63 79.6 156.63 84.69 160.02 86.95 171.89 86.95 176.98 88.65 181.5 89.21 187.72 88.08 191.24 87.52 198.46 86.39 202.98 86.39 202.98 89.78 202.98 93.73 202.98 96.56 191.24 98.82 188.85 106.74 188.85 109.56 188.85 112.39 184.89 110.13 184.89 114.65 185.46 118.04 183.2 120.87 175.28 121.44 168.5 120.31 164.54 120.31 164.54 124.83 163.98 132.74 163.98 136.13 167.37 137.83 171.89 135.57 174.15 127.65 176.41 142.92 180.94 142.92 183.76 143.48 180.94 148.01 184.33 150.83 187.16 150.83 188.28 158.18 191.24 157.62 188.85 161.01 191.24 167.51 192.53 166.94 194.5 163.27 198.18 162.14 201.57 160.73 206.09 161.01 207.51 162.7 207.51 164.68 207.51 168.36 204.68 172.03 202.98 177.12 201 179.1 198.74 179.1 195.63 179.95 195.07 183.62 198.74 186.16 201.29 187.86 201.85 189.84 207.51 189.84 211.46 189.84 221.36 189.84 225.6 189.84 227.86 189.56 227.86 185.6 229.84 180.23 231.25 177.4 236.34 176.56 246.8 175.42 260.93 175.99 266.02 174.86 271.11 174.01 273.93 172.03 275.63 167.79 277.04 162.7 277.04 158.18 280.25 155.92 285.8 151.96 289.76 148.29 292.02 140.09 292.02 136.13 295.42 133.87 303.05 133.87 309.83 133.87 316.61 133.31 320.57 131.61 324.81 128.5 329.05 128.5 333.01 128.5 333.01 131.61 333.01 136.7 333.01 138.96 339.23 138.96 343.75 138.96 343.75 141.22 341.21 144.05 337.81 145.18 335.27 146.59 333.86 149.42 332.73 152.53 331.03 154.22 331.03 161.29 331.03 165.25 327.07 164.97 322.55 164.97 316.61 165.53 310.4 165.53 305.31 165.81 301.07 166.1 297.39 168.92 294 170.62 293.44 172.03 295.42 177.4 298.24 182.49 301.07 185.6 302.48 187.3 311.81 185.6 314.92 183.62 318.03 187.01 316.61 187.86 304.18 198.04 306.44 203.13 303.05 203.97 294.28 205.39 289.48 205.1 289.2 207.93 290.89 209.91 293.15 213.02 294.57 213.3 296.55 213.87 298.81 213.87 301.92 216.13 305.59 216.69 308.35 217.54 312.09 219.8 309.82 221.84 296.62 220.87 284.3 218.93 276.19 216.41 273.08 216.41 267.2 215.17 265.74 214.43 266.03 218.37 266.61 223.9 266.87 227.15 264.78 229.39 261.61 231.28 257.82 230.54 251.6 232.24 249.34 232.24 246.28 232.78 244.53 233.09 243.41 237.04 241.43 240.44 237.75 240.72 235.21 241 231.53 241.28 231.53 237.04 231.53 232.52 232.1 220.65 231.83 212.57 231.33 207.66 229.55 200.58 229.55 196.62 226.16 198.04 219.66 198.04 209.2 203.13 199.18 208.26 190.26 211.89 182.21 217.04 175 219.24 168.66 224.04 151.82 226.02 142.49 225.46 141.08 229.41 148.71 233.09 150.17 235.63 152.95 237.33 155.21 241.28 156.63 243.55 158.06 248.13 160.3 251.18 162 253.76 161.79 256.89 158.32 257.96 150.97 257.96 148.71 257.96 144.57 257.54 140.8 256.55 137.12 256.55 134.86 257.25 130.34 257.25 127.15 256.72 120.16 253.76 120.73 258.24 122.42 260.22 122.42 262.2 121.01 262.2 118.75 262.2 117.53 264.84 115.36 268.42 111.97 268.42 107.16 268.42 99.78 267.54 92.83 266.55 86.26 265.87 79.74 265.59 75.94 266.29 72.4 267.48 66.74 266.44 63.91 267.01 61.65 267.01 59.96 268.42 57.41 273.23 53.17 273.23 50.63 273.23 46.11 273.23 41.3 273.23 39.89 271.81 39.89 269.55"/><path class="cls-2" d="M58.27,274.64H40.71l-2.24-2.24v-2.85H41.3v1.67l.58.58H56.56l2.28-4.3,2.3-1.92h2.63l3-.59,5.57,1,3.39-1.12,4-.73,6.68.28,6.65.68,7,1,7.26.86h7.32l1.72-2.83,1.56-3.39,3.16,0-1.63-1.9-.93-7.34,9.1,3.85,2.91.48h4.19l2.26-.71,4.25,0,3.66,1,4,.4h9.32l2.33-.72.11-1.68L159.12,252l-2.33-3.18-1.45-4.63L154,242l-2.11-3.69-2.78-1.7-1.42-2.48-8.38-4,2.2-6.16,10.27.62,16.33-1.92,6.23-4.72,7.26-2.22,8.12-5.16,8.86-3.61,10-5.1,10.78-5.24h6.54L231,194.5v5.91l1.77,7.11.5,4.91.27,8.23-.57,11.93v7.16l2.15-.17,2.5-.28,3-.23,1.51-2.6,1.33-4.64,5.92-1h2.07l6.35-1.73,3.58.69,2.53-1.51,1.52-1.63-.21-2.63-.58-5.49-.48-6.47,3.54,1.77,5.56,1.17h3.18l8.22,2.56,12.16,1.91,12.53.93.4-.36-2-1.18-2.49-.77-3.91-.6-3-2.19h-2l-2.11-.6-1.9-.38-2.55-3.51-2.05-2.4.48-4.78,6,.35,8.55-1.38,1.7-.42-2-4.53,13.37-10.93-1.13-1.24-2.34,1.49-10.42,1.89L300,186.51l-3-3.33-2.92-5.29L291.92,172l1-2.42,3.75-1.88,3.91-3,4.67-.31,5.1-.28h6.23l6-.57h4.62l2.44.17V153.64l1.89-1.89,1.09-3,1.61-3.22,3.17-1.73,3-1,1.93-2.14v-.3H331.59V129.92h-6.32l-4.15,3L317,134.7l-7.13.59h-14l-2.4,1.6v3.39L291,149.05l-4.39,4.06-8.17,5.8v4l-1.52,5.42L275.09,173l-3.44,2.41-5.4.9-5.19,1.16-14.21-.57L236.49,178l-4.3.72-1.06,2.11-1.86,5.06v5l-3.68.45H200.78l-.72-2.5L198,187.34l-4.42-3.06.84-5.46,4.37-1.14h1.67l1.33-1.33,1.67-5,2.68-3.48v-4.66l-.69-.83-3.58-.22-3.22,1.33-3.12,1L193.54,168l-3.11,1.37-3.17-8.62.8-1.13-1,.18-1.17-7.6h-2.12l-4.74-3.95,2.4-3.83-.68-.14h-5.6l-1.48-10-.63,2.2-5.71,2.86L162.56,137v-4.37l.56-7.87v-5.89l5.61,0,6.62,1.1,7.13-.51,1.48-1.85-.48-3v-7l4,2.26v-3.42l2.7-8.93,11.43-2.2V87.8h-3l-10.63,1.68-6.4,1.17-5-.65-4.87-1.62H159.59l-4.38-2.92V80.39l-3.51-2.2h-4.15l-3.64,3.18v7l-5,2.86H124.06l-4.52,7.35H109.43v5.09H99.82v2.88L97,112.16v2.66l-4,2.86-.52,7.81L92,139.8h8.16l-10.89,7.54L86,151.68l-5.26,6.43-.18.12L57.1,173.85l-3.38,6.69L45,191.63l-16.81,5.22-7.6,2.54-8.11,2.52-4.77,2.38v5.47l6.74,2.41H30.06l5.87,6.53v7.68l2.45,7.84H41.3V242l1.3,1.86h6.76v2.83h3.72l5.24,3.93-5.78,4.6H41.3v12.11H38.47V252.35H51.55l2.14-1.7-1.55-1.16H46.53v-2.83h-5.4l-2.66-3.8V237H36.3L33.1,226.8v-7L28.8,215H13.92l-9.09-3.25v-9.22l6.65-3.3,8.2-2.54,7.6-2.54,16-5L51.4,178.9l3.49-7L78.78,156l5-6.05,3.49-4.66L91,142.64H89l.62-17.3.61-9.19,3.91-2.79v-1.87L97,105.84v-5h9.61V95.71H118l4.52-7.35h15.68l2.92-1.67V80.09l5.41-4.73h6L158,78.82v5.11l2.4,1.6h11.67l5.17,1.72,4.17.52,6-1.09,11-1.72h5.94V97.73l-12,2.32-2.08,6.9v7.89l-4-2.26v2l.65,3.9-3,3.8-8.7.62-.35-.06,2.77,18.7,3.58,0,4.84,1-3.26,5.21,2,1.71h3.53l1.09,7.1,5-.95-4,5.65,1.45,3.93,1.65-3.06,4.16-1.28,3.63-1.51,5.46.34,2.13,2.56v6.65l-3,3.87-1.73,5.18-2.63,2.63h-2.66l-2,.56L196.6,183l2.95,2,3,2,.41,1.45h22.59l.93-.12v-3l2.13-5.75,1.74-3.47,5.8-1L246.75,174l14.05.56,4.91-1.09,4.85-.81,2.22-1.55,1.51-3.78,1.34-4.83v-5.06l9.28-6.59,3.59-3.34,2.1-7.62v-4.52l4.38-2.92h14.79l6.5-.54,3.6-1.54,4.48-3.29h10.08v10.46h10.74v4.22L342,145.28l-3.62,1.21-2,1.14L335.16,150,334,153.31l-1.5,1.5v12l-5.43-.39h-4.4l-6,.57H310.4l-8.8.53L298,170.19l-2.91,1.46-.16.41,1.75,4.76,2.69,4.85,2.72,3,.92,1.11,8.24-1.5,3.88-2.47,5.09,5.55L317.43,189l-11.52,9.43,2.51,5.64-5.15,1.28-8.92,1.44-3.6-.21-.09.87,1.37,1.61,1.94,2.66,1,.2,1.79.51h2.52l3.2,2.33,3.54.56,3.07,1,5.39,3.25-4.15,3.72-13.91-1-12.52-2-7.9-2.46-3.19,0-5.47-1.16.12,1.62.58,5.49.31,3.91-2.65,2.84-3.8,2.27-4-.77-6.27,1.66h-2.14l-3.81.67-1,3.43-2.35,4-4.42.34-2.5.28-5.25.4V232.52l.56-11.88-.26-8-.48-4.71-1.8-7.33v-1.83l-1.69.7H220l-10.17,4.95-10.1,5.17-8.8,3.58-8.11,5.19-7.15,2.18-6.45,4.88-17.35,2h-.13l-8.27-.5-.63,1.75,6.88,3.31,1.5,2.61,2.78,1.7,2.44,4.27,1.54,2.54,1.37,4.36,2.1,2.86,2,3-.31,4.57-4.6,1.42h-10l-4.36-.46-3.59-.95h-3.27l-2.26.71-5,0L126.6,258l-4.72-2,.2,1.62,1.76,2.05v3.92h-4.19l-.91,2-2.59,4.26H107l-7.38-.88-7-1-6.51-.67L79.84,267l-3.54.65-3.8,1.27-5.75-1.05-2.84.54H62.17l-1.09.91ZM165.39,135.26l2,1,3.33-1.67,3.4-11.9-5.72-1H166v3.21l-.56,7.86Z"/></svg>