<svg id="Layer_2" data-name="Layer 2" xmlns="http://www.w3.org/2000/svg" viewBox="0 0 350 350"><defs><style>.cls-1{fill:#999;}.cls-2{fill:#f90;}</style></defs><title>M_</title><path class="cls-1" d="M332.3,39.65c-.35.28-2.85,1.83-3.91,2.48l-.42.25-7.41-1.3-5.67,5.67L314,50.88l-.33.28c-1.32,1.13-3.42,3.49-3.47,5l-.12,4-2.23-3.3c-1.6-2.36-2.84-4-2.85-4l-1.16-1.52a1.69,1.69,0,0,1-.37-.12L303.1,51l-.21-.36a25.31,25.31,0,0,1-1.21-2.45,6.18,6.18,0,0,0-1.46,1l-1,1-.89-1.17c-.46-.6-1-1.31-1.37-1.92l-1.4,1.67-.88-1.75c-.55-1.1-2.73-4.52-3.53-5.75l-.5-.76.55-.72a2.33,2.33,0,0,0,.36-.8,3.53,3.53,0,0,1-1.31-2.81,2.23,2.23,0,0,1,.66-1.3c.19-1.15,1.35-2.06,2.17-2.68l-1.59-2.11c-3.1,4-3.22,4-3.41,4.17-1,.68-1.69,0-3.77-2.44a2.53,2.53,0,0,1-1.56.06,2,2,0,0,1-1.25-1.18,4.8,4.8,0,0,0-.27-.44L280,31.78l-5-7.51-3.26,1.67c-.49.29-1,.65-1.4.92.14.4.28.84.37,1.15l.29.92-8.41,5.56-3.1-5.34,2.16-1.85-9-14.15.86-.73.94-.79A139.54,139.54,0,0,0,226.08,31.1c-9.82,8.82-21,18.14-33.46,8.75-.19,6.82-1.36,13.14-2.61,19.88-.89,4.79-1.94,8.79-6.18,11.7-3.95,2.71-9.73,3.24-13.18-.67-1.86-2.1-2.13-5-2.13-8l-3.39,2.11-2.65-3.73-3.08,1-1.7-.71c-1.65,1.05-6.47,4.13-8.25,5.33l-.94.64-.6-.68a8.87,8.87,0,0,0-2.27.24l-.82.18-5.59-7.63-6.12,3.76-1.44-.79c-.76.66-1.52,1.37-2,1.83a27,27,0,0,1,2,5.34,60.54,60.54,0,0,1,0,7.84,13.28,13.28,0,0,0,1,5.27c.62.57,5.11,2.42,8.26,3.38,3.41,1,6.77,5.51,7.38,8.66l0,.17c.17,2.9-4,10.3-4.87,11.76l-.21.36-.28.13-.07,1.41-.29.34a33.83,33.83,0,0,0-2,3.35c-1.41,3.58-6.38,10.15-10.57,15.49l-.77,1c-1.17,1.54-10.66,11.56-12.6,13.61l-.36,7.78-12.23,8.63,3.72,5.43-2.19,2.19,1.43,2h1.49l2.9,4.17-1,.74c-.32.23-3.12,2.28-3.83,2.69a7.9,7.9,0,0,0-1.79,3,2.59,2.59,0,0,1-1.85,2.52,4.22,4.22,0,0,0-.62.33,1.19,1.19,0,0,0-.44.86,3.91,3.91,0,0,1-.31,2.95,4.3,4.3,0,0,1-.49.79,11.07,11.07,0,0,0,1.71,2.12,1.56,1.56,0,0,1,.53,1.51c-.22,1-1.23,1.31-2.29,1.65a6.5,6.5,0,0,0-1.28.49,3.78,3.78,0,0,1-4.77-.31,7.27,7.27,0,0,1-1.6-2.45,11.12,11.12,0,0,0-.83-1.54,18.72,18.72,0,0,0-4.43-3.9c-1.11-.67-2.81-.3-4.06,0l-.16,0c-.55.27-2,2.21-3,3.69a1.15,1.15,0,0,0-1.4.4,100.59,100.59,0,0,0-14.18,23.5c-1.62,3.81-3.41,7.9-3.81,12.06a14,14,0,0,0,.33,5.16c.69,2.42,2.26,3.67,1.67,6.34s-1.86,1.81-4.19,2.74a13.34,13.34,0,0,0-3.73,2.43c-1.71,1.47-3.06,3.3-4.82,4.73-1.95,1.58-3,2.18-5.55,1.82-1.24-.17-2.46-.89-3.59-1-1.85-.2-3.51-.37-4.4,1.68-.47,1.08,0,2-.11,3-.23,4.1-1.11,7.25-5.74,8a1.47,1.47,0,0,0-.35,2.67c5.71,2.73,7.08,12.73,8.93,18.22,1.22,3.62,2.46,7.24,3.67,10.87,1.42,4.27.44,7.84-4.22,9.11-8.7,2.37-19,6.8-21.87,16.41-3,9.9,8.9,10.15,15.15,11.54a11,11,0,0,1,3.71,1.27c3,2,.74.75,1.07,2.7.22,1.32.09,2.31.76,3.56a5.91,5.91,0,0,0,7.21,3,1.5,1.5,0,0,0,1-1.8c-.62-3-1.35-6-2.21-9,5.29.73,11.54.26,12.78-6a5.64,5.64,0,0,0-2-5.79c-.4-.31-1-.4-1.37-.72a8.71,8.71,0,0,0-1.31-.45l-2-4.71c.27-1.63,4-2.53,5.33-2.56a23.77,23.77,0,0,1,5.45.81c.84.18,2-.41,1.85-1.41-.17-1.62,3.79-4.56,5.18-5.18.88-.39,1.87-.55,2.76-.94a10.42,10.42,0,0,0,3.49-2.42c.23-.24.43-.5.64-.76a4.77,4.77,0,0,0,1.22.74,1.44,1.44,0,0,0,1.42-.38,7.54,7.54,0,0,0,2.08-3.44,9,9,0,0,0,1.24-.15c.88.44,2.34-.07,2.2-1.26l2-2.88q4.38.49,4.45,3.79a10,10,0,0,1-.41,4.68,1.47,1.47,0,0,0,1.41,1.85l5.23-.47a1.52,1.52,0,0,0,1.41-1.07c1.37-5,2.71-11.56-.94-15.9-.56-.67-1.81-1.26-2.27-1.92q-2.25-.64-.22-3.22a5.35,5.35,0,0,1,4-.28c7.3,1.87,4.82,10.83,2.19,15.4a1.48,1.48,0,0,0,1.26,2.2c3.49.18,3.76-4,6.57-4.37a2.86,2.86,0,0,1,.41,0l-.24,3.12a1.46,1.46,0,0,0,1.46,1.46,7.53,7.53,0,0,0,5.81-3.11,1.47,1.47,0,0,0-1.77-2.29c-.35.19-1.2-.3-2.2-.9l.64-8.28c2.61-.83,4.5-2.58,6.54-4.48,1.5-1.39,3.11-3.17,5.19-3.64,3.62-.83,6.7,2.28,9.9,3.35,3.89,1.31,9.08-.13,9.65-4.25a30.07,30.07,0,0,0,20.05-11.27,1.51,1.51,0,0,0,0-2.07,9.39,9.39,0,0,1-1-1.32,9.12,9.12,0,0,0-1.56-6.25,1.47,1.47,0,0,0-2.72.74,11.2,11.2,0,0,0,1.2,6.05,6,6,0,0,1-.46,1.1c-2.93-6.82-5.15-17.45,4.54-19.22l.12,0a13.53,13.53,0,0,1,.21,2.75l.65.9c8.83-1.18,9.56-.84,9.92-.67.68.32,1.39.65,2.74,12.21a5,5,0,0,1,2.06.47,8.15,8.15,0,0,1,.71.5,4.74,4.74,0,0,0,1.44.86c.35-.07,1.13-1.05,1.39-1.37l.25-.31a33.34,33.34,0,0,0,0-4.52c0-.4,0-.76,0-1.06a3,3,0,0,1,0-.66c-2.36-.32-2.52-3.5-2.62-5.45a11,11,0,0,0-.15-1.64,2.62,2.62,0,0,1,.5-2.26c.95-1.15,2.82-1.41,4.44-1.48a3.88,3.88,0,0,0-1.78-.69,6.08,6.08,0,0,0-.71.2c-1.51.5-2.87.71-5.49-1.34l-.29-.22-.13-.34a10,10,0,0,1,0-7.92,8.09,8.09,0,0,1,4-4c2.69-1.45,5.38.61,6.37,1.95a8.25,8.25,0,0,0,2.94.4c.83-.1,1-.27,1-.27a6.61,6.61,0,0,0-.49-1.94,21.05,21.05,0,0,1-.74-2.5c-.12-.73-.48-.92-1.88-1.3a5.53,5.53,0,0,1-2.94-1.51,2.55,2.55,0,0,1-.63-2.26c.33-1.45,1.94-2.43,3.23-3a9.65,9.65,0,0,0,.77-.76c.91-1,2.05-2.16,3.46-2.22h.12c2.15.12,7,4,7,5.62v4.59a5.2,5.2,0,0,0,.21,1.31l.27.07a10.65,10.65,0,0,1,1.09-2.23c1-1.35,3.84-1.69,3.86-1.69.53,0,.8.23,1.61.89l.83.68c.73-2.13,1.92-6.24,2.07-7.06a16,16,0,0,1,.58-3,1.5,1.5,0,0,1,2-1.06,5.26,5.26,0,0,0,1.51.14,6.08,6.08,0,0,0,3.44-1.38.52.52,0,0,0,0-.31c0-.07,0-.19-.09-.34a10,10,0,0,1-.4-2.27c0-.64.28-1.72,2.18-1.79h.22l.43-.36a14,14,0,0,1,1.42-1.12,5.39,5.39,0,0,1,1.18-.49c.2-.07.53-.18.76-.28a7.39,7.39,0,0,1,1-2.29,2.55,2.55,0,0,1-1-2.19c.21-1.69,2.32-2.34,3.46-2.69l.29-.09.19-.08a4,4,0,0,0,1.67-1.19,4.86,4.86,0,0,1,2.68-1.29,10.56,10.56,0,0,1,.11-1.09,2,2,0,0,1,1.29-1.62c.18-.08.19-.09.22-.13l.32-.42c-.09-.64.21-1.38,1-3.08.11-.22.2-.4.23-.49s.29-.86,2.44-2.25a4.09,4.09,0,0,1,2-.69c.28,0,.63-.08,1.12-.17a3.11,3.11,0,0,1,1.87,0h.26l1.05-.07a2.34,2.34,0,0,1,.13-.63,2,2,0,0,1,1.32-1.24,1.92,1.92,0,0,1,1.21-1.38,5,5,0,0,1,3,0,2.29,2.29,0,0,1,1.1-1.39,2.78,2.78,0,0,1,0-3.09c.38-.5,1.48-1.93,7.33-.51.79-2.79,3.61-4.13,4.93-4.72,0-.52,0-1.32,0-2.6,0-.54,0-1,0-1.3,0-2.1.86-3.27,2.54-3.47.89-.15,4.93-2.76,5.56-3.28s1.34-.59,3.82-.32a4.06,4.06,0,0,1,2.25,1.15,2.64,2.64,0,0,0,.22.19,3.94,3.94,0,0,0,.56.21,11.72,11.72,0,0,1,1.13.43,1.78,1.78,0,0,1,1,1,1.57,1.57,0,0,1-.14,1.28.93.93,0,0,0-.12.52c0,.26,0,.49,0,.7a4.1,4.1,0,0,0,.49,2.29,1.1,1.1,0,0,0,.71.41,2.28,2.28,0,0,0,1.5-.15,2.36,2.36,0,0,1,2.22-.42v0c0-.14,0-.26.06-.37a4,4,0,0,1,1-2.29A3,3,0,0,1,285,160c0-.48.14-1,.23-1.5l.08-.45a5,5,0,0,1,.3-1c.09-.24.09-.24.07-.39l-.05-.28a5,5,0,0,0-1.44-3.14c-1.64-1.42-1-3.13-.62-4a5.15,5.15,0,0,0,.26-.79,6.45,6.45,0,0,1,.4-6.47c.26-1.2-.4-2.18-1.48-3.6a7.43,7.43,0,0,1-1.61-2.89c-.47-2.36,1.2-3.76,2.1-4.52a5.55,5.55,0,0,0,.49-.44,2.19,2.19,0,0,1,2.44-.52,5,5,0,0,1,2.41-1.5,3,3,0,0,0-.49-.54,10.57,10.57,0,0,0-2.22-1.12,6.73,6.73,0,0,1-2.33-1.29l-.16-.18-.09-.23c-.26-.68-.09-1.61.41-3.9a19.6,19.6,0,0,0,.44-2.35,11.6,11.6,0,0,1,.76-3.38l.32-.83h.89a4.76,4.76,0,0,0,2.12-.44,3.76,3.76,0,0,1,2.28-2.4,10.59,10.59,0,0,1,.13-4A3.41,3.41,0,0,1,292.5,106c.86-.46,1-.61,1-.85a21.43,21.43,0,0,1,.84-6.1,4.87,4.87,0,0,1,1.2-4,3.88,3.88,0,0,1,2.53-1,4.82,4.82,0,0,1,3.87-4.19,2.47,2.47,0,0,1,1-1.11,3.13,3.13,0,0,1,2.51,0,2.48,2.48,0,0,1,3.5-.87,40.48,40.48,0,0,0,4.63,2,12,12,0,0,0-.12-5.67c-.08-.29-.1-.36-.9-.41a1.94,1.94,0,0,1-1.87-1l-.22-.51.17-.4a4.55,4.55,0,0,0-1.46-1l-.58-.29-.12-.63a2,2,0,0,1,.4-1.74,2.85,2.85,0,0,1,2.39-.73h.14a7.84,7.84,0,0,1,1-2.09,9.64,9.64,0,0,0,.49-.88c-.27-2.79-.15-9,1.06-11.82.57-1.21,1.47-2.78,3-2.95a2.28,2.28,0,0,1,1,.09,3.18,3.18,0,0,1,2.66-2,4.78,4.78,0,0,1,1.74-2.52A5.78,5.78,0,0,1,325,54.3a4.83,4.83,0,0,1,3.58-1.89,5.56,5.56,0,0,1,1.77-.9,4.49,4.49,0,0,1-.63-.8h0c-.11-.18-.24-.35-.36-.52a3.25,3.25,0,0,1-.55-3.78,14.28,14.28,0,0,0,.76-1.86,8.54,8.54,0,0,1,.41-1c.08-.16.16-.36.24-.56a3.2,3.2,0,0,1,1.3-1.88l.34-.47a9.81,9.81,0,0,1,1-1.22A5.05,5.05,0,0,0,332.3,39.65Z"/><path class="cls-2" d="M43.58,339.77a7.41,7.41,0,0,1-6.52-4.09,7.25,7.25,0,0,1-.79-3c0-.31-.06-.64-.12-1a3,3,0,0,1,.06-1.4l-.53-.36a9.21,9.21,0,0,0-3-1l-.25-.06c-.89-.2-1.92-.38-3-.56-4.59-.79-10.3-1.78-12.66-5.59-1.2-1.93-1.38-4.35-.53-7.17,2.44-8.16,9.91-13.84,22.85-17.37a5,5,0,0,0,3.29-2.26c.83-1.56.44-3.6,0-5q-1.21-3.65-2.46-7.29L38.69,280c-.41-1.21-.79-2.61-1.19-4.09-1.38-5.1-3.1-11.44-7-13.3a2.79,2.79,0,0,1-1.48-3,2.7,2.7,0,0,1,2.21-2.38c3.2-.51,4.3-2.13,4.55-6.67a5.3,5.3,0,0,0-.05-.86,4.86,4.86,0,0,1,.27-2.67c1.31-3,4-2.72,5.86-2.52a9.22,9.22,0,0,1,2.11.57,8.18,8.18,0,0,0,1.53.45c2,.28,2.66-.06,4.46-1.52a25.21,25.21,0,0,0,2.44-2.37,31.48,31.48,0,0,1,2.35-2.33,14.88,14.88,0,0,1,4.13-2.67,9.75,9.75,0,0,1,2.15-.56c1-.16,1-.16,1.18-1.17a4.42,4.42,0,0,0-.68-3.25,14,14,0,0,1-1-2.39,15.31,15.31,0,0,1-.38-5.68c.4-4.22,2.1-8.2,3.73-12l.18-.43a102.4,102.4,0,0,1,14.38-23.83,2.63,2.63,0,0,1,1.84-1c2-2.77,2.6-3.23,3.06-3.46a1.41,1.41,0,0,1,.33-.11l.16,0c1.39-.3,3.51-.76,5.1.21a19.77,19.77,0,0,1,4.85,4.3,12.37,12.37,0,0,1,.95,1.74,6.18,6.18,0,0,0,1.26,2,2.36,2.36,0,0,0,3,.23,6,6,0,0,1,1.69-.69c.48-.15,1.28-.4,1.33-.6s-.06-.13-.09-.16a12.36,12.36,0,0,1-2-2.46,1.42,1.42,0,0,1,.1-1.58,2.92,2.92,0,0,0,.33-.53,2.53,2.53,0,0,0,.24-1.89,1.43,1.43,0,0,1-.07-.46,2.59,2.59,0,0,1,1-2,5.38,5.38,0,0,1,.83-.45c.79-.37,1-.59,1-1.19,0,0,0-.08,0-.11a8.38,8.38,0,0,1,2.36-4l.13-.09c.38-.22,1.79-1.22,3.6-2.54l-1.69-2.42h-.75a1.42,1.42,0,0,1-1.16-.61l-1.43-2a1.42,1.42,0,0,1,.16-1.81l1.35-1.35L103,159.67a1.42,1.42,0,0,1,.35-2L115,149.48l.33-7.09a1.42,1.42,0,0,1,.39-.91c5.62-5.93,11.67-12.41,12.5-13.5l.63-.82L129,127c2.42-3.09,8.85-11.29,10.37-15.14l.07-.16a37.26,37.26,0,0,1,2.05-3.49l0-.06,0-.92a1.42,1.42,0,0,1,.69-1.15c2.32-4,4.77-9.14,4.67-10.94V95c-.51-2.6-3.57-6.62-6.39-7.48-2.53-.77-7.79-2.76-8.81-3.69l-.16-.17c-.81-1-1.45-4.88-1.3-6.29a61.05,61.05,0,0,0,0-7.48,26.25,26.25,0,0,0-1.81-4.87,1.42,1.42,0,0,1,.21-1.65c.45-.48,1.2-1.18,2.06-1.93a1.42,1.42,0,0,1,1.61-.17l.72.4,5.42-3.33a1.42,1.42,0,0,1,1.89.37l5,6.88a9.88,9.88,0,0,1,2.67-.24,1.41,1.41,0,0,1,.63.24c1.79-1.21,6.33-4.11,8.22-5.31a1.42,1.42,0,0,1,1.31-.11l1.21.51,2.57-.86a1.42,1.42,0,0,1,1.6.52L165.51,63l2.26-1.41a1.42,1.42,0,0,1,2.17,1.2c0,2.61.22,5.27,1.78,7,3,3.35,7.93,2.76,11.31.44,3.8-2.6,4.74-6.27,5.59-10.79,1.24-6.63,2.4-12.89,2.59-19.66a1.42,1.42,0,0,1,2.27-1.09c11,8.35,20.87,1,31.66-8.67A139.81,139.81,0,0,1,253.75,10.4a1.42,1.42,0,0,1,1.58,2.33l-.85.72,8.36,13.1a1.42,1.42,0,0,1-.27,1.84l-1.26,1.08,1.75,3,6.27-4.15c-.09-.29-.21-.67-.33-1a1.42,1.42,0,0,1,.51-1.6c.42-.3,1-.68,1.5-1L274.36,23a1.42,1.42,0,0,1,1.82.47l4,5.9a1.38,1.38,0,0,1,1.1-.47,1.42,1.42,0,0,1,1.12.61,6.16,6.16,0,0,1,.35.57l.06.13a.57.57,0,0,0,.37.37,1.18,1.18,0,0,0,.69-.06,1.42,1.42,0,0,1,1.53.44,19.3,19.3,0,0,0,1.93,2.11c.44-.48,1.84-2.26,3-3.8a1.42,1.42,0,0,1,1.12-.54h0a1.42,1.42,0,0,1,1.12.57l1.59,2.11a1.42,1.42,0,0,1-.28,2c-.46.34-1.52,1.14-1.62,1.77a1.41,1.41,0,0,1-.4.77.83.83,0,0,0-.26.48c-.05.42.22.91.93,1.64a1.42,1.42,0,0,1,.37,1.26,3.77,3.77,0,0,1-.57,1.31c.37.57,2.7,4.18,3.47,5.63l0,0a1.44,1.44,0,0,1,1.16-.5,1.42,1.42,0,0,1,1.1.62c.38.55.82,1.19,1.24,1.74A7.71,7.71,0,0,1,301,47a1.42,1.42,0,0,1,2,.69,24.38,24.38,0,0,0,1.11,2.26,1.56,1.56,0,0,1,.89.55L306.15,52c.05.07,1.2,1.59,2.69,3.77.37-2.49,3.51-5.31,3.89-5.64l.77-3.65a1.42,1.42,0,0,1,.38-.71l5.67-5.67a1.43,1.43,0,0,1,1.25-.39l6.88,1.21c2.27-1.39,3.52-2.19,3.72-2.35l.14-.1a6.46,6.46,0,0,1,.73-.36,1.42,1.42,0,0,1,1.58,2.29,8.77,8.77,0,0,0-.81,1c-.13.18-.28.4-.39.53a1.41,1.41,0,0,1-.5.4c-.19.09-.44.74-.6,1.12s-.2.5-.29.67a7.41,7.41,0,0,0-.34.87,15.68,15.68,0,0,1-.83,2c-.49,1-.18,1.49.42,2.31.16.21.3.41.43.62a3.1,3.1,0,0,0,.43.54,1.42,1.42,0,0,1-.56,2.34,4.09,4.09,0,0,0-1.31.65,1.42,1.42,0,0,1-.71.31A3.59,3.59,0,0,0,326.24,55a1.42,1.42,0,0,1-1,.66,4.36,4.36,0,0,0-2,.84A3.37,3.37,0,0,0,322,58.32a1.42,1.42,0,0,1-1.16,1,1.75,1.75,0,0,0-1.56,1.12,1.42,1.42,0,0,1-1.73.8.87.87,0,0,0-.36,0c-.59.07-1.21.79-1.85,2.14-1,2.36-1.22,8.05-.93,11.08a1.42,1.42,0,0,1-.11.7,9.76,9.76,0,0,1-.58,1,6.77,6.77,0,0,0-.83,1.69,1.48,1.48,0,0,1-1.4,1.08h-.13c-.62,0-1.1,0-1.3.23a.58.58,0,0,0-.09.51A5.66,5.66,0,0,1,311.79,81a1.42,1.42,0,0,1,.26,1.26,1.31,1.31,0,0,0,.64.13,2,2,0,0,1,2.17,1.42,13.39,13.39,0,0,1,.14,6.43,1.42,1.42,0,0,1-1.83,1,41.9,41.9,0,0,1-4.83-2.09,1.26,1.26,0,0,0-1.07-.15,1.21,1.21,0,0,0-.56.52,1.42,1.42,0,0,1-1.64.6,1.76,1.76,0,0,0-1.39-.07,1.06,1.06,0,0,0-.45.5,1.42,1.42,0,0,1-.91.74,3.4,3.4,0,0,0-2.84,3.06,1.42,1.42,0,0,1-1.33,1.18,2.47,2.47,0,0,0-1.63.6,3.59,3.59,0,0,0-.76,2.91,1.42,1.42,0,0,1-.07.52,20.05,20.05,0,0,0-.78,5.6c0,1.2-.94,1.73-1.74,2.16-.6.32-1,.58-1.17.95a10.53,10.53,0,0,0-.05,3.43,1.42,1.42,0,0,1-.82,1.41c-.87.4-1.34.86-1.49,1.45a1.42,1.42,0,0,1-.51.79,5.77,5.77,0,0,1-2.89.73,9.85,9.85,0,0,0-.64,2.79,15.71,15.71,0,0,1-.47,2.66,12.61,12.61,0,0,0-.48,3.06,7.54,7.54,0,0,0,1.81.92,10.47,10.47,0,0,1,2.59,1.35,4.42,4.42,0,0,1,.72.79,1.42,1.42,0,0,1-.73,2.17,3.59,3.59,0,0,0-1.72,1,1.41,1.41,0,0,1-1.54.49c-.69-.21-.85,0-1,.1a5.65,5.65,0,0,1-.64.59c-1,.85-1.9,1.74-1.62,3.16a6.38,6.38,0,0,0,1.34,2.31c1,1.32,2.16,2.82,1.75,4.75a1.41,1.41,0,0,1-.18.45,5,5,0,0,0-.37,5,1.42,1.42,0,0,1,.16,1,6,6,0,0,1-.33,1c-.46,1.19-.54,1.82.22,2.47a6.28,6.28,0,0,1,1.91,4l0,.28a1.81,1.81,0,0,1-.14,1.15,3.64,3.64,0,0,0-.23.76l-.08.46c-.09.51-.18,1-.22,1.38a1.42,1.42,0,0,1-.7,1.1,1.68,1.68,0,0,0-.44.41,2.64,2.64,0,0,0-.74,1.62c0,.13,0,.26-.07.42a1.45,1.45,0,0,1-.65,1,1.42,1.42,0,0,1-1.15.17,1,1,0,0,0-1,.18,3.56,3.56,0,0,1-2.68.4,2.38,2.38,0,0,1-1.66-1.15,5.58,5.58,0,0,1-.64-3c0-.2,0-.41,0-.65a2.32,2.32,0,0,1,.27-1.16.69.69,0,0,0,.07-.17c0-.05-.22-.14-.29-.17a10.52,10.52,0,0,0-1-.38,4.1,4.1,0,0,1-.85-.35,3.17,3.17,0,0,1-.38-.3,2.8,2.8,0,0,0-1.51-.84,7.39,7.39,0,0,0-2.67-.08l-.08.08c-.46.38-4.84,3.35-6.22,3.59-.56.07-1.37.17-1.37,2.07,0,.29,0,.76,0,1.31,0,1.27,0,2.06,0,2.57a1.42,1.42,0,0,1-.84,1.3c-1.51.67-3.57,1.79-4.15,3.81a1.42,1.42,0,0,1-1.7,1c-3.15-.77-5.29-.77-5.87,0-.11.14-.4.52.13,1.6a1.42,1.42,0,0,1-.62,1.89c-.07,0-.26.13-.4.57a1.42,1.42,0,0,1-1.74.92,3.68,3.68,0,0,0-2.11,0,.55.55,0,0,0-.36.35,1.42,1.42,0,0,1-.91,1.05c-.31.11-.4.23-.46.38a.9.9,0,0,0-.05.25,1.42,1.42,0,0,1-1.31,1.32l-1,.06-.32,0a1.54,1.54,0,0,1-.64-.1c-.12,0-.33,0-1.06.1-.53.11-.91.15-1.22.19a2.75,2.75,0,0,0-1.45.47,6.05,6.05,0,0,0-1.87,1.52c-.06.17-.14.33-.24.54l-.06.12a8.92,8.92,0,0,0-.91,2.27,1.41,1.41,0,0,1-.24,1l-.35.46a1.78,1.78,0,0,1-.76.57c-.3.14-.43.23-.47.53a9.11,9.11,0,0,0-.09.94,1.42,1.42,0,0,1-1.15,1.34,3.51,3.51,0,0,0-1.92.87,5.35,5.35,0,0,1-2.16,1.52l-.18.07-.35.12c-.76.24-2.43.75-2.52,1.52,0,.11-.05.44.54,1a1.42,1.42,0,0,1,.29,1.76,6.91,6.91,0,0,0-.83,1.81,1.42,1.42,0,0,1-.85,1.09c-.26.11-.62.23-.85.31a4.91,4.91,0,0,0-.89.35,13.2,13.2,0,0,0-1.26,1l-.45.38a1.42,1.42,0,0,1-.78.32H218c-.86,0-.86.25-.86.38a9.17,9.17,0,0,0,.35,1.9c.06.23.09.36.11.44a1.86,1.86,0,0,1-.26,1.42,1.4,1.4,0,0,1-.24.26,7.42,7.42,0,0,1-4.31,1.7,6.69,6.69,0,0,1-1.87-.18.76.76,0,0,0-.27,0s0,0,0,.12a13.76,13.76,0,0,0-.52,2.58,1.43,1.43,0,0,1,0,.24c-.16.93-1.39,5.14-2.12,7.28a1.42,1.42,0,0,1-2.23.65l-.85-.69c-.28-.23-.57-.47-.7-.56a5.1,5.1,0,0,0-2.71,1.08,9.79,9.79,0,0,0-.93,1.92,1.41,1.41,0,0,1-1.71.85l-.22-.06a1.42,1.42,0,0,1-1-.94,6.59,6.59,0,0,1-.28-1.75V215.3c-.28-1-4.13-4.12-5.62-4.2-.82,0-1.73,1-2.47,1.78a6.5,6.5,0,0,1-1,1l-.2.1c-1.38.61-2.26,1.34-2.42,2a1.18,1.18,0,0,0,.32,1,4.34,4.34,0,0,0,2.24,1.07c1.3.35,2.64.72,2.91,2.44a20.22,20.22,0,0,0,.68,2.26,6,6,0,0,1,.55,2.63,1.42,1.42,0,0,1-.26.61,2.6,2.6,0,0,1-1.93.84,9.17,9.17,0,0,1-3.76-.55,1.42,1.42,0,0,1-.48-.41c-.55-.74-2.57-2.62-4.56-1.54l-.16.08a6.66,6.66,0,0,0-3.27,3.31,8.57,8.57,0,0,0,0,6.79c2.22,1.72,3.07,1.44,4.15,1.09a7.45,7.45,0,0,1,.88-.25,4.82,4.82,0,0,1,2.8.87,1.42,1.42,0,0,1-.68,2.62c-1.8.08-2.94.4-3.41,1a1.22,1.22,0,0,0-.21,1.1,11,11,0,0,1,.17,1.84c.1,1.91.29,4,1.4,4.12a1.42,1.42,0,0,1,1.2,1.67,1.67,1.67,0,0,0,0,.35c0,.29,0,.65,0,1a28,28,0,0,1,0,4.87,1.41,1.41,0,0,1-.3.62l-.23.28c-1,1.27-1.57,1.75-2.21,1.88a1,1,0,0,1-.3,0,4.22,4.22,0,0,1-2.28-1.14,6.7,6.7,0,0,0-.57-.41,3.52,3.52,0,0,0-1.43-.28,1.42,1.42,0,0,1-1.32-1.25c-1-8.41-1.61-10.57-1.92-11.07-.4-.1-2-.18-9.15.78a1.41,1.41,0,0,1-1.34-.58l-.65-.9a1.42,1.42,0,0,1-.27-.85q0-.51,0-1a6,6,0,0,0-3.62,2.87,9.79,9.79,0,0,0-.85,5.21,2.9,2.9,0,0,1,4.2.72,10.56,10.56,0,0,1,1.84,6.66,7.59,7.59,0,0,0,.59.73,2.92,2.92,0,0,1,.07,3.91,31.33,31.33,0,0,1-20,11.65,6.39,6.39,0,0,1-2.83,3.52,10.36,10.36,0,0,1-8.43.81,20.91,20.91,0,0,1-3.41-1.63c-2-1.09-3.83-2.12-5.72-1.69-1.41.32-2.68,1.53-3.9,2.7l-.64.6a20.86,20.86,0,0,1-6.16,4.46l-.5,6.49.46.24a2.72,2.72,0,0,1,3.09.77,3,3,0,0,1,.06,3.84,8.93,8.93,0,0,1-6.76,3.64,2.68,2.68,0,0,1-2.14-.78,2.82,2.82,0,0,1-.89-2.2l0-.62-.48.6c-1,1.25-2.32,3-5,2.81a3,3,0,0,1-1.73-.66c-.24,1.15-.52,2.27-.82,3.34A2.92,2.92,0,0,1,96.08,301l-5.23.48a2.65,2.65,0,0,1-2.29-1,3,3,0,0,1-.61-2.66,8.79,8.79,0,0,0,.39-4,1.41,1.41,0,0,1,0-.26c0-.61,0-1.81-2.38-2.29l-1.26,1.8a2.58,2.58,0,0,1-1.1,1.82,3.18,3.18,0,0,1-2.64.44h-.05a9.13,9.13,0,0,1-2.14,3.14,2.86,2.86,0,0,1-2.94.67l-.42-.19a11.88,11.88,0,0,1-3.83,2.62,12.23,12.23,0,0,1-1.56.53,9.93,9.93,0,0,0-1.2.4c-1.4.62-4.19,3-4.34,3.81a2.53,2.53,0,0,1-.87,2.15,3.1,3.1,0,0,1-2.69.71l-.43-.09a20.75,20.75,0,0,0-4.69-.68A8,8,0,0,0,52,309.67l1.48,3.48c.28.09.56.2.83.32a1.41,1.41,0,0,1,.35.22l.33.15a4.2,4.2,0,0,1,1,.53,7,7,0,0,1,2.54,7.19c-.74,3.75-3.5,7.91-12.24,7.34.64,2.35,1.2,4.72,1.67,7a2.91,2.91,0,0,1-2,3.42A7.49,7.49,0,0,1,43.58,339.77Zm-4.64-8.57h0c.07.42.11.82.15,1.19a4.59,4.59,0,0,0,.47,1.93,4.49,4.49,0,0,0,5.51,2.35c.08,0,.11,0,.08-.17-.6-2.92-1.33-5.9-2.18-8.84a1.42,1.42,0,0,1,1.55-1.8c10,1.37,10.89-3.32,11.19-4.87a4.28,4.28,0,0,0-1.48-4.4,2.86,2.86,0,0,0-.35-.16A4.43,4.43,0,0,1,53,316a7.48,7.48,0,0,0-.95-.31,1.42,1.42,0,0,1-.95-.82l-2-4.71a1.42,1.42,0,0,1-.09-.79c.5-3,5.75-3.72,6.7-3.74a22.46,22.46,0,0,1,5.36.75l.42.09.12,0c-.11-2.77,4.91-6,6-6.48a12.13,12.13,0,0,1,1.55-.53A10,10,0,0,0,70.4,299a9,9,0,0,0,3-2.1c.2-.21.37-.43.55-.65a1.42,1.42,0,0,1,2-.22,3.41,3.41,0,0,0,.73.46l0,0a6.12,6.12,0,0,0,1.7-2.79,1.42,1.42,0,0,1,1.3-1,7.61,7.61,0,0,0,1-.13,1.43,1.43,0,0,1,.9.13h.14a1.42,1.42,0,0,1,.26-.81l2-2.88a1.41,1.41,0,0,1,1.32-.6c4.75.53,5.63,3.33,5.71,5a11.43,11.43,0,0,1-.46,5.22l0,.05,5.11-.46a.38.38,0,0,0,.18-.05c1.33-4.83,2.47-10.86-.67-14.59a5.66,5.66,0,0,0-.84-.67,8.4,8.4,0,0,1-1.17-.94,2.65,2.65,0,0,1-1.65-1.64c-.51-1.56.73-3.14,1.14-3.66a1.41,1.41,0,0,1,.52-.41,6.74,6.74,0,0,1,5-.35,7.27,7.27,0,0,1,5.14,4.23c1.71,4.06-.08,9.67-2.14,13.23,0,0,0,.07.11.07,1.12.06,1.66-.55,2.59-1.74a5.72,5.72,0,0,1,3.73-2.63,4.26,4.26,0,0,1,.61,0,1.42,1.42,0,0,1,1.39,1.53l-.24,3,0,0a6,6,0,0,0,4.71-2.55.21.21,0,0,0,0-.19h0c-1.08.6-2.26-.11-3.61-.93a1.42,1.42,0,0,1-.68-1.32l.64-8.28a1.42,1.42,0,0,1,1-1.24c2.31-.74,4-2.33,6-4.17l.61-.58c1.43-1.36,3.05-2.91,5.22-3.41,2.95-.68,5.49.73,7.73,2a18.63,18.63,0,0,0,2.94,1.42,7.54,7.54,0,0,0,6-.53,3.51,3.51,0,0,0,1.75-2.57,1.42,1.42,0,0,1,1.22-1.21,28.62,28.62,0,0,0,19.12-10.74.45.45,0,0,0,.1-.19,10.4,10.4,0,0,1-1.2-1.54,1.42,1.42,0,0,1-.21-.94,7.71,7.71,0,0,0-1.33-5.29c0-.07-.07-.06-.08-.06s0,0,0,.1a9.84,9.84,0,0,0,1,5.31,1.42,1.42,0,0,1,.1,1.05,7.34,7.34,0,0,1-.57,1.37,1.42,1.42,0,0,1-2.56-.1c-1.7-4-4.14-11.37-1.38-16.51a9.27,9.27,0,0,1,6.91-4.65l.08,0a1.42,1.42,0,0,1,1.75,1.1,13.61,13.61,0,0,1,.23,2.4c8.35-1.08,9.1-.74,9.76-.43,1.38.64,2.12,1.45,3.42,12.22a4.67,4.67,0,0,1,1.5.52,9.54,9.54,0,0,1,.85.6l.4.29.46-.56h0c0-.49,0-1.57-.06-3.88,0-.28,0-.53,0-.76-2.32-1.21-2.49-4.62-2.58-6.39a13.41,13.41,0,0,0-.11-1.36,4.19,4.19,0,0,1,.47-3.08,9.81,9.81,0,0,1-3-1.72l-.29-.22a1.42,1.42,0,0,1-.45-.62l-.13-.34a11.35,11.35,0,0,1,.05-9,9.56,9.56,0,0,1,4.74-4.72c3.15-1.64,6.27.21,7.82,2a10,10,0,0,0,1.32.18l-.12-.34a22.73,22.73,0,0,1-.77-2.62c-.17-.07-.46-.16-.88-.27a6.85,6.85,0,0,1-3.64-2,4,4,0,0,1-.94-3.5c.35-1.55,1.68-2.9,3.84-3.89l.51-.52c1-1.1,2.46-2.59,4.44-2.66h.19c2.77.15,8.35,4.52,8.35,7v2a9.61,9.61,0,0,1,4-1.33,2.77,2.77,0,0,1,1.72.59c.61-2,1.23-4.17,1.37-4.82a17.05,17.05,0,0,1,.63-3.22,2.92,2.92,0,0,1,3.68-2.05,3.88,3.88,0,0,0,1.14.1,4.17,4.17,0,0,0,1.95-.62,9.76,9.76,0,0,1-.35-2.26,3.2,3.2,0,0,1,3.27-3.19l0,0a15.4,15.4,0,0,1,1.59-1.25,6.51,6.51,0,0,1,1.49-.64h0a8.52,8.52,0,0,1,.45-1,3.58,3.58,0,0,1-.69-2.57c.32-2.6,3.11-3.46,4.45-3.88l.36-.13a2.67,2.67,0,0,0,1.18-.85,5.58,5.58,0,0,1,2.39-1.44l0-.15a3.33,3.33,0,0,1,1.81-2.56,10.43,10.43,0,0,1,1.17-3.11l.06-.12.12-.26c.23-.65.8-1.51,3-2.93a5.47,5.47,0,0,1,2.64-.9c.26,0,.58-.07,1-.16a4.89,4.89,0,0,1,2.33-.06h0a3.31,3.31,0,0,1,1.42-1.56,3.41,3.41,0,0,1,1.8-1.65,5.7,5.7,0,0,1,2.81-.29l.18-.23a3.8,3.8,0,0,1,.58-3.52c.89-1.16,2.56-2.31,7.59-1.29a9.7,9.7,0,0,1,4.38-4c0-.45,0-1,0-1.71,0-.53,0-1,0-1.28,0-3.89,2.52-4.7,3.7-4.86a35.66,35.66,0,0,0,4.88-2.95c1.07-1,2.65-.92,4.91-.67a5.46,5.46,0,0,1,3,1.49l0,0,.26.09a12.92,12.92,0,0,1,1.26.48,3.19,3.19,0,0,1,1.8,1.82,2.93,2.93,0,0,1-.18,2.33c0,.27,0,.48,0,.69a2.41,2.41,0,0,0,.21,1.28,1.31,1.31,0,0,0,.36,0,3.87,3.87,0,0,1,1.78-.69,5.71,5.71,0,0,1,1.14-2.07,4.92,4.92,0,0,1,.62-.65c0-.33.11-.65.17-1l.08-.46a6.23,6.23,0,0,1,.32-1.16v0a3.82,3.82,0,0,0-1-2.3,4.64,4.64,0,0,1-1-5.65l.06-.16a8,8,0,0,1,.56-7.07c0-.47-.3-1-1.25-2.25a8.62,8.62,0,0,1-1.87-3.48c-.64-3.18,1.62-5.07,2.58-5.88.13-.11.27-.22.34-.3a3.34,3.34,0,0,1,3-1.12l.12-.1-.48-.2a7.6,7.6,0,0,1-2.84-1.64l-.16-.18a1.41,1.41,0,0,1-.28-.45l-.09-.23c-.42-1.09-.2-2.23.35-4.71.12-.53.39-1.77.41-2.07a12.76,12.76,0,0,1,.86-3.87l.32-.83a1.42,1.42,0,0,1,1.32-.91h.89a5.14,5.14,0,0,0,1-.11A4.87,4.87,0,0,1,289,111a9.43,9.43,0,0,1,.28-3.7,4.69,4.69,0,0,1,2.5-2.49l.23-.13a23.93,23.93,0,0,1,.84-5.75A6.12,6.12,0,0,1,294.56,94a5,5,0,0,1,2.35-1.23,6,6,0,0,1,4.1-4.12,3.77,3.77,0,0,1,1.31-1.16,4.1,4.1,0,0,1,2.66-.38,3.81,3.81,0,0,1,1.24-.8,4.06,4.06,0,0,1,3.45.27c.65.34,1.75.85,2.82,1.3a11.63,11.63,0,0,0-.2-2.72,3.21,3.21,0,0,1-2.85-1.85l-.22-.51a1.43,1.43,0,0,1-.1-.37l-.52-.28L308,81.9a1.42,1.42,0,0,1-.76-1l-.12-.63a3.45,3.45,0,0,1,.72-2.91,3.63,3.63,0,0,1,2.62-1.22,14.2,14.2,0,0,1,.78-1.41l.26-.44c-.22-3-.1-9,1.2-12.08.47-1,1.66-3.52,4.11-3.8l.35,0a4.44,4.44,0,0,1,2.36-1.65,6.3,6.3,0,0,1,1.95-2.43A7.29,7.29,0,0,1,324.24,53a6.45,6.45,0,0,1,3.8-1.94l.16-.1a4.59,4.59,0,0,1-.63-5.19,12.88,12.88,0,0,0,.69-1.68l.12-.35a1.42,1.42,0,0,1-.65,0L321,42.6l-4.86,4.86-.78,3.71a1.42,1.42,0,0,1-.46.78l-.33.28c-1.51,1.29-3,3.23-3,4l-.12,4a1.42,1.42,0,0,1-2.59.75l-2.23-3.3c-1.55-2.28-2.76-3.88-2.81-3.95L303,52.54l-.09,0-.39-.17a1.41,1.41,0,0,1-.65-.58l-.21-.36q-.28-.47-.56-1l-.92.92a1.42,1.42,0,0,1-2.13-.14l-.89-1.17-.35-.46-.22.26a1.42,1.42,0,0,1-2.35-.28l-.87-1.75c-.48-1-2.53-4.2-3.45-5.61l-.5-.76a1.42,1.42,0,0,1,.07-1.64l.34-.44a4.29,4.29,0,0,1-1-3.21,3.54,3.54,0,0,1,.14-.63l-.12.08c-2,1.3-3.4-.07-5.1-2.06a3.62,3.62,0,0,1-1.44-.15,3.37,3.37,0,0,1-1.14-.62,1.42,1.42,0,0,1-2.28-.1l-4.34-6.46-2.14,1.1-.37.23,0,.16.29.92a1.42,1.42,0,0,1-.57,1.6l-8.41,5.56a1.42,1.42,0,0,1-2-.47l-3.1-5.34a1.42,1.42,0,0,1,.3-1.79l1.22-1-7.91-12.4A133.71,133.71,0,0,0,227,32.16c-8.58,7.7-20.16,18.11-33.1,10.29A142.22,142.22,0,0,1,191.4,60c-.93,5-2.08,9.39-6.77,12.61-4.41,3-11,3.69-15-.9a10.7,10.7,0,0,1-2.39-6.41l-1.32.82a1.42,1.42,0,0,1-1.9-.38l-2-2.88-2.08.69a1.43,1.43,0,0,1-1,0l-1-.43c-2.14,1.36-6,3.86-7.59,4.91l-.94.64a1.42,1.42,0,0,1-1.86-.24l-.17-.2a10.07,10.07,0,0,0-1.32.2l-.82.18a1.42,1.42,0,0,1-1.45-.55l-4.82-6.57-5,3.08a1.42,1.42,0,0,1-1.42,0l-.57-.31-.43.4a29.17,29.17,0,0,1,1.65,4.83,60.27,60.27,0,0,1,0,8.21,14,14,0,0,0,.7,4.17,53.2,53.2,0,0,0,7.58,3c3.93,1.2,7.66,6.13,8.36,9.74l0,.26c.19,3.23-3.47,9.92-5,12.65l-.21.36a1.43,1.43,0,0,1-.12.18l0,.71a1.42,1.42,0,0,1-.34.86l-.25.29c-.12.17-.62.92-1.79,3.08-1.52,3.76-6.53,10.39-10.74,15.76l-.14.18-.61.79c-1.15,1.51-9.3,10.14-12.33,13.34l-.33,7.26a1.42,1.42,0,0,1-.6,1.09l-11.09,7.83,2.93,4.28a1.42,1.42,0,0,1-.17,1.8l-1.35,1.35.33.47h.75a1.42,1.42,0,0,1,1.16.61l2.9,4.17a1.42,1.42,0,0,1-.33,2l-1,.74c-1.13.82-3.07,2.23-3.83,2.7a9,9,0,0,0-1.2,1.95,4,4,0,0,1-2.67,3.67l-.15.07a5.54,5.54,0,0,1-.53,3.39l-.07.15a8.77,8.77,0,0,0,1,1.1,3,3,0,0,1,1,2.87c-.4,1.81-2,2.32-3.25,2.69a9.76,9.76,0,0,0-.95.33,5.14,5.14,0,0,1-6.46-.44,8.48,8.48,0,0,1-2-2.91,10.17,10.17,0,0,0-.72-1.34,17.52,17.52,0,0,0-4-3.5c-.59-.36-2-.08-2.88.11a25.7,25.7,0,0,0-2.46,3.18,1.41,1.41,0,0,1-1.52.56A99.51,99.51,0,0,0,66.7,212.25l-.19.44c-1.55,3.65-3.15,7.42-3.52,11.21a12.56,12.56,0,0,0,.29,4.64,11.36,11.36,0,0,0,.79,1.92,7.12,7.12,0,0,1,.9,5.11c-.59,2.66-1.93,3.1-3.48,3.35a7.14,7.14,0,0,0-1.57.39,12.07,12.07,0,0,0-3.33,2.18,28.9,28.9,0,0,0-2.13,2.12,27.66,27.66,0,0,1-2.72,2.63c-2,1.62-3.45,2.57-6.64,2.13a10.6,10.6,0,0,1-2.09-.59,7.15,7.15,0,0,0-1.46-.42c-2.13-.23-2.54-.11-3,.83a2.25,2.25,0,0,0-.06,1.22,7.71,7.71,0,0,1,.06,1.32c-.23,4.26-1.22,8.33-6.79,9.29a.33.33,0,0,0,0,.07c5,2.47,6.9,9.45,8.42,15.07.39,1.44.76,2.8,1.14,3.93l1.21,3.56Q43.82,286.31,45,290c.94,2.82.89,5.34-.15,7.27a7.67,7.67,0,0,1-5,3.65c-11.92,3.25-18.75,8.3-20.88,15.45-.61,2-.54,3.64.23,4.87,1.69,2.73,6.71,3.6,10.74,4.29,1.12.19,2.18.38,3.14.59l.25.06a11.24,11.24,0,0,1,3.94,1.42c1.47,1,2.15,1.45,2.2,2.36A1.59,1.59,0,0,1,38.94,331.2Zm55.51-51.85.09,0a1.42,1.42,0,0,1,.77.55,5.41,5.41,0,0,0,.83.66,7.18,7.18,0,0,1,1.37,1.16,12.1,12.1,0,0,1,2.66,7.43c1.05-2.74,1.57-5.84.68-8a4.48,4.48,0,0,0-3.3-2.6,4,4,0,0,0-2.71.06A3.41,3.41,0,0,0,94.44,279.35Zm95.08-54.24Zm.71-1.14h0Zm40.5-37.87h0ZM106.29,179.3ZM280,162.75h0Zm7.5-49.77h0Z"/></svg>