<svg id="Layer_1" data-name="Layer 1" xmlns="http://www.w3.org/2000/svg" viewBox="0 0 350 350"><defs><style>.cls-1{fill:#999;}.cls-2{fill:#f90;}</style></defs><title>M</title><path class="cls-1" d="M221.71,48.56l-8.86,5.18-3,2.43-6.46,2.62L198.68,60H185.3l-3,1-4.59,2.3-2.3,4.26h-3.13l-2.77,3.65,4.3,5.87,6,3.7L186,83l4.92,4.3,6.51,3.5,14.35,11.51,5.71,5,3,3.28v3.94l-7.16,5.31L204.82,126l-11.55,5.23L69.73,173.22l-4.43,3-6.64,3.69H47.58l-22.14,9.6H12.15l-5.9,4.43v8.86h7.38l18.45-4.47,14-6.6,7.38.74,4.43,5.87L66,202.78l8.12,7.38,8.12,5.91,11.07,6.64,12.07,3.69,10.81-3.69,15.27-8.86,8.35-5.17,9.6-4.43L162,198.32,172.32,191l8.12-4.43,9.6-5.91h3.69l4.43,5.17-2.21,6.64,5.17,5.87-6.64,5.94-6.64,8.12-5.9,5.91-8.86,7.38h-5.9l5.17,9.6h7.38l5.17,11.81,4.43,3.69h4.43l2.21-6.64,5.17,3,2.21,3.69-5.17,8.12L193,265.52l2.21,5.17,9.6,11.07,7.38,5.17,8.22,5.91,8,5.9,4.78,3.69V292.09l4.82-4.43V275.12l5.9-4.43v-5.17l7.61-5.91,4.18,2.21,8.14,3h5.9l3.69-1.48,5.9-2.21,6.64-6.64,3-5.17,7.38-.74,3,3.69v-5.9l8.12,4.43H317l6.64-13.29,5.9-17.71,8.12-8.12,6.09-13.32-6.91-13.2-3.37-5.5-7.93-3.94-11.81,6.89L308,189l-3.54,9.27H292.57l-8.44-4-4.85-3.36L268,181.59l-3.44-1-1.8-12.44-.66-5.27,3.76-2.6,5.59-5.76L261.48,153l-3.66-.48-6.29-4.69v-3.37l15-9.64-2.11-3.42-4.78-9.86,6.89-5.91-2-5.52-7.65-6.57L255.5,98.8,264,86.12,253.65,86l-8.81-5.27-4.64-3-4.71-4.43L231.61,68l0-5.72,1.09-2.38s7.09-2.66,4.15-8.75S221.71,48.56,221.71,48.56Z"/><path class="cls-2" d="M234.61,305.31l-7.06-5.46-8-5.89-8.21-5.89-7.62-5.39L194,271.45l-2.63-6.14,5.64-7.25,4.66-7.32-1.57-2.62-3.34-1.91-2,6h-6l-5.08-4.23-4.93-11.27h-7.3l-6.69-12.43h7.76l8.41-7,5.81-5.81,6.75-8.22,5.59-5-4.78-5.42,2.22-6.65-3.48-4.06h-2.64l-9.25,5.69-8.11,4.43-10.48,7.42L150,205.54l-9.53,4.4-8.28,5.12-15.56,9-11.25,3.84-12.82-4-11.18-6.71-8.24-6-8-7.27L57,199.41l-4.24-5.61-6.37-.64-13.94,6.53L13.63,204.2H4.83v-11l6.85-5.14H25.15l22.14-9.6h11L64.56,175l4.71-3.13L192.75,130l11.35-5.14,14.89-11V111.1l-2.53-2.81-5.65-4.94L196.6,92l-6.66-3.62-4.71-4.12L179.06,82l-6.19-3.85-5.09-6.95,3.84-5.05h3l2.11-3.91,5.18-2.57,3.17-1.06H198.5l4.4-1.18,6.19-2.51,3.06-2.41,9.18-5.32c.54-.16,13.35-3.72,16.76,3.37a7,7,0,0,1,.39,5.83A9.53,9.53,0,0,1,233.71,61l-.73,1.6,0,4.95,3.54,4.82,4.52,4.25,4.52,2.88L254,84.57l12.62.17L257,99l1.08,3.72,7.61,6.54,2.42,6.79-6.8,5.83,4.28,8.82,2.8,4.54-15.48,10v1.89l5.42,4,3.29.43,12.68,1.93-7.72,7.92-3.05,2.11.56,4.42,1.66,11.51,2.85.81,11.5,9.5,4.71,3.26,8,3.83h10.57l3.28-8.6,6.08-6.84,12.67-7.39,9,4.46,3.59,5.84,7.27,13.9-6.49,14.19-8.06,8.06-5.88,17.58-7,14.07H307l-6.34-3.46v7.56l-5-6.25-5.89.59-2.68,4.7-7,7-6.19,2.32L270,266.2H263.6L255,263.08l-3.37-1.79-6.34,4.92v5.18l-5.9,4.43v12.46l-4.82,4.43ZM205.75,280.7l7.24,5.07,8.24,5.91,8,5.92,2.52,1.95v-8.07L236.6,287V274.41l5.9-4.43v-5.15l8.88-6.89,4.9,2.6,7.81,2.83h5.38l3.44-1.37,5.65-2.12,6.29-6.29,3.22-5.64,8.88-.89.91,1.14v-4.25l9.9,5.4h8.36l6.21-12.41,6-17.94,8.18-8.18,5.7-12.46-6.58-12.59-3.11-5.06-6.88-3.42-11,6.39-5.43,6.11-3.79,9.94H292.25l-8.92-4.27L278.38,192l-11.09-9.16-4-1.15-1.93-13.35-.78-6.15,4.35-3,3.58-3.69-7.21-1.1-4-.52-7.16-5.33V143.7l14.44-9.3L263.11,132l-5.26-10.85,7-6L263.32,111l-7.68-6.6L254,98.56l7.44-11.06-8.15-.11-9.13-5.47-4.88-3.13-4.88-4.62-4.15-5.66-.06-6.5,1.46-3.19.55-.21s2.83-1.1,3.7-3.28a4.26,4.26,0,0,0-.32-3.53c-1.94-4-10.06-2.79-13.26-1.92l-8.61,5-3.13,2.49-6.81,2.75-5,1.3H185.53l-2.64.88-4.1,2.05L176.3,69H173l-1.71,2.25,3.52,4.8,5.59,3.48,6.26,2.19,5,4.37,6.59,3.57,14.35,11.51,5.88,5.16,3.32,3.68v5.19L205.4,127.34l-11.68,5.28L70.36,174.5l-4.38,3-7,3.87H47.88l-22.14,9.6H12.63l-5,3.72v6.73h5.79L31.61,197l14.25-6.71,8.39.84,4.62,6.12L67,201.73l8.06,7.33,8,5.82,10.87,6.52,11.46,3.51,10.25-3.5,15.15-8.79,8.47-5.23,9.6-4.43,12.42-5.88,10.38-7.36,8.12-4.43,9.87-6.08h4.74l5.38,6.27-2.21,6.63,5.56,6.31-7.61,6.81-6.67,8.14-6,6-9.25,7.71h-4l3.64,6.76h7.46l5.4,12.35,3.78,3.15h2.89l2.44-7.31,7,4,2.86,4.76-5.71,9-4.65,6,1.8,4.2Z"/></svg>