<svg id="Layer_1" data-name="Layer 1" xmlns="http://www.w3.org/2000/svg" viewBox="0 0 350 350"><defs><style>.cls-1{fill:#999;}.cls-2{fill:#f90;}</style></defs><title>M</title><path class="cls-1" d="M182.56,333.8s-1.08,1-1.66,0-1.58-2.74-1.74-2.93-1.39-1.31-1.31-2.55a17.5,17.5,0,0,0,0-2.24s-2.93-1.77-3.47-3.39c-.58-1.16-1.2-.81-1.85-.89a15.45,15.45,0,0,1-2.31,0c-.66-.19-.58-.39-1.23-.39a4.43,4.43,0,0,0-2,.37,4.84,4.84,0,0,0-.66,1.87c0,.58.27.19.35,1s.27,1.08,0,1.35-.77.31-1.35.89a3.33,3.33,0,0,1-1.5.94c-.73.3-1.51-1.28-1.51-1.28a24,24,0,0,0-2.77-.73c-.15.08-.58.23-1,.42s-1.47.73-1.62.15a1.52,1.52,0,0,0-1.81-.81,5.59,5.59,0,0,1-1.43.08c-1,0-1.39-.12-1.39-.62s.23-1,0-1a1.89,1.89,0,0,0-.62,0l.19-1.7-1.39-.12s.93-1.47.23-2.43a6.57,6.57,0,0,1-2.24-.23v-1.12l-2.12,0,.12-2.7a16,16,0,0,1,.73-3.51c.46-1-.12-2.66-.08-3.78s-.93-1.47-2-1.7-6.44.23-7.87.93-.77.81-2.74.73-2.24.15-2.24.15l.15-1.58H131l.31-1.7h-.89l.39-3.74H119.66v-2.43H115.8l-.27,3.82-2,.46v1.5l-.81,0v.69l-1.08.19v-1.5l-1.58,0v-1.23l-1-.19.42-1.62h-4.17v-2h-1.85v-2h-4V286.63l-1.89-.42V284l-4.2.19v-1.93h-1.7v-1.58h3L94.59,279h-.5v-1.47L95.4,276l-1.23-5.25a2.17,2.17,0,0,1,.89-1.58c.89-.69.54-1.81,1.31-1.85s.73-.12,1.2-.81a3,3,0,0,0,.81-1.81c.23-1.27.73-1.62-.08-2.2s-.58-.54-1.16-.66-.35-.69-.35-1.85.35-13.07.35-13.07a3.89,3.89,0,0,1-2.51.81c-1.62,0-1.74.31-2.28-.42s-.66-1.39.19-3.2.54-3.93,1.93-4.32,9.8-.54,12.19-.85a82.08,82.08,0,0,1,10-.39c2,.12,3.7,0,3.7-.62s.19-1.2-1.12-2.89-1.27-1.39-1.89-1.77-1.2-1-.19-1.08a16.39,16.39,0,0,1,3.43,0,21.14,21.14,0,0,0,.15-2.78l-.81-.5.15-2h.77V225h1.23v-1.74h1.74v-2h2.24v-1.77h1v-3.12s1.93-.12,2-.39a19.07,19.07,0,0,0,.35-3,2.69,2.69,0,0,0-.54-1.39L117.19,215l-.69-3.74a4.72,4.72,0,0,1-1.5-2.7,30.38,30.38,0,0,1-.31-6.17,27.54,27.54,0,0,0-.39-4.94h-2.08v-1.31c0-.15,1.7,0,1.7,0l0-3.82h-.54l-.39-2.85h-1.27l.08-2.55s-.69-.08-1.5-1.2a15,15,0,0,1-1.5-3.16s-2.28-2-2-4.17a8.86,8.86,0,0,1,2.39-4.67c1.08-1.31,2.58-2.12,3.2-3.9s.08-6.09.08-6.09l3.51-.23a12.29,12.29,0,0,1,1.54-1.2c1.12-.77,1.35-.46,1.12-2.12s.93-1.74-1.54-2.08-6.9-.39-6.9-.39l.08-2.62a3.19,3.19,0,0,0-2-.73c-1.5-.19-5-.46-5-.46l-2.16-1.93-10.92,4.67-15.5,7.33-20.79,2.2v-5.28H51.54V159h-3v1.89H42.67v3H37.23a15.38,15.38,0,0,1-1.89,0,4.82,4.82,0,0,1-2.16-.85c-1-.77-1.5-.12-1.39.15A25.93,25.93,0,0,1,32,166L9.7,165.79s-.5-.58-1.39-1.47-1.93-3.51-.89-5.28,3.32-4.2,3.63-5c0-1,.27-2.2-1.62-2.31-1.27.62-3.36,1.16-3.16-1.81a5.87,5.87,0,0,0,1.12-4.24c-.15-.77,1.85-3,3.39-3s1.47.19.89.77-2.58,2.58-.42,4.44c1.58.81,2.66,1.27,4.67.31.35.23.46.31.62,1.58s.35,3.47,2.93,3.7a4.62,4.62,0,0,0,3.78-2.31,3.61,3.61,0,0,0-.42-3.16c-.66-.93-1.35-2.62-.08-2.7,1.39.62,3.55.81,3.66-1.16,0-1.54-.42-1.5-1.74-2.43a3.77,3.77,0,0,0-3.82-.5c-1.27.46-2.12-.35-2.93-.73a9.74,9.74,0,0,0-4-.39c-.77.19-1.5-1.74-.46-2.35a8.54,8.54,0,0,1,6.67,0,6.49,6.49,0,0,0,5.36-1.7c1.08-1.08,7.29-3.86,7.71-4.28s2.39-.35,3.28.89a4.05,4.05,0,0,0,5.67.54c2-1.47,2.78-2.43,3-3a1.63,1.63,0,0,0-.42-1.66,2.46,2.46,0,0,0-3.09,0,17.17,17.17,0,0,1-4.51,1.5s-2.31-1.77.73-3.59c3.12-1.39,3.7-2.35,4.13-1.81.42.69.58,3.86,3.74,3.78s4.67-.73,5.17-1.58,1.2-1.93.46-2.85-2.58-2.7-.15-3.39,3.2-.58,3.09-1.77-.81-2.08,1.08-3.12c1.93-1.54,5-1.85,5.82-5.71,2.39-.5,4.09-1.2,6.06-1.43a7.55,7.55,0,0,0,3-.89c.42-.19.69.93,2.16,1a3.54,3.54,0,0,0,3.36-2.55A2.64,2.64,0,0,1,77.54,104c.73-.27.93-2.51-.54-3.55s-4.63-2.43-5.32,1.66c-1.31.93-.58,1.08-2.58.39s-4.47-.85-3.12-4.44c.77-2.82,1.47-3.78.19-5.05s-2.43-2.31-3.51-2.28-2.58,0-.77-1.58c2-.35,4.28-.93,5.36.77,1.23,1.62,4.32,2.47,5.44,1.39s2.93-3.16,3.78-3.59,2.47-.81,2,1.27,1.66,2.74,3.36,2.28,3.82-1.23,4.09-2.08a2.59,2.59,0,0,0-1-2.85c-1.08-.81-3.93-1.27-4.67-1.5s-1.31-1-.31-2,2.74-2.51,3.59-2.24,1.27,1.54,2.24,2.43a3.28,3.28,0,0,0,2.78,1.16c1.08-.12,2-1.23,2.16,1.16s1.54,1.7,2.43.42,2.16-2.62.54-3.82-3.82-1.47-3.24-5.36,2.47-1.2,3.16-.23,2.24,4.13,3.09,4.74,2.93,3.78,4.09,2.74a5.12,5.12,0,0,1,2.43-1.54c.81-.19,4.86-2.31,5.67-1.39.35,1.47,1.16,3.32,3.24,2.31s2.31-4,3.78-4.63a2.74,2.74,0,0,1,3.16.85c.35.58,4.78,3.24,2.58,4.74-2.08.89-3.24,2.47-1.5,4a36.32,36.32,0,0,1,3.39,3.47c.62.73,4.09,1.66,5.05.58s.73-3.51.31-5-.69-4.09.23-5.44,2.2-2.2,2.31-3.32-.27-3.09.89-3,3.7,0,2.78,2.51c-1.35,2.2-1.39,2.31-.35,3.66s1.62,1.27,2.62,2.66,0,2.51,2.58,3.59,3.7-.5,4.67,1.89c2.08.27,4.55.23,3.43,3.39-.66,2.39-2.74,4.28-1.62,7.64s1.66,5,3.74,5,2.66-1.08,2.85-2.28-.12-2.93,1.81-2.78,4.2-1.62,4.44-2.39.27-6,.42-6.83.39-1.77,2-.89c1.7-.08,3.2-1.23,4.17-1.35s3.32,1.27,3.86,1.93,2.78,4.09,7.25-.66c.31.66,0,.66.39,2.16s3,4.71,5.44,2c-.5,2.2-.15,3,2.31,2.55,1.27.77,2.82,1.47,3.32,2.12s.08,1.08,1.27.85.93-1,1.35-1.58,2-1.35,1.62-3.28-.12-2.31,1.16-2.31,3.12-.62,4.55-.42,3,.15,3.09-2.2a1.29,1.29,0,0,0-1.31-1c-.39,0,.12-4.55.08-5.05s-1.23-.35-1-1.35.69-1.58.19-2.24a1.26,1.26,0,0,0-1.16-.54,3.35,3.35,0,0,0-1.31-2c-.08-1.31-.5-3.2,0-4.4a6.77,6.77,0,0,1,4.28-1c.81,0,3.39-.12,2.62-3.12a6.23,6.23,0,0,0-3.32-3.66c.93-1.89,2.2-3.43,1.2-7.48a2.67,2.67,0,0,1,2.08-4c3-1,4.13-2.43,5.75-2.43s2.58-.73,2.47-2.47-.4-3.09,0-3.63S211.22,42.72,209,45c-1.2.73-3.63,1.27-2.31-1.31a4.94,4.94,0,0,0,1-2.93c0-1,1.16-3,1.7-3.9s.91-3.36,2.79-2.74c.45.69,1.49.15.45,1.16s-5.17,1.35-3.36,5c1.81,1.2,2.7,1.7,3.63,2.2s2.39.81,2.66-1-2.12-4.36-.69-5c2.35-.31,3.2,0,4.4,1.35s4.94,2.43,5.48-.89c-.23-2.43-.12-2.93.39-3.74s-.58-5-3.39-3.24c-2.31,1-5.86,0-4.9-3,1.31-2.39,2.74-5.17,3.93-5.32s5.09-2.12,5.67-3.66,1.5-3.2,2.78-1.47c-1,1.54-2.24,4.09-1.39,5.86,1.39,1.7,3,1.27,4.78,2.24s1.81-.19,2.43,1.7,3.16,9.91,3.16,9.91a25,25,0,0,1,1.66,9,1.55,1.55,0,0,1,.85,1.77s1.35,2,.31,2.24-1.31.42-1.23,1.27.27,2.58.31,3.86-.46,2.93.69,2.93a4.36,4.36,0,0,0,1.66-.23l-.54,4.44,3,.39v3s1.27,0,1.23.62.31.54-.62,1.12-1.77.81-1.7,1.54.39,5.94.39,5.94l2,0s-.39,2.82,0,3.12a2.78,2.78,0,0,0,1.59.31c.27,0-.31,4,.23,4.28s1.7-.77,2.62-.85a25.18,25.18,0,0,1,2.74-.27c.77,0,1.23-.15,1.77.08a5.9,5.9,0,0,1,1.35.69c.12.15-.27,1.27-.15,2s.18,2.82.18,2.82a5.6,5.6,0,0,1,1.8.86,6.33,6.33,0,0,0,3.53.2c.26-.2.78,0,.81.61a26.08,26.08,0,0,1,0,3c-.09.55-.72,1.79-.2,2.34a3,3,0,0,0,2.34.64c1.1,0,3.64.2,3.64.2a2.13,2.13,0,0,1,1.74.17c.72.52.29.58,1.13,1.19s3.76.49,4,.52S291,95.95,291,95.95s1-.52.93-1.16c1.21,0,2,0,2.92,0a6,6,0,0,0,2.57-.35,3.25,3.25,0,0,1,1.74-.38c.55,0,2.31-.26,2.72.09s1.65.23,2.08.58,0,.14.64.93a3,3,0,0,0,1,.9l-.17,11.77h-4a4.09,4.09,0,0,0-.14,1c0,.67-.32,4.63,0,5.41s.35.72,1.62.67.61-.58,1.82-.75,1.36.06,1.91-.17,1,.46,1.27-.69-.35-2.23.84-2.52,1.48-.9,1.5-1.91,3-.2,3-.2-.93,1.1.17,1.24a68.37,68.37,0,0,0,9.2.32,47.44,47.44,0,0,0,7.12-2c.93-.29,1.48.17,1.62,1.33a8,8,0,0,1,0,2.05s-2.6-.61-3-.29-.58.35-.58,1.39a9.53,9.53,0,0,0,.12,2.14c.09,0,.67-.06.72.2a13.7,13.7,0,0,1,.35,1.68c.12.87,0,2,.06,2.43a2,2,0,0,0,2.26,1.91c1.91-.14,8-.14,8-.14l.23,6.36-1,.23-.32-1.24s-3.62-.35-3.62.41.52.72-.09,1.33-.72.84-1.16,1.3-1,.32-1,.84.52,5.93.52,5.93.32,2.26.75,2.49a8.44,8.44,0,0,0,2.4-.06,1,1,0,0,1,1,.81c0,.41.58.55.64.69s.14,1.39.2,1.79-7.23-3.5-9.34,3.3c-1.07,3-1.85,6-6.25,5.18-3.3,0-4.08-.41-4.28-.12s.14,1.07.38,1.59a4.39,4.39,0,0,1,.09,1.68l-1.45.12-.14,3.21.93.55a19,19,0,0,0-1,3.12c-.06.81-.46,4.28-.49,5-1.19-.06-2.14.17-2.29,1.39a29.44,29.44,0,0,0-3.41-.14l-6.6,9.72s-.43.9,1.27,1.16c.81.81.55.58,1.1,1.07s.46.64.78,1a2.88,2.88,0,0,1,.43,1.1l-.29,7.43a1.64,1.64,0,0,0,1.48-.43c3.24-3,4.25-4,4.22-4.37a7.05,7.05,0,0,1-1.39-1s-.14-3-.06-3.07,8.16-3.36,8.16-3.36-.06-1.24.23-1.21c.9.29,1.21.23,1.21-1.07v-4.34l1.36-.12,2.05-.32.61,1.19a4.08,4.08,0,0,1,2.4-.58,12.79,12.79,0,0,1,3.91.78c1.33-.43,2.37-1,3.41-.84s1.21.81,1.79.93-.38.46-.67,1.24a31.89,31.89,0,0,0-1.21,3.47c0,.46,1.36.17,1.36.17l.2,3a16.83,16.83,0,0,0-.38,2.89c.06.81,1.27.43,1.27.43l-.17,3.36,4.92.23s-.49,1.3.61,1.33c.58.9.12,1.79,1,1.91-.06,1.45-.46.69-.38,2.29s.06,3.88.06,3.88l-8.85,1.65a15.77,15.77,0,0,0-.17,4.31c.17,3-.32,11.86-.32,11.86a2.58,2.58,0,0,1,.72,1.56c0,.84.17.87-.49,1.16s-.78.52-.52,1.48,1.21.35.93,1.13-1.27.38-1.24,1.27.12,2.08.17,2.52a9.37,9.37,0,0,0,.52,1.71,8.43,8.43,0,0,1,.23,1.56c0,.23-1.39,1.13-1.39,1.13l-.2,3.24-.78.55.06,10s-1.79-1.33-1.45,2.89c-1.1,0-.93-.14-.87.58-1,.06-.55-.09-1.74-.93s-.87-.78-1.19-.84-.32-.64-.75-1.27,0-.78-1-.46-.67.61-1.56.49-.32.32-1.76-.41-1-.87-1.68-.87-2.89-1.59-3.21.75c-.32,2.11-.29,2.69-.61,3.33s-3.85,3.33-4.11,4.31c-.61.75-.78,1.3-2.23.46s-3.53-1.85-4.19-.67c-1.24-.46-5-1.19-7.29.75-2.55-.64-2.11.43-3.53-.9s-7.49,1.39-8.88,3.15c-1.24,1.45-1.71,1.74-1.74,2.43s.29,1-.38,1.36a3.2,3.2,0,0,1-1.5.35c-.38,0-.06-1.27-.06-1.79s.46-2.83-.2-3.24-5.44-.29-5.44-.29a1,1,0,0,0-.58,1c.06.81.35,1.3,0,1.56s-2-.06-2-.06-.17,1.65-.17,1.94-2.29.32-2.29.32a3.86,3.86,0,0,0,.12,1.53c.23.49.35,1.07.09,1.21a4.39,4.39,0,0,1-1.3.09l-2.6,4s.2,3.38.2,3.47-2.66,0-3.15.43a1.43,1.43,0,0,0-.26,1.53c-1,.06-1.53.49-1.53,2a5.94,5.94,0,0,1-.58,2.4l-1.82.43c-.12,0,0,1.71-.41,1.85-.75,0-1.91.32-.52,2.72-1,.2-1.3.46-1.85.58s-3,1.33-4.89.61c-1.85-1.33-3.24-2.57-4-2.89s-3.12-.12-2.49,2.2c1,2.29,3.41,9.34,4.34,9.11-.81.87-.75,1-.43,2.11a13.93,13.93,0,0,1,.4,2.46s-1.71.58-1.88.69-2.63.52-2.63.52-1.36-2.4-2-.67a14.31,14.31,0,0,1-1.33,2.69L228,292.65v3.76s-2.34.78-2.34,2.81c-1.3-.09-2.11.17-2.11,1.19-.17.67-1.39,1.76.38,1.79-.9.52-1.68.9-1.39,1.79-1,.06-4,.46-3.62,2.49.49,1.16.69,2.78,1,2.83s.75.93,1.56.41c.58.26.26.32,0,1.19s-.67,1.65-.06,2.05,1.24-.14,1.68-.14.49.43.32,1-.87.35-1.13,1.1a6.8,6.8,0,0,0-.29,2.52c.09.49.2.78.67.64,0,1.3.72,1.48,1.27,1.5s1,1.62,1,1.62-7.55-3.59-8.45-5c-2.2-2-4.83-4.63-5.87-5.09s-4.86-1.65-3.73,1.16c.93,2.17-.64,7.64-.64,7.64a7.18,7.18,0,0,0-2.37-1.62c-1-.23-3,2-5.67,1-2.26-1.39-5.09-4.74-6.22-1.71-.23,1.07-1.5,2.69-2.17,1.74a1.82,1.82,0,0,0-2.63,1.1c-.32,1-2.81,3.44-3.24,5.09s-1,2.37-1,4a29.43,29.43,0,0,1-.09,3.21Z"/><path class="cls-2" d="M181.59,335.66l-.32,0a2.21,2.21,0,0,1-1.59-1.13c-.4-.69-1.46-2.52-1.64-2.79a4.92,4.92,0,0,1-1.59-3.48c0-.52,0-1,0-1.36-1-.7-2.81-2.09-3.39-3.62l0,0H173a4.61,4.61,0,0,1-.63,0,4.87,4.87,0,0,0-.68,0,5,5,0,0,1-1.87-.08,3.92,3.92,0,0,1-.79-.33,6.64,6.64,0,0,0-1,.09,5.52,5.52,0,0,0-.2.55,2.53,2.53,0,0,1,.3,1c0,.2,0,.35.07.48a2,2,0,0,1-.58,2.07,3.14,3.14,0,0,1-.74.46,1.72,1.72,0,0,0-.54.36,4.48,4.48,0,0,1-1.87,1.2l-.1,0c-1.07.43-2.18-.1-3-1.41-.63-.19-1.27-.37-1.63-.46l-.13.05-.55.22-.17.07a2.91,2.91,0,0,1-2.44.27,1.71,1.71,0,0,1-.86-.91.72.72,0,0,0-.27,0,3.81,3.81,0,0,1-1.07.1,5.28,5.28,0,0,0-.55,0,3,3,0,0,1-2.28-.61,1.87,1.87,0,0,1-.54-1l-.83.07.21-2-2.26-.19,1.25-2a2,2,0,0,0,.14-.28,8.25,8.25,0,0,1-1.35-.27l-1-.3v-.73l-2.18,0,.18-4.2a16.1,16.1,0,0,1,.87-4.06,5.17,5.17,0,0,0-.08-1.58,9.76,9.76,0,0,1-.14-1.62,3.18,3.18,0,0,0-.89-.28,24.63,24.63,0,0,0-7,.81,6.26,6.26,0,0,0-.68.38c-.81.51-1.21.55-2.73.49a10.25,10.25,0,0,0-1.5,0l-2.43,2.09.34-3.53h-1.49l.31-1.7h-.76l.39-3.74h-11v-2.43h-1.12l-.25,3.55-1.93.44v1.86l-.81,0v.4l-3.92.7V305.6l-1.58,0v-1.46l-1.3-.26.34-1.3h-3.75v-2h-1.85v-2H98V287.77l-1.89-.42v-1.85l-4.2.19v-2h-1.7v-4.42h2.43v-2.22l1.19-1.43-1.11-4.88a3.59,3.59,0,0,1,1.43-2.7c.08-.06.12-.18.21-.45a2.12,2.12,0,0,1,1.87-1.7l.12-.18c.13-.2.24-.34.34-.46l.1-.13a3.38,3.38,0,0,0,.16-.69,8.45,8.45,0,0,1,.24-1l-.29-.22h-.07c-1.64-.33-1.55-1.95-1.51-2.55,0-.2,0-.43,0-.69,0-.87.18-7.43.29-10.93a6,6,0,0,1-1,.09c-.41,0-.71,0-.95,0a2.37,2.37,0,0,1-2.47-1c-1.08-1.47-.78-2.86.05-4.64a8.31,8.31,0,0,0,.51-1.74c.26-1.21.62-2.87,2.32-3.34a51.54,51.54,0,0,1,7-.55c2.17-.1,4.41-.21,5.4-.34a84.26,84.26,0,0,1,10.29-.39,14,14,0,0,0,2.14,0,4.73,4.73,0,0,0-.76-1.23c-.83-1.07-1-1.13-1.07-1.19a4.63,4.63,0,0,1-.45-.25c-1.1-.69-1.56-1.47-1.36-2.33a1.82,1.82,0,0,1,1.76-1.36,20.37,20.37,0,0,1,2.3-.13c0-.15,0-.3,0-.46l-.86-.53.32-4.17h.67v-1.93h1.23v-1.74h1.74v-2h2.24V218h1v-3l1.33-.08.89-.08c.06-.49.13-1.13.16-1.58l-12,3.57-.9-4.85a6.09,6.09,0,0,1-1.59-3.18,31.38,31.38,0,0,1-.32-6.53,19,19,0,0,0-.2-3.39h-2.27v-3.35l.47-.44a1.7,1.7,0,0,1,1.21-.42v-.91h-.38l-.42-2.85h-1.46l.09-3.1a5.24,5.24,0,0,1-1.21-1.23,14.79,14.79,0,0,1-1.58-3.21c-.73-.74-2.49-2.8-2.15-5.16a10.24,10.24,0,0,1,2.7-5.36,14.09,14.09,0,0,1,1.3-1.33,5.52,5.52,0,0,0,1.66-2.13,17.78,17.78,0,0,0,0-5.45l-.19-1.49,4.53-.3c.28-.23.71-.56,1.31-1,.22-.15.41-.27.57-.36,0-.1,0-.23,0-.4a4.69,4.69,0,0,1,0-.83l-.29,0c-2.35-.33-6.68-.37-6.72-.37h-1.45l.09-3.21a4.3,4.3,0,0,0-.71-.15c-1.45-.19-4.91-.45-4.94-.46l-.48,0-1.84-1.65-10.09,4.31-15.67,7.41-22.59,2.39v-5.44H50.13v-1.81H50v1.89H44.09v3H37.23a7.21,7.21,0,0,1-2.34-.07,6.22,6.22,0,0,1-1.53-.45c0,.31,0,.68,0,1.1l0,1.48L9,167.21l-.42-.48s-.49-.56-1.32-1.39c-1.18-1.18-2.56-4.53-1.11-7a29.74,29.74,0,0,1,2.31-3.17c.38-.48.88-1.11,1.12-1.45v-.07c0-.12,0-.29,0-.42a3.56,3.56,0,0,1-3.52,0,3.46,3.46,0,0,1-1.26-3.35l0-.32.33-.58A4.17,4.17,0,0,0,6,145.89a3,3,0,0,1,.88-2.34,5.81,5.81,0,0,1,3.89-2.31c.84,0,2.11-.05,2.59,1a1.94,1.94,0,0,1-.66,2.14c-.67.67-1,1.21-1,1.61a1,1,0,0,0,.37.65c1.32.67,1.9.85,3.24.21l.73-.35.67.45c.86.57,1.06,1.15,1.24,2.59.2,1.7.45,2.31,1.51,2.45a3.16,3.16,0,0,0,2.45-1.39c.19-1.1.07-1.42-.23-1.84s-1.52-2.34-.83-3.77a2.09,2.09,0,0,1,1.83-1.16l.35,0,.32.14a2.4,2.4,0,0,0,1.65.24h0s0,0,0-.14a1.9,1.9,0,0,0-.06-.51l-.47-.31-.6-.41a2.38,2.38,0,0,0-2.47-.35,4,4,0,0,1-3.66-.54l-.42-.23a9.41,9.41,0,0,0-3.1-.29,2.17,2.17,0,0,1-2.49-1.5,2.69,2.69,0,0,1,1-3.44l.16-.08a9.93,9.93,0,0,1,7.63-.07,5.19,5.19,0,0,0,4-1.33c.77-.77,2.82-1.83,5.64-3.24.84-.42,1.88-.94,2.16-1.12a3,3,0,0,1,2.16-.55,4.82,4.82,0,0,1,1.06.21,3.18,3.18,0,0,1-.62-2,4,4,0,0,1,2.26-3.08l.15-.08a22.84,22.84,0,0,0,2.69-1.41c.79-.47,2.12-1.27,3.13,0l.1.14a4.37,4.37,0,0,1,.4,1c.46,1.5.84,2.13,2.1,2.09,3.47-.08,4-.88,4-.89l.06-.1a3.47,3.47,0,0,0,.52-1.14l-.26-.3c-.7-.84-1.77-2.11-1.33-3.54a2.82,2.82,0,0,1,2.14-1.81l1.32-.35.71-.19c0-.1,0-.18-.05-.27a3.2,3.2,0,0,1,1.79-3.91,13.4,13.4,0,0,1,1.93-1.18c1.58-.85,2.83-1.51,3.3-3.65l.2-.89.9-.19c1-.2,1.8-.43,2.61-.66a23.28,23.28,0,0,1,3.57-.79,6.16,6.16,0,0,0,2.37-.64l.26-.12a1.86,1.86,0,0,1,2.09.52,1.1,1.1,0,0,0,.77.4,2.16,2.16,0,0,0,1.88-1.51,4,4,0,0,1,2.28-2.88,1.36,1.36,0,0,0-.5-1.21,3.16,3.16,0,0,0-2.37-.78c-.33.14-.6.69-.74,1.52L73,103l-.48.34a5.08,5.08,0,0,0-.53.43c-1,.94-1.76.69-3,.26l-.37-.13-.74-.23c-1.2-.36-2.69-.81-3.38-2.22a4.67,4.67,0,0,1,.11-3.76c.15-.53.29-1,.42-1.42.55-1.77.5-1.81.12-2.2s-1.89-1.86-2.46-1.86c-.73,0-2.45.09-3-1.26s.75-2.41,1.23-2.82l.3-.25.91-.16c2-.36,4.73-.84,6.23,1.44.88,1.11,2.93,1.47,3.3,1.19s.7-.71,1.11-1.13a14.11,14.11,0,0,1,3-2.7c.6-.3,2.14-.91,3.29,0a2.63,2.63,0,0,1,.78,2.85c-.07.36,0,.45.05.48a1.88,1.88,0,0,0,1.54.14,9.55,9.55,0,0,0,3.14-1.26,1.19,1.19,0,0,0-.53-1.17,12.53,12.53,0,0,0-3.24-1c-.44-.1-.8-.19-1-.25a2.56,2.56,0,0,1-1.76-1.73,2.72,2.72,0,0,1,.84-2.63c.91-1,3.23-3.2,5.06-2.62A4,4,0,0,1,86,81a6.11,6.11,0,0,0,.8,1c.88.81,1.22.84,1.67.79a2.62,2.62,0,0,0,.44-.13,2.35,2.35,0,0,1,2.2.08,2.71,2.71,0,0,1,1,2.08l.2-.28a4.78,4.78,0,0,0,.76-1.27s-.06-.07-.2-.17a9.69,9.69,0,0,0-.86-.54c-1.5-.88-3.55-2.08-2.94-6.17.1-.69.42-2.8,2.05-3.19s2.95,1.35,3.63,2.3c.32.44.67,1.06,1.09,1.78A18,18,0,0,0,97.55,80a8.4,8.4,0,0,1,1.12,1.11,11.88,11.88,0,0,0,1.47,1.44,5.9,5.9,0,0,1,2.75-1.6c.12,0,.56-.22.92-.37,2.28-1,4.87-2,6.15-.58l.23.26.08.34c.25,1,.57,1.43.7,1.5a.87.87,0,0,0,.54-.13,4.3,4.3,0,0,0,1.57-2,4.88,4.88,0,0,1,2.3-2.64,4.18,4.18,0,0,1,4.83,1.33c.11.11.29.25.5.43,1.28,1.05,3,2.49,3,4.26a2.58,2.58,0,0,1-1.22,2.06l-.24.13c-1,.43-1.45.93-1.49,1.14s.1.3.38.55a38.2,38.2,0,0,1,3.52,3.61,5,5,0,0,0,3,.49c.31-.36.39-2-.06-3.58s-.88-4.74.42-6.63a13.93,13.93,0,0,1,1.19-1.46,3.92,3.92,0,0,0,.88-1.21,7.76,7.76,0,0,0,0-.78,3.81,3.81,0,0,1,.8-3,2.06,2.06,0,0,1,1.58-.54h.23c1,.06,2.77.15,3.64,1.48a3.12,3.12,0,0,1,.14,2.92l-.12.24a14,14,0,0,0-.85,1.49c.09.16.31.44.41.57a5.44,5.44,0,0,0,1.05,1,7.65,7.65,0,0,1,1.6,1.65,4.92,4.92,0,0,1,.79,1.87c.15.63.2.82,1.19,1.24a4.46,4.46,0,0,0,1.92.33,3.15,3.15,0,0,1,3.12,1.55c1.34.16,2.94.4,3.76,1.7a3.86,3.86,0,0,1,.1,3.43,13.67,13.67,0,0,1-.92,2.26c-.73,1.51-1.31,2.7-.7,4.51,1.17,3.52,1.49,4,2.4,4,1.22,0,1.34-.39,1.45-1.08,0-.19,0-.39.06-.59a3.74,3.74,0,0,1,1.05-2.76,2.92,2.92,0,0,1,2.21-.62A4.47,4.47,0,0,0,158,98c.08-.5.15-2.38.19-3.53.06-1.67.1-2.63.18-3.08a2.78,2.78,0,0,1,1.38-2.21,2.68,2.68,0,0,1,2.26.12,8,8,0,0,0,1.89-.67,6.46,6.46,0,0,1,1.83-.63c1.63-.19,4.44,1.61,5.12,2.43l.12.15a2.49,2.49,0,0,0,1.68,1.15c.88,0,2.05-.68,3.32-2l1.43-1.51.89,1.88a2.81,2.81,0,0,1,.28,1.29,3.62,3.62,0,0,0,.18,1.09,3.35,3.35,0,0,0,1.85,2c.15,0,.55.13,1.17-.57l3.67-4.14-1.23,5.4a6.27,6.27,0,0,0-.16,1,5,5,0,0,0,.81-.11l.54-.11.47.29c.36.22.75.43,1.12.64a8.46,8.46,0,0,1,2.58,1.82,3,3,0,0,1,.34-.66,4.39,4.39,0,0,1,.66-.71c.63-.59.85-.87.74-1.51-.21-1.19-.35-2.32.36-3.16a2.73,2.73,0,0,1,2.19-.82,10.79,10.79,0,0,0,1.57-.2,10.93,10.93,0,0,1,3.17-.22c1,.14,1.26,0,1.31,0a.72.72,0,0,0,.14-.38h0c-1.64-.16-1.52-1.75-1.27-5.22l0-.58a2.07,2.07,0,0,1-1-2.27,7.76,7.76,0,0,1,.27-1l0-.06-1,.17-.29-1.32a1.93,1.93,0,0,0-.64-1l-.66-.38,0-.76c0-.29-.05-.62-.09-1a8,8,0,0,1,.25-4.1l.17-.37.34-.23A7.78,7.78,0,0,1,201,71.5h.27c1,0,1.24-.28,1.26-.31a1.27,1.27,0,0,0,0-.92c-.63-1.32-1.22-2.35-2.46-2.81l-1.48-.54.69-1.41c.13-.25.26-.5.39-.75a6.63,6.63,0,0,0,.75-5.57,4.38,4.38,0,0,1-.12-3.62,4.08,4.08,0,0,1,3.19-2.34,16.52,16.52,0,0,0,2.83-1.33,6.56,6.56,0,0,1,3.27-1.14,1.44,1.44,0,0,0,.94-.21,1.13,1.13,0,0,0,.12-.75c0-.42-.07-.82-.1-1.19a6.06,6.06,0,0,1,.14-2.94.53.53,0,0,0-.1-.14A3.06,3.06,0,0,0,210,46l-.26.21c-1,.61-3,1.35-4.2.24-.57-.53-1.06-1.55-.12-3.41l.2-.3a3.65,3.65,0,0,0,.61-2c0-1.24.94-2.92,1.89-4.56a5,5,0,0,0,.26-.59c.4-1,1.47-3.67,4.2-2.78l.47.16.17.26a1.62,1.62,0,0,1,1.19,1.16,1.5,1.5,0,0,1,0,.8l0,0,.21,0c2.77-.36,4.09.06,5.64,1.81a2.88,2.88,0,0,0,2.38.78c.14,0,.45-.13.6-.8-.2-2.18-.14-3.13.52-4.27a2.39,2.39,0,0,0-.68-1.6s-.2-.13-.68.16l-.18.09a5.71,5.71,0,0,1-5.87-.72,3.69,3.69,0,0,1-.94-4l.11-.24.29-.53c1.55-2.83,2.88-5.28,4.71-5.52,1-.12,4.19-1.91,4.52-2.76.5-1.34,1.27-2.9,2.75-3.11a2.6,2.6,0,0,1,2.5,1.3l.59.8-.56.83c-1,1.41-1.71,3.25-1.34,4.31a3.43,3.43,0,0,0,1.95.93,9.24,9.24,0,0,1,2.29.82,2.19,2.19,0,0,0,.92.31c1.29.16,1.75.86,2.18,2.2.59,1.8,2.92,9.15,3.15,9.87a26.48,26.48,0,0,1,1.74,8.81,2.93,2.93,0,0,1,.89,2.14,3.38,3.38,0,0,1,.5,2.86,1.85,1.85,0,0,1-1.4,1.1h-.06l0,.36c.09,1,.22,2.26.25,3.32,0,.36,0,.75,0,1.14,0,.11,0,.25,0,.39a2.4,2.4,0,0,0,.46-.09l2.31-1.07-.36,2.55-.37,3,2.85.37v3a2.15,2.15,0,0,1,.71.48,1.82,1.82,0,0,1,.52,1.39.42.42,0,0,0,0,.1,2,2,0,0,1-1.29,2.13c-.24.15-.47.28-.69.4l-.32.18c.07.92.2,2.95.28,4.31l2.25,0-.22,1.58a17.83,17.83,0,0,0-.16,1.83h.17l.61,0,.54.41c.58.53.55,1.13.48,2.6,0,.22,0,.52,0,.84a4.16,4.16,0,0,1,1.32-.37c.32,0,.65-.07,1-.12a10.53,10.53,0,0,1,1.94-.15,4.47,4.47,0,0,0,.58,0,3.34,3.34,0,0,1,1.68.21c1.25.53,1.64.77,1.93,1.15a2.05,2.05,0,0,1,.21,1.74,4.34,4.34,0,0,0-.1.85c.08.46.13,1.34.16,2a7,7,0,0,1,1,.57,6.63,6.63,0,0,0,2.29.21,1.85,1.85,0,0,1,1.65,0,2.12,2.12,0,0,1,1.2,1.86,27,27,0,0,1,0,3.3,5.73,5.73,0,0,1-.2.75c0,.13-.11.34-.15.51a4.76,4.76,0,0,0,1.09.08c1,0,2.85.14,3.52.19a3.39,3.39,0,0,1,2.69.46,2.8,2.8,0,0,1,.92,1s.05.07.21.18a9,9,0,0,0,2.84.24l.51,0c.43,0,9,0,15-.06l-.15-1.12,1.58,0c.84,0,1.47,0,2.09,0h.87a6.25,6.25,0,0,0,1.85-.14,4.32,4.32,0,0,1,2.46-.58l.49,0c1.35-.1,2.32-.13,3,.35l.45.07a3.4,3.4,0,0,1,1.74.59,1.86,1.86,0,0,1,.69.94l.14.17a3.6,3.6,0,0,0,.51.52l.85.28-.21,14.21h-4.11v.14a34.27,34.27,0,0,0-.09,4.13h.34a2.62,2.62,0,0,1,1.61-.73,7.6,7.6,0,0,1,1.41-.08h.17a1.93,1.93,0,0,1,.48-.14c0-.12,0-.24,0-.37a2.44,2.44,0,0,1,1.83-2.77,1.72,1.72,0,0,0,.41-.13,2.8,2.8,0,0,1,0-.44,1.83,1.83,0,0,1,.75-1.43c1-.72,2.72-.45,4-.1l2.13.59-.63.75a59.72,59.72,0,0,0,7.34.18,38,38,0,0,0,6-1.68l.86-.29a2.53,2.53,0,0,1,2.21.22,3,3,0,0,1,1.24,2.29,9.36,9.36,0,0,1,0,2.46l-.24,1.5-1.48-.34a16.51,16.51,0,0,0-1.85-.33v0c0,.4,0,.73,0,1a1.53,1.53,0,0,1,.79,1.05l0,.17a12.9,12.9,0,0,1,.32,1.62,11.13,11.13,0,0,1,0,1.71,5.58,5.58,0,0,0,0,.65c.14.73.3.78.76.75,1.94-.15,7.87-.15,8.12-.15h1.37l.32,8.89-3.44.83-.41-1.6c-.31,0-.62,0-.88,0a2.08,2.08,0,0,1-.7,1.4,8.55,8.55,0,0,0-.63.7c-.15.18-.29.35-.49.57a2.66,2.66,0,0,1-.53.44c.09,1.11.31,3.5.48,5.23a12.54,12.54,0,0,0,.26,1.28l.6-.06c.35,0,.67-.07.89-.07a2.46,2.46,0,0,1,2.33,1.64,1.65,1.65,0,0,1,.63.75,5.32,5.32,0,0,1,.22,1.42c0,.28.05.55.07.7l.11.77-.6.53c-.63.54-1.29.34-2,.14-2.92-.88-5.79-1.2-6.93,2.49l-.18.52c-1,2.76-2.29,6.53-7.54,5.66-1,0-1.75,0-2.35-.07a6.1,6.1,0,0,1,.05,2l-.14,1.15-1.35.11-.05,1.11,1.23.73-.43,1.12a17.29,17.29,0,0,0-.86,2.71c0,.36-.12,1.23-.22,2.16-.11,1.08-.26,2.43-.27,2.8l-.06,1.43-1.43-.07a2.27,2.27,0,0,0-.8.06s0,0,0,.09l-.17,1.44-1.44-.21a22,22,0,0,0-2.46-.13l-5.5,8.11.1,0,.86.86c.18.19.19.19.51.48a3.5,3.5,0,0,1,.84,1,1.09,1.09,0,0,0,.11.18,4.12,4.12,0,0,1,.72,1.74l0,.14-.2,5.13q1.43-1.34,2.17-2.08c-.21-.18-.34-.3-.37-.33l-.39-.39,0-.55c-.17-3.52-.18-3.81.57-4.31.15-.1.2-.13,7.56-3.14a1.92,1.92,0,0,1,.56-1.25l.47-.45.38,0v-5.28l2.66-.23,3-.46.48.94a6.73,6.73,0,0,1,1.76-.19,13.74,13.74,0,0,1,3.88.7l.46-.17a6.06,6.06,0,0,1,3.19-.57,3.67,3.67,0,0,1,1.85.88l.1.08a1.54,1.54,0,0,1,1.15,1.06,1.72,1.72,0,0,1-.61,1.74,1.74,1.74,0,0,0-.27.3l-.26.68-.34.9.72-.15.33,4.82,0,.19c-.1.47-.19,1-.26,1.5l1.27-.36-.18,3.9,5.44.26-.53,1.4.31.48a3.67,3.67,0,0,1,.51,1.34l.77.1-.05,1.3a3.51,3.51,0,0,1-.38,1.65h0a3.09,3.09,0,0,0,0,.51c.09,1.62.06,3.88.06,4v1.16l-9,1.68a20.68,20.68,0,0,0,0,3c.15,2.6-.18,9.47-.29,11.48a3.6,3.6,0,0,1,.7,2c0,.14,0,.25,0,.34a1.83,1.83,0,0,1-.79,1.81,1.57,1.57,0,0,1,.57.62,1.78,1.78,0,0,1,0,1.48,2.23,2.23,0,0,1-1.14,1.24c0,.75.1,1.56.14,1.87a9.36,9.36,0,0,0,.39,1.27h0a7.91,7.91,0,0,1,.38,2.19c0,.67-.34,1.15-1.44,1.92l-.2,3.22-.73.51.07,12.13L332,241.94a9.92,9.92,0,0,0,0,1.06l.13,1.53h-.92l0,.49-1.45.08a2.22,2.22,0,0,1-2-.68,4.15,4.15,0,0,0-.61-.51c-.46-.33-.73-.54-.89-.68a2.06,2.06,0,0,1-1.16-1.3l-.07-.18a2.27,2.27,0,0,1-1.72.32h-.11a3,3,0,0,1-2.11-.53,7.34,7.34,0,0,1-1.21-.73,4,4,0,0,1-1-.27c-.16-.06-.42-.15-.62-.2h0c-.1.65-.16,1.15-.21,1.54a6.37,6.37,0,0,1-.53,2.23,8.42,8.42,0,0,1-1.86,2,18.88,18.88,0,0,0-2.17,2.16l-.06.21-.35.44c-.79,1-1.8,1.8-3.88.59a6.72,6.72,0,0,0-2.35-1l-.49.87-1.14-.42c-.77-.29-4-1-5.89.51l-.55.46-.7-.17a4.16,4.16,0,0,0-1.56-.16,2.88,2.88,0,0,1-2.54-1c-1.06-.34-5.73,1.52-6.85,2.94-.36.42-.63.72-.86,1a6.62,6.62,0,0,0-.6.7,2,2,0,0,1,0,.23,2,2,0,0,1-1.2,2.29,4.6,4.6,0,0,1-2.11.49,1.55,1.55,0,0,1-1.17-.53,2.69,2.69,0,0,1-.36-2.26,4.31,4.31,0,0,0,0-.43c0-.15,0-.41.06-.73s.1-.87.1-1.3c-.76-.08-2.15-.11-3.48-.1v.06a2.11,2.11,0,0,1-.71,2.31,2.24,2.24,0,0,1-1.53.36c0,.18,0,.31,0,.37,0,1.16-1,1.53-2.13,1.66a2,2,0,0,1-.68,2.64,2.47,2.47,0,0,1-1.23.27l-1.92,2.95c.18,3,.18,3,.18,3.09,0,1.4-1.39,1.44-2,1.46-.29,0-1,0-1.49.09v.05l.44,1.68-1.73.1h-.15a2.85,2.85,0,0,0,0,.57,7.35,7.35,0,0,1-.74,3.06l-.3.57-.63.15-.83.2a2.12,2.12,0,0,1-1.27,2.05l-.07,0a5.61,5.61,0,0,0,.33.64l1,1.7-1.92.4a5.24,5.24,0,0,0-1,.3,5.17,5.17,0,0,1-.87.28L258,278c-1.08.39-3.33,1.2-5.35.43l-.33-.17c-.76-.55-1.44-1.08-2-1.54a14.82,14.82,0,0,0-1.67-1.21,1.06,1.06,0,0,0-.61.12,1.23,1.23,0,0,0,0,.33c.2.48.46,1.14.75,1.9a59.21,59.21,0,0,0,2.62,6.11l3.93-1-3.27,3.5-.24.27.11.41a15.61,15.61,0,0,1,.48,2.83l.07,1.09-1,.35c-.63.21-1.4.49-1.63.59s-.64.28-3.1.69l-1,.16-.38-.67a18.19,18.19,0,0,1-1,1.9l-.44.69-14.52-.64v3.3l-1,.32s-1.37.49-1.37,1.46v1.52l-1.51-.1a3.8,3.8,0,0,0-.62,0l0,.13v0l4.13.07-4.58,2.66-.5.3.4,1.43-1.75.15a3.76,3.76,0,0,0-2.32.69h0a15.08,15.08,0,0,1,.54,1.76l.13.48h0l.35-.23.7.32a1.72,1.72,0,0,1,.94,2.47,3.43,3.43,0,0,0-.16.42l0,.11.29,0a1.79,1.79,0,0,1,1.46.71,2.31,2.31,0,0,1,.22,2.13,2.11,2.11,0,0,1-1.2,1.32,5.74,5.74,0,0,0-.15.8l.69-.22,0,2v.06c1.27.12,1.89,1.52,2.18,2.68l.75,2.93-2.73-1.3c-2.28-1.08-7.56-3.7-8.89-5.35-.61-.55-1.25-1.14-1.88-1.73a30.26,30.26,0,0,0-3.52-3,7.26,7.26,0,0,0-1.78-.5c.93,2.53-.38,7.42-.65,8.39l-.66,2.31-1.7-1.7a7,7,0,0,0-1.56-1.19c-.16.06-.42.19-.63.28a6.35,6.35,0,0,1-5.39.56l-.21-.11a21,21,0,0,1-1.75-1.26,9.75,9.75,0,0,0-2.26-1.46,1.43,1.43,0,0,0-.11.23c-.28,1.09-1.26,2.7-2.63,3a1.94,1.94,0,0,1-1.74-.49.21.21,0,0,0-.12,0,.62.62,0,0,0-.32.36A8.71,8.71,0,0,1,187,323a11.62,11.62,0,0,0-1.78,2.79c-.16.61-.34,1.1-.49,1.53a4.74,4.74,0,0,0-.42,2,30.62,30.62,0,0,1-.09,3.39l0,.15-.33,1.65-.34.31A3.08,3.08,0,0,1,181.59,335.66Zm-8.45-15.27a2.61,2.61,0,0,1,2.52,1.66l.08.19c.24.73,1.82,2,2.86,2.63l.62.38.06.72a18.83,18.83,0,0,1,0,2.44c0,.21.12.62.82,1.37l.18.2a21.73,21.73,0,0,1,1.16,1.9c0-.59.07-1.53,0-2.45a7.48,7.48,0,0,1,.58-3.08c.14-.38.29-.79.42-1.29a12.41,12.41,0,0,1,2.27-3.79,12.38,12.38,0,0,0,1-1.41,3.42,3.42,0,0,1,2-2.09,3.08,3.08,0,0,1,2.44.09,2.1,2.1,0,0,0,.33-.68l.06-.19a3,3,0,0,1,2-2.06c1.66-.48,3.26.76,4.81,2,.5.38,1,.75,1.4,1a3.75,3.75,0,0,0,3-.53,3.52,3.52,0,0,1,2.36-.53,4.29,4.29,0,0,1,1.18.51c.35-1.81.55-3.76.2-4.59-.69-1.72-.08-2.67.35-3.08,1.53-1.48,4.65-.2,5.26.07.91.41,2.23,1.61,4.3,3.55.65.61,1.31,1.22,1.94,1.78l.15.14.11.17a13.81,13.81,0,0,0,2.92,1.95,8.48,8.48,0,0,1,.38-2.91l0-.13a2.33,2.33,0,0,1-.36-.2,2.48,2.48,0,0,1-.69-3.1,3.49,3.49,0,0,1-.67-.45c-.71-.33-.92-1.12-1.15-2a11.48,11.48,0,0,0-.47-1.53l-.08-.26a2.87,2.87,0,0,1,.51-2.42,5.17,5.17,0,0,1,3.2-1.64,2.49,2.49,0,0,1,.36-.56,2.62,2.62,0,0,1,.44-1.89l.1-.17a2.4,2.4,0,0,1,.75-1.56,2.88,2.88,0,0,1,1.6-.71,4.74,4.74,0,0,1,2.09-2.32v-4.34l15.82.69a10.56,10.56,0,0,0,.77-1.68,2.15,2.15,0,0,1,1.84-1.6,2.69,2.69,0,0,1,2.18,1.16c.62-.11,1.19-.22,1.42-.28s.41-.18.91-.36a9.69,9.69,0,0,0-.23-1.11,3.19,3.19,0,0,1-.07-2.3,43.18,43.18,0,0,1-3-6.84c-.3-.77-.56-1.45-.76-1.92l-.06-.17a3,3,0,0,1,.82-3.3,3.68,3.68,0,0,1,3.6-.57,12.85,12.85,0,0,1,2.27,1.56c.52.41,1.12.87,1.78,1.35a6.09,6.09,0,0,0,3.24-.5,6.28,6.28,0,0,1,.7-.22L258,275a2.72,2.72,0,0,1,.17-2.11,2.23,2.23,0,0,1,1.2-1c0-.07,0-.14,0-.19A1.66,1.66,0,0,1,260.5,270l1.12-.27a4.54,4.54,0,0,0,.21-1.22,3.09,3.09,0,0,1,1.46-3A2.56,2.56,0,0,1,264,264a4,4,0,0,1,2.66-.77l-.12-2.05,0-.47,3.31-5.07.45,0a6,6,0,0,1,0-1.56l.14-1.24,1.25,0,1,0c0-.34.07-.68.1-.95l.16-1.54,1.52.3.34.06v-.07a2.42,2.42,0,0,1,1.51-2.48l.22-.08h.23c5.19-.13,5.9.31,6.21.5a2.59,2.59,0,0,1,1,2.33l.26-.29c.21-.23.47-.51.77-.87,1.34-1.71,5.63-3.78,8.31-4a3.32,3.32,0,0,1,2.62.72,4.64,4.64,0,0,0,.37.32h0a6.27,6.27,0,0,1,1.82.09c2.37-1.55,5.49-1.25,7.24-.82a2.51,2.51,0,0,1,.63-.27c1.13-.31,2.57.09,4.65,1.3l.22.12.05-.06a12.1,12.1,0,0,1,2.86-3.12c.45-.41,1.06-1,1.25-1.19a5.75,5.75,0,0,0,.23-1.26c.05-.41.12-.92.22-1.58a2.77,2.77,0,0,1,1.26-2.14,3.6,3.6,0,0,1,3.15.07l.32.11a2,2,0,0,1,1.36.5,4,4,0,0,0,.85.52l.53.25a3,3,0,0,1,.77,0,3.91,3.91,0,0,1,1-.44c.56-.18,2-.64,2.54.93a5.93,5.93,0,0,1,.51,1,2.1,2.1,0,0,1,.32.25,8,8,0,0,0,.79.61l.32.24h0a3.26,3.26,0,0,1,1.33-3l.15-.07-.05-9.34.83-.58.2-3.27.6-.39c.23-.15.48-.32.68-.47,0-.2-.06-.4-.08-.52a10.52,10.52,0,0,1-.6-2c-.07-.52-.16-1.76-.19-2.66a1.94,1.94,0,0,1,.58-1.53,2.52,2.52,0,0,1-.21-.54,2.31,2.31,0,0,1,1-3v0a1.23,1.23,0,0,0-.32-.57l-.42-.44,0-.63c0-.09.49-8.86.32-11.7a16.87,16.87,0,0,1,.21-4.74l.22-.88,8.59-1.6c0-.78,0-1.8-.06-2.62a3.6,3.6,0,0,1,.2-1.74,2.85,2.85,0,0,1-.47-1.25l0-.13a2,2,0,0,1-.71-.64,2,2,0,0,1-.24-.5l-5-.24.17-3.37a2,2,0,0,1-.37-.2,1.91,1.91,0,0,1-.83-1.47,15.06,15.06,0,0,1,.36-3.09l-.1-1.45a1.72,1.72,0,0,1-.9-.41,1.59,1.59,0,0,1-.55-1.31,14.55,14.55,0,0,1,1.05-3.22l.25-.65c0-.09.07-.17.11-.25l-.14,0a4.18,4.18,0,0,0-1.73.43c-.32.12-.66.25-1,.36l-.46.15-.46-.16a11.33,11.33,0,0,0-3.45-.7,3.07,3.07,0,0,0-1.56.32l-1.32.86-.9-1.65-1.2.18v3a2.67,2.67,0,0,1-.86,2.28,1.78,1.78,0,0,1-.58.28l0,.66-.92.38-7.3,3c0,.41,0,.92,0,1.44a6.37,6.37,0,0,0,.7.46l.65.37.07.74c.09,1-.28,1.49-4.64,5.5a3,3,0,0,1-2.79.81l-1.15-.26.33-8.44a1.47,1.47,0,0,0-.13-.35,3.66,3.66,0,0,1-.36-.56.81.81,0,0,0-.24-.29c-.41-.37-.42-.37-.65-.61l-.21-.21a2.63,2.63,0,0,1-1.8-1.26,2,2,0,0,1,0-1.81l.1-.18,7-10.33h.74c.07,0,1.32,0,2.49.05a2.82,2.82,0,0,1,1.92-1.21c0-.47.11-1,.18-1.71.09-.89.18-1.72.21-2.07a11.7,11.7,0,0,1,.63-2.41l-.64-.38.24-5.31,1.34-.11a2.82,2.82,0,0,1-.16-2.78,2.09,2.09,0,0,1,2.19-.65,24.87,24.87,0,0,0,3.24.16h.13l.13,0c2.87.51,3.42-.71,4.5-3.79l.17-.47a6.4,6.4,0,0,1,5.59-4.91c-.39-.25-1-.87-1.32-3.44-.13-1.35-.54-5.58-.54-6.13a1.86,1.86,0,0,1,1.25-1.78l.12-.06.34-.4c.15-.19.31-.38.55-.63a2.79,2.79,0,0,1-.06-.6,1.65,1.65,0,0,1,.55-1.23c.27-.25,1-.88,4.24-.62l-.09-2.49c-1.9,0-5.25,0-6.54.14a3.35,3.35,0,0,1-3.75-3,5.84,5.84,0,0,1-.05-1.29,8.94,8.94,0,0,0,0-1.27c0-.28-.08-.52-.12-.73-1.07-.37-1.07-1.29-1.07-3.48a2.73,2.73,0,0,1,.63-2.08,25,25,0,0,1-4.2,1,68.44,68.44,0,0,1-9.54-.32,1.93,1.93,0,0,1-1.65-1.19l0-.07a2.79,2.79,0,0,1-2.1,2v0a5.23,5.23,0,0,1-.14,1.56,2,2,0,0,1-2.29,1.7,3,3,0,0,1-1.12.14,4.75,4.75,0,0,0-.93.05h-.08a2.49,2.49,0,0,1-1.88.75h-.23c-1.3.06-2.13,0-2.77-1.56-.29-.72-.32-2.17-.13-5.57l0-.44a5.36,5.36,0,0,1,.22-1.4l.32-1H304l.14-9.64a7.24,7.24,0,0,1-.66-.69,4.23,4.23,0,0,1-.5-.68l-.31,0a3.75,3.75,0,0,1-1.53-.45,10.89,10.89,0,0,0-1.32,0l-.71,0a2,2,0,0,0-.93.13,6.17,6.17,0,0,1-3.38.6h-2a3.63,3.63,0,0,1-1.23,1l-.3.16H291c-15.56.09-15.8.06-15.9,0h-.21c-2.06,0-3.61-.15-4.49-.78a3.14,3.14,0,0,1-1-1.1l-.1-.08a.93.93,0,0,0-.47,0l-.26.08h-.29s-2.5-.2-3.53-.2a4.27,4.27,0,0,1-3.37-1.08c-1-1-.51-2.43-.27-3.2,0-.13.08-.25.1-.35s0-1,0-1.83a9.64,9.64,0,0,1-3.39-.41l-.22-.07-.19-.14a4.22,4.22,0,0,0-1.3-.62l-1-.26,0-1.07c0-.84-.09-2.21-.16-2.62a4.53,4.53,0,0,1,0-1.42l-.39-.17a2.66,2.66,0,0,0-.36,0,7.2,7.2,0,0,1-.92,0,8.86,8.86,0,0,0-1.41.13c-.38.05-.77.11-1.14.14a4.07,4.07,0,0,0-.85.35,2.89,2.89,0,0,1-2.45.39c-1.22-.52-1.15-2-1-4.16v-.12a2.83,2.83,0,0,1-1.09-.49c-.36-.28-.83-.66-.69-2.85l-1.73,0-.08-1.31c-.08-1.44-.32-5.3-.38-5.88a2.22,2.22,0,0,1,1.07-2.13v-3l-3.17-.41.49-4a2.12,2.12,0,0,1-1.59-.65,3.53,3.53,0,0,1-.58-2.81c0-.29,0-.58,0-.85,0-1-.15-2.21-.24-3.13l-.06-.64a2.23,2.23,0,0,1,1.36-2.51c-.07-.13-.14-.25-.21-.35L239,47.1l.29-.53s-.08,0-.21-.12l-.72-.42v-.83a23.73,23.73,0,0,0-1.55-8.45l0-.12s-2.54-8-3.16-9.9l-.1-.3a5,5,0,0,1-1.66-.59,6.79,6.79,0,0,0-1.63-.56,6,6,0,0,1-3.57-2l-.18-.29a4.76,4.76,0,0,1-.4-2.52A14.13,14.13,0,0,1,221,23c-.64.37-2,2.78-2.66,4.08l-.22.4c-.17.63.06.84.18.94a3,3,0,0,0,2.76.24,3.27,3.27,0,0,1,4.17.4c1.25,1.25,1.79,3.7,1.07,4.86-.28.45-.39.63-.18,2.86l0,.18,0,.18a3.7,3.7,0,0,1-2.64,3.22,5.67,5.67,0,0,1-5.29-1.62,2.19,2.19,0,0,0-2.2-1c.08.21.17.43.25.6a6.31,6.31,0,0,1,.72,3.31A2.84,2.84,0,0,1,215.4,44a3.13,3.13,0,0,1-2.41.08,2.64,2.64,0,0,1,.26,2.76,10.12,10.12,0,0,0,.08,1.51c0,.4.08.82.11,1.28a3.68,3.68,0,0,1-.88,2.88,3.93,3.93,0,0,1-3,1.1,4.31,4.31,0,0,0-1.88.77,19,19,0,0,1-3.41,1.58L204,56c-.9.14-1.08.54-1.14.67a1.55,1.55,0,0,0,0,1.19L203,58l.09.27a9.26,9.26,0,0,1-.67,7.24,8.83,8.83,0,0,1,2.7,3.65l.09.25a3.88,3.88,0,0,1-.49,3.49,4.14,4.14,0,0,1-3.5,1.41h-.33a5.22,5.22,0,0,0-2.76.53,9.45,9.45,0,0,0,.08,2.27l0,.45a4.63,4.63,0,0,1,1,1.46,2.8,2.8,0,0,1,1.23.93,2.73,2.73,0,0,1,.25,2.73l-.06.19a1.78,1.78,0,0,1,.95,1.42,12.87,12.87,0,0,1-.07,1.55c0,.58-.13,1.73-.14,2.49a2.56,2.56,0,0,1,1.44,1.91l0,.13v.13a3.68,3.68,0,0,1-1.16,2.87,4.35,4.35,0,0,1-3.54.71,8.71,8.71,0,0,0-2.32.2,13.68,13.68,0,0,1-1.9.23c0,.16,0,.37.1.65a4.26,4.26,0,0,1-1.59,4.09,2.85,2.85,0,0,0-.26.26l-.07.2a2.57,2.57,0,0,1-2.17,2,2,2,0,0,1-2.6-1.22.55.55,0,0,0-.07-.16,9.74,9.74,0,0,0-1.71-1.08l-.75-.42a3.29,3.29,0,0,1-3-.69,2.34,2.34,0,0,1-.55-.91,3.63,3.63,0,0,1-1.4,0,6,6,0,0,1-3.9-3.82,5.8,5.8,0,0,1-3.55,1.19,5.15,5.15,0,0,1-3.79-2.23l-.08-.1A7,7,0,0,0,166,90.8a7.83,7.83,0,0,0-.94.39,8.82,8.82,0,0,1-3.27,1l-.4,0L161.1,92c0,.47-.09,1.64-.12,2.53a25,25,0,0,1-.32,4.3c-.43,1.42-3.35,3.6-5.91,3.4h-.12a6.18,6.18,0,0,0-.09.77c0,.28,0,.56-.09.82a3.88,3.88,0,0,1-4.25,3.47c-3.09,0-3.92-2.48-5.07-5.92-1-3,0-5,.82-6.7a11.15,11.15,0,0,0,.76-1.82l0-.1c.28-.78.18-1,.18-1a5.37,5.37,0,0,0-1.88-.41l-1.4-.18-.31-.77a1.51,1.51,0,0,0-.29-.53,4.46,4.46,0,0,0-.6,0,7.19,7.19,0,0,1-3-.56,4.09,4.09,0,0,1-2.84-3.19,2.25,2.25,0,0,0-.34-.88,5,5,0,0,0-1.08-1.1,8.26,8.26,0,0,1-1.52-1.52c-1.55-2-1.21-2.87.18-5.14a1.45,1.45,0,0,0,.06-.27,3.71,3.71,0,0,0-1-.17c0,.21,0,.44,0,.61a10.42,10.42,0,0,1,0,1.09,5.06,5.06,0,0,1-1.6,2.81,11.5,11.5,0,0,0-1,1.16c-.53.78-.45,2.82,0,4.24.13.44,1.18,4.31-.61,6.31a3.42,3.42,0,0,1-2.72,1c-1.53,0-3.68-.63-4.47-1.58a35.48,35.48,0,0,0-3.26-3.34,3.35,3.35,0,0,1-1.27-3.12A4.56,4.56,0,0,1,120.77,83a10.3,10.3,0,0,0-1.84-1.81,4.56,4.56,0,0,1-1.07-1.05,1.43,1.43,0,0,0-1.43-.26,5,5,0,0,0-.83,1.31,6.5,6.5,0,0,1-2.89,3.29,3.32,3.32,0,0,1-3,.12,4.09,4.09,0,0,1-2-2.5,20.74,20.74,0,0,0-2.87,1,10.1,10.1,0,0,1-1.35.51c-.46.11-.72.24-1.81,1.22-1.89,1.7-4-.65-5.17-1.91a9.87,9.87,0,0,0-.7-.73l-.24-.2c.79,1.62-.44,3.32-1,4.14l-.28.39c-1,1.36-2.17,2-3.26,1.7-.72-.2-1.61-.85-1.75-2.8a3.67,3.67,0,0,1-.6.12,4.72,4.72,0,0,1-3.89-1.52,8.64,8.64,0,0,1-1.2-1.44c-.13-.19-.31-.44-.44-.59a8.19,8.19,0,0,0-2,1.6l.33.08a12.3,12.3,0,0,1,4.31,1.53,4,4,0,0,1,1.5,4.42c-.27.84-1.08,1.93-5.07,3A4.53,4.53,0,0,1,78,91.88a3.17,3.17,0,0,1-.94-2.82,20.66,20.66,0,0,0-2.22,2.12c-.43.45-.84.87-1.19,1.21a3.63,3.63,0,0,1-2.88.86,6.8,6.8,0,0,1-4.67-2.41l-.07-.1a1.12,1.12,0,0,0-.93-.48,16.12,16.12,0,0,1,2,1.81c1.63,1.63,1.15,3.21.58,5-.13.41-.27.87-.41,1.39l0,.13a2.45,2.45,0,0,0-.24,1.57c.15.3,1,.56,1.66.76l.84.27.38.13.34.12.12-.1a4.12,4.12,0,0,1,2.33-3.1c2-.84,4.24.48,5.09,1.09a4.19,4.19,0,0,1,1.66,3.93,2.43,2.43,0,0,1-1.45,2.1c-.36.13-.65.24-.9,1.13a4.93,4.93,0,0,1-4.83,3.58,3.77,3.77,0,0,1-2.13-.84,9.83,9.83,0,0,1-2.8.68,20.83,20.83,0,0,0-3.14.7c-.59.16-1.23.34-1.94.51-.91,2.74-2.88,3.79-4.49,4.65a10.57,10.57,0,0,0-1.59,1l-.2.13a1.59,1.59,0,0,0-.57.42,5,5,0,0,0,.09.5,7.88,7.88,0,0,1,.13.82c.21,2.17-1.5,2.6-2.87,2.95l-1.24.33h0a9.66,9.66,0,0,0,.61.79l.29.36c1.31,1.65.23,3.48-.29,4.35l-.06.1c-.78,1.32-2.57,2.05-5.46,2.24a2.66,2.66,0,0,1-.19.92c-.39,1-1.53,2.17-3.48,3.62a5.13,5.13,0,0,1-3.85,1.19,5.77,5.77,0,0,1-3.78-2,1.73,1.73,0,0,0-1.39-.59,23.47,23.47,0,0,1-2.59,1.39A39.68,39.68,0,0,0,26.43,137a7.89,7.89,0,0,1-6.62,2.09l-.3-.09a7.05,7.05,0,0,0-4.14-.43,9.57,9.57,0,0,1,3.15.58c.2.1.41.21.62.34.67.39.88.47,1.22.34a5.18,5.18,0,0,1,5.12.68l.53.36a3.24,3.24,0,0,1,1.8,3.19v.12a3,3,0,0,1-1.38,2.44,3.81,3.81,0,0,1-2.52.43l.06.08a5,5,0,0,1,.66,4.25l0,.23-.11.2a6,6,0,0,1-4.85,3l-.15,0h-.15c-3.67-.33-4-3.5-4.2-4.86v0a6,6,0,0,1-4.53-.84l-.28-.19a3.83,3.83,0,0,1-1.47-2.79,3.51,3.51,0,0,1,0-.56l-.07.12a7,7,0,0,1-1.14,4.64,1.87,1.87,0,0,0,.05.48,3,3,0,0,0,1.09-.34l.33-.16.37,0a2.89,2.89,0,0,1,2.95,3.32c0,.12,0,.24,0,.35v.3l-.11.28a11.45,11.45,0,0,1-1.64,2.33,28,28,0,0,0-2.08,2.83c-.66,1.12.15,3,.67,3.56s.78.79,1,1.06l20.18.21c0-.41,0-.75-.07-.9a1.78,1.78,0,0,1,.65-1.92,2.35,2.35,0,0,1,3,.24,2.81,2.81,0,0,0,1.31.53l.3.06c.27,0,1,0,1.51,0h4.08v-3h5.86v-1.89H53v1.81h2.35v5.13l19-2,15.29-7.23,11.79-5,2.48,2.21c1,.08,3.41.28,4.61.43a4.41,4.41,0,0,1,2.86,1.22l.36.42-.05,1.74c1.54,0,4,.14,5.64.37,1.11.16,2,.28,2.51,1a2,2,0,0,1,.27,1.59,2,2,0,0,0,0,.71c.22,1.6.1,2.39-1.24,3.18-.13.08-.29.17-.48.3a11.86,11.86,0,0,0-1.35,1l-.37.36L114,165a15.32,15.32,0,0,1-.29,5.24,8,8,0,0,1-2.4,3.26,11.79,11.79,0,0,0-1,1.07,7.58,7.58,0,0,0-2.08,4c-.16,1.1,1.07,2.51,1.52,2.91l.27.25.12.35a13.25,13.25,0,0,0,1.31,2.79,2.1,2.1,0,0,0,.64.63l1.18.13-.07,2.39h1.05l.39,2.85h.7l.05,5.13h.17l.19,1.19a27.66,27.66,0,0,1,.4,5.3,29,29,0,0,0,.3,5.81,3.31,3.31,0,0,0,1,1.82l.4.33.5,2.7,11.18-3.34.6.77a4,4,0,0,1,.84,2.26,17.54,17.54,0,0,1-.46,3.6c-.26.61-.78.94-1.93,1.11v3.26h-1v1.77h-2.24v2h-1.74v1.74h-1.23v1.93h-.6l.5.31v.8c0,3,0,3.68-1,4.07l-.87.35-.33-.33h-.08l.51.65c1.36,1.77,1.45,2.71,1.42,3.6v.16a1.75,1.75,0,0,1-.56,1.28c-.53.5-1.46.93-4.64.75a81.07,81.07,0,0,0-9.77.38c-1.1.14-3.3.25-5.62.36s-5.74.28-6.37.45a8.82,8.82,0,0,0-.31,1.21,10.67,10.67,0,0,1-.71,2.34c-.54,1.15-.52,1.45-.41,1.66h.05c.29,0,.65,0,1.15,0a2.58,2.58,0,0,0,1.58-.46l2.41-2-.06,3.1c0,.12-.35,11.91-.35,13,0,.26,0,.49,0,.69a2.86,2.86,0,0,1,.49.33l.44.33a2.28,2.28,0,0,1,.84,2.88,6,6,0,0,0-.19.73,3.86,3.86,0,0,1-.81,2c-.06.08-.13.17-.22.3l-.12.19A2.19,2.19,0,0,1,97,268.66a3.31,3.31,0,0,1-1.1,1.62.94.94,0,0,0-.32.41l1.33,5.66-1.05,1.27h.05l.21,4.49H94.77v.61l4.2-.19v2.55l1.89.42v10.17h4v2h1.85v2h4.58l-.51,1.94.63.13v1l.64,0v-.57l2.08-.48.29-4.09h6.6v2.43h11.34l-.39,3.74h1l-.31,1.7h1.21l-.14,1.41.71,0c.24,0,.89,0,1,0,0,0,0,0,.06-.06a8.77,8.77,0,0,1,1-.54c1.7-.83,7.41-1.33,8.79-1,.79.17,3.21.69,3.13,3.13a7.93,7.93,0,0,0,.11,1.14,5.61,5.61,0,0,1-.17,3.2,14.27,14.27,0,0,0-.6,3l0,1.11,2.06,0v1.38a3.51,3.51,0,0,0,.67,0l.82-.09.48.67a2.88,2.88,0,0,1,.51,2l1.07.09-.22,1.94a1.58,1.58,0,0,1,.58,1.32,6.32,6.32,0,0,1,.65,0l.41-.06a3.17,3.17,0,0,1,2.88.85h0l.23-.1.6-.24.36-.15c.5-.25.66-.33,3.82.65l.58.18.27.55a3.15,3.15,0,0,0,.23.38,1.62,1.62,0,0,0,.51-.41,4.26,4.26,0,0,1,1-.76c0-.09,0-.19,0-.29a1.87,1.87,0,0,1-.36-1.19,6,6,0,0,1,.94-2.71c.61-.82,2.21-.94,3.1-.94a2.58,2.58,0,0,1,1.37.33,1.11,1.11,0,0,0,.26.11,4.22,4.22,0,0,0,.83,0,6.2,6.2,0,0,1,1.25,0h.44Zm-13,6.69h0Zm12.84-4h0Zm30.69-3.49Zm-10.29-2Zm-60.65-7.78Zm87.41-1.92h0Zm40.14-33.32h0Zm4.29-6.66Zm6.86-12.31h0Zm1.1-1.74h0Zm3.13-3.19Zm51.43-10.17M320.27,238h0ZM119,237.87s0,0,0,0Zm.65-4.7h0Zm213.66-8.71Zm-.38-.15.07.13Zm-220.83-38.8Zm199.75-2.12Zm25.42-13.86ZM32.18,164.17ZM8.77,145.42l0,.15A1,1,0,0,0,8.77,145.42Zm326.91-5.52h0ZM37.25,131.41a3.63,3.63,0,0,1,.32.38,2.93,2.93,0,0,0,1.8.87,2.37,2.37,0,0,0,1.81-.59,9.25,9.25,0,0,0,2.59-2.42s-.06-.09-.16-.22a1.48,1.48,0,0,0-1.25.25,17.79,17.79,0,0,1-5,1.71Zm-5.06-.73-.05,0Zm6.28-3c-.6.37-.78.65-.81.75a12.46,12.46,0,0,0,3.15-1.11,5,5,0,0,1,.51-.29c-.11-.24-.2-.47-.28-.68A25.07,25.07,0,0,1,38.47,127.67Zm288.74-11.84v0Zm2-2.92h0Zm.17-2.6.58.06,0-.17v-.08Zm-23.16-15Zm-5.27-.05h0Zm1.84-2.15h0Zm-.2-.12Zm-142-1.16ZM84.68,88.63h0Zm178-.19h0ZM77.15,88.38ZM91.92,76.45c0,.1,0,.21-.06.34-.33,2.19.27,2.54,1.57,3.31a12.16,12.16,0,0,1,1.11.71l.22.17c-.41-.61-.86-1.38-1.39-2.3-.34-.6-.69-1.21-.89-1.49S92.08,76.65,91.92,76.45Zm28.27,2.12h0ZM132.25,77h0Zm80.91-30h0Zm.09-.17Zm-5.55-1.89Zm1.24-3.1a6.7,6.7,0,0,1-.56,1.81,3.57,3.57,0,0,1,2-.9C210,42.44,209.52,42.14,208.95,41.77Zm1.39-2.48c1.57,1,2.37,1.47,3.18,1.91a1.91,1.91,0,0,0,.56.21s0-.08,0-.14a5,5,0,0,0-.53-1.79,5.4,5.4,0,0,1-.58-2.79,9.94,9.94,0,0,1-1.08.54c-.69.31-1.54.7-1.7,1.15A1.42,1.42,0,0,0,210.34,39.29Zm13.43-6.62ZM221,23Z"/></svg>