<svg id="Layer_2" data-name="Layer 2" xmlns="http://www.w3.org/2000/svg" viewBox="0 0 350 350"><defs><style>.cls-1{fill:#999;}.cls-2{fill:#f90;}</style></defs><title>M_</title><path class="cls-1" d="M334.89,147.95A247.14,247.14,0,0,0,312.54,86.6C302.81,68.15,297.3,61,276.06,60.88c-51-.25-102-.05-152.94,0a4.2,4.2,0,0,0-2.2,0h-.47a84.49,84.49,0,0,1-4.95,17.84l-5.6,28c-1.35,6.77-.24,12.68-7.33,13-5.77.3-14.46-3.79-20-5.25-3.21-.84-5.51,2-5,5l4.73,27.45c1.12,6.5,1.3,15,4.52,21,5.68,10.42,17.65,10,28.11,10.65,5.28.35,23.68-1.3,27.37,2.79l-2,16.61a52.37,52.37,0,0,1-9.45.57c-4.25.09-8.52-.1-12.77-.07a469.21,469.21,0,0,0-58.39,4.12C40.93,205,6.8,214.09,16.79,240.86c3.84,10.28,14.62,16.46,24,20.81,14.78,6.85,30.13,12.66,45.16,18.94a4.06,4.06,0,0,0,5-2.83c1-7.29,1.88-16.8,7.13-22.41,8.06-8.61,19.93-7.21,30.3-4.17,17.23,5.05,28.76,15.48,41.58,27.32,13.53,12.49,37,18,42.73-5,1.36-5.48-.07-12.91,2.75-17.75,7.49-12.86,13.63-4.62,22.13-5.36,10.08-.87,13-10.12,14.39-18.76a145.76,145.76,0,0,0,0-45.82c-1-6.48-3.41-14.23-1.13-19.63a3.39,3.39,0,0,0,3.63.62l15.12-5.29a188.7,188.7,0,0,1,61.36-8.4A4.1,4.1,0,0,0,334.89,147.95Z"/><path class="cls-2" d="M194.38,290.74c-9.11,0-18.85-5.14-25.39-11.18-12.23-11.29-23.77-21.94-41-27-13.56-4-22.73-2.77-28.86,3.78-4.47,4.77-5.59,13-6.49,19.61-.09.69-.19,1.37-.28,2a5.45,5.45,0,0,1-6.94,3.94c-4.83-2-9.79-4-14.58-6-10.12-4.1-20.58-8.34-30.63-13-9.39-4.35-20.68-10.73-24.74-21.6-2.82-7.57-2.47-14.38,1-20.24,8.43-14,32.86-18.68,43-20A472.5,472.5,0,0,1,118.06,197c1.9,0,3.81,0,5.72,0,2.31,0,4.7.07,7,0a51.56,51.56,0,0,0,8.2-.4l1.76-14.8c-3.13-2.21-14-2-20-1.93-2.46,0-4.58.08-5.93,0l-3.1-.18C102,179.19,91,178.59,85.55,168.5c-2.51-4.61-3.26-10.67-3.93-16-.24-1.91-.46-3.71-.75-5.38l-4.73-27.45a6,6,0,0,1,1.76-5.43,5.25,5.25,0,0,1,5-1.17c1.81.47,3.89,1.2,6.1,2,4.61,1.6,9.83,3.43,13.52,3.23,4.24-.22,4.71-2.52,5.38-7.71.17-1.34.35-2.73.64-4.19l5.68-28.21a83.34,83.34,0,0,0,4.86-17.54l.2-1.19h1.49a5.63,5.63,0,0,1,2.55,0q23.15,0,46.29,0c34.9,0,71-.09,106.48.09,21.77.11,27.64,7.34,37.73,26.47a249,249,0,0,1,22.48,61.7h0a5.84,5.84,0,0,1-1.17,5,5.18,5.18,0,0,1-4.16,1.9A188.48,188.48,0,0,0,270,162.84L255,168.12a5.22,5.22,0,0,1-3.28.12c-.87,3.7,0,8.43.94,13,.28,1.43.56,2.9.78,4.29a146.64,146.64,0,0,1,0,46.26c-1.42,8.78-4.49,19-15.67,20a22.51,22.51,0,0,1-7.79-1c-5-1.31-8.6-2.25-13.24,5.7-1.53,2.62-1.68,6.34-1.82,9.94a38.25,38.25,0,0,1-.78,7.44c-2.64,10.7-8.82,14.63-13.53,16A21.31,21.31,0,0,1,194.38,290.74Zm-80-43.33a52.22,52.22,0,0,1,14.44,2.43c17.88,5.24,29.66,16.12,42.14,27.64,8.82,8.14,20.67,12.13,28.8,9.68,5.83-1.75,9.73-6.46,11.6-14a35.69,35.69,0,0,0,.7-6.87c.16-3.95.33-8,2.21-11.25,5.72-9.82,11.15-8.4,16.4-7a20,20,0,0,0,6.83,1c9.17-.8,11.78-9.33,13.11-17.58a143.82,143.82,0,0,0,0-45.37c-.21-1.34-.48-2.73-.76-4.19-1.1-5.68-2.24-11.55-.28-16.2l.79-1.89,1.49,1.41a2,2,0,0,0,2.19.31l15.12-5.29A191.24,191.24,0,0,1,331,151.67a2.26,2.26,0,0,0,1.89-.87,3,3,0,0,0,.59-2.54h0a246.2,246.2,0,0,0-22.22-61c-9.72-18.41-14.93-24.86-35.24-25-35.48-.17-71.57-.13-106.47-.09q-23.23,0-46.46,0l-.35,0a2.93,2.93,0,0,0-1.1-.08,85.67,85.67,0,0,1-4.8,17l-5.58,27.82c-.27,1.37-.44,2.7-.61,4-.62,4.84-1.25,9.84-8,10.19-4.26.23-9.74-1.7-14.6-3.39-2.15-.75-4.18-1.46-5.88-1.9a2.41,2.41,0,0,0-2.35.51,3.17,3.17,0,0,0-.88,2.86l4.73,27.45c.3,1.73.53,3.57.77,5.51.66,5.35,1.35,10.88,3.6,15,4.74,8.7,14.44,9.23,23.82,9.74l3.14.18c1.23.08,3.3,0,5.7,0,10.62-.18,19.66-.05,22.64,3.25l.43.48-2.18,18.32-1.07.16a54,54,0,0,1-9.71.58c-2.32,0-4.73,0-7.07,0-1.88,0-3.77-.06-5.65,0a469.67,469.67,0,0,0-58.22,4.1c-9.71,1.29-33.13,5.7-40.92,18.67-3.05,5.09-3.33,11.07-.82,17.79,3.69,9.9,14.38,15.9,23.27,20,10,4.63,20.42,8.85,30.5,12.94,4.8,1.94,9.76,4,14.61,6a2.28,2.28,0,0,0,1.84-.31,2.31,2.31,0,0,0,1.2-1.42c.09-.66.18-1.33.28-2,1-7,2.14-15.73,7.23-21.16S108.22,247.42,114.34,247.42Z"/></svg>