<svg id="Layer_2" data-name="Layer 2" xmlns="http://www.w3.org/2000/svg" viewBox="0 0 350 350"><defs><style>.cls-1{fill:#999;}.cls-2{fill:#f90;}</style></defs><title>M_</title><path class="cls-1" d="M334.66,155.48c.14-.43-.58-11.93-.58-11.93s-.8.22-1.3-1.45-1.59-1.3-2.46-1.74a9.48,9.48,0,0,1-.87,4.92c-.8,1.23-6.65.94-7.52.65-.29-.29.14-8.61.14-8.61h1.3l.87-7.52a10.33,10.33,0,0,1-2.6-1c-.43-.43-1.88-.87-2.46-1.3s-.87-2.75-1.23-4.63-.36-2-2.64-3.47-2.34-3.47-2.63-5.79S318,102.9,318,102.9a29.55,29.55,0,0,1-3.76-2.46c-.36-.51-.36-4.56-.36-4.56h-4.12l-.43,2.6s-2,.07-1.81-.14.29-10.56.29-10.56h-9V85.91h-2.1V84.46H295.1V82.58h-2.24v-2h-2s-1.66-5,4.19-6.73S301.25,72,301,71.38s-4.63-3-8.75-2.68S262.63,71,260.75,71.45s-6.94,4.56-7.52,6.73-1.66.8-2.6.87-6.87,4.48-8,4.48-3.4.07-4.77.07-1.59.94-.72,2,2,4.19,2.89,4.92,1.88,4,1.74,4.7-1.23,3.47-1.23,3.47,8-.14,8.75.8,5.93,4.27,9.69,9.26,4,2.1,4.48,5.06a13.85,13.85,0,0,1-1.23,7.23c-.65,1.59-3.62,4.48-3.62,4.48s-8.89.22-11.06,0-3.76.07-6.58-.65-4.48-.65-7.81-.58-3.47-.31-5.42,1.33-2.6,3.09-1.88,5,1.81,4.27,3.9,4.56,1.52-.94,2.39,0,0,.94,1.37,2.68,4.19,3.25,4.84,3.76-.14,4-1.45,4.34a2.77,2.77,0,0,0-2.24,2.68c0,1.37-1.52,3-1.52,4s-2.31,9-2.31,9a12.48,12.48,0,0,0-5.93,1c-1.08-1.52-5.57-.87-7.09-1.45s.29-2.53-.72-4.19-3.33-2.6-4.48-3.9-2.89-1.66-3.83-2.31-3.33-1.3-1.88-4.92c-1.08-2.31-2.53-3.4-3-4.63s-.94-2.53-.94-2.53l-1.23.14s-.51-1.88-.51-2.1a5,5,0,0,1-6.29,2.1c-.58.43-.51,1.66-.58,2s-1.81,3.76-1.74,5.5.43,3.33.43,3.62-4.63,2.75-7.38,2.24-4.63.22-7.16,1.23-7.38.94-7.38.94h-1.07a35.18,35.18,0,0,0-1.14-7.84c-.69-2.83-.9-3.87.35-6.31.47-.93,1.3-1.6,1.58-2.67a13.54,13.54,0,0,0,.13-2c.38-3.36.92-6.07,3.24-8.68s5.76-6.8,2.19-9.9c-2.1-1.82-4.63-.54-6.89.31-3.34,1.26-6.66,2.57-10,3.88l-4.6-2.13s-.8-.58.22-1.88,4-2.31,4.56-3,.72-3.62.72-4-.07-4.48-2.6-5.28-2.68-1.81-.51-2.39,3.9,1.16,5.06.65,1.81-2,2.17-2.75.07-4.48.07-4.48l-4.92,1.3s-3.11-3-4.85-3.25c-.94-1.23.14-1.3-1.66-1.59S143,92.27,143,92.27a29.44,29.44,0,0,1-6.44-3.33c-2.31-1.81-1.88-4.41-1.66-6.22s1.37-1.66,2-2.6,1-6.94,1-8-1.59-1.66-3.76-1.3-4.48-2.82-5.42-3.69-.65-2.46-3-2.46-7.74-.29-5.06,5.93c-.36,0,1,.58-.87,1.59s-2.1,1-2.82.43-1.81-2-2.24-2.1-2-.36-2.82-.65-1.14-1.88-1.15-2.82-2-.65-2-.65,0-.67.07-1.73c0,0-2.69,1.23-4,1.88s-2.31.29-5.13-.36-.51-.43-2.39-.51-2.1,2.24-2.6,3.11S93.13,72,91.32,73.11a2.23,2.23,0,0,1-3-.43l-.07,1.88L92,75.86s-1.37.58-2.39,1.08-.51,3.11-.51,3.11-.14,2.39.65,2.39.8.58,1.74,1.16S92,84,92,84a16.64,16.64,0,0,0,.14,2.89c.22,1.45.43,1.16,1.59,1.59s.94,1.23.58,2.39-1.45.65-1.66,2.1.43.87-.14,1.66-1,2-5.86,5.06c-5.86,3-7.67-2.6-7.67-2.6s-2-1.16-3-.94a14.07,14.07,0,0,1-3.9-.07c-.87-.14-2.24.36-4.19.94s-2,1.23-3.69,2.46-1.45,3.18-2.31,5.64-.43,3.18-.65,4.34A3.39,3.39,0,0,1,58,111.8c-1.66,0-2.75-.87-3.4-3s.8-3.33-.29-8.61-1.81-4-2.75-4.77-3.69,1.74-3.69,1.74-3.11,2-3.83,2.31a34.53,34.53,0,0,0-4.19,3.47c-.36.43-.94,2.1-1.52,2.31s-1.88-.07-3.18,0,.51,1-1.52,1.52.14,1.45.8,3.4-1.81,2.75-3.47,4.92-8,8.53-11.21,12.37c2.6,1.45,12.73,2.17,18.15,2.68a53.67,53.67,0,0,0,16.85-1.59c4-1.16,18.73-8.1,19.16-8.32s.07,9.47.07,9.47l8.53.65.36,5.06s-6.51,1.45-10.41,2.1-3.9.72-6,2.31-1.45,2.1-2.75,5.35-3.69,4.48-6.51,5.28-3,.72-3.11,3.25,0,18.37,0,18.37,4,.22,7.16.07,9.69.65,11.5.36S79,174.06,80,174.64a7.58,7.58,0,0,1,3,3.33c.87,1.74-2.89,2.46-2.89,2.46s-6.22,2.53-7.88,3A43.93,43.93,0,0,1,63.55,185a10.37,10.37,0,0,0-5.71,2.31c-1.37.94-8.24,4.84-9.83,5.71s-12.58,5.64-14.1,6.07-7.16,2.68-8.24,3a7.88,7.88,0,0,0-4.27,3c-1.08,1.74.43,11.35.07,13s-.07,2-2.89,2c-2.25,0-3,2.43-3.25,3.56,11.38,9,30.71,1,43.66,8.31,8.1,4.6,8.95,14.15,8.81,23.63h0c2,.72,1,3.11,1.23,3.62a9.39,9.39,0,0,0,3.33,2.1c.8.22,4.7,4.34,4.7,4.34s2.24,2,3.4,1.59,10.34-2.6,10.34-2.6l.94-.94c.94-.94,1.37-1.74,2.6-3s1.37-.51,3.31.29.16,1.16,0,2.1.8,1.37.87,3.18a9.85,9.85,0,0,1-.87,3.83s11.06.29,12.29-.07c1.59-1.37,2.75-.22,1.59,1.37.43-.07,1.74.14,2,1.88a4.52,4.52,0,0,0,1.23,3c0-.22,1.45-.51,1.45-.94s1.66-1.81,2.92-3,.12-1.16,0-2.39a6.82,6.82,0,0,1,.32-2.46s-.72-.22,0-2,3.33-1.08,5.64-.87,5,2.46,5.21,2.75a27.78,27.78,0,0,0,2.68,3.33,22.89,22.89,0,0,1,4.27,4.92,13.24,13.24,0,0,1,1.23,4.41,29.48,29.48,0,0,1,5.06.58c2,.51,0,4.7,0,4.7s8.1-.14,8.1-.43-.14-2.1-.29-3.4-.43-2.53-.65-4.12a7.64,7.64,0,0,1,0-3.62,52.63,52.63,0,0,1,2.1-6.13c.36-.85,1.74-.74,2.89-1.1s5.21-1.59,7.45-2.1,2.68,0,4.41.58,1,1.74,1.66,2.24a2.86,2.86,0,0,0,2,.36,4.13,4.13,0,0,0,2.89-2c.87-1.3.29-2.46,1.74-3.18a21.65,21.65,0,0,1,5.79-1.88c1.52-.14,4.27-.58,5.57-1.59a27.18,27.18,0,0,1,4.27-3.18c1.3-.58,2.82.51,2.75,0s0-.36.14-1,0-.8-.36-2.24-.07-1.74.58-3.4.43-.43,1.88-2A5.79,5.79,0,0,0,198.2,244c.22-.72,1.3-.51,3.76-.36a7.77,7.77,0,0,1,3.83.8c1.37.58.43,1,2.31,2.68.36-1.59,8.24-5.57,8.24-5.57s-2.17-2.39-2.82-2.89-3.11-4-2.89-4.7,6.07-8.1,6.07-8.1,3.69-1.81,4.85-2.24,1.81-1.16,1.16-2.53.65-1.74,3.18-2.75,3.47-.43,4-.87,9-2.6,9-2.6,4.7,17,5.21,17.72,1.59,1,3.33.8a10.51,10.51,0,0,1,3.18,0c.36.07.51,2,.94,2.17a2.11,2.11,0,0,0,2.17-.07,8.72,8.72,0,0,0,2.53-2.1,6.21,6.21,0,0,0,1.08-3.25c0-.87.22-2-.22-2a2.67,2.67,0,0,1-2.24-1.16c-.8-1.08.14-2.53-.8-3a5.62,5.62,0,0,0-2.53-.36c-.65,0,.51-3.4.51-3.4l4.48-6.94s1.88-2.31.72-3.11-.65-2-3.18-5.35c-3.62-3.83-3.47-10.7-3.47-10.7l2.82-6.22,2.82-4.48s0-.51,3.83-.43c2.31-1,12.37-1.74,12.37-1.74s10.27.36,11.06,1.37,1.3,5.64,2.1,5.64a3.67,3.67,0,0,1,2.39.94,9.06,9.06,0,0,1,1.66,2.75c.58,1.3.43,5.35.43,6.94a29.48,29.48,0,0,0,1.52,7.38c.51.87.87.43,2.17.43a44.1,44.1,0,0,0,7.38-.36c1.74-.43,2.24,0,2.82-2.39s-.51-2-1.23-3a18.9,18.9,0,0,0-2.39-2.75c-1.16-1.23-1.74-2.17-2.6-3.18s-4.84-1.16-7.09-2.68c.8-3.47,8.1-16.56,10.12-17.5s2.31-4,3.9-4.12,3.62,1.08,4.27.87-.14-1.16-.36-2.07S307.1,168,306.53,167a5,5,0,0,1,0-4.34c.72-1.81,1.45-4,3.69-5.35a14.82,14.82,0,0,1,6.8-1.88c2.31-.22,1.66,0,3.4,1.16s1.81,1.37,2.89,3.76-.8,5.21-.8,5.21h3.33c1.66,0,1.88.22,2.1.94s.14,1.74.51,2.17,1.45.43,2.46.75,1.52.63,1.74,0a6.5,6.5,0,0,1,1.45-1.69s-.51-1.23-.8-2.24a31.53,31.53,0,0,1-.29-3.47,2.9,2.9,0,0,1,.65-2.75C334.22,158.44,334.51,155.91,334.66,155.48Z"/><path class="cls-2" d="M141.37,286.74l.95-2.05a7.29,7.29,0,0,0,.74-2.78,29.2,29.2,0,0,0-4.55-.49l-1.27,0-.11-1.26a11.87,11.87,0,0,0-1.07-3.86,22.09,22.09,0,0,0-4-4.55,24.44,24.44,0,0,1-2.7-3.31l-.15-.2c-.29-.29-2.5-2-4.21-2.19l-1.13-.13c-1.14-.14-2.87-.35-3.07.13l-.11.29.62.19-.48,1.4a5.41,5.41,0,0,0-.25,1.88c0,.09,0,.13.14.31.72,1.12.54,2.11-.58,3.21-.36.36-.76.72-1.14,1.08s-1.15,1.07-1.41,1.37a2.27,2.27,0,0,1-1.39,1.37v.51l-1.38.07h-.05c-1.6,0-2.5-3-2.63-4.29-.11-.6-.38-.66-.46-.66l-3.42.57,1.42-1.88c-2.35.24-9.06.1-12.08,0l-2.16-.06.91-2a8.34,8.34,0,0,0,.74-3.18,3.06,3.06,0,0,0-.42-1.44,3.17,3.17,0,0,1-.44-2,2.35,2.35,0,0,1,.29-.82c-.32-.15-.59-.3-.81-.42l-.23-.12-.16.16c-.57.61-1,1.09-1.33,1.57a16.12,16.12,0,0,1-1.3,1.5l-1.22,1.22-.39.09c-2.54.62-9.34,2.29-10.25,2.58-1.73.54-3.9-1.13-4.75-1.87l-.1-.09a41.9,41.9,0,0,0-4.17-4c-.88-.3-3.63-1.7-4.13-2.87a2.75,2.75,0,0,1-.1-1.44c.13-1.24,0-1.3-.3-1.4l-1-.34v-1c.15-10.58-1.16-18.44-8.09-22.37-5.82-3.3-13.28-3.32-20.5-3.34-8.34,0-17,0-23.34-5.09l-.68-.54.17-.85c.58-2.95,2.31-4.71,4.64-4.71a12.38,12.38,0,0,0,1.35,0l.05-.26c0-.16.06-.34.11-.53a34.49,34.49,0,0,0-.19-4.19c-.38-4.86-.54-7.91.31-9.27a9.25,9.25,0,0,1,5.1-3.65c.45-.12,2.15-.76,3.64-1.32,1.84-.69,3.74-1.4,4.58-1.64,1.31-.37,12.15-5,13.81-6S55.74,187,57,186.12l.15-.1a11.39,11.39,0,0,1,6.32-2.46,43,43,0,0,0,8.23-1.46c1.58-.48,7.7-3,7.76-3l.27-.08a5.8,5.8,0,0,0,1.78-.66,6.09,6.09,0,0,0-2.28-2.51c-1.16-.66-5.08-2.2-6.3-2a36.12,36.12,0,0,1-5.85-.13c-2.16-.14-4.39-.28-5.8-.22-3.14.14-7.13-.06-7.3-.07l-1.34-.07V172c0-.65-.07-15.89,0-18.42.09-3.13.79-3.64,3.74-4.46l.4-.11c2.57-.72,4.5-1.76,5.58-4.44a21,21,0,0,0,.76-2.29,5.62,5.62,0,0,1,2.44-3.66l.18-.14c2.18-1.66,2.54-1.79,6.44-2.44,2.83-.47,7.09-1.37,9.15-1.82l-.19-2.62L72.5,131l.05-1.36c.1-2.56.15-5.47.14-7.28-4.17,2-14.22,6.59-17.57,7.54a54.69,54.69,0,0,1-17.37,1.64l-2.24-.2c-7.62-.68-14.12-1.34-16.47-2.65l-1.51-.84,1.12-1.32c1.6-1.89,3.87-4.32,6.07-6.67s4.29-4.59,5.1-5.65a14.2,14.2,0,0,1,2.06-2.08c1.16-1,1.29-1.23,1.19-1.53a5,5,0,0,0-.84-1.38,2.58,2.58,0,0,1-.77-2.46,2.36,2.36,0,0,1,1.75-1.37,1.61,1.61,0,0,1,.36-.91,2,2,0,0,1,1.49-.67,15,15,0,0,1,1.83,0l.79,0c.14-.22.32-.59.44-.81a5.77,5.77,0,0,1,.64-1.08,33,33,0,0,1,4.65-3.83c.47-.23,2.41-1.43,3.61-2.18,1.39-1.26,3.86-3,5.47-1.68l.17.07c1.42.47,2.2,1.38,3,5.5a17.29,17.29,0,0,1,.25,6.5,4.36,4.36,0,0,0,0,2c.56,1.87,1.29,2,2,2a2.06,2.06,0,0,0,1.93-1.16,4.38,4.38,0,0,0,0-.83,9.87,9.87,0,0,1,.66-3.72,17.71,17.71,0,0,0,.55-2.05c.35-1.53.7-3.11,2.25-4.26a13.38,13.38,0,0,0,1.13-.95,6.54,6.54,0,0,1,3-1.73l1-.29a9.13,9.13,0,0,1,3.87-.69,13,13,0,0,0,3.35.09c1.34-.31,3.23.66,4,1.09l.48.27.17.52a4.18,4.18,0,0,0,2,2.32A4.33,4.33,0,0,0,86,98.49c4-2.58,4.75-3.68,5.2-4.34l.09-.13a4,4,0,0,1,0-1.23,2.81,2.81,0,0,1,1.56-2.23,1.2,1.2,0,0,0,.18-.11c0-.15.11-.43.16-.64l-.42-.13c-1.29-.38-1.76-1-2-2.54a17.37,17.37,0,0,1-.17-2.45,5.3,5.3,0,0,1-.9-.78l-.05-.05a1.8,1.8,0,0,1-1.18-.57,4.5,4.5,0,0,1-.76-3.13c-.15-.88-.36-2.92.69-4l-1.66-.56L87,68.72l2.39,3.09a.8.8,0,0,0,1.15.11,8.91,8.91,0,0,0,2.59-3.28l.28-.51a5.37,5.37,0,0,0,.23-.59c.38-1.08,1.18-3.33,3.65-3.22l.72,0h.64l.27.26c.16,0,.47.13,1,.26l.9.21c2.16.51,2.64.58,3.28.26.93-.47,2.58-1.22,3.46-1.63l.54-.25.61,1.26,1.44.07v.28a2.66,2.66,0,0,1,1.27.56,1.94,1.94,0,0,1,.69,1.47,3.67,3.67,0,0,0,.3,1.53c.43.13,1,.25,1.55.35a10.36,10.36,0,0,1,1.15.26,4.82,4.82,0,0,1,1.76,1.43,11.62,11.62,0,0,0,.92.9l0,0c.33-.13,1-.47,1.22-.61l.09,0a1.43,1.43,0,0,1,0-.16c-.9-2.28-.9-4,0-5.38,1.41-2.13,4.44-2.11,6.25-2.11h.3a3.6,3.6,0,0,1,3.66,2.28,2.31,2.31,0,0,0,.34.56c.2.19.47.47.78.81.74.8,2.47,2.68,3.45,2.52a5.6,5.6,0,0,1,4.5.82,2.45,2.45,0,0,1,.91,1.88c0,.07-.19,7.22-1.27,8.76a4.13,4.13,0,0,1-1.2,1.1c-.44.29-.52.35-.58.87l0,.24c-.25,2-.31,3.54,1.16,4.69a26.85,26.85,0,0,0,5.82,3c1.62,0,8.49,0,10.23.31,1,.16,2.08.33,2.36,1.72v.06a15.92,15.92,0,0,1,4.3,2.89l5.81-1.54.13,1.7c.32,4.15-.08,5-.22,5.23l-.1.2a6.28,6.28,0,0,1-2.77,3.21,3.87,3.87,0,0,1-3-.23c-.29-.1-.57-.2-.85-.28,2.62,1.59,2.7,5.72,2.7,6.23,0,0,0,3.71-1.08,4.92a7,7,0,0,1-2,1.27,9.38,9.38,0,0,0-2.52,1.62l0,0,3.35,1.55.41-.16c3-1.16,6-2.37,9-3.5l.66-.25c2.16-.84,5.12-2,7.66.21a5.43,5.43,0,0,1,2,3.83c.19,2.89-1.95,5.71-4.06,8.08-1.93,2.17-2.49,4.36-2.89,7.9a5.46,5.46,0,0,0,0,.6,6,6,0,0,1-.15,1.55,6.12,6.12,0,0,1-1.14,2.14,6.31,6.31,0,0,0-.54.82c-1,2-.88,2.66-.23,5.33a39.86,39.86,0,0,1,1.12,6.75,22.37,22.37,0,0,0,6.56-.84c2.55-1,4.75-1.9,7.94-1.31,1.59.29,4.37-.84,5.59-1.5a24.66,24.66,0,0,1-.32-2.91c-.06-1.51.77-3.57,1.55-5.39l.21-.49v-.14a3.53,3.53,0,0,1,1.11-2.7l.6-.45.71.25a3.53,3.53,0,0,0,4.55-1.43,1.44,1.44,0,0,1,1.69-.69l1,.31v1c0,.12.08.36.15.64h0l1.15-.13.36,1.09s.43,1.27.91,2.44a6.73,6.73,0,0,0,.91,1.32,15.82,15.82,0,0,1,2.1,3.24l.26.56-.23.57c-.79,2-.19,2.31.81,2.88.21.12.4.23.56.34a7.38,7.38,0,0,0,1,.5,8.55,8.55,0,0,1,3.09,2,10,10,0,0,0,1.63,1.3,10.07,10.07,0,0,1,3,2.81,4.56,4.56,0,0,1,.38,3.37c0,.09,0,.21-.05.31a18.08,18.08,0,0,0,1.84.14,10.59,10.59,0,0,1,4.66.89,13.8,13.8,0,0,1,4.65-.79c1-3.42,1.92-7,2-7.62a5.39,5.39,0,0,1,.86-2.44,4.77,4.77,0,0,0,.66-1.58,4.15,4.15,0,0,1,3.2-4,4.19,4.19,0,0,0,.73-2.09l-.4-.25a18.28,18.28,0,0,1-4.38-3.53,5,5,0,0,1-1.15-2.2,4.37,4.37,0,0,1-1.7,0c-3.18-.44-4.48-4-5-5.47-1.17-3.17.61-5.2,2.3-6.62a5.57,5.57,0,0,1,4.76-1.65h2a24.82,24.82,0,0,1,7.77.63,16.86,16.86,0,0,0,4.22.5c.68,0,1.38,0,2.15.11,1.59.16,7.53.07,10.32,0a17.39,17.39,0,0,0,2.9-3.62A12.56,12.56,0,0,0,262.1,114c0-.34-.09-.54-.12-.66-.93-.42-2.1-1.1-4.09-3.75a43.74,43.74,0,0,0-7.75-7.54,18.07,18.07,0,0,1-1.77-1.51,38.71,38.71,0,0,0-7.77-.44l-2.1,0,.76-2c.47-1.23,1-2.73,1.15-3.19a8.77,8.77,0,0,0-1.21-3.36,9,9,0,0,1-2-3.18,12.93,12.93,0,0,0-1.05-1.92,2.74,2.74,0,0,1-.66-2.95,2.49,2.49,0,0,1,2.46-1.35c.72,0,1.7,0,2.62,0l2,0a34.54,34.54,0,0,0,3.74-2.22c2.59-1.66,3.49-2.21,4.22-2.26a3.18,3.18,0,0,1,1.33.23v0c.74-2.76,6.28-7.21,8.57-7.74,1.39-.32,12.76-1.25,25.3-2.26l6.43-.52c4.25-.38,9.62,2,10.2,3.59a1.78,1.78,0,0,1,0,1.47c-.49,1-1.33,1.22-6.81,2.85a4.69,4.69,0,0,0-3,2.09,3.68,3.68,0,0,0-.4,1.86h2.17v2h2.24V83h1.59v1.45h2.1v1.88h9l0,1.44c0,2.94-.08,5.09-.11,6.66h6.19v1.42a32.33,32.33,0,0,0,.18,3.77c.54.41,2,1.31,3.23,2l1.31.75-.84,1.26c-2.51,3.79-5.14,8.61-5.05,9.75l.07.54c.25,2.13.45,3.29,1.92,4.22,2.49,1.57,2.82,2,3.26,4.33.09.45.15.83.22,1.22a18.53,18.53,0,0,0,.6,2.7c.2.11.53.26.77.36a6.08,6.08,0,0,1,1.66.94,11.82,11.82,0,0,0,2,.7l1.18.32-1.15,10h-1.22c-.11,2.35-.19,4.71-.18,6,1.54.13,4.31.08,5.08-.31a8.64,8.64,0,0,0,.58-4l-.12-2.42,2.17,1.09a2.36,2.36,0,0,0,.44.13,3.27,3.27,0,0,1,2.73,2.47,3,3,0,0,0,.12.34l1.13-.31.11,1.74c.73,11.54.62,12.14.51,12.45,0,.12-.07.34-.12.61a10.42,10.42,0,0,1-1.07,3.58l-.17.24c-.36.53-.39.57-.26,1.54a16.2,16.2,0,0,1,.13,2,4.74,4.74,0,0,0,.12,1.27c.26.92.74,2.08.74,2.09l.39.94-.77.67A6.12,6.12,0,0,0,334,170c-.62,1.81-2.44,1.19-3,1l-.44-.14a8.81,8.81,0,0,0-.94-.21,3.48,3.48,0,0,1-2.19-1,3.63,3.63,0,0,1-.66-2c0-.21-.05-.43-.09-.6-.15,0-.39,0-.77,0h-6l1.47-2.2c.4-.61,1.3-2.48.68-3.83l-.07-.15c-1-2.11-1-2.11-2.32-3a12.71,12.71,0,0,1-1.08-.81,2.34,2.34,0,0,0-.26-.2l-1.14.08a13.55,13.55,0,0,0-6.19,1.68c-1.68,1-2.33,2.67-3,4.27l-.16.4a3.63,3.63,0,0,0-.11,3.07,4,4,0,0,0,.76.74,4,4,0,0,1,1.58,2.09,4.28,4.28,0,0,0,.25.65,2.55,2.55,0,0,1,.25,2.14,1.75,1.75,0,0,1-1.07,1,4,4,0,0,1-2.48-.32,7.78,7.78,0,0,0-2.1-.48,5.73,5.73,0,0,0-.71,1.06,6.46,6.46,0,0,1-2.73,2.93c-1.53,1-7.46,11.28-9,15.52a20,20,0,0,0,2.9.89c1.6.41,2.86.73,3.57,1.55.36.42.68.83,1,1.25a22.54,22.54,0,0,0,1.56,1.88l.66.7A14.35,14.35,0,0,1,304,200.1a1.42,1.42,0,0,0,.37.34c1,.77,1.57,1.68,1.05,3.82-.59,2.43-1.43,3-3.09,3.27-.22,0-.47.08-.76.16a37,37,0,0,1-7.22.41h-.5a5.83,5.83,0,0,0-.76.06,2.31,2.31,0,0,1-2.64-1.2c-.72-1.23-1.71-6.51-1.71-8.09V198c0-1.28.05-4.69-.32-5.52a7.88,7.88,0,0,0-1.37-2.32,2.26,2.26,0,0,0-1.38-.53c-1.54,0-2-1.63-2.52-3.88a19.25,19.25,0,0,0-.62-2.15c-1.22-.43-6-.83-10-1-3.8.28-10.31,1-11.82,1.62l-.28.12h-.31a16,16,0,0,0-2.82.12l-2.55,4.06-2.65,5.85c0,1.25.3,6.47,3.08,9.43l.11.13a17,17,0,0,1,2.36,4.15c.27.66.33.77.49.88a2.26,2.26,0,0,1,1,1.56c.21,1.44-.91,3-1.34,3.55l-4.35,6.73c-.16.48-.3,1-.4,1.4a5.36,5.36,0,0,1,1.73.46A2.49,2.49,0,0,1,256,225.3a1.66,1.66,0,0,0,.07.78,1.26,1.26,0,0,0,1.1.58,1.6,1.6,0,0,1,1.17.51,2.9,2.9,0,0,1,.48,2.32c0,.21,0,.42,0,.62a7.62,7.62,0,0,1-1.35,4.08,7.92,7.92,0,0,1-2.35,2.09l-.53.35a3.38,3.38,0,0,1-3.31.29l-.12,0c-.95-.32-1.21-1.29-1.43-2.15v0a11.48,11.48,0,0,0-2.05.09c-2.25.28-3.82-.19-4.66-1.39-.16-.22-.62-.88-5-16.81-3.32.87-6.64,1.8-7.29,2.08a3,3,0,0,1-1.65.42,6.92,6.92,0,0,0-2.63.57l-.63.25a18.16,18.16,0,0,0-1.72.74,3.14,3.14,0,0,1,.12,2.45,3.44,3.44,0,0,1-2.14,1.85c-.82.31-3.25,1.47-4.43,2-2.29,2.91-4.73,6.1-5.49,7.22a17.43,17.43,0,0,0,2.28,3.35c.69.54,2.61,2.63,3,3l1.25,1.38-1.66.84c-3.19,1.61-6.93,3.87-7.52,4.72l-.51,2.23-1.79-1.58a5.88,5.88,0,0,1-1.71-2.24l-.05-.12-.16-.07-.29-.12a6.49,6.49,0,0,0-3.08-.56l-1.1-.07c-.48,0-1-.07-1.35-.07a7,7,0,0,1-1.84,3.15,5.07,5.07,0,0,1-1.45,1.2l-.16.38-.28.69c-.42,1-.44,1.07-.24,1.85.09.34.16.61.22.83a3.66,3.66,0,0,1,.15,2.07c-.05.22-.09.37-.13.49v0a1.53,1.53,0,0,1-.49,1.37,1.9,1.9,0,0,1-1.9.23,2.17,2.17,0,0,0-1.19-.11,15.22,15.22,0,0,0-2.77,2c-.42.35-.83.69-1.21,1-1.63,1.27-4.65,1.73-6.3,1.88a20.34,20.34,0,0,0-5.29,1.74c-.26.13-.27.14-.42.77A5.64,5.64,0,0,1,171.3,269H171a3.57,3.57,0,0,1-2.55-.67,2.46,2.46,0,0,1-.87-1.61,2,2,0,0,0-.06-.27h0a1.44,1.44,0,0,0-.31-.13c-.37-.12-.68-.24-1-.35a3.48,3.48,0,0,0-2.68-.19c-2.12.48-6,1.65-7.34,2.07a10,10,0,0,1-1.27.29,6.69,6.69,0,0,0-.8.17,51.2,51.2,0,0,0-2,5.72,5.32,5.32,0,0,0-.06,2.54l.08.58c.1.72.21,1.36.32,2s.25,1.45.34,2.19c.14,1.23.3,3.16.3,3.55,0,1.55-1,1.58-5.42,1.74-2,.07-4.07.11-4.07.11Zm-1.59-8.09a26.47,26.47,0,0,1,4.16.56,2.47,2.47,0,0,1,1.66,1.35,5,5,0,0,1,0,3.26c1.79,0,3.49-.11,4.57-.18-.05-.61-.12-1.36-.19-2s-.19-1.32-.31-2-.23-1.32-.33-2.07l-.08-.56a8,8,0,0,1,.1-3.55,53.85,53.85,0,0,1,2.18-6.38c.55-1.29,1.88-1.53,2.85-1.7a7.69,7.69,0,0,0,.92-.2s4.89-1.52,7.56-2.13a6.19,6.19,0,0,1,4.32.31l.85.31a3,3,0,0,1,2.25,2.54,3.17,3.17,0,0,0,.54,0h.45a3,3,0,0,0,1.71-1.32,2.87,2.87,0,0,0,.37-1,3.48,3.48,0,0,1,1.91-2.66,22.83,22.83,0,0,1,6.28-2,11.09,11.09,0,0,0,4.83-1.3c.35-.28.73-.59,1.13-.92a16.4,16.4,0,0,1,3.44-2.44,3.8,3.8,0,0,1,2.09-.25c0-.09-.06-.23-.12-.48s-.14-.52-.23-.89a4.73,4.73,0,0,1,.37-3.61l.26-.65c.38-1,.65-1.49,1.44-1.84.09,0,.26-.12.71-.62a4.21,4.21,0,0,0,1.24-2.15c0-.14.07-.28.11-.42.51-1.69,2.19-1.57,4.14-1.44l1.06.07a9,9,0,0,1,4,.79l.28.12a2.83,2.83,0,0,1,1.71,1.66l.06.14a32.59,32.59,0,0,1,5.92-3.79c-.63-.66-1.17-1.21-1.38-1.37-.38-.29-4-4.48-3.37-6.27.09-.26.29-.88,6.3-8.53l.2-.25.29-.14c.15-.08,3.76-1.84,5-2.3a1.56,1.56,0,0,0,.5-.27s0-.13-.13-.33a2.53,2.53,0,0,1-.15-2.07c.46-1.17,1.66-1.64,3.47-2.36l.61-.24a9.75,9.75,0,0,1,3.57-.77h.29c.41-.24,1.87-.82,9.4-2.75l1.35-.35.37,1.34c1.67,6.06,4.47,15.93,5,17.32a3,3,0,0,0,2,.16,11.63,11.63,0,0,1,3.63,0c1,.21,1.31,1.22,1.52,2l.1.36a.39.39,0,0,0,.41-.07l.59-.39a5.43,5.43,0,0,0,1.6-1.36,4.85,4.85,0,0,0,.82-2.43c0-.25,0-.51,0-.77a4.16,4.16,0,0,1-2.21-1.57,3.82,3.82,0,0,1-.62-2.56v-.09a5,5,0,0,0-1.31-.1h-.26a1.56,1.56,0,0,1-1.28-.66c-.29-.4-.76-1.07.44-4.61l.15-.31,4.57-7.07a5,5,0,0,0,.74-1.26,4.45,4.45,0,0,1-1.23-1.93,14.13,14.13,0,0,0-2-3.47c-3.91-4.21-3.8-11.34-3.8-11.64v-.29l3-6.65,2.6-4.14v-.19l.46-.47c.43-.42,1.15-.82,4.54-.79,2.86-1,11.5-1.65,12.52-1.73h.15c10.93.38,11.74,1.42,12.13,1.91a9.59,9.59,0,0,1,1.22,3.36c.14.56.33,1.33.5,1.8a5,5,0,0,1,2.66,1.29,7.12,7.12,0,0,1,1.12,1.5c2.17-5.09,7.74-15.09,10.08-16.18a4.25,4.25,0,0,0,1.47-1.78c.62-1.07,1.39-2.4,3-2.47a7.55,7.55,0,0,1,2.44.39l-.48-.41a6,6,0,0,1-1.37-1.43,6.36,6.36,0,0,1-.11-5.61l.15-.39c.72-1.84,1.63-4.12,4.11-5.64a16.13,16.13,0,0,1,7.41-2.08c1.85-.17,2.4-.13,3.46.75a10,10,0,0,0,.86.64c2,1.31,2.24,1.81,3.33,4.2l.07.15a6.13,6.13,0,0,1,.11,4.38h1.13c1.57,0,2.91.15,3.46,1.95a7.05,7.05,0,0,1,.21,1.16c0,.12,0,.28.06.41l.51.1a11.38,11.38,0,0,1,1.25.29l.39.13a7.13,7.13,0,0,1,.71-.84c-.16-.44-.35-1-.49-1.47a7.19,7.19,0,0,1-.23-2,13.45,13.45,0,0,0-.1-1.67,4.11,4.11,0,0,1,.73-3.5l.15-.22a11.9,11.9,0,0,0,.64-2.51c.07-.38.11-.62.16-.8,0-.9-.24-5.92-.54-10.66a3.38,3.38,0,0,1-1.1-1.49,7.51,7.51,0,0,1-1,3c-1.47,2.26-8.51,1.44-9.16,1.22l-.32-.11-.24-.24c-.5-.5-.74-.74-.27-9.68l.07-1.34h1.38l.59-5.08a5.54,5.54,0,0,1-2.06-1c-.09-.07-.57-.28-.86-.41a7.53,7.53,0,0,1-1.45-.76c-.87-.66-1.15-2-1.57-4.4-.07-.37-.13-.74-.2-1.1-.28-1.44-.28-1.44-2-2.54-2.68-1.69-3-4.13-3.22-6.28l-.06-.53c-.28-2.22,2.73-7.35,4.69-10.41-2.47-1.49-2.79-1.93-2.92-2.11s-.53-.75-.61-4h-1.52l-.43,2.56-1.16,0c-1.75.07-2.63,0-3.1-.83l-.42-.76.3-.47c.07-1,.16-4.87.22-8.65h-8.95V87.33h-2.1V85.88h-1.59V84h-2.24V82h-1.56l-.32-1a7,7,0,0,1,.42-5,7.36,7.36,0,0,1,4.72-3.53c1.29-.38,2.67-.79,3.71-1.12a12.75,12.75,0,0,0-6-1.24l-6.45.52c-7.65.61-23.58,1.89-24.89,2.19-1.53.35-6.06,4.17-6.47,5.71a3.14,3.14,0,0,1-1.39,2,2.63,2.63,0,0,1-2.22,0l-.22-.08c-.56.26-2,1.17-3,1.8-3,1.93-4.24,2.67-5.15,2.67l-2.09,0-2,0a18,18,0,0,1,1.16,2.14,11.85,11.85,0,0,0,1.24,2.2c1.35,1,2.52,4.92,2.25,6.13-.07.33-.31,1-.56,1.73,6.8,0,7.48.92,7.82,1.36.15.17.84.73,1.46,1.22a46.17,46.17,0,0,1,8.24,8c1.74,2.31,2.57,2.68,3,2.88,1.22.55,1.51,1.28,1.74,2.83a15.34,15.34,0,0,1-1.32,8c-.73,1.77-3.41,4.44-3.94,5l-.4.39h-.56c-.37,0-9,.21-11.24,0-.67-.07-1.29-.08-1.94-.1a19.45,19.45,0,0,1-4.85-.59,22.1,22.1,0,0,0-7-.54h-.42c-.64,0-1.17,0-1.62,0-1.74,0-1.74,0-2.93,1-1.76,1.48-1.87,2.36-1.46,3.46.59,1.6,1.44,3.46,2.77,3.64a1.6,1.6,0,0,0,.63,0,1.81,1.81,0,0,1,2.6.43,2.93,2.93,0,0,1,.83,1.65c0,.21.07.43.61,1.1a16.12,16.12,0,0,0,3.68,2.9c.42.27.74.48.93.62.73.57,1,1.61.66,3.1s-1.14,3.32-2.59,3.72a1.4,1.4,0,0,0-1.2,1.31,6.32,6.32,0,0,1-1,2.93,5.47,5.47,0,0,0-.52,1.13c0,1.15-1.66,7-2.37,9.42l-.32,1.11-1.15-.09a11.06,11.06,0,0,0-5.14.84l-1.1.6-.73-1c-.36-.4-2.43-.5-3.42-.54a10.51,10.51,0,0,1-3-.4c-1.9-.72-1.56-2.59-1.42-3.39s.18-1.09,0-1.39a8,8,0,0,0-2.21-2,12,12,0,0,1-2.12-1.74,6.12,6.12,0,0,0-2.13-1.33A8.94,8.94,0,0,1,208,152l-.35-.21c-1.06-.61-3.48-2-2.26-5.78a14.49,14.49,0,0,0-1.5-2.18,8.64,8.64,0,0,1-1.31-2c-.22-.54-.43-1.08-.59-1.53l-1.32.16-.23-.84a6.11,6.11,0,0,1-4.64,1v.08a4.93,4.93,0,0,1-.06.54,5.54,5.54,0,0,1-.39,1,14.62,14.62,0,0,0-1.32,4.14,23.5,23.5,0,0,0,.33,2.8,5.76,5.76,0,0,1,.11.87,1.54,1.54,0,0,1-.61,1.21c-.8.67-5.32,3-8.44,2.42-2.28-.42-3.83.14-6.38,1.15-2.76,1.11-7.71,1-7.92,1h-2.45l0-1.4a33.7,33.7,0,0,0-1.1-7.52c-.73-3-1-4.45.46-7.29a8.68,8.68,0,0,1,.79-1.21,2.42,2.42,0,0,0,.74-2,8.47,8.47,0,0,1,0-.92c.38-3.28.93-6.47,3.59-9.46,1-1.17,3.48-3.92,3.35-6a2.63,2.63,0,0,0-1-1.87c-1.16-1-2.58-.56-4.77.3l-.7.27c-3,1.13-6,2.33-9,3.49l-1.54.61-5.39-2.52a2.23,2.23,0,0,1-.86-1.48,3.18,3.18,0,0,1,.79-2.41,10.48,10.48,0,0,1,3.45-2.4c.39-.2.91-.47,1.13-.62a13.55,13.55,0,0,0,.4-3.05c0-.89-.3-3.51-1.61-3.93-.76-.24-3.06-1-3-2.75,0-1.11.89-1.9,2.57-2.35a6.42,6.42,0,0,1,4,.42,6.66,6.66,0,0,0,1,.28c.49-.23,1-1.27,1.27-1.83l.08-.15a12.52,12.52,0,0,0,.05-2.1l-4,1.06-.57-.55c-1.35-1.28-3.3-2.75-4.1-2.88l-.55-.09-.34-.45a3.83,3.83,0,0,1-.58-1L153,94c-1.25-.2-6.69-.27-10-.27h-.25l-.24-.09a30.53,30.53,0,0,1-6.82-3.54c-2.85-2.22-2.46-5.38-2.23-7.27l0-.23a3.65,3.65,0,0,1,1.82-2.88,1.68,1.68,0,0,0,.44-.36,40,40,0,0,0,.76-6.93,3.65,3.65,0,0,0-2.11-.12c-2.52.41-4.7-2-6-3.41-.24-.26-.45-.49-.61-.64a4.45,4.45,0,0,1-.95-1.36c-.32-.64-.36-.72-1.13-.72h-.31c-1.16,0-3.31,0-3.88.84-.35.53-.19,1.67.43,3.12l.85,2H122a3.46,3.46,0,0,1-1.55,1.42c-1.92,1-2.9,1.47-4.38.29a13.33,13.33,0,0,1-1.2-1.16c-.23-.24-.55-.58-.73-.73l-.68-.14a17.92,17.92,0,0,1-2-.48c-1.53-.51-2-2.31-2.08-3.44l-.43,0-1.66.23,0-1.11c-.67.31-1.37.64-1.86.89-1.62.81-2.89.51-5.2,0l-.88-.21a10.24,10.24,0,0,1-1.6-.46l-.52,0c-.27,0-.45.17-.87,1.34a6.4,6.4,0,0,1-.46,1.07l-.24.43a11.43,11.43,0,0,1-3.55,4.32l-.07,0,4,1.37-3.44,1.45s-1.17.5-2.1.95a5,5,0,0,0,.05,1.67l0,.18v.18a6.43,6.43,0,0,0,0,1,2.76,2.76,0,0,1,1.17.8,2.41,2.41,0,0,0,.52.45c.55.34,1.67,1,1.17,2.2a14.67,14.67,0,0,0,.14,2.12c0,.11,0,.19,0,.26.18.05.39.12.64.21,2.44.92,1.76,3.09,1.43,4.14A2.82,2.82,0,0,1,94.26,93l-.15.08s0,0,0,.1a2.35,2.35,0,0,0,0,.32,1.88,1.88,0,0,1-.37,2l-.16.24c-.61.9-1.52,2.26-6.07,5.18l-.11.07a7,7,0,0,1-6,.64,6.79,6.79,0,0,1-3.41-3.49,5.29,5.29,0,0,0-1.59-.56,15.23,15.23,0,0,1-4.4-.06,9.85,9.85,0,0,0-2.57.6l-1,.3a3.85,3.85,0,0,0-1.89,1.11,16.09,16.09,0,0,1-1.36,1.13c-.67.5-.86,1.2-1.17,2.6a20.24,20.24,0,0,1-.65,2.37,7.1,7.1,0,0,0-.5,2.77,6.89,6.89,0,0,1-.1,1.35A4.79,4.79,0,0,1,58,113.22c-2.35,0-4-1.36-4.76-4a7,7,0,0,1-.1-3.17,14.6,14.6,0,0,0-.22-5.55c-.57-2.79-1-3.28-1-3.35l-.12,0a3.34,3.34,0,0,1-.81-.37,8.71,8.71,0,0,0-2.12,1.47l-.21.16c-.32.2-3.19,2-4,2.38a37.78,37.78,0,0,0-3.75,3.12c-.06.09-.16.3-.27.53a4,4,0,0,1-1.83,2.19,5.09,5.09,0,0,1-2.11.13l-.76,0a2.13,2.13,0,0,1-1.2,1.21,6.61,6.61,0,0,1,1,1.85c.72,2.17-.8,3.49-2,4.56a11.76,11.76,0,0,0-1.67,1.67c-.9,1.17-2.93,3.34-5.28,5.86-1.6,1.71-3.24,3.46-4.61,5a119.11,119.11,0,0,0,13.59,1.71l2.25.2a52.22,52.22,0,0,0,16.33-1.54c3.79-1.08,18.12-7.82,18.92-8.22l.72-.36.71.44c.74.47,1,.67.74,9.35l8.39.64.54,7.5-1.19.27c-.27.06-6.59,1.46-10.49,2.11-3.44.57-3.44.57-5.19,1.9l-.19.14a3,3,0,0,0-1.43,2.17,24,24,0,0,1-.86,2.58c-1.6,4-4.66,5.33-7.44,6.12l-.41.11a8.38,8.38,0,0,0-1.59.53,11.26,11.26,0,0,0-.08,1.29c-.06,2,0,13.08,0,17,1.43,0,3.76.1,5.68,0,1.57-.07,3.88.08,6.12.22a40.14,40.14,0,0,0,5.22.16c2.51-.41,7.57,2,8.16,2.34a9,9,0,0,1,3.53,3.92,2.41,2.41,0,0,1,0,2.19c-.73,1.49-2.92,2.08-3.78,2.26-.91.37-6.29,2.54-7.88,3a45.23,45.23,0,0,1-9,1.58,8.75,8.75,0,0,0-4.8,2l-.15.1c-1.45,1-8.46,5-10,5.79-1.67.91-12.75,5.72-14.39,6.19-.73.21-2.66.93-4.37,1.57-2.06.77-3.35,1.25-3.9,1.4a6.49,6.49,0,0,0-3.43,2.42c-.4.85-.06,5.21.12,7.55a23,23,0,0,1,.14,5c0,.17-.07.32-.09.46-.45,2.36-1.62,2.61-4.18,2.61-.87,0-1.37.84-1.63,1.58,5.53,3.89,13,3.91,20.85,3.93,7.59,0,15.43,0,21.9,3.71,8.37,4.75,9.6,14.28,9.53,24,1.54,1.12,1.33,3.08,1.24,3.89h0a11.18,11.18,0,0,0,2.28,1.3c.32.09,1.17.32,5.31,4.68a6.13,6.13,0,0,0,2.07,1.24c1.29-.38,8.1-2.05,10-2.51l.66-.66a13.63,13.63,0,0,0,1.08-1.26c.39-.49.84-1.05,1.49-1.75,1.53-1.62,2.62-1.22,3.8-.58a10.43,10.43,0,0,0,1.08.53,2.58,2.58,0,0,1,1.74,1.67,2.1,2.1,0,0,1-.73,1.91l-.1.1.13.25a5.83,5.83,0,0,1,.72,2.6,8.87,8.87,0,0,1-.31,2.52c4.27.09,8.52.1,9.72,0a2.57,2.57,0,0,1,3.38-.14,2.26,2.26,0,0,1,.68,1.94A3.65,3.65,0,0,1,115,273l0,.13a4.44,4.44,0,0,0,.23,1.1,14.4,14.4,0,0,1,1.87-1.92c.36-.33.72-.67,1.06-1a3.18,3.18,0,0,1-.38-1.27,7.71,7.71,0,0,1,.18-2.28,3.55,3.55,0,0,1,.24-2.79c1-2.46,3.91-2.11,6-1.85l1.06.12c2.9.27,5.88,2.87,6.21,3.31l.18.25a24.4,24.4,0,0,0,2.32,2.88,24,24,0,0,1,4.55,5.29A13.14,13.14,0,0,1,139.78,278.64Zm-22.09-3.34h0Zm-6.36-4.55ZM99,263.39Zm-27-.75h0Zm0,0h0Zm25.48-.25Zm154.62-28.21.06,0Zm-21.29-15.6-.05,0Zm-1.49-2.37h0Zm62.25-21.92c.06,1.13.06,2.42,0,3.75v.82a32.34,32.34,0,0,0,1.24,6.46,8.06,8.06,0,0,1,1-.07h.51a39.74,39.74,0,0,0,6.52-.32c.36-.09.67-.15.95-.2a3.79,3.79,0,0,0,.53-.12,10,10,0,0,0,.31-1,3.48,3.48,0,0,0,.12-.79l-.12-.08a4.08,4.08,0,0,1-1-1,11.83,11.83,0,0,0-1.55-1.84l-.69-.72a25.14,25.14,0,0,1-1.75-2.1c-.29-.38-.57-.75-.9-1.13a11.84,11.84,0,0,0-2.12-.65A23.74,23.74,0,0,1,291.56,194.29Zm38-26.36Zm-93.14-23.32Zm91.93-.26ZM195.93,139.9Zm126.7-12.12h0Zm-164-14.3h0Zm-1.53-10.3Zm91.4-2.65ZM163.31,100v0Zm143-2.39,0,0ZM93.4,89.89Zm149.1-7.77Zm8.41-1.7ZM99.5,65.93h0Z"/></svg>