<svg id="Layer_1" data-name="Layer 1" xmlns="http://www.w3.org/2000/svg" viewBox="0 0 350 350"><defs><style>.cls-1{fill:#999;}.cls-2{fill:#f90;}</style></defs><title>M</title><path class="cls-1" d="M307.82,293l-15.15,11.19-12.18,18.44-9.22-6.91-5.6,8.56-7.24-.33-22.06.33-18.11-1.32-7.9,2.3-5.6-.33-6.91,2.3-4.28-3.29-6.26.33s-15.15-9.22-18.77-10.87-7.08,4.12-8.89,4.77-6.91-5.1-6.91-5.1,1.48-12.84,1.15-13.83-10-2.3-10-2.3l-23.54-15.15s-4.44,5.43-1.15,11.52,3.46,10.21,3.46,10.21l-4.77,5.6-9.38-4.61L100.22,301l-5.6-14.65-11.85-7.74,2.8-11,10.21-7.74L106,267l1.65,6.58L118,277.67l-2.8-11.36s8.23-.66,8.73-.66.82-2.63-.33-7.74-10.7-7.08-11.36-7.41-8.56-3.46-8.56-3.46L97.1,236.51l-9.88-.16-3.29-5.1,7.57-1.15,6.91.49,7.9-9.22L59.56,207.21l-17.78,9.22-18.44,10.7-10.54,2.63v-3.51l-5-1.54v-5.27l4.17-.22-.44-4.61L8.86,214l2.63-3.29s1.54-7.68.66-11.85-5.71-5.27-5.93-7.9.44-5.93,4.39-7.24,6.59-2,5.93-8.12-3.07-9.66,2.2-19.32,6.37-11.85,6.8-18a76.46,76.46,0,0,1,1.32-10.1s7,2.41,7-5.93-19.54-2.85-19.54-2.85l-3.29-3.51s-1.1-6.8.22-7.68,8.12,0,8.12,0l6.8-5.71,6.15,2.85L37,100l9,2,9.22-5.27,1.54-6.15-2.41-7.24s5-8.12,4.17-14.93l-.88-6.8,2.85-6.8s4.39,10.1,5.49,13.83,9.88,17.56,9.88,17.56l15.58-6.58,3.07-10.54s-.22-7.46-1.54-9.88S96,51.75,96,51.75l-9.44-20,23-9s3.73,3.29,8.56,7a18.14,18.14,0,0,0,10.1,3.73l14.27-2.19s-.66,4.17,1.32,7.24,8.56,3.07,8.56,3.07,11,4.39,12.07,5.27,13.83,5.49,20,4.39S199.6,49.12,202,43.19s8.56-12.73,8.56-12.73,12.51,3.73,17.78,1.1a43.16,43.16,0,0,0,9.22-6.37s10.76.22,11.85-.22,5.49,5,5.49,5-7,8.56-1.54,13.83,3.51,2.85,3.51,2.85L252.5,50s-7.9,1.1-7.9,4.39a10.47,10.47,0,0,1-.88,4.83s-3.51-5.93-9.22-5.71-9.22,5.27-9.22,5.27l-13.61-1.54s-7.24-1.32-11.19,2-8.56,7-8.56,7,3.07,9,4.39,10.54,3.73,4.83,4.61,4.83,4.61.44,5.27,0,4.17-13,4.17-13l4-2.41,2.41,8.56s5,1.54,8.78.44a25.58,25.58,0,0,1,8.78-.44l-10.54,6.58-13,15.36-6.37,5.49,3.29,2,7.68-.88,6.37,2.85,7.9,4.61,4.17,6.8-3.29,17.12,2,17.12s4.83,2.85,6.58,7.68,1.1,8.12-.66,8.34-13.17.44-13.17.44-5.49,10.32,1.1,15.15c7.68,4.61,12.51,4.39,12.51,4.39s4.39,5.49.22,8.78-13.39,7.9-13.39,7.9l-7.24,2.69s9.44,9.16,10.32,13.55a17.75,17.75,0,0,0,4,7.68l5.71-4.83s9.22-4.39,13.61.66a138.64,138.64,0,0,0,11.85,11.41s8.34,2.41,11,4,5.6,6.15,5.6,6.15l4.28,6.8,3.51-2,7.9,9.66-1.76,6.58,3.73,5.49,8.56-8.12,12.51.88s16.9,4,17.56,4.39,7,5.93,7,5.93-5.49,3.29-7.24,5.71a10.19,10.19,0,0,1-7.9,4.17c-3.07,0-11,1.76-11,1.76l-2.63,4-7,.88Z"/><path class="cls-2" d="M197.58,328.8l-4.46-3.43-6.17.32-.37-.23c-.15-.09-15.11-9.19-18.62-10.79-1.47-.67-3.2.84-5.15,2.74a8.67,8.67,0,0,1-2.67,2.08c-2.25.82-5.84-2.54-8.46-5.5l-.42-.47.07-.63c.6-5.21,1.16-11,1.19-12.87a63.39,63.39,0,0,0-8.87-1.7l-.31,0-22.63-14.56a9,9,0,0,0-.31,8.9c3.41,6.31,3.62,10.64,3.63,10.82l0,.55-5.85,6.86-10.37-5.09-8.71-3.66-5.65-14.79-12.32-8,3.17-12.49,11.42-8.66,11.49,8,1.6,6.4,7.14,2.83L113.43,265l1.66-.13c1.54-.12,5.87-.47,7.85-.61a22.52,22.52,0,0,0-.73-6.07c-.53-2.35-3.75-4.41-9.58-6.11a6.64,6.64,0,0,1-1-.35c-.48-.24-5.44-2.21-8.45-3.41l-.43-.17L96.3,237.92l-9.86-.17-4.89-7.58,9.89-1.51,6.36.45,6-7L59.7,208.73l-17.27,9L23.88,228.46l-12.49,3.12V227.3l-5-1.54V218.1l4-.21-.2-2.14-3.8-1,3.79-4.74c.27-1.48,1.31-7.58.6-11-.37-1.78-1.74-2.91-3.07-4S5,192.83,4.81,191c-.36-4.34,1.54-7.43,5.35-8.71l.38-.13c3.71-1.23,5.1-1.69,4.58-6.5-.13-1.19-.33-2.31-.52-3.38-.8-4.43-1.56-8.62,2.88-16.77,5.22-9.57,6.22-11.56,6.63-17.42a77.35,77.35,0,0,1,1.35-10.3l.34-1.55,1.5.51s2.24.73,3.68-.31c1-.7,1.47-2.14,1.47-4.28a2.35,2.35,0,0,0-.95-2c-2.93-2.22-11.85-.85-16.79.54l-.83.23L9.72,116.5l-.07-.43c-.82-5.11-.54-8.17.83-9.09s5.68-.64,8.47-.3l7-5.89,6,2.79,4.46-5.1,9.29,2,8.22-4.7,1.29-5.16-2.49-7.48.35-.57c0-.08,4.77-7.78,4-14l-.93-7.18,4.28-10.22,1.32,3c.18.42,4.44,10.22,5.55,14,.79,2.68,6.32,11.8,9.07,16.19l13.86-5.85L93,68.91c-.1-2.79-.54-7.52-1.36-9-1.44-2.64,1.27-6.6,2.65-8.35L84.63,31l25.27-9.87.65.57s3.76,3.31,8.49,7a16.82,16.82,0,0,0,9.14,3.43l16.06-2.47-.3,1.92s-.54,3.69,1.11,6.26c1.27,2,5.86,2.42,7.37,2.42h.27l.25.1c3.36,1.34,11.29,4.57,12.43,5.48,1.29.87,13.31,5.09,18.84,4.1l1.46-.25c5.84-1,13.1-2.26,15-7,2.48-6.09,8.56-12.86,8.82-13.15l.6-.66.86.25c3.33,1,12.84,3.14,16.74,1.19a42.09,42.09,0,0,0,8.88-6.13l.42-.4h.58A109.26,109.26,0,0,0,249,23.63c.65-.27,2-.81,7.05,5.5l.72.89-.73.89c-.06.08-6.12,7.62-1.65,11.91,1.09,1,1.85,1.75,2.37,2.23l.4-.3.86,1.05c.83,1,.9,1.85.2,2.49a1.2,1.2,0,0,1-1.46.3l-3.67,2.76-.36.05c-3.15.44-6.68,1.81-6.68,3A11.67,11.67,0,0,1,245,59.92L243.74,62l-1.24-2.09s-3.17-5.16-7.94-5-8.08,4.62-8.11,4.66l-.48.69-.84-.09-13.61-1.54c-.16,0-6.74-1.17-10.13,1.66-3,2.47-6.32,5.21-7.8,6.41,1.42,4.05,3.14,8.37,3.8,9.14.3.35.66.79,1,1.27a25.92,25.92,0,0,0,2.74,3.07l1,.06c.73.05,2.28.16,3.05.12.66-1.6,2.34-7.13,3.74-12.1l.15-.54,6-3.68,2.7,9.58c1.45.35,4.74,1,7.24.24a26.77,26.77,0,0,1,9.36-.49l3.92.51-13.7,8.56-13,15.35L206.84,102l1.2.72,7.59-.87,6.85,3.08,8.21,4.79,4.64,7.58L232,134.78,233.86,151a17.86,17.86,0,0,1,6.59,8c1.36,3.73,1.49,6.92.37,8.76a3,3,0,0,1-2.18,1.48c-1.55.19-9.61.37-12.44.43-1,2.27-3.55,9.18,1,12.57,7.11,4.25,11.62,4.15,11.67,4.15l.71,0,.45.55c.11.14,2.68,3.39,2.29,6.78a5.81,5.81,0,0,1-2.3,4c-4.24,3.34-13.25,7.87-13.63,8.06l-.14.06L221,207.77c2.85,2.93,8.41,9,9.15,12.71a15.73,15.73,0,0,0,2.75,5.94l4.9-4.09c.42-.2,10.25-4.79,15.29,1a134.74,134.74,0,0,0,11.48,11.07c1.55.46,8.5,2.55,11,4,2.85,1.66,5.75,6.1,6.08,6.6l3.57,5.67,3.37-1.9,9.12,11.14L296,266.6l2.43,3.57,7.8-7.4,13.36,1c17.15,4,17.76,4.42,18,4.59.68.45,5.65,4.73,7.16,6l1.48,1.28-1.68,1c-1.46.88-5.53,3.54-6.83,5.33a11.61,11.61,0,0,1-9,4.75c-2.43,0-8.29,1.21-10.11,1.6l-2.68,4-6.65.83-.13.63-15.38,11.37-12.87,19.48-9.21-6.91-5.21,8-8.05-.37-22,.33h-.06l-17.85-1.3-7.89,2.3-5.57-.33ZM194,322.49l4.1,3.15,6.46-2.15,5.63.33,7.91-2.31.25,0,18,1.31,22-.33,6.52.29,6-9.15,9.23,6.92,11.49-17.39,14.91-11,.31-1.56,7.39-.92,2.59-3.88.56-.12c.33-.07,8.09-1.79,11.28-1.79a8.81,8.81,0,0,0,6.76-3.59c1.29-1.77,4.16-3.83,6-5-2.43-2.08-4.79-4.08-5.36-4.52-1.35-.48-11-2.81-17.06-4.22l-11.78-.83-9.32,8.84-5-7.4,1.74-6.51-6.69-8.17-3.65,2.05-5-7.95c-.77-1.19-3.2-4.56-5.11-5.68s-8.38-3.16-10.66-3.81l-.29-.08-.23-.2a138.15,138.15,0,0,1-12-11.56c-3.36-3.87-10.62-.89-11.77-.38l-6.59,5.57-.92-1a19.09,19.09,0,0,1-4.3-8.37c-.58-2.88-6.39-9.39-9.91-12.82l-1.61-1.56,9.27-3.44c.84-.42,9.25-4.69,13.08-7.71a3,3,0,0,0,1.24-2.09,7.1,7.1,0,0,0-1.32-4.19c-1.76-.12-6.26-.83-12.49-4.57l-.11-.07c-7.49-5.49-1.76-16.49-1.51-17l.39-.74.83,0c3.15-.06,11.64-.26,13-.43.33-.17,1-2.22-.5-6.45s-5.93-6.92-6-6.95l-.6-.36-.08-.7-2-17.34,3.23-16.79-3.7-6-7.53-4.39-5.94-2.66-7.77.89L202,102.44l7.76-6.69,13-15.45,6.8-4.25a16.09,16.09,0,0,0-3.71.55c-4.09,1.2-9.37-.37-9.59-.44l-.74-.23-2.12-7.51-1.88,1.15c-3.52,12.49-4.12,12.89-4.6,13.21-.75.5-2,.52-5,.3-.48,0-.87-.06-1.08-.06-1.23,0-2.32-1.19-4.69-4.12-.37-.45-.71-.87-1-1.21-1.42-1.66-4.13-9.46-4.66-11l-.32-.94.77-.62s4.65-3.76,8.54-7c4.41-3.67,12-2.34,12.35-2.28l12.73,1.43c1.27-1.51,4.73-5,9.79-5.19a11.44,11.44,0,0,1,8.64,4,14.74,14.74,0,0,0,.09-1.71c0-4,6.65-5.4,8.76-5.74l2.48-1.86c-.56-.52-1.23-1.16-2-1.92-4.66-4.47-1.88-11.17.71-14.82a22.89,22.89,0,0,0-3.62-3.65,93.09,93.09,0,0,1-11.38.21A44.65,44.65,0,0,1,229,32.83c-4.95,2.47-14.77.11-17.94-.75-1.56,1.82-5.86,7.07-7.73,11.66-2.53,6.2-11,7.66-17.18,8.73l-1.45.25c-6.41,1.14-19.57-3.44-21.11-4.68-.71-.51-6.35-2.91-11.47-5-1.49,0-7.33-.39-9.47-3.72A12,12,0,0,1,141,33L128.27,35a19.49,19.49,0,0,1-11-4c-3.64-2.81-6.69-5.4-8-6.51L88.49,32.54,97.68,52l-.61.7c-1.77,2-3.38,5-2.9,5.85,1.44,2.64,1.69,9.72,1.71,10.51v.22l-3.32,11.4L75.25,88l-.64-1c-.91-1.43-8.92-14.11-10-17.92-.69-2.33-2.74-7.33-4.12-10.59L59,61.83l.83,6.43c.8,6.22-2.85,13.22-4,15.27l2.34,7L56.4,97.68l-10.22,5.84-8.71-1.91L32.71,107l-6.29-2.92-6.59,5.53-.62-.08a29,29,0,0,0-7-.25,19.65,19.65,0,0,0,.2,5.88l2.41,2.57c3.27-.84,14-3.23,18.43.16a5.17,5.17,0,0,1,2.07,4.29c0,3.11-.9,5.33-2.67,6.59a6.64,6.64,0,0,1-4.65,1,84.73,84.73,0,0,0-1,8.52c-.46,6.44-1.61,8.75-7,18.58-4,7.26-3.35,10.64-2.58,14.9.2,1.13.41,2.29.55,3.58.76,7.08-2.77,8.25-6.51,9.49l-.38.13c-.94.31-3.8,1.27-3.42,5.78.05.61.93,1.35,1.87,2.12,1.54,1.28,3.45,2.86,4,5.61.93,4.41-.59,12.1-.66,12.42l-.07.34-1.47,1.84,1.46.37.67,7.08-4.3.23v2.87l5,1.54v2.75l8.58-2.14,18.26-10.6,18.35-9.52,49.38,15L99,232.05l-7.47-.53-5.25.8,1.7,2.63,9.89.17,6.75,10.79c2,.78,7.62,3,8.24,3.34l.56.16c2.84.83,10.38,3,11.55,8.2.38,1.67,1.5,7.22.2,8.85a1.61,1.61,0,0,1-1.26.62c-.37,0-4,.29-6.95.52l3,12.32,24.34,15.66C154.63,297,155,298,155.24,298.79c.1.31.42,1.25-1,13.8,2,2.16,4.21,4,5,4.2a13.23,13.23,0,0,0,1.57-1.4c2-1.92,4.94-4.82,8.3-3.29s16.13,9.25,18.54,10.72ZM101.33,300,109,303.2l8.47,4.16,3.67-4.3a27.47,27.47,0,0,0-3.23-9.07c-3.7-6.85,1.1-12.84,1.3-13.09L120,280l-13.53-5.37-1.69-6.77-8.92-6.19-9,6.82L84.4,278l11.39,7.43Zm22.59-35.74h0ZM12.25,109.16,205.08,80.73Zm44.86-54.44-.06,0Zm0,0h0Z"/></svg>