<svg id="Layer_2" data-name="Layer 2" xmlns="http://www.w3.org/2000/svg" viewBox="0 0 350 350"><defs><style>.cls-1{fill:#999;}.cls-2{fill:#f90;}</style></defs><title>M_</title><path class="cls-1" d="M330.85,141.93l-.37-.38a3,3,0,0,1-2.08.37,4.53,4.53,0,0,1-2.78-.93,6.94,6.94,0,0,1-1.11-1.32,5.67,5.67,0,0,0-.37-.5l-.12-.13a2.11,2.11,0,0,0-.83-.56,2.63,2.63,0,0,1-1.71-2.91c0-.07,0-.14,0-.23a4.23,4.23,0,0,1,.66-2.39,16.74,16.74,0,0,1,1-1.54,5.32,5.32,0,0,1,.51-.56,3.92,3.92,0,0,0,.56-.63.55.55,0,0,0,.06-.11.9.9,0,0,0,0-.16,18,18,0,0,0-2.77-2.54,4.56,4.56,0,0,1-1.82-4,2.71,2.71,0,0,1,1.43-2.19,5.17,5.17,0,0,1-.45-1.08,7.8,7.8,0,0,1,.35-3.84,2.1,2.1,0,0,1,1-1.1c-.15-.21-.29-.43-.44-.66a5.85,5.85,0,0,0-1.58-1.81,2.65,2.65,0,0,1-1.41-3.1,8.49,8.49,0,0,1-1.21-.72c-2.41-1.69-1.94-4.62-1.71-6,0-.22.07-.41.09-.58a3.39,3.39,0,0,1-1.5-1.84c-.16-.33-.34-.71-.56-1.09a3.68,3.68,0,0,1-.38-2.93l-.12-.1c-.2-.17-.4-.35-.57-.52-1.33-1.33-.5-3.07-.19-3.72l.09-.19a3,3,0,0,1,.17-.33c0-.07-.07-.15-.12-.26a8.21,8.21,0,0,1-.8-2.69,12.25,12.25,0,0,0-.31-1.52h-.54c-.94-.05-3.2-.57-3.82-4.28a1.15,1.15,0,0,0-.11-.38l-.12-.09-.25-.18-.35-.19c-.54.06-1.36.15-1.95.16a6.15,6.15,0,0,1-.85.51c-1.39.7-2.82-.12-3.83-.75l0,0a8.5,8.5,0,0,1-1.49,1,3.59,3.59,0,0,1-2,.39h-.37a4,4,0,0,1-3.44-2.52,6.06,6.06,0,0,0-1-.74A31.75,31.75,0,0,1,287.38,77a66,66,0,0,1-4.83-5,24.6,24.6,0,0,0-1.81-1.93,12,12,0,0,1-1.47-1.49,2.82,2.82,0,0,1-2.35.61l-.76-.14-.32-.07a4.51,4.51,0,0,1-2,.52,3.48,3.48,0,0,1-.24.92l0,0c1.11,2.1.2,3.34-.76,4a3.19,3.19,0,0,1-4.47-.49l0,0c-.35-.16-.93-.39-1.22-.5-.13.14-.27.27-.44.41l-.19.17a2.47,2.47,0,0,1-3.61-.05c-.24-.18-.63-.44-1.35-.9a2.89,2.89,0,0,1-1.16-1.25,5.4,5.4,0,0,1-1.2-.91,3.09,3.09,0,0,1-.91-2,5,5,0,0,1-1.74.63,2.27,2.27,0,0,0-.84.3c-.63.35-.88.9-1.29,2.06l-.21.63a7.35,7.35,0,0,1-1.83,3.36,2.89,2.89,0,0,1-2,.83,3.11,3.11,0,0,0-.31.39,5.3,5.3,0,0,1-.36,1,3.44,3.44,0,0,1-2.54,2l-.51.15c-2,.68-3.35-1-4-1.8a5.25,5.25,0,0,0-.34-.41l-.44-.46a2.22,2.22,0,0,0-.9-.71c-1.54-.66-2-1.48-2.81-3.12l-.14-.26a18.52,18.52,0,0,0-1.61-2.41,10.08,10.08,0,0,1-1.28-2,5.2,5.2,0,0,0-1.13-1l-.37-.26-.12-.23a1.75,1.75,0,0,0-.87-.16,3,3,0,0,1-3.11-2.9c-.31-.17-.6-.35-.87-.52l-.57-.34-.46-.27a2.87,2.87,0,0,0-.38-.21c-1.7.16-2.64-1.28-3.19-2.13a5,5,0,0,0-.4-.58,7.41,7.41,0,0,0-1.35-1l-.26.11-.61.25c-1.35.54-3.22-.52-4-1.25l-.45-.08a19,19,0,0,1-2.47-.87l-.69-.27a6.22,6.22,0,0,1-3.24-3,2.11,2.11,0,0,1-1.82.65c0,.25-.11.5-.18.75a3.56,3.56,0,0,1-2.09,2.36,26,26,0,0,0-2.37,1.64,6.58,6.58,0,0,0-.66,1.67A9.45,9.45,0,0,1,203,63a9.94,9.94,0,0,1-3,3.06,42.3,42.3,0,0,1-4.12,2.33l-.28.15c-.38.2-.89.54-1.49.94a38.85,38.85,0,0,1-5.07,3,3.94,3.94,0,0,1-.71,3.3c-1.27,1.44-3.27,1-4.34.82l-.22,0a25.11,25.11,0,0,0-3,2,12.61,12.61,0,0,1-1.62,1.13,5.25,5.25,0,0,1-3,.53c-.3,0-.74-.13-1.16-.21l-.25-.05a11.66,11.66,0,0,0-1,.76,2.09,2.09,0,0,1,0,.6c-.14,1.33-1.5,2.2-2.51,2.67.06.14.11.28.16.43a2.46,2.46,0,0,1-.23,2.2,2.78,2.78,0,0,1-2.09,1.13c-.45.31-1.4,1-2.25,1.66-.58.45-1.35,1-2,1.45l-1.11.77c-.6.44-2.14,1.41-3.8,2.45l-.82.52a5,5,0,0,1-2.15.7,4.56,4.56,0,0,0-.74.14,8.17,8.17,0,0,0-1.15.48,7.06,7.06,0,0,1-1.31.53c-.26.11-1.27.82-1.7,1.13l-.31.22a15.62,15.62,0,0,1-3.13,1.9c-.42.17-1.11.39-1.78.6-.46.15-.92.29-1.24.41s-1.3.63-2.15,1.06c-1.48.75-3.32,1.68-4.63,2.23a50.05,50.05,0,0,0-6.4,4c.57.79,1.39,2,2.59,3.69l1.09,1.57L122.05,122l-.91-1.72a7,7,0,0,0-.94-1.4,5.35,5.35,0,0,1-1.23-2l-.15-.35c-.7-.33-2.49-1.13-4.08-1.83l-.51-.22-.79-1.25a4.12,4.12,0,0,1-.51-1.79,3.55,3.55,0,0,0-1.08-2.55c-3.69.91-9.06,4.85-11.43,6.59-.59.43-1,.75-1.29.92-2.75,1.79-4.88,2.78-6.51,3-.27,0-.28.05-.49.35a2.42,2.42,0,0,1-2.1,1.25c-.28.21-.73.63-1.08,1s-.68.62-1.05.94c5.94,14.29,12.29,27.95,22.36,40.21,1.08,1.31,1,4-1.13,4.29-12.19,1.92-33.25,4.86-37.84,18.51-.56,1.67-3,2.72-4.29,1.13-5.52-6.68-18.67-2-25.28.43-8.48,3.08-17.2,7.41-22.6,14.91-9.18,12.75,4.18,20.61,13.59,29.16A23,23,0,0,1,38,233.76l5-1.42.86-.24.72.54a4.2,4.2,0,0,1,1.58,3.26,7.78,7.78,0,0,0,.41,2.54,9.56,9.56,0,0,1,.46,2.26c0,.36.09.74.16,1.13,0,.11,0,.22.05.33l5.42-1.08.54-12.36,1.69-.05a14.43,14.43,0,0,0,3.7-.49c.47-.28,1.74-.84,4.35-2,2.81-1.22,7.5-3.26,8.33-3.87,1.62-1.19,10.23-6.72,10.59-7l.6-.38.7.12c.43.07,10.49,1.82,13.07,2.47,2.88.72,16,6.29,16.08,6.35,1.32.57,5,1.87,5.55,2.06a1.21,1.21,0,0,0,.52-.3,18.85,18.85,0,0,0,1.95-2c.38-.43.75-.83,1.11-1.2a10.11,10.11,0,0,1,2.38-1.87l1.09-.71a20.59,20.59,0,0,0,3.15-2.46,13.29,13.29,0,0,1,2.54-3.17h0c7.23,8.39,4.19,21.43,7.29,31.75a8.74,8.74,0,0,0-.16,1.13,14.69,14.69,0,0,0,.79,3.43,13.55,13.55,0,0,0,.11,3.49,1.62,1.62,0,0,0-.79.65,13.64,13.64,0,0,0-.81,1.6c-.83.19-1.69.34-2.51.53-2.07.49-3.7.34-5.55,1.63-3.64,2.53-5.71,7.86-6.61,12s-.07,7.59,3.72,9.85c2.73,1.63,5.79,2.47,8.48,4.25a34.94,34.94,0,0,1,9.81,10,2,2,0,0,0,3.32,0c.76-1.3,5.58-1,7-1.8,2.09-1.16,2.9-3.45,4.2-5.31,5.12-7.31,12.54-7.69,20-10.92,6-2.6,10.89-7.5,15.21-12.32a33.49,33.49,0,0,0,3.76-4.86l.48-.34-.13-.26a12.35,12.35,0,0,0,1.47-8.89c-.42-2-3.05-1.64-3.64-.06a7.26,7.26,0,0,1-.65-.6,5.45,5.45,0,0,1-1.25-2.53l0-.06-.37-.28c-.28-.21-.57-.43-.85-.67-1.74-1.55-.34-4,.12-4.81.89-1.55,3.39-1.62,3.42-1.62H197a3.55,3.55,0,0,1,1.69-1.7,5.39,5.39,0,0,0,.58-.38,2.17,2.17,0,0,1,1.94-.59c.46-.33,1.08-.81,1.5-1.15l1-.79,0-.07a2.14,2.14,0,0,1,.29-2.12,2.25,2.25,0,0,1,2.11-.73h.1c.06-.07.24-.26.37-.41a13.35,13.35,0,0,1,1.06-1l.28-.25c-.1-1.3,1.09-2.09,1.77-2.54a6,6,0,0,0,1-.75l.35-.4a2.51,2.51,0,0,1,2.15-1.11,2.09,2.09,0,0,1,1.43.81,3.84,3.84,0,0,1,1.06,0,2.74,2.74,0,0,1,1.55-.79c2-.36,3.16,1.11,3.93,2.07.18.23.37.46.58.7.44.5.82,1,1.22,1.57s.8,1.09,1.32,1.71a3,3,0,0,1,2.26,0l.05,0,.89-.13,1.43-.2a4.54,4.54,0,0,1,.35-.45,12.59,12.59,0,0,1,2.47-2.17l0,0-.07-.13a25.6,25.6,0,0,0-3.14-3.59l-.71-.71.2-1c.25-1.1,1.17-1.44,2.33-1.86.44-.16.94-.34,1.37-.54,1.34-.63,6.74-2.77,7.4-3a.83.83,0,0,0,.21-.33l.16-.34a2.17,2.17,0,0,1,1.37-1.16,2.43,2.43,0,0,1,2,.39c.26-.16.59-.38.81-.54.43-.29.86-.59,1.25-.81a3.8,3.8,0,0,1,4.24.2l.64.37a13.79,13.79,0,0,1,2.39,1.57l.44.42c0-.13.06-.28.1-.46a2.94,2.94,0,0,1,2.53-2.44l.21-.05a2.45,2.45,0,0,0,.48-.45,1.59,1.59,0,0,0-.33-.22,6.71,6.71,0,0,1-2.46-1.74,10.65,10.65,0,0,0-.94-.81,4.14,4.14,0,0,1-2.12-2.84c-.2-1.24.58-2.24,3.21-4.12a3.69,3.69,0,0,1,2.12-.72,3,3,0,0,1,.72-.7,2.88,2.88,0,0,1,1.89-.59.63.63,0,0,0,.31-.05c.41-.15.72-.24,1-.31l.31-.1.7-.56.87.26c.54.13,1.12.4,1.93,1.91a12.88,12.88,0,0,0,2.85-1,10,10,0,0,0,2.26-2.1,7.42,7.42,0,0,1,2.6-2c.18-.09.35-.18.52-.28s1-.79,1.68-1.31a36.16,36.16,0,0,1,3.39-2.54l.15-.1c0-.15,0-.26,0-.36.16-1.11,1.09-1.77,2.49-2.77.42-.3.88-.62,1.29-1,.84-.67,2.09-1.88,3-2.77.46-.45.85-.83,1.09-1a3.24,3.24,0,0,1,2.75-.73,1.68,1.68,0,0,0,.31,0,7.79,7.79,0,0,1,1.37-.17l2.88-2.25s2.19-1.71,3.23-2.75a38.6,38.6,0,0,1,4.57-3.68,8.88,8.88,0,0,0,1-1.65,5.5,5.5,0,0,1,2.06-2.65,5.08,5.08,0,0,0,2.71-3.4c.62-3.11,3.42-5.5,5.09-6.93l.5-.43a11.53,11.53,0,0,1,3.63-2.07l.53-.22a46.37,46.37,0,0,0,5.16-3.4,13,13,0,0,0,2.28-2.05c.21-.23.4-.44.62-.66a18.88,18.88,0,0,0,1.34-1.71,6.44,6.44,0,0,1,1.19-1.43,3.38,3.38,0,0,1,1.57-.54,4.86,4.86,0,0,0,.67-.14,6.54,6.54,0,0,1,.94-.47,4.53,4.53,0,0,0,.94-.49,8.31,8.31,0,0,1,3.4-1.37,2.15,2.15,0,0,0,.82-.61,8.55,8.55,0,0,1-.29-.83C333.41,144.53,331.55,142.64,330.85,141.93Z"/><path class="cls-2" d="M146.07,297a3.53,3.53,0,0,1-2.9-1.56,33.66,33.66,0,0,0-9.42-9.58,28.67,28.67,0,0,0-4.36-2.22,36,36,0,0,1-4.06-2c-4-2.41-5.5-6.23-4.38-11.37.61-2.79,2.52-9.64,7.19-12.88a9.63,9.63,0,0,1,4.43-1.55c.51-.08,1-.16,1.6-.29s.92-.2,1.38-.3l.46-.09c.19-.4.38-.76.59-1.1a2.78,2.78,0,0,1,.49-.6,14.66,14.66,0,0,1,0-2.66c-.83-2.72-.78-3.43-.77-3.68a9.6,9.6,0,0,1,.12-1,60.76,60.76,0,0,1-1.72-12.31c-.46-6.47-.9-12.61-4.24-17.37a16.53,16.53,0,0,0-1.22,1.76l-.22.28a21.91,21.91,0,0,1-3.37,2.63l-1.09.71a8.8,8.8,0,0,0-2.15,1.68c-.35.35-.7.74-1.06,1.14a20.21,20.21,0,0,1-2.1,2.12,2.59,2.59,0,0,1-1.18.6l-.37.06-.35-.12c-1-.35-4.37-1.54-5.64-2.09-2-.86-13.36-5.65-15.87-6.28s-11.88-2.26-13-2.44l-.18,0-.13.08c-.09.06-8.92,5.73-10.52,6.91a76.06,76.06,0,0,1-8.48,4l-.12.05c-2.11.92-3.78,1.64-4.19,1.89l-.09,0a15.1,15.1,0,0,1-4.29.64H54.5L54,242.24l-8,1.6-.26-1.77c-.07-.38-.12-.76-.16-1.12a8.8,8.8,0,0,0-.39-2,9.18,9.18,0,0,1-.5-3,2.78,2.78,0,0,0-1-2.13l-.16-.12-.19.05-5,1.42-.58.17-.52-.3a21.61,21.61,0,0,0-4.93-2l-.32-.09-.25-.22c-1.34-1.21-2.79-2.44-4.19-3.63C19,221.79,9.33,213.59,18,201.61c6.08-8.44,16.19-12.84,23.27-15.41,6.7-2.44,20.65-7.51,26.86,0a.69.69,0,0,0,.73.25,1.55,1.55,0,0,0,1.12-.93c4.74-14.11,25.55-17.36,38-19.3l1-.16a.58.58,0,0,0,.52-.41,1.76,1.76,0,0,0-.27-1.58c-10.68-13-17.25-27.76-22.57-40.56l-.39-.95.78-.67c.36-.31.7-.62,1-.91s.87-.8,1.19-1l.38-.29H90c.21,0,.48,0,.92-.63a1.87,1.87,0,0,1,1.44-1,17.34,17.34,0,0,0,6-2.82c.24-.16.66-.46,1.22-.87,2.59-1.9,8-5.85,11.93-6.82l.72-.18.56.5a4.93,4.93,0,0,1,1.55,3.44,3,3,0,0,0,.3,1.2l.56.88.11,0c1.61.71,3.41,1.51,4.12,1.85l.47.22.21.47.13.3,0,.09a4.23,4.23,0,0,0,.87,1.46,8.49,8.49,0,0,1,1.25,1.79l.2.38,11.54-7.17-.24-.35c-1.2-1.73-2-2.89-2.58-3.67l-.83-1.15,1.15-.83a51.78,51.78,0,0,1,6.68-4.15c1.27-.53,3.16-1.49,4.53-2.19l.14-.07c1.26-.64,1.88-.95,2.16-1.05s.77-.26,1.24-.41,1.35-.43,1.74-.59A18.53,18.53,0,0,0,151,96.64l.31-.22a13.28,13.28,0,0,1,2-1.28l.21-.07a5.91,5.91,0,0,0,1-.43,9.2,9.2,0,0,1,1.36-.57,5.5,5.5,0,0,1,.9-.18,3.72,3.72,0,0,0,1.63-.5l.83-.52c1.64-1,3.16-2,3.72-2.39l1-.73.09-.07c.67-.46,1.42-1,2-1.4.9-.69,1.86-1.4,2.31-1.7l.29-.2.35,0a1.3,1.3,0,0,0,1.07-.51,1.06,1.06,0,0,0,.07-1c0-.13-.08-.24-.13-.36l-.49-1.25,1.21-.56c1-.47,1.64-1,1.69-1.53a.65.65,0,0,0,0-.2l-.15-.78.59-.53A13.21,13.21,0,0,1,174,78.8l.51-.36.84.18c.39.08.79.16,1.06.2a3.83,3.83,0,0,0,2.21-.39,13.28,13.28,0,0,0,1.41-1,22,22,0,0,1,3.27-2.21l.41-.18.67.13c1.15.23,2.32.39,3-.37a2.54,2.54,0,0,0,.37-2.13l-.17-1,.95-.46a37.2,37.2,0,0,0,4.88-2.88,19.15,19.15,0,0,1,1.64-1l.28-.15a42.9,42.9,0,0,0,3.94-2.22,8.4,8.4,0,0,0,2.53-2.55,8.41,8.41,0,0,0,.42-1.2,5.39,5.39,0,0,1,1-2.27l.1-.09A27.31,27.31,0,0,1,205.81,57l.24-.12a2.15,2.15,0,0,0,1.25-1.42c.06-.22.11-.43.15-.63l.24-1.23,1.25.09c.47,0,.6-.12.67-.19L210.94,52l1,1.75a4.78,4.78,0,0,0,2.51,2.31l.7.28a18.75,18.75,0,0,0,2.25.8l.31.05.47.05.34.32c.67.62,2,1.2,2.52,1l1.5-.62.61.35a8.87,8.87,0,0,1,1.69,1.23,5.17,5.17,0,0,1,.47.65l.07.11c.66,1,1.16,1.55,1.87,1.5l.25,0,.24.06a2.72,2.72,0,0,1,.77.38l.39.23.58.34c.32.2.58.36.86.51l.63.34.1.71c.16,1.18.67,1.68,1.71,1.68a3.14,3.14,0,0,1,1.58.35l.36.21.24.36a6.46,6.46,0,0,1,1.56,1.54l.06.13a9.31,9.31,0,0,0,1.1,1.67,19.56,19.56,0,0,1,1.74,2.61l.13.26c.84,1.63,1.08,2,2.12,2.47A3.54,3.54,0,0,1,243,76.66l.4.42a5.25,5.25,0,0,1,.38.44l-1,1,1.11-.88c.86,1.08,1.54,1.64,2.43,1.34l.56-.17a2.09,2.09,0,0,0,1.66-1.25,4,4,0,0,0,.27-.78l0-.2.11-.18a3.71,3.71,0,0,1,.45-.59l.41-.47.62,0a1.49,1.49,0,0,0,1-.46,6.17,6.17,0,0,0,1.44-2.76c.09-.27.15-.46.22-.66a4.55,4.55,0,0,1,1.93-2.82,3.65,3.65,0,0,1,1.26-.45,3.62,3.62,0,0,0,1.3-.46l2-1.13.17,2.25a1.68,1.68,0,0,0,.49,1.14,4,4,0,0,0,.9.68l.41.23.19.43a1.56,1.56,0,0,0,.63.63c.78.5,1.17.76,1.44,1l.13.11a1.07,1.07,0,0,0,1.67,0l.2-.18c.13-.11.24-.21.34-.32l.66-.69.89.35c.3.12.92.36,1.28.53l.24.11.18.19a1.83,1.83,0,0,0,2.67.34c.64-.45.95-1,.35-2.15l-.39-.56.3-.72a2,2,0,0,0,.14-.55l.14-1.18,1.18-.07a3.08,3.08,0,0,0,1.37-.35l.44-.24.49.08.25.05.11,0,.71.13a1.41,1.41,0,0,0,1.21-.3l1.07-.89.91,1.06A10.78,10.78,0,0,0,281.63,69a22.47,22.47,0,0,1,2,2.08A65,65,0,0,0,288.33,76a30.4,30.4,0,0,0,3.78,3c.89.6,1.23.85,1.44,1.24.46.86,1,1.77,2.19,1.77h.43a2.26,2.26,0,0,0,1.37-.26,7.41,7.41,0,0,0,1.23-.8l.79-.69.86.59c1,.64,1.82,1,2.44.69a4.77,4.77,0,0,0,.66-.4l.36-.25h.44c.41,0,1-.06,1.8-.15l.42,0,.38.18a4.76,4.76,0,0,1,.53.29l.26.19.24.18.15.13.11.17a2.39,2.39,0,0,1,.31.92c.43,2.59,1.75,3,2.5,3.09h.43l1,0,.4,1.25a14.33,14.33,0,0,1,.29,1.45,6.9,6.9,0,0,0,.68,2.33c.08.15.13.27.17.37l.25.63-.33.59a1.61,1.61,0,0,0-.09.18l-.11.23c-.52,1.09-.54,1.68-.1,2.13.15.15.32.3.49.45l.79.65-.22.87a2.26,2.26,0,0,0,.23,1.84c.24.4.44.81.61,1.16s.52,1.07.8,1.19l.95.4-.09,1c0,.15,0,.33-.07.52l0,.17c-.27,1.67-.42,3.55,1.13,4.64a7.16,7.16,0,0,0,1,.6l1.12.53-.38,1.18c-.18.57,0,.9.87,1.5a7.15,7.15,0,0,1,2,2.2c.14.22.27.42.41.6l1,1.33-1.45.75a.69.69,0,0,0-.38.38,6.54,6.54,0,0,0-.29,2.93,3.74,3.74,0,0,0,.33.78l.6,1.11-1,.72c-.72.5-.82.79-.82,1a3.22,3.22,0,0,0,1.23,2.8,19.15,19.15,0,0,1,3.09,2.85l.21.28.05.35a1.73,1.73,0,0,1,0,.43l-.06.36a1.88,1.88,0,0,1-.24.49,5.29,5.29,0,0,1-.75.86,3.85,3.85,0,0,0-.37.39,15.83,15.83,0,0,0-.88,1.4,2.85,2.85,0,0,0-.48,1.68,3.09,3.09,0,0,1,0,.31,1.27,1.27,0,0,0,.89,1.54,3.47,3.47,0,0,1,1.25.86l.12.13a5.49,5.49,0,0,1,.45.58l.07.1a6,6,0,0,0,.86,1,3.07,3.07,0,0,0,1.9.6h.15a1.64,1.64,0,0,0,1.15-.17l1-.59,1.16,1.19-1,1,1-1c2,2,2.9,3.19,3.17,4.07a7,7,0,0,0,.24.69l.35.83-.6.67a3.34,3.34,0,0,1-1.59,1.05,7,7,0,0,0-2.85,1.13,5.73,5.73,0,0,1-1.21.64,5.72,5.72,0,0,0-.74.36l-.22.12a4.67,4.67,0,0,1-1,.23,2.29,2.29,0,0,0-1,.28,6.86,6.86,0,0,0-.89,1.13,18.53,18.53,0,0,1-1.48,1.88c-.2.2-.39.41-.58.62a14.32,14.32,0,0,1-2.49,2.24,45.84,45.84,0,0,1-5.44,3.56l-.57.23a10.17,10.17,0,0,0-3.21,1.82l-.52.45c-1.54,1.32-4.11,3.52-4.63,6.14a6.52,6.52,0,0,1-3.47,4.39,4.79,4.79,0,0,0-1.43,2,6.82,6.82,0,0,1-1.33,2.09l-.11.08a37.7,37.7,0,0,0-4.37,3.51c-1.09,1.09-3.32,2.84-3.41,2.91l-3.17,2.48-.44,0a6.57,6.57,0,0,0-1.11.13l-.12,0a2.22,2.22,0,0,1-.68,0,1.86,1.86,0,0,0-1.66.37c-.23.2-.6.57-1,1-1.11,1.08-2.26,2.2-3.11,2.87-.41.32-.85.63-1.26.93l-.09.06c-1.21.86-1.84,1.33-1.91,1.82,0,.07,0,.14,0,.24l0,.69-.57.39-.23.15a35.87,35.87,0,0,0-3.24,2.43l-.12.09c-.87.7-1.42,1.13-1.69,1.3a6.38,6.38,0,0,1-.57.32,6.14,6.14,0,0,0-2.21,1.68,11.36,11.36,0,0,1-2.59,2.39,13.73,13.73,0,0,1-3.35,1.15l-1,.19-.49-.91c-.59-1.1-.88-1.17-1-1.2l-.23-.07-.27.22-.18.08-.39.13c-.3.09-.59.17-1,.31a2,2,0,0,1-.81.14,1.49,1.49,0,0,0-1.05.34,1.65,1.65,0,0,0-.39.38l-.42.57h-.71a2.28,2.28,0,0,0-1.32.46c-2.43,1.73-2.7,2.34-2.64,2.73a2.73,2.73,0,0,0,1.39,1.83,7.66,7.66,0,0,1,1.2,1,6.33,6.33,0,0,0,1.89,1.44l.19.07a2.82,2.82,0,0,1,.67.44l1.16,1-1,1.1a3.6,3.6,0,0,1-.79.7l-.28.13-.34.09c-.67.15-1.28.35-1.46,1.32,0,.2-.07.37-.11.53l-.58,2.46-1.79-1.78-.38-.36a12.73,12.73,0,0,0-2.14-1.4l-.68-.39a2.41,2.41,0,0,0-2.82-.18c-.36.2-.75.47-1.14.74-.24.17-.59.41-.87.58l-.75.46-.74-.46a1,1,0,0,0-.85-.23.78.78,0,0,0-.47.42l-.14.29a2,2,0,0,1-.74.94l-.26.13c-.63.24-6,2.38-7.31,3-.46.22-1,.4-1.4.56-1.22.44-1.46.58-1.53.87l0,.25.17.17a26.58,26.58,0,0,1,3.39,3.94l0,.08.78,1.12-1.2.81a11.16,11.16,0,0,0-2.19,1.93,3.12,3.12,0,0,0-.24.32l-.36.53-.64.08-1.39.2-.15,0-.79.11-.29,0-.28-.08a1.8,1.8,0,0,0-1.32-.06l-1,.45-.7-.83c-.56-.67-1-1.26-1.38-1.79s-.75-1-1.14-1.47c-.23-.26-.44-.52-.63-.76-.83-1-1.48-1.76-2.57-1.56a1.36,1.36,0,0,0-.78.38l-.51.53-.73-.12a2.41,2.41,0,0,0-.67,0l-.77.09-.49-.6a.67.67,0,0,0-.48-.29c-.29,0-.51.13-.92.62l-.39.45a6.75,6.75,0,0,1-1.22,1c-.59.39-1.19.82-1.16,1.26l.05.68-.49.47-.32.29a11.82,11.82,0,0,0-1,.94l-.3.33-.49.58-.78-.06c-.54-.06-.78,0-.93.2s-.22.28-.05.79l.32,1-.79.68-.81.63-.18.14c-.43.34-1.07.85-1.55,1.19l-.55.39-.65-.18c-.17-.05-.43.14-.68.34a5.82,5.82,0,0,1-.66.43l-.09.05c-.35.21-.94.56-1.07,1l-.33.95h-1.56c-.53,0-1.82.27-2.19.91-1.16,2-.79,2.71-.41,3s.51.41.75.6l.11.08.31.24.37.3.11.46a5,5,0,0,0,.52,1.4,3.52,3.52,0,0,1,2.26-.61,3,3,0,0,1,2.79,2.5,13.64,13.64,0,0,1-1.27,9.19l.35.69-1.23.89a36.36,36.36,0,0,1-3.76,4.82c-4.5,5-9.51,10-15.71,12.68-2.07.89-4.12,1.57-6.09,2.22-5.3,1.75-9.87,3.25-13.35,8.22-.33.47-.63,1-.95,1.52a10.37,10.37,0,0,1-3.72,4.21,10.33,10.33,0,0,1-3.49.78,12.15,12.15,0,0,0-3,.59,3.2,3.2,0,0,1-2.66,1.54Zm2.83-1.64h0Zm-18.15-83,.91,1c4.83,5.61,5.36,13,5.87,20.24a56.81,56.81,0,0,0,1.7,12l.1.34-.07.35a7.27,7.27,0,0,0-.13,1,16.35,16.35,0,0,0,.73,2.91l.09.28,0,.29a12.17,12.17,0,0,0,.1,3.13l.17,1.06-1,.45a.75.75,0,0,0-.17.09,12.69,12.69,0,0,0-.72,1.44l-.29.66-.7.16-1.21.25-1.29.28c-.65.15-1.24.25-1.81.33a7.05,7.05,0,0,0-3.26,1.07c-2.67,1.85-4.92,6-6,11.16-.86,4,.08,6.55,3.06,8.34a33.32,33.32,0,0,0,3.75,1.83,31.3,31.3,0,0,1,4.79,2.45,36.43,36.43,0,0,1,10.21,10.36.68.68,0,0,0,.56.3.4.4,0,0,0,.36-.23c.8-1.37,2.87-1.62,5.07-1.89a11.73,11.73,0,0,0,2.45-.44,8,8,0,0,0,2.66-3.17c.33-.56.68-1.15,1.07-1.71,4-5.73,9.25-7.46,14.78-9.28,1.92-.63,3.91-1.29,5.86-2.13,6-2.57,10.73-7.53,14.72-12a32.72,32.72,0,0,0,3.6-4.65l.32-.56a10.93,10.93,0,0,0,1.33-7.91c0-.24-.12-.24-.22-.25a.74.74,0,0,0-.69.39l-.7,1.89-1.54-1.29a8.66,8.66,0,0,1-.79-.73,6.53,6.53,0,0,1-1.47-2.72c-.3-.22-.61-.46-.91-.72-1.19-1.06-2.18-3.05-.17-6.57,1.09-1.91,3.52-2.26,4.36-2.32a5.87,5.87,0,0,1,1.8-1.52l.09-.05a3,3,0,0,0,.34-.21,3.63,3.63,0,0,1,2.45-1l1-.78.19-.15.13-.1a3.43,3.43,0,0,1,.74-2.51,3.39,3.39,0,0,1,2.72-1.28c.27-.29.57-.59.92-.91a4.75,4.75,0,0,1,2.38-3.06,6.58,6.58,0,0,0,.72-.52l.31-.36a3.89,3.89,0,0,1,3.36-1.61,3.46,3.46,0,0,1,1.86.77h0a4.28,4.28,0,0,1,1.77-.72c2.82-.5,4.47,1.57,5.26,2.57.18.23.36.45.55.67.48.54.87,1.08,1.29,1.64.23.31.46.63.72,1a4.75,4.75,0,0,1,1.91.15l.41-.06.15,0,.87-.13.05-.06a14.15,14.15,0,0,1,1.58-1.54c-.53-.63-1.35-1.53-2.27-2.45l-1.25-1.24.35-1.77c.42-1.9,2-2.46,3.24-2.92.46-.17.88-.32,1.25-.49,1.25-.59,5.57-2.3,7-2.88l.08-.17a3.55,3.55,0,0,1,4.51-1.76l.1-.07c.51-.35.94-.64,1.36-.88a5.18,5.18,0,0,1,5.67.22l.61.35c.45.25,1,.54,1.46.87a3.89,3.89,0,0,1,1.12-1.16c-.3-.25-.59-.53-.89-.8s-.57-.53-.72-.65a5.58,5.58,0,0,1-2.76-3.81c-.38-2.32,1.49-3.87,3.79-5.51a5.16,5.16,0,0,1,2.25-.93,4.57,4.57,0,0,1,.6-.5,4.31,4.31,0,0,1,2.62-.85c.41-.14.71-.23,1-.31h0l1.07-.85,1.57.47a3.67,3.67,0,0,1,2.2,1.64,10.35,10.35,0,0,0,1.43-.52,8.6,8.6,0,0,0,1.92-1.8,8.76,8.76,0,0,1,3-2.37c.18-.09.3-.15.4-.22s1-.75,1.44-1.13l.12-.09c1.33-1.07,2.33-1.86,3.11-2.38.34-1.53,1.59-2.42,3-3.44l.09-.07c.38-.27.78-.55,1.15-.84.8-.63,2.1-1.91,2.88-2.67.48-.47.88-.86,1.13-1.08a4.64,4.64,0,0,1,3.84-1.08h.06a8.33,8.33,0,0,1,.94-.12l2.54-2c.32-.25,2.22-1.75,3.1-2.64a39.38,39.38,0,0,1,4.61-3.74c.13-.19.36-.6.68-1.24a6.67,6.67,0,0,1,2.69-3.27,3.65,3.65,0,0,0,2-2.41c.71-3.58,3.74-6.18,5.55-7.73l.51-.44a12.9,12.9,0,0,1,4-2.32l.5-.2a47.59,47.59,0,0,0,4.88-3.25,11.54,11.54,0,0,0,2.06-1.86c.23-.25.44-.48.67-.71s.89-1.13,1.19-1.54a7.46,7.46,0,0,1,1.49-1.73,4.7,4.7,0,0,1,2.18-.81l.35-.06a9.3,9.3,0,0,1,1-.45,3.41,3.41,0,0,0,.66-.33,9.09,9.09,0,0,1,3.29-1.47,17.56,17.56,0,0,0-2.07-2.39,4.65,4.65,0,0,1-1.85.1,5.82,5.82,0,0,1-3.57-1.25,8.13,8.13,0,0,1-1.36-1.59l-.08-.11c-.07-.1-.13-.19-.18-.25L323,140a.92.92,0,0,0-.41-.27,4.05,4.05,0,0,1-2.53-4.33v-.11a5.58,5.58,0,0,1,.85-3.08,19,19,0,0,1,1.08-1.69,5,5,0,0,1,.42-.48,18.68,18.68,0,0,0-1.77-1.51,6,6,0,0,1-2.42-5.11,3.67,3.67,0,0,1,1.12-2.6q-.05-.15-.09-.3a9.28,9.28,0,0,1,.39-4.72,3.54,3.54,0,0,1,.49-.85,3.63,3.63,0,0,0-1-1,4.32,4.32,0,0,1-2.15-3.51l-.47-.32c-2.94-2.07-2.6-5.42-2.35-7.11a6.12,6.12,0,0,1-1.24-1.88c-.16-.33-.31-.66-.5-1a5,5,0,0,1-.7-3.12l-.16-.15c-1.34-1.33-1.5-3.1-.5-5.25a9.8,9.8,0,0,1-.75-2.73l-.07-.4c-1.29-.22-3.73-1.15-4.53-5l-1,.08a7.68,7.68,0,0,1-.67.38,4.69,4.69,0,0,1-4.38-.33,7.11,7.11,0,0,1-1,.59,5,5,0,0,1-2.7.51h-.28a5.24,5.24,0,0,1-4.58-3.06l-.64-.44A33,33,0,0,1,286.42,78a67,67,0,0,1-4.92-5.11c-.62-.7-1.39-1.56-1.66-1.78a9.81,9.81,0,0,1-.86-.8,4.38,4.38,0,0,1-2.29.21l-.66-.12a5.49,5.49,0,0,1-.73.25,4.07,4.07,0,0,1-1.6,4.92,4.55,4.55,0,0,1-6.1-.47l-.12,0a3.88,3.88,0,0,1-5.45,0c-.2-.15-.57-.39-1.19-.78a4.5,4.5,0,0,1-1.47-1.44,6.77,6.77,0,0,1-1.14-.92,4.43,4.43,0,0,1-.83-1.13l-.55.12a1,1,0,0,0-.42.14c-.16.09-.29.29-.64,1.29l-.18.54a8.72,8.72,0,0,1-2.24,4,4.46,4.46,0,0,1-2,1.09,7.28,7.28,0,0,1-.28.71,4.84,4.84,0,0,1-3.45,2.79l-.46.13c-2.93,1-4.82-1.36-5.54-2.25l-.08-.09a2.36,2.36,0,0,0-.17-.2l-.46-.49c-.3-.33-.3-.33-.44-.39-2-.86-2.64-2.08-3.51-3.77l-.13-.26A17.53,17.53,0,0,0,235.37,72a12.33,12.33,0,0,1-1.38-2.1,5.78,5.78,0,0,0-.72-.62l-.57-.4a4.26,4.26,0,0,1-4.36-3.42l-.34-.21-.52-.32-.5-.3c-2.25-.05-3.48-2-4-2.79l-.08-.12a2.36,2.36,0,0,0-.2-.29,4.3,4.3,0,0,0-.42-.31l-.2.08c-1.81.72-3.95-.25-5.17-1.22l-.14,0a19.6,19.6,0,0,1-2.68-.93l-.69-.27a7.31,7.31,0,0,1-3.16-2.36l-.25.07a5,5,0,0,1-2.75,3c-.67.42-1.47,1-1.94,1.33a11.79,11.79,0,0,0-.38,1.13,10.72,10.72,0,0,1-.6,1.65,10.73,10.73,0,0,1-3.4,3.58,41.59,41.59,0,0,1-4.29,2.43l-.28.15c-.32.17-.82.5-1.36.87a42.11,42.11,0,0,1-4.37,2.65,4.83,4.83,0,0,1-1.14,3.4c-1.68,1.9-4.12,1.58-5.39,1.33-.47.29-1.26.86-2.36,1.68A12.87,12.87,0,0,1,179.85,81a6.63,6.63,0,0,1-3.82.67l-.77-.13A4.43,4.43,0,0,1,173,84.69a3.79,3.79,0,0,1-.58,2.71,4,4,0,0,1-2.74,1.7c-.48.34-1.23.9-1.92,1.42s-1.41,1-2.11,1.5l-.1.07-1,.68c-.63.46-2.13,1.41-3.88,2.5l-.82.52a6.34,6.34,0,0,1-2.7.91,3.29,3.29,0,0,0-.53.1,7,7,0,0,0-.91.39,9.28,9.28,0,0,1-1.45.6c-.12.08-.5.33-1.38.95l-.33.23a16.33,16.33,0,0,1-3.43,2.06c-.44.18-1.11.39-1.87.64-.48.15-.89.28-1.18.39s-1.24.61-1.86.92l-.14.07c-1.49.76-3.35,1.7-4.72,2.28a41.15,41.15,0,0,0-5,3l1.77,2.54,1.95,2.8L121.51,124l-1.62-3.07a7.11,7.11,0,0,0-.67-1,6.27,6.27,0,0,1-1.5-2.29c-.86-.39-2.27-1-3.56-1.59l-.9-.39-1-1.61a5.39,5.39,0,0,1-.72-2.38,4.76,4.76,0,0,0-.21-1.09c-3.38,1.19-8,4.58-10.06,6.09-.62.45-1.08.79-1.35,1a20.36,20.36,0,0,1-6.74,3.19,3.85,3.85,0,0,1-2.58,1.64l-.67.61-.32.29c5.18,12.4,11.58,26.53,21.76,38.92a4.62,4.62,0,0,1,.73,4.38,3.42,3.42,0,0,1-2.73,2.2l-1,.15c-11.79,1.84-31.53,4.93-35.73,17.41a4.39,4.39,0,0,1-3.29,2.82A3.5,3.5,0,0,1,65.9,188c-4.93-6-17.61-1.36-23.71.86-6.72,2.45-16.32,6.6-21.93,14.4-7.1,9.85.42,16.21,9.13,23.58,1.34,1.13,2.72,2.3,4,3.47a24.74,24.74,0,0,1,4.72,1.9L42.55,231l1.54-.43,1.28,1a5.6,5.6,0,0,1,2.15,4.39,6.41,6.41,0,0,0,.32,2,10.62,10.62,0,0,1,.53,2.54l2.87-.57.55-12.56,3-.09a16.61,16.61,0,0,0,3.12-.35c.59-.33,1.84-.88,4.41-2l.12-.05c2.17-.94,7.24-3.15,7.93-3.66,1.67-1.23,10.3-6.77,10.67-7l1.06-.68,1.24.22c1.79.31,10.7,1.87,13.18,2.49,3,.76,16.17,6.37,16.3,6.43.84.36,2.93,1.13,4.81,1.79a19.56,19.56,0,0,0,1.6-1.65c.4-.45.79-.88,1.17-1.26a11.45,11.45,0,0,1,2.62-2.05l1.09-.71a20.2,20.2,0,0,0,2.8-2.16,13.94,13.94,0,0,1,2.78-3.38ZM306.1,83.54l0,0Zm.32-.36,0-.05Zm.46-.75-.21.3.05,0Z"/></svg>