<svg id="Layer_1" data-name="Layer 1" xmlns="http://www.w3.org/2000/svg" viewBox="0 0 350 350"><defs><style>.cls-1{fill:#999;}.cls-2{fill:#f90;}</style></defs><title>M</title><path class="cls-1" d="M66,272.5h0Z"/><path class="cls-2" d="M66.08,273.92l-.35-2.2-.18-.57.17.52-.09-.54.34,1.3v-.22l.49,1.63Zm.11-.55.12.52Z"/><path class="cls-1" d="M339.77,229.23c-.76-.52-4.25-8.5-4.37-9,.87-1.11,1.79-1.59,1.71-2.54s.28-1.47-.56-2.23-1-1-1-1.67-.79-.6-1.43-1.47-.91-1.67-.44-2.19,1.07-1.39,1-1.67-.18-1.28-.3-2.27a.85.85,0,0,1-1.25-.31c-.6-1-1.63-2.82-1.79-3s-1.43-1.35-1.35-2.62a18,18,0,0,0,0-2.31s-3-1.83-3.57-3.5c-.6-1.19-1.23-.83-1.91-.91a15.93,15.93,0,0,1-2.38,0c-.68-.2-.6-.4-1.27-.4a4.57,4.57,0,0,0-2,.38,5,5,0,0,0-.68,1.92c0,.6.28.2.36,1s.28,1.11,0,1.39-.79.32-1.39.91a3.43,3.43,0,0,1-1.55,1c-.76.31-1.56-1.32-1.56-1.32a24.74,24.74,0,0,0-2.85-.76c-.16.08-.6.24-1.07.44s-1.51.75-1.67.16a1.57,1.57,0,0,0-1.87-.83,5.76,5.76,0,0,1-1.47.08c-1,0-1.43-.12-1.43-.64s.24-1,0-1.07a2,2,0,0,0-.64,0l.2-1.75-1.43-.12s1-1.51.24-2.5a6.77,6.77,0,0,1-2.31-.24V190l-2.19,0,.12-2.78a16.49,16.49,0,0,1,.76-3.62c.48-1-.12-2.74-.08-3.89s-1-1.51-2.07-1.75-6.64.24-8.11,1-.79.83-2.82.76-2.31.16-2.31.16l.16-1.63H281.7l.32-1.75h-.91l.4-3.86H270v-2.5h-4l-.28,3.93-2.07.48V176l-.83,0v.72l-1.11.2v-1.55l-1.63,0v-1.27l-1-.2.44-1.67h-4.29v-2.11h-1.91V168h-4.17V157.25l-1.95-.44v-2.27l-4.33.2v-2h-1.75v-1.63h3.1l-.08-1.71h-.52v-1.51l1.35-1.63-1.27-5.41a2.24,2.24,0,0,1,.91-1.63c.91-.72.56-1.87,1.35-1.91s.76-.12,1.23-.83a3,3,0,0,0,.83-1.87c.24-1.31.76-1.67-.08-2.27s-.6-.56-1.19-.68-.36-.72-.36-1.91.36-13.47.36-13.47a4,4,0,0,1-2.58.83c-1.67,0-1.79.32-2.34-.44s-.68-1.43.2-3.3.56-4.05,2-4.45,10.09-.56,12.56-.87a84.58,84.58,0,0,1,10.33-.4c2.07.12,3.82,0,3.82-.64s.2-1.23-1.15-3-1.31-1.43-1.95-1.83-1.23-1-.2-1.11a16.88,16.88,0,0,1,3.54,0,21.79,21.79,0,0,0,.16-2.86l-.83-.52.16-2.07h.79v-2h1.27V91.92h1.79V89.81h2.31V88h1V84.76s2-.12,2.11-.4a19.65,19.65,0,0,0,.36-3.14,2.77,2.77,0,0,0-.56-1.43l-12.12,3.62-.72-3.86a4.86,4.86,0,0,1-1.55-2.78,31.3,31.3,0,0,1-.32-6.36,28.38,28.38,0,0,0-.4-5.09h-2.15V64c0-.16,1.75,0,1.75,0L264,60h-.56l-.4-2.94h-1.31l.08-2.62s-.72-.08-1.55-1.23A15.42,15.42,0,0,1,258.73,50s-2.34-2.11-2-4.29a9.13,9.13,0,0,1,2.46-4.81c1.11-1.35,2.66-2.19,3.3-4s.08-6.28.08-6.28l3.62-.24a12.65,12.65,0,0,1,1.59-1.23c1.15-.79,1.39-.48,1.15-2.19s1-1.79-1.59-2.15-7.11-.4-7.11-.4l.08-2.7a3.29,3.29,0,0,0-2-.76c-1.55-.2-5.17-.48-5.17-.48l-2.23-2-11.25,4.81-16,7.55L202.22,33.1V27.65H199.8V25.78h-3.1v1.95h-6v3.14h-5.6a15.86,15.86,0,0,1-1.95,0,5,5,0,0,1-2.23-.87c-1-.79-1.55-.12-1.43.16a26.69,26.69,0,0,1,.2,2.82l-23-.24-.44.16s-6.14,5.72-6.68,6.08a10.24,10.24,0,0,1-3.1-.48c-.54-.3.89,1,.54,3s-.72,3.28-1.79,3.7c0,0-2.5.41-2.74-3-1.49-.38-5.13.81-6.32-3.78-1.25-3.64-1.49-4.11-3.64-5.19s-3.64-.18-2.56,3.1,2,5.66,2.38,5.87,1.55,3-1.85,2.6-2.38.12-4.05-.48a23.33,23.33,0,0,1-6.38-4.23c-1.13-1.25-3.58-2.5-2.62-.18-.06,1.73-.19,2.09-.22,3.52s.4.66,1.17,2.44,2.56,1.85.89,3.93-1.55,2.09-3.16.77-2.09-.66-3.7-.83-3.58.06-3.82-2.62c-.72-2.74-.48-3.16-1.07-3.87s-.66-3.16,3.16-3.16c-.66,0,.54-.42-.83-1.07s-3.82.12-5.13-.12-5.13-3.82-6.26-5.48-.42-2.5-.48-3.4-1.61-2.09-1.61-2.09l-8.64,1.43a5.19,5.19,0,0,0-1.61,2.15c-1.55.54-6.74,2.62-7.69,3.82s-1.07,1.31-3.64,1.49a37,37,0,0,1-6.8-.06,6.18,6.18,0,0,0-4.71,1.67c-.3.3-.6,3-2.74,1.79-1.61-.66-2.5-.42-3.4.3s-2.56,1.85-2-3c-1.49-.77-5.84.6-5.84.6a16.32,16.32,0,0,0,1,4.11c.72,1.49,2,4.29,1.49,5.19s-2,.66-2.5,2.62-.12,1.61-1.79,2.92A23.54,23.54,0,0,1,44.34,55,6.2,6.2,0,0,0,42,57c-1.31,1.49-2,1.79-3.1,1.73s-1.25-1.31-.72-3.93c-1.79-1.37-2.38-1.91-3-1.85s-1.67,1.67-2.15,2-4.29,1.61-5.78-1.55c-1.07-3.52-1.91-6.44-5.19-3.4-2,3.1-2.44,4.95-3.34,5.54s-3.87-.72-7.63-3.16C8.1,53.7,6.79,55,7.8,56.09s3,.77,3.76,2,.89.83.6,3.22-.54,2.09.36,3.7,1.73,2.32,3.16.66,4.05-1.73,4.89,1c-.12,2,.72,2.32-.3,2.32.36,1.37.83,1.61.3,2.8s-.89,1-.89,1l.18,3s1.79,0,1.79.72-.18,15.08-.18,15.08L6.25,97.64v3.1l25.28-1.61.12,1L57.1,98.89a17.79,17.79,0,0,0,4.59,1.55l8.58.3L70,110.81,70,112.22s13.87,10.89,13.95,11,2.7,0,3.54,0c.48-1.83-.08-2.19,1-2.23,1.51,0,3.7.08,3.7.08s-.2-2,.36-2c2.19,0,8,0,8,0s-.6-1.75,1.15-1.75,2.62-.16,2.82.4-.24,7.75-.24,7.75L94,140.36c-.87.56-3.62.72-4.45.72s-.36-.48-2.15-.48-2-.24-3.38-.16-3.82,0-4.29,0a3.24,3.24,0,0,0-1.39.64,15.12,15.12,0,0,0-.52,3.22,10.55,10.55,0,0,0,.87,1.79A5.58,5.58,0,0,1,79,149c-.28.64-1.07,1.95-1.07,1.95l0,12.16s.76.24.83.44a56.82,56.82,0,0,1-.52,6.92c-.24.68-.48.16-.48,1.19s-.2,9.9-.2,9.9.79,1.55,1.07,2.23.2,1.95.4,2.42a3.76,3.76,0,0,1,.08,2c-.16.48-.24.52-.76.6s-.91.56-.91,1.87.28,2.23-.24,2.31-1-.24-1.31,0a11,11,0,0,0-.68,2.82s-1.39,0-1.75.52a5.93,5.93,0,0,0-.36,2.3c0,.16-.48,26.19-.48,26.19a16.37,16.37,0,0,0,.56,3.38c.32.48.48.72,0,1.43a4.4,4.4,0,0,0-.6,2.31c0,.44,0,5.76,0,5.76s.16,4.65,0,4.69a6.29,6.29,0,0,1-3.18.44c-3-.2-5.56-.12-5.56-.12l-6.08,10.73a26,26,0,0,0-.52,4.53c.16.91,2.07,2.11,2.7,2.34s1.83.2,2,1c.12,1,.16,3.62.16,3.62s1.71.32,2,.76-.24,4.21-.2,4.37,2.34-1.43,2.42.6c.07,1.66-.22,1.88-.3,1.9.28-.07,4-.93,4.08.68s-.32,10.29-.32,10.29H67.61l-.36,7.91s4.17,0,4.93.16a3.56,3.56,0,0,0,2.5-1.31c.52-.64.4-5.09.4-5.09s-.24-1.27.32-1.27,2.19-.28,2.31.56c-.16.72-.24,1.39-.24,1.39s2.34-.44,2.7.16l.16.83s1.39.36,1.51,1.31.48,1.27.52,1.91-.24,19.12-.24,19.12-.6.83-1.31.68a82.73,82.73,0,0,1-.2,9s-.72,1.07-1,1c.48,2.86.4,3.54-.6,3.58a3.64,3.64,0,0,1-1.31,0s.56,1.71-.2,1.83c.76.79.56.6,1,1.95S79.65,331,79.65,331s1.31-.91,3.93,0c2.86.79,6.6.4,8,.28a10.2,10.2,0,0,0,4.65-2.27c2.3-.72,6.52-.76,7.31-1.07s1.83-1.43,3-1.19a16.14,16.14,0,0,0,2.9.2s.24-1.79,2.23-.56c.87-.79,0-1.27,1.07-1.11-.16-2.82.36-3.62,2-2.86-.08-2.07-.44-4.73,1.55-4.61.52-1,.79-1.15.87-1.91s-.32-1.51,1.27-1.19c.91-1.67.44-2.15,1.95-1.39,1.31-1.71,1.07-2.19,2.82-1.35.79-1.47,1.19-1.51,2.74-1.43s1.35.08,1.75-.6-1.11-1.15.6-1.23,1.39.36,1.95-.12a2.36,2.36,0,0,1,1.91-.75h2s.4-1.31-.12-1.87-7.23-12.2-7.87-13.08a6.5,6.5,0,0,1-1.19-5.48,3.64,3.64,0,0,1-.28-3.1c.4-1.23,2-3.93,5.13-3.22,1.23-.12,1.83-.2,3.34-.4a25.63,25.63,0,0,1,5.72-.2,4.45,4.45,0,0,1,2.46,1.19c.16.32,1.23-.12,2.19,1a25.26,25.26,0,0,0,3.54,3l11.53,8.07c-.4-2,0-2.9,2.62-1.51,1.19-.32,1.11-.24,1.91-1.27a8.16,8.16,0,0,1,6-3.54c.24-1.23,1-1.51,1.79-.83,2.5-.48,11-3.78,12.52-5.48s2.5-4,3.86-5,1.71-.32,2-1.31-2.54-3.18,0-4.33a3.73,3.73,0,0,0,2.7-3c0-1.15.4-3.3,0-4.17s-.16-2.31,1.59-1.39,0,.56,2.54.87a14.5,14.5,0,0,0,4.61-.16l2-4.05a38.94,38.94,0,0,1,4.09-.24c1.59,0,2.19-1.39,3.5-1.27.44-1,1.75-11.84,2.7-13,.4-1.31,2.27-2.9,2.38-1.07s1.11,10.53,1.11,10.53,2.66-.2,3,.44c.72.6,1.83-.12,1.71,2.46s-.32,4.05-.32,4.05,1.83-.32,2,.28a8,8,0,0,1,.48,2,8.19,8.19,0,0,0,.52,1.83c.12.4,2,.32,2.11.2s.24-6.92.24-6.92a5.88,5.88,0,0,1-.6-1.91c0-.72-.24-2.34,2.46-2.15-.32-1.71-.08-2.7,1.79-1.59a23.52,23.52,0,0,0,4.65,2.11,16.7,16.7,0,0,1,3.38,1.63s2.15-.83,2,1.11c-.24,1-.4,1.51-.4,1.51s3.66-1,4.33-.75.68,1,.6,1.31.72-.28.72-.28l.4-11.21S244.07,242.3,247,243s3.78.87,5.33.64,9.34-5.09,12.88-4.81c1.11-2.07,3.89-4,5.92-3.74,1.51-1,4.37-2.38,4.37-2.38l.87-.56c-.08-2.82.87-3.34,3.89-1.95a8.23,8.23,0,0,1,3.58-1.43c1.47-.12,1.59-.56,2.27-.6a6.54,6.54,0,0,0,2.7-.32c.79-.44.52-1.15,1.59-1.31a12.88,12.88,0,0,0,2.74-1s1.95-3.34,4.05-3.46,4.29-.56,8.43,2.07c2.82,2.15,2.27,1.87,2.82,2.58s1.63,1.15,3.34,1.35a13.79,13.79,0,0,0,5.88-1.39c.87-.52,4.85-3.38,5.29-6.44.2-.75.36-1,.87-1s1.91-.72,2.54,1.39,1.27,6,1.31,6.08,1,.79,1.19,1.35,2,5.29,2,5.29,1.31-.4,1.59.6,7.07,15.46,7.07,15.46,3.34-2.86,3.82-5a17.65,17.65,0,0,0-.48-8.66C342,233,340.52,229.74,339.77,229.23Z"/><path class="cls-2" d="M78.81,333.36l-.51-1.9s-.76-2.51-1.15-3.86c-.09-.3-.15-.53-.2-.71a3.17,3.17,0,0,0-.09-.31l-.34-.35-1.86-2,1.77-.28,0-.13-.81-2.5,2.53.69h.4c0-.41-.11-1.07-.26-2l-.33-2,1.28.22v0a79.43,79.43,0,0,0,.17-8.42L79.3,308l1.41.31c.11-7.27.25-17.61.23-18.25a1.53,1.53,0,0,0-.12-.35,5.58,5.58,0,0,1-.38-1.34,1.69,1.69,0,0,0-.47-.23l-.87-.22-.17-.88a8.49,8.49,0,0,0-1.21.13l-1.22.23c-.08,2.9-.51,3.43-.72,3.69-.72.89-2.39,2-3.82,1.82-.4-.06-2.76-.12-4.72-.14H65.77l.49-10.73h2.12c.06-2.26.19-6.65.26-8.42a8.18,8.18,0,0,0-2.31.24l-.81-2.71a1.12,1.12,0,0,0-.68.61,2.69,2.69,0,0,0,.05-.63l-.14.06a1.66,1.66,0,0,1-1.5.07l-.59-.29-.16-.65a3.8,3.8,0,0,1,0-1.38c.05-.53.18-1.74.2-2.46a8.36,8.36,0,0,0-.91-.23l-1.14-.21,0-1.16c0-.6,0-2.12-.11-3l-.29-.06a5.74,5.74,0,0,1-.82-.22c-.5-.19-3.29-1.62-3.6-3.43a22.23,22.23,0,0,1,.52-5l0-.23L63,241.27l.8,0c.11,0,2.69-.08,5.7.12l.24,0a3.38,3.38,0,0,0,1.47-.11c0-.89,0-2.33-.08-3.59,0-2.18.07-5.32,0-5.7a5.78,5.78,0,0,1,.78-3.13c-.17-.28-.5-1-.74-4v-.14c0-.26.47-25.77.48-26.18,0-2.29.48-2.93.64-3.14a2.8,2.8,0,0,1,1.65-.94c.38-2.17.75-2.45,1.06-2.69a1.85,1.85,0,0,1,1-.37c0-.25,0-.52,0-.8,0-2.24,1.06-3,1.77-3.19a2.76,2.76,0,0,0-.07-.73,4.84,4.84,0,0,1-.26-1.44,5.36,5.36,0,0,0-.14-1c-.21-.51-.81-1.7-1-2.12l-.16-.32v-.36c0-.09.2-8.86.2-9.86a2.2,2.2,0,0,1,.57-1.74c.14-.76.36-4,.42-5.51l-.83-.26,0-13.6.2-.34c.29-.48.81-1.38,1-1.78a6.21,6.21,0,0,0-.34-1.81,4.57,4.57,0,0,0-.29-.54,4.26,4.26,0,0,1-.67-1.58c-.06-.41.25-3.75.92-4.42a4.39,4.39,0,0,1,2.4-1.05h.63c.9,0,2.57,0,3.59,0a9.56,9.56,0,0,1,1.83.06,12.82,12.82,0,0,0,1.63.09,3.92,3.92,0,0,1,2.22.48,15.09,15.09,0,0,0,3.43-.41l9.74-14.19c.14-2.41.26-5,.27-6.27h-1.23l.52,1.73-1.91,0-7,0c0,.14,0,.29,0,.43l.16,1.61L92,122.5s-1.62-.06-3-.07a9,9,0,0,1-.23,1.16l-.29,1.11-1.15-.06c-.33,0-.95,0-1.56,0-1.95.05-2.5.07-2.94-.46-1-.8-8.67-6.85-13.79-10.87l-.58-.46.12-2.15.2-8.63-7.19-.25a16.33,16.33,0,0,1-4.82-1.53L30.4,101.56l-.12-.93L4.83,102.25V96.68L20,90.54c0-2.78.13-10.88.16-13.4l-.37,0H18.51l-.43-7.21,1.29.86a2,2,0,0,0-.13-.42,10.54,10.54,0,0,1-.35-1.08l-.46-1.78h.72c0-.21,0-.44,0-.7a1.33,1.33,0,0,0-.88-.9,1.67,1.67,0,0,0-1.51.66A3.43,3.43,0,0,1,14,68c-1.3-.13-2.09-1.25-2.69-2.33a4.07,4.07,0,0,1-.68-3.46c0-.29.1-.64.16-1.1a10.22,10.22,0,0,0,.12-1.52l-.15-.21c-.11-.16-.23-.34-.38-.59a2.94,2.94,0,0,0-1-.39A5,5,0,0,1,6.74,57a2.52,2.52,0,0,1-.65-2.22c.28-1.35,1.59-2.48,4.39-3.77l.71-.33.66.43c3.72,2.42,5.59,3,6.17,3.07a12,12,0,0,0,.86-1.52c.45-.87,1.06-2.07,2-3.51l.23-.28c.54-.51,2.2-2,4-1.56s2.64,2.8,3.45,5.44v0a2,2,0,0,0,1.14,1,4.08,4.08,0,0,0,2.54-.16c.1-.1.29-.32.41-.47A4,4,0,0,1,35,51.52c1.12-.1,1.9.49,3.44,1.68l1.29,1-.18.87a9.65,9.65,0,0,0-.28,2.24c.38,0,.74-.23,1.64-1.25a6.72,6.72,0,0,1,2-1.86l.6-.37c.44-.28.76-.47,1-.63a13.91,13.91,0,0,0,2-1.37l.09-.07a9.56,9.56,0,0,0,.87-.72c0-.08,0-.21.09-.41s.13-.57.24-1a4.15,4.15,0,0,1,2.32-2.79l.23-.13A13.78,13.78,0,0,0,49,42.81a17.13,17.13,0,0,1-1.14-4.57l-.13-1.16,1.11-.35c1.15-.36,5.06-1.47,6.92-.5l.86.45-.11,1a13,13,0,0,0-.09,1.65,4.37,4.37,0,0,1,4.64-.37l.15.07.21.1a4.15,4.15,0,0,0,.31-.69,2.46,2.46,0,0,1,.53-1,7.61,7.61,0,0,1,5.84-2.08,35.61,35.61,0,0,0,6.57.06c2-.14,2-.14,2.63-1,1.19-1.49,6-3.41,7.75-4.05a6.73,6.73,0,0,1,1.82-2.17l.27-.2,9.59-1.59.49.38c.62.48,2.07,1.73,2.16,3.12a4.43,4.43,0,0,1-.09,1.11,1.69,1.69,0,0,0,.33,1.59c1.1,1.63,4.51,4.64,5.37,4.89a8.14,8.14,0,0,0,1.59-.07,7.43,7.43,0,0,1,3.87.3c1.82.87,1.56,2.17,1.36,2.68a1.33,1.33,0,0,0-.17-1.18,1.28,1.28,0,0,0-1-.57v2.83c-1.19,0-1.8.29-2,.55a.41.41,0,0,0,0,.35,4,4,0,0,1,.82,2.1c.09.51.22,1.2.49,2.25l0,.23c.09,1.07.33,1.16,1.88,1.28l.68.06a5.27,5.27,0,0,0,1,0A4.26,4.26,0,0,1,117,49.5l.13.11.3.24.52-.65.21-.26a3.16,3.16,0,0,0,.33-.49l-.24-.28a6.08,6.08,0,0,1-1.18-1.72,2.4,2.4,0,0,0-.54-.87,2.58,2.58,0,0,1-.75-2.16c0-.79.06-1.27.1-1.79s.08-.83.1-1.48c-.55-1.62.14-2.36.63-2.67,1.55-1,3.75.87,4.47,1.67a22.12,22.12,0,0,0,5.8,3.85,2,2,0,0,0,.94.22,17.65,17.65,0,0,1,2.81.18,2.87,2.87,0,0,0,.74,0,1.1,1.1,0,0,0-.06-.18c-.44-.4-1.14-1.57-2.73-6.45-.9-2.75-.2-4.1.55-4.75.56-.49,1.83-1.14,4-.06,2.65,1.33,3.06,2.26,4.34,6l0,.1c.66,2.55,2,2.58,3.75,2.62a6.85,6.85,0,0,1,1.55.15l1,.25.07,1a2.11,2.11,0,0,0,.53,1.48.87.87,0,0,0,.41.17,6.23,6.23,0,0,0,.78-2.53,2.73,2.73,0,0,0-.4-1.86,1.46,1.46,0,0,1,1.95-2.11,10.3,10.3,0,0,0,1.93.28c1-.84,3.73-3.39,6.19-5.68l.21-.2.95-.35,21.73.23c0-.45-.05-.82-.08-1a1.79,1.79,0,0,1,.65-1.94,2.38,2.38,0,0,1,3,.25,2.93,2.93,0,0,0,1.37.55l.31.06c.28,0,1,0,1.57,0h4.25V26.31h6V24.37h5.93v1.87h2.42v5.29l19.62-2.07L239,22l12.12-5.19,2.54,2.27c1,.08,3.52.29,4.76.45a4.5,4.5,0,0,1,2.92,1.24l.36.42L261.66,23c1.59,0,4.13.14,5.85.38,1.26.18,2.05.32,2.55,1a2,2,0,0,1,.27,1.6,2.14,2.14,0,0,0,0,.74c.23,1.63.1,2.43-1.25,3.24-.14.08-.3.18-.5.31a12.4,12.4,0,0,0-1.4,1.08l-.37.36-2.68.18a15.85,15.85,0,0,1-.29,5.43,8.22,8.22,0,0,1-2.46,3.35,12.22,12.22,0,0,0-1.08,1.1,7.85,7.85,0,0,0-2.16,4.11c-.17,1.16,1.11,2.62,1.57,3l.27.25.12.35a13.72,13.72,0,0,0,1.36,2.89,2.16,2.16,0,0,0,.68.67l1.18.13-.07,2.47h1.09l.4,2.94h.72l.05,5.29h.19l.19,1.19a28.41,28.41,0,0,1,.41,5.45,30,30,0,0,0,.31,6,3.48,3.48,0,0,0,1.06,1.91l.38.33.53,2.81,11.54-3.44.59.76a4.09,4.09,0,0,1,.86,2.3,18,18,0,0,1-.47,3.7c-.27.62-.8.95-2,1.12V89.4h-1v1.83h-2.3v2.11h-1.79v1.79h-1.27v2h-.73l.62.38v.8c0,3.19,0,3.76-1,4.16l-.87.35-.33-.33h-.2l.59.74c1.4,1.81,1.48,2.77,1.45,3.68v.16a1.76,1.76,0,0,1-.57,1.29c-.54.51-1.48.95-4.75.76a84.14,84.14,0,0,0-10.07.39c-1.14.15-3.4.26-5.8.37s-5.92.28-6.57.46a6.65,6.65,0,0,0-.35,1.28,11,11,0,0,1-.73,2.4c-.59,1.25-.54,1.55-.4,1.77H243c.29,0,.67,0,1.18,0a2.69,2.69,0,0,0,1.65-.48l2.41-2-.06,3.11c0,.12-.36,12.27-.36,13.43,0,.28,0,.52,0,.74a2.86,2.86,0,0,1,.52.35l.46.34a2.31,2.31,0,0,1,.85,2.91,6.32,6.32,0,0,0-.2.76,3.94,3.94,0,0,1-.82,2.09c-.06.08-.14.18-.23.31l-.13.19a2.22,2.22,0,0,1-1.64,1.21,3.39,3.39,0,0,1-1.12,1.67,1,1,0,0,0-.34.46l1.37,5.82L245.4,148h.11l.21,4.54h-1.42v.72l4.33-.2v2.61l1.95.44V166.6h4.17v2.07h1.91v2.11h4.71l-.52,2,.66.13V174l.74,0v-.6l2.14-.5.3-4.21h6.71v2.5h11.68l-.4,3.85h1l-.32,1.75h1.26l-.14,1.45.78,0a9.88,9.88,0,0,0,1.08,0s0,0,.07-.06a8.92,8.92,0,0,1,1-.56c1.75-.85,7.61-1.37,9-1.06.81.17,3.27.7,3.19,3.18a8.27,8.27,0,0,0,.11,1.18,5.75,5.75,0,0,1-.17,3.28,14.69,14.69,0,0,0-.62,3.15l0,1.19,2.13,0v1.42a3.75,3.75,0,0,0,.74,0l.82-.09.48.67a2.94,2.94,0,0,1,.52,2.07l1.1.09-.22,2a1.57,1.57,0,0,1,.6,1.39,6.75,6.75,0,0,1,.71,0,3.49,3.49,0,0,0,.43-.06,3.23,3.23,0,0,1,2.95.89l.05,0,.23-.1.61-.25.38-.15c.51-.25.66-.33,3.9.67l.58.18.27.55a3.39,3.39,0,0,0,.26.42,1.65,1.65,0,0,0,.57-.44,4.35,4.35,0,0,1,1.07-.79c0-.1,0-.21,0-.34a1.89,1.89,0,0,1-.37-1.21,6.15,6.15,0,0,1,1-2.77c.64-.86,2.43-1,3.16-1a2.62,2.62,0,0,1,1.39.34,1.18,1.18,0,0,0,.28.12,4.18,4.18,0,0,0,.87,0,6.33,6.33,0,0,1,1.28,0h.24a2.68,2.68,0,0,1,2.77,1.69l.08.19c.26.77,1.88,2.08,3,2.73l.62.38.06.72a19.5,19.5,0,0,1,0,2.51c0,.23.12.66.86,1.44l.19.21c.15.19.42.63,1.66,2.76l1.42-.72.26,2c.21,1.79.26,2.09.27,2.12.25.86-.45,1.94-1.15,2.75a3.17,3.17,0,0,0,.36.59,1.47,1.47,0,0,0,.48.39,2.17,2.17,0,0,1,1.22,1.91.76.76,0,0,0,0,.11l.56.51a2.94,2.94,0,0,1,1,2.64,3.73,3.73,0,0,0,0,.52,3.45,3.45,0,0,1-1.31,2.76l-.19.2a73.17,73.17,0,0,0,3.68,7.65c.93.77,2.13,3.16,3.58,7.1a19.08,19.08,0,0,1,.53,9.45c-.56,2.58-3.9,5.5-4.28,5.82l-1.41,1.21-.79-1.69c-1.49-3.16-6.11-13-7-15.29l-1.23.37-.47-1.24c-.71-1.89-1.84-4.84-2-5.23a5.16,5.16,0,0,0-.58-.59,2,2,0,0,1-.65-.87c0-.11,0-.12-.26-1.21-.27-1.33-.73-3.54-1.08-5a1.13,1.13,0,0,0-.22-.44l-.35.07-.09,0c-.71,4-5.89,7.26-5.94,7.29a15,15,0,0,1-6.76,1.58c-2.12-.25-3.48-.85-4.29-1.89a5.37,5.37,0,0,1-.32-.45c-.11-.17-.21-.32-2.2-1.83-3.34-2.11-5.09-2-7-1.85l-.58,0c-.87,0-2.25,1.63-2.91,2.76l-.22.37-.39.19a14,14,0,0,1-3.11,1.07h0a3,3,0,0,1-1.14,1.14,5.63,5.63,0,0,1-2.82.49h-.48a1.07,1.07,0,0,0-.18.08,5.51,5.51,0,0,1-2.05.52,6.9,6.9,0,0,0-2.92,1.21l-.65.4-.72-.3a5.9,5.9,0,0,0-1.8-.61,4.36,4.36,0,0,0-.09,1.23l0,.8-.67.43-.91.58-.11.06s-2.8,1.36-4.21,2.29l-.45.29-.53-.07c-1.33-.18-3.58,1.33-4.48,3l-.44.81-.92-.07c-1.94-.15-6.27,2-8.84,3.23a16.64,16.64,0,0,1-3.7,1.57c-1.77.27-2.73.05-5.59-.6l-.26-.06h0a7.43,7.43,0,0,0,.29,3l.06.21-.43,12.14-.58.4c-.46.32-1.42,1-2.34.34l-.82-.58.14-.53a28.73,28.73,0,0,0-3.05.7l-2.57.73.84-2.54s.09-.27.23-.84l-.62.23-.6-.35a14.86,14.86,0,0,0-2.91-1.45,19.93,19.93,0,0,1-4.76-2.09l.32,1.73-1.83-.13a1.79,1.79,0,0,0-1,.08s0,.31,0,.46v.19a4.88,4.88,0,0,0,.45,1.27l.16.31V258c-.13,7.37-.15,7.39-.65,7.89-.85.85-3.09.39-3.11.39a1.75,1.75,0,0,1-1.36-1.18c0-.09-.07-.2-.12-.34a5.89,5.89,0,0,1-.46-1.9,4,4,0,0,0-.21-.93,5.08,5.08,0,0,0-.64.06l-1.9.32.25-1.91s.19-1.45.31-3.93a4.11,4.11,0,0,0,0-.74,3,3,0,0,1-1.18-.57l-.07-.06a8.55,8.55,0,0,0-1.9-.05l-1.36.1-.15-1.35c0-.28-.64-5.65-1-8.77l0,.05c-.4.74-1.19,5.53-1.61,8.11a29.56,29.56,0,0,1-.88,4.54l-.4,1-1-.09c-.13,0-.32.1-.7.35a4.59,4.59,0,0,1-2.71.93,30.14,30.14,0,0,0-3.13.15L201.77,264l-.65.15a15.84,15.84,0,0,1-5.11.19l-1.15-.13a2,2,0,0,1-1.27-.45,13.35,13.35,0,0,1-.05,2.9c0,.37-.06.72-.07,1a5.1,5.1,0,0,1-3.57,4.24l-.18.1a5.43,5.43,0,0,0,.42.89,3.09,3.09,0,0,1,.56,2.47A2.21,2.21,0,0,1,189,277a2.27,2.27,0,0,0-.85.4,9.72,9.72,0,0,0-1.86,2.34,23.6,23.6,0,0,1-1.74,2.39c-1.89,2.2-11,5.51-13.33,6l-.69.13,0,0-.14.7-1.1.07a6.82,6.82,0,0,0-5,3,3.47,3.47,0,0,1-2.45,1.72l-.75.2-.49-.26c-.25-.13-.46-.23-.63-.3,0,.08,0,.18.05.28l.68,3.45L146.28,286.9a25.43,25.43,0,0,1-3.82-3.24,1,1,0,0,0-.8-.37,1.91,1.91,0,0,1-1.45-.74,4.35,4.35,0,0,0-1.58-.63,24.31,24.31,0,0,0-5.27.21l-.12,0c-1.44.19-2,.27-3.26.39l-.23,0-.22-.05c-2.52-.58-3.45,2.25-3.46,2.27a2.25,2.25,0,0,0,.19,2l.24.47-.12.51a5.05,5.05,0,0,0,1,4.33c.31.42,1.45,2.35,3.44,5.73,1.69,2.87,4,6.79,4.37,7.27.95,1,.54,2.7.39,3.19l-.3,1h-3.08c-.5,0-.5,0-1,.4a1.89,1.89,0,0,1-1.81.52l-.23,0a1.93,1.93,0,0,1-.21.52l-.09.17c-.69,1.24-1.51,1.2-2.88,1.13a5.25,5.25,0,0,0-1.05,0,3.23,3.23,0,0,0-.44.68l-.64,1.19-1.22-.58-.32-.14-.11.16c-.18.26-.39.56-.66.92l-.71.93-.78-.39c-.09.2-.2.43-.33.67l-.5.91-.62-.12a3.64,3.64,0,0,1-.6,1.55c-.11.18-.24.4-.4.72l-.42.84-.93-.06a9,9,0,0,0-.08,2.48l.12,2.95-2.09-.94h0a9.56,9.56,0,0,0,0,1.5l.1,1.75-1.08-.17a3.07,3.07,0,0,1-.56.66l-.79.72-.91-.56-.12-.07-.11.84h-1.21a17.14,17.14,0,0,1-3.22-.23c-.24,0-.76.3-1.12.53a6.17,6.17,0,0,1-1,.59,11.43,11.43,0,0,1-2.74.41,29.32,29.32,0,0,0-4.46.63c-2.1,1.52-3.7,2.26-5.17,2.39l-.27,0a24.5,24.5,0,0,1-8.22-.35c-1.9-.66-2.76-.19-2.8-.17Zm2.6-4.13a8,8,0,0,1,2.64.48,22.52,22.52,0,0,0,7.12.23l.28,0a9,9,0,0,0,3.93-2l.19-.14.23-.07a28.4,28.4,0,0,1,5.26-.81,19.88,19.88,0,0,0,2-.23,6.11,6.11,0,0,0,.52-.32,4.31,4.31,0,0,1,3.24-.93,11,11,0,0,0,1.71.16,2.36,2.36,0,0,1,.9-.76,2.45,2.45,0,0,1,1.54-.18,1.52,1.52,0,0,1,.31-.37,3.6,3.6,0,0,1,1.19-3.1,2.18,2.18,0,0,1,.8-.34,4.84,4.84,0,0,1,1-3.64,2.56,2.56,0,0,1,1.16-.66l.14-.23c.2-.33.2-.33.22-.5a2.37,2.37,0,0,0,0-.26,2.14,2.14,0,0,1,.67-1.82,2,2,0,0,1,1.14-.44l.05-.13a2.2,2.2,0,0,1,1.21-1.43,1.82,1.82,0,0,1,1-.07c.78-1.12,1.48-1.66,2.76-1.35.9-1.1,1.86-1.21,3.38-1.13h0a1.44,1.44,0,0,1,.16-.87,2.17,2.17,0,0,1,2-1,7.23,7.23,0,0,1,1.31,0,3.62,3.62,0,0,1,2.61-.91h.49c-.54-.81-1.67-2.71-4.31-7.18-1.42-2.42-3-5.15-3.29-5.51a7.86,7.86,0,0,1-1.53-6.14,4.93,4.93,0,0,1-.14-3.72c.68-2.1,3-4.9,6.55-4.22,1-.1,1.64-.18,3-.35l.12,0a26.86,26.86,0,0,1,6.18-.19,6.82,6.82,0,0,1,3,1.35,3.66,3.66,0,0,1,2.48,1.36,22.68,22.68,0,0,0,3.26,2.73l9.5,6.65a2,2,0,0,1,.54-.61c1-.75,2.27-.39,3.45.17l.2-.07.38-.51a9.87,9.87,0,0,1,6.13-4,2.38,2.38,0,0,1,1.35-1.19,2.26,2.26,0,0,1,1.76.15c3-.76,10.13-3.69,11.17-4.89a21.42,21.42,0,0,0,1.52-2.11A11.27,11.27,0,0,1,186.5,275a5.3,5.3,0,0,1,1.24-.67l-.08-.16A3.94,3.94,0,0,1,187,271a3,3,0,0,1,1.76-1.78l.1,0c1.13-.41,1.75-1.18,1.77-1.7,0-.32,0-.72.08-1.15a10,10,0,0,0,0-2.4,2.77,2.77,0,0,1,.42-3.1c.45-.42,1.45-1,3.12-.12a6.9,6.9,0,0,1,.91.6l1.15.13a14,14,0,0,0,3.48,0l2-4.1.77-.09a39.37,39.37,0,0,1,4.29-.25c.38,0,.61-.15,1.07-.46a5.33,5.33,0,0,1,1.24-.66c.15-.8.36-2.08.54-3.18.92-5.66,1.41-8.13,2-9.18.48-1.27,1.84-2.85,3.33-2.68a2.06,2.06,0,0,1,1.75,2.14c.09,1.35.68,6.68,1,9.17a3.71,3.71,0,0,1,2.68.8l.08,0c1.56.43,2.18,1.51,2.09,3.6,0,1-.11,1.86-.16,2.52a2,2,0,0,1,1.8,1.3,13.16,13.16,0,0,1,.48,1.74c0-1.14.07-2.54.09-3.89a6.07,6.07,0,0,1-.59-2.21v-.13a3.26,3.26,0,0,1,.88-2.58,3,3,0,0,1,1.47-.75,2.27,2.27,0,0,1,.91-1.8c1.2-.84,2.66,0,3.14.32a21.66,21.66,0,0,0,4.19,1.93,13.59,13.59,0,0,1,3.32,1.5,2.87,2.87,0,0,1,2.27.4,2.37,2.37,0,0,1,.93,1.82,8.79,8.79,0,0,1,2.5-.28l.3-8.56c-.31-1.18-.91-4.15.48-5.62a2.7,2.7,0,0,1,2.69-.7l.26.06c2.77.63,3.33.74,4.53.56A26.8,26.8,0,0,0,255,240.9c3.68-1.81,7-3.32,9.41-3.51,1.41-2,4-3.76,6.34-3.77,1.49-.92,3.65-2,4.06-2.18l.15-.09a3.45,3.45,0,0,1,1.31-2.9c1.12-.74,2.54-.41,3.89.14a8.55,8.55,0,0,1,3.57-1.25,2.76,2.76,0,0,0,1.11-.27,3.12,3.12,0,0,1,1.19-.33h.68a4,4,0,0,0,1.42-.14.91.91,0,0,0,.09-.14,2.57,2.57,0,0,1,2-1.33,9.75,9.75,0,0,0,2-.66c.71-1.11,2.59-3.63,5-3.76l.55,0c2-.14,4.56-.32,8.72,2.32l.1.07c2.33,1.77,2.55,2,2.92,2.6,0,.06.09.14.17.24s.71.62,2.38.81a12.76,12.76,0,0,0,5-1.2c1.07-.63,4.29-3.19,4.6-5.42l0-.16a2.29,2.29,0,0,1,2.25-2.05l.08,0a3.09,3.09,0,0,1,3.82,2.42c.38,1.57.85,3.82,1.12,5.16l.13.63a4.72,4.72,0,0,1,1.2,1.5c.18.43,1.14,2.94,1.68,4.37a2.53,2.53,0,0,1,.9.28,2.27,2.27,0,0,1,1.09,1.4c.25.76,3.62,8,6.15,13.45a8.21,8.21,0,0,0,2-3,16.17,16.17,0,0,0-.42-7.87,26.14,26.14,0,0,0-2.7-5.88c-1.42-1.13-4.88-9.76-4.9-9.83l-.15-.66.42-.53a12.27,12.27,0,0,1,.89-1,4,4,0,0,0,.53-.61,4.6,4.6,0,0,1,0-.83c0-.1,0-.24,0-.31l-.1-.09a3.57,3.57,0,0,1-1.47-2.28,4.07,4.07,0,0,1-1.19-1.08c-1.54-2.11-.87-3.4-.33-4a5.21,5.21,0,0,0,.58-.78c0-.17-.06-.41-.1-.75a2.28,2.28,0,0,1-1.23-1.05c-.41-.71-1.5-2.6-1.7-2.88a5,5,0,0,1-1.63-3.56c0-.55,0-1,0-1.42-1.05-.72-2.9-2.15-3.49-3.72l0-.06h-.09a4.26,4.26,0,0,1-.64,0,4.74,4.74,0,0,0-.71,0,5.13,5.13,0,0,1-1.91-.08,4,4,0,0,1-.81-.34h0a6.83,6.83,0,0,0-1.09.1,5.49,5.49,0,0,0-.22.61,2.55,2.55,0,0,1,.31,1.08c0,.2,0,.37.07.5a2.06,2.06,0,0,1-.59,2.09,3.22,3.22,0,0,1-.75.47,1.79,1.79,0,0,0-.57.38,4.6,4.6,0,0,1-1.92,1.23l-.1,0c-1.08.44-2.21-.11-3-1.45-.66-.2-1.33-.39-1.71-.48l-.15.06-.56.23-.17.07a3,3,0,0,1-2.48.28,1.72,1.72,0,0,1-.87-.94.78.78,0,0,0-.32,0,3.84,3.84,0,0,1-1.09.1c-.09,0-.23,0-.57,0a3,3,0,0,1-2.32-.62,1.89,1.89,0,0,1-.55-1.06l-.84.07.22-2-2.3-.19,1.25-2a2.23,2.23,0,0,0,.17-.35,8.52,8.52,0,0,1-1.44-.28l-1-.3v-.76l-2.25,0,.18-4.29A16.5,16.5,0,0,1,297,183a5.25,5.25,0,0,0-.08-1.66,10,10,0,0,1-.14-1.67s-.18-.15-.95-.32a25.3,25.3,0,0,0-7.19.84,6.45,6.45,0,0,0-.71.4c-.82.52-1.23.56-2.79.5a10.26,10.26,0,0,0-1.57,0l-2.44,2.09.35-3.58H280l.32-1.75h-.79l.4-3.85H268.56v-2.5h-1.24l-.26,3.66-2,.46v1.91l-.83,0v.42l-3.95.71v-1.86l-1.63,0v-1.49l-1.33-.27.35-1.35h-3.87v-2.11h-1.91v-2.07h-4.17V158.39l-1.95-.44V156l-4.33.2v-2.05h-1.75v-4.46h2.5V147.4l1.23-1.48-1.15-5a3.66,3.66,0,0,1,1.46-2.75c.09-.07.14-.2.23-.49a2.14,2.14,0,0,1,1.91-1.72l.13-.21c.14-.21.25-.35.34-.47s.16-.2.28-.86a8.8,8.8,0,0,1,.26-1l-.33-.25-.08,0c-1.65-.33-1.56-2-1.52-2.59,0-.2,0-.44,0-.71,0-.9.19-7.72.29-11.32a6.12,6.12,0,0,1-1.1.1c-.42,0-.74,0-1,0a2.41,2.41,0,0,1-2.51-1.05c-1.1-1.49-.8-2.92.06-4.74a8.72,8.72,0,0,0,.53-1.8c.28-1.31.64-2.93,2.36-3.41a53.2,53.2,0,0,1,7.19-.56c2.23-.11,4.54-.22,5.57-.35a86.54,86.54,0,0,1,10.6-.41,14.19,14.19,0,0,0,2.27,0,4.62,4.62,0,0,0-.81-1.33c-.86-1.11-1-1.18-1.12-1.24a5,5,0,0,1-.46-.25c-1.11-.7-1.58-1.49-1.38-2.35a1.83,1.83,0,0,1,1.78-1.37,19,19,0,0,1,2.41-.13c0-.17,0-.36,0-.54l-.88-.55.33-4.23h.69v-2h1.27V90.5h1.79V88.39h2.3V86.56h1V83.43l1.33-.08c.32,0,.66-.05,1-.09.07-.54.14-1.25.17-1.72l-12.35,3.69-.92-5A6.24,6.24,0,0,1,263.77,77a32.92,32.92,0,0,1-.33-6.72,20,20,0,0,0-.21-3.54h-2.33V63.35l.47-.44a1.7,1.7,0,0,1,1.26-.42v-1h-.39l-.4-2.94h-1.53l.1-3.17a5.33,5.33,0,0,1-1.25-1.27,15.23,15.23,0,0,1-1.63-3.3c-.74-.75-2.56-2.86-2.21-5.28A10.51,10.51,0,0,1,258.08,40a14.33,14.33,0,0,1,1.33-1.37,5.71,5.71,0,0,0,1.72-2.21,18.34,18.34,0,0,0,0-5.64L261,29.28l4.63-.31c.29-.24.73-.58,1.36-1,.24-.16.44-.28.61-.39,0-.11,0-.25-.05-.44a4.75,4.75,0,0,1,0-.89l-.34-.05c-2.42-.34-6.88-.38-6.93-.38h-1.45l.1-3.3a4.39,4.39,0,0,0-.77-.16c-1.5-.19-5.06-.47-5.09-.47l-.48,0-1.91-1.71-10.42,4.45L224,32.22,200.8,34.67v-5.6h-2.42V27.2h-.27v1.95h-6v3.14h-7a7.42,7.42,0,0,1-2.4-.07,6.31,6.31,0,0,1-1.63-.49c0,.34,0,.74,0,1.2l0,1.48L157,34.16c-2.35,2.19-6.08,5.64-6.62,6l-.36.24h-.43s-.49,0-1.11-.07a5.12,5.12,0,0,1-.06,1.4c-.32,1.79-.71,4-2.67,4.77l-.28.08a3.75,3.75,0,0,1-2.79-.75,4.12,4.12,0,0,1-1.41-2.29h0c-1.69,0-5.2-.11-6.42-4.69-1.2-3.47-1.27-3.51-2.91-4.33a2.33,2.33,0,0,0-.85-.28,3.74,3.74,0,0,0,.27,1.67,36,36,0,0,0,2,5.28,3.43,3.43,0,0,1,.79,3.28c-.22.64-1,2.09-3.79,1.75a15.09,15.09,0,0,0-2.4-.16,4.39,4.39,0,0,1-2-.39,24.35,24.35,0,0,1-7-4.62l-.2-.2c0,.41-.05.73-.08,1,0,.47-.08.89-.09,1.58,0,.08,0,.14,0,.2a5.26,5.26,0,0,1,1.05,1.66,3.42,3.42,0,0,0,.68.94c1,1.09,1.67,2.38,0,4.44l-.2.26c-.92,1.15-1.47,1.84-2.43,1.94a3.28,3.28,0,0,1-2.4-1.11l-.13-.1a1.57,1.57,0,0,0-1.48-.51,7.87,7.87,0,0,1-1.47,0l-.58-.05c-1.44-.11-4.11-.31-4.48-3.73-.28-1.1-.42-1.85-.51-2.35-.13-.73-.15-.75-.25-.87a3.14,3.14,0,0,1-.32-3.25,3.28,3.28,0,0,1,.38-.61,7.62,7.62,0,0,1-2,0c-2-.36-6.11-4.5-7.18-6.08a4.45,4.45,0,0,1-.78-3.68,2.51,2.51,0,0,0,.06-.42,4.3,4.3,0,0,0-.62-.67l-7.6,1.26a3.59,3.59,0,0,0-.9,1.3l-.23.63-.64.22c-2.29.79-6.45,2.65-7,3.36-1.27,1.59-1.79,1.82-4.64,2a38.69,38.69,0,0,1-7-.06,4.76,4.76,0,0,0-3.43,1.13l0,.08a3.67,3.67,0,0,1-2,2.41A3,3,0,0,1,60,41.52c-1.18-.47-1.5-.21-1.91.12s-1.8,1.44-3.13.71c-1.13-.62-1.36-2.09-1.29-3.68a15.2,15.2,0,0,0-2.74.45,11.06,11.06,0,0,0,.7,2.47c2,4.26,1.91,5.63,1.46,6.47a3.2,3.2,0,0,1-1.46,1.3c-.52.28-.75.4-.93,1-.1.36-.16.64-.21.87-.32,1.39-.59,1.64-2,2.72l-.09.07A16.6,16.6,0,0,1,46,55.64c-.26.15-.55.32-.95.57l-.66.4c-.46.28-.46.28-1.37,1.3-1.36,1.54-2.37,2.31-4.24,2.21a2.32,2.32,0,0,1-1.78-.9c-.69-.89-.7-2.19-.42-3.86-.5-.39-1-.75-1.26-.93-.19.19-.42.46-.57.64a5,5,0,0,1-1,1,6.83,6.83,0,0,1-4.77.51,4.81,4.81,0,0,1-3-2.66l-.12-.33c-.38-1.23-1-3.3-1.49-3.53,0,0-.36,0-1.21.78-.78,1.25-1.31,2.28-1.74,3.12a6.64,6.64,0,0,1-1.91,2.68c-.62.41-2,1.37-8.52-2.72a7.15,7.15,0,0,0-2,1.3,4,4,0,0,0,1.09.41,4.05,4.05,0,0,1,2.69,1.67c.11.19.21.33.29.45.73,1.08.75,1.66.49,3.67-.06.49-.12.87-.17,1.18-.12.79-.12.79.36,1.65a5.27,5.27,0,0,0,.5.78,3.27,3.27,0,0,0,.34-.35,4.46,4.46,0,0,1,4.23-1.59,4.18,4.18,0,0,1,3.09,3l.08.25v.26A4.39,4.39,0,0,0,22.09,68,1.92,1.92,0,0,1,22,69.52a3.26,3.26,0,0,1-.11,2.76,4.28,4.28,0,0,1-.72,1.16l.06,1c1.35.33,1.86,1.18,1.86,2s-.17,14.51-.18,15.1v.94L7.67,98.59v.63l25.1-1.6.12,1,24.5-1.15.32.16a15.73,15.73,0,0,0,4,1.41l8.58.3,1.4,0-.31,12.2c9,7,12,9.42,13,10.3h0l1.27,0h.52v-.16a1.94,1.94,0,0,1,2.08-2.07c.73,0,1.61,0,2.33,0a2.28,2.28,0,0,1,.55-1.4,1.63,1.63,0,0,1,1.22-.55l6.58,0a2.38,2.38,0,0,1,.35-.72,2.55,2.55,0,0,1,2.21-1h.92c1.28,0,2.73-.06,3.23,1.35.1.29.3.83-.16,8.31l0,.39-.22.32L95.17,141.16l-.16.24-.25.16c-1.46.93-5.17.94-5.21.94a2.33,2.33,0,0,1-1.37-.4,1.91,1.91,0,0,0-.77-.08,15.62,15.62,0,0,1-1.94-.11,6.69,6.69,0,0,0-1.36,0c-1.13.06-2.87,0-3.8,0h-.49l-.24.11a16.62,16.62,0,0,0-.34,2.18s.18.28.29.46a6.67,6.67,0,0,1,.5.94s.93,2.56.3,4c-.22.51-.68,1.31-1,1.77l0,10.85a1.66,1.66,0,0,1,.73.83c.33.83-.32,7.4-.5,7.91a2.4,2.4,0,0,1-.4.73c0,1-.15,7.88-.19,9.56.26.51.74,1.47,1,2a6.21,6.21,0,0,1,.34,1.82,6.17,6.17,0,0,0,.07.65,5.07,5.07,0,0,1,.1,2.93,2,2,0,0,1-1.56,1.49,3.09,3.09,0,0,0,0,.53c0,.35,0,.67,0,.94.05.75.17,2.51-1.48,2.76a2.69,2.69,0,0,1-.52,0c-.09.45-.2,1-.27,1.59l-.17,1.19-1.2,0a4,4,0,0,0-.64.08,8.49,8.49,0,0,0-.09,1.33c0,.16-.36,20-.48,26.14a19.91,19.91,0,0,0,.38,2.73,2.33,2.33,0,0,1-.06,2.91,3.15,3.15,0,0,0-.36,1.4c0,.44,0,3.89,0,5.91.18,5.32.2,5.64-.93,6a7.34,7.34,0,0,1-3.83.5c-1.87-.12-3.57-.13-4.53-.12l-5.56,9.82a26.59,26.59,0,0,0-.47,3.73,5.69,5.69,0,0,0,1.81,1.32,2.85,2.85,0,0,0,.4.09c.71.15,2.18.45,2.48,1.95l0,.1c.08.61.12,1.79.15,2.67,1.34.41,1.65.9,1.79,1.12.33.52.39,1.14.2,3.27a2.23,2.23,0,0,1,1.19.34,2.38,2.38,0,0,1,1.06,2.06c0,.08,0,.17,0,.26a4.4,4.4,0,0,1,2.9.63,2.2,2.2,0,0,1,.87,1.72v.11c-.08,1.47-.31,10.17-.32,10.26l0,1.38H69L68.74,290c1.37,0,3.12.07,3.67.16a3.18,3.18,0,0,0,1.09-.7,24,24,0,0,0,.18-4.16,2.83,2.83,0,0,1,.42-2.21,1.7,1.7,0,0,1,1.32-.62h.28c.78-.05,3.15-.2,3.43,1.79h0c1.69,0,2.11.74,2.27,1l.13.22.06.32a2.91,2.91,0,0,1,1.67,2.17,2.81,2.81,0,0,0,.22.77,3.81,3.81,0,0,1,.31,1.23c0,.64-.17,14.88-.24,19.22v.44l-.26.36a3.35,3.35,0,0,1-1,.93c.09,3.81-.23,7.84-.24,8l0,.37-.2.31a8.08,8.08,0,0,1-.61.81c.26,1.7.29,2.84-.36,3.64a2.13,2.13,0,0,1-1.47.76,2.74,2.74,0,0,1,0,.32,3.71,3.71,0,0,1,.39,1c0,.16.1.37.18.64l.74,2.49A6,6,0,0,1,81.41,329.22Zm89.21-41.72h0Zm-28-6.42h0ZM188,274.84Zm1.68-2.82ZM64.87,270.55Zm178.71-11.26Zm-.44-.45v0ZM58.6,257.57m180-.66h0Zm-9.91-3.65ZM72.13,241l-.06,0Zm268.59-12.8Zm-.16-.14Zm-266.21-.69h0Zm258.92-19.15ZM84.68,122a2.83,2.83,0,0,1,.37.34A1.42,1.42,0,0,0,84.68,122Zm16.79-3.23Zm1.57-.74h0ZM269.32,107s0,0,0,0Zm.65-4.87h0ZM19,71.52Zm114-30.5h0Zm0,0h0Zm0,0h0Zm0,0h0Zm0,0h0Zm0,0h0Zm-22.36-2.31ZM179.86,31Zm-1.72-.31h0Zm-.06-.19h0Z"/></svg>