<svg id="Layer_1" data-name="Layer 1" xmlns="http://www.w3.org/2000/svg" viewBox="0 0 350 350"><defs><style>.cls-1{fill:#999;}.cls-2{fill:#f90;}</style></defs><title>M</title><path class="cls-1" d="M157.22,298.6h-4.8L151,297.17s-3-.57-4.22,0-8.37,4.15-10.31,4.15-4.22-.72-7.3-2.51-7.37-1.57-8.88-4-5.51-15.6-5.87-18-.36-5.94-2.15-8.8-8.87-12.53-10.16-14-5.22-4.44-5.58-5.3-1.22-3.29-1.65-4.08-3-2.15-4-3.08-2.15-2.93-.43-3.86,2.43-2,1.07-5.44-4.08-3-5.51-4.94-3.08-9.09-5-10.45-1.86-3.79-1.5-5.87,3-8.16,1.43-10.66-2.22-5.65-2.5-5.65-4.8.64-6,.86-6.58,1.5-8.37.07-8.73-5.37-8.59-8,1.86-6.3,2.15-7.09-.64-2.51-1.86-2.93-6.58-1.79-8.23-4.15,4.15-4.58,4.37-4.51,7.37,0,7.37,0,2.08-.93,2.08-1.36-.36-2.58-.43-4.08-2.36-3.72-3-4.87-2.79-4.08-3.29-5.87-.36-5.73.36-6.37,3.94-1.86,4.72-2.86,4.58-2.08,4.94-3.86,1.72-6.23,2.36-7,4.94-2.93,5.58-3.36,1.29-1.5,3-1.93A8.86,8.86,0,0,0,78.49,126l1.79-1.5s1.43-4.08,1.43-4.44-1.07-1.5-1.07-1.5-1.72-1.86-.57-2.93a17,17,0,0,0,1.65-1.72s-.36-1.86-1.07-4.58,1.57-9.38,2.29-10.59a25.12,25.12,0,0,1,4.51-4.87,29.65,29.65,0,0,0,3.15-2.65l4.22,1.93,4.51-1.36s3.44-1.72,4.87-.57,2.08,2.93,3.65,2.93,4.37.57,4.22-.79,3.72-2.72,4.15-3S121.65,88,121.65,88a54.54,54.54,0,0,1,5-2.22c2.65-1,4-1.43,4-1.43a7.09,7.09,0,0,1,3.44-1.93c1.86-.29,3.2-2.86,2.64-3.79s-2-2.79-2-3.65,2-5.65,2-6.08a37.65,37.65,0,0,1,2.59-6.08A3.27,3.27,0,0,1,142,61.76c1.15.21,3.86,1.07,5.65,1.29s4.94.29,5.08.07A3.27,3.27,0,0,0,154,60.83c0-1.36.07-6,.93-6.23s4,1.29,5.08,1a4.2,4.2,0,0,0,2.43-2.51c.29-.93,3.72-6.73,6-7.66s5.8-2.51,6.23-3.58,4.94-2.72,5.65-3.15A73.33,73.33,0,0,1,187.42,36c1.07-.29,7.66-1.79,8.16-1.79s4.65-1.93,5.08-2.08,4.37-1,4.37-1l6.23-1.5,6.08-4.37,4.37-.5,3.94-1.22L229.79,19l7.59-8.23,3.72-3.58s2.15-1.22,2.65-.93a11,11,0,0,1,2.51,3.08c0,.43,1,.5,2.15.21a3.82,3.82,0,0,0,1.79-1,2.82,2.82,0,0,1,.86,1.57c.07.86-.64,4.37,0,5.08s3.65,2.72,3.65,4.15,1.57,2.22,1.72,3.36-2.22,3.58-2.86,4.37-1,2.72-.43,3.36,3.79,4.15,3.86,5.44,1.79,1.43,3.51,2.15,3.08-.21,4.72,2.29,1.36,3.79,2,4.15,1.15.5.86,2-.86,5.15-.57,5.87.36,1.57,2.08,1.79,2.51.14,4.72.5a24.92,24.92,0,0,1,4,1A2.74,2.74,0,0,0,281,57.54c2.22.14,3.58-.86,3.72.14a11,11,0,0,0,.79,3.36c.72,1.93-.29,4.08.86,4.8a28.07,28.07,0,0,0,3.36,1.86c.86.36,3.72-.86,3.94,1.65s-2.22,4.44-2.22,5.8.79,2.36-.72,4-6.23,6.37-7.23,6.8-4.94.86-5.51.07-3.36-1.57-4.8-1.36-2.86.64-3.22-.29a17.12,17.12,0,0,0-4.29-4.87c-1.15-.57-4-2.15-4.65.07s-1.86,8.16-2.15,9.45a105,105,0,0,0-.79,21c.64,10.31,1.57,10.66,2.86,11.67A8.67,8.67,0,0,1,264,125.1a15.26,15.26,0,0,1,.64,4.51l1.86,1.36c.29.21,1.72.86.07,3.51s-2.36,5.87-2.86,6.66-2.93,5.94-3.22,6.8-.86,5.51-.86,5.51l.29,4.65-7.8,5.51a37.31,37.31,0,0,0-1.43,3.86c-.21,1-.57,3.44-.79,3.86s-.86,1.65-.29,1.86,4,2.51,4,2.51l6.87,3.65s2,1.29,2.15,1.86.5,2.43.72,3.22a15.66,15.66,0,0,0,.79,2.79,16.66,16.66,0,0,1,2.36,1.15,14.88,14.88,0,0,0,2.36,1.22,16.22,16.22,0,0,1,1.65,2c.36.64,3,6.94,3,6.94l2.36,1.5a11.63,11.63,0,0,1,1.43,1.43,34.73,34.73,0,0,0,3.36,2.86l4.37,4.51,2.29,5.37,1.29,3.94s-.07,2.58.36,2.93,4.67,2.93,4.67,2.93l2.13,2.65,1.07,2.93,1.93,1.93,1.86,3.15-1.65.64,1,3,2.79,5.22v1.86l-2.86.86-4.08,1.36s-1.93,2.93-2.15,3.36a23.65,23.65,0,0,1-1.36,2.65c-.5.72-1.79,3-2.22,3.15a13.26,13.26,0,0,1-3.58-.29l-4.65-1.22s-3.51-2.29-4.58-2.43-4.8-1.43-5.58-1.43a32,32,0,0,0-5.65.43,15.81,15.81,0,0,1-3.22,1c-1.86.36-2.58.36-4.44.86s-3.94.79-4.72,1.29-1.93,1.43-2.72,1.93-3.29,2-3.29,2L245,262.24s-.43,2.72-.43,3.22a27.08,27.08,0,0,1-2,3.79c-.14.29-1.79,1-2.51,1.57a6.65,6.65,0,0,0-1.43,3.29c0,.57-.43,4.44-.5,4.8a22.4,22.4,0,0,1-1.65,2.65c-.29.43-1.07,1.79-1.07,1.79a36.33,36.33,0,0,0-2.15,3.08c-.14.43-.79,3.22-.86,3.86s.29,1.29,1.07,2.22a8,8,0,0,0,1.93,1.65c.43.29,2.79,1.5,2.79,1.5s3.29,1.22,3.58,1.29a38.7,38.7,0,0,1,2.43,4.37s0,4.58.14,5.3,1.07,2.43.93,3.08-1.22,1.07-1.57,2a5.36,5.36,0,0,0-.72,2.36,4.91,4.91,0,0,0,1.36,3.44c1,1,1.93,1.07,2.79,2.08s3,4.08,3,4.08.57,4.15.57,5.15a21.93,21.93,0,0,1-.93,4c-.21.79-.64,6.44-5.65,8.73s-15,2.58-15.17,1.86-5.58-4.72-6.44-6.51-5.73-4.37-9.16-3.44-7.09,2.22-8.8,4.58-4.51,6.23-12.45,3.65c-2.79-1.5-2.65-4.87-2.65-5.22s.86-5.3-1.15-6.58a7.86,7.86,0,0,1-4.15-6.08c-.64-3.58-1.15-6.37-3.29-7.09s-3.94-1.43-4.65-2.79-6.08.86-8-.21-3.58-3.79-4.37-7.16-1.72-5.51-3.94-6.37-2.72-1.86-2.72-1.86"/><path class="cls-2" d="M231.72,345.16a9.5,9.5,0,0,1-3.16-.35,1.64,1.64,0,0,1-.82-.78c-.26-.31-1.21-1.15-1.92-1.78-2.29-2-3.95-3.54-4.53-4.75s-4.68-3.45-7.51-2.68-6.52,2-8,4c-1.8,2.47-5.13,7.05-14,4.17l-.24-.1a6.87,6.87,0,0,1-3.39-6.44c0-.1,0-.27,0-.51.46-4.05-.36-4.81-.54-4.92a9.23,9.23,0,0,1-4.78-7c-.56-3.1-1-5.54-2.35-6-2.19-.73-4.24-1.53-5.28-3.17a14.39,14.39,0,0,0-2.36.24c-1.92.29-3.9.58-5.27-.18-2.28-1.27-4.17-4.28-5.06-8.07-.79-3.4-1.6-4.8-3.07-5.37a8.61,8.61,0,0,1-2.58-1.48h-5l-1.53-1.53a7.82,7.82,0,0,0-2.94,0l-.62.3c-5.86,2.83-8.84,4-10.29,4-2.3,0-4.85-.86-8-2.7a15.89,15.89,0,0,0-3.75-1.36c-2.18-.59-4.43-1.21-5.62-3.13-1.64-2.65-5.71-16.13-6.07-18.58-.08-.51-.14-1.07-.2-1.66-.23-2.15-.49-4.6-1.75-6.6-1.75-2.8-8.76-12.36-10-13.76-.5-.55-1.52-1.44-2.51-2.3-2.17-1.89-3-2.67-3.32-3.4-.12-.29-.3-.77-.5-1.29-.33-.88-.84-2.21-1.08-2.65a15.38,15.38,0,0,0-1.74-1.26,17,17,0,0,1-2-1.46,5,5,0,0,1-1.74-3.91,3,3,0,0,1,1.6-2.24c1-.54,1.55-.84.43-3.67a4.55,4.55,0,0,0-2.68-2.62,6.91,6.91,0,0,1-2.65-2,21.58,21.58,0,0,1-2.08-4.66c-.68-1.84-1.83-4.93-2.6-5.48-3-2.09-2.3-6-2.08-7.27a23,23,0,0,1,.65-2.41c.63-2.07,1.81-5.94,1-7.26a23,23,0,0,1-2.11-4.74l-.05-.15c-1.39.19-4,.57-4.91.73l-.51.1c-3.58.71-7.14,1.16-9-.32-.35-.28-1-.71-1.7-1.2-4.14-2.81-7.56-5.35-7.41-8a23.7,23.7,0,0,1,2-6.91l.2-.48a2,2,0,0,0-1-1.22l-.7-.22c-2.12-.66-6.53-2-8.22-4.45a3,3,0,0,1,.15-3.62c1-1.35,4.19-3.17,5.55-3.1h0c.42,0,3.8,0,6.88,0,.33-.16.67-.34.92-.49l-.06-.48c-.11-.86-.26-2-.31-3a8.81,8.81,0,0,0-1.68-2.66,13.53,13.53,0,0,1-1.14-1.58c-.17-.3-.45-.72-.77-1.22a21.63,21.63,0,0,1-2.65-5c-.47-1.69-.67-6.5.77-7.81a10.35,10.35,0,0,1,2.09-1.23,12.57,12.57,0,0,0,2.47-1.46,7.21,7.21,0,0,1,2.26-1.57c.69-.37,2.31-1.24,2.4-1.7.29-1.45,1.69-6.46,2.65-7.63.53-.65,1.92-1.47,4.64-2.95.52-.28,1.11-.6,1.25-.7a3.19,3.19,0,0,0,.38-.33,6.5,6.5,0,0,1,3.07-1.8,7.54,7.54,0,0,0,2.42-1.11l1.44-1.21c.45-1.3.93-2.73,1.14-3.42-.17-.22-.41-.51-.61-.71-1.29-1.4-2-3.54-.51-4.94.48-.45.84-.82,1.09-1.09-.16-.76-.47-2.13-.91-3.82C78.41,106.4,80.92,99.32,81.7,98s4-4.85,5.1-5.42a29.13,29.13,0,0,0,2.81-2.41l.69-.65,4.6,2.11,3.89-1.17c.92-.44,4.33-1.91,6.27-.36a10.62,10.62,0,0,1,1.5,1.54c.62.74.94,1.08,1.27,1.08s.81,0,1.27.06a15.35,15.35,0,0,0,1.57.05c.34-1.7,2.7-2.76,4.32-3.48l.48-.22c.31-.21,2.21-1,5.59-2.37a55.7,55.7,0,0,1,5.1-2.25c1.95-.74,3.2-1.17,3.76-1.35a8.11,8.11,0,0,1,4-2.09,2.44,2.44,0,0,0,1.57-1.78l-.42-.63c-1-1.49-1.71-2.62-1.71-3.63,0-.65.36-1.73,1.36-4.44.27-.74.61-1.65.66-1.87a1,1,0,0,0,0,.2,29.72,29.72,0,0,1,3-7.06,4.67,4.67,0,0,1,3.91-1.46c.47.09,1.12.26,1.87.45a32,32,0,0,0,3.69.82,31.89,31.89,0,0,0,4.22.18,1.41,1.41,0,0,0,.57-1c0-6.56.95-7.34,2-7.6a6.06,6.06,0,0,1,3,.49,11.22,11.22,0,0,0,2.1.51,2.93,2.93,0,0,0,1.38-1.54c.35-1.14,4-7.39,6.83-8.55,4.79-1.95,5.46-2.84,5.49-2.88.41-1.05,1.92-1.87,5.13-3.27.42-.18.94-.41,1.07-.49a69.35,69.35,0,0,1,7.45-2.87c.5-.13,7-1.66,8.34-1.82.48-.13,2.53-1,3.42-1.42s1.22-.54,1.4-.6c.45-.15,3.31-.78,4.51-1l5.93-1.43,6.16-4.42,4.6-.53,3.45-1.06L236.34,9.84,240.4,6c2.85-1.62,3.66-1.15,4.05-.93a13.06,13.06,0,0,1,2.87,3.27,4.4,4.4,0,0,0,.73-.12,2.49,2.49,0,0,0,1.08-.57l1-1.06,1.05,1a4.15,4.15,0,0,1,1.32,2.5,10.36,10.36,0,0,1-.11,1.74,15.07,15.07,0,0,0-.14,2.62l.63.54c1.79,1.49,3.27,2.86,3.27,4.45,0,.27.23.58.61,1.05a4.28,4.28,0,0,1,1.09,2.13c.18,1.47-1.14,3.11-2.76,5l-.41.48a2.83,2.83,0,0,0-.39,1.62l.06.07c3.39,3.79,4,5.18,4.07,6.06a7,7,0,0,0,1.27.5c.44.15.91.3,1.37.5a4.3,4.3,0,0,0,1.18.25,5,5,0,0,1,4.18,2.57A12.56,12.56,0,0,1,268,43.06c0,.12.07.23.1.33.95.53,1.74,1.34,1.35,3.39a29.33,29.33,0,0,0-.62,5.16l.09.24c.17.49.18.51.82.58s1.18.12,1.7.16c.83.06,1.68.13,3.07.35a26.16,26.16,0,0,1,4.26,1.07l.71.26.18.73c0,.14.31.72,1.36.79a7.64,7.64,0,0,0,2-.17,2.81,2.81,0,0,1,2.3.22,1.88,1.88,0,0,1,.76,1.31c0,.21.05.4.07.58a8.65,8.65,0,0,0,.64,2.5,8,8,0,0,1,.36,3.11,6.6,6.6,0,0,0,0,1,27.16,27.16,0,0,0,3,1.65l.58,0c1-.07,4-.27,4.31,2.9a7.67,7.67,0,0,1-1.56,4.71,5.92,5.92,0,0,0-.66,1.22,5.21,5.21,0,0,0,.09.76,4.36,4.36,0,0,1-1.17,4.18c-.59.64-6.19,6.49-7.72,7.15-.72.31-5.86,1.46-7.22-.4a6.81,6.81,0,0,0-3.44-.79l-.63.1c-1.36.24-3.4.59-4.13-1.28A17.6,17.6,0,0,0,265,80.78l-.18-.09c-1.66-.84-2.24-.89-2.44-.83,0,0,0,.05,0,.12-.49,1.7-1.36,5.78-1.83,8l-.3,1.39a105.35,105.35,0,0,0-.76,20.65c.58,9.3,1.36,9.9,2.18,10.53l.25.2a9.72,9.72,0,0,1,3.4,3.84,14,14,0,0,1,.74,4.33l1.31,1c1,.67,2.38,2.24.42,5.39a23.81,23.81,0,0,0-2.07,4.73,10.2,10.2,0,0,1-.8,1.94c-.43.67-2.81,5.71-3.07,6.49-.15.45-.52,3-.78,5.11l.33,5.31-8.12,5.73a30.11,30.11,0,0,0-1.19,3.24c-.07.33-.16.82-.25,1.35a12.92,12.92,0,0,1-.65,2.85l-.18.36c.9.53,2.23,1.4,3.36,2.15l6.91,3.68c2.48,1.59,2.67,2.37,2.76,2.71s.16.7.27,1.22c.15.7.32,1.52.44,2,.07.25.15.59.23,1s.19.8.28,1.14a9.54,9.54,0,0,1,2.14,1.09,12.91,12.91,0,0,0,2,1l.28.12.21.22a15.63,15.63,0,0,1,1.86,2.29c.34.61,2.13,4.84,2.9,6.67l2.13,1.36a13.16,13.16,0,0,1,1.63,1.63,31.76,31.76,0,0,0,3.13,2.63l.16.14,4.55,4.7,2.44,5.72,1.36,4.17v.25a12.94,12.94,0,0,0,.09,2c.69.45,2.57,1.62,4.26,2.65l.21.13,2.44,3,1,2.86,1.93,2,2.71,4.58-1.94.76.54,1.61,2.9,5.43v3.27l-3.87,1.16-3.57,1.19c-.83,1.26-1.67,2.57-1.8,2.81l-.19.41a17.83,17.83,0,0,1-1.27,2.41c-.13.19-.33.51-.55.86-1.18,1.89-1.66,2.58-2.38,2.82a13.33,13.33,0,0,1-4.37-.26l-4.67-1.22-.22-.06-.19-.12a22.8,22.8,0,0,0-4-2.22,24.1,24.1,0,0,1-2.83-.74c-.89-.26-2.24-.65-2.58-.68a31.5,31.5,0,0,0-5.17.36c-.29.1-.52.19-.75.28a12.23,12.23,0,0,1-2.66.77c-.68.13-1.21.21-1.7.29a22,22,0,0,0-2.64.54c-.66.18-1.35.33-2,.48a12.58,12.58,0,0,0-2.33.64c-.37.23-.82.57-1.27.91s-1,.76-1.44,1c-.65.42-2.48,1.51-3.11,1.89l-2.25,2.8c-.17,1.13-.35,2.37-.35,2.64,0,.57-.27,1.23-1.88,3.95l-.28.49c-.26.53-.76.8-1.67,1.31a10.84,10.84,0,0,0-1.21.73,6.38,6.38,0,0,0-.9,2.22c0,.63-.44,4.59-.53,5s-.35.94-1.68,2.9l-.17.26c-.22.32-.81,1.35-1,1.71l-.1.15c-.79,1-1.74,2.36-2,2.73-.16.55-.72,3-.78,3.51,0,0,0,.24.75,1.15a6.39,6.39,0,0,0,1.51,1.3l.13.09c.22.15,1.5.82,2.58,1.38,1.49.55,3.14,1.15,3.38,1.22.64.16.89.22,3.33,5.1l.15.3v.33c0,2.08,0,4.59.12,5,0,.13.2.57.32.86a5.13,5.13,0,0,1,.6,2.79,3.1,3.1,0,0,1-1.09,1.6,2.26,2.26,0,0,0-.54.61c-.11.29-.22.54-.33.76a2.11,2.11,0,0,0-.29,1.09,3.56,3.56,0,0,0,.94,2.43,4.77,4.77,0,0,0,1.09.78,6.15,6.15,0,0,1,1.77,1.38c.9,1,3,4.06,3.09,4.19l.19.28,0,.34c.1.71.59,4.3.59,5.35a16.35,16.35,0,0,1-.82,3.83l-.16.55c0,.06,0,.17-.06.32-.31,1.73-1.25,7-6.37,9.33C241.29,344.42,235.43,345.16,231.72,345.16ZM230.36,343h0Zm-.41-.73c1.81.24,9.51-.12,13.64-2,3.77-1.72,4.49-5.74,4.76-7.25,0-.26.08-.45.11-.56l.17-.6a17.93,17.93,0,0,0,.71-3c0-.61-.3-3-.51-4.62-.7-1-2.12-3-2.72-3.69a3.56,3.56,0,0,0-1-.77,7.44,7.44,0,0,1-1.68-1.23,6.29,6.29,0,0,1-1.78-4.44,4.86,4.86,0,0,1,.56-2.29c.08-.17.17-.36.25-.58a4.45,4.45,0,0,1,1.27-1.68l.18-.16c-.09-.31-.28-.79-.4-1.08a8.4,8.4,0,0,1-.47-1.37c-.14-.71-.17-3.68-.17-5.24-.69-1.36-1.49-2.88-1.87-3.49L237.75,297l-.16-.07c-.57-.29-2.47-1.28-2.93-1.58l-.12-.08a9.15,9.15,0,0,1-2.11-1.83,4.46,4.46,0,0,1-1.4-3.29c.08-.75.75-3.63.92-4.16.06-.19.21-.64,2.31-3.41.18-.32.81-1.38,1.08-1.79l.18-.27c.7-1,1.12-1.69,1.27-2,.1-.72.45-3.94.46-4.42,0-.81.78-3.45,2-4.4a12,12,0,0,1,1.61-1l.67-.38.22-.37a29,29,0,0,0,1.49-2.71c0-.73.32-2.48.44-3.25l.06-.37,3-3.78.22-.13s2.48-1.49,3.26-2c.37-.24.82-.57,1.28-.91s1-.76,1.44-1a10.91,10.91,0,0,1,3.24-1c.61-.13,1.26-.28,1.88-.44a24.6,24.6,0,0,1,2.93-.61c.46-.07,1-.15,1.61-.28a9.55,9.55,0,0,0,2.13-.61c.27-.11.55-.22.91-.34,1.47-.49,6.06-.5,6.1-.5a15.41,15.41,0,0,1,3.34.8c.91.27,2,.6,2.43.65,1.16.15,3.54,1.59,5,2.53l4.41,1.15a16,16,0,0,0,2.61.29c.3-.41.79-1.19,1-1.61s.48-.77.63-1a16.94,16.94,0,0,0,1-2l.23-.49c.23-.46,1.64-2.61,2.23-3.51l.27-.41,4.54-1.52,1.89-.57v-.45l-2.72-5.13-1.43-4.28,1.35-.53-.92-1.56-2-2-1.1-3-1.83-2.27c-1.64-1-4.2-2.57-4.62-2.93s-.93-.77-.87-3.81L286,214.71l-2.16-5.07-4.11-4.25a31.22,31.22,0,0,1-3.52-3,10.23,10.23,0,0,0-1.17-1.18l-2.66-1.69-.17-.41c-1.08-2.56-2.7-6.36-2.94-6.8a12.74,12.74,0,0,0-1.24-1.51,13.4,13.4,0,0,1-2.4-1.28,9,9,0,0,0-1.48-.71,4.57,4.57,0,0,1-.79-.37c-.62-.41-.78-1.1-1.16-2.75-.08-.33-.15-.63-.21-.85-.13-.49-.32-1.37-.48-2.13-.08-.36-.14-.69-.2-.92a11.13,11.13,0,0,0-1.54-1.17l-6.94-3.69c-1.51-1-3.38-2.2-3.75-2.37a1.71,1.71,0,0,1-1-1,3.49,3.49,0,0,1,.51-2.76c.1-.26.3-1.44.43-2.14s.19-1.09.27-1.45a35.07,35.07,0,0,1,1.51-4.12l.16-.37,7.49-5.29-.25-4,0-.13a57.33,57.33,0,0,1,.92-5.79c.33-1,2.82-6.25,3.37-7.11A13.69,13.69,0,0,0,263,139a26.16,26.16,0,0,1,2.34-5.29c.65-1,.56-1.43.56-1.44l-.13-.08-.15-.1-1.84-1.35-.58-.42v-.72a13.31,13.31,0,0,0-.53-4,7.23,7.23,0,0,0-2.53-2.71l-.24-.19c-1.72-1.32-2.65-2.48-3.28-12.6a106.39,106.39,0,0,1,.82-21.44l.29-1.36c.51-2.39,1.36-6.38,1.88-8.17a2.85,2.85,0,0,1,1.61-1.92c1.67-.72,3.67.29,4.87.89l.17.09c1.38.69,4,3.85,4.83,5.29a10.59,10.59,0,0,0,1.15-.16l.69-.11c1.56-.23,4.77.45,6,1.71a10.61,10.61,0,0,0,4-.32,68.64,68.64,0,0,0,6.74-6.45,1.65,1.65,0,0,0,.47-1.82,7.46,7.46,0,0,1-.12-1.24,5.31,5.31,0,0,1,1.09-2.7,5.23,5.23,0,0,0,1.14-3,.76.76,0,0,0-.06-.29,4.12,4.12,0,0,0-1.23,0,3.86,3.86,0,0,1-1.77-.15,29.8,29.8,0,0,1-3.57-2c-1.32-.82-1.28-2.28-1.25-3.46a5.63,5.63,0,0,0-.19-2,11.86,11.86,0,0,1-.75-2.77,10,10,0,0,1-2.52.19,4.27,4.27,0,0,1-3.6-2.13,24.23,24.23,0,0,0-3.19-.75c-1.27-.2-2-.26-2.83-.32-.56,0-1.12-.08-1.84-.17a3.32,3.32,0,0,1-3.14-2.45l-.08-.22c-.46-1.14.12-4.66.5-6.66a3.47,3.47,0,0,0,.05-.39l-.06,0-.15-.08a2.81,2.81,0,0,1-1.22-1.85A9.71,9.71,0,0,0,264,41.14a2.31,2.31,0,0,0-2.14-1.31,6.86,6.86,0,0,1-1.94-.45c-.4-.17-.8-.3-1.18-.42-1.31-.43-3.09-1-3.2-3,0-.1-.36-1.06-3.36-4.41l-.15-.17c-1.17-1.31-.58-4,.39-5.2l.48-.55A11.55,11.55,0,0,0,255,22.88a4.52,4.52,0,0,0-.47-.66,4.44,4.44,0,0,1-1.24-2.83c-.13-.5-1.67-1.79-2.25-2.27a10.92,10.92,0,0,1-1-.93c-.8-.89-.71-2.37-.46-4.71,0-.26.06-.57.08-.82a5.31,5.31,0,0,1-.87.3c-.83.21-2.35.45-3.25-.26a1.7,1.7,0,0,1-.62-1,15,15,0,0,0-1.6-2,11,11,0,0,0-1.32.62l-3.59,3.45-11.94,13-4.56,1.38-4,.46-6,4.31-6.5,1.57c-1.88.41-4,.88-4.26,1L200,34c-3.27,1.44-3.87,1.65-4.38,1.65S189,37,187.79,37.37c-1,.27-6.11,2.22-6.73,2.57a14.42,14.42,0,0,1-1.39.65A20.25,20.25,0,0,0,176,42.5c-.27.63-1.05,1.85-7,4.25-1.65.67-4.86,5.83-5.19,6.77A5.61,5.61,0,0,1,160.37,57c-.9.24-2,0-3.59-.55l-1.06-.31a28.29,28.29,0,0,0-.31,4.71A4.25,4.25,0,0,1,153.85,64l0,0c-.31.4-1.25,1-6.35.44a33.75,33.75,0,0,1-4.07-.89c-.68-.18-1.28-.34-1.67-.41a1.86,1.86,0,0,0-1.32.62,47.79,47.79,0,0,0-2.25,5.33,14.29,14.29,0,0,1-.8,2.44c-.37,1-1.06,2.87-1.17,3.44a12.79,12.79,0,0,0,1.22,2.06c.22.33.42.63.56.87a3.22,3.22,0,0,1-.09,3,5,5,0,0,1-3.55,2.91,5.6,5.6,0,0,0-2.63,1.52l-.25.26-.34.11s-1.36.43-3.93,1.41-4.84,2.14-4.86,2.15l-.12.06c-2.27.91-4.85,2-5.23,2.18a6.09,6.09,0,0,1-.79.39,9.15,9.15,0,0,0-2.67,1.51,2,2,0,0,1-.57,1.43c-.91.94-2.48.84-4,.73-.39,0-.76-.05-1.08-.05-1.68,0-2.65-1.16-3.44-2.09a8.16,8.16,0,0,0-1.1-1.15c-.32-.26-1.93,0-3.35.73l-.22.09-5,1.51-3.85-1.76a18.66,18.66,0,0,1-2.79,2.23,26.81,26.81,0,0,0-3.92,4.32c-.72,1.22-2.69,7.42-2.14,9.51.72,2.73,1.08,4.6,1.09,4.67l.12.63-.39.51a17.75,17.75,0,0,1-1.73,1.82,2.79,2.79,0,0,0,.59,1c1.44,1.54,1.44,2.14,1.44,2.46s0,.6-1.51,4.91l-.13.37L79.4,127a10.29,10.29,0,0,1-3.5,1.65,3.74,3.74,0,0,0-1.81,1.1,5.74,5.74,0,0,1-.75.63c-.24.16-.67.39-1.47.83A32.94,32.94,0,0,0,68,133.54a34.48,34.48,0,0,0-2,6.37c-.35,1.77-2.29,2.81-3.84,3.64a9,9,0,0,0-1.39.83,10.59,10.59,0,0,1-3.41,2.22c-.47.24-1.1.56-1.38.74a12.08,12.08,0,0,0,0,5,21.09,21.09,0,0,0,2.31,4.18c.36.56.67,1,.86,1.37a12.89,12.89,0,0,0,.9,1.22c1,1.32,2.22,2.81,2.29,4.28,0,.84.18,2,.29,2.77a13.43,13.43,0,0,1,.14,1.38c0,.83-.49,1.57-2.91,2.65l-.27.12h-.29c-4.81,0-6.56,0-7.27,0-1.11.33-3.29,1.62-3.35,2.22,1.17,1.68,5.24,2.94,6.78,3.42l.8.26a4.57,4.57,0,0,1,2.47,2.38,3.13,3.13,0,0,1,.25,2.38c-.05.15-.15.39-.28.7a21.52,21.52,0,0,0-1.78,6c0,.84,2,2.69,6.17,5.5.81.55,1.45,1,1.88,1.33s1.8.72,6.67-.25l.57-.11c.91-.16,5.75-.88,6.26-.88,1.12,0,1.43.91,1.87,2.16a20.6,20.6,0,0,0,1.84,4.16c1.52,2.41.26,6.56-.66,9.59-.25.84-.49,1.63-.57,2.07-.41,2.36-.12,3.73.92,4.47,1.39,1,2.34,3.33,3.63,6.81a22.69,22.69,0,0,0,1.7,4,4.44,4.44,0,0,0,1.66,1.16,7.35,7.35,0,0,1,4,4.1c1.45,3.67,1,5.76-1.72,7.21a.46.46,0,0,0-.14.1,2.45,2.45,0,0,0,.86,1.48,16,16,0,0,0,1.64,1.18A8,8,0,0,1,96.12,244a30.44,30.44,0,0,1,1.24,3c.19.49.35.94.47,1.21s1.63,1.53,2.57,2.35a36.14,36.14,0,0,1,2.76,2.55c1.35,1.5,8.47,11.21,10.31,14.15,1.6,2.56,1.91,5.47,2.16,7.8.06.55.11,1.07.19,1.55.37,2.5,4.34,15.34,5.67,17.5.6,1,2.15,1.39,4,1.88a18.25,18.25,0,0,1,4.43,1.64c2.71,1.58,4.81,2.31,6.59,2.31.52,0,2.38-.48,9.05-3.7l.65-.31c1.52-.71,4.28-.26,5.09-.11l.43.08,1.32,1.32h4.21v1.13l1.27-.63a5.3,5.3,0,0,0,2,1.17c3.13,1.21,4.12,4.44,4.8,7.37s2.13,5.38,3.67,6.24c.53.29,2.37,0,3.47-.15,2.2-.33,4.28-.64,5.11.94.49.92,2.17,1.55,3.85,2.11,2.94,1,3.54,4.31,4.24,8.17a6.5,6.5,0,0,0,3.52,5.15c2.24,1.44,2.11,5,1.82,7.62l0,.22a4.27,4.27,0,0,0,1.8,3.85c6.85,2.17,9.09-.91,10.73-3.16,2-2.78,6-4.15,9.59-5.13,4.15-1.12,9.67,1.82,10.81,4.19.38.79,2.55,2.71,3.85,3.85A23.29,23.29,0,0,1,229.95,342.26Zm14-32.7Zm-2.55-11.26.1,0Zm0-29.73,0,.05Zm.23-.29ZM56.22,180.17Zm-4.68-9.89a1.38,1.38,0,0,0,.31,0Zm4.48-23M279.1,85.19h0Zm-141-16h0Zm0-.2h0Zm2.18-5.12h0Zm11.21-1.51v0ZM268.83,51.86h0ZM195.58,32.79h0Zm58.7-3.1h0ZM244.84,9.37h0Zm2.79-.31a1.32,1.32,0,0,1,0,.31A1.17,1.17,0,0,0,247.63,9.06Z"/></svg>