<svg id="Layer_1" data-name="Layer 1" xmlns="http://www.w3.org/2000/svg" viewBox="0 0 350 350"><defs><style>.cls-1{fill:#999;}.cls-2{fill:#f90;}</style></defs><title>M</title><path class="cls-1" d="M38.1,125.88a23,23,0,0,0-8.78-4.68c-5-1.2-6.83,1.37-6.83,1.37l11.71,8.2-6.05,5.86L21.9,135l-1.56,2.15-6.25-1.37a33,33,0,0,0-1.17,5.86c0,1.76-4.42,3.45-4.42,3.45L15,157.89l14.31,12.23L7.2,192.76l6,4.16s5.73-3.38,16.92,1.82,28.63,11.19,28.63,11.19v55.44l37.09,3.25,9.5-.39s.39-24.2,0-24.73-5.86-7.16-4.55-9.24,6.12-4.55,6.12-4.55V209l50.62,2.34,32.4,17.44,31.1,4.68,3.77-1.3s.13-32.92,4.42-46.2,20.69-43.33,20.69-43.33l2-30.06,91-16-3.12-15.23-199.1,39.82s-8.36,0-11.6,1.56-18.85,2.73-18.85,2.73L90.22,131l-5.86-10.54L63.28,122l-8.39,7.81Z"/><path class="cls-2" d="M95.78,270h-.09l-38.38-3.37V210.95C53.5,209.61,39.13,204.51,29.5,200c-10.25-4.77-15.56-1.91-15.61-1.88l-.77.43-.74-.5L5,193l22.23-22.76L13.87,158.78,6.52,144.38,8,143.81c1.63-.63,3.34-1.7,3.52-2.2a32.11,32.11,0,0,1,1.22-6.17l.37-1.28,6.64,1.45,1.58-2.17,6.41,1.6L32,130.93l-11.48-8,.84-1.17c.1-.14,2.47-3.31,8.31-1.92a24.12,24.12,0,0,1,9.11,4.76l15.71,3.65,8.21-7.63,22.48-1.67,5.75,10.36L110,124.07c6.17-.46,16.15-1.54,18.34-2.6,3.29-1.59,10.69-1.7,12.07-1.7L340.79,79.7l3.7,18-91.3,16.07-1.9,29.26-.15.27c-.16.3-16.38,30.1-20.59,43.09s-4.35,45.44-4.36,45.77v1l-5.05,1.74-31.69-4.77-32.33-17.4-48.82-2.26v20.07l-.77.4c-1.73.89-4.77,2.77-5.56,4h0s-.29,1.58,4.3,7.4l.19.24c.37.49.68.91.28,25.6l0,1.34Zm-35.64-6,35.7,3.13,8.07-.33c.13-8.38.24-20.61.06-22.77-5.45-6.93-5.22-9.3-4.42-10.58,1.17-1.87,4.38-3.81,5.9-4.65V207.54L157.88,210l32.47,17.47,30.51,4.6,2.5-.86c.06-5.74.55-33.44,4.48-45.62,4.12-12.72,18.89-40.06,20.65-43.3l2-30.86,90.62-15.95L338.58,83,140.72,122.61h-.14c-2.24,0-8.57.26-11,1.42-3.3,1.59-17.06,2.69-19.22,2.86l-20.85,5.72-6-10.72-19.68,1.46-8.58,8-17.87-4.16-.27-.24A21.67,21.67,0,0,0,29,122.57a7.13,7.13,0,0,0-4,0l11.44,8-7.85,7.6-6.08-1.52-1.54,2.12-5.83-1.28a23.14,23.14,0,0,0-.77,4.18c0,1.87-2.15,3.3-3.89,4.15L16.14,157l15.25,13-22,22.53,4,2.75c2.11-.81,8-2.21,17.36,2.16,11,5.11,28.32,11.08,28.49,11.14l1,.33Z"/></svg>