<svg id="Layer_2" data-name="Layer 2" xmlns="http://www.w3.org/2000/svg" viewBox="0 0 350 350"><defs><style>.cls-1{fill:#999;}.cls-2{fill:#f90;}</style></defs><title>M_</title><path class="cls-1" d="M333.91,176.09s-1.4-5.3-1.7-5.48-6.21-.67-7.61-1.16-9.86-1.77-10.17-1.89-4.38-2.19-4.32-3-.37-2.07-.43-3-2.62-2.68-4.69-4.2-5.23-2.8-5.05-3.41,4.93-5.17,5.6-6.57,4.08-3.84,4.08-3.84l6.51-4.75,9.31-8.22s8.95-4.32,9.44-4.38-8-4.2-8-4.2l-2.31,5.54A23.17,23.17,0,0,1,320.7,126a6,6,0,0,1-3-2.92c-1-1.52-1.46-1.34-2.13-.85A5.57,5.57,0,0,1,314,123s-17.84-9.8-17.9-10.77.24-2.8.12-3.59-.85-1.16-2.37-1.4A10.32,10.32,0,0,1,290.2,106c-1.64-.79-1,.06-2.07.12s-1.22-.24-2.13-1.46-1.4-.49-3.41-.37-1.52.61-3.77-.18.3-.79,1.28-3.1,1.83-1.95.85-1.89-.73.91-2-.49.24-1.58-.3-2.13-1.64-.06-2.13-.67.37-1.16-.73-2-1.64-2.68-1.83-2.92-.61.91-1.1.91a5,5,0,0,1-3.35-1.46c-1.28-1.28-3-1.58-5.17-3s-2.07-1-2-2.5,1.89-1.77.61-2-1.89-1-2.92-1.4-1.95-4.44-2.13-4.57-2.13,0-4.69,1.16-1.28,1.1-3.77.37-1.83,2.68-3.17,3.65-6.39,4.81-8,6a21.17,21.17,0,0,1-6.64,4.14c-3.29,1.16-2.56,1.1-5.11,1.28s-1.34-1-2.37-2.43a16.85,16.85,0,0,0-3.59-4.32c-2.62-2.43-1.95-1-6.88-.24s-2.37.18-2.19-1-.73-1.28-2.62-2.43-.3-.61.79-1.77,2.25-1.52,3.35-2.92,2-4.93,2-4.93a25.35,25.35,0,0,0,.43-2.86c.06-1.1.85-1.77,1-2.74s2.07-.49,3.29-.43,1.1.06,1.89-.67-.24-1.16-.55-1.95-1.89-1.89-5.3-3.29-3.84.43-5.72,1.22,0,1.28-.24,4.32-1.83,1.83-2.86,1.89-1.64-.3-3.77-2.13.18-.85.43-2.56-1-3.35-1.22-4-.67-2.56.67-2.31a45.07,45.07,0,0,0,8.1-.12c1.4-.24,2.31-.79,5.05-1.58s2.8-1.22,4.38-2.74.24-2.56-.06-4.81-1.46-2.37-3.77-3-4.2,1.52-5.42,1.52-1.7-.73-4.57-2.07-3.1-.55-5.36,0-2.5,2.31-3.17,1.64-3-.49-2.86-1.22a16.39,16.39,0,0,1,1.46-3,7.12,7.12,0,0,0,.18-4c-.18-1.46-.91-2.31-.61-5a25.54,25.54,0,0,0,0-7.79c-.49-3.59-1.22-2.13-3.35-3.84s-2.68-1.28-4.32-1.28-8.58,7.12-8.58,7.12-4.93,3.65-5.78,5.24.18,1.77.73,4.08,2.68,2.8,4.63,4.2,1,2.25,1,2.25-5.9,2.62-6.21,2.82-2.37,2.17-3.35,2.05-1.16-1.16-2-1.83-2.56.37-2.56.37,1.4,6.64,1.52,7.85a2,2,0,0,1-2.68,2c-1.58-.61-.61-1.77-1.1-3s-2.56-2-4.08-2.92-1.58.3-2.74.79-1.22.18-2.37-.06-2.56,3.59-4.38,3-.3-1.77.18-3.71-.61-1.77-1.46-2.44-1.7,1.46-1.89,2.68a9,9,0,0,1-2.31,4.44c-1.22,1.16-1.89-.12-3.59-.85s-2.07.06-5.36,2.62-2.92,6.45-1.7,7.06a59.42,59.42,0,0,1,6.09,4.26c1.46,1.16,1.95.49,6.57-1.58.85.67,5.72,4.93,6.7,7.67s3.53,8.34,6.57,9.74,6.7,6.64,9.07,7.61,2.44,4.38,2.5,8.1-1.34,2.68-3.77,3.59a68.78,68.78,0,0,1-8.46,2.13c-1.77.37-3.53.85-4.2,2.37a100.16,100.16,0,0,0-2.86,12.72c-.37,2.74-1.52,4.32-2.37,8.28a19.29,19.29,0,0,0-4.38-.49,8.5,8.5,0,0,0-4,1.46c-1,.91-2.13,4.14-3,4.26s-24.9-4.08-24.9-4.08-5.84-1.22-8.52-1.64a38.29,38.29,0,0,1-9-2.62c-3.29-1.4-3.71-3.9-5.05-6.45s-2.43-5.05-2.43-5.05-.91-5.24-2.37-6.7-3.41-7.85-3.9-8.83A104.14,104.14,0,0,0,76.59,91c-1.16-1.28-1.22-2.8-1.7-4.57s.06-3.53-1.28-2.8-1.52.49-5,1.46a17.3,17.3,0,0,0-7.43,4.26c-1.58,1.52-3,6.94-4.5,8.16s-1.16,1.58-1.52,3.17,1.1,2.07,0,5.48S46,116.32,44.51,118.51s-9.92,5.11-13.33,6.09-7,1.77-9.92,2.37-5.3.43-6.7.91-.55,1.83.24,4.63.37,1.16-1.58,3.83,1.4,6.33,2.62,7.37,4,2,3.71,3.17.18,3.17.53,5.42,1.84,1.89,2.39,2.86,0,2.37-.61,3.53-3.1,3.1-4.26,4.44,0,2.5.37,2.92a12.46,12.46,0,0,0,3.65,2c1.83.73,1.4,3.47,1.4,3.47l.11.57a2.65,2.65,0,0,1,2.24-.91c1.28.27,2,.37,2.47,2.92s-1.46,3.56,1,4A4.51,4.51,0,0,0,34,175c.82-2.19.18-2.65.73-4a11.46,11.46,0,0,1,4.47-4.93c1.83-.82,1.64-1.83,4.2-.91s2.83,2.47,5.3,4.47,6.94,6.39,8.77,7.21a10.66,10.66,0,0,0,5.94,1.1c2.74-.18,2.74-1.37,3.56-2.56-.91,5.3-.37,15-.55,17.71s-1.19,6.94-.55,8.77,0,2.92,1.64,1.92,5.75-2.47,6.57-3.47,5.75-7.21,6.3-7.67,1.28-2.1,1.37-5.3,0-5.75,0-7.49-.73-7,2.65-6.85,1.73.37,4.29,1.92,4.47,2,5.84,1.64.91-4.66,2.92-4.38,4.38,6.76,6.48,7.12c-.64,2.47-2.65-1.55-3.56,3.29s-1.19,8.86-3.47,11.6-3.74,1.55-2.19,4.93,2.83,3.93,4,6.85,1.55,5,3.38,5.3,5.94.91,7.3.91,14-3.1,16.25-2.92,4-.82,4.75.91,11.14,18.54,12.33,22.19c.37,3.84.37,5-1.92,4.29s-1.64-1.1-3.93-1.64.27-2-4.57,0-5.11.73-5.57,2.74-.64,4.38-1.19,6.57-.55,3.84-1.46,4.47-14.7,9.87-15.89,9.86c-.18-1.56-2.1-2.93-2.65-5.39,2.1-3.74,2.83-3,3-5.48s2.74-2,.09-3.74-3.1-.55-3.47-1.92.09-1.73-.91-3.1-2.28.09-3.74-2.92c-2.19,1.83-.73,2.65-3,4.47s-5.66,4.47-7.58,5.94-4.57,2.65-4.75,2.92-.37.09-1.64-2,2.28-4.47-2-2.65-5.11,1.73-5.66,1.83-.64.09-1.19,1.1-.46,1.1-1.37.91-1.73-1.74-2.65-2-3.1,3.29-3.65,4-2.65.73-2.92.73-6.39,10.32-6.67,12.14a6.39,6.39,0,0,1-.21.9c-3.56,1.71-6.84.21-10.52-1.89-2.09-1.19-4.07-1.47-6.19,0-4.92,3.32-5,12.89-5.69,18.1-.17,1.34,1.64,1.76,2.46,1a44.87,44.87,0,0,1,22.25-10.88c1.12.62,2.36,1,3.37,1.45,1.83.82,4.66,1.28,5.66.82-2.47,4.38-13.33,21.28-13.33,21.28s-4.75,8.4-4.2,10,1.74,3.56,1.55,5.2-2.74,3.1-3.2,4.84-1.1,3.93-1.1,3.93l-.55.5.28.42s8.1,4.32,8,4.75-1.64,4.63-.37,4.63,5.3,1.22,5.6.49,5.3-6.12,5.3-6.12a34.69,34.69,0,0,1,2.8-4.22c.85-.85,1.89-.61,4.5-.91s4.44-.12,6.57-.91,2.13-1.22,3.77-2.25,3.29-1.64,6.51-1.22,11.08,5.9,15.83,8.89c5.36,1.7,7.49-.43,8.58-1.77s1.22-1.58,3.41-1.64c1.28-4.69,7.67-5.84,7.85-5.84a30.73,30.73,0,0,0,2.31-2.74l7.91,2.5,1.7-2.68s4.75,1.89,5.9,2.43,2.92,2.5,3.1,2.5a2.93,2.93,0,0,1,3.1-1.52c2.37.37,2.19,2.25,2.37,2.25a9.88,9.88,0,0,0,2.62-3.17c1.22-2,1.58-2.8,2.86-2.31a18.17,18.17,0,0,1,4.08,2c.91.73,1.52.49,4.87.61s3.53.55,7.37,3.71a45.53,45.53,0,0,1,2.74-6.94c.18-.37,2.25-3.29,2.74-4.32s1-3.53,1.77-4.75a5.82,5.82,0,0,1,3-2.31c.91-.28,3.24,1.6,3.41,1.76a28.84,28.84,0,0,1,3.47-5.78c.55-.3,1.52.73,1.64,0s2.56-1.1,3.65-1.52,2.74-.55,3.53-1.58.12-1.77.37-3,1.46-2,2.74-3.41,3-.91,7-1.1c1.22-1.95,5.17-4.63,6-5s2.92-1.16,3.77-1.4,1.4.49,1.58.3a34.23,34.23,0,0,0,2.5-4.38c1-2.13.06-.91,0-2.5s1.28-6.45,1.46-7.73a3.66,3.66,0,0,1,1.64-2.43,23.77,23.77,0,0,0,3.41-.73,14.58,14.58,0,0,1,4.87-.61c1.7.06,5.36,2.5,5.6,2.56s.91.79,1.95-.79,1.28-1,.73-1.64-.06-1.16-.18-2.92c-2.13-4.38,1.58-8,1.83-8.83a7,7,0,0,1,2.5-2.5c.79-.49,3.77-1.4,4.69-2.07s2.44-1.28,3.59-2,1.89.37,3,.55,1.28.91,1.58.37,2.56-.06,3.77.61,2.07,1.22,2.37,1a2.87,2.87,0,0,1,1.95-.67c1.34-.12,1-.67,2.07-1.34s2.5-.43,3.17-2.56.06-1.28,2.68-.73c-1.16-2.8,4.08-7.43,4.2-7.61s3.47-3.29,3.9-3.9,1-2.25,1.77-3.23a13.93,13.93,0,0,1,4-3.47c1.28-.55,2.25-1.34,2.25-4s1.58-3.53,3.77-4,2.86.3,5.48.12,3.9-.61,5.11-1.52a32.73,32.73,0,0,0,4.69-5.24c.06-.37,1.16-1.83,2-3.65s1-1.34,1.95-1,3.84,1.89,6.51,1.89c1.16-3.9,3.23-1.22,4.32-2.8,1.89-4.63,5.3-1.4,6.21-1.64s3.9-1,3.9-1Z"/><path class="cls-2" d="M60.68,330.72a17.58,17.58,0,0,1-3-.42,15.84,15.84,0,0,0-1.87-.3,1.82,1.82,0,0,1-1.48-.74c-.71-1-.48-2.44.23-4.8-1.29-.83-4.39-2.56-7.08-4l-.31-.17L46,318.56l1.17-1.05c.2-.7.64-2.23,1-3.5a7.48,7.48,0,0,1,1.94-3,5,5,0,0,0,1.22-1.68,7.19,7.19,0,0,0-.85-3c-.23-.53-.46-1.08-.64-1.62-.5-1.49,1-5.25,4.31-11.19.13-.21,8.34-13,12-19.08a14.35,14.35,0,0,1-3.71-1c-.35-.16-.73-.31-1.12-.46-.59-.23-1.24-.49-1.89-.81a43.26,43.26,0,0,0-21.08,10.45,3.09,3.09,0,0,1-3.44.37,2.55,2.55,0,0,1-1.38-2.63c.1-.78.18-1.66.28-2.59.55-5.62,1.3-13.32,6-16.51,2.37-1.6,4.88-1.61,7.68,0,3.67,2.09,6.1,3,8.61,2.09v-.08c.05-.37.22-1.48,3.5-7.25,3.47-6.1,3.68-6.1,4.57-6.1A5.25,5.25,0,0,0,66,249.7l.33-.47c1.79-2.63,3.18-4.46,4.81-4A4.61,4.61,0,0,1,73,246.62c.13.13.3.31.45.45l0,0c.65-1.2,1.06-1.62,2.17-1.81l.32,0c.48-.06,1.48-.17,5-1.69,1.54-.66,2.76-1.18,3.67-.32a2,2,0,0,1,.25,2.26c-.2.56-.33,1-.15,1.28l.6,1,.33-.18a27.87,27.87,0,0,0,3.4-2.09c1.84-1.4,5.23-4.06,7.55-5.91a2.49,2.49,0,0,0,1.07-1.56A5.24,5.24,0,0,1,99.7,235l1.39-1.16.79,1.63c.59,1.21.92,1.29,1.47,1.41a3.27,3.27,0,0,1,2.14,1.29,4.51,4.51,0,0,1,1,2.68,4.8,4.8,0,0,0,.09.73,7.75,7.75,0,0,1,2.92,1.27c.86.56,1.7,1.19,1.82,2.17a2.2,2.2,0,0,1-.74,1.81,1.54,1.54,0,0,0-.54,1.06,4.9,4.9,0,0,1-1.35,3.35,16.17,16.17,0,0,0-1.55,2.21,9.28,9.28,0,0,0,1.22,2.21c.24.36.49.72.7,1.1,3.34-1.84,12.58-7.94,14.28-9.13a6.11,6.11,0,0,0,.51-1.85c.11-.55.22-1.16.39-1.81.28-1.13.47-2.34.65-3.52.15-1,.31-2.06.53-3,.42-1.85,1.17-2.21,2.66-2.54a20.14,20.14,0,0,0,3.75-1.19c2.81-1.16,4.21-1.75,5.17-.17h0s.06,0,.27.1a7.15,7.15,0,0,1,2.45,1,6,6,0,0,0,1.58.7l.24.07a23.23,23.23,0,0,0-.15-2.71c-.86-2.39-5.48-10.26-8.57-15.5-2.22-3.77-3.39-5.77-3.67-6.44a.49.49,0,0,0-.08-.15,4.84,4.84,0,0,0-1.23,0,12.77,12.77,0,0,1-2.25.06c-1.17-.11-6.85,1.11-10.24,1.83a48.16,48.16,0,0,1-5.9,1.1,68.6,68.6,0,0,1-7-.85l-.53-.08c-2.3-.34-3.07-2.41-3.88-4.6-.18-.49-.38-1-.6-1.57a13.06,13.06,0,0,0-1.73-3,20.84,20.84,0,0,1-2.26-3.8c-1.2-2.61-1-3.67.73-4.93a8,8,0,0,0,1.66-1.5c1.62-1.94,2.1-4.77,2.71-8.35.14-.84.29-1.71.46-2.6.33-1.73.83-2.74,1.65-3.29a2.44,2.44,0,0,1,.45-.24c-.55-.69-1.08-1.51-1.63-2.34a16.28,16.28,0,0,0-2.06-2.76,9.23,9.23,0,0,0-.39,1.21c-.32,1.18-.72,2.66-2.11,3-1.86.5-4.13-.09-6.94-1.8a8.32,8.32,0,0,1-1.84-1.44l-.14-.14a15.25,15.25,0,0,0-1.65-.14c-.42,0-.55.11-.61.17-.73.72-.62,3.28-.57,4.37,0,.35,0,.65,0,.9,0,.51,0,1.08,0,1.73,0,1.57,0,3.52,0,5.8-.09,3.11-.77,5.42-1.88,6.34-.45.43-3.63,4.39-5,6.08l-1.13,1.4c-.66.81-2.09,1.5-4.38,2.53-1,.44-2,.9-2.55,1.25a2.5,2.5,0,0,1-2.35.43,2.18,2.18,0,0,1-1.1-1.9,6.31,6.31,0,0,0-.27-1.19c-.55-1.57-.22-4,.13-6.47.14-1,.28-2,.34-2.85s0-2.41,0-4.25c0-2.88-.06-6.49.13-9.68a7.35,7.35,0,0,1-1.65.28,12.08,12.08,0,0,1-6.61-1.22c-1.33-.6-3.33-2.34-6.23-4.93-1.06-.95-2.07-1.84-2.85-2.48a18.47,18.47,0,0,1-2.3-2.27,5.58,5.58,0,0,0-2.58-2c-1.11-.4-1.17-.36-1.69,0a8.16,8.16,0,0,1-1.45.85,10.23,10.23,0,0,0-3.74,4.16,2.44,2.44,0,0,0-.16,1,7.82,7.82,0,0,1-.56,3,5.92,5.92,0,0,1-6.79,4,3,3,0,0,1-2.12-1.16,2.7,2.7,0,0,1-.16-2.23,4,4,0,0,0,.13-1.77c-.28-1.55-.35-1.57-1.27-1.76l-.1,0c-.11,0-.44.06-1,.55l-1.89,1.77-.63-3.35,0-.24c0-.32.1-1.69-.53-1.94a13.4,13.4,0,0,1-4.2-2.4c-2-2.25-1.07-4-.36-4.77.51-.59,1.19-1.23,1.92-1.91A15.15,15.15,0,0,0,20.61,158c.87-1.65.66-2.13.63-2.18l-.32-.17a3.88,3.88,0,0,1-2.24-3.17c-.08-.49-.16-1-.24-1.41a13.91,13.91,0,0,1-.34-4.23,11.47,11.47,0,0,0-1.42-.92,12.39,12.39,0,0,1-1.76-1.16c-2.05-1.74-5.29-5.93-2.85-9.28a8.89,8.89,0,0,1,1.61-1.75c-.05-.21-.13-.47-.21-.75l0-.12c-.16-.58-.33-1.09-.47-1.54-.54-1.68-1.28-4,1.13-4.81a13.05,13.05,0,0,1,3.13-.49,29.12,29.12,0,0,0,3.74-.48c2.53-.53,6.3-1.34,9.82-2.35,5.13-1.46,11.59-4.14,12.56-5.53a37.48,37.48,0,0,1,3.58-3.84c2.5-2.49,6.28-6.25,6.88-8.14a4.34,4.34,0,0,0,.13-3.07,4.19,4.19,0,0,1-.16-2.29c.07-.32.12-.58.15-.82a4.25,4.25,0,0,1,1.84-3.12A14.86,14.86,0,0,0,57.6,93a15.63,15.63,0,0,1,2.61-4.63,18.8,18.8,0,0,1,8-4.6c1.42-.4,2.3-.6,2.94-.74a5.29,5.29,0,0,0,1.76-.6,2,2,0,0,1,2-.13c.93.5,1,1.51,1.09,2.4a7.7,7.7,0,0,0,.2,1.4c.13.45.22.89.32,1.31A5.48,5.48,0,0,0,77.64,90a102.45,102.45,0,0,1,6.55,8.6c.16.33.37.9.76,2,.61,1.69,2,5.65,2.87,6.48,1.61,1.61,2.51,6,2.74,7.28.26.57,1.21,2.69,2.33,4.81.29.56.54,1.12.79,1.66.85,1.89,1.47,3.26,3.56,4.15a37.11,37.11,0,0,0,8.68,2.52c2.68.43,8.35,1.61,8.59,1.66,8.25,1.44,21.48,3.7,24.17,4,.23-.33.54-.91.76-1.32a9.51,9.51,0,0,1,1.72-2.55,9.63,9.63,0,0,1,4.74-1.8,11.91,11.91,0,0,1,3.53.26c.35-1.35.73-2.41,1.08-3.37a16.06,16.06,0,0,0,1-3.47c.34-2.58,2.17-11.29,3-13.11,1-2.33,3.65-2.87,5.21-3.19l.34-.07a64.8,64.8,0,0,0,7.91-2,10.85,10.85,0,0,1,1.91-.5,3.92,3.92,0,0,0,.8-.2h0a3.9,3.9,0,0,0,.15-1.54c-.05-3.18-.1-6.19-1.62-6.81s-2.87-2.05-4.56-3.76c-1.51-1.52-3.21-3.25-4.57-3.87-4.06-1.87-6.81-9.12-7.32-10.55-.67-1.9-4-5.08-5.59-6.49l-1.42.66c-2.7,1.27-3.94,1.85-5.8.37A59,59,0,0,0,134,65.78a3.41,3.41,0,0,1-1.63-2.86,7.59,7.59,0,0,1,3.1-6.59c.61-.48,1.12-.89,1.56-1.25,2-1.6,3.06-2.49,5.23-1.56a9.9,9.9,0,0,1,1.52.85c.16.1.37.24.51.31l0,0A7.62,7.62,0,0,0,146.23,51c0-.13.5-3.18,2.24-3.87a1.91,1.91,0,0,1,1.92.29,2.67,2.67,0,0,0,.42.24c1.08.54,2.11,1.4,1.55,3.66a8.38,8.38,0,0,1-.5,1.4c.21-.24.42-.5.56-.67.8-1,1.71-2.08,3.05-1.79.34.07.6.15.82.21a1.73,1.73,0,0,0,.29.08,2.29,2.29,0,0,0,.42-.15,1.78,1.78,0,0,0,.48-.36,2.6,2.6,0,0,1,3.54-.34c.36.22.76.42,1.16.63,1.46.76,3,1.54,3.52,3a4.53,4.53,0,0,1,.24,1.9c0,.1,0,.22,0,.31l.05,0a.47.47,0,0,0,.51,0,.64.64,0,0,0,.25-.51c-.08-.84-.94-5.06-1.5-7.7l-.21-1,.86-.52c.42-.26,2.62-1.48,4.17-.27a5.4,5.4,0,0,1,1,1.16c.08.11.17.24.25.33a9.74,9.74,0,0,0,1.91-1.39c.23-.2.41-.34.49-.39s.37-.24,5.44-2.5l-.31-.24c-.47-.34-1-.63-1.47-.92-1.48-.86-3.17-1.83-3.71-4.11a7.25,7.25,0,0,0-.59-1.59,3.3,3.3,0,0,1,0-3.49c.92-1.71,5-4.85,6.1-5.63,4.84-5,8-7.47,9.52-7.47l.72,0c1.45-.08,2.46,0,4.49,1.61a4.43,4.43,0,0,0,1.35.74c1.47.56,2.14,1.24,2.52,4a26.62,26.62,0,0,1,0,8.06,7.19,7.19,0,0,0,.27,3.25,9.65,9.65,0,0,1,.33,1.49c.21,1.65.41,3.3-.32,4.77-.19.38-.41.77-.62,1.14l-.29.53a6.23,6.23,0,0,1,1.22.35A5.69,5.69,0,0,1,201,43.78c.48-.12.86-.25,1.19-.36,1.48-.5,2.53-.75,5.1.45,1.18.55,2,1,2.57,1.34.86.49,1.06.59,1.39.59a6.54,6.54,0,0,0,1-.47,6.45,6.45,0,0,1,4.82-1l.49.13c2,.52,3.92,1,4.33,4a8.16,8.16,0,0,0,.42,1.58c.4,1.17.95,2.78-.78,4.45l-.63.62a7.86,7.86,0,0,1-4.34,2.46c-1.22.35-2.08.66-2.77.91a13.91,13.91,0,0,1-2.44.71,49,49,0,0,1-7.76.21c0,.13.06.27.11.42s.12.23.21.41A6.86,6.86,0,0,1,205,64.41a2.69,2.69,0,0,1-.68,1.48c1.84,1.56,2.12,1.62,2.54,1.59a4.55,4.55,0,0,1,1.12.12l.29.05a3.79,3.79,0,0,0,.12-.75,4.6,4.6,0,0,0-.33-2.18,2.3,2.3,0,0,1,1.44-3.33,5.21,5.21,0,0,0,1.05-.65c1.41-1,2.81-1.78,5.76-.57,4.74,1.95,5.74,3.21,6.08,4.09a2.28,2.28,0,0,0,.23.3c1.21,1.49.65,2.56,0,3.19l-.18.17a2.82,2.82,0,0,1-2.71.88c-.32,0-.64-.05-1-.09s-.69-.08-1-.09a6.45,6.45,0,0,1-.47,1.07,2.42,2.42,0,0,0-.35.93,26.37,26.37,0,0,1-.45,3.07c-.12.46-1,3.93-2.28,5.52a9.85,9.85,0,0,1-2.18,2,8.43,8.43,0,0,0-1.26,1l-.13.13.19.1c1,.53,2.17,1.17,2.17,2.71l.54-.08a18.08,18.08,0,0,0,3.2-.76c2-.64,2.8-.54,4.85,1.37a16,16,0,0,1,3.22,3.69c.16.25.33.53.56.85a4.37,4.37,0,0,1,.74,1.86l.38,0a7.52,7.52,0,0,0,3.08-.6l1.66-.6a16.75,16.75,0,0,0,5.34-3.21l.9-.72c1.5-1.16,6.62-5,8-6a3.92,3.92,0,0,0,.42-1.08c.3-1,1.08-3.63,4-2.78.52.15.88.28,1.15.37l.17.06.15-.08c.29-.15.7-.37,1.32-.65,1.75-.79,4.95-1.78,6.05-1,.47.32.58.68.89,1.64a14.45,14.45,0,0,0,1.11,2.84,7.45,7.45,0,0,1,1.26.68,3.54,3.54,0,0,0,1.27.6,1.82,1.82,0,0,1,1.55,1.19,1.72,1.72,0,0,1-.65,1.76c-.26.24-.35.35-.36.51v.38l.32.2c.28.17.63.38,1.07.67a18.12,18.12,0,0,0,2.38,1.28,9.87,9.87,0,0,1,3,1.89,3.66,3.66,0,0,0,1.92,1,1.8,1.8,0,0,1,1.45-.9h.71l.49.6a3.38,3.38,0,0,1,.37.72,5.47,5.47,0,0,0,1.19,1.93,2.62,2.62,0,0,1,1.14,2.08,2.72,2.72,0,0,1,1.85.72,1.72,1.72,0,0,1,.3,2.12l0,.05.16.17a2.79,2.79,0,0,1,.72-.14l.19,0,1.09-.22,1,2-.9.73a3.51,3.51,0,0,0-.83,1.36,5.47,5.47,0,0,1-1,1.56,1.42,1.42,0,0,0,.58,0,10.31,10.31,0,0,1,1.52-.2,8.68,8.68,0,0,0,1.29-.19,2.86,2.86,0,0,1,3.33,1.12l.11.14a8.89,8.89,0,0,0,.61.76H288a2.48,2.48,0,0,1,2.86,0,9,9,0,0,0,3.26,1.1c1,.15,3.24.52,3.55,2.59a10.59,10.59,0,0,1,0,2.2c0,.37-.06.74-.07,1.05,1.68,1.32,9.39,5.8,16.6,9.77a3.28,3.28,0,0,0,.58-.32,2.59,2.59,0,0,1,2-.58,3.56,3.56,0,0,1,2.16,1.82l.18.29a4.32,4.32,0,0,0,2.32,2.14,20.61,20.61,0,0,0,2.38,1l2.39-5.71,1.35.66c9,4.39,9,4.44,8.83,5.69l-.17,1-.95.13c-.84.31-5.62,2.58-8.94,4.18L317,139.92l-6.51,4.75a16.13,16.13,0,0,0-3.63,3.3,25.77,25.77,0,0,1-3.7,4.45l-1.26,1.37,1,.58a29.23,29.23,0,0,1,3,1.83l.86.62c2.75,2,4.32,3.19,4.41,4.63a10.19,10.19,0,0,0,.2,1.21,11,11,0,0,1,.23,1.55,21.78,21.78,0,0,0,3.37,2c.33.07,1.38.24,2.4.41,3.69.62,6.82,1.15,7.78,1.48a43.22,43.22,0,0,0,4.87.74c2.32.28,2.63.32,3,.54.53.32.8.48,2.35,6.33l0,.13L339,198.34l-1.27.31s-3,.72-3.87,1a3.11,3.11,0,0,1-2-.36,3.13,3.13,0,0,0-2.09-.38,2.85,2.85,0,0,0-1.17,1.55l-.15.27a2.94,2.94,0,0,1-2.87,1.16c-.71,0-.87,0-1.26,1.24l-.3,1h-1.06a16.69,16.69,0,0,1-6.36-1.7l-.66-.28,0,0-.13.26a27.79,27.79,0,0,1-1.51,2.73c-.17.29-.39.64-.44.75a1,1,0,0,0,.05-.2c-.19,1.14-4.39,5.5-5.24,6.14-1.49,1.12-3.08,1.61-5.86,1.8a13.15,13.15,0,0,1-3-.14,6,6,0,0,0-2.28,0c-2,.4-2.63,1-2.63,2.57,0,3.51-1.57,4.66-3.11,5.32a13,13,0,0,0-3.44,3,12.12,12.12,0,0,0-1,1.82,10.51,10.51,0,0,1-.74,1.37,33.19,33.19,0,0,1-3,3c-.47.45-.86.82-1,1a4.73,4.73,0,0,1-.33.34c-4.2,4.11-3.73,5.67-3.66,5.83l1,2.48-2.62-.55c-.4-.08-.74-.18-1-.26v0a4.29,4.29,0,0,1-3.08,3,3.45,3.45,0,0,0-.67.28,1.75,1.75,0,0,0-.45.42,2.9,2.9,0,0,1-2.26,1.14c-.83.08-1,.2-1.13.32-1.07.85-2.19.22-3.5-.51l-.5-.28a6.46,6.46,0,0,0-2.23-.67,1.61,1.61,0,0,1-.7.38,1.81,1.81,0,0,1-1.47-.32,1.2,1.2,0,0,0-.5-.22,4.85,4.85,0,0,1-1.47-.55,2.77,2.77,0,0,0-.5-.23,18.72,18.72,0,0,1-1.84,1,13.61,13.61,0,0,0-1.69,1,15,15,0,0,1-3.12,1.44,18,18,0,0,0-1.67.7,6.74,6.74,0,0,0-1.89,1.73,4.48,4.48,0,0,1-.64,1.12c-.92,1.34-2.62,3.85-1.26,6.64l.12.25,0,.28a10,10,0,0,1,0,1.88c0,.11,0,.21,0,.3l.07.08a1.55,1.55,0,0,1-.09,2.34,4.2,4.2,0,0,0-.67.84c-1.37,2.09-2.86,1.74-3.64,1.34a6.21,6.21,0,0,1-.85-.46c-2.22-1.31-3.66-2-4.3-2a13.37,13.37,0,0,0-4.47.57c-1.11.28-2.47.61-3.28.73a2.62,2.62,0,0,0-.72,1.26c-.07.49-.26,1.33-.51,2.39a34.16,34.16,0,0,0-.94,5.08s0,.08,0,.1c.86,1,.35,2-.15,3.07a31.15,31.15,0,0,1-2.77,4.77,1.59,1.59,0,0,1-2,.16,1.45,1.45,0,0,0-.22-.1c-.7.22-2.73,1-3.54,1.34s-4.38,2.84-5.38,4.44l-.39.63-.74,0c-1.05,0-2,.05-2.73.05-2,0-2.78,0-3.28.58s-.77.79-1.12,1.14a4.26,4.26,0,0,0-1.28,1.6,2.59,2.59,0,0,0,0,.82,3.45,3.45,0,0,1-.64,2.74,5.65,5.65,0,0,1-3.25,1.77,8.76,8.76,0,0,0-.89.27c-.4.15-.88.29-1.39.42a13.69,13.69,0,0,0-1.52.48,1.65,1.65,0,0,1-.7.77,1.88,1.88,0,0,1-1.63,0c-.67,1-1.93,3.1-2.46,4.13l5.2,8.59-7.76-7.44a9.24,9.24,0,0,0-2.16-1.37,4.45,4.45,0,0,0-2.06,1.68,12.8,12.8,0,0,0-1,2.67,15,15,0,0,1-.66,1.91,34.62,34.62,0,0,1-2.09,3.35c-.33.49-.59.87-.67,1a45,45,0,0,0-2.6,6.52l-.42,2.41-2.87-2.37c-2.86-2.39-3-2.48-5.53-2.57-.84,0-1.51,0-2.05,0-1.72,0-2.59,0-3.65-.87a16.39,16.39,0,0,0-3.7-1.79h0A13,13,0,0,0,157,313l-.23.39c-.55.9-2.44,3.85-3.83,3.85a1.5,1.5,0,0,1-1.48-1.32c-.11-.43-.2-.81-1.11-1a1.29,1.29,0,0,0-1.53.69,1.61,1.61,0,0,1-1.36.85c-.62,0-1-.31-1.68-1a11.9,11.9,0,0,0-2-1.65c-.77-.36-3.27-1.38-4.73-2l-1.66,2.61-8-2.53c-1.8,2.29-2.12,2.49-2.71,2.51s-5.61,1.19-6.6,4.8l-.28,1-1.05,0c-1.47,0-1.47,0-2.24,1l-.11.14c-1.51,1.85-4.21,4.09-10.11,2.22l-.32-.15c-.91-.57-1.93-1.23-3-1.94-4.2-2.72-9.95-6.44-12.24-6.75-2.76-.37-4.08.07-5.57,1-.5.32-.83.57-1.15.81A9.3,9.3,0,0,1,81,318.22a15.58,15.58,0,0,1-4.71.81c-.68,0-1.4.09-2.19.18s-1.41.13-1.95.17c-1.18.08-1.51.13-1.72.34a31.48,31.48,0,0,0-2.58,3.93l-.19.25c-2.19,2.37-4.75,5.25-5.07,5.79C62.32,330.47,61.63,330.72,60.68,330.72Zm-3.95-3.47c.43.06.92.16,1.45.26s1.7.33,2.28.37c.53-.73,1.82-2.28,5.06-5.78a30.85,30.85,0,0,1,2.95-4.38c1-1,2.11-1.06,3.53-1.16.5,0,1.1-.08,1.81-.16s1.62-.15,2.34-.19a13,13,0,0,0,3.91-.64,6.65,6.65,0,0,0,2.16-1.17c.33-.25.75-.57,1.36-1A10.08,10.08,0,0,1,91,312c2.71.36,7.47,3.33,13.41,7.18,1,.65,2,1.27,2.83,1.82,4.62,1.41,6.15-.46,6.89-1.37l.11-.14a4.1,4.1,0,0,1,3.37-2c1.71-4,6.42-5.39,8.19-5.77.39-.44,1.21-1.45,1.88-2.32l.61-.78,7.82,2.47,1.75-2.75,1.09.43c.2.08,4.8,1.91,6,2.47a10.62,10.62,0,0,1,2.36,1.78,4,4,0,0,1,3.45-.92,4.09,4.09,0,0,1,2.53,1.27,16.06,16.06,0,0,0,1-1.51l.23-.38c1.05-1.75,2-3.4,4.35-2.52a17.91,17.91,0,0,1,4.46,2.23c.26.21.36.24,1.91.25.56,0,1.25,0,2.13,0,3.25.12,4.11.63,6.58,2.68.86-2.31,2.18-5.09,2.2-5.12.1-.2.29-.49.84-1.31s1.62-2.41,1.88-3a14.58,14.58,0,0,0,.51-1.52,14.08,14.08,0,0,1,1.35-3.39,7.2,7.2,0,0,1,3.75-2.89c1-.32,2.32.3,3.31.94,1-1.82,2.56-4.43,3.3-4.84a2,2,0,0,1,1.59-.14,7.41,7.41,0,0,1,2.77-1.13c.42-.11.85-.23,1.11-.33a11.81,11.81,0,0,1,1.18-.36,3.73,3.73,0,0,0,1.74-.76c.12-.16.13-.18.08-.71a5.21,5.21,0,0,1,0-1.69,6,6,0,0,1,2.08-3.07c.32-.31.66-.64,1-1,1.37-1.5,3-1.5,5.37-1.51.57,0,1.21,0,1.93,0a23.42,23.42,0,0,1,6.21-4.9c.92-.39,3-1.2,3.94-1.46a2.66,2.66,0,0,1,1.39,0c.47-.78,1.18-2,1.8-3.31l.21-.44a3,3,0,0,1-.35-1.39,29.26,29.26,0,0,1,1-5.83c.21-.92.41-1.78.46-2.16.22-1.56,1.77-3.65,3-3.65a31,31,0,0,0,3.05-.69,15.92,15.92,0,0,1,5.27-.65c1.55.05,3.72,1.27,5.64,2.4l.44.26h0a2.88,2.88,0,0,0,.19-.27c.16-.24.3-.44.43-.61a3.23,3.23,0,0,1-.15-1.69,7.53,7.53,0,0,0,.05-1.14c-1.85-4.16.55-7.68,1.59-9.21.13-.19.24-.35.31-.46.56-1.62,3.06-3.19,3.08-3.21a14.78,14.78,0,0,1,2.13-.93,17,17,0,0,0,2.46-1.08,15.53,15.53,0,0,1,2.08-1.19c.55-.28,1.13-.57,1.59-.87a3.09,3.09,0,0,1,3.34.08,2.57,2.57,0,0,0,.63.27,3.84,3.84,0,0,1,1,.31c1.53-.62,4.11.44,4.81.82l.52.29.81.44a5,5,0,0,1,2.18-.6,1.26,1.26,0,0,0,.29,0h0s0,0,.05-.09a4.48,4.48,0,0,1,1.08-1,5.71,5.71,0,0,1,1.26-.57c.75-.26,1.06-.37,1.32-1.22l.18-.59a2.2,2.2,0,0,1,1.06-1.61,1.7,1.7,0,0,1,1.33-.05c.42-1.82,1.9-4,4.45-6.45l.14-.13c.13-.15.39-.4,1.21-1.2s2.35-2.26,2.6-2.6a10.69,10.69,0,0,0,.5-1,14,14,0,0,1,1.29-2.29,15.2,15.2,0,0,1,4.59-3.92c.75-.32,1.39-.6,1.39-2.71,0-3.93,2.81-4.94,4.92-5.35a8.69,8.69,0,0,1,3.21,0,10.37,10.37,0,0,0,2.44.12c2.51-.17,3.47-.57,4.36-1.24a36.88,36.88,0,0,0,4.22-4.63,7.32,7.32,0,0,1,.69-1.27,25.24,25.24,0,0,0,1.36-2.45c.52-1.12,1.3-2.81,3.41-1.84l.32.14.8.34a17,17,0,0,0,4.27,1.39,3.4,3.4,0,0,1,3.73-2.18h.36a5.08,5.08,0,0,1,2.56-2.78,5.45,5.45,0,0,1,4.26.38l.44.18,2.41-.6-3.25-19.82c-.44-1.67-1-3.59-1.31-4.52l-1.62-.2a36,36,0,0,1-5.47-.87c-.8-.28-5-1-7.31-1.37a19.14,19.14,0,0,1-2.92-.54s-5.38-2.24-5.21-4.41a6.9,6.9,0,0,0-.18-1.26,13.55,13.55,0,0,1-.23-1.43,19.93,19.93,0,0,0-3.25-2.66l-.87-.63a27.47,27.47,0,0,0-2.68-1.64c-2-1.13-3.33-1.87-2.89-3.32.16-.54.55-1,2.46-3a33.74,33.74,0,0,0,3.22-3.74c.77-1.61,3.66-3.76,4.53-4.38l6.45-4.7,9.41-8.3.18-.08.28-.13-1-.27a24.49,24.49,0,0,1-4.1-1.63,7,7,0,0,1-3.41-3.14l-.18-.28c-.1-.16-.18-.27-.25-.37a7.13,7.13,0,0,1-1.82.84l-.56.16-.51-.28c-18.52-10.18-18.57-11-18.63-11.93a14.7,14.7,0,0,1,.07-1.92,14.26,14.26,0,0,0,.07-1.46,4.31,4.31,0,0,0-1.21-.31,11.65,11.65,0,0,1-4-1.34l-.2-.09a2.43,2.43,0,0,1-1.17.35c-1.77.11-2.38-.73-3.24-1.88l-.11-.14-.09-.12-.41.08a11.52,11.52,0,0,1-1.68.24,7.55,7.55,0,0,0-1.15.15,5,5,0,0,1-3.18-.41c-.58-.2-1.66-.58-1.83-1.64a2.06,2.06,0,0,1,1-1.94,3.49,3.49,0,0,0,1.22-1.4v0a5.64,5.64,0,0,1-.91-.85,2.88,2.88,0,0,1-.89-2,2.35,2.35,0,0,1-1.6-.85,2.27,2.27,0,0,1-.46-1.74l0,0a5.84,5.84,0,0,1-1.46-1.81,1.76,1.76,0,0,1-.59.1,6.5,6.5,0,0,1-4.35-1.88A7.59,7.59,0,0,0,266.29,90a20.58,20.58,0,0,1-2.74-1.47c-.41-.27-.73-.47-1-.62-1.39-.85-1.73-1.29-1.66-3v-.15a3.16,3.16,0,0,1,.24-1.1c-.28-.15-.53-.3-.75-.44a4.45,4.45,0,0,0-.87-.47c-1.28-.45-1.94-2.2-2.65-4.45a13,13,0,0,0-3.11,1c-.55.25-.92.44-1.17.58a2.53,2.53,0,0,1-2.55.19c-.24-.08-.57-.19-1-.33l-.14,0a6.34,6.34,0,0,0-.32.91,4.54,4.54,0,0,1-1.47,2.56c-1.3.94-6.26,4.71-7.94,6l-.84.67a19.41,19.41,0,0,1-6.19,3.68l-1.62.58a9.58,9.58,0,0,1-3.8.77c-2.13.15-3.12-.49-3.42-2.21a1.79,1.79,0,0,0-.28-.82c-.26-.37-.46-.68-.64-1a13.39,13.39,0,0,0-2.76-3.14c-.89-.83-1.15-1-1.23-1a2.66,2.66,0,0,0-.83.22,21,21,0,0,1-3.65.87c-3.09.46-3.92.58-4.48-.49a1.67,1.67,0,0,1,.46-2l.13-.14-.59-.33c-.36-.2-.79-.43-1.28-.73-.73-.45-1.64-1-1.55-2.06a1.79,1.79,0,0,1,1.31-1.46,2,2,0,0,0,.74-.43,11.12,11.12,0,0,1,1.66-1.39,7.12,7.12,0,0,0,1.6-1.43A16.15,16.15,0,0,0,213.65,73a23.51,23.51,0,0,0,.38-2.58,4.88,4.88,0,0,1,.67-2.08,2.7,2.7,0,0,0,.31-.76c.27-2.15,2.78-1.87,4-1.74.27,0,.54.06.78.07l.34,0a3.24,3.24,0,0,1-.39-.71s-.53-.85-4.51-2.48c-1.72-.71-2.12-.41-3,.24a8.29,8.29,0,0,1-1.44.89,7.33,7.33,0,0,1,.44,3.21A3.9,3.9,0,0,1,210,70a3,3,0,0,1-2.55.36c-.14,0-.38,0-.41-.07-1.61.1-2.6-.6-4.78-2.47-.79-.68-1.49-1.37-1.38-2.33A1.87,1.87,0,0,1,202,64.08l.21-.12a4.92,4.92,0,0,0-.79-2.39,5.27,5.27,0,0,1-.42-.92c-.47-1.58-.38-2.76.28-3.49a2.05,2.05,0,0,1,2-.62,45.53,45.53,0,0,0,7.6-.12,11.57,11.57,0,0,0,2-.59c.73-.26,1.63-.58,2.94-1a5.21,5.21,0,0,0,3.12-1.74l.67-.66c.41-.4.43-.41.06-1.49a10.69,10.69,0,0,1-.54-2.11c-.15-1.1-.23-1.16-2.22-1.67l-.51-.13a4,4,0,0,0-2.75.76,5,5,0,0,1-2.3.81,5.21,5.21,0,0,1-2.8-1c-.58-.33-1.29-.74-2.37-1.24-1.67-.79-2-.69-3-.34-.4.14-.86.29-1.43.43a3.05,3.05,0,0,0-1.58,1,2.27,2.27,0,0,1-1.62.86h0a1.79,1.79,0,0,1-1.24-.51,5.76,5.76,0,0,0-.89-.22c-.74-.15-2.71-.53-2.42-2.29A8,8,0,0,1,195,43c.19-.33.38-.68.55-1a6.25,6.25,0,0,0,.05-3.09,7.35,7.35,0,0,0-.25-1.13,9.8,9.8,0,0,1-.36-4.25A24.3,24.3,0,0,0,195,26a4.21,4.21,0,0,0-.38-1.61l-.34-.14a7.18,7.18,0,0,1-2.11-1.18c-1.33-1.06-1.64-1-2.57-1l-.77,0c-1,.36-4.77,3.72-7.67,6.7L181,29c-2.25,1.67-4.95,4-5.38,4.77a1.11,1.11,0,0,0-.16.38,3.21,3.21,0,0,0,.23.54,10,10,0,0,1,.79,2.16c.25,1,1,1.51,2.37,2.31a19.58,19.58,0,0,1,1.71,1.07,3.76,3.76,0,0,1,1.83,2.69,2.24,2.24,0,0,1-.66,1.75l-.17.16-.22.1c-2.57,1.14-5.47,2.44-6,2.72l-.22.18c-1.65,1.39-2.9,2.23-4.08,2.08a3.15,3.15,0,0,1-2.2-1.52,4,4,0,0,0-.42-.52l-.14,0c.42,2,1.21,5.88,1.31,6.86a3.49,3.49,0,0,1-1.36,3,3.28,3.28,0,0,1-3.24.43,2.77,2.77,0,0,1-1.86-3.09,2.08,2.08,0,0,0-.05-.77c-.17-.45-1.33-1.06-2.18-1.5-.45-.23-.89-.47-1.3-.71l-.11-.06-.05.05a4.35,4.35,0,0,1-1.3.89,3.26,3.26,0,0,1-2.61.18l-.25-.07c-.19.19-.45.5-.63.73-.91,1.11-2.28,2.78-4.22,2.2a2.53,2.53,0,0,1-1.71-1.33,3.18,3.18,0,0,1,.39-2.73,7.41,7.41,0,0,0,.53-1.35,3,3,0,0,0,.07-.37l-.13-.06-.12-.06a5.27,5.27,0,0,0-.39,1.29,10.32,10.32,0,0,1-2.74,5.26c-1.66,1.57-3.2.58-4,0a7.39,7.39,0,0,0-1.1-.62c-.59-.26-.59-.25-2.32,1.15-.45.36-1,.79-1.61,1.28a5,5,0,0,0-2,3.37,2.45,2.45,0,0,0,.16,1.35,63.19,63.19,0,0,1,6.24,4.37c.49.39.49.39,2.84-.72.63-.29,1.37-.65,2.28-1l.78-.35.67.53c.06,0,5.93,4.86,7.16,8.31s3.65,7.92,5.83,8.93c1.82.84,3.64,2.67,5.39,4.45a17,17,0,0,0,3.62,3.14c3.24,1.33,3.31,5.42,3.38,9.38.05,3.34-1.05,4.16-3.25,4.57a8.24,8.24,0,0,0-1.44.37,66.53,66.53,0,0,1-8.34,2.12l-.33.07c-1.7.35-2.83.74-3.19,1.56a103.33,103.33,0,0,0-2.75,12.34,18.72,18.72,0,0,1-1.1,4.05,31.79,31.79,0,0,0-1.29,4.33L151.6,131l-1.31-.19-.84-.14a13.78,13.78,0,0,0-3.12-.35,7,7,0,0,0-3.3,1.12,9.7,9.7,0,0,0-1.11,1.77c-.8,1.49-1.44,2.66-2.61,2.83-.26,0-1.07.16-25.34-4.08-.1,0-5.89-1.22-8.5-1.64a39.83,39.83,0,0,1-9.34-2.71c-3.11-1.32-4.09-3.49-5-5.59-.22-.5-.45-1-.72-1.51-1.35-2.57-2.43-5-2.48-5.14l-.1-.33c-.4-2.31-1.28-5.23-2-5.94-1.18-1.18-2.35-4.23-3.53-7.52-.25-.69-.53-1.48-.63-1.67-.39-.76-4.85-6.56-6.11-8a8,8,0,0,1-1.73-4c-.08-.38-.17-.77-.29-1.18a8.55,8.55,0,0,1-.25-1.46,10.91,10.91,0,0,1-1.47.4c-.61.14-1.45.33-2.8.71a15.79,15.79,0,0,0-6.83,3.92,15.93,15.93,0,0,0-2,3.73c-.87,2-1.61,3.67-2.6,4.5-.73.61-.74.67-.86,1.4,0,.28-.1.6-.19,1a1.55,1.55,0,0,0,.12.86,7,7,0,0,1-.15,4.74c-.76,2.35-3.75,5.46-7.58,9.28a39.77,39.77,0,0,0-3.26,3.45c-2.24,3.22-14,6.61-14.11,6.64-3.61,1-7.45,1.86-10,2.4a31.92,31.92,0,0,1-4.09.53,15.48,15.48,0,0,0-2.19.27c.08.34.25.88.39,1.33s.33,1,.51,1.64l0,.12c.48,1.71.73,2.57-.56,3.58a6,6,0,0,0-1.27,1.36c-1.15,1.58,1.16,4.41,2.39,5.45a10.65,10.65,0,0,0,1.35.87c1.47.86,3.29,1.92,2.81,3.74a11.65,11.65,0,0,0,.32,3.38c.08.47.17,1,.24,1.46a1.16,1.16,0,0,0,.8,1.11,3.28,3.28,0,0,1,1.43,1.27c.92,1.63.1,3.57-.59,4.89a14.22,14.22,0,0,1-2.74,3c-.64.6-1.3,1.21-1.71,1.69-.2.23-.28.33.29,1l.08.09a13.24,13.24,0,0,0,3.1,1.62,3.78,3.78,0,0,1,2.26,3.06,3.11,3.11,0,0,1,1.26,0c1.77.38,3,.88,3.56,4.06a6.56,6.56,0,0,1-.15,2.87h0a3.12,3.12,0,0,0,3.62-2.21,5.05,5.05,0,0,0,.38-2,5.13,5.13,0,0,1,.36-2c.67-1.67,3-4.71,5.21-5.7a5.42,5.42,0,0,0,1-.58c1-.74,2-1.2,4.29-.37a8.27,8.27,0,0,1,3.75,2.76,15.71,15.71,0,0,0,2,2c.83.68,1.86,1.59,2.94,2.56,1.89,1.69,4.48,4,5.51,4.46a9.33,9.33,0,0,0,5.26,1c1.42-.09,1.57-.35,2-1.13.15-.27.3-.54.5-.82l3.65-5.28-1.09,6.33c-.6,3.49-.54,9-.5,13.1,0,2,0,3.54,0,4.46s-.21,2-.36,3.05c-.26,1.88-.59,4.23-.27,5.15a7.54,7.54,0,0,1,.23.8c.63-.33,1.4-.68,2.2-1A18.91,18.91,0,0,0,73,199.42L74.14,198c3.71-4.63,5-6.14,5.38-6.48.18-.2.78-1.45.86-4.25.06-2.22,0-4.14,0-5.68,0-.66,0-1.25,0-1.77,0-.21,0-.47,0-.77-.08-2-.21-4.9,1.41-6.51a3.5,3.5,0,0,1,2.75-1c2.19.12,2.79.24,3.66,1.13a5.64,5.64,0,0,0,1.29,1c2.43,1.47,3.82,1.63,4.51,1.53a9.31,9.31,0,0,0,.34-1.08c.35-1.3,1-3.71,3.37-3.39,1.64.22,2.82,2,4.19,4.14.64,1,1.83,2.81,2.37,3l1.52.26-.41,1.48a2.28,2.28,0,0,1-3,1.85l-.14,0a5,5,0,0,0-.41,1.38c-.17.88-.31,1.73-.45,2.55-.65,3.84-1.21,7.16-3.32,9.69a10.72,10.72,0,0,1-2.19,2l-.29.21a8.14,8.14,0,0,0,.49,1.23,18.25,18.25,0,0,0,2,3.33,15.79,15.79,0,0,1,2.05,3.57c.24.58.44,1.13.63,1.64.71,1.91,1.06,2.7,1.64,2.78l.54.08c1.76.27,5.42.82,6.56.82.48,0,3-.56,5.31-1,5.55-1.17,9.58-2,11.06-1.88a9.94,9.94,0,0,0,1.76-.06c1.31-.12,3.28-.3,4.18,1.83.22.53,1.89,3.36,3.5,6.11,4.41,7.49,8.11,13.88,8.87,16.2l.06.3c.26,2.75.43,4.57-.78,5.55a3.18,3.18,0,0,1-3,.23,8.68,8.68,0,0,1-2.2-1,4.47,4.47,0,0,0-1.62-.63,3.18,3.18,0,0,1-1.65-.87c-.43.14-1.11.41-2,.8a23,23,0,0,1-4.23,1.34l-.43.1c0,.07,0,.17-.08.3-.2.87-.34,1.82-.49,2.82-.19,1.24-.38,2.53-.7,3.78-.15.6-.26,1.15-.35,1.66-.29,1.53-.55,2.85-1.67,3.63-.14.1-14.76,10.12-16.7,10.12H107l-.15-1.25a4.8,4.8,0,0,0-.84-1.56,10.47,10.47,0,0,1-1.78-3.68l-.12-.53.26-.47a19.56,19.56,0,0,1,2.12-3.12,2.24,2.24,0,0,0,.71-1.77,4.16,4.16,0,0,1,.9-2.34l-.17-.11a5,5,0,0,0-2.06-.88,2.23,2.23,0,0,1-2-1.85,7.23,7.23,0,0,1-.22-1.41,1.78,1.78,0,0,0-.46-1.22c-.08-.1-.08-.11-.48-.2a4.07,4.07,0,0,1-2.17-1.12l-.05.17a5.23,5.23,0,0,1-2,3c-2.38,1.9-5.72,4.52-7.61,6A30.69,30.69,0,0,1,87.12,250l-.85.48a1.56,1.56,0,0,1-1.17.51c-1,0-1.43-.72-2.69-2.79a3.43,3.43,0,0,1-.49-2c-3.45,1.45-4.69,1.69-5.58,1.79h-.11l-.22.38-.16.31A2.11,2.11,0,0,1,73.12,250,4.22,4.22,0,0,1,71,248.6l-.37-.37a21.85,21.85,0,0,0-2,2.59l-.46.66c-.57.76-1.69,1.19-3.35,1.28-1.33,2-5.73,9.63-6,11a7.81,7.81,0,0,1-.25,1.09l-.18.6-.56.27c-4.22,2-8,.25-11.83-1.93-1.87-1.06-3.23-1.09-4.7-.1-3.62,2.45-4.3,9.38-4.79,14.44-.09.88-.17,1.71-.26,2.46l.11,0a46,46,0,0,1,22.93-11.2l.49-.09.44.24a17.23,17.23,0,0,0,2,.89c.44.17.86.34,1.25.52a9.17,9.17,0,0,0,4.5.82l3.95-1.8-2.14,3.79C67.42,278.07,57,294.36,56.51,295c-1.93,3.42-4,7.82-4,8.91.15.42.34.87.53,1.32a9.06,9.06,0,0,1,1.06,4.41A6.21,6.21,0,0,1,52.13,313a5.77,5.77,0,0,0-1.29,1.77c-.38,1.45-.89,3.21-1.05,3.78,7.95,4.27,7.9,4.58,7.75,5.65a7.49,7.49,0,0,1-.21.81A19.41,19.41,0,0,0,56.73,327.25Zm69.78-15.61a1.36,1.36,0,0,0-.45.08Zm68.36-17.1h0Zm-2.79-.47h0Zm34-23.19Zm15.18-7.71h0ZM227.75,262h0Zm0,0h0ZM86.45,250.23h0Zm-20.38-.55Zm178.52-2.48h0Zm0,0v0ZM260,241.27h0Zm51-36.07h0Zm.12-.37h0Zm22.27-8Zm-22-32.16h0Zm16.05-40.78L325.45,129c3-1.42,4.94-2.36,6.29-3C330.57,125.4,329.08,124.65,327.57,123.91Zm7.55,3.67h0Zm-56.25-25ZM225.73,92.07Zm-15.61-6.92Zm47.5-6.89ZM135.42,63.33h0ZM197.3,47.87Zm-.08-.07h0Z"/><path class="cls-1" d="M60.18,328.4l-.07.14ZM126.5,311.7l-.25,0Zm31.24-.15ZM52.44,304h0Zm142.38-9.47h0ZM226,270.9Zm15.24-7.78h0ZM227.75,262h0ZM86.17,250.46Zm.23-.26h0Zm158.25-3v0Zm15.44-5.89h0Zm51-36.09h0Zm20.65-33.3Zm-.71-.55Zm-3.53-47.52-2.19,5.25c3.1-1.5,5.15-2.46,6.51-3.09C330.66,125.38,329.11,124.61,327.55,123.84Zm7.56,3.69h0Zm-55.36-30.1ZM144.24,54.81Zm27-7.66h0ZM188.85,22.1Z"/><path class="cls-2" d="M61.41,329.12h0Zm0,0h0Zm-.13-.06L58.8,328l0-.09.12-.23L61.28,329h0l-1.09-.63,1.08.63-.1,0Zm65.26-15.95,0-.18v.13l-.5-2.74a1.33,1.33,0,0,1,.5,0Zm69.54-17.95-1.26-.63H193.4v-.33l.15-.3,1.27.63h0Zm45-30.64-.18,0,.44-1.5.25-1.24-.12.67.15-.67-.19,1,.29-1h0l-.31,1ZM87.5,251.09l-1.06-.85-1.23-.82.08-.1,1.06.85,1.23.82ZM246,247.67l-1.09-.39.13.05-1.76-.46.07-.22,1.54.59,1.14.31-.64-.16.63.19-.73-.19Zm15.11-5.37-1-1h0l-1-1,1,1h1.42v.59Zm51.46-37.09h0ZM322.6,132l4.21-10.09,1.35.66c1.57.77,3.14,1.55,4.34,2.17l2.58,1.33-.14.06.14,1.31.24,1.48-.2,0-.26-2.78-2.43,1.12c-1.36.63-3.4,1.59-6.49,3.08Zm12.29-5.82.12.71,0-.74Zm-6.62-.39-.18.43.53-.25Z"/></svg>