<svg id="Layer_1" data-name="Layer 1" xmlns="http://www.w3.org/2000/svg" viewBox="0 0 350 350"><defs><style>.cls-1{fill:#999;}.cls-2{fill:#f90;}</style></defs><title>M</title><path class="cls-1" d="M266.29,332.52l-5.76-2.12-9.09-3.79-9.7-7.12-6.52-6.06-5.91-3.79h-4.55l-22.88,2.27L196,309.64l-47.43-15.15V280.69l-1.67-6.82-3.18-2.42-2,.76-4.39,12.88-9.39-1.82-3.33-1.82-1.52-2-7.58-3.94-4.85-1.82-9.85-2.27-1.67-1.36-3,1.06L94.45,271l-2.58-4.55-3.33-9.24-2.27-2v-7.58l-3.33-6.21-1.21-2.27L74.6,228.11l-7.43-3.33v-1.21l-6.21.76-5,9.09s-5,3.64-5.91-2.58l1.67-5.91.3-1.36-3-1.06-7,3.18-2-.76-2.42-4.09,1.52-8.33-1.52-3.18-10.46-4.09s-3.18-5-4.24-5-1.52-3.94-1.52-3.94l-2.42-10v-2.42H15.2L11,181.29l-4.85-6.36,14.7-25.46,8-11.67,10.46-12L42,123.4,44.45,117l7.73-9.09,2.42-8.64,7.12-8.18,4.39-9.55,2.58-10.76,2-4.09,5-3.64,4.24-1.67,2.73-4.24.61-3.33,3.94-5.15L91,47.79,94.3,42,97,41l12.58,6.52L125.06,56l13.64,7.12,3.18,5.3,5.15-.91L148.1,69l1.67,5.46,2.58,1.06,2,4.39L164,76l3.33-.45,10.46,3.33s.91,3,7,2.58l6.06-.45,5.76-1.82,8.49-22.58,4.55-12.12,11.52-27,8.64,13.64,4.39,8,3.64,39.4,12.27,5.15,6.82,3,6.06-.91,10.3.91,7.88.76,2.42,4.7,4.09,2.42,3.18,1.67L301.3,102l4.39,7,6.52,8.79,2,1.21h4.09v5.15l2.42,3.79,12.73,6.91s8.94,6.88,0,10.67l-4.39,7s-3.64,7.12-2.73,9.09.3,8.64,4.09,8.94a60.16,60.16,0,0,1,8.49,1.52s3.94,4.09,2.88,6.67-1.21,8.49.91,9.39,1.06,3.64,0,4.39-14.55,13.64-14.55,13.64l-5.61,5.76v5.76l2.58,1.36.3,5.76s1.21,10.91,2.88,11.21-3,4.09-3,4.09L318,245.24l-3,5L312.66,253,306,255.69l-8,10.76-3.64,1.67-1.52,2.58,4.85,7.58,3.49,9.55,5.61,2.12-.91,6.52-3-.15-10.91-5.91-2.12,1.36L286,299.18,279.48,306Z"/><path class="cls-2" d="M267,334.29l-7-2.56-9.44-4-9.82-7.23-6.42-6-5.45-3.5h-4.06l-23.15,2.3L195.47,311l-48.34-15.44V280.86l-1.51-6.17-2.15-1.64-.61.24-4.58,13.42-10.82-2.09-3.79-2.07-1.51-2-7.22-3.76-4.68-1.76-10.08-2.33-1.31-1.07-2.57.9-2.71-.25-3-5.41L87.34,258l-2.48-2.15V248l-4.35-8.12-6.86-10.66-7.88-3.54v-.53l-3.9.48-4.8,8.73-.26.19c-.29.21-2.92,2-5.33,1-1.52-.64-2.47-2.17-2.82-4.54l0-.3,1.76-6.26L49.06,224l-7,3.19-3-1.15-2.95-5,1.53-8.4-1.08-2.26-10.36-4.06L26,206a24.61,24.61,0,0,0-3.33-4.36c-.73-.08-2.1-.66-2.63-5.09l-2.44-10.25v-1H14.81L10,182.36,4.41,175l15.23-26.37,8.13-11.8,10.58-12.1,2.47-2.19,2.39-6.27,7.69-9,2.43-8.65,7.2-8.27,4.25-9.24,2.65-10.91,2.12-4.41,5.6-4L79,60.27l2.33-3.62.62-3.39,4.45-5.82L90,46.55l3.28-5.66,3.79-1.47,13.15,6.81,15.49,8.5,14,7.29,2.89,4.81,5.08-.9,1.71,2.44,1.54,5,2.48,1L155,78.09l8.77-3.52,3.65-.5,11.47,3.66.21.72h0s.85,1.92,5.51,1.57l5.9-.44L195.5,78,208.29,44l12.6-29.51L231,30.36l4.58,8.37,3.59,38.84,11.49,4.82,6.47,2.88,5.82-.87L282,86.15l2.59,5,3.74,2.22L291.5,95,302.3,101l4.56,7.23,6.32,8.53,1.4.86h5.11v6.15l2,3.13,12.6,6.86c.51.4,5,4,4.49,8-.26,2.06-1.74,3.71-4.38,4.93l-4.13,6.55c-1.69,3.33-2.94,7-2.67,7.81a11.66,11.66,0,0,1,.66,3c.38,2.71.81,5,2.25,5.08a60.89,60.89,0,0,1,8.73,1.56l.39.1.28.29c.77.79,4.51,4.92,3.17,8.19-1.07,2.6-.67,7.2.16,7.55a3.27,3.27,0,0,1,2.06,2.73,4.85,4.85,0,0,1-1.8,4.12c-.81.6-9.26,8.6-14.39,13.51l-5.17,5.31v4.33l2.53,1.34.35,6.56c.45,4,1.37,8.89,2.07,10A1.73,1.73,0,0,1,330,235.9c.15.59.46,1.8-3.86,5.29l-7.1,5-3,4.92-2.5,3-6.63,2.71-8,10.73-3.56,1.63-.85,1.44,4.52,7.12,3.26,8.94,6.06,2.29-1.24,8.92-4.65-.23L292,292l-1.09.7L287.16,300l-6.51,6.81Zm-14.85-8.92,8.93,3.72,4.51,1.66,12.71-25.57,6.52-6.82,3.87-7.58,3.15-2,11.36,6.16,1.41.07.57-4.11-5.16-2-3.65-10-5.23-8.18,2.18-3.71,3.71-1.7,8.05-10.78,6.71-2.74,2-2.37,3.13-5.16,7.51-5.32a21.63,21.63,0,0,0,2.41-2.26c-.89-1.1-2-4-2.85-11.73l-.27-5-2.62-1.39v-7.19l6-6.17c2.3-2.2,13.65-13,14.74-13.8a2.09,2.09,0,0,0,.63-1.51c0-.16-.06-.3-.36-.43-3.33-1.43-2.79-8.5-1.66-11.24.43-1-1-3.38-2.32-4.85a57.07,57.07,0,0,0-7.85-1.38c-3.82-.31-4.42-4.64-4.83-7.51a11.65,11.65,0,0,0-.44-2.25c-1.08-2.34,1.56-8,2.75-10.33l.06-.11,4.63-7.35.41-.17c1.91-.81,2.95-1.77,3.09-2.86.26-2-2.29-4.49-3.32-5.32l-12.94-7-2.84-4.45v-4.15h-3.08l-2.54-1.57-6.74-9.1-4.2-6.66-10.14-5.58L287,95.87l-4.51-2.67-2.26-4.37-7.11-.68L263,87.25l-6.3.95L249.5,85l-13-5.47-3.69-40-4.25-7.77-7.15-11.28L210.92,45,197.67,80.3l-6.74,2.09-6.06.45c-5.25.4-7.31-1.65-8.06-2.81L167.22,77l-2.84.39-10.8,4.39-2.3-5.13-2.67-1.1-1.8-5.88-.41-.59-5.22.92-3.48-5.8-13.28-6.94-15.48-8.5-12-6.2-1.67.65L91.89,49,88,50l-3.43,4.48L84,57.71l-3.13,4.86-4.5,1.77-4.57,3.32L70,71.3,67.41,82.17,62.93,91.9l-7,8.1-2.42,8.63-7.77,9.14-2.46,6.46-2.92,2.6L30,138.67l-8,11.55L7.81,174.82l4.11,5.4,3.67,2.23h4.81v3.67l2.41,10a11.35,11.35,0,0,0,.64,2.75c.73.22,2,1.16,4.66,5.2l10.55,4.13,2,4.1-1.5,8.26,1.9,3.21,1,.37L48.92,221l4.76,1.67-.58,2.59-1.6,5.69c.2,1.12.57,1.84,1.06,2.05a3.11,3.11,0,0,0,2.33-.55L60.07,223l8.52-1v1.9l7,3.13L83,238.51l4.71,8.8v7.29l2.06,1.79,3.42,9.48,2.15,3.8.62.06,3.49-1.22,2,1.66,9.71,2.25,5,1.89,7.85,4.08,1.52,2,2.88,1.57,8,1.54,4.21-12.34,3.33-1.28,4.21,3.21,1.83,7.64v12.75l46.44,14.84,5.67,2.18,22.69-2.25h5l6.46,4.17,6.46,6Z"/></svg>