<svg id="Layer_1" data-name="Layer 1" xmlns="http://www.w3.org/2000/svg" viewBox="0 0 350 350"><defs><style>.cls-1{fill:#999;}.cls-2{fill:#f90;}</style></defs><title>M</title><path class="cls-1" d="M22.87,307.16s53.12-2.28,56.06-6.84,0-5.54,0-5.54H95.55l33.24-4.24,76.26-8.8-3.26-22.81,28.35-3.59,23.79-4.56-8.8-61.6L328.58,181s-5.54-22.16,8.8-31.29,0-31.29,0-31.29l-10.76-30s-3.26,1.3-.65-12.71,1.63-23.47,1.63-23.47L324,42.84l-42,5.87s24.12-3.59-50.19,4.89l-74.31,8.47-62.25,7.5L52.86,73.8,19.94,85.54l2.61,12.71-10.76.33,3.26,13-8.8,2.93v5.21l4.24.65.33,4.24,13.36.65,2.28,1-.33,8.8L31,144.53l8.8,8.8,5.54,2.28,2.28.33.33,3.26-5.21,2L46,164.41l4.56,1A28.09,28.09,0,0,0,48,176.47c-.33,6.84-3.91,14-3.91,14l-6.19,14L25.8,215.58l-4.89,6.84.65,9.45V239l1.63,3.59,4.89-2.28,2.61,21.84-2.28,7.17L31,270l-7.17,15.64,4.89,1.3-1,5.21-4.56-.33s-1.63,1-1,8.15Z"/><path class="cls-2" d="M21.58,308.63l-.77-8.52c-.64-7,.77-9,1.66-9.49l.38-.23,3.75.27.5-2.68-5.24-1.4L29,271l-2.42-.6L29.25,262l-2.34-19.59-4.41,2.06-2.35-5.17v-7.48L19.47,222l5.38-7.48,11.84-10.88,6.07-13.74c.06-.13,3.48-7.05,3.79-13.51a32.16,32.16,0,0,1,2-10l-3.27-.7-5.11-5.11,6.25-2.34-.11-1.07-1.52-.26L39,154.53l-9.16-9.16-5.16-10,.3-8.2-1.15-.49L9.5,126l-.34-4.36L4.83,121v-7.45l8.52-2.84L10,97.21l10.83-.33L18.3,84.62,52.71,72.39l42.37-4.24,62.22-7.49,74.32-8.47c20.13-2.3,34.88-3.92,43.84-4.82,3.64-.37,6.34-.61,8-.74a8.3,8.3,0,0,1,2.77,0l38.68-5.4L329,52.15c0,.39,1,9.82-1.65,23.87-1.42,7.61-1,10.15-.7,10.91l.8-.32,11.2,31.22c1,1.52,8.31,13.63,6.1,23.74a14.43,14.43,0,0,1-6.62,9.37c-13.32,8.48-8.24,29.54-8.19,29.75l.4,1.59-83.59,8.16,8.78,61.47-25.12,4.82-27,3.42L206.67,283l-77.71,9-33.41,4.25h-14a7.26,7.26,0,0,1-1.48,4.89c-.72,1.12-2.21,3.44-30.2,5.78-13.52,1.13-26.85,1.71-27,1.71Zm2.34-15.32c-.27.72-.66,2.53-.29,6.55l.53,5.82c24.89-1.12,51.42-3.69,53.6-6.16,1.18-1.84,1.1-2.72,1-3a.64.64,0,0,0-.34-.4l-8.29-2.76,25.32,0,33.15-4.23,74.83-8.63-3.26-22.8L230,253.93l22.38-4.29-8.82-61.73,83.33-8.14c-1-5.43-3.14-23,9.75-31.23A11.7,11.7,0,0,0,342,141c2.06-9.42-5.72-21.62-5.8-21.74l-.14-.29L325.57,89.75a2.32,2.32,0,0,1-.59-.36c-1.21-1-2.35-3.47-.41-13.89a92,92,0,0,0,1.63-22.89l-3.11-8.21-40.92,5.71-.08-.53c-5.4.47-18.69,1.83-50.15,5.42l-74.31,8.47L95.39,71,53.17,75.2,21.57,86.46l2.7,13.16-10.68.32,3.15,12.6-9.08,3v3l4.15.64.32,4.11,12.37.6,3.41,1.46-.35,9.4,4.62,8.92,8.44,8.44,5.11,2.11,3.21.46.55,5.45-4.18,1.57,1.41,1.41,6,1.29-.9,1.66a27.1,27.1,0,0,0-2.44,10.48c-.34,7.06-3.91,14.28-4.06,14.58L39,205.34,26.87,216.52l-4.51,6.31.62,8.94v7l.91,2,5.37-2.5,2.88,24.08-1.92,6,2.8.7-7.18,15.67,4.54,1.21-1.45,7.75Zm.2-.41Z"/></svg>