<svg id="Layer_1" data-name="Layer 1" xmlns="http://www.w3.org/2000/svg" viewBox="0 0 350 350"><defs><style>.cls-1{fill:#999;}.cls-2{fill:#f90;}</style></defs><title>M</title><path class="cls-1" d="M227.9,16.53s-1.73,5.19-4.11,6.88a4.42,4.42,0,0,1-1.54.31c-.54-.07-1.12.62-1.12.62a10.1,10.1,0,0,1-2,2.49,1.44,1.44,0,0,0-.56,1.47s.63,1,.85,1.25,1,.65,1,.85.57.77.5,1.39-.5,2-.54,2.22.76,2.19.74,2.5a2.16,2.16,0,0,1-.88,1.51,5.74,5.74,0,0,1-2.3,1.12,3.34,3.34,0,0,0-1.37.59l-2.08.83s-2.6,4.78-3.13,5.34a22.94,22.94,0,0,1-2.79,2.75,12.79,12.79,0,0,0-2.56,2c-.3.43-2.9,3.25-3.11,3.64s-3,4.13-3.19,4.24.57,1.79.63,3.22.52,2.61.29,3.7-1.32,4.88-1.35,5.39-1,2.29-1.26,3.77-.86,2.74-1,3.6-1.12,2.4-1.5,3.67a9.1,9.1,0,0,1-2.32,3.74c-.71.44-1.8,1.32-2.63,1.33s-3.27.12-3.67.13a2.23,2.23,0,0,0-.85.27,11,11,0,0,0-2,.94c-.16.24-1.9.91-2.21,1.41s-2.67,2.62-3.06,3.75a21.3,21.3,0,0,1-1.44,2.89s-1.79,2.86-1.82,3.75-.36,1.15-.3,1.62a13.72,13.72,0,0,1-.42,2.72c-.14.54-.12,2.11-1.8,1.68a22.87,22.87,0,0,1-4.07-1.45c-.83-.41-3.33-1.68-3.49-1.79s-3.29-1-3.7-1.15-2.81,3.06-3.83,3.57a13.75,13.75,0,0,0-3.12,2.6c-.36.48-4.76,3.74-4.15,7s1.1,3.65,1,5.29a10.62,10.62,0,0,1-2.16,5.13,9.86,9.86,0,0,0-2.09,3.93c0,.7-1.12,2.46-.54,4.68s.68,3.93,1.12,5.13.31,1.08,1.08,1.68,3.19,3.21,5.27,4.31a19.08,19.08,0,0,1,4.59,3.46,13.4,13.4,0,0,0,1.54,1.58s-3.21.86-4.26,1.19a7.33,7.33,0,0,1-4,.56s-6.66,1.75-10.54,1-7.91-1.3-10.78-3-4.52-2-5.1-2.91-3.28-3.49-3.86-4.28-3.24-1.12-3.91-1.26a50.72,50.72,0,0,0-8,.3c-.7.28-1.77.79-1.77.79l-.14.74.79.74-.14,2.4-.65,2.12.4.21a9.2,9.2,0,0,1,.28,2.14c-.12.4-.37,1.75-.37,1.75l0,1.19a11.9,11.9,0,0,0-.54,2.3c.14.09-2.21-.7-2.21-.7a1.24,1.24,0,0,1-.2-.42c-.05-.23-1.06-.66-1.06-.66l-.84.34a38.82,38.82,0,0,0-4.75.39,1.18,1.18,0,0,0-.73.64s-3.88-1.2-6.27-.05l-1.76.79-2.7.56-1.51-.49a27.82,27.82,0,0,0-3.17-3.93,4.14,4.14,0,0,1-1.4-1.48c-.13-.27-1.22-.4-1.81-1.88a1,1,0,0,0-1.08-.37,8.36,8.36,0,0,1-3.11-.27,11.13,11.13,0,0,0-3.25.24,5.84,5.84,0,0,1-3-.17,12.48,12.48,0,0,0-4.37-.72,1.21,1.21,0,0,0-1,.69s-.52.47-1-.24-.12-.92-.57-1.17a6.66,6.66,0,0,0-2-.46c-.21,0-1.68-.14-2.07.25s-1.5.41-2.53,3.51v.19s-3.75.56-4,.7-5.17,2.26-5.91,2.84-2.91,1.21-3,1.37A53.79,53.79,0,0,1,37,157.46a29.38,29.38,0,0,0-4.7,3.72c-.44.7-.37,2.33-.35,3.47l4.56,1.89a6.83,6.83,0,0,0,3.61,3.79,4.24,4.24,0,0,1,1.09.58c.19.23.54,0,.86.26a1.48,1.48,0,0,0,1.26.35c.49-.12,1.4-.42,1.28.65s-2.51,4.68-2.49,5a7.72,7.72,0,0,0,.61,3.61,9.48,9.48,0,0,1,.81,3.17,4.4,4.4,0,0,1,.07,2c-.21.47,2.42,3.21,4.93,4.77,0,0-1.14,3.35-.84,4.84s.3,3.1.91,3.91,1.68,4,2.12,4.61a46,46,0,0,1,2,4.35c.3.7,1.28,3.38,1.49,4.1s1,4.05,1.28,4.66,1.93,2.75,1.91,3.28a37.38,37.38,0,0,0,2.12,5.33c.21.33,1,2.86,1.47,3.26a3.56,3.56,0,0,1,.35.77A21.93,21.93,0,0,0,65.43,236s0,6.12.4,7.59,2,7.87,2.44,8.61.49,2.79.93,3.42a12.84,12.84,0,0,1,1.47,3.33,37,37,0,0,0,3,7.77c1.4,2.37,1,2.42,3.21,4.17s3.33,3.12,3.68,4.33,3.35,6.08,3.61,7,.54,1.16.49,1.75-.28.74-.54.84a2.1,2.1,0,0,0-.68.44,2.94,2.94,0,0,1-.86.09s-.63.33-.63.63S79.53,287,79.53,287s-.44,1.35-1.3,1.37a1.1,1.1,0,0,0-1,.88s-.21.81-.84.79a1.13,1.13,0,0,0-1.14,1.35s-2.09.65-1.51,1.47a4.65,4.65,0,0,1-1.82,1.26s.26,1.26-1.35,1.49a1.85,1.85,0,0,1-.16,1.86s1,1.63.16,2.49c0,0,1,2.42.19,2.58,0,0,1,.7.58,1.63,0,0,0,.47.81,1s.05,1.29.05,1.29-.06.47.82.82.88.43.86,1,.75,1,1.27,1.18.18.73.25,1,.65.53,1.41.55.56.15.53.47.27.79,1.57.81.86,1.09,1,1.29a1.29,1.29,0,0,0,1.45.75,1.43,1.43,0,0,1,1,.8,2.55,2.55,0,0,0,2.23,1.72s.86.1,1,.79,1.09.83,1.55.84,1.41-.49,1.83,0,.71.12,1.18-.25a.5.5,0,0,1,.8.31s.09.23.88,0a2.9,2.9,0,0,0,.51,1.46c.43.45.85,1.23,1.88,1.23a1.65,1.65,0,0,0,1.39,1.36s.93,0,1.12.33.45.77.81.9,1.46,0,1.75.12.39.91.62,1,1.36,0,1.54.24a1.64,1.64,0,0,1,.49,1.13,1.8,1.8,0,0,0,.48,1.11s.69.22.8.77-.12.53,0,.83.12.57.52.72.53.24.53.66,1,.57,1.1.85.59.79.24,1.45a1.43,1.43,0,0,0-.07,1.53c.24.44.63,1,1.07,1a5,5,0,0,0-.23,1.93,4.23,4.23,0,0,0,2.5,1.34,1.33,1.33,0,0,1,.59,1.35c-.17.89,1.36.88,1.66.83s.34.36.34.36,0,.77,1.13.83.87.55.87.55l1.06.52s1.58-1.86,2-2.56.68-.52,1-1.43,2.27-5.39,2.27-5.39,8.45-5.06,8.89-5.43,1.17,1.52,1.38,1.87a8.26,8.26,0,0,1,.82,2.3,6.07,6.07,0,0,0,.49,2.65c.52.72,2.25,3.18,2.76,3.33l.17,0a28.83,28.83,0,0,1-.24-5c.16-2.18.86-2.53,1.47-3a3.7,3.7,0,0,0,1.06-2.76,11.22,11.22,0,0,1,.54-4.09,5.59,5.59,0,0,0,.44-2.85c-.14-.68.72-1.57.28-3.23s-1-6.67-1.17-7.23c0,0,1-1.31,1.68-1.45s1.57.59,2,1.06a3.64,3.64,0,0,0,2.48.91c1.06,0,1.15,0,1.76-1.2s2.29-2.2,2.78-3.39.47,0,.89-1.36.84-1.4.87-2.55a7.63,7.63,0,0,0,0-2.9,11,11,0,0,0,.07-1.9c-.07-.8.23-8.55.12-9,0,0,.35-.89,1.15.1,0,0-.3,5.1,1.4,5.55a5.15,5.15,0,0,0,3.7.1c2.11-.7,2.46-.49,2.74-.38a11.23,11.23,0,0,0,3.16-1.54c.56-.44,1.85-.7,2.29-1.34a4.35,4.35,0,0,0,1.53-1.25,10.22,10.22,0,0,0,1.06-1.5,11.64,11.64,0,0,0,.66-2.64c0-.61.34-2.51.43-3.62s.53-3.08.56-3.95l.19-.55s.49-.48.7-.45,4.85,1.28,6,1.19,1.26.58,1.68-.92a48.15,48.15,0,0,1,2.18-5.09s.35-1.29,1.5-1.4,1.79-.58,2.84-.44c0,0,4.68-.43,5.64-.55s2.34.21,2.7-.68,1-1.71.23-2.64-1.93-1.36-2.38-2.1-3.51-2.85-3.74-3.4-2.55-3.15-2.67-4.48a3.53,3.53,0,0,1,.89-3.14,8.19,8.19,0,0,1,3.82-2.4,24.17,24.17,0,0,1,5.67-.75,19.86,19.86,0,0,0,5.62-1.24s.19-.23.61-.65.54-.16.86-1a3.72,3.72,0,0,0,.09-2.37,4.73,4.73,0,0,1-.37-2.16c.09-.59-.35-4.31.07-5.13a2.78,2.78,0,0,1,1.61-1.27,10.76,10.76,0,0,1,2.71-.73,19.78,19.78,0,0,0,2.46-.38,7.31,7.31,0,0,1,2.6-.05c.35.16,3,2.25,4.43,2.18a5.44,5.44,0,0,0,2.93-1.4c.79-.49,1.33-.77,1.54-1.22s2.72-3.09,3.06-3.81c0,0,1.41-1.29,1.8-1.78s.09,1.31,1.41,1.62c0,0,.73,1.34,1.34-.07s.77-.61.65-1.9a38.49,38.49,0,0,1-.21-4.12,8.19,8.19,0,0,1,.81-2.37,1.64,1.64,0,0,0,.1-1.52c-.3-.66-.3-1.74-.61-2.11a6.69,6.69,0,0,1-.87-2.22c-.05-.49-.65-1.86,0-2.91a23.92,23.92,0,0,0,2.18-4c.1-.71,1.35-3.88,1.56-4.56a30.79,30.79,0,0,0,.85-4,34.94,34.94,0,0,0,.54-4.66,3.76,3.76,0,0,1,.91-2.63,10.45,10.45,0,0,0,2.07-3.21c.42-1.49-.54-1.77-.84-2.63s-1.72-3.12-1.4-4.26,3-5,3.38-5.35,3.91-2,4.54-3.77,2.7-3.49,3-6.52a74.79,74.79,0,0,0,1.65-8.78c.3-3.38.61-3.31.61-3.31s2.16-1.12,3.93-2.3,2.93-1.58,3.35-2.07a27.08,27.08,0,0,0,2.82-3.07c.86-1.28,1.7-1.54,2.72-2.72a58,58,0,0,0,3.79-4.47c1.42-2,2-2.54,2.28-2.93a5.89,5.89,0,0,0,1.28-2.14c.28-1.14.72-2.75,3.52-3.86a43.22,43.22,0,0,1,3.58-5.33,35.44,35.44,0,0,0,3.93-5.33,8.42,8.42,0,0,0,1-3.56c-.12-1,1.12-2,1.42-2s1.09.28,1.47,1.35,1.51,4.05,2.19,4.59c0,0,.4,1.26.84,1.42s2.44,1.68,2.7,1.79,3.33,1.12,3.86,1.91,2.42.49,3.14.44,2.86,1,3.7.56,2.58-.26,2.68-2.56a8.34,8.34,0,0,0-.33-3.6c-.16-.28-1.33-1.58-1.32-2.18a17.35,17.35,0,0,1-.38-3.34s-1.11-2.86-1.11-3.14a35.34,35.34,0,0,1,.21-4c.17-.77-.17-3.27.29-4.2s.79-5.73,1-6.24.61-1.21.61-1.21-.51-.51-.23-2.33a10.68,10.68,0,0,1,.51-2.61,1.39,1.39,0,0,0,.28-1.17,2.49,2.49,0,0,1,.47-1.47s.21,0,.28-.79a7.11,7.11,0,0,1,.56-2.3c.42-1.08,1.76-5.24,1.92-5.53s7.28-.16,9.51.75l1,.42,1.36-.26a2.85,2.85,0,0,0,1.89-1.61c.72-1.41,2.41-4,2.41-4l-1.94-6.72s-3-4-4.07-4.43c0,0,1.75-6,2.11-6.7s1-1.43,1-1.71-3.63-5.24-4.84-5.85l-.17-.24a32.06,32.06,0,0,0,2.43-3.25c.42-.84,2.69-3.7,2.67-5.32s-.26-1.62-.26-1.62-1-.26-1.2.05-.24.52-1.48.09a5.06,5.06,0,0,1-3.3.89s-2.51.38-3.18,0-3.19-.44-3.58-.66-2.36-.68-2.62-1.1l-.26-.23s-1.75,2.6-1.66,3.32-1.43-.1-1.64-.24a14.11,14.11,0,0,0-3.95,0,41.53,41.53,0,0,1-7.52,0c-1.12-.23-1.68.23-2.36-.44a2.3,2.3,0,0,1-1.12-.4,10.53,10.53,0,0,1-2.2-2c-.28-.51-1.08-1-1.31-1.87A9.37,9.37,0,0,0,276.58,36c-.28-.51-1.61-2.09-1.94-2.71a8.34,8.34,0,0,0-1.12-1.48,19.67,19.67,0,0,1-2.34-2.23c-.3-.58-.65-.52-1-1.48s-2.72-7.63-3.11-8S263,17,262.63,16.74s-2.43-1.87-2.64-2.08a17.12,17.12,0,0,0-2.62-2,16.17,16.17,0,0,1-3.23-1.85,37.29,37.29,0,0,0-4.33-2.88c-.38-.16-1.59-1.4-3.21-.72s-2.2.8-2.9,1.47a5.33,5.33,0,0,0-1.54.79,24.59,24.59,0,0,1-2.74,1.89A30.21,30.21,0,0,1,236.86,13c-.45.12-1.78,1-2.25,1.08s-1.17.82-1.68.63-1.94-.24-2.15.17S227.9,16.53,227.9,16.53Z"/><path class="cls-2" d="M114.88,344.74l-3.1-1.54a2.37,2.37,0,0,1-1.44-1.07,2.81,2.81,0,0,1-1.76-.74,1.94,1.94,0,0,1-.55-1.58,5.05,5.05,0,0,1-2.94-2,2.84,2.84,0,0,1-.1-1.92,4.71,4.71,0,0,1-.71-1,2.78,2.78,0,0,1,0-2.71,2.31,2.31,0,0,1-1.34-1.29,2.56,2.56,0,0,1-1.14-2.21l-.1,0-.25-.25a3.21,3.21,0,0,1-.89-2h-.13a2.8,2.8,0,0,1-1-.16,1.8,1.8,0,0,1-.92-1h0a3.91,3.91,0,0,1-1.36-.13A2.71,2.71,0,0,1,95.74,324l-.21,0a3,3,0,0,1-2.35-1.53,3.85,3.85,0,0,1-1.68-1.29l-.18-.21a3,3,0,0,1-.61-1,1.73,1.73,0,0,1-.36-.14,1.76,1.76,0,0,1-2.13-.12l-.2,0a3.4,3.4,0,0,1-.9.13,2.81,2.81,0,0,1-2.84-1.67,4,4,0,0,1-3.16-2.46,2.62,2.62,0,0,1-2.38-1.37,1.64,1.64,0,0,1-.28-.73,3,3,0,0,1-2-.85,2,2,0,0,1-.32-.48A2.48,2.48,0,0,1,74,310.84a1.64,1.64,0,0,1-.07-.36,2.69,2.69,0,0,1-1.49-1.87,2.29,2.29,0,0,1-1.69-2.31l0-.33a2.45,2.45,0,0,1-.92-1.79v-.33l.05-.1,0,0-2.56-1.89,2.15-.46a8,8,0,0,0-.29-.87l-.34-.83.55-.6a2.28,2.28,0,0,0-.29-.89l-.49-.86.64-.76a.72.72,0,0,0,0-.33l-.83-1.74,1.91-.28.12,0-.22-1.08,1.2-.33a2.61,2.61,0,0,0,.76-.44,1.86,1.86,0,0,1,.08-.36,3,3,0,0,1,1.59-1.57,2.46,2.46,0,0,1,.38-.72,2.69,2.69,0,0,1,1.64-1A2.47,2.47,0,0,1,78,287a1.92,1.92,0,0,0,.21-.41l.23-.69.69-.22c.63-.2,1.32-.46,1.69-.62a2.9,2.9,0,0,1,1.13-1l.31-.16h.58l.36-.23,0-.09a8.32,8.32,0,0,1-.35-1c-.11-.34-.92-1.79-1.51-2.85a28,28,0,0,1-2.09-4.14c-.28-1-1.35-2.17-3.19-3.61a7.87,7.87,0,0,1-2.81-3.21c-.19-.35-.41-.78-.75-1.36a38,38,0,0,1-3.18-8.27A12.43,12.43,0,0,0,68,256.41a5.49,5.49,0,0,1-.68-2.21,7,7,0,0,0-.29-1.27c-.39-.59-.92-2.36-2.25-7.58-.16-.62-.29-1.13-.37-1.43a47.82,47.82,0,0,1-.44-7.4,23.06,23.06,0,0,1-4-6.15l-.08-.28a1,1,0,0,1-.09-.16,9,9,0,0,1-1.3-2.75c-.11-.31-.2-.57-.26-.7A36.73,36.73,0,0,1,56,220.72,15.51,15.51,0,0,0,55,219.2a10,10,0,0,1-.88-1.44c-.18-.43-.47-1.48-1-3.52-.15-.58-.28-1.07-.34-1.29-.19-.64-1.13-3.25-1.43-3.93l-.27-.63c-.31-.75-1.27-3-1.56-3.45a12.69,12.69,0,0,1-1.06-2.28,19.48,19.48,0,0,0-1-2.32,6.77,6.77,0,0,1-1-3.18c-.06-.43-.12-.87-.21-1.3a11.47,11.47,0,0,1,.56-4.55c-1.73-1.24-5.24-4-4.6-5.83a4.56,4.56,0,0,0-.07-1,2.84,2.84,0,0,1-.14-.72,6.21,6.21,0,0,0-.6-2.27,8.3,8.3,0,0,1-.77-4v-.17c0-.53.16-.88,1-2.33.28-.49.74-1.29,1.08-2a3,3,0,0,1-1.37-.51,1.8,1.8,0,0,1-1.19-.51,5.71,5.71,0,0,0-.62-.28l-.15-.07a8.8,8.8,0,0,1-4-4l-4.86-2,0-1.16c0-1.71,0-3.08.57-4,.15-.24,4-3.83,5.67-4.32v0c.54-.12,4.24-1.34,5.07-1.68a5.61,5.61,0,0,1,1.2-.56,10.65,10.65,0,0,0,1.7-.77,39.13,39.13,0,0,1,5.57-2.73l.59-.26c.19-.09.43-.21,3.53-.69A5.94,5.94,0,0,1,57,145.93l.09-.06a3.88,3.88,0,0,1,2.77-.6H60a7.34,7.34,0,0,1,2.77.63,1.9,1.9,0,0,1,.81.81,2.8,2.8,0,0,1,.95-.25,13.26,13.26,0,0,1,5.23.91,5.69,5.69,0,0,0,1.88,0l-.13,0c.23-.09,3.22-.69,4.35-.21a8.19,8.19,0,0,0,2.27.17,2.36,2.36,0,0,1,2.6,1.12l.05.12a1.59,1.59,0,0,0,.85.92,2,2,0,0,1,.91.86,2.81,2.81,0,0,0,.88.91,20,20,0,0,1,3.3,3.92l.7.23,2.18-.45,1.62-.73c2.11-1,4.94-.57,6.38-.24a3.15,3.15,0,0,1,.67-.37c.2-.08.82-.33,5-.48l1.16-.47.54.23a3.4,3.4,0,0,1,1.72,1.23l.1,0,.2-.68,0-1.11,0-.14c0-.22.24-1.23.37-1.75a8.53,8.53,0,0,0-.14-.94l-.84-.45.95-3.08.09-1.57-.87-.82.42-2.21.65-.31s1.12-.54,1.85-.83c1.09-.44,8-.54,8.78-.37l.4.07c1.86.32,3.6.69,4.36,1.73.21.28.93,1,1.56,1.7a25.24,25.24,0,0,1,2.34,2.64,7,7,0,0,0,1.62.91c.8.38,1.79.85,3,1.55,2.13,1.23,5.07,1.79,8.19,2.38l2.16.42c2.93.6,8.14-.47,9.9-.94l.3-.08.31.05a5.13,5.13,0,0,0,2.84-.34l.52-.17c.43-.14,1.21-.35,2-.57l-.05-.08a20.32,20.32,0,0,0-4.05-3,23.89,23.89,0,0,1-4.59-3.63c-.39-.36-.69-.66-.89-.81a3.18,3.18,0,0,1-1.41-1.93l-.14-.38a15.64,15.64,0,0,1-.59-2.55c-.14-.8-.3-1.71-.56-2.71a7.81,7.81,0,0,1,.34-4.56,4.15,4.15,0,0,0,.16-.53c0-1.24,1.64-4,2.49-4.87a9.36,9.36,0,0,0,1.76-4.22,5.07,5.07,0,0,0-.29-1.91c-.18-.67-.43-1.59-.7-3-.65-3.53,2.7-6.59,4.13-7.9l.34-.31a14.84,14.84,0,0,1,3.57-2.95,15.36,15.36,0,0,0,1.73-1.73c1.43-1.56,2.14-2.34,3.26-1.89.19.07.83.26,1.51.46,2.12.63,2.23.67,2.48.85s2.41,1.24,3.29,1.67a21.56,21.56,0,0,0,3.75,1.34c0-.09,0-.18,0-.25s.05-.29.08-.4a15.16,15.16,0,0,0,.38-2.24,2.57,2.57,0,0,1,.18-1.19,1.69,1.69,0,0,0,.12-.59c0-1.05,1.12-3,2-4.46a19.35,19.35,0,0,0,1.31-2.6A11.29,11.29,0,0,1,180,89.63c.26-.28.59-.62.67-.73a4.8,4.8,0,0,1,2-1.41l.43-.23A7.16,7.16,0,0,1,185.54,86a3.45,3.45,0,0,1,1.39-.39l.79,0c.92,0,2.31-.09,2.89-.1a5.81,5.81,0,0,0,1.39-.78l.51-.34a8.76,8.76,0,0,0,1.71-2.94,15.78,15.78,0,0,1,.88-2.1,8.89,8.89,0,0,0,.59-1.4,10.32,10.32,0,0,1,.43-1.5,12.49,12.49,0,0,0,.57-2.08,13.8,13.8,0,0,1,.95-2.94c.11-.27.26-.64.3-.78a31.06,31.06,0,0,1,.77-3.14c.26-1,.51-1.91.61-2.36a4.83,4.83,0,0,0-.11-1.58,14,14,0,0,1-.21-1.77,9.74,9.74,0,0,0-.42-2c-.21-.75-.47-1.68.25-2.3.47-.55,2.66-3.47,2.91-3.88a19.15,19.15,0,0,1,2-2.4c.45-.51,1.07-1.21,1.19-1.37A13.32,13.32,0,0,1,208,47.39a22.68,22.68,0,0,0,2-2l.46-.49c.31-.37,1.75-2.91,2.91-5l.24-.45.48-.19,2-.79a4.05,4.05,0,0,1,1.82-.72,4.2,4.2,0,0,0,1.65-.86.79.79,0,0,0,.26-.35c-.06-.21-.18-.55-.27-.79a4.3,4.3,0,0,1-.44-1.91c0-.13.1-.47.21-.87a13.35,13.35,0,0,0,.32-1.33h0a1.8,1.8,0,0,1-.18-.27l-.06-.1-.12-.08a3.66,3.66,0,0,1-.9-.77c-.24-.31-.91-1.32-.91-1.32l-.15-.23-.05-.27a2.8,2.8,0,0,1,1.23-3,9.7,9.7,0,0,0,1.47-2l.14-.2a2.86,2.86,0,0,1,2.38-1.11,3.82,3.82,0,0,0,.67-.17c1.41-1.14,2.85-4.29,3.44-6.07l.2-.59.57-.25a19.91,19.91,0,0,0,2.34-1.2c.76-1,2.5-.92,3.38-.72l.16-.1a3.17,3.17,0,0,1,1.15-.49c.18-.07.59-.3.85-.44a6.82,6.82,0,0,1,1.21-.59c.23-.12.83-.55,1.2-.81s.83-.59,1.12-.76a24.24,24.24,0,0,0,2.47-1.69,5.73,5.73,0,0,1,1.76-1,7.18,7.18,0,0,1,2.17-1.16l.91-.37a4.32,4.32,0,0,1,4.24.66l.15.1-.09,0s4.54,2.59,5,3.53a1.09,1.09,0,0,0-.23-.31,19.88,19.88,0,0,0,2.66,1.48A16,16,0,0,1,261,13.66c.23.21,2.14,1.7,2.45,1.92s4.1,3.14,4.53,3.51.67.77,2.88,6.83c.29.8.52,1.43.62,1.68a1.14,1.14,0,0,0,.33.5,3.25,3.25,0,0,1,.65.86,16.62,16.62,0,0,0,1.35,1.23,8.59,8.59,0,0,1,.79.71,9.52,9.52,0,0,1,1.3,1.75c.12.23.61.87.94,1.3a13.91,13.91,0,0,1,1,1.4c.06.11.15.24.24.39a7.56,7.56,0,0,1,1,2.08,2.16,2.16,0,0,0,.51.69,4.33,4.33,0,0,1,.67.86A11.91,11.91,0,0,0,282,40.85a1,1,0,0,0,.4.16l.5,0,.39.33h.25a5.55,5.55,0,0,1,1.42.09,47.07,47.07,0,0,0,6.85,0l-.16.05a12.57,12.57,0,0,1,5.11.06,18,18,0,0,1,1.5-2.6l.89-1.33L300.74,39c.26.13.85.32,1.16.42a8,8,0,0,1,1,.37c.2,0,.68.1,1,.14a8.49,8.49,0,0,1,2.59.54,10.22,10.22,0,0,0,2.36-.13l.2,0,.2,0a3.67,3.67,0,0,0,2.28-.63l.6-.43.71.24.2.07a2.72,2.72,0,0,1,2.25-.27c1.41.19,1.43,2.08,1.44,3,0,1.51-1.07,3.28-2.28,5.11-.22.34-.47.72-.54.86a19.68,19.68,0,0,1-1.78,2.5c1.73,1.71,4.45,5.17,4.51,6.12a2.63,2.63,0,0,1-.7,1.7,6.9,6.9,0,0,0-.48.75c-.19.41-1,3-1.74,5.53A34.53,34.53,0,0,1,317.3,69l.16.21,2.19,7.6-.35.54s-1.66,2.57-2.33,3.9A4.24,4.24,0,0,1,314,83.64l-1.73.33-1.43-.57c-1.54-.62-6.17-.83-8-.78l-.57,1.69c-.42,1.23-.85,2.51-1.06,3.07a5.76,5.76,0,0,0-.47,1.92,2.58,2.58,0,0,1-.61,1.6,1.72,1.72,0,0,0-.14.33,2.63,2.63,0,0,1-.39,2l-.05.09c0,.1-.12.69-.24,1.44l-.11.7a3.4,3.4,0,0,0,0,1.25l.6.6-.49.93s-.31.59-.53,1.06c-.06.29-.17,1.21-.25,1.89a17.45,17.45,0,0,1-.83,4.47,9.42,9.42,0,0,0-.1,2.07,8.16,8.16,0,0,1-.08,1.81,34.4,34.4,0,0,0-.17,3.52c.12.42.6,1.72,1,2.78l.12.3,0,.32a7.13,7.13,0,0,0,.22,2.06,6.36,6.36,0,0,1,.17,1,8.76,8.76,0,0,0,.75,1.07c.18.24.32.43.38.53.54.92.58,2.88.52,4.37a3.63,3.63,0,0,1-3,3.64,3.76,3.76,0,0,0-.41.13c-1,.51-2.29.14-3.43-.19a8,8,0,0,0-.88-.22l-.24,0c-1.19.11-3.17.29-4.1-1.09a12.89,12.89,0,0,0-2.85-1.25l-.43-.16a8.43,8.43,0,0,1-1.15-.76c-.45-.32-1.28-.91-1.51-1a3,3,0,0,1-1.53-2,19.46,19.46,0,0,1-2.28-4.86l0-.09a.61.61,0,0,0-.11.21,8.87,8.87,0,0,1-1.17,4.26,33.48,33.48,0,0,1-4.14,5.65,42,42,0,0,0-3.44,5.12l-.25.43-.46.19c-2.17.87-2.43,1.94-2.67,2.88a5.57,5.57,0,0,1-1.28,2.33l-.17.21a6.53,6.53,0,0,1-.63.82c-.36.43-.9,1.08-1.72,2.21a39.49,39.49,0,0,1-2.95,3.54c-.33.36-.64.7-.92,1a10.94,10.94,0,0,1-1.42,1.35,5.39,5.39,0,0,0-1.2,1.24,18.14,18.14,0,0,1-2.37,2.66c-.24.23-.44.42-.54.54a5.54,5.54,0,0,1-1.64,1.13c-.54.29-1.21.66-2,1.19-1.33.89-2.86,1.74-3.61,2.14a22.38,22.38,0,0,0-.31,2.42A73.71,73.71,0,0,1,244,168.1a11.1,11.1,0,0,1-2.11,5.15,8.85,8.85,0,0,0-.91,1.61c-.58,1.6-2.42,2.81-4.26,3.92-.25.15-.46.27-.59.36a35,35,0,0,0-3,4.75,8.39,8.39,0,0,0,.88,2.31,11.35,11.35,0,0,1,.49,1.09,1.84,1.84,0,0,0,.22.32,3.26,3.26,0,0,1,.65,3.16,8.52,8.52,0,0,1-1.88,3.14,5.54,5.54,0,0,0-.37.46l-.18.27a2.12,2.12,0,0,0-.5,1.54,20,20,0,0,1-.36,3.61c-.08.47-.15.9-.19,1.26a32,32,0,0,1-.9,4.29c-.07.23-.26.76-.49,1.38-.31.84-1,2.58-1,3-.11.73-.69,1.77-1.94,3.83l-.42.7c-.18.31,0,1,.09,1.39a5.13,5.13,0,0,1,.13.64,6.33,6.33,0,0,0,.57,1.49,3.54,3.54,0,0,1,.62,1.67,4.39,4.39,0,0,0,.18.74,3,3,0,0,1-.17,2.82,7.33,7.33,0,0,0-.62,1.75,38.26,38.26,0,0,0,.21,3.89,2.32,2.32,0,0,1-.44,2,2,2,0,0,0-.32.57,2.14,2.14,0,0,1-1.86,1.5,2.1,2.1,0,0,1-1.68-.81,2.59,2.59,0,0,1-.75-.54l-.44.41a22.13,22.13,0,0,1-1.86,2.31c-.39.45-.92,1.06-1.07,1.27a4.15,4.15,0,0,1-1.74,1.58l-.3.18c-.15.1-.3.21-.46.32a5.41,5.41,0,0,1-3.15,1.28c-1.47.08-3.24-1-4.78-2.09l-.26-.18a9.09,9.09,0,0,0-1.82.12l-.71.13a12.84,12.84,0,0,1-1.94.27,9.8,9.8,0,0,0-2.22.62l-.1,0c-.4.17-.65.28-.8.57a22.39,22.39,0,0,0,0,3,10,10,0,0,1,0,1.72,4.27,4.27,0,0,0,.18,1.24,4.93,4.93,0,0,1,0,3.61,2.42,2.42,0,0,1-1.12,1.41c-.4.38-.57.58-.59.6l-.15.17-.2.12c-1.28.77-5,1.36-6.26,1.44l-.67,0a19.78,19.78,0,0,0-4.69.66,6.17,6.17,0,0,0-2.91,1.75l-.36.34c-.28.26-.55.69-.44,2A11.94,11.94,0,0,0,186,259a9.92,9.92,0,0,1,.8,1.16c.23.24.95.83,1.44,1.22a11,11,0,0,1,2.28,2.14,3.81,3.81,0,0,0,.74.62,8.64,8.64,0,0,1,1.5,1.29,3.07,3.07,0,0,1,.21,3.7c-.07.14-.13.27-.19.41-.62,1.54-2.29,1.54-3.17,1.54a5.41,5.41,0,0,0-.66,0c-1,.12-5.5.54-5.69.56h-.16l-.16,0a2.43,2.43,0,0,0-1,.15,8,8,0,0,1-1.47.29c-.11,0-.25.31-.26.35l-.1.25a44.83,44.83,0,0,0-2.09,4.85c-.22.79-.63,2.26-2.5,2a1.56,1.56,0,0,0-.42,0c-.8.07-2.33-.21-5.61-1-.05.48-.15,1-.25,1.63s-.23,1.38-.27,1.85-.14,1.21-.23,1.87-.2,1.36-.19,1.58a10.22,10.22,0,0,1-.74,3.16,3.76,3.76,0,0,1-.71,1.15c-.15.18-.32.4-.52.69a5.54,5.54,0,0,1-1.79,1.57A5.09,5.09,0,0,1,163,293a5,5,0,0,0-.6.29s-3.19,2.25-4.53,1.75a4.37,4.37,0,0,0-1.8.4,6.61,6.61,0,0,1-4.65-.12,2.34,2.34,0,0,1-.72-.4c0,1.12,0,2.11,0,2.34a11.2,11.2,0,0,1,0,1.89,5.94,5.94,0,0,1,.08,2.21c0,.27-.05.55-.06.87a3.94,3.94,0,0,1-.53,1.94,4.83,4.83,0,0,0-.4,1,2.52,2.52,0,0,1-1,1.53,7.23,7.23,0,0,1-1.72,2.2,6.32,6.32,0,0,0-1.09,1.26c-.84,1.62-1.37,2-3,2a5,5,0,0,1-3.5-1.34,3.4,3.4,0,0,0-.75-.59,4.91,4.91,0,0,0-.43.41c0,.31.11.73.19,1.31.23,1.65.58,4.15.85,5.14a5.27,5.27,0,0,1-.15,3.12c0,.11-.07.21-.09.3a7,7,0,0,1-.57,3.64,10.76,10.76,0,0,0-.41,3.26,5,5,0,0,1-1.62,4.1l-.14.1c-.39.29-.66.47-.75,1.84a27.41,27.41,0,0,0,.23,4.73l.25,1.79-2.25-.25c-.67-.21-1.26-.77-3.27-3.56l-.21-.3a6.4,6.4,0,0,1-.76-3.42,8,8,0,0,0-.62-1.65c-.06-.1-.15-.28-.26-.51l-.12-.26c-1.64,1-4.76,2.91-7.54,4.58-.48,1.14-1.78,4.21-2.08,4.95a3.38,3.38,0,0,1-.93,1.37.93.93,0,0,0-.22.26,32,32,0,0,1-2.13,2.75Zm-3.52-2.63h0Zm1.41-1.62a2.62,2.62,0,0,1,1.52.53c.45-.55.86-1.09,1-1.34a3.69,3.69,0,0,1,.72-.88.69.69,0,0,0,.23-.36c.37-.91,2.28-5.42,2.28-5.42l.18-.43.4-.24c3.12-1.87,8.24-5,8.74-5.33a1.57,1.57,0,0,1,1.34-.31c.94.2,1.42,1.08,2,2.3l.14.28a9.29,9.29,0,0,1,1,2.9v.14a5.49,5.49,0,0,0,.23,1.82l.08.1c0-.36,0-.72,0-1.07.18-2.48,1-3.3,1.92-3.94l.12-.08a2.65,2.65,0,0,0,.51-1.42,12.16,12.16,0,0,1,.67-4.91,4.39,4.39,0,0,0,.32-1.94,3.11,3.11,0,0,1,.18-1.6,2.5,2.5,0,0,0,.12-1.56c-.3-1.15-.65-3.65-.91-5.47-.11-.75-.23-1.61-.27-1.78l-.15-.65.4-.55a5.24,5.24,0,0,1,2.51-2c1.44-.31,2.81.93,3.34,1.47a2.3,2.3,0,0,0,1.46.47h.27c.09-.15.19-.35.23-.44a8.13,8.13,0,0,1,1.62-2,5.54,5.54,0,0,0,1.11-1.3,2.55,2.55,0,0,1,.83-1.17l0-.05a7.62,7.62,0,0,1,.61-1.47,1.22,1.22,0,0,0,.21-.72c0-.38,0-.73.08-1.06a3,3,0,0,0,0-1.32l-.11-.32,0-.34a9.35,9.35,0,0,0,.06-1.6c0-.41,0-1.65.06-4.38,0-1.72.1-4.06.07-4.56l-.07-.35.16-.4a2,2,0,0,1,1.5-1.24,2.18,2.18,0,0,1,2.07,1l.34.42,0,.55a9.76,9.76,0,0,0,.48,4.14l.14.07a3.8,3.8,0,0,0,2.62,0,6.23,6.23,0,0,1,3.24-.5,15.4,15.4,0,0,0,2.24-1.19,5.47,5.47,0,0,1,1.22-.65,4.18,4.18,0,0,0,.8-.41l.22-.32.32-.13a2.93,2.93,0,0,0,1-.77c.25-.36.47-.63.65-.86a2.59,2.59,0,0,0,.26-.34,11.48,11.48,0,0,0,.57-2.1,13.46,13.46,0,0,1,.22-2.09c.09-.59.18-1.21.21-1.68s.18-1.36.3-2.1.24-1.42.25-1.77v-.22l.37-1.07.24-.23a2.19,2.19,0,0,1,1.87-.85l.81.19a26.82,26.82,0,0,0,4.87,1h.47a47.73,47.73,0,0,1,2.19-5.1,3.24,3.24,0,0,1,2.7-2.29,5.37,5.37,0,0,0,1-.2,5.18,5.18,0,0,1,2-.25c.8-.07,4.61-.43,5.44-.53a8,8,0,0,1,1,0c.18,0,.46,0,.65,0l.15-.33a3,3,0,0,0,.25-.61,8.79,8.79,0,0,0-1.06-.85,5.15,5.15,0,0,1-1.5-1.44,19.89,19.89,0,0,0-1.65-1.42c-1.43-1.16-2-1.62-2.19-2.17l-.53-.73c-1.16-1.57-2.13-3-2.24-4.17a5,5,0,0,1,1.34-4.32l.31-.29a9,9,0,0,1,4.07-2.42,22.46,22.46,0,0,1,5.35-.77l.64,0a22.09,22.09,0,0,0,4.83-1l.49-.51a2.86,2.86,0,0,1,.51-.41l0-.06a3.12,3.12,0,0,0,.13-1.24,6.15,6.15,0,0,1-.49-3c0-.11,0-.69-.05-1.15-.13-2.45-.13-3.66.26-4.42a4,4,0,0,1,2.23-1.9,12.19,12.19,0,0,1,3.28-.88,10.61,10.61,0,0,0,1.52-.22l.76-.14a8.37,8.37,0,0,1,3.42.05,5.19,5.19,0,0,1,.73.46c2.08,1.42,2.81,1.61,3,1.6a2.74,2.74,0,0,0,1.6-.73c.22-.16.43-.32.65-.46l.32-.19a5.22,5.22,0,0,0,.72-.49,10.12,10.12,0,0,1,1.42-1.8,24.42,24.42,0,0,0,1.6-2l.11-.21.21-.22c.64-.58,1.45-1.37,1.64-1.61a1.53,1.53,0,0,1,1.51-.6A1.68,1.68,0,0,1,224.9,229a1.68,1.68,0,0,0,.15.41h0c.07-.12.14-.22.2-.31l0-.19a39.72,39.72,0,0,1-.21-4.35,9.34,9.34,0,0,1,1-3,.21.21,0,0,0,0-.22,6.12,6.12,0,0,1-.38-1.37c0-.16-.08-.4-.11-.52a8,8,0,0,1-1.11-2.87s0-.14-.06-.24a4.55,4.55,0,0,1,.22-3.54l.44-.73a23.72,23.72,0,0,0,1.57-2.83,25.51,25.51,0,0,1,1.15-3.48c.21-.56.38-1,.45-1.24a29.8,29.8,0,0,0,.79-3.76c0-.4.12-.88.21-1.39a18.21,18.21,0,0,0,.33-3.07,4.86,4.86,0,0,1,1-3.25l.14-.21a8.32,8.32,0,0,1,.58-.74,6,6,0,0,0,1.31-2.08c.09-.33.09-.33-.17-.67a3.92,3.92,0,0,1-.64-1.1c-.07-.19-.21-.47-.36-.79-.64-1.32-1.45-3-1.06-4.33.44-1.53,3.45-5.63,3.64-5.86a4.69,4.69,0,0,1,1.25-.9c.76-.45,2.76-1.66,3-2.45a10.85,10.85,0,0,1,1.21-2.2,8.42,8.42,0,0,0,1.67-4l0-.22a73.8,73.8,0,0,0,1.62-8.56c.31-3.47.65-3.94,1.16-4.32l.52-.38.12,0c.71-.38,2.14-1.17,3.35-2,.9-.61,1.67-1,2.22-1.33a7.34,7.34,0,0,0,.86-.51c.13-.15.38-.4.7-.71a16,16,0,0,0,2-2.21,8.13,8.13,0,0,1,1.74-1.84,8.33,8.33,0,0,0,1.08-1c.3-.35.62-.7,1-1.08a37.11,37.11,0,0,0,2.75-3.29c.87-1.2,1.45-1.9,1.84-2.36a5,5,0,0,0,.37-.46,4.66,4.66,0,0,1,.43-.58,2.87,2.87,0,0,0,.69-1.18,6.18,6.18,0,0,1,3.9-4.64A42.1,42.1,0,0,1,271,126c3-3.55,3.6-4.73,3.73-5a8.73,8.73,0,0,0,.93-2.81,3.7,3.7,0,0,1,2.61-3.61,3,3,0,0,1,3,2.29,19.41,19.41,0,0,0,1.78,4l.34.27.08.37a4.21,4.21,0,0,0,.27.65,20.21,20.21,0,0,1,1.81,1.21l.72.5.2.07c2.41.88,3.57,1.49,4.12,2.19a6.43,6.43,0,0,0,1.59,0l.38,0a5.52,5.52,0,0,1,1.78.33,7.09,7.09,0,0,0,1.47.33,5.45,5.45,0,0,1,.82-.28c.8-.22.95-.26,1-1a9.79,9.79,0,0,0-.16-2.85l-.15-.2a4.7,4.7,0,0,1-1.33-2.69,4.45,4.45,0,0,0-.11-.55,10.33,10.33,0,0,1-.29-2.54c-1.09-2.84-1.09-3.11-1.09-3.37a34.46,34.46,0,0,1,.24-4.29,10.76,10.76,0,0,0,0-1.13,7.6,7.6,0,0,1,.39-3.39,28.62,28.62,0,0,0,.55-3.54,10.52,10.52,0,0,1,.45-2.65c.1-.21.22-.46.33-.67a5.87,5.87,0,0,1-.06-2.49l.11-.7a6.88,6.88,0,0,1,.56-2.39l.1-.17,0,0a3.74,3.74,0,0,1,.69-2.54l0,0V89a8.51,8.51,0,0,1,.65-2.69c.2-.5.63-1.81,1-3a28.68,28.68,0,0,1,1-2.73c.36-.67.57-1.08,5.31-.83a23.13,23.13,0,0,1,6,.93l.65.26,1-.18a1.54,1.54,0,0,0,.89-.85c.54-1.07,1.59-2.75,2.13-3.62l-1.69-5.85a25.13,25.13,0,0,0-3.39-3.81l-1.12-.51.38-1.17c.54-1.84,1.83-6.2,2.21-7a8.68,8.68,0,0,1,.66-1,28.56,28.56,0,0,0-3.86-4.62l-.25-.15-.42-.53-.63-.89.7-.84a28.92,28.92,0,0,0,2.25-3,12.64,12.64,0,0,1,.71-1.15,12.51,12.51,0,0,0,1.8-3.43,2.52,2.52,0,0,1-1.34,0,6.31,6.31,0,0,1-3.45.77c-1.89.27-3.2.22-3.89-.17a14.1,14.1,0,0,0-1.64-.25,5.1,5.1,0,0,1-2-.44l-.58-.19c-.43-.14-.81-.26-1.13-.39a8.41,8.41,0,0,0-.68,1.35,1.63,1.63,0,0,1-.77,1.45c-1,.59-2.21,0-2.83-.36a17.64,17.64,0,0,0-3,0c-1.31.4-7.32.23-8.25,0a3,3,0,0,0-.74,0,2.93,2.93,0,0,1-1.92-.45,3.79,3.79,0,0,1-1.33-.58,11.62,11.62,0,0,1-2.64-2.46,2.67,2.67,0,0,0-.26-.29,4.46,4.46,0,0,1-1.18-1.9,5.28,5.28,0,0,0-.67-1.29c-.12-.2-.24-.38-.32-.53s-.5-.69-.77-1A15.68,15.68,0,0,1,273.4,34a6.93,6.93,0,0,0-.9-1.18c-.11-.12-.31-.28-.54-.48a8.58,8.58,0,0,1-2-2.09s0,0-.13-.15a3.9,3.9,0,0,1-1-1.45c-.1-.26-.34-.92-.65-1.76-.55-1.51-1.8-4.94-2.22-5.78-.78-.63-3.86-3-4.15-3.21S259.3,16,259,15.67A20.64,20.64,0,0,0,256.85,14l.09,0s-3.52-1.54-4-2.54a1.16,1.16,0,0,0,.21.29,46,46,0,0,0-3.88-2.55,3,3,0,0,1-.52-.31c-.65-.44-1-.61-1.56-.39l-1,.39a4.07,4.07,0,0,0-1.51.8l-.23.22-.3.1a4.14,4.14,0,0,0-1,.48,25.24,25.24,0,0,1-3,2.08c-.19.11-.51.34-.86.59a7.41,7.41,0,0,1-2,1.22l-.64.35a5.93,5.93,0,0,1-1.69.75l-.21.13a2.52,2.52,0,0,1-2.26.44,2.65,2.65,0,0,0-.72,0A10.44,10.44,0,0,1,229,17.57c-.57,1.54-2.18,5.4-4.42,7l-.31.17a5.63,5.63,0,0,1-2,.42l-.06.05a10.33,10.33,0,0,1-2.2,2.73c.16.24.36.54.48.7l.27.19a2.4,2.4,0,0,1,1,1,3.33,3.33,0,0,1,.62,2.13,12.84,12.84,0,0,1-.4,1.76l-.09.32c.07.21.18.54.26.77a5.21,5.21,0,0,1,.45,1.76,3.57,3.57,0,0,1-1.48,2.61,6.67,6.67,0,0,1-3,1.37,1.29,1.29,0,0,0-.57.26,2.16,2.16,0,0,1-.49.26l-1.56.62a44.27,44.27,0,0,1-3.11,5.2l-.42.45a13.72,13.72,0,0,1-2.74,2.57,13.31,13.31,0,0,0-2.09,1.59c-.14.19-.5.61-1.35,1.58-.57.64-1.51,1.71-1.68,2h0s-1.79,2.55-2.9,3.91l0,.07a12.09,12.09,0,0,1,.52,2.69,11.66,11.66,0,0,0,.17,1.42,6.93,6.93,0,0,1,.09,2.63c-.1.49-.37,1.48-.64,2.5s-.65,2.43-.69,2.73a5.55,5.55,0,0,1-.5,1.55,11.49,11.49,0,0,0-.77,2.31,14.91,14.91,0,0,1-.69,2.55,8.81,8.81,0,0,0-.32,1.07,9,9,0,0,1-.82,2.12,13.6,13.6,0,0,0-.72,1.71c-.41,1.36-1.76,3.8-2.92,4.53l-.43.28a5.79,5.79,0,0,1-2.93,1.26c-.57,0-1.93.06-2.82.1l-.82,0-.21.09-.19.09c-.63.23-1.32.52-1.58.66a4.55,4.55,0,0,1-1.09.68,9,9,0,0,0-1,.54,10.94,10.94,0,0,1-.93,1,13.35,13.35,0,0,0-1.92,2.31A21.86,21.86,0,0,1,178.57,97a16.29,16.29,0,0,0-1.62,3.12,4.25,4.25,0,0,1-.27,1.37l0,.09a15.59,15.59,0,0,1-.46,3.14s0,.1,0,.16a3.15,3.15,0,0,1-1.24,2.26,2.75,2.75,0,0,1-2.26.27,24.28,24.28,0,0,1-4.35-1.56s-2.7-1.34-3.5-1.79c-.27-.1-1.2-.37-1.83-.56l-1-.3c-.27.27-.61.65-.87.93a10.84,10.84,0,0,1-2.56,2.35,12.85,12.85,0,0,0-2.62,2.18,5.14,5.14,0,0,1-.64.64c-1,.9-3.62,3.3-3.25,5.29.25,1.34.47,2.16.65,2.81a7.73,7.73,0,0,1,.38,2.81,12,12,0,0,1-2.57,6,10,10,0,0,0-1.69,3,4.47,4.47,0,0,1-.29,1.31,5.12,5.12,0,0,0-.3,3c.29,1.11.46,2.07.61,2.92a14,14,0,0,0,.47,2.08l.14.4c.06.16.09.28.13.37l.27.21c.34.26.69.59,1.17,1a21.87,21.87,0,0,0,4,3.19,19.39,19.39,0,0,1,5.14,4,16.17,16.17,0,0,0,1.28,1.25l1.94,1.75-2.52.68s-3.2.86-4.21,1.17l-.45.15a7.94,7.94,0,0,1-3.93.5c-1.38.34-7.17,1.66-10.89.9l-2.12-.41c-3.21-.61-6.53-1.24-9.08-2.71-1.12-.65-2.05-1.09-2.81-1.45a6.25,6.25,0,0,1-2.77-1.91,29.93,29.93,0,0,0-2-2.24c-.76-.79-1.42-1.49-1.75-1.92a8.29,8.29,0,0,0-2.61-.68l-.5-.09a61.06,61.06,0,0,0-7.24.26l-.33.14.23.22-.24,3.39-.34,1.1.11.49c.48,2.1.32,2.63.26,2.85s-.2.88-.31,1.47l0,1.26-.07.22c-.13.42-.25.86-.35,1.22l.27.18-.54,1.12c-.57,1.15-1.15,1-3.94,0l-.41-.14-.26-.34a2.62,2.62,0,0,1-.24-.38l-.44.18h-.25c-1.66.06-3.69.19-4.26.3L99,157.42,97.69,157c-.93-.29-3.7-.86-5.24-.13l-2.09.9-3.06.63L85,157.66l-.27-.39a27.9,27.9,0,0,0-2.79-3.56,5.68,5.68,0,0,1-1.7-1.7,4.31,4.31,0,0,1-1.79-1.78,10.22,10.22,0,0,1-3.55-.34,14.83,14.83,0,0,0-2.4.23,6.84,6.84,0,0,1-4.13-.31,13.61,13.61,0,0,0-3.36-.55l-.06,0,0,.1-.26.23a2,2,0,0,1-1.59.5,2.12,2.12,0,0,1-1.52-1,3.26,3.26,0,0,1-.39-.8,7.69,7.69,0,0,0-1-.18h-.37a7,7,0,0,0-.94,0,3.67,3.67,0,0,1-.4.26c-.34.2-.89.52-1.51,2.31v1.17l-1.21.18c-1.5.22-3.29.52-3.72.62l-.57.26a47.16,47.16,0,0,0-5,2.38A10.15,10.15,0,0,1,44,156.47c-.28.11-.51.19-.64.26a1.31,1.31,0,0,0,.6-.79c-.44,1.55-7.19,2.93-7.19,2.93a1.33,1.33,0,0,0,.76-.13A34.37,34.37,0,0,0,33.42,162a6.66,6.66,0,0,0-.11,1.71l4.35,1.8.18.68A5.56,5.56,0,0,0,40.67,169a5.85,5.85,0,0,1,1.17.59,2,2,0,0,1,1.07.42.51.51,0,0,0,.14.08,2.38,2.38,0,0,1,2.3.3,2.06,2.06,0,0,1,.64,1.88,13.3,13.3,0,0,1-1.86,4c-.22.39-.49.86-.62,1.11v0a5.76,5.76,0,0,0,.44,2.65,8.88,8.88,0,0,1,.91,3.29l0,.18a6.34,6.34,0,0,1,.17,2.27,18.17,18.17,0,0,0,4.21,3.68l1,.59-.36,1.07a12.07,12.07,0,0,0-.79,4.1c.1.49.17,1,.24,1.48a6.2,6.2,0,0,0,.42,1.87,15.59,15.59,0,0,1,1.39,2.94c.24.59.61,1.49.74,1.7a27.43,27.43,0,0,1,1.87,4l.25.6c.31.71,1.32,3.47,1.55,4.27.07.24.2.76.36,1.37.23.9.72,2.78.86,3.13.07.14.39.62.62,1,.94,1.41,1.37,2.1,1.4,2.77a47.42,47.42,0,0,0,1.92,4.71,6.4,6.4,0,0,1,.47,1.13A15.36,15.36,0,0,0,61.9,228l.12.09.14.23a4.81,4.81,0,0,1,.47,1,21.08,21.08,0,0,0,3.83,5.6l.39.41V236a53.92,53.92,0,0,0,.35,7.22c.08.31.22.83.38,1.47.43,1.67,1.56,6.11,1.91,6.79a6.27,6.27,0,0,1,.67,2.29,7.27,7.27,0,0,0,.24,1.11,13.6,13.6,0,0,1,1.67,3.87A36.81,36.81,0,0,0,74.89,266c.37.62.61,1.09.81,1.47a5.26,5.26,0,0,0,2,2.29c2.39,1.86,3.71,3.47,4.17,5.05a37.42,37.42,0,0,0,1.85,3.55,22,22,0,0,1,1.77,3.48,5.75,5.75,0,0,0,.24.69,3.15,3.15,0,0,1,.29,1.55,2.19,2.19,0,0,1-1.46,2.06l-.13.09a1.86,1.86,0,0,1-1.31.52c-.35.58-1.18,1-2.59,1.45a2.91,2.91,0,0,1-2,1.62,2.39,2.39,0,0,1-1.8,1.67l.29.89-1.37.43-.22.08.08.11-.71.84a6.34,6.34,0,0,1-1.57,1.29,2.55,2.55,0,0,1-.36.76,2.61,2.61,0,0,1-.71.68,3,3,0,0,1-.18,1,3.7,3.7,0,0,1,.13,2.57,5.21,5.21,0,0,1,.33,2.22,2.54,2.54,0,0,1,.41,1.65l.05,0a2.13,2.13,0,0,1,1,1.56,2,2,0,0,1,0,.58A2,2,0,0,1,75.27,308a2.06,2.06,0,0,0,.35.17,1.79,1.79,0,0,1,1.18,1.42h0a2,2,0,0,1,1.62.64,1.48,1.48,0,0,1,.3.64h.17a2.18,2.18,0,0,1,2.35,2l.25,0a2.83,2.83,0,0,1,2.16,1.61c.27.59.36.77,1.19.92a2.48,2.48,0,0,1,2,1.58l.28,0,.18-.05a3.1,3.1,0,0,1,2,0,2,2,0,0,1,1.71-.25,1.83,1.83,0,0,1,.61.35l1.42-.34.13,1.66a2.08,2.08,0,0,0,.16.64,3.94,3.94,0,0,1,.27.3c.35.42.41.44.55.44h1.2l.2,1.18a.54.54,0,0,0,.1.19,2.58,2.58,0,0,1,2.2,1l.07.12.12.18h.26a3.15,3.15,0,0,1,1.58.24,2,2,0,0,1,.83.9,2.21,2.21,0,0,1,1.82.77,2.92,2.92,0,0,1,.76,1.92v0a2.45,2.45,0,0,1,1.25,1.61,2.61,2.61,0,0,1,.06.71,1.84,1.84,0,0,1,.9,1.08,2,2,0,0,1,1.08,1,2.63,2.63,0,0,1,.2,2.68.88.88,0,0,0-.1.23,3.47,3.47,0,0,0,.25.31l1.38.24-.42,1.51a8.23,8.23,0,0,0-.2.93,3.52,3.52,0,0,0,1.3.54l.29,0,.25.15a2.79,2.79,0,0,1,1.29,2h0a1.62,1.62,0,0,1,1.25.31A1.79,1.79,0,0,1,112.77,340.49Zm22.09-3.39ZM104,331.82v0Zm25.59-2.57-.12.09ZM100.3,326h0Zm-2.43-3.57ZM89.62,319v0Zm48.89-8.89Zm.3,0h0Zm-68.36-8.9h0Zm5.39-12.28h0Zm6.54-4.61-.06.08Zm119.21-40.25h0ZM55.93,220.43a1,1,0,0,0,0,.25A1.36,1.36,0,0,1,55.93,220.43Zm2.83.12h0Zm166.9-1h0Zm-180.8-33h0Zm0,0Zm-2.59-1.15h0Zm2.49-2.08a1.7,1.7,0,0,1,.1.26A1.24,1.24,0,0,0,44.77,183.31Zm-1.27-6.24v0Zm-3.43-5.27h0Zm59.24-15.45h0Zm-24.68-6.57.06,0Zm-9.57-.53h0Zm-6-1.3h0Zm101.11-.18.07.12A.76.76,0,0,0,160.14,147.77Zm-84.24-.52.09,0Zm-18.85-1.33h0Zm91.77-16.71v0Zm150-9.75Zm-.06-20.13h0Zm1.26-8.05h0ZM183,90.57Zm-.06-3.08h0Zm15-16.78v0Zm3-11.37a2.48,2.48,0,0,1-.39.38A1.38,1.38,0,0,0,200.95,59.33ZM314,57.6h0Zm-21.2-13.43-.1,0Zm6.45-1.22h0Zm7.39-2.4h0ZM303,39.91h0ZM220.59,28.69h0Zm14.18-13.15h0Zm.17,0Zm1.55-3.82h0Z"/></svg>