<svg id="Layer_1" data-name="Layer 1" xmlns="http://www.w3.org/2000/svg" viewBox="0 0 350 350"><defs><style>.cls-1{fill:#999;}.cls-2{fill:#f90;}</style></defs><title>M</title><path class="cls-1" d="M321.5,11.74S161.38,2,133.75,8.48c0,0-52,4.06-61.77,19.51,0,0-22.76,38.2-35.76,48.77,0,0-8.94,18.69-5.69,27.63,0,0,1.22,16.05-8.13,19.1S8.18,184,8.18,184s4.88,14.22,24.18,14.63l33.53.81s32.71,2.84,44.7-1l15.24-1s7.92,5.49,13.61-12.4L156.71,141l9.55-24.18s.2-8.13,10.16-7.52l25.4-2.44,12-.61s12.6-8.13,8.33,7.52l-3.25,13.61s-2.64,11,7.92,7.11c0,0,13,1.42,12.19-12.19,0,0,.41-7.52,17.07-6.91,0,0,16.25-3.25,19.51,9.55,0,0,5.49,11.79,1.22,20.73,0,0-21.34,20.73-28.65,21.34,0,0-14.22-4.78-11.48,12.8,0,0-1.42,7-14,5.59a17.15,17.15,0,0,0-8.53,7.42c-3.45,5.79-17.47,2.34-17.47,2.34L186,191.76l1.83,16.36s-9.75,7.52-.41,16.15L209.13,255l4.47,6.91s-11.58,11.68-60.65,9c0,0-12.8-.51-15.54-7.72,0,0-6.6-9.55-16.56-4.78l-48.46-.2L75,278.93,89.66,340.4l1.22,3.35,48.77-12.19,69.8-18.9s8.84-4.88,16.15,2.44L237.78,323s4.88,6.4,8.53-8.84,46-17.07,46-17.07,2.44,1.52,9.14-4.27c0,0-4-8.53-18.29-21.34a102.44,102.44,0,0,0-22.55-19.2s-10.06-32.31,6.71-45.11c0,0,26.21-20.12,34.75-45.72,0,0,9.75-14.32,7.31-26.52L299,124.91s-.61-5.79,7-16.46,13.11-26.21,12.19-33.53,15.24-39.32,22.86-49.68C341.1,25.25,347.61,9.2,321.5,11.74Z"/><path class="cls-2" d="M90,345.44l-1.7-4.71L73.62,279.11l-2.85-22.33,49.76.21c10.76-4.91,18,5.28,18,5.39l.16.3c2,5.2,11,6.68,14.28,6.81,40.52,2.18,55.18-5.55,58.7-7.95l-3.76-5.82-21.62-30.51c-3.05-2.86-4.53-6-4.39-9.19.19-4.18,3.07-7.29,4.38-8.49l-2-17.78,12.74,4c3.53.86,13.44,2.29,15.83-1.71a18.5,18.5,0,0,1,9.32-8l.29-.09.3,0c9.93,1.12,12.05-3.24,12.41-4.27-.89-6.06.09-10.34,2.91-12.73,3.58-3,8.8-1.81,10.15-1.42,5.75-.85,21.44-15,27.34-20.73,3.73-8.2-1.28-19.18-1.33-19.29l-.09-.25c-1.19-4.7-4.48-7.56-9.77-8.52a24.57,24.57,0,0,0-8.08,0l-.16,0H256c-14.07-.52-15.48,4.92-15.59,5.54.24,4.48-.9,8-3.4,10.34-3.55,3.38-8.65,3.33-10,3.24-3.49,1.22-6.14,1-7.88-.5-2.91-2.59-1.76-7.79-1.62-8.38l3.25-13.61c1.61-5.92.47-7.31.08-7.59-1.2-.88-4.45.43-6.26,1.6l-.32.2-12.37.63-25.45,2.44h-.11c-2.89-.18-5.12.43-6.61,1.8a6.84,6.84,0,0,0-2,4.34v.25l-.09.23L158,141.49l-17.27,44.09c-2.45,7.7-5.72,12.34-9.69,13.69a7.15,7.15,0,0,1-5.57-.37l-14.65,1c-12.25,3.82-43.75,1.14-45.09,1l-33.44-.81c-10.44-.22-16.8-4.41-20.29-7.88a22.14,22.14,0,0,1-5.19-7.71l-.1-.28,0-.3c.83-9.76,5.45-58.6,15.2-61.78,7.71-2.51,7.25-15.78,7.16-17.47-3.22-9.45,5.44-27.75,5.81-28.53l.14-.29.25-.2C48,65.37,70.53,27.65,70.76,27.27c9.91-15.69,59.42-19.92,62.77-20.19,27.67-6.39,180,2.75,187.94,3.23,10.05-1,16.74.68,19.88,4.88,3.43,4.6,1.17,10.35,1.07,10.59l-.17.31c-7.69,10.46-23.42,42.08-22.59,48.66,1,7.89-4.71,23.7-12.44,34.53-5.94,8.31-6.67,13.51-6.75,15l10.25,9.95.09.43c2.41,12.05-6.27,25.68-7.42,27.42-8.63,25.63-34.08,45.38-35.17,46.21-14.7,11.22-7.51,39-6.36,43.06a103.22,103.22,0,0,1,22.37,19.13c14.32,12.81,18.39,21.37,18.55,21.73l.45,1-.81.7c-5.94,5.13-9.06,5.06-10.33,4.63A148,148,0,0,0,271,301.33c-13.86,3-21.91,7.53-23.27,13.19-1.66,6.93-3.84,10.58-6.66,11.18a4.53,4.53,0,0,1-4.21-1.6l-12.24-8c-6.49-6.49-14.39-2.24-14.47-2.2l-.31.13L140,332.93ZM91,340l.75,2.08,47.53-11.88,69.63-18.85c1.35-.66,10.19-4.58,17.56,2.66l12.28,8,.15.2h0s.75.93,1.55.75c.57-.13,2.58-1.15,4.48-9.06,3.86-16.09,45.57-18.08,47.34-18.15l.44,0,.28.17c.27.06,2.22.3,6.7-3.35-1.45-2.52-6.24-9.92-17.44-19.93l-.14-.15a101.93,101.93,0,0,0-22.21-18.9l-.45-.28-.16-.51c-.42-1.36-10.15-33.41,7.2-46.66.26-.2,26-20.16,34.26-45l.06-.19.11-.16c.09-.14,9.16-13.65,7.18-25l-10.41-10.1-.05-.51c0-.26-.58-6.45,7.27-17.43,7.26-10.16,12.83-25.36,11.94-32.53-.6-4.82,5-17.41,8.36-24.48,4.94-10.35,10.81-20.78,14.65-26,.27-.8,1.46-4.73-.78-7.7-2.48-3.3-8.51-4.59-17.43-3.72h-.22c-1.6-.1-160.22-9.67-187.34-3.29l-.21,0c-.51,0-51.42,4.18-60.68,18.85-.91,1.53-22.73,38-35.81,48.9-1.07,2.33-8.31,18.55-5.51,26.26l.07.18v.19c.05.7,1.19,17.2-9.1,20.55-1.18.38-5.35,3.7-9.66,30.28C11,168.46,9.81,181.65,9.62,183.84c.77,1.92,5.95,13.06,22.77,13.41l33.53.81c.41,0,32.65,2.78,44.23-.95l.34-.06,15.73-1,.41.28a4.22,4.22,0,0,0,3.57.28c2.1-.74,5.17-3.42,7.88-11.94l17.3-44.18,9.47-24a9.65,9.65,0,0,1,2.95-6.08c2.06-1.89,4.95-2.74,8.58-2.54l25.29-2.43,11.69-.6c1.4-.84,6.21-3.44,9.14-1.3,2.18,1.59,2.5,5.06,1,10.58l-3.24,13.57c-.25,1.06-.65,4.36.75,5.61,1.18,1,3.54.49,5.31-.15l.31-.11.33,0s5,.49,8.12-2.46c1.88-1.8,2.72-4.57,2.5-8.24v-.16c0-.36.67-8.85,18.37-8.25,6.11-1.17,18.09-.44,21,10.5.62,1.39,5.47,12.77,1.16,21.81l-.11.23-.18.18c-2.22,2.16-21.92,21.1-29.52,21.73l-.29,0-.28-.09s-4.91-1.59-7.75.81c-2,1.72-2.68,5.33-1.88,10.43l0,.25-.05.25c-.07.34-1.8,8.13-15.23,6.75a16.26,16.26,0,0,0-7.5,6.7c-3.88,6.5-17.49,3.37-19,3l-8.68-2.72,1.68,15-.63.49s-3.73,3-3.9,6.93c-.1,2.39,1.11,4.77,3.59,7.06l.19.22,21.74,30.68,5.12,7.91-.8.81c-.49.5-12.6,12.11-61.74,9.46-.54,0-13.55-.63-16.72-8.45-.79-1.07-6.45-8.14-14.69-4.18l-.29.14h-.33L74,259.63l2.43,19ZM293,295.85Z"/></svg>