<svg id="Layer_1" data-name="Layer 1" xmlns="http://www.w3.org/2000/svg" viewBox="0 0 350 350"><defs><style>.cls-1{fill:#999;}.cls-2{fill:#f90;}</style></defs><title>M</title><path class="cls-1" d="M36.08,76.15l.31-.18,15.84-9.5,1.61-8.53L52.45,54.7l3.23-3.92,4.84,8.53s.92.69,5.53-3.69a71.92,71.92,0,0,1,7.61-6.46l1.84-.92L79,51.7l7.61-3.46,8.53-6.69-9.46-4.38L104.8,17.8l4.61,4.84a3.64,3.64,0,0,0-.92,4.15c.92,2.77,2.77,9.69,4.84,12.22a20.68,20.68,0,0,1,3,4.84l11.53-7.26,4.61,7L128.79,47l1.61,2.65h2.08s-.23,1.84,4.84.69l5.07-1.15a28.34,28.34,0,0,1,3-.46c.69,0,5.77-1.73,5.77-1.73l1.15,4.5,7.38,1.15,12.91,3.69s.46-2.54,5.53,1.84.92,1.84.92,1.84L186,57.7h1.38v1.61l-1.15.69,5.07,8.76v1.38l.92,1.15,6.23-3,2.31,3.92-9.69,5.07A26.92,26.92,0,0,0,194.74,81c1.15.69,3.23,5.07,3.23,5.07h9.22l2.08-2.54h9.46l2.31,9H225v1.84l2.08.92v1.84a32.2,32.2,0,0,1,7.61,3.23v3.69s2.31,4.61,2.31,5.3-3,3.92-3,3.92l-3,3.92,13.61,6.46L242.94,126l9.22,64.11s-2.08,6-1.61,7.84.92,2.31,1.61,5.07a89.72,89.72,0,0,0,3.23,8.76l1.61,5.53,1.61,5.3s9,8.76,12,9.92,11.76,6.23,11.76,6.23,5.53,9,6.23,10.15,7.61,7.61,7.61,7.61l11.3,7.84s1-1.09,1.22,1.14a1.24,1.24,0,0,1,1.92.85,15.89,15.89,0,0,1,0,4.84L310,273h-1.92l-1.61.69-.85,1.08.23,1.08,2.08,1.77s.23,1.69,1.08,1.61l.85-.08a10.24,10.24,0,0,1,3.69,4.07c1.46,2.84,1.92,8.38,1.92,8.38s2.08,4.84,2,5.15a12.57,12.57,0,0,1-.54,2.54c-.31.54-1.23.31-1.69,1a4.62,4.62,0,0,1-1.54,1.69,5.68,5.68,0,0,1-2.31.85c-.54,0-.23,0-2.15.85l-5.61,2.46-4.15-3.23L291.13,312s-.77,1.15-1.61,1.15-4.54,2.31-4.77,2.54-3.77,1.77-4,2.54a26.17,26.17,0,0,1-3.31,4.3c-.23.15-3.61,3.23-5.77,3.23L269,329l-5.23-1.23-1.15,4.38H260l1.15-5.3-12.38-2.08-3.15-3.92s-6.38-5.38-6.61-6.61a15.91,15.91,0,0,0-.85-2.69s-2,.62-2.23.62a17.11,17.11,0,0,1-2.08-1.08l.69-.38-8-4.77-34.75-36.67-5.46-5.61,4.69-3.84-1.15-1.77,1.15-.85L168.75,233l-7-7.76-20.83-20.91-14.3-10.46-.92-.92-1.31,1.69-11.69-6.92-6.84-4.23s-5.23-2-6-1.92a2,2,0,0,0-1.15.46l-.38-1.08-14.17-4.25L69.71,175l-3.18-.91-12.2-1.54-8.51-.62-7.07-.1L40.7,155l26,3.59,7.38.51,11.07-4.82s10.87-4.51,11.89-6,4.1-5.64,4.1-5.64l3.28-8.61s-.82-.72-.72-1,3.18-6.35,3.18-6.35-.61-6.46-.61-6.76.82-2.87.82-2.87l-.31-3.69.82-.82-.51-2.66,1.23-2.26-.31-5.84.21-9.53L99,95.78l-4.51,1.74-9,.1s-7.79.1-8.61,0-13.74-2.56-13.74-2.56L43.67,92.19s-4.82.1-5.33.61-1.45.31-2.26,0a25,25,0,0,1-2.66-1.44,17.19,17.19,0,0,0,2-.41,15.66,15.66,0,0,0,2.36-1.54l1.33-1.23L32.5,82.76Z"/><path class="cls-2" d="M263.7,333.62h-5.46l1.21-5.57L248,326.13l-3.4-4.23c-6.67-5.63-6.91-6.92-7-7.35a9.92,9.92,0,0,0-.32-1.21,4.84,4.84,0,0,1-1.36.29c-.34,0-.61,0-2.79-1.27L231,311.1l.71-.4-6-3.61-.13-.14-34.75-36.67-6.52-6.71,4.9-4L188,257.74l1-.7L167.7,233.91l-7-7.77L140,205.36,125.85,195l-1.11,1.43L112,188.89l-6.75-4.17a48.63,48.63,0,0,0-5.3-1.78.68.68,0,0,0-.28.1l-1.58,2.08-.83-3.06-13.36-4-14.56-1.69-3.07-.88L54.15,174l-8.43-.61-8.56-.12,2.29-19.81,27.47,3.78,6.94.48L84.62,153c4.87-2,10.56-4.72,11.3-5.57.91-1.36,3.41-4.72,4-5.5l2.89-7.59a1.88,1.88,0,0,1-.42-1.8c0-.12.13-.4,3.07-6.18-.39-4.07-.58-6.25-.58-6.49a11.92,11.92,0,0,1,.8-3l-.34-4.07.75-.75-.47-2.43,1.28-2.35-.29-5.49.16-7.46-12,4.65L85.51,99c-1.85,0-8,.1-8.8,0s-12.5-2.32-13.83-2.58l-19.3-2.84a28.41,28.41,0,0,0-4.43.37c-.84.68-2,.73-3.57.15a24.22,24.22,0,0,1-2.9-1.55l-3.36-2.05,3.9-.56a14.89,14.89,0,0,0,1.8-.35,15.31,15.31,0,0,0,1.89-1.28l.08-.08-6.31-5.14,4.33-8,15.93-9.56,1.42-7.48-1.55-3.62,5.09-6.18,5.34,9.4a20.8,20.8,0,0,0,3.85-3.09A72.84,72.84,0,0,1,72.86,48l.17-.1,2.76-1.38L79.28,50l6.56-3,6.58-5.16-9.18-4.26,21.59-21.85,6.72,7.05-1.28,1a2.25,2.25,0,0,0-.43,2.57c.17.52.38,1.19.61,1.95.92,3,2.47,8,4,9.83a23.77,23.77,0,0,1,2.48,3.7l11.37-7.16,6,9.21-3.72,3.37.59,1h2.88l-.13,1a8.37,8.37,0,0,0,3.05-.3l5.07-1.15a25.69,25.69,0,0,1,3.31-.5c.43-.06,3.11-.91,5.31-1.65l1.45-.49,1.3,5.08,6.63,1,12,3.42a2.37,2.37,0,0,1,.67-.37c1.52-.53,3.53.35,6.33,2.77l1.18,1,5.5-1.83h3v3.83l-.64.39,4.56,7.89v1.11l6.29-3,3.72,6.33-9.4,4.93a15,15,0,0,0,2.16,2.06c1.16.69,2.56,3.23,3.39,4.87h7.67l2.08-2.54h11.23l2.31,9h4.24v2.34l2.08.92v1.7a34.56,34.56,0,0,1,6.91,3.07l.7.41v4.17c2.31,4.64,2.31,5.34,2.31,5.64s0,1.24-3.33,4.84l-1.89,2.48,13.54,6.43-2.26,3.22,9.19,63.9-.11.33c-.94,2.7-1.79,6.18-1.58,7a15.06,15.06,0,0,0,.59,1.83,26,26,0,0,1,1,3.25,89,89,0,0,0,3.16,8.56l.05.16,1.61,5.53,1.5,4.94c3.44,3.33,9.32,8.61,11.25,9.36,3.07,1.18,11.6,6.11,12,6.32l.31.18.19.3c.23.37,5.55,9,6.24,10.16.43.67,4,4.19,7.29,7.23l10.53,7.31a1.8,1.8,0,0,1,1,0,2,2,0,0,1,1.19,1.12,2.42,2.42,0,0,1,.69.17,2.69,2.69,0,0,1,1.55,1.92,16.61,16.61,0,0,1,0,5.42l-.06.24-.94,2.81h-2.65l-1,.44-.19.25,2.1,1.79.07.54a2.61,2.61,0,0,0,.08.35l.74-.07.38.21a11.68,11.68,0,0,1,4.27,4.67c1.41,2.75,1.94,7.55,2.05,8.67,2.17,5.08,2.11,5.34,2,5.85,0,.05,0,.19-.05.36a7.8,7.8,0,0,1-.63,2.53,2.41,2.41,0,0,1-1.57,1.08l-.22.07-.08.12a5.52,5.52,0,0,1-1.86,1.93,6.91,6.91,0,0,1-3,1h0l-.16.08c-.27.13-.68.33-1.41.65l-5.61,2.46-.77.34-3.79-2.95-7.43,8a3.77,3.77,0,0,1-2.63,1.68,24.42,24.42,0,0,0-3.92,2.19,5.84,5.84,0,0,1-1.18.69,18.23,18.23,0,0,0-2.49,1.44,24.86,24.86,0,0,1-3.78,4.83l-.11.1c-1.54,1.29-3.74,2.95-5.71,3.3l-2.88,3.54-4.75-1.12Zm-.94-7.49,5.69,1.34,2.56-3.14h.67c.41,0,1.69-.26,4.63-2.71l.23-.18a30,30,0,0,0,2.88-3.69c.27-.9,1.34-1.58,3.79-2.84.32-.17.58-.29.71-.37h0c.81-.59,4.12-2.73,5.51-2.81a2.09,2.09,0,0,0,.53-.53l.13-.17,9.26-10,4.51,3.51,4.84-2.12c.68-.3,1.07-.49,1.31-.61a2.57,2.57,0,0,1,1.41-.36,4.94,4.94,0,0,0,1.58-.64,2.85,2.85,0,0,0,1-1.07l.13-.2a2.87,2.87,0,0,1,1.7-1.14c.09-.37.18-1,.22-1.3l0-.28c-.22-.7-1.1-2.84-1.86-4.62l-.09-.21,0-.23c-.12-1.46-.68-5.73-1.77-7.85a9.31,9.31,0,0,0-2.79-3.27l-.36,0c-1.19.13-2.13-.77-2.5-2.27l-2.06-1.76-.47-2.2,1.48-1.88,2.21-.95H309l.25-.75a14.14,14.14,0,0,0,0-4.07l-1.73.88-.21-1.7-.66-.45-11.46-8c-1.66-1.55-7.12-6.69-7.86-7.92-.61-1-5.05-8.24-6-9.83-1.57-.9-8.7-5-11.25-6-3.18-1.22-11.53-9.31-12.47-10.22l-.26-.25-1.72-5.65-1.6-5.47a87.58,87.58,0,0,1-3.27-8.9,23.1,23.1,0,0,0-.92-2.94,17.58,17.58,0,0,1-.69-2.14c-.49-2,.93-6.52,1.54-8.32l-9.26-64.33,1-1.39-13.67-6.49,4.15-5.42a30.12,30.12,0,0,0,2.55-3.07c-.29-.82-1.24-2.87-2.09-4.56l-.15-.3v-3.2a31,31,0,0,0-6.54-2.68l-1.07-.27v-2l-2.08-.92V93.94h-3.6l-2.31-9h-7.68l-2.08,2.54H197.07l-.38-.81A19.16,19.16,0,0,0,194,82.19a25.57,25.57,0,0,1-4-4l-1.14-1.35,9.93-5.2-.89-1.51-6.07,2.92-1.94-2.42v-1.5l-5.46-9.43-2.31.77a1.38,1.38,0,0,1-.3,1.06c-.9,1.24-2.39.33-3.47-.33l-2.6-1.59,1.4-.47A9.6,9.6,0,0,0,173.88,57l-.25,1-1.41-.38L159.38,54l-8.21-1.28-1-3.92c-4,1.32-4.57,1.32-4.77,1.32a26,26,0,0,0-2.72.43l-5,1.15c-2.93.67-4.78.54-5.83-.41a2.38,2.38,0,0,1-.23-.24h-2L127,46.71l3.66-3.32-3.18-4.86L115.65,46,115,44.39a19.5,19.5,0,0,0-2.78-4.47c-1.87-2.28-3.39-7.2-4.5-10.79-.23-.73-.43-1.38-.6-1.89a5.32,5.32,0,0,1,.37-4.54l-2.73-2.87-16.7,16.9,9.73,4.51L87.17,49.53l-8.5,3.87L75.23,50l-.83.42A73.94,73.94,0,0,0,67,56.65c-3.79,3.6-6.06,4.77-7.36,3.8l-.24-.18-4-7L54.1,54.93l1.21,2.83L53.5,67.35,37.14,77.16,34.3,82.41l7,5.72-2.63,2.42c-.4.31-1,.74-1.55,1.1a1.63,1.63,0,0,0,.31,0c.39-.34,1.32-.82,6.19-.93h.12l19.59,2.89c5.21,1,13.11,2.48,13.7,2.56s4.69,0,8.42,0l8.77-.1,15.47-6-.25,11.6.33,6.19-1.18,2.16.56,2.9-.89.89.28,3.32-.09.27c-.31,1-.66,2.13-.75,2.52,0,.65.39,4.29.6,6.55l0,.41-.19.37c-1.09,2.15-2.29,4.52-2.83,5.63l0,0,.74.65-3.7,9.71-.12.16s-3.06,4.09-4.05,5.57c-1.1,1.65-8.32,4.83-12.53,6.57l-11.37,4.95L66.63,160l-24.7-3.4-1.6,13.81,5.5.08,8.59.62,12.48,1.59,3.07.88,14.58,1.69,14.86,4.46.13.38.17,0c.3,0,1.1-.11,6.64,2l.24.12,6.84,4.23L124,192.73l1.53-2,2,2,14.38,10.53,20.83,20.91,7,7.82,23.36,25.45-1.35,1,1.12,1.71-4.48,3.67,4.38,4.51,34.63,36.54,9.44,5.63.85-.26,1.23-.38.5,1.18a17.48,17.48,0,0,1,.91,2.87c.47.82,3.52,3.68,6.15,5.9l.19.2,2.81,3.5,13.31,2.23Zm19.34-7.5Zm0,0h0Zm7.41-4.07h0Zm.13,0Zm-.24-2.81Zm.11,0h0ZM316,298.3Zm.09-1.88,0,.08ZM100,182.93h0Zm135.53-73.42h0Zm0-.49ZM39.06,94Z"/></svg>