<svg id="Layer_1" data-name="Layer 1" xmlns="http://www.w3.org/2000/svg" viewBox="0 0 350 350"><defs><style>.cls-1{fill:#999;}.cls-2{fill:#f90;}</style></defs><title>M</title><path class="cls-1" d="M298.2,31.67l1.43-.52,38-3,.7,1.22s7.7,32.18,4.72,44.42-4.9,15.57-4.9,15.57l-6.82,17.66c-6.82,17.67-6.65,8.75-6.65,8.75l-.17,3.67-2.8,6.3,5.25,4L323.13,135l.87,1.4,2.8,3-4.37,3.85s-4.55,3.85-5.6,4.9-7.52,3-7.52,3c-1.22,5.42-3,4.37-5.95,4.2s-3.73,8-3.73,8l-1.87,2.45-6.65,4.72a20.75,20.75,0,0,0-2.8,7.35s-4,8.57-7.7,7.91-5.77,1.88-8.57,5-4.55,1.4-4.55,1.4-16.09,1.22-9.79,10.84-7.35,10-7.35,10-4.72,10.67-5.07,13.29-6.82,1.22-11.19.17-12.59.35-7,5.07,1.57,5.42,1.57,5.42c-9.44.87-6.12,9.27-6.12,9.27-1.75,1.57-1.22,4.72-1.22,4.72s-.87,5.95-5.25,7.52-5.95,7.7-5.95,7.7l-5.77,1.4-2.8,12.94s-5.42-1-5.42,4.2-5.77,7.7-5.77,7.7c-9.44,3.67-6.47,5.42-6.47,5.42s1.75,5.6-4.37,5.95-11.19,1-14,4.72a50.66,50.66,0,0,0-5.07,8.92s-22.21-2.45-32.53-3.85-18.54-3-21.16-3.67-6.3-1.22-7.7-1.92-3,10.32-1.92-2.1l1-12.42a119.2,119.2,0,0,1-14.69-6.82c-7.17-4-6.82-3.85-11.37-5.25s-1.22-.7-9.27-2.27-7.17-3-9.79,2.8-4.55,9.44-3.5,16.27,2.8,8,4.9,10.67l2.1,2.62L23.26,321.83s-2.1-7.74,1-10,3.54-1.84,3.41-5a26.91,26.91,0,0,0-1.31-6.56s-.79-3.8,3.54-4.33c0,0,.13-6.43,2.62-7.35s2.89-.26,3.15-2.1a4.73,4.73,0,0,0-1.57-4.2c-1-1-1-.66-3.8-2.62s-1-.79-4.2-4.07-1.84-1.84-4.2-4.46-3.28-3.28-4.59-3.15a9.68,9.68,0,0,1-3.41.13,18.36,18.36,0,0,1-4.2-1.71s.66-.13-1,.39L7,267.39s-1-5.9-.66-6.43.92-1.57,3.54-.39a23,23,0,0,0,3.8,1.44l.52-.92,1-1.31.92-1,2,.13,1.44-2.23s-2.23,1.84,1.18-.52l3.41-2.36,5.9-4.33,3.54-2.23s2-2.62,3-2.49,2.62-2,2.62-2l2.89-2.62s1.57-2.89,3.54-3.54a21.1,21.1,0,0,0,4.59-2.62l5.9-5s.52-3.41,2.36-4.59a68.78,68.78,0,0,0,5.64-4.59l5.25-6.17,8.13-7.74a68,68,0,0,0,4.72-5.12c3.41-3.94,5.38-3.15,16.66-18.36l11.28-15.22,15.35-23.09,14.82-24.79,1.84-2.49,1,.13,6.56-15.87s-3.15-1.31,2-2.89l-2.36-2.89L151,94.5a1.86,1.86,0,0,1-.92-2.89A18.48,18.48,0,0,0,151.68,89l.79-5.9,1-2.1s-.26-8,.79-9.18-2.1-15.74-2.1-15.74l-.66-3.94L191,48.63s8.5-.69,6.92-6.46L211.3,42l73.5-8.79Z"/><path class="cls-2" d="M22.28,323.62l-.38-1.42c-.24-.89-2.25-8.77,1.6-11.5.54-.39,1-.69,1.4-1,1.49-1,1.49-1,1.41-2.81a25.58,25.58,0,0,0-1.24-6.16l0-.18a5.32,5.32,0,0,1,.82-3.93,4.94,4.94,0,0,1,2.75-1.85c.18-2.23.86-6.53,3.49-7.5a15.54,15.54,0,0,1,1.88-.56l.3-.07c0-.08,0-.19.06-.34a3.29,3.29,0,0,0-1.17-3,3.91,3.91,0,0,0-1.05-.79,30.19,30.19,0,0,1-2.58-1.68,9.38,9.38,0,0,1-2.45-2.07c-.3-.37-.75-.93-1.95-2.17l-1.93-2c-.69-.71-.69-.71-1.89-2l-.4-.45c-2.33-2.59-2.85-2.74-3.4-2.69-.33,0-.6.07-.85.11a8.12,8.12,0,0,1-2.93,0,16.59,16.59,0,0,1-4-1.54l-.57.18-3.24,1-.28-1.58c-1.16-6.51-.73-7.07-.39-7.53l.06-.08c.72-1,2-2.17,5.2-.75,1.13.51,2,.84,2.56,1l.08-.11,1-1.31,1.42-1.62,1.83.12,0,0c0-.77.75-1.4,1.25-1.82l7.06-5.81-1.37,2.13,5-3.63,3.33-2.09c1.08-1.4,2.6-3,4-2.85a5.69,5.69,0,0,0,1.45-1.4l.18-.2L41,239.21c.47-.8,2.07-3.27,4.21-4a19.21,19.21,0,0,0,4.19-2.41l5.46-4.61c.25-1.17,1-3.82,2.89-5a65.43,65.43,0,0,0,5.39-4.39l5.29-6.2,8.13-7.74s1.35-1.24,4.63-5a25.41,25.41,0,0,1,3.14-3c2.39-2,5.67-4.79,13.46-15.29l11.28-15.22,15.31-23,14.86-24.85,2.33-3.16.8.1,5.72-13.83a2.18,2.18,0,0,1-.63-1.62,3,3,0,0,1,2-2.39l-2.24-2.74,1.37-.69a3,3,0,0,1-.2-.49,3.22,3.22,0,0,1,.53-2.81,24.94,24.94,0,0,0,1.38-2.25l.79-5.92,1-2c-.1-3.65,0-8.05,1-9.59.26-1.45-1-8.69-2.26-14.72l-.92-5.51,40.95-3.64c1.13-.09,4.27-.7,5.41-2.32a2.64,2.64,0,0,0,.28-2.36L196,40.77l15.16-.18,73.42-8.78,13.24-1.53,1.45-.53.19,0,38.91-3,1.25,2.18,0,.2c.32,1.33,7.74,32.66,4.72,45.09-2.73,11.24-4.62,15.13-5,15.83l-6.79,17.58c-3.65,9.45-5.38,11.58-6.72,11.88l0,.36-2.45,5.52,5.46,4.19-4.1,5.59.29.47,3.71,3.94-5.47,4.82c-1.27,1.08-4.71,4-5.53,4.83-1,1-5,2.38-7.34,3.09-1.27,4.7-3.35,4.87-6.14,4.58-.34,0-.7-.07-1.08-.1h0c-.7,0-1.9,3.25-2.22,6.76l0,.41-2.24,2.94-6.57,4.67a19.52,19.52,0,0,0-2.46,6.53l0,.23-.1.21c-.75,1.6-4.71,9.52-9.23,8.71-2.64-.47-4.21,1.13-7,4.25l-.29.32a6,6,0,0,1-4.14,2.36,3.65,3.65,0,0,1-1.84-.44c-2.5.28-7.86,1.38-9.17,4-.58,1.19-.27,2.72.94,4.57,2,3,2.41,5.64,1.29,7.78-1.76,3.36-6.74,4.15-8.87,4.33-1.8,4.13-4.4,10.46-4.62,12.12a2.76,2.76,0,0,1-1.21,2c-2,1.37-6,.79-11.72-.59-3-.72-6.7,0-7.12.83,0,.07.06.67,1.37,1.79,1.73,1.46,4,3.65,3.38,5.81a3.07,3.07,0,0,1-2.48,2.1h-.11c-2.4.22-4,1-4.79,2.26-1.27,2.07-.15,5-.14,5.08l.36.92-.73.66c-.95.85-.88,2.77-.77,3.44l0,.21,0,.22c0,.28-1.06,6.81-6.17,8.65-3.6,1.3-5,6.66-5.06,6.72l-.21.82-5.73,1.39-2.9,13.43-1.36-.26a4.07,4.07,0,0,0-2.93.55,2.77,2.77,0,0,0-.8,2.26c0,6.12-6.36,8.88-6.63,9-4.18,1.63-5.49,2.71-5.89,3.17l.05,0,.17.49a6.66,6.66,0,0,1-.65,5.4,6.12,6.12,0,0,1-5,2.39c-6.47.37-10.66,1.17-12.95,4.17a49.42,49.42,0,0,0-4.9,8.62l-.42,1-1-.11c-.22,0-22.35-2.47-32.57-3.85-11-1.49-18.93-3.07-21.34-3.71-1-.25-2.08-.49-3.17-.72a39,39,0,0,1-3.88-.94c-.21.47-.44,1.1-.57,1.48-.42,1.18-.86,2.39-2.18,2.11s-1.4-1.13-.87-7.44l1-11.36a119.53,119.53,0,0,1-13.88-6.52l-.38-.22c-6.4-3.59-6.4-3.59-10.24-4.77l-.47-.14c-1.26-.39-1.92-.62-2.39-.78a28.83,28.83,0,0,0-4.81-1.08l-1.92-.38c-1.65-.32-2.92-.63-3.94-.89a8.75,8.75,0,0,0-2.56-.45,11.31,11.31,0,0,0-1.54,2.88l-.63,1.39C51.6,288.6,50.06,292,51,298c.85,5.52,2.07,7,3.76,9,.27.32.55.66.84,1l3.4,4.25ZM27.79,300a27.89,27.89,0,0,1,1.35,6.84c.13,3.12-.35,3.74-2.67,5.29-.37.25-.82.54-1.33.91-1.44,1-1.26,4.54-.82,7l29.86-9.25-.8-1c-.27-.34-.54-.65-.79-1-1.84-2.18-3.43-4.07-4.4-10.38-1.06-6.86.72-10.75,3.18-16.13l.63-1.38c2.08-4.58,2.69-5.16,7.35-4,1,.24,2.22.55,3.8.86l1.92.38a30.62,30.62,0,0,1,5.19,1.19c.45.15,1.09.38,2.3.75l.47.14c4.13,1.27,4.26,1.34,10.79,5l.38.21a118.61,118.61,0,0,0,14.49,6.73l1,.38L98.57,306l0,.58a1.7,1.7,0,0,1,1.2.13,24.4,24.4,0,0,0,4.11,1.07c1.13.24,2.29.48,3.32.75,2.51.67,10.68,2.24,21,3.64,8.92,1.21,27,3.23,31.48,3.73a49,49,0,0,1,4.81-8.26c3.25-4.27,9-4.93,15-5.28a3.51,3.51,0,0,0,2.82-1.16,3.66,3.66,0,0,0,.36-2.62,2.33,2.33,0,0,1-.58-1.74c.16-1.94,2.57-3.72,7.81-5.76,0,0,4.87-2.15,4.87-6.37a5.45,5.45,0,0,1,1.84-4.45,6.12,6.12,0,0,1,3.88-1.26l2.73-12.6L209,265c.64-1.89,2.57-6.39,6.58-7.84,3.13-1.13,4.11-5.29,4.29-6.22a7.45,7.45,0,0,1,1.07-5,8.81,8.81,0,0,1,.63-6.74c1.27-2.06,3.57-3.27,6.86-3.59l.19-.08c-.06-.24-.39-1.11-2.46-2.86-2.73-2.31-2.64-4.12-2.08-5.23,1.39-2.75,7-3.11,10.32-2.3,7.65,1.84,9.18,1.3,9.48,1,.35-2.71,4.67-12.54,5.16-13.65l.36-.82.9,0c1.54,0,6.19-.66,7.35-2.87.61-1.16.22-2.81-1.15-4.91-1.8-2.74-2.17-5.22-1.11-7.37,2.36-4.79,11-5.58,12-5.66l.65,0,.46.46c.25.19,1.12.19,2.49-1.34l.29-.32c2.71-3,5.26-5.93,9.59-5.16,1.66.3,4.55-3.78,6.08-6.93a23.08,23.08,0,0,1,2.95-7.64l.15-.26,6.72-4.77,1.49-2c.28-2.61,1.34-9.17,5.18-8.92.42,0,.83.07,1.2.11,2,.21,2.5.26,3.28-3.2l.18-.81.8-.24c2.88-.86,6.35-2.12,6.93-2.63,1.07-1.07,5.49-4.81,5.67-5l3.25-2.86-2-2.13L321.42,135l3.6-4.9-5-3.86,3.14-7.08.16-3.41,2.53.08a57,57,0,0,0,4.21-9.27l6.92-17.86s1.89-3.44,4.75-15.19c2.74-11.29-4-40.87-4.68-43.56l-.15-.27-36.92,2.89-1.57.54L285,34.62l-73.65,8.8-11.81.14a5.15,5.15,0,0,1-.94,3c-2.1,3-6.94,3.47-7.48,3.52L153.2,53.41l.41,2.43c3.29,15.2,2.22,16.4,1.76,16.92-.37.7-.54,4.83-.43,8.19v.36l-1.1,2.21-.85,6a18.91,18.91,0,0,1-1.71,2.88c-.17.25-.18.39-.17.41s.34.34.45.38l2.88,1.19-2.77,1.39,2.57,3.15-2,.62a11.9,11.9,0,0,0-1.29.47l.72.32-.51,1.28-7,16.87-1.3-.16-1.3,1.77-14.79,24.73L111.41,168l-11.32,15.28C92.1,194,88.68,196.89,86.18,199a22.87,22.87,0,0,0-2.82,2.68,68.84,68.84,0,0,1-4.85,5.24l-8,7.66-5.33,6.25a68.81,68.81,0,0,1-5.82,4.73c-.94.6-1.56,2.54-1.73,3.62l-.08.52L51.2,235a22.25,22.25,0,0,1-5.06,2.89c-1,.35-2.24,1.95-2.75,2.88l-.11.21-3,2.7c-.64.83-2.07,2.43-3.59,2.43h-.07a8.56,8.56,0,0,0-1.9,1.92l-.16.21-3.72,2.34L25,254.89l-3.44,2.38c-.48.33-.9.62-1.27.85l-1.43,2.21-2.1-.14-.46.52-.94,1.18-1,1.73-1-.23a23.91,23.91,0,0,1-4.08-1.53c-1.17-.53-1.55-.4-1.55-.4l-.08.09a32.81,32.81,0,0,0,.43,3.81l1.38-.28a1.46,1.46,0,0,1,1.41.39,14.7,14.7,0,0,0,3.3,1.31,5.28,5.28,0,0,0,2,0c.3,0,.61-.09,1-.13,2.1-.21,3.43,1,5.79,3.61l.4.45c1.16,1.29,1.16,1.29,1.82,2l1.95,2c1.27,1.33,1.79,2,2.1,2.35s.38.46,1.9,1.55a27.5,27.5,0,0,0,2.36,1.54,6.57,6.57,0,0,1,1.62,1.23,6.08,6.08,0,0,1,2,5.4c-.27,1.92-1,2.4-2.5,2.77a12.69,12.69,0,0,0-1.56.46c-.91.33-1.64,3.47-1.7,6l0,1.23-1.22.15a2.72,2.72,0,0,0-2,.93A2.51,2.51,0,0,0,27.79,300ZM7.49,261.79l0,0Zm.18-.41M36.46,246.1h0Zm.17-2.81ZM153.25,70.87h0Z"/></svg>