<svg id="Layer_1" data-name="Layer 1" xmlns="http://www.w3.org/2000/svg" viewBox="0 0 350 350"><defs><style>.cls-1{fill:#999;}.cls-2{fill:#f90;}</style></defs><title>M</title><path class="cls-1" d="M327.48,220.69c-8.22-2.3-9.37-10.9-8.8-18.55.41-5.52-3.55-10.84-3-12.44a.7.7,0,0,1,.28-.52,2.63,2.63,0,0,1,.49,0c.43-.26,1.33-.17,2.9.36a9.55,9.55,0,0,0,3.17.59,3,3,0,0,0,.39-.13,2.42,2.42,0,0,0,1.91-1.85,5.3,5.3,0,0,0,0-2.09l-6.89-8.22.07-.16,0,0,1.8-4.17h0v0l.4.06.09-.22-.84-.12a38.17,38.17,0,0,0-28.73-15.81s-11-19.94-10.13-21.27.56-7.13,0-7.57-5.9.33-5.9.33-2.12-5.68-4.12-10.47-4.34-4.9-5.23-3.12c-3.68,4.12-19.82,6.46-27.17,5.9s-12.47-9.24-14.26-9.8c-9.13.56-19.94-6-21.83-7.68s-5.68-1.23-9.58.11-5.9-.22-9.91-7.91c2-17.82,0-44.21,0-46s-11.47.11-14.81.89-7.24.78-7.8,2.9-2.34,8.13-5.12,9.35c-6.91,1.89-22.72,7.13-31.07,11.81-9.47,1.34-11.92,6-20,14.59S80.46,100.79,78.68,101s-1.89.89-1.22,2.56,4.79,10,4.12,12.14-4.12,2.12-5,4.79c1.56,4-1.45,6.9-4.45,11.92S59.86,144.78,51.4,149.34s-9.47,4.79-16.93,10.8c.22,7.68-22.05,46-24.28,49.67S5.62,220.06,6.4,221s20.32,1,20.32,1-.71,4.34-2.16,10.91c4,5.16.62,14.1.62,14.1l2.41-.48s11.61,0,13.59.07,2.42-1.47,5.44-2.28A49.47,49.47,0,0,1,56.47,243c3.09-.15,3.45-1.54,7.86-2.94s10.43-4,10.43-4,19.32.66,21.53-.37a34.06,34.06,0,0,1,5.88-2.35,1.34,1.34,0,0,1,.9.29c2.46-.66,4.62-2.2,7.18-2.7a1,1,0,0,1,1.23.7A132.17,132.17,0,0,1,118,256.62l.38-.31a3.06,3.06,0,0,1,.22-1.07c1-2.28,6.17-4,8.16-4.7s5.44.15,7.94,2,9-1.18,9.33-1.25a23.18,23.18,0,0,0,2.8-1c.32,5.46.34,11.24,1.7,16.45.74,2.84,1.44,3.93.34,6.72A9,9,0,0,1,145,278.1c-4,2.28-7.3.4-11.2-.68-2.86-.79-6.6-.39-7.71,2.85-.56,1.65,0,3.47.37,5.11.74,3.68,1.52,7.36,2.28,11a1.52,1.52,0,0,0,1.85,1c8.57-2.23,17.65-5.8,26.53-3.56,5.55,1.4,11,4,16.68,1.69,4.34-1.73,9.52-9.14,14.42-8.35,2.83.46,3.84,5.31,5.25,7.26a29.2,29.2,0,0,0,6.17,6.11c.94.71,2.26-.26,2.26-1.3a96.25,96.25,0,0,1,.53-10.53l5.84,4.29,3.27,1,1.56.89,1.78.89,1.63.37.47,1h6.72l.61.1h.44l2.21.35h2.61s1.11-1.34,1.71-1.34,4.53.3,4.75.3h3.12l1.63-1.11.74-1.86,2.6-.15,1.63-.3,2.6-1.26s3.56.22,4.08.37,6.31.37,6.31.37l2.67,1.11,2.9,2.6,3.17,1,0,0-.41-.12a36.27,36.27,0,0,0,1.65-5c.35-1.57.48-3,0-3.82a3.41,3.41,0,0,1-.41-2.69c.31-1.57,1.74-3.29,5.14-4.42a22.64,22.64,0,0,1,2.85-.64,11.55,11.55,0,0,0,1.86-.48c8.35-2.49,18.31-14.9,24.83-18.16a5.1,5.1,0,0,0,2.87-3.44c.88-4.13-2.35-9.84-1.54-13a3.21,3.21,0,0,1,.19-.63c.69-1.61,1.32-2.29,2.49-2.73,1.82-.51,4.83-.71,10.59-2.28a15.19,15.19,0,0,1,2.56-.47c5.82-1,8.81,2.14,10.69,2.5h0c.83-.08,1.43-.93,2-3.33,1.78-7.46,9.41-13.65,10.82-14.75A122.34,122.34,0,0,1,327.48,220.69Z"/><path class="cls-2" d="M200.38,302.27a2.58,2.58,0,0,1-1.57-.53,30.4,30.4,0,0,1-6.46-6.4,15.93,15.93,0,0,1-1.41-2.68c-.77-1.7-1.72-3.82-2.92-4-2.39-.39-5.22,2-8,4.31a23.25,23.25,0,0,1-5.7,4c-5,2-9.78.61-14.36-.74-1.06-.31-2.12-.62-3.19-.89-7-1.76-14.3.31-21.36,2.32-1.5.43-3,.85-4.47,1.24a3,3,0,0,1-2.33-.37,2.72,2.72,0,0,1-1.26-1.76l-.76-3.68c-.51-2.46-1-4.91-1.52-7.37-.05-.27-.12-.55-.18-.83a9,9,0,0,1-.14-5c1.37-4,5.85-4.75,9.43-3.76.74.21,1.46.44,2.17.67,2.92.95,5.23,1.7,8,.15a7.59,7.59,0,0,0,3.25-3.91c.73-1.87.51-2.64,0-4.5-.12-.41-.24-.85-.37-1.34a67,67,0,0,1-1.58-13.57l-.06-1.24c-.49.16-.88.27-1.07.32l-.21.08c-5.06,2.05-8.46,2.37-10.38,1-2.24-1.65-5.24-2.25-6.65-1.78-5.72,1.91-7,3.27-7.3,3.91a1.7,1.7,0,0,0-.11.58l0,.65-2.8,2.2-.37-2.37a130,130,0,0,0-6.37-24.39,18.23,18.23,0,0,0-3.35,1.28,22.18,22.18,0,0,1-3.46,1.34l-.63.17-.54-.37,0,0A34.71,34.71,0,0,0,96.89,237c-2.28,1.06-16.91.67-21.86.51-1.27.54-6.35,2.65-10.27,3.89a20.25,20.25,0,0,0-3.83,1.65,9.09,9.09,0,0,1-4.39,1.35,48.69,48.69,0,0,0-9.55,1.2,8.2,8.2,0,0,0-2.6,1.23,5.1,5.1,0,0,1-3.25,1.1c-1.82-.07-12.08-.07-13.4-.07l-4.77.95.89-2.38c0-.08,3-8.27-.42-12.73l-.4-.52.14-.65c.91-4.11,1.53-7.37,1.86-9.2-18.54-.15-19.23-.94-19.7-1.48-2-2.23,2.88-11.56,3.64-12.8,5.15-8.5,24.26-42.33,24.07-48.9l0-.7.55-.44a67.5,67.5,0,0,1,14.13-9.33l3-1.62c8.56-4.62,17.42-11.83,20.17-16.41.64-1.07,1.26-2,1.87-2.93,2.33-3.54,3.41-5.35,2.48-7.74l-.18-.48.16-.49a6.39,6.39,0,0,1,3.41-3.49c.77-.44,1.44-.81,1.59-1.28.21-.9-.93-4.14-3.39-9.6-.32-.71-.57-1.26-.69-1.58a3.54,3.54,0,0,1-.16-3.17,3.23,3.23,0,0,1,2.53-1.32c.15,0,16-2.47,24.21-11.15,1.43-1.51,2.7-2.92,3.83-4.17,5.4-6,8.68-9.6,16.78-10.81,8.8-4.86,24.58-10,31-11.77,1.43-.72,3.08-4,4.24-8.38.65-2.48,3.59-3,6.42-3.46.81-.14,1.64-.28,2.42-.46.13,0,13.32-2.95,15.83-1a1.83,1.83,0,0,1,.72,1.45c0,.23.05,1.18.12,2.37.39,7,1.56,28.18-.08,43.35,4.09,7.75,5.57,7.68,8,6.84,3.55-1.21,8.33-2.17,11,.17,1.61,1.42,12.16,7.86,20.8,7.33l.26,0,.25.08c.9.28,1.73,1.17,3.1,2.66,2.49,2.68,6.25,6.74,10.84,7.08,7.37.55,22.5-1.81,25.9-5.32a3,3,0,0,1,2.75-1.64c1.31,0,3.24,1,4.95,5,1.48,3.53,3,7.57,3.74,9.46,4.91-.64,5.48-.19,5.86.12,1.31,1,1.38,6.94.5,9.06.37,2,5,11.18,9.6,19.5a39.39,39.39,0,0,1,28.68,15.88l2.07.31-1.25,2.91-.4-.06v0h0l-1.09,2.55,6.55,7.83.08.32a6.7,6.7,0,0,1,.05,2.72,3.86,3.86,0,0,1-2.87,2.91l-.47.15-.33,0a11,11,0,0,1-3.66-.66,6.57,6.57,0,0,0-1.79-.42c.15.57.53,1.49.82,2.21,1,2.5,2.42,5.94,2.15,9.56-.74,9.83,1.8,15.42,7.77,17.08a120.18,120.18,0,0,0,16.06,3.19l3.41.42-2.72,2.1c-1.43,1.11-8.65,7-10.31,14-.49,2.07-1.19,4-2.94,4.36l-.23.12-.48-.08a8.84,8.84,0,0,1-2.28-.94,11.55,11.55,0,0,0-7.92-1.56,14.31,14.31,0,0,0-2.42.44,82,82,0,0,1-8.13,1.78c-1,.18-1.8.32-2.4.48s-1.06.6-1.63,1.93a1.84,1.84,0,0,0-.11.35c-.31,1.21.2,3.2.7,5.14.64,2.51,1.37,5.35.84,7.83a6.54,6.54,0,0,1-3.63,4.41c-2.56,1.28-5.83,4.19-9.3,7.28-5,4.42-10.6,9.44-15.76,11a12.67,12.67,0,0,1-2,.52,21.33,21.33,0,0,0-2.67.6c-2.36.79-3.89,2-4.16,3.34a2.07,2.07,0,0,0,.21,1.65c.66,1,.72,2.59.2,4.89a33.82,33.82,0,0,1-1.16,3.75l.44.13L268.35,299l-1.25-.33-3.47-1.05-3-2.65-2.22-.92c-5.72-.22-6.22-.37-6.39-.41s-1.94-.2-3.41-.3l-2.44,1.18-2,.35-1.7.1-.57,1.42-2.35,1.6h-3.56l-1.57-.1c-.92-.06-2.37-.16-3-.19a6.07,6.07,0,0,0-.83.82l-.42.51-3.49,0-2.1-.33-.55,0-.5-.08h-7.51l-.56-1.21-1.28-.33-1.78-.89-1.48-.85-3.35-1-4-3c-.21,2.64-.3,5.24-.29,7.9a3.05,3.05,0,0,1-1.71,2.66A2.81,2.81,0,0,1,200.38,302.27Zm-12.9-16.51a6.19,6.19,0,0,1,1,.08c2.7.44,4,3.32,5.05,5.64a14.38,14.38,0,0,0,1.12,2.19,27.52,27.52,0,0,0,5.77,5.73.3.3,0,0,0,.09-.11,96,96,0,0,1,.53-10.65l.26-2.46,7.63,5.6,3.33,1,1.56.89,1.56.78,2.14.49.39.83,6,0,.5.08.55,0,2.1.33H229a3.5,3.5,0,0,1,2.34-1.34c.39,0,1.64.08,3.37.2l1.41.09h2.65l.92-.62.92-2.29,3.41-.19,1.36-.25,2.76-1.34.37,0a38.64,38.64,0,0,1,4.39.42c.39.06,3.36.22,6,.32h.25l3.13,1.3,2.84,2.55,1.2.36a31.44,31.44,0,0,0,1.13-3.61c.49-2.17.18-2.72.17-2.73a4.85,4.85,0,0,1-.58-3.8c.26-1.31,1.42-3.86,6.07-5.42a24.25,24.25,0,0,1,3.07-.7,10.14,10.14,0,0,0,1.63-.42c4.61-1.38,10-6.17,14.74-10.39,3.61-3.21,7-6.25,9.92-7.7a3.71,3.71,0,0,0,2.13-2.52c.38-1.79-.23-4.18-.82-6.49s-1.19-4.64-.71-6.48a4.23,4.23,0,0,1,.26-.83,5.51,5.51,0,0,1,3.31-3.5l.1,0c.75-.21,1.62-.36,2.74-.56a79.37,79.37,0,0,0,7.87-1.73,16.67,16.67,0,0,1,2.8-.52,14.28,14.28,0,0,1,9.58,1.85c.42.21.81.42,1.13.55a7.31,7.31,0,0,0,.75-2.15c1.37-5.74,5.91-10.71,8.89-13.46a120.09,120.09,0,0,1-13.34-2.83c-7.36-2.06-10.67-8.79-9.83-20,.22-3-1-5.91-1.94-8.28-.79-1.94-1.32-3.25-1-4.37a2.06,2.06,0,0,1,.85-1.36l.3-.21.37,0h.39a6.12,6.12,0,0,1,3.59.45,8.83,8.83,0,0,0,2.51.52l.06,0,.23-.07a1,1,0,0,0,.86-.83,3.57,3.57,0,0,0,0-1.1l-7.21-8.61,1.84-4.36c-10.6-14.67-27.23-14.95-27.39-14.95h-.83l-.4-.73c-11.44-20.69-10.59-22-10.07-22.74s.39-4,.13-5.51a44.1,44.1,0,0,0-4.65.46l-1.13.17-.4-1.07c0-.06-2.13-5.71-4.1-10.42-1.12-2.67-2.15-3.3-2.43-3.31h0s-.14.09-.23.28l-.21.31c-4.18,4.69-20.88,6.94-28.34,6.37-5.69-.43-10.08-5.16-12.7-8a22.74,22.74,0,0,0-1.78-1.8c-9.53.36-20.35-6.22-22.44-8.06-1.23-1.09-4.29-.94-8.18.39-5.19,1.78-7.78-1.21-11.63-8.59l-.2-.38,0-.43c1.68-15,.5-36.3.11-43.31,0-.82-.08-1.39-.1-1.8-2.11-.31-9.28.66-13.1,1.55-.86.2-1.74.35-2.59.49-1.67.28-4,.67-4.15,1.38-1,4-2.92,9-5.92,10.29l-.2.07c-6.08,1.67-22.27,6.92-30.75,11.68l-.23.13-.26,0c-7.28,1-10,4-15.34,9.95-1.14,1.26-2.43,2.68-3.88,4.21-9,9.53-25.75,12-25.91,12l-.29,0c0,.14.11.33.21.58s.35.81.65,1.47c2.67,5.94,4.1,9.75,3.51,11.62A5.33,5.33,0,0,1,80,119a4.85,4.85,0,0,0-1.94,1.53c1.1,3.59-.79,6.46-3,9.75-.59.89-1.19,1.81-1.8,2.83-3,5-12.16,12.54-21.26,17.45l-3,1.62a63.59,63.59,0,0,0-13.18,8.64c-1,10.1-24.21,49.3-24.46,49.7a33.08,33.08,0,0,0-3.71,9.31c2.56.38,11.22.64,19,.68h1.66l-.27,1.64s-.69,4.18-2,10.37c2.65,4,1.88,9.48,1.13,12.56l.38,0c.48,0,11.66,0,13.65.07.55,0,.85-.15,1.6-.64a11,11,0,0,1,3.42-1.59,51.23,51.23,0,0,1,10.15-1.3,6.37,6.37,0,0,0,3.19-1,23,23,0,0,1,4.31-1.85c4.29-1.36,10.25-3.9,10.3-3.92l.29-.12h.32c9.18.31,19.51.31,20.89-.24A30.11,30.11,0,0,1,102,232a2.45,2.45,0,0,1,1.25.17,24.32,24.32,0,0,0,2.5-1,19.14,19.14,0,0,1,4.26-1.54,2.44,2.44,0,0,1,2.84,1.6,134.83,134.83,0,0,1,6,21.59c1.85-1.57,4.87-2.72,7.53-3.61,2.49-.83,6.37.09,9.22,2.19.37.27,2,1,7.64-1.3.28-.11.46-.17.51-.19a21.81,21.81,0,0,0,2.58-.88l1.86-.8.12,2c.06,1.05.11,2.11.17,3.18a65,65,0,0,0,1.49,13c.12.46.24.88.35,1.27.6,2.07,1,3.56-.06,6.32a10.38,10.38,0,0,1-4.49,5.34c-3.81,2.17-7.07,1.11-10.23.09-.67-.22-1.35-.44-2-.63-1.8-.5-5.1-.66-6,1.94a6.74,6.74,0,0,0,.23,3.47c.07.3.14.6.2.9q.74,3.68,1.51,7.35l.76,3.68c0-.05,0,0,.09,0h0c1.45-.38,2.92-.8,4.4-1.22,7.42-2.11,15.1-4.29,22.83-2.35,1.11.28,2.22.61,3.3.92,4.31,1.27,8.39,2.47,12.52.82a21.65,21.65,0,0,0,4.93-3.5C181.18,288.31,184.21,285.76,187.48,285.76Zm-180.41-66h0Zm274.7-82.86h0Zm-2.36-7.61Z"/></svg>