<svg id="Layer_2" data-name="Layer 2" xmlns="http://www.w3.org/2000/svg" viewBox="0 0 350 350"><defs><style>.cls-1{fill:#999;}.cls-2{fill:#f90;}</style></defs><title>M_</title><path class="cls-1" d="M267.2,96.61c-1.73-2.1-3.81-4.28-3.84-7-.06-5.49,7.94-8,8.79-13.41C264.69,76.37,260,68,259,60.6c-.62-4.17-1.9-27-8.23-27.87-2.37-.31-4.43-1.58-6.74-2-.87-.16-1.39-.41-1.34-1.36.14-2.56-6.56-10.35-10-9.63-2.66.55-5.2,2.19-7.88,1.77-4.75-.75-6.07-6.88-6.29-11.69q-9.19,2.87-18.21,6.25c-1.09.41-2.18.82-3.25,1.26a65.8,65.8,0,0,0-13.33,7.39c-2.83,2-7,4.22-9.35,1.62-2.88-3.22,1.93-8.24.86-12.4-1.43,1.1-3,1.62-4.54,1-5.25,3.45-10.64,8.23-16,10.67-6.86,3.1-14.74,1.68-21.26,5.91-7,4.56-6.14,15.89-8.32,23-2.73,9-7.12,17.89-15.67,22.6-6.19,3.41-13.79,4.14-19.29,8.58-5.78,4.66-8,12.37-9.54,19.63a255.41,255.41,0,0,0-5,71.85c1.43,20,3.19,50.57,14.91,67.71,1,1.45,2.27,2.8,2.57,4.53.55,3.1-1.76,7.41,1.06,8.83,3.69,1.85,8.27-6.27,10.8-3l3.29,33.85L116.24,301c4.36,6.37,5.84,18.27-6,16-1-.19-2-.44-3-.56-2.51-.29-4.57,1.21-4.39,3.43a5.14,5.14,0,0,0,2.48,4.31c2.21,1.26,4.69,2.12,6.11,4.49a1.49,1.49,0,0,0,1.88.52c2.69-.78,4.21.33,4.4,3.11q.08,1.13.22,2.25c.28,2.28,1.23,2.91,3.46,2.19a5,5,0,0,1,3.48.15c4.56,1.73,19.48,8.67,16.88-4.82l5-.29.9-5.9a78.61,78.61,0,0,1,6.84,8.8c-1.1-5.09,3.66-9.52,8.33-11.83s10.13-4.07,12.75-8.57c1.38-2.37,1.84-5.35,3.89-7.17,2.74-2.43,7-1.7,10.47-2.83,6.66-2.15,9-10.19,10.38-17.05l3.45-17.36c1.82-9.16,4.23-19.24,11.94-24.51,4.55-3.11,10.23-4,15.32-6.09s10.07-6.51,9.79-12c-.18-3.49-2.43-6.48-3.71-9.74-5-12.74,10.44-41.67-8.33-47.58a302.33,302.33,0,0,1,19.71-47.65,100.14,100.14,0,0,1,26.35.33,29.63,29.63,0,0,0,.29-4.63A34.94,34.94,0,0,0,267.2,96.61Z"/><path class="cls-2" d="M136.75,341.6c-3.74,0-8.16-1.76-11.2-3l-1.18-.46a3.56,3.56,0,0,0-2.54-.13,3.58,3.58,0,0,1-5.3-3.36c-.1-.77-.17-1.55-.22-2.32a2.48,2.48,0,0,0-.68-1.84,2.42,2.42,0,0,0-1.91,0,2.82,2.82,0,0,1-3.49-1.16c-.91-1.53-2.48-2.34-4.13-3.2-.49-.26-1-.51-1.46-.79a6.49,6.49,0,0,1-3.18-5.43,4.36,4.36,0,0,1,1.33-3.54,5.67,5.67,0,0,1,4.64-1.41c.78.09,1.53.25,2.26.4l.86.17c3.32.64,5.56.12,6.66-1.56,1.89-2.89.38-8.6-2.11-12.24l-8.34-12.18-3.27-33.66c-.39-.13-1.1.22-2.95,1.57-2,1.48-4.57,3.32-7.13,2s-2.3-4.28-2-6.62a11.31,11.31,0,0,0,.16-3.22,7.8,7.8,0,0,0-1.63-3c-.24-.33-.49-.66-.72-1-11.5-16.82-13.6-46.51-15-66.15l-.16-2.25a256.33,256.33,0,0,1,5-72.25c1.67-7.75,4-15.6,10-20.44,3.4-2.75,7.52-4.14,11.51-5.49a49.44,49.44,0,0,0,8-3.23c6.87-3.78,11.63-10.7,15-21.77A51.47,51.47,0,0,0,125,47.25c1-6.27,2-13.37,7.55-16.94,3.89-2.52,8.16-3.16,12.3-3.78A34,34,0,0,0,154,24.29a61.35,61.35,0,0,0,10.33-6.64c1.81-1.33,3.68-2.72,5.52-3.92l.64-.42.7.3c.34.14,1.36.58,3.11-.78L176,11.52l.53,2.09c.57,2.24-.2,4.54-.89,6.58-.84,2.51-1.31,4.1-.3,5.23,1.74,1.94,5.8-.63,7.47-1.83A67.22,67.22,0,0,1,196.43,16c1.09-.45,2.19-.87,3.3-1.28,6-2.25,12.16-4.36,18.28-6.28l1.75-.55.08,1.84c.16,3.59,1,9.71,5.1,10.35a9.38,9.38,0,0,0,4.43-.86,22.14,22.14,0,0,1,2.95-.9c2.14-.44,4.54,1.15,6.18,2.57,2.34,2,5.56,5.91,5.56,8.38l.17,0a19.5,19.5,0,0,1,3.38,1,15.33,15.33,0,0,0,3.29,1c5.72.75,7.77,13,9.13,26.21.13,1.26.23,2.26.32,2.86,1.07,7.26,5.47,14.51,11.76,14.4l1.7,0-.26,1.67c-.48,3.07-2.71,5.18-4.87,7.22s-3.92,3.71-3.9,6c0,1.93,1.51,3.71,3,5.44l.56.67a36.49,36.49,0,0,1,8.31,22.2,31.14,31.14,0,0,1-.31,4.85l-.2,1.41-1.41-.21a98.67,98.67,0,0,0-25.23-.42A301.75,301.75,0,0,0,230.6,169c11.5,4.61,9.67,18,8.05,29.89-1,7-1.87,13.69-.17,18.05.39,1,.88,2,1.39,3a18.18,18.18,0,0,1,2.41,7.19c.33,6.46-5.54,11.25-10.66,13.4-1.89.79-3.85,1.41-5.75,2-3.38,1.07-6.57,2.07-9.32,3.95-7.11,4.85-9.51,14.33-11.35,23.61l-3.45,17.36c-1.43,7.2-4,15.76-11.34,18.13a22.43,22.43,0,0,1-4.32.8c-2.19.26-4.25.5-5.65,1.74a10.17,10.17,0,0,0-2.27,3.92,22.45,22.45,0,0,1-1.34,2.9c-2.36,4.06-6.62,6-10.74,7.9-.88.4-1.75.8-2.6,1.22-4.08,2-8.51,5.92-7.57,10.26l1.57,7.26-4.13-6.17a77.6,77.6,0,0,0-4.73-6.33l-.61,4-4.63.27c.33,3.15-.34,5.44-2,6.83A7.06,7.06,0,0,1,136.75,341.6ZM122.9,335a7,7,0,0,1,2.49.49l1.22.48c3.11,1.23,10.39,4.12,13,2,1.35-1.12,1.18-3.72.8-5.7l-.31-1.59,5.51-.32,1.18-7.73,2,2.23c1.62,1.81,3.17,3.7,4.63,5.65,1.26-4,5.17-7.17,8.87-9,.87-.43,1.77-.84,2.68-1.26,3.89-1.78,7.57-3.47,9.47-6.75a20,20,0,0,0,1.16-2.54,12.4,12.4,0,0,1,3-5c2.07-1.83,4.68-2.14,7.2-2.43a20.17,20.17,0,0,0,3.78-.68c5.92-1.91,8.15-9.54,9.43-16l3.45-17.36c2-9.86,4.54-19.95,12.53-25.4,3.09-2.11,6.64-3.23,10.06-4.31,1.84-.58,3.74-1.18,5.51-1.92,4.28-1.79,9.18-5.65,8.92-10.64a15.84,15.84,0,0,0-2.11-6.07c-.52-1-1.06-2.11-1.5-3.23-2-5-1-12.05,0-19.47,1.68-12.29,3.27-23.9-7.44-27.28L227,170.8l.43-1.35a304.4,304.4,0,0,1,19.8-47.88l.34-.67.75-.09a101.45,101.45,0,0,1,25.28.14,28.83,28.83,0,0,0,.12-3,33.61,33.61,0,0,0-7.67-20.44l-.54-.65c-1.68-2-3.59-4.29-3.62-7.23,0-3.49,2.53-5.91,4.79-8a16.42,16.42,0,0,0,3.52-4.09c-6.89-1.11-11.55-8.9-12.7-16.69-.09-.63-.2-1.66-.34-3-1.59-15.35-3.83-23.32-6.68-23.69A17.59,17.59,0,0,1,246.62,33a17.11,17.11,0,0,0-2.89-.89c-1.75-.31-2.59-1.27-2.5-2.83,0-.79-1.85-3.9-4.64-6.28-1.84-1.58-3.15-2-3.7-1.88a19.57,19.57,0,0,0-2.57.79,11.62,11.62,0,0,1-5.82,1c-4.11-.65-6.69-4.6-7.35-11.2-5.51,1.75-11,3.66-16.43,5.69-1.08.4-2.15.81-3.21,1.25a64.42,64.42,0,0,0-13,7.23c-6.62,4.75-9.88,2.93-11.24,1.42-2.16-2.41-1.16-5.39-.28-8a20.61,20.61,0,0,0,.84-3,5.14,5.14,0,0,1-3,.16c-1.59,1.07-3.23,2.28-4.82,3.46-3.52,2.6-7.16,5.28-10.85,6.94a36.74,36.74,0,0,1-9.9,2.46c-4,.6-7.8,1.17-11.17,3.36-4.44,2.88-5.38,9-6.29,15a53.29,53.29,0,0,1-1.44,7.27c-3.6,11.82-8.79,19.26-16.35,23.42a51.52,51.52,0,0,1-8.45,3.43c-3.92,1.33-7.62,2.58-10.63,5-5.31,4.29-7.49,11.58-9,18.83a253.5,253.5,0,0,0-5,71.45l.16,2.26c1.37,19.34,3.44,48.56,14.5,64.75.21.31.43.61.66.91a10.14,10.14,0,0,1,2.14,4.17,13.28,13.28,0,0,1-.14,4.11c-.33,2.4-.31,3.33.44,3.7,1,.5,2.63-.66,4.19-1.79,2-1.43,4.94-3.58,7.09-.83l.25.32,3.29,33.9,7.93,11.58c3,4.43,4.81,11.33,2.14,15.4-1.23,1.88-3.89,3.88-9.57,2.79l-.9-.18c-.69-.15-1.35-.28-2-.36a2.92,2.92,0,0,0-2.35.63,1.53,1.53,0,0,0-.47,1.28,3.74,3.74,0,0,0,1.77,3.19c.45.26.91.49,1.36.73,1.83,1,3.9,2,5.23,4.21a1.25,1.25,0,0,0,.3-.06,4.91,4.91,0,0,1,4.32.4,5,5,0,0,1,1.89,4q.08,1.09.21,2.18c.13,1,.35,1.2.36,1.2s.27.13,1.26-.19A6.21,6.21,0,0,1,122.9,335Z"/></svg>