<svg id="Layer_1" data-name="Layer 1" xmlns="http://www.w3.org/2000/svg" viewBox="0 0 350 350"><defs><style>.cls-1{fill:#999;}.cls-2{fill:#f90;}</style></defs><title>M</title><path class="cls-1" d="M6.26,71s-.15,18.1.9,20.21c0,0,18.1,34.69,16.89,45.1s-8.6,37.56-10.86,56.41-2.71,22.93-2.71,22.93,2.26,15.69,3.92,18.4c0,0,5.88,9,5.88,12.07L24.11,259S47.58,287,50.3,292.58l10.86,24.74,1.36,16.44s6-9.65,12.07-3.92c0,0,8.35,4.52,15.08,2.61a24.14,24.14,0,0,1,12.07-.4s11.86-5.23,16-3.32c0,0,5.83-.4,9.35,2.71s9.25,7.34,16.09,2.31S159.64,328,159.64,328s2.41-.4,2.71-5.53-.9-10.16,3.62-13.27,15.89-5.83,19.1-10.66,6.13-13.37,15.08-9.55c0,0,6.44-7,11.66-5.53l3.62-2.61-11.66-14.68s4-33-.6-41.83l-7-2.11s.6-23.83-1.61-30l5,3.22,19-3.92s24,13.37,30.27,13.27a59.94,59.94,0,0,0,11.36-1.3l-4-1.82.2-9.85,21.72.5L288.65,189l9.45,1.51,2.31-1.51,27.25,8.75,2.11-.8v-5.13L318,187.36l-.5-3.42,9.55-7.34-1.41-3.42s-32.08-7.14-33.89-9.65l-6.33-6-2.31-6.94s8.85-16.19,8.75-16.89l-1-2.82,7.14-.9s3.62-2.71,6.23-2.41l.8,1.81,8.65,2.31,7.84-5.83,9,4.12,13.17-10-2.21-6.94-7.84-8.24V101l2,.2-1-9.55-8.95,7.94L315.09,87.72l-5.23-1.51L295.69,64.49,293,56.65l-4.63-8.24-7.54,3.32-5.73,9.35-4.73.8-2.82-7L272.16,49l-.7-5.33L265,37.74h-8.25L248.63,41l-6.84-17.7-12.27-5.33-5.33,4.83-11.26-.7-14.28,5.73-7.94-7.84-2.31,2.41s-27.85-6.64-37.2-8.45l-4,5.83,3.42,15.89,7,4.32-2.41,7.74-9,8.85s-16.39-2.21-24.53,1.61l-7.24,1.41,3.42,4.22.1,5.43L123.45,79l-3.72,6.13L102.73,72l-1,11.76L85.64,86.41l-.3,10.16-4.63,1.71L34,58.76l-3.32.8s.2,9.85.9,11.56C31.55,71.13,15.36,66.3,6.26,71Z"/><path class="cls-2" d="M61.45,338.11l-1.69-20.44L49,293.15c-2.06-4.24-17.9-23.64-26-33.29l-.19-.22-4-13.3v-.21c0-1.79-3.31-7.68-5.65-11.29-1.75-2.85-3.75-16.3-4.14-19l0-.18,0-.18s.48-4.29,2.72-22.94c1.29-10.79,4.21-24.05,6.78-35.75,1.91-8.71,3.57-16.23,4.08-20.65C23.6,128,10.88,101.43,5.91,91.89,4.77,89.63,4.8,75.34,4.84,71v-.85l.76-.39c7.54-3.92,19.29-1.74,24.15-.58-.36-3.1-.49-7.85-.53-9.6l0-1.14,5.12-1.24L81,96.66l3-1.09.31-10.37,16.15-2.62,1.13-13.25L119.34,83l2.47-4.07-5.3-9.34-.1-5.3-4.6-5.68,9.39-1.83c7.58-3.45,21.21-2.12,24.47-1.74L154,46.93l2-6.35-6.62-4.06-3.68-17.08,4.9-7.1.91.18c8.39,1.62,31.86,7.18,36.47,8.27l2.75-2.87,8.3,8.2,13.71-5.5,11,.69,5.56-5L242.9,22.2l6.54,16.92,7.07-2.79h9.07L272.79,43l.85,6.43-4.49,5.66,2.08,5.21,3-.5,5.63-9.18,9.12-4,5.36,9.6L297,63.86,310.76,85l5.11,1.48,10,11.12,10-8.84,1.48,14-2.19-.22v1.69l7.68,8.07,2.62,8.2-14.65,11.07-9.06-4.12L314,133.2l-10-2.66-.7-1.57a12,12,0,0,0-4.47,2.12l-.3.22-5.76.73.48,1.43c.08.54.16,1.15-8.61,17.23l2,6,6.25,6c1.55,1.41,18,5.76,33,9.1l.72.16,2.1,5.1L319,184.56l.26,1.77,11.9,4.48v7.09l-3.49,1.33-27.08-8.69L298.42,192l-9.66-1.54-10.46,3.39-20.54-.48-.15,7.5,7,3.15-4.07,1a60.76,60.76,0,0,1-11.66,1.34h-.08c-6.23,0-26.44-11-30.43-13.2L199.28,197l-2.62-1.68c1.16,7.7,1,21.82.92,25.87l6.58,2,.28.53c4.48,8.57,1.36,37.42.82,42.07l12.22,15.38L212.1,285l-.66-.19c-3.58-1-8.6,3.35-10.23,5.13l-.68.74-.92-.39c-5.94-2.54-8.53.91-11.78,6.47-.53.91-1,1.77-1.56,2.56-2.26,3.39-7.53,5.6-12.62,7.74a43.26,43.26,0,0,0-6.86,3.3c-3,2-3,5.08-2.95,8.92,0,1.06,0,2.15-.06,3.26-.36,6.08-3.54,6.78-3.9,6.84l-.13,0c-.09,0-9.34.74-15.75,5.46-8.29,6.09-15.25-.07-17.87-2.39-3-2.68-8.26-2.36-8.32-2.36l-.36,0-.33-.15c-2.58-1.2-10.46,1.41-14.82,3.33l-.47.21-.49-.14a23,23,0,0,0-11.29.4c-7.21,2-15.78-2.54-16.15-2.73l-.3-.22a4.29,4.29,0,0,0-3.57-1.4c-2.8.35-5.51,3.76-6.32,5Zm56.94-10.81c1.83,0,6.46.3,9.61,3.09,3.89,3.45,8.63,6.4,14.31,2.23,6.74-5,15.88-5.89,17.1-6,.11-.07,1.32-.74,1.53-4.21.06-1,.06-2.08.06-3.09,0-4.12,0-8.37,4.18-11.27a44.57,44.57,0,0,1,7.37-3.58c4.49-1.89,9.58-4,11.36-6.7.48-.73,1-1.55,1.48-2.42,2.71-4.62,6.38-10.89,14.43-8,1.83-1.78,6.94-6.22,11.71-5.39l1.9-1.37-11.11-14,.07-.59c0-.32,3.77-31.38-.2-40.48l-7.47-2.24,0-1.08c.21-8.15.15-24.79-1.53-29.45l-1.42-3.92,8.05,5.15,19-3.91.46.26c6.57,3.65,24.6,13.09,29.49,13.09h.06a58.48,58.48,0,0,0,6.58-.5l-.66-.3.25-12.21,22.9.53,10.65-3.45,9.25,1.48,2.42-1.58,27.42,8.8.73-.28v-3.17l-11.63-4.37-.75-5.07,9.35-7.19-.71-1.73c-11.94-2.67-31.18-7.29-33.83-9.85h0l-6.59-6.28-2.62-7.86.3-.54c3.68-6.74,7.73-14.36,8.5-16.18l-1.44-4,8.53-1.08c1-.73,4.25-2.77,6.93-2.46l.8.09.86,1.93,7.33,2,8-5.92,9,4.12,11.7-8.84-1.81-5.67-8-8.42v-6l1.84.18-.54-5.08-7.94,7L314.31,89,309,87.42,294.35,65l-2.67-7.72-3.93-7-6,2.62-5.84,9.52-6.49,1.1-3.55-8.86,4.76-6-.56-4.23-5.65-5.21H257l-9.22,3.64-7.14-18.48L229.8,19.6l-5.09,4.61-11.54-.72-14.84,6L190.74,22l-1.88,2-.79-.19c-.27-.06-26.24-6.25-36.24-8.25L148.69,20l3.16,14.7,7.46,4.58-2.85,9.14L146.67,58,146,58c-.16,0-16.07-2.11-23.74,1.49l-.33.11-4.92,1,2.24,2.77.1,5.56L125.09,79l-5,8.2L103.93,74.73,103,85l-16,2.6-.29,9.94-6.3,2.33L33.59,60.3l-1.51.37c.12,4.34.43,9.08.77,9.92L34,73.33l-2.85-.85c-.15,0-14.85-4.34-23.47-.56,0,8.35.22,17.42.77,18.69.73,1.4,18.27,35.17,17,45.88-.53,4.56-2.2,12.14-4.13,20.93-2.56,11.64-5.46,24.83-6.73,35.48-2,16.58-2.58,21.77-2.69,22.73.87,6,2.62,15.91,3.7,17.68,1,1.5,5.86,9.17,6.08,12.57l3.69,12.37c2.39,2.86,23.53,28.23,26.19,33.7l11,25,1.09,13.15a10.86,10.86,0,0,1,6-3.46,7,7,0,0,1,5.73,2c1.12.57,8.24,4,13.87,2.42a26.13,26.13,0,0,1,12.33-.53c2.41-1,12-4.87,16.36-3.26Z"/></svg>