<svg id="Layer_1" data-name="Layer 1" xmlns="http://www.w3.org/2000/svg" viewBox="0 0 350 350"><defs><style>.cls-1{fill:#999;}.cls-2{fill:#f90;}</style></defs><title>M</title><path class="cls-1" d="M218.28,75.2,216.41,70l-1.87-4.85-4.48-6-7.83-6-2.24-6L195.52,42l-3.36-4.85v-31l-3,2.24L184.7,9.54l-6,.37-6.61,3-1.6,3-3,3.36-3,3.36h-3.73l-4.1-.75-2.24,2.24-2.24,1.49-4.48,2.24-3.36.37-3.36,1.87-2.61,3.36L132.1,36l-3.36,1.12-5.6,3.54-2.61,1.68-2.24,2.24-2.24-2.24-3.36,1.87-3.36,1.49h-6.72l-6.72,1.12H89.19l-4.85,1.49H81.73l-4.1.37H70.54l-2.24.37v7.46l-4.48,2.24-3.73.75-6,4.85-3,3-4.48,4.85-3,3-2.24,3.36-3.36,3.73-2.24,3.36L34,88.26V108l1.87,9L37,123.7v10.82l-3,3.73v14.92L31.37,155v2.61H37l2.24,1.87s2.24-1.12,3.36,0,3.73,0,3.73,0l4.85.5,2.24-2.36,3.73-.37h3.73l4.48-.37,2.24,1.49,3,1.62,2.61,2.57,1.49,2.15v2.84l-1.87,2.76-2.61,1.87-.75,4.1V186l.75,2.61,2.61,3.73-.37,1.87H69l-1.49,2.24H65.32l-.37,3v4.48l.37,3.73-1.12,3-.37,2.61-1.12,3s-.37-1.87-2.24,0l-1.87,1.87H56.36v3l2.24,1.87.75,2.24V227l-1.87,1.87-.75,1.87L59,233.39h2.24l.37,3.36L61.21,239H73.9l3-4.1h2.61l3.36-.75,4.48.37L90.68,236l4.85,3,1.63,1.17,1,.7H94.42L94,243.46H91.43v3.43h6v7.76l.75,3.36H103l3.73-1.87,4.85-1.12,3-1.12,2.61-.37h2.61l2.61.75,2.42,3.73,4.29,1.87,3.36,4.1,2.24,2.61,2.61,2.61h11.94l3-1.87,5.22-2.61,3.36-1.49,1.12-3V258l5.22,1.49,1.87,1.87,3.09,4.48,2.13,6.34v3.73l-2.13,3.36-2.72,1.87h-3l-3,3.36-2.24,3.73v2.24l-1.12,4.48,1.49,4.1H159.7l-1.12,3.36-.37,3.73v3l-3,3.73.37,2.61,1.87,3,3,2.24.37,1.87H159l-3.36,2.24H150L147.77,327l-1.12,3.36-1.12,2.24-1.87,4.1h-1.49l.37,3.36h6l5.6,1.87h3.36l2.61,1.87h4.48L169,342l3.09-3,7.35-1.87,8.58-.75,10.45-3,9.33-1.87,10.45-1.12,6.34-2.61h4.1l2.61,1.12v2.24l3-.37,2.24-1.87,1.87-2.24,2.24-.37,2.24,1.12v-2.61h3l3.36-1.12,3-1.49v-1.87l3.36-.75,2.24-1.12,1.87,2.61v1.87l-3.36,1.87.75,3.73.75,1.87,1.87,2.61v7.46L256.33,342l-.75,1.87h2.24l5.6-2.24,4.1-2.24,4.1-1.49,4.85-1.87,5.6,1.49,4.1,1.87,1.87-1.12h2.61l3,.75,2.61.75,2.24,1.12,2.24,3,3-3V336l5.6-7.09,2.61-7.46v-6l3.73-8.58,3-7.09-2.24-6.72v-5.22L314.9,283l-1.49-9-1.12-7.46-1.12-7.83L310.05,255l1.12-5.22,3.73-2.91v-3.43l1.12-5.22.37-3.36L314.53,230s-4.1-3.26-4.1-4.85-3,2.61-3,2.61l-.75,4.85-.37,4.1v3l-1.12,1.87-.37,1.87v3.43l.75,3.28-.37,4.1v3l-2.61-4.85-1.87-5.52-1.12-3.06-3-5.6-3.73-7.46L291,223.69l1.12-7.46,2.24-6.34,2.24-10.07L298.86,189l1.49-9.33.75-9.7.75-5.6-1.49-1.78h-2.24l-2.24,1.78-2.61,3.21h-3.73l-2.24-5-1.49-4.94-2.61-7.46-6.72-6.34-5.22-3-4.1-1.87-3.36-.75.37-3,2.24-2.61,3-3.73,1.87-1.87,1.12-3.36-1.49-4.85,2.24-5.22,2.24-5.22,3-4.48.37-5.6,4.1-4.1,4.48-3.36,1.87-2.61,3.36-3.73,1.12-5.6,1.49-3-.75-3.36-3.73-.75-1.87-.37-1.12-7.83,1.12-4.1-2.24-3-2.61-1.12-.75-2.24.75-5.22,1.49-3,.37-3-2.24-.75-4.1.37-3.36,1.87-3,1.12-3.73,1.12-3.36,3-3,2.61-3.73,1.12-3,2.24L252.23,58l-3.36,3.36L244,65.5l-3,2.61-4.1,2.61-4.48.75-4.85,1.87h-3.73l-3.36,2.24Z"/><path class="cls-2" d="M300.57,346l-3-4-1.82-.91-2.49-.71-2.77-.69h-2l-2.17,1.3-4.67-2.12-5-1.34-4.42,1.7-4,1.46-4.16,2.26-5.85,2.34h-4.6l1.74-4.34,3-1.35v-6.09l-1.76-2.54-.82-2.11-.95-4.75,3.53-2v-.58l-.9-1.26-1.48.69-2.25.5v1.6l-4,2-3.58,1.19h-1.8v3.49l-3.88-1.94-1.27.21-1.71,2-2.56,2.13-5,.62v-2.91l-1.49-.64H224.9l-6.27,2.58L208,332.91l-9.21,1.84-10.66,3-8.47.74-6.88,1.75-3,2.91-5,2.08h-5.21L157,343.37h-3.13l-5.6-1.87h-7l-.69-6.19h2.16l1.49-3.27,1.1-2.2,1.19-3.58,2.89-2.89h5.75l3.36-2.24h.16l-2.28-1.71L154.24,316l-.5-3.52,3.06-3.82V306l.44-4,1.44-4.33h.86L158.6,295l1.18-4.73v-2.46l2.6-4.28,3.41-3.83H169l2.12-1.45,1.75-2.76v-3.09l-2-5.93-2.91-4.21-1.52-1.51-3.06-.87v.62l-1.42,3.78L158,266l-5.1,2.55-3.27,2H136.73l-3.1-3.11-2.24-2.61L128.23,261l-4.37-1.9-2.37-3.64-1.91-.55h-2.31l-2.36.34-3,1.12-4.69,1.08-3.88,1.94H97l-1-4.77v-6.34H90V242h2.8l.37-2.61h.38L90,237.25,87,235.9l-4-.33-3.45.73H77.6l-3,4.1H59.54l.62-3.69-.21-1.9H58.32L55.1,231l1.17-2.93,1.66-1.66v-1l-.55-1.64-2.44-2v-5.07H58l1.45-1.45A3.41,3.41,0,0,1,62,214l.41-1.1.43-2.76,1-2.67-.35-3.54v-4.65l.53-4.23h2.73l1.49-2.24h3l0-.13-2.4-3.43-.87-3,0-10.15.85-4.67,2.87-2.05,1.48-2.19v-2l-1.16-1.68-2.37-2.34-2.92-1.59-1.83-1.22-4.1.34H57.18L54,159l-2.36,2.49-5.2-.53c-1,.37-3.45,1-4.93-.44-.19-.19-1.08,0-1.73.27l-.82.4-2.55-2.12h-6.5v-4.76l2.61-1.87V137.75l3-3.73V123.82l-1.1-6.6L32.56,108V87.81l2.13-3L37,81.34l3.29-3.65,2.36-3.49,3-3,4.44-4.81,3.13-3.12,6.24-5.07,3.89-.78,3.52-1.76V47.89l3.66-.59h7l4.17-.37h2.4L89,45.43h6.81l6.83-1.12H109l3-1.34,4.24-2.35,2,2,1.47-1.43,8.53-5.37,3.36-1.12,5.9-2.43L140.11,29,144,26.82l3.39-.38,4.17-2.09,2-1.37,2.66-2.66,4.71.86h3l5.44-6.12,1.75-3.26,7.28-3.29,6.1-.38,4.07-1,5-3.77V36.71l3.07,4.42,4.59,5.36,2.18,5.82,7.67,5.84,4.71,6.29,1.94,5,1.6,4.47.86.14,3.25-2.17h3.9l4.88-1.85,4.19-.7,3.77-2.4,2.9-2.54,4.82-4.08,3.42-3.41,4.1-3.36,3.23-2.43,3.68-1.1,6.34-5.59,4-1.21,2.79-1.05,3.53-2,4.7-.43L287.35,41l-.55,4.38-1.5,3-.67,4.67.44,1.32,2.37,1,2.88,3.84-1.22,4.49.94,6.55,5.52,1.1,1.06,4.75L295,79.4l-1.16,5.79-3.56,4-1.95,2.72-4.57,3.43L280.09,99l-.36,5.44-3.12,4.68-4.22,9.85,1.47,4.79-1.37,4.11-2,2-2.94,3.67-2,2.33-.16,1.28,2.38.56,4.22,1.92,5.49,3.18,7,6.58,2.73,7.79,1.48,4.91,1.83,4.07h2.14l2.4-2.9,2.63-2.08H301l2.32,2.76-.83,6.22-.75,9.74-1.49,9.33L298,200.1l-2.29,10.26-2.19,6.21-1.06,7,1.75,6.66,3.67,7.33,3,5.74,1.12,3.06L304,252l.16-1.74-.73-3.38,0-3.71.42-2.11,1-1.74v-2.72l.37-4.1.81-5.27.19-.27c2.62-3.69,3.59-3.76,4.42-3.49a1.68,1.68,0,0,1,1.13,1.7c.12.54,1.83,2.36,3.57,3.74l.3.24,2.13,5.53-.43,3.84-1.09,5.08v4l-3.87,3-.94,4.36,1.06,3.59,1.12,7.83,1.12,7.45,1.47,8.84,1.53,5v5.21l2.33,7L317,307.43l-3.62,8.33v5.92l-2.77,7.91-5.44,6.89v4.95Zm-140-3.57h3.74l4-1.65,3.17-3.06,7.94-2,8.45-.73,10.43-3,9.45-1.88,10.25-1.1,6.41-2.64H229l3.74,1.6v1.57l1-.12,1.82-1.52,2.12-2.54,3.21-.54.6.3v-1.74h4.17l3-1,2.11-1.06v-2.13l4.3-1,3.17-1.58,2.83,4v3.15l-3.18,1.77.52,2.59.63,1.59,2,2.84V341l1.71-.68L267,338l4.1-1.49,5.25-2,6.26,1.69,3.43,1.56,1.56-.94,3.35,0,3,.75,2.9.85,2.54,1.27,1.46,1.95,1.42-1.41v-4.76L308,328.2l2.45-7v-6l3.85-8.85,2.77-6.58L315,293.31v-5.24l-1.47-4.83-1.49-9-1.12-7.48-1.11-7.74-1.19-4,1.3-6.08,3.59-2.8,0-3,1.1-5.15.33-2.94-1.6-4.17a18.22,18.22,0,0,1-3.62-3.75c-.3.36-.63.78-.94,1.2l-.69,4.51-.36,4v3.31l-1.19,2-.3,1.49v3.13l.76,3.35-.39,4.26v8.54l-5.37-10-1.87-5.52-1.07-2.93-2.94-5.51-3.85-7.77-1.94-7.37,1.23-8,2.21-6.26,2.22-10,2.23-10.8,1.47-9.21.74-9.64.67-5.06-.67-.79h-1.08l-1.73,1.37L293.94,169h-5.32l-2.68-6-1.49-4.94L282,151l-6.34-6-5-2.87-3.91-1.78-4.47-1,.59-4.69,2.52-2.94,3.06-3.81,1.63-1.63.87-2.61-1.51-4.91,4.81-11.15,2.78-4.16.38-5.75L282,93.09l4.3-3.23,1.84-2.56,3.1-3.44,1.17-5.57,1.27-2.53-.44-2-5.67-1.13-1.3-9.12,1-3.72-1.59-2.13-2.85-1.22-1.05-3.16.83-5.78,1.49-3,.2-1.59-.85-.29-3.51.32-3.29,1.81-3,1.12L270.1,47l-6.35,5.6L260,53.73l-2.78,2.09-4,3.28-3.39,3.39-4.85,4.1-3.14,2.73-4.35,2.77-4.62.77-5,1.91H224.3l-3.47,2.31-3.61-.6-2.15-6-1.78-4.63-4.24-5.65-8-6.1L198.76,48l-4.4-5.15-3.61-5.21V9l-.95.71-5,1.23-5.71.36L173.15,14l-1.56,2.83L165.19,24l-4.62,0-3.37-.61-1.93,1.89-2.39,1.58-4.7,2.35-3.33.37L142,31.16l-2.67,3.43-6.69,2.75-3.28,1.1-7.93,5-3.13,3.13-2.48-2.48-2.54,1.4-3.63,1.61h-6.9l-6.83,1.12h-6.5l-4.85,1.49H81.79l-4.17.37h-7l-.94.16v7.14L64.1,60.18l-3.39.68-5.64,4.58-2.93,2.93L47.7,73.18,44.78,76.1l-2.29,3.4L39.2,83.16,37,86.43l-1.63,2.28v19.17l1.84,8.81,1.15,7V135l-3,3.73V153.9l-2.61,1.87v.47h4.69l2,1.66a4,4,0,0,1,4.09.62,3.4,3.4,0,0,0,2.17-.3l.34-.14,4.52.46,2.12-2.24,4.4-.43h3.67l4.91-.41,2.6,1.73,3.1,1.68,2.92,2.92,1.75,2.51V168l-2.25,3.33L71.46,173l-.62,3.41v9.37l.63,2.19,2.82,4-.72,3.6H69.8l-1.49,2.24H66.57l-.21,1.66v4.32l.4,4L65.58,211l-.43,2.76-2.86,7.63-.83-4.14-2.27,2.27H57.78v.9l2,1.7.95,2.84v2.68l-2.07,2.08-.32.8L59.63,232h2.86l.54,4.81-.13.78H73.17l3-4.1h3.18l3.42-.76,4.93.41,3.74,1.68,4.85,3,6.3,4.49H95.64l-.37,2.61H92.85v.6h6v9l.47,2.1h3.38l3.75-1.83,4.76-1.1,3.19-1.16,2.81-.39H120l3.31.95,2.48,3.82,4.21,1.83,3.58,4.37,2.18,2.55,2.16,2.16h10.95l2.76-1.72,5.22-2.61,2.87-1.28.82-2.19v-3.86l7.38,2.11,2.29,2.32,3.21,4.64,2.27,6.75v4.37l-2.5,4-3.32,2.28h-2.79l-2.47,2.78-2,3.28,0,2.19-1,4.06,2,5.6h-2.87L160,302.7l-.35,3.5v3.41l-2.91,3.64L157,315l1.57,2.51,3.21,2.41.82,4.09h-3.17L156,326.21h-5.44L149,327.79,147.91,331l-1.12,2.24-2.22,4.89h-.82l.06.52h4.93l5.6,1.87h3.58ZM62,216.79Z"/></svg>