<svg id="Layer_1" data-name="Layer 1" xmlns="http://www.w3.org/2000/svg" viewBox="0 0 350 350"><defs><style>.cls-1{fill:#999;}.cls-2{fill:#f90;}</style></defs><title>M</title><path class="cls-1" d="M98.45,336.89,80.81,304.43l-60,33.88,12.05-33.88,29.64-12.7L24.33,264.35,56.81,223.5l-5.65-8.94,10.35-5.65,5.65,3.76,8-7.53,19.76,3.29,7.06,2.35,25.88-16.47L117,188l2.35-14.38,16.47-5.18v-12.7l7.53-2.82V146.8s47.52-56.93,50.82-63.05l3.29-6.12s17.41-4.23,30.11-8.94,8.47-1.88,20.23-11.76,2.35-6.59,22.11-17.88,28.23-16,28.23-16L317.48,12.7l9.88-5.65,1.88,15.53-7.53,28.23-47.05,56.93L267.13,111,261,117.63,233.26,136l-16.94,10.35-8.47,1.88s2.35,7.53,5.18,8.94a22.62,22.62,0,0,1,5.65,4.71L215.38,167,213,172.68l-.94,7.53s-3.76,2.82-3.29,5.65,3.76,24.94,3.76,24.94A42.22,42.22,0,0,1,211.14,224c-1.88,6.12-4.71,7.53,1.88,11.76S222,247.36,222.43,247s-3.76,3.83-1.88,5.71-1.88,5.65,0,7.06.24,16-1.18,17.64,13.65,15.29,14.35,15.76,4.23,3.53,6.12,4.94,2.35,2.35,2.35,5.41-4.94,9.41-4.94,9.41-2.59-3.06-3.76-.94-4.7,5.88-6.59,8.23-16.7,10.12-18.12,12.7-2.82,4-8.7,5.41-5.65,3.29-14.59,1.41-9.65-.47-15.53-4.23-8.7-5.18-15.06-5.18-18.35,0-25.17,1.41-25.17,8.79-25.17,8.79L101,343Z"/><path class="cls-2" d="M100.42,345.18l-3.25-7.68L80.25,306.37l-62.1,35,13.53-38,27.9-12L22.29,264.63,55.07,223.4,49.16,214l12.43-6.78L67,210.87l7.69-7.24,20.67,3.46,6.42,2.14,23.35-14.86-9.66-5.64,2.65-16.2,16.31-5.13V154.76l7.53-2.82v-5.65l.33-.39C158.7,126.24,190.4,87.82,193,83.08l3.59-6.67.61-.15c.17,0,17.48-4.27,30-8.89,2.42-.9,4.23-1.52,5.65-2,5-1.71,5-1.71,10.75-6.62l3.41-2.88a37.43,37.43,0,0,0,6.8-6.87c1.91-2.51,3.06-4,15.53-11.15,19.54-11.17,28.16-16,28.25-16l19.31-10.36,11.7-6.69,2.17,17.92L323,51.48l-.2.24-47.27,57.19L268,112.22l-6.17,6.59L234,137.16l-17.18,10.5-7.15,1.59c1,2.73,2.63,6,4,6.63a23.86,23.86,0,0,1,6.09,5l.68.8-3.79,6L214.41,173l-1,7.93-.48.36c-.8.6-3,2.68-2.75,4.28.47,2.8,3.63,24.06,3.77,25v.12a43.24,43.24,0,0,1-1.47,13.69c-.42,1.36-.87,2.48-1.27,3.46-1.35,3.31-1.63,4,2.57,6.7,5,3.21,7.67,8.07,9,10.41l.35.64.37.34a1.44,1.44,0,0,1,0,2.08c-2.1,2.49-2,3.52-1.87,3.66,1.59,1.58.85,3.7.31,5.24a5.46,5.46,0,0,0-.43,1.74c.68.48,1.08,1.47,1.26,3.15.43,3.89-.46,13.21-1.92,16,1.16,2.61,12.06,12.89,13.77,14.18.34.23,1.13.87,2.48,2s2.7,2.24,3.67,3c2.29,1.72,2.92,3.13,2.92,6.54s-4.36,9.16-5.24,10.28l-1.07,1.38-1.13-1.33a4.61,4.61,0,0,0-1.45-1.16,45.08,45.08,0,0,1-4.59,5.9c-.79.92-1.54,1.79-2.13,2.53-1,1.2-3.84,3-8.46,5.88-3.55,2.2-8.92,5.53-9.52,6.62-1.65,3-3.43,4.63-9.62,6.11a30.17,30.17,0,0,0-3.63,1.14c-3.09,1.14-5,1.67-11.58.28-2.91-.61-4.94-.87-6.56-1.08a18.17,18.17,0,0,1-9.44-3.35c-5.73-3.67-8.28-5-14.29-5-6.36,0-18.2,0-24.89,1.38-6.3,1.3-23,7.94-24.78,8.66Zm-19.06-42.7,18.39,33.86,1.9,4.49,2.38-1.64c.75-.3,18.55-7.44,25.41-8.86s19-1.44,25.46-1.44c6.72,0,9.83,1.56,15.82,5.4a15.44,15.44,0,0,0,8.27,2.93c1.68.21,3.76.48,6.79,1.12,6.08,1.28,7.47.76,10-.17a32.46,32.46,0,0,1,4-1.23c5.73-1.38,6.65-2.62,7.79-4.71.89-1.62,4.56-4,10.51-7.67,3.14-1.94,7-4.36,7.74-5.24s1.38-1.66,2.19-2.6a44.75,44.75,0,0,0,4.27-5.43,2.69,2.69,0,0,1,2.1-1.46,4,4,0,0,1,2.72,1c1.77-2.48,3.71-5.79,3.71-7.28,0-2.68-.32-3.17-1.79-4.28-1-.77-2.49-2-3.78-3.05-.94-.78-2-1.66-2.27-1.84S218.39,281.65,217.89,278a1.9,1.9,0,0,1,.41-1.52c1.07-1.59,2.33-13.79,1.31-15.66-1.63-1.32-.9-3.42-.42-4.81.31-.88.69-2,.36-2.31-1.07-1.07-1.69-3.08,1.08-6.7l-.36-.65c-1.17-2.13-3.62-6.57-8-9.39-5.89-3.79-5.26-6.2-3.66-10.15.38-.93.81-2,1.19-3.22a40.92,40.92,0,0,0,1.36-12.61c-.19-1.3-3.3-22.15-3.75-24.85-.5-3,2.18-5.62,3.36-6.62l.89-7.15,2.54-6,2.71-4.26a18.79,18.79,0,0,0-4.5-3.6c-3.2-1.6-5.47-8.43-5.89-9.78l-.46-1.47,9.74-2.17,16.74-10.23,27.58-18.23,6.2-6.68,7.49-3.28,46.64-56.43,7.38-27.67L326.21,9.35l-8,4.59L298.86,24.3c-.07,0-8.67,4.82-28.2,16-12,6.84-13,8.18-14.67,10.41A39.87,39.87,0,0,1,248.75,58l-3.4,2.87c-6.08,5.16-6.2,5.25-11.66,7.14-1.41.49-3.2,1.1-5.59,2-11.29,4.18-26.44,8-29.66,8.83l-3,5.56c-3.21,6-46.08,57.42-50.65,62.89v6.58l-7.53,2.82v12.76l-16.63,5.23-2.06,12.56,12,7-28.41,18.08-7.59-2.53-19-3.16-8.31,7.82-5.87-3.91-8.27,4.51,5.38,8.51L26.37,264.07l39,28L33.94,305.48,23.37,335.21Zm153.42,10.07Zm-14.33-34.27h0Z"/></svg>