<svg id="Layer_1" data-name="Layer 1" xmlns="http://www.w3.org/2000/svg" viewBox="0 0 350 350"><defs><style>.cls-1{fill:#999;}.cls-2{fill:#f90;}</style></defs><title>M</title><path class="cls-1" d="M274.2,69.38c-.33-.82-2-1.48-3.3-2.09s-3-1.59-3.46-3.24a3.41,3.41,0,0,1,.05-2.58s-2.47.16-3-1.37-.6-4-2-4.73-1.59-2-2.58-2.91-4.51-.88-4.51-.88l-.6,1.65a25,25,0,0,1-3.24-3.41c-.33-.77-5.66-.22-6.71-1.15a21.29,21.29,0,0,0-2.53-2.31c-.27,0-2.05-.27-2.05-.27l.29-1.59a5.59,5.59,0,0,0-4.67-2.09c0-.44-2.64,0-3.79-4-1.81-.88-3,0-3.85-1.37-2.53,2.42-4.78,5.33-8.08,1.43a41.41,41.41,0,0,1-3.9-20.78c-2.58-2.53-4.12-6.1-5-7.15-4.51.38-8.36-.16-8.91,0s-2.69,4-3.08,5.11-.77,3.74-3.19,3.79-12.64-2-15-3.24-4.73-2.47-6.87-2.58-4.67,1.48-7.59.27-6.27-4.23-6.87-4.51-15.28-3-15.5-3-4,5.5-4,5.5l1.87,2.75a19.11,19.11,0,0,1,2.2-1.65,16.38,16.38,0,0,0,1.1,1.76s-2.09,2-2.31,3.74.71,6.21.44,7.26-5.22,9.29-6.54,9.9-5.28.71-6.32.71-2.14,3.9-4.12,6.71-1.1.55-.82,6,1.48,7.86,1,10-4.78,3.79-7.15,7-3,3.52-4,4.23S106.79,70,105,69.6s-8.14-4.34-8.69-4.78-.55-2.2-2.64,1.21-8,9.51-9.07,11.82-.44,5.94-3,8.47-5.83,8.63-5.83,8.63,6.87,6.21,7.53,6.54,4.51,2,4.78,3.63,3.3,8,3.85,9.24,11.38,9.24,16.55,15.94c13,2.64,21.66,3.13,24.41,5.06s5.11,4.29,5.88,7.75,0,14.84.55,16.88,3.35,2.64,5.66,4.07a34.18,34.18,0,0,1,4,2.91l.55,2s-2.25.6-2.36,2.58,2.86,9.13,5.11,12.26c4.67.49,8.85-1.37,9.62-.66s.6,3.13.6,3.57,4.18,3.3,4.34,3.35a62.62,62.62,0,0,1,3.68,6.65c.55,1.37,1.21-.44,1.59,1.59s.27,4-2.09,4.34-2.36,1.1-2.58,2.47.11,3.19-3.19,3.85c-3.68,1.7-6,3.79-8.69,2.69s-4-1.21-6.1-.38-6.65,2.47-7.48,2.09-2-1.7-2.42-1.15-2.47,2.2-2.47,3.3,2,4.62,2.25,5.33,1.92,7,2.53,7.75,2.53-.33,3.19.77,5,6.54,5,6.54l-.39,6.36c2.24-.7,4.36-1.29,4.36-1.29h.79s6.41,6.64,7.83,7.43,4.93,4.14,5.22,6.86,2.89,11.63,4.71,13.33,5,8.39,8.68,10.44,3.18-.68,5,3.86c2.33,1,8.62-2.55,11.12-1.7,6.24,4.65,10,3.69,10,3.69s-.68,9.81-.74,10.89-2.67,15.48-1.36,17.41.79,8.56.79,12,2.67,13,1.7,17.36c0,.18-.09.36-.13.54a3.35,3.35,0,0,0,1.58.52c2.21-.59,7.46-4.13,9.17-4.9s5.13.38,5.92-.14,5.09-3.71,6.11-4,2.83-.21,5,1,5.94,3.87,7.11,4.45a3.78,3.78,0,0,1,2,1.93c.37.8,2.67-1.18,3.58-1.66a12,12,0,0,1,5.88-.91c2.94.16,2.62-.16,2.62-.16s.66-11.57.77-12.78.27-3.9-1.1-5-3.19-6-3.19-8,.33-5.83.33-5.83l1-.66a10.8,10.8,0,0,1-1.43-3.3c-.16-1.32,1.76-4.67,1.76-6s-4.29-5-4.4-5.5-.11-4,1-4.95,2.53-2,2.75-2.8.22-1-.66-2.36a7,7,0,0,1-1.15-4.29c.22-.88,1.76-1.43,1.92-1.65s-.27-3.9-.16-4.18-5.66-1.21-6-2.8a7.55,7.55,0,0,1,.93-4.51c.33-.44,3-1.7,3-2.42s-.16-7.26-.16-8.25.11-4.12.11-4.29,6.82-9.35,7.2-9.62,8.8-2.2,8.8-2.2,1.37-11.93,2.14-12.92-.93-5.44-1-6.16,3-4.51,2.64-6.1-2.2-4-2.25-4.84,2.14-5.66,1.87-6.54-5.66-4.95-6.32-5.77-9.9-8.3-11.05-10.23-7.86-20.73-8.74-22.16c3.19-5.17,6.43-11.55,7.31-13.14s3.13-11.93,3.19-14a44.05,44.05,0,0,1,1.1-5.88,61.72,61.72,0,0,0-5.44-6.16c1.1-3.79.71-4.34,3.24-4.95s1.21-.93,1-2.58-.33-1.92,1.48-4.4a76.86,76.86,0,0,1,6.38-7.59c.55-.33-2.75-4-2.91-4.45S256.61,93,256.61,93A3.18,3.18,0,0,0,259,89.78c4.12.16,4.84.88,7.7-.66s6-3.13,6.6-4.12.27-6,.27-7.09S274.53,70.21,274.2,69.38Z"/><path class="cls-2" d="M209.33,345l-.24,0a4.77,4.77,0,0,1-2.24-.73l-.88-.56.27-1c0-.16.08-.32.12-.48.55-2.48-.28-7.25-.94-11.09a42.44,42.44,0,0,1-.79-6c0-.7,0-1.53,0-2.42.07-2.65.19-7.59-.59-8.75-1-1.47-.78-5.73.83-16.29.14-.89.28-1.81.29-2,0-.82.43-6.49.63-9.32-1.85-.12-5-.87-9.08-3.87-.92-.15-3,.47-4.53.93-2.5.75-4.87,1.46-6.51.78l-.55-.23-.22-.55a11.8,11.8,0,0,0-.94-2l-.17,0a7.69,7.69,0,0,1-3.26-1.1c-2.64-1.49-4.92-4.89-6.75-7.63a22.5,22.5,0,0,0-2.2-3c-2.33-2.19-4.89-11.78-5.15-14.22-.22-2.08-3.31-5.1-4.5-5.77-1.37-.77-5.84-5.3-7.73-7.25-.56.16-2.31.65-4.13,1.22l-2,.61.48-7.87c-1-1.3-3.88-4.9-4.67-6.1a5,5,0,0,0-.57,0,2.8,2.8,0,0,1-2.62-.81c-.44-.55-1-1.9-2.55-7.43l-.22-.78c-.06-.16-.35-.76-.6-1.24-1-2-1.72-3.52-1.72-4.51,0-1.28,1-2.39,2.25-3.62.21-.21.39-.38.49-.51a1.7,1.7,0,0,1,1.12-.7,3.22,3.22,0,0,1,2.36.93c.18.13.39.29.55.39a33.42,33.42,0,0,0,6.49-2c2.42-1,4.16-.86,7.17.4,1.31.54,2.6-.09,5-1.36.77-.41,1.64-.88,2.58-1.31l.32-.1c1.82-.36,1.87-.88,2-2,0-.23,0-.45.08-.67l0-.18c.26-1.66.7-3,3.73-3.47.65-.11.81-.33.86-.41.17-.25.33-.83.08-2.19a2.12,2.12,0,0,1-1.53-1.41c-.46-1.15-2.8-5.29-3.37-6.15-1.36-.82-4.76-3-4.76-4.38v-.25a8.74,8.74,0,0,0-.11-2.05c-.41,0-1,.16-1.59.26a24.68,24.68,0,0,1-7.27.54l-.63-.07-.37-.52c-2.29-3.18-5.52-10.67-5.38-13.17a4.1,4.1,0,0,1,2.09-3.3l-.11-.39a34,34,0,0,0-3.51-2.51,21.64,21.64,0,0,0-2-1c-1.84-.89-3.74-1.81-4.3-3.86-.29-1.07-.28-3.38-.25-7.38,0-3.49.07-7.83-.32-9.56-.58-2.6-2.22-4.73-5.31-6.9-1.45-1-5.68-1.7-11.05-2.56-3.52-.57-7.89-1.27-12.83-2.27l-.52-.1-.32-.42c-3.16-4.1-8.66-8.83-12.3-12-3.11-2.68-4.11-3.56-4.43-4.29-.11-.25-.31-.7-.58-1.27-1.58-3.44-3.14-6.91-3.37-8.3,0-.12-.43-.9-3.71-2.44l-.31-.15A98.48,98.48,0,0,1,74.78,96L74,95.26l.52-1c.14-.26,3.38-6.33,6.09-9,1.31-1.28,1.58-3,1.87-4.74a12.34,12.34,0,0,1,.86-3.33,39.32,39.32,0,0,1,4.48-5.95,62.79,62.79,0,0,0,4.66-6c1.06-1.73,1.9-2.73,3-2.73h0a2.05,2.05,0,0,1,1.73,1.14l0,.07c1,.69,6.65,4.16,8,4.45,2.15.46,8.33,1.16,9.6.87L115,69c.79-.56,1.42-1,3.45-3.75a20.39,20.39,0,0,1,4.31-4c1.15-.86,2.45-1.84,2.59-2.47a9.48,9.48,0,0,0-.27-3.48,45.59,45.59,0,0,1-.75-6.14A24.77,24.77,0,0,0,124,46a2.71,2.71,0,0,1,.71-2.7c.18-.23.41-.54.71-1a26.74,26.74,0,0,0,2-3.67c1.07-2.19,1.77-3.64,3.25-3.64a22.93,22.93,0,0,0,5.73-.59c1-.71,5.35-7.78,5.77-9a23.77,23.77,0,0,0-.24-2.77,20.82,20.82,0,0,1-.25-4.28,5.88,5.88,0,0,1,.82-2.17l-.71.58-3.29-4.83.54-.8C143.26,5,143.35,5,144.23,5c.09,0,15.16,2.67,16.09,3.1a9,9,0,0,1,1.48,1,27.22,27.22,0,0,0,5.35,3.45,6.78,6.78,0,0,0,4.28,0,10.83,10.83,0,0,1,2.84-.36c2.38.12,4.79,1.32,7.47,2.75,2,1.09,11.95,3.1,14.31,3.08.9,0,1.25-.71,1.69-2.24.07-.23.13-.43.19-.61s2.41-5.52,4-6a7.29,7.29,0,0,1,2.22,0,49.38,49.38,0,0,0,7,0l.73-.06.47.56a15.08,15.08,0,0,1,1.24,1.93,24.11,24.11,0,0,0,3.67,5.11l.47.46,0,.65a39.82,39.82,0,0,0,3.69,19.9A3.1,3.1,0,0,0,223.26,39c1,0,2.15-1.14,3.31-2.28l.68-.67,1.28-1.23.91,1.52c.1.16.1.16.73.21a6.58,6.58,0,0,1,2.52.61l.57.27.18.6c.64,2.2,1.7,2.53,2.39,2.75a3.33,3.33,0,0,1,.53.21,6.93,6.93,0,0,1,5.37,2.71l.31.48-.13.71.43,0h0c.72,0,1.17.46,2.28,1.56.37.37.77.77,1.16,1.11a16.57,16.57,0,0,0,2.93.29c2.27.11,3.63.18,4.14,1.36a13,13,0,0,0,1.35,1.46l.2-.56h1c1.22,0,4.19.12,5.45,1.24a6.79,6.79,0,0,1,1.2,1.51,3,3,0,0,0,1.09,1.2c1.56.81,2,2.67,2.31,4.16a12.43,12.43,0,0,0,.35,1.35c.1.28,1,.47,1.6.44L270,59.9l-1.34,2.28h0a2.46,2.46,0,0,0,.08,1.46c.26.88,1.15,1.65,2.7,2.36l.44.2c1.52.68,3.08,1.39,3.59,2.65h0c.28.7.23,1.93-.27,6.54-.11,1-.24,2.21-.24,2.51s0,.53,0,.94c.11,3.78.06,5.87-.47,6.84-.65,1.17-2.62,2.26-6,4.08l-1.13.6a8.33,8.33,0,0,1-5.86,1l-1.3-.11a4.45,4.45,0,0,1-1.63,2.34c2.59,4.32,3.18,5.39,3.33,5.71.11.16.46.6.74,1,2,2.5,2.52,3.36,2.35,4.28a1.55,1.55,0,0,1-.65,1,87.2,87.2,0,0,0-6,7.26c-1.38,1.88-1.37,2-1.25,3.12l0,.3a2.72,2.72,0,0,0,.23.78,2.21,2.21,0,0,1,.07,1.94,3.31,3.31,0,0,1-2.42,1.39c-1.24.3-1.24.3-1.72,2.16-.08.3-.16.63-.26,1,1.55,1.57,5.27,5.47,5.27,6.57a6.2,6.2,0,0,1-.27,1.36,27.14,27.14,0,0,0-.83,4.56c-.06,2.11-2.31,12.69-3.36,14.61-.19.35-.5.93-.89,1.67-1.3,2.47-3.67,6.95-6,10.86.61,1.38,1.72,4.31,3.65,9.42,1.85,4.91,4.15,11,4.7,11.92.64,1.07,5.24,5,7.71,7.16a38.17,38.17,0,0,1,3.23,2.91c.21.25,1.35,1.19,2.18,1.89,3.17,2.65,4.14,3.54,4.39,4.35s-.08,2-1.07,4.74c-.27.75-.64,1.77-.72,2.16.09.19.44.81.7,1.26a12.69,12.69,0,0,1,1.51,3.35c.29,1.42-.6,3.07-1.89,5.25-.23.4-.54.91-.68,1.2.06.21.16.54.24.83.81,2.77,1.32,4.83.48,6-.43,1-1.32,7.13-1.92,12.3l-.11,1-1,.22c-3.44.79-7.26,1.71-8.29,2-1,1.26-5.62,7.41-6.61,8.85,0,.11,0,.24,0,.38,0,1-.09,2.78-.09,3.48,0,.53,0,2.67.09,4.64,0,1.7.07,3.27.07,3.6,0,1.24-1.22,2-2.64,2.88-.24.15-.56.35-.71.46a6.77,6.77,0,0,0-.68,3.14c.56.54,3,1.21,3.8,1.44,1.34.37,1.84.51,2.16,1.17l.28.57-.15.39c0,.31.06,1,.1,1.45.17,2.2.21,2.72-.2,3.27a2.49,2.49,0,0,1-.87.66,4.46,4.46,0,0,0-.82.55,6.27,6.27,0,0,0,1,3.09c1,1.48,1.22,2.13.85,3.52-.32,1.2-1.59,2.22-2.93,3.3l-.3.24c-.4.4-.62,2.38-.57,3.33.21.24.6.64.93,1,2.12,2.17,3.51,3.7,3.51,5a10.23,10.23,0,0,1-.95,3.28,11.62,11.62,0,0,0-.82,2.55,9.15,9.15,0,0,0,1.22,2.7l.76,1.2-1.65,1c-.09,1.18-.27,3.57-.27,5,0,1.83,1.79,6.22,2.66,6.92,2,1.64,1.73,5.1,1.63,6.24-.08.89-.49,8-.73,12.1l.24.24-.39.93c-.46,1-1.57,1.09-4,1a10.33,10.33,0,0,0-5.14.75c-.17.09-.51.32-.83.55-1.32.91-2.46,1.7-3.58,1.4a1.71,1.71,0,0,1-1.12-.94c-.21-.45-.42-.77-1.38-1.26-.69-.34-2-1.2-3.53-2.19-1.31-.85-2.66-1.73-3.66-2.31a5.29,5.29,0,0,0-3.84-.92,51.55,51.55,0,0,0-4.69,3.12l-1.07.75c-.78.52-1.83.4-3.17.25a7.72,7.72,0,0,0-3,0c-.56.25-1.7.92-2.91,1.64a34.72,34.72,0,0,1-6.47,3.33Zm-.47-61.89-.1,1.87c0,.1-.68,9.81-.74,10.87,0,.28-.1.86-.32,2.27-1.29,8.46-1.71,13.28-1.25,14.33,1.17,1.72,1.17,5.54,1,10.35,0,.87,0,1.68,0,2.35a42.63,42.63,0,0,0,.75,5.48c.68,3.95,1.45,8.38,1,11.42a46.77,46.77,0,0,0,5.33-2.89c1.33-.79,2.49-1.47,3.2-1.79a8.87,8.87,0,0,1,4.42-.23,12.33,12.33,0,0,0,1.43.11l.85-.61c2.9-2.06,4.63-3.23,5.46-3.51,1.66-.54,4-.1,6.14,1.17,1.06.61,2.44,1.51,3.77,2.38s2.71,1.76,3.26,2a5.62,5.62,0,0,1,2.16,1.69c.35-.22.77-.5,1-.69a12.41,12.41,0,0,1,1.12-.72,12.89,12.89,0,0,1,6.62-1.07l1.19,0c.17-3,.62-10.69.71-11.7.25-2.78-.32-3.56-.57-3.77-1.85-1.48-3.72-6.93-3.72-9.13s.32-5.79.34-6l.06-.7.5-.31a8.77,8.77,0,0,1-.94-2.65,9.12,9.12,0,0,1,1-3.93,14.68,14.68,0,0,0,.74-2.15,20.08,20.08,0,0,0-2.7-3.14c-1.15-1.17-1.53-1.57-1.66-2.14-.08-.37-.36-4.82,1.54-6.36l.31-.25a10.28,10.28,0,0,0,2-1.85s.06-.24.06-.3a8,8,0,0,0-.54-.89,8.21,8.21,0,0,1-1.35-5.42,3.65,3.65,0,0,1,1.9-2.11c0-.43-.07-1-.1-1.4s-.06-.72-.07-1l-.25-.07c-2.91-.81-5.35-1.62-5.77-3.39a8.75,8.75,0,0,1,1.18-5.69,5.07,5.07,0,0,1,1.44-1.1,15.4,15.4,0,0,0,1.29-.87c0-.63,0-1.85-.07-3.15,0-2-.09-4.17-.09-4.71,0-.71.06-2.52.09-3.56,0-.39,0-.66,0-.73,0-1.11,7.72-10.71,7.8-10.77.25-.18.59-.42,8.33-2.2,1.19-10.1,1.9-12,2.22-12.49a16.22,16.22,0,0,0-.8-3.74,8.85,8.85,0,0,1-.39-1.58c-.05-.72.33-1.38,1.11-2.69.47-.8,1.58-2.67,1.55-3.26a11.63,11.63,0,0,0-1.2-2.49,6.52,6.52,0,0,1-1.08-2.52c0-.6.2-1.33.9-3.28a30.43,30.43,0,0,0,1-2.94c-.6-.66-2.41-2.16-3.42-3a23.91,23.91,0,0,1-2.58-2.3c-.22-.25-1.63-1.46-2.87-2.53-4.2-3.62-7.48-6.5-8.29-7.85-.63-1-2.36-5.58-4.92-12.38-1.53-4.06-3.44-9.12-3.82-9.77l-.43-.73.43-.75c2.46-4,5-8.78,6.36-11.36.41-.77.72-1.36.92-1.72.68-1.23,3-11.31,3-13.32a28.59,28.59,0,0,1,.91-5.15l.1-.4c-1-1.25-4.23-4.83-4.87-5.38l-.69-.59.25-.87c.2-.67.34-1.24.47-1.73.65-2.5,1-3.54,3.81-4.2l.18,0a4.79,4.79,0,0,1-.22-1l0-.28c-.2-1.86,0-2.6,1.78-5.1,1-1.36,4.19-5.35,5.89-7.14-.41-.61-1.1-1.48-1.49-2a7,7,0,0,1-1.12-1.59c-.18-.37-2.18-3.74-4-6.69l-1-1.72,2-.4a1.74,1.74,0,0,0,1.29-1.85V88.31l1.47.06c1.12,0,2,.13,2.72.2,1.93.19,2.52.24,4.24-.69l1.14-.61c1.78-1,4.48-2.39,4.91-3a34.34,34.34,0,0,0,.1-5.36c0-.45,0-.81,0-1,0-.44.09-1.31.25-2.82s.47-4.33.42-5.19a10.74,10.74,0,0,0-2.09-1.12l-.45-.2c-2.34-1.07-3.72-2.42-4.23-4.13a6,6,0,0,1-.27-1.73,3.54,3.54,0,0,1-2.68-2.15,14.53,14.53,0,0,1-.45-1.68c-.18-.82-.46-2.06-.85-2.26a5.58,5.58,0,0,1-2.17-2.19,4.4,4.4,0,0,0-.7-.92,7.35,7.35,0,0,0-2.59-.49l-1,2.66-1.56-1.41a26.74,26.74,0,0,1-3.3-3.4c-.45-.08-1.35-.12-2-.15-2.34-.12-3.82-.24-4.67-1-.42-.37-.86-.81-1.27-1.22s-.58-.58-.79-.77c-.32,0-.86-.11-1.8-.25l-1.44-.22L239,44.9a4.6,4.6,0,0,0-3.15-1.09h-1.42v-.5A6,6,0,0,1,231,39.51a5.25,5.25,0,0,0-1-.15,4.45,4.45,0,0,1-1.67-.38c-1.51,1.48-3.1,2.91-5.16,2.82a5.75,5.75,0,0,1-4.06-2.41l-.19-.3a42.62,42.62,0,0,1-4.08-20.86A28.32,28.32,0,0,1,211.13,13c-.21-.35-.41-.7-.58-1A55.34,55.34,0,0,1,204,12l-1.07,0a26.19,26.19,0,0,0-2.34,4.19c0,.13-.09.29-.14.47-.37,1.26-1.23,4.2-4.35,4.27-2.62.06-13-2-15.71-3.41-2.37-1.27-4.48-2.33-6.28-2.42a8.58,8.58,0,0,0-2.08.3,9.39,9.39,0,0,1-6-.13,29.44,29.44,0,0,1-6-3.83c-.35-.27-.73-.56-.91-.69C157.8,10.35,147.7,8.47,144.79,8c-.6.79-1.71,2.39-2.8,4l.46.67c1.28-1,1.76-1.21,2.5-.87l.81.38v.57c.18.3.55.85.85,1.29l.68,1-.86.83a7,7,0,0,0-1.89,2.9,21.47,21.47,0,0,0,.25,3.59,12.52,12.52,0,0,1,.16,3.85c-.28,1.06-5.35,9.92-7.32,10.82-1.54.71-5.3.82-6.53.84A19.37,19.37,0,0,0,130,39.86a29.33,29.33,0,0,1-2.26,4.06c-.33.47-.58.8-.77,1l-.21.27,0,.24a27.32,27.32,0,0,1,.37,3.55,43.23,43.23,0,0,0,.71,5.79,11.45,11.45,0,0,1,.24,4.61c-.38,1.64-1.89,2.78-3.65,4.1a18.18,18.18,0,0,0-3.74,3.41c-2.3,3.1-3.13,3.69-4.09,4.37l-.23.17c-1.86,1.34-11.64-.46-11.74-.48-2.16-.46-8.69-4.59-9.27-5.06-.15.21-.33.48-.55.84A64.15,64.15,0,0,1,90,73.11a41.87,41.87,0,0,0-4.1,5.35A10.23,10.23,0,0,0,85.24,81c-.32,2-.71,4.38-2.69,6.31a39.39,39.39,0,0,0-5,7.32c2.92,2.63,6,5.29,6.45,5.61l.19.08c2.43,1.15,5,2.59,5.29,4.54a67.5,67.5,0,0,0,3.15,7.58l.57,1.24c.36.46,2.14,2,3.71,3.35,3.61,3.1,9,7.73,12.36,12,4.67.93,8.84,1.6,12.2,2.15,6.39,1,10.25,1.65,12.23,3,2.31,1.62,5.49,4.27,6.45,8.61.45,2,.42,6.18.38,10.2a52.68,52.68,0,0,0,.15,6.62c.22.8,1.41,1.38,2.79,2a24,24,0,0,1,2.25,1.19,35.42,35.42,0,0,1,4.2,3l.32.28,1,3.77-1.38.37s-1.27.38-1.32,1.29c-.07,1.34,2.29,7.48,4.49,10.82a23.81,23.81,0,0,0,5.81-.56c1.88-.35,3.13-.59,4,.22s1.09,2.54,1.07,4.12a43,43,0,0,0,3.58,2.6v0c1.16.87,3.56,5.72,4.19,7,1,.11,1.57.84,1.83,2.18a5.85,5.85,0,0,1-.53,4.43,3.94,3.94,0,0,1-2.72,1.58c-1,.17-1.22.35-1.22.36a3.67,3.67,0,0,0-.16.75l0,.19c0,.16,0,.33-.06.5-.13,1.29-.37,3.66-4.08,4.47-.81.38-1.56.78-2.29,1.17-2.46,1.32-4.78,2.56-7.39,1.48s-3.44-1-5-.37c-7,2.78-8.13,2.27-8.6,2.05a7.16,7.16,0,0,1-1.17-.75l-.17-.12-.12.12a8.66,8.66,0,0,0-1.41,1.65,22.34,22.34,0,0,0,1.41,3.21,13.55,13.55,0,0,1,.77,1.67l.24.83c1.11,3.92,1.67,5.56,1.94,6.21l.3,0a3,3,0,0,1,3.09,1.18c.45.74,3.24,4.31,4.9,6.39l.34.43-.3,4.87c1.39-.41,2.43-.7,2.44-.7l.19-.05h1.59l.42.43a84.93,84.93,0,0,0,7.5,7.18c1.54.86,5.58,4.5,5.94,8,.3,2.86,2.89,11.15,4.27,12.44a22.18,22.18,0,0,1,2.62,3.5c1.66,2.49,3.73,5.58,5.78,6.74a5,5,0,0,0,2.18.75c1.6.17,2.18.81,3.14,3.1a19.52,19.52,0,0,0,4.13-.94c2.45-.73,4.76-1.43,6.42-.86l.21.07.18.13c5.49,4.1,8.78,3.45,8.81,3.44Zm14.86,54.14Zm29.67-39.5Zm2.07-25.39v0Zm-2.64-1h0Zm18.44-45.61h0Zm.08-.12h0Zm-129-13.6h0Zm28.29-13.81h0ZM163.67,186ZM93.19,113.77v0Zm169.67-10.58a1.38,1.38,0,0,0-.21.16ZM262,99.45h0Zm0-.11,0,.11A.94.94,0,0,0,262,99.34Zm11-29.36Zm-158.15-.81h0ZM250.25,50.37h0ZM145.76,13v0Z"/></svg>