<svg id="Layer_1" data-name="Layer 1" xmlns="http://www.w3.org/2000/svg" viewBox="0 0 350 350"><defs><style>.cls-1{fill:#999;}.cls-2{fill:#f90;}</style></defs><title>M</title><path class="cls-1" d="M242.93,6.88l.63,5.4a16.41,16.41,0,0,1,.72,5.49s-.36,7.92-.54,11.43a68.94,68.94,0,0,0-.09,9.09s.27,11.61.18,14.4a53.88,53.88,0,0,0,0,6.66s.9,6.66.81,7.56c0,0,0,5-1,5.85a62.4,62.4,0,0,0-5.85,3.78A15.44,15.44,0,0,0,236.63,82s-.81,5.58-1.35,7.29c0,0-.72,3.33-2.61,4.32a4.22,4.22,0,0,0-1.44,3.51,5.67,5.67,0,0,0-1.89,2.7c-.36,1.53,0,2.34.54,4.14l2.16,3.06-4.59,10.71s.18,3.42-3.51,1.71c0,0-3.06-.9-3.42,2.16,0,0-6.12,11.7-7.47,13.68L205.57,151s-3.78,9.86-4.23,12.69a20,20,0,0,0-.72,4.19,7.41,7.41,0,0,0,3.83,6s2.16,2.48,2.43,4.82l.36,4.64a2.89,2.89,0,0,0,2.48,2.7l5.54,1.44a8.81,8.81,0,0,1,3.78,3.11,15.41,15.41,0,0,0,5.31,2.79l10.58,3.33,12,4.73,11.3,2s1.49-.41,2.21,1.76c0,0,2.16,2.88,2.52,3.33l2.66,5.63a11.1,11.1,0,0,1,1.4,2.75s2,4.28,3.56,5.76c0,0,3.38,3.87,3.6,5a12.6,12.6,0,0,1,.59,2.79l-.59,5.58s-.22,6.48,1,7.61l2,.59s2.12-.41,0,.9c0,0-3.15,1.4-2.43,4l.32,3.29s.68,2.12-1.8,2.16l-5,4.14a8.34,8.34,0,0,0-.54,5.36l2,11.88s2.34,12,2.93,12.65c0,0,5.22,13.28,7,14.58l4.14,8.1s.81,5.09.72,5.94.09,8.55.09,8.55.74,5.33-1.69,5l-9.25-2.7-9-2.09-1.76-.54s-.74-1.49-2,1.42l-1.28,5.27s-.07,1.42-2.77,1.69l-.74,4.19s-1.82,3.17-1.55,4.46c0,0-1.15,1.62-2.57,1.22,0,0-1.19.56-1.46-1.85a7.93,7.93,0,0,0-1.13-1.58L249,335s-.18-.95-1.8-1.24a3.89,3.89,0,0,0-4.23.16s-.56,1-2.18.27l-2.12-1.55a11.68,11.68,0,0,0-3.65-1.1s-5.06.09-6.28-.54l-3.08-1.28s-2.3-1.55-6.62-.45a18.79,18.79,0,0,1-4.77,1.17l-5.94-.25s-2.07,0-2.75.65c0,0-1.24,1.78-2.21,2a5.74,5.74,0,0,1-5-.13l-7.27-5.6-5.51-3.85s-3-1.82-5.38-1.24a16.29,16.29,0,0,0-2.63,1.17l-5.47-.13-2.12.09a2.12,2.12,0,0,1-2.09-1.8s-.56-3.38.79-3.83l.79-.16a12.3,12.3,0,0,0,3.65-.83l2.81-.7-.65-3.35-3.17.43s-.41.11-.61-.61a1.49,1.49,0,0,1-1.35-.79,1.24,1.24,0,0,0-1.1-1.51l-1.85-.09s-.88,0-.9-1.4,0-1.58,0-1.58.16-1.64-1.06-.86a16,16,0,0,1-4.23.27c-1.58-.25-6-.5-6-.5a1.48,1.48,0,0,1-1.46-.52,8.14,8.14,0,0,0-1.82-2.43l-1.64-1.55a3.35,3.35,0,0,1-2-1.8,4.12,4.12,0,0,1,1-3.22s2.59-2.16,3.11-3.53A19,19,0,0,0,154,288.9a2.49,2.49,0,0,0-.29-2.12,2.72,2.72,0,0,1,0-1.78,7.49,7.49,0,0,0,1.17-2.5s.79-5.9,2.66-7c0,0,.56-.68-.72-1.49a16.71,16.71,0,0,1-2.79-2.61l-1.67-2.18a3.37,3.37,0,0,1-.41-2.79s.2-1.31.29-1.94c0,0,.2-3.62-1.33-3.85a6.16,6.16,0,0,0-3.71-1.33s-1.51,0-1.87-.81c0,0-.18-1.1-1.89-1.62l-2.09-.47,2-2,2.66-2.34a1.77,1.77,0,0,1,1.8-1.1s2.14-.11,2.59-1.58l.54-3.42a2.34,2.34,0,0,0-.65-1.8s-4-6-5.13-6.57c0,0-2.77-2.84-4.48-3.33a4.71,4.71,0,0,0-2.52-.07s-.59-.14-.7-1.94c0,0-.56-3.11-.81-3.87a11.94,11.94,0,0,0-1.26-3,21.39,21.39,0,0,0-2-2.68,4.38,4.38,0,0,0-5.11-1.06s-3.76,1.55-6,1.51c0,0-5.51.56-7.76-.16a35.65,35.65,0,0,1-7.07-1.62,29.17,29.17,0,0,1-4.93-1.6,4.64,4.64,0,0,0-2.32-.38s-.92,0-.74,1.85c0,0,.18,2.34-2,1.76,0,0-5-3-5.45-4.05a2,2,0,0,0-2.66-1.33s-3.71.5-5,1.37a13.12,13.12,0,0,0-3,2.23,3.06,3.06,0,0,1-2,1.15A7.72,7.72,0,0,0,73,225.53s-3.71,7.29-3.78,8.57a63.73,63.73,0,0,1-3.78-6l-.16-.54a6.51,6.51,0,0,0,1.47-1.77,7.82,7.82,0,0,0,.44-2,21.82,21.82,0,0,0,2.32-2.68A11.44,11.44,0,0,0,71,219.29a20,20,0,0,0,1.82-1.78,21,21,0,0,0,2.81-2.21s3.67-3.89,4-4.91c0,0,.86-2.68,1-3.49a2.34,2.34,0,0,0-1.28-3s-1.08-1-1.1-1.1-1.69-2.39-.43-4.66a15.6,15.6,0,0,0,1.49-3.31s-.2-2.79-.77-3.58c0,0-.86-2.18.45-3.65a33.66,33.66,0,0,0,3.4-3.53,8.29,8.29,0,0,0,1.94-3.85s.32-5.94,2.77-7.47a44.56,44.56,0,0,1,5.29-3.29s5.74-3.33,7.4-5c0,0,5.36-3.47,6.66-3.6,0,0,4.32-2.07,4.77-3.38,0,0,5.76-6.84,6.8-9.18a8.87,8.87,0,0,0,.86-3.92s.14-3.38,1.76-5a44.15,44.15,0,0,1,4.55-5.94,16.23,16.23,0,0,1,3.29-1.85s3.11-1.53,3.83-2.52c0,0,1.13-1.62,0-4.68L129.94,119a4.67,4.67,0,0,1,1.49-4.82l4.73-5.36s2.57-3.69,1.22-7.65c0,0-2.25-8.06-1-11.16,0,0,.27-4.73.54-6.08,0,0,1.2-4.3,2.16-5.17,0,0,2.18-2.62,3.66-3.12,0,0,4.41-2.89,4.76-3.63,0,0,2.08-2.89,2.08-5.42a30.17,30.17,0,0,0,.78-3.36s.07-3.26,1.27-4.73c0,0,1.72-1.18,2.85-1a25.32,25.32,0,0,0,5.79-.12s3-.1,4.34-1.47c0,0,4.84-3.07,5.82-4.41a5.19,5.19,0,0,0,1.79-3.78s.35-3.54.27-4.74c0,0-.07-4.56,2.14-5.69a57.89,57.89,0,0,1,5.87-2S186.22,33.75,187,33c0,0,3.22-1.23,4-3.29,0,0,1.76-2.82,2.08-3.56l3.2-6s.95-1.69,1.26-2.39c0,0,1.67-4.82,3.35-5.87a12.25,12.25,0,0,1,5.74-.92s3.11-.27,4.05-1.58a17.6,17.6,0,0,1,5.45-.23s7.83.23,9.81.5c0,0,2,.13,2.84-.59,0,0,1.31-1.53,2.12-1.4a3.36,3.36,0,0,1,2.39,1.13L238.43,8s1.13.59,1.31-.27c0,0-.81-1.22.41-1.4C240.14,6.29,242.12,6,242.93,6.88Z"/><path class="cls-2" d="M252.52,345.17a3,3,0,0,1-.43,0,2.19,2.19,0,0,1-1.39-.26,3.31,3.31,0,0,1-1.47-2.57,6.46,6.46,0,0,0-.66-1l-.49-.38,0-.6-.4-5a1.59,1.59,0,0,0-.66-.24l-.27,0-.23-.15a2.45,2.45,0,0,0-2.48,0,3,3,0,0,1-3.77.52l-.25-.15-2-1.47a9.6,9.6,0,0,0-2.9-.91c-1.6,0-5.45,0-6.89-.67l-3.29-1.4c-.06,0-1.88-1.15-5.4-.27a18.41,18.41,0,0,1-5.24,1.23l-6-.25a5.56,5.56,0,0,0-1.67.25,6.4,6.4,0,0,1-2.72,2.32,7.18,7.18,0,0,1-6.21-.22l-.2-.13-7.27-5.6-5.46-3.81c-.61-.37-2.7-1.36-4.18-1a15,15,0,0,0-2.32,1l-.34.2-5.86-.15-2,.09a3.49,3.49,0,0,1-3.56-3.07c-.17-1-.57-4.54,1.75-5.32l.17,0,.94-.18a10.93,10.93,0,0,0,3-.62l.19-.12,1.73-.43-.14-.72-1.81.24a1.84,1.84,0,0,1-1.77-.74,2.66,2.66,0,0,1-1.72-1.51l-.21-.52.05-.13-1.53-.07a2.2,2.2,0,0,1-1.44-.62,3,3,0,0,1-.82-2.17c0-.4,0-.71,0-1a15,15,0,0,1-4.08.17c-1.31-.21-4.83-.42-5.7-.47a3,3,0,0,1-2.57-.93l-.19-.18-.11-.24a6.72,6.72,0,0,0-1.46-2l-1.48-1.4a4.56,4.56,0,0,1-2.6-2.55l-.07-.29a5.43,5.43,0,0,1,1.42-4.45,12,12,0,0,0,2.73-3l.12-.25a17.07,17.07,0,0,0,1.72-3.36l0-.19a1.16,1.16,0,0,0,0-.78l-.15-.18-.08-.22a4.15,4.15,0,0,1,0-2.78l.17-.31a6,6,0,0,0,.92-1.86c.18-1.32.82-5.27,2.43-7.24a16.38,16.38,0,0,1-3.06-2.92l-1.61-2.1a4.81,4.81,0,0,1-.66-4c.05-.33.19-1.2.26-1.72a6,6,0,0,0-.3-2.34l-.22,0-.31-.26a4.79,4.79,0,0,0-2.77-1c-.47,0-2.49-.15-3.18-1.62l-.14-.29v0a1.53,1.53,0,0,0-.85-.52l-4.52-1,3.86-3.93,2.42-2.14a3.25,3.25,0,0,1,2.95-1.66c.34,0,1.07-.22,1.23-.52l.51-3.2a1,1,0,0,0-.14-.56l-.14-.13-.14-.19a41.62,41.62,0,0,0-4.62-6.1l-.23-.11-.12-.15a14,14,0,0,0-3.86-3,3.71,3.71,0,0,0-1.54-.14l-.41.16-.5-.06c-.6-.14-1.62-.73-1.79-3.14-.23-1.25-.6-3.15-.75-3.61a10.35,10.35,0,0,0-1-2.53l-.08-.11a22.45,22.45,0,0,0-1.67-2.35l-.17-.17a2.92,2.92,0,0,0-3.43-.7,21.32,21.32,0,0,1-6.52,1.65h0c-.87.08-5.71.52-8.13-.19a36.39,36.39,0,0,1-7.21-1.66A29.46,29.46,0,0,1,102,221a4.32,4.32,0,0,0-1.05-.28,3.23,3.23,0,0,0,0,.33,3.43,3.43,0,0,1-1,2.81,2.87,2.87,0,0,1-2.72.45L97,224.3l-.17-.1c-3.58-2.14-5.6-3.73-6-4.71l-.07-.22c-.1-.32-.39-.42-1-.28l-.14,0a15.27,15.27,0,0,0-4.38,1.14l-.1.06A11.51,11.51,0,0,0,82.68,222a4.46,4.46,0,0,1-3.11,1.76h-.2a6.27,6.27,0,0,0-5.15,2.51,61.86,61.86,0,0,0-3.58,7.94l-.22,4.12-2.36-3.42a61,61,0,0,1-3.92-6.25l-.06-.17L63.66,227l.72-.59a5.21,5.21,0,0,0,1.07-1.24,6.09,6.09,0,0,0,.33-1.43v-.58l.4-.41a28.26,28.26,0,0,0,2-2.24l.07-.22.25-.24a10,10,0,0,0,1.28-1.49l.12-.22.19-.17a17.52,17.52,0,0,0,1.62-1.56l.15-.2.21-.14a19.1,19.1,0,0,0,2.58-2A32.84,32.84,0,0,0,78.3,210c.23-.71.86-2.74,1-3.35l.07-.21a.89.89,0,0,0-.56-1.21l-.21-.1-.17-.16c-1-.92-1.29-1.23-1.42-1.54a5.82,5.82,0,0,1-.38-5.94,15.86,15.86,0,0,0,1.29-2.72,10.35,10.35,0,0,0-.5-2.68l-.15-.29a5.13,5.13,0,0,1,.71-5.11l.1-.1a30.54,30.54,0,0,0,3.19-3.29l.18-.21A7.08,7.08,0,0,0,83,180c.09-1.38.6-6.7,3.43-8.46a44.28,44.28,0,0,1,5.41-3.36,55.78,55.78,0,0,0,7-4.69l.22-.17c2-1.27,5.37-3.37,7-3.77A13.86,13.86,0,0,0,110,157l.09-.25.14-.14c1.57-1.86,5.8-7.08,6.58-8.84l.11-.2h0a8.9,8.9,0,0,0,.63-3.23c0-.36.2-3.82,2.06-5.79a43,43,0,0,1,4.7-6.1l.15-.12a16.56,16.56,0,0,1,3.6-2,13.67,13.67,0,0,0,3.18-2h0a4.31,4.31,0,0,0-.13-3.33l-2.46-5.54a6.08,6.08,0,0,1,1.84-6.26L135,108c.27-.43,2-3.35,1-6.33-.26-.93-2.27-8.36-1.1-11.91.06-1,.3-4.78.55-6.07l0-.1c.38-1.38,1.38-4.63,2.49-5.75a13.6,13.6,0,0,1,4.05-3.43,36.65,36.65,0,0,0,4.18-3.07l.08-.12a9.83,9.83,0,0,0,1.81-4.59v-.2l.05-.19a29,29,0,0,0,.72-3.07c0-.62.19-3.81,1.58-5.52l.13-.16.17-.11a6.24,6.24,0,0,1,3.82-1.24,22.65,22.65,0,0,0,5.27-.08l.3,0a6.12,6.12,0,0,0,3.39-1.06l.24-.19a33.47,33.47,0,0,0,5.44-4l.14-.19.2-.14a4,4,0,0,0,1.18-2.75A43.38,43.38,0,0,0,171,43.1c0-.64,0-5.56,2.91-7.05l.12-.06a55.56,55.56,0,0,1,6.09-2.11,36.86,36.86,0,0,0,5.93-2l.2-.19.21-.06c.85-.33,2.75-1.37,3.14-2.45l.13-.27c.71-1.13,1.79-2.93,2-3.37l0-.1,3.2-6c.26-.47.94-1.7,1.2-2.25.36-1,2-5.31,3.92-6.55l.19-.1a13.86,13.86,0,0,1,6.33-1.05,5.55,5.55,0,0,0,2.88-1l.31-.43.52-.12a18.93,18.93,0,0,1,5.87-.26c.81,0,7.81.23,9.84.5A4.41,4.41,0,0,0,227.78,8c.68-.77,1.91-1.89,3.18-1.77a4.75,4.75,0,0,1,2.75,1l4.37-.68a2,2,0,0,1,.15-.49,2.09,2.09,0,0,1,1.71-1.2c.47-.06,2.78-.3,4,1l.33.34L245,12a17.76,17.76,0,0,1,.74,5.88s-.36,7.91-.54,11.42a64.66,64.66,0,0,0-.1,8.81v.17c0,.48.27,11.69.18,14.48a49,49,0,0,0,0,6.3l0,.13c.27,2,.87,6.62.82,7.79,0,2.54-.26,5.78-1.45,6.86l-.24.18c-1.13.66-4.14,2.45-5.38,3.42A13.35,13.35,0,0,0,238,82v.13l0,.13c-.08.58-.83,5.63-1.38,7.45-.14.62-1,3.85-3.17,5.13a2.81,2.81,0,0,0-.84,2.23l.06.77-.61.47a4.17,4.17,0,0,0-1.37,1.9A4.52,4.52,0,0,0,231,103l.12.38,2.49,3.52-4.79,11.19a3.57,3.57,0,0,1-1.41,2.8c-1,.69-2.36.67-4,0a1.75,1.75,0,0,0-1.16.11,1.19,1.19,0,0,0-.38.88l0,.26-.12.23c-.25.47-6,11.47-7.49,13.73l-7.4,15.52c-1.05,2.75-3.79,10.16-4.14,12.36l0,.14a19.24,19.24,0,0,0-.69,3.63v.17a6,6,0,0,0,3.1,4.77l.21.12.16.19a12.09,12.09,0,0,1,2.77,5.59l.37,4.69a1.43,1.43,0,0,0,1.27,1.41l.14,0,5.71,1.5a10.38,10.38,0,0,1,4.32,3.46,13.64,13.64,0,0,0,4.57,2.38l.1,0,10.67,3.36,11.84,4.67,10.92,2a3.36,3.36,0,0,1,3.45,2.51c.47.62,2.06,2.74,2.36,3.12l.17.28,2.61,5.53a12.06,12.06,0,0,1,1.5,3,24.94,24.94,0,0,0,3.2,5.23l.08.09c1.31,1.51,3.53,4.19,3.89,5.58a14,14,0,0,1,.64,3.09v.12l-.6,5.7a22.82,22.82,0,0,0,.48,6.24l1.22.35c1.39-.17,1.95.43,2.16,1,.51,1.32-.85,2.16-1.51,2.57l-.17.09s-2,.94-1.64,2.28l0,.25.3,3.17a3.23,3.23,0,0,1-.43,2.58,3.05,3.05,0,0,1-2.22,1.21l-4.36,3.65a7.14,7.14,0,0,0-.31,4.17l2,11.95c1,5.15,2.26,11,2.69,12.06l.06.06.1.25c2.38,6.05,5.55,13.12,6.52,14l.27.2.13.28,4.24,8.3,0,.22a46.44,46.44,0,0,1,.73,6.31c0,.52,0,4.61.1,8.29.14,1.09.42,4.31-1,5.78a2.59,2.59,0,0,1-2.25.73l-.2,0-9.25-2.7-8.9-2.07-1.81-.55c-.07.13-.15.29-.24.5l-1.23,5.07c-.12.86-.87,2.15-2.94,2.67l-.61,3.45-.12.21A10.33,10.33,0,0,0,256,342.2l.13.61-.36.48A4.32,4.32,0,0,1,252.52,345.17Zm-.42-2.95.35.1c.21.06.51-.15.75-.37a12.47,12.47,0,0,1,1.63-4.42l.89-5,1.07-.11a2.35,2.35,0,0,0,1.5-.51l1.38-5.59c.47-1.12,1.26-2.62,2.67-2.67a2,2,0,0,1,1.43.57l1.34.41,8.88,2.07,9,2.64a7.88,7.88,0,0,0,.16-3.36v-.16c0-1.83-.17-7.86-.08-8.73,0-.49-.32-3.11-.68-5.35L278.5,304c-2-2.1-5.57-10.93-7.12-14.85-.38-.79-1.14-3.29-3-13l-2-11.92A9.72,9.72,0,0,1,267,258l.13-.24,5.54-4.64h.5a1.19,1.19,0,0,0,.53-.09h0s0-.15-.06-.25l-.05-.27-.3-3.17a4.33,4.33,0,0,1,1.47-4.32l-.39-.11-.25-.23c-1.47-1.36-1.54-6-1.44-8.7l.58-5.55a11.5,11.5,0,0,0-.5-2.31l-.05-.19a26.41,26.41,0,0,0-3.24-4.34c-1.66-1.65-3.59-5.67-3.8-6.13l-.1-.31A9.56,9.56,0,0,0,264.4,215l-.11-.19-2.59-5.48c-.56-.72-2.36-3.12-2.44-3.23l-.14-.18-.07-.22a1.74,1.74,0,0,0-.49-.84h0l-.31.08-11.88-2.16L234.44,198,224,194.73a16.83,16.83,0,0,1-5.84-3.07l-.18-.15-.12-.2a7.34,7.34,0,0,0-3-2.51l-5.37-1.4a4.27,4.27,0,0,1-3.6-4l-.36-4.58a9.15,9.15,0,0,0-1.94-3.82,8.82,8.82,0,0,1-4.31-7,18.33,18.33,0,0,1,.75-4.59c.52-3,4.14-12.5,4.3-12.9l0-.1,7.58-15.85c1-1.54,5.5-9.94,7.27-13.33a3.76,3.76,0,0,1,1.6-2.64,4.63,4.63,0,0,1,3.59-.44l.2.07c1,.46,1.33.33,1.33.33a1.3,1.3,0,0,0,.17-.68l0-.33,4.41-10.29-1.84-2.6-.25-.81a7.15,7.15,0,0,1-.38-4.29,6.49,6.49,0,0,1,1.85-3,5.63,5.63,0,0,1,2-4l.21-.14c1-.52,1.69-2.49,1.88-3.37l0-.13c.4-1.28,1-5.34,1.28-6.95a17,17,0,0,1,1.29-6l.13-.3.25-.22a56.16,56.16,0,0,1,5.81-3.79,17.11,17.11,0,0,0,.54-4.77v-.14c0-.57-.38-4.09-.8-7.18a48.88,48.88,0,0,1,0-7c.08-2.57-.16-13.17-.18-14.22a70.23,70.23,0,0,1,.09-9.3c.18-3.49.54-11.4.54-11.4a15.15,15.15,0,0,0-.65-5l-.06-.28-.55-4.7a3.14,3.14,0,0,0-.43-.06l-.05.3A1.94,1.94,0,0,1,240,9.37a2.43,2.43,0,0,1-1.79,0l-5.54.87-.51-.56a2,2,0,0,0-1.33-.67h0a4.7,4.7,0,0,0-1,.9l-.14.14c-1.16,1-3.26,1-3.87.94-1.6-.22-7.08-.42-9.76-.49h-.13a16.42,16.42,0,0,0-4.54.12c-1.44,1.34-4.09,1.63-4.65,1.68h-.17l-.17,0a10.48,10.48,0,0,0-4.85.77c-.76.58-2,3.05-2.69,5.09l0,.12c-.33.73-1.21,2.32-1.32,2.49l-3.16,6c-.37.8-1.67,2.92-2.08,3.58-.92,2.27-3.76,3.58-4.56,3.91-1.19.78-4.33,1.71-6.87,2.38l-.14,0a52.17,52.17,0,0,0-5.49,1.93c-.93.55-1.34,2.92-1.33,4.38a46,46,0,0,1-.28,4.9,6.75,6.75,0,0,1-2.19,4.65c-1.21,1.44-4.93,3.87-6,4.52-1.6,1.46-4.29,1.71-5,1.75a26.41,26.41,0,0,1-6.11.12h-.11a4,4,0,0,0-1.63.65,8.91,8.91,0,0,0-.84,3.71v.13a28.16,28.16,0,0,1-.77,3.41,12.61,12.61,0,0,1-2.28,6c-.23.39-1,1.34-5.19,4.07l-.32.16a11.16,11.16,0,0,0-3,2.69l-.14.15a17.86,17.86,0,0,0-1.72,4.44c-.2,1.09-.43,4.56-.51,5.83v.23l-.08.21c-.76,1.94.26,7.32,1.08,10.27,1.54,4.51-1.3,8.67-1.42,8.84l-.1.13-4.88,5.51a3.2,3.2,0,0,0-1.06,3.24l2.43,5.46c1.28,3.64-.06,5.74-.22,6-.88,1.21-3.56,2.59-4.36,3l-.35.12a15,15,0,0,0-2.67,1.56,42.45,42.45,0,0,0-4.25,5.61l-.19.23c-1,1-1.31,3.32-1.34,4.05a10.83,10.83,0,0,1-1,4.51c-1.1,2.39-5.87,8.13-6.85,9.3-.81,1.53-3.66,3.07-5.36,3.88l-.22.11-.24,0a37.31,37.31,0,0,0-5.93,3.31,60.93,60.93,0,0,1-7.57,5.06l-.18.09a40.55,40.55,0,0,0-5,3.13c-1.32.82-2.06,4.29-2.17,6.39l0,.25A9.87,9.87,0,0,1,83.53,185a33.94,33.94,0,0,1-3.47,3.61,2.4,2.4,0,0,0-.18,2.05,11.91,11.91,0,0,1,.89,4.08v.17l0,.17a15.63,15.63,0,0,1-1.66,3.78,3.16,3.16,0,0,0,.37,3.13v0l.75.73a3.71,3.71,0,0,1,1.82,4.6c-.22.93-1,3.24-1,3.51-.31,1.07-2.5,3.56-4.28,5.45a21.12,21.12,0,0,1-2.88,2.29,20.84,20.84,0,0,1-1.69,1.64A12.6,12.6,0,0,1,70.67,222a16.82,16.82,0,0,1-2.1,2.45,10.37,10.37,0,0,1-.47,1.84l-.07.16a6.68,6.68,0,0,1-1.09,1.51c.4.76,1.16,2,1.89,3.06.85-2,2.06-4.42,2.92-6.1l.12-.19a9.13,9.13,0,0,1,7.61-3.76,1.75,1.75,0,0,0,.91-.58,12.74,12.74,0,0,1,3.36-2.58c1.47-1,4.69-1.45,5.49-1.56a3.41,3.41,0,0,1,4.21,2.14,29.49,29.49,0,0,0,4.68,3.31h0a1.46,1.46,0,0,0,0-.32,3.36,3.36,0,0,1,.68-2.7,2.06,2.06,0,0,1,1.25-.65,5.93,5.93,0,0,1,3.11.48,28,28,0,0,0,4.68,1.52l.25.08a33.11,33.11,0,0,0,6.68,1.51l.25.06c1.44.46,5.17.3,7.19.1h.17a17.81,17.81,0,0,0,5.44-1.4,5.73,5.73,0,0,1,6.66,1.37,17.64,17.64,0,0,1,2.11,2.86,12.77,12.77,0,0,1,1.46,3.4c.25.77.74,3.47.84,4l0,.16c0,.17,0,.32,0,.44a7.27,7.27,0,0,1,2.15.29c1.86.54,4.29,2.88,5,3.59,1.3.92,3.55,4.09,5.31,6.75a3.82,3.82,0,0,1,1,2.84v.11l-.59,3.62c-.58,1.9-2.71,2.51-3.87,2.57-.31,0-.49.07-.54.17l-.06.54-.33,0-2.83,2.53a3.92,3.92,0,0,1,2.47,2.16,2.51,2.51,0,0,0,.67.13,7.37,7.37,0,0,1,4.29,1.44c2.18.71,2.17,4.14,2.11,5.23v.12c-.09.64-.3,2-.3,2l-.08.3a2,2,0,0,0,.27,1.49l1.61,2.11a14.13,14.13,0,0,0,2.48,2.31,2.87,2.87,0,0,1,1.42,1.93,2.06,2.06,0,0,1-.42,1.63l-.15.18-.21.12c-.67.41-1.62,3.26-2,6a8,8,0,0,1-1.29,2.94,1.38,1.38,0,0,0,0,.53,3.94,3.94,0,0,1,.37,3.06,18,18,0,0,1-2,4.19c-.7,1.61-3,3.59-3.46,4a2.58,2.58,0,0,0-.48,1.78,2.1,2.1,0,0,0,1.06.8l.3.1,1.89,1.78a9.2,9.2,0,0,1,2,2.56h0l.09,0,.29,0c.19,0,4.55.25,6.17.51a13.71,13.71,0,0,0,3.52-.22,2,2,0,0,1,2,0,2.48,2.48,0,0,1,1,2.36c0,.06,0,.37,0,1.42v0l1.6.09a2.74,2.74,0,0,1,1.86,1.18,2.59,2.59,0,0,1,.39,1.08l1,0,.15.54,3.7-.5,1.17,6-3.94,1a13.17,13.17,0,0,1-4,.91l-.37.08a6.25,6.25,0,0,0,0,2.27.67.67,0,0,0,.71.61l2-.09,5.18.13a18,18,0,0,1,2.54-1.09l.1,0c2.88-.71,6.1,1.19,6.45,1.4l5.59,3.9,7.22,5.57a4.34,4.34,0,0,0,3.62.08l.33-.12a5.65,5.65,0,0,0,1.36-1.43l.18-.21c1-.95,2.94-1.05,3.73-1.05l6,.25a16,16,0,0,0,4.22-1.08l.15,0c4.35-1.11,7,.16,7.62.56l3.09,1.29a23.25,23.25,0,0,0,5.6.38,12.24,12.24,0,0,1,4.28,1.24l.23.14,2,1.46a1.23,1.23,0,0,0,.34.09l0-.08.25-.18a5.21,5.21,0,0,1,5.59-.36,3.2,3.2,0,0,1,2.68,2.32l0,.15.39,4.79a11,11,0,0,1,1,1.49l.14.25,0,.29A3.92,3.92,0,0,0,252.11,342.22Zm-10.33-9h0Zm16.53-1.32h0ZM144,258.83h0Zm98.59-187ZM230.63,9h0Z"/></svg>