<svg id="Layer_1" data-name="Layer 1" xmlns="http://www.w3.org/2000/svg" viewBox="0 0 350 350"><defs><style>.cls-1{fill:#999;}.cls-2{fill:#f90;}</style></defs><title>M</title><path class="cls-1" d="M62.34,296.28s7.06-16.65,9.47-19.71S80,272.22,80,272.22l-1.61-3.06,3.23-2.74s.16-5.48.16-10.16a31.65,31.65,0,0,1,6.29-17.58c4.19-5.32,3.55-15.48,3.55-17.9s-4-1.13-7.42-1.61-2.58-4.84-3.23-9,2.74-6.61,4.19-7.9,6-1.77,7.1-2.74-1.77-6-1.77-6,3.71-1.13,6.13-6,11.93-10.48,11.93-10.48,14.19-8.87,18.71-13.38,5.16-21.77,5.64-23.87-9.35-5.32-10.16-5.48-5.32-3.87-6.13-6.13,2.1-3.55,4.52-3.71,14,4.84,14,4.84,12.74-5.64,14.19-8.87,2.1-8.87,2.1-12.74,4.68-11.61,4.68-11.61,1.61-10,.16-11.29-5.64-10.64-5.64-10.64-6.45-8.87-10-13.55-3.71-7.58-2.42-9.35,21.93-2.74,21.93-2.74C164.54,56.46,170,56,170,56c13.87-4.68,12.42-3.55,16.29-2.1s10.16,14.51,10.16,14.51l8.71.65.48-6.29L209,56.94V51.14L193.56,43.4l-1.45-6.29V24L195,12.92s-.48,1.94,1.09,1.21a14,14,0,0,0,3.51-3l1.57-1.81H207l1.45,1.94L211,8s2.66-.36,3,0,1.45-.16,1.45-.16,3,2.1,3.39,2.46,1.69.48,4.47.24,2.3-.12,6.17.6,4.23,1.57,6.65,1.57,5.2-.24,6-.24,1.33-.36,3,1.09,4.47,2.54,5.32,4.47,2.06,3.14,2.54,4.72,1.33,3.87,2.18,6.65a45.11,45.11,0,0,0,3.39,8.71,4.72,4.72,0,0,0,3.14,2.18s1.94,4.11,2.66,5.68,2.54,5,3,6.41,1.69,3.27,1.33,4.11,2.3-1.69-5,0l-5,.24-3.63,2.42L247.14,65,240,81.37l-9.68,37,6.53,5.93.24,1,5.93,1.81s5.56-.48,6-.48h4.23a30.32,30.32,0,0,1,2.78-2.54,5.46,5.46,0,0,1,1.57.12s-1.45,4.47-1.45,4.84-1.69,8.34-1.69,8.34v3.14l2.9,2.42,8-1.45s9.43.73,11.49.6a8.2,8.2,0,0,1,5,1.21c1.45.85,5.81,2.66,5.81,2.66L284.15,152,269,163.25l-1.57,4.47,4.6,2.54,3.27,4.84s-4.47,1.57-9.55-2.42-11.13-8.95-11.13-8.95-3.27,4.47-3.87,5.68S238,186.35,237.47,187.8s-6,11.61-6.77,12.7-6.53,3.75-8,5.56-4.35,8.47-6.41,8.95-3.87.85-3.87,1.33S211,221.42,209,223s-8.95,10.16-12.58,12.34a86.66,86.66,0,0,1-10.28,5c-3,1.33-8.83,4.72-9.43,5.08s3.39,3.75,6.41,5.08,5,1.94,3,4.23-2.9,2.18-6,2.3-4.11-2.18-7.14.48S164.05,266,163.69,271s-1.45,9.19-.12,11.61a44.3,44.3,0,0,0,5.2,6.77c1.09,1.21,0,4,0,4s.6-.6,8.47,3.63,10.88,6.53,13.42,8.95,7.86,3.75,3.75,8.47-8,12-10,12a10.33,10.33,0,0,1-7.14-3.51c-1.69-2.18-4.84-6-6-7.26s-3.14-3.87-3.51-3.87-2.66-3.39-3.39,1.81,1.09,9.31,1.69,12.22,1.09,6,.85,7.62,1.89,6.69-1.65,8.14-3.87,0-6.29,0-6.61.16-9.68,0-4.51,1.77-6.77-.64-1.61-4.84-7.74-5.32S127.13,339,122.77,337s-5-1.13-7.9-4.35-6.45-6.61-8.39-9.68-2.74-4.35-6.93-7.26-10.16-7.1-12.42-7.9-6.77-1.94-9.51-3.55-9.51-5-11.77-6A14.41,14.41,0,0,1,62.34,296.28Z"/><path class="cls-2" d="M162.53,343.62a6.85,6.85,0,0,1-2.05-.36,5,5,0,0,0-1.59-.29l-2.58,0c-2.22,0-5,.08-7.17,0a8.06,8.06,0,0,0-2.35.29c-1.5.35-3.36.78-5.38-1.39a12.47,12.47,0,0,1-1.55-2.13c-.93-1.53-1.5-2.45-5.27-2.75a11.34,11.34,0,0,0-5.71,1.06c-1.89.76-3.84,1.54-6.69.27a31.91,31.91,0,0,0-3.06-1.17,10.08,10.08,0,0,1-5.32-3.53c-.79-.88-1.63-1.77-2.46-2.66a53,53,0,0,1-6.07-7.21,18.08,18.08,0,0,0-6.54-6.85l-.89-.62c-3.69-2.56-9.27-6.43-11.2-7.11-.59-.21-1.34-.45-2.18-.71a38.59,38.59,0,0,1-7.58-3c-2.58-1.52-9.33-4.91-11.61-5.89a15.82,15.82,0,0,1-3.88-2.29l-.78-.68.4-.95c.73-1.72,7.2-16.92,9.67-20,1.83-2.31,5.2-3.7,7.27-4.36l-1.33-2.52,3.61-3.07c0-1.57.14-5.81.14-9.49A33.27,33.27,0,0,1,87,237.8c3.48-4.42,3.32-12.92,3.26-16.11,0-.36,0-.66,0-.9a10.52,10.52,0,0,0-2.59-.11,21.43,21.43,0,0,1-3.61-.11c-3.69-.53-3.93-4.1-4.14-7.26-.07-1-.13-2-.28-3-.71-4.59,2.5-7.33,4.23-8.81l.42-.37a12.16,12.16,0,0,1,4.56-1.89,19.88,19.88,0,0,0,2.31-.73,15.87,15.87,0,0,0-1.83-4.32l-.9-1.55,1.71-.52c.12,0,3.18-1.07,5.27-5.24,2.58-5.15,12.08-10.83,12.48-11.07.11-.07,14.08-8.82,18.43-13.17,3.22-3.22,4.39-15,4.88-20,.15-1.5.24-2.37.33-2.9-1-1.27-7.38-3.69-9-4.05-1.38-.28-6.22-4.36-7.18-7a3.39,3.39,0,0,1,.34-3.06c1.1-1.68,3.52-2.41,5.42-2.54,2.42-.17,10.79,3.29,14.11,4.7,5.75-2.6,12.18-6.27,12.91-7.9,1.35-3,2-8.41,2-12.16s3.83-10.58,4.74-12.1c.7-4.47.92-8.87.49-9.82-1.56-1.54-4.79-8.54-5.85-10.91-.78-1.07-6.62-9.08-9.89-13.4-3.55-4.67-4.37-8.39-2.44-11,1.69-2.32,17.74-3.08,23-3.32l.88,0,.43.77c3.47,6.29,7.52,6.68,8.34,6.69,11.84-4,12.88-3.85,15.75-2.56.37.17.78.35,1.29.54C190.65,54,195.73,63.69,197.38,67l6.49.48.4-5.2,3.36-5.76V52l-15.29-7.65-1.64-7.26,0-13.42,2.9-11.13,2.55.65A1,1,0,0,0,196,13a.84.84,0,0,0-.6-.16l.1,0a12.43,12.43,0,0,0,3-2.65l2-2.32h7.16l.76,1,1.76-2.26.57-.08c2.31-.31,3.28-.16,3.77.07l.28-.11.74-.36.68.47c1.29.89,2.86,2,3.43,2.49a12.85,12.85,0,0,0,3.5,0,11.54,11.54,0,0,1,4.61.24l1.94.38a24,24,0,0,1,3.87,1,6.46,6.46,0,0,0,2.52.51c1.48,0,3.13-.09,4.34-.16.77,0,1.38-.08,1.71-.08l.3,0c1-.08,1.94,0,3.65,1.45a17.27,17.27,0,0,0,1.81,1.28c1.48,1,3.15,2,3.88,3.71a15.58,15.58,0,0,0,1.2,2.14,11.34,11.34,0,0,1,1.4,2.73c.2.64.46,1.41.75,2.28.43,1.28.92,2.73,1.43,4.38a41.83,41.83,0,0,0,3.23,8.37A3.32,3.32,0,0,0,262,38.85l.74.12.34.69s1.94,4.12,2.67,5.69c.24.51.59,1.22,1,2a45.87,45.87,0,0,1,2.1,4.56,14.87,14.87,0,0,0,.58,1.37,9.34,9.34,0,0,1,.86,2.36,1.76,1.76,0,0,1-.47,2.06l-.86.72-1-.64a1.47,1.47,0,0,1-.42-.48,19,19,0,0,0-3.35.55l-.25,0-4.57.22L256,60.3,248.29,66l-6.94,15.88-9.43,36.07,6.21,5.64.15.61,4.9,1.5c1.56-.13,5.42-.46,5.9-.46h3.65c2.28-2.25,2.63-2.37,2.92-2.47a4.32,4.32,0,0,1,2.3.08l1.56.31-.49,1.51c-.61,1.88-1.31,4.14-1.39,4.56s-.3,1.81-1.68,8.33v2.33l1.88,1.57,7.51-1.37h.18c2.6.2,9.68.7,11.3.6a9.53,9.53,0,0,1,5.75,1.4c1.12.65,4.45,2.08,5.64,2.58l1.49.62L285.23,153l-15,11.12-1,2.93,3.85,2.13,4.48,6.64-1.73.61c-.21.07-5.27,1.78-10.9-2.64-3.71-2.91-8-6.37-10-8-1.17,1.64-2.55,3.63-2.87,4.27s-1.65,2.41-5.21,7.15c-3,4-7.61,10.15-8,11.1-.54,1.64-6.26,12-6.92,13-.49.73-1.6,1.41-3.7,2.66a22.26,22.26,0,0,0-4.35,3,27.49,27.49,0,0,0-1.69,2.77c-2.13,3.75-3.66,6.24-5.5,6.67l-.65.15c-.76.18-1.75.41-2.27.58-.44,1.71-1.84,5.4-3.77,7-.6.49-2,2-3.44,3.57-3,3.28-6.79,7.37-9.3,8.88a73.48,73.48,0,0,1-8.93,4.38l-1.51.66c-2.19,1-6,3.08-8,4.25a21.25,21.25,0,0,0,5,3.32l.61.27c2,.88,3.61,1.57,4,3.12a3.68,3.68,0,0,1-1,3.06c-2.21,2.63-3.74,2.68-6.5,2.78l-.58,0a9.09,9.09,0,0,1-3.2-.52c-1.24-.39-1.71-.53-3.05.65-4.09,3.6-8.56,8.79-8.84,12.58-.1,1.36-.25,2.64-.39,3.88-.35,3-.65,5.57.1,6.94a37.93,37.93,0,0,0,5,6.51,4.49,4.49,0,0,1,.72,3.84,52.24,52.24,0,0,1,7.36,3.48c7.89,4.25,11,6.58,13.73,9.17a15.26,15.26,0,0,0,1.89,1.42c1.64,1.11,3.5,2.38,3.77,4.47.18,1.43-.41,2.91-1.83,4.53s-3,3.82-4.42,5.84c-3.08,4.35-4.77,6.62-6.69,6.62a11.66,11.66,0,0,1-8.25-4.05c-1.71-2.2-4.8-6-5.93-7.12-.57-.57-1.23-1.36-1.87-2.13-.42-.51-1-1.19-1.25-1.45a2.88,2.88,0,0,1-.71-.51l-.31-.27a6.82,6.82,0,0,0-.34,1.49,22.28,22.28,0,0,0,1.08,9.4c.23.82.45,1.6.6,2.33.8,3.87,1.09,6.6.86,8.12a9,9,0,0,0,.16,1.42c.34,2.21,1,6.33-2.67,7.82A8.38,8.38,0,0,1,162.53,343.62Zm-3.64-3.48a7.73,7.73,0,0,1,2.4.41c.91.27,1.5.45,3.35-.3,1.33-.55,1.37-2,.95-4.76a7.94,7.94,0,0,1-.16-2.28,26.47,26.47,0,0,0-.83-7.11c-.13-.63-.34-1.37-.55-2.15a25,25,0,0,1-1.15-10.55c.2-1.44.64-3.41,2.17-4s2.6.51,3.17,1l.05,0c.58.25,1.13.91,2.22,2.23.57.69,1.22,1.47,1.69,1.94,1.28,1.28,4.43,5.17,6.16,7.39a9,9,0,0,0,5.95,3c.85-.34,2.92-3.27,4.45-5.42,1.4-2,3-4.21,4.59-6.06a3.47,3.47,0,0,0,1.15-2.3c-.11-.83-1.35-1.67-2.55-2.49a17.41,17.41,0,0,1-2.26-1.72c-2.55-2.43-5.51-4.63-13.12-8.73a43.08,43.08,0,0,0-7.26-3.4L165,299.18l2.47-6.31a3.86,3.86,0,0,0,.27-2.53,42.34,42.34,0,0,1-5.39-7c-1.19-2.17-.84-5.17-.43-8.64.14-1.21.29-2.46.38-3.76.42-5.68,7-12,9.79-14.51,2.54-2.24,4.26-1.7,5.77-1.23a6.13,6.13,0,0,0,2.25.39l.59,0c2.56-.09,3-.11,4.43-1.77a2.84,2.84,0,0,0,.41-.59,12.21,12.21,0,0,0-2.3-1.16l-.62-.27c-2.18-1-7.2-4.28-7.31-6.16a1.55,1.55,0,0,1,.75-1.43c.06,0,6.27-3.7,9.59-5.16l1.53-.66a71.13,71.13,0,0,0,8.59-4.21c2.17-1.3,5.93-5.39,8.68-8.37a50.78,50.78,0,0,1,3.74-3.85c1.37-1.11,2.71-4.8,2.87-5.64.06-1.48,1.68-1.86,4.32-2.47l.64-.15c.85-.31,2.77-3.69,3.69-5.31a27.34,27.34,0,0,1,1.94-3.14c1-1.19,3.07-2.45,5.12-3.67a21.4,21.4,0,0,0,2.82-1.83c.69-1,6.16-11.05,6.58-12.32.3-.91,2.48-3.89,8.44-11.85,2.18-2.91,4.66-6.22,4.95-6.73.63-1.26,3.64-5.4,4-5.87l.88-1.21,1.16,1c.06,0,6.1,5,11.1,8.93a10.39,10.39,0,0,0,6.22,2.43l-1.79-2.66-5.35-3,2.11-6,15.23-11.29,2.56-4.45c-1.43-.62-3.53-1.55-4.49-2.11a6.68,6.68,0,0,0-4.16-1c-2,.11-9.92-.47-11.5-.59L257,144.44l-3.92-3.27,0-4.1c.75-3.55,1.58-7.56,1.66-8.14a14.21,14.21,0,0,1,.64-2.43l-1.13,1.1-.42.42h-4.82c-.35,0-3.31.25-5.92.48l-.27,0-7-2.13-.33-1.33-6.85-6.21,10-38L246,64.13,254.41,58l4-2.67,5.22-.25a24.45,24.45,0,0,1,3.19-.56l0,0a16.84,16.84,0,0,1-.69-1.66c-.29-.87-1.21-2.71-1.95-4.19-.4-.8-.77-1.54-1-2.08-.55-1.2-1.8-3.86-2.37-5.07a6.33,6.33,0,0,1-3.35-2.64,42.67,42.67,0,0,1-3.54-9c-.49-1.6-1-3-1.4-4.29-.31-.9-.57-1.69-.78-2.35a9,9,0,0,0-1.08-2,18.31,18.31,0,0,1-1.4-2.52c-.39-.89-1.63-1.69-2.82-2.46a19.55,19.55,0,0,1-2.12-1.51c-1-.82-1.19-.8-1.58-.77l-.52,0c-.3,0-.85,0-1.55.07-1.24.07-2.94.17-4.5.17a9.22,9.22,0,0,1-3.45-.66,21.22,21.22,0,0,0-3.46-.93l-2-.39a9,9,0,0,0-3.8-.2c-3.81.33-4.94,0-5.6-.65-.2-.18-1.41-1-2.59-1.88a2.43,2.43,0,0,1-1.92-.16,11.13,11.13,0,0,0-1.59.08l-3.32,4.26-2.14-2.85h-4.45L200.68,12a14.83,14.83,0,0,1-4,3.38,3.07,3.07,0,0,1-.94.28l-2.23,8.54V36.94l1.26,5.48,15.67,7.83v7.06L207,63.18l-.57,7.37-10.93-.81-.36-.74c-2.51-5.21-7.08-12.94-9.38-13.8-.58-.22-1-.42-1.46-.61-2-.88-2.48-1.12-13.88,2.72l-.33.07c-.25,0-6.08.44-10.76-7.37-8.68.44-18.47,1.39-20.07,2.24-1.22,1.91.66,5.15,2.48,7.54,3.52,4.63,10,13.48,10,13.57l.15.25c2,4.35,4.53,9.47,5.29,10.16,1.35,1.2,1.45,5.43.3,12.57l0,.27-.14.24c-1.24,2.06-4.47,8-4.47,10.88,0,4.17-.69,9.91-2.22,13.32s-12.7,8.6-14.91,9.58l-.57.25-.57-.24c-5.44-2.34-12.05-4.79-13.37-4.73a4.69,4.69,0,0,0-3.24,1.27.55.55,0,0,0,0,.55c.6,1.69,4.39,4.9,5.21,5.25,1.14.33,9.09,2.77,10.77,5.37a2.27,2.27,0,0,1,.36,1.78c-.08.35-.2,1.55-.32,2.82-.62,6.22-1.76,17.79-5.7,21.73-4.58,4.58-18.37,13.22-19,13.58-2.58,1.53-9.59,6.26-11.42,9.91a13.93,13.93,0,0,1-5.43,6c1.67,3.24,1.92,5.39.73,6.41A10.18,10.18,0,0,1,89.58,202a12,12,0,0,0-3.43,1.28l-.46.4c-1.49,1.27-3.74,3.2-3.27,6.23.17,1.1.24,2.16.31,3.2.23,3.44.49,4.47,1.71,4.64a19,19,0,0,0,3.14.08c1.95-.05,3.64-.1,4.71.94a2.69,2.69,0,0,1,.79,2c0,.22,0,.51,0,.85.07,3.47.25,12.71-3.86,17.92a30.12,30.12,0,0,0-6,16.7c0,4.64-.16,10.15-.16,10.2l0,.63-2.84,2.41,1.95,3.7-1.81.41c-1.48.33-5.7,1.67-7.42,3.85s-6.62,13.17-8.84,18.35A15.28,15.28,0,0,0,66.41,297c2.4,1,9.22,4.45,11.93,6a36.74,36.74,0,0,0,7,2.69c.88.27,1.67.52,2.29.74,2.11.75,6.43,3.69,11.86,7.45l.89.62c4.42,3.06,5.32,4.49,7.31,7.64a51.13,51.13,0,0,0,5.75,6.81c.85.91,1.71,1.81,2.51,2.7a7.4,7.4,0,0,0,4.12,2.74,34.84,34.84,0,0,1,3.31,1.27c1.75.78,2.78.37,4.48-.32a14.1,14.1,0,0,1,7-1.25c4.84.38,6.14,1.94,7.46,4.09a9.73,9.73,0,0,0,1.2,1.68c.9,1,1.32.88,2.67.56a10.82,10.82,0,0,1,3.14-.36c2.09.11,4.8.07,7,0ZM184.27,325Zm-16.59-11.81h0Zm46.17-96.84a1.6,1.6,0,0,1,0,.27A1.16,1.16,0,0,0,213.85,216.34ZM123.05,133l.14,0ZM219.83,9.24h0Z"/></svg>