<svg id="Layer_1" data-name="Layer 1" xmlns="http://www.w3.org/2000/svg" viewBox="0 0 350 350"><defs><style>.cls-1{fill:#999;}.cls-2{fill:#f90;}</style></defs><title>M</title><polygon class="cls-1" points="45.29 129.42 38.36 152.26 46.1 155.01 42.93 163.06 46.1 169.15 44.39 174.27 53.9 178.41 50.73 184.99 53.9 187.67 48.29 187.67 48.54 192.3 47.56 194.25 50.24 195.42 53.9 202.29 50.97 209.12 50 213.99 46.34 220.81 43.17 224.71 48.78 227.39 53.9 232.76 40.49 240.31 30.01 248.6 30.26 269.31 29.77 272.72 33.43 283.2 39.76 290.51 45.61 293.93 47.32 297.1 48.54 303.68 53.9 309.52 50.97 316.1 55.36 321.71 63.16 323.42 68.03 323.42 71.44 327.56 74.37 329.26 77.18 335.43 109.71 339.5 113.12 322.68 134.81 330.97 132.62 333.16 138.22 335.11 139.68 332.19 154.79 332.92 156.01 334.87 166.25 334.38 170.75 335.6 177.21 336.21 181.84 338.16 187.45 337.92 192.44 336.45 197.32 334.63 206.09 334.63 208.65 332.68 222.66 332.43 229.49 330 229.49 327.56 222.91 323.66 216.69 323.42 213.65 324.39 209.99 323.17 208.04 321.71 207.43 319.39 201.34 317.69 196.47 315.13 193.06 315.98 189.76 318.3 186.47 316.23 182.21 318.42 175.26 319.15 170.63 316.83 170.02 313.91 170.15 308.31 172.18 304.08 171.69 300.02 172.99 297.91 171.53 295.96 168.28 299.04 164.87 296.61 167.3 286.05 168.44 283.77 168.6 282.15 167.14 279.87 167.79 276.14 170.55 270.29 169.25 266.71 169.9 264.27 166 258.91 164.7 251.12 171.2 250.79 173.64 252.58 176.08 252.74 176.24 255.5 175.1 257.8 176.73 261.19 173.15 265.57 173.64 269.15 174.78 273.05 178.51 273.05 179.97 270.77 183.55 274.51 181.76 278.41 181.28 282.63 185.99 281.01 188.91 277.76 194.27 280.04 196.87 277.76 201.26 279.87 202.88 276.46 206.62 275.32 206.62 272.24 210.68 270.12 215.88 268.99 207.76 265.9 207.11 263.79 203.86 262 203.05 250.63 206.62 248.68 204.51 243.32 205.26 223.82 213.12 222.85 221.41 221.87 231.32 217.48 236.84 204.32 236.84 196.36 234.73 194.41 239.76 191 239.76 185.8 268.85 187.75 302.81 181.9 300.53 172.48 291.43 167.77 287.21 146.65 292.89 142.59 297.61 140.31 301.67 139.17 311.42 130.73 317.75 129.42 320.51 126.34 339.36 120.17 339.36 117.24 317.92 124.23 304.43 126.66 264.3 108.31 245.94 101.97 257.15 75.81 262.84 53.07 246.59 43.32 242.37 40.39 238.79 38.61 232.62 29.35 225.47 25.12 212.96 20.57 206.62 18.95 196.06 14.72 177.86 10.5 175.91 13.91 175.91 17 172.18 25.45 156.09 40.56 154.79 50.63 136.92 48.03 134.32 59.08 134.32 78.74 168.44 80.53 155.44 109.44 142.93 105.22 139.19 106.84 130.75 105.54 126.36 105.38 107.84 101.48 106.54 104.24 102.64 103.75 98.9 105.54 96.47 114.64 100.93 124.55 96.3 127.23 65.35 91.8 61.94 93.35 58.41 95.91 51.46 98.84 49.75 97.86 46.22 101.4 42.08 98.72 40.62 100.42 37.2 100.79 33.3 102.37 29.77 99.08 25.87 91.8 22.09 91.8 19.17 91.28 10.64 90.31 14.54 94.33 25.14 103.71 21.36 114.8 27.94 116.51 27.21 120.53 45.29 129.42"/><path class="cls-2" d="M110.83,341.07l-34.62-4.33-2.95-6.48-2.75-1.61-3.15-3.82-4.51,0L54.56,323l-5.23-6.68,2.89-6.51-5-5.46L46,297.57,44.55,295l-5.71-3.33-6.67-7.69-3.86-11.06.52-3.65-.25-21.3,11.21-8.84,11.82-6.66-3.68-3.85-7-3.35L45.16,220l3.49-6.52,1-4.95,2.66-6.2-3.1-5.84L45.63,195l1.48-3-.3-5.75H50L49,185.36l3-6.24L42.64,175l1.93-5.78-3.19-6.13,2.87-7.28-7.63-2.72,7-23-18-8.84.69-3.78-6.78-1.76,4-11.64-10-8.83L6.86,88.45l12.47,1.43,2.89.5h4.5l4.19,7.83,2.7,2.51,3.25-1.32,3.05-.33,1.9-2.22L46,99.58l3.49-3.49,2,1.16,6.15-2.59,3.64-2.6,4.37-2L96.6,125.42,99.11,124,95,114.76l2.74-10.22,4.7-2.25,3.29.41L107,99.86l19.5,4.11,4.43.17,8,1.24,3.86-1.68,11.81,4L166.3,81.83l-33.4-1.75,0-21.33,2.9-12.31L153.57,49l1.18-9.15L171,24.61l3.5-7.91V13.54l2.66-4.66,19.43,4.53,10.48,4.19,6.38,1.64,12.75,4.66,7.43,4.39,6.15,9.22,3.41,1.72,4.22,2.92,17.07,10.24-6,24-10.61,24.75,17,5.89,39.73,18.17,13-2.34,23.21-7.56v5.9l-19.46,6.38-2.82,3.15L312.06,132l-9.71,8.41-4.25,1.19-4.49,2.17-4.84,3.46,3.91,19.56,9.07,4.7L304.54,183l-35.62,6.13h-.17l-27.57-1.85v4.44L237,194.58l1.25,1.16v8.87l-5.85,13.94-10.62,4.7-8.5,1-6.65.83-.69,18,2.46,6.25-3.87,2.11.69,9.7,3.08,1.69.62,2,11.93,4.53-9.67,2.11L208,273.1v3.28l-4.14,1.26-2,4.13-4.83-2.32-2.56,2.24-5.25-2.23-2.49,2.77-7.19,2.48.77-6.68,1.48-3.23-1.67-1.74-.91,1.41h-5.57l-1.48-5.12-.57-4.18,3.4-4.17-1.54-3.2,1.28-2.58-.07-1.14-1.6-.11-2.36-1.73-4.41.22,1,5.9,4.1,5.64-.71,2.66,1.35,3.71-2.93,6.21-.52,3,1.43,2.23-.24,2.38-1.18,2.36L166.46,296l1.69,1.21,3.56-3.38,3,4-1.55,2.51.48,4-2.08,4.32-.11,5.14.44,2.09,3.65,1.82,6.27-.66,4.75-2.44,3.18,2,2.73-1.92,4.19-1,5.22,2.74,6.73,1.88.69,2.62,1.37,1,3,1,2.84-.91,6.82.27,7.58,4.49V331l-8,2.85-13.78.24-2.57,2h-9l-4.73,1.77-5.33,1.52-5.92.26-4.72-2-6.48-.63-4.29-1.16-10.84.52-1.27-2-13.45-.65-1.61,3.21-8.92-3.1,2.25-2.25-18.09-6.91Zm-32.7-6.94,30.44,3.81,3.48-17.17,25.29,9.66-2.14,2.14,2.29.8,1.32-2.64,16.77.81,1.17,1.87,9.63-.46L171,334.2l6.55.62,4.54,1.91,5.12-.22,4.78-1.4,5.07-1.9h8.55l2.55-1.94,14.25-.25,5.66-2v-.63l-5.58-3.3-5.61-.22-3.25,1-4.31-1.44-2.53-1.9-.53-2-5.59-1.6-4.4-2.31-2.63.66L189.81,320l-3.4-2.14-3.78,1.95-7.62.8-5.61-2.81L168.6,314l.13-6.07,2-4.13-.5-4.14.81-1.32-2.63,2.5-5.13-3.67,2.76-11.8,1-2,.09-.87-1.49-2.32.78-4.47,2.59-5.49-1.25-3.44.59-2.21-3.7-5.09-1.62-9.7,8.59-.43,2.51,1.84,3.27.22.26,4.38-1,2,1.71,3.58L174.64,266l.39,2.86.81,2.78h1.9l2-3.14,5.48,5.73-2.09,4.57-.2,1.76,2.24-.77,3.36-3.73,5.47,2.32,2.64-2.31,3.95,1.9,1.28-2.69,3.33-1v-2.9l5.18-2.64.55-.12L206.61,267l-.69-2.23-3.42-1.88-.93-13.05,3.28-1.79-1.76-4.47.81-21L221,220.49l9.2-4.07,5.2-12.38V197l-3-2.74,5.89-4v-6l30.43,2,32.3-5.56-1.77-7.32-9.13-4.73L285.64,146l6.64-4.72,4.95-2.36,3.76-1.05,9.79-8.48,6.24-1.28,2.68-3-1.52.48-13.92,2.52-40.47-18.52L244,102.81,255.8,75.36l5.4-21.62-15.35-9.21-4.22-2.92-3.82-1.91-6.2-9.3-6.76-4-12.32-4.48-6.44-1.66-10.46-4.18-17.06-4-1.24,2.17v3l-4,9-15.92,15-1.42,11-18-2.62-2.26,9.62V77.39l34.84,1.83-14.37,32L143,106.73l-3.61,1.57L130.61,107l-4.54-.19-17.42-3.67-1.26,2.68-4.51-.56-2.77,1.33-2.14,8,4.79,10.62L96,129,65,93.52l-2.32,1.06L59,97.22l-7.59,3.2L50,99.63l-3.58,3.58-4.06-2.63-1,1.19-3.77.4L33,104,28.63,100,25,93.21l-3.17,0-2.92-.51-4.51-.51,1.1,1.14,11.27,10L23.2,113.81l6.38,1.65-.78,4.26,18.19,9-6.88,22.69L48,154.17,44.49,163,47.63,169l-1.49,4.46,9.67,4.21-3.33,6.92,5.28,4.47h-8L50,192.6l-.47.95,1.77.77,4.21,7.91-3.13,7.31-1,4.94-3.9,7.23-2,2.5,4.22,2,6.56,6.87-14.9,8.4-9.85,7.79.24,20.13-.45,3.18,3.45,9.9,6,6.93,6,3.49,2,3.71,1.19,6.4,5.71,6.23-3,6.65,3.55,4.53L63.31,322H68.7l3.68,4.46,3.09,1.81Z"/></svg>