<svg id="Layer_1" data-name="Layer 1" xmlns="http://www.w3.org/2000/svg" viewBox="0 0 350 350"><defs><style>.cls-1{fill:#999;}.cls-2{fill:#f90;}</style></defs><title>M</title><path class="cls-1" d="M303.17,279.72h0A57,57,0,0,1,300,273a21.55,21.55,0,0,0-1.1-2.53l-1.19-2.22c-4.13-7.32-11.61-17.4-11.61-19,0-1.94,1.51-4.63-.43-12.82s-9.69-18.53-11.52-20.79-2.91-9-3.66-9.91-6-3.55-9.15-5.06-3.77-3-3.88-5.49-.65-4.2-2.48-4a8.77,8.77,0,0,0-1.43.33,19.14,19.14,0,0,0-3,1.32,11.25,11.25,0,0,0-1.78,8.1c.44,2.54-1.24,5.7-2.91,6a1.43,1.43,0,0,1-1.37,0,2.85,2.85,0,0,1-2-1.05c-1.72-2-6.35-15.94-6.35-15.94l3-5.17a27.27,27.27,0,0,1-3.23-4.74c-1.18-2.37-7.54-22-8.83-24.66-.8-1.67-.9-2.64-.32-3.51.57-2.39,7.53-5.39,9.14-8.5.38-.74.72-1.35,1-1.91-.26-2-2.39-5.91-2.58-8.4a10.38,10.38,0,0,1-.16-3.89,39.17,39.17,0,0,0-3-10.73c-2.26-5,.11-14.22,1.83-17.56S239.21,92,245,87.54s6.25-19.28-.75-24.13a22.12,22.12,0,0,0-8.08-3c-6.54-.86-12.93-.48-15.53-1.84a9.69,9.69,0,0,1-2.56-.65c.46-5.38-2.52-9.2-5.83-11.9a21,21,0,0,1-1.92-1.43c-2.3-1.58-4.47-2.65-5.5-3.36-2.8-1.94-6.79-16.26-6.46-18.53a4.66,4.66,0,0,0-2.15-5.06c-1.72-1-5.27-8.06-8.28-9l-.09,0a14.2,14.2,0,0,1-5.39.38l-.38,0c-2.85-.21-6.17-.72-9.22-1.17l-1.74,4,6.66,8s.84,3.37-1.85,4c-.88.37-2.24.38-4.36-.32a6.48,6.48,0,0,0-2.37-.47c-1.44,1,3.1,6.56,2.66,12.34-.42,5.59.12,11.71,3.84,15.33l-2.39,0c-3.22,0-4.67.53-6.11-3.57-1.11-3.16-.93-6.34-3-9.19-4.87-6.56-12.32-1.85-18.63-4.48-4.92-2.05-4.42-5.9-6.77-9.65a4.3,4.3,0,0,0-4.16-2.35,3.2,3.2,0,0,0-3.08,2.86c-.54,2.52.86,4.6-.69,7.28a24.27,24.27,0,0,1-4.71,5.32,1.51,1.51,0,0,0-.23,1.82c3.5,4.7,9.44,1.84,13.44,5.32,3.84,3.35,2.63,9.88,7.05,13,.75.52,2.35.7,2.95,1.21,2.69,2.31.55,2.57-.5,4.33-1.29,2.18-1.12,4.31-1,6.76A18.32,18.32,0,0,1,134.92,88a1.54,1.54,0,0,0-1,1.85,3.63,3.63,0,0,0,2.25,2.74c1.84,1,2.74-.23,2.19,2.33-.51,2.39-3.2,2.44-5.35,3-5.66,1.57-12.71.51-18,3.18a7,7,0,0,0-3.51,9.06c2,4.82,6.95,6,11.67,6.44a3.28,3.28,0,0,0,.47,2.15c1.09,1.71-.95,7-1.63,8.69l1.37.42s1.44,2.23,1.65,2.37,3,.72,3,.72l3.16,1.22s2.23,2.44,2.44,2.51,2.94,1.58,2.94,1.58l1,2.8V141l-2.3,3.3s-1.29,2-1.94,2.3a35.78,35.78,0,0,0-4.38,2.08c-.29.36-2.3,2.08-2.3,2.08l-1.58,1.15-.57,1.87.65,1.15,2.23.29s2.15.29,2.44.29h2.37l.93,1.29.79,2.51-.65,1.87-1.94,2.44-1.15,2.87a9.83,9.83,0,0,0-.65,1.44c-.07.36-1.44,3.95-1.44,3.95l-.93,1-.86.86a23.67,23.67,0,0,1-2.08-2.8,20.27,20.27,0,0,0-.65-2.15l-1.65-.72s-1.65-.36-2.3-.43-2.8-.57-2.8-.57l-2.15-.65-2.3-.22s-.07-.29-1.29-.29a33.71,33.71,0,0,1-4.16-.57,9.48,9.48,0,0,1-1.36-.65c-.43-.29-.93-.72-1-1a2.74,2.74,0,0,0-.79-1,12.19,12.19,0,0,0-1.51-.5,7.29,7.29,0,0,0-.93-.29,15.8,15.8,0,0,1-1.51-.5,1.76,1.76,0,0,0-1-.72,9.53,9.53,0,0,1-1.65-.65l-1.8-.5s0-.72-.65-.72H92.5l-.47.57.47,2.37,1.69,1.65,1.36.65s.65,1.15-.14,1.36-1.51.07-1.94.43-.5,0-1,.72-1,.93-1.19,1.36a2.58,2.58,0,0,1-.5.72c-.29.36-.22.07-.72.79s-.5.65-.65,1-.5.36-1.08.36-.72-.22-1.22-.07-.86-.07-1.08.43-.36.43-.79.79a4.37,4.37,0,0,1-1.65.5,11.4,11.4,0,0,1-2.15.65H79.9a11.26,11.26,0,0,1-2.08-.22,4.27,4.27,0,0,0-.93.57,12.07,12.07,0,0,1-2,.86c-.43.22.29.29-.79.36s-1.87-.07-2.3,0-.07-.25-1.15,0-1.65,0-2.15.27-.79.14-1.22.36a9.87,9.87,0,0,1-1.44.5,11,11,0,0,1-2.15.29,29.1,29.1,0,0,0-2.58,2.23s-1.08.57-1.65.93c-.28.18-.63.33-.95.52l-.69.57a1,1,0,0,0-.09.14c-.29.57-1,1.22-1.36,1.8a9.17,9.17,0,0,0-1,1.51c-.22.57-.65.79-.93,1.29l-.09.14a8.26,8.26,0,0,0-.69,1.94c0,.82-.94,1.46-2.53,2-1.66,1.11-3.81,2.53-5.08,3.31,2.58.22,6.89.72,11.74,1.33,13,.84,25.56,1.84,27.14,3,2.1,1.61,2.6,4.45,1.36,8.29-.61,1.9-1.29,3.83-1.67,5.28-.09.55-.2,1.07-.32,1.57s.06.86.38.82c.51-.06,2.4-.27,4.43-.69,1.35-.75,3.2-1.88,6.22-3.49l.31-.17a18.27,18.27,0,0,1,6.12-3.58,3.16,3.16,0,0,1,2.59-.12,47.21,47.21,0,0,0,5.51,2.34c1.71.2,3.3.48,4.13,1.76,1.42.69,2.39,1.34,2.35,1.84-.1,1.31-1.92,3-2.79,4l-.2.21a2.21,2.21,0,0,0-.23.29c-.37.62-4,1.86-2.23,3.71s7.92,20.17,11,27.34,25.12,59.26,25.61,68c1.48,4.7,1.61,5.44,8.78,4.83s16.08-1.36,18.19-1a5.37,5.37,0,0,0,1.38.08c3.06-1.64,3.09-6.06,6.26-18.74,4.12-16.49-2.86-33.56-.43-32.26.14-.44.56-.26,1.42.7l.11,0c.29-.91,4,2,7.51,3.58a2.18,2.18,0,0,1,1.85.72l.45.12c4.21,1,4.21,35.51,7.42,43.3s2.23,1,3.84,6.56,5.81,20,5.81,20l.72,0a68.67,68.67,0,0,0,7.61-.6c1.42-.5,4.34-1.58,7.43-2.64a16.66,16.66,0,0,1,3.58-1.6,9.8,9.8,0,0,1,3.3-.57,16.38,16.38,0,0,1,3.59-.69,11.76,11.76,0,0,0,3-.29,4.69,4.69,0,0,0,.84-.4l.18-.37c3.88-8.08-3.45-18.85-4-25.1s-8.08-16.91-9.69-19.49.54-6.25,3.34-9.15,3.55-5.06,3.77-12a9.32,9.32,0,0,1,2.28-6.15,5.09,5.09,0,0,1,1.12-2.16c.85-.74,3.05-1.53,5.32-2.28a14.74,14.74,0,0,1,2.95-1.27,10.26,10.26,0,0,1,2.13-.52c.72-.32,1.18-.61,1.24-.88s.18-.18.37,0a.44.44,0,0,0,.1-.18c.25-1.24,3.46,5.57,3.84,8.91s11.63,30.93,13.49,31.8c1.31.61,2.5,3.75,4.73,3.59,2.47-1.52,4.25-6.33,7.68-8.26a12.22,12.22,0,0,1,2.39-1c.59-.2,1.23-.38,1.92-.55.89-.36,1.9-.73,3.07-1.1,1.89-.62,4.23-1.26,7.18-2,2.5-.61,4.45-1.14,6-1.61,2.86-.93,4-1.67,4.29-2.48a2.9,2.9,0,0,0,.09-.65A25.19,25.19,0,0,0,303.17,279.72Z"/><path class="cls-2" d="M210.86,343.62l-.84,0-1-.07-.28-1s-4.21-14.48-5.81-20c-.22-.75-.37-1.2-.47-1.48-1.21-.31-2.05-1.87-3.32-4.93-1.49-3.61-2.27-12-3.1-21-.74-8-1.86-20-3.45-21.54l-.42-.11-.33-.1-.25-.24c-.37-.36-.55-.34-.74-.32l-.38,0-.34-.16c-1.41-.65-2.82-1.48-4.07-2.21-.59-.34-1.3-.77-1.86-1.06l0,.05-1.45-.28c.11.74.27,1.63.42,2.46,1.07,6,3.06,17.17.34,28.05-.82,3.3-1.45,6.08-1.95,8.32-1.5,6.74-2.19,9.81-5,11.33l-.26.14-.29,0a6.81,6.81,0,0,1-1.75-.1c-2-.35-12.3.53-17.82,1-7.55.65-8.53-.33-10.19-5.6l-.13-.55c-.45-8-20.55-56.08-25.5-67.56-1.21-2.81-2.84-7.17-4.56-11.78-2.23-6-5.28-14.14-6.19-15.16a2.76,2.76,0,0,1-.83-2.28c.19-1.48,1.59-2.38,2.52-3,.18-.11.34-.21.45-.3a4.28,4.28,0,0,1,.29-.36l.17-.19.41-.43a13.08,13.08,0,0,0,1.93-2.36,10.42,10.42,0,0,0-1.44-.81l-.35-.17-.21-.33c-.46-.7-1.49-.94-3.11-1.13l-.36-.09-1.15-.45a30.73,30.73,0,0,1-4.63-2,3.67,3.67,0,0,0-1.34.28,17,17,0,0,0-5.65,3.31l-.59.36c-2,1.08-3.51,1.93-4.7,2.62l-1.49.85-.19.11-.21,0c-1.4.29-3,.53-4.56.71a1.73,1.73,0,0,1-1.39-.46,2.32,2.32,0,0,1-.56-1.88l0-.21c.11-.47.21-1,.3-1.48l0-.13c.29-1.07.71-2.36,1.16-3.72l.53-1.63c.71-2.22,1.14-5.19-.87-6.73-1.3-.78-10.18-1.71-26.37-2.76-5.53-.69-9.46-1.13-11.77-1.33l-4.31-.36,3.69-2.26c1.27-.78,3.44-2.21,5-3.27l.17-.11.19-.06a4.27,4.27,0,0,0,1.54-.72,8,8,0,0,1,.8-2.39l.13-.23a4.48,4.48,0,0,1,.64-.84,1.14,1.14,0,0,0,.23-.29A4.72,4.72,0,0,1,54.8,182a5.24,5.24,0,0,0,.34-.47,8.17,8.17,0,0,1,.75-1,5.18,5.18,0,0,0,.55-.71,2.35,2.35,0,0,1,.19-.3l.27-.29.88-.7.48-.26c.15-.08.3-.15.42-.23.47-.3,1.23-.71,1.57-.89,2.44-2.28,2.74-2.35,3.08-2.44a3.82,3.82,0,0,1,.76-.08,5.17,5.17,0,0,0,1.29-.17l.71-.23a2.75,2.75,0,0,0,.54-.2,2.94,2.94,0,0,1,1-.28c.14,0,.14,0,.18,0a3,3,0,0,1,1.58-.33,3.47,3.47,0,0,0,.93-.09,2.85,2.85,0,0,1,1.54-.07,7.63,7.63,0,0,1,.85,0,11.62,11.62,0,0,0,1.22,0,2,2,0,0,1,.34-.22,8.09,8.09,0,0,1,.84-.33,6.47,6.47,0,0,0,.92-.37,5.62,5.62,0,0,1,1.26-.77l.41-.18.44.09a9.9,9.9,0,0,0,1.78.18h1.58a15,15,0,0,0,1.64-.55l.35-.09a4,4,0,0,0,1-.23,3.09,3.09,0,0,1,.35-.26,2,2,0,0,1,1.83-1.18h.14a2.53,2.53,0,0,1,1.37,0,1.07,1.07,0,0,0,.26,0l.22-.31.32-.45a3.32,3.32,0,0,1,.78-.87l.21-.26a1,1,0,0,0,.12-.2,3.27,3.27,0,0,1,.77-.95,2.88,2.88,0,0,0,.5-.56,2.31,2.31,0,0,1,1.32-1.09,2.36,2.36,0,0,1,.54-.31l-2-1.93L90.52,159l1.31-1.61h2.87a2,2,0,0,1,1.75,1l1.33.4a7.87,7.87,0,0,0,1.33.53,3.05,3.05,0,0,1,1.55.91c.26.09.63.22,1,.33.57.15.86.25,1,.31a6.24,6.24,0,0,1,1.83.67,4.2,4.2,0,0,1,1.31,1.62,3.26,3.26,0,0,0,.49.39,7.43,7.43,0,0,0,1,.46,29.66,29.66,0,0,0,3.77.52,4.14,4.14,0,0,1,1.82.33l2.18.23,2.15.65c.78.18,2.16.48,2.55.52.7.08,2.27.42,2.44.46l.26.08,2.22,1,.2.59a20.46,20.46,0,0,1,.68,2.19c.15.22.46.63.82,1.1l.46-.5c.59-1.55,1.21-3.23,1.28-3.51a7.76,7.76,0,0,1,.74-1.71l1.2-3,1.92-2.41.41-1.2-.58-1.85-.37-.52h-1.65c-.25,0-1.14-.1-2.63-.3l-2.92-.38-1.29-2.3.89-2.9,1.92-1.39c.86-.74,1.89-1.66,2.08-1.87.32-.39.81-.71,4.4-2.26l.44-.19a11.09,11.09,0,0,0,1.39-1.8l2.07-3v-1.25l-.74-2.06c-1-.56-2-1.11-2.3-1.24s-.63-.31-2.75-2.63l-2.74-1.06c-3-.61-3.18-.75-3.4-.9s-.43-.29-1.77-2.34l-2.37-.72.59-1.44c1.73-4.2,2.06-6.85,1.75-7.39a4.6,4.6,0,0,1-.63-1.62c-4.23-.49-9.46-1.93-11.62-7.19a8.33,8.33,0,0,1,4.19-10.86c3.34-1.69,7.22-2,11-2.28a38.63,38.63,0,0,0,7.27-1c.44-.12.89-.22,1.35-.32,1.92-.42,2.79-.7,3-1.65l0-.22a5.44,5.44,0,0,1-1.53-.56,5,5,0,0,1-3-3.73,3,3,0,0,1,2-3.46,16.92,16.92,0,0,0,11.94-17.23l0-.33c-.12-2.46-.24-4.78,1.22-7.23a7.34,7.34,0,0,1,1.2-1.46l.32-.33a5,5,0,0,0-.73-.74,6.54,6.54,0,0,0-1-.34,6.66,6.66,0,0,1-1.88-.79c-2.73-1.91-3.62-4.89-4.4-7.52-.65-2.17-1.26-4.22-2.77-5.54s-3.44-1.54-5.5-1.79c-2.75-.33-5.87-.71-8.14-3.76a2.9,2.9,0,0,1,.4-3.7,23.2,23.2,0,0,0,4.45-5,5.31,5.31,0,0,0,.48-3.58,10.36,10.36,0,0,1,.05-3.29,4.58,4.58,0,0,1,4.32-4c1.55-.16,3.76.23,5.5,3a20.86,20.86,0,0,1,1.79,3.84c.9,2.38,1.56,4.1,4.33,5.26,2.2.92,4.63.82,7.18.72,4.06-.17,8.65-.35,12,4.22a15,15,0,0,1,2.44,6.4,23.84,23.84,0,0,0,.8,3.16c1,2.72,1.39,2.7,3.82,2.65h.45c-2-3.34-2.82-8-2.37-14,.21-2.85-.95-5.7-1.88-8s-1.76-4.31-.18-5.41l.31-.21.37,0a7.53,7.53,0,0,1,3,.54c2,.68,3,.52,3.36.36l.23-.07a.92.92,0,0,0,.65-.41,2.69,2.69,0,0,0,.19-1.57l-7-8.34L172,6.24l1.73.26c2.88.43,5.87.87,8.46,1.06l.33,0a13.1,13.1,0,0,0,4.83-.29l.55-.15.48.1c2.25.73,4.35,3.66,6.21,6.25a17.87,17.87,0,0,0,2.33,2.91c2.23,1.25,3.27,3.62,2.86,6.5-.29,2.2,3.79,15.72,5.87,17.16.37.26,1,.6,1.66,1,1.08.62,2.43,1.4,3.84,2.36l.11.08a19.43,19.43,0,0,0,1.79,1.33l.12.08c4.28,3.49,6.42,7.52,6.4,12,.33.08.75.16,1.31.25l.24,0,.21.11c1.33.7,4.43.88,7.7,1.08,2.25.13,4.8.28,7.35.62a23.22,23.22,0,0,1,8.7,3.24c3.5,2.42,5.66,7.3,5.79,13.06s-1.78,10.93-5,13.36c-5.67,4.3-10,9.69-11.66,12.88-1.73,3.35-3.73,12.09-1.8,16.32A40.3,40.3,0,0,1,235.51,129l0,.16,0,.16a9.12,9.12,0,0,0,.11,3.36l0,.27a19.12,19.12,0,0,0,1.34,4.42,19.28,19.28,0,0,1,1.22,3.9l.05.41-.17.37c-.19.42-.43.86-.69,1.37l-.31.59c-1,1.85-3.2,3.45-5.37,5-1.39,1-3.48,2.49-3.65,3.18l-.06.24-.14.21c-.14.21-.35.53.41,2.12.68,1.42,2.54,6.83,4.51,12.57,1.76,5.14,3.76,11,4.32,12.08a25.89,25.89,0,0,0,3,4.45l.66.77-3.2,5.49c1.9,5.65,4.86,13.64,5.89,14.87a1.44,1.44,0,0,0,1,.55l.32,0,.27.15.08,0,.18-.09.2,0c.09,0,.42-.17.82-.73a5.19,5.19,0,0,0,.91-3.59,12.68,12.68,0,0,1,2-9.14l.19-.28.29-.16a20.45,20.45,0,0,1,3.25-1.42,10.11,10.11,0,0,1,1.72-.39,3.14,3.14,0,0,1,2.49.69c1.26,1.07,1.5,3,1.57,4.64.08,1.94.42,3,3.08,4.28s8.56,4.21,9.6,5.41c.49.56.78,1.54,1.37,3.71s1.4,5.1,2.32,6.24c.1.12,9.56,11.89,11.8,21.35,1.54,6.51,1,9.82.64,11.79a10.33,10.33,0,0,0-.17,1.26c.28.94,2.74,4.68,4.73,7.7,2.25,3.42,4.81,7.3,6.7,10.64.42.78.82,1.53,1.21,2.25a22.73,22.73,0,0,1,1.18,2.73,31.6,31.6,0,0,0,2.15,4.63c.36.68.7,1.31,1,1.92l.1.3a12.78,12.78,0,0,0,.39,1.29,6.78,6.78,0,0,1,.45,1.86v.12a4.33,4.33,0,0,1-.14,1l0,.13c-.52,1.36-1.92,2.26-5.18,3.33-1.54.48-3.51,1-6.07,1.64-2.94.72-5.25,1.36-7.07,2-1.14.36-2.11.71-3,1.06l-.2.06c-.7.17-1.29.34-1.81.52a11,11,0,0,0-2.14.86c-1.61.91-2.87,2.66-4.09,4.35a14,14,0,0,1-3.55,3.88l-.3.18-.35,0c-2.14.15-3.49-1.49-4.47-2.69a5.91,5.91,0,0,0-1-1c-2.89-1.35-14-30.14-14.29-32.92a25.45,25.45,0,0,0-2.37-6.85l-.11.13-.35-.39c-.23.13-.48.25-.73.36l-.2.09-.22,0a9,9,0,0,0-1.82.45,13.51,13.51,0,0,0-2.71,1.16l-.26.12c-1.23.41-4.11,1.37-4.83,2a3.93,3.93,0,0,0-.7,1.53l-.09.28-.2.22a8,8,0,0,0-1.92,5.25c-.22,7.12-1,9.65-4.17,12.89-2.29,2.37-4.31,5.57-3.16,7.42.21.33.52.8.9,1.38,2.76,4.21,8.51,13,9,18.74a32.76,32.76,0,0,0,2.07,7.17c2.06,5.68,4.62,12.76,1.78,18.67l-.19.39-.18.36-.34.21a6.06,6.06,0,0,1-1.09.52l-.12,0a13,13,0,0,1-3.41.34,14.25,14.25,0,0,0-3.22.64l-.19.05h-.2a8.51,8.51,0,0,0-2.83.5,15.54,15.54,0,0,0-3.32,1.48l-.25.11c-2.14.73-4.2,1.48-5.73,2l-1.69.61-.28.07A70.55,70.55,0,0,1,210.86,343.62Zm-7.54-25.37c1.35.08,1.79,1.61,2.34,3.49,1.35,4.69,4.55,15.68,5.53,19a68.2,68.2,0,0,0,6.92-.56l1.53-.55c1.51-.55,3.54-1.28,5.65-2A18,18,0,0,1,229,336a11.13,11.13,0,0,1,3.52-.63,16.08,16.08,0,0,1,3.78-.69,10.89,10.89,0,0,0,2.61-.23l.2-.08c2.28-4.83.05-11-1.92-16.42a34.29,34.29,0,0,1-2.23-7.89c-.44-5.07-6.12-13.73-8.55-17.43-.4-.6-.72-1.09-.93-1.44-1.74-2.79-.46-6.76,3.52-10.89,2.42-2.52,3.16-4.27,3.37-11a10.89,10.89,0,0,1,2.44-6.81,5.73,5.73,0,0,1,1.44-2.52c1-.83,2.81-1.56,5.67-2.52a16.3,16.3,0,0,1,3.11-1.33,11.9,11.9,0,0,1,2.15-.54l.38-.2a1.51,1.51,0,0,1,1-.81l.18,0a1.53,1.53,0,0,1,.77-.17c2.35.1,4.87,8.57,5.06,10.32.38,3.38,10.9,28.56,12.84,30.75a6.61,6.61,0,0,1,1.79,1.72,4.72,4.72,0,0,0,1.77,1.62,15.79,15.79,0,0,0,2.39-2.88c1.33-1.85,2.84-4,5-5.17a13.5,13.5,0,0,1,2.67-1.09q.8-.27,1.89-.54c.91-.37,1.92-.73,3.09-1.1,1.88-.61,4.26-1.27,7.27-2,2.5-.61,4.42-1.13,5.88-1.59,2.73-.89,3.27-1.44,3.37-1.59a1.52,1.52,0,0,0,0-.17,6,6,0,0,0-.3-1c-.14-.42-.3-.89-.44-1.43s-.55-1.08-.87-1.67a33.79,33.79,0,0,1-2.34-5,20.24,20.24,0,0,0-1-2.35l-1.16-2.18c-1.83-3.24-4.35-7.07-6.58-10.45-3.93-6-5.2-8-5.2-9.17a10.92,10.92,0,0,1,.21-1.83c.32-1.88.8-4.72-.6-10.67-1.74-7.34-8.71-17.09-11.25-20.22-1.29-1.6-2.16-4.74-2.85-7.27a24.52,24.52,0,0,0-.81-2.63,69.56,69.56,0,0,0-8.67-4.69c-3.73-1.8-4.56-3.9-4.68-6.71-.09-2-.46-2.51-.57-2.6a.47.47,0,0,0-.32,0,7.13,7.13,0,0,0-1.18.28,17.73,17.73,0,0,0-2.44,1,9.84,9.84,0,0,0-1.37,6.78,8,8,0,0,1-1.4,5.73,4.35,4.35,0,0,1-2.48,1.84,2.83,2.83,0,0,1-2.19,0,4.3,4.3,0,0,1-2.68-1.52c-1.81-2.15-5.83-14-6.62-16.4l-.2-.61,2.84-4.87a26.57,26.57,0,0,1-2.78-4.24c-.59-1.19-2.08-5.49-4.46-12.42-1.77-5.15-3.77-11-4.38-12.26-.73-1.52-1.26-3.13-.34-4.71.54-1.61,2.47-3,4.68-4.57,1.81-1.29,3.85-2.75,4.5-4l.31-.6.44-.85a25.38,25.38,0,0,0-1-2.87,21.28,21.28,0,0,1-1.51-5.09,11.74,11.74,0,0,1-.18-4.12A38.06,38.06,0,0,0,229.85,119c-2.62-5.74.23-15.63,1.86-18.79,1.79-3.46,6.45-9.27,12.47-13.83,2.42-1.83,4-6.27,3.87-11s-1.81-8.88-4.57-10.79a20.42,20.42,0,0,0-7.55-2.77c-2.36-.31-4.86-.45-7.06-.58-3.75-.22-6.74-.4-8.62-1.28a10.13,10.13,0,0,1-2.75-.74l-.88-.43.08-1c.34-4-1.38-7.46-5.26-10.64a22.59,22.59,0,0,1-1.93-1.44c-1.3-.89-2.57-1.62-3.59-2.21-.75-.43-1.39-.8-1.86-1.12C200.59,40,196.64,24.94,197,22.5a3.33,3.33,0,0,0-1.45-3.63c-.92-.52-1.79-1.69-3.25-3.73-1.32-1.84-3.08-4.29-4.41-5a16.94,16.94,0,0,1-5.49.31l-.42,0c-2.54-.19-5.41-.6-8.21-1l-1,2.23,6.31,7.53.08.32a5.73,5.73,0,0,1-.48,4,3.73,3.73,0,0,1-2.32,1.67c-1.32.51-3,.4-5.24-.33l-.53-.17c.17.48.41,1.05.6,1.53,1,2.43,2.35,5.75,2.08,9.27-.5,6.74.65,11.52,3.42,14.2l2.48,2.4-5.84.05-.89,0c-3.05.07-5-.1-6.57-4.54A26.62,26.62,0,0,1,165,44a12.61,12.61,0,0,0-1.94-5.28c-2.5-3.37-5.82-3.23-9.65-3.08-2.76.11-5.61.23-8.39-.94-3.9-1.63-4.91-4.29-5.89-6.87a18.37,18.37,0,0,0-1.54-3.34c-1-1.67-2.11-1.77-2.81-1.69-1.1.11-1.58.57-1.83,1.75a7.87,7.87,0,0,0,0,2.42,7.94,7.94,0,0,1-.84,5.27,25,25,0,0,1-4.91,5.59.22.22,0,0,0-.05.1c1.53,2,3.67,2.23,6.13,2.53,2.29.28,4.87.59,7,2.47s2.89,4.4,3.62,6.86,1.39,4.67,3.31,6a5.56,5.56,0,0,0,1.08.4,5.44,5.44,0,0,1,2,.9,4.3,4.3,0,0,1,1.8,2.83,3.18,3.18,0,0,1-1.23,2.39,4.89,4.89,0,0,0-.77.91c-1,1.71-.93,3.44-.82,5.64l0,.33a19.72,19.72,0,0,1-13.93,20.07s-.11,0-.08.23c.15.83.44,1.16,1.54,1.76a2.94,2.94,0,0,0,1.08.33,2.22,2.22,0,0,1,1.65.87,3.36,3.36,0,0,1,.16,2.67c-.61,2.83-3.24,3.4-5.16,3.82-.41.09-.81.18-1.2.28a41.31,41.31,0,0,1-7.81,1.1c-3.64.28-7.08.54-9.92,2a5.52,5.52,0,0,0-2.84,7.26c1.38,3.36,4.61,5.08,10.47,5.56l1.46.12-.17,1.46a1.86,1.86,0,0,0,.26,1.22c.94,1.47.62,4.34-1,8.54l.4.12.28.44c.45.69,1,1.51,1.29,1.92.51.13,1.58.37,2.47.55l.23.07,3.47,1.34.22.25c.81.88,1.8,1.94,2.14,2.25.33.16,1.07.55,2.89,1.56l.47.26L139,138.8v2.63l-2.55,3.67a7.56,7.56,0,0,1-2.53,2.78l-.53.23c-1.93.83-3.08,1.36-3.44,1.58-.43.46-1.49,1.39-2.35,2.13l-.09.07-1.2.87-.26.83,1.52.2c.94.13,2.08.27,2.29.28h3.07l1.49,2.07,1,3.18-.88,2.54-2,2.47-1.14,2.82a10,10,0,0,0-.52,1.09c0,.07-.08.43-1.49,4.13l-.1.26-2,2.11-1.1,1.1-1-1.2c-2.23-2.69-2.39-3.15-2.41-3.6,0-.21-.2-.7-.37-1.21l-.95-.41c-.63-.13-1.63-.34-2-.38-.7-.08-2.59-.52-3-.6l-2.1-.63-3.16-.3,0-.19h-.11a33.24,33.24,0,0,1-4.44-.6l-.24-.07a10.16,10.16,0,0,1-1.64-.79,3.68,3.68,0,0,1-1.55-1.71,2.38,2.38,0,0,0-.22-.27c-.22-.08-.69-.23-1.12-.34l-.26-.1-.67-.18a17.39,17.39,0,0,1-1.66-.55l-.43-.17-.25-.39a.48.48,0,0,0-.11-.09,9.87,9.87,0,0,1-1.85-.7l-2.7-.76v-.38h-.28l.16.82,1.2,1.18,1.56.74.22.39a2.83,2.83,0,0,1,.28,2.32,1.89,1.89,0,0,1-1.28,1.1,6.48,6.48,0,0,1-1.14.19l-.36,0a2.24,2.24,0,0,1-.6.33,5.54,5.54,0,0,1-.94,1.08,1.89,1.89,0,0,0-.2.19,2.88,2.88,0,0,1-.49.74l-.15.18a2.35,2.35,0,0,1-.52.5h0a1.38,1.38,0,0,1-.15.22l-.36.5-.11.15a2.27,2.27,0,0,1-2.42,1.32,3.64,3.64,0,0,1-.86-.11h0l-.35.07a2.34,2.34,0,0,1-.74.72l-.2.15a4.71,4.71,0,0,1-2.21.8,8.4,8.4,0,0,1-2.51.68H79.9a12.43,12.43,0,0,1-1.85-.15l-.26.18a5.89,5.89,0,0,1-1.78.85l-.2.07a2,2,0,0,1-1.63.62,13.7,13.7,0,0,1-1.63,0,4.12,4.12,0,0,0-.54,0,1.77,1.77,0,0,1-.84,0l-.19,0a6,6,0,0,1-1.63.17H69.1a3.11,3.11,0,0,1-1.11.34l-.12,0a5.17,5.17,0,0,1-1,.37l-.64.2a7.54,7.54,0,0,1-2.05.32h-.06c-.43.34-1.35,1.18-2.11,1.88l-.3.22s-1,.55-1.57.88c-.19.12-.4.23-.62.34l-.27.14-.41.33A7.46,7.46,0,0,1,58,182.4a6.36,6.36,0,0,0-.5.63,8,8,0,0,1-.52.72,2.41,2.41,0,0,0-.36.53,3.56,3.56,0,0,1-.8,1.22,1.88,1.88,0,0,0-.23.28l-.06.1a13,13,0,0,0-.53,1.36c0,1.37-1.13,2.43-3.32,3.16l-1.53,1c2.1.23,4.68.54,7.74.92,21.34,1.38,26.48,2.3,27.83,3.33,1.84,1.41,3.65,4.26,1.85,9.85l-.54,1.64c-.43,1.29-.83,2.52-1.1,3.5l-.09.51c.94-.13,1.87-.28,2.7-.45l1.25-.72c1.21-.7,2.72-1.57,4.79-2.67l.17-.09a19.64,19.64,0,0,1,6.54-3.77c1.59-.56,2.85-.54,3.76.06a36.47,36.47,0,0,0,4.09,1.75l1,.39c1.37.16,3.46.46,4.72,2,1.48.74,2.94,1.66,2.83,3.06s-1.41,3-2.84,4.47l-.34.35-.22.24,0,.05a3.61,3.61,0,0,1-1.24,1.05,6.58,6.58,0,0,0-1.18.89l0,0c1.13,1.21,3,6.07,6.77,16.1,1.71,4.58,3.33,8.91,4.51,11.65.25.58,24.86,58,25.71,68.34v0c1.31,4.14,1.31,4.14,7.25,3.63,10.24-.88,16.56-1.32,18.56-1a4.61,4.61,0,0,0,.72.08c1.42-1,2-3.3,3.34-9.3.5-2.25,1.13-5.05,2-8.39,2.57-10.3.65-21.08-.38-26.87-.72-4.05-1-5.42.14-6.22a11.18,11.18,0,0,1,1.09-.43,2.2,2.2,0,0,1,2,.74c.93,0,2.07.7,3.94,1.8,1.1.64,2.33,1.37,3.52,1.94a3.53,3.53,0,0,1,2.25.87l.08,0c3.05.72,4,7.51,5.51,24,.77,8.32,1.57,16.92,2.9,20.13A19.22,19.22,0,0,0,203.32,318.24Zm-10.76-44.66Zm57.69-17.22h0Zm-2.3-.72h0Zm39.53-6.47h0Zm-235.25-62h0Zm12.12-9.86h0Zm23-5.64h0Zm18.52-8.39v0ZM126,129.21h0Z"/></svg>