<svg id="Layer_1" data-name="Layer 1" xmlns="http://www.w3.org/2000/svg" viewBox="0 0 350 350"><defs><style>.cls-1{fill:#999;}.cls-2{fill:#f90;}</style></defs><title>M</title><path class="cls-1" d="M315.66,40.1,313,50.44V62.58l1.35,5.84,14.39,7.19V81l-3.15,5.39-.45,5.84-8.09-.6s-5.84-12.14-9.44-13.49-2.25-2.4-15.14,1.95c0,0-5.09.45-9.14-6.89,0,0-19.18.9-20.38,2.55s-1,4.35,2.25,8.69,9.29,12.59,9.29,12.59,3.9,8.69,5.25,9.89-.15,10.49-.15,10.49-4.35,7.19-4.35,10.79-.6,8.84-1.95,11.84-13.19,8.24-13.19,8.24-10.79-4.65-13-4.5-4.95,1.35-4.2,3.45,4.95,5.54,5.69,5.69,9.89,3.15,9.44,5.1-1,18-5.24,22.18-17.38,12.44-17.38,12.44-8.84,5.24-11.09,9.74-5.69,5.54-5.69,5.54,2.7,4.65,1.65,5.54-5.24,1.35-6.59,2.55-4.5,3.45-3.9,7.34-.15,7.94,3,8.39,6.89-.75,6.89,1.5.6,11.69-3.3,16.63a29.41,29.41,0,0,0-5.84,16.33c0,4.35-.15,9.44-.15,9.44l-3,2.55,1.5,2.85s-5.39,1.2-7.64,4-8.8,18.32-8.8,18.32-15.06-14.5-16.75-16-9-3.6-9-3.6l-8.77-1.8s8.88,14.95,8.88,18.1-3.15,9.67-3.15,9.67l4.5,8.77a67,67,0,0,0-5.51,6.18c-1.57,2.25-5.06,7.76-7.08,8.88s-11.8,7.53-11.8,7.53-11.24,1.69-12.93.67-8.54-3.6-12.25-2.92l-3.71.67-8.88-14.72-9-2.92-5.73.9-7.19-4L79,318.16,73.34,323,55.7,317.26l-5.84-2.14-11.13-4.72-6.52-2.47s-6.63-3.82-8.32-7.76a51.29,51.29,0,0,1-2.59-8l11.8-13.6,5.62-3.93.56-18,2.59-11.8s.79-1.91,7.19-5.39,13.71-6.74,13.71-6.74l2.7-.9,6.07,1.91,5.73,1.35,3.6,2.14,9.1.34s4.27-1.69,4.83-2.92,5.06-1.8,6-3.37,4.83-5.17,4.83-5.17l.56-2.36s-13.94-11.35-15.4-14.61-6-18.43-7-21.69l-1-3.26A51,51,0,0,1,77.39,180a26.18,26.18,0,0,1-4.27-7.19c-.34-1.24-.67-3.6-.67-3.6s1.69-8.43.56-12.36-1.69-5.39-1.69-5.39,3.26-3.93,6.29-4.61a106.07,106.07,0,0,0,10.68-3.82s7.64-5.06,8-4.95,9.89-4.16,9.89-4.16l5.17-7.64L111,113s.34-2.81-2.92-9.55l-3.26-6.74,2.14-9.89,4.5-4.27a89.78,89.78,0,0,0,11.13,2.59c4.38.56,19.56.11,19.56.11l9.1.11,7-.79L167,80.34l6-2.47-1.8-7.76L164.83,74l-12.48,4-13.6-1.57-.56-4.27,12.93-14.39s7.19-4.27,10.45-3.71,2.14,1.91,4.38-1.24,2.59-3.71,2.59-3.71l.45-1,3.48-1L175,39.54,173.37,37h-1l-.67-1.69L195.4,18.19,203.83,17l10,4,10.9,2.92,9.44-5.06,5.51-4.16,3.48-.79a6.4,6.4,0,0,1,4.5.79c2.14,1.35,3.82-1.8,3.82-1.8l.9-1.57h2.47l3.48-3.48s4-.11,5.73,0a26.94,26.94,0,0,1,4.38.9l2.14.22s2.92,11.58,9.89,14.72l7,3.15s3,4.72,4.16,4.72a40,40,0,0,1,4.5.67l14.39,6.29Z"/><path class="cls-2" d="M133.5,343.61a7.83,7.83,0,0,1-3.45-.51c-1.48-.89-8-3.34-11.27-2.74l-4.67.85L105,326.09l-8.17-2.65-5.88.92-7.38-4.15-4.16-.55-5.74,4.94-18.4-6-5.89-2.15-11.19-4.75-6.67-2.55c-.29-.17-7.06-4.11-8.91-8.43a52.23,52.23,0,0,1-2.67-8.23l-.15-.7,12.53-14.37,5-3.53.57-17.53,2.66-12c.23-.56,1.47-2.64,7.83-6.1s13.74-6.76,13.81-6.79l.13-.05,3.13-1,6.46,2,5.89,1.39,3.47,2.06,8.44.31A13.08,13.08,0,0,0,93.54,234c.48-1.07,1.85-1.59,3.43-2.18a8.17,8.17,0,0,0,2.56-1.26,34.15,34.15,0,0,1,4.79-5.21l.26-1.08c-3.42-2.81-13.7-11.43-15.11-14.57C88.23,207,85,196.34,83.28,190.63c-.37-1.21-.66-2.17-.84-2.76l-.87-2.79a46.86,46.86,0,0,1-5.19-4,26.93,26.93,0,0,1-4.64-7.82c-.36-1.31-.7-3.67-.71-3.77l0-.24,0-.24c.45-2.25,1.43-8.74.59-11.7C70.56,153.47,70,152,70,152l-.3-.77.53-.64c.37-.44,3.67-4.33,7.08-5.09a101.54,101.54,0,0,0,10.32-3.7c6.27-4.15,7.82-5,8.55-5.12,1-.33,5.18-2.14,9-3.86l4.69-6.93L109.57,113v-.1h0s.17-2.65-2.79-8.77l-3.47-7.18,2.33-10.79L111.06,81l.79.24a89,89,0,0,0,10.9,2.54c4.22.54,19.18.11,19.33.1l9.07.11,6.64-.75,8.55-4.16,4.93-2-1.08-4.65-4.92,3L152.5,79.54l-15-1.74-.79-6,13.51-15,.19-.11c.78-.46,7.73-4.52,11.42-3.89a9.63,9.63,0,0,1,2.09.59c.17-.23.4-.55.63-.87l.27-.38c1.78-2.49,2.34-3.34,2.49-3.56L168,47l3.4-1,2.08-6.3-.86-1.36H171.4L170,34.77l24.89-17.93L204,15.49l10.28,4.16,10.28,2.75,8.85-4.74,5.66-4.28,3.78-.85a7.87,7.87,0,0,1,5.57,1,.5.5,0,0,0,.44.1c.52-.14,1.16-1,1.37-1.37l1.33-2.32h2.71l3.47-3.47.56,0c.17,0,4.13-.11,5.87,0a27,27,0,0,1,4.56.92l3,.31.24,1c0,.11,2.84,11,9.1,13.78l7.35,3.32.23.35a21.15,21.15,0,0,0,3.21,4.08,42.46,42.46,0,0,1,4.54.7l.29.09L311,37.2l6.39,1.95-3,11.48V62.42l1.16,5,14.57,7.29V81.4l-3.18,5.44-.53,6.93L316.09,93l-.36-.74c-2.33-4.83-6.55-12-8.66-12.77-.54-.2-1-.4-1.36-.57-1.79-.81-2.28-1-12.83,2.53l-.33.07c-.23,0-5.69.41-10.06-6.85-8,.4-17,1.27-18.53,2.05-1.12,1.83,1,5.07,2.32,6.87,3.27,4.31,9.25,12.53,9.31,12.61l.15.25c1.8,4,4.18,8.75,4.9,9.41,1.28,1.14,1.38,5.1.31,11.77l0,.27-.14.24c-1.15,1.91-4.14,7.44-4.14,10.06,0,3.89-.64,9.24-2.07,12.42s-11,7.67-13.91,9l-.57.25-.57-.24c-5-2.17-11.23-4.45-12.38-4.38a4.27,4.27,0,0,0-2.93,1.13.4.4,0,0,0,0,.42c.55,1.53,4,4.48,4.78,4.82,1.13.33,8.49,2.6,10.05,5a2.21,2.21,0,0,1,.35,1.73c-.07.31-.18,1.43-.3,2.61-.57,5.79-1.64,16.57-5.32,20.26-4.26,4.26-17.09,12.3-17.63,12.64-2.39,1.42-8.88,5.8-10.57,9.17a13.08,13.08,0,0,1-5,5.54c2.32,4.53,1.05,5.61.61,6a9.5,9.5,0,0,1-3.42,1.37,11.22,11.22,0,0,0-3.15,1.16l-.43.37c-1.37,1.17-3.43,2.93-3,5.69.16,1,.22,2,.29,3,.21,3.14.44,4.07,1.51,4.23a17.6,17.6,0,0,0,2.9.08c1.83-.05,3.42-.09,4.45.9a2.6,2.6,0,0,1,.77,1.92c0,.21,0,.47,0,.79.06,3.24.23,11.84-3.61,16.72a27.88,27.88,0,0,0-5.54,15.46c0,4.32-.15,9.43-.15,9.48l0,.63-2.61,2.22,1.83,3.48-1.81.41c-1.37.31-5.26,1.54-6.84,3.54-1.75,2.21-6.81,13.74-8.61,18l-.8,1.9-1.48-1.43c-.15-.14-15.05-14.49-16.69-15.91-1-.86-5.49-2.44-8.4-3.29l-5.6-1.15c2.73,4.75,7.47,13.4,7.47,16.07,0,2.88-2.14,7.81-3,9.64l4.65,9.07-.73.73a66.17,66.17,0,0,0-5.35,6l-.91,1.34c-2.46,3.62-4.81,7-6.64,8s-11.62,7.41-11.71,7.48l-.26.17-.31,0A80,80,0,0,1,133.5,343.61Zm-13.64-6.17c4.29,0,10.19,2.36,11.64,3.23,1,.39,6.78-.1,11.68-.82,1.6-1,9.75-6.37,11.63-7.41,1.39-.77,4.18-4.88,5.67-7.08l.94-1.37a58,58,0,0,1,4.94-5.63L162,309.87l.31-.64c.84-1.73,3-6.74,3-9,0-1.73-4.41-10.19-8.68-17.37L155,280.05l12,2.47c1.27.37,7.7,2.3,9.52,3.89,1.39,1.21,11.46,10.88,15.32,14.59,1.88-4.35,6.29-14.36,8.19-16.75,1.68-2.13,4.75-3.41,6.69-4.05l-1.21-2.31,3.38-2.87c0-1.49.13-5.38.13-8.77A31,31,0,0,1,215.19,249c3.21-4.08,3.06-11.95,3-14.91,0-.3,0-.55,0-.76a10.92,10.92,0,0,0-2.3-.08,20.19,20.19,0,0,1-3.37-.1c-3.51-.5-3.73-3.87-3.93-6.84-.06-.9-.12-1.84-.26-2.74-.66-4.32,2.46-7,4-8.28l.39-.34a11.35,11.35,0,0,1,4.28-1.78,20.23,20.23,0,0,0,2.06-.64,15.34,15.34,0,0,0-1.68-3.9l-.9-1.55,1.71-.52a9.29,9.29,0,0,0,4.84-4.82c2.41-4.81,11.26-10.1,11.63-10.33.1-.06,13.07-8.19,17.1-12.22,3-3,4-13.87,4.51-18.53.13-1.35.21-2.15.3-2.65-1-1.17-6.81-3.37-8.29-3.7-1.29-.26-5.84-4.09-6.74-6.61a3.24,3.24,0,0,1,.32-2.93c1-1.59,3.33-2.29,5.11-2.41,2.3-.14,10,3,13.12,4.36,5.32-2.41,11.24-5.78,11.91-7.28,1.25-2.78,1.82-7.79,1.82-11.26s3.54-9.83,4.41-11.28c.64-4.08.85-8.12.47-9-1.47-1.48-4.45-7.94-5.44-10.14-.75-1-6.15-8.44-9.19-12.45-3.33-4.38-4.09-7.88-2.27-10.38.4-.54,1.6-2.2,21.46-3.13l.88,0,.43.77c3.17,5.76,6.87,6.15,7.65,6.17,11-3.71,12-3.58,14.69-2.36.34.15.72.32,1.19.5,3.59,1.34,8.29,10.3,9.86,13.46l5.87.44.37-4.76,3.12-5.35V76.5l-14.2-7.1-1.54-6.81,0-12.5,2.35-9-4-1.23L295.68,33.6a34.88,34.88,0,0,0-4.07-.62c-.55,0-1.84,0-5.12-5l-6.59-3c-6.35-2.87-9.51-11.74-10.41-14.71l-1.43-.17A24.9,24.9,0,0,0,264,9.26c-1.23-.08-3.88,0-5,0l-3.5,3.5h-2.24l-.49.86a5.83,5.83,0,0,1-3.13,2.74,3.32,3.32,0,0,1-2.68-.44,5,5,0,0,0-3.42-.6l-3.19.72-5.45,4.09-9.94,5.32L213.3,22.31l-9.65-3.9-7.71,1.13-22.21,16h.42l2.4,3.81-3,9-3.57,1-.26.56c0,.06-.43.7-2.65,3.8l-.27.38c-1.29,1.81-1.94,2.72-3.83,1.93a6.84,6.84,0,0,0-1.68-.5c-1.85-.33-6.48,1.77-9.3,3.42L139.68,72.71l.33,2.53,12.19,1.41,12-3.9,7.83-4.89,2.52,10.86-7.07,2.93L158.6,86l-7.3.82-9.19-.11c-.56,0-15.28.45-19.72-.12a83.77,83.77,0,0,1-10.56-2.4l-3.59,3.41-1.94,9,3,6.3c3.08,6.37,3.11,9.49,3.06,10.21l.35,13.64-5.65,8.35-.37.17c-6.9,3.08-9.17,4-10.12,4.23-.74.34-4.37,2.66-7.55,4.76l-.24.13a105.11,105.11,0,0,1-10.91,3.89c-1.76.39-3.87,2.34-5,3.54.28.82.76,2.31,1.43,4.69,1.11,3.87-.21,11.31-.49,12.78.09.61.35,2.27.6,3.19A25.56,25.56,0,0,0,78.39,179a50.23,50.23,0,0,0,5.19,4l.41.28L85.15,187l.85,2.78c1.59,5.25,4.9,16.16,6.06,18.76,1,2.15,9.71,9.78,15,14.09l.69.56-.87,3.65-.32.29A35.09,35.09,0,0,0,102,232c-.72,1.27-2.4,1.9-4,2.5a10.34,10.34,0,0,0-1.93.85c-.78,1.49-3.8,2.86-5.55,3.55l-.28.11-9.76-.36-3.72-2.21-5.62-1.33-5.63-1.77-2.19.73c-.72.32-7.58,3.42-13.55,6.67-4.86,2.64-6.25,4.29-6.54,4.68L40.7,256.86l-.58,18.56-6.06,4.24L22.85,292.58a49.86,49.86,0,0,0,2.34,7c1.21,2.81,5.82,6,7.63,7l6.41,2.43,11.18,4.74,5.78,2.11L73,321.4l5.5-4.73,6,.79,7,3.94,5.58-.88,9.82,3.19,8.65,14.34,2.75-.5A9,9,0,0,1,119.86,337.43ZM96,235.38ZM248.8,151.56l.14,0ZM96.54,139.5l-.13,0Zm.13,0h0Zm0-2.69h0Zm181.92-28.91h0ZM263.88,76.78Z"/></svg>