<svg id="Layer_1" data-name="Layer 1" xmlns="http://www.w3.org/2000/svg" viewBox="0 0 350 350"><defs><style>.cls-1{fill:#999;}.cls-2{fill:#f90;}</style></defs><title>M</title><path class="cls-1" d="M39.14,40.09l3.06-.85L56.1,42l1.38,1.68,12,12.94.82,2.39-2.65,3.11,7.9,3.21L79,69.2s1.63-.05,2.24-.15,2.24-3.26,2.24-3.26L93.35,65c-.15-.92,4.84-2.19,4.84-2.19l3.77,1,5.66,3.41,10.55,3.41,1.48-.92,7.08-.15,2.09,1.38.71-1.38L132,69.2l-3.87-4.48.25-3L127,58.45l-4.28-.61c-2.5-5.1-3.92-6.37-3.92-6.37.82-.51-1.43-3.11-1.43-3.11C115.06,48.26,113,42,113,42c-2.85-2.45-.71-4.18-.71-4.18,2.6.2,3-5.76,3-5.76-.71-5.1,3.67-1.73,3.67-1.73.71,1.94,4.33,2.7,4.33,2.7l3.41-1.43,2.75-1.27,2.45-.46,6.37-1.58L141,30.68l1.27-.61c.51-.51,10.39-.82,10.39-.82l1.17,3.46,1.27,1,.51-2c-1.22-2.29.05-5.66.05-5.66,1.17-1.53,1.53-.2,1.53-.2-.71.25-1.38,2.24-1.38,2.24l1.32,10.09,3.92-2.8,1.07-2.14.05-1.89c-.66-1.63-.05-2.34-.05-2.34l-1-.61.25-1-.66-.51L165.19,24l3-3.41,2,1.83,3.92.92.56,1.89h1.43l1.12,1L189.65,23l1.53,1.27-.2,1.17,1.38.71.15,2.7-2.29,5.66,6,.36.87,1.63,10.9.66,1.12,3.62,2.55,2.55.56,4.64,3,8.31,3.46,3.21,3.92-.1,3.82.66-.41-.66L224.91,58l-2-4.64-.46-4-.92-1.58-.61-3,3-.15L227,43.21l2.39-5.35-2.14-1.63-.92-2.55-1.07-.36,6.47-1.73,9.32-3.67,6.11-.82,3.62,2.34,3,2.9.92-.05L256,33l6-2.19c.87-2.09,4.18-3.06,4.18-3.06l3.06,1.07,3.52-1.12,1-2.45s-4.23-3.21-4.23-3.36a6.82,6.82,0,0,1,.56-1.07l4.64-1,1.17,1.43,5.91-.05s1.63-3.11,1.63-3.36,1.48-7.08,1.48-7.08l.66.05,1.58-.05,3.87-2,.46-2,1.53,2,2.09,2,4.08,2.09,3.26-.46.41-.76,1.32-.05,1.22-.82L310.15,12l1.22-.56L309,9.13l.2-.87L318.1,18.6l-.92,3.21-.6,1.4-.83,1.92-9.17-1.48-5.76-2.45-4,.56-2.39,6.83,3.31,1.73a18.24,18.24,0,0,0,4.84,7.18l-6.78,7.95-12.53-.31-3.62,4.48-8.2,6.67-3.67,4,.71,2,1.78,1.53,3.31,9.38h1.73l3.31,7.85-.66,1.32,2.34,5.45.2.76,1.89,2.19,1.17,3.21s-7.34,6.37-7.44,11.06l.46,4.84-2.6.46-.76,1.32,1.48,3.82.46,3.41,8.61,7.74,4-1.12.66,3.06L284.32,138l-1.83,1.48.15,4.18-.56,2.9-3-2.75-.71.36-3.41,9.53-1,1.43L266.48,157l-8.92,1.32-3.82,4L246.41,167l-1.73-.51-1.17,1.22h-1.58L240,169.06s-2.09-.1-5.35,3.16l-2.8-3.52.51,3.06-5.76,3.82-6,1.43-3.31-3.11-3.52.41-1.78,2-1.63.25-.15,2.09,1.89-.31-.82,5.15,1.89,6.83-1.27,1,.76,2.09,1.43,1.12.31,3.26-.56,1.27,1.17,1.68,1.89,1.17,2.7,4.08-3,5.71-1.43,1.48-1.94,3.21-2.24,3.41-2.85,2.65-3.67-1.12-2,1.12-.41,1.73,9,16.56-.1,2.09-2.65,2.6s-3,8.87-3.31,13.55l-1.58,2.65s-20.48-9.88-26.39-11.77l-2.9,1.78,1.73,9.22v8.05l-.51,1.73-1.12,2.09L173.6,277l-1.53,3.31.1,3.77-.92,6,.36,2.85,1.68,4,.1,3.36-3.72,6.47-.36,3.62,1.83,7.49.1,7.9-1.48,1.63-3.67,2.45s-4.38-1-11.41.31l-5.55,4.23-9.58-8.25-4.84,6.42-3.16,3.87-9.43,6.78-5.45-11.67-2.29-7.85-6.88-.92-1.94-2.55-.36-4L96,297.05l-6.06-14.32s-4.13-8.87-4.94-9.12l-8-22-3.92-10.9-4.79-10.5-18-20.38-2.14-4-1.73-10.09L42,183.33l-9.38-40-.71-33.73,3.26-2.65,3.67-.41.41-7.44-2.85-14,.2-2.65-1.73-8.56L37.1,60.44l-4.38-8.66,2.85-1.53,2.24-5.5,1.73-1.94Z"/><path class="cls-2" d="M121.58,345.31l-6.25-13.42-2-7-6.55-.87-2.54-3.34-.37-4.17-9.11-18.87-6.09-14.38a80.37,80.37,0,0,0-4.36-8.41l-.37-.12L71.76,241.24,67.08,231l-18-20.34-2.33-4.32L45,196.12l-4.39-12.47L31.2,143.46l-.73-34.57,4.12-3.35,2.89-.32.33-6.06L35,85.19l.2-2.65-1.75-8.62,2.21-13.25-4.8-9.48,3.62-1.94L36.59,44,38,42.36l-.5-3.3,4.59-1.28,14.74,3,1.7,2.07L70.7,55.92l1.17,3.44L70,61.59l6.38,2.59,3.24,3.57,1.08-.07a19.41,19.41,0,0,0,1.54-2.55l.36-.7,9.92-.82c.71-.68,2.22-1.41,5.36-2.21l.35-.09,4.32,1.11,5.69,3.44L118,69l1.25-.78,7.91-.17,1.14.75.33-.64.56-.07-2.53-2.93.27-3.25-.93-2.2-4.23-.6-.33-.67c-2.27-4.64-3.6-5.94-3.61-6l-1.31-1.26.82-.53a10.71,10.71,0,0,0-.75-1.07c-2.41-.77-4.09-4.7-4.83-6.8a4.58,4.58,0,0,1-1.68-3.38,3.71,3.71,0,0,1,1.3-2.7l.44-.36.56,0s.07,0,.16-.07c.69-.59,1.19-2.79,1.31-4.23-.25-2,.18-3.3,1.27-3.94,1.76-1,4,.54,4.69,1l.33.25.14.38c.25.69,1.72,1.38,2.89,1.7l3-1.25,3-1.36,2.45-.46,7-1.74,2.6,2.22.31-.15c.59-.37,2.36-.75,11.1-1l1,0,.07.21a11.53,11.53,0,0,1,.6-2.53l.07-.19.13-.17A2.52,2.52,0,0,1,157,23.87a2.11,2.11,0,0,1,1.56,1.55l.27,1,5.43-3.5,3.82-4.34,2.83,2.55,4.37,1,.49,1.66h.92l1,.87L190,21.43l2.72,2.27-.17,1,1.17.61.22,3.83-1.67,4.12,4.83.29.87,1.63,11.09.67L210.36,40,213,42.66l.6,5,2.79,7.83L219.18,58l3.49-.09.73.13-1.91-4.34L221,49.83l-.89-1.52-1-4.85,4.34-.22,2.47-1.1,1.71-3.83-1.58-1.2-.83-2.29-4.9-1.63,11-2.93,9.58-3.73,6.63-.88,4.28,2.81,2.51,2.47.69,0,1.11.6L261,29.69c1.34-2.21,4.41-3.17,4.79-3.28l.44-.13,3,1.06,2.44-.78.35-.83c-3.92-3-3.92-3-3.92-3.83,0-.34.05-.64.77-1.81l.32-.52,6.08-1.27,1.29,1.57,4.38,0c.5-1,1-1.95,1.11-2.27.09-.53.39-2.06,1.48-7.07l.26-1.21,1.82.14,1.18,0,3-1.54,1-4.27,3.3,4.29L296,9.7l3.49,1.79,2.1-.3.45-.85,1.74-.07,1.4-.94,2.67.63-.4-.38,1-4.36,11.23,13-1.19,4.12-1.86,4.33L306,25l-5.4-2.29-2.78.39-1.7,4.86,2.74,1.43.18.55a17,17,0,0,0,4.43,6.56l1,.92-8.12,9.52-12.51-.31-3.39,4.15-8.12,6.61-3,3.32.31.88,1.78,1.53,3.1,8.79h1.67l3.93,9.31-.66,1.32,2.15,5,.12.45,1.84,2.14,1.59,4.37-.74.64c-1.9,1.65-6.81,6.62-6.95,9.94l.57,6.05-3.24.57-.1.17,1.32,3.51.39,2.9,7.64,6.87,4.67-1.32,1.08,5-4.4,10.06-1.55,1.25.13,3.63L283,149.3l-3.74-3.43-3.13,8.6-1.27,1.87-8.15,2-8.44,1.25-3.74,3.83-7.88,5.09-1.53-.45-1,1h-1.75l-2,1.35-.48,0s-1.62.09-4.28,2.75l-1.12,1.12-1.21-1.52-6.15,4.08-7,1.66-3.39-3.18-2.33.27-.9,1,.23,0-1.07,6.78,2.05,7.43-1.21,1,.28.75,1.59,1.25.4,4.23-.39.88.55.79,1.9,1.18,3.33,5-3.49,6.63-1.46,1.51-1.85,3.07-2.49,3.72-3.45,3.2-3.88-1.18-1,.53-.14.59,8.9,16.43-.15,3-2.8,2.74c-.52,1.62-2.84,8.92-3.14,12.89l0,.33-2.42,4.05-1.17-.56c-.2-.1-19.16-9.24-25.6-11.49l-1.51.93,1.58,8.52v8.25l-.68,2.2-1,1.85-.5,4.19-1.48,3.21.1,3.57-.91,5.89.31,2.47,1.71,4.09.12,4-3.77,6.55-.3,3.07,1.82,7.57.11,8.46-2.12,2.27-4.18,2.79-.6-.14a29.19,29.19,0,0,0-10.5.26l-6.2,4.72-9.3-8-3.93,5.21-3.46,4.17ZM118,331l4.68,10,7.89-5.67,3-3.73,5.72-7.59,9.85,8.49,4.91-3.74.33-.06a33.89,33.89,0,0,1,11.37-.41l3-2,1-1.09-.09-7.18-1.85-7.57.41-4.16,3.67-6.39-.08-2.7-1.65-4-.41-3.24.93-6-.11-4,1.57-3.41.52-4.27,1.18-2.2.41-1.4V261L172.43,251l4.29-2.63.62.2c5.18,1.65,20.93,9.14,25.41,11.28l.75-1.26c.47-4.87,3.23-13.19,3.35-13.56l.11-.32,2.5-2.45.06-1.14-9-16.69.68-2.87,3.12-1.71,3.46,1.06,2.13-2,2.15-3.27,2.1-3.42,1.29-1.33,2.52-4.79L215.85,203,214,201.81l-1.79-2.57.73-1.67-.21-2.29-1.26-1-1.25-3.42,1.34-1.07-1.72-6.22.56-3.52-1.72.28.37-5,2.24-.35,1.8-2,4.7-.55,3.24,3,5-1.19,4.78-3.17-1.26-7.54,5.26,6.59a9.51,9.51,0,0,1,4.71-2.47l2-1.36h1.41l1.35-1.41,1.94.57,6.65-4.3,4-4.2,9.33-1.39,6.9-1.74.56-.83,3.54-9.89,2.09-1,1.86,1.7,0-.26L281,138.8l2.12-1.71,3.75-8.59-.25-1.14-3.28.92-9.58-8.62-.51-3.76-1.66-4.3,1.43-2.48,2-.35-.34-3.62v-.08c.1-4.4,5.19-9.56,7.2-11.44l-.76-2.07-1.93-2.24-.26-1-2.56-6,.67-1.33-2.69-6.38h-1.79l-3.52-10-1.79-1.53L266.14,60l4.39-4.79,8.09-6.58,4-4.91,12.56.31,5.47-6.42a20.08,20.08,0,0,1-4-6.28l-3.92-2,3.09-8.8,5.27-.73,6,2.53,7.91,1.27,1-2.21.68-2.39-5.15-6-1.08.49-4.61-1.09-1,.69-.94.08-.34.64-4.42.62L294.28,12l-2.2-2.14-4.55,2.33-1.47,0c-.56,2.63-1.11,5.23-1.2,5.73,0,.33-.17.82-1.79,3.92l-.39.75-7.44.06-1.06-1.29-2.42.5c.79.62,1.86,1.45,2.86,2.2l.87.66-1.69,4.06-4.59,1.46-3-1.07c-.89.34-2.45,1.1-2.86,2.1l-.24.57-7.14,2.63-1.54-.83-1.14.06L250,30.57l-3.06-2-5.42.72L232.15,33,228,34.07l.46,1.29,2.7,2.06-3.08,6.87L224.17,46l-1.57.08.24,1.17.95,1.63.47,4.06,1.88,4.28,1,1.36L229.24,62l-6.78-1.17-4.36.11L214,57.06l-3.14-8.94-.5-4.15-2.45-2.45-.94-3-10.72-.65-.87-1.63-7.19-.43,2.92-7.19L191,27l-1.58-.82.24-1.39-.34-.28-12.42,3.27-1.29-1.17h-1.94L173,24.54l-3.48-.81-1.24-1.12-2.19,2.49-3.18,2-.15.56,1.48.93-1,1.13a1.86,1.86,0,0,0,.19,1l.11.27-.07,2.5-1.37,2.74L156,40.64l-.65-5-2.77-2.1-1-2.88a84.5,84.5,0,0,0-8.7.61l-2.18,1-2.9-2.47-5.66,1.4-2.35.44-2.59,1.2-3.87,1.62-.43-.09c-.69-.15-4-.95-5.17-3.15a4.74,4.74,0,0,0-1.18-.58,4.36,4.36,0,0,0,0,1.18l0,.15v.15c-.05.77-.41,4.69-2.3,6.32a3.08,3.08,0,0,1-1.41.71.69.69,0,0,0-.07.29,2.39,2.39,0,0,0,1,1.44l.3.25.12.37c.87,2.57,2.41,5.22,3.11,5.35l.61,0,.39.46c1.3,1.51,2,2.75,1.95,3.7a31.71,31.71,0,0,1,3.27,5.4l4.34.62,1.82,4.32-.23,2.76,5.21,6-4.33.54-1.09,2.11-3-2-6.25.13-1.71,1.06-11.47-3.75-5.48-3.31-3.21-.82a20.92,20.92,0,0,0-3.33,1.16l.14.85-10.65.88c-1.69,3.11-2.41,3.23-2.9,3.31-.67.11-2.14.16-2.43.17l-.65,0-3.69-4.07-9.42-3.83,3.4-4-.46-1.35L56.44,44.69l-1.11-1.35L42.25,40.7l-1.52.42L41,43.25,39,45.5l-2.34,5.75-2.08,1.12,4,7.84L36.3,73.86,38,82.36,37.81,85,40.66,99l-.48,8.82-4.45.49-2.4,2L34,143.1l9.32,39.83,4.42,12.59,1.69,9.86,2,3.63,18.07,20.42,4.92,10.8,3.92,10.9,7.88,21.68c.74.83,2.08,3,5,9.33L97.3,296.5l9.31,19.28.34,3.88,1.33,1.75,7.21,1Zm0-280.73h0Zm39.24-22.08,1,7.4L160,34.37l.77-1.54,0-1.29a4.63,4.63,0,0,1-.29-2l-.94-.6.28-1.06-1.38-1.06-.6.21A5.5,5.5,0,0,0,157.27,28.19ZM282.06,17.64a1.22,1.22,0,0,0,0,.2A1.89,1.89,0,0,1,282.06,17.64Z"/></svg>