<svg id="Layer_1" data-name="Layer 1" xmlns="http://www.w3.org/2000/svg" viewBox="0 0 350 350"><defs><style>.cls-1{fill:#999;}.cls-2{fill:#f90;}</style></defs><title>M</title><polygon class="cls-1" points="147.01 261.59 150.23 256.76 158.69 254.34 163.92 254.34 167.95 252.73 170.77 249.91 174.8 243.06 178.02 238.63 180.03 235.01 182.85 230.58 186.07 224.94 188.09 219.3 191.31 216.48 198.16 214.07 204.6 214.07 211.04 212.46 218.29 212.46 225.14 212.46 231.18 212.46 239.64 212.46 245.68 212.46 252.53 212.46 257.76 212.46 263.81 210.04 270.25 210.04 273.07 206.01 275.89 196.35 279.11 189.9 281.53 182.25 284.75 175.4 289.58 172.18 292.4 168.15 294.82 158.49 294.82 152.41 292.4 145.6 292.8 139.96 291.19 132.31 288.37 129.89 283.14 127.07 279.51 123.85 277.9 119.42 276.29 114.19 274.28 112.17 271.46 112.17 269.44 113.78 265.01 114.99 260.99 114.99 255.35 114.99 249.71 114.99 245.68 113.78 245.68 112.17 248.1 108.95 250.92 105.73 252.53 102.51 254.94 99.28 256.15 94.45 261.39 91.63 264.61 88.81 266.22 85.99 260.99 83.17 253.33 79.55 249.31 75.12 249.31 70.29 248.1 64.65 245.68 58.61 244.47 52.16 248.9 48.54 252.13 46.52 257.36 46.52 261.39 46.52 263.4 46.52 266.22 49.75 267.43 53.37 269.85 53.37 271.86 50.55 275.08 54.18 277.5 54.58 280.32 54.98 281.12 51.76 279.11 46.52 279.11 42.9 284.35 42.9 285.96 39.27 285.55 36.05 288.37 36.05 290.79 30.01 288.77 26.39 287.97 20.75 287.16 17.53 284.35 17.53 282.33 17.53 277.5 17.53 275.48 17.53 273.07 17.53 271.86 15.51 267.83 12.69 267.83 8.26 265.82 6.25 264.21 8.26 261.39 8.67 257.36 9.47 253.74 10.28 250.11 13.9 246.08 15.51 242.66 17.93 234.81 17.93 231.99 19.94 231.99 23.97 233.2 27.19 232.39 30.41 230.78 33.64 226.35 34.84 220.91 35.25 215.07 35.25 211.85 35.25 207.02 36.05 200.57 37.66 199.37 34.84 201.38 32.83 200.17 30.41 196.95 29.21 196.95 23.97 192.92 23.97 189.7 23.97 186.48 21.96 182.85 21.96 180.44 23.97 178.02 28 175.2 33.64 172.78 38.07 169.97 44.11 169.97 48.54 167.55 51.36 164.73 53.77 163.92 55.79 163.52 60.62 162.72 64.25 159.9 66.66 154.98 69.48 151.04 69.48 147.01 68.27 147.01 65.45 141.37 65.45 137.34 64.25 132.91 64.25 129.29 64.25 126.07 64.25 126.07 67.87 126.07 70.69 123.25 72.7 123.25 75.52 123.25 77.94 123.25 86.4 123.25 90.02 123.25 93.24 126.47 96.06 123.25 102.1 123.25 105.33 123.25 108.55 121.23 109.75 119.62 114.19 119.62 117.41 117.61 119.42 115.59 123.05 115.59 125.06 113.18 127.07 113.18 129.89 108.75 131.5 107.14 133.92 104.32 135.93 104.32 139.56 104.32 142.38 102.71 147.61 99.89 152.41 97.87 155.27 97.87 159.29 95.06 164.13 95.06 168.56 99.08 173.79 100.69 177.01 101.5 182.25 101.5 186.28 100.29 189.9 98.28 193.12 97.47 197.55 95.06 199.97 95.06 202.79 95.06 206.01 90.63 210.04 87.4 212.46 85.39 214.07 83.38 216.89 83.38 218.9 83.38 222.52 83.38 226.55 83.38 228.97 84.99 230.58 87 230.58 91.83 230.58 93.44 230.58 94.65 236.22 93.44 239.84 91.43 247.09 88.61 248.7 87 253.94 83.38 257.96 80.56 261.59 78.14 264.81 73.71 268.44 70.89 270.85 69.28 275.28 65.25 277.7 65.25 280.84 62.43 282.94 62.43 286.16 60.02 289.78 58.41 293 58.41 295.42 55.18 297.84 55.18 301.46 57.2 304.28 61.23 304.28 64.45 307.1 64.45 309.92 64.04 313.54 63.64 317.57 63.64 320.79 63.64 324.82 64.45 327.64 66.46 327.64 69.28 327.64 75.32 327.64 76.13 331.26 76.53 333.68 76.93 337.31 74.92 340.53 74.11 342.14 77.74 343.75 84.99 343.75 89.01 343.75 97.07 343.75 100.29 340.93 102.71 339.72 106.73 335.69 111.97 333.28 119.22 326.43 126.07 324.42 134.52 321.2 142.58 315.15 147.01 313.95 152.65 310.32 154.98 304.28 154.98 295.42 154.98 288.57 148.62 283.74 145 280.84 143.38 275.28 143.79 270.45 146.2 266.82 147.01 261.59"/><path class="cls-2" d="M97.6,345.17H77.44l-5.25-2.34,1.53-3.05,1.75-2.8-.35-3.13-.39-2.34-.54-2.44H63.38l-1.15-4v-7.59l.8-7.59v-2.1l-2.34-2H56.47l-2.7-3.78v-4.79L57,294.71v-2L58.84,289,61,285.73v-3.51l2.82-2.09V276.9l4.28-2.57L69.69,270l3.1-2.66,4.32-3.54,2.31-3.08,2.9-3.72,3.42-3.8,1.68-5.47,2.8-1.6,1.86-6.69,1.11-3.33L92.3,232H84.4L82,229.55V216.43l2.39-3.35,2.17-1.73,3.2-2.4,3.92-3.56v-6l2.52-2.52.78-4.26L99,189.29l1.08-3.25v-3.69l-.76-4.91-1.45-2.9L93.64,169v-5.3l2.82-4.83v-4.09l2.24-3.18,2.71-4.6,1.5-4.87v-7l3.2-2.29,1.72-2.59,3.94-1.43v-2.49l2.42-2v-1.72l2.29-4.12,1.74-1.74v-2.88l1.87-5.14,1.76-1.05v-6l2.86-5.36-2.86-2.5V72l2.82-2V62.83h12.9l4,1.21h6.85v3.18l2.82.85h3.36l4.48-2.56,2.36-2,.68-3.07.41-4.95,1-2.53,3-2.57,2-2.34V43.79l3-6.33L174,33l2.85-5.69L179.34,23l3-2.5h4.54l3.22,2h8.26v5.67l2.82,1.06,1.92,3.83L201,35.17l.36.83,5.38-1.34,5.07-.82h9l5.25-.39,3.69-1,1.26-2.52.66-2.64-1.14-3v-5l3.78-2.7h7.86l3.35-2.31,3.76-1.5L253,9l4-.9,4.06-.81,2.34-.34,2.25-2.81,3.55,3.55V12l3.67,2.57,1,1.58h14.4l1.1,4.44.77,5.38,2.21,4-3,7.56h-2.17l.25,2-2.14,4.83h-4.74v1.94l2.08,5.41-1.22,4.9L277.3,56l-2.94-.49L272,52.82l-1.4,2h-4.17L265,50.46l-2.21-2.52H252.53l-2.8,1.75-3.71,3,1,5.48,2.44,6.14,1.24,5.94v4.29l3.47,3.82,7.4,3.5,6.58,3.54-2.45,4.29-3.66,3.16-4.68,2.52-1.13,4.5-2.51,3.35L252,106.66l-2.78,3.18-2.1,2.8v.08l2.82.85h14.91l4-1.08,2.17-1.74h3.9l2.68,2.68,1.71,5.57,1.47,4L284,125.9l5.34,2.91,3.19,2.73,1.75,8.32-.4,5.54,2.4,6.76,0,6.67-2.48,9.92-3.12,4.46-4.73,3.15-3,6.4-2.47,7.77-3.16,6.33-2.85,9.77L271,211.46h-6.91l-6,2.42H211.22l-6.62,1.61h-6.2L192,217.73l-2.74,2.4-2,5.52-3.22,5.64-2.85,4.49-2.06,3.7L176,243.84l-4.21,7.07-3,3-4.55,1.82h-5.31L151.12,258l-2.76,4.14-.8,5.24-2.39,3.58-.35,4.21,1.41,4.88,3.27,2.62,6.89,5.24v16.67l-2.59,6.72-6.21,4-4.38,1.19-8,6-8.75,3.33-6.52,1.92-7.17,6.77-5.22,2.41-4,4-2.46,1.23ZM78,342.33h18.5l3.12-2.67,2.21-1.11,4-4,5.25-2.42,7.33-6.92,7.12-2.09,8.22-3.13,8.11-6.08,4.48-1.22,5.06-3.25,2.07-5.36V289.28l-5.8-4.41-4-3.2L142,275.43l.46-5.46,2.45-3.67.8-5.24,3.69-5.53,9.15-2.61h5.16l3.5-1.4,2.49-2.49,4-6.81,3.17-4.36,2-3.55,2.86-4.5,3.12-5.47,2.1-5.87,3.7-3.24,7.33-2.59h6.51L211,211h46.45l6-2.42h6l2.26-3.23,2.85-9.68,3.17-6.34,2.45-7.72,3.39-7.2,4.94-3.29,2.52-3.59,2.31-9.24v-5.66L291,145.79l.41-5.74-1.47-7-2.34-2-5.37-2.94-3.89-3.46-1.73-4.77-1.53-5-1.35-1.35H272l-1.85,1.48L265,116.41H249.5l-5.24-1.57V111.7L247,108l2.7-3.09,1.66-3.28,2.24-3,1.29-5.16,5.65-3,2.92-2.56.77-1.35-4-2.13-7.84-3.71-4.58-5V70.44l-1.15-5.37-2.45-6.2-1.36-7.27,5.23-4.26,3.57-2.23H264L267.48,49l1,2.93h.67l2.62-3.67,4.07,4.58,3.44.54.39-1.55-1.95-5.06V41.48h5.73l1.08-2.42-.55-4.42h3.46l1.81-4.52-1.81-3.26L286.58,21l-.52-2.08H272.26L270.8,16.5l-4.38-3.07V8.85l-.48-.48-1,1.21-3.37.48-4,.79-3.19.71-3.54,3.54-4.14,1.66-3.65,2.58h-7.85l-1.86,1.33v3l1.27,3.39-1,3.94-1.9,3.79-5.31,1.42-5.54.41H212l-4.66.78-7.56,1.89-2.06-4.81,2-2-.5-1-3.62-1.36v-4.8h-6.24l-3.22-2h-2.71l-1.84,1.53-2.26,3.77-2.79,5.59L174,38.75l-2.65,5.68v4.64l-2.91,3.37-2.55,2.19-.6,1.49-.41,4.81L164,65l-3.4,2.88-5.25,3h-4.53l-5.24-1.57V66.87h-4.43l-4-1.21h-9.65v5.76l-2.82,2V92.6l3.58,3.14-3.58,6.72v6.89l-2.27,1.36L121,114.44V118l-2.29,2.29L117,123.41v2.31l-2.42,2v3.15l-4.93,1.79-1.5,2.25-2.44,1.74v5.93l-1.81,5.74L101,153.22l-1.76,2.49v4l-2.82,4.83v3.57l3.88,5.08,1.71,3.42.86,5.67v4.26l-1.42,4.15-1.87,3-.84,4.6-2.32,2.31v6.08l-5,4.53-3.22,2.42L86.43,215l-1.64,2.29v11l.78.78h9l1.53,7.14-1.33,4L92.64,248l-2.84,1.62-1.54,5-3.8,4.22-2.79,3.58L79,265.91l-4.43,3.63-2.51,2.15-1.66,4.55-3.77,2.26v3.05l-2.82,2.09v2.94l-2.6,3.91-1.42,2.84v2.79l-3.22,2.42V301l1.33,1.86h3.83l4.11,3.59v3.62l-.8,7.57v7l.46,1.6H76.46L77.51,331l.42,2.49.47,4.19L76,341.45Z"/></svg>