<svg id="Layer_1" data-name="Layer 1" xmlns="http://www.w3.org/2000/svg" viewBox="0 0 350 350"><defs><style>.cls-1{fill:#999;}.cls-2{fill:#f90;}</style></defs><title>M</title><path class="cls-1" d="M145.69,11.45S140.6,31,142.34,34.58s5.22,1.12,5.22,1.12,11.07-2.86,18,5.47L179.14,36a25.41,25.41,0,0,1-.5,5.22c-.5,1.62.75,3.61,3.73,4.35s8.46-2.11,9.33-.12.5,4.48-.12,6.59-1.37,6.34-1.87,7.21-21.14,3.36-21.14,3.36.62,9.08,5.47,11.81,8.46,3.23,13.68,2.86-.37,5.1.37,9.45.62,6.09,3,7,9.45,4.6,11.44,7.09,12.31,10.57,18.53,10.45A33,33,0,0,1,232,112.8l2.49,12.93-16.29,38.8,14.8-.62s11.56-25.12,13.8-27.73l2.49,5.6,1.62,28s.12,20.52,2.49,23.38c0,0,5.22,27.85,7.34,30.22,0,0-4.23,9.08-4.85,12.31s-.37,8.08-.87,9.45-6,2.24-6.47,6.71-3.23,14.8-4.35,16.66-4.85,3.36-7.34,3S216.57,292.61,215.7,297s-1.74,13.93-1.87,15-3.3,5.78-4.48,6.59a22.94,22.94,0,0,0-1.93,4.23c-.28,1.34-2.3,3.33-3,4s-2.11,2.61-2,3.92-1.43,6-1.71,7.09-1.4,4.79-3.36,5.1-3.42-1.15-5.63-5.25a16.09,16.09,0,0,0-4.88-5.78,30.58,30.58,0,0,0-3.79-2.58,33.58,33.58,0,0,0-5.72-1.55c-.75.06-3.14-.28-3.42-1.15a13.79,13.79,0,0,0-1.43-2.8c-.37-.53-.22-1.15-1.15-1.4a2.41,2.41,0,0,0-1.9.62s-3,2.42-3.76,2.42-1.74-2.14-1.68-2.64-3.23-5.78-3.58-6.4-2.42-4.1-3.2-5.32-2.33-3.61-2.55-4-2.24-.87-2.74-1.09a2.08,2.08,0,0,1-1.31-2.64c.53-1.68.28-2.21,0-2.49s-2.15-.37-4.26-2.08-3.7-3.14-4.38-3.79-4.17-4.45-4.82-4.69-1-1.24-3-1.15-2.24.06-2.64.59-3,4.13-3.51,4.72-10-2.46-10-2.55-.44-3,3.7-5.22a8.78,8.78,0,0,1,3.23-.78c1.49,0,6.9-1.24,8-5.07a7.13,7.13,0,0,0,1.31-3.45,11.27,11.27,0,0,0-.93-4.48,18.85,18.85,0,0,0-1.65-3.36,36.29,36.29,0,0,0-4.17-5.16l-.53-.68s2.58-5.25,2.61-6.71a49.86,49.86,0,0,0-.37-5.81c-.19-1.31-1.62-7-1.83-7.86s-1.87-8.46-5.16-10.66A31.47,31.47,0,0,1,116,227.1c-.53-.62-3.7-5.1-3.26-7.77s1.55-4.51,3.61-5.32,11.94-2.67,11.6-5.13-5.63-4.26-6.31-4.57-7.49-3.08-7.9-4.88.06-3.89-.19-4.73-2.52-1.55-2.8-1.9-2-1.85-2.5-3.62-1-2.61-1-3.64-.53-5.19-3.68-5.41a8.92,8.92,0,0,0-5.08,1s-2.81,1.17-3.95,1a4.3,4.3,0,0,1-3.9-2.52c-1-2.18-1.31-2.5-1.27-3.25a32.21,32.21,0,0,1,.17-4.66,12.35,12.35,0,0,1,3.71-5.47c2.89-2.55,7-1.31,9.06-1.76a7.69,7.69,0,0,0,4-3c.33-.5,2.55-3.34,2.94-5.11s2.66-6,3.3-7.6,2.08-5.5,2.72-6.92,2.63-4.82,2.91-6.4,1-3.85,1.74-4,3.06.09,3.44,0-.08-6,.11-6.65,3.65,0,3.79-.16,0,.09,0-1.82-.14-4.65.17-5.1a5.11,5.11,0,0,1,3.2-2.55c2.24-.65,2.52-.16,2.5-2.13s.4-6.68-.09-8.7-2.15-5.94-2.11-6.87-.16-1.9,1-2.55,9.39-3.08,10.91-3.67a9.36,9.36,0,0,1,5.22-.78c2.8.22,7.24-.44,8.49-2.8,0,0,3-2.58.5-4.13s-7.21-1.55-8.42-3-2.15-2.77-2.74-3-1.46-.65-2.49,2.05S143.08,83,142,83.7s-1.55,1.55-3.76,1.55-4.07,1.34-8,1.06-12.28.9-13.77.9-14.58-.09-11-.12-6.4.28-9.16-3.22-4.06-7.13-4.06-8.39-1.17-4.24,1.59-5.13,2.47,1.17,4.62,2.52,2.84,2.84,5.83,2.28,6.62-2.33,7.46-3.5,4.1-4.15,3.64-6.44-.79-6.2-1.45-7.41-1.63-6.11-2.75-7.88-2.89-6.81-2.7-7.69,7.32-9.56,8.07-10.82,2.66-4.66,3.78-4.1,2.14,2.28,3.31.65,7.13-7.37,4.38-8.81c0,0-7.88-2.56-5.46-4.29S134.22,7,136.32,7a7.52,7.52,0,0,1,4.57,1.54C142.06,9.36,145.69,11.45,145.69,11.45Z"/><path class="cls-2" d="M196.8,344.4c-2.56,0-4.31-2.25-6.35-6a15,15,0,0,0-4.39-5.26L186,333a28.53,28.53,0,0,0-3.43-2.38,39.26,39.26,0,0,0-5.17-1.46c-.57.05-4.17-.12-4.82-2.13a12.54,12.54,0,0,0-1.24-2.42,3.42,3.42,0,0,1-.41-.82,1.45,1.45,0,0,0-.53.28c-3.43,2.79-4.36,2.79-4.71,2.79a2.29,2.29,0,0,1-1.72-.88,6.17,6.17,0,0,1-1.37-3c-.33-.8-2.08-3.69-2.75-4.81-.33-.54-.57-.95-.65-1.1-.34-.62-2.4-4.06-3.15-5.24l-.48-.75c-1-1.62-1.67-2.6-2-3.12-.31-.13-.93-.32-1.26-.41a10,10,0,0,1-.95-.31,3.46,3.46,0,0,1-2.09-4.37,5.51,5.51,0,0,0,.23-1,11.11,11.11,0,0,1-4-2.06c-2-1.64-3.67-3.11-4.47-3.87-.19-.18-.6-.61-1.11-1.14-.84-.88-2.79-2.91-3.34-3.3a3.51,3.51,0,0,1-.82-.53,1.84,1.84,0,0,0-1.55-.48l-.42,0c-.49,0-1,0-1.2.07l-.74,1c-1.3,1.79-2.4,3.31-2.83,3.76-.66.7-1.41.85-6.22-.51-2.31-.65-4.71-1.43-5.29-1.65a1.43,1.43,0,0,1-1-1.27c-.08-.94,0-4.14,4.43-6.56a9.73,9.73,0,0,1,3.95-1h0c1.31,0,5.75-1.21,6.55-4l.07-.24.14-.2a5.54,5.54,0,0,0,1-2.6,10,10,0,0,0-.75-3.81,8.3,8.3,0,0,1-.56-1.26,7.44,7.44,0,0,0-1-2c-2.89-4-3.71-4.74-3.84-4.84l-.17-.12-1.19-1.54.39-.79a31.71,31.71,0,0,0,2.47-6.12,49,49,0,0,0-.36-5.58c-.05-.36-.33-1.82-1.78-7.62l-.08-.32c-1.69-7.07-3.72-9.07-4.52-9.61a33.12,33.12,0,0,1-6.45-5.79s-4.18-5.26-3.58-8.92c.54-3.29,2-5.45,4.49-6.41.57-.22,1.52-.48,2.73-.81,2-.53,7.05-1.91,7.94-3-.18-.46-1-1.56-5-3.13l-.46-.19-.3-.13c-6.91-3-8.12-4.51-8.39-5.73a12.91,12.91,0,0,1-.17-3.43c0-.36,0-.82,0-1.08a8.94,8.94,0,0,0-1.22-.67,3.67,3.67,0,0,1-1.33-.86l-.18-.19a9.49,9.49,0,0,1-2.59-4c-.18-.68-.37-1.23-.54-1.7a7.39,7.39,0,0,1-.54-2.23c0-.16-.2-3.91-2.37-4.06a7.84,7.84,0,0,0-4.24.8l-.21.11c-.74.31-3.27,1.3-4.68,1.1a5.73,5.73,0,0,1-5-3.33c-.27-.6-.49-1.05-.67-1.41a4.77,4.77,0,0,1-.73-2.48c0-.19,0-.56,0-1,0-2.83,0-3.65.3-4.19,0-.05,0-.13.08-.22a13.42,13.42,0,0,1,4-5.71c2.43-2.14,5.46-2.07,7.67-2a10.45,10.45,0,0,0,2-.06,6.33,6.33,0,0,0,3.14-2.38l.33-.46a16.77,16.77,0,0,0,2.41-4.18,34.72,34.72,0,0,1,2.38-5.71c.41-.85.79-1.66,1-2.13s.63-1.6,1-2.66c.64-1.68,1.31-3.41,1.71-4.3.2-.44.51-1.05.88-1.75a23.76,23.76,0,0,0,1.93-4.32c.38-2.18,1.2-4.83,2.88-5.14a11.71,11.71,0,0,1,2.21,0H122c0-.74,0-1.73,0-2.43a12.77,12.77,0,0,1,.06-3.24c.42-1.39,2-1.37,3.75-1.23,0-.12,0-.25,0-.4,0-.67,0-1.45,0-2.19,0-2.13,0-3,.42-3.66l.08-.14a6.35,6.35,0,0,1,3.89-3c.53-.15,1-.25,1.3-.33l.18,0c0-.1,0-.23,0-.39,0-.58,0-1.4.06-2.32a30.27,30.27,0,0,0-.12-6.06c-.2-.81-.62-2-1-3.18-.82-2.34-1.15-3.36-1.13-4.08,0-.12,0-.23,0-.35a3.42,3.42,0,0,1,1.71-3.39,65.87,65.87,0,0,1,7.29-2.51c1.69-.53,3.28-1,3.81-1.24l.18-.07a10.6,10.6,0,0,1,5.67-.8c2.79.22,6.34-.55,7.12-2l.12-.24.2-.18a2.91,2.91,0,0,0,1-1.54c0-.1-.17-.23-.32-.32a14.29,14.29,0,0,0-4-1.31c-2.06-.47-3.83-.88-4.78-2l-.59-.73a15.47,15.47,0,0,0-1.56-1.79h0a4.9,4.9,0,0,0-.62,1.24,8.68,8.68,0,0,0-.56,2.33,2.9,2.9,0,0,1-1.36,2.47,6.57,6.57,0,0,0-.56.4,5.65,5.65,0,0,1-3.95,1.36,9.44,9.44,0,0,0-2.27.4,16.7,16.7,0,0,1-5.85.65,76.58,76.58,0,0,0-10.34.62c-1.77.18-2.8.29-3.33.29l-6.32,0-3.69,0c-.53,0-1,0-1.38,0H105a3,3,0,0,1-.82-.17C101,88,97,87.05,95.2,84.75c-2.73-3.47-4.36-7.44-4.36-9.27a7,7,0,0,0-.09-.74c-.21-1.4-.68-4.67,2.65-5.74a3.57,3.57,0,0,1,4.54,1.43,5,5,0,0,0,1.27,1.24,18.08,18.08,0,0,1,1.5,1.08c1.16.9,1.69,1.31,3.31,1,3-.56,6.09-2.26,6.57-2.93.2-.27.51-.64.88-1.07.89-1,2.74-3.14,2.51-4.26-.17-.83-.31-1.81-.46-2.84a21.88,21.88,0,0,0-.84-4.18,19,19,0,0,1-1.08-3.2,23.74,23.74,0,0,0-1.62-4.6c-1-1.53-3.23-7.14-2.89-8.74.14-.68.76-1.6,5.15-7.2,1.33-1.69,2.83-3.61,3.08-4l.14-.24c1.29-2.2,3.25-5.53,5.49-4.41a6.49,6.49,0,0,1,1.11.76l.42.32c.27-.38.7-.87,1.23-1.49.9-1,3.56-4.11,3.59-5.22-2.91-1-6.31-2.52-6.62-4.5a2.26,2.26,0,0,1,1-2.2c.11-.08,11.52-8.1,14.58-8.1a8.87,8.87,0,0,1,5.37,1.78c1.11.75,4.68,2.81,4.71,2.84l.94.54-.27,1c-2.44,9.35-4.4,20.19-3.45,22.15.46.94.94,1.07,1.09,1.11a3,3,0,0,0,2-.53l.21-.14.25-.07c.47-.12,11.34-2.81,18.79,5.17l14.56-5.61V36a25.56,25.56,0,0,1-.56,5.64,1.22,1.22,0,0,0,.15,1,4,4,0,0,0,2.57,1.61,11.44,11.44,0,0,0,4.17-.41c2.42-.5,5.16-1.07,6.11,1.09.86,2,.84,4.5-.06,7.56-.24.82-.51,2-.78,3.2a20.11,20.11,0,0,1-1.22,4.32c-.41.72-.83,1.46-20.8,3.89.43,2.86,1.71,7.71,4.6,9.34,4.76,2.69,8.2,3,12.88,2.68.59,0,2.36-.17,3.28,1.07s.31,3-.4,4.88c-.59,1.53-1.25,3.27-1,4.67.11.66.21,1.27.29,1.81.49,3.15.64,3.63,1.79,4.06,2.2.81,9.76,4.66,12.06,7.53,1.94,2.42,11.8,9.91,17.28,9.91H221a34.19,34.19,0,0,1,11.46,1.7l.75.28L236,125.88,220.36,163l11.7-.49c2.21-4.78,11.51-24.77,13.65-27.27l1.46-1.7,3.5,7.88,1.63,28.24c.06,9.7.9,21,2.16,22.56l.23.28.07.36c2.5,13.31,5.8,28,7,29.54l.54.68-.32.85c-1.16,2.48-4.26,9.47-4.74,12a40,40,0,0,0-.46,5.35,16.94,16.94,0,0,1-.47,4.32c-.35,1-1.29,1.48-2.47,2.13-2.08,1.15-3.69,2.19-3.92,4.26-.52,4.65-3.28,15.12-4.54,17.23-1.37,2.29-5.48,4-8.54,3.69-2.88,1.29-19,20.36-19.76,24.34-.73,3.64-1.46,11.09-1.74,13.9,0,.5-.08.86-.1,1-.17,1.51-3.22,6-4.78,7.36a19.45,19.45,0,0,0-1.64,3.59c-.1.46-.39,1.84-3.42,4.74a5.62,5.62,0,0,0-1.59,2.79c.08,1.15-.58,3.51-1.38,6.25-.17.56-.3,1-.37,1.28-.42,1.7-1.71,5.71-4.51,6.15A4.8,4.8,0,0,1,196.8,344.4Zm-9.15-13.65A17.78,17.78,0,0,1,193,337c2.37,4.41,3.36,4.65,4.16,4.52.6-.1,1.63-1.74,2.21-4,.07-.28.22-.78.4-1.39a33.89,33.89,0,0,0,1.27-5.25c-.15-2.06,1.77-4.39,2.46-5,2.34-2.24,2.59-3.18,2.61-3.28a22.29,22.29,0,0,1,2.08-4.64l.16-.28.27-.18a21.22,21.22,0,0,0,3.88-5.63c0-.11,0-.46.09-.94.28-2.84,1-10.4,1.78-14.17.69-3.45,8.67-13.22,10.26-15.14,9.83-11.87,11.75-11.58,12.48-11.47,2.11.32,5.16-1.06,5.91-2.31,1-1.63,3.67-11.68,4.16-16.09.41-3.7,3.51-5.4,5.37-6.43a10.21,10.21,0,0,0,1.21-.73,26.06,26.06,0,0,0,.27-3.36,41.73,41.73,0,0,1,.51-5.76c.55-2.88,3.65-9.79,4.65-12-2.26-4.73-5.88-23.32-7.08-29.73-2.26-3.76-2.54-19.16-2.56-23.92l-1.6-27.65-1.3-2.93c-2.75,5-8.49,17-12.3,25.32l-.36.79L216,166l17-40.46-2.25-11.69a33,33,0,0,0-9.68-1.29h-.16c-6.8,0-17.36-8.3-19.5-11-1.74-2.18-8.49-5.79-10.82-6.64-2.79-1-3.11-3.12-3.61-6.28-.08-.54-.17-1.12-.29-1.77-.37-2.16.48-4.38,1.16-6.16a13.33,13.33,0,0,0,.69-2.11,4,4,0,0,0-.73,0c-5.11.36-9.11,0-14.48-3s-6.16-12.55-6.19-13l-.09-1.34,1.34-.16c8.58-1,18.06-2.39,20.21-3,.22-.71.55-2.16.78-3.19.27-1.21.56-2.46.82-3.37.68-2.31.76-4.15.25-5.48a12.25,12.25,0,0,0-3,.4,12.85,12.85,0,0,1-5.44.38,6.69,6.69,0,0,1-4.35-3,4,4,0,0,1-.39-3.18,13.72,13.72,0,0,0,.37-2.71l-12.5,4.82-.65-.78c-5.86-7-14.84-5.39-16.38-5.06a5.58,5.58,0,0,1-4.11.8,4.53,4.53,0,0,1-3-2.63c-1.72-3.57,1.75-18.15,3-23.06-1.17-.69-3.13-1.84-4-2.4a6.15,6.15,0,0,0-3.77-1.29c-1.39.09-8.31,4.33-12.47,7.25a19.49,19.49,0,0,0,4.61,2.11l.22.09a2.66,2.66,0,0,1,1.42,1.88c.41,2.15-1.68,4.76-4.23,7.71-.46.53-.89,1-1.08,1.3A2.78,2.78,0,0,1,122.92,30a3.44,3.44,0,0,1-2.61-1l-.27-.21a15.39,15.39,0,0,0-2.13,3.08l-.15.25c-.33.56-1.41,1.95-3.29,4.35-1.53,1.95-4,5.13-4.58,6.07a26.65,26.65,0,0,0,2.49,6.62,24.13,24.13,0,0,1,1.95,5.33,22.17,22.17,0,0,0,.85,2.64,18.17,18.17,0,0,1,1.15,5.11c.15,1,.28,1.94.44,2.69.51,2.49-1.7,5-3.16,6.69-.3.35-.56.64-.72.86-1.19,1.65-5.39,3.51-8.35,4.06A6.06,6.06,0,0,1,99,75c-.39-.3-.8-.62-1.27-.92a7.71,7.71,0,0,1-2-1.86c-.62-.77-.62-.77-1.46-.5s-1,.66-.72,2.63a8.15,8.15,0,0,1,.12,1.15c0,.81,1.08,4.12,3.75,7.52,1.09,1.39,4.45,2.41,8.77,2.67a2,2,0,0,1,.39.06c2.88,0,8.66.08,9.89.08.41,0,1.68-.13,3-.27a76.53,76.53,0,0,1,10.83-.63,14,14,0,0,0,4.94-.57,11.66,11.66,0,0,1,3-.49,2.92,2.92,0,0,0,2.22-.78,9.41,9.41,0,0,1,.78-.56c0-.1,0-.27.05-.41a11.49,11.49,0,0,1,.72-3c.62-1.64,1.73-3.73,4.16-2.93,1,.31,1.71,1.22,2.91,2.72l.58.72c.33.41,2.07.81,3.22,1.07a16.37,16.37,0,0,1,4.86,1.66,3.2,3.2,0,0,1,1.65,2.51,5.1,5.1,0,0,1-1.77,3.72c-1.86,3.07-7.13,3.52-9.72,3.32a7.91,7.91,0,0,0-4.42.62l-.18.07c-.62.24-2.11.71-4,1.3-2.3.73-6.14,1.94-6.74,2.28-.25.14-.27.15-.27.92,0,.15,0,.29,0,.44a27.9,27.9,0,0,0,1,3c.43,1.23.87,2.49,1.11,3.44a30.34,30.34,0,0,1,.2,6.85c0,.86-.07,1.63-.06,2.18,0,2.11-.5,2.8-2.4,3.22-.3.07-.67.15-1.12.28a3.58,3.58,0,0,0-2.27,1.74l0,.07c-.05.4,0,1.47,0,2.19s0,1.62,0,2.34a9.16,9.16,0,0,0,0,1.42,1.53,1.53,0,0,1-.35,1.23c-.53.65-1.16.59-2.3.49-.28,0-.79-.07-1.22-.08,0,.49,0,1.1,0,1.61.11,3.87.14,4.79-1,5.23a5.66,5.66,0,0,1-2.07.11c-.38,0-1,0-1.32,0a10.23,10.23,0,0,0-.89,2.87,22,22,0,0,1-2.2,5.13c-.33.64-.63,1.21-.81,1.61-.37.81-1,2.59-1.64,4.15-.41,1.08-.8,2.09-1.06,2.72s-.61,1.35-1.05,2.28a35.89,35.89,0,0,0-2.17,5.09,16.82,16.82,0,0,1-2.88,5.23l-.25.36s-2,2.95-4.91,3.59a11.76,11.76,0,0,1-2.7.13c-1.93,0-4.13-.1-5.73,1.31a10.75,10.75,0,0,0-3.19,4.58l-.13.33c-.09.49-.08,2.3-.08,3.08,0,.51,0,.93,0,1.15s0,.25.45,1.13c.18.38.41.85.7,1.47a2.86,2.86,0,0,0,2.71,1.69,10.28,10.28,0,0,0,3.22-.87,10.64,10.64,0,0,1,5.81-1.15c3.47.24,4.87,3.79,5,6.76a5.2,5.2,0,0,0,.38,1.41c.18.5.4,1.13.61,1.93a7.22,7.22,0,0,0,1.87,2.71l.23.24.49.25c1,.51,2.35,1.14,2.69,2.29a6.68,6.68,0,0,1,.11,2.14,10.66,10.66,0,0,0,.1,2.68s.76,1.17,6.74,3.74l.36.16.34.14c3,1.18,6.42,2.88,6.79,5.53.4,2.88-3.91,4.28-10,5.93-1,.28-2,.54-2.43.71-.94.37-2.24,1.21-2.73,4.23-.3,1.83,2.16,5.7,2.95,6.63a30.15,30.15,0,0,0,5.86,5.27c3,2,4.73,7.24,5.7,11.3l.07.29c.75,3,1.68,6.8,1.84,7.91a51.06,51.06,0,0,1,.39,6c0,1.38-1.5,4.68-2.35,6.47a35.28,35.28,0,0,1,4.17,5.23,10.2,10.2,0,0,1,1.36,2.63,5.83,5.83,0,0,0,.37.85,12.61,12.61,0,0,1,1.12,5.15,8,8,0,0,1-1.43,4.1c-1.49,4.57-7.69,5.93-9.31,5.86a7.12,7.12,0,0,0-2.61.65,5.19,5.19,0,0,0-2.79,3,70.43,70.43,0,0,0,7.83,2.14c.58-.75,1.68-2.27,2.27-3.08l.83-1.14c.77-1,1.51-1,3.29-1.13l.41,0a4.6,4.6,0,0,1,3.46,1.11,1.79,1.79,0,0,0,.2.16c.57.21,1.41,1,4.22,3.92.47.49.84.88,1,1,.76.73,2.34,2.13,4.3,3.72a8.47,8.47,0,0,0,3.13,1.57,2.52,2.52,0,0,1,1.3.67c1,1.09.65,2.63.26,3.85-.08.26-.19.61.52.92.12.05.35.11.61.19,1.48.44,2.41.75,2.82,1.56.16.32,1.35,2.16,2,3.15l.49.76c.8,1.24,2.89,4.74,3.25,5.4l.6,1c2.85,4.73,3.19,5.5,3.16,6.11a4.28,4.28,0,0,0,.47,1,26.28,26.28,0,0,0,2.66-1.92,3.74,3.74,0,0,1,3.16-.89,2.55,2.55,0,0,1,1.87,1.76,1.12,1.12,0,0,0,.08.19,15.77,15.77,0,0,1,1.54,3,5.47,5.47,0,0,0,2,.4c1.31-.13,6.29,1.62,6.34,1.64A26.68,26.68,0,0,1,187.65,330.75Zm-22.21-6.67Zm-.06-1.29Zm-2.82-.14v0Zm-25.9-31.05h0Zm117.08-47.14ZM111.63,191.74h0ZM123,130.07Zm5.58-11.55h0Zm16.84-39.63h0ZM109.81,42.71h0Zm.07-.32h0ZM122.35,27.3Z"/></svg>