<svg id="Layer_1" data-name="Layer 1" xmlns="http://www.w3.org/2000/svg" viewBox="0 0 350 350"><defs><style>.cls-1{fill:#999;}.cls-2{fill:#f90;}</style></defs><title>M</title><path class="cls-1" d="M37.31,81.06,9.92,80.28s-3.2-.69-2.72,2.41l-1,22.52L10,109.6s2,1.72,0,6.58L11.4,123s9.59,2.53,8.45,8.21L22,132.94l4.49.33,11.79,5.3L41.08,144s7.73,2.77,8.16,3.44,1.86,1.48.29,3.67c0,0-3.15,2.17-2.55,3.65s7.83.55,7.83.55a21.82,21.82,0,0,0,2.7-1.36s.52-.55,2,.62a1.79,1.79,0,0,0,2.62-.41,2.13,2.13,0,0,1,1.38,1.79c.07,1.34-1.53,3.72,2,5.92A24.08,24.08,0,0,0,67,167.05a26.82,26.82,0,0,1,1.55,5.54s-5.3-.74-5.8.93,3.44,3.08,3.44,3.08l13.5,8s.12,4.44,2.31,6.47,4.25,4,4.25,4-5.58,5.68-5.56,9.61,6,4.58,6,4.58,1.88.86,1.07,2.41-2,3.7-2,3.7l-.57,2.1s-4.68,7.49-2.67,11.09,6.58,9.5,7.21,10.52,3.91,6.47,4.06,7.35-.45,14.74-.24,15.05,2.15,11.31,9.45,17.75c0,0,3.44,3,4.77,6s6.92,11.17,7.83,12.88,4.39,6.25,4.72,7.92,2.53,6.06,2.53,8.49,2.53,15.27,3.72,16.8,1.62,6.82,8.68,7.73,10.59-2.53,12.55-6.11,9.11-14.12,10.16-15.56,11.17-16,11.79-16.84,18.32,13.74,18.32,13.74,4.68,5.25,6.49,1.72,11-15.46,11.26-16.7,4.2-6.73,3.44-10c0,0-1.29-2.62.72-6.25s7-16.13,7-16.13L224.41,249s2.82-8,3.63-10,6.92-11.31,7.35-13.12,3.24-6.06,4.53-7.73,7.44-9.45,14.41-13.69,12.74-5.06,18.47-5.49,15.75.19,17.18.19,24.14-.62,27.48-.52l16.27-1.29s7.54-3.87,7.83-5.2,1.53-19.8,1.1-24.24c0,0,1-19.61.67-22.67s-.43-24.72-.19-28.25.25-18.94.24-22.47.1-15.75,0-19.18-.19-15.17,0-18.47.33-14.22.28-17.51.12-12.22,0-15a48.75,48.75,0,0,1,0-5.15c0-.86-17.85-8.45-17.85-8.45l-17.23,1.29s-8.64,0-10.26,4.68-5.49,9.5-6.25,10.69-12,9.16-13.17,10.45-4.15,5.63-5,6-8.4,5.82-8.92,7.92-14.79,15.46-15,17-3.15,2.34-5.11,2.58l-1.43-1.1a7.58,7.58,0,0,0-5.11-6.68s-7.73,6-8,8.25c0,0-13.6,14.74-15.13,15.27s-2.29-1.19-1.81-2.58,2.15-9.26,2.15-9.26S209,71.43,205.51,75a6.74,6.74,0,0,0-2.2,6c.67,3.63.33,4.63.33,4.63s.14.67-2.39.24-3.82-.52-3.82-.52-2.34,6.73-5.73,8.25-15.84-2.15-19.18-4.77c0,0-2.19-.48-.76-2.72s1.72-5.73,1-6.3-2.91,0-3.77,1.1S165.29,83,165.29,83s-3.39-4.7-6.68-5.13c0,0,1.43-3.15,2.08-5.08l1.72-4.29,2.51-1s1.86-.79,1.86-1.65a29.43,29.43,0,0,1,.5-3.36s.14-1.65-1.86-.86L159,65.58l-1.29-1.29s1.07-1.36.57-2.43c0,0-.21-.79-2.43-.14l-2.86.72s2.86-1.36,2.15-2.65-9.95-.64-9.95-.64l-4.94-1.72-9.81,8.45-4-1.5s-8.37,5.65-9.66,7.44-7.3,3-8.66,2.22S86,67,86,67L84.74,72.1s-25.84-5-36.36-2.22L40.3,74.24Z"/><path class="cls-2" d="M137.5,340.64a18.9,18.9,0,0,1-2.41-.16c-6.31-.81-8.09-4.9-9-7.1a7.32,7.32,0,0,0-.57-1.16c-1.54-2-4-15.44-4-17.67a20.09,20.09,0,0,0-1.53-5.32,21.59,21.59,0,0,1-1-2.9,27,27,0,0,0-2.8-4.73c-.76-1.14-1.42-2.12-1.78-2.8s-1.33-2.19-2.42-3.88a103,103,0,0,1-5.44-9.08,20.71,20.71,0,0,0-4.41-5.48c-4.42-3.9-7.68-9.88-9.7-17.8l-.1-.41c-.25-.48-.22-1.41,0-8.72.08-2.69.17-6,.14-6.69a60.42,60.42,0,0,0-3.85-6.83c-.18-.3-.82-1.17-1.49-2.1a98.1,98.1,0,0,1-5.76-8.5c-2.22-4,1.73-10.93,2.6-12.35l.65-2.23s1.21-2.15,2-3.66a.38.38,0,0,0,0-.11,1.12,1.12,0,0,0-.31-.27c-2.72-.37-7-2-7-5.95,0-3.44,3.26-7.61,5-9.56-.8-.76-2-1.89-3.22-3-2-1.87-2.57-5.13-2.72-6.67l-12.75-7.59c-1.35-.5-5-2.12-4.18-4.77.56-1.88,3.11-2.21,5.38-2.11a16.34,16.34,0,0,0-1-3.28,21.74,21.74,0,0,1-1.51-5,5.26,5.26,0,0,1-2.26-6,4.43,4.43,0,0,0,.1-.69,3,3,0,0,1-3.46-.34,3.25,3.25,0,0,0-.62-.4,25.26,25.26,0,0,1-2.67,1.32l-.18.08-.2,0c-8.31,1.07-9.07-.81-9.32-1.42-.88-2.19,1.72-4.38,2.85-5.19.5-.74.37-.89,0-1.37l-.28-.34a71.93,71.93,0,0,0-7.58-3.06l-.52-.19-2.84-5.45-11.11-5-4.67-.35-3.16-2.53.17-.85c.86-4.25-7.33-6.53-7.42-6.56l-.86-.23L8.6,116l.16-.39c1.49-3.7.31-5,.3-5l-.1-.11-4.13-4.81,1-23a3.39,3.39,0,0,1,.91-3.07,4.11,4.11,0,0,1,3.38-.82l26.32.75,2.8-6.39L48,68.51c9.44-2.51,30.15,1,35.66,1.95l1.25-5.23,1.44.43c4.92,1.47,21.1,6.34,22.49,7.15,1,.38,6-.64,6.8-1.82,1.37-1.9,8.59-6.82,10-7.79l.61-.41,3.91,1.46L140,55.82l5.44,1.89c9.85-.66,10.65.77,11,1.39a2.3,2.3,0,0,1,.29,1,3.3,3.3,0,0,1,2.08.29,1.9,1.9,0,0,1,.85.92,3.14,3.14,0,0,1,.1,2.19l5.17-3.17a2.82,2.82,0,0,1,2.88.14,2.49,2.49,0,0,1,.92,2.16l0,.16a26.72,26.72,0,0,0-.47,3.09c0,1.62-1.91,2.6-2.73,3l-2,.79L162,73.34c-.36,1.09-1,2.57-1.45,3.66a15.87,15.87,0,0,1,5.19,4.3,7.23,7.23,0,0,0,2.15-1.3,5.49,5.49,0,0,1,3.52-1.84,3,3,0,0,1,2.25.51c1.71,1.37.76,5.9-.69,8.17a1.83,1.83,0,0,0-.25.52l.15.06.28.08.27.19c3.68,2.9,15.38,5.65,17.72,4.59s4.42-5.83,5-7.43l.36-1,1.09.08c.06,0,1.38.11,4,.54.34.06.61.09.82.11a21,21,0,0,0-.4-3.32,8.12,8.12,0,0,1,2.62-7.31c4.26-4.2,11.49,0,11.8.15l.88.52-.21,1c-.17.81-1.7,8-2.19,9.43a1.12,1.12,0,0,0,0,.76c1.4-1,8.24-8,14.32-14.62.94-2.63,6.12-6.87,8.42-8.66l.64-.5.75.29a9,9,0,0,1,5.94,7.25l.47.36c2-.33,3.21-1,3.31-1.31.15-1,1.25-2.31,7.35-8.63,2.91-3,7.3-7.57,7.72-8.59.67-2.7,8.29-8.07,9.62-8.77a34.4,34.4,0,0,0,2.77-3.38c.73-1,1.35-1.78,1.79-2.27A69.4,69.4,0,0,1,284,32.13c2.58-1.94,6.47-4.87,7-5.5.12-.19.38-.56.73-1,1.33-1.86,4.1-5.73,5.35-9.31,1.93-5.51,11.2-5.62,11.59-5.62l17.47-1.31.32.13c18.81,8,18.77,8.67,18.71,9.83v.13a47.21,47.21,0,0,0,0,4.89c.06,1.61,0,5.17,0,8.61,0,2.57,0,5,0,6.41,0,3.1,0,14.19-.29,17.63-.23,3.17-.14,14.89,0,18.32.07,2.42,0,9.17,0,14.11,0,2.18,0,4,0,5.11,0,.18,0,18.56-.25,22.57-.24,3.53-.1,25,.19,28s-.58,21.08-.66,22.77c.41,4.68-.82,23.12-1.13,24.57-.12.54-.43,2-8.56,6.16l-.25.13-16.63,1.32h-.08c-2.27-.07-14.17.22-21.27.39-3.32.08-5.72.14-6.17.14s-1.15,0-2.26-.08c-3.67-.15-10.49-.44-14.81-.12-5.51.41-11,1.13-17.84,5.28-6.53,4-12.39,11.22-14,13.35-1.5,1.94-3.95,5.81-4.28,7.19-.27,1.15-1.82,3.78-4.34,8-1.36,2.25-2.76,4.58-3.07,5.35-.79,1.95-3.57,9.88-3.6,10l-7.47,18c-.2.49-5,12.61-7,16.27-1.59,2.87-.71,4.88-.67,5l.1.29c.67,2.89-1.33,6.64-2.66,9.12a16.36,16.36,0,0,0-.78,1.55c-.17.75-1.16,2.2-5,7.54-2.58,3.62-5.51,7.73-6.41,9.48a3.36,3.36,0,0,1-2.61,2c-2.62.34-5.41-2.52-6.12-3.3-6.73-5.55-14.28-11.47-16.82-13L167,307.06c-3.2,4.59-7.19,10.31-7.84,11.19-.94,1.28-8.14,11.87-10.06,15.4A12.44,12.44,0,0,1,137.5,340.64ZM95,261.17c.05.16.1.36.18.67C97,269.2,100,274.71,104,278.22c.15.13,3.68,3.24,5.13,6.44.8,1.77,3.37,5.78,5.25,8.72,1.22,1.9,2.18,3.4,2.54,4.09s.94,1.52,1.63,2.55c1.79,2.66,3,4.5,3.23,5.76a21.55,21.55,0,0,0,.84,2.45c.8,2.12,1.72,4.52,1.72,6.33,0,2.44,2.48,14.52,3.43,15.94a8.2,8.2,0,0,1,.93,1.76c.94,2.15,2.1,4.82,6.81,5.42,5.14.66,8.78-1.1,11.13-5.38,2-3.7,9.28-14.37,10.26-15.71.63-.86,4.6-6.56,7.8-11.14,2-2.93,3.74-5.36,4-5.7l.36-.5.68-.11c.69-.09,2-.25,19.34,14.09l.16.15c1,1.1,2.85,2.58,3.72,2.46.07,0,.24,0,.45-.45,1-1.93,3.86-5.95,6.63-9.83,1.88-2.63,4.21-5.9,4.53-6.62a11.78,11.78,0,0,1,1-2.16c1-1.81,2.76-5.16,2.42-7a8.67,8.67,0,0,1,.83-7.36c1.94-3.51,6.84-15.84,6.89-16l7.45-17.92c.09-.25,2.81-8,3.62-10a65.22,65.22,0,0,1,3.27-5.75,68,68,0,0,0,4-7.17c.54-2.27,3.7-6.85,4.79-8.27,1.71-2.22,7.85-9.81,14.79-14,7.35-4.48,13.47-5.27,19.1-5.69,4.49-.34,11.42,0,15.14.11,1.05,0,1.82.08,2.14.08l6.1-.14c7.51-.18,18.83-.45,21.34-.39L333.33,196c2.9-1.5,6.19-3.48,6.86-4.26.27-2.08,1.46-19.37,1-23.65v-.21c.26-5.43.9-20,.67-22.46-.29-3.07-.44-24.9-.19-28.48.22-3.28.25-17.61.24-22.38,0-1.07,0-2.95,0-5.13,0-4.91.06-11.64,0-14-.11-3.57-.19-15.3,0-18.61s.33-14.25.28-17.39c0-1.43,0-3.88,0-6.47,0-3.41.05-6.94,0-8.48-.09-2.21,0-3.64,0-4.59-1.94-1.18-9.58-4.63-16.63-7.62l-16.88,1.26c-2.22,0-8,.72-9,3.73-1.39,4-4.31,8-5.72,10-.3.43-.54.76-.68,1-.48.75-2.23,2.13-7.63,6.2-2.34,1.76-5.25,4-5.67,4.43s-1,1.23-1.66,2.1c-2.25,2.95-3.07,3.92-3.83,4.23-1.24.62-7.65,5.58-8.09,7s-2.27,3.43-8.41,9.8c-2.58,2.67-6.09,6.32-6.62,7.25-.55,2.63-4.58,3.4-6.31,3.61l-.58.07L242.13,71v-.7a6.09,6.09,0,0,0-3.48-5c-3.56,2.84-6.61,5.87-6.82,6.81l-.06.45-.3.32c-6.31,6.85-14.17,15.12-15.71,15.65a2.7,2.7,0,0,1-2.89-.61,3.7,3.7,0,0,1-.73-3.77c.29-.85,1.21-4.93,1.87-8-1.72-.78-5.48-2.13-7.5-.11l-.09.09a5.28,5.28,0,0,0-1.71,4.67,14.67,14.67,0,0,1,.35,5.08,1.65,1.65,0,0,1-.45,1c-.63.66-1.7.81-3.58.49-1.14-.19-2-.32-2.65-.4-.87,2.13-3,6.64-6.08,8-4.16,1.88-16.76-2.15-20.42-4.78a3,3,0,0,1-1.81-1.62,3.3,3.3,0,0,1,.51-3.14A8.3,8.3,0,0,0,171.74,81a2.82,2.82,0,0,0-1.61.77c-1.05,1.35-3.81,2.41-4.35,2.6l-1,.37-.63-.87c-.79-1.09-3.53-4.27-5.71-4.55l-1.9-.25.79-1.74s1.41-3.1,2-4.94l2-4.94,3.07-1.23a4.26,4.26,0,0,0,1-.59,24.1,24.1,0,0,1,.35-2.48l-6.88,4.25-3-3,.78-1a2.41,2.41,0,0,0,.28-.49,5.92,5.92,0,0,0-.64.15l-2.91.73-1-2.66a6.08,6.08,0,0,0,1-.58,48.07,48.07,0,0,0-8.05,0l-.29,0L140.59,59l-9.82,8.46L126.66,66c-3.36,2.3-8,5.66-8.7,6.69-1.45,2-8.19,4-10.52,2.62C106.36,74.7,94.88,71.17,87,68.8l-1.18,4.94-1.33-.26c-.25,0-25.38-4.87-35.57-2.28L41.4,75.26l-3.17,7.25-28.6-.84a1.6,1.6,0,0,0-1,.08s-.11.23,0,.73l0,.14-.94,22.1,3.36,3.92c.53.53,2.32,2.78.49,7.69l1.09,5.58c2.43.8,9,3.47,8.73,8.71l1.18.95,4.3.32,12.46,5.6,2.79,5.34c7.68,2.77,8.1,3.42,8.35,3.82,0,.06.1.13.17.2.56.64,2,2.34.08,5.07l-.14.2-.2.14A8.08,8.08,0,0,0,48.48,154a23.92,23.92,0,0,0,5.94-.12,20.52,20.52,0,0,0,2.18-1.08c.43-.35,1.69-1,3.79.6.13.1.21.14.26.13a.85.85,0,0,0,.34-.24l.61-.86,1,.35a3.5,3.5,0,0,1,2.34,3.05,5.7,5.7,0,0,1-.15,1.38c-.25,1.29-.42,2.21,1.51,3.41l.54.34.11.63a21.93,21.93,0,0,0,1.34,4.8,26.88,26.88,0,0,1,1.69,6l.34,1.92L68.4,174a13,13,0,0,0-4,0,8.16,8.16,0,0,0,2.32,1.26l.25.12,14.17,8.44,0,.78c0,1.07.43,4.14,1.86,5.46,2.21,2,4.27,4,4.27,4l1,1-1,1c-2,2-5.17,6.18-5.15,8.61,0,2.6,4.7,3.17,4.75,3.18l.23,0,.21.1a3.8,3.8,0,0,1,2,2,2.87,2.87,0,0,1-.21,2.31c-.7,1.33-1.67,3.06-2,3.58l-.58,2.13-.11.18c-1.64,2.63-3.8,7.57-2.64,9.66a96.48,96.48,0,0,0,5.57,8.21c.91,1.24,1.39,1.91,1.61,2.27,4.06,6.71,4.18,7.46,4.24,7.86s0,2.05-.11,7.25C95,256.4,94.91,260.31,95,261.17ZM204.48,299v0ZM94.74,260.73h0ZM48.26,148.4Zm-.21-.24h0ZM273.5,42.54l-.08,0Z"/></svg>