<svg id="Layer_1" data-name="Layer 1" xmlns="http://www.w3.org/2000/svg" viewBox="0 0 350 350"><defs><style>.cls-1{fill:#999;}.cls-2{fill:#f90;}</style></defs><title>M</title><polygon class="cls-1" points="317.43 69.04 317.43 70.28 314.36 77.12 311.64 79.72 311.64 81.02 321.56 85.03 321.56 87.86 317.78 92.35 318.14 97.19 321.56 97.78 325.22 95.89 327.46 92.23 331.83 90.81 332.42 95.54 330.77 100.14 329 101.72 329.94 106.99 329.23 108.52 331.71 110.76 331.59 112.42 329.7 113 331 117.73 330.77 121.15 330.18 132.48 329.82 142.4 333.13 146.17 338.79 146.17 343.75 162.11 343.75 169.66 339.38 171.19 335.87 171.19 333.36 172.73 330.53 176.39 326.52 175.44 325.45 175.68 322.15 173.44 319.44 172.96 318.37 172.02 313.18 171.67 310.11 173.67 307.16 175.09 304.33 172.14 302.79 172.14 301.49 173.2 300.79 174.85 300.79 178.28 298.07 180.4 297.36 182.05 299.96 184.41 297.36 188.31 298.54 193.26 298.9 197.04 297.84 198.81 300.79 199.88 299.49 202.35 298.54 203.77 298.54 206.13 301.97 208.37 300.08 216.04 298.19 217.22 296.3 219.94 294.88 221.95 294.88 224.66 293 226.31 292.29 229.15 289.57 232.81 286.74 236.46 283.67 238.94 281.67 242.13 276.59 245.91 276 258.54 273.29 261.25 270.33 263.14 268.44 264.67 267.38 267.15 267.38 270.81 268.92 273.29 271.51 274.12 274.11 273.29 275.88 274.12 276.71 278.25 278.83 278.25 279.78 279.66 279.19 280.96 277.06 280.96 275.76 280.96 267.38 275.53 263.61 274 254.87 268.8 252.98 265.5 250.74 263.49 248.62 262.55 246.14 262.9 242.16 262.18 236.49 262.07 234.75 257.3 234.75 255.05 231.82 253.99 229.47 254.43 226.6 254.1 227.22 255.11 227.22 256.51 220.76 258.2 217.96 259.82 212.74 265.44 199.99 268.86 196.74 271.22 191.35 273.8 183.43 276.72 181.07 277.4 176.75 277.23 174.84 272.85 171.59 271.73 168.22 269.42 166.93 269.37 165.86 269.65 161.87 268.92 159.4 268.92 156.6 269.54 154.8 270.04 153.45 270.83 142.73 271.11 139.98 272.17 138.63 273.3 135.77 273.3 134.25 271.33 131.05 270.15 128.97 268.13 124.99 267.18 112.08 272.29 110.45 272.23 101.86 270.71 96.92 264.14 91.25 263.69 79.74 264.71 76.76 267.12 72.94 265.88 70.81 261.45 69.91 258.02 53.41 263.64 44.2 262.35 39.04 262.96 38.64 259.32 37.8 256.85 36.23 254.82 33.53 253.65 30.45 253.93 25.62 254.15 20 255.5 12.14 255.56 10.12 251.07 7.48 250.28 8.83 248.2 9.96 244.72 10.57 243.04 11.86 241.13 12.2 239.17 11.58 237.48 9.67 236.03 6.81 235.74 7.37 234.12 9.84 231.42 11.75 230.69 14.68 230.35 21.46 228.05 24.83 226.76 29.32 223.39 30.45 220.92 40.55 213.63 44.82 210.59 46.5 207.34 48.3 205.49 46.95 203.74 50.15 203.41 53.52 200.6 55.43 196.05 55.82 194.2 53.97 193.19 49.2 193.19 47.35 193.58 40.55 193.47 38.03 192.97 35.78 192.91 31.63 191.45 28.76 191.17 25.39 191.68 23.15 187.63 20.29 185.44 12.99 185.44 9.62 185.67 7.71 184.1 6.25 183.48 7.82 182.24 11.92 182.07 17.76 179.16 21.69 178.31 23.6 177.69 28.2 177.69 34.04 175.28 38.14 172.19 41.84 171.24 46.73 170.79 49.53 169.11 50.49 167.09 50.15 164.34 48.86 162.03 47.23 160.24 44.93 159.51 42.57 159.45 39.15 160.29 36.4 160.8 33.48 161.7 31.06 161.87 29.21 159.9 26.68 158.83 25.39 156.92 25.56 153.11 23.04 148.28 20.51 145.92 20.12 143.79 28.54 143.79 31.18 144.85 32.58 145.92 41.39 145.7 45.16 143.45 47.06 140.92 51.27 138.45 54.25 135.87 56.44 134.13 58.46 132.11 60.88 131.44 62.5 131.21 65.31 131.94 67.61 130.88 72.1 130.48 80.36 126.05 86.08 122.12 87.09 118.97 89.51 117.63 93.33 114.31 95.01 111.73 95.29 110.27 97.54 107.63 99.11 104.94 99.95 104.43 102.03 107.18 109.94 108.03 111.18 108.53 110.78 110.83 111.96 112.46 113.48 113.64 116.12 114.54 123.64 114.09 128.3 114.14 132.17 114.43 135.21 116.05 138.97 116.56 144.02 117.46 147 119.59 149.47 119.81 151.04 119.14 153.4 116.33 153.28 115.16 149.19 114.88 143.18 114.93 139.36 115.61 134.93 113.7 135.49 112.74 137.62 112.46 141.83 110.1 145.98 108.47 150.7 105.39 152.95 105.44 160.08 111.68 168.38 112.01 169.9 114.09 170.57 117.18 170.63 122.17 177.09 126.72 178.71 126.83 179.72 130.2 180.9 131.27 181.8 132.95 185.28 134.02 186.91 134.3 188.54 134.92 196.46 134.52 199.32 133.01 199.99 130.48 201.28 128.8 206.28 130.93 210.94 131.49 211.84 129.3 214.65 126.95 216.83 126.05 220.31 123.07 223.18 120.94 223.57 118.81 225.31 117.01 227.67 113.14 227.73 111.06 230.93 108.36 231.77 105.78 233.06 104.6 233.56 102.19 238.06 100.45 242.38 97.47 243.95 93.99 249.45 91.35 249.62 88.83 255.96 87.14 267.08 87.25 271.74 86.8 275.33 85.85 278.25 88.15 280.27 87.87 281.73 86.02 283.75 85.74 285.66 83.38 289.09 82.03 292.9 74.62 317.43 69.04"/><path class="cls-2" d="M280.1,282.38h-4.75l-8.62-5.58-3.84-1.58-9.06-5.38-2-3.43L250,264.7l-1.55-.69-2.3.33-4.1-.74-6.53-.13-2.16-5.92V256l-1.62-.59-2.19.42-.88-.1v1.84l-7.33,1.91-2.46,1.42-5.35,5.76-12.88,3.46-3.26,2.34-5.51,2.63-8,3-2.58.74-5.44-.21-2-4.62-2.85-1-3.19-2.18-.67,0-1.16.31-4.17-.76h-2.19l-2.66.58-1.54.44-1.5.88-10.84.28-2.3.89-1.56,1.3h-4.07l-1.69-2.19-3.1-1.14-2-2-3.17-.76-12.77,5.05-2.12-.09L101.06,272l-4.89-6.5-4.92-.39-11,1-3.24,2.63L71.93,267l-2.49-5.24-.51-2-15.38,5.23-9.36-1.31-6.41.77-.53-4.92-.71-2.1L35.33,256l-2-.89-2.72.25-4.76.22L20,256.92l-8.78.06L9.1,252.24,5.26,251.1l2.28-3.51,1.06-3.3.79-2,1.12-1.66.22-1.29-.35-.94-1.26-1L4.88,237l1.24-3.6L9,230.22l2.57-.93,2.77-.32L21,226.71l3.13-1.2,4-3L29.31,220l14.41-10.36,1.62-3.14,1.09-1.12-2.15-2.78,5.3-.56,2.77-2.31,1.72-4.11.15-.69-.61-.33H49.35l-1.86.4-7.21-.14-2.41-.48-2.35-.06-4.2-1.48-2.52-.25-4.17.62-2.58-4.64-2.25-1.72H13l-3.84.26L7,185.32l-3.48-1.47,3.82-3,4.25-.17,5.9-2.9,3.86-.83,2.05-.66h4.55L33.33,174l4.18-3.15,4.2-1.06,4.56-.42,2.16-1.3.6-1.26-.25-2.07-1.08-1.92-1.26-1.39-1.74-.55-2,0-3.24.8-2.75.51-3.16.93-3.08.22-2.11-2.24L25.75,160,24,157.33l.17-3.9-2.24-4.28-2.69-2.51-.79-4.27h10.4l3.07,1.24,1.16.88,7.95-.2,3.21-1.91,1.91-2.53,4.34-2.55,2.88-2.5,2.17-1.73,2.23-2.23,3-.81,1.91-.26,2.59.67,2.07-1,4.45-.39,7.93-4.26,5.26-3.61,1-3.21,2.77-1.55,3.56-3.09,1.42-2.18.3-1.55,2.41-2.83,1.69-2.9,2.25-1.35,2.47,3.28,7.5.8,2.47,1-.49,2.83.71,1,1.17.91,2.15.73,7.3-.44,4.71.06,4.26.31.83.45,1.21-2.05,2.55-.33,4.15-2.31,4-1.57,5-3.25,3.2.08,7.14,6.24,8.49.34,2.1,2.87.77,3.67,0,4.27,5.54,3.9,2.21.15,1.18,3.93,1.07,1,.74,1.38,2.83.87,1.8.34,1.35.51,7.31-.36,2-1.08.59-2.2,2.13-2.78,5.82,2.49L210,130l.62-1.51,3.24-2.73,2.18-.9,3.31-2.83,2.49-1.86.37-2,1.93-2,2.08-3.42.06-2.34,3.38-2.85.83-2.55,1.23-1.12.57-2.72,5.05-2,3.86-2.66,1.62-3.59,5.22-2.5.18-2.71,7.51-2,11.23.11,4.47-.43,4.17-1.11,3,2.37.86-.12L281,84.69l2-.28,1.79-2.21,3.28-1.29,3.88-7.52,26.9-6.12v3.32L315.54,78l-2.28,2.18L323,84.08v4.3l-3.74,4.44.23,3.16,1.86.32,2.88-1.49L326.53,91l6.5-2.11.84,6.76L332,101l-1.45,1.29.88,4.92-.46,1,2.22,2-.24,3.3-1.5.47,1,3.63-.25,3.66-.59,11.31-.33,9.33,2.51,2.87h6.07l5.33,17.14v8.77l-5.54,1.95h-3.35l-1.95,1.19L331.09,178l-4.58-1.08-1.34.3-3.56-2.41-2.81-.49-1-.89-4.24-.29L310.72,175l-3.87,1.86-3.13-3.26h-.42l-.64.52-.46,1.07V179l-3,2.33-.17.39,2.75,2.5-2.93,4.4,1.07,4.55.4,4.24-.41.69,2.86,1-2.13,4L300,204.2v1.17l3.62,2.37-2.27,9.21-2.13,1.33-2.88,4.12v2.91l-2,1.78-.67,2.68-2.88,3.88-3.08,3.92-2.88,2.33-2,3.21L278,246.64l-.58,12.51L274,262.44l-2.88,1.85-1.55,1.26-.81,1.89v3l1,1.69,1.67.53,2.7-.86,2.92,1.37.74,3.69h1.72l1.8,2.7Zm-11.37-7.66,6.69,4.34-.79-4-.62-.29-2.5.8Zm-91,1.13,3.21.13,2.09-.6,7.8-2.88L196,270l3.36-2.44,12.6-3.39,5.09-5.47,3.16-1.83,5.54-1.44-1.88-3.08,5.54.65,2.53-.48,4.22,1.54v3l1.32,3.63,4.92.12,3.76.68,2.66-.38,2.7,1.2,2.58,2.31,1.82,3.18,8.32,4.95,3.56,1.45-1.83-3v-4.35l1.31-3.07,2.29-1.85,2.82-1.81,2.22-2.22.6-12.75,5.4-4,2-3.16,3.12-2.52,2.73-3.53,2.53-3.41.75-3,1.74-1.52V221.5l3.72-5.32,1.65-1,1.51-6.14-3.22-2.11v-3.56l1.14-1.71.51-1-3-1.1,1.71-2.85-.3-3.22-1.3-5.46,2.26-3.39-2.44-2.22,1.25-2.92,2.46-1.92v-3l1-2.24,2-1.6h2.64l2.54,2.65,1.94-.93,3.39-2.22,6.15.42,1.12,1,2.62.46,3.05,2.07.78-.17,3.44.81,2.43-3.14,3.07-1.88h3.67l3.19-1.12v-6.33l-4.58-14.73h-5.27l-4.1-4.68.38-10.48.59-11.35.22-3.21-1.6-5.81,2.27-.71-2.74-2.48,1-2.08-1-5.6,2.09-1.87L331,95.38l-.34-2.68-2.24.73L326.22,97l-4.43,2.29-5-.86-.48-6.52,3.82-4.53V86l-9.92-4V79.12l3-2.82,2.41-5.38-21.73,4.95-3.76,7.3-3.57,1.41-2,2.5-2,.28L281,89.2l-3.18.44L275,87.4l-3.14.81-4.74.46-11-.11L251,89.93l-.16,2.34L245,95l-1.52,3.37-4.94,3.35-3.77,1.46-.44,2.11L233,106.58l-.85,2.61-3,2.54,0,1.82L226.33,118l-1.44,1.49-.42,2.26-3.31,2.47-3.58,3.07-2.2.9-2.37,2L211.84,133l-5.93-.71-4.17-1.78-.45.59-.76,2.85-3.69,2-8.53.42-1.78-.67-1.67-.3-4-1.24-1.06-2L178.48,131l-.84-2.81-1-.07-7.37-5.19-.06-5.58-.58-2.65-.94-1.28-8.12-.33-7.12-6.22-1.29,0-4.61,3-4.06,1.59-4,2.26,1.13.49,3.63-.62,6.06-.06,5.35.37.28,3-3,3.52-2.21.95-3.21-.29-3-2.17-4.74-.84-4-.53-3-1.61-3.57-.26-4.52-.05-7.75.46-3.13-1.06-1.86-1.45-1.65-2.27.3-1.77-8.32-.89-1.47-2-1.18,2-2,2.35-.26,1.37-1.94,3-4.21,3.61-1.93,1.08-1,3.07L81,127.3l-8.51,4.57-4.54.4-2.54,1.17-3-.79-1.25.17-2,.55-1.88,1.86L55.13,137,52,139.68,48,142l-1.91,2.52L41.8,147.1l-9.68.25-1.65-1.25-2.21-.89H21.82l2.36,2.2L27,152.79l-.16,3.73.79,1.17,2.41,1,1.6,1.69,1.58-.11,2.93-.89,2.75-.51,3.53-.87,2.75.07L48,159l2.07,2.34,1.43,2.55.42,3.43-1.31,2.78-3.45,2.07-5.09.47-3.32.85-4.18,3.09-6.1,2.52H23.82L22,179.7l-3.75.8-5.95,3-2.95.12.75.62,2.81-.19h7.87l3.48,2.66,1.91,3.44,2.57-.39,3.37.37L36,191.5l2.27.08,2.4.48,6.5.11,2-.39h5.13l3.1,1.69-.69,3.14-2,4.87-4,3.3-1.1.12.54.7-2.51,2.58-1.75,3.38-4.55,3.23-9.79,7.07-1.12,2.46L25.52,228,22,229.38l-7.13,2.39-2.75.32-1.43.55-1.74,1.9,1.29.13,2.56,2,.89,2.43-.45,2.64-1.37,2-.56,1.52L10,249l-.32.49,1.45.43,1.91,4.24,6.77,0,5.72-1.35,4.83-.22,3.39-.31,3.36,1.47,1.94,2.49,1,3,.24,2.22,3.92-.47,9.06,1.27,17.63-6L72.15,261,74,264.72l2.51.81,2.71-2.2,12.06-1.06,6.42.51,5,6.63,7.94,1.4,1.23,0,13.05-5.16,4.8,1.15,2.14,2.08,3.3,1.22,1.34,1.74h1.65l1.13-.94,3.2-1.24,10.61-.28,1.36-.74,1.8-.5,3.19-.67,2.73,0,3.67.67,1-.26,1.91.08,3.55,2.42,3.66,1.26ZM147.51,118.21l1.73.16.93-.4,1.28-1.52-2.3-.16-4.26,0Z"/></svg>