<svg id="Layer_1" data-name="Layer 1" xmlns="http://www.w3.org/2000/svg" viewBox="0 0 350 350"><defs><style>.cls-1{fill:#999;}.cls-2{fill:#f90;}</style></defs><title>M</title><polygon class="cls-1" points="207.07 97.34 227.73 109.27 229.15 110.78 229.69 112.21 229.15 113.46 227.73 113.99 225.86 113.99 224.08 114.53 222.47 114.53 220.87 115.42 220.34 116.66 219.98 118 220.6 118.8 223.37 118.8 225.5 118.18 227.19 118.27 228 119.42 228 121.56 228.08 130.46 228.08 131.98 228.97 132.69 230.58 132.69 232.8 132.69 235.38 131.71 237.88 131 239.39 131.35 240.46 130.82 243.93 131.35 246.6 129.13 249.72 127.35 252.57 126.1 255.42 125.48 258.09 125.21 260.32 125.3 262.9 125.92 267.08 127.79 283.38 148.9 284.63 150.59 285.87 151.21 287.92 151.21 289.97 150.76 292.28 150.05 294.87 149.16 299.94 147.92 303.41 147.38 306.35 147.03 309.2 147.2 310.27 147.83 312.05 145.96 313.74 144.09 316.06 142.84 318.55 141.86 320.51 141.24 322.29 139.99 323.54 137.68 324.07 135.27 324.07 133.4 325.32 132.42 327.19 133.58 328.88 135.09 329.77 135.98 331.46 137.32 332.98 137.68 334.85 138.92 336.98 140.35 338.41 141.59 340.19 143.64 342.15 147.03 343.22 151.21 343.75 154.68 343.75 158.42 343.22 162.79 342.24 164.92 340.19 167.42 337.78 168.75 335.29 169.73 332.53 170.23 330.04 170.36 328.7 170.8 327.1 172.31 325.94 174.72 325.14 177.21 324.34 180.24 323.71 184.16 323.63 188.88 323 192.79 323.18 195.02 323.63 196.09 323.71 197.33 322.56 198.31 320.87 198.31 319.89 199.38 319.17 200.81 319.08 202.32 319.71 204.1 320.06 205.88 319.98 207.75 318.55 210.87 317.39 212.2 316.06 213.27 314.9 213.99 313.92 213.99 312.85 215.68 313.3 217.55 314.1 219.68 315.35 221.11 315.79 222.18 316.15 223.69 317.75 223.69 319.98 225.03 321.67 226.45 323.09 228.41 323.45 229.84 323.18 231.62 322.02 232.59 320.51 233.66 319.26 234.29 317.66 235 315.97 235 314.81 235 313.83 235.8 312.23 236.34 310.45 235.35 309.11 233.75 307.95 235.8 306.62 236.34 305.11 236.34 303.68 238.65 297.8 250.22 297.18 249.25 299.58 244.26 296.56 244.44 295.04 244.17 292.19 243.37 290.32 241.94 289.43 239.9 288.9 237.85 286.58 237.31 285.25 236.78 283.91 235.62 280.53 235.62 277.06 235.89 275.41 236.51 272.25 238.12 269.85 238.65 267.35 239.27 264.15 240.16 261.03 241.14 255.15 243.72 252.75 243.9 250.88 244.71 249.81 246.4 247.32 246.57 242.33 250.22 238.59 252.01 233.78 254.59 229.51 256.64 226.93 259.04 223.72 261.44 219.71 263.31 216.33 264.83 214.19 266.07 213.13 267.59 211.52 270.08 209.56 272.66 207.87 274 205.65 274.53 204.04 273.56 204.04 272.13 204.04 270.53 205.82 269.81 207.51 268.3 208.32 266.96 207.69 265.27 206.54 264.12 206.09 262.25 204.58 260.82 201.28 259.22 199.5 257.44 198.61 254.94 197.54 253.79 194.96 253.61 191.58 253.52 187.57 252.9 184.72 252.01 182.67 251.56 180.53 251.47 178.06 251.21 176.8 249.87 176.08 250.4 172.61 250.67 171.1 250.58 168.34 250.14 163.79 248.18 161.39 247.55 159.79 247.82 158.01 247.02 157.38 245.15 155.16 241.86 153.2 239.81 152.49 238.38 152.04 237.31 148.3 236.87 145.28 237.4 141.53 238.03 140.11 238.38 138.86 240.34 136.82 241.5 134.77 240.7 132.45 240.25 123.19 241.5 118.38 241.86 113.75 242.12 96.75 242.66 82.59 242.92 80.19 243.46 58.28 251.74 52.05 253.88 48.84 254.86 47.24 256.1 45.81 254.77 45.81 253.61 45.81 252.18 44.21 251.65 41.72 251.38 40.2 251.38 38.78 249.51 39.4 247.2 40.03 243.81 40.92 242.39 42.08 241.77 43.5 241.41 45.28 241.41 46.17 240.7 46.79 239.36 45.64 237.85 42.88 234.55 41.81 231.88 41.63 229.3 41.63 227.07 42.61 224.85 42.16 222.09 40.12 220.22 38.78 217.55 38.78 216.45 38.78 213.42 39.61 211.64 39.43 210.16 38.37 209.09 37.53 209.09 36.64 209.5 36.64 210.57 36.64 213.84 34.86 215.14 34.33 216.15 34.74 217.22 34.92 217.99 34.03 219.3 33.02 219.65 32.31 220.13 31.77 221.44 31.24 222.8 30.83 224.46 30 225.89 29.05 226.84 27.98 227.19 26.31 226.36 23.58 226.3 20.2 223.22 16.52 222.38 14.03 222.21 11 220.72 8.92 220.19 7.73 220.01 7.32 218.88 7.97 217.52 8.56 215.32 8.68 213.6 8.09 211.4 8.56 210.04 9.52 209.21 9.34 207.49 8.39 205.59 8.68 203.69 6.78 203.39 6.25 202.56 8.27 199.35 9.46 197.39 14.74 196.8 12.72 194.54 11.47 193.42 11.18 191.52 7.85 192.17 7.2 189.79 7.02 186.41 6.72 182.67 7.67 180.83 7.97 178.99 8.74 177.33 8.98 175.25 8.03 173.83 8.45 172.22 8.51 168.9 8.86 165.93 9.69 162.07 11.12 152.93 11.71 149.55 13.31 146.34 14.68 143.49 14.44 141.48 14.68 139.99 15.57 138.86 16.88 138.57 18 139.34 18.95 139.28 20.79 138.27 22.22 137.62 23.82 137.56 24.71 137.38 25.6 136.31 26.73 135.54 28.15 135.3 29.16 134.06 29.82 133.11 31.18 131.74 32.13 130.49 31.89 129.13 31.77 127.82 32.13 127.05 32.96 127.05 34.86 127.23 36.35 127.7 37.59 128.36 39.14 129.31 40.5 130.85 40.62 132.75 41.15 134.41 42.7 135.54 44.6 135.72 45.9 136.25 48.1 136.97 49.41 137.26 51.78 137.85 53.8 137.91 55.28 137.08 56.35 135.48 57 133.58 57 132.28 56.11 130.44 56.29 128.89 57.24 127.76 59.44 128.65 60.98 128.53 61.22 127.88 59.32 126.28 59.08 124.5 59.67 123.55 61.34 122.42 62.29 121.29 62.88 120.11 62.94 118.86 61.69 117.61 60.33 116.48 60.15 115 60.86 113.52 61.22 112.45 61.22 110.91 61.58 110.25 62.7 110.07 63.71 109.42 64.72 108.17 65.2 106.93 66.32 106.33 67.09 105.27 66.5 103.78 65.67 102.89 64.96 101.23 65.14 99.98 65.91 98.74 67.04 98.2 68.76 97.96 70.18 97.34 71.61 96.18 72.68 94.51 73.86 94.51 74.81 94.22 76 94.88 77.54 95.41 79.44 95.06 80.51 94.22 80.69 92.21 81.22 90.78 82.23 90.13 83.72 90.42 85.14 90.84 86.39 90.78 87.87 90.13 88.82 89.3 89.83 88.58 90.84 87.93 91.85 87.93 92.44 88.53 93.16 89.3 94.58 89.59 95.47 89.12 96.95 88.41 98.8 88.23 101.35 87.93 103.19 87.93 104.91 86.75 106.69 85.62 108.06 83.89 109.24 82.41 110.55 82.41 111.68 83.18 113.46 84.84 114.76 84.43 115.24 83.18 116.19 82 117.55 81.34 119.16 81.34 119.87 79.86 121 78.97 122.84 77.9 125.27 77.19 126.22 75.94 127.05 75.47 128.36 75.47 129.19 76 129.49 77.31 130.2 77.9 131.32 78.14 132.75 77.72 138.03 75.47 139.34 76.83 140.82 78.02 142.01 78.08 143.43 77.66 144.74 76.77 146.34 76.3 147.41 75.47 149.01 76.06 149.55 76.53 150.56 76.95 152.22 77.07 153.53 77.72 155.19 78.73 155.78 79.68 156.44 80.87 157.21 81.17 157.8 80.57 158.51 79.32 158.57 78.26 158.57 77.13 159.16 76.3 159.76 75.82 160.53 76.42 160.95 77.66 161.48 78.85 162.07 79.38 163.08 79.74 164.03 79.27 165.34 78.31 166.23 77.72 166.88 78.2 169.85 82.77 172.11 86.15 173.35 87.93 173.12 89.24 171.1 91.08 169.02 92.74 167.89 94.11 167.3 95.29 167.3 96.18 167.95 96.89 169.26 97.07 170.44 97.13 171.22 97.25 171.87 97.91 171.81 99.03 172.52 99.45 174.06 99.15 175 98.97 175.91 99.21 176.5 99.74 176.74 100.99 176.32 102.18 175.79 103.25 174.6 104.08 173.47 104.91 172.88 105.8 172.94 106.75 173.95 107.1 175.73 107.22 177.96 107.82 179.17 107.52 180.89 106.81 182.73 105.68 185.05 104.73 187.42 104.37 189.38 103.31 193.3 101.29 197.34 99.51 200.24 98.5 202.38 97.78 204.28 97.55 205.94 97.37 207.07 97.34"/><path class="cls-2" d="M205.41,276l-2.78-1.7v-4.78l2.44-1,1.35-1.2.34-.57-.28-.76-1.22-1.22-.44-1.85-1-1-3.31-1.61-2.17-2.17-.9-2.52-.49-.53-2-.14-3.5-.1-4.21-.67-2.79-.87-1.87-.41-2-.08-3.09-.33-.75-.8,0,0-4,.31-1.75-.11-3.1-.54-4.44-1.92-2-.52-1.73.29-2.74-1.23-.76-2.27-2.05-3-2-2.12-1-2-2.71-.32-6.52,1.11-.82.21-1.13,1.78-2.94,1.66-2.55-1-2-.38-9,1.21-4.89.37-4.65.27-17,.54-14,.26-2.17.48-21.81,8.25-6.27,2.15-3,.92L47.15,258l-2.76-2.58v-2.17l-.49-.16-2.27-.24H39.5l-2.27-3,.79-2.93.66-3.59,1.23-2,1.82-.93,1.77-.4h1.28l.24-.19.12-.26-.64-.83-2.87-3.42-1.23-3.09-.19-2.8v-2.62l.93-2.12-.3-1.86L39,221.09l-1.6-3.21v-2.81l-1.4,1-.08.15.24.66.32,1.38-1.5,2.2-1.28.45-.2.14-.86,2.17L32.15,225,31,226.89l-1.19,1.19-1.94.65-1.9-1L23,227.71l-3.5-3.19-3.21-.72-2.66-.19-3.15-1.54-1.87-.48-1.95-.29-.91-2.48L6.64,217l.52-1.94.09-1.35-.65-2.39.74-2.13.68-.6L8,207.89l-1-2.07.15-.95-1.13-.18-1.37-2.13,4-6.5,3.25-.36-.14-.15-1.56-1.42-.15-.94-3.17.62-1.05-3.95-.18-3.38-.33-4.1,1-2,.29-1.81.76-1.63.15-1.33-1-1.52L7,172l.07-3.3.38-3.1.83-3.86,1.41-9.06.63-3.62,1.7-3.39,1.18-2.46L13,141.45l.33-2,1.43-1.81,2.4-.54,1.24.85h.15l1.65-.9,1.68-.77,2.06-.12.7-.84,1.55-1.06,1.2-.2.64-.79.79-1.1,1.3-1.3.52-.68-.15-.87-.15-1.68.9-1.94H33.1l2.2.24,1.71.57,1.25.65,1.81,1.11,1.83,2.07.14,2.21.34,1.05.86.63,1.72.16,1.45.59,2.09.68,3.5.85,1.47,0,.84-.47.78-1.17.52-1.5v-.74l-.93-1.92.27-2.38,1.89-2.24,1.1.45-.31-2.33,1-1.64,1.75-1.19.72-.85.38-.77,0-.32-.76-.76L59,117.22l-.29-2.46.85-1.78.26-.77v-1.67l.86-1.58,1.52-.24.57-.37.72-.9.58-1.54,1.31-.69.12-.17-.21-.51-.82-.88-1-2.25.28-1.93,1.15-1.85,1.7-.81,1.74-.24,1.07-.47,1.1-.89,1.36-2.14h1.76L75,92.7l1.6.88,1.07.37,1.19-.22.31-.24.14-1.6.77-2,1.88-1.22,2.17.44,1.2.35.75,0,1-.46.9-.78,2.42-1.62h2L93.89,88l.48.1.44-.23L96.57,87l4.78-.51h1.4l1.36-.94,1.62-1L108.56,81H111l1.66,1.15,1.09,1,.26-.69,1.29-1.61,1.95-.93h1l.47-1,1.55-1.21,2.15-1.2,2-.58.84-1.11,1.41-.8h2.1l1.67,1.07.32,1.4.07.06.44.09,1-.29,6.11-2.61,1.92,2,1.05.84.49,0,1-.29,1.3-.89,1.56-.46,1.48-1.15,2.59,1,.55.49.58.24,1.71.12,1.66.83,2,1.18L157,79l.07-.13,0-.73v-1.5l1-1.36L159.74,74l2,1.54.53,1.59.38.85.16.15.17.06.31-.15,3-2.05,1.66,1.21L171,82l3.81,5.61L174.42,90l-2.37,2.16-2,1.63-.93,1.13-.34.69.65.09,1.27.07,1.23.19,1.43,1.43,0,.51,1.76-.34,1.55.4L177.8,99l.4,2.09-.61,1.71-.69,1.39-2.16,1.54,1.35.12,1.89.5.75-.18,1.52-.63,1.95-1.17,2.64-1L187,103l1.74-.95,3.95-2,4.22-1.86,5.33-1.79,3.7-.43,1.53,0,21.18,12.24,1.76,1.87.83,2.22-1,2.33-2.23.84h-1.92l-1.78.53h-1.44l-.86.48-.37,1h1.55l2.17-.63,2.63.14,1.45,2.09v2.58l.09,9.71h3l2.45-.93,2.85-.81,1.37.32,1-.51,3.29.51,2.38-2,3.25-1.85,3.11-1.33,3-.65,2.77-.28,2.6.13,2.83.71,4.51,2,17.58,22.83.64.32h1.56l1.84-.4,2.26-.7,2.66-.91,5.2-1.27,3.47-.53,3.11-.38,3.32.21.39.23,1-1.06,1.83-2,2.68-1.43,2.49-1,1.84-.59,1.33-.93,1-1.85.46-2.06v-2.4l2.57-2,2.91,1.83,1.69,1.51.89.89,1.38,1.09,1.46.34,4.37,2.93,1.56,1.38,1.94,2.27,2.06,3.55,1.14,4.51.55,3.69v3.91l-.56,4.58-1.26,2.65-2.22,2.7-2.81,1.55-2.76,1.05-2.94.52-2.3.12-.86.28-1.18,1.12-1,2.08-.77,2.4-.76,2.89-.6,3.75-.1,4.82-.6,3.75.15,1.83.45,1.07.16,2.2-2.1,1.78h-1.59l-.42.46-.49,1-.06.94.58,1.7.39,2-.11,2.32-1.62,3.55-1.48,1.67-1.48,1.17-1.5.92h-.6l-.33.53.29,1.2.68,1.81,1.23,1.41.6,1.5.1.42h.87l2.75,1.67,1.92,1.67,1.59,2.18.49,2-.39,2.59-1.66,1.4-1.7,1.18-1.25.62-1.94.86h-2.64l-.79.65-2.44.81-2.56-1.41-.19-.23-.39.7-2.05.82h-1l-1,1.59-7,13.74-2.38-3.74,1.7-3.53-.79,0-1.81-.33-3.11-.87-2.38-1.81-1.11-2.59-.32-1.22-1.69-.41L284.5,238l-1.12-1h-2.8l-3.22.25-1.39.52-3.43,1.69-2.4.53-2.46.61-3.17.88-3,.94-6,2.65-2.41.18-1.25.54-1.22,1.92-2.8.2-4.89,3.54-3.74,1.78-4.75,2.55-4.14,2-2.54,2.35-3.46,2.55-4,1.87L217,266.09l-1.81,1.05-.89,1.26-1.63,2.53-2.21,2.84-1.94,1.53Zm.05-3.29.42.26,1.35-.33,1.31-1,1.82-2.39,1.57-2.45,1.28-1.82,2.54-1.47,3.38-1.51,3.85-1.8,3-2.27,2.69-2.5,4.47-2.14,4.75-2.55L241.6,249l5.21-3.81L249,245l.92-1.46,2.49-1.07,2.4-.18,5.8-2.54,3.12-1,3.25-.9,2.53-.63,2.27-.5,3.14-1.58,1.84-.7,3.78-.29h3.91l1.55,1.35,1,.41,3,.7.72,2.77.7,1.61,1.36,1,2.52.71,1.28.23,3.34-.2,2.5-4.91,1.84-3h2l.62-.25,1.92-3.4,2.48,3,1,.55.77-.25,1.17-1h3.06l1.33-.59,1.09-.55,1.38-1,.7-.59.15-1-.22-.88-1.16-1.6-1.47-1.24-1.79-1.08H315l-.59-2.49-.31-.75-1.26-1.44-.94-2.55-.58-2.45,1.8-2.86h1.36l.74-.46,1.17-.93.94-1.08,1.23-2.68.07-1.42-.3-1.51-.68-2,.12-2.09.93-1.86,1.53-1.67H322l.21-.18,0-.3-.44-1.06-.21-2.62.63-4,.1-4.82.65-4.06.8-3,.89-2.75,1.27-2.64,2-1.91,1.82-.6,2.59-.13,2.53-.46,2.28-.89,2.09-1.16,1.76-2.14.81-1.77.5-4.06v-3.54l-.51-3.3-1-3.93-1.79-3.1-1.63-1.87-1.28-1.12L332.4,139l-1.57-.37L328.77,137l-.89-.89-1.54-1.38-.85-.52,0,1.38-.58,2.6-1.5,2.78-2.23,1.56-2.16.69-2.33.92-2,1.09-1.53,1.69-2.58,2.71-1.75-1-2.38-.15-2.81.34-3.37.52-5,1.22-2.52.87-2.48.76-2.35.48h-2.38l-1.85-.92-1.45-2-16.06-20.8-3.74-1.67-2.32-.56-2-.08-2.49.25-2.63.58-2.65,1.16-2.94,1.68-3.07,2.55-3.66-.56-1.12.56-1.65-.39-2.08.59-2.77,1h-4.59l-1.81-1.45v-2.2l-.09-10.6-.15-.22-.76,0-2.1.61h-3.66l-1.48-1.9.6-2.21.73-1.69,2.35-1.3h1.76l1.78-.53h1.82l.62-.23.07-.17-.23-.62-1.09-1.16L206.71,98.77l-.67,0-3.34.39-4.84,1.65-4,1.76-3.84,2-2.15,1.17-2.45.37-2.05.84-1.94,1.17-1.92.78-1.56.38-2.46-.65-1.84-.12-2.08-.73-.15-2.36,1-1.5,2.25-1.62.33-.67.26-.74-.07-.39-.25-.06-2.69.51-1.92-1.12.07-1.26-.11,0-1.23-.07-1.81-.25-1.37-1.5V95l.92-1.76,1.34-1.57L170.21,90l1.59-1.46,0-.25-.91-1.3-2.27-3.41-2.61-4-1.4,1-1.49.75-1.84-.65-1-.92-.36-.79,0,.83-1.11,1.84-1.24,1.25L155.44,82l-1.28-2.24L152.84,79l-1-.5-1.61-.11-1.44-.59-.51-.46-.61-.23-.66.51-1.65.49L144,79l-1.87.55-1.88-.09-2-1.6-.63-.66-4.54,1.93-1.77.52-1.82-.38-1.35-1.13-.27-1.21h-.51l-.25.15-1.06,1.39-2.72.79-1.6.93-.79.62-1,2h-2.17l-.78.38-.61.76-.64,1.68-2.75.87-2.31-2.15-.68-.46h-.19l-2.27,2.86-2,1.26-2,1.41h-2.2l-4.09.45-2.55,1.29-2.37-.49-1.16-1.24L89.7,90.41l-1.06.93-1.92.85L85,92.27l-1.59-.46-.86-.17-.13.09-.3.81L81.87,95,80,96.39l-2.61.49-2.12-.75-.67-.37-.58.17h-.62l-.77,1.21-1.75,1.42-1.78.78-1.7.23-.55.26-.4.64-.08.56.46,1.07.84.9,1,2.46-1.42,2-.95.5-.36,1-1.29,1.6-1.45.94-.58.09v1.16l-.5,1.45-.53,1.11.06.51,1,.86,1.69,1.69-.1,2.17-.91,1.73-1.08,1.28-1.58,1.07-.16.26.1.73,2.24,1.89L62,129.88l-2.79.21-1.55-.63h0l-.08.71.85,1.76v1.87l-.89,2.45-1.26,1.89-2.12,1.19-2.71-.11-3.77-.92-2.3-.75-1.11-.45-2.08-.19-2.23-1.63-.74-2.45-.09-1.41-.9-1-1.36-.84L35.8,129l-1.22-.39-1.32-.12,0,.44.33,1.92-1.45,1.88L30.91,134l-.65.93-1.35,1.67-1.65.27-.71.48-1.08,1.3-1.61.3-1.32,0-1.12.51-2.07,1.14-1.75.11-1-.7-.21,0-.35.45-.15.92.26,2.23L14.59,147l-1.52,3-.56,3.18-1.42,9.12-.83,3.87L9.92,169l-.1,3.58-.26,1,.89,1.33-.32,2.82-.79,1.69L9,181.28,8.17,183l.27,3.34.17,3.27.26,1,3.48-.68.45,2.86,1,.9,3.85,4.3-7.32.82-2.14,3.45,2.13.33-.44,2.85.86,1.73.28,2.71-1.22,1.07-.21.6.54,2-.18,2.23-.68,2.44-.3.63.33.06,2.35.63,2.78,1.36,2.43.19,4,.91,3.27,3,2.52.05,1.42.71.19-.07.58-.58.64-1.09.42-1.64,1.24-3.09,1.39-.87.57-.2.28-.41,0-.07-.61-1.58,1-1.87,1.46-1.07V208.6l2-.93H39l1.83,1.83.29,2.37-.87,1.86v3.48l1.07,2.14,2.22,2,.59,3.66-1,2.34v1.93l.16,2.26.9,2.25,2.61,3.12,1.72,2.25-1.13,2.41-1.54,1.23h-2.1l-1.08.27-.67.36-.55.88-.6,3.23-.44,1.64.58.76h1l2.79.33,2.57.86v3l.09.09.85-.66,3.46-1.06,6.19-2.12,22.06-8.32,2.69-.57,14.16-.27,17-.53,4.59-.27,4.79-.35,9.41-1.27,2.79.56,1.42.56,1.15-.65,1.36-2.14,2.08-.52,7-1.19L153,236l.76,1.83.57,1.14,2,2.08,2.33,3.46.49,1.46.82.37,1.48-.25,2.9.77,4.38,1.89,2.52.41,1.35.08,3-.23,1.39-1,1.77,1.88,2,.21,2.29.11,2.17.48,2.75.86,3.81.59,3.29.09,3.2.22,1.65,1.78.88,2.47,1.39,1.39,3.27,1.59,2,1.86.45,1.89,1.09,1.09,1,2.62-1.26,2.1-2,1.82-1.12.45Zm-167.4-62v.82l.1-.2Z"/></svg>