<svg id="Layer_1" data-name="Layer 1" xmlns="http://www.w3.org/2000/svg" viewBox="0 0 350 350"><defs><style>.cls-1{fill:#999;}.cls-2{fill:#f90;}</style></defs><title>M</title><path class="cls-1" d="M320.26,129.72A108.13,108.13,0,0,0,305.84,134c-2.62,1.13-9.74-4.11-11.43-4.86s-6.56-5.05-13.49-7.67c-.56-3.56-5.63-12.92-12.56-15,6.93-3.56,2.43-9.18,1.3-13.68s1.11-15,1.11-15l-5.06-.56-6,6c-3,3.19-4.68,2.63-12.93-.93-5.24,1.32-12-1.86-13.68-1.11s-1.86,14.8-2.23,26.41c0,4.31,14.23-2.26,15.06,1.67s-4.93,13.87-6.62,15.74-2.43,9.74-3,10.68.39,16.67,0,18.73S240.3,165,240.3,165s3.57,9.36,3.94,11.8S242,180.55,242,193.1c-7.87.19-26.43-17.59-30.92-19.27s-11.24,4.69-16.67,1.51-.19-7.49-2.26-9.93-8.06-2.43-17.05-7.29c-5.62,3.75-9,5.63-12.55,2.82s-13.3-6.17-18.36-6.54-8.43-5.61-12.74-5-12,5.07-12,5.07L114.59,152l1.31-5.62-5.06-2.24v-5.81l-2.44-1.5c1.68-3-1.5-8.05-3.19-10.68S93.59,115.47,91.52,114s-2.44-10.11-2.63-12.36-1.32-11.8,2.43-12.74,6-7.87,6-7.87S87,65.65,86.24,62.47,79.11,55,75,54.61s-6,3.75-6,3.75-3.57-7.86-5.07-10.67-.13-8.83,0-9.33l-2.9.46S53.44,43.8,50.7,43s-4.4-2.36-6.63-5.22S31.94,27.24,29.65,25.64A41.69,41.69,0,0,1,21.48,17c-1.21-2.1-6.13-6.43-9.44-5.67s-5.16,1.53-5.67,4.34,1,7.78,1,7.78l1.53,1.85L7,28.66l-.68,3.06,1.51,3.63s-.9,5.71-1.5,7.8,2.72,6,2.72,6l4.59,6.24,3.25,1.08.83,2L13.23,63s-1.78,2.23.32,3.25,4.4.89,5.8,4.71a44,44,0,0,1,2.49,10.77A7.6,7.6,0,0,0,25,87c1.47.83,3.76,2.93,4.28,4.91s5.87,8.09,6.19,9.62,4.66,6.95.07,11.35S30.93,117,30.16,119s1.41,4,2.49,5.23,2.24,6.31.84,10c-3.25,1.47-4.65,3-5.8,5.61s-.38,6.06.13,7.71,3.32,4.27,2.24,5.86A9.2,9.2,0,0,1,24.46,157c-2.17.32-4.91.39-5.61,1s1.79,2.29,3.19,3.44,16.14,12,16.65,13.57-.63,3.57.26,4,3.06,1.4,5.16-1.22,5.93-1.66,6.57-.32,5.17,7.14,4.41,12.43S57.84,206.48,59,207s5.55,4.65,10.9,2.48c2.74-2.74,4.71-5.49,5.67-3.57s3.13,3.44,3.13,5.23S76,216.54,76,219.35,73.66,230,72.77,232.86s-4.71,8.16-5.35,11.29-3,5.48-3.18,6.57-2.62,12.94-1.43,15.12-.1,4.85-.29,8.22-4.05,11.09-4.35,13.17-2.67,7.92-1.67,12.08,2.78,7.52,3.47,10.49,1,9-.78,12.67-3.46,9.31-3.06,11.68,1.19,2.67,3.66,2.18,9.11-3.67,14.45-4.86,19.6-.31,22.77.48,5,1.68,7.23-.3,7.23,2,10.79.68a14.43,14.43,0,0,1,9.31-.6c3.37.79,5.84,2.27,7.23,1.38,1.39.89,2.68,4.76,4.85,3.37a27.88,27.88,0,0,0,5.24-4.66c1.29-1.39,10.39-5.75,15.84-3.58,7.82-2.18,11.68-2.88,14.55-.51,6.53-2.28,5.64-3.57,12.47-1.49,8.32.19,6,1,9.9-1.39s7.82-3.67,10.19-5.45,14.55-6.74,14.25-8.53,4.06-3.77,4.75-2.18,0,5,0,5,2.47-1.59,2.77.49a6.22,6.22,0,0,0,.69,2.57s2.87-1.29,3,2.57c4,1.28,8.22,1.68,10.4,7.22,7.92,2.37,19.6,2.36,23.07,2.85s12.28,2.66,13.37,4.74,4.45-.4,19.8,4.54c4.75.79,5.15-1.59,3.76-5.15s-1.1-10.39-1-13.36-.9-7.72,1-9.9,5.44-4.46,4.55-8.72.89-7.62,2-7.43c-1.19-7.33.09-10.3,2.07-13.27-.1-2.77-.89-3.66-4.85-1.48-1.59-1.58,1.58-3.47,3.16-4.66-1.59-8.91-2.09-13.26-2.09-13.26s-6.73-.09-9-2.57c-1.88-4.75-2.68-7.32-.41-14.06s1.08-9.9,2.66-15.15S302.76,218,301.77,213s-1.88-4.95-1.88-4.95,7.52-5.85,9.1-9.91,5.24-14.26,6.32-20.1,3.26-13.57,3.26-13.57.69-1.88,3.46-.3,4.56,3.16,6.54,1.58a21.91,21.91,0,0,0,4-4.16c1.29-1.58,4.16,1.28,5.15-.8s1.08-13.17,2.66-16,3.56-8,3.46-9.41a7.23,7.23,0,0,0-.49-2.64C340.47,133.45,323.44,129.16,320.26,129.72Z"/><path class="cls-2" d="M298.35,340.19a11.53,11.53,0,0,1-1.87-.17l-.2,0a63.35,63.35,0,0,0-16.16-3.38c-2.19-.17-3.64-.28-4.46-1.85-.74-1.19-7.86-3.36-12.31-4-.91-.13-2.54-.23-4.43-.35-5.17-.32-13-.8-18.85-2.55l-.66-.2-.25-.64c-1.61-4.09-4.45-4.91-7.74-5.85-.6-.17-1.19-.34-1.78-.54l-1-.31,0-1c0-.92-.24-1.29-.34-1.36a1,1,0,0,0-.63,0l-1,.45-.69-.86a6.74,6.74,0,0,1-1-3.05,3.11,3.11,0,0,0-.63.3l-2.82,1.81.67-3.29a11.34,11.34,0,0,0,.17-3.83,3.41,3.41,0,0,0-2.13,1.19c.25,2-2.35,3.44-9.71,7.09a50.05,50.05,0,0,0-5.1,2.72,30.4,30.4,0,0,1-5,2.77,53.94,53.94,0,0,0-5.27,2.76l-1,.65c-2.06,1.31-2.36,1.33-5,1.16-1-.07-2.45-.16-4.61-.21h-.19l-.19-.06c-4.63-1.4-5.11-1.2-7.76,0-1,.42-2.16.94-3.83,1.52l-.75.26-.62-.51c-2.25-1.86-5.43-1.41-13.27.78l-.46.13-.45-.18c-4.72-1.88-13.3,2.18-14.27,3.22a29,29,0,0,1-5.52,4.89c-2.59,1.66-4.49-.95-5.41-2.2-.17-.23-.37-.5-.55-.73a9.22,9.22,0,0,1-4.3-.77c-.87-.29-1.86-.62-2.91-.86a13,13,0,0,0-8.5.55c-2.16.78-4.51.09-6.58-.52-1.56-.46-3.18-.94-3.77-.43-2.54,2.21-4.75,1.61-7.3.92l-1.2-.31c-2.86-.71-17-1.61-22.12-.47a71.74,71.74,0,0,0-9.33,3.1,39.57,39.57,0,0,1-5.15,1.77c-1.26.25-2.7.46-3.81-.3a4.32,4.32,0,0,1-1.54-3c-.51-3,1.6-9.28,3.18-12.54s1.34-8.92.68-11.73a35.44,35.44,0,0,0-1.42-4.23,50,50,0,0,1-2.05-6.26c-.82-3.41.35-7.65,1.12-10.45.25-.91.47-1.7.53-2.16a28.46,28.46,0,0,1,1.72-5c1.12-2.81,2.51-6.31,2.61-8.08a27.73,27.73,0,0,1,.45-3.35c.31-1.73.56-3.11,0-4.11s-1-3.91,1.17-15.51l.1-.54A6.72,6.72,0,0,1,64,248.21,13,13,0,0,0,66,243.87c.4-2,1.78-4.43,3.11-6.84a30.88,30.88,0,0,0,2.27-4.59c1-3.2,3.06-10.62,3.11-13.13a14.89,14.89,0,0,1,1.72-5.5,10.77,10.77,0,0,0,1-2.7c0-.58-.68-1.42-1.34-2.23a15.23,15.23,0,0,1-1.46-2A23.4,23.4,0,0,0,72.35,209c-.46.48-.94,1-1.46,1.51l-.2.2-.27.11c-5.12,2.08-9.48-.83-11.34-2.07-.25-.17-.57-.38-.67-.43-2.46-1.09-5.39-13.95-4.73-18.58.55-3.82-2.21-8.22-3.53-10.34-.35-.56-.6-1-.75-1.28a2.65,2.65,0,0,0-1.67-.52,3,3,0,0,0-2.51,1.12,5.2,5.2,0,0,1-6.9,1.6c-1.4-.7-1.16-2.28-1-3.23a4.73,4.73,0,0,0,.08-1.51c-1.12-1.52-10.65-8.75-13.8-11.15-1.23-.93-2.12-1.61-2.42-1.86l-.77-.61c-1.89-1.48-3.05-2.45-3.07-3.66a1.74,1.74,0,0,1,.64-1.37c.78-.64,2.08-.8,4.3-1,.67-.07,1.36-.14,2-.23a7.86,7.86,0,0,0,4.64-3c.11-.39-.79-1.75-1.17-2.34A9.86,9.86,0,0,1,26.47,148c-.48-1.57-1.46-5.55-.08-8.7a11.07,11.07,0,0,1,5.95-6.07c1-3.25-.11-7.33-.74-8l-.38-.41c-1.26-1.35-3.37-3.62-2.38-6.26.73-2,1.06-2.26,3.58-4.65l2.18-2.07c2.69-2.58,1.58-5.54.21-8.35a7.8,7.8,0,0,1-.69-1.69,30.84,30.84,0,0,0-2.61-3.86c-2-2.74-3.25-4.49-3.57-5.69-.39-1.5-2.38-3.34-3.6-4a8.9,8.9,0,0,1-3.91-6.52A43.23,43.23,0,0,0,18,71.4a4.66,4.66,0,0,0-3.54-3.3,15,15,0,0,1-1.56-.62,3,3,0,0,1-1.75-2.07,4.29,4.29,0,0,1,.94-3.34l.1-.12L16,58.16l-.21-.51-3.07-1L7.87,50C7,49,4.18,45.37,4.92,42.76c.48-1.67,1.19-5.92,1.4-7.23L4.8,31.85l.82-3.71L7.2,25.42l-1.08-1.3L6,23.85C5.87,23.31,4.42,18.46,5,15.4c.68-3.77,3.46-4.71,6.75-5.47,4.27-1,9.64,4,11,6.34a41.08,41.08,0,0,0,7.75,8.21C32.71,26,42.8,33.88,45.18,36.94c2,2.61,3.51,4.06,5.9,4.73,1.27.36,5.76-1.8,9.17-4l.25-.17,5.26-.84-.45,2c-.54,2.44-1,6.67-.12,8.36,1,1.89,2.9,6,4.08,8.51a7,7,0,0,1,5.85-2.33c4.44.4,11.56,5,12.5,8.94.5,2.14,6.93,12.22,10.86,18.07l.38.57-.21.65c-.25.79-2.61,7.71-7,8.81-.7.18-2.24,1.57-1.4,10.73l0,.51c0,.25,0,.57.07.95.59,8.21,1.49,10,2,10.38,1.89,1.37,12.15,9.61,14,12.54,1.55,2.41,4.61,7.15,3.74,10.85l2.12,1.3v5.68l5.29,2.35-1.32,5.67,3.19,1.59c2-1.13,8-4.36,11.85-4.87,2.75-.36,5,1.11,7.26,2.53,1.81,1.16,3.69,2.36,5.77,2.51,5,.37,15.22,3.75,19.14,6.84,2.6,2,4.88,1.13,10.88-2.88l.71-.47.75.41a58.93,58.93,0,0,0,11.15,4.54c2.93.93,5,1.59,6.31,3.08s.81,3.38.42,4.87c-.53,2-.88,3.38,1.47,4.75s5.38.43,8.48-.64c2.7-.93,5.5-1.9,8-1,1.69.63,4.44,2.74,9.16,6.4,6,4.67,14.84,11.52,19.86,12.63.13-7.29,1.18-10.53,1.83-12.51a4.49,4.49,0,0,0,.41-2c-.29-1.86-2.84-8.82-3.84-11.44-1.38-2.7-4.45-9.05-4-11.32.15-.81,0-5.07-.07-8.49-.25-8.95-.18-10,.24-10.71.09-.23.32-1.49.51-2.51.72-3.9,1.38-7,2.64-8.39,1.69-1.88,6.94-11.36,6.28-14.5-.6-.53-4.15.06-6.06.38-3.5.58-6.51,1.09-8.09-.25a2.67,2.67,0,0,1-.94-2.1c0-1.45.09-2.88.13-4.32.54-18.81,1-22.53,2.94-23.39,1.11-.49,2.64-.15,4.95.37,2.74.61,6.15,1.37,9,.67l.47-.12.44.19c8.32,3.59,9.06,3.67,11.33,1.26l6.5-6.51,7.29.8-.33,1.53c-.6,2.83-2,10.92-1.12,14.35a24.84,24.84,0,0,0,1,2.87c1.28,3.27,3,7.58-.72,10.87,5.78,3.17,9.84,10.48,10.83,14.21a53.56,53.56,0,0,1,10.68,6,20.82,20.82,0,0,0,2.17,1.4,23.86,23.86,0,0,1,2.23,1.28c1.67,1,6.77,4.14,8.07,3.58A108,108,0,0,1,320,128.33c1.68-.3,5.58.37,11.79,1.49,4.22.77,10,1.81,11.13,1.51l1.15-.3.5,1.08a7.76,7.76,0,0,1,.59,2.86l0,.27c.14,2-2.27,7.72-3.63,10.19-.75,1.36-1.19,5.8-1.51,9-.37,3.7-.6,5.84-1.11,6.92-1,2.15-3.2,1.58-4.25,1.31a3.87,3.87,0,0,0-1.13-.2l-.4.54a20.84,20.84,0,0,1-3.72,3.81c-2.45,2-4.73.58-6.94-.75l-1.19-.7c-.79-.45-1.25-.48-1.39-.43h0c-.27,1-2.21,8-3.2,13.33-1.15,6.17-5,16.79-6.39,20.36s-6.17,7.74-8.44,9.61a19.34,19.34,0,0,1,1.29,4.45c.88,4.48-.83,9.73-2.34,14.35-.33,1-.66,2-.94,3a26.59,26.59,0,0,0-1,6,34.06,34.06,0,0,1-1.71,9.16c-2.08,6.16-1.44,8.46.27,12.81,1.51,1.36,5.54,1.91,7.82,1.95l1.25,0,.14,1.24s.51,4.43,2.08,13.18l.15.86-.7.52-.68.49-.59.43a3,3,0,0,1,1.94.31c1.3.74,1.53,2.29,1.58,3.72l0,.46-.25.38c-1.75,2.63-3,5.2-1.85,12.25l.32,2-1.6-.29a7.63,7.63,0,0,0-.71,5.67c.88,4.17-1.75,6.79-3.67,8.7-.44.44-.85.85-1.19,1.24-1,1.17-.85,4-.72,6.23.06,1,.11,1.94.08,2.79v.38c-.1,3-.31,9.28.92,12.42.67,1.71,1.4,4.19,0,5.88A4.19,4.19,0,0,1,298.35,340.19Zm-1.3-2.95c1.58.25,2.37.05,2.57-.19.05-.06.46-.67-.47-3.06-1.44-3.69-1.22-10.1-1.11-13.55v-.38c0-.73,0-1.61-.08-2.54-.16-2.91-.35-6.2,1.4-8.24.41-.47.86-.92,1.33-1.39,1.78-1.77,3.46-3.44,2.9-6.1-.76-3.64.2-6.95,1.55-8.33l.25-.23c-.87-6.3.13-9.59,2.19-12.8a3.36,3.36,0,0,0-.16-.9,7,7,0,0,0-2.57,1l-.93.51-.75-.75a2.66,2.66,0,0,1-.84-2.15c.14-1.73,2-3.06,3.45-4.13-1-5.79-1.56-9.51-1.79-11.28-2.24-.16-6.75-.75-8.8-3l-.18-.19-.1-.24c-2-4.93-2.86-7.83-.43-15a31.25,31.25,0,0,0,1.57-8.47,29.28,29.28,0,0,1,1.07-6.64c.29-1,.63-2,1-3,1.4-4.3,3-9.17,2.26-12.92a16.76,16.76,0,0,0-1-3.73L295,210l4-3.09c2-1.56,7.47-6.28,8.65-9.3,1.36-3.5,5.14-13.89,6.25-19.85s3.2-13.37,3.29-13.69l0-.1a2.93,2.93,0,0,1,1.73-1.67,4.46,4.46,0,0,1,3.77.63l1.25.74c2.23,1.35,2.89,1.62,3.7,1a18.05,18.05,0,0,0,3.28-3.37l.47-.58c1.19-1.46,2.94-1,4-.73a5.94,5.94,0,0,0,1,.2,36.93,36.93,0,0,0,.85-6c.4-4.06.82-8.26,1.85-10.13,1.72-3.12,3.33-7.72,3.29-8.62l0-.28c0-.33,0-.65-.09-1a82.12,82.12,0,0,1-11-1.6c-4.23-.77-9.49-1.72-10.79-1.49l-.25-1.4.25,1.4a108.35,108.35,0,0,0-14.11,4.23c-2.46,1.06-6.28-1.08-10.67-3.76-.81-.49-1.57-1-1.9-1.1a19.69,19.69,0,0,1-2.62-1.65,49.78,49.78,0,0,0-10.79-6l-.77-.29-.13-.81c-.53-3.34-5.45-12-11.57-13.84l-3.39-1,3.14-1.62c4.09-2.1,3.35-4.61,1.68-8.86a27.32,27.32,0,0,1-1.11-3.21c-.93-3.73.21-10.93.8-14.09l-2.85-.31-5.51,5.52c-3.69,3.93-6.36,2.87-14.07-.44-3.34.68-7-.15-9.78-.76a21.89,21.89,0,0,0-3-.54c-.92,2.26-1.24,13.4-1.46,20.88,0,1.42-.08,2.84-.12,4.22.78.4,4-.13,5.73-.42,4-.67,8.62-1.44,9.3,1.83,1,4.68-5.19,15-6.95,17-.83.92-1.57,4.89-2,7a16,16,0,0,1-.77,3.26c-.17,1,0,5.82.07,9.36a77.65,77.65,0,0,1,0,9.08c-.12,1,1.87,5.8,3.81,9.59l.06.14c.37,1,3.63,9.58,4,12.09a6.76,6.76,0,0,1-.51,3.31c-.64,2-1.71,5.25-1.71,13.2v1.38l-1.38,0c-5.66.12-15.28-7.36-23-13.38-3.63-2.81-7-5.47-8.42-6-1.52-.57-3.72.19-6.05,1-3.4,1.18-7.25,2.51-10.84.41-4.21-2.46-3.31-5.88-2.78-7.92.31-1.19.48-1.94.16-2.32-.73-.87-2.52-1.43-5-2.21a63.25,63.25,0,0,1-10.89-4.35c-4.67,3.1-9.1,5.76-13.51,2.28-3.24-2.55-12.61-5.88-17.59-6.24-2.79-.2-5.08-1.66-7.09-3s-3.64-2.33-5.37-2.1c-4,.52-11.38,4.84-11.45,4.88l-.66.39L113,152.75l1.29-5.57L109.42,145v-5.94l-2.92-1.8.67-1.19c1.3-2.31-1.93-7.33-3.15-9.21-1.47-2.28-10.8-10-13.33-11.79-2-1.43-2.68-6-3.14-12.48,0-.37,0-.68-.07-.91l0-.49c-.54-5.85-.62-12.7,3.54-13.74,2.16-.54,4-4.34,4.76-6.3-2.1-3.14-10.15-15.33-10.87-18.41-.6-2.52-6.39-6.45-10-6.77-3.06-.28-4.52,2.8-4.58,2.93L69,61.74l-1.28-2.8c0-.08-3.56-7.85-5-10.59-1.17-2.19-.88-5.91-.52-8.28l-.62.1c-2.17,1.4-8.23,5.06-11.23,4.23s-5-2.68-7.37-5.72c-2-2.61-11.63-10.16-14.11-11.87a42.7,42.7,0,0,1-8.59-9.12c-1.14-2-5.51-5.54-7.89-5-3.37.78-4.27,1.41-4.6,3.21s.48,5.36.91,6.84l2,2.39-2.36,4-.53,2.41,1.49,3.59-.06.4c0,.24-.93,5.82-1.54,8-.22.78,1.11,3.14,2.45,4.74l4.38,6,3.44,1.14,1.45,3.45L14.3,63.88a1.67,1.67,0,0,0-.36.9h0a.72.72,0,0,0,.22.15,12.74,12.74,0,0,0,1.27.5,7.4,7.4,0,0,1,5.25,5,45.11,45.11,0,0,1,2.58,11.26,6.3,6.3,0,0,0,2.47,4.06c1.56.88,4.29,3.23,5,5.78a29.3,29.3,0,0,0,3.11,4.72c1.84,2.51,2.89,4,3.1,5a9.61,9.61,0,0,0,.46,1c1.17,2.4,3.61,7.4-.79,11.64L34.36,116C32,118.2,32,118.2,31.49,119.54c-.37,1,.94,2.4,1.8,3.33l.41.45c1.5,1.68,2.66,7.35,1.11,11.46l-.21.55-.53.24c-3.1,1.4-4.14,2.75-5.08,4.89-1,2.34-.11,5.74.19,6.73a8.86,8.86,0,0,0,.91,1.6c1,1.54,2.38,3.65,1.14,5.48a10.6,10.6,0,0,1-6.57,4.18c-.68.1-1.41.18-2.12.25l-1.47.17c.37.31.77.62,1.05.84l.81.64c.29.24,1.15.89,2.34,1.8,12.08,9.18,14.38,11.32,14.75,12.42a6.17,6.17,0,0,1,.07,2.92c0,.14,0,.32-.07.48.85.33,1.83.38,3-1a5.87,5.87,0,0,1,5.38-2.14A4.42,4.42,0,0,1,52,176.87c.08.17.33.57.6,1,1.5,2.4,4.63,7.4,3.93,12.25-.66,4.61,2.27,14.22,3.31,15.7.25.13.52.32.86.54,1.7,1.13,4.83,3.21,8.44,1.9.42-.42.82-.84,1.19-1.24,1.86-2,3.2-3.38,4.76-3.15a2.34,2.34,0,0,1,1.77,1.4,11.08,11.08,0,0,0,1.31,1.84c1,1.19,2,2.42,2,4A10.42,10.42,0,0,1,78.83,215a13.1,13.1,0,0,0-1.46,4.38c-.08,3.62-3.21,13.8-3.24,13.91a31.51,31.51,0,0,1-2.5,5.13,27.44,27.44,0,0,0-2.81,6,15.55,15.55,0,0,1-2.45,5.31,9.37,9.37,0,0,0-.74,1.25l-.1.55c-2.16,11.34-1.6,13.34-1.47,13.62,1,1.87.67,3.86.29,6a25.08,25.08,0,0,0-.41,3c-.13,2.23-1.55,5.81-2.81,9a32.84,32.84,0,0,0-1.55,4.32,22.91,22.91,0,0,1-.61,2.51c-.69,2.52-1.74,6.33-1.09,9a47.16,47.16,0,0,0,1.94,5.91,37.22,37.22,0,0,1,1.53,4.59c.72,3.07,1.12,9.49-.89,13.62-1.82,3.74-3.24,9-2.94,10.83.16,1,.35,1.16.35,1.17s.36.11,1.63-.15a40.27,40.27,0,0,0,4.69-1.63,73.74,73.74,0,0,1,9.73-3.22c5.69-1.27,20.22-.31,23.42.49l1.25.33c2.52.68,3.37.84,4.71-.32,1.76-1.53,4.13-.83,6.43-.15,1.73.51,3.52,1,4.81.57a15.82,15.82,0,0,1,10.11-.65c1.17.27,2.22.62,3.15.93,1.11.37,2.63.87,3,.64l.77-.49.77.49a7.15,7.15,0,0,1,1.73,1.88c.36.49,1.11,1.52,1.44,1.56a.49.49,0,0,0,.16-.08,26.9,26.9,0,0,0,5-4.43c1.44-1.55,10.77-6.14,16.93-4.1,7.39-2,11.49-2.79,14.73-.61,1.22-.45,2.16-.86,2.93-1.19,3.13-1.36,4.3-1.7,9.53-.12,2.11.05,3.51.14,4.54.21,2,.13,2,.13,3.33-.72l1.06-.67a57.14,57.14,0,0,1,5.54-2.9,28.19,28.19,0,0,0,4.55-2.48,46.79,46.79,0,0,1,5.54-3c2.54-1.26,7.18-3.56,8.13-4.58,0-1.74,1.83-3.22,3.69-3.78,2.13-.63,3.35.21,3.79,1.21a8,8,0,0,1,.4,3.52,2.58,2.58,0,0,1,1.07.23,2.52,2.52,0,0,1,1.42,2.06c.07.48.14.86.21,1.15a3.12,3.12,0,0,1,1.8.47,3.65,3.65,0,0,1,1.57,2.65l.81.24c3.35,1,7.14,2.06,9.31,6.88,5.5,1.52,12.73,2,17.57,2.26,2,.12,3.63.22,4.65.37.13,0,12.62,2.05,14.42,5.49a6.77,6.77,0,0,0,2.17.34A66.61,66.61,0,0,1,297,337.24Zm-68.76-21.31h0Z"/></svg>