<svg id="Layer_1" data-name="Layer 1" xmlns="http://www.w3.org/2000/svg" viewBox="0 0 350 350"><defs><style>.cls-1{fill:#999;}.cls-2{fill:#f90;}</style></defs><title>M</title><polygon class="cls-1" points="6.25 192.85 6.99 196.18 7.61 197.53 33.34 218.84 61.67 240.97 61.02 242.82 59.82 243.84 58.8 245.03 58.25 246.05 57.23 248.18 55.48 248.18 55.02 249.93 53.17 249.93 49.94 254.46 48.92 256.86 48.65 258.98 45.23 261.57 44.95 263.97 40.61 268.68 39.22 269.51 37.93 269.05 32.02 274.78 30.08 276.25 29.16 275.33 27.22 279.12 29.16 281.33 30.08 283 29.34 284.66 29.16 286.05 28.7 287.71 28.7 289.37 28.88 290.2 29.71 291.31 28.88 292.79 29.99 294.4 30.82 293.25 32.02 292.69 34.24 293.34 34.84 294.4 36.5 294.4 37.75 296.53 38.76 298.42 39.45 299.25 40.98 299.25 41.9 299.53 45.41 299.53 45.6 300.92 46.1 301.56 46.84 301.56 47.31 301.29 47.67 299.71 48.6 299.25 51.23 299.62 52.16 298.79 54.83 297.55 55.16 296.81 58.2 298.42 58.62 298.93 58.8 299.71 63.15 302.07 64.39 301.79 65.78 301.7 68.36 301.06 69.57 302.07 69.57 302.95 70.63 303.96 71.55 305.03 72.11 306.46 73.12 307.01 74.28 306.18 75.39 305.35 76.54 304.56 77.28 303.27 78.71 301.89 83.93 301.79 84.99 302.99 86.14 302.53 88.04 303.55 88.73 304.29 89.75 304.29 91.55 304.06 93.58 302.95 96.49 302.72 97.18 302.76 100.6 307.01 103.28 310.52 104.76 312.42 106.6 314.86 108.91 316.99 111.87 319.53 116.58 323.13 118.43 324.56 119.12 324.79 120.09 324.51 121.2 323.27 122.77 322.48 124.38 323.68 126.56 323.5 129.37 322.02 131.4 321.74 132.1 321.42 134.5 320.82 136.12 317.4 136.9 316.25 138.28 315.19 139.07 313.99 139.72 312.51 139.07 311.26 138.61 310.48 138.88 309.18 139.72 308.44 139.72 307.15 142.21 305.95 144.61 302.53 146.37 301.06 146 300.18 146 299.62 146.37 298.79 146.83 297.04 147.94 295.56 149 294.77 150.06 294.04 150.8 292.19 151.82 291.31 153.2 290.34 154.17 289.19 154.17 288.31 153.85 287.8 153.8 286.97 153.57 286.32 152.42 285.91 150.8 286.42 149.28 286.32 148.49 286.05 146.92 286.55 146.37 284.85 144.75 285.63 143.87 286.55 142.76 287.99 140.59 287.89 140.5 286.18 141.7 285.26 142.4 283.37 143.55 282.35 144.15 280.41 147.89 275.56 148.12 274.73 148.03 272.75 147.98 272.01 149.83 271.87 152.32 273.53 152.46 272.1 155 269 156.25 266.97 156.57 265.63 156.57 261.62 157.73 260.05 158.42 258.57 159.34 257.32 160.13 255.98 160.45 254.59 164.89 251.27 166.36 249.65 167.43 247.44 166.96 246.61 164.84 246.47 164.19 245.36 164.66 244.02 164.75 241.53 165.49 240.23 166.55 239.45 166.32 237.14 167.43 234.92 166.69 233.49 166.87 231.64 168.67 227.9 166.83 227.07 166.69 226.28 168.67 225.18 168.67 223.56 169.92 221.62 169.92 220.7 172 218.25 173.25 216.17 174.12 214.93 175.23 213.54 176.2 212.85 177.77 211.6 176.94 210.31 176.85 209.61 178.23 208.6 179.29 207.49 179.57 205.78 182.11 204.26 182.11 203.1 184.42 200.56 183.08 199.41 183.04 198.48 185.44 196.31 186.18 193.73 189.36 191.19 189.36 186.15 191.44 184.72 191.44 181.77 192.64 179.32 193.15 178.03 192.78 176.27 194.12 172.85 194.91 170.96 196.01 169.44 199.89 169.67 203.03 170.22 207.33 170.59 209.82 170.91 211.53 171.24 213.56 171.05 214.99 171.88 215.22 175.16 217.4 178.07 219.24 180.7 224.41 181.44 231.25 183.1 233.79 183.71 237.16 183.43 238.64 183.71 240.39 185.14 239.1 188.23 238.64 189.29 239.01 191.6 237.62 192.76 238.18 194.33 238.5 196.64 239.33 197.14 239.47 200.28 240.76 201.49 243.72 201.21 244.92 202.59 248.29 205.97 250.19 206.15 251.38 206.84 253.51 207.63 251.43 211.55 250.09 211.69 249.35 210.91 246.63 210.77 245.71 211.69 245.45 213.26 244.27 215.34 243.26 217.56 242.29 219.73 241.96 221.62 242.15 225.5 242.7 226.28 248.62 228.27 250.28 228.32 251.89 228.82 253.51 228.78 254.9 227.81 256.42 225.69 260.35 222.5 263.99 218.9 265.06 218.25 266.02 216.91 268.2 216.59 268.2 213.54 272.17 204.95 274.85 203.38 276.23 200.61 279.1 198.67 278.63 197.38 275.22 194.97 275.77 193.59 277.62 191.37 277.71 189.8 276.23 188.05 276.69 186.75 278.63 185.18 280.67 183.61 281.68 182.13 281.68 180.75 281.68 179.55 284.73 179.64 284.73 178.72 285.65 177.33 287.69 172.99 288.24 168.93 288.88 168.93 290.64 169.57 292.95 169.67 294.43 168.93 294.98 168.47 294.98 166.06 294.98 164.68 296 162.65 296 159.88 296.55 157.66 299.32 153.41 300.62 151.56 300.62 150.09 301.26 148.42 302.46 147.5 302.46 146.39 303.48 147.22 304.87 146.39 307.45 148.88 308.28 148.98 308.84 147.87 308.37 146.94 308.84 146.39 310.22 145.28 310.87 143.25 310.87 142.69 311.42 141.86 310.96 140.11 309.76 140.11 309.02 139.46 309.48 138.08 310.78 138.08 312.25 140.29 314.1 141.96 316.41 142.42 317.8 143.06 319 143.06 321.03 143.43 322.41 145 322.88 147.59 322.88 149.72 325.09 150.09 325.65 151.56 327.22 152.58 328.51 152.76 328.51 151.19 329.53 149.81 330.45 147.87 331.37 145.93 331.37 145.1 333.4 143.25 335.07 142.05 336.82 141.59 338.3 142.42 339.87 143.8 340.43 144.73 342.73 143.99 342 141.59 340.89 140.11 339.32 138.82 337.65 138.08 336.92 136.69 336.92 135.49 337.38 134.57 338.3 133.55 339.69 133 343.75 131.34 343.75 130.6 340.89 128.66 338.49 128.01 331 124.59 331.93 122.19 331.19 119.51 330.17 117.85 328.97 114.99 328.05 113.71 325.46 113.23 323.34 113.23 321.95 112.68 319.92 112.68 317.61 112.68 315.49 113.23 313.73 113.23 310.59 112.68 308.56 112.68 307.27 113.14 304.4 111.94 300.34 111.94 299.23 111.02 298.12 111.02 297.29 110.09 297.57 108.89 299.23 106.95 300.25 105.29 301.45 102.98 302 100.76 301.91 96.79 301.26 94.67 300.15 93.83 299.14 93 298.77 91.62 297.75 89.86 296.27 89.86 296.55 88.48 294.98 89.4 293.97 90.14 292.86 90.23 293.32 91.43 292.76 92.27 292.67 93.37 291.01 94.2 289.44 96.14 287.41 101.13 285.93 104.36 284.73 106.58 284.18 104.92 284.27 102.89 284.82 101.5 285.93 97.53 287.41 95.22 288.24 91.62 288.33 88.48 289.16 86.81 289.62 85.25 290.18 83.21 289.62 81.18 291.19 80.72 292.12 78.78 292.49 77.02 295.07 77.58 297.38 77.02 298.68 75.27 299.32 73.42 299.23 69.27 299.78 67.23 301.45 65.66 302.74 63.35 304.4 62.89 305.88 61.6 304.22 59.48 300.25 56.24 298.77 55.41 297.85 55.41 298.03 53.84 296.55 49.78 294.61 48.02 292.03 45.07 290.18 42.57 290.36 38.32 290.09 36.29 290.92 34.54 290.64 31.3 290.18 28.72 291.19 26.41 291.01 25.21 289.35 25.21 283.9 28.44 281.4 30.38 279.74 30.93 277.71 32.78 276.32 33.43 275.03 34.54 271.61 33.61 269.03 32.04 266.9 30.2 265.89 29.36 264.59 29.83 263.21 32.04 262.19 34.91 261.73 36.29 260.71 36.85 260.25 38.6 260.07 39.43 260.71 40.82 260.53 42.57 259.79 44.14 258.13 44.88 257.11 46.82 253.51 49.78 253.32 50.88 253.79 52.36 253.32 53.84 252.22 54.95 251.48 56.8 250.74 58.09 251.2 59.84 246.03 66.77 245.45 67.97 247.41 71.02 248.06 72.41 246.4 74.81 244.83 75.64 242.33 80.07 241.13 81.18 241.13 83.12 239.56 85.98 240.49 87.74 239.47 88.94 238.55 90.88 237.9 92.73 235.96 94.67 233.93 98.08 233.37 99.84 233.37 101.22 231.62 101.87 230.33 103.44 228.85 105.47 226.82 106.58 224.32 107.23 223.12 108.15 222.94 110.09 222.38 111.85 223.12 113.71 223.12 116.46 222.11 117.85 223.77 118.22 226.91 118.59 228.85 119.88 230.33 120.34 228.29 121.64 221.83 122.1 220.81 122.75 220.17 124.22 217.76 126.62 215.64 128.47 214.16 131.7 212.13 133.74 210.47 134.66 210.28 135.95 208.53 137.06 210.1 138.26 210.56 138.63 209.91 139.93 208.99 142.14 207.97 143.8 207.6 145.65 205.57 146.48 204.74 147.22 202.53 150.92 200.95 152.3 199.57 153.78 198.18 154.61 196.71 155.44 193.38 155.35 191.35 156.64 188.12 156.46 187.01 156.83 184.33 157.66 182.67 157.75 179.06 160.25 177.59 159.32 174.08 157.38 172.78 156.74 172.41 156.09 170.57 155.81 169.92 153.5 166.78 152.67 166.22 152.95 164.01 151.56 163.92 150.64 162.44 149.81 161.15 148.42 160.04 147.96 158.28 144.45 153.57 143.9 152.46 142.79 150.43 143.43 150.15 144.91 147.01 143.62 145.07 142.42 144.34 141.03 142.86 142.05 141.29 141.5 140.46 140.2 139.53 140.94 138.7 140.02 138.7 138.45 137.31 137.43 136.12 138.45 133.16 138.45 132.24 136.78 131.13 136.78 128.91 134.75 127.53 136.23 127.71 138.17 126.97 138.82 125.4 138.72 124.75 139.28 125.58 140.76 125.22 141.68 125.4 142.69 127.43 142.79 127.53 144.54 125.49 145.56 125.31 147.04 124.48 148.33 125.86 150.64 125.22 152.3 125.86 153.69 124.48 158.31 125.77 160.71 125.49 161.91 124.57 162.55 122.26 162.83 121.52 161.35 119.77 161.63 118.66 160.34 117.73 160.43 116.9 161.81 116.44 162.83 113.12 164.12 108.96 165.69 103.69 164.31 102.49 163.11 100.09 164.03 97.41 163.11 95.29 163.57 91.69 163.85 90.39 162.83 87.81 163.57 85.68 163.29 84.3 162 82.82 161.35 81.34 159.14 79.13 159.14 76.63 159.51 73.49 158.58 72.57 157.29 69.33 153.41 66.29 154.52 66.29 153.59 65.18 153.87 64.72 152.21 63.33 150.18 62.78 148.7 62.22 149.25 62.22 151.28 60.38 151.38 59.82 153.5 59.08 155.16 60.1 156.64 58.62 157.1 58.8 159.14 57.7 159.04 56.87 160.25 57.05 161.44 56.22 161.44 55.66 162.74 53.91 163.2 52.62 163.48 51.14 162.92 50.49 164.03 49.02 165.42 48.09 166.8 47.45 168.65 46.34 170.03 44.86 170.22 44.77 171.51 43.01 171.33 42.55 172.34 42.64 173.36 41.72 174.19 42.55 175.95 41.9 177.7 39.78 176.87 38.39 177.24 37.1 179.36 34.79 179.55 34.05 182.13 32.57 182.87 32.48 183.98 31.74 185 31.56 186.29 31 187.22 31.28 188.51 29.99 189.99 28.05 189.8 26.66 190.63 26.94 192.08 26.2 194.14 24.63 196.18 21.3 196.18 17.8 196.08 15.49 194.97 13.82 194.7 12.81 194.7 8.74 192.85 6.25 192.85"/><path class="cls-2" d="M119.09,326.28l-1.34-.45L111,320.65l-3-2.59-2.52-2.35-6-7.85-3-3.73-2.48.2-2,1.09-2.25.28H88.12l-1-1-1.11-.59-1.47.59-1.29-1.46-4,.07-.89.86-.8,1.4-1.43,1-3,2.16L71,307.45l-.65-1.68-.72-.83-1.45-1.39v-.83l-.14-.12-2.13.51-1.28.08-1.66.37-5.37-2.91-.28-1.12-1.58-.84L52.95,300l-1.26,1.13-2.79-.39-.34,1.47-1.31.79H45.42l-1.17-1.49-.07-.54H41.69l-.92-.28h-2l-1.28-1.58-1-1.89-.81-1.38H34l-.72-1.28-1.15-.34-.38.18L30,296.87l-2.75-4,.81-1.44-.46-.61-.28-1.44v-1.86l.49-1.75.2-1.49.53-1.2-.51-.91-2.47-2.83L28.78,273l1.42,1.42.89-.68,6.48-6.28,1.49.53.64-.38,3.89-4.22.29-2.54,3.43-2.59.23-1.73,1.24-2.85,3.66-5.12h1.48l.46-1.75h2l.63-1.32.75-1.32,1.18-1.37.91-.77.18-.52L32.47,220l-26-21.54-.85-1.93-1.12-5H9.05l4.06,1.85.94,0,1.86.31,2.22,1.06,3.21.08h2.59l1-1.3.53-1.49-.39-2,2.63-1.58,1.68.16.35-.4L29.5,187l.69-1.16.19-1.36.71-1,.13-1.51,1.63-.82.84-2.93,2.57-.21,1.21-2,2.38-.64,1,.41L40,173.84l1.18-1.06-.06-.68,1-2.29,1.31.14.07-1,2.06-.26.6-.75.72-1.94L48,164.38l1.33-1.24,1.15-2,2.21.83,1.91-.46.65-1.52h.11l0-.13L57,157.56l.24,0-.14-1.49.74-.23-.38-.55,1-2.28.79-3,1.54-.08v-1.27l2.53-2.52,1.27,3.38L66,151.6l.16.56,1.53-.38v.72l2.08-.76,3.94,4.73.64.89,2.37.7,2.39-.34h3l1.67,2.5,1.32.58,1.23,1.15,1.38.18,3-.86,1.43,1.12,3-.23,2.42-.53,2.57.88,2.78-1.07,1.58,1.58,4.46,1.17,6.51-2.49.3-.63,1.2-2,2.37-.24,1.07,1.25,2-.31.76,1.51,1-.12.19-.13,0-.15L123,158.46l1.4-4.66-.67-1.44.61-1.58-1.48-2.47,1.13-1.76.24-1.91,1-.52-1,0-.46-2.53.27-.67-1.07-1.9,2-1.68,1.3.08-.15-1.62,2.78-3,2.84,2.61h1.39L134,137h1.6l1.66-1.4,2.87,2.1v.93l.68-.54,1.42,2.21.43.15,2.19-1.51,1.31,2.45,1.52.94,1.42.59.11-.6,3.66-1.17,1.37,1.37,5,.59,1.86,3.72.9.38,1.35,1.45,1.93,1.08.1,1,1,.6.32-.16,4.44,1.17.62,2.21,1.62.24.5.87.91.46,4.31,2.44,3.17-2.19,1.89-.11,3.85-1.23,3,.17,2-1.28,3.37.09,2.32-1.35,1.35-1.43,1.41-1.24,2.22-3.69,1.17-1,1.55-.63.27-1.35,1.09-1.78,1.05-2.46L206,137,209,135.1l.19-1.34,2.1-1.17,1.71-1.71,1.5-3.28,2.36-2,2.14-2.14.71-1.63,1.68-1.07,5.57-.4-.53-.36-2.94-.35-3.78-.84,2-2.76v-2l-.83-2.08.66-2.09.23-2.4,1.92-1.48,2.6-.67,1.6-.87,1.29-1.77,1.59-1.93,1.19-.44v-.62l.75-2.26L235,93.66,236.67,92l.6-1.68L238.39,88l.4-.47L238,86l1.76-3.21v-2.2l1.49-1.38,2.59-4.6,1.63-.86,1-1.45-.26-.56-2.34-3.63,1.06-2.15,4.76-6.38-.44-1.66,1-1.71.81-2,1.07-1.07.23-.72L251.87,51l.33-2L256,45.91l1.11-2.12,1.63-.73.41-.88.12-1.12-.68-1.47.29-1.3.63-2.4,1.06-.58.29-.86L262,31.29l1.65-2.63,2.51-.9,1.64,1.34,2.07,1.8,2.31,1.4,2.5.68.87-.75,1.37-.64,2.09-1.9,1.72-.57,2.45-1.89L289,23.79h3.27l.43,2.81-1,2.29.4,2.29.31,3.62-.81,1.72.24,1.74-.17,3.87,1.51,2L295.62,47,297.76,49l1.71,4.71-.06.48,1.72,1,4.19,3.46,2.49,3.18-2.73,2.39-1.4.39-1.11,2L301,68l-.4,1.45.09,4.21-.8,2.29-1.73,2.34-3.13.75-1.51-.32-.18.68-1.2,2.51-.84.25.29,1.06-1.22,4.24-.69,1.38-.12,3.1-.56,2.42,1-1.29,1.22-.61.06-.68.35-.52L290.86,89l2.6-.22.81-.58,4.3-2.53-.56,2.8h.57l1.57,2.81.25.94.66.54,1.43,1.07.84,2.75.1,4.36-.72,2.71-1.2,2.31-1.2,1.93-1.45,1.72h.88l1.11.92h3.84l2.62,1.1,1-.36,2.52,0,3,.53h1.45l2.31-.55h4.61l1.39.55,2.11,0,3.14.58,1.42,2,1.16,2.76,1.06,1.74.92,3.32-.61,1.59,6.16,2.82,2.52.68,3.68,2.49v2.44l-6,2.46-.57.63-.22.45v.51l.34.64,1.39.62,2,1.66,1.26,1.67,1.22,4-4.71,1.51-1-1.7-1.29-1.14-.85-.48-.94.25-1.38,1-1.51,1.37v.53l-2.12,4.4-.74,1v2.74l-3.22-.46-2.22-1.44-.43-1.15-2.59-.43v-3.2l-.37-2.07-.8-.9-1.42-.26h-1.39l-1.52-.71-2.52-.5-.78-.71-.37.56v.34l-.84,2.65-1.35,1.08.33.67-1.31,2.63-2.29-.26-2.15-2.08-1.31.79-.22-.18-.69.53-.41,1V152l-1.55,2.21-2.61,4-.45,1.82V163l-1,2v4.12l-1.34,1.07-1.8.9-2.9-.12-.92-.34-.38,2.76-2.23,4.72-.69,1v2l-3-.09v1.57l-1.39,2-3.81,3-.05.15,1.32,1.56-.15,2.6-2.06,2.54,2.87,2,1,2.75-3.47,2.35-1.41,2.81-2.66,1.56-3.65,7.9v4l-2.79.42-.79,1.09-1.17.71-3.63,3.58-3.78,3.07-1.55,2.17L254,230.18l-2.28.07-1.66-.52-1.68,0-6.55-2.2-1.06-1.5-.21-4.45.45-2.38,2-4.51,1.05-1.86.29-1.77,1.69-1.69,3.92.2.58.62.92-1.74-.82-.33-.94-.54-2.09-.21-3.8-3.8-.72-.83-2.86.27-2.19-2-.13-3-.76-.46-.4-2.83L236,192.3l1.52-1.27-.31-1.92,1.5-3.54L238,185l-.94-.18-3.4.28-2.76-.65-6.78-1.65-5.71-.82-2.2-3.13-2.4-3.21-.21-2.95-.39-.23-1.78.16-1.9-.36-2.41-.31-4.36-.38-3.06-.54-3-.18-.55.76-.72,1.74-1.17,3,.37,1.75-.71,1.79-1.06,2.15v3.37l-2.08,1.43v5l-3.37,2.68-.73,2.54-2,1.82,1.77,1.53-2.92,3.21v1.41l-2.66,1.6-.24,1.49-1.55,1.59-.55.4,1.14,1.77-2.57,2-.87.62-1,1.23-.79,1.13-1.36,2.22-1.74,2.05V222L170.09,224v2l-1,.54,1.46.66L168.26,232l-.12,1.18.88,1.7-1.25,2.49.27,2.7-1.47,1.09-.42.73-.09,2.36-.28.83,2,.13,1.19,2.15-1.47,3.07-1.81,1.95-4,3-.25,1.09-1,1.65-.84,1.13-.77,1.59-.88,1.2,0,3.89-.38,1.56-1.48,2.38-2.27,2.76-.32,3.36-4-2.69.07,1.56-.37,1.32-3.75,4.87-.64,2.08-1.18,1-.35,1,.65-.68,3.31-1.61.62,1.91.68-.22,1.05.37,1.06.06,1.82-.57,2.23.8.52,1.47,0,.67.35.54v1.81L154,291.5l-1.33.93-.7.6-.77,1.92-2.27,1.62-.82,1.09-.47,1.7-.24.54.66,1.56-2.41,2-2.51,3.57-2,1v1l-1,.85-.06.3.18.31,1,1.91-1,2.3-.92,1.4-1.4,1.07-.59.87L135.49,322l-2.92.73-.76.36-2,.27L127,324.89l-3,.25-1.35-1-.55.27-1.2,1.35Zm0-3,0,0,.15,0,1-1.14,2.59-1.3,1.89,1.4,1.35-.11,2.78-1.46,2.06-.28.75-.32,1.75-.44,1.44-3,.91-1.34,1.38-1.05.59-.9.33-.75-1-1.84.49-2.29.7-.62v-1.55l3-1.43,2.44-3.38,1-.81-.08-.18v-1.14l.45-1,.5-1.91,1.4-1.87,2-1.43.71-1.77,1.39-1.19,1.23-.86.5-.59-.28-.44-.07-.85-1.41.44-2-.12-.52-.18-2.46.8-.48-1.47-.58.61-1.51,2-4.19-.18-.2-3.74,1.47-1.13.68-1.85,1.13-1,.56-1.8,3.73-4.83.1-.35-.21-3.87,3.73-.28,1.16.78,2.47-3,1.08-1.76.23-1v-4.31l1.35-1.83.78-1.59.88-1.18.64-1.09.39-1.68,4.74-3.55,1.25-1.37.44-.91-1.62-.11-1.35-2.32.6-1.75.1-2.63,1.06-1.86.65-.48-.19-1.91,1-1.94-.6-1.17.25-2.51,1.28-2.66-1.2-.54-.44-2.52,2.14-1.19v-1.2l1.25-1.94v-1l2.34-2.76,1.24-2.06.88-1.25,1.28-1.61,1.64-1.21-.31-.48-.24-1.84,2-1.44.67-.7.31-1.92,2.42-1.45v-.9l1.7-1.87-.7-.6-.11-2.2,2.6-2.35.75-2.63,3-2.4v-5.1L190,184v-2.54l1.32-2.69.33-.84-.37-1.75,2.45-6,1.56-2.15,4.82.3,3.08.54,4.23.36,2.55.33,1.59.3,2.29-.21,2.47,1.43.25,3.61,1.92,2.58,1.52,2.16,4.7.68,9.15,2.21,3.34-.27,2,.38,2.85,2.33-2,4.77.43,2.7-1.25,1,.29.92.23,1.65.9.55.15,3.31.4.37,3.05-.29,1.65,1.9,3,3,1.69.17,1.36.79,3.53,1.3-3.19,6-2.79.29-.83-.88-1.53-.08-.15.15-.22,1.37L245.54,216l-1.88,4.16-.27,1.57.21,3.38,5.27,1.77,1.65,0,1.58.5,1,0,.84-.59,1.64-2.2,3.87-3.14,3.86-3.76.82-.5,1.15-1.59,1.55-.23v-2.14l4.29-9.28,2.7-1.58,1.36-2.73,2.17-1.47-3.82-2.68,1.05-2.64,1.69-2,0-.54-1.64-1.95.87-2.44,2.25-1.82,1.88-1.45.64-.93v-3.61l3.12.09,1-1.55,1.9-4,.69-5.08h2.14l1.78.66,1.72.07.92-.46v-3.43l1-2,0-2.78.61-2.45,2.9-4.45,1.06-1.52v-1.3l.89-2.28,1-.74v-3.4l2.56,2.1,1.46-.88,1.89,1.82,1-1.15,1-.84.45-1.41v-.76l.44-.66,0-.08h-.64l-1.85-1.62,1.08-3.25h3.07l1.8,2.7,1.43,1.28,2.25.49,1.1.51,1.14,0,2.52.46,2,2.24.55,3.23v.92l1.84.31.68,1.81.28.18v-.08l1.21-1.65,1.65-3.47v-1.14l2.62-2.37,1.88-1.36,2.57-.67,2.22,1.29,1.65,1.46-.18-.57-.86-1.14L338.56,140l-1.93-.86L335.5,137v-1.89l.7-1.4,1.27-1.4,4-1.61-1.16-.78-2.39-.66-8.69-4,1.23-3.21-.56-2-1-1.68-1.14-2.71-.5-.68-1.9-.35h-2.27l-1.38-.55h-3.89l-2.31.55-2,0-3-.53H308.8l-1.58.56-3.11-1.3h-4.29l-1.11-.92h-1.23l-1.75-1.94.52-2.26,1.82-2.12,1-1.57,1.08-2.08.47-1.87L300.5,97l-.46-1.5L299.3,95l-1.42-1.16-.44-1.64-.51-.88-2.15,0,.12.31-.76,1.14L294,94.28l-2.1,1.05-1.25,1.54-2,4.79-1.5,3.29-2.8,5.18-1.67-5,.12-2.53.61-1.54,1.15-4.1,1.46-2.28.74-3.23.1-3.31.91-1.83.87-3.08-.82-3,2.3-.67.58-1.22.63-3,3.66.78,1.49-.36.86-1.17.49-1.4-.09-4.1.71-2.62,1.79-1.7,1.48-2.63,1.92-.53.23-.2-.74-.94-3.75-3.06-1-.59h-2.15l.33-2.82-1.24-3.42L293.55,49l-2.66-3L288.74,43l.2-4.62-.32-2.32.85-1.79-.24-2.79-.53-2.95.78-1.77-4.79,2.84-2.62,2-1.61.54-2,1.79-1.4.66-1.71,1.47L271,34.93l-3-1.82L265.61,31l-.08,0-1,1.67-1.59,4.61-1,.53-.37,1.47.61,1.31L261.91,43l-1.07,2.26-1.69.75-.92,1.76-3.41,2.8,0,.25.49,1.58-.7,2.23-1.15,1.15-.72,1.75-.45.79.49,1.85-5.5,7.36-.17.36,1.63,2.55,1,2.12-2.32,3.35-1.51.8L243.46,81l-.91.84v1.68L241.17,86l1,1.93-1.51,1.79-.81,1.7-.73,2.08-2,2-1.86,3.12-.44,1.39v2.15l-2.32.86-1,1.27-1.61,2.22L227.17,108l-2.21.57-.48.37-.19,1.62-.4,1.27.65,1.65v3.44l2.87.34,2.05,1.37,4.2,1.31L228.75,123l-6.47.46-.35.22-.58,1.33-2.59,2.59-2,1.71-1.46,3.19L213,134.88l-1.22.68-.18,1.24-.59.37,1.33,1.07-1.16,2.32-1,2.32-.89,1.45-.47,2.35-2.51,1-.49.43-2.22,3.7-1.68,1.49-1.48,1.57-1.55.93-1.85,1-3.28-.09-2.05,1.31-3.42-.2-.85.28-3,.9-1.26.07-4,2.8-2.27-1.42-3.44-1.9-1.62-.81-.24-.42-2.08-.31-.68-2.41-1.84-.49-.79.39-3.48-2.18-.09-.88-1-.58-1.23-1.32-1.31-.55-1.65-3.3-4.44-.52-.85-.85-.4.13-.44,2.36-5-2.06-2.26-1.4-.17-.32-.77.53-2.71-1-.24-.38-.74.59-2.09-2.32v-1.25l-.65.55h-4.31l-.92-1.66h-.83L129,136.76l.19,2-1.72,1.51-.55,0,.24.42-.28.69,1.9.09.21,4-2.18,1.09-.13,1-.53.82,1.29,2.15-.68,1.75.62,1.33L126,158.15l1.27,2.36-.52,2.25-1.66,1.16-3.65.44-.72-1.44-1.51.24-.85-1-.19.32-.67,1.47L109,167.18l-6.07-1.6-.82-.82-2,.78-2.79-1L95.4,165l-4.15.32-1.16-.91-2.17.62L85,164.64l-1.54-1.44-1.64-.72-1.29-1.93H79.23l-2.7.4-3.91-1.15-1.18-1.65-2.56-3.07-4,1.46v-1.13l-.69.17-.77-2.77-.11-.16-1.82.09-.37,1.34-.42.94,1.66,2.41-2.22.69.23,2.57-2-.17,0,.06.35,2.27H57.15l-.46,1.07-2.42.64-1.76.38-.75-.28-.15.25-1.51,1.42-.73,1.1-.67,1.91-1.62,2-.89.11-.11,1.6L44,172.86l.1,1.08-.67.6.63,1.34-1.35,3.67-3-1.19-.39.1-1.37,2.26-2.05.16-.64,2.24-1.32.66-.06.71-.77,1.05-.18,1.23-.41.69.31,1.44-2.24,2.56-2.2-.21-.14.08.16.86-.94,2.64-2.13,2.76h-4l-3.85-.1-2.4-1.15-1.35-.23H12.5l-4.06-1.85H8l.32,1.46.42.92,25.49,21.1,29.1,22.74-1.11,3.17-1.4,1.19-.85,1-.48.89-1.37,2.86H56.57l-.46,1.75H53.9l-2.72,3.81-.88,2.08L50,259.75l-3.41,2.58-.26,2.26-4.79,5.2-2.13,1.28-1.09-.39-5.41,5.22L30,278.13l-.42-.42-.61,1.2,1.48,1.74,1.27,2.28L30.72,285l-.2,1.37-.41,1.48v1.31l.08.38,1.2,1.6-.17.3.68-.31,3.28,1,.48.84h1.65L39,295.81l1,1.81.18.21h1.07l.92.28h4.54l.07.5,1.64-.82,2.41.34.59-.53,2.39-1.11.72-1.65,4.65,2.47.8,1,.11.49,3.32,1.8.94-.19,1.26-.08,3.17-.79L71,301.41v.93l.71.69,1.09,1.25.37,1,2.32-1.66.68-1.18,2-1.92,6.43-.11.83.94.84-.34,2.68,1.44.43.46h.31l1.45-.19,2.06-1.12,3.31-.26,1.42.1,3.81,4.73,6,7.78,2.21,2,2.92,2.51Z"/></svg>