<svg id="Layer_1" data-name="Layer 1" xmlns="http://www.w3.org/2000/svg" viewBox="0 0 350 350"><defs><style>.cls-1{fill:#999;stroke:#f90;stroke-miterlimit:10;stroke-width:2.83px;}</style></defs><title>M</title><path class="cls-1" d="M320.73,197.63l-76.67,98-34-9.33v9.33l-15.33,4.67s4,8,4,11.33-12,2.67-12.67,6-8,14-5.33,18,6.67,4.67-10.67,3.33-36.67-10.67-38.67-12.67-12-4-12-4l-16,6-6.67-8s6-12.67,14.67-20,6.67-9.33,3.33-18.67,1.33-13,1.33-13,2-9.65.67-13.65.67-2.67,4.67-8,10.67-10,5.33-14.67-12.67-4-18-12.67-5.33-12.67-6-19.33S110.07,185,110.07,185s-6-4.67-13.33-4.67S89.4,191,85.4,191.63s-15.08-6-15.08-6-.25,4.67-8.92,5.33-16,.67-20.67-10.67-8-9.33-7.33-18.67-3.33-11.33-4-15.33,1.33-8.67,3.33-10S52.07,131,52.07,131l8-17.33L85.4,107s2.67-22.67,4.67-23.33,14.67,0,14.67,0S110.07,59,110.07,57s2-4,15.33-9.33,14-6,18-6h18c6,0,17.87,4.67,13.6-3.33s-14.93-5.33-4.27-8,26-3.33,26-6-11.33-22.67,2-9.33S215.4,37,215.4,44.29,214.73,63,213.4,65s-14.67,0-14.67,0a5.22,5.22,0,0,1-1.33,4.67c-2,2-10,0-10.67,4S187.4,75,187.4,87s-2,17.33,2.67,18,16-2,18-2,15.33-1.33,15.33,2.67-10,32,2,44,20.67,26,34.67,34S294.73,197,299.4,197,320.73,197.63,320.73,197.63Z"/></svg>