<svg id="Layer_2" data-name="Layer 2" xmlns="http://www.w3.org/2000/svg" viewBox="0 0 350 350"><defs><style>.cls-1{fill:#999;}.cls-2{fill:#f90;}</style></defs><title>M_</title><polygon class="cls-1" points="115.47 334.76 117.04 336.33 120.7 337.38 125.94 337.38 130.91 337.38 139.28 337.38 143.99 336.07 147.92 336.07 151.58 334.76 157.86 334.76 161.26 333.45 167.28 332.14 170.94 330.57 172.78 326.91 171.73 323.51 171.21 320.1 169.11 318.53 166.5 317.23 165.19 314.61 164.14 311.99 164.66 308.59 164.93 304.66 163.88 301 162.83 297.81 164.93 297.81 169.64 296.29 173.82 296.29 178.27 293.67 181.41 293.67 186.65 292.37 195.22 290.53 202.09 287.65 207.32 287.65 212.81 284.51 218.31 283.21 224.07 279.02 228.78 274.57 233.49 271.43 237.41 267.5 238.72 263.58 238.72 259.39 242.38 255.21 248.93 252.59 254.16 251.02 260.18 249.71 266.2 249.71 271.69 249.71 276.93 249.71 282.68 248.14 286.87 245.78 286.87 241.07 286.87 235.32 285.56 230.87 284.78 225.9 283.73 220.14 285.04 215.69 288.96 212.55 292.1 210.46 292.1 207.84 292.1 202.35 292.1 197.11 292.1 193.71 290.53 190.57 288.96 185.07 287.13 180.89 286.61 176.96 286.35 171.73 285.82 167.54 284.78 162.31 283.21 158.12 281.38 154.72 277.97 157.07 273.26 159.69 267.77 162.31 264.63 163.35 263.06 165.45 259.92 167.28 259.92 169.37 261.49 170.42 263.58 173.56 263.06 176.18 262.53 179.32 261.49 182.17 259.65 185.34 256.78 186.65 252.07 188.74 248.14 190.31 242.91 192.4 240.03 194.76 237.41 195.54 234.79 196.33 232.18 196.33 230.35 196.85 227.99 197.11 229.3 199.99 230.08 202.35 229.3 206.01 226.42 207.58 225.11 208.63 221.71 210.2 219.36 210.2 217.79 207.06 217.52 204.7 217.52 200.51 215.17 202.08 213.6 203.65 211.5 206.01 210.98 208.89 209.41 210.72 207.58 212.29 205.75 214.36 203.78 215.95 207.32 217.78 207.32 220.14 206.79 223.02 204.96 224.59 201.3 225.11 197.64 225.11 195.22 225.11 191.35 222.76 189.52 217.78 188.48 214.36 185.86 210.72 181.94 207.84 179.06 204.44 177.49 199.99 179.06 197.64 182.2 195.8 183.77 193.71 178.53 191.09 175.39 190.05 173.04 189 171.21 185.86 168.33 182.17 166.5 178.27 168.06 174.87 170.42 170.16 171.73 167.02 174.35 162.57 178.53 159.95 181.67 157.86 184.29 154.72 186.65 152.1 185.34 148.96 185.07 144.51 187.43 142.94 190.83 142.94 195.22 142.94 197.37 144.51 201.56 145.56 209.15 146.87 213.07 147.92 217.78 148.44 221.71 149.22 224.59 149.49 229.04 151.06 232.7 151.06 235.58 149.75 235.84 145.56 236.63 141.37 236.63 136.14 235.58 130.91 235.06 125.67 234.79 120.96 234.79 114.94 235.58 112.06 236.37 108.92 234.01 108.92 231.13 111.28 227.99 111.54 220.4 113.9 216.74 113.9 214.12 113.64 216.48 110.76 216.74 108.92 216.74 105.78 216.74 103.43 214.65 98.98 212.29 96.89 208.1 96.89 204.96 94.79 202.08 94.79 201.3 92.18 201.56 88.78 199.21 82.76 197.11 78.05 196.33 74.64 192.93 72.29 189.26 72.29 185.34 72.29 181.94 72.29 176.44 72.29 173.82 68.63 172.78 66.27 168.59 64.96 164.4 62.61 159.17 62.61 155.5 62.61 151.58 62.61 148.7 60.25 146.87 60.25 143.99 56.85 140.33 56.85 138.76 53.45 136.4 50.05 136.4 47.17 135.62 43.24 132.48 37.75 130.12 33.3 128.29 30.42 123.58 26.76 117.82 23.88 115.47 23.88 111.02 23.88 107.62 23.88 104.22 23.88 100.81 21.78 99.24 19.69 96.1 19.69 94.53 21.52 92.18 21.52 90.87 21.52 89.82 19.69 85.9 16.55 83.54 15.24 80.14 15.24 77.52 15.24 72.03 12.63 68.36 12.63 64.7 14.72 60.25 16.81 57.9 20.21 57.9 24.14 57.9 27.02 60.25 28.85 61.3 34.08 61.82 37.22 62.34 41.15 65.22 44.29 68.36 47.43 71.5 50.05 75.95 51.35 78.57 52.14 83.02 53.97 85.64 55.02 87.47 56.33 89.82 57.11 88.51 59.99 85.9 61.3 82.5 61.82 79.88 62.87 77 64.7 74.64 66.27 73.34 68.63 72.55 70.46 71.5 74.64 70.46 76.48 68.36 77.78 65.22 78.83 61.82 80.14 59.73 82.5 57.9 84.85 61.82 86.94 66.01 86.94 70.98 87.47 74.64 87.47 79.09 87.73 82.5 87.99 86.42 87.99 91.92 87.47 95.84 84.85 98.72 84.33 101.34 84.33 103.17 85.9 103.95 90.08 105 94.53 107.09 97.93 109.71 99.5 113.37 101.07 116.25 102.12 119.13 103.95 121.75 104.48 123.32 105.26 125.15 107.62 124.36 111.28 124.36 114.94 125.93 119.13 126.72 122.27 127.5 124.63 129.07 130.91 129.07 134.05 129.07 137.71 126.98 141.37 124.63 143.47 123.06 145.56 120.96 146.87 118.61 147.92 116.25 150.53 114.42 152.36 112.59 155.24 109.97 158.38 109.19 162.31 106.83 165.97 105.26 168.33 104.48 171.99 103.69 175 101.34 178.79 100.81 182.17 98.72 184.29 96.89 186.38 93.75 187.43 91.65 188.48 88.78 188.22 86.68 188.48 85.11 190.05 83.28 191.35 81.97 193.19 80.66 195.02 79.09 196.59 78.57 199.47 79.88 202.87 79.88 205.75 79.88 208.1 79.88 212.29 79.09 216.48 78.31 219.62 77.78 222.76 77 226.42 76.48 229.04 76.22 232.18 75.17 235.06 73.6 236.37 69.15 238.72 66.27 241.6 65.22 242.65 68.63 244.48 73.34 244.74 75.69 244.74 77.78 245.52 80.66 247.35 84.33 250.76 87.47 252.59 89.82 254.42 92.18 254.94 94.27 254.94 96.89 255.99 99.24 257.56 99.5 260.96 100.29 263.84 102.38 265.67 103.69 268.03 105.26 270.64 106.31 274.31 108.66 277.19 111.8 280.59 112.85 282.68 114.16 287.92 115.47 292.37 115.47 296.55 115.73 300.21 115.47 304.4 115.47 309.64 113.9 313.56 113.11 317.23 113.11 321.15 113.11 327.17 113.64 331.09 115.47 334.76"/><path class="cls-2" d="M139.47,338.79h-19l-4.21-1.2-2-2-2-4.08-.57-4.35,0-10.24.85-3.89,1.47-3.67v-5l.26-4.18-.26-3.67v-4l-1.25-4.25-1.29-5.14-.89-1.78-3-3.25L105,275,104,271.21l-1.47-2.46-1.21-2.18-2.23-2-.94-3.56-.21-2.71-1.66-1.11L94,256.36l-2.13,0-2.67-.59-2.53-2-3.31-2-3.57-3.31-2.64-1.68-1.71-.64h-2.1l-5.1-.28L62.87,243l5.42-5.42,4.51-2.38,1.16-1,.85-2.34.27-3.11.52-2.62.79-3.68.53-3.19.79-3.14.74-4v-9L77.1,199.6l.67-3.71,1.8-1.8,2.69-3.76L84.19,189,86,187.13l2.73-.34,2.63.24,1.92-.94,2.78-.92,1.58-1.8,1.83-1.85.5-3.21,2.39-3.86.73-2.8.83-3.87,1.72-2.58,2.2-3.42.8-4,2.79-3.35,2-3,1.83-1.83,2.51-2.79,2.54-1.13,1.79-1.12,1.6-2.09,2.18-1.94,1.79-3.13v-6.25L126.14,125l-.8-2.41-.77-3.06-1.63-4.35,0-4.22.65-3-1.23-1.58-1.11-.56-2.69-.54-3-1.89-2.73-1L109,100.72,106.07,99l-2.39-3.89-1.1-4.67-.71-3.76-1.06-.91h-2l-2.46.45-4,2.65-6,.56h-4L79,89.14l-4.42-.26H70.91l-5-.52H61.47l-5.72-3.05,2.87-3.68L61,78.94l3.72-1.43,3-1,1.65-1,.77-1.35,1.07-4.21.85-2,1.47-2.65,2.64-1.76,3.14-2,2.93-1.13,3.18-.49,2-1,.45-1-1.06-.35L85,56.27l-6.86-2.79-7.27-2.15-3.46-2.89-3.14-3.14L61,41.78l-.58-4.37-.52-3.09L59,29.64l-2.49-1.93V19.77l2.82-4.08L64,13.46,68,11.21h4.36l5.5,2.62h6.07l2.87,1.62,4.14,3.31.77,1.35h2.19l1.57-1.83H100l1.83,2.44,2.83,1.74h13.54l6.29,3.18,4.9,3.81,2,3.18,2.36,4.45L137,42.74l.86,4.43V49.6L140,52.85l1.19,2.58h3.41l2.88,3.4h1.68l2.88,2.36h12.69l4.38,2.46,4.66,1.46,1.25,2.81,2.11,3h16.2l4.22,2.92.88,3.8,2,4.58,2.5,6.38L202.73,92l.41,1.35h2.25l3.14,2.09h4.3l3,2.64,2.35,5v6l-.32,2.22-.93,1.13h3.29l7.69-2.35,2.7-.23,2.93-2.4h4.68l-1.23,4.9-.74,2.72V121l.26,4.63.51,5.1,1.06,5.44,0,5.49-.77,4.1-.31,4.95L233,152.47h-4.21l-4.51-1.59-2.85-.27-3.87-.77-4.86-.56-3.86-1-7.63-1.32-4.45-1.11-2-1.46h-6.9l-1.32.88.2,3.4,1.56,3.75-3,3.28-2.71,3.26-3.31,2.21-3.93,2.45L173,167.65l-1.27,3.05-2.4,4.8-1.27,2.76,1.48,3.16,2.89,3.72,1.6,2.75,1.87.83,3.26,1.1,6.75,3.38-2.76,3.68-3.1,1.81-1,1.49,1.25,3.54,2.6,3.07,4,2.91,2.88,4,1.12,3.65,1.64,4.43,3.1,1.89h5.58l3.15-.45,1.14-1,.41-2.26v-1.37l-4.69-2.43,3.55-2.89,1.89-2.12,1.75-1.5,1.25-1.46.53-2.89,2.36-2.65,1.84-1.81,4.56-3v6.76l.23,2,1.06,2.13h1.17l3-1.37,1.38-1.08,2.31-1.26.57-2.65-.64-1.92-2.08-4.59,4.18-.46,1.91-.54h2.61l4.76-1.43,2.83-2.31,9.36-3.74,7.12-3.19,1.54-2.67,1-2.61.5-3,.42-2.09-1.61-2.42-2-1.31v-3.67l3.6-2.1,1.66-2.22,3.48-1.16,5.42-2.58,4.57-2.54,4.65-3.22,2.66,5,1.63,4.41,1.06,5.34.53,4.29.26,5.18.49,3.67,1.81,4.18,1.53,5.37,1.66,3.32v17.84l-3.72,2.48-3.53,2.82-1.09,3.7,1,5.43.78,4.91,1.34,4.56v11.5l-5.23,2.89-6.13,1.62H260.33l-5.82,1.26-5.12,1.54-6.17,2.47-3.09,3.53v3.89l-1.49,4.46-4.38,4.34-4.61,3.07-4.76,4.48-6,4.35-5.57,1.33-5.65,3.23h-5.32l-6.86,2.85-8.57,1.83-5.53,1.34h-2.75l-4.45,2.62h-4.35l-4.71,1.52h-.36l.44,1.33,1.13,4-.29,4.29-.46,3,.88,2.2,1.07,2.14L170,317.4l2.56,1.92.6,3.87L174.3,327,172,331.67l-4.4,1.86-5.91,1.29-3.55,1.36h-6.3l-3.66,1.31h-4ZM120.9,336h18.19l4.71-1.31h3.87l3.66-1.31h6.26l3.36-1.28,5.89-1.28,3.06-1.31,1.35-2.69-.93-3.06-.44-2.83-1.53-1.15-2.93-1.46-1.57-3.15-1.19-3,.57-3.72.24-3.62-1-3.43-1.64-5h3.83l4.71-1.52h4l4.45-2.62h3.35L186.3,291l8.49-1.82,7-2.94h5.14l5.35-3.06,5.42-1.29,5.46-4,4.83-4.53,4.59-3.06,3.59-3.59,1.13-3.39v-4.49l4.24-4.84,7-2.79,5.34-1.6,6.32-1.34h16.56l5.41-1.47,3.31-1.86v-9.43l-1.29-4.43-.79-5-1.1-6.05,1.53-5.2,4.37-3.49,2.51-1.67V194L289.17,191l-1.54-5.41-1.87-4.28-.56-4.24-.26-5.18-.51-4.08-1-5.07-1.5-4-1-1.92-2.22,1.53L274,160.93l-5.74,2.72-2.72.91-1.48,2-2.69,1.57v.52l1.17.78,2.58,3.86-.64,3.19-.58,3.35-1.15,3.08-2.06,3.56-8,3.59-9,3.6-2.93,2.4-5.7,1.71h-2.63l-1.87.51-.41,0,.55,1.24.91,2.72-1,4.68-3.34,1.82-1.5,1.15-3.68,1.7h-3.54l-2.07-4.15-.3-2.76v-1.54l0,0-1.47,1.47-1.77,2-.52,2.87-2,2.28-1.76,1.51-1.93,2.15-.29.23,2.38,1.23,0,3.47-.61,3.37-2.53,2.17-4.27.6h-6.48l-4.62-2.82-2-5.44-1-3.28-2.35-3.27-4-3-3-3.6-1.89-5.36,2.14-3.22,3.18-1.85.38-.51L178,192.41l-3.17-1.06L172,190.11l-2-3.45-3-3.88-2.11-4.5,1.85-4,2.37-4.75,1.36-3.23,2.79-4.75,4.48-2.8,2.93-2,2.49-3,1.79-2-1.06-2.54-.32-5.5,3.39-2.26h8.68l2.31,1.68,3.87,1,7.66,1.33,3.82,1,4.73.53,3.85.77,3.15.33,4.22,1.49h3.11l1.82-.83.23-3.51.76-4.06v-5l-1-5.23-.52-5.23-.27-4.77v-6.29l1.17-4.41h0l-2.83,2.31-3.42.29-7.65,2.37h-4l-5.25-.52,3.78-4.62.19-1.34v-5.08l-1.83-3.9-1.74-1.54h-4.08l-3.14-2.09H201l-1.16-3.88.26-3.34-2.24-5.72-2.15-4.91-.66-2.87-2.59-1.79H175.71l-3.18-4.5-.79-1.77-3.85-1.23L164,64h-13l-2.88-2.36h-2l-2.88-3.4h-3.91l-1.9-4.11L135,50.49V47.31l-.71-3.56-3-5.3L128.9,34l-1.67-2.62L122.82,28l-5.33-2.67H103.81l-4-2.44-1.31-1.74H96.75l-1.57,1.83H90l-1.32-2.31-3.62-2.9-1.93-1.07h-6L71.71,14h-3L65.3,16l-4.1,1.93-1.89,2.72v5.67l2.22,1.73,1.15,5.75L63.22,37l.47,3.53,2.58,2.81,3.05,3,2.87,2.39,6.92,2.06,7.35,3L88.12,55l3.65,1.22L89.6,61l-3.27,1.63-3.46.53-2.34.94L77.76,65.9l-2,1.36-1.11,2-.71,1.66-1.07,4.27-1.32,2.31-2.7,1.64-3.14,1-3,1.16-1.86,2.1-.74,1,2.13,1.14h4l4.9.52h3.59l4.53.26,3.37.26h3.8l5.07-.48,3.87-2.58,3.42-.6h3.14l2.61,2.24.88,4.68,1,4.16,1.79,2.91,2.24,1.34,3.58,1.53,3.08,1.15,2.66,1.69,2.54.51,2,1,2.44,3.13-.89,4.16v3.26l1.53,4.1.77,3.09.8,2.41,1.61,6.62v7.18l-2.39,4.19-2.42,2.15L124,146.62l-2.49,1.54-2.08.92-2.15,2.39-1.77,1.78-1.86,2.89L111.29,159l-.77,3.84-3.93,6-.73,3.4-.85,3.28-2.32,3.73-.55,3.55-2.42,2.44-2,2.32-3.41,1.14-2.36,1.18-3.13-.28-1.46.18-1.4,1.38-1.64,1.17L81.67,196l-1.26,1.26L80,199.33l1.26,3.28,0,9.95-.79,4.19-.79,3.17L79.18,223l-1.3,6.25-.33,3.43-1.18,3.24-2.11,1.72L70,239.87l-2.43,2.43,1.45.78,4.4.24h2.53l2.6,1,3.08,2,3.55,3.29,3.16,1.86,2.1,1.64,1.89.42h2.21l3.13,1.28,2.93,2,.3,4,.64,2.34,2,1.71,1.43,2.57,1.69,2.92,1,3.38,2.17,2.65,3.22,3.49,1.24,2.56,1.31,5.23,1.35,4.59v4.34l.27,3.71-.27,4.28v5.42L115.26,314l-.73,3.4v9.7l.48,3.6,1.62,3.25,1.15,1.15Z"/></svg>