<svg id="Layer_1" data-name="Layer 1" xmlns="http://www.w3.org/2000/svg" viewBox="0 0 350 350"><defs><style>.cls-1{fill:#999;}.cls-2{fill:#f90;}</style></defs><title>M</title><path class="cls-1" d="M277.72,238.41v5.4l-6.65,2.49v11.22l-14.54,4.57-2.08,12.7,9.56,5.58-22.85,14.54-23.68-5-7.06,6.65-5-3.32-9.14,5,5,7.89L172.6,342.2l-37.68-30.74-21.51-18.93-12.46-22.75,2.18-9.66L133,244.85l-2.49-11.53,11.22-3.12-6.23-10.59h-5.92l-.62-4.36,6.54-3.43-2.18-4.67-34,12.46-9-15.58L78.2,207.77l-5.92-9.35L99.7,186.59,78.82,147.64l17.45-12.46S83.5,114.82,100,96.23c0,0,27.73-14.44,32.72-11.53s5.82,11.63,8.72,12,13.71-3.32,19.94-6.23,18.28-6.23,18.28-7.89,2.49-.42-2.08-9.14S166.79,58.53,161,49s-10.8-16.2-10.8-17.45-.42,2.49,8.72-10,10.39-15,18.28-13.29,22,5.82,32.4,9.14,19.53,10.8,19.53,17,1.66,12.46-.42,14.13-1.25.42-6.23,9.14-7.89,15-6.23,17.86,4.57,4.57,1.66,4.57-3.79-.16-5,.22-18.64,9.33-18.64,9.33l-3.32,16.62h-9.14l-2.91,14.54S164.44,122,163.06,125l-5,10.8s-16.31,4.28-14.12,9.55,2.7,13.13,2.7,13.13,5.17,10,6,11a8.67,8.67,0,0,0,8.38,3.83c5.28-.56,7.06-1.39,7.06-1.39l1.41-2.07s7.5,5.7,9.4,3.74a20.11,20.11,0,0,0,3.08-4.29s13.9-7.11,10,3.16-2.67,19.41,12.7,26.47c0,0,1.87,8.87-6.33,12.33l.06,8.08s-1.39,3.29-1.62,4.25,1.71,9.67,1.71,9.67,1.2,7.22-3.37,8-9.14,12.46-9.14,12.46l4.15,5s7.31-4.35,10-3.74,27.42,14.07,40.3,10.78l-2.08-2.47,3.32-11.22,7.89-3.74L247,241.32l9.56-2.91V232.6Z"/><path class="cls-2" d="M172.81,344.21,134,312.56l-21.74-19.13L99.45,270l2.45-10.83,29.53-15.07-2.54-11.77,10.73-3-4.88-8.3h-6.34l-.94-6.57,6.23-3.26-1.06-2.27L98.76,221.36l-9.07-15.63-12.11,3.72L70.2,197.78,97.72,185.9,77,147.21l17.44-12.46C92,130,84.22,111.87,99,95.29l.17-.2.23-.12c6.67-3.47,28.83-14.56,34.08-11.5,3.07,1.79,4.68,5.32,6,8.17.62,1.35,1.65,3.62,2.23,3.7,2.2.32,12.22-2.88,19.14-6.11,2.46-1.15,5.72-2.33,8.88-3.47s7.58-2.75,8.61-3.56a3,3,0,0,1,.5-1.23c.15-.24.62-1-2.45-6.83a95.93,95.93,0,0,0-8.56-12.88c-2.63-3.53-5.35-7.18-8-11.55-2.48-4.08-4.81-7.62-6.68-10.46-3.36-5.11-4.33-6.64-4.33-7.72V31.4A1.5,1.5,0,0,1,150,29.8c.12-.05,1.76-.9,7.76-9.08l1.54-2.11C167.06,8,169.15,5.12,177.47,6.87c7.81,1.64,22,5.79,32.54,9.18,10.08,3.23,20.51,11,20.51,18.38,0,2,.18,4,.35,5.93.38,4.31.68,7.72-1.29,9.31l-.62.48c-1,.76-1,.76-4,6l-1.28,2.25c-2.54,4.44-7.82,13.68-6.23,16.46a16,16,0,0,0,1.71,2.32c.94,1.12,1.75,2.08,1.21,3.23s-1.91,1.14-2.49,1.14l-2,0a8,8,0,0,0-2.67.18c-1,.34-11.19,5.53-17.8,8.93l-3.42,17.09h-9.14L180,122.17l-1.07.09c-7.13.57-14,2.13-14.62,3.34L159.08,137l-.65.17c-4.37,1.15-11.8,4-13.11,6.6a1.16,1.16,0,0,0-.07,1c2,4.9,2.66,11.75,2.78,13.28,2.45,4.75,5.21,9.93,5.67,10.54l.15.19a7.2,7.2,0,0,0,7,3.11,31.53,31.53,0,0,0,6.29-1.15l2-2.94,1.19.9c3,2.31,6.73,4.19,7.58,3.84a19,19,0,0,0,2.78-3.91l.21-.41.41-.21c2-1,8.69-4.13,11.57-1.55,1.41,1.27,1.54,3.45.38,6.48-3.08,8.07-4.06,17.31,12,24.68l.65.3.15.7c.7,3.32.22,10.23-6.3,13.52l.06,7.46-.11.27c-.5,1.19-1.34,3.25-1.53,4a89.21,89.21,0,0,0,1.7,9.1c.54,3.27.19,8.9-4.5,9.75-2.47.45-5.89,6.35-7.76,10.82l2.85,3.42c2.51-1.41,7.41-3.89,10-3.3a33.69,33.69,0,0,1,4.29,1.79c7.07,3.19,22.94,10.34,33,9.39l-1-1.16,3.72-12.56,7.31-3.46-2.56-7.25,10-3v-6.62l24,6.59v7.46l-6.65,2.49v11.27l-14.7,4.62L256,274.06l10.72,6.26-25.3,16.1-23.52-5-7.34,6.91-5.21-3.47-7.06,3.85,4.72,7.47Zm-58.28-52.58,21.32,18.77,36.53,29.8L199.54,306l-5.25-8.32,11.22-6.12,4.76,3.17,6.78-6.38,23.84,5,20.4-13-8.39-4.9L255.27,261l14.38-4.52V245.32l6.65-2.49V239.5l-18.35-5v5l-9.14,2.78,2.42,6.87-8.48,4L239.83,263l3,3.61-2.19.56c-10.77,2.75-28.62-5.29-37.2-9.16-1.65-.75-3.37-1.52-3.77-1.61-1.3-.3-5.64,1.62-8.93,3.58l-1,.62L184.28,254l.31-.78c.81-2.07,5.12-12.41,10.21-13.34,3.09-.56,2.24-6.37,2.23-6.42-2-9-1.77-9.92-1.69-10.23.22-.9,1.2-3.27,1.58-4.19l-.07-8.74.87-.37c5.9-2.49,5.82-8.11,5.6-10.06-13.5-6.43-17.55-15.33-12.74-27.94.78-2,.69-3.08.37-3.36-.93-.84-4.87.24-8,1.77a21.53,21.53,0,0,1-3.09,4.21c-2.13,2.2-6.82-.41-10.07-2.71l-.8,1.18-.35.17c-.21.1-2.15.95-7.51,1.52a10,10,0,0,1-9.51-4.19l-.13-.17c-.8-1-4.87-8.87-6.1-11.25l-.13-.26,0-.29c0-.08-.52-7.69-2.59-12.68a4,4,0,0,1,.15-3.39c2.08-4.19,11.5-7.12,14.28-7.9l4.71-10.2c1.45-3.15,10.89-4.42,15.89-4.88l2.93-14.64h9.14L193,88.74l.61-.31c4.11-2.11,17.6-9,18.87-9.43a10.3,10.3,0,0,1,3.56-.31h.77A17,17,0,0,1,215,76.26c-2-3.5.77-9.71,6.23-19.27l1.28-2.24c3.22-5.64,3.28-5.75,4.73-6.86l.57-.44c.79-.63.49-4.08.24-6.84-.17-1.89-.36-4-.36-6.18,0-5.29-8.49-12.47-18.54-15.68-10.5-3.36-24.55-7.48-32.26-9.1-6.53-1.37-7.53,0-15.3,10.63L160,22.39c-4.64,6.32-6.94,8.67-8.2,9.58.61,1.15,2.13,3.47,3.61,5.72,1.88,2.86,4.22,6.42,6.73,10.54s5.27,7.85,7.86,11.33a98.17,98.17,0,0,1,8.8,13.26c3.57,6.81,3.24,8.25,2.32,9.68a1.46,1.46,0,0,0-.09.16c0,1.88-2.67,3-10.44,5.77-3.1,1.12-6.3,2.28-8.65,3.38-5.49,2.56-17.09,6.88-20.74,6.35-2.11-.3-3.18-2.63-4.41-5.33s-2.54-5.56-4.83-6.89c-2.66-1.56-18.16,4.72-31.11,11.44-15.33,17.5-3.92,36.27-3.43,37.06l.71,1.13L80.66,148.07l21,39.21L74.37,199.07l4.45,7L91,202.35l9,15.53,34.07-12.5,3.3,7.08L130.53,216l.31,2.15h5.5l7.58,12.88-11.71,3.25,2.44,11.29-30.29,15.46-1.92,8.49Zm63.72-209h0ZM151.58,31.37"/></svg>