<svg id="Layer_1" data-name="Layer 1" xmlns="http://www.w3.org/2000/svg" viewBox="0 0 350 350"><defs><style>.cls-1{fill:#999;}.cls-2{fill:#f90;}</style></defs><title>M</title><path class="cls-1" d="M6.25,209.28s3.17,3.24,7.19,1.34A12,12,0,0,0,15,207c.22-1.49,2-4.55,2.94-4.66,0,0,3.43,2.72,5.4,2.87s7.19,2.35,8.54,2.39,7.49,3.17,8.65,3.58,5.18,2.76,5.78,3.65a31.25,31.25,0,0,1,4.39,4.25s1.53.7,1.39-.81a22.47,22.47,0,0,0-.93-4.57c-.27-.58-1-3.7-1.22-4.16s-1.19-1.71-.17-1.7,6-.07,6.35,0l2.34.27c.45.06,1.4.45,1.54-.16s1.27-4.6,2.19-4.29,2.88,3,3.33,3.27,4.88,4.68,5.18,4.94,7.31,6.31,8.19,6.85a3.92,3.92,0,0,0,1.89.65c.31,0,1.81-.14,1.81-.14s-.19-3.83-.14-3.94,0-.39.62-.39,5-.15,5.32-.26.06-1.37,0-1.6-.09-1.24.19-1.24a2.49,2.49,0,0,1,1.44.37c.89.43,3.29,1.13,3.37,1.17s.29.2.57-.88.46-1.45.65-1.23a14.35,14.35,0,0,0,1.78,1.44c.21.09.27-.19-.06-1s-.62-2.67-1-3.33-2-3.76-2.09-4.06,0-.72.15-.72a14.93,14.93,0,0,1,4.42-.94,39.09,39.09,0,0,1,7.16.75l.17,0s3.26-4.72,4-5.89c0,0-2.61-1.89-3-2.88s-1.39-3.68-1-4.65.22-1.47,1.59-1.37S113,189.7,113,189.7s6.26,2,6.86,1.94,1.76,1.91,1.76,1.91.42.6,2.39-.15c0,0,3.63-.3,4.17-.27s3.4.37,4.85-1.09a2.3,2.3,0,0,1,2.93-.47,5,5,0,0,1,3.13,3,13.17,13.17,0,0,1,.87,3.68s6.14-3.06,8.35,2.36c0,0,1,3.8-2.76,4.08,0,0,.07,2.41,1.91,3.28s1.86,1.17,1.86,1.17a21.92,21.92,0,0,0,2.48-2.78c0-.37,2.93-1.22,2.93-1.22s-.1,3.55.35,3.85a23.78,23.78,0,0,1,2.86,2.39c.17.32,1.64,3.9,1.64,3.9s-1.71,1.59-1,2.61,1.37.84,1.66.7a2.7,2.7,0,0,1,2.81,0c1.07.87,1.59,2.58,2.16,2.83a2,2,0,0,0,2-.72c.2-.47,2.91-2.14,3.75-.89s-.35,1.64-.35,1.64-2.68,1.17-1.64,2.58,2.53,1.76,3.13,2.19.6.7.22,1.24A9.5,9.5,0,0,1,171,229.2c-.37.27-2.63,2.09-3,2.29s-.2.77-.77.25-.62-.72-1.64-.72-1.54,1-3,1.14-1.27.27-1.74-.25a3,3,0,0,0-1.81-1c-.55,0-3.28-.17-3.83.22s-1.94.55-1.89,1.49a9.9,9.9,0,0,1-2.19,5s-.72,2.11.62,3.35a19.32,19.32,0,0,0,3.33,2.66c1.09.65,9.77,2.91,9.77,2.91s-2.16,2.53-1.81,5.37a6.27,6.27,0,0,0,1.24,3l2.53,3.16a28.83,28.83,0,0,0,2.93-1.91c.2-.3,3.83,1.42,4.35,1.54a45.81,45.81,0,0,1,7.26,3.23s4.7-3,5.29-3.63a1.59,1.59,0,0,1,1.12-.32c.65.07,3.63.45,4.94-.52s4.27-2.51,4.8-2.88,1.42-1.54,2.61-1.39a4.91,4.91,0,0,1,2.73,1.34c.7.62,1.34.5,2.11-.1a.83.83,0,0,1,1.39.37c0,.27-.47,1.76.1,2.24s1.76-1.47,1.89-.4-.12,1.44.42,1.84,1.37-.84,2-1.79a1.57,1.57,0,0,1,2-.57,2,2,0,0,1-.52,2.76c-1.49,1-2.93,1.66-3.21,2.31a2.65,2.65,0,0,0-.25,2.61,1.34,1.34,0,0,1-.52,1.84,2,2,0,0,1-2.26.82,6.2,6.2,0,0,1-2.24-.65,3.37,3.37,0,0,0,.84,3,7.06,7.06,0,0,0,2.63,1.69c1.49.47,5.59,1.49,6.46,1.71s2,1,6.78.92c0,0,4.5.37,4.92-1.59,0,0,1-1.81,2.63-1.81s3.6,0,4.12-1a8.18,8.18,0,0,1,4.15-3.48,12.28,12.28,0,0,1,5.24-.55s.25-6,.62-9.12c.3-.3,9.54-15,10.29-15.8s6.34-5.37,7.75-5.81,8.35-4,11.85-8.95,9.39-14,12.08-15.43,5.37-2.53,14.31.15,8.42,0,13.27-3.13c0,0,.07-1.27,9.91-1.57s11-2.31,11-2.31l11.11-3.5s-4-3.28-4.44-3.58a27.1,27.1,0,0,1-2.61-2.42c-.3-.37-3.09-3.54-3.65-4.14s-3.84-5.07-4.51-5.67a10.27,10.27,0,0,1-2.24-3c-.3-.86-2.35-4.44-2.72-5.59s-2.42-5.93-2.87-6.9-2-5.18-2.27-6.08-1.45-4.66-1.64-5.59-1.79-4.73-2-6.78-1.08-5.67-1-7.45-.41-6-.41-6.34-.15-4.4-.07-5.52.3-6.08.45-7.45.48-5.4,1.16-6.86c0,0,1.9-7,2.16-7.34s3.54-8.24,5.85-10.81c0,0-7.38-2.39-9.09-3.13s-5.7-2.53-6.15-2.76a54.65,54.65,0,0,0-5-2.24c-1.3-.41-5.89-1.71-7.75-2.12s-8.76-2-10.85-2.16-6.11-1.16-7.79-1.16-4.29-1-5.81-1-4.7-.86-6.6-.75-5.11-.75-7.49-.48-6.9-.22-8.46-.15-4.06-.45-6.19-.07-6.56.82-7.38,1-10.62,1.57-11.59,1.57-9.09.75-10.44.52a62.86,62.86,0,0,0-7.45.37,12.66,12.66,0,0,1-6,.56,53.77,53.77,0,0,1-5.74,0s-3.62-.15-5.26-.41-7.27-.56-8.42-.71-9.17-1-9.91-1.08-9.32-1.68-9.73-1.64-11.33-1.49-13.46-2.09a41.11,41.11,0,0,0-4.36-.93s-4.17,7.72-3.09,8.61,4.51,3.88,6.63,5.78,10.36,9.58,13.42,14.2,5.29,6.11,4.85,7.68-4.4,7.27-3.73,6.19-2.24,2.76-2.35,4.29-4.36,9.13-6.63,11.74-7.31,8.46-6.78,10.81.82,1.19,0,4.14-3.35,11.29-3.69,12.71-1.34,2.16-3.58,1.64-1.9-1-1.71-2a42,42,0,0,0,1.27-7.27c0-2.61.34-4-.89-3.35s-3.35-.37-3.09,1.6-.19,2.46-1.3,1.86-1.94-2.24-4.66-1.75-4.7-3.35-5.26-4.58-2.12-2.46-3.28-.78-2.09,3.54-5.14,4.62-7.42,5.33-7.42,5.33l-1-.67a6.7,6.7,0,0,1-.89-4,54.59,54.59,0,0,0,.26-6.67c-.15-.45-3.69-.15-5.37-.15s-5.81-1-7-2.39-2.42-2.76-3.13-2-1,3.65-.26,4.55,2.39,3.24,2.12,4.14-2.91,9.43-3.06,9.77-5-.45-5.14-1.23,1.34-5.59,1.38-6.08-2.09,1.3-2.87,1.64-2,1.12-.86-1a1.38,1.38,0,0,0,.75-1.49c-.26-1-1.49-1.68-1.49-1.9s1.19-.63,1.6-1,.34-1.23-2-2.76-2.8-1-2.65-2.53S75,135.22,75,135.22a5.72,5.72,0,0,1-2.72,1c-2,.34-3.39-4.55-3.21-1s1,5.48-.52,6.82-6.62,6.34-6.75,6.37,4.32,5.72,3.54,4.36,2.18,2.68,2.46,3.45-4.9,1.86-5.57,2-2.94.15-3.15-1.34-.17-1.71-1.53-2a22,22,0,0,0-4.62-.35c-2,0-3,2.31-3.43,3s-1.17,2.39-1.29,2.57-2.25-5.27-2.53-5.78,2.16-.93-1.34.19-3.78,1.62-5.87,1.68-5.27.15-6.75-.54-2-.63-2.18-1.3.07.09-.26-.78-1.47-1.53-1.43-1.7c0,0-4.71-.9-6.1-.2a6.49,6.49,0,0,0-2.09,1.59s1.14,13,2.68,15.55,1.29,7.06,1.29,7.06-3.18,4-1.89,7.7"/><path class="cls-2" d="M221.43,273.57c-.41,0-.74,0-1,0a18,18,0,0,1-6.7-.84l-.39-.12-.67-.17c-1.49-.38-4.59-1.16-5.87-1.57a8.36,8.36,0,0,1-3.24-2.07,4.77,4.77,0,0,1-1.19-4.3l.5-2,1.67,1.14h0a7.25,7.25,0,0,0,1.67.42c.6.1.79-.11.82-.15l.23-.66.18.06a3.77,3.77,0,0,1,.16-3.44l.11-.24a2.54,2.54,0,0,1,.54-.79,1.83,1.83,0,0,1-.39-.22,2.18,2.18,0,0,1-.85-1.15,1.66,1.66,0,0,1-1.53-.35,2.42,2.42,0,0,1-.79-2,2.7,2.7,0,0,1-2.85-.58,3.5,3.5,0,0,0-2-1c-.29,0-.78.42-1.08.69a6.4,6.4,0,0,1-.53.45c-.24.17-.68.42-1.5.88-1.06.6-2.52,1.43-3.28,2-1.17.86-3.09,1.12-5.9.79l0,0a66.45,66.45,0,0,1-5.49,3.78l-.83.53-.79-.6a48.09,48.09,0,0,0-6.75-3,12.4,12.4,0,0,1-1.51-.59c-.53-.22-1.5-.63-2.08-.83-.47.34-1.26.84-2.61,1.64l-1.06.62-3.3-4.11a7.53,7.53,0,0,1-1.55-3.77,8.12,8.12,0,0,1,1-4.65,64.82,64.82,0,0,1-8.24-2.56,20.44,20.44,0,0,1-3.57-2.84,4.71,4.71,0,0,1-1-4.85l.11-.31.23-.23a9.06,9.06,0,0,0,1.77-3.93c-.09-1.66,1.46-2.29,2.12-2.55a2.77,2.77,0,0,0,.37-.16c.63-.46,1.62-.58,4.24-.49h.4a4.25,4.25,0,0,1,2.75,1.36h0l.62-.08a2.64,2.64,0,0,0,1.1-.46,3.74,3.74,0,0,1,2-.69,3,3,0,0,1,1.93.51c.42-.31,1.35-1,1.83-1.42l.82-.63a7.15,7.15,0,0,0,.77-.9,7.28,7.28,0,0,1-3-2.26,2.47,2.47,0,0,1-.43-2.14,2.64,2.64,0,0,1,.15-.42,3.87,3.87,0,0,1-.62.31,3,3,0,0,1-2.27.09,3.55,3.55,0,0,1-1.49-1.65,5.45,5.45,0,0,0-1-1.38c-.39-.32-1.24.1-1.28.12-.45.23-2,.81-3.44-1.13-.88-1.21-.39-2.63.46-3.74-.51-1.24-1-2.44-1.19-2.84-.43-.42-2-1.71-2.44-2s-.88-.59-1-3.06l-.4.16a21.25,21.25,0,0,1-2.61,2.88l-2.15,2.13-.21-2.45a12.28,12.28,0,0,0-1.11-.58,5.26,5.26,0,0,1-2.72-4.52l0-1.36,1.36-.1a1.69,1.69,0,0,0,1.3-.53A2.45,2.45,0,0,0,147,201a3.41,3.41,0,0,0-1.91-2c-1.94-.74-4.44.46-4.46.48l-2,1,0-2.22h0a12.55,12.55,0,0,0-.79-3.23,3.54,3.54,0,0,0-2.17-2.11l-.22-.06-.19-.13c-.23-.13-.65-.21-1.13.29-1.78,1.81-4.78,1.6-5.77,1.53h-.15c-.32,0-2.18.12-3.8.25-2.55.91-3.54,0-3.85-.43l-.06-.09a8.19,8.19,0,0,0-.93-1.27,69,69,0,0,1-6.84-1.95c-1.38-.3-5-1-6-1.13,0,.15-.11.31-.18.49s0,.92,1,3.57a11.72,11.72,0,0,0,2.5,2.28l1.08.78-.72,1.13c-.75,1.18-3.89,5.74-4,5.93l-.29.42-1.08.31-.41-.14a35.64,35.64,0,0,0-6.77-.68,9,9,0,0,0-2.81.51c.51,1,1.34,2.62,1.61,3.1a9.4,9.4,0,0,1,.71,2.19,12.13,12.13,0,0,0,.36,1.31c.21.51.7,1.72-.12,2.54a1.53,1.53,0,0,1-1.67.32,4.13,4.13,0,0,1-.73-.47,2,2,0,0,1-1,1.15,1.54,1.54,0,0,1-1.24,0l-.27-.08c-1-.31-2-.62-2.68-.91.08.89,0,1.89-1,2.29a33.92,33.92,0,0,1-5,.35c0,.75.07,1.85.12,2.85l.07,1.36-1.35.12c-.47,0-1.6.14-1.94.14a5.21,5.21,0,0,1-2.62-.85c-1.05-.64-8.32-6.93-8.39-7l-1.33-1.28c-1.1-1.07-3.38-3.3-3.75-3.58a7.34,7.34,0,0,1-1.16-1.2c-.28-.32-.79-.91-1.22-1.35a17.77,17.77,0,0,0-.92,2.73,1.81,1.81,0,0,1-.8,1.15,2.72,2.72,0,0,1-2.12.15l-.2,0L57,209.38l-1.07-.13c-.25,0-2.27,0-3.61,0h-1c.11.33.25.85.5,1.77.18.69.49,1.84.6,2.1a23.07,23.07,0,0,1,1.06,5,2.21,2.21,0,0,1-.85,2.13,2.69,2.69,0,0,1-2.54.09l-.32-.14-.21-.27a30,30,0,0,0-4.15-4l-.18-.14-.12-.19a24,24,0,0,0-5.07-3.1c-.41-.15-1.15-.49-2.42-1.08a43.78,43.78,0,0,0-5.81-2.42,18.88,18.88,0,0,1-4.14-1.13,28,28,0,0,0-4.44-1.26c-1.73-.13-4-1.58-5.29-2.5a8.88,8.88,0,0,0-1.56,3.09,13,13,0,0,1-1.77,4.13l-.22.34-.37.17c-4.88,2.3-8.66-1.47-8.81-1.63l2-2a5.15,5.15,0,0,0,5.21,1.21,9.37,9.37,0,0,0,1.14-2.66c.21-1.4,2.13-5.6,4.17-5.85l.59-.07.47.37c1.29,1,3.57,2.49,4.63,2.57a27,27,0,0,1,5.13,1.4,25.34,25.34,0,0,0,3.34,1c1,0,3,.85,6.9,2.68.92.43,1.87.87,2.18,1,1.09.39,5.13,2.61,6.31,4a37.4,37.4,0,0,1,3.1,2.81,17,17,0,0,0-.55-2.34,19.94,19.94,0,0,1-.77-2.55c-.16-.61-.39-1.45-.46-1.64l-.11-.19a2.59,2.59,0,0,1-.4-2.63,1.77,1.77,0,0,1,1.66-.86l2.5,0c3.08,0,3.76,0,4,0l1,.12,1.34.16.2,0c.38-1.3,1.18-3.62,2.33-4.27a1.78,1.78,0,0,1,1.46-.15c.89.3,1.78,1.27,3,2.7.25.29.6.69.71.78s1.1,1,4,3.83l1.22,1.18c1.06.93,7.24,6.23,8,6.7a2.68,2.68,0,0,0,1.15.44l.33,0c-.12-2.65-.1-2.87,0-3.16a1.9,1.9,0,0,1,1.94-1.28c.46,0,2.61-.07,4-.15v-.05a3.19,3.19,0,0,1,.42-2.36,1.69,1.69,0,0,1,1.32-.54,4,4,0,0,1,1.91.52,20.6,20.6,0,0,0,2.07.74c.25-.87.58-1.66,1.47-1.86l.15,0a4.51,4.51,0,0,0-.24-.73c-.35-.62-2-3.81-2.16-4.22a2.15,2.15,0,0,1,.15-2,1.59,1.59,0,0,1,1.06-.69l.25-.09a13.06,13.06,0,0,1,4.48-.88,48.54,48.54,0,0,1,6.61.58c.68-1,1.92-2.8,2.76-4a8.12,8.12,0,0,1-2.4-2.7c-1-2.55-1.48-4.46-1-5.68.06-.15.11-.29.15-.41a2.39,2.39,0,0,1,2.86-1.83c1.43.1,6,1.09,6.46,1.2l.12,0c2.71.85,5.81,1.76,6.47,1.87.47,0,1.32.1,2.65,2.13a4.41,4.41,0,0,0,1-.27l.19-.07.2,0c1.12-.09,3.77-.3,4.35-.28h.22c1.78.13,3-.1,3.55-.69a3.72,3.72,0,0,1,4.53-.78,6.41,6.41,0,0,1,3.88,3.83,20.67,20.67,0,0,1,.66,2.24,8.19,8.19,0,0,1,5,.05,6.22,6.22,0,0,1,3.58,3.69l.06.17a5.29,5.29,0,0,1-.61,4.13,3.92,3.92,0,0,1-1.82,1.39,1.77,1.77,0,0,0,.83.92c.43.21.8.39,1.12.57.57-.59,1.09-1.15,1.29-1.42.24-.72,1-1.23,3.87-2.06l1.87-.55-.05,1.95a21.21,21.21,0,0,0,.09,2.91,15.84,15.84,0,0,1,2.94,2.62c.18.34,1.15,2.67,1.7,4l.37.91-.72.67a3.36,3.36,0,0,0-.67.89h0a3.86,3.86,0,0,1,4.1.33,7.61,7.61,0,0,1,1.66,2.14l.23.38.18-.08a5.71,5.71,0,0,1,3.62-2,2.68,2.68,0,0,1,2.92,3.37,2.43,2.43,0,0,1-1.41,1.43,3.68,3.68,0,0,0-.91.6,4.91,4.91,0,0,0,1.79,1.22,5.94,5.94,0,0,1,.89.49,2.1,2.1,0,0,1,.58,3.2,11.1,11.1,0,0,1-1.78,2.06l-.74.58c-1.26,1-1.84,1.43-2.18,1.66a1.56,1.56,0,0,1-1.08.76,1.87,1.87,0,0,1-1.57-.56l-.23-.22-.13-.12h-.33a1.86,1.86,0,0,0-.56.28,5.29,5.29,0,0,1-2.22.85l-.57.08a2.14,2.14,0,0,1-2.34-.73,2.19,2.19,0,0,0-.87-.61h-.44a14.18,14.18,0,0,0-2.63.05,4.92,4.92,0,0,1-.83.4l-.35.15a11.72,11.72,0,0,1-2.31,5.4,1.82,1.82,0,0,0,.3,1.62,18,18,0,0,0,3.09,2.48c.67.37,5.31,1.69,9.4,2.76l2.19.57-1.47,1.72a6.55,6.55,0,0,0-1.49,4.27,4.8,4.8,0,0,0,.9,2.27l1.8,2.24c.69-.42,1.31-.82,1.54-1,.79-1,2-.47,4.65.65.44.18,1,.41,1.13.46a53.56,53.56,0,0,1,6.88,2.93c1.94-1.25,4-2.62,4.3-2.94l.1-.09a3,3,0,0,1,2.19-.65c3,.34,3.8-.15,3.94-.26a41.09,41.09,0,0,1,3.57-2.17c.49-.28,1.11-.63,1.25-.72a3.43,3.43,0,0,0,.27-.24,4.22,4.22,0,0,1,3.33-1.4,6.35,6.35,0,0,1,3.5,1.69l0,0a1.91,1.91,0,0,0,.28-.18,2.29,2.29,0,0,1,2.45-.3,2.11,2.11,0,0,1,1.22,1.8s0,.08,0,.13a1.56,1.56,0,0,1,1,.09,1.64,1.64,0,0,1,.87.9l0-.05a3.17,3.17,0,0,1,2.58-1.33h0a2,2,0,0,1,1.72.8,3.78,3.78,0,0,1,.53,2.68,3.22,3.22,0,0,1-1.46,2.06c-.42.27-.83.52-1.21.75a11,11,0,0,0-1.5,1l-.14.29c-.23.48-.3.62-.09,1.11a2.74,2.74,0,0,1-.81,3.45,3.57,3.57,0,0,1-3.49,1.18l-.12,0a5.61,5.61,0,0,0,2,1.29c1.2.38,4.25,1.15,5.71,1.52l.68.17.6.19a15.64,15.64,0,0,0,5.82.69h.13c1.56.13,3.19-.18,3.43-.51l0-.22.1-.16c.15-.26,1.52-2.52,3.86-2.52,2.07,0,2.73-.19,2.92-.35a9.3,9.3,0,0,1,4.83-4.07,11.81,11.81,0,0,1,4.42-.72c.1-2,.3-5.56.56-7.8l.06-.49.28-.28c.33-.47,2-3,3.55-5.51,4.4-6.87,6.31-9.82,6.75-10.31.75-.83,6.56-5.64,8.37-6.21,1.12-.35,7.85-3.81,11.13-8.42.67-.94,1.43-2,2.24-3.21,4.6-6.64,8-11.44,10.33-12.65,3.13-1.65,6.25-2.69,15.38,0,6.12,1.83,7,1.06,9.24-.8a27.86,27.86,0,0,1,2.52-1.95c.74-.93,3.14-1.77,11-2,7.54-.23,9.54-1.49,9.84-1.72l.2-.35,9.15-2.88c-1.16-.94-2.11-1.71-2.3-1.84a26.45,26.45,0,0,1-2.92-2.71c-.26-.32-3-3.44-3.58-4.05-.26-.28-.82-1-1.77-2.25s-2.32-3-2.65-3.33a11.4,11.4,0,0,1-2.63-3.57c-.1-.28-.63-1.3-1.06-2.12a29.16,29.16,0,0,1-1.67-3.5c-.35-1.07-2.36-5.77-2.81-6.73s-2-5.28-2.33-6.22c-.26-.77-1.47-4.69-1.69-5.76,0-.23-.31-1-.54-1.63a27.7,27.7,0,0,1-1.49-5.28c-.08-.74-.25-1.73-.44-2.77a29.65,29.65,0,0,1-.61-4.86c0-1.23-.2-3.82-.33-5.21-.05-.59-.08-1-.08-1.1s0-.3,0-.64c-.06-2.09-.11-4.15-.05-5,0-.34.06-1.06.1-1.92.1-1.94.24-4.61.35-5.59l.06-.58a28.08,28.08,0,0,1,1.16-6.6c1.69-6.27,2.1-7.32,2.33-7.67.1-.19.3-.64.58-1.24a71.55,71.55,0,0,1,4.14-8c-2.33-.77-6.14-2-7.36-2.57-1.6-.69-5.71-2.53-6.22-2.79a52.25,52.25,0,0,0-4.79-2.15c-1.27-.4-5.79-1.69-7.63-2.09l-1.29-.29c-2.5-.57-7.71-1.75-9.33-1.84a36.06,36.06,0,0,1-4.1-.62,27.18,27.18,0,0,0-3.61-.54A16,16,0,0,1,272.9,84a13.64,13.64,0,0,0-2.46-.43,20,20,0,0,1-2.92-.36,19.49,19.49,0,0,0-3.59-.39,19.61,19.61,0,0,1-3.36-.25,18.67,18.67,0,0,0-4.06-.24,41.47,41.47,0,0,1-5.82-.05c-1.13-.06-2.19-.11-2.73-.09a18.63,18.63,0,0,1-2.28-.09,15.76,15.76,0,0,0-3.73,0c-1.17.21-3,.43-4.55.62-1.15.14-2.45.3-2.76.37-.78.18-10.77,1.6-11.9,1.6-.26,0-1.43.09-2.56.17a57,57,0,0,1-8.11.33,54.09,54.09,0,0,0-6.91.37,14.26,14.26,0,0,1-6.42.59,53.43,53.43,0,0,1-5.79,0c-.09,0-3.66-.15-5.36-.42-.91-.15-3.32-.32-5.25-.45-1.47-.1-2.62-.19-3.13-.25s-2.61-.29-4.72-.51c-3-.32-4.83-.51-5.23-.57l-2.39-.42c-2.14-.38-6.6-1.17-7.16-1.21h0c-1.59-.06-11.86-1.59-13.81-2.13-1.17-.33-2.38-.58-3.2-.73a30.39,30.39,0,0,0-2.61,6.24c1.38,1.17,4.45,3.85,6.33,5.52,2.78,2.49,10.66,9.94,13.66,14.48,1.13,1.7,2.14,3,3,4,1.48,1.85,2.55,3.19,2.07,4.86a42.85,42.85,0,0,1-3.8,6.39l-.09.16,0,0-.17.19a13.11,13.11,0,0,0-1.94,3.47c-.16,2.14-4.9,10.18-7,12.57-6.35,7.28-6.56,9.17-6.47,9.57a10.47,10.47,0,0,0,.32,1.16c.37,1.11.28,1.43-.29,3.49l0,.17c-.36,1.3-1.05,3.64-1.75,6-.86,2.91-1.75,5.92-1.93,6.67-.27,1.12-1.32,3.61-5.28,2.69-2.44-.57-3.23-1.54-2.83-3.46l0-.23c0-.25.14-.65.26-1.15a30.94,30.94,0,0,0,1-5.88c0-.46,0-.88,0-1.26,0-.16,0-.32,0-.48a8.54,8.54,0,0,1-.93.07H134c.1.85.19,2.37-.89,3.11a2.29,2.29,0,0,1-2.52-.06,6.37,6.37,0,0,1-1.08-.78,2.73,2.73,0,0,0-2.66-.83c-3.62.65-6-3.56-6.79-5.39a1.6,1.6,0,0,0-.67-.76s-.07.08-.15.2l-.38.57a10.11,10.11,0,0,1-5.45,4.58c-2.27.8-5.75,3.89-6.9,5l-.81.79-2.24-1.44-.16-.24a8,8,0,0,1-1.13-4.89c.16-2.07.28-4.2.3-5.39-.69,0-1.63,0-2.28.05s-1.25,0-1.72,0c-1.66,0-6.42-1-8.1-2.86l-.1-.11c-.32-.36-.78-.87-1.16-1.24a4.57,4.57,0,0,0,.06,2.06c1.89,2.38,2.69,4.21,2.35,5.38,0,.08-2.89,9.42-3.12,9.94-.52,1.16-1.92,1-3.05.81-4.54-.63-4.71-1.88-4.79-2.41a10.72,10.72,0,0,1,.58-3.38l-.11.05-.25.11c-.62.29-1.76.82-2.62-.08s-.19-2.32.2-3l.21-.39.36-.19a4.29,4.29,0,0,0-.65-.68,2,2,0,0,1-.83-1.46c0-1,.78-1.38,1.42-1.72a9.85,9.85,0,0,0-1.22-.89A17,17,0,0,0,76,148.2c-1.17-.6-1.92-1.13-1.73-3,.08-.81-.23-4.69-.52-7.88a11.07,11.07,0,0,1-1.26.29,2.72,2.72,0,0,1-1.83-.34l0,.22c.26,2.2.48,4.1-1.24,5.57-.88.75-3,2.79-4.54,4.29l-1.26,1.21c.58.77,1.44,1.86,2,2.57,1.39.68,3.42,4.51,3.44,4.55A1.62,1.62,0,0,1,69,157c-.22.39-.79,1.41-6.51,2.52a5.23,5.23,0,0,1-3.68-.66A2.72,2.72,0,0,1,57.7,157l0-.21c0-.18,0-.37-.08-.52l-.3-.07A20.36,20.36,0,0,0,53,155.9c-.91,0-1.67,1.37-2,2l-.18.31c-.25.42-.66,1.28-.93,1.85-.18.37-.32.65-.36.73l-.45.75-.88-.06c-1-.07-1-.07-2.81-4.5l-.48-1.17h0c-1.19.38-2,.68-2.64.93a9.29,9.29,0,0,1-3.63.81c-3,.08-5.76.09-7.38-.67-.41-.19-.75-.32-1-.43a2.61,2.61,0,0,1-1.94-1.82l-.05-.23-.16-.39a3.08,3.08,0,0,0-.7-.76l-.15-.13a13.9,13.9,0,0,0-4.73-.24,5.79,5.79,0,0,0-1.25.84c.49,5.26,1.52,12.81,2.42,14.3,1.72,2.83,1.52,7.36,1.5,7.87l0,.45-.28.35s-2.68,3.47-1.66,6.35l-2.67.94c-1.29-3.67,1-7.44,1.82-8.65,0-1.39-.14-4.25-1.1-5.84-1.63-2.68-2.69-13.94-2.88-16.17l0-.55.34-.44a7.84,7.84,0,0,1,2.57-2c1.64-.82,5.44-.22,7,.08l1.43.27-.15.67A4.49,4.49,0,0,1,30.63,153l.06.15.64.61-.06.09c.29.12.65.26,1.08.46,1.15.54,4.33.45,6,.41a6.73,6.73,0,0,0,2.77-.63c.68-.26,1.52-.58,2.78-1,.64-.2,1-.34,1.29-.43a1.79,1.79,0,0,1,1.58-.24l.93.37,0,1a1.31,1.31,0,0,1-.28.83l.52,1.24.37.89h0l.14-.24c.58-1,1.93-3.49,4.51-3.49a23.52,23.52,0,0,1,4.91.38c2.05.42,2.39,1.27,2.62,3l0,.2a3,3,0,0,0,1.48.14,34.46,34.46,0,0,0,4-1c-.33-.49-.74-1.07-1.08-1.53-.66-.42-4.51-4.87-4.45-5.93l.06-1,.67-.19L63,145.32c1.66-1.6,3.72-3.59,4.66-4.4.51-.44.51-1,.27-3.09-.09-.75-.19-1.6-.24-2.58s-.12-2.23,1.06-2.67,1.85.51,2.33,1.13c.24.31.8,1,1.08,1.11a4.88,4.88,0,0,0,2-.7l2.08-1.87.24,2.82c.15,1.47.86,8.87.71,10.42v.07l.21.1a19.59,19.59,0,0,1,1.8,1C81,147.9,81.9,148.91,82,150a2,2,0,0,1-.59,1.67A3,3,0,0,1,81,152a3.53,3.53,0,0,1,.65,1.25,2.69,2.69,0,0,1,.07.35c.86-.56,1.49-.8,2.22-.39l.78.45,0,1a14.2,14.2,0,0,1-.47,2c-.22.84-.64,2.39-.82,3.29a16.09,16.09,0,0,0,2.61.55c.66-2.08,2.33-7.47,2.69-8.65a11.48,11.48,0,0,0-1.83-3c-1.18-1.49-.79-5.27.37-6.43a2,2,0,0,1,1.51-.61c1.29,0,2.36,1.23,3.58,2.6l.1.11c.77.87,4.33,1.91,6,1.91.44,0,1,0,1.61,0,3.2-.12,4.66-.17,5.1,1.16.2.6.14,3-.19,7.23a5.61,5.61,0,0,0,.45,2.68c1.5-1.36,4.57-3.93,7-4.8a7.31,7.31,0,0,0,4-3.48l.41-.61a2.91,2.91,0,0,1,2.71-1.42,4,4,0,0,1,3,2.42c.93,2,2.44,4,3.72,3.78a5.37,5.37,0,0,1,4.79,1.29,2.49,2.49,0,0,1,.52-1.9,3.16,3.16,0,0,1,2.49-.89,3.25,3.25,0,0,0,.89-.1,2,2,0,0,1,2.07,0c1,.64.95,1.82.89,3.44,0,.36,0,.77,0,1.2a33,33,0,0,1-1.06,6.5c-.1.44-.19.79-.23,1l0,.22c.15.05.37.12.69.19,1.64.38,1.76-.11,1.88-.59.2-.83,1.06-3.74,2-6.82.69-2.32,1.38-4.65,1.73-5.94l0-.17a14.93,14.93,0,0,0,.41-1.62l-.08-.22a13.27,13.27,0,0,1-.4-1.44c-.49-2.21,1.57-5.7,7.1-12,2.19-2.52,6.12-9.68,6.29-10.93a12.81,12.81,0,0,1,2.87-5.31,39.55,39.55,0,0,0,3.26-5.43c.08-.27-.87-1.45-1.56-2.31-.85-1.06-1.91-2.38-3.11-4.2-2.83-4.28-10.47-11.5-13.18-13.93-2.2-2-5.58-4.9-6.59-5.74-.69-.57-2-1.64,2.75-10.38l.47-.87,1,.15a42.41,42.41,0,0,1,4.53,1c1.92.54,12,2,13.06,2h0c.39,0,1.43.15,7.62,1.25l2.32.4c.36.05,2.88.32,5.11.56s4.23.45,4.78.52,1.66.14,3,.23c2.09.15,4.46.31,5.5.48,1.54.25,5.06.39,5.09.39a52.49,52.49,0,0,0,5.6,0h.15l.15,0a11.36,11.36,0,0,0,5.3-.48l.18-.07.2,0c1.05-.1,6.37-.6,7.83-.36.76.13,5.27-.21,7.43-.37,1.58-.12,2.42-.18,2.77-.18.88,0,10.42-1.34,11.28-1.53.43-.1,1.39-.22,3-.42s3.31-.41,4.41-.6a17.83,17.83,0,0,1,4.45,0,17.15,17.15,0,0,0,1.92.09c.68,0,1.76,0,3,.09a40.58,40.58,0,0,0,5.36.07,21,21,0,0,1,4.72.25,17.47,17.47,0,0,0,2.84.23,20.72,20.72,0,0,1,4.23.43,19.25,19.25,0,0,0,2.46.32,14.88,14.88,0,0,1,3.1.5,14.35,14.35,0,0,0,2.72.47,27.25,27.25,0,0,1,4.13.58,34.79,34.79,0,0,0,3.73.57,89,89,0,0,1,9.81,1.91l1.26.29c1.91.42,6.57,1.75,7.87,2.16a55.79,55.79,0,0,1,5.2,2.32c.39.2,4.34,2,6.08,2.73,1.31.57,6.44,2.26,9,3.08l2.08.67-1.46,1.62c-1.59,1.77-3.84,6.66-4.92,9-.46,1-.63,1.37-.76,1.58-.26.67-1.21,4-2,7l-.08.22a28.86,28.86,0,0,0-1,5.82l-.06.6c-.1.91-.24,3.63-.33,5.44,0,.88-.08,1.61-.11,2-.05.8,0,3.54.06,4.7,0,.39,0,.65,0,.72s0,.4.07.85c.14,1.55.37,4.13.34,5.52a29.21,29.21,0,0,0,.57,4.31c.19,1.09.37,2.12.46,3a26.72,26.72,0,0,0,1.35,4.64,18.1,18.1,0,0,1,.64,2c.16.81,1.26,4.41,1.6,5.42s1.82,5.07,2.22,5.93,2.53,5.79,2.93,7.05a33.88,33.88,0,0,0,1.49,3.06,25.59,25.59,0,0,1,1.22,2.5,9.22,9.22,0,0,0,1.84,2.39,38.86,38.86,0,0,1,3,3.73c.63.82,1.41,1.84,1.59,2,.57.61,3.39,3.81,3.72,4.22a28.94,28.94,0,0,0,2.29,2.13c.47.31,3.6,2.88,4.55,3.66l2,1.66-13.25,4.18c-1,.92-3.87,2.25-11.7,2.49-5.67.17-7.83.67-8.58.93v0l-.6.39a24.19,24.19,0,0,0-2.57,2c-2.82,2.38-4.63,3.52-11.88,1.34-8.75-2.62-11-1.42-13.24-.25-1.86,1-6.35,7.46-9.32,11.75-.82,1.18-1.59,2.29-2.27,3.25-3.74,5.25-11,9-12.58,9.47-1.09.37-6.39,4.6-7.13,5.42-.47.57-4.08,6.21-6.46,9.94-2.24,3.51-3.12,4.86-3.5,5.44-.34,3.12-.57,8.6-.57,8.66l-.06,1.54-1.53-.19a10.88,10.88,0,0,0-4.54.46,6.82,6.82,0,0,0-3.42,2.82c-.95,1.8-3.61,1.8-5.38,1.8-.52,0-1.08.62-1.32,1C226.07,273.25,223.11,273.57,221.43,273.57Zm-13.86-10.06Zm2.81-2.77h0Zm-41.81-5.38h0Zm.15-.18h0Zm35.15-2.64h0ZM88.64,213.23h0Zm4.9-1.08.1.11Zm.3-.14.21.08Zm54.45-2h0Zm8.06-1.71Zm-.42-.5.08.06Zm-36.06-17.58h0Zm12.22-35h0Z"/></svg>