<svg id="Layer_1" data-name="Layer 1" xmlns="http://www.w3.org/2000/svg" viewBox="0 0 350 350"><defs><style>.cls-1{fill:#999;}.cls-2{fill:#f90;}</style></defs><title>M</title><path class="cls-1" d="M125.25,180.06l1.79-2-.4-6.36-1.39-7.35,1-3.18,2.18-1.79L129,158l.79-3,.4-1.19-2-2.58-3-3v-3.38l1-1,2-2,2.18-2.18,2.58-1.59,2-1.39,3-3.18,2.58-1.39v-1.39l1.39-2.38,1-1.39,2-3.38,1-2.58,2.58-2.58,1.59-1.39,2-2.78,1.79-2,4-3.18,4-3.38,4.37-4.57,2.18-1.59,2.38,1.59,2,1.19,1.59,1.79,3,1.19,2.58,1.19,1,1.39v2.18l1.79-.4c1.79-.4,1.79,0,1.79,0l1.79-1.39h2l1.59-1.19,2.38-1.59v-.79H194l1.39-2v-1.59l.79-2.78,1.39-1.59,2.38-1,2.58-1.39,2.18-.79,1.59-.6,2.18-1.19,1.79-.2,1-1.79,1.79-1V87.51l-1-2.38-1.79-2.38V73.41l1.19-3,1.39-1.89,1.79-2.09,2-2,2.58-3H217.6l-1-.79V57.52l1-1.59,1.59-1.59V49l2-2-.6-1.79v-1L219.19,43V41l1-1.59v-.79h8.54v2l1,3.77h2.78l2.18-.6,2.58-.4,1.59-.79,1.19-.79,2.78-.2,2-1h11.12l2.18,1.19L259.71,44l2,1h7.15L271,44h8.54l2.58,1,1.59,1.79L284.93,49l1,4.37v2h3.38l3.38-.2,2.78-.4,1-1.39,2.18,1h2.58v.79h3.18v1.39h1.39l1,.79,3.18.79h4.57l3.18-.4h4l4-.2,4.37-1h5.16l.4,1.59-1.19,2.38v2.58h2.18v2L335,67.25H332.8l-1.19,1.19-1,2.18v2h-7.35l-2.18,1V76l2.18,2.38v2.78l-2.18,3.38-2.78,2.58-3.38,3L311,94.46l-1.72,1.72-2.52,2.25-3.38,2.78L300.82,105l-1.39,1.59-4,2.78-2,2.78-2,2.18-3.38,1.39-3.77,1.39-2.78,1.59L277,120.48l-2,1.39h-1.59l-1.19,1.39h-4.37l-2.78,1.39-2.18,2.78-.6,2L260.9,132l.2,2.58h3.58l-.2,1.39-.6,2,1.79,1.19-.2,2.78.4,2.78h-1.19l-.6,2.38.2,3.38v2.78l-.2,3h-1.59l-2.18,1.39h-1.79l-1.79,2.18-2.18,1.59,1.59,1.39,2-1.19,2.18-1.79h2.18l2,2.38.4,1.79,1.79,1.39.6,3.15,1.79,2,3.38-.2h3l2.78-.2,2.38-1.61h10.33l1.79-1.17,1-1h1l1.79,1H298l1.39-1,1.39-1H306l1.79,1.19h1.39l1.59,2,1.19,3-1.19,1.59-1,1.39v1.59l1.39,1.39,1.19,1.39,1.59,2v4.81H297.64l-2.18,1v1.79l-2,3-1,1.79-1.59,1v3.58h-4l-2.38-1.39-1.79-.2-1.39-.2-2.58-.2-2.18-.2H275l-2.18-.6-2.78-.6-2.18-1.19-1.19-.4-1.39-1.39v-1.19l-1-1.59-2.18-.2h-3l-1.59-1.79h-1.19l-1.79,1L251.76,189l-2.18,1-3,1.59L241.83,195l-2.58,1.59-2.78,1.79-5.56,2.78v7l-2,1.59-1.39,2h-1.79l-2,4-1.59,3.77v2l-1.39,1.19-1.59,1.19-1.19.4-1.79.2-2.78.2-3.18-.4v-.79l-1.59-.6-1.39.6-1.79,1-3.38,1-2.78.6h-1.79l-1.19.6L195,227.93l-2,1-1.79,1-2,2.58-2.78,4.77L183,240h-1.79l-2.58.79V240h-2.38l-1.19-1.59-1.59-1-1.79.2-1.39.79-2.38.2h-2.38l-1.79-2.78-2.18-1.79V232.5L160,230.31l-1.79-2.18-2.52-2.38V215.62l-2.44.79-1.79,1.19-1.59,1.79h-2.58l-2-1.79h-1.59L142.53,220l-1.59,3.58-2,4.57-2.58,4.57L135,236.47,133.59,240v3.58L132,247.2l-1.79,3v2.58l-2.58,3.18-2.38,2.18-1.19,3-1,3.58-1.79,2.18v1.79l-1.59,1.47-1.79,3.69-1.59,1.39,1.59,1v1.39l-2,1V280l-2.18,1.39v1.59l-2,2.18-2.58,1.39-1.79,1.19H104l-2.58-.4L99,285.93l-3.18-1.19-2.18-1.39-2.18-2-1.59-1h-3l-3-.2-2-.4-2.78-2-2.58-.2H74l-1,.79.4,2.38v2.38l-1,2.18v3.18l.2,1.79v1.59l-3.58.4H65.27l-3.77.2-3.77-.2-3.18-.2-2.88-1.59-1.69-.2-1.39-.6-2-.6-2.58-1-2-.6-1,1-2.18,1.19-1.79,1.79-2.18,2.18-2.18,2.18-2,3.18-3.77,3.38-1.59,1.39-.2,2.38-1.39,1.39-1,.4L22,310.16l-2.38,1.19H13.43v-3l1.39-2V303.6l1.39-2.18L17.8,300v-2.18l2-3,1-2.58v-2l1.79-2.18v-3l1.19-3.38,1.19-2.38,2.38-2.78L29.52,272V259.31l1-2v-3.38l1-3.77-1-2.78V241l2-2h1.79l3,1,1.79.6V252l1.59,3.18,1.59,3.18L43,261.1l2.38,3.58,1.19,1,2,.2L50,268.65V272h5l1.19-3v-1.39l2.58-1.19,2.38-1.39h2.18l3.58-1.79,2-2,1.39-1,1-1.79H74.8l1.79-1.19,2-1.19,1.59-1.79L83.54,252l2.38-1.79L88.11,248l1.79-3.38,3.11-6V235l1.19-2.18v-1.39l1.59-1v-1.19l1-2.78v-1.79l2.38-1.79v-6l1.19-1.59,2.78-2.38v-3l2.58-3.58v-3l2-2.38v-3.58l1.59-1.79,2.38-1.19,2.18-2.78H116l2.78-1.59,1.59-2.38,2.18-3.54,2-2.42Z"/><path class="cls-2" d="M19.92,312.76H12v-4.84l1.39-2v-2.75l1.72-2.7,1.26-1.1v-2l2.14-3.2.84-2.19v-2.23l1.79-2.18v-2.72l1.34-3.77,1.38-2.67,2.26-2.64,2-4.11V259l1-2,0-3.4.88-3.35-.93-2.6v-7.19l2.82-2.82h2.6l6,2v12l3.12,6.3.73,2.57,2.15,3.22.7.58,2.33.23,1.89,3.78v2.29H54l.73-1.83v-2l3.34-1.54,2.66-1.55h2.23L66,262.12l2-2,1.13-.81,1.24-2.24h4l1.43-1L77.66,255l1.69-1.84,3.38-2.38L85,249.1l2-2L88.64,244l2.95-5.72v-3.59l1.19-2.18v-1.81l1.59-1V229l1-2.78V224l2.38-1.79v-5.72l1.69-2.19,2.29-2v-2.79l2.58-3.58v-3l2-2.38v-3.6l2.13-2.39,2.34-1.17,2.41-3.07h2.5l2.16-1.24,1.4-2.11,2.27-3.65,1.84-2.25.67-1.74,1.56-1.74-.35-5.67-1.44-7.61,1.23-3.92,2.24-1.84.42-1,1-3.44-1.47-1.91-3.33-3.33v-4.55l5.84-5.78,2.58-1.59,1.8-1.26,3-3.24,2-1.1v-.93l1.65-2.82,1-1.34,1.9-3.22,1.06-2.75,2.79-2.79,1.53-1.35,2-2.77,2-2.14,4-3.18,3.88-3.3,4.51-4.68,3-2.17,3.21,2.14,2.11,1.27,1.51,1.7,2.67,1.07,3,1.38,1.48,2.06v.87h.06a6.5,6.5,0,0,1,1.82-.2l1.57-1.22h2l1.21-.91,1.82-1.25v-1.42h2.47l.71-1V101l.94-3.28,1.82-2.08,2.62-1.09L202,93.13l3.67-1.35L208,90.5l1.34-.15.83-1.5,1.41-.79v-.27l-.82-2-2-2.62V73.14l1.47-3.55,1.46-2,1.86-2.17,2-2,.93-1.08-1.31-1.05V57.11l1.41-2.18,1.17-1.17V48.39l1.78-1.78-.39-1.17v-.57l-1.39-1.19v-3l1-1.59V37.24h11.38v3.22l.67,2.54h1.5l2.16-.58,2.36-.36,1.31-.66,1.43-1,2.87-.21,2-1H256.3l2.78,1.52,1.57,2.16,1.38.69h6.51l2.18-1h9.11L283,43.81l2,2.31,1.29,2.36,1.07,4.88v.57h2l3.23-.19,2.12-.3L296,51.58l3,1.35h3.69v.79h3.18v1.39h.47l1.14.91,2.71.68h4.31l3.27-.4h4l3.78-.19,4.56-1h6.27l.79,3.17-1.28,2.55v.83H338v3.86l-2.28,3.14h-2.32l-.59.59L332,70.94V74h-8.46l-1.07.49v.92l2.19,2.38v3.75l-2.64,4-2.78,2.58-3.34,2.95-3.85,4.31-1.78,1.78-2.57,2.31-3.27,2.69-2.57,3.74-1.64,1.82-3.77,2.64-1.95,2.71-2.2,2.42L288.65,117l-3.71,1.37L282.07,120l-4.41,1.72-2.21,1.55h-1.38l-1.19,1.39h-4.69l-2.2,1.1-1.82,2.32-.63,2-1.19,2.22.07.86h3.9l-.48,3.21-.29,1,1.6,1.07-.25,3.45.61,4.25h-1.72l-.27,1.1.19,3.16v2.86l-.29,4.4h-2.5l-1.16.74h1.41l2.63,3.16.36,1.63,1.81,1.41.62,3.3,1.07,1.2,2.69-.16h3l2.35-.17,2.43-1.64h10.34l1.31-.86,1.3-1.3H295l1.79,1h.77l2.78-2h6l1.79,1.19h1.64L312,167.8l1.56,3.94L311.18,175v.55l1,1.05,1.19,1.39,1.93,2.41v6.72H297.94l-1.06.46v1.29l-2.19,3.29-1.14,2.06-1.23.77v4.21h-5.77l-2.46-1.43-2.92-.37-4.63-.38-1.9,0-2.18-.6-2.91-.62-2.25-1.23-1.39-.46-2-2V190.6l-.4-.65-1.42-.13h-3.55L256.89,188h-.19l-1.47.82-2.84,1.42-2.23,1-2.82,1.51-4.69,3.33L240,197.76l-2.89,1.85L232.33,202v6.76L230,210.64l-1.7,2.42h-1.65L225,216.25l-1.44,3.43V222l-1.89,1.62L219.86,225l-1.7.53-1.79.2-3,.21-4.56-.57v-1.06l-.14-.05-.8.34-2,1.08-3.48,1-3.08.63h-1.45l-.69.34-1.39,1.39-2.19,1.1-1.48.82-1.75,2.28-2.86,4.91-4,3.27h-2.08l-4.21,1.3v-1.3h-1.67l-1.46-1.94-.95-.59-1,.11-1.41.81-2.81.23h-3.16l-2.08-3.24-2.53-2.07V233l-1.32-1.81-1.68-2.05-2.9-2.74v-8.79l-.4.13-1.47,1-1.89,2.13h-3.76l-2-1.79h-.17l-.8,1.6-3.61,8.21-2.53,4.47L136.31,237l-1.3,3.35v3.61l-1.79,4-1.59,2.64v2.69l-3,3.72-2.15,2-1,2.61-1.05,3.79-1.66,2v1.9L120.85,271l-1.8,3.71-.37.32.64.4v3.05l-2,1v1.29l-2.18,1.39v1.36l-2.52,2.77-2.74,1.47-2.09,1.39-4,0-2.85-.44-2.51-1.46-3.33-1.28-2.38-1.54-2.09-1.9-1.14-.71H86.92l-3.26-.23-2.29-.46-2.71-1.93L76.53,279h-2l.27,1.76v2.69l-1,2.18v2.79l.2,1.87v2.86l-5,.55H65.27l-3.77.2-7.36-.42-2.92-1.61-1.62-.19L48.1,291l-2-.61-2.53-1-1.12-.34-.54.54-2.18,1.19-5.9,5.9-2,3.21-5.09,4.54-.19,2.33-2,2-.67.27-.77,2.12Zm-5.07-2.83h4.4l1.58-.79.82-2.25,1.31-.53.82-.82.2-2.44,2-1.77,3.61-3.23,2.08-3.26,6.3-6.3,2.18-1.19,1.45-1.45,2.9.88,2.53,1,2.09.63,1.2.51,1.76.21,2.84,1.57,6.54.37,3.7-.19H69l2.24-.25v-.24l-.2-1.87V285l1-2.18v-2l-.51-3.09,2-1.62H76.7l3,.23,2.85,2,1.6.32L87,279H90.3l2.14,1.36,2.09,1.9,2,1.25,3.26,1.24L101.9,286l2.21.34h2.84l1.54-1,2.37-1.28,1.45-1.6v-1.82l2.18-1.39V277.7l1.75-.87-2.3-1.44,2.81-2.46,1.78-3.67,1.33-1.23v-1.67l1.92-2.35,1-3.43,1.31-3.28L126.6,255l2.2-2.71v-2.47l1.95-3.24,1.43-3.22v-3.54l1.49-3.82,1.48-4,2.55-4.5,3.55-8.09,1.61-3.22h3l2,1.79h1.4l1.44-1.55,1.95-1.3,4.49-1.46v11.47l2.2,2.1,1.79,2.18L163,232v1.38l1.84,1.5,1.49,2.32h1.55l2-.17,1.37-.78,2.57-.29,2.23,1.39.93,1.23h3.09v.29l1-.29h1.49l2.79-2.3,2.75-4.7,2.17-2.81,2-1.13,1.83-.92,1.39-1.39,1.7-.85h2l2.58-.55,3.17-.93,1.78-1,1.91-.82,3,1.14v.53l1.8.22,2.64-.19,1.58-.18.83-.28,1.4-1.05.82-.71V219.1l1.7-4,2.42-4.84h1.93l1.08-1.55,1.61-1.29v-7.15l6.28-3.14,2.72-1.75,2.6-1.6,4.84-3.42,3-1.59,2.27-1,2.73-1.37L256,185.2h2.19l1.59,1.79h2.47l2.89.26,1.58,2.53v1l.74.74,1.1.39,2,1.09,2.58.55,2.08.56h1.53l4.75.4,1.48.21,2,.23,2.31,1.35h2.17v-2.94l1.95-1.22.88-1.57L294,188v-2.29l3.31-1.44h15.16v-2.89l-1.28-1.6-1.13-1.31-1.77-1.77V174l2-2.74-.82-2.06-1-1.27h-1.14l-1.79-1.19h-4.28l-2.78,2h-2.41l-1.83-1-.8.76-2.14,1.4H281l-2.34,1.58-3.26.23h-3l-4,.24-2.5-2.82-.57-3-1.77-1.37-.43-1.95-1.34-1.61h-1l-2,1.59L256,164.53l-3.7-3.24,3.47-2.53,2.1-2.56h2l2.18-1.39h.68l.11-1.66v-2.69l-.21-3.51.92-3.67h.66L264,142l.15-2.11-2-1.32L263,136h-3.2l-.33-4.3,1.52-2.82.63-2.1,2.55-3.24,3.36-1.68h4.05l1.19-1.39h1.79l1.92-1.29,4.47-1.75,2.9-1.64,3.77-1.39,3-1.25,1.72-1.89,2.08-2.91,4-2.82,1.22-1.4,2.65-3.87,3.53-2.91,2.47-2.21L310,93.46,314,89l3.38-3L320,83.61l1.86-2.88V78.93l-2.19-2.38V72.7l3.3-1.5h6.24v-.88l1.23-2.7,1.79-1.79h2l.89-1.23V64.5H333V60.17L334.08,58h-3.9l-4.46,1-4,.2h-4l-3.27.4-4.91,0-3.48-.87-.85-.68H303V56.55H299.8v-.79h-1.47l-1.4-.64-.67.93-3.5.49-3.38.2h-4.88V53.51l-.91-4-1-1.87-1.25-1.41-2-.78h-8l-2.18,1h-7.79l-2.59-1.3-1.6-2.21-1.59-.87H245.15l-1.94,1-2.69.19-1,.68-1.79.89-2.72.42-2.48.62h-3.87l-1.32-5.19v-.57h-5.84l-.86,1.37v.93L222,43.56V45l.8,2.4-2.19,2.19v5.36l-1.89,1.89L218,57.93V60l.07.06h4.2l-4.68,5.4-1.95,1.95-1.72,2-1.25,1.7-1,2.56v8.59l1.68,2.31,1.1,2.64v2.51l-2.16,1.2L211.14,93l-2.24.25-2.12,1.14-3.69,1.36-2.62,1.4-2.08.87-1,1.1-.65,2.29v1.84l-2.07,3H193.6v.14l-3,2-1.9,1.43h-2L183,112.65v-1.53H183l-3.51.78v-3.5l-.51-.71-2.24-1-3.22-1.29-1.67-1.87-1.8-1.08-1.62-1.08-1.28.93-4.39,4.58-4,3.38-3.91,3.13-1.66,1.84-2.16,3-1.59,1.39-2.3,2.3-1,2.51-2.05,3.48-1,1.34-1.16,2V133l-3.12,1.68-3,3.2-2,1.39-2.51,1.55-4.63,4.63v2.2l2.69,2.7,2.45,3.18-.64,1.91-.84,3.09-.73,1.71L127.47,162l-.76,2.43,1.35,7.17.43,7-2,2.23-.65,1.68L123.76,185l-2.13,3.46-1.8,2.7-3.4,1.94h-1.87l-2,2.49-2.42,1.21-1,1.18v3.55l-2,2.38v2.92l-2.58,3.58v3.17l-3.16,2.71-.81,1.09v6.19l-2.38,1.79v1.32l-1,2.78v1.73l-1.59,1v1l-1.19,2.18v3.56l-5.17,9.92-2.49,2.47-2.38,1.79-3.28,2.31-1.62,1.83-2.17,1.3-2.09,1.39H72.06l-.74,1.34-1.56,1.11-2.07,2.07-4.08,2H61.48l-2.17,1.26-1.76.81v.76l-1.65,4.12H48.56V269l-.89-1.78L46,267l-1.68-1.4-2.62-3.93-.82-2.87-3.27-6.54V241.66l-3.58-1.19h-1l-1.16,1.16v5.52l1.06,3-1.06,4v3.53l-1,2v12.7l-2.53,5.17-2.27,2.65-1.07,2.15L24,285.37v3.24l-1.79,2.18v1.74L21,295.65l-1.75,2.62v2.4l-1.92,1.68L16.24,304v2.82l-1.39,2Z"/></svg>