<svg id="Layer_1" data-name="Layer 1" xmlns="http://www.w3.org/2000/svg" viewBox="0 0 350 350"><defs><style>.cls-1{fill:#999;}.cls-2{fill:#f90;}</style></defs><title>M</title><path class="cls-1" d="M292,101.07s-18.77,10-60.53-1.23c0,0-25.61-8.42-39.65,18.25l.7,28.42-15.44,1.4s1.05,11.93-2.81,14.39l-11.58,9.82-12.63-7.72s-2.81,13.68-19.65,9.82l1.75,12.28s-30.88,8.07-38.24,13c0,0-28.07,7-33.33,5.26,0,0-8.77-1.75-5.61,7.72,0,0,8.77,14.39-6.32,2.81,0,0-24.91,7-42.46,7,0,0,1.05,10.18,6.67,13.68,0,0,1.4,12.63,6.32,15.44,0,0,29.47-2.46,37.89-7.37,0,0,4.21,5.26,13-3.16l14.74-13.33s3.86-6.67,14.39-1.4c0,0,17.54,10.53,37.19,4.21l13.33-.7s17.54,2.46-8.77-8.07-23.51-16.14-23.51-16.14-6.32-3.86,16.84-5.61l32.28-1.75s4.91,8.07,8.42-6.67,13-12.28,13-12.28A12.66,12.66,0,0,0,200.28,183s16.84-4.21,30.17-1.05c.35-.35,24.91,3.86,37.89-3.16a116,116,0,0,0,18.6-3.51c4.21-.7,15,6.2,15,6.2s1.64-15.91,8.42-19.18c0,0,2.81,1.64,9.82-1.17,0,0,15.44-4.68,20.12-6.78s3.27-6.08,3.27-6.08l-1.17-7.72s3.51-5.61-7.72-1.87l-8.6.42s-4.17,1.84-4.39-3.33-6.49-3.11-6.49-3.11,1.32-7.32-.7-8.77-10.7-1.05-10.7-1.05l-6.89,0s-2.85-1.45-2.19-7.32S292,101.07,292,101.07Z"/><path class="cls-2" d="M18.91,252.87l-.38-.22c-4.87-2.79-6.55-13-6.94-15.86-5.63-4.1-6.7-13.92-6.75-14.35l-.16-1.56H6.25c17.15,0,41.82-6.89,42.07-7l.68-.19.56.43c3.94,3,5.77,3.89,6.54,4.12a19.71,19.71,0,0,0-2.29-5.07l-.13-.29c-1.16-3.49-1-6.13.53-7.84,2.23-2.53,6.25-1.81,6.71-1.72l.17,0c3.53,1.18,21.58-2.56,32.31-5.24,7-4.48,31.4-11.15,37.24-12.71l-1.87-13.08,2,.46c5.18,1.19,9.45.75,12.67-1.31a12.91,12.91,0,0,0,5.27-7.42l.42-2,13.47,8.23,11-9.28c2.16-1.37,2.56-8.47,2.16-13.07l-.12-1.41,15.52-1.41-.68-27.46.17-.33c7.53-14.3,18.36-18.69,26.13-19.86A35.89,35.89,0,0,1,232,98.5c21.15,5.68,36.2,5.74,45.09,4.79,9.61-1,14.28-3.44,14.33-3.46l1.4-.74.58,1.47c.14.36,3.45,8.91,2.76,15.06-.42,3.78.74,5.29,1.25,5.75l6.43,0c2.08-.09,9.28-.29,11.52,1.32,1.94,1.39,1.89,5.32,1.57,8.14a6.41,6.41,0,0,1,4.25.87,4.77,4.77,0,0,1,2,4c0,1.11.31,1.87.74,2.14a2.18,2.18,0,0,0,1.66,0l.24-.11,8.67-.43c5.17-1.7,8.06-1.73,9.34-.09a3.47,3.47,0,0,1,.11,3.62l1.08,7.14c.58,1.86.45,5.67-4.08,7.71s-19,6.47-20.23,6.83c-5.56,2.21-8.78,1.81-10.19,1.39-4.62,2.9-6.7,13.71-7.12,17.77l-.24,2.29-1.94-1.24c-3.95-2.53-11.16-6.37-13.89-6a115.15,115.15,0,0,1-18.49,3.5c-11.09,5.82-29.29,4-36.18,3.34l-1.55-.15-.14.14-.77-.18c-12.83-3-29.34,1-29.5,1a14,14,0,0,1-13.35-3.93,7.6,7.6,0,0,0-4.86,1.12c-2.79,1.71-4.81,5.13-6,10.18-1.51,6.35-3.46,9.5-6.12,9.92-2.06.33-3.61-1.17-4.38-2.12l-31.51,1.71c-12.48.95-15.46,2.46-16.14,3l1.07.66-.52,1c0,.48.83,5.57,22.7,14.32,15,6,15.79,7.66,15.33,9.38-.19.7-.62,2.32-7.15,1.43l-13,.69c-19.63,6.22-36.86-3.62-38.13-4.37-9.08-4.52-12.35.66-12.49.88l-.11.18-.16.15L71.06,241.94c-3.75,3.6-7.29,5.34-10.48,5.13a6.82,6.82,0,0,1-3.66-1.31c-9.55,4.68-36.39,7-37.56,7.06Zm-11-29.17c.52,2.83,2,8.75,5.77,11.08l.58.36.08.68c.36,3.2,2,11.76,5.27,14.14,3.81-.34,29.34-2.78,36.82-7.14l1.06-.62.76,1a3.78,3.78,0,0,0,2.61,1.09c1.62.07,4.36-.62,8.29-4.38l14.61-13.22c1.71-2.69,7.08-6.28,16.12-1.76l.09.05c.17.1,17.25,10.11,36,4.08l.36-.07,13.47-.71.13,0a25.33,25.33,0,0,0,2.75.23,93.23,93.23,0,0,0-12.24-5.58c-14.14-5.66-22.5-11-24.18-15.39A4.4,4.4,0,0,1,116,206a2.56,2.56,0,0,1-.63-2.3c.47-1.95,3.08-4.1,18.87-5.29l33.16-1.8.44.72c.32.52,1.27,1.64,2,1.52.34-.05,2.11-.69,3.8-7.77,1.39-5.85,3.87-9.89,7.36-12a10.24,10.24,0,0,1,7.35-1.34l.45.12.29.36A11.18,11.18,0,0,0,200,181.62c.67-.17,17.11-4.2,30.58-1.1.48,0,1.16.06,2.32.18,6.06.6,24.51,2.42,34.81-3.15l.25-.14.28,0a115.45,115.45,0,0,0,18.33-3.45l.18,0c3.63-.6,10.66,3.21,14.09,5.25.75-4.67,3.06-15.29,8.91-18.11l.68-.33.65.38h0s2.52,1.17,8.58-1.26l.12,0c.15,0,15.4-4.68,19.95-6.72,3.26-1.47,2.67-3.87,2.51-4.33l-.06-.24-1.25-8.24.28-.44a2.26,2.26,0,0,0,.31-.87c-.27-.12-1.64-.48-6.37,1.09l-.18.06-8.56.42a4.78,4.78,0,0,1-4-.25c-1.29-.8-2-2.29-2.08-4.43-.05-1.27-.57-1.63-.74-1.75-1.07-.74-3.23-.29-3.9-.07l-2.25.72.41-2.32c.59-3.28.52-6.86-.13-7.37-1-.69-5.86-1-9.81-.79l-7.29,0-.3-.15c-.38-.19-3.71-2.08-3-8.75.46-4.09-1.21-9.72-2.09-12.31-5.24,2.11-24.28,7.85-60.07-1.78-1.07-.35-24.53-7.65-37.85,17.21L194,147.8l-15.38,1.4c.19,3.64.18,11.79-3.47,14.24l-12.29,10.43-12-7.31a15.41,15.41,0,0,1-5.9,7.35c-3.45,2.22-7.77,2.92-12.87,2.1l1.65,11.56-1.22.32c-.31.08-30.73,8.07-37.82,12.79l-.2.14-.24.06c-2.9.72-28.31,7-34,5.27-.84-.15-3-.26-4,.83s-.55,3.25,0,4.92C58.2,215,60,219,58.2,220.62c-1.56,1.4-4.33.34-9.79-3.79C44.34,217.94,23.83,223.33,7.9,223.69Z"/></svg>