<svg id="Layer_1" data-name="Layer 1" xmlns="http://www.w3.org/2000/svg" viewBox="0 0 350 350"><defs><style>.cls-1{fill:#999;}.cls-2{fill:#f90;}</style></defs><title>MAP 1</title><path class="cls-1" d="M341.73,240.53c-.51-4.2-3-18.84-2.35-23.38s-8.24-24.22-8.24-24.22-1.61-2.39-2.48-4l-.52,3.15H322.5s-.35-15.13-3.87-15.48-22.52.35-25.68,0-6.16-4.75-10.2-4.75-11.79,3.87-16.18,8.8-11.08,4.22-12.67,3-3.87-5.45-3.52-7-3.87-7-3.87-7l1.58-7.74-5.28.18s-4.75-17.06,5.45-27.8c.18-12.84-.27-20.06-6.56-23.57,7.79-1.94,18.7-3.69,20.1-2.81,2.64-12.67,2.81-14.78,2.81-14.78L241.71,94s-.83-26.21,1.28-30.79.18-7,.18-7S231.9,76,229.62,76.19s-7.39.18-10,.18-5.1-2.64-5.1-2.64l-1.94,5.81s-15,.88-19.88,4-4.22,5.45-4.93,10.56-1.76,7.92-3,8.09-5.45-2.29-8.44-2.46-10.73-1.58-13.9-.35-11.26,3.34-11.26,3.34l-2.78-2.55h0c-2.29.35-5.63,4.22-8.62,5.63s-4.93-2.46-6.51-3.52-16.18-.88-24.1.7-16.36-2.81-18.47.18-11.61,6-14.07,6a9,9,0,0,0-1.87.2,130.5,130.5,0,0,0-45.56-7.87c-1,0-1.86,1.22-1.2,2.1L32.65,110a127.43,127.43,0,0,0-24.43,5.27,1.41,1.41,0,0,0-1,1.34c1.45,12.15,3.63,23.62,9.39,34.53,3.15,6,6.17,11.81,8.09,18.34a180.17,180.17,0,0,1,4.25,19.8,1.13,1.13,0,0,0,.7.92c.48,1.71,1.38,4.56,3,8.83,5.55,4.54,39.86,9.59,48.1,10.43,5.38,7.06,15.13,2.35,17.49.84s3-.84,7.57,1.68,12.11,3.2,15.81,2.69,6.05,4,6.9,6.73,3.36,6.39,5.23,9.42,1.49,11.77.32,12.63,1.18,9.41,3,14.11,13.29,3.7,13.29,3.7-4.54,6.89-5.38,8.58-.17,10.6,3.87,13.62,9.08,1.51,12.78,3.7,13.62,6.22,16.65,6.73,16.65-6.73,19.34-9.42,13.12-.5,17.66-1.51,12.95,4.54,12.95,4.54,5-2.69,10.09-1.51,7.06,5.21,12.44,4.37,14.8,2.19,14.8,2.19l8.24-6.39s-1.68-4.2,0-6.05S278.67,272,281,271s12.44,3.87,12.44,3.87l3.7-6.22a38.07,38.07,0,0,0,10.43,1.18c4.71-.34,23.54-1.35,30.61-3.36S342.24,244.73,341.73,240.53Z"/><path class="cls-2" d="M178.51,295.27a2.91,2.91,0,0,1-.48,0c-3.35-.56-13.51-4.76-17.14-6.9a13,13,0,0,0-5.08-1.27c-2.49-.3-5.31-.63-7.83-2.51-4.48-3.36-5.49-13-4.29-15.39.55-1.11,2.54-4.23,4-6.42-3.85,0-10.33-.65-11.92-4.7-.22-.55-5.17-13.26-2.69-15.66.63-1.2,1-8.38-.54-10.86l-1-1.67c-1.76-2.79-3.59-5.68-4.33-8.07-.67-2.15-2.66-6.11-5.35-5.74-3.89.53-11.85-.17-16.69-2.86l-1.19-.66c-3.51-2-3.56-1.94-4.92-1.06-3.38,2.17-13.21,6.15-19-.69-6.73-.77-42.13-5.66-48.26-10.67l-.29-.24-.13-.35c-1.52-4-2.4-6.71-2.9-8.43a2.62,2.62,0,0,1-.88-1.58,179.94,179.94,0,0,0-4.21-19.64c-1.81-6.16-4.57-11.6-8-18.08-6.1-11.56-8.19-23.67-9.54-35a2.8,2.8,0,0,1,2-2.86,129.16,129.16,0,0,1,22.28-5l-3.27-4.4a2.56,2.56,0,0,1-.21-2.72,2.92,2.92,0,0,1,2.55-1.64,132.22,132.22,0,0,1,45.68,7.82,10.52,10.52,0,0,1,1.76-.15c2.16,0,11.18-2.92,12.92-5.38,1.61-2.27,5-1.75,8.85-1.13,3.26.51,7,1.09,10.51.39,7.39-1.48,22.91-2,25.17-.49a9.87,9.87,0,0,1,1.66,1.56c1.58,1.72,2.41,2.35,3.46,1.86a22.07,22.07,0,0,0,3.83-2.67c1.82-1.45,3.54-2.83,5.17-3.08l.66-.09.54.44,2.21,2c2.06-.55,7.86-2.12,10.36-3.1,2.72-1.06,7.67-.49,11.66,0,1.15.13,2.14.25,2.84.29a20.75,20.75,0,0,1,5.8,1.65,19.89,19.89,0,0,0,2.28.8c.26-.31,1.16-1.71,1.87-6.86.12-.84.19-1.6.26-2.31.37-3.63.63-6.25,5.3-9.25,4.48-2.88,16.14-3.94,19.6-4.2L213.9,71l1.63,1.74c.57.61,2.42,2.19,4.07,2.19,2.43,0,7.41,0,9.73-.16C231,73.65,237.1,64,241.93,55.44l1-1.84,1.31,1.66c.1.13,2.44,3.21,0,8.51-1.38,3-1.47,18.29-1.19,28.72l23.09-.89L266,93.2c0,.09-.21,2.34-2.84,14.95l-.41,2-1.65-1c-1.35-.37-8.68.59-16.13,2.25,4.55,4.4,4.83,11.9,4.68,22.91v.55l-.38.4c-8.1,8.51-6.15,21.56-5.36,25.36l5.91-.2L248,169.26c2,2.65,4.12,6,3.74,7.69-.16.94,1.67,4.57,3,5.61.93.72,6.82,1.58,10.74-2.82,4.41-4.94,12.47-9.27,17.24-9.27,2.68,0,4.85,1.52,6.76,2.86a9.37,9.37,0,0,0,3.6,1.9c1.49.17,7.07.08,12.47,0,5.84-.09,11.35-.18,13.2,0,3.85.38,4.86,9.3,5.1,15.47h3.05l1-6,2,3.55c.84,1.5,2.41,3.83,2.42,3.86l.12.21c.93,2.05,9.06,20.2,8.35,25-.49,3.32.93,13,1.77,18.83.26,1.76.47,3.23.58,4.17l.12,1c1.33,10.4,2.3,24.45-4.67,26.44-6.35,1.81-21.38,2.79-28.6,3.26l-2.3.15a37.15,37.15,0,0,1-9.84-1L294,276.68l-1.17-.57c-4.95-2.39-10.22-4.18-11.28-3.84s-3.11,3.49-4.41,5.47a29.6,29.6,0,0,1-2.32,3.25c-.77.84-.2,3.4.27,4.57l.4,1-9.67,7.5-.71-.23c-.09,0-9.16-2.92-14.15-2.14-3.72.58-6.07-.86-8.34-2.24a15.3,15.3,0,0,0-4.64-2.15c-4.44-1-9.06,1.36-9.1,1.39l-.74.39-.7-.46c-2.2-1.45-8.62-5.06-11.86-4.34a33.84,33.84,0,0,1-7.62.23c-3.44-.12-8.14-.29-9.34.9C196,288,182.84,295.27,178.51,295.27Zm-25.37-35.73L151.54,262c-1.25,1.9-4.64,7.11-5.3,8.43s0,9.28,3.45,11.85c1.9,1.43,4.12,1.69,6.46,2a15.27,15.27,0,0,1,6.19,1.65c3.57,2.11,13.38,6.09,16.16,6.55,2.17.36,15.21-6.13,18.1-9,2.07-2.07,6.62-1.9,11.45-1.73a33.17,33.17,0,0,0,6.91-.17c4.35-1,11.1,2.91,13.36,4.31a17.22,17.22,0,0,1,10.31-1.28,18.06,18.06,0,0,1,5.48,2.49c2.09,1.28,3.74,2.28,6.43,1.86,4.82-.75,12.36,1.31,14.73,2l6.86-5.32c-.47-1.61-1.05-4.67.62-6.51a29.23,29.23,0,0,0,2-2.9c2.19-3.34,3.88-5.76,5.68-6.53,2.38-1,8.81,1.65,12.44,3.34l3.59-6,1,.27a36.8,36.8,0,0,0,10,1.13l2.32-.15c6.57-.43,21.95-1.43,28-3.16,2.48-.71,5-5.34,2.64-23.36l-.13-1c-.11-.93-.32-2.37-.58-4.1-.93-6.34-2.33-15.92-1.77-19.65.44-3-4.7-15.84-8.08-23.32l-.46-.69-.1.61h-8.21l0-1.38c-.16-6.84-1.42-13.56-2.63-14.11-1.65-.16-7.33-.07-12.84,0-5.74.09-11.16.17-12.83,0s-3.37-1.32-4.92-2.4-3.34-2.34-5.13-2.34c-3.56,0-10.94,3.64-15.13,8.32-4.67,5.23-12.21,5-14.59,3.17-1.83-1.42-4.49-6.07-4-8.39-.07-.79-1.73-3.53-3.59-5.93L245,170l1.35-6.62-4.6.15-.3-1.07c-.2-.72-4.73-17.55,5.41-28.74.15-12.49-.43-18.74-5.84-21.77l-3.12-1.75,3.47-.86c.16,0,13.85-3.33,19.33-3,1.35-6.54,2-10,2.27-11.69l-22.64.87,0-1.43c-.09-2.72-.78-26.68,1.41-31.43a9.45,9.45,0,0,0,.76-2.37c-10,17.18-12,17.34-12.74,17.39-2.34.18-7.41.18-10.14.18a7.93,7.93,0,0,1-4.42-1.62l-1.57,4.72-1,.06c-4.06.24-15.42,1.39-19.2,3.82-3.52,2.26-3.66,3.69-4,7.15-.07.73-.15,1.53-.28,2.41-1.08,7.87-2.81,9.1-4.19,9.3-.88.12-1.91-.25-3.8-1a18.88,18.88,0,0,0-4.93-1.46c-.77,0-1.8-.16-3-.3-3.28-.38-8.24-.95-10.31-.15-3.21,1.25-11.08,3.31-11.41,3.39l-.75.19L148,101.78a20.66,20.66,0,0,0-3.27,2.32,23.89,23.89,0,0,1-4.4,3c-3.11,1.47-5.4-1-6.76-2.5a8.61,8.61,0,0,0-1.14-1.12c-1.57-.69-15.15-.66-23,.91-4,.81-8.18.16-11.5-.37-2.58-.41-5.5-.87-6.09,0-2.55,3.62-12.64,6.58-15.23,6.58a7.62,7.62,0,0,0-1.58.17l-.4.09-.38-.14a129,129,0,0,0-45-7.79l6.06,8.16-2.44.28a126.68,126.68,0,0,0-24.16,5.21l0,0c1.32,11,3.36,22.76,9.21,33.85,3.49,6.62,6.31,12.19,8.19,18.6a181.25,181.25,0,0,1,4.27,19.86l.5.19.19.68c.44,1.56,1.28,4.25,2.83,8.32,5.69,3.93,37,8.87,47.06,9.9l.61.06.37.49c5.24,6.88,15.49.57,15.6.51,2.85-1.83,4.31-1,7.85,1l1.17.66c4.24,2.36,11.52,3,14.93,2.53,4.27-.58,7.22,3.79,8.44,7.71.63,2,2.43,4.88,4,7.4l1.06,1.69c1.92,3.11,2,12.12.22,14.25-.23,1.39,1.27,7.72,3.24,12.72,1.1,2.81,8.45,3.1,11.84,2.81Zm-19.94-17.29h0ZM249,176.34h0Zm12.18-67.22h0Z"/><path class="cls-1" d="M133.27,242.33h0ZM83,179.54l.08.06ZM261.21,109Z"/><path class="cls-2" d="M134.09,243.49l-.81-1.15-1-1,.19-.16.82,1.16,1,1-1-1ZM82.36,180.84l-.27-.19L83.37,179l.37-.64-.33.58.41-.53-.49.68.52-.66-.52.66.53-.66,0,.07.06-.07-.09.12Zm.61-1.3.31-.39Zm.36-.48-.36.48Z"/></svg>