<svg id="Layer_2" data-name="Layer 2" xmlns="http://www.w3.org/2000/svg" viewBox="0 0 350 350"><defs><style>.cls-1{fill:#999;}.cls-2{fill:#f90;}</style></defs><title>M_</title><path class="cls-1" d="M322.1,211.42l-.42-.47h-.62c-.82,0-10.33-.34-11-.43a7.58,7.58,0,0,0-1.65,0l.37-1h-6v.6l-.52-.93-3.41-.09-.21.89a2.93,2.93,0,0,0-.73-.12l-.43,0c-1.74-.07-3.85-.16-4.64-.14-.43,0-1.87-.08-3.13-.16-3.88-.23-4.48-.27-4.59,1.14a9.68,9.68,0,0,0,0,1.81c0,.13,0,.54,0,1-1.61-.08-4.12-.24-4.5-.28h0a28.79,28.79,0,0,0-3.31-.1c-.24,0-1.41-.06-2.59-.11s-2.46-.12-2.72-.12-1.4-.07-2.14-.13a25.59,25.59,0,0,0-3.5-.49c0-.11-.06-.21-.09-.32a8.35,8.35,0,0,1,.18-1.85l.38-2-2,.37a24.57,24.57,0,0,1-4.74-.17c-.77-.18-3.91-.51-6-.73l.18-.55-1.07-1-.63-5.24-7.44.86a23.41,23.41,0,0,0,1.63-2,20.81,20.81,0,0,0,1.08-2.37l.08-.27a3.3,3.3,0,0,1,.57-1.21,3.64,3.64,0,0,0,.37-.63c.13-.26.89-1.41,1.52-2.34l.33-.49-.61-2.87-3.33-2-.75.63c-.15.13-3.69,3.11-4.54,3.94a17.8,17.8,0,0,1-3.56,1.69l-.13,0-.41-1.44-.74-1.15c0-.45.1-1.09.11-1.41s.08-.92.15-1.68c.09-.92.18-1.91.19-2.27a10.68,10.68,0,0,0-.13-1.76c0-.28-.07-.56-.1-.83l-.08-.86c-.08-.77-.17-1.73-.19-2.2a10.51,10.51,0,0,0-.32-2.14c0-.13,0-.34-.06-.58a9.75,9.75,0,0,0-.32-2c-.08-.48-.13-2.48-.13-4.22l1.15-2.82-1.2-.55-1.24-.58-1-2,.55-2.82v-.14c0-2.06,0-3.27-.07-4,.13-.39.59-1.66,1-2.79l.08-.22v-.23s0-1.08.06-1.56,0-2.36,0-2.72l0-2.71-2.33,1.74a11.63,11.63,0,0,0-1.44-1.15,5.83,5.83,0,0,1-1-1.28,14.42,14.42,0,0,0,.06-1.88v-.28c0-.25.15-1.34.3-2.2l.08-.51-2.61-4.25.47-.84a2.54,2.54,0,0,1,1.79-.82,2.46,2.46,0,0,0,1.9-.93c.29-.42,1.82-2.23,2.79-3.36a5.6,5.6,0,0,0,1.22-1.51c.07-.12.14-.23.19-.3a8.91,8.91,0,0,0,1.32-2.32l.61-1.29-4.13-1.78-1.67-1.56-.26-.19-1.47-.85-.27-.6.57-1.59.33-.13a5.52,5.52,0,0,1,1.09,0c.72.1,2.69-.15,3.31-1.34a1.6,1.6,0,0,0-.14-1.71,6.56,6.56,0,0,1-.11-1.43,16.25,16.25,0,0,0,.09-4.1l-.13-.95a17.76,17.76,0,0,0-.16-3,29.63,29.63,0,0,0,.94-4.59,4,4,0,0,0-1.12-2.88c-.05-.12-.13-.39-.18-.57a6.46,6.46,0,0,0-.6-1.51,4.52,4.52,0,0,1,.19-.56,2.49,2.49,0,0,0,.23-.92c0-.28.15-4.47.25-7.22V89.2l-.1-.27a19.36,19.36,0,0,0-3.46-5.05c-.31-.36-.57-.66-.73-.88a22,22,0,0,0-2.76-2.67c-.38-.34-.86-.75-1-.87a7.2,7.2,0,0,0-1.59-1.18l-.38-.24-.11-.14a10.1,10.1,0,0,0-2-2.31,14.1,14.1,0,0,1-1-1.15c-.36-.45-.72-.91-1-1.23s-1.77-2.37-2.52-3.47l-1.8-2.65-.12.54-1.51-1.8L214.06,65l-.62-.95a6.74,6.74,0,0,1-.07-1.25,10.68,10.68,0,0,0,.27-2.48v-.05l-.22-3.36-.67-1-.11-.08a11.59,11.59,0,0,1-.95-2,13.32,13.32,0,0,0-1.85-3.4,21.13,21.13,0,0,1-1.14-2.12c-.35-.71-.66-1.33-.89-1.68a4,4,0,0,1-.4-1.74,4.12,4.12,0,0,1,.77-1l1.51-.55a5.06,5.06,0,0,1,1.75-.31,2.39,2.39,0,0,0,1.13-.23c.73-.39,1-1.23.88-2.5V37.53l-.34-.56,1.57.66,1.64-3.15a27.65,27.65,0,0,1,3.92.34l.89.13,1.57-2.46.19-1.86L222,27.18l-.13-.19c-.13-.19-3.13-4.63-4.09-5.9-.83-1.1-4.24-5.31-5.24-6.53l-.17-1.92-.53-.37c-.22-.15-.58-.4-3.07-.71l-.15,0-3.27.29.43,1.59c.09.34.57,2.09.8,2.65.07.16.21.48.38.86.35.77.87,1.93,1,2.43a33,33,0,0,1-.33,5l-.63,1a37.07,37.07,0,0,1-3.91.69c-.57-.11-1.49-.23-1.88-.27a6.25,6.25,0,0,0-3.09,0l-1.33-.67c-.22-.31-.43-.62-.53-.79-.1-.91-.49-4.14-.67-5.61l0-.21-.93-2-.3-.21c-1.53-1.09-2.21-1.41-3-1.05l-.75.37,0,.3a9,9,0,0,1-1.29.79,5.43,5.43,0,0,0-1.19.63l-1.65-2.3-.93-3.68L182.7,9l-2.79-.16-.36,1c-.22.58-2.12,5.71-2.41,6.9a11.36,11.36,0,0,1-.61,1.64,10.84,10.84,0,0,0-.53,1.41,12.27,12.27,0,0,1-1,1.63,8.68,8.68,0,0,0-.74,1.24,6.25,6.25,0,0,1-1.25,1.07,3.57,3.57,0,0,0-1.71,1.94c-.11.24-.44.82-.73,1.33a17,17,0,0,0-1.17,2.23,5.84,5.84,0,0,1-.54.93,11.59,11.59,0,0,0-.76,1.31c-.36.76-1.14,2.05-1.55,2.69a13.56,13.56,0,0,1-2.28,1.57l-.41.24-.18.44a29.09,29.09,0,0,0-1.26,3.7,3.94,3.94,0,0,1-.93,1.25c-.18.19-.33.35-.45.49a14.71,14.71,0,0,0-1,1.56l-.12.2a5.15,5.15,0,0,0-1.85,1.89,4.3,4.3,0,0,1-1.24,1.3,2.19,2.19,0,0,0-.58.55,3.86,3.86,0,0,0-.23.43l-.74-.06-.17,1.31a3.37,3.37,0,0,1-.91,1.65,4.23,4.23,0,0,0-.66,1c-.11.25-.24.56-.35.84l-1.12.26-.2.06c-2.24.89-7.23,6.82-8.71,8.62l-.27.32,0,.42c-.22,2.28-.56,5-.69,5.59a4.63,4.63,0,0,1-1.6.75,1.23,1.23,0,0,1-.53-.25l-1.59-1.33-.61,2c-.38,1.23-2.15,2.55-2.74,2.91l-.62.38,0,.72c0,.24-.34,5.95-.37,7.67,0,1.52,0,9.39.05,11.41l-4.28,5.83-3.81,3.3-.1.43a32.75,32.75,0,0,1-2.23,5.16c-.35.7-.65,1.3-.82,1.71-.56,1.29-2.09,4-2.11,4l-.29.52.18.57a7.29,7.29,0,0,0,1.33,2,20.39,20.39,0,0,1,1.34,1.81,7.22,7.22,0,0,0,1.95,2,5,5,0,0,1,.51.42l.07.1v0a7.14,7.14,0,0,1-1,2.21l-.52.94a14.77,14.77,0,0,1-1.92,2.7,3.14,3.14,0,0,0-1,2,13.79,13.79,0,0,0,.13,1.44c.08.66.17,1.49.22,2.37l0,.39a26.58,26.58,0,0,1,0,4.69,20,20,0,0,0-.14,2.51,12.7,12.7,0,0,1-.06,1.38,19.54,19.54,0,0,0,.41,4.78,5.77,5.77,0,0,1-.29,1.53c-.12.47-.26,1-.43,1.76a17.83,17.83,0,0,0-.3,4.17,12.6,12.6,0,0,1,0,1.47,6.54,6.54,0,0,1-.94.9l-2,0-.21,1.49a14.8,14.8,0,0,1-.63,2,7.4,7.4,0,0,0-.37,2.75,6.43,6.43,0,0,0,.09,1v.06c-.35.5-.66,1.42-.69,3.62,0,.42,0,1.19.07,2.05.06,1.24.13,2.78.08,3.52a7.47,7.47,0,0,1-.85,2.24l-2.38,0-2-2.24-2.65,1-.34.79a26,26,0,0,0-2,4.8,10.41,10.41,0,0,1-.73,1.71l-1.58.61-5.41,2,5.67.67a5.68,5.68,0,0,1,1,.48c.37.2,1.22.58,2.47,1.14.78.35,1.85.82,2,.92s.36.27.65.51c.58.47,1.37,1.1,2.19,1.65a18.31,18.31,0,0,1,1.68,1.29,6,6,0,0,0,.6.47,2.44,2.44,0,0,0,.57.24,5.83,5.83,0,0,1-2.25,3.22,1.48,1.48,0,0,0-2.15,1.65c1.81,6.66-8.13,14.41-12.17,18.88a1.51,1.51,0,0,0-.23,1.77c.52.92,1.43,2.39,1.33,3.51-.23,2.52-2.12,2-3.9,2s-3.14-.48-4.93,0c-3.7,1-6.65,4-8.64,7.18-2.63,4.16-4,10-8.2,12.93-7.9,5.45-11.53-8.61-12.59-13.79a1.48,1.48,0,0,0-2.67-.35,5.28,5.28,0,0,1-6.26,3,1.48,1.48,0,0,0-1.65,2.15c6.73,15.56-3.46,31.27-10.4,45.16L36.23,272a1.48,1.48,0,0,0-2.3.3l-4.21.33A1.47,1.47,0,0,0,27.28,274a60.36,60.36,0,0,0,5.08,12.75c-1-.15-2.19.51-1.7,1.72a48.94,48.94,0,0,0,14.45,19.73l5.68,8.2a1.48,1.48,0,0,0,2.73-.74c.06-5.24,6.08-6.75,8.67-2.22a1.47,1.47,0,0,0,1.26.72,39.89,39.89,0,0,0,20.42-5.63c3.92-2.38,4.38-4.1,9-2a23.92,23.92,0,0,1,9.86,8.65,1.49,1.49,0,0,0,2.3.3c1.7-1.53,5.56,6.2,6.55,7.56,1.1,1.51,6.15,5.68,2.46,7.48a1.47,1.47,0,0,0,0,2.53l17.64,8a1.49,1.49,0,0,0,2.2-1.26c.4-7.21,3.86-13.53,7.36-19.69,3.38-5.94,9.3-14.06,17.23-10,1.21.62,2.87-.7,2-2l-3.35-5,1.16-.66a16.28,16.28,0,0,0,5.42,4.9,1.48,1.48,0,0,0,2-.52l5.68-11.51c0,.07,0,.13,0,.2-.08.62-.26,5.07-.3,6v.22l.06.21c.13.46.8,2.79,1,3.28,1.55,4.14,1.84,4.89,3.09,4.7a6,6,0,0,0,.62-.17c.29-.09,1.14-.36,1.44-.41a8.77,8.77,0,0,0,3.25-1c.52-.22,2-.78,3.52-1.36,5.17-2,5.24-2,5.54-2.3s.43-.4,2.19-3.49l.64-.61c.38.61.83,1.3,1.2,1.86a33.67,33.67,0,0,0,2.79,3.32c.3.32.54.58.66.74.33.39,1.58,2.19,2.29,3.24l.19.28,3.65,2,3.66,0,1.51.88.88,1.5,5.55,2.07.87.62-.57,2.23-2.34,3.07,0,.43c-.13,3.26-.13,3.33-.13,3.36a1.6,1.6,0,0,0,.35,1,3,3,0,0,1,.51,1,6.85,6.85,0,0,1-.65,1.7l-.9,1.71,1.91.3c.05,0,1.28.2,2.43.26.56,0,1.11.11,1.95.22.64.09,1.43.2,2.49.32s1.95.21,2.85.29c1.26.12,2.45.23,3.59.41s3.11.32,4.76.44c1.06.07,2,.14,2.69.22l.27,0c3.17.36,6.93.78,7.83.83.38,0,1.41.13,2.59.25,2.49.26,4.45.45,5.22.45.58,0,2.18.21,3.45.38,1.45.19,2.37.31,2.87.32s1.85.21,3,.38a44,44,0,0,0,4.78.54c.65,0,2.79.2,6.36.62l.44.05c.05,0,5.2.57,6.41.54.89,0,4.76.42,6,.61s4.73.45,5.44.47l1.27.1a33.33,33.33,0,0,0,5.38.23,56.86,56.86,0,0,1,6.19.31h.12a82.45,82.45,0,0,1,10.73.7,21.47,21.47,0,0,0,2.32.22,2,2,0,0,0,1.43-.45,1.54,1.54,0,0,0,.52-1.14c0-.42.44-3.19.78-5.41.63-4.17.93-6.2.93-6.75s.83-7.06,1.28-10.49c.31-2.45.47-3.64.49-3.88s.33-2.25.6-4c.4-2.59.86-5.52,1-7s.38-27.59.43-45.49C322.87,212.3,322.58,212,322.1,211.42Z"/><path class="cls-2" d="M132.39,342.61a3.21,3.21,0,0,1-1.32-.29l-17.64-8a2.71,2.71,0,0,1-1.55-2.49,2.82,2.82,0,0,1,1.51-2.6c.15-.07.49-.26.52-.44.16-.84-1.68-2.85-2.46-3.71a16,16,0,0,1-1-1.22c-.25-.34-.58-.91-1-1.69-.7-1.18-2.71-4.59-3.77-5.37a2.91,2.91,0,0,1-2,.48,3,3,0,0,1-2.09-1.32,22.43,22.43,0,0,0-9.28-8.15c-2.89-1.34-3.39-1-5.49.49-.6.42-1.29.9-2.14,1.42a41.53,41.53,0,0,1-21.15,5.84A2.91,2.91,0,0,1,61,314.15a3.32,3.32,0,0,0-3.72-1.88,3.27,3.27,0,0,0-2.3,3.41,2.79,2.79,0,0,1-2,2.69,3,3,0,0,1-3.33-1.16l-5.56-8A50.57,50.57,0,0,1,29.35,289a2.55,2.55,0,0,1,.31-2.59,2.68,2.68,0,0,1,.63-.58,62.13,62.13,0,0,1-4.38-11.46,2.82,2.82,0,0,1,1.28-3.19,2.9,2.9,0,0,1,2.93-.06l3.16-.24a3.17,3.17,0,0,1,1.93-.78,2.6,2.6,0,0,1,2.11.95l2.86,3.44q.8-1.57,1.64-3.17c6.59-12.68,13.4-25.79,7.74-38.86A3.1,3.1,0,0,1,50,229.2a2.72,2.72,0,0,1,2.86-.82,3.88,3.88,0,0,0,4.59-2.2,2.72,2.72,0,0,1,2.86-1.51,2.82,2.82,0,0,1,2.49,2.17c1.53,7.5,4,12.61,6.69,13.68,1.1.44,2.32.19,3.71-.77,2.53-1.75,4-4.87,5.41-7.9a42.2,42.2,0,0,1,2.4-4.62c2.57-4.07,5.93-6.84,9.47-7.79a9.91,9.91,0,0,1,3.84-.16c.5.05,1,.1,1.48.11l.75,0c1.64.08,1.64,0,1.71-.75a6.55,6.55,0,0,0-1-2.45l-.13-.23a2.94,2.94,0,0,1,.41-3.42c.81-.9,1.85-1.92,2.95-3,4.28-4.22,10.15-10,8.91-14.56a2.75,2.75,0,0,1,.88-2.9,3,3,0,0,1,2.24-.68,6.23,6.23,0,0,0,.87-1l-.32-.26a16.92,16.92,0,0,0-1.56-1.19c-.87-.58-1.68-1.24-2.27-1.72l-.17-.14-.33-.27-1.86-.84c-1.32-.59-2.15-1-2.57-1.19s-.58-.29-.69-.34l-11.39-1.34,11-4,1-.4a6.92,6.92,0,0,0,.39-1,28.41,28.41,0,0,1,2.1-5.1l.53-1.23,4.12-1.6,2.23,2.5h.85a4.3,4.3,0,0,0,.32-.92c0-.65,0-2.21-.08-3.35,0-.9-.08-1.7-.07-2.14a9.47,9.47,0,0,1,.63-3.87,6.8,6.8,0,0,1-.05-.82,8.61,8.61,0,0,1,.47-3.28,15.57,15.57,0,0,0,.55-1.66l.38-2.72,2.75.06.07-.07c0-.3,0-.68,0-.86a19,19,0,0,1,.34-4.5c.17-.73.31-1.31.44-1.79s.21-.83.25-1a19.78,19.78,0,0,1-.4-5.06,11.24,11.24,0,0,0,.05-1.24,21.51,21.51,0,0,1,.15-2.67,25.52,25.52,0,0,0,0-4.45l0-.39c0-.84-.14-1.64-.21-2.28a14.57,14.57,0,0,1-.14-1.6,4.38,4.38,0,0,1,1.39-2.94,13.31,13.31,0,0,0,1.75-2.46l.52-.94c.3-.54.48-.88.61-1.11a8.12,8.12,0,0,1-2.06-2.22,19.8,19.8,0,0,0-1.24-1.66,8.1,8.1,0,0,1-1.58-2.45l-.36-1.16.59-1.06s1.51-2.7,2-3.91c.18-.42.49-1,.85-1.77a33,33,0,0,0,2.12-4.86l.21-.88,4-3.49,3.91-5.33c0-3.73-.07-9.65,0-11,0-1.5.27-5.85.37-7.65l.09-1.54,1.25-.76a6.07,6.07,0,0,0,2.12-2.12l1.24-4,3,2.49.17-.08c.14-1,.37-2.92.56-4.86l.08-.85.54-.66c2.44-3,6.89-8.08,9.28-9l.3-.1.51-.12.09-.21a5.46,5.46,0,0,1,.86-1.28,2.5,2.5,0,0,0,.6-.93l.35-2.65,1.22.1a4,4,0,0,1,.71-.63,3,3,0,0,0,.87-.88,6.61,6.61,0,0,1,2-2.18A15,15,0,0,1,160,40.88c.13-.16.31-.36.52-.57a6.65,6.65,0,0,0,.59-.68,30,30,0,0,1,1.31-3.83l.36-.89.83-.48a17,17,0,0,0,1.88-1.25c.41-.65,1.07-1.77,1.37-2.4a12.84,12.84,0,0,1,.85-1.47c.13-.2.35-.54.4-.65a17.23,17.23,0,0,1,1.27-2.45c.23-.4.59-1,.67-1.2a5,5,0,0,1,2.36-2.62,6.73,6.73,0,0,0,.7-.59,12.82,12.82,0,0,1,.75-1.23c.45-.68.71-1.12.8-1.3a12.49,12.49,0,0,1,.58-1.52,10.48,10.48,0,0,0,.54-1.43c.31-1.24,2.1-6.09,2.46-7l.72-1.94,4.33.25,3.5,3.09,1,3.84.76,1.05.27-.1.44-.26,0-.42,1.47-.73c1.69-.79,3.09.21,4.44,1.17l.6.43,1.18,2.55.05.44c.16,1.33.5,4.11.64,5.31l.1.16.57.29a7.21,7.21,0,0,1,3.19.05c.45.05,1.14.14,1.67.24s1.48-.23,2.94-.53l.15-.24a39.55,39.55,0,0,0,.31-4.23c-.19-.5-.66-1.57-.93-2.16-.18-.4-.33-.73-.4-.9-.24-.58-.64-2-.85-2.82l-.87-3.22,5.1-.46.3,0c2.62.32,3.22.62,3.7.95l1.08.75.19,2.15c1.67,2.06,4.27,5.28,5,6.23,1,1.34,4.11,5.92,4.14,6l.26.38,1.08,3.94L224.09,33l-2.25,3.51-1.8-.27c-1.05-.16-2.09-.26-2.86-.3l-1.84,3.53-.47-.2v.92c.25,2.43-.91,3.44-1.63,3.83a3.75,3.75,0,0,1-1.76.39,3.64,3.64,0,0,0-1.3.23L209,45l-.12.14a1.91,1.91,0,0,0,.14.62c.27.41.59,1.06,1,1.81.2.41.81,1.62,1,1.88a14.36,14.36,0,0,1,2.09,3.85,12,12,0,0,0,.65,1.42l.09.06,1,1.57.24,3.79v.05a12.58,12.58,0,0,1-.29,2.76c0,.11,0,.3,0,.52l.31.47.74.6.23-1,3.64,5.37c1,1.47,2.11,3,2.38,3.29s.73.84,1.09,1.3c.17.21.59.74.78.95a11.61,11.61,0,0,1,2.21,2.5l0,0,.11.07a8.21,8.21,0,0,1,1.91,1.45l.79.71a22.6,22.6,0,0,1,3,2.93c.14.19.37.45.64.76a20.59,20.59,0,0,1,3.74,5.5l.21.54,0,.58c-.12,3.28-.24,6.92-.24,7.18a3.63,3.63,0,0,1-.3,1.37,10.45,10.45,0,0,1,.42,1.22l.07.24a5.28,5.28,0,0,1,1.29,3.63,26.6,26.6,0,0,1-.92,4.66,18.75,18.75,0,0,1,.14,2.82l.11.81a18,18,0,0,1-.07,4.44c0,.3,0,.57,0,.75a3,3,0,0,1,.05,2.9c-1,1.9-3.68,2.22-4.75,2.08h-.18l0,.06.84.48.53.39,1.49,1.4,5.25,2.26-1.24,2.62a11.2,11.2,0,0,1-1.49,2.6l-.05.08-.05.09a7.16,7.16,0,0,1-1.42,1.78c-1.27,1.47-2.43,2.87-2.62,3.15a3.8,3.8,0,0,1-2.88,1.53,1.35,1.35,0,0,0-.79.24l2.44,4-.17,1c-.16,1-.27,1.82-.28,2v.24c0,.58,0,1.08,0,1.52a5.51,5.51,0,0,0,.4.51c.19.13.41.29.66.48l3.65-2.73.07,5.49c0,.36,0,2.22,0,2.84,0,.45-.06,1.44-.06,1.49v.47l-.16.44c-.34.93-.72,2-.91,2.5,0,.8,0,2,.06,3.8v.28l-.49,2.49.56,1.13.79.36,2.43,1.12-1.55,3.81c0,1.87.06,3.23.1,3.63a11.81,11.81,0,0,1,.34,2.12l0,.15,0,.28a12.28,12.28,0,0,1,.34,2.38c0,.45.11,1.37.18,2.11l.08.87c0,.25.06.5.09.75a12.07,12.07,0,0,1,.15,2c0,.38-.11,1.39-.2,2.34l0,.29c-.06.6-.11,1.13-.11,1.31s0,.62-.07,1l.59.92.05.19a13.61,13.61,0,0,0,1.81-.89c.77-.77,3.93-3.43,4.55-4l1.53-1.29,4.73,2.83.86,4.07-.68,1c-.71,1-1.28,1.92-1.41,2.15a5.17,5.17,0,0,1-.47.81,2.09,2.09,0,0,0-.36.7l-.17.56c-.44,1-.71,1.63-.88,2l5.54-.64.73,6.12,1,1a46.85,46.85,0,0,1,4.83.62,25.13,25.13,0,0,0,4.17.15l4-.75-.76,4c0,.22-.08.43-.1.63a19.91,19.91,0,0,1,2.34.36c.9.06,1.72.11,1.91.11s1.52.06,2.78.12H275l2.27.1a27.56,27.56,0,0,1,3.53.11c.19,0,1.46.11,2.79.18a13.93,13.93,0,0,1,0-1.46c.24-2.8,2.19-2.68,6.09-2.44.92.06,2.62.15,3,.15.83,0,2.85.06,4.72.15h0l.18-.78,5.37.13.17.31h7.54l-.38,1.06c1.18.08,9.78.4,10.69.4h1.26l.85,1c.91,1,1.13,1.28,1,45.71,0,11.21-.19,43.67-.44,45.67-.19,1.51-.65,4.44-1,7l0,.19c-.23,1.46-.54,3.45-.56,3.72s-.15,1.29-.49,3.94c-.38,2.94-1.24,9.66-1.26,10.34s-.21,2.08-.95,6.93c-.28,1.85-.74,4.86-.76,5.27a2.91,2.91,0,0,1-1,2.14,3.38,3.38,0,0,1-2.37.81,22.2,22.2,0,0,1-2.49-.23,81.25,81.25,0,0,0-10.56-.69H302c-2.86-.25-5.47-.38-5.93-.33a32,32,0,0,1-5.7-.22h-.17l-1-.08c-.76,0-4.37-.29-5.62-.49s-5-.59-5.76-.59h-.11c-1.34,0-5.6-.46-6.47-.55l-.46-.05c-3.81-.45-5.7-.61-6.19-.61h-.12a47.68,47.68,0,0,1-4.86-.55c-1-.14-2.58-.35-2.88-.36-.57,0-1.48-.13-3-.33-1.11-.15-2.78-.37-3.27-.37-.84,0-2.75-.19-5.37-.46-1.2-.12-2.16-.22-2.52-.25-.93-.05-4.52-.45-7.91-.84l-.27,0c-.61-.07-1.5-.13-2.49-.2h-.14c-1.67-.12-3.56-.25-4.87-.45-1.09-.17-2.24-.28-3.47-.39-1-.09-1.9-.18-2.92-.3s-1.83-.23-2.48-.32c-.83-.12-1.36-.19-1.87-.22-1.09-.06-2.23-.23-2.56-.28l-3.88-.62,1.82-3.46a8.12,8.12,0,0,0,.4-.91l-.18-.28a3,3,0,0,1-.6-1.76c0-.07,0-.13.14-3.42l0-.88,2.43-3.19.25-1-5.76-2.14-1-1.62-.85-.5-3.64,0L198.51,311l-.38-.56c-.87-1.28-2-2.84-2.21-3.12l-.54-.6-.09-.1a34.54,34.54,0,0,1-2.92-3.49l-.1-.16a10.8,10.8,0,0,1-1.78,2.65c-.52.48-.57.54-6,2.59-1.46.55-3,1.13-3.46,1.34a10.26,10.26,0,0,1-3.68,1.16c-.13,0-.43.11-1.13.33a6.74,6.74,0,0,1-.88.23c-2.36.34-3-1.27-4.6-5.61-.2-.54-.83-2.73-1-3.39l-.08-.29L167,307.39a2.68,2.68,0,0,1-1.65,1.37,3,3,0,0,1-2.33-.24q-.53-.3-1-.63a2.64,2.64,0,0,1-.54,2.69,3,3,0,0,1-3.61.73c-5.2-2.64-10.23.46-15.36,9.47-3.84,6.75-6.81,12.45-7.18,19.06a2.88,2.88,0,0,1-1.37,2.35A2.91,2.91,0,0,1,132.39,342.61Zm-17.68-10.79,17.52,7.92a.29.29,0,0,0,.2,0c.44-7.89,4.38-14.82,7.55-20.39,5.95-10.45,12.38-14,19.11-10.6a.2.2,0,0,0,.13,0l-4.14-6.18,3.59-2.06.74,1.06a14.88,14.88,0,0,0,5,4.48h.07l9.8-19.87-1.49,9.29h-1l.14.07.8.1c0,.35-.16,2.8-.28,5.83.37,1.31.83,2.86.95,3.17a28.46,28.46,0,0,0,1.58,3.79l.38-.11a12.66,12.66,0,0,1,1.66-.46l.12,0h.12a8.71,8.71,0,0,0,2.66-.93c.55-.24,2-.77,3.58-1.38,2.6-1,4.78-1.81,5.07-2a26.75,26.75,0,0,0,1.94-3.17l.1-.18,2-1.95.92,1.47c.38.6.81,1.28,1.18,1.83a33.32,33.32,0,0,0,2.66,3.15l.09.1c.27.3.5.54.62.69.48.57,2.24,3.15,2.37,3.34l3,1.65,3.69,0,2.16,1.26.82,1.39,5.41,2.06,1.66,1.18-.88,3.45-2.24,2.94c-.12,2.86-.13,3.23-.13,3.31l.11.15a3.68,3.68,0,0,1,.75,1.57l0,.18,0,.18a8.16,8.16,0,0,1-.78,2.14c.29,0,1.31.19,2.23.24.63,0,1.23.12,2.07.23.67.09,1.44.2,2.46.32s1.92.2,2.81.29c1.31.12,2.5.24,3.67.42s3,.31,4.64.42h.14c1,.07,2,.14,2.61.21l.27,0c1.85.21,6.78.77,7.75.82.38,0,1.39.12,2.57.25,2,.21,4.41.46,5.17.46s1.91.16,3.64.39c1.22.16,2.27.3,2.71.31s1.23.12,3.15.38a45.69,45.69,0,0,0,4.61.53h0c1.07,0,4.56.4,6.56.63l.44.05c2.46.27,5.48.55,6.22.53h0c1.08,0,5,.43,6.22.63s4.59.44,5.26.46l1.19.09h.16a37.31,37.31,0,0,0,5,.24,63.31,63.31,0,0,1,6.53.3h.08a83.32,83.32,0,0,1,10.81.71,21.11,21.11,0,0,0,2.15.21c.39,0,.45-.05.49-.09l0-.15c0-.42.26-2,.78-5.5.46-3,.93-6.1.93-6.59,0-.66.48-4.38,1.28-10.6.26-2,.47-3.65.49-3.89s.21-1.47.58-3.91l0-.17c.4-2.59.85-5.51,1-7s.36-24.65.42-45.32c.09-29.74,0-41.91-.35-43.82-1.05,0-10.27-.33-11.15-.44a5.58,5.58,0,0,0-1.35,0l-2.2.19.44-1.23h-2.61l-.09,4.42-2.67-4.78-1.45,0-.26,1.12-1.36-.29-.44-.09-.48,0c-1,0-3.71-.16-4.55-.14-.43,0-1.47,0-3.24-.16-1.34-.08-2.53-.15-3.1-.11a8.52,8.52,0,0,0,0,1.35l0,.13c0,.15,0,.61,0,1.19l0,1.52-1.52-.08c-1.31-.07-4.13-.23-4.61-.29a28.59,28.59,0,0,0-3.13-.08l-2.41-.1h-.25c-1.2-.06-2.4-.11-2.65-.11-.43,0-1.94-.11-2.24-.13l-.27,0a25.35,25.35,0,0,0-3.27-.45l-1-.1-.24-1-.07-.25,0-.17a9.15,9.15,0,0,1,.18-2.3,25,25,0,0,1-5.28-.19c-.19,0-1.17-.23-5.81-.7l-1.74-.18.43-1.36-.79-.73-.52-4.35-9.65,1.12,2.38-2.75c1.27-1.47,1.47-1.75,1.5-1.79s.2-.34.95-2.11l0-.14a4.67,4.67,0,0,1,.76-1.64,3.58,3.58,0,0,0,.23-.37l0-.11c.24-.48,1.49-2.32,1.61-2.5l-.35-1.67-1.93-1.16c-1.36,1.15-3.81,3.23-4.44,3.85a18.52,18.52,0,0,1-4.05,2l-.36.14-1.4-.24-.59-2.1-.89-1.38,0-.49c0-.42.09-1,.11-1.33s.06-.79.13-1.46l0-.29c.08-.89.17-1.85.19-2.2a9.66,9.66,0,0,0-.12-1.52c0-.33-.08-.62-.1-.89l-.08-.85c-.08-.81-.17-1.8-.19-2.28a9.27,9.27,0,0,0-.25-1.78l0-.2c0-.12,0-.3-.06-.51v-.14a9.56,9.56,0,0,0-.25-1.64l-.06-.23c-.14-.84-.15-4.08-.15-4.45V171l.74-1.82-1.22-.57-.44-.21-.22-.44-1-2-.21-.43.62-3.14c0-1.93,0-3.21-.07-3.92l0-.28.09-.27c.13-.4.6-1.68,1-2.83,0-.11,0-1.15.07-1.63s0-1.72,0-2.52l-1,.78-.86-.78a9.64,9.64,0,0,0-1.24-1,6.33,6.33,0,0,1-1.45-1.72l-.28-.43.06-.51a13.92,13.92,0,0,0,0-1.68v-.28c0-.53.28-2.25.31-2.43l-2.77-4.51,1.08-1.84a3.9,3.9,0,0,1,2.64-1.26c.56-.07.78-.13.92-.33.42-.61,2.63-3.18,2.88-3.47l.21-.2a4.5,4.5,0,0,0,.88-1.14l.25-.39.15-.17a9.62,9.62,0,0,0,1-1.89l-3-1.3-1.91-1.77-1.42-.82-.38-.23-.69-1.53,1-2.74,1.12-.43.19,0a7,7,0,0,1,1.42,0c.44.06,1.65-.18,1.86-.59a.18.18,0,0,0,0-.21l-.16-.21-.07-.25a8.17,8.17,0,0,1-.17-1.83l0-.29a14.77,14.77,0,0,0,.06-3.66l-.14-1v-.15a15.82,15.82,0,0,0-.15-2.69l0-.27.07-.27a27.2,27.2,0,0,0,.9-4.25,2.54,2.54,0,0,0-.75-1.89l-.17-.18-.1-.23c-.06-.15-.17-.48-.23-.71a5.37,5.37,0,0,0-.45-1.19l-.29-.48.12-.55a6.4,6.4,0,0,1,.25-.77,2,2,0,0,0,.14-.42c0-.37.21-6.1.25-7.26a18.31,18.31,0,0,0-3.21-4.64c-.35-.41-.62-.72-.8-1a21.91,21.91,0,0,0-2.55-2.46c-.7-.62-.95-.84-1.08-1a6.54,6.54,0,0,0-1.29-.93l-.1-.06-.33-.21-.19-.13-.25-.32a13.58,13.58,0,0,0-1.63-2l-.19-.13A10.6,10.6,0,0,1,221,75.33c-.34-.43-.67-.84-1-1.14-.61-.65-2.31-3.13-2.62-3.58l0,.14-3.27-3.9L213,65.92l-.92-1.41,0-.32A7.24,7.24,0,0,1,212,62.5l0-.17a9.09,9.09,0,0,0,.21-2.06L212,57.33l-.55-.76a12.61,12.61,0,0,1-1.14-2.38,12.27,12.27,0,0,0-1.57-2.89,14.35,14.35,0,0,1-1.34-2.41c-.33-.66-.63-1.27-.81-1.55a5.14,5.14,0,0,1-.63-2.41l0-.32.11-.29a5.4,5.4,0,0,1,1.08-1.49l.23-.23,1.81-.66a6.47,6.47,0,0,1,2.19-.39,1.33,1.33,0,0,0,.5-.06c.12-.06.21-.43.14-1.09V37.93l-2.4-4,4.4,1.85,1.43-2.74.84,0a28.68,28.68,0,0,1,4.13.35l.9-1.4.13-1.26-.81-3c-.37-.55-3.16-4.66-4-5.83-.74-1-3.58-4.49-5.21-6.5l-.27-.34L211,13.44a9.39,9.39,0,0,0-2.42-.46l-1.44.13c.32,1.17.61,2.15.73,2.45s.2.45.36.81c.48,1.06.92,2,1.09,2.58l0,.17a34.78,34.78,0,0,1-.31,5.45l0,.31-1.12,1.81-.59.13a41.05,41.05,0,0,1-4.18.72H203l-.15,0c-.36-.07-1-.17-1.77-.25l-.28-.06a4.77,4.77,0,0,0-2.33.07l-.5.11-2.1-1-.2-.28c-.26-.36-.5-.73-.61-.93l-.14-.25,0-.29c-.1-.91-.49-4.11-.67-5.58l-.68-1.47a5.13,5.13,0,0,0-1.55-.92v.15l-.53.38a9.89,9.89,0,0,1-1.62,1,3.81,3.81,0,0,0-.92.49l-1.14.74-2.6-3.62-.89-3.51-2.11-1.87-1.25-.07c-1,2.69-2.16,5.93-2.36,6.72a12.44,12.44,0,0,1-.68,1.85,9.85,9.85,0,0,0-.47,1.22,8.92,8.92,0,0,1-1.14,2,9.52,9.52,0,0,0-.62,1l-.17.31a7.19,7.19,0,0,1-1.73,1.48,2.17,2.17,0,0,0-1.07,1.26c-.13.28-.39.75-.78,1.44a18.6,18.6,0,0,0-1.07,2,6.31,6.31,0,0,1-.68,1.23,10.4,10.4,0,0,0-.67,1.15,32.44,32.44,0,0,1-1.63,2.85l-.1.14A14.88,14.88,0,0,1,165,36.88a25.88,25.88,0,0,0-1.18,3.42,4.35,4.35,0,0,1-1.3,2c-.15.15-.28.29-.37.41a14.32,14.32,0,0,0-.9,1.38l-.3.5-.31.18a3.73,3.73,0,0,0-1.36,1.4,5.73,5.73,0,0,1-1.62,1.71,1.67,1.67,0,0,0-.24.19c0,.06-.08.15-.13.25l-.42.89-.37,0a4.64,4.64,0,0,1-1.23,2.35,3.28,3.28,0,0,0-.45.62c-.11.24-.23.53-.33.79l-.28.68-1.84.43c-1.25.51-4.51,3.79-8.12,8.19-.19,1.88-.54,5-.71,5.76l-.1.44-.33.3a5.93,5.93,0,0,1-2.25,1.08l-.2,0a2.44,2.44,0,0,1-1.49-.54c-.63,1.93-3.11,3.51-3.32,3.64-.08,1.48-.35,6.11-.37,7.59s0,8.42.05,11.37v.47l-4.78,6.45-3.47,3a31.74,31.74,0,0,1-2.34,5.45c-.34.68-.63,1.26-.8,1.65-.57,1.3-2,3.88-2.16,4.15a8.79,8.79,0,0,0,1.09,1.53,21.21,21.21,0,0,1,1.44,2,5.94,5.94,0,0,0,1.59,1.62,4.27,4.27,0,0,1,.75.65l.4.54-.07.84a8.41,8.41,0,0,1-1.16,2.52l-.52.94a16.23,16.23,0,0,1-2.08,2.94c-.45.52-.7.83-.7,1.09s.06.76.12,1.27c.08.69.18,1.54.23,2.46l0,.39a27.85,27.85,0,0,1,0,4.92A18.53,18.53,0,0,0,123,139a14.11,14.11,0,0,1-.07,1.53,17.76,17.76,0,0,0,.39,4.34,5,5,0,0,1-.31,2.17c-.12.46-.26,1-.42,1.73a16.72,16.72,0,0,0-.27,3.83,11.42,11.42,0,0,1-.05,1.72l-.06.34L122,155a7.89,7.89,0,0,1-1.18,1.14l-.4.33-1.3,0,0,.25a15.15,15.15,0,0,1-.72,2.3,6.25,6.25,0,0,0-.27,2.23,5.06,5.06,0,0,0,.07.81l.09.56-.31.54a5.78,5.78,0,0,0-.44,2.83c0,.41,0,1.14.07,2,.06,1.35.14,2.87.07,3.7a8.44,8.44,0,0,1-1,2.79l-.4.77-3.87,0-1.76-2-1.18.46-.23.48a25.29,25.29,0,0,0-1.8,4.38,11.82,11.82,0,0,1-.85,2l-.24.46-.48.19-1.5.58a7.32,7.32,0,0,1,1.36.61c.35.19,1.43.67,2.37,1.09,1.35.6,1.94.87,2.14,1a7.46,7.46,0,0,1,.7.52l.15.12c.57.46,1.32,1.07,2.08,1.58a19.47,19.47,0,0,1,1.81,1.38,5.36,5.36,0,0,0,.43.34,1.22,1.22,0,0,0,.25.1l1.18.36-.19,1.21a7.06,7.06,0,0,1-2.73,4.07l-.7.59-.83-.39a.21.21,0,0,0-.21,0c1.71,6.15-4.84,12.6-9.63,17.3-1.07,1.05-2.08,2-2.84,2.88,0,0-.07.08,0,.12l.13.22c.64,1.12,1.52,2.64,1.38,4.11-.32,3.54-3.26,3.39-4.67,3.33l-.66,0c-.62,0-1.18-.07-1.72-.12a7.34,7.34,0,0,0-2.82.07c-3.84,1-6.54,4.55-7.81,6.56a39.8,39.8,0,0,0-2.23,4.31c-1.57,3.37-3.2,6.84-6.36,9-2.21,1.52-4.35,1.88-6.38,1.07-4.89-2-7.35-10.6-8.39-15.65l-.07,0a6.66,6.66,0,0,1-7.85,3.63.33.33,0,0,0,0,.22c6.19,14.3-1.26,28.64-7.83,41.29-.89,1.71-1.77,3.4-2.6,5.07l-1,1.94L35.23,273a.42.42,0,0,0-.14.12l-.38.53-5.49.42-.46-.43a.11.11,0,0,0-.12,0,60.11,60.11,0,0,0,5,12.45l1.33,2.48-2.78-.4h-.1a47.78,47.78,0,0,0,14,19l.15.13L52,315.61a.15.15,0,0,0,.17.06,6,6,0,0,1,4.39-6.13,6.13,6.13,0,0,1,6.9,3.21,38.59,38.59,0,0,0,19.72-5.42c.77-.47,1.42-.92,2-1.32,2.59-1.81,4.13-2.67,8.31-.74a25.22,25.22,0,0,1,10.45,9.15c0,.06.07.08.08.08s0,0,.09-.05a2.16,2.16,0,0,1,1.8-.54c1.77.27,3.39,2.52,5.95,6.85.37.63.72,1.23.89,1.46s.5.59.85,1c1.51,1.65,3.58,3.91,3.15,6.15a3.42,3.42,0,0,1-2,2.42A.29.29,0,0,0,114.71,331.82ZM321,212.37h0Zm.64-.57h0l.42-.38ZM120.51,145.5h0ZM161.08,39.77h0Zm.06-.19Z"/></svg>