<svg id="Layer_1" data-name="Layer 1" xmlns="http://www.w3.org/2000/svg" viewBox="0 0 350 350"><defs><style>.cls-1{fill:#999;}.cls-2{fill:#f90;}</style></defs><title>M</title><path class="cls-1" d="M74.91,106.31l-5.23-3.23s-4-1.07-4.76-1.15-4.63-1.17-5.3-.92A37,37,0,0,1,56,99a6.16,6.16,0,0,0-3.42-.58c-.54.21-5.3,2.25-5.3,2.25s-6.22,14.77-6.47,15.48-2.7,6.52-2.7,6.52-2.48,8.12-2.85,10.13-2.17,7.93-2.17,10.14-1.75,8.93-1.54,9.72-.38,7.76-.38,9-.54,8.1-.79,9.14-.92,6.38-.88,6.76-.29,6.26-.21,6.84,2.88,3.46,2.88,3.46l3.32,2.25,4.8-.54s1.82,4.11,2.19,4.53,3.17,5.09,3.42,5.7,3.4,5.76,3.63,6.39,3.78,5.11,3.82,5.49,3.65,6.47,3.84,7,3.46,5.72,3.63,6.09a13.7,13.7,0,0,0,.69,1.19s.4,3.19-.78,3.87a21.72,21.72,0,0,1-3.88,1.44c-.4.11-3.71,1-3.79,1.12s-2.67,3.09-2.82,3.21-.95.66-.95.66l-2.59-3a4.61,4.61,0,0,0-2,.83l-1.41,1.29.59,4.66a6.38,6.38,0,0,0,1,2.09l.58,1.63a7.81,7.81,0,0,1-.54,2.3c-.33.4-.77.52-1.73.67a23.92,23.92,0,0,1-4,.65,25.17,25.17,0,0,0-2.75.1,6.44,6.44,0,0,1-1.71,2.19,10.94,10.94,0,0,0-2.67,2.3c0,.19-1,1.11-.81,2.34a39.67,39.67,0,0,0,0,4.67c.19.77.42,2.46,1.27,3a39.62,39.62,0,0,1,3.59,2.94,4.8,4.8,0,0,1,.86,1.94c.13.73,2.27,4.15,2.61,4.95a46.85,46.85,0,0,1,2,5.28c.15.94,1.19,3.82,1.21,4.59s-.56,4-.4,4.65-.31,3.94.48,5.4c0,0,.46,4.34,1.25,5.28,0,0,.27,1.48,1.46,1.69s3.42.48,3.42.48l1.15,1.75s-.29,2-.5,2.69a24.1,24.1,0,0,0-.46,2.44l-.13,3.55L50.79,311l1.4-1,.43-3a46.24,46.24,0,0,1,3.83,3.3c.33.53,4.48,4.62,5.08,5.2S71.79,326,72.68,326.76s2.45,4,3.12,5,1.93,4.44,2.81,6a38.85,38.85,0,0,0,3.3,4.92c.33.25,3-2.63,4.3-4.09a40.2,40.2,0,0,1,3.76-3.8,48.28,48.28,0,0,0,3.76-3.13,18.9,18.9,0,0,0,3-4.13c.13-.33.92-1.5,3.51-1.29s6,.5,7,.25a6.66,6.66,0,0,1,2.59-.54,28,28,0,0,1,5.63,0c2.13.38,10.6.33,10.73.33a7.59,7.59,0,0,1-1-3.71,41.37,41.37,0,0,1-.33-5c.17-.58.29-3,.58-3.63s1.79-6.13,2.09-6.8,1.88-6.22,2.25-6.84a8.8,8.8,0,0,0,.67-2.17c.08-.33-.88-5.09-.71-6.05s.13-5.8.25-6.55a16.17,16.17,0,0,0,.46-3.34v-.38a4.26,4.26,0,0,0,1.36-1c.29-.5,1.17,1.17,1.28,2.11s.33,5.73.72,6.73.78,5.45,1.5,6.06,1.11,3,1.67,3.78,1.61-2.23,2.17-3.45,2.17-5.34,2.62-6.07,5.4-4.17,5.56-4.34a16.94,16.94,0,0,0-.22-3s-2.56-4-2.84-5.34.17-2.84,2.34-2.5a60.14,60.14,0,0,1,9.29,3.12c1,.5,1.06.28,1.45.61s6.12,4.9,6.45,5.79,1.39-1.56,2.45-4.06,3.56-7.23,3.84-8.12,3.51-4.23,4.06-5.06,1.61-3.56,1.28-4.51l3.34-1.56,3.45,1.56,2.17,2.17,8.74,4.06,3.78-.39,4.84,8.18a10.87,10.87,0,0,1,.83,2.67l1.22-.72L208,278s7.37-3.55,8.54-5.1a40.83,40.83,0,0,1,4.84-4.17c1.46-.83,5-3.51,5.32-4.34s4-3.71,5.15-3.8,6.64-1.67,8.89-.63a13.32,13.32,0,0,1,3,1.61c0,.06,8.6-.69,8.6-.69l2.61,2.61s-1.29,4-2.25,5.09a2.43,2.43,0,0,0-.54,2.13l.06,1.63,1.44,1.77-1.65,1.67-5.59,2.3s-5.91,4.67-6.24,5.28a29.69,29.69,0,0,1-2.46,2.78l1.44,3.07s4.88,5.26,5,5.32,2,5.47,2,5.47l1.11,2.9-1,5.63s-2.82,2.11-3.26,3a32.82,32.82,0,0,1-1.84,2.88l-.67,3.19,2.61,3.28s8.1,5.72,9.14,5.91,3.61.29,3.61.29a23.45,23.45,0,0,0-.25-3.32,4.93,4.93,0,0,1,.48-2.52c.19-.4,3.21-2.48,3.42-2.8s1,2.32,1,2.86-.42,3.19-.42,3.19,2.21,5,3.15,5.38,5.68,1.71,7,.69,1.59-2.21,3.78-2.23,4.28-.1,4.28-.1l2.48-1.17,2.36-2.55a2.5,2.5,0,0,0,.17-1.25c-.13-.54-.29-4.36-.35-5.07s-.17-5.17-.21-6.45a50.24,50.24,0,0,0-.61-6.57,38.39,38.39,0,0,0-1.75-3.69c-.31-.38-1.24-2.66-1.54-3A21,21,0,0,1,277,295a31.64,31.64,0,0,1-.92-3.81,10.55,10.55,0,0,1,.5-2.45,14.85,14.85,0,0,1,1.89-.61s.75,1.64,1,2.11,2.48.5,2.95.64a20.24,20.24,0,0,1,4.23,1.78,5.16,5.16,0,0,1,1.45,1.81l3.56,0,6.15,2.7s2.39,1.59,3.67,1.36,4.53-3,5.34-4,2.23-6,2.23-6,.5-4.76.36-5.23,2.28-3,2.7-5.84-.53-4.59.14-6a10.12,10.12,0,0,1,3.39-4.26c1.47-.83,2.39-2.95,3.06-4.34a21.8,21.8,0,0,0,1.92-5,31.59,31.59,0,0,0,0-5.62c-.25-.95-.7-6.34-.7-6.34s-3.62-4.84-4.09-5.17-2.25-1.86-2.25-1.86l.14-3.64-1.81-4.53a10.6,10.6,0,0,1,0-2.67,58.13,58.13,0,0,0,2-7.68c.08-1.28.06-6.87.06-6.87a11.89,11.89,0,0,1-2.23.53,8.68,8.68,0,0,1-2.17-.39c-.33-.14-3.31-.81-4.26-1.11s-9.4-8.49-10.18-10.32l-3.53-1.84-.83-1.75h-3.39l-3.17-2.78-.58-3.26S279.09,187.3,279,187s-8.82-1.84-10.43-3.09l-3.76-2.64a25.1,25.1,0,0,0-2.53-3.23c-.95-.86-2.56-3.12-3.17-3.51s-6.32-5.65-6.32-5.65-7.07-4.31-7.79-4.87-4.73-2.84-5.43-3.56-6.62-4.65-7-5.09-5.34-4.34-5.34-4.34a39.22,39.22,0,0,0-.89-5.43A41.36,41.36,0,0,1,224.5,141l-2-1.64-6.32-2.45s-4.45-2.14-5-2.53a27,27,0,0,0-4.06-2.06c-2.23-1-5.23-3-5.12-3.67s3.39-.22,4.23-1.11,4.23-2.56,4.56-3.62,2.67-3,4.06-3.39a9.46,9.46,0,0,0,3.45-2.39,13.88,13.88,0,0,1,2.62-2.56c1.5-1.11,6.84-3.06,7.07-3.28s1.61-2.95,1.61-2.95,4.06-.28,5.4-1.39,4.23-2.62,4.9-3.89,6.12-6.07,6.45-6.9a6.92,6.92,0,0,0,.61-3c-.11-.95-.45-2.84-1.45-3.73a5.18,5.18,0,0,1-1.34-1.72s-11.13,8.18-12.74,8.68l-2.56-2.73s-7.07-3.51-8.74-5.51c0,0,1.5-3.56,2.56-4.62a39.55,39.55,0,0,1,3.17-3.28c.72-.5,2.5-1.67,3.45-1.67s8.12-.33,9.51-1l1-10.63,2.5.89,6.23-3.45s9.51-.56,12-.67a15.57,15.57,0,0,0,5-1.45c.22,0,.67-5.12.67-5.12l-3.89-5.4s8.4-9.46,10.07-10.46,7.79-8.12,8.51-8.74,2.5-4.45,2.5-4.45L281,27.18l-3.17-4.56a32.19,32.19,0,0,1-.67-4.73c.17-.5-4.9-7.68-4.9-7.68A10.34,10.34,0,0,0,268,7.49c-2.11-.5-13.08,0-13.08,0a8.66,8.66,0,0,1-6.23,2.06L243,16.31s-3.84-2.23-4.51-2.78a12.65,12.65,0,0,0-4.09-2,13.85,13.85,0,0,1-3.84-1c-.71-.38-3.15-.86-3.82-.5,0,0,.17,4.07.25,5.11s1.13,4.92,1.21,5.49A6,6,0,0,0,230.16,23l1.54,2s1.5,3.67,1.79,4.53,2.52,5,2.78,5.86a18.12,18.12,0,0,0,.77,1.92l0,1.77-3.09,2.44-3.15-.75-2.09-4-.25-.33-11.62-.06,0,2.17-2.15,1.54a22.85,22.85,0,0,0-.08,4.28c.25.69,1,5.32,1.09,6.13a17.39,17.39,0,0,1-.1,4.53,2.32,2.32,0,0,0,.79,2.5A2.94,2.94,0,0,1,217.51,60a6.29,6.29,0,0,1,.4,2.52c0,1.63-.19,3.3-.25,3.82a50.15,50.15,0,0,1-1.19,5.55l-.42.48a9,9,0,0,0-2.52,1.69c-.4.67-4.49,5.15-4.49,5.15s-2.86-5.84-2.9-6.34-.58-7.34-.88-8-5.51-4.47-6.22-5-4.67-4.76-4.76-5.38-5.22-4.55-5.8-4.88a4.87,4.87,0,0,1-1.17-1.13l-3.38.29-1.17,1.38.25,3.3s5.8,3.55,6.51,5.3l1.92,2s1.92,3.42,2.25,4,.71,1.5.71,1.5l.42,5.43-.5,5.17-1,3a2.46,2.46,0,0,1-2.07-.29s-2-1.5-2-2.09l-2.06.18s-1.45,1.7-1.49,2.87,1,2.42,1,2.84-1,.7-1.74.43a6.29,6.29,0,0,0-2.82-.89c-1.82-.18-6.55-.28-6.55-.28S170.24,86,169,86.33s-3.8,1.47-4.94,1.7c0,0-2.66,2-5.08,1.92a12,12,0,0,1-5.22-1.42c-.92-.5-6.3-3.3-7.05-3.92S141,81.85,140,80.89A19.41,19.41,0,0,0,135.32,78s-1.21,1.71-1.59,1.75a7.46,7.46,0,0,1-1.71-.46l-1.54-4.47-1.67-1.25L123.68,77l-4.47.33-.38-2.3-2.63.08-2.38,1.63-4.17-3.3s-2.63.46-3.92-.38-3-2.42-3-2.84-2.55-3.38-2.55-3.38l-2.09,0-3,1.67-1.88-.13s-2.75-3-3.3-3.76A64.47,64.47,0,0,1,87,57.9c-.33-1-3.09-8.39-3.17-8.64l-.71-2.09L79,47s-1.79,2-1.54,3l-2.13,6.64s-.5,6.34,1.46,10.39c0,0,3.42,3.42,3.59,3.42s.92.83,1,3-.46,10.89-.46,10.89a27.84,27.84,0,0,1-1,5.93C79,93.2,77.4,100.8,77,102.18s-1.42,4.34-1.42,4.34Z"/><path class="cls-2" d="M81.95,344.21a1.46,1.46,0,0,1-.89-.35,34.79,34.79,0,0,1-3.69-5.37c-.45-.81-1-2-1.47-3.18a26.63,26.63,0,0,0-1.28-2.74c-.25-.38-.58-1-1-1.66a20.2,20.2,0,0,0-1.91-3.07c-.61-.53-4.46-4.44-8.7-8.73l-2.51-2.54c-.49-.48-4.82-4.72-5.29-5.46-.14-.16-.78-.72-1.58-1.38l-.16,1.12-2.79,2-3.08-2.59.16-4.39a23,23,0,0,1,.51-2.67c.1-.31.25-1.2.37-1.95l-.49-.75c-.76-.1-2-.27-2.84-.41a3.37,3.37,0,0,1-2.53-2.51,16.74,16.74,0,0,1-1.32-5.46,11.51,11.51,0,0,1-.49-4.56c0-.37,0-.82,0-1a10.69,10.69,0,0,1,.19-3.26c.08-.6.18-1.42.17-1.63a21.94,21.94,0,0,0-.59-2.17,20.25,20.25,0,0,1-.6-2.25,33.32,33.32,0,0,0-1.76-4.55l-.17-.4c-.1-.23-.55-1-.92-1.66a15,15,0,0,1-1.78-3.6,3.61,3.61,0,0,0-.53-1.25,42.27,42.27,0,0,0-3.3-2.69c-1.21-.8-1.56-2.43-1.79-3.51,0-.14-.05-.26-.08-.36a30.43,30.43,0,0,1-.08-5,4.41,4.41,0,0,1,.88-2.84l.08-.12a1.24,1.24,0,0,0-.14.71c-.13-1.56,3.4-3.66,3.44-3.68a5.94,5.94,0,0,0,1.09-1.57l.35-.69.77-.08a25.33,25.33,0,0,1,2.94-.11,13.19,13.19,0,0,0,2.58-.39c.46-.1.87-.19,1.19-.24a5.68,5.68,0,0,0,.8-.16,10.32,10.32,0,0,0,.24-1.24l-.38-1.07a7.89,7.89,0,0,1-1.08-2.43l0-.2-.69-5.39L43.72,233a5.5,5.5,0,0,1,2.71-1.22l.8-.15,2.25,2.58c.6-.66,2.07-2.34,2.38-2.72.33-.55.72-.65,4-1.55l.54-.15a18.51,18.51,0,0,0,3.49-1.26,5.43,5.43,0,0,0,.19-2.21,10.86,10.86,0,0,1-.61-1.09c-.08-.16-.77-1.27-1.31-2.17a42.46,42.46,0,0,1-2.35-4c-.1-.21-.87-1.56-1.49-2.64A43,43,0,0,1,52,212.1c-.23-.38-1-1.48-1.65-2.3a18.9,18.9,0,0,1-2.16-3.18c-.14-.31-1.18-2.09-1.87-3.26-1.13-1.92-1.6-2.73-1.74-3.07-.26-.59-2.8-4.83-3.19-5.32-.11-.12-.44-.49-2-3.92l-4.29.48-4-2.73c-3.12-3.21-3.21-3.86-3.27-4.25A42.74,42.74,0,0,1,28,180c0-1,.1-2.24.09-2.46a69,69,0,0,1,.91-7.18c.2-.84.75-7.58.75-8.81,0-.45.06-1.43.16-3,.11-1.78.32-5.1.25-5.69s0-1.43.63-4.6a41.54,41.54,0,0,0,.88-5.41,40.5,40.5,0,0,1,1.5-7.51c.3-1.17.58-2.28.7-2.89.38-2.06,2.79-9.94,2.89-10.28l0-.14c1-2.32,2.5-6,2.67-6.45.26-.73,5.86-14,6.5-15.56l.22-.53.53-.23c.49-.21,4.8-2.06,5.35-2.27a6.89,6.89,0,0,1,4.89.86c.26.21,1.66,1,2.94,1.63a20.7,20.7,0,0,1,3.88.68c.51.12,1.15.26,1.31.28.79.09,4,.94,5,1.19l.2.05,4.49,2.77c.31-.93.68-2.07.89-2.77.16-.53.56-2.26,1-4.1.62-2.7,1.38-6.06,1.9-7.83a26.65,26.65,0,0,0,.94-5.58c0-.11.5-8.71.46-10.8a4.23,4.23,0,0,0-.36-1.87A42.54,42.54,0,0,1,75.77,68l-.17-.17-.1-.21c-2.11-4.34-1.62-10.85-1.6-11.12l.06-.32,2-6.36c0-1.36,1.16-2.92,1.92-3.78l.45-.52,5.82.29.31.91.71,2.1.75,2c1.16,3.12,2.21,6,2.42,6.62a66.93,66.93,0,0,0,2.75,6.33c.31.45,1.74,2,2.78,3.18l.9.06,3-1.65,3.1.06.41.48c2.18,2.53,2.71,3.42,2.84,3.91a12,12,0,0,0,2.36,2,5.58,5.58,0,0,0,2.91.17l.62-.11,3.85,3,1.86-1.27,4.29-.14.37,2.24,2.8-.21,5.66-3.77,2.82,2.11,1.46,4.22.2.06c.24-.27.56-.68.82-1.06l.46-.66.8.06c1.19.09,4.69,2.56,5.48,3.29a30,30,0,0,0,3.74,2.06,19,19,0,0,1,2.92,1.61c.55.44,4.49,2.53,5.79,3.21l1,.55A10.53,10.53,0,0,0,159,88.53a7.94,7.94,0,0,0,4.17-1.63l.26-.2.32-.06a19.43,19.43,0,0,0,2.28-.79,23.32,23.32,0,0,1,2.6-.9,48.05,48.05,0,0,0,6.13-3.45l.36-.23h.43c.2,0,4.81.1,6.66.28a8.87,8.87,0,0,1,2.29.53,4.2,4.2,0,0,1-.27-1.55A7.33,7.33,0,0,1,186,76.82l.38-.44,4.14-.36,0,1.21a11.43,11.43,0,0,0,1.47,1.28.48.48,0,0,0,.19.09l.68-2,.47-4.88L193,66.68c-.13-.28-.36-.79-.57-1.18-.29-.54-1.78-3.21-2.16-3.87l-2-2.11-.1-.24c-.31-.72-3.08-2.88-5.94-4.62l-.62-.38-.35-4.6,1.92-2.27L188,47l.47.64a3.46,3.46,0,0,0,.73.74c.06,0,6.27,4.26,6.5,5.92a1,1,0,0,0-.09-.31,43.5,43.5,0,0,0,4.34,4.79l1.16.89c4.38,3.32,5.17,4,5.46,4.69.14.32.37.84,1,8.3v0c.17.49,1,2.2,1.86,4.07,1.43-1.59,2.7-3.05,2.92-3.38a7.49,7.49,0,0,1,2.85-2.1l.07-.08c.27-.91,1-4.48,1-5s.22-2.2.24-3.67a5.24,5.24,0,0,0-.27-1.93l-.09-.22,0-.26a1.81,1.81,0,0,0-.47-1.31,3.68,3.68,0,0,1-1.43-4.22,17.77,17.77,0,0,0,0-3.91c-.09-.92-.81-5.21-1-5.8a15.4,15.4,0,0,1,0-4.89l.06-.64,2.09-1.5,0-2.86,13.74.07.79,1.09,1.79,3.4,1.86.44,2-1.6,0-.78a17.63,17.63,0,0,1-.7-1.79c-.11-.34-.86-1.85-1.36-2.85-.76-1.53-1.24-2.5-1.4-3-.22-.63-1.23-3.15-1.69-4.27L229.15,24c-.7-.57-2.16-2-2.33-3.18,0-.2-.18-.77-.35-1.48a37.13,37.13,0,0,1-.87-4.11c-.08-1.06-.25-5-.25-5.17l0-.89.79-.42c1.35-.72,4.39.1,5.15.5a13.3,13.3,0,0,0,3.21.82c1.46,0,4.4,1.87,4.95,2.32.3.24,1.77,1.14,3.3,2l5.4-6.39.69,0A7.2,7.2,0,0,0,254,6.48l.38-.37.54,0c1.86-.08,11.27-.48,13.47,0a11.45,11.45,0,0,1,4.89,3.14l.12.15c5.07,7.19,5.32,8.1,5.13,8.78,0,.54.31,2.33.61,3.88L282,26.18l3.3,2.44-.49,1c-.71,1.54-2,4.23-2.87,4.94-.19.17-1.09,1.16-1.89,2-3,3.31-5.59,6.1-6.81,6.83-.87.52-5.11,5-9,9.34l3.54,4.9,0,.52c-.44,5.08-.54,6.27-1.8,6.4l-.19.08a14.05,14.05,0,0,1-5,1.37c-2.21.1-10,.55-11.68.65l-6.51,3.6-1.39-.49-.91,9.61-.72.35c-1.9.91-10.05,1.14-10.13,1.14a8.18,8.18,0,0,0-2.64,1.42,36.85,36.85,0,0,0-2.91,3.05,15.28,15.28,0,0,0-1.93,3.35,50.66,50.66,0,0,0,7.67,4.57l.23.11,2,2.14c2-1.19,7.08-4.76,11.59-8.08l1.48-1.08.68,1.7h0a4.1,4.1,0,0,0,1,1.19c1.26,1.12,1.74,3.13,1.91,4.62a7.85,7.85,0,0,1-.7,3.7c-.25.62-1,1.37-3.19,3.54a37.43,37.43,0,0,0-3.32,3.49c-.61,1.16-2.13,2.18-3.61,3.17-.64.43-1.24.83-1.63,1.16-1.28,1.06-4,1.49-5.4,1.64a11.63,11.63,0,0,1-1.51,2.61c-.28.28-.52.38-2.12,1a37.17,37.17,0,0,0-5.11,2.39,11.5,11.5,0,0,0-2.16,2.08l-.24.28a10.75,10.75,0,0,1-4.13,2.82,7.38,7.38,0,0,0-3.1,2.47c-.33,1-1.47,1.85-3.32,3a13.56,13.56,0,0,0-1.56,1.1,3.86,3.86,0,0,1-2.35,1,21,21,0,0,0,2.78,1.54,25.83,25.83,0,0,1,4.35,2.23c.34.23,2.67,1.4,4.65,2.35l6.47,2.51,2.7,2.21v.53c.19.66,1.26,3.45,1.61,4.17a26.42,26.42,0,0,1,1,5.3c1.67,1.32,4.63,3.69,5,4.11.19.17,1.57,1.12,2.67,1.88a44.84,44.84,0,0,1,4.36,3.19,37.92,37.92,0,0,0,3.26,2.13c1.07.66,1.69,1,2,1.29s4.27,2.71,7.67,4.78l.22.17c2.67,2.46,5.7,5.2,6.14,5.51a10.44,10.44,0,0,1,1.87,2,20.49,20.49,0,0,0,1.47,1.67,23.37,23.37,0,0,1,2.6,3.26l3.54,2.49c.86.67,5.42,1.73,7.37,2.18,2.79.65,3.14.73,3.47,1.34s2.83,3.43,4.51,5.4l.25.29.56,3.14,2.4,2.1h3.76l1,2.13,3.56,1.85.2.47c.58,1.31,8,8.64,9.41,9.56.5.15,1.51.4,2.33.6a17.6,17.6,0,0,1,1.94.52,8,8,0,0,0,1.62.28,11.12,11.12,0,0,0,1.78-.46l1.85-.6v1.94c0,.23,0,5.66-.06,7a55.87,55.87,0,0,1-2.09,8.07,13.35,13.35,0,0,0,.06,1.85l1.84,4.62L315,238.3c.66.56,1.4,1.18,1.63,1.34s.66.46,4.41,5.48l.24.33,0,.41c.21,2.59.52,5.58.65,6.1.38,1.43,0,6,0,6.09-.08,1-.69,2.65-2.06,5.49l-.15.32c-.73,1.54-1.74,3.65-3.49,4.64a8.91,8.91,0,0,0-2.81,3.63,4.08,4.08,0,0,0,0,1.82,14.29,14.29,0,0,1,0,3.79,13.44,13.44,0,0,1-2.28,5.18c-.13.21-.29.45-.39.62a47,47,0,0,1-.39,5.22l0,.24c-.35,1.22-1.57,5.28-2.47,6.44s-4.36,4.23-6.21,4.56c-1.63.28-3.81-1-4.59-1.51l-5.77-2.53-3.26,0a1.57,1.57,0,0,1-1.41-1,2.55,2.55,0,0,0-.85-1.06,18.94,18.94,0,0,0-3.82-1.58l-.58-.06c-1.38-.14-2.69-.28-3.22-1.27-.11-.21-.31-.62-.5-1a7.19,7.19,0,0,0-.23,1.24,32.32,32.32,0,0,0,.86,3.47,22,22,0,0,0,1.52,3,9.25,9.25,0,0,1,1,1.79c.2.44.51,1.09.62,1.26s.41.48,1.92,4c.47,1.09.72,7,.72,7.09l0,1.67c0,1.58.11,4.23.16,4.7,0,.24.05.82.09,1.52.06,1.05.17,3,.24,3.37a3.75,3.75,0,0,1-.24,2.09l-.1.24-2.72,2.94-3,1.41h-.29s-2.11.08-4.32.11a2,2,0,0,0-1.83.91,9.55,9.55,0,0,1-1.09,1c-2.25,1.75-8.33-.47-8.39-.49-.4-.16-1.48-.59-3.92-6.13l-.17-.39.07-.42c.19-1.16.4-2.62.4-2.92a5.33,5.33,0,0,0-.15-.64l0,0c-.51.39-1.33,1-1.64,1.29a4.25,4.25,0,0,0-.32,1.4,21.49,21.49,0,0,1,.3,3.65l0,1.5-1.5-.06c-.27,0-2.7-.11-3.8-.31-.9-.16-4.16-2.23-9.71-6.14l-.17-.12-3.15-4,.86-4.13.17-.24a29.57,29.57,0,0,0,1.72-2.68,13.23,13.23,0,0,1,3.23-3.18l.85-4.7-1-2.53c-.76-2.14-1.61-4.48-1.88-5.16-.51-.52-1.71-1.8-4.84-5.17l-.15-.16-2-4.16.69-.7a29.25,29.25,0,0,0,2.24-2.48c.13-.24.46-.84,6.59-5.69l.16-.12,5.51-2.26.55-.56-.94-1.15-.07-1.94a3.86,3.86,0,0,1,.9-3.29,16.88,16.88,0,0,0,1.69-3.76l-1.52-1.52-3.64.31c-4.52.38-5.25.44-5.59-.19a24.63,24.63,0,0,0-2.39-1.22c-1.3-.6-5,.15-6.6.48a15.14,15.14,0,0,1-1.59.28,14.92,14.92,0,0,0-4,3c-.73,1.57-5.16,4.54-5.9,5a36.53,36.53,0,0,0-4.49,3.9c-1.42,1.7-7.21,4.57-9,5.42l-.22.11-4.11.44-3.34,2,.25-2.75a15.92,15.92,0,0,0-.69-1.9l-4.33-7.32-3.27.34-9.32-4.33-2.16-2.16-2.62-1.18-1.89.88a12.07,12.07,0,0,1-1.56,4.41,23.11,23.11,0,0,1-1.55,1.86,28.08,28.08,0,0,0-2.36,2.9c-.14.45-.65,1.5-1.62,3.47-.8,1.63-1.71,3.47-2.24,4.72-1.63,3.86-2.22,5.11-3.55,5.11h0a1.6,1.6,0,0,1-1.44-1c-.22-.29-1.2-1.33-5.61-4.92l-.43-.35a5.91,5.91,0,0,1-1.22-.47,60.13,60.13,0,0,0-8.87-3c-.49-.08-.68,0-.7,0a1.17,1.17,0,0,0,0,.79,28.18,28.18,0,0,0,2.64,4.87l.17.26,0,.31c.46,3.36.31,3.71-.18,4.2a10.09,10.09,0,0,1-1.06.8c-1,.7-3.91,2.83-4.35,3.35-.17.29-1,2.33-1.51,3.54-.39,1-.75,1.82-1,2.29-.1.21-.21.48-.33.78-.93,2.22-1.51,3.48-2.74,3.62a1.65,1.65,0,0,1-1.54-.71,7.84,7.84,0,0,1-.86-2,7.85,7.85,0,0,0-.61-1.55c-.73-.61-1-1.9-1.49-4.69a19,19,0,0,0-.38-1.9,26.83,26.83,0,0,1-.7-5.68l0-.66c-.07.42-.16.87-.25,1.34,0,.25-.09.46-.12.63s-.07,1.67-.08,2.68a36.75,36.75,0,0,1-.17,3.88,33,33,0,0,0,.46,3.62,6.93,6.93,0,0,1,.23,2.53l0,.2a8,8,0,0,1-.78,2.35c-.18.36-.87,2.61-1.28,3.95-.52,1.7-.75,2.42-.89,2.74s-.62,2-1,3.23c-.64,2.19-.94,3.19-1.1,3.57a15.67,15.67,0,0,0-.28,1.86,13.1,13.1,0,0,1-.22,1.5c0,.53.15,2.77.36,4.59a6.75,6.75,0,0,0,.72,3,1.46,1.46,0,0,1,.08,1.55l-.41.72h-.84c-2.09,0-8.95,0-11-.35a15.34,15.34,0,0,0-3.76-.06c-.58,0-1.13.08-1.63.08a3,3,0,0,0-1.34.21,7.89,7.89,0,0,1-.9.29c-1.09.27-3.48.11-7-.18l-.42,0c-1.7-.14-2.1.46-2.1.46a19.65,19.65,0,0,1-3.29,4.59A49,49,0,0,1,90.77,336a41.64,41.64,0,0,0-3.5,3.57C84.17,343.07,82.88,344.21,81.95,344.21ZM51.57,304.4l1.93,1.53c3.68,2.92,4,3.47,4.14,3.65.33.44,3.4,3.51,4.87,4.95l2.55,2.58c2.78,2.82,8,8.08,8.55,8.59a16.21,16.21,0,0,1,2.52,3.83c.33.61.65,1.18.84,1.46a24.51,24.51,0,0,1,1.52,3.19c.47,1.1,1,2.24,1.35,2.93.59,1.07,1.65,2.68,2.35,3.68.69-.66,1.74-1.75,2.94-3.1a39.92,39.92,0,0,1,4-4c.44-.31,2.31-1.79,3.59-3A18,18,0,0,0,95.37,327c.08-.21,1-2.48,4.93-2.16l.42,0a43,43,0,0,0,6.09.25,5.27,5.27,0,0,0,.6-.19,5.7,5.7,0,0,1,2.33-.39c.43,0,.91,0,1.43-.07a17.84,17.84,0,0,1,4.45.09,81.37,81.37,0,0,0,8.42.31,12.42,12.42,0,0,1-.31-2.21c-.53-4.67-.35-5.29-.28-5.52s.1-.72.15-1.13a10.62,10.62,0,0,1,.5-2.68c.12-.3.62-2,1-3.23.64-2.19.94-3.2,1.11-3.57s.47-1.45.78-2.43a31.75,31.75,0,0,1,1.56-4.57,6.9,6.9,0,0,0,.44-1.49l0-.1c0-.3-.14-1-.24-1.6a18.18,18.18,0,0,1-.45-4.55c.07-.41.1-2.24.13-3.45,0-1.84.05-2.68.12-3.09,0-.19.08-.45.14-.73a10.91,10.91,0,0,0,.31-2.24v-.09l0-1.3.75-.38a3.68,3.68,0,0,0,.81-.55,1.53,1.53,0,0,1,1.65-.71c1.55.32,2.17,2.93,2.23,3.42,0,.27.07.83.12,1.53a41,41,0,0,0,.52,4.86,15,15,0,0,1,.53,2.45,20.24,20.24,0,0,0,.69,3.15,4.82,4.82,0,0,1,1,1.85l.11-.27c.14-.32.26-.62.37-.86.2-.45.55-1.29.93-2.2a43.08,43.08,0,0,1,1.77-4c.37-.6,1.55-1.55,5.05-4.09l.33-.24c0-.46-.11-1.15-.19-1.78-.77-1.23-2.58-4.19-2.86-5.55a3.65,3.65,0,0,1,.75-3.32,3.41,3.41,0,0,1,3.19-.88,60.64,60.64,0,0,1,9.71,3.25,3,3,0,0,0,.68.27,2.38,2.38,0,0,1,1.06.54l.43.35c2.71,2.21,4.25,3.54,5.15,4.41.39-.83.83-1.87,1.1-2.51.56-1.32,1.49-3.21,2.31-4.87.61-1.24,1.38-2.79,1.48-3.13.24-.76,1.11-1.81,2.91-3.86.55-.63,1.17-1.33,1.33-1.57a8.72,8.72,0,0,0,1.1-3.32l-.43-1.21,1.18-.47,3.93-1.83,4.28,1.93,2.18,2.18,8.15,3.79,4.3-.44L203,276q.26.6.45,1.12l4.08-.44c3.35-1.63,7.23-3.8,7.81-4.57l.13-.15a39.64,39.64,0,0,1,5.13-4.4,25.72,25.72,0,0,0,4.74-3.71c.65-1.38,4.69-4.49,6.33-4.61.17,0,.74-.13,1.23-.23,3.14-.64,6.38-1.19,8.36-.27a24.16,24.16,0,0,1,2.81,1.46c1.34-.09,5.42-.44,8-.67l.66-.06,3.69,3.69-.26.82c-.33,1-1.47,4.41-2.55,5.61-.06.07-.33.48-.24.75l.06.18.05,1.35,1.94,2.39L252.73,277l-5.67,2.33c-2.47,2-5.3,4.3-5.78,4.83a19.45,19.45,0,0,1-1.95,2.27l.93,2c1.65,1.78,4.17,4.48,4.68,5,.41.29.61.85,2.47,6.11l1.23,3.24-1.19,6.57-.45.33a17.33,17.33,0,0,0-2.84,2.51A29,29,0,0,1,242.4,315l-.47,2.26,2.07,2.6a100.25,100.25,0,0,0,8.48,5.56c.43.07,1.14.13,1.82.18a10.37,10.37,0,0,0-.14-1.43,6.24,6.24,0,0,1,.56-3.52c.23-.49.67-.85,2.43-2.18.41-.31,1-.73,1.17-.9l.5-.75,1,.26c1.55.44,2,4.16,2,4.19a24.73,24.73,0,0,1-.37,3.05,24.42,24.42,0,0,0,2.35,4.31c1.39.51,4.74,1.2,5.48.81a7.31,7.31,0,0,0,.75-.72,4.78,4.78,0,0,1,3.85-1.79c1.69,0,3.31-.07,4-.09l2-.93,2-2.11a.9.9,0,0,0,0-.23,37.2,37.2,0,0,1-.29-3.8c0-.66-.07-1.21-.09-1.43,0-.51-.1-2.43-.17-4.88l0-1.65a59.94,59.94,0,0,0-.52-6.13,31.86,31.86,0,0,0-1.55-3.33,9.6,9.6,0,0,1-.93-1.77c-.2-.43-.5-1.08-.61-1.25a20.62,20.62,0,0,1-2-3.91,29.94,29.94,0,0,1-1-4.15,10.65,10.65,0,0,1,.65-3.14c.32-.63.75-.79,2.79-1.35l1.16-.32.5,1.09c.16.34.53,1.15.78,1.66.34.07.89.13,1.19.16a6.43,6.43,0,0,1,1.09.16,21.65,21.65,0,0,1,4.64,2,5.18,5.18,0,0,1,1.46,1.56l2.75,0h.29l6.63,2.93a6.76,6.76,0,0,0,2.65,1.15,16.67,16.67,0,0,0,4.47-3.51,30.56,30.56,0,0,0,1.94-5.35c.2-1.9.39-4.16.37-4.69-.16-.73.22-1.32.83-2.26a11.17,11.17,0,0,0,1.86-4.05,11.71,11.71,0,0,0,0-3.09,6,6,0,0,1,.28-3.32c.51-1.08,1.91-3.72,4-4.89,1-.55,1.79-2.26,2.33-3.39l.16-.33c1.55-3.22,1.76-4.2,1.78-4.48a32.66,32.66,0,0,0,0-5.15c-.24-.9-.57-4.56-.71-6.18-1.49-2-3.19-4.18-3.59-4.59-.56-.41-2-1.65-2.29-1.9l-.52-.45.15-4-1.77-4.44,0-.2c-.25-2.53,0-3.15.14-3.45a62.59,62.59,0,0,0,1.86-7.13c0-.72.06-3.08.06-4.93a4.52,4.52,0,0,1-.81.1A9.75,9.75,0,0,1,309,215l-1.52-.38c-1-.25-2.07-.51-2.62-.69-1.46-.47-9-8-10.75-10.6l-3.6-1.87-.65-1.37h-3l-3.95-3.46-.6-3.37c-2.64-3.11-3.73-4.44-4.2-5-.43-.12-1.26-.31-2-.48-4-.94-7.21-1.73-8.41-2.66l-3.92-2.76-.15-.22a22.56,22.56,0,0,0-2.31-3,21.63,21.63,0,0,1-1.75-1.95,16.53,16.53,0,0,0-1.26-1.43c-.59-.37-4.21-3.68-6.38-5.69-1.42-.87-7.07-4.32-7.8-4.88-.22-.17-1-.67-1.76-1.12a25.85,25.85,0,0,1-3.82-2.58c-.35-.34-2.59-1.9-3.93-2.83a29.21,29.21,0,0,1-3.12-2.27c-.3-.3-2.88-2.37-5.19-4.2l-.47-.37-.06-.59a39.52,39.52,0,0,0-.77-5s-1.24-2.87-1.71-4.42l-1.48-1.22-6.21-2.41c-2.09-1-4.7-2.29-5.21-2.69a25.82,25.82,0,0,0-3.77-1.88c-.65-.29-6.32-2.91-5.94-5.2.23-1.4,1.69-1.53,3-1.64a7.46,7.46,0,0,0,1.68-.26,13.16,13.16,0,0,1,2-1.48,13.51,13.51,0,0,0,2.19-1.62c.58-1.61,3.32-3.78,5-4.25a8.17,8.17,0,0,0,2.76-2l.19-.22a14.42,14.42,0,0,1,2.65-2.54,33.49,33.49,0,0,1,5.72-2.73l1.21-.51c.28-.49.86-1.58,1.33-2.5l.36-.71.8-.06c1.74-.12,4-.58,4.59-1.07s1.17-.87,1.87-1.34a11.7,11.7,0,0,0,2.67-2.13,25.56,25.56,0,0,1,3.85-4.2c1-.95,2.28-2.24,2.58-2.65a5.48,5.48,0,0,0,.49-2.23,5.05,5.05,0,0,0-1-2.83,7.67,7.67,0,0,1-.75-.77c-3.47,2.53-10.46,7.55-12,8l-.85.26-3-3.19c-1.4-.7-7.28-3.73-9-5.76l-.55-.66.34-.79c.27-.64,1.67-3.88,2.86-5.07A33.51,33.51,0,0,1,225.12,80c2.78-1.92,3.89-1.92,4.26-1.92a69.32,69.32,0,0,0,8.19-.67L238.65,66l3.62,1.29,6-3.3.32,0c.1,0,9.55-.56,12-.67a11.2,11.2,0,0,0,3.87-1.07c.12-.8.28-2.29.41-3.68l-4.25-5.89.75-.85c1.43-1.61,8.64-9.68,10.4-10.73,1-.57,4.48-4.45,6.17-6.31,1.29-1.41,1.87-2,2.16-2.29a20.47,20.47,0,0,0,1.63-2.93l-1.81-1.33-3.47-5-.06-.29a28.22,28.22,0,0,1-.71-4.86c-.47-.94-2.64-4.2-4.56-6.93a8.66,8.66,0,0,0-3.4-2.25c-1.35-.32-8-.17-12.2,0A10.31,10.31,0,0,1,249.39,11l-6.06,7.17-1-.6c-.66-.38-4-2.32-4.69-2.9a13.32,13.32,0,0,0-3.27-1.69,15,15,0,0,1-4.43-1.14,7,7,0,0,0-1.68-.41c.06,1.27.14,3,.19,3.65s.52,2.5.8,3.66c.21.88.33,1.36.38,1.64A6.1,6.1,0,0,0,231,21.88l.17.12,1.79,2.32.07.18c.06.15,1.52,3.72,1.82,4.61.11.32.77,1.65,1.26,2.63A31.77,31.77,0,0,1,237.63,35a16.4,16.4,0,0,0,.7,1.73l.14.3-.07,2.77-4.15,3.28L229.81,42l-2.16-4.11-9.44-.05v1.48L216,40.93a20.29,20.29,0,0,0-.08,3.1c.3.82,1.06,5.64,1.14,6.39,0,0,.33,3.73-.18,5.15a1.06,1.06,0,0,0,.2.82,4.16,4.16,0,0,1,1.84,3.32,8.32,8.32,0,0,1,.42,2.87c0,1.59-.18,3.29-.26,4,0,0-.87,5.35-1.42,6.17l-.11.14-.61.7-.26.13a9.26,9.26,0,0,0-2,1.2c-.38.65-3.35,3.94-4.61,5.32l-1.4,1.54-.92-1.87c-3-6.08-3-6.56-3-6.85v-.17c-.43-5.28-.66-6.87-.75-7.32-.7-.71-3.48-2.81-4.57-3.63-.6-.46-1.07-.81-1.25-1s-4.27-4.05-5.12-5.86a46.21,46.21,0,0,0-5.25-4.27,4.87,4.87,0,0,1-1.07-.88l-2.07.18-.41.49.15,2c2,1.24,5.37,3.56,6.33,5.31l2,2.17s1.93,3.44,2.27,4.07.75,1.57.76,1.61l.09.22.44,5.78-.58,5.63-1.28,3.69-.69.21a3.82,3.82,0,0,1-3.41-.57A11.08,11.08,0,0,1,188.42,79l-.56,0a4.37,4.37,0,0,0-.81,1.56,3.73,3.73,0,0,0,.52,1.38,3,3,0,0,1,.47,1.41,1.77,1.77,0,0,1-.81,1.46,3.31,3.31,0,0,1-2.85.29l-.32-.17h0a5.19,5.19,0,0,0-2.15-.64c-1.43-.14-4.83-.23-6-.26-1.59,1-5.33,3.27-6.62,3.58a22.52,22.52,0,0,0-2.24.78,25.29,25.29,0,0,1-2.43.85,10.52,10.52,0,0,1-5.72,2A13.42,13.42,0,0,1,153,89.78l-1-.54a62.7,62.7,0,0,1-6.27-3.54c-.25-.19-1.48-.8-2.37-1.25a23.51,23.51,0,0,1-4.4-2.51,22.73,22.73,0,0,0-3.22-2.21c-1.06,1.31-1.52,1.36-1.88,1.4a5.11,5.11,0,0,1-2.37-.54l-.62-.23-1.62-4.69-.52-.39-4.61,3.07-6.13.46-.38-2.35-1,0-2.9,2-4.52-3.57a7.1,7.1,0,0,1-4.29-.67s-3-2-3.54-3.61a27.77,27.77,0,0,0-1.87-2.4l-1.07,0-3,1.69-2.86-.19-.38-.41c-.47-.51-2.85-3.08-3.43-3.92a61.61,61.61,0,0,1-3.1-7c-.22-.65-1.58-4.33-2.39-6.53l-.78-2.11-.4-1.17-2.49-.12a5.51,5.51,0,0,0-.79,1.33l.07.27-2.2,6.86c-.06.95-.26,6,1.24,9.3,1.25,1.24,2.67,2.63,3.1,3,1,.51,1.64,2.1,1.68,4.22s-.44,10.64-.46,11a29,29,0,0,1-1.06,6.25c-.5,1.68-1.25,5-1.86,7.65-.47,2-.83,3.67-1,4.29-.42,1.38-1.39,4.26-1.43,4.38l-.45,1.32-2.29-.78-5.05-3.12c-1.83-.49-4-1-4.35-1.06s-.77-.14-1.64-.34a27.23,27.23,0,0,0-3.15-.61l-.44.17-.56-.28a31.91,31.91,0,0,1-3.87-2.2A6.69,6.69,0,0,0,53,99.73c-.55.22-2.87,1.21-4.64,2-2.47,5.87-6,14.32-6.22,14.88s-2.34,5.68-2.7,6.53c-.7,2.29-2.5,8.34-2.79,9.9-.13.71-.41,1.8-.74,3.07a42.33,42.33,0,0,0-1.41,6.81,39.81,39.81,0,0,1-.94,6c-.26,1.29-.61,3-.62,3.53.12.65.07,2.06-.2,6.38-.08,1.25-.16,2.43-.16,2.81,0,1.21-.54,8.26-.83,9.47-.22.91-.81,5.69-.84,6.36,0,.25,0,.76-.09,2.74-.05,1.21-.14,3.15-.13,3.83a30.79,30.79,0,0,0,2.39,2.72l2.76,1.88,5.31-.6.42,1c.77,1.75,1.76,3.86,2,4.23a67.5,67.5,0,0,1,3.62,6c.12.26,1,1.68,1.57,2.72a39.61,39.61,0,0,1,2.09,3.72c.13.24,1.12,1.58,1.78,2.47,1.6,2.17,2,2.7,2.08,3.12s1.36,2.48,2.12,3.8c1.25,2.18,1.57,2.77,1.68,3.05s1.38,2.31,2.11,3.52c1.17,1.92,1.39,2.29,1.49,2.5s.36.65.59,1l.17.27,0,.32c.15,1.24.32,4.24-1.48,5.27a20.09,20.09,0,0,1-4.13,1.55l-.65.18c-.56.15-2.09.57-2.73.77-.84,1-2.75,3.1-2.76,3.12a12.3,12.3,0,0,1-1.09.76L49,238l-2.82-3.23a1.91,1.91,0,0,0-.46.21l-.93.86.49,3.83a5.53,5.53,0,0,0,.57,1.37l.24.23.09.29.69,1.94,0,.33c-.26,2.33-.7,2.85-.87,3.05a3.76,3.76,0,0,1-2.6,1.16c-.27,0-.62.12-1,.21a14,14,0,0,1-3.28.46c-.62,0-1.32,0-1.84,0a5.68,5.68,0,0,1-1.93,2.1,12.44,12.44,0,0,0-2,1.67A3.14,3.14,0,0,1,33,253a1.8,1.8,0,0,0-.42,1.07v.22a39.21,39.21,0,0,0,0,4.3c0,.11.06.26.1.43a5.1,5.1,0,0,0,.59,1.74A38.33,38.33,0,0,1,37.17,264a6.1,6.1,0,0,1,1.19,2.64c.1.32,1,1.85,1.45,2.67.56,1,.91,1.6,1.07,2l.16.39a33,33,0,0,1,2,5.23c0,.32.31,1.17.52,1.86a13.87,13.87,0,0,1,.71,2.91,16.76,16.76,0,0,1-.2,2.07,23.29,23.29,0,0,0-.23,2.33,6.93,6.93,0,0,1,.05,1.61,9.66,9.66,0,0,0,.28,3.41l.13.25,0,.28a17.12,17.12,0,0,0,.94,4.54l.24.29,0,.35c0,.23.22.53.31.55,1.14.2,3.33.47,3.35.47l.65.08,1.8,2.75-.08.53A27.24,27.24,0,0,1,51,304a20.84,20.84,0,0,0-.4,2.14l-.1,2.78.34.29h0Zm74.61,13.51v0Zm132.18-.39h0ZM129,297.77v0Zm7.17-3.19h0Zm151.88-1.5h0Zm-244.3-7.14v0Zm118.67-1.18h0Zm78.89-.69,0,.06Zm66.66-.47Zm2.75-.63h0Zm-82.78-18,0,0Zm-2.61-1.1,0,.05Zm17-1.78v0ZM33.42,251.75a1.63,1.63,0,0,1,0,.17A1.22,1.22,0,0,0,33.42,251.75Zm10.3-6.5h0ZM54.29,233a2.54,2.54,0,0,1-.21.29A1.41,1.41,0,0,0,54.29,233Zm258.9-4.35-.07.15A1,1,0,0,0,313.2,228.63Zm-7.32-17.36Zm-28.16-23.54.1.15ZM30.61,183.87Zm2.33-31.42Zm172.31-25.91h0Zm4.24-3.07h0Zm0-.11ZM55,100h0Zm46.41-29.33Zm-.09-.47a1.28,1.28,0,0,0,0,.32A1.36,1.36,0,0,1,101.36,70.21Zm2.72-.49ZM80.37,69h0Zm0,0h0Zm123.71-3.34ZM193,55.12Zm-.16-.45a1.13,1.13,0,0,0,.13.41A1.5,1.5,0,0,1,192.89,54.67Zm2.81-.38h0ZM78.83,49.8h0ZM229.62,20.44h0Zm48.89-2.34h0Zm-51.22-6.74Z"/></svg>