<svg id="Layer_1" data-name="Layer 1" xmlns="http://www.w3.org/2000/svg" viewBox="0 0 350 350"><defs><style>.cls-1{fill:#999;}.cls-2{fill:#f90;}</style></defs><title>M</title><path class="cls-1" d="M113.46,343.11l14.78-8.48s4-4.5,5.47-5.1l5.4-7.05,10.35,5.32,1.5-.68,2.32-8.7L157,313s1.72-1.65,2.47-1.2l1.28-1s1.5.3,2.1-.37l1.65.6.45-.6.68-2.93,1.57-1.5,3.68-13.8v-2.32l-1.72-3.9h.9l3.68-4.43,1-2.18,1.5-.9v-.68l1.58-.75s1.95-2.25,2.17-3.9c0,0,2.55-3.45,3.3-2.85l.9-1.5,1.95-.45s-1.35-6.53-.53-7.2l-1.28-1.12-.45-1.2v-.6s1.43.3,2.25-2.25l1.35-.53,3.9-3.22,5.85-2h1.43l1.35-1.27,3-5.33.9-.67,8.85,4.72,3.82,3.6,3.3,5.77,5,10.2,4.42,4.57,5.85-.82,9.6,2.4,11.92.3,1.8-1.05s.9.45.82-2.1-3.07-8.55-3.07-8.55l-.15-1.35-2.63-6.07-1.42-.83-2.1-2.17s-.15-2.25.83-3.08l2.92-5.55-.22-3.9-.45-.9.15-1.65-.6-.75s.08-4.5,7.73-7.2c0,0,5.32,0,6.3-.53s1.88-.82.6-2.78l1,.45,2-.83-.82-3.67-.6-1.87-2.92-4.12-2.1-4.73-.07-3.22,1.8-1.57,7.42-2.62,3.68-2,4.73-2.25,1.43-4.05-.75-.82-5.7-1.43-10.5-4.8-6.37-3.3-3.6-2.7-3.23-4.58.83-2.47,1.35-1.57,2.48-.6,1.72-3.23-.45-6.15-1.57-4.43-8.93-6.3-2.32-1.72-2.48-2.7-1.65-3.75,6.75-9.15-2.48-1.95-1.12.45s-.9.3-1.12-.82l-2-2.55-3.08-1-.67.67-6.83-.15-3.82-5.4-2.78-2.78-7.72-13.2-6-9.22-5-5.62a26.59,26.59,0,0,0,1.2-8.4l-8.78-4.72-4.95-2.25-3.3-5.48-.53-9.15a4,4,0,0,0-3,0l-1.87-4.28s-2.47-1.5-.9-6.67a17.51,17.51,0,0,0,3.45,0c.45-.23-.3-2.92-.3-2.92l1.8-4.58,1.72-5.55-.53-2H187s-1.72-1.2.53-2.77h1.13l2.7-.37,1.8-2.55,2.7-3.3.15-2.32,3.22-5.4-1.2-3.67L197.69,14l-4.05-1.8-4.12-.45-2.85,3.3-.9,2.85L183.89,19h-1.72l-.37-1.43L179.39,15l-4.57-2.78-.15-4.43-.75-.9-4.23.83L167,9.89l.15,1.05-.82-.3-.53.75-.75-.45-2.25.68a4.08,4.08,0,0,0,0-3.15l-2.62.3-1,.08-.9,1s-2,.23-2.32,1.05l-1.05-1.05-1.28.38-.22,1.65-1.35,1s-1.28,0-1.35.83l-1.87.67-2-1.87-3.15.38-2.78,2.55.22,2.1.83.38a7.5,7.5,0,0,1-.37,1.42l.67,1.5L141.89,22l.83,1.05-.22,1.35,1.42,2.4s-1,2.85,1.35,3.38l1.35,1.57-5.55,8.18-1.35-.3-2.7.83.15.45-.45.38,5.32,11-1.42,1.2-.9,3.22L139,59.39l-.45,2.1-6.22-2.85-5.32-2-2-1.12-3.45,1.2,1.28,9.9v.83l-1.28,1.65-.15,2.77-.75,1.88-.08,3.68-.3,2.25,1.2,3.9.3,1.58-1.8,3.22L119.09,91l1.35,6.08-.15,2L118,100.64s-4-.75-6.15.3-1.35,1.35-1.35,1.35-2.32-2.32-.9.45l-5.55-4.87-2.62,3.3-2.55,3.53-5.62,4.42s.3,2.48,3.15,7l-3.6,10.73v8.62l-1.35,2.78-.37,4.5,1.5,4.72-1.5,3.3.37,2.47,1.42,2.78,1.57,10.05L89.16,175l-5.25,8.36-1.57.6-3.82,9.82.6,8.7s1,1.2,3-.23l1,.3.67-.37s1.72.45,2.4-.82c0,0,1,.3,1.2-.15s2.7,9,2.7,9a9.2,9.2,0,0,0-.6,1.88,16.4,16.4,0,0,0,.3,1.88s.3,2.32-.22,3.15l.67.75V225l.52,1-.23,2.55,2.62,5.7.15,2.78-.6,3.6-2.17,1.13-2.17,9.67-2.85,4.88.75,2.85h.45l-3,6.3-.08,1-2.4-.37s-.6-.37-2.1,2.1-3.82,6.45-3.82,6.45l-.6,1.65-4.12,4.65-1.95,3.22-1.27,2.33v6.15l6.07,4.57.67,3.75,6.82.23,3,3.15,19,6.23,2.33,2.18-.37.75.52,2.63,6.08,7.5-1,4.35.9,1.57.15,2.7,2.1,1.65-1.42.07-.6,1.35.52,4.5Z"/><path class="cls-2" d="M112.78,345.14l-2.13-5-.59-5.09.7-1.58-.7-.55-.17-3-1-1.77,1-4.22L104,316.66l-.69-3.44.12-.24-1.32-1.24-19-6.24-2.85-3-7.39-.24-.78-4.33-6.2-4.67V286l1.45-2.64,2.13-3.48,3.95-4.45.62-1.63s2.33-4,3.84-6.47c1-1.69,1.88-2.54,2.78-2.75a1.77,1.77,0,0,1,.87,0l.88.14,2.47-5.19L84,256.05l3-5.19,2.27-10.11,2.13-1.1.46-2.75-.13-2.35-2.67-5.8.22-2.5-.49-.92v-6.94l-1-1.15.58-.91a6.85,6.85,0,0,0,0-2.15,14.3,14.3,0,0,1-.32-2.11,6.2,6.2,0,0,1,.53-2c-.71-2.7-1.51-5.56-2-7.1a3.73,3.73,0,0,1-2.56.65l-.78.43-.92-.28a3.37,3.37,0,0,1-4.28-.39l-.31-.36-.65-9.49,4.17-10.71,1.72-.66,5-8,5-8.42-1.46-9.32-1.43-2.78-.47-3.12,1.45-3.19-1.42-4.47.42-5,1.32-2.72v-8.53l3.46-10.32c-2.61-4.35-3-6.78-3-7.06l-.1-.79,6.1-4.79,2.43-3.36,3.59-4.52,4.83,4.24a1.71,1.71,0,0,1,1.51.17,9.74,9.74,0,0,1,1-.56c2-1,5.1-.7,6.42-.51l1.23-.86.08-1.07L117.62,91l1.05-3.25,1.55-2.77L120,84l-1.27-4.12.33-2.48.08-3.85.76-1.9.16-3L121.35,67v-.25l-1.41-11L125.07,54l2.48,1.38,5.32,2,4.62,2.11.08-.37,1.79-6.51.92-.77-5.33-11,.56-.47-.3-.91,4.45-1.36.78.17,4.4-6.48-.37-.43a3.16,3.16,0,0,1-1.76-1.47,4.37,4.37,0,0,1-.31-2.94L141,24.64l.21-1.24-.91-1.16.44-1.32-.67-1.49.16-.51.06-.2-.48-.22-.39-3.62,3.64-3.34,4.25-.51,1.87,1.73.48-.17a2.75,2.75,0,0,1,1.91-1.08l.54-.39.27-2,3-.87.74.74a6.14,6.14,0,0,1,1.49-.47l.94-1.1,1.56-.12,3.54-.41.45.86a4.41,4.41,0,0,1,.49,1.81l.7-.21.15.09.1-.14V9.3l.12-.1.19-.27.1,0,3.16-2.58,5.4-1.05,1.6,1.92.14,4.14,4.09,2.48,2.77,3,.19.71h.24l1.08-.65.83-2.62,3.53-4.08,5.08.55L199,13l.45,3.81L200.81,21l-3.38,5.66-.16,2.44-3,3.61-2.12,3-3,.41h1.53l.91,3.4-1.88,6-1.63,4.14c.63,2.46.47,3.59-.56,4.11-.24.12-.67.33-3,.22-.64,3,.55,4,.6,4l.38.23.13.38,1.39,3.16a5.74,5.74,0,0,1,2.75.38l.81.35.56,9.68L194.1,77l4.55,2.07,9.58,5.15,0,.81a27.94,27.94,0,0,1-1,8.1l4.55,5.2,6,9.22,7.67,13.1,2.8,2.83,3.41,4.82,5.51.12.86-.86,4.31,1.37,2.41,3,1.26-.5,4.2,3.31-7.08,9.59,1.23,2.78,2.22,2.43,2.22,1.64,9.26,6.54,1.79,5,.49,6.75-2.22,4.15-2.65.64-.87,1-.51,1.53,2.68,3.81,3.33,2.5,6.27,3.25,10.32,4.72,6,1.5,1.61,1.77-1.9,5.4-5.26,2.5-3.81,2.08L266.14,207l-1.1,1,.05,2.28,1.93,4.34,3,4.19.7,2.21,1.09,4.85-2.6,1.06a2.36,2.36,0,0,1-.08.58,3,3,0,0,1-1.73,1.81l-.17.09c-1,.56-4.17.69-6.72.69-5,1.83-6.2,4.37-6.47,5.39l.56.7-.16,1.82.4.8.26,4.58-3.24,6.14-.21.18a2.86,2.86,0,0,0-.33,1.41l1.57,1.63,1.66,1,2.9,6.7.15,1.31c.62,1.26,3,6.34,3.11,8.91,0,1.18-.06,2.63-1.11,3.3a1.8,1.8,0,0,1-.78.28l-1.78,1-12.64-.35L235,272.48l-6.29.89-5.08-5.25-5.12-10.4-3.15-5.51-3.53-3.33-7.86-4.2-2.93,5.19-1.92,1.81H197.4L192,253.54l-3.88,3.21-1,.38a4.39,4.39,0,0,1-1.7,2.14l2.25,2-1,.84a29.74,29.74,0,0,0,.75,6l.28,1.36-2.71.63-1.42,2.37-.68-.54a15.45,15.45,0,0,0-1.67,1.87,11.89,11.89,0,0,1-2.43,4.24l-.19.22-1,.49v.58l-1.81,1.08-.87,1.94L171.08,287l1.18,2.66,0,3-3.78,14.19-1.56,1.48-.65,2.8L165,312.78l-2-.72a4.15,4.15,0,0,1-1.87.28l-1.58,1.21-.5-.3a5.72,5.72,0,0,0-1,.72L154.59,319l-2.44,9.12-2.74,1.23-9.9-5.1-4.91,6.41-.35.15c-.68.29-3.12,2.69-5,4.74l-.15.17Zm.64-5.77.72,1.71,13.19-7.57a34.74,34.74,0,0,1,5.44-5.09l5.93-7.75,10.8,5.55.26-.12,2.21-8.28,4-5.83a5.39,5.39,0,0,1,3.08-1.67l1.3-1,.63.13a2.3,2.3,0,0,0,.82,0l.58-.65,1.34.49.57-2.48,1.59-1.52,3.52-13.23v-1.84l-2.48-5.62h2.41l3.13-3.76,1.08-2.4,1.19-.72V277l2.1-1a8.17,8.17,0,0,0,1.66-2.94l0-.36.22-.29c1.43-1.93,2.64-3.07,3.62-3.39l.82-1.36,1.2-.28a20.19,20.19,0,0,1-.5-5.68l-.85-.75-.67-1.77v-2.6l1.56.33c.14-.07.47-.38.75-1.27l.21-.64,1.76-.69,3.92-3.24,6.32-2.19H198l.78-.74,3-5.4,1.86-1.4,10,5.37,4,3.75,3.4,6,5,10.08,3.77,3.9,5.41-.76L244.9,272l11.37.29,1.56-.91a6,6,0,0,0,0-.77c0-1.63-1.82-5.75-2.93-8l-.11-.23-.15-1.39-2.35-5.45-1.19-.69-2.6-2.69,0-.52c0-.47-.11-2.74,1.09-4l2.64-5-.19-3.21-.5-1,.13-1.48-.56-.7v-.51c0-.22.19-5.52,8.67-8.51l.23-.08h.24a30.49,30.49,0,0,0,5.67-.38l.15-.08.2-.11a4.51,4.51,0,0,0-.31-.54l-2.7-4.13,4.9,2.26.34-.14-.55-2.44-.51-1.61-2.94-4.19-2.22-5-.1-4.17,2.5-2.19,7.57-2.68,3.57-2,4.27-2,.92-2.61-5.39-1.37-10.5-4.8-6.64-3.46-3.78-2.83-3.77-5.34,1.14-3.42,1.83-2.13,2.3-.56,1.23-2.3-.41-5.55-1.36-3.82-8.56-6-2.55-1.93-2.63-2.87L239.86,144l6.42-8.71-.75-.59-.36.15a2.24,2.24,0,0,1-2.94-1.49l-1.57-2-1.84-.58-.49.49-8.14-.18L226,125.25l-2.91-3-7.73-13.2L209.46,100,204,93.83l.26-.78A25.75,25.75,0,0,0,205.43,86l-8-4.33-5.27-2.39-3.71-6.15-.48-8.45a2,2,0,0,0-1,.15l-1.32.63-2.33-5.31c-.86-.8-2.57-3.11-1.09-8l.33-1.09,1.13.08c.64,0,1.38.08,2,.09-.07-.38-.17-.82-.28-1.23l-.13-.46,2-5,1.59-5.11-.14-.5h-2l-.37-.25a2.92,2.92,0,0,1-1.24-2.3,3.47,3.47,0,0,1,1.76-2.8l.37-.26h1.47l2-.28L192.09,31,194.5,28l.14-2.21,3.07-5.14-1.06-3.33L196.38,15l-3.11-1.38-3.17-.34-2.17,2.52-1,3.08-2.67,1.6h-3.21l-.56-2.14-2-2.22L173.42,13l-.15-4.57-3,.58-1.77,1.44.37,2.6-2-.74-.66.94-1.35-.81-4.58,1.37,1.22-2.8a3.27,3.27,0,0,0,.21-1l-1.82.19-.88,1-.56.06a4.35,4.35,0,0,0-1.22.32l-.69,1.9-1.68-1.68-.12.87-2.21,1.6h-.44l0,.44L148.53,16l-2.18-2-2,.24L142.4,16l.06.58.92.42v.91a4.67,4.67,0,0,1-.28,1.33l.68,1.52-.31.93.74.94L144,24.08l1.51,2.54-.23.63a2.08,2.08,0,0,0-.06,1.3s.08.14.38.2l.46.1,2.36,2.76-6.7,9.87-1.92-.43-1,.3-.32.26,5.32,10.94-1.94,1.63-1.53,5.57-.8,3.75-7.78-3.56-5.47-2-1.47-.82-1.76.61,1.14,8.94V68l-1.3,1.68-.14,2.57L122,74.07l-.08,3.58-.26,1.94,1.15,3.75.4,2.08-2,3.55-.67,2.12L121.87,97l-.22,2.83-3.29,2.3-.59-.11c-1.36-.26-4-.43-5.27.18h0l3.58,3.58-4-1.46,2.25,4.37-10-8.81-1.7,2.14-2.63,3.63-5.07,4a24.21,24.21,0,0,0,2.77,5.75L98,116l-3.74,11.14v8.72l-1.38,2.83-.33,4,1.58,5L92.58,151l.28,1.83,1.42,2.77L96,166.4l-5.59,9.33-5.52,8.79-1.43.55L79.95,194l.52,7.53a2.43,2.43,0,0,0,.81-.42l.57-.42,1.08.33.64-.36.55.14c.07,0,.67.1.79-.12l.55-1,.95.29.13-.25,1,.09c1.15.12,1.3.14,3.9,10.07l.12.46-.19.44a9.91,9.91,0,0,0-.49,1.41c0,.1.14.84.27,1.5l0,.11a10,10,0,0,1,0,3l.49.54v7.31l.56,1-.23,2.6,2.58,5.6.17,3.2L94,241.52l-2.22,1.15-2.08,9.25L87,256.47l.32,1.22h1.6l-3.85,8.09L84.91,268l-3.58-.56a7.38,7.38,0,0,0-1,1.38c-1.35,2.22-3.36,5.66-3.75,6.32L75.93,277l-4.22,4.76-1.88,3.11-1.07,2v5.08l6,4.48.57,3.17,6.26.21L84.69,303l18.93,6.21,3.33,3.11-.63,1.26.36,1.81,6.3,7.77-1.08,4.48.79,1.38.13,2.39,4.56,3.58-4.33.23-.09.2Z"/></svg>