<svg id="Layer_1" data-name="Layer 1" xmlns="http://www.w3.org/2000/svg" viewBox="0 0 350 350"><defs><style>.cls-1{fill:#999;}.cls-2{fill:#f90;}</style></defs><title>M</title><path class="cls-1" d="M275.5,284.14l60,26.89,3.1-1V284.14l5.17-8.27-5.17-26.37,2.07-6.2s-14.48-.52-10.86-17.06l-38.26-7.76,3.1-9.31-5.17-12.41L306,153.32l-21.2-38.78-8.27,1,.52-13.44L243.44,90.75l15-14.48s9.82-8.79-36.71-2.59l-8.79-2.07s2.07-16-8.79-17.58L190.7,108.33,168.47,93.86,154,112.47l24.82,8.79-11.38,9.82-24.3-12.93-8.79-16L54.19,48.36S26.79,38,11.28,39,21.1,49.91,21.1,49.91L64,69l45,32.06,29,20.17L125,132.64,120.38,128l-22.23,9.31L96.59,152.8,76.43,165.21l-2.07,11.38L66.6,170.9l6.72,25.34L63,199.34l-9.31,29L66.6,248.46S109,292.41,140,265l-4.65-17.58s23.78-1,29,4.65l14-11.38.52-9.82,7.24-5.69s13.44,16.55,20.17,17.06,34.13-29.47,34.13-29.47l22.75-6.72,16,31s-17.06,2.59-1,22.23Z"/><path class="cls-2" d="M335.4,312.54,274,285l2.63-25.26c-5.87-7.33-8-13.32-6.22-17.83,1.34-3.48,4.58-5.08,6.65-5.77l-14.68-28.41L241.12,214c-5.17,5.64-27.59,29.64-34.79,29.65h-.23c-6.32-.49-17-12.56-20.27-16.51l-5.65,4.44-.52,9.81L164.18,254l-.9-1c-3.56-3.92-18.67-4.41-26.08-4.25l4.42,16.7-.66.58c-13.16,11.63-30.43,12.39-49.94,2.2a109.81,109.81,0,0,1-25.44-18.82l-.17-.22L52.12,228.5l9.74-30.3,9.74-2.92-7.4-27.89,9.17,6.72,1.78-9.77L95.25,152l1.57-15.65,23.89-10,4.38,4.39,10.57-9.3-27.47-19.13-44.88-32L20.52,51.2c-7.41-2.87-16.2-7.06-15.66-10.58.35-2.3,3.56-2.81,6.32-3,15.63-1.05,42.38,9,43.51,9.4l.29.15,80.43,54,8.75,16,23.07,12.27,8.79-7.6-24.37-8.63L168.15,92l21.66,14.1,13.27-53.6,1.27.18c9,1.29,10.59,11.62,10.12,17.89l7.33,1.72c32.21-4.28,37.5-1.41,38.66,1.13a3.52,3.52,0,0,1-1.08,4L246.1,90.16l32.41,11L278,114l7.57-.95,22,40.2L291,196.73l5.16,12.38-2.76,8.29,38.1,7.72-.31,1.41c-1.07,4.9-.57,8.73,1.48,11.38,2.91,3.74,8,4,8,4l1.89.07L340,249.59l5.21,26.55-5.25,8.4V311ZM277,283.26l58.54,26.24,1.61-.54V283.73l5.09-8.14-5.14-26.19,1.64-4.93a13.86,13.86,0,0,1-8.34-4.83c-2.38-3.07-3.15-7.2-2.29-12.31l-38.46-7.79,3.44-10.32-5.18-12.44,16.51-43.35L284,116.07l-9,1.12.54-14.05L240.78,91.35l16.67-16.09a1.36,1.36,0,0,0,.43-.69s-1.49-4.07-36,.53l-.26,0-10.29-2.42.16-1.27c0-.14,1.6-13.33-6.34-15.72L191.6,110.61,168.78,95.76l-12.47,16,25.27,8.95-14,12.05-25.53-13.58-8.83-16.1L53.54,49.63c-2.2-.82-27.76-10.13-42.17-9.16a9.87,9.87,0,0,0-3.61.67c.93,1.49,7.16,4.85,13.85,7.45L64.72,67.8l.12.08,45,32.06,30.43,21.19L125,134.58,120,129.66l-20.58,8.61-1.54,15.37L77.71,166.09l-2.36,13L69,174.42l6,22.78L64.1,200.48l-8.87,27.61,12.49,19.48c2.22,2.24,41.81,41.35,70.71,16.94l-4.88-18.43,1.76-.08c2.37-.1,22.3-.81,29.05,4.21L176.91,240l.52-9.84,8.84-6.95.88,1.08c3.63,4.47,14.16,16.16,19.17,16.54h.12c4.37,0,21.77-16.89,32.85-29l.27-.29,24.25-7.17,17.47,33.82-2,.3s-4.9.81-6.3,4.48.78,8.88,6.15,15.46l.37.46Z"/></svg>