<svg id="Layer_1" data-name="Layer 1" xmlns="http://www.w3.org/2000/svg" viewBox="0 0 350 350"><defs><style>.cls-1{fill:#999;}.cls-2{fill:#f90;}</style></defs><title>M</title><polygon class="cls-1" points="257.54 6.64 254.87 10.52 254 12.59 254 13.72 254 16.22 254.61 18.72 254.52 23.64 251.24 39.78 247.61 42.12 246.49 43.41 246.49 45.31 247.44 45.83 251.33 45.83 253.4 46.78 255.04 48.24 256.07 49.71 257.54 51.95 259.27 52.47 262.55 53.16 263.67 54.37 264.19 55.8 264.4 59.42 266.73 61.88 267.08 64.99 270.44 70.25 270.7 72.33 271.22 73.75 271.78 81.69 272.34 85.53 272.34 89.63 271.57 92.52 271.01 94.34 270.88 101.42 271.09 105.26 271.74 107.63 271.96 108.97 271.09 112.38 269.97 114.97 268.72 117.9 268.16 119.45 267.9 120.84 267.77 124.2 267.42 125.84 266.35 127.35 265.61 128.22 265.22 129.29 262.03 131.75 259.87 133.35 257.24 135.25 256.16 136.16 255.69 136.93 255.34 138.36 254.95 140.13 254.48 142.59 254.04 144.19 253.44 145.35 252.1 146.51 249 148.76 248.18 150.79 248.05 154.37 247.53 159.55 246.92 163.13 246.49 166.37 246.02 168.7 245.28 169.99 243.95 171.16 243.38 172.15 242.61 173.66 242.31 175.43 242.31 177.5 242.61 180.57 243.73 183.93 244.64 189.11 245.28 194.38 245.46 199.04 245.84 199.86 245.84 201.03 243.34 208.23 243.95 210.74 243.95 211.69 243.3 212.94 242.65 214.45 242.82 221.7 243.86 232.66 241.79 235.42 242.39 243.19 240.54 244.79 237.65 245.82 236.18 246.51 234.11 247.76 230.87 249.19 228.28 250.57 226.08 251.56 223.83 253.2 223.83 254.11 224.14 254.89 224.83 255.49 225.86 256.79 226.16 259.07 226.55 260.32 227.98 262.27 229.57 264.3 229.83 265.42 232.21 268.74 233.37 270.73 234.15 272.28 235.79 273.66 236.87 275 237.47 275.99 237.47 278.19 238.08 280.22 239.03 282.68 239.59 283.63 242.78 285.14 243.21 285.7 243.47 287.3 243.34 294.42 243.04 296.1 242.74 300.12 242.39 306.25 241.62 310.3 241.14 311.77 240.15 312.98 239.89 313.63 239.97 315.26 240.67 318.8 241.1 321.65 241.05 328.17 241.75 328.99 241.66 330.8 239.89 332.44 239.97 335.12 239.89 336.89 239.63 338.49 239.03 339.95 237.82 341.55 236.74 342.33 235.57 342.8 230.05 343.06 227.68 343.75 226.12 343.75 224.52 343.45 223.83 342.8 223.83 341.16 224.22 339.78 224.26 338.27 223.83 336.15 222.93 333.22 221.46 329.81 221.24 327.65 220.77 325.45 220.08 323.46 217.75 318.63 215.59 313.5 214.51 309.7 214.17 306.12 213.26 303.79 211.1 296.19 210.32 292.82 209.55 291.79 209.2 288.29 206.96 284.93 204.59 281.56 203.38 277.85 203.07 273.19 202.21 270.99 201.44 265.29 201.05 264.47 200.4 264.17 199.71 264.21 198.28 265.16 196.21 265.03 195.22 265.63 195.22 266.75 193.88 266.32 190.73 266.58 187.93 267.06 185.38 270.38 184.3 269.6 183.44 267.53 181.97 265.94 180.24 264.9 178.04 264.9 177.01 265.94 174.03 266.06 170.27 267.88 169.11 268.05 167.47 267.75 165.74 266.75 164.84 265.5 160.31 264.08 157.15 263.52 153.83 263.04 150.94 260.8 149.64 260.89 146.24 262.18 144.34 260.07 143.34 257.99 143.13 256.57 140.02 253.03 138.98 252.69 137.82 252.77 136.44 253.68 135.01 254.15 133.68 255.06 132.55 256.53 131.69 258.21 130.91 260.11 130.91 261.45 130.91 263.17 131.17 264.51 131.56 265.85 131.26 266.88 130.91 268.01 128.76 269 128.15 269.65 127.89 271.85 127.89 273.83 128.54 275.34 128.88 276.29 129.1 279.62 129.45 281.13 129.79 282.16 130.09 283.11 130.01 283.67 128.88 282.9 127.07 279.83 124.35 274.74 122.45 271.2 119.82 267.06 117.84 264.3 116.63 262.01 113.13 256.87 112.23 255.02 111.53 253.46 111.53 251.95 111.53 249.88 111.75 248.41 112.01 246.73 112.79 244.92 113.39 242.97 113.74 240.77 115.33 237.71 115.98 234.65 117.28 230.46 117.62 228.78 119.61 223.6 120.12 219.88 121.59 216.6 121.94 211.56 122.45 208.97 124.05 204.35 124.91 198.44 125.52 194.51 125.65 191.49 125.82 189.07 125.69 187.26 125.48 185.96 124.91 185.27 124.09 185.27 123.36 185.4 122.8 186.31 121.85 187.39 121.33 188.55 120.64 189.5 119.17 190.41 117.28 190.88 115.46 191.31 113.69 191.36 110.93 190.8 109.25 189.41 107.48 186.74 105.84 182.85 105.49 180.65 104.59 177.85 102.69 174.66 100.49 171.68 98.37 169.52 96 167.32 94.23 166.24 88.88 164.17 85.55 163 82.02 161.71 79.77 161.32 78.26 160.59 77.66 160.02 77.66 159.25 77.92 158.56 78.56 158 85.47 151.65 87.54 149.36 88.01 148.07 88.01 146.77 87.54 145.91 86.85 144.88 86.76 143.37 87.24 141.47 87.8 140.26 88.45 138.79 88.96 136.81 89.7 134.39 90.3 132.88 90.99 131.71 92.59 130.76 94.14 129.68 95.18 128.86 95.35 126.49 96.04 123.81 96.82 121.74 97.81 120.28 98.59 119.02 99.58 118.29 101.18 117.12 102.69 116.26 104.72 115.22 106.87 113.72 108.43 112.42 110.11 109.83 111.28 107.97 112.01 106.85 113.22 105.86 114.51 105.21 115.38 104.78 116.97 104.65 119.05 104.74 122.11 105.04 124.05 105.13 125.86 105.04 127.55 104.78 131.47 103.92 134.11 102.58 136.91 100.59 139.37 98.7 142.65 96.24 148.26 93 151.72 90.97 154.56 89.24 157.11 88.77 160.65 86.91 166.39 84.32 170.32 82.64 173.08 80.61 175.24 79.4 176.27 77.85 176.66 75.69 176.83 72.58 176.62 69.87 176.66 66.46 175.58 64.43 171.35 61.19 169.89 59.34 168.42 56.53 167.64 54.93 167.6 53.25 167.81 51.39 168.5 49.62 169.32 47.85 170.06 46.69 170.36 45.14 171.61 43.41 172.47 42.07 176.14 39.44 178.69 38.23 180.2 37.88 182.14 37.67 184.47 37.45 185.9 36.81 187.11 35.86 189.13 34.09 190.17 32.23 191.12 30.59 193.32 28.69 195.05 25.07 196.3 23 197.38 20.62 198.63 18.16 200.23 16 202.17 12.98 204.11 10.78 206.05 9.62 207.74 8.93 209.16 8.71 213 8.71 214.6 8.8 216.32 8.15 217.84 7.85 220.04 7.54 225 7.37 236.61 7.5 243.99 7.72 249.51 7.67 252.28 7.33 254.95 6.64 256.12 6.25 257.28 6.25 257.54 6.64"/><path class="cls-2" d="M227.88,345.17l-2,0-2-.38-1.44-1.35V341l.39-1.4,0-1.17-.38-1.89-.86-2.8-1.52-3.54-.23-2.3-.44-2-.64-1.83-2.29-4.76-2.25-5.36-1.13-4-.33-3.39-.88-2.27-2.16-7.6-.73-3.14-.83-1.11-.35-3.54-2-3.07-2.48-3.51L202,277.94l-.29-4.44-.87-2.32-.75-5.49-1.38.92-2-.13v2.23l-2.92-.94-2.81.23-2.2.37-3,4-2.52-1.82-.92-2.21L181.06,267l-1.21-.73h-1.22l-1,1-3.24.14-3.69,1.78-1.61.24L167,269.1l-2.2-1.27-.81-1.12-4-1.26-3.06-.54-3.65-.52-2.76-2.14-.55,0-4.12,1.56-2.68-3L142,258.42l-.19-1.22-2.58-2.94-.4-.13-.52,0-1.4.86-1.24.41-1,.67-.91,1.18L133,258.8l-.65,1.58V263l.22,1.14.48,1.67-1,3.18-2.48,1.14-.1.1-.2,1.66v1.61l.53,1.24.44,1.21.22,3.41.3,1.33.73,2.26-.49,3.13-3.24-2.24-2-3.33-4.62-8.64-2.6-4.1-2-2.86-1.17-2.22-3.55-5.25-.91-1.86-.83-1.87v-4.09l.57-3.5.75-1.75.55-1.77.37-2.33,1.61-3.1.64-3,1.28-4.12.4-1.84,1.93-5,.52-3.75,1.45-3.23.35-5,.57-2.78,1.55-4.49,1.44-9.64.13-2.94.17-2.36-.12-1.65-.11-.64-.31.46-.81.92-.58,1.23-.85,1.17-1.89,1.17-4.23,1-1.93,0-3.26-.66-2.12-1.74-2-3.08-1.74-4.22-.33-2.09-.82-2.55-1.78-3-2.1-2.84-2-2.09-2.22-2.06-1.54-.94-5.23-2-3.28-1.15-3.44-1.26-2.32-.4-1.88-.91-1.21-1.12V159l.47-1.27.92-.8,6.83-6.27,1.84-2,.29-.8v-.68l-.27-.49-.87-1.31-.12-2.11.62-2.36,1.15-2.55.49-1.87.79-2.59.7-1.71.88-1.48,1.86-1.11,2-1.43.17-2,.74-2.82.93-2.37,1-1.47.89-1.44,2.95-2.15L102,115l2-1,2-1.42,1.34-1.12,3.59-5.57,1.64-1.3,2.4-1.2,2-.16,2.16.09,3.14.31,1.8.08,1.67-.08,1.61-.25,3.66-.81,2.38-1.21,2.72-1.93,2.41-1.86L141.94,95,151,89.75l3.05-1.85,2.59-.48L160,85.66,165.81,83l3.8-1.63,2.78-2,1.86-1,.68-1,.32-1.78.16-2.92-.21-2.69,0-3.11-.76-1.43-4.23-3.3L168.63,60l-1.47-2.81-.93-1.91-.05-2.09.31-2.31.69-1.77.94-2,.59-.94.31-1.6,1.44-2,1-1.5,4.11-2.92,2.84-1.31,1.67-.37,4.06-.41,1.05-.48,1.08-.84L188,33.18l2-3.51,2.16-1.86,1.67-3.48,1.21-2,1-2.3,1.4-2.72,1.6-2.16,2-3.12,2.09-2.37,2.32-1.37,2-.78,1.64-.23H213l1.38.07L216,6.76l1.51-.3L220,6.13l5-.17,11.67.13L244,6.3l5.39,0L252,5.93l2.59-.67,1.29-.43H258l1.21,1.82-3.14,4.55-.7,1.67v3.17l.61,2.52-.12,5.36-3.4,16.73-4,2.54-.64.74v.47h3.73l2.55,1.17,2,1.85,1,1.47,1.21,1.85,1.17.35,3.66.77,1.62,1.75.69,1.89.2,3.32,2.3,2.43.36,3.25,3.36,5.26.28,2.23.53,1.46.57,8.09.57,4,0,4.47-.78,2.89-.52,1.67-.12,6.83.2,3.64.64,2.38.26,1.63-1,3.91L270,118.46l-.49,1.37-.22,1.17-.15,3.5-.41,1.93-1.32,1.84-.57.67-.44,1.23-3.52,2.71-4.78,3.49-.86.72-.24.39-.67,2.95-.49,2.53-.54,1.88-.73,1.41-1.64,1.42-2.78,2-.57,1.42-.12,3.33-.52,5.27-.62,3.68-.42,3.19-.54,2.65-1,1.7-1.34,1.17-.44.78-.65,1.27-.25,1.44v1.88l.28,2.84,1.13,3.42.91,5.18.67,5.46.16,4.37.4.85v1.72l-2.44,7,.54,2.43V212l-.78,1.51-.51,1.18.17,6.94,1.08,11.41-2.08,2.77.62,8-2.6,2.24-3.08,1.1-1.34.63-2.17,1.3-3.19,1.4-2.54,1.36-2.15,1-1.52,1.11.06.14.6.56,1.28,1.6.34,2.56.28.91,1.28,1.75,1.76,2.24.27,1.16,2.28,3.2,1.17,2,.69,1.38,1.61,1.39,1.19,1.49.81,1.33V278l.53,1.78.89,2.3.28.47L243.7,284l.86,1.12.34,2.08-.15,7.47-.29,1.61-.3,3.94-.37,6.29-.82,4.23-.56,1.72-1.09,1.4.07,1.23.67,3.44.46,3,0,6.11.71.85-.14,2.95L241.33,333l.07,2.09-.11,2-.35,1.91-.79,1.78-1.34,1.77-1.55,1.06-1.39.57-5.6.26Zm-1.62-2.83h1.22l2.51-.69,5.28-.25.78-.32.77-.55,1-1.28.47-1.15.22-1.36.08-1.63-.11-3.26,1.82-1.69,0-.68-.67-.79,0-6.93-.42-2.74-.7-3.68-.1-2,.46-1.14,1-1.17.36-1.13.74-3.88.34-6,.32-4.19.28-1.57.13-6.88-.19-1.12-3.28-1.55-.88-1.54-1-2.56-.66-2.23v-2l-.35-.57-.93-1.16L233,273.17l-.91-1.82L231,269.51l-2.5-3.5-.25-1.09-1.4-1.78L225.27,261l-.51-1.71-.25-1.9-.71-.89-.86-.75-.52-1.35v-1.89l3.08-2.21,2.2-1,2.6-1.39,3.15-1.39,2.12-1.27,1.59-.74,2.64-.95,1.11-1-.59-7.58,2.06-2.75-1-10.42-.18-7.66.81-1.89.49-.95v-.44l-.66-2.74,2.56-7.37v-.61l-.38-.79-.18-4.89-.64-5.21-.88-5-1.16-3.58-.31-3.2,0-2.31.34-2,1.58-3,1.34-1.17.5-.89.43-2.11.42-3.14.61-3.63.5-5.08.13-3.74,1.07-2.64,3.39-2.45,1.09-.95.41-.79.38-1.4.86-4.21.4-1.67.71-1.16,1.34-1.12,4.78-3.49,2.84-2.19.34-.93.86-1,.87-1.22.26-1.23.15-3.45.32-1.6.56-1.55,2.36-5.5.76-3-.16-1-.67-2.59-.22-3.89.13-7.33.62-2,.71-2.66V85.63l-.56-3.84L269.82,74l-.52-1.55-.22-1.75-3.37-5.27-.33-3L263,60l-.23-3.93-.35-1-.62-.67-3-.63-2.22-.67-1.75-2.68L254,49.19,252.61,48l-1.6-.73h-3.94l-2-1.09V42.88l1.6-1.85L250,38.92l3.13-15.43.08-4.61-.6-2.66V12.31l1.11-2.59,1.08-1.58-2.33.59-2.93.36-5.52,0-7.43-.22L225,8.79,220.16,9,218,9.25l-1.31.27-1.9.71-1.89-.1h-3.66l-1.15.17-1.43.58-1.66,1-1.73,2-1.88,2.93-1.58,2.14-1.2,2.36-1.13,2.46-1.22,2-1.82,3.83-2.25,1.94-2,3.48L188,36.92l-1.55,1.17-1.64.75-4.41.44-1.28.29-2.29,1.09-3.35,2.4-.72,1.11-1.11,1.54-.29,1.51-.83,1.31-.78,1.69-.59,1.52L169,53.31l0,1.28.64,1.32,1.39,2.65,1.28,1.61,4.33,3.32,1.39,2.62,0,3.71.22,2.75-.2,3.38-.44,2.45-1.39,2.08-2.38,1.33-3,2.14-3.93,1.68-5.72,2.58-3.65,1.92-2.5.47-2.63,1.59-3.47,2-5.55,3.2-5.66,4.3-3,2.13-3,1.46-3.93.86-1.92.29-1.88.09-2-.09-3.14-.31-1.9-.08-1.24.1-1.77.88-.92.75-3.58,5.56-1.81,1.5-2.33,1.61-2,1-1.38.79L99.65,120,99,121l-.93,1.37-.69,1.84-.64,2.48-.21,2.87L95,130.79,93.31,132l-1.29.76-.45.76L91,134.86l-.72,2.36-.58,2.15-1.16,2.58-.39,1.56.05.91.54.82.65,1.18v1.91l-.66,1.79-2.35,2.58-7.32,6.72,1.1.54,2.29.42,6.84,2.45L95,165l2,1.25,2.37,2.2,2.29,2.35,2.28,3.1,2,3.48,1,3,.32,2,1.52,3.6,1.58,2.39,1.25,1,2.26.46,1.46,0,3.34-.81,1-.64.44-.6.55-1.23,1-1.15.83-1.34,1.61-.26h1.49l1.22,1.5.29,1.8.14,1.91-.18,2.52-.14,3.14-1.53,10.09-1.57,4.53-.48,2.41L123,217l-1.49,3.33-.57,3.83L119,229.17l-.36,1.7L117.35,235l-.67,3.19-1.58,3-.36,2.17-.65,2.08-.71,1.65L113,250v3.18l.57,1.28.84,1.72,3.52,5.19,1.16,2.2,1.93,2.68,2.73,4.3,3.85,7.2-.07-1.15-.28-.76-.73-1.7v-2.44l.31-2.66,1.11-1.19,1.83-.84.34-1.14-.3-1.07-.29-1.61v-3.34l.93-2.27,1-1.9,1.26-1.65,1.69-1.15,1.43-.48,1.53-1,1.81-.13,1.67.56,3.63,4.14.25,1.63.81,1.7,1.11,1.24,2.7-1,2-.14,3,2.35,3,.42,3.38.61,5,1.57,1,1.38,1.25.72,1.17.21.72-.11,3.82-1.85,2.72-.12,1.06-1.06h3.18l2.24,1.34,1.77,1.93.61,1.46,1.88-2.46,3.48-.58,3.19-.26v-.07l2.05-1.25,2,.13,1.34-.9,1.43-.09,1.44.67.7,1.48.78,5.75.88,2.25.31,4.7,1.09,3.34,2.25,3.19,2.46,3.69.34,3.45.72,1,.84,3.66,2.12,7.46,1,2.45.35,3.65,1,3.59,2.13,5.06,2.36,4.92.74,2.15.5,2.36.19,1.94,1.43,3.35.94,3.07.46,2.27-.1,2-.34,1.19v.79Z"/></svg>