<svg id="Layer_1" data-name="Layer 1" xmlns="http://www.w3.org/2000/svg" viewBox="0 0 350 350"><defs><style>.cls-1{fill:#999;}.cls-2{fill:#f90;}</style></defs><title>M</title><path class="cls-1" d="M155,38.64a8.49,8.49,0,0,0-4.38,2.5c-2.06,2.15-6,6.62-6,6.62l-2.82,4.52a3.77,3.77,0,0,1-3,2.82,20.41,20.41,0,0,0-5.9,1.83,10.7,10.7,0,0,0-3,3c-.45,1-3.93,3.89-5.19,13.46,0,0-3.67,7.11-5.45,10.33S112,99.18,110.09,101l-3.8,5.54-1.12,0-.4-2.91-8.67-.09.09-3.4-3.35,0-.89,2.19-3.62.36.13-2.06-3.31.22-6.88,18.46-10.1.76-.36-2.19-9.7-.13L57,124.53l-2.46-.13v-1.56l-1.79,0S51.29,135.52,51.61,137l10,0s.76,5.59.89,7,.36,6.93-.49,9.39h2.91s0,6.3-.22,7.2-4,1.3-4,1.3-.89,4.78-3,7c0,0-2.64,3.08-2.77,3.08S45,163.6,44.68,163.06s-4.07,6.35-7.82,8.36l-6.93-4L28.27,172s-7.78-4.16-12.21.67a5.91,5.91,0,0,1-5.95,2.64s-3.49,8.67-3.22,11.45-3,5.54,2.86,6.62,5.72-2.24,11.62.36a11.8,11.8,0,0,0,11.8-1.34c1.25-.89-.54,4.56-.54,5.45s5.63,2.06,7.87,1.34,2.77,2.15,2.41,3.67-.8,5.72-2.32,6.44-13,2.24-13.59,2.5-1.79,4.11,2.24,8.14,12.07,2.06,12.07,2.41a40.78,40.78,0,0,1-1.79,7.15c-.8,1.79-1.7,2.5,2.06,4.38S56.7,244.39,58.67,245.1s12.43,2.24,13.68,2.32c0,0,1.16,9.21,1.16,10.19s-2.06,5.36-3.31,8.32-9,19.13-8.41,19.31,9.3.18,10.46-.36,5.1-11,6.35-12.88,2.5-6.35,3.49-6.71.8.27,1.7,2.59,0,13.23.54,16.45l.36,2.41a23,23,0,0,1,4.83-1.61c3.31-.8,8.58-.27,9.48.8s1.88.72,2.24,4.29,7.51,4.47,10.91,4.47,10.1-.36,12.07-1.52,5.81-2.5,6.26-3.13,4.74,10.46,4.74,10.46,6.26-8,7.69-9.57,7.51.89,9.48.63,2.32,5.63,4.83,6.8,12.7-3,12.88-3.58-.72-1.61-1.52-3-7.15-9.3-7.33-10.91,8.41-8,9.93-10.28,2.15-2.77,2.15-5.72-.8-7.15-.18-8.58,1.61-1.88,2.15-.54-.8,4.83,1.07,3.76,6.62-3.67,7.15-3.67.72-.63.89,2.15-1,14.49.8,16.63,6.08,8.14,7.78,8.85-2.24,1.7-2.32,2.06,2.15,3,3.4,3.31c0,0-3,2.68-1.52,4.29s4.29-2,5.63-2.15-2.15,8.76-1.52,10.55a4.31,4.31,0,0,0,3.49,2.77,22.6,22.6,0,0,1,4.83.18c1.34.36,1.79-2.24,2.68-4.92s3-10.1,3.13-12.34-2.41-4.83-2.68-6.26-1.79-1.52-.8-5,.45-4.56,1.61-4.56-.09,3,5.36,4.56a124.46,124.46,0,0,0,19.22,3c2.24,0,1.43-.36,2,3.22s-1.16,9.93,0,12.34,1.88,5.9,2.59,5.9,6.88-5.9,8.4-6.53,13.5-10.19,13.95-11.18,1.43-2.59,3.58-1.79,4.74,1.52,4.74,3.93.63,6.44,3.67,7.06,8.94.63,11,1.61,4-1.43,4.83-2.32,4.29-2,5.54-1.25,1,3,.8,5.9S292,308,291.87,309s2.68,2.68,4.65,2.41,5.1-.89,5.1-2.24a21.77,21.77,0,0,1,1.43-7.78c1.34-3.58,6.17-14.13,6.17-16.81s-.72-2.68-1-5.45-.45-3.58,1.34-5.19,11.49-15.58,12-16.79,5.3-10.33,6.57-11.2,7.18-13.61,7.78-14.69,4.29-5.7,4.9-7.24,3.89-3.22,2.62-5.5-7.51-11.4-8.79-13.08-5.5-8.58-8.52-10.66-8.58-8.92-10.73-10.46-7.91-7.38-9.32-8.58-6.17-4.43-6.57-5.36-1-2.88-.6-3.69,2.35-6.44,3.29-8,2.21-5,2.08-5.63-9.86-2-11.2-2.21-5.57-1.48-7.18-1.21c0,0-9.12-.34-10.33-.13s-6,0-7.18.2-15.49,2.08-18.58,2.08-7.89-.51-8.36-.8-9.63-5.41-9.88-5.59-1.59,2.75-1.59,2.75-5.48-2.41-6.39-2.68-.74-5.86-.13-6.77.42-3.15.42-3.4a32.91,32.91,0,0,0-3.38-3.06c-.07,0-2.66,1.83-3,3.26s-3.53-2.15-3.84-2.19-.49-.42-.49-.42.25-4.16.2-6.1-.34-2.26-.31-4.27.07-2.41,0-3.11a6,6,0,0,0-.22-1.9c-.27-.65-.11-1.39-1.05-1.65s-9.41-1.61-10-1.84a4.13,4.13,0,0,1-1.68-2.92,21.87,21.87,0,0,0-2.92-7.48c-1.58-2.18-2.18-6.07-3.05-7.34s-2.15-3.55-2.45-4-3.52-5.33-3.62-5.47-4.09-2.21-5.5-3-8-4-8.82-4.56a4.38,4.38,0,0,1-1.07-2.82,43.08,43.08,0,0,0-1.24-4.39c-.17-.54-.94-3.39-1-4.06a36.67,36.67,0,0,0-1.31-4.73c-.2-.34-1.37-3.52-1.54-4s-2.11-5.13-2.28-5.57-1.71-4.33-2.21-5.13-2.28-5-2.58-5.57-1.41-3-2.72-3.65-2.75-1.07-3-.8"/><path class="cls-2" d="M296.08,312.89a7.4,7.4,0,0,1-4.68-1.9,2.56,2.56,0,0,1-1-2.09c0-.4.23-1.26.78-3.62a93.11,93.11,0,0,0,1.9-9.48l0-.69c.09-1.33.23-3.56-.14-3.89-.66-.29-3.26.44-3.79,1l-.14.15c-.94,1.06-3.45,3.88-6.35,2.5-1-.48-3.74-.73-5.93-.92a46.1,46.1,0,0,1-4.74-.58c-3-.62-4.8-3.78-4.8-8.45,0-1-1-1.56-3.24-2.39l-.58-.21c-.61-.23-1.17-.31-1.79,1-.76,1.68-13.42,11.38-14.7,11.9a41.12,41.12,0,0,0-4.25,3.38c-3.24,2.77-3.88,3.26-4.69,3.26-1.44,0-1.92-1.39-2.71-3.7a29.25,29.25,0,0,0-1.16-3c-.82-1.7-.56-4.42-.29-7.3a25.92,25.92,0,0,0,.17-5.45c-.13-.88-.19-1.55-.22-2h-.34a123.87,123.87,0,0,1-19.6-3.09,8.26,8.26,0,0,1-4.77-2.92c-.11.55-.25,1.19-.46,1.94-.5,1.79-.24,2.2.13,2.76a4.21,4.21,0,0,1,.7,1.6,8.5,8.5,0,0,0,.87,1.65c.85,1.4,1.9,3.14,1.83,4.92-.11,2.67-2.55,10.79-3.2,12.73-.17.5-.32,1-.46,1.46-.68,2.24-1.52,5-3.93,4.38a16.5,16.5,0,0,0-3.62-.15l-.84,0A5.73,5.73,0,0,1,195.3,302c-.42-1.2.07-3.26.91-6.51.15-.58.33-1.28.49-1.94-1.44,1-3.54,2.31-5.2.55a2.92,2.92,0,0,1-.81-2.18,5.27,5.27,0,0,1,1.19-2.81c-1.39-1.12-2.87-2.83-2.6-3.93.19-.78.82-1.06,1.7-1.43a55.17,55.17,0,0,1-5.21-6.14c-.65-.83-1.22-1.57-1.65-2.09-1.52-1.82-1.45-7-1.2-13.57.06-1.7.12-3.17.07-3.88,0-.19,0-.35,0-.5-1.35.65-4,2-5.89,3.16a2.07,2.07,0,0,1-2.25.11,1.82,1.82,0,0,1-.35-.29l.05.61c.11,1.25.22,2.55.22,3.7a8.05,8.05,0,0,1-1.81,5.64l-.57.86a33.68,33.68,0,0,1-4.8,4.76,40.57,40.57,0,0,0-4.85,4.75,68.83,68.83,0,0,0,4.77,6.93c1.29,1.74,2,2.74,2.33,3.27s.46.78.68,1.12c.72,1.15,1.29,2,1,3.06-.21.63-.64,1-2.8,1.93-1.5.65-9.15,3.82-12,2.49-1.75-.81-2.58-2.85-3.32-4.66a11.12,11.12,0,0,0-1-2,15,15,0,0,1-3.77-.55c-1.31-.29-4-.89-4.65-.52-1.35,1.52-7.53,9.39-7.6,9.47l-1.54,2-.9-2.32c-1.31-3.39-2.92-7.27-3.79-9.05-.51.25-1.15.54-2,.9a34.61,34.61,0,0,0-3.19,1.53c-2.87,1.7-12.39,1.72-12.79,1.72-1.2,0-11.76-.16-12.32-5.75-.21-2.06-.54-2.32-1-2.69a5.34,5.34,0,0,1-.91-.84c-.67-.5-5.07-1.06-8.05-.33A22.36,22.36,0,0,0,85.35,288l-1.76.92-.65-4.38a56.24,56.24,0,0,1-.17-7.6c0-3.17.11-7.51-.29-8.55-.11-.28-.2-.53-.28-.76-.24.52-.49,1.12-.69,1.6a22.77,22.77,0,0,1-1.71,3.54c-.44.66-1.42,2.9-2.36,5.07-2.67,6.11-3.54,7.83-4.57,8.31-1.59.74-10.63.67-11.45.43l-.63-.18-.3-.62c-.4-.87-.5-1.1,6.1-15.36,1.05-2.28,2-4.24,2.32-5.07s.65-1.5,1-2.31a45.8,45.8,0,0,0,2.19-5.5c0-.51-.5-4.77-1-8.86-3.14-.4-11-1.6-12.9-2.27-1.08-.39-3.56-2.12-7.86-5.13C46.8,238.83,42.8,236,41,235.1c-3.49-1.75-4.21-3.14-2.95-5.74l.23-.49a33.27,33.27,0,0,0,1.37-5.08c-2.84.22-8.09.37-11.37-2.9-3.72-3.71-3.38-7.25-3.19-8.24a2.87,2.87,0,0,1,1.4-2.2,29.2,29.2,0,0,1,4.49-.81c2.88-.45,8.23-1.3,9.06-1.67.6-.42,1.13-3.33,1.31-4.29.09-.47.16-.88.24-1.19a2.53,2.53,0,0,0-.33-2,.55.55,0,0,0-.27,0c-2.34.74-7.37-.09-8.89-1.2a1.83,1.83,0,0,1-.83-1.49,11.12,11.12,0,0,1,.42-2.18l.2-.85a12.9,12.9,0,0,1-11,.21c-2.83-1.24-3.91-1-5.4-.55a11.76,11.76,0,0,1-5.91.28c-2.17-.4-3.5-1.09-4.18-2.16a4.64,4.64,0,0,1-.14-3.85,5.66,5.66,0,0,0,.3-1.86c-.29-3,2.71-10.61,3.31-12.11l.4-1,1.06.11a4.49,4.49,0,0,0,4.55-1.9l.2-.29c3.89-4.25,9.72-2.69,12.44-1.63l1.71-4.72,7.66,4.45c1.92-1.35,3.9-4.08,5.14-5.77s1.75-2.37,2.69-2.38l.74,0,.4.56c.65.7,6.62,5.89,9,7.89.52-.58,1.21-1.37,1.82-2.09,1.5-1.63,2.41-5.14,2.63-6.36l.19-1,1.05-.11a13.84,13.84,0,0,0,2.82-.57c.06-.91.11-3,.14-5.1H60l.65-1.88c.7-2,.58-7,.42-8.79-.09-1-.49-4-.72-5.74l-9.87,0-.24-1.11c-.33-1.5.66-10.67,1.09-14.54l.14-1.23,4.48-.11v.75l1-5.83,12.11.17.34,2.08,7.9-.59,6.89-18.47L90,99.08l-.13,2,1.11-.11.93-2.27,5.77-.08-.09,3.43,8.46.09.26,1.88,2.86-4.11c1.12-1,4.35-7.7,6.28-11.68,1.09-2.24,2-4.17,2.61-5.23,1.58-2.85,4.69-8.85,5.32-10.07,1.09-8,3.74-11.53,4.88-13.06.15-.21.34-.46.39-.55.73-1.68,3.54-3.59,3.56-3.6a21.23,21.23,0,0,1,6.48-2C140,53.51,140.4,52,140.4,52l.05-.23,3.08-4.9c.16-.18,4-4.52,6-6.66A10.34,10.34,0,0,1,154,37.43c.83-.59,2.3-.35,4.39.72,1.39.71,2.4,2.44,3.21,4l.11.22c.13.24.37.79.83,1.83.54,1.21,1.43,3.22,1.7,3.65.63,1,2.32,5.33,2.33,5.37.08.21.6,1.47,1.12,2.73s1.08,2.62,1.16,2.84l.2.53c.27.72,1.09,2.9,1.26,3.25a32.64,32.64,0,0,1,1.48,5.27c0,.48.75,3.16.95,3.77l.08.24c1.14,3.58,1.23,4.19,1.23,4.57a3.69,3.69,0,0,0,.51,1.69c.5.35,4.26,2.24,6.29,3.25l2.33,1.18.43.22c5.26,2.75,5.29,2.79,5.55,3.13.06.08.21.31,1.7,2.57.87,1.32,1.79,2.72,1.95,2.94s.4.64.74,1.22c.5.85,1.2,2,1.71,2.78a12.66,12.66,0,0,1,1.23,3,16.3,16.3,0,0,0,1.8,4.27,23,23,0,0,1,3.17,8.1,3.61,3.61,0,0,0,.83,1.81c.53.13,3,.56,4.87.87,2.79.48,4.52.78,5,.92a2.58,2.58,0,0,1,1.89,2.17,2,2,0,0,0,.08.31,4.56,4.56,0,0,1,.3,1.79c0,.16,0,.33,0,.51a13.89,13.89,0,0,1,0,1.79c0,.37,0,.84,0,1.47a12.44,12.44,0,0,0,.14,2.09,17.52,17.52,0,0,1,.18,2.13c0,1.5-.09,4.2-.16,5.49.21.16.44.37.76.67s.8.74,1.27,1.11a11.64,11.64,0,0,1,3.19-3l.54-.29.62.18s4.34,3,4.34,4.41v.1a7.35,7.35,0,0,1-.66,4.08,14.66,14.66,0,0,0-.14,4.81c1.11.42,3.33,1.38,4.79,2,1-2.06,1.41-2.16,1.88-2.28l.65-.17.58.4c.23.14,3.26,1.85,5.48,3.09l4.2,2.37a48.88,48.88,0,0,0,7.73.66c2.94,0,17-1.83,18.34-2.06a30.26,30.26,0,0,1,3.82-.12c1.28,0,2.87,0,3.35-.08,1.23-.21,8.18,0,10.49.11a19.69,19.69,0,0,1,5.76.85c.7.17,1.36.32,1.7.37l.3,0c11.73,1.74,11.82,2.16,12.07,3.26.31,1.41-1.69,5.71-2.24,6.65a57.46,57.46,0,0,0-2.29,5.57c-.51,1.35-.78,2.07-.95,2.4a7.09,7.09,0,0,0,.61,2.43,37.42,37.42,0,0,0,3.9,3.14c1,.72,1.81,1.35,2.32,1.78s1.52,1.41,2.78,2.62c2.17,2.09,5.13,4.94,6.45,5.89a43.42,43.42,0,0,1,4.6,4.53,52.18,52.18,0,0,0,6.1,5.92c2.56,1.76,5.61,6.25,7.62,9.22.52.77.94,1.39,1.22,1.75,1.35,1.78,7.58,10.89,8.89,13.24s-.49,4.39-1.6,5.56a5.83,5.83,0,0,0-.94,1.15,32.6,32.6,0,0,1-3.45,5.25c-.66.91-1.35,1.85-1.53,2.17s-.61,1.22-1.17,2.37c-4.42,9.13-6.07,12.12-7,12.79-1,.86-5.32,8.91-6.08,10.6-.63,1.41-10.44,15.53-12.37,17.27-1.17,1.05-1.15,1.24-.92,3.6l0,.39a9.7,9.7,0,0,0,.48,2.3,9.42,9.42,0,0,1,.51,3.29c0,2.08-2,7-4.59,13.21-.71,1.69-1.32,3.15-1.67,4.1a20.18,20.18,0,0,0-1.34,7.28c0,2.49-3.61,3.27-6.32,3.64A4.61,4.61,0,0,1,296.08,312.89Zm-2.76-4a4.51,4.51,0,0,0,3,1.13c2.71-.37,3.62-.87,3.87-1.05a23.19,23.19,0,0,1,1.52-8.05c.37-1,1-2.48,1.71-4.2,1.63-3.91,4.37-10.45,4.37-12.12a6.67,6.67,0,0,0-.38-2.44,12.55,12.55,0,0,1-.6-2.88l0-.39c-.25-2.56-.39-4,1.84-6,1.57-1.41,11-15,11.68-16.32,0-.09,5.09-10.28,7-11.74,1-1,4.74-8.79,6.16-11.73.73-1.51,1.09-2.24,1.25-2.53.25-.45.79-1.19,1.72-2.46a38.63,38.63,0,0,0,3.1-4.61,6.88,6.88,0,0,1,1.51-2.06c1.23-1.3,1.46-1.74,1.18-2.23C341,217,334.83,208,333.55,206.35c-.3-.39-.75-1.05-1.31-1.87-1.67-2.45-4.77-7-6.89-8.48a52,52,0,0,1-6.56-6.31,45.7,45.7,0,0,0-4.19-4.17,90.84,90.84,0,0,1-6.76-6.15c-1.18-1.14-2.2-2.12-2.66-2.51s-1.27-1-2.16-1.66c-3.28-2.44-4.43-3.39-4.79-4.22s-1.33-3.36-.57-4.88c.11-.22.49-1.24.83-2.13a52.44,52.44,0,0,1,2.5-6,23.18,23.18,0,0,0,1.7-4c-1.11-.27-3.66-.78-9.5-1.65l-.31,0c-.46-.07-1.11-.22-1.93-.42a21.06,21.06,0,0,0-4.8-.79l-.14,0h-.14c-4.38-.16-9.34-.26-10-.15A30.24,30.24,0,0,1,272,151c-1.28,0-2.87,0-3.35.08-1.31.22-15.63,2.1-18.81,2.1-1.92,0-8-.35-9.11-1l-4.21-2.38L232,147.26c-.22.43-.48,1-.71,1.46l-.58,1.27-1.28-.56c-2.24-1-5.65-2.45-6.22-2.62a2,2,0,0,1-1.27-1.32c-.6-1.64-.5-6.3.35-7.59a4.54,4.54,0,0,0,.21-2.08c-.45-.43-1.36-1.23-2-1.81a5.77,5.77,0,0,0-1.61,1.84,1.81,1.81,0,0,1-1.25,1.32c-1.27.37-2.53-.68-4.17-2.19l-.43-.39a2.23,2.23,0,0,1-1.15-1.11l-.15-.33,0-.36s.24-4.12.2-6a14.59,14.59,0,0,0-.15-1.82,15.23,15.23,0,0,1-.16-2.49c0-.64,0-1.11,0-1.49a11.81,11.81,0,0,0,0-1.46c0-.26,0-.51,0-.74a2,2,0,0,0-.09-.75,4.69,4.69,0,0,1-.23-.76l0-.1c-.68-.15-2.92-.54-4.6-.83-3.85-.66-5-.88-5.43-1-1.31-.48-2.35-2.43-2.59-4a20.74,20.74,0,0,0-2.66-6.86,18.22,18.22,0,0,1-2.2-5.06,12.88,12.88,0,0,0-.87-2.31c-.57-.83-1.29-2-1.81-2.94-.29-.5-.53-.9-.63-1l-2-3L187,87.83c-.8-.46-3.6-1.92-4.72-2.51l-.43-.23-2.29-1.16c-4.11-2.06-6.17-3.12-6.71-3.52-1.37-1-1.65-3.38-1.65-4,0-.08-.16-.78-1.1-3.71L170,72.5A43.93,43.93,0,0,1,169,68.16a42.9,42.9,0,0,0-1.16-4.21c-.16-.3-.46-1-1.42-3.59l-.19-.51c-.08-.22-.61-1.5-1.14-2.77s-1.06-2.57-1.14-2.79c-.38-1-1.73-4.31-2.09-4.89s-1-2-1.88-4c-.35-.79-.64-1.45-.75-1.65l-.14-.26c-1-2-1.63-2.62-2-2.79a8,8,0,0,0-1.9-.72V40a7.23,7.23,0,0,0-3.58,2.09c-1.86,1.94-5.31,5.85-5.87,6.49l-2.64,4.24A5,5,0,0,1,139,56.5a19.46,19.46,0,0,0-5.32,1.62,9.88,9.88,0,0,0-2.51,2.37,5.79,5.79,0,0,1-.7,1.09c-1.11,1.49-3.41,4.59-4.38,12l0,.25L126,74c0,.07-3.7,7.17-5.48,10.37-.55,1-1.47,2.89-2.54,5.09-3.06,6.32-5.36,10.94-6.77,12.4L107,108l-3.08-.12-.4-2.87-8.89-.09.09-3.36h-.94l-.86,2.11-6.13.61.14-2.11-.78.05-6.88,18.46-12.3.93-.38-2.3-7.29-.1L58.17,126l-4.33-.24c-.42,4-.77,7.85-.84,9.77l9.82,0,.17,1.22c0,.23.77,5.63.9,7.08a41.89,41.89,0,0,1-.14,8.1h2.57v1.43c0,1.51-.06,6.51-.25,7.47-.11.53-.34,1.72-4.24,2.3-.4,1.65-1.36,4.83-3.08,6.7-3,3.54-3.07,3.54-3.81,3.54s-.65,0-6-4.62c-2.19-1.9-3.47-3-4.25-3.75l-.45.61c-1.62,2.22-4.06,5.57-6.74,7l-.7.37-6.15-3.57L29,174l-1.44-.77c-.06,0-6.76-3.52-10.4.28a7.24,7.24,0,0,1-6.13,3.24C9.79,180,8.16,185,8.31,186.58a7.94,7.94,0,0,1-.38,2.86c-.17.64-.36,1.36-.21,1.6.06.09.43.55,2.29.89a9,9,0,0,0,4.65-.23c1.74-.47,3.54-1,7.28.69a10.32,10.32,0,0,0,10.41-1.2,1.66,1.66,0,0,1,1.93-.1c1.17.79.79,2.35.11,5.19-.07.29-.15.64-.22.93,1.3.49,4.53,1,5.9.57a3,3,0,0,1,3.08.59c1.36,1.26,1.43,3.53,1.14,4.75-.06.27-.13.64-.21,1.05-.55,3-1.15,5.52-2.89,6.34-1,.45-3.94,1-9.82,1.9-1.32.21-2.78.44-3.51.57-.23.83-.31,3.19,2.37,5.88s7.72,2.21,9.88,2c1.11-.1,1.61-.14,2.13.33l.46.42v.64A39.69,39.69,0,0,1,40.83,230c-.09.2-.18.39-.27.57a5.77,5.77,0,0,0-.31.7,6.23,6.23,0,0,0,2,1.27A109.85,109.85,0,0,1,52,239a83.75,83.75,0,0,0,7.2,4.79c1.72.63,12,2.15,13.3,2.24l1.16.08.15,1.15c.2,1.55,1.17,9.35,1.17,10.37s-.74,2.74-2.43,6.59c-.35.8-.69,1.58-1,2.28-.37.87-1.24,2.76-2.35,5.15-1.63,3.53-4.41,9.53-5.52,12.3a62.93,62.93,0,0,0,7.9-.31,63.58,63.58,0,0,0,3.29-6.9,50.82,50.82,0,0,1,2.6-5.5,21.79,21.79,0,0,0,1.46-3.07c1-2.48,1.63-3.79,2.73-4.18a2.13,2.13,0,0,1,1.71,0c.77.38,1,1.1,1.31,2,.12.37.27.83.49,1.41.56,1.45.55,4.6.48,9.61a57.44,57.44,0,0,0,.13,7.12l.1.65a33.87,33.87,0,0,1,3.36-1c3.23-.79,9.4-.53,10.9,1.27a2.79,2.79,0,0,0,.46.41c1,.77,1.79,1.61,2.09,4.64.19,1.91,5.07,3.19,9.5,3.19s10-.51,11.35-1.32A36.24,36.24,0,0,1,127,290.3a24.23,24.23,0,0,0,2.41-1.15l.42-.59.89.08c.87.11,1.41.18,4.93,9.07,2-2.48,5.21-6.56,6.21-7.69,1.44-1.63,4.44-1,7.34-.33a14.29,14.29,0,0,0,3,.49c2.08-.29,3,1.86,3.73,3.76.48,1.19,1.15,2.81,1.89,3.16,1.34.62,8.12-1.71,10.58-2.9l-.31-.5c-.24-.38-.5-.79-.75-1.24s-1.2-1.71-2.14-3c-3.67-5-5.23-7.22-5.37-8.47-.17-1.51,1.47-3.12,5.84-7a36.78,36.78,0,0,0,4.31-4.19l.6-.89a5.42,5.42,0,0,0,1.32-4.06c0-1-.11-2.26-.21-3.45-.21-2.4-.39-4.47.15-5.7.62-1.41,1.58-2.24,2.64-2.19a2.33,2.33,0,0,1,2.12,1.69,5.46,5.46,0,0,1,.2,2.4q5.47-3.07,6.62-3.19a1.72,1.72,0,0,1,1.47.25c.69.52.81,1.34.93,3.21.05.85,0,2.31-.07,4.16-.12,3.14-.39,10.51.55,11.65.44.53,1,1.3,1.71,2.16,1.48,1.9,4.56,5.87,5.53,6.29a1.85,1.85,0,0,1,1.29,1.71c0,1.13-1,1.72-2.07,2.2a6.14,6.14,0,0,0,1.69,1.4l2.44.74L195,289.89a4.61,4.61,0,0,0-1.47,2.15.12.12,0,0,0,0,.08,7.5,7.5,0,0,0,1.94-1.19,5.87,5.87,0,0,1,2.51-1.36,1.61,1.61,0,0,1,1.44.53c.82.92.52,2.28-.46,6.09a23.6,23.6,0,0,0-1,4.91,3,3,0,0,0,2.14,1.78l.76,0A20,20,0,0,1,205,303a16.21,16.21,0,0,0,.85-2.38c.15-.5.31-1,.48-1.54,1-3,3-10,3.06-11.95,0-.93-.77-2.27-1.42-3.34a8.5,8.5,0,0,1-1.24-2.6,1.7,1.7,0,0,0-.3-.58c-.7-1.08-1.27-2.29-.48-5.08a22.71,22.71,0,0,0,.6-2.83c.19-1.17.44-2.76,2.37-2.76a2.19,2.19,0,0,1,2,1.74c.32.86.76,2,3.73,2.87a125.29,125.29,0,0,0,18.84,3H234c1.85,0,2.49.55,2.63,2.48,0,.46.08,1.08.21,2a27.59,27.59,0,0,1-.15,6.13c-.21,2.25-.45,4.81,0,5.8a31.24,31.24,0,0,1,1.28,3.31c.13.39.29.85.44,1.25.7-.56,1.66-1.38,2.44-2,2.51-2.14,4.09-3.46,5-3.84,1.4-.64,12.09-9.17,13.25-10.56,1.6-3.38,4.24-2.82,5.31-2.42l.56.21c2.15.79,5.1,1.86,5.1,5.06,0,.86.12,5.18,2.53,5.68,1.14.23,2.81.38,4.42.53,2.79.25,5.43.49,6.9,1.19,1,.47,2.4-1.14,3-1.82l.15-.17c1.19-1.32,5.4-2.62,7.3-1.53s1.75,3.62,1.56,6.54l0,.68a90.51,90.51,0,0,1-2,9.95C293.73,307.07,293.43,308.34,293.32,308.91Zm-55.73-9.79h0Zm-68.47-5.32h0ZM192,285.09ZM259.19,282h0ZM82.84,266.5Zm91.05-10.36Zm9.61-1.72h0Zm143.87-9.59,0,0Zm-26.59-75.07Zm-255-7.55.05.07Zm257.08-9.07Zm-60.67-3.37h0Zm-11.45-3.23.13.08Zm-8.27-11.25s0,.06,0,.09Zm-8.64-3.39h0ZM155.17,40v0ZM155,38.77l.18,1.17Zm0,0,.19,1.16a1.21,1.21,0,0,0,.74-.47Z"/></svg>