<svg id="Layer_2" data-name="Layer 2" xmlns="http://www.w3.org/2000/svg" viewBox="0 0 350 350"><defs><style>.cls-1{fill:#999;}.cls-2{fill:#f90;}</style></defs><title>M_</title><path class="cls-1" d="M283.15,281.44l1.63-.13c-1.45-3.35-3-6.67-4.43-10-1.87-4.37-1.92-9.63-4.24-13.77-2.64-4.68-9.43-2-13.29-5.43a9.63,9.63,0,0,1-3-5.6c-1.11.76-2.33.28-3.38-3.29A22.63,22.63,0,0,0,245.51,230s-5-1.85-13,9.66c0,0-7.34,11.42-16.37,4.88,0,0-20.49-11.91-23.64-18.55s-6.68-5.37-4.33-20.11,2.5-12.59-2.06-18.55-6.76-7.13-8-13.76c0,0,5.95-11.81,13.22-11.23a11.88,11.88,0,0,0,6.83-7.42s1.69,2.44,3.3,0c0,0,1.4-2.25,2.35-2.44,0,0,2.28,1,2.64-5.08,0,0,4.7-4.88,6.54-5,0,0,.59-1,2.2,1.76,0,0,1.54,2.54,3.38,0s3.6-1.37,3.6-1.37a19.12,19.12,0,0,1,.73-6s-3.3-7.81,0-12.79l4.48-5.86s-.81-6.54-1.32-8.79-1.17-5.56-1.17-5.56-.66-2.54.66-3.22a2.84,2.84,0,0,0,2.35-2.93s0-13.57-1-16.69l-.27-1.79-2.75,1.07-2.09,1.27-.31-5s.38-25.87-.21-27-6.17,6.15-6.17,6.15l-8.71,9.79s-4.26-2.83-5-5.76-2.91-4.95-.24-11.65a45.27,45.27,0,0,1,7.15-11.78s6-8.85,7.12-12.69c0,0,6.14-15.13,6-16s-.59-.46-.59-.46-4.85.59-7,2.54c0,0-10.06,7-12.85,8s-6.9,2.73-8.22,2.54c0,0-4.85-.1-6.46,1a9.58,9.58,0,0,0-3.08,1.37s-6.9-2.83-7.64-3c0,0-2.28-2-3.16,3,0,0-1.69,1.71-.62,7,0,0,1.14,6.35,1.28,7.91,0,0,.29,3.61.18,4.64a23.86,23.86,0,0,1-.62,4.64l-1.2,2.68s-6-1.12-7.36-.44c0,0-2.24-.83-3.74,3.22,0,0,.26,3.17-.66,4.59,0,0,.51.59-2.9.34a55.09,55.09,0,0,0-10.39.06s-4.15.53-4.66,1c0,0-1.4.68-1.54-2.25a30.25,30.25,0,0,1,.51-5.76s3.82-9.47-1.54-13.76a8.44,8.44,0,0,0-10.35,3.81L125.28,46s-4.55,4.59-9.77,5.47c0,0-1.69,2.25-5.65-.1L106,50.76V49s2.2-5.37-1.17-8.69c0,0-4.19-8.79-6.31-11.23l-.66-.59s-2.35,1.76-2.86,2c0,0-1.6,1.74-5.92.55s-4.55-4.17-4.55-4.17l-1.19.83s-5.94-5.21-6.67-5.29-3.73-2.65-3.73-2.65l-1.88,1-.32,8.05v1.66l2.57,4.08L77,33.21s2.29-.63,2.81.59,1.86,6.26,1.86,6.26a21.35,21.35,0,0,1,.07,4.51s-.55,4.75-1.22,5.66a18.47,18.47,0,0,1-1.7,1.55l-1.38,1.84v3l3.06,5-.28,2.12-2.79-.46-.61,1.35s1.51,5.74,1.36,7.29c0,0,.45,6.52,0,8.67l-2.28,8.4s-2.79,7.74-4.52,9.79l-.7.9s-1.29,6.13-1.58,6.76l-.92,2.9-.09,3.32s1,2,2.18,2.25c0,0,2.31.85,3.51,5.13l.18,4.83a14.57,14.57,0,0,1-.65,3.82s-2.86,11.71-3.4,13a16.77,16.77,0,0,1-1.82,5.24l-2.64,5.43a38.12,38.12,0,0,0,1.22,14.77s3.52,17.08,5.07,19.82l2.5,6.83h1s.29-6,1-6.74c0,0,4.7-1.66,5.29,4,0,0,.37,11.91,2.57,15.62,0,0,3.23,7.22,6.76,9.86,0,0,7.34,4.59,9.4,6.64,0,0,5.58,2.73,6.54,3.12a4.81,4.81,0,0,1,3.16,2,22.33,22.33,0,0,0,2.64,1.27s5.58,2.64,6.54,6.83a34.68,34.68,0,0,1,3.82,11.42s.66,10.15,3.67,14.45c0,0,9.18,11.81,12.26,14.35,0,0,8.3,13.08,9.91,15.23a62.61,62.61,0,0,1,5,8.14c.24.81,3.33,6.61,3.94,7.87,0,0,5.12,8.36,5.85,9.7l2.06,3.74s6.71,7.39,7.56,8.75c0,0,7,8.66,8.93,10.28a9.18,9.18,0,0,0,7.66,2.64l3.6-.16s4.11-1.17,5.26-1.59c0,0,7.71-.94,8.74-.85l4.65.23a29.43,29.43,0,0,1,3.18,1.85s6.44.06,7.2-.13,4.09-3.32,4.94-5.69c0,0,6.36-10.38,6.9-11.68a15.9,15.9,0,0,0,1.35-3.35s3.57-9.11,5-11.06c0,0,3.7-8.27,4.33-9.63,0,0,1.49-5,4.16-6.7,0,0,3.67-3.58,5.73-3.74a4.26,4.26,0,0,1,5.21,2.05l1.64,2.15s6.44,4.36,7.32,6.44a15.32,15.32,0,0,0,3,1.92s3.65.06,4.53.06c0,0,4.85-1.46,5.85-2.6a4.92,4.92,0,0,0,1.62-2.86s.1-8.33-1-10.58C282.93,287,282.71,282.58,283.15,281.44Z"/><path class="cls-2" d="M188.56,344.4a10.53,10.53,0,0,1-7.45-3.1c-2.09-1.8-8.34-9.53-9.06-10.42l-.1-.14c-.58-.92-4.85-5.73-7.41-8.55l-.19-.27-2.06-3.74c-.71-1.29-5.77-9.56-5.82-9.64l-.07-.12c-.2-.42-.68-1.34-1.23-2.4a62.71,62.71,0,0,1-2.79-5.68,66.24,66.24,0,0,0-4.74-7.69c-1.54-2.05-8.81-13.48-9.86-15.14-3.31-2.87-11.93-13.94-12.3-14.42-3.15-4.49-3.9-14.2-4-15.16a33.61,33.61,0,0,0-3.63-10.85l-.11-.19,0-.22c-.66-2.89-4.38-5.22-5.76-5.87a23,23,0,0,1-2.75-1.33l-.27-.15-.18-.25a3.39,3.39,0,0,0-2.16-1.36l-.38-.1c-1-.4-6-2.88-6.62-3.16l-.21-.1-.17-.17c-1.59-1.59-7.14-5.19-9.15-6.44l-.1-.07c-3.62-2.71-6.79-9.52-7.17-10.34-2.26-3.92-2.68-14.69-2.72-16.17a3.37,3.37,0,0,0-1.18-2.6,2.51,2.51,0,0,0-1.65-.29,43.06,43.06,0,0,0-.58,5.59l-.07,1.35H73.25l-2.8-7.67c-1.61-3.09-4.72-18-5.14-20a39.27,39.27,0,0,1-1.25-15.32l0-.22,2.79-5.73a15.29,15.29,0,0,0,1.64-4.73l.09-.32c.36-.9,2.24-8.36,3.34-12.85l0-.15a13.22,13.22,0,0,0,.57-3.38l-.18-4.56c-.87-3-2.26-3.84-2.57-4-1.7-.47-2.78-2.55-3-3l-.15-.31.11-3.86,1-3.26c.17-.45.89-3.64,1.48-6.46l.07-.32.9-1.16c1.17-1.39,3.23-6.44,4.29-9.35l2.26-8.34a52.35,52.35,0,0,0-.06-8.2v-.23a37.87,37.87,0,0,0-1.32-6.8l-.13-.49,1.27-2.8L79,62l0-.17L76,57l0-3.85,1.8-2.39.18-.13a15.42,15.42,0,0,0,1.4-1.27,27.2,27.2,0,0,0,.93-4.94l0-.13a18.63,18.63,0,0,0-.08-4c-.49-1.83-1.33-4.86-1.71-5.83a3.19,3.19,0,0,0-1.14.08l-4.76,1.78-3.4-5.41V28.86l.35-8.93,3.47-1.79.73.62a23.72,23.72,0,0,0,3.1,2.34c.46.09,1.5.56,6.48,4.88l2.31-1.62.19,2.47c0,.05.29,2,3.52,2.91s4.53-.18,4.54-.19l.15-.16.15-.07c.27-.15,1.62-1.13,2.72-2l.92-.69,1.65,1.48c2.06,2.37,5.74,9.92,6.42,11.33,3.34,3.5,1.86,8.52,1.42,9.77v.28l3,.45.24.14c2.69,1.59,3.72.55,3.83.43l.34-.45.53-.06c4.27-.72,8.19-4.29,8.89-5l3.43-5.61A9.82,9.82,0,0,1,139.7,35.1l.18.08.16.13c5.89,4.72,2.42,14.24,2,15.32a28.58,28.58,0,0,0-.44,5.31,4.33,4.33,0,0,0,.09.7,23.8,23.8,0,0,1,4.52-.87,55.74,55.74,0,0,1,10.69-.06,14.56,14.56,0,0,0,1.72,0,9.53,9.53,0,0,0,.31-3.45l0-.31.11-.29c1.51-4.07,3.88-4.32,5-4.19,1.57-.39,4.45-.05,6.61.31l.72-1.61a22.12,22.12,0,0,0,.53-4.18,40.9,40.9,0,0,0-.18-4.46c-.11-1.17-.88-5.6-1.27-7.77-.94-4.65.08-6.94.69-7.83.46-2.28,1.31-3.61,2.59-4.07a2.89,2.89,0,0,1,2.56.37c1.21.42,4.94,1.94,6.85,2.72a11.06,11.06,0,0,1,2.68-1.11c2-1.1,6.18-1.08,7-1.06l.18,0c.72,0,3.62-1,5.35-1.67.77-.29,1.53-.57,2.2-.81,2.12-.74,9.64-5.83,12.44-7.79,2.23-1.92,6.28-2.62,7.47-2.79a1.68,1.68,0,0,1,1.3,0,1.89,1.89,0,0,1,1.15,1.7c0,.4.14,1.23-6.12,16.64-1.24,4-7,12.64-7.29,13l-.11.14a44.21,44.21,0,0,0-6.89,11.37c-1.9,4.77-1.15,6.74-.35,8.82a17.17,17.17,0,0,1,.65,2c.38,1.5,2.14,3.18,3.42,4.2L214,54.77c5.31-7,6.55-6.85,7.21-6.78a1.63,1.63,0,0,1,1.32.9c.18.37.74,1.48.36,27.64l.16,2.62.31-.16,4.41-1.72.52,3.45c1,3.39,1,15.6,1,17a4.27,4.27,0,0,1-3.14,4.24,4,4,0,0,0,.08,1.55c0,.11.68,3.4,1.18,5.6s1.31,8.66,1.35,8.93l.07.57L224,124.94c-2.79,4.22.15,11.3.18,11.38l.21.5-.18.52a17.65,17.65,0,0,0-.66,5.43l.12,2.78L221.35,144c-.3-.16-.93,0-1.67,1a3.43,3.43,0,0,1-3,1.71,3.77,3.77,0,0,1-2.79-1.81,7.41,7.41,0,0,0-.75-1.09H213c-.71.11-3.1,2-5.23,4.18-.25,2.93-1,4.74-2.28,5.53a2.61,2.61,0,0,1-1.52.4,8.81,8.81,0,0,0-1.37,1.71,3.32,3.32,0,0,1-2.75,1.75,2.87,2.87,0,0,1-1.14-.23,13.28,13.28,0,0,1-7,6.48l-.28.1-.3,0c-5-.39-9.86,6.74-11.62,10,.9,4.42,2.25,6.06,4.87,9.22.81,1,1.73,2.1,2.78,3.47.45.59.85,1.09,1.21,1.55,3.37,4.24,3.27,4.84,1.65,14.78l-.53,3.31c-1.65,10.38-.33,12.26,1.69,15.11a26.44,26.44,0,0,1,2.53,4.17c2.44,5.12,17.48,14.68,23.08,17.93l.12.08a7.8,7.8,0,0,0,6.21,1.63c4.69-.88,8.11-6.08,8.14-6.13,8.42-12.11,14.08-10.45,14.7-10.23l.12,0a23.9,23.9,0,0,1,11.67,14.06,5.77,5.77,0,0,0,1.18,2.55l0,0,1.77-1.21.42,2.1a8.22,8.22,0,0,0,2.57,4.82c1.42,1.26,3.45,1.53,5.61,1.81,2.9.38,6.18.8,8,4a28.69,28.69,0,0,1,2.63,8,33.73,33.73,0,0,0,1.69,5.92c.8,1.87,1.62,3.72,2.45,5.57.66,1.49,1.33,3,2,4.47l.79,1.82-2.52.2a37.42,37.42,0,0,0,0,3.87c1.08,2.69,1.06,9.53,1,10.92v.16a6.26,6.26,0,0,1-2,3.71c-1.24,1.27-4.88,2.47-6.42,2.93l-.2.06h-.21c-.89,0-4.55-.07-4.55-.07h-.22l-.21-.07a15.44,15.44,0,0,1-3.44-2.15l-.28-.22-.14-.33c-.44-1-3.88-3.84-6.81-5.82l-.19-.13-1.9-2.51a2.78,2.78,0,0,0-3.49-1.4l-.37.08c-1,.08-3.46,2-4.85,3.34l-.24.19c-1.8,1.12-3.17,4.64-3.55,5.9l-.07.19c-.62,1.34-4.29,9.53-4.32,9.61l-.15.25c-1,1.31-3.36,7-4.77,10.63a17.1,17.1,0,0,1-1.43,3.57c-.69,1.53-5.7,9.74-6.9,11.69-1,2.61-4.53,6.1-5.87,6.44a64.23,64.23,0,0,1-7.56.17h-.54l-.4-.36a25.94,25.94,0,0,0-2.61-1.5l-4.34-.21c-.68,0-4.73.38-8.34.82-1.35.47-5,1.52-5.2,1.57l-.32.05-3.6.16A11.14,11.14,0,0,1,188.56,344.4ZM174.3,329.16c2,2.42,7.19,8.78,8.69,10l.16.16a7.75,7.75,0,0,0,6.43,2.16l3.53-.16c1.24-.35,4.14-1.2,5-1.52l.32-.08c1.84-.23,7.95-1,9-.85l4.89.24.27.14c.68.35,2.15,1.13,3,1.7,2.64,0,5.59,0,6.32-.09a13.8,13.8,0,0,0,4-4.81l.12-.26c2.44-4,6.44-10.61,6.8-11.48l.06-.12a13.88,13.88,0,0,0,1.2-2.93l.08-.27c.36-.93,3.55-9,5.07-11.25.47-1,3.55-7.93,4.24-9.44.28-.9,1.79-5.45,4.6-7.31.85-.81,4-3.68,6.29-4a5.6,5.6,0,0,1,6.72,2.66l1.44,1.88c1.69,1.15,6.17,4.35,7.45,6.56a15,15,0,0,0,2.18,1.43l4,.06a18.91,18.91,0,0,0,5-2.12l.17-.16a3.55,3.55,0,0,0,1.1-1.87c0-3.32-.21-8.51-.88-9.83l-.13-.27,0-.3c-.07-1.41-.18-4.83.31-6.11l.32-.83.53,0-1.17-2.62c-.83-1.87-1.67-3.73-2.47-5.61a36.37,36.37,0,0,1-1.85-6.41,26.2,26.2,0,0,0-2.33-7.22c-1-1.86-2.91-2.19-5.87-2.57-2.37-.31-5.06-.66-7.13-2.5a10.42,10.42,0,0,1-3.11-4.94,2.56,2.56,0,0,1-.71-.15c-1.29-.46-2.24-1.88-3-4.46A21.39,21.39,0,0,0,245,231.32c-.4-.06-4.61-.53-11.33,9.15-.14.21-4.06,6.22-10,7.34a10.6,10.6,0,0,1-8.35-2.07c-1.47-.86-20.9-12.29-24.15-19.13a23.71,23.71,0,0,0-2.28-3.75c-2.56-3.62-3.92-6.21-2.17-17.19l.54-3.32c1.51-9.3,1.51-9.3-1.08-12.56-.37-.46-.78-1-1.24-1.59-1-1.33-1.92-2.42-2.71-3.38-2.82-3.42-4.53-5.48-5.56-11l-.09-.47.22-.43c.26-.51,6.33-12.31,14.25-12a10.42,10.42,0,0,0,5.71-6.41l.86-2.78,1.65,2.39a1.45,1.45,0,0,0,.57.47,1.79,1.79,0,0,0,.39-.45c.62-1,1.9-2.77,3.25-3l.44-.09.17.07c.19-.21.74-1,.91-3.76l0-.52.36-.38c1.41-1.46,4.74-4.72,6.94-5.32a1.82,1.82,0,0,1,1-.26h0c1.36,0,2.36,1.4,3.08,2.62a1.26,1.26,0,0,0,.48.43,1.68,1.68,0,0,0,.53-.54,4.78,4.78,0,0,1,3.34-2.21,18.72,18.72,0,0,1,.63-4.23c-.71-1.92-2.89-8.79.32-13.62l4.18-5.47c-.21-1.63-.82-6.3-1.22-8.07-.51-2.24-1.18-5.57-1.18-5.6-.42-1.6-.32-3.87,1.4-4.76l.22-.11.25,0c.3-.05,1.08-.32,1.11-1.56,0-3.68-.16-13.84-.89-16.24l-.05-.24-1,.38-4,2.42-.45-7.41v-.05c.11-7.81.19-19.8,0-24.6-1.1,1.16-2.61,3-3.85,4.59l-.07.08-9.53,10.71-1-.68c-.48-.32-4.74-3.23-5.58-6.6a14.76,14.76,0,0,0-.55-1.64c-.86-2.27-1.94-5.09.37-10.88a46.45,46.45,0,0,1,7.34-12.12c1.67-2.48,6-9.28,6.89-12.23l0-.13c1.93-4.75,4.56-11.42,5.55-14.29a11.89,11.89,0,0,0-4.89,2l-.13.1c-1,.73-10.3,7.17-13.19,8.18-.66.23-1.39.51-2.15.79-3.26,1.22-5.36,2-6.64,1.83-2.1,0-4.82.24-5.58.74l-.23.16-.27.05A8.33,8.33,0,0,0,184,23.73l-.63.42-.7-.29c-3.3-1.35-7-2.83-7.47-3l-.3-.08-.26-.21-.09,0a5.17,5.17,0,0,0-.75,2.23l-.08.44-.31.31h0s-1.1,1.48-.24,5.7c.05.29,1.16,6.45,1.31,8.06a43,43,0,0,1,.18,4.92,23.48,23.48,0,0,1-.7,5l0,.11L172.28,51l-1.1-.21c-2.82-.53-5.85-.78-6.49-.55l-.64.32-.45-.27c-.27,0-1.08.3-1.82,2.11a10.76,10.76,0,0,1-.68,4.73,1.53,1.53,0,0,1-.13.39c-.53,1.06-1.86,1.17-4.29,1a54.18,54.18,0,0,0-10.07,0,27.1,27.1,0,0,0-4,.75l0,0-.2.1a2.23,2.23,0,0,1-2.09-.09c-.92-.54-1.4-1.64-1.49-3.35a30.3,30.3,0,0,1,.56-6.21l.05-.15c0-.08,3.27-8.34-.95-12A7,7,0,0,0,130,41l-3.72,6c-.19.2-4.69,4.67-10.09,5.78-.9.77-3.13,2-6.81,0L104.55,52V48.73l.11-.26s1.79-4.54-.86-7.14l-.18-.18-.11-.23c-1.08-2.27-4.11-8.32-5.83-10.56-.66.49-1.45,1.06-1.87,1.33-.63.55-2.8,2-7.16.78a7.73,7.73,0,0,1-4.84-3.34l-.62.44-.84-.73a75,75,0,0,0-6.12-5c-.42-.1-1.33-.5-3.54-2.33l-.31.16-.29,7.23v1.19l1.74,2.76,2.78-1c1.6-.44,3.75-.35,4.49,1.39.55,1.28,1.79,5.94,1.93,6.46l0,.21a21.52,21.52,0,0,1,.07,4.89c-.23,1.92-.71,5.24-1.49,6.28l-.13.15a21.49,21.49,0,0,1-1.7,1.57l-1,1.3v2.1L82,61.25l-.54,4.06-3.09-.5a35.39,35.39,0,0,1,1.25,7.05c.07,1,.43,6.77,0,9l-2.33,8.59c-.29.82-2.93,8-4.76,10.22l-.46.6c-.56,2.64-1.24,5.73-1.56,6.61l-.85,2.69-.08,2.74a3.16,3.16,0,0,0,1,1.19l.21.06c.31.11,3,1.25,4.38,6.07l.05.33.18,4.83a16.07,16.07,0,0,1-.71,4.29c-.5,2.06-2.74,11.17-3.38,13a18.14,18.14,0,0,1-1.94,5.54l-2.51,5.18A37,37,0,0,0,68,166.71l0,.13c1.35,6.52,3.87,17.56,4.91,19.41l.1.21,1.12,3.06c.34-2.69.77-3.19.95-3.4l.25-.29.36-.13a5.72,5.72,0,0,1,4.67.44c1.42.9,2.27,2.5,2.5,4.75v.1c.1,3.21.72,12.16,2.37,14.94l.07.14c0,.07,3.1,6.86,6.27,9.27.71.44,7.16,4.51,9.42,6.63,1.58.77,5.11,2.49,6.1,2.92a6.22,6.22,0,0,1,3.72,2.23,21.43,21.43,0,0,0,2.22,1c.33.15,6.12,2.93,7.34,7.62a36.43,36.43,0,0,1,3.89,11.74v.12c0,.1.67,9.81,3.42,13.73,3.1,4,9.66,12.14,12,14.07l.18.14.12.19c.08.13,8.29,13.06,9.85,15.14a59.76,59.76,0,0,1,5.19,8.58c.17.51,1.75,3.56,2.6,5.19.54,1,1,2,1.23,2.41.49.81,5.13,8.39,5.85,9.7l2,3.6C167.81,321.58,173.29,327.64,174.3,329.16Zm47.6,11.77ZM77.41,187.82Zm126.76-34ZM159,55.7ZM219.94,50ZM76.17,23.82h0Z"/></svg>