<svg id="Layer_1" data-name="Layer 1" xmlns="http://www.w3.org/2000/svg" viewBox="0 0 350 350"><defs><style>.cls-1{fill:#999;}.cls-2{fill:#f90;}</style></defs><title>M</title><path class="cls-1" d="M127.35,288.49l46.32-27.79,4.63-24.49-4-9.26,9.26-11.25,13.9,24.49s2.65,2,15.88-10.59,21.84-18.53,21.84-18.53l5.29-2.65,9.93,9.93,21.84-9.93,24.49-19.19-27.13-12.57,54.93-55.59L343.75,88,333.16,61.51,300.74,86.65s-23.82,18.53-61.54,2.65c0,0-18.53-12.57-43-10.59s-53.6,7.94-53.6,7.94l-33.09,13.9L63.16,119.74,14.85,141.58l-8.6,7.28,43,32.43s27.79,11.91,31.1,23.82,5.29,35.07,4.63,43,7.28,22.5,7.28,22.5l28.46,8.6Z"/><path class="cls-2" d="M127,290.38l-7.1-9.94-28.55-8.63L91,271.3c-.33-.61-8.14-15-7.45-23.3.63-7.54-1.25-30.53-4.59-42.52-1.25-4.52-6.84-9.89-16.16-15.55a128.62,128.62,0,0,0-14.13-7.35l-.29-.17L4,148.92l10.11-8.55.18-.08,48.31-21.84,46.37-19.21,33.35-14c.29-.06,29.48-6,53.77-8A73.81,73.81,0,0,1,239.87,88c19,8,34.28,6.87,43.75,4.55,10.3-2.53,16.19-7,16.25-7.06l33.91-26.3,11.54,28.86-19.76,34-53.51,54.15,27.4,12.7-26.59,20.79L250.13,220l-9.9-9.9-4.29,2.14a211,211,0,0,0-21.59,18.34c-12.27,11.66-16.36,11.71-17.71,10.69l-.24-.18-.15-.26-12.88-22.69-7.41,9,3.8,8.87L175,261.59ZM93.25,269.44,121.61,278l6.14,8.59,44.66-26.79,4.43-23.44-4.14-9.66,11.12-13.51,14.56,25.65c1.08-.18,4.79-1.51,14-10.29,13.16-12.5,21.65-18.42,22-18.67l.17-.1,6.21-3.1,10,10,20.79-9.45,22.53-17.66-26.86-12.45,56.22-56.89,18.75-32.34-9.63-24.08-30.94,24c-.24.19-24.92,18.85-63,2.83l-.25-.13c-.18-.12-18.43-12.27-42.11-10.35C173,82,145.18,87.57,143,88l-33,13.84L63.7,121.05,15.62,142.79l-7.1,6L50,180.05c2.52,1.1,28.4,12.6,31.75,24.68,3.4,12.25,5.32,35.78,4.68,43.51C85.86,254.87,91.89,266.84,93.25,269.44Z"/></svg>