<svg id="Layer_1" data-name="Layer 1" xmlns="http://www.w3.org/2000/svg" viewBox="0 0 350 350"><defs><style>.cls-1{fill:#999;}.cls-2{fill:#f90;}</style></defs><title>M</title><path class="cls-1" d="M340.81,103.1l-78.88,13.07L249.27,83.93s-10-22.67-12.17-23.11l.44-5.67L223.15,43.83,183.06,78.69,170.42,65.62,140.36,90l2.18,4.36-13.07.44-10.89,10.46s1.74,25.71-4.36,29.2-27,13.94-27,13.94-5.23,20.48-7,29.2-4.36,12.64-17.87,15.69-29.2,7.41-30.5,16.12,28.76,20,28.76,20S16.16,260,5.7,284.82l37.91,21.35,14.82-18.3,17.43-13.07v-8.72L95,258.67l-.87-17.87,8.72,2.18s-.44-17.87,17.43-3.05l7-9.59,2.18-3.49,6.54-6.54,4.79,9.59-3.05,4.36s11.77,16.12,25.27,4.79l10.24-3.92L166.94,226l13.51-8.28-7.19-4.36,18.08-23.1-.44-3.49s18.74-5.23,21.35-5.23,10.89-2.18,10.89-2.18l4.79.44,1.74-2.18s10.46,3.49,10.46,7,13.07-12.2,13.07-12.2h6.54l4.79-5.67L275.45,175l15.69,3.05s13.07-19,19.17-22.8,34-43.87,34-43.87S335.58,107.45,340.81,103.1Z"/><path class="cls-2" d="M44,308,3.9,285.43l.49-1.16c9.29-22.05,44.05-47.88,53.24-54.43-8.21-3.29-28.43-12.3-27.18-20.62,1.39-9.25,16-13.78,31.59-17.3,13.21-3,15.18-6.55,16.79-14.58,1.73-8.65,6.94-29.06,7-29.27l.16-.63.58-.29c.21-.1,21-10.48,26.95-13.91,3.88-2.22,4.3-18.27,3.65-27.87l0-.66,11.76-11.29L140.28,93l-1.7-3.4,32-25.94,12.61,13,40-34.75L239,54.52l-.44,5.68c1.52,1.58,4.7,6.6,12,23.17l12.27,31.22,82.89-13.74-4,3.34c-1.28,1.06-1.18,1.77-1.15,2,.22,1.58,3,3.31,4.31,3.9l1.56.7-1,1.4c-2.87,4.13-28.24,40.44-34.41,44.27-5.78,3.58-18.62,22.21-18.75,22.4l-.53.77-16.92-3.29-10.09-7.67-4.35,5.14h-6.53c-11.35,13.56-13.07,12.93-14,12.6a1.81,1.81,0,0,1-1.17-1.82c0-1.21-4-3.64-8.56-5.3l-1.59,2-5.31-.48c-1.57.41-8.47,2.16-11,2.16-1.67,0-12.55,2.85-19.79,4.85l.36,2.86L175.36,213l7.81,4.73L169,226.41l6.49,9.4-11.71,4.48c-4,3.25-8.18,4.63-12.53,4.1-8.49-1-14.37-9-14.61-9.3l-.6-.82,3.15-4.5-3.54-7.07-5,5-2.09,3.35L120.57,242l-1.16-1c-5.45-4.52-9.79-6.37-12.21-5.2s-2.94,5.55-2.9,7.13l0,1.85-8.66-2.16.83,17L77.28,267v8.45L59.42,288.89ZM7.52,284.21l35.75,20.14,14.31-17.61,16.86-12.65v-9l19.13-7.39L92.65,239l8.9,2.23c.25-2.36,1.17-6.35,4.4-7.92,3.41-1.65,8-.14,14.08,4.62l6.1-8.38,2.32-3.65,7.93-7.93,6.05,12.1-2.92,4.18c1.62,1.9,6.23,6.68,12.05,7.39,3.61.44,7.16-.78,10.54-3.62l.18-.15,8.78-3.36-6.14-8.9,12.8-7.85-6.57-4,18.71-23.89-.51-4.11,1.18-.33c3.16-.88,19.06-5.28,21.73-5.28,2,0,8.28-1.54,10.53-2.13l.24-.06,4.28.39L229.2,176l.94.31c2.36.79,9.43,3.4,11.08,6.87,2.19-1.73,7-7,10.91-11.66l.43-.51h6.54l5.24-6.19,11.7,8.89,14.46,2.81c2.56-3.66,13.43-18.95,19.06-22.44,4.62-2.86,24.32-30.24,32.66-42.17-1.67-1-4.12-2.86-4.46-5.31a4.13,4.13,0,0,1,.08-1.54L261,117.76,248,84.45c-4.37-9.92-9.76-20.85-11.34-22.28l-1-.21.47-6.16L223.2,45.67,183,80.65,170.31,67.54,142.13,90.41l2.66,5.32-14.74.49-10,9.63c.34,5.65,1.15,26.28-5.11,29.86-5.57,3.18-23,11.95-26.51,13.69-.89,3.51-5.25,20.77-6.8,28.5-1.85,9.24-4.89,13.62-18.94,16.79s-28.28,7.37-29.41,15c-.44,2.93,6.73,10.55,27.86,18.51l2.54,1-2.24,1.54C61,230.94,18.56,260.25,7.52,284.21Z"/></svg>