<svg id="Layer_2" data-name="Layer 2" xmlns="http://www.w3.org/2000/svg" viewBox="0 0 350 350"><defs><style>.cls-1{fill:#999;}.cls-2{fill:#f90;}</style></defs><title>M_</title><path class="cls-1" d="M338.72,77.31c.76-1.38-.8-3.13-2.23-2.23-5.25,3.32-12.68,7.72-18.78,4.28-4.45-2.51-5.51-7.62-11.21-8.23-9.65-1-14.27,8.19-16.84,16A24.63,24.63,0,0,1,278.87,67.3a1.68,1.68,0,0,0-1.2-1.57c-2.51-.83-6.4-1.37-8.71.42-2.89,2.25-4.93,8.6-6.66,11.79-2.35,4.33-5.7,10.52-2.51,14.95C251.85,98.5,242,99.46,232.47,100c-10.91.66-21.83,1.18-32.74,1.77-1.28.07-2.31,1.81-1.15,2.78a34.43,34.43,0,0,1,7.67,42.81,23.85,23.85,0,0,0,.29-3l-.9-.14L203.23,138l-.24-5.54s-2.84-.52-3-.52-7.57,4.12-8.14,4.35-1.85,3.31-3.79,5.49-7.29,5.77-7.9,6.48-1.14.85-3.5.57a8.26,8.26,0,0,0-5.16,1.47c-.95.52-3.5,4.45-3.5,4.45-.33.85-.52,2.46,2.13,2s4.16-1.42,3.74-.76a22.83,22.83,0,0,0-1.47,4c-.52,1.66-3.41,11.45-3,10.55s4.21-3.6,4.21-3.6,8-3.83,8.47-3.31A8.68,8.68,0,0,1,183.4,167c.24,1.28,1,.33,1.7.8s8,8,8,8l4.35,1.85-2.08,6-3.93,5.16-5.72,5.82-5.82-1.28L175,194.64s-4.16-1.75-4.21-1.89,0-3.26,0-3.93-2.22-4.49-2.27-5.2.19-2.74-.61-3.79-10.69-7.81-10.74-6.58-5.49,12.4-5.91,12.35-6.29-5.58-6.81-3.88-11.21,10.79-12.73,10.79-6,.33-6,.33l-3.55,3.79s.19,0-1.7-1.61-3.55-.28-5.58,0-7.9,1.56-9.56,3.12-4.21,4.16-4.45,5.35-4.68,4.12-8.23,4.12-1.61.43-4.54-.95-9.32-4.45-11-4.07-3.45,2.89-4.68,3.69-4.16,3.88-5.16,3.74-1.37-3.5-3.55-5.68-3.79-6.06-5-8.52-4.92-11.26-4.83-13.72-2.27-1.32-3.79-1.32-4.54,3.12-5.2,4.07-.66,5.68-1.14,7.85.09,9.46.09,9.75,2.55,2.27,3.12,4.73a41.64,41.64,0,0,1,.19,11c-.38,3.5,2.37,13.11,1.87,13.41s-16.61,0-17.53-.12-15.66-.06-15.66-.06c-1.62-.89-2.69-2.13-2.82-1.74s-1.17,2.9-1.56,4.06a19.78,19.78,0,0,0-.25,5.31c.07,1.51,1.64,4.22,2.83,5.9s.82,1,2.85,2.41,2,2.5,2.77,3.32,4.33,2.82,5.45,3.83,4.7,2.93,6.15,4.09,3.88,1,6.2,2,7.71,1.77,10.57,3,9.08.64,10.67.9,3.83-1.28,5-1.47,5.61-4.8,5.61-4.8,4.94-.59,5.84-.12,1.3,2.48,1.35,2.39,2.15-2.58,2.7-3.5,3.43-.66,5.7.07a9,9,0,0,1,3.43,1.8c1.44.92,3.05-.28,6.29.12s3.19-.33,7.38,1.21,4.83,1.06,6.06,1.14,3.67-.62,4.85-.4,4.87,3.71,7.57,5.73,3.52,5.28,4.28,7.81,3.15,6.67,4,9.44c.13.43.26.8.39,1.15,5-5.18,12.47-9,17.88-11.62A42.63,42.63,0,0,1,164.42,269c7.24-.31,15,.53,17.72-7.74,1.92-5.91,3.23-11.86,5.67-17.61,1.46-3.45,3.45-4.85,6.33-7.12,4.05-3.2,8.14-5.6,13.45-5.5,6.46.12,12,2.1,18.61.74a2.17,2.17,0,0,1,2.47,1.25l1.62-.49c8.8-2.65,6.15-4.26,10.5-5.11s4.26.28,5.77,3.79,3.5,3.88,5.58,6.34S261,241.25,263,240s-.09-5.39,1.8-6.81,1.42,0,4.73-.09,3-3.5,5.49-4.73,2.18.85,4.16,2.27,1.42-.38,1.7-2.74,3.5-2.74,6-2.74,4-.95,4.16-2.74-3.22-8.9-4.26-11.36,2.08-11.07,3.88-14.1,1.8-6.72-1.89-8.33-12.49-17.7-12.49-17.7L267,168.11a20.19,20.19,0,0,0-.91-5.14,37.53,37.53,0,0,1,12.21-4.68c1.49-.31,1.44-2.23.39-3a15.8,15.8,0,0,0-4.28-2.2,87.09,87.09,0,0,0,5.31-8.76c1.16-2.22,2.61-7.67,4.92-8.7,6-2.67,4.26,6.52,4.93,9.41A11,11,0,0,0,293,150.3c4.91,4.65,10.74,8.1,15.49,13a86.32,86.32,0,0,1,14.1,19.74,1.64,1.64,0,0,0,2.81,0c4.64-9.82-1.32-18.88-6.22-27.27-3.41-5.83-6.42-12.5-3.44-19.16,1.91-4.25,5.59-7.51,9-10.58,5.63-5.12,12.25-10.58,13.37-18.6,1-7.43-3-14.33-9.26-17.89A44,44,0,0,0,338.72,77.31Zm-75.44,95.46a18.51,18.51,0,0,1,.48-4.11A16.29,16.29,0,0,1,263.28,172.77Z"/><path class="cls-2" d="M128.55,287.63l-.8-2.07c-.14-.38-.29-.78-.43-1.25a39.38,39.38,0,0,0-2-4.72,38.2,38.2,0,0,1-2-4.71l-.14-.48c-.69-2.34-1.48-5-3.63-6.6-1-.74-2.09-1.66-3.16-2.55a28,28,0,0,0-3.87-2.93,11.38,11.38,0,0,0-2.18.21,13,13,0,0,1-2.45.23,5.59,5.59,0,0,0-.59,0c-1,0-2.29.09-5.87-1.23a10.92,10.92,0,0,0-4.5-1,21,21,0,0,1-2.56-.16,11.47,11.47,0,0,0-3.24.1,5,5,0,0,1-3.64-.44c-.43-.27-.72-.48-1-.66a5.69,5.69,0,0,0-2.14-1,9.18,9.18,0,0,0-4.16-.52c-.47.73-1.41,1.9-2.27,3l-.32.4-.37.74-1-.07A1.55,1.55,0,0,1,75,260.68a4.35,4.35,0,0,0-.56-1.29,25.6,25.6,0,0,0-4.52.19c-3,3.05-5,4.68-6,4.85a8.21,8.21,0,0,0-1.32.5,7.81,7.81,0,0,1-4.15,1,23.51,23.51,0,0,0-2.42-.06c-2.68,0-6.35,0-8.57-.93A38.56,38.56,0,0,0,42,263.38a33.57,33.57,0,0,1-5.15-1.46,14.22,14.22,0,0,0-2.75-.79,8.77,8.77,0,0,1-3.76-1.43c-.62-.5-1.76-1.2-2.87-1.88a27.32,27.32,0,0,1-3.35-2.27,26.35,26.35,0,0,0-2.53-1.74,16.88,16.88,0,0,1-3-2.2,5.78,5.78,0,0,1-.75-1.14A4.71,4.71,0,0,0,16,248.51c-.58-.4-1-.62-1.23-.77a5.1,5.1,0,0,1-2-2c-.5-.71-3-4.34-3.08-6.65a18.42,18.42,0,0,1,.32-5.83c.26-.77.77-2.06,1.15-3,.21-.51.37-.92.42-1.06l.23-.69.76-.28c.84-.26,1.46.23,2.18.78a14.56,14.56,0,0,0,1.37,1c2.64,0,14.5,0,15.39.06,1.06.08,12.16.29,15.92.22-.13-.73-.33-1.69-.5-2.53-.68-3.33-1.53-7.47-1.28-9.73a40.18,40.18,0,0,0-.16-10.51A8.64,8.64,0,0,0,43.25,204c-.54-.57-.89-.94-.89-1.59l0-.45c-.21-3.24-.43-7.76,0-9.6a31.87,31.87,0,0,0,.4-3.37c.23-2.63.38-4.17,1-5,.41-.58,3.88-4.67,6.37-4.67a7.18,7.18,0,0,0,1-.11c1.07-.17,2.39-.38,3.38.5a2.9,2.9,0,0,1,.86,2.41c-.07,1.93,3.28,10.24,4.68,13,.22.45.46.94.71,1.46,1.08,2.26,2.43,5.07,4,6.69a13.16,13.16,0,0,1,2.62,4.28c.1.23.22.5.33.73.63-.43,1.56-1.25,2.13-1.74a19.77,19.77,0,0,1,1.86-1.51,10.79,10.79,0,0,0,1.29-1.18c1.11-1.12,2.38-2.38,3.87-2.71,1.75-.38,5.33,1.07,11.35,3.9l.58.27c.75.35,1.2.59,1.49.75l.24.13.31,0c.38,0,.95,0,1.89,0a11.12,11.12,0,0,0,6.87-3.09c.13-.56.66-2,4.84-6,2.4-2.27,10.26-3.48,10.33-3.5a10.32,10.32,0,0,0,1.41-.34c1.48-.43,3.32-1,5.27.65l.78.65,2.91-3.11.55,0c.18,0,4.28-.32,5.93-.33,1.86-.69,10.76-8.28,11.54-9.86a1.78,1.78,0,0,1,1.2-1.17c1.4-.43,3.13.71,6.5,3.43l.1.08c1.47-2.66,4.64-9.28,4.86-10.46a1.51,1.51,0,0,1,1.08-1.34C159,171,168.58,178.47,169,179a6.63,6.63,0,0,1,.91,4.08c0,.16,0,.29,0,.4.12.36.63,1.4,1,2.1,1,1.93,1.3,2.66,1.3,3.28,0,1.6,0,2.52,0,3,.69.31,1.83.81,2.92,1.27l4.78-1.33,5.4,1.19,5.11-5.2,3.74-4.91,1.57-4.5L192.29,177l-.2-.2c-3.15-3.23-6.72-6.84-7.65-7.7a2,2,0,0,1-2.43-1.84,9.64,9.64,0,0,0-.67-2.1c-1.38.45-4.43,1.78-7,3a25.24,25.24,0,0,0-3.68,3l-.57,1.2-1.24-.48c-1.23-.48-1-1.49-.5-3.15.24-.88.58-2.06.93-3.29.72-2.48,1.5-5.11,1.75-5.91.19-.61.36-1.15.52-1.64-.37.09-.78.17-1.22.24-1.58.26-2.73,0-3.41-.9a3,3,0,0,1-.26-3.05l.13-.26c1-1.58,2.91-4.31,4-4.92l.28-.16a9.11,9.11,0,0,1,5.72-1.47c2,.24,2.09.11,2.26-.09a19.87,19.87,0,0,1,2.43-2A46.33,46.33,0,0,0,187,140.8a22.73,22.73,0,0,0,2.44-3.58c.78-1.32,1.17-2,1.85-2.27.27-.12,2.12-1.13,3.6-1.94,4.62-2.52,4.62-2.52,5.08-2.52a28.56,28.56,0,0,1,3.28.54l1.11.2.28,6.44,2,5.36.11,0a33.11,33.11,0,0,0-9.12-37.38,2.77,2.77,0,0,1-.85-3.06,3.27,3.27,0,0,1,2.84-2.22l10.7-.56c7.22-.38,14.69-.77,22-1.21,9.24-.56,18.14-1.46,25.5-6.16-2.38-5,.92-11.05,3.16-15.19.48-.88,1-2.05,1.55-3.3,1.48-3.34,3.16-7.13,5.49-8.94,3.33-2.58,8.52-1.15,10-.65a3.11,3.11,0,0,1,2.17,2.87,23,23,0,0,0,8.65,17.6c2-5.6,6.81-16.31,17.71-15.13,4,.43,6.06,2.82,7.91,4.92a15,15,0,0,0,3.84,3.48c5.18,2.92,11.66-.66,17.33-4.24a2.87,2.87,0,0,1,3.59.36A3.1,3.1,0,0,1,340,78h0a45.33,45.33,0,0,1-8.78,11.37,19.13,19.13,0,0,1,8.33,18.29c-1.12,8-7.24,13.51-12.65,18.4l-1.54,1.39c-3.22,2.92-6.55,5.95-8.26,9.77-2.7,6,0,12.14,3.37,17.87l.84,1.43c4.75,8.07,10.14,17.22,5.44,27.17a2.88,2.88,0,0,1-2.58,1.61,3.09,3.09,0,0,1-2.77-1.55,85.25,85.25,0,0,0-13.87-19.42,74.11,74.11,0,0,0-8.29-7.07,91.16,91.16,0,0,1-7.15-5.92,12.48,12.48,0,0,1-3.86-5.94,17.09,17.09,0,0,1-.24-3.23c0-1.83-.09-4.89-1-5.47-.3-.19-.93-.1-1.74.26-1.15.51-2.39,3.64-3.14,5.51-.38,1-.75,1.87-1.1,2.55a85,85,0,0,1-4.41,7.43,18.31,18.31,0,0,1,2.93,1.71,3.29,3.29,0,0,1,1.3,3.32,2.77,2.77,0,0,1-2.21,2.2,39.06,39.06,0,0,0-10.84,3.93,21.69,21.69,0,0,1,.6,3.43l8.9,2.71.28.51c3.56,6.5,9.58,16.1,11.81,17.08a6.22,6.22,0,0,1,3.62,3.79,8.17,8.17,0,0,1-1.07,6.56c-2,3.36-4.48,11.2-3.79,12.82.2.47.48,1.1.81,1.84,2.48,5.56,3.71,8.67,3.55,10.21-.26,2.51-2.35,4-5.57,4-1.32,0-4.39.15-4.55,1.5-.06.52-.08,1-.09,1.44,0,1.15-.09,2.35-1.17,2.88a2.68,2.68,0,0,1-2.68-.58,7.64,7.64,0,0,1-1.79-1.88c-.12-.17-.28-.38-.38-.49a2.44,2.44,0,0,0-.54.21,4.27,4.27,0,0,0-1.54,1.77c-.78,1.28-1.85,3-4.54,3.11a8.17,8.17,0,0,1-3.17-.45l-.23-.08a3.3,3.3,0,0,0-.52.34c-.33.25-.3,1.33-.27,2.2.05,1.54.13,3.64-1.66,4.7-2.84,1.68-10.3,0-12.69-2.76a15.15,15.15,0,0,0-2-1.93,11.56,11.56,0,0,1-3.77-4.76c-.17-.38-.31-.74-.45-1.06-1-2.43-1-2.43-3.75-1.89a4.15,4.15,0,0,0-2.54,1.22c-1.07,1-2.53,2.26-7.83,3.86l-2.78.84-.52-1.09a.76.76,0,0,0-.9-.47c-4.41.91-8.42.39-12.29-.11a59.83,59.83,0,0,0-6.63-.61h-.27c-5,0-8.85,2.5-12.28,5.2l-.56.44c-2.48,1.95-4.12,3.24-5.34,6.12a98.82,98.82,0,0,0-3.78,11.35c-.58,2-1.18,4.09-1.85,6.15-2.7,8.3-10.09,8.49-16.61,8.65l-2.4.07a41.06,41.06,0,0,0-16.91,4.27c-6.06,2.93-12.87,6.57-17.48,11.33Zm-16.24-28.16a4.54,4.54,0,0,1,.8.06c1.08.19,2.5,1.34,5.13,3.53,1,.86,2.11,1.76,3,2.45,2.91,2.17,3.88,5.44,4.66,8.07l.14.47a37.31,37.31,0,0,0,1.83,4.32c.65,1.39,1.32,2.82,1.8,4.1,4.77-4.3,11-7.61,16.64-10.33a43.77,43.77,0,0,1,18-4.55l2.45-.08c6.39-.16,11.9-.29,14-6.69.65-2,1.25-4.07,1.82-6.06a102.55,102.55,0,0,1,3.89-11.67c1.51-3.56,3.58-5.18,6.2-7.24l.56-.44c3.9-3.08,8.36-5.91,14.35-5.81a62.06,62.06,0,0,1,6.95.63c3.81.49,7.41,1,11.35.14a3.53,3.53,0,0,1,3.31,1l.65-.2c4.69-1.41,5.83-2.43,6.75-3.26a6.85,6.85,0,0,1,3.88-1.89c4.58-.89,5.57.34,6.92,3.59.13.31.27.65.43,1a8.82,8.82,0,0,0,3,3.71,18,18,0,0,1,2.39,2.28c1.69,2,7.68,3,9.08,2.16.34-.2.3-1.29.27-2.16-.05-1.53-.12-3.43,1.4-4.57a3.09,3.09,0,0,1,3.36-.68,5.52,5.52,0,0,0,2.18.3c1.11,0,1.45-.53,2.2-1.75a6.75,6.75,0,0,1,2.7-2.83c2.68-1.34,3.81.22,4.48,1.15.17.23.33.46.52.67,0-.36,0-.77.09-1.19.32-2.65,2.8-4,7.37-4,1.72,0,2.65-.5,2.75-1.48.07-1.17-2.39-6.68-3.32-8.76-.34-.76-.63-1.41-.83-1.89-1.41-3.33,2.4-12.73,4-15.38a5.39,5.39,0,0,0,.81-4.25,3.43,3.43,0,0,0-2.05-2.06c-3.73-1.63-10.88-14.17-12.89-17.81l-9.7-3,0-1a18.35,18.35,0,0,0-.46-3.34l.05,3.82a17.63,17.63,0,0,1-.52,4.46L261.77,185l.09-12.26a19.81,19.81,0,0,1,.52-4.42L265,157.09l.07,4.84.22-.15c4.43-3,10.36-4.4,12.7-4.89a.42.42,0,0,0-.14-.43,14.3,14.3,0,0,0-3.9-2l-1.79-.59,1.06-1.56a85.26,85.26,0,0,0,5.23-8.62c.29-.55.62-1.39,1-2.28,1.13-2.85,2.42-6.08,4.62-7.06,1.77-.78,3.25-.8,4.41-.06,2.19,1.4,2.25,4.8,2.3,7.81a16.39,16.39,0,0,0,.16,2.64,9.9,9.9,0,0,0,3,4.52,88.71,88.71,0,0,0,6.93,5.73,76.36,76.36,0,0,1,8.6,7.35,88.08,88.08,0,0,1,14.33,20.06.39.39,0,0,0,.31,0c4-8.55-.74-16.65-5.35-24.48l-.84-1.44c-3.55-6.07-6.73-13.25-3.51-20.46,2-4.37,5.67-7.74,8.94-10.71l1.54-1.4c5.29-4.78,10.77-9.72,11.74-16.68a16.48,16.48,0,0,0-8.56-16.46l-1.74-1,1.52-1.31a42.49,42.49,0,0,0,9.57-11.87h0a.2.2,0,0,0,0-.2.32.32,0,0,0-.17-.17C332.65,79.19,324.1,84.6,317,80.6a17.69,17.69,0,0,1-4.58-4.09c-1.72-2-3.21-3.66-6.08-4-6.77-.73-11.78,4.19-15.34,15.06l-.59,1.8-1.56-1.08a26.19,26.19,0,0,1-11.4-21c0-.06,0-.19-.23-.27-2.31-.77-5.63-1.17-7.39.2s-3.36,5-4.64,7.85c-.58,1.3-1.12,2.53-1.65,3.5-2.23,4.11-5.28,9.73-2.61,13.44l.84,1.16-1.17.83c-8.17,5.76-18.34,6.82-28.05,7.4-7.35.44-14.83.83-22.06,1.21l-10.7.56a.46.46,0,0,0-.31.32,35.85,35.85,0,0,1,8,44.55l-3.85,6.8,1.21-7.72c.09-.57.15-1.1.19-1.53l-.44-.07-2.79-7.32-.2-4.63-1.44-.25c-.74.38-2.56,1.37-3.95,2.13-2.18,1.19-3.17,1.73-3.63,2-.17.23-.48.76-.74,1.2a25.3,25.3,0,0,1-2.77,4,47.5,47.5,0,0,1-5.9,4.92c-.85.64-1.81,1.36-2,1.56-1.13,1.3-2.37,1.32-4.73,1a6.47,6.47,0,0,0-4,1.12l-.32.18a25.63,25.63,0,0,0-2.9,3.84v.05a3.46,3.46,0,0,0,.64-.05,16.69,16.69,0,0,0,2.73-.71c.77-.26,1.74-.58,2.41.29a1.52,1.52,0,0,1,0,1.83,24.84,24.84,0,0,0-1.31,3.63c-.29.91-1.08,3.58-1.77,6l.83-.6.21-.12c8.95-4.29,9.42-3.77,10.13-3a9.19,9.19,0,0,1,1.56,3.56,2.2,2.2,0,0,1,1.24.41c.67.48,5.66,5.57,8,8l5.31,2.25-2.59,7.43-4.18,5.47-6.28,6.38-6.24-1.37-5.06,1.41-.46-.19c-4.75-2-4.77-2-5-2.75-.09-.27-.12-.36-.12-4.25-.12-.38-.65-1.43-1-2.14a10.23,10.23,0,0,1-1.27-3.09c0-.17,0-.41,0-.7a5,5,0,0,0-.31-2.31,61,61,0,0,0-8.67-5.83c-1.31,3.46-5,11-5.89,11.78l-.47.4-.67,0c-.53-.06-.82-.3-2.07-1.31a31.41,31.41,0,0,0-3.73-2.72c-2.31,3.06-11.49,10.94-13.58,10.94-1.14,0-4.08.2-5.31.29l-2.9,3.1-.11.47-5.52,1.39,2.36-2.52-.64-.54c-.76-.63-1.34-.5-2.68-.11a12.9,12.9,0,0,1-1.8.42c-2.74.38-7.64,1.68-8.78,2.75-2.74,2.58-3.91,4.17-4,4.61-.45,2.25-5.93,5.24-9.62,5.24-.87,0-1.4,0-1.75,0a3,3,0,0,1-2-.44c-.27-.15-.68-.36-1.36-.68l-.58-.27c-2-1-8.21-3.86-9.55-3.69a7.77,7.77,0,0,0-2.46,1.94,12,12,0,0,1-1.74,1.55,19.82,19.82,0,0,0-1.55,1.28c-2.1,1.83-3.35,2.85-4.58,2.68s-1.75-1.34-2.33-2.68a10.7,10.7,0,0,0-2-3.4c-2-2-3.42-5-4.6-7.47-.24-.5-.47-1-.69-1.41-.91-1.81-5.09-11.35-5-14.41,0,0,0-.08,0-.12a8.76,8.76,0,0,0-1,.12,9.09,9.09,0,0,1-1.4.15c-.78.1-3.29,2.39-4,3.46a23.25,23.25,0,0,0-.46,3.61,33.15,33.15,0,0,1-.45,3.73c-.17.76-.28,2.9.09,8.82v.12l.15.15a11,11,0,0,1,3,4.77c.62,2.69.6,7.93.22,11.45-.2,1.82.63,5.89,1.24,8.86.86,4.2,1,5,0,5.61s-18.22.1-18.38.09c-.69,0-9.68-.06-15.55-.06h-.36l-.32-.17a12.9,12.9,0,0,1-1.42-.92c-.34.85-.73,1.85-.93,2.44-.11.31-.33,1.41-.17,4.79,0,.92,1.15,3.13,2.57,5.15.64.91.64.91,1.1,1.18.3.18.73.43,1.39.88a7.44,7.44,0,0,1,2.65,2.94,3.51,3.51,0,0,0,.38.62,22.89,22.89,0,0,0,2.45,1.7,25.92,25.92,0,0,1,2.9,2,28.24,28.24,0,0,0,2.94,2,36,36,0,0,1,3.14,2.08,6.71,6.71,0,0,0,2.59.88,16.61,16.61,0,0,1,3.3,1,33.16,33.16,0,0,0,4.65,1.29,40.1,40.1,0,0,1,5.9,1.68c1.69.71,5.16.71,7.46.71a21.65,21.65,0,0,1,2.89.1,6.41,6.41,0,0,0,2.56-.76,9.53,9.53,0,0,1,1.92-.69,32.13,32.13,0,0,0,4.89-4.4l.35-.37.5-.06c3.57-.43,5.82-.42,6.67,0a2.94,2.94,0,0,1,1,1,18.53,18.53,0,0,0,1.13-1.53c1.41-2.4,6.75-.75,7.36-.56a8.25,8.25,0,0,1,2.94,1.39c.21.15.45.33.81.56s.71.16,1.72,0a14.27,14.27,0,0,1,4-.11,18.05,18.05,0,0,0,2.25.14,13.59,13.59,0,0,1,5.44,1.14c3.05,1.12,4,1.08,4.78,1.05.29,0,.56,0,.87,0a11.76,11.76,0,0,0,1.86-.2A16.62,16.62,0,0,1,112.31,259.47Zm-49,2.19h0Zm.11,0h0Zm3.68-53Zm-21.91-6.28s0,.08,0,.1S45.19,202.38,45.19,202.35Zm-.21-.62h0Zm100.75-19.58v0Zm12.79-8.83a1.7,1.7,0,0,1,0,.29A1.22,1.22,0,0,0,158.51,173.31Z"/></svg>