<svg id="Layer_1" data-name="Layer 1" xmlns="http://www.w3.org/2000/svg" viewBox="0 0 350 350"><defs><style>.cls-1{fill:#999;}.cls-2{fill:#f90;}</style></defs><title>M</title><path class="cls-1" d="M244.67,7.8S243.92,19,251,21.6,253.35,30,253.35,30s-7.19,3.17-6.07,8.77S246.16,52,246.16,52s-1.12,6.34,1.49,8.58a16.77,16.77,0,0,1,4.48,8c0,.93-2.35,12.87-2.35,12.87l-.51,7.21-4.62,5.6-6.69,9.2s-.25-.12-3.23,3-4.35,4.35-4.1,8.08.5,8.58,1.24,10.94,1.24,6.59,1.62,7.58,1,2.49,0,3.36-3.85,5.84-3.61,7.21-1.87,3-1.24,5.22,2.61,4.1,3.48,5.84.62,1,3.85,3.61,6,4.6,7.21,6.71,4,3.61,4.48,5.35,4.35,8.83,5.1,11.56,3.48,9.08,4.23,12.81.87,11.56,0,14.67a68.65,68.65,0,0,1-4.35,10.69c-1.37,2.61-3,3.11-6.71,5.22s-9.2,5.72-12.68,6.71-9.95,7.34-9.95,7.34-3.36,5.84-3.73,8.7-1.37,6.34-1.37,10.2-1.12,12.81-1.24,15.29-.5,4.6-1.74,6.09-5.72,7.21-9.33,7.34-12.81,4.23-12.81,4.23-18.28,4.6-19,6.47-3.61,2.86-7,5.72-4.85,4.1-5.1,6.22-3.48,12.56-4.23,14.92-.62,2.24-1.49,4.6-2.11,4.35-2.49,5.35-.37,2.74-2.74,4.35-2.86,2.36-3.23,2.49l-8.7-1-13.55,1.87-.75-5.84s-4.48-1.87-1-4.35,1.24-3.36,1.24-3.36-.37-1.49,1.49-1.74,2.61-.37,2.61-.37l.37-6.34,1.74.5.75-5.1s-27.11-.62-27.73-.62-3.85,1.49-.87-8,8.08-25.49,8.08-25.49a53.79,53.79,0,0,1,4.23-7.09c1.87-2.36.5-3.85-3.61-6.84s-19.4-12.93-19.4-12.93-2.11-1.24,4.6-3.85c0,0,4.1-1.74,4.1-5.47s3.85-3,3.85-3l2-9.2,4.1-1s1.12-4.35,4.23-5.47,3.73-5.35,3.73-5.35-.37-2.24.87-3.36c0,0-2.36-6,4.35-6.59,0,0,2.86-.5-1.12-3.85s1.87-4.35,5-3.61,7.71,1.74,8-.12,3.61-9.45,3.61-9.45,9.7-.25,5.22-7.09,7-7.71,7-7.71,1.24,1.24,3.23-1,3.48-4,6.09-3.57,5.47-5.63,5.47-5.63a14.75,14.75,0,0,1,2-5.22l4.72-3.36,1.33-1.74s.54-5.84,2.65-5.72,3.36.87,4.23-3c0,0,4.6-1.37,5.35-2.11s4-3.48,4-3.48l3.11-2.74-2-2.11-.62-1,2.74-3.73-3.73-2.86,2-4.48.12-2.61s-.12,6.34,4.72-6.22l4.85-12.56s1.37-2.36,3.48-11.07-3.36-31.58-3.36-31.58l-.5-.87-27,2.11-1,.37-1.87-13.06L202,47.71l-5-35.25Z"/><path class="cls-2" d="M124.33,343.8l-.83-6.51a4.41,4.41,0,0,1-2.41-3c-.1-.86.15-2.14,1.9-3.39a6.39,6.39,0,0,0,1.14-1l-.49-.12,0-.75a2.85,2.85,0,0,1,.4-2.21,3.11,3.11,0,0,1,2.28-1.28l1.45-.2.41-7,1.88.54.28-1.91-26.09-.58h0a2.81,2.81,0,0,1-2.73-.79c-1.19-1.38-1-4.08.53-9,3-9.45,8.08-25.49,8.08-25.49l.08-.2a54.36,54.36,0,0,1,4.38-7.33c.57-.72.52-1,.51-1.13-.14-1-2.54-2.74-3.83-3.68-4-2.93-19.18-12.79-19.34-12.89a2.07,2.07,0,0,1-1-1.92c.13-1.58,1.87-2.91,5.81-4.44h0s3.2-1.43,3.2-4.15a4.27,4.27,0,0,1,1.46-3.48,4.62,4.62,0,0,1,2.68-1l1.92-8.9,4.2-1c.55-1.5,2-4.58,4.85-5.61,2-.7,2.63-3.36,2.78-4.05a5.82,5.82,0,0,1,.73-3.64,6.58,6.58,0,0,1,.54-4.93,6.19,6.19,0,0,1,4.74-2.69,8.22,8.22,0,0,0-1.4-1.42c-2.15-1.81-2-3.29-1.58-4.22,1.19-2.35,5.66-2.36,7.79-1.85,4.29,1,5.76,1,6.26.83.43-2.21,3.12-8.35,3.68-9.6L139,193l.9,0c1.3,0,4.2-.53,4.87-1.82.44-.85-.19-2.14-.8-3.07-1.7-2.59-1.38-4.5-.81-5.65,1.78-3.61,8.14-4.2,8.86-4.25l.65,0,.39.39c.13,0,.58-.11,1.24-.86l.2-.23c2-2.26,3.9-4.39,7.2-3.8.76.14,2.63-2.15,3.85-4.65a17,17,0,0,1,2.13-5.52l.15-.26,4.8-3.41,1-1.25c.26-2.33,1.15-6.76,4.1-6.59l.87.08c1.33.14,1.41.15,1.89-2l.18-.81.8-.24a26.68,26.68,0,0,0,4.78-1.79c.73-.73,3.69-3.24,4-3.53l2-1.75-1.16-1.27L190,138.85l2.48-3.39-3.52-2.7,2.34-5.25.11-2.35,1.73.06a35.4,35.4,0,0,0,3.09-6.72l4.94-12.76s1.33-2.44,3.33-10.69c1.89-7.77-2.68-28-3.29-30.63l-25.9,2-2.48.91-2.31-16.17,29.84-4.66-5-35.33,50.88-5-.11,1.67c0,.1-.58,10.17,5.42,12.38,2.56.94,4.12,2.4,4.64,4.32.86,3.15-1.59,6.17-1.69,6.3l-.21.26-.31.14c-.06,0-6.13,2.79-5.25,7.19,1.12,5.62-.87,12.94-1.12,13.84-.36,2.16-.4,6,1,7.19,2.87,2.46,5,7.65,5,9.1,0,1-1.64,9.38-2.36,13.06l-.53,7.58-4.91,5.95-7.35,10.1-.31-.15c-.41.36-1.12,1-2.34,2.31l-.37.39c-2.64,2.75-3.53,3.67-3.34,6.62l.08,1.15c.22,3.34.49,7.5,1.11,9.46a44.41,44.41,0,0,1,1.09,5c.18,1,.39,2.17.5,2.48l0,.13c.41,1.08,1.25,3.31-.44,4.79-.83.72-3.14,4.95-3.14,6a4.37,4.37,0,0,1-.71,2.73,3.17,3.17,0,0,0-.57,2.3,11.26,11.26,0,0,0,1.9,3.3,16.7,16.7,0,0,1,1.49,2.28,2.5,2.5,0,0,0,1.15,1.37c.48.34,1.2.86,2.32,1.77l1.38,1.1c2.78,2.21,5,4,6.17,6a11.73,11.73,0,0,0,2.06,2.31A8.1,8.1,0,0,1,249,170c.18.64,1.08,2.5,1.94,4.29a57.31,57.31,0,0,1,3.16,7.29c.28,1,.88,2.65,1.52,4.39a66.18,66.18,0,0,1,2.73,8.51c.78,3.92.93,11.92,0,15.33a70,70,0,0,1-4.46,11c-1.33,2.55-2.92,3.41-5.56,4.85l-1.71.95c-.89.5-1.88,1.1-2.93,1.72-3.4,2-7.25,4.32-10.07,5.13-2.5.71-7.36,5.06-9.2,6.85-1,1.69-3.19,6-3.46,8-.12,1-.31,2-.51,3a37.84,37.84,0,0,0-.84,7c0,2.53-.46,7.07-.82,10.72-.2,2-.38,3.77-.42,4.64-.12,2.34-.45,5-2.07,6.93l-.26.32c-2.83,3.44-6.54,7.4-10.1,7.53-2.73.09-9.79,3-12.28,4.11l-.23.08c-7.75,2-16.77,4.69-18.13,5.8-.65,1.42-2,2.33-3.71,3.47a36.66,36.66,0,0,0-3.57,2.62l-.15.12c-3.25,2.77-4.29,3.72-4.46,5.18-.3,2.55-4.24,15.06-4.28,15.18-.25.79-.4,1.3-.52,1.72-.25.84-.4,1.34-1,2.95a34.71,34.71,0,0,1-1.8,3.93c-.31.6-.57,1.11-.69,1.42-.06.15-.1.33-.15.52a7.1,7.1,0,0,1-3.11,4.51,23.45,23.45,0,0,0-2.48,1.92,3.18,3.18,0,0,1-1.11.74l-.3.1-8.84-1Zm2.46-15.5a2.31,2.31,0,0,1,.38,1c.23,1.87-1.84,3.36-2.53,3.85s-.73.76-.73.76c0,.25.8.86,1.45,1.13l.76.32.67,5.24,12.31-1.69,8.34,1,.06-.05a25.85,25.85,0,0,1,2.75-2.13,4.3,4.3,0,0,0,2-2.89c.08-.29.15-.55.24-.79a18,18,0,0,1,.82-1.72,32.22,32.22,0,0,0,1.66-3.62c.56-1.52.69-2,.93-2.77.13-.43.28-1,.54-1.77,1.27-4,4-12.91,4.17-14.66.31-2.64,2-4.1,5.44-7l.15-.12a39.57,39.57,0,0,1,3.83-2.82c1.37-.92,2.45-1.64,2.74-2.35s1-2.53,19.88-7.28c1.39-.61,9.57-4.17,13.22-4.3,1.82-.06,4.52-2.25,8-6.5l.27-.33c.86-1,1.28-2.6,1.41-5.26,0-.94.23-2.72.43-4.78.36-3.59.81-8.06.81-10.44a40.06,40.06,0,0,1,.89-7.51c.19-1,.37-2,.49-2.87.4-3.05,3.55-8.6,3.91-9.23l.1-.17.14-.14c.69-.67,6.83-6.62,10.55-7.69,2.46-.7,6.15-2.9,9.39-4.83,1.06-.63,2.07-1.23,3-1.75l1.75-1c2.45-1.34,3.47-1.89,4.4-3.68A67.69,67.69,0,0,0,255.61,209c.82-2.93.68-10.5,0-14a64.67,64.67,0,0,0-2.61-8.09c-.69-1.87-1.28-3.49-1.59-4.62a58.43,58.43,0,0,0-3-6.8,41.92,41.92,0,0,1-2.11-4.75,6.85,6.85,0,0,0-1.77-2.09,14,14,0,0,1-2.56-2.93c-.93-1.58-3-3.26-5.49-5.22l-1.39-1.11c-1.06-.86-1.72-1.33-2.2-1.67a4.86,4.86,0,0,1-2-2.4,14.84,14.84,0,0,0-1.24-1.88,13.53,13.53,0,0,1-2.34-4.21,5.75,5.75,0,0,1,.78-4.35,4.29,4.29,0,0,0,.43-1c-.39-2.14,3-7.59,4.07-8.51.21-.19-.21-1.3-.34-1.66l0-.13a20.93,20.93,0,0,1-.64-3,42.75,42.75,0,0,0-1-4.67c-.72-2.29-1-6.46-1.23-10.13l-.07-1.14c-.28-4.2,1.38-5.92,4.12-8.77l.37-.38a23.92,23.92,0,0,1,3.3-3.1l6.5-8.94,4.39-5.31.5-6.93c1.1-5.57,2.29-11.88,2.33-12.62a16.1,16.1,0,0,0-4-6.91c-3.13-2.69-2.09-9.17-2-9.9l0-.15c0-.07,2.13-7.39,1.09-12.57-1.18-5.92,5-9.39,6.54-10.17a4.78,4.78,0,0,0,1-3.54c-.27-1-1.24-1.79-2.88-2.39-6.29-2.32-7.2-10.11-7.29-13.57l-44.7,4.37,5,35.17-29.84,4.66,1.44,10.06,27.65-2.16,1,1.83,0,.2c.23.95,5.53,23.31,3.36,32.25-1.93,7.94-3.25,10.72-3.57,11.33l-4.82,12.47c-2.31,6-3.59,8.08-4.77,8.6v.05l-1.64,3.7,3.94,3-3,4.07,0,.06,2.9,3.08-4.21,3.7c-.91.77-3.34,2.84-3.91,3.42-.73.74-3.08,1.59-5.17,2.24-1,3.43-2.74,3.55-4.74,3.34l-.64-.06c-.49.43-1.09,2.52-1.27,4.43l0,.41-1.7,2.24-4.65,3.3a13.47,13.47,0,0,0-1.66,4.41l0,.23-.1.21c-.78,1.66-3.58,7-7,6.42-1.67-.3-2.66.73-4.58,2.89l-.2.23a4.63,4.63,0,0,1-3.24,1.81,2.92,2.92,0,0,1-1.4-.3c-2.13.25-5.32,1.11-6.07,2.63-.35.7-.13,1.66.64,2.84,1.49,2.28,1.81,4.28.94,5.94-1.28,2.44-4.7,3.09-6.39,3.27a63.06,63.06,0,0,0-3.16,8.29,2.39,2.39,0,0,1-1,1.67c-1.55,1.06-4.46.65-8.66-.36a7.44,7.44,0,0,0-4.51.31,3.55,3.55,0,0,0,.78.84c1.32,1.11,3,2.79,2.54,4.55a2.59,2.59,0,0,1-2.09,1.79h-.11c-1.57.15-2.61.62-3.1,1.41a4.34,4.34,0,0,0-.07,3.24l.36.92-.73.66a2.75,2.75,0,0,0-.42,2.08l0,.21,0,.22c0,.21-.79,5.08-4.65,6.47-2,.7-3.07,3.48-3.34,4.49l-.21.82-4.06,1L106.38,244l-1.36-.26a2.53,2.53,0,0,0-1.75.3,1.62,1.62,0,0,0-.42,1.29c0,4.61-4.76,6.69-5,6.78a15.93,15.93,0,0,0-3.67,1.82c3.19,2.08,15.14,9.88,18.75,12.51,3.1,2.26,4.72,3.74,5,5.59a4.26,4.26,0,0,1-1.09,3.28,51.31,51.31,0,0,0-4,6.75c-.45,1.42-5.21,16.38-8,25.38-1.35,4.27-1.23,5.76-1.12,6.19l.17,0a3.15,3.15,0,0,1,.48,0c.63,0,26.65.6,27.76.62l1.6,0-1.21,8.29-1.6-.46-.34,5.7-1.11.19S128.65,328.06,126.79,328.31Zm20.39,11.77ZM93.45,253.45l.07,0Zm59.63-75Z"/></svg>