<svg id="Layer_1" data-name="Layer 1" xmlns="http://www.w3.org/2000/svg" viewBox="0 0 350 350"><defs><style>.cls-1{fill:#999;}.cls-2{fill:#f90;}</style></defs><title>M</title><path class="cls-1" d="M342.1,128.46c-.59-2.6-1.53-.94-5.9-8.61-18.4,1.77-18.52-1.3-24.54-6.37s-6.61-8.38-9.79-16.63a53.25,53.25,0,0,0-14-3.3c-2.83-.12-10-1.06-11.21-2.71s-8-3.19-11.09-4-9.32-1.65-13-.71-11-4.48-13.92-1.06-13.21,3.3-14.39,1.53-13.68-10.26-17.93-11-6.49-.59-11.56-5.19,0-6.37,0-8-.24-16.16-.83-19.58-1.06-7.79-4.6-9.32a9.25,9.25,0,0,1-4.84-6.13c0-.34-4.45-2.54-7-3.77,0,.22,0,.35,0,.35s-1.18,1.89-5.07,4.36S165,28.9,163,31.14s-5.54,3.54-10.85,5-9.79,4.36-11.8,14.63-5,1.53-5.19,4.36-.12,6-2.83,7.55-7.31,1.65-12,3.3-4.36,4.25-5.78,6.25-2.36.59-5.54,6.84c-8.49-2.6-22.3,2.36-32,6.72s-8.85,16-10.26,17.81-4.13,5-5.43,5-6-2.12-9.2-1.06-12.62,2.83-16.52,5.31-3.42-4.6-4.36-3.3-10.73,5.66-10.73,5.66l3.77,1.06s-.94,1.77.59,1.77,3.54,2.6,3.42,3.54-4.13.35-4.13.35c-3.19.71-2.6,5.31-2.48,8.61s-5.9,1.89-8.61,1.77-7-.83-6.84-.47,1.42,9.67.71,12,3.3,5.19,5.78,8.14,2.36-1.18,4.84.94,7.55,9.67,11.09,11.91.71,5.66.83,8.26-2.24,13.21.94,15.1,11.09.35,13.68-1.3,5.66.94,5.43,2.36-1.06,2.95.35,8.85-3.19,11.21-3.3,15.69,1.65,6.61,3.3,9.44,2.24,14.63,4.48,25.72c-5.78,4-4.6,6.25-3.77,10.73,3.07,2.16,3.84,4.65,2.51,5l2,1.8s5.43-1.42,7.55-2.24,7.31.12,9.32.24,4.84,1.77,5.66,1.65,1.53-2,2-5.43,0-5,3.3-7.08,13.33-2.71,13.33-2.71l1.3-3.89s1.65,1.77,3.42,1.77,5.19,0,6.72-.12,9.08-13.45,9.08-13.45,1.3,1.65-.12,4.72-.86,20.64-.86,20.64l15.37-.59s-.12,1.42-1.89,9.91c-.94-.59-8.26.59-13.48,1.89,4.21,2.36,4.52,7.2,4.4,15.81-6.84,7.2-3.66,18.64-3.66,18.64l3.54-.12L119,311.31s2.83,3.66,2.6,4.72,1.3,3.89,2.36,4.72,5.54,1.3,8.49-2,8.14-5.9,10.85-5.9,4.72,2.95,6.84,3.19,14.86-.24,17.22,0,2.6,10.38,2.6,10.38h3.77s.59-3.54,1.65-10.14,3.07-10.5,3.42-17.34-1.06-20.41-3.07-22.77-.71-9.32,0-11.56,1.77-16.16,1.77-16.16a70.25,70.25,0,0,1,16-.83c9.79.47,18-5.07,23.59-8.73s23.24,2.6,26.9,2.36,11.68,6.72,12.74,8,5.9,4.6,7.43,3.77,7.43-8.38,7.67-10-3.77-4.6-4.84-6.37-6.49-8.73-7.31-13,5.07-5.78,7.2-8.85,5.9-8.14,6.61-10.26-1.3-7.08-2.12-10.26-1.06-9,3.3-8.26,3.77-2.83,7.67-7.55,6.25-3.42,7-2.83,5.66,1.42,14.75,1.06c3.66-3.77,8-9.08,11.32-9.91s8.14-7.2,10.85-9.32,5.07-3.07,9.91-3.89c0-3.42,1.65-2,7.55-6.84C341.86,143.56,342.69,131.06,342.1,128.46Z"/><path class="cls-2" d="M175,327.82H168.6l0-1.38c-.1-4.08-.78-8.19-1.49-9-1.3-.09-5.06,0-8.4,0-4.68.07-7.59.11-8.66,0a7.89,7.89,0,0,1-3.51-1.69,6.15,6.15,0,0,0-3.17-1.49c-2.24,0-7.11,2.42-9.8,5.42-3.36,3.77-8.66,3.55-10.42,2.18-1.17-.91-3.18-4.07-2.9-6a16.44,16.44,0,0,0-2.3-3.7l-.4-.51.83-4.07-2.86.1-.3-1.07c-.14-.49-3.2-11.89,3.61-19.58.09-8.07-.29-12.11-3.68-14L112,271.28l3.47-.86c.1,0,8.4-2.05,12.56-2.05h.14c.73-3.54,1.13-5.65,1.35-6.89l-15.07.58,0-1.43c-.08-2.57-.39-14.09.47-19.3-5.21,8.61-6.42,8.71-7.05,8.75-1.59.12-5,.12-6.83.12a5.39,5.39,0,0,1-2.71-.83l-1,2.9-1,.06c-2.69.16-10.2.92-12.65,2.49-2.17,1.4-2.25,2.16-2.48,4.45,0,.5-.1,1-.19,1.63-.61,4.42-1.57,6.4-3.21,6.64a6,6,0,0,1-2.78-.69,12.43,12.43,0,0,0-3.16-.95c-.51,0-1.22-.11-2-.2-2-.23-5.41-.62-6.69-.13-2.17.85-7.48,2.23-7.71,2.29l-.75.19-4.41-4,1.95-.56a6.82,6.82,0,0,0-2.45-2.66l-.47-.33-.1-.57c-.08-.44-.17-.85-.25-1.25-.81-4-1.06-6.7,3.85-10.36-.89-4.59-1.5-9.2-2.05-13.3-.67-5-1.3-9.73-2.09-11.08-.23-.39-.46-.77-.69-1.15-1.43-2.35-2.92-4.78-2.81-9a18.89,18.89,0,0,1,1.72-6.23c1.17-2.94,2.37-6,1.63-9.09-1.28-5.34-.81-7.45-.49-8.84,0-.17.08-.33.11-.49a2.5,2.5,0,0,0-1.29-1.12,2.05,2.05,0,0,0-2,.11c-2.8,1.78-11.32,3.6-15.17,1.32-2.92-1.73-2.58-7-1.89-13.17a28.54,28.54,0,0,0,.26-3.09,9.78,9.78,0,0,1,.52-3c.63-2.25.73-3.19-.68-4.08-2.33-1.47-5.08-4.83-7.51-7.79A42.48,42.48,0,0,0,16.66,154a1.94,1.94,0,0,0-.39-.27l-.22.15c-1.05.72-2.51,1.26-4.39-1-.66-.78-1.45-1.58-2.22-2.35-2.36-2.36-4.58-4.6-3.83-7.11.53-1.77-.45-9.95-.71-11.24l-.23-.68.49-.64c.61-.75,1.24-.68,4.31-.35,1.22.13,2.6.28,3.69.33.54,0,1.19.09,1.91.17,1.45.16,4.46.48,5.15-.15,0,0,.08-.08.08-.32s0-.68,0-1c-.16-3.23-.39-8.12,3.63-9l.25-.06.26,0a16.48,16.48,0,0,0,2,.17c-.47-.6-1.15-1.22-1.52-1.24a2.18,2.18,0,0,1-2-1,2.21,2.21,0,0,1-.3-1.17l-6.23-1.75,3.58-1.6c4.36-1.94,9.5-4.5,10.2-5.24a1.59,1.59,0,0,1,1.6-.68c1.06.19,1.33,1.16,1.59,2.1.12.42.48,1.71.79,1.87a1.48,1.48,0,0,0,.73-.31c2.95-1.87,8.42-3.26,12.82-4.37,1.68-.42,3.13-.79,4-1.08,2.64-.88,5.9,0,8.07.61.56.15,1.25.34,1.53.38.44-.16,1.85-1.26,4.38-4.42a14.48,14.48,0,0,0,.58-2.44C67.07,96,68.61,88,76.45,84.47c9.74-4.39,23-9.07,31.82-7.09,1.79-3.31,2.93-4.27,4.11-5.07a3.27,3.27,0,0,0,1-.93,8.09,8.09,0,0,0,.75-1.47c.75-1.73,1.69-3.89,5.72-5.3a48.06,48.06,0,0,1,6.4-1.63,20.12,20.12,0,0,0,5.41-1.57c1.62-.92,1.85-2.66,2-5.43,0-.34,0-.67.07-1a1.89,1.89,0,0,1,1.11-1.78,2.14,2.14,0,0,1,2.26.75,6,6,0,0,0,.55.46c.23-.29.75-1.21,1.29-3.94,2.23-11.44,7.74-14.37,12.82-15.73s8.38-2.54,10.16-4.53c1.37-1.54,3.17-1.67,4.91-1.79a9.52,9.52,0,0,0,4.82-1.29,19.14,19.14,0,0,0,4.36-3.58l-.28-2.34,2.33,1.13c7.57,3.66,7.79,4,7.8,5,.13.58,1.28,3.75,4,4.92,4,1.73,4.72,6.11,5.31,9.63l.13.75c.63,3.67.85,18.62.85,19.82A3.79,3.79,0,0,1,195,64.82c-1.12,1.31-1.87,2.18.75,4.56,4.21,3.82,6.21,4.13,9.51,4.63l1.33.21c4.65.78,17.28,9.39,18.83,11.52,1.23.95,9.84,1.1,12.18-1.61s6.21-1.48,9.63-.37c1.92.62,3.91,1.27,5,1,3.89-1,10.35-.19,13.7.71l1.5.39c5.13,1.32,9.16,2.46,10.37,4.16.77.89,6.44,2,10.11,2.12a54.16,54.16,0,0,1,14.5,3.4l.57.23.22.58c.43,1.12.82,2.15,1.17,3.11,2.26,6,3.29,8.8,8.21,13,.84.71,1.57,1.38,2.24,2,4,3.67,6,5.51,21.25,4l.91-.09.45.8c2.36,4.15,3.66,5.44,4.43,6.21a4.84,4.84,0,0,1,1.62,2.79,38.72,38.72,0,0,1,.31,5.92c.06,4.07.15,10.22,1.18,12l.62,1-.94.77a32.9,32.9,0,0,1-5.46,3.68c-1.57.87-1.57.87-1.57,2.07v1.2l-1.18.2c-4.57.78-6.73,1.62-9.27,3.61a38.33,38.33,0,0,0-3.22,3.13c-2.75,2.86-5.59,5.81-8.16,6.45-2.28.57-5.59,4.12-8.51,7.25-.73.78-1.45,1.55-2.14,2.27l-.4.41-.57,0c-6.68.26-14.12-.07-15.71-1.39a1.32,1.32,0,0,0-1-.28c-.62.06-2,.52-3.95,2.93a24,24,0,0,0-2.67,4.12c-1.27,2.34-2.48,4.55-6.32,3.93-1-.16-1.31.19-1.44.33-.94,1-.84,4-.27,6.17.21.79.49,1.7.78,2.65,1,3.15,2,6.41,1.31,8.42-.59,1.77-2.71,4.84-5.42,8.67l-1.37,1.95a14.66,14.66,0,0,1-3.61,3.26c-2.31,1.66-3.7,2.77-3.36,4.51.59,3,4,8,5.86,10.62.57.82,1,1.47,1.28,1.9a15.56,15.56,0,0,0,1.86,2.1c1.75,1.79,3.41,3.48,3.16,5.2-.31,2.16-6.51,10.06-8.4,11.07-2.69,1.45-8.33-3.06-9.2-4.13-1.22-1.49-8.79-7.69-11.55-7.5-1.29.08-3.5-.39-7.28-1.24-6.23-1.4-15.64-3.51-18.93-1.35l-.23.15c-5.61,3.7-14.1,9.29-24.21,8.81a75.1,75.1,0,0,0-14.65.62c-.28,3.5-1.11,13.35-1.75,15.38-.85,2.71-1.61,8.64-.27,10.22,2.52,3,3.73,17.38,3.4,23.76a48.13,48.13,0,0,1-1.88,10.55,69.73,69.73,0,0,0-1.56,6.94c-1.06,6.61-1.65,10.15-1.65,10.15ZM171.36,325h1.2c.25-1.54.75-4.57,1.45-9a72,72,0,0,1,1.61-7.21,45.85,45.85,0,0,0,1.79-10c.38-7.36-1.2-20-2.73-21.78-3-3.51-.3-12.81-.27-12.9.48-1.52,1.3-10.52,1.71-15.84l.08-1.06,1-.22a70.94,70.94,0,0,1,16.4-.85c9.17.43,17.21-4.85,22.51-8.34l.23-.15c4.29-2.83,13.62-.73,21.11.95a39.21,39.21,0,0,0,6.48,1.18c4.56-.28,13,7.46,13.93,8.54s4.66,3.45,5.72,3.39c1.36-.89,6.4-7.43,6.87-8.91a12.93,12.93,0,0,0-2.37-2.85,16.32,16.32,0,0,1-2.27-2.63c-.21-.35-.66-1-1.18-1.74-2.1-3-5.61-8.08-6.31-11.69s2.17-5.68,4.49-7.35a12.56,12.56,0,0,0,2.94-2.57l1.38-2c1.91-2.71,4.54-6.42,5-7.93.38-1.15-.65-4.48-1.33-6.68-.31-1-.6-1.93-.82-2.78-.26-1-1.45-6.19.92-8.79a4.18,4.18,0,0,1,4-1.22c1.81.29,2.1-.14,3.38-2.48a26.67,26.67,0,0,1,3-4.57c2-2.44,4-3.77,5.87-3.95a4.16,4.16,0,0,1,3,.87c.58.26,4.42,1.11,13.28.81l1.71-1.82c3.34-3.59,6.8-7.29,9.89-8.07,1.78-.45,4.69-3.46,6.81-5.67a39.5,39.5,0,0,1,3.51-3.39c2.72-2.13,5.11-3.15,9.45-4,.31-1.89,1.41-2.5,2.95-3.35a29.56,29.56,0,0,0,4.2-2.73c-.85-2.54-1-6.91-1.06-12.21a43.55,43.55,0,0,0-.24-5.33,2.14,2.14,0,0,0-.85-1.41,25.88,25.88,0,0,1-4.44-6c-15.06,1.37-17.83-.53-22.53-4.87-.65-.6-1.34-1.24-2.15-1.92-5.49-4.63-6.75-8-9-14.13-.29-.78-.6-1.61-.94-2.5a51.79,51.79,0,0,0-13-3c-.1,0-10.33-.55-12.3-3.31-.77-1-6.58-2.5-8.77-3.07l-1.53-.4c-3.07-.83-9-1.53-12.25-.7-1.9.49-4.18-.25-6.6-1-2.69-.87-5.48-1.78-6.61-.48-2.53,2.93-8.45,3.39-11.54,3.2-2.7-.17-4.41-.77-5.1-1.81-1.12-1.6-13.21-9.73-17-10.36l-1.29-.2c-3.57-.55-6.15-.94-11-5.33-4.65-4.22-2.19-7.11-1-8.5a6.48,6.48,0,0,0,.54-.68c0-2.17-.26-16.06-.8-19.23l-.13-.76c-.52-3.14-1.06-6.38-3.64-7.5a10.58,10.58,0,0,1-5.55-6.67c-.61-.38-2.19-1.23-5.08-2.65a22.2,22.2,0,0,1-4.91,4,12.17,12.17,0,0,1-6.14,1.73c-1.57.11-2.42.2-3,.85-2.26,2.53-5.94,3.89-11.54,5.38-5.15,1.37-8.95,4.2-10.77,13.53-.75,3.82-1.71,5.67-3.23,6.18a2.56,2.56,0,0,1-2.07-.22c-.2,2.5-.65,5.35-3.42,6.92a21.75,21.75,0,0,1-6.23,1.88,45.21,45.21,0,0,0-6,1.53c-2.86,1-3.39,2.22-4.05,3.76a10.52,10.52,0,0,1-1,2A6,6,0,0,1,114,74.64c-.78.54-1.76,1.2-3.71,5l-.54,1.06-1.14-.35c-8-2.44-21.25,2.27-31,6.66C71.11,90,69.81,96.74,69,100.78c-.34,1.77-.57,2.95-1.15,3.68-3.87,4.83-5.47,5.49-6.53,5.49a10,10,0,0,1-2.33-.48c-1.83-.5-4.6-1.26-6.42-.65-1,.33-2.48.71-4.21,1.14-4,1-9.43,2.39-12,4a3.58,3.58,0,0,1-3.27.57,4.29,4.29,0,0,1-2.28-3,64.42,64.42,0,0,1-6.21,3.26l1.76.49-.72,1.35a5.75,5.75,0,0,1,2.63,1.79c.48.55,1.59,2,1.43,3.23a1.78,1.78,0,0,1-.7,1.2c-.79.6-2.38.74-4.73.42-1.36.52-1.36,2.95-1.21,6,0,.37,0,.72,0,1.07a3.13,3.13,0,0,1-1,2.5c-1.64,1.52-4.69,1.19-7.38.9-.65-.07-1.24-.14-1.73-.16-1.18-.05-2.61-.21-3.88-.34l-1.25-.13c.42,3.06,1,9,.42,11-.27.89,1.69,2.85,3.12,4.29.81.82,1.65,1.66,2.39,2.53a3.81,3.81,0,0,0,.52.53l.1-.07c.61-.42,2-1.4,4.05.31a42.28,42.28,0,0,1,4.09,4.6c2.18,2.66,4.89,6,6.83,7.19,3.33,2.11,2.47,5.2,1.9,7.24a7.79,7.79,0,0,0-.41,2.15,27.67,27.67,0,0,1-.27,3.53c-.29,2.59-1.06,9.48.52,10.41,2.48,1.47,9.79.26,12.2-1.27a5,5,0,0,1,5.53.18,3.91,3.91,0,0,1,2.05,3.61c0,.24-.09.48-.15.73-.27,1.2-.64,2.85.48,7.55,1,4-.48,7.6-1.75,10.79A17.06,17.06,0,0,0,48,213.79c-.09,3.43,1,5.22,2.39,7.49.24.39.48.79.72,1.2,1,1.76,1.57,5.56,2.45,12.14.58,4.32,1.23,9.23,2.2,14l.18.91-.77.53c-4.44,3.08-4.15,4.53-3.44,8l.15.74c2.24,1.72,3.5,3.8,3.23,5.4a2.52,2.52,0,0,1-.07.3l.42.39c1.54-.41,5.09-1.38,6.65-2,1.79-.69,4.7-.43,8,0,.75.09,1.41.16,1.88.19a14.24,14.24,0,0,1,4,1.14c.37.14.83.32,1.16.43a13.7,13.7,0,0,0,1-4.12c.08-.56.13-1.06.17-1.53.25-2.46.44-4.41,3.77-6.55,3-1.93,10.31-2.66,13.05-2.87L97,244.31,98.59,246a4.27,4.27,0,0,0,2.38,1.32c1.57,0,4.75,0,6.34-.1,1.23-1.07,5.16-7.33,8.23-12.75l1-1.84,1.31,1.66c.19.24,1.78,2.44.06,6.19-.87,1.88-.93,11.84-.77,18.58l15.54-.6-.13,1.6c0,.15-.17,1.74-1.91,10.08l-.42,2-1.6-1c-1-.16-5.29.4-9.73,1.34,2.63,3.11,2.79,8.06,2.69,15.09v.55l-.38.4c-5,5.31-4.1,13.33-3.56,16.21l4.16-.14L120.54,311c2.82,3.77,2.55,5,2.46,5.37a7.39,7.39,0,0,0,1.85,3.29c.63.42,4.16.87,6.57-1.83,3-3.39,8.6-6.37,11.91-6.37a8.4,8.4,0,0,1,4.8,2,6.1,6.1,0,0,0,2.2,1.19c1,.11,4.87,0,8.31,0,3.93-.06,7.64-.12,8.9,0C169.78,314.84,171.06,318.33,171.36,325ZM128.74,271.2Zm-51.17-6.48ZM183.08,27.37a1.33,1.33,0,0,0,0,.29A1.75,1.75,0,0,1,183.08,27.37Zm2.83,0v0Z"/></svg>