<svg id="Layer_1" data-name="Layer 1" xmlns="http://www.w3.org/2000/svg" viewBox="0 0 350 350"><defs><style>.cls-1{fill:#999;}.cls-2{fill:#f90;}</style></defs><title>M</title><path class="cls-1" d="M134,215.47l1.81,3.62,1.55,3.11,1,4.92v4.14a1.77,1.77,0,0,1,0,2.07c-.78,1,.34,4.92.34,4.92V240l1.21,4.61v9.89l1.81,4.14,2.33,2.85,2.85,1.29,2.85,1.55,2.59,1.55,4.4,2.33,4.14,2.33,3.88,1.55,2.33,1.81,2.59,1.88,3.87.78,2.15,1.16,2.33,1,5,1.94h2.52l2.52,1.16h14l4.27,1.16h8.54l3.11-1.75,2.52-1.94,3.88.39,1.94,1.55v2.52l3.3,1.16H256l-2.33-5a3.51,3.51,0,0,0-.58-2.33c-.78-1.16-1.75-2.33-1.75-2.33v-2.33l1.94-1,2.72-.78,1.55-1.16,2.33-1.16,2.33-2.52,2.52-1.75,1.94-2.91,1-2.52,3.3-3.69,2.91-3.3,1.94-3.49,1.55-4v-4l-2.91-1.16-2.13-1.16-1.16-3.11,1.36-3.11,4.85-2.13v-1.94l2.52-1,2.52-2.13,1.75-3.3,1.16-2.72,1.94-1.36,2.52-3.11,1.94-1.36,2.91-1.36,2.52-1.36,1.75-1.36v-2.72l1.75-2.13,1.75-2.52v-8.54l2.91-2.33,1.16-2.91v-1.75h-3.11l-2.33,1.75-1.75,1.75L297.56,191l-1.75-.78v-1.75l-.78-2.33h-3.69l-1.16-1.94,1.75-2.13,1.94-1.94.78-2.33-2.91-2.52-2.52-1.55L288,172.57h-1.16l-2.72,1.16-1.55.39-1.16-1.55v-2.72l.19-2.91,1.16-1.94,2.33-1.36.78-3.49v-3.49l.19-2.91-1.55-3.88.78-2.91h2.33l1-2.33,2.52-2.13,3.11-1.36,4.27-1.94,2.91-1.75,2.91-1.75,4.46-2.72,2.91-3.88,1.36-3.49,1.16-2.33,2.33-2.52L319.1,119l2.72-3.3,1.75-3.3,1.55-5.24,2.52-4.66,2.72-3.11,3.11-3.88V91.64L335,87.57V85.63l2.33-2.33V79.61h5.43l1-3.3V73.79h-7l-1.94,2.13-1.94.58-.39-1.75,1-2.33-1.55-1.36-1.36-2.72L328,67h-4.85l-2.91,1.16-3.11,1.55-2.72.78h-5.63l-1.75-1.55-1-1.94-1.55-1.94H302.8l-1.36,1.55-1.16,1-1.55,3.3-1.55,3.88-1.36,1.36-2.52,2.13-1.16,2.52-1,1.94-.78,1.94-1.75,1.75L287.08,88l-3.11.39L282,88.15l-.58-2.91,1.16-2.33L284.36,81l-.58-1.36h-2.91l-1.94,2.13-5,3.88L271,87.76l-2.33,2.33-2.33,2.52-1.16,1.94-1.94,1.75L261.07,98l-1,1.55-1.36,2.13-1.94.78-2.13,1-2.91.19-4.27.19h-6.6l-4.27.58h-2.33l-2.72.58-2.13,1.75h-2.33l-1.94.39h-2.33l-5-.39-3.11,1.75-3.11-1.16-1.55-.78-1.75-.78-3.11-1.94-2.52-.39H197l-2.13,2.13L193,107l-1.36,2.13-1.94,1.36-2.33,1.16-3.69,1-2.91,1-5.24.19h-4.27l-3.88.78h-7l-4.66-.39-4.08-.78-3.11-1.94-2.91-1.75-3.3-1.75L140.75,105l-2.72-.78-.39,1.36-.19,1.16-1.36,2.91-3.3,3.49-3.49.19h-8.15l-4.08-.39-3.11.19-3.11,1.16-1.75.39-2.52,1.36h-2.72l-5,1.55H96.69l-2.52,1.55-1.55,2.33-1.55,3.11-1.75,1.75-1.16.58-1.55.58-1.55.39-1.16.39-1,1.16v4.66L81,135.31l-2.72,2.52-2.13.58-3.3.39,1.36-3.11L76.51,132l1.94-3.11,1.75-1.75,4.46-5.24,1-2.72,1.55-2.52.78-1.94.19-3.49-1.55-3.69-1.75-2.91-5-1-1.36-1.16-2.33-.39-3.3-.19-1,.58-3.69.58H61.37l-2.72-.19-1.16-1.16,2.13-2.13-2.13-3.69L53,93.2l-3.49-.58-2.13-1.16-1.94-.19H38.66l-3.11,1.36-2.72,1.94-1.16,1-1.75,2.33-1.55,1.36v2.13l-4.66.39H20.22l-3.49-1.55h-1L13,99l-2.72.19,1.75,2.72-.58,1-1.16,1-4.08.39v7l1.36,2.13,1,1.16,2.13.78,2.91.19,2.13,1.75L17.7,119l1.75,2.91,2.13,3.3,1,2.52,1,2.13-.19,2.52v2.72l1,1.55L25.85,138l1,1.36,1.55,1.36,1,1.16,1.55,1.16L33,144h6.21l2.33.58,2.33,1.16L47,148.24l.19,1.24,1,1.75,2.52.19H53.6l4.46,1,2.33,1.94.78,1.94,1.16,2.33-.78,3.69v2.33l1,3.11,1.94,1.16,1.75,1,3.11.78,1.94,1,.39,3.4.19,1.46-.39,2.33-1.75,1.55v1.75l2.52.19h6l3.11-1.75,2.13-1.16-.19,2.72-1.16,1.55-.19,2.91v2.72l.58,2.13.39,4.27v5.43l.19,4.46v2.91l-1.75,1.75-3.3-.19-3.49-1.16-3.11-1H69.52l-3.3-1-2.52-.19-3.11-1-2.33-1-2.13-.58L54,203.82l-.39,1.55.39,3.49-.39,2.33-1.75,3.11-2.52,1.94-1.55.78-1.55,1.16L46,220.9l-1,1.16-1.16,2.33-1.55,1.75L42,227.5l-1,2.33,1.36,3.11,2.13,2.52,1.36,2.72s2.13,1.75,2.72,1.75a20.62,20.62,0,0,1,2.72.58l1.55,1.16L52.05,243l-1.55,1.36-1.75,1.94.78,2.33.19,1.55,1.75,2.33,1.94,1.55,1.16,1.75.19,2.52,1.16,3.49,1.36,2.33,2.13,1,3.88.39h5.43l1.75-1.16,1.36-1.94-.78-1.75-1.55-1,.19-1.75,1.75-1.55,2.13-2.13,1.94-3.11,1.94-2.91,1.36-1.55,2.72-.58.58,3.11-.58,2.91-.39,2.13,1.75.78,3.11-1,2.52-1.16,1.55-2.52-.58-1.55-.58-2.33,2.33-.39,4.85-.78L99,243.61l3.49-1,4.08-2.13,4.27-1.94,2.33-1,2.52-2.52,1-2.72.58-3.88-2.13-1.16-.19-1.94,1.55-2.72,1.16-.39,3.11-.19,2.72-.58,2.72-1.36,2.91-2.52,2.72-.78Z"/><path class="cls-2" d="M258.24,286.36H229.39l-4.47-1.58v-2.84l-1.08-.87-2.91-.29-2.25,1.71-3.43,1.93-9.28,0-4.09-1.11H187.79l-2.52-1.17h-2.47l-5.29-2-2.5-1-2-1.06-4-.79-2.84-2.06L164,273.38l-3.86-1.56L156,269.49l-4.37-2.31L149,265.59l-2.75-1.5-3.1-1.41-2.66-3.25-2-4.59v-10L137.28,240v-1.61c-.48-1.73-1.07-4.62-.06-6,0,0,.13-.17,0-.4l-.23-.35,0-.47v-4l-1-4.59-2.58-5.16-1,.63-2.61.75-3,2.51-3.05,1.48-2.92.61-2.92.18-.48.16-1.06,1.85.07.75,2.35,1.28-.8,5.13-1.08,3L114,238.79l-2.59,1.08-4.23,1.92L102.89,244l-3.31.92-3,1.79-5.93,1,.19.76.8,2.13L89.52,254l-3.08,1.41-3.62,1.13-3.25-1.45,1.12-5.9-.26-1.41-.83.18-1,1.13L76.71,252l-2.12,3.32-2.13,2.13-1.4,1.25,0,.32,1.16.73,1.28,2.87-2,2.82L69.17,267h-6l-4.11-.41-2.76-1.25-1.71-3-1.23-3.83-.17-2.15-.84-1.25-2-1.67-2-2.63L48.14,249l-1-3,2.42-2.67L51,242l-.33-.25a18.33,18.33,0,0,0-2.1-.46c-.32,0-1.07,0-3.6-2.07l-.23-.19-1.42-2.84-2.16-2.55-1.68-3.85L40.62,227l.46-1.59,1.64-1.85L44,221.16l.68-.81.21-2.91,2.29-1.69,1.43-.72,2.19-1.68,1.48-2.64.32-1.89-.39-3.55.77-3.09,3.56.65,2.31.64,2.27.95,2.89.9,2.65.24,3.1.91h2l3.31,1,3.34,1.11,2.48.15.88-.88v-2.32l-.19-4.4v-5.43l-.37-4.08-.6-2.39v-2.72l.22-3.42.81-1.08-2.93,1.65h-6.5l-3.83-.29v-3.7l1.85-1.64.27-1.62-.17-1.25-.3-2.66L68.83,172l-3.3-.87-1.75-1-2.44-1.47-1.2-3.83,0-2.84.67-3.2-1-2-.64-1.61-1.79-1.49-4-.86H50.58l-3.28-.25-1.46-2.63-.15-.94-2.55-2-2.06-1-2-.5H32.73L30,144.21l-1.79-1.39-.9-1.08-1.69-1.53L24.79,139l-1.59-1.39-1.3-2.08v-3.23l.17-2.16-.82-1.8-1-2.46-2.05-3.17-1.66-2.77-1.78-1.6-1.73-1.42-2.66-.18-2.68-1-1.32-1.6-1.58-2.48V103l4.92-.47.65-.55L7.84,98l5.44-.39,2.77,1.19h1l3.49,1.55h3.13L27,100V98.57l1.92-1.68,1.88-2.45,1.25-1,3-2.09,3.38-1.48h7.23l2.23.22L50,91.26l3.53.59,5,3,2.86,4.94-1.72,1.72,1.75.13H68l3.31-.52,1.11-.67,3.89.24,2.72.45,1.37,1.18,5.3,1L87.9,107l1.68,4L89.36,115l-1,2.37-1.47,2.4-1,2.82-4.71,5.52-1.63,1.63-4.13,6.57-.33.74.74-.09,1.7-.46,2.7-2.46,1.25-.75V129L83,127.11l1.65-.55,1.47-.37,1.41-.53.89-.45,1.42-1.42,1.54-3.05,1.72-2.59,3.13-1.92h2.32l5-1.55h2.57l2.38-1.28,1.84-.41,3.21-1.2,3.43-.21,4.12.39h8.08l2.85-.16,2.75-2.92,1.18-2.53.2-1.13.78-2.72,4.66,1.33,1.63,3.06,2.92,1.54,3,1.78,2.9,1.81,3.74.71,4.52.38h6.79l4-.78h4.27l5-.19,2.72-.91,3.63-1,2.1-1.05,1.63-1.14,1.36-2.13,2.07-1.45,2.46-2.46,6.43,0,2.81.43,3.27,2,1.66.74,1.54.77,2.42.91,2.91-1.63,5.42.42H225l2.08-.39h1.82l2-1.64,3.35-.68h2.23l4.37-.58h6.6l4.21-.19,2.62-.18,1.9-.86,1.58-.63L260,97.1l2.32-1.89L264,93.64l1.23-2,2.33-2.52,2.53-2.51L273,84.48,278,80.7l2.28-2.5h4.47l1.31,3-2.23,2.47-.86,1.72.28,1.41.74.07,2.46-.31,2.75-2.75.72-1.78,1-1.94,1.28-2.77,2.72-2.3L296,74l1.44-3.61,1.72-3.66,1.32-1.1,1.71-2h3.07l2.14,2.72.85,1.7,1.14,1h4.89l2.4-.69,3.1-1.54,3.17-1.26h5.48l3.23,1.74,1.43,2.87L335.16,72l-1.08,2.6,2.05-2.26h9v4.14L343.84,81h-5.08v2.86l-2.33,2.33v1.62l-1.55,4.08V96l-3.42,4.27-2.65,3-2.38,4.39-1.62,5.36-1.91,3.54-2.84,3.45-2.56,1.77-2.09,2.26-1,2.09-1.4,3.61-3.19,4.26-10.67,6.43-7.2,3.23-2.1,1.78-1.2,2.88h-2.19l-.37,1.4,1.5,3.74-.22,3.23v3.55l-.94,4.25L283.84,166l-.8,1.33-.17,2.57v2.15l.32.42.53-.13,2.88-1.23h2l1.46,1.46,2.57,1.6,3.63,3.14-1.18,3.54L293,183l-1.07,1.31.24.4h3.91l1.17,3.52v1.06l.13.06,1-.78,1.83-1.82,2.71-2h5v3.44l-1.41,3.51-2.67,2.14v8.3l-2.07,3-1.43,1.74v2.9l-2.49,1.91L295.32,213l-2.87,1.34-1.68,1.18-2.52,3.1-1.77,1.24-1.06,2.45-1.87,3.54-2.92,2.47-1.84.71v1.89l-5.19,2.28-.91,2.07.78,2.07,1.6.87,3.72,1.49v5.18l-1.73,4.42-2.12,3.74-6,6.8-1,2.56-2.09,3.14-2.62,1.81-2.4,2.6-2.45,1.22-1.66,1.24-2.84.81-1,.52v1c.37.46,1,1.25,1.51,2a5,5,0,0,1,.84,2.85Zm-28.37-2.83h23.94l-1.58-3.43.07-.43a2.13,2.13,0,0,0-.36-1.31c-.72-1.08-1.65-2.2-1.66-2.21l-.33-.39V272l3-1.46,2.47-.7,1.56-1.14,2.1-1,2.39-2.54,2.3-1.59,1.7-2.55,1-2.62,6.28-7.06,1.82-3.27,1.42-3.66v-2.73l-2.17-.88-2.6-1.42-1.55-4.14,1.81-4.14,4.51-2v-2l3.21-1.23,2.13-1.8,1.59-3,1.3-3,2.11-1.48,2.52-3.1,2.32-1.6,2.91-1.36,2.35-1.27,1.11-.86v-2.53l2-2.48,1.46-2.11v-8.78l3.15-2.52.92-2.37h-1.22L302,189l-1.81,1.79-2.42,1.88-3.36-1.5v-2.44l-.38-1.14h-3.47l-2.09-3.48,2.47-3,1.71-1.71.37-1.11-2.11-1.83-2.68-1.7-.75-.75h-.29l-2.67,1.12-2.47.62L280,173v-3.19l.22-3.35,1.53-2.55,2.11-1.23.61-2.74v-3.34l.18-2.68-1.61-4,1.18-4.42h2.47l.74-1.77,2.94-2.49,3.29-1.44,4.18-1.9,10-6,2.63-3.51,1.34-3.43,1.25-2.51,2.7-2.87,2.36-1.63,2.5-3,1.61-3,1.62-5.38,2.7-4.92,2.72-3.1L332,95V91.38l1.55-4.08V85l2.33-2.33V78.19h5.79l.61-2.09v-.9h-4.94l-1.78,2-3.78,1.13L331,74.63l.75-1.8-1-.87-1.28-2.56-1.81-1h-4.22l-2.6,1-3.3,1.62-2.91.83h-6.37l-2.35-2.09-1-2-1-1.29h-.42l-1.09,1.22-.92.77-1.42,3-1.63,4.07-1.65,1.64-2.28,1.93-1,2.24-1,1.93-.86,2.16-3.85,3.85-3.75.47-3.14-.31L280,85l1.47-2.94,1-1.08h-.91l-1.7,1.84-5,3.88-2.85,2.09-2.25,2.25-2.19,2.38-1.2,2-2.1,1.89-2,1.64-2.46,3.88-2.36.95L255,104.88l-3.17.21-4.3.2H241l-4.37.58h-2.18l-2.24.48-2.26,1.85h-2.69l-2.08.39h-2.44l-4.62-.35-3.31,1.86-3.86-1.46-1.55-.78-1.86-.84-2.86-1.79-2.13-.33h-4.93l-1.91,1.88L194,108l-1.36,2.13-2.35,1.63-2.6,1.27L184,114l-3,1-5.44.2h-4.18l-4,.78h-7.1l-4.81-.41-4.34-.83-3.33-2.08-2.89-1.73L141.25,109l-1.47-2.76L139,106l-.2,1.19-1.54,3.29-3.84,4.07-4.06.23h-8.3l-4-.38-2.78.17-3.1,1.15-1.55.35-2.67,1.43h-2.86l-5,1.55H97.09l-1.92,1.18-1.33,2-1.62,3.23-2.07,2.07-1.51.74-1.71.63-1.5.38-.73.24-.38.46v4.95l-2.5,1.5L79,139.11l-2.68.71-5.75.68L73,134.94l4.47-7,1.71-1.71,4.26-5,1-2.74L85.91,116l.64-1.61.16-2.93-1.39-3.29L84,105.92,79.17,105l-1.34-1.15L76,103.53l-2.79-.16-.83.5-4.18.64H61.27L58,104.28l-2.54-2.54,2.37-2.37-1.41-2.43-3.92-2.39L49.06,94,47,92.83l-1.58-.16H39l-2.7,1.18-2.55,1.82-1,.83-1.85,2.41-1.07.94v2.79l-6.08.5H19.92l-3.49-1.55h-1l-2.66-1.14.93,1.44-1.16,1.93-1.69,1.41-3.23.31v5.29l1.09,1.71.67.8,1.59.58,3.16.21,2.49,2,2.15,1.93,1.86,3.09,2.24,3.52,1,2.52L25,129.62l-.22,2.83v2.26l.64,1L27,137.2l.88,1.22,1.58,1.41.86,1,1.3,1,1.71.78,6.25,0,2.62.69,2.57,1.32,3.54,2.8.24,1.54.48.86,1.71.13,3.16,0,4.8,1,2.87,2.39.89,2.22,1.36,2.72-.85,4v2l.75,2.38,1.48.89,1.54.85,3.21.84,2.63,1.31.69,5.8-.5,3-1.44,1.28,1,.07h5.59l7.21-4-.41,5.72-1.16,1.55-.17,2.49v2.43l.58,2.2.39,4.4v5.43l.19,4.4v3.56l-2.61,2.61-4.3-.3-3.49-1.17-2.87-.9H69.32l-3.35-1-2.69-.24-3.23-1-2.25-.93-2-.54-.77-.14v0l.38,3.44L55,211.67l-2,3.57-3,2.26-1.44.72-.93.7-.18,2.53-1.16,1.39L45,225.33l-1.34,1.51-.35,1.2-.74,1.77,1,2.36,2.19,2.65L47,237.26a13.41,13.41,0,0,0,1.79,1.25,20.74,20.74,0,0,1,2.88.62l.26.07,2.77,2.08-1.52,2.65-1.67,1.46-1.14,1.26.58,1.82.15,1.18,1.41,1.88,2,1.58L56,255.36l.21,2.72,1.06,3.19,1.06,1.81,1.51.69,3.58.36h4.93l1.17-.78.75-1.07-.27-.62L68,260.44l.35-3.17,2.15-1.92,2-2,1.86-3,2.08-3.09,1.67-1.91,4.6-1,.9,4.81-.82,4.19.24.11,2.51-.78,2.05-.95,1-1.57-.39-1.06-1-3.82L95.61,244l2.84-1.7,3.53-1,3.94-2.07,4.34-2,2.11-.88,2.1-2.1.82-2.29.41-2.77-1.92-1-.31-3.14,2-3.58,2-.63,3-.19,2.44-.52,2.4-1.2,3-2.61,2.82-.81,3.29-2.09,4.18,8.48,1.07,5.21v3.76a3.13,3.13,0,0,1-.24,3.23,10.66,10.66,0,0,0,.53,3.74l.06.19v1.83l1.21,4.79v9.59l1.62,3.69,2,2.44,2.64,1.2,2.85,1.55,2.64,1.58,4.33,2.29,4.09,2.3,4,1.59,2.49,1.93,2.3,1.67,3.78.76,2.27,1.23,2.26.94,4.76,1.83h2.57l2.52,1.17,14,0,4.09,1.11h8l2.69-1.52,2.89-2.22,4.86.49,2.8,2.24v2.2Zm-90.39-49.36h0Z"/></svg>