<svg id="Layer_2" data-name="Layer 2" xmlns="http://www.w3.org/2000/svg" viewBox="0 0 350 350"><defs><style>.cls-1{fill:#999;}.cls-2{fill:#f90;}</style></defs><title>M_</title><path class="cls-1" d="M329.58,128.29l-2.69-1c-.36-.47-1.17-1.8-1.86-3-.09-.74-.26-2.39-.38-3.66l1.62-7.9-.37-.65c-1-1.69-2.21-7.23-2.76-10.22-.69-5.16-4.33-16.65-4.89-18.4l-.6-5.83a74,74,0,0,0-1.83-9.1l0-.13c-1.31-3.94-7-16.16-7.29-16.67l-.14-.31-.23-.2c-1.16-1-10.31-10-11.24-10.92-2.36-3.05-12.61-9.51-13.79-10.25a27.42,27.42,0,0,0-11.3-3.95,27.47,27.47,0,0,0-8.27-.94l-.14,0c-2.45.44-11.22-1.42-14.53-2.21-3.29-1.46-13.8-2.27-15.26-2.37-1.74-.27-10.27.59-12,.77l-.28.07c-1.81.73-13.39.51-20.36.2a9.86,9.86,0,0,1-4.1-1.14,5.89,5.89,0,0,0-2.84-.79c-.93.12-4.77,0-6.41,0l-6.51-2.82-.28,0c-4.14.52-13-.46-13.07-.47h-.1c-4.78,0-15.47-3.48-15.58-3.51l-.31-.1-.65.2c-1.42,0-6.4.62-8,.83l-.14,0c-2.4.66-10.08.59-13,.51-3.64-1-9.33-4.42-9.39-4.46l-.19-.12-6.33-.88c-4.43-.7-11.8.89-12.52,1-2.85.37-10.5,1.27-12.34,1.08-2.33-.25-7.16,1.23-8.38,1.62-1.71-.14-5.18,1.2-6.45,1.73l-1.32.15-.78,2.41-.05.19c-1.89,8.55-9.2,23.59-9.8,24.81-3.32,5.29-12.37,17.84-12.48,18-6.38,9.44-3.24,17.37-3.08,17.75,1.32,3,4.63,9.92,6.93,10.64A1.58,1.58,0,0,0,55.39,88c1.48-1.23,12.8-14.33,17-19.21.59,11.2.1,22-.2,28.55-.08,1.81-.15,3.26-.17,4.23,0,.35,0,.73,0,1.12a16.59,16.59,0,0,1-7.74,8.59c-1.74.92-3.65,1.18-4.61,3.07-1.05,2.07.1,4,.84,5.93a24.74,24.74,0,0,1,1.76,12.76,1.67,1.67,0,0,0,2.5,1.43l12.68-8.25a4.2,4.2,0,0,0-.47.59,7,7,0,0,0-.74,4.65l1.3,5.56,1.94,10.45-4,6.13C72.37,156.7,72.8,165,72.86,166l0,.39.15.33c1.73,3.78,0,8.62-.52,9.86l-.21.18-3.5,1.4-.24.72c-.26.79-.5,1-.61,1.06s-.73-.34-1.08-.76a4.67,4.67,0,0,0-2-2.9,3.71,3.71,0,0,0-3.54.1l-7.89,6.3.22,3.47c-.54,1.95-1.25,2.44-1.68,2.29l-1-.52-.57,1.19c-1.63,3.4-5.52,2.35-5.55,2.34l-1.07-.31-.42,1.31c-2.23,7-8.16,7.69-8.39,7.72-7.06.58-15.22,11.36-15.57,11.82l-.23.3-.09.41c-.07.32-1.63,8,7.81,17.27,3.88,3.79,5.82,5.69,6.41,7.89s0,5.44-1.14,11.84l-.54,3c-2,11.5-1.54,13.14.36,16.59a27.76,27.76,0,0,1,2.51,5.94C38.3,287.62,71,303,71.35,303.11c6.29,2.86,9.85-1.48,10.44-2.29l9.43-10.33a60.37,60.37,0,0,1,10.2-6.76c3.41-1.76,10.46,8.19,14.42,15.9.77,2.5,1.82,3.88,3.1,4.09a2,2,0,0,0,.52,0c1.53,3.73,4.07,6.83,8.36,8.2,3.1,1,6.35.2,8.65,3.19,1.59,2.06,2.43,5.24,3.43,7.58l7.58,17.77a1.66,1.66,0,0,0,1.87.76L165,336.4a1.69,1.69,0,0,0,1-2.44,13.67,13.67,0,0,1,3.38-16.64,1.53,1.53,0,0,0,.48-.73l9.08.84L182,314.6l4.09-7.45,14,2.63,1-5.64,2.95-4.82,3.39-1,8.31,5.82c1.22,1.28,2.27,1.83,3.18,1.68a1.79,1.79,0,0,0,.84-.39l7.38-2.75,3.57,4.12,4.23.93,4.11-1.87,4-7.34.31-7,.84-2.25,1.57-7.51c1.43-5.15-2.94-10.71-4.2-12.18l-4.44-16.1-.66-1.13-11.57-12.58s-.94-1.08-1.93-5.48a3,3,0,0,1,0-2,2.55,2.55,0,0,1,2.14-.77h.08l7-.39,7.31-2,5.84-5.48L247.68,208l3.65-4.19,6-1.48,9.78,2.07,4.56-.32c.3,0,1,0,10.75-5.57h0c.79-.45,3.44-2.89,15.72-18.15,1.35-1.47,5.58-7.61,6.09-8.36,2.8-4.43,7.18-11.31,7.77-12.1.82-1.1,14.86-19.16,15-19.33l3.29-4.14.76-4.16Z"/><path class="cls-2" d="M149,342.7a3,3,0,0,1-2.78-1.68l-7.58-17.77c-.29-.69-.58-1.45-.87-2.24a19.87,19.87,0,0,0-2.38-5c-1.22-1.59-2.8-1.8-4.79-2.07a18.34,18.34,0,0,1-3.17-.63,14.44,14.44,0,0,1-8.89-8.2c-1.73-.39-3.07-2-4-4.91-4-7.65-9.13-14.29-11.82-15.15a.88.88,0,0,0-.64,0,59.3,59.3,0,0,0-9.87,6.53l-9.32,10.2c-2.12,2.83-6.54,5.21-12.12,2.68-.33-.15-33.57-15.58-37.61-28.79a26.51,26.51,0,0,0-2.4-5.68c-2.18-4-2.52-6.21-.51-17.52l.54-3c1.08-6,1.68-9.31,1.17-11.23s-2.34-3.64-6-7.25c-10-9.78-8.28-18.23-8.21-18.59l.16-.71.41-.55c.9-1.2,9-11.76,16.58-12.38.17,0,5.22-.65,7.16-6.74l.84-2.63,2.39.7c.26.07,2.8.65,3.88-1.6l1.2-2.5,1.59.81a5.46,5.46,0,0,0,.31-.82L52,182l8.64-6.88a5.06,5.06,0,0,1,5-.1,5.41,5.41,0,0,1,2,2.19l0-.15,3.71-1.48c.54-1.46,1.72-5.36.38-8.3l-.26-.57,0-.65c-.1-1.62-.44-9.81,3-13.32L78,147.21l-1.84-9.89-1.28-5.5a9.49,9.49,0,0,1-.14-2.1l-9.17,6a3.09,3.09,0,0,1-3.31-.06,2.82,2.82,0,0,1-1.36-2.74,23.33,23.33,0,0,0-1.67-12.07c-.11-.28-.22-.55-.34-.83-.73-1.74-1.63-3.91-.44-6.25a6.75,6.75,0,0,1,3.94-3.11c.45-.19.87-.36,1.27-.57a15.12,15.12,0,0,0,7-7.6c0-.31,0-.6,0-.88,0-1,.09-2.44.17-4.27.26-5.77.69-15,.35-24.86C65.34,79.14,57.59,88,56.29,89.11a3,3,0,0,1-2.88.57c-2.09-.66-4.72-4.5-7.8-11.42-.17-.4-3.61-9,3.2-19.12L48.9,59c1.53-2.13,9.3-13,12.34-17.79C61.87,40,69.07,25.1,70.9,16.81l.07-.26L72,13.21l2-.23c1.75-.72,4.71-1.82,6.61-1.77,2-.62,6.31-1.85,8.72-1.6,1.43.15,7.83-.53,11.95-1.06,1.1-.24,8.41-1.78,13-1l6.58.91.44.26a51,51,0,0,0,8.89,4.26c3.85.1,10.47.07,12.41-.47l.24-.05c1.94-.26,6.31-.82,8-.85l.88-.27.73.24c.1,0,10.61,3.41,15.15,3.44h.18c.16,0,8.87,1,12.81.48l.66-.08,6.61,2.87c2.45.06,5.29.08,5.93,0a6.78,6.78,0,0,1,3.54.89,9.06,9.06,0,0,0,3.51,1H201c9.47.42,18.52.38,19.76-.1l.66-.16c3.07-.32,10.35-1,12.29-.77,2.11.15,12,.94,15.55,2.43,4.68,1.11,12,2.5,13.83,2.17l.24,0a29.39,29.39,0,0,1,8.71,1,29.1,29.1,0,0,1,11.75,4.14c1.92,1.2,11.54,7.3,14.1,10.5,2.2,2.15,10.1,9.89,11.13,10.81l.44.4.27.57c.61,1.31,6,12.89,7.36,16.83l.05.18a73.22,73.22,0,0,1,1.88,9.39l.58,5.64c.8,2.5,4.21,13.38,4.9,18.5.67,3.63,1.86,8.41,2.59,9.71l.63,1.11-1.68,8.21c.1,1.08.24,2.37.32,3.13.52.9,1.06,1.79,1.39,2.29l2.89,1.12,1.82,4.92-.9,4.89-3.9,4.91c-8.93,11.49-14.1,18.17-14.57,18.8s-4.3,6.62-7.7,12c-.51.75-4.79,7-6.25,8.56-13.75,17.1-15.37,18-16.06,18.42-10.09,5.75-10.79,5.75-11.46,5.75l-4.66.33-9.66-2L252.1,205,249,208.58l-2.3,15.67-6.46,6.06-7.94,2.19-7.13.4h-.11a2.13,2.13,0,0,0-.84.12,3.45,3.45,0,0,0,.11.89,15.88,15.88,0,0,0,1.63,4.88l11.7,12.78.8,1.47,4.36,15.8c1.65,2,5.82,7.7,4.28,13.23l-1.6,7.63-.77,2-.31,7.15-4.44,8-5,2.26L229.88,308l-3.24-3.73-6.26,2.33a3.18,3.18,0,0,1-1.3.54c-1.38.23-2.81-.42-4.34-2l-7.63-5.34-2.21.68-2.52,4.13-1.18,6.79-14.39-2.71-3.71,6.75-3.7,3.43-8.81-.82a3.25,3.25,0,0,1-.3.3,12.22,12.22,0,0,0-3,14.94,3.21,3.21,0,0,1,.1,2.7,3.09,3.09,0,0,1-1.95,1.73l-15.61,4.83A2.77,2.77,0,0,1,149,342.7Zm-.21-2.88a.46.46,0,0,0,.21,0L164.56,335a.25.25,0,0,0,.18-.13.39.39,0,0,0,0-.32,15.17,15.17,0,0,1,3.71-18.33l.33-1.12,1.22,0,8.45.79,2.44-2.26,4.48-8.15,13.58,2.56.78-4.49,3.37-5.51,4.56-1.39,9.09,6.4c1,1,1.61,1.31,1.92,1.26a.38.38,0,0,0,.17-.08l.19-.16L227.5,301l3.91,4.51,3.31.73,3.26-1.48,3.66-6.64.3-6.94.89-2.36,1.54-7.4c1.29-4.64-3-9.95-3.89-11l-.21-.24-4.48-16.23-.49-.84-11.46-12.46c-.18-.19-1.22-1.47-2.27-6.13a4,4,0,0,1,.22-3,3.83,3.83,0,0,1,3.45-1.44h0l6.76-.38,6.82-1.91,5.23-4.9,2.28-15.51,4.22-4.84,6.75-1.67,9.91,2.1,4.4-.31c.43-.12,2.26-.91,10.11-5.38.55-.32,3.16-2.69,15.32-17.81,1.18-1.29,4.75-6.4,6-8.27,2.39-3.78,7.14-11.26,7.8-12.15s9.43-12.18,14.61-18.85l.39-.51L329,135.8l.63-3.42-1.11-3-2.46-1-.24-.31a36.4,36.4,0,0,1-2-3.17l-.14-.25,0-.28c-.09-.75-.26-2.41-.39-3.7l0-.21,1.56-7.59-.11-.19c-1.4-2.48-2.9-10.58-2.92-10.66-.69-5.16-4.42-16.9-4.85-18.22l-.06-.29-.6-5.83a69.09,69.09,0,0,0-1.79-8.89l0-.09c-1.26-3.8-7-16-7.21-16.47l0-.06c-1.25-1.11-11.19-10.87-11.29-11l-.13-.14c-1.8-2.32-9.28-7.32-13.42-9.91a25.89,25.89,0,0,0-10.67-3.74l-.33-.07a26.19,26.19,0,0,0-7.73-.87c-3.29.56-14.59-2.12-15.08-2.23l-.25-.08c-2.51-1.12-10.47-1.94-14.78-2.25h-.12a91.82,91.82,0,0,0-11.52.77l-.12,0c-3,1-18.7.35-20.78.26a11.37,11.37,0,0,1-4.66-1.26,5.82,5.82,0,0,0-2.08-.69c-1.18.15-5.73,0-6.63,0h-.27l-6.4-2.78c-4.37.52-13.22-.47-13.31-.48h0c-4.67,0-14.55-3.14-15.81-3.54l-.44.13h-.22c-1.07,0-4.83.43-7.73.81-3.12.83-13,.56-13.39.55l-.35-.05c-3.67-1-9.06-4.21-9.68-4.57l-6-.84c-3.4-.54-9.15.39-12,1l-.12,0c-.42.05-10.27,1.33-12.67,1.08-1.62-.17-5.21.73-7.8,1.56l-.27.08-.28,0A17.93,17.93,0,0,0,75,15.68l-.18.08-.61.07-.53,1.66c-1.9,8.6-9.08,23.41-9.89,25.07l-.07.13c-3.06,4.86-10.93,15.85-12.48,18-6,8.88-3.1,16.16-3,16.47,3,6.76,5.26,9.59,6,9.83a.18.18,0,0,0,.21,0c.94-.78,7.39-8.08,16.83-19l2.3-2.67.19,3.52c.6,11.27.1,22.18-.2,28.69-.08,1.8-.15,3.23-.17,4.19,0,.32,0,.68,0,1V103l-.12.29a17.92,17.92,0,0,1-8.4,9.3c-.51.27-1,.48-1.5.68-1.3.54-2.06.89-2.5,1.78-.57,1.12-.17,2.2.53,3.88.13.3.25.6.37.9a26,26,0,0,1,1.84,13.45s.2.06.3.06h0l22.32-14.54-7.86,8.45a2.83,2.83,0,0,0-.32.39,5.48,5.48,0,0,0-.54,3.63l1.28,5.5L81,147.8l-4.47,6.84c-2.19,2.14-2.41,8.29-2.22,11.24l.05.22c1.95,4.27.11,9.49-.5,11l-.13.32-.65.56-3.11,1.24,0,.09c-.25.76-.7,1.79-1.65,2A2.78,2.78,0,0,1,65.79,180l-.18-.22-.08-.28a3.33,3.33,0,0,0-1.36-2.08,2.23,2.23,0,0,0-2,.06l-7.21,5.76.19,3-.06.23c-.46,1.66-1.11,2.69-2,3.13a1.93,1.93,0,0,1-1.4.15,6,6,0,0,1-6.92,3.07h0c-2.5,7.84-9.3,8.67-9.59,8.7-6.49.53-14.51,11.15-14.59,11.26l-.07.17c-.06.29-1.46,7.27,7.42,16,4.06,4,6.1,6,6.79,8.54s.08,5.85-1.12,12.46l-.54,3c-2.05,11.55-1.44,12.67.2,15.66a29,29,0,0,1,2.63,6.21c3,9.93,27.68,23.18,36.07,27,5.26,2.39,8.17-1.11,8.71-1.83l.1-.12,9.57-10.46a62.27,62.27,0,0,1,10.46-6.94,3.58,3.58,0,0,1,2.8-.15c4.68,1.5,10.71,11.18,13.53,16.66l.09.23c.57,1.84,1.31,3,2,3.11h.16l1-.09.4,1c1.59,3.88,4,6.29,7.48,7.38a15.94,15.94,0,0,0,2.7.52c2.21.3,4.72.64,6.65,3.15A22.17,22.17,0,0,1,140.4,320c.27.74.54,1.46.82,2.11ZM67,178.89Z"/></svg>