<svg id="Layer_1" data-name="Layer 1" xmlns="http://www.w3.org/2000/svg" viewBox="0 0 350 350"><defs><style>.cls-1{fill:#999;}.cls-2{fill:#f90;}</style></defs><title>M</title><path class="cls-1" d="M135.66,93,55.48,112.4l14.91,71.46,52.89-11.53,6.47,25s-123.5,28.13-123.5,29,11,56.27,11,56.27l13.22-20.82s30.95-6.19,31.79-5.63,3.38,11.53,1.41,20-5.35,14.63-2.25,22.79L71,293.58l23.54-4.88L121.88,282l30.38-14.44,24.94-5.63s11.82-2.06,13.13-2.06,10.5-1.31,10.5-1.31L199,249.88l1.88-.94-1.5-6.75,1.5-2.63-3.94-16.69,34.32-8.63,2.06-.94,1.13-2.63,2.06-5.25,1.69-1.69v-3.19l-1.5-7.5,6.94-.94,3-5.81,30.95,25.13,7.5-5.81,25.69-32.26L295,160.23l48.76-9.94-10.5-46.89-1.5-.56-4.69-21.57,9.38-5.06L324.24,61l-2.44-9.94L231.59,72.27l-40.51,8.25-.94-3.2-10.69,2.27.38,3.38Z"/><path class="cls-2" d="M60.65,301l-.58-1.54c-2.56-6.76-1-12.34.75-18.25.49-1.71,1-3.48,1.44-5.36,1.61-6.91,0-15.82-.87-18.24-3.6.34-19.67,3.41-30.08,5.49l-14.8,23.3-.69-3.47c-5-25.35-11-55.73-11-56.54,0-1.41,0-1.41,20.39-6.26,10.25-2.44,24.53-5.78,42.46-9.92,26.8-6.2,53.91-12.38,60.33-13.85L122.25,174l-53,11.55-15.48-74.2,81.53-19.74,42.93-9.75-.38-3.39,13.23-2.8.94,3.21,39.23-8,91.54-21.5,2.7,11,13.06,16.27L328.67,82l4.3,19.77,1.5.56,11,49L298.16,161l14.55,12.13-26.8,33.58-8.39,6.5L247.06,188.5l-2.54,4.92-6.18.83,1.23,6.3v3.78l-1.89,1.89-2,5-1.36,3.17-2.8,1.25-33,8.29,3.75,15.88-1.51,2.63,1.62,7.3-1.88.94,2,9-1.51.22c-1.55.22-9.36,1.33-10.7,1.33-.86,0-8.05,1.2-12.88,2l-24.72,5.58-30.51,14.47-27.38,6.75-23.38,4.84ZM62,254.78c.67,0,.83.11,1,.21,1.81,1.21,3.94,13.16,2,21.48-.45,1.94-1,3.75-1.48,5.5-1.55,5.38-2.81,9.73-1.35,14.89l8.26-4.62,23.75-4.92,27.19-6.71,30.4-14.45.15,0,24.95-5.63c2.06-.36,12.07-2.1,13.44-2.1.77,0,5.31-.6,8.79-1.09l-1.79-8.21,1.87-.94L197.83,242l1.49-2.62-4.13-17.51,35.55-8.94,1.45-.66.91-2.12,2.15-5.49,1.48-1.48v-2.46L235,191.85l7.71-1,3.46-6.71,31.43,25.52,6.48-5,24.72-31-17-14.13,50.24-10.24-10-44.73-1.51-.56-5.08-23.37,8.82-4.76L322.94,61.66l-2.18-8.88L231.92,73.65l-41.83,8.52L189.15,79,181,80.7l.37,3.36L136,94.37,57.15,113.46l14.34,68.71,52.83-11.52,7.18,27.77-1.42.32c-45.53,10.37-113.13,26-122.22,28.54,1.12,6.13,7,36.12,10.08,51.57l11.65-18.34.59-.12C53.68,255.7,60.06,254.78,62,254.78Z"/></svg>