<svg id="Layer_1" data-name="Layer 1" xmlns="http://www.w3.org/2000/svg" viewBox="0 0 350 350"><defs><style>.cls-1{fill:#999;}.cls-2{fill:#f90;}</style></defs><title>M</title><path class="cls-1" d="M6.25,178.81l16.2-10.11-8.1-8.91,48.34-21.19,9.22,12.29,11.37-27,7.37-4.91,19.54-1.54v-3.07h3.19v-4l4.3-1.54s7.68-.61,8.6,0,6.14-1.84,6.14-1.84h6.14l1.84-2.46a18.78,18.78,0,0,0,0,6.14c.61,2.46,2.46,4.91,4.91,5.53s1.84-.61,7.07,2.15,10.75,5.53,10.75,5.53l6.45-4.91v-4.3l-1.84-4v-1.54l3.69,3.07,14.44,3.69,16.89,1.84s14.13,6.14,17.2,7.37a28.27,28.27,0,0,0,8.91,1.54c1.54,0,7.07-.31,11.06-.61s1.84.61,4-.31,5.84-4.3,5.84-4.3,5.53-1.54,6.45-2.15a7.38,7.38,0,0,1,3.07-.61l9.22.61a10.16,10.16,0,0,0,5.53,3.69,34.34,34.34,0,0,1,7.37,3.38,1.92,1.92,0,0,1,1.84,2.15c0,2.15.92,5.22,2.46,5.84s5.22,4,5.22,5.53.31,6.76,0,7.68-3.07,4-1.84,5.22,3.69,3.69,4.61,2.76,1.54-3.38,4.61-3.38,3.38.61,8.29,3.38,11.37,7.68,14.13,10.75,6.76,7.37,9.83,10.44,5.53,5.22,5.53,5.22,3.69.31,4,2.15-.61,5.73,1.54,5.63l2.15-.1-7.37,14.13-7.68-1.84s-1.54,3.69-3.69,1.84-9.52-4.3-10.44-4.91-3.07-2.15-3.07-2.15L299.21,196l-1.84-3.38s-12.29-11.06-13.21-11.06-3.07-.31-3.07-.31L272.79,188,270,180.68s-7.06,5.84-8.29,6.14-4.3,2.35-7.68,2.86-7.37,3.28-7.37,3.28h-2.46l-5.53-3.28-3.38,2.67-6.14-2.67c-.92-.41-11.37.1-12.29,0s-.92.82-2.76,1.44-7.37.61-7.37.61a81.38,81.38,0,0,1-10.14.31c-3.07-.31-55.29.61-56.21.61s-6.45,2.46-6.45,2.46l.92,1.84-3.07,1.23,3.38,3.07s3.69,4.24,4.3,5.81a8.17,8.17,0,0,1,0,4A43.53,43.53,0,0,0,136.1,216c-.31.92,0,4,.61,5.84s-.33,5.75-.33,5.75-11.82,5.35-15.05,8.57-5.9,5.57-9.11,6.64-8.74,2.59-8.74,2.59S92.34,247.36,83,234l.51-7.42-6.83-.14L76,220l2.18-.82,1.07-.86s2,.89,2.21-.1,1.5-6.55-3-10.24l-1-.85.58,2.76-6.26,1.51s1.87,1.47,1.81,2.23-5.52-.19-5.52-.19-1.51-.32-.66-2.64a70.11,70.11,0,0,1,4.21-7.74v-5.38a7.74,7.74,0,0,0-2.56-3c-1.64-1-11-4-12.12-4.31s-3.19-1.11-4-.69A9.8,9.8,0,0,0,50.35,192c-.54.72-4.47,5.45-4.47,5.45s9.59,14.91,9.72,15.31-1.42,2.3-1.56,2.36l-11,3.76s-1.59-3.89-2.87-4-5.69,1.38-6.91,1.94-3.85,1.85-3.85,1.85Z"/><path class="cls-2" d="M101.87,246.92c-3.75,0-12.46-1.3-20-12.13l-.28-.41.45-6.43-6.59-.13-.93-8.75,3-1.12,1.57-1.26.79.36.39.14a9.12,9.12,0,0,0-1-6.12l-4.75,1.15a2.51,2.51,0,0,1,.48,1.54,1.58,1.58,0,0,1-.62,1.14c-.38.29-1.16.9-6.56,0a2.63,2.63,0,0,1-1.73-1.3,3.8,3.8,0,0,1,0-3.23,64.38,64.38,0,0,1,4.12-7.65V198a6,6,0,0,0-1.88-2.13c-1.38-.83-10.5-3.84-11.73-4.15l-1-.28a9.15,9.15,0,0,0-2.15-.49,8.85,8.85,0,0,0-2.07,1.89c-.42.57-2.68,3.3-3.85,4.71,9.13,14.2,9.25,14.56,9.32,14.77.46,1.41-1.82,3.89-2.4,4.11l-11.08,3.79-1.26.43-.51-1.24a10.69,10.69,0,0,0-1.78-3.08,31.14,31.14,0,0,0-6.09,1.81C32.63,218.73,30,220,30,220l-1.19.58L4.34,178.33l15.92-9.94L12,159.28l51.17-22.44,8.41,11.21,10.57-25.15,8-5.36,18.6-1.46v-3.18H112v-3.58l5.61-2c6.86-.55,8.64-.18,9.25.09a21.88,21.88,0,0,0,5-1.81l.29-.13h5.75l4.9-6.53-.95,5.72a17,17,0,0,0,0,5.57c.45,1.81,1.86,4,3.88,4.5A5.33,5.33,0,0,0,147,115c1.33,0,2.4.19,6,2.1,4,2.12,8.22,4.26,9.93,5.12l5.19-4v-3.29l-1.84-4v-4.87l5.76,4.8,14,3.58,17,1.86.2.09c.14.06,14.15,6.15,17.16,7.36a27.12,27.12,0,0,0,8.38,1.43c1.5,0,7-.31,10.95-.61a9.79,9.79,0,0,1,2.95.06l.6-.26a28.67,28.67,0,0,0,5.44-4l.25-.23.33-.09a49.71,49.71,0,0,0,6.05-2,8,8,0,0,1,3.85-.85l10,.67.38.62a8.84,8.84,0,0,0,4.74,3.08,35.72,35.72,0,0,1,7.42,3.35,3.32,3.32,0,0,1,2.8,3.53c0,2.15.95,4.27,1.57,4.52,1.72.69,6.11,4.4,6.11,6.85,0,.42,0,1.13.05,1.94.13,3.73.14,5.41-.12,6.19a7.21,7.21,0,0,1-.83,1.49,9.21,9.21,0,0,0-1.25,2.39,14.83,14.83,0,0,0,2.74,2.34l.23-.35a5.73,5.73,0,0,1,5.13-3.13c2.86,0,3.8.55,6.6,2.19.66.38,1.43.84,2.39,1.37,5,2.81,11.64,7.87,14.49,11,2.54,2.83,6.63,7.24,9.78,10.39,2.36,2.36,4.37,4.18,5.13,4.87,1.34.18,4.38.87,4.79,3.27a12.51,12.51,0,0,1,.08,2.19,10,10,0,0,0,.12,2.25l4.48-.2-9,17.29-7.69-1.85a4.46,4.46,0,0,1-2.55,2.06,3.07,3.07,0,0,1-2.8-.78c-1.26-1.08-5.11-2.62-7.41-3.54a20.85,20.85,0,0,1-2.9-1.27c-.71-.47-2.12-1.47-2.77-1.94l-12.67-.63-2.11-3.86c-5.21-4.68-11.06-9.72-12.39-10.54-.71,0-1.7-.15-2.35-.23l-9.35,7.62L269.4,183c-3,2.43-6.23,4.9-7.32,5.17a12.85,12.85,0,0,0-1.53.67,22.38,22.38,0,0,1-6.28,2.21,20.16,20.16,0,0,0-6.78,3l-.36.25h-3.29l-5-3L235.53,194l-.78-.34L228.69,191c-.93-.16-5.6,0-8.13,0-2.23.06-3.2.08-3.67.06l-.1.09a6.14,6.14,0,0,1-2.22,1.27c-1.95.65-6.94.69-7.76.69a79.74,79.74,0,0,1-10.34.3c-2.47-.25-39.47.36-51.62.55l-4.45.07a41,41,0,0,0-4.52,1.74l.94,1.88-2.4,1,1.82,1.67c.64.74,3.88,4.51,4.55,6.22a9.33,9.33,0,0,1,.06,4.89l-.07.29-.18.23a43.05,43.05,0,0,0-3.16,4.52,13.87,13.87,0,0,0,.62,4.92c.71,2.12-.12,5.81-.3,6.53l-.16.67-.63.29c-3.22,1.46-12.13,5.79-14.63,8.29-3.58,3.58-6.31,5.87-9.66,7s-8.58,2.55-8.81,2.62l-.13,0A11.68,11.68,0,0,1,101.87,246.92ZM84.49,233.58c8.3,11.61,17.77,10.57,18.7,10.44.68-.19,5.66-1.57,8.59-2.55s5.27-3,8.55-6.3c3-3,12.25-7.37,14.82-8.56a11.34,11.34,0,0,0,.22-4.31c-.65-1.94-1.07-5.38-.61-6.73a31.52,31.52,0,0,1,3.41-5.08,6.2,6.2,0,0,0,0-2.89,34.64,34.64,0,0,0-4-5.33l-5-4.54,3.74-1.5-.9-1.79,1.36-.6c3.85-1.71,6.22-2.58,7-2.58l4.4-.07c21.17-.34,49.59-.77,52-.54a80.59,80.59,0,0,0,9.87-.31h.12a34.75,34.75,0,0,0,6.92-.54A3.29,3.29,0,0,0,215,189a2.55,2.55,0,0,1,2.09-.76c.3,0,2,0,3.45-.06,6.81-.18,8.54-.15,9.26.17l5.36,2.33,3.48-2.75,6,3.58h1.64a22.23,22.23,0,0,1,7.59-3.26,20.06,20.06,0,0,0,5.47-2,12.3,12.3,0,0,1,2.08-.87,77.2,77.2,0,0,0,7.73-5.86l1.53-1.27,2.77,7.39,7.25-5.9.61.09c.57.08,2.2.29,2.87.29s1.47,0,14.16,11.42l.18.16,1.58,2.89,11.91.6.34.24s2.12,1.52,3,2.12c.24.14,1.38.6,2.38,1,2.78,1.11,6.59,2.64,8.2,4,.17.14.27.18.29.17a3.08,3.08,0,0,0,1.16-1.49l.47-1.1,7.77,1.86,5.73-11a2.49,2.49,0,0,1-1.64-.7c-1.07-1-1-2.77-1-4.44a11.15,11.15,0,0,0,0-1.67c0-.29-1.31-.85-2.72-1l-.46,0-.35-.31c-.1-.09-2.53-2.22-5.6-5.29s-7.19-7.51-9.88-10.5-9-7.78-13.77-10.46c-1-.54-1.76-1-2.43-1.4-2.67-1.56-3.08-1.8-5.17-1.8-1.48,0-2,.7-2.76,1.85a6.75,6.75,0,0,1-.84,1.12c-1.92,1.92-4.74-.9-6.61-2.76-1.7-1.71,0-4.29,1-5.83a10,10,0,0,0,.53-.86,50.72,50.72,0,0,0,0-5.17c0-.86-.05-1.59-.05-2-.16-.87-3-3.7-4.33-4.21-2.44-1-3.35-4.91-3.35-7.15,0-.58-.19-.71-.47-.73l-.36,0-.36-.2a33.19,33.19,0,0,0-7-3.22,12.38,12.38,0,0,1-5.84-3.67l-8.58-.57a6,6,0,0,0-2.19.38,39.63,39.63,0,0,1-6.53,2.25,29.25,29.25,0,0,1-6,4.33c-1.21.52-1.57.67-2.31.43a8.7,8.7,0,0,0-2.13,0c-4.05.31-9.58.62-11.17.62a29.88,29.88,0,0,1-9.43-1.64c-2.89-1.16-15.25-6.53-17-7.3l-16.88-1.86-14.75-3.76-.26-.21.49,1.07v5.31l-7.71,5.88-.79-.4c-.06,0-5.6-2.8-10.78-5.54-3.28-1.74-4-1.75-4.75-1.77a8.12,8.12,0,0,1-2-.26c-3.17-.79-5.27-3.87-5.95-6.56a12.13,12.13,0,0,1-.31-2.61h-6c-5.28,2.45-6.6,2-7.13,1.68a46.18,46.18,0,0,0-7.63.15l-3.18,1.14v4.41H111.6v3l-20.48,1.61-6.71,4.47L72.25,153.71l-10-13.36-45.5,20L24.64,169,8.16,179.29,30,216.89c.87-.42,2-1,2.69-1.29,1-.47,5.8-2.19,7.57-2.06,1.47.07,2.69,1.81,3.56,3.61l9.48-3.24a11.89,11.89,0,0,0,.77-1c-1.28-2.09-6.19-9.77-9.34-14.66l-.56-.87.66-.8c1.09-1.31,4-4.83,4.42-5.39a11.17,11.17,0,0,1,3.13-2.76c1.16-.58,2.69-.11,4.18.34l.83.24c1,.24,10.65,3.35,12.51,4.47A9,9,0,0,1,73,197.1l.13.28v6.1l-.21.34c-.81,1.31-2.88,4.78-3.79,6.8l7.33-1.77-1.16-5.51,4.16,3.58c4.69,3.84,4,9.42,3.46,11.64a2,2,0,0,1-1.05,1.33,3.24,3.24,0,0,1-2.27,0l-.62.5-1.37.51L78,225l7.07.14ZM68.63,212.1c.74.12,1.49.23,2.16.3l-1.85-1.46-.14.36A2.19,2.19,0,0,0,68.63,212.1ZM53.51,191Zm175.09,0h0Z"/></svg>