<svg id="Layer_1" data-name="Layer 1" xmlns="http://www.w3.org/2000/svg" viewBox="0 0 350 350"><defs><style>.cls-1{fill:#999;}.cls-2{fill:#f90;}</style></defs><title>M</title><path class="cls-1" d="M146.15,20.16l15.35,6.12L169.18,15l8.07-6.51,15.22-.65,11.19,3.77,8.72.39s22.9,10.54,28,15.09a44.75,44.75,0,0,1,8.07,9.76l4.81-.91,10,34.87L256.74,91.2s-7.16,15.61-6.64,16.78-2.47,15.48-2.47,19.26-2.34,15.87-3.25,17.69,0,10.8,2.21,18.87,9,19.13,10.8,20.95,10.93,14.44,11.06,16.39,10.28,17.3,11.32,19.52,4.16,9.37,4.29,10.93,1.17,23.55,2,30.71,1.43,26,1.43,26-4.16-1.3-6.57,4.1c0,0-3.84,1.63-4.81,1.11a14,14,0,0,1-2.73,2.73c-1.37.91-2.86,1-3,1.89a17.17,17.17,0,0,0,.2,5.07s.65,1.76.33,2-2.6-1.63-6.18-.33-4.62,2.6-5.59,2.8a14.6,14.6,0,0,0-7.81,5.92s-8,.2-9.17,0a1.77,1.77,0,0,0-1.5,2.73c.85,1.24,2.6,4.23,2.67,5.27s1.17,6.57-2,9.76c0,0-6.7.85-7.94,2.47a59.29,59.29,0,0,0-7-1.69c-1.24,0-7.61,1.82-9.82,2.08s-5.14,1.3-6.18,1.24a21.84,21.84,0,0,0-5.41,1c-1.29.46-2.2,1-3.63.91s-4.36.91-5.92,1.56-8.91,3.19-10.47,3.19-6.7.06-7.61,0-2.21-1.24-3.32-1.89-2.73-1.11-3-2.21-1.11-4.1-.39-5.85,3.77-7.61,3.84-8.91-4.88-4-5.85-4.75-4.29-1.76-4.94-2.28-10.15-6.18-11.45-6.77a6.28,6.28,0,0,1-2.86-2.47c-.72-1.11-6.18-13.6-7.48-14.7a13,13,0,0,1-2.41-3.19l-3.58-1.56-19.52,1s-7.94,5.85-9.82,8.52c0,0-4-1.37-5-3.19a6.12,6.12,0,0,0-4.68-2.73c-1.24,0-6.83-.65-7.74-1.37s-.85-3.38-.78-5.14-1.24-4.81-1.63-5.72-4.36-2.21-4.81-3.06-2.86-1.76-2.73-2.8-.34-2.41,0-2.8-6.63-2-6.83-2-4.68-3.06-4.68-3.06-2.28-10.73-3.71-12.69-2-9.3,0-10.73c0,0,10.15,5.53,11.25,6.38s2.8,3,3.25,3a21.55,21.55,0,0,1,5.92.52c3,.72,7.68,1.17,8.65.26s1.76-1.24,1.69-3-4.62-9.63-5.79-11.32-5.72-9-5.92-9.76,4.68-9.37,4.81-10.21-9.89-13.34-9.82-15.55-4.23-13-3.9-18.48,1.63-6.77,1.69-8a47.67,47.67,0,0,1,2.8-8.65c.72-1.37,5.66-16.33,6.57-17.89s5.33-12.49,7-15.81,5.27-13.21,7.42-13.92c0,0,5.59-4.36,6.77-4.62s3.19-2.54,3.71-3.32a4.66,4.66,0,0,1,4-1.82c2.15.07,4.81.39,6.38-3.71s7.55-7.42,8-8.33-3.84-4-4.1-4.55-5.33-4.42-5.33-5.33-.85-1.56-.13-3.19,1.37-5.4,2.47-6.31S122.66,77,122.66,77L121.43,73s4.23-5.72,4.55-7.29-1.11-3.25-1.11-4.29,1.69-2,2.73-4,.59-6.9.59-7.42,1.56-1.11,1.76-1.56-.91-4.88-.59-5.92,6.9-9.11,8.59-10,5.72-2.6,6.25-3.64S146.15,20.16,146.15,20.16Z"/><path class="cls-2" d="M179.25,343.62c-1,0-1.77,0-2.11,0a6.45,6.45,0,0,1-2.94-1.42c-.34-.24-.67-.47-1-.66s-.53-.28-.81-.42c-1.11-.54-2.49-1.21-2.84-2.69l-.08-.33c-.37-1.52-1.07-4.36-.24-6.39.24-.6.72-1.59,1.27-2.74a56.08,56.08,0,0,0,2.43-5.53,24.09,24.09,0,0,0-4-2.95c-.53-.33-1-.6-1.19-.77a17.57,17.57,0,0,0-2.46-1.11,11.36,11.36,0,0,1-2.54-1.21c-.75-.57-9.92-6-11.15-6.58a7.66,7.66,0,0,1-3.47-3c-.28-.43-.87-1.68-2.07-4.24-1.42-3-4.39-9.36-5.17-10.18a13,13,0,0,1-2.46-3.13L135.54,289l-18.75.94c-2.38,1.78-7.8,6-9.17,7.95l-.61.87-1-.35c-.75-.26-4.54-1.65-5.78-3.82a4.73,4.73,0,0,0-3.45-2c-.43,0-7.11-.49-8.62-1.67s-1.42-3.61-1.32-6.31c0-.54-.14-1.89-1.45-5a14.61,14.61,0,0,0-1.89-1c-1.59-.79-2.52-1.28-2.93-2-.07-.08-.5-.38-.78-.58-1-.68-2.29-1.6-2.11-3.07a5.59,5.59,0,0,0-.06-1.14c0-.22-.05-.45-.07-.68-1.49-.48-4.65-1.26-5.42-1.4-.45,0-.91-.27-5.36-3.3l-.47-.32-.12-.56c-.92-4.33-2.6-11-3.46-12.14-1.36-1.86-1.87-6.43-1.41-9.28A5,5,0,0,1,63,240.64l.72-.51.78.42c1.71.93,10.3,5.63,11.44,6.49a17.94,17.94,0,0,1,1.83,1.75c.28.3.68.71.94.94a22.15,22.15,0,0,1,5.88.57c3.32.79,6.68.88,7.41.55l.44-.39c.67-.58.78-.67.75-1.46-.12-1.3-4.09-8.47-5.54-10.56-.76-1.1-5.81-9.06-6.12-10.19-.22-.8,0-1.4,2.94-7.15.63-1.22,1.39-2.69,1.71-3.41-.5-.84-1.9-2.8-3.06-4.42-5-6.94-6.7-9.67-6.66-11.2a34.42,34.42,0,0,0-1.26-5c-1.28-4.4-2.86-9.87-2.65-13.51a21.94,21.94,0,0,1,1.4-7,4.53,4.53,0,0,0,.29-.95c.08-1.52,2.22-7.82,3-9.24.27-.52,1.6-4.32,2.67-7.38,2.09-6,3.4-9.65,3.93-10.57.43-.73,1.94-4.29,3.28-7.44s2.83-6.65,3.63-8.28c.39-.79.9-2,1.5-3.38,3-6.92,4.67-10.29,6.46-11.15,2.21-1.71,5.92-4.49,7.18-4.77a10.2,10.2,0,0,0,2.84-2.72,6,6,0,0,1,5.26-2.45h.35c2.06.08,3.54.13,4.66-2.81,1.23-3.22,4.7-5.89,6.78-7.48l.86-.67c-.53-.58-1.48-1.41-2-1.86A7.84,7.84,0,0,1,123,93.75c-.23-.25-1-.93-1.6-1.44-3.1-2.69-3.94-3.57-3.94-4.63a2.2,2.2,0,0,0-.12-.41,4.18,4.18,0,0,1,.1-3.35,20.14,20.14,0,0,0,.68-2.1c.68-2.33,1.2-3.92,2.18-4.73l.7-.59-1.18-3.72.43-.58c1.94-2.62,4.13-6,4.31-6.73a3.94,3.94,0,0,0-.53-1.91,5.29,5.29,0,0,1-.61-2.09,4.06,4.06,0,0,1,1.39-2.63,9.23,9.23,0,0,0,1.49-2c.48-1,.64-3.08.46-6.26,0-.25,0-.43,0-.52,0-1.06.92-1.66,1.6-2.09l.14-.09c-.05-.37-.14-.89-.21-1.31-.36-2.17-.56-3.55-.29-4.41.43-1.38,7.26-9.77,9.31-10.8l1.12-.54c1.22-.58,4.07-1.94,4.54-2.54.24-.56,1.13-4.79,1.78-8.33l.31-1.7L161,24.54,168.12,14l8.59-6.93,16-.68,11.25,3.79,8.79.39.25.12c.94.43,23.15,10.68,28.33,15.33a46.66,46.66,0,0,1,7.82,9.24l5.12-1,10.49,36.52-6.7,21c-3.08,6.72-6.3,14.39-6.52,15.93.22.94,0,2.86-1.12,9.6a97.09,97.09,0,0,0-1.34,9.92c0,3.77-2.29,16.1-3.4,18.33-.57,1.22,0,9.41,2.31,17.86,2.19,8,8.81,18.7,10.43,20.32,1.3,1.3,11.29,14.55,11.47,17.3.27,1.23,4.89,8.68,7.38,12.67,2.11,3.39,3.42,5.51,3.81,6.33,0,.09,4.24,9.19,4.42,11.42,0,.42.13,2.1.26,4.65.39,7.25,1.11,20.73,1.69,26,.78,7.13,1.41,25.35,1.44,26.13l.07,2-1.91-.6c-.29-.08-3-.73-4.85,3.32l-.23.51-.51.22a13.66,13.66,0,0,1-4.76,1.31,13.4,13.4,0,0,1-2.56,2.41,10.66,10.66,0,0,1-1.8.92c-.2.08-.44.19-.6.27a16.45,16.45,0,0,0,.18,4.15c.68,1.87.64,2.93-.14,3.56a2,2,0,0,1-2.09.06,5.89,5.89,0,0,0-4.49-.15,18.47,18.47,0,0,0-4,2,5.43,5.43,0,0,1-1.83.88,13.45,13.45,0,0,0-6.88,5.28l-.4.65-.76,0c-1.33,0-7.94.18-9.36,0a.57.57,0,0,0-.19.28.25.25,0,0,0,0,.24s2.8,4.16,2.91,6c0,.1,0,.25,0,.44.23,1.94.84,7.1-2.48,10.41l-.34.34-.48.06c-3.21.41-6.48,1.31-7,1.93l-.59.72-.93-.22a54.18,54.18,0,0,0-6.63-1.63c-.49,0-2.72.54-4.35.94-2,.49-4.14,1-5.31,1.14a28.26,28.26,0,0,0-3.26.68,11.83,11.83,0,0,1-3.17.56,21.87,21.87,0,0,0-4.85,1l-.79.31a6.93,6.93,0,0,1-3.44.68,15.82,15.82,0,0,0-5.25,1.46c-1.24.52-9,3.3-11,3.3h-2Zm-43.18-57.46,4.33,1.89.23.44a11.39,11.39,0,0,0,2.07,2.77c.94.8,2.57,4.07,5.87,11.11.79,1.68,1.68,3.59,1.88,3.91a4.86,4.86,0,0,0,2.25,1.95c1.24.56,10.91,6.28,11.75,7a19.44,19.44,0,0,0,1.82.79,15.72,15.72,0,0,1,3.08,1.45c.19.14.56.37,1,.66,3.81,2.39,5.49,3.72,5.41,5.31-.05,1-.85,2.83-2.74,6.79-.51,1.06-1,2.06-1.2,2.59-.48,1.17.12,3.61.37,4.64l.08.35a4.89,4.89,0,0,0,1.32.79c.35.17.7.34,1,.53s.78.5,1.18.78a7.12,7.12,0,0,0,1.53.92c.58,0,3.53,0,5.48,0h2c1.13,0,7.9-2.23,9.93-3.08,1-.44,4.61-1.85,6.59-1.67a4.22,4.22,0,0,0,2.12-.48c.29-.12.59-.24.91-.35a22.83,22.83,0,0,1,6-1.12,15.59,15.59,0,0,0,2.31-.48,30.24,30.24,0,0,1,3.62-.75c1-.12,3.11-.63,5-1.08a31.5,31.5,0,0,1,5-1,43.17,43.17,0,0,1,6.68,1.53c1.86-1.28,5.53-1.95,7.59-2.23,2-2.39,1.54-6.25,1.36-7.74,0-.25-.05-.46-.06-.59a20.31,20.31,0,0,0-2.42-4.56,3.14,3.14,0,0,1,0-3.51,2.94,2.94,0,0,1,2.9-1.42c.61.1,4.5.08,8.17,0a16,16,0,0,1,8.3-5.91,5.4,5.4,0,0,0,.87-.5,21.27,21.27,0,0,1,4.52-2.24,8.41,8.41,0,0,1,4.89-.33,19.31,19.31,0,0,1-.14-5.31c.2-1.29,1.34-1.78,2.26-2.17a8.15,8.15,0,0,0,1.35-.68,12.39,12.39,0,0,0,2.39-2.4l.73-1,1,.51a13.68,13.68,0,0,0,3.22-.9c1.7-3.38,4.2-4.44,6.14-4.55-.18-4.71-.73-18.5-1.37-24.31-.59-5.37-1.31-18.9-1.7-26.18-.12-2.34-.22-4.19-.26-4.56-.09-1.05-2.62-7.16-4.16-10.44-.34-.71-1.95-3.3-3.65-6-5.43-8.73-7.71-12.6-7.8-14-.39-1.82-8.82-13.65-10.65-15.49-2.1-2.1-8.93-13.44-11.16-21.57-2-7.36-3.38-17.33-2.11-19.87.75-1.51,3.1-13.26,3.1-17.06a93.81,93.81,0,0,1,1.37-10.37,85.28,85.28,0,0,0,1.16-8.46c-.26-.73-.2-2.73,6.67-17.72l6.35-19.94-9.54-33.21-4.53.86-.5-.87a43.76,43.76,0,0,0-7.79-9.41C234.82,24,214.53,14.52,212,13.36L203.39,13,192.26,9.23l-14.49.62-7.54,6.08L162,28l-14.81-5.9a55.38,55.38,0,0,1-1.76,7.46c-.55,1.1-2.24,2.05-5.81,3.76l-1.07.52c-1.31.69-7.13,7.72-7.86,9.12a21.11,21.11,0,0,0,.38,3.09c.31,1.85.39,2.4.15,3a3.15,3.15,0,0,1-1.35,1.3l-.27.17c.14,2.57.17,5.71-.76,7.58A11.89,11.89,0,0,1,127,60.73a7.05,7.05,0,0,0-.66.8,7.81,7.81,0,0,0,.36.89,6,6,0,0,1,.71,3.63c-.32,1.54-3,5.42-4.37,7.25l1.28,4-.61.61s-.41.4-1.53,1.33a12.87,12.87,0,0,0-1.27,3.34,21.56,21.56,0,0,1-.81,2.45,1.41,1.41,0,0,0,0,1.3,4.53,4.53,0,0,1,.25,1,31.06,31.06,0,0,0,3,2.8,11.25,11.25,0,0,1,2.17,2.11c.17.18.68.63,1.06,1,2.17,1.89,3.88,3.39,3.09,5-.27.55-.81,1-2.09,2-1.84,1.41-4.92,3.77-5.86,6.24-1.84,4.83-5.33,4.71-7.41,4.63h-.33a3.34,3.34,0,0,0-2.81,1.19c-.35.53-2.69,3.5-4.58,3.92a51.77,51.77,0,0,0-6.2,4.35l-.19.15-.23.08c-1.14.65-3.77,6.76-5,9.69-.61,1.42-1.14,2.65-1.56,3.51-.77,1.57-2.19,4.91-3.57,8.14-1.82,4.28-3,6.93-3.44,7.76s-2.4,6.36-3.7,10.08c-1.58,4.51-2.49,7.09-2.84,7.76a49.11,49.11,0,0,0-2.64,8.07,6,6,0,0,1-.47,1.78,19.11,19.11,0,0,0-1.23,6.23c-.19,3.15,1.39,8.59,2.54,12.56.92,3.17,1.4,4.87,1.37,5.88.19,1.15,4.06,6.56,6.13,9.47,3.53,4.94,3.8,5.41,3.67,6.25-.08.53-.5,1.38-2.12,4.52-.86,1.67-2.24,4.35-2.62,5.33.75,1.42,4.46,7.44,5.61,9.09.71,1,5.95,9.62,6,12.07a4.06,4.06,0,0,1-1.73,3.71l-.41.37c-2.07,1.94-9.87.1-9.95.08a19.54,19.54,0,0,0-5.29-.49h-.3c-.86,0-1.44-.61-2.61-1.83a16.64,16.64,0,0,0-1.5-1.46c-.67-.52-6-3.51-9.94-5.64a5.94,5.94,0,0,0-.2.88c-.43,2.68.23,6.25.89,7.15,1.41,1.93,3.25,10,3.83,12.67,1.68,1.14,3.45,2.31,3.91,2.58,1.67.31,7,1.41,7.62,2.7l.38.82-.37.47c0,.15,0,.36.05.51a8.88,8.88,0,0,1,.08,1.53,8.59,8.59,0,0,0,.89.68A5.39,5.39,0,0,1,83,275.09a14,14,0,0,0,1.76,1c1.77.88,2.79,1.42,3.18,2.32,1.22,2.85,1.79,4.93,1.74,6.34-.1,2.68.08,3.65.26,4a32.48,32.48,0,0,0,6.84,1.06,7.58,7.58,0,0,1,5.91,3.45c.43.74,2,1.63,3.33,2.2,2.61-2.91,8.68-7.42,9.43-8l.34-.25Zm-50.63-6.47Zm-2.38-4.48h0Zm-.1-.15Zm-2.75-3.91,0,.05Zm.17-.39Zm-1.46-20.88h0ZM127.14,96.8Zm-4.21-3.21h0Zm-2.71-6.33"/></svg>