<svg id="Layer_1" data-name="Layer 1" xmlns="http://www.w3.org/2000/svg" viewBox="0 0 350 350"><defs><style>.cls-1{fill:#999;}.cls-2{fill:#f90;}</style></defs><title>M</title><path class="cls-1" d="M341.64,224.41l-5.43-4.07h-.75l-2.26-2.19a7.22,7.22,0,0,0-1.31-1,5.24,5.24,0,0,0-1.66-.68c-.58-.08-2-.5-2.67-.63s-3.3-.83-3.62-.83-2.84-.53-3.6-.53-2.34-.13-2.34-.13-4.4,1-4.8,1l-4.9,1s-7.72,1.43-8.28,1.48-1.53.18-2.26.25a28,28,0,0,1-3,.05c-1,0-2.41-.15-3.17-.15s2.34.53-1.79-.08a70.31,70.31,0,0,1-8.2-1.79,13.46,13.46,0,0,0-2.14-.63c-.83-.13-3.27-.6-3.4-.63l-.6-.15-5.89-5.18-4.5-4.15-3-2.84-7.75-3.47c-1-.43-4-1.71-4.68-2s-5.21-2.36-8.25-3.82-5-2.14-6.56-2.87-6.94-3.42-6.94-3.42l-3.57-1.53-5.86-14.16,2.21-9.71s1.26-6.29,1.69-8.83.25-5.79.38-6.62.68-3.9.68-4.55.35-3.27.35-3.52,1.71-6.94,2-7.7.8-2.47,1-3,1.91-4.33,1.91-4.48.15-1.16.15-1.16-3.62-2-3.77-2.21-1.86-1.81-2.16-2.21a32.73,32.73,0,0,0-3.32-2.72c-.35-.2-3-1.71-3.27-2a14.4,14.4,0,0,0-1.46-.86l-2.21-.45s-.91.4-1.16.55-.15.2-1.41.25a29.07,29.07,0,0,1-3.22-.15s-1.06-1.41-1.51-1.56-2-1.31-2.62-1.51a29.62,29.62,0,0,1-3.17-1.81,24.08,24.08,0,0,1-2.41-1.66c-1.06-.86-1.71-1.36-1.71-1.36l-2.21-.91-1.91-2s-6.34-2.52-7.55-2.62-4.13-1.36-5.18-1.66a30.69,30.69,0,0,0-4.13-.7c-.4,0-4-.25-4-.25l-5.73-1.81-3.47-1.26-5-1.51-6.59-.55-4.18,1.56h-8l-5.38-2.26-1.36-.8s-3.87-1.11-4-1.11a30.72,30.72,0,0,1-3.32-2.67A36.84,36.84,0,0,0,120.24,83c-.25-.15-1.36-1.11-1.36-1.11L115,80.43l-1.63-.3-2.11-2.31h-1a13.58,13.58,0,0,1-1.16-1.11,8.89,8.89,0,0,1-1.06-1.56L106,74l-2.16-3.07,1.16-9.36,5.63-5.48L115,48.64h1l.1-.65s0-.45-1.13-.86a22.39,22.39,0,0,0-2.24-.65l-1.16-.4-.45-.47s-.55.83-3.24-1a12.76,12.76,0,0,1-3.21-2.58l-2.15,3.08-3.21,4.43-2.11,4-2.49,1.74L93.1,57.85l-1.53.62a9.65,9.65,0,0,1-.79,1.79c-.27.29-4.19,4.14-4.19,4.14l-6.15,3.13s2.21,1.89,2.77,1.94.36.68.36.68-1,1-1.51,1a9.66,9.66,0,0,1-1.62-.18l-.55,0a8.7,8.7,0,0,0-3.74,7.67s1.1,2.44,1.79,2.67,0,1.25,0,1.25l3.52,1.62,3.6,2.55s1.32.68,1.31,1.2a6.45,6.45,0,0,1-1,1.9L83.6,92.2l-1.16.57A6.78,6.78,0,0,1,80.87,92c-.28-.3-2.17-2.56-2.17-2.56L77.31,88s-1-.79-.8,1.78a12.38,12.38,0,0,0,.77,3.89l.13,2,0,1.36s-.14,1-2.13.59a13.64,13.64,0,0,0-4.5.11l-.69-.09S69,94.51,65,96.18a4.74,4.74,0,0,1-1.73-.2c-.78-.28-1.42-.58-1.42-.58l-1.73-1.75-1.72-2.13-1.66-1.78-2.12-1.47L52.48,87,50,86.17,47.2,84.7l-2.67-1.2L41.14,80l-2-1.9a19.63,19.63,0,0,0-6-1.81L36,81.85a8.15,8.15,0,0,1-1,3.71l1.51,2.94-1.54,1.67-2.13,2.9-4.52,3-4.34.23s-2.75-1.72-5.36-.75l-1.25,2.18,11.72,9.11,1.41,4.78,4,5.68,1,3.67-.35,4.33-3,5.08-4.18,4L24,135.57l-2.87,7.9L18,149.15l-3.47,3.37a24.35,24.35,0,0,0,0,3.32,18.08,18.08,0,0,1-1.46,3s-1.21,6.34-1.21,7a15.59,15.59,0,0,1-.3,2.11l2.16,6-.91,1.71L11.58,182,8.06,193l-1.81,6.34v.3l5.13,2.82s5.23,1.26,5.18,1.41,1.31,1.26,1.31,1.26l1.16-.35,6.39.05.91.75h2.36l3.52.6c.25.05,1.41-1.06,1.56-.86s2.31-.45,2.31-.45l2.41.2S44.33,208,45.09,208a33.35,33.35,0,0,0,3.87-.8l3.75.28,5.66,1.13,8,1.74,2.57,1.13,9.66.6,6.64,1.51,2.87.38,1.89-.08a17.67,17.67,0,0,0,2.87,1c.53,0,2.49.38,2.49.38l.6.83,3.55,2.34s2.94,2.57,3.85,4.9,2,5.21,2,5.21l.23,2.87.38,3.17,1.43,2.49s-.08,2.19-.08,3.32A21.78,21.78,0,0,1,107,243l-.45,1.13.6,1.36v.45s2.79-.75,3.17-1.66a4.35,4.35,0,0,0,.38-1.51l2.57-1.89,6.19,10,.68,3.47,1.36,5.43,5.36,2.49h1.36l4.6,10.56,1.66,1.06s1.89.3,2.26.38a15.38,15.38,0,0,0,1.89,0,39.26,39.26,0,0,0-.6,4c0,.91-.08,1.89-.08,1.89l-.45.83.6.91h1.81l.75-1.13,1.89.3.53,1.21.6-.38-.23,2.79-1,2s2.11,1.28,2.79.91l.68-.38s3.32.06,3.7.45,3.47.69,3.47.69,2,1.43,3.09,1.43,4.83-.38,5.06-.38,3.77-1.21,4-1.13,2.57-1.51,3.09-1.51,10.34-.53,10.64-.53a30.39,30.39,0,0,1,3.17,1.66l9.66,1.43,3.09-.08s6.19,1.51,6.79,1.58l14.19,1.74s3.62.83,4,.83,2,.3,4.23.38a26.18,26.18,0,0,0,4.68-.45c.3,0,2.64-.83,3.92-.3s2.19-.23,2.72-.23,8.9-.23,8.9-.23-1.66-.45,3.17.53,7.92,1.51,7.92,1.51,8.83.83,9.58.83.38-1.51,4.38-1.66,6.72-.38,6.72-.38,4.07,1.51,6,1.28a9.78,9.78,0,0,1,3.92.15,3.67,3.67,0,0,0,2.87-.53l2.34.68,5.21-.23,5.73,2.57,8.45,1.21,6.87,2.19,5.13,2s3.24,2,3.7,2.34,4.75,1.58,4.75,1.58l1.81,1.36,6.56-13.73s2-7.24,2.11-8a6,6,0,0,0,0-1.74l-2-9.05,2.64-7.09,1-9.13-1.21-8.9s.68-6.79.75-7.85a43.79,43.79,0,0,1,1-4.45Z"/><path class="cls-2" d="M333.49,310.11l-3-2.24c-4.28-1.28-4.72-1.58-4.89-1.69-.4-.26-3-1.88-3.55-2.24l-5-1.91-6.68-2.13-8.53-1.22-5.61-2.51-5.1.22-2-.58a5.51,5.51,0,0,1-3.28.4l-.54-.09a7.51,7.51,0,0,0-3-.05c-2,.22-5.32-.88-6.39-1.25-.82.06-3.21.23-6.47.36-2.17.08-2.58.56-2.83.84a2.07,2.07,0,0,1-1.6.82c-.78,0-8.23-.7-9.72-.84h-.11s-3.17-.54-8-1.52c-1.35-.27-2.13-.42-2.59-.51h-.26c-.83,0-7.84.21-8.85.23l-.2.07a4.11,4.11,0,0,1-3.15,0,6.17,6.17,0,0,0-2.55.26,3.39,3.39,0,0,1-.83.15l-.32.06a21.36,21.36,0,0,1-4.41.39c-1.53-.05-2.82-.21-3.59-.31l-.6-.07a26.14,26.14,0,0,1-4.22-.85l-14.12-1.73c-.6-.07-4.79-1.09-6.77-1.57l-3,.07-10-1.49-.23-.14c-1-.57-2.2-1.24-2.67-1.46l-3.89.2-6.36.32c-.29.12-1,.5-1.33.71a4.38,4.38,0,0,1-1.92.81h0c-.4.1-1.49.43-2.09.62a7.23,7.23,0,0,1-1.92.5l-1,.08c-1.75.15-3.37.29-4.1.29a7.81,7.81,0,0,1-3.6-1.48c-2.53-.27-3.37-.6-3.74-.86a18.57,18.57,0,0,0-2.58-.22l-.34.19c-.93.52-2.35.2-4.22-.93l-1.12-.68,1.44-2.88.06-.68-.56-1.28-.22,0-.67,1h-3.33l-1.5-2.25.71-1.31c0-.34.05-.93.05-1.48a19.93,19.93,0,0,1,.32-2.56,3.43,3.43,0,0,1-.46,0c-.37-.07-2.21-.37-2.21-.37l-.29,0-2.27-1.45-4.41-10.11h-.74l-6.25-2.91-1.52-6.09-.65-3.29-5.25-8.51-.84.62a6.81,6.81,0,0,1-.39,1.27c-.53,1.28-2.53,2.06-4.11,2.48l-1.79.48v-2l-.72-1.63.61-1.53a19.18,19.18,0,0,0,.19-2.27c0-.84,0-2.27.06-3L104.53,235l-.41-3.46-.22-2.73c-.25-.67-1.12-3-1.89-5a14.47,14.47,0,0,0-3.39-4.29L95,217.07l-.42-.58c-.73-.13-1.47-.25-1.68-.25s-.76,0-3.12-1l-1.7.07-3.12-.42-6.53-1.48-9.8-.61-2.67-1.18-7.86-1.7-5.55-1.11-3.43-.25a26,26,0,0,1-4,.79c-.32,0-1.06,0-7-2.9l-1.88-.16a8.92,8.92,0,0,1-2.29.47l-.16.12a2.34,2.34,0,0,1-1.85.67L28.57,207H25.81l-.91-.76-5.67,0-1.67.51-.58-.48A11.38,11.38,0,0,1,15.63,205c-.8-.24-2.84-.76-4.58-1.18l-.35-.14-5.87-3.22v-1.34l1.86-6.53,3.51-11,1.28-6.46.71-1.34L10.11,168l.08-.39a14,14,0,0,0,.27-1.83c0-.69.77-4.84,1.23-7.26l0-.23.12-.21c.47-.82,1-1.83,1.23-2.32a27.58,27.58,0,0,1,0-3.34l0-.56,3.72-3.61,2.92-5.4,3.08-8.48,4.43-1.26,3.78-3.65,2.75-4.63.31-3.76-.83-3.19-4-5.67L28,107.68,15.63,98.1l2.11-3.69.48-.18a8,8,0,0,1,6.18.65l3.54-.19,4-2.66L34,89.22l.87-.94-1.4-2.72.35-.65a7,7,0,0,0,.78-2.72l-3.89-7.56,2.55.22a20.94,20.94,0,0,1,6.48,2l.19.09,2.17,2,3.25,3.4,2.42,1.09,2.8,1.46,2.62.94,2.1,1.25,2.44,1.72,1.73,1.85,1.68,2.08,1.49,1.51c.24.1.64.27,1.08.43a3.52,3.52,0,0,0,.95.13,5.63,5.63,0,0,1,4.43-.1,4.4,4.4,0,0,1,1.82,1.55,14.3,14.3,0,0,1,4.6,0,3.51,3.51,0,0,0,.45.06v-.59L75.87,94a14.91,14.91,0,0,1-.78-4.11c-.05-.76-.17-2.54,1.1-3.21a1.85,1.85,0,0,1,2,.23l.13.12,1.46,1.52c.83,1,1.78,2.12,2.05,2.43a5.32,5.32,0,0,0,.53.25l.29-.14,1.58-2.15c.18-.25.37-.55.51-.8l-.33-.19-.18-.11-3.49-2.47L75.83,83.1l.75-1.1a9.89,9.89,0,0,1-1.72-2.81l-.11-.24v-.27a10.09,10.09,0,0,1,4.41-8.95l.36-.22,1.16,0c-.33-.26-.71-.57-1.15-.94l-1.61-1.38,7.84-4c1.41-1.38,3.52-3.46,3.94-3.88A12.38,12.38,0,0,0,90.23,58l.21-.61,1.71-.69,1.59-2.45,2.44-1.7,2.05-3.83,3.21-4.43,3.34-4.79,1.15,1.76h0a15.49,15.49,0,0,0,2.81,2.18,6.78,6.78,0,0,0,1.61.85l.64-1,1.44,1.48.77.27a23.87,23.87,0,0,1,2.32.68c1.87.67,2.07,1.75,2.07,2.19l0,.22-.29,1.86h-1.44l-4.27,7-5.28,5.14-1,8.32,1.65,2.35,2.25,1.2.2.38a7.32,7.32,0,0,0,.85,1.26c.22.24.46.47.65.65h1l2.21,2.42,1.43.29,4.07,1.6.18.16c.46.39,1,.88,1.19,1a34.53,34.53,0,0,1,3.47,2.72c.29.31,2.18,1.84,2.79,2.28.49.12,1.52.4,3.88,1.08l.33.14,1.27.75,5,2.12h7.46l4.23-1.58,7.2.63,5,1.51,3.55,1.28,5.52,1.74c1.66.12,3.46.23,3.71.24a30.27,30.27,0,0,1,4.51.76c.41.12,1,.33,1.67.58a20.15,20.15,0,0,0,3.24,1c1.28.11,6,1.93,8,2.71l.29.12,1.92,2,2.11.86.15.12s.67.51,1.74,1.38a19.06,19.06,0,0,0,2,1.38l.32.2a32.38,32.38,0,0,0,2.84,1.65,9.19,9.19,0,0,1,1.78,1c.29.19.74.47.87.53s.7.23,1.75,1.53a23.24,23.24,0,0,0,2.42.09l.72,0h0c.29-.18,1-.5,1.31-.63l.41-.18,2.85.58.18.09a12.62,12.62,0,0,1,1.71,1c.26.19,2.14,1.29,3.07,1.82a29.52,29.52,0,0,1,3.75,3.1c.12.14.67.69,1,1,.59.58.88.86,1.06,1.07.45.31,2.07,1.22,3.42,2l.88.47-.15,1s-.12.79-.14,1,0,.35-1,2.56c-.36.81-.9,2-1,2.28l0,.17c-.21.7-.65,2.17-.94,2.91s-1.75,6.43-1.92,7.31c0,.17,0,.45-.12,1.11s-.23,2-.23,2.27a33.4,33.4,0,0,1-.53,3.77c-.07.42-.13.78-.16,1s0,.85,0,1.43a34.9,34.9,0,0,1-.34,5.21c-.43,2.53-1.64,8.61-1.69,8.87L220,171.13l5.47,13.21,3,1.31c.13.06,5.46,2.73,7,3.44.6.28,1.25.55,2,.86,1.2.49,2.68,1.11,4.56,2,2,1,4.73,2.21,6.49,3l1.76.81c.39.19,1.59.7,2.7,1.18l1.94.84,8,3.57,3.15,3,4.48,4.13,5.61,4.94.2,0c.15,0,2.55.5,3.33.62a14.07,14.07,0,0,1,2.37.68,69.32,69.32,0,0,0,8,1.73l1,.15a1.79,1.79,0,0,1,.57-.09c.43,0,1.06,0,1.71.08s1.05.06,1.49.07a26.34,26.34,0,0,0,2.79,0l1-.12,1.23-.14c.47-.05,5.25-.93,8.14-1.47l4.9-1,4.76-1,.2,0,.21,0c.42,0,1.66.12,2.23.12a19.49,19.49,0,0,1,2.66.37c.45.08.83.15,1,.16h0a16.26,16.26,0,0,1,2.55.55l1.27.3c.28.06.71.17,1.16.28s1.16.3,1.41.33a6.55,6.55,0,0,1,2.26.9l.11.07a8,8,0,0,1,1.39,1.07l1.86,1.79h.65l6.27,4.7,2.25,14.45-.08.29a39.87,39.87,0,0,0-.94,4.19c-.07,1-.63,6.65-.74,7.72l1.21,8.91-1.08,9.65-2.49,6.7,1.94,8.64a7.28,7.28,0,0,1,0,2.33c-.16.78-1.93,7.34-2.13,8.09l-.09.24Zm-30.85-14.19,8.48,1.23,6.87,2.19,5.45,2.11s3.27,2.06,3.73,2.36c.31.15,2.53.86,4.37,1.41l.24.07.63.47,5.76-12.06c.76-2.79,2-7.27,2.06-7.78a4.55,4.55,0,0,0,0-1.24l-2.11-9.37,2.73-7.32.94-8.78-1.21-8.9,0-.17c0-.07.68-6.78.75-7.81a37,37,0,0,1,.95-4.43l-2-12.72-4.59-3.44h-.86l-.41-.4-2.26-2.18a5.16,5.16,0,0,0-.93-.71l-.19-.12a4.15,4.15,0,0,0-1.06-.45,17.51,17.51,0,0,1-1.75-.4c-.39-.1-.77-.2-1-.25l-1.39-.33c-.66-.16-1.74-.43-2-.47a13.32,13.32,0,0,1-1.34-.2c-.64-.11-1.84-.32-2.17-.32-.64,0-1.77-.08-2.24-.11-.94.2-4.27.93-4.64,1l-4.89,1c-1.85.34-7.85,1.45-8.43,1.51l-1.16.13-1.08.12a30,30,0,0,1-3.15.06c-.47,0-1,0-1.59-.08l-.36,0c-.53.25-1.47.11-3.17-.14a70.93,70.93,0,0,1-8.39-1.83l-.11,0a11.65,11.65,0,0,0-1.84-.55c-.9-.14-3.44-.64-3.46-.64l-.68-.17-.33-.08-6.13-5.4-4.53-4.17-2.81-2.69-7.52-3.37-1.9-.82c-1.16-.5-2.4-1-2.81-1.23l-1.71-.79c-1.77-.81-4.49-2.05-6.54-3-1.81-.87-3.26-1.46-4.42-1.95-.8-.33-1.5-.62-2.13-.92-1.56-.73-6.75-3.33-7-3.44l-4-1.73L217,171.38l2.31-10.15s1.25-6.26,1.67-8.75a32.93,32.93,0,0,0,.3-4.77,15.55,15.55,0,0,1,.08-1.82c0-.22.1-.59.17-1,.15-.87.49-2.9.49-3.31s.1-1.36.25-2.6c.05-.46.1-.83.11-1,0-.68,2-7.82,2.11-8.18.25-.62.69-2.11.86-2.67l.05-.18c.09-.31.41-1,1.1-2.6.28-.62.64-1.45.77-1.77v-.08c-2.86-1.57-3.21-1.89-3.4-2.18s-.55-.56-.84-.83a14.93,14.93,0,0,1-1.29-1.34c-.3-.33-2.53-2.1-2.91-2.35-.69-.39-3-1.75-3.45-2.09-.11-.08-.57-.35-1-.6l-1.57-.32-.59.29a3.45,3.45,0,0,1-2.08.45,29.72,29.72,0,0,1-3.42-.16l-.62-.06-.37-.5a9.23,9.23,0,0,0-1-1.12,9.83,9.83,0,0,1-1.3-.76,12.24,12.24,0,0,0-1.17-.7,29.48,29.48,0,0,1-3.5-2l-.24-.15a22,22,0,0,1-2.28-1.59c-.75-.6-1.29-1-1.53-1.22l-2.32-.95-1.91-2a62.45,62.45,0,0,0-6.86-2.41,18.42,18.42,0,0,1-4-1.19c-.6-.22-1.13-.42-1.46-.52a30.88,30.88,0,0,0-3.76-.65h0c-.4,0-3.2-.19-4.05-.25l-.33-.06-5.74-1.81-3.53-1.28L156,92.75l-6.13-.51-4.12,1.54h-8.54l-5.82-2.46-1.2-.71c-1.64-.47-3.44-1-3.7-1h0c-1.28-.35-4.12-3.08-4.14-3.11-.34-.35-2.51-2-2.86-2.2a14.72,14.72,0,0,1-1.35-1.08l-3.5-1.37-2-.36-2-2.2h-.84l-.39-.33a15.12,15.12,0,0,1-1.29-1.24,9.07,9.07,0,0,1-1-1.46L105,75.08l-2.67-3.79L103.6,60.9l5.86-5.7,4.2-7c-.66-.2-1.17-.31-1.18-.32l-.15,0-1.47-.51-.08-.08a6.46,6.46,0,0,1-3.62-1.39c-1-.64-1.68-1.17-2.2-1.6L103.75,46l-3.16,4.37L98.36,54.5l-2.54,1.77L94,59l-1.36.55a4.76,4.76,0,0,1-.87,1.68c-.28.3-3.58,3.54-4.24,4.18l-.16.15-4.37,2.22a4.77,4.77,0,0,0,.46.29,1.79,1.79,0,0,1,1.2.77,2.07,2.07,0,0,1,.21,1.73l-.1.33-.24.25a4.19,4.19,0,0,1-2.46,1.4,9.76,9.76,0,0,1-1.8-.18,7.27,7.27,0,0,0-2.76,5.89,9.41,9.41,0,0,0,1,1.73,1.81,1.81,0,0,1,1,1.07,2,2,0,0,1,.1.68L82.29,83l3.52,2.49c1.34.71,2,1.53,2,2.44,0,.24,0,1-1.26,2.69l-2,2.73-2,1L82,94.1A5,5,0,0,1,79.84,93c-.23-.24-1.2-1.4-1.8-2.12a9.61,9.61,0,0,0,.53,2.24l.1.22.15,2.26,0,1.59a2.12,2.12,0,0,1-.89,1.39A3.69,3.69,0,0,1,75,99a12.29,12.29,0,0,0-3.94.11l-.23,0L69,98.89l-.28-.84h0a1.64,1.64,0,0,0-.82-.81,3.21,3.21,0,0,0-2.39.25l-.2.08-.22,0a6.11,6.11,0,0,1-2.33-.28c-.83-.3-1.51-.61-1.54-.63L61,96.58l-2-2L57.3,92.45l-1.52-1.63-2-1.38-1.9-1.12-2.52-.89L46.55,86,43.7,84.68l-3.58-3.75-1.8-1.7a22.2,22.2,0,0,0-2.53-1l1.67,3.24v.32a9.33,9.33,0,0,1-.79,3.74l1.64,3.2-2.15,2.34-2.23,3-5,3.37-5.17.27-.38-.24a5.79,5.79,0,0,0-3.66-.76l-.35.61L30.42,106l1.47,5,4,5.7L37,120.85l-.4,4.89-3.28,5.53-4.57,4.4L25,136.73l-2.71,7.41L19.17,150l-3.22,3.13c0,.87-.05,1.78,0,2.2.31.75-.2,1.74-1.47,4-.55,2.88-1.11,6.05-1.14,6.53a13,13,0,0,1-.25,2l2.24,6.26-1.1,2.08-1.26,6.29-3.52,11-1.56,5.47,4,2.22c5.5,1.33,5.56,1.43,5.91,2v0l.39.35.63-.19,7.11.06.9.75,2.09,0,3.06.52.14-.1a2.66,2.66,0,0,1,2-.69c.35-.07,1-.23,1.56-.4l.26-.08,3,.25.24.12c2.39,1.17,5.3,2.51,6,2.72.51-.05,2.13-.42,3.44-.75l.23-.06L53,206l5.66,1.13L66.94,209l2.33,1,9.63.62,6.58,1.49,2.68.35,2.08-.08.29.12a19.4,19.4,0,0,0,2.42.88h0a23.27,23.27,0,0,1,2.64.4l.55.11.78,1.08,3.48,2.31c.33.29,3.24,2.87,4.24,5.46.91,2.35,2,5.23,2,5.23l.07.18.24,3.06.34,2.83,1.49,2.59v.4s-.07,2.16-.07,3.27a23.06,23.06,0,0,1-.24,2.85l-.08.32-.23.58v0a4.31,4.31,0,0,0,1-.5,3.13,3.13,0,0,0,.22-.88l0-.68.55-.43,3.8-2.8,7.13,11.56.73,3.72,1.18,4.71,4.46,2.07h2l4.8,11,1,.67,2,.34c.15,0,.88,0,1.54,0l1.81-.09-.35,1.78a35.9,35.9,0,0,0-.58,3.73c0,.77,0,1.58-.07,1.88l.62-.93,3.55.57.18.41,1.6-1-.48,5.88-.48,1a3.57,3.57,0,0,0,.45.16l.77-.43H146c3.25.06,4.12.41,4.5.7a19.46,19.46,0,0,0,2.78.44l.37,0,.31.21a7.56,7.56,0,0,0,2.29,1.18c.65,0,2.72-.18,3.84-.28l1-.08c.22-.06.71-.21,1.26-.38a21.22,21.22,0,0,1,2.68-.75l.78-.44a5.78,5.78,0,0,1,2.56-1.08c.33,0,3.83-.18,6.39-.32l4.25-.21c.37,0,.67,0,3.64,1.72l9.27,1.38,3.16-.08.18,0c2.48.61,6.18,1.49,6.64,1.56l14.17,1.73.14,0c1.56.36,3.44.76,3.77.8.07,0,.39,0,.85.09.77.1,1.93.24,3.34.29A19.5,19.5,0,0,0,228,292c.33-.06.51-.09.67-.1l.28-.07c1-.25,2.89-.72,4.31-.13a1.38,1.38,0,0,0,1.11-.1,3.09,3.09,0,0,1,1.06-.23l8-.2a3,3,0,0,1,1.48,0c.51.09,1.38.26,2.82.55,4.41.9,7.4,1.42,7.83,1.49,3,.28,7.59.7,9,.8.76-.81,1.92-1.53,4.71-1.64,3.92-.15,6.63-.37,6.65-.37l.31,0,.3.11c1.46.54,4.21,1.34,5.38,1.2a10.13,10.13,0,0,1,3.78.07l.53.09a2.43,2.43,0,0,0,1.77-.24l.58-.49.69.24,2.12.61,5.31-.23Zm-67.18-1.74h0Zm-70.62-4.6h0Zm-16.18-1h0Zm19.73-.48h0Zm-18-1.71h0ZM45.24,206.55h0ZM32.47,204.8h0Zm2.41-.34,0,0Zm-19.66-1,0,.08Zm.33-48.6v0Zm189.16-43.17Zm5.9-.91h0ZM78.39,79.91h0Zm5.18-11.81Zm-.24-.05h0ZM115,48.66Z"/></svg>