<svg id="Layer_2" data-name="Layer 2" xmlns="http://www.w3.org/2000/svg" viewBox="0 0 350 350"><defs><style>.cls-1{fill:#999;}.cls-2{fill:#f90;}</style></defs><title>M_</title><path class="cls-1" d="M328.79,229.16c-.55-.31-3.26-1.32-5.26-2.06a56.31,56.31,0,0,1-7.35-3,7.51,7.51,0,0,0-3.15-.53,39.41,39.41,0,0,1-4.79-.5c-3.63-.64-6.88-2.89-9-4.38-.57-.4-1.06-.74-1.38-.92-.81-.46-2.75-1.67-4.8-3s-4.21-2.63-4.84-3a7,7,0,0,1-2-1.92,4.18,4.18,0,0,0-1.08-1.1c-1.65-.72-1.91-2.81-2.11-4.49a9.45,9.45,0,0,0-.17-1.09c-.4-1.4.63-2.93,4.41-6.56l.44-.43a21.61,21.61,0,0,0,1.62-4.8l.17-.61c.34-1.21,3-5.71,4.46-8.16l-.47-.36a12.47,12.47,0,0,0-4.34-.92c-1.47,1-5,1.29-6.09,1.36l-36.3.55-.41-.32c-9.93-7.89-16.23-8.84-17-8.68-1.53.64-12.19.94-14.75-.34a28.53,28.53,0,0,0-3-1.26c-.69-.26-1.35-.51-2-.84s-4.4.1-5.77.25a10.56,10.56,0,0,1-2.37.14c-.82-.14-1.58-.78-2.75-1.82-.33-.3-.67-.6-1-.86a11.59,11.59,0,0,1-2.17-2.82,14,14,0,0,0-1.37-1.95c-1.08-1.13-5.75-5.28-5.8-5.32l-.15-.14L185.41,155l8.46-18.27c2.46-6.8,7.75-15.71,8-16.09l5.73-9.79c-.92-2.64-2.32-6.53-2.77-7.39A46.31,46.31,0,0,0,200,97.83c-.55-.47-7.5-7.07-8.43-8.28-.2-.26-.68-.91-1.3-1.76-1.41-1.92-4.7-6.41-5.32-7a1,1,0,0,0,.19.13c-1.17-.63-8.18-9.45-8.68-10.33s-3-2.65-4.09-3.25a5.87,5.87,0,0,1-2.69-4.18,14.26,14.26,0,0,0-2-3.62l-5.09-5.43-.24-6-7.68-8.69-.55-8-1.81-4.84-4.81-7.39c-6.23,6-14.4,13.83-10,21.43,2.44,4.18,9,11.58,2.89,15.56a2.09,2.09,0,0,1-2.81-.74c-3.46-5-6.15-10-11.4-13.4-2.4-1.54-5.67-3.11-7.08-5.74a9.18,9.18,0,0,1-.79-2.94c-.08-.47.05-1.37-.18-1.79-.06-.1-.09-.17-.12-.24a.39.39,0,0,1-.26.26c-3.06,1.17-4.1,7.14-3.72,10a2,2,0,0,1-1.51,2,13.46,13.46,0,0,0-6.74,2.68,11.75,11.75,0,0,1,3.75,1.23c2.91,1.28,3.45,2,3.63,2.62.36.72,2.7,4.11,4.43,6.6,3.3,4.78,4,5.77,4.12,6.28.48,1.44-.84,7.05-3.38,8.49-.09.81,1,3.17,1.41,4.09.29.64.55,1.2.71,1.66.68,1.9.9,2.64.75,3.52-.23,1.4-1.63,1.47-3.25,1.55a12.16,12.16,0,0,0-2.71.32,2.24,2.24,0,0,0-.27.92c-.24,1.58-.94,2.33-2.11,2.23a3.21,3.21,0,0,1-1.8-.92,6.56,6.56,0,0,1-5,2.1c-1,0-1.43.66-1.66,2.48a1.78,1.78,0,0,1-1.09,1.7,7.29,7.29,0,0,1-3-.53l-.22-.07c-1.13-.36-2.28-.78-3-1.07C95.48,88,94,85.36,92.35,84l0-.05h-.05a3.89,3.89,0,0,0-1.3-.77c-2.45-.76-4.54.51-6.66,1.56-3.52,1.76-5.36.69-8.91-.61a9.12,9.12,0,0,0-3.1-.82,5.66,5.66,0,0,0-2.89.88c-1.82,1-3.62,2.66-5.48,3.73-5.84,3.35-5.94,9.8-6.29,15.92-.18,3.23-.66,3.82-3.76,4.65-1.1.29-1.92.08-2.91.81s-1,1.69-1.6,2.48c-2.1,2.78-4,3.27-6.89,2.77l.33-3.55a1.55,1.55,0,0,0-2.32-1.33q-3.54,2.58-7.08,5.17c-1.11.81-2.77,1.69-3.17,3.15-.66,2.44,1.45,3.14,3.07,4.22.54.67,1,1.3,1.38,1.83a5.5,5.5,0,0,1,1.06,3.51l.15.46-.44.61c-.49.68-.49.68-4.81.68-1.1,0-2.68,0-3.34,0a64.9,64.9,0,0,0-5.42,4.54,88.08,88.08,0,0,0-3.74,8.93c-.34,1.7-2.45,10.9-3.44,14.08-.72,2.31-1.91,5.49-2.51,7.09l4.49,3.59,6.15.41,2.12-2h3.62l-.25,1.67c-.48,3.18-1.23,8.25-1.41,9.75a9.46,9.46,0,0,0,1.07.14,7.93,7.93,0,0,0,1.64-.38c1.28-.38,2.49-.75,3.47-.23a42.91,42.91,0,0,0,4.8.29,14.75,14.75,0,0,1,3.34.24c.69.23,3.6,1.77,4.82,2.42l1.87,1-1.6,1.38a15.39,15.39,0,0,0-2.24,2.64c-1.26,1.84-6.73,5.62-8.67,6.93l-.36,1.46,1.5.52L40,198.45c2.52.14,6.57,1.74,7.88,2.29l.87.36.12,3.89-2.37.61-.45.95c-.56,1.18-5.49,8.58-6,9.42a45.43,45.43,0,0,1-4.74,6c-.79.69-3.87,3.61-6.13,5.74l-2.38,2.24a44.12,44.12,0,0,0-.78,5.83c0,.4-.11,1.37-.33,3.33s-.72,6.34-.66,7.4c.33.52,1.45,1.93,2.14,2.8s1.38,1.74,1.68,2.18a5.72,5.72,0,0,0,1.22.61,11.83,11.83,0,0,1,3,1.66,10.35,10.35,0,0,1,2.92,3.93c.1.21.21.42.31.63a.61.61,0,0,0,.07.11,2.37,2.37,0,0,1,.36.05,6.62,6.62,0,0,1,2.1.69A17.39,17.39,0,0,1,43.17,263a5.21,5.21,0,0,0,.57.11,7.52,7.52,0,0,1,1.27.28c1.11.37,9.2,4,9.59,4.24.86.43,5.91,4.87,6.62,5.54s5.06,3.57,7.82,5.35c5.08,1,17.74,6.65,19.86,7.59l16,.1L113,283l12.81,1.34c.1,0,9.77,3.16,12.61,3.68,1.27.23,3.75,1,6.62,1.86,3.14,1,8.41,2.57,9.43,2.49a24.86,24.86,0,0,1,4.89.45,21.45,21.45,0,0,0,3.28.36c1-.06,3.83.53,17.84,5.22l.75.25c.63.21,1.58.5,2.7.84,7.81,2.37,10,3.25,10.74,4.32a13,13,0,0,0,1.92,2c.27.25.51.47.71.67s1.07.4,1.61.58c1.59.52,2.8.92,3.24,1.85.91.85,5.57,3.93,9.75,6.55,1.43.81,8.93,5.09,10.33,6.72a3.75,3.75,0,0,0,2.62.9H225l.18,0c3,.64,7.71-.54,9.3-1l.41-.13,5.28,1.47c1.09.33,7.43,4.43,11.9,7.36l-.37-2.49.09-.3a94.17,94.17,0,0,0,2.32-9.27c0-1.41,2.42-9.49,3.47-12.9l.09-.23c3.05-6,10.78-10.52,12.87-11.66l1.93-5.27,2.47-2.21c7.65-5.78,20.68-15.55,22-16a3.62,3.62,0,0,0,.91-1.7l.08-.3.2-.25c1.5-1.83,14.11-12.68,16.05-13.62.87-.42,5.57-4.11,8.67-6.55,2.49-2,4.45-3.5,5.2-4,1.21-.81,6.6-5.15,9.78-7.74C335.14,234.24,329.64,229.87,328.79,229.16Z"/><path class="cls-2" d="M253.95,333.75,251.3,332c-9.78-6.42-11.33-7.12-11.54-7.19l-4.83-1.34h0c-.06,0-6.08,1.92-10,1.08h0a5.15,5.15,0,0,1-3.75-1.39c-.86-1-5.66-4-9.95-6.4-3.44-2.15-8.88-5.69-10-6.75l-.2-.18-.12-.24c-.18-.38-1.31-.75-2.4-1.11a10.31,10.31,0,0,1-1.92-.72l-.26-.2c-.19-.19-.41-.4-.66-.62a14.05,14.05,0,0,1-2.14-2.29c-.58-.85-5.05-2.27-10-3.76l-.15,0c-1.06-.32-2-.6-2.58-.8l-.75-.25c-6.73-2.25-15.82-5.25-17.3-5.15a20.12,20.12,0,0,1-3.58-.38,24.45,24.45,0,0,0-4.57-.43c-1.08.09-4-.74-9.82-2.51l-.13,0c-2.85-.87-5.27-1.61-6.46-1.83-2.73-.5-11.15-3.19-12.66-3.68l-12.32-1.29-8,3.13L88.6,287.5l-.27-.12c-6.66-3-15.78-6.72-19.57-7.5l-.26-.05-.22-.15c-.71-.46-7-4.56-8-5.52s-5.55-4.89-6.29-5.31-8.43-3.83-9.39-4.16a6.22,6.22,0,0,0-1-.22,6.88,6.88,0,0,1-.78-.15l-.42-.13-.27-.35a16.25,16.25,0,0,0-4-3.47,4.86,4.86,0,0,0-1.38-.49l-.55.47-.92-1a2,2,0,0,1-.26-.39l-.28-.57,0-.09a9,9,0,0,0-2.54-3.46,10.52,10.52,0,0,0-2.63-1.45,4.58,4.58,0,0,1-1.74-1l-.11-.14c-.26-.39-.9-1.19-1.57-2-1-1.29-1.93-2.44-2.27-3l-.2-.31,0-.37a74.61,74.61,0,0,1,.66-7.64c.18-1.58.32-2.83.32-3.18a44.07,44.07,0,0,1,.83-6.2l.11-.39.29-.27,2.37-2.24c2.7-2.56,5.4-5.11,6.17-5.78a42.84,42.84,0,0,0,4.49-5.68c2.61-3.91,5.58-8.47,5.94-9.24l.46-1,.29-.59,1.9-.49L47.33,202a28.75,28.75,0,0,0-7.41-2.18l-.67,0-3.57-4.91-2.3-.8.8-3.25.45-.31c4.3-2.9,7.56-5.48,8.3-6.56a16.63,16.63,0,0,1,2.47-2.9l0,0,0,0c-2.73-1.46-4.27-2.22-4.6-2.32a21.9,21.9,0,0,0-2.94-.16,34.41,34.41,0,0,1-5.11-.33l-.3-.12c-.46-.24-1.45.05-2.41.34a6.43,6.43,0,0,1-2.15.44,10.49,10.49,0,0,1-1.27-.17l-1.25-.28.15-1.27c.18-1.55.94-6.71,1.41-9.8v0H25.53l-2.16,2.05-7.21-.48-5.64-4.51.37-1c.63-1.65,1.79-4.76,2.48-7,1-3.14,3.07-12.25,3.4-13.94s3.81-9.18,3.85-9.25l.18-.29a64,64,0,0,1,5.67-4.78l.35-.26.44,0c.69,0,2.26,0,3.4,0,1.88,0,3.18,0,3.65-.07l0,0v-.05l0-.28a4.06,4.06,0,0,0-.83-2.63c-.29-.44-.72-1-1.16-1.55l-.59-.36c-1.39-.83-3.71-2.22-2.88-5.29.46-1.71,1.92-2.71,3.1-3.51l.6-.42,4.69-3.42,2.4-1.75a2.8,2.8,0,0,1,3.06-.09,2.86,2.86,0,0,1,1.5,2.7l-.2,2.18c1.61.06,2.78-.47,4.22-2.38a4.07,4.07,0,0,0,.39-.72,4.76,4.76,0,0,1,1.51-2.05,4.91,4.91,0,0,1,2.54-.89,6.16,6.16,0,0,0,.84-.14c2.51-.67,2.56-.73,2.71-3.36l0-.79c.33-5.94.7-12.68,7-16.27a26.66,26.66,0,0,0,2.52-1.73,26,26,0,0,1,3-2,7,7,0,0,1,3.56-1h0a8.77,8.77,0,0,1,3.15.75l.42.16,1.09.41c2.82,1.07,4.1,1.56,6.69.26l.56-.29c2-1,4.37-2.23,7.15-1.37a5,5,0,0,1,1.56.86l.44.15.14.35a23.66,23.66,0,0,1,2.39,2.79,24.24,24.24,0,0,0,1.9,2.27c.71.27,1.67.62,2.63.93l.35.11a9.65,9.65,0,0,0,2,.47,2.06,2.06,0,0,0,.1-.5c.14-1.09.45-3.62,3-3.72a5.13,5.13,0,0,0,4-1.63l.94-1.06,1.06.94a2,2,0,0,0,1,.57c.16,0,.42,0,.58-1a2.69,2.69,0,0,1,.76-1.8l.2-.17.25-.08a12.69,12.69,0,0,1,3.08-.39,5.58,5.58,0,0,0,1.91-.27s0,0,0-.09c.08-.49,0-1-.69-2.81-.14-.39-.37-.89-.63-1.48-1.23-2.71-1.65-4-1.55-4.88l.08-.72.63-.36c1.9-1.08,3-5.88,2.73-6.82-.13-.38-1.64-2.59-3.94-5.91s-4.15-6-4.53-6.77l-.09-.23c0-.09-.29-.61-2.84-1.73a11,11,0,0,0-3.22-1.11L102,47.54l2.81-2.39a14.73,14.73,0,0,1,7.43-3,.93.93,0,0,0,.33-.45c-.42-3.14.63-9.42,4.15-11.25l.85-3.21,1.75,3.62a3.72,3.72,0,0,1,.33,1.84,3.54,3.54,0,0,0,0,.41l0,.29a7,7,0,0,0,.59,2.21c1,1.81,3.21,3.16,5.18,4.35.49.29,1,.58,1.41.87C131.54,43.76,134.2,47.77,137,52c.57.86,1.15,1.73,1.74,2.6.18.26.59.53.87.35a3.76,3.76,0,0,0,1.81-2.38c.54-2.58-1.91-6.27-3.69-9-.54-.82-1.05-1.6-1.47-2.3-5-8.53,3.75-16.94,10.12-23.09L147.72,17l5.89,9.1,1.89,5,.53,7.75,7.7,8.71.24,6,4.84,5.19c.08.12,2.09,2.93,2.29,4.24a4.46,4.46,0,0,0,2,3.15c.74.4,3.89,2.45,4.65,3.8.55.92,7,9,8.17,9.81h0l-.05,0-.18.34.13-.12-.26.47.56-.45-.15-.16h0c.51.47,2.05,2.48,5.49,7.17.62.84,1.09,1.48,1.28,1.74.81,1.06,7.66,7.58,8.23,8.07a45.56,45.56,0,0,1,5.14,6c.63,1.19,2.49,6.53,2.86,7.59l.21.62-6.07,10.35c-.56,1-5.52,9.4-7.86,15.85l0,.11L187,154.87l2.23,3.54s4.75,4.21,5.89,5.4a14.6,14.6,0,0,1,1.54,2.17,10.77,10.77,0,0,0,1.86,2.48c.33.27.67.56,1,.86a6.85,6.85,0,0,0,2.09,1.52,15,15,0,0,0,2-.16c4.44-.48,5.75-.42,6.42-.17l.12.05c.63.3,1.26.54,1.92.79a29.89,29.89,0,0,1,3.1,1.32c2.11,1.06,12.18.82,13.57.3l.25-.08c1.7-.35,8.63,1.4,18.15,9h0l35.79-.54a13.93,13.93,0,0,0,5.32-1.12l.22-.15.25-.06c1.45-.34,5,.92,5.14,1l.21.08,1.65,1.27-.65,1.08a63.31,63.31,0,0,0-4.31,7.82l-.16.6c-1.22,4.5-1.66,5-1.89,5.32l-.1.11-.46.45c-2.13,2-4.28,4.26-4,5.15a9.34,9.34,0,0,1,.21,1.31c.2,1.68.43,3,1.27,3.36a4.77,4.77,0,0,1,1.62,1.51,5.83,5.83,0,0,0,1.62,1.56c.66.36,2.77,1.68,4.81,3l.11.07c1.85,1.16,3.94,2.47,4.75,2.92.36.21.83.52,1.49,1,2,1.42,5.14,3.57,8.46,4.15a38.13,38.13,0,0,0,4.62.48c1.71.1,2.95.17,3.84.75a64.16,64.16,0,0,0,7.07,2.86c3.27,1.22,4.92,1.85,5.46,2.16l.21.14c.41.34,2.3,1.86,9,7.16l1.38,1.1-1.37,1.11c-2,1.6-8.46,6.87-9.88,7.82-.7.47-2.75,2.07-5.11,3.93-5.27,4.14-8.08,6.3-8.93,6.71-1.54.74-14.05,11.39-15.57,13.25v0c0,.09-.57,2.09-1.66,2.61l-.15.06c-.36.17-3.12,1.85-21.52,15.74l-2.16,1.94-2,5.44-.47.26c-1.54.84-9.32,5.28-12.26,11l0,.12c-2.32,7.6-3.38,11.72-3.39,12.43,0,1.46-2.35,9.58-2.38,9.66h0Zm-19.08-13.23,5.69,1.58c.4.12,1.34.41,9.77,5.89l.1-.34c1.25-4.36,2.23-8.32,2.27-8.94,0-1.13,1.19-5.61,3.53-13.26l.19-.46c3-6,10.2-10.43,13-12l1.87-5.11,2.83-2.52c17.22-13,20.94-15.47,22-16a3.89,3.89,0,0,0,.38-.9l.16-.59.39-.48c1.61-2,14.43-13,16.53-14,.8-.41,5.92-4.42,8.38-6.36,2.65-2.08,4.53-3.56,5.33-4.09s4.79-3.7,8.3-6.55c-4.25-3.38-6.77-5.39-7.52-6-.67-.33-3.42-1.35-4.93-1.91-4.47-1.66-6.67-2.51-7.66-3.16A9.88,9.88,0,0,0,313,225a40.47,40.47,0,0,1-4.95-.52c-3.94-.69-7.34-3-9.59-4.61-.47-.33-1-.69-1.28-.85-.8-.45-2.52-1.52-4.86-3l-.1-.07c-1.82-1.14-4.08-2.55-4.66-2.86a8.24,8.24,0,0,1-2.47-2.28,8.43,8.43,0,0,0-.63-.73c-2.32-1.07-2.65-3.78-2.87-5.58,0-.24-.09-.74-.12-.88-.65-2.26,1-4.29,4.8-8l.33-.32a29.65,29.65,0,0,0,1.34-4.26l.17-.61a47.22,47.22,0,0,1,3.8-7.17,13.46,13.46,0,0,0-2.37-.51c-1.74.94-4.72,1.26-6.42,1.37l-36.87.56-.8-.64c-8.68-6.9-14.6-8.36-15.83-8.39-2.51.71-12.86.93-15.65-.47a27.28,27.28,0,0,0-2.83-1.2c-.69-.26-1.35-.51-2.05-.84a29.9,29.9,0,0,0-5.11.33,10.8,10.8,0,0,1-2.76.13,7.45,7.45,0,0,1-3.46-2.16c-.35-.31-.66-.58-1-.82a12.69,12.69,0,0,1-2.48-3.17,13.76,13.76,0,0,0-1.19-1.72c-.95-1-5.12-4.71-5.71-5.23l-.31-.28-3.27-5.18,8.76-18.92c2.43-6.69,7.49-15.3,8.06-16.26l5.4-9.22c-1.13-3.24-2.17-6-2.47-6.57a47.57,47.57,0,0,0-4.48-5.21c-.52-.44-7.58-7.12-8.63-8.49-.2-.26-.69-.92-1.32-1.78-3-4.12-4.75-6.4-5.13-6.77h0l-.12-.12a100.69,100.69,0,0,1-8.65-10.42,16.65,16.65,0,0,0-3.53-2.7,7.25,7.25,0,0,1-3.41-5.22,16.12,16.12,0,0,0-1.73-2.93l-5.38-5.75-.25-6L153.26,40l-.56-8.29L151,27.21l-3.79-5.82c-5.76,5.59-12.1,12.31-8.49,18.5.37.64.86,1.38,1.38,2.17,2.17,3.29,4.87,7.38,4.1,11.11a6.53,6.53,0,0,1-3,4.18,3.49,3.49,0,0,1-4.75-1.12c-.61-.88-1.19-1.77-1.77-2.64-2.65-4-5.15-7.76-9.23-10.37-.43-.27-.88-.55-1.35-.83-2.29-1.38-4.88-2.94-6.22-5.44A9.09,9.09,0,0,1,117,34a12.64,12.64,0,0,0-1.56,7.36A3.45,3.45,0,0,1,112.75,45a17.94,17.94,0,0,0-3.43.87l.79.34c2.72,1.2,3.93,2.12,4.37,3.36.46.82,2.93,4.4,4.28,6.35,3.54,5.13,4.07,5.94,4.3,6.63.63,1.89-.64,7.27-3.2,9.57A26.66,26.66,0,0,0,121,74.95c.33.71.58,1.27.76,1.77.7,2,1,3,.82,4.22-.42,2.53-2.92,2.65-4.58,2.74-.49,0-1.14.06-1.66.12-.55,3.36-2.91,3.41-3.63,3.35a3.85,3.85,0,0,1-1.56-.5,8.56,8.56,0,0,1-5.08,1.68h0a4.3,4.3,0,0,0-.27,1.23,3.18,3.18,0,0,1-2,2.87c-.64.21-1.53.2-3.84-.52l.28-1.4-.4,1.36-.11,0c-1.17-.37-2.33-.8-3.11-1.1l-.25-.1-.2-.18a23.06,23.06,0,0,1-2.41-2.8A19.09,19.09,0,0,0,91.43,85l-.06,0a2.59,2.59,0,0,0-.81-.5c-1.67-.52-3.22.27-5,1.18L85,86c-3.7,1.85-6,1-9-.15l-1.06-.4-.45-.17a6.44,6.44,0,0,0-2.15-.57,4.29,4.29,0,0,0-2.22.71,23.38,23.38,0,0,0-2.66,1.8,29.23,29.23,0,0,1-2.79,1.91c-4.92,2.83-5.22,8.24-5.53,14l0,.8c-.22,3.85-1.12,5-4.81,5.94A8.57,8.57,0,0,1,53,110a2.21,2.21,0,0,0-1.21.37,2.26,2.26,0,0,0-.61.95,6.47,6.47,0,0,1-.7,1.24c-2.25,3-4.65,3.94-8.27,3.31L41,115.67l.44-4.77a.39.39,0,0,0-.13-.08l-2.33,1.7-4.68,3.41-.68.47c-.83.57-1.77,1.21-2,1.9-.23.87,0,1.15,1.6,2.12.3.18.6.36.88.55l.18.12.14.17c.52.66,1.07,1.35,1.45,1.94a7.17,7.17,0,0,1,1.3,4.08l.3.9-.86,1.2c-.92,1.27-1.3,1.27-6,1.27-.86,0-2.08,0-2.84,0-1.42,1.09-4.07,3.25-4.71,3.92A88.5,88.5,0,0,0,19.55,143c-.34,1.72-2.48,11-3.48,14.22-.6,1.93-1.52,4.45-2.18,6.21l3.33,2.67,5.08.34,2.08-2h5.84l-.5,3.3c-.36,2.36-.89,5.93-1.2,8.14l.68-.2c1.36-.41,2.9-.87,4.33-.23.75.12,3.46.2,4.38.22a14.2,14.2,0,0,1,3.75.31,54.32,54.32,0,0,1,5,2.51l3.69,2-3.16,2.73h0a14.33,14.33,0,0,0-2,2.37c-1.21,1.77-5.4,4.81-8.26,6.77l.45.16,3.33,4.57a35.37,35.37,0,0,1,7.65,2.33l1.71.71.18,5.93-2.83.73-.17.35c-.57,1.21-4.85,7.65-6.15,9.6a45.61,45.61,0,0,1-5,6.24c-.79.69-4.1,3.83-6.08,5.7l-2.07,2a48.55,48.55,0,0,0-.64,5.09c0,.47-.09,1.28-.34,3.49-.17,1.54-.61,5.38-.65,6.8.45.61,1.31,1.71,1.82,2.34.7.88,1.25,1.57,1.59,2.05.21.1.57.26.76.34a13.21,13.21,0,0,1,3.31,1.86A11.7,11.7,0,0,1,37.2,257l0,.07a7.72,7.72,0,0,1,2.2.77,18.31,18.31,0,0,1,4.51,3.79h0a8.82,8.82,0,0,1,1.51.33c1.2.4,9.38,4.12,9.78,4.32,1.2.6,6.69,5.53,7,5.78.46.44,3.75,2.68,7.4,5.05,5.15,1.15,16.67,6.2,19.61,7.51l15.43.1,8.13-3.19L126.21,283c3.36,1.09,10.27,3.24,12.43,3.63,1.35.25,3.84,1,6.73,1.89l.18.06c2.34.72,7.82,2.39,8.8,2.39a25.33,25.33,0,0,1,5.19.46,24.1,24.1,0,0,0,3,.35c1.18-.07,3.38.27,18.38,5.29l.75.25c.59.2,1.47.46,2.51.78l.15,0c8.47,2.57,10.52,3.43,11.5,4.87a12,12,0,0,0,1.71,1.79l.56.52c.31.12.94.32,1.2.41,1.73.57,3.21,1.05,4,2.31,1.06.88,5.11,3.58,9.38,6.25,2.07,1.17,9.13,5.22,10.65,7a2.64,2.64,0,0,0,1.51.4h.33l.35.07c2.66.57,7.2-.56,8.58-1ZM296,269.44Zm-11.48-59.33h0Zm-168-126.86Z"/></svg>