<svg id="Layer_1" data-name="Layer 1" xmlns="http://www.w3.org/2000/svg" viewBox="0 0 350 350"><defs><style>.cls-1{fill:#999;}.cls-2{fill:#f90;}</style></defs><title>M</title><path class="cls-1" d="M235,342.2s-8.34-6.75-9.53-6.75-5-4-5-4l-13.9-6h-5.56l-6.75-2.58L175.23,310s-2.38-4.77,3.38-9.33l7.15-16.29H138.29l-11.72-5.16-16.29,1-5.56-3-4.37,1-6.16-2.58L92,271.89l-9.14-8.34-2.58-4-1.19-6-5-5.56,5.16-7.75s2.38-7.75,6.16-11.32l5.36-15.49,3.18-2,3.58-5.16-6-3.18-2-2s.4-2.38-11.32-17.88L79.1,177l1.39-2.38v-1.16l-2.18-2.61.4-.86H76.45v.93l-.86.26.6.66-3.58,1.62-1.32-.76-1.46-2.71L66,167v-2.71s-3.38-5.43-5.16-5.69c0,0-3.58-4.44-3.51-5.43s2.38-.73,2.38-.73l-1.39-1.92-1.92-2.58.6-.73-1.52.4L55,145.51l-.66-1.72-1.19-.86V141.8l-1.39-.53L51,139.68l.6-3.44L50,133.65l.4-1.06-2.05-5.16.33-.66h-.66l-.66-2.32L45.87,123l-.53-1-1.26-1L43.28,119v-1.19l-3.18-.93-.26-1.52h1.72s5.69-3.58.26-9.47L43,104.33l1.32-.73-.2-1.85-.93.73-.79.07-2.52.79-.93-1.19,4.9-8.28-.07-1.26-3.91,4.3-.93.2L37,94.59l-4.63-1.06L34.48,86l.53-.46,1.13-2.18,8.08,2.45,1.26-7.15,2.85-2.05,7.94,4.77,1.13-13.77h1.32l2.71-10.73s2,.46,7.22,4.77l3.58.4,5-.13.4-.86L77,60.5l6.22-8a3.89,3.89,0,0,1,4.24,0l.73-2.78,3.64.4s1.39-.07.26-6.55h.33l7.75.66,8-13.31L108,27.4s.6-1.32,2.18,1.39l2.25,2.78,4.37-.07-1.79-20.33L117.1,7.8l12.31,6.82,4.27-6.22a14.33,14.33,0,0,1,2,5.1c.2,2.25,3.64,7.22,3.64,7.22l4.5,7,1.39,2.18,5-1.66,2.71-10.59s1.72-1.06.86,2.12.93,2.05.93,2.05l1.06-1.66L159.47,24l1.85,2.32-.6,4,.13,1.19-.33,1.85s1.26,3.31.33,3.84,1.85.13,1.85.13.13,1.13.2,1.32,1.79-.2,1.79-.2l4.13,1.85.29,1.14s-.1,3.33,1.24,3.13c0,0-.63,2.18-1.53,2.18s.39.7.39.7-.3,3.38.55,3.48-7.65,4-8.94,3.67L157,55.7l-1.84,1.24-2.28,4.62,0,2.23a9.13,9.13,0,0,1,1.84,4s0,.6,1.74-.84,3.58-2.63,3.58-2.63,2.23-.25,2.48.89.79,5.31.79,5.31-.35.55-2.18.35l-1.59,1-4.92-.35-.45,1.44-1,.35.5,1.09-.89,1.94.35.55L151.8,77s.45,5,4.92,6.26l6.85,3.28.4,4.27a1.47,1.47,0,0,0-.1.45c0,.2.74.74.74.74l-.15,1.14.89.3,1.84,5.76-.25.65,1.24,1.64,3,5.51a6.39,6.39,0,0,0,4.07,2.28,7.39,7.39,0,0,1,4.47,2.93,1.46,1.46,0,0,0,2.38-.4c1-1.69,4.87-5.41,4.87-5.41s1.49.74,2,3.58l2.58,4.22s-.35,2.78.55,3.58c0,0,1.64,4.77,1.49,6.65s-3.48,2.09-3.48,2.09-3.67,0-3.62,1c0,0-2.78,5.51-2.68,6.16,0,0,.2,1.54,0,1.59s-3,1.14-4.87.7-4.32-1.09-5.41-.1c0,0-3.46.84-4.76-3.08s-1.35-8.34-4.78-1.24-2.58,5.11-2.58,5.11-10.08.65-6.5,9.19,4.57,11,4.57,11a7.87,7.87,0,0,1-3.08,9.14l-1.94,11.12-.79,1.59,0,2.09s-1,3.4,3.28,2.71l7.13,1.24s2.68-5.46,7.27-1.86c0,0,2.26.67,2.33-1.37l4-3,3-3.3,1.34-.77s5.26,6.55,6.53,10.05l3.18,3.13,3.77-4.37,3.23-3,2.9-3.18,3-5.29,5.11-6.6,5.49,1.89,13.13,1.49L235,170.4l8.42,8.39,10.63,11.67,10.3,11.25,9,9.83,13.51,15,11.79,11,5.86,7.2,11,11.42,2.09,1.88L290.5,278.45l-5.36,9.8-9.2,13.51-9.73,14Z"/><path class="cls-2" d="M235,344l-.91-.74c-3.48-2.82-7.77-6-8.81-6.44-.57,0-2-.43-5.62-4.2l-13.37-5.73h-5.53l-7.29-2.83L174.13,311l-.17-.33c-1-2-1.49-6.72,3.48-10.85l6.14-14H138l-11.68-5.15-16.34,1-5.45-2.92-4.3,1-7-2.94-2.31-4-9.21-8.47L79,260.12l-1.17-5.85-5.44-6.09L78,239.69c.41-1.27,2.67-7.91,6.22-11.48l5.42-15.65,3.35-2.1,2.5-3.62-4.74-2.53-2.65-2.65.09-.53c-.14-.58-1.35-4.19-11-17l-.35-.46.9-7.21,1.34-2.3v-.26l-1.14-1.37L72.54,175l-2.31-1.32-1.51-2.81-4.15-3.22v-3c-1.5-2.34-3.32-4.5-4-4.71l-.55-.08-.31-.42c-3.92-4.87-3.85-6-3.82-6.41a2,2,0,0,1,.73-1.41,2.38,2.38,0,0,1,.52-.33L55.47,149l-1.06.28-.76-3.38-.47-1.23-1.44-1v-.87l-1-.38-1.25-2.5.59-3.39-1.6-2.72.44-1.18-1.76-4.42H47l-.85-3-1.41-1.35-.5-.93-1.33-1-1-2.66v-.39l-3-.88-.7-4.05H41.1a4.41,4.41,0,0,0,1.63-2.69c.17-1.33-.49-2.81-1.94-4.4l-.79-.86,1.13-1.53-1.8.57-2.12-2.73,2.25-3.81-1.12.24-2.15-2.82-5.59-1.28,2.64-9.39.64-.56,1.54-3L43.09,84l1.08-6.14,4.07-2.94L55,79l1-12.8h1.53l2.79-11,1.35.32c.38.09,2.48.73,7.47,4.78l3.06.34,2.89-.08,7.05-9.08.18-.12a5.39,5.39,0,0,1,4.08-.78l.62-2.37,3.94.43a17.23,17.23,0,0,0-.37-4.8l-.29-1.66h2.14l6.87.59,7.34-12.19-.13-3.42.14-.3a2,2,0,0,1,1.67-1.16c1.35-.08,2.34,1.26,3,2.32l1.75,2.16,2.16,0L113.6,10.84l3-4.94L129,12.75l4.75-6.93,1.15,1.8a15.28,15.28,0,0,1,2.24,5.74c.11,1.29,2.05,4.6,3.39,6.53l5.33,8.31L149,27.16l2.66-10.4.49-.3a2.19,2.19,0,0,1,2.44,0,2.14,2.14,0,0,1,.81,1.63l.1-.16,5,5.15,2.24,2.8-.66,4.47.13,1.21-.3,1.68a10.19,10.19,0,0,1,.61,2.68l1.35-.19.17,1.41.26-.06.46-.11L170,39.29l.5,2v.2a6.89,6.89,0,0,0,.15,1.6l1.64-.24-.6,2.11a6.7,6.7,0,0,1-1.06,2.21l0,.4a11.84,11.84,0,0,0,0,2l.15,0,.37.82a1.47,1.47,0,0,1-.28,1.51c-.71.82-7.33,3.92-9.82,4.06l-3.43,1-1.34.91-2,4,0,1.41a10.54,10.54,0,0,1,1.3,2.52c1.81-1.46,3.58-2.64,3.66-2.69l.29-.19.34,0c1.62-.18,3.64.24,4,2,.26,1.19.79,5.26.81,5.43l.07.51-.28.43c-.28.45-1,1.14-3,1l-1.58,1L155.7,73l-.33,1-.2.07.12.27-.84,1.82L155.61,78l-2.08.22a5.41,5.41,0,0,0,3.58,3.65l.22.08,7.58,3.62.48,5.21.06,0,.68.5-.11.81.47.16,2.21,6.92-.14.37.88,1.19,2.94,5.44a5.36,5.36,0,0,0,3.16,1.64,8.92,8.92,0,0,1,5.21,3.32l0,0,.09-.14c1.06-1.8,4.69-5.32,5.11-5.72l.72-.69.9.45c.21.11,2,1.1,2.74,4.31l2.71,4.43-.06.49a5.58,5.58,0,0,0,.14,2.4l.28.25.07.29c.29.84,1.73,5.15,1.56,7.23-.18,2.3-2.7,3.26-4.8,3.39a10.87,10.87,0,0,0-2.46.26,55.41,55.41,0,0,0-2.5,5.48c.16,1.29.26,2.53-.93,2.93s-3.78,1.18-5.65.73l-.17,0c-.94-.23-3.45-.84-4-.39l-.27.24-.35.09c-1.64.4-5.08.07-6.44-4-.24-.72-.44-1.45-.62-2.13-.1-.37-.22-.8-.33-1.19a23.57,23.57,0,0,0-1.2,2.24c-1.11,2.31-1.78,3.66-2.17,4.43-.54,1.08-1.1,2.19-2.37,1.61l-.05,0c-1.42.25-3.69.94-4.64,2.48-.7,1.14-.64,2.7.17,4.64,3.54,8.45,4.57,11,4.58,11a9.24,9.24,0,0,1-3.09,10.45l-1.88,10.79-.73,1.46,0,2-.06.22a1.16,1.16,0,0,0,0,.8c.1.11.58.28,1.65.1l.24,0,6.41,1.12a6.69,6.69,0,0,1,3.83-2.82,5.72,5.72,0,0,1,4.75,1.2,1.45,1.45,0,0,0,.31,0,.91.91,0,0,0,0-.1l0-.68,4.4-3.3,3-3.37,2.59-1.49.76.95c.21.27,5.14,6.42,6.64,10.15l1.88,1.85,2.9-3.34,3.18-2.94,2.75-3,3-5.32,5.74-7.41,6.3,2.17,13.19,1.51,7,1.91,8.68,8.66,30,32.79,13.47,15,11.88,11.1,5.82,7.15,11,11.38,3.29,3L291.59,279.4,286.3,289l-9.2,13.51-10,14.25Zm-9.43-10c.57,0,2.08.47,9.39,6.33l30.15-25.6,9.63-13.82,9.16-13.44,5.48-10,26-19.54-.81-.73-11.2-11.58-5.8-7.12-11.81-11-13.51-15-29.91-32.74-8.1-8.08L228.12,170l-13.33-1.55-4.53-1.56-4.43,5.72-3.12,5.46-3,3.26-3.17,2.92-4.71,5.45-4.49-4.42-.11-.3c-.83-2.31-3.82-6.44-5.55-8.7l-.08,0-3,3.32-3.5,2.63a2.65,2.65,0,0,1-1,1.56,3.68,3.68,0,0,1-3,.38l-.26-.08-.21-.17a3.21,3.21,0,0,0-2.65-.87,4.7,4.7,0,0,0-2.48,2.24l-.47,1L157,184.92c-1.81.25-3.15-.11-4-1.07a3.75,3.75,0,0,1-.69-3.22l-.05-2.25.86-1.72,2-11.48.46-.34a6.46,6.46,0,0,0,2.6-7.47s-1-2.57-4.56-11c-1.19-2.84-1.17-5.27,0-7.23,1.72-2.77,5.34-3.6,6.92-3.83.35-.7,1-2,2.15-4.4,1.48-3.07,2.58-4.71,4.18-4.56s2.09,1.93,2.65,4c.17.63.35,1.31.57,2,.71,2.13,2.18,2.24,2.84,2.18,1.64-1.08,4.13-.47,6.15,0l.17,0a7,7,0,0,0,3.12-.35c0-.13,0-.26,0-.38-.06-.4-.16-1,2.72-6.77a1.87,1.87,0,0,1,.47-.86c.88-.93,2.95-1.12,4.52-1.12,1-.07,2-.51,2.06-.78a23.1,23.1,0,0,0-1.33-5.82,6.18,6.18,0,0,1-.75-4l-2.47-4,0-.25a5.58,5.58,0,0,0-.66-1.84,31.3,31.3,0,0,0-3.63,4.13,2.91,2.91,0,0,1-2.1,1.54,3.16,3.16,0,0,1-2.47-.82l-.23-.28a5.94,5.94,0,0,0-3.57-2.3c-3.51-.75-4.83-2.69-5-2.91l-.05-.09L167,102.25l-1.65-2.18.35-.92-1.47-4.6-1.32-.44.2-1.53a1.8,1.8,0,0,1-.66-1.33,2.48,2.48,0,0,1,.08-.6l-.3-3.19-6-2.88c-5.23-1.59-5.8-7.22-5.82-7.46l-.12-1.39,1.35-.14.57-1.23-.87-1.91,1.78-.62.57-1.83,5.58.39,1.61-1,.49.05.46,0c-.17-1.25-.41-2.91-.56-3.72a3.25,3.25,0,0,0-.68-.06h0c-.58.4-1.88,1.31-3.16,2.34-1.11.89-2.19,1.65-3.23,1.1a1.53,1.53,0,0,1-.79-1.1,8.24,8.24,0,0,0-1.46-3.25l-.36-.39,0-.56-.06-2.58,2.6-5.27,2.33-1.58,4.39-1.25.26.06c1-.08,5-1.72,6.86-2.68a8.92,8.92,0,0,1-.16-2.35,1.62,1.62,0,0,1-.61-1.66,1.53,1.53,0,0,1,1.34-1.14l.11-.18a6.1,6.1,0,0,1-.89-3.58l-.07-.29-3.07-1.38c-1.22.26-2.56.42-3-.84a1.92,1.92,0,0,1-.06-.21c-1,.05-1.86-.12-2.18-1a1.49,1.49,0,0,1,.45-1.61,9.16,9.16,0,0,0-.58-2.37l-.14-.37.36-2-.13-1.17.53-3.61-1.42-1.78L156,22.44l-.27.42-.27.17a2.25,2.25,0,0,1-2.47.07l-1.6,6.26-6.75,2.25-6.48-10.13c-.58-.84-3.64-5.36-3.86-7.86a8.44,8.44,0,0,0-.76-2.5l-3.68,5.36L117.61,9.7l-1.1,1.82,1.88,21.38-6.58.1-2.24-2.77,0,1L100.91,45.7l-7.17-.61c.49,3.85-.07,5.11-.56,5.72a1.82,1.82,0,0,1-1.3.71h-.11l-2.54-.28L88.3,54.8l-1.66-1.14a2.37,2.37,0,0,0-2.48-.09L79,60.26l.44.35-1.23,2.67-6,.16L68.07,63l-.33-.27a39.67,39.67,0,0,0-5.36-3.85L59.81,69H58.69L57.49,83.74l-9.1-5.46-1.62,1.17-1.44,8.16L36.85,85l-.71,1.37-.42.36-1.6,5.71,3.68.84,1.54,2L45,89.14l.27,5.08-4.31,7.28,1.3-.37.37,0,2.61-2,.57,5.34-1.88,1-.27.37a7.71,7.71,0,0,1,1.9,5.81,7.27,7.27,0,0,1-2.72,4.55l1.89.55v2l.56,1.44,1.19.94.56,1.05,1.64,1.56.47,1.66H51l-1.07,2.15,2,5.08-.35.94L53,136l-.6,3.5.34.68,1.79.68v1.38l.95.68.87,2.31.14.62,4.31-1.13-2.65,3.24,4.55,6.23-3.2-.36-.42,0a41,41,0,0,0,2.55,3.56c2,.86,4.27,4.14,5.52,6.16l.21.34v2.42L70.94,169l1.41,2.62.34.2,1.15-.52-.79-.87,2-.61v-1.3h5.88L80,170.58l1.94,2.32V175l-1.44,2.46-.69,5.5c6.63,8.8,10.51,14.93,11.16,17.58L92.47,202l7.18,3.83L95,212.56l-3,1.88-5.31,15.35-.25.24c-3.46,3.28-5.75,10.63-5.78,10.71l-.06.2-4.67,7,4.49,5L81.63,259,84,262.63,93.13,271l2.06,3.55,5.3,2.22,4.44-1,5.67,3,16.23-1L138.59,283h49.34l-8.16,18.6-.28.22c-4,3.19-3.42,6.33-3.1,7.29L195,321.67l6.36,2.43h5.59l14.44,6.19.2.21A21.27,21.27,0,0,0,225.6,334Zm0,0Zm-53.3-152.43h0Zm11-47.7,0,0Zm1.88-.49v0Z"/></svg>