<svg id="Layer_1" data-name="Layer 1" xmlns="http://www.w3.org/2000/svg" viewBox="0 0 350 350"><defs><style>.cls-1{fill:#999;}.cls-2{fill:#f90;}</style></defs><title>M</title><polygon class="cls-1" points="267.6 145.02 301.5 143.88 318.07 143.25 334.64 143.25 343.75 142.62 343.75 139.96 343.12 137.18 340.59 132.88 336.41 130.85 334.26 130.85 325.91 137.94 319.84 137.94 313.9 136.92 308.33 136.8 294.54 136.8 288.47 136.29 283.41 136.16 277.08 135.53 268.74 133.38 251.53 126.68 228.64 113.78 211.31 102.9 199.67 95.56 195.62 94.04 193.72 92.14 191.95 89.11 191.07 86.96 189.67 85.19 186.64 85.95 183.6 87.59 179.93 89.99 176.77 92.78 175.63 96.19 175.63 100.11 175 104.92 175 111.12 176.26 113.78 176.14 117.44 177.53 122 178.16 127.44 177.02 136.16 175.63 140.84 174.12 142.24 169.31 142.24 163.49 142.11 159.06 141.73 155.77 142.62 151.72 143.5 147.04 142.74 141.98 142.74 137.56 142.87 133.89 143.5 129.33 144.51 126.3 145.65 121.11 147.17 114.15 150.71 109.22 153.48 107.58 157.42 106.82 162.98 106.82 166.52 99.23 173.48 94.04 177.91 89.61 182.46 88.35 185.12 69.88 194.61 52.3 198.78 35.34 202.57 21.92 207.51 15.61 210.8 11.44 212.82 7.26 212.82 6.25 216.36 8.4 221.68 8.27 228.63 7.64 233.95 8.4 236.48 9.92 239.13 12.57 242.8 14.73 245.21 15.99 247.74 17.13 252.04 17.13 256.97 17 261.02 17.26 264.81 22.57 264.81 36.1 263.55 42.56 261.78 43.57 254.31 49.64 252.42 53.94 251.91 57.23 250.39 60.77 248.62 71.65 249.38 73.8 241.54 83.92 231.42 93.79 227.12 128.45 197.26 135.79 190.94 170.45 179.04 179.3 155.64 194.36 145.02 267.6 145.02"/><path class="cls-2" d="M22.63,266.23H15.93L15.58,261l.13-4.12v-4.71l-1.05-4L13.54,246l-2.12-2.38-2.74-3.8-1.65-3-.84-2.81.66-5.54.12-6.6-2.22-5.5,1.44-5h4.92L15,209.52l6.44-3.34,13.61-5,17-3.79,17.4-4.13,17.89-9.19,1.16-2.44,4.69-4.81,5.19-4.43,7.09-6.5v-3.11l.85-5.92,1.83-4.39,5.36-3,7.25-3.67,5.14-1.5,3.18-1.18,4.55-1,3.94-.67,4.43-.13,5.33,0,4.41.72,3.78-.83,3.46-.93,4.68.4,5.73.12h4.23l.82-.75,1.25-4.2,1.1-8.44-.6-5.14-1.42-4.66.12-3.56-1.25-2.63v-6.7l.62-4.72V96l1.33-4,3.61-3.16,3.77-2.46,3.37-1.77,3.93-1,2.08,2.65.92,2.24,1.63,2.79,1.55,1.55,4,1.54,29,18.21,22.75,12.82,17,6.64,8.16,2.1,6.16.62,5,.13,6.1.51h13.73l5.8.15,5.83,1h5.43l8.35-7.08h3l4.85,2.35,2.86,4.86.72,3.31v4l-10.43.72H318.07l-16.52.63-34,1.14H194.81l-14.33,10.12-8.94,23.62-35,12-42,36.14-9.82,4.28-9.66,9.66-2.36,8.6-11.65-.81-3.2,1.6-3.53,1.63-4.39.52-5.09,1.59-1,7.5L36.24,265Zm-4.05-2.83H22.5l13.35-1.25,5.43-1.49,1-7.43L49.47,251l4.08-.48,3.08-1.42,3.85-1.92,10.11.71,1.94-7.08,10.57-10.58L93,225.9l42-36.22,34.29-11.76,8.77-23.18,15.78-11.14h73.67l33.88-1.14,16.56-.63h16.63l7.69-.54v-1.18l-.55-2.41-2.2-3.74-3.5-1.69h-1.3l-8.35,7.08-6.83,0-5.84-1-5.46-.12H294.42l-6.07-.51-5.08-.13-6.54-.67-8.51-2.2-17.39-6.79L227.94,115,199,96.84l-4.2-1.57-2.34-2.4-1.86-3.21-.81-2-.7-.89-2,.49-2.83,1.53-3.53,2.32L178,93.59l-.94,2.83v3.88l-.62,4.72v5.79l1.28,2.68-.13,3.78,1.37,4.58.65,5.61-1.21,9.12-1.5,5.05-2.21,2h-5.36l-5.85-.13-4.27-.36-3,.82-4.38,1-4.83-.79H142l-4.29.12-3.57.62-4.39,1-3,1.14-5.06,1.48L114.8,152l-4.46,2.5L109,157.79l-.72,5.29v4.07l-8.05,7.38L95,178.94l-4.22,4.34-1.37,2.88L70.21,196l-17.58,4.17-16.88,3.78-13.25,4.87-6.23,3.25-4.5,2.18H8.33l-.58,2,2.08,5.13-.14,7.39-.6,5,.63,2.09,1.4,2.45,2.57,3.55L16,244.57l1.37,2.8L18.55,252V257l-.12,4Z"/></svg>