<svg id="Layer_1" data-name="Layer 1" xmlns="http://www.w3.org/2000/svg" viewBox="0 0 350 350"><defs><style>.cls-1{fill:#999;}.cls-2{fill:#f90;}</style></defs><title>M</title><path class="cls-1" d="M139.5,47.06a18.88,18.88,0,0,1-11.16,6.49c-7.14,1.17-6.23,0-6.23,0s0-1.17,1.43-3.89,3-6.23,2.72-8a22,22,0,0,1-6.1,6.23c-4,2.72-3.37,3.89-5.58,2.72,0,0,4.28-11,4.67-13.11s1.17-8.69-.13-11.55.26-8-4.54-7.4a95.58,95.58,0,0,1-17.91-.06s-10.77,8.3-7.79,17.8c0,0,4.54,7.16,6.49,8.07,0,0,4.28,4.8-2.21,9.08s-5.32,7.79-23,5.58c0,0-12.2,6-25.17,23.49,0,0-4.67,3.5-4.28,8.82,0,0-8.69,4.41-8.43,5.32s4.54,6.36,5.06,15.57,6,10.38,6,10.38,3.76,8.3,3.24,10.25-.65,3.5-1,4.41,6.23,16.09,6.36,19.07-1.82,16.09-12.72,26c0,0,1,1.49-5.26,2.85s-1.63,7.2-1.63,7.2.27,9.08,1,10.32S35,207.05,38.74,209s5,2.08,6.42,4.28c0,0,9.41-.13,10.45.45s.71,2.59-1.62,6.1-4.67,8.17-5.84,10.38-4.15,2.4-4.8,3.63-1.17,7.72-1.88,8.82-5-2.47-6.62-1.95-2.4,2.53-3.5,4.54-5.77,12.13-5.64,13.88-19.85,3.7-19.85,3.7-1.95,9.8.32,14,6,9.6,13.82,11.81,11.81,5.13,13.62,9,5.45,6,8,5.9,6.55-6.81,21.09-4.93c0,0,3.37.84,2.08,6.94S70.6,339,71.25,343c0,0,7.33-12.39,8.63-14.6s-3-16.16-3.37-18-2.79-6.36.26-7.07,18.75-.52,20-1.3-2.53-4.15-2.34-5.77S93,289.06,96,288.61a8.21,8.21,0,0,0,7.79-.32c4-2.4,4.41-3.31,5.71-1s4.09,12.2,5.51,13.62,2.21,3.89-.78,5.38-7.59-.71-7.79-1.36.65,6.36-3.18,8.76c0,0,.91,3.63,8.43,3.24s16.87-1.43,18.17-2.27,15.18-7.27,19-15.51c0,0,11.81-6.42,17.45,3.44,0,0-.71,11.42-5.26,17.91,0,0,5.32,3,17.06-2.85,0,0,10.84,1.62,13.11,1.69s-.52-7.27-.52-8.56c0,0-1.14-1.3,1.41-1.23s17,.71,18.38.26,2.79-3.44,1.75-8a22.1,22.1,0,0,0-2.92-7.72c-1.17-2.14-2.92-7.2-2.66-9.41s2.79-9.41,2.53-12.39l12.39.19s4.8,3,16.09,2.08c0,0,14.4-.39,17.26-1s1.95-1.17,2.34-4.67.13-5.32,4.54-5.19,6.36.52,8.3-1.43,38.54-6.36,41.78-6.36,8.69,2.47,17.52,1.82,14.27.65,15.31.39-3.63-3.24-7.92-4.93-10.9-6.49-13.49-6.1-14.66-2.08-18.56-3.76-9.86-5.32-11.55-6-.91-17.39-.91-17.39,13-23.49,15.7-36.2,10.25-23.36,11.16-27.77,1.3-15.05-.13-17.39-2.34-2.08-2.34-2.08-25.69,8-32.57,6-10.38-8.17-15.31,1.43c0,0-5.58,2.34-9.08-4.41s1.43-16.09-6.75-16.87c0,0-4.41-18.43-18.95-9,0,0-3.76,6-5.45-1.43s-10.38-13-13.11-12.59-5.19.78-5.71,3.24.78-4.15-1.3-5.58-2.85,0-5.84,1.56-9.73-.39-11-14.14a11.33,11.33,0,0,0,5.19-9.34s-1-1.17,3.24-.52,7.66-.91,8.43-4.54,1.3-8.82-.78-9.86-6.62.78-6.36-2.72-1.82-7.79.91-9.86,6.49-1,8.17-3.37,0-9.08,4.54-10.64,4.54-1.69,3.5-6.36-1.3-16.61-3.11-18.56S210.48,5.4,205,10.2s-8.3,5.06-12.46,4.15-6.75,7.27-9.6,11.29-4,1.95-4.67,5.84,0,3.37,0,7.79-1.54,4.28-3.3,8.3-1.11,6.62-9.68,5.71-12.72.26-16-.52-3.76-3.63-5.71-5.71S139.5,47.06,139.5,47.06Z"/><path class="cls-2" d="M70.47,347.07l-.62-3.87c-.15-.93-.69-3.3-1.38-6.3-3.11-13.53-6.06-27.11-5.09-31.66.89-4.16-.68-5.11-1-5.26-10-1.26-14.63,1.73-17.42,3.51a6.85,6.85,0,0,1-3.3,1.45c-3,0-7.18-2.25-9.3-6.71-1.73-3.64-5.77-6.24-12.73-8.2-8.4-2.36-12.4-8.27-14.68-12.5-2.44-4.53-.68-13.91-.47-15l.21-1,1-.1c7.67-.75,16.61-2,18.63-2.92.59-3.5,5.39-13.26,5.76-13.93.18-.33.35-.65.52-1,.93-1.78,1.89-3.63,3.8-4.24,1.35-.43,2.94.38,4.63,1.23.42.21,1,.5,1.42.68.2-.87.44-2.36.61-3.44a19,19,0,0,1,1-4.66,4.85,4.85,0,0,1,2.43-1.87,4.85,4.85,0,0,0,2.37-1.77l.64-1.22A105.17,105.17,0,0,1,52.81,219c1.67-2.5,1.92-3.67,1.94-4.09a85.65,85.65,0,0,0-9.57-.26H44.4L44,214c-.86-1.33-1.58-1.68-3.51-2.61-.67-.32-1.45-.7-2.38-1.19a12.44,12.44,0,0,1-5.5-6c-.16-.31-.29-.58-.42-.79-.79-1.25-1.11-6.35-1.25-10.59-.7-1-2.25-3.63-1.4-6,.56-1.56,1.95-2.59,4.13-3.06a13.1,13.1,0,0,0,4-1.32l-.25-.38.89-.81c10.55-9.6,12.37-22.28,12.25-24.91-.06-1.38-2.14-6.86-3.66-10.87-2.71-7.15-3-8-2.59-8.83a10.68,10.68,0,0,0,.43-1.76c.14-.72.3-1.54.54-2.46s-1.34-5.17-2.92-8.74c-1.73-.71-5.88-3.24-6.34-11.44a30.19,30.19,0,0,0-4.34-13.94A6.51,6.51,0,0,1,31,97c-.29-1-.56-2,8.36-6.57.11-4.94,3.82-8.25,4.69-9C57,64,69.08,58,69.59,57.72l.38-.19.42.05c13.36,1.67,15.32,0,18.58-2.73a35.13,35.13,0,0,1,3.43-2.63c1.77-1.17,2.75-2.44,2.93-3.77a4.41,4.41,0,0,0-.88-3C92.25,44,88.76,38.69,87.7,37l-.15-.33c-3.24-10.32,7.8-19,8.27-19.35l.47-.36.59.08a94.19,94.19,0,0,0,17.52.06,4.65,4.65,0,0,1,3.58.74c1.46,1.14,1.7,3.1,1.9,4.83a9.75,9.75,0,0,0,.54,2.64c1.76,3.88.25,12.31.23,12.4-.3,1.58-2.49,7.46-3.8,10.9a23.45,23.45,0,0,1,2.52-2A20.86,20.86,0,0,0,125,40.88l2.05-3.44.57,4c.09.66.38,2.69-2.87,8.9a16.08,16.08,0,0,0-1,2.34,33.38,33.38,0,0,0,4.34-.5,17.62,17.62,0,0,0,10.26-5.95l.16-.17a5.15,5.15,0,0,1,3.3-1.31,4.06,4.06,0,0,1,2.85,1.37,15.45,15.45,0,0,1,1.74,2.36c.94,1.48,1.63,2.55,3.27,2.94a20.17,20.17,0,0,0,5.06.19,70.48,70.48,0,0,1,10.72.3c6.16.66,6.53-.36,7.52-3.06.21-.56.43-1.17.71-1.81a20.29,20.29,0,0,1,1.86-3.33,6.3,6.3,0,0,0,1.32-4.4,28.23,28.23,0,0,0-.18-3.37,14,14,0,0,1,.2-4.65c.43-2.6,1.2-3.25,2.41-4a7.56,7.56,0,0,0,2.51-2.43,39.06,39.06,0,0,0,2.27-3.9c2.23-4.14,4.75-8.84,8.79-8,3.43.75,5.89.86,11.22-3.83,6.11-5.38,10.09-3.62,12.35-1.2,1.37,1.47,1.87,5.54,2.53,12.06.29,2.83.56,5.5.93,7.15,1.2,5.41.75,6.23-4.43,8-1.91.65-2.28,2.66-2.63,5.64a9.68,9.68,0,0,1-1.22,4.49c-1.23,1.7-3.16,2.07-4.87,2.4A8.31,8.31,0,0,0,203.16,49c-1.11.84-1,2.42-.61,4.91a18.91,18.91,0,0,1,.26,3.93,1,1,0,0,0,.05.54,5.29,5.29,0,0,0,2.14.27,7.77,7.77,0,0,1,3.38.54c3,1.48,2.47,7,1.53,11.43-.9,4.22-4.84,6.43-10,5.65a15,15,0,0,0-1.66-.18,12.82,12.82,0,0,1-5.07,9.34c.94,8.25,3.85,11,5.53,11.92a3.63,3.63,0,0,0,3.35.27c.71-.37,1.3-.74,1.81-1.06,1.63-1,3.17-2,5.48-.4A4.58,4.58,0,0,1,211,99.28a14.55,14.55,0,0,1,4.32-1.08c3.59-.52,12.85,5.63,14.69,13.68.53,2.31,1.13,2.6,1.14,2.6.32.06,1.17-.73,1.73-1.62l.17-.26.26-.17c4.48-2.92,8.57-3.67,12.17-2.23,5.42,2.16,7.9,8.65,8.66,11.1,5.28,1,5.41,5.61,5.52,9.7.08,2.68.15,5.45,1.37,7.79,2.36,4.55,5.65,4.21,6.84,3.9,1.61-3,3.25-4.67,5.11-5.26,2.42-.77,4.68.41,7.08,1.65a26,26,0,0,0,4.52,2c5.3,1.6,24.71-3.76,31.74-6,.62-.18,2.17-.25,4,2.69s1.1,14.55.31,18.41c-.38,1.83-1.68,4.42-3.32,7.7-2.61,5.19-6.17,12.3-7.84,20.08-2.6,12.16-14.12,33.43-15.69,36.3-.29,6.54-.22,14.13.38,15.82.88.39,2.27,1.16,4,2.1,2.29,1.26,5.14,2.82,7.26,3.74,3.93,1.7,15.63,4,17.78,3.66s5.21,1.43,8.84,3.44a51.3,51.3,0,0,0,5.39,2.74c.09,0,9.12,3.63,9,6.21a1.56,1.56,0,0,1-1.22,1.42,9.75,9.75,0,0,1-2.89-.09,68.62,68.62,0,0,0-12.66-.26,45.81,45.81,0,0,1-13.75-1.2,21.36,21.36,0,0,0-3.87-.61c-3.39,0-37.84,4.28-40.84,6-2.11,2.06-4.32,2-7.67,1.84l-1.62-.06c-2.69-.08-2.71.15-3,3,0,.29-.06.6-.1.92-.09.8-.11,1.45-.12,2-.06,2.17-.4,3.27-3.31,3.93s-16,1-17.53,1.07c-9.94.8-15.12-1.38-16.5-2.08l-10.63-.17a50,50,0,0,1-1.62,7.44,37.2,37.2,0,0,0-.88,3.68c-.21,1.78,1.38,6.53,2.5,8.56l.34.62a22.68,22.68,0,0,1,2.72,7.47c1.21,5.36-.49,9-2.7,9.71-1,.33-5.14.3-16.26-.1L192.2,311c.07.36.25,1.07.41,1.66.9,3.44,1.45,6,.38,7.33a2.13,2.13,0,0,1-1.75.8c-2.09-.06-10.75-1.33-12.84-1.64-12,5.84-17.74,2.76-18,2.62L159,321l.9-1.28c3.78-5.41,4.79-14.67,5-16.76-4.47-7.21-13-3.67-14.94-2.73-3.72,7.33-14.24,12.93-18.24,15.07-.53.28-.9.47-1.06.58-2.08,1.35-14.63,2.28-18.87,2.5-8.58.44-9.83-4.12-9.88-4.32l-.25-1,.87-.55c1.63-1,2.46-3.45,2.48-7.21,0-.4,0-1.61,1.23-1.79l1.21-.18.28.9c.85.58,4,1.77,5.89.81.52-.26,1.15-.69,1.25-1.27a2.39,2.39,0,0,0-.84-1.84c-1-1-2-3.85-3.65-8.45a53.21,53.21,0,0,0-2.1-5.49,5.82,5.82,0,0,0-.34-.56,18.13,18.13,0,0,0-1.58.94c-.51.32-1.11.7-1.82,1.12a9.58,9.58,0,0,1-8.56.64c-.59.59-.37,2.9-.25,4.08a10.9,10.9,0,0,1,.08,2.14,9.81,9.81,0,0,0,1.15,2c.88,1.32,1.64,2.45,1.4,3.59a1.92,1.92,0,0,1-.86,1.24c-.85.54-3,.68-10.62.91a90.57,90.57,0,0,0-9.8.57c-.18,0-.29.1-.33.17-.32.58.29,2.44.62,3.44a13.74,13.74,0,0,1,.52,1.85c.07.38.38,1.56.75,2.93,2.48,9.2,3.54,14.21,2.45,16.07-1.3,2.21-8.63,14.6-8.63,14.6ZM57.85,296.85a39,39,0,0,1,5,.34l.16,0c.19,0,4.68,1.26,3.12,8.61-.92,4.32,3.13,22,5.08,30.43l.65,2.85,6.77-11.46c.59-1.55-1.92-10.84-2.74-13.9-.47-1.75-.72-2.69-.81-3.18a12.6,12.6,0,0,0-.42-1.44c-.6-1.8-1.34-4-.4-5.71a3.2,3.2,0,0,1,2.16-1.54,82.81,82.81,0,0,1,10.36-.64c2.89-.09,6.63-.2,8.42-.39-.19-.31-.42-.66-.61-.93-.9-1.35-1.76-2.62-1.61-3.89a11.18,11.18,0,0,0-.09-1.54c-.23-2.36-.65-6.75,2.91-7.29l.48-.07.42.23a6.75,6.75,0,0,0,6.37-.3c.69-.41,1.27-.77,1.76-1.09,1.65-1,2.65-1.67,3.82-1.37a3.61,3.61,0,0,1,2.09,2,50.27,50.27,0,0,1,2.3,5.93c.88,2.51,2.35,6.72,3,7.38a5.1,5.1,0,0,1,1.63,4.3,4.59,4.59,0,0,1-2.78,3.35c-2.66,1.33-5.85.32-7.14-.19-.28,3-1.15,5.18-2.59,6.63.74.71,2.51,1.72,6.49,1.52,8.35-.43,16.4-1.48,17.49-2.06.17-.11.61-.35,1.25-.69,3.49-1.86,14.12-7.52,17.23-14.21l.2-.42.41-.22c4.51-2.45,14.35-4.77,19.36,4l.21.37,0,.42c0,.45-.68,10.2-4.49,17,2.19.37,6.85.38,14.25-3.3l.4-.2.44.07c2.75.41,9.86,1.44,12.38,1.64a24.81,24.81,0,0,0-.89-4.55c-.25-1-.41-1.6-.49-2.08a2,2,0,0,1-.12-1.87c.62-1.33,2.37-1.28,2.94-1.27l2.62.09c3.84.14,14,.52,15.33.23.39-.14,1.71-2.19.76-6.37a20.15,20.15,0,0,0-2.43-6.72l-.35-.64c-1.12-2.06-3.14-7.55-2.82-10.25a35.72,35.72,0,0,1,1-4.09c.72-2.68,1.71-6.35,1.56-8l-.14-1.56,14.35.23.33.21s4.66,2.72,15.23,1.87c4-.11,14.83-.5,17.06-1a5,5,0,0,0,1.05-.32,8.47,8.47,0,0,0,.05-.92c0-.57,0-1.29.13-2.2,0-.31.06-.61.09-.89.29-2.94.58-5.71,5.9-5.56l1.65.06c3.39.14,4.41.12,5.61-1.07,2.74-2.74,42.43-6.77,42.79-6.77a22.83,22.83,0,0,1,4.46.68,43.37,43.37,0,0,0,13,1.14,68.63,68.63,0,0,1,11,.06,36.73,36.73,0,0,0-4-1.87,53.15,53.15,0,0,1-5.72-2.9c-2.49-1.39-5.9-3.29-7-3.11-3,.45-15.44-2.18-19.33-3.86-2.24-1-5.16-2.57-7.5-3.86-1.72-.94-3.34-1.84-4-2.09-.92-.35-2.64-1-1.82-18.78l0-.33.16-.29c.13-.23,12.91-23.45,15.56-35.81,1.74-8.14,5.41-15.43,8.08-20.76a39.14,39.14,0,0,0,3.08-7c.94-4.56,1.12-14.61,0-16.36a4.85,4.85,0,0,0-1.08-1.35c-3.89,1.21-26.18,7.93-33,5.86a28.64,28.64,0,0,1-5-2.19c-2-1.05-3.61-1.88-4.91-1.46s-2.4,1.81-3.72,4.37l-.24.46-.48.2c-2.35,1-7.64,1.19-10.89-5.07-1.51-2.91-1.61-6.15-1.69-9-.13-4.67-.34-6.75-3.94-7.1l-1-.1-.24-1c0-.08-2-8-7.23-10.08-2.63-1-5.77-.43-9.33,1.82-.61.88-2.31,3-4.42,2.62-2.43-.42-3.18-3.69-3.42-4.76-1.6-7-9.83-11.75-11.52-11.5-2.85.41-4.23.75-4.52,2.13-.12.55-.39,1.84-1.71,1.66-.49-.07-1.3-.39-1.21-1.84.24-3.85-.48-4.46-.57-4.52-.73-.5-.78-.54-2.37.47-.53.34-1.2.75-2,1.18a6.42,6.42,0,0,1-6-.29c-2.23-1.21-6.12-4.77-7.08-15l-.09-.92.81-.45a9.83,9.83,0,0,0,4.44-7.82,1.69,1.69,0,0,1,.11-1.36c.66-1.21,2.32-1.22,4.78-.85,1.39.21,6,.58,6.84-3.44,1.09-5.1.63-8,0-8.3a6.32,6.32,0,0,0-2.15-.24c-1.47,0-3.14,0-4.19-1.19a3.41,3.41,0,0,1-.79-2.66,16.83,16.83,0,0,0-.24-3.33c-.36-2.65-.77-5.66,1.71-7.55a10.77,10.77,0,0,1,4.77-1.8c1.58-.3,2.57-.53,3.11-1.28a8.62,8.62,0,0,0,.7-3.16c.33-2.83.79-6.71,4.53-8,1.27-.44,2.86-1,3.06-1.34s-.13-1.82-.48-3.37c-.4-1.81-.68-4.57-1-7.48-.36-3.55-1-9.49-1.79-10.41s-3.08-3.3-8.41,1.39c-5.78,5.09-9,5.5-13.7,4.47-1.94-.42-4,3.43-5.68,6.53a41,41,0,0,1-2.46,4.2,10.36,10.36,0,0,1-3.32,3.19c-.69.43-.85.53-1.11,2.06a11.33,11.33,0,0,0-.17,3.89,30.88,30.88,0,0,1,.19,3.67,9,9,0,0,1-1.79,6,17.59,17.59,0,0,0-1.63,2.9c-.26.58-.46,1.14-.65,1.65-1.44,3.93-2.94,5.7-10.48,4.9a68.42,68.42,0,0,0-10.33-.28,22.09,22.09,0,0,1-5.82-.27c-2.75-.66-3.95-2.53-5-4.17A13.08,13.08,0,0,0,142.62,48a1.39,1.39,0,0,0-2.08,0,20.26,20.26,0,0,1-12,6.91c-5.71.94-7.07.58-7.69-.47a1.62,1.62,0,0,1-.17-1.25A13.11,13.11,0,0,1,122.29,49q.46-.88.82-1.63A22.8,22.8,0,0,1,121,49a21.11,21.11,0,0,0-2.69,2.15c-1.38,1.27-2.26,1.75-4.34.65l-1.11-.59.46-1.18c1.7-4.38,4.33-11.43,4.6-12.85.49-2.63,1-8.46,0-10.7a11.64,11.64,0,0,1-.77-3.48c-.14-1.18-.3-2.51-.82-2.92a2.19,2.19,0,0,0-1.47-.18,98,98,0,0,1-17.66,0c-1.87,1.61-9.08,8.39-6.92,15.73,2.08,3.25,4.86,7,5.79,7.39l.26.12.19.22a7.38,7.38,0,0,1,1.69,5.43C97.85,51,96.44,53,94,54.6A32.28,32.28,0,0,0,90.79,57c-4,3.38-6.76,5.08-20.32,3.43C68.39,61.59,57.54,68,46.17,83.32l-.12.17-.17.12s-4,3.13-3.72,7.59l.07.94-.84.43A67.52,67.52,0,0,0,34,96.8l.07.12a32.86,32.86,0,0,1,4.72,15.19c.45,7.9,4.69,9,4.87,9.08l.67.16.31.63c1.19,2.64,3.91,9,3.32,11.2-.22.83-.37,1.59-.5,2.27a15.29,15.29,0,0,1-.48,2c.22,1,1.48,4.32,2.51,7,2.27,6,3.77,10,3.84,11.75.13,3-1.66,16.3-12.69,26.68a2.14,2.14,0,0,1-.13.44c-.57,1.39-2.5,2.38-6.26,3.2-.8.18-1.81.53-2.07,1.25-.39,1.09.67,3,1.25,3.69l.29.37v.47c.12,4,.48,8.82.85,9.65.14.22.32.57.53,1a9.66,9.66,0,0,0,4.29,4.76c.89.47,1.65.83,2.29,1.15a10,10,0,0,1,4.2,3c6-.06,9.54.15,10.41.65a2.46,2.46,0,0,1,1.2,1.62c.36,1.49-.41,3.61-2.34,6.5a102.85,102.85,0,0,0-5.12,9l-.65,1.24a7.3,7.3,0,0,1-3.65,3,5.33,5.33,0,0,0-1.16.66,29.81,29.81,0,0,0-.72,3.75c-.47,3-.73,4.41-1.21,5.16-1.06,1.63-3.09.6-4.89-.31a9.69,9.69,0,0,0-2.56-1c-.73.24-1.38,1.5-2.08,2.83-.18.34-.35.68-.54,1-1.28,2.33-5.44,11.63-5.47,13.13.1,1.34.23,3-20.06,5.08-.51,3.15-1.11,9.29.37,12,2.21,4.1,5.67,9.07,13,11.12,7.8,2.19,12.42,5.28,14.52,9.71,1.55,3.26,4.61,5.18,6.66,5.09a7.38,7.38,0,0,0,1.84-1A24.34,24.34,0,0,1,57.85,296.85ZM191.44,311Zm-83.61-6.49v0Zm-11.7-3.83h0Zm174.94-37.41ZM54.75,214.77ZM123.32,54.29l-.09.13Z"/></svg>