<svg id="Layer_1" data-name="Layer 1" xmlns="http://www.w3.org/2000/svg" viewBox="0 0 350 350"><defs><style>.cls-1{fill:#999;}.cls-2{fill:#f90;}</style></defs><title>M</title><path class="cls-1" d="M69.89,124.89s3.92-1.06,9.65,2l1.8.21A36.94,36.94,0,0,1,81,113c1.38-7.32,4.88-18.13,5-26.41s0-18.88-1.48-25-1.59-12.2-2.12-13.89-2.76-12.62-1.8-17c0,0,4.56-4.77,6.15-7.64,0,0,6.47-2.23,7-3.82,0,0,16.33,7.42,20.68,8.06a42.29,42.29,0,0,1,5.73,1.27c1.27-.85,8.59-4.14,29.48-3.18,0,0,2.33-2.55,4.67-3.18,0,0,6.47-4.67,9.76-4.56a47.24,47.24,0,0,0,7-.42,33.48,33.48,0,0,1,4.67,3.29L178.38,27l-.32,7.53-.92,1.38a41.9,41.9,0,0,1,1,5.37c0,1.06-.11,10.22-.07,11.7s.18,5.13.18,5.13l1.91,1.56-.32,10.68s-.32,14.56-1.48,18.17l15,14.14,3.25,12.16,28.63,28s10.82,46.45,13.15,48.78c0,0,16.33,21,19.51,27.79,0,0,3.61,13.36,5.94,15.06l7.53,8.06a5.14,5.14,0,0,0-1.27,3.76,9.48,9.48,0,0,1-.9,3.71,2.39,2.39,0,0,0-2.76,1.48l-6.2,2.7-2-1.27-1.27.85-1.59-1-2.23.21s-1.7,2.07-1.38,2,2.6-1,2.6-1l1.33,2.33-7,7a7.34,7.34,0,0,0,2.49,3.5s-1.64,2.33-1.59,3.39c0,0,.8-.11,1,.27s.53,3,.53,3l-1.27.42,1.06,3.08a1.75,1.75,0,0,1,1.91.27l2.17,1.43a28.07,28.07,0,0,1-.85,6.26c-.85,3.29-.48,4.19-1.43,6,.16.21,1.8,5.83,1.8,5.83l5.73,2.92,5.3-1.48,7.69.21,6.42,3.82a5.36,5.36,0,0,1-.11,6s-5.67.21-8.43,1.86c0,0-4.19,4.67-5.57,8.38l-4.14.37s-1-.32-1-.74l.74,2.12a14.83,14.83,0,0,1-5,.32,1.25,1.25,0,0,1-1.48-.48s-4.51-3.92-5.73-2.6-2.55,4.4-4.4,4.77-2.86-1.27-3.5.11a8.63,8.63,0,0,0-.61,3.13c0,.11-.85-.72-1.38.29s-2.09,1.62-1.67,2.6-1.7.58-1.14,2.17c0,0-2.47.27-3.16-.85,0,0,.05.69.24,1.67a5.37,5.37,0,0,0-3,1.14c-1.14,1.06-2,2.09-1.19,3s7.16.82,7.61,1.78,3.5,1.11,2.84,4.08-5.62.9-6.5,2.33c0,0-1.43,2-5.38,1.91,0,0-3.13.56-3.61,2.12s-3.47,2.86-4.69,3.16-3.16.87-3.47,1.59-.64-.69-2.33-.24-1,.24-2.2-.11-1.54.93-3,.9-4.08-1.35-5.28-.53-4,2.44-5.86,2.25-5.38-2-6.5-1.43-8,1.06-8.62.69-.87-2-.87-2-3.92-.24-4.56-1.19a2.78,2.78,0,0,0-2.52-1.25c-.64.16-2.49-2.12-5-2.52s-3.08-1.38-4.61-1.75a27.52,27.52,0,0,0,1.75-2.94,14.56,14.56,0,0,0,1.48-4.16c.29-1.46-.19-1.38-.16-2.92s.4-1.94-.37-3.23a19,19,0,0,1-2.09-4.22,18.88,18.88,0,0,0-2.36-4.48,17.52,17.52,0,0,0-1.3-2.33,30.33,30.33,0,0,0,3.84-1.75s-.34.05,1.83-.69.77-.85.37-2.68,1-3.16,2-5,1.43-1.33,1.78-3.55c-.34,0-.24-.21-3.26.21s-6,2.82-7,2.82a25.1,25.1,0,0,1-3.25-5.73c-1.06-2.9-.81-4.6-1.77-6.72s-1.84-3.25-.49-5.66,1.41-5.55,1.8-7a46,46,0,0,0,.71-8.56c0-3.08,1-5.62,1.7-9.86s1.41-9.44,0-13.82-3.54-9.23-3.32-12.23-3.11-14.42-9.47-17a24,24,0,0,0-8.91-4.7c-4.81-1.13-10.32-2.23-13.22-1.84a60.73,60.73,0,0,1-11.88.46c-4.52-.32-7.6.07-11.49-.11s-14.85.49-19.23.71-6.79.64-9,.53a12.29,12.29,0,0,1-3.38-.55s2.28-7.53,2.81-10,2.92-6.95,4.08-11.93,1.54-7.16,2.86-8.91,5.73-1.75,7.74-1.91.42-.11,3.55-1.8,7.37-.53,9.92-.85,3.45-.21,1.59-2.92a40.67,40.67,0,0,1-4.61-8.17c-.85-2.39,0-5.3-2.76-7.32a11.44,11.44,0,0,0-6.84-2.6c-2.33-.16-7.21-2.23-10.87-1.7s-3.18.53-3.18-3,.42-7.64-.74-11.14a60.77,60.77,0,0,1-1.7-6.84c-.74-2.92-.53-2.49-1.17-7.21s-1.11-4.24-.9-5.41S69.89,124.89,69.89,124.89Z"/><path class="cls-2" d="M197.45,356.17l-.44,0a15.25,15.25,0,0,1-3.09-.83,12.69,12.69,0,0,0-2.69-.72c-1.48.65-8.63,1.37-9.91.62a3.3,3.3,0,0,1-1.32-1.94c-1.87-.2-3.87-.67-4.58-1.73a1.67,1.67,0,0,0-1.06-.65c-.83.21-1.52-.29-2.41-.93a7.8,7.8,0,0,0-3.13-1.58,9.56,9.56,0,0,1-3.49-1.23,4.78,4.78,0,0,0-1.23-.54l-3.14-.76,2.48-1.66c.26-.4.91-1.46,1.49-2.56a13.09,13.09,0,0,0,1.35-3.78,1.7,1.7,0,0,0,0-1,6.2,6.2,0,0,1-.19-1.71c0-.46,0-.83.07-1.15a1.58,1.58,0,0,0-.25-1.34l-.2-.34a18.16,18.16,0,0,1-2-4.21,16.84,16.84,0,0,0-2.17-4.07l-.1-.18a18.75,18.75,0,0,0-1.07-2l-1.57-1.57,2.14-.71a29,29,0,0,0,3.64-1.66h0a12.62,12.62,0,0,1,1.87-.74,5.21,5.21,0,0,1-.37-1.1c-.41-1.9.51-3.35,1.33-4.64.27-.43.55-.87.78-1.32a8.18,8.18,0,0,1,.9-1.41l-.93.12a14.69,14.69,0,0,0-4.52,1.8,6.35,6.35,0,0,1-2.69,1h-.69l-.43-.55a26.34,26.34,0,0,1-3.46-6.11,21.32,21.32,0,0,1-1-3.84,11.15,11.15,0,0,0-.75-2.79l-.33-.72c-.84-1.78-1.64-3.47-.11-6.21a14.62,14.62,0,0,0,1.34-4.84,16.92,16.92,0,0,1,.34-1.81,45.18,45.18,0,0,0,.66-8.18,25.55,25.55,0,0,1,.86-5.84c.28-1.23.6-2.63.85-4.25.56-3.56,1.41-8.94.05-13.17-.34-1.06-.73-2.15-1.11-3.23-1.27-3.59-2.46-7-2.28-9.54.2-2.84-3.08-13.35-8.59-15.59l-.22-.09-.18-.16a22.76,22.76,0,0,0-8.3-4.39c-2.35-.55-9.52-2.25-12.71-1.81a61.78,61.78,0,0,1-12.17.47c-2.46-.17-4.51-.13-6.49-.09-1.57,0-3.2.07-5,0-3.09-.14-10.85.27-16,.54l-3.11.16c-1.84.09-3.32.22-4.62.33a34.25,34.25,0,0,1-4.5.2,13.5,13.5,0,0,1-3.8-.64L68,219.14l.39-1.27c0-.07,2.27-7.5,2.78-9.86a31.36,31.36,0,0,1,1.51-4.31A55,55,0,0,0,75.25,196l.4-1.72c.91-4,1.37-5.95,2.72-7.72,1.54-2,5.19-2.25,7.86-2.41l.9-.06.62-.06a11.29,11.29,0,0,1,2.37-1.58c2.44-1.33,5.35-1.16,7.68-1a17,17,0,0,0,2.73,0l.5-.06.48-.06c-.1-.16-.23-.35-.39-.59a40.12,40.12,0,0,1-4.78-8.49,12.24,12.24,0,0,1-.54-2.73c-.21-1.81-.41-3-1.72-3.92a10.07,10.07,0,0,0-6.1-2.33,21.46,21.46,0,0,1-3.53-.73c-2.21-.57-5-1.28-7-1l-.21,0c-2,.29-3,.44-3.85-.3s-.78-1.7-.76-3.08c0-.31,0-.67,0-1.07,0-.75,0-1.52,0-2.3.07-2.88.14-5.85-.71-8.39A29.81,29.81,0,0,1,70.75,142c-.13-.68-.27-1.39-.54-2.45a25.48,25.48,0,0,1-.81-4.36c-.09-.71-.2-1.64-.38-3a25.72,25.72,0,0,0-.76-4,3.54,3.54,0,0,1-.13-1.9,18.81,18.81,0,0,1,.41-1.85l.23-.76.76-.21c.17,0,4.23-1.09,10,1.79a38,38,0,0,1,.08-12.57c.44-2.33,1.09-5,1.77-7.81,1.46-6,3.12-12.83,3.19-18.35.15-11.94-.32-20-1.45-24.68A79.29,79.29,0,0,1,81.54,51.6a27.78,27.78,0,0,0-.48-3.49c-.46-1.47-2.9-12.84-1.83-17.69L79.3,30l.27-.29s4.45-4.67,5.94-7.35l.26-.47.51-.18c2.83-1,5.66-2.36,6.14-3l.48-1.43,1.43.65c4.49,2,16.9,7.45,20.3,7.95A53.17,53.17,0,0,1,120,27c2.17-1.09,9.75-3.89,29-3.08a13,13,0,0,1,4.61-3c1.29-.91,7-4.81,10.43-4.69a45.92,45.92,0,0,0,6.75-.41l.49-.07.43.25a33.25,33.25,0,0,1,4.94,3.5l.2.2,2.88,7L179.47,35l-.8,1.19a31.17,31.17,0,0,1,.92,5.15c0,1-.1,10.15-.07,11.62,0,1.09.11,3.36.15,4.47l2,1.59-.34,11.38c0,1.4-.31,13.09-1.32,17.67l14.67,13.84,3.26,12.17,28.65,28,.09.4c4.05,17.41,11.12,45.88,12.82,48.15l.07.08c.67.86,16.47,21.2,19.68,28.05l.08.23c1.68,6.22,4.25,13.44,5.4,14.28l.2.18,8.43,9-.9,1a3.74,3.74,0,0,0-.9,2.62v.21a10.68,10.68,0,0,1-1.08,4.36l-.56,1-1.1-.34c-.15,0-.64,0-1.08.79l-.23.44-7.36,3.21-1.82-1.18-1.26.84-.28-.18.75,1.32-7.1,7.1a5.89,5.89,0,0,0,1.67,2l1.1.82-.79,1.13a13.89,13.89,0,0,0-1,1.63,1.74,1.74,0,0,1,.49.66,15.47,15.47,0,0,1,.63,3.33l.17,1.17-1,.35.21.6a3.05,3.05,0,0,1,1.81.72l2.74,1.8v.76a29.34,29.34,0,0,1-.89,6.61,25.54,25.54,0,0,0-.58,3,9.67,9.67,0,0,1-.68,2.73c.25.73.67,2.09,1.45,4.77l4.69,2.39,5-1.39,8.27.23,7,4.15.17.23a6.75,6.75,0,0,1-.07,7.61l-.4.61-.73,0c-1.44.05-5.51.44-7.58,1.55-.74.85-4,4.72-5.15,7.76l-.31.84-3.94.35.38,1.09-1.54.35a16.78,16.78,0,0,1-5.3.39,2.63,2.63,0,0,1-2.58-1,12.64,12.64,0,0,0-3.81-2.41c-.27.33-.57.78-.88,1.25-1.06,1.59-2.26,3.38-4.11,3.75a4.78,4.78,0,0,1-2.65-.27,7.57,7.57,0,0,0-.31,2,2.05,2.05,0,0,1-.05.46l-.17.66-.63.29a1.4,1.4,0,0,1-1,.08,6.76,6.76,0,0,1-.91,1l-.33.32a1.88,1.88,0,0,1-1.12,2.2l.48,1.36-1.76.25a7.86,7.86,0,0,1-1.51,0l.14.75-1.64.07a3.89,3.89,0,0,0-2.12.76,7.26,7.26,0,0,0-1,1,26.61,26.61,0,0,0,2.8.43c2.58.31,4.18.5,4.81,1.57.11.07.32.19.48.28,1,.58,3.22,1.79,2.53,4.85-.64,2.86-3.57,2.85-5.32,2.86a8.23,8.23,0,0,0-1.47.08c-.51.64-2.32,2.51-6.35,2.42a4.21,4.21,0,0,0-2.37,1.11c-.75,2.47-4.7,3.88-5.72,4.12a8.29,8.29,0,0,0-2.57.92,1.64,1.64,0,0,1-1,.85,1.77,1.77,0,0,1-1.53-.31.62.62,0,0,0-.67-.11c-1.26.34-1.69.45-2.48.06a2.54,2.54,0,0,0-.47-.18l-.3.18a3.89,3.89,0,0,1-2.39.77A10.17,10.17,0,0,1,206,354a6.2,6.2,0,0,0-2.18-.34C203.18,354.09,200,356.17,197.45,356.17Zm-6.11-1.62h0Zm-.09-2.79a12.37,12.37,0,0,1,3.58.87,14.16,14.16,0,0,0,2.46.7c1.14.11,3.38-1,4.91-2,1.29-.89,3-.45,4.49-.05a8.67,8.67,0,0,0,1.62.33,1.29,1.29,0,0,0,.8-.32,3,3,0,0,1,2.61-.53,5.31,5.31,0,0,1,.77.28l.68-.18a3.46,3.46,0,0,1,2.19.08,10,10,0,0,1,3.65-1.44c1.34-.32,3.46-1.51,3.67-2.19.69-2.28,4-3,4.71-3.1l.15,0h.15c2.89.1,4-1.13,4.18-1.31.79-1.18,2.35-1.18,3.72-1.18,1.92,0,2.44-.14,2.55-.64.2-.91,0-1.14-1.14-1.76a4.06,4.06,0,0,1-1.39-1.06,21.83,21.83,0,0,0-2.86-.46c-2.52-.3-4-.51-4.72-1.32-1.89-2.07.41-4.21,1.27-5a5.73,5.73,0,0,1,2.38-1.26c0-.25,0-.39,0-.41l-.45-5.81,3.07,5a1.65,1.65,0,0,0,.65.17,2.59,2.59,0,0,1,.94-1,3.23,3.23,0,0,1,1.32-2.36,3.4,3.4,0,0,0,.6-.64,2.35,2.35,0,0,1,1.34-1.17,8,8,0,0,1,.61-2.18,2.33,2.33,0,0,1,3.25-1.1,2.32,2.32,0,0,0,1.26.2c.7-.14,1.67-1.59,2.31-2.55a15.06,15.06,0,0,1,1.32-1.79c1.87-2,5.63.69,7.7,2.49l.17.17.33-.14.37.13a9.13,9.13,0,0,0,2.82,0l-.08-.23a1.7,1.7,0,0,1-.19-.78v-8.34l2.67,7.64,2.91-.26a38.18,38.18,0,0,1,5.49-8l.14-.16.19-.11c2.4-1.43,6.56-1.88,8.31-2a3.9,3.9,0,0,0-.06-3.58l-5.81-3.45-7.11-.2-5.63,1.58-6.77-3.45-.17-.59c-.67-2.31-1.45-4.89-1.68-5.52l-.44-.58.42-.79a6.36,6.36,0,0,0,.67-2.4,28.36,28.36,0,0,1,.64-3.28,27.24,27.24,0,0,0,.78-5.16l-1.67-1.12a.3.3,0,0,0-.31-.07l-1.46.77-2.07-6,1.5-.5c0-.29-.09-.57-.14-.81l-1.11.15-.08-1.54a6.71,6.71,0,0,1,1.16-3.22,8.83,8.83,0,0,1-2-3.36l-.23-.8,6.82-6.82-.19-.33a10.27,10.27,0,0,1-1.74.59l-1,.16-.53-.86c-.56-1,0-1.76,1.55-3.61l.37-.46,3.3-.31,1.22.77,1.28-.85,2.1,1.37,5.09-2.22a3.86,3.86,0,0,1,2.83-1.83,9.24,9.24,0,0,0,.4-2.2,6.17,6.17,0,0,1,.87-3.69l-6.67-7.14c-2.48-2.08-5.41-12.28-6.31-15.61-3.2-6.68-19.14-27.2-19.3-27.41h0c-2.54-3.34-10.69-37.66-13.32-48.93l-28.62-28-3.25-12.15L176.76,88.93l.28-.85c.9-2.79,1.33-13.77,1.42-17.76l.3-10-1.86-1.52,0-.64s-.14-3.66-.18-5.15,0-10.76.07-11.78a38.72,38.72,0,0,0-1-5l-.15-.61,1-1.57.29-6.82-2.42-5.9a31.79,31.79,0,0,0-3.78-2.64,46.85,46.85,0,0,1-6.74.37c-2,0-6.53,2.6-8.88,4.29l-.21.15-.25.07a10.71,10.71,0,0,0-4,2.77l-.45.49-.66,0c-22.4-1-28.57,2.91-28.63,2.94l-.66.44-.72-.33a38.67,38.67,0,0,0-5.37-1.16c-3.89-.57-16.41-6.09-20.05-7.73a21.52,21.52,0,0,1-6.44,3.25,56,56,0,0,1-5.79,7.14c-.68,4.23,1.36,14.35,1.84,15.87a25.93,25.93,0,0,1,.6,4,76.82,76.82,0,0,0,1.55,9.94c1.57,6.52,1.62,17.61,1.52,25.38-.07,5.83-1.77,12.82-3.27,19-.68,2.78-1.31,5.41-1.74,7.67a35.82,35.82,0,0,0,.3,13.5l.49,2-4.1-.48-.24-.13a14.63,14.63,0,0,0-7.82-2q-.06.29-.13.68c0,.22,0,.22.07.62a28.23,28.23,0,0,1,.84,4.34c.19,1.39.3,2.33.39,3.05a22.67,22.67,0,0,0,.75,4c.29,1.14.44,1.92.57,2.61a27.19,27.19,0,0,0,1.09,4.13c1,3,.92,6.38.85,9.35,0,.76,0,1.51,0,2.23,0,.42,0,.79,0,1.12s0,.5,0,.71c.37,0,.88-.11,1.38-.18l.21,0c2.64-.38,5.7.41,8.16,1a20.67,20.67,0,0,0,3,.65,12.79,12.79,0,0,1,7.58,2.87c2.37,1.73,2.64,4,2.86,5.88a10,10,0,0,0,.4,2.11,38.23,38.23,0,0,0,4.45,7.84c.86,1.25,1.58,2.46,1.06,3.62s-1.74,1.28-3.16,1.45l-.49.06a18.7,18.7,0,0,1-3.25,0c-2.08-.12-4.43-.25-6.17.69a8.26,8.26,0,0,0-1.84,1.21,3,3,0,0,1-2.28.76l-1,.06c-1.5.09-5,.3-5.77,1.29-1,1.29-1.37,3-2.21,6.65L78,196.7a57.2,57.2,0,0,1-2.71,8,30.26,30.26,0,0,0-1.37,3.87c-.4,1.83-1.71,6.31-2.4,8.63a15.22,15.22,0,0,0,1.65.17,32,32,0,0,0,4.12-.2c1.32-.11,2.82-.24,4.72-.33l3.09-.16c5.2-.28,13-.69,16.27-.55,1.67.07,3.18,0,4.78,0,2,0,4.16-.09,6.75.1a59.76,59.76,0,0,0,11.59-.45c2.53-.34,6.89.25,13.73,1.86a25.15,25.15,0,0,1,9.33,4.86c7,3.07,10.37,15,10.14,18.33-.14,2,1,5.24,2.13,8.4.39,1.11.78,2.22,1.13,3.3,1.57,4.87.66,10.65.05,14.48-.27,1.71-.6,3.15-.89,4.43a23.11,23.11,0,0,0-.79,5.21,47,47,0,0,1-.76,8.93c-.09.34-.17.87-.27,1.49a17.1,17.1,0,0,1-1.66,5.79c-.82,1.47-.57,2,.19,3.62l.36.77a13.7,13.7,0,0,1,1,3.45,18.68,18.68,0,0,0,.85,3.37,21.92,21.92,0,0,0,2.45,4.53l.83-.43a17.13,17.13,0,0,1,5.46-2.1c2.55-.36,3.09-.32,3.58-.22l1.53.12-.25,1.51a5,5,0,0,1-1.18,2.86,5.53,5.53,0,0,0-.74,1.12c-.29.57-.62,1.08-.91,1.54-.71,1.13-1.11,1.8-1,2.52a3,3,0,0,0,.41.94,3.73,3.73,0,0,1,.32.64l3.23-.5-3.24,1.81a3,3,0,0,1-2,1.43c-.9.31-1.32.46-1.5.53l-.09.05c-.85.47-1.74.89-2.47,1.21.14.27.29.57.47.93a19.7,19.7,0,0,1,2.49,4.81,16.14,16.14,0,0,0,1.74,3.52l.21.35a4.27,4.27,0,0,1,.63,3.06c0,.26-.06.55-.06.93a3.45,3.45,0,0,0,.11,1,4.41,4.41,0,0,1,0,2.16,16,16,0,0,1-1.62,4.55c-.17.32-.52,1-.9,1.63l.16.09a6.8,6.8,0,0,0,2.57.91,10.25,10.25,0,0,1,4.35,2.08l.57.4a4.33,4.33,0,0,1,3.53,1.8,11.66,11.66,0,0,0,3.54.67l1.15.07.16,1.14a4.76,4.76,0,0,0,.25.95A31.52,31.52,0,0,0,190,352,2.54,2.54,0,0,1,191.25,351.76ZM217.17,353h0Zm-43.42-4.89h0Zm60.49-3.72-.06.08Zm3.73-7.76h0Zm-8-2.25"/></svg>