<svg id="Layer_1" data-name="Layer 1" xmlns="http://www.w3.org/2000/svg" viewBox="0 0 350 350"><defs><style>.cls-1{fill:#999;}.cls-2{fill:#f90;}</style></defs><title>M</title><path class="cls-1" d="M53.42,43.86S54.94,64.4,54.5,68.07l2.81,11.46S56,118,58.4,125.16c0,0,.43,33.84,4.11,39.89l3.24,4.65s12.6,9.19,14.27,11.51,6.76,5.57,9.46,6.38,17.95,4.11,21.19,9.57a34.43,34.43,0,0,1,4.05,11.57s.22,1.51,4.65,4.27c0,0,12.54,5,15.73,11.62l1.14,6.43-.81,6.65s8.32,6.54,9.14,8.7c0,0,5,8.7,6.38,11.68l2.87,2.43h4.59s21.41-6.32,30.38-5.46l13.73-1,5.08-3.78s-1.57,7.95-.92,9.68l3.68,4.16,11.73,21.35-.38,6.05,1.62,6.05-2.22,3.19-.27,3.46-5.08,4.7-.92,3.51.54,2.81L212,318l1.3,3.51s6.38,4.81,7.95,5.68l.27.43.43,8.27,10.87,6.32L236,341a16.18,16.18,0,0,0,.76-4.27V330.8l1.57-3.84,3.19-2.43,13.57-1.84,5.08-8s.86-2.59,3.35-.38c0,0,5.73,3.51,7.19,3.68s7.84-8.49,7.84-8.49,3.41,1.35,4.05,2.11,9.19-7.08,9.19-7.08l.54-4.16s4.16-7.35,4.22-9.89v-.92l-4.27-5.24a77.67,77.67,0,0,1-.05-7.95c.22-3.57.54-22.87.54-22.87l-3-1.51-1.3-13.35s-5.08-6.87-5.89-7.35a8,8,0,0,1-2.63-3.64c-.25-1.17-2.83-3.78-3.39-4s-7.23-8.34-7.23-8.34l-8.45-9.51-2.59-5.14a46.53,46.53,0,0,0-.94-10.09L263,177.09l-4-15.42s-5.95-5.51-7.42-6.05c0,0-3.06-2-3.68-7.32s-2.7-19.53-2.7-19.53l.36-2.52,2.16-2.2,7.42-3.35,4-6.13.65-5.19-9.3-24.07-2.74-3.14-8.94-3.46S234,77,232.93,75.53s-8.65-9.08-8.65-9.08a5.38,5.38,0,0,1-1.55-5.91A5,5,0,0,0,220,57l-.22-4.79.11-1.91-.83-3s-5.95,1.41-9.12-3.1l-1.59,1.77-2-1-1.44,1.66-4.54-.4,3.1-5.48-.65-3.5-4.18-4.87-7.75-.86-3-2.27L186.59,27l2-3.24L186.69,20l-8.87-2.52s-3.06-3.78-5.51-4.25c0,0-4.68-2.9-5.8-4.27l-1-1.15s-8.6.05-11.57,6.32c0,0-9.24-5.78-11.14,5,0,0-4.54,6.32-10.65,6.54s-6.76,8.7-6.76,8.7,1.24,5.14-1.78,6.7-5.78-.49-13.51,6.05a9.08,9.08,0,0,1-9.19-2.38,10,10,0,0,0-11.95-1.84c-2.43,1.41-6.32,2.16-7.73,1.3S73.26,44,72.29,45s-9.73-1.41-11.78-3.3S53.42,43.86,53.42,43.86Z"/><path class="cls-2" d="M232.66,343.77l-12.11-7.05-.45-8.56c-2-1.27-7.07-5.06-7.68-5.53l-.33-.25-1.8-4.87,3.54-2.81-.44-2.28,1.1-4.22,5-4.61.26-3.29,2.06-3-1.51-5.64.37-5.88L209.19,265l-3.75-4.24-.09-.24c-.47-1.25-.17-4.27.23-6.91l-2.56,1.9-14.26,1h-.12c-8.61-.83-29.63,5.35-29.84,5.41l-.2.06h-5.32l-3.5-3-.13-.29c-1.31-2.88-6.27-11.47-6.32-11.55l-.1-.21c-.4-1.07-4.81-5-8.68-8.09l-.63-.49.88-7.23-1.06-6c-3.05-6-14.78-10.71-14.9-10.76l-.22-.11c-4.51-2.8-5.21-4.62-5.3-5.27a33.29,33.29,0,0,0-3.87-11c-2.52-4.25-14.69-7.43-18.69-8.48-.75-.19-1.33-.35-1.69-.46-2.94-.88-8.33-4.31-10.2-6.91-1.12-1.56-9.16-7.7-14-11.2l-.19-.14-3.38-4.84c-3.75-6.17-4.3-36.11-4.36-40.48-2.28-7.59-1.2-42.43-1.09-45.7L53.07,68.16l0-.25C53.44,65,52.43,49.64,52,44L52,43.21l.59-.47c1-.79,6.12-4.63,8.92-2,1.57,1.45,8.4,3.44,10,3.18,1.92-1.54,8.75-2,10.49-.91.65.4,3.9.06,6.28-1.32a11.4,11.4,0,0,1,13.64,2,7.74,7.74,0,0,0,7.5,2.14c5.49-4.59,8.72-5.06,11.09-5.41a7.6,7.6,0,0,0,2.48-.64c2-1,1.07-5.07,1.06-5.11l-.05-.21,0-.22c.26-3.37,2.29-9.81,8.12-10,4.7-.17,8.51-4.63,9.37-5.72.68-3.47,2.19-5.75,4.49-6.78,2.71-1.21,5.73-.25,7.41.51,3.75-5.73,11.76-5.85,12.12-5.86h.64L167.57,8a32.75,32.75,0,0,0,5.29,3.89c2.4.62,4.9,3.32,5.77,4.34l9,2.58,2.5,5-2,3.19.7,1.22,2.48,1.86,7.92.88,4.79,5.58.81,4.38-2.27,4,1.63.14L206,43.18l2,1L210,41.87l1,1.46c2.59,3.68,7.58,2.55,7.63,2.54l1.33-.31,1.25,4.57-.12,2.07.18,4a6.37,6.37,0,0,1,2.8,4.23l0,.35-.13.33a4,4,0,0,0,1.13,4.3l.1.09c.78.79,7.63,7.72,8.77,9.22.51.68,3.13,1.94,5.25,2.69l9.3,3.6,3.13,3.59,9.52,24.64-.73,5.87-4.44,6.75-7.56,3.41-1.65,1.68-.27,1.86c.26,1.76,2.11,14.46,2.68,19.37.47,4.1,2.54,5.9,3,6.24,1.8.87,6.29,5,7.68,6.25l.3.28,4.26,16.29-5.63,13.49a47.79,47.79,0,0,1,.87,9.65l2.36,4.66,8.33,9.38c2.91,3.55,6.21,7.45,6.9,8.07,1.23.69,3.71,3.39,4,4.9a7,7,0,0,0,2,2.72c.7.42,2.82,3,6.3,7.72l.23.32,1.26,13,3.07,1.56v.89c0,.79-.33,19.37-.54,22.93-.17,2.78,0,6.13,0,7.32L298,289v1.42c-.06,2.64-3.31,8.64-4.26,10.35l-.57,4.4-.38.35c-8.29,7.61-9.52,7.54-10.11,7.5a1.57,1.57,0,0,1-1.11-.54,13.88,13.88,0,0,0-2.5-1.3c-6.3,8.4-7.75,8.24-8.47,8.16-1.6-.18-6-2.77-7.78-3.88l-.2-.15c-.59-.53-.87-.54-.87-.54h0a1.2,1.2,0,0,0-.2.33l-.14.29L256,324l-13.85,1.88-2.58,2-1.32,3.22v5.61a17.65,17.65,0,0,1-.83,4.73l-.21.63ZM223.3,335l9.62,5.6,2-.75a14.4,14.4,0,0,0,.5-3.23v-6.14l1.82-4.45,3.79-2.89,13.29-1.8,4.66-7.33a3.32,3.32,0,0,1,2.09-2,3.68,3.68,0,0,1,3.38,1.07,46.92,46.92,0,0,0,6.29,3.36c1.13-.74,4.31-4.54,6.76-7.86l.65-.88,1,.4a23.21,23.21,0,0,1,3.85,1.87,76.16,76.16,0,0,0,7.53-6.23l.51-3.92.14-.24c1.66-2.92,4-7.72,4-9.22v-.38l-4.24-5.21,0-.46a78.76,78.76,0,0,1-.05-8.12c.19-3.06.46-18.09.52-21.92l-2.88-1.46-1.33-13.73c-2.19-2.95-4.79-6.27-5.33-6.72a9.25,9.25,0,0,1-3.21-4.5,11.2,11.2,0,0,0-2.58-3c-.43-.19-1.37-1-7.75-8.74l-8.62-9.77L256.92,201v-.35a45.34,45.34,0,0,0-.89-9.71l-.12-.46L261.53,177l-3.81-14.56c-2.67-2.46-5.88-5.18-6.65-5.48l-.29-.15c-.15-.1-3.62-2.45-4.3-8.34-.6-5.22-2.68-19.35-2.7-19.49l0-.2.46-3.19,2.67-2.72,7.29-3.29,3.63-5.51.56-4.51L249.29,86l-2.34-2.68L238.33,80c-1.18-.42-5.25-2-6.53-3.64-.77-1-5.49-5.87-8.49-8.9a6.78,6.78,0,0,1-2.05-7,3.86,3.86,0,0,0-2-2.22l-.72-.38-.25-5.68.1-1.75-.44-1.6a10.36,10.36,0,0,1-8.1-2.53l-1.23,1.37-2-1-1.2,1.38L198,47.42,202,40.47l-.49-2.61-3.57-4.15-7.58-.85-3.57-2.68L184.94,27l2-3.29-1.25-2.52L177,18.72l-.28-.35c-1.06-1.31-3.27-3.48-4.68-3.75l-.26,0-.22-.14c-.82-.51-4.95-3.1-6.16-4.58l-.53-.6c-1.88.16-7.56,1-9.68,5.48l-.68,1.44-1.35-.84s-3.53-2.15-6.08-1c-1.46.65-2.44,2.34-2.91,5l-.06.32-.19.26c-.2.28-5,6.89-11.75,7.13-4.32.15-5.24,6.07-5.37,7.21.24,1.21,1,6.2-2.57,8a10,10,0,0,1-3.37.93c-2.17.32-4.88.72-9.88,5l-.18.16-.23.09A10.45,10.45,0,0,1,99.9,45.74a8.57,8.57,0,0,0-10.25-1.63c-2.37,1.37-7,2.62-9.18,1.28-1-.49-6.25,0-7.19.67a2.47,2.47,0,0,1-1.79.66c-2.82.13-9.84-2-11.95-3.93-.59-.54-2.83.44-4.65,1.73.27,3.75,1.36,19.53,1,23.45l2.8,11.42v.2c-.45,13.23-.81,39.68,1,45.13l.07.21v.22c.12,9.31,1.05,34.48,3.9,39.18l3.06,4.38c2,1.44,12.7,9.35,14.39,11.69,1.48,2,6.32,5.13,8.72,5.85.34.1.89.25,1.59.43,5.17,1.35,17.29,4.52,20.41,9.77a35.67,35.67,0,0,1,4.22,12c.12.23.83,1.4,3.91,3.33,1.4.57,13.11,5.54,16.36,12.27l.08.18,1.21,6.83-.74,6.07c2.47,2,7.93,6.49,8.91,8.69.52.9,4.8,8.34,6.26,11.43l2.23,1.89h3.87c2.32-.68,21.77-6.25,30.6-5.46l13.2-.94,7.7-5.73-.71,3.61c-.67,3.38-1.2,7.51-1,8.72l3.63,4.16,11.93,21.71-.39,6.23,1.73,6.47-2.37,3.41-.28,3.63-5.18,4.8-.73,2.8.64,3.34-3.28,2.6.8,2.16c2,1.47,6.3,4.69,7.45,5.32l.32.18.66,1.06Zm60.41-24.36h0ZM276,224.93Zm1.39-2.45h0Zm-.31-.16.13.06Zm-161-14Z"/></svg>