<svg id="Layer_1" data-name="Layer 1" xmlns="http://www.w3.org/2000/svg" viewBox="0 0 350 350"><defs><style>.cls-1{fill:#999;}.cls-2{fill:#f90;}</style></defs><title>M</title><path class="cls-1" d="M212.22,314.55c-1.57-.29-2.71-10.56-2.71-10.56l-.29-5.42-2.43-1.28v-5.42l5.28-5.42s12.7-12.13,13.7-12.85,2-3.28,0-4.14-1.86-6.42-.86-8.85-2.71-6.28-2.71-6.28a56.67,56.67,0,0,0-8-1.43c-3.57-.29-3-6.57-3.85-8.42s2.57-8.56,2.57-8.56l4.14-6.57c8.42-3.57,0-10,0-10l-12-6.51-2.28-3.57v-4.85h-3.85l-1.86-1.14-6.14-8.28-4.14-6.57L177,182.95l-3-1.57-3.85-2.28-2.28-4.42L160.4,174l-9.71-.86L145,174l-6.42-2.85L127,166.25l-3.43-37.11-4.14-7.56-8.14-12.85-10.85,25.41-4.28,11.42-8,21.27-5.42,1.71L77,169c-5.71.43-6.57-2.43-6.57-2.43l-9.85-3.14-3.14.43-9.14,3.71-1.86-4.14-2.43-1-1.57-5.14-1-1.43-4.85.86-3-5L20.81,145,6.25,137s8.65-4.12,11-6.69,3.64-4.07,7.28-8.14-1.71,3.21,7.06-8.56l8.78-11.78a113.49,113.49,0,0,0,6.85-16.49L57.29,72.06s14.34-19.91,18-28.26l3.64-8.35h4.92l2.78,8.35,18,5.14s19.05.43,21.84,2.78a30.59,30.59,0,0,1,4.92,5.57l1.07-1.93,2.14-.64,3.85-2.14,4.07-.86a14.43,14.43,0,0,1,7.71-2.36,60.8,60.8,0,0,1,11.56,1.07L172,49.8s3.85-.64,4.71-.64,7.92,1.07,9.21,1.71,8.35,2.78,8.35,2.78h8.56l7.06.64s-4.71-1.28,5.57,1.5,10.28,1.93,10.28,1.93a22.66,22.66,0,0,0,4.5-2.36c1.71-1.28,0-4.28,4.92-8.35a32.24,32.24,0,0,1,9.63-5.57s2.14,1.07,8.56,2.14a12.87,12.87,0,0,0,10.28-2.36s7.49.21,12,1.93l3.85,6.21s-1.93.86,8.14,4.07,20.12,5.78,20.12,5.78l4.92,1.71,6-.86s10.06,6,13.06,8.14,7.28,6,7.92,9.21a71,71,0,0,0,2.57,8.35s1.5,12,1.5,14.13-2.36,4.28-2.36,4.28l-1.07,7.71,1.71,7.07.21,4.5-3.64,10.06,4.07,12s-.86,6.85-1.28,13.27-6.21,20.55-6.21,20.55L329,184.89l-4.28,6.21a57.83,57.83,0,0,1-2.78,9.85c-1.93,4.92-.86,10.92-.86,10.92l-5.57,4.71-13.7,7.71-9.21,5.57-6-.86-4.28-9.7-3.64,1.14-2.35,5.78-.43,8.78-3.43,6.42-5.57,18.2-3.64,8.78-3.85-1.07-13.7,12.2-1.93-.21-3.85,2.57-3,7.07-3.64,3.64.21,3-5.35.21L223,297.93s-4.28,8.14-4.92,13.06Z"/><path class="cls-2" d="M212.49,316l-.53-.1c-.85-.15-2.61-.47-3.87-11.8l-.25-4.7-2.47-1.31v-6.85l5.68-5.84c2.17-2.07,12.87-12.28,13.9-13a1.86,1.86,0,0,0,.56-1.34c0-.14,0-.23-.29-.34-3.18-1.36-2.68-8.1-1.61-10.69.39-.94-1-3.12-2.15-4.47a53.53,53.53,0,0,0-7.35-1.29c-3.66-.29-4.24-4.42-4.62-7.15a11,11,0,0,0-.41-2.09c-1-2.16,1.2-7.07,2.59-9.8l.06-.11,4.38-6.94.41-.17c1.77-.75,2.73-1.64,2.86-2.63.24-1.84-2.13-4.15-3.09-4.92l-12.21-6.63-2.7-4.23v-3.85h-2.84l-2.43-1.5-6.36-8.59-3.94-6.26-9.53-5.25-3-1.56L169,180.1l-2.12-4.1-6.65-.64-9.53-.84-6,.89-6.8-3-12.32-5.17-3.48-37.67-4-7.31-6.65-10.49-9.79,22.93L89.26,168l-6.4,2-5.71.43c-4.93.37-6.92-1.54-7.65-2.66l-9-2.87-2.65.36-10.24,4.16-2.18-4.87-2.52-1-1.7-5.56-.35-.5-4.92.87-3.29-5.49-12.49-6.52-17-9.34,2.5-1.19c2.34-1.11,8.8-4.43,10.57-6.37,1.45-1.58,2.49-2.75,3.92-4.37l3.34-3.75a6.63,6.63,0,0,1,2-1.78c.59-.74,2.16-2.84,5-6.68l8.71-11.68a113.27,113.27,0,0,0,6.7-16.16l.07-.23L56.17,71.21c.12-.17,14.28-19.85,17.81-28L78,34h6.87l2.87,8.61,17.09,4.88c4.79.11,19.64.66,22.54,3.11a29.2,29.2,0,0,1,3.84,4l.28-.51,2.55-.76,3.91-2.17,4-.84A16.41,16.41,0,0,1,150.15,48,60.62,60.62,0,0,1,161.86,49l10-.63c.8-.13,4-.65,4.87-.65s8.28,1.08,9.84,1.86c.84.42,5.22,1.81,7.93,2.63H203l5.18.47a2,2,0,0,1,1.07,0v0l.56.15.72.19,5.33,1.44c6.75,1.83,8.79,2,9.31,2l.08,0a21.35,21.35,0,0,0,4.16-2.17c.2-.15.3-.49.48-1.3a11.29,11.29,0,0,1,4.39-7,33.46,33.46,0,0,1,10.11-5.82l.55-.17.52.26s2.14,1,8.16,2a11.42,11.42,0,0,0,9.11-2l.42-.36h.56c.32,0,7.79.24,12.45,2l.45.17,4.61,7.43a39.93,39.93,0,0,0,6.85,2.65c9.9,3.16,19.94,5.73,20,5.76l.12,0,4.6,1.6L319,58.6l.43.26c.41.25,10.15,6,13.16,8.2,1.77,1.27,7.62,5.73,8.49,10.08a70,70,0,0,0,2.51,8.13l.08.32c.06.49,1.51,12.1,1.51,14.31s-1.65,4.14-2.44,5l-1,7,1.69,7.07.23,4.78-3.57,9.86,4,11.83,0,.32c0,.07-.86,6.89-1.28,13.19-.44,6.58-6.07,20.41-6.31,21l-.12.3L330,185.83l-4,5.82a59.12,59.12,0,0,1-2.8,9.81c-1.76,4.5-.79,10.1-.78,10.15l.14.8-6.41,5.39-13.7,7.71-9.6,5.81-7.27-1L281.52,221l-1.79.56-2,4.94-.43,8.85L273.77,242l-5.57,18.19-4.12,9.94-4.32-1.2L246.17,281l-2-.23-3.07,2-2.94,6.93-3.38,3.38.27,3.81-6.56.26L224,299c-.88,1.74-4,8.16-4.54,12.13l-.09.67Zm-4.28-19.62,2.38,1.26.33,6.23a49.32,49.32,0,0,0,1.66,8.76l4.2-2.55c.92-5.12,4.8-12.52,5-12.85l.24-.45,5.84-2.44,4.15-.17-.16-2.18,3.9-3.9,3.06-7.2,4.64-3.09,1.81.2L259,265.74l3.39.94,3.13-7.56,5.65-18.38,3.28-6.14.42-8.7,2.7-6.62,5.49-1.72,4.48,10.14,4.72.67,8.77-5.3,13.62-7.66,4.86-4.12a23.84,23.84,0,0,1,1.05-10.86,56.87,56.87,0,0,0,2.71-9.57l.05-.31,4.68-6.71,6-5.35c.83-2.06,5.61-14.19,6-19.81s1.08-11.59,1.25-13l-4.12-12.15,3.71-10.26-.19-4.08-1.74-7.2,1.18-8.48.38-.35c.49-.45,1.89-2,1.89-3.23,0-1.66-1-10.36-1.47-13.79a69.46,69.46,0,0,1-2.57-8.41c-.5-2.48-4.05-6-7.36-8.33-2.57-1.83-10.58-6.65-12.53-7.81l-5.84.83-5.19-1.81c-.85-.22-10.56-2.73-20.15-5.79-8.46-2.7-9.2-3.9-9.27-5.1,0-.05,0-.1,0-.15l-3.23-5.21a44.77,44.77,0,0,0-10.58-1.65,14.57,14.57,0,0,1-11,2.32,44.37,44.37,0,0,1-8.37-2,32.23,32.23,0,0,0-8.69,5.14,8.57,8.57,0,0,0-3.43,5.45,4.5,4.5,0,0,1-1.54,2.94,23,23,0,0,1-4.6,2.45c-.58.42-1.76.82-11.39-1.79l-5.41-1.46-6.92-.63H194.1l-.2-.06c-.73-.22-7.22-2.2-8.57-2.87a56.26,56.26,0,0,0-8.58-1.56c-.46,0-2.64.32-4.47.62l-.14,0-10.46.65-.18,0a59.71,59.71,0,0,0-11.23-1,13.3,13.3,0,0,0-6.9,2.06l-.26.2-4.17.88L135,56.08l-1.59.48L131.48,60l-1.29-1.93a29.36,29.36,0,0,0-4.66-5.27c-1.48-1.25-12-2.25-21-2.45l-.36-.05L85.52,45l-2.7-8.09h-3l-3.27,7.5C72.92,52.76,59,72.07,58.44,72.89L48.51,86a113.83,113.83,0,0,1-6.87,16.48l-.12.19-8.78,11.77c-5,6.67-5.66,7.59-6.28,7.73-.17.16-.44.45-.87.93l-3.33,3.74c-1.45,1.63-2.5,2.81-4,4.4-1.72,1.88-6.16,4.33-9,5.8l12.18,6.69,13.17,6.88,2.7,4.5,4.78-.84,1.65,2.35,1.44,4.71,2.33,1,1.53,3.41,8.21-3.29,3.46-.47,10.87,3.46.21.72h0s.81,1.74,5.1,1.42l5.55-.42,4.61-1.46,12-32,11.93-27.94,9.58,15.12,4.33,7.9,3.37,36.56,10.78,4.52,6.07,2.7,5.47-.82,18.08,1.66,2.45,4.75,3.5,2.08,2.93,1.53,10.2,5.61,4.31,6.83,5.94,8,1.28.79h4.87v5.86l1.86,2.91,11.86,6.46c.49.38,4.75,3.77,4.26,7.6-.25,2-1.65,3.54-4.15,4.7l-3.87,6.15c-1.57,3.09-2.74,6.49-2.5,7.3a11,11,0,0,1,.63,2.86c.35,2.52.75,4.61,2,4.71a57.5,57.5,0,0,1,8.23,1.47l.39.1.28.29c.73.75,4.29,4.68,3,7.8-1,2.38-.64,6.6.11,7a3.2,3.2,0,0,1,2,2.64,4.59,4.59,0,0,1-1.73,4c-.77.57-8.72,8.11-13.55,12.72l-4.84,5ZM25,121.7l0,0Z"/></svg>