<svg id="Layer_1" data-name="Layer 1" xmlns="http://www.w3.org/2000/svg" viewBox="0 0 350 350"><defs><style>.cls-1{fill:#999;}.cls-2{fill:#f90;}</style></defs><title>M</title><path class="cls-1" d="M143.52,341.77c5.84-3.8,12.71-10.27,16.35-17.51a1.75,1.75,0,0,1-.17-.23h0a5,5,0,0,1,.5-.39c.23-.48.43-1,.63-1.47a2.45,2.45,0,0,0-.5-.3c-2.83-1.34-.47-2.74-.07-3.57a1.85,1.85,0,0,1,2-1,17.34,17.34,0,0,0,.17-4,4.78,4.78,0,0,1-.52-.55c-.91-1.15-.63-3.22-.87-4.77a17.06,17.06,0,0,0-1.09-2c-1.47-2.32,1.66-4.11,3.48-2.69,1.21.95.94,1.42,1.75,2.41a4.13,4.13,0,0,1,.28,1.25v0c.24.58.45,1.16.63,1.74a5.73,5.73,0,0,0,1.88-1.53,15.66,15.66,0,0,1,1.24-2.77c-.21-1-.37-1.93-.59-2.89a24,24,0,0,0-4.11-8.84c-.75-1-2-2.49-1-3.22a4.59,4.59,0,0,1-.4-1.49c-.13-2.47,3.21-5.51,4.7-7.37a30.62,30.62,0,0,1,5.81-7.74c.36-2.36-1.78-4.31-3-6.27-2.94-4.94-6.09-9.74-8-15.19-.37-.3-.73-.61-1.09-.95-1.3-1.22-.38-4,1.57-3.78,4.36.54,6.58-3.24,8.18-6.67a2.24,2.24,0,0,1,3.48-.45c4.52,4.17,9.37,5.58,12.28,0a57.67,57.67,0,0,0-6.37-8.83,2.29,2.29,0,0,1,2.13-3.76s.06-.06.11-.09l-.16-.9a2.25,2.25,0,0,1,3.26-2.5c3.63,1.84,4.45.81,6.87,4.14,2.11,2.89,3.91,6,5.78,9q1.58-.29,3.1-.7l9.42-4c3.52-3.65,7.28-7.07,10.61-10.91a150.06,150.06,0,0,1,13.48-14.26,2.21,2.21,0,0,1,1.16-.56c3.35-3.5,7.28-6.63,10.67-9.71a2.35,2.35,0,0,1,.22-.23l.58-.49.08-.07.08-.06,8.78-7.45c2.26-1.92,4.56-4.69,7.77-4.58a2.26,2.26,0,0,1,2.22,2.22,33.13,33.13,0,0,1-1.76,9.31c.5,1.68,1.62,3.3,2,5,6.18.74,7.33-6.43,12.3-7.44,2-.4,2.86.89,4.47.71s2.5-1.07,4-1.49c3.78-1.09,7.17-.13,10.87.91l1.82.48a57.9,57.9,0,0,1,9.95,1.37,45.16,45.16,0,0,1,5.32,1.84c1,.14,2,.3,3,.41a2.23,2.23,0,0,1,1.48.78c0-.1,0-.2,0-.3l.42.17c.81-4-1.82-6.42-4.26-8.85-2.17-2.17-2.52-4.79-2.76-7.69-.87-10.38,1.94-20.53,1.76-30.85a8.23,8.23,0,0,1,0-5.35c0-2.26-.66-4.58.66-6.7.25-1.69.46-3.42,2.73-3.56,1.71-.81,3.4-1.74,5.38-.84l3.33-1.35,1-2.2c.22-3.52-2.84-6-3-9.36-.62-1.76-1.24-3.52-1.84-5.29a3,3,0,0,1-.2-.92c-.07-9.38-5.13-16-12-21.57-5.14-4.19-9-9.25-9.38-16.15-.63-10.59-12.86-18.87-22-20.27-10.16-1.56-14.24-5-15.23-15.22a23.71,23.71,0,0,0-1-5.53c-2.91-8.28-5.54-16.59-5.44-25.5,0-2-1.34-2.7-2.93-3.12C250.17,5.77,244.9,4.9,240,8.9c-2.65,2.16-5.65,4.35-9.28,4.08-10.31-.75-18.1,3.68-24.67,11.13-2.54,2.88-5.49,5.16-9.83,3.91-1.49-.43-2.63.64-3.79,1.47a80.92,80.92,0,0,0-15.65,14.13c-.88,1.07-1.9,2.45-3.09,2.77-4.61,1.23-6.62,4-5.43,8.59,1.11,4.24-3.87,7.36-1.8,11.63.14.28.29.56.43.84,6.73,13.09,1.21,13.34-8.75,14-3.82.26-7.06.85-9.49,4a4.86,4.86,0,0,1-2.38,1.38c-4.89,1.5-5.72,4.75-5,9.47a59.82,59.82,0,0,1,.54,13.59c-.43,6.21-3.13,7.45-7.93,3.66a82.08,82.08,0,0,0-19.66-11.71c-4.07-1.68-6.3-.94-7,3.3-1.17,7.17-6,11.47-11.52,15.26-3.09,2.12-6.31,4-9.46,6.08-2.85,1.85-4.27,4.23-3.75,7.87,1,6.77-1.89,12.25-6.67,16.78-3.52,3.34-7.2,6.52-10.85,9.73-1.43,1.26-3.3,2.57-2.25,4.66,3.34,6.66.8,12.74-1.28,19-1.66,5-2,9.72,3.18,13.39,3.22,2.28,3.82,5.57,1.36,9.06A15.53,15.53,0,0,0,63.6,214c-.3,2.21-.79,4.45-2.66,5.85A41.82,41.82,0,0,0,49.44,234c-1.78,3.29-4,3.8-7.34,2.58-5.14-1.88-10.4-3.43-15.58-5.18-1.37-.46-2.8-1.15-3.85.2-.91,1.17,0,2.37.65,3.45a10.8,10.8,0,0,1,1.24,2c2,5.81,4.72,12.38.14,17.34-3.65,4-3.5,7.4-3.06,11.83.85,8.4,2.09,16.75,2.94,25.11.57,5.61,3.73,9.83,5.39,14.77.71,2.11,4.71,1.78,7.33,1.86,4,.12,8.07-.19,12,1a2.84,2.84,0,0,0,3.08-.51c1.79-1.9,4.19-1.31,6.17-1,5.47.74,9.91,4.06,14.73,6.46,2.1,1-.63,3.25,1.77,4.2,5.78,2.3,11,5.64,17.19,7.31,7.47,2,15.1,3.89,21.74,8.24,1-1.27,2.08-1.44,3.31-.36,4.47,1.84,8,5.91,13.3,5.81l-.1.08c3.38-2.39,6.28,2,9.59.69.21.71.83,1.79.57,2.08-2.58,2.91.68,2,1.46,2a3.29,3.29,0,0,0,.33,0A2.31,2.31,0,0,1,143.52,341.77ZM50.06,305.62c.85-.62,1.69-.36,2.87.06C51.62,306.1,50.81,306.39,50.06,305.62Z"/><path class="cls-2" d="M140.69,345.41a2.25,2.25,0,0,1-2.19-1.07c-.55-1.06.1-2.18.68-2.92a8.59,8.59,0,0,1-4-.93c-1.74-.73-2.7-1.07-3.84-.27l-.71-.92,0,1.1c-3.9.07-6.81-1.77-9.64-3.56a27.93,27.93,0,0,0-4.23-2.35l-.22-.09-.18-.16c-.32-.28-.54-.37-.65-.36s-.32.15-.61.52l-.8,1-1.1-.72c-6-3.92-13-5.81-19.79-7.64l-1.55-.42a63.77,63.77,0,0,1-11-4.48c-2.06-1-4.2-2-6.35-2.88a3,3,0,0,1-1.87-3.67,4.2,4.2,0,0,0,.06-.55l-.07,0c-1.29-.65-2.56-1.36-3.79-2-3.46-1.94-6.72-3.77-10.49-4.28l-.6-.09c-2-.3-3.31-.4-4.34.7s-2.6,1.46-4.51.9a31.92,31.92,0,0,0-8.89-.87c-.93,0-1.86,0-2.78,0l-1.18,0c-2.9,0-6.52,0-7.45-2.8a47.3,47.3,0,0,0-2.13-5c-1.45-3.07-2.94-6.24-3.33-10.07-.42-4.14-.95-8.36-1.46-12.44s-1.05-8.43-1.48-12.67c-.49-4.87-.53-8.65,3.42-12.94,3.73-4,1.8-9.54-.07-14.86l-.37-1.05a4.44,4.44,0,0,0-.6-1c-.17-.24-.35-.48-.5-.73l-.14-.22c-.66-1-1.89-3-.43-4.85,1.58-2,3.75-1.27,5.05-.81L27,230c2,.68,4,1.33,6,2,3.15,1,6.41,2.06,9.58,3.22,2.89,1.05,4.25.58,5.6-1.93,3.48-6.43,7.26-11,11.9-14.53,1.33-1,1.79-2.61,2.1-4.91a16.88,16.88,0,0,1,2.64-7.68c2-2.78,1.6-5.23-1-7.09-6.24-4.41-5.25-10.33-3.7-15l.5-1.47c1.89-5.57,3.67-10.83.86-16.44-1.45-2.88.84-4.85,2.2-6L66,158.1c2.93-2.58,6-5.24,8.84-8,5-4.75,7.06-9.84,6.25-15.56-.56-4,.87-7,4.39-9.26,1.17-.75,2.34-1.49,3.52-2.23,2-1.23,4-2.5,5.91-3.83,5.8-4,9.88-7.93,10.92-14.32.39-2.41,1.27-4,2.7-4.76,2-1.13,4.53-.32,6.23.38a83.29,83.29,0,0,1,20,11.91c2.62,2.07,3.75,1.92,4.12,1.75s1.28-.93,1.52-4.4a58.09,58.09,0,0,0-.53-13.27c-.66-4.09-.59-9,5.94-11a3.33,3.33,0,0,0,1.67-.88c2.89-3.78,6.78-4.34,10.52-4.59l.27,0c4.92-.33,8.8-.59,9.8-2.37.85-1.5,0-4.72-2.48-9.57l-.15-.29c-.1-.19-.2-.38-.29-.57-1.4-2.89-.23-5.4.71-7.42.74-1.6,1.39-3,1-4.47-1.35-5.18.94-8.85,6.44-10.31.63-.17,1.47-1.21,2.09-2l.27-.34a81.67,81.67,0,0,1,15.92-14.38L192,28c1.11-.82,2.62-2,4.61-1.38,3.5,1,5.88-.66,8.38-3.48,7.53-8.52,16-12.32,25.84-11.61,3.09.22,5.79-1.74,8.28-3.77,5.5-4.48,11.32-3.44,16.82-2,1,.26,4,1.06,4,4.51-.09,8.72,2.48,16.81,5.36,25a23.27,23.27,0,0,1,1,5.53l0,.33c.89,9.19,4.17,12.45,14,14a32,32,0,0,1,14.87,7c5.05,4.22,8,9.4,8.31,14.59.34,5.67,3.16,10.48,8.87,15.13,5.34,4.35,12.45,11.43,12.53,22.66a1.83,1.83,0,0,0,.12.47q.67,2,1.36,3.92l.54,1.55v.2a9.75,9.75,0,0,0,1.37,3.76,10.86,10.86,0,0,1,1.68,5.77l0,.27-1.36,2.95-4.42,1.79-.55-.25c-1.19-.54-2.24-.1-3.85.67l-.59.28-.27,0c-.94.06-1.12.35-1.4,2.25l-.06.4-.15.25c-.75,1.21-.65,2.58-.53,4.17,0,.6.09,1.19.09,1.79V145l-.07.21a6.82,6.82,0,0,0,0,4.45l.07.21v.23a108.09,108.09,0,0,1-1,14c-.62,5.5-1.27,11.18-.8,16.77.24,2.85.55,5,2.35,6.8l.3.3c2.47,2.46,5.27,5.24,4.35,9.83l-.24,1.17.29,3-2.91-3.36a.82.82,0,0,0-.57-.3c-.77-.08-1.53-.19-2.29-.31l-1.11-.2a43.94,43.94,0,0,0-5.15-1.78,53,53,0,0,0-9-1.27l-.91-.1-.73-.19-1.1-.29c-3.65-1-6.73-1.89-10.09-.91a8.31,8.31,0,0,0-1.39.59,8,8,0,0,1-2.81.95,5.18,5.18,0,0,1-2.57-.45,2.83,2.83,0,0,0-1.77-.28c-1.7.35-3,1.74-4.27,3.22-1.9,2.12-4.26,4.75-8.48,4.24l-1-.12-.22-1a12.22,12.22,0,0,0-1-2.45,17.17,17.17,0,0,1-1-2.48l-.12-.41.12-.41a31.86,31.86,0,0,0,1.7-8.91.85.85,0,0,0-.85-.79c-2-.09-3.74,1.47-5.52,3.1-.43.39-.85.78-1.28,1.14l-9.71,8.27c-1.11,1-2.28,2-3.47,3.06-2.42,2.1-4.92,4.27-7.13,6.59l-.33.35-.48.07a.8.8,0,0,0-.43.21,145.22,145.22,0,0,0-13.09,13.84l-.26.3c-2.2,2.54-4.61,4.92-6.93,7.22-1.25,1.24-2.5,2.48-3.73,3.75l-.2.21-9.87,4.15c-1.07.29-2.15.53-3.22.72l-.95.17-1.58-2.56c-1.47-2.39-3-4.86-4.65-7.16a5.06,5.06,0,0,0-3.27-2.46,19.58,19.58,0,0,1-3.09-1.25.82.82,0,0,0-.92,0,.91.91,0,0,0-.31.93l.34,1.92-.77.43-.14.1-.53.34-.61-.16a.86.86,0,0,0-.81.47.73.73,0,0,0,.09,1,59.75,59.75,0,0,1,6.53,9l.42.69-.38.71c-1.31,2.49-3.07,3.94-5.23,4.31-2.74.47-5.94-.9-9.26-4a1.11,1.11,0,0,0-.89-.23.41.41,0,0,0-.34.24c-1.24,2.66-3.83,8.2-9.64,7.47-.07,0-.28,0-.47.36a.93.93,0,0,0,0,1c.33.31.67.6,1,.88l.31.25.13.37a70.13,70.13,0,0,0,6.54,12.67l1.37,2.27c.27.46.61.93,1,1.43,1.18,1.62,2.51,3.45,2.16,5.78l-.07.47-.35.33a29.18,29.18,0,0,0-5.55,7.38l-.15.22c-.33.41-.74.87-1.19,1.38-1.3,1.46-3.27,3.67-3.2,5a3.24,3.24,0,0,0,.29,1l.44,1.05-.64.45a10.12,10.12,0,0,0,.75,1.12l.24.33a25.47,25.47,0,0,1,4.34,9.36c.11.51.21,1,.31,1.54s.17.9.27,1.35l.11.52-.25.47a14.33,14.33,0,0,0-1.15,2.55l-.1.29-.21.22a6.52,6.52,0,0,1-2.49,1.91l-1.36.43-.42-1.36c-.18-.57-.37-1.1-.58-1.62l-.14-.35,0-.25a2.7,2.7,0,0,0-.11-.54,6.08,6.08,0,0,1-.63-1.07,2,2,0,0,0-.74-.91,1.15,1.15,0,0,0-1.4.07c-.15.14-.28.31,0,.74a18.49,18.49,0,0,1,1.18,2.21l.08.18,0,.19a15.68,15.68,0,0,1,.15,1.71,5.21,5.21,0,0,0,.44,2.41,3.4,3.4,0,0,0,.37.39l.41.38,0,.55a18.85,18.85,0,0,1-.19,4.37l-.21,1.34-1.35-.15c-.39,0-.48.15-.52.23a4.35,4.35,0,0,1-.68.94c-.11.12-.27.31-.38.47a3.08,3.08,0,0,0,.47.26,3.86,3.86,0,0,1,.78.48l.82.66-.39,1c-.21.52-.42,1-.66,1.54l-.34.66c-3.9,7.77-11.26,14.43-16.84,18.06a.92.92,0,0,0-.39.81l.07,1.36-1.36.12a2.16,2.16,0,0,1-.48,0l-.36,0A9.41,9.41,0,0,1,140.69,345.41Zm.34-7.56.45,1.51c.05.19.15.4.23.61a7,7,0,0,1,.39,1.14,3.68,3.68,0,0,1,.64-.53h0c5.09-3.31,11.72-9.25,15.46-16.19l-.39-.52.91-.88.28-.24a2.93,2.93,0,0,1-1.42-1.86,3.41,3.41,0,0,1,1.12-2.9,3.19,3.19,0,0,0,.28-.34,3.14,3.14,0,0,1,1.95-1.67,15.62,15.62,0,0,0,.06-2.13l-.25-.29a6.83,6.83,0,0,1-1.05-4c0-.44,0-.85-.09-1.21a15.39,15.39,0,0,0-.92-1.69,3.28,3.28,0,0,1,.5-4.36,4,4,0,0,1,5.05-.2,4.76,4.76,0,0,1,1.54,1.91,3.14,3.14,0,0,0,.44.72l.14.17.08.21a5.55,5.55,0,0,1,.3,1.05,15.79,15.79,0,0,1,.91-2c-.06-.3-.12-.6-.18-.91-.09-.49-.19-1-.3-1.45a22.66,22.66,0,0,0-3.87-8.32l-.22-.3c-.7-.95-1.58-2.13-1.38-3.4a2.24,2.24,0,0,1,.19-.61,4.89,4.89,0,0,1-.22-1.17c-.13-2.53,2.11-5.05,3.92-7.07.38-.42.73-.81,1-1.16a31.93,31.93,0,0,1,5.62-7.58,7,7,0,0,0-1.67-3.27c-.38-.53-.78-1.08-1.12-1.65L168.09,265a75.21,75.21,0,0,1-6.66-12.82c-.29-.24-.57-.49-.85-.76a3.71,3.71,0,0,1-.67-4.26,3.25,3.25,0,0,1,3.38-2c3.12.39,4.95-2.06,6.72-5.86a3.26,3.26,0,0,1,2.36-1.82,3.91,3.91,0,0,1,3.36.93c2.61,2.41,5.06,3.56,6.86,3.25a4.3,4.3,0,0,0,2.81-2.15,53.44,53.44,0,0,0-5.77-7.9,3.57,3.57,0,0,1-.42-4.35,3.86,3.86,0,0,1,2.08-1.67,3.65,3.65,0,0,1,5.36-3.45,16.91,16.91,0,0,0,2.69,1.08A7.78,7.78,0,0,1,194,226.7c1.74,2.39,3.28,4.91,4.78,7.35l.55.9c.65-.14,1.3-.29,1.95-.46l9.06-3.82c1.17-1.21,2.37-2.4,3.57-3.58,2.29-2.26,4.65-4.6,6.78-7.06l.26-.3a147.48,147.48,0,0,1,13.34-14.09,3.65,3.65,0,0,1,1.37-.79c2.23-2.29,4.67-4.41,7-6.46,1.15-1,2.29-2,3.37-3a3.12,3.12,0,0,1,.31-.31l.79-.67h0l8.76-7.43c.4-.34.79-.7,1.2-1.07,2-1.86,4.35-3.94,7.54-3.84a3.66,3.66,0,0,1,3.58,3.64,33.24,33.24,0,0,1-1.69,9.29c.19.54.46,1.1.73,1.68a21.4,21.4,0,0,1,.86,2c2.06-.07,3.34-1.37,5.13-3.36,1.5-1.67,3.2-3.57,5.82-4.1a5.58,5.58,0,0,1,3.35.41,2.6,2.6,0,0,0,1.25.28,5.37,5.37,0,0,0,1.86-.67,10.79,10.79,0,0,1,1.86-.78c4.14-1.2,7.74-.19,11.56.88l1.14.3.62.16.53,0a55.1,55.1,0,0,1,9.53,1.36,45.62,45.62,0,0,1,5.33,1.83l.62.09c.62.09,1.25.18,1.87.26l0-.26.76.3c-.27-2.13-1.86-3.71-3.65-5.49l-.3-.3c-2.47-2.47-2.9-5.34-3.17-8.57-.49-5.87.17-11.7.81-17.33a107.77,107.77,0,0,0,1-13.4,9.65,9.65,0,0,1,0-5.79c0-.46,0-.92-.08-1.38a9.46,9.46,0,0,1,.79-5.6c.25-1.62.72-4.13,3.72-4.47l.11-.05c1.55-.74,3.45-1.64,5.64-.93l2.29-.93.66-1.43a8.86,8.86,0,0,0-1.37-4,12.4,12.4,0,0,1-1.66-4.69l-.41-1.18c-.46-1.31-.92-2.62-1.37-3.94a4.27,4.27,0,0,1-.27-1.37c-.05-7.74-3.6-14.05-11.48-20.48-6.37-5.19-9.51-10.64-9.9-17.16s-8.5-17.07-20.78-19c-11.11-1.7-15.41-6-16.42-16.49l0-.34a21.19,21.19,0,0,0-.85-4.87c-3-8.45-5.62-16.8-5.52-26,0-.73-.12-1.27-1.87-1.74-5-1.32-9.84-2.21-14.3,1.44-2.8,2.29-6.14,4.69-10.28,4.4-9-.65-16.51,2.73-23.51,10.66-2.49,2.82-6,5.86-11.29,4.33-.57-.17-1.11.17-2.13.93l-.45.33a79,79,0,0,0-15.38,13.87l-.26.32c-.91,1.12-2,2.51-3.56,2.92-4,1.07-5.38,3.19-4.42,6.86.64,2.47-.32,4.55-1.17,6.38-1,2.06-1.5,3.4-.73,5l.25.49.17.32c3.12,6.08,3.85,9.74,2.43,12.26-1.75,3.1-6.08,3.4-12.08,3.8l-.27,0c-4,.27-6.49.9-8.46,3.49a6,6,0,0,1-3.09,1.87c-3.69,1.13-4.73,3.2-4,7.88a60.92,60.92,0,0,1,.56,13.92c-.26,3.73-1.3,6-3.2,6.79s-4.17.13-7-2.12a80.51,80.51,0,0,0-19.32-11.52c-1.8-.74-3.06-.92-3.77-.52s-1,1.26-1.28,2.74c-1.27,7.81-6.57,12.4-12.12,16.2-2,1.35-4,2.64-6,3.89-1.17.73-2.33,1.47-3.49,2.21-2.59,1.68-3.53,3.62-3.12,6.48.94,6.6-1.45,12.66-7.1,18-2.91,2.76-6,5.44-8.92,8l-2.38,2.09c-1.62,1.4-1.89,1.86-1.52,2.6,3.34,6.67,1.28,12.74-.71,18.62L62.8,185c-1.6,4.81-1.76,8.66,2.65,11.78,3.9,2.76,4.55,7,1.7,11A14.32,14.32,0,0,0,65,214.24c-.34,2.54-1,5.12-3.21,6.79-4.3,3.22-7.83,7.54-11.11,13.6-2,3.73-4.9,4.76-9.07,3.24-3.12-1.14-6.35-2.18-9.48-3.18-2-.65-4.06-1.3-6.07-2l-.41-.14c-1.47-.52-1.63-.44-1.87-.13s-.11.49.59,1.59l.15.23c.12.19.26.38.39.57a6.62,6.62,0,0,1,1,1.71l.36,1c1.94,5.54,4.36,12.43-.52,17.72-3.17,3.44-3.13,6.35-2.69,10.73.42,4.2,1,8.47,1.47,12.6s1,8.33,1.46,12.51c.34,3.35,1.67,6.17,3.07,9.15a50.22,50.22,0,0,1,2.25,5.31c.28.84,3.32.87,4.78.88l1.25,0c.9,0,1.81,0,2.72,0a34.58,34.58,0,0,1,9.67,1c.93.27,1.31.16,1.54,0a2.79,2.79,0,0,1-2.23-.9l-1.14-1.17,1.32-1c1.48-1.08,3-.56,4.17-.14l4,1.39.83.12.57.08c4.3.58,8,2.63,11.5,4.62,1.2.67,2.44,1.37,3.67,2a3,3,0,0,1,1.55,3.54,4.45,4.45,0,0,0-.06.53l.17.08c2.24.89,4.42,1.94,6.53,3a61.61,61.61,0,0,0,10.51,4.29l1.54.42c6.64,1.79,13.5,3.63,19.63,7.39a3.23,3.23,0,0,1,1.65-.67,3.55,3.55,0,0,1,2.6.89,31.74,31.74,0,0,1,4.46,2.49c2.49,1.57,4.84,3.06,7.72,3.12,2.27-1.26,4.42-.36,6,.31,1.44.6,2.37,1,3.3.57ZM248.88,196.71h0Z"/></svg>