<svg id="Layer_1" data-name="Layer 1" xmlns="http://www.w3.org/2000/svg" viewBox="0 0 350 350"><defs><style>.cls-1{fill:#999;}.cls-2{fill:#f90;}</style></defs><title>M</title><path class="cls-1" d="M31.84,229.14s4.16-3.94,4.09-8.32-.37-11.74,2.38-13.59,6.39-12.78,5.05-16.79-1.26-6.83.67-9.73,5-4.31,5.87-8.32c0,0,3.34-3.71,5.2-3.79v-6.46s-5.65-3.12-9.66.37c0,0-20.2,3.94-22-5.65,0,0,2.82-9.06,11.59-12.78S67.42,150.18,70.68,155s9.14,4.38,10,3.27,3-3.27-1.63-7.13S73,141.79,74.4,138s7.5-13.82,12.26-17.9,11-8.39,9.66-13.44S92,100.71,92,100.71s-13.22-3-14.11-8.54c0,0,1-4.68,10.4,1,0,0,10.1,1.86,10.92-2.15s-17.68-3.49-17.68-3.49l4.38-6.39s2.45-3,8.17-2.3a8.24,8.24,0,0,0,8.17-4.31s-.07-4.31-3.49-5.35-6.83-6.39-5.94-9.73c0,0,3.45-18.2,8.8-23,0,0,.67-6.5-3.6-8.17,0,0-.74-1.75,3-2.08s6.13-.63,7.09-1.89c0,0,4,2,6,2.27s4-1.19,4.72-1.78,4,1.11,4,1.52-.89,5.53,1.41,6.17S127.58,29,130,27.92s4.64-1.37,5.16-3.45,0-3,0-3A12.43,12.43,0,0,0,142,19.41c3.16-2.23,9.8-4.31,13-8,0,0,.82-1.37,3.6-1.3s9.36,2.23,13.11-1.63a6.66,6.66,0,0,1,7.91-1.56s8.21,1.45,11,5.68,13.59,12.48,18,14.63,5.5,2.93,10.66,3,7.76,0,7.76,0a10,10,0,0,0,2.3-3.49s4.49-2.19,5.09.63c0,0-.3,1.49,1.63,1.78s18.57,2.6,23.25,1.93l1.86-.15s1.26,4.31,1,6.39,6.39,7.65,7.58,9.14-4.31,13.89-5.65,15.75,8.1,2,8.1,2,1.56,5.57.82,8.47c0,0,2.9,4.61,6.61,6.17s18.12,7.06,20.2,10.1S308.6,96.92,310,107c0,0,7.06,13.59,8.47,18.57s8.77,16.94,8,23.77-7.73,23.55-10,27-3.94,10-6.39,13.22-21.32,12.92-26.52,17.38-10.7,16.34-14.48,28S255.86,259.22,255,262.34s-3,9.66-10.47,10.55c0,0-.07,1.71.15,1.71s6.31,1.71,6.39,3-3.12,5.79-4.75,7.95-6.09,19.39-7.72,21.76-2.08,8.1-2.9,10.18-3.27,10.47-3.19,12.78l.3,3.86a50,50,0,0,1-8.25,1.11c-3.18,0-19.16,5.91-21.84,6.18s-8,.67-10.19-.67-8.3-6.24-13.26.28-11.75-.61-12.31-3.29,1.62-14.32-1.67-16.88-5.4-2.34-7.08-1.56c0,0-.89-13.65-10.58-13.87s-10,3.62-10,3.62-3.29,6.13-5.91-1.34-7.3-14.43-17.44-14.6c0,0-3.12,1.5-4.18,3s-.56-3.4-.95-5-1.28-2.28-6.52-.39-9.75-.67-11-5.07-3.21-7.74-2.4-10.19,5.13-2.3,5.65-6.83,1.41-5.27,3.94-4.61,10-2.6,10.47-6.54.15-6.76-1.56-8.69-4.61.82-6-4.09-2.3-11.36,1-12.26,9.8-.45,9.14-8.25,9.8-10.25,9.8-10.25-4.38-14.63-4.46-22.88-10-3.71-11.74-1.86-3.64,5.13-15.67,5.87c0,0-6.46,1.11-9.28,9.36s-7.65,12-7.65,12,1.56,7.95-.3,11.81-4.68,12.18-6.91,12.18-7.06-2-14.71-1-8.1,1-10.92-.59-5.2-3.27-6.83-6.31S31.84,229.14,31.84,229.14Z"/><path class="cls-2" d="M174.55,345.17A7.1,7.1,0,0,1,173,345c-3.79-.86-7-4.73-7.46-6.91a23.93,23.93,0,0,1,0-4.93c.18-3.43.53-9.81-1.15-11.12-2.83-2.2-4.36-2-5.6-1.39l-1.87.88-.14-2.07c0-.12-.93-12.36-9.2-12.55-6.54-.15-8.38,1.68-8.54,2.39l0,.4-.18.08c-.18.34-1.84,3.31-4.34,3.1s-3.77-3.54-4.15-4.64c-3.17-9-8.19-13.39-15.78-13.64a11.26,11.26,0,0,0-3.34,2.4,1.7,1.7,0,0,1-1.95.82c-1.3-.39-1.33-1.76-1.38-4a15,15,0,0,0-.15-2.23,1.15,1.15,0,0,0-.15-.41c-.06,0-.78-.34-4.51,1a10.24,10.24,0,0,1-8.25-.31,9.06,9.06,0,0,1-4.58-5.71c-.37-1.34-.81-2.56-1.24-3.75-1-2.75-1.85-5.13-1.13-7.27a5.81,5.81,0,0,1,2.81-2.93c1.36-.85,2.54-1.59,2.77-3.62.31-2.73.78-4.61,2.13-5.53a4.25,4.25,0,0,1,3.57-.28c.88.23,3.71-.47,6.1-2.1,1.54-1.05,2.49-2.23,2.6-3.22.44-3.87.07-6.14-1.21-7.59-.24-.28-.55-.32-1.36-.38-1.93-.13-3.9-.57-5-4.26-.92-3.19-2.2-9-.47-12.08a3.94,3.94,0,0,1,2.42-1.94c.61-.17,1.28-.28,2-.41,4.08-.71,6.52-1.5,6.1-6.35-.61-7.1,6.36-10.28,9.46-11.33-1.09-3.87-4.06-15-4.12-21.91,0-2.58-1.16-3-1.53-3.16-2.29-.88-6.77,1.19-7.74,2.25l-.38.42c-1.81,2.06-4.53,5.16-16.16,5.89-.64.14-5.74,1.44-8.12,8.41a29.41,29.41,0,0,1-7.46,12c.37,2.27,1.15,8.34-.56,11.88-.43.89-.93,2.06-1.45,3.3-2.55,6-4.28,9.68-6.74,9.68a16.47,16.47,0,0,1-3-.43,33.9,33.9,0,0,0-11.58-.62l-.21,0c-7.59,1-8.39,1.06-11.6-.8-2.71-1.57-5.5-3.39-7.37-6.87-1.75-3.25-1.77-4.26-1.2-5l.13-.15c.1-.09,3.71-3.61,3.64-7.27v-.72c-.1-5-.23-11.88,3-14.07,2.27-1.53,5.63-11.76,4.5-15.17-1.53-4.6-1.29-7.78.83-11a19.86,19.86,0,0,1,2.49-2.9c1.44-1.47,2.69-2.74,3.18-4.94l.08-.36.25-.28a17.21,17.21,0,0,1,4.84-3.91V163c-1.47-.6-4.86-1.6-7.31.53l-.29.25-.37.07c-.56.11-13.86,2.64-20.28-1.73A7.64,7.64,0,0,1,22,157.13l-.06-.35.1-.34c.12-.4,3.12-9.73,12.39-13.66,9.44-4,33.74,6,37.38,11.43a7.49,7.49,0,0,0,4.92,3.25,5.15,5.15,0,0,0,2.88-.14l.07-.08c.84-1,1.79-2.2-1.56-5-4.75-4-6.84-10-5.1-14.73,1.46-3.93,7.67-14.19,12.66-18.48.6-.52,1.23-1,1.86-1.57,4.07-3.39,8.28-6.9,7.35-10.44-1-3.88-3-4.82-3.34-4.94-1.79-.42-14.11-3.53-15.11-9.68l0-.26.05-.26a3.76,3.76,0,0,1,2.2-2.54c2.26-1,5.66-.17,10.09,2.44,3.51.6,8.52.58,9-1-1-1.22-8.46-2.09-16.23-1.87L78.78,89l6-8.78c.12-.15,3-3.56,9.43-2.81a6.72,6.72,0,0,0,6.56-3.23c-.1-.87-.53-3.08-2.46-3.67-4.2-1.28-7.92-7.43-6.91-11.4.24-1.23,3.5-17.84,8.8-23.31,0-1.36-.1-5.19-2.74-6.22l-.55-.22-.23-.55a2.47,2.47,0,0,1,.19-2.2c.63-1.06,1.94-1.66,4-1.84,2.42-.22,5.44-.48,6.09-1.34l.71-.93,1,.52a26.55,26.55,0,0,0,5.54,2.13c1.28.18,3-.92,3.59-1.44.78-.7,2-.64,3.8.17,2.23,1,2.53,1.75,2.53,2.41,0,.07,0,.25,0,.49-.44,4,.4,4.3.41,4.3.4.11,1.1-.8,1.72-1.61a8.48,8.48,0,0,1,3.1-2.86c.54-.24,1.07-.44,1.58-.63,1.81-.68,2.57-1,2.78-1.87a3.62,3.62,0,0,0,.11-2L132,19.71l3.21.36a11.12,11.12,0,0,0,6-1.82,36.51,36.51,0,0,1,4.68-2.56c2.9-1.43,6.18-3,8.07-5.15.37-.51,1.69-1.9,4.75-1.83a22.22,22.22,0,0,1,2.42.27c3,.44,7.2,1,9.64-1.47a8.11,8.11,0,0,1,9.4-1.93c1.41.28,8.86,1.93,11.71,6.26,2.64,4,13.22,12.08,17.42,14.14l1,.51c3.54,1.76,4.61,2.29,9,2.35,3.69.05,6.08,0,7.12,0A7.34,7.34,0,0,0,228,26.44l.16-.65.6-.29c.56-.27,3.43-1.57,5.44-.59a3,3,0,0,1,1.66,2.2l.08.38-.07.18s.13.06.46.11c3.86.59,18.78,2.51,22.83,1.93l3.09-.25.32,1.11c.14.47,1.34,4.67,1,7,.14,1,3.82,4.59,5.2,5.93a29.58,29.58,0,0,1,2.08,2.12c1.88,2.35-3.39,13.3-5.1,16.56a32.29,32.29,0,0,0,6.47.66l1.06,0,.29,1c.16.57,1.45,5.33,1,8.55.79,1.13,3,4.07,5.65,5.16l2,.83c10.06,4.08,17.11,7.3,18.8,9.78a24.92,24.92,0,0,0,1.9,2.25c2.9,3.22,7.27,8.07,8.48,16.16.94,1.82,7.11,13.85,8.46,18.62a54.42,54.42,0,0,0,2.67,6.38c2.65,5.75,5.94,12.91,5.4,17.93-.75,6.88-7.75,23.88-10.26,27.6a36.26,36.26,0,0,0-2.85,6,34.2,34.2,0,0,1-3.58,7.25c-1.38,1.84-6.15,4.75-13.85,9.33-5.19,3.09-10.56,6.28-12.88,8.28-4.42,3.79-9.81,14.27-14.06,27.37-2.49,7.67-7.23,15.51-10.69,21.24a45.69,45.69,0,0,0-3.41,6.13c-.67,2.35-2.58,9-9.29,11.07,2.26.7,5.31,2,5.41,3.76,0,.52.12,2.09-5,8.88-.68.9-2.44,6.53-3.72,10.63-1.89,6.06-3.1,9.82-4,11.08s-1.4,4-1.84,6.19a24.35,24.35,0,0,1-.91,3.71c-.83,2.11-3.16,10.25-3.1,12.21l.39,5-1.2.26a50.68,50.68,0,0,1-8.55,1.15c-1.59,0-8,2.05-12.65,3.55a73.79,73.79,0,0,1-9,2.62c-5.49.57-9.22.28-11.08-.87l-.66-.43c-3.38-2.21-7.27-4.18-10.73.36A7.16,7.16,0,0,1,174.55,345.17Zm-14.15-27.76a9.44,9.44,0,0,1,5.72,2.38c2.85,2.22,2.51,8.48,2.24,13.51a26.22,26.22,0,0,0-.05,4.2,8.56,8.56,0,0,0,5.31,4.72c1.7.39,3.17-.27,4.49-2,5.34-7,12-2.65,14.53-1l.6.38c1.25.77,4.73.94,9.31.47,1-.1,4.8-1.32,8.47-2.5,6.94-2.23,11.62-3.69,13.51-3.69a41.67,41.67,0,0,0,6.74-.84l-.2-2.61c-.09-2.69,2.48-11.35,3.29-13.4a23.9,23.9,0,0,0,.76-3.22c.51-2.58,1.09-5.51,2.28-7.24.68-1,2.3-6.16,3.59-10.31,2-6.33,3.24-10.27,4.17-11.5a37.05,37.05,0,0,0,4.39-6.78,22.06,22.06,0,0,0-5-1.94H244l-.46-.46c-.34-.35-.59-.78-.5-2.73l.05-1.2,1.2-.14c6-.71,8.12-5.47,9.28-9.53.37-1.29,1.7-3.49,3.71-6.81,3.39-5.61,8-13.29,10.42-20.65,1.68-5.16,7.7-22.46,14.91-28.64,2.51-2.15,8-5.41,13.28-8.56,5.57-3.31,11.88-7.07,13-8.6a32.57,32.57,0,0,0,3.23-6.62,38,38,0,0,1,3.12-6.54c2.07-3.07,9.06-19.57,9.79-26.32.46-4.24-2.65-11-5.15-16.44a55.41,55.41,0,0,1-2.82-6.79c-1.36-4.78-8.29-18.17-8.36-18.3l-.11-.22,0-.24c-1-7.38-5.11-11.9-7.81-14.89a26.52,26.52,0,0,1-2.13-2.55c-1.56-2.28-13.16-7-17.53-8.75l-2.06-.84c-4.08-1.71-7.13-6.51-7.26-6.72l-.32-.52.15-.59c.44-1.71-.12-4.85-.55-6.73-7.35-.25-8.08-1.72-8.34-2.22a1.92,1.92,0,0,1,.2-2c1.29-1.78,5.68-12,5.55-14.19-.34-.38-1-1-1.7-1.69-3.72-3.6-6.33-6.3-6-8.37a16.11,16.11,0,0,0-.63-4.68l-.68.05c-5.14.74-23.4-1.92-23.58-1.94a3.33,3.33,0,0,1-2.34-1.33,2.87,2.87,0,0,1-.51-1.72.16.16,0,0,0-.08-.09,4.22,4.22,0,0,0-2.43.37,12.55,12.55,0,0,1-2.44,3.44l-.4.4-.56,0c-.11,0-2.69.07-7.82,0s-6.57-.83-10.23-2.64l-1-.51c-4.66-2.29-15.58-10.63-18.53-15.13-2-3.05-7.94-4.69-10.06-5.07l-.23,0L179,8.17a5.18,5.18,0,0,0-6.21,1.31c-3.45,3.55-8.64,2.8-12.08,2.31a20.69,20.69,0,0,0-2.09-.24c-1.83-.05-2.36.64-2.39.67l-.11.15c-2.25,2.56-5.83,4.32-9,5.87a35,35,0,0,0-4.29,2.34,13.44,13.44,0,0,1-6.08,2.24,8.53,8.53,0,0,1-.27,2c-.59,2.35-2.68,3.14-4.53,3.83-.47.18-1,.36-1.44.57a6.48,6.48,0,0,0-2,2c-1,1.36-2.48,3.23-4.71,2.61-3-.81-2.71-5.07-2.52-7a7.82,7.82,0,0,0-1.86-.78c-.82.64-3.11,2.2-5.54,1.87a24.59,24.59,0,0,1-5.54-2c-1.47,1-3.84,1.31-7.22,1.61a6.75,6.75,0,0,0-1.12.18c3.58,2.71,3,8.53,3,8.8l-.06.54-.41.37c-4.09,3.67-7.42,17.27-8.36,22.2l0,.1c-.67,2.53,2.22,7.17,5,8,4.35,1.33,4.49,6.46,4.5,6.68v.34l-.15.31a9.62,9.62,0,0,1-9.61,5.09C89.4,79.67,87.33,81.66,87,82L84.24,86c5.06,0,13.61.41,15.75,3a2.64,2.64,0,0,1,.6,2.26c-1,5.11-10.65,3.62-12.56,3.27l-.25,0-.22-.13c-4.95-3-7-2.69-7.66-2.44a1.15,1.15,0,0,0-.53.39c1,3.17,8.36,6,12.95,7,.24.07,3.84,1.21,5.36,7,1.4,5.29-3.74,9.57-8.27,13.34-.62.52-1.24,1-1.83,1.54C83,125.11,77.07,134.9,75.73,138.49c-1.13,3,0,8,4.26,11.57,4.92,4.12,3.46,7.09,1.94,9l-.11.13c-1,1.27-3.4,1.28-4.11,1.25a10.36,10.36,0,0,1-8.2-4.61c-3-4.38-26-13.77-33.93-10.41-7.15,3-10.08,10-10.67,11.56a4.86,4.86,0,0,0,2.1,2.88c4.38,3,14,2,17.79,1.35,4.67-3.69,10.7-.43,11-.29l.73.4V170l-1.36.05c-.63,0-2.46,1.45-4,3.06A12.86,12.86,0,0,1,47.35,179a17.47,17.47,0,0,0-2.15,2.49c-1.62,2.43-1.76,4.73-.5,8.5,1.56,4.68-2.39,16.24-5.6,18.41-2,1.33-1.83,8.31-1.77,11.67v.73c.07,4-2.77,7.49-4,8.82a17.91,17.91,0,0,0,1.07,2.27c1.52,2.83,3.84,4.34,6.29,5.76s2.38,1.38,9.82.44l.21,0a36.41,36.41,0,0,1,12.48.66,17.52,17.52,0,0,0,2.31.37c1.1-.6,3.2-5.55,4.21-8,.54-1.27,1-2.47,1.51-3.43,1.35-2.81.59-8.84.18-10.92l-.17-.86.69-.54s4.54-3.6,7.17-11.29c3.06-8.94,10.09-10.25,10.38-10.3l.15,0c10.53-.65,12.8-3.23,14.3-4.94l.42-.47c1.48-1.61,7.12-4.41,10.85-3,1.51.58,3.32,2.06,3.35,5.78.07,7.95,4.35,22.34,4.4,22.48l.43,1.44-1.47.34c-.09,0-9.27,2.27-8.72,8.75.67,7.79-5,8.79-8.44,9.38-.64.11-1.25.22-1.74.35a1.09,1.09,0,0,0-.7.59c-.87,1.55-.59,5.34.72,9.9.6,2.08,1.21,2.13,2.43,2.21a4.36,4.36,0,0,1,3.28,1.33c2.36,2.66,2.29,6.44,1.91,9.79-.27,2.36-2.22,4.15-3.82,5.24-2.42,1.66-6.2,3.09-8.43,2.5-1-.26-1.21-.14-1.25-.12s-.59.68-.92,3.51c-.39,3.38-2.52,4.71-4.08,5.69-.91.57-1.47.94-1.63,1.43-.4,1.21.3,3.16,1.11,5.42.42,1.18.91,2.51,1.31,4a6.25,6.25,0,0,0,3.15,4,7.45,7.45,0,0,0,6,.16c3.59-1.3,5.5-1.53,6.82-.83a3.22,3.22,0,0,1,1.55,2.21,14.25,14.25,0,0,1,.23,2.76,20.26,20.26,0,0,1,2.91-1.74l.3-.15h.34c9,.15,15.13,5.23,18.75,15.54.78,2.21,1.49,2.74,1.69,2.76s1.06-.68,1.53-1.45c.31-1.26,2-4.74,11.35-4.54,7.78.18,10.95,8.07,11.77,13.43A6.21,6.21,0,0,1,160.39,317.41Zm-94.9-78.3Zm14.11-81.72h0ZM265.27,63v0Z"/></svg>