<svg id="Layer_1" data-name="Layer 1" xmlns="http://www.w3.org/2000/svg" viewBox="0 0 350 350"><defs><style>.cls-1{fill:#999;}.cls-2{fill:#f90;}</style></defs><title>M</title><path class="cls-1" d="M243.91,41.32s-3.49,1.32-8.18-.84c0,0-9,1-16.24-.9s-4.51-.36-8-1.5a72.5,72.5,0,0,1-10.58-4.87c-.48-.42-2.53-2.47-8.24-.06s-10.1,2.17-14.85,3.73-10,3.19-13.59,3.49-5.11,1.26-7.34,6.44a71.5,71.5,0,0,0-4.33,14.61S149,70,148.95,72.59s-4,7.64-4.21,12.57c0,0-2.83,7.94-4.39,11.19,0,0-4.75,6.31-5.41,8.18a8.5,8.5,0,0,0-5.23,1.68s-5.83-.18-8.3,1.2l-2.71-1.32-.12,4.51-2.71-1.38s0,4.51-3.73,6.13a7.22,7.22,0,0,1-2,4.09s-1.56,2.47-7,6.5c-.12.18-2.89,6.25-2.89,6.25l-1.44-.54-5.71,7.1a4,4,0,0,1-1.2,3.19L90,144.52,87.12,143l-3.85,4.57s-3.61-1.14-4.45-2.59c0,0-3.43,1.92-3.25,4.51,0,0-1.14,2.17-4.63,2-.24,0-3.85-.36-4.27,1.2,0,0-3.49,1-2.29,5.11v3.07l-3.61-2.53-1.92,2.65s5.59,3.37,3.49,7.82a48.85,48.85,0,0,1-12,6.8l.48,1.14a17.36,17.36,0,0,1-6.13,1.32A8.27,8.27,0,0,0,49.78,182a9.92,9.92,0,0,0,4.39.15s-.54,1.35-3,2-4,.72-3.91,2.14-3.79,4.51-5.05,5.5c0,0-3.58,6.1-4.09,6.25,0,0,7.7,1.38,10.28,3.79,0,0,1.71,1.53-2,.81,0,0,.57,1.11-2.17,3,0,0,0,3.94,1,5.2,0,0,.45,4-.75,4.09,0,0,0,1.14-1.89.66L42.23,219s1.77,1.26.09,2.35c0,0-1.14,2.14-2.95,2.32l.15,2.8S43,228.15,43,229c0,0-2.32,2.26-2.59,3.64l-2.8.78-2-2.07a6.09,6.09,0,0,1-3.49,2.77,4.39,4.39,0,0,0-2.1,2.44,24.72,24.72,0,0,1-6.74,3.22,8.23,8.23,0,0,0-4.93,4.09,15.59,15.59,0,0,1-3.67,1.26s-.8,5.37-1,6.33-1.2.24-1.2.24S9,254.3,8.56,254.06s1.84,2.73,1,4.41a6.58,6.58,0,0,1-2.81,2.41s2,2.57,1.76,2.81c0,0-1.36,1.52-.56,4.65a5.31,5.31,0,0,0,0,2.33s-1.68,1.84-1.12,3.13c0,0-1.68,3.53-1.36,4.33,0,0,1.28,2.73,3,3.13l-2.17,3.61s9.86,1.12,14.19-1.2c0,0,5.61,5.13,6.5,5.13,0,0,3,2.08,12.27-.16,0,0,3-1.44,3.29.68,0,0-.72,1.4,1.68.64,0,0,2.77.84,6.78-1.2,0,0,5.69,3.09,7.9,2.21,0,0,.4,3,11.75,3.89s12.67-.68,12.67-.68l7.34-1.88s10.5,4,14.63,2.37,15.16-3.17,17.4-5.33a6.3,6.3,0,0,1,4.09,1.64c1.44,1.6,15,13.15,15,13.15L156.67,318l68.4-1.12s5.05-2.37,7-2.45,7.42-8.38,7.42-8.38a16.54,16.54,0,0,1-.8-2.57c0-.48-2-1.8-2.08-1.92s-1.44.56-2.08-.32-6-11.91-6.74-13l-.32-.72s4.89.72,6-.4,7.78-3.61,8.9-3.37a16,16,0,0,0,6.17-1.52s4.25,1.52,17-3.85c0,0,7.54-1.92,10.58-2.73,0,0,9.78-5.13,10.26-5.85s9.78.48,13.87-.88c0,0,6-.48,6.42.08s8.18-8.26,11.47-7.94l3.45-1.92h6.33l16.6-6.66s-7.06-12.83-5.29-19.08S342.46,215,342.14,211s4.33-9.78,1.6-23.74-4.49-22.45-6.9-26-13.63-13.15-23.25-14-63.83,4.65-69.28,1.28l-2.57-.32s9.14-28.55,10.75-33.68,5.61-3.37,8.66-3.69.8-4,8.34-2.89,10.1,1.28,10.26,0-4.33-4.81-5.45-9.46,2.41-7.06-4.33-11.23-19.73-5.13-21.81-5,.64-8.18-2.08-16.36-3.53-22.61-3-23.74l.48-1.12"/><path class="cls-2" d="M156.12,319.44l-15.33-14.3c-1.34-1.15-13.58-11.61-15-13.24a4.44,4.44,0,0,0-2.59-1.13c-1.79,1.24-5.38,2.15-10.44,3.33a58.49,58.49,0,0,0-6.88,1.86c-4.16,1.66-13-1.37-15.24-2.2l-6.65,1.71c-1.7,1-6.29,1.31-13.38.79-8.14-.6-11.24-2.34-12.4-3.74-2.37.08-5.54-1.35-7.17-2.18a11.57,11.57,0,0,1-6.69,1.08,2.67,2.67,0,0,1-2.83-.5,1.84,1.84,0,0,1-.42-1.34,3.86,3.86,0,0,0-1.16.34l-.28.1c-8.43,2-12.1.66-13.13.11-.71-.24-2.23-1.18-6.23-4.79-4.94,1.94-13.7,1-14.09.93L4,286l2.53-4.22a9.15,9.15,0,0,1-2.35-3.08c-.18-.44-.55-1.38,1.14-5.07a4.85,4.85,0,0,1,1.1-3.35,7.28,7.28,0,0,1,.08-1.92,7,7,0,0,1,.42-4.83c-.31-.48-.85-1.22-1.3-1.8l-1.08-1.39,1.59-.76a5.23,5.23,0,0,0,2.19-1.83c.08-.16.12-.78-.82-2.59A1.67,1.67,0,0,1,7.54,253l.78-.74.39.23a34.09,34.09,0,0,0,2.83-2l.85-.65.06,0c.24-1.38.58-3.58.8-5l.18-1.21h1.22a12.93,12.93,0,0,0,2.65-.94,9.55,9.55,0,0,1,5.59-4.36,22.61,22.61,0,0,0,5.91-2.76,6,6,0,0,1,2.65-2.79l.22-.09a4.69,4.69,0,0,0,2.64-2l.89-1.79,2.82,2.9,1.28-.36a11.27,11.27,0,0,1,1.74-2.5,19.28,19.28,0,0,0-2.15-1.22l-.75-.37-.27-5,1.35-.13c.86-.09,1.68-1.28,1.84-1.57l.17-.32.23-.14-.07-.06-.64-.48.06-.81.49-5,1.6.41.13,0v-.63l.76-.06a10.38,10.38,0,0,0,0-2.23c-1-1.68-1.06-4.73-1.06-5.69v-.74l.6-.42A4.72,4.72,0,0,0,44.94,203l-1-1.92a41.19,41.19,0,0,0-6.12-1.64l-5.9-1.06,5.42-1.6c.6-.76,2.26-3.44,3.59-5.71l.14-.23.21-.17c3.24-2.55,4.35-4,4.51-4.41,0-1.95,1.48-2.6,3.08-3a9.76,9.76,0,0,1-5.41-4.42l-1.13-2.18,2.45.11A13.2,13.2,0,0,0,49,176l-.48-1.14,1.4-.51A47.2,47.2,0,0,0,61.19,168c1.15-3.1-2.89-5.6-3.06-5.71l-1.31-.8,3.64-5L63,158.22v-.15a5.25,5.25,0,0,1,1.08-5.26,5.46,5.46,0,0,1,1.58-1.15c.76-1.17,2.52-1.68,5.27-1.52a4,4,0,0,0,3.26-1.08c.18-3.07,3.56-5.06,4-5.29l1.22-.68.7,1.2a7.19,7.19,0,0,0,2.78,1.63l3.95-4.69,2.81,1.46,1.32-1.79a2.58,2.58,0,0,0,.78-2l-.06-.58.36-.48L98.33,130l1.16.44c2.28-5,2.38-5.14,2.45-5.25l.14-.2.2-.15c5.06-3.77,6.62-6.1,6.63-6.13l.12-.18.17-.15a5.72,5.72,0,0,0,1.54-3.19l.11-.79.73-.32c2.84-1.24,2.88-4.8,2.88-4.83V106.9l2.77,1.41.12-4.47,4.08,2c2.47-1,6.36-1.07,7.81-1.06a9.71,9.71,0,0,1,4.79-1.64,78.73,78.73,0,0,1,5.11-7.53c1.39-2.93,3.76-9.5,4.2-10.73.17-3.06,1.59-6.06,2.74-8.48a14,14,0,0,0,1.46-3.85c.06-2.64,3-10.05,3.65-11.52a74,74,0,0,1,4.41-14.81c2.3-5.35,4.13-6.92,8.52-7.29,3.41-.29,8.62-1.89,13.27-3.42a42.59,42.59,0,0,1,6.1-1.39,37.56,37.56,0,0,0,8.64-2.3c4.23-1.78,7.49-1.69,9.69.27a76.73,76.73,0,0,0,10.13,4.62,4.8,4.8,0,0,0,1.88.41c.73,0,1.74,0,6,1.06,6.93,1.78,15.65.87,15.74.87l.39,0,.36.16a9.87,9.87,0,0,0,7.09.8l.5,1.35.89.38-.45,1c-.31,1.75.53,15.25,3.05,22.81,1.56,4.69,1.42,9.44,1.33,12.59,0,1-.06,2.13,0,2.79,3.39,0,15.36,1.1,22,5.19,5,3.07,5.14,5.53,4.86,8.68a9.88,9.88,0,0,0,.11,3.42c.6,2.47,2.35,4.7,3.63,6.33s2,2.53,1.85,3.64a2.16,2.16,0,0,1-.86,1.49c-1.31,1-3.78.82-11-.26-3.9-.58-4.44.18-5,1a3.86,3.86,0,0,1-3,1.91,16.07,16.07,0,0,1-2.44,0c-2.78-.14-4.15-.08-5,2.7-1.37,4.37-8.26,25.93-10.23,32.06l1.18.15.26.16c3,1.86,27.32.42,43.41-.53,11.54-.68,21.5-1.27,25.25-1,10.06.84,21.6,10.59,24.31,14.57,2.58,3.79,4.39,12.54,7.12,26.51a39,39,0,0,1-.82,19.82,13.51,13.51,0,0,0-.76,4.07c.33,4.09-1.09,16.41-2.94,23-1.32,4.67,3.29,14.59,5.17,18l.77,1.4-18.34,7.35H322l-3.51,2-.44,0c-1.5-.17-5.92,3.85-7.8,5.56-2.17,2-2.74,2.5-3.63,2.4l-.63-.07-.13-.18a39.81,39.81,0,0,0-5.27.13c-2.63.81-6.71.74-10,.67-1.25,0-2.79-.05-3.37,0-.75.61-3,2-10.38,5.9l-.3.12c-2.84.75-9.58,2.47-10.49,2.7-10.63,4.46-15.63,4.28-17.3,4a17.3,17.3,0,0,1-6.33,1.45l-.23,0c-1.28,0-6.86,2.19-7.67,3s-2.77,1.11-4.55,1.05c.62,1.17,1.5,2.93,2.74,5.38,1.12,2.22,2.49,5,2.92,5.68a3.22,3.22,0,0,0,.43-.08,1.55,1.55,0,0,1,1.64.4l.27.2c1.36,1,2.18,1.7,2.18,2.68,0,.16.36,1.17.71,2.06l.26.68-.4.61c-2.67,4.06-6.32,8.93-8.54,9-1.16,0-4.48,1.38-6.47,2.31l-.27.13Zm-34-31.56h.58a7.57,7.57,0,0,1,5.12,2.11c1,1.13,9.42,8.4,14.82,13l14.54,13.56,67.53-1.11c1.3-.6,5.2-2.32,7.2-2.45,1-.41,3.78-3.89,6-7.15a13.82,13.82,0,0,1-.58-1.91c-.27-.26-.86-.7-1.1-.88l0,0a2.77,2.77,0,0,1-2.83-1c-.34-.47-1.25-2.25-3.23-6.2-1.33-2.64-3.15-6.25-3.5-6.75l-.15-.26-1.36-3.07,2.55.37c2,.3,4.35.28,4.85,0,1.22-1.23,7.78-3.86,9.88-3.75A14.78,14.78,0,0,0,248,281l.53-.25.55.2s4.18,1.15,16-3.82l.2-.07s7.28-1.86,10.42-2.68c4.24-2.23,8.93-4.82,9.7-5.44.65-.81,1.81-.79,5.28-.72,3,.06,7.07.14,9.23-.58l.33-.07a27.19,27.19,0,0,1,6.44-.06c.44-.36,1.13-1,1.71-1.52,3.69-3.36,7-6.15,9.48-6.29l3.44-1.92h6.43l14.89-6c-1.82-3.62-6.23-13.23-4.68-18.74,1.73-6.13,3.15-18.13,2.84-22a15.05,15.05,0,0,1,.85-5.05,36,36,0,0,0,.78-18.53c-2.67-13.66-4.45-22.19-6.68-25.45s-13.08-12.58-22.2-13.34c-3.54-.3-13.89.32-24.84,1-23.53,1.39-40.62,2.23-44.75.28l-4-.5.52-1.63c.09-.29,9.16-28.6,10.74-33.67s5.35-4.8,7.86-4.68a13.46,13.46,0,0,0,2,0c.47,0,.56-.16,1-.72,1.11-1.58,2.54-2.93,7.74-2.16a61.9,61.9,0,0,0,8.29.89c-.26-.36-.61-.81-.91-1.19-1.44-1.84-3.42-4.35-4.16-7.42a12.51,12.51,0,0,1-.17-4.34c.2-2.26.33-3.63-3.52-6-6.52-4-19.27-4.89-21-4.76a2,2,0,0,1-1.53-.53c-.94-.9-.9-2.42-.82-5.18.09-3.12.22-7.4-1.19-11.61-2.23-6.7-3.45-19-3.22-23.34a14.06,14.06,0,0,1-6-1.2c-1.84.17-9.69.73-16.35-1-3.91-1-4.76-1-5.27-1a7.24,7.24,0,0,1-2.82-.55A68.54,68.54,0,0,1,200,34.27c-1.69-1.5-4.6-.73-6.76.18A39.84,39.84,0,0,1,184,36.92a39.77,39.77,0,0,0-5.71,1.29c-4.81,1.58-10.22,3.24-13.92,3.55-2.89.24-4.08.76-6.15,5.58A70.61,70.61,0,0,0,154,61.58l0,.19-.07.18c-1.33,3.23-3.46,9-3.5,10.68a14.12,14.12,0,0,1-1.73,5c-1.12,2.37-2.39,5-2.48,7.6v.22l-.07.21c-.12.33-2.87,8-4.45,11.33l-.14.24c-1.79,2.37-4.78,6.59-5.21,7.8l-.35,1-1,0a7.1,7.1,0,0,0-4.26,1.34l-.42.36-.55,0c-2.11-.06-6,.16-7.56,1l-.65.36-1.39-.68-.12,4.55-3-1.51a7.72,7.72,0,0,1-3.58,4.93,8.08,8.08,0,0,1-2.24,4.09,33.18,33.18,0,0,1-6.92,6.47c-.44.92-1.83,4-2.72,5.91L101,134l-1.72-.65-4.74,5.89A5.48,5.48,0,0,1,93,142.86l-2.51,3.48-3-1.54-3.73,4.43-.9-.29a14.24,14.24,0,0,1-4.22-2.08c-.79.64-1.71,1.61-1.64,2.56l0,.4-.19.36c-.06.12-1.6,3-5.93,2.8h-.17a5.31,5.31,0,0,0-2.71.27l-.18.66-.76.22c-.48.16-2.05.87-1.32,3.35l.06.2v6l-4.7-3.29-.27.37c2.17,1.79,4.53,5,2.78,8.74l-.14.3-.26.21a51.21,51.21,0,0,1-11,6.48l.47,1.11-1.31.55a22.16,22.16,0,0,1-3.87,1.17,6.33,6.33,0,0,0,2.57,1.32l.1,0a8.7,8.7,0,0,0,3.71.1l2.51-.45-.95,2.37c-.08.21-.9,2-4,2.83l-1.09.26a10.82,10.82,0,0,0-1.75.5c0,.78-.15,2.31-5.38,6.45-1.19,2-2.05,3.42-2.69,4.39,2.63.62,6.8,1.85,8.76,3.67a2,2,0,0,1,.67,2.43,2.38,2.38,0,0,1-2.51,1,6.61,6.61,0,0,1-1.87,2.13,9.06,9.06,0,0,0,.69,3.61l.26.32,0,.41c.15,1.35.27,3.79-.68,4.94a2.06,2.06,0,0,1-.34.33,2.17,2.17,0,0,1-.57.67,2.43,2.43,0,0,1-1.19.49l-.13,1.31a2.82,2.82,0,0,1,.75,1.9,2.54,2.54,0,0,1-1.08,2,6.45,6.45,0,0,1-2.54,2.37l0,.86c3.62,1.9,3.54,3,3.5,3.53l0,.54L44,230a9.63,9.63,0,0,0-2.18,2.9l-.17.86L37.17,235l-1.46-1.51a7.63,7.63,0,0,1-3,1.91,2.86,2.86,0,0,0-1.29,1.47l-.13.51-.43.3a26,26,0,0,1-7.19,3.43,6.87,6.87,0,0,0-4,3.33l-.22.45-.46.22a22.3,22.3,0,0,1-3,1.18c-.25,1.64-.73,4.71-.92,5.48a2,2,0,0,1-1.25,1.46,2,2,0,0,1-1.12.06c-.9.67-1.61,1.16-2.18,1.5.55,1.21,1.1,2.9.34,4.34a7.27,7.27,0,0,1-2,2.14c1.15,1.6,1.5,2.53.76,3.34A4,4,0,0,0,9.29,268l.08.32-.07.32a4.2,4.2,0,0,0-.07,1.51l.29.8-.56.68a3.17,3.17,0,0,0-.87,1.62l.26.59-.28.57a17,17,0,0,0-1.25,3.34c.41.78,1.28,2,2,2.13l1.91.43-2,3.33c3.38.19,8.59.14,11.13-1.22l.89-.48.74.68a53.79,53.79,0,0,0,5.76,4.76h.23l.37.26h0s2.8,1.6,11-.35c.61-.27,2.4-.95,3.78-.22a2.58,2.58,0,0,1,1.26,1.53l.39-.12.42.13c.08,0,2.34.62,5.72-1.11l.66-.34.66.35c2.42,1.31,5.77,2.51,6.7,2.14l1.69-.68.22,1.64c.22.32,1.89,2.19,10.47,2.82,8.79.65,11.19-.15,11.62-.34l.16-.19,8.2-2.11.42.16c3.86,1.47,11,3.42,13.6,2.37a59.59,59.59,0,0,1,7.28-2c3.62-.85,8.58-2,9.66-3.05ZM232,313h0Zm10.07-27.83h0Zm63.45-15.32.05.07Zm-20.31-.81h0ZM7.42,262.74a1.11,1.11,0,0,0-.16.2Zm1.84-9.91h0Zm235.08-210v0Z"/></svg>