<svg id="Layer_2" data-name="Layer 2" xmlns="http://www.w3.org/2000/svg" viewBox="0 0 350 350"><defs><style>.cls-1{fill:#999;}.cls-2{fill:#f90;}</style></defs><title>M_</title><path class="cls-1" d="M337.78,131.83l-8.6-4.11L325,123.12l-2.17,11-11-.51-.37.28-1.41-8.76L300.93,123l-2.44,0-10.09-1.65a3,3,0,0,1,1.26-2.2c1.93-1.62,5.32-.38,7.16-1.36a4.22,4.22,0,0,0,2.32-2.77c.91-2.65.25-5.81,0-8.52l-1.1-12c-.08-.85-.87-1.75-1.83-1.4l-7,2.63c-2.13.8-4,2.45-5-.63-.51-1.66.49-3.4-1.68-4.36s-3.12.86-4.59,1.83a11.23,11.23,0,0,1-6.77,1.65l-1.43-.06c-1.35-.09-2.71-.23-4.07-.28a2.3,2.3,0,0,0,0-.47L265.6,93l-.22-.27c-1.87-2.39-5.37-3.33-6.21-3.53-2.46-1.13-8-1.24-9.41-1.26-.67-.17-2,.13-7.18,3l-7.09,1L233.85,90l-1.71-1.86-1.26-1c-1.69-1.53-3.22-2.08-4.57-1.62a3.63,3.63,0,0,0-2.15,2.35c-.83.6-2.43,2.1-5.64,6l-.17.25a6.68,6.68,0,0,1-4,3.43c-1.44-1.08-4.31-1-6.75-.58-3.5-.33-5.13,1.36-5.69,2.16l-6.73,4.41-2.88,2.26-.14.12a5.73,5.73,0,0,1-4.18,2,6.91,6.91,0,0,1-4.37-2.15l-2.17-3.32-.09-.13c-1.12-1.35-2.74-1.3-3.93-1.27h-.52a6.55,6.55,0,0,1-2.38-.75c-2-.91-2.32-5.35-2.26-7,.37-1.73.63-4.08-.95-5-1.42-.85-3.14.19-4,.82l-2.94.33-.32.08c-5.32,2-7.1-.29-7.34-.66-.23-.62-1-2.36-2.08-4.91a12.64,12.64,0,0,0-5.54-6.21l-.37-1.6-3.14-1.82-.29.19-1-.71-3.12,1.84a11.81,11.81,0,0,0-1.68-3.16l-.32-.47-3.82-.69-3.46,1.84-.35,1.36-1.23.11L128.62,74l-.4-1.51.21-.45,4.1-1.78-.65-5.8-3.83-3,.13-1.45-3.23-2-.25-.52,7.7-5,1.54-4.08-.84-3.67-.14-.1.35-.69,2.12-1,.09-6.78-2.58-.37-3.38-1.41-4.85-.49-1,.88-1.49-.45L118,35l-1.87,1.87-1.31.48-4.52,3.53-2.19,2.26-3.81,2.07-.76,1.23-5,2.67-2-2.57-2.89-2.13-5-1.46-1.35.45L77.8,38,68.35,51.22l-.5,1.65-.26-.19-.62-1-2.91-1.9-3.12-.29-3.65,1.94L57.15,53l-2.32-1.25-.25,1.48A6.51,6.51,0,0,1,53,51.34l-.35-.9-7.47.18V52c0,4.07-.7,5.62-.7,5.62l-.34.65.64,1.15A7.36,7.36,0,0,0,45.15,62l-1,3.63.88.85-.39.58.06,1a32,32,0,0,0-2.19,5.49L42,76.21l.33,3.73,0,0-.2.11L42.09,80l-5.94.17-4,1-1.59-.74-3.63,1.88-1.62,2.61-1.57.83-3.22,4.47-1,.59-7,3.4L14.88,98l.1,2.41-.5,2.13-.34,4.08,1.74,4.17-.23,2.06.46.9-.15.36-1.43,8.32,1.29,3.14-.34,4.28.31,2-.94-.12L10.78,137,10,141.61l2.68,4.46.82-.19c.57.05,2.6.43,4.45.81l.58.84,1,.77a3.81,3.81,0,0,1,.66,2.53l-.17.93.23.14-.21.77L23,156.74l-.89.52-.47,3.56.75,3.61,1.9,1,.47.92-1.25,2.94.53.64a59.56,59.56,0,0,1,4.4,7.49l.3.59.65.13a4.4,4.4,0,0,1,1.69.62l-1,.52v4l-1,2.44.53,3.94-.13,1-1,1.61,2.16,6,2.32,1.92L33,201l-.69,1.51.41,2a12.76,12.76,0,0,0,1,3.92l-2,3.64,2.2,1.43-.19.65.64,1.61c-.06.46-.1,1.09-.14,1.72l-2.14.76,2.77,5.26v.75l.89,1.77a13,13,0,0,0-.22,3v.73l1.91,1.25,1.92,3.1,4.83-2.67,2.3-.14.36-.33a14.94,14.94,0,0,1,1.35-1.1l-.33,2.23L44.69,236l1.88,3.89,2.08,1.76,6-.14,4.05-.72.33,2.31,2.15,4.74.79.07a78.48,78.48,0,0,0,11.54.31v3.12l3.41,2.82,2.67-1.53a14.25,14.25,0,0,1,4.74.64l.62.25,1.4-.84,1.56.44,4.23-.22a32.62,32.62,0,0,0,4.7.21h.73l.06-.09a36.86,36.86,0,0,0,6.26-.26l.68-.08,2-3.57-.21-.93.89.18,3.47-.69,9.81.82,0,0,5.49.17.1.23,4.17-1h4.2l1.38.56,9.34.3,1.81,2.57a44.61,44.61,0,0,0-.49,6.8v.21l.06.2a11.57,11.57,0,0,0,2,3.74l.41,2.12.74.37v2l.85.35a2,2,0,0,1,.37.19,16.11,16.11,0,0,0,.78,4.32,26.62,26.62,0,0,0-.26,3.74l0,.56.52.56v.34l.17.17a10.9,10.9,0,0,1,.06,1.11v.36l3.06,5.49,1.1-.4a17.48,17.48,0,0,1,3.75-.68l.2,0,2.69-1,.32-.17a13.91,13.91,0,0,0,2.46-2.28l5.56-1.45,2.39-2h.49l2.1.83,1.38-.21.2.3.43,2.84.83.83,2.38,8v3.89l1.41,3.3-1,2.47,2.47,3.29v2l3.17,3.68v3.24l3.14,4.24,10.68,1.6,4.68-5.84-.17-3.33,2.11-5.24,1.54-6.56-.26-3.34,4.7-5.76-.43-2.79,8.53-3.07a8.94,8.94,0,0,0,2.55,4.05,3.06,3.06,0,0,0,.36,1.11l1.55,2.69,1.37,2.76,1.52,4,1.12,1.28,1,2.92.19,3.91.8.33c2.9,1.21,4.71,4.74,4.73,4.77l.19.38,4,2.21,8.79.14,7.48-6.26a183.25,183.25,0,0,1,17.65-9.26l3.36-2.51,2.48-3.45-.08-6.29-3.13-2.18L273,271.17l-2,.3-.54-.47-1.78-5.69,0-1.13,6-7.63-3.56-5.88-.52,0,.17-.28,4.37-2.17L272.38,243l1.67-1.41.11-5.69,3.19-1.53-1.85-3.2,1.26-1.2-1.86-3.61,4-1.52.29-5.85.1,0,5.38-1.23,1.68-5.35-1.17-2v0l.7-.85-.11-2.32.81-2.32.5.11,4.26-.72.85-1.33,1.4-.43c.82-.06,1.07-.57,1.9-2.9l.62-.15,2.51-1.83,3.19-.43,1.31-1.41,3.43-.94,3.43-1.72,2.94-3.49-.18-1,.29-.08.87,1.32,4.83-.89,6.53-2.83,3.15-5.07L327,176.29l-3.25-2.53,1.7-.67,3.07-4.25,1.42-3.92,1.35-4.38,1.15-1.08,1.21-10.93-.29-2.87-.07-.18a3.19,3.19,0,0,1,0-2.95c1.07-1.75,4.3-2.44,5.45-2.55l1.24-.12v-4.71Z"/><path class="cls-2" d="M202.17,317.64l-12.06-1.8-3.77-5.09v-3.18l-3.17-3.68v-2l-2.66-3.54,1-2.67-1.3-3v-4L178,281.21l-.91-.91-.34-2.22-.51.08-2-.8-2.14,1.77-5.44,1.42a15.42,15.42,0,0,1-2.41,2.17l-.65.35-2.88,1.09-.4,0a16.3,16.3,0,0,0-3.37.6l-2.24.82-3.83-6.87V278c0-.15,0-.32,0-.48l-.21-.21V277l-.54-.57,0-1.15a33.65,33.65,0,0,1,.23-3.62,21.16,21.16,0,0,1-.71-3.47l-1.26-.51v-2.09l-.58-.29-.48-2.47a12.73,12.73,0,0,1-2.06-3.93l-.12-.4v-.43a50.93,50.93,0,0,1,.4-6.46l-1.06-1.51-8.89-.29-1.35-.55h-3.76l-5.17,1.23-.21-.49-3.77-.12,0,0-.89,0-9.61-.81-2.91.58L105.47,254l-1.38.17a41.94,41.94,0,0,1-5.7.32l0,0H96.88a35.15,35.15,0,0,1-4.79-.21l-4.3.23-1.19-.34-1.48.88-1.27-.5h0A13,13,0,0,0,80,254l-3.2,1.83L72.11,252v-2.31a86.44,86.44,0,0,1-10.26-.38l-1.61-.15-2.58-5.68-.15-1.06-2.82.49-6.55.15-2.72-2.3-2.42-5,2.47-2.87-.82,0-5.73,3.17-2.46-4-2.28-1.49,0-1.49a17.33,17.33,0,0,1,.15-2.84l-.82-1.64v-.73l-3.37-6.39,2.81-1c0-.18,0-.34,0-.5l-.69-1.74,0-.1-2.41-1.57,2.28-4.22a12.87,12.87,0,0,1-.85-3.65l-.48-2.38.65-1.44-2.14-1.77-2.53-7,1.22-1.93.07-.54-.56-4.14L28.64,183v-3.58l-.89-.18-.62-1.21a57.39,57.39,0,0,0-4.23-7.23l-1.08-1.3,1.31-3.09-2-1.1-.93-4.5.59-4.49.15-.09L18.52,153l.11-.38-.15-.09.34-1.89h0a2.43,2.43,0,0,0-.32-1.3l-1-.76-.38-.56c-1.65-.33-3-.57-3.53-.65l-1.58.36L8.52,141.9l.92-5.47,4.69-6.13-.07-.42.32-4.11-1.32-3.2,1.5-8.75-.37-.73.24-2.12-1.73-4.15.4-4.63.45-1.94-.08-1.84-3-4.76,8.32-4.07.71-.41,3.24-4.49,1.53-.81,1.63-2.61,4.59-2.38,1.77.82,3.8-.92,4.7-.14-.22-2.51.57-3a36.58,36.58,0,0,1,2.1-5.4l-.1-1.06-.6-.59,1.13-4a9,9,0,0,1-.28-2.31l-.82-1.48L43.24,57a15.74,15.74,0,0,0,.58-5V49.25L53.65,49l.27.69,2,1.08,0-.21,4.71-2.5,3.9.36,2.77,1.81L77.39,36.19l10.08,5.7,1.17-.39,5.66,1.65,3.24,2.39,1.39,1.78,3.58-1.93.76-1.23,4-2.15,2.18-2.24,4.69-3.67,1.23-.45,2-2,5-.82,1.06.32.89-.77,5.66.58,3.41,1.42,3.64.52-.12,8.9-2.24,1.08.83,3.61-1.86,4.92L127,57.62l2.63,1.66-.14,1.54,3.69,2.86.76,6.77,1.16-.62,4.88.89.66,1a18.65,18.65,0,0,1,1.18,1.92l2.5-1.47,1,.69.23-.15L150,75.22l.37,1.59a14.17,14.17,0,0,1,5.6,6.57c1,2.33,1.73,4,2,4.77.31.34,1.7,1.48,5.59,0l.66-.16,2.57-.29c1.89-1.3,3.78-1.55,5.24-.67,2.57,1.54,1.91,5.08,1.63,6.41-.07,2.26.53,5.13,1.42,5.52a5.89,5.89,0,0,0,1.79.63h.41c1.4,0,3.59-.11,5.16,1.78l.14.19,2.13,3.26a5.44,5.44,0,0,0,3.29,1.63,4.38,4.38,0,0,0,3.13-1.62l.2-.19,3.05-2.4L201,98a7.28,7.28,0,0,1,6.63-2.54c3.11-.46,5.39-.32,6.93.44a5.36,5.36,0,0,0,2.55-2.51l.34-.51A47,47,0,0,1,223,86.93a4.84,4.84,0,0,1,2.87-2.81c1.87-.63,3.88,0,6,1.92l1.35,1.11L234.89,89l1.18,1.39,6.05-.85c5-2.76,6.63-3.25,7.8-3,2.18,0,7.11.2,9.71,1.32,1.25.31,4.81,1.39,6.86,4l.45.61,1.42.11,1.48.11,1.4.06A8.45,8.45,0,0,0,278,90.6c1.07-.91,2.68-2.29,5.06-1.24a3.88,3.88,0,0,1,2.35,4,4.51,4.51,0,0,0,.12,1.2c.2.66.39.8.39.8a5.62,5.62,0,0,0,1.52-.56c.4-.18.81-.37,1.23-.53l7-2.63a2.57,2.57,0,0,1,2.31.24,3.17,3.17,0,0,1,1.43,2.36l1.1,12c0,.51.11,1,.17,1.57.28,2.39.6,5.1-.25,7.54a5.59,5.59,0,0,1-3,3.56,7.9,7.9,0,0,1-3.71.6c-1.29,0-2.51,0-3.21.59l0,0,8.07,1.32,2.64.07L311.32,124l1.33,8.26,9,.42,2.48-12.58,5.89,6.48,8.7,4.16,2.67,4v6.43l-2.52.24c-1.44.15-3.76.88-4.37,1.88-.08.14-.34.56.1,1.69l.14.36.32,3.21-1.29,11.6-1.26,1.18-1.24,4-1.51,4.18-3.31,4.59,1.76,1.37,1.71,5.83-3.72,6-7.24,3.1-5.68,1.05-2.42,2.88-3.95,1.95-3,.84-1.38,1.48-3.34.45-2.46,1.79-.15,0c-.66,1.81-1.22,2.91-2.71,3.09l-.75.23-.91,1.42-4.62.78-.37,1.06.12,2.59-.43.53,1,1.76L285.79,219l-5.24,1.2-.28,5.63-3.39,1.29,1.62,3.14-1.22,1.16,2.06,3.56-3.79,1.81-.1,5.46-1.29,1.09L277,248.9l-4.12,2,3.46,5.71-6.27,8,0,.43,1.51,4.83,2.17-.33,5.43,10.26,3.45,2.4.09,7.49-2.87,4-3.81,2.8a183,183,0,0,0-17.4,9.12l-7.8,6.52-9.67-.15-4.66-2.6-.38-.77s-1.62-3.11-4-4.1l-1.63-.68-.23-4.62-.81-2.47-1.1-1.26-1.59-4.22-1.33-2.7L224,286a3.64,3.64,0,0,1-.42-1.07,9.81,9.81,0,0,1-2-3l-6.16,2.22.35,2.26-4.74,5.81.23,3-1.65,7-2,5,.18,3.55Zm-10.48-4.43,9.29,1.39,3.83-4.79-.16-3.1,2.18-5.43L208.3,295l-.29-3.69,4.66-5.71-.51-3.32,11-3.95.49,1.32a7.63,7.63,0,0,0,2.1,3.43l.43.34.09.54a2,2,0,0,0,.17.59l1.57,2.73,1.46,3,1.43,3.8,1.14,1.3,1.12,3.38.16,3.21c3.32,1.4,5.3,5.19,5.42,5.42l3.28,1.83,7.9.13,7.25-6A185.92,185.92,0,0,1,274.78,294l3.05-2.28,2.08-2.89-.06-5.1-2.81-2-4.81-9.09-1.67.25-1.33-1.17-2-6.31.06-1.83,5.64-7.22-2.6-4.29-2.38.21,1.39-2.37.19-.31.21-.34,3.44-1.7-2.6-5,2-1.73.11-5.93,2.6-1.24-1.64-2.84,1.3-1.24-2.1-4.08,4.62-1.75.35-7,1.57.74,4.12-.94,1.25-4-1-1.76-.1-.89.73-.93-.09-2.05,1.32-3.76,1.46.32,3.36-.57.79-1.23.49-.15,1.44-.44.16,0a17.88,17.88,0,0,0,.78-2l.26-.73,1.09-.26,2.57-1.87,3-.41,1.23-1.33,3.69-1,3-1.52,2.32-2.76-.29-1.64,2.52-.72.92,1.4,3.74-.69,6-2.59,2.58-4.15-1.1-3.74-4.84-3.77,3.61-1.44,2.71-3.76,1.35-3.74,1.44-4.68,1-1,1.14-10.26L332,146a4.56,4.56,0,0,1,.12-4.2c1.59-2.6,6-3.16,6.48-3.22v-3l-1.76-2.63-8.5-4.06-2.48-2.73L324,135.61l-11.68-.55-1.84,1.4-1.63-10.16-8.07-1.91-2.49-.05-11.31-1.85,0-1.24a4.38,4.38,0,0,1,1.77-3.24c1.48-1.24,3.36-1.25,5-1.25a6.26,6.26,0,0,0,2.39-.27,2.83,2.83,0,0,0,1.65-2c.63-1.84.37-4.1.11-6.29-.07-.56-.13-1.11-.18-1.64l-1.1-12a.39.39,0,0,0-.06-.15L289.69,97c-.36.13-.71.29-1,.45-1.19.54-2.54,1.16-3.87.56a3.75,3.75,0,0,1-1.92-2.54,6.9,6.9,0,0,1-.24-2c0-1.07,0-1.21-.66-1.49s-1-.11-2.07.8a11.84,11.84,0,0,1-1.16.91,12.73,12.73,0,0,1-7.58,1.89l-1.46-.07-1.55-.12c-.84-.07-1.68-.13-2.52-.17l-1.43-.06.08-1.43a1.18,1.18,0,0,0,0-.15c-1.6-2-4.79-2.87-5.41-3l-.26-.09c-1.73-.79-5.84-1.1-8.83-1.13l-.33,0c-.22,0-1.28.14-6.15,2.86l-.23.13-8.13,1.15-2.15-2.54-1.6-1.73-1.18-1c-.94-.85-2.19-1.73-3.23-1.38a2.24,2.24,0,0,0-1.26,1.47l-.15.42L225,89c-.72.52-2.22,1.93-5.33,5.67l-.08.12a8.08,8.08,0,0,1-4.76,4.07l-.69.22-.58-.43c-.4-.3-1.74-.92-5.68-.31l-.17,0-.18,0c-2.78-.27-4,1-4.4,1.56l-.16.22-6.91,4.53-2.89,2.28a6.93,6.93,0,0,1-5.16,2.42,8.21,8.21,0,0,1-5.37-2.58l-.16-.21-2.21-3.38c-.58-.7-1.51-.73-2.75-.69h-.57a8,8,0,0,1-3-.9c-3.2-1.42-3.05-7.61-3-8.31l0-.24c.52-2.45.13-3.26-.29-3.51-.58-.35-1.62.15-2.4.74l-.31.23-3.39.41c-6.21,2.29-8.53-.62-8.93-1.23l-.14-.28c-.23-.59-1-2.36-2.06-4.84A11.3,11.3,0,0,0,148.5,79l-.57-.3-.38-1.63L145.69,76l-.35.22-1.08-.73-3.9,2.3L139.83,76a10.44,10.44,0,0,0-1.48-2.74l-2.75-.5-2.47,1.31-.45,1.73-2.55.23-2.7-1-.71-2.71.65-1.4L131,69.35l-.47-4.16-4-3.08.13-1.36-2.84-1.8-1-2,8.37-5.38,1.23-3.24-.63-2.73-.68-.49,1.1-2.21L134,42l.06-4.65-1.69-.29-3.19-1.33-4-.41-1.15,1-1.92-.58-3.43.57-1.77,1.77-1.4.51-4.26,3.33L109,44.3l-3.67,2-.76,1.24-6.36,3.42-2.62-3.36L93,45.73,88.7,44.46,87.17,45l-9-5.07-8.57,12-1,3.34-2.09-1.51-.6-1-2.36-1.54L61.23,51l-2.6,1.38-.26,3L55.9,54l-.36,2.11-1.92-1.77a7.86,7.86,0,0,1-1.88-2.42v0L46.65,52c0,4-.68,5.81-.82,6.13l0,.07.46.83,0,.4a6,6,0,0,0,.25,2.14l.14.41-.9,3.24,1.12,1.09-.78,1.16.06.94-.23.38a28.49,28.49,0,0,0-2,5.1l-.44,2.36.28,3.25.51,1-2.15,1.27-.42-.29-5.32.15L32,82.7,30.61,82l-2.66,1.38L26.33,86l-1.62.86-3.2,4.44-1.36.79-5.55,2.71,1.69,2.72.13,3-.52,2.22-.3,3.64,1.74,4.19-.22,2,.57,1.12-.35.82L16,122.24l1.27,3.07-.35,4.45.58,3.68-2-.26-3.37,4.41-.63,3.75,1.88,3.13h0l.23,0c.76.07,3.25.56,4.6.83l.56.12.77,1.12,1,.77.13.19a5.19,5.19,0,0,1,.89,3.54h0l.32.19-.32,1.16L25,157.18l-1.62.95L23,160.76l.57,2.73,1.71.92,1,1.91-1.17,2.75a63.61,63.61,0,0,1,4.54,7.71,5.74,5.74,0,0,1,2.22.85L33.73,179l-2.25,1.18v3.47l-1,2.34L31,189.7l-.19,1.54L30,192.53l1.79,4.95,2.42,2,.3,1.74-.68,1.49.35,1.85a11,11,0,0,0,.89,3.41l.25.62-1.66,3.08,2,1.29-.35,1.19.59,1.5,0,.36c-.05.43-.1,1-.13,1.62l-.05.94-1.49.53,2.17,4.12V224l1,1.94-.12.5a11.6,11.6,0,0,0-.18,2.65l1.54,1,1.38,2.22,3.93-2.17L46,230a16.1,16.1,0,0,1,1.46-1.19l2.73-2-.89,6-2.91,3.38L47.71,239l1.44,1.22,5.36-.12,5.38-1,.51,3.56,1.73,3.81a77.27,77.27,0,0,0,11.3.31l1.5-.09v4l2.14,1.77,2.15-1.23h.37a16.26,16.26,0,0,1,5.24.73l1.33-.79,1.92.54,4.17-.22.17,0a30.52,30.52,0,0,0,4.39.19l.11-.16.83.07a35.4,35.4,0,0,0,5.94-.26l1.41-2.47-.58-2.53,2.76.55,3.39-.67,9.54.8h.42l6.22.2,3.49-.79h4.48l1.4.57,9.79.32L148.6,251l-.13.6a43.61,43.61,0,0,0-.46,6.51,10.2,10.2,0,0,0,1.77,3.25l.22.28.34,1.78.89.45v1.93a3.35,3.35,0,0,1,.6.31l.64.43,0,.78a14.35,14.35,0,0,0,.73,3.9l.09.32-.06.33a26.73,26.73,0,0,0-.24,3.49l.51.54v.32l.1.1.06.49a12.16,12.16,0,0,1,.07,1.26l2.29,4.11a19.55,19.55,0,0,1,4.09-.75l2.56-1a12.5,12.5,0,0,0,2.13-2l.29-.35,5.7-1.49,2.54-2.1h1.26l2,.79,1.89-.29.88,1.3.41,2.69.76.76,2.54,8.52V292l1.53,3.56-.89,2.28,2.28,3v1.9l3.17,3.68v3.3ZM129.88,72.93l.58.22.14-.53Z"/></svg>