<svg id="Layer_2" data-name="Layer 2" xmlns="http://www.w3.org/2000/svg" viewBox="0 0 350 350"><defs><style>.cls-1{fill:#999;}.cls-2{fill:#f90;}</style></defs><title>M_</title><path class="cls-1" d="M333.54,282.54l-.52-1.91-2.73-8-.63-2.2-16.05-13.25L306.4,251l-15-16.29-3.16-3.54-6.08-12.61L282.3,192l-9.89-13.06-6.28-7.85-7.79-8.38-1.68-1.79-.31-3.07-4.93-8.11.05-2.42,1.51-3.61v-4.59l1.34-4.78-1.58-2.82.14-2.62-4.33-5.15L243.61,122l-3.32-3.72-.16-1.52L236.56,115l-5.7-.34-2.24-.22-4.14,1-5.94.27-1.05-4.27-2.9-4.23.32-7.58-1-1.8-2.18-.41L210,94.9l-4.32.08-3.18.33h-2.69l-1.61-2.79-1.21-1.58-2.4-1-.61-.15.15-.82.67-1.41,2.43-5.76,3.11-.7,3,1,4.36.81,1.3-3.15.64-4.47-.46-1.77-1.67-1.84.1-1,2.69-3.17L209.58,64l.53-1,1.65-2,2.87-1.41,4-1.21,3.14-2.4-8.29-2.76h-2.17l-.75-.91,1.21-5-2.38-1-5.37-.57-2,.51-1.16,2.1-.41.27L199,45.19,197.6,42.5l-1-1.33-4.2-2.1.3,3.06-1.54.2.25,2-1.77-.85-.82,2.15-6.15,2.8-7.39,4-1.17.26-4-2-1.94.9-2.21-.72-1.29.13-2.75-1L149.66,60.13l-1.21.5-4.62.29L142,64.51l-2.7-.14-2,5.1-1.14,2.33-2,2-2,4.27L131,79.76l-2,1.17-.91,1.81-1.82.54-4.94,6.1-2.74.19-1.88,1.88-.56,0-2.61-2.54-7.76.2-6.51-3.88L99,84.57l1.46-3.84L86.9,80.09l1.24,2.75-.36,1.46-1.23-1.23-3.13,1.11L82,82.69l-6.6-3L72.8,77.48l-2.43-.64L68.53,75,65,76l-2,3.56-2.47,2.33-.92,3.39L59.73,91l-2.33,4.33-2.46.59-4.6-1-.75,3.55-1,2.12-2.86.84,1,3.72-1.31,4.66-1.25,2.49-.14,4.6-1.1,4.78L40.85,125l-1.6,5.74-.84,2.09-.15,3.32,1.81,5.42L45.22,131l2.81-6.9,1.94-2.4,2.74-1.37.16-1.95,1-1.44-.29-.76.24,0,1.48-1-.12.59H58l1,1.73.59,2.2,3,2.37.74,2.42-.62,8.29-1.54,3-1.39,2.27L57.34,141l-.6,2.62,2,2.19h1.75l2,1.31h5.49l4.27,1.79,2.08-.74h2.56l4.34.77,2.7,0,3.17-.79H92.8l2,.79h3.14l3,.55,2.73,5.33,1.39,2.29.89,3.24-1.58,4.11L116,169.78l3.4.93,2.94,2-6.88,2.8-2.4,3.36v2.4l1.39,2.61,2.52,1.12,3.42,3.54.6,2-1.18.38-.41-.69-5-3.63-3.31.87-5.89,4.86v1.48l-2.45,5.14-1.27,1.73-.18,1.57-.7-.17-1.28-.83-.89-2.38-4.24-.71-2.36,1.18-1,2.76v1.58l-.51,3.6-.33,2.62,1.17,1.43-.52,3.49H92.7c-3.48,3.34-10,1.52-14.18-.36a17.17,17.17,0,0,1-2.74-1.33c-1.79-1.27-3.18-4.71-3.18-7,0-1.83,1.12-3.58,1.07-5.5s-.76-4.3-2.45-5.5a4.21,4.21,0,0,0-2.27-.79,10.71,10.71,0,0,0-3.48,1.1,1.39,1.39,0,0,0-.89-.1c-1.28-.28-2.6,1.38-1.41,2.5l.11.1c.37,4.95-3.25,8-4.77,12.45-1.63,4.76-3,9.63-4.49,14.43a1.44,1.44,0,0,0,0,.73,1.41,1.41,0,0,0-.72,1.65,1.14,1.14,0,0,1,.08.47A4.63,4.63,0,0,1,49,225.35a1.36,1.36,0,0,0-1.46-.7,1.24,1.24,0,0,0-1.54.7l-8,16.4-.63-.63a1.49,1.49,0,0,0-1.2-.4,1.42,1.42,0,0,0-.39,0,1.54,1.54,0,0,0-1,1.85l.7,4.81-6.59,4.1c-1.7-.42-2.38,2.31-.63,2.93A11.62,11.62,0,0,1,33,257.81a1.47,1.47,0,0,0-1.68.23,11.87,11.87,0,0,0-3.42,5.3,1.29,1.29,0,0,0,.23,1.29,1.51,1.51,0,0,0,.77.6,12.18,12.18,0,0,1,3.76,2.22A11.06,11.06,0,0,0,26,273.91a1.15,1.15,0,0,0,0,.9,1.51,1.51,0,0,0-.23.22,65.71,65.71,0,0,0-9.8,18.71c-.46,1.37,1.11,2.17,2.2,1.69,3.49-1.53,10-6,13.81-5.24q2.32-.73,2.24,1.71l1.05,3.3a10.45,10.45,0,0,0,1.49,3.17A5.06,5.06,0,0,0,42,300.07a10.2,10.2,0,0,0,3.11-1.52c3.57-2.17,3.17-3.68,8.53-2.91,3.5.5,5.56,1.2,9.17.59,5.68-1,10.58.51,16.1,1.41,5.72.93,11.35.69,15.89-3.27a1.51,1.51,0,0,0-.3-2.36c-2.36-1.35.51-6.82-.63-9.15a5.6,5.6,0,0,0-1.91-2.11,9.44,9.44,0,0,0-1.63-.84,3.1,3.1,0,0,1-2.54-2l.15-1.14a1.17,1.17,0,0,0-.44-1.15c0-.26,0-.52.08-.8l.07-.14a1.55,1.55,0,0,0,.89-1.1c.76-.75,1.73-1.43,2.65-2.26,1.61-1.47,2.61-3.41,4.14-5a19.66,19.66,0,0,1,17.22-5.51c1.53.25,2.82-1.94,1.16-2.74-6.44-3.12-7.5-8.49-6.88-15,.2-2.12-.15-3.89-1.79-4.82.2-2.54.34-7.19,1.67-8l2.14,1,3.21-.42,5.06-4.36,4-4.36-.62-1.93.92-2.76,3.59-.22,3-1.41,3.79.2,2.82-1.28,4.79.73,2.4.41,3.48,2.53,1.86-1.79,4.63,2,1.63,1.15,7.76,2.34,11.55,3.72,2.26.81,2.26,2.5,4.12,4.12,3.76,3.11,1.13,1.19,1,.81,5.61,2.27,2.09,1.09,1.65,23,.88,11.85,15.31,18L235.24,300l10.62,3,9.47,2.55,7.53,2.14,9.68,3.27h13.59l15-2.57,5.75-1,16.89-.8,5.77-5.77,4.57-5.28Z"/><path class="cls-2" d="M286.26,312.35H272.31l-9.9-3.35-7.47-2.12-9.45-2.54-10.64-3-22.92-5.41L196,277.18l-.92-12.31-1.6-22.23-1.33-.69-5.75-2.33-1.27-1.07-1.07-1.13-3.79-3.14-4.12-4.12-2.07-2.29-1.93-.69-11.5-3.7-8-2.4-1.69-1.2-3.62-1.55-2,2-4.17-3-2.07-.35-4.35-.66L132,217.48l-3.78-.2-2.93,1.37-2.91.18-.47,1.41.73,2.27L118,227.6l-5.38,4.64-4,.53-1.42-.67a32.61,32.61,0,0,0-.67,5.32l0,.23c2.1,1.77,1.82,4.64,1.73,5.65-.69,7.21,1.08,11.13,6.08,13.56a2.63,2.63,0,0,1,1.45,3.24,3.17,3.17,0,0,1-3.45,2.18,18.28,18.28,0,0,0-16,5.1,19.83,19.83,0,0,0-1.75,2.15,18.88,18.88,0,0,1-2.45,2.87c-.43.39-.87.75-1.3,1.1s-.74.6-1.06.89a3,3,0,0,1-.68,1,2.72,2.72,0,0,1,.24,1.57l-.09.73a1.76,1.76,0,0,0,1.33.79l.27.08a10.88,10.88,0,0,1,1.88,1,7,7,0,0,1,2.41,2.67c.7,1.42.4,3.28.1,5.08-.18,1.12-.52,3.19,0,3.47a3,3,0,0,1,1.44,2.28,2.74,2.74,0,0,1-.91,2.37c-5.52,4.82-12.37,4.37-17,3.6-1.17-.19-2.32-.41-3.46-.62-4.09-.77-7.95-1.51-12.18-.79a20.07,20.07,0,0,1-7.54-.25c-.64-.11-1.32-.23-2.07-.33-3.32-.48-3.85-.06-5.26,1.05a21.49,21.49,0,0,1-2.34,1.66l-.43.27a9.71,9.71,0,0,1-3.11,1.43,6.5,6.5,0,0,1-6.63-2.17,9.15,9.15,0,0,1-1.49-2.94c-.07-.21-.15-.42-.23-.63l-1.15-3.61v-.24a2.3,2.3,0,0,0,0-.4,2.44,2.44,0,0,0-.39.09l-.35.11-.36-.07c-2.31-.46-6.55,1.81-9.64,3.46-1.22.65-2.37,1.27-3.32,1.69a3.24,3.24,0,0,1-3.4-.55,2.66,2.66,0,0,1-.72-2.89,66.71,66.71,0,0,1,9.87-18.91,2.64,2.64,0,0,1,.2-1,12.55,12.55,0,0,1,5.22-6.16,10.5,10.5,0,0,0-1.43-.65A3,3,0,0,1,27,265.48a2.71,2.71,0,0,1-.44-2.57,13.38,13.38,0,0,1,3.65-5.77,10.08,10.08,0,0,0-2.55-1.36,3,3,0,0,1-1.83-3.72,2.72,2.72,0,0,1,2.6-2l5.39-3.35-.57-3.89a2.94,2.94,0,0,1,2.09-3.42,1.83,1.83,0,0,1,.71-.08,3,3,0,0,1,1.39.23l7.2-14.8a2.66,2.66,0,0,1,2.9-1.52,2.75,2.75,0,0,1,2.6,1.42,3.27,3.27,0,0,0,1.71,1.44,2.75,2.75,0,0,1,.68-1.21,3,3,0,0,1,.11-.47c.49-1.57,1-3.15,1.44-4.72,1-3.21,2-6.52,3.07-9.75a26.38,26.38,0,0,1,2.31-4.7c1.31-2.25,2.44-4.22,2.41-6.69a2.72,2.72,0,0,1-.27-3,3.07,3.07,0,0,1,3-1.63,2.85,2.85,0,0,1,.73,0,11.37,11.37,0,0,1,3.72-1A5.61,5.61,0,0,1,72,194a8.3,8.3,0,0,1,3.05,6.61,10.39,10.39,0,0,1-.6,3.33,8.12,8.12,0,0,0-.47,2.22c0,2,1.3,4.9,2.58,5.8a10,10,0,0,0,1.75.87l.76.33c3.2,1.46,7.09,2.5,10,1.92l.5-3.35-1.15-1.41.4-3.22.5-3.52v-1.73l1.32-3.52,3.27-1.64,5.5.92.84,2.25,1.21-1.65,2.25-4.73v-1.83l6.65-5.48,3.52-.93-.53-.24-1.79-3.35v-3.21l2.9-4.07,4.81-2-.55-.38-3.38-.95-12.87-5.88,1.89-4.91-.72-2.6-1.34-2.21-2.42-4.71-2.15-.4H94.49l-2-.79H87.21l-3.17.79-3.12,0-4.22-.75H74.51l-2.37.85-4.51-1.89H62l-2-1.31H58.08L55.19,144l.85-3.68,2.64-3.08L60,135.08l1.36-2.63.58-7.73L61.42,123l-3.05-2.39-.66-2.48-.5-.86H55.36l-1.1,1.66-.2,2.37-3.18,1.59-1.62,2-2.73,6.71-6.72,13.69-3-9,.17-3.82.9-2.25,1.64-5.87,2.06-3.22,1-4.4.14-4.77,1.33-2.65,1.17-4.16L44,100.49l3.58-1.05.66-1.4,1-4.78,5.68,1.22,1.54-.37,1.85-3.45-.12-5.58,1.08-4,2.6-2.46L64,74.78l4.91-1.36,2.16,2.16,2.37.62,2.67,2.25,6.67,3.07,1,1,2.27-.81-1.42-3.17,17.78.83-1.89,5,5.62,3.35,7.94-.21,2.31,2.25L118,88.2l2.66-.19,4.83-6,1.65-.49.82-1.64,2.1-1.23,1-1.31L133,73l2-2,1-2.08,2.36-6,2.79.14,1.74-3.48,5.2-.33.79-.33,12.71-10.53,3.21,1.16,1.26-.12,2,.63,2.06-1,4.16,2.12.47-.11,7.3-4,5.62-2.56,1.16-3,.82.39-.1-.81,1.58-.21-.41-4.24,6.79,3.39,1.35,1.81,1.37,2.68.48,1.09.37-.67,2.88-.72,5.83.61,3.68,1.55-1.29,5.33h1.56l11,3.68-5.47,4.18-4.18,1.25-2.48,1.22-1.36,1.69-.24.45.72,3.74-2.8,3.3,1.44,1.59.63,2.38-.77,5.1-1.74,4.21-5.67-1.07-2.64-.88-2,.45-2.51,5.85,2.13.87,1.55,2,1.2,2.08h1.8l3.23-.33,5.07-.09,1.89,2.69,2.28.43,1.46,2.74-.32,7.5,2.78,4.05.84,3.39,4.64-.21,4.24-1,2.47.24,5.94.35,4.53,2.27.19,1.84,2.77,3.1,4.95,1.72,4.94,5.87-.15,2.76,1.67,3-1.44,5.16V144l-1.52,3.63,0,1.74,4.88,8,.29,2.91,1.35,1.44,7.86,8.47,6.28,7.85,10.21,13.47-.13,26.73,5.85,12.13,3,3.39L307.38,250l7.15,6.11,16.37,13.52.75,2.62,2.71,7.92.6,2.3.64,13.49-5,5.78-6.15,6.16-17.34.83-5.66,1Zm-13.48-2.83H286l20.83-3.6,16.34-.78,5.34-5.35,4.17-4.81-.58-12.2-.48-1.76-2.7-7.91-.53-1.84-15.71-13-7.35-6.3-15-16.29-3.3-3.7-6.31-13.09.13-26.42-9.6-12.67L265,172l-9.75-10.48-.33-3.23-5-8.19.07-3.1,1.5-3.6v-4.5l1.23-4.4-1.49-2.66.13-2.47L247.71,125l-4.9-1.7-3.87-4.33-.13-1.2-2.62-1.31-5.41-.32-2.05-.2-4.18,1-7.1.33-1.27-5.15-3-4.41.33-7.67-.46-.86-2.08-.39-1.69-2.4-3.51.06-3.27.33h-3.51l-2-3.42-.92-1.2-1.95-.79-1.8-.44.5-2.49.67-1.41,2.69-6.37,4.2-1,3.29,1.1,3.13.58.79-1.92.57-4-.3-1.16L206,72.19l.21-2,2.53-3-.65-3.38L209,62.1l1.85-2.29,3.37-1.63L218,57l.81-.62-5.53-1.84h-2.61l-1.62-2,1.1-4.52-1.07-.45-4.91-.52-1.2.3-1,1.87-2.1,1.37-2.16-4.89-1.28-2.5-.74-1L194,41.48l.18,1.87-1.5.2.4,3.17-2.73-1.31-.48,1.26-6.63,3-7.52,4.09-1.86.41-3.84-2-1.82.84-2.45-.79-1.31.13-2.29-.83L150.4,61.36l-1.62.68-4,.26L142.88,66l-2.61-.13-1.68,4.25-1.24,2.54-2,2-2,4.29L132,80.84l-1.88,1.1-1,2-2,.6-5.05,6.23-2.83.2-1.9,1.9-1.72.08L113,90.38l-7.57.2-7.23-4.31-.78-1.63,1-2.58-9.26-.43.49,1.09-1.08,4.37-2.38-2.37L83,85.82l-1.89-2-6.54-3-2.47-2.08-2.5-.66-1.53-1.53-2.18.61-1.81,3.23-2.34,2.21L61,85.43l.13,5.91-2.81,5.22-3.39.81-3.53-.75-.56,2.48-1.28,2.69-2.13.63.75,2.75-1.52,5.29-1.11,2.22-.16,4.57-1.16,5-2.1,3.28-1.59,5.68-.75,1.87-.13,2.81.63,1.9,3.63-7.39,2.85-7,2.27-2.8,2.3-1.15.13-1.51.76-1.14L51.54,115l1.78-.14,4-2.57-.44,2.17h2l1.55,2.78.47,1.75,3,2.35.94,3.1-.66,8.84-1.68,3.23L60.91,139l-2.26,2.64-.36,1.56,1.06,1.18h1.54l2,1.31H68.2l4,1.69,1.79-.64,3.05,0,4.23.75,2.4,0,3.34-.78h6l2,.79,3.12,0,3.64.68,3,5.9,1.47,2.41,1.07,3.88-1.27,3.3,10.34,4.72,3.51,1,5.33,3.62-9,3.64-1.9,2.66v1.6l1,1.87,2.33,1,3.85,4,1.12,3.62-3.59,1.15-.84-1.4-4.22-3.07-2.36.62L106.57,193v1.13l-2.72,5.66-1,1.43-.31,2.79-2.5-.59-1.87-1.21-.77-2.05-3-.5-1.45.73-.75,2v1.52l-.76,5.59,1.18,1.44-.37,2.49h4l-2.54,2.44c-4.51,4.34-12.52,1.38-15.75-.09l-.69-.3A12.22,12.22,0,0,1,75,214.25c-2.26-1.6-3.78-5.49-3.78-8.12a10.32,10.32,0,0,1,.59-3,8,8,0,0,0,.48-2.43c0-1.51-.55-3.46-1.86-4.38a2.82,2.82,0,0,0-1.54-.53,11.35,11.35,0,0,0-2.61.88l-.69.45-.73-.38-.28.05-.26,0a.3.3,0,0,0-.12.09l.5.46,0,.56c.27,3.59-1.27,6.25-2.76,8.82a23.87,23.87,0,0,0-2.08,4.2c-1.09,3.17-2.08,6.46-3,9.64-.48,1.59-1,3.17-1.44,4.75l.21,1-1,.54a2.56,2.56,0,0,1,.14.91l0,1.26-1.26.11a6,6,0,0,1-5.74-3l-.32.05L47.2,226l-8.82,18.12-2-2H36.1s0,0,0,.26l.84,5.73L29,253l-.47-.12a.31.31,0,0,0,0,.14,13.46,13.46,0,0,1,5.54,3.84l4.49,5.23-6.19-3-.12,0a10.38,10.38,0,0,0-3,4.67l.06.09a14.17,14.17,0,0,1,4.27,2.52l1.86,1.6-2.31.82a9.6,9.6,0,0,0-5.85,5.58l.35.85-.77.67a63.53,63.53,0,0,0-9.59,18.25.39.39,0,0,0,.27,0c.85-.37,2-1,3.12-1.59,3.53-1.9,7.9-4.23,11.18-3.81a3,3,0,0,1,2.66.38,3.07,3.07,0,0,1,1.08,2.57l1,3.08c.06.16.14.39.23.62a6.67,6.67,0,0,0,1,2.08,3.68,3.68,0,0,0,3.83,1.22,7.3,7.3,0,0,0,2.23-1.07l.46-.28a18.74,18.74,0,0,0,2-1.46c1.84-1.46,3.1-2.26,7.42-1.64.78.11,1.48.23,2.15.35a17.29,17.29,0,0,0,6.59.25c4.73-.8,8.83,0,13.18.8,1.11.21,2.23.42,3.39.61,6.62,1.08,11.16.17,14.73-2.94,0,0-.06,0-.09-.07-2.17-1.24-1.71-4.09-1.34-6.37.2-1.23.45-2.76.15-3.37a4.2,4.2,0,0,0-1.46-1.58,8,8,0,0,0-1.22-.63,4.45,4.45,0,0,1-3.46-2.8l-.13-.34.18-1.43-.48-.36,0-.77c0-.29,0-.59.09-.91l0-.25.12-.22.1-.19.23-.39.41-.19a.14.14,0,0,0,.1-.11l.09-.41.3-.3c.47-.46,1-.89,1.5-1.3s.79-.64,1.18-1a16.51,16.51,0,0,0,2.07-2.46,22.35,22.35,0,0,1,2-2.45,21.15,21.15,0,0,1,18.46-5.91c.07,0,.15,0,.21-.11-7.73-3.83-8.1-10.74-7.57-16.33.23-2.39-.45-3.1-1.07-3.45l-.79-.44.07-.9c0-.31,0-.65.07-1,.28-4.09.6-7.06,2.24-8.12l.66-.43,2.47,1.16,2.38-.31,4.67-4,3.38-3.69-.51-1.59,1.37-4.1,4.28-.27,3.08-1.44,3.8.2,2.89-1.31,8,1.26,2.79,2,1.68-1.61,5.75,2.5,1.44,1,7.54,2.27,11.57,3.73,2.64.95,2.5,2.76,4,4,3.83,3.18,1.07,1.13.74.62,5.54,2.25,2.79,1.46L198.78,276l14.71,17.32,22.07,5.21,10.68,3,9.45,2.54,7.55,2.15Z"/></svg>