<svg id="Layer_1" data-name="Layer 1" xmlns="http://www.w3.org/2000/svg" viewBox="0 0 350 350"><defs><style>.cls-1{fill:#999;}.cls-2{fill:#f90;}</style></defs><title>M</title><path class="cls-1" d="M23,286l-5.11-15.7L6.25,256s2.19-7.3,3.65-12-1.1-16.06-1.1-16.06l11-12L23,211.51s2.92-10.22,4-12.41S23,186,23,186l2.56-7.67s-1.46-8.4,4-10.59-4.75-10.22-4.75-10.22L25.23,141l6-5.11s3.07-8,0-10.59-6-16.06-6-16.06l3.29-10.22-1.46-7.3L69.41,90.3l2.19-1.83H89.85L95,82.63l23.37-1.46,13.14,11.68,6.94-5.48,4.75-6.21,13.51,9.13,4-1.83s28.48-13.14,32.49-14.24S210,62.55,210,62.55l8.76-4,5.11,15.7,11.32-8.4,4.38-4.75L241,58.54l3.65-3.65L253.41,60V56.35l24.83,25.92s2.92,5.11,2.56,9.49l21.91,1.1s16.79,7.67,21.54,11.32,15.33,6.94,19,6.94-12.78,9.13-12.78,9.13l-11.32,7.3s-4,15-12.78,19.71l-51.84-6.94-42.71-6.21-4,19.35v30.3l-10.59,11.68,10.22,9.13-8,9.13,4.38,5.84-3.29,3.65,19.71,16.43-15.7,16.79,3.29,2.56s-5.84,12.41,2.92,5.11l1.46,2.19s-2.56,4.38-1.1,6.94a34.53,34.53,0,0,1,2.56,7.3l-4.38,3.65-2.56-6.94-1.83.37,1.1,4-2.19.73,1.1,2.19-61.7,10.59s-16.06-43.81-20.81-46.37l.36-4.75-12-9.49L77.08,263.71l-10.59-11L41.3,273.21l1.83,3.65-11,.37Z"/><path class="cls-2" d="M142.23,296.71l-.41-1.11c-7.8-21.28-17.47-44.16-20.15-45.61l-.81-.44.37-4.91-10.53-8.3L77,265.67l-10.62-11-23.3,18.91,2.3,4.61-12.62.42-10.37,10L16.67,271l-12-14.62.22-.72s2.19-7.31,3.65-12.06c1.11-3.59-.44-12.29-1.12-15.33l-.16-.72L18.66,215l3.09-4.12c.53-1.83,3-10.29,4-12.4.34-1.19-1.8-7.13-4-11.91l-.24-.51,2.63-7.88c-.24-1.8-.87-9.45,4.94-11.78.67-.27.7-.52.71-.61.2-1.41-2.84-4.85-5.81-7.18l-.56-.44.4-17.77L30,135.1c.87-2.45,1.94-7.29.3-8.66-3.28-2.73-6-14.52-6.47-16.85l-.08-.37L27.06,99,25.34,90.4l43.53-1.5,2.21-1.84H89.21l5.08-5.8,24.54-1.53L131.53,91l5.86-4.63,5.45-7.13,14,9.43,3.29-1.5c1.16-.54,28.62-13.2,32.71-14.32,2.73-.75,11.22-7.23,16.26-11.41l.31-.2,10.21-4.68,5,15.34,9.63-7.14,4.18-4.53L240,57.54l4.42-4.42L252,57.53V52.82l27.47,28.75a22.75,22.75,0,0,1,2.76,8.85l20.81,1,.25.11c.69.32,17,7.78,21.81,11.48,4.37,3.36,14.64,6.64,18.12,6.64a1.76,1.76,0,0,1,1.9,1.26c.28,1.07.62,2.4-14,10.52l-10.79,7c-.83,2.81-5,15.55-13.32,20.06l-.41.22-.46-.06-51.84-6.94-41.41-6-3.71,17.9v30.7l-10,11,10.21,9.11-8.2,9.32,4.39,5.85L202.51,223l19.74,16.45-15.66,16.76,3,2.3-.48,1a21.48,21.48,0,0,0-1.76,5.18,14.14,14.14,0,0,0,2.49-1.76l1.21-1,2.83,4.24-.45.76c-.55,1-1.94,4-1.09,5.52a35.47,35.47,0,0,1,2.71,7.69l.2.85-6.59,5.49-1.42-3.85-1.42.47L207,285.6Zm-18.42-48.57c5.26,5.36,17,36.46,20.26,45.38l58.65-10.07-1-1.94,2.47-.82-1.14-4.19,4.5-.9,2.28,6.19L212,280a29.26,29.26,0,0,0-2.2-6.08c-1.44-2.52-.09-6,.68-7.55l-.14-.21c-1.8,1.34-3.65,2.24-5,1.2s-1.18-3.75.65-7.95l-3.63-2.82,15.73-16.83-19.69-16.41,3.49-3.88-4.37-5.83,7.86-8.94-10.24-9.14,11.18-12.34,0-30,4.29-20.66,44,6.4,51.35,6.87c7.87-4.64,11.65-18.47,11.69-18.61l.14-.53,11.78-7.6c4.13-2.3,8.7-5.06,11.12-6.78-4.93-.86-13.24-3.75-17.42-7s-18.94-10.08-21-11l-23.1-1.15.12-1.46c.29-3.52-1.85-7.71-2.29-8.53L254.83,59.88v2.59l-9.95-5.8-2.74,2.75-1.56,2.65L236,67l-12.9,9.57-5.23-16.06-7.15,3.28c-1.88,1.55-13.11,10.73-17.18,11.84-3.09.84-22.46,9.63-32.27,14.16l-4.75,2.16L143.47,83.1l-4.18,5.4-7.87,6.21L117.83,82.63,95.64,84,90.5,89.89H72.11L69.94,91.7,28.78,93.12l1.21,6L26.7,109.35c1.13,5.08,3.52,13.31,5.43,14.9,3.75,3.11.77,11.27.42,12.18l-.13.34-5.79,4.93-.34,15.1c1.93,1.6,6.79,6,6.31,9.36A3.57,3.57,0,0,1,30.14,169c-4.36,1.74-3.16,9-3.15,9l.06.35-2.49,7.47c2,4.39,4.93,11.52,3.76,13.86-.85,1.7-3.12,9.36-3.92,12.17l-.07.25-3.53,4.69L10.34,228.35c.55,2.65,2.26,11.69.91,16.07-1.18,3.84-2.84,9.36-3.43,11.32L19.2,269.59l4.49,13.8,7.89-7.57,9.29-.31-1.35-2.69,27.08-22,10.56,10.92,33.46-29.09,13.56,10.69Z"/></svg>