<svg id="Layer_1" data-name="Layer 1" xmlns="http://www.w3.org/2000/svg" viewBox="0 0 350 350"><defs><style>.cls-1{fill:#999;}.cls-2{fill:#f90;}</style></defs><title>M</title><path class="cls-1" d="M39.35,139.29s-12.6-5-6.67-20.6l-.44-2.52,3.7-8.89S42,94.53,43.5,89.2l1.33-1.78s.89-6.82,2.22-8l-1.33-3.11L42.83,72.9l-1.48-4,.3-1.63h1.11l.74-1.33L45.72,55s-1.19-3.78-7.11-12.6L34.46,31.93l-.22-3.26H60L59,31l11.48,4.15,1.85-5.78,3.85.74.67-1.41,1-.67,2.45,1,6.82-.3,4.37,1.56v.44l1.93-.07,2.59,1,3.78-.22L103.22,30l4.52.44,10.3-1,4.82-1,1-4.15-3.11-7.56.37-2,2.37-.89h4.45l4,2.37L136,19.77l4.52.22,5.93-5,1.33-1.7-.67-2.67L145.9,9l.22-2.59h3.41l4.08.74s6.59,3.7,8.45,14l-2.45,5.26.59,2,5,4.59L167,37.26l11,11L190.5,58l1.41,1.7,21.19,9.11,10.08,6.89,4.67,1.48a33.31,33.31,0,0,0,24.82,6.67c15-1.93,19.34-.07,19.34-.07l6.08,1.93s14.3,41.94,15.26,42.46l-1.19,4.45L290,136.77v2.52L302,161l1.7,4.22.67,5.41-2.52,3-3.41,2.07-8,1.7-5.11-.52-5.63-2s-17.12-17.49-17.12-19L261,160.7l1.93,9.41L270,184.56l1,5.11,12.45,5.93L294,207.38s8.37,28.6,9.11,33.79l.07.52,12.3,14.6,3.41,9.19-6.67,5.19-4.08-1.7-3.26-2.07L303,260.8l-5.26,1.11L293,260.06l-9.34,4.89-2.82,6.3.89,8.22,6,20.3v13.63l-1,2.74-4,2.37-2.59,2.59-.37,1.93-1.7,1-5-2.67-3.85-8.74-.89-6.15s-26.3-23-28.6-23.49-4.74-1-4.74-1l-3.26,1-.22,3.26,2.74,3.78,8.67,6.59,5.93,7.56,1.93,6.08,1.85,3,1.11,4.59-1.33,8-1.93,3.11-2.89.52-6.3-4.22L239,326.52l.89,3.78,1.63,3.7-1.78.67s-6.82-3.26-7.85-3.19-7,1.33-7,1.33L211,336.52l-2.59,3.33-5.33,3.7-9.78-.52-5.93-2.45-8.22-.3-.52,1.33,8.42-8.68s2.69,2.68,6.4-1S197,330.3,197,330.3l-9.63-8.89a12.23,12.23,0,0,1,.44-9.48l-6.22-10.82s-.74-8.74,12.74-9.48l2.07-.44s2.22-12.89-14.67-37.49l-7.85,2.82,1.1,1.78s-3.17,4.15-5.25,1L170.5,246l-18.67-21.34s-7.26-9.19-7.85-19.26l-11.26-25.49L124,151.44l3.26-13.78,17.19,7.71.89-.3v-7.41l1.48-2.37-1.48-7.56.59-1.78s-4.15-.15-3.11-4.89l-11-2.22.89-2.67-1.48-3.56L136,100.17l-6.08-11.11-2.37.3.15-3.85L118,82.24l4.3-4.15s2.82-2.52-10.52-.74l-2.52-.59s.59-4.59-2.52-5l-3.85,15.56-6.37-4.15L92.4,88.46,99.51,91l-3.26,2.82-7-3.7L86.77,85.5l-23-15.41s-7.85-3-12.3-2.67,2.82,3.11,2.82,3.11L66.62,76,79.51,85.2,87.81,91l-3.7,3.26L82.77,92.9,76.4,95.57,76,100l-5.78,3.56-.59,3.26-2.22-1.63,1.93,7.26-3,.89-2.67,8.3,3.7,5.78-16.45,5.93-7,.74Z"/><path class="cls-2" d="M174.79,347.65l3.42-8.8,1.13,0,7.72-8,1,1c.28.26,1.88,1.49,4.39-1a20.58,20.58,0,0,1,1.58-1.45l-7.83-7.23-.12-.27a13.54,13.54,0,0,1,.16-10l-6-10.48,0-.31a9.27,9.27,0,0,1,2.33-6.4c2.39-2.75,6.3-4.3,11.63-4.61l.93-.2c.08-3.26-.7-15.09-13.89-34.62L176,257.25l.69,1.12-.59.77c-.22.29-2.2,2.81-4.63,2.75a3.59,3.59,0,0,1-2.92-1.79l-.26-.39.73-13.23-18.29-20.9c-.35-.44-7.47-9.56-8.19-19.85l-11.22-25.41-8.86-28.82,3.74-15.82,17.65,7.91v-6.32l1.4-2.24-1.45-7.37.23-.68a4.63,4.63,0,0,1-1.9-1.43,4.92,4.92,0,0,1-1-3.34L130,119.91l1.23-3.68-1.49-3.59,4.71-12.36-5.3-9.69L126,91l.17-4.46-10.83-3.67,4.85-4.68a47.3,47.3,0,0,0-8.23.6l-.26,0-4-.95.16-1.27a6.23,6.23,0,0,0-.24-2.48l-3.83,15.46-7-4.53-2.14,2.76,7.56,2.68-5.84,5L89.2,91.64,84,96.18l-1.6-1.6-4.72,2-.43,4.3-5.84,3.59-.88,4.87-.81-.6L71,113.43l-3.56,1.07-2.23,7,4.3,6.71-18.45,6.61-6.42.68L39.75,141l-.93-.37a15.91,15.91,0,0,1-6.16-4.93c-2.38-3.16-4.53-8.69-1.44-17.12L30.77,116l3.86-9.27c.09-.19,6.07-12.76,7.5-17.91l.07-.26,1.27-1.7c.27-2,.9-5.69,2-7.61l-.94-2.19-2.91-3.44L39.89,69l.58-3.18h1.46l.23-.41,2.1-10.28c-.42-1.06-2.06-4.84-6.82-11.92L37.29,43,33.06,32.24l-.34-5h29.5l-1.31,2.9,8.66,3.13,1.79-5.58,4,.77.37-.78,2-1.28,2.84,1.12,6.79-.3,5.5,2,.81,0,2.58,1,3.26-.19L103,28.56l4.72.46,10.08-.94,3.85-.83.66-2.83-3.1-7.53.59-3.2,3.36-1.26h5.09l4.54,2.71,3.78,3.24,3.47.17L145.46,14l.82-1-.42-1.69-1.42-1.76L144.82,5l5,0,4.31.78.21.12c.29.16,7.2,4.16,9.15,15l.08.44-2.41,5.18.33,1.11,5,4.54,1.79,4.25L179,47.24l12.6,9.87,1.19,1.44,21.12,9.11,9.9,6.77,4.75,1.51.22.2a32.21,32.21,0,0,0,23.71,6.33c14.37-1.84,19.2-.31,20,0l6.71,2.13.23.68c5.08,14.89,13.44,38.89,14.91,41.84l.67.36-1.58,5.81-2,3.84v1.81l11.9,21.54,1.8,4.58.74,6-3.06,3.69L299,177.08l-8.45,1.8-5.67-.62-5.94-2.11-.23-.23c-9.24-9.44-13.61-14.29-15.67-16.86l-.6,1.74,1.81,8.85,7.15,14.63.9,4.42,12.07,5.75,10.92,12.23.09.31c.34,1.17,8.41,28.76,9.16,34l0,.12,12.2,14.47,3.85,10.39-8.14,6.33-5.05-2.14-3.7-2.36-1.63-5.34-4.41.93-4.53-1.77L284.8,266l-2.46,5.5.83,7.72,6,20.38v14.08L288,317.1l-4.29,2.54-2.16,2.16-.41,2.14-3,1.67-6.08-3.27L268,313l-.84-5.82c-12.05-10.55-25.66-22-27.61-22.83-1.78-.35-3.6-.77-4.36-.95l-2,.58-.12,1.76,2.32,3.19,8.76,6.72,6.09,7.76,2,6.16,1.88,3.08,1.23,5.09-1.43,8.56-2.41,3.89-4.08.73-6.06-4.06-.74.4.61,2.6,2.18,5-3.75,1.41-.54-.26a57.65,57.65,0,0,0-7.22-3c-.86.09-4.56.84-6.77,1.3l-13.25,3.56-2.43,3.13-5.91,4.1L193,344.45,187.08,342l-6.59-.24Zm18.85-6,9.05.48,4.76-3.3,2.75-3.54,14.24-3.83c1.09-.23,6.23-1.3,7.31-1.38.33,0,1.33-.09,7.74,2.93l-1-2.38-1.14-4.83,4.15-2.26,6.54,4.38,1.7-.31,1.45-2.34,1.24-7.44-1-4.1-1.88-3.16-1.85-5.83L242,297.53l-8.69-6.61-3.17-4.36.32-4.76,4.57-1.35.37.09s2.44.59,4.68,1,19.33,15.11,29.26,23.81l.39.34.94,6.48,3.58,8.12,3.85,2.07.45-.26.33-1.71,3.18-3.12,3.56-2.11.71-2V300l-6-20.35-.93-8.61,3.17-7.1L293,258.5l4.95,1.93,6.12-1.29L306.1,266l2.72,1.73L312,269l5.2-4-3-8-12.4-14.72-.13-.92c-.68-4.74-8.08-30.19-9-33.28l-10.12-11.33-12.83-6.11L268.65,185l-7.15-14.63-2-9.79L264,147.47v8.24c1,1.73,9,10.34,16.48,18l5.16,1.83,4.72.48,7.55-1.61,3-1.83,2-2.38-.57-4.62-1.6-4-12.14-22v-3.23l2.24-4.32,1-3.83c-1.25-2.53-4.53-11.08-14.88-41.42l-5.53-1.76s-4.39-1.64-18.6.18a34.68,34.68,0,0,1-25.7-6.81L222.55,77l-10.14-6.93L191,60.88,189.51,59,177.05,49.3,165.81,38.07,164,33.87l-5.1-4.65-.86-2.89L160.57,21c-1.64-8.31-6.46-11.81-7.48-12.47l-3.69-.67h-2l-.06.73,1.1,1.36.91,3.64-2,2.46-6.35,5.4-5.56-.27-4.42-3.79-3.56-2.11h-3.8l-1.38.52-.15.8,3.13,7.59L124,29.64l-5.86,1.25-10.43,1-4.32-.42-3.3,1.29-4.3.25-2.61-1-3.12.12v-.92l-3.17-1.13-6.84.3-2-.81-.09.06-1,2L73.29,31l-1.92,6L57.06,31.77l.76-1.69H35.75l.1,1.53,4,10.17c5.9,8.79,7.15,12.67,7.2,12.83l.11.35L44.84,66.43l-1.25,2.25h-.76l0,.08,1.26,3.4,2.87,3.38,1.82,4.25-.76.68c-.51.55-1.34,3.89-1.76,7.13l0,.37-1.4,1.87c-1.61,5.52-7.32,17.53-7.57,18l-3.52,8.44.44,2.5-.14.37c-4.5,11.82,2.43,16.92,5,18.35l4.24-4.79,7.34-.78,14.62-5.27-3.11-4.85,3.1-9.64,2.36-.71L65,101.69l3.63,2.66.3-1.65,5.72-3.52.46-4.59,8-3.36,1.07,1.07,1.35-1.19L78.7,86.36,65.91,77.25,53.74,71.82c-5.39-2.09-5.19-3.4-5.08-4.11C48.9,66.17,50.79,66,51.41,66c4.7-.32,12.56,2.63,12.89,2.76l.29.15,23.26,15.6,2.41,4.4,6-7.68L102,85l3.68-14.87,1.27.18c2.91.42,3.73,3.2,3.79,5.33l1.12.26c10-1.32,11.4-.26,11.95.93a2,2,0,0,1-.55,2.31l-2.58,2.5,8.43,2.85L129,87.73l1.67-.21,6.85,12.53-4.77,12.53,1.47,3.52-.55,1.65L144.48,120l-.31,1.41a2.94,2.94,0,0,0,.23,2.41,2.36,2.36,0,0,0,1.57.76l1.85.11-1,3.18,1.52,7.74-1.56,2.5v8l-2.38.79-16.13-7.23-2.78,11.74,8.6,28L145.37,205l0,.26c.56,9.52,7.48,18.38,7.55,18.47l19,21.72-.74,13.38a.56.56,0,0,0,.39.2,3.07,3.07,0,0,0,1.64-.94l-1.45-2.36L182.31,252l.62.9c17,24.79,15,38,14.9,38.53l-.16.94-3.23.67c-4.56.25-7.83,1.46-9.72,3.6a6.58,6.58,0,0,0-1.69,4.08l6.4,11.13-.3.66a11,11,0,0,0-.53,8.07l8.41,7.76a1.93,1.93,0,0,1,.35.12,2,2,0,0,1,1.08,1.93l-.21,2.94-2.07-1.91a14.35,14.35,0,0,0-1.69,1.5c-2.87,2.87-5.54,2.68-7.21,1.86L183.15,339l4.54.16Zm38.31-8.74h0ZM91.41,89.61l4.65,2.47.68-.59ZM54.25,69l.58.23,12.61,5.65L80.33,84l6.51,4.54-1.15-2.1L63.15,71.35A50.51,50.51,0,0,0,54.25,69Zm67.1,8.09,0,0Z"/></svg>