<svg id="Layer_1" data-name="Layer 1" xmlns="http://www.w3.org/2000/svg" viewBox="0 0 350 350"><defs><style>.cls-1{fill:#999;}.cls-2{fill:#f90;}</style></defs><title>M</title><path class="cls-1" d="M226.2,342.2l-2.11-1.9-11.18-11.55L207,321.47l-11.93-11.13-13.66-15.19-9.09-9.95-10.42-11.38L151.13,262l-8.51-8.49-6.71-1.83-13.29-1.51-5.55-1.91L111.9,255l-3,5.35L106,263.53l-3.26,3L98.87,271l-3.21-3.16c-1.28-3.54-6.6-10.17-6.6-10.17l-1.36.78-3,3.34-4,3c-.08,2.06-2.36,1.38-2.36,1.38C73.68,262.5,71,268,71,268l-7.21-1.26c-4.34.7-3.31-2.74-3.31-2.74l-.05-2.11.8-1.61,2-11.25a8,8,0,0,0,3.11-9.24s-1-2.51-4.62-11.15,6.58-9.29,6.58-9.29-.85,2,2.61-5.17,3.52-2.71,4.83,1.26,4.81,3.11,4.81,3.11c1.1-1,3.62-.35,5.47.1s4.77-.65,4.92-.7-.05-1.61-.05-1.61c-.1-.65,2.71-6.23,2.71-6.23-.05-1,3.67-1,3.67-1s3.37-.2,3.52-2.11-1.51-6.73-1.51-6.73c-.9-.8-.55-3.62-.55-3.62l-2.61-4.27c-.55-2.86-2.06-3.62-2.06-3.62s-3.92,3.77-4.92,5.47a1.48,1.48,0,0,1-2.41.4,7.47,7.47,0,0,0-4.52-3A6.46,6.46,0,0,1,78,189.39l-3-5.58-1.26-1.66.25-.65-1.86-5.83-.9-.3.15-1.16s-.75-.55-.75-.75a1.48,1.48,0,0,1,.1-.45l-.4-4.32-6.93-3.32c-4.52-1.31-5-6.33-5-6.33l1.41-.15-.35-.55.9-2-.5-1.1,1-.35.45-1.46,5,.35,1.61-1c1.86.2,2.21-.35,2.21-.35s-.55-4.22-.8-5.37-2.51-.9-2.51-.9-1.81,1.21-3.62,2.66-1.76.85-1.76.85a9.24,9.24,0,0,0-1.86-4l-.05-2.26,2.31-4.67,1.86-1.26,3.87-1.1c1.31.3,9.89-3.62,9-3.72s-.55-3.52-.55-3.52-1.31-.7-.39-.7,1.55-2.21,1.55-2.21c-1.36.2-1.26-3.16-1.26-3.16l-.29-1.16s1.15-1.21.69-5c0,0,2.41-1.16.8-7.74l.55-1s-2.31-3.11-1.71-3.72,9.89-8.89,9.89-8.89,2.31-1.36-1.21-1.41-9.64-1-9.95-2.26c0,0-1.91-1.21-1.61-6.18s2.21-7.33,2.21-7.33l.5-3.57.2-7.33s.15-3.72,1.86,0l2,5.53,7.74-.05s-.75-6.33.75-7.74l4.07.85s-.25,6.23,0,8,.9,7.58.9,7.58,1.1.15,1.05.4a6.74,6.74,0,0,0,.1,1.21l-.8.3.45,1.81,7.38-2.31a2.76,2.76,0,0,1,1.86,1.05,4.79,4.79,0,0,0,2.36,1.36,3.84,3.84,0,0,0,2.76.7,9.14,9.14,0,0,0,4.87-1.51c1.56-1,2-2.66.6-3.52s-1.5-4.07-1.5-4.07l1-.8,1-1.31,1.71-1a2,2,0,0,1,1.91-1.26,4.23,4.23,0,0,0,2.36-.6,1.32,1.32,0,0,1,1.36,1.16c.3,1.26,2.36,3.82,2.36,3.82l.45,1.61s4-2,5.83-1.51l4.12-1.86,2-.2.4-.8,1.51.15s3.11-1.71,4.92-1.16a1.73,1.73,0,0,0,2.26-1.26l.65-2.86-.5-2.51,1.31-3.26a1.58,1.58,0,0,0-.7-2.06l-.35-3.42s-1.41-2.66-.1-4.07a19.18,19.18,0,0,0,2.41-3.52s2.56-3.16-2.76-1.81c0,0-4.57-.4-5.22,1.36l.25,1.11s-3.06,1.86-3.42,2.71L136,54,134.35,56l-1.27,2.88S130.8,62,129.46,59.9c0,0,.07-.74-.13-.74s-2.34,1-2.34,1l-5.63-1.94s-1.54-2.61-3.48-3.15-1.34-3.15-1.34-3.15l-1.34-1.14L112.54,44a8.35,8.35,0,0,1,.31-4.09c.74-2.08,1.47-6,2.41-6.23s4.15-4.62,4.15-4.62-.13-3.42,2.41-4.35,9.44-7.7,9.44-7.7l4.22-3.35,3-3.35s6-6.83,2.48,1.88c0,0-.47,5.09,1.81,6.56l1,2.48,1.88,2.95,7.77,2.21s6.9-.87,2.81,3.08c0,0,2.61-.54,2.08,1.74L160.26,33s5.69-.33,4.75,5c0,0,3.35,2.41.94,8.64l-1.14,1.61,1.14,1-1.21,1.74-1.14,1.81s-.2.47,0,.6.2,1.21.2,1.21l-1.21.74.74,1.21L163.28,58l.8,1.67s.6,9.64,4.29,9,4.22,0,4.22,0l-1.21,2.81-.74,1s3.82,2,.6,4.22,2.48,7.5,2.48,7.5,1.07,2.14.74,2.61,1.07,3.42,1.07,3.42l1.34,1.07a24.69,24.69,0,0,1,1.27,2.34c0,.2,2.95,4,.33,4.75l-1.41,2.41-1,.4-.54.87-1.54.6-.33,2.34-.67,2.14s3.15-2.68,1.81,1.47l1.34,2.54.33,4-.54,1.88a21.58,21.58,0,0,0-.74,3.28l2.54,3.82s1.47,2.14,1.27,2.54.6.67.6.67l-1.27,3s-1,.33-1.21.2,4.69.07,4.69.07,3.28,4.69,3.42,6.36l.54,2.21a18.57,18.57,0,0,0,3.28,4.35c1.67,1.41,8.84,13.73,8.84,13.73s1,2.75,2.14,3.35,10.11,10.25,10.11,10.25l5.36,7.57.8.2.33,2,3.48,6.23,2.81,5.76,2.95,2.46,1.66,1.41,7.63,2.81,3.42,1.11s3.11,3.26,3.87,5.58a5.83,5.83,0,0,0,2.91,3.26s.9,2.71,2.61,3.42c0,0,4.77,3.21,5.93,3.26a26.69,26.69,0,0,0,8.89,3.87,29.44,29.44,0,0,1,7.28,2.21l3.87,1.86s6.38,5.47,7.74,5.58l1.61.85,7.84.7s1,.8,0,1-16.93,11.75-18.73,12.61-9.24,13.81-9.24,13.81l-9.59,24.16-11.05,27.58s-10,27.07-10.2,27.07S226.2,342.2,226.2,342.2Z"/><path class="cls-2" d="M226.16,344.08l-3-2.72-11.33-11.71-5.87-7.21L194,311.29l-13.66-15.19L150.08,263l-8.2-8.17-6.24-1.71-13.48-1.56L117.58,250l-4.49,5.8-3.15,5.52-3,3.3-3.21,3L99,273l-4.52-4.45-.11-.3c-.85-2.34-3.88-6.54-5.63-8.81l-.09.05-3,3.36L82,265.54a2.67,2.67,0,0,1-1,1.58,3.71,3.71,0,0,1-3,.38l-.26-.08-.21-.17a3.27,3.27,0,0,0-2.68-.89,4.59,4.59,0,0,0-2.53,2.29l-.47.94-8-1.39c-1.83.25-3.18-.11-4-1.08a3.78,3.78,0,0,1-.69-3.25L59,261.6l.87-1.74,2-11.61.46-.34A6.55,6.55,0,0,0,65,240.34s-1-2.6-4.61-11.12c-1.2-2.87-1.19-5.32,0-7.3,1.74-2.8,5.41-3.63,7-3.87.35-.7,1-2,2.18-4.46,1.5-3.1,2.6-4.74,4.21-4.6s2.08,1.86,2.66,4c.17.64.36,1.33.58,2,.72,2.17,2.23,2.28,2.89,2.22,1.65-1.09,4.17-.48,6.21,0l.17,0a7.08,7.08,0,0,0,3.18-.36c0-.14,0-.27,0-.4-.06-.4-.16-1.05,2.75-6.84a1.87,1.87,0,0,1,.47-.87c.89-.93,3-1.13,4.56-1.13,1-.07,2.08-.52,2.1-.8A23.39,23.39,0,0,0,98,201a6.24,6.24,0,0,1-.76-4l-2.5-4.08,0-.25a5.65,5.65,0,0,0-.68-1.88A31.81,31.81,0,0,0,90.3,195a2.92,2.92,0,0,1-2.11,1.55,3.19,3.19,0,0,1-2.49-.83l-.23-.28a6,6,0,0,0-3.62-2.33c-3.54-.76-4.88-2.71-5-2.94l-.05-.09-3-5.48-1.67-2.2.36-.92L71,176.8l-1.33-.44.2-1.54a1.81,1.81,0,0,1-.66-1.34,2.5,2.5,0,0,1,.08-.6l-.3-3.24-6.11-2.92c-5.28-1.61-5.85-7.29-5.87-7.53l-.12-1.39,1.35-.14.58-1.26L58,154.46l1.79-.63.57-1.85,5.63.4,1.63-1,.49.05.49,0c-.17-1.28-.42-3-.57-3.79a5.77,5.77,0,0,0-.71-.07c-.58.4-1.9,1.33-3.2,2.37-1.12.9-2.21,1.66-3.25,1.11a1.53,1.53,0,0,1-.79-1.1,8.36,8.36,0,0,0-1.48-3.29l-.37-.39,0-.56-.06-2.61,2.63-5.32,2.36-1.59,4.44-1.27.26.06c1-.07,5-1.74,7-2.72a9,9,0,0,1-.16-2.39,1.62,1.62,0,0,1-.62-1.67,1.54,1.54,0,0,1,1.35-1.15l.12-.2a6.14,6.14,0,0,1-.9-3.62l-.44-1.73.54-.56h0s.65-1,.32-3.83l-.15-1.21.89-.22c.4-.4,1.08-2.11.09-6.13l-.13-.55.38-.66c-2.08-3-1.66-4.17-1-4.8s6.21-5.6,8.79-7.91c-2.36-.1-8.66-.58-10.15-2.72-.75-.67-2.2-2.59-1.92-7.19A16,16,0,0,1,74,78l.44-3.15.2-7.25c.07-1.76.66-2.79,1.71-3,1.58-.32,2.44,1.55,2.86,2.45l0,.11,1.67,4.59,5.19,0c-.17-2.45-.13-6,1.34-7.36l.54-.5L94,65l0,1.2a77.73,77.73,0,0,0,0,7.78c.19,1.37.6,4.9.8,6.64a1.8,1.8,0,0,1,.89.65l.36.5-.08.56c0,.15,0,.54.09.82l0,.28,5.4-1.69h.25a4.17,4.17,0,0,1,2.9,1.58,3.41,3.41,0,0,0,1.57.86l.38.08.28.27h0a2.84,2.84,0,0,0,1.72.32,7.68,7.68,0,0,0,4.18-1.28c.57-.37.78-.78.78-1s-.05-.11-.16-.17c-1.89-1.19-2.13-4.54-2.16-5.21l0-.71,1.42-1.15L113.58,74l1.59-.94a3.39,3.39,0,0,1,3-1.66,2.89,2.89,0,0,0,1.53-.37l.29-.18.36,0a2.76,2.76,0,0,1,2.87,2.24,14.13,14.13,0,0,0,2.09,3.26l.18.23.08.3a11.18,11.18,0,0,1,4.72-1l3.94-1.78,1.41-.14.49-1,2.06.21c1.08-.54,3.67-1.65,5.62-1.06a.52.52,0,0,0,.29,0,.73.73,0,0,0,.18-.28l.58-2.54-.53-2.63L145.82,63a.67.67,0,0,0,0-.28l-.73-.34-.1-.77-.33-3.17c-.41-.9-1.45-3.61.25-5.43a17.85,17.85,0,0,0,2.19-3.21v0a11.38,11.38,0,0,0-1.17.24l-.23.06-.24,0a9,9,0,0,0-3.56.33l.32,1.4-.87.53a15.61,15.61,0,0,0-2.87,2.11l-.29.72-1.56.16-1.11,1.34-1.33,2.95c-.41.58-1.87,2.48-3.72,2.41a2.64,2.64,0,0,1-2-1l-.94.43-.52.24-6.66-2.3-.27-.45a6,6,0,0,0-2.64-2.5A3.57,3.57,0,0,1,115,52.51l-1-.87-2.85-7.32a9.82,9.82,0,0,1,.36-4.86c.2-.57.41-1.31.63-2.1.74-2.64,1.28-4.57,2.66-5a25.77,25.77,0,0,0,3.2-3.75c.08-1.71.84-4.29,3.33-5.21,1.65-.61,6.36-4.85,8.94-7.38l.11-.1,4.13-3.27,2.93-3.26c3.36-3.85,4.61-3.08,5.15-2.76,1.41.86,1,2.82-.22,5.91-.12,1.73.17,4.39,1.18,5l.38.24,1.12,2.77L146.57,23l7,2c1.71-.18,4.37-.16,5.19,1.55a2.36,2.36,0,0,1,0,2,2.48,2.48,0,0,1,.39.32,2.51,2.51,0,0,1,.7,1.81l1,.89a6.48,6.48,0,0,1,4.54,1.88,5.11,5.11,0,0,1,1.17,4c1.08,1.22,2.86,4.26.76,9.67l-.17.31-.4.57,1.13,1-1.92,2.78-.85,1.36a5,5,0,0,1,.17,1.45v.79l-.67.41.22.37-.07,1.62.77,1.6,0,.28c.16,2.55.95,6.57,2.19,7.54a.48.48,0,0,0,.43.12c3-.55,4.86-.39,5.58.51l.53.66-1.6,3.73a3.78,3.78,0,0,1,1.32,2.5,3.61,3.61,0,0,1-1.9,3.2.7.7,0,0,0-.37.57c-.09,1.23,1.74,3.55,3,4.72l.19.17.11.23c1,2.1,1,3.09.87,3.62a15.18,15.18,0,0,0,.82,2.14l1.28,1,.13.22a19.11,19.11,0,0,1,1.38,2.56l.08.13c.61,1,1.89,3.05,1.24,4.8a2.67,2.67,0,0,1-1.33,1.46L178.05,102l-1,.41-.54.88-1.21.47L175.1,105a1.84,1.84,0,0,1,.58.26c1.15.77.92,2.28.64,3.28l1.2,2.28.38,4.56-.61,2.12c-.25.88-.53,2-.64,2.52l2.27,3.4a9.46,9.46,0,0,1,1.47,2.76l1.08.36-1.08,2.69,1.49.06.7,0,.4.57c.8,1.15,3.39,5,3.65,6.93l.47,1.94a16.4,16.4,0,0,0,2.86,3.79c1.77,1.49,7.94,12,9.15,14.1l.11.22a7.21,7.21,0,0,0,1.48,2.59c1.17.62,7.07,6.86,10.48,10.53l.12.15,5.05,7.14,1.2.3.45,2.68,3.36,6,2.72,5.56,4.19,3.52,7.4,2.73,3.7,1.2.25.26c.34.36,3.36,3.57,4.19,6.11A4.45,4.45,0,0,0,246,208l.56.26.21.59c.23.68,1,2.21,1.81,2.55l.25.14a30.66,30.66,0,0,0,5.26,3l.41,0,.27.23a25.41,25.41,0,0,0,8.33,3.64,30.68,30.68,0,0,1,7.67,2.34l4.16,2.05c2.69,2.31,6.11,4.94,7,5.24l.22,0,1.62.86,8,.72.34.29a2.19,2.19,0,0,1,.87,2.17,1.75,1.75,0,0,1-1.39,1.23c-1,.48-5.82,3.87-9.39,6.37-5.07,3.53-8.22,5.72-9.13,6.15-1,.69-5.24,7.36-8.57,13.15l-9.56,24.07-11.05,27.58s-2.49,6.75-5,13.5c-1.26,3.39-2.53,6.77-3.5,9.31-1.61,4.24-1.9,5-2.53,5.12-.82.62-3.39,2.72-5.69,4.64ZM214,327.81l11.13,11.51,1.13,1c2.87-2.39,4.24-3.5,5-4,1-2.33,6.39-16.89,10-26.6l11.06-27.61,9.68-24.34c2.86-5,7.94-13.48,9.87-14.39.74-.35,5.17-3.44,8.72-5.92,3.75-2.62,6.08-4.23,7.56-5.22l-5.19-.47-1.71-.91c-1.37-.42-4.06-2.33-8-5.71l-3.7-1.78a28.46,28.46,0,0,0-6.92-2.09,27.53,27.53,0,0,1-9.2-3.93,27.66,27.66,0,0,1-6.05-3.35,7.08,7.08,0,0,1-3.06-3.67,7.18,7.18,0,0,1-3.12-3.82,17.72,17.72,0,0,0-3.31-4.78l-3.07-1-7.92-2.92-5-4.22-2.95-6-3.57-6.37-.22-1.34-.41-.1-5.61-7.92c-4.17-4.48-8.93-9.4-9.72-9.91-1.39-.74-2.39-3.09-2.72-4-3.45-5.92-7.54-12.48-8.47-13.25a19.8,19.8,0,0,1-3.61-4.76l-.13-.34-.57-2.43c-.06-.7-1.41-3.07-2.77-5.09-1.17,0-2.38-.08-3.1-.08a1.93,1.93,0,0,1-1.61-.19l-.9-.6.33-1c.21-.66.38-.93,1.55-1l.55-1.31a1.75,1.75,0,0,1-.19-.35,1.67,1.67,0,0,1-.12-.84,13.69,13.69,0,0,0-1-1.68L174,121.16c-.35-.52-.5-.74.55-4.45l.47-1.63-.29-3.47-1.48-2.81-3.08,2.6,2.08-6.67.44-3,1.87-.73.53-.87,1-.39,1.44-2.47.53-.16.08,0c0-.22-.1-.8-1-2.26a2.82,2.82,0,0,1-.37-.74c-.13-.28-.58-1.07-1-1.77l-1.39-1.11-.14-.29c-1.34-2.82-1.38-3.89-1.17-4.44a9,9,0,0,0-.52-1.34c-1-1-3.91-4-3.71-6.82a3.51,3.51,0,0,1,1.59-2.7c.57-.39.68-.65.67-.7,0-.25-.59-.8-1.14-1.1L168.54,73l1.6-2.19.41-1a17.48,17.48,0,0,0-1.94.26,3.3,3.3,0,0,1-2.69-.68c-2.51-2-3.12-7.61-3.25-9.32l-.84-1.75.06-1.46-1.25-2,1.59-1a2.07,2.07,0,0,1,.06-1.66l.1-.2,1.66-2.56-1.15-1,1.77-2.5c1.84-4.91-.43-6.76-.53-6.83l-.67-.52.12-.86a2.74,2.74,0,0,0-.39-2.35,4.09,4.09,0,0,0-2.89-.94l-.58,0-3-2.69.19-.82v-.05a1.9,1.9,0,0,0-.43,0l-4.64.87,3.38-3.28a6.44,6.44,0,0,0,.61-.66,9.22,9.22,0,0,0-2.26,0l-.29,0-8.57-2.44-2.28-3.63-.86-2.11c-2.48-2.1-2.11-7-2.05-7.59l0-.21.08-.19c.13-.33.25-.63.35-.9l-.44.48-3.2,3.53-4.16,3.3c-1.31,1.28-7.24,7-9.89,8-1.54.57-1.49,2.94-1.48,3l0,.49-.29.4c-2.78,3.82-4,4.78-4.64,5.05a20.23,20.23,0,0,0-1.05,3.15c-.23.83-.45,1.62-.69,2.28a7,7,0,0,0-.27,3.22l2.47,6.3,1.73,1.47-.19.84s-.25,1.3.34,1.46a8.21,8.21,0,0,1,4,3.33l4.62,1.59c1.94-.9,2.14-.9,2.42-.9h.63l.48.49a1.65,1.65,0,0,1,.41.85,4.78,4.78,0,0,0,1-1l1.29-2.92,2.1-2.54,1.25-.13a13.45,13.45,0,0,1,2.57-2l-.12-.54.15-.4c.9-2.43,4.88-2.4,6.43-2.29,1.71-.42,3.7-.66,4.59.73a2.94,2.94,0,0,1-.52,3.29A20.14,20.14,0,0,1,147,55c-.41.45,0,1.81.31,2.44l.13.24.31,3a3,3,0,0,1,.67,3.41L147.3,67l.48,2.4-.72,3.16a3.43,3.43,0,0,1-1.55,2.09,3.11,3.11,0,0,1-2.51.21c-.84-.25-2.78.47-3.83,1l-.38.21-1-.1-.31.63-2.5.26-4.37,2-.49-.13c-.79-.22-3.13.55-4.82,1.4l-1.54.78-.84-3a15,15,0,0,1-2.43-4,5.8,5.8,0,0,1-2.41.44.56.56,0,0,0-.54.35l-.18.46-1.9,1.12-1.07,1.33-.41.33a4.24,4.24,0,0,0,.77,2.24,3,3,0,0,1,1.48,2.56A4.12,4.12,0,0,1,114.2,86a10.5,10.5,0,0,1-5.57,1.73,5.56,5.56,0,0,1-3.47-.82,5.91,5.91,0,0,1-2.83-1.77,1.51,1.51,0,0,0-.67-.48l-8.48,2.65-1.12-4.49h0L92,82c0-.06-.65-5.78-.9-7.55A63,63,0,0,1,91,67.33l-1.89-.4a20,20,0,0,0-.07,6l.19,1.57-10.32.07-1.53-4.22-.14,4.8-.56,4-.25.31s-1.63,2.14-1.9,6.53c-.23,3.88,1,4.93,1,4.94l.49.31,0,.27c1,.61,5.14,1.37,8.62,1.42.94,0,2.89,0,3.29,1.56a2.24,2.24,0,0,1-1.26,2.4c-3.22,2.87-7.84,7-9.3,8.34a14.79,14.79,0,0,0,1.41,2.28l.56.75-.74,1.28c1.07,4.86.06,7.11-.83,8.1a8.79,8.79,0,0,1-.65,4.61l.19.77v.2a7,7,0,0,0,.15,1.64l1.65-.24-.6,2.11a6.75,6.75,0,0,1-1.07,2.23l0,.42a11.93,11.93,0,0,0,0,2.06l.16,0,.37.82a1.47,1.47,0,0,1-.28,1.51c-.71.83-7.42,4-9.93,4.1l-3.48,1-1.36.92-2,4,0,1.43a10.68,10.68,0,0,1,1.32,2.57C64.16,146.27,66,145.07,66,145l.29-.19.34,0c1.63-.18,3.67.24,4.05,2,.26,1.2.8,5.32.82,5.49l.07.51-.28.43c-.29.45-1,1.15-3.05,1l-1.6,1-4.31-.3L62,156l-.21.08.13.28-.85,1.85,1.16,1.83-2.1.22A5.5,5.5,0,0,0,63.8,164l.22.08,7.66,3.66.49,5.26.07.05.67.5-.11.83.48.16,2.23,7-.15.38.9,1.21,3,5.51a5.44,5.44,0,0,0,3.2,1.67,9,9,0,0,1,5.26,3.36l.05,0a1.18,1.18,0,0,0,.1-.15c1.07-1.82,4.75-5.38,5.16-5.78l.72-.69.9.45c.21.11,2.05,1.11,2.76,4.36l2.74,4.48-.06.49a5.62,5.62,0,0,0,.14,2.44l.28.25.07.3c.29.85,1.74,5.21,1.58,7.3-.18,2.32-2.72,3.29-4.84,3.41a11,11,0,0,0-2.5.26,56,56,0,0,0-2.53,5.56c.16,1.3.26,2.56-.93,3s-3.82,1.2-5.71.74l-.17,0c-1-.23-3.5-.85-4-.39l-.27.24-.35.09c-1.65.4-5.13.08-6.49-4-.24-.73-.44-1.47-.63-2.15-.1-.38-.23-.84-.35-1.23a23.43,23.43,0,0,0-1.24,2.3c-1.12,2.33-1.8,3.7-2.19,4.48-.54,1.08-1.11,2.2-2.37,1.62l-.06,0c-1.44.25-3.74,1-4.71,2.52-.71,1.15-.66,2.74.17,4.71,3.58,8.55,4.62,11.15,4.63,11.17a9.33,9.33,0,0,1-3.13,10.55l-1.9,10.91-.74,1.48,0,2-.06.22a1.19,1.19,0,0,0,0,.82c.1.12.59.29,1.68.11l.24,0,6.49,1.13a6.76,6.76,0,0,1,3.87-2.85,5.78,5.78,0,0,1,4.8,1.21,1.51,1.51,0,0,0,.33,0,1,1,0,0,0,0-.12l0-.68,4.45-3.34,3-3.41,2.61-1.5.76.95c.22.27,5.2,6.5,6.71,10.26l1.92,1.89,2.94-3.39,3.22-3,2.79-3.05,3-5.38,5.79-7.48,6.36,2.19,13.34,1.53,7.07,1.93,8.78,8.75,30.31,33.17,13.63,15.16,12,11.22ZM79.24,264.9Zm212.12-31.46h0Zm.23-.06Zm-9.68-5.25ZM90.36,216.65l0,0Zm1.88-.51v0Zm88.05-88.78h0Zm-2.65-.54ZM178.2,97Zm-1.47-3.34h0ZM95.85,82.38l0,.11A.77.77,0,0,0,95.85,82.38Zm42.65-27.86h0ZM115,32.33h0Z"/></svg>