<svg id="Layer_1" data-name="Layer 1" xmlns="http://www.w3.org/2000/svg" viewBox="0 0 350 350"><defs><style>.cls-1{fill:#999;}.cls-2{fill:#f90;}</style></defs><title>M</title><path class="cls-1" d="M324.21,28.81s-.74-8.11-3.81-8.85-7.25-1.6-11.31-2.21-7.25-3.2-10.69-5.9-12.9-2.34-18.93-3.07-11.43-1.35-14.13,0-5.78,3.56-9,4.18-11.68,8.36-15.61,14.75-7.13,12-8.6,13.89c0,0-2.58,5-7,4.42-.25-3.56,1.23-6.39-1.35-7.87s-4.67-1.6-8.73-2.46-14.87-19-16.84-20.28-5.28-1-7.5-.86S188.41,8.78,184.11,8s-8,1.29-13,1.29-5,4.18-8.36,6.51-6.64,14.13-10.45,15.73S140,37.54,138,38.28s-2.34,2.68-3.2,7.79,2.58,3.63,2.21,6,.37,5.41.74,9.22-.37,17.82-7,22.37-11.18,3.44-13,6.14a12.34,12.34,0,0,1-9.34,5c-3.56,0-4.06,2.7-6.76,6.51s-4.42,4.92-8.11,4.79-2.58,1.6-3.81,4.18-3.44,4.3-3.81,6,1.84,3.2,0,4.3A40.11,40.11,0,0,1,81,123.2c-.74.25-.37,2.7-1,4.92s.61,2.83-5.65,3.44-17.82,1.84-20.28,3.56S39.46,145.69,39,147.29s.61,9.34,1.35,11.8,5.9,5.9,3.56,9.83-2.09,2.21-5.78,2.95-5,4.92-5,7.5a111,111,0,0,1-1.72,13.15c-.74,4.18-5.28,16.59-5.53,20s.86,8.48,3.2,9.22,8.85,4.67,8.73,7.25,2.58,10.94,3.2,11.68,5.53,2.58,6.64,4.92,3.2.49,6.88,2.34,16,2.34,18.19,4.06,4.42,3.07,4.06,5.41-.61,3.93,3.32,5.9,7.13,8.11,7.13,8.11,6.27,16.22,6.27,20.16,8.11,24.58,8.6,27.41,7.5,20.89,7.87,23.23c6.39-3.44,21-11.43,23.84-12.54s3.07,1,4.79,3.2,7.37,7.62,8.73,7.74,2.83-5.78,2.09-6.27-5.65-4.55-4.79-8.23.12-5.65.12-7.5,3.69-8.6,2.83-9.46-2.83-2.95-2.83-2.95l3.07-1.35s-6.76-15-7-16.59,1.84-2.34,3.56-2.34,8.36-2.09,9.83-4.18,7.37,1,12.9-.12,15.73-1.23,16.84-.49,2.46,3.44,4.55,2.46,4.42-3.69,6-3.93.86-2.95-2.46-5.28c-.86-4.67-2.09-7,3.93-11.18-2.34-11.55-2.95-23.84-4.67-26.79s-3.56-5.16-3.44-9.83,4.92-10.2,3.44-16.35-.61-7.74-.37-9.22-2.95-4.18-5.65-2.46-10.94,3.32-14.26,1.35-.86-13-1-15.73,2.83-6.27-.86-8.6-9-10.2-11.55-12.41-2.46,2.09-5-1-6.76-6-6-8.48-.61-12.17-.74-12.54,4.3.37,7.13.49,9.09,1.6,9-1.84-.74-8.23,2.58-9c0,0,4.18.61,4.3-.37s-2-3.69-3.56-3.69-.61-1.84-.61-1.84l-3.93-1.11s10.2-4.55,11.18-5.9.49,6,4.55,3.44,13.89-4.42,17.21-5.53,8.23,1.11,9.59,1.11,4.18-3.32,5.65-5.16.61-14,10.69-18.56,24.46-9.71,33.31-7c3.32-6.51,4.3-5,5.78-7.13s1.11-4.79,6-6.51,9.71-1.84,12.54-3.44,2.7-4.92,2.95-7.87,3.32,6.14,5.41-4.55,6.76-13.76,12.29-15.24,9.22-2.83,11.31-5.16,5.78-.37,9.83-2.95S324.21,28.81,324.21,28.81Z"/><path class="cls-2" d="M108.79,344.4l-.31-2c-.16-1-2-6.18-3.67-10.75-2.37-6.57-3.94-11-4.19-12.46-.16-.95-1.49-4.71-2.89-8.7-3.25-9.21-5.73-16.46-5.73-19,0-2.68-3.66-13.14-6.14-19.56-.34-.64-3.2-5.8-6.47-7.43-4.52-2.26-4.54-4.49-4.08-7.39.18-1.12-.71-1.93-2.78-3.49l-.75-.57c-.83-.65-5-1.27-8.09-1.73-4-.6-7.85-1.17-9.87-2.18a8.1,8.1,0,0,0-3.57-.82c-1.33-.07-3-.15-4-2.17-.55-1.16-2.93-2.45-4.35-3.23a7.34,7.34,0,0,1-2.1-1.39c-.95-1.14-3.66-9.86-3.52-12.65.06-1.31-5.09-5-7.74-5.83-3.3-1-4.45-7-4.18-10.67.15-2,1.53-6.5,3-11.22,1.1-3.52,2.23-7.16,2.55-9a108.72,108.72,0,0,0,1.7-12.9c0-3.08,1.65-8,6.18-8.89a12.62,12.62,0,0,1,2.74-.25c.84,0,.89,0,2.1-2,1-1.73-.05-3.35-1.81-5.62a10.45,10.45,0,0,1-1.9-3.08c-.72-2.41-2-10.52-1.35-12.62.76-2.46,15.51-12.81,15.66-12.91,2-1.41,8.48-2.59,21-3.81,3.19-.31,4-.61,4.13-.76a4.44,4.44,0,0,1,.06-.45,9.6,9.6,0,0,1,.24-1.2,13.82,13.82,0,0,0,.37-2.58c.12-1.47.23-2.87,1.53-3.3a40.3,40.3,0,0,0,4.63-2.45h0c0-.16-.14-.38-.21-.55a4.58,4.58,0,0,1-.47-2.82,9,9,0,0,1,2-3.42,16.05,16.05,0,0,0,1.94-2.91A8.13,8.13,0,0,0,89,108c.44-1.86,1.11-3.38,4.58-3.27,3.13.11,4.41-.68,6.91-4.2.64-.9,1.16-1.75,1.62-2.5,1.51-2.47,2.82-4.61,6.3-4.61A11,11,0,0,0,116.58,89c1.17-1.71,3-2.24,5.18-2.85A25.61,25.61,0,0,0,130,82.46c6-4.12,6.73-17.61,6.4-21.06-.12-1.19-.27-2.31-.41-3.36a22.41,22.41,0,0,1-.32-6.22v-.05l-.29-.21c-1.25-.86-2.54-2.09-1.93-5.73.88-5.22,1.32-7.85,4.1-8.89.87-.33,3.32-1.53,5.91-2.81,2.93-1.44,6.26-3.08,8.29-3.93,1.58-.66,3.54-4.61,5.12-7.78,1.67-3.36,3.25-6.53,5.06-7.81A10,10,0,0,0,164.29,12c1.34-1.92,2.87-4.1,6.8-4.1a27.67,27.67,0,0,0,5.75-.76,18.76,18.76,0,0,1,7.54-.51c3.11.58,4.45,3.12,5.42,5a7.75,7.75,0,0,0,1,1.57h.2c2.44-.14,5.78-.33,8,1.09.87.54,2.14,2.28,5.27,6.74s9.07,12.92,11.11,13.35c.89.19,1.69.34,2.41.48a19.71,19.71,0,0,1,6.72,2.13c2.56,1.46,2.35,3.94,2.16,6.12,0,.51-.09,1-.11,1.55,2.68-.47,4.33-3.61,4.34-3.65l.16-.24c.91-1.13,2.68-4.1,4.74-7.53,1.14-1.9,2.41-4,3.76-6.22,4-6.47,12.8-14.68,16.55-15.4a21.71,21.71,0,0,0,6.18-2.73c.84-.48,1.63-.93,2.43-1.32,2.94-1.47,7.83-1,14.94-.14,1.63.2,3.51.32,5.51.44,5.55.34,11.29.7,14.12,2.93l.27.21c3.18,2.5,6.18,4.86,9.76,5.4s7.8,1.37,11.42,2.24c3.87.93,4.75,8.58,4.89,10.1l0,.48-.25.4c-.14.23-1.52,2.32-5.73,5a12.62,12.62,0,0,1-6.37,1.79c-1.65.12-2.54.22-3.17.91-2.35,2.62-6.17,4-12,5.59-5.38,1.44-9.36,4.39-11.26,14.14-.77,4-1.77,5.87-3.32,6.39a2.64,2.64,0,0,1-2.19-.27c-.2,2.61-.64,5.62-3.54,7.25a22.61,22.61,0,0,1-6.48,1.95,47,47,0,0,0-6.29,1.6c-3,1.05-3.59,2.39-4.26,3.95a10.92,10.92,0,0,1-1.07,2A6.2,6.2,0,0,1,258,81.58c-.82.56-1.85,1.26-3.89,5.27l-.54,1.06-1.14-.35c-8.34-2.55-22.17,2.37-32.31,6.94-6.8,3.07-8.16,10.13-9,14.34-.36,1.84-.59,3.06-1.19,3.81-4,5-5.67,5.69-6.76,5.69a10.42,10.42,0,0,1-2.42-.5c-1.92-.52-4.81-1.32-6.72-.68-1,.34-2.58.73-4.38,1.19-4.15,1-9.83,2.49-12.51,4.19a3.67,3.67,0,0,1-3.35.58,4.48,4.48,0,0,1-2.37-3.14,67.29,67.29,0,0,1-6.67,3.5l1.91.54-.75,1.4a5.86,5.86,0,0,1,2.78,1.87c.5.56,1.64,2,1.48,3.32a1.8,1.8,0,0,1-.71,1.21c-1,.75-3.15.66-4.9.43-1.47.54-1.47,3.1-1.31,6.37,0,.38,0,.75,0,1.11a3.2,3.2,0,0,1-1,2.56c-1.68,1.57-4.85,1.22-7.65.92-.68-.07-1.3-.14-1.8-.16-1.23-.05-2.72-.22-4-.36l-1.39-.15c.44,3.16,1.08,9.41.44,11.54-.29,1,1.77,3,3.27,4.53.85.85,1.72,1.73,2.48,2.63a3.75,3.75,0,0,0,.59.59l.14-.1c.63-.43,2.1-1.44,4.15.32a43.91,43.91,0,0,1,4.25,4.78c2.27,2.77,5.1,6.22,7.13,7.51,3.43,2.17,2.54,5.37,2,7.48a8.13,8.13,0,0,0-.43,2.26,28.76,28.76,0,0,1-.28,3.67c-.33,3-1.1,9.91.57,10.91,2.6,1.54,10.26.27,12.77-1.33a5.12,5.12,0,0,1,5.7.18,4,4,0,0,1,2.11,3.7c0,.24-.1.49-.16.76-.28,1.26-.67,3,.5,7.89,1,4.13-.5,7.89-1.82,11.21a17.82,17.82,0,0,0-1.59,5.51c-.09,3.59,1.05,5.46,2.5,7.84.25.41.5.82.75,1.24,1.11,1.91,1.71,6.4,2.54,12.62.6,4.51,1.28,9.61,2.29,14.6l.18.91-.77.53c-4.66,3.23-4.35,4.75-3.61,8.41l.16.79c2.42,1.85,3.72,4.07,3.33,5.74a2.27,2.27,0,0,1-1.94,1.76,9.48,9.48,0,0,0-2.48,1.65,17,17,0,0,1-3.16,2.16c-2.46,1.16-4.25-.8-5.22-1.85a8.08,8.08,0,0,0-.66-.67c-1.48-.46-10.55-.4-15.83.66a23.22,23.22,0,0,1-8.19-.25c-1.16-.18-3.58-.56-3.84-.2-1.85,2.63-9.12,4.78-11,4.78a3,3,0,0,0-2.17.66c.23,1.18,4.17,10.22,6.9,16.27l.59,1.3-2.54,1.12c.51.54,1.06,1.11,1.42,1.46,1.1,1.1.46,2.83-1.08,6.63a21.86,21.86,0,0,0-1.34,3.84,13.83,13.83,0,0,0,.12,1.5,16.74,16.74,0,0,1-.28,6.32c-.6,2.55,3.14,6,4.2,6.73,1.47,1,.67,4,.07,5.69-.29.83-1.18,3.33-3.08,3.17-2.34-.21-8.67-6.94-9.72-8.28a19,19,0,0,1-1.09-1.6c-1-1.54-1-1.56-2.06-1.14-2.3.9-13.45,6.93-20.11,10.53ZM42,239.77c.23.16.8.47,1.27.73,1.95,1.06,4.61,2.51,5.55,4.5.21.44.23.49,1.53.56a10.8,10.8,0,0,1,4.7,1.12c1.61.8,5.54,1.39,9,1.91,5,.74,8.06,1.24,9.41,2.3l.72.55c2,1.54,4.32,3.28,3.86,6.19-.34,2.17-.46,2.9,2.55,4.41,4.29,2.15,7.61,8.46,7.75,8.73l.06.14c.65,1.69,6.36,16.59,6.36,20.67,0,2.21,3.35,11.72,5.57,18,1.79,5.09,2.82,8,3,9.15.23,1.33,2.27,7,4.07,12,1.54,4.29,2.68,7.46,3.29,9.4l2-1.09c9.47-5.12,18.15-9.79,20.42-10.68,3.26-1.28,4.55.77,5.49,2.27a16.57,16.57,0,0,0,.93,1.37,45.42,45.42,0,0,0,7.42,7,11.28,11.28,0,0,0,1.06-3.8c-1.44-1.15-5.95-5.17-5-9.41a14.09,14.09,0,0,0,.22-5.36,16,16,0,0,1-.14-1.82c0-1,.59-2.54,1.54-4.9a30.09,30.09,0,0,0,1.39-3.87c-1-1-2.55-2.67-2.55-2.67l-1.37-1.46,3.6-1.58c-2-4.52-6.3-14.16-6.53-15.65a2.91,2.91,0,0,1,.68-2.37,5.84,5.84,0,0,1,4.29-1.6c1.6,0,7.61-2.07,8.67-3.58,1.28-1.81,3.74-1.42,6.6-1a20.69,20.69,0,0,0,7.19.27c4.9-1,16.11-1.48,17.9-.28a7.19,7.19,0,0,1,1.23,1.16c1.07,1.17,1.47,1.41,1.92,1.2a15.14,15.14,0,0,0,2.59-1.81,11.31,11.31,0,0,1,3.35-2.13,7,7,0,0,0-2.59-2.83l-.47-.33-.1-.57c-.08-.46-.17-.89-.25-1.3-.84-4.15-1.09-7,4-10.76-.93-4.79-1.57-9.61-2.14-13.89-.7-5.22-1.35-10.15-2.18-11.57-.24-.41-.48-.8-.72-1.19-1.49-2.44-3-5-2.92-9.39a19.66,19.66,0,0,1,1.78-6.48c1.22-3.07,2.48-6.25,1.7-9.5-1.33-5.55-.84-7.74-.51-9.18,0-.21.09-.41.13-.6a3,3,0,0,0-1.36-1.13,2.21,2.21,0,0,0-2.14.1c-2.9,1.85-11.75,3.74-15.74,1.38-3-1.78-2.66-7.24-1.94-13.66a29.74,29.74,0,0,0,.27-3.23,10.15,10.15,0,0,1,.53-3.15c.66-2.38.77-3.36-.74-4.32-2.42-1.53-5.28-5-7.81-8.11a44.19,44.19,0,0,0-3.91-4.43,1.46,1.46,0,0,0-.49-.32s-.12.12-.22.19c-1.08.74-2.56,1.29-4.5-1-.68-.81-1.51-1.65-2.32-2.45-2.44-2.45-4.75-4.77-4-7.35.56-1.86-.47-10.4-.74-11.74l-.23-.68.49-.64c.61-.76,1.27-.68,4.44-.34,1.27.14,2.71.29,3.85.34.56,0,1.24.1,2,.18,1.63.18,4.67.51,5.41-.18,0,0,.11-.1.1-.38s0-.71,0-1.08c-.17-3.55-.41-8.41,3.74-9.33l.25-.06.26,0a16.93,16.93,0,0,0,2.23.17c-.51-.68-1.3-1.41-1.7-1.41a2.22,2.22,0,0,1-2-1,2.26,2.26,0,0,1-.31-1.24l-6.38-1.79,3.58-1.6c4.56-2,9.93-4.71,10.64-5.47a1.6,1.6,0,0,1,1.61-.69c1.07.19,1.34,1.19,1.61,2.15.34,1.23.63,1.9.86,2,0,0,.3,0,.81-.33,3.06-1.95,8.76-3.39,13.33-4.55,1.75-.44,3.26-.83,4.18-1.13,2.73-.91,6.12,0,8.37.64a13.14,13.14,0,0,0,1.67.4c.31-.09,1.8-1.2,4.54-4.63a14.48,14.48,0,0,0,.62-2.57c.86-4.44,2.45-12.72,10.6-16.39,10.15-4.58,23.94-9.46,33.16-7.37,2-3.78,3.28-4.62,4.28-5.3a3.45,3.45,0,0,0,1.07-1,8.49,8.49,0,0,0,.79-1.54c.78-1.8,1.75-4,5.92-5.49a50,50,0,0,1,6.66-1.7,21,21,0,0,0,5.65-1.64c1.72-1,2-2.8,2.16-5.71,0-.35,0-.7.08-1a1.91,1.91,0,0,1,1.12-1.81,2.18,2.18,0,0,1,2.29.77,5.5,5.5,0,0,0,.63.51c.22-.26.8-1.18,1.39-4.17,1.37-7,3.93-13.83,13.32-16.34,5.17-1.38,8.75-2.65,10.62-4.74,1.41-1.58,3.27-1.72,5.07-1.85a10,10,0,0,0,5.05-1.35,19.9,19.9,0,0,0,4.58-3.76c-.38-3.23-1.51-6.78-2.67-7.06-3.55-.85-7.62-1.65-11.19-2.19-4.32-.65-7.61-3.24-11.09-6l-.27-.21c-2.14-1.68-7.67-2-12.55-2.33-2-.13-4-.25-5.68-.45C274.19,9.56,268.38,8.85,266,10c-.73.36-1.49.8-2.29,1.25a24.1,24.1,0,0,1-7,3C254.15,14.83,246,22,242,28.45c-1.35,2.19-2.61,4.3-3.75,6.19-2.22,3.71-3.84,6.41-4.88,7.74-.5.9-3.41,5.74-8.39,5l-1.14-.16-.08-1.15a20.73,20.73,0,0,1,.1-3.32c.2-2.27.15-2.9-.74-3.41a17.13,17.13,0,0,0-5.85-1.81c-.74-.14-1.55-.3-2.46-.49-2.91-.62-7.16-6.4-12.84-14.5a58.43,58.43,0,0,0-4.47-6c-1.48-.92-4.42-.76-6.36-.65l-.28,0c-1.88.1-2.76-1.59-3.54-3.09s-1.67-3.18-3.43-3.51a16.38,16.38,0,0,0-6.45.5,30.38,30.38,0,0,1-6.32.82c-2.45,0-3.26,1.15-4.47,2.89a12.6,12.6,0,0,1-3.07,3.36c-1.23.86-2.78,4-4.16,6.75-2.06,4.14-4,8.06-6.56,9.13-2,.82-5.24,2.44-8.14,3.86s-5.17,2.54-6.17,2.92-1.46,1.73-2.3,6.7c-.36,2.16.12,2.5.74,2.92a2.85,2.85,0,0,1,1.47,3,20.78,20.78,0,0,0,.33,5.39c.15,1.09.3,2.23.42,3.47.28,2.85.06,18.41-7.61,23.67a28.45,28.45,0,0,1-9,4c-2,.57-3.05.9-3.61,1.73a13.68,13.68,0,0,1-10.51,5.66c-1.81,0-2.37.78-3.88,3.25-.48.79-1,1.69-1.72,2.66-2.68,3.77-4.77,5.54-9.31,5.39-1.46,0-1.46,0-1.73,1.09A10.76,10.76,0,0,1,91,110.9a18.53,18.53,0,0,1-2.27,3.44,7.55,7.55,0,0,0-1.44,2.27,2.44,2.44,0,0,0,.31,1.13c.35.84,1.18,2.81-1,4.09a49.82,49.82,0,0,1-4.7,2.51c0,.28-.07.7-.1,1a16.32,16.32,0,0,1-.47,3.12,6.74,6.74,0,0,0-.17.86c-.39,2.63-1.78,3.13-6.71,3.61-14.29,1.4-18.55,2.58-19.6,3.31-4.51,3.15-13.57,10-14.59,11.5-.27,1.36.6,8.3,1.37,10.9a9.35,9.35,0,0,0,1.42,2.16c1.63,2.11,4.09,5.29,2,8.8-1.68,2.84-2.45,3.42-4.5,3.42h-.23a9.39,9.39,0,0,0-2,.19c-2.84.57-3.9,4-3.9,6.11a110.23,110.23,0,0,1-1.74,13.4c-.35,2-1.46,5.54-2.63,9.31-1.29,4.15-2.76,8.86-2.88,10.58-.25,3.56,1,7.39,2.21,7.76,2,.65,9.9,4.86,9.71,8.67C39.05,231.24,41.37,238.51,42,239.77Zm106.43,95.69.09.06ZM40.27,147.83h0Zm45-28.53ZM135.65,51.7Z"/></svg>