<svg id="Layer_1" data-name="Layer 1" xmlns="http://www.w3.org/2000/svg" viewBox="0 0 350 350"><defs><style>.cls-1{fill:#999;}.cls-2{fill:#f90;}</style></defs><title>M</title><path class="cls-1" d="M204.8,8.45l-5,4.14L196.41,16s-3.84,3.94-5.05,5l-2.83,3.64s-2.25,4-3.31,4.7A75.9,75.9,0,0,0,179.65,35c-.27.3-4.78,0-4.78,0s-6.26,1.63-6.86,1.21a5.46,5.46,0,0,1-1.48-2.35c-.45-1.06-1.1-2.35-1.1-2.35a24.62,24.62,0,0,1-2.62-1.63c-.49-.45-2.09-1.14-2.58-1.55a18,18,0,0,0-1.52-1.06l-1.74,1a21.44,21.44,0,0,0,0,3.15,64.93,64.93,0,0,0,2.09,7.39c.95,2.27,1.82,3.45,1.9,4.47s1,7.85,1,7.85.8,3.15,1,4.74,1.33,10.73,1.33,11.26,1.06,5.72,1.1,6.52.68,6.52.38,7.16a2.16,2.16,0,0,1-1.29,1,49.47,49.47,0,0,0-5.31,0c-.42.19-1.93,3.34-2.08,3.79s-2.31,5.19-2.46,5.61-1.18,3.3-2.27,3.9a13.42,13.42,0,0,1-1.48,1.4c-.19,0-5.46,2.08-5.61,2.27s-1.71,2-1.71,2v1.33s.83,3.53.87,4,.38,1.93.38,2.08a10.64,10.64,0,0,1-1.25,2.27,7.41,7.41,0,0,0-1.29,2.81s-1.71,2.65-1.18,3.75-4.78.34-4.78.34a20.82,20.82,0,0,1-1.14,3.18c-.34.42-3.07,4.81-4.32,6.26,0,0,.57,3,.76,3.56s-.61,1-.45,1.78.8,2,.87,2.81a11.31,11.31,0,0,1-.83,3.26c-.15.38-.53,1.44-2.58,1.59l-2,6.6-6.94,5.5L120,158a2.57,2.57,0,0,1-.95,2.39,51.36,51.36,0,0,0-4.51,3.9l-.76,1.14s-2.24,6.52-2.24,7.24-1.25,2-1.78,2.35a9.49,9.49,0,0,1-2.35,1.14,1.59,1.59,0,0,0-1.1.61c0,.15-1,2-1,2v1.59s2.24,2.35,2.5,2.58,5,2.58,5.65,2.88,2.5,2.24,3.15,2.58,3.49-.72,3.68-.53-.57,1.74,0,2.62.59,3.35,2.59,3a42.67,42.67,0,0,1,8.37-1.11l3.6-.08s.19,7.43-.08,8a6.06,6.06,0,0,1-.95,1.67,2.93,2.93,0,0,1-2,0c-.3-.19.45,1.74.45,1.74s.53,1.44-1-.19a11.67,11.67,0,0,0-2.73-2.5c-.45-.19-4.44-1.1-4.93-1.25s-9.67-1.4-9.67-1.4l-1.52,1.18a20.56,20.56,0,0,0,1.18,2.43c.45.68,1.29.91,1.29,1.4s-.11,2-.64,2.39-2,4.28-2,4.28L108.87,218s-.83.87,0,2.65a8.77,8.77,0,0,1,.76,3.64s-1.18,8.8-.27,11.11c0,0-2.2,8.57-2.35,9.7s-1.86,3-2.88,3.64a63.35,63.35,0,0,0-5.27,5.16s-4.09,6.82-4.25,7.16-5,4.06-5.42,4.93l-1.4,2.12-.27,3.83,1.21,2.31.68,1.86,1.82,1.14-1.67,1.36-2,1.4H85.67l-2.54-1.33-2.2.23L79.3,280.6l.38,6.63a2.18,2.18,0,0,1-.64,1.48,3.19,3.19,0,0,0,1.52,2.58s4.81,3.18,5.16,4.28a18,18,0,0,1,0,4.28c0,.23-.57,1.9,2,1.78s4.21-.72,5.35.27c0,0,6.37,2.62,7.51,3.87s1.63.87,1.82,1.59a7.12,7.12,0,0,0,3.15,3.64c1.9,1.06,2.81,1.82,4.89,1.93,0,0,1.55.27,1.67.8s1.14,3.49,1.14,3.49,0,1.48,1.86,1.63a3.55,3.55,0,0,1,2.88,1.63,9.55,9.55,0,0,0,3.11,2.84l2.27,1.25,5.31,7.7.91,3.6,11.87,4.44s1.36,1.14,5.31,1.63l5.16.34,2.54-1.25.64-1.4-1.36-1.36-9.29.27-1.86-1.36.23-1.67,3.49-3.79,9.33-.38,1.48-.95-.68-3.15-5.19-3.07-3.11-3.3.11-2.88,2.31-3,1.36-7,3.15-5.42L153,296.93l5.61-1.63a30,30,0,0,0,5,1.36c1.48.11,3.37-1.36,3.37-1.36l3.22,4.17,2.65,0,9.82-9.25,10.88-7s8,.91,9.7.61-4.45-2.63-5.41-4.09-2-3-2-3a11.13,11.13,0,0,0-1.16-3.44c-.81-1.26-1-4.35-1-4.35l10.11-12,5.41-4.09s.2-12.74.3-13.7.3-8.09,1.47-11.57l.81-2.43,1.26-1.62L223,217l8.64-3.74,3.18-.3a74.94,74.94,0,0,0,7.68,1.67,12.26,12.26,0,0,1,4.45,1.57,12.08,12.08,0,0,0,3.44,1c1.62.2,4.6.51,6.52-.1a8.45,8.45,0,0,0,4.2-2.73,8.78,8.78,0,0,1,2.22-1.26s5.21-2.73,7-5.51c0,0,2.58-2,.81-3.49s-7.58-6.17-7.94-6.92c0,0-3.54-3-4.25-3.94s-2.73-2.78-2.73-3.34a27.14,27.14,0,0,0-.91-3.39c-.3-1.11-2.27-3.64-2.63-5.05S249.44,170,249.23,169l-.2-.66s-2.27-1.31-2.73-1.72-3.74-3.29-3.89-4.45a18,18,0,0,1-1.82-3.34c0-.56-1.11-2.53-1-3.34s.2-8.64.1-10.87a37.79,37.79,0,0,0-1.16-6.32c-.15-.56-2.68-.56-3-1.87s-2.58-5.71-2.73-6.77-1.06-3.94-.61-5.05,2.78-4.65,3-5.26,1.62-1.62.61-2.63-5-1.92-5.11-1.87-4.3.45-4.85.56-3.34,0-3.54,1.11-2.22,3.84-2.53,4.4-1.52,4.45-1.62,4.65a2.35,2.35,0,0,1-2.33.3c-.86-.51-6.22-3-6.42-3.64s.76-1.26,1.31-2.12a8.5,8.5,0,0,0,1-4c-.2-.56-2.48-.91-2.83-.2s-2.38,1.87-2.38,3.39-2.07,4.14-2.07,4.5a8.48,8.48,0,0,1-2.17,2.43c-.2-.05-2.17,1.06-2.33-1.62a3.11,3.11,0,0,0,.81-4.25c-1.57-2.58-3-1.06-2.88-1.16s.15-3.54.86-4.5a38.83,38.83,0,0,0,2.83-7.94c-.1-.51-.91-1.11-1.26-.76,0,0-.56-1.82-2-1.11s-1.36-.91-.66-1.62,1.36-1.67.15-1.82-2.78.35-3,.1a1.83,1.83,0,0,1,.25-1.92,4.49,4.49,0,0,0,1.67-1.92c.3-.86,2.07-1.16,2.78-1s3.94-2.07,4.55-3.23,3.08-1,3.89-1.92.81-3.54.91-4.09,6.37-1.82,6.77-1.26,1,2.12,2.53,2.83.81,3.54.81,3.54,3.84,3.34,5.61,0l.56-4s7.13-2.07,7.73-3.89.69-4.32,6.31-8.19c0,0,5.38-2.73,5.69-3.53s1.59-5,2.39-6.14-1.67-4.09-2.2-5.19-1.74-4.89-2.69-6.56S240.26,48,240,47.15s-2-7.58-4.06-8.83a20.87,20.87,0,0,1-5.31-5.16c-.49-.95-4.06-6.37-6.86-6.94s-6.26-1-8.15-2.54-4.62-4.13-5.65-6.79-3.15-7-3.6-8.44S204.8,8.45,204.8,8.45Z"/><path class="cls-2" d="M152.22,343.71l-5.53-.37a13.82,13.82,0,0,1-5.88-1.78l-12.39-4.63-1-4.07-5-7.21-2-1.09a10.74,10.74,0,0,1-3.65-3.37,2.11,2.11,0,0,0-1.67-.93,3.21,3.21,0,0,1-3.24-2.77c-.24-.7-.74-2.17-1-3a4.64,4.64,0,0,0-.58-.16,9.15,9.15,0,0,1-4.54-1.61l-.87-.5a8.66,8.66,0,0,1-3.75-4.26,5.5,5.5,0,0,1-1.58-1.25c-.55-.61-4.06-2.3-7-3.51l-.21-.09-.18-.15c-.34-.29-1-.23-2.32-.09-.61.07-1.28.14-2,.17a3.51,3.51,0,0,1-2.91-1,2.76,2.76,0,0,1-.57-2.35s0,.07,0,.1,0-.2,0-.42a13.91,13.91,0,0,0,0-3.36,27.12,27.12,0,0,0-4.56-3.57,4.57,4.57,0,0,1-2.2-3.76l0-.73.58-.44a2.79,2.79,0,0,0,.07-.36l-.41-7.15,2.42-2.53,3.14-.33L86,278.57h1.07l1.73-1.2-.56-.35-.82-2.23-1.36-2.59.32-4.6L88,265.25c.38-.7,1.41-1.62,4-3.78.56-.46,1.24-1,1.48-1.26.42-.76,1.83-3.14,4.2-7.08l.18-.24c1-1.1,4.47-4.75,5.58-5.41a6.39,6.39,0,0,0,2.2-2.61c.14-1.08,1.76-7.44,2.28-9.48-.72-2.86.11-9.64.32-11.25a7.4,7.4,0,0,0-.63-2.93,3.86,3.86,0,0,1,0-4l3.27-7.73c1.41-3.64,2-4.48,2.38-4.77a4,4,0,0,0,.18-.93,4.26,4.26,0,0,1-1-1,20.41,20.41,0,0,1-1.31-2.67l-.41-1,2.84-2.2.59.08c6.16.84,9.49,1.33,9.89,1.45.18.06.87.22,1.66.41,2.26.55,3.07.75,3.39.89a5.75,5.75,0,0,1,1.66,1.24l.09-.08.79-.65.79.47a2.32,2.32,0,0,0,.52,0c.09-.16.23-.43.43-.88.09-.67.09-3.43,0-6.14l-2.19,0a41.43,41.43,0,0,0-8.08,1.08l-.11,0c-2.68.4-3.46-2-3.8-3.1a5.2,5.2,0,0,0-.22-.61,2.94,2.94,0,0,1-.4-1.58,3.9,3.9,0,0,1-2.69,0,10.8,10.8,0,0,1-1.79-1.44,15.56,15.56,0,0,0-1.32-1.12s-5.42-2.63-5.94-3.07c-.28-.24-1.75-1.78-2.61-2.68l-.39-.41v-2.51l.16-.31c.38-.72.83-1.61.91-1.81a2.88,2.88,0,0,1,2.29-1.53,14.05,14.05,0,0,0,1.53-.81l.25-.15a4.35,4.35,0,0,0,1.07-1.24c0-.38.27-1.65,2.31-7.58l.16-.33,1-1.38a49.1,49.1,0,0,1,4.75-4.09c.3-.19.3-.85.28-1v-.11l-.3-6.83,7.16-5.67,2.16-7.1,1-.07c1.12-.08,1.27-.46,1.36-.68a11.36,11.36,0,0,0,.75-2.64,6.38,6.38,0,0,0-.38-1.2,8.91,8.91,0,0,1-.47-1.46,2.79,2.79,0,0,1,.4-2c-.22-.87-.56-2.6-.7-3.4l-.13-.67.45-.52c.79-.91,2.34-3.28,3.27-4.7.58-.89.82-1.26,1-1.45A24.72,24.72,0,0,0,135,117l.34-1.19,1.22.17a22.31,22.31,0,0,0,3.08.24,8.74,8.74,0,0,1,1.32-3.45,9,9,0,0,1,1.63-3.28,12.83,12.83,0,0,0,.8-1.44l-.06-.3c-.14-.68-.24-1.19-.27-1.51s-.46-2.19-.84-3.77l0-.33v-1.86l.35-.4s1.49-1.71,1.67-1.93c.5-.63,4.71-2.17,6-2.64.21-.18.7-.67,1.13-1.12l.15-.16.19-.11a8.12,8.12,0,0,0,1.62-3.12c.09-.25.39-.92,1.11-2.53.5-1.12,1.26-2.82,1.36-3.09,0,0,1.62-4.07,2.84-4.62.37-.17.67-.3,5.67-.13l.18-.12c.05-.94-.23-4-.34-5.19-.06-.65-.11-1.15-.11-1.35s-.35-2.11-.56-3.29a28.86,28.86,0,0,1-.54-3.3c0-.66-1.08-9.42-1.31-11.06s-1-4.56-1-4.59l0-.15c-.1-.7-1-6.9-1-7.94a6.63,6.63,0,0,0-.7-1.7c-.31-.62-.69-1.39-1.09-2.33a53.65,53.65,0,0,1-2-6.85c-.08-.35-.14-.6-.17-.7a14.68,14.68,0,0,1-.05-3.62l0-.76,3.14-1.84.73.46a18.57,18.57,0,0,1,1.68,1.18,10.3,10.3,0,0,0,1,.55,8.64,8.64,0,0,1,1.67,1,23.32,23.32,0,0,0,2.34,1.43l.38.21.2.39c0,.05.67,1.34,1.13,2.43a8.65,8.65,0,0,0,.8,1.55,48.49,48.49,0,0,0,5.88-1.23l.22-.06.23,0c1.44.1,3.19.16,3.94.12a63.14,63.14,0,0,1,5.52-5.57,22.38,22.38,0,0,0,2.87-4.23l.12-.17,3-3.86c.95-.79,3.89-3.77,4.95-4.85l3.54-3.53,4.84-4.05a2.52,2.52,0,0,1,2.26-1A2.09,2.09,0,0,1,207.69,8c.21.68.93,2.27,1.62,3.82s1.45,3.23,2,4.54c1,2.71,4.25,5.42,5.21,6.19,1.34,1.07,3.95,1.57,6.25,2l1.3.25c3.85.78,7.8,7.6,7.84,7.67a20.3,20.3,0,0,0,4.79,4.6c1.93,1.18,3.28,5,4.44,8.88.1.33.17.57.21.68.11.3.25.85.51,1.87a36.23,36.23,0,0,0,1.78,5.83A36.81,36.81,0,0,1,245.52,59c.32.86.62,1.67.79,2,.1.2.36.61.62,1,1.16,1.8,2.61,4,1.45,5.63a32.33,32.33,0,0,0-1.85,4.75c-.16.49-.29.87-.36,1.06-.17.46-.5,1.3-6.28,4.24-4.44,3.08-5,5.06-5.46,6.66-.08.26-.15.52-.23.76-.66,2-4.84,3.62-7.8,4.54L225.94,93l-.12.22a3.9,3.9,0,0,1-2.77,2.17c-2.4.44-4.76-1.54-5-1.76l-.66-.57.21-.84a3.06,3.06,0,0,0,0-1.91,6.47,6.47,0,0,1-2.81-2.84,23.26,23.26,0,0,0-4.55.86A7.53,7.53,0,0,1,209,92.47a4.75,4.75,0,0,1-2.56,1.29,4.5,4.5,0,0,0-1.19.42c-.66,1.29-4.42,4.27-6.07,3.91a2.47,2.47,0,0,0-1.2.24,4.88,4.88,0,0,1-1.2,1.7,6.27,6.27,0,0,1,1.15,0,2,2,0,0,1,1.82,1.31,2.28,2.28,0,0,1-.37,2,2.39,2.39,0,0,1,.48.15,2.91,2.91,0,0,1,1.24,1.06h0a2.69,2.69,0,0,1,1.79,1.91c.25,1.25-2.44,8.19-3.08,9.05a7.47,7.47,0,0,0-.38,2,4.23,4.23,0,0,1,2.47,2.1,4.42,4.42,0,0,1-.29,5.28h.05a13.09,13.09,0,0,0,1.37-1.52,5.63,5.63,0,0,1,.67-1.27,9.26,9.26,0,0,0,1.35-2.8c0-1.62,1.23-2.79,2.05-3.57a6.26,6.26,0,0,0,.5-.51c.21-.43.87-1.21,2.6-1.12.54,0,2.33.23,2.8,1.52s-.48,4.29-1.1,5.25a8,8,0,0,1-.74.94c1,.61,2.88,1.55,3.79,2,.74.38,1.34.68,1.58.82a1.13,1.13,0,0,0,.45-.06l.24-.73a33,33,0,0,1,1.29-3.63c.09-.17.31-.5.6-.93a18.19,18.19,0,0,0,1.78-3c.36-2,2.92-2.14,4.29-2.22l.4,0c.31-.06,1.28-.16,2.84-.33.92-.1,1.78-.19,2-.22h0c1.22-.13,5.3,1.17,6.38,2.25,1.6,1.6.31,3.33-.11,3.9a3,3,0,0,0-.19.27,17.75,17.75,0,0,1-1.35,2.41c-.6,1-1.42,2.36-1.62,2.85a11.35,11.35,0,0,0,.44,3.05c.12.51.22,1,.26,1.27a29.36,29.36,0,0,0,1.26,3A27.51,27.51,0,0,1,236.9,136a4.7,4.7,0,0,0,1,.42c.75.23,1.68.52,1.94,1.49a39.53,39.53,0,0,1,1.21,6.63c.1,2.1,0,10.1-.11,11.11a11.67,11.67,0,0,0,.5,1.37,6.14,6.14,0,0,1,.51,1.61,23.56,23.56,0,0,0,1.6,2.74l.18.27,0,.32a17.86,17.86,0,0,0,3.38,3.53,29.89,29.89,0,0,0,2.54,1.59l.48.28.4,1.33c.11.54,1.2,4.47,2,7.35.65,2.34,1.22,4.36,1.37,5a13,13,0,0,0,1.3,2.47,11.7,11.7,0,0,1,1.32,2.56c.09.34.22.75.34,1.15a15.2,15.2,0,0,1,.6,2.3,19.11,19.11,0,0,0,1.31,1.49c.44.47.86.92,1.15,1.29a54.15,54.15,0,0,0,4,3.74l.23.2.09.19c.67.82,5,4.37,6.63,5.73l1,.79a2.89,2.89,0,0,1,1.13,2.32,4.77,4.77,0,0,1-1.78,3.22c-2,2.93-6.83,5.52-7.38,5.81l-.12.05a8.32,8.32,0,0,0-1.76,1,10,10,0,0,1-4.78,3.07c-2.13.67-5.08.41-7.12.16a13.5,13.5,0,0,1-3.82-1.06c-.17-.07-.39-.19-.65-.32a9,9,0,0,0-3.37-1.14,70,70,0,0,1-7.67-1.64l-2.71.26-8.33,3.6-9.71,6.28-1,1.24-.73,2.19c-.9,2.69-1.2,7.92-1.33,10.16,0,.54-.06.94-.07,1.12-.07.69-.22,8.69-.3,13.57v.69l-5.83,4.42L195,269.33a9.63,9.63,0,0,0,.74,3.12,11.58,11.58,0,0,1,1.31,3.65c.34.5,1.13,1.68,1.87,2.8a15.37,15.37,0,0,0,2.89,1.85c2.15,1.19,3.23,1.79,3,3.08a1.63,1.63,0,0,1-1.43,1.33c-1.62.29-7.52-.31-9.61-.54l-10.35,6.67-10.12,9.54-3.91.06-2.85-3.7a5.86,5.86,0,0,1-3.16.88,26.42,26.42,0,0,1-4.9-1.29l-3.7,1.08,1.82,4.84-3.36,5.8-1.38,7.07-2.24,2.9-.07,1.83,2.56,2.72,5.55,3.28,1,4.71-2.63,1.69-9.12.37-2.79,3-.05.39.79.58,9.41-.27,2.49,2.49-1.27,2.76Zm-8.11-3.76a17.24,17.24,0,0,0,2.84.58l4.69.31,1.77-.91-.24-.24Zm-1.73-.74a6.15,6.15,0,0,0,1.57.68l-2.85-2.1.4-2.94,4.19-4.55,9.53-.39.33-.21-.34-1.58-4.83-2.86-3.65-3.88.16-3.93,2.38-3.09,1.35-6.88,2.93-5L151.09,296l7.52-2.19.43.16a27.08,27.08,0,0,0,4.6,1.29,5.07,5.07,0,0,0,2.39-1.07l1.12-.88,3.66,4.74,1.39,0,9.62-9,11.31-7.29.5.06c1.51.17,3.42.36,5.12.49a6.71,6.71,0,0,1-2.17-1.79c-1-1.46-2-3-2-3l-.17-.26-.05-.31a9.51,9.51,0,0,0-1-2.9c-1-1.5-1.19-4.44-1.23-5l0-.57,10.71-12.68,4.86-3.68c.05-3.14.21-12.24.3-13.13,0-.16,0-.51.06-1,.15-2.55.45-7.85,1.47-10.89l.89-2.66,1.56-2,10.42-6.71,8.85-3.83,3.66-.35.25.07a70.21,70.21,0,0,0,7.45,1.63,11.64,11.64,0,0,1,4.42,1.45l.46.23a10.72,10.72,0,0,0,3.05.86,15.53,15.53,0,0,0,5.92,0,7.11,7.11,0,0,0,3.5-2.24l.19-.2a10,10,0,0,1,2.55-1.48c1.4-.74,5.12-3,6.38-5l.13-.2.19-.15a2.56,2.56,0,0,0,.89-1.18h0l-.11-.1-1-.79c-5-4.14-6.59-5.54-7.14-6.28a50.83,50.83,0,0,1-4.3-4c-.2-.26-.6-.68-1-1.09-1.38-1.48-2.05-2.23-2.05-3.12,0-.24-.32-1.2-.49-1.78s-.27-.87-.37-1.24a12.85,12.85,0,0,0-1-1.83,13.54,13.54,0,0,1-1.63-3.25c-.14-.57-.73-2.67-1.35-4.9-1.12-4-1.87-6.74-2-7.47l0-.07a22.88,22.88,0,0,1-2.48-1.61c-3.39-3-4.1-4.3-4.29-5-1.73-2.67-1.89-3.42-1.9-3.78,0-.17-.21-.56-.31-.82a5.91,5.91,0,0,1-.69-2.79c.09-.74.19-8.44.09-10.63a33.93,33.93,0,0,0-1-5.48l-.19-.06c-1-.3-2.58-.8-2.94-2.39a29.71,29.71,0,0,0-1.27-3.09,19.42,19.42,0,0,1-1.48-3.8c0-.25-.12-.62-.22-1-.45-2-.77-3.61-.3-4.75a30.76,30.76,0,0,1,1.82-3.24c.44-.73,1-1.72,1.14-2a3.46,3.46,0,0,1,.56-.94l.23-.32a15.75,15.75,0,0,0-3.91-1.33l-2,.22c-1,.1-2.4.26-2.64.3s-.4,0-.72.07a8.7,8.7,0,0,0-1.76.24,17,17,0,0,1-2.13,3.78c-.22.33-.39.58-.47.71-.16.33-.79,2.24-1.09,3.15a13.65,13.65,0,0,1-.5,1.45,2.45,2.45,0,0,1-1.6,1.1,3.4,3.4,0,0,1-2.71-.21c-.22-.13-.76-.4-1.43-.74-4.77-2.42-5.35-2.88-5.62-3.67A2.75,2.75,0,0,1,209,120a6.08,6.08,0,0,0,.52-.65,8.75,8.75,0,0,0,.72-2.38l-.38,0a7.26,7.26,0,0,1-.82.86c-.44.41-1.17,1.1-1.17,1.51,0,1.32-.84,2.78-1.77,4.29-.17.28-.32.5-.39.65a9.84,9.84,0,0,1-2.45,3,1.76,1.76,0,0,1-.9.4,3,3,0,0,1-2.67-.27,3.32,3.32,0,0,1-1.23-2.68l0-.79.65-.45a1.64,1.64,0,0,0,.41-2.35c-.39-.63-.66-.79-.74-.82l-.14.11-.8.53-1.59-1.08.21-.94a1.35,1.35,0,0,1,.06-.2c0-.14,0-.34.05-.57.16-1.8.34-3.37,1-4.27a39.08,39.08,0,0,0,2-5.24l-.67-2.2a1.18,1.18,0,0,0-.1-.2,2.06,2.06,0,0,1-2.69-.51,2.61,2.61,0,0,1,0-2.76H196c-.87.12-1.76.24-2.36-.51a3.17,3.17,0,0,1-.44-2.18,2.52,2.52,0,0,1,1-1.77,3.15,3.15,0,0,0,1.17-1.25c.58-1.64,2.87-2.12,4.16-2a10.16,10.16,0,0,0,3.25-2.46,4.18,4.18,0,0,1,2.94-1.8,4.65,4.65,0,0,0,1.14-.4,6.77,6.77,0,0,0,.51-2.66c0-.34.05-.61.08-.76.18-1,1-1.43,3.46-2,4.93-1.12,5.48-.36,5.85.15.11.15.23.36.37.6a4,4,0,0,0,1.61,1.78c1.58.74,1.94,2.56,1.76,4.2a3.33,3.33,0,0,0,2,.67,1,1,0,0,0,.67-.52l.64-4.63.88-.26c3.2-.93,6.38-2.35,6.81-3l.16-.57c.55-1.94,1.31-4.58,6.65-8.27l.16-.1a38.28,38.28,0,0,0,5.07-2.95l.26-.77A29.89,29.89,0,0,1,246,66.17a11.86,11.86,0,0,0-1.41-2.61,13.64,13.64,0,0,1-.79-1.32c-.23-.48-.52-1.27-.9-2.27a36.24,36.24,0,0,0-1.75-4.21A32.83,32.83,0,0,1,239,49.23c-.17-.66-.35-1.42-.42-1.59s-.14-.44-.26-.84c-1.68-5.65-2.73-7-3.2-7.27a22,22,0,0,1-5.83-5.71c-.72-1.39-4-5.81-5.89-6.2l-1.27-.25c-2.62-.5-5.6-1.07-7.49-2.58-1.41-1.13-4.82-4.1-6.09-7.38-.48-1.24-1.2-2.84-1.9-4.4-.54-1.21-1-2.31-1.38-3.15l-4.53,3.79L197.42,17c-.14.15-3.67,3.76-5,4.94l-2.68,3.44c-.76,1.33-2.52,4.29-3.7,5.08-.78.53-4.62,4.66-5.3,5.45-.43.49-.72.82-5.71.5-6.67,1.73-7.32,1.28-7.8,1a6.46,6.46,0,0,1-2-3c-.29-.67-.65-1.44-.87-1.89a18.12,18.12,0,0,1-2.5-1.61,10.25,10.25,0,0,0-1.08-.63,8.88,8.88,0,0,1-1.45-.88c-.15-.13-.39-.3-.64-.48l-.32.19a16.36,16.36,0,0,0,0,2c0,.06.09.35.19.76a52.77,52.77,0,0,0,1.83,6.41c.36.86.7,1.55,1,2.16a7.63,7.63,0,0,1,1,2.76c.06.79.73,5.74,1,7.68.13.51.82,3.28,1,4.81.18,1.25,1.34,10.73,1.34,11.46,0,.24.29,1.71.49,2.79.4,2.15.59,3.21.61,3.67,0,.18.05.63.11,1.22.46,4.94.44,6,.14,6.61a3.41,3.41,0,0,1-2.57,1.8h-.28c-2.61-.09-3.78-.08-4.3-.07a27.21,27.21,0,0,0-1.47,2.91c-.09.26-.44,1.06-1.45,3.33-.42.95-1,2.13-1,2.32-1.18,3.26-2.2,4.2-2.71,4.53-1.37,1.44-1.68,1.59-2,1.66-.6.21-4.16,1.6-5.06,2l-1.2,1.39V102c.38,1.63.83,3.58.87,4,0,.18.15.83.22,1.18a5.4,5.4,0,0,1,.17,1,8.57,8.57,0,0,1-1.73,3.34l.09-.09a7.43,7.43,0,0,0-.9,1.93l0,.37-.2.29a6.89,6.89,0,0,0-1.05,2.45,1.66,1.66,0,0,1-.18,1.65c-.32.43-.88,1.21-4.9.78a7.46,7.46,0,0,1-1.05,2.53c-.11.15-.43.64-.85,1.28-.88,1.34-2.14,3.27-3.06,4.46.23,1.21.49,2.45.58,2.71a2.22,2.22,0,0,1-.29,1.92l-.09.16a9.22,9.22,0,0,0,.31.89,7.62,7.62,0,0,1,.56,2,11.56,11.56,0,0,1-.93,3.92,3.73,3.73,0,0,1-2.8,2.33l-1.88,6.17-6.72,5.32.23,5.32a3.87,3.87,0,0,1-1.62,3.71,45.29,45.29,0,0,0-4.16,3.61l-.57.85c-1,2.82-2,6.14-2.11,6.7,0,1.4-1.8,3.09-2.49,3.49l-.23.14a7,7,0,0,1-2.71,1.19h0c-.13.27-.35.72-.76,1.5v.68c.85.89,1.7,1.77,2,2,.69.4,4.63,2.37,5.37,2.72a10,10,0,0,1,2,1.57c.33.3.8.73,1.08.94a14.66,14.66,0,0,0,1.59-.34c1.2-.3,1.93-.48,2.57.16a1.93,1.93,0,0,1,.32,2,3.35,3.35,0,0,0-.13,1,5.27,5.27,0,0,1,.47,1.17,3.5,3.5,0,0,0,.51,1.16h.12a43.52,43.52,0,0,1,8.67-1.13l4.93-.11,0,1.41c.2,7.75-.07,8.35-.19,8.64a6.1,6.1,0,0,1-1.31,2.17,2.19,2.19,0,0,1-1,.45,1.67,1.67,0,0,1-.64,2c-1.19.73-2.23-.4-2.8-1a13.17,13.17,0,0,0-2.25-2.16c-.26-.09-1.95-.5-3-.74s-1.63-.4-1.83-.46c-.49-.11-5.46-.81-8.85-1.27l-.17.13a10.74,10.74,0,0,0,.61,1.2,2.06,2.06,0,0,0,.42.37,2.27,2.27,0,0,1,1.11,1.82c0,.77-.11,2.58-1.1,3.44a29.9,29.9,0,0,0-1.68,3.75l-3.45,8.16-.12.12a1.55,1.55,0,0,0,.2,1.14,10.23,10.23,0,0,1,.89,4.3v.13c-.47,3.5-.89,9-.35,10.4l.17.43-.11.44c-.84,3.28-2.22,8.77-2.32,9.54-.24,1.82-2.45,4-3.56,4.67a57.22,57.22,0,0,0-4.85,4.79c-1.51,2.52-3.9,6.53-4.11,6.93s-.39.57-2.11,2a38.64,38.64,0,0,0-3.32,2.95l-.09.14-1.2,1.81L89,271.61l1.1,2.13.52,1.4,3.08,1.93-3.29,2.69L88,281.41H85.32l-2.47-1.29-1.26.13-.84.88.35,6.09v.07a3.94,3.94,0,0,1-.55,1.84,1.51,1.51,0,0,0,.68.91l.11.07c3.47,2.3,5.4,4,5.73,5a14.61,14.61,0,0,1,.12,4.49l0,.25a2.18,2.18,0,0,1,0,.3h0a2.73,2.73,0,0,0,.56,0c.69,0,1.3-.1,1.86-.16,1.56-.17,3-.33,4.28.61,1.76.73,6.62,2.82,7.83,4.15a2.75,2.75,0,0,0,.89.7,2.19,2.19,0,0,1,1.26,1.49,5.83,5.83,0,0,0,2.47,2.76l.92.53a6.52,6.52,0,0,0,3.36,1.23l.16,0c1.14.19,2.56.68,2.82,1.9.07.3.62,2,1.09,3.32l.11.33,0,.17c0,.1.28.15.51.18a4.92,4.92,0,0,1,4,2.33,8,8,0,0,0,2.58,2.32l2.55,1.4,5.64,8.18.79,3.13,11.4,4.26.19.15ZM110.74,314h0Zm-20.25-47.5h0Zm2.9-6.2-.07.13Zm.12-.17h0Zm21.57-53.21h0Zm17.44-6.17,0,0Zm.67,0Zm-.82,0h0Zm132-4.24v0Zm-6.83-6.67h0ZM107.53,177.56Zm-.32-2.8h0Zm.18,0h0ZM239.19,159h0Zm2.82-.14h0Zm-39.5-34h0Zm3.22-.59h0Zm.08-.45a1.39,1.39,0,0,1-.08.44A1.16,1.16,0,0,0,205.82,123.8Zm-2.83,0h0Zm-68.86-4.15,0,0Zm8.33-3.13Zm67.86-.1Zm-67.9,0h0Zm.25-7-.07.06Zm57.45-2.67ZM150.63,95.15a1.31,1.31,0,0,0-.34.12Zm28-61.09,0,0Z"/></svg>