<svg id="Layer_1" data-name="Layer 1" xmlns="http://www.w3.org/2000/svg" viewBox="0 0 350 350"><defs><style>.cls-1{fill:#999;}.cls-2{fill:#f90;}</style></defs><title>M</title><polygon class="cls-1" points="178.31 184.94 181.31 184.55 185.28 183.6 190.14 181.81 193.21 180.42 196.89 178.91 200.91 177.24 203.54 175.95 205.72 175.28 207.78 174.72 210.46 171.59 213.48 170.25 216.77 168.75 218.5 168.19 220.07 168.19 219.79 166.29 225.43 166.01 228 171.99 232.29 172.43 236.43 172.88 240.34 172.94 241.68 173.72 243.24 175.48 244.41 177.63 253.23 182.2 256.64 183.71 258.43 184.94 261.72 186.28 264.12 186 264.68 184.83 264.68 184.16 262.5 184.1 261.5 180.75 258.6 180.42 256.86 180.98 255.75 180.47 254.8 178.97 254.29 177.24 254.74 175.56 255.36 174.11 259.6 170.37 261.16 168.69 261.72 166.46 261.05 161.04 261.33 159.81 262.5 158.64 264.35 156.91 267.19 153.84 269.32 152.16 270.82 150.93 272.5 149.71 273.67 147.14 274.73 144.01 276.41 141.05 277.58 138.82 279.48 136.19 281.82 132.28 282.16 129.49 280.93 127.82 279.53 125.81 281.26 122.4 279.03 121.78 279.81 118.1 278.75 114.92 278.86 113.74 280.37 111.73 280.37 110.5 279.2 109.22 278.98 107.83 280.26 106.2 280.65 104.47 280.99 102.97 282.16 101.91 283.72 101.12 284.78 101.68 286.18 102.35 287.57 102.3 289.19 101.85 290.65 101.12 292.26 100.62 294.39 100.23 295.89 100.68 297.01 101.01 298.97 101.57 300.25 101.85 301.2 102.63 303.1 103.3 305.05 103.58 306.5 102.8 307.34 101.18 308.63 100.23 310.13 99.5 311.48 99.5 312.81 99.11 315.05 98.67 315.94 97.72 316.33 96.38 317.17 93.53 318.34 92.53 321.41 88.67 321.92 85.99 323.59 86.38 324.04 87.95 327.48 87.72 328.28 86.66 330.13 86.49 333.48 82.64 335.04 82.42 338.61 79.79 339.95 81.58 339.95 84.37 341.41 87.67 341.41 91.69 340.9 93.47 340.74 96.71 340.35 98.95 340.79 101.74 341.13 106.65 339.56 107.71 340.57 110.62 340.51 111.79 343.14 115.14 343.75 118.38 343.75 121.39 343.75 123.57 342.75 125.25 340.85 127.37 340.79 132.12 340.96 137.09 340.45 139.65 340.29 142.39 339.73 144.51 341.63 146.08 341.46 148.03 337.38 148.2 336.27 149.37 335.82 153.39 334.26 154.62 330.46 155.01 329.29 158.64 324.15 158.97 323.48 159.59 323.26 160.65 323.03 162.05 321.86 163.67 321.69 164.73 321.69 165.9 322.36 166.68 322.53 167.46 322.48 171.76 322.08 173.66 320.69 176.17 318.4 180.25 317.73 182.15 317.28 183.6 313.49 187.34 312.93 188.01 312.48 190.02 312.31 194.6 309.19 201.13 307.62 201.13 301.42 200.69 300.36 201.13 298.91 202.87 294.83 204.93 289.36 205.27 287.8 203.26 287.24 200.02 284.95 198.51 283.05 200.07 283.16 202.59 281.43 203.03 281.43 204.82 279.48 207.28 279.03 208.62 274.95 213.08 274.73 215.93 272.83 217.27 271.05 220.12 269.37 220.9 267.64 220.4 266.25 219.28 266.3 216.32 268.76 213.98 268.81 211.35 266.86 211.13 264.68 214.2 257.59 219.67 255.41 221.96 254.29 223.97 252.95 225.26 250.27 227.55 248.6 229.28 247.54 231.68 245.3 232.91 243.74 233.3 242.68 234.19 241.4 234.75 236.48 235.14 232.69 235.14 227.1 235.14 223.64 235.64 221.35 236.48 220.29 237.32 215.54 237.65 214.37 236.93 213.14 236.93 211.91 237.65 210.29 238.44 208 238.44 205.54 237.77 202.87 237.6 201.75 235.92 200.02 234.97 198.51 234.64 196.78 234.75 194.6 235.42 191.47 236.42 189.19 237.65 187.45 238.71 187.01 239.83 185.28 241.17 179.58 243.96 171.76 245.36 159.09 246.2 156.35 245.58 154.34 245.02 151.88 244.3 145.8 240.56 142.89 237.99 140.6 236.7 139.09 243.85 127.2 244.74 118.27 247.31 106.37 248.21 103.3 249.21 102.3 250.22 102.3 251.5 101.96 253.62 98.94 256.47 98.39 258.37 93.47 258.98 92.86 260.77 92.86 262.67 91.97 265.24 88.89 267.42 85.21 269.31 84.54 270.21 83.03 268.64 86.38 264.06 89.06 260.47 90.46 257.42 92.25 256.86 93.14 254.85 94.76 253.34 95.82 250.83 97.33 249.43 97.72 245.86 96.55 240.56 93.47 237.71 89.56 236.03 84.2 235.75 79.85 236.59 76.67 237.43 71.92 237.26 70.75 236.31 72.2 234.58 72.42 232.51 70.24 230.73 67.17 228.66 64.33 227.94 62.09 226.37 55.39 226.65 53.32 227.71 51.82 228.72 48.69 229.11 47.29 230.73 46.57 232.68 45.67 233.69 45.67 235.92 42.49 236.09 38.86 235.87 35.68 235.53 34 234.36 34 233.35 34.51 231.57 32.83 226.82 31.71 222.24 28.7 220.96 27.97 222.02 21.1 222.07 18.37 221.4 17.31 220.06 16.92 219.28 16.64 217.72 16.86 214.81 15.69 214.59 13.4 216.71 11.61 216.88 10.61 216.38 10.83 215.32 17.25 209.96 17.08 206.83 14.18 207.44 9.54 204.99 7.59 203.37 6.25 201.64 6.53 198.96 8.93 195.88 10.88 191.36 15.41 186.34 19.2 184.55 22.5 182.82 25.12 180.86 27.64 179.86 29.65 179.47 31.43 179.3 33.61 179.58 35.29 181.09 37.07 183.43 38.53 185.11 39.81 186.11 41.49 186.78 44.11 186.39 44.5 184.83 46.23 183.99 47.01 180.7 51.2 179.69 56.62 179.13 61.92 178.57 61.03 175.73 69.29 175.84 74.88 175.73 79.85 174.39 83.87 172.88 85.43 172.04 87.44 172.1 88.17 172.77 88.56 174.67 89.68 176.73 91.85 178.18 93.86 178.13 95.37 177.9 96.32 176.79 109.44 176.28 114.86 179.97 116.26 181.37 117.37 181.98 120.11 181.87 124.52 180.92 129.88 179.91 133.01 178.29 137.25 178.07 137.7 179.75 140.77 180.58 142.06 181.53 143.23 182.26 144.51 182.37 145.8 182.09 148.81 180.47 158.14 180.42 160.31 179.3 169.31 179.13 172.82 180.47 174.44 181.42 176.12 181.65 178.31 184.94"/><path class="cls-2" d="M84.67,272.39l-3.49-3.62,6.65-9,1.6-3.49,1.78-.55L92,254l1.61-1.5L94.63,250,96,248.75l.31-2.82-1-4.64-2.57-2.38-3.45-1.48-4.94-.26-4.19.8-3.29.87-5.43-.19-2.66-2.15,2.1-2.51.09-.87-1.53-1.26L66.58,230l-2.86-.73-2.05-1.44-5.91.25-1.72.88-1.72,1.15-2.92.36-.87,1-.73,2-.71.8v3l-4.61.24-3.71-.23-3.61-.38-2.58-1.81v-1.94l.43-1.54-1.57-4.46-.95-3.89-1.29-.55-.49.71-7.79.06-3.38-.83-1.52-2-.48-1-.35-1.94.07-.89L14,218.08l-2.67.25L9,217.16l.55-2.61,6.25-5.22,0-.77-1.79.38-5.33-2.86-2.17-1.84-1.69-2.18.38-3.65,2.54-3.25,2-4.57,4.87-5.41,4.06-1.91,3.14-1.65,2.86-2.07,2.77-1.08,2.15-.41,1.94-.18,2.77.36,2.18,2,1.79,2.35,1.31,1.5,1,.8,1.13.45,1.31-.2.32-1.29L45,183l.83-3.49,5.22-1.24,9-.94-1-3.06,10.22.14,5.36-.11L79.41,173l3.87-1.45,1.81-1,2.92.08L89.46,172l.44,2.14.85,1.57,1.51,1,1.47,0,.9-.13,1-1.19,14.21-.54,6,4.12,1.25,1.25.59.33,2.22-.09,4.29-.92,5.19-1,3.21-1.66,5.7-.3.53,2,2.54.69,1.45,1.07.83.52.73.06.88-.19,3.15-1.69,9.34-.06,2.17-1.11,9.59-.18,4,1.54,1.37.8,2,.27,2.06,3.1,2.06-.27,3.81-.91,4.73-1.74,3-1.37,7.75-3.2,2.75-1.33,2.18-.67,1.69-.46,2.6-3,6.74-3,2.09-.63-.27-1.82,8.18-.4,2.63,6.12,7.54.8,4.21.06,1.86,1.08,1.9,2.19,1,1.77,9.11,4.67-1.06-1.69-.67-2.3.61-2.24.74-1.75,4.43-3.91,1.27-1.36.41-1.62-.67-5.4.43-1.87,1.46-1.46,1.88-1.76,2.94-3.15,3.61-2.89,1.44-1.05,1-2.17,1.15-3.3,1.68-3,1.26-2.37,1.86-2.57,2.16-3.6.23-1.94-.9-1.22-1.9-2.73,1.33-2.61-1.85-.51,1-4.62-1-3.1.18-1.87,1.46-2v-.21l-1.09-1.19-.39-2.43,1.47-1.86.75-3.36,1.65-1.49,2.39-1.19,2.74,1.39.88,0,1.33-.37,1.54-.75,1.78-.54,2.46-.45,4.89,1.43,1.53.33,1,.84,1.53.54,1.35.19.66-.35.79-1.52L308,99l1.8-.87h1.46l1.26-.36,1.79-.36.35-.37,1.25-4.27,1.39-1.19,2.77-3.47.71-3.79,3.93.92.36,1.27,1.65-.11.79-1,1.9-.17,3.32-3.82,1.73-.25,4.42-3.24,2.47,3.29v3l1.45,3.29v4.51l-.51,1.82L342.13,97l-.35,2,.42,2.68.39,5.73-1.34.91.74,2.14,0,.92,2.51,3.21.7,3.84V124l-1.37,2.23-1.54,1.73-.05,4.21.17,5.07-.52,2.64-.21,2.92-.33,1.25,1.77,1.46-.34,3.94-4.75.2-.39.41-.46,4.14L334.81,156l-3.29.34L330.34,160l-5.57.36-.12.59-.26,1.66-1.17,1.62-.1.62v.54l.56.66.28,1.29-.09,4.73-.43,2.11-3.73,6.68-.63,1.78-.53,1.74-4.3,4.3-.34,1.55-.17,4.74-3.64,7.61h-2.56l-5.86-.42-.43.18L299.81,204l-4.6,2.33-6.51.4-2.24-2.88-.51-3-.9-.59-.54.45.13,3-1.78.46v1.18L280.74,208l-.46,1.39-4,4.33-.24,3-2.21,1.56-1.86,3-2.54,1.18-2.51-.73L264.81,220l.08-4.12-6.35,4.9-2,2.08-1.13,2-1.49,1.43-2.69,2.3-1.45,1.5-1.15,2.61-3,1.59-1.25.31-1,.82-1.69.74-5.26.41H227.2L224,237l-1.94.71-1.22,1-5.64.4-1.22-.76h-.44l-1,.59-1.91.92-3,0-2.32-.63-3.24-.2-1.31-2-1.25-.68-1.11-.25-1.36.09-5,1.58-2.18,1.17-1.26.77-.42,1-2.28,1.73L180,245.32l-8.17,1.45-12.88.85L156,247l-4.74-1.36-6.44-4-2.79-2.47-.48-.27-1.33,6.3-12.81,1-9.08,2.58-11.72.88-2.59.85-.35.35,0,.92-.41,2.6-3.09,2.92-.71,2.42-5,.62-.25.73v1.9l-1.12,3.22-3.61,2.54-3.4,1.75Zm6.81-13.81-1.29,2.73-4.58,6.19,2.54-1.31,2.62-1.86.67-1.91v-1.9l.75-2.17Zm2.83-2.89-.83,1.86,3.8-.47.4-1.37,2.94-2.78.24-1.54v-1.76l1.66-1.66,3.73-1.18,11.75-.88,9.08-2.58,10.83-.81,1.69-8,4.22,2.4,2.81,2.49,5.82,3.58,4.26,1.22,2.47.55,12.39-.82,7.54-1.35,5.39-2.64,1.31-1,.48-1.2,2.13-1.31,2.6-1.37,5.65-1.74,1.93-.12,1.9.42,2.21,1.21.92,1.38,2.26.17,2.27.62H210l1.27-.61,1.51-.89h2l1.13.7,3.85-.27.9-.71,2.79-1,3.67-.52h9.33l4.62-.37.88-.38,1.15-1,1.7-.43,1.65-.91,1-2.19,1.95-2,2.68-2.29,1.13-1.08,1.23-2.11,2.34-2.44,6.92-5.34,2.54-3.58,4.07.46-.1,4.5-2.46,2.34,0,1.67.63.51.95.28.81-.38,1.72-2.73,1.59-1.12.21-2.67,4.2-4.6.43-1.29,1.8-2.27v-2.39l1.68-.43-.09-2.07,3.25-2.68,3.67,2.42.6,3.49.89,1.14,4.43-.27,3.56-1.8L299.5,200l1.69-.71,7.11.47,2.61-5.46.19-4.54.52-2.35.87-1,3.54-3.49.34-1.11.79-2.18,3.58-6.39.32-1.55.05-4-.06-.27-.78-.91,0-1.92.22-1.4,1.17-1.62.17-1.06.33-1.57,1.37-1.26,4.67-.3,1.16-3.59,4.31-.44.77-.61.43-3.9,1.84-1.93,3.36-.14-2-1.64.75-2.86.18-2.78.47-2.41-.16-4.81.06-5.34,2.16-2.42.73-1.22v-4.67l-.52-2.77-2.74-3.49.07-1.43-1.27-3.67,1.79-1.21-.28-4-.47-3,.42-2.38.21-3.46.45-1.6V88l-1.45-3.29V82.05l-.22-.29-2.73,2-1.39.2-3.38,3.89L329,88l-.81,1.08-5.23.34-.17-.58-.08.43-3.48,4.32-.85.73-1.2,4.11L315.77,100l-2.62.52-1.48.43h-1.22l-1.1.53-.91.67-.89,1.72L305.31,105l-2.69-.41-2.13-.75-.88-.72-.95-.21-4.36-1.27-1.71.32-1.43.44-1.61.77-1.94.5-1.75.07-2.18-1.07-.74.37-.69.63-.7,3.12-1.1,1.38.06.36,1.26,1.38v2.25l-1.55,2.07,0,.48,1.09,3.26-.58,2.76,2.62.72-2.13,4.2.91,1.31,1.54,2.1-.44,3.65L280.63,137l-1.84,2.54-1.12,2.14L276,144.59,275,147.73l-1.33,2.9-2,1.45-3.5,2.81-2.77,3-2.76,2.65-.13.59.67,5.43-.71,2.84-1.91,2-4,3.53-.45,1.06-.32,1.2.34,1.16.62,1,.23.1,1.5-.49,4.14.48,1,3.26,2.53.06v2.37l-1,2.17-3.54.41-3.9-1.62L255.95,185l-3.29-1.45-9.29-4.82-1.3-2.39-1.31-1.47-.82-.48-3.67-.06-9.25-1-2.51-5.83-3.1.15.29,2h-3l-1.44.46-6,2.69L208.57,176l-2.49.67-2,.62-2.53,1.24-7.79,3.22-3.12,1.41-5,1.83-4.11,1-3.88.51-2.32-3.5-1.32-.18-1.76-1-3.15-1.2-8.39.16-2.19,1.12-9.31.06-2.88,1.55-1.69.37-1.83-.16-1.55-1-1.07-.79-3.6-1-.36-1.35-2.79.15-3,1.57-5.57,1-4.61,1-3.13.13-1.64-.9L114,181.07,109,177.72l-12,.46-.89,1-2.2.32-2.46.07-2.85-1.9-1.38-2.56-.34-1.66-1.1,0-1.4.74-4.15,1.55-5.31,1.39-5.58.11L63,177.17l.83,2.63-12.35,1.29-3.25.78-.74,3.1-1.74.84-.46,1.84-3.94.59-2.22-.89L37.46,186,36,184.36l-1.76-2.31L33,180.93l-1.58-.2-1.56.15-1.81.35-2.22.89-2.66,2-3.29,1.73-3.59,1.69-4.18,4.64-2,4.62L7.9,199.51l-.18,1.71.9,1.16,1.72,1.43,4.05,2.15,4-.85.29,5.49-3.06,2.55,2.72.52-.31,4,.21,1.18.23.47.67.84,2.09.51,6,0,1-1.41,4.74,2,1.27,5.2,1.8,5.1-.57,2.1.77.54,2.82.3,3.49.21,1.76-.09v-1.43l1.07-1.21.72-1.94L48,227.77l3.34-.42,1.37-.9,2.34-1.2,7.49-.31,2.42,1.69,2.83.72,3.38,2.28,2.77,2.27-.35,3.26-.6.72,3.55.13,3-.79,4.62-.89,5.79.3,4.37,1.87,3.58,3.32,1.32,6-.47,4.33L97,251.66l-1.06,2.51Zm173-42.82-1.05,1.49,1-1Zm-8.26-29.18,2,.83-.74-2.46-1.67-.19-1.61.52.31.17Z"/></svg>