<svg id="Layer_1" data-name="Layer 1" xmlns="http://www.w3.org/2000/svg" viewBox="0 0 350 350"><defs><style>.cls-1{fill:#999;}.cls-2{fill:#f90;}</style></defs><title>M</title><path class="cls-1" d="M327.56,182.28a11.19,11.19,0,0,0-1.78-6.64c-4.8-7.37-8.24-15.46-12-23.37l-.2,0q-.46-1.27-.94-2.53c.05-.08.12-.12.17-.2-2-6.56-5-12.73-7.09-19.32C300.55,113.7,292.94,98,291,80.5c-.11-1-.71-3.14-2.56-3.67a5.81,5.81,0,0,0-2-2.77c-1.76-1.34-3.71-1.32-5.83-1.25l-4.8.17-.56-.18c-1-1.52-.83-4.08-.71-8.88,0-1.49-.95-2.28-1.77-3.3a6.89,6.89,0,0,0-1-1c-3.64-6.87-15.29-5.34-21.88-7.09-5.61-1.48-10.7-4.29-16.22-5.87-1.83-.53-3.6-.92-5.26-1.37-3.19-4-4.51-9.5-6.4-14.55l-1.39-.57a2.77,2.77,0,0,0-2.4-2c-1.23-.13-2.43-.32-3.64-.5a54.36,54.36,0,0,0-6.4-2.21,69.69,69.69,0,0,0-12-1.65c-.73-.2-1.45-.38-2.18-.58-4.45-1.25-8.53-2.41-13.08-1.1-1.76.51-2.88,1.58-4.77,1.79s-3-1.34-5.38-.85c-6,1.22-7.37,9.86-14.81,9-.46-2.07-1.82-4-2.41-6a39.88,39.88,0,0,0,2.12-11.21A2.72,2.72,0,0,0,153,12.14c-3.86-.14-6.63,3.2-9.35,5.51l-10.57,9-.1.08-.1.09-.7.59a2.82,2.82,0,0,0-.27.27c-4.08,3.71-8.81,7.47-12.84,11.69a2.66,2.66,0,0,0-1.4.67c-6.11,5.48-10.84,11-16.22,17.17-4,4.62-8.52,8.74-12.77,13.13L77.38,75.09q-1.84.49-3.73.84c-2.26-3.64-4.42-7.33-7-10.82-2.91-4-3.9-2.76-8.27-5a2.7,2.7,0,0,0-3.92,3l.19,1.08s-.08.07-.13.1A2.76,2.76,0,0,0,52,68.86a69.41,69.41,0,0,1,7.67,10.63c-3.51,6.67-9.33,5-14.78,0-1.16-1.07-3.43-1.09-4.19.54-1.93,4.13-4.6,8.68-9.85,8-2.34-.29-3.46,3.08-1.89,4.55.43.4.87.78,1.31,1.14,2.33,6.56,6.13,12.35,9.67,18.29,1.41,2.36,4,4.7,3.55,7.55a36.86,36.86,0,0,0-7,9.31c-1.8,2.24-5.82,5.9-5.66,8.88a5.53,5.53,0,0,0,.48,1.8c-1.26.89.26,2.65,1.15,3.88A28.92,28.92,0,0,1,37.41,154c.26,1.15.45,2.33.7,3.47a18.85,18.85,0,0,0-1.5,3.33,6.89,6.89,0,0,1-2.26,1.84c-.22-.7-.46-1.4-.75-2.1v0a5,5,0,0,0-.33-1.51c-1-1.19-.65-1.76-2.11-2.9-2.19-1.72-6,.44-4.19,3.23a20.53,20.53,0,0,1,1.32,2.45c.3,1.86,0,4.36,1.05,5.74a5.75,5.75,0,0,0,.63.67C31,181.83,17.75,195.77,7.26,202.6a2.7,2.7,0,0,0,.64,4.88c3,.82,5.92,1.77,8.8,2.83,7,6.13,15.2,10.66,22.92,15.81,2.66,1.77,5.19,3.18,7.35,6.15,2.35,3.23,3.24,8.59,8.43,9.51.6-.53,1.18-1.11,1.76-1.68l5.06,7.59a2.66,2.66,0,0,0,3.68,2.41,2.13,2.13,0,0,0,1.4.38,35.59,35.59,0,0,1,9.31.5h0a50.8,50.8,0,0,1,16.22,6c0,1.14.59,1.59,1.68,2.22,1.9,1.1,3.92,2.06,5.85,3.12a34.31,34.31,0,0,1,8,9.86,2.33,2.33,0,0,0,1.52,1.26c.85,2,3.12,4,4.94-1a10.11,10.11,0,0,1,2.83-4.44c6.23.15,12.57,2.44,18.5,3.92,6.86,1.72,13.61,3.37,19.4,7.52a7.54,7.54,0,0,0,1.07.78l.29.22a2.74,2.74,0,0,0,3,.36,6.29,6.29,0,0,0,2-.82c9.85-6.09,19.08-1.56,27.83,2.21a46,46,0,0,1,12.56,7.58c6.06,5.48,6.14,5.62,7.75,14.9,1.48,8.55,5.74,16,8.9,23.84,1.23,3.06,1.47,7.27,5.4,8.91,4.78-.21,9.54,1.07,14.33.06,1.86-.39,4.56.35,3.83-3.15-.78-2.17-1.24-3.93,0-6.51,5.14-10.76,10.59-21.34,16.57-31.65-.21-.31-.45-.59-.68-.88a21.09,21.09,0,0,0,1.47-4,3.12,3.12,0,0,0,.69-.81l1.3-1.68c3.82-6.82,7.75-13.58,11.43-20.48,6.67-12.53,13.46-25,19.58-37.81,1.58-3.3,3.21-5.55,6.48-6.65s6.81-2.09,10.22-3.12c.09-.35.27-.74.4-1.1q1.32-.43,2.63-.91a3.27,3.27,0,0,0,3.17.39c6.21-.5,11.38-4.77,18-4.4,3.45.19,6.86-2.34,10.2-4.66C332.84,203.62,327.37,194.58,327.56,182.28Z"/><path class="cls-2" d="M234.56,339.28c-1.57,0-3.12-.12-4.65-.24a44.31,44.31,0,0,0-5.47-.21h-.32l-.29-.12c-3.64-1.51-4.64-4.86-5.46-7.54-.23-.77-.45-1.49-.71-2.14-.88-2.17-1.86-4.36-2.81-6.48-2.5-5.56-5.08-11.32-6.18-17.65-1.54-8.88-1.54-8.88-7.3-14.09a43.86,43.86,0,0,0-12.17-7.33l-1.27-.55c-8.12-3.52-16.51-7.16-25.25-1.76a7.83,7.83,0,0,1-2.26,1,4.16,4.16,0,0,1-4.31-.61l-.2-.14a9,9,0,0,1-1.16-.84c-5.49-3.91-11.87-5.51-18.62-7.2l-.25-.06c-1.47-.37-3-.78-4.48-1.21-4.34-1.21-8.82-2.46-13.16-2.65a9.57,9.57,0,0,0-2,3.49c-1,2.67-2.29,4-3.92,4.08a4,4,0,0,1-3.37-2.41,3.82,3.82,0,0,1-1.75-1.74,32.62,32.62,0,0,0-7.61-9.34c-.74-.4-1.5-.79-2.25-1.19-1.15-.6-2.35-1.22-3.5-1.88a4.13,4.13,0,0,1-2.3-2.57,49.1,49.1,0,0,0-15-5.47l-.26,0a34,34,0,0,0-8.84-.47,3.47,3.47,0,0,1-1.71-.28,4.3,4.3,0,0,1-3.23-.66,3.9,3.9,0,0,1-1.64-2.78l-3.91-5.86-.58.54-.51.46-.68-.12c-4.44-.79-6.24-4.34-7.69-7.2a21.64,21.64,0,0,0-1.64-2.87A20.06,20.06,0,0,0,39.91,228l-1.07-.7c-2.13-1.42-4.34-2.82-6.47-4.17A137.2,137.2,0,0,1,16,211.55c-2.81-1-5.65-1.94-8.44-2.7a4,4,0,0,1-2.89-3.24,4.23,4.23,0,0,1,1.86-4.19c11.15-7.26,22.7-20.47,22.1-32.54-.13-.13-.24-.27-.36-.41-1-1.31-1.13-3.11-1.2-4.69,0-.55-.05-1.07-.11-1.52a18.78,18.78,0,0,0-1.14-2.1,3.67,3.67,0,0,1,.55-4.87A4.48,4.48,0,0,1,32,155a5.4,5.4,0,0,1,1.77,2.2,4.08,4.08,0,0,0,.56.92l.14.17.08.21a6.42,6.42,0,0,1,.41,1.75l.05.14.32-.32a19,19,0,0,1,1.24-2.79c-.08-.4-.16-.8-.24-1.2-.11-.59-.23-1.17-.36-1.75a27.56,27.56,0,0,0-4.71-10.12l-.27-.36c-.82-1.1-1.83-2.46-1.6-3.87a2.4,2.4,0,0,1,.25-.75,5.73,5.73,0,0,1-.28-1.45c-.15-2.93,2.51-5.91,4.64-8.31.46-.52.89-1,1.25-1.43a38.19,38.19,0,0,1,6.81-9.16c0-1.39-1-2.77-2.07-4.22-.46-.63-.93-1.29-1.33-2L37.08,110c-2.94-4.87-6-9.91-8-15.45-.36-.3-.72-.62-1.08-1a4.18,4.18,0,0,1-.75-4.79A3.63,3.63,0,0,1,31,86.61c3.94.49,6.2-2.53,8.39-7.22a3.64,3.64,0,0,1,2.64-2,4.43,4.43,0,0,1,3.8,1c3.21,3,6.23,4.38,8.5,4A5.55,5.55,0,0,0,58,79.52a65.16,65.16,0,0,0-7.07-9.71,4,4,0,0,1-.47-4.89A4.34,4.34,0,0,1,53,63a4.11,4.11,0,0,1,6-4.1,20.6,20.6,0,0,0,3.27,1.32c2.11.69,3.4,1.21,5.5,4.09s3.95,5.9,5.74,8.83l.76,1.25c.86-.18,1.73-.38,2.58-.61l11-4.63c1.43-1.47,2.91-2.93,4.33-4.35,2.76-2.73,5.61-5.55,8.18-8.52l.31-.36a177.22,177.22,0,0,1,16-16.93,4.11,4.11,0,0,1,1.62-.91c2.69-2.77,5.64-5.33,8.49-7.82,1.39-1.21,2.76-2.4,4.06-3.58a3.63,3.63,0,0,1,.36-.36l11.46-9.72c.48-.41,1-.85,1.45-1.29,2.4-2.2,5.13-4.69,8.87-4.55a4.11,4.11,0,0,1,4,4.09A40,40,0,0,1,155.06,26a22.24,22.24,0,0,0,.93,2.14,23.7,23.7,0,0,1,1.09,2.56c2.9,0,4.62-1.95,6.59-4.14s3.78-4.23,6.84-4.85a6.35,6.35,0,0,1,3.87.48,3.36,3.36,0,0,0,1.64.36,6.79,6.79,0,0,0,2.33-.83,12.75,12.75,0,0,1,2.2-.92c4.9-1.42,9.2-.21,13.75,1.06l.11,0,1.26.33.79.21.65.05a66.15,66.15,0,0,1,11.44,1.63,55,55,0,0,1,6.41,2.2l.76.11c.88.13,1.76.26,2.66.35a4.13,4.13,0,0,1,3.33,2.32l.82.33.59.23.22.59c.45,1.19.87,2.41,1.28,3.63,1.29,3.77,2.51,7.33,4.62,10.17l1.68.43c1,.25,2.07.52,3.14.82a78.06,78.06,0,0,1,7.85,2.87,69.8,69.8,0,0,0,8.34,3,43.93,43.93,0,0,0,6.5.94c6.16.61,13.13,1.29,16.14,6.61a8.05,8.05,0,0,1,1,1l.43.51A5.2,5.2,0,0,1,275.93,64l0,1.14c-.09,3.19-.14,5.29.27,6.45l.52,0,3.84-.14c2-.07,4.52-.15,6.74,1.54a7.31,7.31,0,0,1,2.28,2.8,5.81,5.81,0,0,1,2.88,4.61c1.33,12,5.48,23.49,9.5,34.57,1.75,4.84,3.57,9.85,5.13,14.85,1,3.21,2.27,6.4,3.49,9.48s2.57,6.48,3.61,9.84l.19.62-.13.2.39,1,.12,0,.32.67c.74,1.55,1.47,3.12,2.2,4.68A149.85,149.85,0,0,0,327,174.86a12.49,12.49,0,0,1,2,7.44h0c-.18,11.65,5,20.32,15.73,26.52l1.94,1.12-2.38,1.66c-3.34,2.33-6.79,4.74-10.54,4.53-3.38-.19-6.37.95-9.54,2.15a30.65,30.65,0,0,1-8.14,2.24,4.85,4.85,0,0,1-3.59-.23l-1.38.48a3.27,3.27,0,0,0-.12.34l-.2.76-.75.23-3.13.93c-2.32.69-4.73,1.4-7.05,2.18-2.81.94-4.2,2.88-5.65,5.92-5.23,10.94-11,21.81-16.65,32.32l-3,5.55c-2.54,4.77-5.25,9.55-7.87,14.17q-1.79,3.16-3.57,6.33l-.21.3-1.16,1.5a5,5,0,0,1-.58.76,22.17,22.17,0,0,1-1.09,3l.2.28.5.74-.44.77c-5.54,9.56-10.95,19.88-16.52,31.55-1,2.11-.65,3.46.06,5.42l.05.19a4,4,0,0,1-.46,3.36,4.3,4.3,0,0,1-3.4,1.34,8.72,8.72,0,0,0-1.06.12A21.41,21.41,0,0,1,234.56,339.28ZM225.49,336c1.57,0,3.13.12,4.65.24a28.74,28.74,0,0,0,8.28-.13,10.86,10.86,0,0,1,1.43-.17,4.17,4.17,0,0,0,1.36-.23h0a2.08,2.08,0,0,0,0-1c-.82-2.3-1.36-4.47.09-7.51,5.45-11.41,10.74-21.54,16.15-30.93l-.63-.83.38-.78a19.55,19.55,0,0,0,1.38-3.72l.12-.46.37-.3a1.84,1.84,0,0,0,.37-.46l.08-.12L260.7,288q1.75-3.13,3.53-6.26c2.61-4.6,5.31-9.37,7.83-14.11l3-5.55c5.6-10.48,11.39-21.32,16.59-32.21,1.68-3.53,3.57-6.13,7.31-7.38,2.37-.79,4.8-1.51,7.15-2.21l2.42-.72,0-.07.14-.36.23-.66.66-.22q1.3-.43,2.59-.9l.73-.27.62.48a1.89,1.89,0,0,0,1.89.16l.29-.06a27.63,27.63,0,0,0,7.5-2.08c3.3-1.25,6.72-2.54,10.7-2.33,2.39.14,5-1.42,7.52-3.16C331,203.46,326,194.32,326.14,182.26a9.7,9.7,0,0,0-1.55-5.85,152,152,0,0,1-9.92-18.88q-.92-2-1.86-4l-.29,0-.29-.8q-.46-1.26-.94-2.51l-.27-.71.2-.27c-1-3-2.16-6-3.31-8.94-1.24-3.13-2.52-6.37-3.56-9.68-1.54-4.95-3.35-9.92-5.09-14.73C295.18,104.64,291,93,289.61,80.65c-.06-.58-.47-2.15-1.54-2.46l-.71-.2-.24-.7a4.41,4.41,0,0,0-1.56-2.1c-1.32-1-2.81-1-4.93-1l-3.83.13-1.22,0L274.31,74l-.27-.42c-1.15-1.76-1.09-4.18-1-8.56l0-1.14c0-.63-.3-1-1-1.78-.17-.19-.34-.39-.5-.6a5.49,5.49,0,0,0-.78-.78l-.21-.18-.13-.25c-2.22-4.2-8.23-4.79-14-5.36a45.76,45.76,0,0,1-6.95-1,71.89,71.89,0,0,1-8.68-3.11A75.85,75.85,0,0,0,233.27,48c-1-.3-2.06-.55-3-.8-.75-.19-1.48-.37-2.19-.56l-.45-.12-.29-.37c-2.59-3.27-4-7.39-5.36-11.38-.34-1-.68-2-1-3l-.34-.14-1.09-.45-.2-.64a1.35,1.35,0,0,0-1.2-1c-.93-.1-1.84-.23-2.76-.37L214,29a53.32,53.32,0,0,0-6.24-2.16,64.09,64.09,0,0,0-10.95-1.54l-1-.11-.89-.23-1.31-.35-.11,0c-4.33-1.22-8.07-2.26-12.2-1.07a10.25,10.25,0,0,0-1.72.73,9.39,9.39,0,0,1-3.28,1.11,6,6,0,0,1-3-.53,3.67,3.67,0,0,0-2.29-.35c-2.14.44-3.68,2.15-5.3,4-2.35,2.63-5,5.61-10,5l-1-.12-.22-1a14.93,14.93,0,0,0-1.18-3,20.39,20.39,0,0,1-1.21-2.94l-.12-.41.12-.41a38.57,38.57,0,0,0,2.06-10.8,1.31,1.31,0,0,0-1.3-1.25c-2.58-.1-4.75,1.89-6.85,3.81-.52.47-1,.93-1.53,1.36l-11.47,9.72-.07.08-.16.16c-1.33,1.21-2.74,2.43-4.17,3.67-2.91,2.53-5.93,5.15-8.6,7.95l-.33.35-.48.07a1.27,1.27,0,0,0-.66.33,175.13,175.13,0,0,0-15.78,16.68l-.31.36c-2.64,3-5.53,5.91-8.33,8.67-1.48,1.47-3,3-4.49,4.51l-.2.21-11.78,5c-1.28.34-2.57.63-3.85.87l-.95.17-.51-.82-1.28-2.09c-1.77-2.88-3.6-5.87-5.62-8.64-1.66-2.27-2.42-2.52-4.08-3.06a23.35,23.35,0,0,1-3.68-1.49,1.29,1.29,0,0,0-1.41.07,1.37,1.37,0,0,0-.48,1.4L56.26,65l-.77.43-.15.11-.53.35-.61-.17a1.31,1.31,0,0,0-1.3.7A1.17,1.17,0,0,0,53,67.9a71.65,71.65,0,0,1,7.83,10.85l.42.69-.38.71c-1.53,2.91-3.58,4.6-6.09,5-3.2.56-7-1.07-10.91-4.7a1.63,1.63,0,0,0-1.33-.35.78.78,0,0,0-.62.45c-1.47,3.14-4.51,9.68-11.31,8.83a.86.86,0,0,0-.86.59,1.41,1.41,0,0,0,.12,1.52c.41.38.82.74,1.23,1.08l.31.25.13.37c1.93,5.42,5,10.44,7.9,15.3l1.65,2.73c.33.56.75,1.13,1.19,1.74,1.38,1.9,2.95,4.06,2.55,6.74l-.07.47-.35.33a35.41,35.41,0,0,0-6.73,9l-.15.22c-.39.49-.89,1-1.42,1.65-1.6,1.79-4,4.5-3.93,6.27a4.2,4.2,0,0,0,.37,1.32l.44,1.05-.77.54a9.14,9.14,0,0,0,1,1.61l.29.39a30.38,30.38,0,0,1,5.18,11.16c.14.61.26,1.22.37,1.84s.21,1.1.33,1.64l.11.52-.25.47a17.44,17.44,0,0,0-1.4,3.12l-.1.29-.21.22A7.62,7.62,0,0,1,34.78,164l-1.36.42L33,163.11c-.22-.7-.45-1.35-.71-2l-.15-.36,0-.26a3.51,3.51,0,0,0-.16-.77,6.92,6.92,0,0,1-.76-1.28,2.71,2.71,0,0,0-1-1.2,1.66,1.66,0,0,0-2.06.1c-.25.23-.49.58-.06,1.26a22,22,0,0,1,1.41,2.62l.08.18,0,.19a18.58,18.58,0,0,1,.17,2,6.21,6.21,0,0,0,.59,3.07,4.24,4.24,0,0,0,.47.5l.41.38,0,.56c.51,6.44-2,13.58-7.29,20.67A65,65,0,0,1,8,203.79a1.39,1.39,0,0,0-.6,1.38,1.11,1.11,0,0,0,.84.94c2.95.81,5.95,1.77,8.91,2.86l.24.09.2.17a133.34,133.34,0,0,0,16.26,11.5c2.15,1.36,4.36,2.77,6.52,4.21l1,.69a22.91,22.91,0,0,1,6.67,5.81A24,24,0,0,1,50,234.69c1.25,2.45,2.43,4.77,5,5.54l1-.92,1.44-1.42,6.23,9.35v.41a1.16,1.16,0,0,0,.47,1,1.53,1.53,0,0,0,1.35.13l.66-.22.58.39a.71.71,0,0,0,.48.14,36.93,36.93,0,0,1,9.68.52l.11,0a52.1,52.1,0,0,1,16.62,6.17l.73.42,0,.84c0,.31,0,.4,1,1s2.25,1.23,3.38,1.82c.82.42,1.64.85,2.44,1.29l.25.17a35.54,35.54,0,0,1,8.38,10.27.92.92,0,0,0,.6.54l.69.17.28.65a2.25,2.25,0,0,0,1,1.25s.6-.23,1.32-2.22a11.12,11.12,0,0,1,3.29-5.07l.4-.31h.51c4.87.12,9.72,1.47,14.4,2.78,1.49.41,3,.82,4.4,1.19l.25.06c6.73,1.68,13.69,3.43,19.63,7.68l.1.08a6.12,6.12,0,0,0,.87.64l.16.11.31.23a1.33,1.33,0,0,0,1.47.17l.29-.1a4.89,4.89,0,0,0,1.52-.65c10-6.18,19.49-2.06,27.87,1.57l1.26.55a46.59,46.59,0,0,1,13,7.83c6.31,5.7,6.54,6.15,8.2,15.71,1,6,3.54,11.57,6,17,1,2.14,2,4.36,2.85,6.58.31.77.56,1.59.8,2.38.71,2.35,1.38,4.57,3.56,5.63ZM133.9,27.78h0Z"/><path class="cls-1" d="M262,288.62l-.14.18h0Z"/><path class="cls-2" d="M259.12,290.4l1.79-2.65,1,.75h0l.67.52.69.23-.09.23h0l-.09.11-.06.07h0a1.4,1.4,0,0,1-1,.55Z"/></svg>