<svg id="Layer_1" data-name="Layer 1" xmlns="http://www.w3.org/2000/svg" viewBox="0 0 350 350"><defs><style>.cls-1{fill:#999;}.cls-2{fill:#f90;}</style></defs><title>M</title><path class="cls-1" d="M138.92,7.63s-3.15-2.23-4.84-1c0,0-5.91,4.79-7.28,6.18a44,44,0,0,0-5.43,6.53c-1.15,2-9.46,12.37-9.83,12.91a13.67,13.67,0,0,0-.71,1.18l-.3.27-1.35.14s-.07.54.71,1.18c0,0-1.69,2.3-2,7.17a29.2,29.2,0,0,0-1.32,5,20.12,20.12,0,0,1-1.12,3.35l-1.08,2.88H98.91l-2.67,1.69-.61,3,.54,2s-.3.88-.81,1.08c0,0-.64,1.08-1.49.78,0,0-2.1.95-2.23-1l-.17-.64-1.18-.91-1.25,3L83.75,67.7l3.35,2.94s-2.2,5.25-5,7.78c0,0-6.46,8.19-7.14,9.07l2.13,6.06,5.18,5.69s-1.66,1.39-.41,2.57a32.73,32.73,0,0,1,1.79,4.5s1.39,3.89,3.45,5.35l2.57,3.52,1.42,5.18s-1,.61.41,1.15l10.8,7.89,1.18,9.17L97,181.66s8.07,12.49,10.2,14a57.17,57.17,0,0,0,15.94,11.68c9,4.16,20.25,12.39,31.57,15.64s16,4.57,16,4.57l-2.49,7.21-10.39,6.55s-1.89.51-1.89,1.78l-9.34,12-4.16,8.48.46,2.84-.25,1.52-.86-.3-.25,1.83L144,273.9s.66,5-2.28,6.55l1.22,2.79a47.8,47.8,0,0,1-1.12,5.48l.46,5.48,3,5.38s8.07,2.44,8.93,5.48l.56,2.59L154,310.5s-.66,1.37.2,2.18c0,0,6.19,6.85,7.21,8.83,0,0,4,4.31,7.06,6.09l6.9,5.43,12.69,3.55.71,1.88,7.72,3.25s2.39,1.07,3-.41c0,0,3.3-3.55,3.5-3.4s6.4,1.88,7.61,3.2l5.84,2.44a1.89,1.89,0,0,0,2.23-.41c1.07-1.07,3.76-.61,4.21.61h.51s9-17.11,9.9-19.59a39.25,39.25,0,0,0,2.18-6.65s.15-3.65-.56-5.23l.57-6.7s.29-2.74,1.26-3.76c0,0,1.32-1.17,2.23-1.12l1.47-1.12v-3l1.27-1s1.62.66,2.18-.66a7.83,7.83,0,0,1,4.57-4.31,2,2,0,0,1,2-1.32l-.56-.66s6.7-3.1,8.33-5.79l1.32-1.62,2.89.41,4.31-5.63a9.88,9.88,0,0,0,1.68-4.11l5.38-3.4s-10.36-5.48-10.81-6.6c0,0,6.65-14.62,7-17.92l-1.62-5,2.64-3.4.91-3.65,2.49.66.56-2.13a36.56,36.56,0,0,1-2.84-4l-6.55-2.39s-2.23,2-4.37,1l-2-.1-.91,1.32a6.14,6.14,0,0,0-2.84.74l-.61-.18s-1.62-4.09-1.6-5.69l-1.09-1.7-.63,1.4-.05,2.56-1,.41-10.66-12.94,1.27-2.61-2-.1L237,209.38l-1.09-.94.74-3.12s-4.54-.53-5.48-1.75-7.23-4.39-7.64-5.1c0,0-2.87-.53-3.68-.56l-4.19-2.84,4.59-5.56.23-.23-.3-4a6.93,6.93,0,0,1-3.81-2.74s-2.46.15-3.15-.41a24.44,24.44,0,0,0-2.92-1.29c-.23.05-.05-1.83-.05-1.83l-.74-1.29s.2-9.67,1.09-11.65l-2.51-2.72s-1.8-6.7-3.6-8.12L199,149l-5.74-.13a14.45,14.45,0,0,1,.28-3.43L191,140.62l.69-1.65s9.57-2.64,10.15-3.15a37.8,37.8,0,0,1,4.14-2.46l.81-.91-1.57-1.68L199.05,129s-1,1.07-2.28-.3L194,127.63,188,120.87s-3.32-1.93-3.4-4.11a15.5,15.5,0,0,1-.66-3.68l0-2.26-1.27-.36a52.45,52.45,0,0,1-5.58,1.4c-.66-.05-2.46-.05-2.94.36s-2.87.36-2.87.36l-5.05-2.94s-1.17-.08-.43-1.19a10,10,0,0,0,.1-3.58s-1-4.87,2.26-5.81c0,0,5.51-.81,8.22.08h.46l4.9-7.49s.38-1.93.43-2.54c0,0,.86-1.73,1.65-2a50.11,50.11,0,0,0,.3-7.11l-.41-1.6,3.6-2.06s3.65-9.14,4.92-10.76c0,0,2.84-4.09,3.65-4.59s2.56-2.74,3.35-3.3L200.47,55s2.77-.63,1.07-3.53-4-3-4-3l-2.51,0,.1-6.88a24.92,24.92,0,0,1,13.74-6.44l3.11,1.73,1.42-3.42,2,.71,1.12-1.93,1.18.34s.37-1,1.15-.95c0,0,.17-1.22-.2-1.59l-1-1.18a19.59,19.59,0,0,0-3.42-1.08s-1.79.3-1.83.58-.61-3.18-4.16-2.91l-1.66.68-.78,2s-1.35,2.3-5.11,2.47l-4.37.24-1.86,1.08s-6.33,1.46-9.92,4.67l-5.89-.81-2.88.78s-1.25.68-1.76-.34c0,0-4.67.24-6.94-1.46,0,0-4.09-2.06-4.84-6.26l-.2-.3s-1.66.41-2.17-.27L159,27l-1.09,0-.91.61-3.45-6S151,18.26,150.22,18L149,16.46l-.58-2.23s-6-1.3-7-3.6C141.42,10.63,139.78,8,138.92,7.63Z"/><path class="cls-2" d="M224.33,345.17H222l-.34-.92a2.2,2.2,0,0,0-1-.28,1.3,1.3,0,0,0-.87.18,3.32,3.32,0,0,1-3.84.69l-6.07-2.53-.21-.23c-.31-.34-1.61-1-6-2.47l-.31-.1c-.6.57-1.66,1.66-2.57,2.63-.93,1.66-3.1,1.64-4.8.88l-8.25-3.47-.67-1.78-12.27-3.44-7.05-5.55a42.88,42.88,0,0,1-7.29-6.3l-.13-.14-.09-.17c-.67-1.32-4.62-5.89-7-8.49a3.3,3.3,0,0,1-.52-3.65l.64-2.4-.49-2.25c-.4-1.41-4.89-3.49-8-4.42l-.55-.17-3.42-6.15-.52-6.21.2-.37c.15-.39.58-2.63.9-4.62l-1.58-3.63,1.18-.61c1.7-.88,1.61-4,1.55-4.87l-2.52-4.62.56-4,.78.27-.42-2.64,4.52-9.13,9.1-11.67a3.71,3.71,0,0,1,2.66-2.52l9.81-6.18,1.83-5.32c-2.16-.61-6.82-1.93-14.6-4.16-7.43-2.13-14.86-6.39-21.43-10.14-3.69-2.11-7.17-4.1-10.35-5.57a58,58,0,0,1-16.3-11.91c-2.37-1.9-9.09-12.21-10.44-14.29l-.29-.45,6.51-43.43L101,130.18,90.8,122.75A2.12,2.12,0,0,1,89.35,121a1.79,1.79,0,0,1,.19-1l-1.16-4.22-2.29-3.14c-2.24-1.74-3.62-5.45-3.77-5.88l-.06-.21a28.18,28.18,0,0,0-1.59-4,2.67,2.67,0,0,1-.7-1.88,3.11,3.11,0,0,1,.43-1.44l-4.56-5-2.48-7.05.47-.61c.67-.88,6.89-8.75,7.15-9.08l.16-.17A22.55,22.55,0,0,0,85.38,71L81.7,67.78l6.13-6.29L89.69,57l3,2.34.33,1.3.24-.07.52-.24.27.1.06-.07.25-.41.27-.11-.48-1.75.8-3.9L98.5,52h4.84l.8-2.11a17.54,17.54,0,0,0,1-2.9,28,28,0,0,1,1.33-5.06,18.21,18.21,0,0,1,1.7-6.72,2.39,2.39,0,0,1-.39-1.53l.14-1.12,1.9-.19c.15-.26.35-.59.56-.9s.52-.69,1.75-2.25c2.35-3,7.23-9.2,8-10.57a47.28,47.28,0,0,1,5.65-6.82c1.41-1.43,7.15-6.08,7.39-6.28,2.36-1.7,5.71.39,6.44.89a10.44,10.44,0,0,1,3,3.49l.07.14c.51,1.09,3.84,2.33,6.05,2.82l.85.19.72,2.79.83,1.06a17.67,17.67,0,0,1,3.51,3.94l.09.13,2.7,4.65,2.13-.07,1.22,1.32a3.08,3.08,0,0,0,.85-.07l1-.24.92,1.38.05.29c.61,3.46,4,5.23,4.08,5.24l.21.13c1.52,1.13,4.86,1.23,6,1.18l.92,0,.27.53.27-.1,3.15-.85,5.55.76c3.49-2.82,8.68-4.22,9.82-4.51l2-1.15,4.71-.25a5,5,0,0,0,3.92-1.72l.94-2.42,2.43-1,.22,0a5.06,5.06,0,0,1,5,2.52l.89-.17.16,0c.23,0,.92-.05,4,1.18l.31.12,1.27,1.44a3.41,3.41,0,0,1,.55,2.73l-.18,1.28-1,0v0l-.46,1.22-1.37-.39-1.15,2-1.87-.66-1.52,3.65-4.09-2.27A24,24,0,0,0,196.5,42.2L196.43,47h1.06a6.92,6.92,0,0,1,5.27,3.69,3.92,3.92,0,0,1,.5,3.65,3.43,3.43,0,0,1-1.72,1.7l-1.09,2.56-.33.23a15.48,15.48,0,0,0-1.33,1.35,12.26,12.26,0,0,1-2.09,2,38.13,38.13,0,0,0-3.24,4.2c-.88,1.13-3.39,7-4.77,10.48l-.18.46-3.1,1.77.17.69a48.09,48.09,0,0,1-.3,7.46l-.09.92-.81.26a4.7,4.7,0,0,0-.78,1.08c-.1.77-.36,2.1-.42,2.39l-.05.27-5.47,8.36h-1.45l-.21-.07c-1.92-.63-5.94-.25-7.47,0-1.86.63-1.19,4.1-1.18,4.14a11.32,11.32,0,0,1-.07,4l4.45,2.59a9.27,9.27,0,0,0,1.72-.14c1-.7,3-.63,3.75-.58s3.09-.73,5.15-1.34l.39-.11,2.71.76,0,3.35a13.26,13.26,0,0,0,.6,3.26l.06.35c0,.95,1.63,2.31,2.7,2.94l.2.12,5.87,6.67,2.76,1.08.22.22a1,1,0,0,0,.35.27l.59-.65.71.31,6.52,1.86,2.73,2.9-2,2.2-.4.11a40,40,0,0,0-3.68,2.24c-.36.27-1.64.88-9.94,3.18l-.16.4,2.54,4.83-.26.62a7.59,7.59,0,0,0-.15,1.49l5,.11,5.82,6.63c1.86,1.63,3.41,6.74,3.89,8.43l2.91,3.15-.38.85c-.51,1.15-.86,6.81-1,10.71l.76,1.34,0,.44c0,.21,0,.45,0,.66.51.22,1.23.56,2.24,1.07l.2.12a7.79,7.79,0,0,0,2.22.14l.83-.05.45.7a5.52,5.52,0,0,0,3,2.13l1,.24.43,5.66-.64.64-3.56,4.31,2.59,1.76c1.09.11,3,.47,3.45.55l.65.12.25.44c.39.32,1.74,1.12,2.75,1.72,2.6,1.54,4.23,2.54,4.86,3.36.39.39,2.55,1,4.53,1.21l1.58.19-.78,3.31,1.28-.73,4.5.23-1.81,3.72L250.15,221v-.57l1.83-4,2.73,4.25v.43a17.58,17.58,0,0,0,1.11,4.12,8,8,0,0,1,1.75-.38l1-1.41,3.11.16.27.13c1.2.6,2.77-.74,2.78-.75l.63-.56.8.28,7.11,2.59.25.54a33.29,33.29,0,0,0,2.66,3.71l.44.56-1.1,4.19-2.47-.66-.64,2.55-2.36,3,1.48,4.54,0,.29c-.28,3.06-5.11,14-6.66,17.46a112.4,112.4,0,0,0,9.77,5.67l2.16,1.14-6.89,4.36a11.82,11.82,0,0,1-1.83,4.09l-4.85,6.33-2.92-.41-.76.93c-1.35,2.13-5,4.28-7.23,5.43l1.65,2-3.49-.35a.53.53,0,0,0-.56.4l-.24.6-.62.25a6.38,6.38,0,0,0-3.71,3.47,2.84,2.84,0,0,1-3.18,1.72l-.18.15v3l-2.45,1.86-.52,0a4.05,4.05,0,0,0-1.16.72,7.36,7.36,0,0,0-.84,2.89l-.54,6.34a18,18,0,0,1,.53,5.5l0,.22a29,29,0,0,1-1.62,5.24c-.19.5-.4,1-.62,1.62-.94,2.55-9.61,19.06-10,19.76Zm-12.86-5.26,5.75,2.41c.25.11.46-.1.53-.17a4.27,4.27,0,0,1,3.87-.89,4.64,4.64,0,0,1,1.31.49c2.85-5.45,8.45-16.27,9.11-18.07.22-.61.43-1.15.63-1.67a26.54,26.54,0,0,0,1.47-4.66,14,14,0,0,0-.44-4.48l-.15-.34.6-7.07c.06-.57.41-3.31,1.64-4.61l.09-.09a6.16,6.16,0,0,1,2.64-1.43l.59-.45v-3l2.45-2,.77.31a1.66,1.66,0,0,0,.36.06,9.31,9.31,0,0,1,4.85-4.85,3.76,3.76,0,0,1,.67-.8l-.47-.56,1.69-.78c2.44-1.13,6.69-3.55,7.71-5.23l.11-.16,1.82-2.25,2.87.4,3.81-5a8.29,8.29,0,0,0,1.39-3.36l.05-.71,3.93-2.48c-8.72-4.73-9.13-5.72-9.31-6.16l-.23-.57.25-.56c2.44-5.37,6.34-14.56,6.8-17.2l-1.76-5.38,2.92-3.76,1.19-4.76,2.5.66,0-.07a39,39,0,0,1-2.28-3.18l-5.32-1.94a5.35,5.35,0,0,1-5,.77l-1,0-.88,1.27h-.73a4.61,4.61,0,0,0-2,.48l-.56.39-1.93-.56-.26-.64c-.15-.38-.61-1.56-1-2.85l-2.43,1L238.22,211l.49-1-1.9,1.08-2.5-2.15.58-2.46c-1.74-.32-4-.93-4.87-2.06a30.51,30.51,0,0,0-4.06-2.65,28.93,28.93,0,0,1-3.15-2c-1.13-.2-2.6-.44-3-.46h-.41l-5.82-3.95,5.45-6.59-.19-2.46a8.42,8.42,0,0,1-3.16-2.32,6.28,6.28,0,0,1-3.18-.63c-.82-.41-1.78-.86-2.24-1.05l-.34.08-.58-.49c-.51-.45-.64-1-.53-2.56l-.71-1.25v-.39c0-1.47.21-8.25.92-11.25l-2.2-2.38-.09-.34c-.81-3-2.23-6.68-3.11-7.38l-.19-.18-5.07-5.78-6.47-.14,0-1.36a18.42,18.42,0,0,1,.19-3.28l-2.59-4.93,1.21-2.9.67-.18c4.21-1.16,8.94-2.57,9.72-2.95h0c1.22-.81,2.7-1.76,3.71-2.28l-.31-.33-5.14-1.47a2.68,2.68,0,0,1-1.13.27,3.15,3.15,0,0,1-2.17-.9l-2.85-1.11-6-6.85c-.86-.53-3.66-2.46-3.88-5a15,15,0,0,1-.67-4v-1c-4.66,1.35-5.29,1.31-5.53,1.29a7.8,7.8,0,0,0-2,.11c-.32.24-1.11.67-3.71.61h-.37l-5.15-3a2,2,0,0,1-1.28-3.06,8.3,8.3,0,0,0,.05-2.79c-.44-2.11-.33-6.41,3.26-7.44l.18,0c.55-.08,5.17-.73,8.19-.05l4.25-6.5c.14-.73.33-1.77.36-2.11l0-.27.12-.24a7.15,7.15,0,0,1,1.57-2.16,42.55,42.55,0,0,0,.26-6l-.65-2.57,4.11-2.35c.91-2.26,3.71-9.08,4.94-10.65,1.33-1.91,3.15-4.38,4-4.92a15.22,15.22,0,0,0,1.51-1.51c.53-.58,1-1.1,1.43-1.47l1.31-3.08.7-.16a.92.92,0,0,0,.5-.34c.06-.14,0-.51-.34-1.09a4.23,4.23,0,0,0-2.87-2.3l-3.89,0,.13-8.9.39-.4a26.19,26.19,0,0,1,14.58-6.86l.46-.06,2.13,1.18,1.33-3.19,2.19.77,1.08-1.87,1.27.36.25-.21-.6-.67a22.69,22.69,0,0,0-2.52-.85l-.58.12,0,.3-1.11.14A1.44,1.44,0,0,1,211,28.7a2.37,2.37,0,0,0-2.45-1.87l-.87.36L207,28.82c-.07.12-1.8,3-6.27,3.17l-4,.22-1.75,1-.21,0c-.06,0-6,1.42-9.29,4.34l-.49.44-6.25-.86-2.47.67a3.07,3.07,0,0,1-2.11.19,2.29,2.29,0,0,1-.79-.43c-1.54,0-4.93-.17-7-1.68A11.32,11.32,0,0,1,161,29.71a2.83,2.83,0,0,1-2.29-.89l-.37-.4h0l-1.83,1.22-4.17-7.19a24.14,24.14,0,0,0-2.7-3.17l-.3-.1-1.62-2.09-.44-1.69c-1.93-.51-6-1.81-7.12-4.09a11.48,11.48,0,0,0-1.85-2.4l-.24-.13c-1.08-.76-2.71-1.37-3.19-1-1.56,1.27-6,4.93-7.1,6A42.51,42.51,0,0,0,122.59,20c-.82,1.42-4.69,6.37-8.24,10.89-.89,1.14-1.53,1.94-1.65,2.12-.31.46-.62,1-.62,1l-.12.23-.34.3.19.16L111,35.85a13.64,13.64,0,0,0-1.76,6.43l-.07.36a26.74,26.74,0,0,0-1.24,4.51l0,.33a21.26,21.26,0,0,1-1.19,3.59l-1.4,3.72h-6L97.51,56,97.09,58l.57,2.06-.14.42a3.65,3.65,0,0,1-1.15,1.67A2.75,2.75,0,0,1,94,63.34a3.17,3.17,0,0,1-2.52-.19,2.4,2.4,0,0,1-.88-.91l-.35.83-4.43,4.54,3,2.63-.39.94c-.09.22-2.31,5.46-5.27,8.2-.62.78-5,6.4-6.59,8.36l1.78,5.06,6,6.57-1.13.95a1.6,1.6,0,0,0-.34.45l.15.14.16.29A32.88,32.88,0,0,1,85,105.92c.38,1,1.56,3.63,2.9,4.58l.19.13L91,114.55l1.65,6,11,8,1.29,10L98.5,181.34c3.3,5.08,8.27,12.26,9.55,13.18l.22.19a56.16,56.16,0,0,0,15.49,11.35c3.3,1.52,6.83,3.54,10.57,5.68,6.42,3.68,13.7,7.84,20.8,9.88,11.31,3.25,16,4.56,16,4.57l1.45.41-3.14,9.1-11,6.93-.21.06a1.93,1.93,0,0,0-.86.48v.49l-.28.31-9.25,11.86-3.9,7.94.42,2.63-.57,3.42-.52-.18,2.09,3.83,0,.26c0,.22.6,4.82-1.94,7.21l.93,2.13-.06.41a45.36,45.36,0,0,1-1.08,5.45l.41,4.87,2.57,4.62c2.24.73,8.41,3,9.33,6.28l.65,3-.94,3.42a1.09,1.09,0,0,0-.09.55c.69.76,6.09,6.75,7.38,9a39,39,0,0,0,6.61,5.71l.16.11,6.68,5.26,13.11,3.67.75,2,7.16,3a2.89,2.89,0,0,0,1.24.26l.06-.11.17-.21c3.27-3.52,4.13-4.37,5.22-3.69l.75.25C207.93,338,210.34,338.93,211.46,339.9Zm13.13-142.33ZM214,181h0ZM91.86,120.11h0ZM175,113.4h0Zm-1.68-2.27h0ZM94.65,59.9h0Zm15.91-26.22Z"/></svg>