<svg id="Layer_1" data-name="Layer 1" xmlns="http://www.w3.org/2000/svg" viewBox="0 0 350 350"><defs><style>.cls-1{fill:#999;}.cls-2{fill:#f90;}</style></defs><title>M</title><path class="cls-1" d="M20.29,242.41s4.07,2,6.11-2.19,8-4.38,8-4.38,2.66,11.9,6.26,13.46c3.6,3,8,5.32,9.55,5.64s3.29,1.25,4.38.78a18.54,18.54,0,0,0,4.23-3.44,24.86,24.86,0,0,0,3.13-4.85L68,238.19s5.17-5.79,11.74-4.7c7.67-.14,10.8-.14,10.8-.14H99l8.77-3.78s8.45-1.1,8.92-1.88,7.83-5.95,7.83-5.95,10.18-5.17,11.9-5.64,9.08-3.13,9.08-3.13l5.95,1.41,5-1.41,17.07,1.72,11,2.51,11.9,2s6.58-.47,8.61-2.5,10.8-4.23,11.9-3.76,6.42,1.57,6.89,1.72,5.64,3.6,5.64,3.6l10.8,8.61s8.45,7.2,14.87,6.26,18.63-3.29,18.63-3.29a69.47,69.47,0,0,1,10.49.78,51.83,51.83,0,0,0,8.3.94c3.76.31,10,.63,10,.63l.78-1.57-11-17.76-13.78-16.37-9.55-8.45,11-12.53-2.82-6.42h-5.48l-.63-3.6-.31-.94-1.57-1.41,4.38-2.35.94,1.1,3-1.1s1.1-1.57,1.57,0,1.88,5.48,1.88,5.48l1.57,1.88,1.88-.16,1.57-2.19.63.78,2-1.25,2.19,1.25,2.19-4.07,2.87,5.58,2.24-1-3.24-11.79a28.2,28.2,0,0,0,3.24.83,3,3,0,0,0,.94-.16s1,.68,1.62.57,2.66-.31,2.66-.31l1.51,5.79,2.51-.47s.05.26.21.26,1.46-.31,1.46-.31l-.37-1.2,3.08-.57a3.08,3.08,0,0,1,0-1c.1-.21-3.18-6.63-2.66-9.29l-.78-.47-1.3-4.12,1.57-.73.26-.63S316,142,316.4,142s1.1-.84,1.1-.84,6.84.1,9.39,0l2.56-.1,1.15.73,2.92-4.49,3.44-4.64a11.91,11.91,0,0,1,3.55-2.35,17.2,17.2,0,0,0,3.24-1.46l-6-9.6,1.72-6.42s.26-1.67.68-4.07h-3.24s-.31-2.56-.26-3,.1-.83.1-.83l-1.3-1.72L338,102l-1.25-2.4a19.06,19.06,0,0,0-1.25-2.56c-.21-.1-1.77,1.41-1.77,1.41l.16.63a26.54,26.54,0,0,0-4.59-1,12.3,12.3,0,0,0-2,.57L315.1,100.1l-.47,3.39-2.71,7-6.52,4.54-.68-.94-5.27,1.3-.73.21-.52-.63.42-.73-3.24-3,3.86-5.32s1.3-6.78,2.24-8.14A16.31,16.31,0,0,0,303,95l-19.41-.42-15.13-.47h-7.72l-3.29,10.65-4.23,13.83s-1.36,5-4.18,14.14-6.16,18.74-6.16,18.74-5,15.81-6.05,19.73-.42,1.67-.42,1.67L226,170.76,209.63,170l-13.46-.31L168,168.31l-18.94-1-24.48-.78s-13.78.78-18.58,2.35-15.81,5.74-15.81,5.74l-34,19.88L6.25,224.62Z"/><path class="cls-2" d="M53.88,257.27a8.76,8.76,0,0,1-2.58-.55,13.58,13.58,0,0,0-1.39-.39c-1.84-.37-6.39-2.84-10-5.82-3.41-1.75-5.73-9.68-6.59-13.12-1.6.26-4.47,1.06-5.62,3.45A5.84,5.84,0,0,1,24.31,244a6.48,6.48,0,0,1-4.66-.35l-.28-.14L4.14,224.24l51.32-31,34.2-20c.45-.17,11.1-4.21,15.88-5.76s18.37-2.38,18.94-2.42h.06l24.54.78,19,1,28.17,1.41,13.43.31,16.64.76,9,1.86.1-.37c1-3.9,5.87-19.14,6.07-19.79,0-.13,3.38-9.72,6.16-18.73s4.15-14,4.16-14.1l7.84-25.52h8.77l15.18.47,21.46.46-.78,1.91a17.67,17.67,0,0,1-1.66,3c-.46.66-1.41,4.47-2,7.6l-.06.31-3.31,4.57,2.91,2.72,5.14-1.27.42.59,5-3.5,2.5-6.49.6-4.31,13.08-1.57a6.93,6.93,0,0,1,5.95.09c1.51-1.45,2.29-2,3.27-1.53.43.22.67.33,1.9,3.22l1.93,3.71-2.3,1,.57.75-.08.59s-.05.35-.1.79c0,.16,0,.76.12,1.45h3.66l-.29,1.66c-.42,2.38-.67,4-.67,4l0,.15L339.28,119l6.44,10.31-1.25.74a18.58,18.58,0,0,1-3.55,1.6,9.91,9.91,0,0,0-2.89,1.94l-3.37,4.54L331,143.69l-2-1.24-2.11.09c-2.14.09-7.11,0-8.86,0a2.48,2.48,0,0,1-1.6.83c-.55.08-3.66.76-6.63,1.42l-.19.46-.94.44.77,2.43,1.17.71-.19,1c-.3,1.56,1.45,5.7,2.11,7.26.51,1.19.69,1.63.53,2.14,0,.11,0,.28,0,.42l.17,1.33-2.84.53.34,1.12-1.46.35a8.38,8.38,0,0,1-1.79.35,1.53,1.53,0,0,1-.67-.15l-3.09.58-1.54-5.89c-.58.06-1.13.13-1.34.17a3.45,3.45,0,0,1-2.09-.46,4.35,4.35,0,0,1-.72.06,6,6,0,0,1-1.2-.21L299.83,168l-4.58,2L293,165.61l-1.6,3L288.67,167l-2.38,1.47-.24-.3-.86,1.2-3.27.27-2.2-2.64-.08-.24c0-.14-1-2.83-1.61-4.63h0l-3.9,1.44-.84-1-1.6.86.34.31.48,1.5.42,2.43h5.21l3.55,8.09L271.06,188l8.64,7.67,13.9,16.54L305,230.6l-1.55,3.1-.92,0c-.06,0-6.33-.32-10.07-.63-1-.08-1.78-.13-2.46-.18a36.56,36.56,0,0,1-6-.79,66.69,66.69,0,0,0-10.08-.75c-1.36.26-12.54,2.39-18.56,3.27-7,1-15.63-6.27-16-6.59l-10.72-8.54c-2.23-1.49-4.75-3.12-5.3-3.42l-1.47-.34a54.46,54.46,0,0,1-5.35-1.36c-1.48-.1-8.9,1.85-10.46,3.41-2.29,2.29-8.33,2.83-9.51,2.92h-.17l-12.07-2.06-11-2.5-16.71-1.69-5.1,1.44-5.9-1.4c-1.58.57-7.25,2.6-8.79,3-1.14.31-7.64,3.51-11.54,5.49-3.22,2.26-6.8,4.91-7.39,5.53-.34.54-1.16,1.34-9.72,2.46l-8.85,3.81H90.59s-3.21,0-10.78.14h-.13l-.13,0c-5.34-.89-9.82,3.58-10.39,4.18l-6,9.07a24.69,24.69,0,0,1-3.36,5.14c-3,3.05-4.27,3.57-4.67,3.75A3.15,3.15,0,0,1,53.88,257.27ZM35.51,234.39l.25,1.14c1,4.52,3.44,11.6,5.45,12.47l.18.08.15.13c3.67,3,7.82,5.12,8.93,5.34a15.8,15.8,0,0,1,1.69.47,5.45,5.45,0,0,0,1.86.4c.34-.14,1.38-.74,3.78-3.14a22.7,22.7,0,0,0,2.87-4.48l.08-.15,6.23-9.4c.23-.26,5.7-6.29,12.9-5.17,7.5-.13,10.67-.14,10.7-.14h8.16l8.68-3.74.2,0a54.24,54.24,0,0,0,8.12-1.5c.5-.54,2.11-1.95,8-6.08l.17-.1c1.72-.87,10.4-5.26,12.17-5.74s8.9-3.07,9-3.1l.4-.14,6,1.42,4.92-1.38,17.51,1.78,11,2.51,11.65,2c2.52-.2,6.43-1,7.54-2.08,2.29-2.29,11.6-4.85,13.46-4.06.62.27,3.57.93,5,1.25,1.19.27,1.6.36,1.8.43s.65.22,6,3.77l.1.07,10.8,8.61c.11.1,8.09,6.81,13.79,6,6.31-.92,18.45-3.25,18.57-3.28l.27,0a69.85,69.85,0,0,1,10.77.81,33.91,33.91,0,0,0,5.63.74c.69,0,1.49.1,2.51.18,2.84.24,7.17.48,9,.58v0l-10.49-17L277.6,197.53l-10.53-9.32,11.29-12.91-2.08-4.75h-5.75l-.81-4.67-.16-.48-2.79-2.51,7.17-3.84,1,1.21,1.69-.62a2.39,2.39,0,0,1,2.1-.89,2.12,2.12,0,0,1,1.68,1.68c.39,1.29,1.46,4.31,1.77,5.17l.93,1.12.49,0,2.27-3.18,1,1.27,1.69-1,1.66.95,2.78-5.16,3.26,6.34-3.46-12.62,2.47.76c1.13.35,2.55.74,2.88.77a1.62,1.62,0,0,0,.4-.08l.65-.22.6.37a3.36,3.36,0,0,0,.71.35c.71-.11,2.45-.29,2.65-.31l1.21-.12,1.49,5.69,1.25-.23-.29-1,3.34-.62-.21-.49c-1.14-2.69-2.32-5.67-2.37-7.87l-.5-.3-1.84-5.82,2.19-1,.33-.8.72-.16c5.21-1.17,6.9-1.51,7.51-1.61a4.21,4.21,0,0,0,.4-.39l.43-.49h.66c.07,0,6.83.1,9.32,0l3-.12.34.22,2.16-3.31,3.66-4.9a12.86,12.86,0,0,1,4.12-2.68,12,12,0,0,0,1.63-.65l-5.52-8.83,1.86-6.94c0-.25.18-1.12.39-2.36h-2.81l-.15-1.25a21.64,21.64,0,0,1-.26-3.35l0-.29-2-2.7,2.82-1.21-.27-.51.09.37-2.39-.72a28,28,0,0,0-4.06-1,11.15,11.15,0,0,0-1.66.49l-.33.08-11.08,1.33L316,104l-2.87,7.45-8,5.58-.93-1.29-5.91,1.52-1.75-2.09.35-.61-3.33-3.12,4.41-6.08c.38-2,1.44-7,2.41-8.37.14-.2.26-.4.38-.59L283.55,96l-15.15-.47h-6.63L254.56,119s-1.38,5.1-4.18,14.15-6.14,18.69-6.17,18.78-5,15.79-6,19.63l-.06.21h0l-.41,1.46c0,.15-.09.32-.16.51v0h0c-.24.66-.7,1.38-1.76,1.09-.63-.17-.93-.4-1-.88l-9-1.85-16.27-.73-13.43-.31-28.22-1.41-19-1-24.38-.78c-1,.06-13.75.84-18.16,2.28s-14.47,5.23-15.64,5.68L56.91,195.68,8.36,225l12.82,16.26a2.88,2.88,0,0,0,3.94-1.65c2.38-4.95,8.95-5.18,9.22-5.19Zm82.44-6v0Zm198-87.79Z"/></svg>