<svg id="Layer_2" data-name="Layer 2" xmlns="http://www.w3.org/2000/svg" viewBox="0 0 350 350"><defs><style>.cls-1{fill:#999;}.cls-2{fill:#f90;}</style></defs><title>M_</title><path class="cls-1" d="M329.45,241.61l3.88-2.16,3.8-16.25.37-4.92-1-1.42a17.29,17.29,0,0,0-1.64-6.71l-1.49-1s-1.34-1.27-1.79-11.33l-8-11.33,1.79-4.62-4.1-3.65h-2.76l-6.78,2.16-8.35-.45-6.11,1.57-12.9.67-8.2,2.09-10.66-11.18-1-3.28-3.5-1.27-2.09-7.08v-5.89l-2.31-4.4-2.16-1.42-4.1-4.85L242,141.57a3.29,3.29,0,0,1-1-2.16v-5l.3-5.52-4.32-.75L225.61,122h-1.86l-1.94-2.83-5.14-1.71a51.76,51.76,0,0,1-9.91-7.68l-4.85-4.17-.3-1-6.56-6.26A19.27,19.27,0,0,0,193,96.63l-1.42-3.28-2.16-4.25-.82-6.93.37-7.68-1-8.72,1-5.29-1-6.93,1-3.13-1-7.83s-1-9.24-1.64-17.07l1.86-3.73-11.26-2.53-.45,4.4-1.57,1.42L172.17,25l-.3,4.62-1.64.75-1.79,4.47-5.74,1s-4.7,4.32-6.11,5.59l-1.12.3-4.77-2.16L147.57,42l-2.83,4.7,2.39,7s-1.49,2-21.1,6.26a64.05,64.05,0,0,0-13,4.85L106.2,66s-3-1.27.89-11l-1.57-4.25-5.07-1.27L94,44.67l-1.86,1.49-3.06-2.09-2.39-.6L80.26,40,78.39,50l-.75,1-4.17,2.09-1.19,2.16-5.14,1.19-3.5,4.92-1.57,5,2.61,3.35s-.75,1.34-5.44.75l-1.57-.15-4,.6L53,73.07l-4.47.3-2.31,1.42v7.16L40,82.84l-6,4.32L33.6,88l-2.16,1-4.85,3.8v2.61s9.24,5,10.81,5.29L41.94,106l3.8-1.57-1.57,1.86-2.83.6-3,2.46-1.57.07L26.59,117.2l-3.35,3.73-8,.67-2.39,2.46-.37,4,5.81,6.26,7.53,2.46s5.22,3.88,5.29,4.77,3.88,4.62,4.85,6,4,3.21,4,3.21l13.27,5.81,12.3,9.54s6.41,2.53,7.53,2.16l2.76,1.23,2.68,3.69,1.19-.52a45,45,0,0,1,13.72,10.36l6.86,8.05,3.58,5.89.22,1.42-1.12.89-1.42,2.31-.52,3.73,1.86,4.62s2.39,3.73,3.73,3.88l-2.09,1.64s-.52,19.68-1.19,20.28l-1.49-2.24-4.32,1.79-1.64-2.24-4-.82-5.29.3-3.28-2.24-5.89,1.86-1,10.81,2.24,2.83,3.17,7.49-.56,8.27s.22,2.46.89,2.91,3.69,2.35,4.36,3.24,3.91,7.16,4.25,9.39c3.58,4.81,11,.78,11,.78l3.47-.22s4.36-3.35,3.69,1.45a22.48,22.48,0,0,0,1.12,9.62s2.68,3.24,5.81,3,4.7.56,5.93,4.36L125,299s3.47,3.35,9.39-1.68A79.83,79.83,0,0,1,146.23,289s-.34-2.24,9.84-2.24c0,0,2.8.34,3,1s2.24-.56,3.35-1.23,8.27-10.85,10.06-10.85c1-1.9,2-3.91,5-.56l1.9,1.57,2.46,2.91,1.9,1.57,8.34-1.18c0-.05,0-.11.07-.16a6.42,6.42,0,0,1,6.63-3.71,14.66,14.66,0,0,1,1.85.25h.23c.46,0,1.68.14,3.23.3,1.73-.22,3.27-1.15,5.07-1.05s3,1,4.41,1.86a16.1,16.1,0,0,0,7.66,2.66,37.35,37.35,0,0,0,15.83-1.94,1.93,1.93,0,0,1,2.43,1.85c-.07.72-.1,1.43-.14,2.15,4.1.63,13.17,1.92,14.21-.65.62-1.51,3.39-2.11,3.71,0a72.67,72.67,0,0,1-.52,22.94c1.58.68,2,3.28-.07,3.57l-1.08.15a2,2,0,0,1-1.7.35l-.21-.06c-4.69.77-8.15,2-9.37,7.1l10.31,1.57,4,.8s4.36-.91,7.27.88l4.92,1,1.45,10.62a2,2,0,0,0,1.9,0c1-.56,14.09.25,14.09.25l.11-7.29.3-3.58,4.17-6.19,7.83-6.63s2.46-2.91,2.09-4.77l4.1-1.94a1.88,1.88,0,0,1,2,.52l7.23-1.42,2.76-3.13V291l-13.19.67-3.21-2.46-.67-3.13s9.84-2.24,11.63-3.88L332.65,271l3.8-8.27-1.71-9.24-5.07-1.19-.3-1L326,248.84l2.53-2.31Z"/><path class="cls-2" d="M289.73,332.25l-1.48-.09c-5.75-.35-12.26-.58-13.44-.36a3.35,3.35,0,0,1-3.21-.1l-.56-.35-1.41-10.28-4.18-.86-.21-.13c-2-1.22-5.17-.92-6.24-.7l-.28.06-4.31-.85-11.77-1.8.36-1.5c1.48-6.19,6-7.43,10.52-8.17l.31-.05.5.14a.63.63,0,0,0,.48-.12l.29-.21,1.44-.2a.42.42,0,0,0,.17,0,.69.69,0,0,0,0-.33.82.82,0,0,0-.41-.48l-1-.44.18-1.1a70.57,70.57,0,0,0,.51-22.49.47.47,0,0,0,0-.16,1,1,0,0,0-.43.07.92.92,0,0,0-.52.42c-1.07,2.63-5.63,3.07-15.74,1.52l-1.27-.19L238,282c0-.67.07-1.35.13-2a.37.37,0,0,0-.16-.23.57.57,0,0,0-.43-.15,38.68,38.68,0,0,1-16.4,2,17.4,17.4,0,0,1-8.28-2.87l-.34-.21a7,7,0,0,0-3.4-1.43,7.61,7.61,0,0,0-2.53.49,13.6,13.6,0,0,1-2.29.56l-.17,0-.17,0c-1.45-.15-2.62-.25-3.12-.29h-.14l-.31,0a13.29,13.29,0,0,0-1.67-.23,5,5,0,0,0-5.3,3l-.32.73-.8.16-9,1.27-2.56-2.14-2.38-2.81-2-1.63c-1.17-1.3-1.67-1.33-1.68-1.33h0a5.44,5.44,0,0,0-1,1.54l-.4.75-.7.05c-1.08.54-4.46,4.75-6.1,6.79-2.12,2.64-2.86,3.52-3.43,3.87-2,1.19-3.32,1.92-4.41,1.51a1.68,1.68,0,0,1-.82-.65,9.62,9.62,0,0,0-2-.44c-5.89,0-7.75.78-8.28,1.1l.07.49-.87.48a79.08,79.08,0,0,0-11.62,8.11c-6.49,5.51-10.68,2.16-11.24,1.67l-3.65-3-.13-.39c-1.07-3.29-2.13-3.55-4.48-3.38-3.82.26-6.88-3.37-7-3.53l-.15-.19-.08-.22A23.77,23.77,0,0,1,107.37,279a4.25,4.25,0,0,0,0-.93,5.49,5.49,0,0,0-1.47.8l-.34.26-3.6.23c-1.55.77-8.61,3.86-12.48-1.33l-.21-.29-.05-.35c-.29-1.94-3.39-8-4-8.75A19.61,19.61,0,0,0,81.64,266l-.37-.25c-.82-.55-1.33-1.88-1.52-4v-.11l.54-8-3-7-2.47-3.13L76,231.15l7.44-2.35,3.45,2.35,5-.28,4.74,1L98,233.61l4.37-1.81,0,.06c.27-3.86.53-10.36.69-16.38l0-.67,1.08-.85a18.57,18.57,0,0,1-2.51-3.2l-.12-.23-2-5,.62-4.39,1.7-2.77.67-.53-.05-.33L99.08,192l-6.79-8a44,44,0,0,0-12.67-9.72L78,175l-3.13-4.31-2.07-.92c-.92,0-2.95-.37-7.81-2.29l-.19-.07-12.32-9.56L39.2,152c-.33-.2-3.28-2-4.39-3.62-.33-.48-1.14-1.39-1.93-2.27-2-2.24-2.89-3.29-3.11-4.16a35.3,35.3,0,0,0-4.59-3.9l-7.66-2.5-6.5-7,.48-5.15,3.1-3.2,7.95-.67,3.17-3.49,10.56-8,1.53-.07,2.3-1.9L36.59,102c-2.33-.81-8.65-4.19-10.68-5.28l-.74-.4V92.13l5.65-4.39,1.7-.82.32-.7,6.63-4.75,5.31-.77V74l3.29-2,3.85-.26.65-2.08,5.08-.75,1.74.17a12.81,12.81,0,0,0,3.07.09l-1.94-2.5,1.85-5.92,3.95-5.54L71.35,54l1.1-2L76.7,49.9l.36-.5,2.16-11.6,8,4.35,2.45.61L92,44.4l1.89-1.52,7.14,5.25,5.52,1.38,2,5.46-.2.5c-2.33,5.87-2,8.2-1.67,9l5.76-1a65.31,65.31,0,0,1,13.18-4.87c13.4-2.9,18.15-4.73,19.73-5.49l-2.23-6.57L146.49,41l4-3.15,5.09,2.31.3-.08c1.65-1.48,5.85-5.35,5.85-5.35l.31-.28,5.37-.91,1.71-4.26,1.38-.63.33-5.14,3.55.1.74-.67.55-5.45,14.58,3.28-2.5,5c.66,7.64,1.59,16.55,1.6,16.65l1,8.1-1,3.11,1,6.86-1,5.32,1,8.62L190,82.12l.78,6.56,2,4,1.29,3A23.06,23.06,0,0,1,196,97.31l6.85,6.53.29,1,4.52,3.9a52.73,52.73,0,0,0,9.57,7.45l5.47,1.82,1.79,2.61H226l11.44,6.17,5.34.92-.37,6.78v4.92a1.74,1.74,0,0,0,.43,1l8.4,3.38,4.19,5,2.3,1.5,2.64,5v6l1.83,6.2,3.49,1.26,1.16,3.63,9.86,10.34,7.67-1.92,12.75-.66,6.19-1.58,8.31.44,6.75-2.15h3.52l5.24,4.67-1.87,4.83,7.78,11,0,.41c.33,7.5,1.16,9.83,1.41,10.38l1.56,1,.17.36a19,19,0,0,1,1.76,6.86l1,1.49-.44,5.63-3.94,16.86-3.84,2.14-.86,4.73-1.59,1.45,2.33,1.65.21.72,5.16,1.21,2,10.59L333.76,272l-19.43,11.42c-1.81,1.47-7.64,3-10.78,3.78l.27,1.26,2.38,1.82,14.16-.72v7.32l-3.43,3.89-8.44,1.65-.53-.53a.6.6,0,0,0-.45-.22l-3.24,1.53a10.75,10.75,0,0,1-2.43,4.79l-.17.17L294,314.65l-3.86,5.72-.27,3.21Zm-12.28-3.37c2,0,4.93.09,9.49.36l.09-5.81.33-4,4.49-6.66,7.88-6.68c.93-1.13,1.84-2.81,1.71-3.49l-.22-1.09,5.1-2.41a3.27,3.27,0,0,1,3,.29l6.12-1.2,2.09-2.37v-3.27l-12.23.62-4-3.1-1.07-5,1.36-.31c4.56-1,10.05-2.68,11-3.54l.24-.18,18.77-11,3.43-7.46-1.46-7.89-5-1.17-.39-1.37L323.77,249l3.48-3.17.93-5.11,3.91-2.18L335.72,223l.33-4.31-.93-1.37v-.44a16.08,16.08,0,0,0-1.34-5.74l-1.35-.9c-1.11-1-1.89-5.26-2.21-11.88L322,186.72l1.71-4.41-3-2.64h-2L312,181.84l-8.39-.45-6.18,1.55-12.75.66-8.87,2.26-11.46-12-.93-2.93-3.52-1.27-2.35-8v-5.74l-2-3.76-2-1.33-4-4.73-8.24-3.31-.17-.15a4.7,4.7,0,0,1-1.54-3.16v-5.07l.23-4.33-3.31-.57-11.22-6.05H223l-2.09-3.06L216,118.74a52.76,52.76,0,0,1-10.22-7.9l-5.11-4.4-.31-1.08-6.28-6a17.32,17.32,0,0,0-1.87-1.54l-.37-.23-1.59-3.68L188,89.51l-.86-7.3.37-7.68-1-8.83,1-5.26-1.05-7,1-3.15-.93-7.52c0-.12-1-9.37-1.65-17.12l0-.4,1.23-2.47L178.19,21l-.34,3.35-2.39,2.16-2-.05-.27,4.11-1.89.86-1.87,4.68-6.11,1c-1.07,1-4.62,4.25-5.82,5.32l-.25.23-1.93.52-4.45-2-2.25,1.77-2.36,3.91,2.41,7.09-.44.6c-1.15,1.55-9.14,4-21.93,6.8A63,63,0,0,0,113.66,66l-.21.11L106,67.46l-.39-.16c-1-.42-3.84-2.53-.07-12.35l-1.12-3-4.61-1.15L94,46.46l-1.83,1.47-3.71-2.54L86,44.72l-4.7-2.57-1.56,8.38L78.6,52.12l-4.09,2-1.29,2.33L68,57.71,64.92,62l-1.28,4.07,2.73,3.51-.45.82c-.36.66-1.76,2.11-6.86,1.46l-1.35-.13-3,.44L54,74.42l-5.09.34-1.34.82v7.59l-7.06,1-5.45,3.9-.43.94-2.49,1.2L28,93.51v1.07a93.52,93.52,0,0,0,9.66,4.75l.47.1.34.37,3.88,4.52,8.19-3.37L45,107.6l-3,.63-3.08,2.54-1.6.08-9.76,7.41-3.64,4-8,.67-1.67,1.72-.27,2.9,5.13,5.53,7.4,2.42.18.14c5.18,3.85,5.75,5,5.84,5.62a29.7,29.7,0,0,0,2.46,3,31.05,31.05,0,0,1,2.16,2.56,14.37,14.37,0,0,0,3.43,2.74l13.48,6,12.14,9.42a34.63,34.63,0,0,0,6.48,2l.42-.14,3.61,1.61,2.24,3.07.73-.32.57.26a46.09,46.09,0,0,1,14.2,10.72l7,8.24,3.72,6.13.4,2.51L104,200.3l-1.13,1.85-.43,3.06,1.67,4.14a11.52,11.52,0,0,0,2.71,3.14l3.44.38-4.38,3.35c-.53,19.64-1.1,20.14-1.65,20.63L103,237.94l-1.75-2.62L97,237.08l-2-2.69-3.31-.67-5.59.32L83,231.91l-4.34,1.37-.9,9.31,2.08,2.71,3.3,7.8-.57,8.49a7.56,7.56,0,0,0,.4,1.84l.21.14a20.35,20.35,0,0,1,4.36,3.34c.66.88,3.8,6.79,4.44,9.63,2.88,3.37,8.89.18,9,.15l.27-.15,3.37-.22c.93-.64,2.87-1.71,4.37-.83,1.08.63,1.49,1.93,1.22,3.87a21,21,0,0,0,1,8.7c.76.83,2.63,2.47,4.46,2.33,3.89-.28,5.89,1.07,7.24,4.94l3.12,2.61c.09.08,2.7,2.33,7.49-1.74a81.8,81.8,0,0,1,11.6-8.16,2.55,2.55,0,0,1,.32-.46c1.29-1.5,4.79-2.22,10.69-2.22h.17a7.55,7.55,0,0,1,3.53,1.05c.58-.26,1.47-.8,1.86-1a41.19,41.19,0,0,0,2.76-3.26c3.78-4.71,5.71-6.9,7.13-7.59.65-1.19,1.47-2.4,2.94-2.59,1.68-.21,3.1,1.11,4.06,2.17l2,1.68,2.38,2.81,1.32,1.09,7-1a7.76,7.76,0,0,1,7.69-4,14.82,14.82,0,0,1,1.83.24H201c.45,0,1.61.13,3.09.29a12.51,12.51,0,0,0,1.66-.43,10,10,0,0,1,3.51-.61,9.54,9.54,0,0,1,4.76,1.86l.33.21a14.63,14.63,0,0,0,7,2.45,36.11,36.11,0,0,0,15.27-1.87,3.35,3.35,0,0,1,3.07.63,3.12,3.12,0,0,1,1.21,2.7q0,.4-.06.81c10.09,1.44,11.31.17,11.42,0a3.83,3.83,0,0,1,3.86-2.21,2.88,2.88,0,0,1,2.55,2.55,72.6,72.6,0,0,1-.37,22.5,3.69,3.69,0,0,1,1.17,3.11,2.89,2.89,0,0,1-2.58,2.52l-.78.11a3.45,3.45,0,0,1-2.49.38c-3.88.66-6.25,1.64-7.44,4.5l8.67,1.32,3.82.76c1.09-.18,4.89-.65,7.77,1l5.67,1.16,1.44,10.55C273.85,329.11,274.44,328.89,277.45,328.89ZM107.37,277.8Zm65.27-.68h0ZM72.74,167Zm-43-25.26h0Z"/></svg>