<svg id="Layer_1" data-name="Layer 1" xmlns="http://www.w3.org/2000/svg" viewBox="0 0 350 350"><defs><style>.cls-1{fill:#999;}.cls-2{fill:#f90;}</style></defs><title>M</title><path class="cls-1" d="M81.21,6.36,72.72,8.13,73,11.06l-1.73.14-7.18,2.93,3.59,9.63,3.56,3.52.52,2.52s3,4.42,3.31,5.11,2.07,4.45,2.07,4.7.76,7.25.69,7.39.28,2.87.28,2.87,4,5.45,4.8,5.94,5,3.73,5,3.73,3.45,3.52,3.8,3.9,7.42,3.18,7.42,3.18,0,3.8.69,5.28,3,6.32,5.42,8.77L106.52,84a60.62,60.62,0,0,1,2.14,6.08c0,.59,2.14,8.35,2.35,11.12s1,8.39,1,8.39l-1.07,3.9,3.28,4s-5.7,5.7-6.66,6.32h-3.18l-2.66,1.31s-1.42,2.9-1.28,3.83-2.93,11.08-2.93,11.08l2.52,10s3.52,4.45,4.18,6.15,2.49,6.08,4.07,7.22,4.66,4.25,5.28,6.18a75.45,75.45,0,0,0,6.08,13c2.76,4.42,5.73,8.77,13.67,9.53s9,2.83,9.53,5.18,2.83,7.46,5.39,8.84,10.08,3.38,9.46,5.66-1.79,2.42,0,5.59,2.73,7.8,2.45,9.8a17.88,17.88,0,0,0,3.45,11.32c3,3.66,5.87,6.84,5.39,9.39s-3.11,6.84-3.18,8.49-4.9,3-4.9,3-10,6.9-11.81,12.64-10.36,5.66-10.36,5.66.28,5-.41,5.8-3.18,4-7.11,0c0,0-1.52-2.9-1.38-3.8s-1-1.66-1.8-1.66-1.93-2.83-1.93-2.83-8.06.83-9.55,2.14,0,2.28-.73,3.87-3.94,1.8-4.7,2.9a21.93,21.93,0,0,1-7.94,5.25c-2.83.83-3.31.76-3.38,1.52s-3.52,3.38-2.83,4.83,3,.62,5.32.41-2.28,2.76-1.8,3.8,2.49-.28,3.11.35.69,1.73,1,1.93,2.28.14,2,.69-5.39,12.5-4.56,15.74c0,0-.14,1,2.28,1.93a2.89,2.89,0,0,1,1.52,4c-.28.76-3.45,3.25-.35,4.7s5.11-3.66,5.66-4.28,3.25-9.11,6.21-10,3.45,1.59,3.45,2-3.59,5.25-3.25,6.56,6.49,5,8.49,5.32,3.31-.21,3.66-1.86a9.43,9.43,0,0,1,2.11-4.42,27.73,27.73,0,0,0,3-5.8c.62-1.48,1.9-2.14,4.76-2.14s10.91-.45,13.08,1.69-.31,2.76-.9,3.66-3,4.63-2.45,6.8,1.45,8.11,2.38,9.87,1,8.7,6.77,6.63a80.64,80.64,0,0,1,7.32-3.66,110.2,110.2,0,0,0,10.43-4.83c2.07-1.24,9-4.56,10.63-5.39s9.94-4.7,11-5.3,3.66-2.43,4.4-4.49,3.52-6.37,3.73-7.2.16-7.25.21-8,0-7.87,0-8.23-2.24-6.71-2.42-7.41a54.88,54.88,0,0,0-2.16-6.27c-.43-.62-3.37-6-3.63-6.39s1.09-4.89,1.35-6.2,1.52-6.3,1.62-6.47,4-5.06,4.16-5.2a4.62,4.62,0,0,1,2.28.35c.59.31,9,1.8,10.55,2.19s11.2.74,12.19.72,14.83-.76,15.47-.76,7.23-.57,7.23-.57l-2.52-7.28L249.8,251a2.74,2.74,0,0,0-2.24-.85,49.66,49.66,0,0,1-5.44-.69,2.37,2.37,0,0,1-1.42-1.67,30.5,30.5,0,0,1-.57-3.57l5.08-5.7L256,226.15s7.49-5.66,13.05-5.66a4,4,0,0,0,4.94-.66,50,50,0,0,0,4.9-6.35l4.59-1.76,2.42-9.8-1.8-2.76s-2.11,2-1.52-1.69l-4.54-3s-6.21-1.86-7.15-2.85-3.78-3.83-3.94-4.09-2.23-7.77-3-8.86A17.64,17.64,0,0,0,260.4,175c-.88-.48-19.32-2.25-19.32-2.4s.83-9.37.83-9.37l-4.4-3.47s-15.54-2.12-20.71-5.18l-6.21-2.69-2.49-3.73-1.92-20s-6.94-15.9-9.68-19.32-5.7-8.08-5.7-8.08L179.61,89.64a48.27,48.27,0,0,0-1.19-5.08s-4.66-4.25-6.21-6-.73-4.35.1-5.49,2.07-6.21,2.17-7.15-1.55-2.23-1.55-2.23l-2.49-1.86s-1.24-6.78-2-7.41-5.08,3.11-5.49,3.83l-2.43-.16-4.25-2.59-1.86-7.46-2.8-.83-1.24.41-2.12-2,.16-9-6.42-11-.26-7.66-1.55-6.21-2.69-1.66-4.61-1.35-10.2,3.06L116,17.65s-1.86,2.64-4,.1l-2.28-3.88-5.08-2.43S93.49,9.89,90.9,9.06,81.21,6.36,81.21,6.36Z"/><path class="cls-2" d="M156.64,345.05a4.65,4.65,0,0,1-2.19-.52c-2.23-1.17-2.94-3.87-3.46-5.83a9.62,9.62,0,0,0-.43-1.41c-.68-1.29-1.24-4-1.9-7.33-.22-1.14-.44-2.21-.6-2.86-.47-1.86.42-4.53,2.64-7.92a4.31,4.31,0,0,1,1-1,5.69,5.69,0,0,0,.47-.39,2.68,2.68,0,0,0-.41-.48c-1.47-1.45-8.21-1.34-10.74-1.3l-1.35,0c-2.93,0-3.23.73-3.46,1.27a29,29,0,0,1-3.23,6.12,8,8,0,0,0-1.84,3.84c-.28,1.34-1.32,3.52-5.24,3-2.16-.3-9.09-4.16-9.67-6.36-.33-1.27.52-2.93,2.56-6.18.2-.32.43-.69.58-.94a1,1,0,0,0-.32-.47,1.71,1.71,0,0,0-1.24,0c-1.58.48-3.8,5.75-4.53,7.49a8.16,8.16,0,0,1-1,2.11c0,.07-.14.25-.28.49-.91,1.61-3.32,5.88-7,4.14a3.44,3.44,0,0,1-2.1-2.28c-.38-1.6.76-3,1.44-3.87.12-.15.23-.28.3-.38.56-1.61-.35-2-.74-2.13-2.62-1-3.11-2.37-3.17-3.08-.65-3.32,2.66-11.73,4.08-15.11a2.32,2.32,0,0,1-.84-.28,2.5,2.5,0,0,1-1-1.44c0-.13-.11-.29-.17-.43l-.29.06c-.76.15-2.52.5-3.26-1.08a2.44,2.44,0,0,1,.66-2.64c-1.63.19-3.37.15-4.18-1.56s.82-3.64,2-5c.24-.27.56-.62.7-.82.24-1.36,1.36-1.67,2.88-2.08l1.49-.42a21.33,21.33,0,0,0,7.17-4.69,5.34,5.34,0,0,1,2.67-1.65c.65-.25,1.74-.67,1.89-1a1.54,1.54,0,0,0,0-1,3.26,3.26,0,0,1,1.09-3.4c1.65-1.45,7.78-2.22,10.34-2.49l1.07-.11.39,1a9.52,9.52,0,0,0,1,2,3.58,3.58,0,0,1,2.16,1.18,2.58,2.58,0,0,1,.64,2.08,15,15,0,0,0,1.14,2.74A4,4,0,0,0,135,284a3.31,3.31,0,0,0,2.17-1.35l0,0a22,22,0,0,0,.15-4.88l-.08-1.51h1.51c.15,0,7.54,0,9-4.67,1.92-6.13,11.93-13.09,12.36-13.38l.2-.14.23-.06a10.25,10.25,0,0,0,3.87-1.79,15.17,15.17,0,0,1,1.56-4.33,23.07,23.07,0,0,0,1.64-4.25c.31-1.64-2-4.43-4.18-7.12l-.91-1.11A19.38,19.38,0,0,1,158.77,227c.23-1.63-.55-5.91-2.27-8.91-1.6-2.78-1.31-3.92-.63-5.46a8.83,8.83,0,0,0,.42-1.08c-.55-.84-3.93-2.17-5.58-2.83a32.2,32.2,0,0,1-3.15-1.36c-3.07-1.66-5.48-7.18-6.09-9.76-.37-1.58-.79-3.37-8.28-4.09-8.9-.85-12.14-6-14.74-10.19a76.28,76.28,0,0,1-6.22-13.3c-.47-1.47-3.22-4.36-4.76-5.46-1.83-1.32-3.65-5.49-4.57-7.85a39.63,39.63,0,0,0-4-5.78l-.19-.24L96,140l.11-.38c1.36-4.5,2.8-9.64,2.88-10.58-.1-1.15.71-3.1,1.42-4.55l.21-.43,3.39-1.67h3c.86-.73,3.08-2.86,5.23-5l-2.93-3.58,1.19-4.33c-.17-1.2-.79-5.74-1-8.19A71.29,71.29,0,0,0,108,93.59a24.52,24.52,0,0,1-.73-3.4c-.13-.62-1.15-3.37-2-5.62L104,81.43c-2.9-3.13-5.47-8.91-5.5-9a16.17,16.17,0,0,1-.79-4.88c-6.54-2.6-6.85-2.94-7.08-3.2S88.31,62,86.93,60.59c-1.6-1.24-4.24-3.26-4.76-3.58-.69-.42-2.44-2.54-5.2-6.31l-.22-.3,0-.37a19.75,19.75,0,0,1-.29-3.2c0-.67-.32-3.4-.47-4.91-.13-1.28-.18-1.81-.21-2.07-.22-.59-1.22-2.75-1.6-3.59l-.36-.78c-.2-.42-1.78-2.82-3.19-4.89l-.16-.23L69.94,28l-3.47-3.44L62.28,13.34,70.94,9.8l.51,0L71.19,7,81.25,4.91l.32.08c.29.08,7.16,1.88,9.75,2.71,2,.65,10.46,1.9,13.54,2.33l.22,0,5.67,2.72,2.43,4.15c.29.33.59.53.78.51a1.57,1.57,0,0,0,.9-.62l.22-.24,6.86-5.95,10.9-3.26L138.2,9l3.18,2L143.12,18l.25,7.31,6.44,11-.15,8.77,1,1,.87-.29,4,1.18,1.92,7.68,3.45,2.1,1.38.09c1.26-1.33,4-3.54,5.44-3.82a1.84,1.84,0,0,1,1.55.34c.35.28,1.15.92,2.43,7.71l2,1.53c.71.55,2.28,2,2.11,3.52-.1.88-1.35,6.33-2.44,7.82-.53.74-1.17,2.64-.2,3.7,1.49,1.64,6.07,5.82,6.12,5.86l.27.24.12.34a44.36,44.36,0,0,1,1.16,4.84L192,100s2.94,4.64,5.6,8c2.83,3.53,9.59,19,9.88,19.64l.09.21,1.9,19.86,2.06,3.08,6,2.61c4.87,2.88,20,5,20.19,5l.38.05,5.31,4.18-.07.76c-.23,2.58-.55,6.15-.72,8l4.83.54c11.17,1.22,13,1.5,13.64,1.83a18.62,18.62,0,0,1,4,4.08c.58.81,1.35,3.17,2.66,7.52.19.65.35,1.17.44,1.44.37.4,1.42,1.48,2.14,2.22l1.58,1.62a35.31,35.31,0,0,0,6.52,2.47l.2.06,5.48,3.62-.08.49.32-.29,3.05,4.68-2.74,11.12-4.86,1.86a48.33,48.33,0,0,1-4.82,6.19,5.38,5.38,0,0,1-6.29,1.09c-4.07.2-9.71,3.77-11.74,5.28l-10.71,12.3-4.67,5.24a24.06,24.06,0,0,0,.46,2.75,1,1,0,0,0,.46.66,44.74,44.74,0,0,0,5,.64,4.06,4.06,0,0,1,3.39,1.44l.17.33.67,1.85,3.12,9-1.81.16c-1.11.1-6.69.58-7.35.58-.34,0-4.12.2-7.44.37-4.52.23-7.51.38-8,.39-1,0-10.76-.31-12.56-.77-.6-.15-2.46-.51-4.26-.86-5.1-1-6.15-1.22-6.6-1.45a4,4,0,0,0-.94-.2c-.87,1.07-3,3.75-3.57,4.46-.27.92-1.28,4.93-1.5,6.08-.09.44-.29,1.24-.52,2.12s-.7,2.7-.81,3.4l1.09,2c.77,1.39,2.06,3.71,2.29,4,.66,1,2.31,6.48,2.37,6.73s.62,1.92,1.07,3.24a34.21,34.21,0,0,1,1.38,4.38c.05.53.05,7.73,0,8.46,0,.2,0,1.14,0,2a45.81,45.81,0,0,1-.22,6.19,15.88,15.88,0,0,1-1.52,3,38.14,38.14,0,0,0-2.25,4.35c-.88,2.45-3.69,4.5-5.05,5.25-.56.3-2.45,1.2-5.49,2.64-2.37,1.12-4.82,2.28-5.58,2.67-.51.27-1.58.79-2.86,1.42-2.68,1.31-6.34,3.11-7.7,3.92-2.61,1.57-9.3,4.38-10.61,4.93a79.61,79.61,0,0,0-7.16,3.58l-.22.1A7.16,7.16,0,0,1,156.64,345.05Zm-13.43-31.91c4.51,0,8.72.32,10.56,2.13a3.52,3.52,0,0,1,1.3,2.7,3.39,3.39,0,0,1-1.61,2.43,4.3,4.3,0,0,0-.4.34c-2,3-2.44,4.88-2.25,5.65s.39,1.79.63,3a38.44,38.44,0,0,0,1.63,6.55,10,10,0,0,1,.67,2c.38,1.46.91,3.45,2,4A2.85,2.85,0,0,0,158,342a80.23,80.23,0,0,1,7.36-3.67,109.31,109.31,0,0,0,10.24-4.74c1.46-.88,5.19-2.71,7.91-4,1.25-.62,2.3-1.13,2.8-1.39.81-.42,3.18-1.54,5.68-2.72,2.26-1.07,4.82-2.28,5.34-2.56,1-.53,3.18-2.15,3.75-3.73a38.37,38.37,0,0,1,2.45-4.78c.51-.9,1.15-2,1.25-2.32.09-.51.11-3.87.13-5.49,0-1.27,0-2,0-2.22,0-.64,0-7,0-7.94-.14-.49-.78-2.39-1.25-3.8-.72-2.15-1-3.12-1.13-3.46-.19-.77-1.61-5.2-2-5.84-.25-.36-1.12-1.91-2.41-4.23-.52-.93-1.11-2-1.21-2.16-.48-.73-.34-1.47.66-5.29.21-.81.4-1.54.48-1.95s1.46-6.36,1.8-6.93c.13-.23,4.11-5.24,4.44-5.53,1-.85,3.22-.12,3.78.1h0c.51.18,3.76.81,5.92,1.22s3.74.72,4.42.89c1.28.32,10.53.71,11.81.68.47,0,4.42-.21,7.9-.39,4.92-.25,7.27-.37,7.59-.37s2.73-.19,5.3-.41l-2.48-7.08a2.22,2.22,0,0,0-1-.22,49.82,49.82,0,0,1-5.67-.71l-.19,0a3.76,3.76,0,0,1-2.35-2.67,31.43,31.43,0,0,1-.61-3.79l-.06-.62,5.49-6.16,11-12.6c.32-.24,7.94-5.95,13.91-5.95h.41l.34.21a2.54,2.54,0,0,0,3.18-.45,48.69,48.69,0,0,0,4.72-6.13l.25-.39,4.33-1.66,2.09-8.49-.74-1.13a1.93,1.93,0,0,1-1.45-.14,2.69,2.69,0,0,1-1.11-2.74l-3.64-2.41c-2.48-.75-6.56-2.1-7.57-3.17-.33-.35-.92-1-1.54-1.58a24.74,24.74,0,0,1-2.58-2.75,10.56,10.56,0,0,1-.69-2.07,63,63,0,0,0-2.26-6.7,18.09,18.09,0,0,0-3-3.18c-1.2-.3-8.35-1.08-12.66-1.55l-4.4-.49c-2.17-.25-3.07-.35-3.07-1.66,0-.08,0-.21.77-8.74l-3.5-2.76c-2.49-.36-15.76-2.36-20.78-5.26L209.63,153l-2.92-4.37-1.93-20.12c-2-4.53-7.28-16.15-9.4-18.79-2.53-3.16-5.19-7.26-5.7-8.07L178.29,90.33l-.08-.44s-.53-2.9-1-4.54c-1-1-4.66-4.28-6-5.8-2-2.23-1.22-5.59,0-7.28a30.32,30.32,0,0,0,1.9-6.35,4.47,4.47,0,0,0-1-1.08l-2.91-2.18-.1-.55a57.87,57.87,0,0,0-1.39-6,19.09,19.09,0,0,0-3.52,2.93l-.44.77-.85-.1-2.78-.18-5-3.08-1.81-7.24-1.59-.47L150,49.3l-3.2-3,.16-9.25-6.4-10.95-.27-7.87-1.38-5.51-2-1.25-4-1.17-9.51,2.85-6.29,5.46a4.24,4.24,0,0,1-3,1.64,3.87,3.87,0,0,1-3.15-1.61l-.14-.19L108.75,15l-4.49-2.15c-1.63-.23-11.29-1.6-13.79-2.41-2.21-.71-7.88-2.21-9.29-2.59L74.25,9.26l.29,3.1-2.94.23L65.9,14.92l3,8.05,3.64,3.6.55,2.66c1,1.47,3,4.4,3.28,5.09l.35.76c1.85,4,1.85,4.11,1.85,4.52,0,.11.1,1,.21,2a54.25,54.25,0,0,1,.47,5.53.75.75,0,0,0,0-.08c0,.23.11,1.27.23,2.23a59.4,59.4,0,0,0,4.24,5.31c.76.46,4.33,3.23,5,3.78l.14.13c.33.33,3,3.09,3.71,3.81.72.39,4.06,1.77,7,2.94l.89.35v1a17.59,17.59,0,0,0,.57,4.72c.64,1.46,3,6.12,5.14,8.36l.2.21,1.42,3.65c2.05,5.18,2.24,6.18,2.24,6.56s.37,1.66.65,2.82a68.87,68.87,0,0,1,1.69,8.21c.2,2.68,1,8.24,1,8.3l0,.29-1,3.48,3.63,4.43-.91.91c-1.36,1.36-5.88,5.85-6.9,6.51l-.35.23h-3.26l-1.92.95a11.16,11.16,0,0,0-.94,2.64c0,.27.18,1.16-2.87,11.26l2.35,9.3c.81,1,3.56,4.61,4.2,6.27,1.29,3.32,2.73,6,3.58,6.58,1.67,1.2,5,4.53,5.81,6.9a74.06,74.06,0,0,0,5.93,12.66c3,4.77,5.63,8.2,12.6,8.87,8,.76,10,2.87,10.77,6.26.58,2.49,2.81,6.9,4.68,7.92.63.34,1.71.77,2.84,1.21,4,1.57,8.1,3.2,7.31,6.07a10.79,10.79,0,0,1-.6,1.61c-.4.91-.51,1.16.49,2.9,2,3.39,2.95,8.36,2.63,10.71a16.63,16.63,0,0,0,3.15,10.24l.9,1.1c2.86,3.49,5.33,6.5,4.78,9.45a24.17,24.17,0,0,1-1.84,4.89,17,17,0,0,0-1.31,3.4c-.09,2.26-3.51,3.59-5.71,4.21-2.81,2-9.75,7.55-11.07,11.76-1.6,5.12-7.45,6.3-10.24,6.58.11,4.37-.57,5.12-.84,5.42l-.1.11a6,6,0,0,1-4.21,2.31,6.77,6.77,0,0,1-4.86-2.38l-.15-.15-.1-.19c-.75-1.44-1.62-3.36-1.54-4.51a.77.77,0,0,0-.38-.18c-.4,0-1.54,0-2.82-2.72-3.39.41-7.06,1.13-7.73,1.68-.26.23-.26.23-.16.79a4.23,4.23,0,0,1-.21,2.58c-.62,1.44-2.2,2-3.47,2.53a6.15,6.15,0,0,0-1.37.64,23,23,0,0,1-8.69,5.78l-1.53.43-.92.26a5.83,5.83,0,0,1-1.29,1.8,11,11,0,0,0-1.48,1.92,10.57,10.57,0,0,0,2.09-.19c.56-.08,1.14-.17,1.72-.22a1.86,1.86,0,0,1,2.05.94c.54,1.12-.3,2.05-1.24,3a2,2,0,0,1,1.62.58,4.4,4.4,0,0,1,1,1.68h0c.87.11,1.85.23,2.31,1.09a1.6,1.6,0,0,1,0,1.48c-.87,1.8-5.06,12.38-4.45,14.76l0,.16a3.83,3.83,0,0,0,1.39.81c2.35.94,3.26,3.22,2.32,5.81a4.1,4.1,0,0,1-.72,1.11c-.23.28-.92,1.15-.89,1.46h0a1.46,1.46,0,0,0,.54.35c1,.44,1.93-.41,3.38-3a7.12,7.12,0,0,1,.56-.89c.11-.21.38-.84.61-1.4,1.75-4.17,3.68-8.31,6.32-9.11a4.06,4.06,0,0,1,3.78.43,3.9,3.9,0,0,1,1.5,2.93c0,.54-.23.9-1.08,2.25a24.19,24.19,0,0,0-2.16,4c.94,1.12,5.71,4.05,7.26,4.27,1.87.25,2-.33,2.08-.75a10.87,10.87,0,0,1,2.37-5,26.76,26.76,0,0,0,2.85-5.48c1.11-2.65,3.69-3,6.07-3l1.3,0ZM110.16,324l0,0Zm8.8-1Zm-13.56-20.78,0,.08ZM137.3,282.5h0Zm-9.24-5.92h0ZM99,129.13v0Zm8.22-38.9Zm0-.19h0ZM92.72,62.47h0Zm-.2-.17h0Z"/></svg>