<svg id="Layer_1" data-name="Layer 1" xmlns="http://www.w3.org/2000/svg" viewBox="0 0 350 350"><defs><style>.cls-1{fill:#999;}.cls-2{fill:#f90;}</style></defs><title>M</title><path class="cls-1" d="M234,53.6s2.48,7.95-6.21,8.44-15.9,1.49-19.87,6.71a71.93,71.93,0,0,0-7.2,12.67s-31.54-3.48-46.2-5.46-26.33-4.22-30.05-5.22S115.58,69,113.59,68s-4.22,14.65-2.73-3l1.49-17.63A169.28,169.28,0,0,1,91.49,37.7C81.3,32,81.8,32.24,75.34,30.25s-1.74-1-13.16-3.23S52,22.8,48.27,31s-6.46,13.41-5,23.1,4,11.43,7,15.15l3,3.73L5.92,87.62a147.1,147.1,0,0,1,5.59,32.78c.75,17.14,3.73,30.55,3.73,32s-4.1,8.94-4.1,8.94-2.24,8.2,3,11.18c0,0,4.47,4.84,5.59,10.43s13.41,10.8,13.41,10.8l10.8,7.82s4.47,4.1,2.24,9.69-6.33,13-4.1,17.14,3,16.76,3,16.76L43.18,256S38,269.8,40.94,273.15s13.41,14.9,14.53,15.27,4.1,9.31,11.18,11.55,16.39,7.08,17.51,7.08,2.24,17.88,2.24,17.88,7.45-7.08,23.84-10.43,23.47-8.2,23.47-8.2,6-2.61,7.08-2.61,27.94-18.25,36.88-20.86,4.84-4.84,18.25-1.86,24.22,3.73,26.45,2.61,23.1-13.41,23.1-13.41L276,251.55l41.73-13.78,16.76-5.22,9.56-5.84s-6.33-4.59-44.46,1.74l-1.49-11.67s-10.09-5.21,1.22-11.67c0,0-4.21-7.95,7.47-7.95l.75-12.67,3.48,1,1.49-10.18-57.72-1.17s-4.85,1.24.59-16l6.19-19.56s7.93-28.39,12.16-35.54,11.37-11.47,4.39-19.41S234,53.6,234,53.6Z"/><path class="cls-2" d="M85.17,328.06,85,325c-.43-6.93-1.17-14.68-1.73-16.73-.79-.25-2.1-.83-4.7-2a126.11,126.11,0,0,0-12.33-5c-5.59-1.77-8.8-7.22-10.52-10.15a16.55,16.55,0,0,0-1-1.57c-2.12-1.37-10.09-10.18-14.83-15.51-3.32-3.74.9-15.74,1.92-18.45l1.81-10.51c-.22-3.57-1.12-12.92-2.8-16-2.17-4,.43-10,2.72-15.25.46-1.07.92-2.11,1.31-3.09,1.73-4.34-1.36-7.61-1.83-8.07L32.42,195c-1.88-.81-12.91-5.81-14.1-11.77-.92-4.62-4.39-8.78-5.11-9.6C7.37,170.11,9.67,161.39,9.77,161l.13-.31c1.81-3.3,3.83-7.41,3.92-8.29,0-.26-.24-1.62-.48-3.06a232.33,232.33,0,0,1-3.25-28.88A146.92,146.92,0,0,0,4.57,88l-.42-1.35L50.83,72.23l-1.68-2.1c-.39-.49-.77-.94-1.14-1.37-2.55-3-4.76-5.65-6.11-14.45-1.47-9.57,1-15,4.47-22.56l.9-2c2.86-6.3,3.38-6.94,9.75-5.37,1.41.35,3.17.78,5.43,1.22l2.74.53c5.55,1.08,5.65,1.1,7.28,1.66.64.22,1.56.54,3.29,1.07l.66.2c5.81,1.78,6,1.88,15.21,7.06l.55.31a169.21,169.21,0,0,0,20.66,9.59l1,.38-1.58,18.71q-.08,1-.16,1.9a2.15,2.15,0,0,1,.59-.36,1.83,1.83,0,0,1,1.52.06,33.82,33.82,0,0,0,6,1.57c1.59.33,3.23.68,4.67,1.06,3.58,1,15.21,3.19,29.88,5.18,13,1.76,39.59,4.73,45.14,5.35a69.92,69.92,0,0,1,6.94-12c4.46-5.86,12.44-6.78,20.92-7.26,2.17-.12,3.67-.76,4.46-1.9,1.31-1.88.48-4.68.47-4.71l-1.06-3.5,3.14,1.87c1.52.91,37.4,22.31,44.45,30.33,6.13,7,2.43,11.89-1.15,16.63a48.51,48.51,0,0,0-3.09,4.43c-4.09,6.91-11.94,34.92-12,35.2l-6.21,19.61c-3.64,11.5-2.36,13.8-2.1,14.12l59.51,1.21-2,13.38-3.33-1-.72,12.24h-1.34c-3.39,0-5.61.71-6.42,2-.95,1.57.19,3.81.2,3.83l.64,1.21-1.19.68c-3.07,1.75-4.68,3.52-4.65,5.11,0,1.91,2.45,3.59,3.38,4.08l.66.34,1.4,11c36.36-5.9,43.38-1.75,44.07-1.25l1.72,1.25-11.7,7.09-16.76,5.22-41.55,13.73-30.41,18.54c-.87.51-20.95,12.34-23.2,13.47-2.84,1.42-14.62.35-27.39-2.49-8.81-2-9.52-1.6-11.89-.41a29.93,29.93,0,0,1-5.67,2.25c-5.84,1.7-20.18,10.69-28.75,16.06-7.47,4.68-7.84,4.86-8.53,4.86a49.58,49.58,0,0,0-6.4,2.44c-1,.67-8.33,5.16-23.87,8.34-15.81,3.23-23.08,10-23.15,10.07Zm-.92-22.42c1.31,0,2.29.35,3.39,16.51,3.36-2.39,10.6-6.63,22.32-9,15.85-3.24,22.89-7.93,23-8l.23-.13a44,44,0,0,1,7.36-2.7c.78-.36,4-2.35,7.31-4.45,9.26-5.8,23.25-14.57,29.46-16.38a27.07,27.07,0,0,0,5.18-2.06c3.09-1.56,4.4-1.91,13.78.17,15,3.33,24.13,3.41,25.51,2.72,1.73-.87,15.81-9.12,23-13.37l30.67-18.7,41.88-13.83,16.62-5.17,6.73-4.11c-4.42-.8-15.54-1.49-40.81,2.71l-1.45.24-1.59-12.44c-1.33-.85-4.18-3-4.24-6.14-.05-2.48,1.64-4.84,5-7a6.58,6.58,0,0,1,.38-5.36c1.22-2,3.74-3.16,7.5-3.37l.77-13.13,3.62,1,1-7-56-1.14a2.71,2.71,0,0,1-2.3-.87c-2-2.09-1.51-7.64,1.44-16.95l6.19-19.56c.31-1.12,8-28.61,12.29-35.84a50.62,50.62,0,0,1,3.26-4.7c3.55-4.71,5.89-7.81,1.28-13.06-5.72-6.51-32.92-23.21-41.3-28.28a7.41,7.41,0,0,1-1.23,4c-1.32,1.9-3.55,3-6.64,3.13-7.79.45-15.09,1.25-18.82,6.15a71,71,0,0,0-7,12.37l-.42,1-1-.11c-.32,0-31.73-3.5-46.23-5.47-15.62-2.12-26.83-4.34-30.23-5.25-1.37-.36-3-.7-4.52-1a45.69,45.69,0,0,1-5.94-1.49,23.7,23.7,0,0,0-1.06,2.64c-.6,1.69-1,2.92-2.41,2.62-1.54-.33-1.52-1-.76-9.94l1.4-16.57a172.12,172.12,0,0,1-20.05-9.39l-.55-.31c-9.14-5.13-9.14-5.13-14.65-6.82l-.67-.21c-1.77-.55-2.72-.87-3.38-1.1-1.44-.5-1.44-.5-6.9-1.56l-2.74-.54c-2.33-.46-4.12-.9-5.56-1.25-2.13-.52-3.54-.87-4.06-.57s-1.34,1.94-2.43,4.36l-.9,2c-3.36,7.36-5.59,12.22-4.24,21,1.23,8,3.11,10.23,5.48,13.05.38.46.78.92,1.18,1.43l4.28,5.35-48,14.86a150.24,150.24,0,0,1,5.26,31.78,229.57,229.57,0,0,0,3.21,28.53,31.68,31.68,0,0,1,.52,3.57c0,1.58-2.58,6.54-4.18,9.46-.24,1-1.5,7.22,2.35,9.42l.19.11.15.16c.19.21,4.75,5.2,5.94,11.11.71,3.54,8.09,7.87,12.58,9.78l.28.16,10.93,7.93c.21.19,5.16,4.83,2.59,11.26-.4,1-.86,2.07-1.34,3.17-1.93,4.46-4.34,10-2.83,12.77,2.36,4.33,3.12,16.83,3.15,17.36v.16l-2,11.22c-2.36,6.25-4,14-2.5,15.7,5,5.58,12.75,14,14.05,14.92.74.31,1.21,1.11,2.09,2.61,1.64,2.79,4.38,7.45,8.93,8.89a128.28,128.28,0,0,1,12.63,5.1C81.58,304.56,83.69,305.5,84.25,305.64Zm-.08,0h0Zm56.61-3.35h0Zm0,0h0Zm-86-12.66a1,1,0,0,0,.28.15A1.42,1.42,0,0,1,54.74,289.63Zm1.18-2.54h0Z"/></svg>