<svg id="Layer_1" data-name="Layer 1" xmlns="http://www.w3.org/2000/svg" viewBox="0 0 350 350"><defs><style>.cls-1{fill:#999;}.cls-2{fill:#f90;}</style></defs><title>M</title><path class="cls-1" d="M337.61,19.89,319.8,16.42,307.43,7,302,13.46h-7.42s-14.84,17.81-14.84,13.85-11.87-7.92-11.87-7.92l-2,2.47-5.44-.49s-9.4,2.47-12.37,2.47-24.24,5.94-24.24,5.94l.49,4L203.78,60l8.16,4.95-15.34,9.4,7.17,10.39-11.63,4.45c-15.34,12.86-28.7-5.44-28.7-5.44l3.46-4.95-5.44-10.89-7.42,7.42-2.47,4-7.92,10.89c-20.29-16.82-19.79,3.46-19.79,3.46L114,91.14l1,20.29-21.77,8.41v9.9L73.4,144.57,56.58,165.35l-43-24.24,13.36,17.81L13.54,180.2,21,186.63l2,5.44,12.37-18.8S54.6,203,57.08,226.7l28.7-7.42,2.47,3-3.46,4.45L93.69,246l-23.25,8.91L66,252.43,41.74,263.81l-17.32-3.46-15.83,9.4s5.94,11.38,7.92,10.88,17.32-2.47,17.32-2.47l2-3.46,10.88,2.47s2,11.87,6.43,11.38,18.8,13.36,18.8,13.36-1.48,8.41,2,11.38l3.46,3-7.92,8.91L98.14,343l9.9-19.3L115,297.46l17.32-12.37,5.44-21.28s1-22.27-.49-25.73-15.34-20.78-15.34-20.78l-7.42-8.91,62.84-30.68,61.85-33.15s45.52-11.87,52.94-11.38,20.78-1.48,20.78-1.48l2.47-7.42,7.92-4-2.47-5.94,2.47-8.91-4-6.93,4-9.4s-5.44-3-4.45-7.42a20.33,20.33,0,0,0,0-8.41l4.95-4-1.48-3,3-3L332.67,58l.49-5.94,4.45-1.48s5.94-16.82,3-23.75Z"/><path class="cls-2" d="M98.7,345,67.27,325.48l8.08-9.09-2.37-2c-3.43-2.94-2.89-9.59-2.57-11.94-6.59-6.28-14.86-12.74-17.13-12.46-4.93.55-7.15-8.21-7.82-11.61l-8.95-2-1.81,3.16-.7.09c-4.24.55-15.6,2.05-17.15,2.44-.84.21-3.06.77-9.52-11.61l-.62-1.19,17.45-10.36,17.39,3.48L66,250.84l4.51,2.51,21.22-8.13-8.63-18.7,3.29-4.23-1.17-1.4-29.42,7.61-.17-1.64c-2.06-19.78-16.21-44.13-20.39-51L22.57,195.21l-2.82-7.75-8.06-7L25.18,159,8.36,136.56l47.88,27,16.18-20L91.78,129V118.86l21.72-8.39-1-21.17,10.07,2.52c.25-2.61,1.22-7.27,4.91-9.06s9.05-.11,15.95,5.35l7-9.68L153,74.3l8.81-8.81,6.7,13.4-3.34,4.77c1.77,2.1,7.1,7.74,13.9,8.56,4.16.5,8.23-.89,12.12-4.15l.18-.15L201.59,84l-7-10.14,14.63-9-7.54-4.57,21.15-27-.57-4.59,1.18-.33c2.2-.61,21.55-6,24.63-6,2.28,0,9.44-1.75,12-2.43l.24-.06,4.93.45,2.12-2.65.94.31c2.71.9,11,3.94,12.57,7.91,2.42-1.82,8-7.91,12.61-13.41l.43-.51h7.43l5.89-7,13.18,10,18.22,3.54,3.26,7.62C345,33.61,339.2,50.33,338.95,51l-.23.65-4.22,1.41L334,58.75l-7.86,5.76L324,66.68l1.54,3.08-5.17,4.14A22,22,0,0,1,320.2,82c-.74,3.35,3.71,5.85,3.75,5.87l1.12.62-4.18,9.93,3.9,6.83-2.5,9,2.79,6.71-8.57,4.29L313.94,133l-.86.13c-.55.08-13.6,2-21.08,1.5-5.65-.36-36.6,7.2-52.33,11.29L178,179l-61.26,29.91L123,216.4c1.45,1.81,14,17.59,15.55,21.13s.78,22.58.61,26.35l0,.29-5.57,21.78L116.2,298.31l-6.91,26ZM71.62,324.85l26,16.11,9.12-17.79,7-26.57L131,284.24l5.28-20.63c.37-8.5.59-22.67-.39-25s-9.62-13.55-15.14-20.45l-8.56-10.27,64.46-31.47,61.95-33.21.16,0c1.87-.49,45.81-11.93,53.39-11.42,6.12.41,16.57-.93,19.62-1.35l2.38-7.15,7.26-3.63-2.15-5.17,2.45-8.81-4-7,3.77-9c-1.77-1.27-5-4.2-4.07-8.27a19.11,19.11,0,0,0,0-7.76l-.22-.88L322,69l-1.43-2.86,3.86-3.83,6.9-5.06.52-6.23,4.68-1.56c1.69-5,4.93-17,2.78-22.07l-2.67-6.24-17.4-3.38L307.64,9l-5,5.91h-7.42c-12.86,15.36-14.79,14.66-15.73,14.32a1.87,1.87,0,0,1-1.2-1.88c0-1.62-5.08-4.48-10-6.25l-1.83,2.29-6-.54c-1.72.45-9.6,2.46-12.49,2.46-1.93,0-14.46,3.28-22.69,5.56l.42,3.33L205.88,59.58l8.79,5.33-16,9.83L206,85.38l-13.09,5c-4.46,3.67-9.21,5.23-14.11,4.64-9.56-1.16-16.18-10.1-16.46-10.48l-.6-.82,3.56-5.08-4.19-8.37-5.92,5.92L152.78,80,143.92,92.2l-1.16-1c-8-6.65-12.08-6.9-14.07-5.93-3.46,1.68-3.4,8.2-3.4,8.27l0,1.86L115.48,93l.95,19.4L94.61,120.8v9.63L74.39,145.6,56.93,167.17,18.71,145.65l9.9,13.2L15.38,179.92l6.78,5.88,1.14,3.14,12-18.25,1.18,1.82c.78,1.2,18.67,28.94,21.8,52.43l28-7.24,3.78,4.54-3.63,4.67,9.18,19.89-25.29,9.68L65.93,254l-24,11.27-17.24-3.45-14.2,8.43c2.18,4,4.87,8.18,6,8.92,2.54-.52,13.36-1.94,16.48-2.35l2.15-3.76L47.93,276l.16.94c.74,4.42,2.85,10.43,4.88,10.21l.34,0c5.09,0,17.19,11.43,19.61,13.77l.54.52-.13.74c-.37,2.12-.82,8.06,1.51,10.06l4.56,3.91Z"/></svg>