<svg id="Layer_1" data-name="Layer 1" xmlns="http://www.w3.org/2000/svg" viewBox="0 0 350 350"><defs><style>.cls-1{fill:#999;}.cls-2{fill:#f90;}</style></defs><title>M</title><path class="cls-1" d="M7.11,154s-1.78,7.84,0,11.19,6.05,12.76,6.05,12.76,2.24-4.93,7.16-4.48,12.54,5.59,13.44,9.39S47,205,47,205s-2.68,8.29-7.16,9.41-3.12,12.54-2.9,15.23.68,13,3.15,14.77,14.34,11.41,16.35,14.54,5.83,9.17,3.82,12.76l2.91,1.79v6.94l6,2.68-1.56,6.72,5.82,2.91s9.17-5.38,14.32-6.06,9.18,5.59,15.23,6,17.69,4.46,21.95,7.82,8.28,1.11,15-3.37c10.75,5.81,17.91,5.81,20.38,8.72s-3.8,8.06,2.7,11.86,14.55-3.82,19.92-1.81,27.55,23.26,37,23c0-15,3.12-16.57,2.67-19.48s-4.71-14.1-4.71-14.1-5.16-10.07-4.71-12.53-.69-21.27,0-22.39,1.56-10.52,3.57-12.76,8.89-14.11,7.91-18.81-18,3.15-18-2c.44-13.88.65-30.67,2.66-31.57s10.08,2.9,16.34,1.33c9.85,4.25,11.87,4.92,15.45,1.11l7.16-7.17,6,.67s-2.68,12.54-1.33,17.91,6.73,12.08-1.55,16.34c8.29,2.46,14.34,13.65,15,17.9,8.29,3.13,14.11,8.27,16.13,9.17s10.53,7.16,13.66,5.81a129.22,129.22,0,0,1,17.23-5.16c3.81-.67,24.18,4.46,27.54,3.56-3.81-7.61-2.25-12.09-.91-13.66s2.46-8.29.89-12.09c3.13-7.39,2.68-10.3,2.68-10.3a12,12,0,0,1-3.59-6.94c-.68-4.48-4.27-27.09-5.62-31.56s-4.71-9.18-9.19-11.41a91.11,91.11,0,0,1-10.08-6.26s1.55-18.36,1.55-25.52,9.83-30.45,11.84-34.49.66-14.78-6.74-26c-2.26-22.39-1.6-36.71-9-39.84-9-.89-8.51-1.11-7.84-5.37s3.13-5.82-1.13-7.39c.22-8.51,2.45-11,.88-14.78s-2-10.07-8.74-10.07-15-.88-16.56,2.92-6.71,7.17-12.08,9-1.8-12.31-7.39-9.4-6.26,6-9.62,7.84-6.71,4.93-7.83,7.62,0,8.51-1.11,9.4-8.28,1.57-10.52,1.58c0-3.81,6.71-5.15,6.71-5.15s.22-4.25-.45-6-6-5.37-9.63-6.93-5.59,2.69-6.26,4.93-6.93,8.06-8.06,5.6,2.46-6.94,3.35-7.39-.45-6.94-4.93-6-8.73,3.59-9.85,4-.89,3.58-2.91,6.27-4.48,2.69-4.25,6.72,5.84,20.37,4.72,26.19c-9.18.23-15.89,7.62-27.31,7.41s-13.65,2.92-18.35,7.18-9,4.93-12.31,3.37-10.52,2-14.33-1.78-6.28-18.13-9.42-17.9a21,21,0,0,0-14.32,6.28c-5.82,5.6-8.06,5.38-11.19,1.8S72.41,56.76,70.62,55s-4.48.45-11,5.16S39.3,85.89,39.3,86.78s-3.58-1.12-3.58-1.12-8.5,13.44-11.85,15.9,0,2.91-.67,8.51-1.1,24-1.77,26.87-5.81,12.54-10.06,14.78Z"/><path class="cls-2" d="M219.79,340.37c-6.65,0-18-8.83-27.17-15.93-4.35-3.38-8.46-6.57-10.13-7.19-1.91-.72-4.59.21-7.42,1.19-4,1.38-8.55,3-12.72.51-4.85-2.84-3.85-6.64-3.2-9.15.39-1.5.61-2.45.13-3-.93-1.1-3.1-1.78-6.11-2.73a75.18,75.18,0,0,1-13.11-5.25c-5.76,3.84-10.8,6.9-16,2.83-3.9-3.07-15.18-7.08-21.17-7.52-3.27-.24-6-2-8.34-3.48s-4.45-2.84-6.6-2.56c-4.8.63-13.7,5.82-13.79,5.87l-.66.39L66,290.58l1.55-6.67-5.82-2.58v-7.07l-3.4-2.09L59,271c1.63-2.9-2.29-9-3.77-11.3-1.77-2.74-13-12-16-14.16-2.27-1.65-3.1-7.07-3.64-14.71,0-.44-.06-.8-.08-1.09l-.05-.59c-.63-6.88-.74-14.93,4-16.12,2.77-.69,5-5.41,5.93-7.83-2.37-3.54-12.17-18.36-13-22-.73-3.1-7.79-7.91-12.19-8.31-3.89-.35-5.72,3.62-5.74,3.66l-1.29,2.85-1.29-2.85c0-.09-4.26-9.4-6-12.67-2-3.72-.33-11.32-.14-12.18l.14-.64,4.83-2.55c3.68-1.94,8.69-11,9.34-13.85.33-1.44.64-7.79.91-13.4.25-5.24.52-10.67.83-13.31a9.09,9.09,0,0,0-.47-4.37c-.57-1.76-.81-3.26,1.71-5.11S32.2,88.58,34.52,84.91l.72-1.14,1.17.66a18.49,18.49,0,0,0,2,1C41.12,80.17,53.24,63,58.82,59l1.55-1.13c5.83-4.25,8.75-6.38,11.25-3.89a74.47,74.47,0,0,0,7,4.25c5.86,3.34,12.49,7.12,14.54,9.46,1.25,1.42,2.15,2,3,2.08,1.36.07,3.27-1.21,6.14-4a22.27,22.27,0,0,1,15.2-6.67c2.76-.21,4.2,3.76,6.21,9.24,1.29,3.53,2.76,7.53,4.31,9.07,1.8,1.79,4.81,1.48,7.73,1.17,2.3-.24,4.48-.47,6.19.33,3.16,1.47,6.88.39,10.76-3.13l1.2-1.1c4-3.72,7.18-6.65,18.14-6.44,5.88.11,10.46-1.91,14.91-3.86,3.65-1.6,7.12-3.12,11.09-3.48.16-3.86-1.69-11.1-3.07-16.52a59.09,59.09,0,0,1-1.79-8.25A6.2,6.2,0,0,1,196,30.27a10.43,10.43,0,0,0,1.79-1.78,10.9,10.9,0,0,0,1.62-3.71c.37-1.31.72-2.55,1.9-3,.2-.08.66-.32,1.15-.58a34.7,34.7,0,0,1,8.94-3.53c3.44-.69,5.59,1.78,6.47,4.32.28.81,1.06,3.54-.62,4.38-.75.52-3,3.73-2.78,5.27,1.44-.36,5-3.69,5.49-5.16s1.63-4.66,4.21-5.85a4.73,4.73,0,0,1,4,0c3.21,1.4,9.43,5.19,10.39,7.73.75,2,.57,6.15.54,6.62l-.06,1.1-1.08.22A11.12,11.12,0,0,0,233,38.55a38,38,0,0,0,7.37-1.12,17.83,17.83,0,0,0,.14-3,16.71,16.71,0,0,1,.66-5.92c1.19-2.87,4.68-6.3,8.47-8.32a11.63,11.63,0,0,0,3.1-2.67,22,22,0,0,1,6.54-5.18,3.52,3.52,0,0,1,3.31-.26c1.77.89,2.15,3.23,2.55,5.72.21,1.33.58,3.55,1.16,3.9.13.08.45,0,.58-.05,5.54-1.85,9.94-5.05,11.22-8.16,1.68-4.1,8.26-4,14.61-3.84,1.1,0,2.17.06,3.26,0h0c6.49,0,8.09,5,9.27,8.72.26.81.5,1.57.77,2.23,1,2.53.67,4.52.16,7.27a47.39,47.39,0,0,0-.9,7.12c3.24,1.58,2.49,3.76,1.83,5.7a16.31,16.31,0,0,0-.76,2.83l-.09.54a7,7,0,0,0-.18,2c.42.53,4.29.91,6.84,1.17l.21,0,.2.08c6.69,2.83,7.46,12.48,8.75,28.47.29,3.67.63,7.81,1.06,12.19,7.42,11.37,9,22.41,6.63,27.08-2.42,4.85-11.7,27.35-11.69,33.85s-1.18,21.16-1.48,24.83a85.19,85.19,0,0,0,9.23,5.68,20.56,20.56,0,0,1,9.91,12.27c1.43,4.76,5.15,28.36,5.67,31.76a10.7,10.7,0,0,0,3.11,6.07l.4.34.08.52c.05.33.4,3.38-2.56,10.55,1.44,4.31.3,11.08-1.33,13-1.16,1.36-2.24,5.44,1.1,12.1l.78,1.55-1.68.45c-1.89.51-6.8-.32-14.66-1.75-5.07-.92-11.37-2.06-13-1.78a127,127,0,0,0-16.92,5.07c-2.81,1.21-7.52-1.43-12.5-4.48-1-.6-1.89-1.16-2.3-1.34a23.41,23.41,0,0,1-3.09-2,59.72,59.72,0,0,0-13-7.18l-.77-.29-.13-.81c-.64-4-6.6-14.56-14-16.76l-3.38-1,3.14-1.62c5.09-2.62,4.13-5.86,2.14-10.93a32.37,32.37,0,0,1-1.32-3.81c-1.13-4.52.34-13.43,1-17l-3.83-.42-6.68,6.69c-4.29,4.57-7.45,3.31-16.59-.62-4,.83-8.39-.16-11.66-.89a22.07,22.07,0,0,0-3.81-.65c-1.17,2.3-1.55,15.51-1.83,25.23,0,1.72-.1,3.44-.15,5.11a.28.28,0,0,0,0,.09c.6.7,5,0,7.15-.4,4.93-.83,10-1.68,10.8,2,1.13,5.41-6.22,17.8-8.24,20-1,1.16-1.93,5.95-2.41,8.52a18.73,18.73,0,0,1-.92,3.87c-.21,1.12,0,7,.07,11.27.17,5.92.25,9.61,0,10.8s2.2,7,4.58,11.63l.06.14c.44,1.16,4.33,11.42,4.79,14.39a7.86,7.86,0,0,1-.6,3.83c-.77,2.36-2.06,6.31-2.05,15.86v1.38l-1.38,0Zm-38.84-26.21a7.16,7.16,0,0,1,2.53.43c2.08.78,6,3.79,10.88,7.61,7.78,6,18.21,14.13,24.18,15.21.13-8.91,1.4-12.82,2.18-15.21a5.52,5.52,0,0,0,.5-2.52c-.35-2.25-3.42-10.61-4.61-13.74-1.3-2.54-5.3-10.66-4.81-13.36.18-1,0-6.11-.08-10.22-.28-9.94-.25-11.83.24-12.64.13-.3.41-1.84.65-3.09.83-4.45,1.63-8.27,3.09-9.89,2.11-2.34,8.4-13.66,7.58-17.57-.21-1-5.55-.09-7.56.24-4.11.69-7.65,1.28-9.44-.23a2.91,2.91,0,0,1-1-2.3c.05-1.72.1-3.43.15-5.15.6-20.9,1.09-26.71,3.35-27.71,1.24-.55,3-.15,5.75.45,3.3.74,7.41,1.65,10.83.8l.46-.12.44.19c10,4.31,11,4.42,13.85,1.44l7.67-7.68L256,200l-.33,1.53c0,.12-2.59,12.28-1.34,17.27a30,30,0,0,0,1.21,3.46c1.53,3.91,3.56,9.08-1.1,12.94,7.1,3.67,12.08,12.71,13.2,17.14a63.55,63.55,0,0,1,12.84,7.22,24.46,24.46,0,0,0,2.63,1.69,28.49,28.49,0,0,1,2.63,1.51c2.24,1.37,8.21,5,9.9,4.29a128.73,128.73,0,0,1,17.55-5.26c2-.35,6.6.44,14,1.78,3.88.7,8.86,1.61,11.62,1.82-3.45-8.3-.48-12.44.19-13.23.93-1.08,2.06-7.21.65-10.63l-.23-.55.23-.55c2.23-5.27,2.55-8.12,2.58-9.13a13.65,13.65,0,0,1-3.59-7.34c-.82-5.44-4.3-27.12-5.58-31.37a17.89,17.89,0,0,0-8.46-10.55,91.31,91.31,0,0,1-10.27-6.38l-.65-.47.07-.8c0-.18,1.55-18.38,1.54-25.4,0-7.75,10.34-31.83,12-35.12s.7-13.44-6.65-24.55l-.19-.29,0-.35c-.46-4.54-.8-8.82-1.1-12.6-1.14-14.23-1.9-23.69-6.84-26-5.28-.53-7.49-.81-8.59-2.24-.87-1.13-.65-2.49-.37-4.21l.08-.52a18.93,18.93,0,0,1,.88-3.3c.64-1.9.64-1.9-1.09-2.54l-1-.35,0-1a49.07,49.07,0,0,1,1-8.53c.47-2.52.73-3.91,0-5.67-.32-.77-.58-1.58-.85-2.45-1.34-4.2-2.45-6.74-6.57-6.74H296c-1.06,0-2.16,0-3.26,0-4.89-.09-11-.22-11.94,2.09-1.91,4.65-7.94,8.1-12.94,9.77a3.4,3.4,0,0,1-2.94-.21c-1.71-1-2.11-3.49-2.5-5.87-.18-1.1-.55-3.38-1-3.64a1.51,1.51,0,0,0-.73.24,19,19,0,0,0-5.76,4.59A14.18,14.18,0,0,1,251,22.72c-3.21,1.72-6.24,4.62-7.19,6.91a15.56,15.56,0,0,0-.45,4.83c0,2.47,0,4.26-1.09,5.14-1.8,1.44-10.52,1.89-11.41,1.89h-1.42V40.07c0-3.87,4.54-5.64,6.75-6.27a16,16,0,0,0-.4-4.43c-.38-1-4.82-4.36-8.87-6.13a1.87,1.87,0,0,0-1.65-.06c-1.25.58-2.23,2.57-2.69,4.09-.69,2.3-5.38,7-8.24,7.2a2.4,2.4,0,0,1-2.46-1.42c-1.38-3,1.8-7.49,3.49-8.89a5.2,5.2,0,0,0-1.34-3.09,2.21,2.21,0,0,0-2.16-.65,31.73,31.73,0,0,0-8.18,3.26c-.52.27-.92.49-1.24.63a9.62,9.62,0,0,0-.4,1.24A13.48,13.48,0,0,1,200,30.2a13,13,0,0,1-2.24,2.25C196.51,33.51,195.93,34,196,36a62.9,62.9,0,0,0,1.71,7.71c1.68,6.58,3.77,14.77,3,18.83l-.21,1.12-1.14,0c-3.94.1-7.5,1.66-11.27,3.31-4.51,2-9.67,4.22-16.1,4.1-9.85-.19-12.34,2.15-16.15,5.69l-1.22,1.12c-6.38,5.78-11.42,4.74-13.86,3.6-1-.47-2.8-.28-4.7-.08-3.25.34-7.28.76-10-2-2-2-3.5-6.11-5-10.1-1-2.73-2.51-6.83-3.44-7.38a19.41,19.41,0,0,0-13.35,5.88c-3.61,3.48-6,4.85-8.22,4.76s-3.74-1.59-5-3c-1.74-2-8.72-6-13.82-8.87-4.45-2.54-6.82-3.9-7.62-4.71S66.13,57.16,62,60.14l-1.55,1.13c-5.85,4.24-18.75,23.5-19.79,25.81a1.6,1.6,0,0,1-.77,1.1c-.39.23-1.08.63-3.71-.66C34,91,27.71,100.5,24.7,102.71c-1.07.78-1.07.78-.69,1.95a11.84,11.84,0,0,1,.59,5.58c-.3,2.55-.56,7.92-.82,13.12-.37,7.6-.62,12.33-1,13.9C22,140.57,16.65,150.54,12,153l-3.67,1.93c-.58,2.93-1,7.63,0,9.58,1.26,2.35,3.66,7.52,5,10.54a8.15,8.15,0,0,1,7-3c5.22.47,13.6,5.84,14.69,10.48.62,2.61,8.13,14.4,13,21.69l.38.57-.21.65c-.3.92-3.07,9.07-8.16,10.35-1.13.28-2.87,2.36-1.89,13.12l.05.61c0,.29.05.67.08,1.12.67,9.43,1.72,12.07,2.48,12.62,2.25,1.64,14.48,11.45,16.71,14.92,1.86,2.89,5.55,8.62,4.38,12.94l2.57,1.58v6.81l6.28,2.78L69.3,289l4.14,2.07c2.26-1.27,9.59-5.25,14.18-5.85,3.19-.42,5.88,1.31,8.49,3,2.2,1.41,4.47,2.86,7,3,6,.44,18.07,4.45,22.72,8.12,3.4,2.68,6.67,1,13.33-3.44l.71-.47.75.41A70.7,70.7,0,0,0,154,301.34c3.46,1.09,6,1.88,7.41,3.6s.92,3.76.45,5.57c-.64,2.46-1.11,4.24,1.89,6s6.77.5,10.36-.75A22,22,0,0,1,180.95,314.16ZM40.66,87.17Zm-2.59-1a1.19,1.19,0,0,0-.18.63A1.93,1.93,0,0,1,38.07,86.15ZM215.92,23.81h0Z"/></svg>