<svg id="Layer_1" data-name="Layer 1" xmlns="http://www.w3.org/2000/svg" viewBox="0 0 350 350"><defs><style>.cls-1{fill:#999;}.cls-2{fill:#f90;}</style></defs><title>M</title><path class="cls-1" d="M300.86,258.21l.66-.6.49-1.1,1.15-1.1,1-1.43,1-2,.66-.88,1.15.33.88-.33.66-1.32,1.1-1.43,1.76-1H314l.82-.38.27-1.21,1.1-1,1-1.37,1.07-2.19.46-1,.88-1.32.66-1.59v-1.43l-.49-1.21s.66-.82.49-1a7.71,7.71,0,0,1-.38-1.65l.41-.6.58-1V228.7l1.37-1.15,1.32-1.54,1.81-2.3.93-1.54v-2.58l.82-1.1,1.15-1v-2.19l-.38-1.59,1.32-2.36-.22-2.41-.05-2.41.27-1.76,1-1.43,1-1.54v-2.19h1.26l2-2.36v-3.13l1.37-.38.82-.49.77-1.15.66-2.3.55-1.86v-1.37l-1.21-.33,1-4.72.22-1.7.71-1.15.82-1.15v-1.1l.77-.77.6-.93.33-1.21.82-2.25L343,169l-.49-1.81-.38-2,.05-1.48.16-2,.05-5.87.6-4.88.38-2.52.38-1.92-.55-1.43-1.1-2.19-.22-.6-.44-1.59-2-2.19-.66-3.46-.27-1.15-.77-1.54-.49-2.3-1.92-5.87-3.84-10.48-1.65-3.29-.88-2.19-1-4.44-1-7-1.1-4.55-.55-.44-.49.66L321,95.14l-3.51,3-1,1.1-.44.93v1.15l.71,1.37v2.69l.93,2,.82,1.59.33,2.14.93,1.15,1,2.18.16,1.44.33,1.15.38.77,1.26,1.21.16,2.25.55,1.54.27,1.32.11,1.92.66,1.1,1.54,1.21.22,2.36-.27,1.65.11,2.47-.22,3.73-.16,5.54-.05,4.66-.44,2-.77,1.87-.33,1.37.77,2,.38,2.47-.16,3.78.33,4.33.27,1-1.21,1.76-.16.71.05,3.78-.16,1.15-.66,1.54-1.43,1h-.77l-.49-.16-1.15.22-1.67.88-.91-.22-.33-.33.11-3.57-.05-1.48-.71-2.3-.27-2.41-.33-3-.16-2.14-.66-1.48-.22-1.76-1-2.85-.55-1.81-.77-4.11-.33-2.14-.22-3.51-.6-1.65-.49-1.92v-1.76l-.82-2.41-.49-4.22-.55-2.85-1-2.85-.93-2-.66-1.7-.6-4.72-.27-1.59-.44-1.48-.22-4.39-.66-1.87-.88-.49-.88.88-1-.05-.38,1.81-.88-.38-3.07.66-1,2.13-.77-1.74-1.21-1.43-1.37-.88-1,.38-1.21-.16-1.48,1-1,.66-.38.71-1-.05-1.32-1.15-.82-1.1-2.14-.82-1.32-.33-1.92-.38L276.45,107l-.82,1-1.15.16-.44,1.37-.33,1.15-.44.49v4.55l.38.93-1,2.63-2.47,1.92V127l-.66,1.7v1.65l.77,2,.71,2.85,1.1,6.2.77,7.51.49,6.64.93,6.75.93,4.17-1.59,8.34-3.35,11.13-2.3,8.23-2,4.06-2,5.7-2.41,1.1-2.85-2.74-2.19.44L254,200.89l-1.21,1-3.62-.33L245,199l-3.18,1.43-1.65,1.1-2.52,1.76-1.87,1.32-.55,1-1.37,1.1-1.32.16-.82-.44v-1.37l1.81-1.86.55-1.59-.11-5.81-1.54-1.7-.33-3.84-.38-1.32,1.48-1.1-.05-4.33L231,185.42l-1.43.33-1.1,1.37-.6.77-.77.44-.93.49-2.41.33-1.15,3.4-.66.27-.38-1-1.26-.66v.6l-1.1.44-.44.22-.66,1.43-.82,1.43-1.37-.22-1.1-.38-1.32-1.48-1.43-2.14L208,193l-4.72,1.43-3.46.6-2,.16-2.19,1-4.5.27-4.44,1.21L182.6,199l-3.73.6-3.73.77-1.76.27-.82.44-1.7,1.15-1.9,2-1.77,1.81-.93.22-1,.33-1.59-.44L162,204.89l-1.54-1.1-1-.27-1.65-.11-1.76-.11-4.11-.44,1.15-3,1-4-1.65-.38-2.14-.93-.66-1.7L148,191l-1.15-.38-2.36-.11-3,1-2.41.88-2.8,1.15-1.54,1-1.54.05-3.07,2.41-1.87,1.48L125,200.45l-2.91,2-2.63,2.08-.6.49-1.15,1.37L115.18,208l-1,1.15-.6,1.59-.77,1.65L110.74,214l-.88.22-.6-.88.33-1.37,1-1.26.77-1.21.16-1-.71-.88v-1.32l-.6-.77-1.54-.33-1-2.25-1.54-1.48-4.83-.27-2.08-1-.77.16-1.32.11-.49-.77-4.77-.05-1.59-.82H89l-4.22-6.25-.71-.11-1,.38-.93.55-1.37.22H79.37l-1.32,1.54-.71.71-1.76-.38-1.37-.55-1.92.27-1.76.44-2,.49-12.29.05-1.43.55h-1.1l-2.91-.27-3.89,1.7-4,2.14-2,.05-2.41,2-1.54.93-1.54.22-1.15-.27-.49-1.1-.55-1-1-.55-.38-1.87.49-1.54,1.54-1.21,1.15-.82-.33-1.54-1.26-1.15L33,189.86l-.55-3.57.22-2.41-1.32-3.07.44-2,.11-1.65-1.26-1.37L29.89,177v1.48l-.77,1.1-.33,1.92L27.64,183l-.71,2.3-2.36.44-1.81-1.54-1.1-.38-.77-.44-1.43.33-1.81-1.65-2.91-.33-2-.88-.77,1-1.1,1-.27.6v2.08l-1,1-.82,13.93-.44,12V219L6.25,232l1.48.22,1.1.27,1.54.88,1.59,1.1,1.32,1.59h.93l.49,2,.11,1.76-1.59,1.87.22,2-.66.33-.16,1.48.55.88h.55l.55.49.88-.27.49.33,1.26-1.21,2-.33,1.1-.49.16-1.59.16-1.81.55-.55-.44-1.1,1-.93,1.48-.71,2.25-.49h2l2.3.66,2.41.22h1.65l-.11-1.26-1-.27.27-1.15-.05-.77-.6-.82-.77-.49.22-1.65.55-1.43,1.32-1.37,1.65-1,1.76-.71,1.65-.27h1.81l1.54.55,1.76,1,1.81,1.86.82,1.81.49,1.59v1.76l-.44,1.21-1.54.49-1.37.66.66.93,2,.33H48.6l2-.27.33-1-1.65-.44-1.59-.22-.16-1.32.27-1.92.71-1.81,1-1.76,1.26-1.37,1.48-.93,1.21-.49,1.26-.33,1-.44-.6-.66.11-1.32.6-1,1.43-.71,1.37-.33,1.86-.33h2.63l2,.22,2.69.55,1.76.44,2.25.77.82-.11,1.26-.27,1.48.27,5.1,1.54,3.29,1.26,1.76.6,1.21.16.55-.6.27-.44,1.32-.16.82-.49,1-.55.11-.77.49-.77.71-.49.93-.27,1,.05,2.19.55,3.73.93,4.11.77,4.61.93,3.29.88,1.59.55,1.48.11-.05-.93.88-.77-.38-.82-.55-.6-.71-1.37-.05-1.43-.38-.55.11-1.26.38-1.92,1.1-1.7,1.43-1.65,1.81-.88,1.26-1.48,3-.88,2-.6,2.36.11,2.14.66,3.07,1,3.13,1.43,2.63.82,4.39.82,2.69.66,1.92.27.66-.93L148,215l-.82-2.36-.38-2.58-1.37-.05-.16.93-.44,1-1.21-.33-.6-1.48-.55-1.43.71-1.7,1-.71.71-1.65.88-1,.82.71,1.92.27,1.37-.27,2.14.33,1.54.33.6.27.05.93-.44,1.37L153,210l-.88-.16-2.3,1.37v.71l.71.49.82.27.44.93-.38,1-1.54-.22v1.21l.44,1.92,1.65-.11,1.48.22,1.65.44,1.21.27,1.26.55-.11.93,3.46,1.15,2.14,1.1,2,1.21.93.93.27,1,2.19.33,1.59-.27,1.21-.38.6-1,.6-.71.93-.38.49-.49,2.14.27,1.81,1,.77.77,1,1.76.27,1.7-.93,1.21-.33.49-.05.6-.11.66-.88.22-.27.71.44,1,.71.49h1.1l1.87-.55,2.19-1,1.21-1.21-1-1.54-.66-.33-1.43-.44-.38-.55V226l.16-1.86.71-2,1-1.87,1.26-.88,2-1,2.69-.6,2.19-.38,1.92-.05,2.52-.11,1.87.05,2.41.11,1.43.44,2.08.22,1.32.16,2,.6,1.65.38,1.26.16,1.65.05L213,219l1.15-.55.55-.49.66-2,.44-.77.27-2,1.32-.88,1.37-.05,2.19-.27,1.59-.05,1.1-.27,2.58.66,2.25-1.1,3.07.93,3.4,1.37,3.29.93,1.32-.22,1.21-.82,2.69-.38.6-.71,1.48-.44,1.32-.44.71-.77.6-.38.6-1.37,1.65-.55,1.65.16,1.26.05,1.92-.11,2.36.11,3-.55,4.06-1.26,2.8-1.21,4.72-.77,2.14-.55,2.14-.44h1.37l1.76.33,1.43.55,2,.88,1.86,1.54,1.1,1,.93.66,1.15.66,1.37.55.66-.55.55-.88-.82-1-.82-.38-.33-1.26v-.82l.38-1,.93-1,.16-1.54-1.65-.6h-.82l-1,.49-.88.71-1.15.44-.55-.88-.77-.82-.6-.93v-.88l-.93-.44-.82-.05-.49-.66-.93-1.48-.71.77-.93-.05-.82-.05-.71,1-.77,1-1,.77-1.48.71-1.43.71-1.54.16-1.32.49-1,.22-.05-1.37.38-2.19v-1.1l.11-1.15,1.1-.93.88-1.43.55-1.48.27-.93a2.9,2.9,0,0,1,.82-.38,9.42,9.42,0,0,1,1.54.93l1-1.1,2.3-1.32.77-.44.71,1,1.15-.05.93-.55,1.43.22.38,1.37,1,1.43.88-.55,1.32-.33.71-.71.33-1.59.82,1.15.49,2.3.88.05.55.77.22-1.59.55-.88.11-.71.55-1,.6-2,.49-.38-.33,2.74v1.76l-.66,1-.38,1.1v1.59l.33.93.82.82h1l.05,1.76-.05,2.41-.05,1.81.05,2,.88.6.88,1.15.38.77-.6.88-.22,1.26.11,1.1.11,1.15-.38.82-.88-.55-.33-1.37-.27,1.59.16,1.87,1.1,1.37,4.22,4.44,2.08,3.29,2.63,3.95,1.15,3.13-.38,2.63-.05,1.7-.33,1.43-1,.49-.22,2.3-.6.55.27,1.65.16,2.69v2.58l-.6,1,.16,4.5-1.48,1.15.49,2.36.38,2.52Z"/><path class="cls-2" d="M301.41,259.63h-2.54l-.57-3.73-.66-3.15,1.61-1.25-.15-4.18.62-1.07v-2.2l-.16-2.53-.39-2.33.77-.7.24-2.54,1.09-.55.15-.64.06-1.72.33-2.28-1-2.63-2.54-3.81-2-3.2-4.21-4.43L290.71,215l-.22-2.48.31-1.79-1.15,1-2.33-.95-1.27-.73-1.09-.79-1.06-1-1.67-1.38-1.85-.8-1.25-.48-1.5-.28h-1.1l-2,.41-2.2.56-4.54.74L265,208.17l-4.22,1.3-3.12.58-2.45-.12-1.92.11L252,210l-1.42-.14-.76.25-.52,1.19-.81.52-.83.9-2.78.88-.68.8-2.9.41-1.19.81-1.94.32-3.74-1.07-3.34-1.35-2.48-.75-2.22,1.08-2.74-.7-1,.23-1.53.05-2.25.28-1,0-.45.3-.23,1.67-.51.89-.73,2.2-1,.88-1.65.74-1.71.37-2-.07-1.4-.19-1.65-.38-1.95-.59-3.52-.42-1.25-.39-4-.15-4.31.16-2.09.37-2.44.55-1.79.92-.9.63-.78,1.47-.62,1.76-.14,1.63v1l1,.34,1,.5,1.81,2.82-2.19,2.19-2.62,1.23-2.06.6H178l-1.42-1-.82-1.95.74-1.93.67-.17.06-.61.53-.79.61-.8-.13-.83-.81-1.37-.51-.51-1.4-.81-1.17-.15h0l-.2.2-.87.36-.31.37-.82,1.35-1.9.59-1.82.31-3.33-.5-.42-1.51-.55-.55-1.79-1.09-2-1-4.45-1.48.12-1-.17-.08-1.08-.25-1.62-.43-1.25-.19-2.7.18-.35-1.53-1.06,1.5-2.92-.42-2.69-.66-4.47-.85-2.8-.89-3.05-1.39-4.94-1.56-1.94-.09-4.36,1.29-1.18,1.39-1.82.88-1.17,1.35-.9,1.39-.32,1.58-.06.67.33.47.06,1.52.48.93.57.63.93,2-1.16,1,.11,1.86-3.45-.3-1.54-.53-3.24-.87-4.52-.91-4.09-.76-5.87-1.47-.66,0-.48.14-.29.2-.17.27L92,227l-2.64,1.51-1,.12-1.11,1.22L85,229.55l-1.75-.6L80,227.68l-5-1.5L73.9,226l-1.1.23-1.15.15-2.51-.86-1.7-.42-2.56-.52-1.83-.2H60.62l-1.74.31-1.13.27-.92.46-.22.35,0,.36,1.54,1.69L55,229.08l-1.17.31-1,.41-1.22.77-1,1.11-.86,1.53-.62,1.56-.22,1.57v0l.69.11,3.1.83-1.08,3.25-3,.41-2.87,0-2.56-.43-2-2.79,3.06-1.46.88-.28.12-.32V234.4l-.4-1.3-.68-1.5-1.5-1.54-1.47-.83L40,228.8H38.56l-1.37.23-1.49.61-1.39.88-1,1-.39,1-.08.59.23.15,1,1.36.1,1.39v0l.62.17.33,3.78H31.79l-2.67-.27-2.11-.6H25.33l-1.94.43-1.15.55-.15.14.42,1-.85.85-.37,3.72-2.19.93-1.54.26-1.77,1.69-.88-.58-1,.31-.75-.67h-.79l-1.23-2,.3-2.74.46-.23-.18-1.6,1.62-1.89-.07-1.06-.2-.83H12.6l-1.62-2-1.38-1-1.31-.75-.84-.21-2.83-.42,2.29-14.3v-6.47l.44-12,.86-14.52,1-1V183.2L9.74,182,11,181l1.36-1.84,2.82,1.25,3.15.36,1.6,1.45,1.24-.29,1.14.65,1.22.43,1.5,1.27.85-.16.54-1.73,1.09-1.41.32-1.88.69-1v-1.42l1.88-3.18,3,3.22-.18,2.47-.34,1.53,1.28,3-.24,2.6.52,3.39.39,2L36,192.8l.62,2.89-1.91,1.36-1.14.9-.25.77.18.86.79.44,1,2,.21.05,1-.14,1.2-.73,2.71-2.22,2.18-.06,3.81-2L50.61,195l3.21.3h.77l1.42-.55,12.38-.06,3.71-.92,2.29-.33,1.61.65.88.19.13-.13,1.71-2h1.86l1-.16.93-.52,1.39-.51,1.69.26,4.15,6.14h.91l1.6.83,5.2.06.45.69.38,0,1.15-.25,2.27,1.07,5.08.29,2.12,2,.81,1.84,1.33.29,1.22,1.56v1.3l.79,1-.07.44,0-.06,1.28-1.49,2.52-1.64,1.2-1.4.6-.49,2.73-2.16,3-2,3.25-1.87,5.22-4.12,1.61-.06,1.43-.9,2.8-1.15,5.71-2,2.83.13,1.69.56,2.13,2.33.54,1.4,1.48.64,2.94.68-1.46,5.57-.48,1.24,2.27.24,3.63.26,1.23.34,1.82,1.3,1.36,1.12.89.25,1.28-.36,1.48-1.52,2.12-2.21,1.83-1.23,1-.55,2-.31,3.66-.76,3.67-.59,3.95-1.33L191,195l4.24-.26,2.18-1,2.21-.18,3.31-.58,4.53-1.37,5.07-2.4,2.05,3.08,1,1.13.63.22.28,0,.3-.52.84-1.82,1.2-.57v-2l3,1.54.85-2.52,3-.41,1.2-.65,1.85-2.32,1.56-.36,4.24-3.71.1,8.13-1.27.94.16.64.29,3.36,1.57,1.74.12,6.59-.57,1.66,4.43-3.1,1.88-1.23,3.86-1.73,4.52,2.74,2.72.25,1.59-1.3,2.91,2,2.33-.47,2.69,2.59,1-.45,1.84-5.29,1.92-3.94,2.27-8.11,3.33-11.09,1.52-8-.89-4-.93-6.75-.5-6.73-.76-7.42-1.09-6.15-.67-2.67-.83-2.14v-2.18l.66-1.7v-6.13l2.71-2.11.69-1.74-.27-.66v-5.37l.58-.66,1-3.1,1.49-.21L276.3,105l3.27,2.91,1.54.31,1.55.4,2.52,1,1,1.3.6.52,0,0,3.19-2.2,1.4.19,1.32-.51,2.16,1.38,1,1.15.13-.27,3.85-.83.32-1.5,1.57.09,1.19-1.19,2.28,1.28.9,2.56.22,4.42.43,1.48L307,119l.59,4.61.6,1.54.94,2.05,1.1,3.07.56,3,.48,4.07.85,2.49v1.81l.43,1.68.65,1.77.23,3.65.32,2.08.75,4,.53,1.74,1.09,3.09.19,1.55.67,1.51.18,2.38.58,5.19.74,2.54.05,1.48-.07,2.45,1-.52,1.72-.33.72.21.73-.5.42-1,.12-.86-.06-3.85.26-1.14,1-1.44-.15-.67-.34-4.42.16-3.73-.34-2.18-.87-2.24.5-2,.72-1.75.38-1.71.05-4.51.17-5.57.22-3.7-.11-2.54.27-1.61-.15-1.57-1.26-1-1-1.62-.12-2.16-.23-1.12-.58-1.62-.14-1.9-1-1-.59-1.23-.37-1.38-.14-1.22-.82-1.82-1.06-1.31-.35-2.29-.72-1.38-1.09-2.37v-2.65l-.71-1.37V99.87l.67-1.43,1.3-1.36L320.21,94l3.55-2.56L325,89.77l2.07,1.65,1.23,5.15,1,7,.94,4.23.81,2,1.68,3.39,3.84,10.48,2,6.06.46,2.13.8,1.68.27,1.15.6,3.12,2,2.15.69,2.34,1.12,2.25.7,1.81-.46,2.32-.37,2.46-.59,4.76-.06,5.89-.16,2,0,1.26.34,1.82.55,2-.32,2.86-.8,2.19-.37,1.36-.91,1.35-.35.35v1l-1.09,1.52-.5.81-.2,1.51-.71,3.41,1,.26v2.66l-1.32,4.57-1.07,1.6-1.44.81-.34.09v2.58l-2.8,3.25h-.49v1.21l-1.29,1.9-.87,1.19-.2,1.29.05,2.29.25,2.75-1.26,2.26.29,1.38v2.85l-1.53,1.31-.45.59v2.5l-1.24,2-1.81,2.3-1.52,1.75-.87.73v1.37l-.91,1.53c0,.25.09.47.13.61a1.75,1.75,0,0,1-.13,1.87l.31.76v2l-.9,2.09-.82,1.23-1.62,3.31-1.16,1.57-.79.75L316,247.9l-1.74.81h-2.45l-1.19.71-.85,1.1-.85,1.69-1.84.69-.66-.19h0l-1.1,2.11-1.21,1.62-1,.91-.5,1.11Zm-.63-5.72.32,1.52,1-.95.9-1.23,1.12-2.13,1.24-1.66,1.58.45.53-1,1.26-1.64,2.32-1.38h2.52l.21-.91,1.31-1.25.84-1.17,1.58-3.24.8-1.2.5-1.2v-.87l-.7-1.72.52-.65.09-.11a13.44,13.44,0,0,1-.27-1.43l-.08-.55L319.4,230V228l1.79-1.5,1.24-1.45,1.72-2.19.68-1.12v-2.65l1.32-1.7.66-.56v-1.37l-.47-2,1.37-2.46-.18-2-.06-2.64.35-2.22,2-2.84v-3.18h2l1.26-1.47v-3.68l2.22-.62.39-.23.47-.7,1.09-3.86-1.45-.39,1.25-6,.25-1.95.87-1.41.61-.86v-1.23l1.08-1.08.4-.62.31-1.11.76-2.08.18-1.81-.45-1.67-.41-2.19.06-1.64.16-2,.06-6,.6-4.88.39-2.56.32-1.58-.38-1-1.13-2.28-.25-.71-.35-1.26-2.07-2.24-1-4.78-.81-1.73-.48-2.23-1.9-5.8-3.8-10.35-1.66-3.33-.95-2.41-1-4.44-1.05-7-.7-2.89-2.9,2.09-3.41,2.93-.83.88-.21.44V101l.71,1.37v2.72l.8,1.75.9,1.74.31,2,.88,1.16,1.08,2.39.18,1.54.26.91.21.43,1.48,1.41.19,2.6.54,1.54.3,1.52.09,1.57.34.57,1.81,1.42.29,3.15-.28,1.68.11,2.39-.22,3.8-.16,5.5-.09,4.93-.51,2.21-.73,1.76-.2.83.69,1.86.41,2.61-.17,3.84.31,4.12.41,1.54L326,169.93l-.07.28.05,3.72-.28,1.62-.82,1.91-2.12,1.47H321.3l-.36-.12-.58.11-2,1-1.81-.44-1-1,.13-4.18,0-1.2-.71-2.38-.6-5.38-.15-1.94-.64-1.45-.23-1.8-1-2.7-.61-2-.77-4.11-.35-2.31-.21-3.3-.57-1.59-.54-2.27v-1.52l-.81-2.48-.49-4.17-.52-2.69-1-2.69-.91-2-.78-2.11-.6-4.72-.25-1.45-.47-1.73-.21-4.18-.2-.56-.26.26-.41,0-.49,2.33-2.05-.9-2,.42-2.08,4.25-1.91-4.35-.94-1.11-.58-.37-.66.26-1-.14-1.75,1.2-.64,1.19-2.43-.13L284,112.72l-.58-.77-1.68-.65-1.23-.31-2.23-.44-1.66-1.48-.23.28-.81.12-.57,1.94-.29.33v3.73l.5,1.2-1.4,3.52-2.23,1.73v5.28l-.66,1.7V130l.73,1.9.71,2.85,1.13,6.4.77,7.51.5,6.68.91,6.6,1,4.4L275,175.13l-3.35,11.13-1.13,4a2.45,2.45,0,0,1,1.31-.44c.26,0,.5,0,1.3.49l.32-.35,4.38-2.5,1,1.4h0l1.07-.63,2.83.44.57,2,.1.14,1.06-.26.14-.14.9-4.35,2.88,4,.07.33,0-.25.59-1.13.69-2.33,3.53-2.75-.72,6v2.08l-.79,1.25-.25.72v1.11l.14.4.18.18h1.77l.1,3.13-.11,4.31,0,1.17.47.32,1.16,1.56.76,1.52-.9,1.31-.13.77.24,2.45-1.11,2.38.13.16,4.35,4.62,2.08,3.29,2.77,4.22,1.28,3.46-.42,2.91-.09,1.89-.48,2.08-.88.44-.2,2.07-.44.4.16,1,.16,2.69v3l-.59,1,.18,4.81ZM14.1,245h.16l.35.32.75-.24.11.07.76-.72,2.22-.37.19-.08.29-3.08.25-.25-.46-1.15,1.93-1.73,2-.91,2.55-.53H27.4l2.37.68,1.24.11.31-1.3v-.14l-.21-.28-1.3-.84.42-2.86.65-1.69,1.78-1.79,1.87-1.16,2.06-.8,1.88-.29H40.5l2,.73,1.93,1.09L46.55,230l.8,1.76,1.08-1.85L50,228.27l1.7-1,1.39-.55.65-.17.14-1.65,1-1.62,2.09-1,1.37-.33,2.2-.37h2.79l2.1.24,2.69.55,1.93.49,1.93.66.43-.06,1.48-.32,1.91.36L81,225l3.29,1.26,1.58.54.32,0,.54-.86,1.69-.21,1-.57.05-.38.81-1.26,1.13-.79,1.38-.41,1.55.11,5.92,1.48,4,.75,4.63.94,3.47.93,1.16.4.45-.4-.37-.48-.86-1.65-.05-1.33-.44-.63.18-1.93.44-2.18,1.36-2.09,1.62-1.87,1.8-.87L119,212l5.62-1.67,2.95.18,5.38,1.71,3,1.39,2.47.77,4.31.81,2.69.66,1,.14.15-.82-.7-2-.22.5-3.06-.83L141,208.71l1.09-2.61,1.05-.72.64-1.48,2-2.2,1.57,1.36,1.27.18,1.38-.28.48.07,1.39-3.57.66-2.52-.47-.13-2.68-1.17-.78-2-1.27-1.4-.61-.21-1.89-.09-5.1,1.82L137,194.86,135.26,196l-1.46.05-4.74,3.72-3.3,1.89-2.82,1.92L119.86,206l-1.2,1.43-2.53,1.65-.69.81-.56,1.46-.92,2-2.59,2-2.12.53-1.52-2.21.55-2.28,1.13-1.45.57-.9,0-.13-.63-.78v-1.31l-1.73-.37-1.17-2.66-1-.92-4.58-.26-1.9-.9-.48.09-2.17.18-.54-.84L91.52,201l-1.58-.82H88.21L84,194l-.39.14-1.05.62-1.86.28H80l-1,1.12-1.26,1.26-2.74-.62-1-.41-1.47.21-4,1-12,.05-1.43.55H53.62l-2.54-.24-3.51,1.53-4.25,2.27-1.88.05-2.2,1.78-1.78,1.08-2.09.3-2.09-.5-1.09-2.32L31,201.43l-.59-2.87.74-2.3,2.32-1.79,0-.18-1.27-1.16-.58-3L31,186.34l.2-2.23-1-2.33-.06.34-1.21,1.56L28,186.55l-3.86.72L22,185.47l-1.08-.4-.29-.16-1.61.37-2-1.84-2.67-.3-1.13-.5L13,183l-.9.84v2.39l-1.08,1-.79,13.37-.44,11.93v6.64L7.88,230.85l.2,0,1.29.32,1.81,1,1.75,1.21,1,1.23h1.38l.79,3.36.15,2.33-1.56,1.83.26,2.35Zm307.12-12.42,0,0ZM180,230.06l0,.36-.23,1.36,1.17-.34,1.87-.89.23-.23-.16-.25-.21-.1-1.78-.55-.18-.26Zm-6.66-9.22,3.11.4,2.35,1.41,1,1,.31.53.09-.55.8-2.22,1.15-2.17,1.71-1.17,2.37-1.16,2.69-.6,2.46-.42,4.47-.17,1.92.06,2.79.17,1.29.4,3.53.42,2,.6,1.48.34,1.13.15,1.4,0,1.2-.26.93-.5.65-1.87.3-.53.32-2.39,2.18-1.45,1.71-.07,2.26-.28,1.44,0,1.3-.33,2.42.62,2.28-1.11,3.72,1.14,3.33,1.34,2.91.83.7-.12,1.22-.83,2.48-.35.53-.62,2.81-.87.74-.74.24-.15.68-1.55,2.53-.84,1.95.2,1.11,0,1.92-.11,2.27.11,2.72-.5.87-.27-2.79-2.68-2.06.41-2.14-1.49-.83.68-4.52-.41-3.81-2.31-2.4,1.07-1.55,1-4.09,2.86-.53.95-1.9,1.52-2.16.27-2-1v-2.8l2-2.05.36-1.05-.09-5-1.5-1.66-.36-4.17-.62-2.13,1.69-1.25v-.54l-.15.13-1.29.3-1.56,2-2.2,1.21-1.79.25-1.08,3.18-2.59,1.08-.58-1.49-.73.29-.51,1.08L218,196.85l-2.58-.43-1.44-.51L212.3,194l-.75-1.12-3.15,1.47-4.88,1.47-3.58.62-1.79.14-2.21,1-4.61.28L187,199l-4.2,1.4-3.73.6-3.67.76-1.58.25-.55.29-1.51,1-1.8,1.92-2.08,2.13-1.28.3-1.39.44-2.29-.63L161.16,206l-1.29-.92-.61-.17-3.65-.25.1,1.77-.52,1.62-1.31,3.54-1.52-.29-.23.13.22.07,1,2-.94,2.54,1.41.22,3.05.78,2.23,1-.1.83,2.56.87,2.23,1.15,2.24,1.41,1.2,1.2.13.46,1.06.16,1.27-.22.61-.19.45-.71.83-1,1-.41Zm-29-12.26,3.78.15.32,2.12v-.46l3.46-2.06.23,0,.72-2.06-1-.21-1.81-.28-1.36.27-2.58-.37-.66,1.52-1,.71-.33.79.15.4Zm142.56-1.5.74.53-.38-1.62v-1.08l.56-1.53.79-.89-.36-.13H288l-.6.28-.92.75-2.45.94-1.09-1.75-.83-.92-.83-1.28V200l-1.08-.07-1-1.3-1.47-.09-1.17,1.61-1.4,1L272,202.77l-1.61.17-1.35.49-2.68.57-.1-2.41-1.14,3.3-1.89.86.86-.27,3.06-1.27,4.65-.76,2.08-.53,2.49-.48,1.63,0,2,.4,1.43.55,2.27,1,2.09,1.73Zm3.32-.84.51.24.72.86.16-.94-.69-.48,0-1.68-.56.62-.2.55v.39Zm-55.93-1.72-.35.36.27-.21ZM284.37,200l.75.8.87-.66,1.33-.63h1.39l2.14.78,0-1.37v-.31h-.2l-1.47-1.46-.35-1-1.21-1.69-1.28-.08-.3-1.4-.17.17-1.48.37-1.83,1.15L280.69,192l-.23-.72-.8.47-2.27.11-.42-.58-1.77,1-1.68,1.87-1-.73-.47-.32-.68,1.78-1,1.62-.83.71,0,.51,0,1.27-.25,1.42.73-.23,1.28-.14,2.56-1.25.71-.56,1.79-2.55,1.88.12,1.51-1.63,2,3.08.44,0,2,.93v1.36Z"/></svg>