<svg id="Layer_1" data-name="Layer 1" xmlns="http://www.w3.org/2000/svg" viewBox="0 0 350 350"><defs><style>.cls-1{fill:#999;}.cls-2{fill:#f90;}</style></defs><title>M</title><path class="cls-1" d="M314.71,269.86s-5.1-4.71,5.89-6.67v-8.63h14.91s8.24-5.89,8.24-7.46V229l-25.9,2-3.14-4.32v-2.75H309.8l-2.55-10.2-10.2-6.28L309.8,200l-4.91-9-16.69,9.42,3.35-9.42,8.24-3.53-15.3-11-13.93-12.26L266.64,157l.69-3s9.42-4.32,9.42-4.81-.78-3.63-.78-3.63l3.53-1-2-3.34h-1.86l-.2-1.37,2.06-1.08-.69-1.47-10.69,3.92-2.85-4.91-3.83,1.18-1.86-2.94,8.63-3.73-6.57-12.26,5.49-3.92s-4-5.79,1.18-12.26L244.17,64.12s-5.89,1.37-8.93,1.67a67.16,67.16,0,0,1-7.55.1c-2,0-4.81-.2-4.81-.2a10.38,10.38,0,0,0-2.16.69c-1.08.49-5.79.39-5.79.39l-7.46.88-.78-1L195,69.42,183,75.7l-4.41,3.24-6.28,1.67-4.81,2.26-3.83,4.81-2.06,5.1-5.69,4.41-3.73,10.4-3.34,6.77-6.38,4.22-7.85.59-4.51-1.86-5-.1-6.57,1.28-4.12,3.83-4,.88-4.61,3.53-2.06,9.61L89.94,155.17l-7.55,8.34s-7,6.08-8.44,6.77-5.89,3.63-5.89,3.63l-6.38,4.22-2.06,6.18s-2.45,7.65-2.45,9,.1,2.55,0,3.73S53.25,202,53.25,202l-2,3.83-13.44,6.28s-5.3,9.32-5.59,9.91-3.43,3.53-4,4.32-3.43,4.61-3.53,5-.69,3.83-.69,3.83-7.85,9.32-9,9.81l-1.18.49-.59,3.14-3.53,2.75-.49,3.34s1.47,1.77,1.47,2.45v2.35c0,.78,2.16,3.24,2.16,4.81s-.59,3.43-.88,3.53-4.12,1.08-4.12,1.08-2.06-1-1.47-.2,2.06,2.45,2.45,2.85,4,3.43,4.51,3.83,3.43,3.73,3.43,3.73-1.18,1.18,1.86,1.77,4,.49,5.79,0a23,23,0,0,0,5.2-2.16c1.28-.78,4-2.85,4-2.85s.1.88.49.69S38,273.09,38,273.09l1.67,1.18L42,272l1.47.29,3.83-.78,3.14-1.37.69.78L53,269.76l.78,1.37,6.48-5.3c.49-.39,2.16-1.47,2.16-1.47s1,2.16,1.57,1.47,1.57-2.06,1.57-2.06a8.19,8.19,0,0,1,2-1.08c.59-.1,2.26-.39,3.14.39s1.47-.39,1.47-.39,1.37.59,1.37,1.57-.88.69,0,1,3.43-2.94,3.43-3.34.2-.78.2-1.37a3.05,3.05,0,0,1,1.08-2.26c.78-.59,1.28-.39,2.45-1.18s3.24-2.26,3.24-2.26l1.37-1.18-.2-1.08,1.67-.88.49-1.57h1.67a31.91,31.91,0,0,1,2.55-2.94c.29-.1-.49-.39.29-.1s1.77-.69,1.77-.69l.1.78s-.69-1.77,1.28-1.57,9.52,2.16,9.52,2.16L116,253l1,1.47,1.37-.29V253s.29.49.59.59,1.18-1.08,1.18-1.08l.59.49s-1.77-1.47.1-1.47a5.68,5.68,0,0,1,2.55.39s1.08-1.18,1.37-.39a5.08,5.08,0,0,0,.69,1.28l1.86-1.08s2.06-.1,2.16.29,3.63-2.55,3.63-2.55l2.16.39s4.61-.29,4.91-.29,5.2,1.28,5.2,1.28,3.24,2.35,4,2.35,3.63,2.06,3.92,2.16.88-1.57,2.26-1.47a3.84,3.84,0,0,1,2.26,1s-.88-2.26.59-1.57a4.69,4.69,0,0,1,2,1.47l1-1.57s-1.08-1.47-.69-2.45,1.86-2.75,1.86-3-.2-1.77-.2-1.77l2.75-4.32s-.49-1.86.78-2.35a8.65,8.65,0,0,0,2.35-1.47s.59-1.28.1-1.67-1-1.28-.29-1.57a15.53,15.53,0,0,0,2.55-2.45s9.81-3.63,13.93-3.43,12,1.77,13.64,2,13.15,3.83,13.93,4,13.44,5.69,13.74,6.08,3.24,2.94,3.24,2.94.78,1.28,1.28,1.08a39.09,39.09,0,0,0,3.43-3l27.08,12.56,14,8.44s9.32,7.26,9.71,7.55S297,278,297,278l2.75,1,1.67-.78s7,3.92,9.22,6.87,3.24-3,1.57-2.94-6.18-6.77-6.18-6.77l-1.08-2,3-3.9.92-1.2,4.91,6.87,2.45-3Z"/><path class="cls-2" d="M311.76,287.3a2.91,2.91,0,0,1-2.29-1.37c-1.54-2-6-4.83-8.16-6.13l-1.53.72-3.57-1.31c-3.61-2.25-12.06-7.52-12.46-7.82s-8.76-6.81-9.67-7.52l-13.89-8.35-26.13-12.12c-2.52,2.4-3,2.58-3.19,2.66-1,.4-2-.12-2.89-1.46-1.61-1.39-2.64-2.33-3.09-2.8-1.42-.8-12.16-5.48-13.18-5.79-.21-.05-1-.29-2.64-.8-3-.92-10-3.06-11.08-3.19-.53-.06-1.54-.24-2.93-.48-3.11-.54-7.8-1.34-10.61-1.48-3-.16-10.13,2.17-13,3.22a19.51,19.51,0,0,1-1.94,2c.89,1,.27,2.63,0,3.12l-.12.26-.21.19a10,10,0,0,1-2.74,1.72,1.75,1.75,0,0,0,0,.71l.14.59-.32.52-2.47,3.88c.07.59.14,1.19.14,1.44,0,.58-.29,1-.93,1.92a12.23,12.23,0,0,0-1,1.65,3.19,3.19,0,0,0,.51,1.09l.57.77-2.69,4.31-.05-.08,1.29,3.3-4.79-4.79h0a2.47,2.47,0,0,0-1.36-.57c-.2,0-.46.35-.63.57a1.77,1.77,0,0,1-2,.83,5.47,5.47,0,0,1-1.15-.66,19.38,19.38,0,0,0-2.44-1.43c-.41,0-1.43-.24-4.52-2.47-2-.52-4.15-1.06-4.67-1.16l-4.73.29h-.17l-1.68-.31c-3.37,2.76-3.78,2.63-4.43,2.42l-.75-.26h-.6l-2.61,1.51-.76-1a4.67,4.67,0,0,1-.28-.41l-.39.42-1-.55a5.07,5.07,0,0,0-1.85-.21h-.05l0,0,.52.39a5,5,0,0,1-1.48,1.45v.51l-3.44.74-1.29-1.93-11.19-5c-2-.53-7.1-1.79-8.91-2.06l1.43,11.34-3.85-9.89a3.06,3.06,0,0,1-.55.06c-.44.48-1.32,1.54-2,2.45l-.43.54H88.24l-.35,1.13-1.27.67.16.86L84.69,256s-2.08,1.49-3.27,2.28a6.66,6.66,0,0,1-1.76.85,1.87,1.87,0,0,0-.63.29,1.66,1.66,0,0,0-.51,1.12,4.91,4.91,0,0,1-.15,1.14,1.74,1.74,0,0,0,0,.25c0,1.22-2.37,3.6-3.15,4.16a2.44,2.44,0,0,1-2.15.51,1.66,1.66,0,0,1-1.34-1.27l-.1-.58a2.25,2.25,0,0,1-1.9-.6c-.08-.08-.47-.3-1.93-.06a7.58,7.58,0,0,0-1.22.71c-.3.42-1,1.39-1.5,2a1.75,1.75,0,0,1-1.58.61,2.42,2.42,0,0,1-1.52-1c-.36.24-.67.46-.82.58l-6.46,5.29-1.3,1.06-.88-1.54-1.64,1-.8-.92-2.47,1-4.11.84-1-.2-2.56,2.56-1.71-1.21c-2.9,2.63-3.24,2.8-3.41,2.89a1.62,1.62,0,0,1-1.42,0c-.93.68-2.2,1.59-3,2.07a24.08,24.08,0,0,1-5.56,2.32c-2,.56-3.24.65-6.44,0-1.15-.22-2.73-.68-3.15-2a2,2,0,0,1-.08-.82c-1.19-1.34-2.44-2.7-2.7-2.93S8.28,273,7.81,272.53s-1.94-2.14-2.58-3a1.57,1.57,0,0,1-.05-2c.74-.9,1.88-.54,2.79-.14l3.05-.79a8,8,0,0,0,.39-2.32,7.74,7.74,0,0,0-1.15-2.42,5,5,0,0,1-1-2.39v-2.23a9.33,9.33,0,0,0-1.14-1.67l-.41-.49.67-4.53,3.56-2.77.63-3.36,1.82-.76c.88-.61,4.84-5,8.31-9.15.18-1.07.55-3.19.64-3.55s.18-.72,3.77-5.51a28,28,0,0,1,2-2.09c.71-.71,1.77-1.79,2-2.08.26-.54,5-8.95,5.59-9.9l.22-.39,13.41-6.27,1.85-3.6.17-.16a22.45,22.45,0,0,0,3.51-4.09,21.09,21.09,0,0,0,0-2.13c0-.45,0-.91,0-1.4,0-1.48,1.93-7.61,2.52-9.46l2.22-6.66,6.79-4.49c.46-.3,4.54-3,6.07-3.73a87.56,87.56,0,0,0,8-6.5l7.45-8.22,13.51-18.53,2.11-9.83,5.28-4,4-.87,4.13-3.84,7.12-1.38,5.42.11,4.45,1.84,7.15-.54,5.75-3.8,3.13-6.35,3.84-10.71,5.71-4.43,2-4.94,4.16-5.23,5.35-2.49,6-1.6,4.38-3.19,12.4-6.4,12.55-3,.85,1.07,6.77-.8h.1a25.34,25.34,0,0,0,5.18-.27,11.88,11.88,0,0,1,2.48-.79l.17,0H223s2.82.19,4.71.19l1.72,0a45.18,45.18,0,0,0,5.7-.12c2.91-.28,8.68-1.62,8.74-1.64l1-.24,23.19,40-.61.76c-4.49,5.58-1.15,10.52-1.12,10.57l.8,1.15-5.62,4,6.71,12.52-8.53,3.68.4.63,3.87-1.19,2.81,4.85,10.8-4,1.81,3.88-1,.52,3.25,5.52-4,1.11a17,17,0,0,1,.5,2.63c0,1,0,1.38-9.61,5.8l-.41,1.83,3.55,6.47,13.69,12.05,17.29,12.41-10,4.28-1.87,5.26L305.46,189l6.25,11.5-11.9,7,8.68,5.34,2.42,9.69h5.22v3.7l2.4,3.3,26.64-2v19.58c0,.63,0,2.3-8.83,8.61L336,256H322v8.4l-1.17.21c-5,.89-5.75,2.21-5.87,2.6-.19.62.46,1.42.7,1.65l.22.26,2,3.12-4.27,5.3-4.88-6.83-2.19,2.85.61,1.1c1.91,2.9,4.22,5.69,5,6.08a2.2,2.2,0,0,1,2,1.79c.37,1.41,0,3.83-1.57,4.58A2.21,2.21,0,0,1,311.76,287.3ZM310.62,283a12.24,12.24,0,0,1,.93,1,2.8,2.8,0,0,0,0-.54A3.75,3.75,0,0,1,310.62,283Zm-9.19-6.39.64.36a60.51,60.51,0,0,1,6.73,4.45,39.73,39.73,0,0,1-4-5.28l-.06-.1-1.53-2.77,5.65-7.35,4.93,6.9.63-.79-.82-1.26a4.66,4.66,0,0,1-1.35-4.37c.6-2,2.87-3.48,6.92-4.37v-8.89h15.87c3.2-2.32,6.72-5.23,7.28-6.22V230.57l-25.17,1.91-3.87-5.33v-1.79H308.7L306,214.64l-11.72-7.21,13.61-8-3.56-6.55L285.6,203.49l4.83-13.58,6.5-2.79-13.37-9.61-14.12-12.43-4.3-7.85,1-4.25.64-.29c3.35-1.54,7.06-3.33,8.47-4.14-.14-.67-.39-1.74-.62-2.67l-.33-1.34,3.08-.86-.62-1h-2.28l-.4-2.8L265.52,143l-2.88-5-3.78,1.16-3.33-5.26,8.74-3.77-6.43-12,5.48-3.91a11.86,11.86,0,0,1,1.34-11.95L243.47,65.74c-1.85.41-5.74,1.24-8.09,1.47a48,48,0,0,1-6,.13l-1.65,0c-1.71,0-4-.14-4.71-.19a9,9,0,0,0-1.67.55c-1.21.55-4.74.55-6.31.52l-8.14,1-.72-.9-10.63,2.5L183.7,76.91l-4.54,3.33-6.41,1.7L168.35,84l-3.49,4.39-2.13,5.27-5.67,4.4-3.65,10.16-3.51,7.11-7,4.63-8.55.64-4.58-1.89-4.59-.09-6,1.17-4.11,3.81-4.09.9-3.95,3-2,9.4-14,19.2-7.67,8.46c-1.19,1-7.2,6.25-8.77,7-1.13.53-4.5,2.72-5.7,3.53l-6,4L61,184.75a74.29,74.29,0,0,0-2.38,8.58c0,.46,0,.9,0,1.32a22.66,22.66,0,0,1,0,2.53c-.09,1.11-1.5,3-4.18,5.64l-2.08,4.05-13.47,6.29c-2.11,3.71-5.12,9-5.33,9.45a15,15,0,0,1-2.45,2.74c-.67.68-1.5,1.52-1.71,1.8-1.16,1.55-2.94,4-3.32,4.62-.1.5-.39,2.13-.64,3.6l-.07.38-.25.29c-5.35,6.36-8.57,9.79-9.56,10.21l-.47.2-.55,2.92L11,252.08l-.32,2.16a5.39,5.39,0,0,1,1.4,2.86v2.22c.1.22.38.7.6,1.05a8.27,8.27,0,0,1,1.56,3.89s-.11,4.29-1.85,4.88c-.23.08-1.83.49-3.11.82l.52.56c.36.35,3.85,3.28,4.4,3.72s2.7,2.87,3.61,3.9l.88,1-.22.22.41.09c2.84.55,3.58.46,5.14,0a21.73,21.73,0,0,0,4.83-2c1.21-.74,3.89-2.75,3.92-2.77l2-1.49.09.84c.68-.6,1.49-1.34,2.23-2l.84-.77,1.63,1.15,1.95-1.95,1.93.39,3.4-.7,4-1.73.57.65,2.09-1.32.69,1.2,5.19-4.25c.53-.43,2.1-1.44,2.28-1.56l1.38-.89.68,1.5,0,.07.66-.9.14-.19.19-.14a7.87,7.87,0,0,1,2.55-1.32,5.92,5.92,0,0,1,3.78.35l.38-.76,1.25.51a4.36,4.36,0,0,1,1.82,1.49,10.29,10.29,0,0,0,1-1.31c0-.19.06-.37.1-.52a2.31,2.31,0,0,0,.08-.52,4.42,4.42,0,0,1,1.65-3.39,4.61,4.61,0,0,1,1.43-.71,3.83,3.83,0,0,0,1.08-.51c1.05-.7,2.83-2,3.15-2.19l.71-.61-.24-1.3,2.07-1.09.63-2h2c.81-1,1.36-1.65,1.74-2.06l.2-.39a1.48,1.48,0,0,1,1.93-.56l.17-.1a2.17,2.17,0,0,1,.29-.51,2.22,2.22,0,0,1,1.06-.76l1-.92.1.77.37,0c2,.2,8.95,2,9.73,2.2l.22.08,12,5.36v-4l1.87,3.12a2.18,2.18,0,0,1,2-.89,10.06,10.06,0,0,1,2.22.22,2.24,2.24,0,0,1,1.7-.45,1.74,1.74,0,0,1,1.24,1l.89-.52.34,0a7.62,7.62,0,0,1,2.28.15c.64-.44,1.75-1.31,2.67-2.08l.51-.42,2.64.48c1.48-.09,4.53-.29,4.82-.29s.48,0,5.56,1.32l.26.07.22.16a21.82,21.82,0,0,0,3.33,2.09c.78.06,1.78.61,3.57,1.77a3.22,3.22,0,0,1,2.58-1.08,5.07,5.07,0,0,1,.76.11,1.77,1.77,0,0,1,.3-.37A1.94,1.94,0,0,1,159,252l.28.14a3.06,3.06,0,0,1,.06-1.93A12.71,12.71,0,0,1,160.7,248l.4-.58c0-.33-.1-.85-.16-1.3l-.07-.51,2.73-4.29a3.06,3.06,0,0,1,1.77-3.38,6.88,6.88,0,0,0,1.67-1l0-.07a2.68,2.68,0,0,1-.76-2.1,1.91,1.91,0,0,1,1.18-1.52,17.84,17.84,0,0,0,2-2.08l.24-.28.34-.13c.41-.15,10.1-3.73,14.49-3.52a108.57,108.57,0,0,1,11,1.52c1.25.21,2.32.4,2.78.45,1.12.13,5.09,1.31,11.58,3.29l2.53.77c.12,0,13.76,5.58,14.52,6.61.21.24,1.75,1.61,3,2.72l.17.14.11.19,0,.06c.65-.57,1.64-1.49,2.48-2.3l.7-.68,28.09,13,14.17,8.53,9.69,7.54c.44.3,7.45,4.68,12.13,7.6l2.05.73Zm10.87,4.12Zm-.22,0h0Zm-294.32-.63h0Zm57.72-18.17h0Zm45.88-9.65-.53.63a1.06,1.06,0,0,0,.48-.51Zm6.75.09,0,.07Zm21.29-.58h0Zm75.3-10.19.06.08ZM26,231.85Z"/></svg>