<svg id="Layer_1" data-name="Layer 1" xmlns="http://www.w3.org/2000/svg" viewBox="0 0 350 350"><defs><style>.cls-1{fill:#999;}.cls-2{fill:#f90;}</style></defs><title>M</title><path class="cls-1" d="M84.84,44.68s5.21,2.6,7.81-2.8,10.21-5.61,10.21-5.61,3.4,15.22,8,17.22c4.61,3.81,10.21,6.81,12.22,7.21s4.21,1.6,5.61,1,3.61-2.6,5.41-4.41,4-6.21,4-6.21l7.81-11.82s6.61-7.41,15-6c9.81-.18,13.82-.18,13.82-.18h10.82l11.22-4.83s10.82-1.4,11.42-2.4,10-7.61,10-7.61,13-6.61,15.22-7.21,11.62-4,11.62-4l7.61,1.8L259.09,7l21.83,2.2,14,3.2s-2.2,5,1.2,9,5.41,17.43,5.41,17.43l10.21,49.47,3.61,15.42-57.08,13.82,10.62,50.87,37.65-8.21,4.61,17.83s-87.93,20-87.93,20.63S231,238.76,231,238.76l9.41-14.82s22-4.41,22.63-4,2.4,8.21,1,14.22-3.81,10.42-1.6,16.22L244.4,252l-4.54-2.4-11.22,8.41,5.61,6.81,2.4,9.21.53,9.35,2.4.8.93,5.88-3.87,4.81-.27,6.54-15.62,28-.53,1.07-2.8,3.34-5.74.93,1.2,2.67-12.15,4.41L187.52,343l-2.4-2.4-3.34-.8.4-2.27s-13.35-8.55-14.82-10.82-6.54-11.08-6.54-11.08L138.25,298l-4.94-.8-6.94,6L121,304.92l-24.57-5.34L88.31,295l-14-18-1.07-.8-2-7.88-3.47-1.47-12,3.2s-6.54-12.42-7.34-16.29-3.47-23.23-3.47-23.23L39.7,188.75l-5.07-44.06,2.67-2.4L41.57,144l.13-1.34,8.81,6,4.94-9.48S63.34,106.63,66,103.43,79.36,92.6,79.36,92.6l3.2-13.48,1.74-7.08.27-25.64Z"/><path class="cls-2" d="M187,344.44l-2.58-2.58-4.25-1,.47-2.66c-3.4-2.2-13-8.53-14.45-10.73s-5.6-9.45-6.44-10.9l-22.06-17.23-3.93-.64-6.66,5.76-6,1.94-25.15-5.47-8.58-4.78L73.29,278,72,277l-2-7.68-2.38-1L55,271.73l-.53-1c-.27-.51-6.65-12.64-7.48-16.66s-3.38-22.53-3.49-23.33L38.3,188.93l-5.16-44.8L37,140.64,40.35,142l.18-1.82L50,146.63l4.12-7.91c1.42-5.87,8.08-32.93,10.8-36.19,2.47-3,11.12-9.27,13.19-10.76l3.08-13,1.7-6.93.28-25.67.56-3.66,1.73.87a5.12,5.12,0,0,0,3.49.27,4.39,4.39,0,0,0,2.42-2.42c2.94-6.12,11.11-6.4,11.45-6.41l1.17,0,.25,1.14c1.35,6,4.48,15.05,7.19,16.23l.18.08.15.13c4.48,3.7,9.86,6.57,11.59,6.91a19.87,19.87,0,0,1,2.12.59,5.87,5.87,0,0,0,2.65.5c.45-.19,1.84-1,5-4.11a29.41,29.41,0,0,0,3.74-5.84l.09-.15,7.94-12c.29-.32,7.17-7.9,16.18-6.48,9.62-.17,13.68-.17,13.72-.17h10.52l11.13-4.79.2,0c4.35-.56,9.53-1.47,10.59-2,.94-1.06,4.37-3.67,10.21-7.78l.17-.1c1.35-.68,13.21-6.69,15.49-7.31,2.12-.58,11.41-3.94,11.51-4l.4-.14,7.67,1.82L259,5.59l22.27,2.26,15.69,3.59L296.24,13c-.07.17-1.79,4.27,1,7.53,3.56,4.19,5.52,16.72,5.73,18.13l10.2,49.39,3.92,16.75L260,118.64l10,48.13,37.59-8.2,5.31,20.56-1.42.32c-31.84,7.25-79,18.12-86.64,20.21.85,4.56,4.25,21.88,6.91,35.34l7.84-12.34.59-.12c22.61-4.52,23.09-4.2,23.7-3.8,1.54,1,3,9.88,1.6,15.72-.33,1.39-.7,2.69-1.06,3.93-1.19,4.14-2.14,7.41-.6,11.46l.66,1.74-20.37,1.88L240,251.31l-9.31,7,4.86,5.91,2.53,9.79.48,8.39,2.31.77L242,290.5l-4,4.93-.26,6.41L222,330.18l-.69,1.29-3.14,3.74-4.44.72,1.07,2.38-13.77,5Zm-3.58-5.74,2.43.58,2.22,2.22,12.38-1L211,336.69l-1.33-3,7-1.15,2.36-2.81.46-.92L235,301.05l.27-6.67L239,289.7l-.7-4.4-2.5-.83-.58-10.17L233,265.52l-6.35-7.71L239.73,248l5,2.63,15.93-1.47c-1-4.17,0-7.74,1.08-11.5.35-1.21.71-2.47,1-3.79a28.15,28.15,0,0,0-.51-12.45c-2.78.34-12.24,2.11-20.87,3.83l-11,17.3-.69-3.47c-7.84-39.59-7.84-40.15-7.84-40.33,0-1.33,0-1.33,14.83-4.86,7.3-1.74,17.47-4.11,30.23-7.07,18.56-4.29,37.32-8.57,42.55-9.77l-3.9-15.09-37.72,8.23-11.19-53.62,57-13.81-3.28-14.05L300.16,39.16c-.55-3.7-2.52-13.76-5.1-16.79a10,10,0,0,1-1.93-8.89l-12.44-2.84L259.21,8.46l-6.5,1.83L245.15,8.5c-1.84.66-9.33,3.35-11.33,3.9-1.49.41-9.87,4.53-14.86,7.06a117.73,117.73,0,0,0-9.58,7.2c-.28.48-.9,1.5-12.2,3l-11.3,4.87H174.77s-4.11,0-13.79.18h-.13l-.13,0c-7.15-1.19-13,4.78-13.67,5.49l-7.7,11.65a31.93,31.93,0,0,1-4.23,6.5c-2.55,2.55-4.52,4.14-5.85,4.71s-3.06.1-4.63-.4a17.9,17.9,0,0,0-1.82-.51c-2.32-.46-8.08-3.61-12.7-7.39-4.36-2.17-7.33-12.75-8.35-16.9-2,.29-6.2,1.29-7.84,4.69a7.08,7.08,0,0,1-4.07,3.88,7.31,7.31,0,0,1-3.87.16l-.31,25.85-1.74,7.08-3.33,14-.43.31c-.11.08-10.56,7.55-13.09,10.58-1.79,2.15-7.24,22.74-10.26,35.21l-.12.32L51,150.76l-8.16-5.56-.08.85-5.21-2.11-1.47,1.32,5,43.34,5.21,41.78c0,.17,2.67,19.34,3.45,23.12.57,2.76,4.63,10.93,6.69,14.92l11.39-3,4.57,1.93,2.05,8.08.82.61,14,17.95,7.71,4.3,24,5.21,4.7-1.53,7.23-6.25,6,1,23.07,18,.14.24c.05.09,5.07,8.81,6.5,11,.81,1.26,8,6.27,14.4,10.39l.8.51ZM262,220.79ZM207.08,25l-.07.11Z"/></svg>