<svg id="Layer_1" data-name="Layer 1" xmlns="http://www.w3.org/2000/svg" viewBox="0 0 350 350"><defs><style>.cls-1{fill:#999;}.cls-2{fill:#f90;}</style></defs><title>M</title><path class="cls-1" d="M235.39,329.58,228.46,328l-5.38-10.77s-13.08,9.23-12.31,6.92-14.62-24.62-14.62-24.62l5.38-3.85-3.85-4.62L180.77,295C176.15,288,165.38,288,165.38,288s-27.69-6.15-28.46-8.46-20.77-.77-20.77-.77L113.84,268l-6.92-.77-18.46,5.38h-10c-4.62,0-7.69-14.62-7.69-14.62l-10-18.46,11.54-6.92-1.54-3.85L53.07,215l2.31-8.46L42.3,212.65l-6.15-15.77-17.69,8.85L6.91,196.88l16.92-26.54L15.37,145,41.53,118l42.31-13.08c27.69-20,60-9.23,60-9.23l43.08-23.85,43.85-10,14.62-9.23L265.14,15c8.21,12.4,50.25,31.45,50.25,31.45S295,61.58,273.72,79s-55.26,65.18-55.26,65.18l20.77,27.69L218.46,205,230,215l3.08,8.46,19.23-29.23s30,46.16,33.85,83.08l44.62-11.54,3.85,4.62-5.39,6.92,13.85,30-36.16,13.85L300,317.27,262.31,335Z"/><path class="cls-2" d="M262.49,336.44,235.08,331l-7.58-1.68-5-9.9c-10.86,7.57-11.77,6.88-12.59,6.28a1.62,1.62,0,0,1-.59-1.73c-.31-2.14-7.51-13.58-14.39-23.55l-.79-1.15,5.28-3.77-2.31-2.78-17,3.87-.54-.81c-4.13-6.2-14.11-6.29-14.21-6.29l-.31,0c-25.53-5.67-28.77-8.05-29.37-9.09-1.76-.86-11.33-.74-19.45-.11l-1.24.09-2.35-11-5.63-.63-18.38,5.36H78.46c-5.26,0-8.2-11.63-9-15.54L58.87,239.05l11.67-7-.95-2.37L51.45,215.49l1.75-6.41-11.67,5.49-6.14-15.74-17.1,8.55L5,197.21l17.26-27.07-8.52-25.56,27-27.8L83.2,103.66C109,85.16,139,92.84,143.68,94.19l42.73-23.66.2,0,43.61-9.95,14.09-8.9L265,12.26l1.32,2C274.22,26.18,315.56,45,316,45.19l2.2,1-1.94,1.44c-.2.15-20.62,15.28-41.62,32.47-19.34,15.84-49.75,57.61-54.4,64.07L241,171.8l-20.64,32.88,10.9,9.45,2.24,6.16,18.87-28.69,1.18,1.82a304.81,304.81,0,0,1,15.56,27.84c7.13,14.43,16,35.37,18.32,54.24l43.91-11.36,5.15,6.18-5.56,7.14L345,308l-38.19,14.63L300,318.86Zm-26.81-8.25,26.45,5.29,37.93-17.8,7,3.88,34.12-13.07-13.57-29.41,5.21-6.7-2.54-3-45.34,11.73-.17-1.64c-2-18.86-11-40.25-18.21-54.87-6-12.21-11.84-21.86-14.25-25.74l-19.57,29.75-3.92-10.77-12.18-10.55,20.9-33.28L216.71,144.2l.6-.84c1.39-2,34.34-48.11,55.52-65.46,17.32-14.18,34.24-27,39.81-31.13-8.36-3.91-37.88-18.19-47.27-29.11l-18.9,36L231.32,63.2l-.24.05-43.65,10L144,97.26l-.59-.2c-.32-.1-32-10.29-58.73,9l-.19.14-.22.07-42,13-25.3,26,8.4,25.21-16.59,26,9.8,7.52,18.29-9.15,6.17,15.8,14.48-6.82-2.87,10.52,17.25,13.5,2.13,5.32-11.41,6.85,9.45,17.45,0,.2c1.37,6.52,4.24,13.49,6.31,13.49h9.8l18.54-5.41,8.22.91,2.26,10.56c18.48-1.34,20.45.54,20.9,1.6,1.83,1.43,15.19,5,27.37,7.72,1.42,0,10.9.45,15.82,6.75l16.86-3.83,5.38,6.46-5.5,3.93c1.32,1.94,4.12,6.08,6.84,10.33,4.69,7.34,6.44,10.73,7,12.46a111.87,111.87,0,0,0,10.29-6.6l1.35-1,5.82,11.64ZM209.38,324Z"/></svg>