<svg id="Layer_1" data-name="Layer 1" xmlns="http://www.w3.org/2000/svg" viewBox="0 0 350 350"><defs><style>.cls-1{fill:#999;}.cls-2{fill:#f90;}</style></defs><title>M</title><path class="cls-1" d="M256,339.6v-2.71l-3.15-1.25,2.49-3.44-3.08-2.2-8.86,5.35-12.6,3.59-2.42,2.78s-4.83-.44-8.06,1.06l-2.27-3.7-3.59,1.54a43.15,43.15,0,0,1-15.16-3s-2.12-.7-10.47-1.23l-11.5-5.14-5.13-3.44-.37-1.24-4.1-2.42s-1.46,1-5.2.88l-2.27,1.1-3.15.22-3.08-1.24-7.18.29s-4.69,2.56-8.49-3.15A32.68,32.68,0,0,1,133.66,312l-7.84-7.69-3.22-5.93a41.07,41.07,0,0,1-3.3-12.67L114,271.42,99.61,270,97,277.65s-7.18-10-7.32-10.25-14.5-16.26-14.5-16.26l-4.83-4.61-5.86-2.34L78.23,224l3.3-2.64,5.49-9s12.41-22,14.72-23,9.45-33.83,9.45-33.83l-.55-24.71L105,119.58,95.58,95.75,91.52,86.3l-8-11.64L80.64,67.3S83.72,59.5,75.37,54s-16.7-9.78-16.7-9.78l5.71-9.12L74.71,34,99.1,25.23s18,18.34,31.2,7l-2-7.47s10.22-.44,12.3,2l5.93-4.83.22-4.17,3.08-2.42s7,7.78,8.57,7.25,7.61-5.47,8.88-6.72,5.62-5.8,5.62-5.8l9.67-2.86,6.81,13.18s-7,1.65-.44,9.45l-1.1,10.54L183,60.82,196,103l16.7,37.79c.88,14.94,11.64,28.56,11.64,28.56L252,201l-1.1,19.77c3.08,4.61,7.78-1.54,7.78-1.54l-1.63-2.64,11.64-4.17c25,36.47,21.75,55.58,21.75,55.58l-3.08.66c-20,1.1-18.89,14.06-18.89,14.06l9.23,16A18.13,18.13,0,0,0,277,312.8L291.32,326s.22-3.08-5.27,2.42-9.48,1.52-9.48,1.52l-12.49,12.87.77-2"/><path class="cls-2" d="M260.22,348.8l3.31-8.5.72.28,12.3-12.68,1,1c.3.29,3.18,2.78,7.48-1.52a24.57,24.57,0,0,1,2.92-2.58l-12.1-11.17-.12-.27a19.36,19.36,0,0,1,.37-14.55l-9-15.69,0-.31a13,13,0,0,1,3.29-9c3.42-3.94,9.08-6.16,16.82-6.6l1.95-.42c.22-4.16-.29-22.23-21-52.71l-9,3.21,1.22,2-.59.77c-.31.4-3,3.92-6.29,3.81a4.67,4.67,0,0,1-3.79-2.34l-.26-.39,1.09-19.67-27.3-31.2c-.49-.62-11-14-12-29.15l-16.65-37.71L181.55,60.87l4.9-20.72,1-9.86c-2.39-3-3.24-5.58-2.52-7.73a5.23,5.23,0,0,1,2.47-2.86L181.86,8.9l-8.18,2.42c-1,1-4.29,4.46-5.38,5.55s-7.47,6.38-9.42,7.06c-.7.24-2.3.79-9.19-6.66l-1.53,1.21-.22,4.16-7.49,6.1-.9-1c-.85-1-5.15-1.53-9.28-1.53h-.12l1.74,6.59-.67.58c-12.53,10.76-29-3.24-32.46-6.48L75,35.41l-9.81,1-4.54,7.24c2.73,1.45,9.13,5,15.46,9.13,7,4.58,7,11.15,6,14.45L84.76,74l8.06,11.75,4.06,9.45L106.32,119,112,130.55l.56,25.2,0,.16c-7.29,33.56-9.54,34.52-10.27,34.83-1.41,1-8.27,12.13-14,22.35l-5.65,9.26L79.28,225l-12.65,18.5,4.47,1.79,5.11,4.88c12.94,14.4,14.42,16.12,14.66,16.48h0c.25.39,3.16,4.45,5.66,7.93l2.11-6.09L115,270.1l5.74,15.47a39.87,39.87,0,0,0,3.16,12.19l3.09,5.69,8,7.84.09.42a31.81,31.81,0,0,0,4.55,9.76c3,4.44,6.28,2.88,6.65,2.68l.28-.15.33,0,7.48-.31,3.06,1.24,2.55-.18,2.33-1.13h.34c3.15.06,4.42-.66,4.43-.67l.72-.42.75.4,4.58,2.7.38,1.29,4.6,3.09,11.15,5c8.08.52,10.33,1.2,10.57,1.28a43.21,43.21,0,0,0,14.42,2.94l4.45-1.91L221,341a21,21,0,0,1,6.85-.77l2.24-2.57L242.86,334l9.5-5.73,5,3.57L255.1,335l2.35.93v3.67h-2.83v-1.75l-3.95-1.56,2.72-3.76-1.16-.83-8.41,5-12.19,3.47-2.62,3-.72-.06s-4.5-.38-7.33.93l-1.15.53-2.29-3.73L214.82,342h-.27a44.29,44.29,0,0,1-15.71-3.09h0s-2.28-.64-10.06-1.14l-.26,0-11.94-5.37L171,328.7l-.35-1.2-3-1.76a13.53,13.53,0,0,1-4.71.71h-.08l-2.22,1.07-3.75.26-3.09-1.25-6.57.27c-2.17,1-6.63,1.34-10-3.77a35.6,35.6,0,0,1-4.86-10.31l-7.7-7.55L121.36,299a42,42,0,0,1-3.44-13l-5-13.28-12.36-1.2-3.16,9.14-1.6-2.22c-5.7-7.91-7-9.76-7.32-10.25-.54-.69-8.87-10-14.37-16.1l-4.6-4.39-7.25-2.9,14.88-21.77,3.27-2.61,5.36-8.79c4.56-8.07,12.49-21.66,15.14-23.4,1.46-1.87,5.6-18,8.81-32.79l-.54-24.23-5.51-11.14L94.26,96.27l-4-9.28L82.18,75.17l-3.06-7.88.2-.52c.1-.27,2.51-6.82-4.73-11.59-8.18-5.38-16.48-9.66-16.56-9.7l-1.37-.71,6.9-11,10.84-1.15,25.08-9,.64.65c.17.17,16.61,16.63,28.58,7.5l-2.19-8.29,1.76-.08c2.24-.1,9.1-.22,12.33,1.6l4.59-3.74.22-4.19L150,13.41l.89,1c2.64,2.93,6.08,6.22,7.28,6.76a64.44,64.44,0,0,0,8.11-6.29c1.24-1.23,5.55-5.73,5.59-5.77l.26-.27L183.3,5.52l8.18,15.84-1.77.42s-1.66.43-2.07,1.68.45,3.18,2.39,5.47l.39.46-1.19,11.32-4.75,20.06,12.82,41.73,16.77,37.94,0,.26c.84,14.33,11.24,27.63,11.34,27.76l28,32-1.1,19.84a1.62,1.62,0,0,0,1.26.73h.05c1.07,0,2.41-1.08,3.27-2l-2-3.24,14.32-5.13.62.9c25.08,36.52,22.12,55.82,22,56.62l-.16.94-4.23.89c-7,.38-12,2.26-14.91,5.59a10.35,10.35,0,0,0-2.66,6.66l9.41,16.36-.3.66a17.11,17.11,0,0,0-.75,12.65L291,323.73a2.09,2.09,0,0,1,.56.17,2.22,2.22,0,0,1,1.21,2.19l-.21,2.94-2.41-2.23a17.52,17.52,0,0,0-3.06,2.6c-4.58,4.58-8.45,3.42-10.3,2.37ZM101.16,188.15h0Zm0,0h0Zm0,0h0Z"/></svg>