<svg id="Layer_1" data-name="Layer 1" xmlns="http://www.w3.org/2000/svg" viewBox="0 0 350 350"><defs><style>.cls-1{fill:#999;}.cls-2{fill:#f90;}</style></defs><title>M</title><path class="cls-1" d="M321.11,178.44c-1.57-5.43-.6,1.21-3.74-6.4s-3.14-41.29-7.24-42.25l-.44-.12a2.13,2.13,0,0,0-1.81-.7c-3.38-1.56-7-4.38-7.33-3.49l-.11,0c-.84-.94-1.25-1.12-1.38-.69-2.37-1.27,4.44,15.38.42,31.48-3.1,12.38-3.13,16.69-6.11,18.29a5.25,5.25,0,0,1-1.35-.08c-2.05-.36-10.74.36-17.75,1s-7.12-.12-8.57-4.71c-.48-8.57-22-59.4-25-66.4S231.65,79.44,230,77.63s1.81-3,2.17-3.62a2.13,2.13,0,0,1,.22-.28l.19-.21c.86-.91,2.63-2.58,2.72-3.86,0-.49-.91-1.12-2.3-1.8-.81-1.24-2.37-1.53-4-1.72a46.09,46.09,0,0,1-5.38-2.28A3.08,3.08,0,0,0,221,64a17.83,17.83,0,0,0-6,3.5l-.3.16c-2.94,1.56-4.75,2.67-6.07,3.4-2,.41-3.82.62-4.32.67-.32,0-.42-.27-.37-.8s.22-1,.31-1.53c.38-1.41,1-3.3,1.63-5.15,1.21-3.74.72-6.52-1.33-8.09-1.54-1.18-13.79-2.15-26.49-3-4.4-.55-8.35-1-10.91-1.25l-5.76.77s-5.93-2.21-5.93-5.55.13-7.08-2.84-8.89a5.06,5.06,0,0,1-2.32-5.35c0-.71-6.06,0-6.06,0a12.77,12.77,0,0,1-7,0,46.24,46.24,0,0,0-8-1.49s-2.32-3.61-2.06-5.29-3.48-1.16-4.77-1.55S114.14,22,114.14,22s-5.54.77-6.32,2.84-5.93,2.84-5.93,2.84L97.63,31s-7.48,5.16-7.87,5.16-4.38,9-12,6.71S70.42,37,70,35.41s-3.35-7.35-3.48-8.12-2.06-4.64-4-5.29a114.63,114.63,0,0,0-16.12-2.45c-2.84,0-10.06-2.32-11.86-3s-6.45-1.81-7.22-1.68S24.9,13.48,23,13.48s-2.06-.13-2.84.64-3.22.26-4.26,1.81a11.4,11.4,0,0,0-1.29,2.32s-1.81.26-2.19-.52a7.22,7.22,0,0,0-1.16-1.55s-3.72,1-4.38.26c.81,2.36,1.91,5.46,2.39,6.34.81,1.47,7,8.62,7.15,9.18S26.94,47.63,27.71,49.53s4.41,9.25,7,9.53,7.78.25,7.74,1.72,0,9.61-1.4,15.46S37.23,86.86,36.69,90.9s-1.09,9.36-2.17,11-4.23,4.41-5.49,9.3-3.68,11.53-3.62,16-1.15,11.65-1,13.94-2.47,7.36.72,9.48,11,7.79,12.19,9.18S50.51,172,52.74,173.18s13.22,9.3,14.73,10.38,9.42,4.17,11.35,8.75S89.63,203,90.47,205s8.81,11.47,9.72,13.22,5.43,6.16,4.47,8.69S101,243.8,100.13,247s-2.72,10.38-2.9,11.17,1,4.41.85,7.24a7,7,0,0,1-2.72,4.95c-.54.42-4.59,8.45-4.89,13.58s2.35,18.35,4.17,22,14.37,17.93,19,21.55,10.32,7.79,16.24,7.79,20.95-1.45,24.33-1,15.51,1.15,18,1.45,3.38,2.23,5.13-1.81,8.15-7.3,9.9-8.57S210.11,317,220.13,313s23.06-7.24,27.28-10.2,15.51-6.64,19.8-8.27,17.2-4.29,20-6.1,10.87-3.56,13.28-3.68,4.35-4.29,5.13-7.67,3.62-5.31,5.13-7.06,22.27-13.46,27.22-20.83,6.16-8.63,4.29-14.91-4.95-16.48-6-19.74-6.52-11.65-6.52-11.65-2.23-1-2.91-4.88h-.06S322.68,183.87,321.11,178.44Z"/><path class="cls-2" d="M175.13,337.93a5.43,5.43,0,0,1-1.76-.36,6.39,6.39,0,0,0-1.35-.36c-1-.12-3.81-.32-6.78-.52-4.32-.3-9.22-.64-11.24-.93-1.81-.26-7.88.12-13.23.46-4.29.27-8.35.52-10.89.52-6.21,0-11.86-4-17.11-8.09-4.81-3.75-17.51-18.17-19.42-22s-4.62-17.35-4.31-22.74c.3-5.1,4.27-13.71,5.44-14.62a5.55,5.55,0,0,0,2.17-3.92,20.48,20.48,0,0,0-.55-4.79,6.93,6.93,0,0,1-.27-2.68c.19-.82,2.07-8,2.91-11.21.32-1.21.94-4.21,1.61-7.38,1.37-6.56,2.38-11.32,3-12.86.41-1.08-1.79-3.95-2.85-5.33a17.21,17.21,0,0,1-1.55-2.21c-.34-.66-2.3-3.17-4-5.39-3.14-4-5.23-6.75-5.74-7.93a26.18,26.18,0,0,0-3.5-3.46c-3.06-2.75-6.86-6.16-8.15-9.22s-6.21-5.64-8.85-7a19,19,0,0,1-2-1.13l-1.46-1.07c-3.1-2.27-11.33-8.3-13.09-9.21-2.48-1.27-14.66-12.34-15.81-13.67-1-1.17-8.52-6.69-11.91-8.92-3-2-2.24-5.79-1.7-8.29A10.4,10.4,0,0,0,23,141.3a43,43,0,0,1,.4-6,78,78,0,0,0,.57-8.06c0-3.53,1.33-8.23,2.54-12.37.41-1.4.81-2.76,1.13-4a21.17,21.17,0,0,1,4.64-8.37,16.85,16.85,0,0,0,1-1.34c.76-1.19,1.32-5.54,1.73-8.72l.23-1.75a40.4,40.4,0,0,1,2.16-7.6c.8-2.27,1.63-4.62,2.27-7.22C41,70.82,41,63.76,41.07,61.44V61.2a23.84,23.84,0,0,0-4.52-.58c-.71,0-1.39-.09-1.95-.15-4-.43-8.16-10.3-8.2-10.4-.4-1-4.68-7.41-7.24-11.24-3.35-5-3.92-5.91-4.08-6.3-.31-.48-1.71-2.18-2.83-3.56A60.24,60.24,0,0,1,8,23.48a48,48,0,0,1-2.49-6.56L3.13,10l4.62,5.35a12.16,12.16,0,0,0,3.11-.49l.79-.22.58.58a9,9,0,0,1,1.29,1.66l.14,0a19,19,0,0,1,1-1.72,5,5,0,0,1,3.63-1.89,5.92,5.92,0,0,0,.85-.19c1-1,1.65-1,3.09-1H23a8,8,0,0,1,3.61,1.08c.24.12.57.28.73.34,1.58-.07,6.55,1.33,7.75,1.76,2.07.74,8.89,2.88,11.39,2.88A112.31,112.31,0,0,1,63,20.65C65.62,21.52,67.77,26,68,27c.08.28.79,1.82,1.31,2.94a40,40,0,0,1,2.14,5.08c0,.2.09.43.14.68.28,1.58.71,4,6.64,5.78,4.74,1.45,7.91-2.41,9.88-5.43.42-.64.74-1.13,1.3-1.28.79-.43,4.33-2.8,7.46-5l4.48-3.53.37-.06c2.23-.34,4.57-1.28,4.82-1.93,1-2.65,6-3.53,7.45-3.74l.31,0,.3.09s7.08,2.19,8.37,2.58a8.81,8.81,0,0,0,1.33.13c1.54.09,3.13.18,4,1.23a2.21,2.21,0,0,1,.46,1.76c-.09.58.67,2.31,1.5,3.73a45.63,45.63,0,0,1,7.57,1.47,11.46,11.46,0,0,0,6.11,0l.27-.06c6-.71,6.71-.11,7.11.24a1.56,1.56,0,0,1,.53,1.16c0,.11,0,.27,0,.45A3.44,3.44,0,0,0,153.43,37c3.53,2.15,3.52,6.34,3.52,9.7v.4c0,1.66,3,3.39,4.69,4.1l5.55-.74h.16c2.33.21,6,.63,11,1.25C199.12,53.1,204.14,54,205.47,55c1.8,1.38,3.58,4.17,1.82,9.65l-.52,1.59c-.42,1.27-.81,2.47-1.08,3.43l-.08.45c1.07-.15,1.95-.31,2.58-.43l1.23-.7c1.18-.68,2.65-1.53,4.67-2.6l.16-.08a19.22,19.22,0,0,1,6.4-3.69,4.09,4.09,0,0,1,3.7.07,35.63,35.63,0,0,0,4,1.7l1,.38c1.34.16,3.38.45,4.62,2,1.45.73,2.88,1.64,2.77,3s-1.38,2.93-2.78,4.37l-.33.34-.22.23,0,.05a3.55,3.55,0,0,1-1.21,1,6.71,6.71,0,0,0-1.13.84l0,0c1.11,1.19,3,5.93,6.61,15.72,1.67,4.47,3.25,8.69,4.4,11.36.24.57,24.26,56.65,25.09,66.69v0c1.27,4,1.27,4,7,3.52,10-.86,16.17-1.29,18.12-.95a4.52,4.52,0,0,0,.69.07c1.36-.94,1.93-3.21,3.24-9,.49-2.2,1.1-4.93,1.91-8.18,2.51-10,.63-20.55-.37-26.2-.71-4-.95-5.31.15-6.11a1.6,1.6,0,0,1,.67-.28,1.57,1.57,0,0,1,.4-.14,2.17,2.17,0,0,1,1.94.72c.91,0,2,.69,3.85,1.76,1.07.63,2.27,1.33,3.43,1.89a3.48,3.48,0,0,1,2.21.85l.07,0c3,.71,3.91,7.34,5.41,23.46.75,8.11,1.53,16.5,2.82,19.64a19.12,19.12,0,0,0,1.5,3.12c1.33.09,1.76,1.59,2.29,3.43h0c1.32,4.58,4.45,15.33,5.4,18.6H328l.26,1.1c.52,3,2.07,3.82,2.14,3.85l.33.17.23.33c.23.35,5.54,8.58,6.67,12s4.46,14.46,6,19.78c2,6.58.65,8.52-3.69,15L339.2,250c-3.62,5.39-14.67,12.57-22,17.32-2.43,1.58-4.94,3.21-5.35,3.64s-.87.93-1.37,1.41c-1.38,1.35-2.95,2.88-3.45,5-.92,3.94-3.15,8.6-6.44,8.76-2.43.12-10.1,1.87-12.59,3.46-1.74,1.11-5.95,2.26-12.17,3.89-3.32.87-6.46,1.69-8.13,2.33-.87.33-2,.75-3.37,1.23-5.14,1.84-12.91,4.63-16.12,6.88-2.71,1.9-8.41,3.78-15,5.95-4.24,1.4-8.62,2.84-12.57,4.41-4.3,1.71-10.55,4-16.59,6.17-7,2.55-15,5.45-16,6.1-.36.26-.91.61-1.58,1-2.31,1.44-6.61,4.12-7.84,7C177.54,337.07,176.47,337.93,175.13,337.93Zm-23-5.09a17.9,17.9,0,0,1,2.32.11c1.91.27,6.76.61,11,.91,3.14.22,5.85.41,6.93.54a8.93,8.93,0,0,1,1.94.5,3.26,3.26,0,0,0,.76.22,5.06,5.06,0,0,0,1-1.68c1.58-3.65,6.19-6.52,8.95-8.24.6-.37,1.1-.68,1.42-.92,1.05-.76,5.9-2.56,16.69-6.47,6-2.18,12.25-4.44,16.51-6.13,4-1.6,8.45-3.06,12.73-4.47,6.12-2,11.89-3.92,14.27-5.58,3.53-2.47,11.51-5.33,16.79-7.22,1.31-.47,2.46-.88,3.32-1.21,1.82-.69,5-1.53,8.42-2.42,4.4-1.15,9.87-2.59,11.36-3.54,3.15-2,11.43-3.78,14-3.9,1.12-.06,2.92-2.71,3.82-6.57.69-3,2.65-4.88,4.23-6.42.45-.44.88-.86,1.21-1.25.56-.65,2.23-1.75,5.94-4.16,6.69-4.35,17.88-11.62,21.18-16.53l.78-1.15c4.25-6.3,4.91-7.27,3.33-12.56s-4.88-16.26-6-19.7c-.81-2.44-4.58-8.54-6.18-11a7.93,7.93,0,0,1-3.19-5.18l-.13-.36s-4.1-14.13-5.67-19.56h0c-.21-.71-.35-1.15-.45-1.42-1.18-.31-2-1.85-3.24-4.83-1.46-3.53-2.22-11.75-3-20.46-.72-7.78-1.81-19.5-3.35-21l-.4-.11-.33-.1-.25-.24c-.35-.34-.51-.32-.69-.31l-.38,0-.34-.16c-1.37-.64-2.75-1.44-4-2.16-.56-.33-1.24-.73-1.78-1v0l-1.4-.28c.11.71.26,1.56.4,2.35,1,5.86,3,16.76.33,27.39-.8,3.22-1.41,5.93-1.9,8.11-1.47,6.59-2.14,9.59-4.92,11.08l-.26.14-.29,0a6.57,6.57,0,0,1-1.71-.1c-2-.35-12,.52-17.38,1-7.38.64-8.35-.32-10-5.49l-.13-.55c-.44-7.76-20-54.71-24.88-65.92-1.18-2.74-2.77-7-4.45-11.49-2.17-5.82-5.15-13.78-6-14.78a2.73,2.73,0,0,1-.82-2.25c.18-1.46,1.56-2.34,2.48-2.93.17-.11.33-.2.44-.29s.17-.22.28-.35l.18-.19.4-.42a13.05,13.05,0,0,0,1.87-2.26,10.32,10.32,0,0,0-1.38-.77L232,69l-.21-.33c-.44-.67-1.43-.9-3-1.08l-.36-.09L227.29,67a30.07,30.07,0,0,1-4.51-2,3.66,3.66,0,0,0-1.28.27,16.55,16.55,0,0,0-5.5,3.22l-.58.35c-2,1-3.42,1.88-4.58,2.55l-1.46.83-.19.11-.21,0c-1.36.28-2.89.52-4.45.69a1.7,1.7,0,0,1-1.39-.46,2.29,2.29,0,0,1-.55-1.86l0-.21c.11-.46.21-.94.29-1.45l0-.13c.28-1,.7-2.31,1.14-3.65l.51-1.57c.7-2.15,1.11-5-.84-6.53-1.27-.75-9.94-1.67-25.72-2.69q-7.31-.91-10.78-1.23l-5.95.79L161,54c-.7-.26-6.85-2.67-6.85-6.88v-.4c0-3.6-.14-6-2.16-7.27A6.08,6.08,0,0,1,148.9,34c-1.09,0-2.8.12-4.3.3a14.23,14.23,0,0,1-7.67,0,45.13,45.13,0,0,0-7.71-1.43l-.69-.06-.38-.58c-.57-.89-2.31-3.77-2.31-5.82a12.7,12.7,0,0,0-1.76-.18,9.15,9.15,0,0,1-2-.25L114,23.44c-2.32.37-4.65,1.26-4.88,1.88-.91,2.44-5,3.38-6.67,3.68l-4,3.13c-5,3.45-7,4.72-7.86,5.19l-.21.32c-1.42,2.19-5.76,8.84-13.08,6.6-7.59-2.32-8.27-6.16-8.6-8,0-.18-.06-.35-.1-.49a48,48,0,0,0-2-4.57,21.45,21.45,0,0,1-1.54-3.66c-.19-.77-1.89-3.79-3-4.18A116.94,116.94,0,0,0,46.44,21c-3.58,0-12.25-3-12.34-3a39.08,39.08,0,0,0-6.58-1.6h0a3.75,3.75,0,0,1-2.2-.63A5.63,5.63,0,0,0,23,14.9h-.73a7.74,7.74,0,0,0-.89,0h0a2.34,2.34,0,0,1-.22.22,4.05,4.05,0,0,1-2.33.92c-.86.15-1.5.28-1.75.67a11,11,0,0,0-1.13,2l-.29.8-.85.14c-.66.09-2.88.28-3.66-1.29a3.92,3.92,0,0,0-.39-.59,15,15,0,0,1-1.81.32,35.91,35.91,0,0,0,1.56,4c.36.66,2.44,3.2,4,5,2.61,3.19,3.11,3.84,3.27,4.29.32.57,2.17,3.34,3.8,5.79,4.1,6.14,7,10.58,7.5,11.74,1.46,3.59,4.63,8.52,5.88,8.65.53.06,1.17.1,1.84.15,3.72.25,7.23.49,7.17,3v.67c0,2.66-.1,9.71-1.44,15.1-.67,2.73-1.56,5.25-2.35,7.48a38,38,0,0,0-2,7l-.23,1.73c-.63,4.93-1.13,8.29-2.16,9.89a18.54,18.54,0,0,1-1.23,1.6,18.44,18.44,0,0,0-4.09,7.28c-.33,1.27-.73,2.65-1.15,4.09-1.16,4-2.47,8.43-2.42,11.53a79.66,79.66,0,0,1-.58,8.38,44.4,44.4,0,0,0-.39,5.47,11.45,11.45,0,0,1-.4,3.07c-.55,2.57-.84,4.46.49,5.33,3,2,11.08,7.82,12.48,9.43,1.14,1.31,13,12,15,13,1.73.89,7.78,5.27,13.47,9.44l1.44,1.05c.26.18.94.54,1.67.92,3.16,1.65,8.46,4.4,10.16,8.43,1,2.48,4.73,5.79,7.43,8.21,2.47,2.22,3.78,3.43,4.22,4.46a79.14,79.14,0,0,0,5.36,7.29,62.93,62.93,0,0,1,4.31,5.83,16.92,16.92,0,0,0,1.28,1.78c1.88,2.45,4.23,5.5,3.25,8.06-.55,1.44-1.82,7.53-2.84,12.43-.7,3.35-1.3,6.25-1.64,7.53-.86,3.27-2.62,10-2.87,11,0,.27.15,1,.27,1.58a22.58,22.58,0,0,1,.59,5.52,8.37,8.37,0,0,1-3.15,5.89c-.79,1.11-4.2,8.21-4.46,12.63-.29,5,2.32,17.85,4,21.32s14.23,17.64,18.61,21.06c4.86,3.79,10.05,7.49,15.37,7.49,2.45,0,6.65-.26,10.71-.52C145.05,333.1,149.32,332.84,152.09,332.84ZM98.61,258.49h0Zm0-.11ZM230.9,76.54Zm0-3.28v0ZM41.08,60.74v0ZM90.39,37.45l-.25.1Zm-.62-2.69h0ZM15.12,32.58h0Zm-.1-.26h0ZM27.12,13.5h0Z"/></svg>