<svg id="Layer_1" data-name="Layer 1" xmlns="http://www.w3.org/2000/svg" viewBox="0 0 350 350"><defs><style>.cls-1{fill:#999;}.cls-2{fill:#f90;}</style></defs><title>M</title><path class="cls-1" d="M11.44,252.43l3-5-.86-1.59-3.32-2.16,2.09-2.74-2.09-1.59-.58-5,5.62-22.77s3.17-24.79,1.3-33.58l-.58-6.2L15.62,168l-5.19-24.5-3-13.69v-15l-1.15-2.59,2-4,.14-2.74L15,97.91l3.75-6.34,1-17.73,2.74-8.94H26l3.17,3.6,5.77,1.15,4.47,3.17,4.18,5.77,8.79,3.46,7.78,1.15,3.6,3.46,6.63,3.89,4-3.32,4.18,3.32L80,95l1.73.29L84.37,93V87.1l6.34-1.15,6.63.58L106,91.86l3.6,3.46s6.92,3.32,7.35,3.32,16.86,13.55,16.86,13.55l15.71-.86,14.13,2.31,6.77-2.16,3.6-3.17,4,2.16,4.61,6.34,6.34,1.3,2-.58,36.76.43,11-.72,13.12-3.75,5.91-.29,1.15,1.3,4.9,1.59,9.95,5.33,1.73.43,16.72.29,4.32,2-3.46,5.77s-7.93,4.47-4.18,9.08l2.59,1.44-3.75,3.17-2.45.29-1.3-1.44-1.3,1-.29,4.18-.14,1.3,4.47,4-.29,3.6,3.68-.29,7.46,4.32.76,1.62s5.08,2.81,6.05,2.92l1.19,3.35,2.16.86,1.51,2.05,3,1.73,3.89,6.05v1.19l8.86,3.89,6.38,1.08s6.81,3.68,9.08,3.68l3.24,5.3-.58,3.64-5.12,2.41-4,3.53s-1.59,4.47-1.33,5.51,1.8,4.72,1.8,4.72l4.4,4.11-3,1.15-1.15,2.45-2.77-.14-3.13-4.47-10-4.79-1.23.68-6.16-1-3.42,2.31-3,3.21,1.69,3.46,5.77-1.73,6,.14L326.6,221l-9.26,8-1.15,5.62,2.34,4.86-1,3.21-2.67,2.38-.43,1.37,1,3.78-3.21,5.08-1.08,4.58-2.92-.36L305,262.19l-4.79-.9-.14-3.17-1.33,2.56L292.94,263l3.39-11.28.07-4.25-1.15-7.28,5.44-1,3.06-1.62,1.14-1L306.4,233l1-3.41-9.46-11-.22.92,2.54,2.43-1.3.59-5-1.19-1.3.86-1.41.05-.43.81-3.46.49L283,221.42l-2.22-2.16-1.62-2.11-.49,2.11-4.11,2.11-1.68.05-.7-.05s-1.57,7.24-1.57,7.51-1.73,3.57-1.73,3.57l-6.27.05L261.37,231l-4.92,1a7.24,7.24,0,0,0-.59,1.14c0,.16,4.49,3.57,4.49,3.57l-1.08,2.59-3.73,1.19-3.24-1.14s-3.51,1-4.43,3.24l-6.32,2.32-1.41-.76-1,.05L236,241.15l-3.84-2.49-6.49.86-9.89,3.89-6.86,1.84,1.14.38,1,2.7,2.27,1.73-2.54,5.68-3.41,1.51-3.13.16.65,3.19,1,1.68.49,4.22,2.16,4.92,1.14,1.46.43.7-4.05-.7-4.16.11-3.68-3.41-3.13-8.81-.59-4.92-2.7-2.7-1.19-3.84-11.57-.7-.92-1.73-6.38-.38,2.43-6-.16-2.86-1.46-.76.22-1.24-1.62-1.35L158,237.75l-1.19-1.08h-1.51l-.59-2-4.16-1-2.16-1.95-3.19,3.62-4.7,3,.7.54-.27,1,1,.65s-.65.76.05,2.49l-.05,2-1.14,2.27-4.16,3-1.41-10.7s.7-2.11,1.46-2.38c0,0-.38-1.41-1.62.22,0,0-1.35,3.57-.05,6l-.54,2.16-1.35-1-1.24-3.68s-10.49.32-11,.86l-1.35.65L116.57,240l-6.76,1.68-2.59.49-2.92,1.35L100.68,245s-3.84-.81-4.59-2.86c0,0-4.65-3.57-3.89,1.84,0,0-.43,6.32-3.19,6.11,0,0-2.27,1.84.76,4.43,0,0,2.22,6.59,4.65,6.7,0,0,2.38,2.76,1.51,3.3,0,0,1.51,1.35,4.16,6.76l4.54.65,1.46,3.46-.27,3.19,4.11,4.76-2.59.32-.76,1.46-2.22-1.46-7.51.16-1.57,1-11.19-3.62-6-3.62-4-1s-5.3,1.35-5.13,2.32l-10.49.86s-1.73,3.35-2.38,3.46-2.38.16-2.38.16L50,279.26l-8.38-3.41,2.81-3.3L43.6,270,30.9,256.29l-1.46-1.78-14.76-3Z"/><path class="cls-2" d="M107.1,287.14l-3.16-2.08-6.68.14-1.8,1.12-12.11-4-5.82-3.51L74.09,278a21.62,21.62,0,0,0-3.63,1.27l.15.87L59.35,281c-1.79,3.3-2.56,3.43-3,3.51-.71.12-2.26.17-2.57.18l-.65,0-3.9-4.3-9.9-4,3.56-4.18-.51-1.49-12.5-13.51-1.19-1.46L14.73,253,8.4,254.75l4.44-7.39-.31-.56L8.23,244l2.15-2.82-1.44-1.09-.67-5.9,5.66-22.94c.19-1.55,3.06-24.82,1.31-33l0-.16-.58-6.2-.42-3.65L9,143.75,6,129.77V115.08l-1.3-2.93,2.19-4.37L7,104.84l6.87-7.76,3.5-5.93,1-17.72,3-9.94h5.15l3.28,3.73,5.59,1.12,4.9,3.48,4.07,5.62,8.26,3.25,8.07,1.2,3.81,3.66,5.63,3.31,4.16-3.41,5.41,4.29,1.31,4.06.21,0L83,92.38V85.92l7.69-1.4,7.15.62L107,90.84l3.44,3.3c3,1.43,6.3,3,6.83,3.11h0c.7.17,2.68,1.62,17.09,13.5l15.31-.84,13.94,2.28,6.17-2,4.12-3.62,5.19,2.78,4.48,6.16,5.46,1.12,1.88-.54,36.91.43,10.75-.71,13.29-3.76,6.59-.32,1.35,1.52,4.77,1.57,9.79,5.25,1.4.35,16.86.29,6,2.81L294.11,131l-.33.18c-1.09.62-4,2.69-4.42,4.8a2.42,2.42,0,0,0,.49,2l4.13,2.29L288.34,145l-3.6.42-.69-.77-.29,3.75,4.45,4L288,155l2.46-.19,8.23,4.77.75,1.61a42.61,42.61,0,0,0,5.17,2.54l.88.1.25.83,1,2.75,1.94.78,1.58,2.14,3.07,1.75,4.3,6.7v.68l7.86,3.45,6.44,1.09.21.11c2.7,1.46,7.09,3.51,8.41,3.51h.79l3.93,6.42-.78,4.9-5.61,2.65-3.57,3.15a21,21,0,0,0-1.16,4.44c.14.57,1,2.74,1.6,4.15l5.83,5.44L337,220.54l-1.32,2.8-4.42-.23-1.85-2.64-10.76,9.33-1,4.68,2.38,4.94-1.29,4.11-2.67,2.38-.19.6,1.1,4-3.42,5.41-1.32,5.58-3.59-.44-3.32,2.66-6.54-1.23v-.31l-8.07,3.28,4.18-13.93.07-3.93-1.35-8.51,6.58-1.26,2.73-1.45.77-.67,1.35-3.13.74-2.58-5.54-6.42-1.18.54-4.9-1.16-1.12.74-1,0-.39.73-4.62.65-4.91-2.52-2.37-2.31-4.87,2.5-1.61.05c-.61,2.82-1.2,5.64-1.29,6.16,0,.34-.17.84-1.89,4.13l-.39.75-7.8.07-1.13-1.37-2.8.58c.85.67,2.06,1.61,3.18,2.45l.87.66-1.75,4.21L255.52,242l-3.23-1.13c-.95.36-2.66,1.19-3.11,2.29l-.24.57-7.51,2.76-1.62-.87-1.2.07-3.48-3.42-3.28-2.12-5.8.77-9.88,3.88-4.46,1.2.53,1.48,2.83,2.16-3.22,7.2-4.14,1.84-1.75.09.27,1.35,1,1.73.5,4.3,2,4.56,1.12,1.45,2.08,3.38-7-1.22-4.6.12-4.35-4-3.32-9.44-.54-4.43-2.6-2.6-1-3.24L178.12,250l-.92-1.73-7.56-.45,3.06-7.54-.1-1.74-1.66-.86.25-1.46-.43-.36-13.17,3.47-1.35-1.23h-2l-.66-2.22-3.71-.87-1.37-1.23-2.37,2.69-3.39,2.18-.18.68,1.54,1-1,1.14a2,2,0,0,0,.2,1.13l.11.27-.07,2.61-1.43,2.87-6.37,4.55-.68-5.15-2.94-2.24-1-3.09a89.82,89.82,0,0,0-9.32.65l-2.27,1.09-3.07-2.61-6,1.5-2.5.47-2.76,1.28-4.08,1.71-.43-.09c-.44-.09-4.17-.95-5.43-3.32a4.71,4.71,0,0,0-1.39-.66,4.2,4.2,0,0,0,0,1.37l0,.15v.15c-.06.81-.43,4.94-2.41,6.65a3.18,3.18,0,0,1-1.5.74.84.84,0,0,0-.1.39,2.57,2.57,0,0,0,1.08,1.6l.3.25.12.37c1,3.09,2.69,5.66,3.37,5.74l.55.06.46.43c1,1.12,2.06,2.67,2,3.9A33.48,33.48,0,0,1,101,270l4.6.66,1.91,4.52-.25,2.94,5.45,6.31-4.48.56Zm-22.43-7.29,10.41,3.37,1.34-.83,8.34-.18L106,283l.38-.72.71-.09-2.77-3.2.29-3.44-1-2.4-4.49-.64-.33-.67c-2.42-4.95-3.84-6.33-3.85-6.34l-1.32-1.26.85-.55a11,11,0,0,0-.85-1.24c-2.54-.78-4.32-5-5.1-7.18a4.79,4.79,0,0,1-1.77-3.54,3.85,3.85,0,0,1,1.34-2.8l.44-.36.56,0s.11,0,.23-.1c.78-.68,1.3-3.06,1.42-4.56-.26-2.07.18-3.45,1.3-4.1,1.82-1.06,4.19.57,4.88,1.1l.33.25.14.38c.29.8,1.92,1.53,3.15,1.87l3.19-1.33,3.2-1.44,2.59-.49,7.38-1.83,2.77,2.36.4-.19c.62-.37,2.52-.78,11.72-1.06l1,0,.18.54a12.16,12.16,0,0,1,.68-3.05l.07-.19.13-.17a2.59,2.59,0,0,1,2.53-1.3,2.15,2.15,0,0,1,1.58,1.58l.31,1.17,5.87-3.78,4-4.55,3,2.66,4.61,1.08.53,1.78h1l1,.93,13.1-3.45,2.81,2.34-.18,1,1.25.65.23,4-1.81,4.46,5.2.31.92,1.73,11.75.71L193,252.4l2.8,2.8.63,5.25,3,8.33,3,2.78,3.73-.1.92.16L205,266.88l-.48-4.13-.94-1.62-1-5,4.52-.23,2.67-1.19,1.86-4.15-1.71-1.3-.88-2.45-5-1.65,11.35-3,10.15-3.95,7-.93,4.5,2.95,2.69,2.64.75,0,1.2.64,5.21-1.91c1.39-2.34,4.65-3.35,5-3.46l.44-.13,3.23,1.13,2.65-.85.41-1c-4.17-3.17-4.17-3.25-4.17-4,0-.34.06-.65.8-1.87l.32-.52,6.36-1.33,1.36,1.65,4.74,0c.55-1.06,1.07-2.12,1.21-2.46.09-.54.4-2.12,1.57-7.51l.26-1.21,1.86.14,1.28,0,3.24-1.66,1-4.39,3.39,4.41,2,1.94,3.73,1.91,2.3-.32.48-.89,1.82-.07,1.48-1,3.11.73-.61-.59,1-4.41,11.77,13.66-1.24,4.31-1.64,3.81-1.65,1.39-3.25,1.72-4.3.83,1,6-.08,4.57-2.59,8.63,2.54-1,3.53-6.77.33,7.31,3,.57,3.24-2.6,2.25.28.84-3.57,3-4.75-1-3.58.68-2.14,2.67-2.38.72-2.3-2.31-4.79,1.35-6.56,7.38-6.4-5.08-.9-5.65-.14-6.7,2-2.65-5.42,3.94-4.12,3.89-2.62,6.23,1,1.44-.8,11,5.27,3,4.21,1.13.06,1-2.1,1.41-.54-3-2.77-.12-.28c-.27-.63-1.61-3.84-1.87-4.94s.59-4.1,1.38-6.32l.12-.35,4.43-3.91,4.62-2.18.38-2.38-2.61-4.26c-2.66-.5-7.3-2.9-8.7-3.64l-6.48-1.14-9.71-4.26v-1.7l-3.48-5.41-3-1.71-1.45-2-2.38-1-1.17-3.29a54.21,54.21,0,0,1-5.64-2.82l-.4-.22-.76-1.64-6.69-3.88-4.89.38.37-4.56-4.49-4.05.22-2,.33-4.75,2.84-2.21,1.69,1.88,1.3-.15,1.86-1.57-1-.58-.17-.21a5.36,5.36,0,0,1-1.23-4.47c.63-3.33,4.28-5.8,5.48-6.54l2.47-4.11-2.63-1.23-16.74-.33-2.06-.56-9.83-5.27-5.15-1.66-1-1.08-5.07.25-13.26,3.75-11,.72h-.05l-36.55-.43-2.15.62-7.22-1.48-4.74-6.52L174.22,110l-3.09,2.72-7.38,2.36-14.31-2.34-16.11.89-.43-.35c-5.75-4.74-15.15-12.41-16.51-13.33-.71-.23-2.43-1-7.42-3.35l-.21-.1L105.12,93l-8.23-5.08-6.11-.53-5,.91v5.36l-3.58,3.18L79,96.29l-1.57-4.88-2.95-2.34-3.92,3.22-7.75-4.59L59.5,84.55l-7.65-1.17-9.18-3.61-4.29-5.91-4-2.86L28.42,69.8l-3.06-3.48H23.59L21.2,74.09l-1,17.9L16.1,98.85,9.8,106l-.13,2.54-1.85,3.7,1,2.26v15.14l3,13.54L17,167.8l.43,3.75L18,177.7c1.87,9-1.17,33-1.3,34l0,.16-5.56,22.53.48,4.19,2.74,2.08-2,2.66,2.34,1.52,1.42,2.61-1.62,2.7.15,0,15.58,3.14L32,255.39l12.85,13.88,1.22,3.59L44,275.28l6.86,2.79,3.45,3.8c.43,0,.89,0,1.23-.08A20,20,0,0,0,57.2,279l.36-.7,10.5-.87c.72-.71,2.31-1.49,5.67-2.35l.35-.09,4.55,1.17ZM95.17,263.3h0Zm41.5-23.51,1.05,8,2-1.4.84-1.67,0-1.41a4.8,4.8,0,0,1-.3-2.11l-1-.62.3-1.12L138,238.29h0l-.7.25A5.78,5.78,0,0,0,136.67,239.79Zm6.43,1.6Zm126.13-12.75a1.36,1.36,0,0,0,0,.18S269.21,228.73,269.22,228.64ZM312.32,218l6.42.17L329.06,220l-1.14-1.63-9-4.31-1,.57-6.1-1L309,215.57,306.75,218l.73,1.5Z"/></svg>