<svg id="Layer_1" data-name="Layer 1" xmlns="http://www.w3.org/2000/svg" viewBox="0 0 350 350"><defs><style>.cls-1{fill:#999;}.cls-2{fill:#f90;}</style></defs><title>M</title><path class="cls-1" d="M173.23,323.4s-6.74-6-9.48-11.12a85.83,85.83,0,0,0-6.1-9.75c-1.09-1.73-2.19-7.11-2.92-8.75s-3.1-7.93-4.46-9.75-1.64-4.74-3.28-4.92-2.19-2.64-3.83-3.55-3.46-3.46-5.92-3.92a33.23,33.23,0,0,1-5.38-1.64,5,5,0,0,0-3.64-.55c-2.1.46-7.38.09-10-.14s-3.92-1-5.47-.59-4.37-.82-6.38-2.28-3.55.09-5.19-1.73-4-2.1-5.56-3.55-1.73-4.19-3.28-4.65-1.73-2.46-4.1-4.46-2.46-2.46-2-7.2,2.92-11.48,2.92-13.94-1.62-8.56-3.13-11.84.06-4.83,0-10.11S83.85,202,82.85,200s.18-7.84-.73-10.2-4.56-4.1-4.37-8.56,2.64-18,2.82-19.77,2.64-10.84,2.55-13.3,1.46-19,1.46-21.32,2.82-12.12,4.56-14.58,5.38-2.92,6-5,1.55-4.65-2.46-6.92S82.12,101.91,82,102.64s-3.28,6.74-9.38,1.82-13.39-12.3-13.39-12.3l-2.82-4.92-2.55-1.46s-7.74-9.57-7.93-10.2-1.46-7.11-3.64-8.84-4-3.37-5.28-9.84-.46-6.29,0-9,3.55-8.84,3.74-9.11,2-1.55,3.1-2.46,3.55-4.1,4.74-5a7.08,7.08,0,0,1,4.19-1.46c1.46,0,8.47-2.46,8.47-2.46a16.44,16.44,0,0,0,8.38-4c2.28-1.82,7.74.27,9.29,0s3.1.73,5,.82,6.29-.73,7.56-.73S94,24.92,95.7,24.65,99.07,23,102.16,23s2.1,1.55,4.83.09,4.56-.68,6.65-.48,2.92,1.29,4.28-.39,6.29-8.43,7.74-9.34,4.74-2.28,6.74-1.82,2.28-.27,5.19-2.55,6.74-3.92,9.2-2.37,2.46,1.82,4.92,2.92,1.91,4,4.28,4.74,1.91,2.1,2.64,3.74,2.55,1.55,3.55,2.55,1.82.27,2.55,2.1-.36,9.84.46,11,2.37,1.55,3.28,4.74,2.28,4.56,4.19,7.74,7,11.75,8.47,14,8.93,12.39,10,13.3,5.83,7.65,8.93,9.66,4,3.19,6.29,4.19,9.84,4.74,10.75,5.19,3.55,3.83,3.74,5.28-2.82,1-2.92,2.73-2.64,2.55-.55,6.92,1.73,11.12,1.82,12.48-.46,10.48-.46,10.48-3.83-.46-4.46.36-2.46,3.55-2.55,4.37-.64,5-2.64,6.29-.18,3.19-.18,3.19l5.65-1.09s4.66,1.28,6.29,4.83,2.82-.09,7.37,6c1.46,1.46,3.46-1.09,8.11,5.65,4.37,3.19,6,6.74,9.11,9.75s1.46,3.19,3.1,7.11c2.37,3.92,4.65,11.3,5,11.48s3.64,2.1,4.83,4.46,3.1,1.09,4.83,4,2.82.36,5.74,4.28,7.11,2,8.29,5,6.47.73,8.84,4.65,3.64-.46,6.29,3.37,7-1.73,8.84,2.55,4.46,2.19,6.29,6,4.37,5.65,5.1,8,1.46,6.83.73,8.56,0,2.37-1.55,3.64c.73,1.37,2.19,2.92.82,3.37s-4.92,4.28-4.83,5.47-2.1-.27-3.74,2.28-1.46,5.1-4.19,5.47-2.37,1.91-4.1,3.37-2.28-.82-3.83,3.1-4.83,5.83-5.38,7.56-.91,4.19-2.37,5-5.92,3.92-6.92,5.28-9,8.56-9.38,8.84-4,1.91-4,1.91-4.65,5.74-7.11,7.2-1,2.92-3.64,4.56-1,2.19-4.19,2.28-5.19,4.56-6.47,4.65-1.18,4.37-3.46,5.28-2.37,6.83-4.37,7.84c1.91,2.55,4.1,5.38,3.28,6s-1.91,2.55-3.37,3.64-.64,1.82-3.64,3.37c-.64,3.46-2,5.56-6.2,5.47-2.82-2.46-2.1-3-4.37-2.46s-7.38,3.92-10,1.18a42.94,42.94,0,0,1-10.48-17.77c-1.55-2-3.83-2.28-7.47-2.64a100.69,100.69,0,0,1-8.66-6s-5.56-4.28-7.74-1.82C174.23,320.4,173.23,323.4,173.23,323.4Z"/><path class="cls-2" d="M225,345.87h-.79l-.39-.34a22.55,22.55,0,0,1-1.9-1.86c-.16-.17-.33-.35-.43-.45a5.85,5.85,0,0,0-.78.15,15.53,15.53,0,0,0-1.89.71c-2.71,1.13-6.81,2.84-9.48.08a44.48,44.48,0,0,1-10.74-18.08c-1.16-1.33-2.93-1.56-6.33-1.9l-.33,0-.28-.18a101.14,101.14,0,0,1-8.79-6.11c-1.71-1.31-4.58-2.74-5.62-2.12-1.66,5.25-2.62,8.12-2.62,8.12l-.68,2-1.61-1.43c-.28-.25-7-6.24-9.78-11.5a73.21,73.21,0,0,0-5.08-8.24c-.37-.51-.67-.94-1-1.42a26.47,26.47,0,0,1-2.06-5.84,31.73,31.73,0,0,0-1-3.09c-.18-.4-.45-1.07-.78-1.88-.91-2.22-2.59-6.35-3.52-7.6a12.35,12.35,0,0,1-1.39-2.65,5.66,5.66,0,0,0-.93-1.72,4.55,4.55,0,0,1-3.06-2.32,4.77,4.77,0,0,0-1.28-1.4,12.77,12.77,0,0,1-2.1-1.61A8.06,8.06,0,0,0,137,273a30.74,30.74,0,0,1-5.14-1.53l-.43-.16a4.84,4.84,0,0,1-.53-.23,3.2,3.2,0,0,0-2.37-.28c-2.27.5-7.52.14-10.45-.11a20.29,20.29,0,0,1-2.81-.47,4.25,4.25,0,0,0-2.13-.18c-2.2.65-5.47-.94-7.61-2.49a2.71,2.71,0,0,0-1.78-.45,4.45,4.45,0,0,1-3.63-1.47A8,8,0,0,0,97.46,264a10.58,10.58,0,0,1-2.83-1.75,8.7,8.7,0,0,1-1.82-2.84c-.24-.53-.65-1.41-.89-1.48a4.8,4.8,0,0,1-2.6-2.34,10.32,10.32,0,0,0-2-2.4c-2.85-2.41-3-3.4-2.5-8.42a58.29,58.29,0,0,1,1.77-8.42,31.42,31.42,0,0,0,1.14-5.38c0-2.27-1.57-8.15-3-11.25a9.27,9.27,0,0,1-.52-6.06,26,26,0,0,0,.39-4.64,10.94,10.94,0,0,0-2.09-6.78,15.19,15.19,0,0,1-.91-1.53c-.67-1.34-.61-3.49-.54-5.76a15.81,15.81,0,0,0-.24-4.57,7.79,7.79,0,0,0-1.41-2c-1.35-1.56-3.2-3.7-3.06-7.18.13-3.21,1.37-10.76,2.19-15.75.32-2,.6-3.63.65-4.11.07-.68.37-2,.9-4.32.67-2.95,1.7-7.41,1.64-8.78s.39-7,.82-12.33c.32-4,.64-8,.64-9,0-2.55,2.85-12.6,4.81-15.39a10.6,10.6,0,0,1,3.74-3c1-.56,1.92-1.08,2.08-1.63l.05-.17c.61-2,1.06-3.45-1.86-5.11s-7.72.87-8.67,1.68a7.45,7.45,0,0,1-3.94,4.09c-1.63.66-4.29.89-7.62-1.8-6.1-4.91-13.44-12.33-13.51-12.41L58,92.87l-2.63-4.59-2.45-1.4-.17-.21c-7.93-9.79-8.1-10.39-8.19-10.71,0-.09-.07-.27-.13-.53-1.3-5.54-2.46-7.13-3-7.59-2.56-2-4.47-4-5.8-10.68-1-5.07-.79-6.33-.32-8.13.11-.41.22-.84.31-1.4.5-3,3.69-9.27,4-9.67a8.11,8.11,0,0,1,1.76-1.51c.54-.41,1.14-.86,1.6-1.25a27.37,27.37,0,0,0,2-2.14,25.17,25.17,0,0,1,2.79-2.9,8.48,8.48,0,0,1,5.06-1.75,58,58,0,0,0,8-2.38l.29-.07a15.11,15.11,0,0,0,7.58-3.62l.1-.09c2-1.62,5.26-1,7.85-.57a11.69,11.69,0,0,0,2.08.28,7.2,7.2,0,0,1,3.28.39,9.16,9.16,0,0,0,2,.42,33.34,33.34,0,0,0,4.54-.42A28.34,28.34,0,0,1,91.5,22a5,5,0,0,1,2.28.7,2.86,2.86,0,0,0,1.69.5,8.36,8.36,0,0,0,1.64-.54,12.7,12.7,0,0,1,5-1.12,6.05,6.05,0,0,1,2.94.63l.21.1a7.92,7.92,0,0,0,1-.47,8.86,8.86,0,0,1,6.28-.8c.39.06.78.12,1.18.16a10.46,10.46,0,0,1,1.81.36c.86.23.86.23,1.24-.23s.86-1.1,1.5-1.93c3.5-4.57,5.48-7,6.6-7.71,1.71-1.07,5.34-2.56,7.81-2,.92.21.94.21,2.55-1.11.41-.33.88-.72,1.45-1.17,4.11-3.21,8.16-4.13,10.83-2.45.8.51,1.35.88,1.81,1.19a14.67,14.67,0,0,0,2.93,1.63,5.82,5.82,0,0,1,2.86,3.15c.48,1,.71,1.36,1.27,1.53a4.19,4.19,0,0,1,3.18,3.47,6.63,6.63,0,0,0,.33,1c.21.46.61.65,1.36,1a5.68,5.68,0,0,1,1.9,1.15,1.23,1.23,0,0,0,.56.3,3.41,3.41,0,0,1,2.3,2.27c.44,1.09.4,3.06.3,6.17a27.67,27.67,0,0,0,.05,4.64,5.34,5.34,0,0,0,.64.64,8.4,8.4,0,0,1,2.79,4.45,16.5,16.5,0,0,0,2.52,5c.47.71,1,1.48,1.53,2.4l1.36,2.28c2.36,3.94,5.92,9.89,7.09,11.72,1.58,2.46,8.77,12.12,9.74,13a23.46,23.46,0,0,1,2.27,2.61c1.84,2.28,4.63,5.72,6.52,6.94,1.3.84,2.22,1.53,3,2.14A14.28,14.28,0,0,0,207,85.58c2.36,1,10.06,4.85,10.81,5.22,1.31.65,4.26,4.4,4.51,6.38.23,1.81-1.47,2.46-2.2,2.74a4.62,4.62,0,0,0-.72.32,4.6,4.6,0,0,1-.76,2c-.56,1-1,1.78.08,4.13,1.89,3.93,1.92,9.38,1.94,12,0,.45,0,.79,0,1,.09,1.42-.4,9.71-.45,10.66l-.09,1.5-1.49-.18a12.08,12.08,0,0,0-3.3,0,20.19,20.19,0,0,0-2.15,3.56c-.18,1.64-.88,5.74-3.28,7.27-.2.13-.28.23-.28.27a.39.39,0,0,0,0,.15l5-1,.32.09c.22.06,5.32,1.5,7.21,5.6.44,1,.59,1,1.3,1.18,1.54.39,3.26,1.06,5.83,4.47a1.88,1.88,0,0,0,.72.15c2,.25,4.17.88,7.37,5.46a30.72,30.72,0,0,1,6,6.21,34.66,34.66,0,0,0,3,3.52c2.13,2.07,2.38,3.12,2.62,4.66a10.71,10.71,0,0,0,.76,2.82,62.92,62.92,0,0,1,4,9c.29.77.61,1.62.79,2,1,.63,3.86,2.47,5.06,4.87.33.66.66.79,1.37,1.08a6.16,6.16,0,0,1,3.41,2.84c.51.86.73.91,1.39,1.07,1.27.31,2.56.79,4.27,3.09a6.4,6.4,0,0,0,4.19,2.36c1.62.4,3.45.85,4.28,3,.24.61,1,.79,2.59,1.05,1.92.32,4.55.75,6.14,3.38.71,1.17.92,1.14,1.65,1,1.34-.18,2.92-.17,4.59,2.25.69,1,1.38,1,3.17.54s4.42-1,5.8,2.26a3.91,3.91,0,0,0,2.52,2.48,6.41,6.41,0,0,1,3.74,3.47,22.86,22.86,0,0,0,2.83,4.33,12.6,12.6,0,0,1,2.35,3.88c.65,2.1,1.66,7.2.68,9.53a4.33,4.33,0,0,0-.3,1.22,4,4,0,0,1-.78,2.08c.65,1,1.31,2.08.91,3.21a2.14,2.14,0,0,1-1.41,1.31,12.85,12.85,0,0,0-3.86,4.14c0,.83-.35,1.79-2.13,2a2,2,0,0,0-1.83,1,13.13,13.13,0,0,0-1.06,2.17c-.69,1.68-1.47,3.58-4.13,3.93a2,2,0,0,0-1.81,1.21,7.87,7.87,0,0,1-1.56,1.84,3.64,3.64,0,0,1-2.41.92,1.36,1.36,0,0,0-.22,0h0a7.38,7.38,0,0,0-.79,1.6,17.77,17.77,0,0,1-3.88,5.62,7.81,7.81,0,0,0-1.46,1.85c-.1.33-.2.68-.3,1-.46,1.71-1,3.83-2.73,4.78s-5.7,3.83-6.48,4.89c-1.16,1.58-9.28,8.84-9.68,9.13a28.31,28.31,0,0,1-4,1.93c-1,1.26-4.89,5.85-7.27,7.26a2.15,2.15,0,0,0-1.13,1.44,5.36,5.36,0,0,1-2.49,3.1,4.22,4.22,0,0,0-1.32,1.15c-.79,1-1.5,1.29-3.58,1.34-1.35,0-2.62,1.48-3.63,2.63a5.62,5.62,0,0,1-2.35,1.94c-.12.26-.28.72-.4,1.05-.5,1.46-1.19,3.46-3.06,4.21-.57.23-1.17,2.1-1.54,3.22a12.94,12.94,0,0,1-1.48,3.46c2.43,3.24,4,5.6,2.26,7a9,9,0,0,0-1,1.09,14.11,14.11,0,0,1-2.44,2.56,2.25,2.25,0,0,0-.66.77,6.26,6.26,0,0,1-2.58,2.4C231.51,342.83,230,345.87,225,345.87Zm-3.42-5.48a3.09,3.09,0,0,1,2.43,1.35c.3.33.7.76,1.29,1.29,2.62-.07,3.68-1.18,4.26-4.31l.13-.68.62-.32c1.51-.78,1.77-1.2,2.07-1.69a5,5,0,0,1,1.37-1.55,11.71,11.71,0,0,0,1.92-2.06c.34-.43.65-.81,1-1.14a32,32,0,0,0-2.79-4.1l-1.3-1.73,1.52-.76c.43-.21,1-2,1.3-2.91.68-2.09,1.38-4.25,3.18-5,.67-.27,1.09-1.5,1.43-2.5.43-1.25.91-2.65,2.27-2.86a10.6,10.6,0,0,0,1-1.08c1.31-1.48,3.1-3.52,5.68-3.59a4.93,4.93,0,0,0,1.35-.13h0s0-.06.07-.12a7,7,0,0,1,2.07-1.81,2.59,2.59,0,0,0,1.32-1.66,4.92,4.92,0,0,1,2.35-2.91c1.84-1.09,5.48-5.33,6.73-6.87L263,293l.31-.14c1.58-.71,3.48-1.6,3.79-1.79.56-.46,8.19-7.35,9-8.51,1.24-1.69,6-4.92,7.37-5.68.65-.37,1.06-1.85,1.38-3.05.11-.4.22-.79.33-1.15a8.46,8.46,0,0,1,2.09-2.93,15,15,0,0,0,3.31-4.73c1-2.5,1.84-3.33,3.52-3.41a.88.88,0,0,0,.71-.26,5.21,5.21,0,0,0,1-1.23,4.72,4.72,0,0,1,3.81-2.46c.94-.13,1.2-.53,1.89-2.2a15.61,15.61,0,0,1,1.3-2.63,4.76,4.76,0,0,1,3.66-2.31c.66-2,3.4-4.73,5-5.71-.12-.21-.27-.45-.39-.64-.22-.34-.43-.69-.61-1l-.54-1,.89-.74a1.34,1.34,0,0,0,.65-1.17,7.12,7.12,0,0,1,.5-1.93c.5-1.19,0-5.13-.78-7.6a10.4,10.4,0,0,0-1.88-3,25.57,25.57,0,0,1-3.15-4.85,3.66,3.66,0,0,0-2.31-2.1,6.62,6.62,0,0,1-4-4c-.41-1-.68-1-2.57-.6-1.71.39-4.29,1-6.13-1.7-.82-1.19-1.13-1.15-1.88-1.05-1.41.19-2.91.15-4.45-2.39-.91-1.51-2.43-1.76-4.18-2s-3.91-.64-4.76-2.81c-.28-.7-.83-.89-2.33-1.26a9.16,9.16,0,0,1-5.78-3.42c-1.25-1.67-1.94-1.85-2.68-2a4.4,4.4,0,0,1-3.15-2.38,3.39,3.39,0,0,0-2-1.66,4.71,4.71,0,0,1-2.85-2.44c-.92-1.85-3.72-3.59-4.2-3.83s-.76-.66-1.77-3.33a60,60,0,0,0-3.82-8.68l-.09-.19a13.55,13.55,0,0,1-1-3.59c-.16-1.09-.23-1.54-1.79-3.05a37.29,37.29,0,0,1-3.29-3.8,28.07,28.07,0,0,0-5.67-5.82l-.2-.14-.14-.2c-2.83-4.11-4.39-4.31-5.53-4.45a3.74,3.74,0,0,1-2.42-1l-.13-.15c-2.24-3-3.4-3.29-4.34-3.53a4.12,4.12,0,0,1-3.18-2.74c-1.12-2.44-4.14-3.63-5.09-4l-6.06,1.17-.53-.56a4.11,4.11,0,0,1-1.13-3,3.17,3.17,0,0,1,1.58-2.32c1-.66,1.76-3.19,2-5.25.17-1.52,2.81-5.05,2.84-5.09.25-.32.94-1.21,4.25-1,.2-3.47.42-8,.37-8.85,0-.24,0-.65,0-1.17,0-2.41-.05-7.43-1.66-10.79-1.78-3.71-.69-5.56,0-6.78a2.51,2.51,0,0,0,.38-.83c.09-1.81,1.68-2.41,2.53-2.74l.29-.11a13.25,13.25,0,0,0-2.88-3.84c-1.11-.56-8.49-4.19-10.66-5.15a16.91,16.91,0,0,1-3.63-2.28c-.77-.58-1.63-1.24-2.85-2-2.27-1.47-5.11-5-7.18-7.53-.76-.94-1.63-2-1.88-2.22-1.35-1.13-9-11.66-10.31-13.63s-4.77-7.84-7.13-11.79l-1.36-2.27c-.53-.88-1-1.62-1.46-2.3a19.23,19.23,0,0,1-2.87-5.78,5.63,5.63,0,0,0-2-3.12A6.82,6.82,0,0,1,164,34c-.62-.9-.63-2.52-.51-6.28a25,25,0,0,0-.1-5c-.2-.51-.23-.52-.6-.64a3.94,3.94,0,0,1-1.64-1,3.58,3.58,0,0,0-1-.55,4.76,4.76,0,0,1-2.83-2.42,9.16,9.16,0,0,1-.49-1.49c-.25-1-.3-1.17-1.28-1.47a5,5,0,0,1-3-3c-.46-.94-.75-1.48-1.46-1.8a17.26,17.26,0,0,1-3.38-1.88c-.43-.29-1-.65-1.72-1.13-1.78-1.12-5.09.34-7.57,2.29-.55.43-1,.81-1.4,1.13-1.73,1.43-2.69,2.21-5,1.69-1.38-.31-4.24.74-5.68,1.64-.89.55-4.36,5.09-5.85,7-.66.86-1.21,1.58-1.55,2a3.44,3.44,0,0,1-4.18,1.18,7.81,7.81,0,0,0-1.34-.28c-.46,0-.9-.11-1.34-.18a6.16,6.16,0,0,0-4.5.5c-1.89,1-2.7.94-3.79.42a3.3,3.3,0,0,0-1.71-.35,10,10,0,0,0-4,.92,10.47,10.47,0,0,1-2.25.7,5.42,5.42,0,0,1-3.41-.77,3.33,3.33,0,0,0-1-.4c-.43,0-1.52.14-2.58.28a33.79,33.79,0,0,1-5.05.44,11.65,11.65,0,0,1-2.68-.52,5,5,0,0,0-2-.32,10,10,0,0,1-3.08-.28c-1.79-.32-4.48-.81-5.53,0a17.79,17.79,0,0,1-9,4.32c-1.84.64-7.27,2.5-8.81,2.5a5.66,5.66,0,0,0-3.33,1.16A26.4,26.4,0,0,0,47.07,35a25.82,25.82,0,0,1-2.31,2.45c-.49.41-1.13.9-1.71,1.33-.41.31-.95.72-1.16.9-.47.86-3.1,6.22-3.47,8.48-.11.68-.25,1.19-.36,1.65-.34,1.31-.57,2.18.36,6.87,1.22,6.19,2.87,7.49,4.77,9,2.07,1.64,3.29,6,4,9.16l.06.27c.57.9,4.18,5.48,7.53,9.62l2.65,1.52,2.92,5.09c1,1,7.61,7.6,13.15,12.06,1.7,1.37,3.22,1.87,4.51,1.47a4.66,4.66,0,0,0,2.59-2.46c.07-.42.34-1.26,2.87-2.53,1.39-.7,6.21-2.8,9.88-.72,4.89,2.78,3.81,6.3,3.17,8.4l-.05.17c-.5,1.63-2,2.47-3.4,3.27a8.32,8.32,0,0,0-2.81,2.14c-1.58,2.25-4.3,11.75-4.3,13.76,0,1.12-.3,4.89-.65,9.27-.38,4.78-.86,10.73-.81,12,.06,1.62-.71,5.12-1.71,9.52-.4,1.77-.79,3.44-.84,4s-.31,2.12-.67,4.28c-.76,4.63-2,12.37-2.15,15.41-.1,2.36,1.1,3.74,2.37,5.2a9.77,9.77,0,0,1,1.91,2.79c.55,1.43.49,3.49.43,5.67,0,1.65-.11,3.71.25,4.41a12.82,12.82,0,0,0,.75,1.24A13.71,13.71,0,0,1,87.42,209a28.68,28.68,0,0,1-.42,5.1c-.28,1.83-.44,2.84.29,4.43,1.62,3.5,3.26,9.78,3.26,12.44a30.07,30.07,0,0,1-1.23,6.1,56.36,56.36,0,0,0-1.69,8c-.42,4.35-.42,4.35,1.51,6a13.07,13.07,0,0,1,2.55,3c.47.72.73,1.09,1,1.18,1.47.43,2.11,1.8,2.66,3a6.53,6.53,0,0,0,1.19,2,8.35,8.35,0,0,0,2.11,1.26,10.52,10.52,0,0,1,3.53,2.38c.44.49.73.52,1.59.54a5.44,5.44,0,0,1,3.38,1c2.09,1.52,4.35,2.29,5.14,2.06a6.7,6.7,0,0,1,3.55.13,17.71,17.71,0,0,0,2.44.41c4.64.4,8.22.46,9.6.16a5.93,5.93,0,0,1,4.19.49l.21.09.53.19a28.16,28.16,0,0,0,4.65,1.4,10.39,10.39,0,0,1,4.75,2.81,11,11,0,0,0,1.61,1.26,7,7,0,0,1,2.2,2.22c.36.5.81,1.13,1.09,1.16,1.84.2,2.57,1.92,3.21,3.43a10.13,10.13,0,0,0,1.05,2.05c1.06,1.42,2.44,4.7,3.88,8.23.32.78.58,1.42.75,1.8a30.53,30.53,0,0,1,1.1,3.48,27.86,27.86,0,0,0,1.72,5.08c.27.43.55.82.88,1.29A75.6,75.6,0,0,1,165,311.6c1.79,3.35,5.47,7.18,7.58,9.24.47-1.43,1.16-3.57,2-6.34l.09-.29.2-.23c3-3.35,9,1.12,9.67,1.64a99.41,99.41,0,0,0,8.27,5.76c3.47.35,6.22.69,8.12,3.15l.17.22.07.27a41.46,41.46,0,0,0,10.13,17.16c1.32,1.37,4.23.16,6.35-.73a16.7,16.7,0,0,1,2.32-.85A6.71,6.71,0,0,1,221.53,340.39Zm20.6-28.91Zm12.09-124.83.09,0Zm-171-83.28Zm.22-.52v0Zm0,0h0Zm-2.8-.41v0ZM47.23,75Z"/></svg>