<svg id="Layer_1" data-name="Layer 1" xmlns="http://www.w3.org/2000/svg" viewBox="0 0 350 350"><defs><style>.cls-1{fill:#999;}.cls-2{fill:#f90;}</style></defs><title>M</title><path class="cls-1" d="M301.48,222.72a1.49,1.49,0,0,0-.25-1.28,19.27,19.27,0,0,1-3.24-13.8,1.59,1.59,0,0,0-.07-.75V205.6a1.77,1.77,0,0,0-1.58-1.73,60.19,60.19,0,0,1-9.14-6.79l0,0c-.93-2.77-3.25-4.56-5.91-5.8s-6.59-1.94-8.54-4.36a1.42,1.42,0,0,0,.48-2.2,34.71,34.71,0,0,1-3.67-6,60.11,60.11,0,0,0-2.82-9.33c-.1-.72-.19-1.45-.25-2.18a1.74,1.74,0,0,0-1.31-1.59c-3.45-7.94-7.74-15.63-10.28-24-2.29-7.56-2.34-15.55-7.06-22.2-5.59-7.88-10.84-14.21-13.59-23.68a1.8,1.8,0,0,0,.12-.6c.24-8.2,3.43-16.19,5.77-24a1.74,1.74,0,0,0-2.94-1.64,1.51,1.51,0,0,0-.74-.9,165.4,165.4,0,0,1-14.65-8.19,56.58,56.58,0,0,0-6.89-6.1c-5.68-4.18-11.35-5.67-18.26-6.08a28.93,28.93,0,0,1-6-.67c-3.07-.85-3.93-2.74-5.84-4.94-1.42-1.63-2.46-3-4.65-3.68-6.19-2-11.49,2.68-15.48,6.73l-.05.06-16.45-1.55c-6.19-.58-13.23.11-17-5.75-1.87-2.95-3-6.33-5.36-8.94a25.15,25.15,0,0,0-5-3.77l-1.76-3.85c-1-2.1-2-4.29-4.15-5.42a6.85,6.85,0,0,0-6.33,0c-1.66-1.16-3.51-3.55-4.18-4a7.84,7.84,0,0,0-4.32-1.38c-5.91-.4-10.85-.15-16.49-2.5A1.74,1.74,0,0,0,81.49,9.8a28.24,28.24,0,0,0,1.58,15.92,43.2,43.2,0,0,1-14.32.72c-1.69-.19-2.41,2.54-.88,3.24q1.48.64,2.89,1.41,5.48,2.25-.76,7.35c-.86.17-2.23-.45-3.1-.53a8.19,8.19,0,0,0-3.24.25,1.46,1.46,0,0,0-1.2-.39c-10.2.9-15.58,9.12-14.73,18.88,1.38,15.77,4,31.53,6,47.24a1.8,1.8,0,0,0,1.74,1.74c12.94.77,20,9,25.3,19.95,2,4.06,4.11,7.93,7.63,10.83,4.06,3.34,9.12,5,13.65,7.5,4.91,2.75,10,7.05,11.42,12.73,1.13,4.36-1.54,9.05.14,13.26,1.76,4.38,7.08,5.13,7.21,10.64.18,7.68-7.47,11.69-13.86,13.56-1.83.54-1.55,3.5.46,3.41,3.39-.15,6.77-.2,10.16-.07,5.31.21,11,.81,11.28,7.44.21,5.65-3.23,11-2.11,16.67.6,3,2.49,6.2,5.43,7.45,2,.85,3.27.29,5.28.23,2.18-.07,5,.19,6.78,2,1.62,1.63.9,6.6.69,8.85a1.75,1.75,0,0,0,2.62,1.5,14.73,14.73,0,0,0,5.73-6.63c2.56.25,3,2.66,2.6,4.86a1.93,1.93,0,0,0-.33.25,50.14,50.14,0,0,1-9,6.68,1.61,1.61,0,0,0-.71,2.06,4.45,4.45,0,0,0-.33.36c-3.09,4,0,9.23,1.59,13.12L155,281.05c.9,2.15,1.8,4.63-.41,6.56-1,.88-4,1.42-5.35,1.91l-11.78,4.2a1.71,1.71,0,0,0-1,.89,1.68,1.68,0,0,0-.69,2.82,15,15,0,0,1,3.51,4.21c1.15,2.19.51,3.14.76,5.26a6,6,0,0,0,.86,2.62c1.77,3.15,3.16,5.26,3.5,9.05.22,2.47.2,5,.64,7.4,2.16,11.94,13,10.33,21.56,15.29a1.69,1.69,0,0,0,2.49-1c19.75-7.79,40.4-14.56,59.58-23.69,15.14-7.21,18.1-24.93,31.35-33.86a1.85,1.85,0,0,0,1.29-2.06A52.11,52.11,0,0,1,265.17,251a1.5,1.5,0,0,0,1.34-.87c4.78-9.06,18.36-14,27.31-17.89l.1-.06A6,6,0,0,0,300.6,231C302.8,228.81,302.75,225.39,301.48,222.72Z"/><path class="cls-2" d="M167.47,342.92a3.13,3.13,0,0,1-1.58-.44,39.23,39.23,0,0,0-8-3.19c-6.2-2-12.62-4-14.26-13.07a40.68,40.68,0,0,1-.49-5c0-.84-.09-1.67-.17-2.5-.28-3.13-1.35-5-2.83-7.61l-.49-.87a7.43,7.43,0,0,1-1-3.15,13.31,13.31,0,0,1-.06-2,4.55,4.55,0,0,0-.55-2.74,13.64,13.64,0,0,0-3.22-3.83,2.94,2.94,0,0,1-.94-2.74,3.35,3.35,0,0,1,1.59-2.19,3.14,3.14,0,0,1,1.53-1.14l11.78-4.2c.47-.17,1.06-.33,1.7-.5a12.55,12.55,0,0,0,3.2-1.14c1.31-1.15,1.06-2.51,0-4.95l-7.89-18.76c-.2-.47-.42-1-.65-1.48-1.66-3.73-3.93-8.83-.84-12.94a3,3,0,0,1,1.53-2.9,49,49,0,0,0,8.67-6.46,3.3,3.3,0,0,0-.38-2.2,1.1,1.1,0,0,0-.16-.17,16.12,16.12,0,0,1-5.7,6.09,3.15,3.15,0,0,1-3.32,0,3,3,0,0,1-1.48-2.8l.08-.79c.17-1.63.61-5.95-.37-6.93-1.16-1.16-3-1.68-5.73-1.6-.52,0-1,.07-1.43.12a7.89,7.89,0,0,1-4.44-.46c-3.7-1.58-5.66-5.42-6.27-8.48-.69-3.49.15-6.75,1-9.9a24.69,24.69,0,0,0,1.12-7c-.18-4.81-3.48-5.82-9.92-6.08-3-.12-6.29-.1-10,.07a3,3,0,0,1-3.12-2.56,3.16,3.16,0,0,1,2.2-3.63c4.87-1.42,13-4.9,12.84-12.16-.06-2.57-1.47-3.81-3.27-5.38a12.64,12.64,0,0,1-3.84-4.76c-1-2.59-.67-5.21-.3-7.75a14.7,14.7,0,0,0,.11-5.69c-1.53-5.94-7.39-10-10.74-11.85-1.53-.85-3.17-1.62-4.75-2.37a41.89,41.89,0,0,1-9.11-5.27c-3.89-3.21-6.17-7.52-8-11.31-6.19-12.78-13.4-18.51-24.1-19.15a3.19,3.19,0,0,1-3.06-3c-.66-5.19-1.4-10.47-2.11-15.58-1.45-10.38-3-21.12-3.88-31.71-1-11.1,5.62-19.49,16-20.42a3,3,0,0,1,1.58.27A10.2,10.2,0,0,1,67,36.49a8.37,8.37,0,0,1,1.41.3,9.94,9.94,0,0,0,1,.24C71.87,35,71.94,34,71.9,33.71c-.06-.42-.67-.9-1.68-1.31l-.14-.07c-.9-.49-1.84-.94-2.77-1.35a3,3,0,0,1-1.57-3.65A3,3,0,0,1,68.9,25a42.28,42.28,0,0,0,12.26-.38,29.76,29.76,0,0,1-1.07-15.1,3,3,0,0,1,1.58-2.07,2.89,2.89,0,0,1,2.5-.2c4.33,1.81,8.21,2,12.71,2.21,1.08.05,2.19.11,3.33.18a9.27,9.27,0,0,1,5,1.61,10.09,10.09,0,0,1,1.55,1.48,27.75,27.75,0,0,0,2.07,2.06,8.18,8.18,0,0,1,6.79.4c2.62,1.39,3.81,4,4.77,6.08l1.38,3,.2.45a24.47,24.47,0,0,1,4.93,3.78,25.08,25.08,0,0,1,3.71,5.86c.59,1.15,1.14,2.24,1.8,3.28,2.72,4.29,7.59,4.58,12.74,4.88,1.06.06,2.12.12,3.15.22l15.77,1.48c3.19-3.22,9.3-9,16.52-6.67a10.64,10.64,0,0,1,5,3.8l.26.3c.41.48.78.94,1.13,1.38,1.22,1.55,2,2.57,4,3.12a22.23,22.23,0,0,0,4.72.57l1,.05c7.91.46,13.6,2.36,19,6.35a57.63,57.63,0,0,1,6.94,6.13c4.73,3,9.57,5.66,14.38,8a2.68,2.68,0,0,1,.54.35,3.29,3.29,0,0,1,2.5.36,3,3,0,0,1,1.37,3.51c-.48,1.61-1,3.24-1.53,4.87-2,6.12-4,12.44-4.18,18.75a3.11,3.11,0,0,1-.06.55c2.31,7.7,6.31,13.22,10.93,19.61.77,1.06,1.55,2.15,2.34,3.26,3.38,4.76,4.48,10.16,5.55,15.38.49,2.39,1,4.86,1.71,7.22A120.7,120.7,0,0,0,263,157.47c1.09,2.31,2.21,4.68,3.26,7.06a3.13,3.13,0,0,1,1.65,2.56c0,.59.12,1.23.21,1.93a61.12,61.12,0,0,1,2.79,9.23,33.5,33.5,0,0,0,3.44,5.6,2.86,2.86,0,0,1,.58,2.29,2.73,2.73,0,0,1-.24.69,17,17,0,0,0,4.49,2.09c.91.33,1.85.66,2.7,1.05,3.33,1.55,5.52,3.65,6.52,6.26a59.13,59.13,0,0,0,8.45,6.27,3.19,3.19,0,0,1,2.51,3.09v1.08a3.08,3.08,0,0,1,.05,1.15,17.89,17.89,0,0,0,3,12.82,3,3,0,0,1,.54,1.89c1.49,3.48,1,7.16-1.34,9.49a7.45,7.45,0,0,1-7.66,1.76l-2.36,1c-8.34,3.52-19.75,8.35-23.83,16.06a3,3,0,0,1-1.58,1.44,50.88,50.88,0,0,0-3.46,28.11,3.26,3.26,0,0,1-2,3.55c-5.75,3.92-9.44,9.51-13.35,15.43-4.66,7.06-9.48,14.36-18.05,18.44-13.13,6.25-27.12,11.46-40.64,16.5-6.1,2.27-12.39,4.62-18.5,7a3.27,3.27,0,0,1-1.63,1.39A2.92,2.92,0,0,1,167.47,342.92ZM152.38,233.45l1,.1a4.17,4.17,0,0,1,3,1.58,6.41,6.41,0,0,1,.86,4.92l-.11.64-.56.34-.1.07a51.86,51.86,0,0,1-9.2,6.86c-.11.06-.19.11-.1.33l.33.85-.64.65a3.14,3.14,0,0,0-.23.25c-2.18,2.79-.43,6.71,1.11,10.16.24.53.47,1,.67,1.54l7.89,18.76c.8,1.91,2.3,5.47-.78,8.17-.88.77-2.35,1.21-4.33,1.75-.57.16-1.1.3-1.49.43L138,295.06a.31.31,0,0,0-.2.16l-.24.51-.53.2a.51.51,0,0,0-.32.34.32.32,0,0,0,.09.11,16.42,16.42,0,0,1,3.8,4.59,7.29,7.29,0,0,1,.87,4.14,10.61,10.61,0,0,0,0,1.62,4.63,4.63,0,0,0,.69,2.08l.49.86c1.59,2.81,2.85,5,3.19,8.76.08.86.13,1.73.17,2.6a37.93,37.93,0,0,0,.45,4.68c1.34,7.4,6.19,8.94,12.33,10.88a41.42,41.42,0,0,1,8.55,3.44c.13.07.17.06.19,0a.51.51,0,0,0,.25-.3l.21-.63.61-.24c6.3-2.48,12.79-4.9,19.07-7.25,13.47-5,27.4-10.21,40.41-16.41,7.86-3.74,12.25-10.4,16.91-17.45,3.92-5.93,8-12.07,14.26-16.31l.32-.16a.45.45,0,0,0,.35-.5,53.71,53.71,0,0,1,4-30.36l.37-.83h.91s.06,0,.1-.11c4.55-8.61,16.5-13.66,25.23-17.35l2.7-1.15.08,0,.62-.32.63.3a4.54,4.54,0,0,0,5.08-.93c1.89-1.9,1.51-4.79.6-6.69l-.23-.48.15-.51a.41.41,0,0,0-.05-.1,20.65,20.65,0,0,1-3.47-14.79l-.08-.23V205.6a.37.37,0,0,0-.25-.31l-.35,0-.3-.18a62,62,0,0,1-9.29-6.89l-.37-.32-.12-.37c-.68-2-2.37-3.67-5.16-5-.72-.34-1.57-.64-2.46-1-2.32-.83-5-1.77-6.59-3.79l-1-1.28,1.42-.83.1-.08,0,0a36.27,36.27,0,0,1-3.81-6.24l-.11-.32a58.38,58.38,0,0,0-2.75-9.11l-.08-.31c-.12-.83-.2-1.58-.26-2.28a.33.33,0,0,0-.28-.33l-.65-.18-.27-.62c-1.09-2.51-2.29-5-3.45-7.5A122.87,122.87,0,0,1,253.52,142c-.75-2.49-1.27-5-1.77-7.48-1.06-5.16-2.05-10-5.08-14.31-.78-1.1-1.56-2.18-2.32-3.23-4.65-6.43-9-12.5-11.47-20.87l-.13-.46.17-.44a.41.41,0,0,0,0-.14c.2-6.71,2.29-13.23,4.31-19.53.52-1.61,1-3.22,1.51-4.82,0-.11,0-.17-.09-.25a.41.41,0,0,0-.47,0l-1.62,1.66-.74-2.2a.32.32,0,0,0-.05-.11A166.21,166.21,0,0,1,221,61.63l-.26-.21a55.13,55.13,0,0,0-6.71-6c-4.95-3.64-10.18-5.38-17.5-5.8l-1-.05a24.27,24.27,0,0,1-5.34-.67c-2.87-.8-4.14-2.4-5.48-4.09-.32-.41-.66-.84-1-1.29l-.26-.31c-1.25-1.45-2.08-2.41-3.75-2.95-5.15-1.67-9.76,2-14,6.32l-.08.09-.48.51L148,45.62c-1-.09-2-.15-3-.21-5.37-.32-11.47-.67-15-6.19-.73-1.15-1.34-2.35-1.93-3.51a22.58,22.58,0,0,0-3.27-5.23,22.35,22.35,0,0,0-4.42-3.34l-.66-.42-.55-1.21-1.38-3c-1-2.16-1.88-3.89-3.52-4.76a5.44,5.44,0,0,0-5,0l-.75.38-.69-.48a21.73,21.73,0,0,1-3.12-2.92c-.37-.4-.88-.94-1-1.06A6.42,6.42,0,0,0,100,12.5c-1.12-.08-2.21-.13-3.28-.18-4.56-.22-8.87-.43-13.66-2.43,0,0-.17.14-.22.22a27,27,0,0,0,1.52,15.08L85,26.74l-1.63.36a44.81,44.81,0,0,1-14.78.75.64.64,0,0,0-.12.26.49.49,0,0,0,0,.29c1,.41,1.94.89,2.9,1.4,2,.83,3.11,2,3.33,3.49.28,1.88-1,3.92-3.81,6.24l-.27.22-.35.07a5.76,5.76,0,0,1-2.58-.3,6.14,6.14,0,0,0-3.61,0l-.81.25-.6-.59h-.09C53.71,40,48.3,46.93,49.14,56.52,50.06,67,51.56,77.74,53,88.08c.72,5.12,1.46,10.42,2.12,15.62.06.48.23.49.42.5,15,.89,22,11.56,26.49,20.74,1.7,3.52,3.81,7.51,7.26,10.36a39.15,39.15,0,0,0,8.51,4.89c1.63.77,3.31,1.56,4.93,2.46,3.75,2.1,10.3,6.65,12.1,13.61a17,17,0,0,1,0,6.8c-.32,2.26-.63,4.4.13,6.29A10.12,10.12,0,0,0,118,173c1.94,1.7,4.15,3.63,4.23,7.44.16,6.79-5.13,12.1-14.88,14.95-.25.07-.2.43-.2.44,0,.2.1.2.2.19,3.83-.17,7.19-.19,10.28-.07,4.31.17,12.33.49,12.64,8.8a27.19,27.19,0,0,1-1.21,7.81c-.77,3-1.49,5.79-.93,8.65.44,2.25,1.91,5.28,4.6,6.42a5.19,5.19,0,0,0,3,.25c.49-.05,1-.12,1.66-.14,3.53-.11,6.08.69,7.83,2.44s1.56,5.54,1.18,9.22l-.08.76a.44.44,0,0,0,.21.15.36.36,0,0,0,.23,0,13.39,13.39,0,0,0,5.21-6Z"/></svg>