<svg id="Layer_1" data-name="Layer 1" xmlns="http://www.w3.org/2000/svg" viewBox="0 0 350 350"><defs><style>.cls-1{fill:#999;}.cls-2{fill:#f90;}</style></defs><title>M</title><polygon class="cls-1" points="194.76 313.52 194.76 322.73 194.76 326.57 201.28 326.57 213.95 322.35 216.63 322.35 224.69 326.57 233.9 334.63 238.51 338.47 247.72 342.3 251.94 342.3 251.94 343.45 259.61 341.15 270.74 335.4 273.04 338.85 278.03 338.85 284.55 337.7 292.23 335.01 297.6 335.01 306.81 331.18 313.72 334.63 323.69 334.25 328.68 335.4 330.6 330.79 327.53 328.49 330.6 322.73 328.3 317.75 330.6 311.22 325.23 303.16 322.93 297.78 320.24 295.87 316.79 295.87 319.09 289.73 314.87 285.51 311.03 271.31 304.89 262.49 300.29 258.65 287.62 278.61 288.39 284.75 286.86 287.05 282.25 286.66 279.95 285.51 278.03 287.81 272.27 279.76 271.12 274 267.67 269.4 260.38 262.11 259.23 258.65 253.47 252.9 250.4 245.6 243.5 241 243.11 235.25 243.88 230.26 239.66 221.05 237.74 216.06 238.12 210.69 239.66 205.31 245.8 205.31 246.56 200.98 250.4 198.02 256.16 206.85 262.68 208 267.29 220.28 268.05 209.92 266.9 203.78 262.68 198.02 262.68 194.57 268.05 188.43 271.51 186.13 274.58 182.67 273.81 176.15 270.74 165.41 270.74 160.03 270.74 154.28 276.11 142.77 273.04 137.78 268.82 137.78 268.05 133.94 269.97 127.8 269.97 123.97 269.2 118.98 268.44 116.29 265.37 112.84 262.68 115.52 260.76 115.52 258.84 112.84 258.08 108.62 276.5 63.72 291.08 49.14 292.23 42.23 291.08 36.48 290.31 32.26 295.3 22.66 291.84 14.6 288.39 16.91 286.09 16.91 284.94 19.98 277.65 23.05 268.44 22.66 264.6 29.95 262.68 33.02 254.62 41.85 255.39 29.95 256.93 28.03 255.39 23.05 253.85 19.98 250.78 16.52 249.63 12.3 246.18 12.3 242.34 9.23 239.66 6.55 237.74 6.55 237.74 12.69 233.9 17.29 235.82 26.5 230.45 26.88 228.15 39.55 227.38 44.92 229.68 54.9 228.91 57.2 223.16 59.88 216.63 60.65 213.95 54.13 204.35 54.13 202.44 61.42 197.83 66.41 194.76 52.98 194.76 38.4 186.32 34.94 181.72 36.86 173.27 18.06 168.39 24.58 165.98 29.95 160.23 26.88 155.24 27.27 150.63 29.95 144.49 27.65 140.66 25.73 140.66 20.36 140.66 13.07 136.82 10.38 132.6 9.62 127.99 11.92 124.92 17.29 124.92 23.81 124.92 35.71 127.61 57.96 134.9 76 134.9 80.22 130.3 83.67 131.45 92.5 131.06 108.62 129.91 112.45 131.06 120.13 132.98 129.72 132.22 135.86 129.53 138.55 124.92 138.55 124.92 143.15 124.92 151.21 130.3 158.5 131.06 165.02 131.06 170.4 130.3 178.84 130.3 183.06 128.76 186.13 130.3 192.65 128.76 196.49 124.92 200.98 122.62 203.01 119.55 206.08 114.18 208 105.74 183.06 101.9 180.37 94.23 182.29 87.32 183.83 83.87 183.83 83.87 180.76 80.03 185.74 77.73 188.05 77.73 191.88 77.73 198.41 79.64 203.01 75.81 204.93 72.74 204.93 70.82 217.59 74.27 220.66 77.73 216.06 80.8 215.29 90.39 227.57 70.82 251.36 63.53 254.05 42.81 259.04 42.81 262.49 32.45 272.08 25.92 277.45 19.4 292.8 19.4 297.78 19.4 315.83 30.14 310.84 37.82 307.77 45.11 308.15 55.09 312.37 65.83 315.83 83.48 317.36 97.68 311.61 109.19 297.78 113.8 283.98 131.45 281.29 140.66 286.28 149.1 284.75 154.09 277.84 162.15 281.29 168.39 287.05 178.65 297.78 185.55 303.16 194.76 313.52"/><path class="cls-2" d="M250.52,345.36v-1.64h-3.09l-9.67-4-4.77-4-9.11-8-7.6-4h-2.11L201.52,328h-8.17V314.06l-8.77-9.86-7-5.44L167.36,288l-6-5.53-6.79-2.91L149.91,286l-9.49,1.73-9.23-5-16.32,2.48-4.42,13.23-11.91,14.3-14.84,6-18.3-1.63-10.86-3.5-9.75-4.12-6.73-.35-7.38,3L18,318V292.51l6.77-15.93L31.55,271l9.84-9.12v-4l21.73-5.23L70,250.16l18.6-22.62-8.33-10.66-1.69.42-4.08,5.43-5.18-4.6,2.22-14.63h4l2.35-1.18-1.52-3.64V187.46L79,184.81l6.32-8.22v5.82h1.88l6.75-1.5,8.27-2.07,4.75,3.32,8.13,24,3.72-1.33,2.84-2.84,2.29-2,3.62-4.24,1.28-3.2L127.26,186l1.61-3.23v-4l.76-8.38v-5.22l-.71-6.07-5.43-7.36V137.13h5.44l1.93-1.93.68-5.43-1.87-9.37-1.21-8.06,1.19-4L130,92.57,128.78,83l4.7-3.52V76.27L126.2,58.13l-2.7-22.43V16.91L127,10.84l5.41-2.71,5,.91,4.7,3.29V24.86l3,1.49,5.44,2,4.3-2.51,5.72-.44L165.31,28l1.94-4.26,6.33-8.45L182.44,35l3.87-1.61,9.86,4V52.82l2.44,10.65,2.54-2.75,2.11-8H214.9l2.64,6.41,5.23-.61,5-2.33.45-1.35L225.94,45l.8-5.63,2.51-13.8,4.85-.35-1.73-8.29,3.95-4.74v-7h3.92l3,3,3.39,2.71h4l1.35,4.95,3.06,3.51,1.62,3.29,1.76,5.71-1.72,2.16-.48,7.42,5.25-5.75,1.82-2.92,4.23-8,9.79.41,6.44-2.71,1.28-3.42H288l4.51-3,4.39,10.24-5.07,9.76.68,3.74,1.2,6-1.27,7.61-14.7,14.7-18.15,44.25.64,3.5,1.31,1.83h.6l3.33-3.33,4.28,4.82.89,3.17.78,5.2V128l-1.88,6,.47,2.34h3.85l3.89,6.31-5.56,11.92v10.62L275.22,176l.84,7.15-3.77,4.17-3.3,2.2-4.9,5.6v2.46l4.14,5.64,1.24,6.64-1.26,17-6.58-17.56-6.33-1.12-5.25-8.06-2.19,1.69-.88,5h-6.26l-1.2,4.2-.35,4.91,1.81,4.69,4.36,9.51-.81,5.25.33,4.9,6.68,4.45,3.13,7.43,5.8,5.8,1.15,3.45,7.19,7.21,3.65,4.86,1.15,5.77,4.51,6.32,1.46-1.75,3.06,1.53,3.5.29.78-1.17-.77-6.12L300,256.53l6,5,6.39,9.18,3.8,14.07,4.6,4.6-1.9,5.08h1.86l3.38,2.4,2.41,5.63,5.69,8.54-2.35,6.65,2.36,5.1-2.83,5.31,3,2.23-2.8,6.73-6-1.38-10.15.39-6.65-3.33-8.87,3.7h-5.42l-7.67,2.66L278,340.27h-5.75l-2-3L260,342.51ZM248,340.89h5.35v.66l5.72-1.72,12.14-6.28,2.59,3.88h4.11l6.29-1.11L292,333.6h5.33l9.55-4L314,333.2l9.8-.38,4,.92,1-2.48-3.16-2.37,3.31-6.21-2.25-4.87,2.26-6.4-5.1-7.7-2.15-5-2-1.42h-5l2.7-7.2-3.84-3.84-3.87-14.33-5.89-8.47-3.22-2.68-11.53,18.16.77,6.16-2.29,3.44-5.71-.48-1.54-.77-2.37,2.85-7-9.8-1.15-5.74-3.2-4.27-7.46-7.46L258,259.42l-5.72-5.72-3-7.15-7.13-4.76-.44-6.61.73-4.72-4-8.82-2.07-5.36.46-6,1.83-6.4h6l.66-3.7,5.49-4.23,6.26,9.6,6.71,1.18,2.62,7,.28-3.75-1.06-5.64-4.31-5.87V194l6-6.79,3.3-2.2,2.53-2.84-.68-5.78-3.09-10.83V154l5.18-11.1-2.25-3.66h-4.59l-1.07-5.33,2-6.28v-3.51l-.74-4.79-.65-2.29-1.86-2.09-2,2H260l-2.53-3.54-.9-4.94,18.68-45.54,14.46-14.46,1-6.2-1.1-5.5L288.83,32l4.9-9.43-2.52-5.87-2.39,1.6h-1.75L286,21l-8.15,3.43-8.63-.36L265.8,30.7,263.73,34,252.95,45.78,254,29.42l1.35-1.68-1.28-4.16-1.4-2.8-3.17-3.56-1-3.5h-2.87l-4.34-3.49L239.16,8V13.2l-3.73,4.47,2.11,10.13-5.89.42L229.54,39.8l-.72,5.06L231.15,55l-1.09,3.26-6.52,3-7.82.92L213,55.54h-7.55l-1.73,6.58L197,69.34,193.34,53V39.35l-7-2.87L181,38.7l-8-17.87-3.35,4.47-3,6.61-6.73-3.59-4.25.33-4.9,2.86-6.91-2.6-4.62-2.31V13.81l-3-2.08-3.45-.63L129,13l-2.67,4.67v18l2.65,22,7.32,18.12v5.21l-4.51,3.38,1.06,8.11-.39,16.42-1.11,3.72,1.1,7.36,2,9.75-.86,6.85L130.12,140h-3.77v10.78l5.32,7.22.82,7.06v5.5l-.76,8.38v4.49l-1.46,2.91,1.52,6.46L130,197.23,125.86,202l-2.3,2-3.23,3.23-7,2.51L104.54,184l-2.93-2-7,1.76-7.25,1.58H82.45v-.32L81,186.75l-1.89,1.89v9.49l2.32,5.56-5.32,2.66H74L72.34,217l1.73,1.54,2.83-3.77,4.45-1.11,10.86,13.9-20.54,25-7.81,2.87-19.63,4.73v3l-10.82,10-6.32,5.21-6.27,14.76v20.51l8.73-4.05,8-3.22,7.85.41L55.58,311l10.53,3.39,17.15,1.49,13.55-5.49,11.11-13.35,4.79-14.37,19-2.89,9.19,5,7.39-1.34,5.32-7.36,9.33,4,6.42,5.92,10.25,10.72,7,5.5L196.18,313v12.17h4.88l12.66-4.22H217l8.64,4.57,9.21,8.06,4.41,3.68Z"/></svg>