<svg id="Layer_1" data-name="Layer 1" xmlns="http://www.w3.org/2000/svg" viewBox="0 0 350 350"><defs><style>.cls-1{fill:#999;}.cls-2{fill:#f90;}</style></defs><title>M</title><path class="cls-1" d="M213.16,284.41l-2,1.64v3.12c0,.78,1,5.09,1,5.09v3.12l1,3.61,2,1.81h2.13l1.48.82H224l4.27,1.48v1.64l1.15,3.12v2l-1.31,3.28.49,2.3L228.1,321l-.16,3.61.33,3.94.16,5.75-.16,3.94,1.15-2.46L233,335l2.3-.66,2.63-1.48,1.81-2.13,1-1.48v-2.79l2.63-1,1.64-.16,3.28.16,3.94.49v2.13l1.15,4.1,1.15,1.64,2.13.66,2.46,1.15,1.15,2.63,2.3,2.46,2.46,1.15h1.81l5.58,1.64-.82-4.92v-3.28l.82-3v-5.58l1.31-2.79,2.13,2.13,2.79-2.13,2.46-3.28v-4.92L276.69,308l-.66-5.42v-3.28l-1.64-2.79-.49-4.27V287l-2.63-2.63.16-3.61-1-4.27-.66-3.78-2-3.61-4.92-5.75-3.78-4.92-3-5.28-1.48-2.92-2.13-1.31-2.46-3.61,1-3.94v-3.12l-1.48-2.63-.82-2.63-.16-3.28.66-3.28,3.45-4.6.33-2.79.49-3.78,3.78-4.76,1.15-7.22L257,199l-3.12-3,.33-3.61,1.64-4.92.66-2-.82-1.81v-5.42l1.81-6.4L256,167.53l1.15-4.43,2.79-2.37,2.46-2.22,1-4.6,1-2.79,2.3-4.27,1.48-3.12.66-3.61-1.31-4.6L266,130.76l-.66-2.46-7.72-1.15h-3.94L252.07,125l-4.92-2.63-5.42-1.48-5.09-2.3H234l-4.76,1.15-2.46,2.63h-5.91l-5.25,2.13-1.81-1.31,1.81-7.55,1.81-7.22L214.64,104l-6.89-5.09-2-3.28,2-3.12.49-2.63V85.46l.49-3.94,1.15-4.6-1.48-6.07L203,67.73l-4.74-1.48-10.69-7.39L182,55.42l-2.46-5.25-.82-4.92V40.15l2.63-3.61L178.69,31l-.82-3.78-2.79-4.92-1.64-5.91V9.13L172.29,6.5l-9.36,2.3L158,11.1,148,27.84l-5.42,5.09-5.09-2.79L134,30.3l-3.78-1.48,1.31,3.61.82,3.94-2.13.33-3,3-5.75-.49L116,44.25l-6.57,1-5.91,8.7L100.23,61l-2.46,4.43v7.22L92.35,71v3.61l1.15,4.76V83l-2.63,4.43v3.28l-1.15,3.61v7.39l-1.81,2.13-2-3v-2.3l-1.64-4.1v2.79l-1.48,1.64-3.28,2.63-2.63,2.13-.82,2.46-2.3,2.46-1.64,1-1.64,1.64-1.64,3L71.18,126l1,3.12,3.78,2.3,6.73,1.48,12,1.64,5.58,1.64,8,1.31,3-1,3.12,1.64,3.12.16,1-1.31h3.45l-1-2.79,1.64-1.31,2.79,1,3.12,2.13,2,2.63,4.76.49-2.63,2,1.31,1.31,3.12.33-1.48,2.46-2.63,6.73-3.45,6.24-3.61,12.15L125,175l-.16,3.86-1.64,5.25-2.63,7.06,4.27.16L128.3,188l2,1.63L129,193.14l4.27,1.31,3,1.48,3.78,1.81,2.63,2.13,2.13-1,1.15,2.63,1.15,6.07-.16,3.28,2.79,6.89,1.48,5.58.16,5.42L150,232l2.46,2.13,1.15,4.6-.49,7.55-.82,6.86v5.45l1,5.42,5.09,3,2.3-1.15.33-2.63,1.48-.49,3.45-1,.49,3,.82,3.28,4.43,2.79,2,4.43-.16,4.1-.33,4.92,1.15,3.28,2.13,2.13,2.79,1.48,2.13,1.64,4.1,3.12,2.3.66-.66-4.92,1.81-.49,4.1,1,5.28.82h3.26l2.3-2.63,1.15-2.79,3.45-2.79Z"/><path class="cls-2" d="M274.19,345.5l-7.56-2.22h-1.92l-3-1.4L259.07,339l-1-2.36-1.89-.88-2.5-.77-1.57-2.24-1.27-4.52v-1.08l-2.65-.33L245,326.7l-1.35.14-1.53.58v2.24l-1.32,2-2,2.33-3.15,1.73-2.3.66-3,.69-3.85,8.25.46-11-.16-5.65-.33-4,.18-3.83.46-3.37-.53-2.48,1.37-3.43V310.1L226.85,307v-.89L223.76,305h-5.38l-1.48-.82h-2.32l-2.68-2.46-1.14-4.38v-3a45.81,45.81,0,0,1-1-5.25v-3.11l-.83.06-2.82,2.28-1.1,2.67-2.88,3.29-4.12,0-5.39-.84-3.75-.9-.26.07.78,5.84-4.63-1.32-6.36-4.85-2.87-1.52L173,288.3l-1.35-3.86.35-5.21.15-3.74-1.66-3.74L166,268.89l-1-3.95-.23-1.39-2.49.74-.31,2.49-3.66,1.83L152,264.95l-1.12-6.31V253l.82-6.86.47-7.25-1-3.95-2.89-2.5,1.58-3.94-.15-5-1.41-5.34-2.87-7.1.17-3.43-1.09-5.75-.5-1.15-1.62.75-3.18-2.58-3.62-1.73-2.87-1.44-5.6-1.72,1.49-3.92-.22-.18-3,2.83-6.82-.26,3.31-8.89,1.56-5,.18-3.86.86-4.84,3.73-12.43,3.4-6.16,2.7-6.86.33-.56-1.41-.15-2.82-2.82,1-.78-1.78-.18-2.2-2.94-2.77-1.9-1.87-.66-.24.19,1.32,3.73h-4.74l-1,1.35-4.18-.22L111.1,138l-2.71.9-8.56-1.41-5.48-1.61-12-1.65-7-1.53L71,130.05l-1.18-3.78-2.4-12.33,2-3.58,2.05-2,1.47-.88,2-2.09.85-2.56,6.15-5,1-1.15V87.13l4.48,11.19v2.14l.69,1,.25-.3V94.1l1.15-3.61V87l2.63-4.43V79.55l-1.15-4.93V69.1l5.42,1.64V65.06L99,60.35l3.37-7.21,6.26-9.21,6.75-1,5.72-5.22,5.71.49,2.82-2.82,1.12-.17-.5-2.38-2.35-6.46,6.41,2.51,3.54-.17,4.54,2.49,4.52-4.25L157,10l5.58-2.57,10.51-2.58,1.75,4v7.33l1.54,5.56,2.81,5L180,30.5,183,36.69l-2.85,3.92v4.51l.77,4.62,2.2,4.69,5.22,3.23L198.88,65l4.81,1.54,5.94,3.42,1.7,7-1.21,4.85-.47,3.77,0,4.6L209.09,93l-1.65,2.61,1.38,2.29L215.7,103l3.26,5.17L217,116l-1.58,6.62.4.29L220.6,121h5.57l2.33-2.49,5.5-1.29h2.93l5.27,2.38,5.6,1.56,5.19,2.77,1.4,1.82,3.45,0,8.64,1.29.9,3.36,1.46,4.71,1.41,4.94-.83,4.29L268,147.46l-2.28,4.24-.92,2.6-1.06,5-2.8,2.53-2.48,2.11-.93,3.59,1.48,4.45-1.87,6.63v4.91l.92,2-2.42,7.27-.25,2.76,2.87,2.72,1.71,4.93-1.26,7.94-3.76,4.74-.81,6.54-3.48,4.64-.56,2.79.15,2.93.72,2.31,1.59,2.82,0,3.83-.83,3.32,1.93,2.84,2.22,1.36,1.66,3.28,2.88,5.14,3.71,4.84,5,5.93,2.08,3.82.7,4,1,4.38-.14,3.18,2.6,2.6v5.76l.45,3.89,1.69,2.86v3.58l.61,5,4.48,7.79v5.77L279.68,325l-3.93,3-1.58-1.58-.32.68v5.46l-.82,3v3Zm-8.84-5.06H267l3.61,1.06-.47-2.93V335.1l.82-3v-5.7l2.31-4.9,2.68,2.68,1.65-1.26,2.06-2.75v-4.07l-4.39-7.64-.7-5.87v-2.9L273,297l-.54-4.73v-4.67L269.83,285l.18-4-.94-4.08-.63-3.62-1.79-3.28-4.83-5.63-3.94-5.16-3-5.28-1.32-2.62L251.56,250l-3-4.39,1.1-4.39v-2.57l-1.41-2.58-.88-3-.17-3.46.75-3.77,3.41-4.55.83-6.59,3.79-4.78,1-6.51-1.25-3.6-3.37-3.19.46-4.62,2.12-6.37-.72-1.58v-5.92L256,172l-1.47-4.42,1.37-5.27,3.13-2.66,2.09-1.89.94-4.32,1.07-3,2.3-4.27,1.36-2.88.56-3.1-1.22-4.28-1.47-4.73-.43-1.62-6.69-1H253l-1.88-2.45-4.51-2.41-5.47-1.51L236.33,120h-2.15L230,121l-2.59,2.77h-6.25l-5.73,2.33-3.21-2.33,2-8.47,1.66-6.65L213.58,105l-6.91-5.1-2.56-4.27L206.4,92l.42-2.23V85.28l.52-4.11,1.06-4.26-1.25-5.14L202.42,69l-4.79-1.5L186.75,60l-5.88-3.63-2.72-5.81-.87-5.35V39.69l2.4-3.31-2.37-5.12-.78-3.57-2.82-5.06L172,16.54V9.42l-.55-1.26-8.06,2L159,12.2l-9.89,16.54-6.31,5.93-5.64-3.09-3.35.16-1.14-.44.3.86,1.12,5.4-3.15.48-3.09,3.09-5.78-.5-5.44,5-6.38,1-5.5,8.09-3.28,7L99.19,65.8v8.77l-5.42-1.64v1.53l1.15,4.93v4l-2.63,4.43v3.11l-1.15,3.61v7.69l-3.36,4-3.25-4.88V99.14l-.82.88-5.58,4.49-.79,2.36-2.65,2.83-1.66,1-1.38,1.38-1.29,2.33,2.18,11.23.8,2.54,3.12,1.9,6.44,1.41L95,133.18l5.5,1.62,7.61,1.24,3.2-1.07,3.38,1.78,2.05.11,1-1.28h2.15l-.65-1.85,3-2.43,3.86,1.41,3.31,2.27,1.74,2.32,7.74.8-4,3,4.43.47-2.56,4.27-2.66,6.79-3.37,6.1-3.54,11.92-.79,4.51-.22,4.13-1.64,5.25-2,5.29,1.71.07,3.93-3.74,3.72,3.08-1.14,3,3,1,3,1.48,4,2,1.94,1.58,2.64-1.22,1.82,4.26,1.18,6.24-.16,3.14L151,217.4l1.52,5.9.17,5.71-1,2.62,2,1.77,1.31,5.25-.51,7.77-.82,6.86v5.23l.84,4.65,3.86,2.24.94-.47.35-2.76,2.32-.77,5-1.44.74,4.46.67,2.68,4.32,2.72,2.28,5.13-.18,4.43-.31,4.67.95,2.7,1.75,1.75,2.8,1.51,6,4.56-.53-4,3.35-.91,4.4,1.06,5.11.79h2.51l1.72-2,1.2-2.91,4.08-3.3,9.58-.66-4.82,4v2.46c0,.45.5,2.83.95,4.77l0,.32v2.93l.83,3,1.26,1.16h1.95l1.48.82h5.12l5.45,1.89v2.4l1.15,3.12v2.5l-1.25,3.14.45,2.12-.52,3.79-.16,3.46.32,3.85.17,5.79,2.87-.65,2.06-.59,2.26-1.27,1.59-1.88.7-1.05v-3.34l3.9-1.41,1.75-.17,3.49.18,5.18.65v3.19l1,3.68.73,1,1.85.58,2.95,1.38,1.27,2.89,1.95,2.08Z"/></svg>