<svg id="Layer_1" data-name="Layer 1" xmlns="http://www.w3.org/2000/svg" viewBox="0 0 350 350"><defs><style>.cls-1{fill:#999;}.cls-2{fill:#f90;}</style></defs><title>M</title><polyline class="cls-1" points="170.91 274.02 163.44 286.11 163.44 289.67 163.44 295.71 163.44 304.24 163.44 312.42 167.18 315.62 176.96 315.62 180.87 309.58 190.82 297.13 197.93 287.53 213.93 283.27 220.69 267.27 250.2 248.42 273.67 226.38 296.42 204.33 307.44 179.8 319.89 181.93 327 170.91 329.49 164.87 335.18 144.6 339.09 131.8 343 118.64 331.98 112.96 321.67 121.28 314.2 123.62 306.02 126.82 302.47 123.98 298.2 115.44 292.16 100.87 280.78 89.13 277.58 82.38 279.71 71.71 273.31 66.27 266.56 59.62 260.16 47.89 256.24 40.78 248.42 40.78 241.31 42.56 234.2 44.33 222.11 43.98 212.87 46.82 203.62 40.78 196.87 34.38 191.18 34.38 184.07 34.38 181.22 37.93 179.09 41.49 172.69 45.04 168.42 36.51 160.24 34.38 156.33 43.27 151 50.38 141.4 50.02 135 47.18 135 50.02 135 56.07 129.67 58.2 121.13 59.27 98.02 55.36 80.96 51.44 88.42 63.53 85.22 66.27 82.73 66.27 78.47 59.62 75.27 58.56 69.58 62.11 60.33 58.2 56.42 55.71 51.44 58.56 51.44 69.58 56.07 79.53 59.27 89.49 58.2 95.89 53.22 96.6 51.44 99.09 51.44 104.42 51.44 111.89 51.44 119 48.24 121.28 42.56 121.28 39.36 125.76 7 158.11 14.82 164.16 20.16 170.91 35.8 180.51 47.18 186.56 56.07 192.6 74.2 196.87 89.49 205.4 92.69 210.38 98.73 215.71 107.27 221.76 116.87 227.8 123.27 239.89 123.62 245.93 126.47 252.69 134.64 257.67 144.24 260.87 151.36 260.16 157.76 260.16 167 261.93 169.49 265.84 170.91 271.18"/><polygon class="cls-2" points="177.73 317.04 166.65 317.04 162.03 313.07 162.03 285.71 169.71 273.28 172.12 274.77 164.86 286.51 164.86 311.77 167.7 314.2 176.18 314.2 179.76 308.69 189.72 296.25 197.09 286.29 212.9 282.08 219.55 266.31 219.93 266.07 249.33 247.3 272.7 225.34 295.24 203.5 306.6 178.22 319.2 180.38 325.74 170.25 328.15 164.4 333.81 144.22 337.73 131.39 341.31 119.37 332.15 114.64 322.35 122.55 314.63 124.97 305.78 128.44 301.34 124.89 296.93 116.08 290.95 101.66 279.6 89.95 276.1 82.56 278.16 72.25 272.32 67.28 265.41 60.48 255.41 42.2 248.6 42.2 234.35 45.76 222.3 45.4 212.65 48.37 202.65 41.81 196.3 35.8 184.75 35.8 182.39 38.74 180.11 42.54 172.08 47 167.44 37.72 161.06 36.05 157.47 44.12 151.69 51.82 141.07 51.43 136.42 49.36 136.42 57.03 129.84 59.61 121.1 60.7 97.79 56.75 83.94 53.58 90.27 63.82 85.75 67.69 81.96 67.69 77.54 60.81 75.45 60.11 69.7 63.7 59.57 59.4 56.38 57.37 52.86 59.38 52.86 69.27 57.42 79.1 60.72 89.38 59.43 97.14 54.02 97.92 52.86 99.54 52.86 119.73 48.7 122.69 43.28 122.69 40.36 126.76 9.14 157.97 15.94 163.28 21.11 169.84 36.54 179.3 47.98 185.38 56.65 191.28 74.72 195.53 90.49 204.34 93.77 209.45 99.61 214.6 108.09 220.6 117.94 226.8 124.66 239.5 125.02 245.61 127.59 251.72 135.24 256.37 144.4 259.43 151.35 258.74 158.02 258.76 167.87 260.66 170.8 265.27 172.28 270.81 169.54 271.54 168.18 266.42 166.13 263.21 157.62 261.57 151.43 261.57 144.08 262.31 133.91 258.88 125.34 253.66 122.22 246.26 121.87 240.28 115.79 228.8 106.51 222.96 97.8 216.77 91.6 211.31 88.49 206.47 73.68 198.2 55.49 193.92 46.44 187.77 35.13 181.76 19.2 171.99 13.82 165.17 4.86 158.25 38.27 124.84 41.83 119.86 47.79 119.86 50.03 118.27 50.03 98.64 52.42 95.28 56.97 94.63 57.81 89.59 54.74 80.05 50.03 69.89 50.03 57.73 56.46 54.06 60.99 56.94 69.45 60.52 75.08 57 79.39 58.44 83.51 64.86 84.7 64.86 86.58 63.25 77.97 49.31 98.34 53.97 121.17 57.83 129.31 56.82 133.58 55.11 133.58 45 141.73 48.62 150.31 48.93 155.1 42.55 159.43 32.7 169.4 35.3 173.29 43.09 178.07 40.43 180.12 37.05 183.38 32.96 197.43 32.96 204.5 39.66 213.09 45.27 221.92 42.55 234.05 42.91 248.42 39.36 257.08 39.36 261.4 47.21 267.7 58.76 274.27 65.23 281.26 71.17 279.06 82.2 281.96 88.31 293.36 100.07 299.51 114.9 303.6 123.06 306.27 125.2 313.68 122.3 320.99 120 331.81 111.27 344.69 117.92 340.45 132.2 336.53 145.01 330.8 165.41 328.19 171.68 320.57 183.49 308.29 181.38 297.6 205.16 274.65 227.4 250.96 249.62 221.82 268.22 214.97 284.46 198.78 288.77 191.96 297.98 182.02 310.41 177.73 317.04"/></svg>