<svg id="Layer_1" data-name="Layer 1" xmlns="http://www.w3.org/2000/svg" viewBox="0 0 350 350"><defs><style>.cls-1{fill:#999;}.cls-2{fill:#f90;}</style></defs><title>M</title><path class="cls-1" d="M313.45,278.93a1.33,1.33,0,0,0-1.48-.6c-1.72.32-3.41-2.34-5.18-2.68-1.95-.37-3.46.71-5.06,1.61a31.29,31.29,0,0,1-2.94,1.46,1.19,1.19,0,0,0-1.46-.64,47.69,47.69,0,0,1-11,1.82l-.2,0c-.57-.06-1.21-.73-.76-1.32a10.7,10.7,0,0,1,2.81-2.45c.39-.26,1.16-.62,2-1l1.65-4.13.14-.18c-2.08-1.28-7-.84-8.46-1.06a.88.88,0,0,1-.39-1.46c1.9-1.89,4.29-2.55,6.73-3.49,5.7-2.21,4.77-7.27,4.62-12.33a.88.88,0,0,1,.88-.88,14.79,14.79,0,0,0,3,.06l-.54-1.71c.44,0,.76,0,.89.19a1.33,1.33,0,0,0,2.4-.31,3.38,3.38,0,0,0,0-2.55c-.89-2.33-2-1.11-1.2-4.48.71-3.17,1-2.25,3.58-2.72a13.44,13.44,0,0,0,1.45-.26,5.73,5.73,0,0,0,2.82-1.72c1.61-1.88,1.44-4.32,1.28-6.65a20.83,20.83,0,0,1,3.52-13.8,1.32,1.32,0,0,0-1.13-2l-12.95.8c1.46-.86,3.72-3.93,5-5.78-.24-2.38-.64-4.74-.76-7.12-7.14,0-14.19.18-21.17,1.9a.89.89,0,0,1-1.08-1,.71.71,0,0,1,.09-.76,120.73,120.73,0,0,0,7.6-11.8c1.61-2.89,6.88-11.1,3.66-14.21a.89.89,0,0,1,.39-1.46c2.64-1,5.29-2,8-3a52.42,52.42,0,0,1,5.55-2.28c2.94-1,6.12-1.82,6.38-5.37a1.33,1.33,0,0,0-1.66-1.27c-4,.91-6.36-2.9-9-5a20.72,20.72,0,0,0-5-2.78c-5-2.05-9.75-3.27-14.13-6.66-6.89-5.33-13.41-8.8-22.14-7.93a1.3,1.3,0,0,0-.19-.58,10.1,10.1,0,0,0-.73-1c.7-1.06-.46-2.75-1.7-1.89l-.13.08a10.39,10.39,0,0,0-4.81-2l-.14,0a56.73,56.73,0,0,0-13.5-1l-.23,0a1.48,1.48,0,0,0-.29-.05,21.51,21.51,0,0,1-12.68-5.45,1.29,1.29,0,0,0-1.56-.15,1.15,1.15,0,0,0-1.29-.37c-2.73.84-3.86-3.77-5.56-5s-2.94-1-4.81-1.1c-3.19-.2-5.78-2.17-8.86-2.91a25.56,25.56,0,0,0-7.57-.56c-5.78.39-11.21,2.35-16.68,4.09-4.72,1.51-9.65,2-14.45,3,2.11-5.29,4.57-10.49,8.28-14.83,4.57-5.36,10.78-8.8,16.81-12.25,4-2.29,9.61-4.73,10.4-9.85a6.8,6.8,0,0,0-.14-2.93c-.57-2.2-1.5-1.17.6-2.52,2.93-1.88,6.61-3.07,9.77-4.54a1.33,1.33,0,0,0-.31-2.4c-7.07-1.53-12.31,4.05-18.74,5.77,0,0,0-.08,0-.12.09-1.69-2.54-1.69-2.63,0-.11,2.11-4.35,1.41-5.63,1.6A11,11,0,0,0,180,86a24.28,24.28,0,0,0-6.7,5.78l-.79-1.22c.1-.73-.3-1.49-1.23-1.37-4.24.55-5.95,2.62-8.39,5.8-2,2.67-6.57,2.37-9.64,2.67l-7.78.77a7.68,7.68,0,0,0,.06-2.5A10.12,10.12,0,0,0,143.94,92,22.28,22.28,0,0,0,157.57,73.8h0c3.45-2.3,7.57-2.64,11.24-4.41s5.15-4.78,6.77-8.53c1.82-4.19,4.2-8.48,5.52-12.86a5.62,5.62,0,0,0-.2-4.32c-.34-.68-5.19-5.48-3.48-5.77a1.07,1.07,0,0,0,.94-1.24,8,8,0,0,0,4.24-4.37,1.31,1.31,0,0,0-.6-1.48,5.52,5.52,0,0,0-2.14-.46c-1.4-4.38-2.48-12.21-7.11-14.18-2.18-.93-3-.61-5.25-2.2a20.46,20.46,0,0,0-2.11-1.65,8.29,8.29,0,0,0-5.49-.77c-2.37.49-7,3.27-5,6.24.5.76.64.48,1.11,1a5.57,5.57,0,0,0,1.13.07,2.88,2.88,0,0,1-.66,3.07c-1.25,3.18-3.56,6.25-5.28,9.23a1.09,1.09,0,0,0-1.51.23l-3.26,3.84a1.34,1.34,0,0,0-.05,1.7,1.25,1.25,0,0,0-1.34.59,13.18,13.18,0,0,1-4,4,1.37,1.37,0,0,0,.12,2.34,1.35,1.35,0,0,0,.26.37l2.43,2.43a10.93,10.93,0,0,0-3.93,11.13,1.29,1.29,0,0,0,2.32.37,1.06,1.06,0,0,0,.88-.93c.06-.36.59-.25.85-.05.69.53.78,1.82.91,2.59a1.19,1.19,0,0,0,.25.57,1.48,1.48,0,0,0,0,1.28,23.74,23.74,0,0,0-6.76,2.26,1.36,1.36,0,0,0-.3.21,1.08,1.08,0,0,0-.39.73L136.49,73A19,19,0,0,0,128.27,79a35.86,35.86,0,0,0-10.16,2.18c-.56-1.12-2.62-.4-2.41,1.1a124.53,124.53,0,0,1,1.17,15.27l-2,2.06a18.21,18.21,0,0,1-8.79,2.39c-2.19,0-4.41-.6-6.49.39-2.46,1.19-3.65,3.71-4.37,6.27-3.38,4.91-11.17,3.14-15.55,7-1.76,1.53-2.51,3.59-3.38,5.68-2.14,5.13-5.77,5.78-10.89,5.66a1.33,1.33,0,0,0-1.27,1A4,4,0,0,0,66,132.64a6.74,6.74,0,0,0,3,1c2.46.36,1.8-.3,3.89,2.33a5.18,5.18,0,0,1,1.07.74.87.87,0,0,1,1,1.25,9,9,0,0,1-.68,1,3.42,3.42,0,0,1-.41.51c-.05.14-.13.26-.19.39l-.16-.11c-2.85,2.55-6.37.72-10.42.32-3.65-.37-7.94,2-11.41.88a14.4,14.4,0,0,0-2.64,1.82,1.3,1.3,0,0,0-.3.37c-5.36.35-10.87.61-11.84.67a1.33,1.33,0,0,0-1.27,1.66c1.57,5.42,2.78,11.13,4.91,16.36,1.56,3.82,4,6.73,8.19,7.66a12.07,12.07,0,0,0,2.26.14c1.62-1.65,3.25-3.27,5.56-3.93a.78.78,0,0,1,.94.38c3.49.31,7,.36,10.48.36a8.29,8.29,0,0,1,3.67-1.9.84.84,0,0,1,.44,0,.83.83,0,0,1,.18,0c5.69,0,11.37.31,17.05.37l.89-.89a.87.87,0,0,1,.26-.17.78.78,0,0,1,.75-.47h9.16a23.09,23.09,0,0,1,4.36-1.47,14.55,14.55,0,0,1,5.19-2c1-.18,1.47,1.17.73,1.58a.82.82,0,0,1,0,.27c-2.54,6.95-6.13,15-13.73,17.42-6.66,2.15-14,.93-21,.24l-.11,0q-.52,1.07-1.14,2.11c-6.47-.25-12.93-.09-19,1.41a1.32,1.32,0,0,0,0,2.53,28.87,28.87,0,0,1,11.61,5c-.82.81-1.65,1.61-2.49,2.39,4.07,6.22,14.12,5.21,20.11,8.66,5.58,3.22,6.84,10.55,12.8,13.41,4.77,2.29,8.67,3.63,6.87,10a8.27,8.27,0,0,1-5.12,5.61,16.23,16.23,0,0,1-4.07.94c-2.71.34-5.19-.81-4.58,3a.89.89,0,0,1-.4,1c-5.19,2.36-8.73,8.33-14.68,8.83-3.55.3-7.18-1.48-10.69-.67-3.06.71-6,3.08-8.68,4.68-4.95,3-10.29,5-12.2,11a38.67,38.67,0,0,0-1.44,12.54c.1,3.51.22,6,3.06,8.17,2.47,1.9,6,5.28,5.41,8.81-.52,3.12-5,3.08-6.51,5.63-2.67,4.37,2.72,9.58,4.52,13.21a16.07,16.07,0,0,1,1.62,5c.8,5.95-1,12.47,1.28,18.1l0-.07A24.08,24.08,0,0,1,54.18,328a37.55,37.55,0,0,1,1.17,9.35A1.34,1.34,0,0,0,57,338.6c3.79-.58,7.65-1.21,11.53-1.94,21.3-14.73,47.14-21.15,69.4-34.26.89-1.1,1.76-2.22,2.58-3.39l1-.21c2.3-3.56,6.76-5.86,7.14-10.21.23-2.68-.6-4.56,1.61-6.46a9.66,9.66,0,0,1,2.21-1.38c.58-3.24,2-6.21,3.07-9.3a1,1,0,0,1-.18-.17,94.89,94.89,0,0,1-5.59-8.4.82.82,0,0,1-.78-.61c-.17-.55-.36-1.1-.57-1.63-1.67-2.78-3.35-5.56-5.21-8.22a.76.76,0,0,1,.36-1.18c-.31-.65-.61-1.3-.87-2-.41-1.05,1.29-1.51,1.69-.47l.09.2c8,.18,15.82,2.51,23.18,5.74a1.2,1.2,0,0,0,.54.52L206.8,275a145,145,0,0,0,16.73,7.75c6,2.16,12.42,2.83,18.42,5,5.73,2.06,10.13,6.47,16,8.16,2.65.76,5.41,1.14,8,2,3.36,1.12,4.79,3.18,7.34,5.24,3.46,2.79,9.09-.16,12.81-1.13,4.16-1.08,9.56-1.43,12.54-4.81,1.37-1.56,2.06-3,4.24-3.59,1.28-.36,2.62-.47,3.9-.81a9.84,9.84,0,0,0,5.09-3A10.1,10.1,0,0,0,313.45,278.93Z"/><path class="cls-2" d="M56.74,340a2.9,2.9,0,0,1-1.9-.68,2.63,2.63,0,0,1-.91-2,37,37,0,0,0-.51-6.13l-.12.18-.06.1-1.5,2.16-1-2.4c-1.5-3.71-1.36-7.69-1.23-11.54a41.42,41.42,0,0,0-.14-6.9,14.53,14.53,0,0,0-1.49-4.57,28,28,0,0,0-1.77-2.85c-2.3-3.42-5.16-7.69-2.69-11.73a8.37,8.37,0,0,1,3.73-2.89c1.5-.75,2.43-1.26,2.59-2.24.49-3-3.24-6.2-4.87-7.45-3.42-2.63-3.51-5.85-3.61-9.26a39.75,39.75,0,0,1,1.5-13c1.75-5.5,6.1-8,10.31-10.35.83-.47,1.67-.95,2.5-1.45.62-.38,1.26-.8,1.92-1.23,2.16-1.42,4.6-3,7.17-3.62a16,16,0,0,1,6.48.23,17.58,17.58,0,0,0,4.41.41c3.12-.26,5.58-2.33,8.19-4.52a29,29,0,0,1,5.57-4,4,4,0,0,1,.64-3.16c.91-1.06,2.27-1.06,3.57-1.05a13,13,0,0,0,1.64-.06,15,15,0,0,0,3.72-.85,6.89,6.89,0,0,0,4.28-4.69c1.3-4.57-.53-5.64-5.19-7.84L97,216.2c-3.45-1.66-5.42-4.56-7.32-7.38-1.63-2.42-3.18-4.7-5.57-6.08a28.87,28.87,0,0,0-7.76-2.52c-4.92-1.13-10-2.29-12.83-6.6l-.65-1,.87-.81L65,190.66a27.74,27.74,0,0,0-9.65-3.82,2.58,2.58,0,0,1-2.08-2.54,2.72,2.72,0,0,1,2-2.76,68.66,68.66,0,0,1,18.52-1.48c.24-.43.46-.86.67-1.28l.25-.51.84-.31H76l2.73.29c6,.65,12.22,1.32,17.74-.46,6.68-2.15,10.09-9.09,12.75-16.32a13,13,0,0,0-3.72,1.57l-.2.13-.23.05a21.54,21.54,0,0,0-4.1,1.39l-.27.12H91.61l-.05.12-.41.19-1.23,1.23h-.6c-2.66,0-5.35-.11-8-.18-2.94-.08-6-.17-9-.19l-.35.07-.18,0A6.79,6.79,0,0,0,69,167.41l-.41.39H68c-3.93,0-7.23-.07-10.6-.37l-.73-.06-.13-.22a12.91,12.91,0,0,0-4.5,3.42l-.41.42H51a13.27,13.27,0,0,1-2.58-.17c-4.24-.94-7.24-3.72-9.19-8.51a97.47,97.47,0,0,1-3.65-11.71c-.43-1.61-.85-3.21-1.31-4.79a2.65,2.65,0,0,1,.38-2.28,2.87,2.87,0,0,1,2.16-1.19l1.33-.07c2-.11,6-.31,9.89-.56l.07-.07a15.88,15.88,0,0,1,2.9-2l.53-.29.58.19c1.59.51,3.55.09,5.62-.35a18.13,18.13,0,0,1,5.5-.6c1.14.11,2.21.33,3.24.53,2.9.58,4.61.84,6.1-.5l.41-.37.1-.14.09-.12,0-.05-.26-.24a3.82,3.82,0,0,0-.78-.53l-.26-.14-.52-.66a11.77,11.77,0,0,0-1-1.22l-.39,0c-.31,0-.7-.06-1.23-.14a8.07,8.07,0,0,1-3.56-1.19,5.39,5.39,0,0,1-2.48-6.19,2.68,2.68,0,0,1,2.68-2.05c5.06.13,7.78-.56,9.55-4.79l.21-.5a14.14,14.14,0,0,1,3.55-5.7c2.26-2,5.16-2.6,8-3.21s5.67-1.23,7.22-3.31c1-3.51,2.68-5.78,5-6.92a10.06,10.06,0,0,1,5.35-.62c.61,0,1.18.1,1.75.08A16.79,16.79,0,0,0,114,98.5L115.45,97a123.33,123.33,0,0,0-1.14-14.5,2.83,2.83,0,0,1,2-3.13,2.65,2.65,0,0,1,2.13.2,37.57,37.57,0,0,1,9.11-1.92,20.42,20.42,0,0,1,7.65-5.73l1-7.33a2.49,2.49,0,0,1,.91-1.65,2.46,2.46,0,0,1,.54-.36,25.37,25.37,0,0,1,5.89-2.14,2.79,2.79,0,0,1-.12-.48l-.06-.37c0-.11,0-.25-.07-.42a2.44,2.44,0,0,1-.35.18,2.9,2.9,0,0,1-2.51.68,2.54,2.54,0,0,1-2-2,12.29,12.29,0,0,1,3.25-11.51l-1.37-1.37a2.69,2.69,0,0,1-.32-.38A2.93,2.93,0,0,1,139,42.67a2.65,2.65,0,0,1,1.26-2.36,11.76,11.76,0,0,0,3.61-3.61,2.77,2.77,0,0,1,.84-.85,2.77,2.77,0,0,1,.66-1.59l3.26-3.84a2.55,2.55,0,0,1,1.9-.93c.42-.69.85-1.38,1.28-2a38,38,0,0,0,3.37-6.08l.1-.25.18-.2a1.61,1.61,0,0,0,.43-.76l-.1,0-.46-.08-.32-.33a3.07,3.07,0,0,1-1.28-1.17,3.92,3.92,0,0,1-.39-3.81c1-2.49,4.31-4.19,6.31-4.6a9.66,9.66,0,0,1,6.45.91,7.91,7.91,0,0,1,1.54,1.14,8,8,0,0,0,.72.59,7.62,7.62,0,0,0,2.83,1.32,16.29,16.29,0,0,1,2.15.73c4.37,1.86,5.89,7.62,7.12,12.25.18.67.35,1.32.52,1.91a7.22,7.22,0,0,1,1.61.48,2.7,2.7,0,0,1,1.36,3.33,9.3,9.3,0,0,1-4.24,4.76,2.44,2.44,0,0,1-.87,1.22A34.34,34.34,0,0,0,181,41.53a9.2,9.2,0,0,1,1.18,1.5,7,7,0,0,1,.3,5.37,65.44,65.44,0,0,1-3.73,9c-.63,1.32-1.27,2.69-1.84,4-1.59,3.67-3.1,7.15-7.46,9.24a34,34,0,0,1-5,1.8,24.59,24.59,0,0,0-5.57,2.18,23.58,23.58,0,0,1-13,18,9.9,9.9,0,0,1,1,3.07,9.33,9.33,0,0,1,.09,1.11l6.09-.6c.58-.06,1.2-.09,1.85-.13,2.59-.15,5.53-.32,6.81-2,2.34-3.06,4.37-5.69,9.33-6.34a2.41,2.41,0,0,1,2.62,1.44,21.45,21.45,0,0,1,5.63-4.48,12.35,12.35,0,0,1,3.8-1.25,10.42,10.42,0,0,1,1.55-.05,8.45,8.45,0,0,0,2.88-.29A2.7,2.7,0,0,1,189,80.88a2.89,2.89,0,0,1,2.84.13,2.51,2.51,0,0,1,.63.59,41,41,0,0,0,5-2.31c4-2,8.08-4.16,13.12-3.07a2.7,2.7,0,0,1,2.05,2.39,2.58,2.58,0,0,1-1.44,2.69c-1.07.5-2.21,1-3.31,1.42a40.69,40.69,0,0,0-6.3,3l-.26.16a6.83,6.83,0,0,1,.26.81,8.26,8.26,0,0,1,.17,3.5c-.8,5.2-5.69,7.88-9.61,10l-1.48.83-.66.38c-5.67,3.24-11.53,6.59-15.77,11.56a46.38,46.38,0,0,0-7,12l2.43-.43a70.77,70.77,0,0,0,9.27-2.06l2-.63c4.82-1.56,9.8-3.17,15.06-3.52a26.92,26.92,0,0,1,8,.6,23.27,23.27,0,0,1,3.92,1.42,14.24,14.24,0,0,0,4.71,1.45l.92,0a7.31,7.31,0,0,1,4.65,1.34,9,9,0,0,1,2,2.55c1.07,1.73,1.66,2.47,2.29,2.27a2.62,2.62,0,0,1,2,.15,2.7,2.7,0,0,1,2.23.67A20.22,20.22,0,0,0,238.49,134l.22,0h.13a58.53,58.53,0,0,1,13.83,1l.24.06a11.81,11.81,0,0,1,4.57,1.78,2.5,2.5,0,0,1,2.45.65,2.92,2.92,0,0,1,.83,2.56l.24.37c9.22-.59,16.07,3.63,22.09,8.3,3.16,2.45,6.58,3.72,10.2,5.08,1.18.44,2.38.89,3.6,1.39a22,22,0,0,1,5.33,3,26,26,0,0,1,2.06,1.86c2.18,2.11,3.66,3.36,5.8,2.88a2.91,2.91,0,0,1,2.5.63,2.54,2.54,0,0,1,.89,2.12c-.31,4.24-3.86,5.44-6.71,6.4l-.62.21a50.6,50.6,0,0,0-5.4,2.22l-.14.06c-2.51.89-5,1.81-7.28,2.7,2.69,3.77-1.25,10.59-3.42,14.36l-.53.93a119.65,119.65,0,0,1-7.21,11.27c6.89-1.56,13.91-1.7,20.53-1.71H304l.07,1.35c.07,1.44.26,2.93.44,4.36.11.9.23,1.79.32,2.69l.05.52-.3.43q-1.35,2-2.48,3.33l9.17-.56a2.74,2.74,0,0,1,2.39,4.19,19.5,19.5,0,0,0-3.28,12.91c.17,2.54.35,5.36-1.62,7.66a7.13,7.13,0,0,1-3.49,2.16,7.29,7.29,0,0,1-1.15.23l-.45.07a13.88,13.88,0,0,1-1.61.19l-.44,0a8.19,8.19,0,0,0-.4,1.41,4.67,4.67,0,0,0-.21,1.57l.14.13a5.58,5.58,0,0,1,1.22,2,4.78,4.78,0,0,1,0,3.5,2.73,2.73,0,0,1-2.21,1.89l-.24,0,.23.74-1.76.15a15.88,15.88,0,0,1-2.56,0c0,.32,0,.64,0,1,.21,4.57.45,9.75-5.59,12.09l-1.19.45a17.62,17.62,0,0,0-4,1.85h.31c2.28,0,5.4.07,7.22,1.19l1.36.84-1,1.27-1.77,4.43-1.21.63c-.46.24-.89.46-1.1.59a13.36,13.36,0,0,0-1.51,1.11,46,46,0,0,0,9.49-1.7,2.62,2.62,0,0,1,2.18.3c.66-.31,1.3-.64,1.92-1l.55-.32c1.52-.88,3.23-1.88,5.47-1.46a7.17,7.17,0,0,1,2.94,1.63c.52.41,1.4,1.1,1.73,1a2.72,2.72,0,0,1,3,1.44h0A11.45,11.45,0,0,1,313,290.74a11.16,11.16,0,0,1-5.79,3.41c-.67.18-1.34.3-2,.41a19.17,19.17,0,0,0-1.89.4,5.06,5.06,0,0,0-2.73,2.16c-.26.32-.53.66-.83,1-2.64,3-6.78,3.86-10.44,4.62-1,.21-1.93.4-2.81.63s-1.58.48-2.48.78c-3.68,1.24-8.25,2.77-11.58.08-.73-.59-1.36-1.17-2-1.73a12.76,12.76,0,0,0-4.93-3.26,43.58,43.58,0,0,0-4.37-1.12c-1.18-.26-2.4-.53-3.61-.88a36.18,36.18,0,0,1-9-4.42,38.72,38.72,0,0,0-7.16-3.76,77.9,77.9,0,0,0-9-2.44,80,80,0,0,1-9.39-2.55,135.9,135.9,0,0,1-15.75-7.23l-39.73-20.32a2.72,2.72,0,0,1-.82-.64c-8-3.47-15.2-5.26-22-5.46l.09.2.63,1.3-.67.31c1.73,2.53,3.3,5.14,4.83,7.68l.1.21c.19.48.35.93.49,1.36h.36l.39.65a94.83,94.83,0,0,0,5.47,8.23l.76.6-.34,1c-.3.84-.62,1.68-.94,2.51a35.75,35.75,0,0,0-2.07,6.56l-.13.72-.66.31a8.25,8.25,0,0,0-1.89,1.17c-1.08.93-1.11,1.67-1.08,3.4a19.38,19.38,0,0,1,0,2.11c-.29,3.3-2.44,5.48-4.53,7.59a21.39,21.39,0,0,0-2.83,3.26l-.31.48-.56.13-.5.11c-.67.93-1.41,1.9-2.3,3l-.16.2-.22.13c-10,5.89-20.83,10.49-31.31,14.95-12.93,5.49-26.3,11.17-38,19.26l-.25.17-.3.06c-3.65.69-7.43,1.32-11.58,2A3.22,3.22,0,0,1,56.74,340Zm-1.86-15,.68,2.64a39.14,39.14,0,0,1,1.21,9.57h0c4-.61,7.66-1.22,11.18-1.88,11.87-8.16,25.28-13.86,38.25-19.37,10.32-4.38,21-8.92,30.76-14.65.93-1.15,1.68-2.15,2.37-3.12l.33-.47.57-.1.41-.08a27,27,0,0,1,2.86-3.22c1.89-1.91,3.52-3.56,3.72-5.85a16.8,16.8,0,0,0,0-1.81c0-1.77-.07-3.77,2.06-5.6a10,10,0,0,1,1.88-1.26,42.3,42.3,0,0,1,2.07-6.37c.22-.56.43-1.12.64-1.69-1.88-2.5-3.55-5.14-5.08-7.65a2.25,2.25,0,0,1-1.22-1.41c-.13-.44-.29-.9-.49-1.41-1.61-2.67-3.27-5.43-5.09-8a2.12,2.12,0,0,1-.17-2.25c-.19-.42-.35-.81-.5-1.19a2.13,2.13,0,0,1,1.25-2.82,2.37,2.37,0,0,1,2.68.65c7.1.28,14.61,2.19,22.91,5.84l.46.2.19.37,39.69,20.3A133.81,133.81,0,0,0,224,281.4a77.94,77.94,0,0,0,9.06,2.45,80.11,80.11,0,0,1,9.36,2.54,41.5,41.5,0,0,1,7.69,4,33.53,33.53,0,0,0,8.25,4.11c1.12.32,2.24.57,3.43.83a46.43,46.43,0,0,1,4.65,1.2,15.4,15.4,0,0,1,6,3.87c.58.53,1.17,1.08,1.84,1.61,2.12,1.72,5.72.5,8.9-.56.94-.32,1.84-.62,2.67-.83s2-.46,2.94-.66c3.38-.7,6.87-1.43,8.89-3.72.27-.31.52-.62.75-.91a7.71,7.71,0,0,1,4.16-3.11,21.54,21.54,0,0,1,2.17-.46c.62-.11,1.2-.21,1.75-.36a8.46,8.46,0,0,0,4.4-2.54,8.64,8.64,0,0,0,1.37-9.15h0c-1.59.29-2.87-.71-4-1.6a5.51,5.51,0,0,0-1.71-1.08c-1.14-.21-2.08.29-3.52,1.12l-.58.33a32.9,32.9,0,0,1-3.08,1.53l-1.23.53-.54-1.07a48.81,48.81,0,0,1-11.19,1.84h-.1l-.32,0a2.54,2.54,0,0,1-2-1.48,2.09,2.09,0,0,1,.28-2.11,12,12,0,0,1,3.16-2.77c.33-.22.81-.46,1.36-.75l.25-.13,1-2.51a25.24,25.24,0,0,0-4.61-.35,18.77,18.77,0,0,1-2.15-.1,2.14,2.14,0,0,1-1.72-1.47,2.36,2.36,0,0,1,.54-2.4,15.68,15.68,0,0,1,6.07-3.38l1.15-.43c3.94-1.53,4-4.39,3.78-9.31,0-.55-.05-1.1-.07-1.65a2.33,2.33,0,0,1,.77-1.75,2.13,2.13,0,0,1,1.69-.57l.92.08-.5-1.6,1.78-.14a2.35,2.35,0,0,1,2.1.71,1.88,1.88,0,0,0,0-1.46,2.83,2.83,0,0,0-.66-1.07c-1-1.06-1.1-2-.6-4.23.62-2.78,1.29-3.5,3.4-3.65a11.09,11.09,0,0,0,1.3-.15l.58-.09a5.07,5.07,0,0,0,.71-.13,4.29,4.29,0,0,0,2.15-1.29c1.22-1.43,1.09-3.45,1-5.58A22.27,22.27,0,0,1,311.18,217l-18.56,1.14,5.1-3c.84-.5,2.42-2.33,4.25-4.94-.08-.7-.17-1.4-.25-2.1-.13-1.05-.27-2.13-.37-3.23-6.37,0-13.06.27-19.51,1.86a2.23,2.23,0,0,1-2-.48,2.42,2.42,0,0,1-.8-1.67,2.14,2.14,0,0,1,.36-1.83,118.47,118.47,0,0,0,7.51-11.66l.55-1c1.5-2.6,5.48-9.49,3.36-11.54a2.19,2.19,0,0,1-.65-2,2.43,2.43,0,0,1,1.51-1.76c2.49-1,5.17-2,7.92-2.94a54,54,0,0,1,5.63-2.31l.64-.22c2.75-.93,4.49-1.61,4.77-3.66-3.76.77-6.28-1.68-8.31-3.65a23.7,23.7,0,0,0-1.83-1.66,19.22,19.22,0,0,0-4.66-2.58c-1.19-.49-2.36-.93-3.52-1.36-3.83-1.43-7.44-2.78-10.94-5.49-6.69-5.18-12.85-8.46-21.13-7.64l-1.45.15-.1-1.46c-.15-.23-.35-.51-.62-.85l-.63-.8.29-.44-.48.31-.76-.63a9,9,0,0,0-4.15-1.76l-.32-.08a55.74,55.74,0,0,0-13-.95l-.35.07-.35-.09A23,23,0,0,1,224.8,131l-1,.57-.67-.81c-2.76.75-4.35-1.82-5.41-3.53a7.93,7.93,0,0,0-1.3-1.77,4.63,4.63,0,0,0-3-.77l-1,0a16.6,16.6,0,0,1-5.66-1.67,20.79,20.79,0,0,0-3.44-1.27,24,24,0,0,0-7.15-.53c-4.91.33-9.72,1.89-14.38,3.39l-2,.63a73,73,0,0,1-9.64,2.15c-1.63.29-3.31.58-4.93.93l-2.6.56,1-2.47c1.94-4.86,4.47-10.48,8.52-15.22,4.57-5.35,10.64-8.83,16.52-12.18l.66-.38,1.53-.85c3.56-2,7.59-4.17,8.18-8a5.41,5.41,0,0,0-.11-2.35,2.84,2.84,0,0,0-.4-.95,1.71,1.71,0,0,1-.31-1.37,2.07,2.07,0,0,1,1.18-1.3l.74-.46a42.72,42.72,0,0,1,6.74-3.26c1-.4,1.89-.78,2.78-1.19-3.87-.68-7.25,1.06-10.82,2.9A34.61,34.61,0,0,1,192,84.74l-1.94.52.06-.73c-1,1.75-3.78,1.73-5.41,1.71a10.18,10.18,0,0,0-1.1,0,9.52,9.52,0,0,0-2.93,1,22.89,22.89,0,0,0-6.29,5.46l-1.24,1.39L171,90.85l0-.23c-3.34.54-4.74,2.19-7,5.2-2.07,2.7-5.85,2.92-8.89,3.1-.61,0-1.2.07-1.74.12l-9.67,1,.36-1.87a6.29,6.29,0,0,0,0-2,8.8,8.8,0,0,0-1.38-3.37l-.87-1.42,1.55-.63a20.74,20.74,0,0,0,12.75-17l.08-.74.62-.33a24.92,24.92,0,0,1,6.78-2.83,31.31,31.31,0,0,0,4.57-1.64c3.25-1.56,4.43-4,6.09-7.82.59-1.36,1.25-2.75,1.88-4.09a63.46,63.46,0,0,0,3.58-8.61,4.23,4.23,0,0,0-.11-3.27l-.8-.93c-2.57-3-3.56-4.42-3.1-5.72a1.76,1.76,0,0,1,1.19-1.1l-.06-.75.92-.44A6.55,6.55,0,0,0,181.19,32a4,4,0,0,0-1.33-.24h-1l-.31-1c-.28-.88-.55-1.88-.83-2.94-1.07-4-2.39-9-5.49-10.37a13.62,13.62,0,0,0-1.81-.61,10.42,10.42,0,0,1-3.7-1.73,10.68,10.68,0,0,1-1-.79,5.38,5.38,0,0,0-1-.77,6.87,6.87,0,0,0-4.53-.62c-1.36.28-3.7,1.55-4.26,2.91a1.13,1.13,0,0,0,.14,1.16,1.15,1.15,0,0,0,.12.17,2.22,2.22,0,0,1,.39.22h.49l1.07,0,.33,1a4.26,4.26,0,0,1-.78,4.27A41.62,41.62,0,0,1,154.17,29c-.63,1-1.22,1.92-1.76,2.86l-.75,1.3-1.05-.69-3.11,3.66L149.56,39l-3.38-.68a14.59,14.59,0,0,1-4.31,4.33l.31.17.19.43,3.56,3.56-1.27,1a9.47,9.47,0,0,0-3.5,9.34l.19-.25.36-.06a1.68,1.68,0,0,1,1-1.1,2.19,2.19,0,0,1,2.06.35,4.67,4.67,0,0,1,1.4,3.17l0,.28.54.66-.42.83.81,1.69-1.84.35a22.45,22.45,0,0,0-6.3,2.1L137.78,74l-.78.3a17.69,17.69,0,0,0-7.62,5.64l-.39.49-.63,0a34.19,34.19,0,0,0-9.76,2.1l-1.19.45-.16-.33a144.37,144.37,0,0,1,1,14.9v.59l-2.59,2.63-.18.1a19.62,19.62,0,0,1-9.46,2.56c-.67,0-1.34,0-2-.09a7.55,7.55,0,0,0-3.91.35c-1.67.8-2.82,2.51-3.62,5.37l-.06.23-.13.19c-2.16,3.14-5.68,3.91-9.08,4.65-2.57.56-5,1.08-6.7,2.58a11.81,11.81,0,0,0-2.8,4.65l-.21.5c-2.59,6.18-7.4,6.64-12.12,6.53a2.58,2.58,0,0,0,1.33,3,5.44,5.44,0,0,0,2.4.74c.45.07.79.1,1.06.12,1.69.15,2,.56,3.4,2.31l.17.21a7,7,0,0,1,.6.4,2.39,2.39,0,0,1,1.65.91,2.18,2.18,0,0,1,.12,2.52,10.49,10.49,0,0,1-.74,1.06,4.71,4.71,0,0,1-.36.47l-.06.13L74.24,142l-.68-.5c-2.39,1.5-5,1-7.61.46-1-.19-2-.39-3-.49a15.94,15.94,0,0,0-4.62.55,15.2,15.2,0,0,1-6.45.44,12.81,12.81,0,0,0-1.9,1.37l-.37.7-.77,0c-4.15.27-8.38.49-10.54.6l-1.26.07c.45,1.55.87,3.13,1.29,4.71a95.34,95.34,0,0,0,3.53,11.37c1.59,3.91,3.87,6.07,7.18,6.81a8.3,8.3,0,0,0,1.36.1,13.34,13.34,0,0,1,5.76-3.87,2.21,2.21,0,0,1,2,.38c2.93.24,5.87.3,9.28.31a10.08,10.08,0,0,1,3.84-1.85,2.19,2.19,0,0,1,.77-.07h.21c3.07,0,6.17.1,9.17.19,2.4.07,4.87.14,7.31.17l.46-.46a2.14,2.14,0,0,1,.25-.21,2.19,2.19,0,0,1,1.76-.85h8.86a24.25,24.25,0,0,1,4.12-1.39,15.93,15.93,0,0,1,5.48-2,2.31,2.31,0,0,1,2.62,1.53,2.22,2.22,0,0,1-.33,2.18v0c-2.92,8-6.71,15.73-14.63,18.28-6.1,2-12.61,1.26-18.92.58l-1.83-.19c-.24.46-.5.93-.78,1.38l-.43.72-.84,0c-5.14-.2-11.8-.23-18.1,1.25a30.32,30.32,0,0,1,11.61,5.15l1.35,1-1.19,1.17q-.79.78-1.58,1.53c2.34,2.62,6.25,3.51,10.37,4.46a31.25,31.25,0,0,1,8.54,2.82c3,1.71,4.76,4.37,6.5,6.95s3.44,5.09,6.2,6.41l.91.43c4.28,2,8.71,4.12,6.7,11.18a9.73,9.73,0,0,1-6,6.54,17.64,17.64,0,0,1-4.42,1,14.87,14.87,0,0,1-2,.09,6.71,6.71,0,0,0-1.39.08,3.09,3.09,0,0,0,0,1.15,2.28,2.28,0,0,1-1.22,2.51,24.59,24.59,0,0,0-5.37,3.78c-2.83,2.38-5.76,4.83-9.77,5.17a19.87,19.87,0,0,1-5.14-.44,13.64,13.64,0,0,0-5.35-.26,21.24,21.24,0,0,0-6.26,3.23c-.69.45-1.36.89-2,1.29-.85.52-1.72,1-2.58,1.49-4.07,2.31-7.59,4.3-9,8.74a37,37,0,0,0-1.37,12.07c.1,3.57.25,5.36,2.5,7.09,3.09,2.37,6.62,6.06,5.94,10.17-.41,2.46-2.47,3.48-4.12,4.31a6.15,6.15,0,0,0-2.58,1.83c-1.52,2.49.68,5.78,2.62,8.67a29.76,29.76,0,0,1,2,3.17,17.28,17.28,0,0,1,1.76,5.45,44.17,44.17,0,0,1,.16,7.37,35.9,35.9,0,0,0,.29,7.83l.39-.46Zm101.56-54.66Zm-13.35-21v0ZM110,160.19l-.09.06Zm142.14-22.4h0Zm-.22-.07h0Zm1.12-2.6h0Zm-30-4.44h0Zm-30-47.1v0ZM190.21,83v0ZM139,65.13h0ZM177.67,39.3h0Z"/></svg>