<svg id="Layer_1" data-name="Layer 1" xmlns="http://www.w3.org/2000/svg" viewBox="0 0 350 350"><defs><style>.cls-1{fill:#999;}.cls-2{fill:#f90;}</style></defs><title>M</title><path class="cls-1" d="M310.34,28.48c.54-4.09-1.74-6.86-4.73-9a1.23,1.23,0,0,1,.91-.38,1.92,1.92,0,0,1-.34-.26,26.68,26.68,0,0,1-3.49-4.71A24.09,24.09,0,0,1,300.76,11c-.63-.76-1.25-1.53-1.9-2.27A2.29,2.29,0,0,1,298.24,7a6.22,6.22,0,0,0-2.68-.17,9.51,9.51,0,0,1-1.76-.15c-6.67-.42-6.67-.42-7.08,6.33-.27,4.39-1.33,5.1-5.6,3.73-3.68-1.18-7.68,2.12-6.8,5.88.67,2.86-1.27,3.35-2.89,3.16a16.26,16.26,0,0,1-11.34-6.07c-2.85-3.68-3.11-3.83-6.5-.38-.41.42-.81.86-1.19,1.32-5.79,7-11.53,13.95-17.36,20.87-3,3.51-7.64,3.75-11.23.77-1-.82-2-1.57-3-2.38s-2.12-1.18-3.31.07c-1.83,1.93-3.85,3.67-5.74,5.54-5.88,5.83-11.43,12.25-18.31,16.7-7.19,4.66-15.33,8-23.51,10.85-6.41,2.24-13.27,3.33-19.33,6.38-14,7-28.61,12.06-43.66,16.15-6.61,1.8-13.48,3.25-19.32,7.05-4.46,2.9-9.11,5.5-13.51,8.46a14.29,14.29,0,0,1-1.88,1.05q-3.15.59-6.26,1.27a17.51,17.51,0,0,1-4.29-.71c-6.23-1.83-11.47-1.78-16.16,3.61a26.42,26.42,0,0,1-4,3.73c-.65,1.51-1.27,3-1.91,4.56a5,5,0,0,1,2.12.86h0a12.41,12.41,0,0,1,2,1.68c4.92,5,9.51,10.27,16.69,12.75,12.8,4.43,18.06,2.42,27.83-5.84,2-1.68,4.32-2.38,6.85-1.14,1.49.73,3.71,1.62,3.4,3.21-.35,1.75-2.67,1.47-4.33,1.35-.89-.06-1.77-.18-2.65-.26-.59,0-1.42-.11-1.52.55-.55,3.46-4,3.51-5.83,3.64-5.14.36-9.06,4.49-14.3,4.07-.24,0-.63.45-.78.77-.69,1.42-2,1.74-3.35,2.06-2.59.61-5.16,1.32-7.71,2-1.41.4-2.3,1.08-1.32,2.76a20.32,20.32,0,0,1,1.91,6.17c.92,4.36,3.57,8.09,4.88,12.34.16.52,1,.87,1.58,1.23q5.5,3.46,11,6.89a3.25,3.25,0,0,1,1.78,3.16c-.28,1.26-1.8.86-2.83.69-2.19-.36-2.84.75-2.81,2.69,0,2.57-.58,5.31.13,7.67,1.71,5.64-1.89,7.58-5.59,10.29-4.85,3.55-9.39,7.65-11.91,13.41-1.32,1.33,0,3.24-1.1,4.68a4.3,4.3,0,0,0-.11,4.93,7.34,7.34,0,0,1,.67,3.38c-1.95,1.25-4.3,1.88-5.83,3.77a42.2,42.2,0,0,1,3.46,6.38c3.53,4.23,6.58,8.84,9.87,13.26a5,5,0,0,1,0,6.6c-2.92,4-3,8.28-2.47,13a69.31,69.31,0,0,1,.2,11.51,3.07,3.07,0,0,0,.71,2.53,11.5,11.5,0,0,1,3.75-.36,7.31,7.31,0,0,1,.94.15c3.72-.68,7.49-.48,11.24-.64,2.42-.11,4.28.23,4.55,3.11.33,3.41,3.26,4.8,5.42,6.71,2.62,2.31,2.81,2.89-.07,4.91-1.65,1.16-1.84,2.1-.42,3.69-3.09.26-5-2.32-7.63-2.36a1,1,0,0,0-1.43,0H72.72a.53.53,0,0,0-.88,0l-1.46,0-.78-.33L66,302.17l-.19-.05c2.56,3.48,5.18,6.91,7.92,10.25.43.53.89,1.05,1.34,1.58,2.32,2.22,4.93,3.38,8.2,2.54a31.49,31.49,0,0,1,7.06-.5,18.51,18.51,0,0,1,.41,2.43q1.07.06,2.14.21c.09-1.2.72-1.57,2-1.27,4.33,2.74,5.44,2.53,8.24-1.56a1.19,1.19,0,0,0,.15-.25c.58-1.59,1.33-1.81,3.1-1.24a32.61,32.61,0,0,0,7.52,1c1,.07,1.22-.82,1.29-1.66.9-1-.46-2.3.33-3.36,3.7,3.37,2.29,5.57.77,10.66-.38,1.29-1.4,2.42-1.65,3.72-.6,3.09-1.19-.36-1.75.06-.32.55-.42,1.3,0,1.66,2.18,2,.09,3.14-.89,4.26a2,2,0,0,1-.91.45c.52.76,1,1.54,1.52,2.33a21.1,21.1,0,0,1,6-.19,2,2,0,0,1,2,1.38l.07.18a38.16,38.16,0,0,1,16.4-1.94,5.56,5.56,0,0,1,1.14.25c1.47-.55,2.31-1.89,2.56-4.07,3.61,1,6.89,2.74,10.26,4.27,2.59,1.17,3.38,3.85,5,5.8a8.69,8.69,0,0,1-.68,3.16,9.64,9.64,0,0,0,1.89,1.23,7.7,7.7,0,0,1,1.39-2.31,32.72,32.72,0,0,0,7.67-13.07c.12-.44.45-1.14.75-1.18,2.5-.31,1.75-2.1,1.74-3.57,0-5.14,2.62-9.71,3.18-14.72,0-.25.37-.46.52-.71,2.17-3.74,6-4.49,9.75-5.39,1.74-.42,2.6-1.13,2.37-3-.14-1.13-.18-2.17,1.53-2.14s3.09-.53,3.21-2.36-1.54-2-2.86-2.36a3.15,3.15,0,0,1-.69-.41c.84-1.11,2.69,1.08,2.88-.84.14-1.44-1.56-1.19-2.51-1.45-1.31-.35-1-1-.45-1.69,1.33-1.6,1.11-3.15.25-4.9a5.51,5.51,0,0,1,.08-4.05c.9-3,1.36-6.15,2-9.22.8-3.69-1.26-6.63-1.89-9.92h0l.18-2.36-1.65.11a2,2,0,0,1-1.24.48,2,2,0,0,0,1.24-.48l1.65-.11a2.32,2.32,0,0,0,.57-1.07,1.89,1.89,0,0,1-.64-1.15c-1.11-6.58-3.31-16.08.42-22.15,1.76-2.86,4.2-4.71,6.48-6.75A3.1,3.1,0,0,1,194,225a2.08,2.08,0,0,1,1.63-.58,14.88,14.88,0,0,0,3.17-5.52c1.83-5.78,2.18-11.71,4.41-17.41a2.27,2.27,0,0,1,.91-1.09,17.53,17.53,0,0,0-.68-5.48,14.87,14.87,0,0,1,.47-8.11q1-3.39,1.9-6.79a31.39,31.39,0,0,1,3.71-.26c2.06.09,3-.7,2.67-2.82l-3.3-1.48-.57.54.57-.54h0l3.3,1.48c1-.63,2.16-.16,3.24-.28,1.62.94,2.59-.21,3.63-1.14,1.76-.81,4.13-1.16,5.15-2.53,2.83-3.78,6.83-6.6,8.58-11.32,1.25-3.37,1.51-6.12-.21-9.47-2.77-5.39-4.23-11,.79-16.25a11.89,11.89,0,0,0,2.11-3.18,13.8,13.8,0,0,1,7.56-6.94c3.43-1.49,6.54-3.83,7.07-8,.55-4.4,3-7.54,6.16-10.35,3.89-3.44,21-18.05,23.23-20.31a6.56,6.56,0,0,1,5.24-2c6.19,0,12.42.37,18.51-1.28,2.53-.68,5.89-3.46,5.57-5-.42-2-1.12-4-1.74-5.92a1.3,1.3,0,0,0-1.62-.94c-4.17.84-3.48-2.62-3.87-4.7-.45-2.36.08-4.6,3.35-4.46,1.25.05,2.24-.7,3.34-1.08,1.87-.64,2-1.73.67-3-3.17-2.88-4.12-6.21-2.38-10.21.07-.15,0-.38-.07-.58h0l1-2.72a2.84,2.84,0,0,1,.14-1.71q-.2-1.83-.27-3.74c0-.66,0-1.35,0-2,.08-.31.13-.62.22-.93C308.37,34.13,310,31.38,310.34,28.48ZM171.92,305.32a7.44,7.44,0,0,0-.6.61q.35-1.91.66-3.82c0,.08.08.16.11.25C172.46,303.36,173,304.38,171.92,305.32Zm28.87-113.59v.78l.53,1.93c.58.19.94.43,1,.73-.08-.3-.43-.54-1-.73l-.53-1.93q0-.39,0-.78c.81-3.18,1.61-6.37,2.44-9.55C202.4,185.36,201.6,188.55,200.79,191.73Z"/><path class="cls-2" d="M158.11,345.43l-1.36-.65a11.05,11.05,0,0,1-2.17-1.41l-.8-.65.38-1a7.92,7.92,0,0,0,.56-2.17c-.44-.58-.81-1.17-1.18-1.76-.87-1.4-1.63-2.6-3-3.22-.79-.36-1.57-.72-2.35-1.09a57,57,0,0,0-6.25-2.66,5.11,5.11,0,0,1-3.15,3.59l-.46.17-.47-.15a4.13,4.13,0,0,0-.85-.19,36.62,36.62,0,0,0-15.8,1.87l-1.31.44-.54-1.48c-.12-.33-.14-.4-.8-.46a19.52,19.52,0,0,0-5.64.17l-1,.18-.51-.83c-.42-.69-.9-1.41-1.49-2.28l-1.1-1.62,1.88-.54.31-.11c.18-.19.38-.39.58-.59s.82-.79.84-1a1.56,1.56,0,0,0-.49-.61,2.73,2.73,0,0,1-.26-3.42l.14-.25.23-.17a1.57,1.57,0,0,1,1.27-.29l.25.07a12.79,12.79,0,0,1,.71-1.42,7.72,7.72,0,0,0,.67-1.42c.2-.67.4-1.29.58-1.87a14.17,14.17,0,0,0,.94-4,2.47,2.47,0,0,1-2.67,2.06l-1.42-.1a26.05,26.05,0,0,1-6.43-1,2.65,2.65,0,0,0-1.06-.22,3.27,3.27,0,0,0-.27.59,2.17,2.17,0,0,1-.3.54c-3.2,4.65-5.18,5.1-10,2.13h-.08v0l-.11,1.51-1.5-.21c-.67-.09-1.35-.16-2-.2l-1.2-.06-.13-1.19c0-.42-.1-.8-.16-1.15h-.57a20.15,20.15,0,0,0-5,.43c-3.46.89-6.58-.05-9.53-2.89l-.1-.11-.41-.48c-.32-.37-.63-.74-.94-1.11-2.48-3-5.08-6.38-8-10.31l-2.53-3.45,4.09,1.25h0l3.66.28.74.32h.71a1.88,1.88,0,0,1,.89-.23,2.17,2.17,0,0,1,.9.23h3a2.27,2.27,0,0,1,2.39.06,9.71,9.71,0,0,1,3.5,1.27c.43.23.84.44,1.24.62a2.63,2.63,0,0,1,0-.29,4.09,4.09,0,0,1,2-2.7,7.61,7.61,0,0,0,1.45-1.18,11.67,11.67,0,0,0-1.5-1.5c-.45-.39-.93-.76-1.41-1.14-2-1.51-4.17-3.21-4.49-6.5-.14-1.49-.59-1.95-3.08-1.83-1.12,0-2.24.07-3.37.08a46.05,46.05,0,0,0-7.68.54l-.27.05-.27-.06a6,6,0,0,0-.76-.12,10,10,0,0,0-3.29.31l-.74.19-.57-.51A4.35,4.35,0,0,1,58.11,285a68.32,68.32,0,0,0-.19-11.27c-.55-4.55-.6-9.39,2.73-14a3.58,3.58,0,0,0,0-4.92c-1.13-1.51-2.23-3-3.33-4.58-2.07-2.88-4.21-5.87-6.5-8.62l-.13-.16-.08-.19a40.43,40.43,0,0,0-3.35-6.17l-.57-.86.65-.81a12.13,12.13,0,0,1,4.28-3c.41-.21.8-.4,1.18-.61a4.13,4.13,0,0,0-.44-1.9,5.66,5.66,0,0,1,.22-6.49c.21-.28.21-.68.18-1.37a4.38,4.38,0,0,1,.83-3.23c2.8-6.26,7.77-10.47,12.27-13.77l.95-.69c3.54-2.54,5.33-4,4.12-8a15.56,15.56,0,0,1-.3-5.6c.06-.86.11-1.67.1-2.46a4.18,4.18,0,0,1,1.2-3.42,3.84,3.84,0,0,1,3.26-.68l.32.05a8,8,0,0,0,.9.12,2.35,2.35,0,0,0-1.15-1.42q-5.52-3.44-11-6.9l-.37-.21a3.41,3.41,0,0,1-1.81-1.8,39.79,39.79,0,0,0-2.16-5.2,33.13,33.13,0,0,1-2.75-7.27l-.14-.69a16.73,16.73,0,0,0-1.6-5.07,3.26,3.26,0,0,1-.42-2.92A3.63,3.63,0,0,1,57.57,149c2.45-.7,5.08-1.43,7.78-2.07,1.42-.33,2-.55,2.4-1.3.08-.17.84-1.68,2.17-1.56a9.63,9.63,0,0,0,4-.59c-3.88.49-8.21-.25-14-2.25C53,138.85,48.44,134.09,44,129.49l-1.34-1.38a11,11,0,0,0-1.73-1.49,3.59,3.59,0,0,0-1.53-.63l-1.84-.24,1.38-3.3c.41-1,.83-2,1.25-3l.15-.35.3-.23a25.16,25.16,0,0,0,3.8-3.53c5.63-6.47,12.07-5.67,17.63-4a16.26,16.26,0,0,0,3.77.65c2-.43,4-.84,5.94-1.21a12.54,12.54,0,0,0,1.53-.87c2.46-1.66,5-3.22,7.5-4.72,2-1.21,4-2.46,6-3.75,5.24-3.41,11.23-5,17-6.51l2.7-.72c17.07-4.64,30.86-9.74,43.4-16a67.07,67.07,0,0,1,12.41-4.33c2.35-.65,4.78-1.32,7.09-2.13C176.21,69.33,185,66,192.67,61c5.24-3.39,9.81-8.08,14.24-12.62,1.28-1.31,2.55-2.62,3.84-3.89.78-.77,1.58-1.52,2.38-2.27,1.12-1,2.27-2.13,3.33-3.24,1.59-1.68,3.35-1.74,5.24-.19.46.38.94.75,1.42,1.12s1.08.83,1.6,1.27c3,2.52,6.83,2.27,9.24-.59,4-4.73,8-9.58,11.89-14.27l5.47-6.59c.4-.49.83-1,1.27-1.4,1.82-1.86,3-3,4.52-2.91s2.56,1.41,4.11,3.41a14.91,14.91,0,0,0,10.38,5.53,1.78,1.78,0,0,0,1.33-.2c.11-.12.18-.52,0-1.23a6.2,6.2,0,0,1,1.95-6,6.81,6.81,0,0,1,6.67-1.54c2.22.71,2.89.6,3.08.47s.53-.68.67-2.93c.23-3.77.35-5.66,1.68-6.84s3.19-1.06,6.9-.82c.26,0,.51.05.77.09a3.23,3.23,0,0,0,.72.06,7.55,7.55,0,0,1,3.28.23l1.08.33-.09,1.13a.89.89,0,0,0,.27.67c.54.61,1.06,1.25,1.58,1.88l.52.68a22.8,22.8,0,0,0,1.82,3l.07.1a25,25,0,0,0,3.3,4.46l.11.07,4.18,2.86-2.42-.13a9.56,9.56,0,0,1,2.66,8h0a23.4,23.4,0,0,1-1.7,5.55c-.43,1.07-.83,2.08-1.13,3.1,0,.13-.07.27-.1.41l-.07.3v.53c0,.43,0,.85,0,1.27,0,1.26.13,2.49.26,3.64l0,.35-.13.33a1.44,1.44,0,0,0-.07.88l.08.39-1,2.72a1.79,1.79,0,0,1-.1,1c-1.44,3.3-.79,6,2,8.6a3.2,3.2,0,0,1,1.32,3.06,3.3,3.3,0,0,1-2.48,2.31,9.39,9.39,0,0,0-.89.38,6.32,6.32,0,0,1-3,.77,2.21,2.21,0,0,0-1.68.44,3,3,0,0,0-.22,2.34,13.47,13.47,0,0,1,.17,1.42c.06.78.15,1.85.5,2.11a2.28,2.28,0,0,0,1.53,0,2.71,2.71,0,0,1,3.25,1.91l.43,1.35a46.71,46.71,0,0,1,1.34,4.7c.59,2.8-4,5.93-6.59,6.64-5.48,1.49-11.07,1.42-16.47,1.35l-2.42,0a5.07,5.07,0,0,0-4.21,1.6c-1.5,1.56-9.6,8.54-16.1,14.15-3.17,2.74-5.92,5.1-7.21,6.24-3.56,3.15-5.26,6-5.7,9.46-.51,4.06-3.1,7.05-7.91,9.14a12.35,12.35,0,0,0-6.84,6.24,13.13,13.13,0,0,1-2.37,3.56c-3.73,3.87-3.89,8.11-.55,14.62,2.15,4.18,1.4,7.57.28,10.61-1.26,3.39-3.53,5.82-5.73,8.18a42.66,42.66,0,0,0-3,3.5,8,8,0,0,1-4.05,2.34c-.52.18-1,.35-1.45.53l-.14.12c-.93.85-2.43,2.23-4.58,1.25-.34,0-.65,0-.94,0l-.52,0a3.27,3.27,0,0,1-.78,2,4.09,4.09,0,0,1-3.42,1.13,15.74,15.74,0,0,0-2.35.14l-.2,0-.32,1.14-1.32,4.71a13.57,13.57,0,0,0-.47,7.35,18.85,18.85,0,0,1,.73,5.93l0,.72-.6.4a.87.87,0,0,0-.37.42,55.93,55.93,0,0,0-2.51,9.52,74.68,74.68,0,0,1-1.87,7.8,16.19,16.19,0,0,1-3.47,6l-.43.48h-.65a1.15,1.15,0,0,0-.55.1,1.71,1.71,0,0,0-.33.91l-.05.55-.41.37L193,228.86a23.51,23.51,0,0,0-5,5.37c-3.08,5-1.69,12.85-.58,19.14.12.7.24,1.38.35,2a.48.48,0,0,0,.18.33l.65.58-.22.84a3.81,3.81,0,0,1-.56,1.26l-.13,1.73a23.4,23.4,0,0,0,.86,2.82c.76,2.17,1.62,4.63,1,7.49-.21,1-.4,2-.59,3-.41,2.09-.83,4.26-1.46,6.38a4.27,4.27,0,0,0-.17,3,5.56,5.56,0,0,1-.06,5.94c.86.11,3.14.45,2.91,2.86a2.91,2.91,0,0,1-.26,1,3,3,0,0,1,.94,2.57c-.15,2.28-1.88,3.69-4.52,3.69h-.28c0,.12,0,.29,0,.55.45,3.59-2.49,4.29-3.45,4.53l-.56.13c-3.36.8-6.54,1.56-8.3,4.59a2.6,2.6,0,0,1-.37.49,38.34,38.34,0,0,1-1.55,6.34,26.11,26.11,0,0,0-1.58,7.88c0,.23,0,.47.05.71.11,1.09.35,3.56-2.5,4.19a1.83,1.83,0,0,0-.09.24c-1.29,4.68-3.83,9-8,13.64a6.25,6.25,0,0,0-1.13,1.9Zm-18.47-18.18,1.59.43a49.11,49.11,0,0,1,8.18,3.27c.77.36,1.53.72,2.31,1.07a10,10,0,0,1,4.23,4.3,16.58,16.58,0,0,0,1.3,1.88l.34.4v.52a8.63,8.63,0,0,1-.13,1.41l.25-.3c3.84-4.28,6.18-8.26,7.35-12.5.17-.61.7-2.05,1.94-2.21a1.31,1.31,0,0,0,.59-.16,4.45,4.45,0,0,0,0-1c0-.32-.06-.65-.06-1a28.64,28.64,0,0,1,1.7-8.74,35.4,35.4,0,0,0,1.45-5.89l-1.58,1.7.87-4.76q.35-1.9.66-3.8l.85-5.17,1.88,4.89c0,.1.08.18.11.26l.11.28a5.07,5.07,0,0,1,.45,2.09c2.22-1.69,5-2.34,7.48-2.94l.55-.13c1.43-.34,1.39-.66,1.3-1.42a3.45,3.45,0,0,1,.58-2.86,3,3,0,0,1,2.38-.87c1.67,0,1.75-.69,1.78-1s0-.43-1.27-.75l-.55-.14a2.83,2.83,0,0,1-.9-.46l-.16-.11-1.33-.82.95-1.25a2.52,2.52,0,0,1,.33-.36,2.11,2.11,0,0,1-1.09-1.24,2.64,2.64,0,0,1,.71-2.42c.81-1,.83-1.83.07-3.37a6.76,6.76,0,0,1,0-5.08c.59-2,1-4.08,1.39-6.11.19-1,.39-2,.61-3,.45-2.08-.21-4-.9-6a24.38,24.38,0,0,1-1-3.4l0-.19.06-.73a3.78,3.78,0,0,1-.94.25l-.23,0L183.4,257c.31,0,.4-.07.42-.09l.38-.36,1-.06a3.49,3.49,0,0,1-.17-.65c-.11-.64-.23-1.31-.35-2-1.2-6.76-2.69-15.18,1-21.12a26.05,26.05,0,0,1,5.57-6l.8-.7a4.42,4.42,0,0,1,.9-1.87,3.15,3.15,0,0,1,2-1.05,13.26,13.26,0,0,0,2.51-4.57,72.35,72.35,0,0,0,1.8-7.51,58.9,58.9,0,0,1,2.65-10,3.51,3.51,0,0,1,.83-1.26,16.74,16.74,0,0,0-.65-4.42l0-.08-1.07.29v0h0a.71.71,0,0,0,.22.36h0a1.34,1.34,0,0,0-.31-.13l-.73-.24-.78-2.86.06-1.31.65-2.57c.56-2.2,1.12-4.4,1.69-6.6l.1-.38h0l1.83.48.15-.55.85-3,1-.08,1.11-.11a18,18,0,0,1,2.78-.16c.82,0,1.13-.12,1.18-.18a.57.57,0,0,0,.07-.28l-2.53-1.14.23-.51L207.33,175l1.26-1.19,3.59,1.61a5.52,5.52,0,0,1,2.21-.16,5.26,5.26,0,0,0,.87,0l.46,0,.4.23c.46.27.6.29,1.65-.67l.48-.43.19-.09a20,20,0,0,1,1.91-.73,6.27,6.27,0,0,0,2.7-1.36,45.52,45.52,0,0,1,3.25-3.74c2.1-2.25,4.08-4.37,5.14-7.23s1.42-5.29-.14-8.33c-2.62-5.11-4.87-11.75,1-17.88a10.5,10.5,0,0,0,1.84-2.8,15.18,15.18,0,0,1,8.28-7.64c3.87-1.68,5.85-3.87,6.23-6.9.67-5.34,3.9-8.81,6.63-11.23,1.29-1.15,4-3.52,7.24-6.27,6.12-5.28,14.5-12.5,15.91-14a7.93,7.93,0,0,1,6.18-2.47h.09l2.44,0c5.21.06,10.59.13,15.69-1.25,2.06-.56,4.36-2.63,4.54-3.38a44.36,44.36,0,0,0-1.25-4.34l-.43-1.35a4.61,4.61,0,0,1-3.79-.56c-1.37-1-1.51-2.76-1.62-4.14,0-.42-.07-.81-.13-1.12A5.47,5.47,0,0,1,301,62.9,4.67,4.67,0,0,1,305,61.48a3.88,3.88,0,0,0,1.66-.51,11.65,11.65,0,0,1,1.17-.49,2.87,2.87,0,0,0,.51-.22,2.75,2.75,0,0,0-.34-.36c-3.65-3.31-4.62-7.17-2.87-11.48,0-.06,0-.11,0-.16l0-.35,1-2.71a4.22,4.22,0,0,1,.15-1.74c-.12-1.13-.2-2.31-.24-3.53,0-.45,0-.92,0-1.38l0-1.06c0-.12.06-.24.08-.35s.09-.41.15-.6c.33-1.15.78-2.27,1.22-3.36a20.88,20.88,0,0,0,1.52-4.87c.39-2.95-.89-5.32-4.16-7.7l-1.41-1,.88-.8a29.64,29.64,0,0,1-2.74-3.89,25.61,25.61,0,0,1-1.94-3.13l-.26-.31c-.5-.61-1-1.21-1.52-1.8A3.93,3.93,0,0,1,297,8.17a5.78,5.78,0,0,0-1.22,0,5.25,5.25,0,0,1-1.52-.07c-.17,0-.35-.06-.52-.07-2.46-.16-4.4-.28-4.85.12s-.57,2.38-.73,4.89-.53,4.16-1.9,5.1-3.22.64-5.55-.11a4,4,0,0,0-3.88.93,3.36,3.36,0,0,0-1.11,3.28A4,4,0,0,1,275,26a4.22,4.22,0,0,1-3.77,1.13A17.67,17.67,0,0,1,259,20.54a11.69,11.69,0,0,0-2.07-2.33,14.11,14.11,0,0,0-2.29,2.07c-.38.39-.76.8-1.11,1.23L248,28.11c-3.89,4.69-7.91,9.54-11.9,14.29-3.43,4.07-9,4.46-13.22.94-.5-.41-1-.81-1.52-1.2s-1-.77-1.49-1.17c-.8-.66-.89-.57-1.38,0-1.11,1.17-2.3,2.29-3.45,3.36-.78.73-1.56,1.46-2.32,2.21-1.28,1.27-2.54,2.56-3.81,3.86-4.53,4.65-9.22,9.46-14.73,13-8,5.16-16.91,8.59-23.81,11-2.4.84-4.88,1.52-7.27,2.18a65,65,0,0,0-11.89,4.13c-12.71,6.39-26.67,11.56-43.93,16.25l-2.72.72c-5.58,1.47-11.34,3-16.2,6.15-2,1.31-4.09,2.57-6.1,3.79-2.45,1.49-5,3-7.39,4.65a15.63,15.63,0,0,1-2.06,1.16l-.35.11c-2,.38-4.14.81-6.22,1.26l-.18,0h-.18a19,19,0,0,1-4.64-.77c-5.7-1.67-10.38-1.77-14.7,3.18a28,28,0,0,1-3.93,3.7q-.55,1.3-1.09,2.61l-.07.16a7.67,7.67,0,0,1,1,.57,13.61,13.61,0,0,1,2.19,1.87L46,127.52c4.42,4.56,8.59,8.87,14.79,11,12.24,4.24,16.87,2.52,26.45-5.59,2.66-2.25,5.57-2.71,8.39-1.33l.42.2c1.59.76,4.25,2,3.75,4.56-.58,2.89-3.81,2.64-5.55,2.51l-.27,0c-.5,0-1-.09-1.5-.14l-1.17-.11H91.2c-1,3.82-5,4.08-6.74,4.19l-.26,0a17.77,17.77,0,0,0-6,1.93c-2.43,1.1-4.95,2.24-7.9,2.16-1,2-2.81,2.42-4.27,2.76-2.64.62-5.24,1.35-7.65,2a2.92,2.92,0,0,0-.68.26,2.1,2.1,0,0,0,.2.42,19.08,19.08,0,0,1,1.93,5.91l.14.67a30.6,30.6,0,0,0,2.54,6.64,43.7,43.7,0,0,1,2.26,5.4,6.12,6.12,0,0,0,.54.33l.49.29q5.49,3.46,11,6.89a4.55,4.55,0,0,1,2.42,4.66c-.55,2.47-3.17,2-4.16,1.83l-.28,0c-.63-.1-.9,0-1,0s-.23.21-.21,1.24,0,1.81-.11,2.69a13.32,13.32,0,0,0,.18,4.59c1.86,6.13-1.88,8.81-5.18,11.17l-.92.67c-4.25,3.11-8.93,7.07-11.45,12.83l-.11.24-.19.19c-.22.22-.24.5-.21,1.35a4.63,4.63,0,0,1-.76,3.2,2.93,2.93,0,0,0,0,3.37,7.22,7.22,0,0,1,.82,3.42c0,.18,0,.37,0,.55l.07.85-.71.46A23.09,23.09,0,0,1,52.88,233a13.51,13.51,0,0,0-2.65,1.58A43.78,43.78,0,0,1,53.11,240c2.31,2.79,4.44,5.76,6.5,8.63,1.09,1.52,2.18,3,3.3,4.54a6.4,6.4,0,0,1,0,8.28c-2.6,3.57-2.76,7.35-2.21,11.95a70.8,70.8,0,0,1,.21,11.75,4.36,4.36,0,0,0,0,.86,12.6,12.6,0,0,1,3.12-.16,7.64,7.64,0,0,1,.85.12,50.49,50.49,0,0,1,7.88-.53c1.09,0,2.19,0,3.28-.08,1.67-.07,5.59-.25,6,4.4.2,2.06,1.68,3.2,3.39,4.52.53.41,1.06.82,1.56,1.26,1.51,1.34,2.58,2.39,2.5,3.79s-1.32,2.38-2.69,3.35c-.67.47-.76.7-.77.72h0a2.46,2.46,0,0,0,.59.87l1.88,2.12-2.82.24a8.74,8.74,0,0,1-5-1.38,6.4,6.4,0,0,0-2.72-1h-.56l-.16-.16-.13.11-.55,0-4.14,0-2.37,0-.83-.35-.4,0c2.12,2.83,4.09,5.35,6,7.65l.9,1.07.37.44c2.23,2.12,4.34,2.78,6.81,2.14a22.66,22.66,0,0,1,5.68-.52c.56,0,1.13,0,1.69,0l1.14,0,.28,1.11c.1.41.19.83.26,1.28a2.37,2.37,0,0,1,.57-.59,3.3,3.3,0,0,1,2.69-.36l.24.05.2.13c3.71,2.34,3.94,2.3,6.32-1.16h0c1.06-2.85,3.15-2.59,4.84-2a23.57,23.57,0,0,0,5.74.82l1.18.08a2.93,2.93,0,0,0,0-.35l0-.46.3-.35a3.68,3.68,0,0,1-.12-.47,3.22,3.22,0,0,1,.38-2.81l.93-1.25,1.16,1.05c3.89,3.55,3,6.38,1.74,10.3-.18.56-.37,1.17-.57,1.82a10,10,0,0,1-.91,2,6.07,6.07,0,0,0-.71,1.6,3.49,3.49,0,0,1-1,2.11,2.88,2.88,0,0,1,.18,1,4.3,4.3,0,0,1-1.71,3.08c-.16.16-.32.31-.46.46l.22.34a23.48,23.48,0,0,1,5.49,0,3.59,3.59,0,0,1,2.62,1.26,39.14,39.14,0,0,1,15.85-1.63,6.64,6.64,0,0,1,.87.15c.52-.32,1.08-1,1.28-2.72ZM111,329.7h0Zm-16.86-11ZM102,315l1.23.68-1.17-.79A.74.74,0,0,0,102,315Zm71.46-6.21h0Zm12.38-9.91ZM92.46,133.68a5.21,5.21,0,0,0-3.35,1.43,60.53,60.53,0,0,1-6.74,5.09A12.51,12.51,0,0,1,84,140l.27,0c2.6-.17,4-.59,4.26-2.43.14-.9.8-1.93,3-1.74l1.23.12c.47,0,.94.1,1.41.13l.28,0c.74.06,2.47.19,2.56-.24,0-.17-.32-.55-2.19-1.45l-.44-.21A4.42,4.42,0,0,0,92.46,133.68Z"/></svg>