<svg id="Layer_1" data-name="Layer 1" xmlns="http://www.w3.org/2000/svg" viewBox="0 0 350 350"><defs><style>.cls-1{fill:#999;}.cls-2{fill:#f90;}</style></defs><title>M</title><path class="cls-1" d="M252.16,126.4a58.12,58.12,0,0,0-8,.46,5.2,5.2,0,0,0-.67-.1,8.18,8.18,0,0,0-2.67.25,2.18,2.18,0,0,1-.5-1.8,49.3,49.3,0,0,0-.14-8.19c-.4-3.32-.32-6.36,1.76-9.21a3.54,3.54,0,0,0,0-4.69c-2.35-3.14-4.51-6.42-7-9.43a30,30,0,0,0-2.46-4.54c1.08-1.34,2.76-1.79,4.14-2.68a5.22,5.22,0,0,0-.48-2.4,3.06,3.06,0,0,1,.08-3.51c.79-1-.16-2.39.78-3.33,1.79-4.09,5-7,8.47-9.54,2.63-1.93,5.19-3.31,4-7.32-.51-1.67-.07-3.63-.1-5.45,0-1.38.44-2.16,2-1.91.73.12,1.81.41,2-.49a2.31,2.31,0,0,0-1.27-2.24q-3.92-2.44-7.83-4.9c-.41-.26-1-.5-1.13-.88-.93-3-2.81-5.67-3.47-8.78a14.45,14.45,0,0,0-1.36-4.39c-.69-1.2-.06-1.68.94-2,1.82-.52,3.65-1,5.49-1.46a3,3,0,0,0,2.38-1.47c.11-.23.38-.56.56-.55,3.73.3,6.51-2.64,10.17-2.89,1.33-.09,3.76-.13,4.15-2.59.08-.47.66-.43,1.08-.39.63.05,1.26.14,1.89.18,1.18.09,2.83.28,3.08-1s-1.35-1.76-2.42-2.28a4.24,4.24,0,0,0-4.87.81c-6.95,5.88-10.69,7.31-19.8,4.16-5.11-1.77-8.37-5.49-11.87-9.07-1.57-1.6-2.88-2.39-5.19-1.4a50.62,50.62,0,0,1-7.64,2.28,2.17,2.17,0,0,0-1.83,1.56c-.5-.05-1-.12-1.5-.14a4.36,4.36,0,0,0-1,.06h-.12A74.32,74.32,0,0,1,201.18,14a7.5,7.5,0,0,0-5.35,1.21c-3.29,2.06-6.72,3.93-10,6l-.59.19a17,17,0,0,0-10.49,9.46,5.44,5.44,0,0,0-2.14,3A38.11,38.11,0,0,0,170.79,50a12.55,12.55,0,0,1-1.08,6.59c-3.84,2.49-7.92,4.65-10.37,8.37a30.68,30.68,0,0,1-11.23,2.16,47.59,47.59,0,0,0-9.6,1c-11.37-.25-22.91.47-34.39,1.31,0-.06,0-.11,0-.17a2,2,0,0,0,.1-.39,24.31,24.31,0,0,1-2.56.21,4.22,4.22,0,0,0,0,.53c-7.07.52-14.11,1.06-21.06,1.4a17.35,17.35,0,0,0-4.77.9C74.1,68.64,69.47,70,68.4,73a40,40,0,0,1-24.5,24.39c-2.79,1-4.08,4.5-1.79,6.76A36.56,36.56,0,0,0,48,108.88a13.64,13.64,0,0,0,.54,5.87c3.76,11.18,7.68,22.5,9.57,34.19.22,1.36.36,2.73.45,4.1-.16.25-.33.5-.51.76a5,5,0,0,0-1,2.71c-.16,3.56-.46,7.11.24,10.66.75,3.83,1.56,7.71-.54,11.42a1.64,1.64,0,0,0,.51,2.24,9.34,9.34,0,0,1,2.65,4c1.61,4.12,4.52,7.13,8,9.71,1.64,1.21,3.5,2,5.15,3.11a10.82,10.82,0,0,1,1.59,1.3s0,0,0,0a48,48,0,0,0,12,34.32q.46,1.1.88,2.22a29.11,29.11,0,0,0,9.33,22,16.37,16.37,0,0,0,1.77,1.22,23.46,23.46,0,0,1-2,4.48l-.34.14c-2.76,1.19-2.54,5.73,0,7a7.31,7.31,0,0,1,3,2.68v0c.35,3,1.52,5.87,2.13,8.84.09,1.18.18,2.32.31,3.38a97.2,97.2,0,0,0,2.83,13.82,160,160,0,0,0,6,17c.58,1.88,1.14,3.76,1.66,5.66,1.1,4,2.05,8.07,4.24,11.77a10.23,10.23,0,0,0,6.15,5.18c1.75.52,2.63.35,3-1.49a19.07,19.07,0,0,1,4.54-8.42c1-1.09,1.44-2.58,2.88-3.27a26,26,0,0,1,8.37-2.6c5.25-.6,10.63-.64,15.45-3.44,2.54-1.47,4.74-3,4.93-6.22l-.25-2.09c.67.2.66.73.86,1.13a50,50,0,0,0,4.64-2.41,2.64,2.64,0,0,1,3.08-.11,30,30,0,0,0,7.46,2.78c1.82.43,3.81.69,5.31,1.86,1,.81,1.78.92,2.71.05a1.55,1.55,0,0,1,2.38,0,9,9,0,0,0,6.42,2.09c2.95-.09,5.9,0,8.85.16a3.91,3.91,0,0,0,3.31-1.38c2.46-2.59,5-4.93,9-5.06a46,46,0,0,1,7.94.61c1.38.2,2.34.62,2.72,2.09.84,3.24,3.13,5.07,6.18,6.1l.74,0a6.92,6.92,0,0,0,3.18.55c4.41-.26,5.42-4.5,5.6-8.12a40.65,40.65,0,0,1,.12-4.8,4.92,4.92,0,0,0,1.66-.88,39.54,39.54,0,0,0,6.4-6.45,4.68,4.68,0,0,0,.95-2,6.19,6.19,0,0,1,1.78-.22,1.39,1.39,0,0,0,1.28-1c.31-.81-.5-1-1-1.4-.62-.52-1.7-.83-1.57-1.79s1.22-1,2-1.19c2-.43,3.24-1.38,3-3.72a28.33,28.33,0,0,1,.31-4,2.81,2.81,0,0,1,1.56-2.26c2.26-1.58,4.74-1.43,7.26-1.36a13.9,13.9,0,0,0,6.43-1.68c.92-.44,1.41-1.08.18-1.74s-1.17-1.74-1-2.9a36.93,36.93,0,0,1,1.83-7.32c.56-1.6.13-2.48-1.41-3-1-.35-2-.64-2.29-1.91a19.06,19.06,0,0,0-2.59-5.95c-.15-.23-.33-.49-.47-.76.1-.6.19-1.2.27-1.8.53-.27,1.28,0,1.89,0,1.87.18,3.68.81,5.62.27a2.41,2.41,0,0,0,1.88-2c.29-1.13-.55-1.6-1.21-2a12.1,12.1,0,0,1-3.59-2.93,7.65,7.65,0,0,0,.64-1.47,3.59,3.59,0,0,0-2.35-4.66,8.78,8.78,0,0,1,.44-5.46c.34,0,.69,0,1.06,0,1.26,0,1.29-1.12,1.64-1.88,1-2.2,2.09-4.43-.32-6.48a.78.78,0,0,1-.11-.31s0,0-.06-.05a68.41,68.41,0,0,0-.79-7.58v-.07a3.4,3.4,0,0,0,1.25-2.25,14.54,14.54,0,0,0-.54-7.87,3.49,3.49,0,0,0,.71-.07c.37-3.26,2-5.83,4.12-8.28,1.74-2,3.22-3.74,6.23-2.72,1.59.54,2.22-.43,1.88-1.94a9.92,9.92,0,0,1-.2-3.15,4.42,4.42,0,0,0,.56-.86c.71-1.43,1.46-2.79,2.24-4.13a45,45,0,0,1,5.35-7,3.08,3.08,0,0,1,.16,1,4.26,4.26,0,0,0,1.23-1.83,9.16,9.16,0,0,1,.66-1.26q1.87-1.84,3.87-3.57l.11-.06a5.89,5.89,0,0,0,2.46-2.13l2.06-1.71a3.55,3.55,0,0,0,1.31-2H305c.78.08,1.91.55,2.3-.38.69-1.64,1.78-3.18,1.79-5.07-1.17-1.39-1.73-3.29-3.58-4.13a48.45,48.45,0,0,0-7.3-3c-.18,1.55-.77,2.5-1.82,2.89a4,4,0,0,0-.81-.17,27.14,27.14,0,0,0-11.67,1.38l0-.13a1.41,1.41,0,0,0-1.42-1,15,15,0,0,0-4.3.13c-.35-.57-.71-1.12-1.08-1.66a1.41,1.41,0,0,0,.64-.32c.7-.8,2.19-1.64.63-3-.29-.26-.21-.79,0-1.18.4-.3.82,2.16,1.24,0,.18-.92.9-1.73,1.17-2.64,1.08-3.62,2.08-5.19-.55-7.58-.56.76.4,1.66-.23,2.39-.05.6-.24,1.24-.92,1.18a23.19,23.19,0,0,1-5.35-.7c-1.26-.41-1.79-.25-2.2.88a.85.85,0,0,1-.11.18c-2,2.91-2.78,3.06-5.86,1.11-.93-.21-1.38,0-1.44.9q-.76-.11-1.52-.15a13.17,13.17,0,0,0-.29-1.73,22.4,22.4,0,0,0-5,.35,5.87,5.87,0,0,1-5.83-1.81c-.32-.37-.64-.75-1-1.12-2-2.37-3.81-4.81-5.63-7.29l.14,0,2.54.2.56.24,1,0a.38.38,0,0,1,.62,0h2.75a.67.67,0,0,1,1,0c1.89,0,3.23,1.87,5.43,1.68-1-1.13-.87-1.8.3-2.62,2-1.44,1.91-1.85,0-3.49Z"/><path class="cls-2" d="M123.93,340.42a6.37,6.37,0,0,1-1.79-.31c-3-.89-5.09-2.63-7-5.81a42.18,42.18,0,0,1-4-10.79l-.36-1.33c-.47-1.71-1-3.53-1.63-5.56a159.71,159.71,0,0,1-6-17.12,99.4,99.4,0,0,1-2.87-14c-.12-1-.2-2-.28-3l0-.34c-.23-1.11-.55-2.2-.88-3.36a36,36,0,0,1-1.22-5.2,5.83,5.83,0,0,0-2.22-1.92,5.38,5.38,0,0,1-2.77-5,4.93,4.93,0,0,1,2.77-4.48,17.36,17.36,0,0,0,1.18-2.75v0a8,8,0,0,1-1-.75,30.51,30.51,0,0,1-9.79-22.81c-.22-.58-.45-1.15-.68-1.72a49.61,49.61,0,0,1-12.22-34.53,8.2,8.2,0,0,0-.92-.71c-.65-.43-1.34-.81-2.07-1.22A28.67,28.67,0,0,1,67,195.66c-4.27-3.16-7-6.44-8.49-10.33a7.87,7.87,0,0,0-2.24-3.4,3.05,3.05,0,0,1-.84-4c1.8-3.19,1.13-6.61.43-10.24l0-.21a39.72,39.72,0,0,1-.32-9.72l.06-1.27A6.37,6.37,0,0,1,56.9,153l.21-.3c-.09-1.24-.22-2.39-.4-3.5-1.78-11-5.44-21.88-9-32.38l-.53-1.58a14.6,14.6,0,0,1-.68-5.61,38,38,0,0,1-5.39-4.45,5.19,5.19,0,0,1-1.47-4.89A5.9,5.9,0,0,1,43.43,96,38.4,38.4,0,0,0,67.07,72.5a6.11,6.11,0,0,1,5.29-3.88,4.75,4.75,0,0,1,4,1.68,18.92,18.92,0,0,1,4.11-.65c6.46-.31,13.12-.81,19.57-1.29l.27,0,.07-.58,1.21,0a23.08,23.08,0,0,0,2.41-.2l2-.28-.14.69c10.44-.75,21.48-1.42,32.54-1.19a48.17,48.17,0,0,1,9.73-1,28.83,28.83,0,0,0,10.3-1.91c2.23-3.17,5.53-5.24,8.72-7.25l1.46-.92a11.24,11.24,0,0,0,.79-5.5,39.36,39.36,0,0,1,1.92-16.73,7.17,7.17,0,0,1,2.34-3.5,18.43,18.43,0,0,1,11.17-9.87l.37-.12.07,0c1.8-1.16,3.67-2.26,5.47-3.32,1.46-.86,2.92-1.72,4.36-2.62a8.87,8.87,0,0,1,6.31-1.41l1.94.3a56.87,56.87,0,0,0,8.46.91h0a5.91,5.91,0,0,1,1.15-.05l.59,0a3.94,3.94,0,0,1,2.32-1.42l.87-.22a43.33,43.33,0,0,0,6.56-2c3.15-1.35,5.11,0,6.76,1.71l1,1c3.11,3.21,6,6.24,10.36,7.73,8.52,2.95,11.74,1.75,18.42-3.9a5.66,5.66,0,0,1,6.41-1l.29.14c1.16.55,3.31,1.58,2.89,3.69-.48,2.41-3.21,2.2-4.38,2.11h-.19l-1.09-.1-.58-.06c-.9,2.68-3.78,2.87-5.07,3h-.18a12.33,12.33,0,0,0-4.15,1.34,13.31,13.31,0,0,1-5.54,1.58,4.48,4.48,0,0,1-3.19,2c-1.86.44-3.71,1-5.43,1.44h0a14.22,14.22,0,0,1,1.35,4.21l.1.47A21.44,21.44,0,0,0,242.79,40a32.39,32.39,0,0,1,1.58,3.76l.24.13.37.22q3.91,2.46,7.83,4.9a3.64,3.64,0,0,1,1.9,3.75c-.31,1.42-1.46,2-3.43,1.62l-.2,0a2.17,2.17,0,0,0-.32,0,2.46,2.46,0,0,0,0,.52c0,.66,0,1.31-.08,1.95a9.23,9.23,0,0,0,.11,3.12c1.4,4.64-1.38,6.64-3.84,8.4l-.66.47c-3,2.18-6.26,5-8,9l-.11.24-.19.19a2.13,2.13,0,0,0,0,.66,3.69,3.69,0,0,1-.63,2.54,1.65,1.65,0,0,0,0,1.94A5.55,5.55,0,0,1,238,86l.09,1.23-.71.46a16.89,16.89,0,0,1-1.56.86,11.69,11.69,0,0,0-1.53.86,31.49,31.49,0,0,1,1.86,3.56c1.64,2,3.15,4.08,4.61,6.12.77,1.08,1.54,2.16,2.34,3.22a4.93,4.93,0,0,1,0,6.38c-1.77,2.43-1.88,5-1.49,8.21a50.75,50.75,0,0,1,.15,8.42s0,.08,0,.12a9.14,9.14,0,0,1,1.87,0,5.67,5.67,0,0,1,.57.08,36.62,36.62,0,0,1,5.6-.37c.77,0,1.55,0,2.32-.06l.62,0,7.54,7.42c.92.81,1.93,1.7,1.86,3s-1,1.95-2.09,2.69a3.31,3.31,0,0,0-.29.23,3.2,3.2,0,0,0,.24.29l1.89,2.12-2.83.24a6.61,6.61,0,0,1-3.81-1,4.32,4.32,0,0,0-1.75-.65l-.58,0-3.19,0-1.7,0c1.24,1.64,2.42,3.12,3.55,4.5l.63.75.26.3a4.43,4.43,0,0,0,4.45,1.41,16.42,16.42,0,0,1,4.15-.38l1.19,0,1.14,0,.28,1.11,0,.2a2.77,2.77,0,0,1,2.15-.26l.24.05.2.13c2.4,1.52,2.41,1.52,3.94-.71,1-2.56,3.2-1.84,3.92-1.61a16.48,16.48,0,0,0,4,.57l.45,0,0-.31.16-.19,0-.14a2.68,2.68,0,0,1,.34-2.33L280,141l1.16,1.05c3,2.7,2.25,4.93,1.35,7.75-.13.4-.26.82-.4,1.28a7.49,7.49,0,0,1-.68,1.49,4.09,4.09,0,0,0-.46,1,3.26,3.26,0,0,1-.62,1.55,2.44,2.44,0,0,1,.07.55,3.17,3.17,0,0,1-1.12,2.28,18.23,18.23,0,0,1,3.27,0,3,3,0,0,1,2,.84,28.14,28.14,0,0,1,11.18-1.1l.48.07a2.32,2.32,0,0,0,.59-1.54l.19-1.63,1.59.43a35.24,35.24,0,0,1,5.89,2.35l1.63.76a7.41,7.41,0,0,1,3.19,3.21,11.54,11.54,0,0,0,.89,1.29l.34.4v.52a10,10,0,0,1-1.34,4.4c-.2.4-.4.8-.57,1.21a2.47,2.47,0,0,1-2.85,1.38,5.42,5.42,0,0,1-1.32,1.55l-1.89,1.57a7.26,7.26,0,0,1-2.82,2.4c-1.26,1.1-2.46,2.21-3.57,3.29a7,7,0,0,0-.47.91,5.66,5.66,0,0,1-1.63,2.39l-2.37,2v-.41a41.61,41.61,0,0,0-2.85,4c-.86,1.47-1.55,2.76-2.18,4a5.84,5.84,0,0,1-.45.75,8.51,8.51,0,0,0,.2,2.32,3.1,3.1,0,0,1-.74,3.19,2.85,2.85,0,0,1-3,.4c-2-.67-2.87.21-4.65,2.26-2.41,2.77-3.54,5-3.83,7.57l-.11,1-.18,0a16.75,16.75,0,0,1,.11,7,5,5,0,0,1-1.17,2.58l0,.35c.28,2,.56,4.11.64,6.1l0,.26c2.72,2.62,1.34,5.66.41,7.7l-.06.13a3.9,3.9,0,0,0-.14.38,2.88,2.88,0,0,1-2.78,2.33h0a6.94,6.94,0,0,0-.23,3.05,5,5,0,0,1,2.45,6.09c-.09.27-.18.54-.29.79a10.2,10.2,0,0,0,2.55,1.92,3.06,3.06,0,0,1,1.93,3.56,3.79,3.79,0,0,1-2.87,3,10.48,10.48,0,0,1-4.68,0c-.48-.08-1-.16-1.45-.21l-.52-.07,0,.15.09.13.09.13a20.57,20.57,0,0,1,2.78,6.39c.09.39.26.51,1.2.85l.19.07c2.29.84,3.08,2.52,2.26,4.84a35,35,0,0,0-1.77,7c-.16,1.23-.07,1.28.28,1.46a2.32,2.32,0,0,1,1.48,2.11c0,.61-.32,1.49-1.72,2.16a15.13,15.13,0,0,1-7.08,1.82h-.3c-2.32-.07-4.32-.13-6.1,1.11-.86.6-.94.79-1,1.18s-.1,1.07-.17,1.61a10.15,10.15,0,0,0-.14,2.16c.26,2.84-1.14,4.61-4.15,5.24l-.38.07h0a5.62,5.62,0,0,1,.6.43,2,2,0,0,0,.21.14,2.21,2.21,0,0,1,1.16,2.85,2.83,2.83,0,0,1-2.64,1.88,4.34,4.34,0,0,0-.62,0,6.23,6.23,0,0,1-1,1.7A41,41,0,0,1,244.5,307a6.51,6.51,0,0,1-1.24.78c0,.58,0,1.2,0,1.84s0,1.32,0,2c-.37,7.51-4,9.29-6.93,9.47a8.37,8.37,0,0,1-3.53-.54h-.66l-.27-.08c-3.82-1.3-6.21-3.68-7.1-7.08-.16-.61-.34-.87-1.54-1a44.9,44.9,0,0,0-7.7-.59c-3.43.11-5.65,2.16-8,4.62a5.35,5.35,0,0,1-4.41,1.82c-3.44-.18-6.22-.23-8.73-.16a10.22,10.22,0,0,1-7.39-2.44,1.48,1.48,0,0,0-.32-.23l-.17.14a3.19,3.19,0,0,1-4.55,0,9.37,9.37,0,0,0-3.8-1.38l-1-.22a31.27,31.27,0,0,1-7.8-2.92,1.27,1.27,0,0,0-1.63,0,29.86,29.86,0,0,1-3.39,1.81l-1.22.59c-.3,4.14-3.5,6-5.62,7.23-4.27,2.48-8.88,2.92-13.34,3.35-.89.09-1.78.17-2.66.27a24.53,24.53,0,0,0-7.91,2.47,4.06,4.06,0,0,0-1.47,1.6,11.73,11.73,0,0,1-1,1.32,17.46,17.46,0,0,0-4.22,7.79,3.62,3.62,0,0,1-1.54,2.48A2.9,2.9,0,0,1,123.93,340.42ZM76,199.14a46.85,46.85,0,0,0,11.65,33.22l.16.18.09.22c.31.75.61,1.5.9,2.26l.09.25v.26a27.69,27.69,0,0,0,8.88,21,11.7,11.7,0,0,0,1.17.81l1.38.89-.42,1.07c-.14.35-.27.71-.4,1.06A17.29,17.29,0,0,1,97.82,264l-.25.38-.53.21-.24.1a2.19,2.19,0,0,0-1.07,2,2.63,2.63,0,0,0,1.2,2.43,8.75,8.75,0,0,1,3.52,3.19l.18.28,0,.33a31.4,31.4,0,0,0,1.17,5.08c.34,1.18.69,2.4.95,3.65l0,.18,0,.43c.08,1,.16,2,.27,2.87a96.29,96.29,0,0,0,2.79,13.62,157,157,0,0,0,5.91,16.88l0,.11c.64,2.08,1.19,3.94,1.67,5.7l.36,1.34a39.38,39.38,0,0,0,3.73,10.09c1.5,2.54,3,3.86,5.33,4.54a2.88,2.88,0,0,0,1.06.19,5.28,5.28,0,0,0,.19-.63,20.44,20.44,0,0,1,4.85-9,9.55,9.55,0,0,0,.72-1,6.58,6.58,0,0,1,2.61-2.61,27.25,27.25,0,0,1,8.82-2.73c.9-.1,1.81-.19,2.71-.28,4.35-.42,8.46-.81,12.19-3,2.71-1.57,4-2.73,4.21-5l-.49-4.1,2.07.62a2.35,2.35,0,0,1,1,.62l.2-.1a27.33,27.33,0,0,0,3.08-1.64,4,4,0,0,1,4.52-.16,28.5,28.5,0,0,0,7.11,2.65l.92.21a11.77,11.77,0,0,1,4.94,1.92,1.81,1.81,0,0,0,.59.36,2.18,2.18,0,0,0,.29-.23,2.93,2.93,0,0,1,4.27,0,7.53,7.53,0,0,0,5.45,1.74c2.59-.08,5.44,0,9,.16a2.51,2.51,0,0,0,2.21-.94c2.57-2.7,5.46-5.36,10-5.5a47.29,47.29,0,0,1,8.19.62,4.11,4.11,0,0,1,3.89,3.13c.63,2.43,2.23,4,5,5l.79,0,.28.12a5.51,5.51,0,0,0,2.54.44c1.69-.1,4-.91,4.26-6.78,0-.59,0-1.18,0-1.8a15.82,15.82,0,0,1,.14-3.17l.15-.85.83-.25a3.49,3.49,0,0,0,1.19-.63,38.17,38.17,0,0,0,6.17-6.22,3.27,3.27,0,0,0,.67-1.43l.16-.88.86-.23a7.88,7.88,0,0,1,1.4-.25l-.24-.15a2.84,2.84,0,0,1-1.67-2.79c.25-1.87,2.05-2.2,2.82-2.33l.3-.06c1.77-.37,2-1,1.91-2.21a12.32,12.32,0,0,1,.15-2.79c.06-.46.12-.93.15-1.39a4.23,4.23,0,0,1,2.17-3.35c2.56-1.78,5.35-1.7,7.81-1.62h.3a11.71,11.71,0,0,0,5.16-1.25,4,4,0,0,1-1-3.83,38.35,38.35,0,0,1,1.9-7.6c.31-.89.22-1-.56-1.25l-.18-.07a4,4,0,0,1-3-2.84,17.74,17.74,0,0,0-2.4-5.51l-.08-.12c-.15-.23-.31-.48-.45-.74l-.23-.43.08-.48c.1-.59.19-1.17.27-1.76l.1-.74.66-.34a3.58,3.58,0,0,1,2.28-.18l.39.06c.55.05,1.1.14,1.64.23a7.93,7.93,0,0,0,3.46.08c.57-.16.73-.33.89-.94,0-.1-.37-.28-.5-.35a13.45,13.45,0,0,1-4-3.26l-.64-.75.49-.86a6.21,6.21,0,0,0,.52-1.2,2.21,2.21,0,0,0-1.48-2.9l-.7-.26-.18-.73a10.15,10.15,0,0,1,.48-6.29l.36-1,1.06.06h.94c0-.11.1-.27.14-.4a6.83,6.83,0,0,1,.25-.66l.06-.13c1.11-2.44,1.4-3.48,0-4.67l-.18-.15-.12-.2-.06-.1-.3-.17v-.8a56.57,56.57,0,0,0-.64-6.4l-.16-1.19.1-.77.48-.43a2,2,0,0,0,.71-1.35,13.27,13.27,0,0,0-.47-7.17l-.68-1.88h1.51a17.37,17.37,0,0,1,4.27-7.87c1.84-2.11,3.87-4.44,7.75-3.14l.09,0a2.22,2.22,0,0,0,0-.32,11.25,11.25,0,0,1-.22-3.6l0-.43.28-.33a3,3,0,0,0,.38-.59c.65-1.31,1.38-2.65,2.29-4.21a46.15,46.15,0,0,1,5.53-7.22l1.65-1.77.06.19.16-.27.22-.28c1.22-1.2,2.54-2.42,3.94-3.63l.25-.17.17-.1a4.46,4.46,0,0,0,1.9-1.63l.12-.18.17-.14,2.07-1.72a2.17,2.17,0,0,0,.82-1.21l.25-1.22,1.24.09h.19c.2,0,.41.06.63.1l.37.06c.16-.35.33-.7.5-1a9.09,9.09,0,0,0,1-2.71c-.28-.38-.52-.77-.76-1.15a5,5,0,0,0-2-2.14l-1.67-.78c-1.37-.65-2.68-1.26-4-1.74a4,4,0,0,1-2.35,2.42l-.46.17-.47-.15a2.56,2.56,0,0,0-.52-.11,25.65,25.65,0,0,0-11.06,1.31l-1.29.44-.55-1.44v0l-.22,0a13.47,13.47,0,0,0-3.9.11l-1,.18-.51-.83c-.34-.55-.69-1.08-1-1.6l-1.1-1.61,1.88-.55.1,0,.37-.37c.12-.11.29-.28.4-.41l-.14-.14a2.34,2.34,0,0,1-.26-2.94l.14-.25.74-.56.58.08c.12-.26.26-.5.38-.73a5.28,5.28,0,0,0,.44-.93c.14-.48.28-.92.42-1.34s.25-.78.35-1.11a2.18,2.18,0,0,1-1.22.26l-1-.07a18.82,18.82,0,0,1-4.67-.7l-.39-.11,0,.12a2,2,0,0,1-.26.48c-2.3,3.35-3.85,3.84-7.12,1.94l-.06.82-1.51-.13c-.46-.06-.93-.11-1.4-.14l-1.2-.06-.13-1.19c0-.16,0-.31-.06-.46h0a14.06,14.06,0,0,0-3.45.29c-2.61.67-5,0-7.17-2.15l-.4-.46-.67-.79c-1.76-2.15-3.62-4.55-5.68-7.35l-2.54-3.46L245.2,136l2.63.21.52.22h.33a1.73,1.73,0,0,1,.72-.16,1.84,1.84,0,0,1,.74.16h1.92a2,2,0,0,1,1.93.06,7.4,7.4,0,0,1,2.55.94l.37.19a3.54,3.54,0,0,1,1.5-1.85c.34-.24.57-.41.71-.54-.17-.18-.43-.42-.79-.74l-6.72-6.61-1.78,0a32.52,32.52,0,0,0-5.4.38l-.27.05-.27-.06a3.83,3.83,0,0,0-.49-.08,6.76,6.76,0,0,0-2.21.21l-.74.19-.57-.51a3.52,3.52,0,0,1-1-2.92,48.18,48.18,0,0,0-.13-8c-.4-3.32-.44-6.85,2-10.22a2.15,2.15,0,0,0,0-3c-.8-1.08-1.59-2.17-2.37-3.26-1.47-2-3-4.16-4.61-6.11l-.13-.16-.08-.19a28.21,28.21,0,0,0-2.35-4.32l-.57-.87.65-.81A9,9,0,0,1,234.51,86l.6-.3a2.11,2.11,0,0,0-.24-.91,4.47,4.47,0,0,1,.18-5.07,1.79,1.79,0,0,0,0-.71,3.53,3.53,0,0,1,.65-2.53c2-4.51,5.61-7.54,8.84-9.9l.68-.49c2.49-1.79,3.56-2.68,2.78-5.27a11.38,11.38,0,0,1-.23-4.13c0-.6.08-1.17.07-1.71a3.5,3.5,0,0,1,1-2.75,3.09,3.09,0,0,1,2.6-.59l-.18-.13q-3.92-2.45-7.84-4.91l-.25-.14a2.79,2.79,0,0,1-1.48-1.51,28,28,0,0,0-1.52-3.64,23.88,23.88,0,0,1-2-5.26l-.1-.49A11.59,11.59,0,0,0,237,32a2.71,2.71,0,0,1-.32-2.44,3,3,0,0,1,2.1-1.6c1.75-.5,3.63-1,5.55-1.47,1-.23,1.26-.35,1.43-.71a2.74,2.74,0,0,1,.82-1,31.25,31.25,0,0,1-6.17-1.56c-5-1.72-8.27-5.14-11.47-8.44l-1-1c-1.46-1.49-2.17-1.71-3.62-1.09a45.46,45.46,0,0,1-7,2.14l-.87.22c-.71.18-.77.39-.8.53l-.3,1.19-1.58-.17c-.35,0-.71-.08-1.06-.1a2.89,2.89,0,0,0-.65,0l-.24,0h-.13a59.08,59.08,0,0,1-8.88-.94l-1.92-.3a6.11,6.11,0,0,0-4.39,1c-1.46.91-2.94,1.78-4.42,2.65-1.83,1.08-3.73,2.2-5.54,3.37l-.32.16-.3.09-.28.09a15.59,15.59,0,0,0-9.64,8.67l-.17.42-.38.24A4.1,4.1,0,0,0,174,34.36a36.6,36.6,0,0,0-1.77,15.55A13.85,13.85,0,0,1,171,57.23l-.17.36-.34.22L168.64,59c-3.2,2-6.23,3.91-8.12,6.79l-.25.38-.42.16a31.92,31.92,0,0,1-11.59,2.26h-.37a46,46,0,0,0-9.11,1l-.15,0h-.16c-11.63-.26-23.3.5-34.25,1.31l-1.4.1h0l-2.58.19c-6.46.48-13.15,1-19.64,1.29a16,16,0,0,0-4.38.83l-1.17.4-.55-1.1a1.92,1.92,0,0,0-2-1.15,3.3,3.3,0,0,0-2.79,2A41.19,41.19,0,0,1,44.38,98.71a3,3,0,0,0-2,2.16,2.34,2.34,0,0,0,.7,2.26,35.11,35.11,0,0,0,5.65,4.57l.74.48-.1.87a12.12,12.12,0,0,0,.48,5.26l.53,1.58c3.58,10.61,7.27,21.59,9.09,32.84.22,1.34.37,2.73.46,4.24l0,.46-.25.39c-.18.28-.36.56-.57.83a3.55,3.55,0,0,0-.77,1.94l-.06,1.29a37,37,0,0,0,.27,9l0,.21c.74,3.79,1.58,8.08-.74,12.18a.46.46,0,0,0-.07.17.75.75,0,0,0,.24.28,10.9,10.9,0,0,1,3.07,4.56c1.32,3.37,3.71,6.26,7.53,9.08a26.19,26.19,0,0,0,2.84,1.75c.74.41,1.5.84,2.24,1.32a12.2,12.2,0,0,1,1.81,1.47l.47.45Zm200.6-42.47h0Zm2.65-3.15h0ZM239.39,30.38h0Zm21.36-10.81c-.89.73-1.74,1.39-2.56,2,1.68-.14,2.23-.46,2.37-1.36A2,2,0,0,1,260.75,19.57Zm2-1,.4,0,.88.09,1,.09.2,0a9.41,9.41,0,0,0,1,0c-.3-.18-.68-.36-.91-.47l-.31-.15a2.74,2.74,0,0,0-3.19.5A3.07,3.07,0,0,1,262.75,18.57Z"/></svg>