<svg id="Layer_1" data-name="Layer 1" xmlns="http://www.w3.org/2000/svg" viewBox="0 0 350 350"><defs><style>.cls-1{fill:#999;}.cls-2{fill:#f90;}</style></defs><title>M</title><path class="cls-1" d="M324.06,134.19c-3.09-5.62-8.21-10.79-14.6-11.3a46.92,46.92,0,0,1-4.94-.25c-7.46-1.39-9.28-11.1-9.42-18.69l4.46,4.28a30,30,0,0,1-1.26-13.58c-5.53-2.28-8.5-8.19-10.78-13.72A286.37,286.37,0,0,1,271.2,28.1C269.14,17.78,266.85,2,251.48,8.37c-7.67,3.16-12.89,10.42-20.11,14.52-5.62,3.19-12.23,4.34-17.81,7.6-11.78,6.87-16.46,21.24-20.2,34.36l-33.74-20.9c-2.25-1.4-4.62-2.83-7.26-3-13.35-1-34.32,14.8-39.07,26.56-3.13,7.75-2.45,16.52-4.68,24.58-6.05,21.88-30.53,32.14-52,39.4-3.17,1.07-6.47,2.13-9.77,2.15A98.89,98.89,0,0,0,33.06,146a31,31,0,0,0-2.53,3.36,2.73,2.73,0,0,1-1.3,2.18c-2.75,5.06-4,10.61-4.75,16.65C23.32,177,22.77,186,21.58,194.86c.13,9.72.44,19.5,2.23,28.65.23,1.17.58,2.48,1.61,3.08a4.35,4.35,0,0,0,2.75.23c16.51-2.2,32.41-8.52,49.13-9.07,23.79-.78,37.25,11.34,46.74,31.88L133,269c1.48,3.2,3,6.51,3.07,10,.07,2.8-.77,5.54-1,8.34-.52,7.4,3.41,14.28,6.81,20.88,5.42,10.51,10.12,22,19.31,29.42,6.45,5.23,21.2,7.65,28.49,2.93,4.13-2.68,4.52-8.51,5-13.75a6.13,6.13,0,0,1,0-8.1,5.19,5.19,0,0,1,5.32-4.42,5.11,5.11,0,0,1,5,3.37c3.27,1.27,6.33,3.29,9.82,3.48a12.3,12.3,0,0,0,4.13-.55,5,5,0,0,1,2.77-4.12,103.15,103.15,0,0,1,11.17-5.34,24,24,0,0,1,8.38-2.92,28.47,28.47,0,0,0,5.05-5.85c1.05-1.64,2-3.49,3.68-4.47,2.43-1.41,5.52-.53,8.11.55a62.42,62.42,0,0,1,17.17,10.75c-.83-9.73-1.58-19.85.23-29.32-.9-5.47-1.23-10.69,2.18-16,3.8-5.9,9.91-10.26,15.24-14.66a6,6,0,0,1,2.1-1.14,6.24,6.24,0,0,1,.71-1c2.26-2.53,4.49-5.09,6.72-7.64a5.31,5.31,0,0,1,.13-5.26,19.53,19.53,0,0,1,9.61-8.1,49.45,49.45,0,0,0,4-9.92c.41-1.5.78-3,1.12-4.52,0-.2,0-.4,0-.61,0-8.81.34-17.79,2.66-26.34A63.63,63.63,0,0,1,324,173.85q.34-1.35.71-2.69C328.35,158.12,331.08,147,324.06,134.19Z"/><path class="cls-2" d="M179.16,344.54c-7,0-14.54-2.29-18.87-5.8-8-6.48-12.67-15.86-17.19-24.93-.83-1.66-1.65-3.31-2.49-4.94l-.76-1.47c-3.3-6.34-6.71-12.91-6.2-20.16.09-1.23.29-2.43.48-3.59a24.57,24.57,0,0,0,.48-4.61c-.08-3.28-1.6-6.57-2.94-9.47l-8.93-19.33c-10.24-22.17-24.26-31.75-45.4-31.06-9.6.31-19.16,2.62-28.4,4.84a202.59,202.59,0,0,1-20.59,4.21,5.62,5.62,0,0,1-3.64-.41c-1.7-1-2.1-3-2.3-4-1.84-9.43-2.12-19.45-2.25-28.91v-.21c.61-4.53,1.06-9.19,1.5-13.7.41-4.25.84-8.64,1.39-12.94.68-5.27,1.8-11.42,4.91-17.15l.17-.3.29-.19a1.32,1.32,0,0,0,.68-1.09l0-.37.2-.31A32.24,32.24,0,0,1,32,145.09a99.77,99.77,0,0,1,13.94-12.6l.38-.3h.49c3,0,6-1,9.32-2.08,23.2-7.83,45.45-17.91,51.12-38.44A69.85,69.85,0,0,0,109,81.19c.55-4.75,1.12-9.66,3-14.24,2.38-5.9,8.83-13.07,16.81-18.7C137.35,42.19,146,39,152.47,39.5c3,.23,5.74,1.9,7.9,3.24l32.15,19.92c3.9-13.39,8.87-26.71,20.33-33.39a54.84,54.84,0,0,1,9.27-4,53.64,53.64,0,0,0,8.56-3.62,55.13,55.13,0,0,0,8.51-6.47c3.56-3.09,7.24-6.28,11.75-8.13,4.75-2,8.8-2.07,12-.34,6.15,3.3,7.92,12.38,9.35,19.67l.28,1.43A284.82,284.82,0,0,0,288.82,80.4c2.28,5.52,5.06,10.9,10,12.95l1,.42-.15,1.09a28.58,28.58,0,0,0,1.2,12.94l1.82,5.45-6-5.77c.54,5.74,2.39,12.73,8.07,13.79a15.52,15.52,0,0,0,2.74.17c.66,0,1.35,0,2,.06,6.06.48,11.8,4.86,15.74,12,7.55,13.73,4.12,26.08.8,38q-.37,1.32-.7,2.65l-.1.27a61.94,61.94,0,0,0-4,10.62c-2.36,8.67-2.59,18-2.61,26,0,.16,0,.32,0,.47l0,.22,0,.22c-.4,1.75-.76,3.21-1.14,4.58a50.45,50.45,0,0,1-4.09,10.21l-.24.45-.47.2a18.1,18.1,0,0,0-8.93,7.51,3.9,3.9,0,0,0-.09,3.89l.45.86-1.32,1.51c-2,2.3-4,4.6-6,6.87a4.85,4.85,0,0,0-.55.75l-.28.47-.53.16a4.61,4.61,0,0,0-1.6.88c-.88.73-1.79,1.46-2.7,2.2-4.52,3.64-9.2,7.41-12.25,12.14-3.27,5.08-2.77,10.19-2,15l0,.25,0,.25c-1.72,9-1.11,18.42-.21,28.94l.3,3.52-2.65-2.34a60.73,60.73,0,0,0-16.78-10.5c-2-.83-4.85-1.8-6.85-.63a8.93,8.93,0,0,0-2.69,3.21l-.5.81a29.68,29.68,0,0,1-5.3,6.14l-.32.28-.42.06a22.53,22.53,0,0,0-7.88,2.74l-.18.09a101.29,101.29,0,0,0-11,5.27,3.58,3.58,0,0,0-2,3l-.06,1-1,.28a13.68,13.68,0,0,1-4.61.61,20.54,20.54,0,0,1-7.51-2.37c-.9-.42-1.83-.85-2.75-1.21l-.58-.23-.22-.59a3.71,3.71,0,0,0-3.7-2.46A3.83,3.83,0,0,0,196,319l-.08.4-.28.3a4.69,4.69,0,0,0,0,6.15l.44.46-.09,1.06c-.45,5.35-1,11.42-5.57,14.4C187.46,343.69,183.42,344.54,179.16,344.54ZM79.5,216.3c21.2,0,35.39,10.18,45.82,32.74l8.93,19.33c1.45,3.15,3.1,6.71,3.2,10.58a27,27,0,0,1-.52,5.15c-.19,1.15-.37,2.23-.45,3.32-.46,6.46,2.77,12.66,5.89,18.65l.77,1.48c.85,1.64,1.68,3.31,2.51,5,4.38,8.8,8.92,17.9,16.44,24,6.05,4.91,20.15,7.16,26.83,2.84,3.4-2.2,3.86-7.21,4.27-12.09a7.65,7.65,0,0,1,.13-9.23A6.85,6.85,0,0,1,206,316.56c.8.33,1.59.7,2.36,1.06a18.18,18.18,0,0,0,6.47,2.11,10.06,10.06,0,0,0,2.79-.27,6.46,6.46,0,0,1,3.35-4.23,104.33,104.33,0,0,1,11.23-5.38,25.36,25.36,0,0,1,8.36-3,26.6,26.6,0,0,0,4.5-5.28l.48-.77a11.29,11.29,0,0,1,3.68-4.17c3.09-1.8,6.83-.59,9.37.47a63.53,63.53,0,0,1,14.93,8.8c-.74-9.3-1.06-17.82.48-26.08-.82-5.05-1.32-10.91,2.43-16.74,3.3-5.12,8.15-9,12.85-12.81.9-.73,1.8-1.45,2.68-2.17a7.52,7.52,0,0,1,2.08-1.23,7.77,7.77,0,0,1,.58-.73c2-2.27,4-4.56,6-6.85l.1-.11a6.67,6.67,0,0,1,.56-5.73,20.75,20.75,0,0,1,9.81-8.48,47.29,47.29,0,0,0,3.63-9.19c.35-1.28.69-2.63,1.06-4.25,0-.16,0-.33,0-.5,0-8.2.27-17.71,2.71-26.71a64.57,64.57,0,0,1,4.16-11q.32-1.3.68-2.59c3.89-14,6-24.07-.55-35.9-1.64-3-6.24-10-13.47-10.56-.59,0-1.2,0-1.84-.05a17.77,17.77,0,0,1-3.25-.22c-6.61-1.23-10.36-8.36-10.58-20.06l-.06-3.41,3.4,3.26q-.25-1.53-.35-3.09a31.45,31.45,0,0,1,.1-5.23c-5.28-2.67-8.2-8.3-10.56-14a287.66,287.66,0,0,1-16.39-53.1l-.28-1.44c-1.31-6.71-2.95-15.05-7.91-17.72C259.14,7.89,256,8,252,9.68s-7.43,4.58-11,7.66a57.22,57.22,0,0,1-9,6.79,56.52,56.52,0,0,1-9,3.83,51.92,51.92,0,0,0-8.79,3.76c-11.06,6.45-15.73,20.1-19.55,33.52l-.51,1.8L158.87,45.15c-2-1.24-4.27-2.64-6.62-2.82-12.53-1-33.12,14.49-37.65,25.68-1.71,4.22-2.23,8.73-2.78,13.51A72,72,0,0,1,110,92.43c-6,21.8-29,32.28-52.95,40.37A34.19,34.19,0,0,1,47.31,135,95.26,95.26,0,0,0,34.13,147a29.23,29.23,0,0,0-2.23,2.93,4.11,4.11,0,0,1-1.57,2.63c-2.78,5.24-3.81,11-4.45,15.88-.55,4.25-1,8.62-1.38,12.85-.44,4.5-.89,9.15-1.5,13.7.13,9.3.41,19.13,2.2,28.3.17.88.42,1.82.93,2.12a3.39,3.39,0,0,0,1.85.06,200.57,200.57,0,0,0,20.3-4.16c9.38-2.26,19.08-4.6,29-4.92Q78.39,216.3,79.5,216.3Z"/></svg>