<svg id="Layer_1" data-name="Layer 1" xmlns="http://www.w3.org/2000/svg" viewBox="0 0 350 350"><defs><style>.cls-1{fill:#999;}.cls-2{fill:#f90;}</style></defs><title>M</title><path class="cls-1" d="M342,152.05a1.64,1.64,0,0,0-.21-.36s0-.06,0-.09c-.24-1.41-.76-1.5-1.92-2.17-1.61-.94-2.3-1-3.18-2.74-.38-.76-.44-1.69-.88-2.44-2.17-3.77-13.34-4.64-12.74-9,.14-1-.65-2.31-1.85-1.85-8.56,3.35-31.68-8.09-36.79,3.12a8.8,8.8,0,0,0-10.52-1.25,1.53,1.53,0,0,0-2,2.11,19.89,19.89,0,0,1,2.35,6.82c-2.07,1.34-5,3.07-5.88,5.39a1.5,1.5,0,0,0-2.07,0l-.24.27a1.61,1.61,0,0,0-.87,1l-4.93,5.63c-2.79-.54,1.4-7.29-2.52-8.61-3.55-1.2-7.36,1.59-10.83,1.51l.45-20.33a1.52,1.52,0,0,0-2.56-1.06c-2.88,2.38-5.53,2.59-9.06,2.48a6.73,6.73,0,0,0-3.86.56c-.5.31-.77.91-1.23,1.23a7.46,7.46,0,0,1-2.07,1,5,5,0,0,0-2.58,1.7c-.46.58-.58,1.4-1,2-.8,1-2.24,1.44-3.15,2.29a4.28,4.28,0,0,0-1.68,2.44,7.7,7.7,0,0,0,.89,4.45c.36.81,1.15,1.71,1.43,2.55l.23.3q2.87,2.6-3.17,3.72a1.42,1.42,0,0,0-.84-.93c-2.22-3.83-6.59-5-10.9-5.13-3.59-.09-7.34.9-10.91.08-3.31-.76-5.26-3.8-8.22-5.26-4.44-2.2-2.89-4.31-4.32-8.2-.2-.56-.7-1.15-.85-1.68-.85-3.07-.09-3.82,2-6.31L194,115.17c1.71-2.06,6.42-10.06,9.68-9.16a1.53,1.53,0,0,0,1.85-1,12.33,12.33,0,0,1,5-6.86,14.38,14.38,0,0,0,2.33-1.34,3.25,3.25,0,0,0,.91-4c-.81-1.9-2.94-2.79-4.68-3.6-4.17-1.93-7.92-2.91-9.48-7.82-1.36-4.3-2.34-12.81-8.13-13.5-2-.24-3.1-.16-5-1-1.09-.49-1.39-1.11-2.62-1.27A3.51,3.51,0,0,0,180,67.4a1.54,1.54,0,0,0,.54,2.05l.3,2.93a1.58,1.58,0,0,0-.18.32,70.38,70.38,0,0,0-11.7,0c-3.29.25-9-3.2-12-.63-1.05.92-1.17,2.27-1.71,3.45-1.44,3.2-3.51,3.32-6.15,4.59-2.09,1-3.49,2.82-3.29,4.84-2,.85-2.62,3-1.84,5a16.92,16.92,0,0,1-4.6.79,1.54,1.54,0,0,0-1.5,1.5l-.16,2.41c-3-.08-6,.69-7,3.35a2.89,2.89,0,0,0-2.25-.2c-.78.3-.85.8-1.38,1.3a9.7,9.7,0,0,1-2.92,2,7.47,7.47,0,0,0-4.7,6.89,11.29,11.29,0,0,0-2.81,1.4c-.28.36-.22.79-.38,1.17a10.59,10.59,0,0,1-2.1,3.55,1.26,1.26,0,0,0-.32-.12c-1.59-.31-4.58,1.13-5.94,1.87-2.42,1.31-2.3,3.91-2.16,6.47a14.55,14.55,0,0,0-11.1,2.08,1.51,1.51,0,0,0-.5.52,98.33,98.33,0,0,1-18.84-12.48,1.52,1.52,0,0,0-2.51.66c-1.83,7-3.7,14.22-7.37,20.56-1.92,3.31-4.4,5.71-6.92,8.49-1.68,1.86-2.82,3.46-2.58,6a147.81,147.81,0,0,1-19.28,13.29,1.59,1.59,0,0,0-1.08,2.23c1.56,3.2-1.15,4.48-3.69,5.8l-4-5.43a1.52,1.52,0,0,0-2.59,0l-1.1,2a9,9,0,0,0-4.53-1.2,1.51,1.51,0,0,0-1.17.56,3.42,3.42,0,0,0-2.62.23,14,14,0,0,0-6.13-5,1.52,1.52,0,0,0-2.2,1.69A57.5,57.5,0,0,1,9.78,174.5c.19,3.06-.9,6.92-.22,9.81s5.09,3.29,8.2,3.63a22.37,22.37,0,0,0,7.36,6c5.28,3,8.78,5.85,12,11.16q4.54,7.56,9,15.14c2.43,4.07,4.65,8.29,8.1,11.59-3.75,2.43-8,2.92-12.51,2.9-2.63,0-6.39-.9-8.93.41a1.33,1.33,0,0,0-.4.23l0,0c-2.08,1.37-2.67,4.06-2.55,7a21.52,21.52,0,0,0-.14,2.76c0,2.33,0,6.67,1.44,8.66a6.25,6.25,0,0,0,2.79,2,11.81,11.81,0,0,0,2.68,2.86,10.06,10.06,0,0,0,2.81,1.46,1.23,1.23,0,0,0,.73,1c10.71,5.06,21.43,10.3,29.86,18.79.13.79.27,1.58.45,2.37a1.42,1.42,0,0,0,2.3.76c1.22.83,3.17-.51,2.18-1.92-.7-1-1.42-2-2.15-2.91-.11-.8-.18-1.61-.23-2.41a22.34,22.34,0,0,1,7.23.52c0,.64-.08,1.83-.08,2.27q0,1.77,0,3.54a1.5,1.5,0,0,0,.09.51,1.48,1.48,0,0,0,1.42,1.84c2.1,0,3.89.46,5.07-1.49.52-.86.17-2.27.25-3.17a16.1,16.1,0,0,1,2.82-7.52c1.75-2.59,5.5-4.58,6.63-7.47a5.7,5.7,0,0,0,.23-.81,4.07,4.07,0,0,0,.72-1.54,1.5,1.5,0,0,0,.2-1.66l-.14-.3a14.66,14.66,0,0,0-1.29-3.85,4.69,4.69,0,0,1,0-.86,1.62,1.62,0,0,0,1.22-.65c5-6.73,8.18-14.34,11.28-22,1.79-4.44,3.53-8.9,5.67-13.19,1.84-3.68,4.44-6.87,6.34-10.47,2-3.77,1.91-8.34,3.6-12.33.68-1.6,1.27-3.18,1.89-4.81,1.07-2.84,1.34-2.53,4.52-3s7-1.61,10.31-1.28a1.36,1.36,0,0,0,.71,1c7.18,4.11,14.92,1.11,22.64,1.93,5.38.57,7.78,4.72,12.28,6.9,2.9,1.4,18,2.74,13.12,8.85a1.52,1.52,0,0,0,0,2.12l.54,3.8a1.5,1.5,0,0,0,.23,1.82l1.4,1.22-.58.85a1.51,1.51,0,0,0,.54,2.05c4.66,2.19,9.13,1.17,14,.36a83.93,83.93,0,0,1,20.72-.79,18.77,18.77,0,0,0,3.17,8.92,1.52,1.52,0,0,0,2.74-.36c1-2.56,6.83,1.53,8.6,1.84a18,18,0,0,0,5.72-.28c8.06-1.17,14.34,1.08,21.14,5.31,3.41,2.12,6.75,6.1,10.95,4.43,6.28-2.48,12.06-5.34,18.58-7.1a6.11,6.11,0,0,0,1.41-.38,1.5,1.5,0,0,0-.8-2.89q-5.79-2.42-3.16-5.65.82-1.36,1.65-2.71a46.24,46.24,0,0,1,4.39-6.1c3.72-4.19,8.43-6.87,14.15-6.33a1.2,1.2,0,0,0,1.26-.63,1.37,1.37,0,0,0,1.34-1.06l.48-1.73a1.44,1.44,0,0,0-1.28-1.84c-.46-1.76-.85-3.69-.41-3.66,1.26.1,1.71-1.32,1.3-2.26a21.29,21.29,0,0,0-4.62-6.88c-1.86-1.81-1.79-1.39.76-2.24a12,12,0,0,0,3.18-1.36,1.58,1.58,0,0,0,.69-1.69c-.36-2.42-3.45-3.82-5.38-5.12,1.72-6.68,3.45-13.11,11.55-14.43,1.66-.27,3.55.89,5.09.2,3-1.32.35-4.9,6.08-4,.87.13,2-.37,1.9-1.45l3.25-1.85a1.52,1.52,0,0,0,2.2-.9A4.7,4.7,0,0,0,342,152.05Z"/><path class="cls-2" d="M83.07,285.91c-.35,0-.7,0-1,0l-.87,0a2.81,2.81,0,0,1-2.18-1,3.06,3.06,0,0,1-.66-2.12,2.78,2.78,0,0,1-.07-.63v-3.54c0-.19,0-.52,0-.89v-.26a20.8,20.8,0,0,0-4.25-.26l.05.49c.75,1,1.38,1.83,2,2.66a2.66,2.66,0,0,1-.26,3.47,3.13,3.13,0,0,1-3,.82,3,3,0,0,1-2,0,2.72,2.72,0,0,1-1.67-2c-.16-.68-.28-1.37-.39-2-7.88-7.81-17.47-12.67-29.15-18.19a2.7,2.7,0,0,1-1.23-1.14,11.08,11.08,0,0,1-2.56-1.42A13.12,13.12,0,0,1,33,256.94a7.12,7.12,0,0,1-3-2.3c-1.62-2.27-1.67-6.6-1.7-9.19v-.27a23.12,23.12,0,0,1,.13-2.83c-.14-3.9.93-6.63,3.19-8.11h0a2.74,2.74,0,0,1,.63-.36c2.21-1.1,4.91-.88,7.29-.67.81.07,1.57.13,2.22.14,3.21,0,6.89-.21,10.2-1.81a52.16,52.16,0,0,1-6-8.73L44.92,221l-3.07-5.14q-3-5-6-10c-3.2-5.33-6.62-7.94-11.44-10.65A24.5,24.5,0,0,1,17,189.28c-3.38-.36-7.95-.88-8.83-4.65a19.2,19.2,0,0,1,0-6.16,25.06,25.06,0,0,0,.2-3.89,56,56,0,0,0-2.12-11.84,2.75,2.75,0,0,1,.83-2.9,3.12,3.12,0,0,1,3.3-.47A15.32,15.32,0,0,1,16.45,164a4.74,4.74,0,0,1,1.72-.08,2.93,2.93,0,0,1,1.59-.45,11.05,11.05,0,0,1,3.88.75l.45-.84a2.72,2.72,0,0,1,2.24-1.47,3.17,3.17,0,0,1,2.74,1.3l3.25,4.44c2.38-1.31,2.68-1.94,2-3.35a2.89,2.89,0,0,1,0-2.51,3.15,3.15,0,0,1,1.83-1.65,147.27,147.27,0,0,0,18.41-12.64c0-2.75,1.4-4.55,3-6.29l1.44-1.56A37.58,37.58,0,0,0,64.23,133c3.58-6.19,5.44-13.32,7.23-20.2a2.78,2.78,0,0,1,1.87-2,3.12,3.12,0,0,1,2.92.6,97.33,97.33,0,0,0,17.68,11.84,16,16,0,0,1,10.37-2.54c0-2.22.42-4.67,3-6,1.92-1,4.52-2.18,6.41-2.07A11.65,11.65,0,0,0,115,110a1.48,1.48,0,0,0,0-.18,2.86,2.86,0,0,1,.53-1.31,6.45,6.45,0,0,1,2.6-1.51,8.75,8.75,0,0,1,5.43-7.2,8.28,8.28,0,0,0,2.54-1.76,2.18,2.18,0,0,0,.26-.32A3.33,3.33,0,0,1,128,96.49a3.73,3.73,0,0,1,2-.18c1.21-1.82,3.42-2.87,6.38-3l.07-1.1a3,3,0,0,1,2.85-2.82,16.7,16.7,0,0,0,3-.37,4.93,4.93,0,0,1,2.13-4.88,6.71,6.71,0,0,1,4.09-5.27c.6-.29,1.18-.53,1.73-.75,1.78-.72,2.86-1.16,3.75-3.15a9.92,9.92,0,0,0,.36-1A6.2,6.2,0,0,1,156,71c2.43-2.12,5.89-1.22,8.93-.41a14,14,0,0,0,3.87.69,72.62,72.62,0,0,1,10.44-.07l-.11-1a2.9,2.9,0,0,1-.4-3.47A4.92,4.92,0,0,1,184,64.15a4.75,4.75,0,0,1,2.25.93,4.8,4.8,0,0,0,.77.46,8.89,8.89,0,0,0,3.35.77l1.22.13c5.73.68,7.4,7.19,8.62,11.95.24.93.46,1.81.69,2.53,1.15,3.63,3.61,4.71,7,6.2l1.71.76.28.13c1.84.85,4.13,1.9,5.11,4.2a4.66,4.66,0,0,1-1.21,5.54A6.09,6.09,0,0,1,212,98.88a6.44,6.44,0,0,0-.75.39,10.9,10.9,0,0,0-4.41,6.12,2.94,2.94,0,0,1-3.57,2c-1.68-.46-5.52,5-6.79,6.78-.56.79-1,1.47-1.42,1.93l-8.68,10.45c-1.81,2.17-2.09,2.51-1.47,4.75a3.85,3.85,0,0,0,.29.55,6.23,6.23,0,0,1,.52,1,16.63,16.63,0,0,1,.81,3.46c.29,1.91.42,2.78,2.8,4A18.56,18.56,0,0,1,193,142.8a10.85,10.85,0,0,0,4.3,2.61,20.89,20.89,0,0,0,6.42.09,38.46,38.46,0,0,1,4.21-.21c5.67.13,9.66,2,11.88,5.48a2.75,2.75,0,0,1,.5.41,6.05,6.05,0,0,0,1.91-.7,2.9,2.9,0,0,0-.37-.39l-.17-.18-.38-.5-.08-.23a6,6,0,0,0-.62-1.11,9.59,9.59,0,0,1-.75-1.3,8.88,8.88,0,0,1-1-5.32,5.34,5.34,0,0,1,2-3l.15-.14a8.77,8.77,0,0,1,1.63-1.12,4.87,4.87,0,0,0,1.37-1,3.18,3.18,0,0,0,.3-.63,5.33,5.33,0,0,1,.73-1.35,6.15,6.15,0,0,1,3-2.08l.5-.2a4.91,4.91,0,0,0,1.41-.73,2.85,2.85,0,0,0,.29-.32,4.19,4.19,0,0,1,1-.95,7.31,7.31,0,0,1,4.34-.79h.32c3.61.1,5.74-.19,8.12-2.16a3.14,3.14,0,0,1,3.32-.41,2.74,2.74,0,0,1,1.56,2.59l-.42,18.74a24.47,24.47,0,0,0,2.58-.7c2.22-.68,4.74-1.46,7.25-.61,3.22,1.09,2.82,4.54,2.58,6.61,0,.21-.05.45-.08.69l3.26-3.72a3.1,3.1,0,0,1,1.22-1.39l.06-.07a2.74,2.74,0,0,1,2.47-.88,16.5,16.5,0,0,1,5-4.28,18.2,18.2,0,0,0-2-5.44,2.82,2.82,0,0,1,.39-3.38,3.08,3.08,0,0,1,2.63-1,10.22,10.22,0,0,1,10.29.63c4.25-6.06,14.1-4.42,22.88-3,5.59.93,10.87,1.81,13.81.66a2.58,2.58,0,0,1,2.6.36,3.33,3.33,0,0,1,1.17,3c-.18,1.32,3,2.59,5.49,3.61,2.88,1.16,5.86,2.37,7.07,4.46a6.77,6.77,0,0,1,.62,1.64,5.22,5.22,0,0,0,.29.88,2.93,2.93,0,0,0,1.71,1.65c.27.14.57.31.91.5l.41.23a3.53,3.53,0,0,1,2.16,2.75,3,3,0,0,1,.16.33h0a6.09,6.09,0,0,1,0,4.92,3.25,3.25,0,0,1-2,1.93,2.61,2.61,0,0,1-1.39,0l-2,1.15a2.6,2.6,0,0,1-.72,1.16,3.3,3.3,0,0,1-2.71.81c-2.33-.35-2.44,0-2.78.91a4.54,4.54,0,0,1-2.52,3,5.82,5.82,0,0,1-3.68.08,5.42,5.42,0,0,0-1.76-.18c-6.88,1.12-8.55,6.27-10.15,12.39l.25.15c2,1.23,4.51,2.76,4.9,5.4a3,3,0,0,1-1.3,3.08,12,12,0,0,1-3.21,1.42l-.32.1-.07,0a22.78,22.78,0,0,1,4.78,7.18,3.25,3.25,0,0,1-.3,3.13,2.63,2.63,0,0,1-1,.85c.05.32.14.78.29,1.4a2.92,2.92,0,0,1,1.13,1,2.79,2.79,0,0,1,.33,2.32l-.48,1.73a2.8,2.8,0,0,1-1.92,2,2.66,2.66,0,0,1-2.18.74c-4.75-.46-9.11,1.52-13,5.85a44.88,44.88,0,0,0-4.25,5.92c-.55.88-1.1,1.78-1.64,2.68l-.12.17a1.51,1.51,0,0,0-.48,1.21c.06.24.43,1.06,2.73,2.08a2.73,2.73,0,0,1,2.9,1.92,3,3,0,0,1-1.75,3.74,7.27,7.27,0,0,1-1.65.46,101,101,0,0,0-12.93,4.79c-1.76.74-3.58,1.51-5.43,2.24-4,1.57-7.14-.82-9.94-2.93-.79-.59-1.54-1.16-2.28-1.62-7.44-4.63-13.29-6.11-20.18-5.11l-.49.07a17.48,17.48,0,0,1-5.68.2,12.6,12.6,0,0,1-2.79-1.12c-1.06-.51-3.49-1.68-4.27-1.54a3,3,0,0,1-2.46,1.9,2.9,2.9,0,0,1-2.76-1.33,20,20,0,0,1-3.26-8.37,82.52,82.52,0,0,0-19.22.86l-1.11.19c-4.65.8-9,1.55-13.75-.66a2.76,2.76,0,0,1-1.45-1.8,2.85,2.85,0,0,1,.22-2.13l-.45-.4a3,3,0,0,1-.77-3.11l-.41-2.93a2.58,2.58,0,0,1-.49-1.25,3.33,3.33,0,0,1,.73-2.39c.55-.69.75-1.24.61-1.65-.63-1.82-6.23-3.16-9.24-3.88a23.41,23.41,0,0,1-4-1.16,25.66,25.66,0,0,1-4.75-3.19c-2.21-1.75-4.13-3.26-7.06-3.58a45.83,45.83,0,0,0-7.87.08c-5.06.34-10.29.69-15.33-2.19a2.92,2.92,0,0,1-1-.88,30.16,30.16,0,0,0-6.12.78c-1.07.21-2.08.41-3,.54l-1,.13c-1.76.22-1.76.22-2.41,1.94s-1.21,3.21-1.91,4.86a28.86,28.86,0,0,0-1.5,5.45,25.93,25.93,0,0,1-2.16,7c-.93,1.76-2,3.43-3.07,5a54.4,54.4,0,0,0-3.25,5.41c-1.9,3.82-3.53,7.87-5.1,11.79l-.52,1.29C106.31,241.53,103,249.2,98,256a3,3,0,0,1-.78.73,15,15,0,0,1,1.08,3.36l.05.11a2.88,2.88,0,0,1-.18,2.89,5.49,5.49,0,0,1-.71,1.52,5.69,5.69,0,0,1-.22.73c-.77,2-2.43,3.46-4,4.91A17,17,0,0,0,90.51,273a14.76,14.76,0,0,0-2.58,6.86,6.62,6.62,0,0,0,0,.8,5.08,5.08,0,0,1-.46,3A4.6,4.6,0,0,1,83.07,285.91ZM81.49,283l.68,0c1.84.08,2.36,0,2.87-.84a3.87,3.87,0,0,0,.06-1.35,8.39,8.39,0,0,1,0-1.22,17.56,17.56,0,0,1,3.05-8.17,19.26,19.26,0,0,1,3.19-3.36c1.42-1.28,2.77-2.49,3.3-3.83a4.38,4.38,0,0,0,.16-.6l.07-.3.18-.24a2.66,2.66,0,0,0,.47-1l.08-.32.21-.26c.05-.07,0-.08,0-.14l-.24-.5,0-.21a13.56,13.56,0,0,0-1.17-3.46l-.1-.22,0-.24a6.25,6.25,0,0,1,0-1.12l.11-1.21,1.22-.08a.2.2,0,0,0,.17-.08c4.8-6.5,7.87-13.69,11.11-21.73l.52-1.29c1.59-4,3.24-8.08,5.2-12a56.51,56.51,0,0,1,3.41-5.69c1.07-1.63,2.07-3.16,2.94-4.81a23.42,23.42,0,0,0,1.89-6.24,31.38,31.38,0,0,1,1.66-6c.68-1.6,1.28-3.2,1.87-4.75,1.14-3,1.91-3.4,4.71-3.75l.95-.12c.88-.12,1.85-.31,2.88-.51a27.58,27.58,0,0,1,7.76-.77l1.11.11.15,1.1c4.3,2.43,8.88,2.12,13.74,1.79a47.88,47.88,0,0,1,8.36-.07c3.74.4,6.17,2.32,8.52,4.17a23.1,23.1,0,0,0,4.23,2.86,24.5,24.5,0,0,0,3.42,1c4.51,1.08,10.13,2.42,11.26,5.72a4.45,4.45,0,0,1-1.08,4.34.66.66,0,0,0-.11.22l.33.26.7,4.93-.27.38a.24.24,0,0,0,0,.08l2.29,2L192,217.31h0s0,0,0,0c3.87,1.79,7.63,1.14,12,.39l1.12-.19a85.73,85.73,0,0,1,21.07-.8l1.19.1.11,1.18a17.37,17.37,0,0,0,2.94,8.27s.07.08.09.08.1,0,.15-.16a2.6,2.6,0,0,1,1.49-1.53c1.8-.72,4.37.51,6.63,1.6a14.37,14.37,0,0,0,2.05.89,15.05,15.05,0,0,0,4.77-.22l.5-.07c7.52-1.09,14.13.55,22.09,5.51.85.53,1.68,1.15,2.48,1.76,2.93,2.21,4.88,3.48,7.19,2.56,1.82-.72,3.62-1.48,5.37-2.22a104.15,104.15,0,0,1,13.36-4.93l.15,0a4.7,4.7,0,0,0,1.08-.29c.12-.05.14-.1.14-.13a.2.2,0,0,0,0-.09l-.07,0-.45.11-.43-.18c-2.78-1.16-4.33-2.52-4.74-4.16a4.07,4.07,0,0,1,1-3.6q.8-1.33,1.62-2.64a47.37,47.37,0,0,1,4.53-6.3c4.47-5,9.61-7.32,15.28-6.8l.32-.61.83,0,.49-1.76s0,0-.11-.05l-.94-.13-.24-.92c-.87-3.37-.78-4.22-.23-4.88a1.55,1.55,0,0,1,1.19-.56h0a.5.5,0,0,0,0-.27,19.91,19.91,0,0,0-4.31-6.44l-.47-.46c-.8-.76-1.43-1.37-1.2-2.34s1.09-1.22,2-1.49l1-.3.33-.11a9.58,9.58,0,0,0,2.51-1.08A.3.3,0,0,0,316,184a.59.59,0,0,0,0-.24c-.2-1.33-2-2.43-3.58-3.4-.42-.26-.82-.5-1.19-.75l-.84-.56.25-1c1.69-6.56,3.61-14,12.69-15.48a7.58,7.58,0,0,1,2.78.2,3.8,3.8,0,0,0,2,.11c.58-.26.73-.61,1-1.37.62-1.76,1.58-3.42,5.88-2.77a.58.58,0,0,0,.27,0l0-.75.75-.49,4-2.3.64.47a.48.48,0,0,0,.14-.18,3.33,3.33,0,0,0,0-2.85l0-.05-.23-.32,0-.45c-.08-.47-.11-.48-.76-.85l-.46-.26-.82-.45a5.62,5.62,0,0,1-2.91-2.88,7.52,7.52,0,0,1-.49-1.39,4.51,4.51,0,0,0-.34-1c-.72-1.25-3.35-2.31-5.68-3.25-3.62-1.46-7.72-3.12-7.24-6.63a.57.57,0,0,0-.05-.28c-3.68,1.36-9.27.43-15.18-.55-8.86-1.48-18-3-20.71,2.89l-.83,1.82-1.44-1.38a7.37,7.37,0,0,0-8.81-1.06l-.66.39-.68-.33s-.13.08-.15.13a20.8,20.8,0,0,1,2.54,7.31l.14.91-1.36.88c-1.84,1.18-4.13,2.65-4.73,4.31l-.68,1.87-1.54-1.26a.4.4,0,0,0-.16-.08l-.4.45-.31.13a.41.41,0,0,0-.06.08l-.09.31-.21.23-5.47,6.24-.8-.15c-2.56-.49-2.25-3.24-2-5.06.28-2.4.22-3.3-.67-3.6-1.65-.56-3.53,0-5.51.63a15.57,15.57,0,0,1-4.9,1l-1.42,0,.49-21.74a.37.37,0,0,0-.24.06c-3.35,2.77-6.52,2.91-10,2.81h-.34a5.07,5.07,0,0,0-2.72.35,2.52,2.52,0,0,0-.32.35,4.33,4.33,0,0,1-.85.84,7.62,7.62,0,0,1-2,1l-.5.2a3.46,3.46,0,0,0-1.86,1.21,3.17,3.17,0,0,0-.32.66,5.21,5.21,0,0,1-.69,1.3,7.1,7.1,0,0,1-2.18,1.71,6.6,6.6,0,0,0-1.13.75l-.16.14c-.71.66-1,.92-1.1,1.55a6.51,6.51,0,0,0,.8,3.58,7.53,7.53,0,0,0,.54.91,9.06,9.06,0,0,1,.85,1.52l0,0a3.09,3.09,0,0,1,1.2,3.14c-.41,1.45-2,2.35-5.16,2.94l-1.23.23-.38-1.2-.46-.18-.26-.46c-1.64-2.82-4.91-4.31-9.71-4.42a36,36,0,0,0-3.9.2,23.33,23.33,0,0,1-7.29-.15,13.15,13.15,0,0,1-5.48-3.2,16.13,16.13,0,0,0-3.05-2.18c-3.72-1.84-4-3.9-4.35-6.08a13.82,13.82,0,0,0-.67-2.9,4.39,4.39,0,0,0-.3-.55,5.18,5.18,0,0,1-.59-1.24c-1-3.67.06-5,2-7.32l8.68-10.44c.31-.37.77-1,1.29-1.76,2.65-3.73,6.28-8.84,9.86-7.87,0,0,.1,0,.12-.11a13.77,13.77,0,0,1,5.54-7.61,8.53,8.53,0,0,1,1.11-.59,4.27,4.27,0,0,0,1-.57c1-1,1-1.57.61-2.43-.55-1.29-2.14-2-3.68-2.74l-.29-.13-1.65-.74c-3.62-1.59-7-3.09-8.58-7.94-.25-.8-.49-1.71-.74-2.68-1.07-4.18-2.41-9.39-6.21-9.84l-1.15-.12a11.69,11.69,0,0,1-4.25-1,7.47,7.47,0,0,1-1.2-.7,2,2,0,0,0-1-.46,2.12,2.12,0,0,0-2.43,1.17.37.37,0,0,0,.14.16l.53.37.42,4.11-.31.44-.4,1-1.06-.05a68.89,68.89,0,0,0-11.46,0,15.46,15.46,0,0,1-4.81-.78c-2.48-.65-5-1.33-6.35-.19a3.66,3.66,0,0,0-.88,1.72,12.27,12.27,0,0,1-.46,1.25c-1.36,3-3.35,3.83-5.27,4.61-.49.2-1,.41-1.56.67-1.31.63-2.65,1.86-2.49,3.43l.1,1-1,.4c-1.45.61-1.5,2.07-1.06,3.24l.52,1.39-1.42.45a18.36,18.36,0,0,1-5,.85c-.08,0-.14,0-.15.18l-.25,3.77-1.36,0c-2.14-.06-4.83.32-5.64,2.44l-.53,1.39-1.36-.59c-.68-.3-1-.24-1.17-.17s-.13.05-.32.31a5,5,0,0,1-.6.7,11.17,11.17,0,0,1-3.3,2.28,6.07,6.07,0,0,0-3.88,5.68l-.05.88-1.25.53c-.54.23-1.4.59-1.78.81v.07a3.53,3.53,0,0,1-.21.76,11.93,11.93,0,0,1-2.38,4l-.73.76-.94-.47c-.59-.12-2.43.37-4.95,1.73-1.54.83-1.57,2.5-1.42,5.14l.1,1.85-1.81-.39a13.21,13.21,0,0,0-10,1.88l-.68,1.15-1.23-.57a100.3,100.3,0,0,1-19.11-12.66.28.28,0,0,0-.24-.07c-1.82,7.07-3.72,14.39-7.5,20.91A39.76,39.76,0,0,1,61,141.6l-1.41,1.54c-1.64,1.82-2.4,3-2.22,4.91l.07.75-.59.48A150,150,0,0,1,37.39,162.7l-.16.09-.18,0a.32.32,0,0,0-.19.15c2.13,4.43-1.74,6.44-4.05,7.64l-1.31.68-4.69-6.41a.35.35,0,0,0-.26-.15l-1.74,3.31-1.27-.74a7.54,7.54,0,0,0-3.86-1l-.6.79-.94-.29a2,2,0,0,0-1.56.14l-1.11.56-.7-1A12.6,12.6,0,0,0,9.23,162a.32.32,0,0,0-.3,0,56.52,56.52,0,0,1,2.26,12.42,27.69,27.69,0,0,1-.21,4.35,17.27,17.27,0,0,0,0,5.22c.43,1.84,3.92,2.22,6.47,2.49l1.11.12.37.49a21.34,21.34,0,0,0,6.92,5.66c5.11,2.87,9,5.83,12.49,11.66q3,5,6,10l3.07,5.14,1.07,1.82c2.05,3.5,4,6.8,6.78,9.47l1.3,1.24-1.51,1c-4.31,2.79-9.08,3.14-13.28,3.12-.77,0-1.58-.07-2.45-.15-2-.17-4.33-.37-5.83.4l-.38.22c-1.31.87-2,2.79-1.83,5.69v.22a20.19,20.19,0,0,0-.13,2.58v.28c0,2,.07,6,1.17,7.58a4.84,4.84,0,0,0,2.18,1.5l.39.16.24.35a10.45,10.45,0,0,0,2.36,2.52,8.66,8.66,0,0,0,2.42,1.25l.82.28.11.76c9.51,4.5,21.31,10.09,30.21,19l.32.32.07.45c.11.69.25,1.48.42,2.25l.11,0,.8-.56.81.55a.2.2,0,0,0,.16,0c-.61-.87-1.26-1.75-2.06-2.78l-.23-.3,0-.38c-.1-.75-.18-1.57-.24-2.5L71,274.42l1.44-.07a23.6,23.6,0,0,1,7.71.57l1,.3,0,1c0,.41,0,1-.05,1.55,0,.31,0,.59,0,.75v3.54l.13.36-.06.41a.28.28,0,0,0,0,.18ZM192,217.31h0ZM117.7,110.4Zm.16-.2Z"/></svg>