<svg id="Layer_1" data-name="Layer 1" xmlns="http://www.w3.org/2000/svg" viewBox="0 0 350 350"><defs><style>.cls-1{fill:#999;}.cls-2{fill:#f90;}</style></defs><title>M</title><path class="cls-1" d="M331.42,67.7c-7.42-.4-12.54,1.08-14.83,2.29s-8.09,6.2-9,4.18-2.16-3.37-5.12-4.85-12.48-8.06-17.94-11.23-10-3.48-12.58-2.64-13.42,8.87-15.4,10.19-10.61-1.56-14.92.36S224,76.84,218.45,78.34a8.46,8.46,0,0,1-4-1.3c.12-.45.24-.9.34-1.36.85-3.86.58-9.35-.14-15.2l-.08,0c.67,5.67.9,10.94.07,14.69-2.43,11-11,20.17-18.88,24S168,109.8,163.44,109.8s-24.32,9.15-29.9,12.73-6.29,16.88-7.15,25.17,2.72,31.61,1.86,35.19-8.15,15.73-8.15,15.73-.14-5.86,0-17.74c-1.72-.57-20.45.43-27-.72s-9.73-4-10.44-9-4.43-6.29-3.86-7.29,3.43-9.73,1.72-12.59c-1.61-2.68-16.75-3.48-18.68-3.57a55.21,55.21,0,0,1-5.16,6.74,250.8,250.8,0,0,0-27.41,31.25c-8,12.54-11.23,31.35-11.43,33.07s2.73,9.51-2.93,10.62-7,1.92-7.38,4.15-2.23,10-.51,10.32c3.84.81,27.31,11.13,27.31,11.13s-.2,1.62-1.42,12.64c2.12,3.24,23.57,24.68,23.57,24.68V295s13.55-.61,17.9-.71,15.68-1.62,19.52-2.12,19.62.51,29.74,2.12a19.94,19.94,0,0,1,11.93-5.36L147.87,274s-1.42-5.26-1-7.59S164.66,254,164.66,254,199,233.56,200,233s22.45-22.15,23.87-24.38-3.24-7.89,3.34-15.68a93.78,93.78,0,0,1,17-15.68c5-3.74,12-7.08,15-7.28s10.72,4.75,13.45.61,8.19-3.64,9.1-4,5.26-1.42,5.77-1.92.91-2.63,1.21-5-2.53-7.79-3.24-9.71-.2-5.26,7.38-6.47,7.08-.1,9.31,2.23,10.32,2.23,16,2.53,6.27-.81,6.27-.81,1.82-8.6,1.52-11.33,4.45-21.54,8.5-25.18,2-9.84,2.1-11.88.52-11.83.9-12,6.37-4.56,6.37-4.56-5.13-7.6-5.37-8.93c-.09-.52-.27-3.1-.45-6C337.58,67.72,336.23,68,331.42,67.7Z"/><path class="cls-2" d="M55,296.43v-3.53c-3.56-3.56-21.29-21.38-23.33-24.49L31.4,268l.06-.51c.77-7,1.13-10.19,1.29-11.61-7.1-3.11-23.17-10-26.07-10.62a2,2,0,0,1-1.27-.86c-1-1.46-.61-4.64.46-10,.09-.44.16-.81.21-1.09.61-3.38,3.19-4.24,8.5-5.28,2.57-.51,2.69-2.88,2-7.09a9.22,9.22,0,0,1-.21-2.3c0-.19,3.08-20.23,11.64-33.67A246.49,246.49,0,0,1,54.69,154.4l1-.94a52.13,52.13,0,0,0,5-6.54l.45-.66.79,0c8.11.38,18.13,1.43,19.83,4.25,2,3.27-.49,11.09-1.44,13.44l.34.36A11.3,11.3,0,0,1,84,171c.64,4.46,3.41,6.79,9.28,7.82,3.75.65,12,.58,18.05.53s8.34,0,9.19.24l1,.33v1c-.07,5.44-.07,9.63-.06,12.57,2.27-4,5-9,5.41-10.91.34-1.42-.24-7.64-.8-13.66-.73-7.84-1.56-16.74-1.09-21.35.08-.8.17-1.65.25-2.54.86-8.95,1.93-20.08,7.55-23.68,5.2-3.33,25.52-13,30.66-13,4,0,23.55-6.44,31.7-10.44,7-3.46,15.71-12.15,18.12-23.06.69-3.14.66-7.79-.1-14.22L213,59.45l2.76-.75.28,1.6c.87,7.12.9,12.1.11,15.68l-.08.34a7.08,7.08,0,0,0,2.21.59c3.37-1,9.72-4.76,14.85-7.8,3.31-2,6.16-3.65,7.85-4.4,2.75-1.22,6.62-.79,10-.41,1.65.18,4.14.46,4.69.16s1.36-1,2.54-1.79c5.57-4,11.18-7.9,13.2-8.56,3.61-1.18,8.75-.15,13.74,2.76,2.62,1.53,6.09,3.78,9.45,6,3.56,2.31,6.92,4.49,8.41,5.23,2.88,1.44,4.44,2.86,5.59,5.14a24.51,24.51,0,0,0,4.67-2.77,30.1,30.1,0,0,1,2.61-1.69c2.73-1.45,8.26-2.85,15.57-2.46h0c4.45.24,5.58,0,5.79,0l1.93-1.12.14,2.29c.3,4.87.4,5.71.43,5.86a75.43,75.43,0,0,0,5.15,8.39l.76,1.13-1.09.81c-3.62,2.67-5.23,3.82-6,4.32-.21,1.49-.45,6.17-.57,8.54-.06,1.17-.11,2.13-.14,2.63a12.11,12.11,0,0,0,.14,1.7c.36,2.93,1,7.83-2.71,11.14s-8.3,21.59-8,24c.32,2.87-1.35,10.87-1.54,11.78l0,.2-.1.18c-.69,1.26-3.24,1.78-7.59,1.55l-2.82-.12c-5.82-.23-11.84-.47-14.11-2.84-.34-.36-.62-.69-.88-1-1.13-1.33-1.47-1.73-7.18-.82-4.33.69-5.71,2-6.14,2.77a2.07,2.07,0,0,0-.14,1.81c.17.45.45,1.1.79,1.86,1.54,3.49,2.78,6.53,2.52,8.52-.58,4.41-1.14,5.29-1.62,5.77s-1.39.8-4.2,1.6c-.77.22-1.73.49-2,.61a5.51,5.51,0,0,1-1.61.31c-1.92.2-5.12.55-6.88,3.22-2.44,3.71-7.4,2.09-11,.9a13.33,13.33,0,0,0-3.51-.88c-2.52.17-9.27,3.27-14.21,7a92.51,92.51,0,0,0-16.76,15.46c-4,4.78-3.42,8.58-3,11.35.26,1.61.49,3-.26,4.17-1.51,2.37-23.13,24-24.28,24.79-.91.61-31.84,19-35.36,21.08-7.58,4.41-16.2,10-17.15,11.57-.21,1.53.5,5,1,6.87l.19.71-13.22,15.92-.64,0a18.72,18.72,0,0,0-11,5l-.51.48-.69-.11c-9.9-1.58-25.68-2.6-29.33-2.12l-.61.08c-4.44.59-14.85,2-19.06,2.06s-17.74.7-17.87.71ZM34.34,267.25c2.7,3.49,17.41,18.38,23.1,24.06l.42.42v1.74c3.64-.16,13-.56,16.45-.64,4.06-.09,14.74-1.5,18.76-2l.61-.08c4.13-.54,19.82.54,29.47,2a21.56,21.56,0,0,1,11.68-5.22l11.5-13.85c-.4-1.62-1.22-5.39-.86-7.48s6.56-6.49,18.49-13.42c9.5-5.64,34.37-20.43,35.23-21,1.74-1.38,22.29-22.13,23.46-24a6,6,0,0,0-.15-2.19,15.09,15.09,0,0,1,3.6-13.64,94.88,94.88,0,0,1,17.22-15.89c5-3.8,12.38-7.33,15.73-7.57a13.6,13.6,0,0,1,4.58,1c3.7,1.21,6.63,2,7.78.23,2.5-3.79,6.85-4.26,8.95-4.48.32,0,.72-.08.84-.11a22.36,22.36,0,0,1,2.29-.72c.86-.25,2.39-.68,3-.93a18.07,18.07,0,0,0,.82-4.09c.18-1.37-1.44-5-2.31-7-.36-.81-.67-1.51-.85-2a4.88,4.88,0,0,1,.35-4.22c1.22-2.08,4-3.47,8.14-4.14,6.72-1.07,7.89-.45,9.78,1.78.22.26.47.55.77.87,1.48,1.54,7.66,1.79,12.17,2l2.86.13a14.69,14.69,0,0,0,4.93-.28c.55-2.69,1.58-8.39,1.37-10.29-.31-2.83,4.39-22.29,9-26.4,2.57-2.32,2.13-6,1.8-8.69a12.64,12.64,0,0,1-.16-2.24c0-.49.08-1.43.14-2.58.5-9.88.58-10.2,1.58-10.58.49-.31,2.74-1.93,5-3.61-2-3-4.61-7.1-4.83-8.34,0-.19-.12-.65-.37-4.59a46.29,46.29,0,0,1-5.28-.07c-8.69-.47-13.27,1.69-14.09,2.13-.55.29-1.41.88-2.32,1.51-3.26,2.25-5.52,3.68-7.23,3.22a2.19,2.19,0,0,1-1.43-1.21c-.77-1.65-1.71-2.8-4.47-4.19-1.63-.81-4.9-2.94-8.68-5.39-3.33-2.16-6.77-4.39-9.33-5.88-5.06-2.95-9.23-3.23-11.43-2.51-1.77.58-9,5.71-12.43,8.17-1.21.86-2.16,1.54-2.62,1.85-1.31.87-3.51.63-6.56.29s-6.52-.72-8.57.19c-1.53.68-4.46,2.42-7.55,4.25-5.67,3.36-12.11,7.18-15.79,8.17l-.23.06-.24,0a9.94,9.94,0,0,1-3.29-.79,39,39,0,0,1-18.67,21.53c-7.41,3.64-27.85,10.73-33,10.73-4,0-23.17,8.68-29.13,12.51-4.46,2.86-5.54,14.12-6.26,21.57-.09.89-.17,1.75-.25,2.56-.45,4.33.37,13.08,1.09,20.79.74,7.88,1.17,12.79.74,14.58-.88,3.68-7.56,14.87-8.32,16.13l-2.51,4.19-.12-4.88c0-.06-.13-5.59,0-16.51-1.56-.06-4.56,0-7.29,0-6.49.05-14.56.13-18.56-.57-7.1-1.23-10.78-4.48-11.6-10.21a8.54,8.54,0,0,0-2.68-5.06c-.74-.78-1.75-1.84-1-3.14S80.46,154,79.26,152c-.78-1-7.22-2.34-16.74-2.84a49.58,49.58,0,0,1-4.88,6.29l-1,1a243.69,243.69,0,0,0-26.3,30.13c-8.2,12.87-11.15,32.22-11.17,32.41a12.1,12.1,0,0,0,.19,1.52c.48,3,1.49,9.2-4.26,10.33s-6,1.8-6.26,3c-.05.29-.13.69-.22,1.14-.82,4.11-1.14,6.68-1,7.64,5.05,1.4,26.22,10.7,27.15,11.11l1,.42-.13,1S35.48,256.89,34.34,267.25ZM7.22,242.48l.07,0Zm316.16-96.1Zm14.76-58.16-.18.09Zm-.9-21.95h0Z"/></svg>