<svg id="Layer_1" data-name="Layer 1" xmlns="http://www.w3.org/2000/svg" viewBox="0 0 350 350"><defs><style>.cls-1{fill:#999;}.cls-2{fill:#f90;}</style></defs><title>M</title><polygon class="cls-1" points="138.11 141.18 139.1 142.68 142.71 144.31 146.32 147.25 147.41 148.71 148.56 151.52 150.06 153.49 152.45 154.48 156.61 154.57 162.25 153.52 165.49 153.08 168.23 153.38 172.36 153.97 174.37 154.21 180.04 153.13 186.82 155.53 191.34 157.5 192.98 158.22 196.1 158.22 197.4 156.56 197.05 155.42 197.86 153.65 196.98 151.83 196.98 149.75 197.91 148.66 203.62 149.18 207.32 148.19 213.14 148.5 214.75 150.48 217.55 150.61 220.83 151.62 224.67 141.44 231.94 141.13 234.02 144.76 237.04 144.97 241.19 144.35 244.67 147 246.85 146.68 249.5 146.74 249.3 149.75 256.57 153.65 265.54 149.67 271.9 147.31 276.32 144.96 282.08 146.37 284.21 147.67 291.2 149.2 293.78 149.09 296.15 149.38 297.93 149.91 303.38 151.52 309.46 151.31 311.06 150.28 312.73 148.45 313.67 147 315.23 146.48 317.31 147.36 318.19 149.67 317.62 152.81 320.79 154.89 321.41 159.36 323.07 161.75 326.35 163.78 330.76 168.19 331.9 168.5 334.19 172.66 336.89 176.66 338.24 177.44 343.49 183.83 343.75 185.08 342.5 187.21 341.31 192.15 340.69 193.96 340.43 194.79 340.48 195.83 337.93 200.04 335.44 200.87 333.83 201.6 332.84 202.85 332.27 204.46 332.37 206.33 332.22 207.84 328.01 208.1 327.38 208.72 325.88 208.51 324.99 209.13 322.71 209.13 321.98 208.1 320.01 208.62 317.46 208.04 315.85 207.42 314.71 207.84 313.56 207.52 310.81 208.3 309.77 207.16 306.55 208.51 305.36 208.77 303.95 208.25 302.19 208.62 301.1 208.2 297.35 207.58 296.06 206.9 294.76 206.69 294.24 205.55 292.06 205.19 287.01 203.94 285.56 204.2 282.55 203.63 279.07 207.11 278.08 207 273.51 202.33 267.48 199.11 265.19 197.24 263.01 195.94 260.68 194.64 259.79 192.77 258.49 191 256.62 188.61 256 187.37 254.28 186.95 251.38 187.47 246.96 186.22 246.03 184.77 241.92 182.33 234.52 184.92 233.04 186.74 231.22 188.66 230.34 188.82 227.27 188.35 223.63 189.86 216.77 183.99 214.02 184.56 211.79 184.4 209.5 182.79 205.92 180.35 204.31 179.78 198.49 181.34 192.36 181.18 187.68 179.78 186.75 180.3 182.17 180.4 180.3 180.35 178.33 181.44 170.79 181.44 169.6 181.86 169.13 182.74 170.01 184.72 170.64 186.95 171.21 189.6 172.09 192.04 173.6 194.79 169.96 196.77 168.04 197.08 164.4 197.19 162.12 197.5 159.73 197.65 158.01 197.5 154.58 198.38 151.78 199.26 150.22 199.52 149.03 201.24 146.63 201.65 144.14 202.22 142.63 201.71 142.17 200.09 139.62 200.93 130.48 198.74 125.54 202.28 122.53 201.81 121.02 202.75 117.59 203 116.92 203.52 112.86 203.63 109.02 206.07 107.82 205.6 104.39 206.43 101.22 207.94 98.11 207.58 96.13 207.89 93.59 207.73 92.44 209.81 87.82 211.42 86.89 211.42 86.47 212.1 85.48 212.1 84.75 210.9 83.3 210.69 81.85 210.28 80.65 209.08 79.97 208.36 73.17 205.08 74.83 203.58 72.55 199.73 70.1 196.35 68.18 194.43 66.57 193.91 64.18 194.07 61.95 194.02 60.75 194.33 58.83 195.78 57.01 197.13 56.28 197.86 56.28 199.37 58.31 201.08 52.7 200.61 49.37 199.11 48.02 196.77 49.69 194.79 50.15 193.39 49.74 191.31 46.93 189.6 46.52 180.97 43.29 180.35 37.89 183 34.67 181.44 32.18 180.51 33.11 177.91 31.66 177.44 27.55 177.49 25.01 178.59 23.39 177.29 24.17 175.73 24.64 168.19 17.16 164.35 14.56 165.13 14.56 163.41 8.95 162.9 7.39 158.22 6.25 157.13 7.91 155.72 8.28 154.58 7.29 151.67 7.03 149.65 7.24 148.09 10.41 148.35 12.07 149.54 14.62 149.85 15.71 149.65 17.26 149.75 18.46 149.75 20.12 149.28 21.79 149.8 23.34 150.53 24.59 150.48 26.3 150.32 27.81 149.75 28.95 148.71 30.41 147.62 31.6 147.26 33.53 148.71 34.93 149.49 39.55 149.75 41.22 147.93 45.06 146.32 48.54 145.02 49.84 144.19 54.26 144.55 58 144.61 60.34 144.61 63.56 144.92 66.67 145.07 68.18 146.53 69.64 147.1 71.14 146.74 72.96 145.85 80.18 145.18 83.92 143.93 85.53 145.49 87.77 145.54 89.95 144.87 93.07 144.19 95.09 143.57 96.44 143.57 98.31 143.83 99.93 144.09 102.16 142.68 103.82 142.11 105.07 142.11 106.26 142.79 107.88 143.72 109.75 143.93 111.46 143.93 114.11 142.58 116.92 142.63 117.8 141.44 121.02 142.58 121.69 141.13 123.56 138.84 126.16 138.84 128.5 137.9 130.53 137.9 131.67 138.32 133.07 137.9 134.68 137.9 136.24 138.63 137.18 140.6 138.11 141.18"/><path class="cls-2" d="M87.26,213.51H84.69l-.79-1.3-1-.15-1.81-.52-2-2-8.46-4.07L73,203.3l-1.66-2.79L69,197.28l-1.6-1.6-1-.33-2.18.14-2.1,0-.73.19-3.68,2.82v.26l4.91,4.15L52.34,202l-4-1.8-2.08-3.59,2.13-2.53.26-.79-.22-1.1-2.92-1.78-.4-8.26-1.66-.32-5.6,2.74-3.79-1.83-3.74-1.4.89-2.48-3.41,0-3.07,1.32-3.16-2.55,1.16-2.32.39-6.32L17,165.87,13.15,167v-2.33l-5.25-.49L6.16,159l-2-1.94,2.56-2.16.1-.31-.9-2.74-.28-2.21L6,146.56l4.9.4,1.69,1.21,2,.24,1.05-.2,1.74.12h.9l1.88-.53,2.24.71,1.25.58.9,0,1.45-.13,1.07-.41,1-.94,1.65-1.24,2.12-.65,2.42,1.83,1,.57,3.63.2,1.42-1.55L44.51,145l3.39-1.27,1.58-1,4.89.4,3.64,0H60.4l3.29.32,3.58.18L69,145.31l.78.3.92-.22,1.91-.93,7.32-.68,4.4-1.47,1.83,1.77,1.45,0,2.08-.64,3.06-.66,2.17-.67h1.76l3,.44,2.07-1.26,1.89-.65h1.86l2.89,1.65,1.5.17h1.3l2.66-1.36,2.43,0,1.07-1.45,3,1.06.32-.59,2.3-2.81h3l2.34-.94h2.55l.94.34,1.15-.34H135l2.31,1.08,1,2.05.85.52.94,1.43,3.54,1.65,3.86,3.19,1.27,1.77,1.07,2.63,1.16,1.52,1.79.74,3.75.09,5.49-1,3.48-.47,2.91.32,5.94.81,5.83-1.12,7.14,2.54,6,2.6h2.13l.42-.53-.29-.94.76-1.66-.73-1.51v-2.93l1.75-2,6.18.56,3.68-1,6.67.36,1.61,2,2.52.17,2,.61,3.7-9.81,9.07-.39,2.13,3.73,2.1.15,4.59-.69,3.49,2.65,1.71-.24,4.25.08-.25,3.58,5.86,3.14,8.34-3.69,6.34-2.36,4.82-2.56,6.5,1.6,2.11,1.29,6.58,1.44,2.51-.1,2.72.35,7,2.07,5.46-.19,1.11-.72,1.47-1.61,1.14-1.77,2.54-.85,3.13,1.33,1.24,3.25-.47,2.61,2.92,1.92.67,4.77,1.3,1.87,3.28,2.08,4.15,4.15,1.36.37,2.54,4.63,2.48,3.68,1.29.75,5.63,6.86.44,2.12-1.42,2.42-1.18,4.86-.8,2.37.06,1.22-3,5-2.92,1-1.23.56-.63.79-.4,1.12.09,1.7-.29,2.81-4.87.3-.74.74-1.65-.23-.79.56H322l-.58-.83-1.35.36-3.08-.71-1.11-.43-1.07.39-1.2-.33-3.22.91-1-1.05-2.54,1-1.6.35-1.41-.52-1.77.37-1.34-.51-3.82-.64-1.29-.67-1.82-.29-.52-1.15-1.54-.26L287,205.39l-1.41.25-2.53-.48-3.43,3.43-2.17-.23-4.78-4.89-6.06-3.27-2.2-1.8-2.09-1.25-2.7-1.5-1-2.16-1.22-1.66-2-2.6-.33-.66-.79-.19-2.94.52-5.25-1.48-1-1.62-3.25-1.93-6.4,2.25-1.3,1.59L231.93,190l-1.57.28-2.9-.44-4.07,1.69-7-6-2.26.47-2.82-.2L208.68,184l-3.42-2.33-1-.36-5.59,1.5-6.53-.17-4.28-1.29-.72.4-4.92.11-1.55,0-2,1.08H171l-.26.09.6,1.39.62,2.23.57,2.64.81,2.25,2.14,3.91-5.1,2.77-2.35.37-3.56.1-2.21.3-2.6.17-1.58-.14-3.19.82-2.93.91-1,.16-1.19,1.71-3,.52-2.81.65-2.58-.89-.26-.91-1.53.5-8.9-2.12-4.88,3.49-3.07-.48-1.36.84-3.35.25-.71.54-4.12.11-4.12,2.62-1.45-.57-2.85.69-3.4,1.62L98.14,209l-1.94.31-1.81-.11-1,1.77-5.36,1.87h-.38ZM83.6,209.3l2,.29.36.59.11-.18h1.49l3.88-1.35,1.31-2.39,3.29.2,2-.32,2.91.34,3.08-1.43,3.86-.94.94.37,3.57-2.27,4-.1.64-.5,3.51-.27,1.66-1,3,.46,5-3.57,9.38,2.24,3.56-1.16.67,2.31.43.15,2.1-.48,1.88-.33,1.2-1.72,2-.34,2.71-.85,3.74-1,1.85.17,2.28-.15,2.34-.31,3.54-.1,1.59-.26,2.18-1.18-.91-1.7-.94-2.62-.57-2.65-.57-2-1.12-2.51,1.05-2,1.95-.68H178l2-1.1,2.26.06,4.15-.1,1.15-.64,5.07,1.52,5.74.15,6-1.62,2.35.88,5.57,3.84,1.64.11,3.24-.67,6.73,5.76,3.2-1.33,3.23.49.19,0,1.46-1.54,1.71-2.09,8.4-2.95,5,3,.82,1.28,3.59,1,2.88-.51,2.64.64.85,1.71,1.78,2.28,1.46,2,.69,1.46,1.94,1.08,2.39,1.44,2.18,1.78,6.1,3.26,4.26,4.36,3.45-3.45,3.49.66,1.49-.27,5.28,1.31,2.87.48.52,1.14.77.12,1.3.68,3.79.66.71.27,1.76-.36,1.4.52.66-.14,4-1.69,1.12,1.23,2.29-.65,1.09.3,1.22-.44,2,.78,2.1.47,2.6-.68.87,1.24h1.1l1-.69,1.36.19.5-.5,3.54-.22,0-.2-.11-2,.74-2.1,1.35-1.7,2.06-.92,2-.67,2.05-3.39,0-.86.33-1.07.61-1.79,1.23-5.07,1.08-1.84-.08-.37-4.86-5.92-1.41-.81-3-4.38-2-3.63-.93-.25-4.57-4.57-3.38-2.09-2-2.91-.58-4.17-3.42-2.24.67-3.68-.53-1.38-1-.44-.58.19-.81,1.23-2,2.07-1.92,1.24-6.7.23-7.34-2.17-2.14-.26-2.65.11-7.4-1.61-2.15-1.31-5-1.23-4.11,2.17L266,151l-9.53,4.22-8.69-4.66.17-2.44-1,0-2.66.38-3.48-2.65-3.72.56-3.93-.27-2-3.55-5.48.23-4,10.55L217.31,152l-3.26-.16-1.61-2-5-.27-3.73,1-5.22-.48-.12.14v1.23l1,2.13-.87,1.9.41,1.32-2.18,2.79h-4.1l-6.43-2.8-6.33-2.24-5.51,1.06-2.23-.27-4.16-.59-2.52-.27-3.07.42L156.73,156l-4.57-.1-3-1.23-1.92-2.6-1.07-2.64-.88-1.17L142,145.53l-3.81-1.72-1-1.58-1-.63-.9-1.9-.81-.38h-1.09l-1.65.49-1.35-.49h-1.5l-2.34.94h-2.2l-1.33,1.63-1.14,2.46-3.45-1.22-.69.94-3.18-.06-2.64,1.34h-2.21l-2.17-.24-2.73-1.57h-.64l-1.28.44-2.55,1.6L96.35,145h-1l-1.94.59-3.06.66L88,147l-3-.07-1.39-1.35-3.24,1-7,.65-1.87.87-1.94.47-2.13-.84-1.33-1.28-2.59-.13L60.27,146H58L54.24,146l-4-.33-1.16.71-3.48,1.3-3.5,1.47-1.91,2.08-5.62-.32-1.85-1-1.35-1-.27.08-1.2.9L28.57,151l-1.94.74-1.91.17-1.66.07-1.79-.83-1.17-.37-1.45.41H17.26l-1.47-.1-1.13.22-3.13-.38L9.9,149.73l-1.43-.12v0l.22,1.7,1.09,3.22-.63,2-.77.65.26.24L10,161.57l6,.55v1.1l1.32-.4,8.81,4.53-.54,8.75-.4.8.06,0,2-.87,4.62-.06,3.07,1-1,2.66,1.3.5,2.6,1.26,5.21-2.56,4.78.93.43,9L51,190.43l.61,3.06-.67,2-1.2,1.42.63,1.08,2.69,1.22,1.81.15v-2.1l1.3-1.28,4-3,1.66-.43,2.37.05,2.6-.17,2.19.71,2.31,2.34L73.76,199l2.88,4.84-1,.87,5.15,2.48L82.59,209Z"/></svg>