<svg id="Layer_1" data-name="Layer 1" xmlns="http://www.w3.org/2000/svg" viewBox="0 0 350 350"><defs><style>.cls-1{fill:#999;}.cls-2{fill:#f90;}</style></defs><title>M</title><polygon class="cls-1" points="123.36 12.11 115.91 14.77 110.59 12.11 103.67 14.77 100.47 19.56 100.47 22.22 96.22 22.22 93.55 24.88 90.89 24.88 88.23 24.88 88.23 29.67 88.23 31.27 81.24 31.27 78.11 33.93 74.39 33.93 68 33.93 64.27 37.13 64.27 42.98 61.61 47.77 61.61 53.09 58.95 53.09 58.95 56.82 58.95 60.55 63.21 63.74 63.21 68.21 65.87 68.21 67.47 70.66 68.53 73.32 68 75.99 64.81 80.78 61.61 85.57 58.95 91.42 58.95 97.28 56.29 101.01 49.9 101.01 44.05 103.67 40.32 103.67 35 106.33 29.67 106.33 19.82 109.52 15.3 109.52 12.64 113.78 8.91 119.11 6.25 124.96 6.25 128.16 9.44 130.82 11.04 135.07 12.11 139.87 11.04 145.72 10.51 149.98 11.04 154.24 13.7 157.97 15.3 161.69 16.36 164.35 19.82 167.01 22.75 170.37 28.61 177.13 33.93 180.32 42.45 187.24 47.77 191.5 50.43 197.36 54.16 206.41 55.76 209.6 58.95 209.6 64.01 209.6 66.94 213.33 72.79 213.33 76.52 217.59 81.24 217.59 84.5 221.31 93.02 221.31 96.75 224.51 96.75 226.96 95.68 233.02 94.62 236.22 95.68 239.41 101.01 239.41 106.33 239.41 108.99 242.07 114.85 242.07 118.57 242.07 121.77 242.07 126.03 242.07 128.16 245.27 135.61 248.99 140.54 248.99 140.54 252.72 146.79 257.51 153.71 263.9 161.16 269.76 161.16 274.55 163.82 279.34 163.82 286.74 160.63 290.52 159.03 295.31 157.43 300.1 155.3 304.36 153.71 309.68 151.58 309.68 148.94 315.54 152.64 318.73 156.37 318.73 159.56 318.73 160.09 324.05 159.56 327.78 158.5 331.51 158.5 334.7 160.09 337.89 163.82 337.89 163.82 336.3 163.82 333.1 168.08 333.1 172.87 333.64 175.53 335.23 178.19 337.89 180.86 337.89 186.71 337.89 190.44 337.89 195.23 337.89 205.34 334.7 212.26 333.1 217.59 327.78 217.59 325.65 217.59 322.99 220.78 320.86 225.04 318.73 233.02 313.94 236.22 308.62 236.22 305.95 238.88 301.7 243.67 300.1 247.4 301.16 250.59 297.97 250.59 295.31 250.59 291.58 247.4 289.98 245.8 286.74 250.59 286.74 253.25 286.74 256.45 288.92 256.45 291.58 261.26 288.39 261.26 286.74 261.26 284.66 267.63 282 267.63 274.55 270.29 271.88 267.63 266.56 267.63 261.24 267.63 258.04 267.63 253.78 272.42 248.46 276.68 245.8 279.34 243.67 279.34 240.48 279.34 237.28 283.6 233.02 288.92 231.96 292.11 226.96 294.77 222.38 299.03 223.97 302.23 226.96 304.36 226.96 304.36 229.83 308.62 229.83 308.62 226.96 308.62 221.84 308.62 217.59 311.28 214.93 311.28 212.26 314.47 211.2 317.13 211.2 319.8 211.2 323.52 209.07 323.52 204.28 323.52 197.89 326.71 193.63 329.38 190.44 332.04 187.24 335.76 184.58 338.43 182.99 341.09 181.39 343.75 178.73 343.75 173.94 340.56 170.37 336.83 167.55 330.44 167.55 326.71 170.37 324.05 166.48 324.05 161.16 325.12 155.3 323.52 146.25 324.05 141.46 324.05 136.14 320.86 131.35 314.47 126.56 310.75 126.56 307.55 130.82 308.08 135.07 307.55 139.33 304.89 140.4 301.7 136.67 297.97 136.67 294.77 138.27 290.52 134.01 288.39 127.62 287.86 116.98 287.32 113.78 285.19 102.6 280.4 94.62 274.55 91.96 274.55 87.7 268.69 79.71 269.22 76.52 269.76 71.19 272.42 65.87 277.21 63.74 275.08 56.29 269.22 53.63 261.26 50.97 257.51 53.09 254.85 55.23 252.68 55.86 246.29 58.53 242.61 61.61 242.61 61.61 234.62 62.68 230.9 58.95 223.44 52.56 219.72 53.09 216.52 56.29 212.26 55.23 206.94 54.69 201.62 56.82 197.36 58.95 192.57 61.61 189.37 63.74 184.05 68.21 184.05 68.21 172.34 64.81 163.29 64.81 156.37 62.68 146.79 59.48 143.59 53.63 140.54 47.24 138.27 43.51 135.97 42.35 126.39 30.11 122.3 19.03 123.36 12.11"/><path class="cls-2" d="M195.45,339.31H177.61l-3-3L172.41,335l-4.41-.49h-2.76v4.79h-6L157.08,335v-3.73l1.09-3.82.49-3.46-.39-3.88h-6.16l-4.9-4.23,3.45-7.66h2l1.38-4.54,2.08-4.17,3.25-9.75,3-3.59V279.7l-2.66-4.79v-4.47l-7-5.5-6.87-6.34-6.75-5.18v-3h-3.85l-8.09-4-1.92-2.88H108.4l-2.66-2.66H94.66l-1.54-4.61,1.18-3.54,1-5.84v-1.67l-2.83-2.43H83.86L80.6,219H75.88l-3.73-4.26h-5.9L63.32,211H54.88l-2-4.07-3.73-9-2.5-5.5-5.06-4-8.45-6.86-5.43-3.26-8.83-10.18-3.66-2.81-1.21-3-1.52-3.55-2.78-3.89L9.08,150l.55-4.43,1-5.65-1-4.42-1.43-3.81-3.42-2.85v-4.17l2.92-6.36L11.48,113l3-4.86H19.6l9.85-3.19h5.21L40,102.25h3.75l5.86-2.66h6l2-2.76V91.12l2.9-6.33,6.23-9.35.39-2-.86-2.14-1.1-1.69H61.79V64.45l-4.26-3.19V51.68H60.2V47.4l2.66-4.79V36.47l4.62-4H77.59l3.13-2.66h6.09V23.46H93l2.66-2.66h3.43V19.13l3.68-5.52,7.92-3L116,13.23,125.13,10l-1.37,8.91,3.89,10.53,9.25,11.82,2.38,1.2,2.55,4.2,3,6.39,2.89,5.3,9.05,3,6.69,2.06h9l11.18,3.25,4.87-4.07,3.29-2.19,4.79-2.66,4.42-2.21,5.65-2.26,5.87.6,3.48.87,3-3,4.83-.69,8,6.88,3.23,3.23,6.88-.92,3.53-3,6.73-2.8,1.91-.56,2.63-2.08,4.3-2.44,8.7,2.92,6.45,2.93,2.65,9.27L273.46,67l-2.32,4.63-.51,5.06-.45,2.7L276,87.23V91l5.43,2.47,5.15,8.58,2.18,11.43.56,3.39.52,10.45,2,5.89,3.3,3.3,2.58-1.29h4.71l3,3.45.94-.38.41-3.25-.58-4.65,4-5.28h4.91l7,5.22,3.57,5.35v5.91l-.51,4.59,1.61,9.1-1.09,6V166l1.57,2.3,2.92-2.21h7.34l4.31,3.29,3.56,4v5.92l-3.35,3.29-5.27,3.16L333,188.29l-5.21,6.25-2.87,3.82v11.53l-4.77,2.72H314.7l-2,.67v2.23L310,218.17v13.07h-7.09v-2.87h-1.27l-3.4-3.17-2.87-1.08-2.06,3.54-3.55,5.56-5.49,1.1-3.54,3.54v6.48L277.43,247l-4.09,2.56L269,254.33v11.9l3,5.94-3,3v7.81l-6.36,2.66v3.54L255,294.22v-4.55l-2.21-1.51h-4.74l.38.77,3.55,1.77v7.85l-4.2,4.2-4.11-1.17-3.89,1.3-2.18,3.48V309l-3.58,6-8.38,5-4.18,2.09L219,323.75v4.62l-6,6-7.26,1.68Zm-16.67-2.83H195l10-3.16,6.52-1.51,4.62-4.62v-5l4-2.64,4.21-2.1,7.63-4.58,2.81-4.68v-2.68l3.15-5,5.69-1.9,3.35,1,2.19-2.19v-4.93L246.34,291l-2.81-5.72h10.17l4.17,2.85v.77l2-1.31v-3.91l6.36-2.66V274l2.35-2.35-2.35-4.71V253.24l5.29-5.88,4.36-2.72,2.07-1.65V236.7l5-5,5.15-1,2.87-4.5,3.23-5.56,5.64,2.12,3,2.79h3v2.87h1.42V217l2.66-2.66v-3.1l4.38-1.46h5.18l2.69-1.53V197.42l3.48-4.64,5.63-6.69,3.82-2.72,5.17-3.1,2.12-2.12v-3.66l-2.74-3.06L336.35,169h-5.44l-4.53,3.43-3.75-5.47,0-6,1-5.61-1.59-9,.55-4.92v-4.82l-2.82-4.23L314,128h-2.55L309,131.21l.48,3.87-.66,5.26-4.38,1.75-3.43-4H298.3L294.5,140l-5.22-5.22-2.3-6.89-.54-10.76-.52-3.11-2.08-10.9-4.43-7.39-6.29-2.86V88.16l-5.93-8.09.63-3.78.55-5.49,3-6,4.13-1.84-1.61-5.64-5.19-2.36-7.29-2.44-3.1,1.76-2.79,2.23-2.37.7L247,59.75,243.2,63l-9.09,1.21L229.93,60,223,54.06l-2.62.38L217,57.86,212,56.62l-4.88-.49-4.95,2L198,60.22l-4.69,2.6-3.08,2.05-5.84,4.9-12.24-3.56h-9.06L156,64l-10.14-3.38-3.46-6.35-3.05-6.39-2-3.32L135,43.47l-9.91-12.67-4.29-11.63.76-4.93-5.78,2.07-5.31-2.65-5.92,2.28L101.89,20v3.65H96.8L94.14,26.3H89.65v6.39H81.76l-3.13,2.66H68.53l-2.83,2.43v5.57L63,48.14v6.37H60.37v5.33L64.63,63v3.76h2l2.14,3.34L70,73.19l-.67,3.35-6.48,9.72-2.49,5.47v6L57,102.42H50.21l-5.86,2.66h-3.7l-5.32,2.66H29.9L20,110.94h-4l-2.25,3.59-3.69,5.28-2.48,5.46v2.22l3,2.48,1.79,4.8,1.13,5.07L12.44,146l-.5,4,.47,3.73,2.6,3.7,1.6,3.73.93,2.33,3.36,2.62L29.53,176l5.29,3.19,8.52,6.92,5.58,4.46,2.8,6.16,3.73,9,1.18,2.36H64.7l2.93,3.73h5.81l3.73,4.26h4.72l3.26,3.73h8.4l4.62,4,0,3.35L97,233.47l-.92,2.75L96.7,238h10.21l2.66,2.66h17.21l2.34,3.51,6.82,3.41h6V252l5.79,4.45,6.88,6.35,8,6.25v5.11l2.66,4.79v8.29l-3.35,4-3.18,9.51-2.07,4.15-1.86,6.22h-2.27l-1.83,4.06,2.5,2.16h7.68l.68,6.77-.6,4.09-1,3.54v2.66l1.06,2.11h1.43v-4.79h5.83l5.1.57,3.2,2Z"/></svg>