<svg id="Layer_1" data-name="Layer 1" xmlns="http://www.w3.org/2000/svg" viewBox="0 0 350 350"><defs><style>.cls-1{fill:#999;}.cls-2{fill:#f90;}</style></defs><title>M</title><path class="cls-1" d="M100,115.39l3.91-1.56,4.1-1.76,2.74-2.34,3.71-2.54,3.71-2.34,3.52-2,3.71-2.74,3.13-2.54,2.74-1.76,3.13-1.37h2.34l3.23,1.37,3.81,2.93,3.71,3.52,3.13-.2,2.93.59,3.13.39,3.13-.78,2.54-2.34,4.3-4.3,2.93-3.32,3.13-2h3.71L179.67,89H183l4.3-1.17,3.32-1,3.52-2,1.77-1.56L197.61,81l1-3.12V75.29L200.13,72l1.11-.91,1.71-.7,2.82,1.31,1.51.71,3.22.3h2.82l2.42-.2h2.52l3.12.2,2.72.1,5.14-.1,2.82-.81,2-2L236,67.64l1.81-2.42V62.8l.6-3.93.81-1.91L240.92,55l2.42-1,2.11-.71,1.61-.91L249,50.92l1.71-.91,2.32-.81,2.32-.81.91-.91.6-2,2.12-3.32,1.51-2,1.81-1.21h3.83l2,1.41,1.51.6,1.21.4,1.41.1,1.31-.3,1-.91.5-1.31V37.42l.5-.91,1.31-1.21,2.62-.91,2.82-.5,3.22-.81,2.92-.6h9.27l2.22-.5,1.31-.71,3.53-1,2-1.21H308l1.21.6,2.42,1.41,1.51.4,1.41.2,1.41.2,1,.4,1.71.6,1.81.4,1.81-.2,1.81-1.31,1.51-1.71,2.22-2.72,3.73-5.44,1-.6.91.5.71.4,1.81-.4h1.31l.91.71,1.21,1.61,1.31,2.62v3.42l.71.6.6.4.6.91v1l-.5.6-.1,1,.6,1.21v3.22l.6,1.31.5,1.21v1.61l-.91,1.91-1.41,1.71-3,2.72L337,52.83l-.6,3-1.51,3.93L332,65.12l-1,4-1.81,2.92L327.94,76l-1.61,3.83-.2,2.22.1,2-1.71,2.62-.71,2.11L323,93.32l-.81,2.32-3.73,7.15-2.22,3.63-2,2-2.92,3.32-.4,1.41-.1,2.23-1.91,1.8.2,2.11-3.12,3-.3,3.18-.81,1.71-.71,1.91-.81,2.22-.3,1.51-.4,1.21-2.12,1.91-.81,1.61-.6,1.71-1.71,1.31-1.61,1.31-.6,1-.3,2.62-2.22,2.32-.6,1.41.2,3.32.2,1.91.6,1.81,1.31,2.32.2,1.41-.1,1.06-.1,1.25.2,1.41.4,1.21-.3,1.11-.91,4.23-.5,2.32.91,2.42,1.81,2.82v2.62l-.7,2.42-.3,2.52.5,1.81,1.71,1.71,1.31,1.71.3,2.72-.5,1.71.2,2.11.6,1.81.3,1.91.5,2.12.4,1.61.1,1,.2,1.71-.5,1.21-.5,3.32.6,1.41.5,1.91-.7,1.31-.5,1.11-.2,2-.5,1.51-1.31,1.51-2.52.8h-1.81L290,226.27l-.6,1.91-.5,2.52-1.31,1.21-1.81.7H281.1l-4.43,1.71-.1.91,1.71.91.3.6-2.52,2.62-3.22,1.51-1.81.5-2,2.22-2.12,1.51-2.82.81-2.42.91-1,1.21-1,1.81-3.22,3.32-1.31,3.12-1.91,1.61-1.61,1L250,261.42l-5.44,1.41-5.94,1.91-4.83,1-3.93,1.71-3,2L224,270.58l-2.15,2.32L220,274.11l-1.61.6-3.22.81-2.62,2.72-2,.91-3.22,1.21-3.83,1.31-3.32-.7-2.62-.3-7.55,1h-1.41l-3.22-1.11-1.51-.5-2.11.5-1.41.3-2.82-.81-1.61.5-2.42.5-2.62-.3-2.82-.91-1.41-.3-2,.81-2.82-.3-2.42-1-1.41-.3-1.11.2-1.41.4-4.13-1.11-1.41.5-1.61.3-2.82-1.11-2.22.3-2.42.6-1.71.3-2.42-.1-2.52-.4-2.42.7-1.51-.6-1.11-2.22-1.51-1.81-5.54-2.52-3-1.21-1.61-.5-1.91.3-1.51,1-1.11.5-2.62.5-1.91,2.32-1.81,1.11-1.51,1.31L103.94,279l-1.51.6-3,1.21-.81.81-1.81,5.24L95,291.33l-1.21,3.32v3.12l-1.21,4.43-.5,3.53-.7,2.72-1.11,1.91-1.91,1.31H86L82.89,310,80,309l-3-.1-2.42.81-1.91.7-2.11-.4-2.42,1.71-6.95,3.93-2.22,1.11-1.71.81-1.51,1.81-2.32,1.11H50.26l-4.63,2.72-.91.6-3.53.6-2.52,1.21-3,1.91L33,328.69H29.31l-1.21-1.31-1.81-1.21-1.51-.81-.91-2-.6-2-.6-.7-1.21-.3-1.11.3-3.63,1.51-5.24,2S8,325.47,6.75,320.63v-2.32l.81-2.92.7-2L8.06,310l.3-1.81.4-1.71-.1-2,.91-3.12,1.41-3,.91-2.62,1.21-1.71,1.61-1.11,1.61-1.51.6-1.61.3-1.51-.6-1.61-.7-1.61.1-1.31.91-1.31L19,281,21,279.74l.7-1.21.6-1.41,1.31-1L26.09,275l1.71-3.93.7-1.11v-1.41l-.5-1.51-2.72-3.83-.5-1.31v-.81l-.5-1.21-.6-1-.5-.91-.1-1.71.5-1.81.71-1.71,1.21-1.91.91-1.51.1-.7-4.63-4.13L19.75,243l-2.52-1L15,240l-1.11-.81-1.71-.3-1.41-1.21L9.88,236l-1.31-1-1.31-.6-1-1.31v-4.33l1.31-1.41,1.71-1.51,2.62-2.72,4-3.63,2.92-2.22,2.22-1.51,1.51-1.91,1.61-2.62,1.31-1.71,1.21-1.31L28,203.71l.91-2.42,1.71-1.54,1.91-.87,2.12-1.11L37.87,196l2.62-1.61,2.72-1.11,1.91-2.12,2-1.41,1.41-1.21.6-1.11-.4-.81-5.34-4.73-1.71-1.71-1.61-1.91-1.31-2.42-.3-1.51-.1-1.51.1-2.11.2-1.91-.7-3.12-.2-1.51-.1-1.61.1-2.82.4-2.52.1-2.12v-2.82l-.1-3.73.91-2.62,1.11-4.23.91-2.82L42,137l.91-1.71,1.31-1,1.31-1,1-.81,1.71-2.82,1.31-1.31,1.51-1.51.91-1.31,2.22-3.28,2.52-2,2.82-2.11,2.11-1,1.41-.3,1.11-.7,2.22-1.11h1.11l1.31.3,1.91.1,1.91-.4,1-.6,1.81-.2,1.91.2,1.91.3,1.81-.2,3,.2,2,.1h4.73l1.31-.4,1.41.1,1.21.3,2,.4,1.81.4Z"/><path class="cls-2" d="M33.35,330.11H28.69l-1.51-1.64-1.62-1.08-1.87-1-1.17-2.63L22,322l-.11-.13-.41-.1-.66.18-3.54,1.48-5.27,2a4.79,4.79,0,0,1-3.72-.27A6.15,6.15,0,0,1,5.38,321l0-.34v-2.51L6.19,315l.64-1.84-.19-3.3.33-2,.38-1.61-.1-2.05,1-3.55,1.38-3,.95-2.74,1.47-2.08,1.73-1.19,1.29-1.21.45-1.19.2-1-.46-1.23-.82-1.86.16-2,1.28-1.85,4-2.6.49-.83.72-1.67,1.9-1.41,2-.88,1.59-3.61.48-.76v-.77l-.36-1.09-2.76-4-.6-1.55v-.79l-.36-.85-1.24-2.15-.13-2.27.62-2.2.82-1.93,1.8-2.91L21,245.6l-1.91-1.37-2.6-1-2.35-2.13-.78-.57-1.77-.31-1.89-1.62L8.78,237l-1-.73-1.48-.68-1.51-2v-5.37l1.79-1.92,1.67-1.47,2.65-2.75,4.12-3.7L18,216.17l2.09-1.43,1.33-1.68,1.65-2.67,1.39-1.81,1-1.06,1.25-4.31,1-2.74,2.13-1.92,2.11-1,2-1.07,3.19-1.79L40,193l2.42-1L44.31,190l2-1.37,1.16-1,.1-.19-5.06-4.49-1.86-1.86-1.77-2.15-1.41-2.61-.37-1.9L37,172.8l.1-2.2.18-1.76-.68-3-.2-1.51-.11-1.78.12-3.06.39-2.44.1-2v-2.75l-.11-3.95,1-2.81,1.09-4.18,1-3.09,2-3.83,3.65-2.83,1.79-2.87L50,125.95l3.17-4.66,2.7-2.1,3.08-2.27,2.43-1.11,1.16-.25,1-.64L66,113.66l1.76,0L69,114l1.6.08,1.5-.32,1.07-.64,2.27-.25,2.07.22,1.8.28,1.75-.19,5.14.31h4.45L92,113l1.92.16,1.21.3,3.49.73.93-.2,3.8-1.52,3.87-1.66,2.69-2.3,3.71-2.54,3.75-2.37,3.51-2L124.51,99l3.2-2.59,2.93-1.86,3.4-1.49H137l3.8,1.66,3.92,3,3.27,3.09,2.7-.17,3.06.61,2.81.35L159,101l2.27-2.1,4.26-4.26,3-3.41L172.23,89h3.84l3.32-1.37h3.41l4.12-1.12,3.14-.93,3.25-1.8,1.54-1.36,1.49-2,.87-2.69V75l1.77-3.9,1.53-1.25,2.48-1L207.66,71l2.91.27h2.69l2.48-.2h2.52l3.21.2,2.68.1,4.87-.1,2.29-.65L233,68.89l1.88-2.18,1.47-2,0-2.16.7-4.26.9-2.13,2.08-2.33,2.81-1.17,2-.66,1.4-.79,2-1.58,1.91-1,4.33-1.5.42-.42.56-1.86,2.28-3.58,1.66-2.21,2.37-1.58h4.7l2.25,1.57,1.36.54,1,.32,1,.07.74-.17.48-.43.29-.75V37.06l.79-1.43,1.69-1.56L279.24,33l2.82-.5,3.13-.79,3.26-.65h9.11l1.87-.43,1.42-.73,3.34-1,2.19-1.31h1.94l1.51.75,2.33,1.36,1.25.33,3.06.48,1,.4,1.58.55,1.5.33,1.21-.13,1.38-1,1.41-1.59,2.14-2.63,3.87-5.65,2-1.19,1.87,1,1.59-.32h1.79l1.44,1.12,1.46,2,1.46,2.92v3.11l.15.12.77.51,1,1.5v2l-.55.66,0,.17.57,1.14v3.25l1.11,2.54v2.21l-1.23,2.5-1.56,1.86-2.79,2.51-1.23,2.8-.64,3.1-1.59,4.1-2.83,5.18-1,4.07-1.83,3-1.2,3.89-1.53,3.62-.17,1.9.12,2.38L325.8,87.3l-.61,1.84-.84,4.65-.89,2.5-3.73,7.15-2.47,4-2,2-2.65,3-.27.94-.12,2.63-1.83,1.72.2,2.11-3.24,3.08-.27,2.9-.88,1.88-1.45,4-.33,1.57-.52,1.56-2.19,2-.65,1.29-.72,2-2,1.57-1.39,1.13-.32.53-.32,2.79-2.37,2.47-.37.87.18,3,.18,1.7.51,1.54,1.37,2.43L296,160l-.2,2.31.16,1.13.5,1.49-.42,1.52-1.3,6.07.71,1.88,2,3v3.24l-.73,2.5-.25,2.12.33,1.18,1.57,1.59,1.55,2,.38,3.39-.51,1.72.16,1.68.61,1.89.29,1.86.93,3.86.34,3.06-.58,1.39-.42,2.75.51,1.24.65,2.45-1,1.8-.36.81-.24,2.09-.59,1.78-1.75,2-3.11,1h-1.5l-2.52,2.21-.46,1.46-.58,2.89-1.84,1.7L286,234h-4.63l-2.33.9.31.17,1,1.9-3.39,3.53-3.68,1.7-1.42.39-2,2.11-2.31,1.65-3,.86-2,.75-.68.82-1.16,2-3,3.13-1.34,3.19L254,259.09l-1.34.84-1.74,2.72-6,1.55-6,1.93-4.69,1-3.68,1.6-3.18,2.08-2.52,1-2.2,2.31-2.15,1.34-1.77.65-2.83.71-2.53,2.62-2.26,1-3.31,1.24-4.24,1.45-3.64-.77-2.38-.27-7.57,1h-1.65l-4.56-1.56-3.51.79-2.75-.79-1.34.41-2.64.55-3.12-.39-2.75-.88-.92-.2-1.94.78-3.37-.36-2.49-1-1-.22-.76.14-1.72.49-4.08-1.1-1.21.41-2,.38-2.86-1.12-1.77.24-2.44.61-1.86.33-2.74-.12-2.2-.35-2.58.75-2.46-1-1.28-2.55-1.2-1.44-5.24-2.38-2.91-1.16-1.24-.39-1.28.2-1.45.95-1.43.6-2.12.41-1.74,2.11-1.92,1.17-1.3,1.13-1.25,1.71-4.64,1.86-.37.37-1.71,4.93-1.84,4.5-1.1,3,0,3.25L94,302.49l-.52,3.59L92.68,309l-1.37,2.36-2.54,1.74H85.65l-3.33-1.83-2.6-.9-2.55-.09L75,311l-2.24.83-1.91-.36-2,1.44-6.95,3.93-3.74,1.83-1.51,1.81-2.89,1.38H50.65l-4.3,2.52-1.09.73-3.63.62-2.26,1.09-3.12,2Zm-3.42-2.83h2.79l2.25-1,3.09-1.94,2.7-1.29,3.42-.59.66-.44,5-3h3.19l1.75-.84,1.51-1.82,2-.94,2.19-1.09,6.82-3.86,2.85-2,2.32.44,1.54-.57,2.7-.9,3.49.12,3.34,1.17,2.8,1.54h1.51l1.29-.88.85-1.47.64-2.46.53-3.62,1.16-4.25V294.4l1.29-3.56,1.83-4.48,1.89-5.47,1.24-1.24,4.43-1.77,1.08-1.42,1.7-1.45,1.61-1,2.08-2.53,3-.57.85-.39,1.67-1.12,2.55-.4,2,.64,3,1.21,5.89,2.68,1.9,2.33.87,1.73.56.22,2.25-.66,2.75.44,2.18.09,1.51-.27,2.52-.62,2.58-.35,2.78,1.09,1.1-.21,1.72-.61,4.18,1.12,1.17-.33,1.38-.25,1.93.44,2.23.93,2.26.24,2.09-.84,2,.43,2.69.86,2.25.26,2.13-.44,1.95-.61,2.89.82,3.54-.82,4.91,1.67h1.08l7.63-1,2.92.34,2.94.62,3.46-1.18,3.18-1.19,1.68-.76,2.71-2.82,3.54-.88,1.39-.52,1.6-1,2.25-2.42,3-1.17,3.12-2.05,4.21-1.8,4.76-1,5.87-1.89,5-1.29,1.48-2.32,1.8-1.12,1.58-1.33,1.28-3.05L258.5,249l1.07-1.87,1.25-1.5,2.88-1.07,2.58-.74,1.79-1.28,2.19-2.41,2.09-.58,2.88-1.35,1.32-1.37-1.49-.79.3-2.72,5.48-2.12h4.63l1.31-.51.77-.71.45-2.22.72-2.29,3.92-3.43h2.13l1.93-.62.86-1,.36-1.09.21-2.09.6-1.32.48-.9-.33-1.27-.72-1.69.66-4.06.36-.87-.25-2.27-.91-3.75-.28-1.8-.63-2-.23-2.39.5-1.7-.23-2-1-1.32-1.91-1.91-.68-2.44.38-3,.65-2.22v-2l-1.72-2.74-1.05-2.81,1.71-7.72-.33-1.05-.22-1.57.2-2.33-.14-1-1.29-2.33-.67-2.11-.2-1.91-.23-3.72.84-2,2.06-2.16.28-2.45.89-1.48,1.8-1.47,1.41-1.08.53-1.48.92-1.85,2-1.84.26-.77.34-1.63,1.56-4.25.7-1.49.33-3.46,3-2.86-.2-2.12,2-1.89.13-2,.49-1.72,3.13-3.56,2-2,2.13-3.48,3.63-7,.74-2.11.84-4.62.86-2.44,1.46-2.23L324.7,82l.23-2.53,1.67-4,1.34-4.19,1.7-2.73,1.08-4.15,2.88-5.26L335,55.46l.67-3.19,1.53-3.5,3.17-2.85,1.23-1.49.7-1.47v-1l-.4-.95-.71-1.54v-3.2L340.59,35l.18-1.85.45-.61L341,32.2l-.5-.35-1.2-1V27.08l-1.1-2.21-1-1.36-.37-.29h-.67l-2.2.49-1.36-.77,0,0-3.62,5.28L326.72,31l-1.78,2-2.12,1.53-2.42.27-2.21-.5-2.62-1-2.82-.41-1.86-.55-2.42-1.41-.83-.41h-.48l-2,1.15-3.38,1-1.34.72-2.72.58H288.6l-2.78.57-3.17.79-2.8.5-2.23.77-.92.85-.21.39V39.2l-.72,1.87-1.53,1.38-1.87.43-2-.19-1.21-.4-1.87-.79-1.65-1.15h-3l-1.25.84L260.11,43l-2,3.11-.65,2.17-1.39,1.39-4.84,1.68-1.5.8-2,1.55-1.86,1-2.07.69-2.07.86-1.34,1.5-.65,1.53-.56,3.65v2.78l-2.1,2.79-2,2.37-2.27,2.27-3.53,1-5.14.1-2.8-.1-3.16-.2H215.8l-2.48.2h-3l-3.47-.33-4-1.86-.94.39-.69.56L200,75.6v2.53l-1.15,3.56-2.05,2.72-2,1.73L191,88.22l-3.32,1L183,90.43h-3l-3.32,1.37H173l-2.61,1.63-2.79,3.17L163.28,101l-2.85,2.63-3.73.93-3.49-.44-2.75-.55-3.56.22-4.11-3.89-3.61-2.78L136.4,95.9h-1.76l-2.75,1.2-2.57,1.66-3.07,2.49-3.92,2.88-3.52,2-3.64,2.3-3.61,2.47-2.84,2.44-4.3,1.84-4.16,1.65-1.65.36L93.35,116l-1-.07-1.26.39H86.12l-2.08-.1L81.11,116l-1.88.21-2.1-.33-1.69-.18-1.35.15-.95.57-2.33.49-2.34-.15-1.15-.27h-.61l-1.85.93-1.26.8-1.5.32-1.84.88-2.71,2-2.32,1.8-3.17,4.61-2.7,2.7-1.75,2.89L44,136.26l-1.61,3.13-.87,2.72-1.12,4.26-.82,2.38.09,3.47v2.86l-.12,2.34-.39,2.43-.09,2.66.1,1.54.18,1.35.74,3.29-.23,2.15-.09,2,.09,1.34.24,1.21,1.14,2.1,1.48,1.76,1.67,1.67,5.48,4.86.86,1.71-1.08,2L48,190.87l-1.88,1.32-2,2.24-2.91,1.19-2.52,1.55L35.35,199l-2.15,1.13-1.78.82-1.29,1.17-.77,2L28,209l-1.39,1.51-1.22,1.6-1.67,2.69L22,216.84l-2.39,1.63-2.82,2.14-3.95,3.55-2.67,2.76-1.66,1.46-.88,1v3.29l.5.65,1.26.62L11,235.09l.92,1.65.93.79,1.65.29,1.49,1.1,2,1.84,2.58,1.07,2.23,1.61,5.2,4.63-.25,1.74-2.21,3.59-.63,1.52-.42,1.5.07,1.15,1,1.77.61,1.47v.83l.34.9,2.74,3.85.64,1.93v2.05l-.87,1.36-1.89,4.33-2.87,1.26-.88.68-.54,1.23L22,280.76l-2.21,1.39-1.86,1.24-.53.77,0,.57.56,1.29.78,2.06-.45,2.13-.72,1.92-2,1.87-1.4,1-.95,1.34-.9,2.56L10.9,301.8l-.81,2.79.1,2-.45,1.91L9.49,310l.21,3.55-.8,2.28-.73,2.64v1.94a3.57,3.57,0,0,0,1.42,2.25,2,2,0,0,0,1.4.13l5.22-2L20,319.27l1.46-.4,2,.5,1.09,1.28.66,2.21.67,1.49,1.2.65,2.07,1.43Z"/></svg>