<svg id="Layer_1" data-name="Layer 1" xmlns="http://www.w3.org/2000/svg" viewBox="0 0 350 350"><defs><style>.cls-1{fill:#999;}.cls-2{fill:#f90;}</style></defs><title>M</title><polygon class="cls-1" points="162.89 81.45 167.56 81.45 169.39 79.04 174.14 76.62 174.97 74.79 174.39 71.04 174.97 68.29 179.22 64.04 177.05 58.96 178.55 57.05 182.8 56.05 186.05 50.8 189.3 49.55 191.46 49.55 193.8 49.55 195.55 50.88 197.71 52.8 199.46 53.63 202.38 54.38 205.96 54.38 209.79 54.13 212.71 54.21 215.29 53.96 219.21 56.8 226.95 55.55 229.03 56.71 231.03 59.54 233.45 62.13 234.45 63.04 237.12 63.54 242.95 63.88 242.95 64.96 241.7 67.29 242.53 68.21 247.28 68.63 251.7 75.46 254.36 76.7 256.03 77.37 263.77 82.54 264.27 83.29 264.27 86.29 271.36 90.45 271.94 92.53 272.69 95.12 272.27 97.7 270.36 98.61 270.36 102.7 269.36 107.36 268.52 109.28 266.44 112.36 266.02 115.94 265.11 117.53 262.94 119.86 262.86 120.69 264.27 123.36 256.61 130.6 256.11 135.1 259.53 136.69 267.27 136.02 269.02 141.27 267.19 144.68 266.69 147.76 266.77 150.68 267.27 152.84 268.11 154.18 269.69 155.01 272.02 155.51 273.69 155.18 274.69 154.18 273.11 149.26 278.94 149.85 285.19 150.01 288.27 151.18 291.85 153.84 295.68 154.01 302.6 152.59 316.01 152.34 320.92 151.01 330.67 153.76 331.09 156.59 328.67 159.51 330.09 161.93 329.17 164.26 327.42 166.09 319.01 172.75 316.59 177.09 313.09 179.67 311.51 182.25 310.76 184.42 310.68 187.08 311.93 193 303.85 199 305.1 201.41 304.93 207.24 310.26 210.99 313.01 213.16 312.34 218.91 313.01 222.4 314.43 224.65 316.51 226.4 317.18 228.74 311.34 245.15 311.26 246.98 313.01 249.48 315.01 250.56 318.68 251.14 321.59 249.64 329.84 257.56 330.34 260.64 331.84 263.97 331.84 266.22 330 272.72 331.17 275.38 336.17 279.22 340.5 281.96 343.75 284.96 340.64 286.97 328.78 287.37 320.16 284.84 313.37 282.81 307.38 282.51 304.54 282.91 291.36 279.87 287.21 277.33 275.65 274.5 267.33 279.16 254.25 284.03 244.22 288.49 237.42 291.53 223.23 283.93 223.63 278.04 218.46 277.94 214.2 278.55 207.41 273.38 199.3 274.6 193.42 274.19 189.37 267.09 175.17 267.7 167.67 287.57 161.99 285.65 155.81 285.35 152.66 281.49 141.31 280.88 133.7 282.91 122.95 281.8 121.13 283.93 121.13 287.98 122.85 291.53 121.13 294.57 121.94 297.21 119.4 300.45 113.32 300.45 108.45 298.32 102.37 295.58 93.95 292.64 88.07 290.52 84.63 291.33 77.94 292.75 68.71 291.63 60.9 290.31 55.53 290.82 47.52 292.54 43.16 293.36 34.23 293.15 29.57 291.23 26.63 287.37 24.4 281.9 22.27 279.06 15.58 273.48 8.18 270.14 6.25 267.2 9.6 265.98 14.26 265.27 18.21 261.82 21.36 260 23.59 259.49 27.54 257.46 30.38 255.33 36.67 252.39 34.44 249.35 32.92 243.88 45.59 245.7 45.69 242.56 57.15 239.92 58.57 236.17 64.04 231.61 77.33 232.93 82.6 233.43 84.53 234.85 89.9 233.74 94.26 228.46 97.91 225.93 100.14 221.77 102.88 218.02 107.44 219.95 114.23 221.67 122.44 219.95 128.33 217.21 132.18 214.17 133.29 209.91 133.29 206.36 132.28 205.04 128.53 203.42 127.82 202.2 131.27 199.47 127.41 191.86 126.2 189.12 127.41 184.66 133.6 181.01 139.58 178.78 139.78 176.24 136.84 174.42 137.05 172.09 161.59 152.82 156.11 140.55 157.94 127.68 167.16 116.73 162.7 115.31 159.86 112.47 158.85 110.44 154.79 108.61 156.72 103.75 159.46 102.13 159.46 94.72 162.6 89.55 161.69 85.5 162.89 81.45"/><path class="cls-2" d="M120.1,301.87H113l-5.14-2.25-6-2.72L93.49,294,88,292l-3,.71-7,1.48L68.54,293l-7.69-1.3-5.1.48-7.93,1.71-4.54.85-9.33-.21-5.26-2.17-3.36-4.48-2.16-5.31L21.24,280l-6.42-5.35-7.6-3.44-3.13-4.78,5.3-1.9,4.26-.65,3.86-3.33,3.33-1.93,2.27-.52,3.69-1.89,3-2.21,4.72-2.21L33.14,250,31,242.16l13.26,1.91.09-2.65,11.78-2.71,1.28-3.39,6.22-5.18,19.53,1.92,1.73,1.28,4.27-.89,4.17-5L96.82,225l2.17-4,3.4-4.66,5.5,2.32,6.37,1.62,7.73-1.62,5.58-2.6,3.35-2.65.95-3.62v-2.88l-.5-.64-3.84-1.66L126,201.86l3.5-2.78-3.33-6.57-1.45-3.26,1.5-5.5,6.91-4,5.14-1.92.06-.77-2.95-1.83.33-3.81,24.15-19-5.19-11.63,1.94-13.68,8.12-9.64-2.77-.88-3.25-3.25-.89-1.78L153,109.35l2.6-6.58,2.46-1.46v-7l3.05-5-.87-3.86L161.83,80h5l1.6-2.11,4.6-2.34.45-1L172.95,71l.72-3.41,3.87-3.87-2.12-5,2.32-3,4.16-1,3.19-5.15L189,48.13h5.24l2.21,1.69,2,1.78,1.45.69,2.61.67H206l3.81-.25,2.89.08,3-.29,3.87,2.8,7.66-1.23L230,55.63l2.13,3,2.31,2.47.66.61,2.18.41,7.08.4v2.78l-.83,1.56,4.56.4,4.57,7.07,2.3,1.08,1.85.77,8,5.32.9,1.34v2.62l6.87,4L274.14,95l-.59,3.63-1.78.85,0,3.49-1.09,4.93-1,2.14-1.89,2.8-.41,3.53-1.25,2.09-1.81,2,1.7,3.2L258,131.28l-.33,3,2.15,1,8.48-.73,2.3,6.89-2,3.74-.44,2.72.08,2.64.42,1.8.5.81,1.07.56,1.85.4,1-.19.08-.08-2-6.15,7.93.79,6.44.17,3.49,1.32,3.39,2.52,3.22.14,7-1.41,13.24-.25,5.12-1.39,11,3.1.64,4.36-2.19,2.64,1.26,2.15L330.39,165l-2.09,2.17-8.19,6.49L317.68,178l-3.52,2.6-1.36,2.22-.63,1.82L312.1,187l1.4,6.64-7.84,5.82.86,1.67-.16,5.44,4.71,3.31,3.43,2.7-.73,6.32.58,3,1.16,1.83,2.25,1.89.91,3.19-5.91,16.64-.05,1.14,1.28,1.83,1.49.81,3,.47,3.4-1.75,9.32,8.94.55,3.37,1.55,3.44v2.75l-1.75,6.2.82,1.87,4.66,3.57,4.48,2.87,4.59,4.24-5,3.21-12.48.43-15.47-4.58-5.67-.29-3,.42-13.66-3.15-4.17-2.54L275.85,276l-8,4.48-13.08,4.87-17.38,7.75-15.62-8.37.37-5.31-3.57-.07-4.73.68L207,274.87,199.36,276l-6.79-.47-4-7-12.4.53-7.66,20.28-6.79-2.3-6.62-.33L152,282.87l-10.51-.56-7.64,2-10.27-1.07-1,1.17v3.21l1.91,3.93-1.79,3.16.85,2.76ZM113.62,299h5.1l1.65-2.12-.77-2.51,1.66-2.93-1.54-3.17V283.4l2.65-3.09,11.23,1.17,7.57-2,12.21.65L156.5,284l5.75.28,4.57,1.55,7.35-19.47,16-.69,4.11,7.19,5,.34,8.55-1.28,6.8,5.17,3.78-.54,6.77.13-.44,6.45L237.48,290l16.2-7.22,13.06-4.86,8.71-4.88,12.31,3,4.15,2.53,12.7,2.93,2.71-.39,6.45.37,15.19,4.5,11.24-.38,1.24-.8-1.81-1.67-4.33-2.75L330,276.29l-1.52-3.47,1.92-6.8v-1.75l-1.48-3.41-.42-2.61-7.18-6.88-2.43,1.25-4.36-.69L312,250.56l-2.22-3.17.12-2.53,5.75-16.18-.42-1.48-1.92-1.61-1.68-2.66-.76-4,.6-5.18-2.13-1.68L303.49,208l.18-6.23L302,198.58l8.32-6.17-1.1-5.19.09-3.05,1-2.65,1.73-2.82,3.47-2.56,2.4-4.31,8.56-6.78,1.49-1.56.56-1.43-1.57-2.68,2.65-3.19-.19-1.3-8.49-2.39L316,153.76l-13.28.25-7,1.43-4.44-.19-3.77-2.81-2.67-1-6.11-.17-3.68-.37,1.19,3.68-1.92,1.92L272,157l-2.81-.6-2.09-1.1-1.16-1.86-.59-2.68-.09-3.05.56-3.45,1.66-3.09-1.2-3.61-7,.6L254.59,136l.67-6,7.26-6.86L261.41,121l.17-1.73,2.38-2.57.69-1.19.42-3.63,2.2-3.26.72-1.67.94-4.38V97.72l2.05-1,.25-1.53-1.09-3.82-7.29-4.29V83.72l-.1-.16-7.39-4.93L253.83,78l-3.11-1.45L246.47,70l-4.61-.4L240,67.5l1.24-2.31-4.36-.26-3.07-.57-1.38-1.27-2.54-2.73-1.81-2.57L226.69,57l-7.84,1.26-4-2.86-2.14.21-2.94-.08-3.77.25H202.2l-3.35-.89L196.92,54l-2.28-2-1.33-1h-3.76l-2.56,1-3.31,5.34-4.34,1-.68.86,2.21,5.19L176.27,69l-.44,2.08.61,3.91-1.21,2.67-4.9,2.49-2.06,2.72h-4.31l-.8,2.68,1,4.25-3.23,5.32v7.81l-3,1.79-1.25,3.16,3.28,1.48,1.14,2.27,2.43,2.43,6.15,2-10.33,12.26-1.71,12.07,5.76,12.91-24.92,19.57-.07.85,2.93,1.82-.34,4.3-6.71,2.5-5.58,3.29L127.7,189l1,2.28,4.34,8.57-3.24,2.57,3.37,1.46,1.53,2,0,4.39L133.43,215l-4.51,3.51-6.19,2.84-8.53,1.79-7.31-1.87-3.53-1.49-2,2.77L99,226.9l-3.77,2.62L90.67,235l-6.48,1.34-2.12-1.56-17.58-1.73L59.76,237l-1.56,4.11-11.13,2.56L47,247.33l-12.09-1.74.87,3.13,3.1,4.22-7.72,3.61-2.93,2.17-4.29,2.15-2,.46L19,263l-4.16,3.63-4.93.75-1.53.56.72,1.1,7.2,3.25,7.07,5.94,2.31,3.15,2.16,5.3,2.59,3.4,4.07,1.68,8.51.19,4.22-.78,8.14-1.74,5.56-.52,8,1.35,8.93,1.08,6.46-1.37,3.83-.9,6.28,2.27,8.51,3L109,297Z"/></svg>