<svg id="Layer_1" data-name="Layer 1" xmlns="http://www.w3.org/2000/svg" viewBox="0 0 350 350"><defs><style>.cls-1{fill:#999;}.cls-2{fill:#f90;}</style></defs><title>M</title><polygon class="cls-1" points="94.73 161.04 94.73 165.97 92.67 172.95 90.19 182.39 86.66 189.37 83.18 195.53 78.64 202.5 75.34 211.94 73.27 218.92 73.27 225.49 80.29 230.42 84 234.93 81.53 238.63 84 243.14 86.66 246.02 89.37 250.53 92.26 250.53 94.73 253.82 97.21 257.1 97.21 262.44 97.21 266.95 97.21 272.29 101.75 275.16 106.29 275.16 108.35 277.63 110.42 277.63 110.42 281.32 110.42 285.42 110.42 289.53 112.48 292.81 112.48 294.45 114.54 294.45 114.54 301.02 110.42 303.49 108.76 308.82 109.59 313.75 112.07 319.5 111.65 322.78 111.65 324.83 111.24 328.53 118.26 326.47 125.68 325.24 130.22 323.6 134.76 325.65 138.89 328.53 145.08 328.53 151.54 330.17 156.64 330.17 156.64 332.63 158.7 336.74 162 340.02 167.37 340.02 172.32 342.89 180.98 342.89 186.76 340.02 190.89 338.79 190.89 333.45 187.59 330.17 182.63 324.01 180.98 320.32 179.75 314.57 178.51 309.23 176.86 303.08 181.4 305.13 185.94 305.13 190.89 305.95 190.89 309.64 195.43 312.93 201.21 314.16 207.4 315.8 215.65 316.62 224.32 318.68 230.92 319.91 239.59 319.91 249.9 321.55 258.98 319.91 264.76 317.85 270.12 314.16 270.12 304.72 270.12 300.2 270.12 295.69 270.12 291.17 276.73 289.94 273.01 279.27 268.89 263.67 265.17 251.97 261.46 243.14 256.92 232.88 256.5 222.21 258.16 207.02 261.46 187.72 260.63 176.23 260.63 163.1 261.87 159.11 266.41 155.71 268.47 153.24 263.93 141.75 259.39 133.95 258.57 123.69 259.81 108.91 255.27 96.59 253.2 81.82 248.66 68.27 242.89 57.19 232.98 48.13 221.84 39.95 214.82 35.84 209.87 32.56 195.43 25.17 181.81 19.01 170.67 11.21 163.65 7.11 159.47 8.99 153.93 17.01 149.62 25.58 149.25 35.15 147.6 45.83 147.56 51.44 151.54 66.22 157.38 72.91 163.24 79.76 169.84 84.69 171.08 88.39 172.73 95.77 182.22 104.52 182.63 116.29 181.4 128.61 168.19 129.84 155.6 132.67 138.87 135.01 126.35 134 118.46 135.59 109.56 133.43 105.03 133.7 99.96 136.3 101.75 143.8 103.81 151.19 94.73 161.04"/><path class="cls-2" d="M181.32,344.31h-9.38l-5-2.87h-5.57l-3.88-3.86L155.22,333v-1.38l-4,0-6.28-1.6h-6.46l-4.38-3.05-3.9-1.76-4.25,1.51-7.34,1.22-9,2.63.64-5.73V322.6l.36-2.9L108.19,314l-.88-5.26,1.91-6.18,3.9-2.33v-4.35h-2.06v-2.65L109,289.94V279h-1.31l-2.06-2.46h-4.29l-5.55-3.51V257.57l-4.24-5.62h-3l-3-5.08-2.76-3-2.89-5.27L82.24,235l-2.92-3.55-7.46-5.24v-7.51L74,211.54l3.47-9.81,4.54-7,3.44-6.08,3.44-6.79,2.44-9.29,2-6.82v-5.27l8.92-9.68-1.85-6.63-2.06-8.64,6.33-3.24,5-.31,8.8,2.14,7.77-1.57,12.56,1,16.52-2.3,12.71-2.84,12-1.12,1.11-11.07-.39-11.08-9.38-8.64-1.73-7.75-1.07-3.2-6.48-4.88-5.86-6.86-6-6.93-4.11-15.28.06-6L147.84,35l.38-9.8,4.54-9,5.77-8.35,5.21-2.34L171.48,10l11,7.72,13.5,6.1,14.64,7.5,5,3.28,7.07,4.14,11.26,8.28L244,56.31l6,11.51,4.6,13.8,2,14.63,4.6,12.47-1.25,15,.79,9.83,4.47,7.71,4.85,12.28-2.84,3.33L263.09,160l-1,3.34v12.87l.83,11.61-3.33,19.46-1.63,15,.4,10.3,4.43,10,3.77,9,3.71,11.7,4.13,15.61L278.61,291l-7.07,1.32V314.9l-6.31,4.28-6,2.11L249.92,323l-10.44-1.66-8.81,0-6.6-1.23-8.64-2-8.38-.85-6.19-1.64-6-1.28-5.37-3.88v-3.22l-3.65-.61h-4.73L179,305.6l.88,3.27,1.25,5.38,1.21,5.62,1.52,3.39,4.79,6,3.66,3.64v7l-5,1.5Zm-8.62-2.83h8l5.71-2.81,3.11-.93V334l-3-3-5.14-6.47-1.74-4-1.24-5.75-1.23-5.31-2.41-9,7,3.16,4.47,0,6.14,1v4.17L196,311.6l5.48,1.17,6.15,1.63,8.33.84,8.67,2.05,6.41,1.19,8.76,0,10.08,1.6,8.73-1.58,5.49-2,4.6-3.17V290l6.14-1.15-3.2-9.22L267.52,264l-3.67-11.57-3.69-8.77-4.64-10.49-.43-11,1.66-15.29L260,187.66l-.82-11.42V162.88l1.44-4.63,4.78-3.58,1.42-1.69-4.19-10.61-4.65-8-.86-10.7v-.12l1.21-14.46-4.5-12.31-2-14.65-4.46-13.32-5.61-10.76-9.66-8.84-11-8.09-7-4.07-5-3.28-14.37-7.35L181,20.17,169.9,12.4,163.57,8.7l-3.15,1.42-5.26,7.62L151,25.94l-.37,9.43L149,45.94l0,5.32,3.84,14.27L158.45,72l5.77,6.75,6.83,5.1,1.42,4.26L174,95l9.6,8.84.44,12.46-1.36,13.58-14.28,1.33-12.61,2.83-16.89,2.36-12.48-1-8,1.62-9-2.19-4,.24-3.82,2,1.53,6.42,2.26,8.1-9.24,10v4.58L94,173.35,91.46,183l-3.53,7-3.51,6.21-4.49,6.91-3.25,9.28-2,6.72v5.63l6.57,4.61,4.51,5.48-2.58,3.85,2,3.61,2.71,3,2.3,3.83H93l5.66,7.51v14.88l3.53,2.24h4.79l2.06,2.46h2.82v12.91l2.06,3.28V293H116v8.79l-4.35,2.6-1.39,4.5.74,4.42,2.56,5.94-.45,3.58V325l-.18,1.58,5.14-1.49,7.3-1.21,5-1.79,5.29,2.42,3.76,2.62,6.1,0,6.28,1.6h6.34v3.54l1.81,3.6,2.72,2.71h5.16Z"/></svg>