<svg id="Layer_1" data-name="Layer 1" xmlns="http://www.w3.org/2000/svg" viewBox="0 0 350 350"><defs><style>.cls-1{fill:#999;}.cls-2{fill:#f90;}</style></defs><title>M</title><polygon class="cls-1" points="288.98 110.05 275.88 100.27 266.98 91.89 261.83 87.23 250.13 80.71 244.04 72.33 237.49 66.28 230 61.62 216.9 57.9 208.94 57.9 198.17 53.24 186 42.06 174.3 30.43 157.45 19.25 142.47 13.2 132.64 13.2 118.59 13.2 105.95 13.2 89.1 7.14 80.68 7.14 74.13 7.14 66.17 9.94 62.42 15.53 62.42 23.44 65.23 28.1 66.64 33.68 62.42 37.88 53.53 40.67 41.36 43.93 35.27 48.12 32 58.59 27.32 65.35 27.32 69.54 27.32 75.59 33.4 81.64 39.02 89.09 46.98 96.54 49.78 102.6 50.25 110.05 49.78 124.02 48.85 133.79 52.59 137.98 55.4 143.57 59.61 149.16 63.83 158 65.23 166.85 62.89 178.03 61.49 188.74 59.15 194.29 59.61 202.71 63.83 210.62 66.17 218.53 68.97 223.19 71.32 226.45 77.87 230.64 87.7 234.37 94.25 234.37 101.27 234.37 111.1 240.42 122.34 246.94 132.64 251.59 145.74 253.92 156.04 253.92 163.53 257.65 164.47 263.7 164.94 269.75 166.34 278.09 169.15 290.24 164.94 301.88 162.59 312.13 164 320.51 170.09 326.29 174.3 330.75 180.38 336.34 185.53 340.53 188.34 340.53 189.75 342.86 194.43 334.48 195.36 326.29 193.96 320.04 192.55 310.73 199.11 304.68 206.13 304.21 214.55 303.74 223.1 304.68 233.75 304.68 242.64 306.07 258.56 306.54 270.73 305.14 284.77 301.42 304.9 298.16 316.13 293.5 322.69 283.26 322.69 271.62 322.69 260.29 322.69 250.2 318.94 244.61 313.32 240.42 305.83 234.83 297.88 226.45 288.51 218.53 281.96 212.48 276.81 203.17 273.12 190.6 268.85 175 270.73 160.8 269.32 148.23 273.12 132.86 279.62 124.02 288.98 110.05"/><path class="cls-2" d="M189.79,345.68l-2.25-3.73H185l-5.54-4.51-6.22-5.71-4.21-4.46-6.37-6.05-1.53-9.12,2.45-10.68,4.07-11.25L165,278.41l-1.44-8.55-.46-6-.82-5.27-6.53-3.25-10.21,0-13.44-2.43-10.42-4.72-11.23-6.52-9.52-5.86H87.44l-10.33-3.95-6.78-4.34-2.56-3.57-3-5-2.3-7.78-4.29-8.06-.5-9.05,2.39-5.68,1.4-10.63,2.29-10.92-1.33-8.39L58.4,149.9l-4.26-5.69-2.72-5.42-4-4.51,1-10.4.46-13.81L48.39,103,45.8,97.39l-7.92-7.44-5.56-7.37-6.43-6.4V64.9L30.71,58l3.36-10.74,6.69-4.61L53.16,39.3l8.5-2.67,3.4-3.38-1.16-4.6L61,23.83V15.09l4.25-6.34,8.63-3H89.35l16.85,6.05h36.54l15.49,6.29L175.3,29.42,187,41.06l12,11,10.28,4.44h7.86l13.49,3.83,7.87,4.92,6.74,6.26,5.9,8.13,11.69,6.55,5.15,4.66,8.86,8.35,14.12,10.54L280.8,124.8l-6.37,8.67-3.67,14.85,1.4,12.49L270.3,174.9l4.19,15.32,3.64,12.4,5,9,6.38,5.9,9.43,8,7.87,8.29,13.2,9.85,4.12,6.15v33.9l-7,11-12,4.92-20.06,3.25-14.18,3.74L258.62,308l-16.2-.48-8.79-1.38H222.95l-8.43-.92-8.31.46-6.51.43-5.63,5.2,1.28,8.52,1.45,6.43-1,8.71ZM186,339.11h3.1l.56.92,3.35-6,.88-7.67-1.37-6.11L191,310.2l7.47-6.9,7.52-.5,8.56-.47,8.58.94,10.79,0,8.81,1.38,15.72.46,12-1.37L284.54,300l20-3.23,10.67-4.42,6.09-9.52V250.63l-3.37-5-13.09-9.79-7.91-8.33-9.3-7.87-6.77-6.25-5.38-9.8L271.76,191l-4.35-15.9,1.89-14.31-1.41-12.65,3.93-15.88,6.66-9.07,8.58-12.8L274.9,101.3,266,92.92l-5-4.53L249.17,81.8,243,73.28l-6.35-5.87-7.21-4.48L216.7,59.31h-8.05l-11.26-4.87L185,43.11,173.4,31.53l-16.62-11-14.59-5.9H105.71L88.86,8.56H74.37l-7.28,2.56L63.84,16V23l2.71,4.5,1.65,6.57-5,5L54,42,42,45.23,36.48,49l-3.2,10.22-4.55,6.57V75l5.8,5.79,5.54,7.35,8.07,7.55,3,6.54.49,7.78v.07l-.47,14-.88,9.25,3.54,4,2.75,5.47,4.28,5.73,4.3,9,1.48,9.31-2.38,11.38-1.42,10.85-2.29,5.43.43,7.77,4.17,7.9L67.47,218l2.69,4.45,2.15,3,6.2,4L88,232.95h13.72l10.17,6.26L123,245.68l10.07,4.55,12.81,2.28h10.51l8.44,4.2,1.06,6.89.46,6,1.39,8.27,2.89,12.47-4.33,12L164,312.17l1.28,7.64,5.74,5.45,4.23,4.48,6,5.55Z"/></svg>