<svg id="Layer_1" data-name="Layer 1" xmlns="http://www.w3.org/2000/svg" viewBox="0 0 350 350"><defs><style>.cls-1{fill:#999;}.cls-2{fill:#f90;}</style></defs><title>M</title><polygon class="cls-1" points="158.42 339.76 159.35 342.05 159.35 342.99 160.54 343.41 162.16 343.41 163.6 342.48 166.84 339.33 167.86 338.4 173.81 328.53 175.76 328.53 178.49 328.53 180.27 328.53 181.72 328.19 183.93 328.96 185.71 328.53 187.07 328.19 188.44 327.43 189.54 326.41 190.39 325.3 192.35 324.28 193.45 323.26 194.47 322.07 194.98 320.71 196.17 319.09 197.36 317.82 198.22 316.71 198.56 315.27 198.56 313.31 198.22 311.18 199.41 308.8 201.87 305.15 202.47 304.47 203.4 302 204.25 300.21 204.85 299.36 206.38 298.43 208.76 293.5 208.76 292.39 208.76 291.37 207.99 289.16 207.99 287.71 208.16 286.52 209.18 284.48 209.78 281.93 209.78 279.98 209.78 278.36 209.78 276.91 209.01 274.62 216.92 272.49 217.94 272.49 218.96 272.49 219.98 273.26 220.83 274.36 221.77 275.81 222.45 276.49 223.13 277.08 224.15 277.34 225.26 277.25 226.19 277.25 226.96 277.59 228.32 278.7 231.46 281.17 232.65 281.34 233.5 279.38 234.61 277.42 235.72 275.98 236.56 274.53 236.56 272.75 236.56 270.45 236.06 268.75 235.8 267.39 235.63 266.03 236.06 264.07 236.56 262.88 238.01 261.44 239.12 259.82 239.71 257.61 240.56 254.46 241.75 252.17 242.52 249.87 242.52 247.83 243.88 246.9 245.07 245.71 246.85 244.69 247.79 243.24 247.79 241.45 247.79 239.75 247.19 238.65 249.63 232.61 250.17 231.93 250.17 230.06 249.63 227.42 249.15 225.21 249.24 223.26 249.63 221.56 250.17 220.11 250.6 218.32 250.6 216.37 250.17 214.5 249.24 212.2 247.96 210.41 247.19 208.97 247.11 207.44 248.13 204.97 249.63 202.85 250.6 201.49 251.53 199.62 252.81 196.81 254.76 192.3 255.53 190.35 256.21 189.41 257.14 182.95 256.55 180.91 255.36 175.47 247.53 163.99 242.09 155.31 239.63 150.47 239.29 148.09 239.12 144.17 239.2 142.56 236.74 136.18 236.74 133.71 236.74 130.31 235.46 127.51 233.93 126.32 232.74 125.47 231.89 125.47 231.29 127 231.46 129.8 232.14 131.93 232.06 134.39 229.85 135.67 227.81 137.03 226.96 138.39 226.87 140.43 226.79 142.47 225.94 143.32 223.81 143.58 222.02 143.15 221.09 142.05 220.32 140.01 219.47 138.39 218.71 137.2 216.58 136.18 215.31 135.75 213.86 134.9 212.59 131.42 211.82 128.53 210.97 126.57 209.78 123.77 209.52 122.49 210.21 119.85 211.56 117.39 212.67 114.41 213.1 111.69 213.95 109.65 214.2 106.16 213.61 105.31 212.42 105.31 211.06 106.5 207.78 110.67 206.72 114.07 204.08 115.35 201.28 116.96 199.41 119 198.56 120.79 197.53 122.23 196.43 123.17 194.98 123.08 193.03 122.4 190.14 121.72 188.35 121.38 186.65 121.3 184.52 121.64 182.4 122.4 179.42 123.08 176.53 124.7 175.68 126.49 174.75 126.23 173.9 126.83 172.53 127.17 170.32 127.08 169.05 126.4 168.2 124.28 167.6 122.57 166.92 120.7 166.92 119.6 167.43 118.41 168.28 117.56 169.98 116.2 171 114.75 171.68 112.54 172.45 111.35 173.3 110.07 173.81 109.39 173.98 108.46 172.19 105.31 172.11 104.04 172.11 103.19 172.53 102.42 173.47 100.81 174.41 99.61 175.51 98.94 175.59 97.92 176.7 95.53 176.7 92.3 179.51 91.03 181.8 89.5 183.59 88.73 185.2 88.39 188.09 87.97 189.63 87.63 190.99 87.11 192.43 85.92 194.3 83.2 197.02 79.72 198.22 77.85 199.32 76.23 200.94 74.78 203.23 73.42 205.27 72.06 206.8 70.45 207.78 68.58 208.33 67.13 208.76 65.35 210.54 61.27 210.97 60.24 213.18 57.86 214.2 56.59 214.97 53.19 216.07 49.78 218.37 48.17 220.32 47.06 221.85 45.53 223.04 43.58 223.64 41.2 224.41 37.2 224.15 33.46 222.79 32.44 220.75 31.76 218.71 31.76 217.35 31.76 215.9 32.18 214.88 32.44 212.42 31.08 212.67 28.02 212.59 26.14 212.59 24.87 211.65 21.04 211.74 19.09 213.01 17.73 214.54 16.79 215.39 15.69 216.16 14.5 216.58 13.56 216.67 12.29 216.33 10.07 215.99 9.22 213.78 8.03 211.74 7.18 208.67 6.59 200.85 6.59 184.95 13.64 170.15 10.5 167.94 12.88 165.31 16.62 163.35 19.85 161.82 23.59 160.97 25.13 160.12 29.55 159.27 35.58 152.04 42.22 150.43 43.15 148.98 43.41 146.85 43.92 137.41 47.15 126.87 47.91 125.77 53.78 125.77 58.97 124.91 63.56 121.77 70.11 119.22 76.91 118.2 79.63 116.33 82.44 106.8 94.43 105.02 96.55 103.49 98.51 101.61 101.74 99.15 106.84 97.45 110.67 96.77 112.54 96.77 114.67 96.77 116.96 96.77 118.83 96.17 120.36 94.98 122.15 92.86 124.87 92.86 127.17 92.86 129.8 94.39 131.76 96 133.54 97.87 133.63 100.17 133.03 106.63 133.37 108.16 132.86 109.95 133.2 111.31 133.29 112.67 134.31 114.63 136.09 117.09 138.48 118.79 140.6 119.98 143.07 121.09 146.13 121.85 148 121.6 151.66 121.26 154.04 120.66 156.33 119.13 159.73 119.13 163.14 119.64 164.5 119.9 166.2 119.64 169.77 119.73 173.09 120.07 175 120.32 177 119.98 178.87 119.64 180.4 119.73 182.18 120.58 183.29 122.02 184.05 123.81 184.22 127.89 183.46 132.31 182.78 133.93 182.44 135.46 181.67 141.33 179.89 144.3 184.91 144.98 187.54 144.9 189.67 144.73 193.24 145.24 200.98 147.02 205.57 149.32 211.09 150.68 213.99 150.76 215.35 152.64 219.26 153.06 220.96 152.64 222.83 151.96 223.94 150.68 224.87 149.66 226.15 149.06 227.93 148.3 230.48 147.45 235.33 147.45 236.35 148.21 237.88 152.04 244.68 151.53 249.53 152.38 255.31 153.06 258.88 153.57 262.29 155.87 267.22 156.12 269.26 156.97 270.71 158.25 272.49 158.84 274.62 159.78 282.53 160.63 285.76 161.56 290.18 162.84 294.26 162.16 295.28 161.39 296.9 161.05 302.51 160.54 304.3 159.18 305.83 158.08 307.1 157.06 308.63 156.12 311.52 155.36 312.63 154.42 312.63 152.3 311.61 147.79 313.65 145.58 314.42 143.96 314.25 142.26 315.44 141.41 316.12 140.31 316.63 138.86 316.8 136.82 317.05 134.44 320.28 134.01 322.92 133.76 325.13 134.52 327.51 135.37 330.66 137.33 331.08 138.44 331.42 139.54 331.76 140.31 332.7 140.65 334.14 140.9 335.08 141.5 335.33 142.86 335.59 144.22 335.25 146 334.65 147.62 334.57 148.81 335.5 150.68 336.35 153.23 336.95 155.61 337.8 157.14 338.65 158.42 339.76"/><path class="cls-2" d="M162.58,344.83H160.3l-2.36-.84v-1.66l-.7-1.73-.91-.79-1.3-.72-2.2-.78-2.74-.67-2.16-1-.77-.61-.89,0-1.71.57-1.66.42-2-.4-1.22-.52-.71-2.77-.29-.35-1.75-.54-2.74-.6-1.08-4-.84-2.61.29-2.52.49-3,2.95-4,3.88-.48.74-.34.72-.57,2.21-1.55,1.83.19,1.85-.64,5-2.29,2.33,1.12.19-.28.93-2.88,1.24-1.84,2.26-2.58.38-1.33.35-5.73,1-2,.3-.46-1.11-3.57-.94-4.42-.87-3.36-.92-7.8-.5-1.78-1.2-1.69-1-1.7-.26-2.11-2.29-4.92-.54-3.6-.67-3.52-.89-6,.48-4.58-3.6-6.41-.95-1.89,0-1.6.89-5,.77-2.55.69-2.07,1.45-1.73,1.05-.77.41-.67.3-1.31-.31-1.23-1.93-4-.08-1.37L148,211.7l-2.32-5.59-1.88-4.82-.53-8,.25-5.56-.58-2.24-2.31-3.89L136,183l-1.77.83-1.62.34-4.5.69-4.23.79-2.26-.22-2-1-1.31-1.7-.12-2.42.38-1.72.29-1.6-.23-1.78-.35-2.06-.09-3.38.25-3.48-.21-1.4-.55-1.46v-4l1.61-3.57.55-2.1.32-2.25.23-3.28-.64-1.56-1.1-3-1.09-2.26L116,139.43l-2.4-2.32-1.88-1.71-1-.73-1.11-.08-1.42-.27-1.43.48-6.51-.34-2.29.59-2.67-.12-2.08-2.3-1.83-2.34v-5.91l2.39-3.06,1.08-1.61.44-1.14v-6.28l.77-2.11,1.74-3.92,2.53-5.24,2-3.39,1.53-2,1.82-2.16,9.46-11.91L116.93,79l3.56-9.49,3.06-6.38.79-4.28,0-5.32,1.31-6.94,11.45-.83,9.39-3.21,2.13-.51,1.28-.23,1.27-.73,6.74-6.18.78-5.53.9-4.71.92-1.66,1.6-3.86,2-3.23,2.81-4,2.76-3,15.13,3.22,15.76-7,8.39,0,3.34.68,2.17.91,2.66,1.43.62,1.64.36,2.36L218,13.91l-.63,1.35-.83,1.29-1,1.31-1.59,1-.79.84-.05,1.23.93,4v1.28l.09,1.9-.19,2.24,1.17.65.48-.12,1.58-.47H221l2.48.83,2.06,1.55.31,4.57-.8,4.18-.67,2.67-1.51,2.4-1.67,1.67-2.06,1.17-1.85,1.3-.94,2.89-.82,3.66-1.29,1.61-2,2.2-.33.79-1.75,4-.45,1.84-.62,1.6-1.07,2-1.91,2-2,1.36-2.24,1.33-1.38,1.24-1,1.47-1.24,1.94-2.72,3.49-1.93,2.82-1.78,1.47-1.77.65-1.63.36-2.89.43-1.39.3-1.54.66-2.39,1.57-2,.9v2.63L177,98.28l-.12,1.48-1.5.92-.72.91-1.12,2V104l.06.86,1.88,3.31-.32,1.77-.71.95L173,113.14l-.69,2.24L171,117.18l-1.8,1.44-.6.6-.29.67v.57l1.2,3.35.64,1.59.53.28,1.68.06.91-.23,1.18-.83.43.12.53-1.12,3.46-1.94L182,121l2.3-.8,2.27-.36,2,.12,1.79.34,3.09.73,1.77.62.68,0,.53-.45.85-1.2.89-1.87,2.16-2.36,3.09-1.77,2.08-1,1-3.06,3.62-4.56,1.76-1.54h2.46l1.31,1.87-.31,4.22-.87,2.1L214,114.9l-1.19,3.17-1.28,2.31-.55,2.15.16.82,2,4.82.75,2.83,1.08,2.95.88.52,1.3.44,2.49,1.19,1,1.63.92,1.78.68,1.81.48.56,1.09.26,1.39-.17.11-.11.16-3.9,1.21-1.94,2.29-1.53,1.61-.93,0-1.43-.67-2.24-.19-3.12,1.06-2.72h2.27l1.56,1.11,1.85,1.44,1.55,3.4v5.91l2.48,6.41-.1,1.85.16,3.77L241,150l2.33,4.58,5.41,8.62,7.95,11.66,1.25,5.71.66,2.24-1,7.11-.78,1.07-.7,1.79-2,4.55-1.29,2.83-1.07,2.1-2.37,3.35-.84,2,0,.9.58,1.09,1.38,2,1,2.52.46,2.19,0,2.28-.48,2L251,222l-.34,1.48-.07,1.64,1,5v2.37l-.72.91-2.11,5.23.45.83v4.26l-1.35,2.09-1.92,1.1-1.26,1.22-.75.51v1.53l-.92,2.72L241.89,255l-1.47,5.44-1.41,2-1.25,1.25-.35.81-.35,1.59.14,1.12.23,1.2.55,1.83v4.68l-1.14,1.92-1,1.37-1,1.81-1.25,2.88-2.64-.38-4.68-3.7-.32-.14h-.58l-1.28.1-1.58-.39-.94-.82-.94-1-.9-1.4-.7-.91-.49-.37h-1.38l-6.28,1.69.36,1.09,0,5.57-.71,2.86-.92,1.84-.12.86v1.11l.76,2.21v2.69l-2.7,5.6-1.63,1-.36.51-.77,1.63-1,2.65L203,306l-2.36,3.51-.95,1.89.29,1.9,0,2.28-.41,1.74-1.12,1.45L197.27,320l-1,1.39-.53,1.41-1.3,1.5L193,325.54l-1.68.88-.82,1-1.37,1.21-1.53.86-3.75.91-2.21-.77-1.37.28h-5.66L169,339.3l-1.17,1.07-3.42,3.29ZM160.79,342h1l1-.63,4-3.87L173,327.11h7.1l1.69-.4,2.21.76,2.54-.62,1-.59.9-.83,1-1.26,2.07-1.08.91-.84.8-.94.49-1.31,1.41-1.9,1.14-1.23.62-.81.23-1v-1.68l-.39-2.46,1.49-2.95,2.57-3.8.43-.49.89-2.33,1-2,.77-1.09,1.43-.87,2.06-4.26v-1.56l-.76-2.21v-1.88l.2-1.42,1-2.1.52-2.23v-4.62l-1.17-3.5,9.73-2.56h2.51l1.55,1.16,1,1.35.85,1.32.92.88.47.12,1-.07h1.24l1.36.66,1.36,1.11,2.63,2.06.43-1,1.21-2.12,1.05-1.38.61-1v-3.49l-.49-1.65-.26-1.36-.21-1.69.56-2.45.62-1.44,1.54-1.55.9-1.31,1.49-5.41,1.14-2.2.66-2v-2.56L243,245.8l1.23-1.23,1.65-.94.52-.8v-2.71l-.74-1.38,2.76-6.85.36-.45V230.2l-1-4.87.13-2.4.45-1.88.51-1.36.37-1.54v-1.63l-.37-1.6-.83-2-1.28-1.81-.91-1.72-.12-2.16,1.29-3,2.41-3.4.89-1.77,1.25-2.76,1.95-4.48.92-2.23.47-.65.84-5.81-.51-1.75L254,176l-7.67-11.25L240.83,156l-2.57-5.06-.39-2.75-.17-4,.07-1.38-2.45-6.34v-5.82l-1-2.21-1.58-1.21v0l.14,2.32.7,2.19-.12,3.5-2.89,1.67L228.85,138l-.49.78-.18,4.26-1.59,1.59-2.86.34-2.49-.59-1.4-1.65-.82-2.19-.78-1.48-.51-.8L216,137.5l-1.46-.52-1.88-1.11-1.49-4.09-.74-2.79-2.09-5-.32-1.59.89-3.28,1.31-2.37,1-2.74.49-2.91.76-1.83.17-2.39-.64.56-3,3.86-1.17,3.74-3.14,1.52-2.57,1.48-1.58,1.72-.88,1.8-1.26,1.71-1.54,1.3-2.21-.13-2.07-.72-2.82-.66-1.63-.31-1.46-.07-1.85.3-2.17.77-2.78.63-2.32,1.3-1.17,2.45-1.44-.39-.52.36-1.81.45-2.74-.11-2-1.08-1-2.61L165.5,121v-1.65l.73-1.71,1.16-1.15,1.54-1.23.77-1.1.67-2.18,2.11-3.23-1.69-3-.11-1.6v-1.31l1.66-2.89,1.09-1.39.71-.44,0-.56,1.08-2.32V91.39l3.53-1.61,2.43-1.59,2.05-.85,1.62-.34,2.93-.43,1.38-.31,1-.39,1.11-.91,1.76-2.56,2.73-3.5L197,77.09l1.36-1.91,1.84-1.61,2.3-1.36L204.35,71l1.29-1.36.85-1.62.49-1.28.48-1.94,2.3-5.31,2.35-2.53.78-1,.73-3.21,1.25-3.85,2.8-2,1.79-1,1.27-1.27,1-1.63.54-2.17.71-3.74-.2-2.91-.66-.49-1.61-.53h-3l-2.87.77-3.76-2.07.33-3.89-.08-1.78V25l-.94-3.86.12-2.68,1.77-1.88,1.47-.9.65-.85.68-1.05.28-.61.06-.86-.29-1.9-.09-.22-1.7-.91-1.84-.77L208.54,8h-7.39l-16,7.12-14.46-3.07L169,13.77l-2.58,3.66-1.84,3.05-1.56,3.79-.74,1.33-.81,4.2-.91,6.47-7.85,7.16-1.83,1.06-1.69.3-2,.48-9.73,3.28-9.46.69-.88,4.67,0,5.31-1,4.95-3.12,6.49-3.7,9.75-1.94,2.9-9.52,12-1.81,2.16-1.44,1.84-1.79,3.1-2.44,5.05-1.68,3.79-.56,1.54v6.31l-.83,2.05L96.1,123l-1.83,2.34v4l1.2,1.53,1.18,1.31,1.07,0,2.3-.6,6.41.34,1.63-.54,2.06.39,1.69.11,1.8,1.36,2,1.79,2.62,2.54,1.87,2.4,1.25,2.6,1.11,3.06.87,2.12-.29,4.09-.37,2.54-.67,2.52L120.55,160v2.84l.5,1.41.28,1.86-.26,3.66.08,3.14.32,1.81.29,2.28-.38,2.09-.31,1.4.05,1.15.39.51.92.49,1.31.12,3.88-.73,4.47-.69,1.36-.29,1.59-.77,6.93-2.11,3.65,6.15.78,3-.26,5.84.49,7.44,1.71,4.39,2.28,5.5,1.45,3.08.08,1.36,1.85,3.93.51,2-.55,2.43-.95,1.54-1.35,1-.75.93-.51,1.55-.73,2.43-.82,4.64V236l.62,1.23,4,7.14L153,249.5l.82,5.61.67,3.51.49,3.25,2.3,4.95.25,2,.67,1.14,1.38,1.94.71,2.58.92,7.81.83,3.14.94,4.42,1.46,4.66-1,1.5-.6,1.28-.38,5.64-.6,2.1-2.61,3-.86,1.29-.94,2.9L156.1,314h-2l-1.82-.87-4,1.82-2.51.87-1.4-.15-1.27.89-1.07.81-1.31.6-3.1.37-1.82,2.47-.37,2.3L135.2,325l.67,2.09.64,2.38,1.23.27,2.62.81,1.24,1.52.46,1.95.74.14,1-.25,1.92-.64,2.34-.12,1.48,1.16,1.59.72,2.57.61,2.59.95,1.77,1,1.53,1.33,1.17,2.87Z"/></svg>