<svg id="Layer_1" data-name="Layer 1" xmlns="http://www.w3.org/2000/svg" viewBox="0 0 350 350"><defs><style>.cls-1{fill:#999;}.cls-2{fill:#f90;}</style></defs><title>M</title><polygon class="cls-1" points="204.77 7.11 191.16 13.91 179.82 24.12 170.74 38.87 162.8 50.21 154.86 50.21 141.25 61.56 132.17 61.56 125.36 61.56 125.36 72.9 119.69 80.84 107.21 88.78 98.14 102.4 87.93 108.07 79.99 113.74 66.37 113.74 66.37 120.55 50.49 120.55 50.49 129.62 41.42 138.7 34.61 148.91 24.4 159.98 15.32 169.33 6.25 178.13 6.25 189.75 6.25 204.5 6.25 214.71 11.92 227.18 17.05 235.7 30.67 247.61 38.89 258.57 53.9 275.17 75.25 283.15 84.26 287.59 99.32 294.29 107.23 297.8 123.88 304.12 131.91 307.16 137.86 316.96 144.67 327.35 152.31 338.08 155.73 342.89 164.24 327.35 171.89 316.96 188.3 299.44 206.78 286.74 213.84 281.63 221.24 276.27 245.91 276.27 258.01 273.36 279.93 266.33 300.22 252.85 318.23 234.85 342.9 212.73 343.75 192.31 343.75 182.94 336.37 159.98 336.37 148.91 332.96 138.7 320.48 122.82 314.81 113.74 300.22 98.99 292.12 80.84 280.78 68.36 263.35 63.83 251.28 51.35 236.54 43.41 219.52 25.26 214.98 13.91 204.77 7.11"/><path class="cls-2" d="M155.89,345.56l-12.37-17.39-6.84-10.44-5.73-9.42-24.22-9.19-23-10.24-9-4.44-21.61-8.07-15.32-17-8.14-10.85L16,236.62l-5.32-8.85L4.83,215V177.53l9.51-9.22,9-9.32,10.11-11,6.92-10.33L49.07,129v-9.91H65v-6.81H79.53l7.71-5.49,9.91-5.51,9.05-13.58,12.5-8,5.25-7.35V60.14h16.79L154.35,48.8h7.72l7.52-10.74,9.14-14.85,11.64-10.47,14.52-7.26L216.14,13l4.6,11.5,16.67,17.79,14.74,7.94,11.94,12.35,17.45,4.54,11.78,13,8.08,18.12L316,113l5.63,9,12.58,16,3.55,10.66v11.08l7.38,23v9.59l-.88,21.08L319.17,235.9,301,254l-20.45,13.59-22.21,7.12-12.43,2.95H221.7l-14.09,10.21-18.38,12.63L173,317.86l-7.55,10.25ZM54.72,274l21.16,7.91,9,4.45,22.92,10.19,25.05,9.5,6.21,10.21,6.78,10.35,9.72,13.66,7.52-13.72L170.86,316l16.64-17.71L206,285.57l14.81-10.73h25L257.63,272l21.68-7,20-13.29,17.91-17.91,24.28-21.77.83-19.82v-9.08l-7.38-23V149.14l-3.25-9.76-12.41-15.81-5.59-8.94L299,99.81l-8.11-18.18L280,69.63l-17.4-4.53L250.42,52.49l-14.76-7.95L218.3,26l-4.47-11.18-9.16-6.11L192,15.09l-11,9.94-9,14.57-8.41,12h-8.17L141.76,63h-15V73.36l-6.1,8.53-12.46,7.93-9.1,13.65-10.44,5.8-8.25,5.89H67.79V122H51.91v8.25l-9.39,9.39-6.87,10.27L25.44,160.94l-9.1,9.38-8.67,8.41V214.4l5.51,12.13,5,8.25,13.65,12L40,257.67Z"/></svg>