<svg id="Layer_1" data-name="Layer 1" xmlns="http://www.w3.org/2000/svg" viewBox="0 0 350 350"><defs><style>.cls-1{fill:#999;}.cls-2{fill:#f90;}</style></defs><title>M</title><polygon class="cls-1" points="36.11 104.48 36.11 110.71 34.19 121.27 29.4 127.36 27.48 127.36 27.48 131.34 22.68 131.34 14.52 137.58 12.13 144.3 12.13 156.16 12.13 168.28 14.04 177.88 19.8 185.07 27 194.67 39.95 204.75 45.71 213.86 45.71 222.97 45.71 226.33 53.38 226.33 61.06 226.33 67.3 223.94 74.97 222.97 78.81 222.02 87.93 222.02 95.12 222.02 102.8 223.46 109.99 217.22 114.79 211.94 123.43 207.14 130.14 203.31 130.14 198.99 141.66 197.55 146.94 194.67 152.21 193.71 157.01 197.55 161.33 200.91 167.08 199.95 174.28 197.07 180.04 189.39 188.67 184.12 196.81 182.2 204.99 182.2 209.78 185.07 213.14 189.87 215.54 192.75 215.54 195.15 210.26 198.99 209.78 204.75 212.18 210.5 212.18 214.34 212.66 220.58 215.54 226.33 217.94 231.13 223.69 234.97 230.89 238.81 235.69 245.04 238.57 250.8 238.57 256.08 242.41 259.92 242.41 270.95 245.76 279.59 249.6 288.22 257.28 288.22 263.99 282.56 266.39 282.56 272.63 278.15 272.63 273.35 272.63 269.03 276.95 263.75 284.62 261.36 287.98 256.08 287.98 252.24 291.34 248.4 291.34 244.56 291.34 237.85 291.34 229.69 291.34 221.54 294.22 213.38 290.86 207.62 294.22 202.83 299.98 198.99 305.25 196.35 309.57 188.91 309.57 184.59 312.45 182.68 312.45 178.84 320.6 176.92 326.84 175.48 334.52 172.12 337.88 169.24 334.52 164.45 334.52 158.69 335.48 152.45 334.04 147.18 333.56 141.9 330.2 139.5 328.28 133.74 328.28 127.36 325.88 125.11 320.6 120.79 320.6 115.51 318.2 111.67 319.17 108.8 322.04 107.83 325.88 104.48 327.32 102.56 327.8 99.68 327.8 95.36 331.16 95.36 333.08 92.96 337.88 90.56 337.88 86.25 333.56 83.85 329.24 80.49 324.92 80.49 324.92 75.69 321.56 71.37 316.29 71.37 311.01 74.25 304.77 73.29 297.1 71.37 290.86 71.37 284.14 73.77 280.31 74.73 273.59 74.25 268.31 73.29 263.03 71.37 259.68 68.02 253.44 65.14 244.32 61.78 238.57 61.78 229.93 66.58 224.17 70.89 221.3 72.81 220.34 80.01 220.34 86.73 219.86 91.52 214.58 97.28 205.94 104 199.23 110.71 192.03 117.91 180.52 123.67 165.16 127.36 151.25 127.36 143.1 133.26 127.74 143.82 123.43 150.3 119.11 156.16 114.31 164.93 108.08 156.16 104.24 150.3 100.88 144.78 86.97 139.5 74.01 133.74 61.06 127.36 50.98 120.79 43.79 111.19 36.11 104.48"/><path class="cls-2" d="M257.79,289.64h-9.11l-4.21-9.48L241,271.22V260.5l-3.84-3.84v-5.53l-2.67-5.34L230,239.91l-7-3.77-6.07-4L211.27,221l-.51-6.62v-3.55L208.34,205l.56-6.75,5.22-3.8v-1.16L212,190.69l-3.19-4.55-4.2-2.52H197l-7.75,1.83-8.21,5-5.83,7.78-7.86,3.11-6.37,1.06-4.81-3.74-4.31-3.45-4.42.8-5.31,2.9-10.54,1.32v3.89l-7.43,4.25-8.45,4.69-4.76,5.22L103.21,225,95,223.43H79l-3.84.95-7.5.94-6.32,2.43h-17V214.27l-5.41-8.56-13-10.19-7.2-9.6-5.95-7.43-2-10.21V144.05l2.62-7.34,8.87-6.78h3.86v-4h2.65l4.15-5.27,1.83-10.08v-9.23l10.23,9,7,9.39,9.79,6.38,12.88,6.35,12.9,5.73,14.3,5.42,3.61,5.94,3.81,5.82,4.89,6.88,3.81-6.94,4.32-5.86,4.43-6.65,15.58-10.71,8.5-6.16H165l15-3.61,11.16-5.58,13.88-13.87,8.54-6.64,4.88-5.32.43-4.26V79.82L220,72l3.41-2.28,5.86-4.38,9-5h6.38L254,63.85l6.47,3,3.32,3.31,4.87,1.77,5.08.92,6.42.46,3.55-.89L290.61,70l6.83,0,7.61,1.9,5.7.88L315.92,70h6.33l4.08,5.25v3.87h3.39l4.62,3.59,5,2.75v6L334,94.09l-2.15,2.69h-2.62l0,3.13-.54,3.22-1.85,2.41-4.05,3.55-2.48.83-.52,1.57L322,115.1v5l4.76,3.89,2.92,2.73v6.77l1.7,5.1,3.51,2.51.53,5.8,1.49,5.45-1,6.43V164l3.84,5.48-4.5,3.85-8.12,3.53L313.87,180v3.47L311,185.35v3.94l-4.72,8.13-5.58,2.79-5.46,3.64-2.68,3.84,3.23,5.54-3,8.55v27.16l-3.36,3.84v3.72l-3.86,6.06L277.78,265,274,269.54v9.34l-7.2,5.1h-2.33Zm-7.27-2.83h6.24l6.72-5.66h2.47l5.27-3.73v-8.89l4.91-6,7.59-2.37,2.86-4.49v-4l3.36-3.84V221.29l2.74-7.77-3.48-6,4-5.76,6.13-4.07,4.9-2.45,3.91-6.74v-4.69l2.88-1.92v-4.2l15.36-3.59,7.36-3.22L336,169l-2.88-4.11,0-6.42.91-5.94-1.4-5.23-.42-4.63L329,140.38,326.86,134v-6l-2-1.83-5.72-4.68v-5.54l-2.54-4.06,1.4-4.18,3.28-1.09,3.51-3.07L326,102l.4-2.42V93.94h4.09l1.69-2.11,4.29-2.15V87.08L332.69,85l-3.93-3.06H323.5V76.18l-2.63-3.39h-4.22l-5.38,2.93-6.84-1.06-7.51-1.88H291.1l-6.62,2.36-4.06,1-7.09-.52-5.51-1-5.57-2-3.4-3.4-6-2.75-8.83-3.25h-5.14l-8.23,4.57L225,72l-2.41,1.61-.86,6.47v6.76l-.53,5.27-5.77,6.27-8.57,6.66-14,14-12,6-15.68,3.73H151.71l-7.78,5.64-15.16,10.42-4.17,6.25-4.3,5.84-5.84,10.67L106.92,157l-3.87-5.9-3.13-5.15-13.46-5.1-13-5.79-13.15-6.49L50,121.84l-7.26-9.68-5.21-4.56,0,3.37-2,10.9-5.44,6.9H28.89v4H23.16l-7.44,5.69-2.18,6.09v23.6l1.82,9.12,5.54,6.93L28,193.67l13,10.11,6.11,9.67v11.47H60.8l6.33-2.39,7.59-.95,4.1-1,16.57,0,7,1.31L109,216.2l4.9-5.39,8.84-4.91,6-3.42v-4.75l12.49-1.56,5.24-2.86,6.14-1.12,5.3,4.24,3.81,3,5-.83,6.68-2.67,5.68-7.58,9.06-5.54,8.68-2h8.57l5.39,3.24,3.5,5,2.69,3.23v3.63l-5.34,3.88-.4,4.77,2.37,5.7v4.07l.46,5.91,5,10,5.39,3.59,7.4,3.95,5.13,6.71,3,6.06v5l3.84,3.84v11.35l3.26,8.39Z"/></svg>