<svg id="Layer_1" data-name="Layer 1" xmlns="http://www.w3.org/2000/svg" viewBox="0 0 350 350"><defs><style>.cls-1{fill:#999;}.cls-2{fill:#f90;}</style></defs><title>M</title><path class="cls-1" d="M153.48,6.43s-20.21,5.59-21.35,7.5S130,24.23,129.59,25.62s-4.7,20.59-5.08,22.49S122,52.56,117.39,54,107,61.33,103,61.2s-11.94,4.32-14,4.32-5.21-.64-6.35,1.4-7,4.19-7,4.19l6.86,5.59c.64.51,5.46,2.54,7.5,8.13,5,2.54,17.16,6.48,17.79,7.5a14,14,0,0,1,2.92,8.13c.13,4.57-.76,2.8-6.74,5.34s-8.51,1.91-9.66,5.46-2.92,5.59-2.41,6.48,2.92,1.4,2.92,1.4-9.15,3-9.28,6-4.83,2.67-4.32,4.83.64,4.45,5.21,6,9.4,6,11.06,6,4.32,1.78,4.32,1.78-4.57,11.18-5.34,15.88.51,18.17.38,18.55,5.59,2.67,6,5.34c-2.29,3.81-4.19,4.7-7.75,6s-5.72,3.56-3.81,9.66,2.92,2.16,3,9.53-.51,19.82-.51,19.82l-15.25,7.24-2.29,11.18s12.71,15.5,16.52,19.7,20.2,7,23.89,8,16.14,11.31,20.33,13.47c.13,8.77.76,10.29.76,10.29s15.25.64,16.77,3.18-1,10.29-1.52,11.18,2.8,2,3.43,6.48,3.43,7,9.28,8,22.49.13,24,.64c-.13,10.55,0,15.76,0,15.76s6.48-10.8,7.24-14-2.41-23.89-1.65-31.26,1.4-19.19,6.35-22.36,22.49-11.31,26.56-11.31,21.73-6,28.72-9.4,14.61-11.56,16.77-21.35S270,202.64,270,195s1.14-22.49-1.78-26.81,2.92-36.6,3-39,1.65-24.4,1.65-24.4-8.39,2.16-22.37-8.26c-5.59-1.91-19.7,6-24.91,3.81-4.07-10.17-3-4.07-11.18-8.64S199.1,72.13,195,68.32s-9.91-23.76-10.55-29.86S176,24.86,172.79,23.08,155.26,6.43,155.26,6.43Z"/><path class="cls-2" d="M188.53,348.48l-.12-4.88c0-.05-.12-4.92,0-14.52-1.41,0-4,0-6.31,0-5.77,0-12.95.11-16.51-.51-6.38-1.11-9.7-4-10.44-9.2a7.46,7.46,0,0,0-2.34-4.41c-.65-.68-1.64-1.72-.92-3s2.56-8,1.54-9.75c-.88-1-8-2.17-15.62-2.49l-.9,0-.35-.83c-.17-.4-.71-2.3-.86-10-1.93-1.14-4.84-3.25-7.89-5.48-4.25-3.09-9.54-6.95-11.41-7.46-.69-.19-1.89-.46-3.4-.79-8.61-1.9-18.06-4.22-21.16-7.63-3.79-4.17-16-19.12-16.57-19.75l-.43-.52,2.56-12.54,15.12-7.18c.14-2.92.57-12.75.47-18.88-.07-3.8-.33-4.12-.81-4.71A11.41,11.41,0,0,1,90,199.5c-1.87-6-.38-9.61,4.69-11.42,3.09-1.1,4.74-1.8,6.68-4.83-.62-1.14-3-2.53-4-3.09-1.15-.67-2.07-1.21-1.87-2.25,0-.36-.08-1.45-.15-2.51-.28-4.36-.81-12.49-.23-16.06.64-4,3.78-12.07,5-15.06a7,7,0,0,0-2.55-1c-1.13,0-2.41-.81-4.75-2.35a31.82,31.82,0,0,0-6.75-3.7c-5-1.66-5.55-4.33-6-6.48l-.11-.51c-.5-2.12,1.39-3.08,2.52-3.65s1.74-.94,1.76-1.57c.11-2.54,3.81-4.66,7-6a2.52,2.52,0,0,1-.46-.58c-.66-1.15,0-2.37.72-3.92a25.85,25.85,0,0,0,1.58-3.7c1-3.15,3.08-3.8,5.94-4.71a47.39,47.39,0,0,0,4.51-1.62,31.94,31.94,0,0,1,4.34-1.48,6.27,6.27,0,0,0,1.41-.48,5.2,5.2,0,0,0,.13-2A12.09,12.09,0,0,0,107,93.59l-.23-.34a74.12,74.12,0,0,0-7.17-2.95c-3.62-1.38-7.73-2.95-10.17-4.2l-.5-.25-.19-.52a13.45,13.45,0,0,0-6.33-7.05,6.92,6.92,0,0,1-.72-.46l-6.87-5.6-1.92-1.57,2.32-.86c2.58-1,5.7-2.59,6.25-3.56,1.36-2.43,4.31-2.27,6.45-2.16.4,0,.79,0,1.14,0a25.12,25.12,0,0,0,4.27-1.51c3.34-1.36,7.14-2.9,9.75-2.81,1.78.05,4.48-1.73,7.09-3.46A29.09,29.09,0,0,1,117,52.61c4.36-1.33,5.91-3.62,6.14-4.77.38-1.91,4.7-21.1,5.11-22.59.09-.35.28-1.46.47-2.64.7-4.29,1.35-8,2.22-9.41,1.19-2,12.72-5.52,22.19-8.14l.19-.05h2.57l.42.43c5.71,5.92,15,15.17,17.21,16.4,3.4,1.9,11.71,9.8,12.41,16.47.65,6.27,6.44,25.54,10.11,29,1.56,1.46,3.44,4.27,5.61,7.53,3.83,5.73,8.59,12.86,13.55,15.65a12.78,12.78,0,0,0,5.56,1.9c2.86.31,3.72,1.23,6,6.83,2.37.52,6.92-.85,11-2.06,5.2-1.56,10.12-3,13.32-1.94l.21.07.18.13c13.14,9.79,21.1,8,21.18,8l1.88-.45-.12,1.92c0,.22-1.53,22-1.65,24.37,0,.54-.25,2-.69,4.93-3.06,20.07-3.93,31.25-2.6,33.22,2.4,3.54,2.38,11.83,2.12,22.29,0,2-.1,3.8-.1,5.32,0,2.69.83,7.49,1.71,12.58,1.64,9.45,3.49,20.17,2.07,26.61-2.34,10.62-10.49,18.86-17.53,22.32-6.59,3.24-24.79,9.55-29.34,9.55-3.47,0-20.64,7.78-25.79,11.09-3.89,2.5-4.85,12.45-5.48,19-.08.79-.15,1.56-.22,2.28-.4,3.84.33,11.6,1,18.45.68,7.22,1,11.39.65,13-.79,3.29-6.73,13.25-7.41,14.38Zm-2.6-22.26a18.46,18.46,0,0,1,4.34.24l1,.33v1c-.05,4.48-.06,8-.05,10.57,1.95-3.45,4.12-7.54,4.5-9.13.3-1.23-.24-7-.72-12.07-.65-7-1.39-14.89-1-19,.07-.71.15-1.47.22-2.25.77-8,1.72-17.92,6.78-21.16,4.63-3,22.74-11.53,27.32-11.53,3.54,0,20.87-5.71,28.09-9.26,6.22-3.05,13.88-10.73,16-20.38,1.3-5.9-.58-16.78-2.09-25.52-.94-5.43-1.75-10.13-1.75-13.06,0-1.56,0-3.42.1-5.39.18-7,.45-17.56-1.63-20.63-2.18-3.23-.72-16.42,2.14-35.23.34-2.26.64-4.22.67-4.65.11-2,1.17-17.5,1.54-22.73-3.32.12-10.89-.73-21.48-8.57-2.41-.66-7.18.77-11.4,2-5.3,1.59-10.3,3.09-13.4,1.8l-.55-.23-.22-.55c-2.2-5.5-2.5-5.53-3.92-5.69a15.47,15.47,0,0,1-6.64-2.24c-5.55-3.12-10.53-10.57-14.52-16.55a49.45,49.45,0,0,0-5.19-7c-4.43-4.15-10.35-24.58-11-30.75-.56-5.38-7.9-12.56-11-14.29S157.35,10.63,154.66,7.85h-1c-9,2.51-19,5.73-20.37,6.89-.65,1.24-1.4,5.83-1.81,8.33-.25,1.55-.4,2.46-.53,2.92-.32,1.19-4.63,20.24-5.06,22.4s-2.82,5.31-8.09,6.92a27.4,27.4,0,0,0-6.07,3.38c-3.12,2.06-6,4-8.75,3.93-2-.06-5.82,1.48-8.6,2.6s-4.28,1.72-5.34,1.72c-.4,0-.83,0-1.29,0-1.88-.1-3.36-.11-3.83.72-.88,1.56-3.5,3-5.49,3.9l5,4.08.38.22a16.42,16.42,0,0,1,7.36,8c2.35,1.14,6.09,2.57,9.41,3.83,6.77,2.58,8,3.13,8.46,3.94l.27.4a14.87,14.87,0,0,1,2.87,8.45c.1,3.75-.68,4.51-3.61,5.32a29.38,29.38,0,0,0-4,1.36,49.92,49.92,0,0,1-4.76,1.72c-2.8.89-3.56,1.19-4.1,2.88A28.51,28.51,0,0,1,94,115.8c-.23.46-.5,1-.63,1.36a8.69,8.69,0,0,0,1.82.61l5.11,1.08-5,1.66c-4.63,1.55-8.27,3.79-8.31,4.69-.1,2.35-2,3.33-3.32,4a7.25,7.25,0,0,0-1,.58l.1.44c.42,1.89.72,3.26,4.15,4.4a33.91,33.91,0,0,1,7.41,4,17.56,17.56,0,0,0,3.24,1.88h0c1.94,0,4.56,1.68,5.06,2l1,.64-.44,1.07c0,.11-4.52,11.09-5.25,15.57-.53,3.26,0,11.48.26,15.43.07,1.07.11,1.76.13,2.22l.48.28c1.92,1.12,5.13,3,5.49,5.54l.07.5-.26.43c-2.58,4.29-4.9,5.3-8.49,6.58-2.56.92-4.71,2.21-2.94,7.9a8.87,8.87,0,0,0,1.68,3.48c1,1.22,1.36,2.09,1.44,6.45.13,7.33-.5,19.8-.51,19.92l0,.84-15.37,7.3-2,9.83c2.25,2.74,12.69,15.43,16,19.12,2.76,3,14.18,5.56,19.67,6.77,1.55.34,2.78.61,3.55.82,2.21.61,6.32,3.53,12.33,7.91a91.5,91.5,0,0,0,8.27,5.67l.76.39V288A72.73,72.73,0,0,0,139,297c6.06.3,15.26,1.2,16.83,3.81,1.74,2.91-.35,9.76-1.23,12l.23.24a10.18,10.18,0,0,1,3.09,6c.55,3.88,3,5.92,8.12,6.81,3.31.58,10.65.51,16,.47Zm-31.6-12.84h0Zm0,0h0Z"/></svg>