<svg id="Layer_1" data-name="Layer 1" xmlns="http://www.w3.org/2000/svg" viewBox="0 0 350 350"><defs><style>.cls-1{fill:#999;}.cls-2{fill:#f90;}</style></defs><title>M</title><path class="cls-1" d="M6.25,94.93a14.81,14.81,0,0,0,4.14-10.11L18,80.22l-7.35-6s-3.52-4.6,6.13-6.59l19.46-.77s10.26-.61,14.25-5.06c0,0,19-17.62,25.74-21.3,0,0,5.67-1.69,27.58.92L115,43.14l3.68.31,5.67.31,3.22.15,7.35,4.6L138,50l4.29,1.53,5.36,1.84,2.6.61,2.91.61,6,3.22,6,2.76,6,3.68,6,5.06,8.27,6.28,4.9,3.37,4.9,3.68,1.07,1.84,4-1.38,4.29-1.07,8.43-1.23h6.74L223,81l4-1.38,7-2.6,5.52-1.23,5.67-1.23,8.73.15,5.52.15,2.76,1.07,5.36,2.6.92-5.21s15.78,3.37,28.34,0c0,0,16.85-3.37,22.06-9L320,70l3.06-.61,2.3,5.67-1.53,8.12-1.07,7.35s-.61,9.19,4.75,5.52l6.13-4.14,10.11,10.26h-12.1l-9.5.92-11.95,1.07H300.09L295,105h-4.9l-6-2.3-5.82-1.07-3.52-.31-11.34,7.35s-5.52,3.52-8.27-1.53l-3.68-2.91L231.3,116.83l-6.28,11s-7.51,12.72-8.27,37.84l2,21.14,1.68,9.35.77,5.82L218,210.59l-2.14,5.21L214.6,221s-1.53,7.66,1.68,13.94l-1.68,2.91L213.53,240s-1.69,5.36,4.44,10.72c0,0,4.44,2.76-5.36,3.68,0,0-9.8,1.68-12.72,14.4l-.61,8.58-25.12,16.7s-12.72,13.18-27,15.17c0,0-14.86,3.52-17.77-4.75l.92-28.65,3.37-79.36s29.11-15.78,13.17-33.09l-4.44-7.2-7.51-5.33-2.72-2.94-8.77-1.53-5.36-.31-11.95-6.89-6.43,3.22-26.81-3.06A33.6,33.6,0,0,0,58,146.71Z"/><path class="cls-2" d="M140.39,311.42c-4.75,0-10.45-1.18-12.3-6.45l-.09-.25v-.27l.92-28.65,3.41-80.17.71-.38c.15-.08,15.27-8.41,17-19,.68-4.08-.74-8.06-4.23-11.84l-.16-.22-4.29-7-7.49-5.36-2.4-2.59-8.21-1.44-5.62-.32-11.58-6.68L100,143.87l-27-3.09a32.85,32.85,0,0,0-14,7l-1,.85L4.23,94.91l1-1A13.49,13.49,0,0,0,9,84.85l0-.83,6.64-4-6-4.94a4.62,4.62,0,0,1-.66-4.25c.81-2.17,3.37-3.71,7.62-4.59l.23,0,19.46-.77c.07,0,9.7-.63,13.25-4.59l.09-.09c.78-.72,19.21-17.78,26-21.5l.27-.11c.24-.07,6.2-1.74,28.15.87l11.23,1.69,3.58.29,9.21.47,7.61,4.76,2.93,1.46,4.21,1.5L148,52l2.54.6,3.08.65,6.15,3.31,6,2.8L172,63.2l6,5.06,8.21,6.23L191,77.82l5.18,3.88.63,1.08,3-1,4.43-1.1,8.63-1.24h6.74l3.16.14,3.73-1.29,7.2-2.65,11.35-2.49,8.9.16,5.78.16,3.09,1.21,3.67,1.78.85-4.81,1.44.31c.15,0,15.6,3.26,27.68,0,.25-.05,16.55-3.37,21.38-8.63l1.91-2.08,1.33,7,2.81-.56,2.89,7.14-1.61,8.53-1.05,7.24c-.12,1.95.26,4.39.95,4.78.19.1.71,0,1.59-.58l7.11-4.8,13.31,13.52H331.71l-9.43.91-12.09,1.08h-10l-5.18.92h-5.17l-6.1-2.35-5.63-1-3-.26-10.93,7.09c-.14.09-3.23,2-6.33,1.23a6.14,6.14,0,0,1-3.81-3L251.42,106l-19.07,11.85-6.1,10.72c-.08.14-7.33,12.76-8.08,37.09l2,21,1.67,9.29.82,6.24-3.34,8.91-2.12,5.15-1.2,5.1s-1.38,7.22,1.57,13l.35.69-2.07,3.58-1,1.94c-.16.65-.9,4.77,4,9.08a3,3,0,0,1,1.5,3c-.42,1.77-2.67,2.73-7.53,3.19-.74.15-8.9,2-11.51,13.21l-.66,9.16-25.58,17c-1.37,1.39-13.62,13.48-27.61,15.46A34,34,0,0,1,140.39,311.42Zm-9.54-7.15c2.67,6.67,15.88,3.64,16,3.6l.13,0c13.61-1.9,26-14.62,26.14-14.75l.24-.2,24.54-16.31.6-8.1C201.6,255,211.93,253.08,212.37,253h.11a14.82,14.82,0,0,0,4.85-1l-.11-.08-.18-.13c-6.75-5.9-4.94-12-4.86-12.21l.08-.21,1.07-2.15,1.35-2.34c-3-6.48-1.54-13.84-1.47-14.16l1.3-5.47,2.14-5.21,3.08-8.21-.72-5.47-1.69-9.4-2-21.23v-.09c.77-25.2,8.16-38,8.47-38.52l6.45-11.32,21.38-13.28,4.68,3.71.14.25a3.48,3.48,0,0,0,2.16,1.88,6.17,6.17,0,0,0,4.11-.87l11.73-7.61,4.14.37,6.07,1.14,5.73,2.2h4.51l5.18-.92h10L322,101.63l9.63-.92h8.72l-6.91-7-5.15,3.48c-1.75,1.2-3.3,1.43-4.59.7-2.63-1.5-2.43-6.5-2.37-7.48v-.11l1.07-7.35,1.46-7.77L322.2,71l-3.32.66L318,67c-6.7,4.87-20.21,7.61-20.85,7.74-10.59,2.84-23.24,1-27.48.27l-1,5.64-7-3.4-2.48-1-5.27-.15L245.38,76l-10.92,2.39-7,2.57-4.27,1.48-3.64-.17H213l-8.25,1.2-4.16,1-5,1.74-1.51-2.6-4.67-3.5-4.85-3.34-8.33-6.32-6-5-5.81-3.58-5.9-2.72L152.68,56,150,55.41l-2.77-.66-5.36-1.84-4.46-1.6-3.18-1.6-7-4.4-8.52-.44-3.72-.31-11.28-1.7c-19.36-2.3-25.89-1.19-26.85-1-6.49,3.65-24.22,20-25.25,21-4.35,4.78-14.73,5.45-15.17,5.47L17,69.07c-4.27.9-5.21,2.23-5.42,2.76a1.73,1.73,0,0,0,.18,1.45l8.75,7.11L11.8,85.62a16.05,16.05,0,0,1-3.61,9.25L58.13,144.8A34.58,34.58,0,0,1,72.67,138l.19,0,26.59,3,6.74-3.37,12.32,7.11,5.19.31,9.24,1.61,3,3.19,7.62,5.41,4.52,7.33c4,4.43,5.67,9.19,4.84,14.13-1.78,10.71-14.56,18.79-17.77,20.66l-3.34,78.57Z"/></svg>