<svg id="Layer_1" data-name="Layer 1" xmlns="http://www.w3.org/2000/svg" viewBox="0 0 350 350"><defs><style>.cls-1{fill:#999;}.cls-2{fill:#f90;}</style></defs><title>M</title><path class="cls-1" d="M341.87,145c-1.44-2.63-3.57-5.27-5.86-6.29s-6.29-.76-8.24-2.46-1.61-2.72-1.7-5.86c-.76-2-2.72-3.86-8.07-5.54-1.27-1.42-2.29-2.19-2.29-4.74-.85-1.44-2.12-1.7.17-3.23a4.5,4.5,0,0,0-1.61-5.78c-1.61-1.78-3.57-4.76-2-7.39s2.89-4,.93-4.33c-1.61,0-5.86,1.61-6.71,1.61s-6.88-.17-6.88-.17-2.12-.25-2.55.25-2,2.21-3.06-.93c-.08-.76.23-6.54-.23-8.18-.42-1-2.32-4.13-2.94-4.5s-.31-2.38,1.1-2.66,3.54-.45,4.25-.71,1.36-.65,1.22-3a15.15,15.15,0,0,0-.57-3.62l-.85-.19a17,17,0,0,0-7-13.8c-3-2.16-6.81-3.27-10-5.1-1.44-.81-13.72-3.16-13.3-4.34a1.51,1.51,0,0,0-1-1.85c-2.54-.65-8.33-2.08-10.3.62-.91,1.25-.43,3.5-.32,4.87l.63,8c-1-.22-1.92-.37-2.45-.44h0a17.59,17.59,0,0,0-2.13,0l-.45.09c-.86.11-2,.24-3.18.42a29.11,29.11,0,0,0-4.07,1.06h0a2.12,2.12,0,0,0-.4.27,20,20,0,0,1-8.66,1.59h0a12,12,0,0,1-2.71-.4,7.15,7.15,0,0,0-3.39.69c-.19.11-.38.24-.57.38h0A6.25,6.25,0,0,0,225,71.17c-.52.89-1.21,1.84-1.9,2.94a36.79,36.79,0,0,0-2.66,6.73v0q-.07.53-.13,1c0,.3,0,.61-.06.92-.05.88-.09,1.68-.11,2.39a13.55,13.55,0,0,0,1.46,6.68,27.43,27.43,0,0,1,2.11,3.72,4.71,4.71,0,0,0,.22.55.93.93,0,0,1,.34.63c.06.15,0,.24-.16.41-.45.4-.79.34-1.64.45l-.52,0c-.52,0-1,.06-1.21.08h0a3.54,3.54,0,0,1-1.41.3,8.19,8.19,0,0,1-2.88-.31,3.44,3.44,0,0,1-.52-.16,4.23,4.23,0,0,1-1.43-.76c-.48-.31-.82-.58-.82-.58a9.3,9.3,0,0,0-1.27-.39l-.16,0c-4.32,2.29-8.49,9-13.51,5.35-1.59-1.15-2.33-2.36-4.35-2.84l-.21,0c-2.1,1.22-7.07.82-8.88.77a1,1,0,0,1,0-2,38.46,38.46,0,0,0,6.29-.21,1.78,1.78,0,0,1-.35-.37,5.06,5.06,0,0,1-.93-1.68l-1.13-2.06c-6.29-4-15.41-3.09-22.42-4.1-5.4-.78-10.77-2.58-11.67-8.26a5.86,5.86,0,0,0-2.34.68,20,20,0,0,0,.31,3.34c.07.56-.51,1-1,1-9.92.42-16.94-5.68-24.84-10.84a24.92,24.92,0,0,1-3.31-2.24c-.73-.68-1.47-2.94-2.17-3.23-2.92-1.22-1.93,2.65-2.27,3.64-.28.82-1.43,1.74-1.8,2.39a1,1,0,0,1-1.73,0c-1.85-3.49-2.44-7.16-3.34-11-1.32-5.53-4.6-7.25-9.68-7.46-3,2.27-6.54,6.17-9.26,12.83-1,1.7-6.57,9.63-6.91,15.18-.11,3.06-.23,14.5-1.47,18.23a8.27,8.27,0,0,1-3.17,3.51s-6.91,2.15-3.74,8.38c1,3.06,3.06,6.8,1.93,10.87-1.59,2.6-5.78,9.17-6.68,9.74s-7.47,5.44-8.61,7.7c-1.13,2-4.76,5.78-6.57,7.36S54,152.82,54.6,162.11c0,1.7,0,5.32-2.83,4.87-2-.23-11.33.57-12.68,2.15-1.47.57-13.36,6.91-18,10.76-2.6,2.6-10.19,4.53-9.29,12.8.68,1.36.79,8.38-1,14.5-1.13,3.4-5.55,9.51-2.27,15.74,1.7,2.15,10.19,7.14,11,8.49s3.51,9.51,2.83,15.4c-.68,4-3.74,6.57-6,8.95a19.25,19.25,0,0,0-5.21,12.34c-.11,3.4.91,12.57,1.25,15.63-.11,1.47-2.38,7.36-2.83,7.59s1.7,1,4.76,1.36,3.28,2.49,3.74,4.3,1,1.81,4.42,1.81S32,298.69,34,298s4.87-4.64,5.78-6.23,5.66-6.12,11.55-6.12c3.51.23,8.49,1.25,11,0s5.55-5.66,8.15-6.91c2.38-1.93,7-6.8,7.36-8.38s1.7-3.4,2.94-3.28,6.46.57,10-.79a12.66,12.66,0,0,1,5.66,1.36,29.39,29.39,0,0,0,5.78-4c.91-.23,5.66-.79,7.81,1.93,1.81,2.15,5.21,3.28,9.63,1.36,0,0,3.06-1,5.21.57s5.44,3.51,7.36,2.94,2.94-1,4.08-2.72,4.87-3.85,5-6.23-.11-5.89-.11-6.68.45-2.72.23-3.28,4,3.06,5.44,3.62,1.93,1.93,3.28,2.83,1.81,2.72,7.81,1.81c4.42-.11,6,.11,6.68-.57s1.25-.57,2,.79c.91.91,4.64,1.59,8,1s7.7.34,12.46-4.53c.91-.11,4.3.23,5.1.91s6.23,2,9.06,2.15a38.09,38.09,0,0,0,7.25-.79c.79-.11,3.31-1.9,4-1.9s1.44.42,3.14.76,8.92-1.27,10-2,3.82-6.71,4.33-9,4.42-9.17,6-10.28,4.5-2.63,8.58.08a89,89,0,0,1,6.37,7.56c.59.85.34,1.27,1.87,1.27s2.89-1.27,4-1.44,3.4.85,4.5.93,3.06.68,3.23-3.06c.34-3.65,4.84-16.05,5.1-17.16s2.46-5.27,1.53-9.26c-.93-3-3-4.16-2.55-7.9.25-.85,2.8-2.72,5.44-1.61,2,.76,2.72,1.19,4.42-3.14,1.53-4.08,3.48-8,4.33-10a44.89,44.89,0,0,1,4.67-8c1.19-1.36,5.69-5.61,7.64-5.52s8.32,2,8.32-2.8a87,87,0,0,1,1-10q.64-3.31,4.59-5.1c2.63-1.19,6.37-3.57,9.09-3.14s3.48,1.36,7.39-2.55a10.62,10.62,0,0,1,8.75.51c2.46,1.19,4.84,2,5.78-.34a2.64,2.64,0,0,1,1.78-1.87C342.54,152.54,343.31,147.61,341.87,145Z"/><path class="cls-2" d="M22.44,300.22c-3.22,0-4.83,0-5.76-2.78l-.15-.6c-.42-1.77-.67-2.55-2.4-2.75-5.73-.64-6-1.94-6.05-2.43a1.48,1.48,0,0,1,.47-1.37,34.93,34.93,0,0,0,2.39-6.55c-.36-3.2-1.35-12.23-1.24-15.68a20.68,20.68,0,0,1,5.6-13.27l1-1c2-2.08,4.16-4.23,4.68-7.23.63-5.48-2-13.27-2.66-14.45a40.52,40.52,0,0,0-4.4-3.26c-3.3-2.28-5.53-3.86-6.48-5.07l-.14-.22c-2.93-5.55-.45-11,1.2-14.54.41-.9.77-1.68,1-2.31,1.79-6,1.51-12.49,1.09-13.42l-.09-.2,0-.27c-.78-7.1,4.08-10.19,7.3-12.24a15.43,15.43,0,0,0,2.39-1.71l.1-.09C24.76,175,36,169,38.3,167.93c2.59-2.12,12.26-2.51,13.63-2.35.48.07.6,0,.64-.07.62-.53.62-2.61.62-3.4-.5-8.16,1.39-10.32,3.72-12.12.21-.17.42-.33.62-.5,1.85-1.61,5.29-5.22,6.26-7,1.36-2.73,8.51-7.85,9.09-8.21a93.15,93.15,0,0,0,6.12-9.1c.7-2.8-.3-5.45-1.28-8-.23-.6-.45-1.18-.64-1.74a6.93,6.93,0,0,1-.47-6c1.18-2.79,4.22-4,4.95-4.28A7.14,7.14,0,0,0,84,102.44c1-3.11,1.21-12.08,1.31-15.94,0-.74,0-1.35.05-1.79.32-5.24,4.68-12,6.54-15l.51-.81c2.38-5.78,5.63-10.26,9.67-13.32l.41-.31.51,0c4.21.18,9.26,1.31,11,8.55.17.7.32,1.4.48,2.09a35.86,35.86,0,0,0,2.41,7.88c.15-.18.31-.36.48-.55a5.24,5.24,0,0,0,.78-1c0-.07,0-.46,0-.72,0-1.21,0-2.87,1.27-3.71a3,3,0,0,1,2.88-.05c.86.36,1.34,1.27,1.89,2.32a7.77,7.77,0,0,0,.7,1.18A13.94,13.94,0,0,0,127,72.81l1,.62c1.22.8,2.42,1.62,3.61,2.43,6.29,4.3,12.28,8.39,20,8.19-.39-2.82-.34-3.22,0-3.73.48-.72,1.37-.94,3.27-1.29l1.43-.26.23,1.43c.62,3.94,3.85,6.13,10.47,7.08,2,.28,4.08.41,6.32.55,5.83.36,11.86.73,16.65,3.76l.31.19.18.32,1.13,2.07.11.27a3.68,3.68,0,0,0,.64,1.15l.11.14.08.08,1.35,1.12h.29a2,2,0,0,1,.59.06,8,8,0,0,1,3.67,2.11c.36.32.74.65,1.17,1,2.54,1.83,4.7.23,8-2.54a24.67,24.67,0,0,1,4-2.91l.42-.22.66.1a11,11,0,0,1,1.56.47l.18.07.16.12s.31.24.72.51l.2.15a3,3,0,0,0,.93.46,2.43,2.43,0,0,0,.36.12,7,7,0,0,0,2.41.29h.12a2.18,2.18,0,0,0,.85-.16l.5-.13.38,0,.82-.05.45,0,.15,0-.06-.17a22.89,22.89,0,0,0-1.61-2.84l-.36-.59a15.07,15.07,0,0,1-1.67-7.41c0-.79.06-1.59.12-2.49,0-.32,0-.65.07-1s.08-.73.13-1.09l0-.2a38.29,38.29,0,0,1,2.77-7l.06-.11c.31-.48.61-.94.9-1.37s.7-1,1-1.52a7.71,7.71,0,0,1,1.8-2.16l.14-.11c.22-.16.44-.3.65-.43a8.46,8.46,0,0,1,4.08-.89h.21l.21.06a10.63,10.63,0,0,0,2.39.35h.12a19.18,19.18,0,0,0,7.7-1.36,3.86,3.86,0,0,1,.51-.33l.17-.08a30.47,30.47,0,0,1,4.31-1.13c1-.16,2-.28,2.82-.38l.38,0,.49-.09h.11a18.53,18.53,0,0,1,2.29,0l.27,0,.59.09-.48-6.16c0-.23,0-.48-.08-.75-.17-1.51-.41-3.59.67-5.07,2.57-3.53,9-1.87,11.8-1.16a2.93,2.93,0,0,1,1.84,1.48,2.88,2.88,0,0,1,.34,1.2,69.46,69.46,0,0,0,7.31,2.11,30.43,30.43,0,0,1,5.21,1.53c1.27.71,2.61,1.31,4,1.94a34.93,34.93,0,0,1,6.14,3.23,18.28,18.28,0,0,1,7.59,13.8l.56.13.26.75a16.32,16.32,0,0,1,.64,4c.15,2.52-.49,3.85-2.15,4.45a14,14,0,0,1-2.49.46c-.67.09-1.38.19-2,.3-.12,0-.22.22-.25.38a24.06,24.06,0,0,1,3.11,4.82l.07.2a31.63,31.63,0,0,1,.28,6.69c0,.6,0,1.26,0,1.58a3.37,3.37,0,0,0,.29.61,2.68,2.68,0,0,0,.27-.29c.23-.27.92-1.09,3.74-.76,2.1.06,6.13.17,6.78.17.23,0,1.27-.33,2-.56A19.73,19.73,0,0,1,313.24,98l.24,0a2.44,2.44,0,0,1,2,1.34c.54,1.22-.21,2.39-1.25,4-.22.34-.46.72-.71,1.12-1.15,1.87.52,4.26,1.7,5.59a5.91,5.91,0,0,1,1.95,7.42l-.17.37-.34.22-.45.33a8,8,0,0,1,.72,1l.2.33v.39a4,4,0,0,0,1.48,3.3l.19.21c4.87,1.58,7.52,3.52,8.6,6.26l.09.23v.25c0,.49,0,.92,0,1.32,0,2.06,0,2.49,1.19,3.51.86.75,2.55,1,4.18,1.31a15.89,15.89,0,0,1,3.71.93c3.27,1.46,5.66,5.31,6.53,6.9h0c1.75,3.19.8,8.69,0,10.23l-.26.53-.56.19a1.23,1.23,0,0,0-.85.82l-.07.22a3.6,3.6,0,0,1-2,2.17c-1.76.69-3.85-.19-5.67-1.07a9.41,9.41,0,0,0-7.32-.59c-3.39,3.34-4.88,3.46-7.43,2.94-.3-.06-.63-.13-1-.18-1.69-.27-4.29,1.05-6.39,2.11-.67.34-1.31.66-1.9.93-2.21,1-3.44,2.33-3.78,4.07a85.81,85.81,0,0,0-1,9.76,4.33,4.33,0,0,1-1.42,3.45c-1.92,1.67-5.11,1.22-7.22.91-.47-.07-.87-.13-1.17-.14-1.08,0-4.86,3.14-6.52,5a44.05,44.05,0,0,0-4.43,7.6c-.29.69-.7,1.59-1.17,2.63-1,2.08-2.13,4.67-3.14,7.35-1.72,4.38-3,5.21-6,4l-.19-.07a3.38,3.38,0,0,0-3.56.72,6.35,6.35,0,0,0,1.16,4.11,14.81,14.81,0,0,1,1.36,2.93l0,.1c.84,3.59-.5,7.14-1.22,9-.13.34-.27.72-.3.86-.08.35-.36,1.18-1,3-1.34,4-3.85,11.42-4.08,13.93a4.91,4.91,0,0,1-1.41,3.68,3.78,3.78,0,0,1-3.07.69l-.27,0a11.12,11.12,0,0,1-2.09-.48,8.69,8.69,0,0,0-2.09-.46,5,5,0,0,0-1.07.47,6.8,6.8,0,0,1-3.14,1c-1.69,0-2.31-.55-2.81-1.5a3.2,3.2,0,0,0-.22-.38,90.4,90.4,0,0,0-6.1-7.26c-3.12-2-5.24-1.16-6.89,0-1.22.83-5,7.35-5.45,9.42s-3.21,8.82-5,9.9c-1.4.86-8.94,2.56-11,2.14a20,20,0,0,1-2-.53,7.4,7.4,0,0,0-.73-.2c-.31.12-1,.52-1.44.76a8.13,8.13,0,0,1-2.45,1.11l-.63.11a33.57,33.57,0,0,1-6.87.7c-2.64-.11-8.65-1.4-9.93-2.49a12.25,12.25,0,0,0-3.56-.59c-4,3.84-7.69,4.11-10.7,4.32-.76.05-1.48.11-2.14.21-3.26.54-7.76.1-9.28-1.42l-.22-.29-.14-.23c-.88.64-2.1.65-4.45.66-.77,0-1.69,0-2.79,0-5.08.75-6.77-.33-8.19-1.61a4.79,4.79,0,0,0-.53-.44,8.41,8.41,0,0,1-1.69-1.57,3.48,3.48,0,0,0-1.32-1.12,19.23,19.23,0,0,1-3.66-2.4,7.32,7.32,0,0,0-.08.74c0,.21,0,.63,0,1.17.06,1.52.16,3.81.07,5.58-.1,2.13-1.94,3.79-3.55,5.26a12.16,12.16,0,0,0-1.67,1.69,7.39,7.39,0,0,1-4.86,3.29c-2.55.75-6.08-1.31-8.6-3.16-1.4-1-3.54-.47-3.88-.38-5.25,2.26-9.23.57-11.2-1.78-1.49-1.88-4.93-1.7-6.09-1.52a29.86,29.86,0,0,1-5.49,3.75l-.86.48-.66-.3A11.93,11.93,0,0,0,91,267.71c-3.17,1.15-7.37,1.07-10.38.8a3.37,3.37,0,0,0-1.43,2.17c-.51,2.39-6.14,7.8-7.86,9.19l-.28.18a17.64,17.64,0,0,0-3.81,3.26,18.77,18.77,0,0,1-4.32,3.63c-2.26,1.13-5.7.76-9,.4-.94-.1-1.85-.2-2.68-.25-5.25,0-9.6,4.31-10.23,5.4,0,.06-3.45,5.83-6.56,6.87C32.29,300.07,26.73,300.22,22.44,300.22Zm-3.05-3.62a1.88,1.88,0,0,0,.26.6,11.17,11.17,0,0,0,2.79.19c5.52,0,9.77-.28,11.1-.72s3.89-3.66,5-5.59c1-1.75,6.09-6.83,12.78-6.83,1,.06,1.91.16,2.89.27,2.65.29,5.94.64,7.46-.12a17.72,17.72,0,0,0,3.57-3.09,20.05,20.05,0,0,1,4.44-3.75c2.54-2.09,6.46-6.43,6.75-7.49.42-2,2.22-4.6,4.46-4.39,3.93.36,7.24.11,9.33-.7l.21-.08h.22a12.92,12.92,0,0,1,5.67,1.19,26.48,26.48,0,0,0,4.93-3.45l.26-.22.33-.08c.06,0,6.27-1.36,9.27,2.42,1.69,2,4.67,2.37,7.95.94l.12,0c.15-.05,3.78-1.23,6.5.77,3,2.22,5.29,3,6.12,2.73,1.83-.54,2.45-.87,3.3-2.15a13.28,13.28,0,0,1,2.12-2.22c1.15-1,2.58-2.34,2.63-3.29.08-1.65,0-4-.07-5.33,0-.6,0-1.06,0-1.29a11.53,11.53,0,0,1,.14-1.44A11.66,11.66,0,0,0,140,252l-.36-.91.86-.71c.94-.71,1.59-.23,3.51,1.23a25.21,25.21,0,0,0,3.29,2.26,6,6,0,0,1,2.43,1.89,5.88,5.88,0,0,0,1.13,1.08,7.59,7.59,0,0,1,.85.69c.84.76,1.71,1.54,6,.9l.17,0c1.16,0,2.12,0,2.93,0a13.38,13.38,0,0,0,2.85-.16,2.26,2.26,0,0,1,2-.76,3.1,3.1,0,0,1,2.11,1.66,12.73,12.73,0,0,0,6.72.56c.78-.13,1.57-.19,2.4-.25,2.9-.21,5.9-.42,9.28-3.88l.35-.36.49-.06c.89-.12,4.89.12,6.19,1.24a30.48,30.48,0,0,0,8.19,1.81,31.5,31.5,0,0,0,6.26-.65l.73-.13c.19-.06,1-.51,1.46-.77a6.3,6.3,0,0,1,2.74-1.14,5.61,5.61,0,0,1,1.66.33,17.25,17.25,0,0,0,1.76.46c1.2.24,8-1.18,9-1.77.7-.63,3.19-5.86,3.68-8.1s4.57-9.74,6.62-11.14c1.23-.84,5-3.4,10.16.08l.19.15a88.43,88.43,0,0,1,6.55,7.77,5.85,5.85,0,0,1,.39.66h.31a4.57,4.57,0,0,0,1.83-.67,6.43,6.43,0,0,1,1.94-.76,8.39,8.39,0,0,1,3.32.54,10.39,10.39,0,0,0,1.5.38l.37,0c.31,0,.78.09.91,0s.36-.34.42-1.72c.25-2.69,2.31-9,4.22-14.64.42-1.24.85-2.53.91-2.77a10.35,10.35,0,0,1,.42-1.22c.61-1.61,1.74-4.61,1.13-7.34a12.34,12.34,0,0,0-1.1-2.34,9.08,9.08,0,0,1-1.48-6.1l.05-.25a4.54,4.54,0,0,1,2.44-2.35,6,6,0,0,1,4.9-.16l.15.05a6.71,6.71,0,0,0,1,.32,8.49,8.49,0,0,0,1.37-2.73c1-2.75,2.24-5.39,3.21-7.51.46-1,.86-1.88,1.14-2.54a45.52,45.52,0,0,1,4.91-8.37c.05-.06,5.51-6,8.67-6h.11c.4,0,.88.09,1.44.17,1.4.2,4,.57,5-.25.11-.09.44-.38.44-1.3a88.43,88.43,0,0,1,1-10.29c.51-2.68,2.33-4.74,5.39-6.12.55-.25,1.16-.55,1.79-.87,2.59-1.3,5.53-2.78,8.1-2.38.41.06.78.14,1.12.21,1.63.33,2.24.45,5-2.36l.18-.18.23-.11a12.06,12.06,0,0,1,10,.56c.58.28,2.57,1.24,3.33.94.06,0,.23-.09.4-.48a4.08,4.08,0,0,1,2-2.5c.46-1.49.91-5.25-.14-7.17-1.53-2.79-3.47-4.91-5.19-5.67a13.91,13.91,0,0,0-3-.72c-2-.34-4.1-.69-5.56-2-2.14-1.86-2.15-3.36-2.17-5.62,0-.31,0-.64,0-1-.54-1.19-2-2.88-7.08-4.49l-.37-.12-.68-.75a6.62,6.62,0,0,1-2.22-4.78l-.3-.39a2.69,2.69,0,0,1-.81-2.15,3.28,3.28,0,0,1,1.54-2.05,3,3,0,0,0-1.27-3.69l-.23-.21c-3-3.26-3.7-6.49-2.11-9.08.26-.42.51-.81.74-1.17s.39-.6.56-.89c-.89.18-2.13.55-3,.82a12.23,12.23,0,0,1-2.83.67c-.86,0-6.67-.16-6.92-.17h-.13a7.21,7.21,0,0,0-1.48,0,3,3,0,0,1-2.76,1.17c-1.11-.2-2-1.13-2.53-2.76l-.07-.31c0-.31,0-.89,0-2.07a40.48,40.48,0,0,0-.15-5.8,23.15,23.15,0,0,0-2.4-3.8,2.41,2.41,0,0,1-.88-2.5,3.24,3.24,0,0,1,2.5-2.72c.65-.13,1.41-.23,2.14-.33a17,17,0,0,0,1.91-.32l.18-.08a3.54,3.54,0,0,0,.1-1.54,17.89,17.89,0,0,0-.31-2.51l-1.09-.24,0-1.12a15.59,15.59,0,0,0-6.44-12.67,32.37,32.37,0,0,0-5.65-3c-1.42-.63-2.89-1.28-4.27-2.06-.44-.22-2.7-.8-4.51-1.25-6.79-1.72-8.71-2.34-9.32-3.48a1.61,1.61,0,0,1-.11-1.3c0,.05-.06,0-.09,0-4.86-1.25-7.82-1.22-8.78.09-.43.58-.26,2.08-.14,3.07,0,.3.07.59.09.85l.77,9.9L254.3,67c-1-.21-1.79-.35-2.26-.41h-.16a16.67,16.67,0,0,0-1.72,0l-.28.05-.16,0-.46.06c-.78.1-1.73.21-2.68.36a29.52,29.52,0,0,0-3.68.95l-.06,0-.24.17a21,21,0,0,1-9.43,1.78h-.11a13.56,13.56,0,0,1-2.71-.39,5.5,5.5,0,0,0-2.54.51l-.34.23-.09.06a4.93,4.93,0,0,0-1.14,1.39c-.31.53-.67,1.08-1.07,1.66-.27.4-.54.82-.82,1.26a36,36,0,0,0-2.5,6.32v0c0,.25-.07.58-.11.91s0,.54-.05.83c-.05.89-.09,1.68-.11,2.38a12.1,12.1,0,0,0,1.27,5.93l.34.54a20.86,20.86,0,0,1,1.89,3.44l.08.21a2.27,2.27,0,0,1,.54,1.16,1.71,1.71,0,0,1-.63,1.72,3.09,3.09,0,0,1-2,.74l-.43,0c-.23,0-.44,0-.65.05l-.84.06h-.1a5,5,0,0,1-1.64.31,9.66,9.66,0,0,1-3.36-.36,4.43,4.43,0,0,1-.66-.21,5.58,5.58,0,0,1-1.78-1c-.28-.18-.5-.34-.65-.45l-.52-.17a27.07,27.07,0,0,0-3.07,2.34c-3.14,2.62-7,5.87-11.5,2.66-.54-.39-1-.78-1.38-1.12a5.81,5.81,0,0,0-2.15-1.4c-2.08.91-5.37.86-8.33.73l-.79,0A2.41,2.41,0,0,1,182.92,98a2.33,2.33,0,0,1,2.42-2.31h.11c1.57,0,2.76,0,3.66,0l-.11-.29-.88-1.62c-4.14-2.47-9.66-2.81-15-3.14-2.31-.14-4.49-.28-6.55-.57-4.43-.64-10.27-2.1-12.29-7.28,0,.32.09.7.15,1.16l0,.3A2.17,2.17,0,0,1,154,86a2.59,2.59,0,0,1-1.84.91c-8.86.38-15.6-4.22-22.11-8.67-1.18-.8-2.36-1.61-3.56-2.4l-.91-.57a16.13,16.13,0,0,1-2.59-1.82,7.31,7.31,0,0,1-1.28-1.93,10.58,10.58,0,0,0-.62-1.08h0A9.8,9.8,0,0,0,121,71.6a5.15,5.15,0,0,1-.16,1.63,6.1,6.1,0,0,1-1.36,2,6.15,6.15,0,0,0-.55.66,2.46,2.46,0,0,1-2.15,1.2,2.37,2.37,0,0,1-2.06-1.24,35.76,35.76,0,0,1-3-9.23c-.15-.68-.31-1.36-.47-2.05-1-4.28-3.17-6-7.85-6.35A28.77,28.77,0,0,0,95,70.12l-.1.19c-.13.22-.34.55-.61,1-1.59,2.49-5.82,9.09-6.1,13.56,0,.4,0,1,0,1.73-.13,4.71-.36,13.46-1.49,16.87l-.09.21a9.55,9.55,0,0,1-3.79,4.12l-.21.09s-2.54.83-3.34,2.73a4.32,4.32,0,0,0,.44,3.65l.08.19c.18.55.41,1.13.63,1.73,1.05,2.76,2.36,6.21,1.31,10l-.05.19-.1.17c-.58.95-5.69,9.29-7.14,10.2-1.13.71-7.19,5.33-8.09,7.13-1.33,2.4-5.21,6.32-6.9,7.79-.24.21-.49.41-.75.61-1.51,1.17-3.07,2.38-2.62,9.79,0,1.55,0,4.26-1.61,5.64a3.4,3.4,0,0,1-2.86.72c-2.18-.24-10.33.72-11.41,1.7l-.23.27-.31.11c-1.33.51-13,6.75-17.56,10.49A17.63,17.63,0,0,1,19.2,183c-3.05,1.94-6.51,4.14-6,9.35.78,2.23.71,9.3-1.05,15.24A27.22,27.22,0,0,1,11,210.23c-1.56,3.41-3.5,7.64-1.33,11.91a44.33,44.33,0,0,0,5.79,4.4c3.34,2.31,4.74,3.33,5.23,4.17.84,1.44,3.75,9.88,3,16.28-.68,4-3.33,6.65-5.46,8.82l-.92.95a17.87,17.87,0,0,0-4.82,11.4c-.11,3.32.9,12.44,1.24,15.44v.26a36.46,36.46,0,0,1-2.31,6.89,20.65,20.65,0,0,0,3,.54c3.79.42,4.43,3.12,4.85,4.91ZM8.89,290.06h0Zm289-187.84Zm-2-1.59Zm-101.82-.88h0Zm96.05-11.11,0,0Z"/></svg>