<svg id="Layer_1" data-name="Layer 1" xmlns="http://www.w3.org/2000/svg" viewBox="0 0 350 350"><defs><style>.cls-1{fill:#999;}.cls-2{fill:#f90;}</style></defs><title>M</title><path class="cls-1" d="M13.11,106.35,37.49,87.56H49.17L98.94,73.84l35-7.11,3-5.59L142.62,52l8.13-7.62,10.16-3,5.59-3.81,2.29-4.06,2.29-3,4.57-2.79h9.9l1.78,1.78,6.09,7.36,7.87.76,7.36.25,4.83,2.54,6.09,3.3,4.06,3.56,10.92,3.56,37.58,8.89L299.56,70l18.54,6.35,7.11,3.3,4.57,1,14,12.1s-24.13,49.1-74.15,85.92c0,0,.93-13.63-29.12-37.16l-20.32,14.22-7.11,46L199.17,211l-6.05,9.88-19,36.17-41-7.79,13.21,57.9-7.79,15.24-41.9-61.62L53.74,288.94,6.25,221.64l42.41-29.46-16.25-22.6,18.28-14Z"/><path class="cls-2" d="M138.73,325.15,96.27,262.7l-42.9,28.18L4.27,221.29l42.4-29.45L30.45,169.29l18.25-13.94L11.12,106.09,37,86.14H49L98.57,72.48l34.49-7,2.73-5,5.72-9.37,8.51-8L160.29,40l5.13-3.5,2.22-3.93,2.45-3.26,5.14-3.14h10.89l2.28,2.29,5.72,6.91,7.29.71,7.6.26,5.11,2.69,6.37,3.49,3.84,3.36,10.59,3.45,37.7,8.93,27.43,10.41L318.7,75.1l7,3.24,4.77,1.06L345.5,92.45l-.48,1c-.24.49-24.85,49.83-74.58,86.44L268,181.68l.21-3.05c0-.11.25-13.12-27.75-35.3l-19,13.27-7.11,46.07L200.21,212l-5.89,9.61-19.45,37L135,251l12.84,56.29ZM97,258.8l41.34,60.8L144.85,307l-13.57-59.51,42.07,8,18.52-35.24L198.12,210l13.62-9,7.11-46,21.67-15.17.83.65c23,18,28.21,30.5,29.35,35.69,44.08-33.18,67.64-76,71.28-83L329.13,82l-4.51-1-7-3.27L299.1,71.38,271.72,61l-37.61-8.9-11.2-3.65-4.16-3.64-6-3.23-4.52-2.38-7-.24-8.54-.82-6.43-7.76L185,29H176l-4,2.44L170,34.24l-2.4,4.27-6,4.12-10,3-7.74,7.26-5.49,9L134.92,68,99.22,75.23,49.36,89H38L15.09,106.61l37.59,49.27-18.32,14,16.29,22.65L8.23,222l45.87,65Z"/></svg>