<svg id="Layer_1" data-name="Layer 1" xmlns="http://www.w3.org/2000/svg" viewBox="0 0 350 350"><defs><style>.cls-1{fill:#999;}.cls-2{fill:#f90;}</style></defs><title>M</title><path class="cls-1" d="M283.33,262.61l-.5.1-1,.2-.29,0a3.55,3.55,0,0,1-2.93-1.56c-1.87-2.62-1.3-7.82-.77-9.35.16-.46.52-2.08.5-7.2v-.21a2.42,2.42,0,0,1,.91-1.83l.06,0,0-.09,0-.18a8.56,8.56,0,0,1-2-2,23.84,23.84,0,0,1-2.41-3.87l-.61.09c-2.35.35-3-.34-4.22-2.54-1.53-2.66-.55-4.43.48-5.84a3.56,3.56,0,0,1-1.44.46,3.26,3.26,0,0,1-2.91-1.21c-.06-.1-.24-.41-.49-.87a51.33,51.33,0,0,0-3.75-6c-.74-.94-.79-.94-2.1-.89a18,18,0,0,1-3.5-.16c-1.25-.09-2.88-.38-3.52-1.7s.2-2.62.88-3.64a11.23,11.23,0,0,0,.62-1c1-1.84,2.47-7,2-9l-.06-.24a55.85,55.85,0,0,0-2.7-8.1c-2-5.68,1.5-9.7,3.36-11.86a10.29,10.29,0,0,0,.91-1.15c.82-2,2.62-3.51,5.89-6.19,1.71-1.4,1.76-1.6,1.89-2.1a9.3,9.3,0,0,1,.85-2.19,54,54,0,0,0,3.27-9.73,4.62,4.62,0,0,0-.79-4.17,11.19,11.19,0,0,1-1.38-3.28c-.13-.44-.27-.95-.48-1.57a9,9,0,0,1-.45-3,3.56,3.56,0,0,0-.27-1.66c-.27-.58-.62-.76-1.65-1.14a12.3,12.3,0,0,1-1.45-.62,6.8,6.8,0,0,1-2.14-1.95c-.12-.15-.27-.34-.39-.47-2.87.11-5.34-3.08-5.68-4l-.15-.39.07-.41a2.63,2.63,0,0,0-.72-2.25c-1.56-.68-4.78-4.91-4.6-7.63l0-.29.12-.27A58.68,58.68,0,0,0,253.63,116a30.11,30.11,0,0,1,2.08-6.91c.77-2,1.73-4.49,1.55-5.37-.72-3,1.11-6,2.44-8.24a15.74,15.74,0,0,0,.92-1.65l.14-.34.28-.24c2.11-1.83,1.54-4.35.58-7.46-1.37-4,1.21-5.22,2.51-5.8a8.6,8.6,0,0,1,.19-3.83,7.48,7.48,0,0,0,.19-1.1,55.89,55.89,0,0,0-3.57-7,34.3,34.3,0,0,1-8.61-8,7.75,7.75,0,0,1-.61-1.63,6.6,6.6,0,0,0-.86-2.07A21.47,21.47,0,0,1,248.28,54c-.17-.18-.29-.33-.41-.47-.37-.44-.54-.63-2.54-1.52l-1-.44.07-1.09a22.88,22.88,0,0,0-1.3-4.94c-2-3.45-2.91-6-2.68-7.5.26-2.58-.41-3.25-1.19-4a6.52,6.52,0,0,1-1-1.2l-.28-.46.06-.54c.12-1.07.24-1.82.34-2.4.2-1.17.2-1.17-.29-2a15.1,15.1,0,0,1-1.15-2.69,5.82,5.82,0,0,0-.56-1.34A5.73,5.73,0,0,0,233.12,21l-.28-.12c-2.8-1.51-3.34-4.51-1.63-8.92-.28-.26-1.09-.45-3.39-.45h-.32a3.73,3.73,0,0,1-3.66-2.4,5.72,5.72,0,0,1-3-.82l-.6-.29a5.32,5.32,0,0,1-3.72,1.23,6.08,6.08,0,0,1-.55.41l-.1.07c-.49,3.43-6.45,11.44-7.41,12.45-1.25,1.31-4.22,4.88-4.56,5.41l0,0a9.48,9.48,0,0,0-1.14,2.77c0,1.46-1.18,2.32-2.12,3a9.51,9.51,0,0,0-.86.68,3.12,3.12,0,0,0-.27.29c-1.09,1.26-2,1.48-6.1,1.31-3.22-.13-4.83-.59-5.31-2.82a1.53,1.53,0,0,0-.19-.57c-.33-.5-.33-.5-1.35-.66-.52-.08-1.19-.18-2.06-.37-2.27-.49-2.7-.17-3,0-.08.08-.19.25-.34.45a10.93,10.93,0,0,1-2.92,2.91c-1.17.75-1.32,1.27-1.65,3.86a16,16,0,0,0,.35,3.94,11,11,0,0,1,.19,4.64,12.35,12.35,0,0,1-.86,2.06A17.74,17.74,0,0,0,175,52.18c-1.2,3.86-4.53,4.79-7.75,5.69l-.37.06c-1.94.07-4.13,3.33-5.58,5.5-.43.64-.82,1.23-1.2,1.73a5.21,5.21,0,0,1,0,1.59,5.63,5.63,0,0,0-.06,1.64,5.67,5.67,0,0,1-.88,3.67,8.82,8.82,0,0,0-.85,2c-.48,1.92-2.08,3.6-3.77,5.39-.78.83-1.59,1.68-2.3,2.56a17.2,17.2,0,0,1-5.16,7.35l-.51.48a3.74,3.74,0,0,1-1.45,3.69,12.16,12.16,0,0,1-1.09.58,7,7,0,0,0-1,.54,1,1,0,0,1-.11.25,7,7,0,0,1-3,3.22c-1.27.66-3,1.57-4.88,1.13a2.76,2.76,0,0,1-.56.45,5,5,0,0,1-4.11.07,4.75,4.75,0,0,1-3,1.17,12.51,12.51,0,0,0-2,.32l-.56.14-.51-.26c-2.94-1.47-4.36-.28-5.62.77l-.36.29a4.82,4.82,0,0,0-1.11,3.3c0,2.3-2.16,3.46-4.89,4.92l-1.81,1a39.21,39.21,0,0,0-6.15,3.62c-.35.31-.31.93-.13,2.27a11.34,11.34,0,0,1,.12,3.11,6,6,0,0,0,.81,4.35,4.56,4.56,0,0,1,.34,3.5l-.07.3a4.5,4.5,0,0,1,1.09.86c.12.12.23.22.34.32a2.56,2.56,0,0,1,2.81,1.2,6.47,6.47,0,0,1,1,.07c.3,0,.68.09,1.21.13,1.55,0,2.87.16,3.29,1.64,1.42-.23,2.87.65,4,1.31a8,8,0,0,0,1.08.59l.53.17.3.47.09.14.12,0a15.83,15.83,0,0,1,2.49,1,16,16,0,0,1,7.64,2.52,12.9,12.9,0,0,0,1.86,1,7.42,7.42,0,0,1,3.68,3.2c.09.13.16.25.23.35h0a7.16,7.16,0,0,1,2.07,1.39c.42.42,1.18,1.46,3.85,6.09A11.89,11.89,0,0,0,146,154a16.89,16.89,0,0,1,2.16,1.94c.6.67,4,1.32,5.26,1.28a3.66,3.66,0,0,1,2.32-.61,4.83,4.83,0,0,0,1-.09,3.24,3.24,0,0,0,1.2-1.72,2.57,2.57,0,0,1,.89-2.06c1-.86,2.54-.73,4-.47,1.2.21,2.83.5,2.67,2.61a3.11,3.11,0,0,0,.08,1.11l.09.37-.09.37a2.53,2.53,0,0,1-1.86,2.1,2.29,2.29,0,0,1-1.09,0l-.08.19a5.53,5.53,0,0,1-2.87,2.75l-.72.41,0,0c.06.21.16.51.25.78.14.44.32,1,.5,1.61.57,2,1.09,2.2,2.46,2.8l.46.2c.49.21,1.62.72,1.8,1.87a2.27,2.27,0,0,1-1,2.07,2.68,2.68,0,0,0-.37.37l-.25.32c1,.06,2.3.08,3.36.09s1.91,0,2.87.06c7.17.25,8.8.47,9.45.64a2,2,0,0,1,1.41,1.17,2.31,2.31,0,0,1-.39,2.12,5.32,5.32,0,0,0-.53,1.08c-.74,2.21-7.85,8.59-10.19,10a10.15,10.15,0,0,0-3.84,5l-.14.36-.29.26a6.24,6.24,0,0,1-5,1.75,4,4,0,0,1-1.54-.6l-.3.13a5,5,0,0,1-2.57.28,1.92,1.92,0,0,1-1,0,2.6,2.6,0,0,1-1.73-1.74,23.33,23.33,0,0,0-7,.87c-.78.22-1.34.92-2.19,2a16.2,16.2,0,0,1-1.89,2.19l-.36.33-.14,0a4.19,4.19,0,0,1,.49,1.12,3,3,0,0,1-1.13,3.5,11.16,11.16,0,0,0-.81.78,6.67,6.67,0,0,0-.59.91l.55.37.54.35.93.62-.28,1.08a35.27,35.27,0,0,0-.61,6.41c0,.31,0,.66,0,1.05a23.22,23.22,0,0,0,.52,5.15c.63,2.71-.43,3.61-1.78,4.43a7,7,0,0,0-1.62,1.26c-1,1.07-.86,2-.48,3.75.06.3.13.61.19.92a4.59,4.59,0,0,1,1.94,2.57c-2.31,1.29-5,2-6.63,4.24-1,1.4-1.11,3-1.57,4.59-.81,2.86-2.88,5-4.9,7a1.56,1.56,0,0,0-.31,1.86,10.8,10.8,0,0,1-1.57.46,1.45,1.45,0,0,0-1.15,1.87,1.79,1.79,0,0,0-.07.25,24.75,24.75,0,0,1-6.82,13.61l-.07,0c-3.07,2.18-7.29-1.13-10.54,1.32a4.6,4.6,0,0,0-1.81,3.5c-.14,1.28.22,2.33-.44,3.54a3.69,3.69,0,0,1-4.54,1.79,1.49,1.49,0,0,0-1.47.31A1.72,1.72,0,0,0,95.15,278c-1.16,3.08-3.41,5.14-6.11,4,.93-5.53-7.44-5.22-11.06-5.3-3.89-.09-11.49-.43-11.36,5.35a1.51,1.51,0,0,0,.08.38c-.27,2.73,2.71,5.63,3.38,8,1.46,5.15,1.88,10.89,2.66,16.18.88,6,1.49,11.47-1.32,17-4,8,6.63,8.39,12.35,10a1.68,1.68,0,0,0,1.89-.77c3.36-7.58,7.06-14.11,14.52-18.32,2.86-1.61,19.41-9.7,22.07-5.83l.05.06c0,.26,0,.57-.09.95a5.2,5.2,0,0,1-.37,1.52l.1.09c.21.18.43.42.67.67a5.32,5.32,0,0,0,.65.63l.54.14a14.72,14.72,0,0,1,2.26.73,3.67,3.67,0,0,1,1.89,2.07,8.38,8.38,0,0,0,1.81.41l0-.06a4,4,0,0,1,.4-1c.88-1.47,4.87-2.4,5.73-2.4.58,0,1.37,0,11.87,7.77l.35.26.17.4c.29.7.71,1.61.87,1.87.38.6,1,2.19-1.6,3.85l-.28.18c0,.12,0,.3,0,.44a6.23,6.23,0,0,1-.49,2.4c-.09.19-.15.35-.2.5a5.53,5.53,0,0,1-1.9,2.58,3.69,3.69,0,0,0-.58.57,3.19,3.19,0,0,1-.28.85c0,.14.14.35.21.51a10.31,10.31,0,0,1,.63,1.74c.3,1.22,2.12,1.68,3.18,1.84l.48.07c1.46.22,2,.35,2.71,1.45a11.85,11.85,0,0,0,.95,1.22c1.16,1.32,5.25.83,6.06.45l.3-.17a3.67,3.67,0,0,0,.49-.29,1.21,1.21,0,0,0,.08-.24,8.31,8.31,0,0,1,.85-2c.24-.45.51-1,.8-1.65.62-1.47,1.13-2,2.29-2.35a3.15,3.15,0,0,0,.55-.21,8.48,8.48,0,0,1,3.89-.37,23.38,23.38,0,0,0,4.19-.1c1.2-.17,1.91-.22,2.47-.26a21,21,0,0,0,4.25-.76,10.39,10.39,0,0,0,2.47-.78l0,0a3.76,3.76,0,0,1,.69-1.17,5.64,5.64,0,0,1,2.13-1.53c1.16-7,5.56-14.72,8.55-20.2,2-3.75,3.85-6,8-7.45,2.44-.85,3.55-1.1,5.57-2.95,2.35-2.15,2.19-3.34,2.53-6.29a17.17,17.17,0,0,1,1.39-5.94.94.94,0,0,1,1.27-.46,110.25,110.25,0,0,1-9.11-11.48,1.13,1.13,0,0,1,.67-1.64A65.75,65.75,0,0,1,222,268.55c7-.45,14,.35,21.06.48,2.86.05,5.61.1,8.28.22,3.3-2,6.93-3.89,10.9-3.66s6.82,2.46,9.39,5.09A2.73,2.73,0,0,1,272,270c1-1.38,2.8-1.38,3.88-1.38l.41,0,.16-.35.18-.38a3.46,3.46,0,0,1,1.66-1.76,1.29,1.29,0,0,0,.5-.39,5.77,5.77,0,0,1,4.59-2.15A6.75,6.75,0,0,0,283.33,262.61Z"/><path class="cls-2" d="M155,343.42c-1.57,0-3.24-.31-4.15-1.35a13.39,13.39,0,0,1-1.05-1.35c-.43-.63-.45-.65-1.76-.85l-.48-.08c-2.46-.39-4-1.39-4.33-2.9a8.82,8.82,0,0,0-.55-1.5c-.09-.21-.2-.46-.26-.63l-.19-.55.26-.53a1.78,1.78,0,0,0,.16-.48l.06-.32.19-.26a4.91,4.91,0,0,1,.81-.81,4.14,4.14,0,0,0,1.5-2c.08-.2.15-.39.25-.6a5,5,0,0,0,.36-1.87c0-.17,0-.37,0-.51l.07-.7.86-.52c.76-.49,1.58-1.22,1.16-1.91-.32-.51-1-2.06-1-2.07l-.05-.07c-8.51-6.3-10.54-7.4-11-7.49-1,0-4.11,1-4.54,1.71a2.75,2.75,0,0,0-.25.67l-.32,1.11-1.17,0a9.83,9.83,0,0,1-2.15-.48l-.63-.21-.25-.61a2.24,2.24,0,0,0-1.15-1.3,13.59,13.59,0,0,0-2-.65l-.74-.18-.18-.11a4.74,4.74,0,0,1-1-.88c-.19-.21-.38-.41-.56-.57l.84-1.15-.92,1.07-.79-.68.4-1a3.86,3.86,0,0,0,.26-1.1l0-.31c-2.12-1.36-13.58,2.9-20,6.51-6.76,3.82-10.34,9.59-13.92,17.66a3.11,3.11,0,0,1-3.57,1.55c-1-.28-2.11-.52-3.32-.78-4.16-.89-8.88-1.9-10.44-5.16-.82-1.7-.63-3.75.54-6.08C72.71,318,72.23,313,71.33,306.9c-.21-1.46-.4-2.95-.59-4.45a79.35,79.35,0,0,0-2-11.55,12.37,12.37,0,0,0-1.34-2.59c-1-1.7-2.19-3.61-2.11-5.65a2.46,2.46,0,0,1-.07-.48,5.74,5.74,0,0,1,1.63-4.37c2.63-2.63,7.58-2.51,10.85-2.44l1.14,0c3.33,0,8.37.11,10.62,2.81A4.66,4.66,0,0,1,90.51,281a2,2,0,0,0,.79-.18,5.59,5.59,0,0,0,2.51-3.25,3.11,3.11,0,0,1,2.65-2,2.94,2.94,0,0,1,2.33-.26,2.32,2.32,0,0,0,2.9-1.11,3,3,0,0,0,.24-1.63,10.31,10.31,0,0,1,0-1.39,6,6,0,0,1,2.37-4.48c2.13-1.61,4.47-1.29,6.53-1,1.61.22,3,.41,4-.33a23.34,23.34,0,0,0,6.31-12.72l0-.09a2.94,2.94,0,0,1,.42-1.94,2.89,2.89,0,0,1,1.88-1.26l.26-.06a3,3,0,0,1,.89-1.86c2-2,3.84-3.92,4.55-6.44.12-.41.21-.82.29-1.22A9.4,9.4,0,0,1,131,235.9a12.6,12.6,0,0,1,5.26-3.73l.63-.3a4.61,4.61,0,0,0-.87-.79l-.47-.33-.1-.57c0-.26-.1-.52-.16-.77l0-.11c-.36-1.65-.73-3.36.83-5a8.36,8.36,0,0,1,1.91-1.49c1-.6,1.58-1,1.14-2.9a24.38,24.38,0,0,1-.56-5.45c0-.38,0-.72,0-1a36,36,0,0,1,.65-6.83l0-.1-.09-.06-.44-.29-.09-.06-.61-.4-1-.7.55-1.09a8,8,0,0,1,.71-1.11l.1-.12a12.08,12.08,0,0,1,.91-.87c.75-.67,1-1,.71-2.08a2.81,2.81,0,0,0-.33-.74l-1.1-1.81,1.85-.31a15.08,15.08,0,0,0,1.72-2,6,6,0,0,1,2.93-2.54,24.71,24.71,0,0,1,7.52-.92l.82.09.33.75c.3.7.51.87.73.92a.49.49,0,0,0,.27,0l.33-.1.33.06a3.63,3.63,0,0,0,1.81-.2l.21-.09.72-.34.66.44a2.62,2.62,0,0,0,1,.39,4.85,4.85,0,0,0,3.86-1.42l0-.06a11.58,11.58,0,0,1,4.45-5.75c2.5-1.46,9-7.56,9.56-9.18a6.6,6.6,0,0,1,.66-1.36c.27-.45.37-.67.29-.87s-.08-.21-.48-.33a77.51,77.51,0,0,0-9.11-.59c-.89,0-1.79,0-2.67-.05h-.17c-1.05,0-2.37,0-3.43-.09l-2.82-.18,1.83-2.16L162,171a3.74,3.74,0,0,1,.59-.61c.43-.38.55-.56.52-.79-.06-.39-.68-.66-1-.79l-.46-.2c-1.64-.71-2.53-1.19-3.26-3.7-.17-.6-.33-1.09-.47-1.5l0-.14c-.09-.26-.17-.54-.23-.74l-.28-1,1-.68.69-.39a4.28,4.28,0,0,0,2.27-2.08l.53-1.27,1.21.26a.86.86,0,0,0,.42,0c.47-.11.69-.63.79-1.05v-.07a4.5,4.5,0,0,1-.12-1.55c0-.64.06-.84-1.51-1.12-1.1-.19-2.29-.33-2.87.16a1.19,1.19,0,0,0-.38,1,4.4,4.4,0,0,1-1.74,2.83l-.16.13-.19.08a4.54,4.54,0,0,1-1.53.19,2.84,2.84,0,0,0-1.42.26l-.38.33-.51,0c-1.11,0-5.25-.53-6.35-1.75a15.8,15.8,0,0,0-2-1.79,12.88,12.88,0,0,1-3.24-3.31,45.59,45.59,0,0,0-3.63-5.8,5.77,5.77,0,0,0-1.7-1.12l-.36-.23-.15-.2c-.07-.09-.14-.2-.21-.32l-.07-.11a6,6,0,0,0-3-2.65,14,14,0,0,1-2.07-1.06,14.61,14.61,0,0,0-7-2.33l-.27,0-.25-.12a14.34,14.34,0,0,0-2.29-.95l-.5-.14-.56-.68a7.28,7.28,0,0,1-1.37-.72c-.91-.55-2.13-1.28-3-1.14l-1.24.2-.35-1.21c-.09-.33-.18-.61-1.93-.61h-.1c-.56,0-1-.1-1.29-.14a4.38,4.38,0,0,0-.79-.06l-.76,0-.43-.62c-.49-.7-.94-.72-1.34-.63l-.69.15-.54-.46c-.15-.12-.28-.25-.43-.4a3.22,3.22,0,0,0-.75-.61l-.94-.5.29-1.36a3.18,3.18,0,0,0-.2-2.52,7.39,7.39,0,0,1-1-5.21,10.06,10.06,0,0,0-.12-2.73c-.2-1.44-.37-2.68.59-3.53a38.74,38.74,0,0,1,6.42-3.81l.33-.17,1.47-.77c2.64-1.41,4.14-2.28,4.14-3.67s.51-3.5,1.65-4.4l.35-.28c1.34-1.12,3.39-2.83,7.15-.94l0,0h.05a14,14,0,0,1,2.16-.35,3.41,3.41,0,0,0,2.29-.86l.6-.49.74.24a3.7,3.7,0,0,0,2.93.07,1.34,1.34,0,0,0,.28-.22l.56-.59.79.19c1.33.31,2.76-.42,3.9-1a4.91,4.91,0,0,0,1.82-1.65l-.51-.28,1.49-1.34a5.8,5.8,0,0,1,1.26-.74c.39-.19.73-.36,1-.53a2.34,2.34,0,0,0,.81-2.24l-.13-.75.55-.53.53-.5a15.77,15.77,0,0,0,4.78-6.74l.08-.25.16-.21c.75-.94,1.58-1.81,2.38-2.66,1.56-1.65,3-3.2,3.42-4.76a10.1,10.1,0,0,1,1-2.36,4.33,4.33,0,0,0,.74-2.81,7,7,0,0,1,.06-2,4.07,4.07,0,0,0,.05-1.17l-.1-.59.36-.48c.35-.46.71-1,1.1-1.59,1.74-2.59,4-6,6.67-6.2l.21,0c3.08-.86,5.74-1.63,6.7-4.73A19.19,19.19,0,0,1,175,48.49a11.06,11.06,0,0,0,.77-1.84,10.4,10.4,0,0,0-.23-4,16.77,16.77,0,0,1-.35-4.36c.34-2.63.54-3.75,2.29-4.87A9.5,9.5,0,0,0,180,30.88l.1-.14a4.8,4.8,0,0,1,.35-.44l.18-.16c.75-.56,1.7-.8,4.11-.28.84.18,1.47.28,2,.35,1.23.19,1.68.3,2.32,1.29a2.81,2.81,0,0,1,.39,1c.21,1,.5,1.56,4,1.7,4.12.17,4.39-.14,5-.82a4.44,4.44,0,0,1,.38-.4,10.67,10.67,0,0,1,1-.77c.95-.69,1.56-1.19,1.56-1.88,0-.32.06-1,1.27-3.36l.12-.23c.43-.66,3.47-4.29,4.73-5.61,1-1.06,6.61-8.78,7-11.67l.09-.65.56-.35a5,5,0,0,0,.48-.35l.43-.37.56,0a3.85,3.85,0,0,0,2.75-.9l.69-.57.81.37.53.25.11.05a4.59,4.59,0,0,0,2.27.68l1-.07.42.88a2.34,2.34,0,0,0,2.38,1.58h.32c2.59,0,3.69.21,4.36.83l.71.65-.35.9c-2.07,5.34.1,6.68.92,7.13l.16.07a7.1,7.1,0,0,1,3.91,2.93,7,7,0,0,1,.72,1.65,13.66,13.66,0,0,0,1,2.46,3.41,3.41,0,0,1,.44,3c-.09.5-.21,1.25-.33,2.31v0l0,0a5.28,5.28,0,0,0,.81.94c1.09,1.09,1.91,2.16,1.6,5.17-.09.61,0,2.34,2.5,6.65a22.12,22.12,0,0,1,1.49,5.67v.18l.1,0c2,.9,2.45,1.19,3.05,1.9l.37.42a20,20,0,0,0,2.44,2.24c.55.44.88,1.28,1.32,2.76a7,7,0,0,0,.48,1.32,33.41,33.41,0,0,0,8.13,7.47L262,67l.17.28a57,57,0,0,1,3.69,7.21l.11.27v.29a8.12,8.12,0,0,1-.22,1.34,7.34,7.34,0,0,0-.2,3.24l.25,1.14-1.07.47c-1.53.67-2.63,1.4-1.74,4s2,6.4-1,9l0,.06a16.19,16.19,0,0,1-1,1.84c-1.21,2-2.86,4.76-2.28,7.18.26,1.24-.43,3.17-1.6,6.21a29.27,29.27,0,0,0-2,6.56,59.49,59.49,0,0,1-4,14.1v.05c-.14,2.09,2.77,5.8,3.75,6.23a3.84,3.84,0,0,1,1.55,3.77v.08c.24.6,2.31,3.12,4.3,3.07l.66,0,.44.48c.13.15.31.37.45.55a5.53,5.53,0,0,0,1.68,1.57,10.9,10.9,0,0,0,1.28.54,3.62,3.62,0,0,1,2.45,1.88,4.89,4.89,0,0,1,.4,2.24,7.74,7.74,0,0,0,.38,2.59c.2.61.35,1.11.48,1.55a10,10,0,0,0,1.24,3,6,6,0,0,1,1,5.25,55.27,55.27,0,0,1-3.39,10,7.84,7.84,0,0,0-.73,1.89c-.26,1-.63,1.42-2.37,2.84-3.09,2.52-4.79,3.91-5.47,5.61A7.23,7.23,0,0,1,257.9,185c-1.79,2.08-4.78,5.56-3.09,10.48a56.33,56.33,0,0,1,2.73,8.21l.06.24c.66,2.59-1.18,8.24-2.08,10a11.93,11.93,0,0,1-.68,1.11c-.67,1-1.08,1.68-.8,2.25s1,.8,2.35.9a17.13,17.13,0,0,0,3.35.16c1.65-.07,2.2.07,3.27,1.44a52,52,0,0,1,3.88,6.23c.22.4.38.68.44.78a1.84,1.84,0,0,0,1.59.57,2.14,2.14,0,0,0,.88-.28l5.69-3.24-3.85,5.3c-.91,1.25-1.51,2.36-.4,4.3s1.31,2.06,2.79,1.84l.65-.09,1-.12.45.91a22.45,22.45,0,0,0,2.26,3.64,7.25,7.25,0,0,0,1.65,1.7l.44.31.17.73c0,.06,0,.12,0,.17l.12.78-.6.52a1,1,0,0,0-.46.8v.21c0,3.87-.18,6.52-.58,7.67s-.9,6,.59,8.07a2.14,2.14,0,0,0,1.72,1h.15l.88-.17,2.07-.4.19,1.5a8,8,0,0,1,.06,1.19l0,1.33-1.33.06a4.38,4.38,0,0,0-3.55,1.63,2.67,2.67,0,0,1-.92.74,2.07,2.07,0,0,0-1.06,1.12l-.17.37-.18.39-.35.69-.77.08c-.12,0-.29,0-.55,0-1.14,0-2.21.06-2.73.79a1.35,1.35,0,0,0-.16.32l-.77,2.11-1.57-1.61c-3-3.06-5.6-4.5-8.46-4.67-3.67-.22-7.13,1.67-10.08,3.46l-.37.22-.43,0c-2.57-.12-5.14-.17-8.25-.22-2.49,0-5-.17-7.44-.3a117.86,117.86,0,0,0-13.5-.18,63.36,63.36,0,0,0-19,4.5,89.94,89.94,0,0,0,7.1,9l1.67,1.95,3.75,4.42-5-2a16.7,16.7,0,0,0-1.06,4.94l0,.17c0,.35-.07.67-.1,1-.24,2.38-.41,3.95-2.87,6.21a12.6,12.6,0,0,1-5.35,3l-.71.24c-3.72,1.3-5.3,3.22-7.24,6.79l-.55,1c-2.87,5.24-6.8,12.41-7.85,18.74l-.13.77L184,331a4.24,4.24,0,0,0-1.62,1.17,2.36,2.36,0,0,0-.44.76l-.18.44-.43.29a10.12,10.12,0,0,1-2.87.95,22.23,22.23,0,0,1-4.49.79c-.56,0-1.24.09-2.37.25a24.83,24.83,0,0,1-4.44.12,8,8,0,0,0-3.2.23,4.38,4.38,0,0,1-.76.29c-.64.2-.89.33-1.41,1.55-.32.76-.62,1.31-.86,1.76a8.43,8.43,0,0,0-.63,1.36l.25.4-.79.8a3.34,3.34,0,0,1-.82.54l-.38.21A10.63,10.63,0,0,1,155,343.42Zm-9.71-9.13a11.39,11.39,0,0,1,.69,1.92c0,.13.59.56,2,.79l.48.07c1.61.25,2.57.46,3.66,2a10.53,10.53,0,0,0,.85,1.09c.49.51,3.45.45,4.37.11l.22-.12a10.11,10.11,0,0,1,.87-2c.22-.42.48-.89.75-1.53a4.69,4.69,0,0,1,3.18-3.15,1.9,1.9,0,0,0,.33-.12,9.45,9.45,0,0,1,4.56-.52,22.12,22.12,0,0,0,3.95-.09c1.23-.18,2-.23,2.55-.27a19.7,19.7,0,0,0,4-.72c.9-.22,1.43-.38,1.74-.49a5.05,5.05,0,0,1,.72-1.07,7.07,7.07,0,0,1,1.92-1.56c1.29-6.6,5.17-13.69,8-18.91l.55-1c2.2-4,4.26-6.53,8.8-8.11l.72-.25a9.86,9.86,0,0,0,4.36-2.41c1.67-1.53,1.75-2.25,2-4.41,0-.31.07-.65.11-1l0-.17a17.81,17.81,0,0,1,1.51-6.24,2.74,2.74,0,0,1,.22-.37l-.42-.48a88.43,88.43,0,0,1-7.57-9.69,2.37,2.37,0,0,1-.27-2,2.74,2.74,0,0,1,1.62-1.67,66.34,66.34,0,0,1,20.11-4.78,119.34,119.34,0,0,1,13.83.18c2.41.13,4.9.25,7.34.3,3,.05,5.44.1,7.9.21,3.46-2.06,7.22-3.89,11.34-3.64a14.9,14.9,0,0,1,9.11,4.34,5.94,5.94,0,0,1,3.92-1.29,4.84,4.84,0,0,1,2.24-2.33l.11-.06a7.05,7.05,0,0,1,1.22-1.21,5.26,5.26,0,0,1-1.52-1.43c-2.22-3.11-1.59-8.79-1-10.64,0-.14.45-1.45.43-6.74v-.21a3.56,3.56,0,0,1,.5-1.84,13.59,13.59,0,0,1-1.26-1.46,25.67,25.67,0,0,1-2.08-3.19c-3,.33-4-1-5.27-3.29a6.12,6.12,0,0,1-.8-4.71,4.49,4.49,0,0,1-3-1.8c-.08-.12-.28-.46-.56-1a50.85,50.85,0,0,0-3.63-5.85l-.3-.37h-.64a19,19,0,0,1-3.76-.17c-.8-.06-3.51-.26-4.59-2.48s.24-3.94,1-5a9.55,9.55,0,0,0,.53-.85c.91-1.76,2.22-6.55,1.86-8l-.06-.24a54.79,54.79,0,0,0-2.65-7.94c-2.23-6.5,1.71-11.09,3.61-13.29.18-.21.58-.67.72-.87,1-2.32,2.87-3.87,6.26-6.64a8.75,8.75,0,0,0,1.4-1.26l0-.1a10.66,10.66,0,0,1,1-2.49,53.49,53.49,0,0,0,3.15-9.4,3.25,3.25,0,0,0-.61-3.08,12.54,12.54,0,0,1-1.54-3.64c-.14-.48-.27-.95-.46-1.51a10.42,10.42,0,0,1-.52-3.45,2.29,2.29,0,0,0-.14-1.09,3.62,3.62,0,0,0-.86-.4,13.61,13.61,0,0,1-1.61-.69,8,8,0,0,1-2.56-2.28c-3.23-.34-5.83-3.58-6.32-4.88l-.28-.74.13-.78a1.53,1.53,0,0,0-.17-.86c-2.1-1.13-5.37-5.73-5.16-8.88l0-.56.24-.51a57.91,57.91,0,0,0,3.8-13.21,31,31,0,0,1,2.16-7.25,23.79,23.79,0,0,0,1.48-4.62c-.84-3.46,1.24-6.92,2.62-9.21a16.44,16.44,0,0,0,.83-1.47l.27-.65.53-.46c1.35-1.18,1.14-2.79.16-6s-.29-5.49,2.32-7a11.39,11.39,0,0,1,.35-3.33c0-.17.09-.42.13-.61a56.9,56.9,0,0,0-3.16-6.16,34.94,34.94,0,0,1-8.79-8.26,8.71,8.71,0,0,1-.74-1.91,10.56,10.56,0,0,0-.52-1.5,22.42,22.42,0,0,1-2.6-2.41c-.18-.2-.33-.37-.46-.52s-.32-.38-2-1.13l-1.91-.85L243,50.4a25.82,25.82,0,0,0-1.14-4.18c-2.18-3.75-3.12-6.51-2.83-8.39s-.14-2.16-.79-2.8A7.76,7.76,0,0,1,237,33.57l-.54-.87.11-1c.13-1.15.26-2,.36-2.48.05-.31.11-.62.1-.72l-.23-.41a16.55,16.55,0,0,1-1.25-2.93,4.91,4.91,0,0,0-.41-1,4.29,4.29,0,0,0-2.45-1.79l-.53-.22c-2.22-1.2-4.39-3.76-2.8-9.16-.38,0-.88,0-1.55,0h-.31A5,5,0,0,1,223,10.51a7.81,7.81,0,0,1-2.61-.86,6.67,6.67,0,0,1-3.27,1c-1.15,4.24-6.87,11.68-7.62,12.48-1.17,1.23-3.87,4.47-4.36,5.14a12.73,12.73,0,0,0-1,2.24c-.06,2.11-1.71,3.31-2.7,4a8,8,0,0,0-.73.57,1.54,1.54,0,0,0-.15.17c-1.61,1.87-3.27,2-7.25,1.81-3.08-.12-5.91-.52-6.64-3.94l0-.07-.35-.05c-.51-.08-1.22-.18-2.15-.39a6.49,6.49,0,0,0-1.74-.22l-.11.16a12.3,12.3,0,0,1-3.3,3.26c-.64.41-.7.45-1,2.85a15.59,15.59,0,0,0,.33,3.51c.33,2,.62,3.77.15,5.31a13.71,13.71,0,0,1-.95,2.27,16.24,16.24,0,0,0-1.15,2.84c-1.43,4.59-5.47,5.73-8.72,6.64l-.7.11c-1.22,0-3.57,3.55-4.45,4.87-.34.51-.64,1-.92,1.34a8,8,0,0,1-.1,1.38,4.47,4.47,0,0,0-.06,1.25,7,7,0,0,1-1,4.53,7.61,7.61,0,0,0-.73,1.72c-.57,2.28-2.29,4.09-4.11,6-.7.74-1.43,1.51-2.06,2.28a18.68,18.68,0,0,1-5.46,7.7h0a5.1,5.1,0,0,1-2.16,4.33,13.69,13.69,0,0,1-1.22.66l-.5.25a8.27,8.27,0,0,1-3.55,3.74,9.16,9.16,0,0,1-5.11,1.38l-.25.16a5.77,5.77,0,0,1-4.57.41,6.18,6.18,0,0,1-3.17,1,11.12,11.12,0,0,0-1.77.29l-1.06.26-1-.49c-2.11-1.05-2.89-.4-4.08.59l-.37.3a3.91,3.91,0,0,0-.59,2.2c0,3.15-2.74,4.62-5.64,6.17l-1.49.79-.33.17a46.08,46.08,0,0,0-5.65,3.25c0,.33.09.93.13,1.19a12.65,12.65,0,0,1,.12,3.5,4.67,4.67,0,0,0,.65,3.48,5.66,5.66,0,0,1,.61,3.85l.35.32a3.81,3.81,0,0,1,3,1.3l.5.06c.27,0,.62.08,1.08.12,1.08,0,3.07,0,4.12,1.61a9.12,9.12,0,0,1,3.81,1.54c.24.14.68.42.83.47l1,.31.4.61a17.33,17.33,0,0,1,2.09.87,17.47,17.47,0,0,1,8,2.68,11.9,11.9,0,0,0,1.65.86,8.79,8.79,0,0,1,4.36,3.74l0,0a8,8,0,0,1,2.11,1.48c.48.48,1.19,1.37,4.08,6.38a11,11,0,0,0,2.57,2.52,18.45,18.45,0,0,1,2.27,2,13.15,13.15,0,0,0,3.82.87,5.51,5.51,0,0,1,2.72-.6h.45a2.74,2.74,0,0,0,.41-.55,4,4,0,0,1,1.39-3c1.47-1.23,3.45-1.09,5.19-.78,1.12.2,4.09.72,3.84,4.12a1.76,1.76,0,0,0,0,.68l.17.7-.17.7a3.92,3.92,0,0,1-2.92,3.15,3.79,3.79,0,0,1-.55.08,7,7,0,0,1-2.86,2.55c.12.38.26.82.41,1.32.39,1.33.43,1.36,1.66,1.89l.47.21a4.06,4.06,0,0,1,2.63,3,3.19,3.19,0,0,1-.17,1.64h.71c.9,0,1.82,0,2.73.06,7.65.27,9,.5,9.76.69a3.43,3.43,0,0,1,2.37,2,3.7,3.7,0,0,1-.49,3.37,4,4,0,0,0-.4.8c-.92,2.76-8.44,9.35-10.82,10.74a8.93,8.93,0,0,0-3.23,4.31l-.26.69-.55.49a7.66,7.66,0,0,1-6.21,2.09,5.52,5.52,0,0,1-1.41-.44,6.57,6.57,0,0,1-2.69.28,3.3,3.3,0,0,1-1.37,0,3.58,3.58,0,0,1-2.31-1.75,25.41,25.41,0,0,0-5.7.86c-.34.09-.81.69-1.44,1.52a19.27,19.27,0,0,1-1.76,2.09c0,.12.08.24.11.35a4.35,4.35,0,0,1-1.56,4.91l-.3.27,1.61,1.07-.54,2.06a34.6,34.6,0,0,0-.56,6c0,.33,0,.69,0,1.1a22,22,0,0,0,.49,4.84c.8,3.45-.69,4.91-2.42,6a5.6,5.6,0,0,0-1.32,1c-.45.48-.51.73-.13,2.48l0,.12.07.31a5.71,5.71,0,0,1,2,3l.27,1.06-1,.53c-.66.37-1.34.69-2,1a10.31,10.31,0,0,0-4.18,2.84,7,7,0,0,0-1,2.75c-.1.46-.2.92-.33,1.38-.91,3.22-3.12,5.47-5.26,7.65-.1.1-.1.14-.05.22l.72,1.42-1.49.55a12.3,12.3,0,0,1-1.77.52c-.07,0-.08.07-.06.16l.09.38-.11.37a26.27,26.27,0,0,1-7.23,14.44l-.33.25c-1.94,1.33-4.09,1-6,.78-1.74-.24-3.24-.44-4.45.47a3.21,3.21,0,0,0-1.25,2.52,7.76,7.76,0,0,0,0,1,5.66,5.66,0,0,1-.58,3A5.09,5.09,0,0,1,98,278a.23.23,0,0,0-.11,0l-.45.4-.62,0c-.29,0-.34.13-.37.21a8.22,8.22,0,0,1-4,4.84,5,5,0,0,1-3.94,0L87.45,283l.19-1.12a2.08,2.08,0,0,0-.37-1.84c-1.42-1.7-6-1.76-8.48-1.79l-1.17,0c-2.62-.06-7-.17-8.78,1.61a3,3,0,0,0-.8,2.29l.08.26v.29c-.12,1.2.8,2.72,1.69,4.18a14.06,14.06,0,0,1,1.65,3.29,81.38,81.38,0,0,1,2.11,12c.19,1.48.37,3,.58,4.39.93,6.35,1.47,12.07-1.46,17.89-.76,1.51-.93,2.71-.52,3.58,1,2,5.13,2.9,8.48,3.62,1.26.27,2.44.52,3.51.83a.46.46,0,0,0,.23-.05c3-6.72,6.87-14.26,15.08-18.91.2-.11,19.91-10.91,23.88-5.47l.39.52,0,.53c0,.27-.05.59-.09,1a7.78,7.78,0,0,1-.16,1l.19.2.29.31.22.05a16.11,16.11,0,0,1,2.47.8,4.86,4.86,0,0,1,2.28,2.08l.06-.1c1.34-2.23,6.19-3.08,6.95-3.08,1,0,1.84,0,12.71,8l.66.49.32.76c.33.8.67,1.52.76,1.67.93,1.49.94,3.71-1.71,5.57a7.11,7.11,0,0,1-.61,2.63c-.07.14-.11.26-.15.37a6.92,6.92,0,0,1-2.32,3.19l-.21.19Zm14.21-171.38-.21.09.22-.07Zm-3.06-7.78h0Zm-7.29-.25Zm7.47-.34ZM250,57.5h0ZM230.41,13.12Z"/></svg>