<svg id="Layer_1" data-name="Layer 1" xmlns="http://www.w3.org/2000/svg" viewBox="0 0 350 350"><defs><style>.cls-1{fill:#999;}.cls-2{fill:#f90;}</style></defs><title>M</title><path class="cls-1" d="M342.35,139.36a5.77,5.77,0,0,0-4.51-1.84l-.23,0c-3.36.84-11.24,1.45-13.64.1a11.83,11.83,0,0,1-5.23-5.65l-.27-.5a7.76,7.76,0,0,0-2.11-2.5,11.36,11.36,0,0,0,1.5-2.43c.36-.69.76-1.47,1.28-2.35l.1-.22c2.26-7.06.38-11.74-2.15-13.75l-.07,0a5.45,5.45,0,0,0-4.42-.7c-4.24.95-8.59,5.54-9.52,7.13-.36.62-2.22,2.91-4.18,5.34-4.94,6.1-8.76,10.91-9.37,12.7-.83,2.43-5.55,7.9-8.69,10.51-2.78,2.32-10.37,4.14-13.61,4.92l-.4.1-.23.08c-.94.48-2.25,1-3.09.59s-1.34-1.93-1.66-3.14l-.12-.44a4.46,4.46,0,0,0-2.27-3.27c-2.24-1.07-5.14.32-7.95,1.67l-1,.47c-1.46.53-2.14.44-2.31.3s-.12-1.47-.05-1.92a4.41,4.41,0,0,0,.08-.69,28.48,28.48,0,0,1,2.83-4.38c.59-.83,1.23-1.73,1.88-2.68l.12-.22c1.19-3.06,7.68-7.05,10.8-9,.62-.38,1.14-.7,1.53-1l.2-.17c1.88-2,2.68-3.72,2.51-5.32-.23-2.24-2.29-3.71-4.67-5.41l-1.17-.85c-7.61-6.66-19-5.61-23.61-4.85l-.07,0c-3.26.79-7.1-.52-8-2.74-1-2.39-1.59-14.53-1.59-18.11v-.09c-.33-3.82-2-4.53-4.07-5.42a21,21,0,0,1-2.81-1.4c-8.48-6.82-16.61-5.52-20.51-4.89-.55.09-1,.16-1.37.2-8,0-12.62,4.38-15.39,7-.42.39-.8.75-1.12,1a59.46,59.46,0,0,0-10.41-4.75c-8.42-2.58-10.89.65-12.21,2.39l-.12.16c-1.33,1.73-5.37,14.68-6.2,17.4-5.88,14.15-22.08,14.23-22.23,14.23-2-.13-9.87,0-10.28,0-8,.65-12.75,2.24-15.44,5.14-2.3,2.47-8.83,7.77-12.24,9.37l-.26.12-.16.24c-3.11,4.65-4.36,11.12-3.69,19.24a66.48,66.48,0,0,0,3.22,15.38c1.29,11.71.06,33.29,0,34.48,0,.1,0,.17,0,.24a1.42,1.42,0,0,0,.18,1.21c-1.2,5.28-8.35-.31-10.55-1.51a9.48,9.48,0,0,0-6.05-1.32c-2.41.37-4.39,1.89-6.36,3.2-3.66,2.42-6.54,2.81-10.8,1.4a80.92,80.92,0,0,1-20-9.84c-5.15-3.46-10.28-6.73-16.54-7.59a1.41,1.41,0,0,0-1.74,1.33c-.5,5.75-1.6,11.68-8,13.25-2.9.71-6.21,1.22-6.77,4.65a1.4,1.4,0,0,0,1.33,1.74,11.85,11.85,0,0,1,8.07,4c-1.59,3.43-.62,6.53,1.26,9.69C19,221.93,20.35,224,21,226.82a12.68,12.68,0,0,0,1.58,4.62,4.4,4.4,0,0,0,6.12,1.32,4.87,4.87,0,0,0,2-3.2c.09-.42-.27-9,1.87-7.21a1.44,1.44,0,0,0,2-.11c1.23,3.17,2.34,9.08,5.13,11.16,1.69,1.26,3.92.6,5.78,1.35,2.44,1,3.2,3.11,4.94,4.91,6.79,7,19.67,8.73,28.92,8.52a1.4,1.4,0,0,0,1.37-1.37,17.68,17.68,0,0,0-.25-3.56,7.77,7.77,0,0,1,.6-2.17c1.24-.87,3,6.66,3.46,7.3A5.75,5.75,0,0,0,87,250.21a1.49,1.49,0,0,0,2,.59c3.65.74,8.24.21,11,.35a1.27,1.27,0,0,0,.73-.17,35.17,35.17,0,0,0,12.73-.13,40.31,40.31,0,0,1,10,1.89A29,29,0,0,1,138,264.05a30.39,30.39,0,0,0-7.77,1.4c-1.18.37-1.43,2.43,0,2.65a27.19,27.19,0,0,0,5.75.29l.25.07c4.06.76,8.83-1.25,12.6.39,2.68,1.17,3.07,4.53,6.45,4.23,3.2-.29,7.08-2.68,9.74-4.31,1.42-.88,3.45-2.77,5.62-4.5a6.28,6.28,0,0,1,3.86,0,5.9,5.9,0,0,1,2.35.9,3.36,3.36,0,0,0,.29.3l.14.11a13.48,13.48,0,0,0,2.4,1.27l.85.27.2,0H181a8,8,0,0,1,1.09.15,16.9,16.9,0,0,0,3,.33h.34a5.17,5.17,0,0,0,.81-.15,11.18,11.18,0,0,1,1.36-.3h.08a10.49,10.49,0,0,1,1.27-.09l.44,0c1.33-.12,4.44-.39,4.48-2.4v-.22l-.08-.2a4.05,4.05,0,0,0-.24-.46c-.08-.14-.18-.31-.31-.58,0,0-2.11-4-3.56-6.52-.52-.84-1.09-1.79-1.39-2.42-.6-1.26-.8-3.32-.67-7.17a43,43,0,0,1,.26-4.92q.07-.77.18-1.5v-.06a25.43,25.43,0,0,1,3.88-9.8l0-.08c1.71-3.36,3.43-5.77,4.86-6.82l0,0h0l0,0a5.88,5.88,0,0,1,.72-.47c2.45-1.48,4.07-1.16,6.76-.63.55.11,1.14.23,1.8.34h.17c3.07,0,11.48-1.41,14.21-3h0a20.63,20.63,0,0,1,5.86-1.5,45.89,45.89,0,0,1,5.37-.75h.08a13,13,0,0,1,3-.05h.09a26.16,26.16,0,0,1,2.73.41c-1.46-7.7-.82-15.74-.79-23.52a1,1,0,0,1,.67-.88c4.82-1.71,13.33-6,16.58.56.9,1.83.56,2.93,2.42,4.31,1.6,1.19,4,1.86,5.87,2.47,3.65,1.2,9.42,2.91,12.78.22-.38-8.47,3.35-19,4.55-21.4,1.2-1.75,7.37-3.44,11.07-4.45a23.17,23.17,0,0,0,4.43-1.43l.15-.09.11-.14c2-2.38.29-4.68-.72-6.05-.18-.24-.35-.47-.5-.7a5.15,5.15,0,0,1-.73-5.53c1-3,4.39-6,7-7.88a14.92,14.92,0,0,1,6.62-4.59.93.93,0,0,1,1.13.64,11.55,11.55,0,0,1,.24,7.36c-.92,3.4-3.76,7.57-.81,10.82,2.4,2.65,7,2,10.21,2.43a15.29,15.29,0,0,1,6.61,2.17c2.52-1.22,4-4.08,4.58-5.32l.08-.24c1.2-5.23,4.91-6.19,7-6.3l.53,0c1.34,0,1.63-.32,2.29-1.49l.27-.47,0-.1c.71-1.58,1.61-6,2.41-9.92.5-2.46,1-4.79,1.25-5.58A4,4,0,0,0,342.35,139.36ZM18.44,215a6,6,0,0,1-.21-2.19,12.14,12.14,0,0,1,.69,1.92A1.6,1.6,0,0,0,18.44,215Z"/><path class="cls-2" d="M154.89,274.51c-2.37,0-3.61-1.45-4.61-2.64a5.75,5.75,0,0,0-2-1.73c-1.8-.78-4-.56-6.38-.33a21,21,0,0,1-5.92,0l-.16,0a28.32,28.32,0,0,1-5.79-.32,2.51,2.51,0,0,1-2.17-2.37,2.94,2.94,0,0,1,2-3,32.42,32.42,0,0,1,5.55-1.23,27.17,27.17,0,0,0-12.39-8.8,38.09,38.09,0,0,0-9.51-1.8,36.36,36.36,0,0,1-12.64.17,2.7,2.7,0,0,1-1,.12c-.85,0-2,0-3.12,0a39.35,39.35,0,0,1-7.61-.3,2.84,2.84,0,0,1-1.56,0,3,3,0,0,1-1.5-.94,6.84,6.84,0,0,1-2.73-2.13,9.33,9.33,0,0,1-.93-2.43l-.31-1q0,.5,0,1a2.82,2.82,0,0,1-2.76,2.76c-6.27.14-21.74-.45-30-9a19,19,0,0,1-1.6-2,6.72,6.72,0,0,0-2.85-2.63,7.21,7.21,0,0,0-2.07-.35,7.19,7.19,0,0,1-4-1.18c-2.45-1.83-3.64-5.66-4.69-9-.15-.48-.3-1-.44-1.39a2.8,2.8,0,0,1-1.24-.19,27.65,27.65,0,0,0-.32,4.83,5.6,5.6,0,0,1-.06,1.13,6.19,6.19,0,0,1-2.6,4.07,5.81,5.81,0,0,1-8.06-1.68,11.77,11.77,0,0,1-1.65-4.44l-.15-.68a21.41,21.41,0,0,0-2.91-6.31l-.37-.62c-1.56-2.63-3.12-6.11-1.7-10.1a10.43,10.43,0,0,0-6.51-2.88,2.85,2.85,0,0,1-2.06-1.05,2.94,2.94,0,0,1-.56-2.33c.67-4.1,4.43-5,7.17-5.64l.66-.16c5-1.23,6.36-5.5,6.92-12a2.87,2.87,0,0,1,1-2,3,3,0,0,1,2.31-.58c6.37.87,11.53,4.06,17.14,7.82a80,80,0,0,0,19.68,9.67c3.83,1.27,6.24,1,9.57-1.24l.77-.51a15.46,15.46,0,0,1,6.16-2.9,10.8,10.8,0,0,1,6.95,1.48c.35.19.83.49,1.38.84,1.53,1,5.11,3.22,6.48,2.65.09,0,.31-.13.5-.6a3,3,0,0,1,0-1.65l0-.1c.1-1.81,1.27-22.55,0-34A68.35,68.35,0,0,1,89,149.32c-.69-8.45.63-15.23,3.92-20.15l.38-.57.62-.29c3.22-1.52,9.63-6.72,11.8-9.05,3-3.18,8-4.9,16.36-5.59.17,0,8.42-.14,10.49,0,.06,0,15.32-.21,20.8-13.3,1.83-5.92,5.07-16,6.42-17.78l.12-.16c1.42-1.87,4.39-5.75,13.75-2.88a63.23,63.23,0,0,1,9.81,4.36l.29-.27c3-2.79,7.85-7.37,16.34-7.42.32,0,.74-.1,1.22-.18,4.1-.66,12.61-2,21.55,5.13a20.13,20.13,0,0,0,2.56,1.26c2.22,1,4.52,1.94,4.92,6.61v.15c0,4.27.62,15.63,1.47,17.62.61,1.41,3.68,2.58,6.41,1.92l.12,0c4.81-.8,16.72-1.88,24.79,5.13l1.11.8c2.55,1.82,5,3.54,5.26,6.42.21,2-.71,4.07-2.88,6.42l-.47.39c-.4.26-.93.59-1.56,1-2.52,1.55-9.21,5.65-10.22,8.27l-.27.51c-.64.93-1.27,1.82-1.85,2.64-.9,1.26-2.3,3.25-2.62,3.89,0,.2-.05.4-.09.63l0,.23.45-.15.93-.44c3-1.42,6.32-3,9.18-1.67a5.79,5.79,0,0,1,3,4.22l.1.38c.16.61.53,2,.88,2.22A3.57,3.57,0,0,0,266,149l.53-.2.4-.1c2.88-.69,10.51-2.53,13-4.63,3.18-2.65,7.58-7.92,8.25-9.89s3.48-5.54,9.61-13.13c1.68-2.08,3.76-4.64,4.07-5.17,1.06-1.79,5.71-6.73,10.43-7.79a6.9,6.9,0,0,1,5.52.91l.11.08c2.94,2.35,5.14,7.58,2.66,15.33l-.23.51c-.49.83-.88,1.58-1.22,2.24s-.58,1.13-.88,1.62a9.44,9.44,0,0,1,1.46,2l.27.5c1.17,2.15,1.95,3.56,4.68,5.09,1.86,1,9.22.61,12.6-.24l.56-.07a7,7,0,0,1,5.65,2.39h0a5.45,5.45,0,0,1,.8,5c-.27.78-.75,3.16-1.22,5.46-.85,4.19-1.73,8.5-2.5,10.23l-.38.69a3.49,3.49,0,0,1-3.48,2.21l-.5,0c-2.08.11-4.75,1.1-5.7,5.21l-.2.55c-.68,1.35-2.26,4.52-5.23,6l-.71.34-.67-.42a13.72,13.72,0,0,0-6-2c-.72-.09-1.53-.12-2.4-.16-3-.13-6.47-.27-8.69-2.72-2.86-3.15-1.44-6.85-.31-9.83.31-.82.61-1.6.8-2.32a10.06,10.06,0,0,0-.07-6.1,13.41,13.41,0,0,0-5.46,4l-.27.25c-3.36,2.38-5.76,5.06-6.44,7.16a3.81,3.81,0,0,0,.56,4.31c.13.2.28.4.43.61,1,1.4,3.39,4.61.7,7.84l-.27.32-.36.22a22.53,22.53,0,0,1-4.78,1.58c-2.52.69-9.14,2.51-10.22,3.82-1.14,2.41-4.72,12.56-4.35,20.6l0,.72-.56.45c-4.13,3.31-10.87,1.09-14.11,0l-.77-.25a19.13,19.13,0,0,1-5.51-2.43,5.87,5.87,0,0,1-2.32-3.44,9,9,0,0,0-.52-1.39c-2.12-4.3-7.12-2.8-13-.56l-1.62.61c0,1.61,0,3.24-.08,4.87-.13,6-.26,12.18.85,18l.39,2.06-2.06-.41a24.46,24.46,0,0,0-2.58-.38,11.8,11.8,0,0,0-2.7,0l-.16,0a44.54,44.54,0,0,0-5.24.73c-3.46.54-4.87,1-5.45,1.35-3,1.7-11.69,3.09-14.88,3.13h-.09l-.33,0c-.64-.11-1.22-.22-1.76-.33-2.67-.53-3.85-.76-5.83.43a5,5,0,0,0-.6.39l-.12.08c-1.22.9-2.84,3.2-4.43,6.32l-.08.15a24.2,24.2,0,0,0-3.71,9.31c-.08.52-.14,1-.18,1.47a41.77,41.77,0,0,0-.26,4.78c-.12,3.6,0,5.55.53,6.57.27.57.85,1.52,1.32,2.29,1.5,2.61,3.59,6.57,3.61,6.61.13.26.21.4.28.51a5.41,5.41,0,0,1,.33.64l.2.48v.52c-.07,3.28-4.21,3.65-5.77,3.78l-.51,0a9.49,9.49,0,0,0-1.12.08,10,10,0,0,0-1.25.27,6.64,6.64,0,0,1-1,.2l-.5,0a18.09,18.09,0,0,1-3.19-.35c-.29-.05-.62-.12-.81-.13l-.34,0-.41-.1c-.37-.1-.69-.2-1-.31a14.85,14.85,0,0,1-2.7-1.42l-.34-.27-.26-.26a4.67,4.67,0,0,0-1.66-.58,5.64,5.64,0,0,0-2.89-.14c-.72.58-1.42,1.17-2.09,1.74a32.8,32.8,0,0,1-3.51,2.73c-2.72,1.67-6.82,4.2-10.35,4.52Zm-9.73-7.75a10.56,10.56,0,0,1,4.28.78,8.22,8.22,0,0,1,3,2.49c1,1.21,1.54,1.73,2.76,1.62,2.87-.26,6.63-2.58,9.12-4.11a32,32,0,0,0,3.16-2.48c.74-.62,1.52-1.28,2.31-1.92l.29-.18a7.48,7.48,0,0,1,4.77-.12,7.16,7.16,0,0,1,2.83,1.11l.16.11.12.15.13.14,0,0a12.09,12.09,0,0,0,2.09,1.1l.66.21a6.45,6.45,0,0,1,1.41.17,15.59,15.59,0,0,0,2.7.31h.21a3.93,3.93,0,0,0,.55-.11,11.06,11.06,0,0,1,3-.45h.42c2.58-.23,3-.73,3.1-1l-.12-.21c-.1-.17-.22-.37-.36-.68h0s-2.09-4-3.51-6.43c-.51-.83-1.11-1.82-1.44-2.51-.72-1.5-.94-3.69-.81-7.82a44,44,0,0,1,.27-5c0-.52.11-1.05.19-1.56a26.85,26.85,0,0,1,4.09-10.4c1.27-2.48,3.22-5.79,5.27-7.29l0,0a7.56,7.56,0,0,1,.93-.61c2.88-1.74,4.91-1.34,7.72-.78.58.11,1.11.22,1.7.32,3.3-.07,11.2-1.47,13.52-2.77a21.44,21.44,0,0,1,6.34-1.66,46.79,46.79,0,0,1,5.48-.76,14.46,14.46,0,0,1,3.25-.06l1,.11a101,101,0,0,1-.56-16.63c0-1.73.07-3.46.08-5.17a2.36,2.36,0,0,1,1.62-2.21c.56-.2,1.17-.43,1.82-.68,4.89-1.88,13.07-5,16.51,2a11.66,11.66,0,0,1,.69,1.8,3.11,3.11,0,0,0,1.31,2,17.2,17.2,0,0,0,4.68,2l.79.25c2.6.86,7.85,2.58,10.9.83-.14-8.5,3.42-18.65,4.72-21.29l.1-.18c1.38-2,6.19-3.46,11.86-5a29.57,29.57,0,0,0,4-1.25c1-1.27.52-2.44-.82-4.26-.21-.28-.38-.52-.53-.75a6.53,6.53,0,0,1-.88-6.81c1.14-3.55,5-6.77,7.32-8.43a16.28,16.28,0,0,1,7.12-4.88,2.35,2.35,0,0,1,2.93,1.49,12.88,12.88,0,0,1,.28,8.22c-.23.85-.57,1.73-.89,2.59-1.2,3.14-1.81,5.18-.24,6.91,1.43,1.57,4.11,1.69,6.71,1.8.92,0,1.79.08,2.62.18a17.12,17.12,0,0,1,6.45,1.94,11.16,11.16,0,0,0,3.26-4.24l0-.08c1.48-6.29,6.29-7.21,8.29-7.32l.57,0a1.85,1.85,0,0,0,.63-.07,3,3,0,0,0,.46-.7l.29-.52c.61-1.37,1.54-5.91,2.28-9.55.54-2.63,1-4.88,1.3-5.76a2.64,2.64,0,0,0-.34-2.41h0a4.37,4.37,0,0,0-3.3-1.29h-.06c-3.09.75-11.6,1.62-14.6-.06a13.14,13.14,0,0,1-5.78-6.2l-.27-.5a6.41,6.41,0,0,0-1.73-2.06l-1.23-.95,1.05-1.14a10.73,10.73,0,0,0,1.28-2.12c.37-.71.77-1.48,1.28-2.35l0-.07c2-6.34.44-10.42-1.71-12.14a4,4,0,0,0-3.29-.47c-3.59.8-7.71,4.95-8.61,6.47-.4.67-1.89,2.52-4.28,5.49-3.63,4.49-8.57,10.6-9.15,12.29-1,3-6.17,8.68-9.12,11.14-2.68,2.23-8.67,3.88-14.18,5.21l-.39.11c-1.74.87-3.16,1.06-4.24.58-1.55-.7-2.07-2.65-2.45-4.07l-.12-.43a3.2,3.2,0,0,0-1.51-2.36c-1.62-.78-4.21.47-6.72,1.67L252,147l-.85.41-.12,0c-1.76.64-3,.66-3.69.06s-.75-2-.55-3.24c0-.19.06-.34.06-.45v-.16l0-.13c.15-.73.86-1.81,3.06-4.92.6-.84,1.2-1.7,1.82-2.59l0-.08c1.25-3.06,6.19-6.41,11.34-9.58l1.43-.89.06-.05c1.52-1.66,2.2-3,2.09-4.15-.16-1.61-1.89-2.84-4.08-4.4l-1.19-.86-.09-.08c-7.15-6.26-18.08-5.25-22.44-4.52-3.91.95-8.44-.71-9.66-3.56s-1.7-16.18-1.7-18.67c-.25-2.94-1.24-3.37-3.21-4.21a22.6,22.6,0,0,1-3-1.49l-.15-.11c-8-6.42-15.69-5.19-19.4-4.6-.59.09-1.09.17-1.47.21h-.13c-7.41,0-11.63,4-14.43,6.6-.47.44-.85.8-1.18,1.07l-.78.66-.87-.52a57.27,57.27,0,0,0-10.15-4.63c-7.43-2.28-9.43.35-10.62,1.91l-.13.17c-.73,1-3.19,7.92-6,17l0,.13c-6.2,14.93-23.36,15.11-23.54,15.11-1.89-.12-9.26,0-10.25,0-7.52.62-12,2.06-14.43,4.68s-9,7.9-12.58,9.65c-2.89,4.37-4,10.51-3.4,18.26a65.15,65.15,0,0,0,3.15,15l.07.31c1.32,11.91,0,33.79,0,34.72l0,.15c0,.12,0,.22-.06.3a.88.88,0,0,0,0,.16l.38.52-.17.55a4,4,0,0,1-2.31,3c-2.74,1.14-6.55-1.27-9.08-2.87-.49-.31-.91-.58-1.22-.75a8,8,0,0,0-5.16-1.17,12.94,12.94,0,0,0-5,2.45l-.79.53c-4,2.66-7.4,3.09-12,1.56a82.83,82.83,0,0,1-20.37-10c-5.5-3.69-10.16-6.57-15.95-7.36h-.13v0c-.38,4.39-1.09,12.55-9.07,14.51l-.69.16c-2.89.69-4.68,1.21-5,3.34a.34.34,0,0,0,0,.14,13.05,13.05,0,0,1,8.93,4.28l.13-1.27,2.16,4.76a13.63,13.63,0,0,1,.77,2.15l.34,1.27-1.25.43-1.44,1.17c.24.49.51,1,.83,1.54l.37.62a23.93,23.93,0,0,1,3.24,7.13l.16.72a9.34,9.34,0,0,0,1.2,3.41,3,3,0,0,0,4.18,1,3.4,3.4,0,0,0,1.39-2.25c0-.13,0-.34,0-.62,0-4.54.36-7.14,1.93-7.86a2,2,0,0,1,2.25.4L35,219.75l.85,2c.33.85.65,1.86,1,2.93.88,2.82,2,6.33,3.68,7.6a4.83,4.83,0,0,0,2.55.63,9.54,9.54,0,0,1,2.91.54A9.26,9.26,0,0,1,50.06,237a16.68,16.68,0,0,0,1.37,1.68c7.66,7.92,23.26,8.19,27.87,8.09a16.94,16.94,0,0,0-.24-3.27l0-.28.17-.81c.27-1.32.43-2,1.05-2.49a1.76,1.76,0,0,1,1.59-.23c1.34.45,2.07,2.34,3.31,6.25.2.63.45,1.41.56,1.67a4.41,4.41,0,0,0,1.86,1.3l.46.19.24.44.48-.29.54.17a35,35,0,0,0,7.41.33c1.23,0,2.38-.06,3.34,0l.45-.27.45.12a33.59,33.59,0,0,0,12.23-.13l.19,0h.19a41.06,41.06,0,0,1,10.4,2,30.33,30.33,0,0,1,15.28,11.87l1.42,2.09-2.52.12a28.67,28.67,0,0,0-7.26,1.28A25.7,25.7,0,0,0,136,267l.29,0,.28.1a18.5,18.5,0,0,0,5.13-.06C142.81,266.88,144,266.76,145.16,266.76ZM85.65,247.53h0Z"/></svg>