<svg id="Layer_1" data-name="Layer 1" xmlns="http://www.w3.org/2000/svg" viewBox="0 0 350 350"><defs><style>.cls-1{fill:#999;}.cls-2{fill:#f90;}</style></defs><title>M</title><path class="cls-1" d="M295.79,69.09a18.49,18.49,0,0,1-.82,5.08s4,2.56,4.3-1.55c-.27-3.93-1.3-4.25-2.74-4.66a12,12,0,0,1-1.63-.59A2.51,2.51,0,0,1,295.79,69.09Z"/><path class="cls-2" d="M297.35,76.38a6.44,6.44,0,0,1-3.14-1l-.92-.58.32-1a17.16,17.16,0,0,0,.76-4.6,1.19,1.19,0,0,0-.43-.73l-6.75-6.1,8.29,3.76a10.61,10.61,0,0,0,1.43.52c2.27.65,3.47,1.74,3.77,5.93v.19A3.65,3.65,0,0,1,298.85,76,3.29,3.29,0,0,1,297.35,76.38Zm-.7-3a1.51,1.51,0,0,0,.92.11c.06,0,.22-.25.28-.89-.12-1.61-.31-2.36-.64-2.75A19.36,19.36,0,0,1,296.65,73.4Z"/><path class="cls-1" d="M293.59,66.6a6.65,6.65,0,0,0,1.31.76A3.72,3.72,0,0,0,293.59,66.6Z"/><path class="cls-2" d="M302.58,72.41l-8.27-3.75a8,8,0,0,1-1.59-.93l-6.51-5L294,65.25a5.17,5.17,0,0,1,1.82,1.06Z"/><path class="cls-1" d="M210.12,322.15c.82-.91,1.65-2.74,2.83-5.85s1.19-3.38.73-5.85-4.21-11.34-5.3-13.53-1-1.65-5.12-1.28c-4.75,1-2.47-2.65-1.74-5.58s.64-1.92-.82-4.66-1.74-2.74-2.1-5.85c-.18-5.3-2.83-7-2.83-7s4.3-5.3,4.57-5.58,4.75-7,5-9.33-.27-2.93.82-4.75c3.84,2.38,2.56-.09,3.11-1.65s2.1-1.1,4.11-2c2.47,1.83,3.66.91,4.11,0a20.24,20.24,0,0,1,0-5,8.51,8.51,0,0,0,1.65,0c.82-.09,3.47-2.19,4.21-3.57s-.73-2.74,1.65-1.83,1.19.64,2.38.46c-.27-2.56,2.1-1.83,3.38-2.38,2.1,1.74,2.38-2.74,2.38-2.74s6.49-4.11,7.5-5.12,1.83-3.93,4.3-9.69c.37.09,10.24,1.19,16.82,2.65s10.42-1.1,16.92-1.37,21.3-3.93,22.77-4.57,9.42-6.49,9.33-6.95-1.46-6.95-1.46-6.95l5.85-1.83c5.85-1.83,3.66-1.92,4.85-.64s0,4.75,0,10c1.19.18,3.93-1.65,5-2.1s4.3-1.74,5.12-2.19,3.47-4.48,3.93-5.67,2.56-3.75,2.56-4,.09-2.93.09-2.93a35.93,35.93,0,0,1,4.66-1.55c2-.46,2.56-.82,2.93-2.65s-1.28-1.46-1.1-2.74-2.1-1.55-3.84-3.75-.64-3.5-1.25-4.72-11.28-2.13-18.35-3.72c-.12-1.28,1.71-17.31,1.16-20.48s2.5-14.63,1.52-24.38-7.56-16.09-9.27-18.17c-1.55-1.89,1.89-8.31,3.62-11.29h0s-6.49-2.18-7.71-3.16c-.12,2.93-2,4.88-2.32,1-2.07-.37-2.8-6.1-5.73-4.88a6.68,6.68,0,0,1-7.44-1.46c-1.58.49-3.54,4.27-6.34,2.56,0,0-.4-1.52-2.77-1.52-1.28-2.1-4.57-7.59-4.94-9,2.83-1.65,4.57-2.74,4.94-5.58s-1.19-7.88,1.65-8.1,5.67-.68,5.85-2c.08-.59.78-.69,1.55-.44a2.23,2.23,0,0,1-1-1.57,2,2,0,0,1,2.29-2.1c.73-1.1,1.19-1.19,1.19-3.11S292.68,55,295.43,53a40,40,0,0,1,5.39-1.37s.27-4.85,1.92-5c0,0-7.22,1-9.42-2s-3.84-4.39-4.11-5.76l-.27-1.37s.55,0-2.47-1-3.75-1.65-5.39-.64-.82.73-2.19,3.11-3.2,5.85-4.66,7.31-6.4,5.76-10,7.22S257,57.16,254,56a38.61,38.61,0,0,1-9.33-6,61.63,61.63,0,0,1-6-6.22c-1.74-1.83-4-3.75-5-5s-5-6-4.94-8.41.64-9.88,0-11.89-2.1-6.95-2.38-7.22-29.63,18.1-30.45,18.1c2.19,1.74.73,5.3,1.1,7.22s.37,8.32,4,10.15,13.17,7.94,13.62,8.54,16.55,13.22,18.65,16.15a19.16,19.16,0,0,1,3.66,10c.27,3.75,0,5.39-2.1,7.5s-9.14,7.13-11.8,9.88-3.29,2.83-3.57,6.86-2.38,24-3,28.53-4.75,18.74-6.4,21-10.33,3.66-12.8,6.58-6.74,4.94-7.16,7.41a82,82,0,0,1-2.35,10.7,36.23,36.23,0,0,0-1.46,6.22s-.82.64-5,1.46S170,190.11,170,190.11s-4-12.89-4.66-15.36-8.23-5.3-10.52-7c-2.83,2.19-4.75,8.59-14.63,7-9-.37-29.63-7-29.63-7s-8.14,7.68-8.78,9.69c-.82,2.1-4.57,2.74-4.57,2.74s-.82,2.65-1.83,2.83-2.47-.18-3.75.37a4.88,4.88,0,0,0-2.19,2.38c-.46.73-3.47.91-5,1.65S82,189.2,82.74,191s.83,4.75-.27,5.76-3.66,3.38-4.12,3.66-1.92,1.83-3.11,0-1.1-2.74-2.93-3.2-2.65-1.55-1.74.73,1.92,4.66,2.38,4.85,1.46,1.83,1.37,3.66-.64,2.29-1.55,2.47-2.56-.09-4.21-4.75A29.11,29.11,0,0,0,64.46,207s2.83,4.11,2.65,6.58-4.57,5.76-6.86,5.94c-.09,2.29,1.37,6.22-2.29,8.41-3,2.29-5.67,3.11-5.39,0-1.65,2.1-3.2,3.66-2.83,7.59s.35,7-.05,8.41-1.13,4-4,4.11a16.23,16.23,0,0,0-5.94,1.74s-3.47,3.84-5.76,3c-1.74,4.39-4,9.69-4.11,10.42s-3,3.11-4.75,1.1c.09,6.77,0,13.9,0,13.9s-2.56,2.1-4,1.65-7.68-.91-8-1c-.27,5.39-.55,13.9-.55,13.9h-6s-2.19,12.53,0,13.26c2.38.55,9.24-.73,10.79-.55,1.37-2.47,1.1-4.39,3.11-4,.37-1.92,3.38-5.39,5.21-3.93,1.65,1.83,4,6.58,8,5.39,2.56-2.93,3.66-5,6-3.2,1.37,1.74,4.39,2.83,7.77,1.65s3.84-3.84,5.21-3.75,3.11.46,3.84,4.39c1.28,1.65,4.39,3,4.85,4.16s1.65,3.61,1.19,5.9c2.83,1,5.49-.27,8.41.73s1.55-.55,2.93,1,4.57.91,6,1.92,1.83,1.74,2.74,3.57c3.29-1.74,6.31-3.93,7.31,2.29,0,0,1.92,2.56,3.47-1.19,1.83-.55,7.22-2.74,9.51,6.22,1.55,1.37,4,4.75,5.94,5.21s8,.27,4.85,5.58c-.27.55-1.46,1.83.64,1.28s5.94-3.75,10-.55c.91-1.28-.18-3.38,2.19-3.29,0-2.74.82-5.67,3.57-4.75a2.94,2.94,0,0,1,2.19,3.38s7.68-4.85,6.77,2.19c3.11-.27,4.21-3,7.13-3.47s2.83-.73,4.94-.64-5.39-10.7-5.21-13.62,2.74-4,4.3-3.11c-.18-3.11,1.92-3.47,4.66-4.48s4.57-4.39,7-4.39,8.6-2.93,10.52-1.83,3.2,4,3.29,4.3,12.49,20.75,15.64,26C191.84,334.16,209.3,323.05,210.12,322.15Z"/><path class="cls-2" d="M113.68,340.25a1.79,1.79,0,0,1-1.54-.71,2.21,2.21,0,0,1,.29-2.55l.13-.21c.61-1.05.84-1.86.66-2.23-.34-.7-2.28-1-3.32-1.12-.49-.07-.92-.13-1.25-.21-1.75-.42-3.49-2.3-5-4-.57-.62-1.11-1.2-1.53-1.57l-.33-.29-.11-.42c-.71-2.78-1.77-4.57-3.14-5.34a5,5,0,0,0-4-.06,3.65,3.65,0,0,1-2.69,2.27,3.42,3.42,0,0,1-2.94-1.4l-.21-.28-.06-.34c-.38-2.34-1-2.79-1.14-2.88-.59-.29-2.12.54-3.35,1.21l-2,1.09-.65-1.3c-.88-1.76-1.12-2.23-2.28-3a5.88,5.88,0,0,0-2-.46c-1.49-.19-3.19-.42-4.31-1.69l-.14-.16a6,6,0,0,1-2.18-.44,9.67,9.67,0,0,0-3.71-.29,11.78,11.78,0,0,1-4.71-.45L61,313l.24-1.2c.33-1.63-.47-3.54-.95-4.68l-.17-.41a10.6,10.6,0,0,0-1.67-1.3,13.62,13.62,0,0,1-3-2.52l-.21-.27-.06-.34c-.55-3-1.52-3.16-2.41-3.22a7,7,0,0,0-.58.62,9.43,9.43,0,0,1-4.21,3,8.43,8.43,0,0,1-9.23-2c-.72-.54-.94-.5-2.93,1.87-.32.39-.67.8-1,1.23l-.27.31-.39.12c-4.2,1.24-6.92-2.41-8.54-4.58-.31-.41-.6-.8-.85-1.09a.54.54,0,0,0-.32,0,5.35,5.35,0,0,0-2.56,3.07l-.26,1.38-1.38-.25-.16,0a7.62,7.62,0,0,0-.43,1,16,16,0,0,1-1,2.31l-.46.83-.94-.11a29.6,29.6,0,0,0-3.44.27c-2.74.3-5.84.64-7.51.25l-.13,0c-.83-.28-3.35-1.12-.95-14.85l.21-1.17h5.85c.09-2.63.3-8.5.5-12.55l.09-1.86,1.67.55,1.44.15a47.91,47.91,0,0,1,6.59.88,4.89,4.89,0,0,0,2.19-1c0-2,.07-7.71,0-13.17l-.05-3.89,2.54,2.95a.76.76,0,0,0,.69.3,2.84,2.84,0,0,0,1.63-.89c.17-.72.77-2.21,2.25-5.81.63-1.53,1.3-3.18,1.91-4.71l.5-1.28,1.29.46c.8.3,2.89-1.15,4.23-2.63l.17-.18.22-.12a17.59,17.59,0,0,1,6.56-1.9c1.48,0,2.07-1.1,2.63-3,.29-1,.43-3.54,0-8-.39-4.17,1.2-6.17,2.73-8.09l3.35-4.27L54,228.09a2.7,2.7,0,0,0,0,.48,8.49,8.49,0,0,0,3.13-1.74l.13-.08c1.94-1.17,1.93-2.87,1.7-5.35a14.42,14.42,0,0,1-.1-1.9l0-1.26,1.25-.1c1.71-.14,5.44-3,5.56-4.63s-1.57-4.47-2.41-5.67l-.75-1.08,1-.83a28.75,28.75,0,0,1,4.45-3l1.39-.6.5,1.43c1,2.81,2,3.95,2.59,3.84a.86.86,0,0,0,.23-.07,2.67,2.67,0,0,0,.19-1.08,4,4,0,0,0-.68-2.36c-.67-.36-1.24-1.23-3-5.54-.39-1-.83-2.08,0-2.9a2,2,0,0,1,2.31-.12,7.59,7.59,0,0,0,1.1.39,4.27,4.27,0,0,1,3.09,2.63c.18.34.39.73.68,1.18a.83.83,0,0,0,.21.25,6.91,6.91,0,0,0,.6-.43,4.47,4.47,0,0,1,.38-.26c.36-.25,2.33-2.06,3.28-2.92l.62-.57c.39-.36.59-2.48-.09-4.19-.93-2.33-.07-4.32,2.36-5.47a14.17,14.17,0,0,1,2.84-.84,13.74,13.74,0,0,0,1.69-.45l.09-.15a5.55,5.55,0,0,1,2.65-2.6,7.12,7.12,0,0,1,3.05-.43c.31,0,.61,0,.83,0a6.63,6.63,0,0,0,.89-1.88l.26-.83.86-.15c1.19-.21,3.13-.95,3.49-1.86.67-2.11,7.15-8.35,9.13-10.21l.61-.58.8.26c.21.07,20.58,6.62,29.25,7l.16,0c6.79,1.07,9.23-1.88,11.38-4.49a14.58,14.58,0,0,1,2.16-2.27l.86-.67.87.66a29.43,29.43,0,0,0,3.45,1.95c4.23,2.19,7,3.77,7.58,5.87s3.21,10.69,4.24,14c2.25-.57,6.88-1.72,10-2.33a26.14,26.14,0,0,0,4-1,35.72,35.72,0,0,1,1.41-5.73,79.38,79.38,0,0,0,2.25-10.25l0-.22c.35-2,2.22-3.52,4.21-5.11a23.62,23.62,0,0,0,3.27-3c1.53-1.82,4.65-3,7.67-4.08,2-.75,4.53-1.67,5.07-2.41,1.34-1.86,5.47-15.58,6.15-20.4.62-4.46,2.73-24.38,3-28.43.26-3.85.94-4.71,3.05-6.82l.91-.92a82,82,0,0,1,6.92-5.84c2.06-1.63,4-3.16,4.89-4.05,1.65-1.65,2-2.79,1.69-6.39a17.63,17.63,0,0,0-3.39-9.24c-1.36-1.89-9.92-8.88-14.51-12.63-3.14-2.56-3.79-3.11-4-3.39a138.82,138.82,0,0,0-13.2-8.22c-3.71-1.86-4.3-7.1-4.62-9.91-.06-.51-.1-.94-.16-1.24a9.81,9.81,0,0,1,0-2.67c.17-1.82.22-3.06-.6-3.71l-3.19-2.53h3.81c1.48-.73,9.32-5.51,15.67-9.39,3.62-2.21,7.16-4.37,9.82-6,5.35-3.21,5.35-3.21,6.22-2.34.37.37.52.66,2.16,6L230,18c.56,1.76.39,6.09.15,10.76,0,.65-.06,1.21-.08,1.61,0,.74.69,2.56,4.27,7l.37.46a29.51,29.51,0,0,0,2.5,2.54c.82.78,1.67,1.58,2.44,2.39.52.55,1,1.12,1.55,1.71a37.94,37.94,0,0,0,4.37,4.4c1.94,1.62,5.68,4.52,8.94,5.81,1.91.75,4.48-.39,7.19-1.6.66-.3,1.33-.59,2-.87,3.35-1.37,8.14-5.55,9.5-6.91a33.11,33.11,0,0,0,3.68-5.69l.76-1.33a11,11,0,0,0,.76-1.56,3.56,3.56,0,0,1,1.92-2.05c1.91-1.17,3.19-.71,5.12,0l1.46.51c2.5.83,3.59,1.2,3.48,2.41l.21,1A8.21,8.21,0,0,0,292.23,41c.62.75,1.39,1.68,2.24,2.84,1.22,1.68,5.54,1.78,8,1.45h.1l.35,2.81a.45.45,0,0,0,.2-.09,8.6,8.6,0,0,0-.9,3.79l-.06,1.14-1.12.18a38.79,38.79,0,0,0-5,1.25c-.47.38-.47.8.45,2.63a6.59,6.59,0,0,1,.95,2.86,4.6,4.6,0,0,1-1.05,3.38c-.11.15-.24.31-.37.51l-.6.9-1-.32a.71.71,0,0,0-.35.21.56.56,0,0,0-.15.44c0,.07.1.27.45.54l6.47,5L293.23,68c-.85,1.8-3.8,2.29-6.93,2.53-.58,0-.44,2.27-.36,3.6a18,18,0,0,1,0,3.27c-.41,3.15-2.26,4.61-4.56,6,.63,1.27,1.94,3.62,4,7a4,4,0,0,1,3,1.84c.71.24,1.36-.19,2.65-1.36a6.21,6.21,0,0,1,2.19-1.5l.85-.26.6.65a5.23,5.23,0,0,0,5.85,1.12c2.85-1.19,4.42,1.5,5.35,3.11a6.2,6.2,0,0,0,1.2,1.69l.63.11.11-2.56L310,94.95a46.67,46.67,0,0,0,7.27,2.92l1.65.55-.87,1.5c-3.88,6.66-4,9.29-3.75,9.68.18.22.43.5.72.83,2.38,2.69,7.95,9,8.86,18.09.61,6.07-.3,12.79-1,17.69a34.36,34.36,0,0,0-.57,6.59c.36,2.08-.12,8.18-.75,15.34-.14,1.59-.28,3.21-.35,4.25,2.52.51,5.42,1,8,1.37,7.65,1.19,9.5,1.59,10.13,2.85a4.24,4.24,0,0,1,.35,2.11,3,3,0,0,0,.74,2.37,8.34,8.34,0,0,0,2.14,1.8c.94.62,2.11,1.38,2,2.82h0a2.82,2.82,0,0,1,1.06,3c-.51,2.55-1.65,3.22-4,3.76a29.83,29.83,0,0,0-3.59,1.15c0,.78-.06,1.78-.06,1.95,0,.57-.25.92-1.08,2.08a17.85,17.85,0,0,0-1.57,2.45c-.41,1.07-3.22,5.65-4.57,6.4-.67.38-2.46,1.11-4.38,1.9l-.88.36c-.25.1-.69.34-1.16.6-1.94,1.05-3.41,1.79-4.63,1.59l-1.2-.19v-1.21a51.63,51.63,0,0,1,.33-5.4c.14-1.39.33-3.29,0-3.61l-.1-.11c-.65.26-1.67.63-3.29,1.14L311,203.06c.4,1.92,1.13,5.38,1.2,5.7.18.88.24,1.21-4.63,4.82a54.91,54.91,0,0,1-5.52,3.7c-1.58.69-16.49,4.4-23.28,4.69a37.5,37.5,0,0,0-6.35.93c-3.38.71-6.57,1.38-10.94.4-5.12-1.14-12.25-2.05-15.3-2.44l-.33,0c-.67,1.6-1.21,3-1.66,4.09-1.07,2.71-1.66,4.2-2.52,5.05a79.35,79.35,0,0,1-7.16,4.94c-.16,1.21-.63,3-2,3.55a2.28,2.28,0,0,1-2-.1c-.3.06-.59.1-.86.13a4.41,4.41,0,0,0-.91.17s0,.15,0,.39l.14,1.35-1.34.21-.19,0a1.83,1.83,0,0,1-1.64-.08l-.82-.32a3.3,3.3,0,0,1-.34,1c-.83,1.56-3.82,4.14-5.3,4.31l-.51,0a16.67,16.67,0,0,0,.11,3.37l.07.45-.2.4a3.21,3.21,0,0,1-2.13,1.75,4.51,4.51,0,0,1-3.43-.79,13.65,13.65,0,0,1-1.49.4c-1,.23-1,.29-1.11.49a3.62,3.62,0,0,0-.1.88A2.61,2.61,0,0,1,209.4,255a2.76,2.76,0,0,1-2.5-.17,7.38,7.38,0,0,0,0,.91,15.66,15.66,0,0,1-.1,2c-.33,2.74-5.06,9.79-5.43,10.16-.22.24-2.12,2.58-3.67,4.47a11.48,11.48,0,0,1,2.34,7,8,8,0,0,0,1.29,4.1l.65,1.2c.3.57.55,1,.73,1.28.88,1.45.86,1.87.36,3.84l-.14.56c-.16.62-.36,1.24-.57,1.84a12.12,12.12,0,0,0-.59,2.14,4.54,4.54,0,0,0,1.22-.13l.17,0c.78-.07,1.4-.14,1.91-.21,2.65-.32,3.39-.15,4.6,2.27,1.11,2.22,4.94,11.24,5.43,13.91s.45,3.35-.8,6.62-2.09,5.17-3.11,6.29-18.76,12.38-18.94,12.5l-1.22.77-.84-1.4c-15.55-25.7-15.6-25.86-15.68-26.09s-1.27-2.72-2.65-3.51c-.68-.34-3.63.53-5.21,1a18.63,18.63,0,0,1-4.6,1c-.83,0-1.8.86-2.83,1.78a12.14,12.14,0,0,1-3.72,2.53l-.86.31c-2.53.89-3,1.17-2.88,2.76l.16,2.65-2.29-1.35a1.17,1.17,0,0,0-1.12.05,2.24,2.24,0,0,0-1,1.92c-.06,1,1.82,4.62,2.95,6.78,2.36,4.53,3.14,6.16,2.35,7.39a1.75,1.75,0,0,1-1.56.79,7.24,7.24,0,0,0-2.38.2c-.53.11-1.21.26-2.28.42a6.11,6.11,0,0,0-2.73,1.44,8.32,8.32,0,0,1-4.49,2l-1.76.16.23-1.75c.17-1.33,0-2-.26-2.11-.64-.41-2.83.35-4.34,1.3l-2.87,1.8.73-3.31c.06-.35.08-1.28-1.26-1.73-.57-.19-.76-.05-.83,0-.43.31-.87,1.49-.87,3.42v1.47l-1.47-.06h-.2c0,.14,0,.33-.07.48a4.56,4.56,0,0,1-.72,2.22l-.87,1.21-1.17-.93c-2.45-1.95-4.79-.88-6.85.07a12.07,12.07,0,0,1-1.88.74A4.53,4.53,0,0,1,113.68,340.25Zm-9.37-14.38c.44.42.91.94,1.41,1.47,1.07,1.16,2.68,2.9,3.6,3.12.26.06.6.11,1,.16,1.79.25,4.48.63,5.48,2.69a4.17,4.17,0,0,1,0,3.32c1.9-.86,4.75-2,7.78-.68a2.77,2.77,0,0,1,1.71-2.32c.15-1.68.64-3.52,2-4.49a3.58,3.58,0,0,1,3.38-.38,4.46,4.46,0,0,1,2.89,2.53c1.62-.71,3.87-1.32,5.48-.29a3.62,3.62,0,0,1,1.59,2.79,11.53,11.53,0,0,0,1.46-1,8.64,8.64,0,0,1,4-2c1-.16,1.64-.29,2.13-.4a10.85,10.85,0,0,1,1.65-.26c-.47-1.11-1.35-2.8-2-4-2.1-4-3.37-6.59-3.26-8.26a5,5,0,0,1,2.55-4.25,4.22,4.22,0,0,1,1.89-.5c.58-2.37,2.71-3.12,4.63-3.79l.82-.29a9.87,9.87,0,0,0,2.81-2c1.38-1.22,2.81-2.49,4.71-2.49a18.64,18.64,0,0,0,3.8-.9c3-.88,5.74-1.71,7.42-.75,2.19,1.25,3.55,4.17,3.86,4.91.28.5,3.12,5.26,14.83,24.61,4.75-3,16.09-10.31,17.15-11.25a23.13,23.13,0,0,0,2.54-5.38c1.08-2.83,1.07-2.87.66-5.09s-4-10.85-5.18-13.16c-.1-.2-.32-.64-.46-.84a10.83,10.83,0,0,0-1.27.12c-.51.06-1.14.14-1.92.21-1.22.25-2.91.42-3.92-.71-1.15-1.29-.52-3.17.09-5,.19-.55.38-1.12.5-1.63l.14-.57a9,9,0,0,0,.26-1.18l-.3-.49c-.2-.34-.47-.78-.81-1.41-.24-.45-.45-.83-.63-1.16a10.62,10.62,0,0,1-1.63-5.19v-.12c-.15-4.4-2.13-5.86-2.22-5.92l-1.23-.87.93-1.19c1.87-2.31,4.13-5.09,4.61-5.62.67-.86,4.48-6.85,4.69-8.56a12.92,12.92,0,0,0,.08-1.67,6.05,6.05,0,0,1,.93-3.64l.74-1.23,1.22.76c.32.2.58.34.78.45a4.94,4.94,0,0,1,.24-1.37c.61-1.73,2-2,3.16-2.31a8.47,8.47,0,0,0,1.7-.52l.76-.35.67.5c.89.66,1.49.83,1.75.77h0a22.38,22.38,0,0,1,.08-4.83l.19-1.37,1.37.15a7.19,7.19,0,0,0,1.27,0,9.81,9.81,0,0,0,3.18-2.83,1.29,1.29,0,0,0,.05-.66,2,2,0,0,1,.68-1.88,2.72,2.72,0,0,1,2.67.06l.61.23c.58-1.66,2.42-1.88,3.22-2a4.12,4.12,0,0,0,.87-.16l.79-.34.44.36a6.75,6.75,0,0,0,.29-1.55l0-.72.61-.39c2.64-1.67,6.64-4.31,7.25-4.92a18.85,18.85,0,0,0,1.89-4.09c.54-1.37,1.22-3.08,2.11-5.16l.48-1.11,1.17.29,1.23.16c3.08.39,10.31,1.32,15.56,2.49,3.77.84,6.54.26,9.74-.41a39.79,39.79,0,0,1,6.81-1c6.31-.27,21-3.89,22.26-4.45a73.87,73.87,0,0,0,8.37-6c-.37-1.76-1.32-6.26-1.32-6.26l-.27-1.26,7.08-2.21c2-.64,3.06-1.05,3.6-1.27a2,2,0,0,1,1.71-.16,1.61,1.61,0,0,1,.85,1,.53.53,0,0,0,.14.22c1.16,1.25,1,3.17.7,5.82-.1,1-.21,2.07-.27,3.25.59-.28,1.22-.62,1.59-.83.56-.3,1-.56,1.43-.73l.9-.37c1.22-.5,3.49-1.43,4.08-1.75a24.91,24.91,0,0,0,3.3-4.94,16.62,16.62,0,0,1,1.91-3.08c.19-.27.42-.59.56-.8,0-.81.08-2.61.08-2.61l0-.91.84-.35a36.77,36.77,0,0,1,4.89-1.63c1.61-.37,1.62-.41,1.85-1.55a1.25,1.25,0,0,0,0-.19l-.13-.11a2.48,2.48,0,0,1-1-2.12c-.17-.14-.47-.34-.71-.49a11,11,0,0,1-2.81-2.42,5.8,5.8,0,0,1-1.35-4.19,5.32,5.32,0,0,0,0-.56,61.89,61.89,0,0,0-8.08-1.54c-3-.47-6.51-1-9.36-1.65l-1-.22-.1-1c0-.53.06-1.92.4-5.76.41-4.76,1.1-12.72.78-14.61-.25-1.47.08-4,.56-7.45.64-4.77,1.53-11.3,1-17-.82-8.19-5.78-13.8-8.16-16.5-.32-.36-.58-.66-.79-.91-.61-.74-2.18-2.65,2.64-11.41-1.37-.49-3.17-1.15-4.58-1.78-.42,1.33-1.21,2.39-2.39,2.42-.86,0-1.88-.44-2.28-2.62a7.53,7.53,0,0,1-2.08-2.63c-1.06-1.83-1.4-2.09-1.81-1.92a8.12,8.12,0,0,1-8.14-1l-.54.48c-1.33,1.21-3.56,3.23-6.37,1.52l-.58-.35-.05-.5h0s-.26-.46-1.4-.46h-.8l-.41-.68c-2.12-3.48-4.72-7.92-5.1-9.33l-.28-1,.94-.54c2.93-1.7,4-2.48,4.24-4.53a16.35,16.35,0,0,0,0-2.73c-.16-2.53-.39-6.34,3-6.6s4.38-.77,4.58-.94a2,2,0,0,1,.6-1.1,3,3,0,0,1-.08-.53,3.4,3.4,0,0,1,1.35-2.94,3.44,3.44,0,0,1,1.65-.69c.38-.5.47-.62.47-1.66a5.71,5.71,0,0,0-.64-1.58c-.77-1.53-2.22-4.38.61-6.35l.17-.12.2-.07a45.43,45.43,0,0,1,4.51-1.21,13.54,13.54,0,0,1,.43-2.25c-2.58,0-6.1-.49-7.76-2.76-.79-1.09-1.5-1.95-2.13-2.7-1.16-1.39-2-2.4-2.23-3.61l-.15-.73c-.32-.12-.84-.31-1.66-.58-.59-.2-1.09-.38-1.53-.54-1.84-.67-2-.68-2.68-.24a4.4,4.4,0,0,0-.67.45s-.05.13-.1.25a13.77,13.77,0,0,1-.94,1.91L279.36,41a33.37,33.37,0,0,1-4.14,6.3c-1.73,1.73-6.75,6-10.43,7.53-.64.26-1.28.55-1.92.83-3.13,1.39-6.36,2.83-9.38,1.64-3.62-1.43-7.64-4.54-9.71-6.26a40.76,40.76,0,0,1-4.68-4.7c-.5-.57-1-1.11-1.47-1.63-.72-.75-1.54-1.53-2.33-2.28a30.86,30.86,0,0,1-2.78-2.84l-.35-.44c-2.59-3.23-5-6.55-4.89-8.9,0-.42,0-1,.08-1.65.13-2.49.43-8.33,0-9.75-.15-.48-.35-1.13-.57-1.84-.32-1-.83-2.68-1.21-3.83-2.42,1.4-7.88,4.73-12.81,7.74C204,26.23,200,28.66,198,29.77a9,9,0,0,1,.4,4.59,8.38,8.38,0,0,0-.05,1.87c.07.36.13.86.19,1.45.26,2.28.73,6.52,3.07,7.69,3.12,1.56,12.82,7.62,14,8.86h0c.25.25,1.94,1.63,3.74,3.1,6.8,5.56,13.57,11.15,15,13.17a20.66,20.66,0,0,1,3.92,10.69c.29,3.92,0,6.1-2.51,8.6-1,1-2.92,2.52-5.14,4.27A82.49,82.49,0,0,0,224,99.66l-.94,1c-1.8,1.8-2,2-2.23,5-.28,4.08-2.4,24.14-3,28.63s-4.82,19.11-6.65,21.66c-1,1.44-3.52,2.36-6.38,3.42-2.55.94-5.44,2-6.49,3.25a26.15,26.15,0,0,1-3.66,3.35c-1.49,1.19-3,2.43-3.19,3.38l0,.22A79.37,79.37,0,0,1,189,180.25a34.9,34.9,0,0,0-1.39,5.93l-.08.57-.46.36c-.33.26-1.53.93-5.63,1.74s-11.09,2.61-11.16,2.63l-1.31.34-.4-1.29c-.17-.53-4-13-4.68-15.43-.26-1-4.23-3.07-6.14-4.06-1.08-.56-2.06-1.07-2.86-1.54-.31.34-.64.73-1,1.16-2.23,2.7-5.6,6.77-13.92,5.5-8.18-.37-25.17-5.6-29.12-6.85-3.59,3.43-7.44,7.5-7.8,8.52-.85,2.18-3.46,3.15-4.84,3.52-.49,1.26-1.34,2.78-2.65,3a8,8,0,0,1-1.56.07,4.82,4.82,0,0,0-1.88.2,2.89,2.89,0,0,0-1.31,1.42l-.24.4c-.57.92-1.81,1.19-3.37,1.54a12.75,12.75,0,0,0-2.26.64c-1.31.62-1.22,1.13-.93,1.85.8,2,1.15,5.71-.63,7.33l-.61.56a40.35,40.35,0,0,1-3.73,3.26l-.12.09a3.68,3.68,0,0,1-2.85.95,3.08,3.08,0,0,1-2.06-1.48c-.35-.54-.6-1-.8-1.39-.36-.67-.49-.91-.82-1.06a19.57,19.57,0,0,0,1.36,2.9c1.13.74,2.05,3,2,4.88-.08,1.53-.45,3.34-2.69,3.79-2,.41-3.79-1-5.19-4.08-.49.33-1,.73-1.52,1.1.92,1.54,2.33,4.28,2.18,6.36-.21,2.87-4,6-6.81,6.95l0,.47c.22,2.33.55,5.83-3,8-2.79,2.1-4.85,2.74-6.28,2a2.46,2.46,0,0,1-.34-.23,6.4,6.4,0,0,0-1,4.56c.23,2.43.51,6.83-.11,8.94-.45,1.55-1.47,5-5.28,5.13A14.41,14.41,0,0,0,40.64,251c-.83.88-3.28,3.24-5.71,3.39-.5,1.25-1,2.54-1.52,3.74-.94,2.29-2,4.88-2.11,5.38-.14,1.17-1.78,2.45-3.22,2.88a4.18,4.18,0,0,1-1.5.18c0,6,0,11.65,0,11.72v.66l-.51.42c-.74.61-3.31,2.54-5.35,1.9a57.54,57.54,0,0,0-6-.77l-.18,0c-.25,5.27-.47,12.29-.47,12.37l0,1.37H7.78c-.76,4.79-1,9.29-.53,10.52a37.16,37.16,0,0,0,6.21-.37c1.33-.14,2.31-.25,3-.28.19-.42.34-.82.47-1.19.39-1.06.95-2.55,2.5-2.83a8.09,8.09,0,0,1,4-4,3.11,3.11,0,0,1,3.13.43l.17.16c.36.4.73.9,1.12,1.42,1.69,2.26,3.15,4,5.1,3.65l.71-.85c1.8-2.16,3.85-4.6,7-2.21l.25.24c1,1.27,3.36,2.18,6.19,1.19a6.64,6.64,0,0,0,3-2.23c.69-.79,1.46-1.69,2.77-1.6,1.88.13,4.14.84,5.06,5.16a14.49,14.49,0,0,0,2.16,1.7,6.94,6.94,0,0,1,2.69,2.57l.15.37a13.22,13.22,0,0,1,1.24,5,13.42,13.42,0,0,0,2.58,0,12.22,12.22,0,0,1,4.78.44,4.09,4.09,0,0,0,1.18.29c1-.38,1.58.25,2.35,1.12a4.77,4.77,0,0,0,2.55.76,7.26,7.26,0,0,1,3.22.93,7.35,7.35,0,0,1,2.54,2.8c1.83-1,3.7-1.83,5.43-1,1.32.65,2.15,2.09,2.61,4.53a.7.7,0,0,0,.17.1,4,4,0,0,0,.67-1.17l.26-.62.92-.28c1.28-.4,3.93-1.24,6.5.19C101.91,320.28,103.39,322.53,104.31,325.87ZM28.49,263.08h0Zm.09-.3Zm43.85-58.64h0Zm-.24-.14Zm1.3-2.49h0Zm261.88-6.45Zm7.62-7.11ZM213.47,56.05l.05.07Z"/></svg>