<svg id="Layer_1" data-name="Layer 1" xmlns="http://www.w3.org/2000/svg" viewBox="0 0 350 350"><defs><style>.cls-1{fill:#999;}.cls-2{fill:#f90;}</style></defs><title>M</title><path class="cls-1" d="M340.91,101.93l-3.49-9.31a1.89,1.89,0,0,0-2.94-.93q-.9-8.55-2.66-17a12.12,12.12,0,0,1,3.65.89c1.92.62,2.9-1.79,1.81-3.11-3.44-4.16-7.27-8-13-7.71-7.89.42-15.68,3.13-23.68,3.59-13.37.77-29-3.82-41.08,3.75a1.88,1.88,0,0,0-.38,2.92c3.18,3.11,7.94,7.8,5.44,12.74-.89,1.77-3.13,2.52-3.81,4.51-.63,1.83.31,3.1.4,4.87.31,6-3.8,6.27-7.74,8.28-4.47,2.28-5.76,5.88-7.3,10.43s-3.16,9.38-4.73,14.07c-.06-.09-.14-.19-.19-.28a3.63,3.63,0,0,0-1.73,1.08,1.11,1.11,0,0,0-.21.39c-.53,1.34-1.32,1.93-4.94,2.81a26,26,0,0,1-5.24.92c-.61,0-1.3.09-2.53.27a29.23,29.23,0,0,1-5.2.14,10.94,10.94,0,0,0-2.8.09,6.55,6.55,0,0,1-1.1.43l-.21.07s-.09.14-.35.76c-.38.9-.73,1.56-1,2.08a6.54,6.54,0,0,0-.66,1.49,3.64,3.64,0,0,1-2.15,2.58l-.33.18c-1.37.78-7.92,1.89-10.61-1.16a16,16,0,0,1-1.28-1.64l-.11-.16-.8-.13-.55-.08c-4.51-.71-5.75-3.05-6.08-4.38a8.52,8.52,0,0,0-.53-1.42,3.34,3.34,0,0,1-.22-3.14,1.27,1.27,0,0,0,.13-.37,4,4,0,0,1,1.64-2.28,3.16,3.16,0,0,0,1.22-1.6c.09-.23.18-.48.32-.77a4.22,4.22,0,0,0,.26-1.5,5.84,5.84,0,0,1,.18-1.36l.06-.19a1.8,1.8,0,0,1,1-1.28c.11-.06.27-.15.52-.31a4.68,4.68,0,0,0,.57-.41c-.28-.55-.61-1.28-.8-1.74-4.7-3.47-9.94-7.16-11.19-7.77a13.08,13.08,0,0,0-3.53,1.22c0,.08-.06.2-.08.28a2.79,2.79,0,0,1-2.82,2.34,13,13,0,0,1-4.17-1l-.73-.3L175,113c0-.23-.24-.81-.56-1a13.61,13.61,0,0,0-2-.65c-.35-.09-.66-.17-.9-.25a4.91,4.91,0,0,1-1.89-1.46c-14.68,6.09-36.75,9.47-42.95,24.39a1.84,1.84,0,0,1,.81.81,3,3,0,0,1,.3,1.21,24.37,24.37,0,0,0-2.53,4.63c-.61,1.42-1.23,2.75-1.9,4a28.35,28.35,0,0,1-9.67,8.12c-1,.54-2.24,1-3.41,1.62-.48.17-1.09.38-1.89.63l-3.44,1.08c.33,1.55.85,4.05.9,4.3.11.57.05,1-.83,1.78-2.5,1.48-5,3-7.53,4.41a1.71,1.71,0,0,0-.91,1.23c-3.3,1-12.87,3.21-17.55,3.41a29.6,29.6,0,0,0-5,.74,19.22,19.22,0,0,1-8.81.32c-4.06-.9-9.73-1.63-12.15-1.94H53c-.5,1.19-.9,2.2-1.24,3.06-.87,2.19-1.34,3.39-2.06,4.11a60.39,60.39,0,0,1-5.64,3.9c-.15,1-.57,2.42-1.7,2.91a2.06,2.06,0,0,1-1.72,0l-.62.09-.48.07s0,.05,0,.09l.14,1.32-1.32.2-.11,0a1.68,1.68,0,0,1-1.48-.07l-.36-.15a2.81,2.81,0,0,1-.23.56c-.7,1.32-3.15,3.42-4.42,3.56l-.18,0a12.58,12.58,0,0,0,.1,2.38l.07.44-.2.4a2.82,2.82,0,0,1-1.87,1.53,3.78,3.78,0,0,1-2.82-.6c-.41.13-.77.22-1.09.29a3.48,3.48,0,0,0-.7.2,4.34,4.34,0,0,0-.05.64,2.31,2.31,0,0,1-1,2.18,2.24,2.24,0,0,1-1.87,0c0,.1,0,.21,0,.33a12.72,12.72,0,0,1-.08,1.63c-.28,2.3-4.11,7.95-4.4,8.23s-1.43,1.73-2.76,3.37a9.5,9.5,0,0,1,1.78,5.58,6.11,6.11,0,0,0,1,3.15l.52,1c.24.45.43.76.57,1,.77,1.28.71,1.7.31,3.25l-.11.44c-.12.48-.29,1-.46,1.49s-.32.95-.41,1.34a5.2,5.2,0,0,0,.6-.1l.17,0c.62-.05,1.11-.11,1.51-.16,2.22-.27,2.92-.07,3.93,1.95.85,1.7,3.93,8.9,4.34,11.13s.36,2.77-.65,5.4a17.67,17.67,0,0,1-2.52,5.09c-.63.7-8.25,5.61-14.7,9.72a15.23,15.23,0,0,0-.87,4.68,6.94,6.94,0,0,0,1.19,2.68,10.54,10.54,0,0,1,1,1.86l.11.3-.06.58a5.59,5.59,0,0,1-2,4.16c.1.14.21.27.33.42a4.24,4.24,0,0,1,1.14,2.45c0,.52.07.69.09.77a2,2,0,0,1,.06.57L12,280a8.86,8.86,0,0,1,2.61,2.31,7,7,0,0,1,1.51,3.43,3.72,3.72,0,0,0,.36,1.2,16.16,16.16,0,0,1,.71,1.64,10.62,10.62,0,0,0,.59,1.33l.23-.15a5.88,5.88,0,0,1,3.42-1,5.7,5.7,0,0,1,4.21,1.29c.27.19.59.42,1,.68a13.67,13.67,0,0,1,3.94,3.33,5.31,5.31,0,0,1,.55.79c1.83-.84,4.4-1.59,5.91-.08l.85.88c.72-.94,1.68-2.17,2.28-2.85l.37-.43.57,0a7.94,7.94,0,0,1,5.65,1.92c2.65,1.45,6.83,4.19,6.38,6.83l-.13.73-.68.3a7.76,7.76,0,0,0-.73.37,3,3,0,0,1,2,2.77,2.63,2.63,0,0,1,2,.91c.76,1,.6,2.31.3,3.57a5.12,5.12,0,0,1-.46,3.09c-.09.2-.19.42-.29.71a8.83,8.83,0,0,0-.14,3.64,3.47,3.47,0,0,1-.23,1.61l0,.08a3.67,3.67,0,0,0,.5.24,8.34,8.34,0,0,0,7.8-1.14c.68-.51,1.31-1,1.92-1.53,2.12-1.75,4.1-3.36,6.59-3.33a2.68,2.68,0,0,0,3-2.43c.28-2.07,2.61-5.14,5-8a9,9,0,0,0-2.13-2.1l-2.34-1.55,2.64-.93a35.48,35.48,0,0,0,4-1.63l.2-.35c.3-.51,1.11-1.88,1.24-2.19a16.49,16.49,0,0,1,2.39-3.75A4.46,4.46,0,0,1,89,288.68a5.22,5.22,0,0,1,2.47,1.08,12.58,12.58,0,0,0,2.19,1.17,8.37,8.37,0,0,1,3.67,2.45,4.29,4.29,0,0,0,.52.43c.89.65,1.65,1.4,1.24,3.45-.14.68-.19,1.21-.25,1.73a10.61,10.61,0,0,1-.53,2.6c-.09.24-.07.32.2.87a4.82,4.82,0,0,1,.6,2.23c0,.41,0,.85.07,1.31a10.49,10.49,0,0,1-.29,4.31c-.3.85-.84,2.21-1.31,3.37a29.37,29.37,0,0,0,3.38-.56,23,23,0,0,0,1.2-4.76c.12-.65.22-1.21.31-1.59.06-.23.1-.51.16-.82.32-1.79.92-5.12,4-5.12,2.79,0,3.52.45,4.91,3.53a4,4,0,0,0,2.93-.68c0-.08,0-.23,0-.34a2.4,2.4,0,0,1,.82-1.82,2.56,2.56,0,0,1,2-.39c1.66.25,2.84.22,8-.51a4.91,4.91,0,0,0,2.18-.51c1-1.1,1.94-.52,3.34.35.71.44,1.2.8,1.55,1.06l.2-.18a3.12,3.12,0,0,1,4.19,0,5,5,0,0,0,.57.34c.11-.08.26-.21.39-.32a5.54,5.54,0,0,1,3.48-1.57h.17c1.32-.08,2-.12,2.59.43a2.06,2.06,0,0,1,.6,1.6,6.52,6.52,0,0,0,.07.83c.09.55.25.66.72,1a4,4,0,0,1,1.29,1.3,13.66,13.66,0,0,1,1,2.79c1.65-.26,5.19-1,8.39-1.63,3.34-1,12.2-3.8,14-4.81s5-1.21,7.66-1.34c1.08-.05,2.1-.1,2.87-.2a40.53,40.53,0,0,0,5.43-1.66c3.06-1.06,6-2.06,7.55-2.06a7.72,7.72,0,0,1,3.1.64,2.82,2.82,0,0,0,1.06.28c3.7-3.1,7-4.36,9.84-3.75a4.39,4.39,0,0,1,4.48,3.35c.08.24.51.38,1.16.57a4.13,4.13,0,0,1,1.85.92,1.17,1.17,0,0,0,.3.23,1.74,1.74,0,0,1,.94,1.83c.14.09.33.18.45.24l.2.1c.34-.08.85-.21,1.42-.36a4.29,4.29,0,0,1,1.25-4.35c-.09-1.16,0-2.54,2-4.34a16,16,0,0,0,1.58-3.49,12.92,12.92,0,0,1,1.9-3.91,8.34,8.34,0,0,1,2.16-1.69,3.09,3.09,0,0,1,.66-1.58c.09-.14.22-.32.31-.49a8.91,8.91,0,0,1-3-5.6,20,20,0,0,0-3.72-1.63,7.34,7.34,0,0,1-1.16-.46c-.93-.52-4.21-3.31-4.21-6.38a4.2,4.2,0,0,1,.47-2.3c0-.07,0-.16-.06-.27a9.94,9.94,0,0,0-.44-1.18c-.68-1.65-1.82-4.41.3-6.84l.81-.9.31-.34c-1.67-.93-2.6-2.18-2.56-3.44a3,3,0,0,1,2.06-2.58c2.49-1.12,11.59-3.11,13.54-3.38a11.73,11.73,0,0,0,1.2-.24,3.1,3.1,0,0,1,3.81,1.28l0,0a3.9,3.9,0,0,1,1.6-1c.73-.21,2.25-.62,3.43-.92l-.2-.48a2.08,2.08,0,0,1-.45-.81,3,3,0,0,1,.09-1.79c-1.46-.16-2.45-.82-3.09-3.44-.71-2.14-1.42-4.35,1.1-5.75a8.61,8.61,0,0,1,1.44-.64,15.3,15.3,0,0,0-1-3.33,4.58,4.58,0,0,1-1.82-3.89,2.79,2.79,0,0,1,1.06-1.8,19.94,19.94,0,0,1,3.91,1.49,7.68,7.68,0,0,0,3.77,1.06,3.82,3.82,0,0,0,2.58-1.25c1-1.16.49-3.24,2-1.46,1.1,1.31,3.11.17,3.17-1.31l0-1.2a8,8,0,0,1,1.78.56,3,3,0,0,1,0-1.2c.33-1.37,1.58-2.5,3.8-3.47,3.87.47,6.6,1,7.95,5,.47,1.39,2,7.63,0,9.77a13.32,13.32,0,0,1-3.95.3c-2.22-.14-2.34,3-.49,3.65a5.91,5.91,0,0,0,4.92,0,16.77,16.77,0,0,0,3.81-.92c3.55-1.32,4.63-3,8.62-2.6,2.25.21,4.23.72,6.54.38,3.82-.58,7.36-3.89,10.95-2.31,3.91,1.73,2.3,4.46,4.39,7.43.72,1,1,1.51,2.38,1.59,3.5.21,4.66-4.49,6.85-7.45l.56-.35c.09,0,.18,0,.27,0,.85,0,1.29-.39,1.83-1.49l1-.8a1.56,1.56,0,0,0,.43-1.92c1-1.27,2.48-2.18,5.26-2.56a6.35,6.35,0,0,1,6.15-.76c.34-.54.72-1.22,1.1-1.89,1.19-2.1,2.53-4.48,4-5.51a9.52,9.52,0,0,1,4.83-1.42,7.22,7.22,0,0,0,1-.12l.72-.26.45-.16c-1.32-3.95-4.89-16.07-4.26-23.08l-.05,0c-2.16-1.51-6.13-4.29-4.85-10.11a14.8,14.8,0,0,0-2.59-4l0,0a24.46,24.46,0,0,0-3.11,5.39l-.32.73-.79.1a26.71,26.71,0,0,1-6.87-.23,5.44,5.44,0,0,0-2.83.46c-2,.68-4.49,1.53-9.29,0a26.08,26.08,0,0,1-4.42-2,2,2,0,0,1-1.3.83c.1-.11.21-.2.31-.32l.37-.46.16-.08.55-.37c2.17,1.26,4.77.33,7-1a1.85,1.85,0,0,0,.47-2.77,11,11,0,0,0,2.83-.85c4.75-2.28,2.07-5.5,2.23-9.68,0-.75.09-1.48.15-2.2a5.75,5.75,0,0,0,2.32-1.23,1.88,1.88,0,0,0,0-2.63l-2.63-2.85a7.48,7.48,0,0,0-1.85-2.83c0-.38.09-.64.09-.66.18-1.2.38-2.38.45-3.6.31-5.09.11-8.83,3.5-13,3-3.69,6.3-6.61,7.23-11.47a2,2,0,0,0,0-.23,1.85,1.85,0,0,0,.38-1.54c-.73-4-1.59-9.51,2.51-12,2.4-1.45,5-1.85,7.27-3.43a7,7,0,0,0,2.9-1.9l5.72-1.61A1.87,1.87,0,0,0,340.91,101.93Z"/><path class="cls-2" d="M58,321a8.84,8.84,0,0,1-3.33-.62,4.86,4.86,0,0,1-.7-.34l-1-.61.41-1.1a2.27,2.27,0,0,0,.19-1,9.71,9.71,0,0,1,.22-4.3c.11-.3.22-.54.31-.75a3.81,3.81,0,0,0,.37-2.42l0-.23.05-.23c.18-.77.38-1.84,0-2.35-.14-.17-.36-.34-1-.38l-1.26-.08-.07-1.26c0-.73-.23-1.08-1.24-1.59l-2.33-1.18,2.25-1.31a9.07,9.07,0,0,1,.85-.44c.15-1-1.24-2.92-5.66-5.33l-.25-.18a6.53,6.53,0,0,0-4.59-1.57c-.62.72-1.65,2-2.21,2.77l-1,1.31-2-2.07c-1-1-3.33-.06-4.29.38l-1.19.55-.64-1.14a4,4,0,0,0-.4-.58,12.36,12.36,0,0,0-3.63-3c-.42-.28-.75-.51-1-.71a4.37,4.37,0,0,0-3.39-1,4.5,4.5,0,0,0-2.67.81l-1.42,1-.77-1.27a10.74,10.74,0,0,1-.69-1.55,15.15,15.15,0,0,0-.65-1.5,5,5,0,0,1-.5-1.61,5.65,5.65,0,0,0-1.24-2.82,7.48,7.48,0,0,0-2.23-2l-.9-.58v-.76a.76.76,0,0,0,0-.24,8.17,8.17,0,0,1-.12-1A2.87,2.87,0,0,0,9.39,277c-.15-.18-.29-.35-.4-.52l-.7-1,.91-.84a4.21,4.21,0,0,0,1.5-3.26l0-.26a9.57,9.57,0,0,0-.86-1.6,8.11,8.11,0,0,1-1.39-3.27A16.62,16.62,0,0,1,9.39,261l.16-.49.43-.28c12.13-7.72,14.14-9.22,14.44-9.5a17.52,17.52,0,0,0,2.22-4.62c.94-2.47.94-2.72.58-4.64s-3.37-9.07-4.21-10.75c-.68-1.36-.73-1.39-2.49-1.17-.42,0-.93.11-1.56.17h-.08a5.71,5.71,0,0,1-.68.11l-1.93.18.41-1.89c.1-.46.29-1,.44-1.46s.32-1,.44-1.41l.11-.45c.34-1.35.34-1.35-.15-2.17-.15-.25-.36-.59-.61-1.07l-.43-.8-.08-.14a7.37,7.37,0,0,1-1.16-3.67v-.11A8.12,8.12,0,0,0,13.74,212l-.69-.89.71-.87c.42-.52,2.55-3.13,2.81-3.42.58-.71,3.84-5.76,4-7.45a11.37,11.37,0,0,0,.07-1.46l0-2.34,1.86.67c.5.18.67.09.72.06s.26-.33.29-1a4.77,4.77,0,0,1,.09-.92l.13-.53.45-.31a3.33,3.33,0,0,1,1.2-.42c.29-.07.61-.14,1-.25l.61-.2.55.33a2.45,2.45,0,0,0,1.76.44,1.42,1.42,0,0,0,.93-.78,13.81,13.81,0,0,1-.11-2.66l.06-1.25,1.37-.11a7.77,7.77,0,0,0,3.34-2.82,1.4,1.4,0,0,0,.12-.28l.43-1.51,1.77.7a2.12,2.12,0,0,0,.38.13l.21-.08.29-.06v-.16l0-1.21,1.19-.24.54-.08.58-.08.44-.08.41.19a.66.66,0,0,0,.56,0c.38-.17.71-.87.86-1.82l.1-.64.54-.35a52.44,52.44,0,0,0,5.4-3.71A13.05,13.05,0,0,0,50.42,173l0-.12c.33-.84.73-1.83,1.21-3l.42-1,1.08.15c2.49.32,8.19,1,12.33,2a17.79,17.79,0,0,0,8.21-.33,30.73,30.73,0,0,1,5.23-.77c4.35-.18,13-2.18,16.53-3.16a3.3,3.3,0,0,1,1.3-1.29c2.24-1.28,4.46-2.59,6.68-3.91l.69-.41a2.76,2.76,0,0,0,.3-.33c-.1-.53-.59-2.84-.9-4.31l-.27-1.26,4.67-1.46c.74-.23,1.31-.42,1.76-.59s1-.45,1.44-.67c.67-.31,1.31-.6,1.85-.89a26.85,26.85,0,0,0,9.14-7.62c.61-1.19,1.21-2.45,1.81-3.84a26.64,26.64,0,0,1,2.35-4.42,1.32,1.32,0,0,0-.09-.23s-.05-.11-.23-.21l-1.1-.61.49-1.17c5-12,19.62-16.87,32.53-21.16,4-1.33,7.78-2.58,11.18-4L170,108l.67.72a4,4,0,0,0,1.3,1.08c.22.08.5.15.81.23a14.68,14.68,0,0,1,2.25.72,2.79,2.79,0,0,1,1.39,2v0a11.39,11.39,0,0,0,3.61.87c.91,0,1.21-.44,1.46-1.31,0-.1.07-.24.1-.34l.15-.45.39-.27a13.91,13.91,0,0,1,4.14-1.45l.43-.06.39.19c1.44.71,6.92,4.59,11.4,7.91l.31.23.15.35c.17.39.49,1.13.76,1.65l.51,1-.83.73a6.27,6.27,0,0,1-.74.54c-.28.18-.47.28-.59.35s-.27.15-.35.43l-.06.21a4.79,4.79,0,0,0-.13,1,5.35,5.35,0,0,1-.38,2c-.12.26-.2.47-.28.67a4.56,4.56,0,0,1-1.62,2.17c-1,.88-1.09,1.17-1.19,1.54a2.62,2.62,0,0,1-.26.7c-.29.53-.13,1,.26,1.9a9.81,9.81,0,0,1,.6,1.65c.25,1,1.22,2.74,4.93,3.33l.54.08.88.15.54.12.39.56a15,15,0,0,0,1.22,1.57c2.08,2.36,7.8,1.46,8.84.87l.34-.19a2.28,2.28,0,0,0,1.47-1.68,7.72,7.72,0,0,1,.79-1.82c.13-.25.28-.53.44-.84l-3.89-.14,5.48-2.49a2.46,2.46,0,0,1,.34-.12,5.34,5.34,0,0,0,.92-.35c.58-.29,1.42-.31,3.49-.23a27.91,27.91,0,0,0,5-.13c1.3-.19,2-.24,2.63-.28a24.81,24.81,0,0,0,5-.88c3.52-.85,3.69-1.29,4-2a2.46,2.46,0,0,1,.46-.8,4.71,4.71,0,0,1,2-1.36q2.18-6.53,4.38-13c1.51-4.45,2.94-8.65,8-11.24.8-.41,1.58-.74,2.34-1.06,3-1.27,4.83-2,4.63-5.88a7.91,7.91,0,0,0-.28-1.5,6.31,6.31,0,0,1,0-3.9,7.24,7.24,0,0,1,2.43-3.12,5.86,5.86,0,0,0,1.45-1.57c1.89-3.73-1.52-7.52-5.17-11.09a3.19,3.19,0,0,1-.94-2.63,3.4,3.4,0,0,1,1.56-2.5c8.76-5.51,19.18-4.87,29.25-4.26a107.13,107.13,0,0,0,12.5.29,84.55,84.55,0,0,0,11.63-1.78,84.65,84.65,0,0,1,12-1.82c6.57-.37,10.78,4.06,14.22,8.22a3.56,3.56,0,0,1,.18,4.19A3,3,0,0,1,335,77l-.12,0a10.24,10.24,0,0,0-1.3-.45c.87,4.48,1.57,9,2.09,13.42a3.29,3.29,0,0,1,.77.12,3.4,3.4,0,0,1,2.27,2.12l3.5,9.31a3,3,0,0,1-.17,2.41,3.43,3.43,0,0,1-2.08,1.74l-5.35,1.5a8.83,8.83,0,0,1-1.37,1.11,8.4,8.4,0,0,1-1.61.8,19,19,0,0,1-4,1.93,19.68,19.68,0,0,0-3.19,1.45c-3.14,1.9-2.63,6.24-1.85,10.53a3.29,3.29,0,0,1-.41,2.31c-.83,4.32-3.38,7.27-5.86,10.12-.55.64-1.12,1.29-1.67,2-2.72,3.32-2.88,6.33-3.09,10.5,0,.54-.06,1.09-.09,1.66-.07,1.17-.25,2.3-.41,3.39l0,.3a8.66,8.66,0,0,1,1.58,2.55l2.45,2.65a3.53,3.53,0,0,1,.91,2.57,3,3,0,0,1-1,2.1,7.63,7.63,0,0,1-1.9,1.19c0,.4-.06.81-.07,1.22a15.07,15.07,0,0,0,.31,3.13c.44,2.54,1,5.7-3.35,7.78a10.19,10.19,0,0,1-1.62.61,3.23,3.23,0,0,1-.07.94,3.14,3.14,0,0,1-1.5,2,15.88,15.88,0,0,1-2.15,1.07,11,11,0,0,0,7.57-.23,6.66,6.66,0,0,1,3.52-.52,25.53,25.53,0,0,0,6.45.22,25.69,25.69,0,0,1,3.37-5.77l1.06-1.14,1,1.16a16.21,16.21,0,0,1,2.9,4.58l.12.36-.08.37c-1.08,4.89,2.14,7.15,4.28,8.64l.67.47,0,.85c-.55,6.18,2.38,17,4.19,22.5l.44,1.31-1.77.64-.68.24a5.72,5.72,0,0,1-1.38.21,8.23,8.23,0,0,0-4.14,1.17c-1.21.85-2.52,3.17-3.58,5-.42.74-.81,1.42-1.14,2l-.58.92-1-.33c-2.08-.65-3.54-.49-4.87.54l-.3.23-.37.05a6.65,6.65,0,0,0-3.9,1.54,3,3,0,0,1-1.08,2.63l-.78.63a3.18,3.18,0,0,1-2.76,2l0,0a27.2,27.2,0,0,0-1.43,2.4c-1.4,2.54-3,5.42-6.17,5.42h-.32a3.87,3.87,0,0,1-3.41-2.11,10.09,10.09,0,0,1-1.57-3.88c-.35-1.53-.54-2.38-2.28-3.15s-3.56,0-5.7,1a18.54,18.54,0,0,1-4.46,1.46,17.49,17.49,0,0,1-5.17-.16c-.56-.08-1.13-.15-1.71-.21a7.76,7.76,0,0,0-5.07,1.18,25.67,25.67,0,0,1-2.92,1.33,18,18,0,0,1-3.89,1,7.38,7.38,0,0,1-5.83,0,3.49,3.49,0,0,1-2.13-4,3,3,0,0,1,3.21-2.39,12.33,12.33,0,0,0,3-.16c.84-1.66.12-6-.55-8.05-1-3-2.65-3.52-6.39-4-1.55.72-2.44,1.51-2.64,2.34a1.62,1.62,0,0,0,0,.64l.42,2.58-2.32-1a3.55,3.55,0,0,1-2.27,2.44,3,3,0,0,1-2.58-.27,3.85,3.85,0,0,1-.57.86,5.26,5.26,0,0,1-3.52,1.72,8.53,8.53,0,0,1-4.33-1.11l-.16-.07a25,25,0,0,0-2.84-1.18,1.29,1.29,0,0,0-.13.4,3.18,3.18,0,0,0,1.26,2.55l.21.16.14.23a16.57,16.57,0,0,1,1.19,3.77l.27,1.25-1.21.4a7.15,7.15,0,0,0-1.21.53c-1.33.74-1.29,1.53-.44,4.06l0,.11c.54,2.23,1.19,2.3,1.86,2.37l1.74.19-.54,1.66a1.63,1.63,0,0,0-.08.95.67.67,0,0,0,.14.26l.16.18.93,2.21-1.58.41c-1.16.3-2.67.7-3.38.91a2.48,2.48,0,0,0-1,.63l-1.17,1.14-1-1.32c-.82-1.08-1.25-1-2.37-.78a13.05,13.05,0,0,1-1.33.26c-1.85.26-10.82,2.21-13.15,3.27-.8.36-1.21.81-1.23,1.34,0,.68.68,1.51,1.83,2.14l1.56.86-1.5,1.68-.79.88c-1.42,1.63-.84,3.46-.06,5.36a10.85,10.85,0,0,1,.5,1.38c0,.14.06.25.08.33l.11.54-.28.47a2.79,2.79,0,0,0-.27,1.57c0,2.24,2.64,4.67,3.48,5.14a6.68,6.68,0,0,0,.93.36,21.45,21.45,0,0,1,4,1.74l.61.35.09.7a7.54,7.54,0,0,0,2.59,4.8l.71.74-.48.91c-.11.21-.27.44-.38.61a2.08,2.08,0,0,0-.42.84l0,.8-.7.39a6.8,6.8,0,0,0-1.79,1.39,12.46,12.46,0,0,0-1.63,3.45,16.5,16.5,0,0,1-1.77,3.85l-.17.19c-1.63,1.51-1.56,2.48-1.5,3.19l.05.69-.51.47a2.89,2.89,0,0,0-.83,3L220,301l-1.34.36c-.59.16-1.12.29-1.48.37l-.5.11-.62-.32c-.16-.08-.39-.2-.56-.3l-.74-.46.07-.86c0-.31,0-.35-.24-.49a2.59,2.59,0,0,1-.59-.45,3,3,0,0,0-1.25-.56c-.84-.25-1.78-.52-2.1-1.48a3,3,0,0,0-3.21-2.39l-.23,0c-2.38-.51-5.29.65-8.63,3.45l-.4.33h-.52a4.11,4.11,0,0,1-1.57-.38,6.29,6.29,0,0,0-2.58-.54c-1.36,0-4.27,1-7.08,2a39.62,39.62,0,0,1-5.71,1.72c-.83.11-1.88.16-3,.22-2.55.12-5.43.26-7,1.16-2.28,1.29-13.78,4.78-14.27,4.93l-.12,0c-2.91.62-6.66,1.36-8.46,1.64l-1.23.19-.35-1.2a12.94,12.94,0,0,0-.91-2.48,2.69,2.69,0,0,0-.87-.84,2.59,2.59,0,0,1-1.31-1.93,7.51,7.51,0,0,1-.09-1c0-.44,0-.56-.13-.64s-.46-.13-1.55-.06h-.18a4.19,4.19,0,0,0-2.63,1.23c-.15.13-.35.29-.48.39l-.66.47-.74-.33a5.85,5.85,0,0,1-.76-.44c-1-.67-1.65-.85-2.48-.1l-1.06,1-.93-.7c-.38-.29-.82-.6-1.45-1a5.87,5.87,0,0,0-1.4-.74s-.06,0-.15.15c-.43.46-1.12.8-3.1,1-5.21.75-6.46.78-8.28.5a1.26,1.26,0,0,0-.89.11c-.2.16-.24.43-.28.83,0,.16,0,.38-.07.5l-.12.54-.46.32a5.41,5.41,0,0,1-4,.92l-.76-.12-.32-.7c-1.22-2.7-1.5-2.7-3.62-2.7-1.55,0-2.12,1.45-2.56,4-.06.35-.12.65-.18.9s-.18.9-.3,1.51a22.1,22.1,0,0,1-1.33,5.16l-.29.56-.61.16a31.09,31.09,0,0,1-3.58.59l-2.4.29.91-2.23c.6-1.48,1-2.62,1.29-3.3a9.27,9.27,0,0,0,.22-3.74V306c0-.45-.06-.89-.06-1.29a3.46,3.46,0,0,0-.46-1.61,2.27,2.27,0,0,1-.26-2,9.23,9.23,0,0,0,.45-2.26c.06-.56.13-1.14.27-1.87.27-1.33-.07-1.58-.68-2a5.66,5.66,0,0,1-.68-.56,7,7,0,0,0-3.12-2.11A13.4,13.4,0,0,1,90.71,291,5.48,5.48,0,0,0,89,290.1a3.06,3.06,0,0,0-2.31,1.08,16.07,16.07,0,0,0-2.09,3.24,21.82,21.82,0,0,1-1.36,2.46l-.39.67-.32.19a36.11,36.11,0,0,1-4.23,1.73,10.29,10.29,0,0,1,2.47,2.45l.61.89-.7.83c-1.09,1.3-4.41,5.24-4.68,7.25a4.08,4.08,0,0,1-4.42,3.66h-.06c-2,0-3.67,1.39-5.63,3-.62.51-1.28,1.05-2,1.57A9.76,9.76,0,0,1,58,321Zm-1.62-3a7.08,7.08,0,0,0,5.78-1.17c.66-.49,1.28-1,1.87-1.49,2.18-1.8,4.44-3.65,7.41-3.65h.1c1.32,0,1.51-.62,1.59-1.2.24-1.83,1.62-4.19,4.56-7.79a7.87,7.87,0,0,0-1.07-.91L72,298.68l5.33-1.87c1.45-.51,2.84-1.06,3.49-1.37.86-1.45,1.08-1.87,1.14-2a17.75,17.75,0,0,1,2.67-4.18,5.85,5.85,0,0,1,4.4-2,6.24,6.24,0,0,1,3.22,1.29,12.2,12.2,0,0,0,1.89,1,9.78,9.78,0,0,1,4.22,2.79,3,3,0,0,0,.36.28,4.28,4.28,0,0,1,1.79,4.87c-.12.61-.17,1.08-.23,1.58a12.5,12.5,0,0,1-.5,2.64l0,.08a6.22,6.22,0,0,1,.75,2.85c0,.34,0,.7.06,1.08v.13a17.32,17.32,0,0,1,0,2.88l.12-.66c.13-.68.23-1.26.33-1.67,0-.21.09-.45.14-.71.34-1.91,1.13-6.32,5.36-6.32,3.12,0,4.41.72,5.83,3.56a2.53,2.53,0,0,0,.7-.17,3.57,3.57,0,0,1,1.31-2.39,3.85,3.85,0,0,1,3.06-.67c1.41.22,2.37.23,7.54-.51a7.81,7.81,0,0,0,1.48-.22c1.76-1.74,3.62-.59,5,.25l.75.49a4.41,4.41,0,0,1,4.88.15,6.7,6.7,0,0,1,3.91-1.57h.18c1.43-.09,2.56-.16,3.61.79a3.44,3.44,0,0,1,1.06,2.6,5.44,5.44,0,0,0,.05.61l.14.1a5.37,5.37,0,0,1,1.71,1.76,10.42,10.42,0,0,1,.79,1.88c1.73-.31,4.35-.83,7-1.4,4.52-1.37,12.17-3.84,13.64-4.67,2.2-1.23,5.43-1.39,8.29-1.52,1.05,0,2-.1,2.75-.19a41.93,41.93,0,0,0,5.15-1.59c3.33-1.15,6.19-2.15,8-2.15a9.1,9.1,0,0,1,3.62.73l.18.07c3.79-3,7.28-4.25,10.38-3.62a5.68,5.68,0,0,1,5.48,3.85l.38.12A5.41,5.41,0,0,1,216,297a3.59,3.59,0,0,1,.85.66,5.58,5.58,0,0,1,1.26-2.52,6.27,6.27,0,0,1,2.32-4.73,17.46,17.46,0,0,0,1.31-3,13.78,13.78,0,0,1,2.18-4.38,9.34,9.34,0,0,1,1.94-1.63,4.46,4.46,0,0,1,.46-1,9.5,9.5,0,0,1-2.48-4.85,19.34,19.34,0,0,0-2.89-1.2,8.28,8.28,0,0,1-1.4-.57c-1.32-.73-4.93-3.9-4.93-7.62a6.45,6.45,0,0,1,.38-2.44c-.08-.22-.2-.5-.3-.76-.7-1.7-2.16-5.22.54-8.31l.05-.06a4.75,4.75,0,0,1-1.85-3.73,4.33,4.33,0,0,1,2.9-3.82c2.64-1.19,11.88-3.21,13.93-3.49a10.37,10.37,0,0,0,1.06-.21,4.42,4.42,0,0,1,4.35.81,4.88,4.88,0,0,1,1-.43l1.81-.5a4,4,0,0,1-.14-1.09c-1.42-.6-2.3-1.9-2.85-4.1-.68-2-1.77-5.41,1.77-7.38l.47-.25a15.07,15.07,0,0,0-.48-1.57,5.94,5.94,0,0,1-2.09-5,4.21,4.21,0,0,1,1.59-2.71l.53-.42.66.15a21.1,21.1,0,0,1,4.19,1.59l.16.08a6.19,6.19,0,0,0,2.89.85,2.43,2.43,0,0,0,1.64-.78,2.6,2.6,0,0,0,.38-.88,2.11,2.11,0,0,1,1.48-1.72c1.1-.22,1.89.71,2.27,1.16.05.06.08.09.22,0a.67.67,0,0,0,.45-.5l.12-2.84,1.6.29.29.06c.55-1.66,2-3,4.51-4.06l.35-.15.38,0c3.65.45,7.43.91,9.12,6,0,.08,2.53,8.07-.24,11.17l-.3.33-.44.1a15,15,0,0,1-4.36.34c-.24,0-.24,0-.26.15a.67.67,0,0,0,.35.75,4.55,4.55,0,0,0,3.78,0l.22-.11.25,0a15.37,15.37,0,0,0,3.49-.84,23.14,23.14,0,0,0,2.62-1.2,10.52,10.52,0,0,1,6.63-1.48c.63.06,1.23.14,1.83.22a15.1,15.1,0,0,0,4.37.16,16.18,16.18,0,0,0,3.77-1.27c2.4-1,5.13-2.18,8-.94,3,1.35,3.5,3.35,3.9,5.12a7.31,7.31,0,0,0,1.07,2.8c.66.95.66.95,1.31,1,1.51.1,2.46-1.43,3.84-3.94a26.14,26.14,0,0,1,1.79-2.94l.17-.23L310,229l.52-.33.29-.19.35,0a5.23,5.23,0,0,1,.55,0,2.51,2.51,0,0,0,.42-.69l.14-.29.26-.2,1-.78c.07-.05.1-.08,0-.25l-.34-.77.51-.67a8.54,8.54,0,0,1,5.83-3,7.38,7.38,0,0,1,6-1.06l.51-.89c1.3-2.29,2.72-4.82,4.45-6A10.88,10.88,0,0,1,336,212l.5,0c-1.18-3.78-4.26-14.47-3.95-21.46-2.37-1.71-6-4.86-4.9-10.72a11.61,11.61,0,0,0-1.09-1.82,32.35,32.35,0,0,0-1.86,3.6l-.64,1.47-1.59.2a28,28,0,0,1-7.27-.23,4.18,4.18,0,0,0-2.13.4c-2.09.71-4.94,1.69-10.19,0a27,27,0,0,1-3.77-1.61,4,4,0,0,1-1.18.48l-4.5,1.08,3.12-3.42.17-.17.09-.09.54-.67.92-.58.16-.25.12.06.38-.25.77.44c1.33.77,3.16.44,5.59-1,.15-.09.17-.17.18-.2a.79.79,0,0,0-.16-.56l-1.2-1.79,2.12-.39a9.74,9.74,0,0,0,2.47-.73c2.4-1.15,2.22-2.2,1.78-4.74a17.48,17.48,0,0,1-.35-3.72c0-.77.09-1.53.15-2.27l.09-1,1-.24a4.34,4.34,0,0,0,1.75-.94.21.21,0,0,0,0-.11.71.71,0,0,0-.16-.47l-2.83-3.06-.1-.27a6.06,6.06,0,0,0-1.51-2.3l-.5-.49.09-.7c0-.3.07-.53.09-.63l.06-.4c.17-1.07.32-2.09.38-3.13,0-.56.06-1.1.09-1.63.22-4.35.42-8.11,3.73-12.15.57-.7,1.15-1.36,1.72-2,2.43-2.81,4.53-5.23,5.22-8.82v-.07l0-.44.28-.34a.44.44,0,0,0,.09-.4c-.66-3.63-1.9-10.39,3.17-13.46a22.06,22.06,0,0,1,3.64-1.67,16,16,0,0,0,3.55-1.71l.33-.17a5.57,5.57,0,0,0,2.34-1.53l.27-.3,6.11-1.72a.58.58,0,0,0,.35-.42l-3.49-9.31a.58.58,0,0,0-.38-.39.38.38,0,0,0-.36.07l-2,1.58-.27-2.54c-.59-5.56-1.48-11.22-2.64-16.84L330,73.13l1.9.17a13.62,13.62,0,0,1,4,1c.17,0,.2,0,.25-.07a.72.72,0,0,0,0-.79C332.35,68.77,329,66,324.3,66.2A82.68,82.68,0,0,0,312.66,68a86.85,86.85,0,0,1-12,1.83,110.86,110.86,0,0,1-12.84-.29c-9.62-.59-19.58-1.2-27.57,3.83a.55.55,0,0,0-.25.4.35.35,0,0,0,.11.31c3.25,3.18,8.7,8.5,5.72,14.39a8.15,8.15,0,0,1-2.13,2.44,4.87,4.87,0,0,0-1.6,1.89,3.73,3.73,0,0,0,.12,2.29,10.32,10.32,0,0,1,.36,2c.3,5.83-3.24,7.32-6.36,8.64-.71.3-1.45.61-2.16,1-3.84,2-5,4.93-6.61,9.62s-3.16,9.38-4.72,14.07l-.9,2.71-1.1-1.61-.14.13v0c-.84,2.13-2.44,2.82-5.92,3.67a27.11,27.11,0,0,1-5.47,1c-.55,0-1.23.09-2.43.26a30.72,30.72,0,0,1-5.46.16,21.6,21.6,0,0,0-2.23,0,7.37,7.37,0,0,1-.82.33l-.07.15c-.4,1-.77,1.64-1.07,2.19a5.51,5.51,0,0,0-.54,1.18,5,5,0,0,1-2.83,3.47l-.33.18c-1.83,1-9.15,2.2-12.37-1.46a17.69,17.69,0,0,1-1.15-1.44l-.12,0-.61-.09c-5.33-.84-6.82-3.77-7.24-5.44a7.24,7.24,0,0,0-.45-1.19,4.69,4.69,0,0,1-.17-4.38,5.36,5.36,0,0,1,2.1-3.06c.63-.54.66-.61.82-1,.1-.26.21-.54.36-.87a3.89,3.89,0,0,0,.12-1,7,7,0,0,1,.24-1.7l.05-.18a3.17,3.17,0,0,1,1.66-2.12l-.14-.33c-4.51-3.33-8.75-6.29-10.27-7.2a16.14,16.14,0,0,0-2.12.71A4.06,4.06,0,0,1,180,116.5a14.11,14.11,0,0,1-4.71-1.09l-1.48-.61-.22-1.56a15.14,15.14,0,0,0-1.55-.46c-.4-.1-.74-.19-1-.28a4.89,4.89,0,0,1-1.78-1.12c-3.25,1.3-6.78,2.47-10.49,3.71-12.56,4.17-25.54,8.48-30.39,18.63a3.16,3.16,0,0,1,.36.56,4.41,4.41,0,0,1,.45,1.76l0,.5-.29.41a22.86,22.86,0,0,0-2.38,4.37c-.64,1.5-1.28,2.84-1.94,4.12l-.11.17a29.51,29.51,0,0,1-10.15,8.54c-.63.34-1.31.66-2,1-.47.21-1,.43-1.43.67l-.15.06c-.49.18-1.12.39-1.95.65l-2.21.69.64,3.05a3.09,3.09,0,0,1-1.26,3.09l-.24.18-.83.49c-2.23,1.32-4.46,2.64-6.72,3.93-.08,0-.2.13-.22.21l-.14.89-.87.25c-3.21.93-12.92,3.25-17.89,3.46a28.46,28.46,0,0,0-4.77.71,20.63,20.63,0,0,1-9.41.32c-3.52-.78-8.28-1.43-11-1.79-.29.72-.55,1.36-.77,1.93l0,.11c-.94,2.37-1.45,3.66-2.37,4.59a45.2,45.2,0,0,1-5.36,3.76,4.47,4.47,0,0,1-2.41,3.35,3.43,3.43,0,0,1-1.8.26l.13,1.16-2.58.4a2.81,2.81,0,0,1-1.53.15A11.44,11.44,0,0,1,33,191.2a8.73,8.73,0,0,0,.09,1.09l.14.88-.4.8A4.22,4.22,0,0,1,30,196.25a4.88,4.88,0,0,1-3.31-.45l-.3.07a3.45,3.45,0,0,1-1.77,3,3.22,3.22,0,0,1-1.16.36c0,.17,0,.35-.05.54-.33,2.77-4.47,8.73-4.8,9.07l-2,2.45a11.61,11.61,0,0,1,1.44,5.38,4.77,4.77,0,0,0,.81,2.57l.08.15.45.83c.22.42.4.71.53.93,1,1.68.94,2.53.48,4.34l-.11.44c-.07.26-.14.53-.23.81h.11c2.61-.32,4,0,5.36,2.72.74,1.49,4,9,4.47,11.51s.38,3.28-.72,6.17-1.81,4.43-2.79,5.53c-.29.32-.89,1-14.55,9.69a12.81,12.81,0,0,0-.67,3.61,6,6,0,0,0,1,2.09,11.83,11.83,0,0,1,1.12,2.13l.23.61-.09.9a7,7,0,0,1-1.5,4.09,5.29,5.29,0,0,1,1,2.66c0,.37.05.54.07.62v0a10,10,0,0,1,2.64,2.44,8.36,8.36,0,0,1,1.78,4,2.4,2.4,0,0,0,.22.79,16,16,0,0,1,.72,1.63,7.27,7.27,0,0,1,3-.59,7,7,0,0,1,5,1.55c.26.19.57.4,1,.65a15.08,15.08,0,0,1,4.21,3.55c3.15-1.16,5-.51,6.13.4.47-.6,1-1.21,1.34-1.64l.76-.86,1.14-.09a9.37,9.37,0,0,1,6.57,2.16c5.08,2.81,7.42,5.58,7,8.25l-.29,1.49a4,4,0,0,1,.59,1.22,3.64,3.64,0,0,1,1.91,1.26,5.23,5.23,0,0,1,.62,4.55,6.37,6.37,0,0,1-.6,3.55c-.09.2-.17.39-.26.63a7,7,0,0,0-.07,3A4.23,4.23,0,0,1,56.43,318Zm43.78-7.22c-.11.31-.25.69-.42,1.14l.12,0C100,311.58,100.11,311.19,100.21,310.78ZM126.56,299Z"/></svg>