<svg id="Layer_1" data-name="Layer 1" xmlns="http://www.w3.org/2000/svg" viewBox="0 0 350 350"><defs><style>.cls-1{fill:#999;}.cls-2{fill:#f90;}</style></defs><title>M</title><path class="cls-1" d="M48.66,186.39l6.11-12L44.41,129l32.15,6.11L93,103.76,96.22,99l10.89-7.17,5.58-36.14,15.94-11.16S146.17,54.61,152,72.68c0,0,19.93-13.55,27.37-22.85L210.47,6.25s4.65,3.32,13.29,4.92a7.56,7.56,0,0,1,4.52,4.25l7,5,9.83,7L251.65,31l3.59,1.33s7,1.33,6.51,8.5c0,0,1.86,6.91,6,7.71,0,0,6.64,1.86,7.44,7.17l2.39,8.24v4.78l2.92,2.52s4,7.84,22.05,5.85c0,0,3.19-.13,6,4.78l2.39-.8,1.59-1.73,1-.91,1.44,0,1.25-.1,1-.5.95.25,1.39.85.9,0,1-.35,1.2.35,4.58,3.59.95,2.54,1.1,2.14.6,2.39-.4,1.15-1.2.55-1.1.45-.8.6-.85.45-1.64,0-.9.7-2.79,3.44-4.63,4.68-3.24,3.24-2,1.89-.8,1-1.35.8-1.2.7-.85.45-1.15.8-4.33,4.28-3.09,3.54-1.2,2.09-.15,1.64.3,2,.2,1.69-1,2.64s-.9,2-4.83,4.09c0,0-2.29.65-3.34-.5L286,129l-.7.25-6,.5-6.83-.25-3.74-.5L266,127.68l-1.69-1.2L263,127.63l-1.35-.2-1-.45-3.54,2-1.54.7-.7.35.5.75.5.4-.7.7-4.28,2.59-2.69,1.89L246,137.79l-.8,1.39-2.14,2.29-3.44.7s-1.49.45-1.35,1l.65,2.14,1.79,2.59.6,1.25-.15.8-3,2.54s-2.84,2-3.19,7.12a6.87,6.87,0,0,0,3,3.69s2,1.1.9,4.68c0,0-1.74,3.74-.75,10.16l.65,2.59.45.75,0,3.49.85,2.24.8,1,0,2.84-.1,2.34.5,1.49.2,1.44-.7,1.64-1.74,1.59-1.69,1.49-1.3,1-1.2,2-.55,1.79-.95,1.94-.75,1.35-.25,2.19-.25,1.64a43.5,43.5,0,0,0,.1,6.08s.4,1.49,1.44,1.64h4.73l-3.14,4.93L233.79,228l-1.44,1.49-1.84,1.94-1.79,2.69-1.94,3-1.84,2.24-2.79,4.18-1.69,1.69-2,2.54-1.89,2.64-3.39,4.83-1.84,2.54-.85,2L207,263.38l-2.29,2.84-2.29,3-1.64,2.19-7.32,8.42-4.09,4.93-3.84,5.58-4.73,6.38-13.15,17.79-5.23,6.28-5.18,6-7.27,7.67s-12,17-31.88,4.93L83.28,321.77,44.13,301.94l-24-12.26,68.95-47Z"/><path class="cls-2" d="M132,345.13a28.06,28.06,0,0,1-14.64-4.49L82.64,323,43.49,303.21,17.39,289.86,87.11,242.3,47,186.52l6.27-12.27-10.73-47,33.25,6.32L91.85,103l3.35-5,10.61-7,5.58-36.11,17.18-12,.78.45c.71.41,17,9.92,23.4,27.17,4.78-3.35,19.5-14,25.54-21.51L210.14,4.27l1.15.82S215.84,8.26,224,9.77a8.86,8.86,0,0,1,5.37,4.7L245.89,26.3l6.34,3.37,3.39,1.26a9.28,9.28,0,0,1,7.55,9.72c.54,1.82,2.27,6,4.82,6.47l.11,0c.31.09,7.46,2.16,8.44,8.23L279,63.71V68l2.64,2.28.13.25c0,.05,4,6.92,20.63,5.08.48,0,3.77,0,6.75,4.49l1-.33,1.43-1.54L312.92,77l2.87-.14,1.23-.62,1.66.44,1.27.77h.26l1.16-.41,1.89.55,5.11,4,1.06,2.84,1.17,2.37.7,2.8-.74,2.12-2.73,1.2-.84.61-1.14.6-1.51,0-.4.31-2.78,3.42-7.88,7.93-2,1.85-.89,1.17L306.81,111l-1,.68-4.21,4.16-3,3.39-1,1.7-.11,1.17.27,1.82.25,2.08-1.12,3c-.14.33-1.25,2.63-5.51,4.84l-.27.11c-.32.09-3.18.83-4.77-.91l-.14-.15-1-2.12-5.88.49h-.08l-7-.26-4-.53-3.2-1.56-.79-.56-1,.85-2.18-.32-.52-.24-3.46,1.9.73.59-2.09,2-4.28,2.59-4.5,3.12-.83,1.37-2.45,2.62-3.81.77-.11,0,.35,1.15,1.78,2.6.8,1.66-.33,1.75L239,153.7c-.08.06-2.19,1.67-2.56,5.76a5.22,5.22,0,0,0,2.2,2.61c.21.11,3.07,1.75,1.65,6.38l-.07.19s-1.53,3.46-.64,9.28l.58,2.32.54.89.05,3.62.69,1.82,1,1.25.06,3.3-.09,2.17.48,1.5.25,1.83-1,2.29-3.68,3.31-1.14.92-1,1.67-.58,1.84-.95,1.94-.64,1.17-.22,1.91-.24,1.62a41.42,41.42,0,0,0,.07,5.62,1.78,1.78,0,0,0,.29.54h7.08l-4.6,7.21-1.75,2.26-3.2,3.34-1.73,2.59-2,3.15-1.8,2.19-2.93,4.34-1.64,1.64-2,2.48-1.85,2.58-5.14,7.25-.89,2.08L208,264.32l-2.25,2.79-4,5.27-7.32,8.42-4,4.86-3.8,5.53-17.91,24.2-5.28,6.34-5.2,6L151,335.38A24,24,0,0,1,132,345.13ZM22.93,289.51l21.84,11.17L83.92,320.5l34.87,17.69c18.53,11.29,29.53-3.89,30-4.54l.13-.16,7.27-7.67,5.14-5.93,5.21-6.26,17.84-24.1,3.88-5.64,4.08-4.93,7.31-8.41,3.91-5.19,2.4-3,3.26-3.4.9-2,1.84-2.54,5.28-7.47,2.19-2.72,1.59-1.59,2.8-4.18,1.79-2.18,1.9-3,2-2.9,3.24-3.39,1.56-2,1.72-2.7h-2.35c-1.92-.27-2.55-2.44-2.61-2.68l0-.13a42.57,42.57,0,0,1-.12-6.38V213l.25-1.64.27-2.42.88-1.59.86-1.77.65-2,1.33-2.27,1.5-1.21,3.14-2.82.42-1-.13-.93-.54-1.62.11-2.6,0-2.29L239,188l-1-2.67,0-3.35-.36-.6-.72-2.92c-1-6.24.51-10.16.81-10.87.62-2.09-.11-2.83-.27-3a8.18,8.18,0,0,1-3.68-4.47l-.09-.27,0-.28c.36-5.34,3.21-7.75,3.72-8.14l2.5-2.13-.3-.63L237.67,146l-.71-2.36c-.25-1,.24-2.2,2.29-2.81l.13,0,3-.61,1.72-1.84.88-1.54,2.42-1.63,2.67-1.88,3.76-2.28-1-1.54,2.13-1.07,1.54-.7,4.11-2.31,1.47.66.51.08,1.69-1.44,2.5,1.76,2.48,1.2,3.44.46,6.67.24,5.71-.48,1.72-.61,1.87,3.88a3,3,0,0,0,1.68,0c3-1.59,3.92-3.1,4-3.32l.85-2.25-.16-1.35-.32-2.12.19-2.12,1.51-2.59,3.16-3.61,4.52-4.44,1.29-.89.85-.45,2.24-1.32.79-1,2-1.89L319.12,96l3-3.61,1.26-1,1.78-.05.46-.24,1-.71,1.69-.72.06-.18-.46-1.82-1.09-2.15L326,83.36,322,80.19l-.5-.14-.83.29-1.53-.08-1.52-.92-.23-.06-.77.38-2.5.16-.57.52-1.8,2-3.84,1.28-.58-1c-2.13-3.75-4.34-4-4.68-4.06-17,1.86-22.27-4.85-23.22-6.34l-3.24-2.8V64.11l-2.38-8.23c-.62-4.13-5.85-5.84-6.38-6-4.79-1-6.79-7.92-7-8.71l-.06-.23,0-.24c.43-5.84-5.12-7-5.36-7l-.23-.06L251,32.21l-6.67-3.55-17.17-12.3L227,16a6.24,6.24,0,0,0-3.59-3.49,40,40,0,0,1-12.56-4.38L180.54,50.65c-7.53,9.42-26.9,22.64-27.72,23.2l-1.56,1.06-.58-1.8c-4.92-15.21-18.61-24.75-22-26.9L114,56.48l-5.58,36.16L97.24,100l-3,4.48L77.32,136.7l-31.05-5.9,10,43.82-6,11.64L91.11,243Z"/></svg>