<svg id="Layer_1" data-name="Layer 1" xmlns="http://www.w3.org/2000/svg" viewBox="0 0 350 350"><defs><style>.cls-1{fill:#999;}.cls-2{fill:#f90;}</style></defs><title>M</title><path class="cls-1" d="M271.57,336.74s-10-4.07-14.18-3.13-17.51,2.08-21.58,3.13a119.4,119.4,0,0,1-15.53,2.71c-2.71.1-7.51,2.08-12.61,2.19s-7.92-1.15-8.76-3.65-.52-10.74-.83-12.61-1.46-3.44-3.44-2.4a74.46,74.46,0,0,1-16.26,4.59c-4.8.52-6.57,1.56-9.9,2.08s-5.63,2.19-7.19-.94-8.65-13.14-9.38-13.66-3.23-4.59-5.63-6-3.75-3.75-5.32-3.86a28.55,28.55,0,0,1-6.25-.94c-3.44-.83-5.32-3.23-10.22-4.27s-3.54-1.15-7.3-1.15-1.25-1.46-6-.63-6.46,3.44-7.82,5-2.81,5.53-5,5.53-4.07-1.67-5.63-.94-1.56,2.5-3.23,3.65-5.94,2.71-7.92,2.19a16,16,0,0,0-6.57-.31c-1.36.42-4.69,2.71-7.19,2.5s-4.8-1-6.25-.73-2.19,1.56-5.21.73-5.73.73-7.92-.63-4.69-4.07-7.92-4.27-8.24-.63-9.9-4.07-2.4-10.63-1-16.16,4.9-11.68,5.21-13.86,2.71-5.32,3.75-7.82,1.67-4,1.67-5.73S46,254.9,50,252.82s.52-4.9,1.67-6.88,6.15-8.13,7.82-8.24,3.65-2.19,4-3.86,2.71-4.8,3.34-6A14.22,14.22,0,0,1,69,224.46c.73-.73,1-5,1.56-6.46s4.59-4,7.61-4.07,3.44,2.92,8.24-3.54,6.25-11.05,8.65-11.57,3.13-.52,3.13-4.38-.94-9.18,1.25-10.79,7.09-3.07,6.25-6.51-2.5-7.51.1-10.32,5.42-1.36,5.94-4.38,2.08-6.67,3.54-7.82,3.86-6.15,9.59-3,9.28,4,9.69,3.75,3-1,2.92-3,1-2.71,2-7.4.52-12.41,3.65-13.86,2.71-2.71,1.67-6.15-7.4-4.48-2.4-12.3,8.86-3.65,13.66-5.42c2.61-6.67,9.59-28.15,13.76-31.27s7.4-6.57,9-9.59,5.21-8.13,9.38-10.74,11.05-6.67,12-7.71,4.69-4.27,4.69-6.36,4.17-3.75,5.42-5.63,12.82-17.72,12.82-17.72,9.69-16.16,21.58-7c5.32,7.71,13.45,17.72,19.7,24.91,8.76,8.86,9.9,12.2,12.3,17.41s4.27,3.44,5.84,6.36,2.4,1.56,5.11,5.11,4.48-1,6.36,3.44,3,5.73,9.07,6.46,10.42,5.63,12.2,7.4a24.58,24.58,0,0,1,3,3.75s-4.69,4.07-5.32,4.38-2.81-.1-4.38,1.46-2.5,4.48.42,5.53,7.61,5.32,8,6.46,4.07,3.34,4.17,5.21-.21,7.4-5.84,8.65-3.65,11.05-3.86,12.3-2.29,3.75-.63,5.21,6.67,5.11,8,6a4.88,4.88,0,0,1-1.15,8c-4.48,2.4-4.38,2.5-6.15,3.54s-6.78.83-8,1.88-7.19,7.51-6.67,9.49,1.36,2.92,1.36,6.25a23.24,23.24,0,0,1-1,7.19c-.42,1.15-.21,3.75-1.77,4a7.5,7.5,0,0,0-3.44.94c-.94.63-2.92,5.21-1.56,8.13s2.71,3.44,3.44,6.25,3.13,3.23,2.92,7.4,3.75,5.32,4.48,7.3,4.59,5.42,4.48,8.55-3.54,4.59-7.09,4.27-7.09,2.5-8.76,5-1.46,4.07-2.4,6,.1,7.61-.83,11.26-4.07,2.92-4.48,4.48-1.67,1.77-1.46,3.54.31,1.88-.42,4.59,3.34,13.86,2.5,17.2-4,10.22-4.27,11.57,2.4,4.9,3.54,8.44.42,7.51,1.77,9,3.34,5.94,1.67,9.49-7,7.92-7.51,10.22-2,9-2.4,9.8A2.9,2.9,0,0,1,271.57,336.74Z"/><path class="cls-2" d="M207.11,343.06c-5.32,0-8.53-1.55-9.55-4.62-.55-1.64-.65-4.87-.73-8.92,0-1.71-.06-3.32-.16-3.91a2.21,2.21,0,0,0-.72-1.52c-.18-.09-.49.05-.66.14A75.54,75.54,0,0,1,178.52,329a34.47,34.47,0,0,0-6,1.2,32.63,32.63,0,0,1-3.81.87c-.72.11-1.39.28-2,.45-2.19.56-4.92,1.26-6.63-2.16a121.5,121.5,0,0,0-9-13.18,10.36,10.36,0,0,1-1.5-1.74,19.07,19.07,0,0,0-4-4.21,17.36,17.36,0,0,1-2.85-2.29c-.67-.63-1.44-1.34-1.82-1.37l-.49,0a29.2,29.2,0,0,1-6-.94,17,17,0,0,1-4.42-1.92,19.09,19.09,0,0,0-5.76-2.34c-1.59-.34-2.53-.58-3.21-.75a10.75,10.75,0,0,0-3.79-.36,5.21,5.21,0,0,1-3.24-.75c-.18-.11-.42-.27-2.57.1a9.71,9.71,0,0,0-6.52,4l-.47.56a14.19,14.19,0,0,0-1.13,1.7c-1.17,1.92-2.62,4.32-4.95,4.32a9.28,9.28,0,0,1-3.17-.7c-.78-.28-1.51-.53-1.86-.37s-.61.53-1,1.18a6.82,6.82,0,0,1-2,2.35c-1.71,1.17-6.46,3.08-9.09,2.39a15,15,0,0,0-5.79-.33,13.43,13.43,0,0,0-1.45.67c-1.74.87-4.13,2.07-6.28,1.89a29,29,0,0,1-3-.46,9.22,9.22,0,0,0-2.82-.3,4.14,4.14,0,0,0-.85.33,6.36,6.36,0,0,1-5,.38,9.39,9.39,0,0,0-3.43-.1c-1.61.15-3.27.3-4.86-.68-.64-.4-1.28-.88-1.95-1.38-1.66-1.26-3.38-2.56-5.32-2.68-3.15-.2-9-.58-11.09-4.86-1.71-3.52-2.63-11.06-1.14-17.11A59.43,59.43,0,0,1,31.61,281a26.8,26.8,0,0,0,1.71-4.39,16.54,16.54,0,0,1,2.28-5.19,29.14,29.14,0,0,0,1.56-3l.07-.17c1-2.3,1.49-3.57,1.49-5,0-2.74,6.62-9.61,10.67-11.69,1.52-.78,1.38-1.27,1-2.75a4.47,4.47,0,0,1,.1-3.58c.69-1.19,6.21-8.77,9-8.94a4.05,4.05,0,0,0,2.66-2.7,16.55,16.55,0,0,1,2.48-4.83c.42-.64.81-1.25,1-1.59a16.33,16.33,0,0,1,2.39-3.64,18.57,18.57,0,0,0,.67-3,20.12,20.12,0,0,1,.63-3c.79-2.22,5.53-4.89,8.9-5a7,7,0,0,1,2.47.41c1.1.34,1.76.55,4.68-3.38,1.84-2.48,3.19-4.7,4.28-6.48,1.9-3.12,3.16-5.18,5.21-5.63l.28-.06c1.73-.37,1.73-.37,1.73-2.93,0-.84,0-1.75-.1-2.72-.19-3.69-.38-7.51,1.92-9.21a19.73,19.73,0,0,1,2.11-1.28c2.41-1.33,4-2.31,3.61-3.76-.12-.49-.25-1-.39-1.49-.86-3.18-1.93-7.15.83-10.13a8.6,8.6,0,0,1,4-2.4c1.24-.4,1.41-.5,1.54-1.26.54-3.13,2.21-7.23,4.07-8.69a8.08,8.08,0,0,0,.75-.8c1.54-1.76,4.74-5.44,10.39-2.35,4.71,2.57,7.82,3.49,8.68,3.6h0c.46-.19,1.87-.79,1.83-1.54a7.33,7.33,0,0,1,.69-3.27,24.53,24.53,0,0,0,1.31-4.49c.25-1.27.4-2.78.56-4.38.45-4.47.91-9.1,3.88-10.49,2-.92,2-1,.94-4.35l0-.11a6.07,6.07,0,0,0-1.58-2.11c-2-2.08-4.77-4.94-.66-11.36,3.78-5.91,7.28-5.75,10.37-5.62A11.35,11.35,0,0,0,155,106c.49-1.29,1.11-3,1.81-4.94,4.49-12.43,8.8-23.79,12.18-26.33,4-3,7.11-6.31,8.56-9.11,1.88-3.63,5.78-8.72,9.89-11.29l3.44-2.12c3-1.86,7.63-4.68,8.24-5.34.19-.21.49-.51.84-.86.86-.85,3.48-3.45,3.48-4.55,0-2,1.79-3.28,3.52-4.56a10.16,10.16,0,0,0,2.14-1.86c1.23-1.85,12-16.58,12.82-17.72.51-.83,5.58-8.81,13-10.22,3.63-.69,7.19.29,10.58,2.9l.18.14.13.18c5.49,8,13.73,18,19.61,24.79,8.24,8.33,9.91,12,12,16.65l.5,1.1c1.19,2.6,2.11,3.11,3.08,3.65a5.92,5.92,0,0,1,2.72,2.63A3.79,3.79,0,0,0,285.42,61a11.32,11.32,0,0,1,3.32,3.11c.78,1,1.17,1,2,.85,1.51-.22,3.23-.19,4.52,2.91,1.62,3.88,2.28,4.92,7.93,5.6,6.09.74,10.49,5.22,12.6,7.37l.43.43a25.9,25.9,0,0,1,3.22,4l.65,1-.92.8a67.21,67.21,0,0,1-5.61,4.58,3.86,3.86,0,0,1-1.43.3,3.86,3.86,0,0,0-2.58.89,3.07,3.07,0,0,0-1,2.38c0,.13.12.51.93.8,3.09,1.1,8.24,5.55,8.88,7.31a12.34,12.34,0,0,0,1.22,1.21c1.38,1.27,2.94,2.7,3,4.41.23,4.09-1.48,8.9-6.95,10.11-3,.66-3.09,5.1-2.8,9.35a8.53,8.53,0,0,1,0,1.8,6.91,6.91,0,0,1-.61,1.68c-.58,1.25-.81,1.94-.48,2.23,1.59,1.39,6.54,5,7.9,5.95a6.49,6.49,0,0,1,2.23,5.32,6.16,6.16,0,0,1-3.51,5.12c-3.14,1.68-4,2.22-4.84,2.74-.37.23-.73.46-1.26.77a13.22,13.22,0,0,1-4.65,1.11,12.75,12.75,0,0,0-3.19.64c-1.49,1.24-6.17,6.71-6.19,8.12.12.42.28.86.45,1.32a13.28,13.28,0,0,1,.94,5.2,24.53,24.53,0,0,1-1.13,7.68,6.79,6.79,0,0,0-.19,1c-.21,1.35-.55,3.62-2.73,3.91l-.18,0a5.9,5.9,0,0,0-2.66.69c-.54.52-2.05,4.23-1.06,6.35a14.65,14.65,0,0,0,1.57,2.58,10.65,10.65,0,0,1,2,3.91,5.9,5.9,0,0,0,1.13,2.08,7.9,7.9,0,0,1,1.83,5.75c-.1,2,1.09,3.08,2.34,4.2a6.8,6.8,0,0,1,2.06,2.54,12.73,12.73,0,0,0,1.45,2.23c1.43,1.94,3.2,4.35,3.12,6.85a5.19,5.19,0,0,1-1.79,3.79,9.09,9.09,0,0,1-6.84,1.85c-2.77-.24-5.92,2.07-7.45,4.38a10.27,10.27,0,0,0-1.46,3.43,13.68,13.68,0,0,1-.84,2.44,15,15,0,0,0-.28,4.35,26.85,26.85,0,0,1-.46,6.66,5.9,5.9,0,0,1-3.82,4.23,5.32,5.32,0,0,0-.69.34,5.38,5.38,0,0,1-1,1.86c-.37.48-.45.6-.4,1.07l0,.39c.2,1.6.21,2.07-.5,4.73-.26,1,.58,4.58,1.2,7.23.94,4.05,1.83,7.88,1.31,9.95a75,75,0,0,1-2.92,8c-.61,1.52-1.25,3.09-1.35,3.53a16.24,16.24,0,0,0,1.32,2.84,31.7,31.7,0,0,1,2.2,4.85,22,22,0,0,1,.84,5.16c.1,1.34.22,2.85.62,3.28,1.65,1.77,3.9,6.83,1.91,11.05a28.17,28.17,0,0,1-4.36,5.86c-1.27,1.45-2.86,3.26-3,4.06l-.28,1.23c-1.36,6.07-1.91,8.23-2.24,8.89-1.58,3.16-4,3-5.83,2.36l0,0c-2.67-1.08-10.27-3.75-13.33-3.06-2,.46-6,.94-10.18,1.45-4.57.56-9.29,1.14-11.36,1.67a120,120,0,0,1-15.83,2.75,23.67,23.67,0,0,0-4,.78,39.75,39.75,0,0,1-8.65,1.41Zm-11.29-21.84a3.11,3.11,0,0,1,1.39.33,4.64,4.64,0,0,1,2.25,3.59,39.91,39.91,0,0,1,.2,4.33c.05,2.83.13,6.71.58,8.07.62,1.87,3.11,2.76,7.38,2.68a36.9,36.9,0,0,0,8-1.33,25.1,25.1,0,0,1,4.56-.86,117.82,117.82,0,0,0,15.24-2.67c2.24-.58,7.06-1.16,11.72-1.73,3.94-.48,8-1,9.9-1.4,4.45-1,13.84,2.72,15,3.19,1.41.52,1.82-.05,2.29-1,.32-.73,1.54-6.19,2-8.24l.28-1.23c.34-1.51,1.89-3.27,3.68-5.3a26.93,26.93,0,0,0,3.93-5.2c1.4-3-.45-6.87-1.42-7.92s-1.21-2.93-1.37-5a19.82,19.82,0,0,0-.71-4.5,29.52,29.52,0,0,0-2-4.41c-1.08-2.06-1.86-3.54-1.57-4.79a38.61,38.61,0,0,1,1.48-4,73.69,73.69,0,0,0,2.8-7.64c.35-1.41-.58-5.41-1.32-8.62-1-4.32-1.59-7-1.17-8.61.6-2.23.58-2.36.43-3.65l0-.4a3.9,3.9,0,0,1,1-3.12,2.63,2.63,0,0,0,.54-1,3.41,3.41,0,0,1,2.26-2.12,3.1,3.1,0,0,0,2.22-2.35,25,25,0,0,0,.37-5.92c0-2.31-.05-4.31.55-5.6a11.18,11.18,0,0,0,.67-2,13,13,0,0,1,1.83-4.26c2-3,6-6,10.06-5.63a6.55,6.55,0,0,0,4.71-1.15,2.35,2.35,0,0,0,.84-1.76c.05-1.53-1.4-3.5-2.57-5.08a13.34,13.34,0,0,1-1.83-2.93,5.28,5.28,0,0,0-1.29-1.41c-1.46-1.3-3.45-3.09-3.28-6.45a5.14,5.14,0,0,0-1.28-3.93,8.48,8.48,0,0,1-1.59-3,7.85,7.85,0,0,0-1.52-3,17.23,17.23,0,0,1-1.84-3c-1.59-3.43.43-8.82,2.06-9.91a8.28,8.28,0,0,1,3.86-1.14h.11a5.81,5.81,0,0,0,.37-1.54,8.09,8.09,0,0,1,.33-1.51,21.73,21.73,0,0,0,1-6.71,10.45,10.45,0,0,0-.77-4.23c-.18-.5-.37-1-.54-1.66-.88-3.34,7.05-10.87,7.14-10.94,1-.8,2.66-1,4.64-1.27a13.14,13.14,0,0,0,3.57-.74c.5-.29.85-.51,1.2-.73.88-.55,1.78-1.12,5-2.84a3.35,3.35,0,0,0,2-2.79,3.88,3.88,0,0,0-1-2.83c-1.31-.9-6.42-4.62-8.15-6.14-2-1.74-.85-4.22-.23-5.56a6.47,6.47,0,0,0,.39-1c0-.12,0-.68-.06-1.14-.23-3.3-.77-11,5-12.32,4.7-1,4.81-5.77,4.73-7.19,0-.56-1.44-1.86-2.12-2.48a6.92,6.92,0,0,1-2-2.33c-.46-.9-4.63-4.7-7.17-5.61a4,4,0,0,1-2.74-2.85,5.78,5.78,0,0,1,1.8-5,6.51,6.51,0,0,1,4.34-1.71l.46,0c.45-.31,2.22-1.79,4-3.32a22.47,22.47,0,0,0-2.13-2.51l-.45-.45c-1.89-1.92-5.81-5.93-10.92-6.54-6.53-.79-8.13-2.35-10.21-7.32-.56-1.33-.68-1.31-1.5-1.2a4.36,4.36,0,0,1-4.68-1.93,8.52,8.52,0,0,0-2.59-2.43,6.5,6.5,0,0,1-2.65-2.87,3.22,3.22,0,0,0-1.6-1.49c-1.2-.67-2.7-1.5-4.28-4.94L274.88,53c-2.07-4.56-3.57-7.85-11.51-15.89-5.94-6.83-14.17-16.88-19.73-24.92a10.15,10.15,0,0,0-8.15-2.23c-6.47,1.22-11.13,8.88-11.18,9l-.07.11c-.12.16-11.57,15.84-12.79,17.67a11.67,11.67,0,0,1-2.81,2.56c-.83.61-2.37,1.75-2.37,2.28,0,2.11-2.14,4.4-4.32,6.56-.31.31-.57.56-.73.74-.79.88-3.88,2.8-8.87,5.86l-3.42,2.11C184.7,59.42,181.27,64.6,180,67c-1.66,3.21-5,6.78-9.37,10.07-3,2.24-8.34,17.06-11.22,25-.83,2.29-1.54,4.27-2.08,5.63l-.23.59-.6.22a12.33,12.33,0,0,1-5.1.54c-2.77-.12-5-.22-7.86,4.31s-1.49,6,.31,7.87a8.24,8.24,0,0,1,2.25,3.26l0,.11c1,3.35,1.75,5.77-2.46,7.74-1.51.7-1.94,5-2.25,8.2-.17,1.68-.32,3.26-.6,4.66a27.33,27.33,0,0,1-1.45,4.95,4.68,4.68,0,0,0-.51,2.1c.1,1.82-1.1,3.27-3.57,4.31l-.14.06c-1.67.84-7.7-2-11-3.78-3.65-2-5.38,0-6.9,1.73a9,9,0,0,1-1.14,1.16c-1,.78-2.5,3.92-3,6.94-.43,2.5-2.11,3-3.46,3.48a5.82,5.82,0,0,0-2.84,1.62c-1.7,1.83-1,4.57-.17,7.46.14.53.28,1.05.41,1.56.89,3.66-2.65,5.61-5,6.91a17.91,17.91,0,0,0-1.8,1.08c-1.08.79-.9,4.26-.77,6.79,0,1,.1,2,.1,2.87,0,4.18-.94,5.05-4,5.71l-.27.06c-.87.19-2,2.11-3.39,4.33-1.12,1.83-2.51,4.12-4.42,6.7-3.52,4.75-5.25,5.19-7.8,4.4a4.17,4.17,0,0,0-1.52-.28c-2.6.09-6,2.33-6.33,3.13a20.36,20.36,0,0,0-.5,2.47c-.4,2.4-.67,3.79-1.39,4.51a13,13,0,0,0-1.92,3c-.24.48-.65,1.12-1.13,1.86a16.84,16.84,0,0,0-2.08,3.81c-.4,2.13-2.79,4.81-5.2,5-1.2.44-5.48,5.34-6.75,7.54-.14.24,0,.87.18,1.43.39,1.46,1.12,4.18-2.43,6-3.75,1.92-8.88,7.81-9.14,9.23,0,2-.68,3.58-1.7,6l-.07.17a31,31,0,0,1-1.72,3.29A15.2,15.2,0,0,0,36.12,277a24.64,24.64,0,0,1-1.92,5.13A57.3,57.3,0,0,0,30.88,291c-1.29,5.27-.56,12.11.94,15.2,1.35,2.79,6.15,3.1,8.72,3.27,2.79.18,5,1.88,6.85,3.25.62.47,1.2.91,1.73,1.23.75.46,1.67.4,3.11.27a11.91,11.91,0,0,1,4.44.19,3.64,3.64,0,0,0,3.08-.22,6.62,6.62,0,0,1,1.46-.53,10.34,10.34,0,0,1,3.94.28,26.18,26.18,0,0,0,2.73.42c1.35.12,3.33-.88,4.78-1.6a13.59,13.59,0,0,1,1.88-.84c1.69-.52,5.22-.26,7.34.3,1.33.35,5.16-.89,6.76-2a4.23,4.23,0,0,0,1.2-1.47,5.13,5.13,0,0,1,2.24-2.3c1.41-.66,2.79-.16,4,.27a6.89,6.89,0,0,0,2.22.54c.73,0,1.85-1.85,2.52-3a15.75,15.75,0,0,1,1.41-2.08l.43-.51a12.46,12.46,0,0,1,8.22-5c2.78-.48,3.63-.31,4.58.3.23.15.48.3,1.71.3a13.19,13.19,0,0,1,4.5.45c.65.17,1.56.4,3.09.73a21.75,21.75,0,0,1,6.55,2.64,14.54,14.54,0,0,0,3.71,1.64,26.43,26.43,0,0,0,5.5.87l.51,0c1.39.09,2.45,1.08,3.57,2.12A14.9,14.9,0,0,0,147,307.8a20.56,20.56,0,0,1,4.75,4.89c.38.49.85,1.1,1,1.24,1.08.77,8.33,11.23,9.79,14.15.64,1.29,1,1.28,3.39.68.69-.18,1.46-.37,2.31-.51a30.35,30.35,0,0,0,3.5-.81,37.4,37.4,0,0,1,6.47-1.29A74.82,74.82,0,0,0,194,321.72,4,4,0,0,1,195.82,321.22ZM59.72,239.1ZM68,223.46h0Z"/></svg>