<svg id="Layer_1" data-name="Layer 1" xmlns="http://www.w3.org/2000/svg" viewBox="0 0 350 350"><defs><style>.cls-1{fill:#999;}.cls-2{fill:#f90;}</style></defs><title>M</title><path class="cls-1" d="M342.84,326a12.15,12.15,0,0,0-2.58-3.15q-8-23.56-14.58-47.55a1.08,1.08,0,0,0-1-.83c-.22-1.68-.43-3.36-.61-5a1.2,1.2,0,0,0-1.49-1.14c-7.6,2.1-14.13-3.67-16.69-10.42-2.29-6-2.15-12.66-2.42-19a49.17,49.17,0,0,0-3.32-17.06c-2.36-5.73-5.42-11.16-5.7-17.46.51-1-.76-1.91-1.66-1.45a1,1,0,0,0-.67.7c-11.16,5.58-18.6,14.79-29,20.47-5.22,2.86-9.7,6.41-14.58,9.74a21.13,21.13,0,0,1-9.36,3.34,9.83,9.83,0,0,0-4.39,1.51h-5.56L225,233.47l4.87-109.12c27.45-15.29,12.51-32.67,12.51-32.67l-5.21-8.34-10-8.69H215.31l-14.25-8.34-7.3,3.13-24.33-3.13c-12.51.35-16.68,8.34-16.68,8.34L98.89,22.18,89,24.94,75.35,24l-11.58.46-7.18.93L49.4,27.49,18.12,44.63,19,48.11l2.32,5.56L7,81.7V94.44l1.16,6.49,3.48,4.63,1.16,5.79L15.34,119l2.55,7v8.11L19.28,145l.46,10L19,167.66l2.55,8.8,6.49,10.43c11.12,11.12,3,18.77,3,18.77l-7.88,13.21-5.33,10.19,35.45,42.4,4.17,4.17,3.71,4.4,31,2.78,6.63.23,9.12,2.32,6,2.32h8.11l7.18-1.85,5.56-5.1,7-4.17,9-6.49,7.65-2.55,6-3.71h12.51l5.79-1.16,6.26,1.16h6.72l7.67-1.49,16-5.56h7.75l.6-1a13.67,13.67,0,0,0,9.43.8,24,24,0,0,1,2.54-1q1.93-1.75,3.1,1l-1.78,3.13c-1.73,2.3-4.43,4.29-6.43,6.36s-5.81,5-3.86,8.14a4.54,4.54,0,0,0,3,1.75c3.29.87,5.66,1.4,7.88,4.33a1.22,1.22,0,0,0,.81.49,11.8,11.8,0,0,1-.49,1.95c-.39,1.41-.86,2.82-1.29,4.22l-2.58,8.44a1.06,1.06,0,0,0,.08.87,13.27,13.27,0,0,0-1.41,7.48,1.2,1.2,0,0,0,1.49,1.14,8.73,8.73,0,0,0,3-1.57,9.5,9.5,0,0,0,2.68,2.83,1.2,1.2,0,0,0,1.43-.18l1.41-1.16a1,1,0,0,0,.22-1.32,26,26,0,0,1,.75-4.95c.84-2.59,2.74-3.54,5-4.66,4.41-2.15,9.93-3.66,13.69.5a1,1,0,0,0,1.17.29l1.18,3.37a1.24,1.24,0,0,0,2.3.07,1.14,1.14,0,0,0,.42-.26l.39-.39c6.72.71,10.75,9.46,14.86,14,3.46,3.82,8.5,9.84,14.15,10.08,2.95.12,5.51-1.68,8.29-2.38,4.19-1.06,8.59-.7,12.8,0,5,.83,11.84,1.68,16.09,5.13v0a1.14,1.14,0,0,0,.9.79,10.11,10.11,0,0,1,1.66,2.16A1.18,1.18,0,0,0,342.84,326Z"/><path class="cls-2" d="M341.74,329.23h0a2.49,2.49,0,0,1-2.15-1.29,8.42,8.42,0,0,0-1.2-1.61,2.55,2.55,0,0,1-1.3-1.17c-3.62-2.75-9.29-3.67-13.87-4.41l-1.3-.21c-3.45-.57-8-1.09-12.22,0a21.34,21.34,0,0,0-2.78,1,13.74,13.74,0,0,1-5.91,1.43c-5.87-.25-10.82-5.75-14.44-9.76l-.7-.78A52.09,52.09,0,0,1,282.4,308c-2.77-3.84-5.9-8.17-9.87-9l-.25.19a2.66,2.66,0,0,1-2.17,1.1h0a2.6,2.6,0,0,1-2.48-1.76l-.85-2.42a2.52,2.52,0,0,1-1.21-.76c-2.55-2.82-6.48-2.88-12-.18-2.32,1.13-3.67,1.87-4.3,3.82a17.38,17.38,0,0,0-.57,3.53c0,.25,0,.5-.07.74a2.37,2.37,0,0,1-.78,2.66l-1.42,1.16a2.59,2.59,0,0,1-3.14.25,11.21,11.21,0,0,1-2.21-2,10.52,10.52,0,0,1-2.27,1,2.47,2.47,0,0,1-2.11-.31,2.82,2.82,0,0,1-1.2-2,14.72,14.72,0,0,1,1.29-7.75,2.57,2.57,0,0,1,.08-1.17l2.58-8.44.44-1.39c.29-.93.59-1.86.84-2.79.1-.28.18-.56.25-.83a2.79,2.79,0,0,1-.34-.37c-1.84-2.43-3.68-2.91-6.73-3.72l-.39-.1a5.86,5.86,0,0,1-3.86-2.37c-2.31-3.67,1.17-7.07,3.25-9.1l.79-.78c.79-.81,1.67-1.61,2.53-2.39a29.83,29.83,0,0,0,3.73-3.77l1.36-2.39a1.47,1.47,0,0,0-.17-.22,1.82,1.82,0,0,0-.38.28l-.33.29-.43.06a6.29,6.29,0,0,0-1.07.44,8.53,8.53,0,0,1-1.27.53,14.82,14.82,0,0,1-9.22-.39l-.39.66h-8.32l-16,5.53-7.94,1.52-7,0-6-1.11-5.8,1.13H165l-6,3.63-7.44,2.48-9,6.43-6.83,4.1L130,287.1l-7.88,2h-8.37l-6.19-2.38-8.89-2.26-6.48-.23-31.7-2.84-4-4.8-4.21-4.22L16.2,229.24l5.77-11,8-13.45.14-.14a9.18,9.18,0,0,0,2.41-6.09c0-3.42-1.8-7-5.45-10.65l-.2-.25L20.29,177l-2.67-9.22.71-12.9-.46-9.85-1.39-11v-7.86L14,119.49l-2.61-7.86-1.1-5.48-3.48-4.65L5.58,94.44V81.36l.16-.3L19.8,53.61l-2.12-5.13-1.21-4.55L49,26.13,56.4,24l7.31-.94,11.66-.47,13.5.92L99.3,20.6l53.24,51.86c2-2.53,7-7.29,16.86-7.56h.11L193.56,68l7.6-3.26,14.53,8.51h12.05l10.55,9.17,5.27,8.44a19.91,19.91,0,0,1,4.05,15.37c-1.27,7.12-6.76,13.5-16.33,19L226.48,233l3.41,4.26h4.45a11.92,11.92,0,0,1,4.59-1.49,19.7,19.7,0,0,0,8.79-3.11c1.42-1,2.81-2,4.2-2.95a105.23,105.23,0,0,1,10.5-6.86c4.77-2.61,8.85-5.94,13.18-9.47,4.7-3.84,9.56-7.8,15.41-10.8a2.44,2.44,0,0,1,1.18-1,2.72,2.72,0,0,1,3,.57,2.4,2.4,0,0,1,.63,2.41c.27,4.6,2.09,8.73,4,13.09.53,1.2,1.06,2.4,1.56,3.62,2.07,5,3.13,10.45,3.43,17.54,0,.92.07,1.85.1,2.78.17,5.33.35,10.84,2.23,15.8,2.33,6.16,8.22,11.42,15,9.56a2.5,2.5,0,0,1,2.1.33,2.78,2.78,0,0,1,1.17,2q.22,2.08.49,4.15A2.52,2.52,0,0,1,327,275c4.33,15.71,9.19,31.56,14.44,47.12a13.38,13.38,0,0,1,2.58,3.25h0a2.52,2.52,0,0,1,0,2.54A2.75,2.75,0,0,1,341.74,329.23Zm-.14-2.49h0l.41-.23h0l-.41.23Zm.41-.23h0l.82-.47Zm-26.89-9.46a44.15,44.15,0,0,1,7.24.68l1.29.21c4.88.79,10.91,1.76,15.1,4.93-5.23-15.5-10.07-31.29-14.39-46.94l-1,0-.16-1.19q-.32-2.46-.59-4.93c-8.28,2.11-15.36-4.08-18.11-11.36-2-5.4-2.23-11.15-2.41-16.71,0-.92-.06-1.84-.1-2.75-.28-6.74-1.27-11.86-3.22-16.58-.49-1.19-1-2.37-1.53-3.55-1.95-4.41-4-9-4.26-14.09l-.3.15c-5.77,2.88-10.62,6.85-15.32,10.68a91,91,0,0,1-13.61,9.76A101.54,101.54,0,0,0,253.57,232c-1.4,1-2.8,2-4.25,3a22.48,22.48,0,0,1-9.94,3.57,8.53,8.53,0,0,0-3.78,1.26l-.37.27h-6.7l-4.93-6.16,0-.53,4.9-109.91.69-.38c9.2-5.12,14.45-11,15.6-17.36,1.33-7.39-3.43-13.09-3.48-13.15l-.12-.17-5.1-8.16-9.43-8.2H214.93L201,67.9l-7,3-24.6-3.16c-11.46.36-15.32,7.5-15.35,7.58L153.13,77,98.49,23.77l-9.32,2.6-13.84-.94-11.45.46-7,.9-6.93,2L19.78,45.34l.62,2.31,2.53,6.08L8.42,82V94.32l1.08,6L13,105l1.2,6,2.52,7.56,2.62,7.15V134l1.39,10.91.47,10-.69,12.56,2.43,8.38L29.2,186c4.15,4.19,6.22,8.44,6.16,12.63a12,12,0,0,1-3.14,7.9l-7.79,13.06-4.85,9.29,34.8,41.62,4.21,4.21,3.33,4,30.46,2.73,6.85.27,9.28,2.37,5.78,2.22H122l6.66-1.72,5.53-5,6.9-4.14,9.16-6.58,7.7-2.56,6.23-3.83h12.77l5.92-1.18,6.4,1.18h6.45l7.43-1.45,16.12-5.61h7.18l.83-1.41,1.16.52a12.23,12.23,0,0,0,8.46.73,7.41,7.41,0,0,0,.83-.36,9.31,9.31,0,0,1,1.45-.6,3,3,0,0,1,2.58-.72,3.77,3.77,0,0,1,2.48,2.52l.27.64-2.23,3.89a31.21,31.21,0,0,1-4.15,4.24c-.86.78-1.67,1.51-2.39,2.25-.25.26-.54.54-.85.84-2.14,2.09-3.84,4-2.83,5.56.39.63,1.12.86,2.18,1.14l.38.1c3.12.82,5.81,1.53,8.23,4.7l1.36.19-.24,1.44a13.08,13.08,0,0,1-.55,2.18c-.24.88-.54,1.84-.85,2.8l-.43,1.37-2.55,8.32.31.52-.35.69a11.91,11.91,0,0,0-1.27,6.52,7.23,7.23,0,0,0,2.23-1.21l1.26-1,.84,1.38a8,8,0,0,0,2,2.24l1.1-.89-.07-.11.06-.5c0-.36.08-.72.11-1.09a19.45,19.45,0,0,1,.7-4.13c1-3.19,3.43-4.36,5.75-5.49,6.63-3.23,11.75-3,15.21.65l1.12-.45,1.49,4.25v0l.59-.22.82-.82.67.07c5.55.59,9.25,5.72,12.51,10.24a50.37,50.37,0,0,0,3.25,4.2l.71.78c3.28,3.64,7.77,8.63,12.45,8.83a11.58,11.58,0,0,0,4.72-1.22,23.72,23.72,0,0,1,3.16-1.12A25.07,25.07,0,0,1,315.13,317.06Zm-44.48-20.2h0Z"/></svg>