<svg id="Layer_1" data-name="Layer 1" xmlns="http://www.w3.org/2000/svg" viewBox="0 0 350 350"><defs><style>.cls-1{fill:#999;}.cls-2{fill:#f90;}</style></defs><title>M</title><path class="cls-1" d="M6.25,108.58S60.86,95.73,68.36,96.08H75.5l54.26-17.13s1.78-4.28,7.5-4.28c0,0,26.42,1.07,31.77,0l4.64,1.43,157-42.77,9.89,13L321.26,61,338.4,84.84l-44.71,31.06,50.06,70.94L149.39,316.68,6.25,111.08Z"/><path class="cls-2" d="M149,318.63,4.83,111.52v-4.06l1.09-.26c2.24-.53,54.91-12.88,62.5-12.53h6.85l53.49-16.89a9.4,9.4,0,0,1,8.48-4.52c9.14.37,27.39.85,31.49,0l.35-.07,4.59,1.41L331.19,31.7l11.33,14.85L323.22,61.3l17.17,23.88-44.72,31.06,50.08,71ZM7.67,110.63l142.09,204.1,192-128.26-50-70.92,44.7-31-17.1-23.77L338.55,46,330.1,34.94,173.64,77.57l-4.71-1.45c-6.15,1-30.67,0-31.74,0a6.47,6.47,0,0,0-6.14,3.42l-.26.59-.62.21L75.72,97.49H68.05c-6.6,0-41.57,7.8-60.38,12.21Z"/></svg>