<svg id="Layer_1" data-name="Layer 1" xmlns="http://www.w3.org/2000/svg" viewBox="0 0 350 350"><defs><style>.cls-1{fill:#999;}.cls-2{fill:#f90;}</style></defs><title>M</title><path class="cls-1" d="M91.35,54.75c.73,1.63.51,5,.51,8.11a39,39,0,0,0,.73,6.82c.06.23,1.35,4.84,1.58,5.24a8.55,8.55,0,0,1,.34,3.21c-.17.56-1.24,5-1.24,5.18a11,11,0,0,0,1.8,1.18,53.09,53.09,0,0,0-1,6c0,1.41,1.3,1.75,4.56,1.69a51.75,51.75,0,0,0,6.42-.56l2.08,4.62s3.77,1.3,3.89,5a41.46,41.46,0,0,1-.51,7.27s3.72-6.2,7.49-4.9a5.45,5.45,0,0,1,4.11,5.07c.17,1.13-1.35,3.44-1.35,3.44a2.59,2.59,0,0,1,2.59,2.48c.28,2.53,1.07,3.27.28,3.66s-.9.39-3.27.39-3.72-.23-3.72.62.11,2.76-1.41,2c-.68,2-1.75,2.14-3.32,1.69.11,4.28,1.35,3.83.28,6.25,1.41,1.52,3.32,2.25,3,6.14,1.07,2,1.58,5.24.23,7.15-.06,1.41.62,7.66,1,10.48s1.24,5.8,2.25,5.91,14.64-2.14,19-1.24c4.62.73,8.9,1.46,11.15,5s-.11,3.55-1.35,4.39-4.22,1.41-2.59,3.66c0,0,2.37-2.82,2.25,1.46,2.08-.11,3.44-.23,5.13,2.25,3.44-1.18,6.25-2.76,6.25,3.66,3,2.08,3.72,3.66,4.79,2.87s1.35,1.3,1.3,3.55,1.75,1.35,4.34,1.24a7.78,7.78,0,0,0,7-6.08,4.34,4.34,0,0,1,4.84-3.55s6.65,13.41,6.31,14.81-8.62,5.8-8.73,6-4.45,3.89-6.48,4.34c1,2,.79,2.59.06,4.34a8.33,8.33,0,0,0,5.8,2.82c1.86.17,5.75,2,7.89,5.52s2.93,3,5,3.94a21.15,21.15,0,0,1,5.69,3.55c.84,1,5.58,4.39,7.32,4s3-.39,4.39,1.75,2.31,4.84.68,5.35-.73,9.07-.73,9.07,4.06-.06,1.18,3.89c-2.53,3.94-1.63,3.77-1.07,5.46s2.93,4.84,4.22,7,1.52,3.55-.17,4.67-5.13,2.08-6.36,3-3.94,1.75-4.17,3.38-.84,5.69-.84,5.69-7.21,5.86-7.32,1c-1.35-1-4.11.51-3.89-4.45-2.93-1.07-5.58-1.58-6.93-.68s-11.88,4.34-11.88,4.34-3.44,5.52-8.28,3.49c-3.49-1.69-10.19.28-11.1,1.8s-3.72,5.07-7.72,5.29c-3.66.51-4.79,1.24-4.79,1.24a2.48,2.48,0,0,1-.11,3c-1.18,1.86-2.08,3-1.91,3.83s3.83,6.7,3.83,6.7,2.59.23,2.59,5.24c1.63,1.13,2.31-.56,2.2,2.2a6.79,6.79,0,0,0,2.2,5.46c1.13,1.13,2.93,4.56,3.1,4.73s.73,2.93-1.52,2.82a15.84,15.84,0,0,0-4.22.39l0,2.12c.82.27,19.25,6.16,27.34,6.5,9.12,1.44,10.9-4.48,13.52-6.51,2.11,1.61,9.12,4.22,9.72,6.51s4.31,14.19,4.31,14.19,6.51-1.69,10.39-2.45,4.65-1.35,4.65-1.35a33.48,33.48,0,0,1,1.35-5.75,75.74,75.74,0,0,0,2.17-9.89c.39-2.28,4.34-4.14,6.62-6.84s10.31-4,11.83-6.08,5.32-15.21,5.91-19.43,2.53-22.64,2.79-26.36.84-3.8,3.29-6.34,9-7.18,10.9-9.12,2.2-3.46,1.94-6.93a17.7,17.7,0,0,0-3.38-9.21c-1.94-2.7-16.81-14.36-17.24-14.92a117.87,117.87,0,0,0-12.59-7.89c-3.38-1.69-3.38-7.6-3.72-9.38-.29-1.5.64-4.1-.3-5.83l-.63-.25s-2,2.37-4.39,1.3c-.45,2.53-.73,5.13-2.59,4.11-1.46-.84-2.42-.73-3.66-1.3s-4.22-1.52-4.06-4.39l.06-1h-2.14v-3l-2.08-.51v-2.37l-2.48-.34.23-3.15-2.53-.28L201,182l-2.65-.34v-2.93l-2-.31v-3.29h-2.08l.62-4s-2.31,1.52-2.76-2c-1.13,1.86-2.7,2.48-2.82-.73a5.31,5.31,0,0,0-2.48-1.8c-.73-.34-6.65-4.56-6.76-6.76.34-1.86,0-2.37,0-2.37l-2.7-5.41-4.51-7.94s-2.42,1.69-3.15,1.52-1.63-.68-.51-3.49a17.47,17.47,0,0,0,1.63-2.76s-3.77-1.07-1.91-3.55c-2.08.11-4,0-3.1-3.15-1.13-2.53-9.07-15.32-9.07-15.32s-2.31-3.21.34-4.22c3.38-.17,7.15.51,8.67,0s4.79-1.46,6-1.86c.39-2.14-.62-6.08,2.87-7.1,3.55-1.35,6.42-2,8.34-1.41,2.08-1.69,5.6-2.7,6.91-3.89s.69-2.53,2.72-1.91a6.66,6.66,0,0,0,3.72-.39c.62-.17-1-1.75.84-3.32-.45-2.7.28-9.58.56-12.05a18.56,18.56,0,0,0-1-7.1c-1.46,1.3-6.87,4.17-7.49,1C188.84,73.56,186.31,71,184,71s-2.7,1.3-5.69,3S173,77.16,173,77.16l-4.17-1.52s-4.22,2.7-4.56-2.53a19,19,0,0,0-5.52-6.53l.79-5.35,2.82-.28a4.24,4.24,0,0,0,3-4.11c.17-3.44,1.92-7.43,5.46-6.08.28-2.08,1.63-1.8,3.32-1.35s4.34-.25,5.52-.32,4.39.09,4.17-1A17.19,17.19,0,0,0,177.3,45c-1.3-.23-2.48-.68-3-4.34s-1.24-7.72-1.63-9.12a15.18,15.18,0,0,0-2.25-3.72l-6.14,10.81s-4.11,3.32-5,3.32-2.59,2-2.65,2.59-.45,2.2-1.86,1.63a15.73,15.73,0,0,0-3.6-1c-1.91-.39-2-.56-3.49-.9s-6.14-2.2-7.38-2.25-3.66-.62-3.89-1.86S135,38,134.6,36.95s2.37-2.42,4-2.48c-.28-1.41-2.25-3.38-2.7-3.83a20,20,0,0,0-3.83-1.52c-.23-.06-5.07-3.15-.34-4.51-3-2.37-4.84-5.13-1.46-7.66-1.58-1-1.58-4.45-1.58-7.38C125,8,122.83,6.76,121.54,6.31s-3.72,1.92-6.31,1.13c-2.37-.73-5.07,1.75-4.84,2.59s-3,8.34-2.82,9.52-4.62,1.46-2.48,5.58c1.75,2.59,1.24,2,1.3,4.79s-1.07,3.72-2.7,2.42-1.3,1.63-1.75,2.14-1.75,2.65-2.31,2.65a8.64,8.64,0,0,0-3.15.9c-.23.34-8.28,3-8.34,7.15s.79,4.67,1.24,6.14S90.61,53.11,91.35,54.75Z"/><path class="cls-2" d="M199,345.46l-.4-1.29c-.15-.49-3.73-12-4.33-14.26-.27-.92-3.88-2.78-5.61-3.68-1-.5-1.85-1-2.57-1.38-.27.3-.55.64-.86,1-2.08,2.51-5.22,6.3-13,5.12-8.35-.37-26.85-6.31-27.64-6.56l-1-.32,0-4.25,1.05-.27a17.61,17.61,0,0,1,4.65-.44.42.42,0,0,0,.21,0,2.34,2.34,0,0,0,0-.71c-.1-.15-.23-.38-.44-.75a24.68,24.68,0,0,0-2.4-3.65,8.25,8.25,0,0,1-2.61-6.52c0-.12,0-.22,0-.31a3.85,3.85,0,0,1-1.59-.66l-.61-.42v-.74c0-2.79-.9-3.73-1.37-3.84l-.82,0-.19-.68c-2.52-4.06-3.86-6.47-4-7.15-.27-1.24.46-2.36,1.56-4.05l.54-.84c.54-.85.28-1.3.22-1.38l-1.12-1.23,1.43-.86c.23-.15,1.58-.93,5.37-1.46h.11c3.94-.22,6.47-4.42,6.58-4.6,1.31-2.21,8.9-4.31,12.93-2.36,3.59,1.51,6.35-2.79,6.46-3l.27-.43.49-.16a122,122,0,0,0,11.54-4.17c1.63-1.09,4.24-.92,8.2.52l1,.36,0,1c-.1,2.29.28,2.36,1.31,2.53a4.37,4.37,0,0,1,2,.72l.55.41,0,.69a1.26,1.26,0,0,0,.11.61c.52.16,2.65-.91,4.48-2.3.18-1.16.58-3.86.76-5.11.26-1.88,2.1-2.87,3.58-3.66a11,11,0,0,0,1.16-.67,16.38,16.38,0,0,1,3.22-1.54,20.39,20.39,0,0,0,3.19-1.48c.61-.41,1-.66-.27-2.78-.43-.73-1-1.56-1.56-2.45a25.65,25.65,0,0,1-2.78-4.86,5.79,5.79,0,0,0-.26-.63c-.77-1.66-.66-2.71,1.48-6a3.73,3.73,0,0,0,.8-1.54,2.27,2.27,0,0,0-.77-.16l-1.29,0-.14-1.29c-1-9.19.76-10.24,1.59-10.53a7.24,7.24,0,0,0-1.32-3.28c-.9-1.43-1.44-1.45-2.88-1.12-2.76.61-8.13-3.8-8.7-4.44a20.54,20.54,0,0,0-5.19-3.18c-.39-.17-.74-.29-1-.39-1.64-.56-2.74-1.06-4.61-4.11a10.94,10.94,0,0,0-6.81-4.85,9.72,9.72,0,0,1-6.75-3.3l-.57-.66.34-.81c.67-1.6.71-1.7,0-3.16l-.81-1.62,1.77-.39c1.36-.3,4.91-3.12,5.69-3.87.17-.22.38-.34,1.53-1,4.65-2.67,6.32-3.87,6.84-4.42-.38-1.64-3.08-7.62-5.75-13.07a2.94,2.94,0,0,0-2.58,2.51A9.18,9.18,0,0,1,169,187c-.56,0-1.08.09-1.55.15-1.3.16-2.52.31-3.44-.52a3,3,0,0,1-.82-2.31,13.21,13.21,0,0,0-.06-1.91c-1.16.2-2.17-.68-3-1.42a24.68,24.68,0,0,0-2.39-1.89l-.62-.42v-.75c0-2.74-.56-3.21-.62-3.25-.38-.27-1.84.25-2.91.63l-.84.3-1,.35-.61-.89c-1.21-1.78-1.86-1.74-3.79-1.64l-1.53.08-.05-1.53c0-.08,0-.15,0-.22l-.92,1.1-1.07-1.47a3.14,3.14,0,0,1-.67-2.66c.36-1.4,1.75-2.08,2.78-2.57a7.54,7.54,0,0,0,.83-.44,7.19,7.19,0,0,1,1-.53,3.47,3.47,0,0,0,.71-.4,4.54,4.54,0,0,0-.73-1.52c-1.95-3-5.95-3.65-10.18-4.33-3-.6-10.88.36-15.14.89a24.42,24.42,0,0,1-3.83.36c-2.33-.26-3.2-4.59-3.5-7.15-.27-2.26-1-9.08-1-10.7l0-.42.24-.34c.93-1.32.59-4-.31-5.66l-.2-.37,0-.42a4,4,0,0,0-1.67-4.14c-.32-.29-.64-.58-.94-.91l-.63-.68.38-.85a1.85,1.85,0,0,0,.16-1.75,14.49,14.49,0,0,1-.56-3.89l-.05-1.93,1.86.53c1.07.3,1.23.28,1.59-.79l.53-1.55.8.41c0-.08,0-.14,0-.2v-.18a1.92,1.92,0,0,1,.57-1.38c.73-.72,1.78-.7,3.36-.67l1.21,0a20,20,0,0,0,2.05,0,15.69,15.69,0,0,1-.48-2.44c-.11-1-.7-1.21-1.17-1.22l-2.58,0,1.38-2.15a7.35,7.35,0,0,0,1.13-2.47l0-.18c-.16-1.11-.39-2.79-3.14-3.73-2.23-.77-5.16,3.19-5.82,4.29l-3.89,6.48,1.28-7.45a40.35,40.35,0,0,0,.49-7c-.08-2.61-2.82-3.62-2.94-3.66l-.57-.2-1.9-4.2a51.75,51.75,0,0,1-5.54.43c-2.54,0-4.22-.12-5.21-1.1a2.72,2.72,0,0,1-.79-2,39.63,39.63,0,0,1,.78-5.25c-1.21-.72-1.63-1.14-1.63-1.9,0-.53,1.29-5.54,1.3-5.59a10.14,10.14,0,0,0-.26-2.2c-.43-.94-1.66-5.46-1.67-5.5a39.7,39.7,0,0,1-.77-7.16c0-.6,0-1.21,0-1.82,0-2.19.06-4.68-.4-5.71a7.12,7.12,0,0,0-.86-1.42A6.76,6.76,0,0,1,88,51.73a7,7,0,0,0-.32-.81c-.46-1-1-2.3-1-5.76.06-4.27,5.82-6.87,8.28-8l.63-.29a8.88,8.88,0,0,1,3.55-1.13,15,15,0,0,0,1-1.36c.2-.28.37-.52.51-.7s0-.27.07-.42c.14-.85.35-2.12,1.5-2.57a2.21,2.21,0,0,1,2.25.51l.25.17a4.26,4.26,0,0,0,.16-1.45c0-.65,0-1.12,0-1.5,0-.89,0-.89-1.07-2.53l-.08-.14c-2-3.93.89-5.72,2-6.39l.32-.2a26.42,26.42,0,0,1,1.61-5.33c.47-1.33,1.12-3.12,1.21-3.69a3,3,0,0,1,1.16-2.47,5.83,5.83,0,0,1,5.51-1.61,4.93,4.93,0,0,0,3.18-.6A4.45,4.45,0,0,1,122,5a26.78,26.78,0,0,1,2.62,1.18c1.2.58,2.69,1.3,4.62,2.13l.86.37v.94c0,1.83,0,5.62.9,6.17l1.79,1.09-1.68,1.26a2.52,2.52,0,0,0-1.24,1.79c0,.54.34,1.72,2.74,3.62l2.16,1.72-2.66.76a3.12,3.12,0,0,0-1,.43,4.82,4.82,0,0,0,1.49,1.39c.76.23,3.57,1.11,4.3,1.84,1.84,1.84,2.85,3.33,3.09,4.55l.33,1.64-1.67.06a5.46,5.46,0,0,0-2.51,1c.11.18.25.37.39.56a6.65,6.65,0,0,1,1.26,2.48,4.94,4.94,0,0,0,2.57.77A22.75,22.75,0,0,1,145.1,42c1.14.39,2.32.8,2.88.92.73.16,1.15.29,1.57.42a18.23,18.23,0,0,0,1.9.48l.82.17a13.49,13.49,0,0,1,2.86.8,1.72,1.72,0,0,0,.08-.38c.12-1.27,2.22-3.72,3.9-3.87a27.91,27.91,0,0,0,4.07-2.85l7-12.39,1.31,1.62A15.4,15.4,0,0,1,174,31.16c.42,1.52,1.16,5.61,1.67,9.31.4,2.89,1.06,3,1.82,3.13A18.5,18.5,0,0,1,184.69,47l.42.32.11.51a1.83,1.83,0,0,1-.36,1.54c-.77,1-2.3,1.07-4.37,1.12l-.73,0c-.3,0-.71.09-1.17.16a12.28,12.28,0,0,1-4.8.12,6.33,6.33,0,0,0-1.45-.27,1.75,1.75,0,0,0-.11.44L172,52.71l-1.67-.64a1.69,1.69,0,0,0-1.67.07c-1,.65-1.77,2.61-1.87,4.76a5.69,5.69,0,0,1-4.07,5.42l-.19,0-1.72.17L160.29,66a20.3,20.3,0,0,1,5.27,6.53l.12.25,0,.28c.08,1.17.37,1.72.62,1.85.42.21,1.35-.15,1.76-.41l.59-.38,4.18,1.52c.88-.54,2.64-1.62,4.76-2.82a19.19,19.19,0,0,0,2.29-1.54,6.05,6.05,0,0,1,4.1-1.63c3.08,0,6.09,3.1,6.61,5.19.06.28.1.29.15.31,1,.34,3.9-1,5-2l1.42-1.26.8,1.72c.92,2,1.2,5.3,1.15,7.72v.13c-.65,5.71-.86,10-.57,11.66l.13.79-.61.52c-.53.45-.46.7-.32,1.25.46,1.79-.7,2.26-1.07,2.36l-.26.09a7.68,7.68,0,0,1-4.05.34l-.19,0-.16,0h0a5.17,5.17,0,0,1-1.19,1.65,14,14,0,0,1-3.29,1.88,19,19,0,0,0-3.67,2.05l-.6.48-.73-.24c-1.37-.44-3.79,0-7.4,1.38l-.11,0c-1.49.43-1.68,1.6-1.73,4a12.85,12.85,0,0,1-.15,2l-.15.82-.79.26c-.56.19-1.59.5-2.68.83s-2.49.76-3.29,1a14.44,14.44,0,0,1-4.76.16c-1.27-.07-2.7-.15-4-.1a.34.34,0,0,0-.17.16,3.1,3.1,0,0,0,.65,1.83c.38.61,8.06,13,9.21,15.57l.21.47-.14.5c-.27.95-.14,1.25-.14,1.25a4.09,4.09,0,0,0,1.8.1l3-.17-1.82,2.43c-.2.27-.24.43-.23.47a2.68,2.68,0,0,0,1.4.86l1.51.43-.58,1.46a17.9,17.9,0,0,1-1.69,2.9,5.55,5.55,0,0,0-.36,1.3,14.4,14.4,0,0,0,2-1.15l1.28-.89,5.27,9.29,2.72,5.44a4.85,4.85,0,0,1,.18,3.06c.34,1.29,4.63,4.78,5.93,5.46l.09,0a6.34,6.34,0,0,1,3,2.32l.18.31v.36q0,.17,0,.31l.17-.26,2.1-3.46.52,4c.11.88.34,1.09.34,1.09a2.34,2.34,0,0,1,.24-.12l2.67-1.76L196,173.7h1.85v3.5l2,.31v2.89l3,.38-.73,2.85,2.27.25-.23,3.19,2.39.33v2.49l2.08.51v2.68h2.23l-.14,2.46c-.08,1.34.92,2,2.79,2.83l.44.19a6.8,6.8,0,0,0,1.23.39,9.06,9.06,0,0,1,2.39.88,15.77,15.77,0,0,0,.55-2.46l.42-2.37,1.66.75c1.35.61,2.68-.87,2.74-.93l.66-.75,2,.81.24.45a7.89,7.89,0,0,1,.5,4.54,7.66,7.66,0,0,0-.05,1.7c.06.33.12.8.18,1.35.23,2.09.67,6,2.78,7,2.58,1.29,11.79,7,13,8.21h0c.24.24,1.79,1.51,3.44,2.85,6.29,5.14,12.55,10.31,13.9,12.2a19.2,19.2,0,0,1,3.64,9.93c.27,3.66,0,5.69-2.35,8-.94.94-2.71,2.34-4.76,4a76.11,76.11,0,0,0-6.12,5.15l-.87.88c-1.64,1.64-1.85,1.85-2,4.57-.26,3.78-2.22,22.33-2.8,26.46-.61,4.36-4.42,17.64-6.17,20.06-1,1.36-3.28,2.21-5.95,3.2-2.34.87-5,1.85-5.95,3a24.33,24.33,0,0,1-3.4,3.11c-1.36,1.09-2.76,2.22-2.91,3.06l0,.2a73.67,73.67,0,0,1-2.19,9.92,32.3,32.3,0,0,0-1.28,5.46l-.08.57-.46.36c-.31.24-1.44.88-5.24,1.62s-10.24,2.42-10.31,2.43Zm-13.08-24.2.87.66a27.24,27.24,0,0,0,3.17,1.79c3.93,2,6.54,3.51,7.06,5.49.46,1.78,2.91,9.71,3.89,12.84,2.11-.53,6.3-1.57,9.17-2.13a24.78,24.78,0,0,0,3.63-.92,33.12,33.12,0,0,1,1.3-5.25,73.25,73.25,0,0,0,2.07-9.45l0-.2c.33-1.9,2.08-3.3,3.93-4.79a21.78,21.78,0,0,0,3-2.73c1.43-1.7,4.33-2.77,7.13-3.8,1.75-.65,4.16-1.54,4.63-2.19,1.23-1.71,5-14.36,5.66-18.8.57-4.1,2.52-22.51,2.78-26.26.25-3.6.88-4.4,2.85-6.37l.84-.85a75.61,75.61,0,0,1,6.4-5.4c1.9-1.5,3.69-2.92,4.51-3.74,1.52-1.52,1.78-2.5,1.53-5.82a16.19,16.19,0,0,0-3.12-8.49c-1.25-1.73-9.15-8.19-13.39-11.65-2.87-2.34-3.49-2.86-3.74-3.14a129.51,129.51,0,0,0-12.17-7.58c-3.49-1.74-4-6.62-4.33-9.24-.05-.46-.09-.86-.15-1.14a9.09,9.09,0,0,1,0-2.49,14.23,14.23,0,0,0,.09-1.71,5.19,5.19,0,0,1-2.89.85c-.33,1.77-.74,3.23-2,3.83a2.55,2.55,0,0,1-2.43-.17,6.3,6.3,0,0,0-1.85-.69,9.36,9.36,0,0,1-1.72-.56l-.38-.16c-1.34-.57-4.38-1.87-4.51-5.06h-2.08v-3.29l-2.08-.51v-2.24l-2.57-.35.22-3.12-2.8-.31.74-2.9-2.3-.29v-3l-2-.31v-3.08h-2.32l.58-3.74a2.66,2.66,0,0,1-.53-.18,2.78,2.78,0,0,1-1.07-.87,2.29,2.29,0,0,1-1.76.29c-1.12-.29-1.76-1.34-1.91-3.12a5.23,5.23,0,0,0-1.57-1l-.11-.05c-.48-.22-7.41-4.73-7.58-8v-.16l0-.16a4.73,4.73,0,0,0,.1-1.52l-2.68-5.36-3.73-6.57c-1.94,1.14-2.67,1-3,.9a2.59,2.59,0,0,1-1.82-1.32c-.51-1-.41-2.27.32-4.08l.14-.27c.35-.52.62-.95.84-1.3a3.86,3.86,0,0,1-1.73-2,2.88,2.88,0,0,1-.15-.85,3.3,3.3,0,0,1-2.17-1.13,3.7,3.7,0,0,1-.5-3.24c-1.36-2.68-6.71-11.4-8.77-14.72-.22-.31-1.58-2.32-1-4.22a3.18,3.18,0,0,1,2-2.08l.21-.08h.23a44.08,44.08,0,0,1,4.6.09,15.5,15.5,0,0,0,3.7,0c.81-.27,2.13-.67,3.36-1l1.75-.54c0-.24,0-.49,0-.75,0-2.07.12-5.54,3.71-6.62,3.82-1.45,6.49-2,8.48-1.6a25,25,0,0,1,3.68-2,13.35,13.35,0,0,0,2.6-1.42,2.5,2.5,0,0,0,.56-.82c.52-1,1.34-2,3.43-1.43a4.91,4.91,0,0,0,1.95,0,3.52,3.52,0,0,1,.81-2.8,72.47,72.47,0,0,1,.64-11.64,22.88,22.88,0,0,0-.39-4.75c-1.74,1-4.25,2-6.09,1.41a3,3,0,0,1-2-2.38c-.23-.9-2.21-3-3.85-3-1,0-1.37.29-2.39,1.06a21.77,21.77,0,0,1-2.6,1.75c-2.92,1.65-5.21,3.1-5.23,3.12l-.59.37L169,77.19a4.56,4.56,0,0,1-3.92.2c-1.24-.63-2-1.94-2.15-3.9A17.84,17.84,0,0,0,158,67.74l-.71-.5,1.07-7.31,3.79-.38a2.86,2.86,0,0,0,1.84-2.78c.12-2.46,1-5.59,3.15-7a4.28,4.28,0,0,1,2.78-.69,2.69,2.69,0,0,1,.87-1c1.18-.79,2.62-.4,3.77-.09a10.66,10.66,0,0,0,3.64-.18c.55-.09,1-.16,1.43-.19l.84,0a13.58,13.58,0,0,0-3.36-1.24C175,46,173.48,45,172.91,40.86c-.53-3.84-1.25-7.72-1.59-8.94a6.6,6.6,0,0,0-.75-1.47l-5.18,9.12-.21.17c-4.1,3.31-5.28,3.61-5.78,3.64A4.85,4.85,0,0,0,158,44.82a3.52,3.52,0,0,1-1.44,2.55,2.56,2.56,0,0,1-2.34.13,10.78,10.78,0,0,0-2.52-.71l-.84-.17a21.08,21.08,0,0,1-2.16-.54c-.36-.11-.72-.22-1.36-.36s-1.86-.55-3.19-1a31.1,31.1,0,0,0-3.95-1.21c-1.63-.07-4.81-.8-5.22-3a4.37,4.37,0,0,0-.79-1.42,7.47,7.47,0,0,1-.94-1.58,2.1,2.1,0,0,1,.26-2,6.19,6.19,0,0,1,3-2A16.21,16.21,0,0,0,135,31.7a25.58,25.58,0,0,0-3.25-1.21c-.56-.14-3.42-2-3.46-4.12a2.59,2.59,0,0,1,1-2.08A6.36,6.36,0,0,1,127,19.84a4.53,4.53,0,0,1,1.25-3c-.9-1.6-1-4-1-6.33-1.59-.7-2.85-1.31-3.89-1.81s-1.78-.86-2.31-1c-.11,0-.74.28-1.16.45a7.38,7.38,0,0,1-5.1.69c-1.16-.37-2.64.73-3,1.26,0,.72-.34,1.83-1.38,4.76A36.53,36.53,0,0,0,109,19.37c.19,1.29-1,2-1.67,2.43-1.2.73-1.76,1.08-1,2.6,1.37,2,1.56,2.46,1.5,4.14,0,.34,0,.76,0,1.34.06,2.72-.91,3.78-1.74,4.19a2.66,2.66,0,0,1-2.49-.12,2.8,2.8,0,0,1-.58,1.47c-.11.12-.27.36-.46.63-1.1,1.55-1.83,2.5-2.91,2.5a11.24,11.24,0,0,0-2.22.55,5,5,0,0,1-1.24.67c-1.63.74-6.58,3-6.61,5.43,0,2.84.35,3.72.73,4.57a9.58,9.58,0,0,1,.44,1.13,4.05,4.05,0,0,0,.74,1.33,9.9,9.9,0,0,1,1.17,1.94c.72,1.61.68,4.18.65,6.91,0,.59,0,1.19,0,1.78A37.78,37.78,0,0,0,94,69.34c.1.4,1.24,4.42,1.47,4.95a9,9,0,0,1,.42,4.24c-.12.38-.72,2.86-1,4.18l.92.54.91.51-.21,1a48.25,48.25,0,0,0-.93,5.68v0a8,8,0,0,0,3.12.26,50.68,50.68,0,0,0,6.22-.55l1.07-.17,2.3,5.1a7,7,0,0,1,4.24,6c0,1,0,1.93,0,2.83,1.63-1.43,3.76-2.55,6.06-1.76a6.83,6.83,0,0,1,5,6l0,.18a5.31,5.31,0,0,1-.66,2.82,4,4,0,0,1,1.9,3.15,12.89,12.89,0,0,0,.41,2.06c.21.79.61,2.27-.9,3-1.09.54-1.46.54-3.9.54l-1.27,0h-1a2.87,2.87,0,0,1-1.14,2.51,2,2,0,0,1-.86.29,3.23,3.23,0,0,1-2.61,1.71,10.9,10.9,0,0,0,.33,1.55,4.22,4.22,0,0,1,.06,2.71l.15.14a6.67,6.67,0,0,1,2.62,6.07c1.13,2.33,1.5,5.59.2,7.86,0,1.66.56,6.62.95,9.9a13.49,13.49,0,0,0,1.24,4.66c.53,0,1.75-.2,2.93-.34,6.4-.78,12.9-1.5,16-.86,4.6.73,9.42,1.49,12.06,5.58,1,1.58,1.36,2.81,1.06,3.88a3.58,3.58,0,0,1-2.2,2.14,5.12,5.12,0,0,0-.6.32,7.22,7.22,0,0,1-.88.49,2.8,2.8,0,0,1,1.09,2,5.21,5.21,0,0,1,4.28,2c1.87-.67,3.8-1.32,5.34-.23,1.15.81,1.72,2.32,1.81,4.83.87.64,1.53,1.22,2,1.66.25.22.55.48.76.64a1.9,1.9,0,0,1,1.85-.07c1.08.57,1.52,2,1.44,5v.06c.3,0,.73-.06,1.08-.11.52-.06,1.12-.14,1.78-.17a6.36,6.36,0,0,0,5.73-5,5.71,5.71,0,0,1,6.45-4.59l.72.12.32.65c6.87,13.87,6.54,15.25,6.42,15.77-.27,1.14-1.58,2.36-8.26,6.19l-1,.57a30,30,0,0,1-5.49,4,4.38,4.38,0,0,1-.14,3.25,7.09,7.09,0,0,0,4.27,1.73c2.27.21,6.56,2.26,9,6.19,1.43,2.33,2,2.51,3.11,2.91.38.13.78.27,1.25.47a22.12,22.12,0,0,1,6.19,3.91c.85,1,4.91,3.64,6,3.55,1.84-.42,4-.62,5.88,2.38.88,1.4,2.26,4,1.57,5.89a2.52,2.52,0,0,1-1.35,1.45c-.33.84-.39,3.67-.16,6.6a3.11,3.11,0,0,1,2,1.51c.62,1.19.28,2.69-1,4.45-1.6,2.5-1.49,2.73-1.25,3.25a8.6,8.6,0,0,1,.38.93,26,26,0,0,0,2.46,4.2c.6.92,1.17,1.78,1.64,2.57.78,1.33,2.61,4.43-.6,6.57a21.65,21.65,0,0,1-3.71,1.75,16.5,16.5,0,0,0-2.61,1.2,12.88,12.88,0,0,1-1.49.88c-.72.38-2,1.1-2.11,1.55-.23,1.64-.85,5.71-.85,5.71l-.08.54-.42.34c-1.22,1-5.4,4.13-7.94,3a2.83,2.83,0,0,1-1.58-2.1l-.32-.06c-1.84-.31-3.53-1.08-3.68-4.38-3.39-1.11-4.46-.68-4.72-.5-1.33.88-8.82,3.39-11.76,4.35-1.61,2.27-5.32,5.46-9.73,3.61-3-1.45-8.65.37-9.35,1.25-.32.55-3.48,5.62-8.78,6a21.77,21.77,0,0,0-3.1.63,4.38,4.38,0,0,1-.75,3l-.56.86a12.33,12.33,0,0,0-1.15,2c.27.61,1.87,3.34,3.35,5.75,1.06.44,2.79,1.72,3,5.47h.13a2,2,0,0,1,1.53.6,3.47,3.47,0,0,1,.56,2.6,5.38,5.38,0,0,0,1.78,4.4,23.88,23.88,0,0,1,2.85,4.24c.18.31.31.55.38.65h0a4,4,0,0,1,.17,3.41,2.84,2.84,0,0,1-2.89,1.66,13.74,13.74,0,0,0-2.57.13c6.94,2.18,19.8,5.81,25.79,6.05l.16,0c6.21,1,8.44-1.72,10.42-4.11a13.5,13.5,0,0,1,2-2.12ZM240,219.94l.06.07Zm-54.19-29.71Zm-7-32.19ZM92.88,75.52l0,.09ZM158,44.88ZM97.33,39.13Zm.32-.32h0ZM95.3,37.22h0Zm.29-.31a1.31,1.31,0,0,0-.29.31A1.44,1.44,0,0,1,95.59,36.91Zm4-1.21a1.15,1.15,0,0,0-.26,0ZM109,19.41h0Zm0-.13h0Zm.05-8.89h0Z"/></svg>