<svg id="Layer_1" data-name="Layer 1" xmlns="http://www.w3.org/2000/svg" viewBox="0 0 350 350"><defs><style>.cls-1{fill:#999;}.cls-2{fill:#f90;}</style></defs><title>M</title><path class="cls-1" d="M337,165.7c-.57-4.28-.76-8.61-1.33-12.89a4.31,4.31,0,0,0-1.85-2.67c-2.47-1.54-5.16-2.73-7.64-4.27-.34-.21-.16-2.29.16-2.4,5.72-2,7-6.52,7.23-11.82a15.13,15.13,0,0,1,.6-3.06c1.64-6.51,1.36-7-5.34-8.57-1.24,1.53-.3,5.66-4.38,4.2l.06,0c.47-1.54,1.59-3.19,1.36-4.61-.89-5.56-2.34-11-3.31-16.58a3.91,3.91,0,0,0-2-3c-2.33-.2-4.71-.3-7.11-.35-.38-4.66,2.56-8,8.26-9.95-1.5-1.26-2.32-1.89-3.07-2.58-3.7-3.46-2.84-7.06,1.94-8.69a27.12,27.12,0,0,0,4.17-2.28c-.85-2.29-1.21-4.47-2.38-6.07s-3.16-2.61-5.19-4.19a26.73,26.73,0,0,1,3-1.92c3-1.28,2.09-3.75,1.87-6s-1.73-3-3.89-3c-1.94,0-4.71.38-5.67-.69-3.07-3.43-7.24-2-10.86-3.71-.73,4.81-4.21,4-7,3.48-3.39-.69-4.74.56-5.34,3.62-.21,1.09-.69,2.83-1.38,3a40.15,40.15,0,0,1-9.73,1.69c-2.15,0-3.6-.05-4.05,2.39a33.31,33.31,0,0,1-.94,3.26c-3.95.72-4.39-1.88-4.22-4.55.18-2.92-1-4.29-3.8-4.59a13,13,0,0,1-3-.89c-3.67-1.34-6.7,1.23-7.05,5.17a55.51,55.51,0,0,1-2.58,10.89,69.92,69.92,0,0,0,2.31-9c-.74-.21-1.49-.42-2.24-.61-.39,1.64-.78,3.28-1.14,4.94-.6,2.73-2.39,2.93-4.69,2.64-3.06-.39-6.14-.6-9.2-.89l-1,1.23c.66,1.37,1.7,2.69,1.9,4.12.24,1.74.36,4-.52,5.3-2.68,4.11-2.24,8.6-1.89,12.93s2.18,5.23,6.47,4.85c.92-.08,1.82-.3,3-.51,1.47,2.35,3.62,4.63,4.37,7.3s.17,5.82.17,8.75l-.86.63L244,111.52c.36,3-.24,5.21-3.37,6-.51.13-1.06,1.31-1.05,2a44.77,44.77,0,0,0,.49,8.58c.65,3.17,3.29,3.93,6.47,3.33l.29,1.08a65.22,65.22,0,0,1-6.31,4.26,3.34,3.34,0,0,0-2.2,3.34c-.07,1.43-1.51,2.79-2.33,4.18-1.07-.7-2.09-1.48-3.21-2.09-1.79-1-3.9-2.87-5.42-2.5-2.46.58-3.6,3.23-2.78,5.92.72,2.38,1.84,4.64,2.85,7.13-3,1.12-6.05,1.85-9.44.33a40.73,40.73,0,0,0-6.53-1.77c-1.82,2.88-2.22,5.22-.8,8.12.69,1.41,0,3.56-.26,5.36-.27,2.15-1.17,4.32-1,6.4.59,6.24,2,7.59,8.48,8.26,2.7.28,3.48,1.13,2.43,3.76a30.19,30.19,0,0,0-1.11,5.13l-17.18-4.32L197,188.48l-1.26-1c1.7-2.66,3.44-5.31,5.1-8,.89-1.43,2.68-3.36,2.27-4.32a7.78,7.78,0,0,0-4.34-4.2c-5-1.35-7.84-6.57-5.38-11.13a4.91,4.91,0,0,1,2.75-2.3,74.66,74.66,0,0,1,7.88-1.1L201.24,160l.35.26a28.34,28.34,0,0,1,2.84-1.94,5.43,5.43,0,0,0,2.49-6.91c-.23-.62.63-1.6.47-2.29-.6-2.49-1.27-5.15-4.49-5.39a128.07,128.07,0,0,0-14.47-.36,3.67,3.67,0,0,1-1.09-5c1.16-2.34-.36-4.71-2.83-5.56-4.15-1.43-8.21.67-12.34.14a18.34,18.34,0,0,0-3.94.18c-1,3.17-1.88,6.06-2.94,8.86-1.71,4.5-5.39,5-9.64,4.89-3.28-.09-6.58.9-9.86.79-2.79-.09-6-.32-8.25-1.76-7-4.56-9.26-2-14.61,2.78-2.38,2.14-4.13,5-6.21,7.45a9.63,9.63,0,0,1-1.76,1.27c-.84-4-1.6-7.65-2.41-11.31a24.56,24.56,0,0,0-1.12-3.95c-.8-2-.34-3.14,1.17-4.81a42.28,42.28,0,0,0,4.22-5.77l-1.75-.29c-1,2.11-2.14,4.23-5.23,4.91l-.45,3.45-.56-.67a60.7,60.7,0,0,1-5.23,3.78,13.07,13.07,0,0,1-4.37,1.52c-4.37.72-8.8,1.14-13.15,2-.8.15-1.42,1.6-2,2.53-2.46,4-4.76,8.1-7.38,12-.6.89-2.25,1.08-3.18,1.49-.67-2.53-1.16-4.54-1.76-6.52-.14-.45-.81-.71-1-1.16-.72-1.41-1.93-2.88-1.9-4.3q0-.77,0-1.52a5.61,5.61,0,0,1-1.67-.65,6,6,0,0,0,.31,1.44H54.42a7,7,0,0,1-1-.09c-2-.3-4-2.08-5.75.68-1.12,1.74-2.94,3-4.26,4.65-1.17,1.45-1.81,2.93-4.41,2.25-1.07-.28-3.35,1.62-4.09,3-1.13,2.19-2.11,3.81-4.85,3.26s-5-1.82-5-4.86c-.06-3.32-1.83-3.77-4.63-4.08a39,39,0,0,1-4.25-.72,12,12,0,0,0-3.62,2.77,9.19,9.19,0,0,1,.38,1.78c.66,4.34.79,8.86,2.19,12.95,1.67,4.85,2,9.3.08,14-1.47,3.68,1.48,6.94,5.56,6.26a14.77,14.77,0,0,0,2.69-.84c3.85,2.9,6.93,5.78,10.51,7.76,3,1.69,3.91,3.68,3,6.71-1,3.28-1.6,6.48.46,9.35a31.86,31.86,0,0,1,5.79.95c5.43,1.94,10.78,4.12,16.15,6.24A18,18,0,0,1,61,222.74a81.42,81.42,0,0,0,7.8,4.07c1.53.62,3,.75,3.29,2.84a13.29,13.29,0,0,0,1.44,3.29,14.41,14.41,0,0,0,3-1.05c2.63-1.66,4.36-1,6.39,1.33A148.82,148.82,0,0,0,94,244.2c2.18,2,4.8,3.53,7,5.56a3.38,3.38,0,0,1,.39,3.27c-3.35,4.08-3.82,8.85-4.61,13.86a60.23,60.23,0,0,0,3,31.24c2.48-4.38,6-4.26,9.69-3.58,0-2.71.59-4.41,3.6-2.5.4.26,1.12.05,1.69,0,5.18-.42,10.41-.57,15.52-1.43,2-.35,3.87-2.23,5.72-3.53,1.4-1,2.56-2.33,4-3.17a68.76,68.76,0,0,1,10.17-5.24c2.55-.94,5.77-1.69,8.21-.94a23.4,23.4,0,0,0,12.92.68c1-.24,2.42-.52,3,0,3.16,2.77,5.16.67,7.79-1.08,3-2,6.46-4.1,9.83-4.29,6.22-.35,11.44-2.85,16.56-5.69,2.87-1.59,6.25-3.66,4.43-8.18-.12-.31.21-.91.49-1.25,2.45-3,4.73-6.2,7.45-8.94,3.71-3.75,7.84-6.78,9.45-12.47,1-3.59,4.23-6.73,6.93-9.63,2.89-3.11,6.74-5.35,7.56-10.05.12-.72,1.26-1.44,2.09-1.82,4.18-1.92,8.38-3.8,12.64-5.52a6.86,6.86,0,0,1,4-.55c5,1.37,9.82,2.25,14.65-1,1.83-1.22,4.35-1.42,6.57-2,6.69-1.79,13.4-3.54,20.09-5.35.48-.13.86-.66,1.25-1-1.21-3.89-2.33-7.71.17-11.19,2.63-3.66,5.57-7.1,8.54-10.51.63-.72,2.17-1.43,2.89-1.14,2.78,1.11,4.33-.5,6.06-2.08,1.09-1,2.26-2.55,3.48-2.63a63.67,63.67,0,0,1,9,0c.47-1.44,1-2.88,1.47-4.31A10.41,10.41,0,0,1,337,165.7Zm-23.41-64.8a11.14,11.14,0,0,1-.18-1.29A11.82,11.82,0,0,0,313.63,100.9Zm.4,1.56a13.69,13.69,0,0,1-.37-1.4A13,13,0,0,0,314,102.46Z"/><path class="cls-2" d="M99.48,301.48l-1.06-2.86a61.94,61.94,0,0,1-3.08-32l.2-1.28c.68-4.5,1.39-9.16,4.64-13.17a2.73,2.73,0,0,0-.23-1.48A37.4,37.4,0,0,0,96.55,248a41.14,41.14,0,0,1-3.5-2.79,150.26,150.26,0,0,1-11.2-11.09c-1.75-2-2.74-2.22-4.57-1.07a8.42,8.42,0,0,1-2.32.91c-.32.09-.64.18-1,.29l-1.21.41-.53-1.16c-.17-.36-.35-.7-.53-1a7.76,7.76,0,0,1-1-2.66c-.11-.82-.32-.95-1.6-1.4l-.82-.31a53.7,53.7,0,0,1-5.94-3l-2-1.11a7,7,0,0,1-.92-.63,3.42,3.42,0,0,0-.64-.43L56,221.83c-4.36-1.73-8.86-3.53-13.34-5.13a15.62,15.62,0,0,0-3.56-.64c-.65-.07-1.31-.14-2-.24l-.59-.09-.35-.48c-2.43-3.37-1.75-7.08-.67-10.59.74-2.38.13-3.7-2.31-5.05a53,53,0,0,1-7.29-5.21c-.89-.71-1.81-1.45-2.77-2.19a12,12,0,0,1-2.22.63,6.59,6.59,0,0,1-6.34-2.17,5.94,5.94,0,0,1-.77-6c1.63-4.09,1.6-8.12-.1-13.06A44.07,44.07,0,0,1,12,162.21c-.14-1.26-.29-2.56-.48-3.81l0-.12a7.58,7.58,0,0,0-.29-1.39l-.29-.77.52-.63a13.26,13.26,0,0,1,4.06-3.13l.46-.24.5.11a37.56,37.56,0,0,0,4.1.69c2.31.25,5.8.63,5.89,5.46,0,1.35.51,2.82,3.89,3.5,1.61.32,2.12-.21,3.31-2.52.84-1.63,3.67-4.29,5.7-3.77,1.33.35,1.6,0,2.47-1.16l.47-.61a23.26,23.26,0,0,1,2-2.08,14.87,14.87,0,0,0,2.19-2.45c1.94-3,4.44-2.17,5.93-1.66a7.81,7.81,0,0,0,1.22.35,5.78,5.78,0,0,0,.83.08H65.75l-.32-2.7,2.47,1.46a4.19,4.19,0,0,0,1.25.48l1.11.24v1.14q0,.77,0,1.56a5.66,5.66,0,0,0,1,2.37c.24.4.47.79.68,1.18l.18.16a2.72,2.72,0,0,1,1,1.29c.45,1.45.82,2.9,1.26,4.57l.14.54a2.81,2.81,0,0,0,1-.46c1.74-2.57,3.36-5.3,4.94-7.94.8-1.33,1.59-2.67,2.41-4,.11-.18.22-.38.34-.59.62-1.1,1.31-2.35,2.59-2.59,2.53-.48,5.11-.83,7.6-1.17,1.84-.25,3.74-.5,5.58-.81a11.68,11.68,0,0,0,3.89-1.35,33.12,33.12,0,0,0,3.54-2.5c.52-.4,1-.8,1.57-1.19l.23-.17.35-2.64,1-.21c2.39-.52,3.27-2,4.25-4.12l.46-1,4.92.82-1.15,1.8a43.4,43.4,0,0,1-4.36,6c-1.34,1.49-1.4,2.1-.91,3.33a25.76,25.76,0,0,1,1.2,4.17c.57,2.58,1.12,5.17,1.68,7.86l.27,1.28c.61-.74,1.2-1.52,1.77-2.28a34.76,34.76,0,0,1,4.32-5l.7-.63c4.82-4.35,8-7.23,15.63-2.28,1.84,1.2,4.71,1.45,7.53,1.53a28.32,28.32,0,0,0,4.72-.38,32.53,32.53,0,0,1,5.14-.41c4.34.12,6.94-.47,8.27-4,.71-1.88,1.33-3.81,2-5.86.3-1,.61-1.93.94-2.94l.3-.92,1-.05.69-.07a14,14,0,0,1,3.51-.09,18.33,18.33,0,0,0,4.89-.28c2.48-.36,5-.72,7.73.2a6.22,6.22,0,0,1,3.81,3.41,4.94,4.94,0,0,1-.18,4.13,2.2,2.2,0,0,0,.33,2.95,128.88,128.88,0,0,1,14.06.39c4.28.32,5.17,4,5.76,6.47a3.25,3.25,0,0,1-.31,2c0,.1-.09.23-.13.33a7.56,7.56,0,0,1,.39,2.9,12.77,12.77,0,0,1,1.58-3.41l.55-.87,1,.26c.65.17,1.31.31,2,.45a23.63,23.63,0,0,1,4.78,1.39,9.29,9.29,0,0,0,7,.12l-.37-.85a47,47,0,0,1-1.95-5,6.63,6.63,0,0,1,.46-5.22,5.2,5.2,0,0,1,3.34-2.5c1.7-.4,3.37.69,5,1.75.51.33,1,.65,1.44.89a24.58,24.58,0,0,1,2.17,1.37l.11-.15a5.32,5.32,0,0,0,1.18-2.13,4.71,4.71,0,0,1,3-4.53,32.49,32.49,0,0,0,3.88-2.53,5.4,5.4,0,0,1-5-4.6,37.6,37.6,0,0,1-.51-7.51v-1.34c0-1,.69-3,2.11-3.39,1.76-.46,2.7-1.34,2.32-4.48l-.42-3.46,6.58,5.29c0-.4,0-.8.07-1.2a17.19,17.19,0,0,0-.23-5.57,16.27,16.27,0,0,0-2.7-4.73c-.33-.46-.66-.92-1-1.39l-.2,0c-.7.13-1.36.26-2,.32-2,.18-4.34.18-6-1.2-1.2-1-1.84-2.58-2-5l0-.27c-.35-4.27-.75-9.11,2.14-13.54.33-.51.66-1.68.3-4.34a7.27,7.27,0,0,0-1-2.35c-.26-.45-.51-.89-.73-1.34l-.39-.81,2-2.52.76.07,2.75.24c2.13.18,4.33.38,6.5.65,2.34.3,2.81-.1,3.13-1.54.37-1.67.76-3.32,1.15-5l.34-1.41,1.4.37.72.19,0-.22a7.61,7.61,0,0,1,3.29-5.88,6.31,6.31,0,0,1,5.66-.49l.44.16a9.68,9.68,0,0,0,2.22.64c3.58.38,5.29,2.43,5.06,6.09-.1,1.53.07,2.49.5,2.88a1.84,1.84,0,0,0,1.23.29l0-.14a17.08,17.08,0,0,0,.58-2.08C273.44,61,276,61,278,61h.24a38.46,38.46,0,0,0,9.12-1.57,7.56,7.56,0,0,0,.61-2,6.27,6.27,0,0,1,2.32-4.19,6,6,0,0,1,4.69-.55l.11,0c1.5.31,3.2.65,4.13,0a3.36,3.36,0,0,0,1.08-2.33l.28-1.86,1.71.78a13.37,13.37,0,0,0,3.93.9c2.42.31,5.16.65,7.4,3.16.37.35,2.33.29,3.26.25l1.35,0c3.24,0,5,1.44,5.3,4.25,0,.32.08.64.12,1,.28,2,.71,5-2.85,6.46a7,7,0,0,0-1.12.66l.23.16a14.49,14.49,0,0,1,3.62,3.14,14.13,14.13,0,0,1,1.89,4.37c.2.66.41,1.35.67,2l.42,1.14-1.06.59c-.43.24-.85.5-1.26.76A15.48,15.48,0,0,1,321,79.74c-1.85.63-3,1.57-3.23,2.66s.41,2.36,1.8,3.65c.45.42.94.82,1.63,1.39l1.39,1.15,1.92,1.61-2.37.81c-4.58,1.57-7,4-7.31,7.22,2.12.06,4,.17,5.82.32l.3,0,.26.14a5.34,5.34,0,0,1,2.76,4c.44,2.53,1,5.09,1.54,7.57.64,2.95,1.3,6,1.78,9a3.76,3.76,0,0,1,0,.43,3.57,3.57,0,0,1,.42-.66l.56-.69.86.21c3.48.83,5.67,1.42,6.69,3.11s.54,3.82-.31,7.19l-.11.45a11.37,11.37,0,0,0-.44,2.32c-.18,4.7-1.21,10.35-7.55,12.87,0,.13,0,.27,0,.39,1.05.63,2.16,1.22,3.24,1.79,1.29.68,2.63,1.39,3.91,2.19a5.71,5.71,0,0,1,2.51,3.69c.29,2.18.49,4.4.67,6.54s.38,4.25.65,6.35a9,9,0,0,0,.48,1.8l.18.49-.18.49c-.55,1.5-1,3-1.46,4.26l-.35,1.06-1.11-.09a62.29,62.29,0,0,0-8.76,0c-.39,0-1.26.91-1.78,1.44-.28.29-.56.57-.84.82l-.24.22c-1.69,1.56-3.79,3.49-7.2,2.17a2.85,2.85,0,0,0-1.38.72c-2.83,3.25-5.81,6.72-8.46,10.4-2,2.77-1.28,5.73,0,9.94l.29.92-.75.61a3.37,3.37,0,0,0-.25.24,3.45,3.45,0,0,1-1.51,1c-3.95,1.07-7.9,2.12-11.86,3.16l-8.23,2.19c-.65.17-1.32.32-2,.46a12.19,12.19,0,0,0-4.15,1.37c-5.36,3.57-10.75,2.52-15.8,1.15a5.47,5.47,0,0,0-3.11.5c-4.52,1.83-8.89,3.8-12.58,5.49a4,4,0,0,0-1.3.87c-.72,3.95-3.25,6.28-5.69,8.54-.78.72-1.52,1.41-2.21,2.14l-.85.91c-2.43,2.58-4.94,5.25-5.76,8.14-1.42,5-4.66,8.14-7.8,11.13-.67.64-1.35,1.29-2,2a72.75,72.75,0,0,0-5.34,6.3c-.67.85-1.34,1.7-2,2.54a1.53,1.53,0,0,0-.13.19c2,5.58-2.67,8.17-5.2,9.58-4.76,2.64-10.41,5.49-17.17,5.87-3,.17-6.29,2.18-9.13,4.06l-.93.64c-2.19,1.53-4.92,3.44-8.48.41a5.38,5.38,0,0,0-1.82.25,24.75,24.75,0,0,1-13.68-.71c-1.69-.52-4.28-.2-7.3.92a57,57,0,0,0-8.6,4.36l-1.36.78a13.51,13.51,0,0,0-2.09,1.62,21.45,21.45,0,0,1-1.82,1.48c-.46.32-.92.69-1.39,1.05a11.4,11.4,0,0,1-4.91,2.71,112.4,112.4,0,0,1-11.32,1.14c-1.44.1-2.88.19-4.32.31l-.36,0a3.14,3.14,0,0,1-2.21-.27,4,4,0,0,0-1.21-.58,5.42,5.42,0,0,0-.21,1.88v1.71l-1.68-.31c-3.95-.72-6.3-.48-8.2,2.89Zm-20.3-71.92c2.06,0,3.61,1.36,4.8,2.72a148.43,148.43,0,0,0,11,10.88,38.85,38.85,0,0,0,3.27,2.6,39,39,0,0,1,3.7,3c1.11,1.05,1.57,3.92.51,5.2-2.82,3.43-3.44,7.54-4.1,11.89l-.2,1.29a59.26,59.26,0,0,0,2.07,28c2.51-2.53,5.58-2.56,7.9-2.26a3.43,3.43,0,0,1,1.56-2.76c1.49-.82,3.23.17,4,.63l.44-.05.52-.06c1.45-.12,2.91-.21,4.36-.31a110,110,0,0,0,11-1.1,9.51,9.51,0,0,0,3.63-2.14c.51-.4,1-.79,1.51-1.15a19.13,19.13,0,0,0,1.58-1.29,15.84,15.84,0,0,1,2.55-1.94l1.34-.78a59.24,59.24,0,0,1,9-4.56c2.54-.94,6.19-1.87,9.11-1a22,22,0,0,0,12.17.66c1.52-.37,3.22-.63,4.26.28,1.84,1.61,2.75,1.13,5.09-.51l1-.68c3.14-2.08,6.81-4.32,10.53-4.52,6.16-.34,11.47-3,16-5.52,3.54-2,5-3.42,3.81-6.41a2.87,2.87,0,0,1,.7-2.67c.67-.83,1.33-1.67,2-2.5a75.17,75.17,0,0,1,5.55-6.54c.68-.69,1.38-1.35,2.07-2,3-2.86,5.82-5.56,7-9.85,1-3.56,3.88-6.62,6.42-9.32l.84-.89c.76-.82,1.57-1.57,2.36-2.3,2.22-2,4.31-4,4.84-7,.25-1.45,1.92-2.42,2.89-2.87,3.71-1.7,8.12-3.69,12.69-5.54a8.34,8.34,0,0,1,4.91-.6c4.79,1.3,9.11,2.14,13.49-.78a14.37,14.37,0,0,1,5.13-1.78c.63-.13,1.25-.26,1.85-.42l8.24-2.19q5.93-1.57,11.84-3.16h0c-1.13-3.69-2.12-7.77.63-11.6s5.75-7.32,8.62-10.61c.89-1,3-2.11,4.48-1.53,1.73.69,2.63,0,4.32-1.58l.25-.23c.24-.22.48-.47.73-.72,1-1,2.15-2.19,3.62-2.28a66.62,66.62,0,0,1,8-.05c.29-.89.62-1.85,1-2.83a11.09,11.09,0,0,1-.46-1.92h0c-.28-2.16-.48-4.35-.67-6.47s-.38-4.3-.66-6.42a2.94,2.94,0,0,0-1.2-1.66c-1.2-.75-2.49-1.43-3.74-2.09s-2.62-1.39-3.9-2.18c-.45-.28-1-.88-.81-2.81a2.28,2.28,0,0,1,1.26-2.14c4.23-1.46,6-4.51,6.27-10.53a13.59,13.59,0,0,1,.53-2.92l.11-.43c.61-2.43,1-4.34.63-5s-1.83-1.05-3.8-1.55c-.05.2-.11.4-.15.59-.29,1.16-.64,2.6-2,3.31a4.24,4.24,0,0,1-3.53,0l-3-1.08,2.42-1.27c.14-.38.3-.74.45-1.1a5.3,5.3,0,0,0,.66-2.29c-.47-3-1.12-6-1.75-8.88-.54-2.51-1.1-5.1-1.56-7.68a2.56,2.56,0,0,0-1.1-1.89c-1.54-.12-3.19-.21-5-.27.08.34.16.64.26.93v0l-2.69.88a14.41,14.41,0,0,1-.41-1.55l1.48-.31H313l-.8.16,0-.18h-.07l-.1-1.25v0c-.27-3.29.8-7.61,6.93-10.49-.5-.41-.9-.75-1.3-1.12-2.14-2-3.08-4.25-2.64-6.32s2.26-3.78,5.09-4.74a13.18,13.18,0,0,0,2.56-1.35l.35-.22c-.12-.36-.23-.72-.34-1.08a12,12,0,0,0-1.46-3.52,12.35,12.35,0,0,0-3-2.49c-.63-.44-1.29-.9-2-1.42l-1.58-1.23,1.69-1.08c.53-.34,1-.63,1.32-.88a11.15,11.15,0,0,1,1.93-1.15c1.48-.62,1.45-1.37,1.15-3.45-.05-.37-.1-.73-.14-1.09-.1-1-.33-1.69-2.49-1.69l-1.24,0c-2,.07-4.28.15-5.48-1.19-1.53-1.71-3.43-2-5.64-2.23a22.29,22.29,0,0,1-3.17-.56A5.13,5.13,0,0,1,300.82,55c-1.92,1.34-4.36.85-6.31.45l-.11,0a3.57,3.57,0,0,0-2.55.13A3.64,3.64,0,0,0,290.73,58c-.64,3.28-1.68,3.92-2.4,4.12a41.77,41.77,0,0,1-10.08,1.74H278c-2.1,0-2.22.08-2.43,1.23a19.38,19.38,0,0,1-.67,2.43c-.1.32-.21.65-.3,1l-.25.84-.86.16a5.05,5.05,0,0,1-4.44-.86c-1.51-1.34-1.55-3.59-1.45-5.17.13-2.15-.46-2.87-2.53-3.1a11.86,11.86,0,0,1-2.91-.81l-.42-.16a3.49,3.49,0,0,0-3.17.22,4.82,4.82,0,0,0-2,3.75,52.3,52.3,0,0,1-2.4,10.4l-.23.77-2.71-.82.1-.33.32-1.07c-1.53,1.62-3.84,1.32-5,1.18-2.11-.27-4.29-.46-6.39-.64l-1.88-.17.16.28a9.35,9.35,0,0,1,1.39,3.38c.39,2.91.16,4.9-.73,6.27-2.36,3.62-2,7.57-1.69,11.76l0,.27c.13,1.54.47,2.53,1,3s1.89.72,3.89.54c.54,0,1.1-.15,1.76-.28l1.17-.21.93-.16.5.8c.42.67.9,1.34,1.41,2.05a18.54,18.54,0,0,1,3.12,5.62,19.47,19.47,0,0,1,.33,6.51c-.06.91-.11,1.78-.11,2.63v.72l-2.33,1.69-3.83-3.07a5.4,5.4,0,0,1-4.14,4.38,1.9,1.9,0,0,0-.25.7v1.36a35.47,35.47,0,0,0,.46,6.95c.17.82.62,3,4.82,2.22l1.29-.24.88,3.32-.82.57c-.62.42-1.22.87-1.83,1.31a38.56,38.56,0,0,1-4.63,3c-1.18.62-1.39.93-1.44,2.16a7.07,7.07,0,0,1-1.73,3.68c-.3.41-.58.8-.8,1.17l-.76,1.27-1.24-.81-1-.69a23.74,23.74,0,0,0-2.1-1.34c-.55-.3-1.1-.66-1.64-1-.85-.55-2.26-1.49-2.78-1.36a2.36,2.36,0,0,0-1.54,1.15,3.81,3.81,0,0,0-.21,3,45.28,45.28,0,0,0,1.84,4.71c.32.75.65,1.51,1,2.29l.55,1.35-1.37.51c-3.17,1.19-6.63,2-10.52.3a21.15,21.15,0,0,0-4.22-1.21l-1-.23a5.74,5.74,0,0,0-.22,5.88c.72,1.48.39,3.26.09,4.84-.08.45-.17.9-.22,1.32a25,25,0,0,1-.49,2.5,11.74,11.74,0,0,0-.48,3.59c.53,5.53,1.4,6.38,7.22,7,1.42.15,3,.47,3.74,1.75s.29,2.87-.15,3.94a15,15,0,0,0-.74,3.16c-.09.57-.19,1.15-.3,1.73l-.3,1.45-17.9-4.5L197,190.3l-3.22-2.43,2.2-3.43c1.21-1.88,2.42-3.76,3.6-5.66.25-.41.57-.86.9-1.31a11.18,11.18,0,0,0,1.19-1.88,6.33,6.33,0,0,0-3.33-3.2,10,10,0,0,1-6.61-5.6,8.55,8.55,0,0,1,.35-7.57,6.3,6.3,0,0,1,3.66-3,44.3,44.3,0,0,1,5.7-.86c.77-.08,1.55-.17,2.33-.27l1.85-.24a4.45,4.45,0,0,0-.09-3,2.91,2.91,0,0,1,.24-2.16c0-.12.12-.3.15-.41-.66-2.73-1.21-4-3.19-4.19a126.23,126.23,0,0,0-14.31-.36l-.53,0-.41-.33a5.08,5.08,0,0,1-1.46-6.75,2.09,2.09,0,0,0,.09-1.79,3.45,3.45,0,0,0-2.11-1.8c-2.05-.7-4.17-.4-6.41-.08a20.57,20.57,0,0,1-5.66.28,11.43,11.43,0,0,0-2.69.08l-.65,2c-.66,2.09-1.29,4.06-2,6-2,5.32-6.49,5.92-11,5.8a28.91,28.91,0,0,0-4.67.38,31.91,31.91,0,0,1-5.19.41c-3.23-.1-6.55-.42-9-2-5.79-3.76-7.4-2.31-12.18,2l-.71.64a32.11,32.11,0,0,0-4,4.61c-.68.89-1.38,1.82-2.12,2.7a5.57,5.57,0,0,1-1.39,1.1c-.2.12-.41.25-.63.41L114,159.74l-1.18-5.57c-.56-2.68-1.1-5.26-1.67-7.83a23.79,23.79,0,0,0-1-3.65l-1.54-1.84-.45.35a36,36,0,0,1-3.85,2.71,14.42,14.42,0,0,1-4.85,1.7c-1.89.31-3.81.57-5.67.82-2.41.33-4.91.66-7.32,1.12a7.48,7.48,0,0,0-.78,1.21c-.14.24-.27.48-.4.69-.81,1.31-1.6,2.64-2.39,4-1.59,2.67-3.24,5.44-5,8.07a5.08,5.08,0,0,1-3,1.72,7.35,7.35,0,0,0-.82.27l-1.51.66-.42-1.6c-.19-.71-.36-1.37-.53-2-.41-1.58-.76-2.94-1.17-4.29l-.12-.1a3.14,3.14,0,0,1-.87-1c-.18-.36-.4-.72-.62-1.08a9.12,9.12,0,0,1-1.39-3.18h-13a8.49,8.49,0,0,1-1.25-.11,10,10,0,0,1-1.71-.46c-1.54-.52-1.93-.6-2.65.51a17.12,17.12,0,0,1-2.6,2.95,20.87,20.87,0,0,0-1.75,1.83l-.42.54c-1,1.26-2.26,3-5.35,2.22a5.89,5.89,0,0,0-2.57,2.3c-1,2-2.47,4.79-6.39,4-5-1-6.12-3.94-6.17-6.22,0-2-.51-2.38-3.37-2.7-1.26-.14-2.56-.35-3.89-.63a11.13,11.13,0,0,0-2.25,1.66c.08.36.13.72.18,1.07l0,.11c.2,1.3.35,2.63.5,3.91a41.29,41.29,0,0,0,1.64,8.78c1.92,5.56,1.93,10.33.05,15a3.06,3.06,0,0,0,.34,3.18A3.81,3.81,0,0,0,20.47,190a10.69,10.69,0,0,0,2.05-.63l.43-.16.7-.23.59.44c1.21.92,2.35,1.83,3.46,2.71a50.83,50.83,0,0,0,6.89,4.94c3.63,2,4.78,4.67,3.64,8.37-1,3.1-1.3,5.49-.06,7.61l1.21.14a18,18,0,0,1,4.22.79c4.52,1.62,9.05,3.42,13.43,5.16l2.77,1.1a5.45,5.45,0,0,1,1.32.81,4.77,4.77,0,0,0,.55.39l2,1.13a50.78,50.78,0,0,0,5.63,2.87l.7.26c1.31.47,3.11,1.11,3.46,3.7a5.66,5.66,0,0,0,.71,1.68l.05.1a5.94,5.94,0,0,0,1.51-.55A6.4,6.4,0,0,1,79.17,229.56Zm122.52-47,16.42,4.12,0-.15a17.31,17.31,0,0,1,.9-3.76c.45-1.11.34-1.43.34-1.43h0s-.26-.25-1.6-.39c-7.17-.75-9.09-2.62-9.75-9.54a14,14,0,0,1,.54-4.5,22.36,22.36,0,0,0,.44-2.22c.06-.48.15-1,.25-1.48a6.32,6.32,0,0,0,.14-3.07,8.62,8.62,0,0,1-1-4.58,6.68,6.68,0,0,1-3.35,4,14.25,14.25,0,0,0-1.79,1.19l-.91.66-.84.58-2.33-1.75,1.54-1.94a35.05,35.05,0,0,0-4.31.68,3.57,3.57,0,0,0-1.83,1.59,5.76,5.76,0,0,0-.24,5.11,7.18,7.18,0,0,0,4.74,4c2.32.63,4.45,3.05,5.27,5,.6,1.43-.51,3-1.58,4.47-.29.4-.57.79-.79,1.15-.9,1.45-1.82,2.89-2.74,4.33Zm6.6-31.31Zm118.57-6.4h0Z"/></svg>