<svg id="Layer_1" data-name="Layer 1" xmlns="http://www.w3.org/2000/svg" viewBox="0 0 350 350"><defs><style>.cls-1{fill:#999;}.cls-2{fill:#f90;}</style></defs><title>M</title><path class="cls-1" d="M188.52,290.62l.52.23Z"/><path class="cls-2" d="M188.45,292.15l-.47-.21,1.08-2.62.49.22Z"/><path class="cls-1" d="M12.38,240.65a24.17,24.17,0,0,0,.73,2.38c.2-.18.43-.34.61-.53,5.94-6.13,14.36-8.59,20.5-14.23,2.28-2.09,3.72-1.81,5.63-.34a8.14,8.14,0,0,1,7,3c8.35,10.07,22.5,13.37,31.72,22.53,4.68,0,9,.61,12.89,3.35,1.28.89,2.55.63,3.93-.24,2.22-1.39,4.5-3.08,7-3.58,3.7-.75,6.55,1.78,9.18,4.06a29.21,29.21,0,0,1,5.75,5.88c1,1.54.76,3.86,1,5.83.06.41-.27,1-.08,1.24,2.85,3,2.13,7.08,3.24,10.59a5.51,5.51,0,0,0,1.45,2.44,11.44,11.44,0,0,1,3.28,4.88,63.8,63.8,0,0,0,7.36,8.75,14.15,14.15,0,0,1,1.3,1.52c5,1,9.86,2.44,14.85,3.69a21.37,21.37,0,0,0,2.88.5,11.89,11.89,0,0,1,1.38-2.91c.22-.39,1.4-.39,2.11-.3a39.08,39.08,0,0,1,7.2,1.54c.54-.21,1.09-.43,1.65-.67a57.76,57.76,0,0,0-6.21-1.77l.27-.94c.94.19,1.88.4,2.83.58,1.24.24,2.48.51,3.73.68a18.33,18.33,0,0,1,1.89.32c2.78-1.31,5.78-2.8,8.92-4.27a4.14,4.14,0,0,1,.14-1,8.44,8.44,0,0,1-6.12,1.79c-.77.5-1.69.91-2.48,1.36-.24.13-1.18-.34-1.26-.67-.17-.69-.31-1.39-.47-2.09a7.16,7.16,0,0,1-3.49-6.75,26.53,26.53,0,0,1,1.9-8.32c-.11-.47-.21-1-.29-1.48a17.36,17.36,0,0,1,5.63-15c5-4.72,11.91-5.66,18.51-5.46a83.14,83.14,0,0,0,18.74-1.48c.21-2.52-.15-5.29-.09-7.39a76,76,0,0,1,1.54-13.28,94.69,94.69,0,0,1,8.5-23,190.46,190.46,0,0,1,13.71-23.07c2-2.85,4.13-5.75,7.11-7.64a15.13,15.13,0,0,1,1.89-1,6,6,0,0,0,4.71-.58,14.12,14.12,0,0,0,3.35-2.74,8.5,8.5,0,0,1,9.91,4.49A27.74,27.74,0,0,0,257.1,193c.22,1.46,2.42,1.57,3.07.4.05-.1.09-.19.14-.29,4.89-1.57,9.73-2.66,15-1,8.32,2.62,16.38,7,24.43,10.37Q320,211,340.45,219c1-2.14.89-3.48-.21-4.94l-.36,2.65-.19,0c-.12-1.74-.26-3.48-.34-5.22a63.31,63.31,0,0,0-3.12-16.95c-1.66-5.14-2-10.69-2.81-16.11a9.61,9.61,0,0,1-.62-1.34,52.38,52.38,0,0,1-2.71-11.31c-1-.13-2.08-.29-3.07-.49a43.39,43.39,0,0,1-12.34-4.66c-.66-.37-1.27-.8-1.88-1.22a9.15,9.15,0,0,1-3.23.74,5.51,5.51,0,0,1-.8,0c-.32.06-.64.12-1,.2q-.79.2-1.55.47,1.14-.55-.21.1c-.23.12-2,1.23-1.94,1.14-.3.26-.6.51-.88.8a7.46,7.46,0,0,1-2.28,2.27,7.91,7.91,0,0,1-6,1.27l.8.6a8.16,8.16,0,0,1-4.56-2.08,8.76,8.76,0,0,1-1.07-.83c-3.53-3.24-2.91-8.64,0-12a24.6,24.6,0,0,1,2.68-2.59l1.31-2-1.08-.24c-.4-2.54-.72-5-1.18-7.38-.71-3.68-.4-4.37,3.08-5.44,1.71-.53,3.52-.79,2.79-3.38-.08-.29.82-1.08,1.39-1.28,3.65-1.24,7.33-2.37,11-3.55.21-.07.54-.21.57-.36.77-3.63,4-2.22,6.15-3,.62-.23,1.26-.41,1.89-.59l-.25-.11q-22.18-11.39-45-21.43a6.83,6.83,0,0,1-4.18-4.57l-1.08-.48c-1.34-.58-1.6-1.18-1.13-2.54q1.75-5,3.43-10.11a18.18,18.18,0,0,1,2.38-7.4c1.83-5.93,3.48-11.92,5.41-17.82,1.12-3.42,2.69-6.69,4.08-10-.42,0-.85-.08-1.27-.07l0-.1-.18.1a13.17,13.17,0,0,0-7.68,2.83q-7.75,5.93-15.6,11.74c-3.77,2.48-7.53,5-11.32,7.4-6.3,4.07-12.63,8.07-19,12-4.71,2.86-9.58,5.46-14.35,8.23a18,18,0,0,0-2.29,1.86l0,0c-3.09,1.71-6.23,3.34-9.23,5.2a3.55,3.55,0,0,0-1.24,2.54c0,.14,0,.28,0,.42l-1.11.6c0-.5-.23-1-.39-1.83l-20.91,12.52c-5.9,2.79-11.84,5.51-17.85,8.21-7.43,3.34-14.43,8-19.36,14.51L98.8,159.42c.15.35.28.7.41,1-1.14.75-2.23,1.54-3.32,2.34-6.57,3.7-13.06,7.52-19.86,10.91C65.74,178.85,56,185,46.13,191.06a13.21,13.21,0,0,0-2.79,1.71q-2.84,1.73-5.7,3.43c-1.57.93-1.15,2.17-.52,3.18a4.23,4.23,0,0,0,1.45,1.22c-.11.47-.2.94-.27,1.42l-1.3-1.3c-2.15.84-3.58,1.46-5.05,1.94A6.32,6.32,0,0,0,27.44,207c-1.32,4-2.21,8.15-5.69,11.22-4.35,3.82-8.85,7.57-11.88,12.65-.42.71-1.16,1.67-1,2.24.86,2.55,2,5,3.22,7.86ZM209.64,92.93c.06-.42.63-.78,1-1.17.24.3.42.77.72.86s.75.2,1.13.3c-.92.55-1.84,1.1-2.76,1.64A6.28,6.28,0,0,1,209.64,92.93Z"/><path class="cls-2" d="M153.75,303.93l-1.25-.14a22.73,22.73,0,0,1-3.07-.53c-1.64-.41-3.27-.84-4.89-1.27-3.24-.86-6.59-1.74-9.89-2.4l-.53-.11-.33-.44a12.72,12.72,0,0,0-1.16-1.37,65,65,0,0,1-7.52-8.94l-.17-.32a10,10,0,0,0-2.88-4.29,7,7,0,0,1-1.87-3.08,22.79,22.79,0,0,1-.77-4c-.3-2.28-.59-4.44-2.15-6.09a2,2,0,0,1-.35-1.91c0-.06,0-.13,0-.19-.08-.61-.12-1.23-.15-1.83a7.62,7.62,0,0,0-.65-3.36,25.46,25.46,0,0,0-5-5.12l-.65-.56c-2.52-2.18-4.9-4.23-7.86-3.64a17.07,17.07,0,0,0-5.38,2.68l-1.12.72c-2,1.27-3.86,1.33-5.49.2-3.18-2.22-6.78-3.13-12.06-3.09H78l-.42-.42c-4.13-4.1-9.45-7.08-14.59-10-6.18-3.46-12.56-7-17.22-12.66A6.74,6.74,0,0,0,40,229.34l-.54,0L39,229c-1.39-1.07-2.08-1.33-3.81.26a54.11,54.11,0,0,1-9.9,6.72c-3.87,2.23-7.53,4.33-10.55,7.45a5.93,5.93,0,0,1-.5.45l-.19.16-1.57,1.4-.69-1.93,0,.05-.93-2.11c-.33-.78-.65-1.52-1-2.25-.85-2-1.65-3.8-2.29-5.71-.38-1.11.3-2.18.85-3l.24-.38c2.92-4.91,7.14-8.6,11.21-12.16l.95-.83c2.68-2.35,3.67-5.5,4.72-8.83.19-.59.37-1.18.57-1.77a7.71,7.71,0,0,1,5.42-5.23c.93-.3,1.85-.67,3-1.14l1.16-.46a3.74,3.74,0,0,1-.45-2.62,3.39,3.39,0,0,1,1.7-2.11q2.81-1.67,5.61-3.38a14.73,14.73,0,0,1,2.93-1.79l3.11-1.91c8.65-5.33,17.59-10.84,26.82-15.44,5.26-2.62,10.43-5.56,15.43-8.4l4.29-2.43c.75-.55,1.54-1.13,2.36-1.69L97,158.85l42.6-26c4.56-5.94,11.2-10.89,19.74-14.73,6.59-3,12.4-5.63,17.76-8.17l22.57-13.51.05.25a3.4,3.4,0,0,1,1-.94c2.25-1.4,4.61-2.68,6.88-3.92l2.22-1.21.94-1,.08.1a9.09,9.09,0,0,1,1.43-1.06c1.89-1.1,3.79-2.17,5.69-3.24,2.85-1.6,5.8-3.26,8.64-5,5.82-3.53,12-7.44,19-11.94q5.27-3.41,10.51-6.87l.8-.53c5-3.67,10.2-7.61,15.51-11.68a14.6,14.6,0,0,1,8.13-3.11l3.2-1.85-.69,1.95,1.37.11-.75,1.8c-.41,1-.83,1.94-1.25,2.91-1,2.28-2,4.64-2.79,7-1.18,3.61-2.28,7.33-3.35,10.93-.68,2.29-1.35,4.58-2.06,6.87l-.13.3a16.84,16.84,0,0,0-2.19,6.82l-.06.3c-1.16,3.5-2.31,6.91-3.43,10.13a2.51,2.51,0,0,0-.14.52,2.56,2.56,0,0,0,.49.26l.61.27,1.11.49.17.67A5.42,5.42,0,0,0,274,99.43c15.17,6.67,30.33,13.9,45.08,21.46l.21.09,3.42,1.62-3.65,1c-.59.17-1.21.34-1.79.55a8.61,8.61,0,0,1-2.57.39c-1.8.09-2.38.18-2.68,1.57a2,2,0,0,1-1.53,1.42l-3.36,1.07c-2.5.79-5.09,1.62-7.61,2.47a1.66,1.66,0,0,0-.33.22c.53,3.15-2.13,3.93-3.45,4.32l-.44.13c-2.69.83-2.69.83-2.11,3.82.32,1.69.57,3.34.83,5.09l.21,1.38,2.12.47-2.53,3.93-.16.14a22.87,22.87,0,0,0-2.53,2.44c-2.35,2.7-3.07,7.29-.11,10a7.36,7.36,0,0,0,.9.69l.16.13a7.1,7.1,0,0,0,1.09.81l2,.33a6.47,6.47,0,0,0,4.94-1l.08-.06a6.05,6.05,0,0,0,1.84-1.85l.18-.22c.31-.31.64-.6,1-.89l2.59-2.18-.06.71.43-.21v0a2.73,2.73,0,0,1,.53-.14l.77-.21c.26-.07.53-.12.8-.17l.62-.12.13,0,.44,0a7.81,7.81,0,0,0,2.78-.63l.71-.31.92.63c.51.35,1,.68,1.5,1a41.91,41.91,0,0,0,11.92,4.5c.89.18,1.89.34,3,.47l1.09.13.14,1.09a51.06,51.06,0,0,0,2.64,11,8.14,8.14,0,0,0,.53,1.15l.12.22,0,.25c.24,1.52.43,3.06.63,4.59a62,62,0,0,0,2.14,11.29,64.75,64.75,0,0,1,3.19,17.32c0,.34,0,.69.05,1l.55.73c1.44,1.91,1.55,3.82.37,6.39l-.56,1.21-1.25-.49c-14-5.49-27.72-11-40.77-16.49-2.84-1.19-5.72-2.52-8.51-3.81a135.66,135.66,0,0,0-15.8-6.52c-4.44-1.4-8.67-.7-13.57.84a3.21,3.21,0,0,1-3.21,1.27,2.8,2.8,0,0,1-2.37-2.35,29.14,29.14,0,0,1,.62-11.65,7,7,0,0,0-7.64-3.42,15,15,0,0,1-3.41,2.72,7.43,7.43,0,0,1-5.24.83,12.27,12.27,0,0,0-1.28.7c-2.76,1.75-4.82,4.54-6.7,7.25a188.1,188.1,0,0,0-13.61,22.89c-4.31,8.59-7,15.77-8.38,22.61a74.4,74.4,0,0,0-1.51,13c0,.8,0,1.74.07,2.74a37.11,37.11,0,0,1,0,4.74l-.09,1.07-1.05.21a84.61,84.61,0,0,1-19,1.51c-8-.23-13.57,1.38-17.49,5.08a15.89,15.89,0,0,0-5.2,13.74c.07.48.16.93.27,1.36l.11.45-.18.43a25,25,0,0,0-1.8,7.88,5.78,5.78,0,0,0,2.84,5.45l.5.31.29,1.3.17.74.32-.17c.49-.25,1-.51,1.4-.78l.41-.26.48,0a7,7,0,0,0,5.1-1.47l3.31-2.73-1,4.17a2.79,2.79,0,0,0-.1.64v.9l-.81.38c-1.6.75-3.16,1.51-4.68,2.24L168.57,300l.08,0-3.11,1.34c-.57.25-1.14.47-1.69.69l-.47.18-.48-.16a37.44,37.44,0,0,0-6.94-1.49,4.75,4.75,0,0,0-.92,0,9.23,9.23,0,0,0-1,2.15Zm-18-7c3.21.66,6.43,1.51,9.54,2.34,1.61.43,3.23.85,4.85,1.26.5.13,1,.23,1.58.32a19.33,19.33,0,0,1,1-1.83l.14-.24c.64-1.11,2.26-1.16,3.51-1l1.09.15.64-2.24,2.16.45,1.94.4.88.17c.91.18,1.77.35,2.64.48a1.77,1.77,0,0,1-.35-.7c-.11-.46-.21-.93-.32-1.39l0-.17a8.51,8.51,0,0,1-3.64-7.71,28,28,0,0,1,1.84-8.33c-.08-.39-.15-.76-.21-1.15A18.72,18.72,0,0,1,169,261.49c4.51-4.25,10.71-6.1,19.52-5.85a81.87,81.87,0,0,0,17.34-1.25c0-1.08,0-2.2-.08-3.3s-.1-2-.07-2.95a77.35,77.35,0,0,1,1.57-13.53c1.46-7.08,4.21-14.49,8.62-23.3a190.92,190.92,0,0,1,13.81-23.24c2-2.95,4.31-6,7.51-8a16.28,16.28,0,0,1,2.06-1.09l.45-.21.48.12a4.6,4.6,0,0,0,3.67-.45,12.59,12.59,0,0,0,3-2.48l.25-.27.35-.11a9.87,9.87,0,0,1,11.6,5.19l.25.49-.15.53a26.4,26.4,0,0,0-.7,11,.68.68,0,0,0,.43-.08l.13-.26.27-.5.55-.18c4.56-1.46,9.91-2.88,15.83-1a137.55,137.55,0,0,1,16.13,6.65c2.76,1.28,5.62,2.6,8.42,3.77,12.18,5.09,25,10.27,38,15.4q0-.72-.1-1.43c-.09-1.21-.18-2.42-.23-3.62A62,62,0,0,0,334.87,195a65,65,0,0,1-2.25-11.81c-.18-1.43-.36-2.86-.58-4.28a10.65,10.65,0,0,1-.59-1.31A53.11,53.11,0,0,1,328.82,167c-.74-.11-1.44-.23-2.1-.36A44.81,44.81,0,0,1,314,161.85c-.48-.27-.93-.57-1.37-.86a10.44,10.44,0,0,1-3,.57c-.33,0-.57,0-.76,0h-.08l-.63.13c-.47.12-.93.26-1.38.41l-.12.06-.38.24c-.61.38-1.06.66-1.42.83-.18.16-.36.32-.54.48a8.84,8.84,0,0,1-2.58,2.54,8.56,8.56,0,0,1-2.8,1.32l1.84,1.38-5.2-.6a9.59,9.59,0,0,1-5.27-2.37,10.17,10.17,0,0,1-1.16-.91c-4.27-3.92-3.41-10.17-.11-14a25.13,25.13,0,0,1,2.67-2.6l.09-.15h0l-.15-1c-.13-.8-.24-1.58-.36-2.36-.26-1.72-.5-3.35-.81-5-.86-4.46-.1-5.78,4.06-7.06l.48-.14c1.65-.49,1.65-.5,1.37-1.5-.43-1.54,1.67-2.79,2.3-3,2.55-.87,5.15-1.69,7.67-2.49l3.14-1c.94-3,3.5-3.11,5.1-3.19-13.66-6.94-27.67-13.56-41.67-19.73a8.29,8.29,0,0,1-4.78-4.84l-.47-.21c-2-.87-2.63-2.24-1.91-4.31,1.1-3.16,2.23-6.51,3.37-9.95A19.71,19.71,0,0,1,271.56,75c.68-2.22,1.34-4.45,2-6.68,1.07-3.62,2.17-7.35,3.37-11,.82-2.49,1.87-4.91,2.89-7.25l.4-.92a11.88,11.88,0,0,0-6.09,2.49c-5.33,4.08-10.58,8-15.61,11.75l-.86.57c-3.5,2.3-7,4.61-10.53,6.88-7,4.51-13.23,8.43-19.08,12-2.87,1.74-5.85,3.41-8.72,5-1.89,1.06-3.78,2.13-5.66,3.22a5.21,5.21,0,0,0-.67.48l3.13.82-3.55,2.12-2.12,1.26-1.76,1-.35-2,0-.17c-2,1.11-4.13,2.26-6.11,3.5a2.43,2.43,0,0,0-.57,1.41l-.05,1.22-3.72,2-.16-1.85-19.3,11.55c-5.4,2.56-11.25,5.25-17.88,8.22-8.21,3.69-14.54,8.42-18.81,14.07l-.16.21-.23.14L100.55,160l.36,1-.93.69c-1.13.74-2.23,1.54-3.26,2.3l-.14.09-4.35,2.47c-5,2.86-10.24,5.82-15.57,8.48-9.12,4.54-18,10-26.6,15.31l-3.34,2a11.81,11.81,0,0,0-2.49,1.52l-.15.1q-2.85,1.74-5.71,3.44c-.28.17-.38.3-.39.34s0,.23.35.86a3.55,3.55,0,0,0,1,.76l.88.53-.23,1c-.1.43-.19.86-.25,1.3L39.3,205l-2.64-2.65-1.08.43c-1.16.46-2.16.87-3.18,1.2a4.92,4.92,0,0,0-3.61,3.43c-.19.57-.37,1.15-.55,1.73-1.12,3.55-2.27,7.23-5.55,10.11l-1,.83c-3.91,3.42-8,7-10.64,11.48l-.28.46a8,8,0,0,0-.48.83c.6,1.72,1.35,3.45,2.14,5.27l.06.14.57-.69.67,2.73,0,.13a54.2,54.2,0,0,1,10.08-6.87,51.14,51.14,0,0,0,9.39-6.36c3-2.74,5.22-2,7-.73A9.66,9.66,0,0,1,48,230.06c4.32,5.21,10.2,8.51,16.42,12,5.14,2.88,10.45,5.86,14.78,10,3.84,0,8.67.5,13.12,3.6.46.32,1,.57,2.36-.27l1.09-.7a19.07,19.07,0,0,1,6.35-3.08c4.32-.87,7.62,2,10.27,4.27l.65.56a27.53,27.53,0,0,1,5.49,5.74,9.59,9.59,0,0,1,1.1,4.71c0,.6.07,1.16.14,1.69a2.71,2.71,0,0,1,0,.92c1.84,2.23,2.19,4.87,2.5,7.21a20.39,20.39,0,0,0,.66,3.47,4.14,4.14,0,0,0,1,1.8,12.81,12.81,0,0,1,3.62,5.29,62.45,62.45,0,0,0,7.1,8.41A14.6,14.6,0,0,1,135.72,296.92Zm19.53,3.26h0ZM10.28,233Z"/><path class="cls-1" d="M186,289.85a2.68,2.68,0,0,0,.75.42l.4-.14A10.88,10.88,0,0,0,186,289.85Z"/><path class="cls-2" d="M186.8,291.75l-.42-.1a3.35,3.35,0,0,1-1.09-.55l-5.68-3.8,6.61,1.16a12.22,12.22,0,0,1,1.3.32l4.29,1.25Z"/><path class="cls-1" d="M182,290.08a8.51,8.51,0,0,1,4-.23A8.45,8.45,0,0,0,182,290.08Z"/><path class="cls-2" d="M182.41,291.44l-.81-2.71a9.92,9.92,0,0,1,4.62-.27h0l-.49,2.79A7.1,7.1,0,0,0,182.41,291.44Z"/><path class="cls-1" d="M187.66,290.31l-.4-.14Z"/><path class="cls-2" d="M187.2,291.65l-.18-.06-.18-.06.83-2.71.32.11.13,0Z"/></svg>