<svg id="Layer_1" data-name="Layer 1" xmlns="http://www.w3.org/2000/svg" viewBox="0 0 350 350"><defs><style>.cls-1{fill:#999;}.cls-2{fill:#f90;}</style></defs><title>M</title><path class="cls-1" d="M208.17,325.7h0l0,0Z"/><polygon class="cls-2" points="202.95 332.92 207.44 323.94 208.68 324.38 210.67 325.18 209.13 326.74 202.95 332.92"/><path class="cls-1" d="M271.47,167c-.39-.77-.91-1.49-1.31-2.25-.63-1.2-1.22-2.31-2.86-2.45a5.25,5.25,0,0,1-2.37-1.05c-6.66-4.67-14.32-7.32-21.67-10.56a12,12,0,0,1-4.14-2.69c-.17-2-.49-5.12-.65-5.72a21.57,21.57,0,0,0-1.6-4.25l-.3-1.41a3.48,3.48,0,0,0-1.45-1.88c-.23-.15-.47-.28-.71-.42l0-.06c-1.91-2.22-4.63-3-6.66-4.94a2.09,2.09,0,0,1-.47-.66c0-.16,0-.32,0-.49a13.66,13.66,0,0,1,0-1.77,3.16,3.16,0,0,0,1.1-.71,5.93,5.93,0,0,0,2-1.3c.46,0,.86.22,1.19.9.45.94,3.12.69,3.51-.35a2,2,0,0,1,2.47-1.36,35.47,35.47,0,0,1,3.75.72,2.36,2.36,0,0,0,1.86,0,7.69,7.69,0,0,0,1.45.26,6,6,0,0,0,5,.33,12.86,12.86,0,0,1,1.35-.38c1.82-.36,2.37.08,2.39,1.93a38.14,38.14,0,0,0,0,4.38c.13,1,.44,2.47,1.17,2.93a3.67,3.67,0,0,1,2.1,3.55c6,0,11.15-1.72,15.2-6.41-1-.93-1.88-1.74-2.73-2.62-1.61-1.67-3.27-3.31-4.75-5.1-3.61-4.35-6.87-9-10.75-13.12-1.42-1.5-2.85-3-4.25-4.48a10.73,10.73,0,0,0-3.21-5.57l-5.64-5-.2-.28c-1.62-2.33-3.55-4.44-5.52-6.88-.33.47-.67.86-.95,1.22l-.58-.52.21-.12-1.23-1.49,1-.62L229,81.1l-1.58.48c-1.32-1.79-2.63-3.49-3.85-5.24-.36-.51-.71-1-1.06-1.57a11.16,11.16,0,0,0-7.65-10.2c-3.68-4.28-7.36-8.56-11.09-12.79-.51-.57-1.59-.66-2.43-.9a10.24,10.24,0,0,0-1.55-.21l.06-.39,2.34-.39c-1.17-1.37-2.15-2.51-3.12-3.67-2.42-2.91-4.76-5.89-7.27-8.73-2.14-2.42-4.58-4.59-6.69-7-4.57-5.3-8.92-10.81-13.59-16-1.35-1.51-3.48-2.32-5.22-3.43-.46,1-.73,1.47-.95,2-1,2.45-2.18,4.86-3,7.38-1.42,4.32-2.63,8.71-4,13.06a13.33,13.33,0,0,0-1.74,5.42q-1.23,3.72-2.51,7.41c-.35,1-.15,1.44.83,1.86l.79.35a5,5,0,0,0,3.06,3.35q16.73,7.36,33,15.71l.19.08c-.47.13-.93.26-1.39.43-1.57.57-3.94-.46-4.51,2.2,0,.12-.26.22-.42.27-2.69.87-5.39,1.7-8.06,2.61-.42.14-1.08.73-1,.94.54,1.9-.79,2.09-2,2.48-2.55.79-2.78,1.29-2.26,4,.34,1.76.57,3.55.87,5.41l.79.17-1,1.5a18,18,0,0,0-2,1.9c-2.13,2.45-2.59,6.41,0,8.78a6.42,6.42,0,0,0,.79.61,6,6,0,0,0,3.35,1.52l-.59-.44a5.8,5.8,0,0,0,4.4-.93,5.47,5.47,0,0,0,1.67-1.67c.2-.21.42-.4.64-.58,0,.07,1.26-.74,1.43-.83q1-.48.16-.07.56-.2,1.14-.34c.23-.06.47-.1.7-.14a4,4,0,0,0,.59,0,6.71,6.71,0,0,0,2.36-.54c.45.31.9.62,1.38.89a31.8,31.8,0,0,0,9,3.42c.72.15,1.48.27,2.25.36a38.39,38.39,0,0,0,2,8.29,7,7,0,0,0,.45,1c.62,4,.85,8,2.06,11.81A46.41,46.41,0,0,1,207.08,133c.05,1.28.16,2.55.25,3.83h.14l.27-1.94c.81,1.07.88,2.05.16,3.62q-15-5.87-29.86-12.08c-5.9-2.47-11.81-5.68-17.91-7.6-3.84-1.21-7.39-.41-11,.74l-.11.21c-.48.86-2.09.78-2.25-.29a20.33,20.33,0,0,1,.54-8.52,6.23,6.23,0,0,0-7.27-3.29,10.35,10.35,0,0,1-2.45,2,4.43,4.43,0,0,1-3.45.43,11.09,11.09,0,0,0-1.38.73,19.44,19.44,0,0,0-5.21,5.6,139.61,139.61,0,0,0-10,16.91,69.41,69.41,0,0,0-6.23,16.83,55.74,55.74,0,0,0-1.13,9.73c0,1.54.22,3.57.07,5.42a60.94,60.94,0,0,1-13.73,1.09c-4.83-.14-9.9.55-13.57,4a12.72,12.72,0,0,0-4.13,11c.06.38.13.74.21,1.08a19.45,19.45,0,0,0-1.4,6.1,5.25,5.25,0,0,0,2.56,4.95c.12.51.22,1,.35,1.53.06.24.75.59.92.49.58-.33,1.25-.63,1.82-1a6.1,6.1,0,0,0,4.85-1.63c5.66-5.57,10.22-.92,15.36,2.39,5.75,3.71,11.88,4.55,14.81,11.66l0,.06a122.45,122.45,0,0,1-17.61,19.41,5.25,5.25,0,0,0-1.8,4.59c-1.53,1.09-3.08,2.16-4.68,3.16-5.3,3.3-2.61,12,3.26,11.52a12.92,12.92,0,0,0,7.14,1.46,13.09,13.09,0,0,1,4.28.36l.17.05a13.23,13.23,0,0,0,8.3,5.21l0,.07a2.75,2.75,0,0,0,1,.94c2.2,1.15,4.53,2.09,6.62,3.41a1.67,1.67,0,0,0,1.81.14l1,.48a2.5,2.5,0,0,1-.45.37c2.44,1.37,4.94,2.67,7.25,4.24a29.59,29.59,0,0,1,6,7.14,19.39,19.39,0,0,0,1,3.35l0,.14h0c.1.25.19.49.3.74a2.38,2.38,0,0,0,1.53,1.38,6.9,6.9,0,0,0,5,2.86,18.34,18.34,0,0,0,5.39,4.14,8.75,8.75,0,0,1,2.3,2.11c3.39,3.67,5.15,8.18,6.37,12.9a17.84,17.84,0,0,0,7.94,11.13c3.59,2.16,7.9,3.19,12,4.46,3,.94,6.2,1.22,9.16,2.25a11,11,0,0,1,5.15,3.37c.76,1,1.35,2.27,2.49,2.87,2.93,1.55,5.94,2.93,8.92,4.38l0-.06a6.78,6.78,0,0,0,3.67,2.31,5.75,5.75,0,0,0,4.39,1.85c.92-.08,1.83-.21,2.74-.36a4.69,4.69,0,0,0,2.51-1.31l.11,0c.41.14.83.28,1.24.39l0,0h0c2.68-1,7,5.89,9.85,10.4a3,3,0,0,0,1.63-3.55,49.22,49.22,0,0,0-2.61-5.48c-.44-.76-.89-1.52-1.38-2.25-.25-.38-.52-.75-.8-1.11-.12-.16-.54-.95-.43-.52a2.72,2.72,0,0,0-2.23-2.12,7.48,7.48,0,0,0-2.72-1.42l-.58-.18-.17-.05a12.77,12.77,0,0,0,1.87-3.47,10,10,0,0,0,.34-5.75,18.53,18.53,0,0,0,.16-2.54,4.48,4.48,0,0,0,1.11-1.14c.41-.62,1-1.1,1.45-1.71q1.17-1.69,2.22-3.47a19.29,19.29,0,0,0,1.42-2.8,2.58,2.58,0,0,0,.15-1.8,6.21,6.21,0,0,1,.48-6.33,24.53,24.53,0,0,1,1.86-3,3.07,3.07,0,0,0,.13-4,7.64,7.64,0,0,1-1.18-4.45,3.59,3.59,0,0,0-1.09-2.35c-.13-.11-.23-.23-.34-.35a2.57,2.57,0,0,0-.29-2.63c-.83-1.22-.35-3.12-1.33-4.48-1.29-1.79-3-1.95-5-1.9-.73,0-1.47.06-2.2.09a2.24,2.24,0,0,0-.79-.31c-1.18-.2-3-.32-3.84-1.33s-.48-3-.38-4.21a2.43,2.43,0,0,0-.18-1.08c.72-3.3,2.26-6.47,3.48-9.87l-4.79-1.94,3.38-3.54c-2-.81-1.08-1.82-.47-2.86.44-.76.78-1.57,1.2-2.46l-2.2-.64a17.05,17.05,0,0,1,3.83-9.09,12.35,12.35,0,0,1-1.28-2.7c-.36-2-.51-4.05-.75-6.08-.22-1.86,0-3.5,2-4.36.37-.16.61-.63.91-1l-.5,0c-.42-1.2-1.17-2.39-1.18-3.59a19.28,19.28,0,0,1,.9-4.62c.49-2,1.07-3.94,1.58-5.91.75-2.88,1.08-3.16,4.24-3.49,1.34-.14,2.68-.33,4.06-.5l-2.8-2.93c-1.52.15-3.24.21-4.92.5-1.84.32-3.66.78-5.49,1.17l.47-.81c.9-.19,1.79-.38,2.68-.61,1.78-.46,4-.39,4.19-3a.65.65,0,0,1,.3-.41c1-.61.82-1.4.36-2.25s-.34-1.44.86-1.66a4.29,4.29,0,0,0,2-1.19c2.89-2.78,5.68-5.65,8.58-8.42A37.54,37.54,0,0,1,242,178.5c-1.75-1.18-3.22-2.25-4.77-3.19a16.39,16.39,0,0,0-2.49-1c1.26-3.9,4.11-4.59,7.08-4.27,2.33.25,4.56,1.41,6.87,2a49.35,49.35,0,0,0,6.64,1.1c.71.07,1.48-.57,2.25-.81a19,19,0,0,1,4.14-1.17c2.48-.19,5,.14,7.46-.12a6.5,6.5,0,0,0,3.16-1.81C272.56,169,271.84,167.71,271.47,167Z"/><path class="cls-2" d="M232.22,340.86l-.69-1.11c-5.4-8.61-7.42-10.1-8.16-9.82l-.85.31-.41-.41-.33-.1a5.91,5.91,0,0,1-2.58,1.11c-1.09.17-2,.29-2.83.37a7.11,7.11,0,0,1-5.25-2,8.19,8.19,0,0,1-3.73-2.32L205,325.74c-2.11-1-4.29-2.05-6.41-3.17a7.07,7.07,0,0,1-2.49-2.58c-.16-.24-.32-.48-.48-.7a9.45,9.45,0,0,0-4.47-2.87,36.58,36.58,0,0,0-4.69-1.17,45,45,0,0,1-4.43-1.06l-2.27-.69a43.29,43.29,0,0,1-10-3.91,19.15,19.15,0,0,1-8.58-12c-1.43-5.53-3.3-9.32-6-12.3l-.4-.44a5.84,5.84,0,0,0-1.48-1.35,19.12,19.12,0,0,1-5.44-4.06,8.38,8.38,0,0,1-5.17-3,3.79,3.79,0,0,1-1.73-1.55l-.06,0-.56-1.44a20.61,20.61,0,0,1-1-3.31,28.21,28.21,0,0,0-5.55-6.54c-1.75-1.19-3.67-2.25-5.53-3.27l-1.54-.86-.85-.48a3.47,3.47,0,0,1-1.54-.55,40.37,40.37,0,0,0-4.13-2.18c-.8-.38-1.6-.77-2.39-1.18a4.21,4.21,0,0,1-1.23-1,14.76,14.76,0,0,1-8.33-5.26,12.18,12.18,0,0,0-3.52-.23,14.31,14.31,0,0,1-7.55-1.44H97A7.1,7.1,0,0,1,90.36,242a7.64,7.64,0,0,1,3.09-9c1.23-.76,2.5-1.62,4-2.66a6.67,6.67,0,0,1,2.31-4.94,122.05,122.05,0,0,0,16.93-18.53c-2-4.14-5.23-5.76-9-7.63a49.46,49.46,0,0,1-5-2.73c-.71-.46-1.41-.94-2.1-1.42-4.75-3.28-7.63-5-11.49-1.15A7.47,7.47,0,0,1,83.62,196l-.83.44-.65.35a1.79,1.79,0,0,1-1.66,0,2.22,2.22,0,0,1-1.34-1.39c-.08-.33-.15-.66-.22-1v0a6.59,6.59,0,0,1-2.71-5.9,21.26,21.26,0,0,1,1.33-6.11c0-.24-.1-.49-.13-.75A14.1,14.1,0,0,1,82,169.39c3.38-3.19,8-4.57,14.58-4.39a59.23,59.23,0,0,0,12.32-.86c0-.68,0-1.39-.06-2.07s-.07-1.51-.05-2.2a57,57,0,0,1,1.16-10,69.7,69.7,0,0,1,6.35-17.18,140.58,140.58,0,0,1,10.15-17.08,20.68,20.68,0,0,1,5.61-6,12.22,12.22,0,0,1,1.56-.82l.45-.21.48.12a3,3,0,0,0,2.41-.29A8.86,8.86,0,0,0,139,106.7l.25-.27.35-.11a7.61,7.61,0,0,1,8.95,4l.25.49-.15.53a19.07,19.07,0,0,0-.6,7.18l.07-.13.54-.17c3.4-1.09,7.39-2.14,11.83-.74a101,101,0,0,1,11.87,4.89c2,.93,4.11,1.9,6.16,2.75,8.76,3.66,17.93,7.38,27.29,11.06l0-.47c-.06-.88-.13-1.77-.17-2.65a45.07,45.07,0,0,0-2.22-12,47.94,47.94,0,0,1-1.67-8.72c-.13-1-.26-2-.41-3.06a8.06,8.06,0,0,1-.42-1,39.16,39.16,0,0,1-1.91-7.52c-.45-.07-.88-.15-1.28-.23A33.24,33.24,0,0,1,188.3,97c-.3-.17-.59-.36-.87-.55a8,8,0,0,1-2.12.38l-.53,0h0l-.43.09q-.49.12-1,.29l-.06,0h0l-.24.16c-.4.25-.73.45-1,.6l-.33.3a6.85,6.85,0,0,1-2,1.93,6.6,6.6,0,0,1-1.46.79l1.88,1.41-5.2-.6A7.4,7.4,0,0,1,170.9,100a7.67,7.67,0,0,1-.87-.69c-3.3-3-2.65-7.85-.11-10.76a18.7,18.7,0,0,1,1.89-1.85l-.09-.56q-.14-.88-.26-1.74c-.19-1.26-.37-2.45-.59-3.63-.62-3.21-.22-4.54,3.23-5.61l.35-.11a5.72,5.72,0,0,0,.81-.28,1.67,1.67,0,0,0-.07-.35c-.4-1.4,1.27-2.44,1.93-2.67,1.88-.64,3.76-1.24,5.65-1.84l2.1-.67A3.4,3.4,0,0,1,187.59,67c-9.64-4.87-19.51-9.53-29.38-13.87a6.48,6.48,0,0,1-3.65-3.62l-.19-.09a2.6,2.6,0,0,1-1.61-3.63q1.26-3.61,2.46-7.25a14.82,14.82,0,0,1,1.83-5.7c.5-1.62,1-3.25,1.46-4.87.78-2.65,1.59-5.38,2.47-8.06.6-1.84,1.38-3.63,2.13-5.36.31-.71.62-1.41.91-2.12.15-.36.32-.71.56-1.19l1.11-2.3L167,9.8c.51.32,1.05.62,1.63.94a13.9,13.9,0,0,1,3.88,2.74c2.75,3.08,5.43,6.3,8,9.42,1.82,2.18,3.7,4.44,5.58,6.63,1.07,1.24,2.27,2.45,3.43,3.62s2.2,2.22,3.25,3.4c1.71,1.93,3.36,4,5,5.91.78,1,1.55,1.9,2.34,2.85.64.76,1.28,1.52,2,2.34l2.75,3.23h0c3.61,4.1,7.19,8.24,10.83,12.48a12.46,12.46,0,0,1,8.2,10.93l0,.06c.26.39.52.79.79,1.17.84,1.19,1.7,2.35,2.61,3.57l.62.83,1.53-.47,5.06,6.17.14-.2,1.18,1.46c.62.77,1.24,1.51,1.85,2.23,1.34,1.59,2.6,3.09,3.74,4.73l.09.12.75.66,4.78,4.23a12,12,0,0,1,3.55,5.92l2.59,2.73,1.41,1.49c2.54,2.67,4.83,5.62,7.05,8.47,1.22,1.56,2.48,3.18,3.76,4.72,1.13,1.37,2.42,2.69,3.66,4l1,1.05c.55.57,1.14,1.13,1.77,1.71l.92.87,1,.93-.88,1c-4,4.59-9.28,6.84-16.26,6.9h-1.48l.06-1.48c0-1-.31-1.59-1.43-2.29s-1.56-1.86-1.83-4a18.52,18.52,0,0,1-.06-3.07c0-.49,0-1,0-1.48a4.12,4.12,0,0,0,0-.64,4.3,4.3,0,0,0-.66.09,10.13,10.13,0,0,0-1.06.29l-.14,0a7.48,7.48,0,0,1-5.87-.3c-.31,0-.61-.09-.91-.15a4.18,4.18,0,0,1-2.34-.08,33.81,33.81,0,0,0-3.56-.68c-.72-.11-.79,0-1,.45a3.42,3.42,0,0,1-3.19,1.85,3.06,3.06,0,0,1-2.76-1.1,7.84,7.84,0,0,1-1.26.72c-.17.14-.33.27-.49.38,0,.29,0,.55,0,.8,0,.07,0,.14,0,.21h0a16.22,16.22,0,0,0,2.74,1.94,16.14,16.14,0,0,1,3.91,3c.19.11.38.22.56.34a4.91,4.91,0,0,1,2,2.76l.27,1.23a23,23,0,0,1,1.62,4.37c.21.8.53,4.16.64,5.45a11.71,11.71,0,0,0,3.35,2c1.66.73,3.34,1.44,5,2.14,5.71,2.39,11.62,4.86,16.89,8.56a3.78,3.78,0,0,0,1.68.8c2.41.2,3.33,1.93,4,3.2.18.34.38.67.58,1s.52.84.74,1.28h0l.18.34c.77,1.49,1.39,2.66.38,3.54a7.56,7.56,0,0,1-3.95,2.15,32.93,32.93,0,0,1-4.15.09c-1.17,0-2.27,0-3.36,0a10.84,10.84,0,0,0-2.68.72l-1.14.39a4.88,4.88,0,0,0-.63.29,4,4,0,0,1-2.18.59,50.86,50.86,0,0,1-6.83-1.13,29.85,29.85,0,0,1-2.9-.91,17.44,17.44,0,0,0-3.79-1c-2.53-.27-4.09.35-5,2a8.31,8.31,0,0,1,1.34.63c1.12.68,2.19,1.41,3.32,2.19l1.5,1,1.66,1.12-1.61,1.19c-.48.35-.92.67-1.34,1a16.45,16.45,0,0,0-1.94,1.49c-1.52,1.45-3,2.93-4.5,4.41s-2.71,2.68-4.08,4a5.91,5.91,0,0,1-2.45,1.5,2.65,2.65,0,0,1-.72,3.58,4.66,4.66,0,0,1-.25.93l.44,0,1.38-.12.69-.07,5.21,5.47-4.08.52c-.94.12-1.87.24-2.8.34-2.45.26-2.45.26-3,2.44-.22.84-.45,1.68-.68,2.52-.31,1.12-.62,2.24-.89,3.37-.08.34-.18.69-.27,1a12.66,12.66,0,0,0-.59,3.24,5.73,5.73,0,0,0,.61,1.93l.08.18,3-.21-2.4,2.62c-.07.07-.12.15-.19.23a3,3,0,0,1-1.22,1.07c-1,.41-1.37.94-1.14,2.88.08.63.14,1.27.21,1.91.15,1.42.29,2.76.53,4.09a4.92,4.92,0,0,0,.58,1.26c.19.33.38.68.58,1.07l.4.82-.58.7a15.82,15.82,0,0,0-3.35,7.17l2.63.76-.73,1.51c-.13.27-.25.53-.36.78a19.75,19.75,0,0,1-.89,1.78l-.22.36-.22.37.22.1,1.93.78-3.37,3.54,4.12,1.67-.46,1.28c-.4,1.11-.83,2.2-1.26,3.27a44.8,44.8,0,0,0-2.09,6.06,3.75,3.75,0,0,1,.12,1.26c0,.19,0,.4-.06.63-.08.75-.22,2.15.13,2.58s1.66.63,2.43.75l.55.08a3.44,3.44,0,0,1,.88.28h0c.61,0,1.22-.06,1.83-.07,2.21,0,4.51.11,6.23,2.49a6.35,6.35,0,0,1,1,3,3.88,3.88,0,0,0,.36,1.47,4.06,4.06,0,0,1,.72,3,5.15,5.15,0,0,1,1.25,3,6.37,6.37,0,0,0,.92,3.69,4.46,4.46,0,0,1-.19,5.77,13,13,0,0,0-1.19,1.86c-.18.32-.36.63-.55.94a4.79,4.79,0,0,0-.42,5,3.86,3.86,0,0,1-.1,2.93,20.81,20.81,0,0,1-1.52,3c-.71,1.21-1.48,2.4-2.28,3.56a8.73,8.73,0,0,1-.84,1,5.8,5.8,0,0,0-.6.7,5.75,5.75,0,0,1-.88,1c0,.59-.06,1.19-.13,1.79a11.57,11.57,0,0,1-.44,6.31,14.06,14.06,0,0,1-1,2.25,8.2,8.2,0,0,1,1.93,1.1,9.27,9.27,0,0,1,3.06,3l.1.16c.27.35.56.75.83,1.15.46.69.93,1.45,1.43,2.33a51.46,51.46,0,0,1,2.69,5.63c.88,2.12-.5,4.43-2.28,5.35Zm-8.78-13.78c2.95,0,6.1,4.26,9.55,9.68A1,1,0,0,0,233,336a48.58,48.58,0,0,0-2.54-5.32c-.47-.82-.9-1.53-1.33-2.16-.24-.35-.48-.7-.74-1-.06-.08-.15-.22-.25-.38l-.14-.22a1.4,1.4,0,0,0,2.45-1.14l-2.74.71h0a1.32,1.32,0,0,0-1.1-1.08l-.4-.07L226,325a6.09,6.09,0,0,0-2.21-1.13l-2.57-.82,1.12-1.61a11.29,11.29,0,0,0,1.67-3.1,8.57,8.57,0,0,0,.3-4.91l-.07-.27,0-.28a17.13,17.13,0,0,0,.15-2.35v-.73l.59-.43a3,3,0,0,0,.77-.78,8.24,8.24,0,0,1,.89-1.07,6.29,6.29,0,0,0,.57-.67c.76-1.1,1.49-2.23,2.17-3.38a18.13,18.13,0,0,0,1.32-2.59,1.92,1.92,0,0,0,.16-.76,7.57,7.57,0,0,1,.58-7.59c.17-.28.34-.57.5-.86a15.24,15.24,0,0,1,1.48-2.27,1.66,1.66,0,0,0,.07-2.31A8.88,8.88,0,0,1,232,281.9a2.25,2.25,0,0,0-.59-1.33,3.59,3.59,0,0,1-.36-.36l-.76-.78.42-.89a1.15,1.15,0,0,0-.18-1.23,5.92,5.92,0,0,1-.83-2.7,4,4,0,0,0-.48-1.75c-.85-1.18-1.88-1.35-3.87-1.32-.58,0-1.16,0-1.75.07l-.84,0-.37-.22a.9.9,0,0,0-.3-.13l-.5-.08c-1.33-.2-3.15-.46-4.21-1.76s-.89-3.25-.75-4.66c0-.2,0-.38.05-.56a1,1,0,0,0-.08-.46l-.16-.4.09-.42a44.79,44.79,0,0,1,2.31-6.87c.25-.63.5-1.26.75-1.9l-5.45-2.2,3.7-3.88a2.32,2.32,0,0,1-.38-.71,3.23,3.23,0,0,1,.65-2.76l.18-.3c.15-.26.3-.54.44-.84L217,243l.12-1.18a18.47,18.47,0,0,1,3.56-9.09l-.09-.16a6.77,6.77,0,0,1-.91-2.15c-.26-1.44-.41-2.89-.56-4.3-.07-.62-.13-1.24-.21-1.86-.14-1.13-.48-4,2.25-5.54l-.19-.45a7.87,7.87,0,0,1-.85-3,14.88,14.88,0,0,1,.68-4c.09-.33.17-.65.25-1,.28-1.15.6-2.3.91-3.44.23-.83.45-1.65.67-2.48.9-3.47,1.72-4.15,5.46-4.54l1.25-.15-.39-.41-.75.06c-1.11.09-2.26.17-3.37.37s-2.42.49-3.6.75l-1.84.41-3.16.67,2.42-4.13.62-.13c.84-.18,1.74-.37,2.61-.59.32-.08.66-.15,1-.22,1.68-.34,2.05-.51,2.14-1.55a2,2,0,0,1,1-1.52,3.33,3.33,0,0,0-.17-.35,2.65,2.65,0,0,1-.25-2.4,2.77,2.77,0,0,1,2.11-1.33,2.9,2.9,0,0,0,1.29-.81c1.36-1.31,2.71-2.64,4-4,1.5-1.49,3-3,4.54-4.44a15.82,15.82,0,0,1,1.92-1.51c-1-.72-2-1.39-3-2a8.26,8.26,0,0,0-1.48-.63l-.8-.3L233,175.1l.41-1.26c1.27-4,4.15-5.72,8.58-5.24a19.72,19.72,0,0,1,4.43,1.17,27.5,27.5,0,0,0,2.63.82,48.25,48.25,0,0,0,6.45,1.07,5.93,5.93,0,0,0,.63-.29,7,7,0,0,1,1-.46l1-.36a13.11,13.11,0,0,1,3.42-.87c1.23-.09,2.45-.07,3.63,0a30.17,30.17,0,0,0,3.79-.07,4,4,0,0,0,1.69-.89l-.34-.67-.19-.37c-.19-.37-.41-.72-.63-1.08s-.47-.76-.68-1.16c-.65-1.23-.92-1.63-1.73-1.7a6.34,6.34,0,0,1-3.07-1.3c-5-3.52-10.78-5.94-16.36-8.27-1.7-.71-3.39-1.42-5.07-2.16a13.51,13.51,0,0,1-4.62-3l-.32-.35,0-.48c-.21-2.44-.5-5.05-.61-5.48a20.1,20.1,0,0,0-1.49-4l-.12-.34-.3-1.4a2.19,2.19,0,0,0-.85-1l-.48-.29-.37-.21-.23-.28a13.58,13.58,0,0,0-3.3-2.5,18.59,18.59,0,0,1-3.22-2.3,3.5,3.5,0,0,1-.78-1.11l-.14-.3,0-.56a1.1,1.1,0,0,0,0-.13,15.07,15.07,0,0,1,0-2l.07-1,.94-.28a2.26,2.26,0,0,0,.57-.41l.17-.15.21-.09a4.56,4.56,0,0,0,1.49-1l.42-.43h.6a2.59,2.59,0,0,1,2.34,1.47,2.09,2.09,0,0,0,1.09-.14,3.33,3.33,0,0,1,4-2.12,36.66,36.66,0,0,1,3.9.75c.63.17.76.12.78.11l.52-.3.58.16a6.35,6.35,0,0,0,1.18.21l.31,0,.27.15a4.58,4.58,0,0,0,3.91.22l.14,0a12.44,12.44,0,0,1,1.36-.37,3,3,0,0,1,4.08,3.3c0,.54,0,1.07,0,1.61a16.25,16.25,0,0,0,0,2.6,3.86,3.86,0,0,0,.55,1.93,5.23,5.23,0,0,1,2.6,3.27c5-.26,8.86-1.83,11.92-4.89-.61-.57-1.19-1.12-1.76-1.71l-1-1c-1.28-1.32-2.6-2.68-3.81-4.13s-2.58-3.21-3.81-4.79c-2.18-2.79-4.43-5.68-6.87-8.26l-1.41-1.48-2.85-3-.26-.27-.09-.36A9.31,9.31,0,0,0,245.2,101l-4.78-4.22-1.29-1.29c-1.07-1.54-2.29-3-3.58-4.53l-.75-.89-.8,1-3.22-2.87.47-.26-1.17-1.41,1-.63-2.61-3.18-1.63.5-.6-.81-1.21-1.63c-.93-1.24-1.8-2.41-2.66-3.64-.28-.4-.56-.82-.83-1.23l-.45-.68,0-.38a9.78,9.78,0,0,0-6.71-9l-.36-.13-.25-.29c-3.73-4.34-7.38-8.59-11.08-12.78a4.69,4.69,0,0,0-1-.29c-.26-.06-.52-.12-.76-.18a4.57,4.57,0,0,0-.79-.11l-.54-.05-1.46-.18L198.6,49l.86-.14L198,47.13c-.79-1-1.57-1.91-2.36-2.87-1.58-1.94-3.21-3.94-4.89-5.83-1-1.12-2.08-2.22-3.14-3.28s-2.43-2.44-3.56-3.76c-1.9-2.2-3.79-4.47-5.61-6.67-2.58-3.1-5.24-6.3-8-9.34a11.68,11.68,0,0,0-3.13-2.15l-.43-.24c-.09.19-.17.36-.24.54-.3.73-.62,1.45-.93,2.17-.73,1.67-1.48,3.39-2,5.11-.86,2.64-1.67,5.35-2.44,8-.5,1.69-1,3.38-1.52,5.06l-.13.3A12,12,0,0,0,158,39l-.06.3q-1.23,3.73-2.52,7.43l0,.07.07,0L156,47l1,.43.17.67a3.62,3.62,0,0,0,2.26,2.4c11.13,4.9,22.25,10.19,33.06,15.74l.15.07L196,68l-3.64,1c-.43.12-.86.24-1.28.4a6.62,6.62,0,0,1-2,.31c-1.39.07-1.46.16-1.61.85a1.8,1.8,0,0,1-1.37,1.32l-2.45.78c-1.85.59-3.71,1.18-5.55,1.8.28,2.43-1.87,3.06-2.83,3.35l-.32.09c-1.17.36-1.41.55-1.46.62a4.58,4.58,0,0,0,.18,1.75c.24,1.24.42,2.46.61,3.75l.11.76,1.83.4L174,88.55l-.16.14a16.67,16.67,0,0,0-1.81,1.75c-1.61,1.84-2.11,5-.11,6.8a5.09,5.09,0,0,0,.61.47l.16.13a4.75,4.75,0,0,0,.68.51l1.36.23a4.38,4.38,0,0,0,3.33-.68l.08-.06a4.08,4.08,0,0,0,1.24-1.24l.17-.22c.23-.24.49-.46.74-.67L183,93.5l-.07.87.16,0,.58-.16.61-.13.58-.11.12,0,.22,0a5.34,5.34,0,0,0,1.92-.43l.71-.31.85.58c.35.24.7.48,1.07.69a30.33,30.33,0,0,0,8.63,3.26c.65.13,1.37.25,2.14.34l1.09.13.14,1.09a37.1,37.1,0,0,0,1.91,8,5.62,5.62,0,0,0,.36.79l.12.22,0,.25c.17,1.12.32,2.25.46,3.38a45.21,45.21,0,0,0,1.55,8.21,47.82,47.82,0,0,1,2.36,12.8q0,.32,0,.64l.34.45c1.15,1.52,1.25,3,.31,5.07l-.56,1.21-1.25-.49c-10.26-4-20.32-8.08-29.89-12.09-2.09-.87-4.21-1.85-6.25-2.8a99.33,99.33,0,0,0-11.53-4.76c-3.13-1-6.12-.5-9.6.58a2.7,2.7,0,0,1-2.66,1,2.45,2.45,0,0,1-2-2,21.74,21.74,0,0,1,.42-8.53,4.85,4.85,0,0,0-5-2.22,11.17,11.17,0,0,1-2.51,2,5.81,5.81,0,0,1-4,.68,8.17,8.17,0,0,0-.79.44,18.35,18.35,0,0,0-4.81,5.21A137.75,137.75,0,0,0,118.79,134a67,67,0,0,0-6.11,16.48,54.16,54.16,0,0,0-1.1,9.49c0,.58,0,1.26.05,2a27.49,27.49,0,0,1,0,3.51l-.09,1.07-1.05.21a62.38,62.38,0,0,1-14,1.11c-5.77-.17-9.76,1-12.55,3.62a11.27,11.27,0,0,0-3.7,9.74c.05.34.12.66.19,1l.11.45-.18.43A17.94,17.94,0,0,0,79,188.69a3.87,3.87,0,0,0,1.9,3.64l.49.31.26,1.15v0c.28-.14.55-.29.8-.45l.41-.26.48,0a4.7,4.7,0,0,0,3.74-1.23c5.72-5.63,10.7-2.19,15.09.84.67.46,1.34.93,2,1.37a47.31,47.31,0,0,0,4.71,2.57c4.1,2,8.33,4.14,10.64,9.75l.3.73-.44.7a124.68,124.68,0,0,1-17.82,19.63,3.85,3.85,0,0,0-1.34,3.38l.08.82-.67.48c-1.8,1.29-3.31,2.31-4.76,3.21a4.8,4.8,0,0,0-1.89,5.74,4.25,4.25,0,0,0,4.29,3.17l.42,0,.37.21a11.44,11.44,0,0,0,6.38,1.29,14.27,14.27,0,0,1,4.75.41l.57.17.37.42a11.8,11.8,0,0,0,7.39,4.64l.63.11.38.62a1.32,1.32,0,0,0,.46.41c.76.4,1.53.77,2.3,1.14a42.87,42.87,0,0,1,4.42,2.34c.25.16.32.12.37.09l.64-.35.65.31,1,.5,1.73.88-.44.44c1.89,1,3.84,2.12,5.67,3.37l.13.1a31,31,0,0,1,6.31,7.49l.13.21,0,.24a17.78,17.78,0,0,0,.83,2.92l.13.32c.09.23.18.46.28.69a1,1,0,0,0,.64.59l.45.14.28.38a5.46,5.46,0,0,0,3.92,2.29l.56,0,.38.41a16.88,16.88,0,0,0,5,3.84,7.89,7.89,0,0,1,2.36,2l.37.41c3.95,4.28,5.66,9.47,6.7,13.51a16.37,16.37,0,0,0,7.3,10.27,41.11,41.11,0,0,0,9.35,3.63l2.31.7a42.31,42.31,0,0,0,4.15,1,39.19,39.19,0,0,1,5.05,1.27,12.48,12.48,0,0,1,5.82,3.88c.19.26.38.54.56.81a4.78,4.78,0,0,0,1.45,1.65c2.06,1.09,4.22,2.12,6.3,3.12l1.34.64.38-.72,1.38,1.66a5.39,5.39,0,0,0,2.9,1.81l.39.1.28.28a4.39,4.39,0,0,0,3.25,1.43c.78-.07,1.62-.18,2.64-.35a3.3,3.3,0,0,0,1.75-.93l.63-.61,1,.36.83.27A3,3,0,0,1,223.44,327.08ZM108.88,247.54l-.06.22,0,0Zm118.62-51.75h0Zm.41-3.64Zm.35-.75ZM177.92,73.67h0Zm6.75-3.73v0Z"/></svg>