<svg id="Layer_1" data-name="Layer 1" xmlns="http://www.w3.org/2000/svg" viewBox="0 0 350 350"><defs><style>.cls-1{fill:#999;}.cls-2{fill:#f90;}</style></defs><title>M</title><path class="cls-1" d="M44.87,305.69s-1.88-.55-2.54-.66-.22-1.32-.77-2.76,0-1.82,0-1.82a4.71,4.71,0,0,0,1.21-2.54c.17-1.49.28-1.77-.11-2.76s-.17-.94-.55-1.66-.1-1.88-.8-2.21-.86-.11-1.47,0-.06.17-.61.11a4.36,4.36,0,0,1-2.37-1.71c-.17-.61-.61-.61-.44-1.49s-.18-1.32,0-1.77a6.61,6.61,0,0,0,.37-1c.22-.83-.06-1.32.28-1.6a8.69,8.69,0,0,1,.72-.55c.17-.11-.06-.44.28-.88s.94-.77,1.16-1.1.55-.55-.06-1.1-1.32-.66-1-1.16.5-.5.5-.94a3.7,3.7,0,0,0-.39-1.82c-.39-.77-.28-1.32-.83-1.32s-.94-.44-1.27,0l-.33.44s-1-1.82-2-3.31a7.35,7.35,0,0,1-1.55-3.37,6,6,0,0,1,0-2.43c.33-.88.94-.83.17-1.77s-1-1.21-1.27-1.32a2.12,2.12,0,0,0-1.32-.33,4.38,4.38,0,0,1-1.38,0c-.44,0-1.1-.31-.83-1s.5-.83.44-1.27a4.1,4.1,0,0,0-.51-1.66c-.38-.66,0,.28.78,0A3.12,3.12,0,0,0,30,257.68c.44-.66-.17-1.32.77-.88s1.16,1.21,1.55.88,1.49-.34,1.77-1,.61-1.07.5-1.84a9,9,0,0,0-.17-1.43c-.11-.17-.88-1.16-.72-1.49a1.27,1.27,0,0,1,.88-.77c.61-.22,1.21-.33,1-.66a8.58,8.58,0,0,0-.61-1.32c-.33-.5-.72-.11-.39-.88s.33-.33.33-.77.28-1.38-.39-1.49a17.62,17.62,0,0,0-2-.28H31.18s.39-1-1.32-.61.39-1.66-2-2.48c-1.82-1.1-1.38-.66-1.38-.66s.77-2.32.28-3.64c1.82.33,1.88.5,2.37-.55a10.75,10.75,0,0,0,.88-2.21,9.08,9.08,0,0,0,.06-2.43c0-.66-.88-.94-1.38-1.21s-.77.06-.88-.77a4.64,4.64,0,0,1-.06-1.93,4.57,4.57,0,0,0,.28-1.55,13.74,13.74,0,0,1-.44-1.77c0-.44-.55-1.38-.17-1.82a2.82,2.82,0,0,0,.72-1.21,15.54,15.54,0,0,0,.11-2.21c0-.33-.44-.88-.17-1.32a4,4,0,0,1,.77-.88c.33-.33.55-1.49,1.32-1.49s2.21.17,3.09.22.72.06,1.66-1.1a8.94,8.94,0,0,1,2.21-1.77c.28-.28.28-.88.83-1.32a8.5,8.5,0,0,1,2-.94c.17-.06.33-1.21.33-1.21s.17-1.71.94-2.26,1.6-1.49,2-1.55.88.44,1.66,0,.77-1.82,1.49-2.1a12.45,12.45,0,0,0,2.37-1.32,6.52,6.52,0,0,1,1.6-.88c.66-.28,1.77-.72,2.87-1.27s4.42-.22,2.81-2c-1-1.1-.39-1.82-.28-3.26a3.13,3.13,0,0,1,.94-2.32c.39-.39.77-2,.11-2.65s-1-1-1.49-.83a24.17,24.17,0,0,1-2.43.72l-.33-.78s-.22-.55.11-.77a2.35,2.35,0,0,0,.77-1.27c.06-.39.17-1.1-.28-1.21a1.65,1.65,0,0,1-.88-.39c-.11-.17-.06-.83-.55-.83a11,11,0,0,0-1.66.28,1.63,1.63,0,0,1-1.38-.77c-.39-.77-1.38-.66-1.93-2.21s-.28-1.27-1.55-2.15.11-1.27-1.77-1.43a9,9,0,0,0-2.43,0c-.28,0-1.38-.61-1.77-.39s-.83.94-1.49.28a3.3,3.3,0,0,0-2.15-.55,5.81,5.81,0,0,1,.39-1.27,2.69,2.69,0,0,0,.28-1.49c-.06-.39-.66-1.66-.72-1.88s-1-.22-.66-.88.44-.33.39-.94-.72-1.32-.28-1.55,1.1-.11.44-.77-1.77-1-1.77-1.49a4.7,4.7,0,0,0-1-3.75c-.33-.33,0-.77-1.1-1s-1.1-.44-1.66-.28-1,.44-1-.06-.94-1.21-.72-2.09.22-1.55.61-1.82a3.22,3.22,0,0,0,.11-3c-.61-.66-2.36-1.32-2.42-4.42s.39-4,0-6.07-.78-3-.5-4.19-1.16-2.1-.44-2.87,2.32-.5,2.37-1.93-1.73-2.59-2.58-4.08-1.84-2.65-2.23-3.59-.77-.88-1.49-2.1-1-2.43-2.93-3.59-3-1-5.19-1.55-2.87-.66-3.37-1.32-.44-1-1.16-1.1-1.38-.39-1.49.17a.75.75,0,0,1-1,.55c-.28-.22.06-1.1.88-1.66a11,11,0,0,0,2.1-1.6c.55-.61.94-1.55,1.6-1.66s2.65-.06,4-1.21,1.82-1.32,2.1-2.1.28-1.43.83-1.43S19.7,110,20.2,110s.77.17,1-.28.55-1.93.77-2.48-.55-1.6-.66-2.43-.39-1.1-.06-1.38a1.92,1.92,0,0,1,1.88-.39,7,7,0,0,0,2.15.22,1.21,1.21,0,0,0,1-.77c.17-.44.06-.88.61-1s1.1-.55,1.82-.28a18.21,18.21,0,0,0,2.32,1,3.12,3.12,0,0,1,1.49,1,22.56,22.56,0,0,1,2.81.17,10.66,10.66,0,0,0,2.32.28c.5-.06.83-.39,1.16-.28s1.49.44,1.49.44a1.47,1.47,0,0,0,1.43-.22,8.77,8.77,0,0,1,1.55-1.43,7.12,7.12,0,0,0,1.82-1.55,10.63,10.63,0,0,1,1.66-1.93c.77-.61,1.32-.22,1.43-1.16a13.31,13.31,0,0,0-.06-2.1,9.42,9.42,0,0,1,.72-3c.33-.88,1.21-.83,2.32-1.6S52.1,90,53,89.51s1.71-.55,2.15-.83.44-.17.72,0a2.66,2.66,0,0,1,.88.88,1,1,0,0,0,1.21.5c.5-.17,1.1-.28,1.77-.44a4.36,4.36,0,0,1,1.16-.22,5.18,5.18,0,0,0,1.54-.17l1.16-.72s.06-.22.28-.83a5.88,5.88,0,0,1,1-1.55c.39-.5,1-.88.33-1.27S64,84.1,64.08,83.49a7.85,7.85,0,0,0,.28-1.66c-.06-.33-.66-.33-.28-1.16a8.74,8.74,0,0,0,.83-1.88c0-.33-.44-.61-.44-1.43v-1.1a3.27,3.27,0,0,1-.39-1.32c-.06-.77.17-.55.33-1.38s0-1.32.33-1.43a3.22,3.22,0,0,0,.85-.39c.75-.39.7-.72,1.25-.94s.72.11,1.49-.83,1.6-.77,2-1.27a8.52,8.52,0,0,0,.83-1.49,2.92,2.92,0,0,0,.61-1.43c.06-.77-.06-.88,0-1.77a4.4,4.4,0,0,1,.61-2,13.9,13.9,0,0,0,.83-1.88c.28-.77.28-1.66,1.16-1.32s.77.66,1.16,1.1.28.83.88.83a5.2,5.2,0,0,0,1.77-.44c.61-.22.88-.55,1.27-.28s.44.39,1,.33a3.93,3.93,0,0,1,1.27.17s.17-.11.39.55.11.94.66,1.21a6.13,6.13,0,0,1,1.38.77c.28.28.83.28.88.66s-.06.72.5.5.72-.39,1-.22a5.36,5.36,0,0,1,.83.88s-2.21,4.8-2.21,5,.28,1.82.83,1.71a4.32,4.32,0,0,0,.94-.39c.22-.06.66-.33.83.28s-.83,1-.39,1.88.33,1.49.83,1.6.28-.72.5.11a3.54,3.54,0,0,1,.11,1.49c0,.72-.22.77,0,1.32a1.4,1.4,0,0,1,0,1.32c-.19.39-.14.66.41.61s.72.06,1.16-.61.06-1.1.66-1.49.22-.55,1.21-.55H96s.06.22.94.28.83.39,1.16.06.39-.66.66-.66.5-.22.83,0,.33.28.77.28,1.6.88,2,.5A4.18,4.18,0,0,1,104,76.7c.17.06.17-.06.44.06s1,.5,1,.5v.66a13,13,0,0,1,0,2.1c-.11.44.28.72.44.88s.17,0,0,.61a1.75,1.75,0,0,0,.12,1.16l.43.22a2.29,2.29,0,0,0,.72.22c.55.11,2,.68,2.26-.35s.44-1.25,1.4-1.62,1.18-1,1.62-1,.74,1.47,1.91,1.4,3-.81,3.46-.37.74,1.62,1.47,1.69a22.79,22.79,0,0,1,2.5.44,29.23,29.23,0,0,1,2.94.44,8.62,8.62,0,0,0,1.84.88,9.24,9.24,0,0,1,1.32.52,2.57,2.57,0,0,0,1.55.22,14.25,14.25,0,0,1,2.65-.22c1.1,0,1.62.81,2.13,0a10,10,0,0,0,.81-2c.15-.29.22-.37,0-1.18s-.81-1.1,0-1.47a12.73,12.73,0,0,0,2-1.18c.29-.22,1.1-.66,1-1.25s-1.73-1.4,0-1.4,3.15,1.32,3-.22.66-2.06,1-2.13.81-.52,0-1.18-.59-.81-1.1-1.91-.37-1.18-1.1-1.4a3,3,0,0,1-1.18-.66s2.8-4.34,2.5-6a10.17,10.17,0,0,0-.74-2.5,10,10,0,0,0,2.05,1.91c1.48,1.1,1.48,1.55,2.29,2.13s1.1,1.1,1.77,1.32a14.11,14.11,0,0,1,2.35.66A13.37,13.37,0,0,0,151.39,68c.37,0-.07-.52.29,2.28s.88,3.09,2.13,3.31a5.63,5.63,0,0,0,3.31.07,7.94,7.94,0,0,1,3.61-.37,18.84,18.84,0,0,0,3.53,0,26.27,26.27,0,0,0,2.72-.15c.88-.15,2.13-.07,1.84-1a5.08,5.08,0,0,1,0-2.28,6,6,0,0,1,.69,1.18,5.93,5.93,0,0,0,1.91,2.21c.66.29,2,.29,2.06.74s.15,1.77,1.18,1.91a20.65,20.65,0,0,0,6.11-1.1c2.06-.66,6.48-.66,8.46-1.25a22,22,0,0,1,3.16-.74s-.66,1,.29,1-.81.59.44,1.4.52,1.77,2.58.07,2.5-1.25,2.87-.37,2.28,1.69,3.31,2,1.77-.66,3.68-.74,3.68-1.1,5.74-2.06,5.89-.66,7.8-.88a6.1,6.1,0,0,0,3.9-2.06c.59-.74,2.28-3.24,4.64-3s3.38.52,4.12,1.18,1.91,2.21,3,.88a7.42,7.42,0,0,1,2.43-2.13c.52-.22,4.56-.88,5.22-1s2-1.25,2.43-1.25,1.4.59,1.25-.59-.22-1.25.37-1.4,1.25-.52.88-1.55-.08-.81.11-1.25a1.69,1.69,0,0,0-.4-1.47c-.29-.37,2.87.59,1.55-1.32-1-2.28-.88-3.31,0-4.42s1.47-2.21,2.5-3.31a20.12,20.12,0,0,1,2.21-2.21c.59-.44.52-1.1,1.47-.66s.88.88,1.91,0,1.84-.29,2.06-1.1-.51-1.4.81-1.62,3.38-.29,4-.44,2.06-.52,2.5-.15a4.32,4.32,0,0,0,1.77,1.18c1,.29,2.8.52,3.31.81s1,.44,1.25,1,.81,1,1.18,1.62,1.62,1.1,1.47,2.06-.29,2.5-.29,2.5A28.21,28.21,0,0,0,273.1,56a6.13,6.13,0,0,0,.22,3.16,11,11,0,0,1,.66,3.24c.07,1.4.37,1.69-.37,2.35s-1.47.44-1.47,1.47a4.16,4.16,0,0,0,.66,2.43c.29.22.52-.07.52.59a13.63,13.63,0,0,1-.22,1.91c-.15,1.18-.74,2.06-.15,2.28a4.84,4.84,0,0,1,1.69,1.25c.37.44.17.52.45,1.47a2.3,2.3,0,0,0,1.39,1.32,3.87,3.87,0,0,1,.66,1.55,5.19,5.19,0,0,0,.07,1.55c.15.44.88,1.55,1.18,2.43s1.62,1.1,1.62,1.1h2.72c.37,0,1.77-.29,2.13.37s.52,1.1.81,1.18.59.66.88,1a4.08,4.08,0,0,1,.59,1s-1.77,1-2.13,2.28-.15,2.28-.74,2.5-1.47.07-1.77.22-1.4.29-1.47.88-.22,2,.29,2.21.29.29.88.29a4.38,4.38,0,0,1,1.25.15c.22.07.37-.52.51.29s-.15,1.62.15,2.43a1.64,1.64,0,0,0,1.18,1.1c.29.07.07.66.29,1s.44-.15.59,1a4.87,4.87,0,0,1-.07,2.28,7.18,7.18,0,0,0-.07,2.13c0,1.18-.52,1.62-.29,2a13.34,13.34,0,0,0,1.4,1.25,2,2,0,0,1,.81,1.69,1.64,1.64,0,0,1-.88,1.62c-.81.52-1.77.07-2.28,1s-1,1.84-.74,2.43.59.81.88,1.4.59,1.18.88,1.91a10.1,10.1,0,0,0,1.47,2.58,7.24,7.24,0,0,1,1.25,1.69c.07.29-.29.59.29.74s.59-.15,1.32.15,1.55,1.1,2.06,1.18,1.91.07,2-.44a5,5,0,0,0,0-2.58c-.37-1-1.91-2.5-.81-2.8s3.38-1.1,3.75-1.18a3.82,3.82,0,0,1,1,0l2.21-.52-.88-3.75a43.88,43.88,0,0,1,4.49-2.58c.66-.15,3.77-1,4.64-1.1l.87-.07a5,5,0,0,1,.44,1.4c.07.66.52.66.22,1.47s.05.74.1,1.32-.42,1.55,0,2.06a3.37,3.37,0,0,0,.78.74,7.21,7.21,0,0,0,.59.81c.37.44,1.47,1,1.77,1.32s.66.74.66.74a12.18,12.18,0,0,0,1.55.52c.44.07.74,1.25,1.62,1.62s1.18,0,1,1,.29,2.21,0,3.31-.63,1.69,0,2.35a1.69,1.69,0,0,1,.63,1.77,7.83,7.83,0,0,0,0,2.21c.12.44.42.59.86,1.4s-.07,1.62,1,2,1.77-.52,2.65,0a3.84,3.84,0,0,0,2.21.59c.74,0,1-.22,1.25-.07a8.89,8.89,0,0,1,1.69,1.62c.07.22-.74-.15,0,1s1.32,1.69,1.84,1.77.66-.07,1.1.07a1.53,1.53,0,0,1,1,.66c.22.37-.22.37.51.88s1.25.66,1.32,1.4-.15.88,0,1.55.66.59,1.25.88.74.15,1,.81-.88,1,0,1.47,2.06,1.32,2.43,1.47,1.25-.44.29.52-1.69,1.47-1.18,1.77a1.18,1.18,0,0,1,.52,1,14.27,14.27,0,0,0-2.65.29l-1.32.59s-.88-.44-.29,1a31.19,31.19,0,0,1,1.1,3.31s-.37.07.37.74,1,.81.88,1a10,10,0,0,1-1.1,1s-.29.22-.52,0-1.1-.88-1.1-.88l-.88.15-2.28-.07s-1.25-.66-1.47-.15-1,1.4-1.1,1.62-.59,1-.88,1,0,.07-1.47,0-2.5-.88-3.46-.81-2.13.59-3.38.15-2.28-1-2.43-.22.07,2-.37,2.8-1.55,1.4-1.4,2.5-.22,1.32-.66,2.94-1.32,2.06-.29,2.72.74,0,2,1a16.54,16.54,0,0,1,1.84,1.68,10.51,10.51,0,0,0,2.21-.07,13.3,13.3,0,0,0,.74,2.5c.22.15,1.18-.15,1.18-.15a12,12,0,0,1-1,2.65c-.52.74.74.88-1.32,1.55a8,8,0,0,0-3.39,1.69c-.52.52-1.47,1-1.84,1.69s-1,.88-1.32,1.4a9.46,9.46,0,0,0-.66,2.06c-.07.37,0,.74-.44.81s-1.18-.15-2-.15a6.87,6.87,0,0,0-1.91.07c-.22.15-.88.74-.88.74a1.86,1.86,0,0,0,.37,1.69,7.83,7.83,0,0,1,1.19,1.69l1.24.66a1.75,1.75,0,0,1,.29,1.1c-.07.59-.37.81-.37,1.1s0,1-.37,1.1-.8.37-.8.37-.45-.29-.67-.07-.59,1.18-1,1.62a5.87,5.87,0,0,1-1,1,8.24,8.24,0,0,0-1.18,1c-.22.29-.52.37-.81.74l-1,1.18,1.1.07s.88.07.88.44-.81,1-.81,1.4.59.52.15.88a6.53,6.53,0,0,1-1.4.74,2,2,0,0,0-.59.66,1,1,0,0,1,.74.59c.22.52-.52.59.37,1.47s1,1,1.47,1.1a10.46,10.46,0,0,0,2.36.15c.88,0,1.4-.37,2.35.07a17.69,17.69,0,0,1,1.91,1,4.46,4.46,0,0,0,1.32.59,24.17,24.17,0,0,0,3.39-.29,10,10,0,0,1,2.06-.07,5.78,5.78,0,0,0,.88.29s-.22,1.69.51,1.77a10.5,10.5,0,0,1,1.84.22,7.63,7.63,0,0,0,1.77.44c.74.07,1.77.07,1.77.07s0-.29.37-.15,1,.29,1,.66.37,1.47.37,1.91,0,2-.22,2.13a4.52,4.52,0,0,1-1.47.52,1.82,1.82,0,0,0-1.1,1,1,1,0,0,1-.29,1.25,6.48,6.48,0,0,1-1.62,1.1s-.07.59-1.1.81-1.47-.37-2.5,0a12.43,12.43,0,0,0-1.69.74s1.1,1,.22,1.77a3.89,3.89,0,0,1-2.21.88h-2.36s-1-.29-1,.22v2.65l1.62,1.47a1.58,1.58,0,0,1,1.25.52c.51.59,1.47,1.32,1.32,1.91s-.59,3.16-.59,3.16,0,1.1.44,1.32,1.55-.59,1.91-.59.51.29,1.55.29,1.25.07,2.35.07,1.91-.07,2.58,0,0-.81.66.88a10.09,10.09,0,0,1,.81,4c0,1.25,0,1.84.07,3.16s1,2.21,1,3.39a17.16,17.16,0,0,0,.81,3.46,21.6,21.6,0,0,0,1.4,2.72,7.15,7.15,0,0,0,1.69,1.62,12.18,12.18,0,0,1,1.84,1.1c.66.44,1,.88,1.4,1a2.62,2.62,0,0,1,.74.15c.37.15-.22,3-.22,3l2.72-.37a2.2,2.2,0,0,1,1.69.07,10,10,0,0,0,2.13,1.32,3.64,3.64,0,0,0,2,0c.74-.22,1-.29,1-.29s-1.84,4.34-2.06,4.93-.88,2.13-1.18,2.8-.15,1.77-.81,2.43a2.92,2.92,0,0,1-2.5.66c-1-.07-1.77-.81-1.84.15a7.47,7.47,0,0,1-.37,1.77,9.33,9.33,0,0,0-1.77-.22c-.81,0-3.09.22-3.09.22s-.88-1.55-1.1-1.55-1.55.22-1.77,0-3.53-2.8-3.31-1.84-2.21-1.47-2.65-.15a2.42,2.42,0,0,0,.52,2.35c.15.29-.22.44.44,1.25s1,.66,1,1.32a7.87,7.87,0,0,0,.07,1.84,12,12,0,0,1,.15,2.13c0,.44-1,1.25-2.5,1.84a11.52,11.52,0,0,0-2.87,1.4c-.81.59-1.47.44-2,1.25a14.29,14.29,0,0,1-1.91,2.06,15.33,15.33,0,0,0-.66,4c.15,1.18.37.59-.07,1.77s-1.18,2-.81,2.21,0,.44,0,.44-1.62-.22-2.21.88a4.07,4.07,0,0,0-.74,2c0,.51-.15.81-.81,1.25s-1.4,1-2.13,1.55a5.58,5.58,0,0,1-1.69.74l-.74-1.69a1.22,1.22,0,0,0-.81-.74c-.66-.22-.88-1.55-1.77-1.32a11.8,11.8,0,0,1-2.28.37c-.44,0-.37-.44-.81,0s-1.91.52-1.62-.52a6.36,6.36,0,0,1,.52-1.4,5.09,5.09,0,0,0,.37-1.55c0-.29-.22-1.25-.74-1.25s-1.32.29-1.84-.51-.44-1.1-1.1-1a1,1,0,0,1-1.1-.29,3.38,3.38,0,0,1-1.32-1.25c-.44-.81-.37-2.21-1-1.18a6.49,6.49,0,0,1-1.62,2.28c-.66.44-.88,0-1.1.74a2.48,2.48,0,0,1-.59,1.18c-.29.37-.74.44-1.32.74a12.83,12.83,0,0,0-1.47,1s-1.55-2.06-1.62-.88.44,1.62.07,2.21-.74,1-.74,1.47.44.88-.07,1.32.22,1-1.4.22-1.55-1.4-2.36-1a4.79,4.79,0,0,1-1.47.44c-.37.15-.52.37-.74.15s-.29-1-1-1.1-.22-1.55-.74-2-1.47-.29-2.13-.66-.66-1.47-1.55-1.84a32.64,32.64,0,0,0-3.75-1c-.66-.15-1.32-1.4-2.65-.66s-2.13-.22-2.8-.44-.81.37-1.84-.29a38.56,38.56,0,0,1-3.16-2.58l-1.62-1.4a3.33,3.33,0,0,0,1.77-1.84,4.82,4.82,0,0,0,.37-2.43c-.15-.51-1.32-1.32-1.69-1.47s-1-.44-1.47-.66-1.18-.22-.88-.88a1,1,0,0,0-.52-1.4,7.51,7.51,0,0,1-1-.66s-1.1-.81-.81-1.77-.15-1.4.15-2.65a4.34,4.34,0,0,1,.81-2.06c.59-1,.81-1.62,1.32-1.91a10.68,10.68,0,0,1,1.32-.59s1.1-2,1-2.58-1-1.84-1.47-1.47-1,1.69-2.13,2.13a3.15,3.15,0,0,1-2.58.07c-.74-.29-1.47-.59-1.91-.74a4.23,4.23,0,0,0-2.13.37c-.37.22-.66.22-.88.52s-.44.15-.44.81.29,1.47-.15,1.18-2.43-1.4-2.43-1.4,1.47-2.13,2.13-2.87,1-.66,1.1-1.47a5.26,5.26,0,0,1,.52-2.13,20.33,20.33,0,0,0,1.1-2.21c.29-.81.59-2.21.81-2.65s.66-1.47-.22-1.77a21.07,21.07,0,0,0-3.09-.88,20,20,0,0,0-2.58.74c-1.32.37-4.49,1-5.22,1.55a5.37,5.37,0,0,1-2.94.88c-1.32.07-2.06,0-2.87.07s-1.55.15-2.43.15-1.32-.44-2.35.22a5.94,5.94,0,0,1-2.28,1c-.37,0-.59-.59-1.69.29s-2.35.44-3.39,1-2.06.74-2.13,1.77.07,2.43-.37,2.8-1.32.59-1.84,1.1-.81.66-.22,1.25,1.55,1,.52,1.32a22.91,22.91,0,0,0-2.87,1.1c-1,.52-2.35.88-2,1.55a3.47,3.47,0,0,1,.22,1.77s-.52-.07-.22.74a2.5,2.5,0,0,1-.66,2.28c-.52.74-2.35,1-2.8,1.55a2.21,2.21,0,0,1-.81.74s-2.28-3.24-3.61-3.61a31.19,31.19,0,0,0-4-.88c-.81-.07-1.84.15-2.13-.88s-.66-.66-.15-2.06.74-1,.59-1.91-.29-1.47-.52-1.62a10.71,10.71,0,0,1-.29-3.24c0-1.18,1.1-1.25-.59-1.62s-1.84-.74-3-.59-1.77,0-2,.37-1.47-1.1-1.47-1.62-.07-1.77,0-2.5a2.55,2.55,0,0,0-1-2.13c-.81-.81-1.4-1.25-2-1.25a8,8,0,0,1-1.62-.29l-.52-1.4s.07.66-.66-.22,1.4.22-1.32-1.69L178,251.57s-4.64-1.32-5.81-1.1l-1.18.22-.22,1S162.8,250.32,162,250s-1.18-1.18-2.35-1.25-1.47.15-2.35-.37-3.16-1.47-3.16-1.47-8.76-.59-9.64-.59-2-.44-2.43.07-.77.48-1-.18-1-1.1-1.55-.7-1.66.11-2.1.11-1.4.18-1.62.15a1.22,1.22,0,0,1-.77-.33c-.33-.29-1-1-1.91-.4-.92-.37-1.91-1.91-2.91-.7-.77-1.07-2.13-1-2.47-.18-.74-.74-1.32-1-2.17-.52a3.07,3.07,0,0,1-2.1.26,4.51,4.51,0,0,0-1.07,0H122c-.18,0-.66-.48-.88-.22s-.66-1.32-.66-1.32a6.7,6.7,0,0,0,1.62-.63c.26-.26.63-.52.55-1s0-1.14-.44-1.07a2,2,0,0,1-1.32,0c-.37-.22-.52-.59-1-.37a3.15,3.15,0,0,1-1.29.37c-.26,0-.22,0,0-.51s0-.92.18-1.4.33-.07.18-.48-.44-1.4-1.32-1.1a2.72,2.72,0,0,0-1.36.88c-.26.26-.33.4-1,.18s-2-1.07-2.24-.63-.77.26-.48.88.92.44.26,1-1,.29-.81,1-.33,1.36.52,1.43.92,0,1.47,0,.07.11.29.55a1.44,1.44,0,0,0,1,.85c.4.07.7-.4.52.29a13,13,0,0,1-.4,1.62c-.22.55-.63.92-.52,1.47s.88.7.26.77-1.18-.11-1,1,.11,1.43.81,1.62,1.07-.07,1.18.44.4.88.33,1.29-.37.7-.88,1.1-.77.4-.92.7a1,1,0,0,0,0,1.25c.4.48-.52.07.92.7s1.43.74,1.58,1.07.52.74,0,1.1-.7.07-1.25.66l-1.32,1.4a11.64,11.64,0,0,0-1.29,1.47c-.52.74-.66,1.14-1.47,2.17a11.37,11.37,0,0,1-2.28,2.32c-.92.7-1.51,1.32-2.06,1.77s-.52.88-1.91.92a21.92,21.92,0,0,0-3.64.07c-.7.22-1.29.37-2.1.7s-1.66.88-2.43,1.29a17.61,17.61,0,0,1-2.39.66c-.81.29-1.14-.48-2.06.85a6.1,6.1,0,0,1-1.77,2,4.17,4.17,0,0,0-1.25.66,5.23,5.23,0,0,1-1.32.77c-.37.18-1.21.85-1.84,1.18s-.55.74-1.07.85-1.4-.92-2-.18-.4,1.55-.63,1.88-2,.18-2,.88a10.14,10.14,0,0,0,.66,1.91c.07.29,0,.63-.77.63s-3.16.7-3.53,1.21-.15-.22-1.07-.22-2.72-.11-3.13.18-.77.55-.85,1a7.2,7.2,0,0,0-.07,1s-1.21-.48-1.47,0-.55,1-.55,1a6.55,6.55,0,0,0-1-.44c-.15,0-1,.33-1.43.07a2.29,2.29,0,0,0-1.62-.48c-.63.15-2,0-2.17.52a6.93,6.93,0,0,0-.15,1.47s-1.32-.33-1.58.37-.88.7-1.3.85-1.16.11-1.68.7-1.25.59-1.43.77a1.47,1.47,0,0,0-.4,1.1,8.69,8.69,0,0,1-.48,3.09c-.29.48-.26,1,.18,1.91s.52,1,1.07,1.25,1.55.55,1.55.55,0,.74-1,1.32-1.1,1.32-1.62.59-1.51-1.4-1.95-1.07-.66,1.25-1.07,1.21-1-.4-1.4.15-.29,1.36-1,1-.44-.63-1-.74-1.25-.52-1.88-.15a4.65,4.65,0,0,0-1.21,1.36s-1.36,0-1.4.48A8.66,8.66,0,0,0,46.3,303c0,.55,0,1,0,1s-1.58-.07-1.32.66S45.57,305.89,44.87,305.69Z"/><path class="cls-2" d="M45.14,307.16a2.41,2.41,0,0,1-.66-.1h0c-.69-.2-2-.55-2.37-.62-1.46-.24-1.57-1.7-1.62-2.32a4.55,4.55,0,0,0-.24-1.33c-.75-2-.07-3,.32-3.33a3.3,3.3,0,0,0,.81-1.69l.06-.55c.12-1,.12-1-.09-1.54a6.19,6.19,0,0,1-.33-1.12,1,1,0,0,0-.14-.38,4.14,4.14,0,0,1-.41-1.48v-.08l-.28.06a2,2,0,0,1-1.07.14c-1-.1-3.24-1.43-3.6-2.75l0-.06a2.48,2.48,0,0,1-.42-2.06,1.51,1.51,0,0,0,0-.61A2.6,2.6,0,0,1,35,286a3.58,3.58,0,0,1,.19-.47,2.7,2.7,0,0,0,.15-.5,2,2,0,0,0,0-.56,2.09,2.09,0,0,1,.69-1.77l.34-.28a2.36,2.36,0,0,1,.43-.92,4.31,4.31,0,0,1,.7-.71,1.77,1.77,0,0,1-.75-2.49,3.68,3.68,0,0,1,.32-.48,2.13,2.13,0,0,0-.23-1c-.08-.16-.14-.31-.19-.44l-1.12,1.5L34.53,276s-1-1.8-2-3.23c-1.27-1.9-1.78-3.1-1.78-4.15a4.09,4.09,0,0,0-.06-.57,4.53,4.53,0,0,1,.15-2.36,3.61,3.61,0,0,1,.25-.54,7.72,7.72,0,0,0-.74-.83,2,2,0,0,0-.39-.16,4.3,4.3,0,0,1-1.45,0l-.26,0a2.43,2.43,0,0,1-1.92-1.07,2,2,0,0,1-.11-1.86c.11-.26.21-.45.29-.62l0-.07a2.52,2.52,0,0,0-.31-1l-.79-1.23,2-1.62.67.68a1.42,1.42,0,0,0,.68-.47s0,0,0-.05a1.66,1.66,0,0,1,.75-1.45,1.89,1.89,0,0,1,1.85.05,4.29,4.29,0,0,1,.93.6l.21-.07.33-.11.15-.33c.19-.4.2-.44.18-.59-.06-.4-.08-.73-.09-1v-.07c-.53-.75-1.13-1.74-.65-2.7a2.58,2.58,0,0,1,1.32-1.33,1.67,1.67,0,0,1-.41-2.24c.07-.17.14-.31.21-.44a9.25,9.25,0,0,0-1-.12H29.15l.2-.55a1.75,1.75,0,0,1-1-.37,2,2,0,0,1-.65-1.75,1.92,1.92,0,0,0,0-.35h0a1.72,1.72,0,0,0-.32-.14l-.09,0-.22.65-2.51-2.51.67-1a5,5,0,0,0,.17-2.28l-.88-2.34,3.05.56.28.05,0-.07a8.72,8.72,0,0,0,.73-1.83,4.72,4.72,0,0,0,0-1.36c0-.12,0-.23,0-.34l-.28-.14-.38-.19a1.88,1.88,0,0,1-1.6-1.83l0-.28a5,5,0,0,1,0-2.24,5.58,5.58,0,0,0,.22-.95c0-.09-.06-.22-.11-.35a6.19,6.19,0,0,1-.34-1.53c0-.07,0-.15-.07-.24a2.59,2.59,0,0,1,.25-2.59c.33-.37.38-.5.41-.62a12.54,12.54,0,0,0,.07-1.72l0-.06a2.36,2.36,0,0,1,.07-2.16,4.47,4.47,0,0,1,.8-1l.11-.11.1-.19a2.67,2.67,0,0,1,2.29-1.77c.55,0,1.34.07,2.09.13l1.09.09h0l.09-.11.37-.47a7.5,7.5,0,0,1,2.16-1.81l.08,0h0a3.29,3.29,0,0,1,1-1.44,7.46,7.46,0,0,1,1.75-.93c0-.11,0-.22.05-.32a4.77,4.77,0,0,1,1.52-3.22,10,10,0,0,0,.77-.64A3.82,3.82,0,0,1,43,205.61a2.47,2.47,0,0,1,1.06.13l.05,0,.17-.4a2.88,2.88,0,0,1,1.52-1.76,11.12,11.12,0,0,0,2-1.15,7.86,7.86,0,0,1,1.89-1l.3-.12c.67-.27,1.58-.65,2.48-1.11a6.38,6.38,0,0,1,1.8-.47h.05a3.5,3.5,0,0,1-.24-2.73,6.37,6.37,0,0,0,.15-.88A4.57,4.57,0,0,1,55.6,193a1.84,1.84,0,0,0,.13-.78l-.12-.11-.2-.19c-.65.22-1.59.47-2.19.62l-1.17.29-.81-1.89a2,2,0,0,1,.63-2.51l.1-.2a2,2,0,0,1-.88-.71l-.06-.09-.64.14-.33,0A3,3,0,0,1,47.41,186l-.21-.12a4.17,4.17,0,0,1-1.79-2.24l-.22-.64c-.05-.15-.08-.26-.12-.35s-.24-.17-.44-.31l-.24-.17a2.86,2.86,0,0,1-1-1.18h0a7.71,7.71,0,0,0-1.9,0,2.46,2.46,0,0,1-1.42-.21l-.31-.11a2.1,2.1,0,0,1-2.94-.17,2.42,2.42,0,0,0-1.05-.14l-1.78.11.29-1.76a7.19,7.19,0,0,1,.49-1.62,1.33,1.33,0,0,0,.16-.7c0-.11-.27-.67-.38-.93l-.07-.17a1.87,1.87,0,0,1-.9-1,1.84,1.84,0,0,1,.11-1.49c.06-.12.12-.23.18-.32l-.06-.12a2.33,2.33,0,0,1-.19-1.8,2.29,2.29,0,0,1-1.3-1.86c0-.14,0-.31,0-.5a2.16,2.16,0,0,0-.09-1.11c-.36-.87-.45-1-.57-1.14a2,2,0,0,1-.42-.61,8,8,0,0,1-1-.27h0l-.14,0a2.06,2.06,0,0,1-2-.09,1.63,1.63,0,0,1-.67-1.16l-.1-.16a3.19,3.19,0,0,1-.59-2.52c.05-.22.09-.42.13-.61a3.22,3.22,0,0,1,.77-1.81,3.08,3.08,0,0,0,.08-1.21l-.24-.19A6,6,0,0,1,25,152.24c0-1.36,0-2.34.1-3.13a9.2,9.2,0,0,0-.07-2.7c-.09-.48-.19-.9-.27-1.28a7.48,7.48,0,0,1-.22-3.52,3.23,3.23,0,0,0-.23-.53,2.48,2.48,0,0,1,.13-3,3.84,3.84,0,0,1,1.61-.94l.37-.14a4.62,4.62,0,0,0-1-1.48A11.11,11.11,0,0,1,24,133.75c-.35-.62-.73-1.18-1.1-1.72a11.8,11.8,0,0,1-1.2-2,1.51,1.51,0,0,0-.38-.56,7.29,7.29,0,0,1-1-1.36c-.16-.28-.31-.55-.45-.83a4.63,4.63,0,0,0-2-2.26,7.42,7.42,0,0,0-3-1c-.53-.1-1.14-.21-1.86-.39l-.69-.17c-1.81-.46-2.72-.69-3.46-1.67a5.79,5.79,0,0,1-.37-.57l-.17,0a2.24,2.24,0,0,1-1,.72,2,2,0,0,1-1.9-.26,1.72,1.72,0,0,1-.63-1.44,3.42,3.42,0,0,1,1.61-2.5l.3-.2a8.22,8.22,0,0,0,1.53-1.17,5.11,5.11,0,0,0,.38-.5,3.24,3.24,0,0,1,2-1.6l.59-.07a5.08,5.08,0,0,0,2.76-.83l.9-.73c.68-.54.71-.59.77-.75s.1-.31.14-.45c.14-.51.52-1.87,1.94-1.92a7.65,7.65,0,0,0,.78-.34,4.86,4.86,0,0,1,1.47-.53h0l.16-.58c.11-.38.21-.75.31-1,0-.14-.13-.34-.19-.49A5.78,5.78,0,0,1,19.9,105a3.94,3.94,0,0,0-.11-.5,1.94,1.94,0,0,1,.55-2.15,3.33,3.33,0,0,1,3.06-.69,7,7,0,0,0,1.63.21h0a2.1,2.1,0,0,1,1.49-1.76l.28-.1a3.19,3.19,0,0,1,2.46-.14,8.76,8.76,0,0,1,1,.5,5.19,5.19,0,0,0,1.13.5,4.24,4.24,0,0,1,1.75,1,18.72,18.72,0,0,1,2.46.18l.18,0a11.3,11.3,0,0,0,1.73.23,1,1,0,0,0,.19-.07A2.17,2.17,0,0,1,39.3,102c.32.11,1.43.42,1.43.42l.11,0h0l.29-.3a6,6,0,0,1,1.52-1.3,5.94,5.94,0,0,0,1.37-1.18c.15-.18.29-.37.42-.55a7.34,7.34,0,0,1,1.45-1.59,3.5,3.5,0,0,1,.93-.52,3.66,3.66,0,0,0,0-.59,9.09,9.09,0,0,1-.06-1,10.58,10.58,0,0,1,.81-3.48,3.15,3.15,0,0,1,1.92-1.78,5.14,5.14,0,0,0,.91-.49,6.53,6.53,0,0,0,.74-.59,4.39,4.39,0,0,1,1.29-.85,11.28,11.28,0,0,1,1.44-.55,4.81,4.81,0,0,0,.56-.2,1.8,1.8,0,0,1,2.15,0,4.2,4.2,0,0,1,1.28,1.19c.28-.08.59-.15.92-.23l.64-.15.35-.09a4.5,4.5,0,0,1,1-.17l.69,0h.38l.56-.35.14-.38a5.52,5.52,0,0,1,1-1.64l.06-.07a2.27,2.27,0,0,1-1-2.25c0-.21.09-.43.14-.64l.08-.35a2.09,2.09,0,0,1-.1-2.17c.13-.27.26-.54.38-.78l.22-.44a3.28,3.28,0,0,1-.35-1.5v-.77A4.79,4.79,0,0,1,62.66,75a2.5,2.5,0,0,1,.26-1.47.91.91,0,0,0,.1-.29,4.11,4.11,0,0,0,.07-.6,1.92,1.92,0,0,1,1.21-1.91l.34-.14.31-.16a1,1,0,0,0,.33-.25,2.71,2.71,0,0,1,1-.74A2.88,2.88,0,0,1,67,69.3l.21-.23a4.12,4.12,0,0,1,1.89-1.29l.15-.05a6.72,6.72,0,0,0,.48-.9l.12-.25a4.07,4.07,0,0,1,.26-.43.83.83,0,0,0,.21-.48,4.37,4.37,0,0,0,0-.65,8.14,8.14,0,0,1,0-1.11,5.73,5.73,0,0,1,.75-2.59,12.73,12.73,0,0,0,.76-1.72c0-.12.08-.25.11-.37a2.53,2.53,0,0,1,1.18-1.76,2,2,0,0,1,1.7,0,2.82,2.82,0,0,1,1.63,1.35.78.78,0,0,0,.1.15,3,3,0,0,1,.22.29,7.74,7.74,0,0,0,.74-.25l.14,0a3,3,0,0,0,.32-.14,2.06,2.06,0,0,1,2.26,0l.09.07A5.06,5.06,0,0,1,81.4,59l.08-.05.73.23a2.12,2.12,0,0,1,1.21,1.45c.06.18.1.34.14.48l.17.08a5.25,5.25,0,0,1,1.3.78l.06,0a2.49,2.49,0,0,1,.84.55,1.76,1.76,0,0,1,1.29.24A5.11,5.11,0,0,1,88.43,64l.52.68-.36.78c-.75,1.64-1.58,3.47-1.94,4.34a1.82,1.82,0,0,1,2.41,1.32,2.27,2.27,0,0,1-.38,1.84c.06.13.11.25.15.36A1.66,1.66,0,0,1,90,74.68a3.8,3.8,0,0,1,.17,1.48c0,.1,0,.21,0,.38v0l.08-.06a2.24,2.24,0,0,1,2-.77h4.91l.07.29.23,0a1.73,1.73,0,0,1,1.23-.65,2,2,0,0,1,1.73.23l.06,0a3.35,3.35,0,0,1,1.23.38l.24.11a3.64,3.64,0,0,1,2.15-.87,1.88,1.88,0,0,1,.85.15c.3.12,1.16.54,1.16.54l-.63,1.25h1.41v.68c0,.27,0,.54,0,.79a9.09,9.09,0,0,1,0,1.19,1.52,1.52,0,0,1,.43,1.74v.05l.13,0,.39.09.38.09a3,3,0,0,1,2.11-2.09,2,2,0,0,0,.63-.4,2.27,2.27,0,0,1,1.5-.65,2,2,0,0,1,1.65,1.06,3.41,3.41,0,0,0,.25.33,10.8,10.8,0,0,0,1.19-.22c1.26-.28,2.46-.55,3.28.28a4.21,4.21,0,0,1,.66,1c.06.1.14.25.21.36.75.09,1.5.25,2.39.44a13.71,13.71,0,0,0,1.38.18,4.81,4.81,0,0,1,2,.43,7.48,7.48,0,0,0,1.52.74,10.66,10.66,0,0,1,1.55.61,1.19,1.19,0,0,0,.68.09,15.61,15.61,0,0,1,2.88-.24,3.93,3.93,0,0,1,1.18.19,7.55,7.55,0,0,0,.26-.74,5.68,5.68,0,0,1,.2-.58l-.06-.25a1.87,1.87,0,0,0-.15-.34,2,2,0,0,1-.22-1.64,2,2,0,0,1,1.15-1.15,11.25,11.25,0,0,0,1.72-1l.08-.06a1.74,1.74,0,0,1-.35-1.83,2.11,2.11,0,0,1,2.1-1,6.19,6.19,0,0,1,1.61.24,3.25,3.25,0,0,1,.84-1.84,3.23,3.23,0,0,1-.61-1.14,6.77,6.77,0,0,0-.27-.68c-.12-.26-.21-.47-.28-.63v0a4.41,4.41,0,0,1-1.71-1l-.81-.81.62-1c1.26-2,2.36-4.32,2.3-5a9.15,9.15,0,0,0-.61-2.12l2.43-1.45h0a9.26,9.26,0,0,0,1.75,1.6A10,10,0,0,1,145,63.12a3,3,0,0,0,.55.53,9.6,9.6,0,0,1,.89.74,1.76,1.76,0,0,0,.5.39,6.55,6.55,0,0,0,.7.17,6.53,6.53,0,0,1,1.89.6l.2.11c.31.18,1.14.64,1.63.87l.33-.16,1.39,1-.09.88a9.42,9.42,0,0,0,.14,1.93c.22,1.64.44,1.94.48,2a2,2,0,0,0,.49.12l.64.12a3.21,3.21,0,0,0,2,0,9.38,9.38,0,0,1,4.25-.43,17.88,17.88,0,0,0,3.23,0c.52,0,.93,0,1.29,0a8.25,8.25,0,0,0,1.3-.09l.56-.07a7,7,0,0,1,.19-2.19l.74-2.89L170,69a6.83,6.83,0,0,1,.9,1.57A5.75,5.75,0,0,0,172.09,72a6.22,6.22,0,0,0,.61.14c.76.15,2,.4,2.24,1.64l0,.19a3.65,3.65,0,0,0,.11.56,21.2,21.2,0,0,0,5.31-1.06,25.56,25.56,0,0,1,4.74-.73,24.86,24.86,0,0,0,3.75-.53,23.45,23.45,0,0,1,3.39-.78l3-.38-1.22,1.89a1.49,1.49,0,0,1,.24.35,1.43,1.43,0,0,1,.09,1.11l.13.12.34-.28c1.1-.91,2.29-1.71,3.46-1.41a2.47,2.47,0,0,1,1.61,1.59,6.57,6.57,0,0,0,2.39,1.17,2,2,0,0,0,.63-.2,7.57,7.57,0,0,1,2.61-.59,11.19,11.19,0,0,0,4.13-1.42l1.07-.51c1.7-.79,4.09-.85,6.19-.91.78,0,1.53,0,2-.1a4.66,4.66,0,0,0,3-1.54l.16-.2c.76-1,2.78-3.62,5.72-3.34,2.34.22,3.82.53,4.94,1.54l.37.36a6.86,6.86,0,0,0,.66.59,8.77,8.77,0,0,1,2.9-2.45,49.89,49.89,0,0,1,5.63-1.06l.76-.48a4.2,4.2,0,0,1,1.57-.76A1.76,1.76,0,0,1,246,62.6a2.13,2.13,0,0,1,.12-1.91.9.9,0,0,0-.09-.15l-.57-.71.4-.87a1.45,1.45,0,0,1,1.22-.8c-.72-1.85-.83-3.47.5-5.13.33-.42.62-.83.91-1.25a17.9,17.9,0,0,1,1.67-2.15l.39-.42a16.27,16.27,0,0,1,2-2l.12-.15a2.05,2.05,0,0,1,2.79-.66l.4.21a3.75,3.75,0,0,1,1.56-.81,2.06,2.06,0,0,1,2-2.24c.74-.12,1.64-.2,2.43-.27.52,0,1.24-.11,1.43-.15,1.7-.43,2.92-.55,3.75.14l.35.31a2.1,2.1,0,0,0,.93.6c.34.1.87.21,1.39.31a7.89,7.89,0,0,1,2.21.62l.25.14a3.42,3.42,0,0,1,1.53,1.35,5.8,5.8,0,0,0,.46.63,10.5,10.5,0,0,1,.69.94,3.76,3.76,0,0,0,.3.26,3,3,0,0,1,1.37,2.77c-.14.9-.28,2.41-.28,2.42l0,.39-.23.32c-.63.86-1.4,2-1.53,2.23a6.22,6.22,0,0,0,.28,2.17l0,.12a12.06,12.06,0,0,1,.69,3.46c0,.31,0,.55.07.76a2.71,2.71,0,0,1-.9,2.72,4.07,4.07,0,0,1-1,.65,4.56,4.56,0,0,0,.2,1,1.71,1.71,0,0,1,1,1.74,6.47,6.47,0,0,1-.1,1.19c0,.21-.08.48-.13.9a8.19,8.19,0,0,1-.25,1.18,6.55,6.55,0,0,1,1.48,1.26,2.42,2.42,0,0,1,.59,1.36,4,4,0,0,0,.13.62c0,.16.38.35.48.38l.45.15.27.39a4.75,4.75,0,0,1,.91,2.35c0,.17,0,.33,0,.49a3.18,3.18,0,0,0,0,.61c.05.13.18.34.31.59a11.91,11.91,0,0,1,.87,1.83s.24.08.43.13l2.73,0c.74-.07,2.46-.24,3.21,1.11l.25.47.1.19a3,3,0,0,1,.92.92,2.37,2.37,0,0,0,.18.24,5.15,5.15,0,0,1,.88,1.38L289,88.2l-1.1.64a3.85,3.85,0,0,0-1.49,1.46,6.49,6.49,0,0,0-.2,1.08,2.49,2.49,0,0,1-1.4,2.35,4.68,4.68,0,0,1-1.55.23H283l-.38.13-.19.06c0,.18,0,.33,0,.44a6.86,6.86,0,0,1,1,.08,1.46,1.46,0,0,1,1,0,1.82,1.82,0,0,1,1.05,1.5,5.7,5.7,0,0,1,0,1.37,2.41,2.41,0,0,0,0,.83c.07.18.13.2.19.21a1.63,1.63,0,0,1,1.23,1.56,2.45,2.45,0,0,1,.71,1.62l0,.25a4.86,4.86,0,0,1,0,2l-.07.47a3.74,3.74,0,0,0-.1,1,8.88,8.88,0,0,1,0,.9,5.06,5.06,0,0,1-.21,1.47l.07.05a8.93,8.93,0,0,1,.83.71,3.39,3.39,0,0,1,1.22,2.84,3,3,0,0,1-1.53,2.67,3.76,3.76,0,0,1-1.55.52l-.27,0a7,7,0,0,0-.59,1.29,2.27,2.27,0,0,0,.21.29,5.06,5.06,0,0,1,.57.88c.3.6.61,1.23.93,2a8.88,8.88,0,0,0,1.22,2.16,8.57,8.57,0,0,1,1.46,2,3.12,3.12,0,0,1,.88.23,6.83,6.83,0,0,1,1.32.77c.16.11.38.26.5.33h.42a2.44,2.44,0,0,0-.06-1.16,5.62,5.62,0,0,0-.45-.79,3,3,0,0,1-.71-2.73,1.87,1.87,0,0,1,1.32-1.12c.56-.15,1.51-.46,2.27-.71,1-.32,1.34-.44,1.57-.48a4.45,4.45,0,0,1,1.14,0l.6-.14-.79-3.35.85-.54c4-2.56,4.72-2.71,4.94-2.76l1-.27a31.63,31.63,0,0,1,3.8-.87l1.83-.15.43.86a6.18,6.18,0,0,1,.58,1.87,2.33,2.33,0,0,1,.15,2.09,2.59,2.59,0,0,1,.17.75,4.15,4.15,0,0,1-.1,1.11c0,.1,0,.24-.06.35a1.91,1.91,0,0,0,.29.25l.27.18.19.29h0a6,6,0,0,0,.46.63,6.84,6.84,0,0,0,.62.43,4.68,4.68,0,0,1,1.16.92c.12.15.25.3.36.42a9.06,9.06,0,0,0,1,.33,2.3,2.3,0,0,1,1.5,1.18,2.23,2.23,0,0,0,.43.53,1.9,1.9,0,0,0,.39.11,1.82,1.82,0,0,1,1.5,2.37,5,5,0,0,0,0,1.06,6.89,6.89,0,0,1,0,2.36c-.06.24-.12.47-.18.67s-.09.33-.12.45a3,3,0,0,1,1,2.79,7,7,0,0,0,0,1.72l.11.13a7.52,7.52,0,0,1,.63,1,3.51,3.51,0,0,1,.39,1.34,2.08,2.08,0,0,0,.4-.08,2.87,2.87,0,0,1,2.36.19,2.46,2.46,0,0,0,1.49.4,2,2,0,0,0,.46-.05,2.05,2.05,0,0,1,1.42.13,7.81,7.81,0,0,1,2.41,2.44l.19.59-.19.37c.51.77.76.9.78.91s0,0,.14,0a2.67,2.67,0,0,1,1.13.13,2.89,2.89,0,0,1,1.72,1.28,1.91,1.91,0,0,1,.22.52l.27.17a2.8,2.8,0,0,1,1.55,2.17,4.27,4.27,0,0,1,0,1.08h0a4.38,4.38,0,0,1,.5.21l.25.1a2.14,2.14,0,0,1,1.42,1.53,1.94,1.94,0,0,1,0,1.08l.92.58.46.3a1.47,1.47,0,0,1,1.63.73c.54,1-.25,1.79-.68,2.21l-.54.52a2.7,2.7,0,0,1,.29,1.2v1.37l-1.37,0a14.8,14.8,0,0,0-2.19.2l-.59.26c.51,1.35.91,2.83.93,2.91l0,.13.33.28c.41.35,1.51,1.29.7,2.51a5.83,5.83,0,0,1-1.42,1.29,1.8,1.8,0,0,1-2.38-.12l-.48-.39-.41.07-2.75-.09-.29-.15h0l-.39.52-.24.32a3.37,3.37,0,0,1-1.81,1.78,3.24,3.24,0,0,1-1.35.07l-.54,0a7.87,7.87,0,0,1-2.37-.56,3.12,3.12,0,0,0-.91-.26,6.25,6.25,0,0,0-.72.12,5.89,5.89,0,0,1-3.25,0l-.61-.23a4.65,4.65,0,0,1-.47,2.15,5.42,5.42,0,0,1-.78,1,2.65,2.65,0,0,0-.45.59,4.3,4.3,0,0,1-.32,2.36c-.11.29-.24.65-.37,1.15A8,8,0,0,1,315,173a3.89,3.89,0,0,1,1.68.85,12.29,12.29,0,0,1,1.62,1.44c.36,0,.91-.06,1.42-.11L321,175l.27,1.25c.09.43.2.87.3,1.25l2.26-.69-.66,2.47a14,14,0,0,1-1.08,2.85c.15,1.57-1.43,2.07-2.21,2.33a6.81,6.81,0,0,0-2.82,1.35,8.16,8.16,0,0,1-.83.69,4.17,4.17,0,0,0-.78.69,4.05,4.05,0,0,1-1.09,1.21,2.76,2.76,0,0,0-.26.23,9,9,0,0,0-.49,1.61l0,.12a1.85,1.85,0,0,1-1.58,1.81,4.44,4.44,0,0,1-1.33,0,14.34,14.34,0,0,0-1.56-.09h-.65l-.11.09h0a8.43,8.43,0,0,1,1.22,1.64l1.16.62.19.27a3.15,3.15,0,0,1,.55,2.1,3.34,3.34,0,0,1-.36,1.14,2.27,2.27,0,0,1-1.26,2.21c-.31.12-.67.31-.68.32l-.62.32a5.16,5.16,0,0,1-.56.87,7.31,7.31,0,0,1-1.16,1.15l-.44.33a5.61,5.61,0,0,0-.51.4l-.17.2a1.68,1.68,0,0,1,.7,1.35,2.37,2.37,0,0,1-.61,1.46,1.69,1.69,0,0,1-.56,1.92,4.39,4.39,0,0,1-.79.51,1.86,1.86,0,0,1,.06.92c.63.62.67.64.86.7a13.85,13.85,0,0,0,1.91.08,3.45,3.45,0,0,0,.55-.06,3.75,3.75,0,0,1,2.39.26,18.84,18.84,0,0,1,2,1l.1.06a3.14,3.14,0,0,0,.94.43c.23,0,1.34-.14,1.88-.21a9.92,9.92,0,0,1,1.17-.13l.52,0a4,4,0,0,1,2.17.12,4.6,4.6,0,0,0,.59.19l1.23.31-.16,1.25c0,.07,0,.15,0,.23a5.82,5.82,0,0,1,1.42.23l.15.05a5.76,5.76,0,0,0,1.31.32c.33,0,.74,0,1.07.06a1.73,1.73,0,0,1,1.45,0l.15.05c.47.17,1.7.62,1.7,1.92,0,.09.07.31.13.54a6.25,6.25,0,0,1,.24,1.37c0,2-.13,2.83-.85,3.31a5.63,5.63,0,0,1-1.84.7,2.59,2.59,0,0,1-.81,1.92,7.34,7.34,0,0,1-1.56,1.14,2.92,2.92,0,0,1-1.87,1.15,4,4,0,0,1-1.75,0c-.33-.07-.4-.08-.57,0l-.23.08a2.31,2.31,0,0,1,0,.48,2.28,2.28,0,0,1-.85,1.7,5.28,5.28,0,0,1-3.12,1.21h-1.89v.83l.79.72a3,3,0,0,1,1.73,1c.1.12.23.24.36.37.67.67,1.58,1.59,1.28,2.82-.08.3-.28,1.4-.44,2.33a2.16,2.16,0,0,1,.83-.19,2.32,2.32,0,0,1,.89.19,1.48,1.48,0,0,0,.66.11c.54,0,.88,0,1.21,0s.62,0,1.14,0l1.05,0a11.93,11.93,0,0,1,1.68,0,1.1,1.1,0,0,0-.83.3,1.25,1.25,0,0,0-.42.95h1.42l1.4-.19a5.56,5.56,0,0,0,.25.73,11.5,11.5,0,0,1,.91,4.56c0,1.24,0,1.8.07,3.09a3.81,3.81,0,0,0,.42,1.3,5.79,5.79,0,0,1,.61,2.07,14.28,14.28,0,0,0,.66,2.83l.1.31a19,19,0,0,0,1.21,2.33,6.23,6.23,0,0,0,1.11,1.13,11.49,11.49,0,0,1,1.79,1l.24.16c.3.2.55.4.77.58l.23.19h0a2.57,2.57,0,0,1,.85.2c.91.37,1.13,1.2,1,2.67l.69-.09a3.42,3.42,0,0,1,2.79.28l.6.42a7.42,7.42,0,0,0,1.1.71,2.17,2.17,0,0,0,1.23,0c.78-.23,1.09-.31,1.09-.31l2.76-.69-1.11,2.62c-.73,1.74-1.88,4.46-2,4.88-.24.64-.92,2.23-1.21,2.88a3.71,3.71,0,0,0-.1.51,4,4,0,0,1-1,2.34,4.32,4.32,0,0,1-3.61,1.08,4.19,4.19,0,0,1-.49-.07,8.31,8.31,0,0,1-.29,1l-.43,1.18-1.22-.28a7.79,7.79,0,0,0-1.45-.19c-.61,0-2.34.16-3,.21l-.91.09-.46-.8c-.15-.26-.32-.54-.47-.77a2.59,2.59,0,0,1-2.17-.48,21.37,21.37,0,0,0-1.8-1.31,1.8,1.8,0,0,1-1.45-.09l.07.13a1.8,1.8,0,0,1,.19.88l.08.11a2.36,2.36,0,0,0,.42.41,2.12,2.12,0,0,1,.93,1.82c0,.19,0,.36,0,.52a4,4,0,0,0,.06,1,13.09,13.09,0,0,1,.17,2.41c0,1.62-2.37,2.75-3.39,3.16l-.2.08A9.54,9.54,0,0,0,319,287.6a5.06,5.06,0,0,1-1.22.64c-.35.14-.35.14-.41.23a13,13,0,0,1-1.85,2.07,12.27,12.27,0,0,0-.51,3,2.92,2.92,0,0,0,.1.5,2.58,2.58,0,0,1-.25,1.94,10.92,10.92,0,0,1-.64,1.35v0a1.57,1.57,0,0,1,.1.54,1.72,1.72,0,0,1-.85,1.44l-.43.26-.49-.07c-.29,0-.71,0-.77.15-.54,1-.57,1.16-.57,1.32a2.72,2.72,0,0,1-1.44,2.43c-.35.23-.72.51-1.1.79s-.67.5-1,.74a6.93,6.93,0,0,1-2.19,1l-1.15.27-1.19-2.74a2.87,2.87,0,0,1-1.35-1.16l0,0a11.88,11.88,0,0,1-2.21.31,1.92,1.92,0,0,1-.34,0,2.77,2.77,0,0,1-2.59,0,2,2,0,0,1-.86-2.32,7,7,0,0,1,.46-1.32l.11-.25a4.11,4.11,0,0,0,.22-.77,2.59,2.59,0,0,1-2.32-1.22l-.15-.25a2.14,2.14,0,0,1-1.65-.58l-.09-.08-.18-.12a4.14,4.14,0,0,1-1.07-.91,4,4,0,0,1-1,1,2.93,2.93,0,0,1-.65.33,3.49,3.49,0,0,1-.69,1.25,3.19,3.19,0,0,1-1.42,1l-.42.18a11.06,11.06,0,0,0-1.25.82l-1.13.85h0l-.06.1-.25.38c-.08.12-.18.27-.24.38a2.1,2.1,0,0,1-.42,2.19,1.54,1.54,0,0,1-.82,1c-.78.37-1.49,0-2.32-.4a8.9,8.9,0,0,1-1.35-.83,4,4,0,0,1-1.28.37h-.1l0,0a1.68,1.68,0,0,1-2.16-.22,2.38,2.38,0,0,1-.47-.73l0-.06a2.29,2.29,0,0,1-1.3-2.18v-.06l-.22,0a4.39,4.39,0,0,1-1.49-.45,3.06,3.06,0,0,1-1.21-1.4,2.32,2.32,0,0,0-.23-.39,33.23,33.23,0,0,0-3.48-.94,3.07,3.07,0,0,1-1.16-.6,2.49,2.49,0,0,0-.39-.25l-.1,0a3.43,3.43,0,0,1-3.67-.19l-.18-.11a2.8,2.8,0,0,1-2.24-.49,37.92,37.92,0,0,1-3.34-2.71l-3.33-2.87,2.11-.89a1.91,1.91,0,0,0,1-.93,10.09,10.09,0,0,0,.37-1.54,4.41,4.41,0,0,0-.88-.65c-.37-.15-1.06-.46-1.56-.7l-.16-.05a2.13,2.13,0,0,1-1.43-1.11,1.81,1.81,0,0,1-.07-1.26,9.38,9.38,0,0,1-1-.69,3.13,3.13,0,0,1-1.26-3.27,1.43,1.43,0,0,0,0-.64,5.41,5.41,0,0,1,.1-1.91l.08-.33a4.93,4.93,0,0,1,.85-2.06l.06-.09c.16-.26.29-.49.4-.7a4,4,0,0,1,1.39-1.67l-.08,0a4.57,4.57,0,0,1-3.6.06c-.7-.28-1.33-.53-1.74-.67a4,4,0,0,0-1.09.23,3.7,3.7,0,0,1-.53.25h0l0,0c0,.09,0,.16,0,.24a1.82,1.82,0,0,1-.67,2,1.55,1.55,0,0,1-1.73-.08c-.28-.19-1.58-.92-2.33-1.34l-1.37-.76.89-1.29c.16-.23,1.54-2.23,2.25-3a6.83,6.83,0,0,1,.66-.64l.09-.08v-.06c0-.19,0-.34.06-.49a5,5,0,0,1,.58-2c.2-.41.37-.71.52-1a6.92,6.92,0,0,0,.52-1.07c.13-.34.25-.8.37-1.24a9.41,9.41,0,0,1,.5-1.55c-1.07-.35-1.75-.55-2-.6s-.48.14-.75.23-.87.29-1.44.45l-1.37.35a24.51,24.51,0,0,0-3.44,1,6.7,6.7,0,0,1-3.66,1.13c-.76,0-1.33,0-1.84,0-.35,0-.66,0-1,0l-.17,0c-.77.07-1.5.14-2.39.14a5.2,5.2,0,0,1-1-.1c-.38-.07-.38-.07-.64.09a7.07,7.07,0,0,1-3,1.25,1.87,1.87,0,0,1-.66-.12l-.15.11a4.83,4.83,0,0,1-2.64,1,2.75,2.75,0,0,0-.92.2c-.29.17-.59.31-.86.43a6,6,0,0,0-.56.28c0,.23,0,.48,0,.73,0,1.12,0,2.29-.85,3a4.93,4.93,0,0,1-1.05.62l-.31.15a1.74,1.74,0,0,1-.62,3.16l-.75.26a14.48,14.48,0,0,0-2,.78l-.73.34-.33.15a5.48,5.48,0,0,1,.06,1.75l-.12.92a4.27,4.27,0,0,1-3.2,4.11,7.06,7.06,0,0,0-.7.29,3.41,3.41,0,0,1-1.35,1.11l-1,.41-.64-.91a12,12,0,0,0-2.84-3.06,29.59,29.59,0,0,0-3.71-.83h-.38a2.77,2.77,0,0,1-3-1.89,1.61,1.61,0,0,0-.16-.37,2.7,2.7,0,0,1,0-2.57,6.67,6.67,0,0,1,.53-1.14v-.07a7.57,7.57,0,0,0-.17-.86c-.41-.4-.66-1.2-.66-4.21a3.15,3.15,0,0,1,0-.35c-.44-.11-.76-.22-1-.3a1.75,1.75,0,0,0-1-.14c-.43.05-.79.07-1.09.09h-.21a1.57,1.57,0,0,1-1.41.28,4.07,4.07,0,0,1-2.34-3c0-.14,0-.33,0-.55a18,18,0,0,1,0-2.1c0-.13,0-.33-.62-1s-1-.82-1-.84h0a8.79,8.79,0,0,1-2-.34l-.69-.2-.43-1.18a3.34,3.34,0,0,1-.75-.7,2,2,0,0,1-.49-1l-.56-.4-2.53-1.78a24.76,24.76,0,0,0-4.95-1l-.25,0-.31,1.35-1.31-.22c-2.43-.41-8.17-1.38-9-1.69a4.11,4.11,0,0,1-1.24-.77c-.37-.3-.49-.38-.72-.4s-.53,0-.73,0a3.75,3.75,0,0,1-2.25-.55c-.59-.35-2.05-1-2.78-1.3-3.5-.24-8.71-.57-9.31-.57a7.46,7.46,0,0,1-1.1-.11l-.49-.06a1.82,1.82,0,0,1-3.06-.62,4.37,4.37,0,0,1-2.13.12l-.28,0a6.56,6.56,0,0,0-.67.07,3.94,3.94,0,0,1-1.18.06,2.58,2.58,0,0,1-1.48-.67l-.1-.09-.16-.14-.51.35-.73-.26a5.06,5.06,0,0,1-1.14-.7l-.3-.22-1,1.19L129,245.19a.7.7,0,0,0-.14-.14l-.65,1.66-1.53-1.53a2.18,2.18,0,0,0-.39-.33l-.08,0a3.87,3.87,0,0,1-2.52.47l-.35,0a3.58,3.58,0,0,0-.73,0l-.27,0H122a1.61,1.61,0,0,1-.57-.11l-.68-.12c-.89-.2-1.28-1-1.65-2.35l-.38-1.37,1.38-.37.15,0-.11-.06-.15-.09a3.05,3.05,0,0,1-1.61.28,1.57,1.57,0,0,1-1.2-.75,1.66,1.66,0,0,1,0-1.54l.06-.14s0-.12,0-.19,0-.25,0-.4h0a2,2,0,0,1-2.43.52l-.31-.13a2,2,0,0,1-.71,1.08h.31a1.67,1.67,0,0,1,1.35.68l.39.58,0,.06a1.43,1.43,0,0,1,.94.38,1.69,1.69,0,0,1,.38,1.78c-.06.24-.1.43-.14.61a6,6,0,0,1-.32,1.17,5.35,5.35,0,0,1-.32.64,1.45,1.45,0,0,1-.69,2.41,1.78,1.78,0,0,1,1.77,1.47,2,2,0,0,0,.11.32,2.67,2.67,0,0,1,.23,1.52,3.28,3.28,0,0,1-1.4,2l-.33.24c1.37.6,1.92.91,2.28,1.75l.05.11a2,2,0,0,1-.59,2.78,2.81,2.81,0,0,1-1,.42l0,0-1.33,1.41a10.65,10.65,0,0,0-1.15,1.31c-.17.25-.3.46-.43.67a15,15,0,0,1-1.09,1.57,12.83,12.83,0,0,1-2.54,2.57c-.5.38-.91.75-1.26,1.08s-.53.48-.77.67a1.52,1.52,0,0,0-.17.17,3.14,3.14,0,0,1-2.59,1.06c-.54,0-1.09,0-1.62,0a9.66,9.66,0,0,0-1.64,0l-.53.16a14.85,14.85,0,0,0-1.45.5,13.28,13.28,0,0,0-1.44.75l-.87.48a6,6,0,0,1-1.76.54,5.33,5.33,0,0,0-.81.19,2.74,2.74,0,0,1-1.24.14L94,272a7,7,0,0,1-2.3,2.45,4.88,4.88,0,0,1-.46.2,1.39,1.39,0,0,0-.5.27,5.51,5.51,0,0,1-1.41.87l-.2.1c-.14.07-.34.22-.57.38a13.61,13.61,0,0,1-1.24.79s0,0-.11.11a2.1,2.1,0,0,1-2.71.66l0,.15a2.49,2.49,0,0,1-.36,1.16,2,2,0,0,1-1.43.81l.08.17a5.26,5.26,0,0,1,.26.69,1.87,1.87,0,0,1-.32,1.61,2.18,2.18,0,0,1-1.83.77,8.73,8.73,0,0,0-2.47.75,1.61,1.61,0,0,1-1.18.65,1.48,1.48,0,0,1-1.1-.4H75.6a15.39,15.39,0,0,0-1.78,0l-.15.12c0,.24,0,.51,0,.61v2.08l-1.93-.76-.06,0-.24.4-.69,1.12-1.17-.61-.44-.22a2.86,2.86,0,0,1-2-.16l-.22-.12a2.5,2.5,0,0,0-.46-.22,5.57,5.57,0,0,1-.93.12l-.23,0c0,.15,0,.32,0,.47v1.81l-1.76-.44-.15,0a2.74,2.74,0,0,1-1.77,1.16l-.16,0a4.55,4.55,0,0,1-.59.15,1.21,1.21,0,0,0-.48.15,3.36,3.36,0,0,1-1.49,1,9.53,9.53,0,0,1-.68,3.8s0,.18.23.55c.11.22.22.44.29.55l0,0c.52.21,1.47.52,1.47.52l1,.32v1a3,3,0,0,1-1.74,2.55,2.78,2.78,0,0,0-.54.42,1.78,1.78,0,0,1-2.95-.25,1.88,1.88,0,0,0-.22-.25,1.86,1.86,0,0,1-1.77,1l-.27,0a1.88,1.88,0,0,1-1.08,1.18A1.81,1.81,0,0,1,51,302a2.91,2.91,0,0,1-.81-.64l-.36-.1-.37-.1a3.93,3.93,0,0,0-.64.81l-.4.67-.75,0c0,.09,0,.19,0,.29,0,.6,0,1.09,0,1.09v1.48l-1,0a1.5,1.5,0,0,1-.4,1.18A1.54,1.54,0,0,1,45.14,307.16Zm.13-2.82-.4,1.36.41-1.36Zm-2-.54.4.1a1.78,1.78,0,0,1,.22-.39,2,2,0,0,1,.95-.68v-.12a5.63,5.63,0,0,1,0-1.1c0-.56.38-1.46,2-1.71a4.8,4.8,0,0,1,1.29-1.23,3.07,3.07,0,0,1,2.58-.1l.29.08a2.32,2.32,0,0,1,.6.2,2.08,2.08,0,0,1,2-.76,2.93,2.93,0,0,1,.7-.8,1.94,1.94,0,0,1,1.49-.34,2.48,2.48,0,0,1,.42.1c-.11-.19-.21-.4-.33-.64a3.26,3.26,0,0,1-.12-3.29A11.41,11.41,0,0,0,56,291a2.89,2.89,0,0,1,.8-2.38,2.15,2.15,0,0,1,.94-.51,1.05,1.05,0,0,0,.43-.2,3.44,3.44,0,0,1,2.08-1.06l.21,0,.38-.11.11,0a2.07,2.07,0,0,1,1.54-1.17,3.65,3.65,0,0,1,.1-.46c.39-1.25,1.75-1.36,2.66-1.42a4.11,4.11,0,0,0,.54-.06,3.3,3.3,0,0,1,2.45.52l0,0,.34-.08a1.53,1.53,0,0,1,1,0,1.85,1.85,0,0,1,1.39-.76,3.19,3.19,0,0,1,1.28-1.5c.67-.49,1.59-.52,3.39-.48a5.36,5.36,0,0,1,1.38.12,10.4,10.4,0,0,1,2.8-1,4.75,4.75,0,0,1-.28-1.11c-.17-1.58,1.38-2,2.14-2.14a3.45,3.45,0,0,1,.77-1.68,2.25,2.25,0,0,1,2.8-.48,2.94,2.94,0,0,1,.71-.52c.27-.14.64-.4,1-.62a8.42,8.42,0,0,1,.91-.57l.29-.14a2.8,2.8,0,0,0,.75-.44,4.14,4.14,0,0,1,1.34-.77l.2-.08a6.61,6.61,0,0,0,1.24-1.53,2.6,2.6,0,0,1,2.67-1.39h.13a6.68,6.68,0,0,1,1.19-.3,3.52,3.52,0,0,0,1-.27l.78-.43a15.25,15.25,0,0,1,1.77-.91,17.22,17.22,0,0,1,1.71-.59l.5-.15a8.39,8.39,0,0,1,2.58-.16c.47,0,1,0,1.46,0a1.71,1.71,0,0,0,.51-.06s0,0,.06-.08a4.21,4.21,0,0,1,.49-.46c.2-.16.4-.35.63-.55.38-.35.85-.78,1.45-1.23a10,10,0,0,0,2-2.07,12.16,12.16,0,0,0,.9-1.31c.16-.25.31-.5.52-.8a13,13,0,0,1,1.47-1.68l1.27-1.34a3.39,3.39,0,0,1,.48-.43l-.31-.14c-1-.45-1.49-.65-1.66-1.38v0a2.37,2.37,0,0,1,.05-2.43,2.26,2.26,0,0,1,1-1,2.72,2.72,0,0,0,.35-.23l.28-.23v0l-.38-.08c-1.56-.41-1.7-1.57-1.82-2.51l0-.3a2.4,2.4,0,0,1,.42-1.91,1.81,1.81,0,0,1,.32-.3,3,3,0,0,1,.47-1.46,2.65,2.65,0,0,0,.16-.31,2.3,2.3,0,0,0,.1-.32,3,3,0,0,1-1-1,7,7,0,0,1-.76,0,1.87,1.87,0,0,1-1.78-2.26,1.72,1.72,0,0,0,0-.25,1.78,1.78,0,0,1,.55-2,1.69,1.69,0,0,1,.76-2.15c.91-1.18,2.48-.43,3.33,0l.22.11a4.06,4.06,0,0,1,1.66-1c.5-.17,2.22-.53,3.08,1.9a1.79,1.79,0,0,1,.12,1.09,2.15,2.15,0,0,1,1.13.53l.21,0,.29,0a1.7,1.7,0,0,1,1.35.35,2.15,2.15,0,0,1,.69,1.68c0,.08,0,.15,0,.22a2.22,2.22,0,0,1-.65,1.92h.13l.47,0a1.13,1.13,0,0,0,.86-.11,2.75,2.75,0,0,1,2.82-.08,2.62,2.62,0,0,1,.71-.19,3,3,0,0,1,1.92.42,3.3,3.3,0,0,1,2.83.83l.08.06a2.82,2.82,0,0,1,2.67.88l0,0,.44-.05a8.76,8.76,0,0,1,1-.09,5.8,5.8,0,0,1,.62,0,4.41,4.41,0,0,0,.73.05,2.19,2.19,0,0,1,1.88-.27,2.67,2.67,0,0,1,1.25.83,4.09,4.09,0,0,1,1.9,0,4.72,4.72,0,0,0,.69.08c.9,0,8.83.53,9.73.59l.23,0,.22.09c.24.1,2.4,1,3.33,1.56.29.17.31.17.78.16.26,0,.56,0,.95,0a3.86,3.86,0,0,1,2.35,1,2.09,2.09,0,0,0,.41.29c.48.15,3.83.76,7.19,1.33l.13-.56,2.09-.39c1.36-.26,5,.71,6.46,1.13l.23.07,2.32,1.63-.75-7.45,4.11,11.15a3.37,3.37,0,0,0,.55.08,4.47,4.47,0,0,1,3,1.67,4,4,0,0,1,1.44,3.28,16.81,16.81,0,0,0,0,1.73c0,.16,0,.3,0,.42l.14.21a5.42,5.42,0,0,1,.85-.09c.24,0,.53,0,.88-.07a4.46,4.46,0,0,1,2.25.26,11.18,11.18,0,0,0,1.24.35,2.42,2.42,0,0,1,1.91,1.14,1.76,1.76,0,0,1-.11,1.6c-.08.15-.09.19-.09.26a21.93,21.93,0,0,0,.12,2.49,4.91,4.91,0,0,1,.68,2.15,2.35,2.35,0,0,1-.3,1.86,3.85,3.85,0,0,0-.36.76c-.07.18-.11.3-.13.38a4.36,4.36,0,0,1,.26.62h.37l.58,0a32.26,32.26,0,0,1,4.23.93c1.15.32,2.48,1.71,3.43,2.88a6.13,6.13,0,0,1,1.37-.65,4.88,4.88,0,0,0,.93-.42c.09-.14.51-.74.44-.92a2,2,0,0,1,.16-2,1.1,1.1,0,0,0-.07-.34,1.82,1.82,0,0,1-.15-1.48c.31-.94,1.24-1.34,2.13-1.74l.61-.28a14,14,0,0,1,1.57-.67,1.87,1.87,0,0,1-.32-1,2.17,2.17,0,0,1,.82-1.57l.14-.14a5.12,5.12,0,0,1,1.47-.95l.26-.13c0-.26,0-.67,0-.94s0-.67,0-1a3.07,3.07,0,0,1,2.19-2.57c.21-.1.43-.2.65-.32a5,5,0,0,1,2-.56,2.25,2.25,0,0,0,1.21-.35,2.6,2.6,0,0,1,2.68-.65,9.56,9.56,0,0,0,1.41-.76,3.32,3.32,0,0,1,2.66-.5,2.5,2.5,0,0,0,.46.06c.76,0,1.39-.06,2.13-.12l.17,0c.45,0,.89,0,1.4,0s.9,0,1.52,0a3.89,3.89,0,0,0,2.21-.63,16.13,16.13,0,0,1,4.37-1.42l1.29-.33c.51-.14.95-.29,1.31-.41a5.42,5.42,0,0,1,1.65-.38,14.38,14.38,0,0,1,3.52,1,2.15,2.15,0,0,1,1.35,1.21,3,3,0,0,1-.29,2.54c-.06.14-.21.68-.31,1-.14.51-.29,1.06-.44,1.46A9.42,9.42,0,0,1,247,264c-.13.24-.29.52-.47.88a2.23,2.23,0,0,0-.29,1c0,.22,0,.45-.09.74a2.64,2.64,0,0,1-.69,1.45,4.76,4.76,0,0,1,2.55-.18c.44.15,1.18.44,1.92.74a1.81,1.81,0,0,0,1.62-.06,2.7,2.7,0,0,0,1-1,4.17,4.17,0,0,1,.72-.86,1.73,1.73,0,0,1,1.65-.3,4,4,0,0,1,2.1,2.52c.08.31.28,1.13-1.09,3.61l-.26.46-.5.18a8.74,8.74,0,0,0-1.1.49s-.21.36-.35.61-.29.52-.47.82l-.06.09a2.71,2.71,0,0,0-.5,1.21l-.08.33a2.66,2.66,0,0,0,0,1,4.14,4.14,0,0,1-.1,1.65,1.27,1.27,0,0,0,.28.31,6.37,6.37,0,0,0,.81.56,2.45,2.45,0,0,1,1.34,2.25c.41.2,1,.47,1.35.61s2.16,1.12,2.53,2.4a5.81,5.81,0,0,1-.37,3.22,3.9,3.9,0,0,1-.87,1.52l.29.25a36.06,36.06,0,0,0,3,2.46l.15.09a2.49,2.49,0,0,1,1.37.05,4.29,4.29,0,0,1,.78.38c.56.32.62.32.88.17a3,3,0,0,1,3.55.4l.19.14a32.62,32.62,0,0,1,3.9,1.08,3.26,3.26,0,0,1,1.63,1.68l.14.26a4.5,4.5,0,0,0,.5.1,3.49,3.49,0,0,1,1.8.7,2.67,2.67,0,0,1,.79,1.94,2.34,2.34,0,0,1,.69.62l.24,0a1.32,1.32,0,0,0,.59-.2,2.17,2.17,0,0,1,2.62.28c.13.1.28.21.46.33a3.49,3.49,0,0,1,.74-1.85l.1-.15,0-.08a5.37,5.37,0,0,1-.16-1.63,1.69,1.69,0,0,1,1.18-1.62,2.07,2.07,0,0,1,2.09.71c.2-.13.41-.25.6-.34s.41-.19.6-.27a2,2,0,0,0,.31-.14,1.44,1.44,0,0,0,.28-.65,1.9,1.9,0,0,1,1.6-1.49,3.7,3.7,0,0,0,1-1.33l.28-.5a1.72,1.72,0,0,1,1.76-1.07c1.07.14,1.33,1.14,1.48,1.67a3.46,3.46,0,0,0,.19.59,1.21,1.21,0,0,0,.54.53,4.66,4.66,0,0,1,.43.3h0a2,2,0,0,1,2.28,1.19l.18.32.22,0,.48,0c1.47,0,2.15,1.59,2.15,2.67a6.25,6.25,0,0,1-.38,1.85,1.68,1.68,0,0,1,.73.18,12.87,12.87,0,0,0,1.72-.31,2.43,2.43,0,0,1,2.59,1.23l.13.19a2.63,2.63,0,0,1,1.51,1.51l.17.38.12-.08c.32-.22.63-.46.94-.69s.83-.62,1.22-.87l.18-.13a5.49,5.49,0,0,1,.9-2.6,3.1,3.1,0,0,1,2.09-1.53,5.33,5.33,0,0,1,.37-.82,8.52,8.52,0,0,0,.48-1l.13-.35a5.81,5.81,0,0,1-.14-.75,15.3,15.3,0,0,1,.71-4.54L313,289l.3-.27a12.49,12.49,0,0,0,1.66-1.77,3.3,3.3,0,0,1,1.76-1.35,2.44,2.44,0,0,0,.59-.29,11.88,11.88,0,0,1,3-1.49l.2-.08a6.21,6.21,0,0,0,1.61-.89,9,9,0,0,0-.12-1.49,6.77,6.77,0,0,1-.11-1.68s0-.1,0-.15a5,5,0,0,1-.71-.71,2.73,2.73,0,0,1-.73-1.69,3.54,3.54,0,0,1-.47-3.27,2,2,0,0,1,1.13-1.23,2.88,2.88,0,0,1,2.37.32c1.35-.53,3.59,1.27,4.45,2l.65-.06.47,0c.73,0,1.22.44,1.86,1.47.76-.07,1.8-.15,2.33-.15.23,0,.47,0,.69,0q0-.13,0-.27a1.88,1.88,0,0,1,.8-1.5,2.16,2.16,0,0,1,2-.09,2.74,2.74,0,0,0,.6.15c1,.08,1.21-.07,1.4-.25a2.29,2.29,0,0,0,.2-.78,4.77,4.77,0,0,1,.31-1.22c.32-.71,1-2.2,1.15-2.72.11-.3.6-1.46,1.07-2.59a5.88,5.88,0,0,1-1-.17,6.64,6.64,0,0,1-2.06-1.15l-.52-.37a2.8,2.8,0,0,0-.44.09l-.27.06-4.7.64.4-2c.11-.54.21-1.13.26-1.59a3.75,3.75,0,0,1-1-.65c-.16-.13-.34-.28-.56-.42l-.25-.17a9,9,0,0,0-1.38-.82,7.47,7.47,0,0,1-2.24-2l-.1-.15a20.05,20.05,0,0,1-1.54-3l-.09-.3a16.38,16.38,0,0,1-.78-3.48,3.52,3.52,0,0,0-.37-1.09,6.3,6.3,0,0,1-.66-2.3c-.08-1.37-.08-2-.08-3.24a8.68,8.68,0,0,0-.71-3.53h-.79l-1.13,0c-.6,0-1,0-1.3,0s-.58,0-1.05,0a4.31,4.31,0,0,1-1.5-.23l-.11.06a2.77,2.77,0,0,1-2.48.32,2.85,2.85,0,0,1-1.23-2.59l0-.24c0-.23.35-2,.53-2.92-.13-.15-.33-.35-.46-.49s-.34-.34-.48-.5-.1,0-.1,0l-.63.06-.41-.43-2.08-1.89v-3.28a1.67,1.67,0,0,1,.68-1.36,2.28,2.28,0,0,1,1.88-.27h2.17a2.54,2.54,0,0,0,.92-.3l-1.25-1.24,1.63-.93a14.12,14.12,0,0,1,1.9-.83,3.61,3.61,0,0,1,2.09-.09,1.27,1.27,0,0,0,.59,0h0l0-.37.71-.33a5.41,5.41,0,0,0,1.07-.69l-.15-.25.28-.67a3.16,3.16,0,0,1,2.13-1.87,5.09,5.09,0,0,0,.53-.13c0-.24,0-.6,0-1.13,0-.1-.1-.47-.16-.7l-.07-.31h0s-1.11,0-1.91-.08a8.29,8.29,0,0,1-1.94-.46l-.14,0a5.52,5.52,0,0,0-.87-.1l-.66-.05a1.86,1.86,0,0,1-1.28-.7,2.75,2.75,0,0,1-.52-1.4l-.72.06c-.33,0-.63.06-.81.06l-.78.1a8.75,8.75,0,0,1-2.95.15,5.86,5.86,0,0,1-1.71-.75l-.1-.06a15.9,15.9,0,0,0-1.67-.9c-.25-.11-.33-.1-.77,0a6.09,6.09,0,0,1-1,.09,10,10,0,0,1-2.8-.22,4.55,4.55,0,0,1-2-1.45,2.45,2.45,0,0,1-.86-1.78l-1.41-.3.94-1.69a3.12,3.12,0,0,1,1.19-1.23l.37-.17.11,0s0-.09,0-.14a1.75,1.75,0,0,1,.07-.5l-2.67-.18,1.74-2.13.95-1.17a3.47,3.47,0,0,1,.72-.66l.1-.08a4.93,4.93,0,0,1,1.06-.92l.33-.25a4.52,4.52,0,0,0,.75-.76,5.73,5.73,0,0,0,.4-.7,3.9,3.9,0,0,1,.65-1,1.73,1.73,0,0,1,1.43-.49,2.26,2.26,0,0,1,.28-.94,1.39,1.39,0,0,0,.08-.17l-1.17-.63-.2-.4a6.36,6.36,0,0,0-.93-1.33,3.25,3.25,0,0,1-.73-3.08l.11-.4.31-.27a13.37,13.37,0,0,1,1-.85,3.47,3.47,0,0,1,2.1-.32c.61,0,1.25,0,1.73.1a9.28,9.28,0,0,1,.73-2.1,3.54,3.54,0,0,1,.92-1,1.63,1.63,0,0,0,.4-.38,5.33,5.33,0,0,1,1.54-1.57,5.7,5.7,0,0,0,.54-.44,9.42,9.42,0,0,1,4-2l.22-.07a2.1,2.1,0,0,1,.38-.94,3,3,0,0,0,.25-.5h0c-.34-.23-.6-.4-1.05-2.16-1.37.08-1.63-.09-1.9-.27a3,3,0,0,1-.54-.49,9.37,9.37,0,0,0-1.37-1.24,2.81,2.81,0,0,0-.5-.33,3.4,3.4,0,0,1-1.4-.57,2.25,2.25,0,0,1-.72-3.25,5.84,5.84,0,0,0,.41-1c.16-.6.32-1,.45-1.38a1.61,1.61,0,0,0,.18-1,3.46,3.46,0,0,1,1.16-2.87,1.61,1.61,0,0,0,.53-1.66,7.45,7.45,0,0,1,.09-1.21,1.86,1.86,0,0,1,.91-1.33c.88-.49,1.8-.14,2.77.24l.61.23a3.32,3.32,0,0,0,1.75-.06,9.21,9.21,0,0,1,1.05-.16,4.93,4.93,0,0,1,2.09.42,5.32,5.32,0,0,0,1.55.39l.54,0,.3,0,.13-.19a3.86,3.86,0,0,1,.58-.89,7.07,7.07,0,0,0,.53-.75,1.71,1.71,0,0,1,1-.94,3,3,0,0,1,2.11.24l1.84.06,1-.16a1.53,1.53,0,0,1,0-.49,27.1,27.1,0,0,0-.91-2.68,2.22,2.22,0,0,1,.21-2.55,1.7,1.7,0,0,1,1.23-.44l.93-.41a4.6,4.6,0,0,1,1.1-.25,2.16,2.16,0,0,1,.69-1.41,14.55,14.55,0,0,0-1.28-.77,1.91,1.91,0,0,1-1.07-1.2,1.7,1.7,0,0,1,.07-1.1l-.25-.09a2.27,2.27,0,0,1-1.71-1.73,3.32,3.32,0,0,1,0-1.29,1.68,1.68,0,0,0,0-.32l-.25-.17-.48-.32a2.2,2.2,0,0,1-1-1.33l-.09,0a3.49,3.49,0,0,1-.85,0c-1.3-.19-2.2-1.39-2.84-2.42a2.73,2.73,0,0,1-.53-1.58l-.43-.39a4.62,4.62,0,0,1-.78.07,5.22,5.22,0,0,1-2.86-.75l-.26.06a3.56,3.56,0,0,1-2.18,0,2.47,2.47,0,0,1-1.76-2.31,1.44,1.44,0,0,0-.06-.35,4.84,4.84,0,0,0-.41-.63,3.05,3.05,0,0,1-.57-1.06,8.47,8.47,0,0,1-.07-2.7c0-.21,0-.33,0-.39l-.26-.29a2.92,2.92,0,0,1-.5-3.1c0-.17.1-.35.14-.55a4.68,4.68,0,0,0,0-1.41,10.13,10.13,0,0,1-.08-1.18l-.13,0a3.86,3.86,0,0,1-1.69-1.56l0-.07c-.51-.15-1.12-.38-1.41-.5l-.27-.11-.21-.21s-.43-.43-.77-.85l-.48-.3a5.5,5.5,0,0,1-1.27-1c-.24-.28-.42-.54-.55-.72a5.33,5.33,0,0,1-.84-.84,2.91,2.91,0,0,1-.37-2.48,2.46,2.46,0,0,0,.06-.38,2.16,2.16,0,0,1,0-1.82,2.76,2.76,0,0,1-.27-.91v0c-.69.12-2.28.54-3.09.75l-1.14.29c-.31.12-1.77,1-3.19,1.85l1,4.15-3.84.89-.25,0a2.62,2.62,0,0,0-.51,0c-.16,0-.65.2-1.23.39l-1.33.43a6.61,6.61,0,0,1,.68,1.28,5.73,5.73,0,0,1,.11,3l0,.23c-.24,1.67-2.37,1.82-3.59,1.64a4,4,0,0,1-1.63-.8,5,5,0,0,0-.76-.47l-.12,0a2.23,2.23,0,0,1-1,0,1.69,1.69,0,0,1-1.4-1.82,13.2,13.2,0,0,0-.86-1,11.39,11.39,0,0,1-1.73-3c-.27-.69-.55-1.23-.83-1.81a2.39,2.39,0,0,0-.28-.41,4.09,4.09,0,0,1-.67-1.13c-.46-1.23.25-2.54.82-3.6a2.83,2.83,0,0,1,2.31-1.45,1.65,1.65,0,0,0,.46-.1,1.11,1.11,0,0,0,.22-.16,1.5,1.5,0,0,1,0-.3v-.1c0-.08,0-.14-.4-.55a6.06,6.06,0,0,0-.57-.48,4,4,0,0,1-1-1,2.09,2.09,0,0,1-.08-1.84,2.5,2.5,0,0,0,.17-.88,6.45,6.45,0,0,0,0-.65,6,6,0,0,1,.12-1.69l.07-.48a2.66,2.66,0,0,0,0-1.14l0-.21a1.78,1.78,0,0,1-.41-.47,2.14,2.14,0,0,1-.27-.73,3.11,3.11,0,0,1-1.32-1.65,4.64,4.64,0,0,1-.2-1.92h-.38a2.12,2.12,0,0,1-1.33-.35l-.11-.06c-1.52-.65-1.26-2.78-1.14-3.69.17-1.36,1.55-1.78,2.14-2l.17-.05a2.86,2.86,0,0,1,1.21-.2h.2V91a9,9,0,0,1,.29-1.53,5,5,0,0,1,1.57-2.23l-.13-.17L285,87a2.7,2.7,0,0,1-1.15-1.34l-.05-.1c-.21,0-.49,0-.62,0l-.43,0-3,0a3.55,3.55,0,0,1-2.73-2.05,9.93,9.93,0,0,0-.66-1.37,7.1,7.1,0,0,1-.51-1.06,4.42,4.42,0,0,1-.16-1.6c0-.13,0-.26,0-.39a3.69,3.69,0,0,0-.22-.43,3.48,3.48,0,0,1-1.77-2,6.59,6.59,0,0,1-.22-1,3.54,3.54,0,0,0-1.06-.79c-1.6-.6-1.12-2.33-1-2.89a6.31,6.31,0,0,0,.2-.89c.06-.46.1-.76.14-1l0-.27c-.94-.8-1.15-2.83-1.15-3.5A2.34,2.34,0,0,1,272.26,64a1.59,1.59,0,0,0,.41-.24h0c0-.08,0-.17,0-.28s-.06-.56-.08-.93a9.3,9.3,0,0,0-.56-2.76l0-.12a7.22,7.22,0,0,1-.17-4.15A19.57,19.57,0,0,1,273.43,53c.05-.49.14-1.35.24-2-.1-.1-.27-.25-.38-.34a4,4,0,0,1-.87-.92,7.46,7.46,0,0,0-.5-.68,8,8,0,0,1-.71-1s-.12-.1-.39-.25l-.33-.18c-.16-.07-.88-.21-1.36-.3s-1.19-.24-1.67-.38a4.85,4.85,0,0,1-2-1.24l0,0a7.6,7.6,0,0,0-1.44.27,14,14,0,0,1-1.88.23c-.59,0-1.24.11-1.79.18a2.71,2.71,0,0,1-.09.66,2.13,2.13,0,0,1-1.87,1.55,1.09,1.09,0,0,0-.63.26c-1,.83-1.82,1.2-3,.43l-.05,0a2.87,2.87,0,0,1-.36.32,15.14,15.14,0,0,0-1.63,1.62l-.39.42a15.55,15.55,0,0,0-1.41,1.83c-.32.47-.65.93-1,1.4s-.72.9.14,2.84a2.17,2.17,0,0,1,.27,2.33,1.87,1.87,0,0,1-1.19.9,2.21,2.21,0,0,1-.17.8l-.09.18v0a2.54,2.54,0,0,1-.08,2.12,2.42,2.42,0,0,1-1.11,1v.09A2,2,0,0,1,247,67a2,2,0,0,1-1.93.35l-.42.27a5,5,0,0,1-2,.92c-.71.08-4.33.69-4.87.87a6.4,6.4,0,0,0-1.86,1.72,2.63,2.63,0,0,1-1.91,1,4,4,0,0,1-2.86-1.49l-.28-.27c-.39-.35-1.08-.61-3.3-.82-1.36-.14-2.66,1.54-3.21,2.25l-.19.24a7.46,7.46,0,0,1-4.84,2.58c-.64.07-1.45.09-2.3.12a15.43,15.43,0,0,0-5.07.64l-1,.49a13.31,13.31,0,0,1-5.25,1.7A4.87,4.87,0,0,0,204,78a3.61,3.61,0,0,1-2.42.28c-.54-.16-3.16-1-4.07-2.5a9,9,0,0,0-.82.61c-1,.84-1.69,1.35-2.55,1.25a1.94,1.94,0,0,1-1.33-.86,1.29,1.29,0,0,0-.37-.37A2.25,2.25,0,0,1,191.33,75a2,2,0,0,1,0-.25l-.15-.18c-.41.1-.9.23-1.46.39a25.67,25.67,0,0,1-4.28.63,24.34,24.34,0,0,0-4.15.61c-1.84.59-5.26,1.37-6.74,1.16a2.71,2.71,0,0,1-2.25-2.39l-.12,0a5.87,5.87,0,0,1-1.24-.34,4,4,0,0,1-1.12-.83,3.26,3.26,0,0,1-2.13.81l-.43.06a10.73,10.73,0,0,1-1.72.13c-.32,0-.69,0-1.15,0a20.21,20.21,0,0,1-3.82,0,6.43,6.43,0,0,0-3,.31,6,6,0,0,1-3.43.09l-.57-.11c-2.12-.37-2.89-1.43-3.29-4.52-.08-.59-.12-1-.15-1.41-.44-.2-1-.51-1.82-1l-.19-.11a4.89,4.89,0,0,0-1.09-.3,9.44,9.44,0,0,1-1-.25,4.06,4.06,0,0,1-1.52-1,6.93,6.93,0,0,0-.63-.54,5.76,5.76,0,0,1-1-1c-.13-.15-.27-.31-.46-.49a16.56,16.56,0,0,1-1.81,4.16,2.27,2.27,0,0,1,1.33,1.48c.06.14.13.32.24.54a9.42,9.42,0,0,1,.38.95,1.41,1.41,0,0,0,.09.24,1.48,1.48,0,0,0,.25.23,2.14,2.14,0,0,1,.91,2.18,2,2,0,0,1-1.28,1.42,1.27,1.27,0,0,0-.07.68,2,2,0,0,1-.65,1.9,2.36,2.36,0,0,1-2.34.17,2.94,2.94,0,0,1-1.44,2l-.1.07a14.51,14.51,0,0,1-1.52,1l.05.18a2.59,2.59,0,0,1-.08,2.14c0,.07-.05.15-.08.26a7.44,7.44,0,0,1-.82,1.9,2.12,2.12,0,0,1-2.76.8,1.74,1.74,0,0,0-.57-.14,12.86,12.86,0,0,0-2.42.2,4,4,0,0,1-2.46-.38h0a8.52,8.52,0,0,0-1-.4,9.55,9.55,0,0,1-2.05-1c-.19,0-.62-.08-.92-.11a15.47,15.47,0,0,1-1.7-.23,21.29,21.29,0,0,0-2.35-.42A2.89,2.89,0,0,1,117,82.55v0l-.84.17a11.36,11.36,0,0,1-1.71.29,2.78,2.78,0,0,1-2.24-1,4.49,4.49,0,0,1-.87.45,2,2,0,0,0-.4.18s0,.12-.14.5c-.29,1-1.16,2.07-3.68,1.41l-.22-.06a3.94,3.94,0,0,1-1.12-.37l-.79-.41-.21-.4a3.18,3.18,0,0,1-.3-1.89,2,2,0,0,1-.39-1.76,7.28,7.28,0,0,0,0-.83c0-.21,0-.43,0-.66a4.93,4.93,0,0,0-.69.47c-1,.85-2.2.28-2.86,0l-.28-.13a2.12,2.12,0,0,1-.93-.21l-.17.19a1.7,1.7,0,0,1-1.92.42.91.91,0,0,0-.32-.07,3.75,3.75,0,0,1-1.27-.27H92.2l-.21.18A3,3,0,0,1,91.53,80a2.32,2.32,0,0,1-2,1.22h-.18a1.75,1.75,0,0,1-1.82-2.65s0,0,0-.11a2.39,2.39,0,0,1-.19-1.56,1.72,1.72,0,0,0,0-.34c0-.16,0-.29,0-.4a2.34,2.34,0,0,1-1.05-1.53,3.08,3.08,0,0,0-.23-.61,2.28,2.28,0,0,1-.28-1,1.74,1.74,0,0,1-1-.4,4.37,4.37,0,0,1-1.09-2.73c0-.33,0-.49,1.69-4.21a1.58,1.58,0,0,1-1.72-1.24,2.22,2.22,0,0,1-.55-.4,6.79,6.79,0,0,0-.61-.31l-.4-.2a2.27,2.27,0,0,1-1.28-1.7l0-.08a1,1,0,0,0-.24,0A2.26,2.26,0,0,1,79,61.43l-.39.16-.13,0a6,6,0,0,1-2.12.48,2,2,0,0,1-1.87-1.18l-.08-.13h0a15.83,15.83,0,0,1-.81,1.8,3.07,3.07,0,0,0-.46,1.5,5.5,5.5,0,0,0,0,.76,6.82,6.82,0,0,1,0,1,3.6,3.6,0,0,1-.68,1.86l-.08.12-.09.19a8.11,8.11,0,0,1-.88,1.53,2.73,2.73,0,0,1-1.31.87,1.37,1.37,0,0,0-.7.43,2.83,2.83,0,0,1-2,1.23l-.1.06a3.73,3.73,0,0,1-1.1.84l-.31.16,0,0a5.79,5.79,0,0,1-.09.66,3.65,3.65,0,0,1-.31.95v.06a1.91,1.91,0,0,0,.2.71l.18.32v1.49a.58.58,0,0,0,.12.35,2.17,2.17,0,0,1,.32,1.08,4.06,4.06,0,0,1-.62,1.78l-.19.39a1.69,1.69,0,0,1,.24.63,4.27,4.27,0,0,1-.17,1.62l0,.15.46.28A1.86,1.86,0,0,1,67,85a2.17,2.17,0,0,1-.73,1.82l-.18.21-.28.35a3.19,3.19,0,0,0-.55.81c-.17.46-.23.66-.24.7l-.15.53-.47.31-1.19.74a3.21,3.21,0,0,1-1.62.34l-.53,0a2,2,0,0,0-.53.08l-.41.11-.7.17c-.35.08-.68.15-1,.25a2.41,2.41,0,0,1-2.86-1.09,1.4,1.4,0,0,0-.14-.19c-.23.1-.47.17-.71.25a8.78,8.78,0,0,0-1.1.41,1.71,1.71,0,0,0-.58.38A9.05,9.05,0,0,1,52,92a8,8,0,0,1-1.38.75,3.27,3.27,0,0,0-.46.23,9.48,9.48,0,0,0-.59,2.44,6.53,6.53,0,0,0,0,.74,6.09,6.09,0,0,1,0,1.52A2.12,2.12,0,0,1,48,99.63a1,1,0,0,0-.35.16,4.72,4.72,0,0,0-.91,1c-.17.23-.34.46-.53.7A8.47,8.47,0,0,1,44,103.42a7,7,0,0,0-.74.72l-.44.45a2.77,2.77,0,0,1-2.87.57l-1.18-.34a3.22,3.22,0,0,1-.88.24,10,10,0,0,1-2.54-.26l-.18,0a20.09,20.09,0,0,0-2.57-.14h-.69l-.43-.54a1.69,1.69,0,0,0-.72-.49,7.51,7.51,0,0,1-1.78-.75,6.37,6.37,0,0,0-.7-.35h0a1.92,1.92,0,0,0-.4.13l-.08,0a3.11,3.11,0,0,1-.1.33,2.62,2.62,0,0,1-2.22,1.68,8.15,8.15,0,0,1-2.59-.24l-.17,0q0,.1,0,.22a4.18,4.18,0,0,0,.27.75,3.11,3.11,0,0,1,.3,2.4c-.09.22-.19.6-.3,1a9.8,9.8,0,0,1-.52,1.59,1.87,1.87,0,0,1-2,1.06h-.15l-.56.27a8.32,8.32,0,0,1-1.22.51c-.05.19-.11.39-.19.6a4.27,4.27,0,0,1-1.68,2l-.84.69A7.54,7.54,0,0,1,11.53,117l-.22,0c-.1.11-.24.31-.33.45a8,8,0,0,1-.6.78,6,6,0,0,1-.43.43,2.46,2.46,0,0,1,1,1,3.37,3.37,0,0,0,.23.36,5.26,5.26,0,0,0,1.89.63l.7.18c.63.16,1.16.26,1.65.35a10.16,10.16,0,0,1,3.91,1.36,7.42,7.42,0,0,1,3,3.4c.12.23.23.46.37.68a4.56,4.56,0,0,0,.66.88,4.22,4.22,0,0,1,.92,1.4,10.52,10.52,0,0,0,.93,1.51c.38.56.81,1.2,1.22,1.92a8.73,8.73,0,0,0,1,1.32,5.19,5.19,0,0,1,1.74,3.52A2.86,2.86,0,0,1,27,139.83l-.14.05a3.41,3.41,0,0,1,.42,2.39,5.18,5.18,0,0,0,.24,2.25c.09.4.18.84.28,1.35a11.86,11.86,0,0,1,.12,3.44,28.66,28.66,0,0,0-.09,2.87,3.22,3.22,0,0,0,1.42,2.93,5.55,5.55,0,0,1,.63.56,3.7,3.7,0,0,1,.67,2.85,3.42,3.42,0,0,1-.81,2.13c0,.11-.06.28-.09.42s-.09.44-.15.69a3.36,3.36,0,0,0,.23.4l0,.05a2.41,2.41,0,0,1,1.33.12,5.61,5.61,0,0,0,.72.19,2.29,2.29,0,0,1,2,1.52A6,6,0,0,1,34.81,166a4.63,4.63,0,0,1,.32,2.2l.11.07a7,7,0,0,1,1.2.91,1.9,1.9,0,0,1,.64,1.82,1.51,1.51,0,0,1-.52.8,2.73,2.73,0,0,1,.12.57,2.19,2.19,0,0,1-.08,1,1.45,1.45,0,0,1,.32.62l.17.38a7.48,7.48,0,0,1,.58,1.65,3.83,3.83,0,0,1-.19,1.77,3.47,3.47,0,0,1,.84.39l.23-.15a2.85,2.85,0,0,1,2.44.13l.14.05a10.66,10.66,0,0,1,2.44,0c.74.07,2.1.19,2.39,1.64l.07,0,.24.16a3.18,3.18,0,0,1,1.63,2.09l.2.58a1.4,1.4,0,0,0,.7.84,3.09,3.09,0,0,1,1.15,1.19,10,10,0,0,1,1.78-.27,1.79,1.79,0,0,1,1.73,1.25h0c.63.16,1.63.72,1.34,2.77a2.94,2.94,0,0,1-.18.66h0c1.26-.62,2.26.31,2.86.86l.21.19a2.73,2.73,0,0,1,.82,2,4,4,0,0,1-.88,2.68c-.23.23-.45.45-.53,1.42a9,9,0,0,1-.2,1.26c-.14.66-.14.66.09.91a2.32,2.32,0,0,1,.72,2.39c-.43,1.23-1.82,1.46-2.93,1.64a6.28,6.28,0,0,0-1,.21c-1,.5-2,.91-2.67,1.19l-.29.12a5.2,5.2,0,0,0-1.31.72,14.36,14.36,0,0,1-2.49,1.42l-.14.31a3.38,3.38,0,0,1-1.36,1.77,2.63,2.63,0,0,1-2.13.26l-.45.39c-.32.29-.67.59-1,.82a3.52,3.52,0,0,0-.35,1.25c-.17,1.17-.37,2.11-1.29,2.42a7.27,7.27,0,0,0-1.55.7,1,1,0,0,0-.15.29,2.61,2.61,0,0,1-.56.92,3.41,3.41,0,0,1-.7.5A4.77,4.77,0,0,0,36,217l-.34.43a2.36,2.36,0,0,1-2.48,1.19L32,218.49c-.51,0-1.07-.09-1.5-.12l-.1.2a3.16,3.16,0,0,1-.57.87l-.21.21-.15.15a2.39,2.39,0,0,1,.18.84,11.47,11.47,0,0,1-.15,2.55,3.79,3.79,0,0,1-.76,1.49l.06.21a3.33,3.33,0,0,1,.19,1c0,.11.15.54.22.77a7.23,7.23,0,0,1,.2.76,5,5,0,0,1-.32,2.19,2.87,2.87,0,0,0,0,1l.22.11.24.12a2.71,2.71,0,0,1,1.87,2.33c0,.16,0,.34,0,.53a6.93,6.93,0,0,1-.13,2.27,11.45,11.45,0,0,1-.91,2.31l-.06.14c-.59,1.24-1.24,1.6-2.09,1.6a9.55,9.55,0,0,1-.16,1.17l.32.19a2.94,2.94,0,0,1,2,2.25,2.09,2.09,0,0,1,1.7.63l.06.07h.34a14.82,14.82,0,0,1,2.09.26l.19,0c.69.12,1.81.62,1.59,2.71,0,.07,0,.13,0,.19a1.78,1.78,0,0,1-.17.88,5.69,5.69,0,0,1,.58,1.2c0,.1.07.19.11.26a1.6,1.6,0,0,1,.06,1.35,2.21,2.21,0,0,1-1.54,1.16l.08.12.1.14a2.37,2.37,0,0,1,.32,1.27c0,.2,0,.45.07.75a3.58,3.58,0,0,1-.42,2.2c-.05.12-.11.24-.17.37a2.91,2.91,0,0,1-2,1.56l-.25.08a1.65,1.65,0,0,1-2.17-.09A4.16,4.16,0,0,1,29.33,260c0,.14,0,.27.05.38a2.28,2.28,0,0,1-.11,1.07l.2,0a3.31,3.31,0,0,1,2.18.43,5.87,5.87,0,0,1,1.78,1.72,2.11,2.11,0,0,1,.24,2.87,1.23,1.23,0,0,0-.17.29,2,2,0,0,0,0,1,6.78,6.78,0,0,1,.09,1c0,.19.13.81,1.31,2.58.46.69.93,1.44,1.3,2.06a2.5,2.5,0,0,1,1.06.14l.15,0h0a2,2,0,0,1,1.86,1.62,3,3,0,0,0,.18.49A5.07,5.07,0,0,1,40,278a2.15,2.15,0,0,1-.16.84l.25.21a2,2,0,0,1,.33,2.87,3.93,3.93,0,0,1-.85.88c-.1.08-.24.19-.33.28a1.59,1.59,0,0,1-.7,1.29l-.27.19a4.44,4.44,0,0,1-.14,1.14,5.07,5.07,0,0,1-.33,1v.09a4.27,4.27,0,0,1,0,1.61,3,3,0,0,1,.36.72,4.64,4.64,0,0,0,1.15.79l.26-.06.26-.06a2.64,2.64,0,0,1,2.07.18,2.69,2.69,0,0,1,1.34,2.31,3,3,0,0,0,.09.51,3.64,3.64,0,0,1,.42,1.15,3.42,3.42,0,0,0,.2.66,5,5,0,0,1,.26,2.91l-.06.52a6.07,6.07,0,0,1-1.44,3.19,2.34,2.34,0,0,0,.14.5A7,7,0,0,1,43.3,303.79Zm240.63-2.7Zm13.79-.93h0Zm.11-.11h0Zm-24.36-2.84Zm-217.39-6h0Zm2.69-.89,0,.09Zm-20.62-1.2Zm44.11-12Zm246-1.81,0,0ZM245.69,271h0Zm8.13-.53a4.22,4.22,0,0,1-.58.44l.46-.2Zm-59.43.41h0Zm52.74-.27h0Zm-53-.05Zm20.41-4.06Zm-24-1.14h0Zm143.62-5.44Zm-220.56-6.53,0,0Zm-79.19-2.27h0Zm105.32-4.39h0Zm-1.07-2.26h0Zm-2.66,0h0Zm-20.35-2.81v0Zm3.68-2.66h0Zm-7.43-3h0Zm-85.75-10v0ZM325,217.34h0ZM55.09,200.56Zm.49-7.57Zm.25-.72h0ZM41.25,178.19h0Zm288.23-14.64Zm.09-.2-.05.13Zm-2.61-.78h0Zm-.06-.17,0,.05ZM29.53,160.81h0Zm.22-.25Zm257.49-36.1h0Zm28.09-1.67h0Zm-304-5.86Zm6.51-7.48h0ZM283.16,93.89l0,0ZM61.75,88h0Zm223.18-1.16ZM124.19,85.08h0ZM286,84.33h0ZM133.8,82.57l1.32.49-1.28-.6A.72.72,0,0,0,133.8,82.57Zm-70.29-4h0Zm36.66-.12ZM96.73,76Zm45.59-.23h0ZM98.79,75.4h0Zm5.59-.05h0ZM67,69.35ZM246.33,62.5h0ZM85.11,62h0Z"/></svg>