<svg id="Layer_1" data-name="Layer 1" xmlns="http://www.w3.org/2000/svg" viewBox="0 0 350 350"><defs><style>.cls-1{fill:#999;}.cls-2{fill:#f90;}</style></defs><title>M</title><path class="cls-1" d="M119.76,340.6c-1-.31-.93.16-1.24.62s-.7.78-1.71.62-1.16.08-2.09.54a3.23,3.23,0,0,1-2.4.54c-.78-.23-.23-.85-.23-1.71s-.54-1-.93-1.63.08-1,.23-1.63-.54-.39-1.09-.7a16.27,16.27,0,0,0-2-1c-.47-.16-.78,0-1.94,0s-.85-1.55-1.63-2.33-3-.67-3-.67a10.5,10.5,0,0,0,.52-2.48c.1-1.34,1.14-.31,2.59-.21s2.59,0,3.52-.93.72-2.48,1.14-3.41,1.34-3.1,1.66-3.93,2.9-6.93,2.9-6.93-.41.1-1.45.41a5.11,5.11,0,0,1-2.79,0,14,14,0,0,1-3-1.86,3.09,3.09,0,0,0-2.38-.1l-3.83.52s.83-4,.31-4.24a3.69,3.69,0,0,0-1-.21c-.52-.1-1-.72-2-1.34A17.13,17.13,0,0,0,95.33,307a10,10,0,0,1-2.38-2.27,30.35,30.35,0,0,1-2-3.83A24.11,24.11,0,0,1,89.85,296c-.1-1.66-1.34-2.9-1.45-4.76s-.1-2.69-.1-4.45a14.18,14.18,0,0,0-1.14-5.69c-.93-2.38,0-1.14-.93-1.24s-2.07,0-3.62,0-1.86-.1-3.31-.1-1.66-.41-2.17-.41-2.07,1.14-2.69.83-.62-1.86-.62-1.86.62-3.62.83-4.45S73.5,272,72.78,271.2a2.21,2.21,0,0,0-1.76-.72l-2.27-2.07v-3.72c0-.72,1.34-.31,1.34-.31H73.4a5.46,5.46,0,0,0,3.1-1.24c1.24-1-.31-2.48-.31-2.48a17.46,17.46,0,0,1,2.38-1c1.45-.52,2.07.31,3.52,0s1.55-1.14,1.55-1.14a9.11,9.11,0,0,0,2.27-1.55,1.42,1.42,0,0,0,.41-1.76,2.56,2.56,0,0,1,1.55-1.45,6.36,6.36,0,0,0,2.07-.72c.31-.21.31-2.38.31-3s-.52-2.17-.52-2.69-.83-.72-1.34-.93-.52.21-.52.21-1.45,0-2.48-.1a10.74,10.74,0,0,1-2.48-.62,14.75,14.75,0,0,0-2.59-.31c-1-.1-.72-2.48-.72-2.48a8.13,8.13,0,0,1-1.24-.41,14,14,0,0,0-2.9.1c-.62,0-3.93.62-4.76.41a6.27,6.27,0,0,1-1.86-.83,24.85,24.85,0,0,0-2.69-1.45c-1.34-.62-2.07-.1-3.31-.1a14.7,14.7,0,0,1-3.31-.21c-.62-.21-.83-.31-2.07-1.55s-.21-1.34-.52-2.07a1.42,1.42,0,0,0-1-.83,2.85,2.85,0,0,1,.83-.93,9.17,9.17,0,0,0,2-1c.62-.52-.21-.72-.21-1.24s1.14-1.45,1.14-2-1.24-.62-1.24-.62l-1.55-.1,1.34-1.66c.41-.52.83-.62,1.14-1A11.59,11.59,0,0,1,61,226.21a8.25,8.25,0,0,0,1.34-1.34c.52-.62,1-2,1.34-2.28s.94.1.94.1.61-.31,1.13-.52.52-1.14.52-1.55.41-.72.52-1.55a2.46,2.46,0,0,0-.41-1.55l-1.75-.93A11,11,0,0,0,63,214.21a2.62,2.62,0,0,1-.52-2.38s.93-.83,1.24-1a9.65,9.65,0,0,1,2.69-.1c1.14,0,2.17.31,2.79.21s.52-.62.62-1.14a13.3,13.3,0,0,1,.93-2.9c.41-.72,1.34-1,1.86-2s1.86-1.65,2.59-2.38,1.86-1.45,4.76-2.38S81.05,199,81.78,198a16.89,16.89,0,0,0,1.45-3.72s-1.34.41-1.66.21a18.69,18.69,0,0,1-1-3.52,14.78,14.78,0,0,1-3.1.1,23.24,23.24,0,0,0-2.59-2.36c-1.76-1.33-1.34-.43-2.79-1.36s-.21-1.55.41-3.83,1.14-2.59.93-4.14,1.34-2.38,2-3.52.31-2.79.52-3.93,1.65-.31,3.41.31,3.41-.1,4.76-.21,2.79,1,4.86,1.14,1.65.1,2.07,0,1.14-1.14,1.24-1.45,1.24-1.55,1.55-2.28,2.07.21,2.07.21l3.21.1,1.24-.21s1.24.93,1.55,1.24.72,0,.72,0a14,14,0,0,0,1.55-1.34c.21-.31-.21-.52-1.24-1.45s-.52-1-.52-1a43.82,43.82,0,0,0-1.55-4.65c-.83-2,.41-1.34.41-1.34s1.14-.52,1.86-.83a20.06,20.06,0,0,1,3.72-.41,1.65,1.65,0,0,0-.72-1.34c-.72-.41.31-1.14,1.66-2.48s.1-.52-.41-.72-2.17-1.45-3.41-2.07.31-1.14,0-2.07-.52-.72-1.34-1.14-1.55-.31-1.76-1.24.1-1.14,0-2.17-.83-1.24-1.86-2-.41-.72-.72-1.24a2.14,2.14,0,0,0-1.34-.93c-.62-.21-.83,0-1.55-.1s-1.55-.83-2.59-2.48.1-1.14,0-1.45A12.5,12.5,0,0,0,90.36,136c-.41-.21-.72.1-1.76.1a5.4,5.4,0,0,1-3.1-.83c-1.24-.72-2.17.52-3.72,0s-.83-1.65-1.45-2.79-1-1.34-1.21-2a11,11,0,0,1,0-3.1,2.37,2.37,0,0,0-.88-2.48c-.88-.93-.36-1.76,0-3.31s-.26-3.31-.05-4.65-.21-.83-1.45-1.34-1.66-2.17-2.28-2.28a17.12,17.12,0,0,1-2.17-.72s-.52-.52-.93-1-2-1.24-2.48-1.86a10.13,10.13,0,0,1-.83-1.14,4.74,4.74,0,0,1-1.1-1c-.58-.72.07-2.07,0-2.9s-.55-.72-.14-1.86-.21-1.14-.31-2.07a7,7,0,0,0-.62-2l-1.23.1c-1.23.1-5.6,1.34-6.53,1.55s-6.31,3.62-6.31,3.62L53,109.34l-3.1.72a5.37,5.37,0,0,0-1.34,0c-.52.1-3.72,1.24-5.27,1.65s.62,2.48,1.14,3.93a7,7,0,0,1,0,3.62c-.1.72-2.07.72-2.79.62s-1.86-1.24-2.9-1.66-1,0-1.86-.21-.31-.62-.41-1a10.18,10.18,0,0,0-1.76-2.38A14.2,14.2,0,0,1,32.65,111c-.41-1-.83-1.86-1.24-2.69s-.93-1.14-1.24-2,.31-2.07,1-3.41,2.07-.72,3.21-1.45a2.31,2.31,0,0,0,1.24-2.28,2.8,2.8,0,0,0-1.14-2.38,18.75,18.75,0,0,1-2-1.76c-.31-.52.41-1.14.41-2.79a10.09,10.09,0,0,1,.1-3,6.84,6.84,0,0,0,.1-3.21c-.21-1.55-.52-.83-.83-1.34s0-1.34-.41-1.45a2.31,2.31,0,0,1-1.65-1.55c-.41-1.14,0-2.28-.21-3.41s-.41-.31-.72-.41a6.15,6.15,0,0,0-1.76-.21c-.83,0-.52-.1-1.24-.41s-.52-2.28-.41-3.1,1.65-1,2.07-1.24,1.66,0,2.48-.31.52-1.76,1-3.52,3-3.21,3-3.21a5.72,5.72,0,0,0-.83-1.34c-.41-.41-.83-1.24-1.24-1.34s-.62-.72-1.14-1.65-2.48-.52-3-.52H24.48s-1.86-.31-2.28-1.55-1.45-2.79-1.66-3.41a7.3,7.3,0,0,1-.1-2.17,5.45,5.45,0,0,0-.93-2.17,3.23,3.23,0,0,1-1.95-1.86c-.4-1.34-.12-1.45-.64-2.07A6.8,6.8,0,0,0,14.55,46c-.83-.31,0-1.55.21-3.21a19.15,19.15,0,0,0,.31-2.69c0-.93-.31-.52-.72-.83a5.85,5.85,0,0,1-.93-3.41c0-1.45,1-1.14,2.07-2.07s.62-1.34.52-3.31A15.46,15.46,0,0,0,15.07,26a8.62,8.62,0,0,1-.31-4.45A39.67,39.67,0,0,1,17.14,18s1-1.14,1.76-.41,1.29,1.86,2.69,1.14a14.72,14.72,0,0,1,2.84-1.38c1-.28,1.91.91,1.91-.53s1.55.57,2.64,1.29.41-.31,1.14,1.14c0,0,.26,1.24,2.64,2.38s2.07,1,4.14.21,2.69-1.55,4.65-2.59,4-3.09,4.55-2.94,2,.46,2.38-.68.62-1.86,1.24-2.28,1-.72,1.14-1.34-.1-1.86.72-2.48A2.75,2.75,0,0,0,52.82,8c.21-.62-.62-1.86,2.07,0s1.66,2.69,4.45,2.59,3,.52,4.14-.21S64.3,8.6,65.85,9s1.86,1.34,3.1,1.24A25.83,25.83,0,0,1,71.54,10c1,0,1.55.62,2.59,0A9.08,9.08,0,0,1,76,9c.62-.21,1.66-.93,1.76-.62s-.41,2.69.52,2.69.52-.31,1.55,0a3.86,3.86,0,0,1,1.76,1.34,4.85,4.85,0,0,1,1.24,3.41c-.21,1.86-.83,2.69.1,3s3.21.31,6.72.41-.21,1,4.34,1.55,3.52,2.07,4.76,3.41,2.07-.72,3.1-.72,1.34.41,2.07,1.34,1,3,2.79,2,2.07-2,2.59-1.86,3-.62,3.41,1.45,1.66,2.9,2.17,3.72-.21,1.24,1,2.38,2.17-.62,2.38.83.72,2.17,2.48,2.17a13.63,13.63,0,0,1,3,.31s-4.34,3.52,0,5.07c3-1,3.93-2,5-2.07a8.22,8.22,0,0,1,3.41,1.14,1.13,1.13,0,0,0,1.45.21,2.88,2.88,0,0,0,1.65-2.28c.31-1.34-.72-3.41,0-3.62s.83-.83,1.34,0A4.41,4.41,0,0,0,139.28,36a16.33,16.33,0,0,0,3-.83s.18,2.69,1,2.79a4.75,4.75,0,0,0,2.39.1,11.19,11.19,0,0,0,1.86-1.14c.62-.41,2.38-1.24,2.38-1.24s.31-.72.93-.62a27.22,27.22,0,0,0,3.21-.1l1-1.14a.71.71,0,0,0,0-.83c-.31-.41-3.52-7.34-3.93-9.41s-.62-2.48,1.14-1.65,2,.21,2.07-1.65,1.24-2.38,2.17-2.28,2.79-2,4.24-2.28,7-.41,8.58-2.07c3.83,4.55,13.45,22.13,14.27,22.75-1.45,3.62-2.07,2.59-1,5.38s1.65,3.1,1.55,4.65,0,2.48-.52,3.31-1.55-.1-1,1.55.33,2.38,1.56,3.31a11.49,11.49,0,0,1,2.88,3.21,16.82,16.82,0,0,0,1.34,2,2.75,2.75,0,0,1,.72,2c0,.83.21.83.72,2.48s.62,1.86,1.24,2.28,1.14.52,1.55,1.14,1,.83,2.28.1l1.76-1A21.56,21.56,0,0,1,199.48,68c.83.52,2.07,0,2.38,1.14s1.45,1.65,1.86,2.28a11.3,11.3,0,0,0,2.07,2.28c.41.21.72.83,1.86-.1s.21-1.34,1.14-.93,3.41.93,3.83,2,1.76,2,2.59-.83S216.54,70,217,70.24A9.25,9.25,0,0,0,220.37,72c2.9,1,4.55,2.9,4.14,3.31a5.82,5.82,0,0,1-1.45,1c-.72.41-1.76-.21-1.14,1.14a11.45,11.45,0,0,0,2.65,3.1c.45.41.25,1.34.66,2.17a1.8,1.8,0,0,0,1.86.83c.62,0,1.34,2,1.34,2.9s-.62,1.24-.83,2.28-.72,1.34-.72,2.59.93,2.59.93,3.21-1.24,1.24.62,1.65a20.9,20.9,0,0,1,3.21,1.14,4.62,4.62,0,0,0,2.38,0,4.71,4.71,0,0,0,2.17-.52c1-.52,1.66-.93,2.48-1.34s2.17-1,3.1-1.45a15.26,15.26,0,0,0,3.52-1.65c1-.83.52-.93,2.07-1.55s2.69-.52,3.21-1.86.21-.62.93-2.38a6.5,6.5,0,0,1,1.76-2.79,9.64,9.64,0,0,0,2.28-3.1,26.91,26.91,0,0,1,2.48-4,7.08,7.08,0,0,1,.52-3.41c.72-1.34-.52,1.34,1.66-1.76s1.76-2.48,2.69-3.41,1.24-.52,2.48.52a19.11,19.11,0,0,0,2.69,1.66,2.82,2.82,0,0,1,1.45,1.86c.52,1.34,2.17,2,1.34,2.9s-2,.41-1.34,2.59,2.83,2.48,1.57,3.52a3.31,3.31,0,0,0-1.57,3.1c0,1.45.41,2.79.1,3.83s-.93.62-1.86,2-.93,2.28,1.24,2.17a15.51,15.51,0,0,0,4.24-1,17.19,17.19,0,0,1,2.69-.41c.52,0,1-.31,1.45-1.14l.41-.83a6.74,6.74,0,0,1,.72-3.52c.93-1.86.21-3.93,1.34-4.86s1.34-2.69,2.38-1.14.93,4,2.07,4.34,1.86.72,3.21.1,2.59-1.55,3.1-1.45.83-2,2.07-2h4.76c1.55,0,3.83-.31,4.55-.31s1.76-1.76,2.28-.62,2.17,2.17,2.9,1.65,1.24-.93,2-.72a4.87,4.87,0,0,0,2.38.21c.52-.21.31-.31,1.14-.83s2.17-.93,2.59-.62,2.28,6.83,2.28,6.83-9.31,7.55-10,7.86a4.19,4.19,0,0,0-2.07,2.48c-.21,1-.93,6.62-1.86,7.86s-2.17,2-2,4.24-.1,2.79.62,3.1l.72.31s-1.76,3.21-2.48,4.34a14.92,14.92,0,0,1-2.07,2.79,10.7,10.7,0,0,0-1.14,1.14,7.6,7.6,0,0,0,1.66,1.65c.83.52,1.55,1.24,1.24,3.52s-1.66,6.31.31,6.21,1.24-1,2.9.31,1.65,2.07,3.62,2.59a16.76,16.76,0,0,1,4.76,2c.62.52.41,1.76,1.45,2.59s1.86,1,2.59,2.07a9.54,9.54,0,0,0,3,2.07s.62-.93,0,1.34-.41,8.69-1.14,9.93-.83,1.86-1.76,2.69a2.74,2.74,0,0,0-1.14,3c.31,1.45.83,1.86-1.14,2.59s-6.31,4.34-6.72,4.45-10.24-1.76-8.79-.21,3,5.38,2.27,7-.93,2.38-.72,3.52.31,1.65-1.24,1.76-3-.83-3.62.31-.93.7-2,1.49-2.69,1.51-2.69,2.18.52,1.09-.83,2.33-3.62,2.59-3.93,3.52.93,2.48.93,2.48a3.62,3.62,0,0,0,0,3c.72,1.66,1.55,1,1,3.21s-.83,2-.83,4.65.52,2.59-1.24,5.59-9,10.76-12.1,12.93-4.86,2.59-5.48,4.45-1.45,3.21-.62,3.83a26.53,26.53,0,0,0,3.62,2.07c.72.31.62,1.14.72,2.69s-.31,2.79,2,2.9,12.51.52,14,.52a69.4,69.4,0,0,1,7.86.72c1.55.31,17.79,1.76,20.58,2.28s3.72,1.45,4,2.38a28.77,28.77,0,0,1,1.55,5.48c.31,2.28.31,3.41,1.45,4.55s-.1,1.65,1.76.93a7.66,7.66,0,0,1,3.31-.52c.93-.1,1.55-1.34,2.07-1.24s.31,17.38,5.79,26.68c1.34,2.9,1,3.72,0,4.76s-1.55.72-3,.72a15.07,15.07,0,0,0-3.31.52s-.41-1.14-1-.52a16.45,16.45,0,0,1-2.48,1.65s.62,1.86-.52,2.59-2.07.21-2.69,1.14a18.83,18.83,0,0,1-1.55,2.38,7.42,7.42,0,0,1-2,1.55,3,3,0,0,0-1.14,1.55c0,.31.52,0-.31.93s-1.34,2-.93,2.48.52,2.17,0,2.17a42.51,42.51,0,0,0-4.34,1.45s-2.28-1.55-2.28-2.48-1-3.52-3.21-3.62a37.78,37.78,0,0,1-6.72-1.14,9.79,9.79,0,0,1-4-1.65,7,7,0,0,0-3.93-1.34c-.62,0-.62-.93-1.65-2.48s-2.17.31-3.62.1-2.48-.93-3.41-.93-2.59.1-2.59.1-1.14,1.24-.83,2,.62.31,0,1.66.41,4.55.41,4.55l-1.55.62s-2.38-1.55-3.62-1.24-2.28.83-2.48,1.55-1.24,1.34-.41,3.1,1.24,3.52.62,4.65-.41,1.24-1.66,2-1.55,1.86-3.52,2.07a27.91,27.91,0,0,1-3.52.21c-.83,0-.83.1-1.76-.62a42.08,42.08,0,0,1-3.1-3.1,7.57,7.57,0,0,0-2.07,1.45,15,15,0,0,1-.93,1.34c-.41.52-.41,1-1.65,1a4.15,4.15,0,0,1-2-.41c-.31-.1-1,1.45-1.45,2.07s-1.24.72-2.59,1.55a6.27,6.27,0,0,0-2.07,1.86c-.52.62-1.66-.52-1.14,1.34s1,1.86,1,3a4.38,4.38,0,0,1-.83,2.38c-.41.83-.83.52-.72,1.34a10,10,0,0,1,.31,3,5.22,5.22,0,0,1-1.24,3.52,30.07,30.07,0,0,0-2.07,2.79c-.31.62-.41-2-.83-2.28s-1.34.41-1-2,.21-2.07-1.24-2a28.82,28.82,0,0,1-3,0c-1,0-1.45-1.34-3.1-.83s-3.21.83-4.24-1.14a21,21,0,0,1-2.07-4.45c-.52-1.76-.31-3.1-2-2.79s-3.41.52-3.72.31a7.74,7.74,0,0,1-.83-.72s2-1.86.83-3-1.66-.62-1.66-1.65a14.88,14.88,0,0,0,0-2.17,5.61,5.61,0,0,0-1.55-2.38,4.13,4.13,0,0,0-1.34-.21s-.62-3.83-1.86-2.79-.3.74-.53,1.12-.5,1-.85,1.2-.74.12-1.16.27a9.22,9.22,0,0,0-1.24.58c-.35.19-.81-.31-1.2.5a9.47,9.47,0,0,0-1,1.86,7.91,7.91,0,0,1-.58,1.78c-.43,1-.43,1.59-1.16,2a13.89,13.89,0,0,1-1.78.81,9.1,9.1,0,0,1-2.25.78,19.73,19.73,0,0,1-2,.39c-.7.08-.74-1.09-2.33.08s-2.21,1.12-1.9,1.59.62.27.58,1.28a3.37,3.37,0,0,1-.7,2.06c-.47.78-.62,1.12-.5,1.59a.91.91,0,0,1-.47,1.12,5.82,5.82,0,0,0-1.63,1.82c0,.27-.35-.39-.35,1.28s-.23.89.27,1.75.78,1.4,0,1.78-1.44.5-2.09.85-1.75.78-2.17,1-.27.47-.93.08-1.12-.81-1.47-1a11.94,11.94,0,0,0-2.06-.31c-.39-.12.66-.16-1.4-.78s-3-1.4-4.31-1.78-2.25-.19-3.26-.47-2.6-.19-3.45-.35-2.13-.74-2.79-.43-.54.54-1,.5-.85-.31-.85.27-.27.47,0,1.32a8,8,0,0,1,.27,3c-.08,1.28.47,2,.39,3.49a13.41,13.41,0,0,1-.7,3.61c-.27.74-1.28-.58-2.91-.58a7.15,7.15,0,0,0-4.15,1.32,6.49,6.49,0,0,1-3.76.85,27,27,0,0,1-3-.39c-.62,0-2.4-.39-2.4-.39s.41-.65-1.86-1.16l-2.28-.52a6.71,6.71,0,0,0-1.4-.78,6.9,6.9,0,0,0-3.21.16,4.55,4.55,0,0,1-2.9-.05c-.62-.05-2.43.1-2.95.1s-1.09-.52-1.81-.16-1,.36-1.86-.21a5.57,5.57,0,0,0-2-.72c-.31-.1-.16-.57-1.09-.72s-3-.88-3.41.05a11.73,11.73,0,0,1-1.09,2.33c-.62.93-1.45,1.09-1.29,1.6s.78.93.21,1.19a2.91,2.91,0,0,1-2,.26c-1.09-.16-2-.36-2.17-.36A7.83,7.83,0,0,0,119.76,340.6Z"/><path class="cls-2" d="M112.85,344.42a3.26,3.26,0,0,1-.94-.14,2,2,0,0,1-1.32-2.62,2.26,2.26,0,0,0,.07-.44.89.89,0,0,0-.13-.15,4.5,4.5,0,0,1-.58-.73,2.23,2.23,0,0,1-.29-1.81l-.07,0a15.52,15.52,0,0,0-1.76-.89,1.93,1.93,0,0,0-.32,0c-.29,0-.65,0-1.17,0a2.54,2.54,0,0,1-2.41-2.16,2.55,2.55,0,0,0-.23-.58,4.53,4.53,0,0,0-1.91-.26l-2.12.09.72-2a9.22,9.22,0,0,0,.44-2.11,2.09,2.09,0,0,1,.87-1.68,2.48,2.48,0,0,1,2.26-.06,4.29,4.29,0,0,0,1,.23c1.32.1,1.93,0,2.41-.52a2.83,2.83,0,0,0,.45-1.42,6.21,6.21,0,0,1,.4-1.57c.45-1,1.35-3.11,1.62-3.85.18-.48,1.08-2.63,1.83-4.42a7,7,0,0,1-2.19-.23,8.91,8.91,0,0,1-2.7-1.53l-.75-.53a1.87,1.87,0,0,0-1.12.05l-.29.07-5.81.79.4-2a27.13,27.13,0,0,0,.43-2.77h0a3.84,3.84,0,0,1-1.65-.93c-.23-.19-.5-.41-.83-.62l-.34-.23a13.37,13.37,0,0,0-2-1.21,10.22,10.22,0,0,1-2.92-2.7l-.1-.15a28.65,28.65,0,0,1-2.1-4.14l-.13-.41a22.61,22.61,0,0,1-1.07-4.77,5.29,5.29,0,0,0-.57-1.73,8.26,8.26,0,0,1-.88-3c-.11-1.9-.11-2.78-.11-4.53a12.71,12.71,0,0,0-1-5.17l-.14-.38c-.42,0-.92,0-1.52,0l-1.57,0c-.83,0-1.32,0-1.8-.05s-.84,0-1.51,0a5.37,5.37,0,0,1-2.14-.37l-.38.18c-.88.42-2,1-3,.45-1.27-.63-1.4-2.4-1.4-3.13l0-.24c.06-.35.56-3.24.8-4.33a8.15,8.15,0,0,0-.85-1c-.23-.24-.46-.46-.65-.68a.8.8,0,0,0-.59-.25l-.58,0-.48-.39L67.33,269v-4.35a1.79,1.79,0,0,1,.72-1.46,2.69,2.69,0,0,1,2.23-.27H73.4a4.1,4.1,0,0,0,2.13-.86,1.8,1.8,0,0,0-.3-.41l-1.42-1.33,1.7-.95a18.83,18.83,0,0,1,2.59-1.13,4.48,4.48,0,0,1,2.63-.11,2.34,2.34,0,0,0,1.07.06,1.5,1.5,0,0,0,.47-.17l.07-.54.71-.33a7.66,7.66,0,0,0,1.87-1.27.83.83,0,0,0,.12-.15l-.3-.47.28-.68a3.93,3.93,0,0,1,2.58-2.29,7.12,7.12,0,0,0,1.17-.33c0-.33.07-.93.07-2a10.13,10.13,0,0,0-.24-1.12c-.08-.34-.15-.63-.2-.88h-.52c-.06,0-1.53,0-2.62-.11a11.17,11.17,0,0,1-2.59-.62l-.2-.07a7.36,7.36,0,0,0-1.36-.17l-.92-.08a2,2,0,0,1-1.4-.77,3.63,3.63,0,0,1-.64-2.09l-.25-.1a13.46,13.46,0,0,0-1.36.09c-.44,0-.84.08-1.07.08s-.71.08-1.17.15a12.41,12.41,0,0,1-3.93.23,7.56,7.56,0,0,1-2.25-1l-.15-.09a22.42,22.42,0,0,0-2.41-1.29,2,2,0,0,0-1.41-.1,8.1,8.1,0,0,1-1.31.13,13.73,13.73,0,0,1-3.76-.28A5.81,5.81,0,0,1,56.47,240a2.63,2.63,0,0,1-1-2.51H53.19l1.5-2.1a3.9,3.9,0,0,1,1.42-1.5l.49-.22.57-.25a1.88,1.88,0,0,1-.08-.54,2.27,2.27,0,0,1,.41-1.23L54,231.48l1.74-2.13,1.34-1.64a4.35,4.35,0,0,1,.9-.83,1.66,1.66,0,0,0,.21-.17,6.65,6.65,0,0,1,1.41-1.23l.49-.37A6.87,6.87,0,0,0,61.24,224a7.71,7.71,0,0,0,.63-1.09,5.14,5.14,0,0,1,.8-1.28,1.91,1.91,0,0,1,1.9-.45l.26-.12c0-.15,0-.32,0-.4a2.53,2.53,0,0,1,.34-1.19,1.47,1.47,0,0,0,.19-.54.76.76,0,0,0-.06-.33l-1.76-.94-.2-.4a9.49,9.49,0,0,0-1.41-2,4,4,0,0,1-.88-3.77l.11-.4.31-.27c.3-.27,1-.92,1.39-1.15a4.58,4.58,0,0,1,2.62-.36c.91,0,1.87.07,2.56.16l.32,0a14.7,14.7,0,0,1,1.09-3.3,4.49,4.49,0,0,1,1.16-1.25,2.65,2.65,0,0,0,.69-.71,7,7,0,0,1,2-2,8.82,8.82,0,0,0,.82-.67c1.06-1.06,2.6-1.85,5.33-2.73l.69-.24a2.31,2.31,0,0,1,.45-1.39,6.75,6.75,0,0,0,.61-1.31,1.52,1.52,0,0,1-.44-.21c-.37-.25-.7-.47-1.35-3.17-2.15.17-2.47,0-2.78-.25a3.69,3.69,0,0,1-.65-.61,13.77,13.77,0,0,0-2-1.8c-.7-.53-.85-.56-1-.58a4.2,4.2,0,0,1-1.7-.72c-2-1.3-1.23-3-.8-3.84a8.78,8.78,0,0,0,.61-1.55c.23-.84.44-1.42.61-1.89a2.79,2.79,0,0,0,.28-1.69A4.32,4.32,0,0,1,73.48,176a5,5,0,0,0,.64-.81,4.76,4.76,0,0,0,.25-1.9,9.94,9.94,0,0,1,.11-1.61,2.05,2.05,0,0,1,1-1.46c1-.56,2.12-.13,3.4.36l.88.33a5.17,5.17,0,0,0,2.76-.06,12.17,12.17,0,0,1,1.41-.22,6.33,6.33,0,0,1,2.7.55,8,8,0,0,0,2.34.58l.76,0,.7,0a3.49,3.49,0,0,0,.46-.63,4.53,4.53,0,0,1,.74-1.14,9.07,9.07,0,0,0,.82-1.18,1.83,1.83,0,0,1,1.09-1,3.71,3.71,0,0,1,2.64.37l2.76.09,1.7-.28.48.36.56.43a2.28,2.28,0,0,1-.86-2,39,39,0,0,0-1.34-4c-.23-.55-.84-2,.16-2.95a1.79,1.79,0,0,1,1.43-.45l1.44-.63a7.78,7.78,0,0,1,1.95-.38,1.83,1.83,0,0,1,0-.2c-.11-.93.47-1.6,1.28-2.38l-.43-.28a22.83,22.83,0,0,0-2-1.22,2.15,2.15,0,0,1-1.21-1.33,2,2,0,0,1,.33-1.67l-.46-.21a3.51,3.51,0,0,0-.49-.19,2.65,2.65,0,0,1-2-2,4.14,4.14,0,0,1-.05-1.61,2.69,2.69,0,0,0,0-.73c-.07-.17-.38-.37-.61-.52l-.65-.43a2.39,2.39,0,0,1-1.23-1.79,2.08,2.08,0,0,0-.47-.2c-.08,0-.08,0-.28,0a4.57,4.57,0,0,1-1,0c-1.24-.18-2.34-1.15-3.59-3.13a3,3,0,0,1-.62-2.13c-.35-.35-.78-.73-1.05-1a6.1,6.1,0,0,1-1.27.13,6.82,6.82,0,0,1-3.82-1c-.1-.06-.16-.07-.72.08a4.46,4.46,0,0,1-2.74,0,2.88,2.88,0,0,1-2.09-2.76,2,2,0,0,0-.15-.7,7.26,7.26,0,0,0-.63-1,3.76,3.76,0,0,1-.7-1.3,11.05,11.05,0,0,1-.08-3.6c.06-.81.06-.81-.5-1.4-1.25-1.33-.87-2.7-.56-3.81.07-.24.14-.51.21-.8a6.93,6.93,0,0,0,0-2.18,11,11,0,0,1-.09-2,5.44,5.44,0,0,1-.55-.2A4.93,4.93,0,0,1,74,115l-.19-.28a20.25,20.25,0,0,1-2.13-.73l-.27-.11-.21-.21s-.58-.58-1-1.15a9.2,9.2,0,0,0-.81-.55,7.3,7.3,0,0,1-1.66-1.29,12.32,12.32,0,0,1-.78-1,6.76,6.76,0,0,1-1.16-1.14,3.56,3.56,0,0,1-.4-3,4.34,4.34,0,0,0,.09-.66c0-.06,0-.06-.06-.17a2.69,2.69,0,0,1,0-2.29l0-.12,0,0a3.39,3.39,0,0,1-.41-1.27,3.5,3.5,0,0,0-.14-.62h-.18c-.74.06-3.34.75-4.74,1.12l-1.6.41a54.29,54.29,0,0,0-5,2.9l1.33,5.67L50,111.5l-.25,0a4,4,0,0,0-.89,0c-.19,0-1.09.34-1.81.58s-1.79.59-2.57.83l.33.52a9.37,9.37,0,0,1,1,1.79,7.42,7.42,0,0,1,.13,3.95c0,.13,0,.25-.06.35-.34,2.38-4.23,1.85-4.4,1.82a5.06,5.06,0,0,1-2-1,7.19,7.19,0,0,0-1.18-.72,1.22,1.22,0,0,0-.29-.09h-.11a3.24,3.24,0,0,1-1.28-.07A1.83,1.83,0,0,1,35,117.26a16.14,16.14,0,0,0-1.37-1.71,15.37,15.37,0,0,1-2.33-4c-.4-1-.8-1.8-1.19-2.58a3.88,3.88,0,0,0-.45-.67,5.18,5.18,0,0,1-.85-1.43c-.56-1.48.37-3.2,1.11-4.58a3.43,3.43,0,0,1,2.83-1.74,2.32,2.32,0,0,0,.86-.23c.5-.32.5-.32.58-1.08v-.14c0-.33,0-.53-.73-1.24a9.45,9.45,0,0,0-.86-.72,5.12,5.12,0,0,1-1.32-1.31,2.37,2.37,0,0,1-.05-2.11,4,4,0,0,0,.26-1.42,9.63,9.63,0,0,0,0-1,7.84,7.84,0,0,1,.16-2.24l.1-.68a4.11,4.11,0,0,0,0-1.76l-.05-.37,0-.16a1.91,1.91,0,0,1-.61-.64,2.61,2.61,0,0,1-.34-1.1,3.79,3.79,0,0,1-1.84-2.15,6.12,6.12,0,0,1-.25-2.51c0-.18,0-.34,0-.5a6.12,6.12,0,0,0-1.13-.09A2.39,2.39,0,0,1,26,78.71a1.39,1.39,0,0,0-.25-.13c-1.53-.66-1.5-2.69-1.26-4.58.19-1.54,1.82-2,2.6-2.26l.28-.09a3.6,3.6,0,0,1,1.51-.25c.24,0,.53,0,.77,0,0-.18.06-.41.08-.59a12.34,12.34,0,0,1,.39-2.06,7,7,0,0,1,2.47-3.21,6.76,6.76,0,0,1-.53-.66l-.25-.33a3.1,3.1,0,0,1-1.46-1.68l-.22-.42a5.48,5.48,0,0,0-1.29,0l-.55,0-4.06,0c-.28,0-2.72-.51-3.39-2.5a14.25,14.25,0,0,0-1-2,9.61,9.61,0,0,1-.68-1.39,5.67,5.67,0,0,1-.19-2c0-.18,0-.37,0-.57a3.83,3.83,0,0,0-.47-1,4.38,4.38,0,0,1-2.35-2.59,8.85,8.85,0,0,1-.29-1.34c0-.07,0-.14,0-.19s0,0,0,0a5.49,5.49,0,0,0-1.79-1.34c-1.76-.66-1.25-2.49-1-3.37a9.28,9.28,0,0,0,.3-1.34c.08-.64.15-1.05.19-1.37s.08-.51.09-.73l-.15-.1c-1-.77-1.5-3.12-1.5-4.55a2.72,2.72,0,0,1,1.82-2.69,2.75,2.75,0,0,0,.72-.43,1.17,1.17,0,0,0,.23-.24c0-.06,0-.4-.06-.67s-.09-.76-.11-1.28a13.7,13.7,0,0,0-.81-4l-.05-.17c-.54-1.71-.78-4.21-.26-5.43A33.14,33.14,0,0,1,16,17.17l.07-.08a3.32,3.32,0,0,1,2.13-1.14,2.25,2.25,0,0,1,1.67.62c.18.17.36.36.53.55a4.61,4.61,0,0,0,.41.42l.13-.06,1-.56A8.82,8.82,0,0,1,24,16a2.63,2.63,0,0,1,1-.08,1.63,1.63,0,0,1,.85-.88c1.12-.5,2,.35,3,1.17a9.28,9.28,0,0,0,.87.74l.11.07a1.61,1.61,0,0,1,1.23,1c.06.12.14.3.28.58l.13.26v0a4.05,4.05,0,0,0,1.86,1.43l.17.08a8.89,8.89,0,0,0,1.44.62,5.54,5.54,0,0,0,.83-.3l.56-.23a13.3,13.3,0,0,0,2.53-1.35c.54-.34,1.16-.74,2-1.18a19.88,19.88,0,0,0,2.51-1.71c1.38-1,2.14-1.62,3.09-1.34a2,2,0,0,0,.69.1l.08-.22a4.71,4.71,0,0,1,1.67-2.64,3.32,3.32,0,0,0,.53-.41c0-.09,0-.21,0-.35a3.69,3.69,0,0,1,1.25-3c.54-.41.63-.52.71-.76,0,0,0-.05,0-.08a1.81,1.81,0,0,1,.84-1.78c1-.55,2,.08,3.42,1a10.42,10.42,0,0,1,2.12,1.91c.4.46.4.46,1.46.42a15.73,15.73,0,0,1,2.59.1c.59.07.59.07.84-.09a1.59,1.59,0,0,0,.44-.47,2.5,2.5,0,0,1,3.06-1,6.35,6.35,0,0,1,1.93.9c.45.29.51.31.69.29l1-.1a13,13,0,0,1,1.68-.11,5,5,0,0,1,1.3.2c.39.1.39.1.55,0l.7-.43a6,6,0,0,1,1.44-.73,4.75,4.75,0,0,0,.56-.26A2.46,2.46,0,0,1,78.22,7l.6.25.27.68a2.84,2.84,0,0,1,.06,1.17c0,.1,0,.26,0,.42a3.11,3.11,0,0,1,1.1.2,5.2,5.2,0,0,1,2.45,1.81A6.14,6.14,0,0,1,84.22,16a14.87,14.87,0,0,1-.27,1.58v0c.86.1,2.36.14,4,.19l1.7,0c1.07,0,2.49.07,3,1.31a9.39,9.39,0,0,0,1.46.25c3.78.43,4.6,1.66,5.22,3.11a3.36,3.36,0,0,0,.31.61l.18-.14a3.17,3.17,0,0,1,2-.89c1.72,0,2.39.86,3.16,1.86a6.56,6.56,0,0,1,.65,1.09c.08.16.21.4.31.56h0a7.39,7.39,0,0,0,1.52-1.18,2.33,2.33,0,0,1,2-.87l.25,0c2.53-.19,4,.69,4.37,2.59a4.76,4.76,0,0,0,1.29,2.36,7.12,7.12,0,0,1,.69.89,3,3,0,0,1,.44,1.52c0,.22,0,.26.35.57,0,0,.15,0,.23,0a2,2,0,0,1,1.72.15,2.13,2.13,0,0,1,.87,1.54c.13.89.16,1,1.08,1a15,15,0,0,1,3.34.35l2.76.69-2.21,1.79c-.77.63-1.47,1.63-1.4,2,0,.09.18.26.55.45a22.42,22.42,0,0,0,2.62-1.17,6,6,0,0,1,2.16-.79c1.72-.17,4.32,1.35,4.34,1.37l.1.07c.38-.2.63-.41.83-1.28a4.92,4.92,0,0,0-.14-1.49c-.16-.88-.5-2.71,1.13-3.17l.16-.09a1.85,1.85,0,0,1,1.47-.34,2.15,2.15,0,0,1,1.31,1,3.49,3.49,0,0,0,1.54,1.09,18.76,18.76,0,0,0,2.46-.75l1.77-.64.13,1.88a7.65,7.65,0,0,0,.27,1.56l.24,0a2.76,2.76,0,0,0,.92.09,6.81,6.81,0,0,0,1.21-.72l.43-.29A23.6,23.6,0,0,1,149,34.6a2.24,2.24,0,0,1,2.15-.92,20.68,20.68,0,0,0,2.3-.08l.26-.29c-1-1.85-3.49-7.53-3.88-9.44l-.08-.41c-.26-1.28-.47-2.29.42-3s2-.2,2.8.18h0c0-.13,0-.28,0-.46a3.87,3.87,0,0,1,1.27-2.87,3.24,3.24,0,0,1,2.32-.74,9.47,9.47,0,0,0,1.14-.74,8.19,8.19,0,0,1,2.8-1.5c.43-.09,1.05-.16,1.84-.24,1.55-.16,5.2-.55,6-1.41l1.09-1.16,1,1.22c2.42,2.88,7,10.64,10.33,16.31,1.65,2.8,3.35,5.7,3.81,6.29l.77.58-.4,1a20.11,20.11,0,0,1-1.17,2.46,4.41,4.41,0,0,0-.27.54,8.55,8.55,0,0,0,.43,1.36c.36,1,.66,1.61.91,2.14a5.51,5.51,0,0,1,.73,3.1c0,.34,0,.64,0,.92a5.74,5.74,0,0,1-.68,3,2.23,2.23,0,0,1-.77.76c.09.31.15.59.21.84.2.83.24,1,.74,1.38a12.74,12.74,0,0,1,3.3,3.7,4.66,4.66,0,0,0,.58.88c.19.25.41.53.68.94a4.09,4.09,0,0,1,1,2.75,1.23,1.23,0,0,0,.16.64c.12.31.29.73.5,1.42a9.66,9.66,0,0,0,.5,1.39l.18.13c.15.1.29.17.43.25a3.85,3.85,0,0,1,1.44,1.17,2.92,2.92,0,0,0,.46-.22l1.74-1,.58-.35.64.23a21.92,21.92,0,0,1,3.05,1.37,2.53,2.53,0,0,0,.48.08,2.64,2.64,0,0,1,2.52,1.88,2.32,2.32,0,0,0,.78.93,4.81,4.81,0,0,1,.89.93,12.8,12.8,0,0,0,1.59,1.83l.17.1.09-.07.15-.14a1.49,1.49,0,0,1,.75-1.09,1.79,1.79,0,0,1,1.7.1c.21.09.5.19.83.29,1.28.43,2.85.95,3.55,2.06,0-.09.07-.2.11-.32.89-3,1.43-4,2.33-4.42a1.67,1.67,0,0,1,1.42,0,2.83,2.83,0,0,1,.56.38,8,8,0,0,0,2.7,1.31c2.63.94,4.77,2.65,5.09,4.06a1.67,1.67,0,0,1-.43,1.58,7.19,7.19,0,0,1-1.75,1.26l-.1.05a13.61,13.61,0,0,0,1.72,1.79l.13.12a2.88,2.88,0,0,1,.81,1.86,2.62,2.62,0,0,0,.17.72,2.23,2.23,0,0,0,.59,0c2,0,2.76,3.43,2.76,4.31a3.57,3.57,0,0,1-.56,1.88A2.13,2.13,0,0,0,229,89a5.76,5.76,0,0,1-.44,1.31,2,2,0,0,0-.25,1,4.91,4.91,0,0,0,.47,1.57,4.3,4.3,0,0,1,.46,1.63,1.91,1.91,0,0,1,0,.38,10.56,10.56,0,0,1,2.05.73,5.75,5.75,0,0,0,.8.32,2.3,2.3,0,0,0,1.27,0l.52-.08.56-.05a2.39,2.39,0,0,0,1.15-.32c.52-.26.93-.5,1.32-.71s.75-.42,1.16-.63c.89-.44,2.26-1.08,3.16-1.48.28-.12.61-.25,1-.38a8.65,8.65,0,0,0,2.24-1.08,2.76,2.76,0,0,0,.48-.48,4,4,0,0,1,1.94-1.28c.46-.19.89-.31,1.29-.43,1-.29,1-.35,1.13-.62.18-.47.26-.68.31-.84s.15-.41.63-1.57a7.42,7.42,0,0,1,1.75-2.91l.26-.29.49-.53a6.39,6.39,0,0,0,1.52-2.13,23.64,23.64,0,0,1,2.36-3.95,7.75,7.75,0,0,1,.71-3.66,2,2,0,0,1,1.18-1.13c.14-.18.32-.43.56-.77a17.78,17.78,0,0,1,2.48-3.25l.37-.36c1.78-1.78,3.13-.64,4.11.2l.28.23a7,7,0,0,0,1.56,1,7.26,7.26,0,0,1,1,.6l.23.16a4,4,0,0,1,1.72,2.35,3.25,3.25,0,0,0,.64.87c.49.54,1.79,2,.44,3.48a3.81,3.81,0,0,1-1.14.85c0,.1,0,.23.1.4a3.28,3.28,0,0,0,1,1.43,2.59,2.59,0,0,1,1,2,2.2,2.2,0,0,1-.9,1.6c-1,.8-1.05,1-1.05,2a13.22,13.22,0,0,0,.11,1.44,6.94,6.94,0,0,1-.07,2.79,2.71,2.71,0,0,1-1.33,1.67,2,2,0,0,0-.69.64,8.85,8.85,0,0,0,2.86-.65,8.82,8.82,0,0,1,1.12-.36,18.48,18.48,0,0,1,3-.45s.06-.11.18-.35l.25-.49a8.38,8.38,0,0,1,.89-3.85,5.63,5.63,0,0,0,.43-2.06,4.29,4.29,0,0,1,1.28-3.26,3.73,3.73,0,0,0,.61-.74c.37-.54.94-1.39,2-1.33a2.43,2.43,0,0,1,1.89,1.25,9.07,9.07,0,0,1,1.08,2.68,8.22,8.22,0,0,0,.37,1.14l.36.11a1.88,1.88,0,0,0,1.69,0c.46-.21.91-.47,1.32-.7a7.74,7.74,0,0,1,1.75-.82,3.24,3.24,0,0,1,2.7-2h4.76c.86,0,2-.11,2.92-.19.57-.05,1-.1,1.4-.11l.26-.2a2.58,2.58,0,0,1,2.21-.76,2,2,0,0,1,1.32,1.16,2.19,2.19,0,0,0,1,.92,3.27,3.27,0,0,1,2.95-.77,5.63,5.63,0,0,0,1.47.24,4.89,4.89,0,0,1,.9-.7s2.7-1.67,4.19-.55c.41.3.79.59,2.79,7.57l.26.9-.73.59c-6.28,5.09-9.77,7.8-10.37,8.06a2.92,2.92,0,0,0-1.24,1.46c0,.19-.09.53-.16,1-.63,3.91-1.15,6.39-2,7.46-.22.3-.46.57-.69.83a2.72,2.72,0,0,0-1,2.43c.07.75.08,1.32.1,1.75,0,.11,0,.22,0,.32l1.82.78-.75,1.37c-.07.13-1.79,3.26-2.53,4.42a13.7,13.7,0,0,1-2.38,3.14l-.1.09a3.14,3.14,0,0,0,.48.4c1.1.69,2.31,1.87,1.89,4.91-.07.52-.19,1.12-.32,1.75a17.91,17.91,0,0,0-.42,2.8,1.86,1.86,0,0,0,.42-.14c1.22-.53,2,0,3,.81a14.61,14.61,0,0,1,1.34,1.24,3,3,0,0,0,1.75,1.07,17.82,17.82,0,0,1,5.31,2.25,3.23,3.23,0,0,1,1,1.66,1.71,1.71,0,0,0,.47.91,9.4,9.4,0,0,0,.9.62,6.16,6.16,0,0,1,2,1.74,6.45,6.45,0,0,0,1.82,1.29,1.52,1.52,0,0,1,.83.12c1.27.58.87,2,.55,3.19a30.54,30.54,0,0,0-.46,4.62c-.17,3-.29,4.73-.82,5.65-.2.34-.35.63-.48.89a6.4,6.4,0,0,1-1.56,2.14c-.75.66-.85.91-.69,1.64,0,.2.09.38.14.55.43,1.61.22,2.79-2.17,3.67a30,30,0,0,0-4.8,3.16c-1.39,1-1.67,1.23-2.07,1.34a6.76,6.76,0,0,1-2.38-.19c-1-.14-2.95-.42-4.45-.54,1.14,2.05,2.06,4.94,1.27,6.75-.7,1.59-.76,2-.63,2.69a2.92,2.92,0,0,1-.3,2.49,3,3,0,0,1-2.24.94,8,8,0,0,1-1.91-.16c-.2,0-.47-.08-.66-.1a3,3,0,0,1-1.63,1.42,2.31,2.31,0,0,0-.62.34c-.38.29-.8.55-1.21.81s-.64.4-.87.57c.14,1-.06,1.87-1.34,3-.53.49-1.16,1-1.77,1.44a13.85,13.85,0,0,0-1.73,1.46,4.09,4.09,0,0,0,.66,1.18l.58.73-.44.82a2.24,2.24,0,0,0,.05,1.76,2.38,2.38,0,0,0,.5.75c.74.82,1,1.56.61,3.35-.17.71-.32,1.18-.44,1.58a7,7,0,0,0-.35,2.75c0,.54,0,1,0,1.33.09,1.67,0,2.38-1.48,5-1.89,3.22-9.25,11.09-12.51,13.37-1,.69-1.85,1.22-2.55,1.64-1.52.92-2.14,1.33-2.4,2.09-.15.44-.31.86-.45,1.25a12.34,12.34,0,0,0-.41,1.18,27.38,27.38,0,0,0,3.08,1.72c1.42.61,1.48,2,1.54,3.2,0,.21,0,.44,0,.7s0,.54,0,.79a6.42,6.42,0,0,0,0,.71,2.4,2.4,0,0,0,.56.08c2.22.1,12.48.52,13.9.52a70.69,70.69,0,0,1,8.14.75c.63.13,4.49.52,8.23.89,5.27.53,10.73,1.08,12.33,1.38,2.88.53,4.55,1.62,5.12,3.32l.21.59a25.89,25.89,0,0,1,1.4,5.15l.11.83c.22,1.76.31,2.29.94,2.91a3.91,3.91,0,0,1,.45.53,6.93,6.93,0,0,1,2.9-.51,4.11,4.11,0,0,0,.55,0,4.64,4.64,0,0,0,.45-.39,2.32,2.32,0,0,1,2.05-.83c1.18.24,1.23.9,1.48,4.11.42,5.36,1.29,16.51,5.25,23.25l.06.12c1.44,3.1,1.37,4.71-.28,6.36a3.65,3.65,0,0,1-3.28,1.16l-.72,0a13.68,13.68,0,0,0-2.93.47l-1.26.35-.16-.43c-.3.21-.62.41-.9.58a3.18,3.18,0,0,1-1.33,3.06,4.78,4.78,0,0,1-1.93.67,2.74,2.74,0,0,0-.38.08l-.48.84a9.35,9.35,0,0,1-1.15,1.67,8.62,8.62,0,0,1-2.23,1.79,1.79,1.79,0,0,0-.38.39v.09a2.32,2.32,0,0,1-.82,1.77,3.92,3.92,0,0,0-.67,1,3.9,3.9,0,0,1,.2,3.16,1.68,1.68,0,0,1-1.42,1c-.47.1-2.39.77-3.94,1.36l-.69.26-.61-.42c-1.32-.9-2.89-2.27-2.89-3.65,0-.4-.65-2.15-1.86-2.2a39.26,39.26,0,0,1-7-1.19l-.67-.17a9.84,9.84,0,0,1-3.78-1.67,5.83,5.83,0,0,0-3.14-1.11c-1.27,0-1.75-1-2.07-1.72a10.18,10.18,0,0,0-.71-1.32l-.31.14a4.09,4.09,0,0,1-2.39.51,10.22,10.22,0,0,1-2.18-.61,4.2,4.2,0,0,0-1-.31c-.52,0-1.31,0-1.86.07l-.13.21c.65.92.28,1.71-.14,2.62a8,8,0,0,0,.48,3.52l.4,1.26-3.46,1.38-.62-.4a6.06,6.06,0,0,0-2.52-1.05,3.17,3.17,0,0,0-1.49.65,3.13,3.13,0,0,1-.39.82,1,1,0,0,0-.06,1.2c1.17,2.5,1.37,4.49.58,5.94-.12.23-.21.41-.28.56a3.78,3.78,0,0,1-1.9,2,4.5,4.5,0,0,0-.79.64,5.17,5.17,0,0,1-3.29,1.61,29.44,29.44,0,0,1-3.67.21h-.25a3.1,3.1,0,0,1-2.38-.92,29.51,29.51,0,0,1-2.51-2.44,3.4,3.4,0,0,0-.63.48l-.26.39a10.57,10.57,0,0,1-.73,1,2,2,0,0,0-.13.19,2.73,2.73,0,0,1-2.63,1.38,6.22,6.22,0,0,1-1.53-.17l-.22.39c-.18.31-.34.6-.48.81a3.94,3.94,0,0,1-1.78,1.32,11.7,11.7,0,0,0-1.24.65,4.49,4.49,0,0,0-1.48,1.27l-.24.29a1.93,1.93,0,0,1-.71.54,6.32,6.32,0,0,0,.41.94,3.78,3.78,0,0,1,.52,2,4.68,4.68,0,0,1-.74,2.57c-.08.14-.16.28-.24.44a3.18,3.18,0,0,1-.54.79c0,.1,0,.2.06.3a8.52,8.52,0,0,1,.21,2.71,6.59,6.59,0,0,1-1.52,4.28c-.32.43-.64.83-.92,1.19a12,12,0,0,0-1,1.39,1.5,1.5,0,0,1-1.56.87c-1.12-.15-1.32-1.19-1.49-2.11,0-.12-.06-.29-.09-.45a1.87,1.87,0,0,1-1-.64,3.58,3.58,0,0,1-.43-2.72l0-.35a18.12,18.12,0,0,1-2,0l-.87,0a3.2,3.2,0,0,1-1.84-.67c-.43-.29-.49-.33-.84-.22-1.38.43-4.25,1.33-5.92-1.83l-.6-1.12a16,16,0,0,1-1.57-3.59c-.13-.43-.21-.84-.29-1.21,0-.18-.09-.4-.13-.58-3.76.7-4.32.33-4.69.08a8.41,8.41,0,0,1-1-.9l-1-1,1.06-1a3.19,3.19,0,0,0,.72-1,2.37,2.37,0,0,0-.68-.46,2.09,2.09,0,0,1-1.32-2.12c0-.42,0-.75,0-1a4.27,4.27,0,0,0,0-.89,6,6,0,0,0-.86-1.36,6.09,6.09,0,0,0-.64,0h-1.2L215,307c0-.18-.07-.38-.11-.57a2.89,2.89,0,0,1-1,1.11,2.94,2.94,0,0,1-1.12.32l-.24,0a7.65,7.65,0,0,0-1,.49,1.81,1.81,0,0,1-.79.22c-.13.24-.25.43-.36.58a2,2,0,0,0-.34.69c-.06.21-.09.36-.13.49a7.27,7.27,0,0,1-.53,1.49c-.1.23-.17.44-.24.62a3.37,3.37,0,0,1-1.51,2,6.69,6.69,0,0,1-1.08.53c-.18.07-.42.17-.84.35a10.5,10.5,0,0,1-2.54.87l-.56.12a13,13,0,0,1-1.56.29,2.06,2.06,0,0,1-1.39-.36l-.25.17c-.33.24-.62.44-.88.6a3.17,3.17,0,0,1,.14,1.18,4.58,4.58,0,0,1-.83,2.62l-.07.11a5.92,5.92,0,0,0-.33.59,2.31,2.31,0,0,1-1.22,2.66,7.14,7.14,0,0,0-.93,1,1.5,1.5,0,0,1-.26.46c0,.09,0,.19,0,.32,0,.39,0,.67,0,.86l.1.16a3.06,3.06,0,0,1,.6,2.44,2.17,2.17,0,0,1-1.19,1.33,10.19,10.19,0,0,1-1.25.51,6.08,6.08,0,0,0-.82.33c-.51.27-1.19.55-1.73.78l-.47.2a1.87,1.87,0,0,1-2.29,0,11.31,11.31,0,0,1-1.2-.83l-.22-.17c-.18,0-.52-.05-.72-.07a5.11,5.11,0,0,1-1.08-.15,1.52,1.52,0,0,1-.85-.6l-.55-.18a18,18,0,0,1-2.89-1.18A9.85,9.85,0,0,0,179,329a6.48,6.48,0,0,0-1.56-.23,8,8,0,0,1-1.65-.23,10.3,10.3,0,0,0-1.8-.19,12.66,12.66,0,0,1-1.54-.14c-.3-.05-.64-.15-1-.25a6.64,6.64,0,0,0-1-.24l-.12.09a1.87,1.87,0,0,1-.81.45,9.58,9.58,0,0,1,.27,3.34,4.3,4.3,0,0,0,.15,1.24,7.83,7.83,0,0,1,.23,2.24,14.89,14.89,0,0,1-.78,4,1.72,1.72,0,0,1-1,1,2.3,2.3,0,0,1-2-.28,3.06,3.06,0,0,0-1.31-.41,5.77,5.77,0,0,0-3.33,1.05,7.73,7.73,0,0,1-4.59,1.12,13.13,13.13,0,0,1-2.39-.27,7.16,7.16,0,0,0-.73-.12c-.68,0-2.27-.35-2.59-.41l-2-.4.45-.7-.31-.08-2.54-.58-.22-.15c-.32-.21-.7-.45-.89-.55l-.15,0a5,5,0,0,0-2.33.13,5.05,5.05,0,0,1-3.2.07,1.73,1.73,0,0,0-.24-.06c-.29,0-1.22,0-1.77.06l-1.06,0a3.11,3.11,0,0,1-1-.2l-.22-.07a2.8,2.8,0,0,1-3.23-.34,3.09,3.09,0,0,0-1.18-.43l-.48-.12a1.77,1.77,0,0,1-.89-.67l-.72-.15a10.08,10.08,0,0,0-1.31-.24l-.13.33a8.11,8.11,0,0,1-.92,1.83,4.83,4.83,0,0,1-.81.92,1.7,1.7,0,0,1-.87,2.37,4.29,4.29,0,0,1-2.8.37c-.59-.08-1.13-.18-1.53-.26l-.45-.08c-.22,0-.58.11-.59.12l-.37.08h0a2.87,2.87,0,0,1-3.07,1.19c-.36-.06-.36-.06-.78.17l-.47.24A5.61,5.61,0,0,1,112.85,344.42Zm-.35-5.4.1.1a2.84,2.84,0,0,1,.91,2.1c0,.06,0,.12,0,.18l.59-.28.4-.21a3.43,3.43,0,0,1,2.55-.47,1.59,1.59,0,0,0,.29,0l0,0a1.06,1.06,0,0,0,.06-.12,2,2,0,0,1,2.38-1.17,4.35,4.35,0,0,1,.88-.12,5.56,5.56,0,0,1,1,.14c.37.07.87.16,1.41.24l.18,0a2.14,2.14,0,0,1,1-1.88,2.64,2.64,0,0,0,.57-.58,5.37,5.37,0,0,0,.62-1.26c.1-.25.2-.53.35-.85.81-1.82,3.13-1.28,4.37-1l.57.12a2.5,2.5,0,0,1,1.6.84,5.6,5.6,0,0,1,2.07.84l.28.18.15-.07a2.86,2.86,0,0,1,2.33,0l.2.06.81,0a18.77,18.77,0,0,1,2.17-.06,4,4,0,0,1,.77.16,2.32,2.32,0,0,0,1.59,0,7.75,7.75,0,0,1,3.6-.23l.12,0c.2,0,.57,0,1.88.87l2,.46a4.51,4.51,0,0,1,2.6,1.3c.59.1,1.19.2,1.44.22a9.77,9.77,0,0,1,1.06.16,10.73,10.73,0,0,0,1.88.23,5.32,5.32,0,0,0,2.94-.59,8.63,8.63,0,0,1,5-1.58,5,5,0,0,1,1.9.4,12.41,12.41,0,0,0,.29-2.08,5.12,5.12,0,0,0-.17-1.48,6.85,6.85,0,0,1-.21-2,6.65,6.65,0,0,0-.21-2.51,2.6,2.6,0,0,1-.07-1.72,1.78,1.78,0,0,1,.64-1.45,1.76,1.76,0,0,1,1.46-.32,3.68,3.68,0,0,1,.54-.31,4.16,4.16,0,0,1,2.94.13c.25.07.5.15.71.19a11.43,11.43,0,0,0,1.17.09,11.91,11.91,0,0,1,2.4.28,5.67,5.67,0,0,0,1.09.13,9.2,9.2,0,0,1,2.21.34,12.16,12.16,0,0,1,1.84.77,15.16,15.16,0,0,0,2.46,1,4.93,4.93,0,0,1,1.8.81H186a4,4,0,0,1,2,.45c.15.1.31.23.5.37s.39.3.61.45l.51-.22c.47-.2,1.1-.47,1.5-.68a8.39,8.39,0,0,1,1.2-.5l.36-.13,0,0-.18-.28a1.72,1.72,0,0,1-.33-1.3,8.31,8.31,0,0,0,0-.88,2.93,2.93,0,0,1,.72-2.32,7.81,7.81,0,0,1,1.71-1.84,3.56,3.56,0,0,1,.72-2.39l.07-.12a1.89,1.89,0,0,0,.43-1.26v0a2.63,2.63,0,0,1-.35-.42,1.68,1.68,0,0,1-.27-1.35,2.17,2.17,0,0,1,1.25-1.35,13.1,13.1,0,0,0,1.27-.82c1.25-.92,2.27-1,3.29-.38.31,0,.6-.12,1-.19l.6-.13a7.79,7.79,0,0,0,2-.68c.47-.21.74-.32.95-.4a4.08,4.08,0,0,0,.71-.35c.06,0,.08,0,.26-.54.09-.25.18-.52.32-.82a4.62,4.62,0,0,0,.37-1c0-.15.08-.32.14-.56a4.8,4.8,0,0,1,.71-1.5,4.47,4.47,0,0,0,.35-.59,2.1,2.1,0,0,1,2.07-1.28,10,10,0,0,1,1.17-.52,3.72,3.72,0,0,1,.87-.19h0l.07-.12a1.52,1.52,0,0,1,0-.22,2.52,2.52,0,0,1,1.17-1.82,2,2,0,0,1,2-.38c1,.39,1.63,1.67,2,3a3.12,3.12,0,0,1,.8.25,6.51,6.51,0,0,1,2.32,3.42,6.73,6.73,0,0,1,0,1.49c0,.19,0,.39,0,.63a5.22,5.22,0,0,1,1.24.94,2.56,2.56,0,0,1,.77,1.89,3.47,3.47,0,0,1-.37,1.45c.52-.06,1.23-.16,2.06-.31,2.64-.5,3.12,1.72,3.35,2.79.06.31.14.64.24,1a13.42,13.42,0,0,0,1.34,3l.62,1.15c.42.81.72,1,2.56.45a3.49,3.49,0,0,1,3.27.57,2.63,2.63,0,0,0,.32.2c.3,0,.61,0,.92,0a15,15,0,0,0,1.92,0l.4,0a2.22,2.22,0,0,1,2,.5c.68.7.56,1.6.36,3.1,0,.15,0,.27,0,.38a1.8,1.8,0,0,1,.52.27,1.73,1.73,0,0,1,.4.43l.51-.66a3.89,3.89,0,0,0,1-2.75,5.83,5.83,0,0,0-.15-1.92c-.06-.27-.12-.52-.15-.81a2,2,0,0,1,.73-2,.35.35,0,0,0,.13-.16c.1-.21.2-.39.3-.56a2,2,0,0,0,.38-1.18,1.05,1.05,0,0,0-.2-.65,9.11,9.11,0,0,1-.78-2,2.53,2.53,0,0,1,.2-2.29,1.79,1.79,0,0,1,1.46-.64h0a7.27,7.27,0,0,1,2.17-1.85,14.48,14.48,0,0,1,1.52-.8,4,4,0,0,0,.64-.34c.09-.14.22-.37.36-.62.68-1.2,1.38-2.43,2.7-2l.32.13a2.54,2.54,0,0,0,1.2.22h.21l0,0a4.73,4.73,0,0,1,.31-.45,8.17,8.17,0,0,0,.56-.79l.3-.45a7.74,7.74,0,0,1,2.61-1.93l1-.48.72.79a38.23,38.23,0,0,0,2.93,2.94c.25.19.38.29.45.33h.44a26.77,26.77,0,0,0,3.37-.2,2.4,2.4,0,0,0,1.65-.86,7,7,0,0,1,1.31-1c.59-.34.59-.34.77-.73.09-.19.2-.41.35-.69.24-.44.19-1.56-.66-3.37a3.66,3.66,0,0,1,.2-3.88,1.89,1.89,0,0,0,.14-.24c.33-1.16,1.51-2,3.49-2.51a5.9,5.9,0,0,1,3.75.85,7,7,0,0,1,.07-4l.11-.24c0-.08-.08-.17-.13-.26-.61-1.41.56-2.91,1.09-3.48l.39-.42.57,0c.07,0,1.71-.11,2.67-.11a5.78,5.78,0,0,1,2,.48,7.72,7.72,0,0,0,1.59.46,2,2,0,0,0,.79-.27,2.72,2.72,0,0,1,3.81.78,12.64,12.64,0,0,1,1,1.77l0,.11a8.94,8.94,0,0,1,4.17,1.56,7.2,7.2,0,0,0,2.89,1.28l.72.18A36.36,36.36,0,0,0,307,294.3c2.89.14,4.45,3.14,4.55,4.86a5.87,5.87,0,0,0,1.09,1.06c1.48-.55,2.42-.86,3-1a.85.85,0,0,0-.05-.18c-.35-.43-1.06-1.84,1-4.18v0a4.15,4.15,0,0,1,1.83-2.77,6.08,6.08,0,0,0,1.63-1.27,6.75,6.75,0,0,0,.82-1.21c.18-.31.37-.64.62-1a3,3,0,0,1,2.25-1.28,2.08,2.08,0,0,0,.86-.26,2,2,0,0,0-.07-.94l-.37-1.12,1-.57a14.31,14.31,0,0,0,2.17-1.42,1.89,1.89,0,0,1,1.76-.56,1.91,1.91,0,0,1,.89.48,13.93,13.93,0,0,1,2.7-.33l.86,0c.76,0,.76,0,1.13-.34.55-.55.8-.8-.25-3.1-4.27-7.3-5.17-18.84-5.6-24.4l0-.51a2.69,2.69,0,0,1-.81.22,6.83,6.83,0,0,1-.92,0,4.45,4.45,0,0,0-2,.4c-1,.4-1.59.62-2.28.24a1.65,1.65,0,0,1-.81-1.18.49.49,0,0,0-.19-.31c-1.34-1.34-1.51-2.69-1.75-4.56l-.1-.8a23.42,23.42,0,0,0-1.26-4.57l-.23-.66c-.26-.78-1.75-1.21-2.95-1.43-1.49-.28-7.37-.87-12.1-1.35s-7.78-.79-8.51-.93a69,69,0,0,0-7.58-.7c-1.49,0-11.72-.41-14-.52-3.25-.15-3.28-2.46-3.29-3.58,0-.21,0-.42,0-.64s0-.52,0-.75,0-.63-.06-.84a28.15,28.15,0,0,1-3.68-2.13c-1.5-1.12-.83-2.87-.29-4.28.13-.35.28-.73.41-1.13.6-1.79,1.93-2.59,3.62-3.62.7-.42,1.49-.9,2.4-1.54,2.91-2,10-9.62,11.69-12.48,1.17-2,1.16-2.2,1.09-3.39,0-.4,0-.87,0-1.48a9.67,9.67,0,0,1,.48-3.6c.11-.35.24-.76.39-1.38a4,4,0,0,0,.12-.71l-.08-.08a5.15,5.15,0,0,1-1-1.52,5.09,5.09,0,0,1-.28-3.35,3.93,3.93,0,0,1-.69-3.15c.32-1,1.25-1.71,2.74-2.84.56-.43,1.14-.87,1.57-1.26a2,2,0,0,0,.48-.55s0,0,0-.06a3.64,3.64,0,0,1-.07-.67c0-1.25,1.15-2,2.26-2.66.34-.21.69-.43,1-.65a5.07,5.07,0,0,1,1.27-.71l.16-.07s.05-.07.15-.25c.89-1.63,2.54-1.34,3.53-1.17a5.72,5.72,0,0,0,1.2.13v-.07a6.78,6.78,0,0,1,.82-4.36c.38-.87-.69-4.08-2-5.5a1.69,1.69,0,0,1-.35-2c.69-1.32,2.44-1.27,8.53-.41l1.29.18,1.08-.79a28.34,28.34,0,0,1,5.51-3.54l.44-.18,0-.1c-.05-.2-.11-.43-.17-.68a4.13,4.13,0,0,1,1.58-4.36,3.65,3.65,0,0,0,.92-1.31c.15-.3.33-.64.56-1a26.05,26.05,0,0,0,.44-4.38,30,30,0,0,1,.55-5.21l0-.06a8.54,8.54,0,0,1-2.81-2.17,3.47,3.47,0,0,0-1.16-1,11.84,11.84,0,0,1-1.15-.8,4.32,4.32,0,0,1-1.41-2.28c0-.12-.09-.29-.13-.37a17.28,17.28,0,0,0-4.15-1.64,5.69,5.69,0,0,1-3.06-1.83,12,12,0,0,0-1.1-1l-.38-.3a5,5,0,0,1-1.55.3,2.24,2.24,0,0,1-1.88-.76c-1.05-1.22-.64-3.29-.2-5.48.11-.56.22-1.11.29-1.57.22-1.62-.17-1.86-.59-2.12a8.82,8.82,0,0,1-2-2l-.66-.91.73-.85a11.89,11.89,0,0,1,1.33-1.32,13.1,13.1,0,0,0,1.76-2.45c.41-.64,1.17-2,1.73-3a2.94,2.94,0,0,1-.73-2.29c0-.39,0-.9-.08-1.57a5.44,5.44,0,0,1,1.69-4.56c.19-.21.38-.42.55-.66.36-.51.84-2.6,1.42-6.21.08-.49.14-.87.18-1.08a5.58,5.58,0,0,1,2.9-3.51c.55-.33,4.91-3.78,9-7.07-.56-1.91-1.18-3.91-1.55-4.91a4.1,4.1,0,0,0-.93.42,2,2,0,0,0-.44.33,2.47,2.47,0,0,1-.93.61,5.82,5.82,0,0,1-3.29-.16,7.2,7.2,0,0,0-.63.43l-.12.09a2.4,2.4,0,0,1-2.05.3,4.92,4.92,0,0,1-2.42-1.67,2.52,2.52,0,0,1-1.52.6c-.23,0-.81.05-1.36.11-1,.09-2.2.2-3.19.2H292.8a4.52,4.52,0,0,0-.36.58c-.27.48-.8,1.47-1.86,1.39-.22.09-.65.33-1,.51s-1,.55-1.52.8a4.57,4.57,0,0,1-3.7.12l-.47-.14c-1.42-.39-1.82-1.81-2.17-3.06-.1-.37-.21-.75-.34-1.1a4.85,4.85,0,0,1-.67.68,3.28,3.28,0,0,0-.25,1.31,8.15,8.15,0,0,1-.72,3.08,5.46,5.46,0,0,0-.58,2.72l0,.41-.6,1.21a3,3,0,0,1-2.72,1.92,16.35,16.35,0,0,0-2.38.38,6.29,6.29,0,0,0-.76.25,11.56,11.56,0,0,1-3.73.82c-.57,0-2.33.11-3.06-1.2s.26-2.72.58-3.19a4.77,4.77,0,0,1,1.56-1.48l.1-.06a5.13,5.13,0,0,0,0-1.68,15.6,15.6,0,0,1-.13-1.76,4.48,4.48,0,0,1,1.58-3.76A5.64,5.64,0,0,1,268.14,78c-.52-1.83-.17-2.89,1.2-3.63a5.53,5.53,0,0,1-1.16-1.73c-.29-.77-.31-.78-.68-1l-.27-.19a4.84,4.84,0,0,0-.66-.37,9.67,9.67,0,0,1-2.11-1.35l-.29-.25-.35-.29-.35.34a16.51,16.51,0,0,0-2.11,2.81,7,7,0,0,1-1.72,2,6.51,6.51,0,0,0-.21,2.25l.05.54-.32.44a24.27,24.27,0,0,0-2.3,3.71,9,9,0,0,1-2.09,3l-.46.5L254,85a4.87,4.87,0,0,0-1.23,2.08c-.45,1.09-.49,1.19-.59,1.47s-.14.39-.33.88a3.86,3.86,0,0,1-3,2.33c-.32.09-.66.19-1,.34-.65.26-.69.32-.81.46a5.49,5.49,0,0,1-.9.88,10.87,10.87,0,0,1-3,1.52c-.3.11-.58.22-.82.32-.9.4-2.23,1-3,1.42-.37.18-.69.37-1,.56s-.88.5-1.45.78a5.12,5.12,0,0,1-2.19.61l-.44,0-.42.06a5,5,0,0,1-2.54-.11,8.34,8.34,0,0,1-1.17-.46,8.14,8.14,0,0,0-1.93-.65,2.59,2.59,0,0,1-2-1.32,2,2,0,0,1,.2-1.83l-.18-.44a7,7,0,0,1-.69-2.67,4.75,4.75,0,0,1,.5-2.16,3.11,3.11,0,0,0,.25-.71,4.81,4.81,0,0,1,.6-1.51c.17-.31.2-.37.2-.48a4.31,4.31,0,0,0-.44-1.49,2.93,2.93,0,0,1-2.62-1.6,5,5,0,0,1-.44-1.59c0-.1,0-.2,0-.29a12,12,0,0,1-2.85-3.44,2.26,2.26,0,0,1-.09-2.09,1.94,1.94,0,0,1,1.64-.87,1.22,1.22,0,0,0,.23,0l.29-.17a8.86,8.86,0,0,0-2.81-1.58,15.69,15.69,0,0,1-2.68-1.18c-.16.42-.38,1.06-.66,2-.68,2.29-1.84,2.82-2.69,2.86a2.75,2.75,0,0,1-2.55-1.84,8.07,8.07,0,0,0-2-.87l-.29-.1a4.17,4.17,0,0,1-.46.43,2.52,2.52,0,0,1-3.36.3,11.91,11.91,0,0,1-2.65-2.79,4.25,4.25,0,0,0-.39-.37,4.92,4.92,0,0,1-1.59-2.11l-.2,0a3.8,3.8,0,0,1-1.62-.49,15.18,15.18,0,0,0-1.91-.87l-1.18.69c-2.47,1.44-3.74.1-4.17-.54-.08-.13-.16-.18-.5-.36s-.42-.23-.65-.38c-1-.69-1.26-1.28-1.81-3-.19-.6-.33-1-.44-1.23a3.93,3.93,0,0,1-.35-1.67c0-.45,0-.45-.49-1.18-.22-.34-.4-.57-.56-.77a7.32,7.32,0,0,1-.87-1.34,10.32,10.32,0,0,0-2.47-2.71,4.44,4.44,0,0,1-1.79-3c-.07-.3-.15-.63-.27-1a2.5,2.5,0,0,1,0-2.09,1.81,1.81,0,0,1,1.23-.83,5.44,5.44,0,0,0,.16-1.46c0-.3,0-.63,0-1a2.87,2.87,0,0,0-.47-1.71c-.25-.54-.6-1.28-1-2.35-.81-2.19-.81-2.74,0-4.25.19-.34.43-.78.72-1.42-.58-.87-1.59-2.57-3.68-6.12-2.94-5-6.86-11.66-9.27-14.93a21.1,21.1,0,0,1-6.44,1.35c-.65.07-1.26.13-1.55.19a6.88,6.88,0,0,0-1.75,1c-1,.74-1.93,1.37-2.94,1.26a.45.45,0,0,0-.33.08,1.33,1.33,0,0,0-.27.87c-.06,1.08-.13,2.42-1.22,3.06a2.43,2.43,0,0,1-2,.16,71,71,0,0,0,3.65,8.64,2.09,2.09,0,0,1,0,2.46l-.08.1-1.41,1.55-.56,0c-.83.07-2.18.15-3,.13l-.12.38-.49.08c-.64.3-1.81.88-2.2,1.14l-.38.26a9.26,9.26,0,0,1-1.71,1,4.24,4.24,0,0,1-2.56.09l-.56-.09c-1.11-.14-1.7-1.15-2-2.33a7.62,7.62,0,0,1-1.85.37,4.81,4.81,0,0,1-2.63-1.11,5.14,5.14,0,0,1,0,1.87,4.27,4.27,0,0,1-2.4,3.22,2.46,2.46,0,0,1-2.81-.25,7,7,0,0,0-2.55-1,4.69,4.69,0,0,0-1.16.5,25,25,0,0,1-3.48,1.5l-.47.16-.47-.17c-2.07-.74-2.68-1.94-2.83-2.82a3.78,3.78,0,0,1,.52-2.47h-.21c-2.52,0-3.39-1.32-3.73-2.6a2.77,2.77,0,0,1-2.09-.77,3.3,3.3,0,0,1-1.26-2.5,1,1,0,0,0,0-.17,6.4,6.4,0,0,0-.43-.53,7.52,7.52,0,0,1-1.93-3.66c0-.23-.09-.42-1.39-.32l-.38,0-.08.07a10.11,10.11,0,0,1-2,1.58,2.81,2.81,0,0,1-2.25.38,3.57,3.57,0,0,1-2-2.09,4.74,4.74,0,0,0-.35-.61c-.53-.68-.61-.78-.82-.79s-.24.18-.34.26c-.56.45-2.25,1.82-3.93,0a5,5,0,0,1-.94-1.56c-.29-.68-.48-1.13-2.93-1.4-1.88-.21-3.07-.54-3.59-1.51l-.64,0-1.69,0a23.55,23.55,0,0,1-5.44-.44C80.62,19.57,81,17.82,81.18,17a12.35,12.35,0,0,0,.23-1.29,3.4,3.4,0,0,0-.87-2.3l-.12-.15a2.44,2.44,0,0,0-1-.8l-.2-.06a3.32,3.32,0,0,1-.95.12,1.83,1.83,0,0,1-1.36-.59,2.53,2.53,0,0,1-.6-1.5,4.17,4.17,0,0,0-.69.39l-.76.47a3.19,3.19,0,0,1-2.72.31,2.38,2.38,0,0,0-.6-.11,10.06,10.06,0,0,0-1.36.09l-1.11.11a3.65,3.65,0,0,1-2.46-.74,3.62,3.62,0,0,0-1.12-.55h0a4.26,4.26,0,0,1-1.21,1.18,3.53,3.53,0,0,1-2.68.52A13.66,13.66,0,0,0,59.39,12c-2.16.09-2.83-.38-3.71-1.4a7.58,7.58,0,0,0-1.6-1.44L53.92,9a4.43,4.43,0,0,1-1.49,1.63,2.58,2.58,0,0,0-.12.87,6,6,0,0,1-.06.72,3.37,3.37,0,0,1-1.75,2.29,3.63,3.63,0,0,0-.57,1.24l-.12.34c-.51,1.41-1.89,2-3.65,1.67-.28.18-.71.51-1.06.77a22.13,22.13,0,0,1-2.9,2c-.73.39-1.27.73-1.79,1.06a16.14,16.14,0,0,1-3,1.59l-.53.22c-1.9.78-2.35.68-4.57-.38l-.17-.08c-2.42-1.16-3.14-2.53-3.35-3.13l-.09-.19a4.58,4.58,0,0,1-.51-.3,9.36,9.36,0,0,1-1-.82l-.18.16a2,2,0,0,1-1.92.18,2.05,2.05,0,0,0-.33-.08,6.57,6.57,0,0,0-1.42.67l-1.1.6a3,3,0,0,1-4-1l-.06-.07a36.64,36.64,0,0,0-2.16,3.15,8.21,8.21,0,0,0,.36,3.46l.05.17a16.29,16.29,0,0,1,.94,4.73c0,.45.06.8.1,1.11a3.25,3.25,0,0,1-1.08,3.33,5.37,5.37,0,0,1-1.4.88l-.2.09v0a6.51,6.51,0,0,0,.42,2.24,1.84,1.84,0,0,1,1.23,2,8.57,8.57,0,0,1-.14,1.58c0,.3-.11.69-.18,1.29a11.86,11.86,0,0,1-.38,1.75l-.07.26A8.63,8.63,0,0,1,18,46.89a2.85,2.85,0,0,1,.7,1.63,6.07,6.07,0,0,0,.21.95c.15.5.83.84,1.05.92l.43.15.27.38a6.26,6.26,0,0,1,1.18,3c0,.23,0,.45,0,.67a3.81,3.81,0,0,0,0,1.06c0,.14.3.6.48.93A16.23,16.23,0,0,1,23.55,59c.07.22.66.49,1.07.58h3.69l.28,0c1-.1,3.09-.3,4,1.27.13.24.25.46.35.65l.23.43a3.49,3.49,0,0,1,1.25,1.2,3.66,3.66,0,0,0,.31.4,6.6,6.6,0,0,1,1.12,1.77l.52,1.16-1.1.64a5.93,5.93,0,0,0-2.35,2.38,9.65,9.65,0,0,0-.29,1.61c-.13,1-.29,2.34-1.6,2.84a6.06,6.06,0,0,1-2,.29c-.18,0-.35,0-.48,0s-.35.13-.57.2a6.46,6.46,0,0,0-.64.22,6.48,6.48,0,0,0,0,1.48l.22.13h.1a9.15,9.15,0,0,1,1.63.13,1.48,1.48,0,0,1,1.13,0,2,2,0,0,1,1.12,1.67,7.52,7.52,0,0,1,.06,1.79,3.69,3.69,0,0,0,.09,1.39.91.91,0,0,0,.67.66,1.82,1.82,0,0,1,1.32,1.94,2.71,2.71,0,0,1,1,2l0,.36a6.36,6.36,0,0,1-.05,2.58l-.1.66a5.53,5.53,0,0,0-.14,1.57,11.9,11.9,0,0,1,.05,1.22A6.72,6.72,0,0,1,34,94.54l.41.33a11.73,11.73,0,0,1,1.12,1,4.21,4.21,0,0,1,1.55,3.52v.13a3.58,3.58,0,0,1-1.88,3.2,4.79,4.79,0,0,1-2,.64c-.66.1-.67.13-.76.28a7.52,7.52,0,0,0-.95,2.28,2.65,2.65,0,0,0,.43.66,6.58,6.58,0,0,1,.75,1.14c.4.79.85,1.69,1.29,2.8a12.88,12.88,0,0,0,1.81,3.21c1.8,2,2,2.65,2.07,3a3.38,3.38,0,0,1,1.43.29,9.11,9.11,0,0,1,1.74,1,6.36,6.36,0,0,0,.89.56,5.44,5.44,0,0,0,1.23,0,4.62,4.62,0,0,0,0-2.35,7.85,7.85,0,0,0-.69-1.22c-.68-1.07-1.39-2.18-.94-3.32a2.06,2.06,0,0,1,1.47-1.23c.8-.21,2.15-.66,3.23-1,1.32-.43,1.85-.6,2.14-.66a5.83,5.83,0,0,1,1.53,0l1.49-.35-1.15-4.87.85-.54c2.55-1.62,5.79-3.59,6.76-3.81l1.49-.38a44.46,44.46,0,0,1,5.23-1.2l2.19-.18.43.86a8.28,8.28,0,0,1,.76,2.44.66.66,0,0,0,.11.27,2.69,2.69,0,0,1,.13,2.44l-.06.19a3.14,3.14,0,0,1,.28,1.08,5.33,5.33,0,0,1-.13,1.4,5,5,0,0,0-.11.8,3.5,3.5,0,0,0,.68.64l.28.18.19.3a8.85,8.85,0,0,0,.7,1,7.4,7.4,0,0,0,1,.72,6.09,6.09,0,0,1,1.49,1.17c.21.26.46.53.63.71a13.12,13.12,0,0,0,1.6.53,2.73,2.73,0,0,1,1.73,1.42,2.68,2.68,0,0,0,.86,1,3.19,3.19,0,0,0,.65.19c1.78.37,1.82,1.63,1.66,2.68a7.2,7.2,0,0,0,.07,1.64,9.23,9.23,0,0,1,0,3.12c-.08.33-.16.64-.24.92-.26.94-.24,1-.11,1.1a3.68,3.68,0,0,1,1.26,3.56,10.59,10.59,0,0,0,0,2.61,1.47,1.47,0,0,0,.24.37,9.89,9.89,0,0,1,.85,1.3,4.46,4.46,0,0,1,.48,1.73c0,.11,0,.26,0,.35l.12,0a1.79,1.79,0,0,0,1.11-.09,3.49,3.49,0,0,1,2.88.21,4,4,0,0,0,2.39.64,3.43,3.43,0,0,0,.76-.09,2.33,2.33,0,0,1,1.63.13c.5.25,2.8,2.23,3.09,3.1l.19.59L94,139h0c1,1.64,1.55,1.77,1.55,1.77a1.83,1.83,0,0,0,.43,0,3.26,3.26,0,0,1,1.36.15,3.55,3.55,0,0,1,2.11,1.55,2.08,2.08,0,0,1,.28.78l0,0,.55.36a3.36,3.36,0,0,1,1.91,2.63,5.41,5.41,0,0,1,0,1.38,1.48,1.48,0,0,0,0,.51l.17.05a6.41,6.41,0,0,1,.86.34,3.93,3.93,0,0,0,.4.17,2.44,2.44,0,0,1,1.65,1.79,2.21,2.21,0,0,1-.07,1.6c.58.34,1.16.71,1.65,1l.85.54h0a1.56,1.56,0,0,1,1.88.71c.55,1-.26,1.84-.85,2.43l-.75.73-.33.32a3.18,3.18,0,0,1,.57,1.78v1.37l-1.37,0a19.93,19.93,0,0,0-3.23.31l-1.38.61a46.27,46.27,0,0,1,1.49,4.54l.09.34h0l.59.52c.56.48,1.73,1.49.88,2.77a8.07,8.07,0,0,1-1.87,1.68,2,2,0,0,1-2.59-.12c-.11-.11-.5-.42-.92-.75l-.78.13L95.47,171l-.29-.15a4.3,4.3,0,0,0-.48-.21c-.24.37-.53.75-.8,1.1s-.31.39-.39.52c-.25.56-1.13,2-2.19,2.23a4.08,4.08,0,0,1-1.72.08l-.76,0a10.6,10.6,0,0,1-3.16-.75,4.6,4.6,0,0,0-1.52-.39,9.85,9.85,0,0,0-1.08.18,7.69,7.69,0,0,1-4.26,0l-1-.36-.65-.25c0,.12,0,.24,0,.36a6.73,6.73,0,0,1-.6,3.21,7.19,7.19,0,0,1-1,1.35c-.58.64-.83,1-.78,1.3a5.49,5.49,0,0,1-.43,3c-.16.44-.34.94-.54,1.66a11.43,11.43,0,0,1-.79,2l-.13.28a1.39,1.39,0,0,0,.59.26,4.75,4.75,0,0,1,2.2,1.11,16.52,16.52,0,0,1,2.37,2.14h0c.52,0,1.52-.08,2.3-.17l1.27-.14.27,1.25c.17.79.4,1.71.58,2.34l.31-.08,2.45-.75-.66,2.47a17.91,17.91,0,0,1-1.56,4c.29,1.89-1.49,2.46-2.68,2.85-2.8.9-3.69,1.53-4.19,2a11,11,0,0,1-1.1.92,5.47,5.47,0,0,0-1.25,1.15,5.2,5.2,0,0,1-1.39,1.53,2.62,2.62,0,0,0-.48.45,12.17,12.17,0,0,0-.77,2.47c0,.07,0,.14,0,.21a2.06,2.06,0,0,1-1.75,2,5.79,5.79,0,0,1-1.7-.07,20.36,20.36,0,0,0-2.25-.13c-.36,0-.86,0-1.14,0l-.55.46a.9.9,0,0,0,.19.65,11.48,11.48,0,0,1,1.71,2.33l1.66.89.19.27a3.82,3.82,0,0,1,.67,2.55,4.23,4.23,0,0,1-.47,1.46l0,.06c0,.71-.1,2.19-1.41,2.72-.46.18-1,.46-1,.46l-.73.37-.17-.11a8.69,8.69,0,0,1-.94,1.55,9.57,9.57,0,0,1-1.55,1.54l-.6.45a7,7,0,0,0-.81.65,3.55,3.55,0,0,1-.8.75h0A1.92,1.92,0,0,1,61.06,231a3.1,3.1,0,0,1-.87,1.86l-.08.11a1.82,1.82,0,0,1-.49,2.33,6.53,6.53,0,0,1-1.49.88c0,.08.09.17.13.26a2.08,2.08,0,0,1,.08,1.48l.14.15c1.06,1.06,1.14,1.08,1.51,1.21a17.26,17.26,0,0,0,2.86.14,5.41,5.41,0,0,0,.87-.09,4.72,4.72,0,0,1,3,.32A25.14,25.14,0,0,1,69.44,241l.14.08a4.92,4.92,0,0,0,1.48.67,21.41,21.41,0,0,0,2.86-.28,13.93,13.93,0,0,1,1.56-.17c.18,0,.47,0,.79-.07a5.22,5.22,0,0,1,2.74.11,6.7,6.7,0,0,0,1,.31l1.23.31L81,243.25a4.74,4.74,0,0,0,0,.93l.32,0a8.59,8.59,0,0,1,2,.31l.21.07a8.55,8.55,0,0,0,2,.48c.54.05,1.22.08,1.7.09a1.79,1.79,0,0,1,1.69-.09l.21.08c.6.22,2,.74,2,2.17,0,.12.12.59.2.9a8.42,8.42,0,0,1,.32,1.79c0,2.82-.19,3.68-.94,4.18a7.71,7.71,0,0,1-2.57.93.71.71,0,0,0-.3.25,3,3,0,0,1-.94,2.57,9.84,9.84,0,0,1-2.18,1.58A3.49,3.49,0,0,1,82.39,261a5,5,0,0,1-2.23-.05A1.73,1.73,0,0,0,79,261l-.81.31a2.85,2.85,0,0,1,.16,1,2.59,2.59,0,0,1-1,2,6.79,6.79,0,0,1-4,1.57H70.16v2l1.44,1.31a3.55,3.55,0,0,1,2.25,1.18c.15.17.34.36.53.55.89.9,2,2,1.64,3.42-.15.61-.6,3.12-.78,4.21,0,.05,0,.11,0,.16l.3-.14a3.73,3.73,0,0,1,1.58-.51,2.72,2.72,0,0,1,1,.23,2.62,2.62,0,0,0,1.13.19c.75,0,1.21,0,1.67.05s.88.05,1.64.05l1.5,0a16.65,16.65,0,0,1,2.28,0,1,1,0,0,0-.71.27,1.19,1.19,0,0,0-.4.9h1.42l1.41-.17a7.36,7.36,0,0,0,.38,1.12,15.63,15.63,0,0,1,1.24,6.21c0,1.75,0,2.55.1,4.37a5.75,5.75,0,0,0,.64,2,7.68,7.68,0,0,1,.81,2.72,20.43,20.43,0,0,0,.95,4.11l.13.43a26.93,26.93,0,0,0,1.78,3.43,8.51,8.51,0,0,0,1.78,1.78,15.88,15.88,0,0,1,2.46,1.45l.33.22c.41.27.74.54,1,.78a5.09,5.09,0,0,0,.51.38h.16a3.07,3.07,0,0,1,1,.25c.91.36,1.31,1.11.9,3.89l1.77-.24a4.32,4.32,0,0,1,3.48.31l.83.59a9,9,0,0,0,1.73,1.08,3.69,3.69,0,0,0,2,0c1.08-.32,1.51-.43,1.51-.43l2.75-.68-1.1,2.61c-.72,1.69-2.63,6.22-2.87,6.87-.34.89-1.29,3.12-1.69,4a4.48,4.48,0,0,0-.19.86,5.07,5.07,0,0,1-1.24,3,5.46,5.46,0,0,1-4.62,1.34,5.85,5.85,0,0,1-1.18-.22l0,.19a4.07,4.07,0,0,1,2.18,1,4,4,0,0,1,.93,1.75l0,.16.6,0a3.33,3.33,0,0,1,1.43.11A17.81,17.81,0,0,1,111,336l.17,0a2,2,0,0,1,1.4.82,1.77,1.77,0,0,1,.2,1.42A4.17,4.17,0,0,1,112.5,339Zm33.67-.63h0Zm40.18-7.76,0,.1Zm-2.58-1.17,0,0Zm11.56-4.42v0Zm-2.75-.63a1.18,1.18,0,0,0-.05.2A1.34,1.34,0,0,1,192.57,324.42ZM217,308.16h0Zm-4.63-3Zm104.46-3.4h0Zm-5.3-2.68ZM82.32,258Zm6.84-6.2h0Zm-1.29-4.12h0Zm-10.14-3.77h0ZM59.86,233.28ZM286.69,189.2ZM93.5,172.32h0Zm.07-.17,0,.11Zm-2.93-.38h0Zm16.15-14.65h0Zm203.92-19.9ZM65.5,102.14Zm160.9-7.5Zm64.25-11Zm.21-2.79h0Zm23.2-1ZM211.35,75.21Zm-.05-.09h0Zm2.12-.81Zm-185,0h0Zm.17-.06Zm0,0h0Zm231.59-1.33h0Zm-53.8-.48,0,0ZM32.78,61.83h0ZM14.84,35.75Zm169.81-.34h0ZM109,26.33h0Zm.51-2.79h0Zm47-6.93ZM51.44,7.69Z"/></svg>