<svg id="Layer_1" data-name="Layer 1" xmlns="http://www.w3.org/2000/svg" viewBox="0 0 350 350"><defs><style>.cls-1{fill:#999;}.cls-2{fill:#f90;}</style></defs><title>M</title><path class="cls-1" d="M335,215.11a29.44,29.44,0,0,0-10.42-11.94c-2.28-1.53-2-2.63-.67-4.63a59.45,59.45,0,0,0,6.28-10.6c1.57-3.8,2.22-8,3.15-12.06.42-1.86.55-3.78.86-6-3.56,0-6.81-.31-10,.08-3.9.48-5.82-1.92-7.53-4.55-.56-.86-.33-2.5.06-3.6.17-.47,1.67-.51,2.57-.65,3.26-.51,6.53-.93,9.77-1.5a1.85,1.85,0,0,0,1.27-1.14,44.43,44.43,0,0,0,.3-6.59,2.49,2.49,0,0,0-1.51-1.84c-3.55-.55-7.13-1-10.71-1.23-1.92-.14-3.06-1-3.05-2.82a17.28,17.28,0,0,1,.76-3.79l-2-6,1.88-1.46a5.2,5.2,0,0,1-1-1.19c-.76-2.1-1.13-4.38-3.19-5.81-.17-.12.11-1.19.42-1.66,2.16-3.24,4.43-6.41,6.57-9.65,2.27-3.43,4.4-7,6.67-10.38,1-1.53,2.21-2.94,3.33-4.4l-.58-.52-9,7c.54,3.45.13,4.28-2.07,3.63-3-.89-5.82-1.57-8.27,1.21-.26.29-1,.13-1.28.16a23.24,23.24,0,0,1,.58,3.3c.07,2.36-1.74,1.1-2.77,1.34-2.84.65-6,.64-7.51,4-.28.59-1.71.83-2.64.9a45,45,0,0,1-12.32-1,24.27,24.27,0,0,0-16.1-2.37l-.72,0c-3.92-.22-7.54-1.21-9-5.56-.17-.49-.61-1.32-.86-1.3-3.36.31-5.4-2.22-7.87-3.7a26.49,26.49,0,0,1-5.08-4c-2.57-2.58-3.72-6.5-7.46-7.95a3.78,3.78,0,0,0-2.71-.2c-2.4,1.27-3.44.86-3.64-1.86-.22-3-.6-5.7-4.2-6.52A1.87,1.87,0,0,1,224,85.37c1-2.57,2.17-5.07,3-7.68.31-.91.38-2.42-.15-3-2.58-2.81-5-6.06-9.47-5.93-.59,0-1.17-.53-1.79-.64a83.63,83.63,0,0,0-9.4-1.6c-1.95-.14-3.95.8-5.94.85s-3.79-.45-4.37-2.93c-.38-1.67-4.43-5.86-6-6.69a2.45,2.45,0,0,1-.69-.47c-.45-.51-.86-1.06-1.29-1.59a7.48,7.48,0,0,1,1.86-.83c3.72-.56,7.45-1,9.83-1.35L170,49.87l-6.1,9.62A24.1,24.1,0,0,1,163,55c.09-4,.51-8,.53-11.93,0-1.28-.49-3.29-1.35-3.68a4.13,4.13,0,0,1-2.62-4.1c-.33-5.85-2.27-6.44-8.12-6.29.2,2,.32,4,.61,6s1,4.16,1.17,6.27a33.28,33.28,0,0,1-2.92,15.33,3.78,3.78,0,0,0-.36,2.39,10,10,0,0,1-2.25,10.55c-.92,1-1.72,2.18-2.69,3.17-1.31,1.35-1.71,2.62-.71,4.44,2.77,5.07,2.75,10.28.76,15.69a3.85,3.85,0,0,1-3.76,2.64A16.74,16.74,0,0,1,135.8,95c-2.75-.71-3.6,1.66-3.15,2.82,1.16,3-1.27,4.87-1.51,7.37-.19,2-1.73,3.19-4,2.74-4.33-.84-8.67-1.61-13-2.52-1.5-.32-2.77-.28-3.28,1a9.17,9.17,0,0,0-5.6,1.8l-3.54.61c-1.41-1.09-2.46-2.57-3.61-2.66-4.14-.33-8.31-.22-12.47-.19a2.34,2.34,0,0,0-1.78.83c-1.21,2.28-2.36,4.52-4.86,4.34-.92-1-1.6-2.4-2.49-2.55-2.65-.44-5.68-2.87-8,.18A20.75,20.75,0,0,1,58,116.29c-3.28,1.06-3.81,6.19-1.21,8.32-.48,1.31-.9,2.62-1.42,3.89-1.31,3.14-2.6,3.92-6,3.6-1.38-.13-2.75-.43-4.13-.58a10.79,10.79,0,0,0-1.68,0c-1.13-2.61-1.57-6.32-3.47-7.35-2.2-1.2-6.41-1.07-8.43.35-2.64,1.86-4.81,1.47-7.37,1.25-.92-.08-1.85.07-2.77,0-2.65-.12-3.74,1.2-3.48,3.74.23,2.24.71,4.46.74,6.7,0,1.65-.13,4.53-.86,4.76-3.33,1-2.67,4-3.82,6.13-1.48,2.7-.38,3.4,1,3.85a30.25,30.25,0,0,0,1.22,4.94c-3.76,5.59.42,11.74,5.65,13.88,4.73,1.93,2.84,3.07,1.91,6.89-.18.74-.32,1.49-.43,2.24v0a30.86,30.86,0,0,0,1.22,13.51A10.47,10.47,0,0,0,26,195.09c.33-.39.64-.78.94-1.19,1.85-2.54,9.31-1.25,11.95.83,1.64,1.29,4,1.63,6,2.39l-2.15,4.21.33.18,2-3.93c2,5.89,3.81,11,5.56,16,.15.42,0,1.05.27,1.31a7.54,7.54,0,0,1,1.87,3,1.53,1.53,0,0,0,.21.68v0c.06.23.13.47.18.7l.15,0a17.91,17.91,0,0,1,1,5.42,1.54,1.54,0,0,0,.77,1.19c.06.26.12.52.16.78a4,4,0,0,1-.43,0l-.16,0c.23.26.45.52.66.78,0,.09,0,.18,0,.27a1.52,1.52,0,0,0,.11.49c-.68,2.85-1.44,5.86-2.1,8.9.28-1.3.59-2.59.9-3.87l1.76.48a54.81,54.81,0,0,1-1.81,7.05,43.51,43.51,0,0,0,2-8.53c.28-3.09,2.65-5.11,5.53-4.05a10.21,10.21,0,0,0,2.35.69c2.22.24,3.12,1.31,3,3.6-.13,2.09.22,4.13,3.31,3.57a26.11,26.11,0,0,0,.73-2.55c.36-1.92,1.49-1.85,3.18-1.87a31.47,31.47,0,0,0,7.63-1.32c.54-.15.91-1.51,1.08-2.37.47-2.4,1.53-3.38,4.18-2.84,2.19.44,4.91,1,5.49-2.72,2.84,1.3,6.11.22,8.52,2.91.75.84,2.92.54,4.44.54,1.69,0,2.87.51,3.05,2.33s.89,3.69-1.47,4.69a21,21,0,0,0-2.38,1.51c1.59,1.24,3.14,2,4.07,3.28s1.2,3,1.86,4.76a21.26,21.26,0,0,1-3.27,1.79c-3.75,1.28-4.42,4.1-1.52,6.81.59.55,1.23,1,2.41,2-4.46,1.53-6.77,4.14-6.47,7.8,1.88,0,3.74.12,5.57.27a3.07,3.07,0,0,1,1.6,2.37c.76,4.35,1.9,8.64,2.6,13,.18,1.12-.7,2.4-1.07,3.61l0,0c3.2,1.14,2.46-2.1,3.43-3.29,5.25,1.25,5.47,1.62,4.18,6.72a11.86,11.86,0,0,0-.47,2.4c-.16,4.16-1.19,7.72-5.67,9.27-.25.09-.4,1.71-.13,1.88,1.94,1.21,4,2.14,6,3.35a3.38,3.38,0,0,1,1.45,2.1c.45,3.36.6,6.75,1,10.11a8.16,8.16,0,0,0,.44,1.65c-.41,1.12-.78,2.25-1.15,3.38a49.9,49.9,0,0,0-7,0,1.62,1.62,0,0,0-.68.23c2.8,3.15,8.5,4.43,11.89,1.88l3.15-2.37c3.51-2.64,5-6,4.33-9.88a56.13,56.13,0,0,1,6,0c3.07.31,4.39-.89,3.82-4-.71-3.83,2.67-6.36,3-9.85,0-.07.12-.15.2-.18,1.91-.87,1.77-2.62,1.79-4.26,0-3.65,0-7.31,0-11h.71l.37,2.34c5.28-.22,8.13-4,11.33-7.13,2.37-2.3,3.94-2.61,6.17-.18,1.71,1.87,3.34,2.35,5.54,1a5.47,5.47,0,0,1,2.29-.56c1.33-.14,2.67-.13,4-.27s2.55-.34,3.81-.56a73.81,73.81,0,0,0,7.54-1.41c1.24-.35,2.24-1.49,3.41-2.18,3.4-2,7.07-3.64,10.18-6,3.4-2.59,6.64-3.88,11-2.68,1.56.44,2,.65,1.8,2.18a3.48,3.48,0,0,0,3.21,4.32c1.71.26,3.46.22,5.52.33-1-2.48-.85-4.69,1.6-5.3,4.08-1,8.31-2.15,12.46-2.06,8,.18,13.22-4.49,18.6-9.13,4.12-3.55,7.84-7.58,12.15-10.87a6.47,6.47,0,0,0,2.81-4.16l1.07-1a35.29,35.29,0,0,1-.31,4.49,14.51,14.51,0,0,0,1.15-1.07,3.88,3.88,0,0,0,.77-1.15c2.41-6.87,8.28-10.15,14.41-12,4-1.2,7-3.26,10.19-5.58a13.33,13.33,0,0,1,2.7-1.36L307.63,231c3.24-2.42,6.08-4.48,8.84-6.63,5.12-4,10.17-8.07,17.34-6.92a9.46,9.46,0,0,0,2.15-.22C335.59,216.4,335.33,215.75,335,215.11Z"/><path class="cls-2" d="M119.42,322.47a11.87,11.87,0,0,1-8.57-3.7l-1.17-1.31,1.53-.86a3,3,0,0,1,1.29-.41,52.9,52.9,0,0,1,6.11-.05q.32-1,.65-1.9a8.78,8.78,0,0,1-.34-1.46c-.22-1.7-.38-3.43-.53-5.1s-.3-3.36-.52-5a2,2,0,0,0-.8-1.08c-.93-.58-1.89-1.09-2.91-1.62s-2.07-1.09-3.08-1.73c-.66-.41-.92-1.22-.78-2.47,0-.44.18-1.6,1.19-2,3.22-1.11,4.54-3.35,4.72-8a11.07,11.07,0,0,1,.42-2.36l.09-.34c.32-1.29.81-3.24.53-3.71a5.8,5.8,0,0,0-2.5-1l0,.17a3.91,3.91,0,0,1-1.7,2.79,3.6,3.6,0,0,1-3,0l-3.25-1.16,2.63-1.23c.1-.25.2-.49.31-.73a4.31,4.31,0,0,0,.5-1.63c-.37-2.32-.88-4.67-1.37-6.95-.43-2-.87-4-1.22-6a1.73,1.73,0,0,0-.66-1.23c-1.54-.12-3.23-.2-5.15-.24l-1.28,0-.1-1.27c-.21-2.6.59-6,5.18-8.32-.24-.2-.46-.39-.67-.59-1.76-1.65-2.53-3.51-2.16-5.24s1.86-3.15,4.19-3.94a10.13,10.13,0,0,0,1.95-1l.07,0-.19-.62a9.21,9.21,0,0,0-1.1-2.67,9.53,9.53,0,0,0-2.24-1.88c-.5-.35-1-.71-1.55-1.12l-1.58-1.23,1.69-1.08c.41-.26.74-.49,1-.68a9,9,0,0,1,1.57-.93c.88-.37,1-.66.72-2.38,0-.29-.08-.58-.11-.86-.06-.61-.1-1-1.65-1.05l-1,0c-1.64.06-3.49.12-4.53-1s-2.49-1.43-4.23-1.65a19.69,19.69,0,0,1-2.26-.38,4.2,4.2,0,0,1-1.47,1.91c-1.61,1.13-3.59.73-5.18.4a2.87,2.87,0,0,0-1.86,0,2.66,2.66,0,0,0-.74,1.67c-.41,2.12-1.06,3.18-2.1,3.46a33,33,0,0,1-8,1.37h-.19c-1.48,0-1.48,0-1.61.71a15.55,15.55,0,0,1-.53,1.95c-.08.25-.16.5-.23.75l-.25.84-.86.16a4.25,4.25,0,0,1-3.74-.75c-1.28-1.14-1.32-3-1.24-4.3.1-1.53-.24-1.95-1.71-2.1a9.62,9.62,0,0,1-2.35-.65l-.33-.12a2.44,2.44,0,0,0-2.21.15,3.48,3.48,0,0,0-1.42,2.7c0,.11,0,.22,0,.33h0l0,.21a44.18,44.18,0,0,1-1.84,7.66l-.18.61-2.71-.82.07-.25c.29-1,.59-1.94.86-2.92l-1.8-.39.09-.4c.47-2.14,1-4.25,1.48-6.3l.45-1.86c0-.07,0-.15,0-.24l-.23-.26-2.25-2.61,1.51.05a3.19,3.19,0,0,1-.06-.38c0-.33-.06-.66-.09-1a21.91,21.91,0,0,0-.35-2.65l-.32.14-.35-1.74c0-.14-.07-.29-.11-.43v0a2.87,2.87,0,0,1-.28-.9A6.05,6.05,0,0,0,49.9,216a2.36,2.36,0,0,1-.62-1.65,1.8,1.8,0,0,0,0-.25c-1.34-3.9-2.71-7.83-4.21-12.15l-.26-.74-1.18,2.29-2.8-1.55,2-3.95-.31-.09a13.17,13.17,0,0,1-4.56-2A13.11,13.11,0,0,0,29.84,194a2.79,2.79,0,0,0-1.8.75c-.31.43-.65.84-1,1.26l-1.23,1.48-1-1.62a11.78,11.78,0,0,1-1.43-3,32.23,32.23,0,0,1-1.28-14v-.11c.13-.86.28-1.64.45-2.36a23.08,23.08,0,0,1,.7-2.27c.69-2,.69-2-1.77-3a13.06,13.06,0,0,1-7.55-7.91,9.15,9.15,0,0,1,.85-7.41,36.13,36.13,0,0,1-.87-3.76,3.18,3.18,0,0,1-1.7-1.67c-.56-1.39.12-2.9.67-3.91a7.67,7.67,0,0,0,.59-1.79c.4-1.63.94-3.83,3.63-4.86a14.68,14.68,0,0,0,.29-3.54,32.13,32.13,0,0,0-.41-4.12c-.12-.82-.23-1.63-.32-2.45a4.89,4.89,0,0,1,1.06-4,4.84,4.84,0,0,1,3.89-1.28,11.37,11.37,0,0,0,1.14,0,12.37,12.37,0,0,1,1.68,0l.66.06c2.2.2,3.79.35,5.77-1.05,2.4-1.69,7.22-1.91,9.92-.44,1.82,1,2.54,3.31,3.24,5.56.17.54.34,1.08.52,1.6.27,0,.57,0,.87,0,.68.07,1.36.18,2,.29s1.39.22,2.07.29c2.75.26,3.48-.17,4.54-2.73.34-.83.64-1.67,1-2.57l.15-.42a6.75,6.75,0,0,1-1.31-5.5,5.67,5.67,0,0,1,3.71-4.53,19.33,19.33,0,0,0,9.84-7.07c2.33-3.07,5.41-2,7.44-1.28a12.26,12.26,0,0,0,1.9.56,4.32,4.32,0,0,1,2.55,2.05l.34.45c1.08-.21,1.8-1.35,2.93-3.47l0-.09a3.68,3.68,0,0,1,3-1.58l1.7,0c3.57,0,7.26-.08,10.9.21a5.55,5.55,0,0,1,3.17,1.9c.24.22.48.45.73.67l2.56-.44A10.53,10.53,0,0,1,110,105c.86-1.08,2.33-1.41,4.4-1,2.76.58,5.59,1.12,8.33,1.63l4.63.88a2.22,2.22,0,0,0,1.75-.23,1.74,1.74,0,0,0,.59-1.25,9.4,9.4,0,0,1,1-3.13c.69-1.47,1.06-2.36.58-3.6a3.74,3.74,0,0,1,.73-3.68,4,4,0,0,1,4.09-1,15.29,15.29,0,0,0,5,.39c1.48-.13,2.12-.56,2.55-1.72,2-5.34,1.75-10.09-.67-14.52a4.69,4.69,0,0,1,.94-6.11c.52-.54,1-1.13,1.51-1.76.37-.46.74-.92,1.13-1.35a8.6,8.6,0,0,0,2-9.15A4.82,4.82,0,0,1,149,56a31.71,31.71,0,0,0,2.81-14.68,22,22,0,0,0-.62-3.47c-.2-.87-.41-1.76-.55-2.68-.21-1.41-.34-2.84-.46-4.22-.05-.6-.11-1.21-.17-1.82l-.15-1.52,1.52,0c5.67-.14,9.15.3,9.57,7.63.09,1.63.51,2.31,1.79,2.89,1.8.82,2.18,3.87,2.18,5,0,2.24-.15,4.49-.28,6.67-.1,1.74-.21,3.53-.25,5.29a4.31,4.31,0,0,0,.08.89l4.78-7.54,41.55,5.08L198,55.15c-2.22.29-5,.66-7.75,1.07l.09.11.27.15c1.75.94,6.2,5.4,6.72,7.64.28,1.21.85,1.9,2.94,1.83a13,13,0,0,0,2.42-.4,12.61,12.61,0,0,1,3.66-.45,56.88,56.88,0,0,1,7.24,1.16l2.33.46a4.35,4.35,0,0,1,1.18.45,3,3,0,0,0,.39.18c4.67-.14,7.32,2.88,9.71,5.55l.76.84c1,1.13.84,3.26.45,4.41-.56,1.65-1.23,3.26-1.88,4.82-.4,1-.81,1.94-1.19,2.92a1,1,0,0,0-.08.68.67.67,0,0,0,.41.21c4.82,1.09,5.11,5.13,5.31,7.8a3.71,3.71,0,0,0,.23,1.23,4.13,4.13,0,0,0,1.33-.52,5.09,5.09,0,0,1,3.88.13c2.83,1.1,4.39,3.39,5.76,5.41a19.45,19.45,0,0,0,2.2,2.86,25,25,0,0,0,4.81,3.82,24.1,24.1,0,0,1,2,1.4c1.64,1.22,3.06,2.28,5,2.1,1.38-.15,2.09,1.54,2.33,2.26,1,3,3.27,4.35,7.76,4.6l.53,0a25.84,25.84,0,0,1,16.71,2.45,42.59,42.59,0,0,0,11.72.93,5.63,5.63,0,0,0,1.57-.3c1.63-3.24,4.61-3.8,7-4.25.45-.08.91-.17,1.36-.27a4.06,4.06,0,0,1,1.58,0h.09a11.36,11.36,0,0,0-.32-1.9c-.08-.37-.17-.75-.24-1.15l-.28-1.52,1.54-.14a3.5,3.5,0,0,1,.51,0h.12c3.09-3.21,6.76-2.13,9.46-1.33l.46.11a10.72,10.72,0,0,0-.19-2.16l-.13-.83,10.64-8.26,2.43,2.18-.79,1c-.35.46-.71.92-1.07,1.37-.79,1-1.54,1.94-2.2,2.95-1.14,1.72-2.24,3.46-3.34,5.2s-2.2,3.47-3.33,5.18-2.32,3.43-3.49,5.14c-1,1.5-2.07,3-3.08,4.52a1.39,1.39,0,0,0-.11.25,10.19,10.19,0,0,1,2.64,4.81c.12.38.25.77.38,1.14l.26.26c.15.16.31.32.46.51l.94,1.13-2.26,1.75,1.77,5.41-.08.38c-.07.3-.16.64-.26,1a9.83,9.83,0,0,0-.47,2.48c0,.54,0,1.28,1.74,1.41,3.59.26,7.23.68,10.82,1.24a3.82,3.82,0,0,1,2.71,3.18,45.93,45.93,0,0,1-.31,6.8,3.15,3.15,0,0,1-2.44,2.39c-2.08.36-4.19.67-6.24,1l-3.56.53-.73.09c-.23,0-.6.07-.87.12a3.23,3.23,0,0,0-.06,1.86c1.87,2.87,3.33,4.26,6.17,3.92a45.74,45.74,0,0,1,6.93-.15c1.05,0,2.12.06,3.23.06h1.63l-.22,1.61c-.1.72-.18,1.41-.26,2.07a37.93,37.93,0,0,1-.63,4.1c-.22.95-.42,1.9-.62,2.86a53.3,53.3,0,0,1-2.6,9.42,59.07,59.07,0,0,1-6.25,10.62l-.17.25c-.71,1-.82,1.45-.79,1.61s.14.41,1.07,1a30.85,30.85,0,0,1,10.91,12.51h0c.21.44.4.88.61,1.39l1.1,2.54-1.91.21c-.28,0-.54.07-.77.11a5.26,5.26,0,0,1-1.76.09c-6.44-1-11.07,2.59-16,6.42l-.28.22c-1.88,1.47-3.81,2.9-5.85,4.41l-3,2.24-1.3,1-7.25-13.05a6.91,6.91,0,0,0-1.24.7,33.59,33.59,0,0,1-10.62,5.8c-7.31,2.18-11.59,5.7-13.48,11.09a5,5,0,0,1-1,1.59,7.69,7.69,0,0,1-.85.82l-.44.39-2.9,2.65.41-2.9a12.13,12.13,0,0,1-1.16,1,93.73,93.73,0,0,0-7.25,6.39c-1.56,1.47-3.17,3-4.83,4.42l-.33.29c-5.34,4.61-10.83,9.39-19.22,9.19-3.64-.1-7.47.87-11.17,1.79l-.91.23c-.72.18-.88.49-.93.6a3.87,3.87,0,0,0,.32,2.81l.8,2-2.19-.12-1.86-.07a31.29,31.29,0,0,1-3.8-.27,4.89,4.89,0,0,1-4.4-5.91,3.69,3.69,0,0,0,0-.38c-.23-.09-.63-.21-.81-.25-3.43-1-6.16-.28-9.71,2.44a51.84,51.84,0,0,1-6.94,4.24c-1.12.6-2.28,1.23-3.38,1.88a11,11,0,0,0-1.11.8,7.85,7.85,0,0,1-2.63,1.53,49,49,0,0,1-5.72,1.13l-2,.32c-1.32.22-2.61.44-3.91.57-.67.07-1.35.1-2,.13s-1.31.06-2,.13l-.15,0a4.34,4.34,0,0,0-1.53.33c-2.66,1.69-5.05,1.3-7.34-1.19-.74-.81-1.35-1.22-1.82-1.23s-1.29.46-2.33,1.47c-.47.45-.92.92-1.38,1.39-2.68,2.73-5.7,5.81-10.6,6.13,0,2.41,0,4.83,0,7.24v.34c0,1.49,0,3.67-2.09,4.93a14,14,0,0,1-1.59,4c-.88,1.66-1.64,3.1-1.33,4.81.36,1.94.07,3.43-.85,4.43s-2.43,1.43-4.52,1.22a35,35,0,0,0-4.2-.07h-.1c.14,3.72-1.58,7-5.05,9.63l-3.15,2.37A8.63,8.63,0,0,1,119.42,322.47Zm-3.57-3.57c2.33,1,5.17,1.12,7.1-.33l3.15-2.37c3.1-2.33,4.38-5.19,3.78-8.5l-.3-1.65,1.68,0,1.63,0a36.89,36.89,0,0,1,4.55.08,2.88,2.88,0,0,0,2.15-.32,2.61,2.61,0,0,0,.14-2c-.5-2.68.62-4.79,1.61-6.65a10.05,10.05,0,0,0,1.37-3.59,1.67,1.67,0,0,1,1-1.34c.83-.38.95-.9,1-2.63v-.36c0-2.59,0-5.18,0-7.76v-4.59l3.33,0,.35,2.22c3.23-.58,5.42-2.81,7.72-5.16.48-.48,1-1,1.43-1.44,1.19-1.15,2.63-2.31,4.38-2.27a5.68,5.68,0,0,1,3.82,2.15c1.37,1.49,2.24,1.66,3.73.72a6.26,6.26,0,0,1,2.75-.75l.14,0c.71-.08,1.42-.11,2.13-.15s1.25-.06,1.87-.12c1.21-.12,2.45-.33,3.72-.54l2-.32a46.09,46.09,0,0,0,5.39-1.05,5.66,5.66,0,0,0,1.66-1,13.26,13.26,0,0,1,1.41-1c1.14-.67,2.33-1.31,3.47-1.93a48.94,48.94,0,0,0,6.57-4c3-2.29,6.79-4.42,12.2-2.92,1.75.49,3.17,1.11,2.82,3.74-.22,1.64.4,2.49,2,2.73a28.26,28.26,0,0,0,3.42.24,4.94,4.94,0,0,1,.38-3.14,4,4,0,0,1,2.77-2l.91-.22c3.88-1,7.9-2,11.92-1.87,7.3.18,12.14-4,17.31-8.5l.33-.29c1.61-1.39,3.2-2.89,4.74-4.34a95.8,95.8,0,0,1,7.48-6.58,5.08,5.08,0,0,0,2.27-3.29l.08-.46,3.83-3.57,0,2.46c2.58-4.81,7.25-8.18,14.19-10.24,3.85-1.15,6.7-3.11,9.75-5.37a11.57,11.57,0,0,1,2.58-1.35l.34-.14,1.21-.59,6.94,12.5,1.72-1.27c2-1.5,3.94-2.92,5.79-4.37l.28-.21c5.14-4,10.44-8.16,18-7l-.15-.32h0a28.06,28.06,0,0,0-9.93-11.37,4.74,4.74,0,0,1-2.28-2.86,5.09,5.09,0,0,1,1.23-3.75l.17-.25a57,57,0,0,0,6-10.09,51.23,51.23,0,0,0,2.45-8.92c.21-1,.41-1.94.63-2.91a35.09,35.09,0,0,0,.58-3.79l.06-.54-1.7,0a43.68,43.68,0,0,0-6.51.13c-4.72.57-7.06-2.37-8.89-5.18-1.12-1.72-.27-4.34-.09-4.85.42-1.19,1.77-1.35,3.07-1.5l.62-.08,3.59-.54c2-.3,4.12-.6,6.16-1l.13-.12a42.24,42.24,0,0,0,.27-6.15,2.06,2.06,0,0,0-.44-.52c-3.47-.54-7-.94-10.47-1.2C315.6,150,314,148.49,314,146a12.16,12.16,0,0,1,.57-3.23l.13-.49-2.15-6.56,1.49-1.16a2.55,2.55,0,0,1-.25-.5c-.15-.41-.28-.83-.42-1.24-.52-1.61-1-3-2.25-3.89-1.51-1,0-3.58.05-3.61,1-1.53,2.06-3,3.11-4.56,1.17-1.69,2.33-3.38,3.46-5.09q.79-1.19,1.56-2.4a4.1,4.1,0,0,1-2.47-.1c-3-.89-5-1.28-6.81.79a1.81,1.81,0,0,1-.64.46,11.36,11.36,0,0,1,.28,2,3,3,0,0,1-.82,2.37,2.92,2.92,0,0,1-2.55.46,3.4,3.4,0,0,0-.53-.06c-.46.11-.95.2-1.44.29-2.53.47-4.13.87-5.07,2.87-.17.36-.69,1.47-3.81,1.71a45.59,45.59,0,0,1-12.71-1l-.22,0-.2-.11a22.74,22.74,0,0,0-15.09-2.22l-.2,0-.92-.05c-3.83-.21-8.46-1.15-10.28-6.52a3,3,0,0,0-.13-.31c-2.62,0-4.52-1.43-6.21-2.68-.61-.46-1.19-.89-1.78-1.24a27.69,27.69,0,0,1-5.36-4.25,21.92,21.92,0,0,1-2.54-3.27c-1.25-1.84-2.43-3.58-4.43-4.36a3.12,3.12,0,0,0-1.55-.26c-1.17.62-2.71,1.25-4,.52s-1.58-2.37-1.67-3.53c-.24-3.25-.72-4.7-3.1-5.24a3.28,3.28,0,0,1-2.29-1.64,3.62,3.62,0,0,1-.06-3c.39-1,.8-2,1.22-3,.63-1.51,1.29-3.08,1.81-4.63a3.12,3.12,0,0,0,.09-1.66c-.21-.21-.46-.5-.72-.79-2.22-2.47-4.14-4.61-7.39-4.61h-.21a3.9,3.9,0,0,1-1.67-.48,3,3,0,0,0-.42-.19L213,69a54.94,54.94,0,0,0-6.87-1.11,10.24,10.24,0,0,0-2.83.39,15.35,15.35,0,0,1-3,.47c-3.2.1-5.15-1.26-5.79-4-.25-1.06-3.84-5-5.27-5.76a3.63,3.63,0,0,1-1.08-.78c-.34-.38-.66-.79-1-1.19l-1.48-1.86,1.64-.76c.16-.08.33-.17.49-.26a7.19,7.19,0,0,1,1.09-.52l-18.28-2.23L163.2,63.2l-.71-3.42c-.14-.68-.29-1.27-.43-1.8a11.19,11.19,0,0,1-.5-3c0-1.81.15-3.63.26-5.39.13-2.14.26-4.36.27-6.52a5,5,0,0,0-.6-2.42,5.52,5.52,0,0,1-3.36-5.27c-.25-4.27-1-5-5.09-5H153l0,.32c.12,1.4.24,2.72.44,4,.12.81.31,1.61.5,2.46a24.51,24.51,0,0,1,.68,3.92,34.45,34.45,0,0,1-3,16,2.76,2.76,0,0,0-.32,1.38,11.47,11.47,0,0,1-2.53,11.94c-.36.41-.7.83-1,1.26-.53.65-1.07,1.33-1.69,2-1,1-1.11,1.63-.49,2.77,2.84,5.19,3.12,10.71.84,16.86a5.25,5.25,0,0,1-5,3.56,18.13,18.13,0,0,1-6-.47c-.42-.11-1-.17-1.27.16a1,1,0,0,0-.21.78c.94,2.42.06,4.31-.65,5.83a7.06,7.06,0,0,0-.76,2.19,4.5,4.5,0,0,1-1.72,3.26,4.92,4.92,0,0,1-4,.75l-4.62-.88c-2.75-.52-5.6-1.05-8.39-1.64-1.49-.32-1.62,0-1.67.11l-.36.88h-.95a7.77,7.77,0,0,0-4.73,1.5l-.28.22-4.5.78-.49-.38a18.26,18.26,0,0,1-1.41-1.24c-.47-.44-1.17-1.11-1.45-1.13-3.51-.28-7.14-.24-10.64-.2l-1.7,0a1.48,1.48,0,0,0-.6.19c-1.24,2.33-2.81,5.21-6.16,5l-.56,0-.38-.41A13.83,13.83,0,0,1,77,110.9a6.13,6.13,0,0,0-.82-1,15,15,0,0,1-2.31-.67c-2.3-.81-3.26-1-4.25.32a22,22,0,0,1-11.23,8.05,3,3,0,0,0-1.8,2.35,3.73,3.73,0,0,0,1.05,3.52l.78.64-.34.95c-.15.41-.29.82-.44,1.23-.31.89-.64,1.81-1,2.72-1.55,3.72-3.42,4.85-7.43,4.47-.77-.07-1.52-.19-2.24-.31s-1.26-.2-1.89-.27a9.13,9.13,0,0,0-1.37,0H42.63l-.37-.86a28.32,28.32,0,0,1-1-2.76c-.5-1.63-1.08-3.47-1.88-3.9-1.77-1-5.4-.82-6.94.26-2.84,2-5.29,1.78-7.67,1.56l-.64-.06a10.5,10.5,0,0,0-1.3,0c-.45,0-.92,0-1.41,0a2.37,2.37,0,0,0-1.7.39,2.39,2.39,0,0,0-.3,1.79c.08.78.19,1.56.3,2.33a34.67,34.67,0,0,1,.44,4.49c.07,5.53-1.23,5.94-1.86,6.13-1.46.46-1.73,1.29-2.14,3a10,10,0,0,1-.86,2.48c-.61,1.11-.52,1.49-.52,1.5a2.22,2.22,0,0,0,.75.33l.81.26.16.83c.33,1.74.9,4.17,1.06,4.56a1.36,1.36,0,0,0-1.1-.76l-.15,1.4,1.19.8v0a6.4,6.4,0,0,0-.9,5.65,10.3,10.3,0,0,0,5.91,6.11c4.61,1.88,4.33,3.81,3.37,6.53a20.56,20.56,0,0,0-.62,2c-.15.61-.28,1.27-.39,2l0,.19A29.38,29.38,0,0,0,26,192c.05.18.11.35.18.53a5.79,5.79,0,0,1,3.23-1.34c3.3-.45,8,.66,10.26,2.44a11,11,0,0,0,3.61,1.52l1.19.37.78-1.52.71,2.06.82.31-.42.83L47.73,201c1.5,4.31,2.86,8.25,4.22,12.19a3.53,3.53,0,0,1,.16,1s0,0,0,0a9,9,0,0,1,2,3.25l.07.26.44,1a15.19,15.19,0,0,1,1,4.89c0,.32.06.63.09.95,0,.05,0,.08.09.13l.51.31.16.7c.06.26.12.52.15.78l.19,1.34a5.33,5.33,0,0,1,.68-.51,5.25,5.25,0,0,1,4.71-.41l.35.13a7.33,7.33,0,0,0,1.66.49c3,.32,4.43,2.08,4.24,5.1-.09,1.49.17,1.9.29,2a.88.88,0,0,0,.53.15,12.19,12.19,0,0,0,.41-1.49c.56-3,2.76-3,4.36-3h.19A29.41,29.41,0,0,0,81.16,229a6.67,6.67,0,0,0,.39-1.36,5.19,5.19,0,0,1,1.95-3.48,5,5,0,0,1,3.91-.48c1.21.24,2.47.5,3.08.07a2.52,2.52,0,0,0,.72-1.62l.28-1.86,1.71.78a10.24,10.24,0,0,0,3,.68c1.95.25,4.16.53,6,2.57a8.47,8.47,0,0,0,2.32.09l1.08,0c3.39,0,4.29,2,4.45,3.61,0,.24.06.49.1.74.22,1.54.59,4.12-2.42,5.39a3.33,3.33,0,0,0-.45.25,10.91,10.91,0,0,1,2.72,2.4,11.31,11.31,0,0,1,1.53,3.52c.16.51.32,1,.52,1.59l.42,1.14-1.06.59c-.33.19-.66.39-1,.59a12.39,12.39,0,0,1-2.53,1.31c-1.33.45-2.17,1.13-2.33,1.86s.33,1.65,1.32,2.58c.36.33.73.64,1.25,1.07l1.09.91,1.92,1.61-2.37.81c-3.36,1.15-5.16,2.82-5.49,5.08,1.54.05,2.94.13,4.25.24l.3,0,.26.14a4.48,4.48,0,0,1,2.32,3.37c.35,2,.78,4,1.2,5.92.47,2.17,1,4.4,1.33,6.65l.46-.57.87.21c2.81.67,4.57,1.15,5.43,2.58s.48,3.15-.2,5.87l-.09.35a8.72,8.72,0,0,0-.34,1.75c-.14,3.71-.95,8.18-5.85,10.26.74.43,1.5.84,2.3,1.26,1,.54,2.07,1.09,3.08,1.73a4.8,4.8,0,0,1,2.11,3.11c.23,1.72.38,3.45.53,5.13s.29,3.33.51,5a6.85,6.85,0,0,0,.36,1.34l.18.49-.18.49c-.4,1.1-.77,2.21-1.14,3.33l-.35,1.06-1.11-.09C118.34,318.94,117.09,318.88,115.85,318.91Zm29.07-24.12h0ZM52.13,214.35Zm260.63-87.76h0Zm8.08-17.8a10.72,10.72,0,0,1,.1,1.92l.12-.18c.8-1.26,1.6-2.53,2.41-3.78Zm-2.43,1.8h0Zm-242.24-.67ZM85,107.56Z"/></svg>