<svg id="Layer_1" data-name="Layer 1" xmlns="http://www.w3.org/2000/svg" viewBox="0 0 350 350"><defs><style>.cls-1{fill:#999;}.cls-2{fill:#f90;}</style></defs><title>M</title><path class="cls-1" d="M343.75,108.72s-4.14,3.11-4.38,3.11-6,4.62-8.53,5.74a46.19,46.19,0,0,0-8.29,5.26c-1.75,1.43-2.87,1.75-3.51,2.39s0,.24-1.91,1.35-1.51,2.31-2.47,2.79a7.39,7.39,0,0,0-1.43,1c-.4.24-2.71,4.62-3.35,5.74s-.24.88-.64,1.67-1.27.32-1.51,1.75.56,1.75-.56,2.15-2.79,1.43-1.35,2.31,2.07,2.07,1.83,2.31a23.52,23.52,0,0,0-1.2,2.15,9.54,9.54,0,0,1-1.19,1.75c-.72.88-2.31,1.2-1.84,3.67-1.27-.32-1.59.32-1.59,1.51s.56,2.79,0,3-1.59,2-1.12,2h1.67s.24,2.31-.88,3.27-1.51,1.59-.4,2.31-1.75,1.67-2.63,2.39a10.89,10.89,0,0,0-2,1.83,5.32,5.32,0,0,0-1.35,2.39c0,.56-1.35-.64-1.83,1.2s.72,4.17-1.78,5.28-5.1,2.66-5.74,3.67-1.33.74-2.5,1.65-1.75,1.54-1.7,1.7-1.22,1.17-1.38,1.7.58,1.81,0,2.07-2.18.11-2.92.37a12.31,12.31,0,0,0-2,.8c-.53.32-1.54.21-1.65.9a2.27,2.27,0,0,1-1.06,1.49c-.58.48.11,1.59-1.38,2s-1.65.9-2.6,1.06-1.81,1.91-3.4,1.49a11.76,11.76,0,0,0-2.76-.37c-.8-.11-1.06-.58-2,.05s-1.75.42-3.72,2-1.65,1.86-3.24,3-1.33,2.55-2.71,3.29-3,1.86-4,1.7c.21-2.34.32-2.92-.48-3a6.88,6.88,0,0,0-1.59,0s.58,1.27-1.12,1.12-2.71-.48-3.35-.48h-2.66v1s-3.51-.9-4.89-.11-3.45,1.59-3.72,2.28a6.31,6.31,0,0,1-.69,1.27,35.65,35.65,0,0,1-4.36,0c-1.86-.16-2.55-.55-3.29.07a7.84,7.84,0,0,0-1.54,1.42c-1,1.06-.27.64-1.65,1.27a25.84,25.84,0,0,0-3.93,1.7c-1.27.85-4,2.66-4,2.66s-.27-1.17-.9-.48-1.7,1.49-2.18,2.07-1.43,1.49-2.5,1.22-1.17-.42-1.49-.37-1.54-.06-1.86.42a1.88,1.88,0,0,1-1.7.7c-.42-.16-2.6-.85-3.24-.27s-1.54,2.12-2,1.75a7.85,7.85,0,0,0-2.34-1.06c-.69-.16-1.75-.85-1.83-1.65a5.32,5.32,0,0,0-.48-1.59s-3-.48-3.35,0a3.68,3.68,0,0,1-1.67,1.27,5.65,5.65,0,0,0-1.75,1.83s-.72-.72-2.31-.08a4.35,4.35,0,0,0-2.07,1.33c-.08.1.64.9,0,.74s-.32-1.35-1.83-1.2a9,9,0,0,0-3.19,1.22s-.8-1.93-1.83-.82a10.33,10.33,0,0,1-2.71,2.47c-.8.32-1,1.12-2.07,1.12a4.28,4.28,0,0,0-2.63.8c-.8.56-2.47,1.43-2.47,1.43a9.67,9.67,0,0,1-3.43-1l-1.83-1.27a7.41,7.41,0,0,0-2.71,1.35c-.72.8-.72,1.83-1.91,2.23s-4.38-.32-5.74.48-4.22,2.31-6,2.15-2.71-1.2-4.94-.72a2,2,0,0,1-2.63-1.43s-3.43-1.27-3.82-2-3.27,1.35-3.74,2.15-1.43.64-1.75,1.51-.16,3.19-.64,3.27-4.38,1.43-6,1.51-2.95-.88-4.86,0-3.82,1.51-4.54,2l-2.07,1.35c-1.59,1-2.79,2.79-3.51,2.95s-1.91.4-3.74.64-2.31-.88-4.62.88S91,246,88.79,246.56s-2.79,1.51-2.87,2.63-3.27,3.11-3.59,3.74-1.75,2.63-1.75,3.35V257s-4.06,2.63-5,3.43a9.27,9.27,0,0,1-2.79,1.43c-.64.24-.24.88-3,1.83a30.55,30.55,0,0,0-4.86,1.83c-1,.56-5.9.56-8,0s-4.94-1-5.74-.24.24,1.35-.72,2.55,1,.64-1.67,1.35-2.87.24-3.59,1.12.16,1-1.35,1-1.2-.4-3.11,0-1.12.88-3.19.4-2.15.08-3,.2.56-.2-1.59,0a10.46,10.46,0,0,1-3.67,0c-1.35-.23-.64-.23-1.35-.23s.48.08-1.2-.08a9.53,9.53,0,0,1-2.95-.64c-1.27-.4-1.59-1-2.55-.48a21.59,21.59,0,0,1-3.82,1.2,15.84,15.84,0,0,0-2.07-.88c-.88-.16-1.59.16-2.15-.4s-1.27-1-1.12-1.27a5.52,5.52,0,0,1,.88-1s-1.59-.56-1.43-1.91.24-2.95-.88-3.67-.64-1.27,0-2,3.67-1,3.43-2.95S12,254.92,12,251.74,8.72,246.48,9.12,244s-1-2.63-1.2-4.22-.64-2.55-.8-3.35a1.22,1.22,0,0,0-.88-1,4.12,4.12,0,0,0,.72-2c-.08-.8-.48-1.51,1.35-2.15.56-1.83,1.51-1.91,1.35-5.1s.16-2.95-.08-4.22a10,10,0,0,1-.24-2.31c0-.64,1.83-.32,2.47,0s1.2.64,1.27,0a6.82,6.82,0,0,1,.48-2,18.93,18.93,0,0,0,.64-2.31,24.29,24.29,0,0,0,2.95-1.27,11.08,11.08,0,0,0,2.39-2.39c.24-.32.72.88,1.43,1.27s1.35.56,2.07.88a11.77,11.77,0,0,0,1.75.56,1.76,1.76,0,0,0-.72,1.75c.24,1.12.56,2.31.56,2.31l1.67.48a3.54,3.54,0,0,1,1.75-.4,2.23,2.23,0,0,1,2.23,1.35c.56,1.2.48,1.2,1.12,1.43a10.94,10.94,0,0,0,1.43.4,5.76,5.76,0,0,0,2.39-1.35,18.42,18.42,0,0,1,1.91-2.31,6.82,6.82,0,0,0,1.1-2.31,2.72,2.72,0,0,0,1.85-2.07,8.31,8.31,0,0,0,.24-3.59,9.77,9.77,0,0,1,.08-1.59,32,32,0,0,0,3.27-2.47,19.37,19.37,0,0,1,2.23-1.91,3.65,3.65,0,0,0,1.27-.48c.4-.32,2.15-.08,1.67-1.91s-1.59-5.26-1.75-5.74-.32-1.35.16-1.43,1.12.88,1.59,1.27,1.43.08,2.07.32.88.64,1.59,1,2.63,1.51,2.63,1.51.08-1.2.8-1,3.74,1.51,3.74,1.51,2.55,1.67,2.95,1.59-.08,3,.88,3.35a21.26,21.26,0,0,0,2.15.56s.64-1.59,1.12-1.35a6.33,6.33,0,0,0,1.2.4l.4-1s3.9.56,4.62.08,1.43-2.79,1.43-2.79a42.54,42.54,0,0,0,4.7.56c.8-.08,3.19.56,3.51.48s1.35.08,1.91-.32,1.35.88,2.15.88a12.42,12.42,0,0,1,3.82.64,7.56,7.56,0,0,0,3.59.48c1-.16,1.2.32,2.07-.32l.88-.64.4-.4,2.39.88s1.27-2.55.8-3.82a6.2,6.2,0,0,1,0-3.11l-.56-1.43s4.38,1,6.06,1.12,2.71,1.75,3.51,1.75a18.07,18.07,0,0,1,3.19.8,18.26,18.26,0,0,1,2.15-1.2,6.59,6.59,0,0,0,1.75-1.12l-.8-1.59,1.27-1-.08-1.51,1.91-.81-.48-2.7a7.33,7.33,0,0,1,2.63-.88,9.53,9.53,0,0,0,2.87-.64,2.32,2.32,0,0,0,1.12-.88,2.26,2.26,0,0,1,.4-2.55,19,19,0,0,1,3.19-2.63,5.18,5.18,0,0,0,.88,2.15c.56.48.16,1.12.64,1.91a4.9,4.9,0,0,1,.48,1.91c.08.24-1.91,1.35-1.2,1.43a6.71,6.71,0,0,1,2.15.32c.72.32,1.51,1.2,2.07,1a2.49,2.49,0,0,0,1-1l.48,2.15a2.69,2.69,0,0,0,.88,1.91c.88.72,1.83,1.59,2.79,1.51a16.38,16.38,0,0,0,2-.32,13.1,13.1,0,0,1,2.15,1.2c.56.48,1.27,3.59,1.27,3.59s2.55-.4,3.27-2.07.48-3.43,1.2-4.62a3,3,0,0,0,.4-3.11c-.48-1.2-1.35-1.2-.4-2.39s2.47-.72,3.43-2.31a10,10,0,0,0,3.11-.16s1.35-1.27,1.75-.48.56,1.2,1.75,1,3.27,0,3.9-.64a12.18,12.18,0,0,1,1.83-1.75c.56-.32.8-1,.64-3a10.74,10.74,0,0,1,0-2.71L167,175a.9.9,0,0,0,1,.64,3.28,3.28,0,0,0,1.35-.64s.24-1.2.4-2.31a11.54,11.54,0,0,1,.4-1.83l4.38.32a16.85,16.85,0,0,0,1.67,1.59c.32.16,1-.16,1.59.4a7.49,7.49,0,0,0,2.47,1.35,14.83,14.83,0,0,0,2.47.8A11.82,11.82,0,0,1,185,176a3.83,3.83,0,0,1,1,1c.48.64.88,2.87,1.59,2.71a5.32,5.32,0,0,0,1.67-1,9.48,9.48,0,0,0,2.23-.88c.48-.4,1.35,0,1.35-1.12a5.7,5.7,0,0,1,.32-2.79,6,6,0,0,1,1.69-1.2s.54-1.35.86-1.51a1.18,1.18,0,0,1,1.43-.16,5.64,5.64,0,0,0,1.51.64c.72.16,1.59.08,1.83.32a18.79,18.79,0,0,1,1.43,1.59c.64.8.08.64,1.51,1s2.79.48,3.82.64,2.63.08,3.43.64a4.29,4.29,0,0,0,2.15.72,9.89,9.89,0,0,1,3,1.35,17.63,17.63,0,0,0,3.19,1.67,21.53,21.53,0,0,1,3,1.2c.88.48,2.39.64,3.67,1.35s3.82,2.95,4.46,2.23a3.62,3.62,0,0,0,.88-1.35c.16-.4.72-2,.72-2l-4.22-2.71s1.35-2.71.64-3.19a9.34,9.34,0,0,1-1.64-1.27c-1-.88-3.93-.32-4.49-1.43a13.56,13.56,0,0,1-1.2-3.11,6.34,6.34,0,0,1,.08-.88l.8-1.75a6.63,6.63,0,0,0-1.59-.88,10.42,10.42,0,0,1-3.24-1.51c-.59-.64-.59-1-1-1.12s-1.59-.88-1.59-.88l-.88-1.51s-.64,1.27-.8-.08-1,.08-2.07-2.07-2.23,1.43-3.59-.16l-1.35-1.59s-1.35,3.19-1.59.56,1-1.91,1.51-1.91.24-.72.4-2.15,1.12-1.27.56-1.91-2.31-1-.88-2,2.15-.32,2.55-1.12-.25-1.59.63-2a2.85,2.85,0,0,1,2.4-.16c.72.32,1.75-.32,2.55.08s.24.72,1.75,1.27a8.84,8.84,0,0,0,3.43.56c.88,0,1.2.4,2.39.48s.72-.64,1-.88,1.59-.56,1.59-1.12,1-2.39.32-3.19-.88,0-1.43-1.43-1.35-2.23-1.2-3.19-.08-.56-.08-2v-3.9c0-.8.08-1.75.32-1.75s1-.65,1.59-.6,2.15-.52,2.23,0-.72,3.15-.48,3.39,1.59-.56,2.23-.64,1.2.24,1.51-.64,1-1.91,1.51-1.43A1.81,1.81,0,0,1,231,133c-.24.64-1,.64-.56,1.67s-.64-.16.4,1a15,15,0,0,0,2.39,2.15c.48.4.16,1.67.16,1.91s-1.83,2.55-2.63,3.67-2.07,1.83-2.71,2.71-.82,2.39-1.49,3.19a3.4,3.4,0,0,0-.67,3.19,5.34,5.34,0,0,0,1,2.31,12.21,12.21,0,0,1,1.35,2.39,3.17,3.17,0,0,1,1.12-2.87c1.43-1.2,1.35-2,2.71-1.91s1.91-.24,2.31.08a8.78,8.78,0,0,0,2,1.35c.56.16.64.48,1.51-.32a12.83,12.83,0,0,0,1.43-1.91,5,5,0,0,0,.72-1c.4-.56.72-.8,1.59-1.91a4.88,4.88,0,0,0,1-2.87c0-.4-1.43-1.27-.8-1.59a25,25,0,0,1,3-1.12c1-.32,1.59-1.12,2.31-1.35s1.67-.4,1.59-1.51,0-2.71,0-3-.48-2-.56-2.95-.4-1.43-.16-1.43a2.34,2.34,0,0,1,2.71.64c1.43,1.35,1.59,1,2.47.16a10.42,10.42,0,0,0,1.51-2.07c.56-.8.56-1.35,1.51-1.67s1.35-.88,1.91-1,1-.08,1.83.56.48,1.51,1.83.88,1.2-.16,1.35-.64-.88-1.43.16-2.47-.32-.32,1.35-1.51,1.59-.24,1.51-1.75.16-2.15,1-1.75,1,1.27,2,.32a12.3,12.3,0,0,1,2-1.59l.64,1.67-.56,1.43a2.25,2.25,0,0,1,.88,1.35,18,18,0,0,0,.8,2.47,12.2,12.2,0,0,0,.56,2.58,4.93,4.93,0,0,0,2.39,2.12c1,.4,2.63.48,3.51.8s2.23.8,2.63.56,1.12-1.12,1.51-1.12a14.76,14.76,0,0,1,2.55.64,4.29,4.29,0,0,1,1.27.72,1.21,1.21,0,0,1,.8.88c.08.64.4.88,1.2,1.2a5.23,5.23,0,0,0,1.83.32c.72.08,1.35,0,1.59.08s.48-.88,1.35-.8,1.75-.32,2.95-.32a12.11,12.11,0,0,0,3.11-.48,10,10,0,0,0,2.23-1,12.63,12.63,0,0,1-2-1.67,23,23,0,0,1-1.51-1.88c-.4-.51-1.12-.75-.64-1.39s-.56-1,.72-1,1.91.48,2-.08a2.7,2.7,0,0,0,0-1.59c-.24-.72-1-1.67-1-2.31v-1.51a19.89,19.89,0,0,1,2.55-.24c.32.08,1.27,1.2,1.59,1.2s.56-.72.56-1-.16-1.12.8-1.12h1s.24-1.67.24-2-.16-1.27.24-1.75a16.67,16.67,0,0,0,1.27-1.43c.16-.32.56-.8.64-1a4,4,0,0,0,.24-1c0-.32.08-1.83.08-1.83s.88-1.59,2.15-.4c.72-2.31,2-1.27,2.79-1a1.9,1.9,0,0,1,3.51-.16,2.54,2.54,0,0,1,2.95-.48s-.16-1.43.08-1.59,1-4.3-.72-4.86-2.79-.64-2.87-2.07,0-1.35-.88-2.07-1.27-.64-1.27-1.59-.32-1.59.08-1.67a12.27,12.27,0,0,1,2.15.56c.48.08,1.27.64,1.12-.24a5.85,5.85,0,0,0-.56-2c-.48-1.12.56-.64-.48-1.12a15.93,15.93,0,0,0-1.67-.8,16.85,16.85,0,0,0-2.39-.56c-.88-.24-1.12.24-2-.8a3.17,3.17,0,0,0-3-.88c-1,.08-2.07,1.59-2.79.48s-2.87-1.83-2.23-3.27-.4-1.51,1.67-1.91,3.51-1.75,4.62-2.15,1.2-.32,2.79-1,1-.64,2.63-1.59,1.75-.48,2.79-1.67A14.8,14.8,0,0,0,318.89,78s1.33,2.6,2.44,3.24,1.75.58,2.5,1S325,83.49,326,83.6a2.89,2.89,0,0,1,1.91,1.17c.58.58.48.8,1,1.75s.42,1.38,1.27,1.65a15,15,0,0,0,1.54.58c.16-.05.32-.53.74-.58s1.38.05,1.49.37.74,1.38,1.06,2a1.65,1.65,0,0,1,.16,1.38,4.08,4.08,0,0,0-.42,1.59c.05.69.21.69.32,1.59s-.21.8.64,1.38a10,10,0,0,0,2.23,1A2.89,2.89,0,0,1,338,98a3.12,3.12,0,0,0-.32,1.38c.05.85-.11,1.17.58,1.38a9.34,9.34,0,0,0,1.33.37c.16,0,1.43-.69,1.7,0s.74,1.33.69,1.91l-.05.58a1.59,1.59,0,0,0,.53,1.17,4.11,4.11,0,0,1,.85,1.27Z"/><path class="cls-2" d="M30.67,273.45a9.39,9.39,0,0,1-1.63-.17,8.68,8.68,0,0,1-1-.21H27.8l-.09-1.4-.24,1.41-.88-.09a9.69,9.69,0,0,1-2.7-.52l-.54-.17a9.08,9.08,0,0,1-1.12-.45l-.32-.14,0,0a19.86,19.86,0,0,1-4.46,1.34,2.54,2.54,0,0,1-1.23-.42,4.64,4.64,0,0,0-1.09-.48,3.61,3.61,0,0,0-.6,0,2.9,2.9,0,0,1-2.3-.76c-.14-.14-.3-.27-.44-.39-.46-.39-1.55-1.3-.94-2.52l0-.08a3,3,0,0,1-.74-2.32c.06-.5.24-2-.24-2.31A2.58,2.58,0,0,1,8.56,262a2.93,2.93,0,0,1,1-2.34,4.45,4.45,0,0,1,1.68-1c.39-.16,1.3-.54,1.4-.79a3.76,3.76,0,0,0-.66-1.5,8.07,8.07,0,0,1-1.42-4.61,6.72,6.72,0,0,0-1.38-3.41c-.82-1.31-1.75-2.8-1.47-4.55A2,2,0,0,0,7.34,242a4.78,4.78,0,0,1-.82-2A16.08,16.08,0,0,0,6,237.77c-.1-.35-.19-.66-.25-.95l-1.84-.41,1.15-1.72a3.25,3.25,0,0,0,.48-1.09c0-.05,0-.13,0-.21a2.65,2.65,0,0,1,1.68-3.13,10.16,10.16,0,0,1,.49-1,4.42,4.42,0,0,0,.57-3,24.25,24.25,0,0,1,0-3,3.15,3.15,0,0,0-.05-1,11.41,11.41,0,0,1-.26-2.57,1.7,1.7,0,0,1,.82-1.46,4.17,4.17,0,0,1,3.16,0c.07-.26.17-.58.32-1a17.46,17.46,0,0,0,.58-2.11l.16-.78.75-.27a22.26,22.26,0,0,0,2.71-1.17,9.76,9.76,0,0,0,2-2,1.52,1.52,0,0,1,1.22-.62h0a2,2,0,0,1,1.6,1,3.11,3.11,0,0,0,.44.5,7.74,7.74,0,0,0,1.08.47c.29.11.57.22.87.35a10.17,10.17,0,0,0,1.5.47l3.2.74-2.73,1.82a.32.32,0,0,0-.12.28c.11.52.24,1,.34,1.47l.4.11a4.57,4.57,0,0,1,2-.31,3.61,3.61,0,0,1,3.39,2.17l.19.42.13.28h0a8.09,8.09,0,0,0,.86.25,4.13,4.13,0,0,0,1.31-.7,19.86,19.86,0,0,1,2.07-2.49,5.62,5.62,0,0,0,.73-1.69l.24-.85.87-.16a1.62,1.62,0,0,0,.75-1.09,4.72,4.72,0,0,0,.23-2.17c0-.31-.05-.63-.05-1a10.59,10.59,0,0,1,.11-1.87l.11-.57.48-.33c1.17-.8,2.59-1.83,2.93-2.15A13,13,0,0,1,45.07,203l.27-.2.33-.06a2.76,2.76,0,0,0,.67-.21,2.52,2.52,0,0,1,1-.43l.12,0C47,200.34,46,197,45.78,196.49a3,3,0,0,1,.06-2.46,1.73,1.73,0,0,1,1.21-.83,2.72,2.72,0,0,1,2.39,1.23l.22.24H50a3.84,3.84,0,0,1,1.46.19,4.33,4.33,0,0,1,1.22.73,4,4,0,0,0,.56.39l1.37.78.16-.12a1.88,1.88,0,0,1,1.65-.21c.75.25,3.53,1.42,3.84,1.55l.23.12a24.69,24.69,0,0,0,2.23,1.32l.3-.06.57.41c.62.49.65,1.18.69,2.07a10.63,10.63,0,0,0,.1,1.16l.55.15a2.53,2.53,0,0,1,1.17-1.05,1.67,1.67,0,0,1,1.06,0l.32-.82,1.12.16a19.39,19.39,0,0,0,3.68.24,10.88,10.88,0,0,0,.82-2l.37-1.18,1.22.2a43,43,0,0,0,4.34.54,10.23,10.23,0,0,1,2.6.31l.92.16a4.6,4.6,0,0,1,.56,0,3.09,3.09,0,0,0,.7-.06c1.08-.78,2.21,0,2.69.4.11.08.26.2.36.25a13.1,13.1,0,0,1,4.39.81,6.57,6.57,0,0,0,2.67.32,4.18,4.18,0,0,1,1.25,0h.12l.1-.07.79-.57,1-1,2,.72a3.43,3.43,0,0,0,.26-1.53,7,7,0,0,1-.15-3.49L97.83,192l2.58.56s4.32.94,5.89,1.09a5.93,5.93,0,0,1,3.05,1.4c.16.12.37.28.49.35a14.79,14.79,0,0,1,2.83.66c.43-.25,1-.6,1.74-.93.21-.1.39-.19.54-.28l-.76-1.53,1.6-1.3-.09-1.79,1.79-.76-.46-2.58.89-.49a8.26,8.26,0,0,1,3.31-1.05,7.86,7.86,0,0,0,2.28-.52l.1,0a3.7,3.7,0,0,1,.94-3,20.22,20.22,0,0,1,3.48-2.88l1.77-1.16.4,2.08a5,5,0,0,0,.46,1.4,2.47,2.47,0,0,1,.79,1.78.94.94,0,0,0,.09.42,4.9,4.9,0,0,1,.63,2.19v.12a1.39,1.39,0,0,1,0,.72l.15.06a6.18,6.18,0,0,1,1,.59l.17.11.06-.09,1.81-3.27,1.32,6.11h0a1.3,1.3,0,0,0,.36.81l.24.2c.4.33,1.27,1,1.53,1a15,15,0,0,0,1.79-.29l.46-.11.43.2a12.9,12.9,0,0,1,2.49,1.41c.19.16.71.6,1.35,2.86a1.92,1.92,0,0,0,1-.83,8.25,8.25,0,0,0,.49-2.06,7.18,7.18,0,0,1,.8-2.73c.57-.94.56-1.19.3-1.85a2.28,2.28,0,0,0-.33-.54,2.33,2.33,0,0,1,.14-3.26,4.48,4.48,0,0,1,2.16-1.39c.64-.23.9-.34,1.16-.77l.45-.76.88.07a9.89,9.89,0,0,0,2.34-.06,3,3,0,0,1,2.33-.81,1.86,1.86,0,0,1,1.34,1l.11.22.1,0a11.83,11.83,0,0,1,1.71-.16,8.11,8.11,0,0,0,1.53-.16l.44-.47a8,8,0,0,1,1.52-1.39,5.6,5.6,0,0,0,0-1.74,11.64,11.64,0,0,1,0-3.13l.18-.8,3.9-1.24.21.7c.07-.41.16-.92.23-1.42a12.81,12.81,0,0,1,.46-2.08l.35-1,6,.44.38.4c.43.46.92.94,1.2,1.2a2.69,2.69,0,0,1,2,.7,6.08,6.08,0,0,0,1.94,1.06c.33.1.66.23,1,.36a5.46,5.46,0,0,0,1.2.38,12.42,12.42,0,0,1,2.6.73l.19.09a5.18,5.18,0,0,1,1.47,1.34,6,6,0,0,1,.69,1.47l.13.34c.14-.09.28-.2.4-.3l.23-.19.3-.08a9.4,9.4,0,0,0,1.73-.62,2.19,2.19,0,0,1,.81-.41v-.05a5.21,5.21,0,0,1,.59-3.15,5.64,5.64,0,0,1,1.73-1.39c.63-1.42,1.1-1.65,1.33-1.76a2.46,2.46,0,0,1,2.66-.18c.35.16.56.27.73.36a1.36,1.36,0,0,0,.51.18,5.2,5.2,0,0,0,.7.08,2.67,2.67,0,0,1,1.83.62,20.19,20.19,0,0,1,1.54,1.71c.11.14.2.26.26.36l.24.05.21,0c1,.23,2.05.38,2.94.5l.79.12c.27,0,.57.06.89.09a6.27,6.27,0,0,1,3.13.79,2.89,2.89,0,0,0,1.47.47,10.89,10.89,0,0,1,3.71,1.61,16.57,16.57,0,0,0,2.82,1.49,22.45,22.45,0,0,1,3.26,1.29,7,7,0,0,0,1.19.41,11.34,11.34,0,0,1,2.49,1c.42.23.9.57,1.41.93s1.2.84,1.7,1.1a1.8,1.8,0,0,0,.2-.4c.07-.18.21-.56.34-.93l-4.35-2.79.57-1.14A9.33,9.33,0,0,0,227,176a10.76,10.76,0,0,1-1.33-1.08,6.24,6.24,0,0,0-1.4-.25c-1.23-.14-2.77-.32-3.42-1.61a14.38,14.38,0,0,1-1.34-3.74,7.83,7.83,0,0,1,.1-1.11l.11-.36.27-.6-.26-.11-.37-.13a8.77,8.77,0,0,1-3.42-1.75,6.35,6.35,0,0,1-.64-.82v0c-.49-.23-1.27-.69-1.61-.9l-.31-.19-.33-.58-.27,0a1.71,1.71,0,0,1-1.37-1.47,3.21,3.21,0,0,1-1.8-1.6c-1.43,1-2.64.87-3.6-.26l-.1-.11a1.76,1.76,0,0,1-1.59.6c-.93-.15-1.47-.92-1.59-2.31a3.53,3.53,0,0,1,.75-3,2,2,0,0,1,1.11-.52c0-.24,0-.52.06-.82a3.72,3.72,0,0,1,.32-1.19,2.24,2.24,0,0,1-1.2-1.77,2.3,2.3,0,0,1,1.14-1.94,4.57,4.57,0,0,1,2.1-.88,2.26,2.26,0,0,1,1.33-2.37,4.24,4.24,0,0,1,3.49-.19,4.25,4.25,0,0,0,.45-.06,3.51,3.51,0,0,1,2.22.19,2.58,2.58,0,0,1,1.07.94s.13.12.54.27a7.47,7.47,0,0,0,2.94.47,4.52,4.52,0,0,1,1.49.27,4.61,4.61,0,0,0,.55.15,1.61,1.61,0,0,1,.3-.41,2.85,2.85,0,0,1,.95-.57l.32-.14c.05-.21.12-.42.2-.65a6.9,6.9,0,0,0,.29-1,2.68,2.68,0,0,1-1.58-1.83,10.76,10.76,0,0,0-.56-1.18,4.18,4.18,0,0,1-.71-2.76,1.87,1.87,0,0,0,0-.28,6.36,6.36,0,0,1-.13-1.48v-3.9c0-.89,0-2.88,1.42-3.14l.11-.06a3.58,3.58,0,0,1,1.92-.57L224,129a3,3,0,0,1,2.38.2,1.62,1.62,0,0,1,.67,1.08,4.86,4.86,0,0,1-.17,1.63l.35-.07a3.57,3.57,0,0,1,.48,0c.3-.69,1-1.89,2.06-2.13a1.76,1.76,0,0,1,1.66.49,3.16,3.16,0,0,1,.88,3.33,2.61,2.61,0,0,1-.5.82,2.62,2.62,0,0,1,.11.49,11.25,11.25,0,0,0,1.79,1.63l.42.33c1,.83.78,2.26.68,2.95l0,.14c0,.53-.21.83-1.88,3-.38.5-.75,1-1,1.36a10.15,10.15,0,0,1-1.74,1.78,6.76,6.76,0,0,0-1,.94,5.46,5.46,0,0,0-.52,1.19,6.6,6.6,0,0,1-1,2.07,2,2,0,0,0-.42,1.8c.14.38.21.65.27.88a2.11,2.11,0,0,0,.44.89,4.81,4.81,0,0,1,.55-.54,7,7,0,0,0,.9-.92,3,3,0,0,1,2.79-1.32,7.08,7.08,0,0,0,1.15,0,2.49,2.49,0,0,1,2,.42l.16.13a8,8,0,0,0,1.36,1l.1,0,0,0a3.71,3.71,0,0,0,.75-1,4.08,4.08,0,0,1,.63-.88,1.18,1.18,0,0,0,.24-.29c.07-.12.17-.26.33-.49a9.49,9.49,0,0,1,.68-.83c.23-.26.52-.58,1-1.13a3.32,3.32,0,0,0,.63-1.61l0,0a2.36,2.36,0,0,1-.88-2,1.67,1.67,0,0,1,.92-1.21,25.93,25.93,0,0,1,3.25-1.2,3.22,3.22,0,0,0,1-.57,4.62,4.62,0,0,1,1.33-.78l.27-.08.35-.12c-.05-.94,0-2,0-2.65,0-.16,0-.28,0-.34s-.08-.33-.15-.66a17.64,17.64,0,0,1-.4-2.17,4.42,4.42,0,0,0-.14-.77,1.75,1.75,0,0,1,.21-1.62l.43-.55.55,0a3.65,3.65,0,0,1,3.89,1l.36.32.14-.14a4.93,4.93,0,0,0,.88-1.14c.14-.22.28-.46.48-.75a4.89,4.89,0,0,0,.29-.49,3.17,3.17,0,0,1,1.94-1.72,3.14,3.14,0,0,0,.83-.46,3.75,3.75,0,0,1,1.14-.6,3.78,3.78,0,0,1,3.68,1.41l.08,0a2.77,2.77,0,0,1,.8-2.69l.06-.07c.16-.66.75-1.09,1.47-1.6a7.67,7.67,0,0,1,.92-.57c-.06-1.21,0-2.4,1-3a2,2,0,0,1,2,0,3.65,3.65,0,0,1,.58.37,13.8,13.8,0,0,1,2-1.58l1.46-.9,1.44,3.78-.43,1.1a3.47,3.47,0,0,1,.62,1.43,9.58,9.58,0,0,0,.49,1.56c.09.25.18.49.26.72a5.68,5.68,0,0,1,.23,1.25,3.13,3.13,0,0,0,.25,1.13,3.51,3.51,0,0,0,1.68,1.46,9.09,9.09,0,0,0,1.63.37,10.7,10.7,0,0,1,1.82.41,13.3,13.3,0,0,0,1.61.51l.12-.11a3,3,0,0,1,1.93-1,15.59,15.59,0,0,1,3,.71,5.65,5.65,0,0,1,1.55.83,2.53,2.53,0,0,1,1.47,1.85l.33.14a2.24,2.24,0,0,0,.89.18l.58,0a6.16,6.16,0,0,0,.82,0h.11a2.39,2.39,0,0,1,2-.75,4.42,4.42,0,0,0,1-.12,9.6,9.6,0,0,1,1.82-.21,10.61,10.61,0,0,0,2.69-.42l-.39-.4a19.2,19.2,0,0,1-1.31-1.6l-.27-.36a1.54,1.54,0,0,0-.2-.19,2,2,0,0,1-.65-2.6,1.55,1.55,0,0,1,.28-1.23,2.08,2.08,0,0,1,1.77-.69l.58,0c-.07-.16-.17-.35-.27-.54a4.51,4.51,0,0,1-.69-2.05v-2.74l1.22-.17c2.5-.36,2.86-.27,3.09-.21a1.88,1.88,0,0,1,.56.25,2,2,0,0,1,.39-.6,2.12,2.12,0,0,1,1.36-.63c0-.29.06-.52.06-.61v-.12a3.48,3.48,0,0,1,.58-2.52c.18-.21.41-.46.64-.69s.42-.44.49-.53a5.53,5.53,0,0,1,.37-.59l.17-.25a2.86,2.86,0,0,0,.14-.54c0-.31.08-1.89.08-1.89l0-.32.16-.28a3.09,3.09,0,0,1,2.07-1.55,2.5,2.5,0,0,1,.66,0,2.59,2.59,0,0,1,1-.84,2.65,2.65,0,0,1,2,0,3.26,3.26,0,0,1,2.09-.92,3.16,3.16,0,0,1,2.05.65,3.74,3.74,0,0,1,1.35-.31,1.86,1.86,0,0,1,.27-.67,5.28,5.28,0,0,0,0-2.76l-.6-.18c-1.37-.41-3.07-.91-3.19-3.14l0-.33c0-.2,0-.34,0-.46l-.29-.24a6.35,6.35,0,0,0-.52-.38,2.47,2.47,0,0,1-1.3-2.33,5,5,0,0,0-.06-.71c-.23-1.69.57-2.21,1.28-2.36a3.36,3.36,0,0,1,1.66.23,3.31,3.31,0,0,1-.17-.54l-.46-.25a4.11,4.11,0,0,0-.71-.31,5,5,0,0,0-1.19-.3,9.13,9.13,0,0,1-1.07-.22,1.18,1.18,0,0,0-.33,0,2.83,2.83,0,0,1-2.37-1.22c-.38-.45-.8-.46-1.84-.38a3.83,3.83,0,0,0-.52.28c-1.58.93-2.78.78-3.57-.45a4.42,4.42,0,0,0-.78-.72c-.84-.68-2.42-2-1.56-3.89a1.45,1.45,0,0,0,.14-.58c.12-1.68,1.42-1.93,2.56-2.15a8.64,8.64,0,0,0,2.8-1.25,9.18,9.18,0,0,1,1.61-.84c.47-.17.76-.25,1.05-.34a16.57,16.57,0,0,0,1.69-.6,3.31,3.31,0,0,0,1.09-.58A10.7,10.7,0,0,1,314.1,80a8.8,8.8,0,0,1,1.6-.77,1.53,1.53,0,0,0,.84-.62,15.6,15.6,0,0,0,1.14-1.42L319,75.15l1.13,2.17A9.05,9.05,0,0,0,322,80a5.13,5.13,0,0,0,1.21.49,5.83,5.83,0,0,1,1.28.52,5.44,5.44,0,0,1,1,.78c.3.28.46.41.58.43a4,4,0,0,1,2.6,1.41l.16.17a3.69,3.69,0,0,1,.93,1.46c.07.17.15.38.29.66s.23.49.31.68l.1.23c.32.11.59.21.81.3a2,2,0,0,1,.9-.35c.69-.09,2.56,0,3,1.33.06.14.39.73.6,1.08l.37.65a3,3,0,0,1,.29,2.4,4.43,4.43,0,0,1-.23.65,1.21,1.21,0,0,0-.15.49,1.51,1.51,0,0,0,.08.41,5.85,5.85,0,0,1,.23,1.13c0,.14,0,.27,0,.38h0a8.39,8.39,0,0,0,1.85.82l.73.23.21.74a3.89,3.89,0,0,1,.16,1,1.92,1.92,0,0,1-.23.87.68.68,0,0,0-.09.43c0,.09,0,.17,0,.25l.41.13c2.18-.74,2.89.42,3.1,1,.07.18.16.35.24.53a3.75,3.75,0,0,1,.54,2l0,.47a.51.51,0,0,0,.11.15,5.52,5.52,0,0,1,1.17,1.77l.07.25.64,3.47-.7.53a37.79,37.79,0,0,1-4.67,3.28c-.24.16-.84.61-1.38,1a49.86,49.86,0,0,1-7.14,4.72,44.84,44.84,0,0,0-8,5.06,18,18,0,0,1-2.54,1.73,5,5,0,0,0-.86.57l-.21.23c-.32.38-.46.46-1.51,1.07l-.48.28a2.47,2.47,0,0,0-1.15,1.27,3.07,3.07,0,0,1-1.4,1.57,2.48,2.48,0,0,0-.73.5,3.78,3.78,0,0,1-.42.35c-.42.58-1.69,2.9-2.31,4-.31.56-.57,1-.73,1.32a2.63,2.63,0,0,0-.24.48,3.35,3.35,0,0,1-.36,1.13,2.55,2.55,0,0,1-1.3,1.2l-.05,0a1.1,1.1,0,0,0,0,.13,2.1,2.1,0,0,0,0,.77,2,2,0,0,1-1.5,2.48,4.11,4.11,0,0,0-.46.2,4.6,4.6,0,0,1,1.92,2.72,1.66,1.66,0,0,1-.39,1.31c-.12.18-.41.75-.59,1.09s-.32.63-.44.83l-.1.17a10.51,10.51,0,0,1-1.23,1.78,5.43,5.43,0,0,1-.87.8c-.65.51-.87.68-.67,1.69l.42,2.18-2-.5s0,.06,0,.1a8.66,8.66,0,0,0,.12,1.13,4.08,4.08,0,0,1-.15,2.47h.45l.13,1.27c.05.51.23,3.12-1.36,4.49l-.28.25a1.77,1.77,0,0,1,.63,1.41c0,1.23-1.21,1.85-2.45,2.51a8.53,8.53,0,0,0-1,.55l-.5.4a6.93,6.93,0,0,0-1.3,1.23,5.26,5.26,0,0,0-1,1.59,1.48,1.48,0,0,1-.51,1.09,1.71,1.71,0,0,1-1.36.38,5.76,5.76,0,0,0-.07,1.41c0,1.45.08,3.65-2.5,4.8-2.85,1.28-4.81,2.64-5.12,3.13a3.57,3.57,0,0,1-1.88,1.49,3.73,3.73,0,0,0-1,.52,10.69,10.69,0,0,0-1.23,1.07,3.24,3.24,0,0,1-.81,1.08c-.12.12-.34.34-.48.51l0,.17c.14.59.53,2.17-.89,2.81a5.41,5.41,0,0,1-1.94.31,6.52,6.52,0,0,0-1.1.1l-.53.18a7.42,7.42,0,0,0-1.24.5,3.69,3.69,0,0,1-1.06.39h0a3.55,3.55,0,0,1-1.25,1.71v0a2.71,2.71,0,0,1-2.09,2.44,5,5,0,0,0-1.22.52,4.38,4.38,0,0,1-1.54.58s-.25.22-.41.35a3.85,3.85,0,0,1-3.59,1.11,6.66,6.66,0,0,0-1.76-.28,8,8,0,0,1-.82-.06,4.38,4.38,0,0,1-.85-.21l-.09,0-.11.07a5.88,5.88,0,0,1-1.38.65,6.88,6.88,0,0,0-2.25,1.25,10.18,10.18,0,0,0-1.57,1.47,8.57,8.57,0,0,1-1.73,1.55,3,3,0,0,0-1,1.29,4.38,4.38,0,0,1-1.86,2.1l-.86.48c-1.34.77-2.74,1.57-4,1.37l-1.31-.21.16-1.73c0-.14,0-.28,0-.42a2.75,2.75,0,0,1-2,.46c-1-.09-1.74-.23-2.3-.34a7.25,7.25,0,0,0-.91-.14H239v1.42l-1.77-.45a8,8,0,0,0-3.83-.25c-.44.25-.95.51-1.45.76a13.09,13.09,0,0,0-1.72,1,7.83,7.83,0,0,1-.81,1.45l-.39.54-.67,0a36.14,36.14,0,0,1-4.57,0c-.56,0-1-.12-1.41-.17a5.23,5.23,0,0,0-.86-.09c-.24.21-.4.33-.53.43a5,5,0,0,0-.86.85c-.24.26-.35.42-.43.52a2.39,2.39,0,0,1-1.18.87l-.49.22c-.58.27-1.12.46-1.64.65a9.05,9.05,0,0,0-2.1.95c-1.28.85-4,2.66-4,2.66l-1.71,1.12-.15-.67a9.86,9.86,0,0,0-.9.86,3.93,3.93,0,0,1-3.94,1.7c-.52-.13-.83-.24-1-.31l-.05,0-.36,0c-.13,0-.39,0-.57,0a3.21,3.21,0,0,1-3.17,1,7.43,7.43,0,0,0-1.92-.41l-.38.45c-.62.76-1.91,2.34-3.33,1.24a6.69,6.69,0,0,0-1.78-.8c-1.12-.26-2.77-1.32-2.92-2.89a2.69,2.69,0,0,0-.09-.44,12.39,12.39,0,0,0-1.46-.09,5.47,5.47,0,0,1-1.95,1.36,4.37,4.37,0,0,0-1.13,1.28l-.94,1.53-1.18-1.17a1.42,1.42,0,0,0-.87.14,6.49,6.49,0,0,0-.94.45,1.45,1.45,0,0,1-.29,1.15,1.58,1.58,0,0,1-1.72.53,2.08,2.08,0,0,1-1.35-1.16,7.46,7.46,0,0,0-2.57,1l-1.42.89-.59-1.44a8.53,8.53,0,0,1-2.75,2.31,1.66,1.66,0,0,0-.35.27,3.21,3.21,0,0,1-2.24.95,2.86,2.86,0,0,0-1.82.54c-.86.6-2.55,1.49-2.63,1.53l-.38.2-.42,0a10.38,10.38,0,0,1-4.09-1.2l-1.26-.87a4.67,4.67,0,0,0-1.42.74,3,3,0,0,0-.38.61,3.63,3.63,0,0,1-2.14,2,8.46,8.46,0,0,1-2.77.18,7.86,7.86,0,0,0-2.7.18c-2,1.17-4.8,2.53-6.82,2.34a8.68,8.68,0,0,1-2-.48,4.07,4.07,0,0,0-2.47-.26,3.69,3.69,0,0,1-2.86-.43,3.36,3.36,0,0,1-1.15-1.29,13.72,13.72,0,0,1-3.32-1.68,7.77,7.77,0,0,0-2,1.49,3.17,3.17,0,0,1-1.45,1.22l-.2.1a10.2,10.2,0,0,0-.13,1.16c-.1,1.28-.22,2.73-1.59,3l-.94.28a27.19,27.19,0,0,1-5.2,1.25,8.22,8.22,0,0,1-2-.21,3.47,3.47,0,0,0-2.34.08c-.83.38-1.66.72-2.4,1a16.61,16.61,0,0,0-1.95.87l-1.25.82-.83.54a12.16,12.16,0,0,0-1.85,1.62,4.78,4.78,0,0,1-2.12,1.53c-1.13.25-2.4.47-3.87.66a6.2,6.2,0,0,1-1.89-.06c-.69-.1-1-.15-2.06.66A9.07,9.07,0,0,0,92,246.28a4.64,4.64,0,0,1-2.84,1.65c-1.73.43-1.77,1-1.8,1.36-.09,1.21-1.18,2.2-2.85,3.57-.33.27-.78.64-.93.8s-.31.53-.53.88a13.61,13.61,0,0,0-1,1.83v1.4l-.65.42c-1.11.72-4.15,2.72-4.88,3.33a10,10,0,0,1-3,1.61h0a6.42,6.42,0,0,1-3.21,1.9l-1.48.5a18.22,18.22,0,0,0-3.12,1.21c-1.47.86-6.94.71-9,.14a13.12,13.12,0,0,0-4.25-.55,3.1,3.1,0,0,1-.6,2.21,1.46,1.46,0,0,1-.09.68c-.29.75-.77.88-2.21,1.26l-.25.07a19.12,19.12,0,0,1-2.36.48,2.78,2.78,0,0,0-.45.08s0,0,0,.09l-.06.08c-.3,1.39-1.51,1.39-2.39,1.39a7,7,0,0,1-1.41-.13,2.94,2.94,0,0,0-1.41.1,3.79,3.79,0,0,0-1,.32,3.6,3.6,0,0,1-2.82.07c-1-.24-1.27-.15-1.56,0a4,4,0,0,1-1,.26,2.11,2.11,0,0,1-1,0l-.67.05-.61.06C31.65,273.4,31.15,273.45,30.67,273.45Zm-2.75-3.21a2.3,2.3,0,0,1,.91.11,5.19,5.19,0,0,0,.67.14,7.39,7.39,0,0,0,2.68,0l.62-.06a6.28,6.28,0,0,1,1.67,0l.18-.06a4.77,4.77,0,0,1,3.22-.08,5.23,5.23,0,0,0,.92.16h0s0,0,.05,0a6.48,6.48,0,0,1,1.61-.53,5.51,5.51,0,0,1,2.5-.11,4.08,4.08,0,0,0,.85.08,3.38,3.38,0,0,1,.31-.44,3,3,0,0,1,2.28-1.17,16.39,16.39,0,0,0,2-.41l.25-.07.24-.06a3,3,0,0,1,.45-.74c.14-.18.14-.18.11-.49a2.41,2.41,0,0,1,.77-2.23c1.47-1.32,5-.61,7.05-.08a20,20,0,0,0,6.93.12,19.37,19.37,0,0,1,3.59-1.42l1.47-.5c1.53-.52,1.8-.86,2-1.05a2.35,2.35,0,0,1,1-.77l.19-.07a7.48,7.48,0,0,0,2.19-1.13c.79-.65,3.29-2.31,4.51-3.11A7.48,7.48,0,0,1,80.62,253c.19-.31.37-.58.45-.74a5.83,5.83,0,0,1,1.62-1.63A12.07,12.07,0,0,0,84.52,249c.19-1.93,1.48-3.16,3.93-3.77.92-.23,1-.32,1.42-.79a11.81,11.81,0,0,1,1.9-1.76,4.81,4.81,0,0,1,4.2-1.2,3.53,3.53,0,0,0,1.1.05c1.33-.17,2.48-.37,3.51-.59a10.22,10.22,0,0,0,.84-.79,14.68,14.68,0,0,1,2.31-2l.83-.54,1.18-.78a15.29,15.29,0,0,1,2.5-1.16c.7-.28,1.49-.6,2.28-1a6.1,6.1,0,0,1,4.06-.29,5.32,5.32,0,0,0,1.32.16,28.57,28.57,0,0,0,4.51-1.13l.47-.14c0-.2,0-.43.05-.61a7.91,7.91,0,0,1,.31-2,2.83,2.83,0,0,1,1.58-1.6,2,2,0,0,0,.29-.16c.58-1,3.14-3,4.65-3h0a1.74,1.74,0,0,1,1.44.75,16.56,16.56,0,0,0,3.16,1.48l.73.27.16.77c.1.35.37.46.94.34a6.83,6.83,0,0,1,4,.34,6.19,6.19,0,0,0,1.41.35c.94.08,3-.69,5.13-2a8.06,8.06,0,0,1,4.23-.57,9.12,9.12,0,0,0,1.77,0c.2-.07.25-.12.53-.64a5.46,5.46,0,0,1,.78-1.19,8,8,0,0,1,3.38-1.77l.65-.18,2.38,1.66a7.24,7.24,0,0,0,2.35.66c.58-.31,1.46-.81,1.93-1.13a5.72,5.72,0,0,1,3.44-1.05c.08,0,.1,0,.37-.24a4,4,0,0,1,1.17-.77,8.85,8.85,0,0,0,1.8-1.69l.4-.43a2.22,2.22,0,0,1,2.06-.77,2.4,2.4,0,0,1,1.27.7,8.49,8.49,0,0,1,2.58-.78,2.9,2.9,0,0,1,1.63.24,8.11,8.11,0,0,1,1.9-1,4.3,4.3,0,0,1,2.33-.32,5.08,5.08,0,0,1,1.68-1.41,2.32,2.32,0,0,0,1.08-.77c.42-.62,1.13-1.19,4.75-.62l.72.11.33.65a6.75,6.75,0,0,1,.61,2,1.66,1.66,0,0,0,.75.48,9.36,9.36,0,0,1,2.06.81l.23-.27a8.52,8.52,0,0,1,.79-.89c1.17-1.07,3.4-.47,4.5-.09a.88.88,0,0,0,.26-.14,3,3,0,0,1,2.61-1h.2a2.29,2.29,0,0,1,1.19.16c.17.06.42.14.83.24.18,0,.63-.22,1.05-.74a11.6,11.6,0,0,1,1.26-1.23c.36-.31.72-.64,1-.91a1.84,1.84,0,0,1,1.86-.62,1.76,1.76,0,0,1,.39.16l2.94-1.94a11.6,11.6,0,0,1,2.72-1.26c.48-.17.94-.34,1.41-.55l.52-.24.13-.06c.13-.17.28-.36.54-.64A7.44,7.44,0,0,1,219.3,209l.42-.33a3.49,3.49,0,0,1,3.08-.55c.34,0,.75.11,1.24.15a30.31,30.31,0,0,0,3.42,0,3.75,3.75,0,0,0,.18-.4c.38-1,1.55-1.58,3-2.32.45-.23.91-.45,1.3-.68a7,7,0,0,1,4.18-.39v-.7h4.07a8,8,0,0,1,1.42.18c.38.07.83.15,1.36.22l-.31-.77,1.8-.26a8.07,8.07,0,0,1,2,0c1.49.2,1.83,1.2,1.84,2.48l.83-.47.93-.52c.28-.15.39-.34.68-.9a5.78,5.78,0,0,1,1.88-2.31,5.77,5.77,0,0,0,1.24-1.11,13,13,0,0,1,1.94-1.82,9.64,9.64,0,0,1,3-1.69,3.38,3.38,0,0,0,.76-.34,2.7,2.7,0,0,1,2.66-.37,1.68,1.68,0,0,0,.33.09,5,5,0,0,0,.54,0,9.35,9.35,0,0,1,2.4.37c.23.06.43,0,1.05-.56a3.73,3.73,0,0,1,1.75-1,1.67,1.67,0,0,0,.62-.26,7.75,7.75,0,0,1,1.82-.77l.05,0V194a2.4,2.4,0,0,1,.81-1.63c.53-.44.54-.48.56-.61a2.35,2.35,0,0,1,2-1.83,2,2,0,0,0,.31-.08,9.23,9.23,0,0,1,1.75-.73l.49-.17a6.85,6.85,0,0,1,1.92-.27h.11a2.51,2.51,0,0,1,0-1.25,4.47,4.47,0,0,1,1.25-1.71l.16-.16a6.56,6.56,0,0,1,2.16-2.24,6.49,6.49,0,0,1,1.59-.89c.41-.17.45-.19.58-.39,1.14-1.81,5.5-3.82,6.36-4.2s.85-.7.82-2.15a7.9,7.9,0,0,1,.17-2.2,2.59,2.59,0,0,1,2.1-2.1,10.08,10.08,0,0,1,1.36-2,9.66,9.66,0,0,1,1.72-1.66l.47-.37a8.93,8.93,0,0,1,1.41-.86l.36-.19a2.09,2.09,0,0,1-.32-1,3.47,3.47,0,0,1,1.55-2.65,1.46,1.46,0,0,0,.33-.77h-.2a1.52,1.52,0,0,1-1.51-1.23c-.19-.93.63-2.31,1.44-3.05,0-.19-.06-.43-.08-.61a10.73,10.73,0,0,1-.15-1.54,3.07,3.07,0,0,1,1-2.54,2.17,2.17,0,0,1,.57-.32,4.06,4.06,0,0,1,1.78-2.84,3.45,3.45,0,0,0,.43-.38,7.83,7.83,0,0,0,1-1.37l.1-.18c.1-.18.24-.44.38-.72s.37-.71.5-1a4,4,0,0,0-1-.88,2.21,2.21,0,0,1-1.22-2.16c.14-1.34,1.53-2.15,2.43-2.53a4.75,4.75,0,0,1,0-1.21,2.72,2.72,0,0,1,1.66-2.25l0,0,0-.06a4,4,0,0,1,.6-1.57c.15-.27.4-.73.7-1.27,2.28-4.18,2.63-4.67,3.15-5l.12-.11a5.23,5.23,0,0,1,1.41-1,1.35,1.35,0,0,1,.12-.29,5.22,5.22,0,0,1,2.26-2.46l.48-.28c.5-.29.7-.4.82-.49a2.49,2.49,0,0,1,.32-.36,6.7,6.7,0,0,1,1.44-1,15.36,15.36,0,0,0,2.17-1.47,47.67,47.67,0,0,1,8.62-5.46,51.11,51.11,0,0,0,6.58-4.4,11.87,11.87,0,0,1,2-1.39c.47-.29,1.91-1.34,3.3-2.37l-.29-1.57a2.74,2.74,0,0,0-.49-.69,3,3,0,0,1-.94-2.3l.05-.59-.25-.5v0a1.91,1.91,0,0,1-.72.16,4.87,4.87,0,0,1-1.38-.32l-.36-.11a2.11,2.11,0,0,1-1.57-2.28c0-.11,0-.23,0-.37a3.6,3.6,0,0,1,.1-1.11,8.53,8.53,0,0,1-1.5-.79,2.16,2.16,0,0,1-1.23-2,2.3,2.3,0,0,0,0-.36,3.11,3.11,0,0,0-.13-.64,4.28,4.28,0,0,1-.19-1,3.69,3.69,0,0,1,.38-1.84,2,2,0,0,0,.09-.21,1,1,0,0,0,0-.2h0a.63.63,0,0,0-.07-.16l-.34-.6c-.23-.41-.41-.72-.54-1a1.65,1.65,0,0,1-.72.49,2,2,0,0,1-1.55-.23,7.11,7.11,0,0,0-.86-.35,2.75,2.75,0,0,1-1.88-1.84c-.06-.15-.14-.32-.24-.52-.19-.38-.3-.66-.39-.89a1,1,0,0,0-.3-.49l-.18-.18c-.46-.47-.55-.54-.89-.58a3.72,3.72,0,0,1-2.2-1.17,3.12,3.12,0,0,0-.47-.39,3.27,3.27,0,0,0-.7-.26,7.88,7.88,0,0,1-1.8-.75,6.67,6.67,0,0,1-1.91-2l0,0a4.19,4.19,0,0,1-2,1.41,6,6,0,0,0-1.14.55,8,8,0,0,0-1,.7,5.93,5.93,0,0,1-1.81,1,19.07,19.07,0,0,1-1.93.68c-.25.08-.51.15-.91.29a7.55,7.55,0,0,0-1.09.6,11.08,11.08,0,0,1-3.73,1.61l-.33.07a4.29,4.29,0,0,1-.28.93,6.24,6.24,0,0,0,.71.63,8.21,8.21,0,0,1,1.06,1l.06,0a4,4,0,0,1,1.74-.66,4.49,4.49,0,0,1,4.22,1.37,2.35,2.35,0,0,0,.2.21h0a3.93,3.93,0,0,1,1,.13,6.34,6.34,0,0,0,.76.15,7.75,7.75,0,0,1,1.76.45,6.61,6.61,0,0,1,1.09.5,7.39,7.39,0,0,0,.66.34c.58.27,1.12.52,1.27,1.25l.15.69-.12.15a6,6,0,0,1,.47,1.63c0,.12,0,.25.07.42a1.77,1.77,0,0,1-.54,1.77,2,2,0,0,1-2.05.17l-.18-.06-.11,0,.31.24a2.92,2.92,0,0,1,1.38,2.77l0,.32a.67.67,0,0,0,0,.19,7.15,7.15,0,0,0,1.14.39l.72.22a3.1,3.1,0,0,1,2,2.83,8.89,8.89,0,0,1-.45,4,7.09,7.09,0,0,0,0,.87l.29,2.65-2.36-1.24a1.07,1.07,0,0,0-1.26.19l-1.24,1.31-1-1.51c-.18-.27-.38-.45-.53-.45h0c-.13,0-.35.16-.52.49l-.59,1.13-1.19-.48-.44-.2-.31-.15a2.65,2.65,0,0,0-.16.41l-.67,2.16-1.46-1.36c0,.41,0,.86,0,1a4.85,4.85,0,0,1-.31,1.49,3.64,3.64,0,0,1-.5.89,3.82,3.82,0,0,0-.22.33,5.2,5.2,0,0,1-1,1.17c-.15.15-.3.31-.43.46a3.63,3.63,0,0,0,0,.6c0,.13,0,.24,0,.32,0,.35-.14,1.38-.25,2.19l-.17,1.22h-1.59c-.11.88-.71,2.15-2,2.15a2.81,2.81,0,0,1-1.83-1l-.21-.19-.69.07v.27c0,.08.24.49.37.74a7.86,7.86,0,0,1,.52,1.13,3.54,3.54,0,0,1,.1,2c0,.08,0,.17,0,.26a1.71,1.71,0,0,1-.68,1.17,2.07,2.07,0,0,1-1.69.25l0,0,.3.4a16.48,16.48,0,0,0,1.14,1.39,11.2,11.2,0,0,0,1.73,1.45L305,134.1l-1.86,1.16a11,11,0,0,1-2.64,1.21,13.5,13.5,0,0,1-3.45.52,6.89,6.89,0,0,0-1.3.16,6.78,6.78,0,0,1-1.58.17l0,0a1.61,1.61,0,0,1-1.72.71h-.29a10,10,0,0,1-1.13,0l-.43,0a5,5,0,0,1-1.77-.38,2.88,2.88,0,0,1-2-2.08l-.17-.06-.19-.18a2.91,2.91,0,0,0-.8-.45c-.6-.2-1.4-.42-1.85-.51l-.26.24a5,5,0,0,1-.77.62c-.84.51-1.91.26-3.84-.44a9.34,9.34,0,0,0-1.32-.28,10.6,10.6,0,0,1-2.25-.54,6.37,6.37,0,0,1-3.1-2.77,5.67,5.67,0,0,1-.55-2.15,3.67,3.67,0,0,0-.09-.64c-.06-.19-.14-.4-.22-.62a11.83,11.83,0,0,1-.62-2,.86.86,0,0,0-.3-.45l-.86-.65.24-.7a2,2,0,0,1-2.15.35,1.84,1.84,0,0,1-1.21,2.15,3.64,3.64,0,0,0-.92.51l-.42.31a3,3,0,0,1-.75,1.05l-.06.08a1.75,1.75,0,0,1,.12.29,2.25,2.25,0,0,1,.13,1.54,1.61,1.61,0,0,1-1.39,1.22,2.43,2.43,0,0,0-.71.26c-1.39.66-2.42.4-3.13-.79a1,1,0,0,0-.19-.27,1.54,1.54,0,0,0-.5-.32,1.89,1.89,0,0,0-.36.22,5.81,5.81,0,0,1-1.55.82.57.57,0,0,0-.15.06,2.41,2.41,0,0,0-.2.33,7.81,7.81,0,0,1-.45.75c-.16.22-.27.41-.38.59a7.63,7.63,0,0,1-1.3,1.67l-.13.13c-1.44,1.46-2.57,1.39-4.32-.26l-.14-.12c.06.46.21,1.08.31,1.56a6.29,6.29,0,0,1,.22,1.28c0,.08,0,.23,0,.43,0,.6-.05,1.7,0,2.5a2.78,2.78,0,0,1-2.35,2.89l-.21.07a3.11,3.11,0,0,0-.52.35,5.75,5.75,0,0,1-1.83,1c-.5.15-1,.33-1.47.49a1.69,1.69,0,0,1,.24.86,6.32,6.32,0,0,1-1.26,3.74c-.48.61-.8,1-1.06,1.26a6.87,6.87,0,0,0-.49.6c-.12.17-.19.28-.24.36a3.79,3.79,0,0,1-.62.77,2.15,2.15,0,0,0-.19.31,6.47,6.47,0,0,1-1.29,1.65,2.34,2.34,0,0,1-2.72.68l-.13-.05a7.28,7.28,0,0,1-2.27-1.44l-.16,0a10.17,10.17,0,0,1-1.57,0,.93.93,0,0,0-.2,0l-.27.33a9.82,9.82,0,0,1-1.24,1.25,1.74,1.74,0,0,0-.63,1.54l1.79,12L227,157.77a10.85,10.85,0,0,0-1.18-2.08,5.09,5.09,0,0,1-1-2c0-.17-.1-.37-.2-.65a4.79,4.79,0,0,1,.91-4.57,4.88,4.88,0,0,0,.53-1.2,7.36,7.36,0,0,1,.9-1.91,8.67,8.67,0,0,1,1.42-1.42,7.9,7.9,0,0,0,1.28-1.28c.27-.38.66-.89,1.05-1.42s1.1-1.46,1.35-1.84v0c0-.12.05-.37.06-.56l-.08-.06a14,14,0,0,1-2.23-2.06c-.52-.6-1-1.17-.78-1.89,0-.08,0-.17,0-.25a2.83,2.83,0,0,1-1.11.15h-.24a7.28,7.28,0,0,0-.7.26c-.85.35-1.91.78-2.71,0s-.5-1.5-.18-3a3.21,3.21,0,0,1-.57,0,4.29,4.29,0,0,0-.45.22h0c0,.18,0,.42,0,.7v3.9a3.75,3.75,0,0,0,.07.87,3.25,3.25,0,0,1,0,1.36,3.14,3.14,0,0,0,.41,1,13.39,13.39,0,0,1,.71,1.48l.1.24a2.72,2.72,0,0,1,1.07.76c1.05,1.17.51,2.81.18,3.79-.06.17-.11.32-.14.43,0,1.15-1.09,1.69-1.77,2a1.77,1.77,0,0,1-.53.84,2.37,2.37,0,0,1-1.76.49,6.36,6.36,0,0,1-1.68-.34,1.82,1.82,0,0,0-.62-.13,10.27,10.27,0,0,1-3.92-.64,3.44,3.44,0,0,1-1.89-1.32l-.52.06a3.38,3.38,0,0,1-2-.12,1.15,1.15,0,0,0-.89,0,3,3,0,0,1-.29,1.47,2.25,2.25,0,0,1-1.94,1.24l-.21,0a2.57,2.57,0,0,1,.28.27,1.77,1.77,0,0,1,0,2.52.68.68,0,0,0-.21.48,8.56,8.56,0,0,0,0,1.09,2.55,2.55,0,0,1-.36,1.63l.92,1.08.14-.1a2.67,2.67,0,0,1,2.26-.66,2.46,2.46,0,0,1,1.57,1.45,1.61,1.61,0,0,0,.37.56l.1,0a2.53,2.53,0,0,1,.58.17l.48-.92,2,3.42c.48.28.95.54,1.08.59a2.37,2.37,0,0,1,1.13,1,3.68,3.68,0,0,0,.37.48,10.36,10.36,0,0,0,2.28,1l.4.14a8,8,0,0,1,2,1.09l.88.69-1.18,2.59c0,.13,0,.28,0,.4a16.27,16.27,0,0,0,1,2.39,7.75,7.75,0,0,0,1.28.21,5.19,5.19,0,0,1,3,1,7.61,7.61,0,0,0,1.2,1l.29.19c1,.65,1.1,1.94.37,3.83l4.14,2.66-.37,1.06s-.57,1.64-.74,2a5.09,5.09,0,0,1-1.13,1.77c-1.3,1.46-3.28.07-5-1.15-.45-.32-.88-.62-1.18-.78a9,9,0,0,0-1.89-.7,8.75,8.75,0,0,1-1.76-.64,20.63,20.63,0,0,0-2.8-1.09,18.73,18.73,0,0,1-3.55-1.86,9.16,9.16,0,0,0-2.39-1.11,5.65,5.65,0,0,1-2.78-1,5.71,5.71,0,0,0-1.72-.29c-.4,0-.78-.06-1.11-.11l-.76-.11c-.89-.13-2-.29-3.15-.54l-.21,0c-.93-.21-1.44-.32-1.91-1.11a2.28,2.28,0,0,0-.2-.29c-.44-.55-.84-1-1.11-1.25l-.27,0a7.79,7.79,0,0,1-1.09-.14,4,4,0,0,1-1.22-.45c-.13-.07-.29-.15-.54-.27a8.5,8.5,0,0,0-.42.89l-.2.5-.49.24a5.28,5.28,0,0,0-1.18.76,8.72,8.72,0,0,0,0,1.46v.49a2.16,2.16,0,0,1-1.91,2.28l-.08,0a8.88,8.88,0,0,1-2.36,1,5.79,5.79,0,0,1-2,1.05c-1.67.37-2.33-1.42-2.73-2.49a6.94,6.94,0,0,0-.32-.77,2.52,2.52,0,0,0-.54-.52,9.54,9.54,0,0,0-1.73-.5,7.37,7.37,0,0,1-2-.57c-.26-.1-.52-.21-.77-.28a8.83,8.83,0,0,1-3-1.65h-.19a2.23,2.23,0,0,1-1.1-.2,6.8,6.8,0,0,1-1.69-1.49l-2.64-.19c0,.16-.06.34-.09.53-.16,1.14-.4,2.34-.41,2.39l-.1.48-.37.32a4.64,4.64,0,0,1-2,1,2.25,2.25,0,0,1-1.72-.32c0,.36,0,.83.07,1.45.13,1.67.15,3.52-1.35,4.37a6.85,6.85,0,0,0-1,.92l-.58.61c-.8.8-2.09.86-3.34.92a10.22,10.22,0,0,0-1.29.11,2.52,2.52,0,0,1-2.8-.85l0,0-.26.24-.34.09a10.43,10.43,0,0,1-2.8.25,4.87,4.87,0,0,1-2.08,1.25,2.1,2.1,0,0,0-.88.45,4.69,4.69,0,0,1,.57,1,4.38,4.38,0,0,1-.5,4.36,5.12,5.12,0,0,0-.42,1.7,10.73,10.73,0,0,1-.68,2.75c-1,2.33-4,2.86-4.35,2.91l-1.3.2-.3-1.29a16.49,16.49,0,0,0-.9-2.89,11.52,11.52,0,0,0-1.32-.73,16.19,16.19,0,0,1-1.7.25c-1.47.12-2.63-.86-3.58-1.64l-.23-.19a4,4,0,0,1-1.38-2.76,3.28,3.28,0,0,1-2.14-.78,4.29,4.29,0,0,0-.53-.33,3,3,0,0,0-1-.16l-.71,0a1.54,1.54,0,0,1-1.36-1.1c-.3-1.06.54-1.72,1.22-2.25a1.74,1.74,0,0,0-.21-.67,3.59,3.59,0,0,1-.48-1.62v-.08a3.3,3.3,0,0,1-.55-.8,11.23,11.23,0,0,0-1.38,1.27.85.85,0,0,0-.21,1l.41.73-.47.68a3.7,3.7,0,0,1-1.87,1.47l-.14,0a10.21,10.21,0,0,1-3.18.66,3.5,3.5,0,0,0-1,.28l.49,2.74-2,.86.07,1.24-1,.77.75,1.49-.72.72a7.9,7.9,0,0,1-2.16,1.4,17,17,0,0,0-2,1.09l-.58.38-.66-.22a16.8,16.8,0,0,0-2.74-.72,3.4,3.4,0,0,1-2-.92,3.51,3.51,0,0,0-1.61-.84c-.94-.09-2.62-.4-4-.68a4.7,4.7,0,0,0,0,2.2c.64,1.72-.49,4.23-.86,5l-.57,1.13-2.77-1-.76.55a2.8,2.8,0,0,1-2.22.58,1.42,1.42,0,0,0-.45,0,8.84,8.84,0,0,1-4.51-.64,12.44,12.44,0,0,0-3.14-.46,3.22,3.22,0,0,1-1.92-.8l0,0a4.9,4.9,0,0,1-1.64.23h-.21a5.05,5.05,0,0,1-1.83-.19,11.46,11.46,0,0,0-1.8-.27,26,26,0,0,1-3.89-.39,5.4,5.4,0,0,1-1.59,2.39c-.29.19-1,.68-4.48.29l-.44,1.14-1.19-.26c-.07,0-.3-.07-.58-.15l-.11.25-.44,1.09-1.16-.23a22.85,22.85,0,0,1-2.32-.6c-1.5-.5-1.58-2.36-1.64-3.6h0a22.41,22.41,0,0,1-2.4-1.42l-2.52-1-.15,1.55L54.46,200s-1.89-1.1-2.6-1.5a6.64,6.64,0,0,1-.94-.64,1.73,1.73,0,0,0-.46-.31c-.06,0-.29,0-.45,0a4.68,4.68,0,0,1-.93-.05c.4,1.26.89,2.87,1.18,4a2.81,2.81,0,0,1-.21,2.22,2.94,2.94,0,0,1-2,1.25l-.12,0a4.6,4.6,0,0,1-1.38.57,20.61,20.61,0,0,0-1.67,1.4c-.16.25-.59.73-3.09,2.46,0,.2,0,.47,0,.8s0,.52,0,.76a7.45,7.45,0,0,1-.34,3.24,4.42,4.42,0,0,1-2.05,2.71,6.34,6.34,0,0,1-1.25,2.26,17.27,17.27,0,0,0-1.76,2.12,6.52,6.52,0,0,1-3.14,1.9l-.34.1-.35-.07a12.09,12.09,0,0,1-1.66-.46,2.59,2.59,0,0,1-1.72-1.76l-.18-.4c-.21-.45-.28-.47-1.07-.54a2.22,2.22,0,0,0-1,.24l-.5.26-3-.85-.21-.78s-.33-1.23-.57-2.38a3,3,0,0,1,0-1.22l-.21-.09c-.25-.11-.48-.2-.72-.29a10.44,10.44,0,0,1-1.47-.65,3.15,3.15,0,0,1-.62-.46,8.62,8.62,0,0,1-1.8,1.56,19.74,19.74,0,0,1-2.45,1.11c-.12.48-.29,1.11-.51,1.73a5.36,5.36,0,0,0-.38,1.51l0,.19a1.77,1.77,0,0,1-.91,1.41,2.4,2.4,0,0,1-2.3-.27l-.1,0a1.88,1.88,0,0,0-.35-.12c0,.23.08.52.15.9a5.85,5.85,0,0,1,.09,1.7,21.55,21.55,0,0,0,0,2.71,7.21,7.21,0,0,1-.91,4.45,5.56,5.56,0,0,0-.51,1.13l-.21.69-.68.24a3.23,3.23,0,0,0-.47.2V233c0,.13,0,.25.05.38a3.78,3.78,0,0,1-.32,1.75,2.64,2.64,0,0,1,.46,1.06c.05.25.13.52.22.83a18.73,18.73,0,0,1,.59,2.59,2.07,2.07,0,0,0,.4.86,4.73,4.73,0,0,1,.79,3.8c-.11.7.44,1.58,1.07,2.59a9.22,9.22,0,0,1,1.81,4.91,5.25,5.25,0,0,0,1,3.13,6.29,6.29,0,0,1,1.05,2.59c.3,2.36-1.92,3.3-3.12,3.8-.22.09-.55.23-.69.31,1.67,1.31,1.39,3.67,1.26,4.84,0,.12.32.34.51.42l2.18.83-1.66,1.5.17.16h.33a5.75,5.75,0,0,1,1.14.07,6.75,6.75,0,0,1,1.93.77l0,0a21.58,21.58,0,0,0,3-1,2.91,2.91,0,0,1,2.82.08,6.35,6.35,0,0,0,.79.32l.57.18a7.07,7.07,0,0,0,2.09.4l.82.08Zm-10.11.07ZM82,256.41h0Zm2.52-7.32h0Zm0-.18Zm16-8ZM5.94,236.87h0Zm115.76-3.82h0Zm7.61-6.23h0Zm-.11-.16h0Zm49.74-3.92h0Zm2.23-1.08h0Zm9.64-2.75ZM44.91,206.81v0Zm27.5-5.19Zm14.48-1.32Zm-4.55-.55h0Zm.26,0Zm178.77-1Zm-151.48-3.31Zm32.12-.22Zm139.52-6.89Zm1.42-2.69,0,0Zm-150.82,0,0,.08ZM161.84,182Zm38.06-8.73Zm-3.23-1Zm18.75-7.76h0Zm21.29-11.7h0Zm-13.57-3.92Zm85.56-1.55,0,0Zm-83.36-.72v0Zm81.32-1.24,0,0ZM232,139.67s0,.08,0,.13S232,139.72,232,139.67Zm77.2-.08Zm-16.72-1.52h0Zm-.16,0h0Zm-61.56-4.26h0Zm-8.9-1.25h0Zm92.12-.92h0Zm0,0h0Zm-65.91-.08h0Zm-26.21-1.83h0Zm85.66-15v0Zm5.42-3Zm8.92-2.32a1.42,1.42,0,0,1-.42.46A1.27,1.27,0,0,0,321.85,109.45Zm-3.1-14.55,0,0Zm-6.25-4Zm20-1.87h0Z"/></svg>