<svg id="Layer_1" data-name="Layer 1" xmlns="http://www.w3.org/2000/svg" viewBox="0 0 350 350"><defs><style>.cls-1{fill:#999;}.cls-2{fill:#f90;}</style></defs><title>M</title><path class="cls-1" d="M339.64,154.16l.18-.61a118.44,118.44,0,0,1-40.88-19.06c-2.83-2.06-5.88-4.35-9.38-4.29-3.16.05-7.77,1.16-8.33-1.95a8.66,8.66,0,0,1-4.1,2.74c-1.63.33-3.65-.71-3.68-2.37.27,1.76-2.28,2.36-4,2.18a145.6,145.6,0,0,1-28.68-6.42c-5.12-1.61-21.71-4.19-22.55-10.33-1.44-10.52,2.24-21.81,11.26-27.58,5.24-3.35-1.56-6.9-4.27-7.55-5.57-1.32-11.9.14-17.25,1.72-7.81,2.3-15.74,5.49-23.81,4.43l-1.29-19.59c-2.74,5.08-8.15,8.29-13.76,9.68s-11.46,1.2-17.24,1l-26.2-.9c11,10.64,27.53,13,40.36,21.36l-11.71,17c-6.22,9-12.61,18.25-21.45,24.76a49.44,49.44,0,0,1-7.93,4.77c-9.23,3.86-18.67,7.85-26,14.62-8,7.36-13.55,17.94-23.56,22.23a11.21,11.21,0,0,1,.52-7.1c-2.67-1.63-7.3.61-9.3-1.82a10,10,0,0,0-1.2-1.16c-1.61-1.39-3.31-7.44-2.67-9.37A11.14,11.14,0,0,1,66,156a4.18,4.18,0,0,0,1.37-1.73,5.39,5.39,0,0,0-.4-2.89,7.58,7.58,0,0,1,.65-5.46,4.05,4.05,0,0,0,.68-1.69,3,3,0,0,0-.5-1.52A19.8,19.8,0,0,0,58,134.16a20.94,20.94,0,0,0-5.25-4.74c-3.23-2.31-6.13-4.72-10.4-3.76-2.73.61-5.16,2.12-7.69,3.3a34.38,34.38,0,0,1-24.53,1.63c4.63,1.45,10.31,14.06,12.69,18,4,6.67,7.62,13.55,12,19.95,4.74,6.85,10.59,13.6,18,17.65a27.84,27.84,0,0,0,12.29,3.61c7.53.32,4.62.44,9.93,4.69-2.19,3-6.56,4-8.44,7.16-1.26,2.16-1.1,4.84-.81,7.32s.65,5.1-.3,7.41-3.79,4.05-6,2.89c-1.08,7,2,13.87,3.22,20.84,1.73,10.21-.83,20.23-2.91,30.16,19.67,2.58,39.46,6.16,59.22,7.81,20.5,1.71,41.08-.18,61.6-.31,7.38,0,15.26.28,21.29,4.54a10.48,10.48,0,0,0,3.7,2.1,8.19,8.19,0,0,0,3.52-.32l28.06-6.71c1.76-.42,3.52-.84,5.24-1.41a42.91,42.91,0,0,0,15.61-9.75c3.06-2.85,6.49-10.88,9.57-12.65,1.63-.93,1.79-2.55,2.16-3.77.7-2.29,1.39-4.34,3.54-5.63.22-.13.53-.37.55-.57.39-4.83,6-8.9,8.45-12.69,4.23-6.48,6.87-14.81,10.12-21.84,2.29-4.94,4.82-10.16,9.47-13,4-2.46,9.14-2.75,13-5.42,3.23-2.21,5.35-5.87,8.81-7.68,5.62-2.93,7.42-3.22,9.81-9.18C336.19,167.57,337.7,160.66,339.64,154.16Zm-33.69,39.91c.79-.9,1-1,2.11-.33Z"/><path class="cls-2" d="M206.64,286a6.08,6.08,0,0,1-1.22-.12,9.48,9.48,0,0,1-3.65-1.9l-.58-.42c-5.72-4-13.26-4.32-20.47-4.28-6.71,0-13.56.28-20.18.51-13.61.47-27.69,1-41.55-.2-13.16-1.1-26.5-3.07-39.41-5-6.52-1-13.27-2-19.88-2.83l-1.52-.2.31-1.5q.31-1.47.63-2.94c1.87-8.73,3.79-17.76,2.28-26.69-.37-2.15-.94-4.35-1.49-6.49-1.24-4.79-2.52-9.74-1.74-14.81l.3-2,1.76.92a2.14,2.14,0,0,0,1.74,0,4.13,4.13,0,0,0,2.3-2.22c.77-1.88.5-4.17.24-6.4l0-.3c-.31-2.62-.51-5.64,1-8.2a13.38,13.38,0,0,1,4.83-4.31,19.63,19.63,0,0,0,2.79-2c-.94-.83-1.55-1.46-2-2-1.19-1.25-1.19-1.25-5.93-1.45a29.37,29.37,0,0,1-12.92-3.78c-6.47-3.55-12.51-9.46-18.47-18.09-3.11-4.5-5.87-9.29-8.54-13.93-1.17-2-2.35-4.08-3.55-6.1-.51-.86-1.16-2.08-1.91-3.49-2.4-4.52-6.86-12.94-10-13.93h0l.85-2.71a33,33,0,0,0,23.51-1.57c.66-.31,1.32-.64,2-1a26,26,0,0,1,6-2.43c4.58-1,7.78,1.28,10.86,3.51l.67.49A23.49,23.49,0,0,1,59,133a21.12,21.12,0,0,1,10.11,9,4.22,4.22,0,0,1,.69,2.27,4.44,4.44,0,0,1-.71,2.06l-.14.25a6.14,6.14,0,0,0-.52,4.43c0,.18.1.35.15.53a5.22,5.22,0,0,1,.23,3.14A5.28,5.28,0,0,1,67,157a10,10,0,0,0-3,4c-.47,1.42,1.09,6.85,2.25,7.85a11.09,11.09,0,0,1,1.36,1.33c.61.73,1.82.74,3.74.68,1.7-.06,3.63-.13,5.21.83l1,.64-.47,1.13a9.77,9.77,0,0,0-.74,4.46c5.38-2.83,9.41-7.6,13.65-12.63a92.47,92.47,0,0,1,7.86-8.56c7.64-7,17.64-11.2,26.46-14.88a48.08,48.08,0,0,0,7.64-4.6c8.74-6.44,15-15.58,21.12-24.42L164,97a110.85,110.85,0,0,0-15.74-7.41c-8.34-3.41-17-6.93-23.6-13.35L122,73.7l29.88,1c5.6.19,11.39.39,16.84-1,5.88-1.46,10.57-4.73,12.85-9l2.34-4.34,1.54,23.32c6.05.48,12.21-1.44,18.17-3.31,1.3-.41,2.6-.81,3.9-1.2,5.58-1.65,12.08-3.14,18-1.74,2,.49,6.71,2.59,7.24,5.69.2,1.15-.09,2.86-2.54,4.42-7.94,5.07-12.11,15.35-10.62,26.19.54,4,11.46,6.63,17.32,8.06,1.72.42,3.2.78,4.26,1.11,11.27,3.54,20,5.51,28.4,6.37a3.57,3.57,0,0,0,2.5-.51c0-.08,0-.15,0-.23l2.82-.24a3,3,0,0,1,0,.31.92.92,0,0,0,.35.49,2.11,2.11,0,0,0,1.62.4c1.18-.24,2.18-1.17,3.38-2.35l1.92-1.91.48,2.66c.19,1.06,1.72,1.13,4.86.9.72-.05,1.42-.11,2.06-.12h.15c3.81,0,7,2.33,9.84,4.39l.24.18a117.77,117.77,0,0,0,40.39,18.83l1.45.36-.61,2c-.6,2-1.17,4.1-1.72,6.12a124.19,124.19,0,0,1-4.3,13.69c-2.32,5.76-4.31,6.77-8.69,9l-1.79.92a18.69,18.69,0,0,0-4.58,3.89,26.6,26.6,0,0,1-4.08,3.7,19.27,19.27,0,0,1-4.38,2.15l.84.48-4.45.7a23.37,23.37,0,0,0-5.13,2.13c-4.44,2.7-6.93,8.07-8.92,12.37-1.06,2.29-2,4.67-3.07,7.2-2.09,5.09-4.24,10.36-7.15,14.82a34.5,34.5,0,0,1-3.27,4c-2.32,2.58-4.73,5.26-5,8a2.21,2.21,0,0,1-1.23,1.67c-1.64,1-2.22,2.55-2.91,4.83-.05.18-.1.37-.15.56a5.86,5.86,0,0,1-2.66,4c-1.4.8-3.22,3.71-4.83,6.28a32.36,32.36,0,0,1-4.49,6.17c-5.33,5-10.6,8.25-16.14,10.06-1.77.58-3.59,1-5.34,1.44l-28.06,6.71A12.44,12.44,0,0,1,206.64,286Zm-24.84-9.56c7.07,0,14.93.51,21,4.8l.63.45a7.17,7.17,0,0,0,2.54,1.41,7,7,0,0,0,2.9-.31L237,276c1.71-.41,3.47-.83,5.13-1.37,5.13-1.69,10.07-4.77,15.09-9.44a31.62,31.62,0,0,0,4-5.6c2-3.13,3.8-6.09,5.82-7.24.81-.46,1-1.17,1.33-2.29.06-.23.12-.45.18-.66.65-2.12,1.45-4.76,4.08-6.38.49-3.52,3.21-6.54,5.62-9.22a32.89,32.89,0,0,0,3-3.65c2.76-4.23,4.87-9.37,6.9-14.34,1-2.44,2-5,3.12-7.32,2.16-4.66,4.85-10.45,10-13.6a20.32,20.32,0,0,1,3.51-1.65l.11-.12c1.09-1.24,1.91-1.52,3.2-1a22.84,22.84,0,0,0,6.16-2.63,24.08,24.08,0,0,0,3.64-3.33,21.09,21.09,0,0,1,5.32-4.44l1.82-.93c4.16-2.11,5.42-2.75,7.34-7.52a122.23,122.23,0,0,0,4.19-13.37c.48-1.77,1-3.6,1.5-5.39a120.7,120.7,0,0,1-39.94-18.92l-.25-.18c-2.63-1.91-5.37-3.87-8.28-3.84-.59,0-1.24.06-1.89.11-2.18.16-5.21.39-6.83-1.18a7.77,7.77,0,0,1-3.45,1.83,4.92,4.92,0,0,1-4-1l0,0a6.88,6.88,0,0,1-4.17.82c-8.57-.88-17.5-2.88-29-6.48-1-.3-2.41-.66-4.08-1.06-7.87-1.92-18.65-4.55-19.45-10.43-1.63-11.93,3-23.3,11.91-29,.52-.33,1.37-1,1.27-1.56-.21-1.27-3.24-3-5.1-3.41-5.25-1.24-11.3.16-16.52,1.7-1.28.38-2.56.78-3.85,1.18-6.63,2.07-13.5,4.22-20.54,3.29l-1.15-.15-1.11-16.78a24.26,24.26,0,0,1-12.26,7c-5.84,1.45-11.83,1.24-17.63,1l-22.2-.77c5.72,4.46,12.56,7.26,19.74,10.19,5.91,2.41,12,4.91,17.45,8.43l1.22.79-12.53,18.21c-6.22,9-12.65,18.38-21.77,25.1a51,51,0,0,1-8.16,4.9c-9.09,3.8-18.43,7.71-25.7,14.39a90.12,90.12,0,0,0-7.61,8.3c-4.67,5.54-9.5,11.26-16.35,14.19l-1.52.65-.41-1.6a12.61,12.61,0,0,1,.09-6.6,13.63,13.63,0,0,0-2.57-.06c-2.1.07-4.49.16-6-1.71a8.65,8.65,0,0,0-1-1c-2-1.77-3.92-8.38-3.09-10.88a12.44,12.44,0,0,1,3.8-5.18,3.36,3.36,0,0,0,1-1.09,3.12,3.12,0,0,0-.24-1.48c-.06-.21-.13-.42-.18-.63a9,9,0,0,1,.77-6.49l.16-.29a2.58,2.58,0,0,0,.35-.78,2.24,2.24,0,0,0-.32-.77,18.27,18.27,0,0,0-9.08-7.91l-.4-.16-.24-.35a19.83,19.83,0,0,0-4.91-4.4l-.68-.49c-2.81-2-5.24-3.79-8.58-3a23.52,23.52,0,0,0-5.35,2.19c-.68.35-1.37.69-2.06,1a35.89,35.89,0,0,1-19.91,3,80.61,80.61,0,0,1,6.85,11.34c.73,1.38,1.36,2.56,1.84,3.36,1.21,2,2.4,4.08,3.58,6.14,2.64,4.59,5.37,9.33,8.42,13.73C41.78,176,47.51,181.66,53.58,185a26.21,26.21,0,0,0,11.67,3.43c5.44.23,6,.4,7.86,2.33a26,26,0,0,0,2.9,2.67l1.06.85-.8,1.1a15.23,15.23,0,0,1-4.46,3.7,11.13,11.13,0,0,0-3.9,3.35c-1.06,1.81-.88,4.27-.62,6.44l0,.3c.29,2.46.62,5.25-.44,7.81a7,7,0,0,1-4,3.8,5.3,5.3,0,0,1-2.13.32c-.25,4,.77,7.93,1.85,12.11.57,2.19,1.15,4.45,1.54,6.72,1.61,9.47-.38,18.77-2.3,27.76l-.31,1.44c6.14.82,12.37,1.74,18.41,2.64,12.86,1.91,26.17,3.88,39.23,5,13.69,1.14,27.68.66,41.21.19,6.64-.23,13.5-.47,20.26-.51Z"/></svg>