<svg id="Layer_1" data-name="Layer 1" xmlns="http://www.w3.org/2000/svg" viewBox="0 0 350 350"><defs><style>.cls-1{fill:#999;}.cls-2{fill:#f90;}</style></defs><title>M</title><path class="cls-1" d="M308.35,211.58l-.79-4.33a6.82,6.82,0,0,0-1.41-2.12,2.64,2.64,0,0,1-.88-1.94l.09-1c.09-1-.71-2-1.15-3.18s-2.56,0-2.83,0a15.52,15.52,0,0,1-2.21-.62c-1.15-.35-.88-.88-1-2.29a5.19,5.19,0,0,1,.53-2.3,4.8,4.8,0,0,0-.18-1,16.54,16.54,0,0,1-3.71-1.68c-1.41-1-.88-.79-1.06-2.3s-.44-1.5-.53-2.65a6.78,6.78,0,0,1,.71-2.65,2.74,2.74,0,0,0-.26-2.29c-.53-1-1.59-2.74-1.77-3.27s-1.77-.71-2.47-.62-1,.88-1.24,1a25,25,0,0,1-2.56-1c-1.41-.44-1.32-1.15-2.12-2.74s-.62-1.94-1.59-2.91-1.59-1.77-3.18-1.94-2.3-1.59-3.53-2.29-2.29-.62-4.15-1.68-4.06-5.38-4.06-5.38a24.61,24.61,0,0,1-2.12,2.65c-1.72,2-2,1.19-4.63,2.78s-1.72,1.59-4.37,2.65-2.78.93-4.63,1.59-4.24,2.91-7.68,3.57-1.72.79-2.78,3.18,2.52,3.57,3.71,5.43,2.91-.66,4.63-.79,3.57-.26,5,1.46,1.85.93,3.31,1.32a28,28,0,0,1,4,.93,26.46,26.46,0,0,1,2.78,1.32c1.72.79,0,0,.79,1.85a9.72,9.72,0,0,1,.93,3.31c.26,1.46-1.06.53-1.85.4s-2.91-1.06-3.57-.93-.13,1.19-.13,2.78.66,1.46,2.12,2.65,1.32,1.06,1.46,3.44,1.85,2.52,4.77,3.44,1.59,7.81,1.19,8.08-.13,2.65-.13,2.65a4.22,4.22,0,0,0-4.9.79c-1.72-2.65-4.5-2.25-5.83.26-1.32-.53-3.44-2.25-4.63,1.59-2.12-2-3.57.66-3.57.66s-.13,2.52-.13,3a6.57,6.57,0,0,1-.4,1.72c-.13.4-.79,1.19-1.06,1.72a27.72,27.72,0,0,1-2.12,2.38c-.66.79-.4,2.38-.4,2.91s-.4,3.31-.4,3.31H244.8c-1.59,0-1.32,1.32-1.32,1.85s-.4,1.72-.93,1.72-2.12-1.85-2.65-2a33.05,33.05,0,0,0-4.24.4v2.52c0,1.06,1.19,2.65,1.59,3.84a4.49,4.49,0,0,1,0,2.65c-.13.93-1.19.13-3.31.13s-.4.66-1.19,1.72.4,1.46,1.06,2.31a38.23,38.23,0,0,0,2.52,3.12,21,21,0,0,0,3.31,2.78,16.53,16.53,0,0,1-3.71,1.72,20.13,20.13,0,0,1-5.16.79c-2,0-3.44.66-4.9.53s-1.85,1.46-2.25,1.32-1.46,0-2.65-.13a8.69,8.69,0,0,1-3-.53c-1.32-.53-1.85-.93-2-2a2,2,0,0,0-1.32-1.46,7.14,7.14,0,0,0-2.12-1.19,24.53,24.53,0,0,0-4.24-1.06c-.66,0-1.85,1.46-2.52,1.85s-2.91-.4-4.37-.93-4.24-.66-5.83-1.32a8.19,8.19,0,0,1-4-3.52c-.79-1.53-.53-3.1-.93-4.3a29.91,29.91,0,0,1-1.32-4.1,3.74,3.74,0,0,0-1.46-2.25l.93-2.38L187.73,232a20.43,20.43,0,0,0-3.31,2.65c-1.59,1.59-2,.13-3.31-.53s-1.72.4-1.59,2.91.26.93-2.52,2.91-.53.79-2.25,2.52,0,3.31-.26,4.1,0,0-2.25,1.06-1.72-.4-3-1.46-2.12-1.19-3-.93-1.59,1.19-3.18,1.72-1.59,1.46-2.52,2.78a17.31,17.31,0,0,1-2.52,3.44c-1.46,1.46-1.72,2-4.1-.26s-4.1-1.06-4.5-1.06.13.79.26,2.38.93,4.37.93,4.9-.13,3.18,0,5-1.46,2.12-2.65,2.52-2.12,1.72-3.84,2.25a41.61,41.61,0,0,0-5,1.85c-1.06.53,1.32,2,1.32,2.65a8.11,8.11,0,0,1-1.59,4.77c-1.46,1.85-2,2.25-2.65,3.18a8.25,8.25,0,0,1-1.19,1.59c-.66.66-.93,1.85-2.38,3.18s-1.59.79-2.52.53a14.58,14.58,0,0,1-3.31-2.25c-.66-.53-1.59,0-3.84-.13s-2.12,1.19-4.5,3.18a5.27,5.27,0,0,0-1.85,4.77,20.3,20.3,0,0,0-2.25-4c-1.46-2-1.06-2-1.72-3.84a5.65,5.65,0,0,1,1.11-5.3c1.11-1.32,1.41-3.84,2.47-5.3s3.18-2.65,4.5-4.5,4.37-5.69,4.37-6.09.53-2.52-.26-3.18a24.94,24.94,0,0,1-4-3.57c-1.72-2,0,0-.66-1.72s.53-1.72.93-2.78a3,3,0,0,0-.93-3c-.79-.79-2,.93-2.52,2.38s-1.46.93-2.52,1.06-3.31,1.46-3.71,1.06.93-4.77.79-5.64-2.78.07-3.71,0-2.25,1-2.65,1-.53,1.59-.53,2.91v6.49c0,2.38.4,1.72.13,3.31s1.06,2.91,2,5.3,1.19,1.06,2.38,2.38-.53,4.37-.53,5.3-2.25,1.46-2.65,1.85.4,1.59-1.59,1.46-2.52-.79-4-.79a14.68,14.68,0,0,1-5.69-.93c-2.52-.93-1.59-1.46-2.91-2.12s-3,.4-4.24-.13a4.74,4.74,0,0,0-4,.26c-1.47.66-.39,2-1,3.31s-1.85.13-4.24,1.85.53,2.25,1.46,3.31-.66.79-.93,3.18.26,3.57-.66,3.57-2.91-1.19-2.52,3.18,2.65-.93,2.65-.93l2.25,2.65c2.25,2.65,4.24-3.31,6,.26s3.18,1.19,3.44,3.44,1.32.13,1.32.13l1.46,2.52s2,1.19,2.65,1.46.66.79,1.64,1.85,3.92,2,5.38,2.52a11,11,0,0,1,2.65,1.46l-1.32,2.91a10.55,10.55,0,0,0-.13,1.46,22.53,22.53,0,0,0,2,5.16c.93,1.85,5.83.93,7.46,2.38a15.52,15.52,0,0,0,2.73,2.12c1.19.79-1.06,5.3-1.06,5.3l7,4.5s-.93,2.65-1.19,3.31a6,6,0,0,1-1.46,2.25c-1.06,1.19-5.3-2.52-7.41-3.71s-4.63-1.46-6.09-2.25a35.78,35.78,0,0,0-5-2,29.29,29.29,0,0,1-5.3-2.78,16.43,16.43,0,0,0-5-2.25,7.12,7.12,0,0,1-3.57-1.19c-1.32-.93-4-.79-5.69-1.06s-4-.53-6.36-1.06-1.46-.26-2.52-1.59a31.21,31.21,0,0,0-2.38-2.65c-.4-.4-1.85-.26-3-.53a9.37,9.37,0,0,1-2.52-1.06s-1-1,1.41-2.56,1.68-2,3.53-2.47,6-1.68,6.27-1.85a24.64,24.64,0,0,0,1.68-2.47s-5.3-8.83-5.65-13.42-1.15-5.91-1.15-7.68-1-3.27-1-5.38a40.78,40.78,0,0,0-.35-4.68,6.49,6.49,0,0,0-2.65.09c-1.41.35-3.09,1.15-3.88.79s-.91-3.09-2-6.09-.6-4.77-3.07-6.18a56.78,56.78,0,0,0-5.74-2.74S39,259,34.8,259s-7.77-.26-9.89-.26-6.89-.44-8.92-.53-3.62.79-4.85-.18S8.23,256.25,8,254.83s1.32-.26,0-1.94-1.15-.71-1.32-1.68-.79-1.66,0-2.24a4.45,4.45,0,0,0,1.24-1.82S8.94,245,10,244.51a13.5,13.5,0,0,0,3.35-1.85c2.12-1.5,4.85-5.74,6.18-6.8A11.54,11.54,0,0,0,22.45,232a30.11,30.11,0,0,1,2.12-3.27s1-7.77,1-9.27-1-1.15-1-3.09,1.15-3.18.79-4a6.48,6.48,0,0,0-.62-1.15,49.29,49.29,0,0,0,4.77-4.5c.71-1.06.26-1.68.71-2.3a3.65,3.65,0,0,1,2-1.5c1-.26,1.32-.88,2.38-1.24s1.85-.53,2.21-.18.53.88,1.06.18A7.37,7.37,0,0,0,39,198.61c0-.71-1.24-2.21-.44-2.65a11,11,0,0,0,2.12-2.3L38.51,188l6.27,1.85a9.91,9.91,0,0,0,2.12-.53c1.24-.44,4.06-4.5,4.86-4.94A31.3,31.3,0,0,0,55,181.48l-.62-2.91,2.74-2.38a3.63,3.63,0,0,1,0-1.77c.26-.71.26-2.12.53-3a11.74,11.74,0,0,0,.62-3.27,24,24,0,0,1,.71-3.88l-8.39-7.15-10.06-6.89s-1.85,1.06-1.68-.44-.26-1.32-.09-2.47S39,145,39,144.14A17,17,0,0,0,39,142c0-.88-2.38-1.77-2.38-1.77s3-3.35,3.27-3.8,2.91-2.65,2.91-3.44-.09-1.77-.71-1.94a5.86,5.86,0,0,1-1.5-.88,4.46,4.46,0,0,0,.71-2.74c-.09-1.68.35-2.12.79-2.38s1.24-.62,1.28-1.06.83-2.12,1-3.27-.62-.62.09-2.3a19.93,19.93,0,0,0,1.06-3.8l14.39-9,18.54-3.44,6.89-3.35,8.92-.71,12.18-3.35,4.5.62s4.86-2.82,5.21-2.91l3.88-.88s1.85,3.09,2.56,3.53a9.57,9.57,0,0,0,2.56,1c.26,0,.18.53.88,1.41s1.15,1.41,1.94,1.32,1.85,1.94,2.74,1.15a5.11,5.11,0,0,1,2.47-1.5c.62,0,2.65-.62,1.94-1.68a2.23,2.23,0,0,1-.53-1.68s2-1.24,2.12-1.94a8.73,8.73,0,0,0-.44-2.38s3-3.35,3.09-3.62-1.68-2.65,1.85-5,4.5-2.91,3.27-3.44a4.34,4.34,0,0,1-1.59-1s3.44-1.5,2.29-3.18-2.47-2.21-3-3.18a18.82,18.82,0,0,1-.79-2.38c-.35-.79.35-1.59-.71-1.77a18.88,18.88,0,0,1-3.35-1.06c-.62-.26-4-1.24-4.15-2.74s.35-3.53.09-4.77-1.41-2.3-1.15-3.35.26-2.29,1.15-2.82a17.42,17.42,0,0,1,1.68-.88l-2.12-4.77,14-3.62s3.09,3.27,3.88,2.82a25.79,25.79,0,0,0,3.35-2.82A3.56,3.56,0,0,1,156.71,42c1.15,0,2.29-.18,2.47-1s.44-2.74-.09-2.91l-.53-.18s2-1.85,1.24-2.47a2.17,2.17,0,0,1-.62-1.85,1.32,1.32,0,0,0-1.87-1.32c-1.92.53-2.89,1.24-2.71.44s-.71-2.65.18-3.18,3.35.18,3.62,0,.35-.71-.18-1.85-.22-2.12-.9-3a7.16,7.16,0,0,1-1.39-2.91l-.44-1.5s3.09-1.77,4.24-.88a12.24,12.24,0,0,0,3.18,1.85,13.19,13.19,0,0,0,2,.53l3.71-4.24a2.7,2.7,0,0,0,1.68,2c1.41.44,2,.71,3.27.35s1.94-.53,2.12-1.06-.44-1.32-.44-1.32L172.86,16a32.2,32.2,0,0,1,3.53-3.09c1.24-.79,1.5,1.41,2,.53l.53-.88h.53s3.44,1.77,3.62,2.56-.35,1.15.26,2,1.32,1.32.53,2-.79.44-.53,1.5,1.15,2.74.88,2.82-1,.62-2,1.24-1.32.35-2.21.62-1.59,1.94-1.15,2a3.41,3.41,0,0,1,1.77,1.24c.53.71,1.06,1.68,1.94,1.85a13.82,13.82,0,0,0,2.82.18,6.9,6.9,0,0,0,2.91-.35,8.59,8.59,0,0,0,1.59-2.47,4.73,4.73,0,0,0,1.77-.35c.71-.35.09-.62,1.77-.62a19.19,19.19,0,0,1,3.88.44c.26.09,1.94-.26,2.3.35s.88,1.5,1.24,1.41,2-.18,2.56-.79a6.62,6.62,0,0,1,3.44-1.41c1.5-.26,5.65-3.18,7-2.21s.62,1.85,1.94,2.3,2.47.53,3.09.79,1.06-.71,1.5.62.88,3.53.88,3.53a3.46,3.46,0,0,0,.18,2.65c.71,1.15.71,1.5,1.5,1.32a8.27,8.27,0,0,0,2.82-2A12.56,12.56,0,0,0,227,31.16a2.91,2.91,0,0,1,1.85-1.94c.79-.18,1.59-.09,2.12-.79s1.15-1.59,1.85-2.56,1-2.82,2-3.18a12.63,12.63,0,0,1,4.32-1.24c1.77,0,2.3-.44,3.8.62s1.5,1.06,2.65,1,2.21.88,2.91-.44-.26-1.24,1.5-2.3a19.76,19.76,0,0,0,3-1.94,10.21,10.21,0,0,0,2.21-2.12c.79-1,3.44-1.59,4-1.59s.09,4.15.71,4.15a10.15,10.15,0,0,1,2.91.62c.88.35,2.91,1.85,3.88,2.12s2.65.62,3.62.88,2.82.62,2.82.62l.09,2.65-2.74.18a13.13,13.13,0,0,0-.53,2.21,5.26,5.26,0,0,0,.44,2.65c.35.71.53.88.88,1.59s.44,2.38.88,2.82a2.1,2.1,0,0,0,1.41.35s1.59-.44,1.77-1.5.44-2.21.62-3.18A25.59,25.59,0,0,1,277,27.63s.88,1.68,1.24,2.56,1.06.09,1.68,1.59.79,2.21,1.85,2.82.79,1.41,1.06,2.12a4.73,4.73,0,0,0,1.5,2.38c.88.62.53,2.21.53,2.65s-1.68,1-1.68,1l-.09,8h1.59l.09,2.47-2,.26V66.38l-2.47.79s-1.59.44-1.77,1-.09-.35-1.24.79-1.77.26-1.85,1.32-1,11-1,11-2,3.44-2.82,3.88-.79-.09-1.68,1.32-.18.71-1.32,1.77-1.5,1-1.85,2,.35,1-.18,1.59a2.35,2.35,0,0,0-.79,2.65c.35,1.68.53,2.3,1.06,2.47s0,4.59,0,4.59l-3.62-.44s-2.38.09-1.94,1.24-.09,1.24-.18,2.29,1,1.85,1.5,2.47a10.64,10.64,0,0,1,1.41,2.29c.71,1.32,3.53,2.3,4.24,1.85s1.77-1.15,2.47-.79a3.39,3.39,0,0,0,2.82.44c1.06-.44,2.3-1.41,3.18-.53s1,.62,2.74.62,1.5-.79,2.29.09,2.82,1.5,3.27.88,0-1.32,1-1.77,2.38-.88,3.09-1.32a1.4,1.4,0,0,1,1.94.62,3.76,3.76,0,0,0,2.83,1.41c1.41.18,3.53.09,4.06.35s1.06,1.41,1.32,1.94.18.53,1.15.53,1.94-.35,2.12.09,2.38,1.68,3.09,2.38.79.18,1.85,1.85,0,1.94,1.94,1.94a8.93,8.93,0,0,1,3.71.44c.71.35,2.82,1.15,3,2.21s0,1.15,1.5,2.91,2.65,2.56,2.65,2.91a20.74,20.74,0,0,1-.62,4.24,35,35,0,0,0-1.15,4.94c-.09,1,1.32,3.35,1.77,4.5s1.85,2.38,1.94,3a5.5,5.5,0,0,0,1.32,3.09c.88.71,1.94.71,2.38,1.15s1.24,1.32,1.5,1.32,1.24-1.24,2-1,2,.71,2.3,1.41,1.06,2.47,1.06,2.47l2.29.26s.18,7.86,2.82,4.68c1.59,2.21,2.47.44,3.18.26s1.06.44,1,1.59a8.93,8.93,0,0,1-.35,1.94s2,1.24,2,1.59-.53,5.21-1.24,6.36a25.11,25.11,0,0,1-1.85,2.74c-1.06,1.41-.35,3.18.09,4.77s1.85,2.12.62,3.88-1.41,2.38-2.21,3.09a13.25,13.25,0,0,0-1.77,2.12,6.66,6.66,0,0,1-2.56,2.3c-1.5.79-3.44,1.77-4.33,2.29s-1.77,1-1.77,1-5.91,5.56-6.27,5.91-3.35,1.94-3.53,4.15a19.06,19.06,0,0,0,.18,4.24l-5.83-1.06Z"/><path class="cls-2" d="M119.13,338.9c-1.53,0-3.49-1.37-5.53-2.79-.77-.54-1.5-1.05-2-1.35a15.69,15.69,0,0,0-3.34-1.25,13.84,13.84,0,0,1-2.73-1,34.88,34.88,0,0,0-4.8-1.89,30.49,30.49,0,0,1-5.66-3,15.71,15.71,0,0,0-4.4-2,8.45,8.45,0,0,1-4.21-1.44,8.52,8.52,0,0,0-3.33-.64c-.63,0-1.22-.09-1.77-.18L80,323.22c-1.54-.22-3.29-.47-5.16-.89l-.34-.08c-1.49-.33-2-.44-2.56-1.41a4.31,4.31,0,0,0-.41-.6,29.86,29.86,0,0,0-2.12-2.38c-.2,0-.56-.06-.82-.08a12.27,12.27,0,0,1-1.69-.22,5.78,5.78,0,0,1-1.79-.66c-.23-.12-.52-.28-1-.5l-.23-.11-.18-.18a2.26,2.26,0,0,1-.6-1.8c.1-1.05.83-2,2.23-2.94a8.05,8.05,0,0,0,1.59-1.32,4.06,4.06,0,0,1,2.4-1.35c1.59-.38,4.79-1.33,5.75-1.66.2-.27.53-.78.87-1.31-1.32-2.29-5.09-9.18-5.41-13.28a33.27,33.27,0,0,0-.77-5.13,12,12,0,0,1-.38-2.66,7.77,7.77,0,0,0-.4-2.06,11.74,11.74,0,0,1-.57-3.33c0-1.15-.11-2.45-.21-3.35a4.84,4.84,0,0,0-1,.14c-.38.1-.79.23-1.19.36-1.32.43-2.56.83-3.62.36s-1.38-1.68-1.81-3.48a27.74,27.74,0,0,0-1-3.4,20.17,20.17,0,0,1-.76-2.62c-.36-1.53-.51-2.16-1.69-2.83a54.68,54.68,0,0,0-5.39-2.58c-1.65-.19-13.2-1.47-16.95-1.47-2.45,0-4.74-.09-6.58-.17-1.31-.05-2.45-.1-3.3-.1-1.36,0-3.72-.17-5.8-.32-1.26-.09-2.41-.18-3.18-.21a9.7,9.7,0,0,0-1.79.14,4.7,4.7,0,0,1-3.88-.62c-.26-.21-.55-.41-.84-.61-1.13-.79-2.54-1.77-2.85-3.42a2.32,2.32,0,0,1,.15-1.48,3.51,3.51,0,0,0-.59-.62,1.9,1.9,0,0,1-.88-1.53,3.84,3.84,0,0,0-.16-.56,2.48,2.48,0,0,1,.72-3.09,3,3,0,0,0,.74-1.15l.07-.15a8,8,0,0,1,2.75-3.28c.34-.17.59-.28.85-.38a9.85,9.85,0,0,0,2.32-1.37,24.21,24.21,0,0,0,3.63-4,19.93,19.93,0,0,1,2.48-2.79,10.16,10.16,0,0,0,2.55-3.44,29.61,29.61,0,0,1,2-3.14c.38-3.1.92-7.73.92-8.73,0-.25,0-.25-.17-.49a4,4,0,0,1-.8-2.6,8.13,8.13,0,0,1,.64-3c.07-.19.17-.44.2-.59a5.13,5.13,0,0,0-.39-.73L22.84,211l1-.86a44.47,44.47,0,0,0,4.5-4.21,1.3,1.3,0,0,0,.23-.77,2.92,2.92,0,0,1,.5-1.57,5,5,0,0,1,2.81-2,2.47,2.47,0,0,0,.76-.4,6,6,0,0,1,1.55-.81,4.54,4.54,0,0,1,3-.28,6.35,6.35,0,0,0,.45-1.4c0-.12-.13-.33-.2-.47-.32-.7-1.15-2.57.49-3.48a7.32,7.32,0,0,0,1.2-1.28l-3-7.61,8.74,2.59a9.69,9.69,0,0,0,1.54-.42,18.79,18.79,0,0,0,2.49-2.64,10,10,0,0,1,2.15-2.2A23.55,23.55,0,0,0,53.47,181l-.63-3,2.78-2.42a4.05,4.05,0,0,1,.19-1.71,7.44,7.44,0,0,0,.19-1.16,10.69,10.69,0,0,1,.31-1.75,11.22,11.22,0,0,0,.57-2.69,14.31,14.31,0,0,1,.53-3.54l-7.67-6.54-9.35-6.4a2.4,2.4,0,0,1-2.1-.15,2,2,0,0,1-.83-2.06,2.18,2.18,0,0,0,0-.92,3.75,3.75,0,0,1-.06-1.6c.1-.66.14-1.33.18-2,0-.4,0-.79.08-1.13a6.69,6.69,0,0,0,0-1.12c0-.16,0-.34,0-.54a6.58,6.58,0,0,0-1.46-.76l-2-.72,1.39-1.55c1.37-1.53,2.91-3.29,3.13-3.61a6.88,6.88,0,0,1,1-1.13,16.76,16.76,0,0,0,1.65-1.76,3.65,3.65,0,0,0,0-.5,7.61,7.61,0,0,1-1.63-1l-1.07-.86.82-1.1a3.11,3.11,0,0,0,.42-1.81c-.1-1.87.36-3,1.48-3.67l.31-.18.37-.21c.07-.26.18-.57.34-1a12.1,12.1,0,0,0,.6-1.93s0,0,0,0a2.92,2.92,0,0,1,.17-2.6,18.38,18.38,0,0,0,1-3.48l.11-.63,15.16-9.49L78,100.86l7-3.39,9-.72,12.33-3.4,4.31.59c4.62-2.68,4.94-2.76,5.15-2.82l3.92-.89,1-.22.53.88a20.74,20.74,0,0,0,2.15,3.1,9.84,9.84,0,0,0,1.88.72,1.68,1.68,0,0,1,1.45,1.21,2.59,2.59,0,0,0,.42.73,5.07,5.07,0,0,0,.74.82,2.79,2.79,0,0,1,2.12,1l.19.16a5,5,0,0,1,3-1.49,1.89,1.89,0,0,0,.4-.1,3.14,3.14,0,0,1-.35-2.23l.15-.53.47-.29a8.71,8.71,0,0,0,1.44-1.08,10.27,10.27,0,0,0-.38-1.61l-.24-.77.54-.6c.95-1.06,2-2.3,2.58-3-.65-2.31.23-4.3,2.62-5.92l.83-.56,1.49-1a3.71,3.71,0,0,1-1-.78l-1.15-1.45,1.7-.74A4.66,4.66,0,0,0,144,75.31a8.42,8.42,0,0,0-1.55-1.6A5.94,5.94,0,0,1,141,72.09a6.34,6.34,0,0,1-.64-1.78,3.75,3.75,0,0,0-.21-.7,2.77,2.77,0,0,1-.23-1.06,22.36,22.36,0,0,1-3.09-1l-.34-.13c-1.54-.56-4.4-1.59-4.65-3.75a13.06,13.06,0,0,1,.06-2.66,8.35,8.35,0,0,0,0-2,4.6,4.6,0,0,0-.47-1.07,4,4,0,0,1-.66-2.93c.05-.21.09-.43.13-.65a4.06,4.06,0,0,1,1.66-3l.56-.32-2.25-5.06,16.47-4.25.57.61a17.81,17.81,0,0,0,2.57,2.29,32.3,32.3,0,0,0,2.64-2.31,5,5,0,0,1,3.56-1.65,4.27,4.27,0,0,0,1.14-.11,8.52,8.52,0,0,0,.14-1.23l-2.16-.72,1.78-1.63a6.58,6.58,0,0,0,.78-.86,3.72,3.72,0,0,1-.63-2.39l-.07,0c-.58.16-1.07.34-1.46.48-.91.33-1.77.64-2.53,0a1.67,1.67,0,0,1-.48-1.69c0-.05-.06-.39-.1-.62-.17-1-.46-2.63.94-3.47a4.44,4.44,0,0,1,2.76-.34,6.7,6.7,0,0,1-.36-1.54,1.83,1.83,0,0,0-.25-.89,8.51,8.51,0,0,1-1.63-3.38l-.76-2.58,1-.56c1.18-.67,4.09-2.09,5.8-.78a10.94,10.94,0,0,0,2.8,1.65,9.75,9.75,0,0,0,1,.3l5.13-5.87.49,3h0s.16.74.7.91l.35.11c1.14.36,1.41.43,2.11.23l.18,0,.55-.16-3.27-2.18L171.86,15a31.93,31.93,0,0,1,3.77-3.28,2.15,2.15,0,0,1,2.26-.14l.26-.43h1.68l.3.16c4,2.07,4.26,3.08,4.36,3.51a3.31,3.31,0,0,1,0,1.3s0,.1,0,.15l.05.08c.11.15.22.29.32.42a2.31,2.31,0,0,1,0,3.48l-.1.09h0a12.27,12.27,0,0,0,.47,1.32c.43,1.07.68,1.72.36,2.42l-.26.55-.62.23-.46.3c-.35.22-.79.51-1.31.81a4.37,4.37,0,0,1-2,.65l-.35,0a5,5,0,0,1,1.15,1.11l.3.41c.2.28.61.87.79.9a12.73,12.73,0,0,0,2.55.15,9.6,9.6,0,0,0,2.15-.14,10.2,10.2,0,0,0,1.06-1.86l.38-.83h.91a3.44,3.44,0,0,0,1.1-.19c.58-.67,1.25-.78,2.43-.78a21.44,21.44,0,0,1,4.12.46h.2c.9-.05,2.41-.14,3.1,1.07.16.29.29.48.38.62a4.26,4.26,0,0,0,1.18-.29c1-1.14,3.26-1.65,4.2-1.82a13.12,13.12,0,0,0,1.94-.85c2.24-1.1,4.56-2.24,6.12-1.1a3.9,3.9,0,0,1,1.43,1.92l.06.15.06,0a14.85,14.85,0,0,0,1.73.44,10.34,10.34,0,0,1,1.19.29c.8-.21,2-.18,2.57,1.58.46,1.39.91,3.61.93,3.7l.08.38-.13.37a2,2,0,0,0,0,1.43l.31.51a8.83,8.83,0,0,0,1.72-1.38,8.41,8.41,0,0,0,.72-1.55l.3-.74a4.15,4.15,0,0,1,2.86-2.78c.23-.05.45-.08.68-.12a1.51,1.51,0,0,0,.61-.15c.31-.42.66-.9,1-1.43l.8-1.11a6,6,0,0,0,.5-1,4.13,4.13,0,0,1,2.23-2.68c.24-.08.51-.2.8-.32a10.16,10.16,0,0,1,4-1c.41,0,.74,0,1,0a4.62,4.62,0,0,1,3.58.93,9.36,9.36,0,0,0,1.13.74,4.35,4.35,0,0,0,.59,0,4.9,4.9,0,0,1,1.52.17l.28.06a1,1,0,0,0,.13-.43c.12-1.11.7-1.64,1.86-2.34l1.08-.64a11.34,11.34,0,0,0,1.77-1.2,8.9,8.9,0,0,0,2-1.9c1.19-1.46,4.38-2.11,5.07-2.11,1.63,0,1.68,1.77,1.73,3.33,0,.26,0,.62,0,.92a11.88,11.88,0,0,1,2.37.62,13.73,13.73,0,0,1,1.82,1,12.92,12.92,0,0,0,1.91,1.06c.47.13,1.11.28,1.75.43s1.37.32,1.87.46c.91.25,2.7.59,2.71.59l1.11.21.17,5.16-3.12.2a7.21,7.21,0,0,0-.2,1,3.86,3.86,0,0,0,.3,1.87c.16.31.27.5.39.7s.29.49.49.89A7,7,0,0,1,273,33.3c0,.22.12.54.18.77h.12a1.64,1.64,0,0,0,.64-.39c.08-.55.21-1.2.34-1.83.09-.45.18-.89.26-1.3a25.25,25.25,0,0,1,1.14-3.45l1.14-2.85L278.27,27c0,.07.78,1.49,1.2,2.45a2.89,2.89,0,0,1,1.77,1.82l.21.51c.47,1.16.57,1.35,1,1.63a3.16,3.16,0,0,1,1.61,2.5,2.41,2.41,0,0,0,.07.34l0,.13a3.38,3.38,0,0,0,.94,1.59c1.4,1,1.23,2.83,1.15,3.62,0,.08,0,.15,0,.2,0,.81-.53,1.43-1.69,1.95l-.06,5.63h1.52l.18,5.13-2.07.27V67.41l-3.46,1.11a5.54,5.54,0,0,0-1,.38,1.46,1.46,0,0,1-1.24.84l-.21.2a3.72,3.72,0,0,1-1.49.95c-.21,2.38-.93,10.53-.93,10.53l0,.32-.16.28c-1.48,2.5-2.61,4-3.36,4.4a3.38,3.38,0,0,1-.82.33c-.06.08-.17.23-.34.5a6.75,6.75,0,0,0-.42.74,2.94,2.94,0,0,1-.89,1.08l-.26.24c-.4.37-.71.61-1,.81s-.4.31-.5.63l0,.07a1.9,1.9,0,0,1-.42,2l-.25.28c-.34.36-.39.42-.24,1.16a15,15,0,0,0,.37,1.52c.93.45,1.23,1.62.71,6l-.17,1.41-4.9-.6-.36,0a2.92,2.92,0,0,1-.17,1.66,1.81,1.81,0,0,0-.13.52c0,.2.49.72.73,1s.31.32.44.47a10.82,10.82,0,0,1,1.48,2.34l.11.21a4,4,0,0,0,2.4,1.21c.89-.56,2.34-1.43,3.69-.75.65.32,1.22.58,1.65.4.19-.08.39-.18.59-.28.95-.48,2.71-1.37,4.14.06a2,2,0,0,0,.3.27,1.62,1.62,0,0,1,.43,0c.27,0,.6,0,1,0a2.09,2.09,0,0,0,.89-.15,2,2,0,0,1,2.46.71,2.7,2.7,0,0,0,1.11.59,2.45,2.45,0,0,1,1.49-1.82c.4-.18.86-.36,1.32-.54a12.25,12.25,0,0,0,1.6-.7,2.8,2.8,0,0,1,3.89,1.07,2.56,2.56,0,0,0,1.8.76c.53.07,1.19.09,1.83.12a7,7,0,0,1,2.69.38,4.82,4.82,0,0,1,1.83,2.32c.29,0,.54,0,.78-.07.65-.08,2-.24,2.55.82.21.18.75.55,1.12.8a13.3,13.3,0,0,1,1.77,1.34,1,1,0,0,0,.27.2,4.71,4.71,0,0,1,1.78,1.9,5.55,5.55,0,0,1,.61,1.28h.13a9.92,9.92,0,0,1,4.34.59l.36.17c1.25.57,3.13,1.43,3.41,3.07,0,.15,0,.29.06.41.07.48.08.6,1.12,1.82.68.8,1.29,1.4,1.74,1.83.75.73,1.25,1.22,1.25,2a21.68,21.68,0,0,1-.68,4.66,34.44,34.44,0,0,0-1.09,4.65,13.41,13.41,0,0,0,1,2.4c.26.54.51,1.05.67,1.47a6.79,6.79,0,0,0,.94,1.39,4.32,4.32,0,0,1,1.08,1.92,4.37,4.37,0,0,0,.81,2.18,3.26,3.26,0,0,0,1,.47,3.5,3.5,0,0,1,1.48.78l.29.3.25.25a2.68,2.68,0,0,1,2.44-.54c1.38.46,2.72,1.05,3.17,2.26.13.36.44,1.07.7,1.66l2.72.31,0,1.23a15.88,15.88,0,0,0,.48,3.61l1-1.21,1.07,1.48a2.74,2.74,0,0,0,.39.46l.22-.16a3,3,0,0,1,1.07-.58,2.07,2.07,0,0,1,1.89.4,3,3,0,0,1,.84,2.67,11.35,11.35,0,0,1-.15,1.18c1.54,1,1.83,1.58,1.83,2.24,0,0-.45,5.48-1.45,7.1l-.18.29a25,25,0,0,1-1.75,2.55c-.48.64-.26,1.55.16,3l.16.57a3.81,3.81,0,0,0,.46.93,3.34,3.34,0,0,1,0,4.15c-.45.64-.75,1.12-1,1.51a7.41,7.41,0,0,1-1.43,1.82,7.44,7.44,0,0,0-1.12,1.3l-.47.63-.17.22a7.68,7.68,0,0,1-2.85,2.46l-1.58.82c-1,.54-2.12,1.1-2.68,1.43s-1.35.76-1.67.93c-2.37,2.23-5.84,5.5-6.09,5.74a4.54,4.54,0,0,1-.64.49c-.66.45-2.39,1.65-2.48,2.77a17.8,17.8,0,0,0,.16,3.88l.34,2-7-1.27-6.35,7.48-1.3-7.11a5.54,5.54,0,0,0-1-1.53,4,4,0,0,1-1.29-3.07l.09-1a4.09,4.09,0,0,0-.51-1.34c-.12-.25-.25-.5-.36-.76a7.43,7.43,0,0,0-.8.26c-.8.29-1,.31-2.92-.28l-.6-.18a2.6,2.6,0,0,1-1.95-2.9c0-.19,0-.41,0-.66a4.76,4.76,0,0,1,.4-2.33,15.35,15.35,0,0,1-3.14-1.54c-1.15-.79-1.65-1.27-1.63-2.58a4.9,4.9,0,0,0,0-.72,6.15,6.15,0,0,0-.25-1.23,6.14,6.14,0,0,1-.28-1.47,5.22,5.22,0,0,1,.55-2.61,3.38,3.38,0,0,0,.19-.49,1.37,1.37,0,0,0-.13-1.27l-.57-1c-.52-.91-.89-1.58-1.12-2.05a4,4,0,0,0-1-.1l-.12.15a2.06,2.06,0,0,1-1,.77,2.48,2.48,0,0,1-1.9-.34,12.28,12.28,0,0,0-1.54-.62,3.69,3.69,0,0,1-2.55-2.54c-.11-.26-.24-.57-.42-.92-.3-.61-.48-1-.62-1.4a2.49,2.49,0,0,0-.71-1.14l-.3-.3c-.76-.78-1.11-1.13-2-1.23a5.32,5.32,0,0,1-3.12-1.69,5.76,5.76,0,0,0-1-.78,6.25,6.25,0,0,0-1.35-.52,12.32,12.32,0,0,1-2.79-1.16,12.46,12.46,0,0,1-3.54-4.06l-.87,1a6.08,6.08,0,0,1-2.93,2.09,11,11,0,0,0-2,1,14.23,14.23,0,0,0-1.8,1.24,8.92,8.92,0,0,1-2.77,1.51,30.79,30.79,0,0,1-3.12,1.1c-.43.13-.87.26-1.56.51a12.79,12.79,0,0,0-2,1.07,17.61,17.61,0,0,1-5.9,2.56c-.63.12-1,.21-1.22.27a6.08,6.08,0,0,1-.54,2.09c-.19.43,0,.77,1.51,2a9.42,9.42,0,0,1,2.08,2.08,7.45,7.45,0,0,0,.85-.45,5.84,5.84,0,0,1,2.49-1c1.81-.14,4.29-.33,6.22,2,.57.68.67.68,1.11.69a5.54,5.54,0,0,1,1.49.19,11.87,11.87,0,0,0,1.36.27,12.1,12.1,0,0,1,2.75.7,10.12,10.12,0,0,1,1.69.77c.22.12.49.28,1.17.59.89.41,1.43.66,1.59,1.42a1.44,1.44,0,0,1-.15,1l.06.15a9.66,9.66,0,0,1,.9,2.89c0,.2.07.43.12.72a2,2,0,0,1-.58,2.06,2.41,2.41,0,0,1-2.49.12,2.79,2.79,0,0,0-.42-.14,11.31,11.31,0,0,1-1.54-.45l-.58-.19a9.84,9.84,0,0,1,.06,1.09,1.35,1.35,0,0,0,0,.43s.27.19.46.32.67.46,1.1.81c1.66,1.35,1.83,1.72,1.95,3.92l0,.54c.05.94.2,1.1,2.61,1.81l1.17.36c1,.33,2.35,1.28,2.72,3.94.19,1.36.11,4.77-.74,6.18a10.35,10.35,0,0,0,.06,1.79l.29,2.65-2.36-1.23A2.75,2.75,0,0,0,266,216l-1.24,1.31-1-1.51a2.11,2.11,0,0,0-1.73-1.17,2.18,2.18,0,0,0-1.66,1.32l-.59,1.13-1.19-.47c-.21-.08-.43-.19-.67-.31-.4-.19-1.08-.52-1.3-.42s-.47.43-.78,1.42l-.67,2.16-1.65-1.55c-.26-.24-.5-.38-.63-.35a1.24,1.24,0,0,0-.58.45c0,1-.11,2.26-.11,2.58a7.32,7.32,0,0,1-.46,2.15A5.35,5.35,0,0,1,251,224a7.38,7.38,0,0,0-.42.66,7.89,7.89,0,0,1-1.42,1.71c-.31.32-.63.65-.88.94a3.32,3.32,0,0,0-.09,1.53c0,.19,0,.36,0,.48,0,.57-.29,2.64-.41,3.51l-.17,1.22h-2.74c0,.06,0,.12,0,.16s0,.19,0,.27c0,1.06-.71,3.14-2.34,3.14-.83,0-1.49-.6-2.4-1.43-.2-.18-.48-.43-.66-.58-.45,0-1.41.12-2.41.24v1.28a6.69,6.69,0,0,0,.72,1.66,12.11,12.11,0,0,1,.8,1.73,4.92,4.92,0,0,1,.14,2.82c0,.15-.06.3-.08.47a1.89,1.89,0,0,1-.75,1.31,2.7,2.7,0,0,1-2.21.23,10.83,10.83,0,0,0-1.32-.18,2.36,2.36,0,0,1-.3.86l.07.06a6.19,6.19,0,0,1,.79.81l.49.65a28.37,28.37,0,0,0,2,2.38,19.69,19.69,0,0,0,3,2.55l1.82,1.22-1.86,1.16a17.42,17.42,0,0,1-4.12,1.89,21.35,21.35,0,0,1-5.51.84,12.39,12.39,0,0,0-2.34.28,9.52,9.52,0,0,1-2.69.24c-.12,0-.19,0-.54.43a1.86,1.86,0,0,1-2,.82h-.58a15.79,15.79,0,0,1-1.78-.07l-.77-.06a7.34,7.34,0,0,1-2.64-.56c-1.32-.53-2.62-1.2-2.87-3.13,0-.07-.22-.23-.39-.3l-.23-.09-.22-.17a5.77,5.77,0,0,0-1.64-.92,30.7,30.7,0,0,0-3.62-1,10.49,10.49,0,0,0-.82.71,7.62,7.62,0,0,1-1.13.92c-1.07.64-2.72.23-5.58-.81a16,16,0,0,0-2.35-.5,17,17,0,0,1-3.53-.84,9.61,9.61,0,0,1-4.68-4.17,8.49,8.49,0,0,1-.81-3.24,6.47,6.47,0,0,0-.2-1.27c-.11-.33-.25-.69-.38-1.06a19,19,0,0,1-1-3.24,2.34,2.34,0,0,0-.86-1.33l-.91-.64,1.12-2.92-.21-.56a17.93,17.93,0,0,0-1.64,1.44c-2.06,2.06-3.61.77-4.28.22l-.21-.18a11.53,11.53,0,0,0,0,1.27l0,.48c.07,1.14.13,2.12-1.4,2.7a6.91,6.91,0,0,0-1.73,1c-.52.37-.81.59-1,.72a3.57,3.57,0,0,1-1.1,1.64c-.47.47-.45.73-.12,1.61a2.86,2.86,0,0,1,.2,1.94,1.74,1.74,0,0,1-1.54,1.39,4.65,4.65,0,0,0-1.45.51c-2.35,1.11-3.31.2-4-.94a2.37,2.37,0,0,0-.54-.69c-1.08-.87-1.42-.77-1.77-.67a3.4,3.4,0,0,0-.78.46,8.81,8.81,0,0,1-2.34,1.24c-.61.21-.71.38-1.1,1.09a12,12,0,0,1-.7,1.15c-.27.39-.47.72-.66,1a11.77,11.77,0,0,1-2,2.6l-.22.22c-2,2.06-3.3,2-5.86-.46a2.87,2.87,0,0,0-2-1,10.14,10.14,0,0,1,.17,1.16,26.88,26.88,0,0,0,.58,3.1,10.39,10.39,0,0,1,.35,1.92c0,.13,0,.37,0,.68,0,1-.09,2.88,0,4.25.2,2.78-2.13,3.5-3.25,3.85l-.37.12a4.77,4.77,0,0,0-1.12.72,8.67,8.67,0,0,1-2.75,1.54c-1.17.36-2.61.85-3.7,1.28a2.8,2.8,0,0,1,1,1.86,9.52,9.52,0,0,1-1.89,5.64c-.79,1-1.31,1.59-1.73,2.06a12.15,12.15,0,0,0-.88,1.07c-.21.3-.34.49-.43.64a5.42,5.42,0,0,1-.91,1.12,4.16,4.16,0,0,0-.46.7,9.82,9.82,0,0,1-2,2.52c-1.37,1.25-2.26,1.49-3.54,1a2.88,2.88,0,0,0-.32-.12,12.46,12.46,0,0,1-3.56-2.31l-.16-.13-.66,0a15.32,15.32,0,0,1-2.47.06c-.76,0-.82,0-1.56.88a15.58,15.58,0,0,1-2,2,3.87,3.87,0,0,0-1.37,3.41l-2.71.79a19.08,19.08,0,0,0-2.08-3.66,7.43,7.43,0,0,1-1.56-3c-.08-.3-.17-.65-.35-1.16a7,7,0,0,1,1.35-6.68,8.27,8.27,0,0,0,1-2.28A11.43,11.43,0,0,1,115,273a13.5,13.5,0,0,1,2.21-2.2,13.75,13.75,0,0,0,2.29-2.29c.45-.62,1.08-1.47,1.73-2.33.83-1.11,2.06-2.73,2.4-3.3l0-.27a5.12,5.12,0,0,0,.08-1.54l-.47-.37a22.32,22.32,0,0,1-3.56-3.29c-.93-1.07-1.42-1.64-1-2.46a2.81,2.81,0,0,1,.76-3.13,1.28,1.28,0,0,0,.27-.34,1.2,1.2,0,0,0-.15-.94,5.82,5.82,0,0,0-.64,1.26,2.81,2.81,0,0,1-3.12,2,3.34,3.34,0,0,0-.55,0,9.23,9.23,0,0,0-1.39.49c-1.39.57-2.6,1.06-3.49.16s-.53-1.88,0-4.33c.07-.35.17-.78.24-1.17l-.51.09a7.38,7.38,0,0,1-1.75.19,4.93,4.93,0,0,0-1.08.49l-.47.25a12.59,12.59,0,0,0-.1,1.76v6.49a7.06,7.06,0,0,0,.13,1.62,4.43,4.43,0,0,1,0,1.92c-.09.52.22,1.14.78,2.19a21.1,21.1,0,0,1,1.13,2.36,4.6,4.6,0,0,0,.38.81h0a3.54,3.54,0,0,1,1.72,1.13c1.38,1.54.62,3.85.11,5.37a8.47,8.47,0,0,0-.27.92c0,1.5-1.59,2.2-2.65,2.66l-.17.07a2.12,2.12,0,0,1-.69,1.36,3,3,0,0,1-2.24.58,9.61,9.61,0,0,1-2.56-.52,3.88,3.88,0,0,0-1.32-.27,16,16,0,0,1-6.18-1,4.74,4.74,0,0,1-2.72-1.88.62.62,0,0,0-.34-.3,3,3,0,0,0-1.42,0,4.74,4.74,0,0,1-2.76-.14,3.39,3.39,0,0,0-2.82.26c0,.11,0,.27,0,.39A4.36,4.36,0,0,1,84.4,278a2.8,2.8,0,0,1-2.5,1.54,4,4,0,0,0-2.16.81l.25.16a6,6,0,0,1,1.42,1.08,2,2,0,0,1,0,3,2,2,0,0,0-.57,1.31,15.39,15.39,0,0,0-.07,1.93,3,3,0,0,1-.6,2.35,1.79,1.79,0,0,1-.35.27l2.42,2.84a.77.77,0,0,0,.23.21,4.55,4.55,0,0,0,1-.59,3.55,3.55,0,0,1,3-1,3.17,3.17,0,0,1,2,1.91c.63,1.32,1,1.4,1.43,1.48a2.57,2.57,0,0,1,1.47.72l.5-1,2.59,4.47c.78.46,1.8,1,2.13,1.17a3,3,0,0,1,1.45,1.3,6.78,6.78,0,0,0,.71.91c.61.66,3,1.5,4.16,1.91l.67.24a12.49,12.49,0,0,1,3,1.67l.88.69-1.71,3.75a8.45,8.45,0,0,0-.09,1,26.77,26.77,0,0,0,1.84,4.53c.25.33,1.86.51,2.73.61,1.63.19,3.32.38,4.41,1.35a13.39,13.39,0,0,0,2.1,1.68l.48.32c1.32.88,1.31,2.88,0,6l6.92,4.44-.37,1.06c0,.11-.94,2.68-1.21,3.37a7.46,7.46,0,0,1-1.71,2.67A2.05,2.05,0,0,1,119.13,338.9ZM74.36,319.31l.79.18.35.08c1.77.39,3.46.63,4.95.85l1.31.19c.46.07,1,.11,1.55.15,1.63.12,3.48.26,4.74,1.15a5.7,5.7,0,0,0,2.88.94,17.53,17.53,0,0,1,5.73,2.5,28.36,28.36,0,0,0,4.93,2.6,37,37,0,0,1,5.26,2.09,12.2,12.2,0,0,0,2.17.76,18.06,18.06,0,0,1,3.94,1.5c.65.37,1.44.92,2.27,1.5a20.68,20.68,0,0,0,3.64,2.22,4.15,4.15,0,0,0,.92-1.46c.16-.41.53-1.43.83-2.28l-7.14-4.58.57-1.14a12.53,12.53,0,0,0,1.26-3.67l-.18-.12a15.85,15.85,0,0,1-2.43-1.93,7.35,7.35,0,0,0-2.84-.65c-1.92-.22-4.1-.47-4.94-2.16,0,0-2.14-4.33-2.14-5.8a11.8,11.8,0,0,1,.15-1.69l.11-.35.82-1.81a8.59,8.59,0,0,0-1.34-.64l-.64-.23c-2.22-.78-4.3-1.57-5.3-2.66a9.62,9.62,0,0,1-1-1.25,2.21,2.21,0,0,0-.2-.29,28.52,28.52,0,0,1-2.8-1.52l-.31-.19-.75-1.29a1.69,1.69,0,0,1-.79,0c-.91-.16-1.45-.92-1.61-2.25-1.1-.24-2.26-.8-3.31-3a2.74,2.74,0,0,0-.16-.29c-.18.11-.43.28-.61.41-.91.66-3.05,2.2-5-.08l-.89-1.05c-1.17,1.74-2.12,1.59-2.48,1.54-1.61-.25-1.79-2.25-1.86-3-.2-2.14.1-3.44.95-4.22a2.63,2.63,0,0,1,2.14-.63,17.29,17.29,0,0,1,.09-2.19,4.85,4.85,0,0,1,.87-2.39l-.37-.23c-.8-.49-1.9-1.16-2-2.43a3.08,3.08,0,0,1,1.5-2.42,6.74,6.74,0,0,1,3.5-1.34l.32,0a2.15,2.15,0,0,0,.07-.84,2.86,2.86,0,0,1,1.65-3.08,6.11,6.11,0,0,1,5.14-.27,3.34,3.34,0,0,0,1.17-.07,5,5,0,0,1,3.13.23,3.35,3.35,0,0,1,1.42,1.25c.15.21.28.42,1.35.81a13.37,13.37,0,0,0,5.2.84,6.56,6.56,0,0,1,2.19.41,6.89,6.89,0,0,0,1.85.39,1.86,1.86,0,0,1,.51-1,4.06,4.06,0,0,1,1.29-.74,8.38,8.38,0,0,0,1-.48,8.91,8.91,0,0,1,.39-1.4c.62-1.88.6-2.44.48-2.58a.81.81,0,0,0-.46-.32c-1-.33-1.58-.94-2.19-2.5a18.46,18.46,0,0,0-1-2.06,6.13,6.13,0,0,1-1.08-4,1.87,1.87,0,0,0,0-.89,9.72,9.72,0,0,1-.18-2.18V251.7c0-1.55,0-4.1,1.7-4.32l.34-.19a5.09,5.09,0,0,1,2.66-.83,7.86,7.86,0,0,0,1-.15c1.24-.22,2.4-.43,3.25.17a1.76,1.76,0,0,1,.72,1.18,10.4,10.4,0,0,1-.43,3.11l-.19.88a8.31,8.31,0,0,1,2-.62,6.13,6.13,0,0,1,1,0h.32l0-.12c.19-.51,1.2-3.08,2.95-3.47a2,2,0,0,1,1.9.57,4.34,4.34,0,0,1,1.25,4.55,3.75,3.75,0,0,1-.88,1.3l-.15.15a1.68,1.68,0,0,0,.1.32,3.16,3.16,0,0,1,.25,1.12l.16.18a19.52,19.52,0,0,0,3.14,2.89l.67.52c1.24,1,1,3,.81,4,0,.11,0,.21,0,.27,0,.61-.16.91-2.94,4.59-.64.84-1.26,1.67-1.69,2.27a16.12,16.12,0,0,1-2.75,2.79,11.64,11.64,0,0,0-1.76,1.72,9.52,9.52,0,0,0-1,2.22,10.11,10.11,0,0,1-1.54,3.15,4.26,4.26,0,0,0-.86,3.91c.21.6.33,1,.42,1.38a4.9,4.9,0,0,0,1.11,2.1c.19.25.36.51.53.76a6.69,6.69,0,0,1,1.53-1.8,12.64,12.64,0,0,0,1.62-1.64,4.18,4.18,0,0,1,3.88-1.87,13,13,0,0,0,2-.06,3.31,3.31,0,0,1,2.6.5l.26.21a11.82,11.82,0,0,0,2.55,1.78,5.74,5.74,0,0,1,.62.23h0a5.15,5.15,0,0,0,.54-.44,7,7,0,0,0,1.43-1.86,6,6,0,0,1,.91-1.27,2.78,2.78,0,0,0,.52-.64c.12-.18.26-.41.52-.77a14.78,14.78,0,0,1,1.07-1.3c.39-.44.88-1,1.62-1.93a6.61,6.61,0,0,0,1.28-3.58l-.33-.36a3.09,3.09,0,0,1-1.22-2.53,1.83,1.83,0,0,1,1-1.33,42.46,42.46,0,0,1,5.25-1.94,6.09,6.09,0,0,0,1.87-1.09,6.81,6.81,0,0,1,1.94-1.15l.42-.13c1.3-.4,1.29-.52,1.26-.94-.11-1.51,0-3.48,0-4.53,0-.28,0-.49,0-.6s-.16-.77-.28-1.29a28.38,28.38,0,0,1-.64-3.49,8.36,8.36,0,0,0-.26-1.44,2,2,0,0,1,.18-1.89,1.54,1.54,0,0,1,1-.58l.07,0c.74-.24,3-1,5.6,1.46a8,8,0,0,0,1.32,1.08c.15-.13.39-.36.58-.56l.23-.23a9.06,9.06,0,0,0,1.59-2.06c.22-.36.45-.74.76-1.19a9.23,9.23,0,0,0,.54-.89,4.35,4.35,0,0,1,2.69-2.42,6,6,0,0,0,1.62-.88,5.4,5.4,0,0,1,1.61-.86c1.49-.42,2.74-.08,4.32,1.18a5.06,5.06,0,0,1,1.19,1.44l.36-.16a11.38,11.38,0,0,1,1.26-.51,3.85,3.85,0,0,1,.86-4.37c.16-.16.26-.27.32-.34.09-.88.85-1.43,2.11-2.32a10.4,10.4,0,0,1,2-1.14v-.05l0-.5c-.09-1.75,0-3.48,1.18-4.26a2.34,2.34,0,0,1,2.46,0,6.17,6.17,0,0,1,1.21.83l.22.18.24-.22a21.75,21.75,0,0,1,3.57-2.85l1.46-.9,1.86,4.89-.78,2a4.94,4.94,0,0,1,1.18,2.38,16.63,16.63,0,0,0,.85,2.75c.15.41.3.8.42,1.16a8.62,8.62,0,0,1,.33,1.88,5.92,5.92,0,0,0,.51,2.21,6.74,6.74,0,0,0,3.26,2.86,15.2,15.2,0,0,0,2.91.67,17.21,17.21,0,0,1,2.85.63,14.09,14.09,0,0,0,3.28,1c.15-.13.38-.33.54-.49a4.14,4.14,0,0,1,2.57-1.48,25,25,0,0,1,4.69,1.13,8.49,8.49,0,0,1,2.4,1.3,3.27,3.27,0,0,1,2,2.52c0,.33.05.42,1.11.85a4.59,4.59,0,0,0,1.76.36c.27,0,.57,0,.92.07.76.08,1.48,0,2,.06a3.2,3.2,0,0,1,2.82-1.26,7.48,7.48,0,0,0,1.91-.21,14.87,14.87,0,0,1,2.86-.33,18.78,18.78,0,0,0,4.82-.75,8.53,8.53,0,0,0,1.43-.54,17.17,17.17,0,0,1-1.74-1.63,31.21,31.21,0,0,1-2.13-2.59l-.46-.61a4,4,0,0,0-.44-.44,2.49,2.49,0,0,1-.72-3.46,1.81,1.81,0,0,1,.22-1.65,2.54,2.54,0,0,1,2.2-.76,11.4,11.4,0,0,1,2.06.2,2,2,0,0,0-.1-1.12,10.38,10.38,0,0,0-.62-1.31,6.85,6.85,0,0,1-1-3v-3.75l1.22-.17c4-.57,4.54-.43,4.78-.37a4.62,4.62,0,0,1,1.8,1.25,2.84,2.84,0,0,1,.7-2.09,2.72,2.72,0,0,1,2.06-.79h.35c.12-.89.21-1.69.22-1.9s0-.17,0-.29a5,5,0,0,1,.74-3.53c.28-.34.66-.73,1-1.1a10.86,10.86,0,0,0,.93-1,8.84,8.84,0,0,1,.61-1c.13-.19.33-.48.38-.58a5.38,5.38,0,0,0,.31-1.23c0-.55.12-2.86.13-3.12l0-.32.16-.29a4.26,4.26,0,0,1,2.77-2.1,3.09,3.09,0,0,1,1.38.1,3.63,3.63,0,0,1,1.67-1.58,3.82,3.82,0,0,1,3.14.22,4.62,4.62,0,0,1,3.27-1.7,4.54,4.54,0,0,1,3.24,1.27,5.37,5.37,0,0,1,3.2-.69,2.7,2.7,0,0,1,.48-1.65c.26-.84.69-3.85,0-5.33-.21-.45-.41-.51-.48-.54l-1.12-.34c-2.29-.68-4.46-1.33-4.63-4.37l0-.55a7.38,7.38,0,0,0-.1-1.17,6.94,6.94,0,0,0-.76-.67,11.4,11.4,0,0,0-.94-.69A3.19,3.19,0,0,1,259,194a9.42,9.42,0,0,0-.11-1.3c-.09-.69-.34-2.52,1.38-2.87a6.35,6.35,0,0,1,3,.58c.41.14.92.31,1.11.34h0a8.47,8.47,0,0,0-.62-1.75,3.88,3.88,0,0,1-.33-1.24c-.63-.3-.93-.47-1.15-.59a7.55,7.55,0,0,0-1.3-.58,9.3,9.3,0,0,0-2.17-.55,14.32,14.32,0,0,1-1.67-.34,2.86,2.86,0,0,0-.79-.09,3.76,3.76,0,0,1-3.23-1.69c-.95-1.12-2.08-1.09-3.84-1a4.1,4.1,0,0,0-1.27.59c-1,.56-3.17,1.87-4.66-.44a7.54,7.54,0,0,0-1.49-1.42c-1.38-1.11-3.46-2.8-2.32-5.35a3.34,3.34,0,0,0,.31-1.28c.15-2,1.36-2.3,3.5-2.71a15.07,15.07,0,0,0,5-2.2,14.72,14.72,0,0,1,2.51-1.32c.75-.27,1.23-.41,1.7-.55a28.29,28.29,0,0,0,2.88-1,6.32,6.32,0,0,0,2.06-1.1,17.1,17.1,0,0,1,2.11-1.45,13.79,13.79,0,0,1,2.51-1.2,3.38,3.38,0,0,0,1.78-1.29,26,26,0,0,0,2-2.46l1.33-2.11,1.14,2.21c.84,1.64,2.48,4.21,3.5,4.8a9.58,9.58,0,0,0,2.21.9,8.69,8.69,0,0,1,1.94.77,8.08,8.08,0,0,1,1.48,1.16c.62.57,1,.9,1.5,1a5.65,5.65,0,0,1,3.75,2.07l.28.28a5.21,5.21,0,0,1,1.34,2.11c.12.3.26.67.52,1.17s.36.77.49,1.08c.34.8.34.8.78.94a14.24,14.24,0,0,1,1.73.68,2.51,2.51,0,0,1,1.46-.73s3.36-.33,4,1.58c.1.27.71,1.34,1.07,2l.59,1.06a4.14,4.14,0,0,1,.4,3.32,5.88,5.88,0,0,1-.34.93,2.69,2.69,0,0,0-.33,1.26,3.38,3.38,0,0,0,.17.88,8.83,8.83,0,0,1,.35,1.72,7.46,7.46,0,0,1,.05,1l.4.29a14.87,14.87,0,0,0,3.32,1.49l.73.23.21.74a5.74,5.74,0,0,1,.23,1.36,2.27,2.27,0,0,1-.29,1,2,2,0,0,0-.25,1.17c0,.3,0,.56,0,.79s0,.17,0,.26l.55.17,1.09.33c2.25-.83,3.68-.52,4.24.95.13.33.29.65.44,1a5.41,5.41,0,0,1,.8,2.86l-.09,1h0a1.55,1.55,0,0,0,.47.82,8.18,8.18,0,0,1,1.73,2.61l.07.25.25,1.38,3.54-4.17,4.77.87a19.35,19.35,0,0,1,0-2.62c.2-2.47,2.65-4.16,3.7-4.88l.29-.21c.3-.31,5.63-5.32,6.24-5.89l.15-.14.19-.09s.85-.42,1.67-.92c.63-.38,1.7-.93,2.83-1.52l1.56-.81a4.92,4.92,0,0,0,1.92-1.67l.18-.24.43-.57a10,10,0,0,1,1.52-1.74,4.93,4.93,0,0,0,.91-1.21c.26-.42.59-.94,1.07-1.63.31-.44.31-.44-.06-1.06a6.29,6.29,0,0,1-.76-1.64l-.15-.53c-.45-1.54-1.07-3.65.3-5.47a22.31,22.31,0,0,0,1.6-2.33l.18-.3a24.47,24.47,0,0,0,1-5.11c-.32-.24-.84-.59-1.31-.88l-1-.59.36-1.07a7.3,7.3,0,0,0,.23-1.11,2.58,2.58,0,0,1-1.53.25,2.78,2.78,0,0,1-1.28-.56,2.11,2.11,0,0,1-1.7.13c-1.61-.56-2.19-3.07-2.36-5.47l-1.9-.22-.33-.73c0-.07-.76-1.69-1.06-2.47a3.89,3.89,0,0,0-1.22-.57,5.59,5.59,0,0,0-.46.35,2.07,2.07,0,0,1-1.35.62c-.82,0-1.41-.62-2.24-1.47l-.21-.22-.41-.15a5.78,5.78,0,0,1-1.91-.95,6.5,6.5,0,0,1-1.82-3.87c-.1-.16-.35-.47-.52-.69a8.54,8.54,0,0,1-1.36-2.13c-.13-.33-.34-.77-.58-1.25-.83-1.71-1.37-2.9-1.28-3.89a35.68,35.68,0,0,1,1.21-5.24,18.53,18.53,0,0,0,.53-3.42l-.37-.37c-.49-.48-1.16-1.13-1.92-2-1.39-1.63-1.61-2.13-1.77-3.26l0-.25a7.09,7.09,0,0,0-1.8-1l-.45-.21a9.41,9.41,0,0,0-3.07-.29c-1,0-2.34,0-2.76-1.69a2.65,2.65,0,0,0-.38-.91c-.5-.79-.64-.87-.77-.94a3.69,3.69,0,0,1-.89-.67,13.42,13.42,0,0,0-1.36-1,12.46,12.46,0,0,1-1.56-1.17l-.17,0a9,9,0,0,1-1.12.09c-1,0-1.78,0-2.36-1.21l-.13-.26a8.24,8.24,0,0,0-.64-1.14c-.33,0-1-.08-1.5-.09-.7,0-1.43-.06-2.07-.14a5.11,5.11,0,0,1-3.85-2.07l-.08-.11a14.09,14.09,0,0,1-2,.88c-.37.15-.75.29-1.08.44h0a3,3,0,0,1-.49,1.32,2.1,2.1,0,0,1-1.66.84,5.49,5.49,0,0,1-3.62-1.4,5.24,5.24,0,0,1-1.44.18l-.89,0a3.05,3.05,0,0,1-2.78-1,5.53,5.53,0,0,0-.93.4c-.26.13-.52.26-.77.37a4.57,4.57,0,0,1-3.87-.42,5.85,5.85,0,0,0-1.11.59l-.11.07a3.21,3.21,0,0,1-2.54.14,6.14,6.14,0,0,1-3.7-2.52l-.11-.21a8.34,8.34,0,0,0-1.13-1.83c-.09-.11-.2-.22-.31-.33a4.16,4.16,0,0,1-1.52-3.18,4.52,4.52,0,0,1,.29-1.24,1.32,1.32,0,0,0,.06-.18h0a2.23,2.23,0,0,0-.08-.25,2,2,0,0,1,.18-1.87c.72-1.09,2.36-1.27,3-1.29h.11l2.29.28a20.18,20.18,0,0,0,.08-2.07c-.74-.62-1-1.72-1.26-3.12a3.57,3.57,0,0,1,.87-3.6,2.83,2.83,0,0,1,.15-1.38,3.61,3.61,0,0,1,1.45-2c.21-.16.46-.36.78-.66l.26-.24.26-.24a9.55,9.55,0,0,1,.56-1c.71-1.13,1.15-1.52,2-1.73a.72.72,0,0,0,.22-.08,22.28,22.28,0,0,0,2.13-3.09c.15-1.72.86-9.76.94-10.7a1.92,1.92,0,0,1,1.72-1.91.8.8,0,0,0,.55-.3A3.76,3.76,0,0,1,277.6,67a4.92,4.92,0,0,1,2.31-1.2l1.43-.46V52.25l.57-.08h-.23l.11-10.49,1-.31a7.13,7.13,0,0,0,.74-.28,2.33,2.33,0,0,0,0-.89,5.66,5.66,0,0,1-1.9-2.86l0-.12a4.31,4.31,0,0,1-.21-.9c-.06-.39-.06-.39-.23-.49a5.12,5.12,0,0,1-2.25-3l-.2-.49a1.71,1.71,0,0,0-.11-.23h0a2.25,2.25,0,0,1-1.17-.73c-.07.34-.14.71-.22,1.08-.12.59-.25,1.21-.35,1.8-.32,1.89-2.53,2.56-2.79,2.63l-.25,0a3.31,3.31,0,0,1-2.54-.76,4.34,4.34,0,0,1-.91-2.25,6.62,6.62,0,0,0-.24-.95c-.16-.31-.27-.51-.39-.7s-.29-.49-.49-.89a6.63,6.63,0,0,1-.58-3.42,14.06,14.06,0,0,1,.59-2.51l.3-.91,2.32-.15v-.15c-.6-.12-1.31-.28-1.82-.42s-1.12-.28-1.77-.43-1.35-.32-1.85-.45a11.94,11.94,0,0,1-2.65-1.38,14.09,14.09,0,0,0-1.38-.79,9,9,0,0,0-2.39-.52c-1.69,0-1.75-1.9-1.81-3.57,0-.1,0-.21,0-.33a4.78,4.78,0,0,0-1.76.82,11.49,11.49,0,0,1-2.43,2.33,13.91,13.91,0,0,1-2.1,1.42l-1.05.62c-.27.16-.42.27-.52.34a3.89,3.89,0,0,1-.46,1.41,2.72,2.72,0,0,1-3.39,1.29,2.82,2.82,0,0,0-.66-.1c-1.61.13-1.93-.06-3.57-1.23a1.92,1.92,0,0,0-1.73-.42c-.36,0-.76.06-1.25.06a7.64,7.64,0,0,0-2.87.77c-.36.15-.7.29-1,.39a7.23,7.23,0,0,0-.52,1.09,7.75,7.75,0,0,1-.81,1.58l-.79,1.1c-.39.54-.75,1-1.07,1.48a3.39,3.39,0,0,1-2.48,1.25l-.46.08c-.21,0-.54.36-.85,1.1l-.28.69a8.65,8.65,0,0,1-1.18,2.32,9.24,9.24,0,0,1-3.61,2.51,2.29,2.29,0,0,1-2.71-1.44l-.31-.52a4.63,4.63,0,0,1-.43-3.44c-.12-.56-.38-1.73-.65-2.64a1.88,1.88,0,0,1-.84-.16,7.15,7.15,0,0,0-.93-.23,17.47,17.47,0,0,1-2-.52,2.76,2.76,0,0,1-1.87-1.84,1.13,1.13,0,0,0-.37-.58h0a13,13,0,0,0-3.27,1.29,11.57,11.57,0,0,1-2.7,1.1,5.84,5.84,0,0,0-2.61.94,4.83,4.83,0,0,1-3.06,1.21l-.25,0c-1.24.3-2-.81-2.59-1.75-.22,0-.52,0-.67,0a2.66,2.66,0,0,1-1-.07,19.16,19.16,0,0,0-3.44-.37h-.48a2.51,2.51,0,0,1-.65.46,5,5,0,0,1-1.48.43A5.73,5.73,0,0,1,189,31.5a7.53,7.53,0,0,1-3.62.54,14.93,14.93,0,0,1-3.1-.2,4.29,4.29,0,0,1-2.55-2l-.25-.34a2.14,2.14,0,0,0-.92-.7,1.6,1.6,0,0,1-1.26-1.53A3.66,3.66,0,0,1,179.6,24a5.44,5.44,0,0,1,1.05-.2,1.63,1.63,0,0,0,.85-.29c.44-.26.82-.5,1.12-.7l0-.12A14.18,14.18,0,0,1,182,21l0-.18a2,2,0,0,1,.63-2.4c-.12-.15-.24-.31-.37-.48a2.82,2.82,0,0,1-.51-2.28v-.09a14.88,14.88,0,0,0-2.11-1.37,1.7,1.7,0,0,1-1.32.84,1.77,1.77,0,0,1-1.49-.7c-.49.37-1.11.92-1.67,1.44l1.11.74.14.18a3.07,3.07,0,0,1,.67,2.64c-.41,1.22-1.56,1.54-2.9,1.93l-.17,0a5.58,5.58,0,0,1-3.74-.26l-.34-.11a3.59,3.59,0,0,1-1.51-.93l-2.9,3.32-.78-.13a14.78,14.78,0,0,1-2.28-.6,13.4,13.4,0,0,1-3.5-2,4.33,4.33,0,0,0-1.74.46l.1.36a5.82,5.82,0,0,0,1.15,2.44,4.35,4.35,0,0,1,.82,2.23,3.69,3.69,0,0,0,.25,1c1,2.16.37,3.16-.33,3.63a1.48,1.48,0,0,1-.36.18,2.47,2.47,0,0,1,.75.4,3,3,0,0,1,1,2.34v.17a1,1,0,0,0,.09.54,1.87,1.87,0,0,1,.73,1.43,3.35,3.35,0,0,1-.79,2,6.28,6.28,0,0,1,0,3.54c-.31,1.38-1.6,2.08-3.86,2.08a2.15,2.15,0,0,0-1.56.82,26.4,26.4,0,0,1-3.67,3.06c-.54.3-1.63.91-5-2.49l-11.62,3,2,4.53-1.29.58a16.08,16.08,0,0,0-1.53.8,3.23,3.23,0,0,0-.33,1.13c-.05.28-.1.55-.17.82a4.09,4.09,0,0,0,.41.9,6.82,6.82,0,0,1,.75,1.81,9.82,9.82,0,0,1,0,2.83,11.15,11.15,0,0,0-.07,2.07c.07.1.51.58,2.8,1.41l.5.19a17.5,17.5,0,0,0,3,1,2,2,0,0,1,1.79,2.38,1.81,1.81,0,0,0,0,.25,5.87,5.87,0,0,1,.37,1.18,3.68,3.68,0,0,0,.36,1.06,4,4,0,0,0,.83.83,10.88,10.88,0,0,1,2.1,2.23,2.61,2.61,0,0,1,.38,2.23,3.77,3.77,0,0,1-1.16,1.71,1.76,1.76,0,0,1,.83,1.33c.12,1.27-.81,1.89-3.57,3.75l-.82.55c-2,1.36-1.64,2.38-1.39,3.06a1.77,1.77,0,0,1,.09,1.24c-.1.29-.17.51-2.86,3.53a6.71,6.71,0,0,1,.27,2.2c0,.3-.14,1.15-2,2.43l.14.23a2.08,2.08,0,0,1,.14,2.19,4.07,4.07,0,0,1-3.25,1.69,7,7,0,0,0-1.53,1.14c-1.45,1.31-3,0-3.52-.5l-.32-.27h0c-1.37,0-2.16-1-2.87-1.87a5.37,5.37,0,0,1-.67-1.05,11.5,11.5,0,0,1-2.42-1,12,12,0,0,1-2.49-3.13l-2.77.63c-.53.25-2.87,1.58-4.93,2.79l-.42.25-4.7-.65L94.41,99.57l-8.65.68-6.82,3.32L60.48,107l-13.64,8.53a19.93,19.93,0,0,1-1,3.47,4.26,4.26,0,0,0-.16.43,2.62,2.62,0,0,1,.17,1.53,13.75,13.75,0,0,1-.74,2.49c-.12.33-.23.6-.27.77-.09,1-1.08,1.58-1.72,1.94l-.23.13s-.16.24-.11,1.09a6.15,6.15,0,0,1-.31,2.3l.08,0c1.73.5,1.73,2.61,1.73,3.3,0,1.06-.94,2.06-2.5,3.58-.3.29-.55.53-.67.67S40,138.63,39,139.81a2.78,2.78,0,0,1,1.5,2.22c0,.29,0,.52,0,.73a9.44,9.44,0,0,1,0,1.53c0,.31,0,.65-.07,1,0,.68-.08,1.45-.21,2.25a1,1,0,0,0,0,.53,4.74,4.74,0,0,1,.11.67l.3-.17.73.49,10.18,7,9.05,7.72-.21.85a25,25,0,0,0-.67,3.41,11.83,11.83,0,0,1-.67,3.8,9,9,0,0,0-.21,1.28,8,8,0,0,1-.35,1.81,2.36,2.36,0,0,0,0,.93l.2.83L56,179.09l.6,2.85-.54.54a27.6,27.6,0,0,1-3.58,3.15c-.17.13-.86,1-1.37,1.55-1.63,1.93-2.69,3.12-3.7,3.49a11.18,11.18,0,0,1-2.45.6l-.28,0-3.76-1.11,1.43,3.67-.45.63a14.39,14.39,0,0,1-2,2.28L40,197a3.88,3.88,0,0,1,.45,1.57A8.67,8.67,0,0,1,39,202.55a2,2,0,0,1-1.55.91,1.74,1.74,0,0,1-1.43-.69,7.69,7.69,0,0,0-1,.27,3.35,3.35,0,0,0-.86.47,5.1,5.1,0,0,1-1.6.79,2.23,2.23,0,0,0-1.25,1s0,.07,0,.15a4.08,4.08,0,0,1-.7,2.11,33.39,33.39,0,0,1-4.15,4l.11.25a3.28,3.28,0,0,1-.21,2.57,5.5,5.5,0,0,0-.46,2,1.24,1.24,0,0,0,.27.95,3.29,3.29,0,0,1,.7,2.14c0,1.54-.88,8.64-1,9.44l0,.37-.23.3a28.68,28.68,0,0,0-2,3.08A12.92,12.92,0,0,1,20.42,237a20.9,20.9,0,0,0-2,2.35,25.15,25.15,0,0,1-4.21,4.5,12.35,12.35,0,0,1-2.89,1.68c-.19.08-.39.16-.65.29a5.92,5.92,0,0,0-1.45,2,5.87,5.87,0,0,1-1.44,2.18l0,.1a6.88,6.88,0,0,1,.25.86A7.58,7.58,0,0,1,9.08,252a2.58,2.58,0,0,1,.79,2.15,1.51,1.51,0,0,1-.38.7A6,6,0,0,0,11,256.19c.33.23.67.46,1,.71s.72.19,1.73,0a12.76,12.76,0,0,1,2.31-.17c.78,0,2,.12,3.26.21,2,.15,4.34.31,5.6.31.91,0,2.07,0,3.42.1,1.82.07,4.08.17,6.47.17,4.18,0,16.92,1.45,17.46,1.51l.19,0,.18.07A57.68,57.68,0,0,1,58.55,262c2.25,1.28,2.63,2.91,3,4.64a17.6,17.6,0,0,0,.66,2.27,30.42,30.42,0,0,1,1.09,3.74c.12.51.27,1.12.39,1.49a13.77,13.77,0,0,0,1.41-.4c.46-.15.93-.3,1.37-.41a7.83,7.83,0,0,1,3.29-.1l1,.21.14,1a41.93,41.93,0,0,1,.37,4.87,9.16,9.16,0,0,0,.47,2.56,10.15,10.15,0,0,1,.5,2.83,9.55,9.55,0,0,0,.32,2.05,36.07,36.07,0,0,1,.83,5.52c.27,3.49,4,10.42,5.45,12.79l.44.74-.45.73c-1.57,2.56-1.86,2.75-2.1,2.91A58.71,58.71,0,0,1,70,311.47a1.39,1.39,0,0,0-1,.54,10.82,10.82,0,0,1-2.07,1.73,5,5,0,0,0-.69.54l.24.12a3.1,3.1,0,0,0,1.08.39,9.78,9.78,0,0,0,1.29.16,3.65,3.65,0,0,1,2.44.75,32.75,32.75,0,0,1,2.49,2.76A7.21,7.21,0,0,1,74.36,319.31ZM92,298.1Zm-14.33-7.52a2.33,2.33,0,0,0-.05.3l.12-.29Zm29.76-13.16Zm16.11-14.31s0,.06,0,.1S123.56,263.16,123.56,263.12ZM224,256.71h0Zm-103.7-2.58h0Zm29-.88h0Zm-36.66-.16Zm92.58-.85ZM116.13,251h0Zm33.21-.61h0ZM174.18,241Zm65.17-5.44Zm5.29-1.46Zm26.46-21.66a1.35,1.35,0,0,1-.35.36A1.2,1.2,0,0,0,271.09,212.41ZM245.8,181.65h0Zm96.78-16.91Zm-1-4.54Zm-11.12-8.39Zm-26.64-38.48h0ZM125,97.53h0Zm.2-2.82h0ZM155.8,30.78c0,.16.05.34.08.48.31-.11.66-.22,1-.33l.15,0A11.63,11.63,0,0,0,155.8,30.78Zm31.7-1.67Zm10.87-.78h0ZM179.14,26h0Zm18.61,0h0Zm0,0h0ZM158.94,20.6Z"/></svg>