<svg id="Layer_1" data-name="Layer 1" xmlns="http://www.w3.org/2000/svg" viewBox="0 0 350 350"><defs><style>.cls-1{fill:#646464;}.cls-2{fill:#999;}.cls-3{fill:#f90;}</style></defs><title>M</title><path class="cls-1" d="M129.62,205.45c.22,0-.24-.17-.35-.16a1.14,1.14,0,0,0-.49.13A1.8,1.8,0,0,0,129.62,205.45Z"/><path class="cls-1" d="M136.65,180.86s0,0,0-.05h-.05Z"/><path class="cls-1" d="M157,173.82h0Z"/><path class="cls-2" d="M334,226.61l-.22,0a3.83,3.83,0,0,1-2.92-1.23,4.51,4.51,0,0,1-2.44-1.54l0,0h0l0,0,0,0c-2-1-4-1.88-5.93-2.91a5.69,5.69,0,0,1-1.66-1.91,7.3,7.3,0,0,0-3.42-2.24c-2-.68-4.1-.87-6.09-1.49-2.71-.85-5.57-1.54-8-3a11.86,11.86,0,0,1-5.28-7.4,19.39,19.39,0,0,0-4.24-8.58,5.82,5.82,0,0,0-1.53-1.4,12.2,12.2,0,0,1-3.58-2.76,4.59,4.59,0,0,1-3.3-1.9,1.58,1.58,0,0,1-1-.92c-.07-.16-.14-.33-.2-.49h0l0-.1a12.9,12.9,0,0,1-.65-2.23,19.68,19.68,0,0,0-4-4.75c-1.53-1-3.2-1.91-4.82-2.82a1.66,1.66,0,0,0,.3-.24l-.65-.32a1.11,1.11,0,0,1-1.2-.09c-1.39-.88-2.94-1.51-4.4-2.27a1.83,1.83,0,0,1-.68-.63l0,0A8.8,8.8,0,0,1,262.5,172l-.11,0a8.71,8.71,0,0,0-2.85-.24,8.59,8.59,0,0,1-4.75-1c-3.9.31-5.69-5.47-2.17-7.66,1.07-.67,2.1-1.37,3.11-2.1a3.49,3.49,0,0,1,1.2-3.05A81.44,81.44,0,0,0,268.65,145v0c-1.94-4.73-6-5.29-9.85-7.76-1.81-1.17-3.52-2.58-5.29-3.1l-.2.07a1.31,1.31,0,0,1-.36-.2,4.77,4.77,0,0,0-4.36,1.64l-.24.21a2,2,0,0,0-.07.48c-1.53.72-3,1.45-4.35,2.08a8.94,8.94,0,0,0-.92-.16c-.61-.08-1.21-.22-1.82-.33l-1.38-.28-.13.46a28.16,28.16,0,0,1,3,.86l-.8.33a19.05,19.05,0,0,0-3.51-.75c-.34,0-.92,0-1,.15a5.8,5.8,0,0,0-.67,1.42,10.42,10.42,0,0,1-1.4-.24c-2.43-.61-4.82-1.31-7.24-1.8a6.9,6.9,0,0,0-.63-.74,31.1,31.1,0,0,1-3.59-4.27,5.58,5.58,0,0,0-1.6-2.38,2.69,2.69,0,0,1-.71-1.19c-.54-1.71-.19-3.7-1.58-5.16-.09-.1.07-.4,0-.6a7.4,7.4,0,0,0-.5-2.84,14.24,14.24,0,0,0-2.8-2.87c-1.28-1.11-2.68-2.34-4.48-2a11.06,11.06,0,0,0-3.4,1.75,1.6,1.6,0,0,1-1.91.12,10.25,10.25,0,0,0-6.28-1.63c-4.49-4.47-11.39-6.07-15.46-11a4,4,0,0,0-3.43-1.48c-.93-.72-1.64-.86-2.75.16-3,2.75-7.1,3.95-10,6.94a18,18,0,0,1-3.29,2.24,4.28,4.28,0,0,0-.93-.47c-1.67-1.35-3.27-2.62-4.81-3.93a9.11,9.11,0,0,1-1.44-1.63,14.29,14.29,0,0,0-8.81-5.49c-3.25-.73-6.52.11-9.7.79a60.13,60.13,0,0,0-7.16,2.23,51.13,51.13,0,0,0-6.22,2.47c-2.5,1.27-4.1,3.56-5.63,5.82a4.75,4.75,0,0,1-2.61,2.09c-.48.14-.93.37-1.41.5-1.83.53-3.65,1.16-5.51,1.51-1.58.29-3.22.2-4.83.37-3.16.33-5.75,2.05-8.45,3.54-1.8,1-3.66,2.23-5.61,2.53a65.44,65.44,0,0,1-9.33.3,2,2,0,0,1-1.14-.47c-2.07-1.7-4.18-3.36-6.13-5.2a7.92,7.92,0,0,1-1.81-2.94,17.45,17.45,0,0,1-.55-3.3,1.86,1.86,0,0,0-1.68-1.65c-1.48-.28-3-.45-4-1.88a27.54,27.54,0,0,0-1.74-2.44,7.38,7.38,0,0,1-1.93-4.21c-.19-2.24-.27-2.23-2.42-1.72a5,5,0,0,0-1.23.27,6.7,6.7,0,0,0-1.4,1.09c-.2.2-.18.64-.39.81-1.53,1.2-3.09,2.37-4.65,3.54-1.13.85-2.26,1.68-3.38,2.54q-3.47,2.66-6.92,5.34a31,31,0,0,0-3.43,2.7c-1.76,1.82-3.34,3.81-5,5.7a6.33,6.33,0,0,1-5.63,2l-3.41-.35-.26,0a1.26,1.26,0,0,0-.59-.2,15.79,15.79,0,0,0-9.41,2.16,1.23,1.23,0,0,0,1.24,2.12c.27-.16.54-.29.82-.43l.68.32,0,0a1.76,1.76,0,0,0,1.61.83h.16q6.91,3.3,13.81,6.6c4.36,2.07,7.72,2.94,12.59,2.16,5.24-.85,10.19-2.81,15.06-4.85,1.6-.67,3.53-1.66,5.59-2.58l4.81-1.56a11.73,11.73,0,0,1,4.07-.58,1.19,1.19,0,0,0,.34.19l12.18,4.3A22.29,22.29,0,0,0,87.15,136c-.58.11-1.15.24-1.73.35A4.37,4.37,0,0,0,82.65,138l.91,1.12c-1.83,2.23-1.73,4.82-1.33,7.21a49.9,49.9,0,0,0,2.32,7.2c.24.72.6,1,1.38.68,1-.34,2.05-.55,3.08-.81a10.71,10.71,0,0,0-.3,1.93c-.22,2.95,3.35,5.87,6.21,4.73l6.51-2.61a2.07,2.07,0,0,1,.59,2.64c2.35.31,3.61,2,4.85,3.76a1.66,1.66,0,0,1,.23,1.15c0,.12-.05.24-.07.36a5.34,5.34,0,0,0-.57,1.83,6.9,6.9,0,0,0-1.64,2.69,5,5,0,0,0,2.25,5.54,4.72,4.72,0,0,0,4.66,0c1.34.29,3,.82,4.2,1.09l6.91,1.63a5.5,5.5,0,0,0,1,.14l1,1.38a17.55,17.55,0,0,1,2.78-.58,4.12,4.12,0,0,0,2.7-1.47c.34.23.64.59,1,.66,1.46.31,3,.46,4.42.8,5.62,1.31,11.23,2.67,16.84,4,1.83.44,2.17,1,1.93,2.85-.13,1-.34,2-.52,2.91.93.46,1.75.94,2.63,1.29s1.85.54,2.75.87c.33.12.79.42.83.69.27,1.82,1.93,2.62,2.8,4,.38.59.79.55,1.36.32,1.26-.52,2.55-1,3.83-1.43-1,0-1.94,0-1.8-1.49a4.59,4.59,0,0,1,1.71-.16,12.54,12.54,0,0,1,1.25,1.07l-.22.35h.58l0,0,.19.19H168.2l-1.45,1,.37,2a4,4,0,0,1,1-.43c1.26-.11,2.54-.12,3.8-.27,2.26-.28,1.64-.56,2.85,1.34.08.13.14.27.23.4s.12,0,.2.06l0-.4,2.67-.57.65,1.54,1.71-.45c1.87-.49,2-.37,2,1.6a2.55,2.55,0,0,0,1.07,2.49c0-.18.05-.44.1-.44,2.67-.32,5.33-.61,8-.91a4.07,4.07,0,0,0,1.57,3l.46-.55,0,.18c-.18.13-.35.26-.52.4l0,0h0l-3.86,2.15c1.82,1.69,1.93,3.64,1.52,5.82-.32,1.7-.33,3.47-.49,5.33a1.69,1.69,0,0,1,2.49.69.61.61,0,0,0,.48.27c1.74-.31,1.37.86,1.31,1.83a11,11,0,0,1,0,1.5,1.72,1.72,0,0,1-.56,1.1,1.46,1.46,0,0,0-.82,1.62,3.18,3.18,0,0,1,0,.43,5.6,5.6,0,0,0-2.48,4.26l-.44,3.81c-.48,4.17,5.73,6.55,8.37,3.47,1.93-2.25,5.3-3,7.51-5.22a5.42,5.42,0,0,0,5.56,2.17c2.71-.68,5.61,3.53,7.45,5.47a77.63,77.63,0,0,1,7.29,8.92c3.6,5.13,12.11.23,8.47-5l-.33-.46a1.19,1.19,0,0,1,.69-1.36c.17-.1.2-.57.17-.85-.24-2-.53-4-.77-5.95-.35-2.9-.67-5.8-1-8.7l.68.51a20.29,20.29,0,0,0,7.13,5.65c1.86,1.66,3.7,3.68,5.89,4.82,3.85,2,9.74,2.55,14.33,2.1a5.5,5.5,0,0,0,1.07.07,9.09,9.09,0,0,0,4.44.91c2-.26,3.33-1.58,4.64-3l1.1.39a4,4,0,0,0,1.89.17,8,8,0,0,0,8.45,2.28,3.62,3.62,0,0,1,.43-1.77.83.83,0,0,1,1.12-.29c.47.23.93.46,1.41.67a7.61,7.61,0,0,0,2.35-.58c4-1.75,5.4-5.5,4.73-9.64,0-.08.94-1.69,1.29-2.38l.12-.26a8.91,8.91,0,0,0,3.37-3.27,23.36,23.36,0,0,0,7.89-1.89,3.43,3.43,0,0,1,1.24.1,6.67,6.67,0,0,0,1.35,1,8.93,8.93,0,0,0,2.2.93,6.19,6.19,0,0,0,3.26.15,6.07,6.07,0,0,0,1.45-.25l.24.21h0c.09.87.52,1,1.06.9l.42.37c1.42-.85,3.8.25,5.25,1a25,25,0,0,0,5.63,2.41,8.76,8.76,0,0,1,3.5,1.82c.23-.14.45-.29.66-.45l.14.26c.27.54.59,1.07.75,1.34l1.52-.32c-.42-.81-.64-1.71-1.1-2.46A9.39,9.39,0,0,0,334,226.61ZM155.43,184.14a4,4,0,0,1-.8-.19l.07-.36h.47c.76.22,1.53.39,2.32.55C156.81,184.16,156.12,184.16,155.43,184.14Z"/><path class="cls-3" d="M230.32,251.74a6.31,6.31,0,0,1-5.25-2.77,76.86,76.86,0,0,0-7.15-8.76c-.35-.37-.74-.82-1.16-1.3-1.33-1.54-3.56-4.1-4.93-3.77a6.91,6.91,0,0,1-6-1.57A24,24,0,0,1,203,235.3a12.32,12.32,0,0,0-3.47,2.43,6.11,6.11,0,0,1-7.17,1.29,5.73,5.73,0,0,1-3.69-5.85l.44-3.81a7.21,7.21,0,0,1,2.45-4.81,2.79,2.79,0,0,1,1.35-2.45,1.88,1.88,0,0,0,.07-.27,3.05,3.05,0,0,0,0-.58c0-.24,0-.48,0-.72s0-.22,0-.33a2,2,0,0,1-1.61-.95.81.81,0,0,0-.25-.3.92.92,0,0,0-.39.13l-2.27,1.16.22-2.54c0-.57.08-1.13.12-1.68a31.14,31.14,0,0,1,.39-3.79c.41-2.18.11-3.4-1.09-4.52l-1.43-1.33,4.07-2.26a4.88,4.88,0,0,1-.53-1l-5.71.64-.3,1.44-1.73-1.09a4,4,0,0,1-1.73-3.71c0-.1,0-.18,0-.26l-.22.06-2.9.77-.67-1.59-.34.07.06,1.17-1.9-.54a1.45,1.45,0,0,1-1-.6,3.27,3.27,0,0,1-.23-.38l-.51-.85,0-.06H173l-.9.13c-.77.09-1.54.13-2.28.17-.49,0-1,.05-1.47.09l-.15.08-.48.24-1.65.74-.47-2.54-.71.28a2.29,2.29,0,0,1-3.1-.86,7.16,7.16,0,0,0-1-1.09,6.47,6.47,0,0,1-2-3h0c-.38-.14-.78-.25-1.18-.37a16.7,16.7,0,0,1-1.6-.52,20.32,20.32,0,0,1-1.92-.92l-.82-.42-1-.47.19-1c.05-.3.11-.61.17-.91.12-.64.25-1.28.33-1.93a5.65,5.65,0,0,0,.06-.77l-.12,0,0-.24a5.37,5.37,0,0,0-.83-.26l-.39-.09c-5.48-1.32-11-2.65-16.44-3.93-.74-.17-1.5-.29-2.3-.42s-1.39-.22-2.08-.37a2.3,2.3,0,0,1-.62-.23,4.67,4.67,0,0,1-2.72,1.06,8.57,8.57,0,0,0-1.64.33l-.91.23-.93.21-1.12-1.63-.55-.11-6.91-1.63c-.51-.12-1.12-.29-1.77-.47s-1.34-.37-2-.52a6.07,6.07,0,0,1-5.52-.3,6.36,6.36,0,0,1-2.87-7.24,8.62,8.62,0,0,1,1.65-2.88,6.71,6.71,0,0,1,.55-1.64l0-.15a.43.43,0,0,0,0-.11c-1.24-1.73-2.2-2.91-3.85-3.13l-1.9-.25.8-1.75a1.6,1.6,0,0,0,.11-.29l-5.39,2.16a5.7,5.7,0,0,1-5.47-.89,6.17,6.17,0,0,1-2.68-5.21c-.31.08-.61.17-.9.27a2.48,2.48,0,0,1-2,0,2.54,2.54,0,0,1-1.22-1.54c-.24-.73-.51-1.46-.79-2.18a28.31,28.31,0,0,1-1.58-5.23,10.52,10.52,0,0,1,.95-7.38l-1-1.17.71-.89A5.78,5.78,0,0,1,85.17,135l.87-.17h.07c.27-.65.57-1.3.9-1.93l-10.58-3.73-.28-.12a10.28,10.28,0,0,0-3.21.51L68.19,131c-.88.4-1.75.81-2.57,1.2-1.06.51-2.07,1-3,1.37-5,2.11-10,4.07-15.38,4.94s-9.11-.23-13.42-2.28q-5.65-2.68-11.29-5.39l-2.21-1.05a2.91,2.91,0,0,1-2.28-1h0a2.51,2.51,0,0,1-2.57,0,2.8,2.8,0,0,1-1.39-2.38,2.55,2.55,0,0,1,1.29-2.22,17.26,17.26,0,0,1,10.25-2.35,2.65,2.65,0,0,1,.94.25l3.34.35A4.93,4.93,0,0,0,34.34,121c.66-.73,1.3-1.47,1.93-2.22,1-1.17,2-2.38,3.14-3.51a18.37,18.37,0,0,1,2.53-2.06c.35-.25.71-.51,1-.77L44.82,111l5.09-3.93c.69-.53,1.4-1.06,2.1-1.58l2.19-1.65c1.17-.88,2.33-1.75,3.48-2.65a2.1,2.1,0,0,1,.52-.9A8,8,0,0,1,59.92,99a3.5,3.5,0,0,1,1.28-.36l.31,0c1.37-.33,2.28-.54,3.12.07s.94,1.63,1,2.91a6,6,0,0,0,1.6,3.42A26.75,26.75,0,0,1,69,107.36l.12.18c.52.78,1.32,1,2.7,1.21l.36.07A3.27,3.27,0,0,1,75,111.63c.06.38.1.77.15,1.17a7.93,7.93,0,0,0,.34,1.86,6.52,6.52,0,0,0,1.46,2.41c1.54,1.45,3.23,2.83,4.86,4.16l1.19,1a.83.83,0,0,0,.28.15c.77,0,1.59,0,2.42,0a40.7,40.7,0,0,0,6.66-.29,13.28,13.28,0,0,0,4.15-1.81l1-.56,1.18-.66c2.37-1.34,4.82-2.73,7.81-3,.69-.07,1.38-.1,2.05-.12a18.48,18.48,0,0,0,2.67-.23,36.16,36.16,0,0,0,3.87-1l1.52-.45c.21-.06.41-.14.62-.22s.51-.2.78-.28a3.36,3.36,0,0,0,1.85-1.53c1.46-2.15,3.27-4.82,6.16-6.29a49.71,49.71,0,0,1,6.1-2.44l1.16-.41a53,53,0,0,1,6.46-2l.75-.16c3.08-.67,6.26-1.37,9.56-.62a15.68,15.68,0,0,1,9.65,6,7.66,7.66,0,0,0,1.21,1.38c1.16,1,2.36,1.95,3.59,2.94l1,.83.16.07.31-.18a9.56,9.56,0,0,0,2-1.41,24.32,24.32,0,0,1,5.6-4,24.38,24.38,0,0,0,4.45-3c1.73-1.59,3.14-1.19,4.14-.55a5.38,5.38,0,0,1,4.09,2c2,2.43,4.83,4,7.8,5.68a36.11,36.11,0,0,1,7.14,4.79,11.32,11.32,0,0,1,6.52,1.89s.1,0,.35-.15l.52-.33a10,10,0,0,1,3.35-1.61c2.46-.5,4.29,1.09,5.63,2.25l.3.26a14.18,14.18,0,0,1,2.83,3,5.29,5.29,0,0,1,.65,2.64c0,.26,0,.52.06.77a1.83,1.83,0,0,1,0,.34,7.55,7.55,0,0,1,1.18,3.63,9.43,9.43,0,0,0,.29,1.57,1.41,1.41,0,0,0,.28.55,6.92,6.92,0,0,1,1.93,2.78,29.81,29.81,0,0,0,3.33,3.93c.14.14.28.29.42.46,1.5.32,3,.71,4.43,1.09l2.36.61.19,0,.25-.44.07-.12a2.27,2.27,0,0,1,2.35-.86l.32-1.14,1.73.36.92.19.43.09c.44.09.87.17,1.31.23l.54.08,1.62-.78,1.64-.79.08-.31.36-.3.15-.12a6.13,6.13,0,0,1,5.6-2l.72.17a16,16,0,0,1,4.34,2.38c.43.3.87.6,1.32.89a31.2,31.2,0,0,0,3.08,1.68c2.8,1.39,5.7,2.83,7.3,6.73l.3.73-.45.68A83.46,83.46,0,0,1,257.88,159a2.08,2.08,0,0,0-.73,1.85l.08.82-.67.48c-1.19.85-2.2,1.53-3.19,2.15a2.73,2.73,0,0,0-1.06,3.26,2.35,2.35,0,0,0,2.37,1.78l.42,0,.37.2a7.16,7.16,0,0,0,4,.8,9.89,9.89,0,0,1,3.32.29l.48.14.4.44a7.36,7.36,0,0,0,4.61,2.89l.62.11.37.58a.42.42,0,0,0,.13.12c.5.26,1,.51,1.52.75a29.87,29.87,0,0,1,2.92,1.54l.47-.25.65.31.69.34,1.72.89-.31.31c1.09.61,2.2,1.24,3.26,2l.13.1a21.08,21.08,0,0,1,4.29,5.09l.13.21,0,.24a11.39,11.39,0,0,0,.56,1.93l.05.14.18.45a.18.18,0,0,0,.13.13l.45.14.28.38a3.2,3.2,0,0,0,2.25,1.33l.56,0,.38.41a10.77,10.77,0,0,0,3.17,2.45,5.63,5.63,0,0,1,1.72,1.45l.24.26a20.87,20.87,0,0,1,4.57,9.19,10.42,10.42,0,0,0,4.64,6.54,27,27,0,0,0,6.11,2.36l1.54.47a27.6,27.6,0,0,0,2.71.65,26.51,26.51,0,0,1,3.42.86,8.77,8.77,0,0,1,4.1,2.75c.13.18.26.37.38.56a3,3,0,0,0,.79.94c1.36.72,2.79,1.41,4.17,2.07l.53.25.41-.71,1.15,1.46,1,.5-.05.08.38.22-.19.18a3.36,3.36,0,0,0,.65.24l.39.1.28.28a2.45,2.45,0,0,0,1.78.81l.2,0,3.23-.34-1.94,2.6-.06.07c.09.21.17.42.25.62a9.74,9.74,0,0,0,.42,1l.87,1.66-4.37.93-.66-1.16v0l-.24.15-.78-.61a7.44,7.44,0,0,0-3-1.57c-.51-.12-1-.26-1.43-.42l-2.82,2.77,1.62-3.25c-.76-.33-1.48-.7-2.21-1.08l-1.08-.55c-2.53-1.26-3.51-1.25-3.89-1l-.88.53-.79-.69a2,2,0,0,1-1.54-.94l-.5,0a7.61,7.61,0,0,1-3.87-.2,10.1,10.1,0,0,1-2.48-1,9.07,9.07,0,0,1-1.31-.87h-.26a24.68,24.68,0,0,1-7.4,1.85,10.46,10.46,0,0,1-3.1,2.91c-.17.32-.42.77-.66,1.19l-.38.68c.63,4.89-1.46,8.88-5.63,10.71a9,9,0,0,1-2.79.69l-.37,0-.34-.15-.92-.42a2.73,2.73,0,0,0-.05.53v1.06l-1,.29a9.39,9.39,0,0,1-9.43-2.18,5.6,5.6,0,0,1-1.78-.3l-.24-.08a8.3,8.3,0,0,1-4.85,2.76,10.11,10.11,0,0,1-4.9-.9,7.11,7.11,0,0,1-.84-.07c-4.2.39-10.56,0-14.95-2.27a23,23,0,0,1-4.89-3.84l-1.14-1.06a23.46,23.46,0,0,1-5.14-3.48q.27,2.34.54,4.67c.12,1,.25,2,.38,3s.27,2,.39,3a2.39,2.39,0,0,1-.7,2.14,5.42,5.42,0,0,1,.57,5.48,6.83,6.83,0,0,1-5.58,3.73ZM212.1,232.27c2.67,0,5,2.73,6.81,4.78.39.45.74.86,1.07,1.2a79.55,79.55,0,0,1,7.42,9.08,3.52,3.52,0,0,0,3.29,1.55,4.07,4.07,0,0,0,3.26-2.1,2.66,2.66,0,0,0-.4-2.77l-.49-.69L233,243a2.5,2.5,0,0,1,.82-2.49c-.11-.94-.24-1.87-.36-2.81s-.27-2-.39-3c-.23-1.92-.45-3.84-.66-5.76l-.71-6.17,3.46,2.55.12.16a18.89,18.89,0,0,0,6.63,5.24l.17.09.14.13c.44.4.89.81,1.33,1.23a20.94,20.94,0,0,0,4.27,3.39c3.9,2,9.72,2.32,13.53,1.94l.18,0,.18,0a4.4,4.4,0,0,0,.79.06h.31l.29.12a8.21,8.21,0,0,0,3.71.82c1.49-.2,2.6-1.27,3.79-2.55l.63-.68,2,.7a2.53,2.53,0,0,0,1.22.1l.79-.11.51.62a6.33,6.33,0,0,0,6.07,2,4.68,4.68,0,0,1,.49-1.3,2.25,2.25,0,0,1,3-.87l1,.48a5.9,5.9,0,0,0,1.55-.43c4.23-1.86,4.26-5.89,3.9-8.12-.09-.54,0-.71.78-2.06.24-.43.5-.89.65-1.18l.29-.62.38-.22a7.52,7.52,0,0,0,2.84-2.74l.38-.66.76-.05a22,22,0,0,0,7.42-1.78l.21-.09.23,0a4.84,4.84,0,0,1,1.74.15l.34.09.26.24a5.37,5.37,0,0,0,1.08.75A7.54,7.54,0,0,0,311,221a4.89,4.89,0,0,0,2.6.14l.25,0a4.64,4.64,0,0,0,1.11-.19l.74-.22,1.24,1.07,0,.16H317l.32.24c1.73-.41,3.78.41,5.6,1.32L324,224c.75.39,1.45.75,2.18,1.06l.14-.28h0l.12-.24-.41-.19c-1.41-.67-2.86-1.37-4.28-2.12a5.16,5.16,0,0,1-1.83-1.87l-.31-.45a5.92,5.92,0,0,0-2.74-1.74,24,24,0,0,0-3.06-.76,30.21,30.21,0,0,1-3-.72l-1.51-.46a29.08,29.08,0,0,1-6.76-2.65,13.19,13.19,0,0,1-5.92-8.26,17.76,17.76,0,0,0-3.91-8l-.27-.3a3.77,3.77,0,0,0-.83-.79,13,13,0,0,1-3.64-2.69,6.07,6.07,0,0,1-3.51-2.08,3,3,0,0,1-.92-.71l-.17.09-.63-1.6a14,14,0,0,1-.65-2.16,18.32,18.32,0,0,0-3.53-4.15c-1.14-.77-2.34-1.43-3.61-2.13l-1.52-.85a2.82,2.82,0,0,1-1.12-.42,26.44,26.44,0,0,0-2.7-1.42c-.54-.26-1.08-.52-1.6-.79a3.26,3.26,0,0,1-.85-.64,10.32,10.32,0,0,1-5.55-3.5,8.15,8.15,0,0,0-2-.11,10.06,10.06,0,0,1-5.16-1,5.19,5.19,0,0,1-4.84-3.74,5.53,5.53,0,0,1,2.25-6.56c.76-.48,1.55-1,2.44-1.62a4.9,4.9,0,0,1,1.68-3.38,80.77,80.77,0,0,0,11-12c-1.24-2.41-3.2-3.39-5.63-4.6A33.2,33.2,0,0,1,258,138.4c-.47-.3-.93-.62-1.39-.94a16.77,16.77,0,0,0-3.12-1.86l-.06,0-.49-.08a2,2,0,0,1-.53-.22,3.39,3.39,0,0,0-2.74,1.19l0,.67-.79.4-2.28,1.09-.35.17.13.05-3.12,1.34-.85.35-.47.18-.48-.16a17.4,17.4,0,0,0-3.19-.69,2.25,2.25,0,0,0-.2.47l-.28,1.23-1.25-.14a11.93,11.93,0,0,1-1.59-.27l-2.4-.62c-1.64-.43-3.19-.84-4.78-1.16l-.53-.11-.32-.43a5.73,5.73,0,0,0-.5-.59,32.42,32.42,0,0,1-3.75-4.45l-.17-.32a4.16,4.16,0,0,0-1.2-1.79,4.05,4.05,0,0,1-1.13-1.83,11.66,11.66,0,0,1-.4-2.05,4.26,4.26,0,0,0-.86-2.57,1.66,1.66,0,0,1-.36-1.56c0-.26,0-.54-.06-.81a3.73,3.73,0,0,0-.21-1.29,11.88,11.88,0,0,0-2.29-2.34l-.25-.22c-1.37-1.19-2.25-1.87-3.27-1.66a7.86,7.86,0,0,0-2.38,1.21l-.55.35a3,3,0,0,1-3.48.08,9.1,9.1,0,0,0-5.46-1.38H200l-.42-.42a31.29,31.29,0,0,0-7-4.74c-3.07-1.72-6.24-3.5-8.6-6.34a2.56,2.56,0,0,0-2.24-1l-.54,0-.43-.33a1.51,1.51,0,0,0-.44-.27,2.31,2.31,0,0,0-.48.36,26.93,26.93,0,0,1-5,3.37,21.81,21.81,0,0,0-5,3.51,11.81,11.81,0,0,1-2.6,1.88c-.32.19-.63.37-.94.57l-.78.51-.77-.52a2.9,2.9,0,0,0-.62-.31l-.22-.08-1.38-1.11c-1.25-1-2.46-2-3.64-3a10.37,10.37,0,0,1-1.68-1.88,12.77,12.77,0,0,0-8-4.94c-2.68-.6-5.43,0-8.33.63l-.76.17a50.59,50.59,0,0,0-6.11,1.88l-1.17.41a47.85,47.85,0,0,0-5.75,2.3c-2.24,1.13-3.76,3.37-5.1,5.35a6.16,6.16,0,0,1-3.38,2.66c-.2.06-.38.13-.57.21s-.57.22-.86.3l-1.47.44a39,39,0,0,1-4.17,1.1,21,21,0,0,1-3.08.27c-.62,0-1.25,0-1.86.11-2.4.25-4.49,1.44-6.7,2.69l-1.21.68-1,.54a15.28,15.28,0,0,1-5.13,2.15,43.86,43.86,0,0,1-7.12.32H83.23a3.42,3.42,0,0,1-2.06-.79l-1.18-1c-1.67-1.36-3.41-2.78-5-4.3a9.39,9.39,0,0,1-2.16-3.48,10.11,10.11,0,0,1-.5-2.56c0-.34-.07-.68-.12-1s-.08-.4-.54-.48l-.34-.06c-1.49-.27-3.35-.61-4.56-2.43l-.12-.18a24,24,0,0,0-1.52-2.13,8.81,8.81,0,0,1-2.25-5c0-.15,0-.38-.06-.6l-.63.14c-.19,0-.39.07-.59.1a1.72,1.72,0,0,0-.33.05,4.89,4.89,0,0,0-.9.69,2.05,2.05,0,0,1-.67,1.06c-1.24,1-2.51,1.93-3.77,2.88l-2.21,1.65-2.07,1.55-5.09,3.92-1.83,1.41c-.37.28-.75.56-1.13.83a16,16,0,0,0-2.15,1.74c-1,1.07-2,2.25-3,3.38-.65.76-1.31,1.53-2,2.28a7.68,7.68,0,0,1-6.83,2.48L26.2,125l-.56-.09-.32-.18a14.32,14.32,0,0,0-6.73,1.1l1.1.52.35.41c.15.23.28.22.33.21l.38,0,.5.15,2.53,1.21q5.64,2.7,11.28,5.38c4,1.91,7.08,2.8,11.76,2,5.08-.82,9.87-2.72,14.74-4.76.85-.36,1.83-.82,2.86-1.31.86-.41,1.77-.84,2.7-1.25l.14-.06,4.8-1.56a13.36,13.36,0,0,1,4.56-.65l.46,0,.36.28,13.78,4.86-.92,1.5a21,21,0,0,0-1.81,3.69l-.28.75-.79.15-.77.16-1,.19a3.27,3.27,0,0,0-1.07.37l.79,1-.74.9c-1.49,1.81-1.37,4-1,6.08a25.78,25.78,0,0,0,1.44,4.71c.25.65.49,1.31.72,2,.72-.23,1.45-.4,2.15-.56l3-.74-.6,2.3a9.38,9.38,0,0,0-.26,1.68,3.37,3.37,0,0,0,1.52,2.76,2.91,2.91,0,0,0,2.75.55l7.4-3,.66.69a3.79,3.79,0,0,1,1.23,2.59,10,10,0,0,1,4.33,4,3.06,3.06,0,0,1,.48,2.23l-.12.58-.1.19a4,4,0,0,0-.42,1.34l-.06.49-.35.35a5.56,5.56,0,0,0-1.3,2.15,3.58,3.58,0,0,0,1.63,3.84,3.32,3.32,0,0,0,3.31,0l.44-.22.48.1c.81.17,1.7.42,2.56.66.61.17,1.18.33,1.66.44l6.91,1.63a4.11,4.11,0,0,0,.76.11l.7,0,.79,1.15a10.26,10.26,0,0,1,2.1-.38,2.62,2.62,0,0,0,1.69-1l.93-.89.95.65c.14.1.28.21.41.32l.18.15c.61.13,1.23.22,1.85.32.82.13,1.66.26,2.5.46,5.49,1.28,11,2.61,16.46,3.94l.39.09a7,7,0,0,1,1.27.42h1.23l.19.05c.66.19,1.39.36,2.21.53l12.79,2.58-13,.22h-1.58c0,.19,0,.39-.06.6-.09.67-.21,1.32-.33,2a16.93,16.93,0,0,0,1.56.75c.41.16.86.29,1.34.42s.93.27,1.38.43c.26.1,1.57.64,1.75,1.81a3.54,3.54,0,0,0,1.26,1.87,11.08,11.08,0,0,1,1.13,1.26l1.09-.42A3.37,3.37,0,0,1,165,193l.09-1,.94-.26a6,6,0,0,1,2.23-.2l.39,0,.31.23a13.81,13.81,0,0,1,1.35,1.14h0l.3.31,4.79.16L172,194.69l.67.66c1.49-.21,2,.08,2.84,1.41l3.16-.67.62,1.48.52-.14c1-.26,2.08-.55,2.94.13s.85,1.79.83,2.87a4.37,4.37,0,0,0,0,.56l7-.8,2.09-.23,0,1.54a1.8,1.8,0,0,0,.19.82l1.37-1.58.62,3.81,0,0v0l-.67.69-.28.21-.11.12-.81,1-.36-.36-1.44.8a7.66,7.66,0,0,1,.74,5.67,28.39,28.39,0,0,0-.35,3.41,3,3,0,0,1,1.84,1.14,2.36,2.36,0,0,1,1.71.58,2.76,2.76,0,0,1,.64,2.48c0,.11,0,.22,0,.33s0,.3,0,.46a5.15,5.15,0,0,1-.07,1.24,3,3,0,0,1-1.26,2.06l-.11.07s0,.06,0,.15a3.48,3.48,0,0,1,0,.53V226l-.68.49a4.19,4.19,0,0,0-1.8,3.21l-.44,3.81a3,3,0,0,0,2,2.92,3.35,3.35,0,0,0,3.88-.54,14.54,14.54,0,0,1,4.25-3.07,14.86,14.86,0,0,0,3.33-2.24l1.23-1.21,1,1.44a4,4,0,0,0,4,1.57A3.88,3.88,0,0,1,212.1,232.27ZM192.85,222.2ZM131.72,177h0Zm106.86-37.59h0Zm-218.11-11,0,.28,0,0Zm198.09-4.5h0Z"/></svg>