<svg id="Layer_1" data-name="Layer 1" xmlns="http://www.w3.org/2000/svg" viewBox="0 0 350 350"><defs><style>.cls-1{fill:#999;}.cls-2{fill:#f90;}</style></defs><title>M</title><path class="cls-1" d="M239.86,168.54s-4.65.87-4.78.74S233.4,168,233.4,168a33.11,33.11,0,0,1,1.81-4.91,12,12,0,0,0,2-2.91,3.36,3.36,0,0,1,1.1-1.65c.42-.39,4.55-5.65,4.55-5.65s-6.81-5.39-6.72-5.39a7.63,7.63,0,0,0,.45-1.65c0-.13-.78-2.23-2.13-2.78a2.59,2.59,0,0,0-2.58.78s-1.29-.16-1.78-.26-1.81-4.68-1.81-4.68l3-2.49L229,128.88l-3.42,1.68a16.11,16.11,0,0,0-.84,1.84c-.29.61-.45,1.42-.71,1.61a1.68,1.68,0,0,1-1.36-.23l-.74-.71a1.81,1.81,0,0,0-.16-1.36c-.39-.55-.23-1.1-.48-1.55a14.53,14.53,0,0,0-1.55-2.78,22.22,22.22,0,0,1-2.23-3.46c-.29-.58-1.07-1.32-.94-1.52a22.89,22.89,0,0,1,2-1.58,7.82,7.82,0,0,1,2.52-.52l.84-.58-2-.61s-.42-.29-1-.78-.65-.68.23-2.07a5.76,5.76,0,0,1-.36-3.07s-1.78-1.2-1.94-1.23-.13-1.19-.13-1.19-.74.1-1.23.13-.9-2.68-1.1-3.17a14.85,14.85,0,0,0-1.45-2l-.16-1.58-.87-1.16.1-.87-.9-.74.68-1.1c.36-.58-1-2.62-1.23-3.33s-.45-1.52-.13-2.07.61.84.61.84,1.58-1.16,1.78-1.36a11.81,11.81,0,0,1,2.2-1c.52-.16,1.68-.23,2.16-.39s2,.55,2.49.71.81-.1,1.42-.1,1.23,0,1.36-.23a11.66,11.66,0,0,0,.36-1.49,13.9,13.9,0,0,0-1.58-2.13c-.26-.06-.65-.45-.84-1.36s1-1.1,1-1.1l2,.1.06-1.68s1.45.32,1.65,0,.48-.23,1-.39-.36-.68-.36-.68.26-1.58.26-1.84a2.5,2.5,0,0,0-.19-.71,2.5,2.5,0,0,1-.78-.52c-.36-.36.78-2.87.78-2.87a3,3,0,0,1-.55-.36,5.1,5.1,0,0,0-1.52-.48v-.48c0-.48.45-2,.45-2.81a1.84,1.84,0,0,0-.52-1.42c-.19-.13.16-1.26.32-1.87s1.74-.23,1.78-.42.78-1.16.78-1.36-.32-4.39-.9-5.49-.65-1.16-.87-1.55-1.74-3.1-2-3.78-3.13-5.91-3.23-6a10,10,0,0,0-1-.29l-.32-.39s7.46-3.84,7.78-4.07a4,4,0,0,0,1.1-1.32c0-.23-.26-1.74-.26-1.74s1.49,0,1.61,0a20.16,20.16,0,0,1,1.91,2.2c0,.1-.42.45-.42.45l.32.71,2.39-1.68s.81.94.87,1.07,6,1.1,6.17,1.16a4.61,4.61,0,0,0,1.52-.9,6.4,6.4,0,0,0,.36-1.68c.1-1,.1-1.65.23-2.42s.42-.78.42-.78.19-.48,0-.74-1.07-1.61-1.84-1.87a5.69,5.69,0,0,1-2.16-2l-1.32-2a9.11,9.11,0,0,0,.87-1.26c.45-.78-.13-1.13-.9-1.68s-.19-2.07-.13-2.62a9.84,9.84,0,0,0,0-1.29,3,3,0,0,0-1.23.1c-.74.19-.87-2.1-.87-2.1a1.7,1.7,0,0,0,.55-.9c0-.45.06-.74.74-.58.23-.55,1.29-.65,1.29-.65l-.42-.52a11.12,11.12,0,0,0,1.45-1.32c.52-.61.84-.42,1.49-.65a10.63,10.63,0,0,1,1.78-.36l-1.26-2.45s-1.81,1-2.36,1.39a3.71,3.71,0,0,0-1,1.23c-.19.32-.74.32-1.61.71a8.83,8.83,0,0,1-2.2.84,6.74,6.74,0,0,1-2.2-.58,5.35,5.35,0,0,0-1.91-.48c-.58,0-2-.16-2-.16l3.88,5.17s-2.1,1.94-2.68,2.58a1.94,1.94,0,0,1-1.55.84c-.55,0-.78-.19-1.61-.81s-.87-2.29-1.07-3.52a12.38,12.38,0,0,0-.29-1.81c-.1-.16-.81-1.16-.81-1.16s1.16-1.81,1.52-2.26a6,6,0,0,1,.65-.71l-1.13-2.36-.65,0-1-1.45c-2-3.71-3.55-4.68-3.78-4.81s.39-.81.39-.81a13,13,0,0,0-1.61-1.07,2.24,2.24,0,0,1-1-1.16,6,6,0,0,0-1.29.45c-.55.29-2.71,1.55-2.71,1.55a2.74,2.74,0,0,1-.68,1A22.85,22.85,0,0,1,207.66,15a19,19,0,0,1-1.07-2.36l.68-.9.42-1.42-.45-1.23.94-.87V7.38l-1.07.71-.87-.45-1.61-1.13s-5.28,4.51-6.1,4.8a17.89,17.89,0,0,0-3.05,2.33l-2.91-3.25-2.42,1.21s-.39,1.31,0,1.84-.15,1.11,0,1.36a4.42,4.42,0,0,0,1.11,1.26A10.1,10.1,0,0,0,193,17.27a6,6,0,0,0,0,2.47l.29,1.31-.68,1.16s-1.65,1.74-2,2-1.11.82-1.11.82l1,1.6S189,27.73,189,27.92a7.48,7.48,0,0,1-.34,1.41s-2.62-.53-2.81-.53-1.16,0-1.16.34a10.16,10.16,0,0,1-.15,1.21s-1.21,1.7-1.6,2.28a5.47,5.47,0,0,1-1.26,1.16l2.08,3s-3.29,1.41-3.2,2.81l1.11-.29.78,1,.48,0,0,1.36,3.49.68V45.8s-.48,2.47-1.36,3.15a11.93,11.93,0,0,1-2.71,1.16c-.58.29-1.5,1-2.42,1.5s-3.25,2-3.25,2-4.6.78-4.75.82-1.4,0-1.4,0l-.82-1.7h-.68l-.39-.63a43.22,43.22,0,0,1-2.47-4.36,24.33,24.33,0,0,1-7.94-.68l.53,2.28-1.31.34a.72.72,0,0,1,.78.78c0,.82-.16.86-.16,1.5a8.42,8.42,0,0,0,.1,1.23s1.91-.32,2.23-1a1.79,1.79,0,0,0,.06-1.32s.48-.68.94-.68a6.63,6.63,0,0,1,1.45.36l.9,3.91-1.32.36a9.39,9.39,0,0,0-.32.9,2,2,0,0,0,1.16.78.89.89,0,0,1,.71.71,2.66,2.66,0,0,1-.36.81c-.16.23-.55.45-.42.9s.06.81.13,1,.68,1,.68,1-.1.81.13,1.1,1.36.29,1.45.23l.94-.61a4.87,4.87,0,0,1,1.29,1.07,10.84,10.84,0,0,0,1.26,1.42s-.52.42-.32.71a10.89,10.89,0,0,0,.61,1.07,12.15,12.15,0,0,1,2.16,2.68c.26.74,2.62,5.94,2.62,5.94s-6.91,3.26-7.56,3.68-2.36,1.32-2.36,1.32l-1.55,1.16s.52,1.71.78,2.23a13.8,13.8,0,0,0,1.07,1.84,25.84,25.84,0,0,1,1.68,2.81c.23.52.65,3.36.68,3.46s.19.29-.23.9a8.65,8.65,0,0,0-.87,2.33c-.13.52-.06.48-.61,1s-1,.55-1.23,1a1.7,1.7,0,0,1-1.1.94,12.53,12.53,0,0,1-1.68.65,7,7,0,0,1-.84.06,20.26,20.26,0,0,1-1.16,2.16,3.2,3.2,0,0,0-.58,2,9.38,9.38,0,0,1,.23,2.26c-.1.81-.45,3.1-.45,3.1a13.8,13.8,0,0,1,.78,2.1c-.13,0-1.32.16-1.32.16a55.74,55.74,0,0,0-7-.71,7,7,0,0,0-3.36,1.13l-.1-.19s-3.39.71-3.49.68-.87-.71-.87-.71l-1.65.39a18.62,18.62,0,0,0-1.81-1.58c-.48-.29-1.32.06-1.32.06l-.61-.65L136,109.21l1.36,2.26s-.29.55-.19.65,1.07,1.81,1.07,1.81-.9.71-.78.81a12.83,12.83,0,0,1,.87,4.13c.1,2,.36,6.33,1.16,8.3a11.12,11.12,0,0,0,1.71,3.23c.26.19.36,1.1.36,1.1a34.64,34.64,0,0,0-.29,4.81c.19.48-1.74.84-3.55,1.61a10.71,10.71,0,0,0-2.71,1.58,35.78,35.78,0,0,0-1.58,3.39c-.13.58-1.55,1.39-1.52,1.49l1.39,3.94-.32,1c0,.1,2,5.36,2,5.91v1.19a4.12,4.12,0,0,1-1.16.9,4.09,4.09,0,0,0-1.78,1.61,14.78,14.78,0,0,0-.39,1.49s1.19,1.19,1.16,1.55a8.12,8.12,0,0,0-.23,1.55,12.58,12.58,0,0,1,.81,1.52c.13.39,0,1,.1,1.07s2.84.65,2.84.65l1,2c.1.19,1.23,3.52,1.23,3.52s-2.49,1.36-2.65,1.55.81,2.13,1.16,2.68.78,1.81,1.2,1.91a18.27,18.27,0,0,0,2.84-.35,11.45,11.45,0,0,0,1.29,1.1c.13,0,1,.16,1,.16l.1,1.23-1.58.29s-1.65-1.49-1.74-1.49-3.13,1.1-3.36,1.16a11.64,11.64,0,0,1-1.84,0c-.19,0-3.55,1.26-3.84,1.29s-1.26.26-1.26.26a1.79,1.79,0,0,1,0,1.31,8,8,0,0,1-.66,1.16,13.21,13.21,0,0,1-2.23,1.07l.53,2.81-.92.39.34,3-1.11.48,1,3.49c2.29-1.44,7.36-2.05,7.36-2.05l1.39-.87,1.91.65a2.88,2.88,0,0,0,.78-.68c.19-.32,1.07-.39,1.52.71a48,48,0,0,0,5,10.75s-3.65,1.45-4.62,2a1.45,1.45,0,0,0-1,1.65,2.13,2.13,0,0,1-.61,1.49c-.16.1-1.78.23-2.29.34s-.1,1-.13,1.15a8.27,8.27,0,0,1-1,.9s.52.81.71.84,1.07,0,1.07,0a3.84,3.84,0,0,0,.71,1.71c.68,1,1.42,2.36,1.58,2.49a6.83,6.83,0,0,1,1.68.68,17.85,17.85,0,0,1,1.84,3.2s-2,1.71-2.65,2.2a1.38,1.38,0,0,1-.56.26,1.48,1.48,0,0,0-2.4-.48c-1.68,1.7-6.64-1.26-9-1a16.16,16.16,0,0,0-6.85,2.29c-2.07,1.34-2.56,3.63-4.47,5-2.56,1.79-6.58,1.05-8.75,3.69a3.78,3.78,0,0,0-.53,4.36c1.22,2.83,4.41,6.49,6.53,8.63,1.8,1.81,4.72,2.34,7.13,2.86,2.6.56,4.93.63,7.11,1.22l-.26.44s4.59,3.52,5,3.68a24.25,24.25,0,0,1,2.2,1.42s-3.75,3-3.84,3.07a13.14,13.14,0,0,0,1.23,1.94l3-1.36s-.19-1,0-1.13a9.25,9.25,0,0,0,1.19-1.26c.26-.39,1.39-.06,2.23-.13s1.58-.42,1.87-.16.58,1.29,1.32,1.91,1.39-.94,2.07-.71a4,4,0,0,1,1.74,1.19c.58.61,1.32,0,1.74-.36s1.26-1,1.07-1.2a1,1,0,0,1-.29-1c.06-.52-1.58-.71-1.78-.71s.29-.55.81-.94,1.13-.36,2-.74.19-.26.68-1.13,1.65-.78,2.07-1.07.26,0,.87.19a8.23,8.23,0,0,1,1.94,1.36,7.45,7.45,0,0,1-1.23.32c-.61.1.42,2.36.55,2.68a3.39,3.39,0,0,1-.42,2.23c-.48.9-.13,1-.48,1s-1.52.29-2.33.42-2.75,2-2.75,2l1.61,3.36a10.16,10.16,0,0,0,1.45,2.26,8.19,8.19,0,0,1,1,2.49c.26.81-.29,1.39-.42,2s-.81,1-.74,1.36,1.52,3.68,1.52,3.68a7.11,7.11,0,0,1,1-.39,16.19,16.19,0,0,1,2.39-.29,5.1,5.1,0,0,0,1.55.94c.94.36,2.52-.16,2.78-.06s-2.42,2.68-2.45,2.84.32,1.26.32,1.36-.87.42-1,.19a8.21,8.21,0,0,0-.29-1.52c-.23-.39-1.1-.71-1.68-1a3.54,3.54,0,0,0-1.71-.1c-.36,0-1,.55-1.61,1.23a7.39,7.39,0,0,1-2,1.71c-1.16.71-1.36.52-1.36.52l.06,3.94,2.1-.16s2,1.07,2.2,1.19.16.45.16,1.16a5.53,5.53,0,0,0,1.58,2.75c.36.1,2.39.74,3.13.87s1.49.48,2.07.52,1.26,1.39,1.26,1.39a5.13,5.13,0,0,1-.39,1c-.26.48.39,1.52.39,1.52s-.74.61-.84.65,1.81,3.88,1.81,4a2.27,2.27,0,0,1-.68.81,15.66,15.66,0,0,1-1.55,1.07,5.9,5.9,0,0,1-2.58.39,9.53,9.53,0,0,0-2.71,0c-.71.16-.94,2.1-.94,2.39s.23,2.49.23,3.39,0,1,0,1.78a21.26,21.26,0,0,0,1.65,3.94s1.68,1.81,2.49,2a30.63,30.63,0,0,0,4.55-.16l4.42-1.74,1.52,2.39s2.45.06,3.1,0a18.28,18.28,0,0,0,2.23-.55l.74,1a8.65,8.65,0,0,1-1.16,1.71c-.52.48-.32,1.32-.55,1.49s-2.52,3.29-2.52,3.29l.42,2.29L167,329a26.24,26.24,0,0,1,1.13,4.2,5.81,5.81,0,0,1-.71,2.87,8.71,8.71,0,0,1-2.36,1.49c-.1-.06.45-1.49.32-1.91s-.84-.84-.78-.71-.29.19-1.45.36a32.41,32.41,0,0,0-4.13,1.26s.78,1.23.94,1.58a14.36,14.36,0,0,1,1,2.36.71.71,0,0,1-.48.71l2.55,1.74a12,12,0,0,1,1.29-.23c.61-.06,1.42.81,1.42.81a6.4,6.4,0,0,1,1.52-1.26c1.1-.71,1.39,0,1.39,0a7.2,7.2,0,0,0,.81-1.36c.16-.48,1.13-1.07,1.49-1.42s.36-1.16.61-2a15.25,15.25,0,0,1,.81-1.87,9.92,9.92,0,0,1,1.13-.58,15.55,15.55,0,0,0,2.2-2.13l-.74-1.87s1.52-1.71,1.84-2.2.84-.23,1.52-.55,2.52-2,2.68-2a10.73,10.73,0,0,1,1.23,1.84l1.23-.68,2.2,0a8,8,0,0,0,1.84-1.42,21.73,21.73,0,0,0,2.1-3.26,7,7,0,0,1,0-1.84c.16-.45.42-1.49.58-1.94s.68-1.07.52-1.74a12.28,12.28,0,0,1-.1-2.26l-1.45-2.55-.1-.48a17.78,17.78,0,0,1,.42-1.91c.13-.26,9.72-11,9.72-11a4.41,4.41,0,0,1,1.32.23,5.26,5.26,0,0,0,1.32.45,1.49,1.49,0,0,1,1.16.48c.29.39.71.26,1.16,0a2.71,2.71,0,0,1,1.61,0c.16.06,1.07.19.9,0s-1.19-2.87-1.19-2.87l.78-.45,0-2.91,1.39-.84s1.13-1.1,1.29-1.32a4.67,4.67,0,0,0,.16-1.55,3.58,3.58,0,0,1,.36-1.07,8.19,8.19,0,0,1-.19-1.55c0-.71,1.2-1.42,1.2-1.42a11.4,11.4,0,0,1,1.29-1.45,15.7,15.7,0,0,0,2.81-2.62,10.12,10.12,0,0,0,1-1.78c.19-.48.45,0,.45,0l1-.9-2.81-3,3.65-5.3,6.33,1.26-.39-2.75a12.33,12.33,0,0,0,1.36-.74c.16-.16.23-.58.29-.68a7.36,7.36,0,0,0-.16-1.29s2.68-.94,3.1-1,.71.74.71.84.48.26.81.18a3.64,3.64,0,0,1,1-.14c.45,0,.52.32.81,0s-.16-1.26-.16-1.26a1.63,1.63,0,0,1-.78-.55,3.51,3.51,0,0,1-.19-1.49s.94-.1,1-.39a8.47,8.47,0,0,1,.68-1.42,4.64,4.64,0,0,0-.9-.87,1.52,1.52,0,0,1-.58-1.58,19.5,19.5,0,0,1,.94-4.26,5.69,5.69,0,0,1,2.49-2.58l-1.42-2.94,4.88-2.81.19-3s-1.29-.39-1.74-.58.1-1.68.1-2a6.6,6.6,0,0,0-.68-2.13,57.43,57.43,0,0,1-3.29-7.14c-1.16-3.17-.29-4.72-.29-4.72a19.86,19.86,0,0,1-1.87-1c-.19-.19-7.46-8.72-7.46-8.72s-.19-3.39-.23-3.94a9.79,9.79,0,0,0-.68-2.84,6.74,6.74,0,0,0-.87-1.2l3-4.13a12.3,12.3,0,0,0,1.52-1.13c.78-.68,3.16-3.55,3.94-4.36a24.89,24.89,0,0,1,3.84-2.68c.45-.23,3.07-1.32,3.78-1.74s.32-1.45,1.07-2a11.11,11.11,0,0,0,2.58-3.94,4.29,4.29,0,0,0-1-2.39c-.39-.45-1.87-3.42-2-3.58s2.71-3.23,2.75-3.39a3.14,3.14,0,0,0-.1-1,5.67,5.67,0,0,1,.42-1.87c.16-.58,1.84-1.68,1.84-1.68l-1.94-2.52Z"/><path class="cls-2" d="M165.78,345.62l-1.12-1.17a2.5,2.5,0,0,0-.41-.34c-.46.06-.93.17-.94.17l-.61.14-5.38-3.68,2-.69c-.17-.37-.38-.81-.48-1l-.18-.37c-.08-.17-.5-.87-.85-1.41l-.93-1.48,1.64-.61a31.79,31.79,0,0,1,4.43-1.33l.72-.1.31-.41.88.14a2.8,2.8,0,0,1,1.63,1.2,6.78,6.78,0,0,0,.22-1.53,25.31,25.31,0,0,0-1.05-3.74l-.38-1.1,4.38-2.54-.35-1.91.36-.49c1.4-1.91,2.06-2.77,2.41-3.19a3,3,0,0,1,.61-1.55l-.48.07c-.7.07-2.85,0-3.28,0l-.75,0-1.29-2L163.32,318l-.2,0a24.27,24.27,0,0,1-5,.13,8.65,8.65,0,0,1-3.2-2.42l-.13-.14-.09-.17a16.37,16.37,0,0,1-1.8-4.53c0-.83,0-.9,0-1.83,0-.52-.09-1.63-.15-2.36,0-.51-.07-.91-.07-1s.06-3.32,2-3.77a11.2,11.2,0,0,1,3.2,0,4.83,4.83,0,0,0,1.77-.25,8.75,8.75,0,0,0,1-.66l.24-.18-.26-.54c-1.48-3.1-1.48-3.1-1.2-3.76l.25-.59.12,0a2.25,2.25,0,0,1,.14-1.65l.08-.16-.12-.16a7.49,7.49,0,0,1-1.07-.28,6.87,6.87,0,0,0-.82-.22c-.59-.1-1.69-.43-2.76-.75l-.5-.15c-1.18-.32-2.63-3-2.63-4.11,0-.09,0-.17,0-.25l-1.24-.66-3.19.25-.15-9,1.88,1.89.21-.12a5.11,5.11,0,0,0,1.4-1.14l.31-.34c.27-.28.52-.53.77-.75l-.4-.9a30.55,30.55,0,0,1-1.61-4,2,2,0,0,1,.57-1.7,2,2,0,0,0,.19-.25,4.19,4.19,0,0,1,.3-.87,2.13,2.13,0,0,0,.15-.42l-.15-.5a6,6,0,0,0-.59-1.51,11.52,11.52,0,0,1-1.64-2.55l-1.62-3.36-.44-.92.73-.71c1-1,2.47-2.22,3.51-2.38l1.18-.22.41-.08c.05-.12.12-.25.19-.39a2.63,2.63,0,0,0,.31-1.13v0c-.68-1.59-1-2.65-.66-3.47l-.39.1a2.26,2.26,0,0,0-.56.18h0a1.85,1.85,0,0,1-1.32,1.71l-.45.18a1.65,1.65,0,0,1,.25,1l.3.25,0,.75c0,.6-.29,1.18-1.65,2.22-1.83,1.43-3,.9-3.64.21a3.51,3.51,0,0,0-.75-.64c-1.08.9-2.07,1-2.94.27a5.16,5.16,0,0,1-1.22-1.58,7.39,7.39,0,0,1-1,.15,7.47,7.47,0,0,1-1.19,0l-.31,0c-.2.23-.44.47-.64.67l0,.22.21,1.1L132.22,262l-.68-.94c-1.35-1.88-2-2.82-1.08-3.77.06-.06.13-.13,2.45-2l-.35-.2c-.16-.06-.58-.22-5.32-3.87l-.67-.51c-.68-.12-1.39-.22-2.12-.32-1.12-.15-2.27-.31-3.51-.58l-.44-.09c-2.41-.51-5.4-1.15-7.39-3.15-2.49-2.51-5.59-6.21-6.83-9.06a5.16,5.16,0,0,1,.74-5.83c1.55-1.88,3.75-2.37,5.7-2.8a9.5,9.5,0,0,0,3.34-1.15,7.36,7.36,0,0,0,1.75-2,9.79,9.79,0,0,1,2.77-3,17.65,17.65,0,0,1,7.49-2.51,11.91,11.91,0,0,1,4.23.8c1.05.32,3.51,1.07,3.93.65a2.8,2.8,0,0,1,2.44-.83,3,3,0,0,1,1.2.49l1.21-1a12.57,12.57,0,0,0-1-1.78,4.4,4.4,0,0,0-.69-.22,2.36,2.36,0,0,1-.92-.4,5.35,5.35,0,0,1-1-1.47c-.26-.42-.56-.91-.84-1.35A7,7,0,0,1,136,214l-.23,0c-.59-.1-1-.5-1.67-1.47l-.7-1.09,1-.79.37-.29a2,2,0,0,1,.26-1.25,1.71,1.71,0,0,1,1.1-.77c.26-.06.76-.12,1.26-.18l.5-.06a.45.45,0,0,0,0-.13,2.82,2.82,0,0,1,1.72-3c.61-.32,2.06-.94,3.21-1.41a46.63,46.63,0,0,1-4.17-9.12l-.35.24-.57.35-1.9-.64-1.09.68-.32,0c-1.32.16-5.12.81-6.78,1.84l-1.59,1-1.89-6.49,1.3-.56-.34-3,.84-.35-.54-2.83,1.08-.43c.65-.26,1.35-.56,1.69-.74l.09-.12a2,2,0,0,0,.32-.56.43.43,0,0,0,0-.27l-1-1.68,2-.24c.29-.07,1-.22,1.33-.27s1-.33,1.5-.53c2.19-.79,2.37-.84,2.83-.77.18,0,1,.05,1.31,0l.29-.1a7,7,0,0,1-.67-1.19,5.73,5.73,0,0,0-.28-.55c-2-3.17-1.31-4.06-1.06-4.36s.29-.35,2-1.31c-.38-1.12-.73-2.12-.8-2.28l-.67-1.35c-2.49-.51-2.57-.59-2.87-.89a1.79,1.79,0,0,1-.46-1.41,1.58,1.58,0,0,0,0-.27s-.19-.39-.66-1.18a2.6,2.6,0,0,1-.05-2l0-.07a10,10,0,0,0-.69-.76l-.54-.54.15-.75a15.47,15.47,0,0,1,.44-1.67,5.33,5.33,0,0,1,2.62-2.47,1.57,1.57,0,0,0,.24-.18v-.49c-.13-.56-.94-2.74-1.34-3.81-.79-2.14-.79-2.14-.62-2.64l.17-.54-1.24-3.52a1.65,1.65,0,0,1,.85-1.88,6.67,6.67,0,0,0,.68-.55,32.66,32.66,0,0,1,1.65-3.54l.12-.23.19-.17a12,12,0,0,1,3.1-1.83c.69-.3,1.37-.53,2-.73l.68-.24c0-.74.08-2,.32-4.14,0-.08,0-.17,0-.23a13.53,13.53,0,0,1-1.9-3.57c-.64-1.56-1.05-4.43-1.27-8.77a14.27,14.27,0,0,0-.6-3.29l-.26-.2,0-.72a1.59,1.59,0,0,1,.41-1.07l-.39-.65a1.51,1.51,0,0,1-.26-1.39l-1.7-2.83,3.74-2.47.86.91a2.49,2.49,0,0,1,1.59.29,11.73,11.73,0,0,1,1.5,1.24l1.61-.38.55.48.32.28,2.81-.57.46-.1a8.25,8.25,0,0,1,3.21-.87,44.55,44.55,0,0,1,6.43.59l-.07-.16-.16-.37.06-.4s.35-2.26.45-3.05a4.75,4.75,0,0,0-.12-1.27c0-.24-.08-.47-.11-.67a4.63,4.63,0,0,1,.84-3,18.07,18.07,0,0,0,1-1.94l.38-.81h.9a6.05,6.05,0,0,0,.65-.05,4.62,4.62,0,0,0,.57-.23,8.9,8.9,0,0,1,.85-.35c.2-.07.21-.09.28-.23a2.65,2.65,0,0,1,1.11-1.11,2.23,2.23,0,0,0,.41-.29l.18-.17,0-.15a9.19,9.19,0,0,1,1.06-2.75c0-.12,0-.26-.07-.42-.25-1.5-.42-2.39-.5-2.63a27.74,27.74,0,0,0-1.47-2.45,14.73,14.73,0,0,1-1.23-2.1,22.33,22.33,0,0,1-.86-2.45l-.29-.95,2.53-1.88c.46-.24,1.76-.94,2.25-1.26s4.23-2.12,6.46-3.18c-.74-1.65-1.89-4.22-2.09-4.79a13.19,13.19,0,0,0-1.66-2,2.7,2.7,0,0,1-.75-1c-.07-.15-.15-.3-.21-.39a1.65,1.65,0,0,1-.25-1.26,6.12,6.12,0,0,1-.74-1l-.07-.06-.14.09a3.09,3.09,0,0,1-3.36-.54,2.53,2.53,0,0,1-.45-1.54,4.19,4.19,0,0,1-.55-.9,2.18,2.18,0,0,1-.14-.76,1.51,1.51,0,0,0,0-.34,2,2,0,0,1,.3-1.74,2.42,2.42,0,0,1-1.46-1.85,3.73,3.73,0,0,1,.42-1.43l.26-.66.69-.18-.24-1a3.12,3.12,0,0,1-.15.39c-.53,1.11-2.07,1.58-3.27,1.79l-1.4.24-.23-1.4a9.71,9.71,0,0,1-.12-1.46,4,4,0,0,1,.08-.85l-11.33.23,11.66-3-.75-3.22,2.28.6a23.06,23.06,0,0,0,7.39.64l1.06-.14.43,1a41.47,41.47,0,0,0,2.35,4.15h.77l.82,1.68h.27c.33-.07,1.27-.24,4.48-.78.63-.4,2.29-1.47,3.06-1.91.41-.24.81-.5,1.19-.75a14.22,14.22,0,0,1,1.31-.8,7,7,0,0,1,1-.37,5.06,5.06,0,0,0,1.49-.64,6.41,6.41,0,0,0,.81-2.17V43.53l-3.45-.67-.05-1.43-.41-.52-1.88.49-.12-1.7c-.1-1.5,1.25-2.67,2.52-3.43l-2-2.86,1.2-.8a4.07,4.07,0,0,0,.87-.77c.3-.45,1.07-1.54,1.43-2a6.26,6.26,0,0,0,.07-.66,1.62,1.62,0,0,1,.49-1.16,2.74,2.74,0,0,1,2.05-.59,10.42,10.42,0,0,1,1.78.29,2.38,2.38,0,0,1,1-1.37l-1-1.63,1.13-.78c.28-.19.79-.56,1-.73s1-1,1.77-1.81l.32-.54-.17-.77a7.29,7.29,0,0,1-.15-2,10.78,10.78,0,0,1-1.15-.88,5.91,5.91,0,0,1-1.37-1.55,1.83,1.83,0,0,1-.13-1.58,4.11,4.11,0,0,1,0-2.79l.17-.59,3.94-2,2.69,3A10.43,10.43,0,0,1,198,10c.5-.26,3.35-2.57,5.66-4.54l.83-.71L207,6.45l2.57-1.72V8.87l-.7.65.29.78-.62,2.12-.35.47.09.22a17.33,17.33,0,0,0,2.18-1.38,2.83,2.83,0,0,0,.34-.42l.06-.67.59-.13s2.2-1.28,2.76-1.58a7.26,7.26,0,0,1,1.66-.58l1.24-.27.4,1.21a.84.84,0,0,0,.31.36,14,14,0,0,1,1.83,1.2l1.2.94-.61.67a18.14,18.14,0,0,1,3.14,4.4l.54.8.78,0,1.89,3.95.46.05c.51.06,1.44.15,1.81.15a6.52,6.52,0,0,1,2.46.6,6.46,6.46,0,0,0,1.58.47,9.19,9.19,0,0,0,1.17-.49l.52-.23a9.3,9.3,0,0,1,1-.38l.1,0A4.72,4.72,0,0,1,237,20.4c.6-.42,2.3-1.37,2.49-1.47l1.28-.71,2.86,5.58-2,.23a8.77,8.77,0,0,0-1.47.29,4.43,4.43,0,0,1-.77.19h-.08a8.46,8.46,0,0,1-.59.61l1.22,1.51-2.65.24-.22,0-.35.85-.43-.1a3.06,3.06,0,0,1-.24.39l0,.11a3.67,3.67,0,0,1,.89,0l1.09.22,0,1.11a11,11,0,0,1,0,1.52c0,.15-.06.36-.12.6a5.7,5.7,0,0,0-.15.84c.72.51,2.15,1.63,1.11,3.41-.13.22-.25.42-.37.6l.79,1.21a4.9,4.9,0,0,0,1.43,1.46,5.66,5.66,0,0,1,2.45,2.26l.08.11a2.23,2.23,0,0,1,.18,2.12l-.39.89c0,.27-.05.55-.07.86s0,.67-.09,1.06a7.71,7.71,0,0,1-.45,2.06c-.37.92-2.18,1.67-2.2,1.68a1.57,1.57,0,0,1-1,.06L237.37,50c-4.28-.75-4.78-.83-5.09-1.34l-2.7,1.9-1.37-3a6,6,0,0,1-1.5,1.71c-.23.16-2.23,1.21-5.95,3.13,1.12,1.74,3.18,5.88,3.2,5.92.19.51,1.59,3,1.9,3.57l.13.22c.15.25.3.5.77,1.38.79,1.49,1.07,6.11,1.07,6.15a2.77,2.77,0,0,1-.65,1.52l-.21.32c-.22.69-.85,1-1.87,1h-.06l-.08.32a3.69,3.69,0,0,1,.51,1.92,10.7,10.7,0,0,1-.3,2l0,.23a3.25,3.25,0,0,1,.84.42,2.72,2.72,0,0,0,.31.21l1.37.55L227,79.37a15.35,15.35,0,0,0-.6,1.57l.36.15.25.53a3.52,3.52,0,0,1,.31,1.27,9.12,9.12,0,0,1-.15,1.28,1.63,1.63,0,0,1,.4,1.26,1.59,1.59,0,0,1-1.15,1.33,4.86,4.86,0,0,1-.51.13,1.87,1.87,0,0,1-1.21.44l-.06,1.6-2.45-.12a13.75,13.75,0,0,1,1.73,2.36l.3.47-.1.55a7,7,0,0,1-.48,1.86c-.51,1-1.63,1-2.45,1H221a1.81,1.81,0,0,0-.36.05,2.64,2.64,0,0,1-1.53,0l-.43-.17a11.08,11.08,0,0,0-1.34-.47,10.24,10.24,0,0,1-1.14.19,8.16,8.16,0,0,0-.85.14,14,14,0,0,0-1.72.75c-.17.14-.58.47-1.71,1.3.08.18.21.42.3.6.69,1.33,1.33,2.58.68,3.64l0,0,.54.44-.12,1.08.77,1,.16,1.54a10.26,10.26,0,0,1,1.4,2,7.9,7.9,0,0,1,.29,1.07c.06.26.17.73.27,1.12l.26,0,1.65-.22,0,1.66c0,.08,0,.17,0,.26.33.21.79.51,1.44.95l.74.5-.13.88a4.39,4.39,0,0,0,.15,2.12l.47.75-.47.75-.26.43.48.37,4.62,1.39-3.58,2.48-.39,0a9,9,0,0,0-1.82.28l-.92.7a4.55,4.55,0,0,1,.36.59,22.43,22.43,0,0,0,2,3.09,9.43,9.43,0,0,1,1.53,2.57c.1.22.19.4.24.5a3.07,3.07,0,0,1,.35,1.14,1.31,1.31,0,0,0,.06.29,2.66,2.66,0,0,1,.44,1.09l.09-.2c.1-.21.22-.5.33-.77.43-1,.6-1.45,1.16-1.73l3.43-1.68,1.49-.73,3.1,10-3,2.49c.35,1.14.75,2.29,1,2.89l.5.07a3.67,3.67,0,0,1,3.56-.6,5.89,5.89,0,0,1,3,4.09,6.19,6.19,0,0,1-.17,1.23c1.31,1.06,4.06,3.25,5.89,4.7l1.11.88-.87,1.11c-1.57,2-4.27,5.42-4.71,5.82a2,2,0,0,0-.69,1,11,11,0,0,1-2.25,3.4,27.45,27.45,0,0,0-1.28,3.52l.51.4c.81-.11,2.56-.41,4-.69l1.42-.27.92,5.47,2.65,3.45-1.28.84a8.24,8.24,0,0,0-1.3,1l-.12.37a7.32,7.32,0,0,0-.22.77,4.21,4.21,0,0,1,.08,1.48c-.09.43-.18.54-1.34,1.88-.31.36-.8.92-1.14,1.34.77,1.49,1.25,2.36,1.41,2.58A5.56,5.56,0,0,1,242,189.5c-.11,1.31-2.19,4.18-3.09,4.91,0,.07,0,.19-.07.27a2.64,2.64,0,0,1-1.18,1.86c-.5.3-1.61.79-2.89,1.36l-1,.44a25,25,0,0,0-3.46,2.39c-.29.3-.81.9-1.38,1.55-1.23,1.41-2.14,2.45-2.65,2.89a14.18,14.18,0,0,1-1.46,1.11l-2.22,3.05c.12.17.23.35.34.55a10.91,10.91,0,0,1,.85,3.44l.2,3.47c2.66,3.13,6.39,7.49,7,8.22.26.16,1,.54,1.55.83l1.33.67-.73,1.3h0s-.48,1.17.39,3.53a56.54,56.54,0,0,0,3.19,6.92,7.63,7.63,0,0,1,.87,2.84,3.52,3.52,0,0,1-.13.82l0,.15.81.25,1.08.32-.32,4.85L234.63,250l1.46,3-1.26.62a4.28,4.28,0,0,0-1.8,1.86,12.33,12.33,0,0,0-.71,3.09c-.05.4-.1.73-.15,1a.18.18,0,0,0,0,.09,5.93,5.93,0,0,1,1.2,1.15l.6.75-.48.84a11.19,11.19,0,0,0-.52,1,1.57,1.57,0,0,1-.56.92l.16.06.29.53c.26.54.78,1.9-.06,2.83a1.67,1.67,0,0,1-2,.47,2.37,2.37,0,0,0-.58.1,2.49,2.49,0,0,1-2-.38l-.45-.35-1,.32a1.72,1.72,0,0,1-.13.94,2.47,2.47,0,0,1-.58,1.08,3.07,3.07,0,0,1-.81.54l.53,3.72-7.37-1.47L216,276.3l3,3.21-2.74,2.4c-.15.26-.35.56-.59.95a14.07,14.07,0,0,1-2.94,2.82l-.18.14a9.74,9.74,0,0,0-1,1.2l-.17.22-.24.14a2.71,2.71,0,0,0-.5.4,7.38,7.38,0,0,0,.15,1l.11.5-.23.46a3.75,3.75,0,0,0-.21.51,3.79,3.79,0,0,1-.43,2.3,13.51,13.51,0,0,1-1.46,1.52l-.25.2-.71.43,0,2.92-.42.25c.27.68.52,1.29.62,1.49a1.46,1.46,0,0,1,0,1.67c-.81,1.12-2.57.43-2.59.42a2.86,2.86,0,0,0-.49,0,2.11,2.11,0,0,1-2.82-.34h-.1a3.43,3.43,0,0,1-1.35-.35l-.47-.19-.26-.07c-3.31,3.73-8.14,9.18-9,10.24-.06.26-.16.75-.25,1.21l1.54,2.7,0,.41a10.68,10.68,0,0,0,.06,1.88,3.24,3.24,0,0,1-.45,2.32,2.56,2.56,0,0,0-.12.23c-.07.2-.17.54-.26.88s-.23.81-.32,1.06,0,.74.06.95,0,.34,0,.42c0,1-2.4,4.13-2.42,4.16a9,9,0,0,1-2.24,1.76l-.33.19-2.2,0L181.64,330l-.69-1.22-.29-.5a10.32,10.32,0,0,1-1.78,1.27,3.65,3.65,0,0,1-1.14.32c-.3.39-.79,1-1.19,1.43l.74,1.88-.58.65c-1.93,2.19-2.49,2.41-2.73,2.51a5.92,5.92,0,0,0-.58.28,11.67,11.67,0,0,0-.54,1.29,6.66,6.66,0,0,0-.17.71,3.35,3.35,0,0,1-.79,1.83,7,7,0,0,1-.62.52,6.31,6.31,0,0,0-.57.48,8.47,8.47,0,0,1-1,1.62l-1.5,2-.59-1.45a4.87,4.87,0,0,0-.85.72Zm-1.43-4.36a2.63,2.63,0,0,1,1.28.37c.23-.18.51-.38.83-.59a3,3,0,0,1,1.59-.54l0-.07a3.91,3.91,0,0,1,1.48-1.69l.26-.21c0-.11.07-.31.1-.46a9.56,9.56,0,0,1,.25-1,16.16,16.16,0,0,1,.9-2.09l.18-.36.35-.21a11.39,11.39,0,0,1,1.24-.64A13.68,13.68,0,0,0,174,332.6l-.74-1.86.58-.65c.7-.79,1.56-1.79,1.72-2a2.28,2.28,0,0,1,1.75-1,1.14,1.14,0,0,0,.34-.07,17.24,17.24,0,0,0,1.59-1.23c.81-.67,1-.83,1.41-.92.88-.18,1.4.32,2,1.32L183,326l2.17,0a5.57,5.57,0,0,0,1.13-.9,29.27,29.27,0,0,0,1.76-2.62,5.18,5.18,0,0,1,.1-2.06c.07-.21.17-.54.26-.88s.23-.82.32-1.06a4.87,4.87,0,0,1,.27-.59,2.44,2.44,0,0,0,.19-.43,9.86,9.86,0,0,1-.14-2.15l-1.37-2.41-.19-1,0-.26a8.75,8.75,0,0,1,.55-2.29c.11-.22.21-.43,9.93-11.35l.42-.48h.64a5.83,5.83,0,0,1,1.81.31l.58.23.33.13a3.12,3.12,0,0,1,1.74.57,2.73,2.73,0,0,1,.83-.2l-.32-.83-.43-1.12,1.12-.66,0-2.89,1.92-1.16.88-.88c0-.15,0-.41,0-.86A3.51,3.51,0,0,1,208,289a8.46,8.46,0,0,1-.13-1.38,3.32,3.32,0,0,1,1.64-2.48,10.64,10.64,0,0,1,1.38-1.5l.19-.15a14.34,14.34,0,0,0,2.31-2.12,9,9,0,0,0,.88-1.54,1.87,1.87,0,0,1,.51-.73l-2.34-2.47,4.83-7,5.29,1.05-.25-1.79.93-.45L224,268c0-.2-.07-.48-.12-.74l-.23-1.2,1.15-.4c.83-.29,2.8-1,3.25-1.08a1.73,1.73,0,0,1,1.18.15,6.11,6.11,0,0,1,0-1.28l.07-1.2,1.18-.12.06-.13a3,3,0,0,1-1.12-3.05c0-.16.06-.39.1-.67a14.91,14.91,0,0,1,.9-3.81,6.5,6.5,0,0,1,2-2.54l-1.46-3,5.36-3.09.07-1.1c-.31-.1-.62-.21-.81-.3-1.42-.61-1-2.32-.82-3.14l.05-.21a6.33,6.33,0,0,0-.48-1.38,58.85,58.85,0,0,1-3.4-7.36,9.21,9.21,0,0,1-.62-4.46,4.68,4.68,0,0,1-1.21-.77c-.16-.16-2.69-3.12-7.54-8.81l-.31-.36-.25-4.41a8.94,8.94,0,0,0-.5-2.24,5.23,5.23,0,0,0-.66-.91l-.8-.85,3.85-5.31.24-.15a11,11,0,0,0,1.32-1c.41-.35,1.55-1.67,2.38-2.62.61-.7,1.16-1.33,1.47-1.65a25.21,25.21,0,0,1,4.23-3l1.1-.49c.73-.32,1.89-.83,2.42-1.11l0-.13a2.93,2.93,0,0,1,1.09-1.88,12,12,0,0,0,2-3,3.56,3.56,0,0,0-.63-1.31,23.5,23.5,0,0,1-1.9-3.37l-.23-.44c-.57-.95-.15-1.44,1.88-3.79l.66-.76c0-.07,0-.14,0-.22a4.18,4.18,0,0,1,.31-2.15c0-.15.09-.29.13-.42a3.15,3.15,0,0,1,1.2-1.58l-1.27-1.65-.56-3.32c-4,.73-4.08.63-4.62.09-.19-.17-1.54-1.21-1.54-1.21l-.77-.6.28-.93c.91-3,1.61-4.86,2.08-5.41a10,10,0,0,0,1.72-2.38,4.8,4.8,0,0,1,1.5-2.3c.25-.26,1.87-2.27,3.53-4.38-6.42-5.08-6.4-5.13-6.07-6.09l.23-.65.1-.43a3.31,3.31,0,0,0-1.2-1.56c-.37-.15-.94.35-1,.42l-.49.53-.72-.09c-.14,0-1.36-.17-1.88-.28-.74-.15-1.33-.26-2.89-5.68l-.26-.89,3-2.47-1.55-5-1.54.75-.19.47c-.13.32-.27.65-.39.9a6.38,6.38,0,0,0-.23.61,3,3,0,0,1-.9,1.53,2.89,2.89,0,0,1-3.21-.36l-.71-.68-.62-.59.23-.83a.73.73,0,0,0,0-.23A3.08,3.08,0,0,1,220,131a1.46,1.46,0,0,0,0-.21c-.06-.09-.18-.34-.32-.65a9.8,9.8,0,0,0-1-1.77,23.2,23.2,0,0,1-2.49-3.82,5,5,0,0,0-.39-.55c-.41-.54-1.1-1.43-.46-2.39.14-.21.28-.42,2.3-1.93a2.12,2.12,0,0,1,.34-.2l-.07-.06a2.28,2.28,0,0,1-.45-3.27,7.06,7.06,0,0,1-.25-2.24l-1-.62a1.42,1.42,0,0,1-.89-1c-1.43,0-1.81-1.66-2.21-3.4-.07-.29-.12-.54-.17-.68a19.11,19.11,0,0,0-1.21-1.56l-.28-.33-.17-1.63-1-1.3.07-.67-1.27-1,.66-1.06.46-.75c-.13-.34-.41-.88-.57-1.2a7.52,7.52,0,0,1-.6-1.35l0-.14a3.79,3.79,0,0,1,.06-3,1.57,1.57,0,0,1,1.63-.81,1.51,1.51,0,0,1,.65.27l.37-.29a11.45,11.45,0,0,1,2.74-1.32,8.5,8.5,0,0,1,1.31-.24,8.29,8.29,0,0,0,.83-.14c.82-.27,1.8.07,3.09.59l.21.09.1,0a4.35,4.35,0,0,1,1-.12h.19s0,0,0,0c-.34-.52-.68-1-.87-1.22a3.11,3.11,0,0,1-1.44-2.26,2.17,2.17,0,0,1,.32-1.69,2.84,2.84,0,0,1,1.84-1.1l.15,0,.69,0L222,84l1.66.37.59.1c.08-.48.16-1,.21-1.38a3.78,3.78,0,0,1-.53-.44c-.54-.54-.73-1.31,0-3.21l-.5-.11-1.17-.2V77.47a7.34,7.34,0,0,1,.22-1.4,10.33,10.33,0,0,0,.24-1.41,1,1,0,0,0-.06-.38c-.8-.7-.49-1.8-.17-3l.08-.31a2.15,2.15,0,0,1,2.3-1.42l0,0,.17-.26a23,23,0,0,0-.72-4.54c-.42-.79-.55-1-.69-1.24l-.15-.26s-1.76-3.09-2.1-4c-.19-.49-2.13-4.06-2.84-5.29l-.39-.1-.45-.11-1.74-2.1,1.57-.81c2.74-1.41,7.25-3.75,7.67-4a5.19,5.19,0,0,0,.4-.44c0-.31-.12-.79-.19-1.2l-.28-1.66h1.68a9.2,9.2,0,0,1,1.95.07,8.21,8.21,0,0,1,2.4,2.36l1.7-1.2.84,1,.63.75c.79.16,2.56.47,3.6.65l1.61.28.43-.26a6.7,6.7,0,0,0,.17-1c0-.36.06-.68.08-1,0-.51.07-1,.16-1.54a3.2,3.2,0,0,1,.3-1,3.11,3.11,0,0,0-.81-.87,7.2,7.2,0,0,1-2.87-2.59L235,36.33l.7-.81a7.17,7.17,0,0,0,.48-.67l-.15-.11-.11-.08c-1.34-1-1-2.66-.8-3.55a1.76,1.76,0,0,1-.82-.33c-.69-.5-1.08-1.55-1.17-3.11l0-.69.52-.46.08-.09a2.32,2.32,0,0,1,.24-.88,3.53,3.53,0,0,1-.88.19,7.74,7.74,0,0,1-2.83-.69L230.1,25l2.58,3.44-.94.87c-.57.53-2.15,2-2.59,2.49a3.31,3.31,0,0,1-2.6,1.31,3.53,3.53,0,0,1-2.3-1L224.1,32c-1.18-.86-1.38-2.47-1.54-3.76,0-.24-.06-.47-.09-.68-.08-.52-.13-.9-.17-1.18l0-.25-.65-.93-.56-.78.52-.81c.2-.31,1.22-1.89,1.6-2.37l.07-.08-.35-.73-.52,0-1.43-2.16c-1.85-3.43-3.22-4.25-3.23-4.25l-.59-.34-.16-.74a1.56,1.56,0,0,1,0-.51l-.43-.25a3.39,3.39,0,0,1-.94-.73l0,0c-.4.21-1.67.95-2.3,1.31a5.53,5.53,0,0,1-.73.93c-.47.49-4,2.77-4.87,2.77-1.09,0-1.36-.69-2.38-3.25l-.29-.74,1-1.34.21-.73-.54-1.47-.23-.13-.72-.5c-3.14,2.65-5.06,4.11-5.72,4.34a17.56,17.56,0,0,0-2.57,2l-1.06,1-3.14-3.51-.83.42a1.58,1.58,0,0,0,0,.2,2.24,2.24,0,0,1,.25,1.7,6.56,6.56,0,0,0,.56.54,8.76,8.76,0,0,0,1.47,1l1,.52-.27,1.08a4.61,4.61,0,0,0,0,1.82l.41,1.85-1.15,1.9c-.4.42-1.73,1.82-2.09,2.14l-.13.11,1,1.63-1.13.78c-.35.24-.72.51-1,.71-.06.29-.17.68-.34,1.22L189.65,31l-1.25-.25L186,30.25l-.06.34-.06.32-.19.26s-1.19,1.67-1.57,2.24a4.37,4.37,0,0,1-.53.64l2.33,3.36-1.6.68a9.92,9.92,0,0,0-1.27.67l.13.17,1.12.11.05,1.47,3.53.69,0,4.88c-.18.9-.71,3.09-1.88,4a7.39,7.39,0,0,1-2.37,1.11,4.34,4.34,0,0,0-.58.2c-.24.12-.62.37-1,.63s-.87.57-1.32.83c-.88.51-3.16,2-3.19,2l-.25.16L177,55c-2,.33-4.21.72-4.61.79a7.29,7.29,0,0,1-1.78.1h-.89l-.82-1.7h-.58l-.8-1.3c0-.08-1.26-2-2.11-3.6-.61,0-1.23,0-1.84,0l.56.2,1.39,6-.75.2a2.29,2.29,0,0,1,.7,1.53,3.61,3.61,0,0,1-.62,1.63l-.11.14c0,.17,0,.32,0,.44.18.26.45.63.45.63l.33.45v.09l1-.67.76.45a5.37,5.37,0,0,1,1.8,1.58,10.36,10.36,0,0,0,1,1.11l1.15,1.11-.82.67,0,.09A11.63,11.63,0,0,1,173,68.15c.17.5,1.67,3.83,2.57,5.82l.58,1.27-1.26.6c-3.29,1.55-7,3.32-7.4,3.59-.6.39-2,1.12-2.36,1.33l-.66.49c.16.49.31.92.39,1.06a13.25,13.25,0,0,0,.9,1.58A25.76,25.76,0,0,1,167.58,87a17.45,17.45,0,0,1,.69,3.27l.06.36a2.22,2.22,0,0,1-.42,2.1,6.94,6.94,0,0,0-.67,1.87l0,.14a2.58,2.58,0,0,1-1,1.55,4.9,4.9,0,0,1-.89.65l-.1.06a3.1,3.1,0,0,1-1.86,1.54,6,6,0,0,0-.57.24,4.88,4.88,0,0,1-1.37.47h-.11a14,14,0,0,1-.93,1.64,1.85,1.85,0,0,0-.32,1c0,.14,0,.3.08.47a7.06,7.06,0,0,1,.15,2.11c-.07.61-.29,2-.4,2.75.8,1.87,1,2.38.51,3.06L160,111h-.77l-1.13.15-.21,0-.2,0a54.44,54.44,0,0,0-6.75-.7,5.66,5.66,0,0,0-2.62.88l-1.34.93-.34-.68c-2.71.56-2.77.54-3.16.41a2.21,2.21,0,0,1-.8-.51l-1.7.4-.56-.54c-.52-.51-1.11-1-1.41-1.28l-.19.06-.47.19.68,1.14-.27.5.74,1.3.6,1.06-1,.75,0,0a19.53,19.53,0,0,1,.66,3.74c.24,4.93.71,7,1.06,7.83a14.54,14.54,0,0,0,1.34,2.7,2.81,2.81,0,0,1,.83,2l0,.15,0,.15c-.19,1.69-.36,3.77-.33,4.3a1.58,1.58,0,0,1-.09,1.09c-.37.81-1.23,1.09-2.52,1.53-.55.19-1.17.4-1.76.65a10.81,10.81,0,0,0-2.15,1.2c-.59,1.16-1.23,2.49-1.33,2.81a3.08,3.08,0,0,1-1.22,1.63l1.06,3,.16.45-.15.46-.18.57.45,1.21c1.33,3.58,1.52,4.22,1.52,4.69V157l-.37.41a5.15,5.15,0,0,1-1.71,1.28,3.44,3.44,0,0,0-1,.83c0,.13-.09.32-.14.52,1,1.13,1.06,1.68,1,2.1,0,.17-.07.44-.13.74l-.07.33a7.59,7.59,0,0,1,.71,1.42,2.44,2.44,0,0,1,.1.4l1.78.37.69.14.31.63,1,2c.05.1.14.29,1.3,3.7l.38,1.13-1,.57-1.65.92a13.15,13.15,0,0,0,.68,1.29,8.62,8.62,0,0,1,.46.87l.18.37c.51-.06,1.31-.19,1.95-.31l.71-.13.52.5c.3.29.64.59.85.77l.75.13,1.08.19.28,3.59-3.53.65-.52-.47L140,181l-1.34.47-1.35.47a8.7,8.7,0,0,1-2.12,0c-.35.11-1.18.41-1.75.61a15.29,15.29,0,0,1-2,.65,3.31,3.31,0,0,1-.18.67,4.81,4.81,0,0,1-.69,1.24c-.2.48-.64.8-1.92,1.36l.53,2.8-1,.42.34,3-.93.4.2.69a29.57,29.57,0,0,1,6-1.42l1.7-1.07,1.78.6a1.94,1.94,0,0,1,1.7-.7,2.68,2.68,0,0,1,2.22,1.79l.06.17a46.79,46.79,0,0,0,4.87,10.37L147,205l-1.59.63c-1,.4-3.74,1.51-4.48,1.9l-.23.14s0,.1,0,.19a3.4,3.4,0,0,1-1.3,2.77,4.27,4.27,0,0,1-1.73.37h0a1.47,1.47,0,0,1,0,.24h.73l.06,1.35h0a3.38,3.38,0,0,0,.48,1c.3.46.62,1,.89,1.43l.39.63a4.5,4.5,0,0,1,1.7.79,12.64,12.64,0,0,1,2.22,3.69l.46,1-.82.7c-.08.07-2,1.75-2.72,2.25a2.81,2.81,0,0,1-1.11.51l-1.08.23-.49-1a.29.29,0,0,0-.15-.13c-1.6,1.65-4.33.82-6.75.09a11.7,11.7,0,0,0-3.14-.69,14.67,14.67,0,0,0-6.21,2.07,7.23,7.23,0,0,0-2,2.19,9.92,9.92,0,0,1-2.47,2.75,11.71,11.71,0,0,1-4.35,1.6c-1.71.38-3.19.7-4.12,1.83a2.38,2.38,0,0,0-.32,2.9c1.08,2.5,4,6,6.24,8.19,1.4,1.4,3.83,1.92,6,2.38l.45.1c1.13.24,2.23.39,3.29.54a30.37,30.37,0,0,1,3.89.7l1.78.48-.55,1c1.7,1.3,3.37,2.54,3.76,2.77a19,19,0,0,1,2.41,1.55l1.15.81a6.86,6.86,0,0,1,1,0,6.05,6.05,0,0,0,.75,0,5.18,5.18,0,0,0,.7-.12,2.35,2.35,0,0,1,2.23.31,3.18,3.18,0,0,1,.66,1c.07.13.14.27.23.41a2.12,2.12,0,0,1,2-.46,4.93,4.93,0,0,1,.94.42l-.28-.68c-.17-.51-.22-1.33,1.34-2.5a4,4,0,0,1,1.47-.64c.19,0,.36-.1.55-.16a3.2,3.2,0,0,1,.27-.63,3.36,3.36,0,0,1,2.36-1.54l.23-.06a1.63,1.63,0,0,1,2,.08,7.68,7.68,0,0,1,2.47,1.65l1.74,1.57-2.2.81-.28.09c.08.23.19.51.35.88l.07.18a4.58,4.58,0,0,1-.49,3.42.92.92,0,0,0-.13.33,1.53,1.53,0,0,1-1.47,1.41c-.17,0-.54.09-1,.17l-1.28.24a8.52,8.52,0,0,0-1.24.94l1.16,2.4a8.81,8.81,0,0,0,1.27,2,7.06,7.06,0,0,1,1.12,2.51l.14.45a3.25,3.25,0,0,1-.25,2.39,2.7,2.7,0,0,0-.13.35,3,3,0,0,1-.58,1.22l.74,1.76a17.19,17.19,0,0,1,2.57-.31l.61,0,.44.42h0a3.78,3.78,0,0,0,1.08.64,4.58,4.58,0,0,0,1.4-.08,2.53,2.53,0,0,1,1.38,0l.71.27.19.76c.21.9-.26,1.39-2,3.19l-.33.35,0,.15a2.8,2.8,0,0,1,.16.81c0,.39-.17,1.32-1.71,1.64a1.64,1.64,0,0,1-2-.89,3,3,0,0,1-.18-.92c0-.1,0-.25,0-.37-.18-.1-.45-.22-.63-.31l-.45-.21a2.5,2.5,0,0,0-.6,0l-.21,0a6.9,6.9,0,0,0-.86.8l-.28.3a7.85,7.85,0,0,1-2,1.64c-.17.1-.4.24-.66.37l0,1.34,1-.08.36.19a19.78,19.78,0,0,1,2.42,1.34c.69.56.69,1.32.69,2.27a6.91,6.91,0,0,0,.86,1.47l.26.08c.63.19,2,.59,2.43.67a9.16,9.16,0,0,1,1.18.31,4.54,4.54,0,0,0,.73.19c1.16.06,2,1.22,2.45,2.17l.24.48-.14.52a6.53,6.53,0,0,1-.36,1,2.75,2.75,0,0,0,.2.4l.64,1-.95.79h0l.72,1.52c.78,1.63.78,1.63.78,2,0,1-1.29,2-1.31,2l-.31.23a10,10,0,0,1-1.4.93,7.16,7.16,0,0,1-3.39.53,10.63,10.63,0,0,0-1.85-.07,5.08,5.08,0,0,0-.21,1.08c0,.08,0,.39.06.77.07.87.16,2,.16,2.6,0,.88,0,.94,0,1.72a22.86,22.86,0,0,0,1.4,3.17,8.89,8.89,0,0,0,1.71,1.47,33.88,33.88,0,0,0,3.83-.19l5.33-2.1,1.74,2.74c.89,0,1.88,0,2.17,0a16,16,0,0,0,2-.49l.94-.29,1.89,2.47-.42.8a9.81,9.81,0,0,1-1.38,2c0,.07,0,.17,0,.25a2,2,0,0,1-.6,1.32c-.24.28-1.13,1.46-2,2.59l.49,2.67-4.1,2.38a16.26,16.26,0,0,1,.84,3.55,7,7,0,0,1-1.06,3.8s-2.76,2.7-4.21,1.74a1.71,1.71,0,0,1-.48-2.1l-.44.06a16.67,16.67,0,0,0-2.22.62l.12.23.14.3a9.29,9.29,0,0,1,1,2.47,2.07,2.07,0,0,1,0,.46l1,.65c.25,0,.55-.09.84-.12Zm6.41.06h0ZM164,335.76Zm40.71-34.32Zm-2.76-3.18Zm-.11,0h0Zm5.83-7Zm2.88-1h0ZM155.88,290Zm-1.58-9.84Zm70-12.73,0,0Zm3.41-.7s0,.09,0,.13Zm5.31-3.49h0Zm-.92-3.67h0ZM148,258.12h0Zm-13.81-.19-.21.17.21-.1S134.19,258,134.19,257.93Zm12-1.2a6.31,6.31,0,0,1,.63.53l.12-.09.08-.07.27-.22v-.05l-.44-.06Zm7-.33Zm-1.58-6.09h0Zm.13-.07h0Zm-11.34-34.32h0Zm-.81-22.36h0Zm-11.64-9.38v0Zm110.92-1.51.05.1ZM133.61,155.23v0Zm-1.55-12.65h0Zm98.32-.43h0ZM142.67,136h0Zm-.06-.22h0Zm-.42-6.42h0ZM219.36,122h0Zm-81.17-10.86,0,0Zm27.11-14.19h0Zm48.29-1.38h0Zm.15-.12h0Zm6.52-4.52h0Zm5.9-4.32h0Zm-3.4-12.18h0Zm2.49-2.68v0Zm1.8-.55h0Zm-56.6-6.23,0,0,0,0Zm-.55-.35a1.3,1.3,0,0,1,.31.17v0A1.39,1.39,0,0,0,169.9,64.59Zm.12-.5h0Zm-5.12-3h0ZM163.17,58h0Zm-3-9,.06.27a2.65,2.65,0,0,1,.35-.2ZM241,43.2l0,0ZM224.48,24.37l.31.47a2.85,2.85,0,0,1,.32,1.21c0,.26.08.62.15,1.1,0,.25.07.51.1.77a5.5,5.5,0,0,0,.41,1.84l.14.1a6.34,6.34,0,0,0,.62.43c.08,0,.16,0,.5-.38s1.18-1.18,1.84-1.8l-3.65-4.86C225,23.52,224.76,24,224.48,24.37ZM222.25,26Zm-30.9-12h0Zm19.46-2.69Z"/></svg>