<svg id="Layer_1" data-name="Layer 1" xmlns="http://www.w3.org/2000/svg" viewBox="0 0 350 350"><defs><style>.cls-1{fill:#999;}.cls-2{fill:#f90;}</style></defs><title>M</title><path class="cls-1" d="M256.13,262.22h-1.35l-.32.7-1.62,1.14s-.16.7.27.76.76-.27.76,0a2.06,2.06,0,0,1-.22,1c-.16.16-.87,1.19-1.08,1.35s-1.08.05-1.3.38-1,1.41-1,1.41-.65-.81-1-.43a9.61,9.61,0,0,0-.76,1.14,1.41,1.41,0,0,0-.6,1.46c.27.87.81,1.19.49,2.06s-1.57,6.71-1.57,6.71l-6.22-1-3-.87a16.06,16.06,0,0,1-2.54,1.89c-.7.27-2.6,1.24-2.6,1.24l-3.3-.92,1.14-2.71L212.94,275l-16.24,1.3-3,4.82a13.78,13.78,0,0,1-4.38,3.73c-1.89,1-1.89,2.76-6.77,4.28s-5,2.54-7.52,5.2-6.33,6.71-6.33,6.71l-11.47,2.22-10.34-4.87-10.61,1.35-6.87-15.15-13-9.58L114,265.19l1.14-7-4.38-1-3.68,2.54,2,3.14-2,.6s-3-1.73-4-2.11-2.54-1-2.54-1l-1.89-3.52,1-4.17L98,251.07v-1h5.2a27.73,27.73,0,0,0-2.81-1.95c-.32-.05-2-.27-2-.27l-2.49-3.36L94,245l-3.68-1.46L84.4,236l-2.92-1.41-1.89-2.81v-2.87l.49-2.81s-.11-3-.49-3.41a19.29,19.29,0,0,1-1.3-2.33L74.5,221.9v.81l-1.35,2.54L73.9,229l-3.68,2.6A25.33,25.33,0,0,0,67,232.83c-.27.27,0,.87,0,.87l-2.65-.11v-.65l-1.95-1.41-2.92,1.68-2.6-5.09L54,226l-3.84,1.62.49,11.64-1.84.92-2.54,8.93L34.61,250l3.25-7.63-17.64-2.44-14-7.09,2.06-1.89,2.38-11.74a24.45,24.45,0,0,0,4-1c.38-.32,2.65-1.46,6,0,1.57-.65,1.84-1.08,1.84-1.08a18.05,18.05,0,0,1,1.79-.92,30.1,30.1,0,0,0,4.38-.6c1-.32,16.34-2.81,16.34-2.81s.16.32.65,0a23.15,23.15,0,0,0,2.18-2.58,10.33,10.33,0,0,0,2.09-.58,12.51,12.51,0,0,0,.58-2.38l.51,1.66a13.3,13.3,0,0,0,2.24-1.3c1.08-.79,5.48-4.76,5.48-4.76l13.71,1.95-1.23-4,9.74-2.31,1.44.79-.87-3.18s4.26-2.67,4.47-2.67,4.4-.72,4.4-.72l5.48-4.33,6.78-3.32,2.89-6.35,2.89-7.36a31,31,0,0,0,0-3.68,11,11,0,0,0-.94-1.73l-1.66-3-.51-10.82,3.54-2.09,6.93-.94H117l2.45,3.82,1.44-.72.79,1.52a23.67,23.67,0,0,0,3.18.58c.79,0,3,.14,3.46-.22a5.07,5.07,0,0,0,2.38-2.81c.51-1.73.79-2.45.79-2.45l5.12.79,7.22,4.33,2.67-1.66a19.53,19.53,0,0,1,1.37-1.59,14.35,14.35,0,0,1,2.38-1.59l3.75,2.53-.72,1.44,14.29-4.76-1.44-5-6.17-.87-4.17,1.41-.16-6.44,12.77-5.63s1,3.84,1.35,3.84,4.87-1.84,4.87-1.84l.7-13.64a1,1,0,0,0-1,0c-.54.32-.65-.56-1-.14s-1.89-1-1.89-1l-.6-1.14,4.55-3.79a2,2,0,0,0,2.06.32c1.3-.43,3.57-1.08,3.57-1.08l-1.62-4,3.3-2.81,4.93-2.65s.43-.32-1.19-4.38S184,93.9,184,93.9s3.63-4.14,4.71-4.59a9.43,9.43,0,0,1,2.92-1c.81,0,3.63.54,5.68-.27a22,22,0,0,0,2.87-1.3l1.24.54a11.75,11.75,0,0,0,0-2.06c-.11-.87-.6-1.73-.38-1.79s5.25-3.08,5.41-3.14,1.14-.27,1.14-.27l2.27,2.87,1.89-.76,1.3,1.41,1.19-1.19a2.38,2.38,0,0,0,.76-.16c.43-.16,1.35-.6,1.3-1.24a4.11,4.11,0,0,0-.43-1.35l-4-.92s-1.3-2.8-1.3-2.86a2,2,0,0,0,.65-.76c.22-.54.16-.81.32-1s1.08-1.52,1.08-1.52l4.06,3.31s2.27,4.54,2.71,4.54a13.6,13.6,0,0,0,3.41-1.89c.54-.49,1.3-1.89,1.46-1.95s4.22-2.44,4.38-2.49.7-.87,1.35-1.52a10.66,10.66,0,0,1,2.27-1.41,13.88,13.88,0,0,1,1.95-2.22c.65-.43,2.65-1.46,2.65-1.46l.32-.92-.38-.87s-.92-3.9-1-5.09a7.72,7.72,0,0,0-.38-1.89l-1.95-2.11a9.59,9.59,0,0,1,1.84,0,4.24,4.24,0,0,1,1.73.65c.11.16.7,1,.7,1a5.25,5.25,0,0,1,1.52-.6,2.66,2.66,0,0,0,1.46-.7c.6-.43.6-.76,1.19-1.3s.6-.32,1-1.08a5.5,5.5,0,0,1,2.54-2.16c.81-.22,1.89-1.46,3-.76a7.55,7.55,0,0,0,2.76.87s2.87-1.3,3.25-1.57a10.31,10.31,0,0,1,1.62-.7s.22,1.08.81,1.19,3.14-.16,3.63-.16a25.48,25.48,0,0,1,2.87.16,25.66,25.66,0,0,0,2.44.81c.43,0,.49-1,2.11-.87a13.42,13.42,0,0,0,2.76.11,4.59,4.59,0,0,0,2.06-.76c.65-.54,3.3-2.44,3.3-2.44h2.49s-.6,1.57,0,1.52a4.19,4.19,0,0,0,1.84-.43c.27-.27-.27-.43.43-1.08a7.53,7.53,0,0,1,2.38-1.52,33.11,33.11,0,0,1,5,.7c.81.32,1.41,1.95,2.44,2A13.39,13.39,0,0,1,294,50.66s-.6,3.46-.7,4.06,4.06,2.92,4,3.46,1.14.43,1.84,0a3.06,3.06,0,0,1,2.6.11l.43.32s-.38.92-.76,1.95a3.41,3.41,0,0,0-.27,1.62l.22.65a7.26,7.26,0,0,0-1.24,1.3c-.27.49-1.62,1.84-1.35,2.87s.11,1.35.87,1.35a2.19,2.19,0,0,0,2.27-1.3,26.89,26.89,0,0,1,2.33-3.46,8.83,8.83,0,0,0,.65-1.3s2.27.16,2.38.7a11.8,11.8,0,0,0,1,2.06,9.41,9.41,0,0,1,1.52-.87A21.75,21.75,0,0,1,312.14,66a14.47,14.47,0,0,1,1.95-.11,10.57,10.57,0,0,0,1.57-.05s3.3,3.14,3.9,4.82A12.52,12.52,0,0,0,321,73.44s2.06.27,2.27.32,1.62,1,1.79,1.08,3-.7,3-.7l3,.92a16.31,16.31,0,0,0,2.16-1.73,1.51,1.51,0,0,0,.43-1.73c-.27-.92.32-.76.43-1.24s1.46-1.62,1.46-1.62A14.78,14.78,0,0,0,336,72.2c.38,1.08,1.95,1.41,1.95,1.41l1,1.46,2.81.54,1,6.17,1,.92-1.14,4-5.47,1.24-.43,1.37s-3.52,4.8-3.68,5-1.35,2.39-1.35,2.39l3.41,2.48s-.81,2.65-.7,2.49a17.51,17.51,0,0,1,2.33,3.84c.05.49-1.35,2.44-1.52,3.25a2.82,2.82,0,0,0,1,2.38,4.3,4.3,0,0,1,1.08,1.35s1.79-.38,1.52.11a15.47,15.47,0,0,0-.7,2.07s1.24,2.1,1.52,2.7.49,1.14.65,1.14a10.8,10.8,0,0,1,2.11.81c-.27,0-2.54.49-3.52.76a6,6,0,0,1-2.33.16c-.7-.05-2.22-.11-2.22-.11l-3.14,3.3.76,1.52-1.14.43,1,3-4.93,4,.32,1.62-16.83,5.68a16.52,16.52,0,0,0-1-2.27,21.74,21.74,0,0,0-2.49,1s.7,1.89.7,2-1.3.38-1.68.87.49,4,.81,4.06a11.34,11.34,0,0,0,2.11-.6A2.8,2.8,0,0,1,309,146c-.11.81-.76,2-.32,2.38a3.94,3.94,0,0,1,.76,1,8.54,8.54,0,0,0-1,1.62c0,.27,1.08.87,1.35.87s.6,1,1,1.62,3.46,3.68,3.63,3.9,2.44-.7,2.65-.76,1.84.11,1.35,1.08A4.79,4.79,0,0,0,318,160a7.94,7.94,0,0,1-.22,1.19l-1.35,1.35-1.24-.27a6.84,6.84,0,0,0-.6,1.57c0,.38-1.46,1.68-1.46,1.68s-1.73-.6-3.19-1l-2.6-.76a5.18,5.18,0,0,0-2.54-3.08c-.32-.11-.54-.87-.6-1.08s-.92-.92-.92-.92l1.41-.81a11.82,11.82,0,0,0-1-1.79,19.34,19.34,0,0,0-2.33.81l-.87-1.57,1.41-.43.65-1,.6-.38s-1-2.65-1.41-2.92a12.62,12.62,0,0,0-2.81-.38l-.05,2.71s-.43.32-.7.27a5.51,5.51,0,0,0-2.06-.65,20,20,0,0,1-3.14-.6s-.05-1.14-.05-1.62a4.42,4.42,0,0,0-.92-2.33c-.43-.27-1.24-.11-1-.92a5.51,5.51,0,0,0,.05-2.65c-.22-.27-.76-1-.76-1l-5.14.54-.49-1.84,1.89-.92-1.24-3.73-3.14.32-.27-1.79s.22-1.19.22-1.35-2.33-2.65-2.33-2.65l-1.79,1a5.41,5.41,0,0,1-1.52-1.57c-.65-1-1.41-2.11-1.41-2.11l.16-2.54-1.52-1.95a9.18,9.18,0,0,0,.32-1.89,14,14,0,0,0-1.14-1s1.62-.92,1.35-1.46a27.71,27.71,0,0,0-1.68-3.36,12.08,12.08,0,0,1-1.14-2,22.47,22.47,0,0,0-3.41-.42,16.73,16.73,0,0,0-3,1.78c-.22.16-2.06.16-2.16.38a11.49,11.49,0,0,1-.92,1.08l-3.57.81-.76.81L254,121.18l-.6-.16-2.81,1.62.76,2.27-2.22.43a5.27,5.27,0,0,1-.27,1.73,4.27,4.27,0,0,0-.05,1.84l-2.22.05c-.38,0-1.62-.22-1.62-.22l-1.52.65-1-1.62-17.37,9.31s0,1.24.54,1.57,1,.65,1,1.08v.43a9.24,9.24,0,0,0-.38,1.14c0,.16.32.81.27,1s-.38,1.46-.65,2.27a13.47,13.47,0,0,0,0,3.36l1.3.16s-.11,1-.81,1.08a4.48,4.48,0,0,0-1.3.43s3.1,4.93,4.47,5.57a8.82,8.82,0,0,1,2.89,2.16c.29.43,3.32,5.27,3.68,5.7s2.6,3.25,2.6,3.25-10,6-10.46,6.21-8.88-.36-8.88-.36l-11.11,4.33,1.52,6.64s3.93-1.62,5-1.89,4.06-1.24,4.06-1.24a6.78,6.78,0,0,1,.22-1.68,43.32,43.32,0,0,1,5.57-.11c1.14.05,5.79-1,6.6-1.08s6.22-1.52,6.22-1.52l.16,1.52-4.76.76a20.05,20.05,0,0,1,.54,2.76,14.75,14.75,0,0,0,.32,2.44c.11.32-2.27,7.25-2.27,7.25a15,15,0,0,1,1.57.81,10.13,10.13,0,0,1,1.3,2.22,38.28,38.28,0,0,0,2.16,3.3c.7,1.08,1.19,1.35,1.57,1s.65-.6.65-.6,2.22,3.14,2.11,3.84,1,3.08,1,3.08l.11,1.95-3.08,1a5.32,5.32,0,0,1,.22,1.52,4.8,4.8,0,0,1-.7,2.38c1,3.36.76,3.36,1,3.36a19.55,19.55,0,0,0,3.25-.32c1.24-.27,2.22-.05,2.27.43s.54,4,.54,5A2.8,2.8,0,0,0,246,221a11.32,11.32,0,0,1,.7,1.41c0,.16-4,3.36-4,3.36s1.19,3.79,1.62,4.87a33.15,33.15,0,0,0,2.16,3.73c.27.43,3,3.36,2.38,4.38s-1.19,1.68-1.41,1.68-1.73-.81-2.71-.16-1.3,1.35-2.44,1.57a5.89,5.89,0,0,0-3,1.52c-.32.54-1.79,1.3-1.57,2.16s1.19.81,1.19,1.24a1.57,1.57,0,0,1-.54,1.41c-.6.6,0,.65-1,1.14s-1.24.27-2.16,1.08a5.75,5.75,0,0,1-1.68,1.14,3.84,3.84,0,0,1-1.73.6s-1.79-.05-1.84.7.65.76.32,1.89-1.24,1.19-.65,1.84,1.35,2.27,1.52,2.27,2.11-3.52,2.92-3.84,1.68-.65,1.95-.43a25.08,25.08,0,0,1,2.76,1.57c0,.22,1,1.35,1.52,1.35s1.79-1,1.95-1,.49,1.46.92,1.19.32-1.41.65-2,.87-.49,1.62-.49-.49,2.27,1,2.22,3.46-.32,3.9-.32,1.57,1.41,1.57,1.41l1.57,1.3a22.73,22.73,0,0,1,1.46-3.25C255.21,256.26,256.13,262.22,256.13,262.22Z"/><path class="cls-2" d="M157.06,304.77l-10.38-4.89-11.24,1.43-7.15-15.77-13.1-9.66-2.63-10.63,1-5.95-2.47-.55-2,1.42,2.28,3.57L106.9,265l-.53-.3c-1.14-.65-3.18-1.77-3.82-2-1-.38-2.57-1-2.57-1l-.47-.19-2.39-4.43.92-3.92-1.48-1.48v-3h.63l-1.89-2.55-1.42.36-4.47-1.77-5.93-7.57-3-1.43-2.35-3.49,0-3.54.46-2.67a16.6,16.6,0,0,0-.27-2.55,11.6,11.6,0,0,1-.77-1.29l-1.69.68v.21l-1.28,2.41.84,4.14-4.61,3.25-.2.07c-.7.23-1.51.52-2.09.74l.7,1.53L63,234.95v-1.29l-.62-.45-3.42,2-3.12-6.11-1.95-1.43-2.19.93.48,11.57L50,241.18l-2.64,9.28-15,1.11,3.43-8.07-16-2.21-16-8.12,3.22-3L9.49,218l.94-.17a32.26,32.26,0,0,0,3.43-.77,7.47,7.47,0,0,1,6.7-.35,4.38,4.38,0,0,0,.74-.42l.11-.17.31-.18c1.95-1.11,2.14-1.11,2.49-1.11a30.79,30.79,0,0,0,3.94-.52c1-.33,12.93-2.28,16.57-2.87l.35-.06c.38-.44,1-1.27,1.58-2l.33-.44.54-.1c.44-.08.91-.19,1.24-.28.1-.42.22-1,.3-1.52l1-6,1.76,5.79.55-.37c.84-.62,4.16-3.58,5.37-4.67l.49-.44,12.17,1.73-1-3.36,10.94-2.59-.47-1.71.89-.56c4.37-2.74,4.72-2.88,5.16-2.89s2.16-.35,3.88-.64l5.46-4.27,6.33-3.1,2.68-5.89L107,171c.05-1.27.07-2.75,0-3.07,0-.1-.4-.74-.75-1.27l-.05-.09-1.82-3.32-.56-12,4.52-2.67,7.4-1h2l2.18,3.4,1.55-.77,1.14,2.17a16.87,16.87,0,0,0,2.22.39h.62a14.52,14.52,0,0,0,2.14,0l.13-.09a3.41,3.41,0,0,0,1.59-1.89c.52-1.78.83-2.55.84-2.58l.42-1,6.51,1,6.71,4,1.72-1.07a19.28,19.28,0,0,1,1.33-1.52,14.6,14.6,0,0,1,2.71-1.83l.75-.41,5.08,3.42,10.42-3.47-.81-2.79-4.93-.69-5.67,1.92-.24-9.31,15.18-6.69.41,1.62c.21.83.48,1.78.71,2.46.73-.27,1.76-.68,2.77-1.09l.58-11.19a1.7,1.7,0,0,1-.47-.14h-.06c-.31,0-1.12.1-2.81-1.42l-.19-.17L169,117.47l6.54-5.45.79,1a.67.67,0,0,0,.25,0A1.11,1.11,0,0,0,177,113c.61-.2,1.41-.45,2.11-.66l-1.42-3.44,4.33-3.65,4.13-2.23a23.61,23.61,0,0,0-1-3c-1.57-3.93-2.33-5.45-2.33-5.47l-.42-.85L183,93c1.44-1.64,4-4.47,5.24-5l.65-.28a7.3,7.3,0,0,1,2.81-.82c.21,0,.52,0,.91.06a10.14,10.14,0,0,0,4.25-.23,22.12,22.12,0,0,0,2.67-1.2l.53-.31a6.88,6.88,0,0,0-.19-.67,2.07,2.07,0,0,1,0-1.76l.3-.54.48-.13c.42-.22,2-1.15,3.06-1.78A18.55,18.55,0,0,1,206,79c.19-.06,1.28-.31,1.28-.31l.87-.2,2.16,2.74,1.82-.73,1,1,.56-.56h.58a1.79,1.79,0,0,0,.27-.07l.2-.08-3.83-.88-.29-.63c-1.43-3.08-1.43-3.08-1.43-3.46a1.48,1.48,0,0,1,.67-1.23,1.14,1.14,0,0,0,.18-.44,2.27,2.27,0,0,1,.4-1l1.06-1.48.88-1.24,5.47,4.46.14.27c.61,1.23,1.38,2.65,1.88,3.47a15.94,15.94,0,0,0,2-1.24,8.39,8.39,0,0,0,.75-1c.4-.61.64-1,1.09-1.16l2.06-1.18,2.08-1.19.2-.25a14.39,14.39,0,0,1,1-1.09A10.17,10.17,0,0,1,231.38,70a11.54,11.54,0,0,1,2.1-2.28c.48-.32,1.53-.88,2.2-1.24l-.2-.51c-.1-.41-.95-4-1.06-5.28a7.63,7.63,0,0,0-.22-1.3l-3.67-4,2.85-.27a10.61,10.61,0,0,1,2.19,0s2.07.34,2.69,1.25a5.51,5.51,0,0,1,.77-.21,1.13,1.13,0,0,0,.68-.29l.23-.17a1.24,1.24,0,0,0,.32-.35,5.2,5.2,0,0,1,.75-.85,6.12,6.12,0,0,1,.52-.43h0l.12-.23A6.82,6.82,0,0,1,245.1,51a4.49,4.49,0,0,0,.46-.25,3.37,3.37,0,0,1,3.69-.34A5.58,5.58,0,0,0,251,51c1.16-.53,2.42-1.13,2.66-1.28a9.73,9.73,0,0,1,2-.87l1.54-.54.32,1.6,0,.08c.52,0,1.42-.08,1.91-.12s.94-.07,1.12-.07a26.41,26.41,0,0,1,3.18.2,9.19,9.19,0,0,1,1.17.4l.64.24a3.33,3.33,0,0,1,2.52-.73l1.16.09a7.45,7.45,0,0,0,1.2.05l.28-.06a2.91,2.91,0,0,0,1.18-.41c.67-.56,3.11-2.3,3.39-2.5l.37-.26h4.71a6.38,6.38,0,0,1,2.89-1.51,31.78,31.78,0,0,1,5.5.8,4,4,0,0,1,1.54,1.32,4.58,4.58,0,0,0,.54.59,13.63,13.63,0,0,1,3.83,1.39l.93.47-.18,1s-.39,2.27-.6,3.46c.37.3,1,.75,1.41,1A12.13,12.13,0,0,1,298.28,57l.13-.07a4.34,4.34,0,0,1,4.19.18l1.31,1-.42,1s-.37.9-.74,1.9a2.9,2.9,0,0,0-.2.86l.36,1.09.14-.2a7.29,7.29,0,0,0,.51-1l.38-1,1,.07c3,.21,3.52,1.09,3.67,1.84a2.87,2.87,0,0,0,.16.35,1.8,1.8,0,0,1,1-.3c.47,0,.7,0,2.78,1.73a10,10,0,0,1,1.64,0,9.13,9.13,0,0,0,1.28-.05l.65-.07.47.45c.59.56,3.58,3.47,4.26,5.37a11.84,11.84,0,0,0,.92,2c1.53.21,1.7.25,1.78.27a5.51,5.51,0,0,1,1.49.82l.23.15c.55-.12,1.54-.37,2.38-.59l.39-.1,2.75.83a11.18,11.18,0,0,0,1.31-1.06l.06-.08.16-.19s0-.09,0-.17a2.07,2.07,0,0,1,.5-2.25,6.08,6.08,0,0,1,1.84-2.1l2.33-2v3a12.86,12.86,0,0,0,.3,3,1.68,1.68,0,0,0,.9.49l.55.11,1,1.45,3.23.62L344,81.06l1.31,1.17-1.61,5.67-5.49,1.25L338,90l-.14.19c-2.78,3.8-3.49,4.74-3.71,5s-.34.58-.63,1.1l3.22,2.34-.3,1c-.18.59-.38,1.26-.52,1.73a16.11,16.11,0,0,1,2.19,4,4.33,4.33,0,0,1-.88,2.41,10.1,10.1,0,0,0-.66,1.29,1.82,1.82,0,0,0,.42.91,3.68,3.68,0,0,1,1,1,2,2,0,0,1,2,.66,1.54,1.54,0,0,1,.09,1.68,10,10,0,0,0-.41,1.18c.41.7,1.06,1.83,1.28,2.3l.11.25.1.22c1.05.25,2.7.84,2.7,2.06v1.42H342.4c-.25,0-2.25.46-3.14.71a7.34,7.34,0,0,1-2.8.21l-1.54-.08-2,2.12,1,2-1.32.5.91,2.62-5,4,.4,2-19.29,6.51-.49-1.26-.31-.76a2.45,2.45,0,0,1,.23,1,1.65,1.65,0,0,1-1.34,1.52l-.42.16a12.25,12.25,0,0,0,.31,1.59l.79-.27,1.23-.45.54,1.19a4.18,4.18,0,0,1,.28,2.18,7,7,0,0,1-.28,1.14l-.12.39a5.65,5.65,0,0,1,.7,1.06l.38.77-.5.7-.23.33a2.82,2.82,0,0,1,1.35,1.62c.1.21.2.43.31.61.25.38,1.9,2.06,2.6,2.77l.32.33c.43-.14,1-.34,1.21-.43l.57-.2a3.14,3.14,0,0,1,2.78.91,2,2,0,0,1,.19,2.18,2.49,2.49,0,0,0-.26,1.23c0,.17,0,.33,0,.49a9.36,9.36,0,0,1-.26,1.43l-.1.36-2.17,2.17-.87-.19v0c0,.41-.16,1.05-1.94,2.63l-.62.55-.78-.27s-1.72-.59-3.13-1l-2.58-.75-.7-.2-.25-.69a5,5,0,0,0-.76-1.45l-.44-.37a6.37,6.37,0,0,0-.53-.43,2.42,2.42,0,0,1-1.36-1.76c-.14-.13-.36-.33-.52-.46l-1.45-1.18-.19.08-2.26-4.11a1.78,1.78,0,0,1-.57,0,2.65,2.65,0,0,1-.69-.27,2.63,2.63,0,0,0-1.15-.35,20.62,20.62,0,0,1-3.44-.64l-1-.27,0-1s-.06-1.18-.06-1.69a5,5,0,0,0-.36-1.13,2.08,2.08,0,0,1-1.37-.93,2,2,0,0,1-.16-1.55,6.32,6.32,0,0,0,.14-1.63l-.14-.18-5.54.58-1.1-4.14,1.83-.89-.49-1.47-3.35.35-.51-3.36,0-.23s.07-.38.13-.71c-.26-.31-.68-.77-1.11-1.25l-1.54.89-.72-.45a6.81,6.81,0,0,1-2-2c-.63-1-1.36-2-1.37-2.06l-.28-.41.16-2.5-1.61-2.07.17-.67c.08-.33.16-.69.22-1L272,123l-1.66-1.31,1.83-1a5.24,5.24,0,0,0,.46-.3l0-.08a24.75,24.75,0,0,0-1.11-2.27,7.57,7.57,0,0,1-1-1.67,21.3,21.3,0,0,0-2.19-.29,21.89,21.89,0,0,0-2.44,1.51,3.17,3.17,0,0,1-1.7.43l-.47,0c-.17.2-.4.46-.73.82l-.3.32-3.57.81-.65.7-4.35,2-.52-.14-1.3.75.9,2.71-2.74.53a4,4,0,0,1-.34,1.18,6.76,6.76,0,0,0,.08,1l.26,1.6-1.62,0-2.26.05a12,12,0,0,1-1.45-.17l-2.27,1-.92-1.53-15.1,8.09a2.48,2.48,0,0,1,1.18,2v.7l-.1.25c-.08.2-.16.43-.22.6a2.1,2.1,0,0,1,.14,1.44l-.1.35c-.14.51-.36,1.34-.55,1.92a8,8,0,0,0,0,1.64l1.54.19-.15,1.39a2.7,2.7,0,0,1-1.33,2.11,17.42,17.42,0,0,0,2.9,3.55,9.94,9.94,0,0,1,3.45,2.65l.81,1.26c.75,1.19,2.52,4,2.79,4.33s2.61,3.26,2.61,3.26l1,1.27-1.39.83c-2.36,1.41-10.11,6-10.56,6.26s-.77.39-9.29-.19l-9.68,3.77.87,3.82c1.27-.5,2.95-1.15,3.66-1.33s2.1-.62,3-.92c.11-1.08.31-1.37.57-1.63s.8-.79,6.64-.52a46.1,46.1,0,0,0,4.7-.77c.77-.15,1.39-.27,1.65-.3.45-.06,3.44-.8,6.06-1.48l1.59-.41.48,4.49-4.59.73a11.66,11.66,0,0,1,.23,1.52,15.49,15.49,0,0,0,.26,2.08c.16.48.24.74-1.88,7a4.94,4.94,0,0,1,.71.43,8.18,8.18,0,0,1,1.68,2.69,16.8,16.8,0,0,0,1.28,2c.28.39.56.79.81,1.17l.09.14,1.13-1.12,1,1.37c2.38,3.36,2.42,4.33,2.37,4.79a12.39,12.39,0,0,0,.89,2.35l.12.25.18,3.31-2.93,1a2.19,2.19,0,0,1-.05,1V209a5.6,5.6,0,0,1-.51,2.06c.22.73.36,1.27.46,1.68a14.57,14.57,0,0,0,2-.25,4.12,4.12,0,0,1,3.2.36,1.85,1.85,0,0,1,.78,1.3c0,.1,0,.32.08.62.23,1.75.47,3.68.47,4.52a1.42,1.42,0,0,0,.24.8l.12.18c.89,1.57.89,1.79.89,2.1,0,.75,0,.83-3.73,3.85.41,1.3,1,3.19,1.3,3.85a29.57,29.57,0,0,0,1.87,3.23l.18.28.29.35c1.67,2,3.08,4,2.09,5.54-1.1,1.75-1.76,2.34-2.61,2.34a2.23,2.23,0,0,1-.78-.17c-.8-.28-1.06-.26-1.15-.22a6.19,6.19,0,0,0-.67.54,4.47,4.47,0,0,1-2.28,1.24,5.79,5.79,0,0,0-2.12.92,4.35,4.35,0,0,1-.83.87l-.24.21a1.76,1.76,0,0,1,.94,1.53,3,3,0,0,1-.94,2.4,2.36,2.36,0,0,1-1.44,1.43,7.75,7.75,0,0,1-1,.4,1.68,1.68,0,0,0-.8.46,5.45,5.45,0,0,1-1.34,1l-.57.31a5.16,5.16,0,0,1-2.44.79h-.1a2.81,2.81,0,0,1-.05,1.57,3.63,3.63,0,0,1-.51,1.08l0,.07c1-1.56,1.66-2.3,2.36-2.58,1.19-.48,2.43-1,3.36-.22l.75.38c1.53.78,2.26,1.15,2.47,1.83a3,3,0,0,0,.26.28l.48-.3a2.16,2.16,0,0,1,1.64-.52l.05-.1a2.55,2.55,0,0,1,2.59-1.23h.27a1.64,1.64,0,0,1,1.22.53,2.08,2.08,0,0,1,.45,1.65c.65,0,1.35-.12,1.9-.17s1.1-.11,1.3-.11c.35,0,1.07,0,2.55,1.78.69-1.62,1-1.84,1.14-2l.64-.53.81.29c.8.3,1.12.42,2.11,6.8l.25,1.63h-2.1l-.1.23-.44.31a1.58,1.58,0,0,1,.13.65,2.93,2.93,0,0,1-.63,2l-.26.34a5.55,5.55,0,0,1-1,1.14,2.28,2.28,0,0,1-1.19.39h0c-.33.46-.82,1.11-.82,1.11l-1.1,1.46-.62-.77-.08.14-.27.18c0,.11.1.23.17.35a2.82,2.82,0,0,1,.25,2.5c-.18.48-.91,3.69-1.51,6.51l-.28,1.32-7.72-1.29-2.24-.65a11.19,11.19,0,0,1-2.38,1.64c-.46.18-1.75.82-2.46,1.18l-.49.25-5.38-1.5,1-2.5-15.4-2.21-15.36,1.23-2.6,4.21a15.13,15.13,0,0,1-4.94,4.24,4.74,4.74,0,0,0-1.2,1,12.1,12.1,0,0,1-5.79,3.38c-3.65,1.13-4.26,1.84-5.76,3.53-.34.38-.71.81-1.15,1.28-2.49,2.65-6.34,6.72-6.34,6.72l-.31.33ZM147.14,297l10.29,4.85,10.57-2c1-1,4-4.18,6-6.38.42-.45.77-.85,1.09-1.21,1.78-2,2.82-3.06,7-4.37a9.28,9.28,0,0,0,4.62-2.67,7.28,7.28,0,0,1,1.92-1.51,12.62,12.62,0,0,0,3.83-3.23l3-4.81.38-.61L213,273.62l19.35,2.77-1.22,2.92,1.22.34c.64-.32,1.7-.85,2.24-1.05a15.63,15.63,0,0,0,2.11-1.63l.58-.52,3.64,1.06,4.81.79c.4-1.86,1.08-4.88,1.34-5.58,0-.07-.07-.13-.1-.2a5.64,5.64,0,0,1-.41-.94,2.7,2.7,0,0,1,.85-2.82,9.13,9.13,0,0,1,.78-1.12,1.61,1.61,0,0,1,1.32-.6,1.76,1.76,0,0,1,.38,0l.2-.29a2.23,2.23,0,0,1,1.73-.88l.12-.16a1.76,1.76,0,0,1-.21-.25,2.26,2.26,0,0,1-.27-1.76l.12-.53,1.76-1.23.15-.32-2.72-2.29a9.11,9.11,0,0,0-.79-.86l-.69.07c-.81.08-1.92.2-2.83.23a2,2,0,0,1-1.64-.62l-.16-.2a1.93,1.93,0,0,1-.74.87,1.62,1.62,0,0,1-1.34.18,1.79,1.79,0,0,1-.87-.62,2.87,2.87,0,0,1-1.4.45,3.67,3.67,0,0,1-2.64-1.86c-.31-.18-.92-.49-1.28-.68l-.79-.41c-.26.08-.65.23-.88.32a19.39,19.39,0,0,0-1.69,2.37c-.73,1.14-1,1.62-1.87,1.62s-1.25-.63-1.76-1.49a9.66,9.66,0,0,0-.8-1.24,1.87,1.87,0,0,1,0-2.73,1.13,1.13,0,0,0,.29-.46l0-.08v0a2.45,2.45,0,0,1-.39-1.51c.09-1.3,1.36-2.08,3.29-2a3.54,3.54,0,0,0,1-.41l.66-.37a3.09,3.09,0,0,0,.79-.61,4.37,4.37,0,0,1,1.81-1,4.92,4.92,0,0,0,.68-.26l.05,0a2.48,2.48,0,0,1,.49-.74,2.49,2.49,0,0,1-.93-1.4c-.36-1.42.8-2.43,1.42-3a3.35,3.35,0,0,0,.35-.32c.62-1,2.73-1.89,3.94-2.12.35-.07.5-.19.93-.57a8.7,8.7,0,0,1,1-.79,3.68,3.68,0,0,1,3.13-.26c.11-.15.25-.34.41-.58a10.84,10.84,0,0,0-1.72-2.48c-.25-.31-.43-.54-.5-.65l-.16-.25a27.69,27.69,0,0,1-2.12-3.7c-.45-1.12-1.61-4.82-1.66-5l-.29-.92.75-.61c1.11-.9,2.37-1.94,3.12-2.58l-.17-.31a4.3,4.3,0,0,1-.77-2.45c0-.71-.31-3.07-.44-4.11a3.5,3.5,0,0,0-.65.08,20.78,20.78,0,0,1-3.55.36,1.65,1.65,0,0,1-1.61-1.52c-.09-.39-.27-1.21-.77-2.83l-.23-.75.51-.59a2.46,2.46,0,0,0,.3-1.18,4.13,4.13,0,0,1,.07-.52,8.26,8.26,0,0,0-.19-.91L237.1,206l3.31-1.11,0-.59a9,9,0,0,1-1-3.41,12.69,12.69,0,0,0-1-1.84,1.86,1.86,0,0,1-.9.09,3.42,3.42,0,0,1-2.17-1.78c-.23-.36-.49-.72-.75-1.08A18.8,18.8,0,0,1,233,194a16.49,16.49,0,0,0-1-1.77c-.18-.1-.73-.37-1.23-.6l-1.17-.54.42-1.21c.94-2.73,2-5.83,2.17-6.72a19.56,19.56,0,0,1-.3-2.42,16.18,16.18,0,0,0-.43-2.22l-.13,0c-.23,0-.78.14-1.48.28a33.33,33.33,0,0,1-5.38.82c-.9,0-3,0-4.29,0,0,.15,0,.29,0,.42l0,1-.94.31c-.12,0-3,1-4.16,1.27-.72.18-3.33,1.22-4.82,1.83l-1.55.64-2.16-9.46,12.55-4.89.32,0c3.44.24,7.33.44,8.33.41,1-.57,5.29-3.13,8.8-5.22l-1.57-2c-.24-.29-.94-1.37-3-4.61l-.77-1.21a8,8,0,0,0-2.31-1.67c-1.57-.75-4.07-4.52-5.07-6.1l-.81-1.28,1.33-.72.1-.05,0-.23a12.45,12.45,0,0,1,.06-4c.18-.54.38-1.29.51-1.76l0-.1,0-.05a2.46,2.46,0,0,1-.21-.88,3.37,3.37,0,0,1,.34-1.28l-.24-.15a3.25,3.25,0,0,1-1.23-2.78v-.85L243,125.89l1,1.72.76-.33.41.07c.58.1,1.23.19,1.39.2h.73a3,3,0,0,1,.27-1.1,4.62,4.62,0,0,0,.12-1.1v-1.16l1.78-.35-.61-1.84,4.33-2.5.67.18,2.9-1.34.87-.93,3.57-.81c.2-.22.37-.42.44-.51.42-.75,1.24-.83,2.28-.92l.5,0a13.28,13.28,0,0,1,3.41-1.87,15.1,15.1,0,0,1,3.9.43l.72.13.31.66a12.17,12.17,0,0,0,.88,1.63,12.29,12.29,0,0,1,1.6,3c.14.31.25.56.32.69a1.85,1.85,0,0,1-.4,2.15l.09.13c.3.46.36.89,0,2.35l1.43,1.83-.17,2.59c.29.42.74,1.1,1.16,1.75a4,4,0,0,0,.47.6l1.9-1.09.77.82c2.71,2.9,2.71,3,2.71,3.62a8.37,8.37,0,0,1-.2,1.37l0,.22,2.92-.3,2,6-.72.35,3.39-.36.48.67s.51.71.71,1c.58.72.48,2.2.35,3.11l.27.14c1.09.68,1.59,2.94,1.59,3.53,0,.13,0,.31,0,.5a12.46,12.46,0,0,0,1.83.3,5.08,5.08,0,0,1,1.31.23l.05-2.63,1.45.07c2.75.13,3.28.45,3.5.59s.85.53,2,3.64l.39,1.07-1,.61.22.06c.59.2.87.52,1.81,2.53l.55,1.18-1,.59a1.65,1.65,0,0,1,.07.22,2.54,2.54,0,0,0,.08.27,6.51,6.51,0,0,1,1,.75l.41.34a5.73,5.73,0,0,1,1.34,2l1.95.57c.85.25,1.79.56,2.44.77.19-.19.35-.36.44-.48a7.71,7.71,0,0,1,.7-1.79l.49-1L316,161l.52-.52a5.59,5.59,0,0,0,.09-.6c0-.1,0-.21,0-.32a6.08,6.08,0,0,1,.13-1.23c-1.69.62-2.74.92-3.44,0l-.69-.7a27.06,27.06,0,0,1-3-3.33c-.15-.25-.29-.55-.42-.83l-.13-.28c-.86-.32-2-1-2-2.1,0-.28,0-.58.67-1.62-.92-.84-.56-2.07-.31-2.89a2,2,0,0,1-.91.06,1.85,1.85,0,0,1-1.34-1.3s-1.38-3.71-.36-5a2.92,2.92,0,0,1,1-.79l-.26-.72-.46-1.25,1.22-.54c2.72-1.2,3-1.21,3.52-1s.78.4,1.39,1.84L325.61,133l-.25-1.25,4.82-3.87L329,124.51l1-.36-.5-1,4.26-4.49.64,0s1.55.06,2.28.11a4.62,4.62,0,0,0,1.84-.11l.17,0c-.08-.16-.15-.32-.22-.47l-.11-.23c-.17-.38-1-1.77-1.44-2.56l-.31-.52.16-.58.07-.25-.27.06-.5-.95a3.43,3.43,0,0,0-.58-.81,4.18,4.18,0,0,1-1.67-3.86,8,8,0,0,1,1-2.11c.14-.24.32-.57.44-.8a29.85,29.85,0,0,0-1.65-2.72c-.8-.46-.73-1.08-.12-3.11l-3.59-2.61.58-1.09a12.89,12.89,0,0,1,1.6-2.73c.17-.21,2.13-2.87,3.4-4.61l.61-1.92,5.44-1.24.67-2.34-.74-.67-.9-5.69-2.4-.46L337,74.82A4.19,4.19,0,0,1,335,73.33a4.2,4.2,0,0,1-.54.81,14.57,14.57,0,0,1-2.53,2.09l-.56.39-3.3-1c-2.9.76-3,.71-3.45.58a4.85,4.85,0,0,1-1-.6c-.27-.17-.56-.37-.75-.47l-2-.28-.61-.08-.36-.5a14,14,0,0,1-1.59-3.16,16.55,16.55,0,0,0-3.09-3.83,8.41,8.41,0,0,1-1.18,0,13.34,13.34,0,0,0-1.64.11l-.61.07-.47-.4c-.5-.42-1.09-.9-1.51-1.23l-.63.41-1.23.82-.77-1.26a15.57,15.57,0,0,1-1-1.89l-.35-.07a6.1,6.1,0,0,1-.32.55c-.09.14-.26.37-.48.65a18.09,18.09,0,0,0-1.74,2.61,3.6,3.6,0,0,1-3.56,2.13,2,2,0,0,1-2.12-1.89c0-.14-.06-.31-.11-.52-.38-1.45.65-2.81,1.26-3.61.1-.13.18-.23.23-.32a5.12,5.12,0,0,1,.86-1,4.8,4.8,0,0,1,.34-2.32l.27-.72a1.28,1.28,0,0,0-.49,0,3.3,3.3,0,0,1-3.18.25,1.7,1.7,0,0,1-.72-.92c-.31-.26-.95-.71-1.39-1-1.86-1.32-2.89-2-2.67-3.24.07-.38.33-1.92.52-3a8.1,8.1,0,0,0-1.85-.65,3.54,3.54,0,0,1-2.49-1.62,4.13,4.13,0,0,0-.46-.52,39.5,39.5,0,0,0-4.2-.56,9.39,9.39,0,0,0-1.51,1,1.64,1.64,0,0,1-.49,1.13,4.32,4.32,0,0,1-2.71.84,1.61,1.61,0,0,1-1.45-.63,1.64,1.64,0,0,1-.34-.88h-.37c-.88.63-2.42,1.75-2.85,2.11a5.28,5.28,0,0,1-2.45,1l-.21,0a6.8,6.8,0,0,1-2,0l-1.12-.08c-.41,0-.46,0-.61.17a1.89,1.89,0,0,1-1.41.69,6,6,0,0,1-2-.56c-.31-.12-.6-.24-.77-.28-.33-.06-2-.13-2.56-.13l-.9.06a14.36,14.36,0,0,1-3,.08,2.09,2.09,0,0,1-1.26-.78l-.11.06a38.59,38.59,0,0,1-3.47,1.7l-.35.16-.38,0a8.81,8.81,0,0,1-3.37-1.07,3.16,3.16,0,0,0-.75.37,4.63,4.63,0,0,1-1.17.55,4.5,4.5,0,0,0-1.64,1.43,2.91,2.91,0,0,1-1,1.25,3.67,3.67,0,0,0-.31.25,2.46,2.46,0,0,0-.37.43,4,4,0,0,1-.94,1l-.2.15a3.68,3.68,0,0,1-1.82.8,3.85,3.85,0,0,0-1.05.42l-1.11.67-.25-.34c0,.22.06.46.09.71.08.86.7,3.62,1,4.77l.55,1.26-.7,2-.5.26c-.75.38-2.09,1.1-2.51,1.38a12.63,12.63,0,0,0-1.59,1.87l-.21.29-.33.16A9.1,9.1,0,0,0,231,73.52c-.27.27-.55.61-.77.88a2.78,2.78,0,0,1-1,.93l-2,1.17-2,1.15-.19.29a8.28,8.28,0,0,1-1.22,1.58c-.43.39-3.25,2.26-4.36,2.26-.5,0-.88,0-1.71-1.22,0,.09,0,.19,0,.28.1,1.15-.71,2.13-2.21,2.69a4.18,4.18,0,0,1-.59.17l-1.9,1.9-1.64-1.77-2,.79-2.37-3H207l-1.94,1.14-2.4,1.41a5.77,5.77,0,0,1,.19.88,12.89,12.89,0,0,1,0,2.36l-.18,2-2.42-1.05c-.49.24-1.27.6-2.41,1a12.38,12.38,0,0,1-5.56.42c-.28,0-.5-.05-.65-.05a6.25,6.25,0,0,0-1.68.58l-.7.3a28.19,28.19,0,0,0-3.57,3.52c.39.86,1.05,2.38,2,4.8,1.71,4.28,1.59,5.4.73,6l-.18.11-4.79,2.58-2.4,2,1.84,4.47-1.52.43s-2.26.65-3.51,1.07a3.64,3.64,0,0,1-2.33,0l-2.9,2.42.44.33.28,0a1.55,1.55,0,0,1,.84.18,2.4,2.4,0,0,1,1.88.31l.67.45L176,134.7l-.83.34C170.41,137,170,137,169.75,137c-1,0-1.49-.47-2.3-3.29l-10.39,4.58.09,3.57,2.66-.9,7.41,1,2.08,7.17-18.83,6.28,1.69-3.39-2-1.34a8.62,8.62,0,0,0-1.32.92,17.82,17.82,0,0,0-1.25,1.45l-.16.2-3.62,2.25-7.72-4.63-3.68-.57c-.11.33-.24.76-.39,1.27a6.12,6.12,0,0,1-2.75,3.45l-.17.12c-.68.49-1.7.55-3.74.49h-.54a21.82,21.82,0,0,1-3.51-.62l-.62-.15-.45-.85-1.34.67-2.72-4.24h-.36l-6.55.89-2.55,1.51.45,9.65,1.48,2.7a10.25,10.25,0,0,1,1.08,2.07c.05.18.21.73.05,4.13v.23l-3,7.58-3.13,6.88-7.1,3.48L91,194l-.35.06c-2.72.47-3.8.64-4.26.71-.47.25-1.83,1.08-3.21,1.93l1.47,5.39L80.7,200,73,201.8l1.43,4.73-15.26-2.17c-1.22,1.1-4.18,3.73-5.1,4.41a14.74,14.74,0,0,1-2.51,1.46l-.45.2a1.49,1.49,0,0,1-.2.23c-.21.21-.47.48-2.29.86a13.45,13.45,0,0,1-2.2,2.47,2,2,0,0,1-1.62.32l-.08,0c-5.81.94-14.81,2.44-15.65,2.68a27.92,27.92,0,0,1-4.5.64c-.25.12-.75.39-1.21.65a7.23,7.23,0,0,1-2.19,1.27l-.56.23-.56-.25c-2.78-1.23-4.48-.2-4.49-.19-.19.17-.56.48-3.64,1.09L9.6,231.67l-.89.82,11.93,6.06,19.24,2.66-3.06,7.2,8.38-.62,2.44-8.58,1.58-.79-.49-11.7,5.49-2.32L58,227.18l2.07,4.06,2.43-1.39,3.23,2.33a1.81,1.81,0,0,1,.28-.35c.21-.21.5-.5,3.55-1.52l2.75-1.94L71.65,225l1.43-2.68v-1.42l5.9-2.36.58,1.19a18.91,18.91,0,0,0,1.1,2c.22.25.7.8.83,4.28v.15L81,229.05v2.31l1.44,2.14,2.87,1.38,5.87,7.48,2.9,1.15,2.37-.61,2.7,3.64,1.45.2c.33.06.67.11,3.44,2.22l3.35,2.54h-7l.74.74-1,4.41,1.4,2.6,2,.83c.64.25,2,1,3,1.51l-1.41-2.21,5.31-3.67,6.29,1.4-1.31,8,2.24,9.07,12.87,9.49,6.59,14.54Zm105.49-32.12-.07.07Zm-10.58-8Zm-4.71-.74a1.37,1.37,0,0,0,.16.64A1.63,1.63,0,0,1,237.34,256.1Zm8,.5h0ZM240,255.54Zm-2.54-8.8h0Zm3-2.68h0Zm6.26-4.85ZM24.35,217.62m24.82-9.2Zm188.54-.48h0ZM316,164h0Zm-13-3.68h0Zm-.18-.4h0Zm-2.49-8.24,0,1.9-.55.41-.14.1,1.4-.43.45-.71c-.2-.49-.4-.93-.54-1.2Zm9.16,1.63a1.26,1.26,0,0,0,.33,0A1.59,1.59,0,0,1,309.48,153.29Zm-8.33-1.5h0Zm-.39-.28h0Zm-8.41-4.18v0Zm-67.23-5.49,0,0Zm-52.91-22.77h0Zm0,0Zm91.9-1.64h0Zm76.18-.37.43.07A1.33,1.33,0,0,0,340.29,117.05Zm-76.09-1.8,0,0ZM201.45,84.83h0Zm-.7-2.75-.07,0Zm12.16-4.61,3.48.8c-.24-.45-.5-1-.79-1.53l-2.65-2.16-.12.16a4.85,4.85,0,0,1-.25.85,2.81,2.81,0,0,1-.29.54Zm-.18-2.59h0ZM302.16,64a5.88,5.88,0,0,0-.79.8,6.39,6.39,0,0,1-.44.63,4.45,4.45,0,0,0-.76,1.26l0,.16a.62.62,0,0,0,.42-.41A15.35,15.35,0,0,1,302.16,64Zm7.07,1.43h0Zm-10.5-7.15h0ZM295.9,58h0Zm-12.35-10h0Z"/></svg>