<svg id="Layer_1" data-name="Layer 1" xmlns="http://www.w3.org/2000/svg" viewBox="0 0 350 350"><defs><style>.cls-1{fill:#999;}.cls-2{fill:#f90;}</style></defs><title>M</title><path class="cls-1" d="M302.58,250.48a24.92,24.92,0,0,1-3,.75c-.88.09-4.22,0-4.22,0L293.26,248l-6,2.38s-5.1.48-6.2.22-3.39-2.73-3.39-2.73-2.2-4.27-2.24-5.37,0-1.19,0-2.42-.31-4.22-.31-4.62.31-3,1.28-3.26a13,13,0,0,1,3.7,0,8,8,0,0,0,3.52-.53,21.4,21.4,0,0,0,2.11-1.45,3.09,3.09,0,0,0,.92-1.1c0-.13-2.6-5.37-2.46-5.41s1.14-.88,1.14-.88-.88-1.41-.53-2.07a7,7,0,0,0,.53-1.32s-.92-1.85-1.72-1.89-1.8-.53-2.82-.7-3.78-1.06-4.27-1.19a7.53,7.53,0,0,1-2.16-3.74c0-1,0-1.41-.22-1.58s-3-1.63-3-1.63l-2.86.22-.09-5.37s.26.26,1.85-.7a10.07,10.07,0,0,0,2.73-2.33c.88-.92,1.72-1.67,2.2-1.67a4.83,4.83,0,0,1,2.33.13c.79.4,2,.84,2.29,1.36a11.17,11.17,0,0,1,.4,2.07c.13.31,1.32-.13,1.32-.26s-.48-1.63-.44-1.85,3.7-3.74,3.34-3.87-2.51.57-3.78.09a7,7,0,0,1-2.11-1.28,22.07,22.07,0,0,0-3.26.4,9.69,9.69,0,0,0-1.41.53s-2-4.58-2.07-5,.84-1,1-1.85.92-1.67.57-2.77a11.16,11.16,0,0,0-1.36-3.39,13.83,13.83,0,0,1-2-3.08c-.7-1.45-2.2-4.58-2.2-4.58s2.64-2.55,3.74-2.73,2.68-.53,3.17-.57,0-.13.66-1.36a4.61,4.61,0,0,0,.57-3c-.18-.44-1.58-3.52-.75-3.65a10.19,10.19,0,0,0,1.67-.44,11.22,11.22,0,0,0-2.64-1.85c-.84-.22-.62-.66-1.19-.26s-2.16.26-2.82,1.45.26,1-.92,1.54-2,.48-2.73,1-1.36,1.28-1.1,1.28,2.51.26,2.42,1a1.37,1.37,0,0,0,.4,1.32c.26.22-.88,1.19-1.45,1.63s-1.58,1.32-2.38.48a5.5,5.5,0,0,0-2.38-1.63c-.92-.31-1.8,1.8-2.82,1s-1.41-2.24-1.8-2.6-1.41.13-2.55.22-2.68-.35-3,.18a12.6,12.6,0,0,1-1.63,1.72c-.22.18,0,1.54,0,1.54L246,173.49a17.92,17.92,0,0,1-1.67-2.64c.13-.13,5.24-4.18,5.24-4.18a33.06,33.06,0,0,0-3-1.94c-.57-.22-6.82-5-6.82-5s.74-1.25,1.28-2.3a12.09,12.09,0,0,0-2.65-1c-2.79-.65-4.73.58-7.46.72-3,.16-5.19-1.55-7.17-3.62-3.93-4.11-8.33-11.75-6.66-17.71.83-3,3.65-4.17,6.35-5.15s5.05-1.92,7.25-4a19.1,19.1,0,0,1,5-4c6.14-2.91,10.84,3.5,16.44,1.61.21-.65.52-1.28,1.19-1.28,1.28,0,2,.35,2.9-.31s3.61-3,3.61-3-1.76-3.74-2.51-4.36a9.32,9.32,0,0,0-2.29-.92c-.22-.18-1.23-2-2.16-3.39a5.24,5.24,0,0,1-1-2.33s-1.19,0-1.45,0-1-1.14-1-1.14a11.28,11.28,0,0,0,1.41-1.23c0-.18-.53-1.41.18-1.56s2.9-.33,3.12-.46a2.9,2.9,0,0,0,.84-2A2,2,0,0,1,256.3,100c1.32-.7,6.29-2.68,6.29-2.68s-5-7.88-6.86-14.65c-.62-1.5-1.8-1.41-2.07-1a3.92,3.92,0,0,1-1.06.92l-2.6-.88-1.89,1.19s-6.91.84-10,2.79L236.7,81l1.52-.66-.46-4.09,1.25-.53-.73-3.83a18,18,0,0,0,3-1.45,10.85,10.85,0,0,0,.9-1.58,2.44,2.44,0,0,0,0-1.78l-2.46-.31-1.89-.62s.62-1.06-.35-1.23-2.7-.72-2.7-.72l-2.76,3.28h-2.55a1.11,1.11,0,0,0-1.14-1.23,27.69,27.69,0,0,1-3.61-.44l-2.2-1.23s3.17-4,3.87-4.66a9.33,9.33,0,0,0,1.32-1.94,24.88,24.88,0,0,0-.26-3.61c0-.26.7-2.3.7-2.78s-2-6.81-2-6.81l-2.82.7-1.28-3.83s-1.19.31-1.32.31-2.64-4-2.64-4L217,39.09l-.66-1.1-1.45.62-1.14-1.67-.79.4A6.88,6.88,0,0,0,211.73,36a22.13,22.13,0,0,0-2.42-.7,3.57,3.57,0,0,1-.53-.35,13.07,13.07,0,0,1-1.1-2.64c-.13-.84-.79-3.87-.79-3.87l.84-.88-2.16-3.34,0-1.1a2.26,2.26,0,0,0-1.45-1.23c-1.06-.26-2.95-.53-2.95-.53l-4-.4L195.59,20l.92-2.6a59.75,59.75,0,0,0-4.88-5.15c-1.25-.92-1.39-4-1.39-4l-5-1.78a19.47,19.47,0,0,1-1.78,4.29c-.92,1.32-2.11,1.32-3.5,1.45a32.7,32.7,0,0,0-4.82,1.12c-.86.26-.26.46-.13,1.72a6.19,6.19,0,0,0,.86,2.38,18,18,0,0,0,.46,4.22c.46,1.32,2.38,1.72,2.38,1.72l1.25,1.78,3.43.66,1.19,7.52,1.25,1.12-1.39,4.88-6.67,1.52-.53,1.67s-4.29,5.86-4.49,6.06-1.65,2.92-1.65,2.92l4.16,3s-1,3.23-.86,3,2.77,4.09,2.84,4.69-1.65,3-1.85,4a3.44,3.44,0,0,0,1.25,2.9A5.25,5.25,0,0,1,178,70.79s2.18-.46,1.85.13a18.88,18.88,0,0,0-.86,2.52s1.52,2.56,1.85,3.29.59,1.39.79,1.39a13.17,13.17,0,0,1,2.57,1c-.33,0-3.1.59-4.29.92a7.26,7.26,0,0,1-2.84.2c-.86-.07-2.71-.13-2.71-.13l-3.83,4,.92,1.85-1.39.53,1.25,3.63-6,4.82.4,2-20.52,6.93a20.15,20.15,0,0,0-1.25-2.77,26.51,26.51,0,0,0-3,1.19s.86,2.31.86,2.44-1.58.46-2,1.06.59,4.88,1,4.95a13.83,13.83,0,0,0,2.57-.73,3.41,3.41,0,0,1,.2,1.72c-.13,1-.92,2.44-.4,2.9a4.81,4.81,0,0,1,.92,1.25,10.41,10.41,0,0,0-1.19,2c0,.33,1.32,1.06,1.65,1.06s.73,1.19,1.19,2,4.22,4.49,4.42,4.75,3-.86,3.23-.92,2.24.13,1.65,1.32a5.84,5.84,0,0,0-.53,2.71,9.67,9.67,0,0,1-.26,1.45l-1.65,1.65L151,131.5a8.34,8.34,0,0,0-.73,1.91c0,.46-1.78,2-1.78,2s-2.11-.73-3.89-1.25l-3.17-.92s-.77,1.54-1.21,1.63-1-.18-1,.35a3,3,0,0,1,.36,1,1.93,1.93,0,0,1-.4.82c-.13.13,1.78,1.88,1.78,1.88a2.08,2.08,0,0,0-1,.56c-.46.46-.07.56-.66.82s-1.09.89-1.45.92a4.61,4.61,0,0,1-1.25-.3l-1,.92a6.23,6.23,0,0,1,1.32,2.47,22.54,22.54,0,0,0,.86,2.67,4.86,4.86,0,0,1,.92-.53c.1,0,1.12,1.06,2,1.78a7.91,7.91,0,0,0,1.22.82,21,21,0,0,1,1.62,1.81s-1.58,1.75-1.85,2,.16,1.06.13,1.19a9.07,9.07,0,0,1-1.32,1.16,17.38,17.38,0,0,0-1.48,1.22,3.65,3.65,0,0,0-.33,1.45c0,.17-4.72,3.23-4.72,3.23l1.09,2.14s-1.48.82-1.58.82-.79-.89-.89-.92a6.33,6.33,0,0,0-1.06.59s.59.92.43,1.06l-2,1.55-1.06.2s-5.18-9.37-5.18-9.5.1-2.51-.2-2.57a7.89,7.89,0,0,0-1.19,0s-.59-.3-.92-.43-.89-.4-1-.56-1.15-.49-1.15-.49l-.49.66s.2.63.07.69a5,5,0,0,1-1.29.46c-.13-.07-.79-1.29-1.09-1.15a11.13,11.13,0,0,0-1.19.82,6,6,0,0,1,.1,1.16c-.07.1-.89,1-.89,1s-2.18-2.61-2.47-3.83a12.66,12.66,0,0,0-1.55-2.87c-.07-.23-1.06.53-2,.26a18.51,18.51,0,0,1-2.21-1c-.63-.23-2.44-.59-2.44-.59s-1.22,1.32-.82,2,.82,1.19.59,1.48-1.09,1-1.22,1.19,0,1,0,1,1,1.06.89,1.15-.07,1.06-.76,1.09a14.29,14.29,0,0,0-3.3.82,9,9,0,0,1-3.17.69c-1,0-1-.49-1-.49H94.16s0-1-.16-1-1.58.1-1.58.1l0-1.09s-1.58-.63-2.18-.17a2.82,2.82,0,0,0-.82,1.32s-.63.07-.82.4a5.15,5.15,0,0,1-.63.76l-.66.3-.82.3a12.41,12.41,0,0,0-1.65,0,16,16,0,0,1-2.11.07c-.49,0-2.11.1-2.14-.66a5.82,5.82,0,0,1,.23-1.45c.07-.59.3-.82-.33-1.15s-1.06-.26-1.19-.69a5.28,5.28,0,0,0-.43-1c-.2-.4-.73-.53-.4-.82s.2-.76.56-.76.63.07.79-.33.3-.73,0-1-.66-.46-.66-.79a4.1,4.1,0,0,0-.16-1,3.56,3.56,0,0,1-.16-1.42,1.12,1.12,0,0,0,0-1.06,6.81,6.81,0,0,1-.56-1.29c0-.23-.82-1.16-.82-1.16a16.26,16.26,0,0,1-1.85-1.12,9.15,9.15,0,0,0-3.3.56,5.58,5.58,0,0,0-2,1.12c-.63.46-.66.46-2.11.82s-.82-.07-.79-.92-.2,0-1.35.33a3.56,3.56,0,0,1-1.78.26c-1,0-.69-.3-.82-.76s-.82.23-1.72.63-5.51,2.87-5.51,2.87l.2,1.85-5.81.92a24.43,24.43,0,0,1,.66,3.37,18,18,0,0,0,.4,3c.13.4-2.77,8.84-2.77,8.84a18.33,18.33,0,0,1,1.91,1,12.35,12.35,0,0,1,1.58,2.71,46.7,46.7,0,0,0,2.64,4c.86,1.32,1.45,1.65,1.91,1.25s.79-.73.79-.73,2.71,3.83,2.57,4.69,1.25,3.76,1.25,3.76l.13,2.38L57.86,186a6.48,6.48,0,0,1,.26,1.85c-.13.33,0,1.91-.86,2.9,1.25,4.09.92,4.09,1.25,4.09a23.83,23.83,0,0,0,4-.4c1.52-.33,2.71-.07,2.77.53s.66,4.82.66,6.07a3.41,3.41,0,0,0,.66,2,13.8,13.8,0,0,1,.86,1.72c0,.2-4.82,4.09-4.82,4.09s1.45,4.62,2,5.94a40.39,40.39,0,0,0,2.64,4.55c.33.53,3.7,4.09,2.9,5.35s-1.45,2-1.72,2-2.11-1-3.3-.2-1.58,1.65-3,1.91-3.3,1.19-3.7,1.85-2.18,1.58-1.91,2.64S58,234,58,234.51a1.92,1.92,0,0,1-.66,1.72c-.73.73,0,.79-1.25,1.39s-1.52.33-2.64,1.32a7,7,0,0,1-2,1.39,4.68,4.68,0,0,1-2.11.73s-2.18-.07-2.24.86.79.92.4,2.31-1.52,1.45-.79,2.24,1.65,2.77,1.85,2.77,2.57-4.29,3.56-4.69,2-.79,2.38-.53,3.37,1.65,3.37,1.91,1.19,1.65,1.85,1.65,2.18-1.25,2.38-1.19.59,1.78,1.12,1.45.4-1.72.79-2.44,1.06-.59,2-.59-.59,2.77,1.19,2.71,4.22-.4,4.75-.4,1.91,1.72,1.91,1.72l1.91,1.58a27.71,27.71,0,0,1,1.78-4c.4-.33,1.52,6.93,1.52,6.93s.76-1.22,1.45-1a3.08,3.08,0,0,1,1.52.79c.76.66,2,2.34,2.14,2.28a2.27,2.27,0,0,1,1.42-1.29,8,8,0,0,1,1.35-.33,12.63,12.63,0,0,0,1.35,1.42c.66.56,1.29,1.55,1.39,1.55s1.58-.33,1.58-.33l.63,1.06-1.48.89s-1.12-.26-1.22-.26-3.27,2.14-3.27,2.14.56,4.32.73,5l.4,15.21a7.79,7.79,0,0,1,1.94,0,10.81,10.81,0,0,1,5.76,2.2c1.85,1.67,5.41,1.63,5.41,1.63l2.86.66c1.89.44,7.08,4.22,7.08,4.22l-.18,2.29,6.91,4.09,1.41-1.67,7-.18-.4,1.76L133.6,307s4.88-1.94,5-1.94a13.09,13.09,0,0,1,1.41,1.1l1.1,0,5.15,9.15s-.26,3.48,0,3.92S152,328,152,328l4.88-2.2.35,1.06,5.54.62s.62.57,3.52,4.09,8.8,4.53,10.25,6.16,11.75,4,11.75,4l4.88-3.56s11.35,1.67,11.7,1.8a28.87,28.87,0,0,1,2.46,3.52s2.82-2.42,3.34-2.9,6.56-4.4,8.27-6.2a31.42,31.42,0,0,1,5.41-4l2.2,1.1,10.12-.79s-2.68-3.52-2.82-3.74,3.12-3,3.56-3.3a14.68,14.68,0,0,0,2.9-2.6,80.94,80.94,0,0,1,6.47-5.85,15.72,15.72,0,0,1,3.65-1.32s1.58.13,1.94-.22,6.78-4,6.78-4a3.12,3.12,0,0,0,.53-1.14,8.71,8.71,0,0,1,.53-1.41,7.58,7.58,0,0,1-.92-1.67,6.55,6.55,0,0,1,0-2.2l1.67.35a23,23,0,0,0,2.29-.53l-.7-1.14c-.7-1.14,2.29-1.41,2.82-1.67s1.85.09,3.34.44a20.78,20.78,0,0,0,2.9.62c1.64.25,1.37.57,1.33.61l5-4.57,3,2.2,4-3.52a32.75,32.75,0,0,1,.62-3.43,19.4,19.4,0,0,1,1.06-3.26c.7-1.76,0,0-.35-1.67s1-1.54,1-1.54l-3.48-2.38a1,1,0,0,0,.66-1,19.58,19.58,0,0,0-1.36-3.21c-.22-.48-1.28-2.16-1.28-2.16a44.17,44.17,0,0,1,5.63-1.72c1.58-.22,2.07-.31,2-.48s.88.4,1.06,1-.57,2.51-.44,2.6a11.86,11.86,0,0,0,3.21-2,7.91,7.91,0,0,0,1-3.92,35.75,35.75,0,0,0-1.54-5.72l5.76-3.34-.57-3.12s3.12-4.27,3.43-4.49,0-1.36.75-2a11.78,11.78,0,0,0,1.58-2.33Z"/><path class="cls-2" d="M207,345.64l-.87-1.4c-.69-1.11-1.56-2.42-2-3-1.48-.26-6.88-1.07-10.62-1.62l-4.94,3.6-.63-.14c-3.23-.73-10.91-2.62-12.49-4.4a11.77,11.77,0,0,0-2.89-1.5c-2.42-1-5.43-2.33-7.39-4.71-1.79-2.17-2.69-3.19-3.1-3.64l-5.93-.66-.14-.43-4.56,2.05-.66-1c-.56-.85-5.48-8.35-5.75-8.8s-.47-.79-.23-4.32l-4.55-8.09-.8,0-.37-.32-.7-.59c-.91.35-2.66,1-4.27,1.67l-1,.39-9.86-12.81.14-.64-4.58.12-1.77,2.1-8.7-5.15.18-2.37c-2.06-1.46-4.93-3.3-5.93-3.53l-2.7-.62c-.87,0-4.19-.18-6.2-2a9,9,0,0,0-5-1.84,6.47,6.47,0,0,0-1.55,0l-1.58.23,0-1.6-.39-15.08c-.2-1-.63-4.31-.72-5l-.11-.87.72-.49c1.58-1.07,2.45-1.66,3-2a6.2,6.2,0,0,0-.73-.81,10.88,10.88,0,0,1-.95-.93l-.45.12a.57.57,0,0,0-.43.39,1.65,1.65,0,0,1-.75.81c-1,.53-1.7-.24-2.54-1.21A15.51,15.51,0,0,0,81,254.29c-.33-.29-.36-.3-.56-.36l-.1,0a2.27,2.27,0,0,0-.18.24l-2,3.16-.58-3.7c-.15-.95-.32-2-.49-2.91l-.09.23-.71,1.85-3.64-3a10.35,10.35,0,0,0-1.1-1.17l-1,.1c-1,.1-2.33.24-3.43.28a2.26,2.26,0,0,1-1.76-.66,2.13,2.13,0,0,1-.49-.83,2.39,2.39,0,0,1-1,1.6,1.67,1.67,0,0,1-1.38.18,2,2,0,0,1-1.07-.87,3.6,3.6,0,0,1-1.8.64,4.28,4.28,0,0,1-3-2.18c-.37-.22-1.18-.64-1.65-.88l-1.07-.56a11.5,11.5,0,0,0-1.28.45,21.62,21.62,0,0,0-2.16,3c-.9,1.4-1.17,1.82-2,1.82S47.22,250,46.62,249a11.54,11.54,0,0,0-1-1.56,2,2,0,0,1,.06-2.91,1.67,1.67,0,0,0,.42-.68,1,1,0,0,0,0-.27l-.07-.1a2.7,2.7,0,0,1-.43-1.66c.1-1.41,1.51-2.23,3.7-2.17a4.17,4.17,0,0,0,1.36-.54l.8-.44a4,4,0,0,0,1-.78,5,5,0,0,1,2.1-1.2,6.3,6.3,0,0,0,.87-.33l.18-.09a2.74,2.74,0,0,1,.68-1l.15-.15a2.79,2.79,0,0,1-1.31-1.74c-.39-1.55.88-2.65,1.63-3.31a5.49,5.49,0,0,0,.46-.43c.76-1.26,3.39-2.24,4.63-2.48a2.42,2.42,0,0,0,1.28-.77,10.22,10.22,0,0,1,1.17-.93,4.36,4.36,0,0,1,3.76-.21c.18-.22.42-.56.72-1-.09-.4-.58-1.29-2.21-3.26-.29-.36-.51-.63-.59-.76l-.2-.31a33.75,33.75,0,0,1-2.56-4.47c-.54-1.35-2-5.85-2-6l-.29-.92.75-.61c1.49-1.2,3.12-2.55,4-3.31l-.34-.62a4.91,4.91,0,0,1-.89-2.82c0-.9-.39-3.85-.55-5.11l0-.21a4.13,4.13,0,0,0-1.14.11,25.06,25.06,0,0,1-4.26.43c-1.3,0-1.54-1.09-1.66-1.62s-.33-1.48-.95-3.48l-.23-.75.51-.59a3.15,3.15,0,0,0,.45-1.61,4.54,4.54,0,0,1,.09-.64,9.74,9.74,0,0,0-.24-1.21l-.33-1.28,4-1.33-.06-1a11.21,11.21,0,0,1-1.27-4.13A15.79,15.79,0,0,0,57.37,176a2,2,0,0,1-1.17.19,3.92,3.92,0,0,1-2.43-2c-.29-.44-.6-.89-.92-1.33a22.83,22.83,0,0,1-1.8-2.83,18,18,0,0,0-1.23-2.25c-.26-.16-1-.53-1.59-.79l-1.17-.54.42-1.21c1.17-3.42,2.44-7.28,2.67-8.29a23,23,0,0,1-.37-3,22.23,22.23,0,0,0-.61-3.09l-.4-1.52,6-1-.16-1.46.84-.45c.48-.26,4.69-2.51,5.6-2.92a6.16,6.16,0,0,0,.67-.37,2.23,2.23,0,0,1,2-.42,1.59,1.59,0,0,1,.86.82h.16l.15,0,.68-.19a1.4,1.4,0,0,0,.55-.3,1.55,1.55,0,0,1,1.75-.27,1.42,1.42,0,0,1,.75.94,1.71,1.71,0,0,0,.71-.36l.24-.18A6.56,6.56,0,0,1,71.8,142s3.33-1.08,4.43-.49l.55.3,0,.11c.33.2.85.49,1.29.73l.22.12.16.18c.91,1,1.12,1.51,1.17,1.88,0,.09.1.2.16.32s.2.41.3.62a2.46,2.46,0,0,1,.06,2c0,.17.08.44.13.64l.1.47c0,.21.08.37.1.54l.27.25a2.2,2.2,0,0,1,.31,2.57,1.84,1.84,0,0,1-.87,1c.09.17.17.33.25.54a4.68,4.68,0,0,1,.64.28,2,2,0,0,1,1.12,2.35c0,.06,0,.14,0,.22a3.87,3.87,0,0,1-.09.52l.69,0a14.72,14.72,0,0,0,1.88-.06,12.06,12.06,0,0,1,1.58,0l.86-.34a2.67,2.67,0,0,0,.25-.31,2.14,2.14,0,0,1,1-.84,3.74,3.74,0,0,1,1-1.27c1.11-.87,2.87-.31,3.57,0l.87.34,0,.54a1.6,1.6,0,0,1,.56,0,1.43,1.43,0,0,1,1,.95h1.46l-.06.46a10.43,10.43,0,0,0,2.1-.58,22,22,0,0,1,2.61-.75l0,0-.26-.29-.08-.38a2.52,2.52,0,0,1,.17-2.06,4.73,4.73,0,0,1,.78-.8l0,0-.21-.34c-.85-1.42.42-3,1-3.67l.54-.58.78.16a25.5,25.5,0,0,1,2.65.65,7.43,7.43,0,0,1,.94.45,5.52,5.52,0,0,0,1.16.51,1.93,1.93,0,0,0,.7-.17,1.83,1.83,0,0,1,1.55,0l.55.28.15.46.16.23a9.44,9.44,0,0,1,1.46,2.86,5.07,5.07,0,0,0,.64,1.19l.38-.29a8.79,8.79,0,0,1,1.48-1,1.57,1.57,0,0,1,1.8.38l1-1.38.95.29a3.76,3.76,0,0,1,1.81.9,4.44,4.44,0,0,0,.42.19c.2.08.49.21.71.32a5.64,5.64,0,0,1,1.19.08c1.35.3,1.36,1.77,1.31,3.65.56,1.08,2.77,5.09,4.44,8.11l.66-.51-.65-1,1.17-.77c.84-.55,1.37-.87,1.95-.82l-.57-1.12,1.07-.7c1.59-1,3.36-2.22,4.13-2.77a3.37,3.37,0,0,1,.62-1.66,11.28,11.28,0,0,1,1.4-1.18l.28-.22.61-.49a1.85,1.85,0,0,1,.45-1.74l1-1c-.27-.32-.5-.57-.6-.66l-.05,0a7.09,7.09,0,0,1-1.18-.81c-.47-.37-1-.81-1.35-1.16l-1.4,1-.66-1.62a23.77,23.77,0,0,1-.92-2.86,4.84,4.84,0,0,0-1-1.86l-.94-1,2.65-2.48.82.3.5.16.05,0a5.71,5.71,0,0,1,.84-.59,2.31,2.31,0,0,1,.23-.37c-.92-.94-1-1.25-1-1.67v-.6l.34-.35-.12-.23-.17-.32v-.36a1.72,1.72,0,0,1,.52-1.29,1.8,1.8,0,0,1,1.29-.47h0a8.58,8.58,0,0,0,.5-.85l.53-1.05,1.13.32,3.18.93c1.12.33,2.36.74,3.14,1a9,9,0,0,0,.75-.8,8.66,8.66,0,0,1,.84-2.18l.49-1,1.84.4.82-.82a7.33,7.33,0,0,0,.14-.86c0-.13,0-.27,0-.41a6.37,6.37,0,0,1,.32-2l-.08,0c-2.36.87-3.55,1.3-4.33.26l-.86-.87a34,34,0,0,1-3.66-4c-.17-.3-.34-.65-.5-1l-.23-.47c-1-.34-2.3-1.15-2.3-2.3,0-.3,0-.66.9-2l-.15-.16c-1-.91-.62-2.28-.31-3.29,0-.16.1-.33.14-.48a3.11,3.11,0,0,1-1.51.2,2,2,0,0,1-1.4-1.4s-1.6-4.37-.47-5.82a3.47,3.47,0,0,1,1.4-1l-.42-1.15-.47-1.25,1.22-.54c3.34-1.48,3.54-1.41,4.06-1.23s.8.36,1.62,2.34L164.06,96l-.32-1.6,5.9-4.73-1.38-4,1.21-.46-.67-1.34,5-5.21.64,0s1.89.07,2.76.13a5.9,5.9,0,0,0,2.35-.15l.58-.15a10.12,10.12,0,0,1-.44-.91l-.13-.29c-.22-.48-1.21-2.19-1.78-3.15l-.31-.52.16-.58c0-.16.13-.45.23-.79l-.61.13-.5-.95a4.21,4.21,0,0,0-.8-1.1A4.81,4.81,0,0,1,174,66a9.84,9.84,0,0,1,1.14-2.48c.19-.35.47-.83.61-1.13a34.23,34.23,0,0,0-2.15-3.55c-.87-.47-.8-1,0-3.68L169.27,52l.58-1.09c1.55-2.91,1.74-3.1,1.9-3.25s2.64-3.56,4.21-5.7l.7-2.22,6.64-1.51.91-3.22-1-.87-1.11-7-3-.58-1.29-1.84A4.37,4.37,0,0,1,175,22.16a16.91,16.91,0,0,1-.54-4.3,7.36,7.36,0,0,1-.85-2.62,2.94,2.94,0,0,0-.16-.68,1.91,1.91,0,0,1,0-1.58,2,2,0,0,1,1.28-1,33.67,33.67,0,0,1,5.1-1.18l.33,0c1.24-.11,1.69-.18,2.14-.82a17.28,17.28,0,0,0,1.58-3.87l.42-1.45,7.33,2.6,0,1a5.32,5.32,0,0,0,.81,2.88,56.79,56.79,0,0,1,5.12,5.36l.54.62-.81,2.28.27.16,3.69.36c.14,0,2,.29,3.15.56a3.67,3.67,0,0,1,2.42,2.07l.09.23,0,1,2.55,4-1.09,1.15c.21,1,.55,2.61.65,3.22a10.11,10.11,0,0,0,.8,1.9l.11,0a11.63,11.63,0,0,1,2.43.75,3.69,3.69,0,0,1,.91.81l.85-.43,1.19,1.74,1.52-.64.36.6,1.11-1.11.95,1.5c.71,1.12,1.53,2.39,2,3.14l.38-.1,1.29-.34,1.28,3.84,2.83-.71.41,1.27c2.09,6.55,2.09,7,2.09,7.24a8.88,8.88,0,0,1-.49,2.13c-.08.29-.17.55-.21.72l.06.51c.32,2.77.32,3.26,0,3.81l-.1.19a8.76,8.76,0,0,1-1.39,2c-.35.35-1.61,1.87-2.72,3.24l.53.29a23.83,23.83,0,0,0,3.12.38,2.48,2.48,0,0,1,1.88.77,2.42,2.42,0,0,1,.34.46h.82l2.94-3.5.9.29c.46.15,1.81.55,2.53.68a2,2,0,0,1,1.53,1.13,2,2,0,0,1,.16.53l.61.2,3.1.39.33.7a3.87,3.87,0,0,1,0,2.89,6,6,0,0,1-.88,1.57l0,0c-.16.5-.54.86-2.75,1.79l.72,3.82-1.33.56.46,4.08-1.33.58.56,1.92a39.11,39.11,0,0,1,8.66-2.13l2.2-1.38,2.54.86.1-.1a2.09,2.09,0,0,1,2-.94A3.15,3.15,0,0,1,257,82.1l.06.17c1.77,6.49,6.64,14.19,6.69,14.26l.92,1.44-1.59.63c-1.36.54-5.12,2.07-6.15,2.62-.6.32-.6.32-.57.92a4.13,4.13,0,0,1-1.52,3.3,5.55,5.55,0,0,1-2.16.44l-.48.06a1.58,1.58,0,0,1,0,.66,1.37,1.37,0,0,1-.35.66h1.34l.06,1.35h0a4.56,4.56,0,0,0,.74,1.62c.41.62.83,1.32,1.2,1.93.22.36.48.78.65,1h0a5.89,5.89,0,0,1,2.27,1c.87.71,2.18,3.34,2.89,4.85l.46,1-.82.7c-.11.1-2.77,2.37-3.68,3a3.82,3.82,0,0,1-2.92.64l-.57,0a3.09,3.09,0,0,0-.11.3l-.22.68-.67.23c-3.1,1-5.95,0-8.46-1-2.74-1-5.1-2-7.83-.67a16,16,0,0,0-4.17,3.27l-.43.42c-2.37,2.3-4.81,3.29-7.75,4.36-2.52.91-4.83,1.91-5.47,4.2-1.55,5.53,2.93,12.8,6.32,16.34,2.27,2.37,4,3.29,6.07,3.19a15.05,15.05,0,0,0,2.61-.44,10.83,10.83,0,0,1,5.25-.25,13.4,13.4,0,0,1,3,1.12l1.28.64-.64,1.27c-.22.43-.47.89-.69,1.29,2.51,1.91,5.05,3.8,5.56,4.09a28.52,28.52,0,0,1,3.23,2.07l1.54,1.09-.24.19a5.92,5.92,0,0,1,1.82,0,7.58,7.58,0,0,0,1.1,0,7.78,7.78,0,0,0,1-.17,2.76,2.76,0,0,1,2.58.31,3.9,3.9,0,0,1,.79,1.16,6.83,6.83,0,0,0,.65,1.07l.09-.07a2.64,2.64,0,0,1,2.59-.82,6.69,6.69,0,0,1,2.79,1.83,5.72,5.72,0,0,0,.53-.38l.12-.09c.25-.19.47-.37.64-.53a2.88,2.88,0,0,1-.14-.67,6.14,6.14,0,0,0-1-.18h0a1.46,1.46,0,0,1-1.37-1c-.12-.35-.42-1.27,1.65-2.83a4.93,4.93,0,0,1,1.83-.79,8,8,0,0,0,1-.33,3.55,3.55,0,0,1,.39-1,4.08,4.08,0,0,1,2.88-1.85,3,3,0,0,0,.44-.12,1.68,1.68,0,0,1,2.17,0l-.25,1.42.36-1.37a10.65,10.65,0,0,1,3.23,2.17l1.74,1.57-2.2.81c-.06,0-.4.14-.86.27.12.37.31.92.66,1.73l.1.23a5.8,5.8,0,0,1-.64,4.23,1.67,1.67,0,0,0-.24.64,1.59,1.59,0,0,1-1.54,1.47c-.19,0-.83.14-1.34.24s-1.21.23-1.73.32a11.08,11.08,0,0,0-2.23,1.66l1.75,3.63a12.44,12.44,0,0,0,1.79,2.79,9.27,9.27,0,0,1,1.43,3.24l.19.62a3.92,3.92,0,0,1-.32,2.9,3.5,3.5,0,0,0-.21.58,3.83,3.83,0,0,1-.87,1.67c.24.61.75,1.83,1.3,3.1l.24-.07a21.33,21.33,0,0,1,3.58-.45l.61,0,.44.42a5.63,5.63,0,0,0,1.64,1,5.77,5.77,0,0,0,2.17-.08,3.05,3.05,0,0,1,1.61,0l.71.27.19.77c.22,1-.32,1.52-2.58,3.87l-.65.69.13.49a3.45,3.45,0,0,1,.2,1c0,.86-.68,1.47-1.91,1.73a1.72,1.72,0,0,1-2.13-.9,3.64,3.64,0,0,1-.21-1.1,6.91,6.91,0,0,0-.1-.77,8.76,8.76,0,0,0-1.09-.56l-.61-.29a2.78,2.78,0,0,0-1.11,0l-.4,0a7.76,7.76,0,0,0-1.36,1.24l-.39.42a10.16,10.16,0,0,1-2.63,2.15,9.67,9.67,0,0,1-1.15.63l0,2.71,1.76-.14.36.19a28.3,28.3,0,0,1,3.22,1.77c.75.6.75,1.43.75,2.69a8.65,8.65,0,0,0,1.38,2.45l.52.16c.94.28,2.68.81,3.35.92a12.1,12.1,0,0,1,1.54.4,6,6,0,0,0,1.11.28c1.4.08,2.42,1.71,2.91,2.67l.24.48-.14.52a8.27,8.27,0,0,1-.55,1.43,3.58,3.58,0,0,0,.38.85l.65,1.05-1,.79-.33.27c.33.72.81,1.74,1.15,2.44,1,2.12,1,2.12,1,2.49,0,1.13-1.54,2.27-1.55,2.28l-.44.33a13.1,13.1,0,0,1-1.82,1.22,9.34,9.34,0,0,1-4.33.67,13.47,13.47,0,0,0-2.95-.07,6.62,6.62,0,0,0-.43,1.93c0,.14,0,.57.09,1.12.09,1.12.22,2.65.22,3.49,0,1.2,0,1.29,0,2.36a28.34,28.34,0,0,0,2,4.6,11.78,11.78,0,0,0,2.57,2.18,39.69,39.69,0,0,0,5.52-.24l6.93-2.73,2.29,3.6c1.24,0,2.82,0,3.29,0a22.42,22.42,0,0,0,2.76-.69l.94-.29,2.16,2.82-.42.8a12.3,12.3,0,0,1-1.87,2.71,2.05,2.05,0,0,0-.12.55,2.2,2.2,0,0,1-.67,1.5c-.32.36-1.63,2.09-2.86,3.76l.64,3.5-5.63,3.26a24.35,24.35,0,0,1,1.25,5.07c0,1.09-.32,3.7-1.31,4.84,0,0-3.53,3.3-5.07,2.27-.9-.6-.65-1.53-.43-2.36,0-.17.12-.45.18-.71-.37.07-.82.13-1.37.21a27.65,27.65,0,0,0-3.71,1.06c.19.33.36.63.45.82l.21.43a12.41,12.41,0,0,1,1.27,3.19,2.24,2.24,0,0,1,0,.81l6.83,4.67-4.56-.45h0c.5.68.27,1.26-.12,2.23a16.09,16.09,0,0,0-.86,2.54l-.15.56a31.51,31.51,0,0,0-.58,3.24l-.07.53-5.21,4.64-3-2.19L273.94,303,272,300.9a1.28,1.28,0,0,0-.36,1.15,1.14,1.14,0,0,0,.55.81,3.49,3.49,0,0,0-.74-.16,15.32,15.32,0,0,1-2.07-.4l-1-.24L268,302a10,10,0,0,0-2.11-.4,6.1,6.1,0,0,1-.94.27l-.67.17,1.19,1.93-1.83.5A11.54,11.54,0,0,1,261,305l-.37,0V305a6.18,6.18,0,0,0,.72,1.26l.51.7-.39.77a7.37,7.37,0,0,0-.43,1.15,4.41,4.41,0,0,1-.83,1.7l-.16.18-.2.12c-2.85,1.64-6,3.51-6.54,3.88-.25.23-.88.71-2.76.59a13.5,13.5,0,0,0-2.91,1c-1,.75-5.66,4.84-6.18,5.55a15.75,15.75,0,0,1-3.33,3c-.33.22-1.67,1.38-2.48,2.15l2.13,2.81,1.58,2.07-13.11,1-1.85-.93a26.34,26.34,0,0,0-4.45,3.32,57.84,57.84,0,0,1-6.76,5.15c-.68.47-1.45,1-1.6,1.13-.53.48-3.25,2.82-3.36,2.92Zm-14.2-9,.57.08c11.5,1.69,11.82,1.81,12,1.88.37.14.7.26,2.28,2.7.88-.76,1.8-1.56,2.07-1.8s.63-.49,1.88-1.36a58.82,58.82,0,0,0,6.32-4.78,32.44,32.44,0,0,1,5.72-4.21l.66-.39,2.53,1.27,7.14-.56c-1.21-1.61-1.29-1.74-1.33-1.8-.69-1.15.26-2,1.84-3.42,0,0,1.69-1.51,2.21-1.83a13.92,13.92,0,0,0,2.47-2.19c.79-1.12,6.13-5.67,6.76-6.16a14.4,14.4,0,0,1,4.18-1.58l.22-.06.23,0a6,6,0,0,0,1.06,0c.46-.33,1.84-1.21,6.52-3.9a3,3,0,0,0,.17-.47c.09-.33.2-.63.29-.88a6.69,6.69,0,0,1-.67-1.39,7.22,7.22,0,0,1,0-2.87l.25-1.44,2.89.61h.06a1.87,1.87,0,0,1,.06-1.28c.49-1.18,2-1.52,3.12-1.79.21,0,.39-.09.51-.13.87-.44,2.12-.15,3.84.27l.39.09,1,.26a12.6,12.6,0,0,0,1.76.34,7.87,7.87,0,0,1,1,.2l5-4.59,3,2.21,2.71-2.41a29.56,29.56,0,0,1,.58-3.09l.14-.54a18,18,0,0,1,.91-2.73,3.34,3.34,0,0,1-.36-1,3.19,3.19,0,0,1,0-1.69l-4.27-2.92,2.23-.79c-.23-.59-.69-1.53-.87-1.9l-.24-.51c-.11-.24-.7-1.22-1.18-2l-.94-1.48,1.64-.61a42.94,42.94,0,0,1,5.93-1.79l1.2-.18.35-.47.89.14a3.31,3.31,0,0,1,2.14,2,1.94,1.94,0,0,1,.07.3,2.3,2.3,0,0,0,.28-.24,7.47,7.47,0,0,0,.62-3,32.84,32.84,0,0,0-1.46-5.26l-.38-1.1,5.91-3.43-.5-2.74.36-.49c2.07-2.83,2.95-3.95,3.36-4.42v0a3.54,3.54,0,0,1,1-2.25,5.42,5.42,0,0,0,.67-.89,14.74,14.74,0,0,1-2,.43c-.94.1-4,0-4.4,0l-.75,0-1.84-2.9-5.12,2-.2,0c-1.61.15-5.47.47-6.67.19-1.37-.33-3.32-2.31-4.1-3.14l-.13-.14-.09-.17c-.87-1.7-2.35-4.73-2.4-6s0-1.21,0-2.48c0-.73-.13-2.25-.21-3.26-.06-.68-.1-1.21-.1-1.36s.1-4.12,2.38-4.64a14.81,14.81,0,0,1,4.19,0,6.85,6.85,0,0,0,2.71-.39,11.9,11.9,0,0,0,1.39-.95l.57-.42.09-.08-.53-1.11c-1.91-4-1.91-4-1.62-4.69l.25-.59.43-.14a2.88,2.88,0,0,1,0-2.33,5,5,0,0,0,.23-.5,4,4,0,0,0-.48-.64,8.84,8.84,0,0,1-1.57-.39,9.78,9.78,0,0,0-1.18-.32c-.77-.13-2.24-.57-3.68-1l-.71-.21c-1.34-.37-3.2-3.82-3.2-5.11,0-.22,0-.46,0-.65l-2.09-1.11-4,.3-.17-10.38,1.93,1.94c.16-.08.38-.2.65-.36a7.46,7.46,0,0,0,2-1.65l.42-.45c1.47-1.54,2.34-2.11,3.23-2.11l.3,0a4.76,4.76,0,0,1,2.67.31l.53.25a8.43,8.43,0,0,1,1.71,1l.79-.84a4.09,4.09,0,0,1-1-.24,8.56,8.56,0,0,1-2.08-1.15,16.13,16.13,0,0,0-2.38.3,8.62,8.62,0,0,0-1.19.44l-1.33.65-.59-1.36a43.73,43.73,0,0,1-2.16-5.3,2.22,2.22,0,0,1,.66-1.89,2,2,0,0,0,.35-.51,5.62,5.62,0,0,1,.39-1.14c.23-.53.29-.72.22-.92l-.21-.67a7.89,7.89,0,0,0-.9-2.24,15.18,15.18,0,0,1-2.17-3.37c-.71-1.45-2.2-4.58-2.2-4.58l-.44-.92.73-.71c1.11-1.07,3.16-2.89,4.5-3.11.5-.08,1.09-.2,1.64-.3l.82-.16a5.86,5.86,0,0,1,.34-.75,4,4,0,0,0,.48-1.9l0-.12c-1.08-2.53-1.28-3.68-.79-4.55a1.71,1.71,0,0,1,.22-.31l-.13-.06a3.15,3.15,0,0,1-.54-.19,5.93,5.93,0,0,1-.78.23c-.56.14-.94.24-1.07.47a1,1,0,0,0-.1.21,2,2,0,0,1-1.49,1.94,9.3,9.3,0,0,1-1.32.46,2,2,0,0,1,.3.27,1.76,1.76,0,0,1,.45,1.4,1.14,1.14,0,0,0,0,.13l.43.36,0,.77c0,.52-.18,1.2-2,2.63l-.1.08c-1.69,1.31-3.09,1.4-4.17.26a4.5,4.5,0,0,0-1.46-1.13l-.19.16c-.48.41-1.94,1.65-3.41.43a7.08,7.08,0,0,1-1.67-2.26l0-.07-.23,0a10.24,10.24,0,0,1-1.4.23,9.71,9.71,0,0,1-1.55,0l-.69,0a14.8,14.8,0,0,1-1.18,1.25c0,.19.05.41.09.58l.21,1.1-6.17,2.79-.68-.94c-1.82-2.54-2.51-3.49-1.52-4.47.06-.06.16-.17,3.85-3.1a12.69,12.69,0,0,0-1.13-.7c-.19-.07-.75-.29-7.16-5.21l-1-.77.64-1.08s.23-.39.52-.9a8.11,8.11,0,0,0-1-.3,8.29,8.29,0,0,0-4,.25,17.75,17.75,0,0,1-3.09.5c-3.71.18-6.36-2.07-8.27-4.05-4.6-4.81-8.76-12.82-7-19.07,1.09-3.88,4.93-5.27,7.23-6.1,2.7-1,4.77-1.82,6.74-3.73l.43-.42a18.47,18.47,0,0,1,4.94-3.8c3.82-1.81,7.13-.54,10.06.58,2.14.82,4,1.54,5.95,1.13a2.43,2.43,0,0,1,2.24-1.52c.4,0,.76,0,1.08.06.72.06.8,0,1-.08.54-.4,1.84-1.49,2.7-2.23a18.49,18.49,0,0,0-1.68-2.92,4.07,4.07,0,0,0-1.17-.44,2.73,2.73,0,0,1-1.08-.45,7.35,7.35,0,0,1-1.3-1.87c-.35-.58-.76-1.25-1.15-1.85a8.69,8.69,0,0,1-.88-1.71,5.23,5.23,0,0,1-.59,0c-.54-.09-1.05-.42-1.92-1.78l-.7-1.09,1-.79.73-.59a2.34,2.34,0,0,1,.24-1.65,1.83,1.83,0,0,1,1.18-.82c.38-.08,1-.16,1.67-.23l1-.12a1.5,1.5,0,0,0,.21-.67,3.32,3.32,0,0,1,2.07-3.56c.9-.48,3.28-1.47,4.88-2.12a62.14,62.14,0,0,1-6.13-13.49l0-.07a6.1,6.1,0,0,1-1,.77l-.57.34-2.58-.87-1.59,1-.31,0c-1.84.22-7.11,1.12-9.45,2.59l-1.59,1L235,80.15l1.7-.74-.46-4.1,1.18-.5L236.68,71l1.08-.43c.9-.36,2-.84,2.46-1.08l.18-.26a3.3,3.3,0,0,0,.5-.88v0l-1.58-.22-3.56-1.16.51-.87-1-.27-2.58,3.07H228l.09-1.24a30.8,30.8,0,0,1-3.58-.46l-.23,0-3.86-2.16,1-1.31c.33-.41,3.24-4,4-4.78a6.18,6.18,0,0,0,.92-1.33l0-.06c0-.53-.16-1.74-.22-2.23s-.09-.83-.09-.92a5.54,5.54,0,0,1,.33-1.45c.11-.36.3-1,.36-1.3-.15-.64-.83-2.87-1.54-5.15l-2.8.7-1.28-3.84a1.73,1.73,0,0,1-.39,0c-.79,0-.89,0-2.89-3.12l-1.18,1.18-1-1.6-1.38.59-1.1-1.61-.79.39-.7-1a8.47,8.47,0,0,0-.75-.95c-.2-.07-.78-.23-1.7-.47l-.43-.12a3.06,3.06,0,0,1-.95-.58l-.24-.18-.14-.26a12.88,12.88,0,0,1-1.25-3.09c-.1-.65-.6-3-.78-3.79l-.16-.73.58-.62-1.76-2.73,0-1.14a.76.76,0,0,0-.39-.26c-1-.24-2.78-.5-2.8-.5l-4.26-.42-2.81-1.68,1-2.91a46.91,46.91,0,0,0-4.11-4.31c-1.25-.92-1.71-2.85-1.87-4.07l-2.79-1a15,15,0,0,1-1.52,3.28,5,5,0,0,1-4.21,2l-.31,0a27,27,0,0,0-3.74.83c0,.14,0,.28.07.44A4.77,4.77,0,0,0,177,16.7l.22.35v.42a15.92,15.92,0,0,0,.38,3.76c.13.37.93.71,1.33.8l.55.11,1.25,1.77,3.85.74,1.26,8L187.43,34l-1.86,6.54-6.69,1.52-.35,1.11-.14.19c-3.46,4.73-4.29,5.81-4.53,6.11s-.5.85-.92,1.61l4,2.89-.3,1c-.24.79-.51,1.69-.68,2.27a21.76,21.76,0,0,1,2.71,4.88c.08.73-.28,1.4-1,2.75a11.52,11.52,0,0,0-.83,1.65,2.32,2.32,0,0,0,.62,1.42,4.58,4.58,0,0,1,1.28,1.3c1.17-.13,1.86.08,2.29.66a1.57,1.57,0,0,1,.09,1.71,13,13,0,0,0-.57,1.63c.48.82,1.34,2.31,1.61,2.9l.14.3.18.41c1.18.27,3.2.93,3.2,2.24v1.42h-1.45c-.32,0-2.79.56-3.91.87a8.6,8.6,0,0,1-3.3.25c-.53,0-1.43-.08-2-.11l-2.7,2.84,1.18,2.36-1.57.6L173,90.6l-6.11,4.9.47,2.36-23,7.76-.49-1.26c-.2-.51-.43-1.08-.63-1.55l-.54.22c.48,1.33.48,1.44.48,1.67,0,1-.93,1.38-1.42,1.56-.17.06-.5.18-.74.29a14.64,14.64,0,0,0,.49,2.53c.38-.12.85-.27,1.28-.43l1.23-.45.54,1.19a4.74,4.74,0,0,1,.31,2.49,8.21,8.21,0,0,1-.33,1.33c-.06.2-.14.46-.19.65a6.44,6.44,0,0,1,.91,1.35l.38.77-.5.7c-.19.26-.37.53-.54.78l0,0c1,.11,1.41,1,1.83,1.9.12.26.25.54.39.77.3.47,2.36,2.57,3.23,3.46l.51.52c.55-.17,1.36-.46,1.68-.58l.67-.23a3.52,3.52,0,0,1,3.07,1,2.12,2.12,0,0,1,.19,2.33,3.34,3.34,0,0,0-.35,1.62c0,.2,0,.39,0,.58a10.84,10.84,0,0,1-.31,1.7l-.1.36L153,133.38l-1.15-.25a3.39,3.39,0,0,0-.13.37c0,.42-.15,1.15-2.26,3l-.62.55-.78-.27s-2.1-.72-3.83-1.24l-2.09-.61A3.57,3.57,0,0,1,141,136.1a1.55,1.55,0,0,1,0,.33,2.46,2.46,0,0,1-.11.48c.31.31.71.69,1,1L144,139.8l-2.73.55h0a1.32,1.32,0,0,0-.19.13,1.91,1.91,0,0,1-1.14,1.17,2.91,2.91,0,0,0-.47.33,2.67,2.67,0,0,1-1.43.71h-.17a6.89,6.89,0,0,1,.49,1.34c.09.38.2.74.3,1.07a1.45,1.45,0,0,1,.56.08c.32.11.49.26,1,.75s.95.87,1.45,1.26a4.79,4.79,0,0,0,.76.53,3.26,3.26,0,0,1,.4.25,11.36,11.36,0,0,1,1.9,2.08l.77.94-.82.9-1.46,1.6a1.7,1.7,0,0,1,.07,1c-.13.52-.4.81-1.82,1.92l-.3.23c-.23.18-.66.51-.89.71a4.72,4.72,0,0,0-.09.65c0,.81,0,.9-4.29,3.7l1.13,2.23-1.19.66c-1.75,1-1.88,1-2.27,1l-.25,0a1.56,1.56,0,0,1-.38.43l-2,1.57-.27.21-2.39.45-.5-.9c-5.36-9.69-5.36-9.69-5.36-10.19V157c0-.44,0-.78,0-1h-.29l-.32-.16s-.53-.26-.82-.38a6.53,6.53,0,0,1-.74-.35,1.45,1.45,0,0,1-.64.6c-1.74.87-2.21.63-2.55.46l-.16-.09a1.4,1.4,0,0,1-.2.45,12.06,12.06,0,0,1-1,1.16l-1.09,1.18-1-1.24c-.56-.67-2.42-3-2.76-4.4a6,6,0,0,0-.82-1.59,3.37,3.37,0,0,1-1.75,0,8.16,8.16,0,0,1-1.74-.74,4.81,4.81,0,0,0-.58-.29c-.23-.09-.8-.22-1.36-.35h0c.41.65,1.09,1.73.3,2.76a7.27,7.27,0,0,1-.83.83c.62.72,1.05,1.39.76,2.12-.36,1.69-1.42,2-2,2a13.28,13.28,0,0,0-2.9.75,10.33,10.33,0,0,1-3.64.77,2.64,2.64,0,0,1-1.68-.5h-1.7l0-.92-.22,0-1.5.14,0-1.54h0a1.75,1.75,0,0,0-.21.45l-.27.91-.89.11a7.17,7.17,0,0,1-.66.76l-.18.18-1,.45-1.1.4-.3,0a10.49,10.49,0,0,0-1.42,0,17.08,17.08,0,0,1-2.34.07h-.24c-.78,0-3.14,0-3.23-2a3.74,3.74,0,0,1,.17-1.37,2,2,0,0,0,.06-.21A2.07,2.07,0,0,1,77.89,155a3,3,0,0,0-.25-.6l0-.09a1.83,1.83,0,0,1-.7-1.37,1.63,1.63,0,0,1,.44-1.09,2,2,0,0,1,.67-1,1.81,1.81,0,0,1-.32-1,1.39,1.39,0,0,0-.06-.39l-.1-.48a3.47,3.47,0,0,1,0-2.12h0l-.2-.4a4.52,4.52,0,0,1-.4-1c-.08-.12-.22-.29-.36-.46-.66-.36-1.12-.62-1.45-.84a11.39,11.39,0,0,0-2.32.5,3.9,3.9,0,0,0-1.4.71l-.29.21a5.27,5.27,0,0,1-2.5,1l-.11,0a2.23,2.23,0,0,1-2.27-.3,1.57,1.57,0,0,1-.18-.21l-.28.08a3.57,3.57,0,0,1-1.48.15h-.11a2.56,2.56,0,0,1-1.52-.45l-.4.2c-.57.25-3,1.55-4.57,2.38l.24,2.24-5.62.89a15.53,15.53,0,0,1,.34,2.12,18.58,18.58,0,0,0,.33,2.61c.17.5.27.81-2.37,8.55a7.12,7.12,0,0,1,1,.62c.48.38.94,1.13,2,3.18a20.8,20.8,0,0,0,1.58,2.46c.34.48.67,1,1,1.42.13.2.24.36.33.47l.18-.18,1.19-1.19,1,1.37c3,4.29,2.88,5.29,2.82,5.72a16.25,16.25,0,0,0,1.13,2.94l.12.25.21,3.74L59.51,187a2.71,2.71,0,0,1,0,1.32c0,.06,0,.13,0,.21a6.4,6.4,0,0,1-.65,2.51c.33,1.11.53,1.88.66,2.4a19.33,19.33,0,0,0,2.7-.33,4.73,4.73,0,0,1,3.65.38,2,2,0,0,1,.83,1.37c0,.12,0,.39.1.75.28,2.13.57,4.48.57,5.48a2,2,0,0,0,.35,1.16l.13.19c1,1.84,1,2.09,1,2.41,0,.77,0,.87-4.59,4.58.45,1.4,1.29,4,1.65,4.92a35.29,35.29,0,0,0,2.31,4l.21.33.37.46c2,2.38,3.63,4.66,2.53,6.4-1.44,2.28-2.13,2.71-2.91,2.71a2.44,2.44,0,0,1-.85-.19c-.88-.31-1.44-.39-1.67-.24a7.58,7.58,0,0,0-.86.69,5.11,5.11,0,0,1-2.63,1.43,6.87,6.87,0,0,0-2.78,1.24,4.69,4.69,0,0,1-1,1c-.17.14-.43.38-.6.56l.1.05a2,2,0,0,1,1.25,1.74v.11a3.25,3.25,0,0,1-1.08,2.61,2.62,2.62,0,0,1-1.65,1.67,9.08,9.08,0,0,1-1.22.47,2.33,2.33,0,0,0-1.09.63,6.36,6.36,0,0,1-1.57,1.16l-.7.39a6,6,0,0,1-2.82.92l-.54,0a3,3,0,0,1,.06,2.12,4.16,4.16,0,0,1-.71,1.4c.15.21.3.43.44.66,1.36-2.08,2.16-3.1,3-3.43,1.37-.55,2.79-1.12,3.79-.32l1,.5c1.9,1,2.68,1.36,2.87,2.09a3.84,3.84,0,0,0,.55.57c.25-.13.6-.36.8-.48.69-.44,1.23-.79,2-.54l.06,0a3.12,3.12,0,0,1,.16-.34,2.82,2.82,0,0,1,2.89-1.34h.34a1.69,1.69,0,0,1,1.26.54,2.49,2.49,0,0,1,.45,2v.09c.9-.05,1.91-.16,2.68-.24s1.28-.13,1.55-.13,1.18,0,2.92,2.13l.3.25c.94-2.27,1.27-2.54,1.47-2.71l.63-.53.82.28c.71.27,1.11.42,2,5.85a2,2,0,0,1,.91.13l.35.12a3.74,3.74,0,0,1,1.6.93A12.92,12.92,0,0,1,84,253.36a3.57,3.57,0,0,1,1.09-.51,6.66,6.66,0,0,1,1.74-.38h.68L88,253a11.1,11.1,0,0,0,1.17,1.23,8,8,0,0,1,1,1.08l.73-.16,1-.22,1.87,3.15L90.57,260l-.56-.13-.64-.15-2,1.33c.22,1.67.5,3.64.58,4l0,.29.36,13.78.73.06a11.64,11.64,0,0,1,6.54,2.56c1.17,1.06,3.62,1.23,4.45,1.26h.17l.16,0,2.87.66c2.07.48,6.69,3.8,7.6,4.46l.64.47-.17,2.2,5.12,3,1-1.24,9.49-.24-.65,2.88,7.74,10.07c4.15-1.64,4.23-1.64,4.54-1.64.51,0,.83.17,2,1.12l1.4.06,5.75,10.21,0,.43a27.83,27.83,0,0,0-.09,3.24c.55.86,3,4.57,4.92,7.53l5.21-2.35.56,1.68,5.11.57.34.32c.11.11.83.81,3.65,4.23,1.53,1.85,4.19,3,6.32,3.9a11.23,11.23,0,0,1,3.89,2.21c.75.76,5.84,2.32,10.38,3.38Zm58.91-24.19Zm14.33-11h0Zm23-25.11h0ZM56.38,245.93a1.37,1.37,0,0,0,.16.65A1.64,1.64,0,0,1,56.38,245.93Zm9.51.29h0Zm-9.31-11.71h0ZM277.2,214.45ZM281.28,202h0ZM56.81,187.33h0ZM246.1,171.21l.34.51,2.06-.93a1.93,1.93,0,0,1,.61-1.79c.17-.14.65-.6,1-1Zm4.81,0h0Zm1.91-2h0Zm3.39-.21h0Zm18.15-.77h0Zm-5.3,0Zm-131.67-10.3s0,.05,0,.08S137.38,157.93,137.39,157.88Zm-87.14-.6h0Zm27.3-3h0Zm1.82-.41h0Zm24.47-.24Zm18-.65,0,.06Zm-.31-.4Zm-9.6-3,0,.07Zm27.32-1.69Zm-62.41-2.74h0Zm.11-2.68v0Zm74.73-9h0Zm-7.6-13.16a1.26,1.26,0,0,0,.38.06A1.69,1.69,0,0,1,144.07,120.25Zm.09-2ZM181.6,76.7l.42.07A1.31,1.31,0,0,0,181.6,76.7ZM240,70v0Zm-64.09-7.4Zm50.7-5.47,0,0Z"/></svg>