<svg id="Layer_1" data-name="Layer 1" xmlns="http://www.w3.org/2000/svg" viewBox="0 0 350 350"><defs><style>.cls-1{fill:#999;}.cls-2{fill:#f90;}</style></defs><title>M</title><path class="cls-1" d="M338.16,223.68a5.7,5.7,0,0,1-1.12-.4,32.28,32.28,0,0,0,2.14-3c.65-1.16-.47-3.51-.47-3.51a28.54,28.54,0,0,1-3.77-1.59c-.8-.54-.54-.76-.18-1.49a20.9,20.9,0,0,0,.87-2.68l.91-.18a6.84,6.84,0,0,1-.83-2.43,2.31,2.31,0,0,1-1-.62c-.36-.43-2.28-3.26-2.28-3.26l1.41.11c1.41.11.72-.51,1-.62s1.88.29,1.92.14.94-2.14.94-2.14l-4.06-2.43.69-1.16-.54-.47-1,1.52-1.56-.18.18-.91a16.71,16.71,0,0,0-4.13-2.83c-.36-.18-2.07-.33-2.21-.43a22.9,22.9,0,0,1,2.28-2.68,10.1,10.1,0,0,1,.15-1.3A8.68,8.68,0,0,0,328,189c0-.8-.58-.18-.58-.18l3.73-7.64-6.52-2-.69-1.05s-1.27-.51-1.38-.54S320,176.5,320,176.5a11.69,11.69,0,0,1-1.67.58c-.83-.14-1.52.65-1.85.51s-1.74-1.13-1.74-1.13l1.34-2.9,4.64-3.55,1.78-2.43-.11-2,.8-1.59.8-2.43-.58-1.7s-2.39-2.07-2.28-2.1-3.12-1.23-3.12-1.23a16,16,0,0,0-.4-1.78,27.07,27.07,0,0,1-.22-4.67,5.87,5.87,0,0,0-2.32-3.73s-2.61.18-2.93.18a18.53,18.53,0,0,1-2.57-1.34,8.38,8.38,0,0,1-.87.94,2.31,2.31,0,0,1-1.63-.07c-.72-.22-4.2-1.45-4.2-1.45l.72-3.12-.33-1.39-5.69-1.87-.54-1.7s-.29-.15-.4-1.74,1.7-5.36,1.7-5.36a22.75,22.75,0,0,0-3.59-1.7c-.91-.18-3.66-1.27-6.56-2.25-.83,2-1.88,2-1.88,2a9.54,9.54,0,0,0-1.63-.07,9.52,9.52,0,0,0-1.59.76s-2.17.11-2.72-.76a4.27,4.27,0,0,0-.54-2l-1.16-.87s-.11-1-.11-1.12a7.84,7.84,0,0,1,1-.94l0-.11a18.28,18.28,0,0,0-.91-1.88l1-1.7-.43-.47.65-1a4,4,0,0,0-1.16-.94c-.58-.25-2-.65-2.39-.18a17.66,17.66,0,0,1-1.88,1.56l-1.3,2-4-1.52a20.88,20.88,0,0,1-3.37-2.93c-2,.22-3.95-1.85-3.95-1.85s-.58-.33-.65-.65a5.22,5.22,0,0,1,.62-1.59l-6-3.08s-1.52,2.61-1.88,3.33a7.42,7.42,0,0,0-.51,2c-2.39-.11-8.95-4.17-8.95-4.17l-.33-6.88,3.8.18s1-1.88,1.2-2.36-.8-1.12-.8-1.12l.62-2.39-1.78-.83-.58.62a9.16,9.16,0,0,0-2.14-1c.36-1.09-.07-.8-.25-1.78s-2.57-1.12-2.57-1.12a4.51,4.51,0,0,1-1.09.69,7,7,0,0,1-3,.29l-1.2,1.56.25,1c-.87.4-5.33-1-5.33-1l-.47.54-1.78.25s-.51.91-.94,1.52-1.7,0-1.7,0l-3.59-.91s-.33.51-.51.72-.76.25-1,.43-.83.65-.83.65a14.06,14.06,0,0,1-1.3,1.34c-.29.18-.54.47-.69.51a6.68,6.68,0,0,0-1.27.54c-.07.11-.91,1.27-1.3,1.41A20,20,0,0,1,213,103.5c-.62.07-1.27.62-1.56,0a2.8,2.8,0,0,0-.62-1.27l.58-2.39-2.75-1.23s0-4.64,0-4.82,0-.43.58-.8a6.92,6.92,0,0,1,2.54-.25l.69-1.3a6,6,0,0,1-.94-.8c-.22-.29-.8-1.23-.8-1.23s-.76-.4-1-.54.36-1.23.36-1.23l-2-.72-.43-.87-.69,0s-.18.4-.36.94a4.87,4.87,0,0,0-.07,1.56l-.65.91s-.65.18-.76.18-1.45-.47-1.81-.62-1.85-.91-1.85-.91a65.52,65.52,0,0,0,2.46-6.23,5.71,5.71,0,0,0-.11-2.61l1-5.33-6.41-3.19,0-.51a11.66,11.66,0,0,0,1.27-4.46l-.87-.14-.29-.51a13.44,13.44,0,0,1-.11-3.33s-1.85-1.27-2.39-1.56-2.57-1.12-2.57-1.12l-1,1c.25.8-1.92,2.83-1.92,2.83a1.82,1.82,0,0,1-.58.76,12.17,12.17,0,0,0-1.09,1.12s-1.52-1-2.39-1.45c-.14.47-1,1.49-1.23,1.34s.18-1.74.18-1.74L177,57.74l-.69,1.56A25.6,25.6,0,0,1,173,57.92c-1.27-.69-3.19-.58-4.17-1.52s-1.38-1-2.21-1.78a7.5,7.5,0,0,0-2.86-1.49,1.58,1.58,0,0,0-1.52.51,2.38,2.38,0,0,1-1.27-1.2c-.47-.94-6-5.91-6-5.91a2.57,2.57,0,0,1-.43,1A20.36,20.36,0,0,1,153,49.08a9.11,9.11,0,0,0-2.14,2.39,32.23,32.23,0,0,0-3.26,8c-.54,2.43-.83,3.77-.83,3.77l1.67,1,0,.62.8.62s-1.67,2.32-2.36,2.21c-.4-.54-1-.65-1.23,0a1.48,1.48,0,0,1-1.3.83c-.33,0-.72.33-.72.51a3.87,3.87,0,0,1-.62,1.34l-1.85,2.75-4.35,1.38c-.25.07-6.2,2.61-6.2,2.61l-.51-.51h-.47a4.07,4.07,0,0,1-1.23-.65c-.51-.33-2.25-2.14-2.46-2.28s-4.06-3-4.06-3l-3.73,2.28-.8-.22a11.55,11.55,0,0,0-1.92,1.49c-.29.43-1.7,1.88-1.7,1.88l-1.52,3.77-1.92-.91s-.94.36-1.16.4-1.49.51-1.85.58-.87.33-1.52.51a3.29,3.29,0,0,1-1,.18c-.4,0-.91.72-1.16.91s-.91-.4-1.16-.54-1.34-.54-1.34-.54-1.16,2.75-1.2,2.86-.18,1-.29,1.56S99,86,97.58,88.1c1.49,2.39,5.83,4.78,5.83,4.78l-.14.69a4.19,4.19,0,0,0-.22,1.27c0,.51.54,3.26.54,3.26l-2.32.62-.69-2.28-1.78,2.36a24.6,24.6,0,0,1-5,4.57c-1.12-.51-2.1,1.63-2.1,1.63l-1.34.54s-.54,0-1.3,1.81c-2.21-.62-3.15,2.46-3.55,2.93s-2.93,2.32-2.93,2.32l-.25-.29-.54.54-.65-.25-1.7,2.61a18.86,18.86,0,0,0-2.28-.22,18.43,18.43,0,0,1-2.5.33,8.72,8.72,0,0,1-1.67-.33,30.41,30.41,0,0,0-3,1.09,2.18,2.18,0,0,0-.83,1.09l-1.38,1.34,3.15,2.21-.33,1.12c.47.54.11,1.59,0,2s-.51,1.88-.18,2.07.22.91.11,1a48,48,0,0,0-3.26,4.35c-.4.83-2,1.7-2.39,2s-.33,1.05-.58,1.56.87,2,.87,2l1.09.36c-1.05,2.1-5,5.47-5,5.47a11,11,0,0,0,1.63.29c1.16.15.76.72.76.72l-.33.36s.36.62.18.94-.91-.22-.91-.22l-.25,2.1,0,1.27h-.83L61,149.29l.11,1.16-.94.22a40.76,40.76,0,0,0,.14,4.6,9.47,9.47,0,0,1,.54,2.36,7.73,7.73,0,0,0,.91,2.07l-3.84.11-.58-4.49a1.47,1.47,0,0,0-.58-1,1.36,1.36,0,0,0-1.23-.11,3.35,3.35,0,0,0,0,.72c0,.25-.69,0-.69,0s0,.76-.22.91a10.42,10.42,0,0,0-1.85,2,5.06,5.06,0,0,0-.29,1.78c0,.58-.07.87-.07.87a14.92,14.92,0,0,0,1.92,1.23c.33.07,2.9.11,2.9.11l.18.8.4.15a3.7,3.7,0,0,1-.29,1.48c-.33.76.51.91.22.91s-.76,1.2-.76,1.2-1.38-.87-1.49-.87-.36,1.05-.36,1.05l1.38,1.2-.54.43-1.41-1.38s-1.16.94-1.45.69-1.27,0-1.63.11-.15-.51-.15-.51l-1,.15c-.43.07-.72-.33-1.05-.33s-1.05.83-1.23.83-1.67-.51-1.67-.51a5.94,5.94,0,0,1-.58,1,.47.47,0,0,1-.58-.18,19.82,19.82,0,0,0-2-1.49L43,167.92l.65.4s.11.87.11,1a1.53,1.53,0,0,0,.11.65c.11.22.47,0,.83,0s.43-.36.65-.43.69.65.69.76a10.28,10.28,0,0,1-.94,1.27c-.18.22-.58,1.49-.76,1.63a7.48,7.48,0,0,1-1.67.18l.43-1.49-4.71-.36-.07.69s-.18,0-.51.07-1.78.51-1.78.51l.22,3.18s-3.12,1.42-3.22,1.61-.51,1.34-.51,1.34L31,178.46l-1.41-.07-.29-.94a3.25,3.25,0,0,0-1.05-.18c-.58,0-.76-.87-.76-.87s-.43.11-.65.18-3,.47-3,.47a3.69,3.69,0,0,0-.54-.8,6.42,6.42,0,0,0-3.15-.27c-1,.17-.91-.64-.91-.64l-2.5-.8-.4.47s-.87-.14-3.66-.87a13.28,13.28,0,0,1-.91,4.38c-.07.25-.8,2.61-.8,2.61a22.22,22.22,0,0,0-.29,2.25,18.3,18.3,0,0,0,1,3l.72.72a3.52,3.52,0,0,0,1,.74,6.51,6.51,0,0,1,2.17.27c.76.33,2.07,1.36,3.15,1.36h2.39l-.49.92.87,1.09.11,1.79,1.85.43-.92,1.74,3.75,1.36s1.9-.33,2.06-.33,3.21.71,3.15,1.52-.54,1,.22,1.36a6.56,6.56,0,0,1,1,.6l2.12,1.14s.16,1.47,1.2,1.58a11.85,11.85,0,0,1,2.88.92c.22.11-.11,1,.82,1.3a17,17,0,0,1,2.17.76c.16.16.87.71,1.52,1.36a2.74,2.74,0,0,0,2,.87c.6,0,1.74-.16,2-.16s1.36.38.22,1-2.28,1.47-2.28,1.47.71.87.54.92-2.07.82-2.12,1.3-.27.92-.05,1.36a1.38,1.38,0,0,1,.11.87l-.33.27s-1-.6-1.36-.22-.82.85-.82.85a2.4,2.4,0,0,1-1.9,0c-.82-.47-1.3-.69-2.07-1.12a3.75,3.75,0,0,0-1.14-.49l-.94.52a4.46,4.46,0,0,0-2.47.52c-2.42,1.33-4.34,4.48-6.13,6.53-1.23,1.41.82,3.48,2.07,2.07l3.8-4.34c.21-.24.46-.55.73-.85a6.68,6.68,0,0,0,2.24.5c.54-.16.54-.76,1.14-.38a17.47,17.47,0,0,1,2,1.3c.49.43,2.93,2.17,2.93,2.17l1.63-.65a74.83,74.83,0,0,0,6.41,4.35v1.52l1.41,2-.65,1.36.71.57-.71.9.71.33-.49,1.14,3.32,1.2.22-.92s1.74,1,2.66.54l.92-.49.82,1.09,1.63-.43a54,54,0,0,0,3.15,5.82c1,1.36,1.63,1.3,2,2s.92,2,.92,2,1.3-.16,1.74-.16a4,4,0,0,0,.71-.05,14.66,14.66,0,0,0,.76-3.53,51.76,51.76,0,0,1,.92-7c.33-1,.38-1.25.38-1.25s.27,1.36,1.14.87.87-.71,1.25-.54,1.14,1.41,1.58,1.41a1.91,1.91,0,0,0,.87-.27s.71,1.47,1.25,1.63,1.47.54,1.47.54-1.25,1-.43,1.79,1.14,1.31,1.2,1.85a2.39,2.39,0,0,0,.65,1.41,3.71,3.71,0,0,1,.54,1c.11.16,2.88,1.52,2.88,1.52a20,20,0,0,1,.92-2.45,50.11,50.11,0,0,1,4.84-2.39,17.89,17.89,0,0,1,5.43.92c2,.82,3.86,1.58,3.86,1.58s-1.36,1.3-.82,1.74a8.14,8.14,0,0,0,1.68.87,5.53,5.53,0,0,1,.76-1,10.79,10.79,0,0,1,1.74.6l.54-.11a3.6,3.6,0,0,0,.92.54,5.84,5.84,0,0,1,1.14.65s1.2,2,1.2,2.12.27,1.9.27,1.9l.33,1.58.54.27a1.67,1.67,0,0,1,1-.76c.82-.27,1.3-.49,1.52-.38s.87-.65,1.3-.54,2,.11,1.79-.22-.87-1.41-.49-2,.11-1,.82-1.41,1.52-1,2-1.36,5,.22,5,.22a6.27,6.27,0,0,0,.92-1.41c.11-.43.16-2.12.22-2.83a13.58,13.58,0,0,0-.71-2.93l3.15-3.7s-2.72-.76-2.5-1.41l.22-.65.87-.82a17.25,17.25,0,0,1,2.07-5.33l.33-1.63s2.23-4.18,2.5-4.78a8.37,8.37,0,0,0-1.74-1l-.33-.92s-1.09-.22-1.47-.33a10,10,0,0,1-1.68-1.36s-.54-.11.22-1.41.87-1,.87-2A2.51,2.51,0,0,0,122,210s.33-1.3.49-1.3a10.62,10.62,0,0,0,2.77-.71,11.06,11.06,0,0,0,1.52-.92s3.42-.65,4.18-1.9c.71-2,1.9-4.35,1.9-4.35l-.16-1.3L131,196.23l2.72-4.18-.43-1.2a17.14,17.14,0,0,1,1-2.39,10.92,10.92,0,0,0,1.14-2c.22-.54.54-1.41.54-1.41s1.79-.33,2.12.33-.27,1,.82,1.52a6.62,6.62,0,0,0,2.55.49,10.55,10.55,0,0,1,2.34.33c.49.22,1.85.65,1.85.65l.87-.54,7.28,2.28,1.41.33s-.6-2.45.11-3.8,1-2,1-2v-3a2.42,2.42,0,0,0,1.63-1.3,6,6,0,0,0,.54-1.63l4.08-2.8a17,17,0,0,0,3.15-.4c1.09-.33,2.39-1.25,2.72-1.25a10.07,10.07,0,0,0,1.58-.43l.07-1a3.35,3.35,0,0,1,.91.64c1.13,1.19.93,2.88,1.12,4.35a25.9,25.9,0,0,0,2,7.93c.91,1.82,2.61,1.93,4.27,1.35l-.09.15a7.8,7.8,0,0,0,2.12,1c.87.16,1.25.16,1.47.38s.87,1,.87,1l-.6,1.68s2.72,1.36,2.93,1.58,1,1.25,1,1.25a7.35,7.35,0,0,0-.38,1.36c0,.33.38.54-.22,1.36a10.55,10.55,0,0,0-1,1.9c-.22.38-1.09.6-1.36.76s-1.09.87-1.09.87-.6,2-.87,2.77l-.27.82s1.79,1.85,2.45,2a11.18,11.18,0,0,1,1.41.38c.22.05,1.14.71.87,1.09s-.33,1.47-.82,2a2.07,2.07,0,0,0-.71,1.47,3.68,3.68,0,0,0,.22,1.41c.16.38.43,1,.87,1.09s.82-.16,1.2.11a13.68,13.68,0,0,1,2.72,2.5c.54.87.76,1,.65,1.63s-1.41,1.14-2.45,1.14a5.38,5.38,0,0,0-2.83,1c-.16.27-.43.92-.33,1.14a2.65,2.65,0,0,0,1.9,1.63,9.31,9.31,0,0,1,2.93.82c.54.38.65,1.2,1.58,1.58s2.83.87,3.48,1.09,1.25.87,1.58.6.16-.33.82-.87a9.51,9.51,0,0,1,2.17-1.09l.11-1.36,2.23-.11a8.43,8.43,0,0,1,1.2-1.41c.49-.38.82-.43,1-.27s2,.87,2,1.63-.54,1.14.27,1.36a20.84,20.84,0,0,0,3.64.05c.38,0,.76,1,2.23,1s3.48-.11,3.8-.16a8.6,8.6,0,0,0,1.2-.43s2,1.17,2.17,1.38a1.48,1.48,0,0,1,.43,1.07c.05.6-.11,2.23.87,2.17a4.61,4.61,0,0,0,2.12-.65,2.28,2.28,0,0,1,1.41-.49c.71,0,1.36.2,2.07-.36a4.79,4.79,0,0,1,2-1.16c.87-.22.82-.51,1.52-.58s3.15,0,3.8,0a5,5,0,0,1,1.58.53,3.29,3.29,0,0,0,1.41,1.74,3,3,0,0,1,1.36,1.52l1.85-1.58s3.21,2.5,3.37,2.83a3.55,3.55,0,0,1,.22,1s-2.5,1.36-1.47,3.48a5.27,5.27,0,0,1,.6,3.59,5.35,5.35,0,0,1-.43,1.47s-1.14-.16-1.25.27a20.89,20.89,0,0,0,.11,2.28,10.47,10.47,0,0,1-.16,1.85,3.67,3.67,0,0,0-.05,1l.05.54a6.74,6.74,0,0,1-.49,1.52c-.22.27-1.25,1-1.85,1.68s-1.52,2.07-1.9,2.5-1,.43-.87,1a2.67,2.67,0,0,0,.43.87l3,2.07-.11.92,3.1,1a3.07,3.07,0,0,1,.33-1.52c.38-.65,1-1.9,1-1.9a22.48,22.48,0,0,0,3.48-.27,3.65,3.65,0,0,1,.92-.27l2.39,1.38s-.22,7-.16,7.16.22.43.82.81.71-.22.87.6.22,1.63.76,2,.43.82.87,1,.81.49.6,1.09a2.29,2.29,0,0,0-.27,1.52c.16.49-.11,1-.43,1.68s-1,2-1,2a6.48,6.48,0,0,1,2,1.63,22.93,22.93,0,0,0,1.85,2.34s3.86-.6,4.24.05.22,1.25.22,2.12.05,1.52.05,2-.38.38-.6.87-.27.87-.54,1.58a3.5,3.5,0,0,0-.16,1.51,9.43,9.43,0,0,1,1.14,1.31c0,.16-2,3.1-1.41,3.1a11.88,11.88,0,0,0,1.85-.33s3-3.15,3.48-3.75,1.47-.49,1.74-1.14a4.2,4.2,0,0,1,.49-.92,42,42,0,0,1,4.67-.05,21.35,21.35,0,0,1,4,1.41c.49.38,0,1.68,0,1.68l-1.63-.11a6.78,6.78,0,0,0-.87,1.68c0,.38-.05,1.9-.05,1.9s.43,1.52,1.3,1.79a6.77,6.77,0,0,1,1.47.65,5.21,5.21,0,0,1,.27,1.9,20.83,20.83,0,0,1-.82,2.66c-.33.6-.54,1.9-.71,2.12s.71.92.76,1.52,0,2.39,0,2.39l6.05-.69s.07-2.9.29-5.8.29-3.51.29-3.51a11.38,11.38,0,0,1,.14-2.07c.18-1.05.65-3.44.65-3.44,2.5-8.77,2.68-8.66,4.13-9.53l12.61-1.16,3-2.14.91-3.22-2.72-2.83v-5.51a42.12,42.12,0,0,0-.54-4.42l3.12-2.32s-3.48-1.81-4.35-2.39-2.07-.22-2.79-.11-3.37,0-3.37,0,.18-2.36.51-3.95,2.61-4.89,2.61-4.89,1.27-2.5,1.63-3.08a9.38,9.38,0,0,1,2.46-1.56s.11.58.47,2c.8-.18,6,1.34,6,1.34a18.8,18.8,0,0,1,.62-2A4.12,4.12,0,0,0,306,241a11.26,11.26,0,0,0,1.56-.65c1.05-.51.8-.4.87-2.5A16.24,16.24,0,0,0,308,234a23.64,23.64,0,0,1,.72-4.6,7.6,7.6,0,0,1,1.85-3.33,8.18,8.18,0,0,0,2-3.33c0-.65.8-1.23,1.63-1.67s3.08.25,3.08.25a3.24,3.24,0,0,1,.94-.72c.33-.07.65-.69.65-.69l2.75,2.14a19.78,19.78,0,0,0,1.41,2.57c.36.36,1,0,1,0l-.11,2.68a25.47,25.47,0,0,0,2.9,1.38,29.7,29.7,0,0,1,3.44-.33,3.58,3.58,0,0,0,2.21-.29,4,4,0,0,1,2.5,0l4.44-1.23v-1.05S338.59,223.75,338.16,223.68Z"/><path class="cls-2" d="M272.6,305.05l0-1.64c0-.65,0-1.69,0-2.12-.05-.09-.16-.24-.23-.33a1.91,1.91,0,0,1-.37-2.11c0-.11.08-.27.12-.44a7.76,7.76,0,0,1,.58-1.66,12.11,12.11,0,0,0,.49-1.61c.07-.28.14-.53.19-.71a4.12,4.12,0,0,0-.1-.61,5.69,5.69,0,0,0-.68-.26c-1.49-.46-2.09-2.23-2.25-2.76l-.06-.22v-.22s.05-1.48.05-1.85,0-.81,1.11-2.47l.21-.32c-.67-.22-1.34-.42-1.69-.5s-2,0-3.5,0l0,.09a2.6,2.6,0,0,1-1.69,1.4l-.27.11c-.57.73-2.84,3.1-3.55,3.83l-.28.29-.39.1a11.83,11.83,0,0,1-2.19.37h-.82l-.49-.75c-.51-.89-.06-1.77,1-3.62l-.45-.46-.33-.34-.06-.47a4.84,4.84,0,0,1,.24-2.21c.12-.3.19-.53.25-.74a7.39,7.39,0,0,1,.32-.9,2.4,2.4,0,0,1,.46-.69v-.19c0-.38,0-.83,0-1.36,0-.24,0-.46,0-.66s0-.25,0-.34a18.53,18.53,0,0,0-2.86.23l-.76.12-.51-.58a23.16,23.16,0,0,1-2-2.55,5.22,5.22,0,0,0-1.47-1.11l-1.27-.69.71-1.26s.68-1.21,1-1.85l.1-.21c.09-.18.2-.42.24-.56a2.91,2.91,0,0,1,.14-1.83,2.21,2.21,0,0,1-.73-.87l0,0a3.27,3.27,0,0,1-1.26-2.35,2.42,2.42,0,0,1-.33-.18,3.1,3.1,0,0,1-1.39-1.54c-.11-.3-.14-.39.06-6.82l-1.17-.67-.13.05c-.19.08-.65.29-3.19.37-.22.4-.48.89-.67,1.22a1.68,1.68,0,0,0-.14.73l.09,2-6.14-1.92.15-1.24-2.45-1.69-.12-.15a4,4,0,0,1-.7-1.37,1.85,1.85,0,0,1,1-2.26l.15-.09c.1-.12.33-.44.58-.79a20.39,20.39,0,0,1,1.31-1.7,15,15,0,0,1,1.33-1.23l.4-.34c.06-.18.15-.49.22-.78l0-.31a5,5,0,0,1,.08-1.48h0a9.43,9.43,0,0,0,.13-1.54,10.6,10.6,0,0,0-.08-1.11,4.25,4.25,0,0,1,0-1.51,1.81,1.81,0,0,1,1.63-1.34.65.65,0,0,0,0-.09,3.92,3.92,0,0,1,0-.48,3.7,3.7,0,0,0-.5-2.45,3.8,3.8,0,0,1,1-4.57c-.42-.37-1.11-.93-1.82-1.5l-2.56,2.19-.67-2h0a1.56,1.56,0,0,0-.67-.71,4.47,4.47,0,0,1-1.84-1.93,2.39,2.39,0,0,0-.58-.17c-.65,0-3-.06-3.58,0l-.14.05a4,4,0,0,1-1.19.49,3.16,3.16,0,0,0-1.34.79l-.13.11a3.45,3.45,0,0,1-2.59.68l-.35,0a.87.87,0,0,0-.59.23,6.06,6.06,0,0,1-2.87.91,2.07,2.07,0,0,1-1.51-.53,3.56,3.56,0,0,1-.84-2.65c0-.11,0-.21,0-.28a1.63,1.63,0,0,0,0-.18c-.23-.16-.75-.48-1.3-.82a5,5,0,0,1-.84.25c-.5.08-2.69.18-4,.18a3.77,3.77,0,0,1-2.63-1,14.4,14.4,0,0,1-3.6-.12,2,2,0,0,1-1.27-.9,1.88,1.88,0,0,1-.11-1.51,7.81,7.81,0,0,0-.77-.45,9.32,9.32,0,0,0-.78,1l-.4.58-1.69.08-.08,1-.86.31a7.8,7.8,0,0,0-1.74.84,1.38,1.38,0,0,0-.3.3,2.49,2.49,0,0,1-.51.57,2.06,2.06,0,0,1-2.51-.11,2.83,2.83,0,0,0-.42-.23l-.93-.28c-.87-.25-1.95-.56-2.63-.84a3.66,3.66,0,0,1-1.69-1.49,1.62,1.62,0,0,0-.18-.25,9.64,9.64,0,0,0-1.87-.46l-.5-.1a4,4,0,0,1-2.88-2.36,2.83,2.83,0,0,1,.37-2.53c.56-.93,2.88-1.72,4-1.72a2.59,2.59,0,0,0,.87-.17l-.28-.43a11.71,11.71,0,0,0-2.12-1.94,2.6,2.6,0,0,1-.94,0,3,3,0,0,1-1.83-1.9,4.89,4.89,0,0,1-.33-2,3.47,3.47,0,0,1,1.07-2.41,3.7,3.7,0,0,0,.23-.69l.05-.2a6.47,6.47,0,0,0-.93-.24c-.28,0-1.11-.19-3.23-2.37l-.6-.62.54-1.63c.27-.81.86-2.74.86-2.74l.12-.39.31-.27a13,13,0,0,1,1.29-1A4.28,4.28,0,0,1,183,198l.35-.15.05-.13a7.69,7.69,0,0,1,.93-1.74v0a2,2,0,0,1-.07-.5,3.63,3.63,0,0,1,.21-1.1l-.34-.44c-.38-.23-1.6-.87-2.62-1.37l-1.12-.56.74-2.09-.11-.12-.27,0-.61-.11a7.67,7.67,0,0,1-2.21-.92,4.31,4.31,0,0,1-5.1-2.31,26.84,26.84,0,0,1-2.11-8.37c0-.37-.08-.75-.1-1.14a8.05,8.05,0,0,0-.22-1.63,9.35,9.35,0,0,1-1.71.47l-.5.27a11.37,11.37,0,0,1-2.06.94,15.81,15.81,0,0,1-3.09.44l-3.29,2.26a10.07,10.07,0,0,1-.51,1.36,3.64,3.64,0,0,1-1.51,1.66v2.39l-.17.31s-.33.61-1,2a5.38,5.38,0,0,0,0,2.82l.53,2.23-3.75-.87-6.66-2.09-.87.54-.63-.2c-.24-.08-1.46-.47-2-.71a10.62,10.62,0,0,0-1.49-.18l-.4,0-.31,0a7,7,0,0,1-2.7-.59,2.32,2.32,0,0,1-1.46-1.51l-.12.31a12.2,12.2,0,0,1-1.32,2.27c-.12.22-.38.9-.61,1.54l.5,1.38-2.65,4.09,1.42,2.75.25,2-.19.38s-1.17,2.34-1.84,4.2l-.12.26c-.92,1.51-3.63,2.24-4.82,2.5a12.75,12.75,0,0,1-1.46.86,9.88,9.88,0,0,1-2.34.71,4.48,4.48,0,0,1,.25,1.5,2.69,2.69,0,0,1-.57,1.92,9,9,0,0,0-.49.75l0,.07a10.18,10.18,0,0,0,.79.66c.42.11,1.23.27,1.24.27l.79.16.4,1.13a11.79,11.79,0,0,1,1.44.91l.93.68-.48,1c-.26.57-2,3.79-2.44,4.68l-.35,1.74-.19.26a15.4,15.4,0,0,0-1.81,4.77l-.09.43-.48.45c.31.12.66.24,1,.33l2.14.6-4.08,4.78a9.18,9.18,0,0,1,.53,2.73c0,.21,0,.5,0,.82a15.14,15.14,0,0,1-.21,2.24,6.1,6.1,0,0,1-1.21,2l-.49.59-.76-.09A34,34,0,0,0,115,245l-.31.22a16.27,16.27,0,0,1-1.49,1,3.38,3.38,0,0,1-.28.77,2.89,2.89,0,0,0,.34.68,1.5,1.5,0,0,1,0,1.71c-.63.9-2.16.83-2.89.74l-.09.06a2.1,2.1,0,0,1-1.45.46l-.43.15-.47.16a.83.83,0,0,0-.24.12l-.55,1.23-2.48-1.25-.46-2.25c-.16-1-.24-1.54-.27-1.83s-.51-.91-.86-1.48a3.92,3.92,0,0,0-.51-.3,3.36,3.36,0,0,1-.82-.39l-.37.07-.4-.16-.67-.27-.08.13-.61,1-1.1-.42a9,9,0,0,1-2.07-1.09,1.75,1.75,0,0,1-.66-1.3,2.19,2.19,0,0,1,.17-.9L93.74,241a16.22,16.22,0,0,0-4.7-.81c-.71.29-3,1.49-4,2-.17.42-.44,1.21-.65,1.86l-.5,1.55-1.47-.72c-3.12-1.53-3.21-1.67-3.44-2a2.14,2.14,0,0,1-.25-.52,1.13,1.13,0,0,0-.22-.41,3.81,3.81,0,0,1-1-2.16c0-.07-.1-.3-.79-1a2.26,2.26,0,0,1-.68-1.76,2.23,2.23,0,0,1,0-.3,3.3,3.3,0,0,1-1.31-1.23h-.2a2.65,2.65,0,0,1-1.92-1.18l-.21.13a2.15,2.15,0,0,1-1,.29c-.26,1.42-.6,4.34-.7,5.9A16.06,16.06,0,0,1,70,244.6l-.27.75-.78.16a5.34,5.34,0,0,1-1,.08c-.21,0-1,.08-1.56.15l-1.07.13-.42-1c-.14-.35-.58-1.36-.86-1.88,0,0-.06-.07-.28-.24a7.33,7.33,0,0,1-1.61-1.59,40.94,40.94,0,0,1-2.79-5l-1.42.38-.67-.89a3.34,3.34,0,0,1-2.18.08l-.2.85-6.22-2.25.54-1.26-1.08-.5.95-1.21-.49-.39.77-1.61-1.19-1.64v-1.14c-1.41-.84-3.73-2.51-5.2-3.58l-1.62.65-.63-.45c-.42-.3-2.54-1.81-3.06-2.27a10.63,10.63,0,0,0-1.25-.84,2.19,2.19,0,0,1-.5.22,3.79,3.79,0,0,1-2.18-.22l-.13.16L31,223.14l-1.26,1.44a2.69,2.69,0,0,1-3.88.24,2.93,2.93,0,0,1-.32-4.17c.47-.53,1-1.16,1.47-1.82,1.43-1.84,3-3.92,5.05-5a5.8,5.8,0,0,1,2.81-.71l.58-.32.42-.24.48.07a5,5,0,0,1,1.64.66l.92.5c.35.18.71.37,1.16.63a.93.93,0,0,0,.43,0c.15-.15.34-.35.5-.53a1.75,1.75,0,0,1,1.15-.61,4.42,4.42,0,0,1,.1-.64,2.61,2.61,0,0,0,0-.27,2.58,2.58,0,0,1,1.42-1.75l-.49-.6,1.09-.78A4.29,4.29,0,0,1,42.41,208c-.4-.4-.83-.76-1.12-1l-.22-.19-.74-.24-1.09-.35a2.33,2.33,0,0,1-1.54-1.61,8.72,8.72,0,0,0-1.83-.54,2.76,2.76,0,0,1-2.29-2l-1.76-1h0a7.23,7.23,0,0,0-.78-.44,1.85,1.85,0,0,1-1.13-2.19,10.5,10.5,0,0,0-1.66-.53l-1.77.29-.37.06-5.64-2,.83-1.56-1.08-.25-.15-2.4-.9-1.13h-.48a6.32,6.32,0,0,1-3.05-1.11,6.93,6.93,0,0,0-.66-.36,5.33,5.33,0,0,0-1.56-.16h-.31l-.28-.12a4.86,4.86,0,0,1-1.5-1.05l-.93-.93-.11-.27a12.74,12.74,0,0,1-1.08-3.54,20.58,20.58,0,0,1,.31-2.49l0-.17s.72-2.33.79-2.58l.09-.28a10.3,10.3,0,0,0,.76-3.63l-.12-2,1.89.49c1.33.35,2.21.56,2.77.68l.46-.55,4.49,1.43,0,.18c1.08,0,2.85,0,3.56.73a3.22,3.22,0,0,1,.24.27c.92-.14,1.78-.27,2-.31s.67-.19.67-.19l1.44-.37.25,1.23a4.48,4.48,0,0,1,1,.24l.64.25.2.65.75.08.32.1a2.34,2.34,0,0,1,.16-.32c.21-.36.31-.54,3-1.77l-.23-3.31,1.05-.34c.59-.19,1.06-.33,1.42-.43l.11-1,5.39.41a3,3,0,0,1-.18-1.11l0-.16-.81-.5.37-4.6,2,1.32c.55.37,1,.65,1.29.89l.38-.8,1.19.41.91.3a2.39,2.39,0,0,1,1.53-.7,2.14,2.14,0,0,1,1.06.31l.78-.11,2.25-.3-.21.63h0a5.19,5.19,0,0,0,.44-.32l.3-.24c.24-.73.63-1.38,1.54-1.38a1.24,1.24,0,0,1,.58.12,2.36,2.36,0,0,1,.15-.49h0l-.1-.46a12.17,12.17,0,0,1-2.07-.12c-.23,0-.61-.13-2.44-1.47l-.68-.49.1-.83s0-.29.06-.78v-.21a5.62,5.62,0,0,1,.39-2A9.23,9.23,0,0,1,53.33,155c0-.06,0-.12,0-.16l.09-1.9.76.27v0l.73-.31a2.73,2.73,0,0,1,2.62.27,2.87,2.87,0,0,1,1.16,2.07l.41,3.12h.4a3.11,3.11,0,0,1-.12-.56A11.87,11.87,0,0,0,59,156c-.24-.37-.37-1-.33-5.33v-1.12l.82-.19,0-.2.74-2.51.52,0,.31-2.58-.41-.1-2.47-.76,2-1.67A35.31,35.31,0,0,0,64,137.73l-.08-.1c-1.67-2.15-1.18-3.14-1-3.46a1.79,1.79,0,0,0,.08-.33,2.61,2.61,0,0,1,.94-1.74l.44-.29a5.67,5.67,0,0,0,1.51-1.18,38.31,38.31,0,0,1,3.08-4.2,4.46,4.46,0,0,1,.19-3.1,2.73,2.73,0,0,0,.18-.71l-.39-.45.26-.89-3.72-2.61,2.4-2.33a3.38,3.38,0,0,1,1.33-1.51,26.38,26.38,0,0,1,3.32-1.21l.41-.12.41.12a7.52,7.52,0,0,0,1.27.27,19.24,19.24,0,0,0,2.12-.27c.19-.07.4-.14,2,.06l1.84-2.82.86.33,1-1,.39.45c.74-.56,1.4-1.08,1.62-1.29l.15-.3c.46-.91,1.57-3.08,3.65-3.24a3.29,3.29,0,0,1,1.73-1.67l.75-.3a3.5,3.5,0,0,1,2.75-2,21.28,21.28,0,0,0,4.27-3.92l1.78-2.37,1.68-2.2.5,1.66v-.1a4.57,4.57,0,0,1,.16-1.36c-1.46-.9-4.18-2.74-5.42-4.73l-.49-.79,1.27-1.85a14.06,14.06,0,0,0,1.1-1.7c0-.23.1-.54.15-.83.08-.44.16-.81.18-.89s.05-.16,1.23-3l.52-1.25,1.27.46a14.09,14.09,0,0,1,1.55.64l.16.1a2.33,2.33,0,0,1,1.33-.64l.21,0a2.13,2.13,0,0,0,.52-.12c.28-.08.53-.17.75-.26a5.77,5.77,0,0,1,.87-.28c.18,0,.55-.17.89-.29a7.23,7.23,0,0,1,1-.3c.19-.05.88-.32.88-.32l.57-.22,1.11.53,1.06-2.63.2-.2c.62-.64,1.39-1.47,1.54-1.68a8.86,8.86,0,0,1,2.33-1.89l.53-.34.82.22,4-2.47.77.58c1.43,1.08,3.78,2.85,4,3a8.55,8.55,0,0,1,1,.89c.4.39,1.24,1.21,1.47,1.38s.5.32.68.42h.83l.25.25c5.17-2.2,5.39-2.26,5.48-2.29l3.83-1.21,1.57-2.34a3.94,3.94,0,0,0,.39-.75,2.25,2.25,0,0,1,2-1.72l.18,0a2,2,0,0,1,1.5-1.23A2,2,0,0,1,147,66l.25-.27-.17-.13,0-.52-1.89-1.15.21-1s.29-1.34.84-3.78a33.05,33.05,0,0,1,3.47-8.46A10.56,10.56,0,0,1,152.1,48a9,9,0,0,0,1-1l.38-.4a2.92,2.92,0,0,0,.12-.36l.56-2.31,1.77,1.59c2.6,2.35,5.81,5.35,6.3,6.32l.05.09a2.72,2.72,0,0,1,1.87-.13,8.85,8.85,0,0,1,3.42,1.8,7.4,7.4,0,0,0,.82.64,10.74,10.74,0,0,1,1.42,1.16,4.16,4.16,0,0,0,1.63.57,8.52,8.52,0,0,1,2.23.73,17.35,17.35,0,0,0,1.93.84l.82-1.86,9.1,5.8,0-.1,1.48.8c.45.22,1,.57,1.53.88l.4-.37a1,1,0,0,0,.15-.15l.05-.46.33-.11a9.48,9.48,0,0,0,1.44-1.67l-.17-.53,2.32-2.23.86.35c.35.14,2.13.88,2.7,1.18s2.21,1.42,2.53,1.64l.66.46-.05.8a21,21,0,0,0,0,2.48l1.39.23L201,66a14.41,14.41,0,0,1-1,4.11l6.32,3.14-1.16,6.07a7,7,0,0,1,0,3,44.32,44.32,0,0,1-2,5.27l.54.25c.24.1.85.31,1.24.44h0a4.88,4.88,0,0,1,.17-1.59c.21-.62.42-1.08.42-1.08l.36-.78,2.48-.13.59,1.19,3,1.08-.7,1.33.3.16.2.33c.26.43.61,1,.72,1.13a6.93,6.93,0,0,0,.62.49l1,.72-1.69,3.21-.91,0a9.4,9.4,0,0,0-1.62,0c0,.77,0,2.44,0,3.49l3,1.34-.71,2.92.1.18.38-.07c.2-.06,1-.54,1.44-.77s.67-.38.88-.47a7.66,7.66,0,0,0,.77-.94,3.84,3.84,0,0,1,1.84-1.05h0a4.68,4.68,0,0,1,.54-.41c.08-.07.57-.59,1-1.07l.21-.19s.58-.44.79-.62a2.52,2.52,0,0,1,.95-.46l.25-.38.55-.86,4.85,1.25.18.07c.31-.49.6-1,.61-1l.34-.61,1.95-.28.74-.85.89.28c1.14.36,2.34.67,3.24.86l2-2.55.79.08a5.64,5.64,0,0,0,2.19-.13,8,8,0,0,0,.74-.44l.37-.46.73,0c1.05.06,3.54.41,3.88,2.28a.68.68,0,0,0,.1.28,2.33,2.33,0,0,1,.3.84l.33.15.52-.56,3.77,1.77-.69,2.68a2,2,0,0,1,.53,2.13c-.2.51-1,2.06-1.27,2.52l-.42.79-3.14-.15.22,4.57a44.21,44.21,0,0,0,6.47,3.28,5,5,0,0,1,.34-.88c.37-.74,1.77-3.14,1.93-3.41l.68-1.16,8.5,4.35-.69,1.28c-.09.16-.18.35-.26.51l.09.09c.38.4,1.71,1.53,2.76,1.4l.73-.08.49.55a19.3,19.3,0,0,0,3,2.61l2.8,1.06.82-1.23.2-.15a16,16,0,0,0,1.64-1.33c1.16-1.37,3.57-.41,4-.2a5.28,5.28,0,0,1,1.68,1.33l.67.8-.62,1,.4.43-1.11,1.93c.72,1.4.82,1.75.63,2.3l-.16.48-.3.26-.34.3.79.59.14.24a5.85,5.85,0,0,1,.68,1.91,4.83,4.83,0,0,0,1,.12,6.59,6.59,0,0,1,1.72-.74,7.27,7.27,0,0,1,1.74,0,2.69,2.69,0,0,0,.72-1.12l.5-1.23,1.26.42c1.17.4,2.32.81,3.33,1.17,1.34.48,2.61.94,3,1a20.7,20.7,0,0,1,4,1.86l1.15.65-.57,1.19a15.3,15.3,0,0,0-1.57,4.65,7.37,7.37,0,0,0,.09.8l.06,0,.51,1.58,5.76,1.9.58,2.48-.51,2.2c1.13.4,2.54.89,2.94,1a3.18,3.18,0,0,0,.54.12l.45-.52.77-1,1.05.63c.73.44,1.65.95,2,1.13l2.64-.17.51,0,.41.29a7.16,7.16,0,0,1,2.91,4.77v.12a27.29,27.29,0,0,0,.15,4.24,9.56,9.56,0,0,1,.29,1.16c2.27.85,3,1.15,3.21,1.64.4.37,1.19,1.08,1.88,1.67l.29.25.86,2.52-1,3.07-.63,1.26.12,2.12-2.19,3-4.52,3.46-.69,1.49.11.07a3.23,3.23,0,0,1,1.54-.39,10.86,10.86,0,0,0,1.2-.42l.57-.27.6.24s2.25,1,2.53,1.06c0,0,0,0,1.43.56l.41.17.65,1,7.62,2.33-3.87,7.92a2.24,2.24,0,0,1,.13.78,5.49,5.49,0,0,1-.46,2,3.31,3.31,0,0,0-.15.41,8.37,8.37,0,0,0-.12,1.07l0,.53-.36.38-.72.77.25.1a17.75,17.75,0,0,1,4.54,3.13l1.06-1.6,2.65,2.3-.57,1,3.93,2.35-.52,1.15c-.36.8-.79,1.75-.88,2-.36,1.19-1.59,1-2.38.92a1.73,1.73,0,0,1-.61.39c.35.5.61.86.7,1a1.08,1.08,0,0,0,.32.16l.83.25.17.86a8.66,8.66,0,0,0,.46,1.68l2.13,1.8-2.92.59a16.4,16.4,0,0,1-.68,2c.67.33,2,.85,3.09,1.24l.55.2.25.53c.34.71,1.37,3.15.43,4.82a21,21,0,0,1-1.17,1.77,6.91,6.91,0,0,1,1.46,2.61l.09.24v2.39l-5.9,1.64-.42-.14a2.59,2.59,0,0,0-1.5,0,4.4,4.4,0,0,1-2.43.42l-.38,0a17.9,17.9,0,0,0-2.36.21l-.86.11-.36,0-.34-.14a26.58,26.58,0,0,1-3.08-1.46l-.73-.43.08-2.12a2,2,0,0,1-.54-.39,9.84,9.84,0,0,1-1.54-2.66l-1.49-1.16-.29.13a4,4,0,0,0-.4.37l-.6.63-.84-.25a6.18,6.18,0,0,0-2.09-.32,2.68,2.68,0,0,0-.8.58c-.07.63-.42,1.74-2.26,4a6.22,6.22,0,0,0-1.58,2.81,25,25,0,0,0-.68,4.1c0,.12.05.3.1.51a13.51,13.51,0,0,1,.34,3.48c0,.39,0,.7,0,1,0,1.54-.23,2.09-1.65,2.78l-.86.39a3,3,0,0,1-.3.91c-.06.15-.31,1-.48,1.69l-.36,1.42-1.41-.41a41.63,41.63,0,0,0-5.36-1.3l-1.25.28-.34-1.33-.06-.22a2.83,2.83,0,0,0-.34.25c-.28.47-1.07,2-1.53,2.91l-.1.17a19,19,0,0,0-2.38,4.37c-.14.69-.25,1.55-.34,2.27a13.81,13.81,0,0,0,1.6,0l.33-.06a4.53,4.53,0,0,1,3.46.39c.66.44,3.27,1.82,4.22,2.31l2,1-4.24,3.15a32.05,32.05,0,0,1,.42,3.8v4.94l2.88,3L302.47,276l-3.73,2.65-.38,0-12.29,1.13c-.76.48-1.08,1-3.2,8.48-.07.37-.47,2.41-.63,3.35a10.06,10.06,0,0,0-.12,1.77v.22s-.08.67-.28,3.45-.29,5.7-.29,5.73l0,1.23Zm2.24-5.6a3,3,0,0,1,.64,1.48c0,.23,0,.57,0,.93l3.23-.37c0-1.12.12-2.87.25-4.63.17-2.3.26-3.19.28-3.47a12.87,12.87,0,0,1,.17-2.25c.18-1.06.66-3.48.66-3.48l0-.11c2.39-8.38,2.74-9.15,4.65-10.28l.4-.24.32,0,12.22-1.12,2.29-1.63.55-2L298,269.65v-6.08a38.91,38.91,0,0,0-.52-4.18l-.15-.86,2-1.5c-1-.52-2-1.11-2.49-1.41-.25-.17-.92,0-1.37,0l-.43.07a31.93,31.93,0,0,1-3.62.05l-1.49,0,.11-1.48a40.81,40.81,0,0,1,.53-4.12c.35-1.72,2.26-4.59,2.78-5.33.25-.5,1.29-2.53,1.65-3.1a7.54,7.54,0,0,1,3.07-2.09l1.65-.77.34,1.79s.06.31.21.93a37.24,37.24,0,0,1,3.86.91,5.92,5.92,0,0,1,.32-.89,4.48,4.48,0,0,0,.08-.67l0-1,1-.28h0a11,11,0,0,0,1.33-.56l.05,0v-.21c0-.27,0-.61,0-1a10.89,10.89,0,0,0-.29-2.8c-.07-.32-.12-.58-.14-.79a23.52,23.52,0,0,1,.76-5.12,9,9,0,0,1,2.11-3.86,8,8,0,0,0,1.65-2.55c.06-1.06.86-2,2.39-2.82a5.28,5.28,0,0,1,3.35-.06,3.16,3.16,0,0,1,.67-.42l.05-.08.79-1.49,4.35,3.38.14.3c.28.59.64,1.29.89,1.76l1.78-.89-.19,4.2c.4.2,1,.47,1.65.76l.46-.06a19.86,19.86,0,0,1,2.84-.23l.48,0a1.75,1.75,0,0,0,1.12-.21,5.16,5.16,0,0,1,3-.16l2.92-.81a9.57,9.57,0,0,0-.42-.86,8,8,0,0,1-1-.4l-1.61-.76,1.1-1.4a29.91,29.91,0,0,0,2-2.86,3.59,3.59,0,0,0-.3-1.7,21.48,21.48,0,0,1-3.5-1.54,2.09,2.09,0,0,1-.76-3.08l.11-.21a18.66,18.66,0,0,0,.77-2.4l.22-.86h.07l-.09-.38a3.19,3.19,0,0,1-.86-.71c-.38-.45-1.91-2.7-2.37-3.37l-1.66-2.44,4,.31a1.59,1.59,0,0,1,.61-.48,2.85,2.85,0,0,1,1.58,0l0-.07-2.73-1.63-3.64-.42.33-1.67a19.24,19.24,0,0,0-3.16-2c-.19,0-.68-.12-1-.16a3,3,0,0,1-1.54-.44l-.5-.38-.06-.64c0-.07,0-.14,0-.2L322,196.62,329.16,182l-5.42-1.66-.72-1.11-.88-.34s-.12,0-2.18-.9c-.3.11-.71.25-1.25.41l-.32.09-.33-.06-.35.18a2,2,0,0,1-1.82.23,16.13,16.13,0,0,1-2-1.27l-1-.68,2-4.29,4.75-3.64,1.36-1.86-.1-1.86.92-1.84.62-1.88-.3-.89c-1-.84-1.59-1.38-2-1.79-.51-.21-1.69-.66-2.7-1l-.77-.28-.14-.81a13.64,13.64,0,0,0-.33-1.54c-.19-.53-.3-1.53-.3-5.09a4.11,4.11,0,0,0-1.37-2.34c-.91.06-2.19.14-2.46.14s-.6,0-2.29-1a3,3,0,0,1-.33.29,3.43,3.43,0,0,1-2.87.13c-.74-.22-3.91-1.34-4.27-1.47l-1.2-.42.94-4-.07-.29-5.62-1.85-.69-2.15a5.19,5.19,0,0,1-.54-2.31,13.21,13.21,0,0,1,1.29-4.84,13.29,13.29,0,0,0-2-.93A32.39,32.39,0,0,1,291,128l-2.14-.76a3.23,3.23,0,0,1-2.57,1.71h-.17a9.84,9.84,0,0,0-1.2-.08,11.52,11.52,0,0,0-1.16.59l-.3.17-.34,0c-.7,0-3.08,0-4-1.42l-.22-.34v-.41a2.71,2.71,0,0,0-.24-1l-1.39-1-.07-.61c-.12-1.09-.12-1.2-.12-1.27a1.81,1.81,0,0,1,.74-1.37l-.46-.9-.37-.69.85-1.48-.47-.51.56-.87a4,4,0,0,0-.87-.21,20,20,0,0,1-1.65,1.34l-1.79,2.69-5.37-2.07a22.86,22.86,0,0,1-3.19-2.68,7.28,7.28,0,0,1-4.23-2.15,2.49,2.49,0,0,1-1.15-1.46,2,2,0,0,1,.14-1.26L256.25,110c-.47.81-1,1.74-1.17,2.09a2.73,2.73,0,0,0-.25.89c0,.23-.08.48-.15.76l-.27,1.14-1.17-.05c-2.63-.12-8.48-3.67-9.63-4.38l-.63-.39-.43-9.19,4.46.21.44-.84-.83-.55.46-1.77-.38.4-1-.7a8,8,0,0,0-1.78-.83l-1.34-.45L243,95l0-.08a3.38,3.38,0,0,1-.26-.68,4.08,4.08,0,0,0-.86-.22c-.2.13-.47.28-.81.47a6.51,6.51,0,0,1-3,.5l-.32.42.37,1.49-1.07.49c-.35.16-1.24.57-5.45-.68l-.21.25-1.62.23c-.19.32-.43.71-.66,1a2.64,2.64,0,0,1-3.33.53l-2.52-.63v0a2.34,2.34,0,0,1-1.21.7l-.08,0-.64.5a7.63,7.63,0,0,1-1.53,1.5,1.89,1.89,0,0,0-.21.16,2.15,2.15,0,0,1-.89.52l-.64.25a4.9,4.9,0,0,1-1.79,1.66l-.6.34a7.77,7.77,0,0,1-2.51,1.12,1.7,1.7,0,0,0-.28.09c-1.62.57-2.37-.13-2.71-.83l-.13-.26,0-.29a2.65,2.65,0,0,0-.29-.45l-.45-.55.46-1.94-2.51-1.12v-.91s0-4.65,0-4.83a2.32,2.32,0,0,1,1.21-2,3.86,3.86,0,0,1,1.82-.49c-.17-.24-.39-.59-.55-.85s-.6-.33-.77-.44a1.5,1.5,0,0,1-.66-1.55l-.38-.13v.07L208,89l-1.26,1.75-.48.13a4,4,0,0,1-1.14.23,11.67,11.67,0,0,1-2.34-.72c-.39-.16-1.61-.78-2-1l-1.19-.61.54-1.22a59.6,59.6,0,0,0,2.37-6,4.32,4.32,0,0,0-.08-1.89l-.1-.33.06-.35.81-4.27L197,71.72l-.13-1.79.26-.4A7.76,7.76,0,0,0,198,67l-.17,0-.62-1.09c-.14-.24-.44-.77-.33-3.31-.65-.44-1.36-.9-1.6-1s-.91-.42-1.56-.69a7.08,7.08,0,0,1-2.12,3,3.55,3.55,0,0,1-.83,1,10.39,10.39,0,0,0-.92,1l-.82,1-1-.7c-.22-.15-.69-.45-1.17-.75a2.91,2.91,0,0,1-1.07.8,1.54,1.54,0,0,1-1.38-.16c-.73-.48-.79-1.29-.63-2.25l-6.07-3.87L177.13,61l-1.22-.4a26.64,26.64,0,0,1-3.6-1.48,6.28,6.28,0,0,0-1.5-.45,6,6,0,0,1-3-1.29,7.88,7.88,0,0,0-1.08-.88,10.29,10.29,0,0,1-1.1-.87,6.08,6.08,0,0,0-2.3-1.17s0,.07,0,.07l-.61.71-.89-.28a3.81,3.81,0,0,1-2.11-1.91,54.67,54.67,0,0,0-4.38-4.32l-.1.12a11.42,11.42,0,0,1-1.34,1.31A7.71,7.71,0,0,0,152,52.27a31.08,31.08,0,0,0-3,7.48c-.27,1.2-.48,2.14-.62,2.77l1.44.88,0,.71,1.37,1.06-.8,1.11c-2.18,3-3.26,2.86-3.73,2.78l-.22,0a3,3,0,0,1-1.59.82,7.14,7.14,0,0,1-.67,1.28l-1.85,2.76-.28.41-.47.15-4.38,1.39c-.3.11-3.87,1.63-6,2.55l-.88.38-.77-.77a4.32,4.32,0,0,1-1.86-.86,16.18,16.18,0,0,1-1.93-1.74c-.28-.27-.52-.51-.63-.61-.37-.27-2-1.47-3.29-2.46l-3.43,2.1-.77-.21a8.78,8.78,0,0,0-1,.8,20.55,20.55,0,0,1-1.62,1.82l-2,4.9-2.74-1.29a5,5,0,0,1-.86.26l-.56.19a11.79,11.79,0,0,1-1.24.38,3.52,3.52,0,0,0-.43.15c-.29.11-.62.23-1,.33a4.64,4.64,0,0,1-1,.21l-.22.22a4.18,4.18,0,0,1-.49.45c-1,.73-2.06,0-2.57-.38h0l-.59,1.43c0,.11-.05.3-.09.51s-.11.64-.17.9a8,8,0,0,1-1.54,2.74l-.17.24a21.28,21.28,0,0,0,4.77,3.58l.92.51-.4,1.87a2.92,2.92,0,0,0-.15.72c0,.28.29,1.83.52,3.1l.24,1.29-4.91,1.3-.28-.92-.09.12a25.86,25.86,0,0,1-5.32,4.85L94,105l-.47-.21a3.58,3.58,0,0,0-.52.8l-.23.51-1.8.73a4.46,4.46,0,0,0-.6,1.08L89.84,109l-1.2-.33c-.47-.13-.91.32-1.6,1.67a4.21,4.21,0,0,1-.49.82,29.29,29.29,0,0,1-3.18,2.55l-1,.76-.11-.13-.12.12-.44-.17-1.57,2.4-.89-.12c-.7-.1-1.57-.2-1.88-.21a19.52,19.52,0,0,1-2.7.34,7.58,7.58,0,0,1-1.64-.27,24.73,24.73,0,0,0-2.38.85,1.07,1.07,0,0,0-.19.32l-.11.3-.39.39,2.58,1.81L72,121.69a4.05,4.05,0,0,1-.22,2.62,5.86,5.86,0,0,0-.21.92,2.05,2.05,0,0,1,.31.84,2.35,2.35,0,0,1-.5,1.84c-.35.41-2.7,3.38-3,4a6.64,6.64,0,0,1-2.54,2.34l-.09.06,0,.14a5.54,5.54,0,0,1-.15.62,5.42,5.42,0,0,0,.32.54l2.2.73-.73,1.46A18.12,18.12,0,0,1,64,141.83a1.83,1.83,0,0,1,.78.84,1.78,1.78,0,0,1-.05,1.55,2,2,0,0,1-.18,1.37,1.62,1.62,0,0,1-.92.75l-.07.55-.07,2.58H62.39l.19,2.08-1.05.24c0,1.29,0,2.56.08,3a12.33,12.33,0,0,1,.61,2.68,7.17,7.17,0,0,0,.71,1.48L64.18,161l-5.72.16.08.37.55.21,0,.92a5.09,5.09,0,0,1-.24,1.67,1.41,1.41,0,0,1,.16,1.21l-.32,1h-.4c0,.11-.1.21-.13.3l-.16.4.58.5-2.85,2.28-1.48-1.44a2.05,2.05,0,0,1-1.87.17,2.53,2.53,0,0,0-.52.12,1.56,1.56,0,0,1-1.63-.26,2.12,2.12,0,0,1-.94-.16,2.05,2.05,0,0,1-1.37.66,3,3,0,0,1-1-.21l-.06.08a2.23,2.23,0,0,1,.54,1.28c0,.47-.1.76-1.2,2.09-.06.12-.12.3-.2.47a3.2,3.2,0,0,1-.84,1.44c-.32.26-.69.45-2.52.49l-1.94,0,.49-1.67-1.59-.12,0,.35-1,.21s-.22,0-.63.09l-.44.12.21,3-.89.41c-1,.45-2.14,1-2.68,1.29l-.3.83-.44,1.28-2.73-.81-2.24-.11-.33-1.07a2,2,0,0,1-1.42-.65c-.42.07-1.2.2-2.75.42l-1,.14-.46-.91a2.8,2.8,0,0,0-.15-.26,7.3,7.3,0,0,0-2,0,2.14,2.14,0,0,1-1.92-.49,1.9,1.9,0,0,1-.34-.42l-.91-.29-.31.37-.8-.13c-.07,0-.63-.11-2.14-.48a18.46,18.46,0,0,1-.79,2.86l0,.14c-.06.21-.64,2.1-.77,2.53a19,19,0,0,0-.25,1.92,22,22,0,0,0,.77,2.21l.52.52a2.82,2.82,0,0,0,.39.33,6.73,6.73,0,0,1,2.37.39,9.41,9.41,0,0,1,1,.52,5,5,0,0,0,1.63.73h4.75l-1.16,2.18.57.71.07,1.19,2.61.61-1,1.92,1.86.67a14.61,14.61,0,0,1,1.93-.28c.28,0,3,.54,4,1.62a1.87,1.87,0,0,1,.53,1.41c0,.1,0,.19,0,.28.3.17.5.3.62.38l2.69,1.45.08.74a1.42,1.42,0,0,0,.1.34,13.84,13.84,0,0,1,3.2,1,1.64,1.64,0,0,1,.86,1.3l.78.25a4,4,0,0,1,1.72.78l.23.19c.33.27.82.69,1.3,1.17a1.35,1.35,0,0,0,1,.45c.28,0,.81-.06,1.2-.1s.67-.07.81-.07a2.21,2.21,0,0,1,2.09,1.46A1.92,1.92,0,0,1,48.3,210c-.37.21-.74.44-1.07.65a1.47,1.47,0,0,1,0,.88l-.21.71-.73.26a9,9,0,0,0-1.24.59l0,.07,0,.16a2.83,2.83,0,0,1,.15,1.71l-.11.45-1.44,1.2-.86-.5,0,0-.45.45-.18.18-.23.1a3.79,3.79,0,0,1-3.18-.07c-.41-.24-.73-.41-1.05-.57s-.63-.33-1-.55l-.31-.17-.41.22-.35.19-.4,0a3.08,3.08,0,0,0-1.7.35c-1.49.82-2.92,2.65-4.17,4.27-.54.7-1.05,1.35-1.57,1.95a.14.14,0,0,0,0,.11l1.18-1.35,2.54-2.9.27-.31.47-.55.62-.69.88.29a13.13,13.13,0,0,0,1.4.4,1.84,1.84,0,0,1,2.3-.14l.45.28a12.47,12.47,0,0,1,1.69,1.16c.24.21,1.28,1,2.19,1.63l1.64-.66.63.47a71.11,71.11,0,0,0,6.07,4.16l.88.36,0,2,1.64,2.27-.53,1.11.92.74-.46.59.33.15-.44,1,.41.15.3-1.26,1.66,1a3.28,3.28,0,0,0,1.37.48l1.9-1,1,1.29,1.84-.49.51,1.06a50.43,50.43,0,0,0,3,5.57,4.53,4.53,0,0,0,1,1,3.4,3.4,0,0,1,1.08,1.17c.18.33.38.76.56,1.16l.5,0a11.73,11.73,0,0,0,.41-2.27,51.57,51.57,0,0,1,1-7.32c.25-.75.32-1,.34-1.1l1.47-6.43L72,231.48a1.77,1.77,0,0,1,1.68-.09,3.33,3.33,0,0,1,1.15,1l.14.16,1.18-.69.69,1.36a5.61,5.61,0,0,0,.58,1c.58.19,1.31.49,1.4.53l2.26.93-1.92,1.49a4.06,4.06,0,0,1,1.29,2.39c0,.19,0,.27.35.67a4,4,0,0,1,.58,1l.92.48c.48-1.31.66-1.43,1-1.63,0,0,4.63-2.63,5.62-2.63a19.45,19.45,0,0,1,6,1c1.95.81,3.84,1.57,3.84,1.57l2,.82-.7.67a8,8,0,0,1,1.64.53l.77-.15.52.41a2.74,2.74,0,0,0,.46.3,6.17,6.17,0,0,1,1.55.85l.24.17.15.25c1.4,2.3,1.4,2.46,1.4,2.86,0,.2.23,1.5.25,1.66l.06,0,.43-.15a4.88,4.88,0,0,1,1.31-.33,2.71,2.71,0,0,1,1.32-.53,2.29,2.29,0,0,1,.32-1.56.75.75,0,0,0,.06-.2,2.41,2.41,0,0,1,1.28-1.7,13.59,13.59,0,0,0,1.29-.86l.6-.43c.37-.25.86-.58,5.15-.1a3.25,3.25,0,0,0,.19-.3c0-.31.09-1.18.12-1.66s0-.66.05-.89a14.33,14.33,0,0,0-.64-2.37l-.26-.76,2.36-2.77a2.68,2.68,0,0,1-1.34-1.15,1.68,1.68,0,0,1-.12-1.33l.33-1,.82-.77a17.86,17.86,0,0,1,2-5.16l.31-1.54.1-.18c.56-1.06,1.37-2.58,1.91-3.62a4.45,4.45,0,0,0-.42-.21l-.59-.24-.28-.78-.79-.19c-.22-.06-.69-.2-2.13-1.57a1.68,1.68,0,0,1-.6-.71,2.87,2.87,0,0,1,.44-2.57c.28-.48.48-.77.63-1l0-.07c0-.06,0-.12,0-.21a1.36,1.36,0,0,0-.13-.66l-.56-.57.35-.58c.26-1.06.59-2.38,1.86-2.38a10.07,10.07,0,0,0,2.14-.56,9.65,9.65,0,0,0,1.31-.79l.26-.19.32-.06a8.47,8.47,0,0,0,3.19-1.19c.56-1.51,1.34-3.17,1.7-3.91l-.08-.63-1.95-3.77,2.78-4.28-.36-1,.16-.47a9,9,0,0,1,1.23-2.84,10.14,10.14,0,0,0,.91-1.58c.21-.53.53-1.38.53-1.39l.28-.75.79-.14c.85-.16,2.92-.36,3.64,1.09a2.44,2.44,0,0,1,.25.92,4.39,4.39,0,0,0,1.56.29l.42,0,.36,0a7.94,7.94,0,0,1,2.43.41c.2.09.66.25,1.08.39l.86-.54,7.24,2.27a5.51,5.51,0,0,1,.51-2.57l.87-1.67v-3.8l1.15-.22h0a1,1,0,0,0,.6-.49,5.48,5.48,0,0,0,.43-1.22l.09-.61.51-.38,4.41-3,.41,0a14.94,14.94,0,0,0,2.8-.35,9.36,9.36,0,0,0,1.52-.71,3.64,3.64,0,0,1,1.52-.59l.31-.08.16-2.22,1.91,1a4.71,4.71,0,0,1,1.29.93,6.24,6.24,0,0,1,1.42,4.18c0,.33,0,.65.08,1a24.56,24.56,0,0,0,1.83,7.48c.21.42.66,1.31,2.53.64l3.72-1.32-1.35,2.26a2.12,2.12,0,0,0,.4.13l.54.09a2.75,2.75,0,0,1,1.67.68c.23.23.94,1.06.94,1.06l.54.62-.46,1.28a8.9,8.9,0,0,1,2.18,1.28,17.22,17.22,0,0,1,1.12,1.41l.45.61-.26.72c-.1.28-.21.62-.27.82a2.45,2.45,0,0,1-.52,2.24,5,5,0,0,0-.6,1.13,5.69,5.69,0,0,1-.29.63,3.1,3.1,0,0,1-1.69,1.21l-.21.09-.54.44c-.19.61-.55,1.78-.75,2.38a8.8,8.8,0,0,0,1.17,1,9.48,9.48,0,0,1,1.24.33l.17.05a3.12,3.12,0,0,1,1.87,1.68,1.7,1.7,0,0,1-.15,1.53c0,.1-.07.23-.1.36a4.36,4.36,0,0,1-.86,1.84c-.34.38-.34.46-.34.52a2.34,2.34,0,0,0,.1.85l.1.23a2.13,2.13,0,0,1,1.49.38,14.65,14.65,0,0,1,3.09,2.9l.25.39a2.75,2.75,0,0,1,.6,2.25c-.29,1.59-2.42,2.31-3.84,2.31a4.79,4.79,0,0,0-1.67.52,1.06,1.06,0,0,0,.7.48l.49.1a8,8,0,0,1,3,.95,3.41,3.41,0,0,1,.88,1c.21.31.27.39.42.45.54.22,1.58.52,2.34.74l1,.31a3.91,3.91,0,0,1,.68.31l.36-.32a7.74,7.74,0,0,1,1.74-1l.14-1.72,2.8-.14a6.82,6.82,0,0,1,1.07-1.15c1.36-1.05,2.3-.6,2.7-.29l.17.09c.86.45,2.3,1.21,2.4,2.57,0,.05,0,.1,0,.15.43,0,1.06,0,2,0l.5,0a2,2,0,0,1,1.38.64,1.07,1.07,0,0,0,.85.39c1.42,0,3.29-.1,3.58-.15.09,0,.51-.19.85-.33l.67-.29.63.38a17.53,17.53,0,0,1,2.41,1.55,2.9,2.9,0,0,1,.88,2c0,.13,0,.29,0,.48s0,.19,0,.3a3,3,0,0,0,.76-.31,3.67,3.67,0,0,1,2.2-.73l.53,0c.51,0,.54,0,.65-.07l.13-.1a5.84,5.84,0,0,1,2.42-1.33,1.24,1.24,0,0,0,.42-.17,2.88,2.88,0,0,1,1.3-.44c.82-.08,3.34,0,4,0a6.15,6.15,0,0,1,2.16.69l.51.27.18.55a1.84,1.84,0,0,0,.72.92,4.26,4.26,0,0,1,1,.69l1.55-1.32.91.71c3.46,2.7,3.62,3,3.76,3.31a4.55,4.55,0,0,1,.36,1.5l.08.92-.81.44c-.21.12-1.28.78-.87,1.61a6.41,6.41,0,0,1,.76,4.08c0,.06,0,.11,0,.15a6,6,0,0,1-.56,2l-.43,1-.64-.09c0,.32.06.69.06,1.09a12,12,0,0,1-.19,2.13,2.31,2.31,0,0,0,0,.61l.08.77,0,.22a4.8,4.8,0,0,1-.76,2.1,6.35,6.35,0,0,1-.84.78,12.85,12.85,0,0,0-1.07,1c-.29.32-.74.94-1.1,1.44s-.6.83-.78,1l-.13.14,3.13,2.16-.07.61.46.14a3.36,3.36,0,0,1,.2-.4c.37-.63,1-1.84,1-1.84l.39-.75h.84a26.71,26.71,0,0,0,3-.18,5,5,0,0,1,1.25-.35l.47-.06,3.54,2,0,.85c-.08,2.62-.16,5.54-.17,6.61l0,0c.58,0,1.36.3,1.62,1.6l.08.41a6.1,6.1,0,0,0,.15.69,2.54,2.54,0,0,1,.82.92,2.17,2.17,0,0,1,1.13,2.76l-.09.25c-.05.14-.12.32-.15.42a3.32,3.32,0,0,1-.42,2.46l-.09.2c-.12.26-.28.58-.44.88a5.23,5.23,0,0,1,1.35,1.38,15.57,15.57,0,0,0,1.2,1.55c4.09-.53,4.61.36,4.9.85a3.87,3.87,0,0,1,.43,2.31c0,.16,0,.33,0,.52,0,.49,0,.9,0,1.24s0,.52,0,.71a1.89,1.89,0,0,1-.75,1.53c-.07.17-.11.33-.17.5s-.17.56-.32.93a1.5,1.5,0,0,0-.08.41c.8.83,1.06,1.22,1.13,1.61.7-.75,1.25-1.35,1.37-1.52a3,3,0,0,1,1.52-1L264,284a5,5,0,0,1,.6-1l.4-.49.63,0a31.8,31.8,0,0,1,5.07,0,21,21,0,0,1,4.52,1.67c1.22.95.66,2.77.46,3.3l-.37,1-1.83-.12c-.09.16-.17.3-.21.4,0,.4,0,1.12,0,1.51a2.29,2.29,0,0,0,.37.67,8.12,8.12,0,0,1,1.73.79l.44.28.15.5a4.9,4.9,0,0,1,.26,2.77c0,.13-.1.37-.17.63a10.82,10.82,0,0,1-.74,2.26,6.94,6.94,0,0,0-.33,1Zm-2.16,1.88Zm1.78-1,0,0Zm-.86-9.46ZM253,266h0Zm-7.52-12.59h0ZM110,250.11l.12,0Zm-.34-2.11h0Zm128.56-.34h0Zm66.33-6.16v0Zm-229.3-8.65ZM313.88,223Zm-111.74-.47h0ZM318.48,222h0Zm-133-1.7h0Zm-62.08-5.46h0ZM45,213.21h0Zm141.84-5h0Zm-2.38-.54h0Zm-143.52-1,0,0Zm142.87-2.14Zm142.82-7.76h0Zm-145.4-7Zm-.29-.19h0Zm-45.5-.28v0ZM22.55,177.47Zm145.91-4.56h0ZM57.68,166.58h0Zm-3-6.24,1.88.06L56,156.29l-.11,0a1.62,1.62,0,0,1-.46.59A11.19,11.19,0,0,0,54,158.45a3.4,3.4,0,0,0-.14,1v.33C54.16,160,54.47,160.24,54.64,160.34Zm.09,0Zm-1.08-5.68-.08.07Zm7.77-.25.07.11Zm4-19h0Zm.39-1.33Zm3.77-7h0Zm-.19-1.22-.1.12Zm8.11-9.56h0Zm185-3.43Zm-47.37-12Zm.2-.1h0Zm2.71-2h0Zm4.08,0h0ZM145,69h0Zm-2.83,0h0Zm2.1-1.79h0Zm44.77-4.63Zm-35.63-16Zm.16-.18h0Z"/></svg>