<svg id="Layer_1" data-name="Layer 1" xmlns="http://www.w3.org/2000/svg" viewBox="0 0 350 350"><defs><style>.cls-1{fill:#999;stroke:#f90;stroke-miterlimit:10;stroke-width:2.83px;}</style></defs><title>M</title><path class="cls-1" d="M232.2,209.49a8,8,0,0,0,0,1.12,4.29,4.29,0,0,1,.77,0c.68,0,1.36-.08,2,0,1.88.16,3.49.45,5.43-.92a7,7,0,0,1,6.21-.26c1.4.76,1.73,3.49,2.56,5.42a8,8,0,0,1,1.24,0c1,.11,2,.33,3,.43,2.5.24,3.45-.34,4.41-2.65.39-.93.7-1.9,1-2.86-1.92-1.56-1.52-5.34.89-6.12A15.27,15.27,0,0,0,267.6,198c1.7-2.24,3.93-.45,5.88-.13.65.11,1.15,1.14,1.83,1.87,1.84.13,2.69-1.52,3.58-3.2a1.72,1.72,0,0,1,1.31-.61c3.06,0,6.14-.1,9.18.14.85.07,1.62,1.16,2.66,2l2.6-.45a6.75,6.75,0,0,1,4.12-1.33c.37-.92,1.31-.95,2.41-.71,3.18.67,6.38,1.23,9.56,1.85a2.24,2.24,0,0,0,3-2c.17-1.84,2-3.23,1.11-5.43-.33-.85.29-2.6,2.32-2.08a12.33,12.33,0,0,0,4,.31,2.83,2.83,0,0,0,2.77-1.94,13.33,13.33,0,0,0-.56-11.55,2.43,2.43,0,0,1,.52-3.27c.71-.73,1.3-1.57,2-2.33a7.39,7.39,0,0,0,1.65-7.77,2.78,2.78,0,0,1,.27-1.76A24.5,24.5,0,0,0,330,148.29c-.1-1.55-.63-3.07-.87-4.62-.16-1-.25-2.09-.34-3.14a6.72,6.72,0,0,0-3.85-1.1c-.05-.2-.1-.4-.16-.58-.27-.8-.23-1.86-.76-2.38-1.91-1.87-4-3.25-7-2.06a4.36,4.36,0,0,1-4.24-.14c-2.14-1.33-4.35-2.89-6.73-3.41-4.87-1.06-9.89-1.4-14.82-2.23a15.61,15.61,0,0,1-4.69-1.77c-1.91-1-3.52-2.93-5.51-3.41a123.92,123.92,0,0,0-13-2c-1-.13-6.69-3.28-6.86-4.2a70.32,70.32,0,0,1-1.4-9.43c-.09-1.92-.69-2.62-2.41-2.44a5.67,5.67,0,0,0-2.79.85,12.16,12.16,0,0,1-9.25,2.41c-1.59-.17-3.21-.09-4.81-.21a3.79,3.79,0,0,1-1.51-.55c-.59-.33-1.06-1-1.68-1.14-1.81-.52-3.64-1-5.49-1.46a19.09,19.09,0,0,0-4-1.82c.78-1.44,1.5-2.74,2.15-4.06a34.19,34.19,0,0,0,2-4.74,2,2,0,0,0-.9-1.75c-3.68-1.69-7.38-3.35-11.16-4.8-2.48-1-4.85-1.89-6.17-4.41-.14-.26-.51-.41-.79-.59-1.65-1.09-1.57-2-.17-3.39a3.32,3.32,0,0,0,.76-2.74,2.69,2.69,0,0,0-2.18-1.44c-2.51.26-5.19.46-7.42,1.5-2,.94-3.26.34-4.7-.69s-2.68-2.36-4.24-3c-3.75-1.5-7.33-3.12-9.92-6.39a2.09,2.09,0,0,0-1.57-.5c-2.86.19-5.71.43-8.56.76a32.7,32.7,0,0,0-3.62.84c-1.93-1.92-4.74-2.5-7.77-2.46-2.56,0-5.14.13-7.69,0-1.92-.13-3.8-.72-5.71-1-1-.14-2.4-.71-2.76,1-.6,2.9-1.1,5.83-1.71,8.73-.55,2.65-.32,5.53-2.45,7.72-1.9,2-3.08,4.84-6.48,4.71-1.78-.07-3.45,0-3.06,2.52-2.09,0-4,.46-4.32-2.49-.21-1.76-2.71-2.14-3.67-1.22.26,1.1.82,2.09.57,2.78a9.29,9.29,0,0,1-2.1,3.13c-2.75,2.84-5.6,5.59-8.19,8.15l.95,1.45c-.27.11-.55.22-.81.35l-.86-1.22c-5.59,3-9.16,7.62-13.45,11.53l1.31,1.79-1.8.95-.81-1L98,115.67l.51.55-.62.43c-.65-.19-1.27,0-1.8,1.17h-.07l0,.06h0c-1.76,1.24-3.5,2.51-5.25,3.76s-3.51,2.49-5.31,3.67c-5.33,3.5-10.79,6.8-16.15,10.26-1.54,1-2.9,2.28-4.39,3.37a26.44,26.44,0,0,1-3.84,2.53c-3.57,1.75-7.24,3.3-9.52,6.84a4.61,4.61,0,0,1-1,1,36.67,36.67,0,0,0-8.7,11c-1.48,2.69-2.76,5.49-4.13,8.25-2.43,4.9-4.87,9.78-5.65,15.31A23.29,23.29,0,0,1,27,195.5a14.73,14.73,0,0,0-3.26,11.05,15.67,15.67,0,0,1-2.4,10c-.4.65-.83,1.29-1.36,2.11.63.18,1,.31,1.37.38,1.93.36,3.31,1.06,3.34,3.44a4.69,4.69,0,0,0,2.84,4.73,11.66,11.66,0,0,0,1.4.57l.19.2a6.29,6.29,0,0,0,.91.77,6.31,6.31,0,0,1-1.68.31c2.36,1.57,4.12,3.38,6.22,4a3.76,3.76,0,0,1,3.06,2.85c.44,1.53.66,3.13,1,4.81a4.55,4.55,0,0,0,4.75-2.18A3.08,3.08,0,0,1,45,237.46c2.65-.69,5.2-1.21,7.67-2.83,4.6-3,9.66-5.35,14.55-7.92a1.75,1.75,0,0,0,1.13-2.22c-.43-1.89-.79-3.79-1.09-5.7-.58-3.76-.58-7.52,2.75-10.09,2.62-2,5.6-3.53,8.39-5.34A8.44,8.44,0,0,0,81,201.2c1.46-2.26,2.95-3.93,6.08-3.6a17.55,17.55,0,0,0,8.86-1.09c2.67-1.13,5.53-1.78,8.25-2.79a6,6,0,0,0,2.19-1.69c3-3.41,7-5.06,11.14-6.52a5.22,5.22,0,0,0,2.8,1.59,5,5,0,0,0,.92,1.35,4.94,4.94,0,0,1,1.2,2.91c.16,2.87.06,5.75.08,8.63,0,2.22.78,4.48-.66,6.6a2.45,2.45,0,0,0,.07,1.95c1.57,3.75,1.33,8.16,4.37,11.4.82.87,1.14,1.24,2.37.73,2.21-.94,3.8-3.26,6.59-3,.29,0,.66-.57,1-.91,1.23-1.37,2.48-2.72,3.65-4.14a9.9,9.9,0,0,0,1-1.83c2.63-.31,5.69,1.15,8.12-1.59a4.14,4.14,0,0,1,2.66-.88,3,3,0,0,0,2.76-1.95c1.53-3,1.55-3,4.83-1.88a4,4,0,0,0,1,.18c3.15.23,6.23.54,5.43,5,3.16-1.74,6-4,9.14-4.84,3.37-.84,3.33-3,3.76-5.35a22.05,22.05,0,0,1,.86-3.7c1.25-3.41,2.57-3.84,5.66-2,2.1,1.27,4.67,1.19,6.14-.12,1.49,1.16.64,2.31-.1,3.4-1.22,1.8-1.12,3.29.73,4.62a5.45,5.45,0,0,1,2.23,5.08c-.08,1.45,0,2.91,0,4.32,1,.26,1.75.38,2.43.61,1.92.64,5.83-1.21,6.45-3.1.53-1.59,1.73-2.26,3.23-1.51a10.23,10.23,0,0,1,2.21,2.15c2-1.57,2.43-2.71,2.3-4.8-.15-2.41-.57-4.93,1.94-7h-.21a12.33,12.33,0,0,0,1.78-.45h0c.2-.07.4-.12.6-.2l-.15.79a54.1,54.1,0,0,1,6,2,9.67,9.67,0,0,1,4.89,4.84,3.71,3.71,0,0,0,1.73,1.36C229.13,206.73,231.47,207.16,232.2,209.49Z"/></svg>