<svg id="Layer_1" data-name="Layer 1" xmlns="http://www.w3.org/2000/svg" viewBox="0 0 350 350"><defs><style>.cls-1{fill:#999;}.cls-2{fill:#f90;}</style></defs><title>M</title><path class="cls-1" d="M235.74,244.67a49,49,0,0,0-4-4.23c-1-.76-1.14-3.25-1.14-3.25l-4.12-1.46a16,16,0,0,1-1.46,3.52c-.76,1.08-1.73,1.08-2.87,1.19a26.86,26.86,0,0,0-4,.92c-.7.22-.22.38-.11,1.41a5.08,5.08,0,0,0,.7,2s-1.35,1.14-1.46,1.63-.7.33-.43,1.25a1.51,1.51,0,0,1-.43,1.73,16.32,16.32,0,0,1-2.17,1.73l-3-.92s-2.87.76-3,.7-1.57-1-1.79-1.08-2.28-.33-2.28-.33a12.53,12.53,0,0,1-1.41-2.82c-.6-1.68-3.9-4.82-3.9-4.82a10.58,10.58,0,0,1-1.57.05,14.49,14.49,0,0,0-2,.11,21.77,21.77,0,0,0-2.33-1.79,9.42,9.42,0,0,0-1.52.87,11.81,11.81,0,0,1-1-2.06c-.11-.54-2.38-.7-2.38-.7a8.84,8.84,0,0,1-.65,1.3,26.92,26.92,0,0,0-2.33,3.47,2.2,2.2,0,0,1-2.28,1.3c-.76,0-.6-.32-.87-1.35s1.08-2.38,1.35-2.87a7.27,7.27,0,0,1,1.25-1.3l-.22-.65a3.42,3.42,0,0,1,.27-1.63c.38-1,.76-2,.76-2l-.43-.33a3.07,3.07,0,0,0-2.6-.11c-.7.43-1.9.54-1.84,0s-4.12-2.87-4-3.47.7-4.06.7-4.06a13.4,13.4,0,0,0-3.36-1.25c-1-.05-1.63-1.68-2.44-2a33.14,33.14,0,0,0-5-.7,7.54,7.54,0,0,0-2.38,1.52c-.7.65-.16.81-.43,1.08a4.19,4.19,0,0,1-1.84.43c-.6.05,0-1.52,0-1.52h-2.49s-2.65,1.9-3.3,2.44a4.6,4.6,0,0,1-2.06.76,13.43,13.43,0,0,1-2.76-.11c-1.63-.11-1.68.87-2.11.87s-2-.7-2.44-.81a25.5,25.5,0,0,0-2.87-.16c-.49,0-3,.27-3.63.16s-.81-1.19-.81-1.19a10.32,10.32,0,0,0-1.63.7c-.38.27-3.25,1.57-3.25,1.57a7.56,7.56,0,0,1-2.76-.87c-1.14-.7-2.22.54-3,.76a5.5,5.5,0,0,0-2.55,2.17c-.38.76-.38.54-1,1.08s-.6.87-1.19,1.3a2.66,2.66,0,0,1-1.46.7,5.25,5.25,0,0,0-1.52.6s-.6-.81-.7-1a4.24,4.24,0,0,0-1.73-.65,9.6,9.6,0,0,0-1.84,0l2,2.11a7.73,7.73,0,0,1,.38,1.9c.11,1.19,1,5.09,1,5.09l.38.87-.33.92s-2,1-2.65,1.46a13.89,13.89,0,0,0-2,2.22,10.67,10.67,0,0,0-2.28,1.41c-.65.65-1.19,1.46-1.35,1.52s-4.23,2.44-4.39,2.49-.92,1.46-1.46,2a13.62,13.62,0,0,1-3.41,1.9c-.43,0-2.71-4.54-2.71-4.54l-4.06-3.31s-.87-.92-1.44-1.57a10.91,10.91,0,0,1-1.16-1.73,1.29,1.29,0,0,1-.76.43,1.63,1.63,0,0,1-.79-.08,10.52,10.52,0,0,0-1.65-.27c-.49-.05-.87,0-.92-.11s-.22-1.19-.22-1.19.54-.11.87-.22.76-1.63.38-1.92l-.84-.65-.41-1.46s-.68-1.11-1.46-1.19-2.68-.46-2.68-.46v-1.71l6.23-2.84a5.06,5.06,0,0,1-.35-2c.19-.51-.38-1.65-.38-1.65l-.54.19-3.14-5.55-4.25,1.25s-2.28-4.12-2.63-5a60.59,60.59,0,0,0-3.47-5,11.91,11.91,0,0,1-1.25-2.87l-3.33.87L68,207.5l-.87.3-.27-.68-.65.16s-3.74-8.13-3.85-8.83-.35-1.68-.35-1.68-2.3-4.9-2.46-5.17a2.26,2.26,0,0,0-.81-.7,4.13,4.13,0,0,1-.87-.11l-2.49-.7-1.84.7c-.14.05-3.09-6.34-3.09-6.34s-12.84,5.12-13.52,5.23.24-.62.3-.92a13.58,13.58,0,0,0-.24-1.92,3.58,3.58,0,0,1-.87-.19c0-.08-1.16-4.25-1.16-4.25l-1.44-.57a14.87,14.87,0,0,0-1.38-2.36c-.16.05-.65-.49-.65-.68a4.18,4.18,0,0,1,.08-1c.08-.14.95.14.95.14s0-2-.3-2.22a4.26,4.26,0,0,1-.89-1.08,2.62,2.62,0,0,1-.24-1.08c.08-.14.51-.57.51-.68s-.6-1.25-.53-1.6-.61-.62-1-.32a5.15,5.15,0,0,1-1.25.54s-1-1.79-1.52-1.81a3.3,3.3,0,0,0-1.35.54s-1.44-2-1.41-2.68a11.32,11.32,0,0,1,.41-1.65c.11-.7-.08-1.33.11-1.65s1.35-2.28,1.38-2.36a7.13,7.13,0,0,0-.27-1l-.24-1.9-8-.27L16.67,153l4.09-15.47,2.17-6.37s.19-2.55-.24-2.6-.46.11-.76,0a8.23,8.23,0,0,0-1.87.22l-2.14-3.44s1.65-.49.6-.89-5.85-1.25-6.61-1.52a4.86,4.86,0,0,0-1.46-.27l-1.33-1-.89-.76-.46-1.06-1-.27-.87-2s3.11.41,3.39.33-.08-4.25.73-4.93,1-.76,1.19-1.06.3-1.68,1.11-2.19a9.81,9.81,0,0,1,1.49-.81c.51-.24,1.44-.62,1.65-1a22.2,22.2,0,0,0,.76-2.33s.57-.79.54-1.14-.11-1.81-.11-1.81a19.68,19.68,0,0,1,2.76,1.19c.89.54,1.76.6,2.19,1.35s.38.92,1,1,1.33.24,1.33.24a9.58,9.58,0,0,0,.16,1.54c.14.54-.14.89.33,1.11s.7.95,1.54.46,2.38-1.71,2.84-1.68.95.22,1.44-.08-.14-.62,1.22-.57,3.2-.05,3.33-.05.11,1.33,1.27,1.6a9.4,9.4,0,0,0,3.17.49c.73-.16,1.92-.73,2.36-.76s.11-3.82,0-4.77-.11-4.85-.11-4.85l10.35,2.28,1.9.73,2.76-.41a1.44,1.44,0,0,0,.24.76,20.72,20.72,0,0,0,2.11,1.11,4.26,4.26,0,0,1,2.55-1.16,5.76,5.76,0,0,1,4,1.76c.84,1,1.84,1.63,2.41,1.49l3.09-.73,12.51,2.19a18.94,18.94,0,0,1,3.74-2.36c.14-.95,0-1,.14-.95s6.88-.05,6.88-.05,1.33,2.28,1.22,3.68-.14,1.73-.14,1.73,2.44.41,3,0a1.66,1.66,0,0,0,.62-1.08,37.29,37.29,0,0,1,1-3.71,17.1,17.1,0,0,0,.68-2.33,6,6,0,0,0,1.81.57c.79.05,5.88-1.49,6.28-1.57s.3-.32.3-.32l-1.54-2.14s3.06-.6,3.22-.65,1-.54,1-.54.32.7.92.76a3.69,3.69,0,0,0,1.49-.38l-.49-1.11L115,96.1v-.65l.84-.19s.51.6.6.68a4.11,4.11,0,0,0,1.6-.68c.43-.33.81-.65,1.25-.95S121,93,121,93l1.49,1.63s-.46,1.76.43,2.46.87.79,1.11.79.43-.3.7-.62,1.33-.14,1.92-.14,2,.6,2.57,0,.81-1.06,1.08-1.06a4.32,4.32,0,0,0,.6-.05l.08-2.84L129.86,93l-1.27-2.79a3.48,3.48,0,0,0,.7-1.16c0-.38.7-.41.89-.54a6.35,6.35,0,0,1,1.19-.73,7.64,7.64,0,0,1,1.38,0s-.49.81.11,1.08a3.59,3.59,0,0,0,1.54.19c.16,0,1.52.22,1.52.22s-.33.16.57,1,.33,1.41.79,1.87,1.08,1,1.08,1-.7.49.16.89,2,1.06,2,1.06a8.36,8.36,0,0,1,.19,1.08c0,.27.41.62.51.49s1-.19,1-.19a6.6,6.6,0,0,0,.19,1.79,16.79,16.79,0,0,0,.7,2.11c.14.43.11,1.38.19,1.52a12.68,12.68,0,0,0,1.54.32,3.87,3.87,0,0,0,1.6.3,13.81,13.81,0,0,0,2.44-.16c.33-.22.33-.38.33-.38s.46,1.14.08-.41-.38-1.16-.38-1.16l.14-1s.54.16.65-.11a17,17,0,0,1,.38-2.33,10.22,10.22,0,0,0,.7-1.65,7.74,7.74,0,0,0,0-1.06l1.06-.7a3.76,3.76,0,0,0,.95.41,13.86,13.86,0,0,1,2,.27,6.7,6.7,0,0,1,.08.73,30.17,30.17,0,0,1-2.17,2.19,1.81,1.81,0,0,0-.73,1.44,14.45,14.45,0,0,0,.68,2.19l.76-.49,1.14.62,1.19-1.76,2.82,1.41s-1,1-.19,1.52a8.66,8.66,0,0,0,2.87.68,6.21,6.21,0,0,0,2.22,4.41c2.17,1.68,15.68,9.86,16.74,10s1.19,0,1.3-.14,2.28-3,2.28-3.52-.22-2.28-.22-2.28l1.54-.41s1.92,3.41,2.25,3.39.27-.27.62-.76a2.29,2.29,0,0,1,1.3-1,8.13,8.13,0,0,0,1.76-1.06l-.19-1.63a11.76,11.76,0,0,0,1.19-.92,7.53,7.53,0,0,1-.27-1.49,12.7,12.7,0,0,0,3.9-2.19c.57,1.41.6,2.6,1,3.85s1,3.36,1.06,3.39,8.64-.41,8.64-.41l-1-4.44s1.87-.05,1.87-.57,0-1.49,0-1.49,1.14,1.08,1.63,1.11a4.51,4.51,0,0,0,2.44-1.11c.19-.43,1.16.95,1.81.76s.87-.3,1.06-.22A11.73,11.73,0,0,0,216,107c.76.24.62.11.68-.14a3.37,3.37,0,0,0-.11-.92.94.94,0,0,1-.22-1.06,15.5,15.5,0,0,1,1.38-2.19c0,.16.35,2.55,1.22,2.17s1-.62,1-1a2.27,2.27,0,0,1,.16-.79,2,2,0,0,0,1,1.38c.81.3,1.11.14,1.38-.3s.14-.62.41-.87.11-1.19.11-1.19a3.88,3.88,0,0,0,1.25,0c.38-.14,1.06-.43,1.06-.43l.16-2.28a3.68,3.68,0,0,0,.81-.41c.16-.16.22-.76.76-.81a3.67,3.67,0,0,0,1.06-.38c.08,0,1.19-.38.38-.87l-.81-.49s.79-2.11.95-2.93-.16-6.31-.16-6.31h.7l.14-.73.95-.14c.14,0,.68-1.35,1.06-1.87s.62-.38.92-1,.41-.6.49-1,.16-1.38.16-1.38a5.77,5.77,0,0,0,1.54-.7c.14-.24.38-2.52.49-2.74s.81-.54,1.22-.76a10.86,10.86,0,0,1,1.84-1,20.31,20.31,0,0,1,2.36.87s.92-2.25,1.19-2.82.33-.79.7-.68.87.27,1.11-.24.22-1.08.62-.84a3.94,3.94,0,0,0,1.65.6,4,4,0,0,0,1.38-.24,5.37,5.37,0,0,1,1.76-.41c.11.09.08-1.54.89-2.35S249.55,68.28,251,68a23.39,23.39,0,0,0,2.6-.65s-.51-.89,0-1a26.41,26.41,0,0,0,3.25-2.09s1.27,3,1.73,3.82a17,17,0,0,1,1,2.63,4.68,4.68,0,0,0,1,1.57s2.14-.43,2.46-.6.49.38,1.22-.05A16.51,16.51,0,0,0,266.08,70a11.7,11.7,0,0,1,1.35,1.41,13.45,13.45,0,0,1,2.22,3.39c0,.54-.24,1.11,0,1.11a32.4,32.4,0,0,0,3.87-.05,10.37,10.37,0,0,0,1.57-.3s.51.92.7.92,1.41-.3,1.41-.3.35,2,1.19,2,2.09-1.06,2.25-1,1.79,1.22,2.44,1.49a3.6,3.6,0,0,0,1.25.27l1.11,1.54s-.43.22-.22.92.89,1.84.89,2,.11.51-.51.6a6.38,6.38,0,0,1-1.08.05l-.27.81L285.47,87a30.36,30.36,0,0,0,3.85-2.25c.79-.7,1.27-1.08,1.27-1.08l4,.33s-.27,3.41.6,4.5S297.52,92,297.52,92l2.68-.54a15,15,0,0,0,3.2.76c.79-.05,5.63-.84,5.63-.68a10,10,0,0,1,.87,2.55c.05,1,.32,2.87.32,2.87a4.55,4.55,0,0,1,1-.16c.16.05.92.87,1.3,1.08s.87.43,1.3-.11a4.6,4.6,0,0,0,.65-1.57l.38-1.19s-1.25-2.38-1.73-2.6a1,1,0,0,1-.54-.76,18.85,18.85,0,0,1,1.9-.33c.38,0,2.17-.22,2.17-.22s-.05,2.38.65,2.28,2.6-2.49,2.82-2a3.19,3.19,0,0,0,1.19,1.41s1,.54,1.3.27a1.5,1.5,0,0,1,.6-.33s.7,1,1,.81a16.19,16.19,0,0,0,1.68-1.68,13.13,13.13,0,0,0,2.55,1.52,8.17,8.17,0,0,1,1.63.43s1.57-.7,2.06-1-.11.27.43.43a31.72,31.72,0,0,0,4.17.76,35.47,35.47,0,0,1,3.79.76s-.43,1.46,0,2.06-.16,1.25,0,1.52a5,5,0,0,0,1.25,1.41,11.29,11.29,0,0,0,2,1.35,6.68,6.68,0,0,0,0,2.76l.32,1.46-.76,1.3s-1.84,2-2.22,2.28-1.25.92-1.25.92l1.14,1.79s-1.73,1.19-1.68,1.41a8.36,8.36,0,0,1-.38,1.57s-2.93-.6-3.14-.6-1.3-.05-1.3.38a11.35,11.35,0,0,1-.16,1.35s-1.35,1.9-1.79,2.55a6.12,6.12,0,0,1-1.41,1.3l2.33,3.36s-3.68,1.57-3.58,3.14l1.25-.32.87,1.08.54.05.05,1.52,3.9.76V133s-.54,2.76-1.52,3.52a13.33,13.33,0,0,1-3,1.3c-.65.33-1.68,1.08-2.71,1.68s-3.63,2.28-3.63,2.28-5.15.87-5.31.92-1.57.05-1.57.05l-.92-1.9h-.76l-.43-.7a48.35,48.35,0,0,1-2.76-4.88,27.21,27.21,0,0,1-8.88-.76l.6,2.55-1.46.38a.81.81,0,0,1,.87.87c0,.92-.18,1-.18,1.68a9.42,9.42,0,0,0,.11,1.37s2.13-.36,2.49-1.12a2,2,0,0,0,.07-1.48s.54-.76,1-.76a7.42,7.42,0,0,1,1.63.4l1,4.37-1.48.4a10.5,10.5,0,0,0-.36,1,2.28,2.28,0,0,0,1.3.87,1,1,0,0,1,.79.79,3,3,0,0,1-.4.9c-.18.25-.61.51-.47,1s.07.9.14,1.08.76,1.12.76,1.12-.11.9.14,1.23,1.52.33,1.63.25l1-.69A5.44,5.44,0,0,1,315.7,152a12.12,12.12,0,0,0,1.41,1.59s-.58.47-.36.79a12.22,12.22,0,0,0,.69,1.19,13.59,13.59,0,0,1,2.42,3c.29.83,2.93,6.65,2.93,6.65s-7.73,3.65-8.45,4.12-2.64,1.48-2.64,1.48l-1.73,1.3s.58,1.91.87,2.49a15.46,15.46,0,0,0,1.19,2.06,28.9,28.9,0,0,1,1.88,3.14c.25.58.72,3.76.76,3.86s.22.32-.25,1a9.67,9.67,0,0,0-1,2.6c-.14.58-.07.54-.69,1.12s-1.12.61-1.37,1.12a1.9,1.9,0,0,1-1.23,1,14,14,0,0,1-1.88.72,7.88,7.88,0,0,1-.94.07,22.64,22.64,0,0,1-1.3,2.42,3.57,3.57,0,0,0-.65,2.24,10.49,10.49,0,0,1,.25,2.53c-.11.9-.51,3.47-.51,3.47a15.43,15.43,0,0,1,.87,2.35c-.14,0-1.48.18-1.48.18a62.34,62.34,0,0,0-7.87-.79,7.85,7.85,0,0,0-3.76,1.26l-.11-.22s-3.79.79-3.9.76-1-.79-1-.79l-1.84.43a20.84,20.84,0,0,0-2-1.77c-.54-.33-1.48.07-1.48.07l-.69-.72-1.81,1.19,1.52,2.53s-.32.61-.22.72,1.19,2,1.19,2-1,.79-.87.9a14.35,14.35,0,0,1,1,4.62c.11,2.2.4,7.08,1.3,9.28a12.44,12.44,0,0,0,1.91,3.61c.29.22.4,1.23.4,1.23a38.75,38.75,0,0,0-.33,5.38c.22.54-2,.94-4,1.81a12,12,0,0,0-3,1.77,40,40,0,0,0-1.77,3.79c-.14.65-1.73,1.55-1.7,1.66l1.55,4.41-.36,1.12c0,.11,2.28,6,2.28,6.61v1.34a4.61,4.61,0,0,1-1.3,1,4.57,4.57,0,0,0-2,1.81,16.53,16.53,0,0,0-.43,1.66s1.34,1.34,1.3,1.73a9.09,9.09,0,0,0-.25,1.73,14.07,14.07,0,0,1,.9,1.7c.14.43,0,1.08.11,1.19s3.18.72,3.18.72l1.12,2.28c.11.22,1.37,3.94,1.37,3.94s-2.78,1.52-3,1.73.9,2.38,1.3,3,.87,2,1.34,2.13a20.43,20.43,0,0,0,3.18-.4,12.8,12.8,0,0,0,1.44,1.23c.14,0,1.16.18,1.16.18l.11,1.37-1.77.33s-1.84-1.66-2-1.66-3.5,1.23-3.76,1.3a13,13,0,0,1-2.06,0c-.22,0-4,1.41-4.3,1.44s-1.41.29-1.41.29l-2-.25-1.55-.51s.51-.87-.29-1-2.22-.59-2.22-.59l-2.26,2.69h-2.09a.91.91,0,0,0-.94-1,22.73,22.73,0,0,1-3-.36l-1.81-1s2.6-3.25,3.18-3.83a7.66,7.66,0,0,0,1.08-1.59,20.43,20.43,0,0,0-.22-3c0-.22.58-1.89.58-2.28s-1.66-5.59-1.66-5.59l-2.31.58-1-3.14s-1,.25-1.08.25-2.17-3.25-2.17-3.25l-.94.94-.54-.9-1.19.51-.94-1.37-.65.33a5.65,5.65,0,0,0-1-1.12,18.14,18.14,0,0,0-2-.58,2.94,2.94,0,0,1-.43-.29,10.72,10.72,0,0,1-.9-2.17c-.11-.69-.65-3.18-.65-3.18l.69-.72-1.77-2.74,0-.9a1.85,1.85,0,0,0-1.19-1c-.87-.22-2.42-.43-2.42-.43l-3.29-.33L235,246.8Z"/><path class="cls-2" d="M265.58,287.14H261.3l.07-1c-1.1-.07-2.53-.33-2.71-.37l-.23,0L255,283.76l1-1.31c.44-.55,2.68-3.34,3.28-3.94a4.83,4.83,0,0,0,.7-1c0-.45-.13-1.37-.17-1.75s-.08-.71-.08-.78a4.62,4.62,0,0,1,.28-1.26c.08-.27.22-.74.28-1-.14-.56-.63-2.21-1.17-3.92l-2.29.57-1.06-3.17h-.14c-.75,0-.9-.05-2.42-2.42l-1,1-.84-1.4-1.12.48-.9-1.31-.64.32-.7-1a7.34,7.34,0,0,0-.55-.71c-.17-.05-.62-.18-1.3-.35l-.4-.11a2.66,2.66,0,0,1-.85-.51l-.24-.18-.14-.26a10.82,10.82,0,0,1-1.05-2.62c-.08-.53-.49-2.42-.64-3.1l-.16-.73.44-.46-1.37-2.13,0-.91a.34.34,0,0,0-.13-.08c-.65-.16-1.86-.35-2.27-.4l-3.55-.35-2.53-1.52.87-2.44a37.56,37.56,0,0,0-3.24-3.39,5.14,5.14,0,0,1-1.62-3.36l-1.9-.68a11.79,11.79,0,0,1-1.19,2.51,4.34,4.34,0,0,1-3.64,1.77l-.26,0a20.72,20.72,0,0,0-2.81.61l0,.16a3.64,3.64,0,0,0,.48,1.33l.68,1-1,.81a8.51,8.51,0,0,0-1,1,1.91,1.91,0,0,1-.34.63,2.81,2.81,0,0,1-.69,2.68,14.65,14.65,0,0,1-2.53,2.09l-.56.39-3.3-1c-2.9.76-3,.71-3.45.58a4.9,4.9,0,0,1-1-.59c-.27-.17-.56-.37-.75-.48l-2-.28-.61-.08-.36-.5a13.94,13.94,0,0,1-1.59-3.17,16.61,16.61,0,0,0-3.09-3.83,8.11,8.11,0,0,1-1.18,0,13.36,13.36,0,0,0-1.65.11l-.61.07-.47-.4c-.5-.42-1.09-.9-1.51-1.23l-.63.41L191,243l-.77-1.26a15.62,15.62,0,0,1-1-1.89l-.35-.07c-.1.19-.21.38-.32.55s-.26.37-.48.66a18.2,18.2,0,0,0-1.74,2.61,3.6,3.6,0,0,1-3.56,2.13,2,2,0,0,1-2.12-1.89c0-.14-.06-.31-.11-.52-.38-1.45.65-2.81,1.26-3.62.1-.13.18-.23.23-.32a5.12,5.12,0,0,1,.86-1,4.81,4.81,0,0,1,.34-2.32l.27-.72a1.48,1.48,0,0,0-.5,0,3.3,3.3,0,0,1-3.18.25,1.7,1.7,0,0,1-.72-.92c-.31-.26-.94-.71-1.39-1-1.87-1.32-2.89-2-2.67-3.25.07-.38.34-1.92.52-3a8.16,8.16,0,0,0-1.85-.65,3.54,3.54,0,0,1-2.49-1.62,4.1,4.1,0,0,0-.46-.52,39.62,39.62,0,0,0-4.21-.56,9.33,9.33,0,0,0-1.51,1,1.64,1.64,0,0,1-.49,1.13,4.34,4.34,0,0,1-2.71.84,1.65,1.65,0,0,1-1.8-1.51h-.37c-.88.63-2.42,1.75-2.85,2.11a5.26,5.26,0,0,1-2.45,1l-.21,0a6.85,6.85,0,0,1-2,0l-1.12-.08c-.42,0-.46,0-.61.18a1.89,1.89,0,0,1-1.41.69,6,6,0,0,1-2-.57c-.31-.12-.6-.24-.77-.28-.33-.07-2-.13-2.56-.13l-.9.06a14.51,14.51,0,0,1-3,.08,2.1,2.1,0,0,1-1.26-.78l-.11.06a38.61,38.61,0,0,1-3.48,1.7l-.35.16-.38,0a8.82,8.82,0,0,1-3.37-1.07,3.15,3.15,0,0,0-.75.37,4.63,4.63,0,0,1-1.17.55,4.51,4.51,0,0,0-1.64,1.43,2.92,2.92,0,0,1-1,1.25,3.6,3.6,0,0,0-.31.25,2.44,2.44,0,0,0-.37.43,4,4,0,0,1-.94,1l-.2.15a3.67,3.67,0,0,1-1.82.8,3.89,3.89,0,0,0-1.06.42l-1.11.67-.25-.34c0,.22.06.46.09.72.08.86.7,3.62,1,4.77l.55,1.26-.7,2-.5.26c-.75.38-2.09,1.1-2.52,1.38a12.83,12.83,0,0,0-1.59,1.88l-.21.29-.33.16a9.16,9.16,0,0,0-1.87,1.13c-.28.28-.55.61-.77.88a2.77,2.77,0,0,1-1,.93l-2.08,1.19-2,1.14-.19.29a8.34,8.34,0,0,1-1.22,1.58c-.43.39-3.26,2.26-4.36,2.26-.8,0-1.29,0-3.84-5.05l-4-3.25s-.88-.94-1.47-1.6a8.17,8.17,0,0,1-.64-.84h-.37a2.5,2.5,0,0,1-1.05-.15,10.32,10.32,0,0,0-1.37-.21l-.42,0a1.76,1.76,0,0,1-1.53-.7c-.17-.26-.24-.42-.44-1.77l-.19-1.33,1.32-.26.14,0-.32-.24L88,242l-.47-1.7a1.94,1.94,0,0,0-.38-.39c-.86-.1-2.54-.43-2.74-.47l-1.14-.23v-3.78l5.95-2.72a4.61,4.61,0,0,1-.11-1l-.12,0-3.17-5.61-4.26,1.25-.55-1c-.39-.7-2.33-4.24-2.7-5.14a40,40,0,0,0-2.35-3.4c-.4-.55-.76-1-1-1.34a9.94,9.94,0,0,1-1-2l-3.1.81-3.56-6.15-1,.36L66,208.8l-.59.15-.49-1.07c-3.82-8.31-3.93-9-4-9.21-.08-.49-.23-1.14-.29-1.42-1-2.11-2.09-4.43-2.32-4.89l-.07-.07a4.32,4.32,0,0,1-.81-.14l-2-.57-1.39.53c-1.32.53-1.59-.05-3.4-3.86l-.93-2c-7.82,3.11-12,4.73-12.57,4.81a1.55,1.55,0,0,1-1.69-.72,1.73,1.73,0,0,1,.33-2l0-.34a1.44,1.44,0,0,1-1-.93c0-.05,0-.12-1-3.65l-1.28-.5-.24-.48c-.33-.65-.74-1.42-1-1.82l-.15-.1A2.52,2.52,0,0,1,30,178.79a3.24,3.24,0,0,1,.28-1.76,1.42,1.42,0,0,1,.62-.57,6.58,6.58,0,0,1-.86-1.14s-.84-1.55-.24-2.54l.11-.15,0-.07c-.33.13-.62.22-.75.26l-1.07.31-.56-1a10.62,10.62,0,0,0-.62-.94l-.25.15-1.12.73-.8-1.07c-1.15-1.56-1.71-2.76-1.68-3.57a4,4,0,0,1,.29-1.36,2.18,2.18,0,0,0,.13-.46,3.35,3.35,0,0,0,0-.61,2.69,2.69,0,0,1,.27-1.54l.3-.51.8-1.34-.1-.32-.06-.27-.09-.7-8-.27-1.45-7.14,4.17-15.79,2.14-6.28c0-.31,0-.63,0-.91-.3,0-.82.12-1.21.2l-1,.2-3.14-5-2-.41c-1.55-.32-2.45-.51-2.85-.65a3.52,3.52,0,0,0-1-.19H10l-1.71-1.32-1.19-1L6.73,121l-1-.27-2.14-4.89,2.49.33,1.92.23c.06-2.23.18-3.75,1.1-4.52l.68-.54.16-.13,0-.08a4.19,4.19,0,0,1,1.59-2.61,10.62,10.62,0,0,1,1.45-.81l.43-.2a8.58,8.58,0,0,0,.83-.42c.12-.33.39-1.2.58-1.9l.07-.25.15-.21a3.84,3.84,0,0,0,.26-.42c0-.54-.09-1.62-.09-1.62l-.12-2.11,2,.69a20.11,20.11,0,0,1,3,1.32,5.52,5.52,0,0,0,.72.35,3.61,3.61,0,0,1,2,1.52l.18.33c.68.1,1.25.24,1.28.25l1.05.25,0,1.08a8.1,8.1,0,0,0,.12,1.24,2.87,2.87,0,0,1,.08.5l.62-.42c1.27-.87,2-1.32,2.72-1.27l.46.05h0a2.37,2.37,0,0,1,2.12-.71c1,0,2.44,0,3,0h.3A1.48,1.48,0,0,1,36.31,107a1.31,1.31,0,0,0,.14.37l.6.13a8.33,8.33,0,0,0,1.93.34,9.93,9.93,0,0,0,1-.35l.43-.16a34.33,34.33,0,0,0-.21-3.47c-.11-1-.12-4.6-.12-5V97.07l12.27,2.72,1.55.6,3.94-.58.07,1.44.77.39a5,5,0,0,1,2.72-.92,7.21,7.21,0,0,1,5,2.27,3.69,3.69,0,0,0,1.16,1l3.21-.76L83,105.35a21.78,21.78,0,0,1,2.76-1.79,1.46,1.46,0,0,1,.53-1.1l.52-.42.59.11,6.71-.06H95l.42.71c.26.44,1.54,2.75,1.41,4.51l0,.37a5.71,5.71,0,0,0,.64,0l.09-.16a33,33,0,0,1,1.06-4,15.13,15.13,0,0,0,.59-2.06l.39-1.78,1.63.81a4.56,4.56,0,0,0,1.28.42c.49,0,3-.72,4.29-1.1l-1.8-2.49,2.17-.42,3-.6c.25-.13.71-.41.71-.41l.71-.42-.08-.17.51-.09.21-.12,0,.08,1.36-.24v-.6l2.77-.63.52.61a2.16,2.16,0,0,0,.3-.17l.45-.35c.28-.22.55-.43.85-.64s1.69-1.24,1.69-1.24l1-.77,2.88,3.14-.2.75a2.1,2.1,0,0,0,0,1l.07.05a3.29,3.29,0,0,1,2.31-.4,9.38,9.38,0,0,1,1.44.17,6.76,6.76,0,0,0,.73.13l.27-.32a3,3,0,0,1,.86-.79v-.48l-.69-.11-2-4.3.59-.69a4.23,4.23,0,0,0,.39-.53,2,2,0,0,1,1.6-1.5h0a5.11,5.11,0,0,1,1.51-.85,5.38,5.38,0,0,1,1.86,0l2.29.17-.66,1.1c.15,0,.5,0,1.65.23l4.34.69L138,89.85a2.88,2.88,0,0,1,.48,1.48c.4.39.84.79.85.8l1.31,1.2-.19.13.79.44.54.31.14.6.07.3h.17l1.62-.1-.12,1.62h0a5.51,5.51,0,0,0,.16,1.37,9.45,9.45,0,0,0,.47,1.44c.09.22.16.41.21.57a4,4,0,0,1,.14.76,4.82,4.82,0,0,1,.66.15l.12,0a5,5,0,0,0,.84.21,7.27,7.27,0,0,1,1.12,0h.34l0-.09,0,.09h.09v-.64l-.3,0V99.18l.16,0,.13-1V94.76l.85,2.08a3,3,0,0,1,.15-.4l.24-.51a8.41,8.41,0,0,0,.36-.81c0-.08,0-.48,0-.74l0-.79,2.46-1.64.77.45a3.07,3.07,0,0,0,.49.23l.48,0c1.54.15,2.38.23,2.64,1.28a7,7,0,0,1,.12,1.07c0,.7-.1.82-2.6,3.22a1.38,1.38,0,0,0-.29.35l0,.17.66.36,1.17-1.72,5.66,2.83-1,1a11.43,11.43,0,0,0,1.38.2l1.28.1,0,1.28a4.83,4.83,0,0,0,1.67,3.32c2.08,1.61,14.57,9.14,16.17,9.75l.17,0a26.49,26.49,0,0,0,1.68-2.48c0-.45-.13-1.33-.2-1.9l-.15-1.23,3.8-1,.54,1c.33.59.72,1.25,1.06,1.8a3.45,3.45,0,0,1,1.44-.85,3.82,3.82,0,0,0,.69-.38l-.19-1.63.69-.49.43-.31c-.2-.93-.23-1.76.68-2.21l.25-.1a9.33,9.33,0,0,0,3.27-1.81l1.52-1.55.81,2a13.4,13.4,0,0,1,.69,2.52,12.51,12.51,0,0,0,.34,1.42c.18.54.38,1.24.57,1.86l.15.51,5.88-.28-1-4.47,1.72-.05.48,0c0-.31,0-.57,0-.57l-.09-3.43,2.49,2.36a7.46,7.46,0,0,0,.82.68,5.38,5.38,0,0,0,1.12-.48,1.53,1.53,0,0,1,.88-.62,2.08,2.08,0,0,1,1.82.58l.21.16h0a2.25,2.25,0,0,1,1.66,0l.13.07a2.21,2.21,0,0,1,.21-.61c1.46-2.79,2-3.16,3-2.92l1.08.27v.14l1.47-3.42.89,4.47v0a1.93,1.93,0,0,1,.15-.25,2.49,2.49,0,0,0,0-.25l-.32-1.88,1.9.24a3.48,3.48,0,0,0,.67,0l.1,0,.17-2.32L225,98l.25-.1A2.35,2.35,0,0,1,226,97L226,97l.41-1.1a28.28,28.28,0,0,0,.89-2.71c.07-.5,0-3.48-.19-6l-.09-1.5h1l.11-.58,1-.14.26,0,0-.08a9.76,9.76,0,0,1,.75-1.32,3.12,3.12,0,0,1,.74-.72c.21-.4.33-.59.42-.74h0c0-.22.1-.76.13-1.17l.08-.94.9-.29.73-.27c0-.26.09-.57.12-.79a5.66,5.66,0,0,1,.35-1.67,3.24,3.24,0,0,1,1.59-1.26l.23-.12.47-.29a4.06,4.06,0,0,1,2-.91,4.22,4.22,0,0,1,1.58.44c.26-.62.54-1.29.68-1.58l.07-.15a1.92,1.92,0,0,1,1.94-1.35,1.71,1.71,0,0,1,1-1,1.64,1.64,0,0,1,1.46.16,3.6,3.6,0,0,0,.92.4,3.56,3.56,0,0,0,.78-.12,7,7,0,0,1,1.19-.42,4.3,4.3,0,0,1,1.06-2.06h0a.37.37,0,0,1,0-.08,2.19,2.19,0,0,1,2.06-2c.45-.09.88-.18,1.24-.28a1.72,1.72,0,0,1,.13-.41,1.67,1.67,0,0,1,1.09-.93A32,32,0,0,0,256,63.12l1.44-1,.7,1.63c.35.81,1.32,3.06,1.67,3.69a12.08,12.08,0,0,1,.87,2.15c.07.23.15.46.23.69a2.76,2.76,0,0,0,.22.47c.61-.13,1.16-.27,1.32-.32a1.57,1.57,0,0,1,1.2-.07,10.71,10.71,0,0,0,1-1,2.08,2.08,0,0,1,1.06-.76c.89-.23,1.39.33,2.2,1.24l.52.57s2.3,2.68,2.58,4.09a19.24,19.24,0,0,0,2.29-.07,10.74,10.74,0,0,0,1.34-.25l1.09-.33.57,1,0,.06.51-.12,1.47-.36.26,1.49a4.59,4.59,0,0,0,.19.7l.6-.36a1.88,1.88,0,0,1,1.7-.41,4.36,4.36,0,0,1,1,.57,17.17,17.17,0,0,0,1.56,1,2.26,2.26,0,0,0,.72.16l.7,0L287.56,81l-.81.41c.1.23.22.47.32.67a3,3,0,0,1,.46,1.35,2,2,0,0,1-.16,1,7.85,7.85,0,0,0,1-.66c.83-.75,1.35-1.15,1.35-1.15l.44-.34,6,.48L296,84.13a8.47,8.47,0,0,0,.29,3.5c.58.72,1.38,1.94,1.9,2.76L300.3,90l.36.12a14.49,14.49,0,0,0,2.66.69h0c.22,0,1.16-.15,2-.27,3.92-.56,4.07-.58,4.65-.07l.49.42v.38l0,.09a7.61,7.61,0,0,1,.82,2.65c0,.38.07.89.13,1.37l.25.06a2.87,2.87,0,0,1,1,.73l.25.23a4.25,4.25,0,0,0,.15-.5l0-.14.2-.62a12.9,12.9,0,0,0-1-1.55,2.4,2.4,0,0,1-1.18-1.82l-.13-1.26,1.24-.26a15,15,0,0,1,2.19-.36c.2,0,1.2-.11,2-.21l1.62-.2,0,1.49c.8-.73,1.43-1.21,2.28-1a1.54,1.54,0,0,1,1.09.93,2.73,2.73,0,0,0,.48.65l.08,0,.18.09a2.56,2.56,0,0,1,.75-.29l.9-.18.36.5.68-.74.85-1,1,.74a19,19,0,0,0,2,1.27,7.09,7.09,0,0,1,1.3.31c.58-.27,1.16-.56,1.35-.68a1.47,1.47,0,0,1,2.23.4,31.27,31.27,0,0,0,3.17.55,29.34,29.34,0,0,1,4.13.8l1.44.35-.42,1.42a3.3,3.3,0,0,0-.13.94,2.34,2.34,0,0,1,.26,1.9,6.83,6.83,0,0,0,.7.68,10,10,0,0,0,1.68,1.16l1,.52-.27,1.08a5.33,5.33,0,0,0,0,2.11l.45,2-1.23,2c-.44.47-1.92,2-2.33,2.38l-.26.21,1.16,1.82-1.13.78c-.42.29-.86.62-1.12.83a13.38,13.38,0,0,1-.39,1.41l-.39,1.21-1.25-.25c-1.09-.22-2.38-.48-2.84-.55,0,.26-.07.47-.09.55l-.06.32-.19.26s-1.33,1.87-1.76,2.51a4.89,4.89,0,0,1-.67.79l2.57,3.71-1.6.68a11.1,11.1,0,0,0-1.6.86l.31.39,1.18.12.06,1.63,3.94.77,0,5.29c-.15.77-.74,3.36-2,4.37a8.12,8.12,0,0,1-2.6,1.21,6.61,6.61,0,0,0-.67.24c-.27.14-.71.42-1.16.72s-1,.63-1.47.92c-1,.57-3.54,2.22-3.57,2.24l-.25.16-.29,0c-1.79.3-4.72.8-5.17.89a8.2,8.2,0,0,1-1.94.1h-.89l-.92-1.9h-.66l-.85-1.38c-.06-.09-1.46-2.27-2.4-4.11a22.66,22.66,0,0,1-3.6-.08,11.39,11.39,0,0,1,1.2.35l.73.26,1.49,6.46-1,.27a2.43,2.43,0,0,1,1,1.79,3.88,3.88,0,0,1-.66,1.73l-.17.21a4.87,4.87,0,0,1,.06.59l.53.75.33.45,0,.4.62-.4.74-.48.76.45a5.82,5.82,0,0,1,2,1.71,11.25,11.25,0,0,0,1.16,1.27l1.15,1.11-.87.71.13.26a12.74,12.74,0,0,1,2.69,3.46c.19.56,1.87,4.3,2.88,6.52l.58,1.27-1.26.6c-3.13,1.48-7.77,3.7-8.29,4-.68.44-2.21,1.26-2.64,1.49l-.84.63c.19.59.39,1.14.48,1.33a14.75,14.75,0,0,0,1,1.8,28.67,28.67,0,0,1,2.08,3.47,19.58,19.58,0,0,1,.76,3.62l.07.42a2.34,2.34,0,0,1-.45,2.2,7.88,7.88,0,0,0-.77,2.14l0,.16a2.73,2.73,0,0,1-1.05,1.64,5.29,5.29,0,0,1-1,.71l-.15.09a3.32,3.32,0,0,1-2,1.68,6.86,6.86,0,0,0-.65.27,5.29,5.29,0,0,1-1.49.51l-.21,0a16,16,0,0,1-1.07,1.89,2.2,2.2,0,0,0-.39,1.25c0,.16.05.34.09.54a7.66,7.66,0,0,1,.16,2.31c-.08.69-.33,2.35-.45,3.11.92,2.16,1,2.64.6,3.31l-.42.64H306l-1.29.17-.21,0-.2,0a60.21,60.21,0,0,0-7.58-.78,6.44,6.44,0,0,0-3,1l-1.35,1-.36-.72c-3.11.65-3.17.63-3.57.49a2.45,2.45,0,0,1-.9-.59l-1.9.45-.56-.54c-.62-.61-1.33-1.25-1.65-1.49a1.59,1.59,0,0,0-.32.09l-.71.28.82,1.36-.3.56c.2.33.47.81.88,1.53l.6,1.06-1,.75-.11.09a20.66,20.66,0,0,1,.76,4.25c.27,5.54.8,7.85,1.2,8.81a15.79,15.79,0,0,0,1.53,3.08,3,3,0,0,1,.88,2.15l0,.15,0,.15a47.39,47.39,0,0,0-.36,4.86,1.6,1.6,0,0,1-.09,1.12c-.39.84-1.26,1.13-2.72,1.63-.62.21-1.32.45-2,.73a12.1,12.1,0,0,0-2.47,1.38c-.68,1.32-1.41,2.86-1.51,3.21a3.44,3.44,0,0,1-1.41,1.81l1.22,3.46.16.45-.15.46-.22.69.52,1.41c1.46,4,1.69,4.7,1.69,5.2v1.88l-.37.41a5.6,5.6,0,0,1-1.85,1.39,3.91,3.91,0,0,0-1.17,1c-.06.18-.13.45-.2.71,1.24,1.38,1.19,1.94,1.16,2.29,0,.18-.07.48-.14.81,0,.15-.06.3-.09.43a8.67,8.67,0,0,1,.82,1.61,2.68,2.68,0,0,1,.12.53l2.1.44.69.14.31.63,1.12,2.27c0,.1.15.3,1.45,4.11l.38,1.13-1,.57c-.67.37-1.43.79-2,1.11a15.31,15.31,0,0,0,.83,1.6,8.8,8.8,0,0,1,.5,1l.26.52c.57-.06,1.52-.21,2.31-.36l.71-.13.52.5c.36.34.76.7,1,.9l.88.15,1.08.19.3,3.74-3.71.68-.52-.47L284.5,284l-1.6.56-1.48.52a9.78,9.78,0,0,1-2.35,0c-.39.12-1.34.46-2,.69a12.7,12.7,0,0,1-2.25.73c-.15,0-.77.15-1.24.26l-.25.06-2.54-.34-3.22-1,.41-.7-.32-.09Zm-4.17-1.52Zm17.32-.56.19,0Zm-14.89-.76h.41l2.45-2.91.9.29c.37.12,1.46.45,2,.55a1.9,1.9,0,0,1,1.44,1.07,1.86,1.86,0,0,1,.12.34l.34.11,1.64.21c.37-.08.91-.2,1.23-.25s1.08-.37,1.7-.59c2.38-.85,2.61-.93,3.08-.85.21,0,1.17.06,1.52,0l.58-.2a6.42,6.42,0,0,1-.88-1.48,6.46,6.46,0,0,0-.33-.64c-1.48-2.28-1.88-3.86-1.2-4.67.15-.18.31-.37,2.32-1.49-.45-1.31-.86-2.5-.94-2.69l-.79-1.6c-2.82-.57-2.91-.66-3.22-1a1.83,1.83,0,0,1-.46-1.45,1.71,1.71,0,0,0,0-.33,14.9,14.9,0,0,0-.76-1.37,2.76,2.76,0,0,1,0-2.11l0-.16a11,11,0,0,0-.83-.93l-.54-.54.16-.75a17.25,17.25,0,0,1,.48-1.85,5.77,5.77,0,0,1,2.82-2.66,2,2,0,0,0,.38-.28v-.64c-.14-.6-1.06-3.09-1.51-4.31-.86-2.33-.86-2.33-.69-2.85l.21-.65-1.4-4a1.69,1.69,0,0,1,.89-1.92,7,7,0,0,0,.81-.67,36.65,36.65,0,0,1,1.85-4l.12-.23.19-.17a13.18,13.18,0,0,1,3.42-2c.77-.33,1.52-.58,2.19-.81l.88-.31a45.7,45.7,0,0,1,.36-4.75,3.45,3.45,0,0,0-.07-.34,15.78,15.78,0,0,1-2.12-4c-.71-1.73-1.17-4.91-1.4-9.75a15.9,15.9,0,0,0-.7-3.78l-.27-.2,0-.73a1.67,1.67,0,0,1,.5-1.18c-.23-.39-.42-.72-.5-.85a1.6,1.6,0,0,1-.25-1.48l-1.85-3.09,3.93-2.59.93,1a2.64,2.64,0,0,1,1.76.29,13.42,13.42,0,0,1,1.72,1.43l1.8-.42.55.48.42.37c.71-.13,2-.4,3.23-.65l.55-.12a9.13,9.13,0,0,1,3.53-1,51.75,51.75,0,0,1,7.45.7l-.19-.46-.16-.37.06-.4s.39-2.53.5-3.42a5.43,5.43,0,0,0-.14-1.47c0-.27-.09-.52-.12-.74a5,5,0,0,1,.91-3.23,20.26,20.26,0,0,0,1.17-2.19l.38-.81h.9a6.79,6.79,0,0,0,.75-.06,4.46,4.46,0,0,0,.68-.28,9.7,9.7,0,0,1,.94-.39c.28-.09.32-.15.41-.34a2.78,2.78,0,0,1,1.18-1.17,2.69,2.69,0,0,0,.49-.35l.23-.22.05-.21a10,10,0,0,1,1.18-3.06l0,0c0-.14-.06-.32-.1-.54a29.71,29.71,0,0,0-.57-3,30.75,30.75,0,0,0-1.67-2.79,16.76,16.76,0,0,1-1.36-2.32,25.47,25.47,0,0,1-1-2.71l-.29-.95,2.71-2c.52-.27,2-1.06,2.52-1.42s4.88-2.44,7.36-3.61c-.81-1.8-2.18-4.85-2.4-5.49a14.62,14.62,0,0,0-1.91-2.31,2.84,2.84,0,0,1-.8-1.11c-.09-.17-.17-.35-.24-.45a1.7,1.7,0,0,1-.24-1.37,6.91,6.91,0,0,1-.86-1.09,1.85,1.85,0,0,0-.23-.19l-.25.16a3.32,3.32,0,0,1-3.53-.56,2.75,2.75,0,0,1-.47-1.68,5,5,0,0,1-.63-1,2.33,2.33,0,0,1-.14-.8,1.77,1.77,0,0,0,0-.42,2.1,2.1,0,0,1,.43-2c-.83-.39-1.72-1.16-1.72-2a4,4,0,0,1,.46-1.54l.26-.66.84-.23L309,139.7a3.27,3.27,0,0,1-.31,1.17c-.59,1.24-2.47,1.73-3.54,1.91l-1.4.24-.23-1.4a10.65,10.65,0,0,1-.13-1.61,4.4,4.4,0,0,1,.11-1l0-.1-11.25.18,11.62-3-.82-3.49,2.28.6a25.71,25.71,0,0,0,8.33.73l1.06-.14.43,1a47.08,47.08,0,0,0,2.66,4.68l0,.05h.85l.92,1.88.42,0c.33-.07,1.35-.25,5.05-.88.68-.44,2.57-1.65,3.44-2.15.46-.27.92-.57,1.34-.84a15.83,15.83,0,0,1,1.44-.88,7.55,7.55,0,0,1,1.08-.4,5.79,5.79,0,0,0,1.71-.75,6.91,6.91,0,0,0,1-2.54v-2.54l-3.86-.75-.05-1.52-.56-.7-2,.52-.12-1.71c-.11-1.65,1.47-2.95,2.89-3.78l-2.22-3.2,1.2-.8a4.69,4.69,0,0,0,1-.91c.34-.51,1.23-1.76,1.62-2.31a7.47,7.47,0,0,0,.09-.8,1.65,1.65,0,0,1,.5-1.18,2.92,2.92,0,0,1,2.17-.62,13,13,0,0,1,2.14.36c0-.59.41-1.08,1.19-1.69l-1.15-1.81,1.13-.78c.31-.21.89-.63,1.13-.83s1.17-1.17,2-2.05l.4-.68-.2-.92a8,8,0,0,1-.15-2.34,11.94,11.94,0,0,1-1.35-1,6.45,6.45,0,0,1-1.5-1.69,1.92,1.92,0,0,1-.12-1.66v0a3.11,3.11,0,0,1-.32-1.58,21,21,0,0,0-2.19-.42,31.65,31.65,0,0,1-4.57-.82l-.21-.08c-.56.28-1.13.54-1.29.61l-.52.24-.54-.2a8.33,8.33,0,0,0-1.19-.35c-.25,0-.68,0-2.29-1.07a4.67,4.67,0,0,1-1.25,1.08,1.73,1.73,0,0,1-2-.35,3.63,3.63,0,0,1-3.17-1.18,4.59,4.59,0,0,1-2.19,1.44,1.7,1.7,0,0,1-1.38-.4l.26.49-.54,1.69a5.69,5.69,0,0,1-.91,2.09,2.24,2.24,0,0,1-3.11.45,6.2,6.2,0,0,1-1-.83l-.25.06-1.52.38-.23-1.55c0-.08-.28-1.92-.34-3a4,4,0,0,0-.36-1.15c-.71.09-1.72.23-2.42.33-1.16.16-1.88.27-2.21.29a11.88,11.88,0,0,1-3.38-.71l-3.28.66-.52-.84s-1.43-2.32-2.23-3.32a7.21,7.21,0,0,1-1-4.08L291,85.15l-.78.68a28.54,28.54,0,0,1-4.15,2.46l-1.2.61L282.71,85l.81-2.44.68,0a7,7,0,0,1-.33-.83,2.49,2.49,0,0,1-.08-1.21l-.24-.33a5.07,5.07,0,0,1-1-.3,13.92,13.92,0,0,1-1.94-1.15,4.48,4.48,0,0,1-2.25.77,2.5,2.5,0,0,1-2.13-1.78,2.12,2.12,0,0,1-.42,0,1.69,1.69,0,0,1-1.36-.75l-.72.11a27.3,27.3,0,0,1-3.84.07H269l-.5-.53a1.81,1.81,0,0,1-.3-1.59c0-.06,0-.14,0-.21a17.86,17.86,0,0,0-1.82-2.6l-.34-.37a6.36,6.36,0,0,1-1.11.88,2.22,2.22,0,0,1-1.82.29c-.39.11-1.07.28-2.31.53l-.75.15-.54-.54a6.08,6.08,0,0,1-1.31-2.1c-.09-.25-.17-.5-.25-.75a9.63,9.63,0,0,0-.66-1.67c-.26-.47-.71-1.46-1.1-2.34-.46.31-.83.55-1.12.73l.58,1-1.66.54a24.71,24.71,0,0,1-2.62.67,2.69,2.69,0,0,1-.75,1.35,3,3,0,0,0-.41,1.26,1.61,1.61,0,0,1-1,1.41l-.75.29-.19-.14a5.77,5.77,0,0,0-.75.22,5,5,0,0,1-1.84.37,3.41,3.41,0,0,1-1.33-.23,1.87,1.87,0,0,1-1.73.82c-.28.63-.84,2-1.06,2.52l-.54,1.32L239.79,78c-.58-.25-1.29-.53-1.71-.68l-.62.38c-.27.17-.5.32-.65.4l-.27.14-.34.18c0,.18-.06.4-.09.63a6,6,0,0,1-.44,2c-.17.31-.43.63-1.46,1,0,.24-.06.48-.1.65a2.51,2.51,0,0,1-.38.9,3.2,3.2,0,0,0-.21.38,2.71,2.71,0,0,1-.93,1.12c-.09.07-.09.07-.12.11a9.37,9.37,0,0,0-.49.91c-.41.82-.68,1.36-1.43,1.51h0l-.17.89H230a37.88,37.88,0,0,1,.05,5.17,19.22,19.22,0,0,1-.61,2,1.73,1.73,0,0,1,.74,1.9,2.17,2.17,0,0,1-1.54,1.4,4.32,4.32,0,0,1-1,.38,1.85,1.85,0,0,1-.34.48,2,2,0,0,1-.46.34l-.16,2.29-.78.34s-.74.32-1.15.47a2.27,2.27,0,0,1-.37.09,1.89,1.89,0,0,1-.33.65,2.85,2.85,0,0,1-.34.76,2.31,2.31,0,0,1-3.07.88l-.23-.1a4.61,4.61,0,0,1-.91.5,1.82,1.82,0,0,1-1.46,0,2.55,2.55,0,0,1,0,1,1.48,1.48,0,0,1-.68,1.13,2,2,0,0,1-1.82.05,8.75,8.75,0,0,1-1.68-.8l-.37.11a2.34,2.34,0,0,1-2-.47,6.11,6.11,0,0,1-2.71.88,1.68,1.68,0,0,1-.41-.07,2.32,2.32,0,0,1-1.26.78l1,4.59-1.68.08c-8.82.45-8.82.45-9.15.34-.76-.26-.85-.56-1.43-2.51-.18-.6-.37-1.27-.54-1.78a14.83,14.83,0,0,1-.43-1.74l0-.21a16.47,16.47,0,0,1-1.5.74,2.34,2.34,0,0,1,.1.61c0,.65-.31,1-1.1,1.59l.19,1.59-.63.49a8.91,8.91,0,0,1-2.2,1.29c-.25.08-.3.11-.58.51a1.73,1.73,0,0,0-.15.25,1.8,1.8,0,0,1-1.5,1.09c-.71.06-1.16-.1-2.3-1.89-.26,1.4-2.64,4.27-2.67,4.3a2.65,2.65,0,0,1-2.52.54c-1.65-.25-15.84-9.1-17.39-10.3a7.35,7.35,0,0,1-2.6-4.26,6.68,6.68,0,0,1-2.4-.77,2,2,0,0,1-.93-1.49,2.14,2.14,0,0,1,0-.57l-.45-.23-1.22,1.8-1.53-.84L152,103l-.62-1.64c-.19-.51-.34-.92-.44-1.25a1.58,1.58,0,0,1-.42.47c.06.22.12.46.18.69.18.72.51,2.07-.8,2.5a1.43,1.43,0,0,1-.74,0,7.63,7.63,0,0,1-1.78.13c-.27,0-.52,0-.68,0a4.61,4.61,0,0,1-2.13-.31l-.12,0a5.71,5.71,0,0,0-.63-.11,2.07,2.07,0,0,1-1.7-.84,2.46,2.46,0,0,1-.27-1.2,5.77,5.77,0,0,0-.06-.64c0-.1-.08-.22-.14-.36a12,12,0,0,1-.59-1.84c0-.17-.07-.33-.1-.49a1.68,1.68,0,0,1-.31-.08,2.06,2.06,0,0,1-1.34-1.84l0-.16c-.39-.21-.91-.49-1.35-.7a1.94,1.94,0,0,1-1.24-1.61,1.75,1.75,0,0,1,0-.21l-.4-.39a2.24,2.24,0,0,1-.63-1.57.94.94,0,0,0,0-.16h0l-.09-.09a4.66,4.66,0,0,1-.69-.76l-.51-.07a4.49,4.49,0,0,1-2.06-.31,1.9,1.9,0,0,1-.87-.77l-.36.25a2.17,2.17,0,0,1-.57.29,4,4,0,0,1-.26.47l.61,1.33,1.64.27-.15,5.25-1.15.19-.31,0c-.16.2-.36.43-.6.67-.94.94-2.33.65-3.16.47a3.51,3.51,0,0,0-.44-.08l-.6,0-.47,0a1.88,1.88,0,0,1-2.92.21l-.59-.49A3.47,3.47,0,0,1,121,95.12l-.16-.18-.75.54c-.25.17-.47.35-.7.53l-.5.39a4.43,4.43,0,0,1-2.69.93l-.69.12.31.71-1.23.6a4.92,4.92,0,0,1-2.24.52,2.3,2.3,0,0,1-1.07-.39l-.25.1c-.07,0-.17.05-1.23.27l.4.6a1.61,1.61,0,0,1,0,1.39,1.76,1.76,0,0,1-1.27.9l-1,.28c-3.76,1.07-5,1.37-5.67,1.32a4.5,4.5,0,0,1-.73-.12,9.05,9.05,0,0,1-.37,1,33,33,0,0,0-.87,3.38,3.06,3.06,0,0,1-1.16,2c-.26.2-1.06.8-4.1.3l-1.29-.21.11-1.3s0-.34.13-1.72a5.6,5.6,0,0,0-.66-2.15l-4.8,0-.08.56-.79.29A17,17,0,0,0,84.29,108l-.5.4L70.94,106.1l-2.8.66c-1.68.41-3.35-1.4-3.82-2a4.43,4.43,0,0,0-2.87-1.25,2.84,2.84,0,0,0-1.56.77l-.7.67-.89-.41a9.17,9.17,0,0,1-2.51-1.39l-.17-.2-2,.29-2.14-.83L43,100.6c0,1.24,0,2.51.09,2.92.55,4.83,0,5.49-.26,5.8l-.39.47-.67.08-.72.27a11.15,11.15,0,0,1-1.42.46,7.55,7.55,0,0,1-3.22-.35l-.58-.14a2.76,2.76,0,0,1-1.9-1.52c-.7,0-1.62,0-2.42,0A2,2,0,0,1,31,109a2.85,2.85,0,0,1-2,.31h0c-.29.16-.83.52-1.17.76s-.79.53-1.09.71a2.23,2.23,0,0,1-2.85-.37l-.07-.07a1.88,1.88,0,0,1-1-1.88.76.76,0,0,0,0-.14,5.86,5.86,0,0,1-.12-.7l-.17,0a2.2,2.2,0,0,1-1.91-1.38l-.18-.33a2.11,2.11,0,0,0-.6-.31,8,8,0,0,1-1.1-.54c-.14-.08-.32-.18-.52-.27a3.69,3.69,0,0,1-.64,1.43,13.9,13.9,0,0,1-.83,2.42,4.23,4.23,0,0,1-2.06,1.48l-.42.2a7.83,7.83,0,0,0-1.13.63,3,3,0,0,0-.37.95,3.17,3.17,0,0,1-.26.73,3,3,0,0,1-.92,1l-.47.37a14.17,14.17,0,0,0-.22,2.62c0,1.42-.06,2.36-1.14,2.69a2.07,2.07,0,0,1-.63.07l.3.69.64.54.94.73a6.34,6.34,0,0,1,1.41.32c.26.09,1.54.35,2.47.54a36.79,36.79,0,0,1,4.17,1,1.73,1.73,0,0,1,1.26,1.69,1.6,1.6,0,0,1-.4,1l.87,1.4a4.25,4.25,0,0,1,1.41-.05,2.66,2.66,0,0,1,.7,0c1.63.2,1.62,2.23,1.48,4.11l-.07.35L22.1,138l-4,15.05.88,4.29,8.13.27.38,3c.3.9.38,1.28.23,1.74a15.14,15.14,0,0,1-1.21,2.13l-.19.31c0,.05,0,.11,0,.18a5.88,5.88,0,0,1,0,1.15,4.88,4.88,0,0,1-.27,1,1.49,1.49,0,0,0-.11.39,5.5,5.5,0,0,0,.48.91,2.59,2.59,0,0,1,.94-.14c.34,0,1,.05,2,1.45a2.2,2.2,0,0,1,2.29,0,1.77,1.77,0,0,1,.84,1.54c.06.18.2.51.27.67a2.12,2.12,0,0,1,.26.92,1.69,1.69,0,0,1-.43,1.09h0a4.63,4.63,0,0,0,.42.56c.61.4,1,1.12.93,3.42l0,1.61c.19.34.4.73.63,1.18l1.59.63.19.68.94,3.42.94.12.19,1c.07.41.13.75.17,1,2.75-1.05,7.89-3.08,11.37-4.47l1.25-.5.56,1.22c.88,1.91,1.86,4,2.45,5.17l.69-.26.44-.17.45.13,2.52.71a3.43,3.43,0,0,0,.47,0c1.08,0,2,1.38,2,1.39.13.22,1,2,2.53,5.3l.09.26s.26,1,.38,1.81c.14.48,1.68,4,3.24,7.39l.71-.18.23.57.7-.24,3.65,6.31,3.63-.94.38,1.33a10.29,10.29,0,0,0,1,2.45c.2.29.54.75.92,1.27a28.11,28.11,0,0,1,2.69,4c.19.46,1.18,2.32,2,3.84l4.24-1.24,3.11,5.5.6-.21.56,1.12a4.06,4.06,0,0,1,.49,2.62,6.24,6.24,0,0,0,.31,1.22l.44,1.23-6,2.73.81.12A3.79,3.79,0,0,1,90,239l.1.17.33,1.2.48.37a2.12,2.12,0,0,1,.63,2.21,4.34,4.34,0,0,1-.33,1.09,6,6,0,0,1,.79.18l.08,0,1.29-1.47,1,1.78a9.3,9.3,0,0,0,1,1.46c.47.53,1.15,1.25,1.35,1.47l4.23,3.44.14.27c.62,1.23,1.38,2.65,1.88,3.47a16,16,0,0,0,2-1.24,8.47,8.47,0,0,0,.75-1c.4-.61.64-1,1.09-1.16l2-1.17,2.11-1.21.2-.25a14.34,14.34,0,0,1,1-1.1,10.18,10.18,0,0,1,2.34-1.53,11.59,11.59,0,0,1,2.1-2.28c.48-.32,1.53-.89,2.2-1.24l-.2-.51c-.1-.41-.95-4-1.06-5.29a7.61,7.61,0,0,0-.22-1.3l-3.67-4,2.85-.27a10.62,10.62,0,0,1,2.19,0s2.07.34,2.69,1.25a5.8,5.8,0,0,1,.77-.21,1.13,1.13,0,0,0,.68-.29l.23-.17a1.26,1.26,0,0,0,.32-.35,5.21,5.21,0,0,1,.75-.85,5.91,5.91,0,0,1,.52-.43h0l.12-.23a6.82,6.82,0,0,1,3.45-2.9,4.42,4.42,0,0,0,.45-.25,3.37,3.37,0,0,1,3.69-.34,5.59,5.59,0,0,0,1.81.61c1.16-.53,2.42-1.13,2.66-1.28a9.64,9.64,0,0,1,2-.87l1.54-.53.32,1.59,0,.08c.52,0,1.42-.08,1.91-.12s.94-.07,1.12-.07a26.1,26.1,0,0,1,3.18.2,9.1,9.1,0,0,1,1.17.41l.64.24a3.33,3.33,0,0,1,2.52-.73l1.16.09a8,8,0,0,0,1.21.05l.28-.06a2.9,2.9,0,0,0,1.18-.41c.67-.56,3.11-2.3,3.39-2.5l.37-.26h4.71a6.38,6.38,0,0,1,2.89-1.52,31.71,31.71,0,0,1,5.51.81,4,4,0,0,1,1.54,1.32,4.6,4.6,0,0,0,.54.59,13.68,13.68,0,0,1,3.84,1.39l.93.47-.18,1s-.39,2.27-.6,3.46c.38.31,1,.75,1.42,1a12.07,12.07,0,0,1,2.06,1.65l.13-.07a4.35,4.35,0,0,1,4.19.18l1.31,1-.42,1s-.37.9-.74,1.9a2.91,2.91,0,0,0-.2.87l.36,1.09.14-.2a7.22,7.22,0,0,0,.51-1l.39-1,1,.07c3,.21,3.52,1.1,3.67,1.84a3.06,3.06,0,0,0,.16.36,1.81,1.81,0,0,1,1-.3c.47,0,.71,0,2.78,1.73a10.3,10.3,0,0,1,1.64,0,8.88,8.88,0,0,0,1.28-.05l.65-.07.47.45c.59.56,3.58,3.47,4.26,5.38a11.92,11.92,0,0,0,.92,2c1.53.21,1.71.25,1.78.27a5.5,5.5,0,0,1,1.5.83l.23.15c.55-.12,1.54-.37,2.39-.59l.39-.1,2.75.84a11.1,11.1,0,0,0,1.32-1.06l.06-.08.16-.19a1.68,1.68,0,0,0,0-.17,2.07,2.07,0,0,1,.5-2.25,4.33,4.33,0,0,1,1-1.35,5.73,5.73,0,0,1-.37-1.47,2.13,2.13,0,0,0-.12-.51,1.82,1.82,0,0,1,0-1.49,1.9,1.9,0,0,1,1.2-.91,29,29,0,0,1,4.24-1l.27,0c1-.09,1.28-.15,1.57-.57a14,14,0,0,0,1.26-3.1l.42-1.45,6.43,2.29,0,1a4.53,4.53,0,0,0,.57,2.17,45.09,45.09,0,0,1,4.24,4.44l.54.62-.64,1.81,3,.29c.12,0,1.69.24,2.62.47a3.29,3.29,0,0,1,2.16,1.85l.09.23,0,.76,2.16,3.36-.94,1c.17.81.43,2,.51,2.52a7.93,7.93,0,0,0,.58,1.38,9.35,9.35,0,0,1,2,.64,2.6,2.6,0,0,1,.69.58l.72-.36,1,1.43,1.26-.53.24.4.91-.91.95,1.5c.53.84,1.15,1.8,1.56,2.42l.13,0,1.28-.33L258.7,266l2.33-.58.4,1.27c1.73,5.41,1.73,5.78,1.73,6a7.27,7.27,0,0,1-.41,1.82c-.06.21-.12.4-.16.54l0,.37c.26,2.23.28,2.75-.08,3.29l-.08.14a7.4,7.4,0,0,1-1.18,1.67c-.26.26-1.17,1.36-2,2.41l.13.07a19.08,19.08,0,0,0,2.48.3,2.28,2.28,0,0,1,1.73.71A2.17,2.17,0,0,1,263.85,284.31Zm19.56-4.08ZM260,277.69Zm.2-.54h0Zm0,0h0Zm17.32-21.75v0Zm-169.65-1.53h0Zm110.75-7Zm.08-.22h0ZM89.19,243h0Zm96.15-3a6,6,0,0,0-.81.81,6.33,6.33,0,0,1-.44.63,4.47,4.47,0,0,0-.76,1.26l0,.16a.62.62,0,0,0,.42-.41A15.43,15.43,0,0,1,185.34,240Zm7.07,1.44Zm83.38-.16h0Zm8.84-6.53h0ZM179.07,234h0Zm108.24-.11ZM91.89,232h0Zm194.83-5.5,0,0ZM173.9,224h0ZM58.65,192.32h0ZM53,189.46h0Zm-17.07-1.32Zm-3-10h0Zm-1.21,0h0Zm1.21-3.66h0Zm-.48-2.94h0Zm-5.1-.47h0Zm2.32-.09h0ZM25.9,167.4Zm292.37-13,.2.16a1.25,1.25,0,0,0-.18-.17Zm-.4-.23a1.09,1.09,0,0,1,.23.12v0Zm-11-17.81.19.79a2.41,2.41,0,0,1,1.31-.56C307.82,136.54,307.31,136.46,306.86,136.38Zm-285.42-6.5h0Zm161-16.6h0ZM29.12,109.21h0Zm183.49-3.08h0ZM210,105h0Zm.21-.31h0Zm11.63-1.49Zm.13-1h0Zm-73.72-.59a1.38,1.38,0,0,0,.94.15l-.14-.74h0A1.38,1.38,0,0,0,148.26,101.63Zm163-3.45Zm30.56-.57h0Zm-189.55-2.3c0,.09,0,.18,0,.26a2.27,2.27,0,0,1,0,.24l.42-.41Zm163-2.64.24.39c0-.13-.06-.26-.09-.41Zm6.53-.67h0Zm6.76,0h0Zm-9.66-.05Zm0,0h0Zm-8.37-.44h0ZM130.71,89.18h0Zm102.4-9.3Zm4.66-2.65h0Zm.57,0Zm10.39-3.73h0Zm-.84-.29h0ZM263.65,73h0ZM253.3,65h0Z"/></svg>