<svg id="Layer_1" data-name="Layer 1" xmlns="http://www.w3.org/2000/svg" viewBox="0 0 350 350"><defs><style>.cls-1{fill:#999;}.cls-2{fill:#f90;}</style></defs><title>M</title><path class="cls-1" d="M136.49,276.48a7.66,7.66,0,0,0-.31-1.48,10,10,0,0,1,3-2.31,32.5,32.5,0,0,0,3.54.6c2.33.25,3.8.63,3.86,3.4,0,2.53,1.92,3.59,4.19,4s3.1-.89,4-2.71c.61-1.19,2.51-2.77,3.4-2.54,2.16.56,2.7-.67,3.67-1.88,1.1-1.36,2.61-2.43,3.55-3.88,1.49-2.31,3.15-.82,4.79-.57a5.86,5.86,0,0,0,.86.08H182a5,5,0,0,1-.26-1.2,4.67,4.67,0,0,0,1.39.54q0,.63,0,1.27c0,1.18,1,2.41,1.58,3.58.19.37.75.59.87,1,.51,1.64.91,3.32,1.47,5.43.77-.34,2.15-.49,2.65-1.24,2.18-3.24,4.1-6.65,6.15-10,.48-.77,1-2,1.66-2.11,3.62-.69,7.31-1,11-1.64a10.89,10.89,0,0,0,3.64-1.27,50.55,50.55,0,0,0,4.36-3.15l.47.56.37-2.87c2.57-.56,3.53-2.33,4.35-4.09l1.46.24a35.21,35.21,0,0,1-3.51,4.8c-1.26,1.39-1.64,2.38-1,4a20.45,20.45,0,0,1,.94,3.29c.68,3.05,1.31,6.11,2,9.42a8,8,0,0,0,1.47-1.05c1.74-2.06,3.19-4.43,5.17-6.21,4.45-4,6.32-6.11,12.16-2.31,1.85,1.2,4.55,1.39,6.87,1.47,2.73.09,5.48-.74,8.21-.66,3.54.1,6.6-.32,8-4.07.89-2.33,1.58-4.74,2.45-7.38a15.27,15.27,0,0,1,3.28-.15c3.44.44,6.83-1.3,10.28-.12,2.06.71,3.32,2.68,2.35,4.63a3.06,3.06,0,0,0,.9,4.17,106.66,106.66,0,0,1,12,.3c2.68.2,3.24,2.42,3.74,4.49.14.57-.58,1.39-.39,1.9a4.52,4.52,0,0,1-2.07,5.76,23.6,23.6,0,0,0-2.37,1.61l-.29-.22,2.3-2.89a62.18,62.18,0,0,0-6.56.91,4.09,4.09,0,0,0-2.29,1.91c-2,3.79.34,8.15,4.48,9.27a6.48,6.48,0,0,1,3.61,3.49c.33.8-1.15,2.4-1.89,3.6-1.39,2.24-2.83,4.44-4.25,6.66l1,.79L294,298l14.31,3.59a25.14,25.14,0,0,1,.93-4.27c.88-2.19.23-2.89-2-3.13-5.37-.56-6.57-1.69-7.06-6.88-.16-1.74.59-3.55.81-5.33.19-1.5.79-3.29.22-4.46-1.18-2.42-.85-4.37.67-6.76a33.92,33.92,0,0,1,5.44,1.47c2.82,1.27,5.37.66,7.86-.27-.85-2.07-1.77-4-2.38-5.94-.68-2.24.27-4.45,2.31-4.93,1.27-.3,3,1.28,4.52,2.09.93.51,1.79,1.15,2.68,1.74.69-1.16,1.89-2.29,1.94-3.48a2.78,2.78,0,0,1,1.83-2.78,54.32,54.32,0,0,0,5.26-3.54l-.24-.9c-2.65.5-4.85-.13-5.39-2.77a37.28,37.28,0,0,1-.41-7.15c0-.58.45-1.56.88-1.67,2.61-.68,3.11-2.53,2.81-5l4.38,3.52.72-.52c0-2.44.5-5-.14-7.29s-2.42-4.12-3.64-6.08c-1,.17-1.77.36-2.53.42-3.57.31-5.1-.53-5.39-4s-.65-7.34,1.58-10.77c.73-1.11.63-3,.43-4.42-.16-1.19-1-2.29-1.58-3.43l.83-1c2.56.24,5.12.42,7.67.74,1.91.24,3.41.08,3.9-2.2.71-3.23,1.51-6.42,2.23-9.45a1.62,1.62,0,0,1-.11-.52c0-.1,0-.19,0-.29-.22-.27-.46-.55-.7-.83l.17,0a4.25,4.25,0,0,0,.46-.05c0-.28-.11-.55-.17-.83a1.64,1.64,0,0,1-.82-1.27,19,19,0,0,0-1-5.75l-.16.05c-.05-.25-.13-.5-.19-.75v0a1.62,1.62,0,0,1-.22-.72,8,8,0,0,0-2-3.14c-.28-.27-.14-.94-.29-1.39-1.86-5.4-3.73-10.79-5.91-17.05l-2.15,4.18-.35-.19,2.29-4.47c-2.13-.8-4.65-1.17-6.39-2.54-2.81-2.21-10.73-3.58-12.69-.88-.31.43-.65.85-1,1.26a11.12,11.12,0,0,1-1.35-2.84,32.78,32.78,0,0,1-1.3-14.35v0c.12-.79.26-1.59.46-2.38,1-4.06,3-5.27-2-7.32-5.55-2.27-10-8.81-6-14.74-.13.19-.94-3.35-1.29-5.24-1.5-.48-2.67-1.23-1.1-4.09,1.22-2.23.52-5.41,4.06-6.51.78-.24.94-3.3.91-5.06,0-2.37-.54-4.74-.78-7.12s.58-3.66,2.59-3.92a11.48,11.48,0,0,1,0-1.61c-1.06-3.37-4.43-4-7.22-5.4a5.35,5.35,0,0,1-2.49-2,14,14,0,0,0-7.06-7,78.06,78.06,0,0,0-8.66-2.85c.07-.37.15-.75.22-1.14-.29.11-.58.2-.87.29h0a17.8,17.8,0,0,1-2.57.65H272c-3.62,3-3,6.63-2.8,10.11.19,3-.49,4.66-3.31,6.93-1.07-1.08-1.94-2.47-3.19-3.1-2.17-1.09-3.9-.12-4.66,2.17-.91,2.72-6.54,5.39-9.31,4.47-1-.33-2-.51-3.51-.88,0-2-.1-4.14,0-6.23A7.86,7.86,0,0,0,242,71.46c-2.68-1.93-2.82-4.07-1.06-6.67,1.06-1.57,2.3-3.24.14-4.91-2.12,1.89-5.83,2-8.86.17-4.46-2.7-6.37-2.09-8.17,2.84a31.82,31.82,0,0,0-1.25,5.34c-.61,3.4-.56,6.51-5.42,7.72-4.59,1.14-8.64,4.47-13.19,7,1.15-6.37-3.29-6.82-7.84-7.15a5.71,5.71,0,0,1-1.42-.26c-4.72-1.62-4.76-1.65-7,2.72A4.39,4.39,0,0,1,184,81c-1.32.08-3.06.39-3.84,1.27-3.49,4-7.92,1.85-11.71,2.3A14.28,14.28,0,0,1,167,87.27c-1.69,2-3.49,4-5.27,6-.44.49-1,1.36-1.39,1.31-4-.42-6.31,2.94-9.5,4.29-1.77.75-2.24.21-3.42-1-4.4-4.67-4-11-6.31-16.45a3.54,3.54,0,0,1-.1-2.81c2.09-3.06,1-6.33,1-9.53,0-4.15.12-8.31-.11-12.45a7.12,7.12,0,0,0-1.73-4.2,7.24,7.24,0,0,1-1.33-2,7.53,7.53,0,0,1-4-2.3c-6,2.1-11.72,4.48-16.08,9.41A8.59,8.59,0,0,1,115.56,60c-3.93,1.46-8.06,2.4-11.91,4a25.32,25.32,0,0,1-12.78,1.57c-4.52-.48-6.66,1.93-8.77,5.19a12.17,12.17,0,0,1-3.72,3.12c-4,2.6-8.32,4.8-12.1,7.7-4.81,3.7-4.81,9.12-4,14.55.43,2.76.95,5.51,1.57,8.23.37,1.63-.21,2.45-1.63,3.2-7.06,3.7-14.35,7.08-21,11.43-3.56,2.33-7.25,3.08-11.07,4.08a4.46,4.46,0,0,0-1.9,1.12l.18.19-.45.11-.12.13c-1.66,2.28-3.65,3.65-6.85,3.14-.07-.35-.13-.68-.19-1-1.21.48-2.36,1-3.38,1.49-7,3.49-6.54,13.08.75,16.05,9.64,3.93,14.2-5.1,18.25-12.14a5.84,5.84,0,0,1,5.18,4c1.66,4.41.67,8.87-1.71,12.79a4.18,4.18,0,0,0,.5,4.82c-.28,4.55,2.51,9.77,4.84,14,1.82,3.28,1.81,3.79,1.92,7.7.07,2.4,0,5.2.87,7.47,2,4.94,8.3,3.53,10.19,8.07a4.22,4.22,0,0,0,2.23,2.29,4.32,4.32,0,0,0,2,.76c5.44.7,13.3,1,18.11,4.12,3.07,2,4.39,5.27,6.78,7.77l-.61,5.91c-.2,2,1.43,3.4,3.16,3.9-1.2,4.56-2.19,10.08.09,13.64a7.84,7.84,0,0,0,4.49,3.06c.86.26,2,.05,2.8.33,2.43.87,4.25,2.91,5.83,5,2.81,3.7,4.66,7.53,10.13,7,1.54-.15,2.94-1.23,4.54-1.15,1.45.07,3.31,1.3,4.81,1.62,4.13.89,10.92-.58,13.56,3.76a3.79,3.79,0,0,0,3.3,1.94,23.43,23.43,0,0,1-7.65,15.11c-3,2.76-.23,6.82,3,6.89a20.11,20.11,0,0,0,2,5.59C136.68,277.85,136.59,277.16,136.49,276.48Z"/><path class="cls-2" d="M289.87,303.54l-3-2.28,2-3.05c1-1.56,2-3.12,3-4.7.21-.34.48-.72.76-1.1a11.27,11.27,0,0,0,.93-1.42,5.07,5.07,0,0,0-2.57-2.45,8.6,8.6,0,0,1-5.66-4.8,7.35,7.35,0,0,1,.3-6.51,5.5,5.5,0,0,1,3.2-2.62,37.35,37.35,0,0,1,4.77-.72l1.95-.22,1.39-.18a3.51,3.51,0,0,0-.11-2.19,2.66,2.66,0,0,1,.2-2c0-.09.07-.17.1-.25-.53-2.17-.94-3.13-2.43-3.25a104.63,104.63,0,0,0-11.89-.3l-.53,0-.41-.33a4.45,4.45,0,0,1-1.28-5.91,1.51,1.51,0,0,0,.07-1.29,2.63,2.63,0,0,0-1.61-1.37,11.06,11.06,0,0,0-5.22-.05,17.27,17.27,0,0,1-4.78.23,8.88,8.88,0,0,0-2,.05l-.5,1.57c-.55,1.74-1.07,3.38-1.69,5-1.74,4.56-5.55,5.09-9.39,5a23.11,23.11,0,0,0-3.85.32,25.86,25.86,0,0,1-4.36.34c-2.72-.09-5.53-.35-7.6-1.7-4.67-3-5.87-1.95-9.86,1.65l-.59.53a26.58,26.58,0,0,0-3.26,3.81c-.56.75-1.15,1.52-1.77,2.26a4.76,4.76,0,0,1-1.21,1l-.52.34-1.76,1.24-1-4.91c-.48-2.26-.93-4.44-1.41-6.61a19.74,19.74,0,0,0-.84-3l-1.1-1.31-.2.16a30.2,30.2,0,0,1-3.23,2.27,12.24,12.24,0,0,1-4.12,1.44c-1.58.26-3.18.48-4.73.69-2,.27-4,.54-6,.91a7.48,7.48,0,0,0-.56.9c-.12.21-.23.41-.34.59-.67,1.09-1.33,2.19-2,3.29-1.33,2.23-2.71,4.54-4.2,6.74a4.41,4.41,0,0,1-2.6,1.53,6.05,6.05,0,0,0-.65.22l-1.51.67-.87-3.29c-.33-1.28-.62-2.39-.95-3.47l0,0a2.87,2.87,0,0,1-.79-.9c-.15-.29-.33-.59-.51-.88a8.31,8.31,0,0,1-1.15-2.54H171.09a7.09,7.09,0,0,1-1.07-.09,8.58,8.58,0,0,1-1.46-.39c-1.25-.42-1.43-.45-1.93.33a14.41,14.41,0,0,1-2.2,2.5,17.26,17.26,0,0,0-1.43,1.5l-.34.44c-.78,1-2,2.59-4.64,2a4.83,4.83,0,0,0-1.94,1.78c-.85,1.65-2.15,4.14-5.58,3.45-4.33-.87-5.29-3.42-5.32-5.41,0-1.54-.32-1.77-2.59-2-1-.11-2.09-.28-3.17-.51a9.06,9.06,0,0,0-1.66,1.21c.05.26.09.52.13.78l-.6.13,0,0,.6-.09c.11.7.19,1.4.28,2.1l.92,7.69-3.58-6.87a22.33,22.33,0,0,1-1.92-5,6,6,0,0,1-4.18-3.67,5,5,0,0,1,1.41-5.53,21.76,21.76,0,0,0,7-12.9,5.29,5.29,0,0,1-2.91-2.37c-1.47-2.42-4.93-2.56-8.28-2.7a26.4,26.4,0,0,1-4.37-.41,13.19,13.19,0,0,1-2.35-.84,8.08,8.08,0,0,0-2.23-.75,5.38,5.38,0,0,0-2,.5,9,9,0,0,1-2.36.65c-5.53.53-8-2.84-10.32-6.1-.35-.48-.7-1-1.08-1.47-1.44-1.9-3.07-3.76-5.18-4.51a4.35,4.35,0,0,0-1-.1,6.77,6.77,0,0,1-1.74-.21,9.18,9.18,0,0,1-5.28-3.66c-2.39-3.75-1.67-9.06-.57-13.56a5,5,0,0,1-2.9-4.89l.54-5.28a32.94,32.94,0,0,1-2.08-2.72,15.58,15.58,0,0,0-4-4.35c-3.68-2.41-9.63-3-14.42-3.55-1.09-.12-2.13-.23-3.1-.35a5.73,5.73,0,0,1-2.48-.93,5.63,5.63,0,0,1-2.83-3c-.66-1.58-2-2.19-4.14-3s-4.83-1.94-6.06-5a20,20,0,0,1-1-6.92l0-1.18c-.1-3.67-.11-4-1.74-6.9-2-3.67-5.09-9.15-5-14.12a5.72,5.72,0,0,1-.27-6.08c1.67-2.76,3.31-7,1.6-11.55a4.38,4.38,0,0,0-3.12-3l-.08.14c-3.84,6.73-9.1,16-19.43,11.74a10.33,10.33,0,0,1-6.63-9.19A10.1,10.1,0,0,1,16.84,127c1-.48,2.1-1,3.49-1.54l1.6-.64.31,1.67a4.91,4.91,0,0,0,4.11-2.15l-.09-.09,1-1a5.85,5.85,0,0,1,2.54-1.49l1.36-.35c3.26-.83,6.35-1.62,9.29-3.54a164.09,164.09,0,0,1,15.68-8.71c1.81-.92,3.63-1.84,5.43-2.79,1-.54,1.09-.81.9-1.62-.62-2.7-1.15-5.5-1.59-8.33-.85-5.49-1-11.68,4.5-15.89a78.9,78.9,0,0,1,7.79-5.07c1.46-.87,3-1.77,4.4-2.7l.23-.15A10.38,10.38,0,0,0,80.91,70C83,66.71,85.56,63.57,91,64.15a23.89,23.89,0,0,0,12.08-1.47,72.42,72.42,0,0,1,6.93-2.4c1.67-.51,3.4-1,5-1.66a7.13,7.13,0,0,0,2.59-2c4.65-5.26,10.79-7.73,16.67-9.8l.87-.31.63.67A6.08,6.08,0,0,0,139.11,49l.7.14.3.65a5.85,5.85,0,0,0,1.07,1.58,8.49,8.49,0,0,1,2.12,5.1c.16,2.88.14,5.79.13,8.61,0,1.31,0,2.61,0,3.92,0,.75.08,1.52.15,2.33.23,2.49.49,5.3-1.35,8a3.2,3.2,0,0,0,.23,1.46,38.46,38.46,0,0,1,1.83,6.25c.84,3.62,1.63,7,4.21,9.77,1,1.07,1,1.07,1.83.71a15.59,15.59,0,0,0,2.83-1.73c1.87-1.33,4-2.84,6.89-2.7l.26-.32c.14-.18.28-.35.4-.49L161.86,91c1.37-1.51,2.78-3.08,4.08-4.66a6.55,6.55,0,0,0,.78-1.44c.14-.32.28-.63.44-.94l.34-.67.75-.09a19.37,19.37,0,0,1,3.76,0c2.72.21,5.06.38,7.06-1.87,1.13-1.28,3.25-1.66,4.82-1.75a3,3,0,0,0,2.8-2c2.5-4.95,3.3-5.27,8.66-3.43a4.4,4.4,0,0,0,1.1.2c3,.22,6.33.47,8.15,2.82a5.79,5.79,0,0,1,1.16,3.18l1.78-1.11c3-1.89,6.1-3.84,9.5-4.68s3.72-2.6,4.19-5.5c.06-.36.12-.72.18-1.09l.07-.41a30.31,30.31,0,0,1,1.24-5.16c.78-2.12,1.85-4.39,3.93-5.12s4.35.38,6.31,1.56c2.47,1.5,5.5,1.49,7.19,0L241,58l.93.72c3.15,2.44,1.26,5.21.25,6.69l-.09.13c-1.42,2.09-1.23,3.33.71,4.72a9.22,9.22,0,0,1,3.81,8.57c-.08,1.4-.06,2.84,0,4.24q0,.4,0,.79l.29.07c.83.19,1.55.36,2.26.59a6.75,6.75,0,0,0,4.3-.8c1.64-.78,2.93-1.9,3.22-2.77a5.08,5.08,0,0,1,2.76-3.29,4.53,4.53,0,0,1,3.88.3A8.94,8.94,0,0,1,266,80.38h0a5.19,5.19,0,0,0,1.78-4.86l-.06-.84c-.18-2.47-.39-5.4,1.27-8.08l-10.36-.49,12.82-2.2a16.34,16.34,0,0,0,2.37-.6l.39-.13h0l.42-.14,2.41-.95-.48,2.43,1.61.47a42.61,42.61,0,0,1,6,2.07,15.32,15.32,0,0,1,7.76,7.68c.21.46,1.44,1.08,1.84,1.29.56.28,1.16.54,1.78.8,2.41,1,5.13,2.18,6.16,5.44l.08.24v.25a10.3,10.3,0,0,0,0,1.41l.12,1.35-1.34.18c-.67.09-1.59.21-1.36,2.37.08.83.2,1.66.32,2.48a36.8,36.8,0,0,1,.47,4.76c.07,5.81-1.27,6.23-1.91,6.43-1.6.5-1.9,1.45-2.34,3.22a10.45,10.45,0,0,1-.9,2.61c-.69,1.25-.56,1.66-.56,1.66s.12.17.85.4l.81.26.16.83c.35,1.87,1,4.45,1.13,4.86a1.36,1.36,0,0,0-1.09-.76l-.14,1.39,1.19.8v0a6.88,6.88,0,0,0-1,6.07,11,11,0,0,0,6.33,6.55c4.83,2,4.53,4,3.53,6.83a22.11,22.11,0,0,0-.66,2.14c-.16.65-.3,1.36-.42,2.16v.11a31.29,31.29,0,0,0,1.25,13.73c.07.23.15.46.24.69a6,6,0,0,1,3.48-1.5c3.49-.48,8.46.7,10.83,2.57a11.73,11.73,0,0,0,3.87,1.63l1.33.41.77-1.5.71,2,.82.31-.42.83,1.37,4c1.61,4.63,3.07,8.84,4.52,13.06a3.58,3.58,0,0,1,.17,1v.07a9.44,9.44,0,0,1,2.1,3.45l0,.08h0l.48,1.27a16.07,16.07,0,0,1,1.06,5.17c0,.34.06.67.09,1,0,.08,0,.13.14.2l.51.31.16.7c.06.27.12.55.16.83l.2,1.46h0l.11.33-.66,2.77c-.56,2.3-1.13,4.68-1.66,7.06-.85,3.89-4.21,3.46-5.47,3.3-1.76-.22-3.57-.38-5.33-.53l-1.1-.09a7.65,7.65,0,0,1,1.09,2.74c.34,2.48.13,4.19-.65,5.38-1.92,2.95-1.65,6.2-1.37,9.65l0,.23a3.46,3.46,0,0,0,.78,2.35c.49.41,1.46.54,3.07.4.44,0,.9-.13,1.45-.23l1-.18.94-.16.5.8c.35.55.75,1.11,1.17,1.69a15.61,15.61,0,0,1,2.64,4.75,16.4,16.4,0,0,1,.29,5.5c0,.76-.09,1.47-.09,2.17v.72l-2.18,1.58-3-2.45a4.67,4.67,0,0,1-3.42,3.44,1.34,1.34,0,0,0-.14.4v1.12a29,29,0,0,0,.38,5.74c.13.62.47,2.28,3.74,1.66l1.3-.25.83,3.14-.82.57c-.51.35-1,.72-1.52,1.09a32.31,32.31,0,0,1-3.88,2.54c-.91.48-1,.66-1.08,1.6a6.06,6.06,0,0,1-1.48,3.19c-.23.32-.47.63-.66,1l-.76,1.27-1.24-.81-.84-.57a19.85,19.85,0,0,0-1.73-1.11c-.44-.24-.91-.54-1.38-.85a6.66,6.66,0,0,0-2.13-1.1,1.71,1.71,0,0,0-1.12.84,2.93,2.93,0,0,0-.16,2.29,37.46,37.46,0,0,0,1.52,3.9c.27.63.54,1.26.81,1.91l.55,1.35-1.37.51c-2.68,1-5.63,1.73-8.94.24a17.49,17.49,0,0,0-3.46-1l-.7-.15a4.47,4.47,0,0,0-.09,4.52,6.71,6.71,0,0,1,.1,4.18c-.07.37-.14.74-.18,1.09a21,21,0,0,1-.42,2.11,9.64,9.64,0,0,0-.39,2.91c.43,4.48,1.08,5.11,5.8,5.61a4.1,4.1,0,0,1,3.29,1.57,4,4,0,0,1-.1,3.5,12.27,12.27,0,0,0-.6,2.58c-.08.48-.16,1-.26,1.45l-.3,1.45-15-3.77Zm3.81-7.05,13.55,3.4a14,14,0,0,1,.75-3.06,3.35,3.35,0,0,0,.27-1,3.88,3.88,0,0,0-1.13-.23c-6.06-.63-7.77-2.31-8.33-8.16a11.81,11.81,0,0,1,.45-3.82,18.39,18.39,0,0,0,.36-1.82c.05-.4.13-.82.21-1.25a5.36,5.36,0,0,0,.14-2.41,8.08,8.08,0,0,1-.83-2.75,5.84,5.84,0,0,1-2.45,2.39,11.85,11.85,0,0,0-1.46,1l-.76.55-.84.58-2.27-1.71,1.07-1.35a26,26,0,0,0-3,.5,2.73,2.73,0,0,0-1.37,1.21,4.57,4.57,0,0,0-.19,4,5.74,5.74,0,0,0,3.79,3.18,7.81,7.81,0,0,1,4.55,4.31c.55,1.32-.41,2.66-1.35,4-.23.33-.47.65-.65.94l-1.4,2.23ZM139,271.2l.5.11a31.27,31.27,0,0,0,3.39.57c1.88.21,5,.55,5.12,4.78,0,1,.4,2.15,3,2.68,1.15.23,1.5,0,2.5-2,.71-1.37,3.13-3.76,5-3.26,1,.25,1.09.08,1.81-.88l.4-.51a19.76,19.76,0,0,1,1.67-1.76,12.09,12.09,0,0,0,1.79-2c1.72-2.66,4-1.89,5.22-1.48a6.41,6.41,0,0,0,1,.28,4.42,4.42,0,0,0,.65.06h9.17l-.29-2.47,2.47,1.47a3.24,3.24,0,0,0,1,.38l1.11.24v1.14q0,.65,0,1.31a4.75,4.75,0,0,0,.83,1.85c.19.32.38.64.55,1l.11.09a2.47,2.47,0,0,1,.89,1.19c.37,1.21.68,2.41,1,3.8l.06.22a1.67,1.67,0,0,0,.5-.24c1.42-2.11,2.78-4.39,4.09-6.59.66-1.11,1.33-2.22,2-3.32.09-.15.18-.32.28-.49.51-.91,1.14-2,2.32-2.27,2.11-.4,4.26-.69,6.34-1,1.53-.21,3.11-.42,4.64-.67a9.48,9.48,0,0,0,3.16-1.09,27.52,27.52,0,0,0,2.92-2.07c.44-.34.87-.67,1.31-1l.11-.08.29-2.26,1-.21c1.88-.41,2.59-1.63,3.37-3.3l.46-1,4.63.77L224.26,255a36.43,36.43,0,0,1-3.66,5c-1,1.16-1.09,1.58-.71,2.52a21.49,21.49,0,0,1,1,3.51c.48,2.18.94,4.36,1.42,6.64l.1.49c.39-.49.77-1,1.16-1.51a29.09,29.09,0,0,1,3.63-4.21l.58-.52c4.1-3.7,6.8-6.14,13.3-1.92,1.49,1,3.83,1.17,6.15,1.24a23.53,23.53,0,0,0,3.89-.32,26.39,26.39,0,0,1,4.32-.34c3.51.11,5.61-.37,6.66-3.16.59-1.55,1.1-3.16,1.64-4.85.25-.8.51-1.62.79-2.46l.3-.92,1-.05.56-.06a12.05,12.05,0,0,1,3-.08,15,15,0,0,0,4-.23,13.33,13.33,0,0,1,6.55.18,5.41,5.41,0,0,1,3.32,3,4.35,4.35,0,0,1-.15,3.63,1.6,1.6,0,0,0,.16,2.11,108.39,108.39,0,0,1,11.63.33c3.74.28,4.5,3.47,5,5.57a2.9,2.9,0,0,1-.27,1.82l-.08.19a6.7,6.7,0,0,1,.27,1.17,12.92,12.92,0,0,1,.92-1.72l.55-.88,1,.26c.54.14,1.09.26,1.64.38a19.87,19.87,0,0,1,4,1.17,7.39,7.39,0,0,0,5.38.16l-.2-.47a39.53,39.53,0,0,1-1.63-4.2,5.76,5.76,0,0,1,.41-4.53,4.57,4.57,0,0,1,2.93-2.19c1.51-.36,3,.62,4.34,1.49.4.26.8.53,1.18.73a19.16,19.16,0,0,1,1.63,1,4.24,4.24,0,0,0,.89-1.59,4.17,4.17,0,0,1,2.58-4,23.75,23.75,0,0,0,2.75-1.76,4.72,4.72,0,0,1-3.84-3.92,31.56,31.56,0,0,1-.43-6.31v-1.11c0-.86.57-2.7,1.93-3.05s2.06-1,1.76-3.47l-.42-3.46,5.58,4.48,0-.54a14.15,14.15,0,0,0-.18-4.56,13.36,13.36,0,0,0-2.21-3.87c-.24-.34-.49-.68-.73-1h0a17.05,17.05,0,0,1-1.73.27c-1.75.15-3.72.15-5.14-1.05a5.88,5.88,0,0,1-1.78-4.29l0-.23c-.29-3.59-.63-7.67,1.82-11.43.21-.32.52-1.2.21-3.45a5.93,5.93,0,0,0-.83-1.87c-.22-.38-.43-.75-.62-1.13l-.39-.81,1.87-2.31.75.07,2.27.2c1.78.15,3.62.31,5.44.54s2.12-.07,2.34-1.1c.53-2.42,1.11-4.81,1.67-7.12l.48-2a2.58,2.58,0,0,1,0-.29l-.29-.33-2.23-2.58L335,190a3.21,3.21,0,0,1-.09-.51c0-.35-.07-.7-.1-1a22.09,22.09,0,0,0-.39-2.93l-.33.15-.35-1.73c0-.16-.08-.31-.12-.46v0a3,3,0,0,1-.29-.94,6.51,6.51,0,0,0-1.58-2.45,2.43,2.43,0,0,1-.63-1.7,1.89,1.89,0,0,0,0-.27c-1.44-4.19-2.9-8.4-4.51-13l-.3-.87-1.31,2.54-2.82-1.58,2.16-4.21-.43-.13a13.92,13.92,0,0,1-4.82-2.12c-1.59-1.25-5.73-2.4-8.7-2a3,3,0,0,0-2,.83c-.33.45-.68.89-1.05,1.33L306,160.29l-1-1.62a12.41,12.41,0,0,1-1.51-3.2,34.15,34.15,0,0,1-1.36-14.87l0-.15c.13-.9.29-1.72.48-2.48a24.64,24.64,0,0,1,.74-2.41c.73-2.09.76-2.17-1.93-3.26a13.78,13.78,0,0,1-8-8.35,9.64,9.64,0,0,1,.92-7.83,37.79,37.79,0,0,1-.94-4.07,3.32,3.32,0,0,1-1.81-1.75c-.58-1.44.13-3,.71-4.07a8.26,8.26,0,0,0,.63-1.93c.42-1.72,1-4,3.84-5.12a15.19,15.19,0,0,0,.33-3.82,34.16,34.16,0,0,0-.44-4.4c-.12-.86-.25-1.73-.33-2.59-.33-3.26,1.19-4.59,2.53-5.14,0-.11,0-.22,0-.33-.65-1.76-2.14-2.47-4.48-3.46-.64-.27-1.3-.55-2-.88a6.37,6.37,0,0,1-3.14-2.63A12.54,12.54,0,0,0,283,69.65a40.5,40.5,0,0,0-5.61-1.92c-.94-.27-1.91-.55-2.89-.87l-1.21-.39v0l-.55.13c-2.6,2.25-2.41,4.89-2.19,7.93l.06.86c.23,3.58-.74,5.63-3.84,8.12l-1,.8-.9-.91c-.36-.36-.7-.75-1-1.15A6.89,6.89,0,0,0,262,80.54a1.84,1.84,0,0,0-1.52-.21,2.43,2.43,0,0,0-1.16,1.56c-.79,2.35-3.54,3.88-4.69,4.43-2.37,1.13-4.77,1.48-6.42.93-.58-.2-1.21-.34-2-.52l-1.4-.33-1.08-.27V85c0-.62,0-1.24,0-1.87,0-1.45,0-2.94,0-4.44a6.47,6.47,0,0,0-2.63-6.1c-2.22-1.6-4.27-4.39-1.4-8.62l.09-.14c.75-1.11,1-1.67,1-2.08a9.56,9.56,0,0,1-9.36-.52c-1.88-1.14-3.16-1.57-3.9-1.31s-1.46,1.38-2.21,3.42a28.11,28.11,0,0,0-1.11,4.68l-.07.42c-.06.35-.12.7-.17,1-.49,3-1,6.49-6.3,7.8-3,.74-5.73,2.48-8.67,4.33-1.34.85-2.74,1.72-4.18,2.52l-2.61,1.44.53-2.94c.31-1.73.17-3-.42-3.76-1-1.35-3.74-1.55-6.12-1.73a7.11,7.11,0,0,1-1.78-.33c-1.66-.57-3.06-1.06-3.46-.9s-1.09,1.56-1.78,2.92a5.78,5.78,0,0,1-5.17,3.58,4.79,4.79,0,0,0-2.86.8c-2.93,3.32-6.52,3-9.4,2.82a23.73,23.73,0,0,0-2.44-.11l0,.1a8.68,8.68,0,0,1-1.18,2.1c-1.35,1.64-2.78,3.23-4.17,4.76l-1.14,1.26c-.09.1-.19.23-.29.36-.51.65-1.23,1.53-2.3,1.42-2.1-.22-3.64.88-5.44,2.15a18,18,0,0,1-3.37,2c-2.65,1.12-3.77-.07-4.95-1.32-3.15-3.35-4.07-7.31-5-11.14a35.74,35.74,0,0,0-1.68-5.79c-.37-.88-.83-2.88,0-4.16,1.27-1.86,1.08-3.85.87-6.15-.08-.83-.16-1.7-.16-2.57,0-1.32,0-2.64,0-4,0-2.77,0-5.64-.12-8.42a5.74,5.74,0,0,0-1.34-3.3,8.6,8.6,0,0,1-1.27-1.71,8.93,8.93,0,0,1-3.42-1.89c-5.27,1.89-10.67,4.2-14.66,8.71A9.65,9.65,0,0,1,116,61.28c-1.72.64-3.48,1.18-5.19,1.71a70.23,70.23,0,0,0-6.66,2.3A26.65,26.65,0,0,1,90.72,67c-3.55-.37-5.28,1.24-7.43,4.55a12.55,12.55,0,0,1-3.91,3.39l-.23.15c-1.48,1-3,1.87-4.49,2.75a76.87,76.87,0,0,0-7.52,4.88C62.83,86,62.94,91,63.71,95.91c.43,2.76,1,5.5,1.55,8.13a3.93,3.93,0,0,1-2.35,4.77c-1.81.95-3.63,1.88-5.46,2.8A161.93,161.93,0,0,0,42,120.16c-3.34,2.19-6.79,3.07-10.14,3.92l-1.29.33.84.78-2.62.56a7.87,7.87,0,0,1-8,3.42l-1-.15-.06-.29c-.63.27-1.19.53-1.69.78a7.21,7.21,0,0,0-4.21,6.8A7.53,7.53,0,0,0,18.76,143c7.46,3,11.29-2.44,15.9-10.52l1-1.82.92.1a7.21,7.21,0,0,1,6.35,5c1.67,4.45,1,9.3-1.83,14a2.82,2.82,0,0,0,.25,3l.49.46,0,.67c-.27,4.3,2.7,9.64,4.67,13.17s2,4.2,2.1,8.2v.16c0,.34,0,.7,0,1.05a17.63,17.63,0,0,0,.75,5.93c.78,2,2.49,2.66,4.48,3.45s4.55,1.83,5.7,4.59A2.81,2.81,0,0,0,61.07,192l.24.14a2.91,2.91,0,0,0,1.33.52c.95.12,2,.23,3,.35,5.09.54,11.42,1.22,15.67,4A18,18,0,0,1,86.09,202a25.62,25.62,0,0,0,2.27,2.9l.45.47L88.15,212c-.14,1.36,1.29,2.15,2.15,2.4l1.32.39-.35,1.33c-1,3.84-2.13,9.33-.09,12.52a6.59,6.59,0,0,0,3.71,2.46,4.8,4.8,0,0,0,1,.1,6,6,0,0,1,1.85.26c2.82,1,4.86,3.33,6.48,5.47.39.51.75,1,1.12,1.52,2.22,3.08,3.84,5.32,7.75,4.93a6.75,6.75,0,0,0,1.62-.48,7.35,7.35,0,0,1,3.13-.68,9.71,9.71,0,0,1,3.21,1,11.26,11.26,0,0,0,1.82.68,24.62,24.62,0,0,0,3.89.35c3.71.15,8.32.34,10.58,4.06a2.38,2.38,0,0,0,2.1,1.26H141l-.18,1.56a24.93,24.93,0,0,1-8.1,16,2.11,2.11,0,0,0-.68,2.45,3.17,3.17,0,0,0,2.73,2l1.15,0,.21,1.13.05.28a12.6,12.6,0,0,1,2.33-1.54Zm59-3.42ZM160.53,93.15h0Z"/></svg>