<svg id="Layer_1" data-name="Layer 1" xmlns="http://www.w3.org/2000/svg" viewBox="0 0 350 350"><defs><style>.cls-1{fill:#999;}.cls-2{fill:#f90;}</style></defs><title>M</title><path class="cls-1" d="M339,268.49a24.86,24.86,0,0,1-3.62,3.17,47.69,47.69,0,0,0-4.07,3.35c-.63.72-.9,3.53-.9,4s-12.93,8.86-12.93,8.86l3,5.88s-4.07,2.26-4.34,2.26-2.17-2.44-2.44-2.53a17.36,17.36,0,0,0-2.89,1.63s1.63,2.53,1.18,2.89-5.52,4.25-5.52,4.25l-2.89.54s-14.2-25.69-14.2-26,.27-6.87-.54-7.06a21.59,21.59,0,0,0-3.26-.09s-1.63-.81-2.53-1.18-2.44-1.09-2.62-1.54-3.17-1.36-3.17-1.36l-1.36,1.81s.54,1.72.18,1.9-3.17,1.45-3.53,1.27-2.17-3.53-3-3.17a30.51,30.51,0,0,0-3.26,2.26,16.52,16.52,0,0,1,.27,3.17c-.18.27-2.44,2.71-2.44,2.71s-6-7.15-6.78-10.49-4.07-7.24-4.25-7.87-2.89,1.45-5.52.72-4.34-2.08-6.06-2.71-6.69-1.63-6.69-1.63-3.35,3.62-2.26,5.43,2.26,3.26,1.63,4.07-3,2.71-3.35,3.26.09,2.71.09,2.71,2.62,2.89,2.44,3.17-.18,2.89-2.08,3a39.18,39.18,0,0,0-9,2.26c-3.62,1.27-5.88,1.9-8.68,1.9s-2.62-1.36-2.62-1.36h-2.89s-.09-2.62-.45-2.71-4.34.27-4.34.27l-.09-3s-4.34-1.72-6-.45a7.73,7.73,0,0,0-2.26,3.62s-1.72.18-2.26,1.09A14.14,14.14,0,0,1,191,278.8l-1.81.81-2.26.81a34,34,0,0,0-4.52,0,43.8,43.8,0,0,1-5.79.18c-1.36-.09-5.79.27-5.88-1.81s.45-2.35.63-4,.81-2.26-.9-3.17-2.89-.72-3.26-1.9A14.47,14.47,0,0,0,166,267c-.54-1.09-2-1.45-1.09-2.26s.54-2.08,1.54-2.08,1.72.18,2.17-.9.81-2,0-2.8-1.81-1.27-1.81-2.17a11.25,11.25,0,0,0-.45-2.8c-.36-1.72-.72-3.26-.45-3.89a3.07,3.07,0,0,0,.09-2.89c-.63-1.45-1.54-2.89-1.54-3.53s-2.26-3.17-2.26-3.17-5-2.71-5.07-3.08-5.52.27-9,1.54a15.31,15.31,0,0,0-5.61,3.08c-1.72,1.27-1.81,1.27-5.79,2.26s-2.26-.18-2.17-2.53-.54.09-3.71.9-2.08.81-4.88.72-1.9-.81-2.26-2.08-2.26.63-4.7,1.72-15.11,7.87-15.11,7.87-18.09,4.7-20.8,5.07S64.8,259.8,61,259.62s-18.09-.18-18.63.36-.72,5.61-.72,5.61-9.95,3.26-13.57,4.16-16.76,6.33-16.76,6.33L6.25,253.89l37.14-14.47s28.22,1.93,29.67,1.21,35-20.74,35-20.74-7.48-9.41-8.68-10.85S88,191.42,87.05,190s-5.07-5.07-9.65-7.24-15-18.63-15-18.63a15,15,0,0,1,4.34-1.45c2.35-.36,2.71-3.62,2.71-3.62l-4.34-.54s-.9-8.5,0-11.22,2-7.06,2.17-7.6-.9-2.71-.9-3.26a30.89,30.89,0,0,1,1.27-3.8v-1.45c0-1.45-1.45-2.53-3.26-3.62s-1.81-5.25-1.81-5.25L120.7,91.2,124,96.63,129,94.46s4.16.72,5.43.72,7.42-.18,7.42-.18-.72-4.34.18-6.15.9-5.79.9-5.79l7.42-1.45L147.83,74l9.41-5.43,2,.54,12.12-5.61,2.53-2.71,11.94-2.71a38.38,38.38,0,0,0,3.08-3.62c.36-.72,6.51-.72,7.24-1.27s8.14-5.61,10.13-5.94,11.4,1.42,11.4,1.42,2.53,5.43,3.8,6.69,4.7,9.41,5.61,11.22-4.52,4.88-4.52,4.88a46.87,46.87,0,0,1,3.8,3.26c.36.54-1.09,6.33-1.09,6.33l5.07,6.51-.54,8.5s2.53,3.62,4.7,7.06a18.09,18.09,0,0,0,5.07,5.25l6-3.44s7.78,8.32,7.78,8.86-.72,4.52-.72,4.52l.9,6L264,123.22l4.16,12.48-6.33,3.07,1.63,6.15,17.19-1.81s1.81,2.53,2.53,3.44.54,6.15-.18,8.86,2,2.17,3.44,3.08,3.08,6.15,3.08,7.78.18,5.43.18,5.43a66.81,66.81,0,0,0,10.49,2c3.8.18,6,2,6.87,2.17s2.35-.9,2.35-.9l.18-9s8,.36,9.41,1.27,4.7,9.77,4.7,9.77l-2,1.27-2.17,3.44-4.7,1.45,2.89,5.25s7.24-2.89,7.78-2.71,3.26,6,3.26,6l-4.7,2.71s2.89,2.35,3.08,3.08.9,3.26,2,3.62,2.35,1.63,4.52,3.44,4,6.87,4,6.87-2.11,4.22-3.32,4.46-2.65-.48-2.65,1a8.17,8.17,0,0,1,1,2.71,5.28,5.28,0,0,1-1.09,2.26c-.36.36,4.88,5.16,4.88,5.16a5.69,5.69,0,0,0-2.62,1.54c-1.27,1.27-.18,1.54-1.81,2.26s-3,2.44-4,2.53a12.64,12.64,0,0,1-3.44-.81l-2.71,2.53a17.07,17.07,0,0,1,3.62,6.78,61.76,61.76,0,0,0,2.35,7.33,13.31,13.31,0,0,1,2.53-1.45c.27.09,3.08,2.89,5.61,4.88a21.7,21.7,0,0,0,3.35,2.26,57.42,57.42,0,0,1,4.43,5s-4.34,4.79-5.07,5.52S339.14,268.13,339,268.49Z"/><path class="cls-2" d="M302.84,304.35l-.5-.9C288,277.45,288,277.2,288,276.72v-.32a36.81,36.81,0,0,0-.1-5.41c-.62,0-1.5,0-2.23,0h-.36l-.32-.16s-1.59-.79-2.43-1.13c-2.15-.86-2.9-1.52-3.21-1.94a13.69,13.69,0,0,0-1.53-.61l-.33.43c.24,1,.38,2.32-.74,2.88-3.67,1.83-4.46,1.44-4.79,1.27s-.69-.59-1.25-1.38c-.24-.34-.7-1-1.06-1.44-.47.31-1.13.79-1.77,1.27.37,2.66.17,3-.07,3.33a37.53,37.53,0,0,1-2.58,2.89l-1.09,1.18-1-1.24c-.63-.76-6.21-7.5-7.07-11.07a21.76,21.76,0,0,0-3.24-6.11l-.39-.58a8.38,8.38,0,0,1-5.14.58,19.94,19.94,0,0,1-4.27-1.83,15.92,15.92,0,0,0-1.91-.92c-1.11-.41-4-1-5.67-1.4-1.08,1.34-1.76,2.78-1.58,3.14s.39.64.58.94c1,1.61,2.08,3.28.95,4.73a19.62,19.62,0,0,1-2,2c-.38.35-.93.84-1.18,1.1a8.13,8.13,0,0,0,.13,1.38c2.39,2.66,2.88,3.51,2.43,4.39l0,.12c-.17.89-.67,3.58-3.3,3.71a38.29,38.29,0,0,0-8.64,2.18c-3.83,1.34-6.18,2-9.15,2a4.39,4.39,0,0,1-3.44-1.17l-.15-.18h-3.3l0-1.37c0-.45-.05-.94-.09-1.33-.83,0-2.07.15-3.15.25l-1.5.14-.11-3.52c-1.62-.5-3.29-.68-3.71-.35a6.25,6.25,0,0,0-1.76,2.87l-.25.94-1,.1a2.62,2.62,0,0,0-1.2.42A14.92,14.92,0,0,1,192,279.8l-.18.18-2.15,1-2.54.92-.3,0a32.43,32.43,0,0,0-4.29,0,45.51,45.51,0,0,1-6,.18l-.79,0c-2,0-6.28-.06-6.41-3.14a7.85,7.85,0,0,1,.37-3,6.43,6.43,0,0,0,.27-1.24c0-.39.11-.73.17-1s.07-.35.08-.48a2.72,2.72,0,0,0-.41-.25,9.11,9.11,0,0,0-1.41-.57,3.35,3.35,0,0,1-2.54-2.16,10.67,10.67,0,0,0-.85-2l-.24-.47a2.47,2.47,0,0,0-.51-.57,2.51,2.51,0,0,1-1-1.84,2.07,2.07,0,0,1,.76-1.54,1.45,1.45,0,0,0,.29-.6,2.31,2.31,0,0,1,2.2-1.84h.84l0,0a3.94,3.94,0,0,0,.37-1.17h0a.36.36,0,0,0-.07-.08,7.91,7.91,0,0,0-.62-.54,3.43,3.43,0,0,1-1.61-2.64,5.86,5.86,0,0,0-.23-1.62l-.28-1.3c-.41-1.94-.71-3.34-.28-4.33l.06-.15a1.61,1.61,0,0,0,0-1.62c-.21-.49-.46-1-.69-1.43a7.91,7.91,0,0,1-1-2.43,17.58,17.58,0,0,0-1.75-2.27,41.81,41.81,0,0,1-4.84-2.89,32.07,32.07,0,0,0-7.89,1.56,12.92,12.92,0,0,0-4.5,2.32l-.74.56c-1.9,1.4-2.21,1.48-6,2.42l-.31.08c-1.74.44-3,.68-3.87-.17a2.06,2.06,0,0,1-.41-2,8.44,8.44,0,0,1-1.59.59c-.8.21-1.32.36-1.7.47a7.57,7.57,0,0,1-3.29.31h-.3c-1.92-.06-3.19-.45-3.47-2.07l-.47.28a21.92,21.92,0,0,1-2.4,1.3c-2.37,1.05-14.88,7.76-15,7.82l-.31.12c-.74.19-18.21,4.73-21,5.1-.77.1-2.79.5-5.14,1-7.56,1.48-14.57,2.79-17.18,2.67-3.88-.18-14.71-.14-17.49.16a38.88,38.88,0,0,0-.38,4.45l0,1-.94.31c-.41.13-10,3.28-13.66,4.19S12,277.34,11.86,277.39l-1.55.64L4.6,253l38.58-15,.32,0c12.75.87,27.12,1.61,29,1.3,1.81-1,20.29-12,33.39-19.81-2.08-2.62-6.74-8.46-7.65-9.56s-5.08-7.67-9.73-15c-1.36-2.14-2.39-3.77-2.66-4.18-.81-1.21-4.74-4.69-9.08-6.74-4.82-2.28-14.46-17.44-15.55-19.16l-.8-1.28,1.33-.72a16.37,16.37,0,0,1,4.8-1.6,1.62,1.62,0,0,0,1.11-1l-3.81-.48-.12-1.12c-.1-.9-.91-8.89.06-11.81.61-1.83,1.32-4.49,1.75-6.08.15-.57.27-1,.35-1.29s-.29-.89-.42-1.24a5.52,5.52,0,0,1-.49-1.8c0-.22,0-.78,1.27-4.06v-1.18c0-.76-1.37-1.69-2.57-2.4-2.38-1.42-2.5-5.63-2.5-6.46v-.85l60-32.15,3.31,5.52L128.85,93l.41.07c1.56.27,4.35.7,5.18.7s3.91-.08,5.81-.14c-.15-1.61-.2-4,.52-5.41a15.47,15.47,0,0,0,.75-5.16V81.9l7-1.36-2.39-7.17L157,67.07l2.06.56,11.4-5.27,2.64-2.83,11.94-2.71a33.94,33.94,0,0,0,2.55-3c.52-1,1.85-1.21,5.08-1.51a25.1,25.1,0,0,0,2.69-.33c1-.73,8.25-5.72,10.62-6.12,2.13-.35,10.28,1.12,11.89,1.42l.72.13.31.66a36.7,36.7,0,0,0,3.52,6.29c.95.95,2.34,3.83,4.76,9.16.49,1.08.89,2,1.12,2.42,1,2.05-1.16,4.17-3.34,5.66A17.05,17.05,0,0,1,227.52,74c.32.48.68,1-.72,6.79l5,6.39-.55,8.54c.73,1.05,2.72,3.95,4.46,6.7a17.26,17.26,0,0,0,4,4.32l6.15-3.54.77.82c8.16,8.73,8.16,9.19,8.16,9.83s-.42,3-.7,4.54l.67,4.4L265,121.7l4.91,14.74-6.4,3.1,1,3.85,16.8-1.77.48.67s1.79,2.51,2.49,3.38c1.3,1.62.69,7.82.08,10.12a1.23,1.23,0,0,0-.07.52c.08,0,.64.19,1,.27a6.63,6.63,0,0,1,1.91.72c2.19,1.37,3.74,7.38,3.74,9,0,1.05.08,3.08.13,4.32a58.05,58.05,0,0,0,9.19,1.68,14.82,14.82,0,0,1,6.36,1.85,7.65,7.65,0,0,0,.75.36,3,3,0,0,0,.65-.3l.19-9.75,1.45.07c2.5.11,8.5.49,10.09,1.48s4,7,5.28,10.48l.39,1.07-2.69,1.71-2.28,3.61-3.54,1.09,1.45,2.63c6.61-2.61,7.09-2.45,7.59-2.28s1.12.37,4.09,6.71l.55,1.18-4.1,2.36c1.79,1.63,1.94,2.24,2,2.5a6.41,6.41,0,0,0,1.15,2.66,11.9,11.9,0,0,1,3.5,2.47l1.39,1.18c2.4,2,4.21,6.93,4.41,7.49l.2.57-.27.54c-1.61,3.21-3.05,5-4.31,5.22a4.78,4.78,0,0,1-1.1.08,5.09,5.09,0,0,1,.57,2.38,6.31,6.31,0,0,1-.8,2.13c.81.92,2.6,2.64,4.15,4.06l2.06,1.89-2.74.55h0a4.44,4.44,0,0,0-1.9,1.15,1.05,1.05,0,0,0-.37.59,2.72,2.72,0,0,1-1.86,2,9.23,9.23,0,0,0-1.82,1.24,5.26,5.26,0,0,1-2.61,1.41,9.56,9.56,0,0,1-3.22-.61l-1.12,1a18.32,18.32,0,0,1,3.06,6.31c.55,2.19,1.21,4.2,1.69,5.52,1.42-.85,1.8-.8,2.27-.64s.63.34,1.92,1.53c1.12,1,2.66,2.44,4.12,3.59a14.93,14.93,0,0,0,2.44,1.7,7.07,7.07,0,0,1,.84.51,48.76,48.76,0,0,1,4.72,5.24l.77.94-.82.9c-.17.18-3.85,4.26-4.93,5.38a7.4,7.4,0,0,0,.33,1.2,2.73,2.73,0,0,1,.23,1.58h0c-.13.53-.22.87-4.12,3.94l-.82.64a36,36,0,0,0-3.06,2.53,11.3,11.3,0,0,0-.55,3c0,.94,0,1.21-12.51,9.36l3,6-1.19.66c-4.39,2.44-4.62,2.44-5,2.44-.79,0-1.21-.47-2.43-1.88l-.33-.37-.66.39c1,1.8,1,2.86.14,3.54-.46.37-5.33,4.11-5.54,4.27l-.27.21Zm-12-27.91c1,2,8.34,15.37,13.52,24.75l1.56-.29,4.59-3.53a14.7,14.7,0,0,0-.85-1.51l-.76-1.18,1.17-.77c3.07-2,3.48-2,4.12-1.79s.77.49,1.7,1.55l.57.64c.55-.28,1.35-.71,2.18-1.16l-2.94-5.79,1.07-.69c4.42-2.87,10.78-7.11,12.33-8.32.09-1.1.38-3.32,1.21-4.27a30.68,30.68,0,0,1,3.46-2.9l.8-.62c1.71-1.35,2.54-2.06,2.94-2.43-.37-1.12-.91-2.78.19-3.88.47-.47,2.73-3,4.2-4.56a41.86,41.86,0,0,0-3.37-3.77,4.48,4.48,0,0,0-.55-.33,17.1,17.1,0,0,1-2.86-2c-1.54-1.21-3.19-2.72-4.28-3.73l-.68-.62c-.42.25-1,.61-1.51,1l-1.45,1-.66-1.63a62.71,62.71,0,0,1-2.41-7.51,15.79,15.79,0,0,0-3.28-6.16l-1-1,4.38-4.1.82.3a10.42,10.42,0,0,0,2.82.73A8.88,8.88,0,0,0,329,231a11.42,11.42,0,0,1,2.44-1.61l.29-.14a3.84,3.84,0,0,1,1.1-1.83,7.56,7.56,0,0,1,1.12-.93c-3.79-3.58-3.8-4.16-3.81-4.68v-.61l.45-.48a4.48,4.48,0,0,0,.67-1.37,9.32,9.32,0,0,0-.82-1.92l-.17-.32v-.36a2.3,2.3,0,0,1,.67-1.74,2.94,2.94,0,0,1,2.32-.6,4.63,4.63,0,0,0,.7,0,13.6,13.6,0,0,0,2.15-3.18c-.63-1.59-2-4.57-3.34-5.7l-1.43-1.21a11.9,11.9,0,0,0-2.64-2c-1.55-.52-2.42-2.7-2.88-4.49a20.52,20.52,0,0,0-2.63-2.45l-1.6-1.3,5.35-3.09c-.74-1.52-1.52-3-2-3.84-1.31.4-4.21,1.49-6.67,2.47l-1.16.46-4.34-7.87,5.87-1.81,2.06-3.26,1.29-.82c-1.38-3.6-3.1-7.44-3.77-8-.62-.34-4-.73-7.22-.94l-.17,8.27-.55.41c-.46.34-2.06,1.45-3.48,1.16a6,6,0,0,1-1.46-.6,12.11,12.11,0,0,0-5.2-1.54,67.21,67.21,0,0,1-10.79-2l-1-.27,0-1c0-.16-.18-3.85-.18-5.49,0-1.45-1.56-6-2.41-6.58a4.67,4.67,0,0,0-1.11-.38,4,4,0,0,1-2.73-1.62,3.38,3.38,0,0,1-.21-2.64c.66-2.49.74-6.77.39-7.68-.52-.66-1.47-2-2-2.76l-17.57,1.85L260.13,138l6.26-3L263,124.75l-10.71,1.11-1.14-7.54,0-.23c.27-1.46.56-3.18.66-3.94-.79-1.05-3.72-4.31-6.59-7.4l-5.73,3.3-.72-.45a19.47,19.47,0,0,1-5.51-5.69c-2.13-3.37-4.64-7-4.67-7l-.29-.41.54-8.46-5.16-6.63.17-.67A48.87,48.87,0,0,0,225,75.34c-.55-.51-2-1.74-3.31-2.74L220,71.29l1.83-1c1.79-1,3.61-2.51,3.88-3.17-.25-.51-.63-1.36-1.09-2.37-1-2.27-3.42-7.57-4.18-8.32-1.17-1.17-3-4.79-3.77-6.43-3.79-.68-9.06-1.48-10.19-1.28-1.41.24-8.1,4.61-9.51,5.68-.6.45-1.52.57-4,.8a29.66,29.66,0,0,0-3.07.38,41.8,41.8,0,0,1-3.05,3.54l-.3.32L174.62,62.1l-2.42,2.6-12.84,5.94-1.92-.52-7.89,4.55,2.68,8-7.89,1.54a15.12,15.12,0,0,1-1,5.25c-.48,1-.31,3.72-.05,5.28l.27,1.6-1.62,0c-.25,0-6.19.18-7.46.18a48.92,48.92,0,0,1-5.25-.67l-5.82,2.49-3.2-5.33L64.09,123.15c.13,1.4.54,2.88,1.08,3.2,1.91,1.15,3.94,2.56,3.94,4.83v1.71l-.1.25c-.48,1.22-1,2.74-1.15,3.27.06.21.2.57.29.83.48,1.3.77,2.14.52,2.89-.05.16-.19.67-.37,1.36-.43,1.62-1.16,4.33-1.8,6.24-.52,1.57-.33,6.26,0,9.5l4.6.58-.15,1.39c-.18,1.61-1.2,4.45-3.91,4.86a12.5,12.5,0,0,0-2.48.67C68.6,171,75.16,180.11,78,181.46c4.77,2.26,9.07,6,10.22,7.73.28.42,1.32,2.07,2.7,4.23,3,4.8,8.71,13.74,9.51,14.7,1.2,1.44,8.4,10.49,8.7,10.88l1,1.27-1.39.83c-3.44,2.05-33.61,20.07-35.07,20.79-1.18.59-11.3.24-30.08-1L7.9,254.77l4.42,19.37c3.62-1.47,12.45-5,15.41-5.76s10-3,12.54-3.83c.23-4.7.79-5.26,1.1-5.57.48-.48.78-.78,9.08-.87,4,0,8.62,0,10.62.09,2.48.12,11.26-1.6,16.5-2.62,2.49-.49,4.46-.87,5.31-1,2.13-.28,15.34-3.66,20.47-5,1.5-.8,12.7-6.79,15-7.83a19.5,19.5,0,0,0,2.09-1.14c1.3-.78,2.34-1.4,3.41-1A1.92,1.92,0,0,1,125,241a4.37,4.37,0,0,1,.16,1c.17,0,.42,0,.79.06h.3a5.24,5.24,0,0,0,2.4-.2c.4-.12.95-.28,1.79-.49a6.29,6.29,0,0,0,2.42-1.28,2,2,0,0,1,2.17-.5c1,.49.92,1.58.89,2.3a7.32,7.32,0,0,1-.16,1.24l.57-.14.31-.08c3.54-.88,3.54-.88,5-2l.7-.53a15.6,15.6,0,0,1,5.27-2.74c2.62-.94,8.83-2.2,10.15-1.49l.55.3.06.21c.71.49,2.76,1.67,4.5,2.62l.22.12.16.18c2.62,2.94,2.62,3.7,2.62,4.11,0,.15.4.87.66,1.39s.52,1,.76,1.57a4.39,4.39,0,0,1,0,3.9l-.05.12a16.9,16.9,0,0,0,.45,2.63l.27,1.28a8.55,8.55,0,0,1,.29,2.15,5,5,0,0,0,.57.52c.27.22.55.46.82.72,1.5,1.5.78,3.21.31,4.35a2.84,2.84,0,0,1-3,1.79,4.46,4.46,0,0,1-.53,1.12,4.29,4.29,0,0,1,.89,1.16l.23.45a13.48,13.48,0,0,1,1,2.48,3.05,3.05,0,0,0,.74.31,11.9,11.9,0,0,1,1.82.75c2.11,1.11,2,2.42,1.78,3.78,0,.23-.1.5-.13.8a9.26,9.26,0,0,1-.37,1.74,5.08,5.08,0,0,0-.25,2c.25.24,1.48.41,3.61.43l.95,0a42.89,42.89,0,0,0,5.56-.18,33.86,33.86,0,0,1,4.45,0l1.94-.7,1.51-.68a11.49,11.49,0,0,0,1.33-1.63,3.94,3.94,0,0,1,2.4-1.59,8.41,8.41,0,0,1,2.47-3.5c2.1-1.63,6.17-.22,7.36.25l.87.34.07,2.42c2.82-.23,3.11-.16,3.32-.1.87.22,1.27.89,1.44,2.67h3.18l-.16,1.21a3.51,3.51,0,0,0,1.17.15c2.57,0,4.69-.59,8.22-1.82a39.63,39.63,0,0,1,9.45-2.34c.27,0,.46-.43.65-1.4h0c-.39-.54-1.25-1.55-2-2.37l-.26-.29-.08-.38c-.57-2.75-.05-3.53.12-3.79a12,12,0,0,1,1.74-1.73c.5-.46,1.16-1.05,1.51-1.42a12.16,12.16,0,0,0-.95-1.66c-.2-.32-.41-.65-.62-1-1.51-2.52,1.48-6.09,2.44-7.12l.54-.58.78.16c.21,0,5.1,1,6.91,1.69a18.34,18.34,0,0,1,2.26,1.08,17.4,17.4,0,0,0,3.69,1.6,5.92,5.92,0,0,0,3.43-.51,2.72,2.72,0,0,1,2.27-.2,1.56,1.56,0,0,1,.77.87c.09.17.4.62.65,1,1.13,1.65,3,4.42,3.65,7,.5,2.06,3.54,6.21,5.47,8.66l1-1.1c0-.53-.16-1.57-.29-2.39l-.13-.83.66-.51A27.56,27.56,0,0,1,269,266c1.63-.72,2.89,1.11,4,2.73l.12.17c.46-.16,1.07-.42,1.57-.63,0-.19-.1-.39-.15-.55l-.22-.69,2.39-3.19.95.29c3.11.94,3.74,1.52,4,2a10.46,10.46,0,0,0,1.93,1c.71.28,1.78.8,2.32,1.06a18.09,18.09,0,0,1,3.25.13C290.53,268.59,291,269.87,290.81,276.44ZM329,278.85s0,.08,0,.13Zm-96.82-7.53v0Zm105.43-2.73h0Zm-58.2-.76Zm58.4-.08h0Zm-86.08-10.28h0Zm2.71-.85,0,.06Zm-91.4-12.94h0Zm-90.45-4.41h0ZM158.5,237l0,.11Zm-.3-.49Zm174.36-13.81h0Zm-6.75-24.79ZM225,75.07h0Zm-29.66-23,0,0Zm.14-.08h0Z"/></svg>