<svg id="Layer_1" data-name="Layer 1" xmlns="http://www.w3.org/2000/svg" viewBox="0 0 350 350"><defs><style>.cls-1{fill:#999;}.cls-2{fill:#f90;}</style></defs><title>M</title><path class="cls-1" d="M75.55,322.54c-.28.07-1.4-1.75-3.65-1.68-.07-1.12.28-3.3-.49-4.07a2.76,2.76,0,0,0-1.54-.84s.49-2.24-1.33-2.45c-1.19-1-1.4-2.78-5-2.78a19.29,19.29,0,0,1-1.12-5.23c0-.23-2.2-7.15-2.2-7.15s2.1-1.5,0-2.38a5.55,5.55,0,0,1-3-3.27c-1.17-.14-4.77-.47-4.77-.47a3.56,3.56,0,0,0-.23-2.9c-1.54-1.36-5.8-8-6.92-9.21s-9.21-6.31-10.38-6.68c.33-2.15,1.5-9.35,2.62-9.58.56-.19,1.92-.56.61-1.5-1.17-1.12-5.19-7-6.4-8.69-1.4-1.73-9.11-11.31-10-15.33-.28-1.31-.79-13-.79-14.35-.33-1.54,0-4.77-3.08-3.55.33-.79,1.54-2.06.33-2.66a3.83,3.83,0,0,0-1.78-.65,16.59,16.59,0,0,0-.65-2.94c-.33-.65-.89-.56-.93-1.26a4.27,4.27,0,0,1,.47-2.29,1.62,1.62,0,0,0-.89-2.29,6.76,6.76,0,0,0-2.57-.37,29.64,29.64,0,0,0-1.31-10.61c-1-3-4-11.36-4-13s.37-2.94,0-4.25-.14-1.12.51-1.68c.65-1.17,3.13-7.2,6.64-8.69,3-1.45,5.56-2.34,7.43-2.34,1.26-2.06,2.71-4.53,5.75-5.75-.09,1-.65,2.76-.14,3,.61.09,6.68-1.54,8.09-3,.09.93-.47,3,1.73,3.32,1.73,0,5.19-2.1,6.31-2.34.37.56.89,4.16,1,5s1.45,5,2.15,5.66c.89.47.7,1.4,1.5,1.64s1.59,1.64,2.62.93c.37.75,1.92,3.22,3.65,2.66-1.5.93-1.26,2.15.75,2.94s4.39.47,5-.61-1.68-3-3.13-3.37c1.73-.42,1.78-.89,1.54-2.38.23-1.45,1.26-2.24,1.5-2.85a30.06,30.06,0,0,0,.23-4.35,27,27,0,0,1,.09-3.18c.89-.56,1-2.52.56-5.14.75,4.81,1.07,6.78,1.78,7.67.84-.19,3.32-1.64,5.38-1,.65-1.59,1.22-3.18,2.52-3.27s2.8-.51,2.57-1.5c-.23-1.4-.65-4.07-.93-4.25,3.41.61,8.27,1,8.27,1V161s10.42-4.44,10.84-4.49,2.1-1.59,1.73-2.2c.75-.65,9.86-8.23,11.64-8.74a11.27,11.27,0,0,1,6,.28c1.12.51,2.52.7,2.43-.84s.34-2.62,0-3.37a35.57,35.57,0,0,0,5.28,0,.85.85,0,0,0,.51-1l8.41,3.51s3.74-4.07,2.9-6c1.4-.51,8.23-1.26,10.8-.7s9.86,1.54,11.31,2a68.94,68.94,0,0,0,9.16,1c.93,0,7.34-2.62,10.94-7.9a29.93,29.93,0,0,1,7.52-5.37c1.64-1.92,4-5.66,4.72-5.94a49.53,49.53,0,0,0,4.67-2.52c.7-.42,9.07,0,10.1.47,1.12-.79,9.39-13,9.39-13s5.7-7.34,6.22-8.51c.47,2.2,3.6,9.35,4.77,10.47a25.9,25.9,0,0,0,7.24-2.52c1.4-.79,4.44-2.66,4.53-3.55a3.59,3.59,0,0,0-1.5-.84l.19-1.4s6.59-1.31,7.43-2c.28-.89.65-1.59.28-2.2,1-1.08,5.7-8.41,10.89-9.91A3.07,3.07,0,0,0,250,83.89c1.22-1.07,3.46-2,4.25-2.85a6,6,0,0,1,1.82-1.59c.7-.33,8.93-3.18,13.69-2.2A16.93,16.93,0,0,0,280.13,71a17,17,0,0,0,2.94-2.29c.14-1.5.7-6.08,0-7.15s-1.36-2-1.87-2.76a4.57,4.57,0,0,1,.23-4.3c.93-1.08,3.65-3.37,4.44-3.41s5.66-1.64,6.45-1.73a13,13,0,0,1,5.09,0c1.87-.33,3.27-.89,4.11-1s6-3.55,6.59-4.35,4.11-8.46,4.35-9.21,1.78-5.8,3-6.73,8.23-2.34,11-1.17c.14.7-.65,5-.42,5.89,0,0,.28,1.5.79,1.68a87.15,87.15,0,0,0-.33,8.93c.61.42,3.18.51,3.65.84s1.31.51,1,1.17c-.65.65-1.87,1.68-2,2.34a24.85,24.85,0,0,1-3.13,4.86,31.55,31.55,0,0,1-3.32.65s-1.78,2,1.87,1.78a36.09,36.09,0,0,1,4.53-.14s-.56,2.76,0,3.27a9.28,9.28,0,0,0,0,2,41.72,41.72,0,0,1,.28,8c-.19,1.82-.7,2.29-1.12,2.62s-.75,2.66-.75,2.66-.65,6-.61,6.73-.09,2.34,1.87,1.59c1.5-.14,1.54.47,1.78.28-.89,1-3.08,4-.42,4.21-1.08,1.17-3.79,3.93-3.93,4s-2.24-.7-1.87,1.87a28,28,0,0,0,.61,4.11L322,96.6l.19,6.08a30.65,30.65,0,0,1,3,2.66,7,7,0,0,1,.7,1.64c.09.28,1,.37,1.07.51s.61.89.42,1.22,0,.37-.42.42-1.73,0-1.92.33a1.41,1.41,0,0,0,0,1.26c.19.65.51.65.09,1a11.09,11.09,0,0,0-1.59,1.26c-.28.37-.09.89.09,1.4s2.57,5.94,3.37,7.15c.14,1.68,0,4.35,2.48,5.42.42,1.26,0,5.75.09,7.06-1.54,0-2.85-.42-3.13,1.78-.61,1.26-2.38,2.52-1.4,4.49.23,1.31-1,2.8,2.85,5.7.65,1.4,1.26,3.93,3.79,4.25.56,1.26.23,1.31,2.62,1.5a14.56,14.56,0,0,0,3.37,0,9.48,9.48,0,0,1,.75,2.38c0,.84,0,6.26.28,7.76s0,4,.89,4.91.14,1.5-.23,2-1.87,1.12-2.34,1.73-.75-.19-1.68,1.12-.84.89-.79,1.59c-1.12.09-2.29,1-1,2.1,1.59.28,2.76.47,3.08.84a4.88,4.88,0,0,1,.75,1c.33.56.42.79.84,1a2.81,2.81,0,0,1,1.26.89,16.46,16.46,0,0,1,.49,3.83c-.07.75.4,1.07.91,1.68s2.29,1.08,2.29,2,.65,4.07.56,4.58a3,3,0,0,1-1.64,1.82c-.89.37-2.15.33-5,.28s-4.49,0-4.58.28-1.17.51-2.76,1-2,.75-1.87,1.36a4.47,4.47,0,0,1-.37,1.92c-.23.79-1.31.33-.51,3.41.33,2,.33,2.2-.14,3.37s-3.27,3.18-4.58,3.32-10,5.47-13.6,10c-1.12.65-2.48,1-3.13-1.36-.14-1.78-2-2.1-3.46-2.1s-7.62,0-8.55,1.87-2.57,4.07-8,3.88c-5.61,0-17.81-.14-19.91,2a22.69,22.69,0,0,0-.84,6.22v1.17l-25.15.56s-.65.28-.61,1.87c-1.36.47-8.93,4.07-11.68,3.32s-4.3,1.87-2,3.74c1.36,1.22.56,2.24.37,2.85s2.29,2.9,5.7,3.93a9.76,9.76,0,0,1,4,3.13l-3.65,8.13-3.27,6s-5.75.93-8,.65-5.89-.37-6.59-.56-5.19,1.22-4.44,2.66a9.8,9.8,0,0,1,2.24,2.66,3.8,3.8,0,0,1,.19,2.2c0,.33.14,1.12.14,1.5a3.17,3.17,0,0,1-.28,1,15.43,15.43,0,0,0-1.5,1,10.24,10.24,0,0,0-2.15,3.08,15.57,15.57,0,0,1-3.55,3.27c-.51.23-5.7,2.2-7,2.66s-.61.89,0,2.06c-.23,1.5-3.18,5.7-4,6.08-1,.42-6.87,1.78-6.87,1.78l-5.84-2.9s-3.37-2.85-4.86-.47A25.93,25.93,0,0,0,173.8,294a11.51,11.51,0,0,1-.93,2.34c-.23.33-4,4.58-8.37-1.17-1.36-.19-3-.89-4.81.28-1.31.09-2.62-.75-4.44.79-1.07,0-3.83.33-5.66-.65a2.15,2.15,0,0,0-1.5,2s-2.2-.75-2.43,4c-1.17.37-10.75,1.54-11.12,5.33a20.71,20.71,0,0,1-.47,4.39,36.7,36.7,0,0,1-4.25.37c-.79-.09-2.52,1.92-2.8,2.43s-6,2.8-7.85-1.12a1.68,1.68,0,0,0-.75-2.34c-.79-.23-2.8-.65-1.92,2,.42,1.73-.89,3,.28,4.72s2.85,4.44,2.85,5.28c-2.34-1.17-5.14-1.08-6.87-1.45S110,320,109.63,320s.56,0,0-1.07-3.46-1.64-3.88-1.64,1.5-1.5-.23-1.92-5.7-4.67-7.29-2.62c-1.31.42-4,1.36-3.51,3.83,1,.23,2.29,1.12,1.12,1.82s-3.13.23-1.73,3.41c0,.37-.47,2.66-2.24,1.17-.93-1.17-7-2.34-8.23-2.38s-5.47.58-6.45,2.89C76.91,323.71,75.55,322.54,75.55,322.54Z"/><path class="cls-2" d="M77.12,325a4,4,0,0,1-2.29-1.18,3.29,3.29,0,0,1-.66-.49,2.94,2.94,0,0,0-2.21-1l-1.37,0-.09-1.37c0-.33,0-.75,0-1.2a6.57,6.57,0,0,0-.12-2,1.43,1.43,0,0,0-.68-.39l-1.6-.15.4-1.56a1.57,1.57,0,0,0,0-.73h-.08l-.42,0-.32-.27a6.73,6.73,0,0,1-1-1.06c-.64-.81-1.11-1.39-3.16-1.39h-.9l-.38-.81A20,20,0,0,1,61,305.68c-.15-.6-1.2-4-2.14-6.92l-.31-1,.84-.6,0,0A7.52,7.52,0,0,1,56.17,294c-1.49-.15-3.85-.37-3.88-.37l-1.83-.17.62-1.73a2.3,2.3,0,0,0,0-1.51,51.29,51.29,0,0,1-4.47-5.89c-1-1.4-2-2.84-2.38-3.26a71.29,71.29,0,0,0-9.78-6.3l-1.1-.39.14-1.17c1.22-8,2.21-9.94,3-10.5-1.25-1.49-3.4-4.55-5.38-7.39l-.6-.85c-2.74-3.37-9.34-11.82-10.27-15.83-.33-1.54-.8-12.84-.83-14.52-.05-.29-.09-.62-.13-1a5.07,5.07,0,0,0-.33-1.61,3.61,3.61,0,0,0-.7.19l-3.08,1.2,1.26-3.06a6.66,6.66,0,0,1,.42-.79l.18-.31a2.46,2.46,0,0,0-.83-.26l-1.12-.1-.18-1.12a15.57,15.57,0,0,0-.52-2.52l-.09-.06a2.24,2.24,0,0,1-1-1.74,5.89,5.89,0,0,1,.66-3.12.2.2,0,0,0-.12-.21,5.06,5.06,0,0,0-2-.3H10.15l.2-1.59a28.41,28.41,0,0,0-1.25-10c-.17-.5-.4-1.15-.65-1.9C6.22,189.43,5,185.68,5,184.33c0-.63,0-1.22.09-1.73a6,6,0,0,0,0-2.13c-.33-1.14-.48-2.09.72-3l0,0,.24-.5c1.13-2.3,3.47-7.09,7-8.58A23.09,23.09,0,0,1,20.19,166c1.26-2,2.89-4.43,6-5.69l2.15-.86-.21,2.3c0,.34-.11.75-.18,1.17V163c1.89-.5,5-1.58,5.69-2.32l2.13-2.27.31,3.1a6.79,6.79,0,0,1,0,.8c0,1.06,0,1.17.4,1.24a15,15,0,0,0,3.59-1.36,12.38,12.38,0,0,1,2.35-.95l.94-.19.53.79c.34.51.62,1.46,1.19,5.25l.06.36a24.28,24.28,0,0,0,1.71,4.8A3.28,3.28,0,0,1,48,173.55l0,.09a4.25,4.25,0,0,1,1.11.7l.31.24,1.15-.76.73,1.43a5.63,5.63,0,0,0,1.31,1.7l3.3-.8a4.81,4.81,0,0,0,.56-.16c0-.14,0-.35-.08-.62l0-.22,0-.22a6.1,6.1,0,0,1,1.31-2.78l.2-.27a26.79,26.79,0,0,0,.2-3.83,18.85,18.85,0,0,1,.06-2.75c0-.23,0-.41,0-.52V164l.66-.42h0s.38-.7,0-3.47l0-.25h0l2.8-.44h0l0,.27c.4,2.6.73,4.67,1.07,5.83a9.78,9.78,0,0,1,3.75-.81c.63-1.47,1.51-3,3.31-3.12a4.77,4.77,0,0,0,1.21-.22c-.13-.8-.41-2.46-.6-3.16L65,154.64l6.69,1.19c3.3.59,8.09,1,8.13,1l1.31.1v2c6.66-2.82,8.42-3.51,9-3.69a3.6,3.6,0,0,0,.66-.61L90.5,154l.9-.79c.09-.08,9.87-8.37,12.18-9,1.95-.56,5.62-.36,7,.37l.37.14a13,13,0,0,1,.09-1.63,4.32,4.32,0,0,0,0-.89l-1-2.23,2.43.27a30.84,30.84,0,0,0,4.2,0l-.13-1.76,2.13.84,7.46,3.11c1.33-1.64,2.16-3.3,2-3.77l-.59-1.37,1.4-.51c1.67-.61,8.73-1.38,11.59-.76,1.17.26,3.43.61,5.61,1,3.07.49,5,.8,5.79,1a69.87,69.87,0,0,0,8.69.93,20.75,20.75,0,0,0,9.84-7.28l.16-.19a32.31,32.31,0,0,1,7.67-5.56c.58-.71,1.24-1.62,1.89-2.52,1.74-2.41,2.42-3.28,3.2-3.57.6-.22,3.83-2,4.37-2.36,1.26-.76,7.79-.29,10.42.11,1.29-1.56,5.24-7.18,8.71-12.31,2.77-3.57,5.77-7.59,6.09-8.29l1.79-3.82.89,4.1a46.89,46.89,0,0,0,4,9.23,27.41,27.41,0,0,0,5.95-2.22,28.58,28.58,0,0,0,3-1.9l-.75-.19.45-3.66,1-.2a63.22,63.22,0,0,0,6.55-1.59,4.74,4.74,0,0,0,.17-.54l-.5-.81.72-.79c.15-.16.39-.49.72-.93,1.95-2.58,6-7.92,10.69-9.35.67-.34.69-.38,1.1-1.12l.12-.22.19-.17a15.82,15.82,0,0,1,2.49-1.67,10.19,10.19,0,0,0,1.67-1.1l.3-.33a5.93,5.93,0,0,1,2-1.58c.79-.37,9-3.25,14.25-2.36A15.44,15.44,0,0,0,279,70.08l.14-.17.19-.12A13.33,13.33,0,0,0,281.7,68h0v0c.41-4,.3-5.32.14-5.7-.44-.75-.91-1.4-1.32-2l-.5-.71c-.86-1.25-1-4.44.33-6,.39-.45,3.73-3.8,5.43-3.9.36,0,2.08-.55,3.21-.88a27.91,27.91,0,0,1,3.15-.84l.35,0a13.89,13.89,0,0,1,5,0c.81-.16,1.53-.36,2.16-.54a12.76,12.76,0,0,1,1.64-.39,33.22,33.22,0,0,0,5.71-3.8c.47-.71,3.84-7.94,4.13-8.78,1.94-6.24,3.06-7.1,3.48-7.42,1.61-1.24,9.2-2.71,12.4-1.35l.69.29.15.73a11.41,11.41,0,0,1-.18,3,23.35,23.35,0,0,0-.25,2.9,5,5,0,0,0,.22.78l.81.29-.22,1.18c-.13.68-.33,5.56-.34,7.61l.85.13a5.28,5.28,0,0,1,2.23.6l.23.13c1.75.92,1.56,2.13,1.29,2.76l-.11.25-.19.19-.44.43a8.86,8.86,0,0,0-1.15,1.23,23.17,23.17,0,0,1-3.41,5.42,17.92,17.92,0,0,1,2.14,0l1.55.16-.31,1.53a10.52,10.52,0,0,0-.23,2.19l.21.21v.59c0,.2,0,.39,0,.59a4.88,4.88,0,0,0,0,1.22,42.68,42.68,0,0,1,.28,8.43,4.62,4.62,0,0,1-1.46,3.38,12,12,0,0,0-.41,1.9c-.3,2.77-.61,6-.6,6.46v.32l.12,0,.19,0a3.64,3.64,0,0,1,2.38.44,1.29,1.29,0,0,0-1.36.15l2,2a7.87,7.87,0,0,0-1.25,1.88l2.79.2-2,2.17c-.89,1-3.84,4.13-4.52,4.36a1.69,1.69,0,0,1-.83,0l-.11,0a2.8,2.8,0,0,0,0,.3,28,28,0,0,0,.58,4l.4,1.58-3.26.37.13,4.11a18.8,18.8,0,0,1,2.82,2.58,6.75,6.75,0,0,1,.69,1.43,1.73,1.73,0,0,1,1.2.91,2.51,2.51,0,0,1,.39,2.46,1.62,1.62,0,0,1-1.52,1.18l-.52,0h-.12a1.67,1.67,0,0,1-.51,2.25l-.5.36c-.17.12-.43.3-.62.46l.09.24c.19.52,2.52,5.8,3.22,6.86l.2.3,0,.36c0,.21,0,.44,0,.68.1,1.78.26,3,1.58,3.55l.59.25.2.61a17.2,17.2,0,0,1,.19,5c0,1-.08,2,0,2.39l.16,1.52-1.53,0c-.28,0-.55,0-.82,0a4.45,4.45,0,0,0-.85,0s-.06.17-.1.52l0,.23-.1.21a8.2,8.2,0,0,1-.78,1.23c-.76,1-.93,1.42-.63,2l.09.18,0,.2a5,5,0,0,1,0,1.26c-.06.91-.12,1.77,2.28,3.56l.29.21.15.32c.11.23.22.49.33.77.62,1.51,1.12,2.52,2.35,2.68l.79.1.32.73c.08.18.15.34.2.48l0,.06c.32,0,.88.09,1.21.12a14.12,14.12,0,0,0,3,0l1.07-.18.47,1a10.15,10.15,0,0,1,.87,2.89c0,.24,0,.81,0,1.56a52.35,52.35,0,0,0,.23,6,13.84,13.84,0,0,1,.23,2.07,7,7,0,0,0,.33,2.2,2.51,2.51,0,0,1-.08,3.67l-.11.13a5.33,5.33,0,0,1-1.39,1.06,6.57,6.57,0,0,0-.94.65,2,2,0,0,1-1.44.81,2.55,2.55,0,0,0-.21.26c-.23.32-.4.55-.53.71l.08,1.19a3.1,3.1,0,0,1,1.67.87,6.33,6.33,0,0,1,.91,1.25l.11.19.13.23a3.6,3.6,0,0,1,1.9,1.53,15.87,15.87,0,0,1,.63,4.6h0a3.29,3.29,0,0,1,.27.28l.31.35c.06,0,.35.21.54.33.83.47,2.08,1.18,2.08,2.6,0,.34.16,1.36.28,2.11a9.72,9.72,0,0,1,.26,2.72,4.39,4.39,0,0,1-2.48,2.88c-1.11.47-2.36.44-5.1.4H337a36.84,36.84,0,0,0-3.71,0,6.6,6.6,0,0,1-2.27.89l-.94.27c-.4.12-.66.21-.83.27a5.22,5.22,0,0,1-.32,1.62l-.13.42a2.41,2.41,0,0,1-.72,1.11l0,0a5.08,5.08,0,0,0,.24,1.53l0,.13c.34,2.09.39,2.59-.22,4.12s-3.88,4-5.75,4.2c-1.16.29-9.27,5.23-12.64,9.52l-.17.21-.23.14a3.21,3.21,0,0,1-5.21-2.21l0-.26c-.05-.66-1.14-.8-2-.8-5.24,0-7.08.83-7.31,1.12-1.29,2.4-3.4,4.84-9.29,4.62-13.09-.11-17.43.65-18.62,1.37a22.1,22.1,0,0,0-.66,5.39v1.34h-1.41l0,1.24-24.35.54a3.09,3.09,0,0,0,0,.43l0,1-1,.34c-.24.08-.67.27-1.24.5-4.14,1.73-8.77,3.52-11.27,2.84-.68-.18-1.16,0-1.29.21s0,.62.58,1a3.28,3.28,0,0,1,1,3.92,11.23,11.23,0,0,0,4.57,2.61l.14.05a11.21,11.21,0,0,1,4.64,3.65l.44.65-4,8.95-3.6,6.64-.69.11c-.61.1-6,1-8.44.66-1.08-.13-2.5-.22-3.75-.3a27.08,27.08,0,0,1-2.89-.26,7.85,7.85,0,0,0-2.55.91,8.94,8.94,0,0,1,1.83,2.36,4.51,4.51,0,0,1,.37,2.75l0,.15c0,.08,0,.28.06.49a9.64,9.64,0,0,1,.08,1,4.21,4.21,0,0,1-.41,1.58l-.19.42-.4.23a14.1,14.1,0,0,0-1.34.88,9.35,9.35,0,0,0-1.68,2.48c-.48,1.19-3.63,3.74-4.28,4s-4.71,1.83-6.49,2.49l.17.33.19.4-.07.44c-.29,1.86-3.46,6.54-4.84,7.15-1.12.46-6.13,1.63-7.13,1.86l-.5.11-6.58-3.31a4.18,4.18,0,0,0-2.39-1.07c-.08,0-.2,0-.35.28a26.31,26.31,0,0,0-2,3.86,12.25,12.25,0,0,1-1.15,2.8,6.44,6.44,0,0,1-4.68,2.41h-.09c-2,0-3.82-1-5.52-3.1l-.33-.07a3.5,3.5,0,0,0-2.95.23l-.3.19-.36,0a7,7,0,0,1-1.37-.07,2.35,2.35,0,0,0-2.25.54l-.37.31-.85,0a13.31,13.31,0,0,1-5.26-.5.59.59,0,0,0-.17.32l.07,2.05-1.82-.62c-.15.11-.59.76-.69,2.66l0,1-.94.3c-.26.08-.61.15-1.33.29-6.93,1.37-8.63,2.78-8.81,3.74a22.42,22.42,0,0,1-.5,4.63l-.21,1-1,.13a37.06,37.06,0,0,1-4.36.39,7.64,7.64,0,0,0-1.65,1.69c-.59,1.09-3.43,1.92-5.39,1.86a5.38,5.38,0,0,1-4.87-2.86,9.94,9.94,0,0,1-.16,1.07c-.17.86-.21,1.18.12,1.65.93,1.34,3.1,4.63,3.1,6.09v2.3l-2.05-1a13.51,13.51,0,0,0-4.53-1c-.72-.08-1.4-.16-2-.29a13.11,13.11,0,0,1-2.63-.9l-.27-.12-.86.12-.47-1.06-.4-1.07.11-.07a8.57,8.57,0,0,0-2.23-.66h0a1.45,1.45,0,0,1-1.25-.77,1.48,1.48,0,0,1,0-1.4,14.39,14.39,0,0,1-2.32-1.4c-.75-.52-2.31-1.59-2.82-1.5L99,314l-.38.13c-1.64.53-2.28,1-2.49,1.52a2.67,2.67,0,0,1,1.54,1.86,2.06,2.06,0,0,1-1.13,2.14,5.12,5.12,0,0,1-1.18.5l-.33.11a4.54,4.54,0,0,0,.34,1l.08.19,0,.21a3.33,3.33,0,0,1-1.49,3,2.61,2.61,0,0,1-3.07-.56l-.19-.2c-.76-.68-5.78-1.8-7.17-1.85s-4.52.67-5.09,2l-.16.37-.33.23A1.51,1.51,0,0,1,77.12,325Zm6.42-5.75h.15c.45,0,6.68.86,8.84,2.49a3.52,3.52,0,0,1-.09-2.7,2.47,2.47,0,0,1,1.16-1.19l-.1,0-.17-.91c-.46-2.42.92-4.2,4.09-5.32,1.84-1.8,4.51,0,6.31,1.26a9.43,9.43,0,0,0,2,1.18l.13,0a2.22,2.22,0,0,1,1.69,1.32,2,2,0,0,1,.12.93,5.33,5.33,0,0,1,3.21,2,3,3,0,0,1,.31.81,9.8,9.8,0,0,0,1.88.63c.46.1,1.07.17,1.72.24s1.46.16,2.25.31c-.41-.68-.89-1.44-1.41-2.18a4.53,4.53,0,0,1-.58-3.8,3.45,3.45,0,0,0,.1-1.34c-.46-1.4-.34-2.48.37-3.22.5-.52,1.48-1,3.31-.49a2.78,2.78,0,0,1,1.77,1.76,3.22,3.22,0,0,1,.14,1.8,2.29,2.29,0,0,0,1.31.85,6.36,6.36,0,0,0,3.93-.56c.58-.81,2.35-3.06,4-2.87a25.4,25.4,0,0,0,2.89-.24,15.73,15.73,0,0,0,.26-3v-.21c.42-4.21,7.62-5.64,11.09-6.32l.13,0c.24-1.86.85-3.1,1.84-3.78a2.87,2.87,0,0,1,.79-.38,3.69,3.69,0,0,1,2.1-1.94l.61-.24.58.31c1.26.68,3.39.57,4.46.51a5.11,5.11,0,0,1,4-.87l.53.06a6.36,6.36,0,0,1,4.67-.4c.25.05.5.1.73.13l.58.08.35.46c1.23,1.6,2.44,2.42,3.6,2.43h0a3.67,3.67,0,0,0,2.48-1.25,12.8,12.8,0,0,0,.7-1.86,26.37,26.37,0,0,1,2.33-4.66,3.27,3.27,0,0,1,2.31-1.55c1.92-.3,3.88,1.09,4.51,1.6l5.24,2.6c2.25-.53,5.28-1.28,6.06-1.56A19.05,19.05,0,0,0,196,285.4l-.06-.11a2.09,2.09,0,0,1,1.13-3.44c1.53-.56,6.44-2.43,6.87-2.62a17.9,17.9,0,0,0,2.87-2.6,11.33,11.33,0,0,1,2.57-3.6c.44-.33.88-.62,1.19-.81l0-.07c0-.1,0-.33-.07-.57a8.68,8.68,0,0,1-.08-.87,3.91,3.91,0,0,1,0-.47,1.94,1.94,0,0,0-.06-1.07,8.5,8.5,0,0,0-2-2.3l-.17-.16-.11-.21a2.22,2.22,0,0,1,.31-2.45c1.17-1.46,4.62-2.53,5.75-2.23.27.06,1.5.14,2.49.21,1.29.08,2.74.18,3.91.32a37.32,37.32,0,0,0,7-.54l2.91-5.36,3.26-7.28a8.67,8.67,0,0,0-2.85-2c-3.09-1-5.67-2.89-6.38-4.23a1.85,1.85,0,0,1-.19-1.45,4.84,4.84,0,0,1,.18-.46c.23-.54.24-.58-.14-.92a3.62,3.62,0,0,1-1.27-4.49,3.79,3.79,0,0,1,4.55-1.67c1.77.48,7.54-1.93,9.44-2.72l.51-.21a2.61,2.61,0,0,1,1.41-2.19l.25-.11,24-.54a23.84,23.84,0,0,1,.9-6.42l.1-.34.25-.25c2.1-2.1,9.89-2.48,20.92-2.38,5,.16,6-1.82,6.73-3.13.32-.63,1.34-2.61,9.8-2.61,4,0,4.72,2.16,4.86,3.25a1.75,1.75,0,0,0,.34.72,3.8,3.8,0,0,0,.47-.2c3.72-4.55,12.43-10.14,14.38-10.35a7.51,7.51,0,0,0,3.42-2.44c.34-.85.34-.86.07-2.55-.56-2.19-.4-3.31.59-4.25l.1-.33a2.41,2.41,0,0,0,.19-.83c-.31-2,1.68-2.58,2.87-2.93l1-.28c.4-.11.88-.25,1.14-.34.64-.74,2.1-.76,5.65-.7h.52a13.87,13.87,0,0,0,4-.18,1.81,1.81,0,0,0,.78-.75c0-.35-.16-1.21-.25-1.8-.16-1-.27-1.77-.3-2.28a7.25,7.25,0,0,0-.66-.4,4.66,4.66,0,0,1-1.31-1l-.25-.28a3,3,0,0,1-1-2.45,18.54,18.54,0,0,0-.35-3,3.9,3.9,0,0,0-.57-.3,2.82,2.82,0,0,1-1.39-1.39l-.1-.17a3.25,3.25,0,0,0-.49-.7,16.61,16.61,0,0,0-2.1-.45l-.65-.11-.29-.25a2.47,2.47,0,0,1-1-2.71,2.66,2.66,0,0,1,1.6-1.6,3.39,3.39,0,0,1,.38-.57c.12-.15.29-.36.53-.71a2.92,2.92,0,0,1,1.91-1.39,7.62,7.62,0,0,1,1.49-1.09,7.41,7.41,0,0,0,.71-.47l.14-.17,0,0a6.68,6.68,0,0,1-1-3.82,12.11,12.11,0,0,0-.17-1.63,44.44,44.44,0,0,1-.29-6.57c0-.68,0-1.2,0-1.42a4.49,4.49,0,0,0-.26-1,24.82,24.82,0,0,1-2.55-.08c-1.91-.15-2.84-.22-3.52-1.68-2.32-.7-3.22-2.88-3.77-4.23l-.14-.34c-3.07-2.4-3.22-4.18-3.11-5.8,0-.16,0-.31,0-.43-.89-2.09.28-3.71,1-4.69.16-.23.32-.44.43-.63a2.93,2.93,0,0,1,3.06-2.74c0-.38,0-.79,0-1.22,0-1,.1-2.59,0-3.47-2.35-1.42-2.49-4-2.58-5.64l0-.28c-1-1.77-3.13-6.62-3.31-7.11a2.74,2.74,0,0,1,.1-2.74,5.63,5.63,0,0,1,1.24-1.09,2.75,2.75,0,0,1,.2-2.27,1.77,1.77,0,0,1,1-.8,1.59,1.59,0,0,1-.29-.53l0-.12a5.36,5.36,0,0,0-.5-1.17,33.78,33.78,0,0,0-2.74-2.34l-.52-.41-.25-8,2.72-.3c-.11-.7-.24-1.62-.34-2.75a3.09,3.09,0,0,1,.72-2.77,2.65,2.65,0,0,1,2.08-.7c.49-.48,1.35-1.35,2.13-2.16a2.28,2.28,0,0,1-.24-.43,3.4,3.4,0,0,1,.31-2.79,2,2,0,0,1-1.33-.37,3,3,0,0,1-1.1-2.56v-.18c0-.79.41-5.14.61-7,.41-2.95,1-3.41,1.29-3.63s.45-.35.58-1.64a40.84,40.84,0,0,0-.27-7.7,7.63,7.63,0,0,1,0-1.85v0a5.11,5.11,0,0,1-.16-2.18c-.65,0-1.56.06-2.8.14-.71,0-2.86.18-3.6-1.33a2.59,2.59,0,0,1,.58-2.8L322,52l.5-.08c1-.16,2.22-.37,2.76-.5a32.14,32.14,0,0,0,2.53-3.93,4.24,4.24,0,0,1,1.31-2l-.83-.13a6.44,6.44,0,0,1-2.62-.71l-.37-.25-.16-.42c-.29-.77,0-6.69.19-8.89a5.06,5.06,0,0,1-.72-1.91,13.54,13.54,0,0,1,.2-3.85c0-.4.1-.87.15-1.28-2.67-.42-7.77.61-8.67,1.23-.29.25-1.19,1.83-2.47,6-.27.86-3.88,8.71-4.56,9.68s-6.16,4.78-7.59,4.94a10.61,10.61,0,0,0-1.28.31,27.24,27.24,0,0,1-2.75.66l-.33.06-.33-.1a10.75,10.75,0,0,0-4.1,0l-.41.05c-.3,0-1.68.45-2.68.75a31.34,31.34,0,0,1-3.72,1,16.93,16.93,0,0,0-3.58,2.94,3.5,3.5,0,0,0-.12,2.59l.45.64c.45.62,1,1.33,1.46,2.19.72,1.1.64,3.46.24,7.43l-.11,1.15-.45.37-.35.31a15.68,15.68,0,0,1-2.56,2,18.21,18.21,0,0,1-11,6.56l-.31.08-.31-.06c-4.31-.89-12.11,1.78-12.81,2.09a3.46,3.46,0,0,0-1.07.94l-.32.34a10.68,10.68,0,0,1-2.3,1.6,16.68,16.68,0,0,0-1.87,1.19,4.21,4.21,0,0,1-2.23,2.09l-.31.13c-3.86,1.11-7.7,6.2-9.35,8.38l-.37.49a4.47,4.47,0,0,1-.35,1.88l-.14.43-.13.42-.35.27c-.75.58-3.53,1.29-6.24,1.87l.19.16.55.48-.08.73c-.06.53-.19,1.77-5.25,4.64a27.17,27.17,0,0,1-7.79,2.7l-.66.07-.48-.46c-1.11-1.07-3-5.22-4.22-8.29-1.58,2.2-3.78,5-4.67,6.18-3.09,4.58-8.54,12.5-9.69,13.33l-.64.45-.72-.29a50.28,50.28,0,0,0-9-.48c-.81.52-3.63,2.07-4.63,2.49a28.21,28.21,0,0,0-2,2.64c-.76,1-1.54,2.13-2.24,3l-.24.28-.35.13a29.21,29.21,0,0,0-6.92,5c-3.87,5.58-10.65,8.34-12,8.41a68.79,68.79,0,0,1-9.63-1c-.68-.2-3.21-.6-5.44-1s-4.52-.71-5.77-1c-1.9-.41-6.75,0-9,.41-.28,2.35-2.54,5-3.36,5.89l-.67.73-.92-.38-7.14-3a2.11,2.11,0,0,1-.83.49l-.31.06c-.1,0-1.94.15-3.89.1l0,.22a9.25,9.25,0,0,0-.07,1.55,2.44,2.44,0,0,1-1,2.3,3.55,3.55,0,0,1-3.45-.08l-.12-.06a10.72,10.72,0,0,0-4.88-.15c-1.3.44-8.32,6.09-10.61,8a2.59,2.59,0,0,1-.2.57,5.07,5.07,0,0,1-2.63,2.36c-.78.25-6.89,2.83-10.61,4.41l-2,.84v-3.65c-1.21-.11-3.08-.3-4.92-.55.1.54.21,1.18.34,2l.05.32a2.11,2.11,0,0,1-.38,1.71c-.75,1-2.31,1.34-3.49,1.43-.35,0-.89,1.36-1.19,2.08l-.61,1.5-1.23-.36c-1.08-.32-2.58.28-3.57.67a7.81,7.81,0,0,1-1.09.38l-.87.19L61,168.3a32.94,32.94,0,0,1-.23,3.85l-.11.63a4.31,4.31,0,0,1-.64,1,3.85,3.85,0,0,0-.75,1.34v.08l5-1.61-5,3.1a2.33,2.33,0,0,1-.25.7,6.27,6.27,0,0,1,1.53,1.84,2.46,2.46,0,0,1,.18,2.15l0,.1c-1,2-4.16,2.06-6.62,1.31l-.11,0c-2-.8-2.53-1.93-2.6-2.74a2.38,2.38,0,0,1,0-.58,7,7,0,0,1-2-2,3.68,3.68,0,0,1-2-.92,3.6,3.6,0,0,0-.38-.28,2.52,2.52,0,0,1-1.54-1.44c-.11-.21-.14-.27-.17-.28l-.19-.1-.15-.15c-1.09-1.09-2.42-5.64-2.55-6.44l-.06-.38c-.21-1.4-.38-2.36-.5-3l-.5.23c-1.63.76-3.48,1.63-4.88,1.63l-.21,0a3.08,3.08,0,0,1-2.75-2.3c-2.6,1.22-6.26,2.13-7.07,2l-.25,0-.22-.12a1.8,1.8,0,0,1-.93-1.53,15.72,15.72,0,0,0-2.68,3.56l-.53.86H21c-1.49,0-3.72.72-6.82,2.2-2.56,1.09-4.67,5.4-5.57,7.24-.19.38-.33.68-.44.87l-.12.22-.19.16-.11.09,0,.13a8.43,8.43,0,0,1,.14,3.16c0,.48-.08,1-.08,1.49,0,1.15,2.31,7.79,3.29,10.63l.66,1.91a32.82,32.82,0,0,1,1.47,9.72,7.19,7.19,0,0,1,1.56.39,2.92,2.92,0,0,1,1.89,2,2.84,2.84,0,0,1-.37,2.44,4,4,0,0,0-.19,1.1,2.84,2.84,0,0,1,.79,1,10.71,10.71,0,0,1,.64,2.41,5.36,5.36,0,0,1,1.25.61A2.2,2.2,0,0,1,20,218.91a2.73,2.73,0,0,1,.46.22c1.35.82,1.53,2.49,1.66,3.72,0,.3.06.59.11.83l0,.29c0,1.63.53,13,.76,14.05.65,2.78,5.47,9.44,9.76,14.74l.66.94c1.38,2,4.57,6.56,5.56,7.57a2.13,2.13,0,0,1,1,2.06,2.42,2.42,0,0,1-1.85,1.77c-.41.75-1.08,3.29-1.76,7.51,2.72,1.47,8.76,5.35,9.85,6.53.49.53,1.32,1.7,2.62,3.56a52.12,52.12,0,0,0,4.19,5.55l.23.26a4.15,4.15,0,0,1,.7,2.43c1.14.11,2.62.25,3.31.33l1,.12.23,1a4.21,4.21,0,0,0,2.25,2.33,2.5,2.5,0,0,1,1.71,2,2.71,2.71,0,0,1-.72,2c2,6.3,2,6.47,2,6.74a22.11,22.11,0,0,0,.7,3.86,5.57,5.57,0,0,1,4.38,2.42c.13.16.24.3.35.43a2.75,2.75,0,0,1,1.53,1.06,3.38,3.38,0,0,1,.59,1.73,4.67,4.67,0,0,1,1.08.81c.94.94,1,2.5.92,3.81a6.23,6.23,0,0,1,2.52,1.4l.06,0,.56.48.25.21C78.65,319.63,82.32,319.2,83.54,319.2Zm42.35-6a1.24,1.24,0,0,0-.13.19ZM130,313Zm-12.21-1.11.07.21,0,.12,0,.07.08-.13a.59.59,0,0,0-.07-.24Zm-57.93-14.5Zm133-7.29ZM37.93,265.19l-.13,0ZM16.28,211.53h0Zm-2.14-1.86h0Zm317-16.64v0ZM54.9,180.14a5.63,5.63,0,0,0,2.94.18,4.24,4.24,0,0,0-1.9-1.43l-.11,0-1.4.87-.14.09A3.28,3.28,0,0,0,54.9,180.14ZM71,161.74v0Zm19.09-6.54Zm.23-.07-.12,0ZM325.74,91.41ZM330,84.87Zm-.63-13.16ZM286.13,52.47ZM330.61,48v0Zm-2.81-.4h0ZM301.38,47h0Z"/></svg>