<svg id="Layer_1" data-name="Layer 1" xmlns="http://www.w3.org/2000/svg" viewBox="0 0 350 350"><defs><style>.cls-1{fill:#999;}.cls-2{fill:#f90;}</style></defs><title>M</title><path class="cls-1" d="M340.59,184.15a19.28,19.28,0,0,0,.76-2.47,4.83,4.83,0,0,0-.25-1.76,6.27,6.27,0,0,0-1.36-.6c-.81-.25-1.21-1.66-1.21-1.66s.05-1.41.05-1.76a6.28,6.28,0,0,1,.81-1.56l1.51.1s.45-1.21,0-1.56a19.77,19.77,0,0,0-3.68-1.31,39,39,0,0,0-4.33.05,3.89,3.89,0,0,0-.45.86c-.25.6-1.21.5-1.61,1.06s-3.22,3.47-3.22,3.47a11,11,0,0,1-1.71.3c-.5,0,1.31-2.72,1.31-2.87a8.74,8.74,0,0,0-1.06-1.22,3.24,3.24,0,0,1,.15-1.4c.25-.65.3-1,.5-1.46s.55-.4.55-.81-.05-1-.05-1.81.15-1.36-.2-2-3.93-.05-3.93-.05a21.25,21.25,0,0,1-1.71-2.17,6,6,0,0,0-1.86-1.51s.65-1.16,1-1.81.55-1.11.4-1.56a2.13,2.13,0,0,1,.25-1.41c.2-.55-.15-.86-.55-1s-.3-.6-.81-.91-.55-1.06-.7-1.81-.25-.2-.81-.55-.71-.6-.76-.75.15-6.63.15-6.63l-2.22-1.28a3.38,3.38,0,0,0-.86.25,20.85,20.85,0,0,1-3.22.25s-.6,1.16-1,1.76a2.85,2.85,0,0,0-.3,1.41l-2.87-.91.1-.86-2.77-1.91a2.47,2.47,0,0,1-.4-.81c-.15-.5.45-.5.81-.91s1.21-1.71,1.76-2.32,1.51-1.31,1.71-1.56a6.24,6.24,0,0,0,.45-1.41l-.05-.5a3.39,3.39,0,0,1,.05-1,9.72,9.72,0,0,0,.15-1.71A19.31,19.31,0,0,1,309,132c.1-.4,1.16-.25,1.16-.25a5,5,0,0,0,.4-1.36,4.88,4.88,0,0,0-.55-3.32c-1-2,1.36-3.22,1.36-3.22a3.28,3.28,0,0,0-.2-.91c-.15-.3-3.12-2.62-3.12-2.62l-1.71,1.46a2.74,2.74,0,0,0-1.26-1.41,3,3,0,0,1-1.31-1.61,4.62,4.62,0,0,0-1.46-.49c-.6,0-2.87-.07-3.52,0s-.6.34-1.41.54a4.44,4.44,0,0,0-1.86,1.08c-.65.52-1.26.33-1.91.33a2.11,2.11,0,0,0-1.31.45,4.27,4.27,0,0,1-2,.6c-.91.05-.76-1.46-.81-2a1.37,1.37,0,0,0-.4-1c-.2-.19-2-1.27-2-1.27a8,8,0,0,1-1.11.4c-.3.05-2.17.15-3.52.15s-1.71-1-2.06-1a19.28,19.28,0,0,1-3.37-.05c-.76-.2-.2-.55-.25-1.26s-1.71-1.36-1.86-1.51-.45-.1-.91.25a7.82,7.82,0,0,0-1.11,1.31l-2.06.1-.1,1.26a8.81,8.81,0,0,0-2,1c-.6.5-.45.55-.76.81s-.86-.35-1.46-.55-2.37-.65-3.22-1-1-1.11-1.46-1.46a8.63,8.63,0,0,0-2.72-.76,2.45,2.45,0,0,1-1.76-1.51c-.1-.2.15-.81.3-1.06a5,5,0,0,1,2.62-1c1,0,2.17-.5,2.27-1.06s-.1-.71-.6-1.51a12.69,12.69,0,0,0-2.52-2.32c-.35-.25-.7,0-1.11-.1s-.65-.65-.81-1a3.41,3.41,0,0,1-.2-1.31,1.92,1.92,0,0,1,.65-1.36c.45-.5.5-1.51.76-1.86s-.6-1-.81-1a10.37,10.37,0,0,0-1.31-.35c-.6-.1-2.27-1.81-2.27-1.81l.25-.76c.25-.76.81-2.57.81-2.57s.76-.65,1-.81,1.06-.35,1.26-.71a9.79,9.79,0,0,1,.91-1.76c.55-.76.2-1,.2-1.26a6.81,6.81,0,0,1,.35-1.26s-.71-1-.91-1.16-2.72-1.46-2.72-1.46l.55-1.56s-.6-.71-.81-.91-.55-.2-1.36-.35h0a6.57,6.57,0,0,1-3.49-.25A5.25,5.25,0,0,1,248,79.62c-.95-2.64-1.73-7.7-4.2-9.78a5.28,5.28,0,0,1-1,.25c-.3,0-1.51.86-2.52,1.16a15.7,15.7,0,0,1-2.92.38l-3.78,2.6a5.59,5.59,0,0,1-.5,1.51,2.24,2.24,0,0,1-1.51,1.21V79.7s-.3.57-1,1.83-.1,3.52-.1,3.52l-1.31-.3-6.75-2.11-.81.5s-1.26-.4-1.71-.6a9.75,9.75,0,0,0-2.17-.3,6.13,6.13,0,0,1-2.37-.45c-1-.45-.45-.81-.76-1.41s-2-.3-2-.3-.3.81-.5,1.31a10.13,10.13,0,0,1-1.06,1.81,15.9,15.9,0,0,0-.91,2.22l.4,1.11-2.52,3.88,1.56,3,.15,1.21s-1.11,2.22-1.76,4c-.7,1.16-3.88,1.76-3.88,1.76a10.26,10.26,0,0,1-1.41.86,9.85,9.85,0,0,1-2.57.65c-.15,0-.45,1.21-.45,1.21a2.32,2.32,0,0,1,.35,1.36c0,.91-.1.6-.81,1.81s-.2,1.31-.2,1.31a9.27,9.27,0,0,0,1.56,1.26c.35.1,1.36.3,1.36.3l.3.86a7.75,7.75,0,0,1,1.61,1c-.25.55-2.32,4.43-2.32,4.43l-.3,1.51a16,16,0,0,0-1.91,4.93l-.81.76-.2.6c-.2.6,2.32,1.31,2.32,1.31L197.78,128a12.58,12.58,0,0,1,.65,2.72c-.05.65-.1,2.22-.2,2.62a5.81,5.81,0,0,1-.86,1.31s-4.18-.5-4.63-.2-1.21.91-1.86,1.26-.4.76-.76,1.31.25,1.56.45,1.86-1.26.3-1.66.2-1,.6-1.21.5-.65.1-1.41.35a1.55,1.55,0,0,0-1,.71l-.5-.25-.3-1.46s-.25-1.61-.25-1.76-1.11-2-1.11-2a5.4,5.4,0,0,0-1.06-.6,3.35,3.35,0,0,1-.86-.5l-.5.1a10,10,0,0,0-1.61-.55,5.11,5.11,0,0,0-.71,1,7.54,7.54,0,0,1-1.56-.81c-.5-.4.76-1.61.76-1.61s-1.76-.71-3.58-1.46a16.58,16.58,0,0,0-5-.86,46.37,46.37,0,0,0-4.48,2.22,18.48,18.48,0,0,0-.86,2.27s-2.57-1.26-2.67-1.41a3.44,3.44,0,0,0-.5-1,2.21,2.21,0,0,1-.6-1.31c-.05-.5-.35-1-1.11-1.72s.4-1.66.4-1.66-.86-.35-1.36-.5-1.16-1.51-1.16-1.51a1.77,1.77,0,0,1-.81.25c-.4,0-1.11-1.16-1.46-1.31s-.35.05-1.16.5-1.06-.81-1.06-.81-.05.25-.35,1.16a47.94,47.94,0,0,0-.86,6.45,13.6,13.6,0,0,1-.71,3.27,3.68,3.68,0,0,1-.65.05c-.4,0-1.61.15-1.61.15s-.5-1.21-.86-1.86-.91-.6-1.86-1.86a50,50,0,0,1-2.92-5.39l-1.51.4-.76-1-.86.45c-.86.45-2.47-.5-2.47-.5l-.2.86-3.07-1.11.45-1.06-.65-.3.65-.83-.65-.53.6-1.26-1.31-1.81v-1.41a69.35,69.35,0,0,1-5.94-4l-1.51.6s-2.27-1.61-2.72-2a16.16,16.16,0,0,0-1.81-1.21c-.55-.35-.55.2-1.06.35a11,11,0,0,1-2.92-.76l.05-2,2.42-1.26c.4-.2,1.11-.6,1.11-.6a3.48,3.48,0,0,1,1.06.45c.71.4,1.16.6,1.91,1a2.22,2.22,0,0,0,1.76,0s.45-.44.76-.79,1.26.2,1.26.2l.3-.25a1.28,1.28,0,0,0-.1-.81c-.2-.4,0-.81.05-1.26s1.81-1.16,2-1.21-.5-.86-.5-.86,1.06-.76,2.12-1.36.05-1-.2-1-1.31.15-1.86.15a2.54,2.54,0,0,1-1.81-.81c-.6-.6-1.26-1.11-1.41-1.26a15.8,15.8,0,0,0-2-.7c-.86-.3-.55-1.11-.76-1.21a11,11,0,0,0-2.67-.86c-1-.1-1.11-1.46-1.11-1.46l-2-1.06a6.06,6.06,0,0,0-1-.55c-.71-.35-.25-.5-.2-1.26s-2.77-1.41-2.92-1.41-1.91.3-1.91.3l-3.47-1.26.86-1.61-1.71-.4-.1-1.66-.81-1,.45-.86H104c-1,0-2.22-1-2.92-1.26a6,6,0,0,0-2-.25l-.25,1.16-4,.6-.15,3.22,1.41.5.05,1.46.55-.3a2.52,2.52,0,0,1-.15,2.11,1.68,1.68,0,0,0,.25,2H91.38L91,95.62l-1.41,2.27.4.5-.4,1.26.65.71a5.6,5.6,0,0,0-1.51,1.21,1.66,1.66,0,0,0-.4,2H87.6L87,104a11.77,11.77,0,0,1-.45,1.16c-.2.4-1.51,1-1.51,1a3.07,3.07,0,0,1,.7,0c.25.05.86.76,1.16,1.06a2.77,2.77,0,0,1,.6,1.71c.1.91-1.06,1.21-1.06,1.21H85c-.25,0-1.06-.05-1.06.3a4,4,0,0,0,.35,1.11l.45,1c.45,1-2,1.31-2,1.31h1.46s.65.65,1.16,1.06.05.86.05,2.06-.76,1.16-.76,1.16h1.56a9.26,9.26,0,0,1,1.31,1.56,16.19,16.19,0,0,0,2.92,2.47c.55.45.3.35.86,1.41a28.91,28.91,0,0,1,1.26,4.63,1.45,1.45,0,0,1,.55.75,3.07,3.07,0,0,1,0,1.41,12.69,12.69,0,0,1,1.41,2.12c-.5,1-.05,1.16-.2,2s-1.56,1.91-1.56,1.91.35,1.36.76,3.07c-.4,1.21.7,1.06.7,2s-1.51,1.36-1.51,1.36l-.91,1.31.71,2.37a4.77,4.77,0,0,1-.25,1.51c-.25.6,0,.86-.05,1.61s-.45,2.06-.5,3-1.31.4-1.31.4-1.76-.25-2.47-.45-3.22-.86-3.22-.86l-.6,1.36a3.45,3.45,0,0,0-.45,1.11c0,.35-.35,2.67-.35,2.67a10.52,10.52,0,0,1-1.16.1c-.45,0-2-.25-2.47-.25a13.28,13.28,0,0,1-1.91-.4s-.6-.2-.91,0a1.82,1.82,0,0,0-.6,1.36,5.89,5.89,0,0,0,.5,2.22,9.37,9.37,0,0,1,.23,2.32s-1.75.17-2.42.17a16.84,16.84,0,0,1-2.82-.71,7.19,7.19,0,0,1-2.08.75c-.84.08-.77,1-2,1-2.65,0-2.08-.94-2.08-.94a1.08,1.08,0,0,0-.87,0A12.53,12.53,0,0,0,62.27,165c-.74.91-1.85,2.11-2.25,2.18s-2.75-1.71-2.75-1.71L53.38,165l-.64,2.22H51.9l-1.31,1.24L50,169.73a13.44,13.44,0,0,1-1.54,2.42c-.37.2-.84,0-1.75-.13a3.6,3.6,0,0,1-1.78-1H43.81l.13,2.82.84.2s.94-.81,1.41-.2-.13,1.07-.47,2.25-1.44,1.17-2.58,1.38c.17,2.28-.87,2.45-2.35,2.38A6,6,0,0,1,39.44,181a5.25,5.25,0,0,1-.07,2.15c-.3.6-1.24.13-1.24.13a7,7,0,0,0-1.58.71c-1.11.6-.1,2.32-.87,2.62s-4.23,2.92-4.73,3.12a13.92,13.92,0,0,0-2.11,2l1,.64c1,.64.87,1,.3,1.71.37.2.47,1.41.57,1.71s.27,0,.84.24.27.13.64.64-.17.87-.27,1a2.35,2.35,0,0,1-1,.1c-.47,0-.64.44-.91,1.14s.44,1.31.44,1.51-.74.57-.87.87-1.24,2.25-1.31,2.35,0,.37.13.71a.82.82,0,0,1-.37,1,.68.68,0,0,1-.87-.07c-.07-.13-1.31-.27-1.44-.47s-1.17-.2-1.38-.2-.44.44-.54.77-.4,1-.4,1-.74-.34-.87-.44-.67-.3-1-.57-.3-1.54-.3-1.54H19.91v-.44h-.57v.6L17.89,204a5.71,5.71,0,0,1,.13,1.61c0,3.12-.77,3.69-.77,3.69a4.31,4.31,0,0,1,.17.6c.07.34-.3.87-.7,1.14s-1.31-.91-1.31-.91l-.87.4a3.67,3.67,0,0,0-1,.37c-.47.27-.84-.6-.84-.6l-.94.23c-.4.1-.37-.64-.37-.64l-.2-.3a3.09,3.09,0,0,0,.1-.67l.1-1.41-1.75-.77a7.87,7.87,0,0,0-.77,1.95,10.23,10.23,0,0,0-.27,2.45,4.63,4.63,0,0,0,1.17.3,3.06,3.06,0,0,1,2,.57c.44.5-.47,1-.47,1s.37.84.7,1-.3,2.18-.3,2.18l.77.6v2.32l1,.67.13.91L14,222.4a13.49,13.49,0,0,0-1.14,2.72c0,.47.74.37.74.37a3.52,3.52,0,0,0-.2,1.58,12.15,12.15,0,0,1,.6,2.75A6.11,6.11,0,0,0,15,232.71l1.44,1.75,1.58.37h1.88s2.15,3.63,2.52,4.26,1.95.81,2.35,1,.74,3.09.74,3.09l3.12,1.61s.3,4.06.47,6.11a10.7,10.7,0,0,1-.13,3.22,6.47,6.47,0,0,1,.5,2.92,3.07,3.07,0,0,1,1.38,2,3.07,3.07,0,0,1,2.62.3,4.19,4.19,0,0,0,2.45.81s.54,2.38.67,2.75a7.67,7.67,0,0,1,.77,1.95,5.51,5.51,0,0,0,1.44,2.25s3.59.1,5.47-.1a4.64,4.64,0,0,1,2.75.34,17.3,17.3,0,0,1-.54,3.12,6.64,6.64,0,0,0,.3,5,22.62,22.62,0,0,1,2.85.74,12.62,12.62,0,0,1,1.85.44,2.13,2.13,0,0,1,.37.27c.13.13,1.38,1.17,1.38,1.17a8.21,8.21,0,0,1-.54,1,3.72,3.72,0,0,0-.34,1.34s.13.3.5,1a7.54,7.54,0,0,1,.34,2.48s-.6,1.51-.2,2.18a23.71,23.71,0,0,0,1.51,2.45c.44.5,3.39.67,3.39.67v-1l2.38,0a5.8,5.8,0,0,0,1.61-.6l.3,1.18,1.24.91a9.72,9.72,0,0,1-.74,2c-.4.67-.5,4.26-.5,4.26L65,297.33l.74-1,5.74-.34-2.72-5.34s.13-.74.34-1.48,2.28-2.75,2.52-3,0-.81,0-.81l1.54-1.17,1.88.47,1-1.51,1.07,1,.64-1.11s1.54-1,1.78-.74,4.46,3.76,4.46,3.76a29.81,29.81,0,0,1,2.85-1.75c.4-.1,1.41-.17,1.78-.57A5,5,0,0,1,90,283l-.34-6.55a3.74,3.74,0,0,1,2.28.37c1,.6,4.93,3.89,4.93,3.89s5.54-3.49,6.61-4.3a63.93,63.93,0,0,0,6.78-1.51l3.45.23a8.88,8.88,0,0,1,.38-1,4.92,4.92,0,0,1,1.71-2,11.21,11.21,0,0,1,1.64.6,10.85,10.85,0,0,0,3,0,14,14,0,0,0,3.32-1.68,64.62,64.62,0,0,0,3.52-6.55c.91-2.25.24-5-.07-6.45a42.15,42.15,0,0,1-.4-5.67c0-.27,5.34-7.32,5.34-7.32l3.79.77,3.66-3.26-2.22-4.87,7.12-1.17s.57-.3.94-.54a8.19,8.19,0,0,0,1.17-1.68s1.11.23,1.68.44.47.17.87.34.94,2.35.94,2.35l.81-1.68a4.76,4.76,0,0,1,.37-1.14c.34-.81,1.71-3.19,1.71-3.19a7,7,0,0,1-1.48-1.11c-.37-.47-1.88-3.86-2-4.1s-1.68.37-1.68.37l.2-1.21a3.15,3.15,0,0,0,.64-.6c.13-.23,1.54-2.28,1.88-3s-.13-2.12.94-2.35a2.3,2.3,0,0,0,1.48-1.44s.07-.17.67-.07,4,.37,4,.37l.7-1.28,2.22.17,2.75,2s3.19.77,3.32.77,3.39-1.71,3.39-1.71l-.2-1.48,2.55-1.58s-.5-.91-.84-1.71a6.37,6.37,0,0,0-1.71-1.81v-1.68l.47-.77c.47-.77,3.49-5.34,3.49-5.34H176v3.39l1.71.34s1,0,1.24.5-.37,2.08-.37,2.08l5.34,1.38a35.33,35.33,0,0,1,4.13.64c.91.3,1.58.64,1.44,1.17s-.34,1.41-.34,1.41l1,.23.23-.67c.24-.67,1.18-.13,1.18-.13s8.66,3.46,10.14,3.93,1.68,2.45,1.68,2.45a4.92,4.92,0,0,1,.71-1.11,3.12,3.12,0,0,1,.9-.07l2.52-6.81s1,.27,1.31.4a25.42,25.42,0,0,0,2.79.47c.13,0,2.52.57,2.52.57a26.49,26.49,0,0,1,.64,3,7,7,0,0,1-.54,2.15,4.93,4.93,0,0,1-1.65,2.15,43.89,43.89,0,0,0-3.93,3.83s3.16.47,3.26.44a7.1,7.1,0,0,1,1.71-.34,5.84,5.84,0,0,1,1.68.44,10.38,10.38,0,0,0,.94-1.44c.57-1,.91,1.28.91,1.28l.4.24c.4.23.47.4.84.64a8.94,8.94,0,0,1,1.28.74c.74.54.27.71.6.87a6.75,6.75,0,0,1,1,.81l3-6.65a4,4,0,0,1,.5-.34c.2-.1.3-.2.81-.44a1.64,1.64,0,0,1,1.17.07s.37.1,1.24-.34a4.66,4.66,0,0,1,1.41-.47,8.6,8.6,0,0,0,2-1.07,3.58,3.58,0,0,1,.57.07,1,1,0,0,1,.74.77,9.47,9.47,0,0,0,.44,1.11,14.21,14.21,0,0,1,.54,1.85c.23,1,1.95,1.51,1.95,1.51l1.38-1.54s1.28-1.07,1.85-1.51,2-1.78,2-1.78l-.3-1,1.78-1,2.55,1L246,217.7l.57-.27a5,5,0,0,0,1.41-1.75c.07-.44.23-1.07.23-1.07a3.32,3.32,0,0,1,1.11-.6,4.28,4.28,0,0,0,1.34-.84s2.22,1.95,2.75,1.95,4.4-.6,4.4-.6l3.29-3,1.68.67,2.55-.71,1.07-3.16-1.51-2.42a12.06,12.06,0,0,0,.6-1.81,15.67,15.67,0,0,0-.37-2.89l0-.94a.89.89,0,0,1-.77-.57c-.17-.54,0-.71,0-.71l.37-.23c2.22-.6,6.55.23,6.55.23l4,3.09,2.35-.54s4.06.34,4.2.44,5.91,0,5.91,0l1-.54,5.1.18,2.57-.6,2.32.91a42.79,42.79,0,0,0,4.23,1.11c1,.1.81,1.16.81,1.16l2.67.76,3.17-3,1.21-.55,1.36-.4a16.46,16.46,0,0,1,3.42-.25V199.1s.25-.4.55-1,2-4.48,2-4.48l.86-1.06-.15-1.16s.7-2.17.86-2.82-1-6.29-1.26-7.65a20,20,0,0,1-.3-2.42l2.82,3.12,2.92.81,4.08-1.16,2.06,1.66a6.55,6.55,0,0,1,1.81,3c.4,1.71,3.78,3,3.78,3l.71,1.36,4.33-.5s.05-1.66,0-2.22-.86-1.21-.7-1.41S340.28,184.7,340.59,184.15Z"/><path class="cls-2" d="M65.41,299.11l-4.61-2.17,0-.93c.07-2.63.31-4.29.7-5a4.38,4.38,0,0,0,.31-.73l-.84-.61,0-.09a2.64,2.64,0,0,1-.64.09h-1v1.11l-1.5-.08c-3.55-.2-4.13-.87-4.38-1.16a13.87,13.87,0,0,1-1.3-2l-.36-.62a4,4,0,0,1,0-3.17,6.06,6.06,0,0,0-.18-1.59c-.39-.75-.53-1.07-.53-1.07L51,280.8l0-.36a4.92,4.92,0,0,1,.5-1.91l-.56-.49a10.28,10.28,0,0,0-1.33-.32,5.19,5.19,0,0,1-1.33-.35,6,6,0,0,0-1.48-.39l-.95,0-.33-.89a8,8,0,0,1-.36-5.85c.17-.75.29-1.33.36-1.76a6,6,0,0,0-1,0,56.55,56.55,0,0,1-5.66.11l-.54,0-.39-.37a6.64,6.64,0,0,1-1.86-3,4.07,4.07,0,0,0-.46-1.2,4.29,4.29,0,0,1-.26-.55c-.1-.27-.31-1.13-.5-1.94a5.14,5.14,0,0,1-2.18-1,1.74,1.74,0,0,0-1.27-.06l-1.56.53-.29-1.63a1.71,1.71,0,0,0-.6-1l-.91-.44.12-1a5,5,0,0,0-.39-2.18l-.2-.45.12-.48h0a9.82,9.82,0,0,0,.09-2.75c-.12-1.49-.32-4-.41-5.33l-3.09-1.59-.09-.75a19.45,19.45,0,0,0-.36-2.11h0a3.87,3.87,0,0,1-2.52-1.47l-2.1-3.56-1.4,0-2-.48-1.75-2.11A7.44,7.44,0,0,1,12.56,230a11.57,11.57,0,0,0-.49-2.36l-.05-.16a2.86,2.86,0,0,1-.1-1.17,1.76,1.76,0,0,1-.51-1.13c0-.29-.06-.81,1.07-3l-.29-1.58-1.12-.74v-2.38l-1-.78.29-.93c.11-.37.22-.79.28-1.1a4.53,4.53,0,0,1-.63-1.06l-.32-.74a5.74,5.74,0,0,1-1.58-.4l-.88-.34,0-.94a11.76,11.76,0,0,1,.31-2.84A9.21,9.21,0,0,1,8.46,206L9.1,205l3.79,1.68-.16,2.21.82-.2.27.63.25-.07,1.77-.82.1.13.31-.23a6.73,6.73,0,0,0,.36-2.68,6.13,6.13,0,0,0-.08-1.21l-.72-2,2.11.18V202h3.4v.44h1.35L22.6,204a4.12,4.12,0,0,0,0,.49l0,0a1.91,1.91,0,0,1,1.68-1.23,3.71,3.71,0,0,1,2.18.44l.3.07a1.59,1.59,0,0,1,.26-.89c.12-.19,1.07-1.88,1.2-2.15a2,2,0,0,1,.42-.59,2.37,2.37,0,0,1,0-1.71,3.79,3.79,0,0,1,1-1.61,1.77,1.77,0,0,1-.28-.53,5.32,5.32,0,0,1-.14-.6c0-.12-.06-.34-.1-.5l-1.2-.65.91-1.07-2.18-1.38,1.11-1.25c1.83-2.06,2.42-2.3,2.65-2.39s1-.69,1.63-1.13c1.2-.84,2-1.38,2.52-1.7a2.8,2.8,0,0,1,1.3-2.84,8,8,0,0,1,2-.85l.27-.06c0-.21,0-.44-.06-.63l-.13-.88.74-.5a5.32,5.32,0,0,0,.93-.78l.44-.72.83.05a3.65,3.65,0,0,0,.84,0,2.64,2.64,0,0,0,0-.84l-.09-1.28,1.26-.22.48-.08a3.6,3.6,0,0,0,1-.23c0-.12.07-.24.11-.35L42.58,175l-.26-5.37h3.23L46,170a2.23,2.23,0,0,0,.92.58c.36,0,.65.1.91.15.26-.41.65-1.08.95-1.64l.66-1.52,1.93-1.83h.34l.68-2.35,5.47.66.31.23c.61.46,1.28.93,1.74,1.22a17.41,17.41,0,0,0,1.31-1.45c2.09-2.56,2.7-2.81,3-2.94a2.52,2.52,0,0,1,2.08.07l1.3.71,0,.06h.24l.11-.13a2.52,2.52,0,0,1,1.66-.89,5.7,5.7,0,0,0,1.54-.58l.54-.29.58.19a16.28,16.28,0,0,0,2.39.63c.2,0,.56,0,.93,0a2.72,2.72,0,0,0-.09-.51,6.73,6.73,0,0,1-.59-2.83,3.18,3.18,0,0,1,1.23-2.43,2.53,2.53,0,0,1,2.14-.17,13,13,0,0,0,1.49.33,9.59,9.59,0,0,1,1.39.14l1,.11c.09-.65.17-1.22.17-1.37a3.7,3.7,0,0,1,.61-1.73L83.92,150l1.16.3s2.54.66,3.26.87c.41.12,1.42.29,2.09.39.05-.3.12-.61.18-.91a10.32,10.32,0,0,0,.2-1.13,2.14,2.14,0,0,0,0-.45,2.9,2.9,0,0,1,.18-1.62,3,3,0,0,0,.14-.78l-.83-2.8,1.59-2.3.5-.13.21-.08a2.25,2.25,0,0,1-.5-1.94c-.36-1.53-.67-2.7-.67-2.71l-.24-.92.76-.57a4.05,4.05,0,0,0,1-1.08,1.13,1.13,0,0,0,0-.29,3,3,0,0,1,0-1.3,10,10,0,0,0-.89-1.29l-.49-.55.16-.72a2.08,2.08,0,0,0,0-.63l0,0-.46-.26-.13-.64a26.14,26.14,0,0,0-1.12-4.25,9.57,9.57,0,0,1-.42-.9h0l-.07-.06-.56-.42a10.6,10.6,0,0,1-2.66-2.39,6.71,6.71,0,0,0-.7-.9H84.58l.09-2.83a.71.71,0,0,0-.67.42.7.7,0,0,0,0-.16,6.63,6.63,0,0,1,.13-1.26l-.49-.45h-.89l-.2-2.82.5-.11-.07-.15a4.56,4.56,0,0,1-.49-1.71,1.61,1.61,0,0,1,.48-1.16,2.61,2.61,0,0,1,1.93-.56h1.17a1.33,1.33,0,0,0-.15-.51l-.27-.28-.36-.37h-.07l-8.51.9,7.76-3.59a6.55,6.55,0,0,0,.91-.5c.1-.24.23-.6.31-.82l.14-.43.95-.69a3.22,3.22,0,0,1,1-1.85l.41-.39L88,100l.42-1.33L87.88,98l1.79-2.87.5-3.18h4.78v-.09l-.13.07-.1-2.79-1.49-.53.25-5.43,4.16-.63.28-1.28,1.1,0a7.07,7.07,0,0,1,2.63.37,9.25,9.25,0,0,1,.91.48,4.65,4.65,0,0,0,1.45.66h4.57l-1.12,2.11.51.63.06,1.06,2.48.58-1,1.79,1.59.58a13.09,13.09,0,0,1,1.78-.26c.28,0,2.83.49,3.81,1.54a1.84,1.84,0,0,1,.52,1.38c0,.07,0,.13,0,.2.25.14.41.25.52.32L120.3,94l.08.74a1.22,1.22,0,0,0,.06.24,13.06,13.06,0,0,1,2.94,1,1.59,1.59,0,0,1,.85,1.23l.66.21a3.69,3.69,0,0,1,1.63.74l.21.18c.3.25.75.64,1.2,1.08a1.16,1.16,0,0,0,.81.39c.29,0,.74-.05,1.1-.09s.63-.06.76-.06a2.13,2.13,0,0,1,2,1.43,1.88,1.88,0,0,1-1.13,2.17c-.32.18-.64.38-.92.56a1.46,1.46,0,0,1,0,.79l-.21.71-.72.26a8.41,8.41,0,0,0-1.09.52v0l0,.12a2.73,2.73,0,0,1,.13,1.62l-.11.45-1.42,1.18-.82-.47-.36.36-.18.18-.24.1a3.61,3.61,0,0,1-3-.07c-.38-.22-.68-.38-1-.53s-.58-.3-.93-.5l-.24-.13-.59.32-1.65.86v.1c.43.14.82.25,1.08.31a1.8,1.8,0,0,1,2.21-.1l.42.26a11.62,11.62,0,0,1,1.57,1.08c.2.18,1.07.82,2,1.47l1.52-.61.63.47a66.59,66.59,0,0,0,5.6,3.84l.87.37,0,1.91,1.53,2.12-.48,1,.87.7-.41.52.27.13,0-.18,1.66,1a3.36,3.36,0,0,0,1.16.43l1.85-1,.91,1.21,1.72-.46.51,1.07a46.65,46.65,0,0,0,2.77,5.14,4.14,4.14,0,0,0,1,.93,3.24,3.24,0,0,1,1,1.12c.16.29.33.67.49,1l.32,0a10.68,10.68,0,0,0,.36-2,47.77,47.77,0,0,1,.92-6.8c.23-.69.3-1,.31-1l1.48-6.38,1.15,5.71a1.74,1.74,0,0,1,1.52,0,3.24,3.24,0,0,1,1.11.95l.07.08,1.12-.64.69,1.36a5.31,5.31,0,0,0,.51.84c.54.18,1.19.45,1.27.48l2.26.93-1.83,1.42a3.74,3.74,0,0,1,1.15,2.19c0,.16,0,.21.3.56a3.81,3.81,0,0,1,.54.89l.71.37c.42-1.14.59-1.26.88-1.45,0,0,4.31-2.46,5.27-2.46a18.15,18.15,0,0,1,5.58,1c1.8.75,3.55,1.45,3.56,1.45l2,.82-.61.59a9.48,9.48,0,0,1,1.31.45l.73-.15.52.41a2.49,2.49,0,0,0,.4.26,5.81,5.81,0,0,1,1.45.8l.24.17.15.25c1.31,2.15,1.31,2.3,1.31,2.7,0,.16.16,1.05.21,1.4l.34-.12a4.75,4.75,0,0,1,1.21-.31,2.71,2.71,0,0,1,1.14-.47,2.19,2.19,0,0,1,.32-1.41,1.15,1.15,0,0,0,0-.15,2.33,2.33,0,0,1,1.24-1.65,12,12,0,0,0,1.19-.8l.56-.39c.35-.23.82-.55,4.78-.12l.13-.21c0-.28.08-1.07.11-1.51s0-.62,0-.82a13.64,13.64,0,0,0-.58-2.15l-.26-.76,2.14-2.52a2.48,2.48,0,0,1-1.17-1,1.66,1.66,0,0,1-.12-1.31l.31-.94.75-.71a16.67,16.67,0,0,1,1.87-4.77l.28-1.42.1-.18c.5-.95,1.22-2.31,1.72-3.26l-.29-.14-.59-.24-.26-.71-.68-.16c-.22-.06-.66-.19-2-1.47a1.68,1.68,0,0,1-.59-.7,2.75,2.75,0,0,1,.41-2.47,10.55,10.55,0,0,1,.59-.91l0,0s0-.1,0-.16a1.21,1.21,0,0,0-.1-.56l-.58-.57.37-.58c.25-1,.57-2.28,1.83-2.28a9.37,9.37,0,0,0,1.94-.5,9.11,9.11,0,0,0,1.2-.72l.26-.19.32-.06A8,8,0,0,0,206.79,98c.51-1.37,1.22-2.88,1.56-3.58l-.07-.54-1.82-3.53,2.58-4-.33-.92.16-.47A8.44,8.44,0,0,1,210,82.28a9.41,9.41,0,0,0,.83-1.43c.2-.49.49-1.28.49-1.28l.28-.75.79-.14c.82-.15,2.78-.34,3.49,1.06a2.35,2.35,0,0,1,.24.82,4.06,4.06,0,0,0,1.35.24l.4,0,.33,0a7.44,7.44,0,0,1,2.28.39c.17.07.56.21.95.34l.79-.5,6.62,2.07a5.08,5.08,0,0,1,.48-2.29l.8-1.52V75.77l1.15-.22h0a.83.83,0,0,0,.48-.4,5,5,0,0,0,.39-1.11l.09-.6.51-.38,4.12-2.83.41,0a13.85,13.85,0,0,0,2.57-.32,8.49,8.49,0,0,0,1.39-.66,3.54,3.54,0,0,1,1.45-.56,6.84,6.84,0,0,0,.66-.19l.75-.24.6.51c2.18,1.84,3.16,5.33,3.94,8.14.24.84.46,1.63.68,2.25A3.84,3.84,0,0,0,251,81.48a5.12,5.12,0,0,0,2.36.11l.56,0,.23.05.46.08a2.63,2.63,0,0,1,1.6.66c.22.22.88,1,.88,1l.54.62-.41,1.16a7.79,7.79,0,0,1,2,1.16,15.82,15.82,0,0,1,1,1.32l.45.61-.26.72c-.09.25-.19.54-.24.73a2.36,2.36,0,0,1-.5,2.14,4.53,4.53,0,0,0-.54,1,5.49,5.49,0,0,1-.28.6,3,3,0,0,1-1.62,1.17l-.19.08-.46.38c-.17.55-.48,1.55-.67,2.12a8.22,8.22,0,0,0,1,.83,9,9,0,0,1,1.14.3l.15,0a3,3,0,0,1,1.81,1.63,1.68,1.68,0,0,1-.15,1.5c0,.09-.06.2-.09.32a4.12,4.12,0,0,1-.82,1.75,1.48,1.48,0,0,0-.29.38,2.17,2.17,0,0,0,.09.79l.06.14a2.1,2.1,0,0,1,1.37.38,13.79,13.79,0,0,1,2.89,2.72l.23.36a2.66,2.66,0,0,1,.57,2.16c-.28,1.53-2.31,2.22-3.66,2.22a4.17,4.17,0,0,0-1.39.42.84.84,0,0,0,.51.3l.46.09a7.41,7.41,0,0,1,2.79.89,3.3,3.3,0,0,1,.84.93c.19.29.24.34.34.38.5.2,1.45.48,2.15.68l1,.29a3.63,3.63,0,0,1,.58.25l.28-.25a7.15,7.15,0,0,1,1.58-.91l.13-1.63,2.63-.13a6.3,6.3,0,0,1,1-1,2,2,0,0,1,2.61-.28l.16.09c.82.43,2.19,1.15,2.28,2.47v0c.39,0,.95,0,1.74,0h.47a2,2,0,0,1,1.35.63.88.88,0,0,0,.71.33c1.29,0,3-.1,3.3-.13.07,0,.45-.17.76-.3l.67-.29.63.38a16.32,16.32,0,0,1,2.24,1.45,2.78,2.78,0,0,1,.86,1.91c0,.12,0,.27,0,.45s0,.09,0,.15a2.43,2.43,0,0,0,.55-.24,3.53,3.53,0,0,1,2.1-.69l.5,0c.45,0,.46,0,.53,0l.12-.09a5.49,5.49,0,0,1,2.28-1.25,1,1,0,0,0,.36-.15,2.76,2.76,0,0,1,1.25-.42c.77-.08,3.11,0,3.75,0a5.69,5.69,0,0,1,2,.65l.51.27.17.55a1.62,1.62,0,0,0,.62.79,4,4,0,0,1,.84.59l1.43-1.22.91.71c3.22,2.51,3.37,2.81,3.52,3.1a4.29,4.29,0,0,1,.35,1.42l.08.92-.81.44c-.18.1-1.1.67-.76,1.36a6.09,6.09,0,0,1,.71,3.84l0,.14a5.47,5.47,0,0,1-.52,1.91l-.44,1-.54-.08c0,.27,0,.56,0,.89a11,11,0,0,1-.18,2,2,2,0,0,0,0,.54l.07.73,0,.22a4.45,4.45,0,0,1-.73,2,5.88,5.88,0,0,1-.79.74,12.36,12.36,0,0,0-1,.9c-.26.29-.67.86-1,1.32s-.57.78-.73,1l0,0,2.85,2-.06.54.25.08c0-.1.1-.2.15-.3.34-.58.92-1.7.92-1.7l.39-.75h.84a25.61,25.61,0,0,0,2.75-.17,4.78,4.78,0,0,1,1.17-.33l.47-.06,3.36,1.95,0,.85c-.07,2.37-.15,5-.16,6,.56,0,1.29.33,1.54,1.56l.07.38c0,.18.08.45.12.59a2.5,2.5,0,0,1,.75.84,2.1,2.1,0,0,1,1.06,2.67l-.08.23c0,.11-.1.26-.12.35a3.18,3.18,0,0,1-.41,2.33l-.08.18c-.1.22-.23.48-.37.74a4.8,4.8,0,0,1,1.21,1.26,14,14,0,0,0,1.06,1.38c3.82-.48,4.29.34,4.59.85a3.66,3.66,0,0,1,.41,2.2c0,.15,0,.31,0,.48,0,.45,0,.83,0,1.15s0,.48,0,.67A1.85,1.85,0,0,1,328,171c-.06.14-.1.28-.14.43s-.16.52-.29.87a1.23,1.23,0,0,0-.07.31,4.11,4.11,0,0,1,1,1.33c.58-.62,1-1.11,1.14-1.26a2.91,2.91,0,0,1,1.46-1l.1,0a4.52,4.52,0,0,1,.55-.95l.4-.49.63,0a28.61,28.61,0,0,1,4.72,0,19.68,19.68,0,0,1,4.23,1.57c1.18.92.65,2.66.46,3.18l-.37,1-1.71-.11-.15.29c0,.36,0,1,0,1.36a2.18,2.18,0,0,0,.3.55,7.6,7.6,0,0,1,1.6.73l.44.28.15.5a4.62,4.62,0,0,1,.24,2.63c0,.12-.09.33-.16.57a10.07,10.07,0,0,1-.7,2.12h0a6.76,6.76,0,0,0-.29.94l-.07.24a2.9,2.9,0,0,1,.58,1.39c.05.61,0,2.09,0,2.39l0,1.22-6.52.76-.92-1.76c-1.19-.52-3.68-1.81-4.14-3.76a5.22,5.22,0,0,0-1.38-2.24l-1.44-1.15-3.75,1.07-3.62-1c.84,4.38.94,5.42.81,6s-.58,2-.79,2.63l.19,1.44-1.12,1.38c-.36.82-1.68,3.81-2,4.37-.15.31-.3.57-.41.76v2.77l-1.45,0a14,14,0,0,0-3,.19l-1.27.38-.9.41-3.59,3.36-4.63-1.31.12-.86c-1.26-.25-3.5-.93-4-1.08l-.1,0-1.91-.75-2.32.55-4.9-.18-.94.52h-.36c-4.59.05-5.84,0-6.37-.1s-2.16-.23-3.65-.36l-2.79.64-4.29-3.29a24.77,24.77,0,0,0-4.15-.37l0,1.08a12.27,12.27,0,0,1,.36,3.29,9,9,0,0,1-.42,1.43l1.49,2.38-1.53,4.5-3.73,1-1.3-.52-2.95,2.68-.42.07c-1.48.23-4.05.62-4.62.62-.35,0-.91,0-2.82-1.56a4.45,4.45,0,0,1-.83.38,2.28,2.28,0,0,0-.31.13c0,.14-.06.29-.08.42a5.49,5.49,0,0,1-2.25,2.84l-.25.11-1.6,1.84-2.86-1.09-.2.11.22.74-.63.6c-.15.14-1.48,1.41-2.1,1.88s-1.44,1.17-1.72,1.4l-1.91,2.14-.86-.25c-.42-.12-2.52-.82-2.93-2.55a13,13,0,0,0-.49-1.68c0-.11-.09-.22-.14-.33s-.13-.29-.19-.45a7.8,7.8,0,0,1-1.64.78,5.68,5.68,0,0,1-.77.19,3,3,0,0,0-.42.19,3.19,3.19,0,0,1-2.25.43l-.21-.07-.1,0a4,4,0,0,0-.36.2l-.3.17h0l-3.68,8.11-1.44-1.37a6.42,6.42,0,0,0-.69-.58,1.61,1.61,0,0,1-.84-1,3.21,3.21,0,0,0-.61-.37,4.16,4.16,0,0,1-.53-.28,4.09,4.09,0,0,1-.56-.44,1.22,1.22,0,0,0-.23-.17l-.52-.3-.61.72-1-.4a4.64,4.64,0,0,0-1.13-.33,5.71,5.71,0,0,0-1.26.26c-.39.13-.43.14-3.92-.38l-2.66-.4,1.83-2a36.35,36.35,0,0,1,4.24-4.08,3.55,3.55,0,0,0,1.08-1.5,5.84,5.84,0,0,0,.42-1.58c0-.22-.19-1-.39-1.84l-1.54-.35h0a22.94,22.94,0,0,1-3-.53l-2.42,6.53-1,0h-.06l-.21.4-2.18,4.36-.49-4.85c0-.32-.27-1.11-.7-1.24-1.34-.43-8.13-3.12-9.85-3.81l-.35,1-3.58-.87.32-1.37.19-.79-.36-.13a32.22,32.22,0,0,0-3.83-.57l-.21,0-6.86-1.77.55-1.48c.08-.22.16-.47.22-.69l-2.89-.57v-3.14h-.07c-1.1,1.66-2.73,4.14-3,4.66l-.26.43v.6a5.92,5.92,0,0,1,1.6,2c.3.72.77,1.56.77,1.57l.66,1.18-2.92,1.8.21,1.55-.88.46c-3.57,1.87-3.64,1.87-4,1.87a24.68,24.68,0,0,1-3.66-.81l-.27-.07L160,218.51l-.91-.07-.71,1.28-.91-.07c-.48,0-2.62-.21-3.65-.33a3.42,3.42,0,0,1-1.7,1.35c0,.08,0,.16,0,.23a3.91,3.91,0,0,1-.28,1.41,25.61,25.61,0,0,1-1.61,2.64,1.48,1.48,0,0,1,.51.54c0,.08.22.45.45.95.34.73,1.23,2.66,1.47,3a7,7,0,0,0,1,.73l1.23.71-.71,1.23c-.51.89-1.41,2.5-1.63,3a4.63,4.63,0,0,0-.28.8l0,.25-.1.17-2.51,5.24-.95-3.83a12.68,12.68,0,0,0-.48-1.53l-.43-.16-.52-.15a3.65,3.65,0,0,1-1.1,1.26c-.41.26-1,.59-1,.59l-.21.11-5.52.91,1.88,4.13-5,4.42-3.61-.74c-2,2.61-3.95,5.31-4.52,6.16a42.84,42.84,0,0,0,.38,5l.06.31c.35,1.67.93,4.45-.07,6.95a64.71,64.71,0,0,1-3.63,6.75l-.17.27-.27.17a13.07,13.07,0,0,1-3.91,1.9c-1.62.22-3.69.31-4.34-.55a1.23,1.23,0,0,0,.4.35c-.09,0-.34-.13-.62-.23a2.82,2.82,0,0,0-.68.95c-.16.4-.24.63-.29.76l0,1.28-4.68-.32c-1.4.37-4.83,1.26-6.41,1.46-1.59,1.11-6.16,4-6.37,4.12l-.88.55-.79-.67c-1.47-1.24-4.05-3.36-4.73-3.75l-.07,0,.3,5.94-1,.37a4.35,4.35,0,0,0-.9.46,3.76,3.76,0,0,1-2.2.92l-.19,0c-.37.18-1.54.93-2.48,1.56l-.88.59-.82-.68c-1.41-1.17-3-2.53-3.92-3.29l-.37.2-1.35,2.34-1.14-1.07-.6.93-2.21-.55-.34.26a1.74,1.74,0,0,1-.6,1.26,15.61,15.61,0,0,0-2.1,2.33c-.07.28-.14.58-.19.82l3.48,6.83-7.24.42Zm-1.72-3.94.81.38.44-.6,4.24-.25-2-3.83.09-.47s.15-.81.36-1.59a10.2,10.2,0,0,1,2.44-3.17l-.25-.65.84-.69,2.09-1.59,1.55.39L75.7,281l1.07,1,.16-.1c1.21-.76,2.58-1.5,3.54-.54.2.18,2,1.73,3.56,3A9.12,9.12,0,0,1,86.43,283l.48-.09a4.91,4.91,0,0,0,.69-.15,4.24,4.24,0,0,1,.9-.64l-.35-6.8,1.18-.25a5.17,5.17,0,0,1,3.23.5A52.14,52.14,0,0,1,97,279c1.86-1.18,4.93-3.15,5.65-3.68L103,275h.47a58.74,58.74,0,0,0,6.41-1.46l.23-.06,2.62.18,0-.07A6.29,6.29,0,0,1,115,270.9l.55-.36.63.19a13,13,0,0,1,1.77.63,14.92,14.92,0,0,0,2.29-.07,12.09,12.09,0,0,0,2.47-1.29,59.22,59.22,0,0,0,3.25-6.06c.68-1.7.21-4-.07-5.31l-.07-.32a39.84,39.84,0,0,1-.42-6.14c.06-.46.08-.64,5.61-8l.54-.71,4,.81,2.35-2.09-2.55-5.6,8.71-1.44.56-.32a10.64,10.64,0,0,0,.79-1.23l.51-.91,1,.22a18.87,18.87,0,0,1,1.86.49c.53.19.54.19.78.29l.17.07a1.63,1.63,0,0,1,.32.16c.23-.52.69-1.37,1.08-2.07a4.29,4.29,0,0,1-.71-.67,22.93,22.93,0,0,1-1.73-3.41l-.33.12-2.32.91.71-4.24.47-.34a3.16,3.16,0,0,0,.3-.25l.35-.53c.37-.55,1.23-1.85,1.42-2.29,0,0,0-.26,0-.41a2.61,2.61,0,0,1,1.9-2.73c.19,0,.38-.37.44-.53.17-.42.69-1.26,2.24-1,.31.05,1.72.18,2.93.28l.7-1.27,3.52.26,2.85,2.05,2.56.61,2-1-.19-1.4,2.22-1.37c-.1-.21-.2-.43-.29-.65a5.29,5.29,0,0,0-1.24-1.22l-.58-.42v-2.79l.68-1.11c.48-.79,3.4-5.2,3.52-5.38l.42-.63h4.43V206l.47.09a2.78,2.78,0,0,1,2.33,1.28,2.48,2.48,0,0,1,.13,1.71l3.83,1a31.57,31.57,0,0,1,4.33.69,3.4,3.4,0,0,1,2.33,1.74,2.51,2.51,0,0,1,1.31.33c2.45,1,8.81,3.5,10,3.86a3.45,3.45,0,0,1,1.74,1.28l.11,0,2.64-7.15,1.25.33c.31.08,1.05.29,1.45.45s2.1.36,2.38.38a20.54,20.54,0,0,1,2.75.61l.83.2.21.82a21.28,21.28,0,0,1,.68,3.38,8.31,8.31,0,0,1-.65,2.71,6.24,6.24,0,0,1-2.21,2.8,17.54,17.54,0,0,0-1.72,1.59l.16,0a7.49,7.49,0,0,1,1.87-.32,4.57,4.57,0,0,1,1.12.17l.27-.46a1.68,1.68,0,0,1,1.81-.95c.8.15,1.32.8,1.6,2a4,4,0,0,1,.53.41,1.46,1.46,0,0,0,.2.16l.2.1a6.21,6.21,0,0,1,1.15.69,3.69,3.69,0,0,1,.37.3l2.29-5,.28-.21a5.21,5.21,0,0,1,.74-.48l.09-.06a6.58,6.58,0,0,1,.75-.4,2.82,2.82,0,0,1,2-.08,2.58,2.58,0,0,0,.41-.17,3.85,3.85,0,0,1,1.18-.44,3.36,3.36,0,0,0,.45-.11,6.9,6.9,0,0,0,1.57-.87l.37-.27h.46a4.81,4.81,0,0,1,.82.09,2.42,2.42,0,0,1,1.88,1.89,2.63,2.63,0,0,0,.15.36c.08.18.16.36.22.53a15.7,15.7,0,0,1,.59,2l.19.13.84-.92s1.31-1.1,1.9-1.55c.25-.19.76-.65,1.24-1.09l-.37-1.27,3.35-1.84,2.24.85.68-.77.25-.12.49-.24a6,6,0,0,0,.75-.88c.09-.48.24-1.06.24-1.06l.11-.4.31-.28a4.68,4.68,0,0,1,1.62-.9,2.88,2.88,0,0,0,.82-.52l.94-.89,1,.85a18.86,18.86,0,0,0,2,1.58c.59-.06,2.13-.29,3.56-.5l3.63-3.3,2.06.82,1.37-.38.62-1.81L263.31,206l.28-.68a10.16,10.16,0,0,0,.51-1.5,17.5,17.5,0,0,0-.36-2.37l0-.3a2.16,2.16,0,0,1-.74-1.07,2,2,0,0,1,.35-2.13l.24-.19.55-.35.21-.06c2.46-.67,6.71.12,7.19.21l.33.06,3.76,2.89,1.92-.44.22,0a42.39,42.39,0,0,1,4.38.46c.57,0,3,0,5.23,0l1-.55,5.3.19,2.81-.66,2.68,1a38.64,38.64,0,0,0,3.91,1,2.23,2.23,0,0,1,1.91,1.45l1,.29,2.76-2.58,1.62-.72,1.34-.4a10.86,10.86,0,0,1,2.42-.3v-.71l.21-.35s.23-.37.49-.89,1.3-2.87,2-4.42l.2-.32.47-.58-.11-.87.1-.3c.25-.76.67-2.09.8-2.61,0-.84-.75-4.62-1-6.06-.09-.48-.17-.86-.21-1.11a21.49,21.49,0,0,1-.33-2.61l-.19-4,5.2,5.76,2.14.59,4.4-1.25,2.64,2.12a7.89,7.89,0,0,1,2.3,3.75c.12.5,1.52,1.45,2.89,2l.51.19.51,1,2.13-.25c0-.29,0-.54,0-.71l-.19-.27a1.87,1.87,0,0,1-.35-2.06c0-.1.07-.24.11-.4a7.36,7.36,0,0,1,.55-1.56,11.62,11.62,0,0,0,.44-1.47c.06-.25.12-.47.17-.63a3.7,3.7,0,0,0-.08-.48,5.33,5.33,0,0,0-.57-.22,3.83,3.83,0,0,1-2.15-2.63l-.06-.21v-.22s0-1.37,0-1.71,0-.78,1-2.35l.12-.18c-.57-.19-1.13-.35-1.43-.42s-1.75,0-3.15,0v0a2.54,2.54,0,0,1-1.62,1.35l-.22.08c-.56.7-2.63,2.87-3.28,3.54l-.28.29-.39.1a11,11,0,0,1-2.06.34h-.82l-.48-.75c-.51-.9,0-1.8.91-3.39l-.36-.37-.33-.34-.06-.47a4.58,4.58,0,0,1,.23-2.1c.1-.27.17-.48.23-.68a7.18,7.18,0,0,1,.3-.85,2.35,2.35,0,0,1,.42-.64V169c0-.35,0-.77,0-1.27,0-.22,0-.43,0-.62s0-.15,0-.21a16.38,16.38,0,0,0-2.52.22l-.76.12-.51-.58a21.53,21.53,0,0,1-1.87-2.38,4.78,4.78,0,0,0-1.32-1l-1.28-.68.71-1.26c.17-.31.68-1.21.9-1.71l.09-.2c.07-.15.17-.36.21-.47a2.79,2.79,0,0,1,.11-1.65,2.22,2.22,0,0,1-.64-.8h0a3.08,3.08,0,0,1-1.18-2.18l-.27-.15a3,3,0,0,1-1.33-1.47c-.11-.31-.14-.39,0-6.3l-1-.57-.07,0a8,8,0,0,1-2.93.35c-.2.36-.43.79-.6,1.08a1.48,1.48,0,0,0-.11.62l.08,2-5.91-1.85.14-1.17-2.23-1.54-.12-.15a3.88,3.88,0,0,1-.67-1.31,1.81,1.81,0,0,1,1-2.22l.13-.07c.08-.1.29-.39.52-.72a18.84,18.84,0,0,1,1.22-1.58,14.1,14.1,0,0,1,1.24-1.14l.35-.3c.05-.16.13-.42.19-.66l0-.27a4.71,4.71,0,0,1,.08-1.41h0a8.74,8.74,0,0,0,.12-1.4,9.38,9.38,0,0,0-.07-1,4,4,0,0,1,0-1.44,1.8,1.8,0,0,1,1.52-1.31h0a3.49,3.49,0,0,1,0-.45,3.34,3.34,0,0,0-.46-2.21,3.6,3.6,0,0,1,.88-4.28c-.38-.32-.94-.78-1.53-1.25l-2.43,2.07-.66-2h0a1.36,1.36,0,0,0-.57-.6,4.22,4.22,0,0,1-1.73-1.8,2.08,2.08,0,0,0-.47-.14c-.6,0-2.76-.06-3.3,0a4.42,4.42,0,0,1-1.21.5,2.81,2.81,0,0,0-1.2.71l-.12.1a3.28,3.28,0,0,1-2.48.66h-.32a.72.72,0,0,0-.49.19,5.62,5.62,0,0,1-2.71.86,2,2,0,0,1-1.48-.52,3.38,3.38,0,0,1-.81-2.53c0-.1,0-.19,0-.25s0-.09,0-.12L287,118.6a4.4,4.4,0,0,1-.75.22c-.43.07-2.41.17-3.76.17a3.58,3.58,0,0,1-2.48-.94,13.08,13.08,0,0,1-3.33-.11,1.91,1.91,0,0,1-1.24-.88,1.8,1.8,0,0,1-.13-1.41c-.17-.12-.41-.25-.57-.33a8.77,8.77,0,0,0-.66.84l-.4.58-1.52.09-.07.91-.86.31a7.28,7.28,0,0,0-1.59.76,1.2,1.2,0,0,0-.26.26,2.41,2.41,0,0,1-.49.55,2,2,0,0,1-2.44-.1,2.83,2.83,0,0,0-.37-.2l-.87-.26c-.8-.23-1.8-.52-2.45-.78a3.49,3.49,0,0,1-1.62-1.42,1.63,1.63,0,0,0-.16-.22,10.3,10.3,0,0,0-1.67-.4l-.47-.09a3.77,3.77,0,0,1-2.74-2.25,2.71,2.71,0,0,1,.34-2.44c.54-.91,2.71-1.64,3.83-1.64a2.23,2.23,0,0,0,.65-.11l-.19-.29a10.79,10.79,0,0,0-1.91-1.74,2.48,2.48,0,0,1-.86-.05,2.85,2.85,0,0,1-1.76-1.82,4.68,4.68,0,0,1-.32-1.87,3.31,3.31,0,0,1,1-2.31,4,4,0,0,0,.19-.6l0-.09a5.41,5.41,0,0,0-.75-.19c-.29,0-1.06-.18-3.05-2.22l-.6-.62.52-1.57c.25-.75.79-2.54.79-2.54l.12-.39.31-.27a11.48,11.48,0,0,1,1.21-1,4.28,4.28,0,0,1,.55-.25l.28-.12,0-.09a7.28,7.28,0,0,1,.86-1.61,1.84,1.84,0,0,1-.05-.45,3.34,3.34,0,0,1,.19-1l-.27-.35c-.36-.22-1.48-.8-2.41-1.26l-1.12-.56.7-2,0,0-.21,0-.41-.07h-.14a6.93,6.93,0,0,1-4-.45,6.65,6.65,0,0,1-3-3.88c-.25-.71-.49-1.55-.74-2.44-.6-2.15-1.33-4.77-2.54-6.23l-.33.06-.45.24a10.6,10.6,0,0,1-1.93.88,14.61,14.61,0,0,1-2.86.41l-3,2.06a9.57,9.57,0,0,1-.47,1.24A3.46,3.46,0,0,1,233,77.87v2.18l-.17.31-1,1.81a4.89,4.89,0,0,0,0,2.53l.55,2.23-3.66-.85-6.12-1.92-.81.51-.63-.2c-.22-.07-1.36-.44-1.85-.66a10.38,10.38,0,0,0-1.35-.16l-.37,0-.29,0a6.6,6.6,0,0,1-2.54-.56,2.38,2.38,0,0,1-1.31-1.2v0A11.61,11.61,0,0,1,212.27,84c-.1.19-.33.76-.55,1.37l.47,1.3-2.45,3.78L211,93l.23,1.88-.19.38s-1.08,2.17-1.7,3.88l-.12.25c-.86,1.41-3.25,2.09-4.52,2.36a12.16,12.16,0,0,1-1.35.79,9.14,9.14,0,0,1-2.08.64,4.33,4.33,0,0,1,.19,1.31,2.58,2.58,0,0,1-.55,1.84c-.1.14-.24.34-.44.68.26.23.51.44.65.54.39.1,1.12.24,1.12.24l.79.16.38,1.07a11.13,11.13,0,0,1,1.31.84l.93.68-.48,1c-.24.52-1.81,3.49-2.26,4.33l-.32,1.62-.19.26a14.16,14.16,0,0,0-1.66,4.38l-.09.43-.35.33c.24.09.5.18.75.25l2.13.6-3.84,4.51a8.45,8.45,0,0,1,.48,2.51c0,.19,0,.46,0,.76a13.67,13.67,0,0,1-.2,2.1,5.36,5.36,0,0,1-1.14,1.87l-.49.59-.77-.09a34.47,34.47,0,0,0-3.88-.29l-.26.19a15.69,15.69,0,0,1-1.36.91,3.2,3.2,0,0,1-.24.66,2.68,2.68,0,0,0,.29.56l.54.81-.56.89c-.61.87-2,.82-2.74.73l0,0a2,2,0,0,1-1.4.44l-.37.13-.44.15a.75.75,0,0,0-.17.08l-.54,1.21-2.45-1.22-.44-2.13c-.15-.93-.22-1.42-.25-1.68s-.46-.82-.77-1.33a3.45,3.45,0,0,0-.44-.25,3.17,3.17,0,0,1-.74-.35l-.33.07-.4-.17-.54-.21,0,0-.61,1-1.1-.42a8.48,8.48,0,0,1-1.94-1,1.72,1.72,0,0,1-.65-1.28,2.06,2.06,0,0,1,.13-.78l-2-.81a14.91,14.91,0,0,0-4.29-.74c-.66.27-2.73,1.35-3.6,1.82-.15.4-.4,1.1-.59,1.68l-.51,1.55-1.47-.72c-2.91-1.43-3-1.57-3.23-1.9a2.15,2.15,0,0,1-.24-.51.94.94,0,0,0-.19-.35,3.62,3.62,0,0,1-.91-2.05s0-.18-.7-.86a2.21,2.21,0,0,1-.66-1.71c0-.07,0-.14,0-.21A3.21,3.21,0,0,1,156,126.9a2.47,2.47,0,0,1-1.93-1.06l-.13.07a2.11,2.11,0,0,1-.92.28c-.23,1.33-.54,4-.63,5.37a15,15,0,0,1-.79,3.67l-.27.75-.79.16a5.11,5.11,0,0,1-.93.08c-.19,0-.89.07-1.44.14l-1.07.13-.42-1c-.13-.32-.53-1.25-.79-1.74a2,2,0,0,0-.23-.19,6.87,6.87,0,0,1-1.51-1.49,37.13,37.13,0,0,1-2.56-4.57l-1.31.35-.61-.82a3.17,3.17,0,0,1-1.91.07l-.19.8-6-2.16.5-1.17-1-.48L132,123l-.44-.35.72-1.51-1.08-1.5v-1c-1.3-.79-3.38-2.27-4.73-3.26l-1.5.6-.63-.45c-.39-.28-2.35-1.68-2.84-2.11a9.43,9.43,0,0,0-1.09-.74,2.15,2.15,0,0,1-.43.18c-.31.09-1,.29-3.83-.79l-.95-.35.1-3.8.74-.39,2.44-1.27c.38-.19,1-.56,1-.57l.42-.24.48.07a4.71,4.71,0,0,1,1.56.63l.84.45c.33.17.66.35,1.08.59a.72.72,0,0,0,.3,0c.13-.13.3-.31.43-.46a1.73,1.73,0,0,1,1-.59,4.75,4.75,0,0,1,.09-.52,2.35,2.35,0,0,0,0-.24,2.41,2.41,0,0,1,1.27-1.64l-.45-.55.92-.66a4.14,4.14,0,0,1-1.64-1c-.37-.37-.76-.7-1-.92l-.2-.17-.65-.21-1-.33a2.24,2.24,0,0,1-1.48-1.51,7.75,7.75,0,0,0-1.62-.48,2.65,2.65,0,0,1-2.19-1.92L116.13,95h0a6.78,6.78,0,0,0-.71-.4,1.81,1.81,0,0,1-1.13-2.06,9.84,9.84,0,0,0-1.41-.44l-1.63.27-.37.06-5.36-1.94.76-1.43-.95-.22-.14-2.27-.78-1H104a5.94,5.94,0,0,1-2.88-1,6.17,6.17,0,0,0-.6-.33,1.5,1.5,0,0,0-.33-.08L100,85l-3.79.58,0,1,1.33.47,0,.48.5,1.1a3.93,3.93,0,0,1-.2,3.38.24.24,0,0,0,0,.32l2.42,2.42-7.68,0-.21,1.35-1,1.66.25.31-.38,1.19,1.5,1.61-1.91.76h0a7.09,7.09,0,0,0-1,.9.7.7,0,0,0-.19.28L90.86,105H88.19c-.1.26-.21.55-.33.78a1.65,1.65,0,0,1-.12.21l.21.22a4,4,0,0,1,1,2.56,2.61,2.61,0,0,1-2.11,2.74l-.35,0h-.65l.16.34a1.91,1.91,0,0,1,0,1.65l.25.21a2.19,2.19,0,0,1,.68,2.33,4.79,4.79,0,0,0-.09.63l.35.33a10.44,10.44,0,0,1,1.54,1.84,12.11,12.11,0,0,0,1.93,1.61c.29.21.53.39.69.51a2.53,2.53,0,0,1,.91,1.19,6.84,6.84,0,0,0,.31.66,24.09,24.09,0,0,1,1.3,4.56,3.1,3.1,0,0,1,.59,1,3.61,3.61,0,0,1,.16,1.51,18.94,18.94,0,0,1,1.15,1.81l.38.67-.36.68a.84.84,0,0,0-.08.19,1,1,0,0,0,0,.16,3.62,3.62,0,0,1,0,1.25,4.32,4.32,0,0,1-1.37,2.17c.14.56.34,1.35.54,2.24l.09.39-.08.23a2.38,2.38,0,0,1,.73,1.72,2.88,2.88,0,0,1-2,2.55l-.25.37.57,1.91v.21a6,6,0,0,1-.36,2.06.74.74,0,0,0,0,.17,4.84,4.84,0,0,1,0,1,11.48,11.48,0,0,1-.26,1.53,11.18,11.18,0,0,0-.24,1.43,2,2,0,0,1-.88,1.56,2.63,2.63,0,0,1-2.19.14c-.47-.07-1.84-.28-2.51-.47l-2-.54-.2.42a3.85,3.85,0,0,0-.26.51c0,.51-.21,1.75-.36,2.75l-.16,1-1,.15a11.65,11.65,0,0,1-1.36.11,13.58,13.58,0,0,1-1.41-.14c-.36,0-.91-.11-1.06-.12a10.24,10.24,0,0,1-2-.38v0a4.28,4.28,0,0,0,.41,1.6,9.61,9.61,0,0,1,.33,2.84v1.28l-1.27.12c-.19,0-1.83.17-2.55.17a12.15,12.15,0,0,1-2.7-.6,7.38,7.38,0,0,1-1.9.62l0,0a2.88,2.88,0,0,1-2.27,1,4.65,4.65,0,0,1-2.8-.66c-.33.33-.83.88-1.51,1.72-2,2.5-2.77,2.63-3.11,2.68s-1,.16-3.53-1.75l-2.32-.28-.6,2.08H52.46l-.69.66-.5,1.14c-1.37,2.59-1.82,2.83-2.12,3a2.3,2.3,0,0,1-1.48.21,2.74,2.74,0,0,1-.27,2.07,5.31,5.31,0,0,0-.31.79,3.07,3.07,0,0,1-2.56,2.19,3,3,0,0,1-.79,1.74,3.23,3.23,0,0,1-2.3.87c-.16.16-.33.3-.49.43a4.43,4.43,0,0,1-.29,2.13,2,2,0,0,1-2.22,1.06l-.29-.06c-.17.07-.41.18-.73.35,0,.11,0,.26,0,.36A2.23,2.23,0,0,1,36.2,188c-.33.15-1.7,1.11-2.51,1.68a18.44,18.44,0,0,1-2.12,1.4,5.58,5.58,0,0,0-.53.48A2.37,2.37,0,0,1,32,193a2.06,2.06,0,0,1-.19,1.2c.05.17.1.34.13.5l.1,0a1.83,1.83,0,0,1,1.26,1.06,2,2,0,0,1-.38,2.92,2,2,0,0,1-1.48.49l0,.05.08.13a1.86,1.86,0,0,1,.37,1.05,1.92,1.92,0,0,1-.94,1.52l-.15.11c-.22.42-.71,1.29-1,1.85a2.27,2.27,0,0,1-2.8,2.91,1.91,1.91,0,0,1-.55-.27l-.15,0a4.11,4.11,0,0,1-1.19-.39c-.14.37-.32.79-.37.88l-.58,1.3-1.29-.59a7.94,7.94,0,0,1-1.06-.54l-.14-.07a6.1,6.1,0,0,1-1-.54,2,2,0,0,1-.72-1.08l-.48,0v.12a9.17,9.17,0,0,1-.65,3.93l0,.1a2.73,2.73,0,0,1-1.31,2.59,1.9,1.9,0,0,1-2.43-.37l-.26.08a2.32,2.32,0,0,0-.55.21,1.7,1.7,0,0,1-.95.24,1.91,1.91,0,0,1,0,.25,1.88,1.88,0,0,1-.15.47,2.91,2.91,0,0,1,.2,2.56l.56.44v2.25l.9.6.23,1.53.42,2.13-.23.44c-.15.29-.3.59-.44.88l.82-.09L14.9,226a3.52,3.52,0,0,0-.17.75l0,0a14.32,14.32,0,0,1,.62,2.85,5.08,5.08,0,0,0,.77,2.2l1.13,1.37,1,.22h2.52l.41.69,2.45,4.14a6.17,6.17,0,0,0,.88.29,4.22,4.22,0,0,1,1,.37c.42.24.93.54,1.33,3.39L30,243.93l.06.79s.3,4.05.47,6.1a13.59,13.59,0,0,1-.08,3.2,8.19,8.19,0,0,1,.47,2.34,4.2,4.2,0,0,1,.87,1.18,3.86,3.86,0,0,1,2.58.78,3.07,3.07,0,0,0,1.54.49h1.14l.26,1.11c.24,1.06.55,2.36.62,2.59l.09.18a6.84,6.84,0,0,1,.73,2,3.26,3.26,0,0,0,.68,1.14c1.08,0,3.37,0,4.7-.11a5.9,5.9,0,0,1,3.65.54l.67.42v.79a17.92,17.92,0,0,1-.57,3.44,5.11,5.11,0,0,0,0,3.44,12.64,12.64,0,0,1,1.32.41c.22.08.52.18.62.2a12.44,12.44,0,0,1,2.13.49l.29.13a3.42,3.42,0,0,1,.66.49c.19.17,1.29,1.09,1.29,1.09l.82.69-.44,1a9.4,9.4,0,0,1-.65,1.22s0,.16-.06.32l.3.6a7.84,7.84,0,0,1,.5,3.16v.26l-.1.24a3.53,3.53,0,0,0-.24,1l.33.57c.25.44.61,1.07.85,1.42a7.48,7.48,0,0,0,1,.2v-.84l1.39,0,2.41,0c.08,0,.61-.26.95-.44l1.59-.84.62,2.42,1.6,1.17-.23.92a10.77,10.77,0,0,1-.86,2.34A16.42,16.42,0,0,0,63.69,295.17ZM64,292.5v0Zm-8.59-5h0Zm-1.06-1.89Zm16.33-.51-.05,0Zm7.81-1.78.08.07Zm37.84-9.81ZM23.55,238.21h0Zm125.09-1.84h0Zm-133.9-9.62Zm216.58-6.08h0Zm14.48-4.41Zm-234.34-.94h0Zm235.19-.06ZM16,210.19h0Zm.19-1.83Zm161.38,0Zm-161.19-.17h0Zm8.12-2.51v0Zm2.55-.76h0Zm1.31-.25,0,.06Zm1.1-.27,0,.08Zm1.38-2.48v0Zm-1.54-8.09Zm2.2-2.73,0,0Zm309.57-4.14,0,0ZM340,181.41Zm0-.18h0Zm0-5.07Zm-8.1-1.7ZM77.78,157.32Zm7.29-3Zm229-11h0ZM188.57,140.4l.1,0Zm-.25-2.15h0ZM179,135Zm-13.22-2.21h0Zm-74-3.48Zm43.66-5.19.16.06.23-1Zm138.5-9.3h0Zm-154-2.52h0Zm-.43-2.24Zm81-6.71h0Zm-75.88-3.17,0,0Zm133-.26h0ZM212.24,84.06l0,0Zm30.55-15.38h0Z"/></svg>