<svg id="Layer_1" data-name="Layer 1" xmlns="http://www.w3.org/2000/svg" viewBox="0 0 350 350"><defs><style>.cls-1{fill:#999;}.cls-2{fill:#f90;}</style></defs><title>M</title><path class="cls-1" d="M338.77,90s-4.23.27-5.26-1.46-2.23-8.19-.56-12.66c-4.07-.88-5.9.32-5.66-2.63s.8-5.74-1-7.82-3.51-1.44-3.91-4.95c-2.15-.48-8.93.16-8.14-5.26-2.39-.08-5.82-.24-3.59-5.5a15.58,15.58,0,0,1,4.36-2.39c1.14-2.87,2.42-2.63.9-4.07-2.15-1.68-3.35-1.68-2.63-4.71-2.31-1.12-6.38-2.07-2.79-4.95,3.59-3,8.22-7.1,8.22-7.1l-3.35-8.61H308L306.45,6.66A5.41,5.41,0,0,1,304,8.94c-1.52.64-3.67.56-8.61.48s-7.66,0-7.82.48-2,.88-4.71,1.68-3.35,1.28-3.19,2.31a7.63,7.63,0,0,1-.64,3.27c-.4,1.36-2.23.56-.88,5.82.56,3.43.56,3.75-.24,5.74s-5.58,5.42-7.82,5.66S253,43.72,246.88,51.53c-1.91,1.12-4.23,1.75-5.34-2.31-.24-3-3.43-3.59-5.9-3.59s-13,.08-14.6,3.19-4.39,6.94-13.64,6.62c-9.57-.08-30.39-.24-34,3.35A38.72,38.72,0,0,0,172,69.4v2l-42.91,1s-1.12.48-1,3.19c-2.31.8-15.24,6.94-19.94,5.66s-7.34,3.19-3.35,6.38c2.31,2.07,1,3.83.64,4.87s3.91,4.95,9.73,6.7A16.65,16.65,0,0,1,122,104.5l-6.22,13.88-5.58,10.29s-9.81,1.6-13.72,1.12-10.05-.64-11.25-1-8.85,2.07-7.58,4.55c2.23,2.15,3,3,3.83,4.55a6.48,6.48,0,0,1,.32,3.75c0,.56.24,1.91.24,2.55a5.41,5.41,0,0,1-.48,1.68A26.33,26.33,0,0,0,79,147.57a17.48,17.48,0,0,0-3.67,5.26c-.48,1.2-5.18,5.18-6.06,5.58s-9.73,3.75-11.89,4.55-1,1.52-.08,3.51c-.4,2.55-5.42,9.73-6.86,10.37-1.75.72-11.73,3-11.73,3l-10-4.95s-5.74-4.87-8.3-.8a44.25,44.25,0,0,0-3.67,7.26,23.94,23.94,0,0,1-1,2.82c4.65,3.27,17.82,12.54,19.91,13.85,1.75,1.75-1.28,3.67,2.39,3.51,1,.8,1.91,4.15,1.91,4.15s-4.79,3.35-3.67,4.95,5.9,5.74,7.34,7.82S54,238.9,56.56,240.66c-4,1.12-8.14-.64-9.33.64s-4.47,2.07-4.95,3.91-6.78-1.6-6.94,0c-.16,2.55-.32,3.91-.4,5.34-1.83-2.63-5.5-4.55-6.06-2.39,0,0-2.15-5-3.83,0-.4,2.07-.72,2.55-2.07,1.12s-2-2.87-2.71-3.59-4.31-.4-4.15,1.52c-1.6-.16-3.75-.72-3.91,1.83-2.23.32-3,1.75-2.31,5.34s1.6,6.3,3.51,8.53c.56,1.91.16,4.79,3.43,5.58,1.44.8,2.39,4.15,1.44,7.34-.88,2.23,1.44,4.71,5.66,7.34,1.36,2.15-.16,3.43,1.68,7.82,2.15,4.23,5.5-1.36,6.54,4.63,0,2.07.72,2.39-1.52,2.55s-2.55,3-3.11,3.91-8.14,2.39-4.71,9.33c2.15,2.31,8.85,4.95,11.41,6.54s17,5.42,21.46,11.25a9.47,9.47,0,0,0,5.9,2.79c1.83.16,1.28,2.39,3.43,2.39s1.83,1.83,1.83,1.83,1.12.4,3,1.28a9.58,9.58,0,0,1,4.31,3.27c1.68,2,1.91,4.31,5.66.64a28.58,28.58,0,0,0,6-11.33c-3.19-1.6-7-3.27-9.25-4.31s-7.5-.4-8.77-1c1.83-3.43,7.5-17.07,9.73-19,3-1.44,4.95-1,9.41,2.87a52.44,52.44,0,0,0,5.26,3.75s3.19-5.1,6.78-4.87c3.11.8,6.62,4.71,6.62,4.71s2,4.47,4.07,4,6.06-4.63,7.34-6.54c1.52-2,2-4.87,8.3-5,4.31-.32,3.11-.72,3.11-.72s-2.63-9.17-.4-13.64c2.39-1.44,5.74-.72,7-2.15s1.12-5.9,0-7.5-1.91-4.15-3.27-5-1.91-4.55.56-4.15,5.26,1,6.22-.4a5.92,5.92,0,0,1,2.15-2s-.88,6.3,2.39,5.82c3.27-1.6,5.1.16,5.58-2.39s0-3.11,2.39-3.35,2.39-.8,4.07-2.87,3.51-5.18,1.68-6.86a15.87,15.87,0,0,0-3.59-.56l.48-3.27-3.67-.16-.24-5.34s-5.9-1.44-7.18-4.15c.16-1,.08-4.15-1.83-4.87-1.68-.24-3.51-.08-4-1.75s-1.91-7.3,5-7.48c.56-.58,5.42-.5,5.42-.5l1.44-1.68,3.43,1.2,4-2.47,2.07-.8,14.12,8.69s5.42,2.79,3.83,10.05a22.93,22.93,0,0,0-1.28,2.47l12,1L191,260s0,2.79,3.91,2.55c2.79-1.68,6.62-6.38,6.62-6.38s.4,3.51,3,4,4.23-2.39,9.25,1.28c3.35-2.31,3.67-2.55,4.47-4.71s1.2-9.25.72-11.41-1.12-14.6,1-18.27c2-2.07,3.27-9.73,10.93-7.26,6.62,2.39,10.61,5.74,16.19.72,5.34-5.26,8.77-9.33,9.25-13.48-.64-4.31-1.91-12.36,2.71-15.24.72-3.83-1.83-10.93-4-13.4s-9.73-8.93-10.61-10.93-7.66-9.57-10.05-10.29-11.41-.32-14,1c-3,.08-8.77-2.63-10.61-5.26-.8-.16-.56-4.15-1-4.71s-8.61-1.83-9.41-2.15-1.83-6.94-2.23-8.69-3.27-6.3,4.23-6.94c7.9-2.23,25.84-2.71,30-4.39s6.3-5.9,7.82-7.18,11.73-6.54,15.08-4.39c2.31,3,3.75,7.74,5.74,9s4.07,1,6.06.16,4.23-1.28,5.66-2.55,5.1-1.52,4.15-3.11a17.34,17.34,0,0,1-1.44-2.47c5.1-.48,8.53-.88,9.09-.88s.88-3.75.88-3.75,9.17-3.75,11.17,0c.88,2.23,4.1,5.74,11.1,6,3.65,1,5.17,3.59,4.37,4.87s-2.23,6.54-2,8.85,7.18,3.83,9.33,5.18c.56-5.18,1-5.34,2.79-6.22s4.95-2.71,6.94-3.67,10.61-10.45,11.09-21.3c.56-7.42,1-14.52,1-15.71S338.77,90,338.77,90Z"/><path class="cls-2" d="M76.8,344.76h-.26c-1.36-.13-2.09-1.18-2.74-2.11-.21-.31-.44-.64-.71-1a8.25,8.25,0,0,0-3.81-2.89c-1.82-.84-2.91-1.23-2.92-1.23l-1.12-.4.2-1.17a.55.55,0,0,0,0-.13,2.06,2.06,0,0,0-.42,0,3.39,3.39,0,0,1-3.1-1.9c-.3-.48-.32-.48-.45-.49a10.86,10.86,0,0,1-6.83-3.25l-.08-.09c-3-3.87-11.34-7-16.35-8.91a34,34,0,0,1-4.74-2c-.81-.51-2.17-1.18-3.61-1.88-3-1.49-6.49-3.18-8.08-4.9l-.14-.15-.09-.19c-3.34-6.76,2.17-9.52,4.24-10.55l.61-.31c.06-.15.14-.36.2-.53.47-1.29,1.34-3.7,3.94-3.88l.26,0c0-.27-.05-.6-.06-1-.32-1.8-.5-1.78-1.57-1.66a4.2,4.2,0,0,1-4.82-2.45l0-.1A13.22,13.22,0,0,1,23.17,286a3.89,3.89,0,0,0-.29-1.84c-3.31-2.09-7.3-5.22-6-8.81.77-2.65,0-5-.68-5.57-3.24-.91-3.68-3.55-4-5.31-.05-.33-.11-.64-.17-.92-2-2.46-2.89-5.35-3.61-8.92-.5-2.48-.34-4.19.5-5.38a3.82,3.82,0,0,1,2-1.41,3.07,3.07,0,0,1,1-1.51,4.16,4.16,0,0,1,3.15-.7,3.36,3.36,0,0,1,1.47-1.25c1.46-.68,3.69-.73,4.7.28a9.54,9.54,0,0,1,1.14,1.51,17.45,17.45,0,0,0,1.25,1.72v0l0-.18c.26-.77,1-3.12,3-3.2a3.17,3.17,0,0,1,2.52,1.43l.34-.08a5.83,5.83,0,0,1,4.21,1.47c0-.63.1-1.35.16-2.2a1.85,1.85,0,0,1,.78-1.38c1-.68,2.37-.32,4.12.13a16.09,16.09,0,0,0,2.26.48c.63-1.43,2.16-2.28,3.53-3a8.72,8.72,0,0,0,1.61-1c1-1.1,2.72-1,4.67-.79a25.73,25.73,0,0,0,2.94.13C52,237,49.34,232.14,45.53,224.9c-1.36-2.59-2.65-5-3.06-5.61a41.53,41.53,0,0,0-3.95-4.21,35.18,35.18,0,0,1-3.39-3.6c-1.5-2.15,1.24-4.8,3.17-6.3a13.85,13.85,0,0,0-.93-2.19,2.91,2.91,0,0,1-2.17-.81,2.48,2.48,0,0,1-.43-2.19c.08-.52.09-.68,0-.84-2.52-1.62-14.63-10.14-19.81-13.79l-.94-.66.45-1.06a22.58,22.58,0,0,0,.94-2.62,44.45,44.45,0,0,1,3.85-7.67,4.63,4.63,0,0,1,3.26-2.21c3-.46,6.23,2,7,2.58l9.37,4.65c4-.93,9.85-2.37,11-2.85s5.16-6.48,5.9-8.88l-.33-.59a3.19,3.19,0,0,1-.62-2.75,3.12,3.12,0,0,1,2-1.69c2.47-.91,11-4.15,11.79-4.51s4.88-3.94,5.34-4.85a18.42,18.42,0,0,1,4.12-5.84c.89-.67,1.77-1.22,2.27-1.52a3.08,3.08,0,0,0,.19-.7c0-.24-.06-.76-.12-1.18a12.67,12.67,0,0,1-.12-1.37,5.76,5.76,0,0,1,.06-.67,4.11,4.11,0,0,0-.21-2.42c-.71-1.34-1.39-2.1-3.56-4.19l-.17-.16-.11-.21a2.77,2.77,0,0,1,.42-3.1c1.73-2.15,7.16-3.9,8.78-3.46.47.13,2.58.26,4.44.38,2.18.14,4.65.3,6.62.54,3.09.38,10.37-.66,12.64-1l5.22-9.63,5.85-13.05a15.78,15.78,0,0,0-5.7-4.21c-5-1.52-9.26-4.68-10.36-6.75A2.19,2.19,0,0,1,104,92c.06-.21.16-.44.26-.69.42-1,.69-1.64-.49-2.7-2.24-1.79-3-4.35-2-6.48.92-1.8,3.32-3.22,6.62-2.33s12.75-3,16.75-4.69l1.42-.59c.21-2.66,1.57-3.38,1.87-3.51l.25-.11,41.8-.93V69.4a39.87,39.87,0,0,1,1.5-11l.1-.34.25-.25c3.54-3.54,18.92-3.9,35-3.76,8.36.28,10.77-2.88,12.38-5.88,1.33-2.6,6.67-3.94,15.84-3.94,5.87,0,7.11,2.91,7.3,4.75.31,1.06.72,1.76,1.16,1.94.27.11.8.11,1.85-.46,6.32-7.87,21.21-17.16,24-17.46,1.71-.18,6.06-3.31,6.65-4.78.67-1.68.69-1.72.17-4.93-1-3.82-.5-5.18.72-6.33a2.17,2.17,0,0,0,.19-.19c.08-.27.16-.53.24-.77a4.3,4.3,0,0,0,.36-1.87c-.39-2.54,2.15-3.29,4.19-3.89l1.64-.47C285,9.49,286,9.21,286.4,9c.62-1,2.32-1.14,9-1h.89c4,.06,6,.1,7.15-.38A4,4,0,0,0,305.21,6l2.07-3.72,1.94,14.2h7.15l4.06,10.44-.74.65s-4.68,4.11-8.24,7.12a3.51,3.51,0,0,0-.88.91,9,9,0,0,0,2.2,1.15c.41.18.82.35,1.18.52l1,.5-.26,1.11c-.36,1.51-.36,1.51.94,2.41.35.24.75.52,1.18.85l.1.09c1.54,1.46,1.33,2.48.46,3.76a8.56,8.56,0,0,0-1,1.86l-.22.56-.56.23a17.42,17.42,0,0,0-3.71,1.91c-.72,1.82-.47,2.46-.37,2.62.35.55,1.9.61,2.82.64l1.58.05-.23,1.57a2.48,2.48,0,0,0,.35,2c.88,1.12,3.31,1.34,4.92,1.48a15,15,0,0,1,1.78.22l1,.22.11,1a2.52,2.52,0,0,0,1.47,2.43,8.5,8.5,0,0,1,2.11,1.76c1.91,2.26,1.65,5,1.39,7.73,0,.37-.07.74-.1,1.12a3.23,3.23,0,0,0,0,.57,10.61,10.61,0,0,0,1.22.13,22.16,22.16,0,0,1,3.33.43l1.6.35-.58,1.54c-1.51,4-.42,10,.45,11.43.29.48,1.88.79,3.31.79,1-1.26,1.77-1.68,2.62-1.41a1.66,1.66,0,0,1,1.13,1.69c0,1.37-.54,9.16-1,15.82-.49,11-9.12,21.14-11.89,22.47-1.09.52-2.55,1.32-4,2.08-1.12.61-2.18,1.18-3,1.58-1.35.68-1.55.77-2,5.11l-.24,2.26L317.75,137a21.79,21.79,0,0,0-3-1.29c-3.29-1.24-6.7-2.52-6.95-4.94-.27-2.6,1.24-8.21,2.2-9.75a1.3,1.3,0,0,0-.21-.6,5.08,5.08,0,0,0-3.17-2.1c-7.05-.29-10.95-3.8-12.17-6.78-.94-1.57-5.37-.76-8.56.4-.34,3.09-.93,4.16-2.2,4.16-.25,0-1.54.13-3,.29l-3.75.38.32.5a2.22,2.22,0,0,1,.27,1.93c-.4,1.17-1.67,1.66-2.89,2.14a7,7,0,0,0-1.78.87,12.84,12.84,0,0,1-4.48,2.23c-.54.18-1.08.37-1.6.58-2.86,1.15-5.27,1.05-7.35-.28-1.45-.93-2.44-2.86-3.6-5.1a29.7,29.7,0,0,0-2.33-4c-2.59-1.18-11.42,2.87-13.21,4.38a13.18,13.18,0,0,0-1.36,1.57c-1.51,1.91-3.58,4.52-6.84,5.84-2.19.89-7.38,1.41-13.38,2s-12.79,1.3-16.75,2.42l-.27,0c-1.9.16-3.18.61-3.6,1.27s0,1.92.31,2.89a10.53,10.53,0,0,1,.33,1.06c.09.41.22,1.09.38,1.9a52.18,52.18,0,0,0,1.34,5.87c.56.12,1.66.33,2.57.5,6,1.14,6.64,1.38,7.13,2.06a5.1,5.1,0,0,1,.54,2.59c0,.49.1,1.33.19,1.79l.24.34c1.53,2.2,6.59,4.55,9.14,4.66,3.36-1.44,12.22-1.74,14.76-1,3,.91,10.05,9.06,10.94,11.08.43,1,3.88,4.24,6.16,6.4,1.73,1.64,3.36,3.18,4.22,4.17,2.29,2.63,5.13,10.21,4.31,14.59l-.11.61-.53.33c-3.76,2.34-2.67,9.68-2.09,13.62l.06.39,0,.19c-.52,4.53-3.94,8.69-9.67,14.33-5.26,4.74-9.45,3-14.29,1-1.07-.45-2.18-.91-3.37-1.35-4.32-1.39-6,.93-7.79,4.37a12.83,12.83,0,0,1-1.5,2.4c-1.76,3.3-1.29,15-.81,17.12s.15,9.73-.77,12.21-1.58,3-5,5.38l-.83.57-.81-.59c-2.83-2.07-4.13-1.72-5.64-1.31a6.58,6.58,0,0,1-3,.29,4.77,4.77,0,0,1-3.34-2.57,28.05,28.05,0,0,1-5.33,4.78l-.3.18-.35,0a5.4,5.4,0,0,1-4.17-1.22,4,4,0,0,1-1.22-2.41l-3.74-9.2-13.09-1,.72-1.79a22.53,22.53,0,0,1,1.25-2.46c1.19-5.9-3-8.19-3.14-8.29L158,229.15l-1.29.5-4.45,2.76-3.16-1.1-1.24,1.45h-.67a26.4,26.4,0,0,0-4.54.23l-.24.25h-.58c-1.77,0-3,.48-3.57,1.29s-.7,2.37-.13,4.38c.1.36.36.48,1.89.63l.94.11.3.08c2.55,1,2.89,4.24,2.79,5.88,1,1.34,4,2.59,6.06,3.08l1,.25.23,5.11,3.94.17-.49,3.36q.93.15,2.27.43l.38.08.29.26c1.2,1.09,2.59,3.69-1.53,8.8-.26.33-.48.61-.68.87-1.2,1.57-1.84,2.27-4.35,2.52a5,5,0,0,0-.82.13c0,.18-.08.49-.12.75s-.11.81-.21,1.32c-.48,2.55-2.29,2.66-3.48,2.74a7,7,0,0,0-2.87.67l-.2.1-.22,0a3.11,3.11,0,0,1-2.74-.85,5.28,5.28,0,0,1-1.29-3.05c-1.5,1.42-4.12,1-6.46.59l-.71-.12H132a2.08,2.08,0,0,0,.5,1.57,8.94,8.94,0,0,1,2.63,3.57,16.51,16.51,0,0,0,1,1.83c1.45,2.07,1.64,7.29-.1,9.25-1,1.13-2.57,1.35-4.08,1.56a10.45,10.45,0,0,0-2.9.68c-1.28,3.21-.13,9.25.56,11.84a1.48,1.48,0,0,1,.3,1.09c-.18,1.43-1.69,1.6-4.56,1.82-4.51.12-5.42,1.57-6.46,3.26-.25.4-.5.81-.81,1.21-1.19,1.78-5.47,6.44-8.15,7.06-2.85.67-5-3.31-5.58-4.58-1-1.08-3.57-3.49-5.64-4.09-2.17,0-4.66,3.09-5.36,4.21l-.72,1.16-1.18-.68a53.37,53.37,0,0,1-5.43-3.86c-4.3-3.68-5.73-3.74-7.73-2.81-1.39,1.43-4.71,8.66-6.71,13-.63,1.38-1.21,2.64-1.7,3.67l1.31,0c2.07.05,4.41.11,5.93.82l2.28,1c2.1,1,4.72,2.14,7,3.29l.9.45-.13,1a29.76,29.76,0,0,1-6.36,12.12C79.18,344,78,344.76,76.8,344.76Zm-8.61-9.54c.54.22,1.31.54,2.27,1a10.93,10.93,0,0,1,4.8,3.65c.34.41.62.81.87,1.16a4.71,4.71,0,0,0,.73.92,6.59,6.59,0,0,0,2-1.55c2.79-2.92,4.66-7.52,5.31-9.55-2-1-4.12-1.93-5.89-2.73l-2.3-1a15.79,15.79,0,0,0-4.81-.55c-2-.05-3.2-.1-4-.5l-1.3-.65.69-1.29c.54-1,1.45-3,2.5-5.29,3.27-7.12,5.9-12.68,7.55-14.1l.3-.2c4-1.95,6.72-.56,11,3.07,1.82,1.41,3.13,2.34,4,2.9,1.32-1.71,4-4.56,7.25-4.36l.26,0c3.43.88,6.93,4.7,7.32,5.13l.15.17.09.2c.76,1.69,2,3.19,2.46,3.19h0c1.37-.32,5.09-3.87,6.47-5.94.29-.38.5-.72.71-1.06,1.17-1.87,2.76-4.44,8.73-4.59.62,0,1.1-.09,1.47-.14-.66-2.77-1.95-9.52,0-13.44l.18-.37.35-.21a11.07,11.07,0,0,1,4.34-1.25,5.15,5.15,0,0,0,2.35-.63c.76-.85.69-4.61-.1-5.74a18.62,18.62,0,0,1-1.23-2.16,7.7,7.7,0,0,0-1.65-2.49,4.65,4.65,0,0,1-1.57-5.06,2.7,2.7,0,0,1,3.13-1.68l.72.12c1.21.21,3.74.63,4.09.09a7.29,7.29,0,0,1,2.73-2.49l2.36-1.1-.35,2.58c-.21,1.55-.08,3.65.45,4.17a.22.22,0,0,0,.17.07,9.83,9.83,0,0,1,3.68-.83,5.45,5.45,0,0,0,.8-.08s0-.14.08-.35c.09-.46.14-.85.18-1.18.29-2.12.83-3.05,3.46-3.32,1.39-.14,1.43-.19,2.38-1.43.21-.27.44-.58.72-.92,1.29-1.6,2.51-3.7,2-4.68a19.43,19.43,0,0,0-2.7-.43l-1.79.25.53-3.59-3.4-.15-.25-5.61c-1.94-.59-5.89-2.08-7.09-4.63l-.18-.39.07-.43c.14-.92-.08-2.83-.83-3.27l-.63-.07c-1.46-.15-3.67-.37-4.33-2.67-.83-2.89-.63-5.19.57-6.84,1.09-1.48,2.91-2.3,5.4-2.44.65-.28,2-.54,5.19-.52l1.63-1.91,3.7,1.29,3.65-2.23,2.73-1.05L173,235c2.22,1.17,5.95,5.05,4.51,11.59l0,.21-.11.19-.29.52,10.82.86,4.58,11.28V260h0a1.17,1.17,0,0,0,.37.7,2.63,2.63,0,0,0,1.69.45c2.52-1.68,5.92-5.83,6-5.87l2.13-2.61L203,256s.35,2.48,1.88,2.75a4.09,4.09,0,0,0,1.79-.23c1.61-.44,3.77-1,7.21,1.18,2.5-1.74,2.56-1.91,3.14-3.48a34,34,0,0,0,.66-10.61c-.42-1.89-1.3-15,1.2-19.29l.2-.26a10.37,10.37,0,0,0,1.17-1.92c1.59-3,4.25-8,11.21-5.71,1.31.47,2.45,1,3.55,1.41,4.6,1.93,7.38,3.09,11.25-.4,5-4.94,8.26-8.78,8.77-12.41h0c-.66-4.42-1.86-12.5,2.83-16.05.31-3.52-2-9.65-3.74-11.66-.77-.89-2.36-2.39-4-4-3.71-3.51-6.19-5.92-6.8-7.31-.79-1.79-7.28-8.94-9.16-9.5s-10.69-.24-13,.94l-.29.15h-.32c-3.21.09-9.21-2.56-11.58-5.56-.92-.63-1-2.15-1.16-3.86,0-.29,0-.66-.08-1-1.12-.32-3.76-.82-5.29-1.11a27.23,27.23,0,0,1-3.44-.74c-1.12-.45-1.56-1.7-2.73-7.89-.14-.76-.27-1.41-.36-1.8a7.82,7.82,0,0,0-.24-.75c-.46-1.31-1.22-3.5,0-5.37.94-1.45,2.77-2.28,5.61-2.54,4.21-1.17,11.06-1.86,17.11-2.47,5.31-.54,10.79-1.09,12.61-1.83,2.57-1,4.29-3.22,5.68-5a14.27,14.27,0,0,1,1.75-2c1.19-1,12.36-7.32,16.75-4.5l.2.13.15.19a29.37,29.37,0,0,1,2.78,4.68c.89,1.72,1.8,3.5,2.61,4,1.31.84,2.74.85,4.77,0,.56-.23,1.15-.43,1.73-.63A10.73,10.73,0,0,0,270.9,120a8.67,8.67,0,0,1,2.63-1.39c.28-.11.66-.25.94-.39a11.76,11.76,0,0,1-.8-1.36l-.37-.72-1-1.88,2.11-.2c2.36-.22,4.37-.43,5.89-.58l2.45-.24a21.74,21.74,0,0,0,.35-2.51l.07-.86.8-.33c1.06-.43,10.43-4.1,13,.65l.07.15c.19.49,2.11,4.82,9.83,5.08l.31,0a7.62,7.62,0,0,1,5.36,4.09,3.16,3.16,0,0,1-.14,2.9c-.63,1-2,6-1.79,8,.29.76,3.56,2,5.13,2.58l1.63.63c.53-3.59,1.25-4.33,3.24-5.33.84-.42,1.87-1,3-1.57,1.44-.79,2.93-1.6,4.09-2.15,1.62-.78,9.83-9.8,10.28-20.08.41-5.4.74-10.26.91-13.12-.92.05-5.14.17-6.54-2.15-1.14-1.9-2.23-7.59-1.16-12.25-.53-.06-1-.1-1.42-.12-1.31-.09-2.43-.17-3.21-1.07a3.55,3.55,0,0,1-.64-2.69c0-.39.07-.77.11-1.16.22-2.3.41-4.28-.73-5.63a5.85,5.85,0,0,0-1.47-1.2,5,5,0,0,1-2.58-3.4l-.5,0c-2.09-.19-5.25-.47-6.89-2.55a4.71,4.71,0,0,1-1-2.59,4.68,4.68,0,0,1-3.7-1.86c-.84-1.32-.75-3.13.26-5.53l.11-.25.2-.19A14.15,14.15,0,0,1,314,46.22,11.45,11.45,0,0,1,315,44.37v0l0,0c-.36-.28-.7-.51-1-.71-1.51-1-2.53-2-2.3-4.22l-.09,0c-1.73-.73-3.68-1.56-3.93-3.38s1.39-3.05,1.93-3.48c2.67-2.25,6-5.13,7.42-6.4l-2.64-6.79h-7.69l-1.3-9.53a5.75,5.75,0,0,1-.9.48c-1.7.71-3.77.68-8.3.6h-.89a52.21,52.21,0,0,0-6.81.14c-.56.62-1.66.93-3.68,1.5l-1.61.46a9.81,9.81,0,0,0-2.18.81,6.88,6.88,0,0,1-.47,3.09c-.07.23-.15.47-.22.73a3.1,3.1,0,0,1-1,1.44c-.27.26-.68.64.09,3.63l0,.13c.58,3.59.6,4.18-.32,6.5s-6.19,6.25-9,6.55c-1.88.31-16.24,9-22.25,16.62l-.17.21-.23.14c-.66.38-2.66,1.54-4.57.77-1.33-.54-2.28-1.86-2.85-3.93l0-.26c0-.56-.18-2.28-4.49-2.28-8.31,0-12.74,1.25-13.34,2.42-2.07,3.85-5.44,7.75-14.95,7.39-7.17-.05-28.76-.24-32.69,2.73a38.2,38.2,0,0,0-1.26,9.81v3.38l-43.71,1a3.94,3.94,0,0,0-.24,1.74l0,1-1,.34c-.39.13-1.18.46-2.18.88-7.42,3.1-14.8,5.83-18.59,4.81-1.76-.48-3,.1-3.35.88s0,2,1.25,3a4.65,4.65,0,0,1,1.27,6l0,.11c.66,1,3.84,3.79,8.66,5.24l.14.05a18,18,0,0,1,7.48,5.86l.44.65L117,119.05,111.07,130l-.69.11c-.41.07-10.06,1.62-14.12,1.13-1.88-.23-4.31-.39-6.46-.52a41,41,0,0,1-4.91-.45h-.06c-1.25,0-5.21,1.49-5.88,2.49a16.87,16.87,0,0,1,3.74,4.56,6.69,6.69,0,0,1,.52,4.1c0,.13,0,.24,0,.32s.06.64.1,1a13.85,13.85,0,0,1,.14,1.53,6.32,6.32,0,0,1-.61,2.27l-.19.42-.4.23a25.07,25.07,0,0,0-2.4,1.57,16.41,16.41,0,0,0-3.2,4.66c-.66,1.65-5.74,5.87-6.79,6.35s-10,3.84-12,4.58l-.12,0,.18.32c.2.35.43.75.65,1.2l.19.4-.07.44c-.44,2.82-5.61,10.52-7.68,11.45-1.85.76-10.95,2.88-12,3.12l-.5.11L27.8,176c-.73-.62-3.19-2.32-4.88-2.06a1.82,1.82,0,0,0-1.3.93,44.12,44.12,0,0,0-3.5,6.87c-.14.53-.38,1.23-.65,1.94,4.93,3.47,17,11.94,18.93,13.16l.25.2a3.43,3.43,0,0,1,1,3.1H38l.55,0,.42.35c1.17,1,2,3.71,2.37,4.85l.28,1-.83.58a11.27,11.27,0,0,0-3.2,3.13c.53.68,1.75,1.88,2.94,3a41.33,41.33,0,0,1,4.29,4.61c.48.69,1.49,2.59,3.23,5.9,2.55,4.84,7.86,14.91,9.33,15.91l2.5,1.72-2.92.82a17.45,17.45,0,0,1-6.28.3,8.17,8.17,0,0,0-2.46,0A9.63,9.63,0,0,1,46,243.8c-.92.51-2.18,1.2-2.33,1.76-.61,2.33-3.46,1.59-5.54,1-.42-.11-1-.25-1.42-.34-.06.9-.12,1.65-.18,2.32s-.12,1.38-.15,2l-.23,4.11-2.35-3.37a6.78,6.78,0,0,0-3.56-2.71l-1,3.85-1.64-3.78a5.3,5.3,0,0,0-.72-1.18,5.23,5.23,0,0,0-.43,1c-.22,1.16-.53,2.56-1.77,2.92s-2.23-.69-2.71-1.2a17.48,17.48,0,0,1-1.9-2.49,10.61,10.61,0,0,0-.69-1,2.54,2.54,0,0,0-1.85.36l.14,1.7L16,248.61l-.54-.06a4.11,4.11,0,0,0-1.67,0,1.07,1.07,0,0,0-.14.58l-.07,1.15-1.14.16c-.83.12-1,.39-1.09.48-.2.28-.46,1.06,0,3.18.65,3.26,1.44,5.85,3.2,7.89l.2.23.08.29a13,13,0,0,1,.31,1.52c.3,1.81.51,2.7,2.09,3.08l.18,0,.17.09c2.23,1.24,3.2,5.35,2.11,9l0,.11c-.5,1.27,1.31,3.26,5.09,5.62l.28.17.17.28A6.12,6.12,0,0,1,26,286a10.44,10.44,0,0,0,.89,4.41c.54,1,.9,1,2,.87,2-.22,4,.12,4.69,4.11l0,.24a9.93,9.93,0,0,0,.06,1,2.51,2.51,0,0,1-.41,2,3.32,3.32,0,0,1-2.48.87c-.65,0-1,.69-1.47,2a6.33,6.33,0,0,1-.54,1.23A3.79,3.79,0,0,1,27.06,304c-2.72,1.36-4.83,2.8-3.07,6.57,1.33,1.3,4.53,2.87,7.12,4.14,1.57.77,2.93,1.44,3.86,2a37.4,37.4,0,0,0,4.23,1.75c5.61,2.12,14.07,5.31,17.56,9.79a8.05,8.05,0,0,0,4.94,2.29,3.27,3.27,0,0,1,2.62,1.83c.34.56.35.56.68.56A3.21,3.21,0,0,1,67.6,334,2.84,2.84,0,0,1,68.2,335.22Zm-41.14-88Zm181.07-97.9ZM84.83,130.19h0Zm225.7-94.54Z"/></svg>