<svg id="Layer_1" data-name="Layer 1" xmlns="http://www.w3.org/2000/svg" viewBox="0 0 350 350"><defs><style>.cls-1{fill:#999;}.cls-2{fill:#f90;}</style></defs><title>M</title><path class="cls-1" d="M341.52,61.19a7.19,7.19,0,0,1-.06-4.32c.44-.78-1.05-2.27-1.38-2.83s.17-2.77.17-2.77.11-2.55.06-3-.17-1.5-.22-2.27,1-10.86,1-10.86h-1.66l-1.22,3.71-3.27-1.33-1.77,1.22-2.55.5s.89,1.72.72,2a2.75,2.75,0,0,1-3,.44c-1.05-.72-.44-2.49-.44-2.49a47.57,47.57,0,0,0-4.71.89,26.23,26.23,0,0,0-2.88,2.38l-.83-2.16-2.88.61-1.66,1.94-4.27,2.16S309.61,47,309.39,47s-1.94-.5-2.6-.5-1.33,1.66-1.33,1.66a8,8,0,0,0-1.77.22c-.83.22-3.38,2.66-3.38,2.66s-3.43-.39-4.1-.39-4.38-3-4.38-3a5.43,5.43,0,0,0-3,0c-1.55.5-4,4-4,4l-3,2-4-.66s-2.6.83-3.82,1.33a28.83,28.83,0,0,1-4.15,1s-6.65,3.16-8,3.55-3.16-1.66-3.32-1.72-1.88-.22-2.11-.22a12.2,12.2,0,0,1-1.72-.89l-1.88.89-2.27.22A7.77,7.77,0,0,1,248.4,56a8.18,8.18,0,0,1-.94-1.94s-5-1.55-5.21-1.55A12.16,12.16,0,0,1,241,50.72L236,53l-1.11,2.83-2.71.22-.66,2.16.66,1.72-.5,2.94-4.82.33L222,65.12s-1.61.17-2.71.39a33.76,33.76,0,0,1-5.54-.39l-2.27.61L207.35,68,206,69.44h-3l-3.32,3s-3.93,3.43-4.15,3.71-1.39,1.66-1.66,1.61a9.5,9.5,0,0,0-1.27,0l-1.55,2s-2.6-.22-2.77-.33-.33-.94-.33-.94l-4.82.94L179.38,79s-4.15,3.93-4.27,4.21a8.27,8.27,0,0,1-2.49,1.5c-.5.11-4,1.38-4,1.38s-1.11,1.5-1.61,2-.33,2.49-.72,3.6-2.49,2.27-2.88,2.94-2.11,1.22-2.6,1.5-3.32,5.43-3.32,5.43l.89,1.88s-8.14,5.43-8.64,6.09a15,15,0,0,1-3,2.88,2.2,2.2,0,0,1-2.83,0,21.34,21.34,0,0,1-3,3c-.78.39-3.66,1.83-4.43,2.33a34.82,34.82,0,0,1-4,1.61l-.39-1.61s-3.21,2.27-4.32,2.49a18.62,18.62,0,0,1-3.21.17c-.28,0-7.15.17-7.7,0a10.84,10.84,0,0,1-2.27-.72,17.83,17.83,0,0,0-2.77-.89,6.12,6.12,0,0,0-1.61-.28c-.39,0-1.5-.28-2.27-.33a25.6,25.6,0,0,0-3.71.61l-.44,5.43-6.26,2.88H94.9l-4,3.38s-.78-.72-1.33-.61a22.83,22.83,0,0,1-2.55-.39,24.37,24.37,0,0,0-3.21,1.05c-1.33.55-4.54,0-4.54,0l-.28,7.64s-.83,5.71-.5,7a24.87,24.87,0,0,1,.5,3l-6.26,1.11.33,5.1s6-.22,6.65-.55,1.88,1.55,2.55,2.22S88,157,88,157s-1.77,1.33-1.77,2.44.33,4.32.11,4.65-1.88,4.65-1.88,4.65l4.87,2.77s-.33,1.44,0,1.77-7.53,16.51-7.53,16.51,3.77-.33,5.21-.33,6.87.22,6.87.22-4,13.52-4,14.74-1.55,5-1.55,5l-3,.78a13.91,13.91,0,0,0-6.37,0c-2.71.89-13.68,2.22-13.68,2.22l-6-2.88L47,220.9,38.78,222l.55,6.2L44.87,233l-5.43,9.42L37.67,250l-3.43,3a11.16,11.16,0,0,0-1.66-2c-.44-.22-12-1.55-12-1.55l-1.44,2.44,3.1,7.42-5.87,2.44-8.75-3.1-1.27,4.54s1,6,1.16,7.31,1.66,2.71,4.32,3.38,5.15,2.71,7,3.27a10.05,10.05,0,0,1,4.54,3.27c1,1.22,2,3.49,3.27,11.25a36.65,36.65,0,0,0,14.62-2.33s7.15-2.27,8.25-2.77,6.09-3,6.09-3l4.43,2a37.83,37.83,0,0,0,3.82,5A8.8,8.8,0,0,1,66.37,296s8.2,1.11,9.58,2.1,1.11,6.48,1.11,6.48l9.36.5.89-1.72s6.37-1.33,8-2.71,4.38-9.75,5.37-12.41,6-3.38,6.65-3.55a32.7,32.7,0,0,0,4.43-1.94c1.55-.83,8.31-3.88,11.3-5.71s7.53-7.2,7.53-7.2l6.54,6.76-3.66,5.82,11.13,8.64L139,299.39l-3.32-1s-2.16,1.5-2.66,1.83a69.79,69.79,0,0,0-6.15,6.81c-1.16,1.66-1,5-1,5l3.49-.17,5,3,13.46-15.62,15.12-4.32,4,4.49.83,7,8.14-11.3-3.49-2.49v-9.64s4.32-1.33,6.32-2,3.32-3.82,3.32-3.82l1-1.66c1-1.66,1.33-4.15,2.66-5.32a22,22,0,0,1,4.15-2.66c1.5-.83.83-4.15.83-4.15s.5-2.16.66-2.66,6.65-3.82,7.31-4.65,1.83-.33,2.49-.83a43.33,43.33,0,0,0,3.32-4.49l6.81,4.49s12-3.82,13.46-4.49,6.32,0,6.32,0l10.22-9.31,5.48-4.4,12,8.06,9.56-11.22-1.75-8.07s1-2.32,1.66-3.57,1.41-3.07,1.83-3.57,2.83-.08,4.57-1.16,1.11-1.88,1.11-1.88l-.28-1.38-8-2.49a3.17,3.17,0,0,1-.44-1.5c.11-.5.89.11,1.61.11s2.6-6.2,2.6-6.2l6.54-.89,12.91-16.79-2.83-1.66v-1.44l-.78-.66.22-.78-1.11-1.38a23.36,23.36,0,0,1,1.61-2c.17-.06-1.5-4.43-1.55-5s-2.55-2.94-3-3.21-1.16-2.22-1.55-2.71-1.11-1.61-1.11-1.61l2.83-4L273.5,159l5.21-6s-10.36-8.42-11-9.36-2.88-.94-3.16-1.05a20.69,20.69,0,0,1-1.5-1.72,18.11,18.11,0,0,0-3.6-.66c-1.44-.11-.94-1.38-.78-1.72a8.46,8.46,0,0,0,.61-3c-.17-.55-.66-6.59-.66-6.76s1.88-3.66,2.94-4.27,3.27,2.1,3.6,2.1.55-1.94.55-1.94,5.26-.06,5.48-.61,2.16-1.83,2.16-1.83l1-11.85s1.05.28,4.38.94,4.87-.5,4.87-.5l3,.66,2.6-2.94,2,1.72s.44,0,3.93-.28a3.16,3.16,0,0,0,3.27,1.11c.5-.06,4.27,1.66,6,1.72s4.15,2.44,4.15,2.44,1.38-1.33,1.61-1.27a17.32,17.32,0,0,0,3.27-1.11,9,9,0,0,1,2.6-.44l7.42-9.42-.28-3.55,1.55-1.94V94.92s-8.75-1.61-10.53-2.44A2,2,0,0,1,314,89c.44.39,4.1.44,4.1.44l.28-2,1.39,1.44s2.16-.83,3-1.11,1.16.06,1.27-1.11,1.11-.06,1.11-.06l4.32-.89-.39-1.39s.78-1.5.83-1.66.33-2.38.33-2.38l1.72-1.61a6.64,6.64,0,0,1,1.88.55,10.62,10.62,0,0,0,2.49.66l1.11-4.38,4.65-1.44,1.55-7.7S342,62.46,341.52,61.19Z"/><path class="cls-2" d="M134.63,316.68,129,313.29l-4.47.21-.07-1.41c0-.39-.15-3.87,1.25-5.87a65.83,65.83,0,0,1,6.52-7.18c.5-.33,2.64-1.81,2.64-1.81l.56-.39,3,.89,4.32-6.35-11.1-8.61,3.75-6L130.68,272c-1.56,1.74-4.56,4.92-6.85,6.32-2.09,1.28-5.87,3.09-8.62,4.4-1.22.58-2.28,1.09-2.75,1.34a33.15,33.15,0,0,1-4.73,2.06l-.46.1c-3.83.79-5,1.83-5.24,2.57-.17.46-.4,1.11-.67,1.85-2.24,6.33-3.72,10-5.13,11.15-1.6,1.33-6.09,2.45-8,2.87l-1,1.94-11.69-.62.07-1.41c.11-2.29-.16-4.82-.57-5.3-.69-.44-5.17-1.3-8.89-1.81L65,297.25V296a7.46,7.46,0,0,0-2.08-4.43,41.19,41.19,0,0,1-3.74-4.82l-3.44-1.59c-1.37.69-4.64,2.31-5.54,2.71-1.12.51-7.37,2.5-8.35,2.81a38.14,38.14,0,0,1-15.18,2.41l-1.15-.05-.19-1.13c-1.26-7.67-2.21-9.65-3-10.58a8.89,8.89,0,0,0-3.85-2.81,15.93,15.93,0,0,1-3.08-1.47,16.65,16.65,0,0,0-3.89-1.78c-3.06-.76-5.13-2.52-5.38-4.58C6,269.42,5,263.51,5,263.45l-.05-.31,1.77-6.3,9.67,3.43,4.06-1.68-2.83-6.77L19.86,248l.91.11c11.77,1.36,12.17,1.56,12.44,1.69a3.8,3.8,0,0,1,1.26,1.18l1.93-1.68,1.72-7.4,4.95-8.58L38,228.91l-.73-8.13,9.1-1.23L59,207.79l6.48,3.12c3.29-.41,11-1.44,13-2.11a14.71,14.71,0,0,1,6.78-.11l2-.51a19,19,0,0,0,1.18-3.79c0-1.11,2-8.23,3.53-13.39-1.71-.06-4.13-.15-5-.15-1.36,0-5,.32-5.08.33l-2.5.22,1.1-2.25c3.18-6.54,6.67-14,7.33-15.76a3.64,3.64,0,0,1-.07-1.15l-5.08-2.89.44-1.14c1.18-3.07,1.65-4.18,1.86-4.62,0-.45-.05-1.63-.1-2.36s-.09-1.4-.09-1.81a2.91,2.91,0,0,1,.29-1.22c-3.1-.33-3.64-.87-3.87-1.1s-.44-.49-.71-.81-.58-.7-.83-.95a48,48,0,0,1-6.6.51l-1.38.05-.5-7.74,6.17-1.09c-.07-.47-.17-1-.29-1.49-.36-1.46.25-6,.46-7.51l.33-9.19,1.6.27a10.32,10.32,0,0,0,3.76.09,25.61,25.61,0,0,1,3.48-1.13,3.56,3.56,0,0,1,1.49.16,9.84,9.84,0,0,0,1.13.21,2.45,2.45,0,0,1,1.44.25l3.62-3h2.75l5.23-2.4.46-5.64,1-.23a22,22,0,0,1,4.12-.64,14.64,14.64,0,0,1,1.49.22c.29.05.54.1.7.11h0a7.42,7.42,0,0,1,2,.35l.62.17a9.28,9.28,0,0,1,2.49.88,7.91,7.91,0,0,0,1.25.37l.56.15c.34,0,1.7.07,6.82,0h.72a15.59,15.59,0,0,0,2.76-.14,21.09,21.09,0,0,0,3.78-2.26l1.71-1.21.51,2.11a19,19,0,0,0,2.27-.94c.56-.36,2.06-1.15,4.56-2.4a22,22,0,0,0,2.55-2.64l1-1.12,1.08,1a.78.78,0,0,0,1-.09,13.5,13.5,0,0,0,2.71-2.6c.15-.21.61-.81,8-5.74l-.67-1.43.35-.63c3-5.51,3.52-5.79,3.88-6,.16-.09.42-.21.73-.34a7.44,7.44,0,0,0,1.37-.7,6.07,6.07,0,0,1,1.37-1.33,6.59,6.59,0,0,0,1.36-1.3,7.67,7.67,0,0,0,.22-1.44,4.18,4.18,0,0,1,.83-2.69c.29-.29,1-1.25,1.47-1.84l.25-.34.4-.15c1.09-.39,3.69-1.32,4.22-1.43a10.58,10.58,0,0,0,1.68-1A59,59,0,0,1,178.4,78l.48-.46,4.1.5,6-1.17.27,1.34,1.07.11,1.47-1.95.66,0c.38,0,.7,0,1,0,.27-.27.68-.73.94-1,.09-.11.3-.38,4.33-3.89L202.38,68h3l1.11-1.16,4.61-2.5,2.55-.68.28,0a31.53,31.53,0,0,0,5.07.4c.94-.19,2.19-.33,2.66-.39l5-1.89,3.92-.27.25-1.45-.7-1.81,1.09-3.55,2.79-.23,1-2.53,6.59-3.11.66,1.09c.29.49.63,1,.83,1.3.67.18,2,.58,4.85,1.46l.69.21.24.68a7.27,7.27,0,0,0,.67,1.47,7.47,7.47,0,0,0,1.24.6l1.69-.17,2.34-1.1.65.38c.49.29,1,.59,1.28.71a17.23,17.23,0,0,1,2.26.28,2.08,2.08,0,0,1,.78.53c1.16,1.05,1.6,1.17,1.74,1.17h0c.85-.25,5.19-2.26,7.72-3.46l.18-.08.19,0A26.52,26.52,0,0,0,273.4,53c1.26-.51,3.82-1.33,3.93-1.37l.33-.1,3.77.63,2.36-1.59c.79-1.1,2.83-3.75,4.56-4.31a6.82,6.82,0,0,1,3.93,0l.24.08.2.16a33.78,33.78,0,0,0,3.71,2.68c.74,0,2.41.21,3.38.32A12,12,0,0,1,303.32,47a8,8,0,0,1,1.21-.22A2.76,2.76,0,0,1,306.79,45a10.1,10.1,0,0,1,2,.35c.18-.29.4-.66.6-1l.21-.38,4.4-2.23,1.79-2.09,4.53-1,.53,1.37a9.61,9.61,0,0,1,1.71-1.25,33.84,33.84,0,0,1,5.09-1l2.31-.34-.16.45,2.76-.54,2.16-1.49,2.57,1,1.07-3.24h4.26l-.16,1.56c-.49,4.68-1,10-1,10.64s.16,1.74.21,2.17,0,2.23,0,3.23l0,.25a9.53,9.53,0,0,0-.25,1.85l.21.26c.76,1,1.92,2.45,1.11,3.87a6.55,6.55,0,0,0,.16,3.15h0c.42,1.22,2.05,5.08,2.07,5.12l.17.4-1.8,9-4.7,1.45-1.22,4.82-1.24-.16a12.06,12.06,0,0,1-2.87-.77,7.35,7.35,0,0,0-.89-.32l-.81.76a13.63,13.63,0,0,1-.33,2.15,11.9,11.9,0,0,1-.66,1.37l.65,2.31-6.14,1.26a2,2,0,0,1-1.55,1,2.1,2.1,0,0,0-.33.08c-.79.26-2.91,1.08-2.93,1.09l-.88.34h0l0,.34-1.25,0a25.19,25.19,0,0,1-3.54-.24.9.9,0,0,0,0,.15.58.58,0,0,0,.38.43c1.17.55,6.87,1.72,10.18,2.33l1.16.21V98l-1.51,1.89.28,3.54-8.17,10.37-.66,0a7.5,7.5,0,0,0-2,.31,18.65,18.65,0,0,1-3.42,1.18c-.24.18-.72.61-1.07.94l-1,1-1-1c-.8-.8-2.38-2-3.2-2a18.45,18.45,0,0,1-4.72-1.26c-.45-.16-1-.36-1.27-.44a4.29,4.29,0,0,1-3.77-1.08c-2.19.17-3.21.23-3.43.23h-.52l-1.39-1.16L287.13,113l-3.29-.73a8.63,8.63,0,0,1-5.36.39l-2.82-.58L274.74,123l-.58.38a12,12,0,0,0-1.67,1.29c-.28.67-.76,1.23-5.53,1.36-.22,1-.67,2-1.78,2-.65,0-1-.36-1.7-1a11,11,0,0,0-1.4-1.14,18.57,18.57,0,0,0-2,3.09c.09,1.15.47,5.57.6,6.15.29,1-.33,3-.6,3.7a14.06,14.06,0,0,1,3.78.85,3.92,3.92,0,0,1,.84.91c.14.18.36.46.53.66,1,.12,2.87.34,3.7,1.62.53.64,5.85,5.11,10.67,9l1.13.92L276,158.28l9.65,2.82-3.41,4.82c.19.27.38.54.51.71a8,8,0,0,1,.76,1.37,11,11,0,0,0,.6,1.15c.71.57,3.35,2.79,3.48,4.15,0,.22.46,1.43.73,2.23.91,2.65,1,2.93.69,3.56l-.26.53-.23.08-.6.78.89,1.11-.17.61.58.5V184l3.51,2.06-14.24,18.52-6.22.84c-1,3.26-1.74,4.84-2.31,5.61l6.71,2.08.4,2a2.15,2.15,0,0,1,.15,1.26,3.58,3.58,0,0,1-1.86,2.31,8.58,8.58,0,0,1-3.82,1l-.55.06c-.2.36-.49,1-.7,1.41s-.55,1.17-.82,1.68c-.47.87-1.12,2.34-1.43,3l1.8,8.31L259,246.93l-12.15-8.18-4.67,3.75-10.64,9.7-.66-.09c-2.14-.29-4.87-.41-5.55-.11-1.52.68-12.37,4.15-13.6,4.54l-.65.21-6.21-4.09a22.57,22.57,0,0,1-2.86,3.67,3.23,3.23,0,0,1-1.8.56,2.44,2.44,0,0,0-.49.07c-.42.54-1.58,1.24-4.33,2.83-1,.56-2.26,1.31-2.79,1.67-.12.47-.32,1.27-.47,1.92.18,1.15.46,4.22-1.59,5.36L190,269a17.58,17.58,0,0,0-3.33,2.17,6.83,6.83,0,0,0-1.29,2.52,14.59,14.59,0,0,1-1.09,2.46l-.95,1.58c-.3.68-1.76,3.72-4.14,4.52-1.42.47-3.94,1.26-5.35,1.69v7.86l4.05,2.9-11.1,15.41L165.56,300l-3.1-3.49-13.86,4Zm-4.92-6.26L134,313l13-15,16.39-4.68,4.88,5.48.45,3.81,5.18-7.19L171,293.31V281.89l1-.31s4.33-1.33,6.28-2c1-.35,2.13-2.22,2.46-3l.09-.18,1-1.66a12.28,12.28,0,0,0,.86-2,8.58,8.58,0,0,1,2.08-3.67,20,20,0,0,1,3.83-2.52l.57-.31a4.39,4.39,0,0,0,.13-2.64l-.06-.3.07-.3c.09-.37.52-2.25.7-2.79.24-.71.72-1,4-2.9a38.58,38.58,0,0,0,3.62-2.24,3.12,3.12,0,0,1,2.39-1l.36,0c.41-.42,1.84-2.42,3-4.1l.78-1.17,7.43,4.89c4.78-1.53,11.67-3.78,12.67-4.23,1.49-.66,4.76-.39,6.42-.19l9.74-8.87,6.37-5.11,11.78,7.94,8.28-9.72-1.69-7.82.18-.42c0-.1,1-2.39,1.71-3.67.25-.47.51-1,.76-1.55a11.87,11.87,0,0,1,1.23-2.26,3.12,3.12,0,0,1,2.31-.82,6.23,6.23,0,0,0,2.6-.64,2.91,2.91,0,0,0,.47-.35l-.12-.61-7.77-2.41-.28-.5a4,4,0,0,1-.59-2.49,1.64,1.64,0,0,1,.79-1.09,2,2,0,0,1,1.64-.07,45.74,45.74,0,0,0,1.81-5l.26-.87,6.86-.93,11.57-15.05-2.14-1.26V184l-1-.83.27-.95-1.33-1.66.63-.87c.54-.74.92-1.25,1.21-1.62-.15-.47-.38-1.13-.55-1.63a27.54,27.54,0,0,1-.83-2.64,17.07,17.07,0,0,0-2.39-2.4,4.94,4.94,0,0,1-1.46-2.17c-.14-.3-.36-.75-.45-.87-.41-.52-1.09-1.58-1.17-1.69l-.53-.81L281,162.7,271,159.76l5.69-6.6c-4-3.24-9.55-7.88-10.13-8.77a5.57,5.57,0,0,0-1.67-.34,3,3,0,0,1-.83-.16c-.48-.19-.8-.56-1.58-1.56l-.19-.25a21.1,21.1,0,0,0-2.91-.48,2.39,2.39,0,0,1-2-1.16,2.85,2.85,0,0,1,.08-2.61,10.16,10.16,0,0,0,.49-2.08c-.25-1.2-.69-7-.69-7,0-.87,2.34-4.74,3.64-5.49s2.46,0,3.5.81l.09-.82h1.25a34.07,34.07,0,0,0,4.53-.3,8.9,8.9,0,0,1,1.77-1.52l1.08-12.86,1.63.43s1.08.28,4.29.92c2.56.51,3.73-.24,3.78-.27l.5-.33.62.11,2.18.48,3-3.34,2.68,2.25c.5,0,1.48-.1,3.34-.25l.65-.05.46.46c.9.9,1.4.82,1.83.74l.28,0a5.83,5.83,0,0,1,2.39.61,18.1,18.1,0,0,0,3.85,1.1,7.69,7.69,0,0,1,4.1,1.95,2.42,2.42,0,0,1,1.59-.79,23.18,23.18,0,0,0,2.69-1,8.14,8.14,0,0,1,2.48-.54l6.69-8.48L321.84,99l1.59-2V96.1c-2.64-.5-8.17-1.61-9.71-2.33a3.39,3.39,0,0,1-2-3.17,3.18,3.18,0,0,1,1.71-2.9l.83-.37.51.45a16.78,16.78,0,0,0,2.11.2l.5-3.63,2.76,2.87c.71-.27,1.66-.62,2.17-.79l.34-.1a1.81,1.81,0,0,1,1.2-1.53,1.91,1.91,0,0,1,1.67.28l2.16-.44-.13-.46.26-.5s.54-1,.73-1.44.18-1.31.29-2.13l.06-.51,2.55-2.38.62,0a7.9,7.9,0,0,1,2.33.66,7.17,7.17,0,0,0,.89.31l1-3.83L340.85,73l1.3-6.45c-.44-1-1.6-3.82-2-4.89a8.91,8.91,0,0,1-.1-5.17,8.18,8.18,0,0,0-.73-1,7.68,7.68,0,0,1-.49-.67c-.15-.25-.61-1,0-3.68,0-1.09.08-2.38.06-2.65-.06-.44-.17-1.53-.23-2.33,0-.45.18-2.86.43-5.44l0,.08-4-1.62-1.39,1-1.11.22a2,2,0,0,1,0,1.63,3.44,3.44,0,0,1-2.1,1.36,3.58,3.58,0,0,1-3-.38,2.82,2.82,0,0,1-1.19-2c-1.23.21-2.33.41-2.61.51a32.06,32.06,0,0,0-2.46,2.12L319.73,45l-1.15-3-1.23.26L315.82,44l-4.13,2.09c-1,1.69-1.45,2.23-2.3,2.23a4.68,4.68,0,0,1-1-.19c-.28-.07-.81-.19-1.2-.26a4.88,4.88,0,0,0-.38.73l-.36.88h-1a6.58,6.58,0,0,0-1.41.17A20.81,20.81,0,0,0,301.29,52l-.48.46-.66-.07c-1.65-.19-3.57-.38-3.94-.38s-1.14,0-5-3.12a3.94,3.94,0,0,0-2,.06c-.64.21-2.23,2-3.26,3.45l-.15.22-3.73,2.51-4.2-.7c-.73.24-2.49.82-3.39,1.19a27,27,0,0,1-4.26,1c-1.21.58-6.7,3.16-8,3.54-1.78.52-3.53-1-4.33-1.74-.48-.06-1.32-.14-1.51-.14h0c-.26,0-.52,0-1.75-.7l-1.43.67-2.84.28-.3-.11a7.6,7.6,0,0,1-2.68-1.5,6.56,6.56,0,0,1-1-1.73c-1.92-.59-3.87-1.18-4.33-1.29s-1-.42-1.61-1.42l-3.28,1.55-1.22,3.13-2.64.21-.24.77.63,1.62-.75,4.42-5.72.39-5.09,1.89s-1.55.16-2.58.37a27.63,27.63,0,0,1-5.72-.33l-1.83.49-3.76,2.08-1.66,1.72h-3.11l-2.92,2.63c-1.8,1.57-3.8,3.34-4,3.6-1.68,2.11-2.35,2.18-3,2.05h-.27l-1.62,2.14-.78-.07c-3-.25-3.13-.36-3.43-.56a1.55,1.55,0,0,1-.48-.5l-3.84.75-3.22-.39c-1.65,1.57-3.35,3.23-3.6,3.54h0a8.8,8.8,0,0,1-3.34,2.07c-.29.07-1.92.64-3.47,1.19-.35.46-.94,1.23-1.36,1.68a9.56,9.56,0,0,0-.14,1.08,9.14,9.14,0,0,1-.37,2.11,6.51,6.51,0,0,1-2.26,2.57,8,8,0,0,0-.76.66,5.37,5.37,0,0,1-2.64,1.76l-.31.13c-.43.56-1.57,2.5-2.58,4.32l1.1,2.33-1,.68c-3.65,2.44-7.72,5.25-8.34,5.82a16.38,16.38,0,0,1-3.23,3.11,3.58,3.58,0,0,1-3.34.63,13.08,13.08,0,0,1-2.7,2.49c-3.12,1.56-4,2.08-4.3,2.25a30.73,30.73,0,0,1-4.36,1.76l-1.47.5-.27-1.14a11.94,11.94,0,0,1-3.14,1.57,17.91,17.91,0,0,1-3.36.2H124c-6.93.14-7.28,0-7.62-.07l-.5-.13a7,7,0,0,1-2.14-.77,14.57,14.57,0,0,0-1.64-.5l-.79-.22a4.86,4.86,0,0,0-1.16-.2,7.16,7.16,0,0,1-1.18-.16c-.4-.07-.86-.16-1.19-.18a12.28,12.28,0,0,0-2.28.36l-.42,5.21-7.3,3.36H95.41l-4.61,3.85-.92-.85a2.05,2.05,0,0,0-.31-.23,6.9,6.9,0,0,1-2-.27l-.48-.11a24.24,24.24,0,0,0-2.78.93,8.91,8.91,0,0,1-3.73.29l-.24,6.25a36,36,0,0,0-.53,6.49,26,26,0,0,1,.53,3.19l.13,1.31-6.3,1.12.16,2.45a46,46,0,0,0,4.78-.39c1.46-.65,2.68.83,3.57,1.91.15.19.3.36.42.5a25.76,25.76,0,0,0,4.92.58l4,.17-3.17,2.38a4.07,4.07,0,0,0-1.21,1.35c0,.32,0,.93.08,1.58.17,2.63.17,3.25-.21,3.81-.11.21-.69,1.67-1.3,3.24l4.73,2.69-.24,1a5.13,5.13,0,0,0-.11.76c.51.8-.13,2.55-6.45,15.59,1-.07,2.18-.14,2.85-.14,1.45,0,6.7.21,6.93.22l1.82.07-.51,1.74c-1.87,6.35-3.86,13.46-3.93,14.38,0,1.35-1.27,4.54-1.66,5.48l-.27.66-4,1-.35-.08a12.52,12.52,0,0,0-5.6,0c-2.81.92-13.5,2.22-14,2.28l-.41,0-5.49-2.64L47.61,222.24l-7.3,1,.38,4.28,6,5.16-5.91,10.25-1.83,7.89-5,4.34-.9-1.31a16.27,16.27,0,0,0-1.14-1.49c-1.2-.21-6-.81-10.56-1.34l-.61,1,3.38,8.08-7.69,3.19L8.6,260.52l-.78,2.78c.21,1.26,1,5.88,1.12,7.06.07.57,1,1.62,3.26,2.18a19,19,0,0,1,4.6,2.06,14.3,14.3,0,0,0,2.5,1.22,11.57,11.57,0,0,1,5.24,3.73c1.18,1.45,2.17,3.79,3.38,10.76a36.07,36.07,0,0,0,12.87-2.25l.12,0c2.73-.87,7.35-2.37,8.1-2.71,1.07-.48,6-2.94,6-3l.61-.3,5.44,2.51.22.37A36.76,36.76,0,0,0,65,289.69a11,11,0,0,1,2.64,5.07c2.91.42,7.83,1.25,9.15,2.21s1.74,4,1.73,6.29l7.07.38.78-1.5L87,302c2.5-.52,6.46-1.62,7.42-2.42s3.39-7.45,4.27-9.92c.27-.77.51-1.43.68-1.9,1-2.77,4.67-3.81,7.32-4.35l.29-.06a32.23,32.23,0,0,0,4.13-1.82c.53-.28,1.56-.78,2.86-1.4,2.7-1.29,6.4-3.06,8.37-4.27,2.76-1.69,7.15-6.86,7.19-6.91l1-1.2,8.4,8.68-3.56,5.67,11.17,8.67-7,10.27-3.67-1.1-2.12,1.45a76.84,76.84,0,0,0-5.77,6.45,6.08,6.08,0,0,0-.71,2.68ZM200.39,254Zm87.83-74.21h0Zm-3.37-5.93ZM90.3,172.25h0ZM283.94,169l.17.13A.88.88,0,0,0,283.94,169ZM79.07,152.58l0,0Zm183.45-10.43h0Zm-4.58-6.3v0Zm0-.12h0ZM89.8,131.27h0Zm-.3,0Zm220.44-16a1.38,1.38,0,0,0,.64,0A1.84,1.84,0,0,1,309.95,115.3Zm.64-2.76h0Zm-12.22-.09h0ZM173.8,82.7h0Zm.24-.38Zm20-6h0ZM256.38,55.5h0Zm85-2Zm-99-2.4.23,0Zm87.55-9.84Zm-.7-1.6v0a1.7,1.7,0,0,0-.06.9.94.94,0,0,0,.5,0c-.1-.22-.21-.46-.33-.68Zm1.08.64Z"/></svg>