<svg id="Layer_1" data-name="Layer 1" xmlns="http://www.w3.org/2000/svg" viewBox="0 0 350 350"><defs><style>.cls-1{fill:#999;}.cls-2{fill:#f90;}</style></defs><title>M</title><path class="cls-1" d="M317.7,226.17a67.43,67.43,0,0,0-2.19-7.35c-.51-.95-1.71-3.22-2.17-4.21a6.54,6.54,0,0,1-.7-2.86,4.2,4.2,0,0,0-1.52-3.31,2.2,2.2,0,0,0-2-.29.69.69,0,0,1-.92-.45c-.45-.94-.66-1.34-1.49-1.69a4,4,0,0,1-.71-.38c-.23-.15-.28-1.21-.3-1.67a4.06,4.06,0,0,0-.54-2.28l-.26-.35a3.53,3.53,0,0,1-.34-.48.73.73,0,0,1,.12-.25,10.12,10.12,0,0,1,1.13-1.46,9.93,9.93,0,0,0,1.07-1.37c1.15-1.87-.77-4.87-2.6-6.31a1.19,1.19,0,0,1-.57-.81,4.31,4.31,0,0,0-1.69-2.49,13.19,13.19,0,0,1-3.71-4.1v0l.22-.18a8.26,8.26,0,0,0,.78-.67c1.57-1.57,2.91-4,1.52-5.48a5.48,5.48,0,0,1,.11-1.52c.08-.56.17-1.18.22-1.9a6.88,6.88,0,0,0-1.17-4.07c-.12-.2-.27-.47-.3-.53a1.57,1.57,0,0,1,0-.35,1.92,1.92,0,0,0-1.75-2.39,21,21,0,0,0-4.34.26l-.7.08a23.13,23.13,0,0,1-4.94-.46l-.18,0a4,4,0,0,0-4.06.76,7,7,0,0,0-1.93,4.92,3.74,3.74,0,0,0,.89,2.86,3.79,3.79,0,0,1,.13,1.27l0,.11c-.21.47-.28.64-1.06.73a6.63,6.63,0,0,1-1.12,0,3.53,3.53,0,0,0-3.3,1.3,3.45,3.45,0,0,0-.57,4l-.09,0c-1.1.55-3.37,2-4.16,3.69a14.56,14.56,0,0,1-1.74,2.8,5.18,5.18,0,0,1-3,.3.57.57,0,0,1-.08-.22,2,2,0,0,0-1.69-1.64c-.63-.16-1.2-.31-1.65-.46,0-.28,0-.64.07-.89,0-.45.08-.91.08-1.29a68.61,68.61,0,0,1,2.06-7.35c.07-.2.58-1.33,1-2.24.63-1.39,1.07-2.39,1.32-3l.46-.08c.57-.09,1.85-.29,2-1.45a7.47,7.47,0,0,1,.39-.78,1.49,1.49,0,0,0,.62,0c.82-.14,1.14-.81,1.4-1.36.09-.18.19-.41.34-.68.55-1,2.68-5.78,2.92-6.32.58-1.09,1.67-3.56.56-5l0,0c.12-.14.23-.27.32-.39s.46-.71.92-1.44c.86-1.37,2.66-4.22,3.11-4.71a4.92,4.92,0,0,1,.38-.36,3.07,3.07,0,0,0,1.08-3.3c-.29-1.72-1.68-6.62-2.06-7.7a3.69,3.69,0,0,0-1.37-1.84l-.37-.31a2.58,2.58,0,0,0-2.1-2.63l-.1,0c-1.2-2.38-3.79-3.8-4.94-4.44l-.28-.15c-.34-.22-1.89-1.63-2.92-2.56-1.31-1.19-2.14-1.93-2.47-2.17a38.66,38.66,0,0,1-2.29-3.22c-1.52-2.26-1.84-2.72-2.28-3s-1.86-2-2.32-2.5a7.87,7.87,0,0,1-.37-.76,7.76,7.76,0,0,0-.78-1.48,2.74,2.74,0,0,0-1-.8l.26-.35.26-.34.32-5.28h-1.26l-.07-1.44,1.24.93-.44-2.63h.46l.48-.69h1.61l-.07-.41h1.75l.14-.83h2.08V98.87l.19-.25h1.07l.21-.76h.49l.14-.69H268V96a12.14,12.14,0,0,0,3.08-.75,2.52,2.52,0,0,0,1.16-1.39,1.2,1.2,0,0,1,.23-.42,5.19,5.19,0,0,1,1.2-.82c.33-.19.64-.37.91-.56a2.94,2.94,0,0,0,.94-1.11l2.53.51.23-1.16L280,90l0-.24h1.13l.14-.76h1.33l.07-.62h3.74l.38-3.77,1.84-.54.11-.91c0-.09.28-2.26.35-3.32a6.13,6.13,0,0,0-.29-2,6,6,0,0,1-.26-1.53V74.85h-1.39c-.14,0-.36,0-2.35.21l-2.07.2a4.34,4.34,0,0,0-1.17.26,17.12,17.12,0,0,1-2.42.57,4.65,4.65,0,0,0-3.49,1.62c-.24,0-.59,0-.83,0a4.14,4.14,0,0,0-1.73.27,4.08,4.08,0,0,1-1.27,0,25.88,25.88,0,0,0-4.18-.44c-.82.06-5,1.35-7.67,2.19a6.1,6.1,0,0,0-2.33-2.54l-.37-.17-.33-.15c-.07-.15-.19-.46-.25-.63a2.53,2.53,0,0,0-.89-1.36c-2.3,1.46-4.47,3.17-7.35,3.21a1,1,0,0,1-.95-.72c-.11-.57-.24-1.13-.38-1.67a15.41,15.41,0,0,1-2.09-1.23,17.38,17.38,0,0,1-.21-3.27,9.11,9.11,0,0,0-4.45-1c-3.1,0-4.67,1-5.22,4.38-.29,1.75.7,4-.19,5.61-1.64,2.93-7.21,1-9.26-.46-3-2.08-3.31-6.34-1.2-9.23a4,4,0,0,1,3.08-1.8c2.82-.43,4.93-.22,6.68-1.62-.1-1.22-.21-4.07-.29-6.53h1.27V56.22c.14-.48.41-1.38.59-1.82s.86-2.55,1.28-3.85l5,.48.35-.16c1.6-.76,2-1.4,2.13-1.72s.84-1,1.27-1.45,1.06-1.16,1.43-1.62A4.67,4.67,0,0,0,248.7,43c.32-2-.78-5.11-.82-5.22a37.09,37.09,0,0,1-.31-3.7,24.13,24.13,0,0,0-.31-3.47l.09-.23a5.89,5.89,0,0,0,.52-3l-.07-.31a3.26,3.26,0,0,0-.16-.36,2.46,2.46,0,0,0,1.22-.76,3.7,3.7,0,0,0,.45-3.46,1.11,1.11,0,0,1,.29-.16l1.4-.43-2-5.57a12.25,12.25,0,0,1,.94-.9c.31,1.72,1.32,2,2.12,2a1.86,1.86,0,0,0,1.35-.66,2,2,0,0,0,.44-1.25h.09l.1-1.15c.17-1.84-1.25-4.65-1.53-5.19l-.34-.65-.73-.09a9,9,0,0,0-2.53,0,6.64,6.64,0,0,0-4.58,1.47c-.17.12-.42.29-.47.32-.66.21-1.29.81-2.91,2.5a21.27,21.27,0,0,1-3.17,2.93c-1.39.74-5.15,3.93-5.48,4.93l-.11.28a11.22,11.22,0,0,0-.76,2.44,6.55,6.55,0,0,1-1,.66l-.37.2a3.69,3.69,0,0,1-.47.15,7.32,7.32,0,0,0-2,.79,2.62,2.62,0,0,0-1.29,1.3l-.43,0a3,3,0,0,0-2.41,1.27c0-.71,0-1.53,0-2.39,0-.08,0-.21.05-.38.21-1.42.34-2.36-.31-3l-.56-.51-.7.12a2.6,2.6,0,0,0-1.95,1.42h-.1c-1.86,0-6.3,0-7.31.05l-1.1,0c-2.76.07-4,.1-4.24,1.26l-.15.19c-3.36-1.22-5-.61-6.47-.06a7.62,7.62,0,0,1-1.33.41,14.68,14.68,0,0,0-7.39,4.73l-.17.22-.13.5-.14.54c-1.11-.23-2.07-.34-2.85-.42l-.3,0a14.8,14.8,0,0,0-3,.21c-.77.09-1.65.2-2.08.2l-.72,0a7.16,7.16,0,0,1-2.89-.36,2.57,2.57,0,0,0-3.71,2.4c0,.21-.08.42-.14.64s-.33.48-1,.93a11,11,0,0,0-1.56,1.27c-1.85.64-8.43,3.09-9.35,3.75-.57.4-3.88,2.87-5.43,4l-1.7-1.17-.81.66c-2.58,2.11-6.82,5.56-7.22,5.84a1.76,1.76,0,0,1-1.14.42h0a3.57,3.57,0,0,0-.31-.43,2.29,2.29,0,0,0-2.49-.47,4.38,4.38,0,0,1-.53.12,4.38,4.38,0,0,0-2.51,1.08,1.75,1.75,0,0,1-.72.25,5.24,5.24,0,0,0-.95.27,5.17,5.17,0,0,0-3.12-.6,7.17,7.17,0,0,0-2.85.31,7.28,7.28,0,0,0-2.37,2.13,5.43,5.43,0,0,1-1.3,1.19l0,0a5.3,5.3,0,0,0-.72-.45,2.54,2.54,0,0,1-.89-.65,2.26,2.26,0,0,0-2.36-1.39h-.27l-.05,0a3.46,3.46,0,0,0-2.3-.82s0-.08,0-.12a18,18,0,0,0-.27-2.1c0-.23-.08-.45-.11-.66-.27-1.85-2.27-1.84-3.88-1.82H119c-.71,0-2,0-2.26,1.42v0l-.2.05a6.43,6.43,0,0,0-2.9,1.25c-1,.8-1.13,2.5-1.2,4.64,0,.3,0,.54,0,.65a6.59,6.59,0,0,0,0,1.39,12.7,12.7,0,0,1-.13,3.21,27.1,27.1,0,0,0-.17,5.9c0,.52,0,.91,0,1.06s-.06.37-.1.59a6.05,6.05,0,0,0-.15,2.06,2.2,2.2,0,0,0,1.27,1.64c0,.12,0,.28,0,.42v.28a17.45,17.45,0,0,0,.31,2.56c.07.41.13.78.17,1.07.11.92,1.21,4.8,1.55,6l.09.54.55.27,0,0a1.53,1.53,0,0,0-.15.66,16.88,16.88,0,0,1-.46,1.93c0,.15-.1.31-.15.48a15.78,15.78,0,0,0-.72,3c-.06.43-.3.58-2.33.92L111,87l-.62.12-.32.54c-.11.18-.26.43-1,3.4a4.29,4.29,0,0,1-.3.36c-.3-.09-.74-.26-1.06-.38a9.36,9.36,0,0,0-2.52-.7c-1.11,0-2.3.83-2.33,3.14a5.52,5.52,0,0,1-.36.65c-.17.27-.33.55-.47.82a7.55,7.55,0,0,0-.55,2.06c0,.2-.07.4-.11.59l-.51.05a4.88,4.88,0,0,0-1.55.3l-.34-.06c-.26,0-.55-.1-.87-.14l-1.31-.15-.22,1.3a1.6,1.6,0,0,1,0,.21l-.09,0-.34,0c-1,.13-2.41.31-3,1.11a4.19,4.19,0,0,1-.57-.31l-1.24-.8-.73,1.29c-.15.26-.24.47-.32.64v0h0a2.22,2.22,0,0,1-.29-.08,13.15,13.15,0,0,0-2.16-.46,2,2,0,0,0-2.18.89c-.59,1.07.2,2.08.77,2.81l.31.41c.69,1,2.25,1.42,4.54,1.82l.3,0c1.37.45,4.33,1.56,5.9,2.31a8.68,8.68,0,0,0-1.48,2.55,8.22,8.22,0,0,0-.07,2.2c0,.33,0,.8,0,1.09a10,10,0,0,0-.6.83A13.82,13.82,0,0,1,94,117.14c-.41.45-1.08,1.34-1.85,2.36a37,37,0,0,1-3,3.73,3.5,3.5,0,0,1-2.69.91,3.94,3.94,0,0,0-4.09,2.22A4.85,4.85,0,0,1,80.95,125l-.17-.18c-1-.95-7.35-2.76-9.65-2.4a10,10,0,0,1-.95-.47,7.91,7.91,0,0,0-2.61-1l-.3,0L67,121c-1.52.48-1.95.15-2.71-.86L62.66,118l-.82,2.54A3.56,3.56,0,0,1,60,122.34c-.54,0-1.89.09-2.75.09h-.73c-1.3,0-3.26,0-4.47-.1a5,5,0,0,1-2-.65l-1.88-1.25-.28,2.24c-.36,2.87-1.2,9.62-1.2,10.22a1.09,1.09,0,0,1-.69,1,2.11,2.11,0,0,0-1.58,1.32v0a22.66,22.66,0,0,0-4.14.9l-.7.25-.19.72,0,.08-2.49-1.74-.77.44a17.85,17.85,0,0,0-2.45,1.72l-.22.24c-1.66,2.36-1.11,5.87-.82,7.76,0,.32.09.57.1.65a4.27,4.27,0,0,0,.17,1.29,3.88,3.88,0,0,1,.15.91,2.78,2.78,0,0,0-1,2.79l0,.13c.29,1.58,2.08,1.59,3.15,1.6h.63c.4,0,.61.19,1.78,1.35l.35.35.49.05a6.67,6.67,0,0,0,1.61,0c2,1.74,8.75,7.74,10.82,9.17a3.51,3.51,0,0,1,.48.55l-4.77,6.36,9.63,2.94a2.54,2.54,0,0,1-.32.47,8.91,8.91,0,0,1-.77.72c-.55.47-1.39,1.19-.93,2.23a1.46,1.46,0,0,0,1,.83,2.58,2.58,0,0,0,.3.61l0,.06a5.42,5.42,0,0,0-.14.8,2.4,2.4,0,0,0,1.28,2.31,3,3,0,0,1,.26.32,7.83,7.83,0,0,0,.68.8c.2.2.44.4.68.6a5.34,5.34,0,0,1,.75.7c0,.07,0,.15,0,.24a6.36,6.36,0,0,0,1.29,3.1c.91,1.41.74,1.58.13,2.2a7.36,7.36,0,0,0-.64.71l-1.06,1.39,1.25.58a1.37,1.37,0,0,0,0,1l.41.9h.74l.1.09.21.17a3.75,3.75,0,0,0,.19,1.3,4.49,4.49,0,0,0,1.58,1.83l-9.69,12a24,24,0,0,1-2.58,3.14,29.39,29.39,0,0,0-4.78.76l-.55.13-.3.48a37.78,37.78,0,0,0-2.5,4.54c-.06.17-.15.38-.2.51l-.26.1-.79.31L38.18,221l3.59,1.16a58.6,58.6,0,0,1,7.35,3,5.89,5.89,0,0,1,.37,1,9.12,9.12,0,0,0,1,2.18,4.74,4.74,0,0,1,.59,1.66,1.73,1.73,0,0,0,1.07,1.49c.37.12.94.32,3.37-1.1a5,5,0,0,1,1.29-.62l.76-.26a6.12,6.12,0,0,1,1.73-.11,9.22,9.22,0,0,0,2.37-.16,4.62,4.62,0,0,0,3.29-2.45,11.16,11.16,0,0,1,2.83-1.26c.42-.15.79-.28,1.06-.39,1-.43,6.6-2.17,7-2.27l.16,0a13.5,13.5,0,0,1,1.51-.35c.06.12.14.26.21.41l-2.52,2.82-.12.16c-1.4,2.1-.36,4.4,3.46,10.23,2.88,4.41,6.24,15.63,7.85,21,.54,1.81.81,2.7,1,3.11l.35.88h.95c1.13,0,5.48-1.52,6.36-2.93L95,258c2.67,1.7,7.19,4,8.26,3.69a34.78,34.78,0,0,0,5.47-2.85l.23-.2c1.7-1.52,2.37-2.24,2.23-3.2a5.06,5.06,0,0,0-.29-1c-.2-.55-.53-1.47-.93-3,.26,0,.61,0,.83,0a5.57,5.57,0,0,0,1.51-.07l.28-.09.2-.13c.12-.07.53-.25.83-.39,1.53-.67,3-1.3,3-2.67a10,10,0,0,0-.08-1.07,28.92,28.92,0,0,1,3.4-.34,7.27,7.27,0,0,1-.32,2.25l0,.28c-.08,1.78.75,3.12,2,3.3a31.66,31.66,0,0,1,3.81,3.08c-.28.46-.59,1-.79,1.37a3.72,3.72,0,0,0,0,2.85,5.68,5.68,0,0,1,.24,1.13,11.6,11.6,0,0,1-.5,2.6c-.12.47-.24.93-.33,1.34-.45,1.17-.27,2.17.66,3.75l.17.23c1.5,1.65,3.78,1.51,5.18,1.29,0,0,0,.1,0,.15a4.45,4.45,0,0,0,.09.8,3.28,3.28,0,0,1,.07.58,3,3,0,0,0-.49,3.58,27.37,27.37,0,0,0,3.3,3.9,1.51,1.51,0,0,0,.23,1.55,9.53,9.53,0,0,1,1,1.44c.05.33.1.67.13,1l.24,2.77.67-.59c1,6.86-4.86,15.07-4.83,21.73a1.49,1.49,0,0,0,2.22,1.27c1-.66,2.55,1.22,3.56,1.43,2.11.43,3-1.37,5.47-.5,1.33.46,2.46,1.31,3.58,1.59.12.89.22,1.67.23,1.94-.08,1.08,0,5.85,0,7.29l0,1,1,.28s3.3.94,4.6,1.35c-.39,1.72,2.13,3.65,2.16,3.67.74.54.73.73.73.74a7.63,7.63,0,0,0,2.57,5.92l2.26,4.07.14.21a26.93,26.93,0,0,0,4,4l.37.26h.45l.86-.05c1.31-.09,4-.27,5.64-.31l1.42,0-.06-1.42c0-.49-.06-1.72,0-2.63a6.36,6.36,0,0,1,1.12.24l1.59.51.22-1.66s.08-.57.36-1.78a41.22,41.22,0,0,0,7.65-4c.32-.27.73-.57,1.18-.89a15.86,15.86,0,0,0,4.32-4.09c.49-.77.78-.85.78-.85s.16,0,.24.07l.35.1c.8.18,1.28-.12,4.84-2.46,1.65-1.08,3.53-2.31,4.65-2.9,3.09-1.61,6.22-6.93,6.25-7s.5-.79,3.53-2.77c8.32-4.09,18.81-5.72,18.91-5.73L228,304l19.64-26.05,2.59-2.48,5.57-5.63-2.31-2.36c.93-.89,2.11-2,2.63-2.37l.68-.5-.13-.84v0a1.53,1.53,0,0,0,.7-.08,2.05,2.05,0,0,0,1.15-1.89c0-.12,0-.3.07-.43a4.52,4.52,0,0,1,1.1-.55,38.16,38.16,0,0,1,2.39,3.71c.87,1.73,5,3.4,5.48,3.49,1.31.26,3.45-1.17,3.83-1.56a2.66,2.66,0,0,1,.39-.23c.58-.32,1.54-.86,1.54-2a2.58,2.58,0,0,0-.66-1.58l1.09-5.26c1.59-7,1.59-7.37,1.59-7.55a2.14,2.14,0,0,0-.05-.46h.09a2,2,0,0,0,1.46-1.06c1.28-.15,3.89-.62,4.73-2a3,3,0,0,1,2-.74,2.74,2.74,0,0,0,2.13-.51,3.54,3.54,0,0,0,1.36-2.45,5.35,5.35,0,0,1,1.7-2.13,51.46,51.46,0,0,1,7-.34c1.09.15,2.69-.6,6.08-2.35,1-.49,1.85-1,2.34-1.15a8.39,8.39,0,0,0,4.7-4.81c.42-.81,4.09-2.67,7.85-4l1.21-.42Z"/><path class="cls-2" d="M163.65,343.13h-.9l-.73-.52a28,28,0,0,1-4.27-4.24l-.28-.41-2.14-3.86a7.28,7.28,0,0,1-1.92-2.57,7.8,7.8,0,0,1-1-3.76l-.11-.08a7.5,7.5,0,0,1-2.71-3.75c-1.31-.39-3.08-.89-3.51-1l-2.1-.6,0-2.08c0-1.2-.08-6,0-7.32,0-.12,0-.4-.1-.88-.41-.18-.81-.38-1.21-.58a12.37,12.37,0,0,0-1.55-.72,2.67,2.67,0,0,0-2.14.16,5.34,5.34,0,0,1-3.14.39,5.24,5.24,0,0,1-1.83-.94,7.57,7.57,0,0,0-.89-.56,2.73,2.73,0,0,1-2.61,0,2.93,2.93,0,0,1-1.58-2.57c0-3.29,1.26-6.85,2.5-10.3a39.91,39.91,0,0,0,2.34-8.29l-.43.38-.48-5.59c0-.21,0-.43-.08-.64a8.1,8.1,0,0,0-.71-1,2.94,2.94,0,0,1-.66-2,28.64,28.64,0,0,1-3-3.66,4.33,4.33,0,0,1,0-4.3,6.05,6.05,0,0,1-4.67-1.88l-.35-.47a5.46,5.46,0,0,1-.8-4.86c.09-.4.2-.84.32-1.3a12.8,12.8,0,0,0,.45-2.18,5.56,5.56,0,0,0-.18-.79,5.08,5.08,0,0,1,.09-3.92l.23-.41a31.62,31.62,0,0,0-2.51-2c-1.81-.44-3-2.32-2.86-4.71l.09-.57.09-.36-.3,0c-.1,2.17-2.15,3.07-3.81,3.8-.27.12-.55.24-.68.31l-.31.2-.57.18a4.67,4.67,0,0,1-.76.11c.15.45.27.79.36,1a6.15,6.15,0,0,1,.36,1.25c.26,1.81-1,3-2.69,4.45l-.22.2a33.7,33.7,0,0,1-6,3.16c-1.76.51-6.36-2-8.41-3.25a14.8,14.8,0,0,1-6.66,2.63H86.67l-.7-1.78c-.18-.46-.44-1.32-1-3.22-1.6-5.34-4.91-16.42-7.68-20.65-3.9-6-5.41-8.87-3.46-11.8l.11-.15c-1.76.56-4,1.29-4.58,1.52-.29.12-.69.26-1.13.41a17.13,17.13,0,0,0-2.2.87,6,6,0,0,1-4,2.88,10.45,10.45,0,0,1-2.74.2,8,8,0,0,0-1.25,0l-.78.27a3.86,3.86,0,0,0-1,.49c-2.49,1.45-3.55,1.55-4.53,1.22a3.1,3.1,0,0,1-2-2.55,3.56,3.56,0,0,0-.39-1.17,10.42,10.42,0,0,1-1.12-2.51l-.14-.41a71.57,71.57,0,0,0-6.68-2.62l-7.23-2.33,7-2.94.51-.21a38.37,38.37,0,0,1,2.59-4.69l.62-1,1.11-.27a32.58,32.58,0,0,1,4.49-.76,26.34,26.34,0,0,0,2-2.57l8.91-11a4.46,4.46,0,0,1-1-1.52,4.32,4.32,0,0,1-.17-.62h-.65l-.79-1.73a3.21,3.21,0,0,1-.19-.68l-2-.92,2.13-2.79a8.22,8.22,0,0,1,.73-.81c-.06-.11-.15-.26-.29-.47a7.57,7.57,0,0,1-1.47-3.44l-.32-.27c-.28-.23-.55-.46-.78-.69a9.38,9.38,0,0,1-.8-.94l-.08-.11A3.7,3.7,0,0,1,54,179.26c0-.12,0-.24,0-.36a2.85,2.85,0,0,1-1.12-1.28,2.88,2.88,0,0,1,.7-3.3l-9.34-2.85,5.21-7c-2.34-1.78-7.31-6.14-9.88-8.42a7.59,7.59,0,0,1-1.28,0l-1-.11-.7-.7c-.24-.24-.75-.75-1-.95h-.37c-1.16,0-4.1,0-4.59-2.77l0-.09a4,4,0,0,1,.84-3.5l0-.15a5.91,5.91,0,0,1-.21-1.56l0-.19,0-.3c-.32-2.09-.93-6,1.06-8.8l.44-.49a19.13,19.13,0,0,1,2.68-1.88l1.55-.89,1.95,1.36.92-.32a22.05,22.05,0,0,1,3.7-.86,3.66,3.66,0,0,1,1.79-1.3c.09-1.07.49-4.45,1.19-10.09L47,118l3.76,2.5a3.69,3.69,0,0,0,1.38.44c1.21.12,3.38.1,4.31.09h.73c.7,0,1.76,0,2.38-.08a2.05,2.05,0,0,0,.9-.83L62.15,115l3.25,4.28a2.5,2.5,0,0,0,.46.53,3,3,0,0,0,.69-.16l.58-.19.61.08a9.09,9.09,0,0,1,3.1,1.17l.52.27c2.89-.16,9.07,1.6,10.37,2.81l.33.37.09.11a5.28,5.28,0,0,1,4.32-1.55,2.19,2.19,0,0,0,1.8-.63c.4-.35,2.11-2.6,2.75-3.45.79-1,1.48-2,1.93-2.46a12.46,12.46,0,0,0,1-1.38l.36-.52c0-.19,0-.38,0-.55a9.15,9.15,0,0,1,.11-2.61,5.83,5.83,0,0,1,.72-1.6c-1.41-.58-3.09-1.2-4.09-1.54l-.22,0c-2.65-.46-4.48-1-5.46-2.4l-.25-.33c-.65-.83-1.95-2.5-.92-4.39a3.38,3.38,0,0,1,3.56-1.62c.69.1,1.21.2,1.6.29l1.29-2.3,2.18,1.4a6.86,6.86,0,0,1,2.38-.72l.3-1.81,2.64.29c.35,0,.66.09.94.14a5.72,5.72,0,0,1,1-.19,7.39,7.39,0,0,1,.59-2c.16-.31.35-.63.54-.93l.16-.27c.16-2.89,2-4.18,3.73-4.18a9.41,9.41,0,0,1,2.78.7,9.3,9.3,0,0,1,.87-2.7l.65-1.09,1.24-.23,1.07-.19c.61-.1,1-.18,1.25-.24a16.86,16.86,0,0,1,.69-2.74c.05-.17.1-.3.14-.44.18-.62.3-1.13.37-1.42l-.25-.13-.19-1.17c-.66-2.31-1.46-5.22-1.57-6.11,0-.27-.09-.62-.16-1a18.87,18.87,0,0,1-.33-2.73,3.5,3.5,0,0,1-1.25-2.15,7.17,7.17,0,0,1,.15-2.57l0-.1c0-.14.05-.27.06-.37s0-.27,0-.58v-.3a27.88,27.88,0,0,1,.2-6.27,11.71,11.71,0,0,0,.1-2.82,7.48,7.48,0,0,1,0-1.72h0a1.68,1.68,0,0,1,0-.24v-.21c.08-2.5.25-4.52,1.73-5.7a6.91,6.91,0,0,1,2.89-1.37c.53-1.11,1.66-1.68,3.38-1.68h.5c1.56,0,4.84-.05,5.29,3,0,.2.06.4.1.62.06.38.13.79.19,1.22a4.53,4.53,0,0,1,1.52.7,3.58,3.58,0,0,1,3.33,2l.37.21a2.74,2.74,0,0,0,.26-.29,8.4,8.4,0,0,1,3-2.61,8.3,8.3,0,0,1,3.38-.41,7.59,7.59,0,0,1,3.27.47l.5-.12.24-.05A5.72,5.72,0,0,1,144,46.87l.34-.07a3.78,3.78,0,0,1,3.67.59c.74-.58,4-3.23,7-5.68l1.63-1.33,1.74,1.19c1.59-1.19,4.14-3.08,4.64-3.44,1.17-.84,7.89-3.28,9.41-3.83a13.09,13.09,0,0,1,1.52-1.2l.46-.34.07-.33a4.39,4.39,0,0,1,1.93-3.27,4.28,4.28,0,0,1,3.6-.22,5.77,5.77,0,0,0,2.41.3l.77,0c.34,0,1.29-.11,1.91-.19a14.93,14.93,0,0,1,3.35-.2l.28,0c.5.06,1,.12,1.65.21v0l.34-.45c1.33-1.78,5-4.68,8.26-5.27a6.49,6.49,0,0,0,1.08-.34,8.85,8.85,0,0,1,6.28-.33c.9-1.06,2.73-1.1,5-1.16l1.06,0c.91,0,4.34-.05,6.7-.05a4.08,4.08,0,0,1,2.5-1.41l1.38-.23,1.07,1c1.2,1.17,1,2.66.76,4.23a3.58,3.58,0,0,1,.64-.09,5.08,5.08,0,0,1,1.32-1.05,8.66,8.66,0,0,1,2.32-.94l.25-.07.29-.16.45-.25a16.11,16.11,0,0,1,.73-2.13l.09-.23c.53-1.61,4.88-5,6.15-5.71a24.89,24.89,0,0,0,2.82-2.66c1.63-1.69,2.39-2.45,3.32-2.8l.28-.19a8,8,0,0,1,5.34-1.74,11.15,11.15,0,0,1,2.75,0l1.47.17.69,1.32c.45.85,1.89,3.79,1.69,6l-.21,2.31-.24,0a3.23,3.23,0,0,1-.51.85,3.3,3.3,0,0,1-2.34,1.16,3.6,3.6,0,0,1-.75,0l1.45,4-1.93.59a4.46,4.46,0,0,1-1,3.46,3.78,3.78,0,0,1-.62.58,7.14,7.14,0,0,1-.57,3.33c.1.63.16,1.54.25,3.25,0,.8.16,2.89.26,3.38a14.46,14.46,0,0,1,.85,5.84A6,6,0,0,1,248.4,47c-.39.48-.95,1.09-1.49,1.69-.22.25-.86.94-1.1,1.23a5.53,5.53,0,0,1-2.74,2.27l-.7.33-4.24-.41c-.4,1.22-.8,2.45-1,2.86s-.33.95-.49,1.49v5.65h-1.22c.07,2,.16,4,.24,5l.06.75-.59.47c-1.62,1.3-3.45,1.48-5.37,1.68-.62.06-1.27.13-2,.23a2.63,2.63,0,0,0-2.15,1.23,5.6,5.6,0,0,0-1,4.19,4.58,4.58,0,0,0,1.87,3c1.38,1,4.38,2,6.16,1.64a1.45,1.45,0,0,0,1.05-.71,4.66,4.66,0,0,0,.09-2.47,9.64,9.64,0,0,1-.06-2.68c.63-3.86,2.61-5.52,6.6-5.56A10.1,10.1,0,0,1,245.52,70l.74.4v.85c0,1.07,0,1.93.1,2.44.37.23.89.53,1.42.79l.58.29.16.62c.11.43.22.87.31,1.32,1.93-.15,3.57-1.23,5.31-2.37l.92-.6.75-.48.75.46A3.84,3.84,0,0,1,258,75.82l0,.07.18.08a6.23,6.23,0,0,1,2.36,2.15c5.9-1.84,6.65-1.9,6.94-1.92a26.91,26.91,0,0,1,4.54.46,4.46,4.46,0,0,0,.58,0,5.75,5.75,0,0,1,2.12-.33H275a6.31,6.31,0,0,1,4.17-1.66,19.35,19.35,0,0,0,2-.51,5.32,5.32,0,0,1,1.58-.32l1.93-.19c2.12-.21,2.27-.22,2.49-.22H290v2.81a4.86,4.86,0,0,0,.22,1.17,7.5,7.5,0,0,1,.33,2.47c-.08,1.14-.36,3.39-.36,3.41l-.23,1.82-1.82.54-.41,4.1h-3.76l-.07.62h-1.41l-.14.76h-1.08l-1.7.37-.33,1.64-3-.6a4.14,4.14,0,0,1-.77.7c-.3.21-.65.41-1,.62a7.48,7.48,0,0,0-.81.5l0,0a4,4,0,0,1-1.79,2.09,7.82,7.82,0,0,1-2.35.71v1.37h-1.75l-.14.69H267l-.21.76h-.93v3.38h-2.29l-.14.83h-1.28l.07.41H259.7l-.1.14.14.86H260L260,107l.46,2.79-.61-.45-.21,3.35a3.46,3.46,0,0,1,.25.29,8.85,8.85,0,0,1,.93,1.73c.08.19.18.41.25.55.52.62,1.63,1.84,2,2.17.67.43,1.14,1.12,2.61,3.32.48.71,1.7,2.52,2.06,2.95s1.11.95,2.47,2.19c.6.54,2.42,2.2,2.75,2.44l.12.06a13.63,13.63,0,0,1,5.29,4.56,3.85,3.85,0,0,1,2.58,3.11,5,5,0,0,1,1.7,2.38c.4,1.15,1.82,6.13,2.12,7.94a4.44,4.44,0,0,1-1.54,4.6,3.73,3.73,0,0,0-.27.26c-.38.43-2.29,3.45-2.92,4.44l-.85,1.33c.66,1.92-.27,4.22-1,5.54-.05.13-2.33,5.2-2.92,6.33-.11.21-.2.39-.27.54l0,.09a3.37,3.37,0,0,1-2.37,2.13,3.18,3.18,0,0,1-2.77,2.17l-1,2.29c-.39.86-.87,1.93-1,2.15-.69,2.07-1.91,6.24-2,6.92,0,.29,0,.67-.06,1.08l.49.12a3.44,3.44,0,0,1,2.48,1.92,4.69,4.69,0,0,0,1.11-.16,15.56,15.56,0,0,0,1.33-2.23,10.28,10.28,0,0,1,3.81-3.79,5,5,0,0,1,1.2-4.26,4.91,4.91,0,0,1,4.43-1.81,6.36,6.36,0,0,0,.76,0v0a5.41,5.41,0,0,1-1-3.53,8.27,8.27,0,0,1,2.42-6,5.4,5.4,0,0,1,5.27-1.08l.2,0a22.73,22.73,0,0,0,4.48.44l.7-.08a21.33,21.33,0,0,1,4.71-.25,3.31,3.31,0,0,1,3,3.82l.07.12a8.25,8.25,0,0,1,1.37,4.9c0,.75-.14,1.39-.22,2,0,.21-.09.6-.12.87,1.23,1.87.52,4.54-1.93,7l-.16.15a18.33,18.33,0,0,0,2.78,2.72,5.68,5.68,0,0,1,2.17,3.22h0l.08.06c2.22,1.76,4.6,5.45,2.93,8.17a11.21,11.21,0,0,1-1.21,1.56c-.21.24-.42.47-.61.71l0,.06a5.27,5.27,0,0,1,.81,3c0,.36,0,.61.05.77l.09,0a3.63,3.63,0,0,1,2,2,3.65,3.65,0,0,1,2.63.61,5.6,5.6,0,0,1,2.13,4.42,5.14,5.14,0,0,0,.57,2.32c.45,1,1.66,3.24,2.14,4.14a59.36,59.36,0,0,1,2.32,7.67l.65,2.5-2.44.85a28.41,28.41,0,0,0-7.07,3.35,9.78,9.78,0,0,1-5.42,5.42c-.43.18-1.39.67-2.23,1.1-3.57,1.84-5.36,2.72-6.93,2.5a57.63,57.63,0,0,0-6.25.28,5.83,5.83,0,0,0-.9,1.09,4.91,4.91,0,0,1-1.91,3.29,4.16,4.16,0,0,1-3.13.77,2.77,2.77,0,0,0-.76.23c-1,1.49-3.18,2.15-5,2.43a3.39,3.39,0,0,1-.93.78c-.12.73-.48,2.47-1.56,7.28l-1,4.64a3.62,3.62,0,0,1,.56,1.89,3.7,3.7,0,0,1-2.27,3.2l-.2.11c-.64.54-3,2.21-5,1.83-.4-.08-5.26-1.81-6.48-4.25-.47-.8-.86-1.43-1.18-1.93a2.94,2.94,0,0,1-1.36,1.6l.07.43-1.37,1c-.13.09-.5.39-1.45,1.27l2.28,2.32-6.55,6.63-2.53,2.43-19.93,26.43-1.16.16c-.09,0-10.33,1.62-18.41,5.56a15.54,15.54,0,0,0-3,2.29c-.49.83-3.56,5.81-6.79,7.49-1.06.55-2.9,1.76-4.52,2.82-3.69,2.42-4.46,2.93-5.77,2.69l0,0a17,17,0,0,1-4.69,4.48l-.08.06c-.38.28-.74.53-1,.77a41,41,0,0,1-7.34,4c-.12.56-.16.86-.17.91l-.44,3.36-2.47-.79c0,.29,0,.55,0,.74l.13,2.87-2.87.07c-1.56,0-4.25.22-5.55.31Zm-3.67-6.5a24.89,24.89,0,0,0,3.67,3.67l.76,0c1.34-.09,4.06-.27,5.68-.31,0-.55-.06-1.78,0-2.7l0-1.55,1.54.18a7.86,7.86,0,0,1,1.37.29c.06-.46.25-1.36.38-1.89l.17-.74.71-.27a41.09,41.09,0,0,0,7.23-3.76c.32-.27.73-.57,1.18-.89l.08-.06a14.78,14.78,0,0,0,4-3.7,3.14,3.14,0,0,1,1.54-1.44,1.61,1.61,0,0,1,1.13.07l.2.06a23.35,23.35,0,0,0,3.76-2.26c1.68-1.1,3.59-2.35,4.77-3,2.29-1.19,4.93-5.14,5.67-6.43.1-.21.48-1,4-3.26l.15-.09c8.46-4.15,18.87-5.79,19.33-5.86l19.44-25.75,2.59-2.48,4.57-4.62-2.34-2.39,1-1c1.36-1.3,2.29-2.13,2.76-2.48l-.29-1.84,1.86.19c.17,0,.23-.49.27-.76s.05-.35.08-.5l.1-.51.4-.32a5.86,5.86,0,0,1,1.53-.79l1-.33.62.8a37.9,37.9,0,0,1,2.49,3.86c.54,1.07,3.72,2.59,4.59,2.83a5.8,5.8,0,0,0,2.5-1.19l.09-.08A3.27,3.27,0,0,1,271,265c.6-.33.89-.54.89-.77a1.29,1.29,0,0,0-.34-.68l-.42-.52,1.23-5.92c1.31-5.82,1.54-7.06,1.56-7.29a.8.8,0,0,0,0-.13l-.37-1.67,1.71-.06c.11,0,.23-.14.39-.4L276,247l.67-.08c2.14-.25,3.39-.85,3.68-1.33a4.14,4.14,0,0,1,3.49-1.41,1.32,1.32,0,0,0,1-.25,2.14,2.14,0,0,0,.79-1.49,6.23,6.23,0,0,1,2.37-3.16l.21-.13.24,0a50.71,50.71,0,0,1,7.51-.36c.76.12,3.14-1.12,5.25-2.21,1-.5,1.9-1,2.46-1.21a7,7,0,0,0,3.92-4l.07-.15c1-2,8.1-4.47,8.62-4.66a60.2,60.2,0,0,0-2.06-7c-.51-1-1.73-3.26-2.21-4.28a8,8,0,0,1-.83-3.39,2.91,2.91,0,0,0-.91-2.21.78.78,0,0,0-.72-.12,2.09,2.09,0,0,1-2.65-1.19c-.4-.84-.43-.85-.76-1a5.32,5.32,0,0,1-.93-.5c-.78-.54-.88-1.49-.94-2.79a3.22,3.22,0,0,0-.27-1.51l-.24-.31a2.92,2.92,0,0,1-.57-.91l-.07-.21v-.22a1.91,1.91,0,0,1,.32-1,11.41,11.41,0,0,1,1.29-1.66,8.8,8.8,0,0,0,.92-1.17c.55-.89-.6-3.14-2.27-4.46a2.54,2.54,0,0,1-1.06-1.55,2.92,2.92,0,0,0-1.22-1.76c-2.16-1.76-3.71-3.52-4.15-4.7l-.34-.93,1-.85a7.46,7.46,0,0,0,.69-.59c1.19-1.19,2.11-2.83,1.48-3.53l-.17-.19-.09-.23a4.37,4.37,0,0,1,0-2.26c.08-.56.17-1.15.21-1.79a5.51,5.51,0,0,0-1-3.27c-.17-.29-.35-.63-.38-.7l-.09-.33a2.61,2.61,0,0,1,0-.73c.08-.67-.09-.75-.54-.82a21.92,21.92,0,0,0-4,.26l-.71.08a24.43,24.43,0,0,1-5.4-.48l-.19,0c-1.16-.25-1.86-.39-2.83.45a5.62,5.62,0,0,0-1.44,3.85,2.45,2.45,0,0,0,.46,1.84l.25.24.11.33a4.85,4.85,0,0,1,.16,2l-.13.36a2.32,2.32,0,0,1-2.18,1.56,7.87,7.87,0,0,1-1.36,0,2.16,2.16,0,0,0-2.15.79,2.06,2.06,0,0,0-.38,2.48l.62,1.25-1.34.69a8.75,8.75,0,0,0-3.51,3,15.59,15.59,0,0,1-2,3.19l-.22.19a6.43,6.43,0,0,1-4.14.51l-.58-.13-.31-.51a2,2,0,0,1-.26-.67c-.06-.28-.08-.41-.65-.55s-1.26-.32-1.76-.49l-1-.34,0-1c0-.27,0-.62.06-.89,0-.49.08-.9.08-1.25,0-1.37,2.11-7.73,2.13-7.79.09-.26.4-.93,1-2.37s1.06-2.36,1.3-2.94l.29-.7.74-.15.53-.09a1.82,1.82,0,0,0,.81-.24l.06-.32a8.67,8.67,0,0,1,.47-1l.53-1,1.06.27c.12,0,.24-.27.38-.57l0-.09c.09-.18.19-.4.33-.65.46-.86,2.23-4.79,2.88-6.23.86-1.63,1.14-3,.72-3.59l-.67-.89.77-.95c.09-.1.17-.2.23-.28s.43-.67.87-1.37a58.29,58.29,0,0,1,3.26-4.91c.15-.17.3-.29.43-.41.56-.49.89-.78.67-2.06-.27-1.61-1.64-6.44-2-7.47a2.33,2.33,0,0,0-.93-1.21l-.4-.33-.49-.43v-.65c0-.8-.3-1-1.16-1.3l-.53-.19-.35-.54c-1-2-3.35-3.28-4.36-3.83l-.31-.17a39.21,39.21,0,0,1-3.15-2.74c-1-.87-2.05-1.86-2.34-2.07l-.14-.11a26.49,26.49,0,0,1-2.5-3.46,24.42,24.42,0,0,0-1.81-2.53l-.2-.14a35.55,35.55,0,0,1-2.51-2.69l-.08-.11a6.37,6.37,0,0,1-.49-1,7.07,7.07,0,0,0-.62-1.21,1.36,1.36,0,0,0-.51-.38l-1.51-.74,1-1.37.27-.37.21-3.35h-1.1l-.28-5.8.82.61-.13-.8h1.39l.48-.69h.67l-.07-.41H261l.14-.83H263v-2.2l.91-1.18h.68l.21-.76h.41l.14-.69h1.24v-.95l1.2-.19a10.17,10.17,0,0,0,2.61-.59,1.14,1.14,0,0,0,.54-.69,2.52,2.52,0,0,1,.5-.83A6.05,6.05,0,0,1,273,91.41c.28-.16.56-.32.79-.48a1.52,1.52,0,0,0,.49-.59l.49-1,2.2.44.14-.68,1.59-.35.07-.49H280l.14-.76h1.24l.07-.62h3.73l.34-3.45,1.86-.55c0-.2.28-2.24.34-3.23a4.92,4.92,0,0,0-.24-1.56,7.28,7.28,0,0,1-.31-1.86l-2.18.21-2.11.21a4.93,4.93,0,0,0-.88.21,12.74,12.74,0,0,1-2.81.62,3.28,3.28,0,0,0-2.35,1l-.36.5-.61.07c-.27,0-.69,0-1,.05a3.9,3.9,0,0,0-1.12.12l-.16.07a5.22,5.22,0,0,1-2,.09,22.78,22.78,0,0,0-3.83-.42,68.3,68.3,0,0,0-7.34,2.12l-1.1.35-.56-1a4.78,4.78,0,0,0-1.7-2l-.45-.21-.31-.15-.41-.22-.2-.42c-.07-.15-.18-.44-.26-.64-2,1.33-4.14,2.64-6.93,2.67a2.41,2.41,0,0,1-2.36-1.88c-.06-.33-.13-.66-.21-1a14,14,0,0,1-1.74-1.08l-.37-.29-.12-.46a14.47,14.47,0,0,1-.25-2.72,8.89,8.89,0,0,0-3-.46c-2.6,0-3.43.71-3.83,3.19a7.61,7.61,0,0,0,.08,1.89,6.69,6.69,0,0,1-.43,4.18,4.29,4.29,0,0,1-2.89,2.09c-2.82.65-6.62-.82-8.42-2.07a7.38,7.38,0,0,1-3-4.9,8.44,8.44,0,0,1,1.52-6.33,5.39,5.39,0,0,1,4-2.36c.75-.12,1.46-.19,2.12-.25a9.33,9.33,0,0,0,3.3-.69c-.11-1.83-.21-4.78-.24-5.76l0-1.46h1.32V56l.06-.19c.06-.22.4-1.36.63-1.95.14-.35.62-1.79,1.25-3.76l.35-1.09,5.74.55c1.23-.58,1.41-1,1.41-1l.16-.3c.21-.29.66-.8,1.38-1.58.5-.55,1-1.12,1.38-1.56a3.4,3.4,0,0,0,1.1-2.4,12,12,0,0,0-.75-4.52,23.37,23.37,0,0,1-.39-4.1,27.39,27.39,0,0,0-.27-3.2l-.11-.43.26-.66a4.59,4.59,0,0,0,.44-2.26l0-.13-.06-.14-.8-1.54,1.67-.47a1,1,0,0,0,.53-.33,2.61,2.61,0,0,0,.15-2.18l-.22-.87.69-.57a2.55,2.55,0,0,1,.72-.4h0l-1.8-5,.6-.63a13.67,13.67,0,0,1,1-1l1.87-1.59.44,2.42c.15.85.41.83.64.82a.45.45,0,0,0,.35-.15.56.56,0,0,0,.11-.38l0-1.24.16,0a10.47,10.47,0,0,0-1.37-4.38,7.74,7.74,0,0,0-2.11,0l-.19,0-.19,0A5.31,5.31,0,0,0,245.12,11a5.05,5.05,0,0,1-.67.43l-.18.07a11.64,11.64,0,0,0-2.32,2.13,19.41,19.41,0,0,1-3.53,3.2A21.88,21.88,0,0,0,233.59,21s-.06.15-.12.31a10.36,10.36,0,0,0-.67,2.09l-.07.49-.36.34a6.8,6.8,0,0,1-1.35.88l-.31.17a3.44,3.44,0,0,1-.84.3,5.9,5.9,0,0,0-1.6.64c-.37.22-.63.4-.68.56l-.39,1.1L226,27.75l-.33,0c-.13,0-.52,0-1.23.78l-2.41,2.77L222,27.59c0-.72,0-1.55,0-2.42V25c0-.08,0-.23.05-.41a5,5,0,0,0,.1-1.83h0a1.2,1.2,0,0,0-.89.6l-.27.6-.82.24h-.3c-1.85,0-6.27,0-7.25.05l-1.13,0a16.32,16.32,0,0,0-2.9.21l0,.2-.2.28-.18.23-.64.79-1-.35c-2.86-1-4.13-.57-5.48-.06a8.84,8.84,0,0,1-1.58.48,13.41,13.41,0,0,0-6.5,4.18l-.55,2.06-1.3-.26c-1-.21-2-.32-2.69-.4l-.34,0a15.72,15.72,0,0,0-2.67.2c-1,.12-1.77.21-2.25.21l-.66,0a8.49,8.49,0,0,1-3.38-.43,1.8,1.8,0,0,0-1.29,0c-.35.21-.45.65-.59,1.35,0,.24-.09.49-.16.74a3.22,3.22,0,0,1-1.52,1.73,9.67,9.67,0,0,0-1.37,1.11l-.23.23-.31.11c-2.58.9-8.26,3.07-9,3.57-.52.37-3.59,2.65-5.41,4l-.81.61-1.66-1.14c-.42.35-6.71,5.48-7.27,5.88a3.15,3.15,0,0,1-1.87.68l-.82.06-.49-.73a2.11,2.11,0,0,0-.18-.26c-.13-.16-.35-.21-1,0a5.85,5.85,0,0,1-.69.15,3,3,0,0,0-1.8.75,2.88,2.88,0,0,1-1.34.56,4.1,4.1,0,0,0-.7.2l-.71.3-.64-.44a4.06,4.06,0,0,0-2.32-.35,6.08,6.08,0,0,0-2.32.21,5.81,5.81,0,0,0-1.75,1.64,6.76,6.76,0,0,1-1.75,1.6l-.83.47-.75-.6a4.07,4.07,0,0,0-.54-.33,3.18,3.18,0,0,1-1.5-1.29c-.27-.57-.55-.59-1-.57H126l-.42,0-.46-.36a2,2,0,0,0-1.42-.47l-1.37,0V49.53a16.43,16.43,0,0,0-.25-2c0-.26-.08-.49-.12-.71-.06-.42-.44-.61-2.46-.6H119a2.23,2.23,0,0,0-.83.1,1.1,1.1,0,0,0,0,.13l0,.25-.28.44-.29.35-.64.17a5.14,5.14,0,0,0-2.38,1c-.57.46-.63,2.41-.67,3.57v.2c0,.26,0,.47,0,.58a6,6,0,0,0,0,1.14,13.88,13.88,0,0,1-.16,3.6,27,27,0,0,0-.13,5.53v.29c0,.43,0,.75,0,.89s-.06.45-.1.68l0,.1a5.32,5.32,0,0,0-.15,1.55.81.81,0,0,0,.54.64l.73.38,0,.83c0,.14,0,.32,0,.47v.28a17,17,0,0,0,.29,2.32c.07.43.14.83.18,1.14.06.53.65,2.78,1.5,5.73l.22.16.83.7-.46,1v.06l0,.11a18.69,18.69,0,0,1-.51,2.21c0,.17-.11.35-.17.54a14.29,14.29,0,0,0-.66,2.77c-.22,1.57-1.6,1.8-3.5,2.12l-1,.18a26.15,26.15,0,0,0-.81,3l-.07.27-.16.23a6.08,6.08,0,0,1-.4.49l-.61.66-.86-.27c-.32-.1-.79-.28-1.14-.4a8.69,8.69,0,0,0-2.1-.61c-.73,0-.83,1.21-.83,1.74v.25l-.09.24a5.7,5.7,0,0,1-.47.86c-.16.26-.31.5-.43.74a6.69,6.69,0,0,0-.41,1.66l0,.17c0,.16-.05.32-.08.47l-.2,1-1,.13-.5.05a4.55,4.55,0,0,0-1.14.18l-.37.17-.4,0-.33-.06-.1,0c-.22,0-.47-.09-.75-.12a2.83,2.83,0,0,1-.08.37l-.22.73-1,.27-.27,0-.12,0c-.56.07-1.85.23-2.12.58l-.68.87-1-.45a5.67,5.67,0,0,1-.74-.4c-.11.2-.19.37-.25.51l-.22.49-.88.4-.44,0a2.81,2.81,0,0,1-.43-.11,11.7,11.7,0,0,0-2-.44c-.19,0-.64,0-.75.17s.25.75.64,1.25l.35.46c.44.62,2.21,1,3.26,1.18l.1-.09.77.25c1.46.48,4.48,1.62,6.06,2.37l1.55.74-1,1.38a9.05,9.05,0,0,0-1.25,2.06,8,8,0,0,0,0,1.79c0,.37,0,.87,0,1.18v.5l-.32.38a8.29,8.29,0,0,0-.5.71,15.16,15.16,0,0,1-1.29,1.71c-.37.41-1.05,1.31-1.77,2.26a28.17,28.17,0,0,1-3.31,4,4.89,4.89,0,0,1-3.6,1.2,2.6,2.6,0,0,0-2.84,1.56l-.68,1.08-1.14-.56a6.07,6.07,0,0,1-1.88-1.73l-.06-.07c-.89-.66-6.5-2.32-8.44-2l-.36.06-.34-.12a10.21,10.21,0,0,1-1.13-.55,7,7,0,0,0-2.11-.86A3.3,3.3,0,0,1,63.17,121a5,5,0,0,1-2.63,2.6l-.25.11H60c-.55,0-1.93.09-2.82.09h-.72c-1.6,0-3.41,0-4.62-.11a6,6,0,0,1-2.62-.87c-.71,5.61-1.17,9.55-1.19,10a2.45,2.45,0,0,1-1.43,2.19l-.32.13c-.41.11-.55.28-.59.42l-.29.82-.87.13a21.51,21.51,0,0,0-3.85.83l-.06.19L40,139.33,36.76,137a16.57,16.57,0,0,0-2.15,1.49l-.1.11c-1.27,1.9-.79,5-.53,6.67l0,.28c0,.22.06.39.07.46v.23a3.2,3.2,0,0,0,.13.85,3.25,3.25,0,0,1,.15,1.61l-.09.35-.25.26c-.74.79-.68,1.09-.59,1.54l0,.12c.06.34.56.46,1.77.46h.7c1,.05,1.53.59,2.7,1.76a5.3,5.3,0,0,0,1.24,0l.65-.09.49.44c2,1.78,8.7,7.69,10.69,9.06l.17.14a4.89,4.89,0,0,1,.68.78l.58.84L49,169.93l9.36,2.86-.84,1.53a3.92,3.92,0,0,1-.52.74,9.92,9.92,0,0,1-.9.84,2.58,2.58,0,0,0-.57.59l.79.17.32.76a1.2,1.2,0,0,0,.13.28l.32.48-.13.69a4,4,0,0,0-.11.61c0,.43.13.69.61,1l.24.19a3.44,3.44,0,0,1,.34.4,7.32,7.32,0,0,0,.61.73c.17.17.37.33.58.51a6.45,6.45,0,0,1,1,.9l.21.25.07.32a3,3,0,0,1,.05.3,5,5,0,0,0,1,2.52c1.08,1.68,1.34,2.68,0,4a5.92,5.92,0,0,0-.5.54l.83.38-.44,1.21h.33l1.22,1v.68a2.44,2.44,0,0,0,.11.83,3,3,0,0,0,1.1,1.17l1.17.88L54.74,210.47A25,25,0,0,1,52,213.75l-.39.36-.53,0a27.24,27.24,0,0,0-4.49.72,33.85,33.85,0,0,0-2.37,4.29c-.08.2-.16.42-.23.57l-.23.54-.82.32-.69.27A57.33,57.33,0,0,1,49.92,224l.23.16.15.24a5.72,5.72,0,0,1,.52,1.26,8,8,0,0,0,.81,1.88,6.07,6.07,0,0,1,.79,2.14,1.62,1.62,0,0,0,.13.45s.52,0,2.2-1a6.38,6.38,0,0,1,1.57-.74l.71-.24a6.51,6.51,0,0,1,2.25-.19,8.19,8.19,0,0,0,2-.12,3.22,3.22,0,0,0,2.38-1.73l.19-.28c.44-.51,1.27-.91,3.42-1.66.4-.14.75-.26,1-.36,1.1-.45,6.72-2.21,7.11-2.32l.18,0a15.27,15.27,0,0,1,1.67-.38l1-.14.48.86c.08.14.17.32.25.5l.39.84-3.15,3.52c-.81,1.23-.39,2.74,3.48,8.66,3,4.57,6.39,15.92,8,21.38.47,1.58.78,2.62.93,3,1,0,4.65-1.48,5.14-2.27l.82-1.29,1.2.76c2.87,1.82,6.26,3.4,7.18,3.5a37.75,37.75,0,0,0,4.83-2.5l.23-.21c.64-.58,1.83-1.64,1.78-1.95a4.25,4.25,0,0,0-.21-.66c-.21-.6-.56-1.55-1-3.1l-.46-1.71,1.77-.07c.28,0,.64,0,.89,0a5.6,5.6,0,0,0,1.13,0l.08,0a8.3,8.3,0,0,1,1-.48c1-.44,2.17-1,2.17-1.39a8.55,8.55,0,0,0-.07-.9l-.16-1.37,1.37-.2a31,31,0,0,1,3.6-.35h1.32l.1,1.3a8.67,8.67,0,0,1-.35,2.64l0,.13c0,1,.36,1.7.75,1.76l.23,0,.21.1a33.66,33.66,0,0,1,4.11,3.29l.87.78-.6,1c-.26.44-.56.94-.75,1.3s-.1,1,.13,1.8a6.69,6.69,0,0,1,.29,1.45,11.62,11.62,0,0,1-.54,3c-.12.45-.23.89-.32,1.28l-.06.21c-.21.55-.3,1.06.52,2.46l.08.11c.78.82,2.05,1.08,3.86.8l1.6-.25,0,1.8a3.25,3.25,0,0,0,.07.54,4,4,0,0,1,.09.92l0,.49-.33.37a1.65,1.65,0,0,0-.33,1.91,26.7,26.7,0,0,0,3,3.59l.71.66-.36.9c0,.08,0,.09,0,.14a10.91,10.91,0,0,1,1.11,1.65l.12.21,0,.24c.06.35.1.71.14,1.05l.53-.47.37,2.62c.57,4.07-1,8.4-2.48,12.59-1.21,3.36-2.35,6.54-2.33,9.33a.22.22,0,0,0,.1.08c1.33-.93,2.79.07,3.76.74a5.43,5.43,0,0,0,.81.5,2.65,2.65,0,0,0,1.56-.28,5.42,5.42,0,0,1,4.06-.18,14.71,14.71,0,0,1,1.92.87,8.07,8.07,0,0,0,1.54.68l.93.23.13,1c.15,1.08.23,1.78.24,2.08V313c-.07,1,0,5.43,0,7.15.68.19,3.44,1,4.62,1.35l1.24.39-.29,1.27c-.1.46.81,1.6,1.63,2.23a2.47,2.47,0,0,1,1.29,1.91v.11a4.8,4.8,0,0,0,.66,2.82l.09.21a4.72,4.72,0,0,0,1.34,1.66l.19.17ZM152.67,328Zm36.75-2Zm16.8-12.62Zm.07-.12-.07.12A.58.58,0,0,0,206.29,313.2ZM282.8,247h0ZM65.9,227.75ZM307.25,205ZM59,184.17l0,0,.13,0Z"/></svg>