<svg id="Layer_1" data-name="Layer 1" xmlns="http://www.w3.org/2000/svg" viewBox="0 0 350 350"><defs><style>.cls-1{fill:#999;}.cls-2{fill:#f90;}</style></defs><title>M</title><path class="cls-1" d="M286.79,314.6s-3.39-24.86-4.48-25.51a46.29,46.29,0,0,1-4.86-.76s-3.71-8.74-4-8.9c-1.64-.16-7.92.16-7.92.16s.11-9.67.11-10.71c-.55-1.58-4-5.74-6.28-7.54-.33-2.62.05-10.11-.11-13.93s-4.42-25-4.92-26.93c-.71-2.51-7.87-40.26-8-42.06s-5.68-31.25-6.17-33.49c-.82-2.4-2.46-11.91-3-14.8s-4.64-29.06-5.24-29.72-6-5.08-8,.22c-1.58,2.51-5,3-8,2-2.46-1-13.55-7.21-13.71-7.21S173,81.4,173,81.4s-3.17-22.23-3.5-25.67c-.21-3-.29-6.36-.34-8.73-2.42-1.09-38.72-22.13-38.72-22.13L98.82,6.56l-.49.22a11.75,11.75,0,0,0-7.1,9.72c-.49,5.35-1.53,17.43-2.13,20.81.05,2.13-.93,10.87-.93,10.87l-25,.38V62.39l22.62,1.42s-2.35,21.74-2.46,26.55c.11,4.7,1.86,12.45,7.21,21.14,1.86,4.26,21.47,45.83,22.23,47.36S135,206.38,135,206.38s5.3,13.93,18.68,20.92c.87,1.15,44.41,31.08,44.41,31.08l-19,17.92-19.94-5.08L135,331.72,159,339.26l5.82-4s12.7,3.61,16.55,3.11c.9-2.95,1.31-4.51,1.31-4.51l8.93.16s.9-4.92,1.72-4.92c1.15-.08,5.65-1.88,6.72-1.88s38.59,5.24,39.66,5.24c1.23,1.88,2.7,7.7,2.7,7.7l34.41,3.28-3.28-22.12Z"/><path class="cls-2" d="M278.46,345l-37.21-3.54-.25-1a45.18,45.18,0,0,0-2.21-6.72c-2-.23-7.48-1-19.14-2.55-8.85-1.2-18.89-2.57-19.68-2.61a29,29,0,0,0-3,.9c-1.32.44-2.28.75-3,.89a22.37,22.37,0,0,0-1,3.85l-.22,1.18-9-.17c-.22.76-.55,1.93-1,3.48l-.27.88-.91.12c-3.64.47-13.63-2.19-16.47-3l-5.84,4-26-8.21,25.23-63.07,20.39,5.19,17.11-16.18c-15.52-10.67-39.5-27.25-42.91-30-13.37-7-18.82-20.49-19.25-21.58-.77-1.66-21.46-46-22.2-47.45S91.36,116.8,89.32,112.16c-6.44-10.48-7.3-18.71-7.37-21.77.09-4.19,1.78-20.25,2.31-25.26L61.79,63.72V47.17l25.11-.39c.31-2.93.82-8,.78-9.44v-.14l0-.14c.5-2.83,1.36-12.29,1.87-17.95l.25-2.75a13.09,13.09,0,0,1,8-10.92L98.91,5l32.2,18.66c10.08,5.84,36.66,21.19,38.59,22.07l.81.37,0,.89c0,1.77.12,5.45.34,8.67.28,3,2.82,20.92,3.38,24.82,11.2,5.41,27.52,13.27,28.33,13.61h0c.42.17,1.29.64,3.59,1.89,3.41,1.85,8.53,4.63,10.11,5.31,2.21.74,5,.61,6.26-1.29a4.8,4.8,0,0,1,3.55-3.25c3-.57,6.17,2.05,6.79,2.73s.72.79,4.48,23.73c.54,3.29,1,5.89,1.11,6.68.1.54.24,1.32.41,2.24.67,3.67,1.91,10.51,2.54,12.37l0,.15c.39,1.79,6,31.71,6.2,33.66s7.36,39.59,8,41.81,4.8,23.34,5,27.26c.07,1.7,0,4.12,0,6.45,0,2.61-.07,5.29,0,6.83,2.32,2,5.64,6,6.27,7.79l.08.22v.24c0,.78-.06,6.46-.09,9.22,2-.09,5.4-.21,6.63-.09l.26,0,.23.12c.55.27.78.39,4.42,8.93a35,35,0,0,0,3.85.59h.39l.34.2c.67.4,1.67,1,5.15,26.53l.14,1-13.26,6.71Zm-35-6.18,31.63,3L272,320.52l13.28-6.73c-1.38-10-3.09-20.67-3.88-23.36-1.47-.17-3.68-.62-4.21-.72l-.73-.15-.29-.69c-1.36-3.2-2.91-6.73-3.58-8.08-1.81,0-5.53.13-7,.2l-1.51.08,0-1.51s.1-8.54.11-10.42a29.15,29.15,0,0,0-5.75-6.71l-.45-.36-.07-.57a74.23,74.23,0,0,1-.11-7.76c0-2.29.06-4.67,0-6.29-.16-3.66-4.35-24.54-4.88-26.65s-7.88-40.19-8.07-42.28c-.14-1.53-5.48-30.21-6.13-33.24-.65-2-1.65-7.34-2.62-12.69-.17-.91-.31-1.68-.41-2.22-.15-.82-.58-3.43-1.13-6.75-1.09-6.67-3.33-20.32-3.93-22.43-.71-.64-2.69-2-4-1.71-.23,0-.93.18-1.48,1.63l-.12.25c-1.81,2.88-5.71,3.9-9.69,2.55l-.1,0c-1.65-.7-6.71-3.44-10.41-5.45-1.5-.81-3.05-1.65-3.29-1.76v0c-1.28-.51-6.23-2.89-29.21-14l-.68-.33-.11-.75c-.13-.91-3.18-22.3-3.5-25.74-.2-2.86-.28-6-.33-8-5.84-3.12-36.64-21-38-21.78l-31-17.94a10.24,10.24,0,0,0-6.09,8.47l-.25,2.76c-.54,6-1.35,15-1.87,18,0,2.41-.9,10.57-.94,10.92l-.14,1.24L64.62,50V61.06l22.77,1.43L87.23,64c0,.22-2.34,21.74-2.45,26.43.05,2.15.71,10.16,7,20.36l.09.18c1.81,4.15,21.4,45.69,22.2,47.29s21.37,45.68,22.25,47.56l0,.09c.05.13,5.29,13.52,18,20.17l.28.15.14.18c1.77,1.58,27.29,19.26,44.14,30.84l1.44,1-20.8,19.66-19.49-5-23.17,57.93,21.81,6.87,5.8-4,.64.18c3.16.9,11.47,3,15.1,3.11.68-2.27,1-3.48,1-3.5l.28-1.08,8.86.16c1-4.75,2.07-4.89,2.81-4.89a28.48,28.48,0,0,0,2.84-.84,16.74,16.74,0,0,1,4-1c.54,0,5.47.66,20,2.63,8.85,1.2,18.89,2.57,19.68,2.61l.72,0,.43.6C241.91,333.28,243,337,243.5,338.85ZM230.58,101Z"/></svg>