<svg id="Layer_1" data-name="Layer 1" xmlns="http://www.w3.org/2000/svg" viewBox="0 0 350 350"><defs><style>.cls-1{fill:#999;}.cls-2{fill:#f90;}</style></defs><title>M</title><path class="cls-1" d="M331.73,272.84c0-.32,0-.81,0-1.38,0-2,.11-4.74-.76-6.39a30.28,30.28,0,0,1-1.92-6.55c-.12-.7.23-1.33.81-2.3l.32-.54a3.09,3.09,0,0,0,.35-2.7,1.4,1.4,0,0,1-.08-.4,6.87,6.87,0,0,0-.16-1.35,4.2,4.2,0,0,1-.11-1.47A4,4,0,0,1,331.3,248l1.63-1.53-2.09-.8s-1.69-.64-3.14-1.36a3.07,3.07,0,0,1,.45-1.11l1.27-1.91-2.28-.25a36.79,36.79,0,0,1-5.12-.88,7.26,7.26,0,0,1-3.13-1.62l-.42-.37.08-.26a3.9,3.9,0,0,0-1-3.79A7.3,7.3,0,0,0,316.1,233a7.55,7.55,0,0,1-1.46-1.17,4.87,4.87,0,0,1,.28-2.71l1.11-3.21-3.05,1.5a7,7,0,0,1-1.36.46c0-.19.08-.45.16-.77a4.11,4.11,0,0,0-1.68-4.67,6.2,6.2,0,0,0-3.18-.92,8.82,8.82,0,0,1-2.94-.67,1.2,1.2,0,0,1-.48-1.44l.76-2.4-2.47.62a20.24,20.24,0,0,1-4.53-.74,12.2,12.2,0,0,0-2.29-.43,6.42,6.42,0,0,1-2.2-.54,12.65,12.65,0,0,0-2.84-1.41l-.42-.18a13,13,0,0,0-3.54-.63,4.42,4.42,0,0,0-1.73.28l-.33.1a4.12,4.12,0,0,0,1.37-2.06,3.74,3.74,0,0,0-1-3c-.1-.13-.24-.31-.32-.44a9,9,0,0,1,.62-1c.52-.76,1-1.47.55-2.33a1.46,1.46,0,0,0-1.27-.78h0c-.56,0-4.45-.74-6-1.12a1.74,1.74,0,0,0-.28-1.52l-.48-.54h-.45c-.74-.3-3.38-1.61-4.48-2.19a1.89,1.89,0,0,0-.73-1.6l-.3-.19c-.09-.12-.2-.28-.29-.42l-.11-.18-.16-.14a22,22,0,0,1-1.93-1.92,1.78,1.78,0,0,0,.16-.55c0-.19.17-.57.3-1a12.75,12.75,0,0,0,.74-2.94,3.16,3.16,0,0,0-1-2c.25-.35.57-.8.94-1.39a4.59,4.59,0,0,0,.13-4.24c-1.14-4.35-2.33-9.21-2.41-10.09l0-.22a2.72,2.72,0,0,0-.44-2.31,2.83,2.83,0,0,0-2.19-.83,4.63,4.63,0,0,1-2.54-1.22c-.25-.19-.49-.37-.72-.52a3.94,3.94,0,0,1-.62-2.62c0-.14.44-.4.84-.65a14.63,14.63,0,0,0,1.43-1c.76-.62,1.25-1.06,1.65-1.43s.57-.52.9-.78c1-.79,1.37-2.33,1.65-3.84l.06-.34c.08-.39.26-1,.43-1.52s.33-1.07.42-1.45a9.34,9.34,0,0,0-.85-5.49,2.28,2.28,0,0,1,.08-1.71l.84-1.87-9.24-.44c-1.47,0-3.18-.05-4.24-.13a1.51,1.51,0,0,0-.66-1.27,2.13,2.13,0,0,0-.84-.31,1.44,1.44,0,0,1-.77-.38l-.08-.07.79-1.58-8.14.16.08,1.45a13.77,13.77,0,0,1,0,1.78,4.63,4.63,0,0,1-.2.54v0c-.48-2.4-1.38-5.69-2.7-6a3.86,3.86,0,0,0-1.53,0,1.92,1.92,0,0,1-.73,0,11.68,11.68,0,0,1-2.15-1.47l-.93-.71a14.38,14.38,0,0,0-3.92-1.81c-.57-.2-1.12-.39-1.62-.6s-1-.39-1.48-.57a8.53,8.53,0,0,1-2.58-1.23,5,5,0,0,1-1.24-2.08c-.2-.46-.44-1-.76-1.68-.63-1.35-.3-3.07-.07-4.32a6,6,0,0,0,.18-2c0-.29-.08-.62-.12-1A9.19,9.19,0,0,0,225,118a8.23,8.23,0,0,0-1.76-2.29c-.21-.21-.42-.43-.62-.65a1.11,1.11,0,0,1-.31-1.46,6.23,6.23,0,0,0,.18-3.2c0-.29-.08-.61-.12-1a2.48,2.48,0,0,0-1.91-2.42,2,2,0,0,1-1-.63,4.14,4.14,0,0,1-.37-.46c0-.05,0-.17.08-.26a4,4,0,0,0,.25-1.59,2.67,2.67,0,0,0-2.11-2.32l-.37-.14c-.61-1.3-2.05-1.93-3.22-2.44l-.52-.23a10.09,10.09,0,0,0-2.91-.88c-.25,0-.71-.18-1.27-.33a18.9,18.9,0,0,0-5.15-1l-.32,0a23.12,23.12,0,0,1-2.39.05,9.18,9.18,0,0,0-1.89-3.53,3.73,3.73,0,0,0-2.54-1,2,2,0,0,1-.9-.2,2.53,2.53,0,0,1-1.05-1.18c-.14-.23-.29-.49-.48-.79a2.58,2.58,0,0,0-3.3-1.13,9.25,9.25,0,0,1-1.16.24c-1.61.22-1.76-.11-1.89-.4v0l2.23-1.48-6.54-1.49-.48,3.37-1.4.08-.27,1c0,.15-.31.74-.64.81a4.08,4.08,0,0,1-1.41,0c-.29,0-.61-.06-1-.07a13.16,13.16,0,0,1,1-1.82,26.65,26.65,0,0,0,3.14-6.49,5.4,5.4,0,0,0,.13-4.17c-.24-1-.61-2.4-1.11-5A24.29,24.29,0,0,0,175.94,62c-.25-.4-1-1.7-1.55-2.71l.18-.07c.41-.16,1-.37,1.63-.68a1.44,1.44,0,0,1,.87-.19,1.83,1.83,0,0,0,1.82-.79l.08-.06a3.23,3.23,0,0,0,1.17-1.45,5,5,0,0,0,.42-1.86,4.87,4.87,0,0,1,.17-1.08l0-.11.08,0A2.89,2.89,0,0,0,182,52.2a2,2,0,0,0,.1-2.47,4.37,4.37,0,0,1-.56-1.47,14.25,14.25,0,0,1,.74-5.23l.44-1.43-1.45-.35-2.13-.51c-5.85-1.46-6.32-.56-6.59,0l-.47,1,.44.37c-.08.44-.29,1.16-.43,1.68a16.92,16.92,0,0,0-.59,2.5c0,.15,0,.25,0,.32a1.66,1.66,0,0,0-.56,1.29,4.25,4.25,0,0,1-.42,1.89v0A1.76,1.76,0,0,0,169.07,51a2.87,2.87,0,0,0-1.12.69c-.2,0-.44,0-.76,0h0c-.08-.11-.19-.3-.28-.45a17,17,0,0,0-1.46-2.12l-.11-.12a19.6,19.6,0,0,1-5.42-10.77,75.19,75.19,0,0,0-1.41-9.5L158,26.57,156.27,28a6.93,6.93,0,0,0-.57.51,1.32,1.32,0,0,1-.49.29,42.79,42.79,0,0,0-8.82-7.33,10.89,10.89,0,0,0-2.3-.59,11.8,11.8,0,0,1-2.91-.79,32.56,32.56,0,0,1,.15-6c.19-2.34.22-2.91,0-3.42-.49-1.13-3.18-2.71-4.4-2.94a1.85,1.85,0,0,0-1.66.38l-.19,0a3.87,3.87,0,0,0-1.76.66,8.34,8.34,0,0,0-1.68,1.9,8.26,8.26,0,0,1-1.19,1.42,3.49,3.49,0,0,0-1.37,3,12.17,12.17,0,0,1-.27,1.87l0,.12a6.79,6.79,0,0,1-.85-.2,7.48,7.48,0,0,0-1.54-.31l-.59,0-.43.4c-.48.43-1.19,1.09-3.43,11.59l-.05.24a16.47,16.47,0,0,1-2,1.58c-.57.42-1.14.84-1.62,1.23a26.48,26.48,0,0,1-3.66,2.08,33.26,33.26,0,0,0-3.55,2c-.49.35-1.29,1-2.31,1.78-2.48,2-6.62,5.22-8.78,6.16l-4.11,1.78,4.39.88.22,0a2.78,2.78,0,0,1,1.21.42,1.18,1.18,0,0,1-.3.49,5.3,5.3,0,0,1-1.66-.42l-.57-.2a2.23,2.23,0,0,0-2.69.41c-1,1.13-.32,3.07.18,4.12a7,7,0,0,0,.1,2.7c0,.17.07.38.09.54h-.1l-.74,0a13.83,13.83,0,0,0-2.87.6,10.18,10.18,0,0,1-1.46.35l-1.53.16c-.74.08-1.67.18-2,.18a7.82,7.82,0,0,0-2.82,1c-.63.3-1.29.61-1.79.8l-.88.33,0,.94c0,1.12-.2,1.2-.89,1.53a6.16,6.16,0,0,0-1.14.67l-.55.42v.58A5.21,5.21,0,0,1,78.25,63l-.83.31-.07.89c0,.5-.13,1.3-.25,2a3.43,3.43,0,0,0-1.21-.05,3.08,3.08,0,0,1-.95,0,7.68,7.68,0,0,0-1.93,0l-1.49.16.26,1.48a.64.64,0,0,1-.13.55.86.86,0,0,1-.64.3,4.79,4.79,0,0,0-4.3,1.9,5.09,5.09,0,0,1-2,1.08,6.87,6.87,0,0,0-1.7.81,4.27,4.27,0,0,1-1.56-.28l-.21-.07L61,71.62,61,71.43l-.13-.15a3,3,0,0,0-4-.29l-1.05.66.53,1.12a19.16,19.16,0,0,1,.92,2.3c-1.42-.82-3.4.27-5.88,3.25l-.51.62,2.1,5.81A3,3,0,0,0,51.71,88a3.32,3.32,0,0,1,.15,1.49,1.17,1.17,0,0,1-.53,0l-.25,0-.24.06A3.78,3.78,0,0,0,48,93.71l.4,3.24,1.23-1.5-.19.48a2.8,2.8,0,0,0-.23,2.26c.1.5.2,2.32.28,3.67a27.37,27.37,0,0,0,.55,5.45,13.77,13.77,0,0,1,.88,5,3.32,3.32,0,0,1-1.08,2.34c-.43.52-1.06,1.22-1.67,1.89a14.4,14.4,0,0,0-2.08,2.53,5.76,5.76,0,0,1-.84.52l-7.85-.76-.34,1.08c-.65,2.05-1.7,5.32-1.94,5.91-.37.91-.88,2.72-.9,2.8l-.05.19v2.83H32.48l0,1.44c0,1,.12,4.23.25,7a51.57,51.57,0,0,1-8.86,2.52c-1.82.33-4.51.1-5.62,1.9a4.54,4.54,0,0,0-.33,2.66,32,32,0,0,1-.69,5.1c-.35,2.16-.34,4.37,1.12,6.15,2.07,2.52,8.27,3.81,11.06,1.93,1.51-1,1.58-3.07,1.53-4.7-.13-4.23.35-7.56,4.11-9.77a12.57,12.57,0,0,0,3.52.72l.18.9h2.92l-.17.77h4.53c0,4.8.74,5.56,1,5.86s5.3,4,7.2,3c.75-.37,3.2-1.87,4-2.41a4.85,4.85,0,0,0,.77-.68,6.14,6.14,0,0,0,.52.45,5.08,5.08,0,0,0,1.43.84c.65,1.75.93,2.08,2.35,2.73l.43.2a7.43,7.43,0,0,1,2.06,3l.5,1.16,1.21-.38c4.47-1.42,9.53-2.94,10.25-3a29.44,29.44,0,0,1,4.34.49,7.17,7.17,0,0,0,3.49-.26,8.62,8.62,0,0,1,.93-.05c1.3,0,2.78-.07,3.45-1.29a2.84,2.84,0,0,1,1.84-.78,17.43,17.43,0,0,0,3.87-.83l.75-.21,2.73-.26,1.36-.13c.08.42.18.81.28,1.18a5.24,5.24,0,0,1,.26,1.51c-.05.78-.21,2.14-.31,3l-2.34.69-.4,4H93.46l-.09.77H91.92l-.17.94h-1.5l-.12.84-1.92.42-.08.39-3.18-.62-.13,1.57a1.6,1.6,0,0,1-.35.93c-.26.18-.57.35-.88.53a8.79,8.79,0,0,0-2.27,1.65,4.51,4.51,0,0,0-.87,1.43c0,.08-.05.15,0,.16a28.36,28.36,0,0,1-4.25.79l-1.22.16v1H73.64l-.17.86H73l-.26.94H72.3l-1.82,2.38v1.82h-2.1l-.17,1H65l.1.59-.55.78H62.8l-1.66-1.25.55,11.43h1.22L62.77,198c-1.2,1.61-2,2.93-1,3.9a2.85,2.85,0,0,0,1.27.63,5.41,5.41,0,0,1,.92.34,8.77,8.77,0,0,1,.61,1.23,7.31,7.31,0,0,0,.89,1.66A34,34,0,0,0,69,209.45c.31.36,1.27,1.78,2,2.84,2,2.94,2.91,4.27,3.55,4.74.36.26,1.69,1.47,2.86,2.53a45.68,45.68,0,0,0,4.11,3.55l.46.26c1.14.63,4.17,2.29,5,4.62l.21.55.53.24c.33.15.64.26.92.36s.41.15.54.21a2.73,2.73,0,0,1,0,.59l-.11.7.5.5a16,16,0,0,0,1.26,1.13c.52.42.58.48.73.9.43,1.21,2.11,7.15,2.43,9.06.14.83.14.83-.32,1.24a8.85,8.85,0,0,0-.7.68,73.93,73.93,0,0,0-4.23,6.33c-.52.82-.91,1.45-1,1.62s-.13.15-.2.24c-1.62,1.85-1,3.18-.22,4a7.35,7.35,0,0,1-1,3l0,.09c-1,2.24-3,6.74-3.56,7.73l-.08.14h0a1.66,1.66,0,0,0-1.42.38,10.6,10.6,0,0,0-2,3.13l-.12,0c-1,.16-2.42.38-2.84,1.62-.12.36-1.1,2.53-1.75,4-.9,2-1.25,2.79-1.35,3.07,0,.08-2.73,8.33-2.73,10.14,0,.38,0,.86-.09,1.33-.15,1.62-.3,3.29,1,4a16.19,16.19,0,0,0,3.17,1,4.18,4.18,0,0,0,1.08,1.78l.24.25.32.11c2.57.89,6.21.23,7.37-.93a19.43,19.43,0,0,0,2.85-4.43,9.85,9.85,0,0,1,3.74-3.12,3.5,3.5,0,0,0,2.05-1.94,2.52,2.52,0,0,0-.36-2,1.31,1.31,0,0,1,.13-1.91c.44-.53.61-.52,1.57-.49a11,11,0,0,0,1.91-.05,4.19,4.19,0,0,0,3.8-2.77l.05-.11c.52-1.18.32-4.13-.81-5.08-.12-.1-.18-.55-.18-1.33a5.71,5.71,0,0,1,1.32-3.75c.67-.58.89-.57,2.35-.25l.23.05a30.63,30.63,0,0,0,7.13.62l.89-.1c1.16-.14,3-.35,4.06-.35a3.79,3.79,0,0,0,0,.84,5.19,5.19,0,0,0,.75,1.72,5.63,5.63,0,0,1,1,3.29c0,.77-.15,1.48-.25,2.12-.23,1.6-.46,3.12.53,4.31a6.05,6.05,0,0,1-1.68,2.64,7.54,7.54,0,0,1-.69.59,3,3,0,0,0-1.26,3.8c.9,2.44,4.2,5.32,5.58,6.44a2.37,2.37,0,0,1,1.06,1.49,4.49,4.49,0,0,0,1.79,2.65,6.81,6.81,0,0,1,2.51,3.75,9.83,9.83,0,0,1-1,1.27,15.47,15.47,0,0,0-1.74,2.26,3.54,3.54,0,0,0,.49,4.48l.21.26a6.5,6.5,0,0,1,.12,1.22c.07,1.45.16,3.44,1.76,4.54a8.25,8.25,0,0,0,1.36.74c.09.16.21.43.28.58a3.94,3.94,0,0,0,4.74,2.25,3,3,0,0,1,.45,1.59,11.22,11.22,0,0,0,1.16,4.73c.64,1.38,2.27,4.43,2.78,5.4a81.26,81.26,0,0,1,2.37,8.12l.35,1.22,1.25-.2.12,0c2.64-.55,23.57-7.7,25.95-8.55s9.06-5,9.74-5.42c7.09-4,7.09-4,6.78-5.17l-.24-.89a24.88,24.88,0,0,1-.05-2.75c1.11-.5,4.19-1.36,6.12-1.9a32.66,32.66,0,0,0,5.46-1.76,13,13,0,0,1,2.83-.76,27.56,27.56,0,0,0,3.58-.9c.07.29.13.6.17.84a10.63,10.63,0,0,0,.62,2.29l1.84,4,.81-4.36c1.43-7.73,9.92-10.22,13.5-10.94l.4-.08.29-.28c.77-.74,1.48-1.51,2.16-2.25a22.4,22.4,0,0,1,3.4-3.22,6.55,6.55,0,0,1-.3,1.44l-1,3,2.89-1.25c.18-.08,4.46-1.93,6.89-3.23l.09,0v.36a3.45,3.45,0,0,0,1.06,2.87,2.85,2.85,0,0,0,2.53.28,5.06,5.06,0,0,0,2.17-1.38,9.83,9.83,0,0,1,1.47-1.19c.45-.29.64-.41,1.78,1.25a23.16,23.16,0,0,1,1,3.57c.9,3.89,1.53,6.31,2.87,7.14a4.94,4.94,0,0,0,1.24.61l-.89,1.39,2.33.18s.7.05,1.46.16a2.67,2.67,0,0,0,.54,1.45c1.35,1.73,2.74,1.48,3.67,1a2.6,2.6,0,0,1,.6-.18,3.4,3.4,0,0,0,2.88-3.58,10.68,10.68,0,0,1,1.13-1.64l.19-.24.08-.29a9.38,9.38,0,0,0,.38-2.84,32,32,0,0,1,.55-5.94l.14-.41c.41-1.21.25-1.63-.38-2.91l-.34-.71a.87.87,0,0,1-.11-.34,1.83,1.83,0,0,1,1-.44,22.3,22.3,0,0,1,.71,2.63,22.91,22.91,0,0,0,1.06,3.69l.68,1.62,1.42-1a6.4,6.4,0,0,1,1.68-.24c1.09-.07,2.33-.15,2.58-1.4,0-.2.12-.77.2-1.4a3.83,3.83,0,0,0,1.24-.09,3.65,3.65,0,0,0,2.32-1.33,1.06,1.06,0,0,1,.14-.16c1.14-.95.77-2.38.34-4l-.14-.55-.05-.22c2.36.19,6.94.6,8.64.89l-3.39,4.11,17.69-7.48-.54-1.3c4.72-3.49,11.48-8.32,13.53-9.37a7,7,0,0,1,2.9.74c.28.13.52.23.73.3a4.38,4.38,0,0,0,3-.42l.74-.37,0-.83s.08-2.23.16-3.35l1.12,0,3.25.1a2,2,0,0,0,1.78-1.19c1.63.48,5.18,1.9,6.67,2.49,2.11.84,2.11.84,2.45.84,1.44,0,2.85-2.73,3-3.37a17.5,17.5,0,0,0,0-4.36Z"/><path class="cls-2" d="M136.06,343.95l-.69-2.43c-1.46-5.59-2.14-7.6-2.27-7.87-.55-1-2.16-4.06-2.81-5.44a12.63,12.63,0,0,1-1.29-5.27s0-.06,0-.09a5.37,5.37,0,0,1-5.05-3.21l-.05-.11a10.87,10.87,0,0,1-1.09-.63c-2.21-1.51-2.33-4.11-2.4-5.66,0-.13,0-.45,0-.68a4.93,4.93,0,0,1-.58-6.08,16.83,16.83,0,0,1,1.89-2.46l.53-.61a6.79,6.79,0,0,0-1.85-2.36,5.88,5.88,0,0,1-2.28-3.38c-.08-.31-.1-.36-.59-.76-1.82-1.48-5-4.37-6-7a4.4,4.4,0,0,1,1.72-5.4,6.24,6.24,0,0,0,.57-.48,6.72,6.72,0,0,0,1.1-1.45,7.32,7.32,0,0,1-.35-4.7c.09-.62.19-1.3.23-2a4.38,4.38,0,0,0-.85-2.49,7.47,7.47,0,0,1-.83-1.79c-.9.07-1.91.19-2.61.28l-.91.11a32,32,0,0,1-7.59-.64l-.24-.05c-.3-.06-.77-.17-1-.18l-.14.12a4.58,4.58,0,0,0-.83,2.68c0,.27,0,.46,0,.58,1.38,1.59,1.54,4.87.85,6.4l0,.11a5.57,5.57,0,0,1-4.92,3.6,12.29,12.29,0,0,1-2.14.06h-.43l-.09.11.09.15A3.85,3.85,0,0,1,93.6,288a4.88,4.88,0,0,1-2.78,2.81,8.93,8.93,0,0,0-3.09,2.46,20.72,20.72,0,0,1-3.13,4.83c-1.65,1.65-5.95,2.27-8.84,1.27l-.65-.23-.47-.5a6.16,6.16,0,0,1-1.1-1.56,14.24,14.24,0,0,1-2.74-.94c-2.2-1.1-2-3.56-1.81-5.35,0-.43.08-.86.08-1.2,0-2.15,2.78-10.52,2.81-10.6.11-.32.36-.89,1.4-3.19.52-1.16,1.57-3.5,1.7-3.85a4,4,0,0,1,3.33-2.46,10.26,10.26,0,0,1,2-3,3.25,3.25,0,0,1,1.47-.68c.72-1.5,2.24-4.84,3.22-7l.06-.13a9.4,9.4,0,0,0,.75-1.88c-1.18-1.6-1-3.56.63-5.38l.12-.14c.09-.13.39-.6.79-1.24l.19-.3A66.71,66.71,0,0,1,92,243.2a9.41,9.41,0,0,1,.68-.67v-.06c-.3-1.8-2-7.67-2.37-8.83l0-.05-.27-.22a17.85,17.85,0,0,1-1.36-1.22l-1-1,.14-.85-.51-.21-1.07-.48-.42-1.1c-.7-1.84-3.49-3.37-4.4-3.88l-.51-.29a41.79,41.79,0,0,1-4.34-3.72c-1-.9-2.44-2.22-2.74-2.43-.84-.61-1.73-1.88-3.89-5.1-.48-.72-1.44-2.15-1.79-2.6a36.73,36.73,0,0,1-3.67-3.86,8.37,8.37,0,0,1-1.09-2c-.07-.16-.2-.45-.31-.68l-.34-.11a4.11,4.11,0,0,1-1.85-1c-1.8-1.8-.4-4,.61-5.4l0-.38H60.34l-.76-15.79,3.69,2.77h.26l-.23-1.37H67l.17-1h1.89v-.89l2.54-3.32h.1l.26-.95h.36l.17-.86h1v-.86l2.45-.32c1.4-.18,2.67-.41,3.37-.56a5.77,5.77,0,0,1,.92-1.37,10.08,10.08,0,0,1,2.62-1.93l.1-.06.43-.25v0l.25-3.15,3.56.7,1.64-.36.16-1.08h1.55l.17-.94h1.38l.09-.77H96.8l.36-3.64,2.35-.7c.1-.92.17-1.62.2-2.05a5.49,5.49,0,0,0-.22-1.06h-.13l-2.65.25-.46.13-.13,0a17.81,17.81,0,0,1-4.26.88,1.87,1.87,0,0,0-.72.25c-1.09,1.72-3.15,1.78-4.53,1.82l-.61,0a8.84,8.84,0,0,1-4.14.26,33.11,33.11,0,0,0-3.94-.47c-.52.08-4.77,1.32-9.93,3l-2.43.77-1-2.34a8.19,8.19,0,0,0-1.42-2.28l-.36-.17a4.59,4.59,0,0,1-2.87-3,7.1,7.1,0,0,1-.81-.5h0c-.78.52-3.33,2.08-4.17,2.5-3,1.51-8.78-3.22-8.83-3.27-.68-.68-1.32-1.84-1.43-5.45H39.77l.17-.77H37.62l-.2-1a13.68,13.68,0,0,1-2.15-.46c-2.56,1.76-3,4.28-2.87,8.16,0,1.31.14,4.38-2.16,5.93-3.56,2.39-10.53.73-12.95-2.21-1.95-2.38-1.75-5.29-1.42-7.28.07-.44.15-.88.23-1.31a20.1,20.1,0,0,0,.44-3.56c0-.2,0-.39,0-.57a4.55,4.55,0,0,1,.56-2.82c1.22-2,3.59-2.22,5.32-2.39.44,0,.87-.09,1.26-.16a48.84,48.84,0,0,0,7.65-2.1c-.1-2.51-.18-5.15-.2-6L31,130.23h1.71v-1.62l.11-.38c.06-.2.57-2,1-2.93.2-.49,1.13-3.36,1.91-5.81l.69-2.17,8.54.82.07,0a20.3,20.3,0,0,1,2.12-2.52c.62-.68,1.23-1.34,1.62-1.83a2.38,2.38,0,0,0,.78-1.67,12.94,12.94,0,0,0-.81-4.28c-.33-.92-.44-2.41-.63-5.85,0-.56-.08-1.45-.14-2.2l-.54.66-.8-6.53a5.14,5.14,0,0,1,3.73-5.68,4.27,4.27,0,0,1,.93-3.85l-2.06-5.7,1-1.24c.78-.94,2.68-3.22,4.85-3.86L55,73.37l-1.06-2.26L56,69.78a4.43,4.43,0,0,1,5.89.59l.26.31.1.22.33.07a10.45,10.45,0,0,1,1.59-.7,6.79,6.79,0,0,0,1.41-.64,5.87,5.87,0,0,1,4.63-2.42L69.86,65l3-.32a9.18,9.18,0,0,1,2.23,0,1.79,1.79,0,0,0,.61,0l.17,0c0-.22,0-.42.06-.59l.14-1.79,1.68-.63a5.6,5.6,0,0,0,.92-.46v-.61l1.1-.85A7.44,7.44,0,0,1,81.16,59l.08,0c0-.07,0-.15,0-.27l.06-1.88,1.76-.66c.45-.17,1.07-.46,1.67-.74a8.63,8.63,0,0,1,3.44-1.15c.23,0,1.29-.12,1.8-.17l1.57-.16a12.09,12.09,0,0,0,1.19-.3A18.81,18.81,0,0,1,95.2,53a7.4,7.4,0,0,1,0-1.74c-.78-1.86-.84-3.47-.19-4.66l-3.84-.77,8.27-3.58c2-.86,6.19-4.18,8.45-6,1-.82,1.85-1.46,2.38-1.83A34.16,34.16,0,0,1,114,32.4a27.48,27.48,0,0,0,3.41-1.91c.5-.41,1.1-.85,1.69-1.28.37-.27,1.12-.82,1.51-1.15,2.3-10.78,3.08-11.48,3.83-12.16l.88-.8,1.18.07a6.8,6.8,0,0,1,1.17.18c0-.12,0-.24,0-.36a4.83,4.83,0,0,1,2-4.11c.1-.11.61-.8.8-1.06a9.39,9.39,0,0,1,2-2.22,5.15,5.15,0,0,1,2.2-.87,3.34,3.34,0,0,1,2.49-.42c1.46.28,4.68,2,5.43,3.77.36.85.3,1.61.11,4.1-.22,2.7-.27,4.13-.25,4.87.36.09.94.23,1.85.4a11.83,11.83,0,0,1,2.63.7,42.14,42.14,0,0,1,8.38,6.73h0L158.89,24l1,4.38a77.2,77.2,0,0,1,1.44,9.71,18.2,18.2,0,0,0,5,9.86l.16.17A18.18,18.18,0,0,1,167.83,50l.19-.1a3.1,3.1,0,0,1,1.3-1.18,2.31,2.31,0,0,0,.12-.81,3.11,3.11,0,0,1,.64-1.92,19.25,19.25,0,0,1,.61-2.58l.22-.78-.59-.5.91-2c1-1.88,3-2.06,8.23-.77l2.12.51,2.93.7-.89,2.88a13.46,13.46,0,0,0-.71,4.51,3,3,0,0,0,.4,1.05,3.31,3.31,0,0,1-.25,4.1A4,4,0,0,1,182,54c0,.09,0,.2,0,.32a6.36,6.36,0,0,1-.54,2.35,4.64,4.64,0,0,1-1.52,1.93,3.22,3.22,0,0,1-3,1.19.52.52,0,0,0-.15.06l-.39.18c.27.47.53.89.67,1.14a26.1,26.1,0,0,1,5.75,12.08c.49,2.58.85,4,1.09,4.93a6.72,6.72,0,0,1-.15,5c-.13.42-.27.81-.41,1.19l10.24,2.33-1.12.75a3.86,3.86,0,0,1,2.92,1.94c.2.32.37.59.51.84.29.48.31.53.51.65l.35,0a5.08,5.08,0,0,1,3.41,1.44,9.07,9.07,0,0,1,1.89,3.12l1.25-.06.37,0a19.58,19.58,0,0,1,5.61,1l.15,0c.44.12.8.22,1,.26a11.44,11.44,0,0,1,3.25,1l.49.22a7.67,7.67,0,0,1,3.63,2.59,3.92,3.92,0,0,1,2.91,3.51,5,5,0,0,1-.15,1.59,1.57,1.57,0,0,0,.26.1,3.89,3.89,0,0,1,2.89,3.63c0,.36.08.66.11.93a7.6,7.6,0,0,1-.24,3.85v0l0,0,.54.57a9.56,9.56,0,0,1,2.07,2.73,10.4,10.4,0,0,1,.71,3.26c0,.33.06.62.1.88a7,7,0,0,1-.18,2.51,6.39,6.39,0,0,0,0,3.46c.32.69.57,1.25.77,1.72.55,1.26.61,1.34.9,1.61a8.79,8.79,0,0,0,2.11.95c.53.19,1,.38,1.55.59s1,.37,1.47.54a15.63,15.63,0,0,1,4.36,2l.9.69c.46.36,1.29,1,1.68,1.23l.18,0a5.24,5.24,0,0,1,2.08,0c.68.17,1.47.62,2.25,2.18l10.69-.21-1.17,2.34a3.11,3.11,0,0,1,.54.29,3,3,0,0,1,1,1.09c.94,0,2.09.07,3.14.07l11.39.54-1.7,3.77a1.71,1.71,0,0,0-.1.5,10.83,10.83,0,0,1,1,6.42c-.1.44-.27,1-.45,1.57s-.33,1.06-.4,1.38l-.06.32c-.33,1.77-.77,3.6-2.17,4.7-.29.22-.51.43-.78.67-.45.41-1,.87-1.75,1.52a16,16,0,0,1-1.55,1.1l-.22.14a4.44,4.44,0,0,0,.23.91l.57.41a4,4,0,0,0,1.69.94,3.79,3.79,0,0,1,4,4.76v0c.15.94,1.06,4.81,2.32,9.6a6,6,0,0,1-.27,5.46l-.39.6a3.69,3.69,0,0,1,.64,2,12.55,12.55,0,0,1-.8,3.36l-.05.17-.18.6c.46.48,1,1,1.29,1.23l.31.27.22.36.07.11.06,0a3,3,0,0,1,1.28,1.88c1.16.59,2.75,1.37,3.47,1.7h.8l.9,1a3,3,0,0,1,.64,1.32c1.78.37,4.32.82,4.69.85h0a2.85,2.85,0,0,1,2.42,1.53,3.49,3.49,0,0,1-.63,3.79l-.09.14a4.79,4.79,0,0,1,1,3.84v0a12,12,0,0,1,3.42.69l.41.17a14.09,14.09,0,0,1,3.1,1.54,6.94,6.94,0,0,0,1.4.29,12.51,12.51,0,0,1,2.61.47,19.5,19.5,0,0,0,4,.73l4.83-1.22-1.48,4.69a11.54,11.54,0,0,0,2.19.4,7.28,7.28,0,0,1,3.92,1.23,5.56,5.56,0,0,1,2.36,4.31l5.14-2.52-2.24,6.46a6.11,6.11,0,0,0-.3,1.55,9,9,0,0,0,.94.68,8.51,8.51,0,0,1,1.73,1.41,5.35,5.35,0,0,1,1.43,4.49,6.15,6.15,0,0,0,2.42,1.15,35.35,35.35,0,0,0,4.83.82l4.6.51-2.32,3.48c.84.37,1.57.65,1.76.73l4.22,1.6L332.27,249a3.37,3.37,0,0,0-.69,1,3.07,3.07,0,0,0,.1.95,8.34,8.34,0,0,1,.19,1.55l0,.09a4.5,4.5,0,0,1-.48,3.79l-.33.57a3.88,3.88,0,0,0-.63,1.33,28.82,28.82,0,0,0,1.78,6.14c1,2,1,4.93.92,7.08v.13c0,.47,0,.86,0,1.13v.19a17.77,17.77,0,0,1-.07,4.8c-.14.56-1.78,4.44-4.39,4.44-.61,0-.66,0-3-.94-1.26-.5-3.9-1.55-5.64-2.15a3.19,3.19,0,0,1-2.29,1l-3-.09c0,.94-.08,1.87-.08,1.92l-.06,1.68-1.49.75a5.68,5.68,0,0,1-4.13.5,9.27,9.27,0,0,1-.86-.35,5.73,5.73,0,0,0-2-.59c-2,1.16-7.43,5-12.12,8.41l.66,1.58-24.3,10.28,5.42-6.59c-1.22-.13-2.67-.27-4.07-.39.3,1.47.35,3.07-1,4.26l0,0a5,5,0,0,1-3.09,1.81l-.32.07c0,.14,0,.25-.05.32-.46,2.32-2.77,2.46-3.88,2.54-.63,0-1,.08-1.12.11l-2.68,2-1.13-2.7c-.12,1.33-.2,2.8-.17,3.18a10.13,10.13,0,0,1-.42,3.33l-.16.59-.39.47a12.21,12.21,0,0,0-.79,1.09,4.68,4.68,0,0,1-1.11,2.93,4.59,4.59,0,0,1-2.9,1.68l-.31.07c-1.86,1-3.91.54-5.39-1.38a3.92,3.92,0,0,1-.58-1l-.42,0-4.69-.36,1.32-2.06c-1.79-1.14-2.45-3.66-3.45-8-.21-.9-.63-2.7-.82-3.16l-.3-.42c-.29.23-.52.44-.75.66a6.4,6.4,0,0,1-2.76,1.72,4.12,4.12,0,0,1-3.77-.51,3.94,3.94,0,0,1-1.41-2.16c-2,1-4.35,2-5.17,2.36L218.12,307l.74-2.17c-.52.56-1.05,1.12-1.63,1.67l-.59.57-.81.16c-3.3.66-11.11,2.94-12.38,9.81l-1.63,8.79-3.7-8.14a9.42,9.42,0,0,1-.58-1.92c-.76.19-1.51.35-2.22.49a16.4,16.4,0,0,0-2.4.6,30.83,30.83,0,0,1-5.79,1.9c-1.51.42-3.75,1-5.1,1.51,0,.52,0,1.09.05,1.52l.21.76c.59,2.27.14,2.53-7.46,6.78-.23.15-7.2,4.53-10,5.52-1.73.62-23.28,8-26.14,8.61Zm-5.53-24.28.58.78a4.29,4.29,0,0,1,.72,2.37,9.82,9.82,0,0,0,1,4.2c.62,1.32,2.19,4.29,2.75,5.33s2,6.67,2.49,8.42l.09,0c2.41-.5,22.75-7.43,25.73-8.5,2-.73,7.66-4.15,9.47-5.29,3.38-1.89,5.52-3.09,6.16-3.62l-.28-1.12a26.44,26.44,0,0,1-.06-2.94l0-.87.79-.35a61.87,61.87,0,0,1,6.24-1.95,38.32,38.32,0,0,0,5.19-1.64,12,12,0,0,1,3.27-.93,26.2,26.2,0,0,0,3.39-.85l1.49-.53.36,1.54c.07.29.13.61.18.85a10.49,10.49,0,0,0,.5,1.95c1.62-8.52,10.74-11.24,14.6-12,.73-.71,1.42-1.45,2.09-2.17a23.43,23.43,0,0,1,3.65-3.44l2.46-1.69-.24,3a7.94,7.94,0,0,1-.36,1.74c1.13-.49,4.65-2,6.74-3.16l2.11-1.13.07,2.34v.36c0,.9.16,1.47.49,1.72a1.5,1.5,0,0,0,1.28.05,3.75,3.75,0,0,0,1.59-1.06,11.21,11.21,0,0,1,1.67-1.35c1.79-1.16,2.9.45,3.71,1.63a16.36,16.36,0,0,1,1.2,4c.62,2.69,1.33,5.71,2.24,6.27a4,4,0,0,0,.87.45l1.87.5-.66,1c.18,0,.82.07,1.51.17l1.13.15.1,1.13a1.25,1.25,0,0,0,.25.7c.82,1,1.39.86,1.87.6a3.56,3.56,0,0,1,1-.32,1.92,1.92,0,0,0,1.25-.62,1.83,1.83,0,0,0,.53-1.45l0-.38.16-.35a11.88,11.88,0,0,1,1.31-1.94,8,8,0,0,0,.34-2.3,31.79,31.79,0,0,1,.6-6.54l.13-.41c.25-.73.25-.74-.3-1.86l-.13-.26h-1.4l1.09-2.07a2.85,2.85,0,0,1,2.05-1.18l1.13-.19.43,1.06a22.09,22.09,0,0,1,.78,2.85,22.23,22.23,0,0,0,1,3.43l.09-.06a5.5,5.5,0,0,1,2.3-.43,3.75,3.75,0,0,0,1.27-.21c0-.24.11-.77.19-1.35l.18-1.36,1.37.13a2.38,2.38,0,0,0,.78-.06,2.27,2.27,0,0,0,1.54-.85,2.15,2.15,0,0,1,.34-.35c.38-.32.3-.92-.13-2.6l-.66-2.69,2,.16c1.11.09,6.73.56,8.76.91l2.41.41L279.91,297,291,292.32h0l-.43-1,.89-.66c1.11-.82,10.95-8.07,13.73-9.49l.33-.17h.37a8.31,8.31,0,0,1,3.44.86c.22.1.42.19.59.25a3,3,0,0,0,2-.34c0-.17.08-2.27.16-3.38l.1-1.36,2.49.08,3.2.1c.1,0,.28,0,.56-.48l.56-1,1.07.32c1.68.5,5.24,1.92,6.76,2.53,1.14.46,1.82.72,2,.76a5.65,5.65,0,0,0,1.62-2.32,19,19,0,0,0,0-3.91v-.19c0-.33,0-.81,0-1.37v-.13c0-1.74.1-4.37-.6-5.71a31.65,31.65,0,0,1-2.06-7,4.71,4.71,0,0,1,1-3.27l.31-.52a1.71,1.71,0,0,0,.22-1.6,2.68,2.68,0,0,1-.13-.79,5.65,5.65,0,0,0-.14-1.08,5.55,5.55,0,0,1-.12-1.92A5.39,5.39,0,0,1,330.3,247c-.48-.19-1.93-.76-3.23-1.4l-.87-.43.09-1a4.37,4.37,0,0,1,.67-1.74,38.42,38.42,0,0,1-5.38-.94,8.6,8.6,0,0,1-3.61-1.89l-.47-.42-.63-.6.32-1.05a2.5,2.5,0,0,0-.68-2.48,6.14,6.14,0,0,0-1.19-.94,8.79,8.79,0,0,1-1.73-1.4l-.11-.13c-.8-1.14,0-3.6.08-3.95a8.51,8.51,0,0,1-1.63.55l-2.07.47.36-2.09c0-.22.09-.5.18-.86a2.73,2.73,0,0,0-1.19-3.25,5.56,5.56,0,0,0-2.45-.61,9.68,9.68,0,0,1-3.47-.85,2.56,2.56,0,0,1-1.14-3.08h0c-.66.16-1.71.08-5.2-.74a14.3,14.3,0,0,0-2-.39,7.35,7.35,0,0,1-3-.77l-.12-.09a13.59,13.59,0,0,0-2.47-1.18l-.43-.18a10.48,10.48,0,0,0-3.1-.52,2.91,2.91,0,0,0-1.19.21l-.4.12-5.4,1.48,4-3.87a2.93,2.93,0,0,0,1-1.32,2.44,2.44,0,0,0-.74-1.91c-.12-.16-.29-.39-.39-.54l-.4-.64.31-.69a9,9,0,0,1,.74-1.22,3.41,3.41,0,0,0,.48-.85l-.13,0c-.72,0-4.74-.8-6.24-1.16l-1.32-.32.26-1.33c0-.2,0-.32,0-.35l0,0h-.09l-.25-.1c-.85-.34-3.62-1.73-4.61-2.25l-.71-.37-.05-.79c0-.13,0-.47-.1-.52l-.49-.3-.16-.21c-.12-.15-.25-.35-.36-.53h0a23.74,23.74,0,0,1-2.08-2.07l-.57-.69.37-.81a.4.4,0,0,0,0-.12l0-.19c0-.18.15-.52.27-.92l.05-.17a16.31,16.31,0,0,0,.67-2.52c0-.34-.44-.84-.63-1.05l-.75-.85.66-.92c.24-.33.54-.75.89-1.31a3.26,3.26,0,0,0,0-2.89l-.08-.24c-.8-3-2.34-9.13-2.45-10.32v-.15l.06-.41c.07-.5.11-.9-.12-1.17a1.54,1.54,0,0,0-1.12-.33,5.82,5.82,0,0,1-3.39-1.5c-.23-.17-.45-.34-.66-.47-1-.77-1.47-3.11-1.21-4.14.17-.68.71-1,1.45-1.5a13.28,13.28,0,0,0,1.3-.92c.74-.6,1.2-1,1.59-1.38s.64-.58,1-.85c.62-.48.91-1.79,1.13-3l.06-.34c.1-.48.29-1.09.48-1.68s.31-1,.39-1.34a8,8,0,0,0-.69-4.45,3.69,3.69,0,0,1,0-3l-7.17-.34c-1.46,0-3.21-.05-4.27-.13l-1.36-.1.05-1.36a.65.65,0,0,0-.34-.13,2.81,2.81,0,0,1-1.41-.68l-.15-.13-.77-.72.22-.43-4.33.08a15.09,15.09,0,0,1,0,2,3.85,3.85,0,0,1-.29.86l-1.78,4.33-.94-4.54c-.78-3.9-1.57-4.8-1.72-4.94a2.93,2.93,0,0,0-.91,0,3,3,0,0,1-1.33,0,9.69,9.69,0,0,1-2.62-1.71l-.91-.7a13.4,13.4,0,0,0-3.51-1.59c-.66-.23-1.22-.42-1.72-.64s-.94-.37-1.4-.54A9.32,9.32,0,0,1,226.6,133a6.35,6.35,0,0,1-1.58-2.56c-.2-.45-.43-1-.74-1.65-.82-1.76-.43-3.82-.17-5.18a5.39,5.39,0,0,0,.17-1.52c-.05-.31-.09-.66-.12-1a8.29,8.29,0,0,0-.48-2.41,7.08,7.08,0,0,0-1.49-1.88c-.24-.25-.46-.47-.66-.69a2.47,2.47,0,0,1-.61-2.85,4.9,4.9,0,0,0,.12-2.57c0-.32-.08-.65-.12-1-.09-.89-.38-1-.94-1.21a3.44,3.44,0,0,1-1.63-1l-.06-.06-1-.07.29-1.55a4.26,4.26,0,0,1,.12-.42,2.66,2.66,0,0,0,.18-1.08c0-.52-.31-.78-1.15-1.07l-.51-.19-.47-.22-.22-.47c-.39-.82-1.51-1.31-2.5-1.74l-.56-.25a8.69,8.69,0,0,0-2.57-.77c-.26,0-.71-.17-1.25-.32l-.15,0a19.2,19.2,0,0,0-4.69-.93l-.33,0a22.47,22.47,0,0,1-2.58,0l-.95-.07-.29-.9a7.77,7.77,0,0,0-1.54-3,2.36,2.36,0,0,0-1.67-.62A3.24,3.24,0,0,1,195,93.3a3.86,3.86,0,0,1-1.53-1.67c-.13-.22-.27-.46-.45-.74-.54-.84-.92-.74-1.75-.53a10.38,10.38,0,0,1-1.32.28c-1.37.19-2.73.17-3.37-1.21l-.06-.15-.38-1,.41-.27-1.82-.42-.43,3-1.55.09c0,.16-.51,1.56-1.73,1.8a5.51,5.51,0,0,1-1.81.07c-.27,0-.57-.05-.94-.06l-2.06-.06.79-1.9a14.77,14.77,0,0,1,1.07-2,25.44,25.44,0,0,0,3-6.18,4.13,4.13,0,0,0,.1-3.39c-.25-1-.63-2.45-1.13-5.09A22.86,22.86,0,0,0,174.91,63l-.18-.23c-.23-.39-1-1.73-1.6-2.8l-.75-1.44,1.67-.6c.38-.14.92-.35,1.54-.64a2.84,2.84,0,0,1,1.58-.32c.37,0,.44,0,.53-.16l.14-.21.29-.21a1.86,1.86,0,0,0,.72-.89,3.63,3.63,0,0,0,.3-1.38,6.19,6.19,0,0,1,.22-1.37,2.59,2.59,0,0,1,.08-.25l.21-.53.63-.28a1.53,1.53,0,0,0,.63-.41c.21-.24.23-.35-.05-.84a5.74,5.74,0,0,1-.72-1.89c-.41-2,.67-5.58.77-5.91l-2.13-.51c-3.42-.85-4.61-.79-5-.72l.23.19-.15.8c-.09.48-.28,1.16-.47,1.81a16.44,16.44,0,0,0-.54,2.27c0,.21,0,.36-.07.46l-.1.47-.36.31s-.07.06-.07.22a5.64,5.64,0,0,1-.52,2.41l-.27.68-.72.2c-.29.07-.33.17-.35.25l-.22.65-.64.23a1.5,1.5,0,0,0-.59.35l-.46.47-.66,0c-.17,0-.38,0-.66,0h-.75L166,52.5c-.09-.13-.22-.34-.33-.53a15.6,15.6,0,0,0-1.35-2l-.05-.05a20.76,20.76,0,0,1-5.78-11.56v-.17a76.13,76.13,0,0,0-1.37-9.15,5.79,5.79,0,0,0-.44.39,2.7,2.7,0,0,1-.9.58l-.93.41-.69-.75a41.82,41.82,0,0,0-8.37-7,10.64,10.64,0,0,0-2-.48,10.07,10.07,0,0,1-3.45-1l-.42-.29-.14-.49c-.23-.85-.2-2.66.1-6.47A14.89,14.89,0,0,0,140,11.2a7.76,7.76,0,0,0-3.37-2.11.53.53,0,0,0-.45,0l-.28.25-.36.08-.22,0a2.56,2.56,0,0,0-1.22.43,7.71,7.71,0,0,0-1.35,1.57,7.06,7.06,0,0,1-1.57,1.78c-.53.34-.62.85-.72,1.95a13.59,13.59,0,0,1-.3,2.08c0,.1,0,.17-.06.23l-.36,1.1-1.15-.13a7.47,7.47,0,0,1-1.07-.24,6.35,6.35,0,0,0-1.23-.26c-.39.37-1.23,2.56-3,10.83l-.13.58-.22.27a14.71,14.71,0,0,1-2.2,1.8c-.57.42-1.12.82-1.58,1.2a25.22,25.22,0,0,1-3.92,2.25,32.72,32.72,0,0,0-3.38,1.87c-.46.32-1.25.94-2.24,1.73-3.4,2.68-6.88,5.37-9,6.32l.12,0a4.08,4.08,0,0,1,1.78.65l.95.66L103,47.24a2.53,2.53,0,0,1-.75,1.07l-.18.13-.21.07c-.62.22-1.27,0-2.59-.42l-.57-.19c-.59-.23-1-.22-1.16,0s-.15,1.42.39,2.59l.2.43-.1.46a5.69,5.69,0,0,0,.1,2.16c0,.21.08.43.1.61l.21,1.6H96.72l-.62,0a12.74,12.74,0,0,0-2.56.54,10.15,10.15,0,0,1-1.73.4l-1.4.14c-1.12.12-1.86.2-2.21.2a9.37,9.37,0,0,0-2.22.88c-.66.31-1.33.63-1.89.83a2.57,2.57,0,0,1-1.69,2.75,4.87,4.87,0,0,0-.88.5v.33l-.26.37a6.29,6.29,0,0,1-2.49,1.62c0,.51-.13,1.36-.26,2.08l-.26,1.45-1.44-.31a2,2,0,0,0-.72,0,4.49,4.49,0,0,1-1.3,0,6.32,6.32,0,0,0-1.6,0,2.06,2.06,0,0,1-.45,1.69A2.27,2.27,0,0,1,71,70a3.42,3.42,0,0,0-3.16,1.34,5.78,5.78,0,0,1-2.65,1.56,6,6,0,0,0-1.34.62l-.27.21-.34.06A5.41,5.41,0,0,1,61,73.47l-.8-.26-.25-.61-.17-.41c-.59-.7-1.65-.34-2.19,0a20.53,20.53,0,0,1,1,2.45l1.11,3.49-3.17-1.83c-.51-.3-1.89.29-4.07,2.92l2.17,6-.82.63a1.55,1.55,0,0,0-.67,1.76,6.85,6.85,0,0,1,.21,1.12l.47-.57-.46,1.27a2.2,2.2,0,0,1-.07.44l-.17.59-.16.08-2,5.41c-.06.18-.13.35-.2.52-.22.55-.36.93-.26,1.15l.1.31c.11.55.2,2,.31,3.87a31.85,31.85,0,0,0,.47,5.05c.35,1,1.22,4,.95,5.68a4.59,4.59,0,0,1-1.38,3c-.44.55-1.08,1.24-1.69,1.91a17.4,17.4,0,0,0-1.89,2.24l-.13.27-.23.19a7.29,7.29,0,0,1-1.08.69l-.38.2-7.13-.69c-.12.36-1.64,5.17-2,6-.27.68-.68,2-.86,2.66v4.05H33.94c0,1,.12,4.21.25,7l0,1-1,.36a52.6,52.6,0,0,1-9.1,2.58c-.46.08-1,.14-1.49.19-1.33.13-2.7.27-3.18,1.06-.17.27-.17.53-.14,1.21,0,.23,0,.47,0,.72a22.62,22.62,0,0,1-.49,4.06c-.08.41-.15.83-.22,1.26-.38,2.36-.14,3.86.82,5,1.7,2.07,7.1,3,9.17,1.66.88-.59,1-2.09.91-3.48-.12-3.9.14-8.3,4.81-11l.6-.35.64.25a11.18,11.18,0,0,0,3.11.63l1.07.08.16.82h3.53l-.17.77h4.18v1.42c0,3.11.33,4.56.62,4.85,1.17,1,4.69,3,5.57,2.74.64-.32,3-1.75,3.85-2.31a3.33,3.33,0,0,0,.53-.47l1-1,1,1a4.75,4.75,0,0,0,.4.34,3.84,3.84,0,0,0,1,.62l.64.22.23.64c.53,1.44.57,1.46,1.61,1.93l.43.2c1.41.67,2.65,3.44,2.76,3.69.44-.14,9.24-2.93,10.49-3.08a29.36,29.36,0,0,1,4.78.51,5.91,5.91,0,0,0,2.62-.15l.33-.11a8.14,8.14,0,0,1,1.16-.08c1.16,0,2-.09,2.25-.56a4,4,0,0,1,3.08-1.51,18.44,18.44,0,0,0,3.48-.77l.13,0,.69-.19.23,0,2.69-.25,2.65-.26.24,1.27c.07.39.17.75.26,1.08a6.25,6.25,0,0,1,.3,2c0,.63-.15,1.68-.32,3.12l-.11.93-2.32.69-.43,4.3H94.73l-.09.77H93.1l-.17.94H91.47l-.09.6-2,.43-.17.86-3-.59a2.88,2.88,0,0,1-1,2c-.26.18-.57.37-.9.55l-.09.05a7.63,7.63,0,0,0-1.92,1.37l-.14.17,1.05.72-2.28,1a29.87,29.87,0,0,1-4.64.91v1.2H74.81l-.17.86h-.52l-.26.95H73l-1.11,1.45v2.76H69.57l-.17,1H66.23l-1,1.37H62.69l.35,7.35h1.38l-.26,4.23-.25.34c-1,1.41-1.17,1.88-1.15,2a2.32,2.32,0,0,0,.71.29,4.11,4.11,0,0,1,1.38.58l.25.26a8.33,8.33,0,0,1,.77,1.51,6.81,6.81,0,0,0,.69,1.33,31.27,31.27,0,0,0,3.31,3.49l.24.22c.34.39,1.12,1.53,2.09,3a33,33,0,0,0,3.21,4.39c.39.28,1.42,1.22,3,2.61,1.7,1.54,3.44,3.12,3.91,3.4l.42.23c1.27.7,4.62,2.54,5.69,5.35.29.13.57.23.82.32s.52.19.69.27l.73.36.06.82a4,4,0,0,1-.06.9,14.8,14.8,0,0,0,1.13,1,2.94,2.94,0,0,1,1.19,1.54c.45,1.28,2.16,7.29,2.49,9.3a2.23,2.23,0,0,1-.78,2.54,7.5,7.5,0,0,0-.6.57c-.67.73-2.8,4.11-4.07,6.13l-.19.3c-.45.71-.78,1.24-.89,1.39s-.15.2-.25.3c-1.14,1.3-.65,1.78-.33,2.1l.34.34.06.48A8.31,8.31,0,0,1,87.6,260c-.12.27-2.93,6.55-3.61,7.82l-.51,1-1.13-.09s-.11,0-.26.09a10.34,10.34,0,0,0-1.53,2.56l-.31.75-.8.12-.33-1.38.22,1.4c-.86.13-1.58.28-1.71.67s-.67,1.6-1.78,4.07c-.67,1.49-1.23,2.74-1.31,3-1,2.87-2.66,8.57-2.66,9.7,0,.42,0,.89-.09,1.46-.12,1.32-.18,2.34.25,2.56a15.29,15.29,0,0,0,2.88.91l.8.2.22.79a2.78,2.78,0,0,0,.74,1.19c2.24.78,5.25.06,5.9-.6a18.25,18.25,0,0,0,2.57-4c.68-1.44,3-3.08,4.39-3.79.71-.36,1.21-.67,1.33-1.07a1.15,1.15,0,0,0-.22-.88,2.68,2.68,0,0,1,.26-3.54,2.73,2.73,0,0,1,2.71-1,9.86,9.86,0,0,0,1.68,0A2.81,2.81,0,0,0,98,279.82l.05-.12c.35-.79.08-3-.42-3.41s-.69-1.23-.69-2.42.48-3.67,1.81-4.82,1.95-.92,3.57-.57l.23,0a29,29,0,0,0,6.68.6l.88-.1c1.23-.15,3.05-.36,4.23-.36h1.5l-.09,1.5a2.39,2.39,0,0,0,0,.53,4.28,4.28,0,0,0,.58,1.23,7,7,0,0,1,1.23,4.09c-.05.82-.16,1.56-.26,2.21-.23,1.57-.34,2.55.22,3.21l.37.44,0,.57a7.13,7.13,0,0,1-2.09,3.53,8.4,8.4,0,0,1-.77.67c-.85.67-1.28,1.08-.86,2.23.54,1.47,2.46,3.65,5.15,5.83a3.73,3.73,0,0,1,1.53,2.22,3.07,3.07,0,0,0,1.3,1.9c1.74,1.38,3.22,3.85,3,5.07l0,.29-.15.25a11,11,0,0,1-1.15,1.46,14.26,14.26,0,0,0-1.6,2.06c-.75,1.23-.31,2,.4,2.86l.36.39.05.23a5.44,5.44,0,0,1,.22,1.67c.07,1.55.2,2.79,1.14,3.43a6.65,6.65,0,0,0,1.12.61l.46.2.23.44c.09.18.23.47.31.63a2.54,2.54,0,0,0,3.09,1.49Zm140.14-18.22h0ZM99.43,274.11h0Zm-16.75-6.94h0Zm-19.4-63.1Zm20.37-33.92h0Zm179-3.83Zm-171.62-7.5Zm151-19.19ZM51.18,90.9h0a2.37,2.37,0,0,0-1.79,2.59l2.11-2.57Zm130.66-3.24-.11.2h.08ZM135.2,8l0,.09Z"/></svg>