<svg id="Layer_1" data-name="Layer 1" xmlns="http://www.w3.org/2000/svg" viewBox="0 0 350 350"><defs><style>.cls-1{fill:#999;}.cls-2{fill:#f90;}</style></defs><title>M</title><path class="cls-1" d="M14.89,86.2l0-.25A.92.92,0,0,0,14.89,86.2Z"/><path class="cls-2" d="M13.53,86.58a2.3,2.3,0,0,1-.08-.63l2.82-.17,0,.17h0a.59.59,0,0,0,0-.13l-.48.14h.5Z"/><path class="cls-1" d="M196.13,304.93c.27-1.94.89-6.48.82-6.77s-.19-16.69-.19-19.42-1.51-7.82-1.51-7.82l3.3-.38L199,267h4l3.21-3.77a46.89,46.89,0,0,1,.94-7.17s13.67-11,13.86-13-.85-8.58-1.51-11.22-2.07-2.83-2.92-3.77-6.41-.66-6.41-.66l-.47-2.92,5-.38,12.63-.57,1.41-4.9,5.37,1s.38-1.79,1.89-2.07c.28,1.32,2.26.85,2.26.85A6,6,0,0,0,240.7,215c1.41-2.83-1.32-2.64-2.92-3.3-.28-.85-.28-2.83-1.7-4.43-1.6-1.51-2.24-5.87-2.24-5.87-1.84-2.33-4-2.19-6.58-4.6-2.12-4.74,2.83-6.5,5.73-8.41,4-2.76,6.72-.92,6.72-.92s4.2-2,4.62-3.44,2-3.44,1.93-5.75a60.26,60.26,0,0,1,.14-8c.24-1.27,5.28-8.67,5.28-8.67s2.17-.38,2.5,0,2.64.38,4.57,1.13a4.44,4.44,0,0,1,3,2.64c1.37,2.26,2.17.85,2.55.28.71.24,7.92.42,9.85.66,1.08,2.59,3.21,1.74,3.21,1.74s.94,5.09,1.13,6.69c.28,1.32,3.21,1.51,3.21,1.51l.24,1.37s6.36-.14,8.77,0c2.78,1,1.27,5.37,1.27,5.37s.33,11.74,1.37,12.26a4.82,4.82,0,0,0,2.12.47l3.58-3.25,6.46,1.32a26.8,26.8,0,0,1,2-2.07c.14,0,5.7-3.58,5.7-3.58s.28-1.08-.94-4.62-1.51-8.3-1.13-9.71,5.94-3,5.94-3c.61-1.89,5.18-4,5.8-3.44s2.88,2.07,2.88,2.07l1.37,1.74,6.36,4.85,4.2-3.63,4.67-5.61a5,5,0,0,0-.94-1.32c-.85-4.38,2.78-2.92,2.78-2.92v-3.39h-2.4V156.7l-1.46-.66s-3.82.94-2.83-.59.24-1.39-.33-2.85-2.64-1.7-5.61-3.35c-2.12-2.88,1.74-.85,2.5-1.13s-.47-3-1.37-3.35-.47-1.32.8-.9,1.13-.24,1.13-.24,1.32-.33.57-2.73-.61-3.39.33-5.18c1.23-2.69,0-1.93-1.46-1.79-1.41.75-1.7,0-2.45-1.89s-.28-2.31-1.41-4c-1.84-1.84-7.12-.66-8,.57a3.42,3.42,0,0,1-4,1.23c-1.32-.85.47-2.92,1.6-4.05,1.37-1.56.9-2.31.28-3.49s-3.49-3.63-4.24-5.42.61-4,.42-4.76c-2.17,3.06-6.55,2.45-8.72,2.07.38.19.28.61,0,1.18a7.47,7.47,0,0,0-.75,1.51c-.09.47.38,2.45,0,3.54s-.9,1.32-1.56,2.4-.47,2-.85,3.68-1.32,1.7-3.39,3-4.34.38-5.23.09a5.14,5.14,0,0,1-2.22-1.93,3.65,3.65,0,0,0-3.87-.75c-1.79.47-.85-2-.42-2.88.24-.85-.9.19-1.6,1.74-4.57,1.84-4.9-1.23-5.28-1.93s-.9.09-2.5.14-4.29,2.22-5.37,3.06-.85,2.59-1.46,6.65c-.57,5.09-2.78,5.52-3.63,6.6,0,.75,1.56,5.33,1.56,7.78a12.85,12.85,0,0,1-1.51,6c-.75,1.32-1,1.79-2.78.66a5.61,5.61,0,0,0-4-2.4,2.55,2.55,0,0,1-3.11-1.7c-.14-1.08,1.46-1.13,1.46-1.13a12.58,12.58,0,0,1-.94-2.26c0-.52-.71-1.08-1.56-2.83s-4.67-3.3-5.8-3.72c-5.42.47-4.95-3.21-5-3.82s3.11-5.75,3.11-5.75a32.8,32.8,0,0,1-4-2.22,6.51,6.51,0,0,1-1.13-5.61c.52-1.37,1.32-8.15,1.7-10.13s-2.69-2.07-5.7-3.16c-4.76-3.87-.47-11-.47-11a2.18,2.18,0,0,1,2.45-1.37,3.73,3.73,0,0,0,2.88-.47,21.13,21.13,0,0,1-3-2.36,12.68,12.68,0,0,1,.66-2.22s-2.78-.47-2.88-.24-.9,2.07-2.4,1.32c-1.18-1.18-.75-4.9-.42-6.32s3-3.72,3.21-4.57.47-1.08.24-2.07c-.18-.25-2.84-.23-4.08-.2a18,18,0,0,1-.54,4.4c-.47,1.27-.66,1.41-2.64,2.78-3-2.17-3.91-.47-5.47-.75s-1.79-2.36-1.79-2.36a21.34,21.34,0,0,1-3.91,3.77c-2.31.14-2.31-1.51-2.31-1.51l-2.45-6-7.12-.57a13.55,13.55,0,0,1,.75-1.46c.94-4.29-2.26-5.94-2.26-5.94l-8.34-5.14-1.23.47-2.36,1.46-2-.71-.85,1s-2.88,0-3.21.29c-4.1.1-3.25,3.43-3,4.42s1.37.9,2.36,1c1.13.42,1.18,2.26,1.08,2.88.75,1.6,4.24,2.45,4.24,2.45L197,84.2l2.17.09-.28,1.93a9.38,9.38,0,0,1,2.12.33c1.08,1,0,2.83-1,4.05s-1,1.56-2.4,1.7-1.13.47-1.41,2-1.37.47-3.3,1.41c-1.93.28-1.41-3.44-1.41-3.44a3.5,3.5,0,0,0-1.27,1.18c-.57.85-2.22.47-3.68.24s-1.13,1.93-.33,2.45,1.27,2,1.93,3,.75,3.58,0,4.43-2.73.42-4.15,1.27c-1.32,2.64.24,8.06.24,8.06s.71.24-1.84.42c-3.72.09-4,1.79-4.9,3s-3.11,3.58-4.34,3.87-2.4-2.36-2.4-2.36-2.07-2.31-3.91-2.78c-2.12-.14-4,2.88-4,2.88a31,31,0,0,1-3.11-2.22c-2.64-2.26-3.82-2.55-5.56-1.7-1.32,1.13-4.67,9.19-5.75,11.22.75.38,3.87,0,5.19.61s3.58,1.6,5.47,2.55a16.89,16.89,0,0,1-3.54,6.69c-2.22,2.17-2.36.8-3.35-.38a5.66,5.66,0,0,0-2.55-1.93c-1.13-.52-1.79-.75-1.79-.75s.19-1.08-1.08-1.08-.94-1.32-2-1.41a5.59,5.59,0,0,1-3.49-1.65c-2.64-3.44-11.17-5.7-12.68-6.65s-5.47-2.5-6.74-3.87c-2-4.1,2.45-5,2.78-5.51s.52-2.22,1.84-2.31.9-.28.9-1.51c-.61-3.54-2.59-.24-3.87-2.73-1.08-2.59-.19-3.35-1-4.62-2.5-1.56-3.87-3-3.35-4.34.57-1.89,0-3.87-.85-4.34-1.93-.47-1.7-2.17-2-3.3a10.48,10.48,0,0,1-2.07-5c-.42-2.12,0-3,1.37-3.16.09-1.51,1.37-1.18,2.31-1.08-.09-1.13,2-1.32,2.45-.9s.8,1.27,1.6,2.12,1,.57,1.23-.66c1-3,2.26,0,2.26,0,.33-1.27,2.5-.14,3.58,1.41,0-.85.14-1.65.24-3.16.09-.94,3.82,1.08,4.1,0s2.22-1.6,2.92-2.31,3.16.28,5.51-.38c-1.51-1-6.79-11.88-7.64-13.1s-3.68-3.68-4.34-4.62,2.17-2.92,2.17-2.92a7.49,7.49,0,0,0-1.13-2.45c-2.17.09-.38-1-1.41-2.07-1.24-.77-9-6.25-11.77-8.19h0a4.42,4.42,0,0,1-.35.69c-.24.33-4,4.62-8.44-1.18-1.37-.19-3-.9-4.86.28-1.32.09-2.64-.75-4.48.8-1.08,0-3.87.33-5.7-.66a2.17,2.17,0,0,0-1.51,2s-2.22-.75-2.45,4c-1.18.38-10.84,1.56-11.22,5.37a20.88,20.88,0,0,1-.47,4.43,37,37,0,0,1-4.29.38c-.8-.09-2.55,1.93-2.83,2.45s-6,2.83-7.92-1.13a1.69,1.69,0,0,0-.75-2.36c-.8-.24-2.83-.66-1.93,2,.42,1.74-.9,3.06.28,4.76s2.88,4.48,2.88,5.33c-2.36-1.18-5.18-1.09-6.93-1.46s-2.83-1.13-3.16-1.08.57,0,0-1.08S50,64,49.56,64s1.51-1.51-.24-1.93S43.57,57.34,42,59.41c-1.32.42-4,1.37-3.54,3.87,1,.24,2.31,1.13,1.13,1.84s-3.16.24-1.74,3.44c0,.38-.47,2.69-2.26,1.18-.94-1.18-7-2.36-8.3-2.4s-5.52.59-6.5,2.91a3.31,3.31,0,0,1,0,2.35,19.37,19.37,0,0,0-.94,3.68c-.21,1.34-2,4.31-2.12,6s-.92,3.46-1.48,3.68-1.17.76-1.31.25c.31,2.66.15,2.94-.95,3.15l-1.41-.14v7.07S14.93,96,14.72,98s-.57,6.15-.57,6.15l-6,.42s-.71,2.69,0,3.54a2.2,2.2,0,0,1,.07,3.61c-1.2,1.27-2.33,2.4-2.33,2.4s3.46.49,4.24,1.06,4,.49,5.23-.57c1.48-.07,3.54-.21,4,3,.42.78,4,2.76,4,2.76s6.58,4.38,8.41,6.29a19,19,0,0,0,5.16,1.56c.57.21,1.34.35,0,2.47a13.26,13.26,0,0,0-2.05,5c-.42.85-5.16,4.81-5.52,5.52s-.57,2.33.71,4.67c0,.21-1,1.06.85,2.33,1.34,1.48,1.91,1.63.85,3.11s-1.84,2.19-.07,5.09c.64.49,1.91,3.39,2.05,3.75a12.54,12.54,0,0,0-4.38,3.25s-2.4,5.09-2.4,5.3-5.59,8.56-5.8,9.05a6.52,6.52,0,0,0-.35,3.61c.92,1.27,1.77,2.55,1.77,2.55s2.55-.14,2.47,2.9c1.13-.35,3.61-1.56,4.17-1.41s2.69,2.47,3.54,3.89,1.27,3.18,1.77,4.17,1.91,1.13,2.05,2.69.64,1.56.64,3.25,1.06,1.63,1.84,1.91,4.53,1.84,5.44,2,9.12.14,9.62,0a11.88,11.88,0,0,1,2,2.33L57.64,208s2.62.71,3.68,2.19c1.84-1.13,3.25-2.47,4.17-2.33.92-.07,4.45,1,4.45,2.33-.49,1.13-.92,2.12-.35,3.32.57.78.71,2.69-.14,4.53-.07,1.56.49,4.1-.21,5s-4.81,3.39-5.66,4.17-4.24,2.4-4.6,3.25a21.93,21.93,0,0,1-4.6,5c-1,.49-4.17,2.62-5.59,1.34,2.12,3.89,3.82,7.57,3.82,7.57s3.75,1.06,4.81,2.33,3.68,4.31,4,4.45,3.25,5.16,3.25,5.16,3.61,2.69,4.1,6.72c.42.35,3.25,1.7,2.4,4.38-.21.78.71.92,1.41,1.77s.35.35-.49,1.48-.5,1.7-.78,3.75a36.7,36.7,0,0,1-4.6,6.93c-.64.49-1.2,1.84,1.56,1.84s4,1,5.66,2.19,4.38,2.76,5.94,6.08c1.48-1.06,4.17-4.95,5.59-4.95a12.43,12.43,0,0,1,6.79,1.56c3.39.07,4.67-.49,6.72.57a14.25,14.25,0,0,1,5.66,4.6c2,1.34,3.46,3.61,4.38.78.49-3.39,1.41-6.5,2.47-7.49s2.83-2.83,3.61-3c-.21-1.91-.49-2.4,1-2.4s5.23.07,6.79.07,6.29-1.41,7.49-1.63a16,16,0,0,1,.42,3.89c.07,1.63,0,9.9,0,9.9l-.42,2.83s5.59.07,7,.64,3,2.47,3.68,2.55c1.2.07,9.76.35,9.76.35s-.14-2.19,2.47-1.56c2.47.85,5.23,1.56,5.23,1.56s0-4.1,1.48-5c1-1.06,2.62-2.4,4-2.47s4.17-.14,4.17-.14,1.7-.92,3.46,1.34c1.27,1.27,1.91,2.62,2.47,3.18a13,13,0,0,1,3.32,3.61c1.06,2,1.06,1.77,1.48,2.76,2.76.21,4.53.49,4.88,1a11.85,11.85,0,0,0,2.26,1.56l5.94,3.25s1.34-3,2.47-3.61A5.08,5.08,0,0,1,196.13,304.93Z"/><path class="cls-2" d="M192.65,310.72l-7.29-4a10.85,10.85,0,0,1-2.6-1.81,16,16,0,0,0-4-.57l-.86-.07-.34-.79a6.59,6.59,0,0,0-.49-1c-.19-.32-.46-.78-.94-1.69a9.16,9.16,0,0,0-2.42-2.7c-.27-.23-.5-.42-.66-.57a8.2,8.2,0,0,1-.92-1.21,12.75,12.75,0,0,0-1.55-2l-.11-.13c-.93-1.19-1.6-1-1.73-.94l-.3.16-.29,0s-2.73.07-4.14.14a5.93,5.93,0,0,0-3.07,2l-.29.24c-.41.3-.81,2.19-.81,3.81v1.83l-1.77-.45c-.11,0-2.79-.72-5.27-1.56a1.32,1.32,0,0,0-.66,0h0s0,.1,0,.17v1.48h-1.47c-.35,0-8.59-.28-9.79-.36a4.38,4.38,0,0,1-2.23-1.3,8.86,8.86,0,0,0-1.89-1.35,33.37,33.37,0,0,0-6.49-.54l-1.62,0,.65-4.34c0-.94.06-8.25,0-9.73l0-.54c0-.67,0-1.2-.1-1.69l-.64.16a30.54,30.54,0,0,1-5.75,1.16l-3.48,0-3,0,0,.14c0,.21.06.44.08.69l.13,1.2-1.17.32a19.59,19.59,0,0,0-2.3,2l-.72.69c-.5.46-1.45,2.62-2,6.66l-.05.23a3.21,3.21,0,0,1-1.91,2.25c-1.32.39-2.42-.52-3.48-1.4-.37-.31-.76-.63-1.14-.89l-.19-.13-.14-.19a12.88,12.88,0,0,0-5.18-4.19,5.81,5.81,0,0,0-3.4-.46c-.72,0-1.61.07-2.7,0h-.37l-.32-.19A10.86,10.86,0,0,0,85.6,288h-.09A14.45,14.45,0,0,0,83,290.4a17.18,17.18,0,0,1-2.28,2.25l-1.39,1-.72-1.54A12.66,12.66,0,0,0,73.71,287l-.63-.44-.52-.37a5.87,5.87,0,0,0-4.29-1.56h0c-1.9,0-3-.56-3.42-1.67a2.49,2.49,0,0,1,1-2.7,40.68,40.68,0,0,0,4.09-6.18c.06-.52.08-.93.1-1.3a4.54,4.54,0,0,1,.92-2.93l.1-.13-.12-.09a2.33,2.33,0,0,1-1.13-2.56c.32-1-.1-1.7-1.53-2.63a5,5,0,0,1-.42-.29l-.43-.36-.07-.56c-.41-3.36-3.51-5.73-3.54-5.76l-.22-.17-.15-.24c-1.21-2-2.7-4.47-3-4.88a50.55,50.55,0,0,1-4.06-4.55,11.78,11.78,0,0,0-4.11-1.88l-.63-.18-.27-.59s-1.7-3.68-3.78-7.48l-4-7.27,6.16,5.54c.08.07.6.33,3.4-1.23l.6-.33a24,24,0,0,0,3.93-4.32c.36-.88,1.5-1.59,3.32-2.69a16,16,0,0,0,1.62-1A26.73,26.73,0,0,1,65,224.43a34.69,34.69,0,0,0,3.07-2.24,9.06,9.06,0,0,0,0-2.3A17.1,17.1,0,0,1,68,218v-.28l.12-.25a4,4,0,0,0,.28-3.1l-.14-.23a4.54,4.54,0,0,1,.07-3.86,7.08,7.08,0,0,0-2.79-1h-.21a9.07,9.07,0,0,0-1.66,1c-.51.36-1.06.74-1.65,1.11l-1.13.69L60.16,211a6.19,6.19,0,0,0-2.9-1.65l-.48-.13-1.92-2.67a17.28,17.28,0,0,0-1.31-1.7c-2.44.14-8.79,0-9.35-.06a31.92,31.92,0,0,1-4.71-1.66l-1-.39-.3-.09a2.92,2.92,0,0,1-2.47-3.15,3.72,3.72,0,0,0-.24-1.47,8.16,8.16,0,0,1-.39-1.58c0-.36-.11-.45-.63-.85a4,4,0,0,1-1.28-1.41c-.25-.51-.51-1.16-.78-1.85s-.62-1.57-1-2.28a17.38,17.38,0,0,0-2.62-3.1c-.46.14-1.26.46-1.78.67s-1.19.48-1.64.62l-1.89.59,0-2a1.73,1.73,0,0,0-.31-1.19,1.11,1.11,0,0,0-.7-.26h-.77l-.46-.64s-.84-1.25-1.74-2.5l-.16-.23-.07-.27a8,8,0,0,1,.43-4.49c.13-.3.56-1,2.87-4.5,1.12-1.71,2.63-4,2.92-4.52s.77-1.84,2.44-5.38l.21-.32a15.8,15.8,0,0,1,3.6-3,11.82,11.82,0,0,0-1.11-2l-.21-.16-.08-.18c-2-3.27-1.28-4.71-.06-6.39l.19-.27c.1-.14.16-.24.21-.31l-.39-.41-.46-.49c-1.33-1-1.83-2.14-1.46-3.34-1.39-2.95-.68-4.83-.42-5.36s.83-1.08,2.86-3c.88-.81,2.15-2,2.58-2.49A15,15,0,0,1,35.66,130c.12-.19.21-.34.28-.47l-.15,0A15.41,15.41,0,0,1,31,128l-.19-.1-.15-.16a77.24,77.24,0,0,0-8.13-6.07c-2.55-1.43-4.05-2.54-4.46-3.29l-.13-.23,0-.26c-.23-1.76-.82-1.86-2.07-1.83-1.84,1.15-5.3,1.22-6.55.32a17.87,17.87,0,0,0-3.61-.8l-2.81-.4,2-2S6,112,7.19,110.78l.08-.08a1.12,1.12,0,0,0,.44-.74,1,1,0,0,0-.44-.7l-.21-.21c-1.06-1.27-.55-3.78-.28-4.8l.26-1,5.82-.41c.12-1.38.32-3.62.46-5a.57.57,0,0,0,0-.19,3.72,3.72,0,0,0-.63,0l-1.55.15,0-1.56V87.63l2.5.25c0-.29,0-.76-.13-1.52l2.77-.54a1.16,1.16,0,0,0-.6-.7,1.08,1.08,0,0,0-.79-.09l.24-.12.39-.2a6.11,6.11,0,0,0,.78-2.55,14.15,14.15,0,0,1,1.32-4A13.38,13.38,0,0,0,18.41,76c.08-.39.15-.7.21-1a14.11,14.11,0,0,1,.8-2.94,2.1,2.1,0,0,0,0-1.25l-.31-.59.29-.56c1.4-3.29,6.64-3.82,7.86-3.77.46,0,6.8.87,8.94,2.54a3.58,3.58,0,0,1-.11-2.76,2.5,2.5,0,0,1,1.19-1.21l-.13,0L37,63.54c-.46-2.43.93-4.23,4.12-5.35,1.84-1.81,4.53,0,6.35,1.27a9.53,9.53,0,0,0,2,1.19l.12,0A2.23,2.23,0,0,1,51.35,62a2,2,0,0,1,.12.94,5.38,5.38,0,0,1,3.24,2,3,3,0,0,1,.31.82,9.85,9.85,0,0,0,1.9.64c.47.1,1.09.17,1.74.24s1.48.17,2.29.31c-.41-.69-.91-1.46-1.44-2.23a4.56,4.56,0,0,1-.58-3.83,3.49,3.49,0,0,0,.1-1.36c-.46-1.41-.34-2.5.37-3.23.5-.52,1.49-1,3.33-.49a2.79,2.79,0,0,1,1.78,1.77,3.23,3.23,0,0,1,.14,1.81,2.32,2.32,0,0,0,1.33.86,6.43,6.43,0,0,0,4-.56c.58-.82,2.35-3.1,4-2.9a23.65,23.65,0,0,0,2.92-.24,15.9,15.9,0,0,0,.26-3.08v-.21c.42-4.24,7.68-5.68,11.17-6.37l.14,0c.24-1.88.85-3.13,1.86-3.81a2.88,2.88,0,0,1,.8-.38,3.71,3.71,0,0,1,2.11-2l.61-.24.58.31c1.27.69,3.43.58,4.51.52a5.16,5.16,0,0,1,4.07-.88l.54.06a6.41,6.41,0,0,1,4.7-.41c.25.05.5.1.74.13l.58.08.35.46c1.24,1.62,2.46,2.45,3.64,2.46h0A3.71,3.71,0,0,0,116.11,42l.18-.4L117,40l1.43,1c5,3.53,10.72,7.53,11.7,8.14l.25.2a2.51,2.51,0,0,1,.76,1.64h.14l.42.35a7.26,7.26,0,0,1,1.59,3.15l.28,1-.83.58a8.81,8.81,0,0,0-1.5,1.33c.36.39.91.94,1.42,1.44a24.61,24.61,0,0,1,2.6,2.81c.3.43.87,1.52,1.95,3.55,1.45,2.75,4.47,8.47,5.35,9.21l2.5,1.72-2.94.8a10.94,10.94,0,0,1-3.91.2,9.24,9.24,0,0,0-1.12-.05,7.27,7.27,0,0,1-1.32.85,4.67,4.67,0,0,0-1.12.74c-.48,1.88-2.74,1.29-4,1l-.17,0-.06.7c0,.44-.07.81-.09,1.19l-.23,4.11-2.35-3.37A4.28,4.28,0,0,0,126.54,81l-.85,3.3L124.28,81A1.91,1.91,0,0,1,123,82.42a2.23,2.23,0,0,1-2.19-.87A10.83,10.83,0,0,1,119.65,80l-.23-.34-.16,0,.1,1.25-2-.21-.43,0-.06,1-1.14.16a.84.84,0,0,0-.28.07,3.53,3.53,0,0,0,.1,1.4,9.31,9.31,0,0,0,1.76,4.4l.2.23.09.29a8.45,8.45,0,0,1,.2,1c.18,1.07.27,1.22.8,1.35l.19,0,.17.09c1.57.87,2.25,3.55,1.52,6l0,.11s-.15.79,2.78,2.61l.28.17.17.28a4.15,4.15,0,0,1,.6,2.41,5.58,5.58,0,0,0,.47,2.37.75.75,0,0,0,.16.23l.41,0c1.33-.14,2.91.05,3.41,2.9l0,.24a5.17,5.17,0,0,0,0,.56,2,2,0,0,1-.38,1.64,2.49,2.49,0,0,1-1.87.72,3.39,3.39,0,0,0-.37.81,4.23,4.23,0,0,1-.38.84,2.71,2.71,0,0,1-1.21.91c-1.62.81-2.32,1.39-1.59,3a22,22,0,0,0,4,2.27c.94.46,1.76.86,2.34,1.22a23.32,23.32,0,0,0,2.4,1c3.37,1.27,8.44,3.18,10.61,6A4.21,4.21,0,0,0,144.8,128a2.5,2.5,0,0,1,2,1.36l0,.06a2.43,2.43,0,0,1,1.85.83,2.24,2.24,0,0,1,.38.64l1.11.49a7,7,0,0,1,3,2.31c.21.25.38.5.54.73l.08.12a6.79,6.79,0,0,0,.65-.57,15.5,15.5,0,0,0,2.83-4.93c-1-.49-2.1-1-3-1.38l-1.37-.63a9.69,9.69,0,0,0-2.61-.27,6.42,6.42,0,0,1-2.61-.36l-1.3-.65.69-1.29c.31-.58.84-1.75,1.46-3.09,2.39-5.22,3.63-7.69,4.61-8.53l.3-.2c2.64-1.28,4.46-.37,7.1,1.9.78.6,1.39,1.05,1.86,1.38.94-1.09,2.53-2.51,4.43-2.37l.26,0c2.19.56,4.37,2.94,4.62,3.21l.15.17.09.2a5.31,5.31,0,0,0,1,1.48,13.24,13.24,0,0,0,3.29-3.2c.18-.24.29-.43.41-.61.72-1.15,1.8-2.89,5.64-3h.17c-.42-2-.91-5.46.2-7.69l.18-.37.35-.21a7.1,7.1,0,0,1,2.78-.82,4.57,4.57,0,0,0,1.08-.22,4.38,4.38,0,0,0-.14-2.64,11.54,11.54,0,0,1-.77-1.34,5.3,5.3,0,0,0-.77-1.25,3.34,3.34,0,0,1-1.16-3.68,2.17,2.17,0,0,1,2.48-1.36l.43.07a8.4,8.4,0,0,0,1.92.19A4.81,4.81,0,0,1,190.84,91l2.36-1.1-.36,2.58a5.86,5.86,0,0,0,0,1.7,6.6,6.6,0,0,1,1.91-.35h0c0-.18.05-.33.07-.45.2-1.45.66-2.27,2.56-2.46.57-.06.57-.06,1-.62l.44-.56a5.16,5.16,0,0,0,1.1-1.92c-.63-.12-.93-.15-1-.16l-1.77.26.33-2.26-1.9-.08-.15-3.44c-1.33-.45-3.42-1.37-4.15-2.92l-.18-.39.07-.43a2.62,2.62,0,0,0-.17-1.29l-.17,0c-.9-.09-2.56-.26-3.06-2a5.07,5.07,0,0,1,.43-4.54,4.49,4.49,0,0,1,3.52-1.67,9.26,9.26,0,0,1,2.95-.31l1-1.23,2.3.8,2-1.22,1.88-.72,8.9,5.48a6.63,6.63,0,0,1,3,7.38l5.94.47,2.92,7.2,0,.18a.89.89,0,0,0,.46.1,21.71,21.71,0,0,0,3.24-3.25l2.13-2.62.38,3.35c0,.27.25,1.05.64,1.12a2,2,0,0,0,.8-.13,5.06,5.06,0,0,1,4.39.57c1-.72,1.07-.85,1.33-1.56a17.3,17.3,0,0,0,.45-3.94l0-1.36,1.36,0c4.27-.08,4.78.13,5.26.8l.16.23.06.27a3.66,3.66,0,0,1-.1,2.24c0,.13-.09.28-.13.47a6.27,6.27,0,0,1-1.59,2.38,10.06,10.06,0,0,0-1.62,2.21,11.59,11.59,0,0,0-.15,4.6,1.62,1.62,0,0,0,.28-.45c.5-1.24,1.79-1.08,4.43-.63l1.69.29-.6,1.61c-.16.44-.32.91-.44,1.26.54.43,1.47,1.1,2.26,1.64l1.48,1-1.33,1.21a5.08,5.08,0,0,1-4.14.81.7.7,0,0,0-.82.51l-.1.2c0,.06-3.48,6,0,9.05.66.22,1.32.41,2,.58,2.17.59,4.88,1.33,4.42,4.06-.13.69-.32,2-.51,3.36a51.13,51.13,0,0,1-1.25,7,5.27,5.27,0,0,0,.75,4,32.51,32.51,0,0,0,3.62,2l1.43.68-.83,1.35a56.16,56.16,0,0,0-2.9,5.14s0,0,0,.07a2.17,2.17,0,0,0,.51,1.67,4,4,0,0,0,2.94.53l.32,0,.3.11c3.69,1.38,5.84,2.84,6.59,4.46a14.35,14.35,0,0,0,1,1.69,3.48,3.48,0,0,1,.7,1.6,16.47,16.47,0,0,0,.79,1.74l1,2-.51,0,.36.13.21,0a6.56,6.56,0,0,1,4.33,2.66l.25.14.28-.47a11.51,11.51,0,0,0,1.32-5.33,27.31,27.31,0,0,0-1.06-5.42,11.46,11.46,0,0,1-.5-2.36v-.49l.3-.38a5.8,5.8,0,0,1,1-.93c.88-.71,2-1.6,2.36-5,.19-1.23.29-2.2.38-3,.23-2.17.38-3.6,1.62-4.56l.16-.12c2.11-1.65,4.3-3.19,6.05-3.24a3.72,3.72,0,0,0,1.14-.23,2,2,0,0,1,2.65.84,4.67,4.67,0,0,1,.24.56c.19.52.37.94.73,1.1a2.92,2.92,0,0,0,2-.19c.6-1.13,1.71-2.74,3.09-2.25a1.58,1.58,0,0,1,.9,2l-.1.25a5.85,5.85,0,0,0-.27.65,4.85,4.85,0,0,1,4.43,1.5c.23.31.94,1.25,1.51,1.43l.28.09a4.32,4.32,0,0,0,3.77,0c.55-.35,1-.61,1.42-.84,1.14-.64,1.22-.71,1.35-1.3a13.24,13.24,0,0,0,.23-1.42,6.14,6.14,0,0,1,.79-2.67,10,10,0,0,1,.83-1.15,2.89,2.89,0,0,0,.6-1,6.62,6.62,0,0,0,0-2,4.69,4.69,0,0,1,0-1.38,4.45,4.45,0,0,1,.61-1.39l.09-.15-7.84-3.92,9.53,1.66c2.39.42,5.76.71,7.32-1.5l1.82-2.57.72,3.06a4.26,4.26,0,0,1-.24,2.07,4.67,4.67,0,0,0-.24,2.52,14.84,14.84,0,0,0,2.31,2.94,13.07,13.07,0,0,1,1.86,2.32l.06.12c.63,1.21,1.42,2.73-.54,5a9,9,0,0,0-1.56,1.92,2.11,2.11,0,0,0,1.71-.86c.89-1.22,3.27-1.91,5.24-2.07,1.52-.12,3.61,0,4.92,1.33l.17.2a6.31,6.31,0,0,1,1.13,2.74,7,7,0,0,0,.43,1.49l.06.14c.14.35.31.75.44,1l.22-.12.28,0c.21,0,.42-.06.61-.09A2.38,2.38,0,0,1,337,133c.74.95.26,2.2-.24,3.31-.79,1.51-.92,2.1-.27,4.17a4.17,4.17,0,0,1-.09,3.34,2.58,2.58,0,0,1-.65.77,1.7,1.7,0,0,1-.32.39,1.75,1.75,0,0,1-.48.31,5.68,5.68,0,0,1,.68,2,2,2,0,0,1-.77,1.95h0c1.62.67,3,1.25,3.59,2.87a3.76,3.76,0,0,0,.37.68,2.48,2.48,0,0,1,.47,2l.65-.13.48-.12,2.74,1.24v2h2.4v6.91l-1.95-.78a1.7,1.7,0,0,0-.9-.1,2.31,2.31,0,0,0,0,1.08,5.81,5.81,0,0,1,.92,1.41l.33.79-5.38,6.43-5.07,4.38-7.54-5.81-1.23-1.57c-.48-.33-1.72-1.19-2.44-1.75-1.08.24-3.63,1.68-3.9,2.51l-.23.72-.73.21a16,16,0,0,0-5,2.16,23.41,23.41,0,0,0,1.14,8.74c1.23,3.56,1.09,5,1,5.44l-.14.54-.46.3c-3.62,2.33-5,3.24-5.71,3.59-.27.26-1.06,1.11-1.68,1.82l-.54.61-6.56-1.34L296,197.22l-.51,0a6.17,6.17,0,0,1-2.82-.62c-.76-.38-1.79-.9-2.15-13.48v-.26l.08-.24s.88-2.86-.26-3.51c-2.49-.12-8.35,0-8.41,0l-1.22,0-.27-1.54c-1.28-.25-3-.87-3.37-2.48l0-.13c-.12-1-.59-3.72-.88-5.32a3.87,3.87,0,0,1-3-1.94c-1-.08-2.5-.15-4-.22-2.24-.11-3.54-.18-4.34-.26a2.38,2.38,0,0,1-1.8.86c-1.44,0-2.3-1.46-2.59-1.92a3.22,3.22,0,0,0-2.27-2.05,13.42,13.42,0,0,0-2.71-.63,5,5,0,0,1-2.1-.61,7.06,7.06,0,0,0-.92.05,67.58,67.58,0,0,0-4.72,7.66,60.84,60.84,0,0,0-.11,7.61,9.83,9.83,0,0,1-1.38,4.83,9.83,9.83,0,0,0-.61,1.38c-.54,1.87-3.94,3.65-5.37,4.33l-.73.35-.67-.46c-.06,0-2-1.21-5.12.92-.5.33-1,.64-1.58,1-3.23,1.89-4.69,3.07-3.76,5.44a12,12,0,0,0,2.82,1.8,9.78,9.78,0,0,1,3.68,2.75l.23.3.06.37c.24,1.61,1,4.24,1.81,5l.09.09a8.47,8.47,0,0,1,1.84,4.27l.3.08c1.08.28,2.42.62,3,1.88a3.41,3.41,0,0,1-.27,3,7.27,7.27,0,0,1-3.1,4.11l-.34.13a4.05,4.05,0,0,1-2.88-.34h0a2.28,2.28,0,0,0-.2.49l-.29,1.36-5.47-1.06-1.34,4.64-13.65.61-3.42.26,0,.16c3.31-.07,5.39.3,6.21,1.12a4.18,4.18,0,0,0,.65.54,6,6,0,0,1,2.65,3.89c.56,2.24,1.88,9.24,1.54,11.75-.15,1.63-4.86,6.22-14,13.6a41.75,41.75,0,0,0-.82,6.39v.52l-4,4.67h-3.37l-.45,3.45-2.76.32a31.33,31.33,0,0,1,1.12,6.6c0,3.31.09,17.9.17,19.2.06.36,0,1.24-.82,7.19l-.18,1.26-1.27,0a3.87,3.87,0,0,0-1.05.1,10.56,10.56,0,0,0-1.75,2.87Zm-12.82-9.13c3.27.29,4.5.67,5.1,1.51a15.61,15.61,0,0,0,1.8,1.14l4.63,2.54a7.21,7.21,0,0,1,2.46-2.92l.21-.08a5.67,5.67,0,0,1,.86-.2c.48-3.47.65-5,.65-5.34h0c-.16-2.39-.2-19.33-.2-19.51a35.83,35.83,0,0,0-1.45-7.42l-.48-1.62,3.88-.44.49-3.72h4.55l2.45-2.89a51.59,51.59,0,0,1,1-6.92l.1-.5.39-.32c5.92-4.78,12.64-10.74,13.35-12.17.18-1.88-.77-7.75-1.49-10.61a3.34,3.34,0,0,0-1.56-2.28,6.85,6.85,0,0,1-.93-.77,18.8,18.8,0,0,0-5.39-.3l-1.27.07-.92-5.7,6.53-.49,11.66-.52,1.49-5.17,5.51,1.06a3.67,3.67,0,0,1,2.49-1.86l1.36-.25.25,1.15a2.26,2.26,0,0,0,.39,0,5.09,5.09,0,0,0,1.63-2.49l.08-.19a2.53,2.53,0,0,0,.23-.6,6.78,6.78,0,0,0-1.08-.34,10.1,10.1,0,0,1-1.34-.41l-.6-.25-.21-.62a7.67,7.67,0,0,1-.23-1,5.85,5.85,0,0,0-1.15-2.89c-1.61-1.58-2.32-4.92-2.55-6.24a7.74,7.74,0,0,0-2.51-1.71,14.27,14.27,0,0,1-3.7-2.46l-.21-.19-.12-.26c-2.3-5.15,2-7.65,4.81-9.31.5-.29,1-.58,1.44-.87,3.45-2.36,6.19-1.82,7.49-1.31a10.42,10.42,0,0,0,3.28-2.3,11.31,11.31,0,0,1,.78-1.81,7.4,7.4,0,0,0,1.08-3.45,60.58,60.58,0,0,1,.16-8.28c.25-1.36,3.56-6.36,5.5-9.21l.34-.5.59-.1c2.36-.41,3.22,0,3.62.31.22,0,.61.11.9.16a15.85,15.85,0,0,1,3.3.79,5.79,5.79,0,0,1,3.69,3.27l.13.19.6-.91,1,.34c.38.08,2.86.2,4.67.29,2,.1,4,.2,4.91.31l.82.1.32.76c.51,1.21,1.18,1.06,1.37,1l1.6-.64.31,1.7c0,.2.87,4.73,1.12,6.55a4.93,4.93,0,0,0,1.92.5l1.11.08.22,1.26c2,0,5.86-.08,7.66,0h.2l.19.07c3.11,1.11,2.85,4.86,2.22,6.91.13,4.39.51,9.51.92,10.93a3.53,3.53,0,0,0,.63.15l3.67-3.33,6.36,1.3c1.19-1.33,1.64-1.75,2-1.88.61-.36,2.7-1.68,4.74-3a16,16,0,0,0-.87-3.38c-1.24-3.59-1.65-8.7-1.16-10.54s3.62-3,6.31-3.84c1.15-1.85,4-3.2,5.34-3.57a2.53,2.53,0,0,1,2.36.23c.41.34,1.91,1.4,2.76,2l.18.12,1.39,1.77,5.3,4,3.24-2.8,3.92-4.72-.22-.25-.28-.3-.08-.4c-.38-1.94-.06-3.35.95-4.18a3,3,0,0,1,1.81-.66v-.33h-2.4v-3l-.19-.09c-3,.64-3.69-.27-3.94-.63a1.88,1.88,0,0,1,.07-2.22c.09-.14.15-.25.19-.32l0,0a6.58,6.58,0,0,1-.63-1.22c-.16-.45-.8-.73-2-1.23a27,27,0,0,1-3-1.38l-.27-.15-.18-.25c-.42-.57-1.39-1.89-.62-3a2.25,2.25,0,0,1,2.56-.66,1.57,1.57,0,0,0-.25-.32,1.93,1.93,0,0,1-1.21-2.41,2.18,2.18,0,0,1,2.7-1.22l.4-.1a2.59,2.59,0,0,0-.16-1c-.78-2.48-.74-3.87.22-5.85a2.48,2.48,0,0,1-1.63,0c-1.09-.39-1.52-1.45-2.07-2.78l-.06-.14a9.69,9.69,0,0,1-.58-2,2,2,0,0,0-2.66-2,7.12,7.12,0,0,0-3.75,1,4.85,4.85,0,0,1-5.61,1.68l-.24-.12a2.36,2.36,0,0,1-1.1-1.75c-.13-1.25.65-2.68,2.47-4.5.62-.71.62-.71.09-1.71l-.06-.12a14.14,14.14,0,0,0-1.44-1.71,15.54,15.54,0,0,1-2.85-3.81,5.09,5.09,0,0,1-.29-2.09,11.94,11.94,0,0,1-5.35.48l-.09.18c-.11.23-.24.44-.36.65a5.13,5.13,0,0,0-.26.46c0,.14,0,.34.05.57a7.81,7.81,0,0,1-.12,3.2,5.61,5.61,0,0,1-1.07,1.83,7.29,7.29,0,0,0-.61.84,3.54,3.54,0,0,0-.4,1.54,16.05,16.05,0,0,1-.28,1.71c-.42,1.85-1.49,2.45-2.73,3.14-.37.2-.79.44-1.28.75-2.47,1.57-5.07.7-6.19.33l-.23-.08a6.28,6.28,0,0,1-2.92-2.43,2.43,2.43,0,0,0-2.27-.26l-.1,0a2.16,2.16,0,0,1-2.35-.62,2,2,0,0,1-.21-.31,5.52,5.52,0,0,1-4,.08,4,4,0,0,1-2.05-2.25,6.09,6.09,0,0,1-1.46.22c-.71,0-2.18.91-4.38,2.64l-.16.13c-.29.23-.4,1.29-.55,2.63-.09.83-.2,1.87-.39,3.11-.49,4.46-2.31,5.92-3.39,6.79l-.11.09c.08.33.2.76.29,1.14a28.32,28.32,0,0,1,1.15,6.14,14.34,14.34,0,0,1-1.7,6.74c-.48.83-1,1.7-2,1.95a3.64,3.64,0,0,1-2.78-.8l-.28-.18-.17-.28a3.75,3.75,0,0,0-2.69-1.65l-.14,0a4.21,4.21,0,0,1-2.94-.68,3.36,3.36,0,0,1-1.53-2.29,2.21,2.21,0,0,1,.5-1.75,2.39,2.39,0,0,1,.41-.38,5.66,5.66,0,0,1-.39-1.2c-.05-.09-.17-.28-.27-.43a17.42,17.42,0,0,1-1.17-2c-.11-.25-.81-1.4-4.73-2.91a6.27,6.27,0,0,1-4.76-1.29,4.9,4.9,0,0,1-1.44-3.75V137c0-.4-.07-1,2.52-5.27a25.82,25.82,0,0,1-2.77-1.64l-.2-.17a7.86,7.86,0,0,1-1.44-7.1,64.44,64.44,0,0,0,1.1-6.44c.21-1.47.39-2.74.53-3.46a9.62,9.62,0,0,0-2.38-.83c-.74-.2-1.57-.43-2.41-.73l-.23-.08-.19-.15c-4.47-3.63-2.54-9.88-.85-12.76a3.63,3.63,0,0,1,2.9-2.19c-.64-.59-.68-.85-.72-1.17a2.68,2.68,0,0,1,.17-1.25h-.12a3.47,3.47,0,0,1-1.61,1.36,2.79,2.79,0,0,1-2.29-.15l-.21-.1-.16-.16c-1.61-1.61-1.21-5.3-.95-6.89-.38.3-.86.63-1.49,1.06l-.83.57-.81-.59c-1.45-1.06-2-.9-2.84-.68a4.44,4.44,0,0,1-2,.18A3.2,3.2,0,0,1,227,87.22a15,15,0,0,1-2.78,2.39l-.3.18-.35,0a3.75,3.75,0,0,1-2.9-.88,2.93,2.93,0,0,1-.89-1.7l-2-5-8.16-.65.71-1.79a13.5,13.5,0,0,1,.73-1.44,3.72,3.72,0,0,0-1.58-4.18l-7.82-4.82-.45.17-2.82,1.75-1.75-.61-.65.76h-.67a18.92,18.92,0,0,0-2.39.09l-.18.18h-.58c-.48,0-1.34.1-1.66.53-.15.21-.35.73,0,2a6.56,6.56,0,0,0,.65.09l.58.07.3.08c1.73.65,2.06,2.63,2,3.82a8,8,0,0,0,3.13,1.45l1,.25.13,2.92,2.44.11-.3,2.06.8.16.38.08.29.26c.69.63,2,2.48-.84,6l-.39.5a3.52,3.52,0,0,1-3,1.71h0v0c0,.23-.07.5-.13.81A2.42,2.42,0,0,1,195,96.64a3.5,3.5,0,0,0-1.48.34l-.2.1-.22,0a2.42,2.42,0,0,1-2.11-.67,3.09,3.09,0,0,1-.74-1.29,5.74,5.74,0,0,1-2.87.1,7,7,0,0,1,1.35,2,9.29,9.29,0,0,0,.57,1c1,1.42,1.13,4.8-.1,6.19a4.2,4.2,0,0,1-2.77,1.11,7.26,7.26,0,0,0-1.33.27c-.5,1.61-.06,4.51.4,6.3a1.45,1.45,0,0,1,.22,1c-.17,1.35-1.59,1.46-3.23,1.58-2.38.06-2.8.73-3.37,1.65-.16.26-.33.52-.51.76-.68,1-3.3,4-5.15,4.39-2,.48-3.41-1.9-3.91-2.94a9.11,9.11,0,0,0-2.93-2.17c-.89.06-2.11,1.44-2.59,2.21l-.72,1.16-1.18-.68a32.23,32.23,0,0,1-3.28-2.33c-2.41-2.07-3.07-2-3.86-1.64-.8.94-2.81,5.32-3.79,7.46l-.63,1.37a9.87,9.87,0,0,1,3.62.53l1.35.62c1.25.57,2.8,1.27,4.16,1.95l.9.45-.13,1A18,18,0,0,1,156.5,136c-.87.86-1.89,1.69-3,1.57a2.85,2.85,0,0,1-2-1.5c-.12-.17-.24-.35-.38-.52A4.34,4.34,0,0,0,149,134c-1-.48-1.67-.71-1.68-.71l-1.12-.4.11-.63a2.63,2.63,0,0,1-1.92-1.37l0,0a7,7,0,0,1-4.21-2.09l-.08-.09c-1.65-2.15-6.5-4-9.4-5.08a19.22,19.22,0,0,1-2.9-1.23c-.46-.29-1.25-.67-2.08-1.08a19,19,0,0,1-4.94-3l-.14-.15-.09-.19c-1.48-3-.55-5.35,2.77-7l.15-.08,0-.1a3.63,3.63,0,0,1,2.41-2.62v0a3.28,3.28,0,0,0-.12-.48l-.16,0a3.06,3.06,0,0,1-3.43-1.76l0-.1a8.34,8.34,0,0,1-.71-3.48,2.74,2.74,0,0,0-.06-.7c-1.55-1-4.59-3.12-3.6-5.78a3.58,3.58,0,0,0-.18-2.61A3.9,3.9,0,0,1,115,89.67c0-.13,0-.26-.07-.38a12.16,12.16,0,0,1-2.16-5.41,4.73,4.73,0,0,1,.39-3.63,2.77,2.77,0,0,1,1.19-.95,2.33,2.33,0,0,1,.66-.89,2.72,2.72,0,0,1,1.95-.57,2.69,2.69,0,0,1,.91-.67c.89-.42,2.55-.6,3.43.28a6.23,6.23,0,0,1,.75,1l.1.16A2.28,2.28,0,0,1,124,77.18a2.25,2.25,0,0,1,1.73.79,3.47,3.47,0,0,1,2,.45l0-.33a1.69,1.69,0,0,1,.71-1.26c.8-.56,1.78-.3,2.91,0,.25.06.59.15.87.21a5.67,5.67,0,0,1,2.12-1.67,5.51,5.51,0,0,0,.82-.5c.79-.84,2-.74,3.22-.64l.6,0c-1-1.66-2.42-4.2-4.33-7.82-.76-1.45-1.55-2.94-1.77-3.26a25,25,0,0,0-2.26-2.4,20.77,20.77,0,0,1-2.07-2.21c-.5-.72-.74-1.93,1-3.64.22-.22.45-.42.66-.6-.08-.21-.16-.4-.23-.55a2.06,2.06,0,0,1-1.35-.65,2,2,0,0,1-.4-1.77V51.3c-1.71-1.13-7.33-5.08-10.31-7.18a6.3,6.3,0,0,1-4.29,1.94c-2,0-3.91-1-5.65-3.12l-.33-.07a3.55,3.55,0,0,0-3,.24l-.3.19-.36,0a6.83,6.83,0,0,1-1.38-.08,2.38,2.38,0,0,0-2.28.54l-.37.31-.85,0a13.45,13.45,0,0,1-5.31-.5.59.59,0,0,0-.18.34L93.75,46l-1.82-.62c-.15.1-.61.75-.7,2.69l0,1-.94.3c-.26.08-.62.16-1.34.3-7,1.38-8.71,2.81-8.89,3.79a22.61,22.61,0,0,1-.51,4.67l-.21,1-1,.13a36.33,36.33,0,0,1-4.4.4,7.67,7.67,0,0,0-1.67,1.71c-.6,1.1-3.45,1.95-5.43,1.87a5.41,5.41,0,0,1-4.93-2.91,9.72,9.72,0,0,1-.17,1.12c-.16.83-.21,1.19.13,1.68.94,1.35,3.13,4.66,3.13,6.14v2.29l-2.05-1a13.64,13.64,0,0,0-4.57-1.06c-.73-.08-1.41-.16-2-.29a13.12,13.12,0,0,1-2.65-.91l-.28-.12-.86.12-.48-1.06-.4-1.07.12-.08a8.6,8.6,0,0,0-2.28-.67h0a1.45,1.45,0,0,1-1.25-.77,1.49,1.49,0,0,1,0-1.42,14.39,14.39,0,0,1-2.35-1.42c-.76-.52-2.34-1.61-2.85-1.52l-.27.35-.39.13c-1.67.54-2.32,1.06-2.53,1.55a2.73,2.73,0,0,1,1.55,1.87,2.07,2.07,0,0,1-1.14,2.15,5.15,5.15,0,0,1-1.18.5l-.34.12a4.47,4.47,0,0,0,.35,1l.08.19,0,.21a3.35,3.35,0,0,1-1.5,3,2.61,2.61,0,0,1-3.08-.56l-.19-.2c-.76-.68-5.84-1.82-7.24-1.87-1.16,0-4,.55-4.92,1.68A5.3,5.3,0,0,1,22.11,73l-.08.21a11.71,11.71,0,0,0-.63,2.37c-.07.34-.13.67-.21,1a13.34,13.34,0,0,1-1,2.74,13.41,13.41,0,0,0-1.09,3.08c-.13,1.59-.9,4.32-2.4,4.89a2.22,2.22,0,0,0-.26.13h0c.09,1.61-.2,2.94-2.23,3.32l-.2,0h-.06V95a3.09,3.09,0,0,1,1.39.77,2.86,2.86,0,0,1,.79,2.44c-.21,2-.56,6.13-.56,6.13l-.1,1.21L9.32,106a4.74,4.74,0,0,0-.05,1.3,3.75,3.75,0,0,1,1.27,2.62,3.71,3.71,0,0,1-1.33,2.9l-.46.48a6.91,6.91,0,0,1,2.21.83,5.44,5.44,0,0,0,3.46-.48l.37-.33.5,0c1.44-.07,4.62-.22,5.36,3.84A26,26,0,0,0,24,119.22l.09.06a87.47,87.47,0,0,1,8.48,6.32,13.29,13.29,0,0,0,3.74,1.13,6.34,6.34,0,0,1,1.06.25,2.28,2.28,0,0,1,1.55,1.37c.36,1.06-.23,2.21-.85,3.19A11.71,11.71,0,0,0,36.2,136l0,.21-.1.19c-.31.61-1.18,1.46-3.26,3.38-.85.78-2,1.84-2.28,2.19s-.22,1.59.71,3.3l.17.32V146a1.67,1.67,0,0,1-.21.79,2.56,2.56,0,0,0,.45.38l.24.21.52.55c1.14,1.2,1.9,2.28.43,4.33l-.21.29c-.78,1.08-1,1.32.1,3.1A18.46,18.46,0,0,1,35,159.74l.55,1.38-1.41.48a10.65,10.65,0,0,0-3.65,2.7c-1,2-2,4.28-2.21,4.83s-.65,1.26-3.25,5.23c-1.11,1.69-2.49,3.8-2.67,4.13a5.43,5.43,0,0,0-.3,2.41c.49.68.94,1.34,1.24,1.78a3.77,3.77,0,0,1,1.91,1,3.68,3.68,0,0,1,.87,1.33c1.88-.76,2.68-1,3.41-.85,1.36.34,3.84,3.59,4.41,4.53l.05.1c.41.83.77,1.75,1.09,2.56.25.63.48,1.22.67,1.61a2.21,2.21,0,0,0,.47.42,3.76,3.76,0,0,1,1.72,2.77,5.32,5.32,0,0,0,.26,1,6.49,6.49,0,0,1,.38,2.37,1.49,1.49,0,0,0,0,.31l.34.1c.19,0,.37.1.54.16l1.07.42c1,.38,3.55,1.41,4.1,1.49.83.11,8,.12,9.09,0l.48-.14.51.29a10.17,10.17,0,0,1,2.46,2.78l1.33,1.85a10,10,0,0,1,3,1.58l.57-.4c1.29-.91,2.32-1.62,3.46-1.53h0a8.88,8.88,0,0,1,4.88,1.87,2.54,2.54,0,0,1,.91,1.89v.3l-.12.27c-.47,1.07-.63,1.53-.41,2.07a6.42,6.42,0,0,1,0,5.52c0,.39,0,.85.07,1.34.11,1.56.23,3.18-.57,4.23a22.13,22.13,0,0,1-3.73,2.86c-.85.58-1.82,1.24-2.1,1.5a14.64,14.64,0,0,1-2.07,1.38,16.79,16.79,0,0,0-2.23,1.48c-.65,1.29-4,5-5.22,5.63l-.49.27a14.32,14.32,0,0,1-3.25,1.45c1.07,2.07,1.94,3.87,2.36,4.75,1.28.41,3.84,1.35,4.88,2.6,1.27,1.52,3.2,3.74,3.67,4.19.37.24.9.93,3.54,5.39A12.7,12.7,0,0,1,70,262.24c2.13,1.47,3,3.2,2.58,5.14a5.67,5.67,0,0,1,1,.93l.06.08a2,2,0,0,1,.64,1.51,1.69,1.69,0,0,1-.69,1.17,2.41,2.41,0,0,0-.46.48c-.31.42-.32.56-.36,1.37,0,.44,0,1-.15,1.72l-.08.32a40.37,40.37,0,0,1-4.39,6.83h0a8.47,8.47,0,0,1,6,2.1l.49.35.6.41a17.08,17.08,0,0,1,4.86,4.55l.67-.73c1.91-2.09,3.17-3.37,4.57-3.37h.17a13.69,13.69,0,0,1,7,1.56c.84,0,1.53,0,2.15-.05a8.4,8.4,0,0,1,4.83.77,15.59,15.59,0,0,1,6,4.82c.42.3.81.63,1.16.92s.56.46.81.65l0-.08c.3-2,1.16-6.58,2.89-8.2l.68-.65a25.29,25.29,0,0,1,2.37-2.11,2.73,2.73,0,0,1,.43-2.33,2.59,2.59,0,0,1,2.08-.73l3.34,0,3.45,0a35.43,35.43,0,0,0,5-1.07c1-.25,1.76-.45,2.21-.53l1.27-.22.34,1.24a14.68,14.68,0,0,1,.45,3.67l0,.54c.07,1.64,0,9.63,0,10l0,.2-.19,1.24a24.34,24.34,0,0,1,5.89.7,10.66,10.66,0,0,1,2.66,1.81c.26.22.61.51.81.65,1.21.06,6.07.22,8.33.3a2.74,2.74,0,0,1,.73-1,3.44,3.44,0,0,1,3.19-.52l.12,0c1.2.41,2.49.79,3.47,1.07.18-1.5.66-3.39,1.86-4.28.86-.89,2.83-2.71,4.89-2.81,1.16-.06,3.21-.12,3.94-.14,1.09-.38,3.08-.37,4.83,1.81a15.76,15.76,0,0,1,1.84,2.33,7.17,7.17,0,0,0,.58.79c.11.11.26.23.45.39a11.82,11.82,0,0,1,3.12,3.55c.46.86.71,1.29.89,1.59S179.75,301.44,179.83,301.6Zm3,3.36Zm-.2-.2h0ZM60.4,252.2a1.23,1.23,0,0,0,.3.23A1.84,1.84,0,0,1,60.4,252.2Zm1.84-2.14Zm-.22-.14h0Zm157.57-7.1v0Zm0-.12Zm-4-13.59ZM65.27,209.25h0Zm242.86-16.2-.28.12A1.33,1.33,0,0,0,308.14,193.05Zm4.23-18.59Zm-59.31-11.89h0Zm1.87-2Zm6.58-9.54a1.24,1.24,0,0,0,.75.06l.33-.09Zm70.62-4.88h0Zm2-3.5h0Zm-85.07-5.43Zm65.75-24.84Zm-305.51-5ZM239.19,82c-.05.73-.13,1.49-.24,2.15l.38-.44a13.18,13.18,0,0,0,1-1.23c0-.17.08-.32.13-.46C240.13,82,239.69,81.94,239.19,82Zm1.15.45Zm1.06-.35ZM137.23,76.83l0,0Zm55.49-5.31ZM69.89,59.82a1.25,1.25,0,0,0-.13.19Zm-8.22-1.33.07.23,0,.12,0,.09.1-.15a.6.6,0,0,0-.07-.26Z"/></svg>