<svg id="Layer_1" data-name="Layer 1" xmlns="http://www.w3.org/2000/svg" viewBox="0 0 350 350"><defs><style>.cls-1{fill:#999;}.cls-2{fill:#f90;}</style></defs><title>M</title><path class="cls-1" d="M159.13,290.74l.05.16A.42.42,0,0,0,159.13,290.74Z"/><path class="cls-2" d="M160.88,300.19l-3.1-9h0a.93.93,0,0,0,.08.24l.93-.48h-.46l2-.84a1.79,1.79,0,0,1,.21.77Z"/><path class="cls-1" d="M331.85,160.32c-.3-1.49-.75-2.91-1.64-2.16a3.42,3.42,0,0,0-1.27,1.27S326.34,157,326,156.6s-2.61.3-4.17-2.46c-1.56-.3-4.32-.67-5.44.67a8.63,8.63,0,0,1-4.25-.82,3,3,0,0,0-.3-1.71c-.45-.89-2-3.2-4.4-3.58-1.56-.07-1.19-.07-1.56-.07s-1.34.15.37-2.31c1.49-2.46,2.46-3,2.31-3.2s-.45-1.64-.74-1.86-.07-.45-.75-.6-4.47-.37-4.47-.37-2.76-.45-3.65.15a8.57,8.57,0,0,1-1.49-3.05l-4.54-.22s-.3-4.62,1.19-5.22c-1.12-1.86-3.05-4.25.75-4.17.74-3.43.82-11.47,1.71-12-.67-2.38-1-2.53-1.19-2.61s-3.2,2.16-4.54-1c-1.19-.67-3.58-.52-3.65-2.31-1.27-.15-1.94-1.19-1.19-3.13s1.12-4.4,1.12-4.4-6.85.67-6-3.65a18.61,18.61,0,0,1,3.05-3.35,3.62,3.62,0,0,0,1.12-1.27,16.72,16.72,0,0,1,1.64-1.94s.37-1.86.37-2.09-.15-2.46-.15-2.46a6.16,6.16,0,0,1-1.71,0c-.6-.15-1-.67-1.49-.82s-.37-.89-.15-1c-1.86.52-3.43.15-2.38-1-2.83.07-2.91-.3-2.46-.75s-3.95,1.71-2.91-.82c-2.53.07-4.17,1.56-4.69,0-1.56.89-3.05.07-3.65,0s-3.13-.52-3.13-.52a2,2,0,0,1-.6-.45c-.15-.22-3.43-1.71-3.58-2.53s-.45-.6-.67-.52a4,4,0,0,0-1,.82c-.37.37-3.13,1.56-2.16-1.56.37-1,1.49-1.19,1.71-1.71s.6.22.37-1.12-.3-1.94-.3-1.94l-1.49-.52s.3-.07-.82,0-1.42-.07-2.16,0-1.71-.07-2.31,0a11.79,11.79,0,0,1-2.24-.41.83.83,0,0,1-1-.75c-.15-1-1.86,1.19-1.86-1.12-1.42.3-2.46,1.49-2,2.76s1.34,6.48.82,6.78c-.74.3-.89-.45-2.31-.89a23.9,23.9,0,0,1-3.43-1.56,8.91,8.91,0,0,0-2.24-.82c-1-.15-2.53-1-2.31-2.31-.22-2.24-.37-3-1.86-3.28s-1.86-.15-1.86.3a4.09,4.09,0,0,1-.52,1.79c-.3.45-2.38.67-2.38.67s.3.75.15,1a8.54,8.54,0,0,1-3.58.82,18.45,18.45,0,0,1-3.35-.45l.07-1.56s-5.44,1.12-6.18,1.49-1.12-.22-2.76.52-1.19.67-1.86-2.61-2.09-10.28-2.16-11.1-2.83-1.64-2.83-5.44c-.52.52-3.95,5.22-3.95,5.22a13.35,13.35,0,0,1-2.68.37,3.4,3.4,0,0,1-3.28-3.13c-1.27-.37-4.54.07-4.25-3.95-1.94-.3-2.83-.82-2.61-2.24-.45-1.42-.82-3.2-.37-4-5.44-.37-6.85-.3-6.78-1.64-1-.45-2-1.71-1.56-2.31a21.68,21.68,0,0,1-2.09-4.4c-.37-1.12-.45-.07-.37-1.12a6.39,6.39,0,0,1,1.42-3.5,9.31,9.31,0,0,1,.22-6.78c-1.19-3.5-2.83-11.4-2.16-12.37-.89-1.49-1.49-2.83-3.05-3.13s-3.5-2.76-3.87-2.83-4.17.15-4.92,0-9.09,0-9.09,0L151.63,13a24.87,24.87,0,0,1,.6-2.61c.15-.22-14.6-4.89-14.6-4.89,0,.75-.3,5.17-.65,9.78-.3,6.76-5.66,12.67-6.9,13.26s-3.23,1.74-4.32,2.28-1.39.65-1.74,3.87c-1.34-.84-5.66-1.79-5.81-3.23a13.88,13.88,0,0,1,1.24-5.51c.5-.79-.45-2.43-2.72-3-4.36-.15-6.37-2.33-6.91-3.73-1.24-2.33-7,0-7,0s-.2,2.33-.55,2.33-2.48.25-5.66.55a10.81,10.81,0,0,0,.89,1.54c.6,1-1.69,1.14-2.58,1.94a12.09,12.09,0,0,1-3.53,1.59,3.92,3.92,0,0,1-3.77-.1c-1.24-.79-2.14-3.77-3.58-5.61-2.09-1.34-8.44,1.94-9.39,2.73s-2.28,3.43-4.87,4.47-13.76,1.34-18.68,2.73c-4.67.4-2.88,3.23-2.63,4.32s.89,5.22,1.39,5.41,5.61,1,5.86,1.34.1,2.83.6,2.93C57.51,47,61.13,48.67,63,48.62c1.64-.84,7.25-1.09,8.74-.65s5.71,5.17,6.26,6.41,5.26,5.27,6.61,6.8,2.93,6,2.48,8.34C84.18,71.32,85,76.33,85.37,79c-.3,2.58-2.43,5.12-5.76,8.39s-6,1-10.08-.45c-4.77-1.54-5.56,3.23-6.8,4.52-1.34,2.28-.94,10-.65,11.37a12.2,12.2,0,0,1,.12,2.47c1.31,0,4.11-.05,4.3.22.25,1,0,1.29-.25,2.19s-3,3.33-3.38,4.82-.79,5.41.45,6.66c1.59.79,2.43-1.14,2.53-1.39s3,.25,3,.25a13.36,13.36,0,0,0-.7,2.33c0,.35,3.18,2.48,3.18,2.48a3.93,3.93,0,0,1-3,.5,2.29,2.29,0,0,0-2.58,1.44s-4.52,7.55.5,11.62c3.18,1.14,6.36,1.24,6,3.33S71,149,70.47,150.44a6.86,6.86,0,0,0,1.19,5.91,34.57,34.57,0,0,0,4.17,2.33s-3.33,5.41-3.28,6.06-.45,4.52,5.27,4c1.19.45,5.22,2,6.11,3.92s1.59,2.43,1.64,3a13.25,13.25,0,0,0,1,2.38s-1.69,0-1.54,1.19A2.69,2.69,0,0,0,88.3,181c.55.2,2.88.3,4.22,2.53,1.84,1.19,2.14.7,2.93-.7A13.54,13.54,0,0,0,97,176.51c0-2.58-1.64-7.4-1.64-8.2.89-1.14,3.23-1.59,3.82-7,.65-4.27.4-6.11,1.54-7s4-3.18,5.66-3.23,2.24-.89,2.63-.15.75,4,5.56,2c.75-1.64,1.94-2.73,1.69-1.84-.45.89-1.44,3.53.45,3a3.85,3.85,0,0,1,4.07.79,5.42,5.42,0,0,0,2.33,2c.94.3,3.33,1.29,5.51-.1s3.18-1.44,3.58-3.18.2-2.73.89-3.87,1.24-1.39,1.64-2.53-.1-3.23,0-3.73a7.88,7.88,0,0,1,.79-1.59c.3-.6.4-1,0-1.24,2.28.4,6.9,1,9.19-2.19.2.84-1.14,3.13-.45,5s3.82,4.47,4.47,5.71,1.14,2-.3,3.68c-1.19,1.19-3.08,3.38-1.69,4.27A3.6,3.6,0,0,0,151,156c.94-1.29,6.51-2.53,8.44-.6,1.19,1.74.7,2.24,1.49,4.17s1.09,2.78,2.58,2c1.49-.15,2.83-.94,1.54,1.89-1,1.89-1.14,2.93-.35,5.46s-.6,2.88-.6,2.88.15.7-1.19.25-1.79.6-.84.94,2.19,3.08,1.44,3.53-4.87-1.84-2.63,1.19c3.13,1.74,5.31,1.84,5.91,3.53s1.39,1.39.35,3,3,.62,3,.62l1.54.7v2.68h2.53v3.58s-3.82-1.54-2.93,3.08a5.27,5.27,0,0,1,1,1.39l-4.92,5.91L162.91,206l-6.71-5.12-1.44-1.84s-2.38-1.64-3-2.19-5.46,1.64-6.11,3.63c0,0-5.76,1.64-6.26,3.18s-.1,6.51,1.19,10.23,1,4.87,1,4.87-5.86,3.77-6,3.77a28.23,28.23,0,0,0-2.09,2.19l-6.8-1.39-3.77,3.43a5.08,5.08,0,0,1-2.24-.5c-1.09-.55-1.44-12.91-1.44-12.91s1.59-4.62-1.34-5.66c-2.53-.15-9.24,0-9.24,0l-.25-1.44s-3.08-.2-3.38-1.59c-.2-1.69-1.19-7.05-1.19-7.05s-2.24.89-3.38-1.84c-2-.25-9.64-.45-10.38-.7-.4.6-1.24,2.09-2.68-.3A4.68,4.68,0,0,0,84.23,192c-2-.79-4.47-.75-4.82-1.19s-2.63,0-2.63,0-5.31,7.8-5.56,9.14a63.51,63.51,0,0,0-.15,8.39c.1,2.43-1.59,4.52-2,6.06S64.16,218,64.16,218s-2.83-1.94-7.08,1c-3.05,2-8.27,3.87-6,8.87,2.68,2.53,5,2.38,6.93,4.84,0,0,.67,4.59,2.36,6.18,1.49,1.69,1.49,3.77,1.79,4.67,1.69.7,4.57.5,3.08,3.48a6.3,6.3,0,0,1-2.58,3.58s-2.09.5-2.38-.89c-1.59.3-2,2.19-2,2.19l-5.66-1.09-1.49,5.17-13.31.6-5.26.4L33,260s5.76-.3,6.75.7,2.38,1.19,3.08,4,1.89,9.64,1.59,11.82-14.6,13.71-14.6,13.71a49.41,49.41,0,0,0-1,7.55l-3.38,4H21.3l-.5,3.77-3.48.4s1.59,5.36,1.59,8.25.1,20.07.2,20.46-1,8-1,8l7.65,1.89a39,39,0,0,1,.7-5.66s5.66-2.78,10.33-1.19c2.48.79,2.19-.6,3.28.7s2,1.29,3.68.1,1.69-3.28,2.09-4,10.73-6.36,12.91-7.65,2.68-3.77,7.15-3.77c-2-4.57-1.39-9.14.79-11,2.58,0,4.57,1,6.85,1.09s5.46,2.09,7.65,1.79,6.26-5.26,6.26-5.26-1.89-1.69.6-3.77c.79-2.58.1-3.08-.7-4.07a24.74,24.74,0,0,0-2.09-2.19l4.57-7.25s1.69.7,2.88-1.89c1.29-1.89,5.26-3.87,9.64-3.68s11.13,2.09,13.21,4.57c2.48-1.19,3.38-3.38,4.67-.89,1.59-.6,3.18-1.49,5.17-.89,2.19-3.38,2.38-7.05,6.36-4.27a18,18,0,0,1,6-1.19s3-1,2.09,2.68c.4.5,1.69,1.09,2.38,2.09,2.88-2.19,2.28-3.48,4.77-2.58,3.18-.7,4.87-.5,5.56.3s2.28,3.08,4.47,3.28c1.57.14,2,.59,2.13.83-.28-.89-1.52-5.29.35-6.89,0-1.79,2.09-3.87,3.58-2.28,1.49-1.19,2.28-2.38,4.17-1.39,1-1.59,3.48-3.58,3.68-1.29.6,1.69,1,2.38,1,3.58a3.53,3.53,0,0,0,2.28,2.78c.89.2,1.89,1.79,2,2.58a3.9,3.9,0,0,1,4.47-.2,6.81,6.81,0,0,0,2.28,1.19,6.57,6.57,0,0,1,2,0,2.41,2.41,0,0,1,.89.7c.4.5,1.69,1.09,1.89,1.59s.89-1.59,3.77-.1c3-.79,11-6.66,11.72-7.95-1.49-1.79-4-6.85-1.29-7.45,1.59-.6,2-3.58,3.38-3.58,1.39-1.09,1.59-2.48,3.68-2-.7-1.59-.5-2.88.79-2.68s5.76-1.79,7.25-.79c1.39-.2,3.77-.2,4.77,1.09,2.78.5,3.08,1,3.08,1s.79-6.36,2.19-8.34c.7-1.59-.2-5.27,4.07-5.86,3-1.29,5.56-4.07,5.76-4.77S241.53,239,241.53,239l4.07-.2s-.5-5.76,2-6.26c1.89-.89,5.26-3,6.46-3.48s4-1.92,4.27-4.19c1.09,0,3.87,2.3,3.87,2.3a3.59,3.59,0,0,1,3.35.45c1.27-1.86.75-2.76,3.2-1.42,1.49.07,1.19.45,1.49,1.34,1.56-2.76,2.68-2.09,2.68-2.09s2.09-10.58,3.5-11.77c.75-2.38-.22-3.8,0-5.36s.67-1.49-.3-2.83-.75-1.64-1.27-2.24-.67-4.1.15-4.32,4.4-.67,4.84-1,5.36-2.16,5.59-2.24,4.84-.15,5.36-.15a41.68,41.68,0,0,1,4.17.89,18.65,18.65,0,0,0,4,.3c.45-.15,1.64-1.19,2.61-1.19a27.43,27.43,0,0,0,4.25-.52c.37-.15,1.34-.6,1.34-.6s-1.27-6.11-.45-8c-1.79-.22-2.31,0-1-2.09-1.27-1.12-2.24-2.46.22-3-.37-2.83,1.12-5.89,3.28-4.54.3,2.09.75,2.53,1.64,2.09s3.95-3,6-2.46,1.34,1.64,2.38,1.71c1.86-1.49.52-2.38,2.38-1,2-.3,2.16.37,2.83,1.64,1.19.45.67.75,1.19.45l.52-.3s.07-4.47.82-4.69a12.5,12.5,0,0,0,2.61-2.09l1.49-1.19v-4.54s.74-1.56,1-1.64.6-.89.6-.89A3,3,0,0,1,331.85,160.32Z"/><path class="cls-2" d="M27.08,346.33l-10.54-2.6.18-1.27c.48-3.39,1-7.21,1-7.75h0c-.16-2.44-.21-20.37-.21-20.56A37.77,37.77,0,0,0,16,306.3l-.48-1.62,4.06-.46.51-3.91h4.76l2.63-3.09a54.15,54.15,0,0,1,1-7.31l.1-.5.39-.32C35.23,284,42.34,277.73,43,276.24c.19-2-.81-8.19-1.57-11.22a3.58,3.58,0,0,0-1.68-2.45,7.12,7.12,0,0,1-1-.81,19.45,19.45,0,0,0-5.73-.33l-1.27.07-.94-5.86,6.8-.51L50,254.57l1.57-5.43,5.79,1.12a3.8,3.8,0,0,1,2.6-2l1.36-.26.26,1.2a2.1,2.1,0,0,0,.51,0,5.41,5.41,0,0,0,1.76-2.68l.08-.19a2.45,2.45,0,0,0,.26-.71,6.26,6.26,0,0,0-1.21-.39,10.51,10.51,0,0,1-1.41-.43l-.6-.25-.21-.62a8.11,8.11,0,0,1-.24-1.06,6.22,6.22,0,0,0-1.23-3.08c-1.69-1.65-2.45-5.28-2.67-6.55A8.16,8.16,0,0,0,54,231.44a15,15,0,0,1-3.88-2.58l-.21-.19-.12-.26c-2.4-5.36,2.07-8,5-9.71.53-.31,1.05-.61,1.52-.92,3.64-2.49,6.52-1.9,7.85-1.36a10.94,10.94,0,0,0,3.52-2.47A11.85,11.85,0,0,1,68.5,212a7.86,7.86,0,0,0,1.15-3.67,63.81,63.81,0,0,1,.17-8.71c.26-1.42,3.74-6.67,5.79-9.68l.34-.5.59-.1c2.49-.43,3.37,0,3.76.32.23.05.65.12,1,.17a16.59,16.59,0,0,1,3.47.83,6,6,0,0,1,3.85,3.41l.2.3h0l.06-.09.6-.9,1,.34c.4.08,3,.21,4.94.31,2.15.11,4.19.21,5.16.33l.82.1.32.76c.58,1.38,1.39,1.13,1.54,1.07l1.61-.64.31,1.7c0,.21.93,5,1.18,6.93a5.07,5.07,0,0,0,2.09.56l1.12.07.23,1.34c2.07,0,6.21-.09,8.13,0h.2l.19.07c3.23,1.15,2.94,5.07,2.29,7.2.14,4.68.54,10.13,1,11.58a3.78,3.78,0,0,0,.75.17l3.87-3.51,6.71,1.37c1.27-1.42,1.74-1.86,2.15-2,.67-.39,3.11-1.94,5.05-3.19a16.69,16.69,0,0,0-.92-3.63c-1.31-3.77-1.74-9.13-1.22-11.06s3.8-3.14,6.63-4c1.18-1.94,4.22-3.36,5.6-3.75a2.6,2.6,0,0,1,2.42.23c.43.37,2,1.46,2.92,2.1l.18.12,1.46,1.87,5.65,4.31,3.46-3,4.18-5-.27-.31-.28-.3-.08-.4c-.39-2-.06-3.47,1-4.33a3.12,3.12,0,0,1,1.93-.68v-.5h-2.53v-3.18l-.27-.12c-3.17.67-3.86-.3-4.1-.63a1.91,1.91,0,0,1,.07-2.25c.11-.18.18-.3.23-.38l0-.07a6.86,6.86,0,0,1-.66-1.27c-.18-.51-.87-.81-2.17-1.34a28.37,28.37,0,0,1-3.11-1.45l-.27-.15-.18-.25c-.43-.58-1.44-1.95-.65-3.12.65-1,1.77-.86,2.8-.63a2.09,2.09,0,0,0-.38-.52,2,2,0,0,1-1.25-2.45A2.22,2.22,0,0,1,163,170.6l.49-.12a2.56,2.56,0,0,0-.17-1.14c-.84-2.66-.78-4.12.31-6.28a2.63,2.63,0,0,1-1.85.09c-1.12-.4-1.57-1.5-2.14-2.88l-.06-.15A10.19,10.19,0,0,1,159,158a3.83,3.83,0,0,0-.65-1.67,3.9,3.9,0,0,0-2.3-.51,7.47,7.47,0,0,0-3.93,1,5,5,0,0,1-5.83,1.75l-.24-.12a2.41,2.41,0,0,1-1.13-1.79c-.14-1.29.68-2.78,2.58-4.67.69-.79.67-.83.11-1.89l-.07-.13a14.42,14.42,0,0,0-1.52-1.82,16.31,16.31,0,0,1-3-4,5.31,5.31,0,0,1-.29-2.28,12.44,12.44,0,0,1-5.77.54l-.11.24c-.12.24-.25.46-.38.68a4.88,4.88,0,0,0-.28.51c0,.15,0,.37.06.62a8.16,8.16,0,0,1-.12,3.34,5.82,5.82,0,0,1-1.12,1.91,7.72,7.72,0,0,0-.65.9,3.78,3.78,0,0,0-.43,1.66,16.58,16.58,0,0,1-.29,1.8c-.44,1.92-1.55,2.54-2.84,3.26-.39.22-.84.47-1.36.8-2.57,1.64-5.29.73-6.46.34l-.25-.08a6.56,6.56,0,0,1-3-2.54,2.6,2.6,0,0,0-2.48-.3l-.1,0a2.2,2.2,0,0,1-2.4-.63,2,2,0,0,1-.24-.37,5.76,5.76,0,0,1-4.27.11,4.22,4.22,0,0,1-2.15-2.39,6.35,6.35,0,0,1-1.59.25c-.76,0-2.33,1-4.66,2.79l-.18.14c-.33.26-.44,1.34-.6,2.83-.09.88-.21,2-.41,3.27-.52,4.67-2.34,6.14-3.54,7.11l-.16.13c.09.35.21.83.32,1.25a29.83,29.83,0,0,1,1.21,6.45,15,15,0,0,1-1.78,7.06c-.52.91-1,1.76-2.06,2a3.78,3.78,0,0,1-2.87-.84l-.27-.18-.17-.28a4,4,0,0,0-2.88-1.77l-.16,0a4.39,4.39,0,0,1-3.06-.7,3.46,3.46,0,0,1-1.58-2.36,2.25,2.25,0,0,1,.51-1.78,2.44,2.44,0,0,1,.47-.42,6,6,0,0,1-.43-1.32c-.05-.1-.18-.3-.29-.47a18,18,0,0,1-1.22-2.13c-.12-.26-.87-1.5-5-3.11a6.55,6.55,0,0,1-5-1.34A5.09,5.09,0,0,1,71.15,165v-.13c0-.39-.08-1,2.68-5.58a27.53,27.53,0,0,1-3-1.76l-.2-.17a8.19,8.19,0,0,1-1.5-7.4,67.76,67.76,0,0,0,1.16-6.79c.22-1.55.41-2.89.56-3.65a7.85,7.85,0,0,0-2.56-1c-.77-.21-1.65-.45-2.53-.77l-.23-.08-.19-.15c-4.67-3.79-2.65-10.34-.88-13.36a3.72,3.72,0,0,1,3.18-2.28c-.79-.69-.82-1-.87-1.31a2.9,2.9,0,0,1,.2-1.37l-.27,0A3.61,3.61,0,0,1,65,120.62a2.85,2.85,0,0,1-2.35-.16l-.21-.1-.16-.16c-2.15-2.15-.84-7.92-.83-8a9.87,9.87,0,0,1,2.34-3.57,13.52,13.52,0,0,0,1.06-1.32c.05-.22.11-.41.16-.59-.6,0-1.51,0-2.82,0l-1.48,0,0-1.48a10.92,10.92,0,0,0-.09-2.13c-.28-1.25-.85-9.58.81-12.4l.2-.27a6.74,6.74,0,0,0,.65-1.07c.93-1.74,2.86-5.35,7.62-3.81.83.3,1.57.61,2.26.9,3,1.28,4.36,1.72,6.44-.15,3-2.95,4.95-5.24,5.28-7.33-.42-2.82-1.13-7.83,1.78-10.27a12.84,12.84,0,0,0-2.21-6.64c-.46-.53-1.44-1.46-2.48-2.44-2.43-2.3-3.93-3.76-4.36-4.73s-4.35-5.25-5.38-5.62c-1.24-.37-6.44-.09-7.67.55l-.29.15H63a11.71,11.71,0,0,1-7.59-3.6c-.73-.56-.81-1.71-.89-2.76l0-.21c-.78-.19-2.09-.44-2.89-.59a15.5,15.5,0,0,1-2.24-.49c-1-.4-1.29-1.43-2-5.32-.09-.46-.16-.86-.22-1.1a4.28,4.28,0,0,0-.13-.41,4.26,4.26,0,0,1,0-3.81c.67-1,1.93-1.63,3.84-1.82a77.29,77.29,0,0,1,10.7-1.54c3.27-.33,6.64-.67,7.7-1.1a8.7,8.7,0,0,0,3.32-2.93A9.2,9.2,0,0,1,73.78,23c.52-.44,7.87-4.89,11.07-2.84l.2.13.15.19a19,19,0,0,1,1.79,3,8.71,8.71,0,0,0,1.44,2.29,2.52,2.52,0,0,0,2.48,0c.36-.14.73-.27,1.1-.4a6.41,6.41,0,0,0,2-.93,5.78,5.78,0,0,1,1.79-1l-.19-.35L94.4,20.83l2.11-.2,3.65-.36,1.14-.11c.05-.33.11-.74.14-1.12l.07-.86.8-.33c1.15-.47,7-2.65,8.74.65l.07.15c.39,1,2,2.7,5.64,2.83l.31,0a5.28,5.28,0,0,1,3.7,2.87,2.52,2.52,0,0,1-.13,2.29,13.91,13.91,0,0,0-1,4.45,13.09,13.09,0,0,0,2.86,1.33l.41.15a3.52,3.52,0,0,1,2.2-3.06c.52-.26,1.15-.6,1.82-1,.91-.49,1.84-1,2.57-1.35s5.82-5.75,6.1-12c.37-4.9.64-9.06.64-9.72V3.52l1.85.58c15.17,4.8,15.21,4.91,15.51,5.77l.23.67,0,.05,2.36-.93h.26c3.17-.05,8.61-.11,9.39,0,.34.05,2,0,2.82,0a11.57,11.57,0,0,1,2.09,0c.53.11.85.42,1.5,1a7.68,7.68,0,0,0,2.36,1.78c2,.38,2.91,1.93,3.71,3.29l.77,1.29-.42.6c-.17,1.32,1,7.7,2.23,11.25l.2.6-.31.55a8,8,0,0,0-.16,5.53l.4.93-.75.68a5.26,5.26,0,0,0-.94,2.43,3.55,3.55,0,0,1,.29.68,20.71,20.71,0,0,0,1.88,4l.64.85-.33.44a2.21,2.21,0,0,0,.72.58l.87.4,0,.65a34.13,34.13,0,0,0,3.79.35l3.86.26-1.06,1.94a6.57,6.57,0,0,0,.48,2.92l.1.32-.05.33a.73.73,0,0,0,0,.25,4.37,4.37,0,0,0,1.43.37l1.29.2-.1,1.31c-.14,1.89.52,2.06,2.17,2.29a7.15,7.15,0,0,1,1.06.2l1,.29,0,1a2,2,0,0,0,1.86,1.76,10.42,10.42,0,0,0,1.85-.22c1.17-1.59,3.28-4.46,3.77-4.95l2.42-2.42v3.42a4.26,4.26,0,0,0,1.69,3.55A2.75,2.75,0,0,1,210,62.22c.05.54.93,5,2.14,10.95.12.57.2,1,.27,1.44a4.74,4.74,0,0,1,2.18-.36h.2a52.32,52.32,0,0,1,6.48-1.6l1.79-.37-.1,2.16a12.38,12.38,0,0,0,1.88.19,8.62,8.62,0,0,0,1.93-.29l-.52-1.29,1.86-.2a9.7,9.7,0,0,0,1.46-.27,3.1,3.1,0,0,0,.18-.78,1.79,1.79,0,0,1,.65-1.42c.69-.57,1.63-.52,2.91-.27,2.59.52,2.78,2.38,3,4.53l0,.19,0,.19a1.82,1.82,0,0,0,1.13.66,10,10,0,0,1,2.68,1,22.69,22.69,0,0,0,3.19,1.47c.2.06.37.13.54.2a27.81,27.81,0,0,0-.81-4.26,3.18,3.18,0,0,1,.23-2.65,4.23,4.23,0,0,1,2.82-2l1.71-.36v1.19a1.67,1.67,0,0,1,1,.22,1.65,1.65,0,0,1,.68.79l.14,0a11.24,11.24,0,0,0,1.79.36h0c.29,0,.67,0,1.07,0a8.56,8.56,0,0,0,1.16,0,6.24,6.24,0,0,1,1.13,0,7.18,7.18,0,0,0,1.08,0,3.28,3.28,0,0,1,1.7.19l2,.7.11.87s.08.6.29,1.88c.08.48.3,1.82-.73,2.35l-.15.18.16-.06a1.74,1.74,0,0,1,1.54.05,2,2,0,0,1,.91,1.3,15.69,15.69,0,0,0,2.09,1.3,4,4,0,0,1,1.24.84c.82.14,2.4.42,2.81.47a5.09,5.09,0,0,1,.73.18,2.44,2.44,0,0,0,2,0l1.5-.86.44,1.33.6-.16a11.36,11.36,0,0,1,2.81-.5l2.18-.06-.45,1.1.3-.09a1.68,1.68,0,0,1,2.16.51l.07.11c.27,0,.63,0,1.11,0l3.38-.09-.93,1,8.23-2.3-6.37,4.23.09,0a5,5,0,0,0,1.18,0l1.5-.2.1,1.51c.06.85.15,2.32.15,2.55a14.86,14.86,0,0,1-.4,2.36l-.08.4-.28.3a21,21,0,0,0-1.39,1.58,5,5,0,0,1-1.66,1.86,19.45,19.45,0,0,0-2.43,2.7,1,1,0,0,0,.24.82c.73.8,3,1,4.31.86l1.95-.18-.43,1.91c0,.1-.54,2.37-1.14,4.47l0,.12c-.29.75-.22,1.1-.18,1.15a.59.59,0,0,0,.22.06l1.2.14.05,1.21c.13.23.87.43,1.26.53a7.07,7.07,0,0,1,1.67.6l.42.24.19.44a1.4,1.4,0,0,0,.62.77c.47.18,1.27-.2,1.66-.38a1.77,1.77,0,0,1,1.41-.2c1,.32,1.41,1.08,2.11,3.57l.3,1.06-.64.38A43.49,43.49,0,0,0,297,122a55.3,55.3,0,0,1-.72,6.06L296,129.2l-1.17,0a5.24,5.24,0,0,0-.68,0,13.94,13.94,0,0,0,.79,1.38l.39.63.86,1.43-1.44.58a6.69,6.69,0,0,0-.43,2.59l4.26.21.26,1a8.9,8.9,0,0,0,.69,1.76,11.4,11.4,0,0,1,3.23.09c1,.06,3.92.24,4.62.4a2,2,0,0,1,1.46,1,4.15,4.15,0,0,1,.86,1.81c0,.14.08.27.11.36a1.84,1.84,0,0,1-.54,2.16,15,15,0,0,0-1.81,2.45l-.15.22h.2l.15,0c3.45.54,5.25,4,5.44,4.34a4.48,4.48,0,0,1,.43,1.38,7.09,7.09,0,0,0,2.22.42c1.89-1.54,5.18-.91,6.33-.7l.64.12.32.57a2.74,2.74,0,0,0,2.43,1.55,2.13,2.13,0,0,1,1.69.82c.14.18.83.85,1.62,1.59a5,5,0,0,1,.57-.41,2,2,0,0,1,1.89-.35c1.25.44,1.66,2,1.94,3.4l.1.48-.22.43a1.56,1.56,0,0,0,.43,2l.78.64-.33,1a3,3,0,0,1-1.1,1.58c-.11.17-.29.48-.45.8v4.9l-2,1.57a14,14,0,0,1-2.61,2.15,19.44,19.44,0,0,0-.34,3.59v.81l-1.22.7a1.54,1.54,0,0,1-2.1-.22,2.89,2.89,0,0,0-.3-.13l-.5-.19-.42-.79a4.16,4.16,0,0,0-.37-.63h-.19a4.45,4.45,0,0,0-.65.06l-.59.09-.29-.22a5.74,5.74,0,0,1-.83.8l-.43.35-.55,0a2.23,2.23,0,0,1-1.88-1.26c-.14-.24-.2-.35-.76-.49-1-.25-3.07,1.14-4,1.73a11,11,0,0,1-1,.62,2.23,2.23,0,0,1-2.12.08,3,3,0,0,1-1.37-2.2,4.27,4.27,0,0,0-.65,3.13l.17,1.3-1.28.27-.1,0a6.9,6.9,0,0,0,.52.51l.89.78-.58,1,1.86.23-.77,1.74c-.38.86,0,4.38.54,7.11l.23,1.1-1,.47s-1,.47-1.41.63a25.87,25.87,0,0,1-4.77.62,4.41,4.41,0,0,0-1.23.62,4.34,4.34,0,0,1-.94.5c-.93.32-4.42-.15-4.86-.28-.63-.18-3.35-.81-3.82-.84-.62,0-4.22.07-5,.12-.83.31-4.67,1.78-5.18,2.06s-1.12.43-3.5.82l-1.19.2a6.51,6.51,0,0,0,.13,2.23,3.7,3.7,0,0,1,.58,1,4.89,4.89,0,0,0,.68,1.2,3.05,3.05,0,0,1,.72,3.05,7.38,7.38,0,0,0-.17.81,4.88,4.88,0,0,0,.11,1.42,8.29,8.29,0,0,1-.16,4.17l-.12.39-.32.27c-.65.78-2.11,6.31-3,11l-.39,2-1.39-.84a4.32,4.32,0,0,0-1.06,1.37l-1.57,2.77-1-3c0-.13-.08-.25-.11-.37h-.11l-.32,0-.28-.16-.61-.31a11.62,11.62,0,0,1-.75,1.28l-.84,1.24-1.19-.91a2.18,2.18,0,0,0-1.95-.27l-.79.33-.66-.54a20.22,20.22,0,0,0-2.13-1.53,9.53,9.53,0,0,1-4.57,3.63c-.52.22-1.7.88-2.83,1.53s-2.58,1.46-3.56,1.92l-.33.11c-.6.12-1,2.56-.85,4.75l.13,1.47-4.67.23c-1.67,3.72-4.05,9.07-4.25,9.67-.36,1.25-3.34,4.26-6.55,5.66l-.18.08-.19,0c-2,.29-2.27,1.27-2.53,3.14a7.13,7.13,0,0,1-.44,1.89l-.14.24c-.87,1.24-1.65,5.38-1.94,7.71l-.51,4.07-2-3.25a10.37,10.37,0,0,0-2.27-.59L221,269l-.33-.43c-.41-.54-1.89-.78-3.44-.55l-.54.08-.45-.3c-.53-.26-2.67.28-3.69.54a13.75,13.75,0,0,1-2.5.49,3.72,3.72,0,0,0,.23.7l1.14,2.61-2.77-.66c-.65-.15-.68-.13-1.3.57a8.75,8.75,0,0,1-1.17,1.15l-.39.3h-.33a7,7,0,0,0-.59.92,5.18,5.18,0,0,1-2.46,2.56l-.19.06c-.38.59.71,3.53,2.07,5.16l.61.74-.45.84c-1,1.79-9.41,7.79-12.6,8.64l-.53.14-.49-.25c-1.23-.63-1.61-.35-1.91-.11a1.69,1.69,0,0,1-1.52.4,1.51,1.51,0,0,1-.93-.75c-.12-.11-.4-.29-.57-.41a5.35,5.35,0,0,1-1.19-1,.51.51,0,0,0-.23-.2l-.1-.05a11.29,11.29,0,0,0-1.28.08l-.28,0-.27-.08a8.09,8.09,0,0,1-2.84-1.5,2.63,2.63,0,0,0-2.61.22l-2,1.69-.32-2.6a2.92,2.92,0,0,0-.95-1.39,4.91,4.91,0,0,1-3.33-4v-.11a5.36,5.36,0,0,0-.52-2l-.31-.83a5.65,5.65,0,0,0-1.22,1.35l-.7,1.12-1.17-.61c-.69-.36-.79-.32-1.91.64l-.71.6-1,.82-.9-1c-.13-.14-.15-.13-.24-.09a1.76,1.76,0,0,0-.89,1.41v.65l-.5.42c-.82.7-.57,3.3.08,5.39l-2.61,1.08a.55.55,0,0,0,.14.19,2.72,2.72,0,0,0-1.15-.26c-2.5-.23-4.21-2.31-5.13-3.43l-.28-.33s-.66-.62-4.19.15l-.4.09-.38-.14a2.36,2.36,0,0,0-.78-.2s-.24.29-.43.5a14.51,14.51,0,0,1-2.22,2.09l-1.17.89-.84-1.21a5.35,5.35,0,0,0-1.25-1.09,5.19,5.19,0,0,1-1.08-.92l-.44-.54.17-.68a3,3,0,0,0,.12-1.05,3,3,0,0,0-.39.05l-.2.06h-.23a16.75,16.75,0,0,0-5.43,1.09l-.71.29-.63-.44c-1.14-.8-1.56-.73-1.61-.72-.38.1-1,1.27-1.39,2.13a24.84,24.84,0,0,1-1.36,2.47l-.58.89-1-.31a5.1,5.1,0,0,0-3.49.56l-.77.3-1.18.44-.58-1.11-.13-.23-.55.4a12.46,12.46,0,0,1-2.12,1.35l-1,.48-.71-.84c-1.73-2.06-8-3.87-12.19-4.07-3.92-.17-7.31,1.59-8.34,3a4.1,4.1,0,0,1-3.38,2.67l-3.49,5.53a20.36,20.36,0,0,1,1.38,1.52l.19.24c1,1.16,1.63,2.28.75,5.14l-.12.4L89,307a1.88,1.88,0,0,0-.78,1.11.85.85,0,0,0,.24.55l.91.91-.79,1c-1,1.27-4.62,5.42-7.16,5.77a11,11,0,0,1-4.87-1,12.39,12.39,0,0,0-3-.82,17.33,17.33,0,0,1-3.31-.56,17.25,17.25,0,0,0-2.91-.52c-1.33,1.63-1.72,5.23-.07,9l.86,2H65.9a5.24,5.24,0,0,0-4.45,1.93,10,10,0,0,1-2,1.64c-.58.34-1.71,1-3.08,1.75-2.71,1.53-8.23,4.64-9.36,5.5l-.11.41a6.37,6.37,0,0,1-2.35,3.9c-1.59,1.12-3.47,2.12-5.57-.34h0a5.11,5.11,0,0,1-2.62-.25c-3.27-1.11-7.23.27-8.7.86-.17,1-.37,3-.48,4.73Zm-7.37-4.74,4.78,1.18a21.9,21.9,0,0,1,.67-4.41l.2-.51.49-.24c.25-.12,6.25-3,11.41-1.26a2.16,2.16,0,0,0,1.35.13,2.29,2.29,0,0,1,2.56,1c.5.58.57.52.58.52s.31,0,1.2-.66a3.74,3.74,0,0,0,1.24-2.3,4.9,4.9,0,0,1,.43-1.22c.36-.63,1.3-1.31,10.39-6.44,1.35-.76,2.47-1.39,3-1.73a7.46,7.46,0,0,0,1.43-1.21,7.91,7.91,0,0,1,4.48-2.59c-1.31-4.36-.63-8.72,1.83-10.85l.4-.34h.53a17.39,17.39,0,0,1,4.13.61,15,15,0,0,0,2.78.48,14.13,14.13,0,0,1,3.85,1,9.37,9.37,0,0,0,3.55.83c.85-.12,3-2,4.67-4a3.44,3.44,0,0,1-.33-1.51,4.14,4.14,0,0,1,1.45-2.95c.36-1.29.16-1.53-.33-2.13l-.22-.27a23.21,23.21,0,0,0-1.94-2l-.87-.8,5.93-9.41,1,.6c.2,0,.65-.29,1.05-1.17l.12-.21c1.54-2.25,5.87-4.51,10.87-4.29,3.92.18,10.31,1.72,13.37,4.23.29-.19.57-.4.82-.59.86-.64,1.75-1.31,2.89-1a2.48,2.48,0,0,1,1.27.76,8.15,8.15,0,0,1,3.93-.74c.26-.46.49-.93.72-1.38.82-1.64,1.6-3.2,3.23-3.61a4.38,4.38,0,0,1,3.29.73,19.8,19.8,0,0,1,5.58-1,3.29,3.29,0,0,1,3,.59,3.26,3.26,0,0,1,.85,3l.08.06c.26.18.56.4.86.65.36-.34.63-.64.86-.91,1-1.13,1.84-1.83,3.89-1.21,3.41-.7,5.44-.44,6.55.83l.33.4c.66.8,1.88,2.29,3.2,2.41h0c-.25-1.79-.2-3.89.94-5.28a4.53,4.53,0,0,1,2.63-3.42,2.92,2.92,0,0,1,2.21,0,4.17,4.17,0,0,1,3.78-1.32c.92-1.07,2.42-2.34,3.9-2a2.24,2.24,0,0,1,1.67,2.07c.11.32.22.6.32.85a8.06,8.06,0,0,1,.7,3,2.3,2.3,0,0,0,1.18,1.47,4.18,4.18,0,0,1,2.39,2,5.15,5.15,0,0,1,4.7.71,5,5,0,0,0,1.49.81c1.94-.19,2.36.09,2.62.26l.11.06a3.23,3.23,0,0,1,1.11.93,6.68,6.68,0,0,0,.57.41l.51.36a4.21,4.21,0,0,1,3.57.09c2.54-1,7.95-4.82,9.81-6.52-1.18-1.81-2.6-4.83-1.89-6.88a2.76,2.76,0,0,1,2-1.82,4.36,4.36,0,0,0,.95-1.3c.49-.85,1.13-2,2.27-2.26.19-.18.36-.37.54-.57a4.32,4.32,0,0,1,1.94-1.45,2.74,2.74,0,0,1,.51-1.87,2.34,2.34,0,0,1,2.22-.85h0a13.65,13.65,0,0,0,1.95-.41c2-.49,4-1,5.42-.43,1.23-.12,3.73-.16,5.24,1.24.47.09.87.19,1.23.28.35-2.09,1-5.37,2.05-7a7.41,7.41,0,0,0,.19-1.05c.24-1.71.68-4.86,4.74-5.52a13.43,13.43,0,0,0,4.83-3.87c.38-1.08,3.4-7.82,4.71-10.73l.36-.79,3.54-.17c0-2.12.44-5.58,3-6.25.88-.43,2.08-1.11,3.25-1.77,1.32-.75,2.46-1.39,3.14-1.67,1.47-.61,3.24-1.78,3.41-3.06l.16-1.25,1.26,0c1.18,0,2.95,1.21,4.17,2.16a5.16,5.16,0,0,1,2.47.14,2.6,2.6,0,0,1,1.52-1.52,3.51,3.51,0,0,1,2.65.58,3.6,3.6,0,0,1,1.13.27,3.76,3.76,0,0,1,1.46-1c.79-3.83,2.08-9.27,3.39-11.1a5.84,5.84,0,0,0,0-2.62,7.25,7.25,0,0,1-.12-2.28,10.14,10.14,0,0,1,.22-1.09c0-.08,0-.15.05-.22a4.32,4.32,0,0,0-.32-.49,7.67,7.67,0,0,1-1-1.79.93.93,0,0,0-.18-.34c-.91-1-.9-3.93-.55-5.09a2,2,0,0,1,1.39-1.53c.37-.1,1-.21,2-.37.83-.14,2.2-.36,2.57-.49,1-.56,5.75-2.31,5.79-2.32.6-.2,5.76-.22,5.82-.22a38.94,38.94,0,0,1,4.56.95,24.44,24.44,0,0,0,3.23.29l.27-.17a5.34,5.34,0,0,1,2.74-1.06,29.18,29.18,0,0,0,3.8-.45l.19-.08a27.1,27.1,0,0,1-.51-5.94,1.85,1.85,0,0,1-1.31-1,2.28,2.28,0,0,1,.17-2.06,3,3,0,0,1-.88-2.67,2.4,2.4,0,0,1,1.39-1.56,5.78,5.78,0,0,1,2.13-4.81,3.05,3.05,0,0,1,3.37.06l.56.35.09.66c0,.29.08.52.12.7l.19-.13c1.52-1,4.05-2.68,6.24-2.11a4,4,0,0,1,1.89,1,1.63,1.63,0,0,1,1.08-1,2,2,0,0,1,1.85.61,3,3,0,0,1,2.83,1c.3-3.4,1.14-3.65,1.72-3.82a14,14,0,0,0,2-1.73l.12-.11,1-.77v-4.18l.14-.29a8.24,8.24,0,0,1,1.1-1.84,4.24,4.24,0,0,1-.48-4l-.06-.25a1.33,1.33,0,0,0-.11.16l-.87,1.58L328,160.47c-1.35-1.24-2.28-2.13-2.78-2.67h0a5.44,5.44,0,0,1-4.18-2.38c-2.73-.43-3.38.16-3.49.29l-.34.41-.53.08a9.92,9.92,0,0,1-5.08-.94l-1-.47.19-1.06h0a1.68,1.68,0,0,0-.17-.83c-.34-.68-1.59-2.49-3.28-2.8l-1.17-.06h-.25a1.76,1.76,0,0,1-1.82-.92c-.54-1,0-2.13,1-3.62a17.17,17.17,0,0,1,1.9-2.6h0c-.06-.19-.16-.53-.24-.71l-.16-.18c-.71-.09-2.53-.23-4.07-.32l-.14,0a7.55,7.55,0,0,0-2.68,0l-1,.67-.78-.91a8.23,8.23,0,0,1-1.5-2.65l-4.83-.24-.08-1.26c-.1-1.57-.08-4,.82-5.5-.81-1.3-1.58-2.73-.83-4a2.86,2.86,0,0,1,2.17-1.29c.19-1.31.34-3,.48-4.65.3-3.48.49-5.24.89-6.21-.08-.25-.14-.46-.2-.62a4.37,4.37,0,0,1-3.08.13,3.75,3.75,0,0,1-2-1.77l-.67-.19c-.94-.25-2.53-.68-3.13-2.08a2.85,2.85,0,0,1-1.3-1.13,4,4,0,0,1-.06-3.57c.25-.86.48-1.76.66-2.52a7.07,7.07,0,0,1-4.73-1.79,4,4,0,0,1-.89-3.56l.06-.33.2-.27a18.84,18.84,0,0,1,3.45-3.71,2.7,2.7,0,0,0,.55-.61,7.59,7.59,0,0,1,1.63-2.05c.12-.61.23-1.24.26-1.46s0-.54-.05-.94a3.94,3.94,0,0,1-.73-.1,3.67,3.67,0,0,1-1.3-.66,2.65,2.65,0,0,0-.27-.18,1.83,1.83,0,0,1-1-.76,2.72,2.72,0,0,1-2.58-1l-.09-.16a3.47,3.47,0,0,1-1.82-.49,3,3,0,0,1-3-.48,1.93,1.93,0,0,1-.27-.38L274,85c-.76.21-2.12.59-3.09-.11a5.77,5.77,0,0,1-3.06-.22l-.29-.08c-.59-.07-2.92-.48-3.18-.53l-.2,0-.18-.09a3.42,3.42,0,0,1-.94-.67l-.54-.3a12.28,12.28,0,0,1-2.84-1.9c-.59.52-2.35,1.34-3.65.56-.74-.44-1.47-1.43-.79-3.61a3.72,3.72,0,0,1,1.71-2L257,76a1.91,1.91,0,0,1,.16-.23c-.07-.4-.12-.74-.16-1l-.53-.19-.41,0a10.07,10.07,0,0,1-1.44,0,4,4,0,0,0-.67,0,10.3,10.3,0,0,1-1.6,0,7.28,7.28,0,0,0-.77,0,9.93,9.93,0,0,1-2.42-.39,2.22,2.22,0,0,1-1.36-.37,2.15,2.15,0,0,1-.48-.44,1.91,1.91,0,0,1-1.47-.3l-.17-.13a.33.33,0,0,0,0,.22c0,.07,2.2,7.33.19,8.48l-.18.09a2.33,2.33,0,0,1-2.33-.38,3.18,3.18,0,0,0-.93-.48,25.12,25.12,0,0,1-3.69-1.68A7.17,7.17,0,0,0,237,78.5a4.76,4.76,0,0,1-3-1.76,2.87,2.87,0,0,1-.56-2,6.44,6.44,0,0,0-.32-1.75h0a1.24,1.24,0,0,0-.4-.12l-.31-.06a5,5,0,0,1-.62,1.54c-.16.24-.49.73-2,1.07a1.51,1.51,0,0,1-.24.57c-.78,1.16-4.28,1.45-4.76,1.45A19.75,19.75,0,0,1,221.2,77L220,76.73l0-.91c-1.91.42-3.7.84-4.07,1a2.86,2.86,0,0,1-1.53.27,2.26,2.26,0,0,0-1.26.27l-.16.07a2.4,2.4,0,0,1-2.25.24c-.82-.43-1-1.23-1.14-2.34-.07-.41-.16-.94-.29-1.59-.58-2.84-1.88-9.26-2.14-10.95l-.26-.23a7.81,7.81,0,0,1-1.93-2.41C204.43,61,203.69,62,203,63l-.3.41-.5.13a14.76,14.76,0,0,1-3,.42,4.91,4.91,0,0,1-4.5-3.32c-1.31-.19-4.1-.72-4.43-4a3.75,3.75,0,0,1-2.13-1.3,2.88,2.88,0,0,1-.52-2,11.94,11.94,0,0,1-.55-2.85h-.12c-3.81-.25-6-.39-6.39-2.11a4.31,4.31,0,0,1-1.67-2.24,2.32,2.32,0,0,1-.07-.65,26.66,26.66,0,0,1-1.9-4.18,2.06,2.06,0,0,1-.45-1.69,8.75,8.75,0,0,1,1.24-3.68,11.19,11.19,0,0,1,.3-6.62c-.59-2-2.49-9-2.14-12l0-.06c-.76-1.3-1.11-1.8-1.79-1.93-1.47-.28-2.87-1.63-3.79-2.53l-.31-.3-1.25,0a21.51,21.51,0,0,1-3.46,0c-.54-.07-4.72-.05-8.53,0l-6.91,2.72.47-2.52c.12-.63.22-1.13.3-1.52-2-.73-6.86-2.3-11.59-3.81-.12,2-.35,5.16-.56,8-.31,7.06-5.91,13.57-7.71,14.43-.67.32-1.57.81-2.44,1.29-.7.38-1.37.74-1.86,1a3.65,3.65,0,0,0-.5.27,7.15,7.15,0,0,0-.46,2.49l-.24,2.26-1.92-1.21a13.4,13.4,0,0,0-1.8-.76c-2.2-.83-4.48-1.69-4.67-3.52a15.13,15.13,0,0,1,1.33-6.2,2.64,2.64,0,0,0-1.62-1.08c-4.57-.21-7.13-2.52-8-4.5-.35-.47-2.4-.26-4.36.39-.16,1.34-.53,2.73-1.87,2.73-.16,0-1,.09-1.86.18l-1.52.15a1.84,1.84,0,0,1,0,1.24,3.1,3.1,0,0,1-2.11,1.66,4.55,4.55,0,0,0-.95.44,8.4,8.4,0,0,1-3,1.49c-.33.11-.65.22-1,.35a5.39,5.39,0,0,1-5.06-.22,8.43,8.43,0,0,1-2.43-3.38,19.59,19.59,0,0,0-1.32-2.3c-1.37-.41-6.37,1.72-7.54,2.7a8.43,8.43,0,0,0-.77.9,11.31,11.31,0,0,1-4.48,3.8c-1.37.55-4.11.85-8.48,1.29A73.85,73.85,0,0,0,51.54,32.7l-.27,0c-1.56.13-1.83.53-1.84.55-.14.22.12,1,.25,1.33a7.08,7.08,0,0,1,.22.71c.06.26.14.69.24,1.2.15.8.47,2.49.72,3.31l1.29.25c3.84.73,4.33.88,4.77,1.5a3.57,3.57,0,0,1,.43,1.88c0,.25,0,.68.09.94l.08.12c.83,1.19,3.71,2.55,5.16,2.66a22.16,22.16,0,0,1,9.43-.58c2.1.63,6.54,5.82,7.15,7.19A35.15,35.15,0,0,0,83,57.62c1.13,1.07,2.11,2,2.67,2.63C87.13,62,89,66.83,88.45,69.79l-.12.61-.53.33c-2,1.27-1.4,5.61-1.05,7.95l0,.31,0,.19c-.34,3-2.52,5.65-6.17,9.24-3.54,3.19-6.43,2-9.48.71-.65-.27-1.34-.56-2.08-.83-2.33-.75-3.12.45-4.2,2.47a8.83,8.83,0,0,1-1,1.54c-.93,1.87-.75,8.81-.43,10.24a8.13,8.13,0,0,1,.15,1.34c3.28,0,3.64.27,4,.83l.16.23.06.27a3.79,3.79,0,0,1-.1,2.32c0,.14-.1.3-.14.5A6.56,6.56,0,0,1,66,110.5a10.3,10.3,0,0,0-1.72,2.36,11.45,11.45,0,0,0-.1,5,2.19,2.19,0,0,0,.39-.62c.5-1.25,1.84-1.09,4.58-.62l1.69.29-.6,1.61c-.18.48-.36,1-.48,1.38.56.45,1.57,1.18,2.43,1.77l1.48,1-1.33,1.21a5.26,5.26,0,0,1-4.3.83.82.82,0,0,0-1,.58l-.1.2c0,.06-3.71,6.36,0,9.64.7.24,1.4.43,2.08.62,2.26.62,5.07,1.39,4.61,4.19-.14.73-.34,2.1-.54,3.55a53.89,53.89,0,0,1-1.32,7.4,5.65,5.65,0,0,0,.81,4.34,34.76,34.76,0,0,0,3.84,2.13l1.43.67L77,159.43A58.36,58.36,0,0,0,74,164.87s0,.06,0,.09a2.34,2.34,0,0,0,.56,1.81,4.27,4.27,0,0,0,3.16.58l.32,0,.3.11c3.86,1.45,6.12,3,6.9,4.66a15.18,15.18,0,0,0,1,1.79,3.6,3.6,0,0,1,.73,1.65,16.52,16.52,0,0,0,.84,1.87l1,2-2,.06h0a1.45,1.45,0,0,0,1.1.19l.43-.11.42.15.23,0a6.83,6.83,0,0,1,4.53,2.78l.35.19c.1-.16.23-.38.33-.56a12.2,12.2,0,0,0,1.4-5.65,28.86,28.86,0,0,0-1.12-5.73,12.07,12.07,0,0,1-.52-2.46v-.49l.3-.38a6,6,0,0,1,1-1c.94-.76,2.11-1.7,2.51-5.27.2-1.3.3-2.31.4-3.21.24-2.26.4-3.76,1.68-4.76l.17-.13c2.21-1.73,4.5-3.34,6.32-3.39a4,4,0,0,0,1.23-.25,2,2,0,0,1,2.7.85,4.86,4.86,0,0,1,.24.58c.21.57.4,1,.81,1.2a3.17,3.17,0,0,0,2.24-.21c.58-1.09,1.76-2.87,3.17-2.36a1.57,1.57,0,0,1,.9,2l-.1.25a6.27,6.27,0,0,0-.33.81,5.06,5.06,0,0,1,4.72,1.53c.25.33,1,1.34,1.63,1.54l.29.1c1,.33,2.6.87,4,0,.57-.37,1.07-.64,1.49-.88,1.17-.66,1.31-.75,1.46-1.42a13.93,13.93,0,0,0,.24-1.51,6.4,6.4,0,0,1,.82-2.79,10.37,10.37,0,0,1,.87-1.2,3.1,3.1,0,0,0,.65-1.06,6.85,6.85,0,0,0,0-2.11,4.9,4.9,0,0,1,0-1.43,4.63,4.63,0,0,1,.64-1.45l.14-.23-7.83-3.92,9.48,1.65c2.54.44,6.12.76,7.79-1.61l1.82-2.57.72,3.06a4.44,4.44,0,0,1-.25,2.15,5,5,0,0,0-.25,2.7,15.67,15.67,0,0,0,2.45,3.12,13.75,13.75,0,0,1,1.94,2.42l.06.13c.66,1.26,1.48,2.83-.56,5.14a8.78,8.78,0,0,0-1.71,2.14,2.3,2.3,0,0,0,2-.93c.92-1.26,3.41-2,5.46-2.15,1.58-.12,3.76,0,5.13,1.38l.17.2a6.59,6.59,0,0,1,1.18,2.86,7.46,7.46,0,0,0,.45,1.58l.06.15c.16.39.35.86.5,1.15l0,0,.25-.13.28,0c.22,0,.44-.06.65-.1a2.45,2.45,0,0,1,2.58.58c.75,1,.26,2.26-.26,3.4-.85,1.61-1,2.24-.29,4.45A4.33,4.33,0,0,1,166,172a2.66,2.66,0,0,1-.68.79,1.71,1.71,0,0,1-.33.4,1.76,1.76,0,0,1-.56.34,6,6,0,0,1,.75,2.18,2,2,0,0,1-.89,2.06l.13.06c1.69.7,3.15,1.3,3.74,3a4.06,4.06,0,0,0,.4.74,2.52,2.52,0,0,1,.46,2.15c.27,0,.54-.1.8-.16l.48-.12,2.82,1.27v2.18h2.53v7.09l-1.95-.78a1.76,1.76,0,0,0-1-.1h0s-.19.28-.05,1.23a6.09,6.09,0,0,1,1,1.48l.33.79-5.63,6.73L163,207.84l-7.88-6.07-1.31-1.67c-.51-.35-1.85-1.28-2.61-1.87-1.15.23-3.89,1.77-4.19,2.7l-.23.72-.73.21c-2.4.68-4.84,1.75-5.31,2.31a24.64,24.64,0,0,0,1.2,9.27c1.29,3.73,1.15,5.22,1,5.69l-.14.54-.46.3c-3.84,2.47-5.32,3.42-6,3.78-.28.26-1.12,1.17-1.79,1.93l-.54.61-6.9-1.41-3.62,3.29-.51,0a6.49,6.49,0,0,1-2.93-.65c-.74-.37-1.85-.93-2.22-14.14v-.26l.08-.24s1-3.1-.32-3.8c-2.61-.12-8.82,0-8.88,0l-1.22,0-.28-1.61c-1.33-.25-3.19-.89-3.54-2.57l0-.13c-.13-1.12-.64-4-.94-5.67a4,4,0,0,1-3.13-2.05c-1-.08-2.65-.16-4.22-.24-2.4-.12-3.78-.19-4.62-.27a2.35,2.35,0,0,1-1.87.91c-1.48,0-2.37-1.51-2.66-2a3.44,3.44,0,0,0-2.43-2.19,14.14,14.14,0,0,0-2.87-.67,5.1,5.1,0,0,1-2.2-.64,6.28,6.28,0,0,0-1,.06,70.88,70.88,0,0,0-5,8.12,64,64,0,0,0-.12,8A10.3,10.3,0,0,1,71,213.3a10.32,10.32,0,0,0-.65,1.46c-.56,1.94-4.12,3.8-5.62,4.51l-.73.35-.67-.46c-.06,0-2.15-1.3-5.48,1-.53.35-1.09.67-1.66,1-3.45,2-5,3.28-4,5.85a12.71,12.71,0,0,0,3,1.92,10.25,10.25,0,0,1,3.86,2.88l.23.3.06.38c.25,1.71,1,4.5,1.93,5.36l.09.09a8.75,8.75,0,0,1,1.92,4.48v0l.37.1c1.12.29,2.51.64,3.1,1.94a3.52,3.52,0,0,1-.28,3.08,7.58,7.58,0,0,1-3.23,4.29L63,252a4.21,4.21,0,0,1-3-.35l-.08-.05a2.41,2.41,0,0,0-.26.62l-.31,1.33L58,253.25l-4.39-.85-1.41,4.9-14.33.64-3.68.28.05.32c2.64-.06,5.54.13,6.56,1.16a4.33,4.33,0,0,0,.69.58,6.31,6.31,0,0,1,2.76,4.06c.59,2.35,2,9.72,1.62,12.36-.16,1.7-5.11,6.53-14.72,14.3a44.19,44.19,0,0,0-.87,6.77v.52l-4.14,4.87H22.54l-.48,3.64-2.93.33a33.28,33.28,0,0,1,1.2,7c0,3.51.1,19,.18,20.26C20.57,334.77,20.52,335.79,19.7,341.59Zm27.19-6.14h0ZM189,290.57h0Zm-4.88-.57h0Zm-14.66-11.14M43,276.31v0Zm-4.18-14.53h0Zm196.66-12.56,0,.07ZM64.2,245.58Zm57.5-20.18h0Zm14.55-1.61-.32.14A1.33,1.33,0,0,0,136.24,223.78Zm4.42-19.56ZM276,202.54Zm3.11-5.74-.08,0Zm.08,0Zm48.13-21h0Zm-165.79-1.44h0Zm2.09-3.54Zm168.81-4.47h0Zm-169.94-5.86Zm147.26-18.12h0Zm-3-.21Zm-172.32-1Zm174.27-1h0Zm-165.34-1.3ZM69.6,120.44ZM66,106.83ZM286.61,94.62l0,0ZM262.8,83h0ZM246.86,72.18h0Zm2.1-.85h0Z"/></svg>