<svg id="Layer_1" data-name="Layer 1" xmlns="http://www.w3.org/2000/svg" viewBox="0 0 350 350"><defs><style>.cls-1{fill:#999;}.cls-2{fill:#f90;}</style></defs><title>M</title><path class="cls-1" d="M302.62,45.46c-2.8-1.36-16.46-6.75-16.86-10.71.72-1.2,3.12-4.19,3.36-5.67-.12-1.24-.56-2.84.68-3.84.84-1,1.8-1.24,1.08-1.92-.92-.76-2-2.36-3.6-2.8-1.16-.24-11.63-4.67-11.63-4.67l-9.87-4.91c-1,1.56-8.23,13.58-10.87,15.22-1.56.92-9.59,5.75-14.3,11.83-1.2.2-7.83,0-8.67.12a5.13,5.13,0,0,0-.6,1.28s-4.79,1-5.79,1a6.36,6.36,0,0,0-.6,2.6s-2.16-.48-1.72,3.16c-.08,2.64-.12,5.43-.12,5.43l-6.87-.16.23-2.52h-3.87l.16-1.44s-5.35-1.48-7-1.16c2.12-1.76,5.39-5.23,5.39-5.23l-10.43-.16-.16-16.62L169.75,24V7s-34.72.52-36.15.2a12.29,12.29,0,0,1,.2,1.84s-7.79-1.12-13.34,4c-.32,1.84-.32,15.58-.32,15.58l-35.25.62c0,.32,0,.66,0,1A38.26,38.26,0,0,0,89,29.44V39.3l-9.87.16c-.2,1.28-.2,14-.2,14s8.23-3.36,10.55-3.12c-.2.8-.52,7.51.68,11.07a56.58,56.58,0,0,1,4.35,20.85c1.08.84,7.59,2.24,8,4.67a7.69,7.69,0,0,0,2.6.8v2.52L103,90.16l.12,2.8L63.12,94l9.95,24.81-9.23.4,7.47,23.05,11.91-3.76L88,156l13.58-.32.64,3.28h-1.8l.68,4.39-.24,1.08-22.29,2.28-3.52-11.47s-11,2.4-17.54,1.92c.08,2.44,1.76,4,1.4,6.19-.24,1-.68,4.67-2.6,1.4-1.8-2.64-3.32-6.39-6-7.47-1.72.68-6.47,5.39-7.59,8.31l-.09,0c0,1.74.1,4.17.25,6.39.24,2.52,2.56,18.78,2.56,18.78S66.64,201,66.76,201s8.23,4.51,10,5.27c2.24.76,4.71.4,5.87-1.44,1.48-3.88,5.43-.64,5.87-.16s3.44,19.62,3.84,21.73,1.6,9.07,2.2,10.83c.36,1.64,4.39,23.17,4.51,24.49s5.35,28.92,5.87,30.76c.36,1.44,3.48,16.9,3.6,19.7s-.16,8.27.08,10.19c1.64,1.32,4.19,4.35,4.59,5.51,0,.76-.08,7.83-.08,7.83s4.59-.24,5.79-.12c.24.12,3,6.51,3,6.51a33.86,33.86,0,0,0,3.56.56.74.74,0,0,1,.18.33h0l11.68-.57,1.28-18.54c-1.44-3-8.07-12.78-9.11-13.26,0,0-.64-.52.2-1.24,1-1,7.63-10.23,8.07-13.1,1.4-.8,2.76-4.19,3-6.71.4-2.6,5.81-31.08,6.35-32.94s3.72-20.79,4.25-22.17,3.82-14.28,5.33-15c2.48-.48,11.75-2.88,15.1-1.44,3.44,1.2,3.76,1,3.76,1s4.63-2.64,5.35-3.52,5.59-6.47,5.59-7a3.58,3.58,0,0,0-1.52-2.56c-.72-.24-1.8.48-2.6-.92-.36-.88-2.24-1.32-2.52-2.72-1.24-1-1.56-1.24-2.6-1a6.51,6.51,0,0,1-1-2.6c0-.72-1.6-1.52-2-1.52-.12-1.68,0-5.23-.28-5.67-2.24.52-8,1-8.51.48.16-1,1.08-21.29,1.08-21.29s2.16-6.51,2.48-7.11a13.71,13.71,0,0,0,4,.84,19.9,19.9,0,0,0,4-.48c.8-.16,2-2.88,2.28-3.36s9.79-2.84,10-3,10.95-1.6,13.58-1.36c.16-1.68,0-6.23,0-6.23l15-.24h.72v-2.48h1.88v-1.88s6.19-.12,7,.24a1.37,1.37,0,0,0,1.64-.84,16.12,16.12,0,0,1,1.44-8.71c1.28-3.48,2.4-13.14,2.68-16.3,1.56-.12,2.64.08,2.76-.92a38.81,38.81,0,0,0,1.52-6.55,41.34,41.34,0,0,1,1.4-9.67c.76-2.56,2.6-9.43,2.6-9.43,1.64.72,8.55,4.39,11,5,2.48.2,14.58.48,15.9,0,1-1.16,1.72-4.83,4.07-6,2-2.2,18.18-18.34,18.42-18.7a2.31,2.31,0,0,0-.16-1.72c-.32-.88-1.64-3.32-.8-4a43.88,43.88,0,0,0,6.19-7.91c2-2.12,8.39-5.71,11.11-6.15C307.26,52,305.7,46.81,302.62,45.46Z"/><path class="cls-2" d="M124.66,344.44l-.17-.46c-1-.14-2.39-.4-2.88-.5l-.73-.15-.29-.69c-.93-2.18-2-4.59-2.51-5.68-1.24,0-3.47.08-4.86.15l-1.51.08,0-1.51s.07-6,.08-7.53a21.58,21.58,0,0,0-4.06-4.69l-.45-.36-.07-.57a54.18,54.18,0,0,1-.09-5.72c0-1.67,0-3.4,0-4.58-.11-2.56-3.17-17.89-3.55-19.41s-5.77-29.45-5.91-31c-.11-1.14-4-22-4.47-24.24-.48-1.48-1.21-5.42-1.93-9.33-.12-.66-.22-1.22-.3-1.61-.11-.59-.42-2.49-.82-4.94-.78-4.77-2.37-14.44-2.84-16.26a4.14,4.14,0,0,0-2.53-1.08c-.12,0-.47.1-.8,1l-.13.25c-1.42,2.26-4.45,3.07-7.53,2l-.1,0c-1.13-.48-4.26-2.16-7.65-4-1.08-.58-2.19-1.19-2.38-1.28v0c-1.13-.45-5-2.34-21.37-10.23l-.68-.33-.11-.75c-.09-.67-2.32-16.32-2.56-18.84-.15-2.14-.21-4.38-.25-6.49l0-2.21.89.38c1.8-3.06,5.81-7,7.74-7.8l.53-.21.52.21c2.44,1,3.91,3.48,5.34,5.89.4.69.79,1.34,1.18,1.93l.06-.3c0-.15.06-.29.09-.4a4.82,4.82,0,0,0-.55-2.44,9.73,9.73,0,0,1-.87-3.43l-.05-1.58,1.57.12c6.23.46,17-1.87,17.13-1.89l1.27-.28,3.56,11.6,20-2-.86-5.59h1.73l-.08-.41-13.5.32-4.7-17.19L70.4,144l-8.48-26.16,9.09-.39-10-24.84,40.55-1.05-.12-2.92,1.57.09a8.45,8.45,0,0,1-1.23-.53l-.63-.34-.1-.71c-.08-.57-1.72-1.45-4.87-2.62a10.26,10.26,0,0,1-2.55-1.14L93.12,83v-.68a54.63,54.63,0,0,0-4.1-20l-.16-.4c-1-2.82-1-7.36-.92-10a64,64,0,0,0-8.45,2.85l-2,.8V53.49c0-2.15,0-12.92.22-14.24l.18-1.18,9.67-.16V31.24c-.64.14-1.46.3-2.5.48l-1.75.3.09-1.77c0-.34,0-.65,0-.95V27.9l6.06-.11.9-.28v.26l28.29-.5c0-3.67.06-12.82.34-14.43l.08-.47.35-.33c4.37-4.06,9.92-4.54,12.73-4.52l-.51-2.19,2.2.49c1.47.2,22.23,0,35.83-.23l1.44,0v17l30.87.2.16,16.63,12.26.19L212.25,42c-.09.09-1.51,1.6-3.08,3.12,1.63.3,3.27.73,4,.93l1.17.32-.12,1.07H218L217.8,50l3.93.09c0-1,.05-2.5.09-3.92-.2-1.82.15-3.15,1-3.94a2.68,2.68,0,0,1,.8-.5,6.7,6.7,0,0,1,.65-2l.4-.75h.85c.47,0,2.71-.38,4.77-.79.1-.2.23-.44.38-.73l.36-.65.74-.07c.38,0,1.32,0,3.1,0,1.51,0,3.87,0,5,0,4.69-5.77,12.11-10.39,14.31-11.69,1.89-1.17,7.54-10.21,9.39-13.18.48-.77.84-1.34,1-1.6l.69-1,11,5.47c4.93,2.08,10.55,4.38,11.29,4.56a7.93,7.93,0,0,1,3.48,2.39c.26.26.5.51.72.7a2,2,0,0,1,.77,1.57,2.41,2.41,0,0,1-1.05,1.76,5.39,5.39,0,0,0-.61.59l-.2.19c-.4.32-.37.88-.23,2,0,.21.05.41.07.61l0,.18,0,.18c-.21,1.29-1.29,2.92-2.69,4.91l-.54.78c.6,1.29,3.7,3.73,14,8.3.83.37,1.5.67,1.94.88,3.71,1.66,5.44,7.41,5.53,9.53l.06,1.26-1.25.2c-2.28.37-8.28,3.69-10.21,5.63a46.12,46.12,0,0,1-6.17,7.9,10.35,10.35,0,0,0,.68,1.93c.1.23.19.44.25.6a3.72,3.72,0,0,1,.28,2.51l0,.32-.18.27c-.15.23-.48.58-8.07,8.23-4.42,4.46-9.43,9.51-10.48,10.64l-.19.2-.25.12c-1.12.53-1.86,2.17-2.45,3.49a9.44,9.44,0,0,1-1.14,2.09l-.26.31-.38.13c-1.75.58-14.54.18-16.46,0l-.24,0a66.22,66.22,0,0,1-8.82-3.93l-.92-.46c-.59,2.2-1.63,6-2.16,7.81a40.76,40.76,0,0,0-1.34,9.19,31.91,31.91,0,0,1-1.46,6.64l-.08.28c-.27,1.67-1.75,1.91-2.85,2-.38,3.7-1.41,12.08-2.64,15.43l-.05.12a14.58,14.58,0,0,0-1.32,7.78c0,.17,0,.27,0,.32a2.17,2.17,0,0,1-.87,1.63,3,3,0,0,1-2.46.6l-.28-.09a45,45,0,0,0-5.06-.14v1.9h-1.88v2.48h-2.14l-13.52.22c0,1.51.06,3.83,0,5l-.13,1.41-1.41-.13c-2.3-.21-11.62,1-12.91,1.26-.35.15-1.1.35-3.26.94-1.87.51-5.19,1.41-6.26,1.82l0,.07c-1.12,2.23-1.9,3.41-3,3.63a21.54,21.54,0,0,1-4.35.51,12.42,12.42,0,0,1-3.11-.51c-.46,1.3-1.22,3.54-1.92,5.63-.15,3.23-.71,15.55-1,19.83a39.32,39.32,0,0,0,6.68-.65l1-.24.52.95c.29.52.33,1.2.37,3.85,0,.52,0,1,0,1.52a3.28,3.28,0,0,1,2,2.43v.13l0,.13a7.49,7.49,0,0,0,.43.92,4.68,4.68,0,0,1,2.65,1.39l.4.32.1.5c.05.25.51.57.91.85a4,4,0,0,1,1.47,1.49.52.52,0,0,0,.11.14,3.29,3.29,0,0,0,.39,0,3.17,3.17,0,0,1,1.29.11c1.42.47,2.49,2.69,2.49,3.9,0,.69,0,1-5.1,7l-.81,1c-.79,1-4.19,3-5.69,3.82-.55.37-1.32.46-5-.82-2.54-1.08-9.78.5-12.86,1.17l-1.08.23c-1,1.49-3,8.56-3.82,11.29-.47,1.65-.73,2.53-.88,2.92-.27.77-1.44,7.26-2.3,12-1,5.68-1.67,9.2-1.92,10.05-.49,1.68-5.84,29.75-6.3,32.71-.2,2.29-1.35,5.86-3.11,7.38-1.06,3.57-6.62,11.22-8.06,13,2.49,2.63,7.9,11.06,8.92,13.2l.16.33-1.39,20.16Zm-1.76-3.6a23.77,23.77,0,0,0,2.55.39h.39l.33.2.15.1L136,341l1.17-16.9c-1.63-3.19-7.21-11.29-8.37-12.31l-.2-.14a2.11,2.11,0,0,1-.76-1.57,2.33,2.33,0,0,1,.86-1.79c1.08-1.18,7.3-10,7.66-12.3l.1-.68L137,295c.73-.42,2.05-3.15,2.25-5.59v-.1c.37-2.38,5.82-31.14,6.39-33.12.23-.78,1.09-5.55,1.85-9.76,1.43-7.92,2.14-11.74,2.45-12.53.11-.28.44-1.44.8-2.67,2.77-9.64,3.9-12.46,5.25-13.1l.34-.11,1.43-.3c5.42-1.19,11.46-2.34,14.5-1a20.26,20.26,0,0,0,2.84.83,35.78,35.78,0,0,0,4.62-3l.84-1c.94-1.1,3.63-4.27,4.37-5.36a3.46,3.46,0,0,0-.54-1l-.15,0a3.06,3.06,0,0,1-3.17-1.59l-.08-.17s-.33-.21-.52-.35a4.84,4.84,0,0,1-1.91-2.07,3.78,3.78,0,0,0-.72-.5,1.32,1.32,0,0,0-.33,0l-1.11.25-.49-1-.3-.6a6.36,6.36,0,0,1-.84-2.29,3,3,0,0,0-.69-.42h-1.17l-.09-1.32c0-.68-.07-1.63-.08-2.55,0-.47,0-1.06,0-1.58-2.46.36-7.06.88-8.18-.08l-.6-.51.12-.78c.12-.88.7-13.12,1.06-21.14v-.2l.06-.19c.82-2.48,2.24-6.72,2.57-7.33l.56-1,1.13.37a12.34,12.34,0,0,0,3.6.77,17.8,17.8,0,0,0,3.49-.41,12.11,12.11,0,0,0,1.27-2.17c.13-.25.23-.45.29-.55.4-.68.69-.87,7.79-2.8,1.23-.33,2.63-.71,2.88-.81v0c1.83-.64,9.41-1.35,12.8-1.5,0-1.6,0-3.84-.06-4.79l-.05-1.44,15.75-.25v-2.49h1.88V143.9l1.39,0a41.08,41.08,0,0,1,7.22.24,17.39,17.39,0,0,1,1.6-8.68c1.16-3.22,2.25-12.24,2.57-15.88l.11-1.2,1.2-.09.91,0,.65,0,.06-.2a37.29,37.29,0,0,0,1.35-5.78,42.33,42.33,0,0,1,1.47-10.11c.73-2.47,2.56-9.28,2.57-9.35l.43-1.6,1.51.66c.5.22,1.4.67,2.54,1.24a73.7,73.7,0,0,0,8.16,3.69c2.7.2,12.37.38,14.81.15.16-.3.34-.69.5-1.06.71-1.58,1.68-3.72,3.56-4.75,1.35-1.43,5.94-6.05,10.38-10.53,3.24-3.27,6.58-6.63,7.55-7.65,0-.28,0-.32,0-.38l-.11-.23c-.05-.14-.14-.34-.23-.56-.65-1.51-1.64-3.79-.12-5A43.49,43.49,0,0,0,295,59.18l.18-.23c1.83-1.94,7.12-5.11,10.55-6.23-.45-2-1.77-5.11-3.7-6l0,0c-.41-.2-1.06-.49-1.87-.84-9.48-4.21-15.43-7.51-15.78-11l0-.47.24-.4c.21-.35.56-.85,1-1.43A19.86,19.86,0,0,0,287.69,29l0-.3c-.15-1.17-.4-3.12,1.15-4.47.16-.18.32-.34.47-.48l-.23-.24a5.74,5.74,0,0,0-2.13-1.62c-1.1-.23-9.31-3.68-11.79-4.73l-8.8-4.38-.3.48c-4.08,6.53-8.15,12.75-10.33,14.1s-9.58,5.89-13.93,11.49l-.34.44-.55.09a58.24,58.24,0,0,1-6,.12h-2.08l-.08.19-.13.89-1,.2c-.91.18-3.5.69-5.07.9a5.64,5.64,0,0,0-.18,1.27v2l-1.63-.62a3,3,0,0,0-.08,1.57v.21c-.08,2.62-.12,5.41-.12,5.41l0,1.43-9.82-.23.23-2.48H211l.2-1.79a20.9,20.9,0,0,0-5.13-.83l-5.49,1.1,4.31-3.58c.89-.74,2-1.81,3-2.78l-8.51-.13-.16-16.61-30.9-.2v-17c-8.13.12-27,.37-33.14.24,0,.16,0,.27,0,.31l.06,1.69-1.68-.24c-.07,0-6.85-.9-11.8,3.33-.18,2.22-.25,10-.25,14.88v1.39l-31.12.55V40.7l-10,.16c-.07,2-.1,6.3-.11,10.55,2.76-1,7.37-2.63,9.27-2.45l1.63.17-.4,1.58c-.16.77-.43,7.08.65,10.27l.12.3a57.64,57.64,0,0,1,4.29,20.13c.37.15.86.33,1.26.48,2.5.92,5.53,2,6.45,4a6.38,6.38,0,0,0,1.57.41l1.28.13v5.3l-2.05-.12.11,2.67-39.35,1,9.93,24.77-9.37.41,6.46,19.94,12-3.78,4.89,17.89,13.67-.32,1.2,6.14h-1.87l.47,3-.52,2.34-24.47,2.5-3.48-11.35a87.37,87.37,0,0,1-14.83,1.75c.11.31.23.62.36.94a7.18,7.18,0,0,1,.71,4l0,.12c0,.09,0,.22-.08.36-.26,1.26-.65,3.15-2.24,3.42s-2.51-1.38-2.87-2-.9-1.41-1.34-2.17c-1-1.76-2.11-3.58-3.41-4.41-1.69,1.13-5.35,4.86-6.27,7.17,0,1.92.11,3.92.23,5.79.2,2.12,2,14.71,2.44,17.93,8.15,3.93,19.87,9.58,20.52,9.86h0c.36.15,1,.52,2.66,1.4,2.33,1.26,6.2,3.36,7.36,3.86,1.46.48,3.27.42,4.11-.77a3.86,3.86,0,0,1,2.86-2.57c2.71-.51,5.29,2.09,5.32,2.11.45.49.6.66,3.37,17.56.4,2.42.7,4.29.81,4.87.08.4.18,1,.3,1.63.49,2.68,1.39,7.67,1.85,9l0,.15c.25,1.15,4.4,23.09,4.54,24.67s5.39,29,5.83,30.5c.29,1.17,3.52,17,3.65,20,.05,1.26,0,3,0,4.74s0,3.68,0,4.8c1.64,1.47,4.07,4.3,4.57,5.75l.08.22v.24c0,.54,0,4.22-.06,6.34,1.5-.06,3.66-.13,4.5,0l.26,0,.23.12C120.11,334.57,120.26,334.65,122.9,340.84Zm7.47-31.33.1.08-.1-.09Zm44.44-91.79h0Zm10.31-9.78Zm-.77-.8Zm-18.3-16.5M291,68.84l0,0Z"/></svg>