<svg id="Layer_1" data-name="Layer 1" xmlns="http://www.w3.org/2000/svg" viewBox="0 0 350 350"><defs><style>.cls-1{fill:#999;}.cls-2{fill:#f90;}</style></defs><title>M</title><path class="cls-1" d="M340.2,168.38l1.75-1.09-1.68-1.2a15.5,15.5,0,0,1-5.14-7.5L335,158l-1.64-.73-.12-.49-.26-.68.89-1.68-.68-.72a27.81,27.81,0,0,1-2.73-3.24,4.13,4.13,0,0,1-.3-.94h0l-.06-.85-5.68-2.33c.05-.63.13-1.62.24-3.1a26.81,26.81,0,0,0-1.43-10l-.33-1.11-1.15.13c-1.23.15-3.76-.7-5-1.11a4.54,4.54,0,0,0-1.39-.36,2.64,2.64,0,0,0-1.34.45l-3-.51-.72,1.15c-.34-.17-.75-.35-1.24-.54s-.66-2.17-.61-3.83c.31-1.06,2.07-7.15,3.63-12.81s-1.2-9.52-2.87-11.75c-.35-.46-.64-.86-.84-1.2a3.9,3.9,0,0,1-.29-.58l.49-.12V95.61l-4-.14L302.68,94l0-.06a8,8,0,0,0,1.09-2.3c.15-.39.35-.92.43-1.08.44-.8.25-1.79-.09-3.35-.1-.46-.2-.94-.23-1.23a8.1,8.1,0,0,1,.93-2.57l.5-1-.8-.71c-3.72-3.32-4.21-3.48-4.47-3.57a4.19,4.19,0,0,0-.86-.17l-.32,0,0-.07a3.83,3.83,0,0,0,.52-1.44,8.82,8.82,0,0,0-.5-2.71c-.08-.27-.14-.49-.17-.63a1.49,1.49,0,0,0-.67-1c-.39-.25-1-.66-5.44.45l-1,.26v2.24l-2.5,2h-3.6v4.3l.68,1.63-2.63,2.71-3.69,1.08-8.13-4.54-.68,1.18a7.78,7.78,0,0,1-1.44,1.89c-.63.18-2,.45-2.94.6-.46-1.5-1.31-4.49-2-6.82s-1.22-4.27-1.54-5.33a50.74,50.74,0,0,0-3.71-8.55c-.83-1.58-2.63-4.76-3.83-6.86l-1.1-1.94c-.37-.68-.26-.92-.22-1a2,2,0,0,1,.36-.51c.17-.2.38-.44.67-.84A5,5,0,0,1,256.61,53l.95-.56-1.26-3.88-1.24.29a53,53,0,0,0-5.12,1.39c-.24.11-1.11.45-1.89.74-1.29.49-2.1.81-2.44,1l-1.79.91-4,2a22.1,22.1,0,0,1-2.26.64h-.31c-1.44,0-3.62.09-4.17,1.68,0,.09-.06.14-.06.15a2.33,2.33,0,0,1-.34.09c-.36.09-1.18.22-1.83.33-.25-.6-.61-1.54-1-2.63-.5-1.62-.93-2.33-1.56-2.65l-.58-.27-2.36.85.83,1.05a3.2,3.2,0,0,1-.37.26,6.07,6.07,0,0,1-2.54.62,3,3,0,0,0-2.25.8A11.59,11.59,0,0,0,219.89,58c-.25.52-.5,1.07-.75,1.53-.67,1.25-1.63,3.49-1.67,3.58l-.17.4L219,71.17l-8.07,9.48L199.4,72.91l-6.2,5-9.49,8.64c-1.62-.19-4.8-.46-6.26.19-1,.43-7.69,2.63-12.35,4.12l-7.23-4.76-.76,1.14c-1.09,1.63-2.48,3.59-2.88,4l-.35,0a3,3,0,0,0-2.32,1A37.8,37.8,0,0,1,148,94.43c-3.17,1.83-3.64,2.14-3.87,2.83-.17.52-.6,2.36-.68,2.72l-.07.29.06.29a4.25,4.25,0,0,1-.13,2.57l-.56.31a19.48,19.48,0,0,0-3.73,2.45,8.35,8.35,0,0,0-2,3.57,12.06,12.06,0,0,1-.84,1.94l-1,1.62-.09.17c-.35.82-1.4,2.62-2.41,3-1.91.64-6.08,1.92-6.12,1.93l-1,.3V129.5l2.85,2-5.06,7-.44-3.72-4.75-5.34-16,4.56L89.62,148.72l-4.22-2.53-2.35.11a6,6,0,0,1,.69-2.62,74.76,74.76,0,0,1,5.63-6.28L91.44,136,95,137l6.8-10-10.89-8.45,3.47-5.53-8.18-8.46-1,1.16c0,.05-4.32,5.09-7,6.73-1.92,1.17-5.52,2.9-8.15,4.16-1.27.61-2.28,1.09-2.79,1.37a31.7,31.7,0,0,1-4,1.77l-.28.06c-2.58.53-6.12,1.55-7.13,4.24-.17.46-.4,1.1-.66,1.85-.85,2.41-3.12,8.8-4.16,9.67s-4.79,1.85-7.23,2.35l-.64.13-.76,1.47-8.82-.47-4.88,4.54c-1.15.32-5,1.39-6,1.78L12.4,149.2l-.53.19L8.5,156.49l-.1.3A14.93,14.93,0,0,0,8,159v.84l.75.38c3.17,1.62,6.43,9.7,7.42,12.68l.29.86.9.07a47.85,47.85,0,0,0,4.87.17,14.93,14.93,0,0,0,1.79-.23,7.68,7.68,0,0,1,1.81-.19,3.16,3.16,0,0,0,3.2,1.16l1.44,1.76-2.53.89,1.5,3.54-1.62,4.78.86.59c2.55,1.75,6.88,4.83,7.63,5.63a5.3,5.3,0,0,1,.82,2.81,2.41,2.41,0,0,0-1.91,2.34,5,5,0,0,1-.24,1c-.74,1.9,1,2.89,1.89,3.42A6.83,6.83,0,0,1,39,203.16,9.3,9.3,0,0,1,40.43,208v1.16l1.14.2c.06,0,6.47,1.13,7.73,1.4l.69.17a1.23,1.23,0,0,0,0,1,15.35,15.35,0,0,1,.4,10.46c-1.1,3.34-4.42,5.21-5.42,8.32s1.65,5,4.18,6.22c3.74,1.82,7.57,4,6.47,9-.44,2-2,3.74-1.4,5.89a3.57,3.57,0,0,0,2.87,2.67c3.15.8,5.14-.58,8.28,1.53,5.29,3.56,9.08,9.56,13.91,13.75A83,83,0,0,0,95.78,281.1c4,2,8.15,3.38,12.29,1a23.76,23.76,0,0,0,5.07-4.42l2.11-.79a3.5,3.5,0,0,1,3,.19,4.49,4.49,0,0,0,.85.31,2.6,2.6,0,0,1,.29.61c.07.18.14.35.21.51a66.82,66.82,0,0,1-.75,6.93L118.2,290l6-6.65,2.29.71,2.5-2.9-1.41-1.24,1.66-2.2,2.65,2,1.51-1.45,1.73,1.33.76-1.06,1.12.86,1.64-1.72,1.89,1.37.92.67.83-.78a8.64,8.64,0,0,0,3-6.83v0a9.82,9.82,0,0,1,.81-1.29c.37-.32,7.19-8.58,7.23-8.64.73-1.09.13-1.58-2.13-3.43l-1-.82,1-1.84-.64-2.17,1.47-1.92-1.57-1.48.87-2-.46-.55.95-1.44-.75-1.06.89-.3c1.35.13,2.87.32,3.27.41a20.12,20.12,0,0,1,2.56,3.19c.66,1,1.08,4.51,1.16,6.72l0,.59,5.87,5.23,9-1.17,2.71-2.71a5.27,5.27,0,0,1,1.27-.75l.76.56a10.15,10.15,0,0,0,2.46,1.4c1.52.64,4.38,1.64,6.36,2.31l4.84,1.63v2.79l.91.33a8.62,8.62,0,0,1,1.71.8,14.75,14.75,0,0,0,1.1,1.24c.2.21.38.4.48.52l.16.25a1.57,1.57,0,0,1,.27.54c.34,1.36,3.88,4.25,4.76,4.75a15.12,15.12,0,0,0,3.77,1.24l.5.1.44-.25a10.16,10.16,0,0,1,3.17-1.24,10.68,10.68,0,0,0,.94.74,6.91,6.91,0,0,1,2.27,2.42,5.43,5.43,0,0,0,5.84,2.84,12.09,12.09,0,0,1,2.93.62,4.79,4.79,0,0,0,1.83.35,5.56,5.56,0,0,0,1.74-.72l.2-.11c.5.2,1.41.61,2.16,1l.95.45,2.65-3a19.06,19.06,0,0,1,2.48-.79,29.42,29.42,0,0,0,1.33,4.84l.26.7,2.12.45,2.41,1,.64-.9c.07-.09.32-.45.55-.83,3.35,2.83,3.67,2.78,4.22,2.69.21,0,1.19,0,2.16,0l1.82,2c1.27,1.41,3.08,1.18,4.4,1a9.47,9.47,0,0,1,1.06-.09,8,8,0,0,0,2.38,2.42v1.13a24.89,24.89,0,0,1-.45,2.9c-.24.59-.14,1.31.25,3.79a3.29,3.29,0,0,0,3.48,2.86l.52,0c.39,0,.74-.11,1.47-.7h4.45l.36-.83s1.13-2.61,1.61-3.68a4.3,4.3,0,0,1,1.64-.24l1.71,0-.65-3.35c-.1-.54.86-2.38,2-3.79l.08-.11a27.71,27.71,0,0,0,1.5-2.55c.4-.86,1.16-3.19,1.25-3.45l.11-.34-.26-1.35v-2l-1.06-.25-1.76-.41.8-1.12,3.06.56v-3.11a5.8,5.8,0,0,1,1.72-2.48l.37-.35.05-.51c.14-1.33.31-2.83.4-3.47a8.69,8.69,0,0,1,1.84-1.33,9.72,9.72,0,0,0,3.52-3.5,5.29,5.29,0,0,1,2.44-1.88,4.38,4.38,0,0,0,2.28-2.39,2.93,2.93,0,0,1,.84-1.17,14.73,14.73,0,0,0,3.59-3.33H296l3.27-6.75-.94-1.39c.25-.92.75-2.74,1.28-4.49a11,11,0,0,0,0-5.59c-.11-.65-.23-1.31-.32-2.06a8.47,8.47,0,0,1,0-3h0l.48-1-.81-.7a8.29,8.29,0,0,0-2.25-1.39,2.32,2.32,0,0,0-1.77,0l-1.14-.64,6.31-4.09a4.49,4.49,0,0,0,2.22-.16,21,21,0,0,1,3.27-.19H307l.34-6.06.83-1.83,1.9-1a15.25,15.25,0,0,0,1.51-1l3.63,1.12,3.06-6.26-1.59-.45c-1.85-.52-3.91-1.12-4.55-1.33l-2.43-2.27v-2.53h2.74l.05-1.32c.1-2.56.26-5.46.35-6.12.12-.23.63-1.12,2.69-4.13l.2-.29a7.13,7.13,0,0,1,.9-1.17c.37-.2,4.17-1.94,6.48-3l.37-.17.22-.35s.9-1.43,1.34-2.16a25.44,25.44,0,0,1,2.87-2.67,22.94,22.94,0,0,1,3.27-.86l.26-.06a7.56,7.56,0,0,0,.78-.22l.36-.11c.38-.1.81-.22,5-4.45l.46-.48-.08-.66c0-.07-.21-1.69-.42-2.7l0-.08A14.86,14.86,0,0,1,340.2,168.38Z"/><path class="cls-2" d="M260.19,302.85a4.7,4.7,0,0,1-4.88-4.06c-.41-2.57-.55-3.5-.2-4.44.12-.52.38-2.16.39-2.49v-.4a9.58,9.58,0,0,1-1.68-1.66l-.18,0c-1.44.18-3.86.48-5.63-1.47l-1.42-1.58c-.72,0-1.2,0-1.36,0-1.07.16-1.85-.18-4.09-2l-1,1.39-3.33-1.43-2.74-.59-.54-1.43a33.72,33.72,0,0,1-1.09-3.55l-.56.2L228.77,283l-1.92-.92c-.49-.24-1-.49-1.48-.68a5.47,5.47,0,0,1-1.83.66,5.67,5.67,0,0,1-2.39-.39,14.69,14.69,0,0,0-2.42-.57,6.75,6.75,0,0,1-7.19-3.55,5.57,5.57,0,0,0-1.87-2l-.49-.36a12.74,12.74,0,0,0-2.1.95l-.9.5-1-.2A16.2,16.2,0,0,1,201,275c-.67-.38-4.9-3.54-5.43-5.64l-.07-.09-.13-.2-.22-.23-.14-.15c-.43-.45-.77-.82-1-1.16a10.83,10.83,0,0,0-1.22-.53l-1.84-.67V263.6L187,262.3c-2-.67-4.9-1.68-6.47-2.34a11.6,11.6,0,0,1-2.79-1.6l-.15.1-3,3-10.14,1.31-6.81-6.07,0-1.19a20.19,20.19,0,0,0-.92-6,25.15,25.15,0,0,0-2.06-2.66l-1.18-.15-.74,1.12.35.41-.82,1.86,1.77,1.67-1.81,2.36.6,2-.71,1.32.1.09c2.24,1.83,3.86,3.15,2.41,5.31,0,0-6.16,7.51-7.32,8.76-.08.11-.32.47-.47.73a10.29,10.29,0,0,1-3.5,7.54l-1.68,1.58-2.75-2-1.66,1.75-1-.75-.76,1.06-1.92-1.48-1.5,1.44-2.48-1.89v0L131,281l-4,4.67-2.31-.72-8.53,9.44,1.33-9.1c.42-2.89.7-5.52.74-6.43l-.1-.26-.37-.16a2.16,2.16,0,0,0-2-.17l-1.81.67-.12.12a23,23,0,0,1-5.05,4.32c-4.9,2.76-9.86.9-13.63-1a84.21,84.21,0,0,1-16.81-11.55,65.55,65.55,0,0,1-5.84-6,44.76,44.76,0,0,0-7.93-7.61,6.22,6.22,0,0,0-4.21-1,13,13,0,0,1-3.62-.32,5,5,0,0,1-3.89-3.68,7.08,7.08,0,0,1,.76-4.82,10.32,10.32,0,0,0,.63-1.74c.78-3.5-1.31-5.23-5.71-7.38-1.59-.78-6.44-3.14-4.91-7.93a13.25,13.25,0,0,1,2.9-4.53A11.84,11.84,0,0,0,49,222a14,14,0,0,0-.38-9.52,3.1,3.1,0,0,1-.12-.41c-1.88-.36-6.91-1.24-7.18-1.29L39,210.33V208a7.75,7.75,0,0,0-1.11-4,5.68,5.68,0,0,0-1.7-1.29c-.91-.53-3.68-2.13-2.51-5.16a3.86,3.86,0,0,0,.17-.73,4.12,4.12,0,0,1,1.76-3.05,3.29,3.29,0,0,0-.34-.93c-.48-.51-3.86-3-7.37-5.41l-1.74-1.2L28,181l-1.88-4.43,1.27-.45A4.26,4.26,0,0,1,25.25,175l-.95.15a16.36,16.36,0,0,1-2,.24,49.33,49.33,0,0,1-5.06-.17l-1.83-.15-.58-1.75c-1.36-4.09-4.44-10.7-6.72-11.86l-1.52-.78V159A12.8,12.8,0,0,1,7,156.49l.21-.62,3.62-7.61,1.07-.39,10.27-3.78c1-.36,4.18-1.26,5.82-1.72l5.07-4.72,8.5.45.64-1.25,1.3-.27a27,27,0,0,0,6.61-2.06c.29-.32,1.22-2,3.73-9.05.27-.76.5-1.41.67-1.87,1.26-3.35,5.27-4.53,8.17-5.13l.24,0a33,33,0,0,0,3.68-1.64c.54-.29,1.54-.77,2.81-1.38,2.64-1.26,6.2-3,8.06-4.1s5.09-4.6,6.66-6.43l2-2.36,10,10.38-3.38,5.38,10.93,8.48-8.13,12-3.92-1.17-1.45,1a77.92,77.92,0,0,0-5.33,6,1.41,1.41,0,0,0-.14.31l1,0,3.57,2.14,12.13-14.07,17.23-4.92,5.63,6.34.07.55,2.1-2.92-2.29-1.63V117.33l2.17-.67c3.5-1.08,5.14-1.61,5.89-1.86a5.56,5.56,0,0,0,1.55-2.17l.14-.27,1-1.69a11.31,11.31,0,0,0,.72-1.7,9.55,9.55,0,0,1,2.42-4.15,20.84,20.84,0,0,1,4-2.62l.07,0a5.3,5.3,0,0,0-.08-1.33l-.12-.59.13-.58c.05-.22.51-2.23.72-2.85.42-1.24,1.2-1.7,4.5-3.61.84-.49,2.77-1.6,3.23-2a4.26,4.26,0,0,1,3-1.4c.49-.64,1.44-2,2.42-3.43l1.54-2.31,7.84,5.17c5.26-1.69,10.77-3.51,11.56-3.86,1.24-.55,3.37-.67,6.35-.37l9-8.21,7.08-5.69,11.3,7.61,6.8-8-1.6-7.38.36-.82s1-2.35,1.72-3.68c.24-.44.48-1,.72-1.46a12,12,0,0,1,1.38-2.5,4.33,4.33,0,0,1,3.2-1.3l.75-.08-.88-1.1,4.77-1.71,1.11.52c1.2.59,1.76,1.78,2.3,3.51.17.56.35,1.06.5,1.47l.26,0c1.13-1.93,3.74-2,5.2-2h.23c.16,0,1.14-.31,1.84-.54l3.91-2,.44-.22L245,50.7c.38-.19,1.11-.48,2.56-1,.48-.18,1.59-.61,1.8-.7a33.79,33.79,0,0,1,5.39-1.48l2.51-.6,2,6.2-1.92,1.14a3.68,3.68,0,0,0-.85.72c-.29.41-.51.67-.69.88l1.06,1.88c1.2,2.1,3,5.28,3.85,6.9a52.08,52.08,0,0,1,3.82,8.8c.32,1.06.92,3.14,1.55,5.35l.06.2c.5,1.76,1.11,3.85,1.56,5.39l1.24-.26a9.56,9.56,0,0,0,.92-1.32l1.37-2.4,8.84,4.93,2.76-.81,1.72-1.77-.43-1v-6h4.52l1.58-1.26V71.76l2.12-.53c4.62-1.16,5.7-.8,6.54-.26a2.89,2.89,0,0,1,1.3,1.89c0,.1.07.27.13.47a9.84,9.84,0,0,1,.56,3.26,3.49,3.49,0,0,1,0,.38c.51.23,1.46.87,4.68,3.75l1.62,1.45-1,1.93a9.74,9.74,0,0,0-.76,1.9c0,.2.12.6.19.93.36,1.64.66,3,0,4.35-.07.14-.22.56-.34.87-.23.6-.42,1.1-.61,1.52l.53.41,4.92.17v7.35l.35.47c1.72,2.31,4.89,6.56,3.11,13-1.55,5.61-3.26,11.54-3.58,12.65a11.91,11.91,0,0,0,.13,2l.32-.51,3.44.58a3.69,3.69,0,0,1,1.59-.39,5.46,5.46,0,0,1,1.85.43,16.79,16.79,0,0,0,4.34,1l2.35-.27.66,2.26A28,28,0,0,1,326,143.33c-.06.84-.11,1.53-.16,2.08l5.53,2.27.13,1.64a3.16,3.16,0,0,0,.16.5,33,33,0,0,0,2.49,2.9l1.37,1.45-1.06,2,0,.06,1.63.73.35,1.27a14,14,0,0,0,4.6,6.72l3.42,2.43L341,169.59c-1,.63-1.62,1-2,1.29.17,1,.3,2.07.3,2.08l.17,1.32-.94,1c-4.42,4.51-4.89,4.64-5.6,4.83l-.24.07a9.54,9.54,0,0,1-1,.28l-.27.06c-1.82.41-2.57.63-2.85.72a27.54,27.54,0,0,0-2.42,2.23c-.41.67-1.31,2.11-1.31,2.11l-.44.71-.76.35c-2.55,1.16-5.44,2.49-6.22,2.87-.16.21-.44.61-.55.78l-.21.32c-1.62,2.37-2.25,3.38-2.49,3.78-.08.88-.21,3.28-.31,5.74l-.11,2.68h-2.68v.5l1.74,1.62c.79.25,2.51.75,4.21,1.22l3.22.91-4.34,8.88-4.13-1.27c-.35.23-.73.47-1.09.66l-1.47.75-.51,1.13-.4,7.14h-2.64a25.93,25.93,0,0,0-2.84.13,5.33,5.33,0,0,1-2.29.27l-3.11,2a9.79,9.79,0,0,1,2.55,1.59l1.63,1.42-.89,1.77a9.06,9.06,0,0,0,0,2.41c.08.71.19,1.35.3,2a12.28,12.28,0,0,1-.08,6.25c-.44,1.43-.85,2.9-1.1,3.81l1,1.53-4,8.29h-2.18a14.59,14.59,0,0,1-3.47,3.1c-.1.14-.25.43-.36.64a5.69,5.69,0,0,1-3.05,3.06,4,4,0,0,0-1.71,1.28,11.15,11.15,0,0,1-4.06,4,7.61,7.61,0,0,0-1.18.79c-.09.75-.22,1.88-.33,2.92l-.11,1-.75.71a6.8,6.8,0,0,0-1.28,1.61v4.65l-1-.19v1.55l.3,1.58-.22.68s-.84,2.6-1.31,3.61a28.14,28.14,0,0,1-1.6,2.72l-.11.16a11.13,11.13,0,0,0-1.71,2.87l.95,4.9-3.46-.08a3.36,3.36,0,0,0-.59,0l-1.33,3-.73,1.68h-4.9a3.23,3.23,0,0,1-1.88.7Zm-5.71-15.93h.07l.79,0,.4.69a6.52,6.52,0,0,0,2,2l.62.42v1.87a24.75,24.75,0,0,1-.49,3.26l-.06.18a14.4,14.4,0,0,0,.34,3,1.88,1.88,0,0,0,2.08,1.66l.39,0h.13a2,2,0,0,0,.59-.39l.39-.31h4c.12-.27,1.15-2.65,1.6-3.67l.21-.47.47-.23a5.45,5.45,0,0,1,2.24-.38l-.31-1.62c-.32-1.67,2.17-4.81,2.28-4.95l0-.05a24.53,24.53,0,0,0,1.36-2.32c.3-.64.92-2.48,1.18-3.28l-.21-1.26v-.86l-3.77-.87,1.2-1.72.82-1.14.52-.72,2.27.42v-1.41c0-1.41,2-3.32,2.15-3.5.14-1.35.31-2.85.4-3.5l.07-.49.35-.34a10.09,10.09,0,0,1,2.16-1.56,8.3,8.3,0,0,0,3-3,6.69,6.69,0,0,1,3.18-2.49c.69-.25,1-.84,1.51-1.72a3.81,3.81,0,0,1,1.44-1.76,12.93,12.93,0,0,0,3.15-3l.42-.51h1.72l2.53-5.22-.85-1.25.17-.62c.2-.74.72-2.67,1.3-4.54a9.69,9.69,0,0,0,0-4.92c-.12-.67-.24-1.36-.33-2.15a13,13,0,0,1-.06-2.81l-.17-.22.39-.77a6.72,6.72,0,0,0-1.78-1.1.92.92,0,0,0-.74-.06l-.62.26-.59-.31-1.19-.66-2-1.16,8.7-5.63.52.07a3.16,3.16,0,0,0,1.46-.05l.17-.06a21.89,21.89,0,0,1,3.63-.25l.28-5,1.14-2.53.45-.23,1.87-1a13.51,13.51,0,0,0,1.36-.86l.57-.4,3.13,1,1.79-3.65c-1.7-.48-3.86-1.1-4.56-1.33l-.29-.1-.23-.21-2.44-2.28-.45-.42v-4.56h2.8c.08-2.07.25-5.4.36-6.22l0-.24.11-.22c.18-.34.77-1.35,2.78-4.27l.19-.28a5.7,5.7,0,0,1,1.28-1.56l.12-.07c.53-.29,6.18-2.86,6.55-3,.08-.14.91-1.44,1.33-2.13a26.27,26.27,0,0,1,3.17-3l.15-.12.18-.08a20.73,20.73,0,0,1,3.53-.95l.25-.06c.29-.07.45-.12.63-.18l.45-.14c.23-.11,1.1-.8,4.3-4.06,0-.3-.22-1.71-.4-2.57L336,170l.37-.48c.25-.32.71-.79,3.08-2.26a16.78,16.78,0,0,1-5.63-8.21h0l-1.66-.74-.27-1.08-.46-1.2.72-1.35a28.69,28.69,0,0,1-3-3.57l-.06-.14h-.28l-.1-1.28-5.83-2.39.08-1c.05-.63.13-1.61.24-3.09a25.51,25.51,0,0,0-1.37-9.47c-1.41.16-3.58-.51-5.51-1.16a7.41,7.41,0,0,0-1-.3,1.35,1.35,0,0,0-.6.24l-.46.28-2.57-.43-.89,1.44-1.15-.57c-.31-.15-.68-.32-1.12-.5l-.24-.09-.19-.17c-1.16-1.05-1.09-4.53-1.08-4.92l.06-.35c.08-.27,2-6.72,3.63-12.79,1.41-5.11-1-8.37-2.63-10.53-.38-.51-.69-.93-.92-1.32a5.43,5.43,0,0,1-.4-.79l-.6-1.5,1-.25V97l-3.1-.11-.36-.28-1.86-1.44-1.07-.81.85-1.23a8.22,8.22,0,0,0,.89-1.94,12.23,12.23,0,0,1,.51-1.25,4.89,4.89,0,0,0-.23-2.37,13.73,13.73,0,0,1-.26-1.39,9,9,0,0,1,1.07-3.34,29.21,29.21,0,0,0-3.95-3.26,3,3,0,0,0-.59-.11l-.38-.05-1.86-.31.87-1.81a2.91,2.91,0,0,0,.36-.89,8.89,8.89,0,0,0-.45-2.22c-.1-.33-.16-.58-.2-.74l-.1-.09c-.06,0-.78-.22-4.25.65V75.8l-3.43,2.72h-2.67v2.6l.93,2.23L284.33,87l-4.62,1.36-7.43-4.15a8.43,8.43,0,0,1-2,2.39l-.32.13c-.68.19-2.11.47-3.09.63l-1.23.2-.36-1.19c-.44-1.46-1.27-4.33-1.93-6.64l-.06-.2c-.63-2.19-1.22-4.25-1.54-5.31a49.46,49.46,0,0,0-3.61-8.3c-.83-1.58-2.69-4.85-3.8-6.81l-1.11-2a2.4,2.4,0,0,1-.24-2.31,3.37,3.37,0,0,1,.55-.79c.15-.18.33-.39.59-.75a6.31,6.31,0,0,1,1.68-1.49l-.5-1.55a41.15,41.15,0,0,0-4.81,1.28c-.26.12-.89.37-2,.78-.94.36-2,.77-2.31.92l-1.34.68-.44.22-4,2-.18.07a22.65,22.65,0,0,1-2.56.7l-.35,0c-1,0-2.62.07-2.92.68v.68l-.87.36a3.5,3.5,0,0,1-.56.17c-.49.11-1.51.28-1.93.35l-1.1.17-.43-1c-.2-.48-.6-1.48-1-2.76a11.23,11.23,0,0,0-.42-1.17l-1,.81a4.58,4.58,0,0,1-.53.38,7.25,7.25,0,0,1-3.15.83c-.71.07-1.15.12-1.29.3a12.53,12.53,0,0,0-1,1.89c-.25.54-.52,1.11-.78,1.59-.64,1.19-1.57,3.37-1.61,3.46l1.7,7.87-9.35,11-11.66-7.86L194.08,79l-9.9,9-.64-.08c-3.12-.36-4.89-.2-5.52.08-1.35.6-11.36,3.81-12.5,4.17l-.65.21L158.26,88a50.35,50.35,0,0,1-3,4.16l-.33.34-.46.08-.47.05a1.73,1.73,0,0,0-1.33.48l-.12.14a27.52,27.52,0,0,1-3.81,2.39,23.61,23.61,0,0,0-3.23,2c-.13.39-.47,1.8-.65,2.6,0,.18.56,2.93-.6,3.92l-.24.16-.56.31A18.18,18.18,0,0,0,140,107a7.24,7.24,0,0,0-1.63,3,13.09,13.09,0,0,1-1,2.17l-1,1.65c-.15.34-1.4,3.1-3.25,3.72-.77.25-2.42.79-5.95,1.88l-.18.05v9.34l3.42,2.44-8,11.13-.82-6.89-3.86-4.34L103,135.3,89.92,150.55,85,147.62l-3.53.17.13-1.61a6.88,6.88,0,0,1,.94-3.32,73.39,73.39,0,0,1,5.89-6.57l.11-.08,2-1.36.56-.39.71.15,2.58.77,5.47-8L89,118.92l3.57-5.67-6.32-6.53c-.83,1-4.67,5.37-7.32,7-2,1.21-5.62,3-8.28,4.22-1.28.61-2.25,1.08-2.74,1.34a32.11,32.11,0,0,1-4.32,1.89l-.31.07c-1.35.28-5.29,1.09-6.14,3.36-.17.46-.4,1.09-.66,1.82-2.71,7.63-3.76,9.59-4.59,10.29-1.58,1.32-7.37,2.55-7.83,2.65L43.24,141l-9.13-.49-4.69,4.37-.33.09c-2.34.65-5.14,1.45-5.94,1.75L12.9,150.53l-3.14,6.64a13.44,13.44,0,0,0-.31,1.78c4.26,2.21,7.84,12.73,8.09,13.46a46,46,0,0,0,4.66.16,14,14,0,0,0,1.62-.21c1.58-.27,2.08-.29,2.54-.12l.41.15.25.35a1.73,1.73,0,0,0,1.83.58l.8-.13,3.23,4-3,1.06L31,180.86l-1.45,4.28c.52.36,6.74,4.64,7.83,5.82a6.51,6.51,0,0,1,1.21,3.82l0,1.19-1.18.18c-.37.05-.56.24-.72,1.17a6.18,6.18,0,0,1-.32,1.3c-.18.48-.19.83,1.28,1.68a8.12,8.12,0,0,1,2.52,2A10.48,10.48,0,0,1,41.85,208c.5.09,6.51,1.14,7.74,1.4l.77.19,1.7.46-.76,1.46a16.79,16.79,0,0,1,.41,11.38,14.37,14.37,0,0,1-3.06,4.77,11,11,0,0,0-2.36,3.54c-.47,1.47-.06,2.8,3.46,4.52,3.23,1.58,8.64,4.22,7.24,10.54a12.76,12.76,0,0,1-.79,2.23c-.54,1.27-.86,2.09-.62,3a2.18,2.18,0,0,0,1.85,1.66,10.55,10.55,0,0,0,2.88.23,9,9,0,0,1,5.84,1.5,46.82,46.82,0,0,1,8.47,8.08,62.24,62.24,0,0,0,5.57,5.78,81.41,81.41,0,0,0,16.24,11.17c3.51,1.79,7.26,3.15,11,1.07a20.61,20.61,0,0,0,4.4-3.82l.57-.58,2.41-.9a4.92,4.92,0,0,1,4.08.22,4.63,4.63,0,0,0,.55.21l.41.08.31.29a2.91,2.91,0,0,1,.63,1.13c.06.15.11.29.17.41l.12.25v.28a66.33,66.33,0,0,1-.75,7.07l3.49-3.86,2.27.7,1-1.14-1.35-1.18,3.32-4.38,2.81,2.13,1.51-1.46,1.53,1.18.76-1.05,1.27,1,1.62-1.7,2.86,2.08a7.18,7.18,0,0,0,2.58-5.75v-.32l.13-.32a10.65,10.65,0,0,1,1-1.62l.15-.15c.47-.48,6.09-7.27,6.95-8.33a21.55,21.55,0,0,0-1.81-1.57l-1-.82-.92-.74,1.28-2.36-.68-2.3,1.12-1.47-1.37-1.29.92-2.08-.57-.68,1-1.51-1.28-1.83,3-1,.3,0c1,.1,2.88.31,3.44.43l.32.07.26.21A20.8,20.8,0,0,1,159,248c1.16,1.69,1.39,7,1.41,7.45l4.94,4.4,7.9-1,2.37-2.37a5.36,5.36,0,0,1,1.68-1L178,255l1.43,1.06a9,9,0,0,0,2.17,1.24c1.49.63,4.3,1.61,6.26,2.27l4.84,1.63,1,.33v2.81a9.63,9.63,0,0,1,2.08,1l.15.12.12.16a14,14,0,0,0,1,1.11l.14.15.4.44.14.2.1.16a3,3,0,0,1,.47,1c.28.82,3.17,3.34,4.08,3.87a13.22,13.22,0,0,0,3.32,1.07,11.3,11.3,0,0,1,3.79-1.42l.58,0,.43.39a9.26,9.26,0,0,0,.82.64,8.33,8.33,0,0,1,2.68,2.86,4,4,0,0,0,4.44,2.14,10.68,10.68,0,0,1,3.49.67,6.4,6.4,0,0,0,1.26.31,5.91,5.91,0,0,0,1.25-.56l.7-.38.68.21c.51.2,1.42.61,2.22,1L230.2,277l.31-.13a20.62,20.62,0,0,1,2.66-.85l1.5-.38.25,1.53a27.84,27.84,0,0,0,1.25,4.55l1.62.38,1.36.58c.08-.12.29-.41.48-.73l.87-1.39,1.25,1.06a20.79,20.79,0,0,0,3.08,2.37h.1c.36,0,1.74,0,2.32,0h.62l.41.47,1.82,2c.72.8,1.77.74,3.18.56A10.42,10.42,0,0,1,254.48,286.91Zm1.18-231.36Z"/></svg>