<svg id="Layer_1" data-name="Layer 1" xmlns="http://www.w3.org/2000/svg" viewBox="0 0 350 350"><defs><style>.cls-1{fill:#999;}.cls-2{fill:#f90;}</style></defs><title>M</title><path class="cls-1" d="M122.29,47.3s.74,11.64,2.31,14.6,4.34,8.41,4.62,8.87S129,76,127.46,76.41a85.12,85.12,0,0,0-11.92,4.53c-3,1.57-9.61,1.29-13,2.68s-6.77.79-7.39,5.08-.49,8.39-1.39,10a26.42,26.42,0,0,1-8.11,7.69c-3.6,2-7.55,4.57-9.43,6.79s-4,5.48-4.16,7.07a11,11,0,0,0,2.7,9.15c3.33,4,5.06,5.75,6,9.5s2.29,10.88,2.43,12.61.62,3.67,4.09,4.85,11.37,3.81,14,6.45,7.76,8.32,10.33,9.91c1.18,1.59,1.66,7.28,3.53,8s3,4.09,3.81,7.21,5.68,6.45,8.94,7.9,5.13,6.72,10.67,3.74,8.32-5,12.54-4.16,4.5,5.2,6.93,7.14,5.27,4.3,8.11,5,5.34,6.51,8.25,7.62,6.1,2.56,6.1,4.78.62,5.75,0,7.14-2.22,5.54-3.53,6.51-.69,3.74-2.7,5.48-8.66,5.34-10.67,7.07-4,4.23-3.53,7.28-.28,3.88-2.22,4-5.61,1.11-7,.9-4.09.62-1.73,2.43a66,66,0,0,0,7.49,4.37c1.32.76,9.43,5.34,10.33,7.28s2.29,5.27,5.48,5.89,6.24,5.41,6.79,6.17,2.91,6.72,2.7,8.59-.76,6.17-2.22,8.18-1.18,6.17-.69,7.42,2.08,5.2-.14,6.58-4.64,2.29-5.48,3-1.59,4.44-2.5,6.58-1.94,3.47-3.12,3.88-.69,2.15.55,3.67,3.53,6.1,5.48,6.93,3.74,5,10.81,3.12a95.34,95.34,0,0,1,14.62-2.56c2.15-.28,6.86-1.32,7.62-1.94s.76-7.14.69-8.46,2-12.13,2.56-15,1.18-10.67,1.32-12.27,2.36-6,6.1-7.28,9.08-2.15,10.67-3.33,4.92-4.5,6.72-6a13.53,13.53,0,0,1,7.62-2.5c2.56-.07,8.52.69,9.84,1.39a98.06,98.06,0,0,0,10.26,4.3c2.56.76,9.43,4.64,12.06,4,1.39-4.5,3.26-10,3.47-18s-6.72-22.52-8.59-25.3-9.29-17.33-12.34-27-4.23-27.58-4.3-33.82-.69-20.1-.9-22.18-1.18-3.6.28-8.39,3.74-15,2.77-21.21-5-22.18-6.79-23.7,6.79-4.16,7.21-5.54,7.14-13.1,10.4-17.47,8.73-10.74,8.59-12-1.94-3.47-2.7-4.09-4.64-4.57-4.23-9.29,3.47-9.56-4.44-12.27L259.86,49c-2.15-2.43-4.85-.55-6.45-2.22s-1-4.16-1.66-7.28S248,29,244,27.5s-10.4.55-14.35-1.59-8-7-20-5.13c-3.26,1.32-5.06,2-9.22-1.25s-2.5-3.74-10.19-4.78c-1.87-2-4.64-6.1-6.1-7.07s-5.2-.9-6.79.49-1.66,4.37-5.27,5-10.47.76-14.9,1.8-9.91,3-13.17,2.84-5.68-1-7.76-.21-4.78,4.23-5.06,6.31.07,6.72-.07,8.39-2.91,7-4.71,8.52S121.87,46,122.29,47.3Z"/><path class="cls-2" d="M181.2,344.39a9.8,9.8,0,0,1-6.93-2.86,5.87,5.87,0,0,0-1.12-.85c-1.75-.75-3.32-3.22-4.71-5.4-.5-.79-1-1.53-1.3-1.93-.59-.73-1.92-2.6-1.45-4.3a2.34,2.34,0,0,1,1.52-1.61c.43-.15,1.3-.76,2.28-3.09.32-.77.64-1.79.95-2.79.71-2.28,1.14-3.6,1.9-4.29a12.63,12.63,0,0,1,2.71-1.6c.93-.46,2-1,3-1.61.44-.27,1-1.26-.4-4.79-.6-1.55-1-6.31.83-8.84.5-.68,1.41-2.57,2-7.5.15-1.34-1.89-6.76-2.45-7.62l-.21-.3c-2.77-4-4.63-5.09-5.7-5.3-3.75-.73-5.38-4.28-6.36-6.4l-.13-.28c-.12-.24-1.16-1.71-9.46-6.48l-.29-.17c-.33-.19-.83-.45-1.42-.76a47,47,0,0,1-6.21-3.7c-1.77-1.35-1.59-2.62-1.32-3.25.64-1.51,2.8-1.9,4.12-1.71a18.56,18.56,0,0,0,3.6-.45c1.14-.21,2.23-.4,3.09-.46s.85-.19.86-.21.29-.46.05-2.2c-.41-3,1-5.93,4-8.54a53,53,0,0,1,5.52-3.67,53.62,53.62,0,0,0,5.15-3.4,4.59,4.59,0,0,0,1.23-2.58,4.78,4.78,0,0,1,1.55-3c.79-.58,2.17-3.83,2.69-5.06.15-.36.28-.67.39-.9a13.82,13.82,0,0,0,0-4c-.07-.92-.14-1.8-.14-2.57,0-1.48-3.9-3-5.19-3.46-1.77-.67-3.23-2.49-4.63-4.25-1.15-1.44-2.46-3.07-3.45-3.32-3-.73-5.83-3-8.31-5l-.35-.28a10.83,10.83,0,0,1-2.47-3.27c-1-1.71-1.83-3.19-3.85-3.59-3.16-.62-5.42.62-9.52,2.88l-2.08,1.14c-4.75,2.55-7.54,0-9.57-1.9a9.8,9.8,0,0,0-2.35-1.8c-2.94-1.31-8.76-4.86-9.74-8.86-1.23-5-2.49-6-3-6.23-1.77-.72-2.44-3.13-3.15-5.68a17.22,17.22,0,0,0-.88-2.65c-2.12-1.43-5.39-4.84-8-7.61-.85-.88-1.62-1.69-2.25-2.32-2.33-2.33-9.91-4.9-13.15-6l-.3-.1c-4.15-1.41-4.88-4-5-6.08-.13-1.59-1.49-8.66-2.39-12.4-.72-3-2-4.55-4.6-7.64l-1.07-1.28a12.47,12.47,0,0,1-3-10.24c.28-2.16,2.83-5.85,4.48-7.8,2.16-2.56,6.53-5.28,9.82-7.12A25,25,0,0,0,92.5,98c.41-.72.57-2.77.73-4.76.11-1.44.25-3.07.49-4.73.6-4.11,3.38-4.82,5.83-5.45A18.85,18.85,0,0,0,102,82.3,28.13,28.13,0,0,1,108.62,81c2.42-.29,4.93-.6,6.26-1.3A86.23,86.23,0,0,1,127,75.06a8.31,8.31,0,0,0,.86-3.78c-.23-.42-.7-1.34-1.64-3.16s-2.08-4-2.89-5.56c-1.62-3.05-2.35-13.36-2.46-15.05-.54-2.68,3.8-7.07,4.65-7.79,1.53-1.3,4.11-6.31,4.22-7.56.05-.63,0-1.86,0-3.16a40.73,40.73,0,0,1,.08-5.3c.35-2.64,3.48-6.54,6-7.45a11.3,11.3,0,0,1,5.38-.16c.93.12,1.89.24,2.93.28,2.06.09,5.4-.83,8.62-1.71,1.39-.38,2.83-.78,4.17-1.09a72.24,72.24,0,0,1,9.45-1.22c2.12-.18,4.12-.36,5.54-.6,1.74-.3,2.3-1.28,3-2.53a7.66,7.66,0,0,1,1.57-2.14c2.1-1.83,6.58-1.88,8.51-.59a23.57,23.57,0,0,1,3.94,4.36c.71.91,1.45,1.84,2.08,2.56,5.5.77,6.33,1.35,8.21,3.12a27.78,27.78,0,0,0,2.15,1.88c3.54,2.78,4.71,2.31,7.81,1l.31-.09c10.36-1.62,15.22,1.61,18.77,4,.74.49,1.43,1,2.09,1.31,1.8,1,4.48.91,7.06.84s5-.13,7.11.67c4.56,1.73,7.94,9.47,8.65,13a25.47,25.47,0,0,1,.38,3.11c.13,1.74.24,2.76.92,3.46.29.3.72.35,1.71.38A5.91,5.91,0,0,1,260.92,48l2.95,3.33c7.12,2.59,6.2,7.22,5.46,11A25.44,25.44,0,0,0,268.9,65c-.34,3.85,2.89,7.4,3.71,8.07s3,3.2,3.21,5c.14,1.29-1,3-5.71,8.93-1.09,1.39-2.23,2.83-3.15,4.07a152.53,152.53,0,0,0-10.18,17c-.33,1.1-1.56,1.76-4.08,3a27.63,27.63,0,0,0-3,1.68c2.51,3.87,6.07,19.68,6.74,23.91,1,6.56-1.39,17.16-2.82,21.84a11.18,11.18,0,0,0-.46,6.36c.09.46.18.94.23,1.47.22,2.21.84,16.22.91,22.3.06,5.55,1.18,23.77,4.23,33.41s10.4,24,12.16,26.6,9.06,17.61,8.84,26.13a60.31,60.31,0,0,1-3.26,17.53l-.51,1.64-.79.19c-2.11.5-5.28-.8-9.53-2.69a34.9,34.9,0,0,0-3.26-1.35,97.52,97.52,0,0,1-10.51-4.4c-.92-.48-6.5-1.29-9.14-1.22a12.12,12.12,0,0,0-6.75,2.16c-.72.61-1.71,1.53-2.75,2.51-1.5,1.4-3,2.84-4,3.58-1.21.9-3.67,1.53-6.51,2.26-1.57.4-3.19.82-4.56,1.28-3.11,1-5,4.91-5.14,6.06l0,.58c-.21,2.49-.77,9.11-1.29,11.83l-.09.47c-2,10.74-2.46,13.67-2.45,14.24,0,.33.42,8.29-1.21,9.62-1.26,1-7,2.08-8.34,2.25l-1.23.14a87.84,87.84,0,0,0-13.21,2.38A14.42,14.42,0,0,1,181.2,344.39ZM168.46,330a4.33,4.33,0,0,0,.88,1.56,25.26,25.26,0,0,1,1.5,2.21c.93,1.46,2.49,3.91,3.43,4.32a7.43,7.43,0,0,1,1.85,1.31c1.61,1.39,3.42,3,8,1.74a90.45,90.45,0,0,1,13.62-2.46l1.19-.14a38.84,38.84,0,0,0,6.74-1.56,41.54,41.54,0,0,0,.34-7.35c-.05-1,.67-5.33,2.5-14.91l.09-.47c.49-2.57,1.06-9.32,1.25-11.53l0-.59c.19-2.21,2.79-7.07,7.06-8.5,1.47-.49,3.13-.92,4.75-1.33,2.23-.57,4.76-1.22,5.53-1.79s2.35-2,3.79-3.37c1.07-1,2.08-1.94,2.86-2.6,2.19-1.86,5.85-2.76,8.5-2.83s8.9.68,10.54,1.55a97.52,97.52,0,0,0,10,4.19,35.21,35.21,0,0,1,3.61,1.47c2,.91,5.26,2.34,7,2.54a57.67,57.67,0,0,0,3.11-16.69c.19-7.4-6.5-21.72-8.35-24.47s-9.39-17.46-12.51-27.33-4.29-27.59-4.36-34.23c-.07-6.39-.7-20.1-.89-22.05,0-.42-.12-.81-.2-1.21a13.88,13.88,0,0,1,.53-7.73c1.58-5.19,3.61-15,2.73-20.57-1.1-7-4.94-21.37-6.33-22.87a2,2,0,0,1-.71-1.75c.18-1.52,2-2.49,4.86-3.95a19.53,19.53,0,0,0,2.71-1.52,152.34,152.34,0,0,1,10.54-17.7c.95-1.27,2.09-2.72,3.2-4.13,1.87-2.38,4.67-5.93,5.09-7a9.35,9.35,0,0,0-2.16-3c-1.37-1.12-5.19-5.46-4.74-10.51a27.88,27.88,0,0,1,.47-3c.75-3.79,1.2-6.08-4-7.85l-.36-.12-3.43-3.88c-.73-.83-1.48-.89-2.74-.93a4.82,4.82,0,0,1-3.67-1.25c-1.41-1.47-1.55-3.28-1.7-5.21a22.64,22.64,0,0,0-.33-2.77c-.61-3.06-3.59-9.7-6.88-10.94-1.59-.6-3.75-.55-6-.49-3,.08-6,.16-8.49-1.19-.77-.42-1.52-.92-2.31-1.44-3.31-2.21-7.44-4.95-16.6-3.56-3.61,1.45-5.93,2.05-10.47-1.51a30.48,30.48,0,0,1-2.35-2c-1.47-1.39-1.82-1.72-7.15-2.44l-.5-.07-.35-.37c-.78-.83-1.69-2-2.56-3.1a25.67,25.67,0,0,0-3.28-3.75c-.89-.6-3.95-.6-5.08.38a5.5,5.5,0,0,0-1,1.4,6.66,6.66,0,0,1-5,3.92c-1.53.27-3.59.44-5.78.63a70.53,70.53,0,0,0-9,1.15c-1.28.3-2.7.69-4.06,1.07-3.43.94-7,1.92-9.49,1.81-1.17,0-2.23-.18-3.17-.3a9.15,9.15,0,0,0-4,0,9,9,0,0,0-4.14,5.16,40.4,40.4,0,0,0-.06,4.86c0,1.44.06,2.68,0,3.46-.17,2.08-3.11,7.71-5.21,9.49-1.71,1.45-3.63,4.21-3.7,5.07l0,.25c.28,4.38,1.11,12.07,2.15,14,.82,1.54,2,3.75,2.91,5.59.76,1.48,1.55,3,1.68,3.22.63,1.05,0,4.29-.55,5.64a3.2,3.2,0,0,1-2.1,2.11,84.6,84.6,0,0,0-11.58,4.4c-1.79,1-4.44,1.27-7.24,1.61A26.56,26.56,0,0,0,103,84.93a21.16,21.16,0,0,1-2.79.86c-2.53.65-3.42,1-3.73,3.11-.23,1.57-.35,3.15-.47,4.55-.21,2.6-.37,4.66-1.09,5.93a27.59,27.59,0,0,1-8.65,8.23c-4.35,2.43-7.56,4.73-9,6.47-1.9,2.25-3.69,5.21-3.84,6.34a9.57,9.57,0,0,0,2.39,8.06l1.06,1.27c2.69,3.21,4.31,5.15,5.19,8.8s2.31,10.94,2.46,12.83c.12,1.44.43,2.7,3.13,3.62l.3.1c5.95,2,11.79,4.23,14.25,6.68.64.64,1.43,1.46,2.29,2.36,2.53,2.63,6,6.23,7.78,7.35l.23.14.16.22a12.36,12.36,0,0,1,1.44,3.75c.32,1.14,1,3.5,1.51,3.83,2,.81,3.47,3.41,4.64,8.17.56,2.29,4.66,5.39,8.14,6.94a11.94,11.94,0,0,1,3.11,2.3c1.94,1.79,3.34,3.08,6.31,1.49l2.06-1.12c4.37-2.41,7.26-4,11.43-3.18,3.29.65,4.66,3,5.76,5a8.67,8.67,0,0,0,1.78,2.46l.35.28c2.25,1.81,4.81,3.85,7.21,4.44,1.93.47,3.49,2.42,5,4.3,1.11,1.39,2.38,3,3.42,3.37,2.45.93,7,2.67,7,6.11,0,.67.06,1.49.13,2.36.16,2.11.31,4.1-.25,5.36l-.36.84c-1.16,2.73-2.32,5.27-3.62,6.23a3.76,3.76,0,0,0-.48,1.36,7.18,7.18,0,0,1-2.13,4.05,52.87,52.87,0,0,1-5.52,3.67,53.74,53.74,0,0,0-5.16,3.4c-2.3,2-3.33,4-3.06,6,.21,1.51.29,3.21-.66,4.37a3.87,3.87,0,0,1-2.86,1.25c-.71.05-1.76.24-2.79.42a17,17,0,0,1-4.53.46,2,2,0,0,0-.53,0,46.47,46.47,0,0,0,5.67,3.34c.64.33,1.17.61,1.53.82l.28.16c8.49,4.88,10.14,6.7,10.62,7.74l.13.29c.85,1.84,2,4.35,4.33,4.81,3.47.68,6.49,5,7.48,6.46l.18.26c.61.83,3.23,7.19,3,9.58-.48,4.32-1.29,7.21-2.48,8.85-1.06,1.47-.91,5.06-.52,6.07.63,1.62,2.46,6.32-.71,8.3-1.1.69-2.22,1.25-3.21,1.74a13.09,13.09,0,0,0-2.06,1.15,17.59,17.59,0,0,0-1.1,3c-.33,1.06-.67,2.15-1,3C171.1,327.86,169.9,329.35,168.46,330ZM273,78.13Zm-145.15-7ZM123.66,47Z"/></svg>