<svg id="Layer_1" data-name="Layer 1" xmlns="http://www.w3.org/2000/svg" viewBox="0 0 350 350"><defs><style>.cls-1{fill:#999;}.cls-2{fill:#f90;}</style></defs><title>M</title><path class="cls-1" d="M334.93,193.57a2.07,2.07,0,0,0-1.63-.53,9,9,0,0,0-2.12,1.24c-1-1-2.14-1.72-.71-3.34A1.83,1.83,0,0,0,329,187.8c-2.42.15-3.41-1.72-4.69-2.93-2.06-2-3.31-4.86-7.07-3.95-1.29.31-2.81-.21-4.19-.51-.52-.11-1.3-.61-1.34-1a22.75,22.75,0,0,1-.29-5.77c.53-3.78-1.69-6.52-3.18-9.54a2,2,0,0,0-1.56-.9c-2.52,0-3.17-1.94-3-3.54.2-2.65-.61-4.88-1.44-7.26a25.52,25.52,0,0,1-1-5.55c-.39-3.46-.71-6.93-1-10.41a2.32,2.32,0,0,1,.63-1.63c2.09-2,2.05-3-.1-5a9,9,0,0,1-2.5-3.08c-2.11-5.56-5.84-8.22-12-8.39a4.7,4.7,0,0,1-2.05-1c-1.12-.73-2.12-1.92-3.32-2.18a5.19,5.19,0,0,0-4,.63c-1.74,1.52-3.09.83-4.66.09a47.77,47.77,0,0,1-5.61-2.68c-2.25-1.47-4.22-1.09-6.31.16-1,.6-2.1,1.06-3.73,1.86.69-4.28,1.15-7.85-.93-11.28-3.3,3.48-3.46,3.53-6.51,2.37a2.77,2.77,0,0,1,.16-.75c2.49-4.7,1.84-6.87-2.8-9.43-.55-.3-1.1-.63-1.62-1C237.1,90,229.34,84.85,221.68,79.58a15.74,15.74,0,0,1-3.82-4.1c-1.62-2.37-2.92-5-4.45-7.39-.76-1.21-1.79-2.24-2.57-3.45a32.35,32.35,0,0,1-5.1-19.07c.17-6.82-.3-14-4.62-20-2.1-2.91-4.35-5.73-6.56-8.56-4.32-5.54-8.33-6.88-14.79-3.9-2.87,1.32-5,4.15-7.56,6.25-.87.73-2,2-2.77,1.86-5-1-10.19-1.79-14.76-3.87-2.14-1-4.16-2.29-6.52-2.53-3.47-.35-6.7.32-8.68,3.64-1.84,3.09-2.82,6.12-.35,9.54,1.16,1.6,1.57,3.77,2.19,5.71,1,3.05,1.86,6.14,2.8,9.2.51,1.66,1.64,3.35,1.51,4.95-.28,3.38-1.39,6.68-1.81,10.06a18.32,18.32,0,0,1-3.07,8.52,4.22,4.22,0,0,0-.34,3.43,76.81,76.81,0,0,0,4.33,9,12.14,12.14,0,0,0,3.55,4.25c1.89,1.24,2.84,2.57,2.69,4.8-.09,1.35.09,2.71,0,4.06-.41,5.8-2.4,11.13-6.93,14.74a30,30,0,0,1-16.72,6.93c-1.07.07-2.13.51-3.19.53-7.24.11-14.47,1.36-21.61-1.63-3.68-1.54-5.85-3.12-5.22-7.36.12-.79-.52-2.29-1.09-2.45a5.67,5.67,0,0,0-3.24.52c-.88.34-1.52,1.32-2.4,1.58-4.75,1.4-9.51,2.82-14.34,3.92-2.28.52-4.92,2.75-6.86-.87a36,36,0,0,1-3.47,3c-3.47,2.29-6,6.52-11.1,5.67-.52-.09-1.14.8-1.78,1.07-1.43.61-2.95,1-4.33,1.7-3,1.47-6.68,2.41-8.75,4.74-3.3,3.71-5.47,8.41-8.21,12.64a22.07,22.07,0,0,0-3.95,13.2,61.46,61.46,0,0,1-2.31,18.67A108.19,108.19,0,0,0,23,181.2c-.47,3.36-.39,6.79-.57,10.19-.08,1.6-.21,3.2-.35,5.38l-6.67-3.35c-.24,3.3-.93,6.42-.57,9.41.45,3.69,1.79,7.27,2.74,10.9.31,1.18.64,2.36,1,3.58-2,1-2.43,1.75-1.42,3.23a51.57,51.57,0,0,0,5.1,6.64c2.6,2.74,3.07,9.63.45,12.37a5.59,5.59,0,0,0-1.71,5.38,12.13,12.13,0,0,1,.51,3.74c-.35,3.13,1,5,3.87,5.87l3,1c-1.06,2-2.17,4.08-3.18,6.18S24.8,265,27,265.42c.68.14,1.38.21,2.15.32a7.62,7.62,0,0,0-.34,1.43c-.08,3.86-1.23,7.8,1.66,11.32,1,1.18,1,3.1,1.76,4.47,2,3.45,3.95,7.1,6.64,10,1.08,1.16,4.07.56,6.2.69a17.45,17.45,0,0,0,3.52-.05c5.12-.74,10.4-1.06,13.6-4.58l9.11,8.15c-4.91,2.82-5.33,8.29-7.17,12.89-1.62,4-2.43,8.39-3.61,12.6-.53,1.88-.18,3.07,1.79,4.13a8.59,8.59,0,0,1,3.94,4.1c1.27,3.58,4.26,5,7.23,7.5.19-2.93.31-5.16.47-7.39.14-2,1.12-3,3.21-2.57,1.81.34,3.62.63,5.06.88.33-3.27.59-6.22,1-9.16a2.84,2.84,0,0,1,.81-1.87c2-1.37,7.41.76,8.1,3.12.91,3.11,1.82,6.21,2.7,9.33.5,1.76,1.38,2.93,3.44,2.58l2.69-.45c.57-.84,1.09-1.71,1.57-2.59.77-1.41,1.46-2.86,2.12-4.33.84-1.88,1.65-3.78,2.53-5.64-.08-.46-.16-.93-.28-1.4a5.8,5.8,0,0,1,0-1.89,7,7,0,0,1,.44-1.3,5.74,5.74,0,0,1,1.56,1.27,25,25,0,0,1,4.19-5.47,4,4,0,0,1,5.08-.3c.37,0,.74,0,1.1,0s1,.75,1,1.13a8.48,8.48,0,0,0,.1,1.83,22,22,0,0,0,2.43,2.75,13.18,13.18,0,0,0,5.51,5.24,12.88,12.88,0,0,0,4.45,1.27,34.51,34.51,0,0,0,3.94,1.38,25.84,25.84,0,0,0,4.32-1c4.13-1.24,8.23-1.23,12.42-1.15a8,8,0,0,0,1.08-.07,8.18,8.18,0,0,0,1.57-2.95c1-1.6,1.28-3.94,1.61-6.77,0-.35.07-.7.11-1a10.72,10.72,0,0,1,.75-1.89,6.71,6.71,0,0,1,.64-.93l.28-3.42,4.82-2.39a11.1,11.1,0,0,1,1.81-5.78c.54-2.42,1.55-4.54,4.28-5.58.2.55.37,1.18.58,1.8a3.42,3.42,0,0,1,2.38.79l1.11-.08a6.73,6.73,0,0,1,6.75-3.26c2.13-.87,4.11-1.74,6.61-1l.36.14,2-1.89.87.71c-.3.82-.6,1.64-.89,2.47a12.65,12.65,0,0,0,1.42,1.1c3,1.95,3.38,1.67,5.42-.08a14.58,14.58,0,0,0,2.05-2.41v-2a13.39,13.39,0,0,1,.6,1.2,8.75,8.75,0,0,1,1.13-1.16c0-.09,0-.17,0-.26l.56-.15c1.61-1.17,3.43-2,5-3.1,2.88-2,4.23-4.77,5.22-7.77-.36-1.56-.65-3.14,1.26-4.21.3-1,.62-2,1-3.06.84-2.24,3.38-3.71,5.65-2.3s4,1.93,5.12,1.22a3.4,3.4,0,0,1,0-.62,11.49,11.49,0,0,1,.47-2.89,3.46,3.46,0,0,1-.13-.93,16.74,16.74,0,0,1,1.63-7.09,3.85,3.85,0,0,1,7.17,1.94s0,0,0,.07l0,.09c.61,0,1.23,0,1.86,0a4.51,4.51,0,0,0,2.77,2.59c3.51,1.22,7.59-.69,10.7,2.5,2.5,2.56,2.54,7.55,4.6,10.65a2.3,2.3,0,0,0,3.39.6l.77,1.62c.73,1.53,3.29,8.9,2.69,12.62a5.77,5.77,0,0,0-1.73-.93,2.25,2.25,0,0,0-2.25.59c-2.71,3.33-1.55,7.31,1.59,9.56.1.13.2.26.29.39,2,3,4.92,4.26,8.32,5a19.4,19.4,0,0,1,4.69,2.07c1,.52,1.81,1.43,2.84,1.83,6.92,2.73,8.82,6.15,8.88,12.91a23.16,23.16,0,0,1-.57,4.09l0,.52a19,19,0,0,0,.28,2.61,25.3,25.3,0,0,1,5.18-4.34c6.48-3.63,13-7.83,21.06-4.67a3.7,3.7,0,0,0,3-.39c1.8-1.31,3.28-3.17,5.47-1.52.39-2,.25-4.1,1.15-5.45,2.15-3.2.78-7.9-3-8.85-2.73-.7-3.9-2.33-3.4-5.13.22-1.2,1.12-2.27,1.33-3.47a38.28,38.28,0,0,0,.71-7.28c0-.48-1.93-.84-2.86-1.43-.48-.3-.72-1-1.06-1.51a13.36,13.36,0,0,1-1.69-2.73,9,9,0,0,1-.78-4.24c.71-3.64.52-4.24-3-5.25-1.25-.36-3.07-4.75-2.11-5.44,1.45-1,3.22-2.23,4.85-2.23,2.37,0,2.27-1,2.12-2.64a3.13,3.13,0,0,1,.21-2c1.76-2.18,1-5-1.67-5.7a3.46,3.46,0,0,1-1.21-.54c-1.89-1.42-3.75-2.89-5.41-4.17.12-1.11.26-1.82.25-2.52s-.14-1.53-.21-2.24c4.55-1.5,5-3.54,1.84-6.81a2.26,2.26,0,0,1-.71-1.63c.64-2.95-1.83-6,.36-8.9.17-.22,0-.7,0-1.06a5.2,5.2,0,0,1,6-5.46,2.86,2.86,0,0,0,2.21-.34,60.14,60.14,0,0,0,5.68-6.69c1.38-2,2.73-3.7,5.24-4.24.59-.13,1.07-.82,1.59-1.27a21.51,21.51,0,0,1,3.69-3.12,40.7,40.7,0,0,1,5.82-2c-.22-2.84-1.32-5.93,1.73-8.14C335.41,194.87,335.24,193.86,334.93,193.57ZM26.21,171.85c.69-3.06,1.43-6.12,2.07-9.19C27.65,165.73,26.91,168.79,26.21,171.85ZM299.89,143a11.13,11.13,0,0,0-.4-4.31,9.26,9.26,0,0,1-.58-2.81,9.27,9.27,0,0,0,.58,2.81A11.12,11.12,0,0,1,299.89,143Z"/><path class="cls-2" d="M74.68,341.31l-2.16-1.84c-.71-.61-1.44-1.16-2.15-1.69-2.27-1.71-4.41-3.33-5.5-6.41A7.2,7.2,0,0,0,61.6,328c-2.44-1.3-3.23-3.13-2.49-5.76.37-1.32.71-2.66,1-4a66.93,66.93,0,0,1,2.62-8.76c.43-1.06.77-2.17,1.14-3.34,1-3.17,2.09-6.7,5.07-9.16l-6.79-6.08c-3.15,2.66-7.51,3.25-11.74,3.82l-1.69.23a18.92,18.92,0,0,1-3.8.07c-.55,0-1.19,0-1.88,0-2,.07-4.07.14-5.27-1.15A45.87,45.87,0,0,1,32,285.47l-1-1.78a9.57,9.57,0,0,1-.91-2.42,5.39,5.39,0,0,0-.73-1.87c-2.65-3.22-2.37-6.77-2.13-9.91.06-.81.12-1.58.14-2.35,0-.07,0-.15,0-.22l-.7-.12a4.08,4.08,0,0,1-3.08-2,4.17,4.17,0,0,1,.27-3.73c.71-1.49,1.49-3,2.23-4.37l.19-.36-1.42-.45c-3.59-1.13-5.27-3.68-4.85-7.38a8.39,8.39,0,0,0-.34-2.61l-.15-.67a7,7,0,0,1,2.07-6.65c2-2.08,1.73-8.12-.45-10.41a52.63,52.63,0,0,1-5.24-6.82,3,3,0,0,1,.93-4.72l0-.12c-.22-.81-.44-1.6-.65-2.4-.28-1.07-.6-2.13-.91-3.19A49.16,49.16,0,0,1,13.4,203a28.26,28.26,0,0,1,.25-6.71c.11-1,.23-2,.31-3l.15-2.12,6.66,3.34c.08-1.18.15-2.21.2-3.23s.09-2.16.12-3.25a63.61,63.61,0,0,1,.46-7.06,109.84,109.84,0,0,1,2.56-12.77A59.42,59.42,0,0,0,26.38,150a23.29,23.29,0,0,1,4.17-14c.89-1.37,1.74-2.84,2.57-4.25a51.89,51.89,0,0,1,5.77-8.55c1.71-1.92,4.21-3,6.62-4,.91-.37,1.76-.73,2.57-1.12a25.51,25.51,0,0,1,2.62-1c.6-.21,1.2-.43,1.78-.68a3.47,3.47,0,0,0,.44-.33,2.65,2.65,0,0,1,2.14-.84c3.06.51,5-1.19,7.22-3.15a26.51,26.51,0,0,1,2.87-2.3A16.62,16.62,0,0,0,67.24,108c.39-.36.79-.73,1.22-1.12l1.34-1.17.84,1.57c.89,1.65,1.56,1.48,3.57.72a13.17,13.17,0,0,1,1.72-.57c4.69-1.07,9.41-2.47,14-3.82l.28-.08a3.12,3.12,0,0,0,.75-.53,5.43,5.43,0,0,1,1.55-1,6.86,6.86,0,0,1,4.13-.56c1.44.4,2.3,2.72,2.11,4-.48,3.26.89,4.39,4.36,5.84,5.32,2.23,10.69,2,16.37,1.69,1.53-.07,3.11-.15,4.68-.17a7.3,7.3,0,0,0,1.41-.23,11,11,0,0,1,1.7-.29,28.54,28.54,0,0,0,15.93-6.62c3.82-3,6-7.67,6.4-13.73a18.86,18.86,0,0,0,0-1.91c0-.69,0-1.41,0-2.15.1-1.54-.44-2.46-2.06-3.52a13.17,13.17,0,0,1-4-4.74,78.46,78.46,0,0,1-4.41-9.15,5.64,5.64,0,0,1,.49-4.77,16.92,16.92,0,0,0,2.82-7.89c.2-1.6.54-3.18.88-4.7a40.42,40.42,0,0,0,.92-5.3,6.4,6.4,0,0,0-.76-2.62,18.25,18.25,0,0,1-.69-1.79c-.37-1.21-.74-2.42-1.1-3.64-.55-1.85-1.1-3.71-1.7-5.54-.15-.48-.29-1-.44-1.45A12.66,12.66,0,0,0,138,28.87c-3.06-4.23-1.57-8,.28-11.1,2-3.34,5.37-4.79,10-4.33a15.64,15.64,0,0,1,5.47,1.92c.5.25,1,.5,1.5.73,3.64,1.66,7.83,2.47,11.88,3.26l2.37.47a9,9,0,0,0,1.11-.92c.23-.21.46-.42.67-.6.79-.66,1.54-1.39,2.33-2.16a20.74,20.74,0,0,1,5.54-4.29c6.87-3.16,11.65-1.91,16.5,4.31l1.24,1.58c1.78,2.28,3.62,4.63,5.35,7,4.59,6.35,5.06,13.76,4.89,20.82A30.82,30.82,0,0,0,212,63.88a18.73,18.73,0,0,0,1.16,1.55,20.16,20.16,0,0,1,1.41,1.91c.64,1,1.24,2.08,1.83,3.09.82,1.42,1.66,2.9,2.59,4.25a14.19,14.19,0,0,0,3.45,3.74c5.82,4,11.81,8,17.6,11.84l5.53,3.68c.48.32,1,.63,1.52.92,5,2.76,6.1,5.68,3.77,10.55a1.47,1.47,0,0,0,.87.09,13.09,13.09,0,0,0,2.8-2.57l1.28-1.35,1,1.59c1.91,3.14,1.91,6.38,1.51,9.58.45-.22.84-.42,1.22-.64,1.8-1.07,4.57-2.24,7.81-.13a22.53,22.53,0,0,0,3.49,1.72c.66.28,1.32.56,2,.87,1.65.79,2.15,1,3.11.13,1.31-1.15,3.63-1.29,5.23-.95a6.83,6.83,0,0,1,2.8,1.62,11.29,11.29,0,0,0,1,.76l.39.26a3.9,3.9,0,0,0,.94.54c6.73.18,11,3.14,13.29,9.31a8.14,8.14,0,0,0,2.13,2.54c1.08,1,2.09,2.11,2.1,3.53a5.08,5.08,0,0,1-2,3.54,1,1,0,0,0-.2.51c.27,3.69.59,7.07,1,10.35l.07.6a21.47,21.47,0,0,0,.85,4.64l.06.18a18.2,18.2,0,0,1,1.45,7.66,2.21,2.21,0,0,0,.42,1.64,1.49,1.49,0,0,0,1.19.38,3.45,3.45,0,0,1,2.85,1.69c.3.61.64,1.21,1,1.82,1.32,2.39,2.82,5.09,2.34,8.55a18.59,18.59,0,0,0,.2,4.7l0,.36a1.15,1.15,0,0,0,.28.14l.88.21a6.55,6.55,0,0,0,2.68.31c3.78-.91,5.68,1.27,7.21,3,.4.46.77.89,1.17,1.27s.58.59.86.91c1,1.09,1.6,1.71,2.76,1.63a3.24,3.24,0,0,1,2.67,5.49,1.93,1.93,0,0,0-.31.43l.12.15a5.23,5.23,0,0,1,1.59-.78,3.41,3.41,0,0,1,3,.86h0a3.27,3.27,0,0,1,.82,2.34,1.62,1.62,0,0,1-.65,1.27c-1.75,1.27-1.65,2.77-1.32,5.31.07.53.13,1.05.17,1.57l.08,1.1-1,.35c-.63.21-1.26.4-1.88.59a21.38,21.38,0,0,0-3.74,1.37,10.36,10.36,0,0,0-2.23,1.82c-.39.38-.78.76-1.19,1.11-.12.1-.24.23-.36.35a3.76,3.76,0,0,1-1.86,1.22c-2,.43-3.07,1.79-4.37,3.67a61.49,61.49,0,0,1-5.81,6.85c-1.07,1.14-3.1.83-3.5.76a3.59,3.59,0,0,0-3.05.93,3.67,3.67,0,0,0-1.25,3c0,.06,0,.13,0,.2a2.24,2.24,0,0,1-.29,1.83c-.88,1.16-.7,2.34-.33,4.18a10.28,10.28,0,0,1,.25,4,1.67,1.67,0,0,0,.32.49c1.25,1.29,2.86,3.26,2.34,5.37-.43,1.73-2.09,2.74-3.66,3.38a12,12,0,0,1,.09,1.29,12.7,12.7,0,0,1-.14,1.71l0,.18.65.5c1.31,1,2.7,2.1,4.12,3.17a2.1,2.1,0,0,0,.7.3,4.75,4.75,0,0,1,3.44,3.09,5.17,5.17,0,0,1-1,4.79,5.39,5.39,0,0,0,0,1.06c.11,1.13.22,2.29-.61,3.21a3.82,3.82,0,0,1-2.9,1h0c-1.14,0-2.66,1-3.7,1.73a6.9,6.9,0,0,0,1.45,3.18c4.27,1.25,4.68,2.67,3.87,6.85A7.58,7.58,0,0,0,310,281l.08.22a6.54,6.54,0,0,0,.94,1.56c.21.28.41.57.6.86s.23.38.34.58a3.32,3.32,0,0,0,.33.53,8.25,8.25,0,0,0,1.18.49c1.07.39,2.29.84,2.31,2.09a39.64,39.64,0,0,1-.73,7.55,8,8,0,0,1-.79,2.12,5.82,5.82,0,0,0-.54,1.36c-.37,2,.27,3,2.35,3.51a6.62,6.62,0,0,1,4.56,4.15,7.53,7.53,0,0,1-.77,6.87,7,7,0,0,0-.65,2.85c-.07.67-.15,1.36-.28,2.08L318.5,320l-1.82-1.37c-.82-.62-1.2-.51-2.86.83-.3.24-.6.48-.92.71a5.11,5.11,0,0,1-4.38.56c-6.95-2.72-12.61.49-18.6,3.88l-1.25.71a22.93,22.93,0,0,0-4.68,3.92l-2,2-.53-2.57a20.19,20.19,0,0,1-.31-2.82l0-.68,0-.16c.06-.34.12-.67.18-1a14.79,14.79,0,0,0,.37-2.84c-.06-6.5-1.93-9.22-8-11.61a8.27,8.27,0,0,1-1.91-1.17,7.9,7.9,0,0,0-1.05-.71l-.88-.47a13.6,13.6,0,0,0-3.45-1.48c-3-.62-6.72-1.82-9.21-5.58L257,300a8.57,8.57,0,0,1-3.46-5.6,7.56,7.56,0,0,1,1.77-5.87,3.67,3.67,0,0,1,3.7-1.07,38.06,38.06,0,0,0-2.6-9.71l-.19-.39a3.71,3.71,0,0,1-1.33,0,3.77,3.77,0,0,1-2.54-1.68,19.26,19.26,0,0,1-2.13-5.3c-.6-2-1.16-4-2.3-5.15-1.52-1.55-3.38-1.57-5.53-1.58a14,14,0,0,1-4.62-.57,5.87,5.87,0,0,1-3.18-2.54h-.93l-1.2,0-.28-1.5a2.58,2.58,0,0,0-1.73-2.45,2.54,2.54,0,0,0-2.75,1,15.3,15.3,0,0,0-1.49,6.5,2.07,2.07,0,0,0,.08.55l.1.38-.11.38a10.1,10.1,0,0,0-.41,2.54,2.07,2.07,0,0,0,0,.36l.13.91-.78.49c-2.08,1.3-4.78-.07-6.62-1.22a2,2,0,0,0-1.79-.23,3.07,3.07,0,0,0-1.79,1.82c-.4,1.05-.72,2.13-1,3l-.16.55-.5.28c-.87.49-1,.94-.57,2.66l.09.39-.13.38a15.69,15.69,0,0,1-5.75,8.48c-.84.59-1.71,1.08-2.55,1.56A26.2,26.2,0,0,0,202,289l-.46.35a7.31,7.31,0,0,0-.95,1l-.78,1a13.88,13.88,0,0,1-2,2.35c-2.54,2.16-3.56,2.47-7.11.19a13,13,0,0,1-1.48-1.14l-.83-.71,0-.13-.05,0-.95-.37-.15-.06c-1.92-.61-3.46,0-5.42.82l-.57.23-.36,0a5.33,5.33,0,0,0-5.41,2.65l-.38.56-.67.06-1.15.08-.57,0-.43-.37a2,2,0,0,0-1.41-.44l-1,0-.34-1-.06-.2a6.23,6.23,0,0,0-2.06,3.83l-.06.29-.17.24a9.68,9.68,0,0,0-1.55,5.05l-.06.8-4.83,2.39-.25,3-.26.33a5.63,5.63,0,0,0-.5.73,8.92,8.92,0,0,0-.61,1.5c0,.31-.06.61-.09.92l0,.25c-.32,2.75-.59,5.14-1.69,7a9.41,9.41,0,0,1-1.8,3.28l-.36.41-.54.06a9,9,0,0,1-1.27.08c-4.3-.08-8.18-.05-12,1.09a27.18,27.18,0,0,1-4.56,1l-.28,0-.27-.08a36.12,36.12,0,0,1-3.91-1.36,14.15,14.15,0,0,1-4.73-1.39,14.67,14.67,0,0,1-6-5.63,22.89,22.89,0,0,1-2.44-2.79l-.2-.27-.06-.33a9.8,9.8,0,0,1-.13-1.74h-1.1l-.39-.3a2.52,2.52,0,0,0-3.23.19,23.59,23.59,0,0,0-4,5.17l-1,1.64-.94-1a1.23,1.23,0,0,0,0,.22c.13.51.22,1,.3,1.51l.07.44-.19.4c-.59,1.24-1.14,2.49-1.69,3.75l-.82,1.86c-.79,1.76-1.48,3.17-2.17,4.43-.55,1-1.08,1.88-1.64,2.71l-.34.5-.6.1-2.68.45c-1.75.3-4-.08-5-3.59-.81-2.86-1.64-5.71-2.48-8.56l-.22-.75a4.92,4.92,0,0,0-2.87-2.1,4.44,4.44,0,0,0-3-.27,2.67,2.67,0,0,0-.25.9c-.26,2.13-.47,4.28-.69,6.55l-.41,4.1-2.84-.49c-1.16-.2-2.46-.41-3.75-.66a1.62,1.62,0,0,0-1.14.07,1.81,1.81,0,0,0-.39,1.21c-.11,1.5-.2,3-.31,4.73ZM62.06,287l11.62,10.4-1.7,1c-3.24,1.86-4.26,5.15-5.35,8.63-.37,1.17-.75,2.39-1.22,3.56a64.81,64.81,0,0,0-2.5,8.39c-.34,1.36-.68,2.72-1.06,4.07s-.26,1.77,1.09,2.49a10.06,10.06,0,0,1,4.61,4.87c.81,2.28,2.46,3.52,4.54,5.1l.11.08c.1-1.71.2-3.2.31-4.7A4.28,4.28,0,0,1,74,327.65a4.12,4.12,0,0,1,3.4-.6c1.21.23,2.43.44,3.54.62L81,326.6c.22-2.29.44-4.45.7-6.61a4.09,4.09,0,0,1,1.43-2.88c1.85-1.23,4.55-.46,5.62-.07,1.87.68,4.07,2.08,4.62,4l.22.75c.84,2.86,1.68,5.72,2.48,8.59.47,1.67,1,1.71,1.84,1.57l2.09-.35c.39-.61.78-1.26,1.17-2,.66-1.2,1.32-2.54,2.07-4.23l.82-1.84c.5-1.14,1-2.29,1.54-3.42-.05-.28-.11-.56-.18-.85a5.92,5.92,0,0,1-.06-2.1l0-.26a3.75,3.75,0,0,1,.31-1.11c.06-.15.13-.32.21-.54l.53-1.5,1.43.7a4.75,4.75,0,0,1,.62.36,25,25,0,0,1,3.52-4.31,5.35,5.35,0,0,1,6.49-.71l.55,0a2,2,0,0,1,1.56.65,2.83,2.83,0,0,1,.93,2,7.37,7.37,0,0,0,0,1.2,21.39,21.39,0,0,0,2.06,2.29l.14.14.1.17a11.7,11.7,0,0,0,4.92,4.69,11.44,11.44,0,0,0,4,1.13l.2,0,.19.08a33.37,33.37,0,0,0,3.5,1.25,25.09,25.09,0,0,0,3.8-.86c4.2-1.26,8.31-1.29,12.85-1.21h.32a7.48,7.48,0,0,0,1-2l.16-.34c.83-1.28,1.08-3.42,1.36-5.91l0-.25c0-.34.07-.68.1-1l.06-.29a12,12,0,0,1,.86-2.13,6.71,6.71,0,0,1,.51-.79l.32-3.81,4.83-2.4a12,12,0,0,1,1.83-5.45c.55-2.3,1.66-5,5.09-6.31l1.34-.51.5,1.34c.11.3.21.62.31.95a4.69,4.69,0,0,1,1.69.65,8,8,0,0,1,7.27-3.3c2-.84,4.17-1.67,6.82-1l2.3-2.16,2.61,2.12-.48,1.33-.41,1.14c.16.13.33.25.52.37,2.15,1.38,2.15,1.39,3.73,0a11,11,0,0,0,1.55-1.8v-6.76l2.22,3.83.86-.23c.83-.58,1.69-1.07,2.53-1.54s1.59-.9,2.32-1.41a12.59,12.59,0,0,0,4.57-6.68c-.3-1.4-.58-3.55,1.52-5,.24-.78.53-1.72.88-2.64a5.89,5.89,0,0,1,3.53-3.51,4.86,4.86,0,0,1,4.2.5,8,8,0,0,0,2.95,1.3,12.76,12.76,0,0,1,.4-2.42,4.45,4.45,0,0,1-.08-.91,18.06,18.06,0,0,1,1.77-7.68c1.08-2.28,3.87-3,5.94-2.54a5.16,5.16,0,0,1,3.74,3.82l.73,0,.87.05.35.8a3.12,3.12,0,0,0,1.94,1.82,11.71,11.71,0,0,0,3.71.41c2.43,0,5.19,0,7.54,2.44,1.63,1.67,2.32,4,3,6.33a17,17,0,0,0,1.77,4.53,1,1,0,0,0,.64.45.94.94,0,0,0,.7-.19l1.39-1.08,1.53,3.21c.76,1.59,3.48,9.27,2.82,13.46l-.37,2.32-1.88-1.41a4.37,4.37,0,0,0-1.33-.72,1,1,0,0,0-.7.15,4.8,4.8,0,0,0-1.16,3.7,5.78,5.78,0,0,0,2.48,3.81l.18.13.2.26c.09.12.18.24.27.37,1.52,2.3,3.74,3.6,7.43,4.37a15.9,15.9,0,0,1,4.21,1.76l.84.45a10.29,10.29,0,0,1,1.46,1,6,6,0,0,0,1.25.8c7.15,2.82,9.7,6.54,9.78,14.22a17.1,17.1,0,0,1-.42,3.4c0,.26-.1.52-.15.78a18.3,18.3,0,0,1,3.37-2.53l1.24-.7c6.31-3.57,12.83-7.26,21-4.05a2.38,2.38,0,0,0,1.67-.21c.28-.2.55-.42.81-.63,1.07-.86,2.54-2,4.34-1.78v-.08a8.91,8.91,0,0,1,1.12-4.13A4.75,4.75,0,0,0,318,307a3.81,3.81,0,0,0-2.61-2.41c-3.49-.89-5.06-3.29-4.44-6.76a8,8,0,0,1,.78-2.1,5.71,5.71,0,0,0,.54-1.37A39.47,39.47,0,0,0,313,288l-.46-.17a9.36,9.36,0,0,1-1.75-.78,3.88,3.88,0,0,1-1.26-1.54c-.07-.13-.15-.27-.23-.39s-.34-.49-.52-.73a8.81,8.81,0,0,1-1.33-2.31l-.07-.22a9.43,9.43,0,0,1-.75-4.75c.56-2.88.56-2.88-2-3.61-1.79-.52-3.08-3.71-3.33-5.22s.28-2.37.79-2.74c1.77-1.26,3.62-2.5,5.68-2.49h0a3.19,3.19,0,0,0,.76-.07,8.36,8.36,0,0,0-.06-1,4.15,4.15,0,0,1,.52-3,2.34,2.34,0,0,0,.54-2.2,1.94,1.94,0,0,0-1.45-1.24,4.78,4.78,0,0,1-1.71-.78c-1.42-1.07-2.83-2.17-4.15-3.19l-1.9-1.48.08-.79c0-.38.08-.72.12-1a10.38,10.38,0,0,0,.12-1.33,12.38,12.38,0,0,0-.12-1.43c0-.23-.06-.46-.08-.68l-.11-1.13,1.08-.36c2.48-.82,2.84-1.55,2.89-1.76s0-1-1.62-2.72a3.65,3.65,0,0,1-1.08-2.92,7.65,7.65,0,0,0-.23-3c-.36-1.78-.81-4,.6-6.11,0-.15,0-.3-.06-.44a6.49,6.49,0,0,1,2.17-5.35,6.4,6.4,0,0,1,5.46-1.62,2.68,2.68,0,0,0,1,0A57.56,57.56,0,0,0,316,213c1.51-2.17,3.12-4.17,6.1-4.82l.43-.44c.18-.18.35-.36.53-.52.37-.32.72-.66,1.07-1a12.56,12.56,0,0,1,2.89-2.3,23.8,23.8,0,0,1,4.23-1.57l.71-.21,0-.32c-.3-2.3-.66-5.12,1.73-7.36l-.07,0a4.75,4.75,0,0,0-.94.56c-.24.16-.48.33-.73.49l-.95.58-1.1-1.08c-.86-.82-2.65-2.52-.46-5a.55.55,0,0,0,.17-.58.51.51,0,0,0-.54-.21c-2.6.14-4-1.42-5-2.57-.24-.26-.47-.52-.71-.75-.5-.47-.93-1-1.36-1.46-1.51-1.74-2.39-2.62-4.4-2.13a8.61,8.61,0,0,1-4-.31l-.81-.19c-.73-.16-2.29-.91-2.45-2.23l-.09-.69a20.65,20.65,0,0,1-.2-5.45c.35-2.52-.8-4.59-2-6.79-.34-.62-.69-1.24-1-1.87a1,1,0,0,0-.34-.18,4.29,4.29,0,0,1-3.26-1.26,5,5,0,0,1-1.18-3.81,15.54,15.54,0,0,0-1.3-6.5l-.06-.18a23.55,23.55,0,0,1-1-5.26l-.07-.59c-.15-1.33-.29-2.68-.42-4.05l-.86-.06a9.78,9.78,0,0,0-.31-3.71v0l-.14-.43a10,10,0,0,1-.52-2.79v0h0l1.33,0a3.75,3.75,0,0,1,1-2.07c1-1,1.11-1.37,1.11-1.46s-.09-.47-1.19-1.48a10.14,10.14,0,0,1-2.87-3.62c-1.93-5.09-5.13-7.32-10.72-7.48a4.68,4.68,0,0,1-2.45-1l-.33-.22a13.68,13.68,0,0,1-1.25-1,4.9,4.9,0,0,0-1.6-1,4,4,0,0,0-2.76.31c-2.41,2.11-4.56,1.08-6.12.33-.69-.33-1.31-.59-1.93-.86a24.92,24.92,0,0,1-3.93-2c-1.54-1-2.89-1-4.82.19-.72.43-1.48.79-2.35,1.2l-1.48.71-2.46,1.22.44-2.71c.56-3.51.88-6.18.06-8.61-2.39,2.33-3.41,2.46-6.6,1.24l-1.12-.43.24-1.18s0-.09,0-.13a2.77,2.77,0,0,1,.28-1c2.12-4,1.73-5.35-2.23-7.52-.6-.33-1.18-.68-1.73-1l-5.53-3.68c-5.8-3.86-11.8-7.84-17.64-11.86a16.9,16.9,0,0,1-4.18-4.47c-1-1.44-1.86-3-2.71-4.44-.57-1-1.16-2-1.77-3A17.45,17.45,0,0,0,211,67.21a21,21,0,0,1-1.34-1.79,33.53,33.53,0,0,1-5.33-19.88c.16-6.56-.26-13.42-4.36-19.09-1.7-2.35-3.52-4.68-5.29-6.93l-1.24-1.59c-4.08-5.23-7.38-6.11-13.08-3.48a18.42,18.42,0,0,0-4.75,3.75c-.8.78-1.62,1.58-2.5,2.3-.18.15-.37.33-.57.51-1,.9-2.09,1.92-3.39,1.65l-2.55-.5c-4.21-.82-8.57-1.67-12.51-3.47-.54-.24-1.06-.51-1.59-.77A13.33,13.33,0,0,0,148,16.27c-3.57-.36-5.9.58-7.32,3-1.73,2.9-2.4,5.25-.42,8a14.89,14.89,0,0,1,2,4.74c.13.46.27.92.41,1.37.6,1.86,1.17,3.77,1.72,5.61.36,1.21.72,2.41,1.09,3.61a15.86,15.86,0,0,0,.59,1.51,8.51,8.51,0,0,1,1,4,43.23,43.23,0,0,1-1,5.67c-.34,1.53-.65,3-.83,4.45a19.65,19.65,0,0,1-3.31,9.16,2.89,2.89,0,0,0-.19,2.1A75.64,75.64,0,0,0,146,78.21,10.56,10.56,0,0,0,149.08,82,6.32,6.32,0,0,1,152.41,88c0,.6,0,1.21,0,1.87a21.1,21.1,0,0,1,0,2.2c-.49,6.89-3,12.18-7.46,15.75a31.32,31.32,0,0,1-17.51,7.23,8.68,8.68,0,0,0-1.27.23,9.65,9.65,0,0,1-2,.3c-1.52,0-3.08.1-4.58.17-5.74.28-11.68.57-17.6-1.91-3.52-1.47-6.89-3.37-6.07-8.87a2.29,2.29,0,0,0-.29-.92,5.67,5.67,0,0,0-2.12.51,3.52,3.52,0,0,0-.75.54A5,5,0,0,1,91,106.22l-.28.08c-4.6,1.36-9.37,2.77-14.14,3.86a11,11,0,0,0-1.35.45c-1.58.6-4.05,1.54-6.05-.58a18.85,18.85,0,0,1-2.46,2.06,24,24,0,0,0-2.55,2.06c-2.36,2.08-5,4.42-9.22,3.87l-.2.17a4.73,4.73,0,0,1-1.13.75c-.64.27-1.29.51-1.95.74a22.7,22.7,0,0,0-2.33.93c-.89.43-1.82.82-2.73,1.19-2.22.92-4.31,1.78-5.59,3.22a49,49,0,0,0-5.44,8.09c-.84,1.45-1.71,2.94-2.64,4.37a20.55,20.55,0,0,0-3.72,12.36,56.35,56.35,0,0,1-.93,12.8l1.39.29c-.45,2.17-1,4.36-1.44,6.48q-.32,1.37-.63,2.74l-1.45-.33c-.73,3.12-1.33,6.32-1.78,9.57a61.63,61.63,0,0,0-.44,6.75c0,1.11-.06,2.21-.12,3.32s-.13,2.16-.22,3.41L23.32,199l-6.73-3.38q-.06.51-.12,1a25.82,25.82,0,0,0-.25,6A46.34,46.34,0,0,0,18,210.1c.32,1.09.64,2.18.93,3.27.21.79.42,1.57.64,2.37l.64,2.33-1,.52a4.14,4.14,0,0,0-1.13.71,2.11,2.11,0,0,0,.25.45,50.39,50.39,0,0,0,5,6.46c3,3.1,3.72,10.9.44,14.33a4.19,4.19,0,0,0-1.35,4.1l.14.63a10.67,10.67,0,0,1,.39,3.56c-.27,2.37.57,3.63,2.88,4.36l2,.64,2.62.84-.77,1.49-1,1.86c-.73,1.4-1.49,2.84-2.19,4.28-.35.74-.35,1.13-.29,1.25s.4.35,1.1.5c.43.09.87.15,1.34.21l.74.1,1.54.23-.37,1.51c-.05.22-.11.42-.17.61a3,3,0,0,0-.13.52c0,.85-.08,1.69-.15,2.51-.23,3-.44,5.54,1.49,7.88a7.53,7.53,0,0,1,1.28,2.93,7.28,7.28,0,0,0,.61,1.72l1.05,1.8a43.76,43.76,0,0,0,5.4,7.94c.32.35,2.2.28,3.1.25.72,0,1.46,0,2.14,0a16.36,16.36,0,0,0,3.23,0l1.72-.24c4.39-.59,8.54-1.15,11-3.9Zm22.76,32.37Zm220.71-48.54h0Zm5.72-10.24Zm-6.89-24.28ZM302,227.06Z"/></svg>