<svg id="Layer_1" data-name="Layer 1" xmlns="http://www.w3.org/2000/svg" viewBox="0 0 350 350"><defs><style>.cls-1{fill:#999;}.cls-2{fill:#f90;}</style></defs><title>M</title><path class="cls-1" d="M344.25,310.13s0-13.64-6.66-22.2-17.13-8.88-14.91-14.59.32-10.15,5.71-9.83,2.85-15.23-1.59-20S296,220.68,296,220.68l5.71-16.81-4.44-10.47L309,189.27l-12.69-15.54s-7,2.85-10.15-1.59-11.74-1-18.71-.63-18.4-.63-18.4-.63-14.59-44-31.72-52.77c0,0,3.64-1-11.16-3.16s-25.38,3.16-25.38,3.16-4.23-33.62-6.77-38.69-5.5-15.65-5.5-15.65H138.12l-16.07-5.5V44.74L108.94,22.32,65.38,6.25s-23.68,8-25,9.3-16.92,7.61-16.92,7.61L5.75,58.69l5.92,35.53,18.61,37.64-6.34,41.45,15.65,39.33v6.77s35.95,29.6,38.49,31.3S107.25,285,107.25,285l30.87,38.49,32.14-16.92s11,19.45,18.61,19.88,18.61-3,18.61-3,15.65-33,16.92-34.68,11.42,18.61,11.42,18.61l25,31.72,14.38,4.65,19-20.3Z"/><path class="cls-2" d="M275.57,345.38l-15.65-5.06L234.55,308c-3.44-6.87-7.71-14.63-9.68-17.22-2.47,4.7-10.62,21.68-16.11,33.26l-.27.56-.6.18c-.46.14-11.33,3.45-19.1,3-7.27-.4-16.36-14.83-19.07-19.4l-32,16.83-31.61-39.4c-10.18-12.44-27-32.68-28.87-34-2.57-1.71-37.13-30.17-38.6-31.38l-.52-.42v-7.16L22.47,173.47l.06-.38,6.28-41L10.3,94.66l0-.21-6-36L22.48,22.06l.5-.2c7.36-3,15.54-6.54,16.47-7.33C40.73,13.25,56,7.95,64.92,4.91l.47-.16.47.17,44,16.25,13.56,23.19v12.9l14.89,5.09h31.29l.29,1c0,.1,3,10.5,5.4,15.4,2.31,4.62,5.68,29.68,6.67,37.28a49.45,49.45,0,0,1,24.41-2.53c11.3,1.61,12.58,2.6,12.75,3.95,15.76,9.46,28.78,45.7,31,52.05,2.85.21,11.63.82,17.29.56a53.9,53.9,0,0,0,6.19-.8c5.4-.9,11-1.84,13.75,2,2.48,3.46,8.4,1.12,8.46,1.1l1-.39.66.81,14,17.11-12.22,4.29,4.06,9.58-5.54,16.31c4.71,3.25,26,18.06,30.12,22.43s6.33,15.45,4.21,20a3.77,3.77,0,0,1-3.74,2.4c-2.3-.14-2.45.39-3,3.59a25.66,25.66,0,0,1-1.33,5.34c-.69,1.77.28,2.62,4.48,5,3.14,1.82,7.05,4.08,10.23,8.16,6.88,8.85,7,22.5,7,23.07v1.09l-50.73,13.5Zm-14-7.49,13.11,4.24,18.69-19.94L342.8,309c-.17-3.32-1.1-13.54-6.33-20.25-2.83-3.64-6.48-5.75-9.41-7.45-3.79-2.19-7.36-4.26-5.7-8.53a22.89,22.89,0,0,0,1.18-4.78c.48-2.92,1-6.24,5.94-6,.23,0,.63,0,1-.77,1.65-3.51-.53-13.42-3.71-16.83-4.29-4.59-30.27-22.46-30.54-22.64l-.88-.61,5.88-17.32-4.82-11.36,11.26-4-10.79-13.21c-2.28.69-7.81,1.8-10.83-2.42-1.73-2.42-6.22-1.67-11-.88a55.77,55.77,0,0,1-6.53.83,185,185,0,0,1-18.58-.64l-.93-.08-.29-.89c-.14-.43-14.6-43.55-31-52l-3.19-1.63.21-.06c-1.59-.35-4-.8-7.73-1.33a45.6,45.6,0,0,0-24.54,3l-1.79.89-.25-2C178.27,109,174.8,84,172.8,80.05c-2.12-4.25-4.48-12-5.3-14.87H137.89l-17.25-5.9V45.12L108,23.48,65.36,7.75c-10.77,3.66-22.67,8-24,8.86C39.85,18,29.49,22.26,24.54,24.28L7.22,58.92,13,93.78l18.71,37.85-6.35,41.51L41,212.37v6.37c12.55,10.33,35.92,29.5,37.86,30.79,2.58,1.72,25,29.07,29.49,34.54l30.15,37.58,32.33-17,.68,1.2c3,5.22,11.85,18.85,17.45,19.16,6.28.35,15.17-2,17.52-2.73,3.15-6.64,15.54-32.68,16.79-34.35a1.64,1.64,0,0,1,1.48-.66c.81.07,2.71.25,12.27,19.36ZM41.43,16.56l0,0Z"/></svg>