<svg id="Layer_1" data-name="Layer 1" xmlns="http://www.w3.org/2000/svg" viewBox="0 0 350 350"><defs><style>.cls-1{fill:#999;}.cls-2{fill:#f90;}</style></defs><title>M</title><path class="cls-1" d="M339.43,45.33l-.24-.09a1.73,1.73,0,0,0,0-1l-.33-1a2.12,2.12,0,0,0-2.08-1.49,2.16,2.16,0,0,0-2-.53c-2.26.46-4.66.75-6.87,1.43a5.23,5.23,0,0,0-2.67,1.7c-1.72-.2-3.43-.46-5.17-.73s-3.47-.51-5.19-.73c-2.24-1.84-5.11-3.64-5.86-.78a2.06,2.06,0,0,0-3-2.3c-3.44,1.71-6.94-.87-10.48.56a28.38,28.38,0,0,0-3.46,1.88H292c-4.64.3-10.71.43-15.38,2.23l-.15.06q-.57.23-1.12.49l-.26.12c-.33.17-.64.35-.95.54l-.28.17a11,11,0,0,0-1.08.8,4.35,4.35,0,0,1-.55.4l-.13.07a4,4,0,0,1-.43.21l-.23.08-.36.11-.25,0-.35,0h-.25l-.35,0-.25,0-.35-.1-.23-.08a3.46,3.46,0,0,1-.37-.19l-.18-.1a3.8,3.8,0,0,1-.52-.41,5.56,5.56,0,0,0-.82-.62l-.19-.12a5,5,0,0,0-.84-.4l-.06,0a5.2,5.2,0,0,0-.85-.2l-.15,0a6.54,6.54,0,0,0-.94-.05h0c-2.05,0-4.27.9-6.51,1.33a3.27,3.27,0,0,1-6-.73c-.08,0-.16,0-.23-.09a6,6,0,0,1-1.75-1.41,6.54,6.54,0,0,1-3.25-1.7,7.21,7.21,0,0,1-1.94-5.07c0-.06,0-.11,0-.17s0-.1,0-.16c0-3.35.7-7.55-1.59-10.31-.14.16-.27.34-.4.52a2.18,2.18,0,0,0-3.28.35c-1,1.48-2.51,3.16-3,4.88-.63,2.11.22,3.69-.88,5.94a2.2,2.2,0,0,0-.18.54,27.19,27.19,0,0,1-2,2.48c-.17.19-.34.38-.51.56a17.34,17.34,0,0,1-1.34,1.22,4.31,4.31,0,0,1-.75.47,3.07,3.07,0,0,1-.27.33,8.61,8.61,0,0,1-2,1.52,3.49,3.49,0,0,1-4.11-.53l-1-.92c-5.6,4.18-10.14,9.63-15.57,14a3.47,3.47,0,0,1-4.11.53l-1.64-1.09a3.47,3.47,0,0,1-2-.75c-4.1-3.21-11.11-10.22-16.69-9.78-4.71.38-7.35,1.41-11.82-1.18a3.48,3.48,0,0,1-.88-.73l-.95-.18c-1.79-.4-3.55-.88-5.25-1.41h0c-2.09-.65-4.09-1.36-5.94-2.05-1.39-.52-2.73-1.08-4.06-1.68l-1.46-.68a3.34,3.34,0,0,1-2.64.51,23.61,23.61,0,0,1-8.5-3.7,18.76,18.76,0,0,1-2-1.16,3.51,3.51,0,0,1-3.78.58c-2.86-1.24-6.57-3.18-8.14.6-.7,1.68-2.23,2.93-4.17,2.37a3.64,3.64,0,0,1-2.53-3.34,3,3,0,0,1-.44-.34h0a3,3,0,0,1-.46-.62v0a2.45,2.45,0,0,1-.25-.72c0-1.21-.14-1.8-.54-1.83v0a1.13,1.13,0,0,0-.66.34l0,0a5,5,0,0,0-.39.38,3.81,3.81,0,0,1,.56,2.65,59.68,59.68,0,0,0,.08,6.95c.51,6.08-.21,11.72-5.12,16a35,35,0,0,0-9.64,13.86c-1.32,3.38-2.7,6.73-4.22,10a5.33,5.33,0,0,1-2.31,2.67c-4.89,2-10,3.42-14.81,5.57-5.09,2.28-9.89,5.22-14.9,7.69-1.79.88-1.89,2-1.44,3.6a4.48,4.48,0,0,1,.35,2.21c-.57,1.92-1.39,3.77-2.08,5.66a5.64,5.64,0,0,1-3.07,3.55,64.1,64.1,0,0,0-20.24,14.35c-.76.8-1.82,1.93-2.7,1.89-4-.15-8-.71-12-1a14.06,14.06,0,0,0-5,0,27,27,0,0,0-11.28,7.21,2.61,2.61,0,0,0,0,2.41,60.8,60.8,0,0,0,4,5.77c4.91,6.44,9.71,13,14.89,19.18A6.36,6.36,0,0,1,31,168.32c-.19,1.07-.43,2.14-.72,3.19-1.89,6.78-1.55,13.54,0,20.33a5.81,5.81,0,0,1-.16,3.36c-1.38,3.17-3.08,6.19-4.52,9.33a74.73,74.73,0,0,0-4,9.66c-.69,2.32-1.22,5.13-.55,7.33,1.77,5.79,3.93,11.51,8.21,16.09a5.08,5.08,0,0,1,1.28,2.61c.79,5.91,2.09,11.58,5,16.91a16.34,16.34,0,0,1,1.82,8.11c-.12,3.39,1.21,5,4.16,6A8.16,8.16,0,0,1,46.72,276c.47,1.06,1.15,2,1.71,3.06,2.72,5.07,4.78,10.33,4.15,16.25-.1.93-.37,2.2-1,2.64a3.67,3.67,0,0,0-1.21,5,80.93,80.93,0,0,0,5.27,9.34c2,3.09,4.35,5.91,6.18,9.06,1.23,2.12,2.55,2.27,4.37,1.19,3.07-1.82,5.94-4.11,9.19-5.49,5.94-2.52,8.95-7.58,11.83-12.72,2.65-4.72,5.76-8.6,11.28-10.07a37.57,37.57,0,0,0,6.49-2.6c2.43-1.17,4.77-2.54,7.14-3.84,2.21-1.22,4.27-3,6.63-3.61a85.56,85.56,0,0,0,19.34-7.39c2-1.09,3.89-2.55,5.9-3.7,4.62-2.63,9.29-5.16,13.8-7.66,3,4.66,5.51,8.93,8.34,13A5.47,5.47,0,0,0,169.6,280c2.61.37,4.83.3,7-2.29,2.31-2.79,5.94-4.46,8.79-6.87,1.49-1.26,2.48-2.83,4.92-2.21,1.17.3,2.61-.45,3.92-.72l-1.6-3.13c2.78-1.67,2.77-1.63,6.1-.68a2.34,2.34,0,0,0,1.83-.38c.24-.19,0-1.08-.14-1.62a6.19,6.19,0,0,0-.64-1.23c2.54-1.6,3.76,1.47,5,1.44l3.74-3.56a33.53,33.53,0,0,0,3.13-3.12,2.48,2.48,0,0,0,.21-2c-.48-1.39-1.32-2.66-1.78-4.05a2.5,2.5,0,0,1,.55-1.85c1.14-1.55,2.51-2.95,3.58-4.54s1.73-1.2,2.61,0c.54.77,1.18,1.48,1.62,2l9.11-12.63a9.57,9.57,0,0,1,0-2.07c.12-.66.9-1.29.83-1.86-.4-3.23,1.52-6.88-1.68-9.65a1.48,1.48,0,0,1,0-1.45,1.7,1.7,0,0,1,1.45-.3,16.24,16.24,0,0,1,2.44,1.05c1.67-2.77,3.25-5.31,4.74-7.9,1.79-3.11,5-4.61,7.55-6.91,1.13-1,2.52-2.2,1.13-3.38-3.86-3.25-4.2-6.71-1.57-10.76.08-.12,0-.34.12-.45,1-1.13,1.92-2.5,3.18-3.21.37-.21,1.74,1.57,2.77,2.25a3.87,3.87,0,0,0,2.17.52c.45,0,1-1,1.28-.86,2.88.87,4.52-1.54,6.71-2.44,3.29-1.35,2.92-4.9,4.27-7.41.32-.6.32-1.83.64-1.9a3.8,3.8,0,0,1,2.35.47c1.26.68,2.4,1.57,3.5,2.32,2-2.94,2.69-6.67,7.13-6.66,1,0,1.91-1.21,2.85-1.89a10,10,0,0,1,2.42-1.75c2.19-.68,2.88-1.91,2-3.68,1.51-1.43,3.18-2.48,4.09-4a58,58,0,0,0,4-8.44c.28-.71-.23-1.83-.59-2.68-.2-.48-.82-.79-1.25-1.17l.27-.56,3.53,1.07a75.62,75.62,0,0,1,6-6.59c1.67-1.48,1.71-3.1,1.77-5,0-1.49-.07-3.32.72-4.39,2-2.7,3.73-5.66,6.88-7.42a12.71,12.71,0,0,0,4.88-4.8,12.82,12.82,0,0,1,5.46-4.87,10,10,0,0,0,5.51-6.22,4.1,4.1,0,0,1,.84-1.49,17.83,17.83,0,0,1-3.27-4.21,3.39,3.39,0,0,1-.49-1.86c-.9-.8-1.79-1.61-2.65-2.47l0,0c-.55-.55-1.11-1.09-1.63-1.67a3.91,3.91,0,0,1-.53-.77l-.08-.14a3.38,3.38,0,0,1-.26-.76s0-.09,0-.14a3.22,3.22,0,0,1,.12-1.58l0-.08a3.38,3.38,0,0,1,.36-.71l0,0a3.49,3.49,0,0,1,2.12-1.43h0a3.79,3.79,0,0,1,1.54,0c1.41.26,2.67.41,3.91.65,3.37-6.22,5.59-13.69,2.95-20.17-2.81-1.15-5.44-3.39-5.51-6.56a5,5,0,0,1,2.74-4.47c2-1.06,4.33-.84,6.49-.48a2.8,2.8,0,0,1,2,1.54,9.19,9.19,0,0,0,2-.85c2.95-4.69,2.53-11,4.09-16.28A4,4,0,0,0,339.43,45.33Z"/><path class="cls-2" d="M64.23,324.55a3.44,3.44,0,0,1-.86-.11,4.72,4.72,0,0,1-2.8-2.44c-1-1.7-2.19-3.35-3.34-5-.95-1.31-1.92-2.66-2.81-4.06a82.41,82.41,0,0,1-5.36-9.51,5.05,5.05,0,0,1,1.7-6.73,4.36,4.36,0,0,0,.4-1.62c.63-5.86-1.66-11.09-4-15.43-.2-.38-.42-.75-.65-1.12a19.24,19.24,0,0,1-1.11-2,6.76,6.76,0,0,0-4.29-4c-3.65-1.14-5.29-3.48-5.16-7.37a14.87,14.87,0,0,0-1.65-7.38c-3.35-6.07-4.54-12.49-5.2-17.4a3.66,3.66,0,0,0-.91-1.83c-4.5-4.8-6.76-10.84-8.54-16.64-.64-2.09-.46-4.76.54-8.15a62.89,62.89,0,0,1,3.42-8.44l.65-1.41c.66-1.44,1.38-2.86,2.07-4.24.83-1.65,1.7-3.36,2.44-5.07a4.43,4.43,0,0,0,.08-2.49c-1.74-7.78-1.72-14.66,0-21,.28-1,.52-2,.69-3.06a5,5,0,0,0-1.43-4.49c-4.07-4.87-8-10-11.72-15l-3.22-4.24a63.06,63.06,0,0,1-4.07-5.91c-.58-1-.78-3.11.22-4.13a28.17,28.17,0,0,1,11.88-7.57,12.08,12.08,0,0,1,4.65-.16l.87.08c1.49.12,3,.27,4.46.42,2.47.25,5,.51,7.52.61a7.72,7.72,0,0,0,1.6-1.43,65.81,65.81,0,0,1,20.7-14.69,4.2,4.2,0,0,0,2.33-2.74c.24-.66.5-1.32.76-2,.48-1.23.94-2.39,1.29-3.59a4.13,4.13,0,0,0-.23-1l-.12-.42c-.44-1.58-.7-3.84,2.18-5.26,2.06-1,4.13-2.13,6.12-3.22,2.85-1.54,5.8-3.14,8.82-4.5,2.82-1.26,5.76-2.29,8.6-3.29,2.07-.73,4.21-1.48,6.26-2.3a4.1,4.1,0,0,0,1.55-2c1.34-2.9,2.67-6.06,4.18-9.94a36.65,36.65,0,0,1,10-14.41c3.84-3.37,5.23-7.81,4.64-14.85a61.65,61.65,0,0,1-.09-7.12,3,3,0,0,0-.23-1.69l-.81-1,.85-.92a6.19,6.19,0,0,1,.5-.49l.09-.07a2.52,2.52,0,0,1,1.6-.66l.92,0,.15.39a3.28,3.28,0,0,1,.85,2.72,1.2,1.2,0,0,0,.08.2,1.47,1.47,0,0,0,.24.33l.12.08.73.53,0,.76A2.26,2.26,0,0,0,124,37.19c1.51.43,2.28-1.08,2.47-1.55a4.77,4.77,0,0,1,2.6-2.76c2.21-.88,4.8.26,6.87,1.17l.54.24a2.1,2.1,0,0,0,2.29-.37l.82-.69.89.6a17.24,17.24,0,0,0,1.83,1.07l.15.09a22.28,22.28,0,0,0,8,3.49,2,2,0,0,0,1.55-.29l.67-.47,1.16.54,1,.47c1.45.65,2.75,1.18,4,1.64,2.15.8,4.06,1.46,5.86,2s3.51,1,5.14,1.38l.51.1.88.17.32.36a2,2,0,0,0,.53.44c3.22,1.86,5.31,1.62,8.47,1.25.79-.09,1.62-.19,2.53-.26,5.17-.39,11,4.5,15.27,8.09.88.74,1.69,1.42,2.41,2a2.06,2.06,0,0,0,1.2.45l.39,0,2,1.31c1,.66,2.2-.26,2.43-.45,2.4-2,4.69-4.17,6.9-6.32a89.72,89.72,0,0,1,8.72-7.76l1-.71,1.1,1,.74.71a2.07,2.07,0,0,0,2.46.3,7.19,7.19,0,0,0,1.67-1.27l.08-.11.2-.27.34-.21a2.89,2.89,0,0,0,.5-.31,15.56,15.56,0,0,0,1.23-1.12l.37-.4.1-.11a25.29,25.29,0,0,0,1.75-2.14,3.4,3.4,0,0,1,.21-.55,5.59,5.59,0,0,0,.47-2.78,9.5,9.5,0,0,1,.33-3,14,14,0,0,1,2.32-4c.31-.42.62-.84.88-1.24a3.62,3.62,0,0,1,2.74-1.57,3.55,3.55,0,0,1,1.4.16l.76-.86L244,26c2.23,2.69,2.09,6.27,2,9.42,0,.59,0,1.17-.05,1.73,0,.06,0,.11,0,.17v.12l0,.14a5.83,5.83,0,0,0,1.52,4A5.14,5.14,0,0,0,250,43l.46.1.31.35A4.6,4.6,0,0,0,252,44.47l.18.07.63.27.19.66a1.85,1.85,0,0,0,3.35.43l.32-.59.66-.13c.76-.15,1.56-.35,2.32-.55a19.17,19.17,0,0,1,4.43-.8,7.73,7.73,0,0,1,1.16.07l.14,0a6.82,6.82,0,0,1,1.13.27,6.24,6.24,0,0,1,1.16.53l.24.15a7,7,0,0,1,1,.78,2.34,2.34,0,0,0,.33.26l.11.06.21.11.13,0,.19.06.14,0,.2,0h.14l.22,0,.46,1.36-.32-1.38.22-.07.1,0a2.11,2.11,0,0,0,.31-.15l.13-.07a3,3,0,0,0,.33-.24,12.54,12.54,0,0,1,1.22-.91l.23-.14c.42-.26.77-.46,1.13-.64l.21-.1c.46-.23.87-.4,1.29-.57l.16-.06c4.29-1.65,9.66-2,14-2.22l1.63-.1.62-.37a19,19,0,0,1,2.72-1.43,10.74,10.74,0,0,1,5.84-.29c1.69.25,3.16.46,4.53-.23a3.6,3.6,0,0,1,3.87.42,3.47,3.47,0,0,1,.4.39h0c1.85-.59,4,.8,5.77,2.2,1.71.22,3.29.44,4.83.68,1.34.21,2.86.44,4.4.64a7.05,7.05,0,0,1,2.81-1.56,41.39,41.39,0,0,1,4.88-1.07c.71-.13,1.42-.25,2.12-.39a3.63,3.63,0,0,1,2.76.52,3.58,3.58,0,0,1,2.9,2.43l.33,1a3,3,0,0,1,.14.67h0l.81.59-.26,1a43,43,0,0,0-1.15,6c-.53,3.67-1.08,7.46-3.1,10.66l-.19.3-.31.18a10.62,10.62,0,0,1-2.28,1l-1.11.33-.54-1a1.43,1.43,0,0,0-1-.81c-1.95-.33-4-.52-5.59.33a3.59,3.59,0,0,0-2,3.18c.07,3.16,3.56,4.84,4.63,5.28l.55.23.22.55c3,7.46,0,15.75-3,21.38l-.49.91-1-.19c-.6-.11-1.2-.21-1.82-.3s-1.36-.21-2.09-.35a2.42,2.42,0,0,0-1,0,2.08,2.08,0,0,0-1.26.85,2,2,0,0,0-.22.43,1.86,1.86,0,0,0-.08.93,2,2,0,0,0,.17.52A2.93,2.93,0,0,0,319,97c.39.44.81.85,1.22,1.26l.49.5c.7.69,1.46,1.4,2.47,2.29l.5.44,0,.67a2,2,0,0,0,.3,1.09,16.31,16.31,0,0,0,3,3.88l1,1-1,1a2.7,2.7,0,0,0-.55,1,11.37,11.37,0,0,1-6.26,7.05,11.43,11.43,0,0,0-4.82,4.29,14,14,0,0,1-5.41,5.33c-2.37,1.33-3.87,3.44-5.47,5.69-.32.45-.64.9-1,1.34a6.18,6.18,0,0,0-.43,2.86c0,.25,0,.5,0,.73-.06,2-.13,4.12-2.24,6a43.33,43.33,0,0,0-4.18,4.5c-.57.67-1.13,1.34-1.69,2l-.6.68-1.24-.38a3.69,3.69,0,0,1,.14,2.62,59.46,59.46,0,0,1-4.1,8.65,12.93,12.93,0,0,1-2.93,3.07l-.72.62a3.46,3.46,0,0,1-.17,2.25,4.63,4.63,0,0,1-3.11,2.36,4,4,0,0,0-1.1.8c-.3.26-.6.53-.91.75s-.49.4-.74.62a4.64,4.64,0,0,1-2.94,1.54h0c-2.44,0-3.27,1.3-4.62,3.79a25.38,25.38,0,0,1-1.33,2.25l-.8,1.16-1.17-.79-1-.69a24.72,24.72,0,0,0-2.39-1.55,3,3,0,0,0-.69-.27,4.26,4.26,0,0,1-.38,1.12,11.75,11.75,0,0,0-.82,2.34c-.57,2-1.27,4.54-4.15,5.72a9.89,9.89,0,0,0-1.7,1c-1.35.92-3,2-5.27,1.64a2.32,2.32,0,0,1-1.5.75,5.32,5.32,0,0,1-3-.75,11.8,11.8,0,0,1-1.64-1.43l-.31-.3a13.73,13.73,0,0,0-1.35,1.49l-.57.68a1.67,1.67,0,0,1-.23.56c-2.3,3.54-1.92,6.2,1.29,8.9a2.76,2.76,0,0,1,1.09,2.08c0,1.41-1.12,2.46-2,3.3l-.14.12a33.44,33.44,0,0,1-2.8,2.22,15.08,15.08,0,0,0-4.48,4.35c-1,1.79-2.09,3.53-3.21,5.38l-1.54,2.54-.65,1.08-1.15-.52-.87-.41-.54-.26c1.72,2.18,1.48,4.69,1.28,6.76a13.23,13.23,0,0,0-.08,2.8,2.84,2.84,0,0,1-.62,1.93,3.11,3.11,0,0,0-.23.39,6.3,6.3,0,0,0,0,1.36c0,.17,0,.31,0,.42v.46L218.5,247.57l-1.17-1.45-.41-.5c-.4-.48-.85-1-1.27-1.61l-.16-.22-.11.15a32.05,32.05,0,0,1-2.08,2.68c-.54.65-1.06,1.27-1.53,1.91a2,2,0,0,0-.31.67,16.16,16.16,0,0,0,.8,1.81,18.7,18.7,0,0,1,.94,2.12,3.85,3.85,0,0,1-.44,3.38,22.33,22.33,0,0,1-2.41,2.46l-.85.8L207.16,262l-1.81,1.71h-.55a3.45,3.45,0,0,1-2.33-1.11c-.25-.21-.45-.37-.63-.5.24,1,.41,2.06-.45,2.73a3.75,3.75,0,0,1-3.09.63l-.17,0c-2.06-.59-2.5-.71-3.67-.09l1.84,3.59-1.82.38c-.37.08-.74.2-1.12.31a6.34,6.34,0,0,1-3.44.39c-1.2-.3-1.7.11-2.83,1.17-.27.25-.54.5-.83.75a41.54,41.54,0,0,1-3.65,2.66,22.81,22.81,0,0,0-5,4c-2.7,3.27-5.68,3.15-8.26,2.79-.76-.11-3.31-.58-4.44-2.2-2.09-3-4-6.07-6.05-9.33l-1.62-2.58-2.76,1.52c-3.23,1.78-6.57,3.62-9.86,5.48-.88.5-1.72,1.06-2.61,1.66a39,39,0,0,1-3.32,2.06,87.51,87.51,0,0,1-19.66,7.51,14.51,14.51,0,0,0-4.08,2.11c-.71.46-1.45.94-2.21,1.37l-1.65.92c-1.8,1-3.65,2-5.56,3a39.08,39.08,0,0,1-6.74,2.69c-5.31,1.41-8.14,5.35-10.41,9.39-2.63,4.69-5.91,10.52-12.51,13.33A37.59,37.59,0,0,0,70,321.7c-1,.67-2.07,1.37-3.14,2A5.26,5.26,0,0,1,64.23,324.55ZM11.55,136.19a1.86,1.86,0,0,0,.08.82,60.35,60.35,0,0,0,3.89,5.63l3.22,4.25c3.74,4.94,7.61,10.06,11.63,14.88a7.73,7.73,0,0,1,2,6.8c-.19,1.11-.45,2.23-.75,3.33-1.64,5.9-1.65,12.32,0,19.64a7.28,7.28,0,0,1-.24,4.24c-.77,1.78-1.66,3.53-2.51,5.21-.68,1.35-1.39,2.75-2,4.14l-.66,1.42a60.8,60.8,0,0,0-3.28,8.05c-.83,2.8-1,5-.55,6.51,1.94,6.33,4,11.4,7.89,15.54A6.53,6.53,0,0,1,31.94,240c.63,4.67,1.75,10.75,4.87,16.41a17.82,17.82,0,0,1,2,8.84c-.09,2.65.71,3.8,3.17,4.57a9.56,9.56,0,0,1,6,5.53,16.83,16.83,0,0,0,1,1.74c.24.41.49.82.71,1.23,2.53,4.72,5,10.44,4.31,17.07-.2,1.83-.74,3.07-1.63,3.67-.46.31-1.67,1.13-.72,3.2a79.89,79.89,0,0,0,5.17,9.18c.84,1.33,1.79,2.64,2.71,3.92,1.2,1.66,2.44,3.37,3.5,5.19.38.65.75,1,1.06,1.13a2.2,2.2,0,0,0,1.36-.44c1-.6,2-1.28,3-1.93a40.32,40.32,0,0,1,6.33-3.65c5.3-2.25,8.07-6.62,11.15-12.11,2.45-4.37,5.81-9.06,12.16-10.75a36.11,36.11,0,0,0,6.24-2.5c1.82-.87,3.64-1.89,5.4-2.88l1.67-.93c.67-.37,1.34-.8,2-1.26a16.74,16.74,0,0,1,4.94-2.49,84.71,84.71,0,0,0,19-7.27c1-.55,2-1.21,3.08-1.91.89-.6,1.82-1.21,2.79-1.77,3.3-1.87,6.65-3.72,9.89-5.5l3.92-2.16,1.17-.65.71,1.13c.8,1.27,1.58,2.51,2.34,3.72,2,3.23,3.92,6.28,6,9.21a4.36,4.36,0,0,0,2.52,1c2.55.36,4,.18,5.68-1.79a25.24,25.24,0,0,1,5.56-4.57,38.75,38.75,0,0,0,3.4-2.47c.25-.21.48-.43.71-.65,1.21-1.14,2.71-2.55,5.47-1.86a3.56,3.56,0,0,0,1.53-.24l-1.42-2.77,1.13-.68c3-1.83,3.5-1.89,7.05-.88l.17,0-.06-.25a2.47,2.47,0,0,0-.25-.49c-.09-.15-.19-.3-.27-.47l-.63-1.17,1.12-.71c2.52-1.59,4.41,0,5.32.77l.2.16.71-.67,2.33-2.21.9-.84a19.8,19.8,0,0,0,2.11-2.14,1.64,1.64,0,0,0,0-.68,16.25,16.25,0,0,0-.8-1.8,17.6,17.6,0,0,1-1-2.27,3.77,3.77,0,0,1,.75-3.13c.53-.72,1.1-1.4,1.64-2.06a29.19,29.19,0,0,0,1.9-2.44,3.22,3.22,0,0,1,2.43-1.65h0a3.27,3.27,0,0,1,2.49,1.66l.4.53,7.75-10.73a8.14,8.14,0,0,1,.08-1.9,3.79,3.79,0,0,1,.63-1.39l.16-.25a16.39,16.39,0,0,1,.09-3.21c.23-2.42.3-4-1.27-5.34a2.77,2.77,0,0,1-.19-3.42,3.05,3.05,0,0,1,2.89-.78,8.11,8.11,0,0,1,1.55.6L231,215c1.11-1.83,2.16-3.56,3.18-5.32a17.46,17.46,0,0,1,5.25-5.21,30.77,30.77,0,0,0,2.57-2l.14-.13a7.76,7.76,0,0,0,1.06-1.1l0,0c-4.24-3.57-4.91-7.74-2-12.39a1.66,1.66,0,0,1,.4-.85c.25-.28.5-.57.74-.87a10.37,10.37,0,0,1,2.8-2.63c1.14-.64,2.06.26,3,1.22a10.19,10.19,0,0,0,1.21,1.08,2.3,2.3,0,0,0,1,.29l.07-.07a2,2,0,0,1,2-.72c1.27.38,2.13-.14,3.55-1.11a12.1,12.1,0,0,1,2.22-1.29c1.52-.62,1.94-1.87,2.5-3.86a14,14,0,0,1,1.06-2.91,4.43,4.43,0,0,0,.16-.64c.13-.66.36-1.76,1.46-2a5.14,5.14,0,0,1,3.29.62,24.53,24.53,0,0,1,2.4,1.54l.43-.78c1.35-2.47,2.87-5.27,7.11-5.27h0a5.87,5.87,0,0,0,1.06-.83c.32-.28.64-.56,1-.79s.46-.37.69-.57a5.92,5.92,0,0,1,2.14-1.38c1.08-.33,1.31-.7,1.35-.8a1.38,1.38,0,0,0-.17-.93l-.44-.93.74-.7c.5-.48,1-.91,1.52-1.34a10.59,10.59,0,0,0,2.32-2.36,57,57,0,0,0,3.89-8.24,7.05,7.05,0,0,0-.5-1.42l-.08-.18a2.55,2.55,0,0,1-.35-.24c-.19-.14-.38-.28-.54-.43l-.79-.71,1.24-2.62,3.83,1.16,1-1.23a45.44,45.44,0,0,1,4.46-4.8c1.15-1,1.23-2,1.29-4,0-.24,0-.47,0-.7,0-1.52,0-3.23,1-4.5l.94-1.3c1.71-2.4,3.47-4.88,6.39-6.52A11.29,11.29,0,0,0,313,120a14.24,14.24,0,0,1,6.09-5.44,8.56,8.56,0,0,0,4.76-5.39,6.35,6.35,0,0,1,.36-.86,20.62,20.62,0,0,1-2.67-3.68,4.94,4.94,0,0,1-.66-1.91c-.89-.8-1.6-1.47-2.27-2.13l-.36-.37c-.46-.45-.91-.9-1.34-1.39a5.36,5.36,0,0,1-.72-1l-.1-.19a4.84,4.84,0,0,1-.38-1.09l0-.17a4.71,4.71,0,0,1,.17-2.31l0-.11a4.84,4.84,0,0,1,.51-1,4.94,4.94,0,0,1,3-2.06,5.23,5.23,0,0,1,2.11,0c.7.13,1.36.23,2,.33l.88.14c2.51-4.9,4.75-11.6,2.61-17.54-3.59-1.66-5.75-4.46-5.82-7.59a6.45,6.45,0,0,1,3.5-5.75c2.37-1.25,4.95-1,7.39-.62a4,4,0,0,1,2.28,1.24l.44-.21c1.54-2.64,2-5.86,2.51-9.25.25-1.74.51-3.53.93-5.24l-.7-.33.32-1.16a.37.37,0,0,0,0-.19l-.33-1a.74.74,0,0,0-.66-.52l-.61,0-.44-.43a.76.76,0,0,0-.69-.16c-.72.15-1.45.28-2.19.41a39.69,39.69,0,0,0-4.54,1,3.91,3.91,0,0,0-2,1.21l-.49.64-.8-.1c-1.82-.22-3.65-.5-5.22-.74s-3.31-.49-5.14-.72l-.41-.05L314,44c-2.55-2.09-3.37-2-3.42-2a1.4,1.4,0,0,0-.17.43h0l-2.74-.72h0a.53.53,0,0,0-.17-.58.76.76,0,0,0-.82-.08c-2.17,1.08-4.31.77-6.21.5a8.35,8.35,0,0,0-4.37.11,16.59,16.59,0,0,0-2.33,1.23l-1,.57-.29.16-.33,0L292,42.26l.09,1.41-1.84.11c-4.33.25-9.25.54-13.12,2l-.66-1.26.52,1.32c-.35.14-.69.29-1,.45l-.24.12c-.28.14-.56.31-.84.48l-.25.15a9.62,9.62,0,0,0-.94.7,5.68,5.68,0,0,1-.73.53l-.19.1a5.41,5.41,0,0,1-.56.28l-.27.09c-.21.07-.37.12-.54.16l-.28.05a4.92,4.92,0,0,1-.57.06h-.35l-.5,0-.35-.06a4.64,4.64,0,0,1-.5-.14l-.33-.12a4.86,4.86,0,0,1-.52-.26l-.26-.15a5.31,5.31,0,0,1-.72-.56,4.11,4.11,0,0,0-.61-.47l-.14-.09a3.57,3.57,0,0,0-.6-.28,4.4,4.4,0,0,0-.67-.16l.07-1.42-.18,1.41a5.51,5.51,0,0,0-.74,0,16.91,16.91,0,0,0-3.77.71c-.62.16-1.26.33-1.91.47a4.72,4.72,0,0,1-8-1,7.34,7.34,0,0,1-1.6-1.26,7.77,7.77,0,0,1-3.49-2,8.53,8.53,0,0,1-2.35-6v-.19a1.55,1.55,0,0,1,0-.17c0-.6,0-1.24.05-1.89a17,17,0,0,0-.41-5.85l-.12.16-1.13-1.24a.57.57,0,0,0-.46-.12.78.78,0,0,0-.59.31c-.29.44-.62.89-1,1.36a11.87,11.87,0,0,0-1.88,3.15,6.9,6.9,0,0,0-.21,2.12,8.26,8.26,0,0,1-.76,4,.81.81,0,0,0-.06.2l-.06.3-.18.25a28.54,28.54,0,0,1-2.1,2.61l-.08.09c-.16.17-.31.35-.47.51a18.75,18.75,0,0,1-1.45,1.32,5.14,5.14,0,0,1-.71.48l-.21.24A10,10,0,0,1,228.94,47a4.92,4.92,0,0,1-5.77-.77l-.07-.07A98.27,98.27,0,0,0,215.61,53c-2.25,2.19-4.58,4.45-7.08,6.49a4.85,4.85,0,0,1-5.79.61l-1.34-.9a4.86,4.86,0,0,1-2.38-1c-.74-.58-1.58-1.29-2.49-2-3.89-3.27-9.21-7.75-13.22-7.43-.87.07-1.68.16-2.43.25-3.32.38-6.18.72-10.21-1.61a4.76,4.76,0,0,1-.88-.65l-.55-.11c-1.7-.38-3.5-.86-5.36-1.44s-3.81-1.25-6-2.08c-1.28-.48-2.63-1-4.14-1.71l-.82-.38a4.79,4.79,0,0,1-3,.31A25.06,25.06,0,0,1,141,37.38c-.42-.21-.84-.45-1.24-.69a4.9,4.9,0,0,1-4.36.19l-.56-.24c-1.59-.7-3.57-1.58-4.68-1.13-.16.06-.63.25-1,1.22-1.09,2.6-3.45,3.88-5.87,3.19a5.14,5.14,0,0,1-3-2.55c0,1.46,0,3,.13,4.53.45,5.34.21,12.12-5.6,17.21a33.39,33.39,0,0,0-9.25,13.31c-1.53,3.93-2.89,7.14-4.25,10.1a6.76,6.76,0,0,1-3.07,3.39c-2.11.85-4.28,1.61-6.38,2.34-2.79,1-5.67,2-8.38,3.2-2.93,1.31-5.83,2.88-8.63,4.4-2,1.1-4.11,2.23-6.22,3.27-.94.47-1,.74-.7,2l.11.36a4.56,4.56,0,0,1,.24,2.64c-.39,1.32-.89,2.59-1.37,3.82-.25.64-.5,1.27-.73,1.92a7.05,7.05,0,0,1-3.82,4.35,63,63,0,0,0-19.79,14c-1,1-2.29,2.4-3.79,2.33-2.58-.1-5.18-.36-7.7-.62-1.46-.15-2.93-.3-4.4-.42l-.91-.08a10,10,0,0,0-3.56,0A25.32,25.32,0,0,0,11.55,136.19Zm199.9,113.06Zm32.19-59.38h0Zm-2.36-1.27h0Zm8.92-1.4ZM245.91,37.66h0Z"/></svg>