<svg id="Layer_1" data-name="Layer 1" xmlns="http://www.w3.org/2000/svg" viewBox="0 0 350 350"><defs><style>.cls-1{fill:#999;}.cls-2{fill:#f90;}</style></defs><title>M</title><path class="cls-1" d="M335.35,177.21c-.2-.63-1.28-1-2-1.45s-1.68-.4-1.86-.86c-.76-2-1.09-4.11-1.94-6a6.4,6.4,0,0,0-2.67-3.24,15.13,15.13,0,0,0-6-1.19c-1.92,0-3.13-.42-3.65-2.28s-1.35-3.36-3.75-3.34c-.66,0-1.54-1-1.9-1.68-.17-.36.49-1.42,1-1.77,1.89-1.22,1.48-2.6,1.07-4.49a7.34,7.34,0,0,1,1.15-4.9c.38-.62,2.38-.14,3.61-.37a10.74,10.74,0,0,0,3.83-1.19c2.56-1.66,3.71-5.17,7.6-5.25a2.43,2.43,0,0,0,2.1-3.47c-.4-1.18-.17-3.68.38-3.87a4.63,4.63,0,0,0,.58-.28,9.29,9.29,0,0,1-1.11-1,54.18,54.18,0,0,0,5.57-11.72c0-.13,0-.26,0-.38l0-.67a29.68,29.68,0,0,0,.73-5.23c-.08-8.66-2.52-13-11.38-16.54-1.31-.52-2.36-1.69-3.64-2.35A24.85,24.85,0,0,0,317,91c-4.36-.91-8.12-2.54-10.66-6.37-.11-.17-.24-.34-.37-.5-4-2.89-5.51-8-2-12.24a2.88,2.88,0,0,1,2.88-.76A7.39,7.39,0,0,1,309,72.35c.76-4.77-2.52-14.21-3.45-16.17l-1-2.08a3,3,0,0,1-4.35-.77c-2.64-4-2.68-10.37-5.89-13.65-4-4.08-9.22-1.63-13.71-3.2a5.78,5.78,0,0,1-3.55-3.32c-.81,0-1.6-.05-2.38,0l0-.12s0,0,0-.08A5,5,0,0,0,271,28.19c-2-.46-4.61.26-5.57,2.27a21.45,21.45,0,0,0-2.09,9.09,4.44,4.44,0,0,0,.17,1.19,14.72,14.72,0,0,0-.6,3.7,4.36,4.36,0,0,0,0,.79c-1.45.91-3.66.25-6.56-1.56s-6.16.08-7.24,2.95c-.49,1.3-.9,2.61-1.28,3.92-2.44,1.37-2.07,3.4-1.61,5.4-1.27,3.84-3,7.35-6.69,9.95-2.08,1.46-4.41,2.48-6.47,4l-.72.19c0,.11,0,.22,0,.33A11.21,11.21,0,0,0,231,71.84a17.15,17.15,0,0,0-.77-1.54v2.52a18.68,18.68,0,0,1-2.63,3.09c-2.62,2.23-3.06,2.59-6.94.1a16.2,16.2,0,0,1-1.81-1.41c.37-1.06.75-2.11,1.13-3.16l-1.11-.9-2.57,2.42c-.15-.06-.29-.12-.46-.17-3.2-1-5.74.12-8.47,1.23-3.57-.42-6.45.93-8.65,4.18l-1.42.1a4.39,4.39,0,0,0-3-1c-.27-.79-.48-1.59-.74-2.3-3.49,1.33-4.79,4-5.48,7.15a14.22,14.22,0,0,0-2.32,7.4l-6.18,3.06L179.19,97a8.6,8.6,0,0,0-.81,1.2,13.73,13.73,0,0,0-1,2.42c0,.44-.08.89-.13,1.34-.42,3.62-.73,6.61-2.06,8.67a10.48,10.48,0,0,1-2,3.78,10.19,10.19,0,0,1-1.38.09c-5.36-.1-10.63-.11-15.91,1.47a33.1,33.1,0,0,1-5.54,1.22,44.21,44.21,0,0,1-5-1.77,16.51,16.51,0,0,1-5.71-1.62,16.88,16.88,0,0,1-7.06-6.72,28.16,28.16,0,0,1-3.11-3.52,10.87,10.87,0,0,1-.12-2.34c0-.48-.84-1.48-1.22-1.44s-.93,0-1.41.05a5.06,5.06,0,0,0-6.51.38,32,32,0,0,0-5.37,7,7.35,7.35,0,0,0-2-1.63,9,9,0,0,0-.57,1.67,7.43,7.43,0,0,0,0,2.42c.15.6.26,1.2.36,1.79-1.13,2.38-2.16,4.81-3.24,7.22q-.57,1.28-1.18,2.54a39.41,39.41,0,0,1-2.52,18.14,4.34,4.34,0,0,1-1.69-.38,9.45,9.45,0,0,0,.62,2.83,2.9,2.9,0,0,0,.43,2.64,7.19,7.19,0,0,1-.36,1.66c-3.34,9.44-6.72,18.86-10.27,28.22A18,18,0,0,1,91,179.48a12.58,12.58,0,0,0,.67,17.14c1.15,1.11,2.2,2.32,3.08,3.26-1.26,5.68-5.41,5.55-9.68,5.46-5.55-.11-11.13.33-16.65-.07-4.61-.34-7.12,1.52-9.39,5.34-4.21,7.08-8.21,14.5-16.07,18.49a2.16,2.16,0,0,0-.67.77c-2.68,4.07-5.38,8.13-8,12.22-4.69,7.22-9.77,14.22-13.88,21.76-2.89,5.3-4.34,11.37-6.57,17-2.89,7.36-2.86,7.12,4.37,10,2.66,1,4.81,3.38,7.18,5.15.45.33.75.95,1.24,1.12,5.18,1.88,10.42,3.59,15.56,5.57,6.23,2.4,12.47,4.84,18.55,7.59C68.86,314,76.88,318,85.16,321.95l11.45-20.87c9.91,5.39,20.34,4.34,30.12,5.53a8.65,8.65,0,0,0,3.36,3.68c5.29,2.78,12.38.52,16.76,6a1.15,1.15,0,0,0,1,.26c4.3-1,9.2-1.18,12.75-3.43,4.52-2.86,8.21-7.22,11.7-11.41a3.74,3.74,0,0,1,3.56-1.62c8.05.08,16.1.07,24.15.18.94,0,1.89.59,3.77,1.23v.07c-4.06,1.51-4.49,3.3-2.07,5.6,1.46,1.38,2.82,2.88,4.39,4.13s3.64,2.05,5,3.5c3.07,3.24,6.15,6.12,11.1,5.61a41.65,41.65,0,0,1,5.55,0c4.18.13,8.18-1,12.23-1.55,7.64-1,15.47-.44,23.21-.65a7.74,7.74,0,0,0,3-1.19c1.32-.68,2.53-2,3.88-2.11,4.24-.5,8.53-.52,12.79-.91.93-.09,1.78-.95,2.67-1.45-.78-.87-1.41-2.21-2.36-2.5a12,12,0,0,0-5.14-.32c-2.39.37-2.77-.55-2.65-2.64.38-6.5.74-13,.81-19.51,0-1.8-1.2-3.58-1.49-5.43s-1-4.47-.08-5.87c1.63-2.6,1.21-4.63.18-7.09-1.66-3.94.12-6.8,4.19-7.1a8,8,0,0,0,1.58-.45l-.68-.55a40.47,40.47,0,0,1,3.17-5.21c3-3.64,6.82-6.75,9.25-10.72,4.8-7.84,12.17-13.16,18-19.92,1-1.11,1.35-2.71,2.17-4a10.44,10.44,0,0,1,2.74-3.33c2.24-1.39,4.61-2.42,4.12-5.75a11,11,0,0,1,.31-2.74c4.46.15,6.12-2.83,7.49-6.3,2.92.48,4.74-1,5.43-3.61a67.1,67.1,0,0,0,1.36-8c.21-1.54-.91-3.63,2.08-3.79.49,0,1.38-1.7,1.26-2.49A54.93,54.93,0,0,0,335.35,177.21Z"/><path class="cls-2" d="M85.76,323.8l-1.21-.58-7.42-3.58c-5.82-2.82-11.33-5.48-17-8C54,308.85,47.9,306.46,41.63,304c-3.11-1.2-6.31-2.31-9.42-3.4-2-.71-4.09-1.43-6.12-2.17a3.23,3.23,0,0,1-1.32-1,2.86,2.86,0,0,0-.28-.29c-.75-.56-1.48-1.17-2.18-1.76a18.1,18.1,0,0,0-4.67-3.2L17,292c-7.3-2.88-7.65-3.73-4.63-11.4l.07-.17c.76-1.95,1.45-4,2.12-6a70.44,70.44,0,0,1,4.53-11.24c3-5.42,6.44-10.63,9.82-15.67,1.38-2.06,2.76-4.12,4.11-6.19q3.18-4.9,6.41-9.77L41.15,229a3.09,3.09,0,0,1,1.16-1.17C49.27,224.3,53,218,57,211.31l.84-1.42c2.76-4.64,5.88-6.39,10.71-6,3.28.24,6.67.17,10,.11,2.17,0,4.41-.08,6.62,0h.12c4.29.09,6.88-.05,8-3.65l-.3-.33c-.67-.73-1.42-1.55-2.2-2.3a14,14,0,0,1-.75-19.09,17.06,17.06,0,0,0,3.14-4.76c3.72-9.81,7.28-19.75,10.26-28.19a5.4,5.4,0,0,0,.22-.87,4.33,4.33,0,0,1-.44-2.89,10.34,10.34,0,0,1-.56-2.83l-.1-2.32,2.11,1,.19.08a38.17,38.17,0,0,0,2-16.45l0-.38.16-.34q.6-1.24,1.17-2.51l1.05-2.37c.65-1.47,1.31-3,2-4.47-.08-.44-.15-.84-.26-1.24a7.29,7.29,0,0,1-.06-2.55l0-.34a4.47,4.47,0,0,1,.38-1.31c.08-.2.17-.42.27-.71l.53-1.5,1.43.7a6.14,6.14,0,0,1,1.08.68,31.9,31.9,0,0,1,4.69-5.81,6.45,6.45,0,0,1,7.93-.79c.29,0,.57,0,.85,0a2.18,2.18,0,0,1,1.69.72,3.23,3.23,0,0,1,1.07,2.2,9.77,9.77,0,0,0,.06,1.71,27.09,27.09,0,0,0,2.75,3.06l.14.14.1.17a15.38,15.38,0,0,0,6.47,6.16,15,15,0,0,0,5.22,1.48l.21,0,.19.08a43,43,0,0,0,4.61,1.63,32.22,32.22,0,0,0,5-1.13c5.33-1.6,10.55-1.64,16.35-1.53.21,0,.42,0,.63,0a9.68,9.68,0,0,0,1.4-2.86l.16-.34c1.11-1.72,1.43-4.51,1.81-7.74l0-.32c0-.44.09-.87.13-1.3l.06-.29a15,15,0,0,1,1.07-2.67,8.68,8.68,0,0,1,.69-1.06l.4-4.77,6.18-3.06a15.07,15.07,0,0,1,2.34-7.08c.67-2.87,2-6.26,6.29-7.88l1.34-.51.5,1.34c.16.43.3.89.45,1.36l0,.07a5.61,5.61,0,0,1,2.43.92H198a9.86,9.86,0,0,1,9.21-4.26c2.64-1.08,5.37-2.18,8.79-1.23l1.95-1.84.9-.85L221.66,71l-.51,1.42-.63,1.76a10,10,0,0,0,.92.67c3,1.93,3,1.93,5.26,0a15.15,15.15,0,0,0,2.13-2.48V65l2.25,3.89,1.46-.39c1.07-.75,2.18-1.39,3.27-2s2.06-1.17,3-1.83c3.42-2.4,4.94-5.66,6-8.86-.4-1.79-.79-4.43,1.87-6.24.31-1,.7-2.27,1.16-3.5a7.13,7.13,0,0,1,4.28-4.26,5.83,5.83,0,0,1,5,.61c2.24,1.39,3.56,1.8,4.36,1.75a16.14,16.14,0,0,1,.54-3.51,5.27,5.27,0,0,1-.12-1.17,22.74,22.74,0,0,1,2.22-9.67c1.3-2.74,4.66-3.61,7.16-3a6.25,6.25,0,0,1,4.57,4.9l1.23,0,.87.05.35.8a4.37,4.37,0,0,0,2.72,2.54,15.28,15.28,0,0,0,4.89.55c3,0,6.49.05,9.37,3,2,2.06,2.89,5.05,3.74,7.95a22,22,0,0,0,2.32,5.91,1.62,1.62,0,0,0,1.09.75,1.57,1.57,0,0,0,1.21-.32l1.39-1.08,1.75,3.67c1,2,4.42,11.72,3.57,17L310,74.89l-1.88-1.41a6,6,0,0,0-1.82-1,1.52,1.52,0,0,0-1.33.31,6.53,6.53,0,0,0-1.58,5A7.8,7.8,0,0,0,306.77,83l.18.13.22.29c.11.15.23.3.33.45,2,3,4.93,4.76,9.77,5.77a20,20,0,0,1,5.28,2.21l1.09.58a12.69,12.69,0,0,1,1.81,1.21,8,8,0,0,0,1.69,1.08c9,3.54,12.18,8.21,12.27,17.85a21.64,21.64,0,0,1-.53,4.28q-.1.52-.2,1.05l.08,1.15-.09.26a55.7,55.7,0,0,1-5.08,11l.11.08,1.89,1.36-2.2,1.12-.15.08a5.6,5.6,0,0,0,0,2.29,4.06,4.06,0,0,1-.4,3.72,3.85,3.85,0,0,1-3,1.62c-1.93,0-3,1.18-4.26,2.62a13.4,13.4,0,0,1-2.59,2.4,11.15,11.15,0,0,1-4.1,1.35l-.24,0a9.39,9.39,0,0,1-2,.08c-.27,0-.64,0-.88,0a5.78,5.78,0,0,0-.77,3.51l.06.27c.4,1.79.89,4-1.74,5.71a1.56,1.56,0,0,0-.28.33,2.35,2.35,0,0,0,.51.51c3.78,0,4.62,3.07,5,4.37.24.86.52,1.25,2.18,1.25H321a16.52,16.52,0,0,1,6.49,1.31c1.84.8,3,3,3.39,4a25,25,0,0,1,1.15,3.47c.22.79.42,1.53.68,2.25l.23.07a5.28,5.28,0,0,1,1.15.44l.47.25a3.8,3.8,0,0,1,2.19,2h0a56,56,0,0,1,2,8.21,4.87,4.87,0,0,1-1.1,3.26,2.07,2.07,0,0,1-1.49.86,1.61,1.61,0,0,0-.78.16,6.33,6.33,0,0,0,0,.92,7.17,7.17,0,0,1,0,1.49l-.17,1.25a55.84,55.84,0,0,1-1.22,6.92c-.8,3-2.92,4.75-5.76,4.75H328c-1,2.43-2.87,5.77-7.21,6.17a3.9,3.9,0,0,0-.11,1.15c.58,3.93-2,5.5-4.13,6.76l-.65.39a8,8,0,0,0-2,2.44l-.29.46a11.92,11.92,0,0,0-.78,1.53,10.18,10.18,0,0,1-1.51,2.6c-2.19,2.52-4.6,4.86-6.93,7.12-3.94,3.83-8,7.79-11,12.61a42.48,42.48,0,0,1-5.86,7.05c-1.19,1.24-2.42,2.52-3.51,3.83A20.74,20.74,0,0,0,282,260l-.36.65,1.83,1.49-2.58.76-.42.14a5.44,5.44,0,0,1-1.46.36,3.83,3.83,0,0,0-3.13,1.49,4.06,4.06,0,0,0,.14,3.65c1,2.3,1.83,5-.28,8.4-.45.72-.12,2.56.12,3.91.06.34.12.67.17,1a11,11,0,0,0,.65,2.09,9.69,9.69,0,0,1,.86,3.58c-.07,6.34-.41,12.62-.81,19.58a4,4,0,0,0,0,1.2,3,3,0,0,0,1,0,13.3,13.3,0,0,1,5.76.36,5,5,0,0,1,2.41,2.13,9.67,9.67,0,0,0,.6.78l1.17,1.31-1.53.87c-.24.14-.48.31-.72.48a5.29,5.29,0,0,1-2.53,1.16c-1.89.17-3.79.28-5.64.37-2.34.13-4.77.25-7.11.53a5.11,5.11,0,0,0-1.86,1,13.51,13.51,0,0,1-1.54,1l-.52.28a6.94,6.94,0,0,1-3.07,1.07c-2.59.07-5.22.06-7.77,0a118.52,118.52,0,0,0-15.3.59c-1.3.17-2.64.41-3.94.64a40.13,40.13,0,0,1-8.51.91l-.8,0a33.24,33.24,0,0,0-4.56,0c-5.51.56-9-2.54-12.27-6a12,12,0,0,0-2.56-1.84,20.13,20.13,0,0,1-2.31-1.53,39.78,39.78,0,0,1-3.14-2.9c-.44-.44-.88-.88-1.33-1.31-1.53-1.46-2.14-2.83-1.86-4.2a3.87,3.87,0,0,1,1.52-2.25,1.67,1.67,0,0,0-.39-.06c-4.58-.06-9.16-.09-13.74-.11-3.47,0-6.94,0-10.4-.07a2.37,2.37,0,0,0-2.46,1.11c-3.19,3.84-7.17,8.62-12,11.7-2.72,1.73-6.06,2.3-9.28,2.85-1.3.22-2.64.45-3.89.76a2.52,2.52,0,0,1-2.41-.75c-2.29-2.86-5.55-3.28-9-3.74a21.25,21.25,0,0,1-7.31-1.87,9.37,9.37,0,0,1-3.57-3.61c-2.27-.25-4.55-.39-7-.54-7.14-.43-14.5-.88-21.72-4.42Zm-58.62-28c2,.73,4,1.43,6,2.13,3.12,1.09,6.35,2.22,9.5,3.43,6.05,2.33,12.48,4.84,18.63,7.62,5.72,2.58,11.5,5.38,17.08,8.08l6.2,3L96,299.15l1.24.67c7.06,3.84,14.55,4.29,21.79,4.73,2.58.16,5.24.32,7.83.63l.72.09.35.64a7.24,7.24,0,0,0,2.77,3.11,18.86,18.86,0,0,0,6.36,1.57c3.58.47,7.63,1,10.61,4.49,1.27-.3,2.58-.52,3.85-.74,3.09-.53,6-1,8.25-2.46,4.48-2.84,8.3-7.43,11.37-11.12a5.08,5.08,0,0,1,4.67-2.13q5.19.05,10.39.07c4.59,0,9.18,0,13.77.11a7.25,7.25,0,0,1,2.61.7c.45.18,1,.39,1.61.61l1.17.4-.4,2-.75.35c-2.4.9-2.61,1.59-2.63,1.67,0,.23.2.78,1,1.58.47.44.92.9,1.38,1.35a36.88,36.88,0,0,0,2.92,2.7,17.87,17.87,0,0,0,2,1.31,14.24,14.24,0,0,1,3.17,2.32c3,3.2,5.68,5.61,9.92,5.17a36,36,0,0,1,5-.05l.79,0a37.52,37.52,0,0,0,7.92-.87c1.33-.24,2.71-.49,4.09-.67a119.67,119.67,0,0,1,15.67-.61c2.52,0,5.13,0,7.68,0a5,5,0,0,0,1.8-.73l.57-.31a11.22,11.22,0,0,0,1.22-.78,7.12,7.12,0,0,1,3.15-1.48c2.43-.29,4.9-.42,7.29-.55,1.82-.1,3.7-.2,5.53-.37a2.21,2.21,0,0,0,.76-.38,3.07,3.07,0,0,0-.73-.8,10.56,10.56,0,0,0-4.5-.28,4,4,0,0,1-3.33-.64,4.11,4.11,0,0,1-1-3.48c.4-6.92.74-13.16.8-19.44A7.6,7.6,0,0,0,274,285a13.22,13.22,0,0,1-.8-2.66c0-.3-.1-.61-.16-.93-.35-2-.76-4.27.28-5.91,1.27-2,1-3.53.07-5.79a6.75,6.75,0,0,1,.06-6.23,6.37,6.37,0,0,1,4.92-2.79l.21-.36c.32-.53.61-1.07.91-1.62a23.21,23.21,0,0,1,2.39-3.77c1.15-1.39,2.42-2.71,3.65-4a39.8,39.8,0,0,0,5.49-6.57c3.13-5.13,7.34-9.21,11.42-13.16,2.29-2.22,4.66-4.52,6.76-6.94a8,8,0,0,0,1.07-1.91,14.11,14.11,0,0,1,1-1.91l.28-.44a10,10,0,0,1,2.89-3.32l.68-.42c2.09-1.26,3.08-1.95,2.79-3.92a6.84,6.84,0,0,1,.16-2.3c.05-.27.11-.55.14-.83l.16-1.28,1.29,0c3.37.14,4.67-1.73,6.12-5.4l.42-1.06,1.13.18c2,.33,3.29-.51,3.83-2.57a54,54,0,0,0,1.15-6.57l.17-1.26a5,5,0,0,0,0-.91,3.86,3.86,0,0,1,.69-3,3.45,3.45,0,0,1,2.28-1.05,2.71,2.71,0,0,0,.38-1,53.22,53.22,0,0,0-1.81-7.6,6.42,6.42,0,0,0-.81-.46l-.59-.31a3.89,3.89,0,0,0-.54-.18,2.59,2.59,0,0,1-1.93-1.39,30.15,30.15,0,0,1-.91-2.89,22.59,22.59,0,0,0-1-3.08,5.18,5.18,0,0,0-1.94-2.52,13.79,13.79,0,0,0-5.46-1.07c-1.89.06-4.2-.35-5-3.32-.5-1.8-1-2.3-2.32-2.3h-.06c-1.44,0-2.68-1.48-3.17-2.48-.67-1.38.82-3.12,1.53-3.58.91-.59.92-.89.51-2.72l-.06-.28a8.78,8.78,0,0,1,1.33-5.95c.67-1.07,2-1,3.19-1a7.49,7.49,0,0,0,1.36,0l.24,0a9,9,0,0,0,3.08-.94,11.09,11.09,0,0,0,2-1.92c1.4-1.55,3.15-3.49,6.31-3.55a1,1,0,0,0,.75-.42,1.3,1.3,0,0,0,0-1.18,7.61,7.61,0,0,1,.18-4.59l-.79-.79.61-1a52.77,52.77,0,0,0,5.33-11.14l-.06-.95,0-.16c.08-.43.16-.85.23-1.25a19.37,19.37,0,0,0,.48-3.72c-.08-8.54-2.53-12.1-10.48-15.24a10.13,10.13,0,0,1-2.36-1.45,10.52,10.52,0,0,0-1.41-1l-1.12-.6a17.69,17.69,0,0,0-4.52-1.93c-3.75-.78-8.44-2.28-11.55-7l-.19-.26a10.59,10.59,0,0,1-4.32-6.95A9.3,9.3,0,0,1,302.81,71a4.28,4.28,0,0,1,4.43-1.21l.44.16c-.25-4.68-2.65-11.59-3.41-13.18l-.38-.79a4.33,4.33,0,0,1-1.86.11,4.44,4.44,0,0,1-3-2,24.39,24.39,0,0,1-2.68-6.68c-.78-2.68-1.52-5.2-3-6.76-2.06-2.11-4.52-2.13-7.37-2.15a17.59,17.59,0,0,1-5.8-.71,7.14,7.14,0,0,1-4-3.27c-.47,0-1,0-1.44,0l-1.21,0-.29-1.54a3.65,3.65,0,0,0-2.52-3.5c-1.42-.32-3.34.16-4,1.49a20,20,0,0,0-2,8.5,3,3,0,0,0,.12.81l.1.38-.11.38a13.33,13.33,0,0,0-.54,3.35,2.94,2.94,0,0,0,0,.54l.13.91-.78.49c-2.48,1.55-5.79-.15-8.06-1.56a3,3,0,0,0-2.63-.33,4.34,4.34,0,0,0-2.54,2.57c-.51,1.36-.94,2.75-1.25,3.82l-.16.55-.5.28c-1.38.78-1.44,1.6-.92,3.84l.09.39-.13.38c-1.2,3.6-3,7.68-7.22,10.66-1.06.74-2.16,1.37-3.23,2A33.57,33.57,0,0,0,234,71l-.62.46a9.84,9.84,0,0,0-1.27,1.3l-1,1.3A17.39,17.39,0,0,1,228.53,77c-3.12,2.66-4.29,3-8.63.21A16.37,16.37,0,0,1,218,75.76l-.85-.73.32-.92.19-.55-.15.14-.93.88-1-.38-.24-.09c-2.59-.82-4.73.05-7.2,1.06l-.64.26-.36,0c-3.09-.37-5.41.77-7.31,3.56l-.38.56-.67.06-1.47.1-.57,0-.43-.37a3,3,0,0,0-2.08-.67l-1,0-.34-1c-.09-.25-.17-.51-.25-.76C191,78,190,79.69,189.43,82.42l-.06.29-.17.24a12.76,12.76,0,0,0-2.06,6.67l-.06.8-6.18,3.07-.33,4-.26.33a7.15,7.15,0,0,0-.68,1,11.87,11.87,0,0,0-.82,2c0,.4-.08.81-.12,1.21l0,.32c-.4,3.5-.75,6.54-2.14,8.8a11.7,11.7,0,0,1-2.24,4.1l-.36.41-.54.06a11.16,11.16,0,0,1-1.57.1c-5.54-.1-10.54-.07-15.48,1.42a34.31,34.31,0,0,1-5.77,1.27l-.28,0-.27-.08a45.7,45.7,0,0,1-5-1.75,17.74,17.74,0,0,1-6-1.74,18.4,18.4,0,0,1-7.55-7.1,29.08,29.08,0,0,1-3.13-3.56l-.2-.27-.06-.33a12.26,12.26,0,0,1-.15-2.42l-.12-.15-1.08,0h-.49l-.39-.3a3.65,3.65,0,0,0-4.66.28,30.63,30.63,0,0,0-5.13,6.71l-1,1.64-1.3-1.37-.19-.2a4.36,4.36,0,0,0,0,1.33c.17.68.29,1.36.38,1.91l.07.44-.19.4c-.75,1.58-1.47,3.22-2.17,4.8l-1.06,2.39q-.51,1.13-1,2.24a40.62,40.62,0,0,1-2.65,18.4l-.37.91-.85,0c.05.17.12.35.18.54l.17.46-.15.46a1.48,1.48,0,0,0,.23,1.38l.31.43-.05.53a8.54,8.54,0,0,1-.43,2C103,155,99.44,165,95.7,174.79a19.69,19.69,0,0,1-3.65,5.62,11.17,11.17,0,0,0,.59,15.19c.84.81,1.62,1.67,2.31,2.42l.81.88.51.55-.16.73c-1.5,6.76-6.75,6.66-11,6.57H85c-2.16,0-4.37,0-6.51,0-3.35.06-6.8.13-10.22-.12-3.76-.27-5.86.94-8.07,4.66l-.84,1.41c-4,6.71-8.07,13.65-15.71,17.57a2.75,2.75,0,0,0-.16.23l-1.69,2.57q-3.21,4.87-6.4,9.75c-1.35,2.09-2.74,4.16-4.13,6.23-3.34,5-6.8,10.13-9.69,15.44a68.24,68.24,0,0,0-4.33,10.79c-.68,2-1.38,4.09-2.17,6.1l-.07.17C14,284.33,13.2,286.3,13.47,287s2.08,1.35,4.61,2.35l.6.24a20.42,20.42,0,0,1,5.45,3.67c.7.59,1.37,1.15,2,1.66a4.68,4.68,0,0,1,.72.71Zm16.46-65.48h0Zm.13-.09ZM334,177.63h0Zm-1.22-44.46h0Z"/></svg>