<svg id="Layer_1" data-name="Layer 1" xmlns="http://www.w3.org/2000/svg" viewBox="0 0 350 350"><defs><style>.cls-1{fill:#999;}.cls-2{fill:#f90;}</style></defs><title>M</title><path class="cls-1" d="M327.87,282.12l-5.93,1-3-4.47-4.82-40.23h-1.69v-4.86c0-2.94-4-9.63-5.37-10.47-.16-.1-1-.7-1.89-1.34-6.35-4.54-10.93-7.68-12.6-8.22-1.38-.45-1.55-.84-1.55-.86s0-.22.17-.56l.84-1.55-1.71-.44c-5.31-1.36-10.92-6.68-11-6.73l-1-.92-2.48,2.42-6.88-5.7,34.15-39.74a11.66,11.66,0,0,0,1.47-2.91c.25-.67,1.54-1,2.09-1.08l1.2-.12.1-3.18a16,16,0,0,1,.57-2.6,6.2,6.2,0,0,0,.23-2.77,4.36,4.36,0,0,1,0-.69,4.91,4.91,0,0,0-.31-1.85,4.24,4.24,0,0,1-.26-1.24,14.76,14.76,0,0,0-.93-3.94l.59-6.47-2.38-3.11-.12-1.12,3.92-.09,1.64-.08-.34-1.61a1.85,1.85,0,0,1,0-.65,3.66,3.66,0,0,1,.94.09l1.48.35.2-1.5s.09-.65.12-1.42a7.36,7.36,0,0,1,1.32,0l1.28.11.2-1.27c.13-.84.31-1.83.44-2.45a8.56,8.56,0,0,1,1,.14l1.58.32.32-6.75,5.28,1.27.56-2.46,1.57-.3v-4l.33-1c1.23-.53,2.52-1.06,2.8-1.13a1.55,1.55,0,0,0,1.11-.94c.54-1.31-.84-3.64-1.23-4.26a31.58,31.58,0,0,1-.15-5.95l.06-1.27-2.16-.26V76.77l2.77-.25.35-16-9-16.7-18.94,1.27,2.44,1.73-23.74,1.33v1.05L267,48.38a30.11,30.11,0,0,1-4.13-3.47l-.36-.72-.68,0a14.58,14.58,0,0,1-2.33-1.76l-.37-.33-.93,0,.07-.65-.8-.44s-.5-.28-.67-.39l-.31-.22c-.45-.33-.89-.64-1.25-.88l.39-1.45L254,37.78a3.36,3.36,0,0,1-.17-.89,3.63,3.63,0,0,1,.79-1.5l1.9-2.27-25.66.11-2.09,0,.82,1.87a2,2,0,0,0-.92,1.07A2.17,2.17,0,0,0,227,38.06v0a1.83,1.83,0,0,0-1.17.49,1.9,1.9,0,0,0-.55,1,1.53,1.53,0,0,0-.56.23,1.68,1.68,0,0,0-.72,1.43,2.17,2.17,0,0,0-1.27,1,2.49,2.49,0,0,0-.3,1.05l-.32.17-.05,0a3.36,3.36,0,0,0-.42,0,2.93,2.93,0,0,0-1.13.43,1.84,1.84,0,0,1-.31.16.92.92,0,0,1-.64,0,2.47,2.47,0,0,0-.6-.35,1.53,1.53,0,0,0-1.25,0,1.7,1.7,0,0,0-.87,1.11l-.21.06-.33.11a5.19,5.19,0,0,0-1.83,1.24l-.42-.25-.18-.11c-.92-.55-2.39-.33-3.61,0-.4-.36-1-1.06-1.36-1.43s-.65-.73-.87-.93-1-.85-6.22-.74c-1.82-.67-5.23-1.93-7-2.47a7.66,7.66,0,0,1,.37-.87l1-1.89-20.88-1c-4.18-2.78-4.81-2.63-5.32-2.51l-.65.18-.3.52-9,16.05L158.47,50l-.1-.06C155.78,48.61,133,36.58,130,35.74c-2.63-.74-6.23-1.42-7.13-1.59-3.13-1.59-7-3.39-8.76-3.6l.09-.57-6.59-3.34-4.82,6.8v.44a19.63,19.63,0,0,1-.15,2.74,22.31,22.31,0,0,1-1.72,2.79c-.43.63-.87,1.3-1.29,2s-.74,1.08-1.15,1.65a18.34,18.34,0,0,0-3.35,6.26A14.21,14.21,0,0,1,92.62,54L80.14,51.61l-5.9,6.28-.31,8.59,1.31.47L74,71.1h3c.14.85.33,2,.44,2.66a22,22,0,0,1,.29,2.78h0l-1.49-.33L74.69,89.41,70,103.28l-3.43,2.29-4.4,4.1-5.76,10-.13,15.37-.91,7-3.19,1.63-.19.48c-.39,1-2.35,6-2.62,7.38a.77.77,0,0,1-.51.58l-1.3.33.6,2.73.09.12-.43.05-.07,1.15c0,.09-.13,2.15-.13,3.08a16.92,16.92,0,0,1-.12,1.74v.22a28.84,28.84,0,0,1-.37,4.53l0,.24,0,.24c.2,1,0,1.09-.36,1.27a1.66,1.66,0,0,0-.9,1,50.43,50.43,0,0,0-.68,6.06c0,1-.21,3.59-.34,5.07l-8.33,1-.29.8c-1.64,4.5-9.4,21.21-10.65,23.82l-.63,1.33,1,.41a5.77,5.77,0,0,1-.22,1.5,2.16,2.16,0,0,0-.07.36,8.22,8.22,0,0,1-.26,1.14l-.31-.08L23,209.52l.4,2.79a28.75,28.75,0,0,1-2.1,5.58l-.89,1.91,2.1,0c1.09,0,2.37.09,3.2.17-.09.27-.22.6-.36.92l-1.51.35v1.09s0,.44,0,1a2.93,2.93,0,0,0-2.37.51L20.15,223l-2.24,4.48.57.47c-.11.29-.22.56-.32.78l-.41-.28-2.14,1.07.06.91c.1,1.52-1.45,5.87-2.66,8.8l-3-.15v3.55L20,248l2.48-4.43,1.21-2.49v.53l5.22,2.11,1.49,2,3.5,1.83,2.32,0,4.5,3.22c-1.23,2.26-1.23,2.61-1.23,2.91,0,1.1,0,1.23,17.79,10l-.47,1.48-3,1.4-1.16.48.43,1.19c0,.16.07.57-.53,1a6.4,6.4,0,0,0-2.24,2.37l-.15.36.07.38c.2,1.15.59,4.54,0,6.38a12.33,12.33,0,0,0,.33,6.47v3.55l2.84,1.49.61,2.88H67.23a16.24,16.24,0,0,1-.85,2.66,9.69,9.69,0,0,0-.6,4.54l-2.1,1.24.18,3.23,19.15.73.82-3.8,2.54.15a2.88,2.88,0,0,0,.34,1.56,2.6,2.6,0,0,0,2.14,1.27c1.77.16,12.72.58,16.58.72v3.17h5.81V305.7l1.31-.66-2.86-4.94c3.84.45,4,.45,4.05.45a13.58,13.58,0,0,0,2.11-.34l.21,0,5-2.68.71-1.63,2.76.07,4.29-15.58,17.95-12.27,3.58-1.14,10.88.54a45.39,45.39,0,0,0-4.12,6.19c-1.63,3-3.72,6.55-3.23,10a1.14,1.14,0,0,0,.26.58c-2,4.51-4,9-7.42,12.64a1.47,1.47,0,0,0,.64,2.43,14.49,14.49,0,0,0,3.47.28c.26,0,7.79,0,4.65,2.55a1.46,1.46,0,0,0,.64,2.43l2.74.54c-1.58,2.14-2.8,4.55-2.26,7.31.66,3.37,3.28,4.82,6.51,4.59a50.86,50.86,0,0,0,7-1.46c2.61-.57,5.84-.75,8.25-1.9,2.14-1,3-3.12,1.32-5s-3.8-.76-5-4c-.82-2.26-.06-7.25.7-9.32,1.12-3.06,5.19-3.3,4.72-7-.35-2.78-2.17-5-2-8,.16-2.35,2-5,1-7.42a3,3,0,0,0-.68-1,4.43,4.43,0,0,1-4.46-2.3c-3.57-6-1.8-12.57-3.4-19-1.32-5.35,6-8.5,8.87-3.74,2.16,3.63,7.62,2.76,11.22,4l.5.2a8.31,8.31,0,0,1,1.15-1.17l3.75-1.72,2.57-1.4,1.75-6.15.74,1.6,4.28,5.41,9.44,0,1-1.53h7.83l.93.57-4.55,6.71c-.11.17-.22.32-3.43,9l-4.2,9.93-2.22,7.54,0,.17c-.3,1.9-.65,4-.79,4.7-.36.48-1.29,1.67-1.29,1.67L207,287.74l4.31,1.76,1.82,1.4,14.11,1.44.48.65.92,14.25,4.77,1.73h13.87l7.4-1,20.75.57,2.59-.32.83,2.24-2.08,10.47,8.45,2.45,7.09-8.61,7.41-.8,5.45,1.91,1.65,2.48,12.91.71L340,294.12ZM108.47,304v1.83h-.31V303l.52.9Z"/><path class="cls-2" d="M285.67,325l-10.59-3.07,2.26-11.36-.3-.81-1.58.2-20.74-.57-7.47,1H233.13l-5.87-2.13-.94-14.58-13.76-1.41-2-1.53-5.86-2.4,2.26-2.91,1.08-1.4c.15-.81.44-2.54.72-4.32l.06-.27,2.29-7.78,4.2-9.93c3.25-8.78,3.34-8.91,3.56-9.24l3.45-5.09h-5.68l-1,1.52-10.92,0-3.87-4.88-1,3.57-3.46,1.86L193.09,251c-.06.07-.33.34-.8.87l-.69.8-1-.43-.38-.15a19.67,19.67,0,0,0-3.63-.7c-3.07-.41-6.54-.87-8.35-3.91a3.23,3.23,0,0,0-4.17-1.36,3.35,3.35,0,0,0-2.1,4,39.31,39.31,0,0,1,.88,7.74c.18,3.85.34,7.49,2.36,10.9a3,3,0,0,0,3.08,1.61l.68-.08.48.48a4.38,4.38,0,0,1,1,1.46c.82,2,.2,4-.34,5.71a11.07,11.07,0,0,0-.57,2.35,9.61,9.61,0,0,0,.91,4.11,15.36,15.36,0,0,1,1,3.63c.37,3-1.48,4.42-2.83,5.49a5.45,5.45,0,0,0-2,2.21c-.72,2-1.33,6.58-.69,8.35a2.44,2.44,0,0,0,1.92,1.84,6.1,6.1,0,0,1,2.8,1.75,4.42,4.42,0,0,1,1.16,3.83A5,5,0,0,1,179,315a22.62,22.62,0,0,1-6.11,1.57c-.87.14-1.69.27-2.44.44s-1.37.32-2.07.5a29.27,29.27,0,0,1-5.14,1c-4.18.3-7.25-1.91-8-5.73a9.47,9.47,0,0,1,1.31-6.6l-.67-.13a2.82,2.82,0,0,1-2.13-2.13,2.75,2.75,0,0,1,.57-2.5,16.72,16.72,0,0,0-3.44-.32,15.48,15.48,0,0,1-3.71-.3,2.61,2.61,0,0,1-2.07-1.79,3,3,0,0,1,.63-3c3-3.14,4.85-7,6.88-11.61a2.52,2.52,0,0,1-.1-.43c-.54-3.77,1.5-7.48,3.14-10.46l.25-.45a43.7,43.7,0,0,1,2.64-4.22l-8-.39-3.14,1L130,281.24l-4.45,16.14-2.92-.07-.53,1.21-5.62,3-.42.08a12.87,12.87,0,0,1-2.37.37c-.12,0-.21,0-1.41-.13l2.2,3.8-1.88.94V310H104v-3.22c-4.91-.18-13.68-.53-15.29-.67a4.06,4.06,0,0,1-3.24-2,3.91,3.91,0,0,1-.38-.92h-.14L84.13,307l-21.63-.82-.3-5.38,2.11-1.24a10.38,10.38,0,0,1,.76-4.32c.09-.21.18-.43.27-.67H52.89l-.71-3.35-3-1.57v-4.2a13.55,13.55,0,0,1-.27-7.08,16.92,16.92,0,0,0-.08-5.73l-.13-.78.3-.73a7.45,7.45,0,0,1,2.57-2.88l-.71-2,2.41-1,2.07-1c-17.24-8.5-17.24-8.55-17.24-10.62a5,5,0,0,1,.82-2.47L35.79,249l-2.21,0-4.09-2.13L28,244.88l-3.83-1.55-.42.86L20.6,249.9l-12-6.4v-5.89l3.51.17c1.3-3.3,2.24-6.37,2.18-7.25l-.12-1.85,2.13-1.06,3.21-6.43-1.25,0L20,217.3a34.26,34.26,0,0,0,2-5l-.7-4.88,3.11,1.06h0l.06-.25L23,207.67,24.3,205c1.19-2.49,9-19.26,10.6-23.7l.59-1.61,8-1c.15-1.86.24-3.19.24-3.8a49.72,49.72,0,0,1,.72-6.41,2.91,2.91,0,0,1,1.24-1.73l-.09-.44.07-.48a27.89,27.89,0,0,0,.36-4.29v-.2l0-.22a15.3,15.3,0,0,0,.11-1.57c0-.79.08-2.29.13-3.12l.14-2.33-.6-2.71,2.2-.55c.45-1.73,1.94-5.55,2.59-7.21l.39-1,3-1.53.8-6.14L55,119.33l6-10.55,4.74-4.39,3-2L73.3,89.1,75,74.47l1.18.26c0-.26-.07-.51-.11-.75s-.15-.92-.24-1.46H72.1l1.4-4.69-1-.37.37-10.15,6.8-7.23L92,52.46a11.68,11.68,0,0,0,1.76-3.53,19.47,19.47,0,0,1,3.58-6.75c.43-.59.79-1.1,1.11-1.59.42-.66.88-1.34,1.31-2s1.31-2,1.53-2.39a23,23,0,0,0,.1-2.34V33l5.79-8.17,8.59,4.36,0,.28a51.34,51.34,0,0,1,7.62,3.33c1.23.23,4.54.87,7.05,1.58,3.06.86,24.38,12.11,28.63,14.35l.38.24,8.3-14.75.59-1,1.21-.33c1.1-.27,2.05-.22,6.15,2.48l22.67,1.13-1.64,3.22c1.72.58,3.87,1.37,5.31,1.9,5.13-.1,6.18.44,6.92,1.1a13.52,13.52,0,0,1,1,1c.16.18.45.51.73.81a5.69,5.69,0,0,1,3.61.17,5.36,5.36,0,0,1,1.5-.84,2.92,2.92,0,0,1,1.3-1.23,3,3,0,0,1,2.39-.07,3.46,3.46,0,0,1,.39.19,4.25,4.25,0,0,1,1.33-.51,3.8,3.8,0,0,1,.27-.6,3.56,3.56,0,0,1,1.23-1.29,3,3,0,0,1,1.21-1.64l.21-.13a3.21,3.21,0,0,1,.71-1,3.17,3.17,0,0,1,1-.64,3.45,3.45,0,0,1,1.81-1.86,3.39,3.39,0,0,1,.22-.31l-1.26-2.89,4.23,0,28.72-.12-3.86,4.61a3,3,0,0,0-.19.25l1.94.27-.54,2,.46.33.27.19c.14.09.55.32.55.32l1.63.9v.13l.68.6a18.22,18.22,0,0,0,1.79,1.42l1.17.05.68,1.36A36.83,36.83,0,0,0,267.5,47l12.67.74v-.89l21-1.18L298.82,44l23.83-1.6,9.61,17.83-.39,17.62-2.75.25V91.89l2.21.27-.11,2.58a38.76,38.76,0,0,0,.06,5.35c.81,1.34,1.91,3.64,1.21,5.34a3,3,0,0,1-2.11,1.78c-.1,0-.82.31-2,.79l-.07.21v5l-1.81.34-.67,3-5-1.21-.31,6.69-2.82-.58c-.06.35-.12.71-.18,1.05l-.4,2.58-2.5-.22,0,.17-.41,3.08-2-.46.39,1.89-3.29.17-1.9,0,1.87,2.45-.62,6.71a14.38,14.38,0,0,1,.91,4.12,3.42,3.42,0,0,0,.2.82,6.26,6.26,0,0,1,.37,2.37,2.87,2.87,0,0,0,0,.45,7.55,7.55,0,0,1-.3,3.36,14.35,14.35,0,0,0-.5,2.27l-.13,4.35-2.44.24a2.84,2.84,0,0,0-1,.31,12.55,12.55,0,0,1-1.63,3.14L271,199l4.79,4,2.55-2.48,1.95,1.86c.05.05,5.42,5.12,10.35,6.38l3.47.89-1.34,2.47.2.07c1.64.53,5,2.73,13,8.41.89.64,1.65,1.18,1.83,1.29,1.83,1.13,6,8.33,6,11.67V237h1.53l4.93,41.14,2.31,3.43,5.75-1L341.93,294l-21.6,26.5L306,319.73,304.21,317l-4.7-1.65-6.52.7Zm-7.31-5.07,6.3,1.83,6.87-8.33,8.3-.89,6.2,2.17,1.52,2.29,11.48.63,19.06-23.38-10.72-10.59-6.12,1-3.71-5.51-4.71-39.32H311v-6.28c0-2.35-3.6-8.5-4.7-9.27-.17-.11-.68-.47-1.89-1.33-3.45-2.47-10.48-7.49-12.29-8.08-1.37-.45-2.17-1-2.44-1.69a2,2,0,0,1,.22-1.7c-5.5-1.43-11-6.58-11.53-7L276,206.79l-9-7.44,35.09-40.84h0A11.16,11.16,0,0,0,303.3,156c.61-1.63,3-2,3.25-2l.07-2.08a17.21,17.21,0,0,1,.63-2.87,4.83,4.83,0,0,0,.17-2.18,5.3,5.3,0,0,1,0-.94,3.7,3.7,0,0,0-.25-1.31,5.5,5.5,0,0,1-.32-1.67,12.89,12.89,0,0,0-.85-3.46l-.11-.29.57-6.23-2.29-3-.32-3,5.41-.13a3.16,3.16,0,0,1,0-1.19l.2-1.09,1.1-.07a5,5,0,0,1,1.31.11c0-.17.08-.66.11-1.25l.06-1.21,1.21-.13a8.92,8.92,0,0,1,1.56,0c.14-.88.32-1.87.45-2.49l.26-1.2,1.23.08a10,10,0,0,1,1.18.16l.32-6.82,5.55,1.34.44-2,1.33-.25v-3.09l.58-1.87.6-.26c.58-.25,2.5-1.07,3-1.2.1,0,.14,0,.16-.11a5.41,5.41,0,0,0-1.12-3l-.15-.33c-.41-1.29-.23-5.92-.21-6.4l-2.1-.25V75.48l2.8-.25.32-14.34L321,45.32,307,46.26l2.5,1.77L283,49.51v1.21l-16.52-1-.34-.25c-.39-.29-3.86-2.87-4.48-3.84l-.06-.11h-.13l-.25-.12a15.65,15.65,0,0,1-2.67-2l-1.94-.07.13-1.23c-.12-.07-.58-.32-.75-.44l-.35-.25c-.43-.31-.85-.62-1.19-.84l-.85-.56.24-.88-1-.13-.27-.85a4.74,4.74,0,0,1-.24-1.28,4.62,4.62,0,0,1,1.07-2.38l-22.54.09.48,1.09-1.13.63a.57.57,0,0,0-.28.33l-.26.69-.71.19a.77.77,0,0,0-.64.74l-.2,1.1-1.12.11a.44.44,0,0,0-.27.1.5.5,0,0,0-.14.29l-.18.94-.94.18c-.09,0-.13.15-.13.32l0,1-1,.3a.76.76,0,0,0-.45.35,1.09,1.09,0,0,0-.12.46l-.05.78-.69.37-.36.19-.29.14L222,45l-.24,0a1.56,1.56,0,0,0-.61.24,3.19,3.19,0,0,1-.53.26,2.24,2.24,0,0,1-1.3.12l-.38,0-.3-.23a1.14,1.14,0,0,0-.27-.16.14.14,0,0,0-.11,0s-.08.05-.14.25l-.22.69-1.25.4a4.08,4.08,0,0,0-1.28.92l-.75.72-.91-.49-.49-.29-.17-.1a3.86,3.86,0,0,0-2.48.18l-.75.22-.58-.52c-.46-.41-1.12-1.15-1.47-1.55s-.59-.66-.76-.81-.87-.47-5.25-.38h-.27l-.25-.09c-1.84-.68-5.19-1.91-6.94-2.44l-1.42-.43.5-1.4a9.27,9.27,0,0,1,.42-1l-19.08-1-.33-.22c-3.26-2.17-4-2.32-4.16-2.32l-.08,0-9,16L160.42,53l-2.76-1.77c-9.29-4.91-25.71-13.45-28-14.1-2.61-.74-6.29-1.42-7-1.56l-.2,0-.18-.09C116.72,32.6,114.69,32,114,32l-1.45-.17.15-1-4.59-2.33-3.85,5.43a21,21,0,0,1-.19,3,15.34,15.34,0,0,1-1.92,3.26c-.42.62-.86,1.28-1.27,1.92s-.74,1.09-1.16,1.67a17.42,17.42,0,0,0-3.17,5.84,15.57,15.57,0,0,1-2.78,5.27l-.53.69L80.64,53.15l-5,5.32-.25,7,1.6.58-1.08,3.61h2.27l.2,1.18c.14.86.33,2,.44,2.67a23.24,23.24,0,0,1,.31,3l.05,1.69-1.77-.25L76,89.87l-4.86,14.33-3.74,2.49-4.16,3.88-5.47,9.53-.14,15.17-1,7.71-3.38,1.72a73.25,73.25,0,0,0-2.54,7.11,2.18,2.18,0,0,1-1.46,1.66l-.06,0,.24,1.09,1.32,1.83-1.64.2c-.08,1.36-.12,2.45-.12,3a18,18,0,0,1-.12,1.9h0a30.58,30.58,0,0,1-.38,4.77A2.26,2.26,0,0,1,47.46,169a1,1,0,0,0-.22.15,49.9,49.9,0,0,0-.64,5.73c0,.83-.12,2.58-.34,5.19l-.1,1.15-8.61,1c-1.69,4.62-9.37,21.15-10.67,23.88l.49.19,0,.92a7.19,7.19,0,0,1-.26,1.89s0,.09,0,.13a9.34,9.34,0,0,1-.32,1.46l-.38,1.19-1.23-.23-.45-.11.09.65v.14c-.08,1.39-2,5.5-2.2,6,1.13,0,2.39.09,3.24.17l1.78.17-.57,1.7c-.1.31-.24.67-.4,1l-.28.65-1.11.26c0,.12,0,.55-.05,1.06l-.12,1.43-1.43-.14c-.28,0-1-.1-1.24.1l-.81.8-.92-.59-1,2.05.49.4-.37,1c-.12.31-.24.61-.35.85l-.7,1.56-1.12-.78-.55.27c.12,2.21-2.09,7.75-2.77,9.41l-.38.92-2.54-.13v1.21l8.09,4.3,1.8-3.22,3.86-8v5.76l4.7,1.9,1.53,2,2.91,1.52,2.42,0,5.89,4.21-.6,1.1a13.63,13.63,0,0,0-1,2.17c1,.91,7.22,4,17,8.79l1.1.54-1,3.23-3.55,1.65v0a2.36,2.36,0,0,1-1.05,2.52,5.79,5.79,0,0,0-1.77,1.76c.06.34.74,4.54,0,7a11.1,11.1,0,0,0,.32,5.64l.06.2v2.9l2.67,1.4.51,2.41H69l-.42,1.75a17.35,17.35,0,0,1-.94,2.9,8.38,8.38,0,0,0-.49,3.85l.08.89-2.13,1.25.06,1.08,16.67.63.83-3.82,5.14.3-.06,1.39a1.48,1.48,0,0,0,.16.8,1.23,1.23,0,0,0,1,.56c1.75.16,13.07.59,16.5.72l1.28,0v-6.32l.38.66,2.71.32c3,.35,3.78.43,3.91.44s.35,0,1.81-.32l4.37-2.35.9-2,2.61.06,4.13-15,18.55-12.68,4-1.28,13.87.68-1.69,2.16a43.73,43.73,0,0,0-4,6l-.25.45c-1.5,2.72-3.19,5.81-2.83,8.62l.44.6-.27.81c-1.77,4.07-4,9.14-7.69,13a.27.27,0,0,0,0,.08,13,13,0,0,0,3.08.24c2.71,0,6.06.34,6.73,2.2.24.66.24,1.68-1.07,2.79l0,0,4.84,1L160,306c-1.76,2.39-2.38,4.31-2,6.2.64,3.26,3.42,3.56,5,3.45a27.12,27.12,0,0,0,4.64-.9c.73-.19,1.46-.37,2.17-.52s1.73-.33,2.6-.46a20.6,20.6,0,0,0,5.34-1.33,2.31,2.31,0,0,0,1.37-1.43,1.63,1.63,0,0,0-.51-1.39,3.42,3.42,0,0,0-1.63-1,5.19,5.19,0,0,1-3.62-3.54c-1-2.78-.08-8.18.7-10.29a8,8,0,0,1,2.87-3.45c1.35-1.07,1.94-1.6,1.78-2.92a13,13,0,0,0-.87-3,12.13,12.13,0,0,1-1.09-5.32,13.25,13.25,0,0,1,.69-3c.44-1.41.86-2.74.43-3.78l0-.08a5.82,5.82,0,0,1-5-3c-2.37-4-2.56-8.18-2.75-12.21a37.14,37.14,0,0,0-.8-7.19,6.2,6.2,0,0,1,3.78-7.34,6,6,0,0,1,7.68,2.54c1.11,1.86,3.62,2.2,6.29,2.55a24.45,24.45,0,0,1,3.81.71,3.81,3.81,0,0,1,.82-.72l.14-.08c2.17-1,3.16-1.46,3.67-1.67h0l2-1.12,2.64-9.26,2.27,4.92,3.75,4.73,8,0,1-1.53h9l2.53,1.56-5.38,7.94c-.18.37-2,5.15-3.28,8.71l-4.19,9.92-2.21,7.54c-.27,1.73-.63,4-.79,4.68l-.07.31-.19.25s-.9,1.18-1.27,1.65l2.76,1.13,1.65,1.27L228,291l1.1,1.49.89,13.74,3.66,1.33h13.52l7.42-1,20.76.57,3.6-.45,1.35,3.67ZM154.88,300.79ZM19.95,221.21l1.51,1a3.89,3.89,0,0,1,1-.25v-.66Z"/></svg>