<svg id="Layer_1" data-name="Layer 1" xmlns="http://www.w3.org/2000/svg" viewBox="0 0 350 350"><defs><style>.cls-1{fill:#999;}.cls-2{fill:#f90;}</style></defs><title>M</title><path class="cls-1" d="M336.58,207.3l-1.14-.27.08-3h-1s.43-8.51.49-9.6,0-14.1,0-14.1l-4.13-1.7.12-2.31s-.85-.91-1.34-1.46.43-2.86,1.28-3.34,2.92-4.26,2.92-4.26l5-7.72-4.38-1.76-4-.85-5.29-4.68-38.67-35.73L272.9,133.31l-8.25-.46-1.09-1.64-4.42-1.55-5.93.64-4.92,6-4.56-1.32,1.37-6.88-1-2.6-2.55.32-14.86-.41-5.24.73h-9.76l-2.64-1-.64-9.85-.78-1-10.26-1-1.19-.91-2-.82s1-1.23,1-1.37.64-3.65.64-3.65l1.55-5.29,3-7.11s2.28-6.15,2.37-6.29l3.83-5.65L204.88,81h-6.43l-.68,1.09H192l-2.64-3.3-1.64-3.56-1.87,6.56-1.41.78-2.69,1.23A12,12,0,0,0,179.71,86a23.65,23.65,0,0,1-3.51-.09,54.8,54.8,0,0,1-4.6-4.6,17.82,17.82,0,0,0-2.05-1.78V96.88l-1.61-.08c-.13,3.23.18,6.8,3.06,6.56a2,2,0,0,1,1.87,1.43,17.7,17.7,0,0,1-.62,13.91c-1.56,3.33-6.84,8.62-.73,10,1.72.39,1.78,2.68.46,3.55a14.75,14.75,0,0,1-13.08,1.25,2,2,0,0,1-1.16-2.85,8.42,8.42,0,0,0,1.14-3.87l-.51-.13a1.94,1.94,0,0,1-1.43-1.87,15.42,15.42,0,0,0,0-2.75c-1.79.39-3.6.63-5.44.93s-3.38-1.78-1.89-3.25c5.44-5.34,9.38-14.91,9.61-23.36L151.95,96l-2.87.91L135.81,106l-3,10.76-1.87,0-.64,1.46-3.15,1.69s-1.19.23-1.32.23-4.74-.55-4.74-.55l2.51,4.33-.55.27v1.69H120.9V123.6s-11.26-.41-12.76-.55-.64-2-.64-2l-3.83-.23-.59,2.74-12-.46,0-.82,1.55-.91a6.67,6.67,0,0,1,.27-3.37,15.21,15.21,0,0,0,.91-3.28H83.93L83.56,113l-1.91-1v-2.1a8.12,8.12,0,0,1-.27-4.19,14.3,14.3,0,0,0,0-5s.18-.46,1.28-1.28a1.64,1.64,0,0,0,.73-1.82l2.55-1.19.73-2.28s-12.95-6.38-12.95-6.66a19.08,19.08,0,0,1,1.19-2.37l-4.19-3H69L66.88,81l-1.09-1.46-3.37-1.37V77H61l-1.37,2.83L58.4,82.11,52.56,79l-4.77,5.32s-7.36,7.42-8.11,8.3.15.4.27,1-2.1,3.28-2.1,3.28l-.76.46-2.61-.4A8.28,8.28,0,0,0,33,98.07a4.32,4.32,0,0,0-1.55,3.4c-.09,1.34-1.49-.58-1.55-.27a53.92,53.92,0,0,1-3.62,8.42,11.62,11.62,0,0,1-.21,4.16c-.27.67-.91,6.14.3,8.08a18.47,18.47,0,0,1,2.13,7.42c0,1.52-1,3.65-1.25,3.68a5.65,5.65,0,0,0-1.46,1.22,6.85,6.85,0,0,1-1.34,1c-.43.24-.24,1.09-.24,1.09L23,136.12l-1.28,8.3a27.93,27.93,0,0,1,3.46,1.73,4.94,4.94,0,0,1,.73,2.13c.06.33.55,2.55.55,2.55a7,7,0,0,0,1.19.61c.58.21.67.36.67,1.64s-.64,1-.64,1L25.12,154l-2.8,3.19-1.12,2s5.62,3.28,5.87,4.41-1.25,5-1.43,6.47,0,1.09.33,3.22a15.4,15.4,0,0,1-.46,5.2,16.86,16.86,0,0,1-1.61,4.19c-.12,0-2.19-.36-2.19-.36a7.2,7.2,0,0,1-2.07.7c-.43,1-.73.39-2,0-.88.79-2,.06-2.19,0s-.3.27-1,.85-1.49-.82-1.61-.91-1.06.61-1.06.61a3.51,3.51,0,0,1,0,.88c-.06.27.21.61.88,1.06s-.09.88-.09.88a3.08,3.08,0,0,1-.55.73,1.81,1.81,0,0,0-.49,1A11.13,11.13,0,0,0,12,189.7c.06.18-.33.85-.33.85s.12,5.8.06,5.93-.7,1-.7,1l.27,2.37a8.24,8.24,0,0,0,.88,0c.24,0,.27-.12.58-.24a3.31,3.31,0,0,1,.79-.12,2.07,2.07,0,0,0,.91-.49,1.66,1.66,0,0,1,1-.3,4.52,4.52,0,0,1,.91,0c.36,0,0-.21.21-.52s.55,0,1,0,.61-.33.79-.46a3.27,3.27,0,0,1,1.09-.12c.46,0,.7,0,.91-.21a2.14,2.14,0,0,1,.64-.43c.24-.09.76,0,1.43-.09s.33-.36.33-.7.33-.09.33-.09a.61.61,0,0,0,.46-.21c.15-.21.27-.55.49-.91s.21.12.55.3a.86.86,0,0,0,.76.06c.09-.06.27-.39.43-.49a3.87,3.87,0,0,1,1,0l-.36-.73a5.21,5.21,0,0,1,1.06-.49c.33-.06.55.27.79.52s.88,0,1,0a5.16,5.16,0,0,1,.94.55l1.34-.06a4.28,4.28,0,0,0,.49.33l1,.4c.33.12.49,0,.73,0a1.59,1.59,0,0,0,.61-.18c.15-.06.46-.09.55-.15a3,3,0,0,1,.58-.21.73.73,0,0,1,.4,0,2.94,2.94,0,0,1,.52.27c.21.15.52.09,1.16.3a12,12,0,0,0,1.95.33,10,10,0,0,1,1.37.46c.73.3.58,1.31.58,1.31l.85.52S44,199.34,44,199.46a10,10,0,0,0,1.49.64s1.73.88,1.85.88a2.71,2.71,0,0,0,.61-.33l.7-1,2.77.09,1.12,1.09,4.83-1.19.88-.94.67-.73h.46c.33,0,.73.7.73.7l-.18,1.49h9.3l11.64.58c1.06.06.24,1.91.24,1.91h2.55l0-2.19a18.07,18.07,0,0,1,5.53-.4c1.95.4,3.13,4.13,3.13,4.13l.58-.12.12.73,1.09.21,1.43-1.25,1,.67s4.47.55,5.41.82a3.65,3.65,0,0,1,1.61,1.12s.94-.43,1-.43l1.15.06s1.19-.36,1.43-.43,6.32,0,6.93.06.12,1.91.12,1.91l-.36.49a12.93,12.93,0,0,0,0,1.31,2.88,2.88,0,0,1-.15,1.31l-.7-.3-.09.49.58.36,0,.52s1.31-.24,1.31.52-.09,1.06-.64,1.19-1.7.27-1.7.27l8.11,5.35-.09,3.34.46,1.12-.4,4.8.43-.12,1.4,1.09.18-.24,2.86.27v1.82h1.85v1.91h1.12v3.68H129s.15,1.25.15,1.37,0,.3.58.91a1.58,1.58,0,0,1,.33,1.38h10.17v2.19h3.65c.59,0,.36.78.36,1.09a.54.54,0,0,1-.32.46,15.65,15.65,0,0,0-.09,2.23c0,1.73-.91,1.55-.91,1.55v2.32l-.5.18-.09,4.51.68.09,0,2.78a29.24,29.24,0,0,0,.68,4.74c.68,3.46.27,12.13.27,12.13h1.37v-2.37H152l.73-.73,20.88-.82,1.14,1.55h3.37l1.69-1s1.87-.64,4.24-1.73a15.69,15.69,0,0,0,5.2-4.65c.73-1,2.92-4.56,4.47-5.74-.18-2.46,2-5.15,2-5.15l4.8-5.88,7.48-5,5.93.64,5.47,1.73,1.09,0,3.24,1.19,1.32-.59,4,4,1.14.55,4.42,3,4.38,3.88,2.51,3.92,7.89,6.52,16.14-.68,1.41,1.09,3.69,3.1-.09-4.6,2-7,3.56-6.43,19.1-6.47.36-2.28,21.34-.5,8,4.1,6.38.23.5-2.1,2.23-.32.73-10.71s.23-5,.36-6.29,1-.91,1-.91l.18-3.6,1-.46h-1Z"/><path class="cls-2" d="M146.8,276.14h-4.27l.07-1.48c0-.08.39-8.53-.25-11.79a29.89,29.89,0,0,1-.71-5l0-1.54-.73-.1.14-6.75.48-.17v-3.06l.91.18h0a19.63,19.63,0,0,1,.1-2.37h-3.7v-2.19H128.21l.49-1.79s0,0,0-.06a2.82,2.82,0,0,1-.94-1.81h-.67v-3.68h-1.12v-1.92h-1.85v-2l-.78-.08-.57.76-2-1.54-1.7.49.54-6.51-.44-1.09.08-2.85-10.63-7,3.61-.47,0-.3-.78-.49.6-3.18.48.21c0-.41,0-.59,0-.64l0-.4.36-.49c-1.74,0-4.78-.07-5.44,0l-1.25.38-.24.08h-.25l-.86,0-.66.29-1,.46-.68-.88a2.23,2.23,0,0,0-.89-.64c-.57-.17-3.38-.55-5.19-.77l-.33,0-.38-.25-1.13,1L91.84,206l0-.24-.39.08L91,204.66c-.44-1.39-1.42-3-2.06-3.17a13,13,0,0,0-3.85.19l0,2.43H79l.87-2-10.65-.52H58.35l.12-1-.33.35-6,1.47-1.29-1.26-1.46,0-.4.56-.2.14a2.4,2.4,0,0,1-1.41.58c-.35,0-.46,0-2.42-1-1.35-.49-1.81-.72-2.07-1.1-.19-.19-.74-.71-1.23-1.16l-1.54-.93.13-.84c-.34-.13-.64-.21-.78-.25a12,12,0,0,1-2.15-.39,3,3,0,0,0-.51-.12,2.3,2.3,0,0,1-1-.35h0a2.24,2.24,0,0,1-.67.23l-.1,0a2.44,2.44,0,0,1-1.07.26,2,2,0,0,1-1.21-.08L32,196.4l-.28-.11a1.7,1.7,0,0,1-.45-.23l-1.32.06-.39-.27-.35-.23-.32,0,.43.85-2.56-.26-.21,0a1.66,1.66,0,0,1-.32.28,2.08,2.08,0,0,1-1.47.26,1.86,1.86,0,0,1-.5.44,1.65,1.65,0,0,1-.15.29,1.89,1.89,0,0,1-1.39.78,8.09,8.09,0,0,1-1.18.06l-.16.13a2.53,2.53,0,0,1-1.63.54h-.11l-.42,0h-.1a2.16,2.16,0,0,1-1.45.56,1.56,1.56,0,0,1-1.22.52l-.43,0a1.06,1.06,0,0,0-.31,0l-.26,0h-.11a3.41,3.41,0,0,1-1.5.74,3.77,3.77,0,0,1-.52.06.22.22,0,0,0-.1,0,2.13,2.13,0,0,1-.83.29,8.18,8.18,0,0,1-1.12,0l-1.2-.06-.47-4.11.32-.45.45-.62c0-.87,0-3.27-.08-5.44v-.4l.21-.35.06-.1a4.7,4.7,0,0,1-.41-1.55,3.16,3.16,0,0,1,1-2.09,2,2,0,0,1-.69-1.92h0s0-.21,0-.36l-.12-.84.68-.51c.76-.56,1.79-1.33,2.76-.6a1.91,1.91,0,0,1,.41.44h0a1.61,1.61,0,0,1,2-.51l.11.06a1.05,1.05,0,0,0,.51.19l.6-.54.76.24.51.18h0l.77-.22a6,6,0,0,0,1.63-.54l.44-.25L22,181l1.15.2a16.39,16.39,0,0,0,1-2.86c0-.29.11-.6.17-.93a11,11,0,0,0,.28-3.84c-.1-.73-.2-1.13-.26-1.42a5,5,0,0,1-.08-2.17,21.12,21.12,0,0,1,.7-2.85,22.16,22.16,0,0,0,.74-3,31.22,31.22,0,0,0-5.19-3.59l-1.2-.7,2-3.5,3.23-3.69,2.39.06a9,9,0,0,1-1.17-.63l-.49-.32-.12-.57s-.5-2.26-.56-2.6a5.79,5.79,0,0,0-.35-1.37c-.36-.23-1.82-.92-3-1.44l-1-.44,1.66-10.78,1.2.19a1.86,1.86,0,0,1,.71-.71,6.93,6.93,0,0,0,1-.71.86.86,0,0,0-.09.12,7.67,7.67,0,0,1,1.75-1.57,7.13,7.13,0,0,0,.72-2.57,17.12,17.12,0,0,0-1.91-6.64c-1.54-2.46-.78-8.46-.41-9.37a11.25,11.25,0,0,0,.12-3.45l-.06-.48.25-.42a53.78,53.78,0,0,0,3.46-8l.16-.8.78-.23a1.41,1.41,0,0,1,.82,0A5.34,5.34,0,0,1,32.08,97,7.7,7.7,0,0,1,34,95.63l.36-.14,2.49.38.11-.07c.51-.64,1-1.32,1.33-1.81a1.48,1.48,0,0,1-.22-.46,2,2,0,0,1,.59-1.82c.77-.89,7.42-7.61,8.18-8.37l5.46-6.09,5.59,3,.6-1.07,1.71-3.55h3.67v1.65l2.85,1.16,1.14,1.52,1.51.79,1.84,0,5.6,4-.63,1.11c-.2.36-.42.76-.61,1.11,2.08,1.12,7.16,3.68,11.76,5.94l1.09.54-1.29,4-2.28,1.06a3.2,3.2,0,0,1-1.32,2.06,6.52,6.52,0,0,0-.64.54,13.72,13.72,0,0,1-.13,5,6.58,6.58,0,0,0,.26,3.33l.08.22v1.48l1.75.92.26,1.26H95.42L95.18,115a16.57,16.57,0,0,1-1,3.64,5.17,5.17,0,0,0-.18,2.54l.13.69,7.83.3.6-2.76,7.14.42-.89,1.87c2.14.13,8.67.38,12.16.51H121l-2.54-4.38,2.81.33,4.55.53.86-.15,2.52-1.35.82-1.88,1.71,0,2.81-10.19,13.87-9.48,3.31-1.05,8.91.44,0,1.39c-.24,8.76-4.36,18.77-10,24.33-.22.21-.18.33-.12.45a.77.77,0,0,0,.79.39l1.69-.27c1.27-.2,2.48-.39,3.68-.65l1.62-.35.1,1.77a16,16,0,0,1,0,2.88.8.8,0,0,0,.36.33l1.71.43-.14,1.24a9.77,9.77,0,0,1-1.38,4.5.23.23,0,0,0,0,.24.83.83,0,0,0,.48.48,13.28,13.28,0,0,0,11.83-1.09.73.73,0,0,0,.27-.7.3.3,0,0,0-.27-.28c-1.93-.44-3.18-1.32-3.71-2.6-.93-2.26.71-4.87,2.17-7.18a23.21,23.21,0,0,0,1.3-2.23,16.32,16.32,0,0,0,.57-12.84.77.77,0,0,0-.42-.48h0a3.7,3.7,0,0,1-2.94-1c-1.65-1.58-1.75-4.6-1.65-7l.06-1.43,1.55.08V76.66l2.29,1.78a10.16,10.16,0,0,1,2.45,2.23c.6.69,3.13,3.22,3.94,3.94.44,0,1.33,0,2.21,0a7.6,7.6,0,0,1,2.16-2.07l2.65-1.21.85-.46,2.75-9.67,3.17,6.87,2.11,2.63H197l.68-1.1h7.62l3.38,2.08-.83,1.23-3.76,5.54c-.26.65-1.52,4-2.29,6.1l-3,7.1-1.5,5.12c-.56,3.61-.64,3.82-.83,4.09l.62.31.87.67,10.48,1.07,1.4,1.89.6,9.34,1.54.56h9.41l5.26-.73,14.87.41,3.56-.45,1.49,4-1.19,6,2.41.7,4.7-5.7,6.82-.73,5.17,1.81,1,1.45,6.82.38,14.17-17.39,39.78,36.75,5,4.41,3.88.85,6,2.41-6,9.12c-1,1.87-2.45,4.19-3.43,4.75a3.57,3.57,0,0,0-.68,1.44l1.07,1.17.41.44-.1,1.91,4.08,1.68v.94c0,1.34.06,13.08,0,14.19,0,.8-.29,5.62-.41,8.11H337l-.08,3.29,1.14.27-.4,16.56h5.82l-5.85,2.79-.24,4.78-1-.41c-.13,1.77-.3,5.54-.3,5.58l-.81,11.89-2.42.34-.55,2.29-7.86-.28-7.94-4.08-19.79.46-.31,2L277,254.65l-3.21,5.8-1.86,6.66.15,7.52-7-5.85-16.17.69-8.48-7-2.52-3.94-4.16-3.68L229.47,252l-1.27-.61-3.45-3.49-1,.43L220.23,247l-1.24-.1-5.34-1.69-5.28-.57-6.87,4.57-4.67,5.72c-.5.62-1.79,2.6-1.67,4.15l.06.76-.61.47a24.47,24.47,0,0,0-3.51,4.47c-.28.42-.51.76-.67,1a17.31,17.31,0,0,1-5.75,5.1c-2,.94-3.71,1.55-4.22,1.73l-1.9,1.18h-4.5L173,272.25l-19.57.77-.75.75H146.8Zm28.71-5.21h2.25l1.63-1s1.84-.63,4.1-1.68a14.66,14.66,0,0,0,4.64-4.2c.15-.2.36-.52.61-.9a30.48,30.48,0,0,1,3.58-4.66,10.81,10.81,0,0,1,2.31-5.4l4.94-6.05,8.08-5.37,6.71.75,5.29,1.68,1.13,0,2.9,1.06,1.69-.76,4.48,4.54,1.09.54,4.57,3.08,4.52,4,2.49,3.9,7.3,6L266,265.9l1.82,1.41,1.35,1.13,0-1.69,2.14-7.53,3.82-6.91,18.81-6.38.42-2.6,22.88-.54,8,4.12,4.91.18.46-1.91,2.05-.29.65-9.57c0-.17.23-5,.37-6.35a2.42,2.42,0,0,1,1.05-1.91l.08-1.49h0l.42-17.17-1.14-.27.07-2.67h-1l.07-1.49s.43-8.52.49-9.61c0-.73,0-7.89,0-13.07l-4.19-1.73.14-2.71-.95-1a2.34,2.34,0,0,1-.44-2,5.49,5.49,0,0,1,2.08-3.5,24.57,24.57,0,0,0,2.38-3.71l.06-.09,4.1-6.27-2.66-1.07-4.26-.9-5.57-4.93L286.72,118.6l-13.18,16.17-9.68-.54-1.22-1.84L259,131.1l-5,.54-5.15,6.25-6.7-1.94,1.54-7.77-.43-1.17-1.54.19-14.85-.41-5.32.73h-10l-3.75-1.36L207,115.81l-.16-.21-10-1-1.35-1-3.56-1.46,1.15-1.47.86-1.12c.11-.55.35-2,.54-3.25l0-.18,1.6-5.44,3-7.11c2.31-6.25,2.38-6.35,2.49-6.52l3-4.44-.18-.11h-5.24l-.68,1.09-7.21,0-3.29-4.21-1,3.46-2,1.11-2.68,1.23a15.9,15.9,0,0,0-1.52,1.76l-.41.54-.68,0c-3.5.1-3.9-.1-4.19-.24a42.12,42.12,0,0,1-4.6-4.46V98.37l-1.62-.08c0,2.35.5,3.17.8,3.46a.89.89,0,0,0,.75.2,3.42,3.42,0,0,1,3.33,2.38,19,19,0,0,1-.68,15,24.73,24.73,0,0,1-1.47,2.54c-.92,1.46-2.32,3.68-1.95,4.58.15.37.78.7,1.72.92a3.14,3.14,0,0,1,2.42,2.54,3.56,3.56,0,0,1-1.49,3.57,16.09,16.09,0,0,1-14.33,1.41,3.68,3.68,0,0,1-2.24-2.27,3,3,0,0,1,.37-2.72,5.39,5.39,0,0,0,.75-2.11,3.28,3.28,0,0,1-1.78-3.13,8,8,0,0,0,.05-.88l-2.19.36-1.66.27a3.6,3.6,0,0,1-3.78-1.9,3.14,3.14,0,0,1,.66-3.76c4.9-4.8,8.53-13.27,9.11-21l-5.6-.28-2.43.77L137,106.88l-3.12,11.33-2,0-.45,1-3.77,2-.21,0a9.34,9.34,0,0,1-1.59.25c-.08,0-.16,0-2.1-.22l1.84,3.19-1.11.56v2.23h-5V125c-3.06-.11-10.26-.39-11.48-.5a2.29,2.29,0,0,1-1.87-1.12,2.37,2.37,0,0,1-.29-.92l-1-.06-.59,2.71-14.47-.55-.17-3,1.5-.88a7.2,7.2,0,0,1,.48-3.18,10.07,10.07,0,0,0,.45-1.3H82.78l-.46-2.2-2.08-1.09v-2.73a9.08,9.08,0,0,1-.21-4.82A12.42,12.42,0,0,0,80,101l-.07-.39.15-.37A5,5,0,0,1,81.8,98.3l.25-.2-.45-1.22,3.17-1.47.17-.52C72.3,88.65,72.3,88.61,72.3,87.49c0-.27,0-.53.75-1.95l-2.8-2H68.62l-2.68-1.4-1.05-1.4-3.4-1.38L61,80.45,59,84l-6.08-3.23-4,4.49c-2.54,2.56-6.21,6.29-7.59,7.74a2,2,0,0,1,.09.29c.1.5.26,1.24-2.39,4.47l-.16.19-1.41.84-2.58-.39c-.19.14-.48.37-.9.72a2.94,2.94,0,0,0-1.05,2.42,1.8,1.8,0,0,1-1.07,1.67,1.65,1.65,0,0,1-1.13.06,53.67,53.67,0,0,1-2.92,6.63,12,12,0,0,1-.36,4.39c-.24.79-.63,5.48.19,6.8a19.56,19.56,0,0,1,2.34,8.2c0,.78-.63,4.29-2.13,5a7.35,7.35,0,0,0-.86.77,6.36,6.36,0,0,1-1.3,1.11L26,138l-1.75-.25-.9,5.83a13.52,13.52,0,0,1,2.87,1.55A5.09,5.09,0,0,1,27.32,148c0,.26.27,1.29.42,2a3.69,3.69,0,0,0,.42.19c1.6.59,1.6,1.8,1.6,3a2.39,2.39,0,0,1-.94,2.15,1.78,1.78,0,0,1-1.3.27l-1.77,0L23.49,158l-.39.7c5,3.06,5.25,4.18,5.35,4.62.21,1-.17,2.36-.8,4.54a20.91,20.91,0,0,0-.61,2.4,2.47,2.47,0,0,0,0,1.2c.07.32.18.81.31,1.65a13.66,13.66,0,0,1-.3,4.8c-.06.29-.11.57-.16.82,0,.05-1.1,5.38-3,5.38a15.25,15.25,0,0,1-2-.31,9.08,9.08,0,0,1-1.37.47,1.85,1.85,0,0,1-.79.58,2.27,2.27,0,0,1-1.84-.21l-.12-.05a3,3,0,0,1-2.1,0l-.37.32a2,2,0,0,1-1,.43,1.7,1.7,0,0,1,.07.57,1.92,1.92,0,0,1-.71,1.38,3.82,3.82,0,0,1-.64.79v0c.06.17.15.44.28.8l.09.26a2.07,2.07,0,0,1-.25,1.65c.12,5.78.1,5.82-.1,6.22a5.83,5.83,0,0,1-.49.75l0,.33a2.72,2.72,0,0,1,.61-.09h.15l.31-.23a2.69,2.69,0,0,1,1.51-.55l.2,0,.21,0a1.72,1.72,0,0,1,1.89-.56l.21-.16a2.66,2.66,0,0,1,1.47-.34h.57a3.16,3.16,0,0,1,.89-.54,2.71,2.71,0,0,1,1-.14,1.51,1.51,0,0,1,.71-.75,1.54,1.54,0,0,1,.44-.14l.19-.36a1.54,1.54,0,0,1,1.33-.83,1.63,1.63,0,0,1,.53.09l1-.61a5.41,5.41,0,0,1,1.53-.66,1.92,1.92,0,0,1,1.68.54,1.93,1.93,0,0,1,.39,0,2.34,2.34,0,0,1,1.34.53l1.39-.06.41.32.23.17.23.09.54.21.27,0,.19-.08a3.37,3.37,0,0,1,.5-.14h0a4.81,4.81,0,0,1,.75-.27,2.17,2.17,0,0,1,1.23,0,4.64,4.64,0,0,1,.72.35h0a5.65,5.65,0,0,1,.94.23,10.27,10.27,0,0,0,1.63.27l.2,0a11.58,11.58,0,0,1,1.58.53,2.37,2.37,0,0,1,1.41,1.8l.43.29c.81.74,1.23,1.14,1.47,1.39.23.1.66.27,1.06.41l.16.07,1,.5.8-1.11,4.07.13,1,.93,3.66-.9,1.67-1.81H59.4a2.46,2.46,0,0,1,2,1.42l.23.41,0,.36h7.7l11.72.58a2,2,0,0,1,1.33.6v-.61l1.1-.24a18.73,18.73,0,0,1,6.12-.4c1.9.38,3.12,2.47,3.74,3.89l.84-.18.12.7,1.26-1.1,1.63,1.08c1.21.15,4.4.56,5.3.82a4.46,4.46,0,0,1,1.52.81,1.67,1.67,0,0,1,.73-.17l1,0,1.25-.37c.6-.15,7.29,0,7.35,0a1.67,1.67,0,0,1,1.26.68,3.6,3.6,0,0,1,.16,3l-.07.27-.26.35c0,.18,0,.43,0,.77a6.15,6.15,0,0,1-.07,1.23,2.06,2.06,0,0,1,.37.24,1.87,1.87,0,0,1,.68,1.46,2.86,2.86,0,0,1-.54,1.89l6.33,4.17-.1,3.83.47,1.16-.33,3.95.48.38,4.29.41v1.69h1.85v1.92h1.13v3.68h.36l.15,1.25c.08.65.12,1,.14,1.22l.23.28a2.85,2.85,0,0,1,.55.91h10.31v2.19h2.23a1.78,1.78,0,0,1,1.35.58,2.28,2.28,0,0,1,.44,1.85v.1a1.79,1.79,0,0,1-.37,1.1c0,.31,0,.8,0,1.56a3.09,3.09,0,0,1-.91,2.47v2.4l-.52.19,0,2.28.64.08.07,4a29.45,29.45,0,0,0,.66,4.49,51,51,0,0,1,.41,8.61h5.91l.71-.71,22.19-.87Zm161-41.77ZM46.88,199.66Zm-27.33-3.34h0Zm16.36-.12h0Zm1.51-2.27h0ZM13,188.34Zm-.06-.06h0ZM24.17,147.1Zm1-10.67h0Zm0,0Zm2.53-2.13a1.31,1.31,0,0,1-.29.07A1.22,1.22,0,0,0,27.69,134.3Zm-.6-2.75a1.37,1.37,0,0,0-.3.07A1.52,1.52,0,0,1,27.09,131.55Zm48-43.72Z"/></svg>