<svg id="Layer_1" data-name="Layer 1" xmlns="http://www.w3.org/2000/svg" viewBox="0 0 350 350"><defs><style>.cls-1{fill:#999;}.cls-2{fill:#f90;}</style></defs><title>M</title><path class="cls-1" d="M336.24,199c-2.16-2.23-4.65-4.15-7-6.24a33,33,0,0,1-2.55-2.71,27.08,27.08,0,0,1-2.31-2.84,5.41,5.41,0,0,1-.72-2c2.38-1.18,2.39-3.3,2.12-5.4a8.89,8.89,0,0,0-1.24-2.84,9,9,0,0,0-1.25-1.39c2.52-1.57,4.79-3,7-4.39.61-.39,1.18-.84,1.77-1.26a16.22,16.22,0,0,0-1.84-1.45c-1.18-.69-3-1-3.52-1.95-1.29-2.65-3.26-3.21-5.84-3-.28,0-.57-.2-1.29-.46,1-.65,1.64-1.15,2.34-1.52a15.5,15.5,0,0,0,6-5.44c1.18-1.83.92-2.51-1.2-2.65-2.62-.17-5.27-.12-7.88-.44-3.21-.39-6.62-.43-8.67-3.75a2.54,2.54,0,0,0-2.28-.64c-2.08.63-4.08,1.53-6.1,2.37-.56.23-1.05.64-1.61.9-1.17.55-2.36,1.06-4,1.79-2.49-1-3.28-.59-6.06,3.56-1-.23-2.24-.93-3-.58-1.44.71-2.33.13-3.54-.4-1.53-.68-1.49-1.23-.61-2.48.5-.71.41-1.83.59-2.76-1.56-.14-1.54-3.75-4.09-1.85-.14.11-.58-.18-1-.43l-.39-.22c.35-.67.61-1.48.92-2.21a3.71,3.71,0,0,1,1.23-1.73c2.16-1.39,1.37-3.6,2.14-5.33.12-.26-.42-1.1-.82-1.27a33.82,33.82,0,0,0-3.72-1.09c.07-1.25-1.55-3,.6-4.66.4-.32.24-2.3-.28-2.7-2.36-1.8-2.33-4.44-2.33-6.79,0-2.14,1.81-4.31-2.31-4.67-1.41-.12-3.74-.68-4.76-2.68-.22-.43-1.25-.46-1.91-.65a24.86,24.86,0,0,1-2.77-.75c-4.46-1.84-7.89-4.94-10.95-8.65-2.08-2.52-4.31-5.13-8.27-5-1.17,0-2.49-1.11-3.53-2-1.32-1.1-2.25-2.74-3.67-3.64a61.69,61.69,0,0,0-6.42-3.05c-.43-.2-1-.62-1-1s.46-.88.77-1.29,1-.82.9-1.06a2.38,2.38,0,0,0-1.08-1.11,16,16,0,0,0-2.16-.86l2.23-.79c-.22-1.37-2.91-3.33-4.07-2.91-1.66.6-2.15,1.8-1.26,3.4l-2.08.92,1.69,1.22-1.4.44a16.31,16.31,0,0,1,0,1.94c-.08.62-.49,1.26-.4,1.84.2,1.23.11,2.17-1.15,2.82a1.51,1.51,0,0,0-.63,1.27c.57,2.7.38,3.11-2.19,3.65-2,.41-3.93.54-5.1,2.66-.34.61-1.72,1-2.59.91-2.35-.14-4.32.23-5.25,2.64a39.31,39.31,0,0,0-20.08-3.12,7.74,7.74,0,0,0-3.41,1.27,4.7,4.7,0,0,1-3.9.81c-3.27-.63-6.57-1.15-9.86-1.65-1.72-.26-3.46-.4-5.2-.56a28.66,28.66,0,0,0-5.41-.38c-2.69.27-3.81,2.33-2.88,4.61a7,7,0,0,1,.24,1.7,7.89,7.89,0,0,1-1.82.16c-2.21-.32-4.41-.77-6.62-1.06a2.86,2.86,0,0,0-1.95.42c-1.58,1.23-3,2.65-4.55,3.93a3.44,3.44,0,0,1-1.11.48l-3.09-5.42-.53.1.4,6a3,3,0,0,1-3.47-2.31c-.21-.86.53-2,.84-2.95,0-.61-.79-1.82-1.46-1.77-3,.22-3.92-2.27-5.5-3.89-1.13-1.16-2.21-2.39-3.27-3.54-6.55,4.82-11.67,5.29-16.88,1.71-.76.93-1.92,1.76-2.15,2.79-.43,1.89-1.36,2.22-3,1.63a29.66,29.66,0,0,1-1.56,3.28c-.3.48-1.07,1.09-1.47,1-2.38-.54-4.36.35-6.44,1.26-.66.29-1.7-.15-2.53-.4s-1.49-1-2.18-.94c-1.4.12-2.92.65-3.09,2.3a2,2,0,0,1-1.58,2.05c-1.43.54-1.71,1.94-.49,2.75,1.56,1,1.55,2.2,1.25,3.79a2.83,2.83,0,0,0,1.07,2.1c1.09.91,2.41,1.52,3.59,2.32s1.32,1.76.38,3-.85,4.53.39,5.14c1.53.74,1.16,1.6.74,2.71a13.52,13.52,0,0,1-.65,2.34c-.7,1.12-.84,2.69-2.74,3a3.35,3.35,0,0,0-2,2.17,4.49,4.49,0,0,1-3.17,3.49c-3.67,1.12-7.43,2-11,3.46C66,151.84,62,154.14,57.8,156c-3.16,1.42-6.47,2.5-9.67,3.83-3.41,1.42-7.18,2.44-10,4.62-2.44,1.87-4.67,2.83-7.58,2.64a2.84,2.84,0,0,0-2.9,1.85c-1.79,3.33-2.27,7.43-5.69,9.83-.35.24-.41.87-.63,1.31-.74,1.5-1.43,3-2.23,4.49-1.95,3.55-4,7.07-5.92,10.61-.64,1.15-.6,2.06.28,2.66.19-.34.39-.66.6-1s.28-.39.43-.58l.14-.18.11-.12.11.11a17.18,17.18,0,0,1,4.93,8.13q0-.8,0-1.6a3.42,3.42,0,0,0-.51-2.38,4.52,4.52,0,0,1,.35-.34l0,0a1,1,0,0,1,.59-.3v0c.36,0,.53.56.48,1.64a2.2,2.2,0,0,0,.23.64v0a2.65,2.65,0,0,0,.41.56h0a2.68,2.68,0,0,0,.39.3,3.27,3.27,0,0,0,2.27,3,3.12,3.12,0,0,0,3.75-2.12c1.42-3.39,4.74-1.65,7.31-.53a3.15,3.15,0,0,0,3.39-.52,16.84,16.84,0,0,0,1.78,1A21.18,21.18,0,0,0,47.91,207a3,3,0,0,0,2.37-.46l1.31.61c1.19.53,2.4,1,3.64,1.51,1.66.62,3.46,1.26,5.33,1.84h0c1.53.48,3.11.91,4.71,1.27l.85.16a3.12,3.12,0,0,0,.79.66c4,2.32,6.38,1.4,10.61,1.06,5-.4,11.29,5.9,15,8.78a3.11,3.11,0,0,0,1.79.67l1.47,1a3.12,3.12,0,0,0,3.69-.47c4.87-4,8.95-8.85,14-12.59l.86.82a3.13,3.13,0,0,0,3.69.48,7.73,7.73,0,0,0,1.79-1.36,2.76,2.76,0,0,0,.24-.3,3.86,3.86,0,0,0,.67-.42,15.56,15.56,0,0,0,1.2-1.09c.16-.16.31-.33.46-.5a24.4,24.4,0,0,0,1.8-2.22,2,2,0,0,1,.16-.49c1-2,.22-3.44.79-5.33.46-1.54,1.84-3,2.72-4.38a2,2,0,0,1,2.95-.32c.12-.15.24-.32.36-.46,2,2.47,1.44,6.24,1.42,9.25,0,.05,0,.09,0,.14s0,.1,0,.15a6.47,6.47,0,0,0,1.74,4.55,5.87,5.87,0,0,0,2.91,1.53,5.38,5.38,0,0,0,1.57,1.27l.21.08a2.93,2.93,0,0,0,5.35.66c2-.38,4-1.15,5.84-1.19h0a5.86,5.86,0,0,1,.84,0l.14,0a4.66,4.66,0,0,1,.76.18l.06,0a4.46,4.46,0,0,1,.75.36l.17.11a5,5,0,0,1,.73.56,3.41,3.41,0,0,0,.47.37l.17.09a3.11,3.11,0,0,0,.33.17l.2.07.32.09.22,0,.31,0h.23l.31,0,.22,0,.32-.1.2-.07a3.58,3.58,0,0,0,.39-.19l.12-.06a3.91,3.91,0,0,0,.5-.36,9.83,9.83,0,0,1,1-.72l.25-.15c.28-.17.56-.33.85-.48l.23-.11q.49-.24,1-.44l.13-.05c4.19-1.62,9.64-1.73,13.8-2h.13a25.47,25.47,0,0,1,3.1-1.69c3.17-1.28,6.32,1,9.4-.5a1.85,1.85,0,0,1,2.68,2.06c.68-2.57,3.25-.94,5.26.71,1.54.19,3.09.41,4.66.65s3.09.48,4.63.66a4.69,4.69,0,0,1,2.39-1.52c2-.6,4.13-.86,6.16-1.28a1.94,1.94,0,0,1,1.75.47,1.9,1.9,0,0,1,1.87,1.34l.29.88a1.55,1.55,0,0,1,0,.91l.21.08a3.56,3.56,0,0,1,.4.26c-1.4,4.72-1,10.4-3.68,14.6a8.25,8.25,0,0,1-1.78.76,2.52,2.52,0,0,0-1.79-1.39c-1.94-.33-4-.52-5.82.42a4.48,4.48,0,0,0-2.46,4c.06,2.85,2.42,4.86,4.94,5.89,2.37,5.82.37,12.53-2.66,18.1-1.12-.21-2.25-.35-3.51-.59a3.4,3.4,0,0,0-1.38,0h0a3.13,3.13,0,0,0-1.9,1.28l0,0a3,3,0,0,0-.33.64l0,.07a2.89,2.89,0,0,0-.11,1.41s0,.08,0,.13a3,3,0,0,0,.24.69l.07.13a3.51,3.51,0,0,0,.47.69c.47.53,1,1,1.46,1.5l0,0c.77.77,1.57,1.5,2.38,2.22a3,3,0,0,0,.44,1.67,17.79,17.79,0,0,0,2,2.83,54.7,54.7,0,0,0,8.79-2.53,2.09,2.09,0,0,1,.09.28,2.27,2.27,0,0,1,0,.51l5.22-1.39c2.25-.59,4,.91,5.33,2.16,1,.9,1.44,1.21,2.54.64.68-.35,1.48-.48,2.12-.89,2.34-1.47,5.64-1.36,7.12-4.53,2.8,2.42,5.62,1.71,8.45.21.91-.48,7.25,1.16,7.74,2,.2.35.13,1,.4,1.15s1.21.58,1.5.38a20.11,20.11,0,0,0,4.48-3.61c1.82-2.32,4.19-2.52,6.74-2.55,3.8-.05,7.62.1,11.4-.22,4.58-.38,9.1-1.11,13.23-3.53a6.93,6.93,0,0,1,6.48.1,18.67,18.67,0,0,1,2.07,1c.73.46,1.39,1,2.09,1.55l-.32.54.56.27c2,1,4.17.73,6.24,1.69,1.91.88,4.79,1.21,6.39-1,2.1-2.93,3.74-6.1,3.51-10-.16-2.75.27-5.09,4.17-4.66,1.35.15,1.85-.53,2-1.81.34-3.91.74-7.82,1.13-11.73a2.14,2.14,0,0,1,.35-1.18,5.43,5.43,0,0,0,1.09-6.71,8.91,8.91,0,0,0,.86-3c0-.26,0-.6.19-.75,1.4-1.28,2.66-2.87,4.3-3.68a7.58,7.58,0,0,0,4.23-5.12,79.32,79.32,0,0,0,2-8.51A4.59,4.59,0,0,0,336.24,199Z"/><path class="cls-2" d="M337.14,198.11c-2.44-2.41-5.19-4.48-7.62-6.9-1.19-1.18-5-4.27-4.54-5.94-.07.23.82.15,1-.24,1.56-4,1.52-7.05-1.73-10.36l-.26,2c3-1.84,6-3.59,8.81-5.66a1.29,1.29,0,0,0,.26-2,73.37,73.37,0,0,0-6.88-5.4c-2.09-1.35-4-.87-6.17-1.78l.3,2.33c2.2-1.49,12.28-7,9.13-11-1.69-2.14-7.39-1.13-9.58-1.32-1.08-.09-2.16-.2-3.22-.37-2.35-.39-3.36-1.54-5.32-2.83a6.31,6.31,0,0,0-1.79-1.14c-2.64-.78-6,1.32-8.33,2.42-1.58.75-3.05,1.84-4.8,2.14-.95.17-1.84-.21-2.79,0-2.12.51-2.88,3.05-4.68,3.48a22.07,22.07,0,0,1-4.61-.37c-.46-.62.52-3.38.61-4.14.07-.6-.46-1-.94-1.23-1-.43-1.25-1.93-2.44-2.34-.95-.33-1.87.45-2.72,0l.46,1.75c1.37-3.15,4.86-6.08,4.46-9.91-.33-3.16-4.62-2.08-5-4.39-.17-1.12,1.3-2.61,1.23-3.95a5.06,5.06,0,0,0-.86-2.28c-1.18-2.39-2.1-3.24-2-5.89a19,19,0,0,0,.39-2.62,3.19,3.19,0,0,0-.94-2.34c-1.39-1.39-3.84-.68-5.44-1.72s-1.62-1.85-3.37-2.43c-6.67-2.22-10.17-5.56-14.92-10.6-3.49-3.7-8.3-3.74-12-7a21.11,21.11,0,0,0-5.72-4c-2.62-1.22-3.65-.75-2.17-3a1.25,1.25,0,0,0,0-1.29c-1-1.49-2.34-2-4-2.56v2.46l2.23-.79A1.3,1.3,0,0,0,232,85c-.92-2-3.29-4.07-5.67-3.43-2.71.74-1.63,3.56-3.49,4.38-1,.43-.68,1.71,0,2.2l1.69,1.22.3-2.33-1.4.44a1.31,1.31,0,0,0-.94,1.23,15.72,15.72,0,0,1-2.15,7.53c-.5,1,.57,0-.65,1.72-1.08,1.49-1.28,1-3,1.55a13.06,13.06,0,0,0-2.67,1.56c-1.85,1.15-2.95,1.12-4.92,1.6-1.12.27-1.78,1.1-2.72,1.47-1.58.62-2.67-.11-4.62-.68a41.09,41.09,0,0,0-7-1.41,27.91,27.91,0,0,0-11.48.85c-5.32,1.63-10.46,0-15.9-.64-3.34-.39-8.88-2.05-11.8.36-2.24,1.85-1.3,4.38-1,6.84l1.23-1.61c-3.49.3-7.59-1.92-10.88-.37-1.27.6-2,2.09-3.26,2.71s-.91.9-2,.09c-.67-.49-1.5-2.63-1.88-3.29a1.32,1.32,0,0,0-1.44-.59l-.53.1a1.28,1.28,0,0,0-.94,1.23l.4,6,1.28-1.28-2-2.11a3.67,3.67,0,0,0,.64-1.69c-.07-.26-.08-.6-.15-.88a3.53,3.53,0,0,0-1.59-2c-1.24-.92-2.89-.93-4.12-2.06-1.69-1.57-3.17-3.6-4.73-5.32a1.28,1.28,0,0,0-1.55-.2c-5.07,3.53-10.06,5.18-15.59,1.71a1.29,1.29,0,0,0-1.55.2c-.65.7-2.89,4.34-4,4.09a1.3,1.3,0,0,0-1.44.59c-1.3,2.92-4.13,4-7.32,4.36-2.42.24-4.82-1.2-7.15-.57-1.54.42-2,1.31-2.75,2.49s-2.69,2.38-3,3.84c-.34,1.61,1,2.31,1.59,3.6.79,1.8.27,3.38,1.81,5,.72.76,1.93,1,2.63,1.77,2.26,2.36.58,1.78.48,3.59a8.83,8.83,0,0,0,.51,4.33c1.15,2.86,1.25,4.4-1.5,6.7a23,23,0,0,0-2.75,3c-3.22,3.68-8.17,4.11-12.49,5.77-3,1.17-6,2.65-8.88,4.1-6.83,3.37-14.17,5.47-21,8.74-3.21,1.53-5.48,3.82-9.11,4.35-2.23.33-3.4.12-4.82,2-1.88,2.5-2.17,5.88-4.15,8.37A46.36,46.36,0,0,0,18,183.95c-1.85,3.48-4.5,6.94-5.92,10.61-.71,1.83-.77,2.74.48,4.21a1.29,1.29,0,0,0,2-.26,11,11,0,0,1,1.08-1.59h-1.8a20.35,20.35,0,0,1,4.7,7.68,1.28,1.28,0,0,0,2.51-.34c0-.58.28-2.58-.06-3.27-.24-.49-.67,0,0-.29L19,199.94A19.92,19.92,0,0,0,21.18,205a4.41,4.41,0,0,0,4.45,2.13c2.78-.54,3-3.95,6.08-4,1,0,2.09,1,3.07,1.22,1.41.36,1.82-.16,3.09.07,2.22.4,4.2,1.94,6.49,2.82s4.3.52,6.59,1c3.07.63,6.27,2.5,9.27,3.48l.68-2.46h0a1.28,1.28,0,0,0-.68,2.46c4.29,1.28,8.59,3.81,13.14,3.62,3.47-.14,5.91-.7,9.19,1.08,2.87,1.55,5.22,3.87,7.76,5.87s5.87,4.43,9.21,2.76c5.55-2.79,9.89-9.31,14.81-13.13h-1.8c3.24,3.09,6,1.94,9.07-.78a14.54,14.54,0,0,0,3.95-4.87c.62-1.49,1.34-11,4.58-9.26a1.29,1.29,0,0,0,1.55-.2l.36-.46-2-.26c2.42,3.78.25,8.06,1.84,12,1.32,3.28,4.26,3.36,6.55,5.48,1.77,1.64,2.57,2.81,5.53,1.61,4-1.62,5.71-2.51,9.38-.64,3.15,1.61,4.51-.16,7.33-1.61,4.66-2.4,9.87-1.13,14.65-2.43,2.16-.59,3.8-2,6.26-2,1.49,0,3.19.29,4.69.34.56,0,2.89-1.4,3,.31a1.29,1.29,0,0,0,2.38.64c.69-1.36,3.41,1.08,4.16,1.34a32.92,32.92,0,0,0,7.75,1.12c2.49.18,12.69-5.34,12.75-.27a1.33,1.33,0,0,0,.94,1.23c-.94-.37-1.75,7-1.92,7.78-.3,1.41-.76,4.34-2.4,4.9-.28.09-1.22-.83-1.63-.81-3.71.15-8-.77-9.56,3.78-1.39,4.05,1.68,5.8,4,8.27,2.56,2.72,1.74,7.28.78,10.61-.44,1.52-1,4.56-2.42,5.2-1,.45-2.79-.07-4-.05a1.28,1.28,0,0,0,0,2.55h0l-.64-2.38c-2.47,1.07-3.77,3.38-2.58,6,.7,1.55,2.38,2.44,3.4,3.73,1.37,1.73,2.23,3.78,3.66,5.58a1.27,1.27,0,0,0,1.24.33,68,68,0,0,0,8.79-2.53l-1.57-.89.09.45a1.29,1.29,0,0,0,1.61,1.23c2.17-.59,5.67-1.91,7.76-.83.68.35,1.78,1.86,2.66,2.16a3.73,3.73,0,0,0,3.21-.14c3.47-1.19,7.46-2.59,9.47-5.79l-1.75.46c4.83,3.31,8.81-.7,13.82,1.14,3,1.11,3.23,4,6.76,1.79,2.82-1.75,4.58-4.77,8.12-5.13,4.18-.42,8.46.08,12.66-.26a40.66,40.66,0,0,0,8.78-1.5c1.24-.38,2.33-.94,3.53-1.38q4.1-2.49,7.82-.25a5.53,5.53,0,0,0,2.33.88,1.29,1.29,0,0,0,.46,1.75,31.84,31.84,0,0,0,9.6,2.75c3.23.29,5.05-1.6,6.6-4.21a17.36,17.36,0,0,0,2.15-5.2c.53-2.5-.35-4,1.71-5.7,2.3-1.94,4-1,4.7-4.28.63-2.84.34-5.93.84-8.8.4-2.32,1.52-4.14,2.17-6.31.46-1.52,0-3,.08-4.54.08-3.16,1.73-4.57,4.21-6.32,3.38-2.39,4.45-4.37,5.5-8.42.92-3.55,2.29-7.09.2-10.4-.88-1.38-3.08-.11-2.2,1.29,2.64,4.18-1.47,13-4.78,15.33-1.7,1.2-3.92,2.55-4.89,4.44-1.5,2.93-1.06,6.82-1.81,9.91a55.84,55.84,0,0,0-1.32,7.95c-.13,1.35-.08,5.5-1.23,6.4,0,0-2.62.19-2.81.27a4.09,4.09,0,0,0-2.37,2.53c-1.19,3.27.23,6.68-2,9.89-3,4.4-8.84,3.21-13.1,1.2l.46,1.75.32-.54a1.29,1.29,0,0,0-.2-1.55c-4.62-3.58-8.46-4.45-13.75-2-8.31,3.8-16.73,1.26-25.24,2.95-2.79.55-3.75,1.93-5.79,3.75-2.71,2.41-2.61,1.58-4.78.27a13.91,13.91,0,0,0-6-1.61c-3.52-.09-5.3,2.68-9.25,0a1.29,1.29,0,0,0-1.75.46c-1.37,2.18-3.92,2.84-6.14,3.8-2.86,1.24-3,.92-5.24-.59-3.35-2.29-6.57-.76-10.2.22l1.61,1.23a4.71,4.71,0,0,0-.18-1.12,1.29,1.29,0,0,0-1.57-.89c-1.51.55-5.41,2.58-7,2.15-5.06-1.39-1.57-2.27-3-3.78-1.64-1.73-6.88-4.92-2.53-6.8,1.21-.53.53-2.38-.64-2.38h0v2.55a27.46,27.46,0,0,1,4.55.52,1.32,1.32,0,0,0,1.44-.59c2.27-4.39,4.15-9.21,3.84-14.25-.09-1.41-.27-4.07-1.18-5.14-.57-.68-.75-.34-1.69-1.06l-2.5-2.27q1.56-8,7.32-4.06a1.24,1.24,0,0,0,1.24.33c5.89-2.12,5-11.16,6.34-16.26a1.32,1.32,0,0,0-.59-1.44c-1.1-.73.19.37-.33-1.38a3.43,3.43,0,0,0-1.61-1.88c-2.81-1.9-7-.29-9.89.52-4.91,1.39-8,.6-12.66-1.21-2.15-.84-3.72-1.07-4.9,1.24l2.38.64c-.11-2.89-1.73-3.48-4.3-3.29s-5.3-.22-7.82.12c-2,.27-3.42,1.64-5.19,2.07-4.51,1.08-9.09.29-13.56,2.05-1.55.61-3.41,2.65-5,2.7-1.35,0-2.35-1.41-3.6-1.83-2.78-.94-5.59.55-8.31.93-3.94.54-9.53-2.51-10.15-6.85-.54-3.75.6-6.76-1.59-10.19a1.29,1.29,0,0,0-2-.26c.51-.66-1.59-.37-2.16-.12-1.48.65-2.9,3-3.56,4.39-1.07,2.2-.44,4.61-1.42,6.78s-6,7.14-8.75,4.52a1.32,1.32,0,0,0-1.8,0,83,83,0,0,0-6.43,5.62c-1.89,1.81-3.92,4.61-6.23,5.87-5.47,3-10.38-3.67-14.28-6.29a14.15,14.15,0,0,0-10.25-2.72c-4.9.46-9.68-1.91-14.43-3.33l-.68,2.46h0a1.28,1.28,0,0,0,.68-2.46c-3.49-1.13-7.09-3.22-10.61-4-2.39-.53-3.93.21-6.47-1a48.18,48.18,0,0,1-4.67-2.73,1.27,1.27,0,0,0-1.29,0c-2.17,1.3-4.7-1-6.83-1.08-1.68-.06-2.16.66-3.51,1.29-1.76.81.5,5.05-4.5.73a10.11,10.11,0,0,1-.72-.87,20,20,0,0,1-.81-2.33,1.3,1.3,0,0,0-1.87-.76,4.35,4.35,0,0,0-1.24.88,1.32,1.32,0,0,0-.2,1.55,7.82,7.82,0,0,1,.29,3.34l2.51-.34a23.22,23.22,0,0,0-5.36-8.8,1.29,1.29,0,0,0-1.8,0,14.6,14.6,0,0,0-1.48,2.11l2-.26c-1.15-1.34,6.21-12.41,7-14,1.56-3.14,4-5.5,5.43-8.72.64-1.44,1-3.48,2-4.68,1.43-1.69,3.58-1.09,5.48-1.63,4-1.14,7.39-4.21,11.29-5.74s8.16-3.06,12.16-4.78c4.9-2.11,9.49-4.88,14.51-6.72,3.38-1.24,8.12-1.51,11-3.62,1.17-.85,1-1.22,1.94-2.26a55.17,55.17,0,0,0,4-4.15c1.06-1.51,2.6-4.66,2.22-6.52-.19-.91-.65-1-.91-1.74a11.29,11.29,0,0,1-.38-4.55c0-.4.55-.76.47-1.21-.56-3.11-3.35-3.28-4.76-5.92-.67-1.24-.58-2.37-1.19-3.55-.05-.1-.86-1.12-.86-1.1-.26-1.38.08-.54.64-1.59.22-.42.9-1.45,1.2-1.88,1.61-2.36,2.11-1.25,4.47-.75a6.8,6.8,0,0,0,2.7.14c1.42-.23,3-.88,4.46-1.13,1.17-.2,1.73.17,2.77-.41,1.48-.85,2-2.85,3.07-3.65.5-.35,1.33-.38,1.92-.8,1.53-1.11,1-3.17,3.14-3,1.47.13,3,1.23,4.56,1.38a12.72,12.72,0,0,0,4.49-.38c1.68-.45,4.45-2.77,5.83-2.74,1.91,0,3.06,2.23,4.31,3.63a30,30,0,0,0,2.54,2.34c.28.25,1.14.25,1.41.5,2.07,1.91.21,1.86.69,3.54.71,2.52,2.18,3.48,4.74,3.58a1.28,1.28,0,0,0,1.28-1.28c-.07-1,.28-4.67-.91-4.31s1.24,3.43,1.75,4.32a1.29,1.29,0,0,0,1.44.59c1.89-.6,2.89-2.2,4.49-3.29,3.51-2.37,7.36-.26,11.21-.59a1.3,1.3,0,0,0,1.23-1.61c-1-7.22,11.17-3.89,15-3.29,2.74.43,5.87,1.56,8.63,1.25,1.82-.2,3-1.42,4.73-1.95a19.78,19.78,0,0,1,6-.43,42.15,42.15,0,0,1,14.63,3.32,1.28,1.28,0,0,0,1.44-.59c1.18-2.24,5.68-2,7.75-3.42a15.25,15.25,0,0,1,5-2.34,4.16,4.16,0,0,0,2.29-1.21,3.77,3.77,0,0,0,.55-1.51c.09-.37-.18-.84-.09-1.19.25-1,.69-1.17,1-1.94.41-1.06.58-5.68,1.5-6a1.29,1.29,0,0,0,.3-2.33l-1.69-1.22v2.2l2.08-.92a1.27,1.27,0,0,0,.59-1.44q1.47-3.27,3,.49l.76-1.87-2.23.79a1.29,1.29,0,0,0,0,2.46c3.45,1.25,0,1.33.81,3.74.34,1,1.51,1.38,2.31,1.79,2.63,1.36,5,2.18,7.22,4.23,1.24,1.16,2.26,2.54,3.78,3.38,1.77,1,3.83.71,5.62,1.56,3.95,1.88,6.41,6.89,9.88,9.55,3.32,2.55,7.23,3.2,10.6,5.35a13.17,13.17,0,0,0,2.68,1.68c2,.72,3.14.52,3.47,2.78.18,1.21-.17,2.57,0,3.83.23,1.55,1,2.47,1.49,3.86.73,2.09-.08,2.8-.07,4.56a24.58,24.58,0,0,0,.52,3.33,1.25,1.25,0,0,0,.89.89c3.66,1,4,2.08,1.84,5.55a30.52,30.52,0,0,0-2.34,4.19,1.31,1.31,0,0,0,.46,1.75c1,.55,1.93.34,2.66.65s1.48.39,2,1.4c.57,1.21-.48.23-.84,2.66-.69,4.62,6.1,3.39,8.5,4.14a1.31,1.31,0,0,0,1.44-.59,8.41,8.41,0,0,1,3.76-3.28c.31-.11.93.46,1.37.32a32.65,32.65,0,0,0,3.89-1.67c1.92-.91,4.29-2.64,6.45-2.89,2.45-.29,3.38,1.17,5.13,2.23,2.59,1.56,6.06,1.66,9,1.86a27.73,27.73,0,0,1,3.94.16c2.37.53,2.11,1.12.61,2.73-1.81,1.95-4.2,3.12-6.37,4.59a1.3,1.3,0,0,0,.3,2.33c.6.25,1.05.31,1.63.51a16.12,16.12,0,0,1,4.94,2.62c1.71,1.25,3.73,2,5.36,3.4l.26-2c-2.81,2.06-5.85,3.81-8.81,5.66a1.29,1.29,0,0,0-.26,2c1.78,1.82,3.42,5.67.63,7.63a1.35,1.35,0,0,0-.59,1.44c.85,5.86,9,10.59,12.87,14.37C336.5,201.07,338.31,199.27,337.14,198.11Z"/></svg>