<svg id="Layer_1" data-name="Layer 1" xmlns="http://www.w3.org/2000/svg" viewBox="0 0 350 350"><defs><style>.cls-1{fill:#999;}.cls-2{fill:#f90;}</style></defs><title>M</title><path class="cls-1" d="M337.84,194.22c2.43-2.32,3.51-4.22,2.7-7.68a1.52,1.52,0,0,0-2.51-.66l-.1.08-.5-.4a16.32,16.32,0,0,0-3.22-2.53l-3.58-2.82-.61.68c-2.16-1.29-4.33-3.54-6.79-3.54a5.68,5.68,0,0,0-.79.06L321,176.33l-.52.7a1,1,0,0,1-1,.41,1,1,0,0,1-1-.21,8.36,8.36,0,0,1-1.12-1.42l-1.2.8c-.59-.59-1.1-1.32-1.94-2.12-2.47-2.36-5.66-3.56-8.83-4.66l-5.79-4.52c.76-5.41.52-5.85.3-6.23a2.35,2.35,0,0,1-.1-.25,2.85,2.85,0,0,0-1.87-2,3,3,0,0,1-.37-.15,6.29,6.29,0,0,0-1.7-.53l.26-.51a12.76,12.76,0,0,0,.59-1.23,3.14,3.14,0,0,0-.12-2.6,18.25,18.25,0,0,0-2.13-3l-.27-.35-.42-.12-7.6-2.23a18.12,18.12,0,0,1-2-.79,4.38,4.38,0,0,1-.25-1.89,10,10,0,0,1,.6-2.78,8.66,8.66,0,0,0,.4-1.5,1.74,1.74,0,0,1,.36-.8l1-.44a22.93,22.93,0,0,0,3.36-1.67c.36-.29,1.12-1.06,1.35-1.29l3.2-4.12,8.52-4.26-3.46-.91s-2.65-.69-3.56-1a3.68,3.68,0,0,1-1.16-1.26l-.1-.59-.65-.31a1.62,1.62,0,0,0-1.63.22,2,2,0,0,1-1.6.4c-.65-.2-1.44-.43-1.89-.54-3.92-2.31-4.21-2.39-4.38-2.44-2.13-.61-5.79-1.63-6.41-1.52a1.15,1.15,0,0,1,.43,0,18.79,18.79,0,0,1-1.88-.85l-.73-.36-.66.47a4.3,4.3,0,0,1-1.84.79,17.16,17.16,0,0,1-3.08-.53l-11.87-1.28-1.94-3.2-1.13.62s-4.48,2.42-8.3,1.54c.67-1.64,1.49-4.19,1-5.92-.56-2.06-1.25-4.93-1.26-5l-.18-.73-.71-.23c-.35-.11-3.43-1.12-4.52-1.35l-1.31-.25a35.56,35.56,0,0,0-5.61.82c-2.42.6-4.41,2.33-6.82,2.84-1.49.32-3.16-.6-4.65.2-1.07.57-1.56,2.09-2.77,2.55-6.14,2.37-6.35-7.33-7-11.9-4.57,4.23-9.47,10.92-14.86,5.3a20.45,20.45,0,0,1-3.21,3.59,1,1,0,0,1-1.41,0c-2.59-2.92-3.63-6.33-5.57-9.64-2.39-4.07-6.31-6.29-9.85-9.19-3.26-2.67-5.08-6-6.73-9.8-3.6-8.39-6.49-18.79-4.85-28,1.61-9,9.43-12.08,17.46-8,3.59,1.84,5.83,4.44,8.7,7.12,2.25,2.1,5.62,2.42,7.48,4.91,2,2.71,1.31,6.78,4.63,8.67,1.75,1,4,1.18,6.08,1.5a8.56,8.56,0,0,0-1.07-1l.09-.44,2.23-4.7,7.79-2.87c.75-.27,3.85-1.14,5-1.46l.32-.09,4.45-4.14,0-.55c.1-1.89,0-5.22-1.43-6.28-1-.75-4.6-1.39-7.17-1.76a8.91,8.91,0,0,0-2.11-4,28.85,28.85,0,0,1-2.87-3.74l-.21-.35-4.46-2.06-.58.29s-3.92,2-4.76,2.34c-.59.26-4.22,1.45-6.37,2.13l-.12,0a27.8,27.8,0,0,1-9.75,1.76h-.13c-.94-5.41-1.74-7.26-2.68-8.42a9.37,9.37,0,0,0-4.25-3,11.27,11.27,0,0,1-1.92-.95,15.21,15.21,0,0,0-3.69-1.65c-1.73-.43-2.36-1.22-2.4-1.53-.11-.92-.7-4.47-.88-5.53l1.38-4.92-.78.36c-.82.41-1.65.8-2.49,1.18l-1.17.79-4.31,5a20.9,20.9,0,0,0-3.73,1,8.43,8.43,0,0,1-1.52.43,4,4,0,0,0-2.83,1.68,9.55,9.55,0,0,0-.9,1.41c0,.07-.06.13-.09.17l-.17.12c-.8.53-3.76,2.65-3.89,2.74l-4.35,3.76a4,4,0,0,0-4.07,3l-.37,1.85L142.29,37c-.92-.12-2.26.16-3.8,1.9s-3.64,3.95-4.29,4.63c-2.16.76-5.42,1.86-6.33,2-1.38.26-7.94,1.93-8.32,2.06s-.58.19-5.19,5.08l-.14.15-2,4-6.5,4.68-4,6.22,5.47-1,2.54,4.89,13.72-4.91,1.66.31a7.45,7.45,0,0,0,1,2c-.72,1.46-2.83,5-4.79,8l-4.17,1.37-1.81-.68-1.28,1.39-1.2.23-4.68-4-4.36-.82-6.35-3.33,4.76,13.56,5.92,4.91L120,93.38A64.63,64.63,0,0,1,138,90.91c3.71,0,12-.29,14.79,2.74,1.59,1.73.4,2.92-1.48,3.61-2.4.89-5.27.54-7.75.6s-4.94.24-7.4.22l-1.28.09-.65,0-1.62,2.33a4.15,4.15,0,0,0,0,2.15c.95,3.46,5.08,3.67,8,3.63,4.38-.06,8.67-1.36,13.07-1.17,2.4.1,8.93-.54,7.87,3.23-1.3,4.62-10,5.13-13.54,5.73-3.35.57-9,1.4-13.14,3.38l1.6.59-1,6.63L154,132l-2,3.3.23.62a25.62,25.62,0,0,1,1.06,3.36c0,.23-.09.6-.19,1.35-.75,6-1.35,7.69-1.67,8L148,150.9l2.75,5,.43.18c2.31,1,5.26,2.12,6.17,2.12h0a16.27,16.27,0,0,1,2.7,1c-1,3.29-2.87,9.94-2.87,11.24a17.1,17.1,0,0,1-1,3.85l-6.45,5.6c-.17.17-4.15,4.06-5.3,5.3a20.76,20.76,0,0,1-4.25,2.69l-1.86.93,2.6,2.13c-1.91,3-3.88,5.94-4.72,7.11l-3.57-.66-.88-.17L121.85,212l-2.2.57-.08.22c-1.43-.71-2.71-1.34-2.88-1.44-.32-.22-.6-.4-4.16-.4h-.69l-.4.56c-2,2.78-4.27,5.87-4.7,6.34-.23.2-.74.78-2.57,4.4l-7.3,4,3.61,4.81.52,4.51-7.23,11.51L91,245.65l-.5.13c-6.45,1.69-6.86,3.24-7,3.76a94.86,94.86,0,0,0-.39,10.28c-3-2.31-8.14-6.29-10-7.49a11.27,11.27,0,0,1-1.24-.94c-2-1.71-3.48-2.24-8,.2l-1.85,1,3.89,2.92-.57,1-.92,2.85.22.31L60,265.93l-2.05.86-4,9.5a6.13,6.13,0,0,1-.81,1l-10.32-9.1-3.48,7.54,1.27,1.87-.5,1.46,5.27,4.86L40.16,291l-.32-.14-.38,0a7.91,7.91,0,0,0-2.19.48,12.5,12.5,0,0,0-1.78,1.38c-.62.51-1.65,1.38-1.89,1.52a10.22,10.22,0,0,1-1.27.52l-.29.1-.22.21s-1.08,1-1.55,1.46a12.25,12.25,0,0,1-1.38.89,3.68,3.68,0,0,0-1,0c-.67.1-.75.11-4.44,5.07-1,1.3-3.35,4.55-3.54,4.87a1.63,1.63,0,0,0-.21,1l-5.88,7.76v.45c0,.44,0,.94,0,1.31l-.82.5-1.51.9,1,1a1.3,1.3,0,0,0-.14,1.66c1.3,1.88,2.86,3.78,4.21,5.77a6.39,6.39,0,0,0-1.32,3.71,9.52,9.52,0,0,0-3.71.42c-1,.52-1,1.2-1.13,1.85a5.81,5.81,0,0,0-.51.33c-.93.68-1,2.48.36,2.74l.49.09a1.51,1.51,0,0,0,1.46-.39,2.33,2.33,0,0,0,.26-.43c1.55-.63,3.25-.54,4.58-1.4a22.34,22.34,0,0,0,5.47,4.51,1.51,1.51,0,0,0,2.2-.9l.1-.75a1.2,1.2,0,0,0,.63-.86,11.23,11.23,0,0,0,0-4l.46-3.33c.84.34,2.31.83,3.1.44a1.48,1.48,0,0,0,.66-.64l2.77,2,3.06-4.67-1.27-1.52,1.09-1.44,2.46,1.25.69-.7a29.82,29.82,0,0,1,2.66-2.48,10.16,10.16,0,0,0,2.22-2.59,2.31,2.31,0,0,1,1.49-.44,8.15,8.15,0,0,0,3.7-.91l.83-.35c1.39,0,1.89-1.37,2.19-2.18.08-.22.2-.55.24-.61.41-.44,2.83-3.38,4.16-5l3.21,2.52L64.38,306l3.93.46.43-.31c5.8-4.25,5.83-4.36,6-5,.07-.35.12-.58-.79-3.16l-.08-.23-3.2-3.83,7.3-7.86,6.36,1.26,3.46,1.95.58-.22,3.22-1.18c.32-.11.88-.34,1.44-.56s1.08-.43,1.32-.52a7.82,7.82,0,0,0,3-1A16.86,16.86,0,0,1,103,284.7a19.62,19.62,0,0,1,5.35.86l.6.19,1.3-.85a22.09,22.09,0,0,0,2.54-.8c2.54-.92,5-4.59,5.23-5l.3-.46-.5-2.38,1.45-1.66c1.65-.36,3.46-.73,4.07-.82a12.67,12.67,0,0,1,1.72,1.41l1.1,1,4.25-5.67-1.11-1.05.53-1.51-1.7-1.55.88-1.12,2.43,1.12,4.25-3.17,0-.62c0-.09.13-2.11.13-3.06a8,8,0,0,0-.47-2.15,13.14,13.14,0,0,1-.63-2.76,4.41,4.41,0,0,1,.8-2.44c.54-.23,1.62-.66,2.47-1a5.64,5.64,0,0,0,2.3-1.87l7.39,4.43.73-1a26.73,26.73,0,0,1,2.18-2.6,27.61,27.61,0,0,0,2.1-2.24l.31-.36.07-3-.43-.41s-.74-.7-1.45-1.3a12.19,12.19,0,0,1,.26-3l2.9-4.19a26.3,26.3,0,0,0,4.08-.26c.17,0,.86-.14,1.37-.2a29.93,29.93,0,0,0,3-.48l.14,0a65.15,65.15,0,0,0,7.62-2.1,37.1,37.1,0,0,1,6.54-.85,61.28,61.28,0,0,0,7.71-2c2.68.23,3.3.12,3.62,0s.65-.09,1-.12a13.1,13.1,0,0,0,2.19-.35c.77-.19,6.9-.63,8.23-.68a21.64,21.64,0,0,1,2.23,1.48l.74.55,6.82-4.25.12-.09c.71-.56,2.41-1.92,2.84-2.39a18.32,18.32,0,0,0,1.91-3.89c.19-.29,1.13-1.46,2.07-2.6l.52.15.47-.22c.7-.33,1.61-.73,1.84-.79a7.73,7.73,0,0,0,.75-.28,7.55,7.55,0,0,1,2.55-.75,23.79,23.79,0,0,1,4.07,4.48l3.56,4.78L229.22,219a7.32,7.32,0,0,1,.08-1.4,19.31,19.31,0,0,1,4-3.63l1.19,1.08,3.06-3.72,1.36.68,2.31-2.6,1.39.72,2.81-4,1.13.85,2.17-2.36.55.3,1.23-.58,1.27,1.09,1.07-1.22,1,.66.91-1,1.55,1,1.83-2.36,1.35.83.87-1.11,1.24.58,1.65-1.81.68.44,1.37-1,7.12,6.14-1.31,5.66,10.24-6-1.92-1.47,1.11-1.74-1-.73,3.07-4.12-.86-1.34,4.84-6.19.7.55,2.34-2.3.95.55,2.23-1.73,1.08.47,2.26-2.07.93.15,3.76-.87.22.34c.2.82.58,4.81.84,8.32l0,.5,3.32,3.32,1.9,0c.08.55.15,1.09.21,1.61.19,1.49.14,3.47,1.54,4.39a2.26,2.26,0,0,0,2.76-.17c2.43-1.62,2.85-5.52,6.76-4.84a1.55,1.55,0,0,0,1.74-1l.1,0a9.59,9.59,0,0,1,1.81.34,9.87,9.87,0,0,1,5.58-.58,1,1,0,0,1,.73,1c.3,2.69-.14,5.45.78,8a1.45,1.45,0,0,0,1.81-.24,6.32,6.32,0,0,1,5.35-2.29,1.5,1.5,0,0,0,1.45-1.1,5.24,5.24,0,0,0-.25-3.12C336.35,196.93,335.12,196.83,337.84,194.22Z"/><path class="cls-2" d="M23.24,340.76a2.89,2.89,0,0,1-1.46-.38,23.73,23.73,0,0,1-5.08-4,12.49,12.49,0,0,1-2,.51c-.46.09-.91.18-1.33.31l-.14.18a2.88,2.88,0,0,1-2.81.87l-.48-.09a2.62,2.62,0,0,1-2.14-2,3.23,3.23,0,0,1,1.2-3.24l.08-.06a3.11,3.11,0,0,1,1.75-2.24A7,7,0,0,1,14,330a7.53,7.53,0,0,1,.87-2.28c-.54-.76-1.12-1.52-1.67-2.26-.67-.89-1.37-1.81-2-2.72a2.66,2.66,0,0,1-.42-2.17L9.18,319l3.1-1.84.13-.08c0-.17,0-.35,0-.52v-.93l5.87-7.76a3.07,3.07,0,0,1,.4-1.26c.29-.52,3.6-5,3.63-5,3.73-5,4-5.44,5.38-5.63a4.28,4.28,0,0,1,.9,0c.41-.25.68-.43.76-.49.44-.41,1.5-1.42,1.5-1.42l.45-.43.59-.2a9,9,0,0,0,1.05-.43c.15-.1,1.17-1,1.61-1.33a12.5,12.5,0,0,1,2.09-1.6,8.63,8.63,0,0,1,2.64-.62l.24,0,4-5.41-5-4.62.57-1.66-1.33-1.94,4.62-10,10.56,9.31,3.95-9.44,2.23-.93,3.79-5.11,0-.05,1.21-3.72-4.68-3.51,3.8-2.05c5-2.69,7.06-2.16,9.58,0a9.9,9.9,0,0,0,1.09.83c1.47.93,4.77,3.42,7.87,5.81.09-6.59.32-7.44.41-7.78.38-1.42,1.63-3.09,8-4.76l1-.27,2.1,1.08,6.28-10-.42-3.63-4.36-5.81,8.36-4.53c1.64-3.22,2.22-4,2.63-4.37s2.27-3,4.56-6.17l.83-1.15h1.42c3.55,0,4.22.17,4.89.6l2,1,1.5-.39L131,195.62l1.81.35,2.66.5c.8-1.16,2.06-3.06,3.49-5.26l-3.31-2.71,3.81-1.91a20,20,0,0,0,3.85-2.38c1.21-1.3,5.31-5.31,5.35-5.35l6.23-5.42a15.6,15.6,0,0,0,.82-3c0-.4,0-1.57,2.57-10.41-.56-.22-.95-.35-1.12-.39-.5,0-1.76-.21-6.58-2.22l-.89-.38-3.61-6.57,4.2-2.8c.18-.45.68-2.06,1.33-7.22.07-.55.12-.91.15-1.16-.12-.49-.48-1.65-.95-2.88l-.48-1.27,1.51-2.45-18-7,1-6.6-3.69-1.35,3.05-1.45c4-1.91,9.25-2.78,12.7-3.36l.81-.14c.49-.08,1.08-.17,1.74-.26,3.43-.47,9.81-1.36,10.68-4.46.08-.29.08-.5,0-.61-.62-.82-3.86-.82-5.26-.81-.5,0-1,0-1.32,0a37.44,37.44,0,0,0-6.87.56,47.58,47.58,0,0,1-6.12.61c-2.2,0-8,.11-9.34-4.67a5.58,5.58,0,0,1,0-2.87l.06-.25,2.16-3.1,1.33-.09,1.26-.09h.12c1.49,0,3-.05,4.51-.12.94,0,1.89-.08,2.84-.1.63,0,1.27,0,1.93,0a15.25,15.25,0,0,0,5.36-.52c.94-.35,1.26-.69,1.3-.79a1.38,1.38,0,0,0-.37-.54c-2.18-2.37-9.45-2.32-12.94-2.29H138a63,63,0,0,0-17.52,2.41l-.41.12L107.52,91l-6.44-5.34L95,68.34l9.35,4.91,4.52.85,4.45,3.82h.07L115,76.15l2.24.84,3.22-1.05c1.68-2.65,3.26-5.27,4.08-6.77q-.21-.38-.4-.83l-.51-.1-14.52,5.2-2.62-5.06-7.64,1.37,5.89-9.18,6.43-4.63L113,52.07l.29-.31c4.85-5.14,5-5.2,5.76-5.45.47-.16,7.1-1.84,8.51-2.11.62-.12,3.08-.91,5.8-1.86.78-.81,2.55-2.68,4-4.35a6.18,6.18,0,0,1,4.21-2.39l1.67-2,.3-1.5A5.21,5.21,0,0,1,148.5,28l4.09-3.54s2.81-2,3.79-2.68a10.49,10.49,0,0,1,.94-1.46A5.37,5.37,0,0,1,161,18.1a7.09,7.09,0,0,0,1.29-.36,22,22,0,0,1,3.49-1l4.11-4.8,1.54-1q1.23-.55,2.44-1.15l3.61-1.67-2.12,7.57c.18,1.08.63,3.85.8,5a3.38,3.38,0,0,0,1.38.61,16.61,16.61,0,0,1,4,1.79,11.4,11.4,0,0,0,1.63.82,10.8,10.8,0,0,1,4.94,3.48c1,1.24,1.85,3,2.76,7.88a26.2,26.2,0,0,0,8.16-1.63l.18-.07c3-1,5.88-1.92,6.28-2.09.64-.29,3.36-1.64,4.71-2.31l1.19-.59,5.47,2.53.44.71a27.53,27.53,0,0,0,2.72,3.53A10.61,10.61,0,0,1,222.22,39c5.47.86,6.49,1.59,6.89,1.88,1.54,1.11,2.22,3.63,2,7.5l-.06,1.12-5.12,4.77-.65.18c-1.55.43-4.25,1.19-4.87,1.42l-7.25,2.67-1.7,3.58.46.47,2.71,3-4.89-.73a15.56,15.56,0,0,1-5.65-1.54c-2.49-1.42-3.16-3.76-3.74-5.83A9.9,9.9,0,0,0,199,54.17a8.92,8.92,0,0,0-3.52-2.39,14.26,14.26,0,0,1-3.79-2.33c-.6-.56-1.18-1.12-1.74-1.67a27.09,27.09,0,0,0-6.64-5.23c-3.74-1.91-7.39-2.17-10.3-.73-2.69,1.34-4.47,4-5.12,7.69-1.68,9.39,1.66,20,4.76,27.17,1.63,3.79,3.33,6.82,6.32,9.26.84.69,1.71,1.34,2.56,2,2.78,2.09,5.66,4.25,7.61,7.59.7,1.19,1.29,2.39,1.85,3.55a26.58,26.58,0,0,0,3.25,5.5,19.15,19.15,0,0,0,2.72-3.1l1-1.4,1.19,1.24a4.66,4.66,0,0,0,3.24,1.71h0c2.42,0,5-2.6,7.58-5.12.68-.67,1.35-1.34,2-2l2-1.84.38,2.68c.08.57.16,1.22.24,1.92.35,3.1.89,7.78,2.72,8.89.19.12.79.48,2.13,0a3,3,0,0,0,.94-.92,5.54,5.54,0,0,1,1.68-1.56,5.63,5.63,0,0,1,3.57-.39,4.89,4.89,0,0,0,1.46.05,12.94,12.94,0,0,0,3.15-1.31,16.5,16.5,0,0,1,3.62-1.52,36.91,36.91,0,0,1,5.84-.86l.19,0,.19,0,1.34.25c1,.21,3.33,1,4.63,1.38l1.5.5.36,1.49c.08.33.73,3,1.25,4.92a9.32,9.32,0,0,1-.44,5.07,14.29,14.29,0,0,0,5.67-1.57l2.32-1.27,2.28,3.76,11.37,1.24a16.13,16.13,0,0,0,2.73.48,4.42,4.42,0,0,0,1-.53l1.35-1,1.49.74c.78.39,1.45.68,1.63.75a57.91,57.91,0,0,1,6,1.52c.33.09.61.17,4.54,2.48l1.75.5s.14-.06.46-.25a3,3,0,0,1,3-.29l1.32.63.17,1a4,4,0,0,0,.41.47c.74.23,2.41.67,3.32.91l7.1,1.86L295.1,132l-3.1,4c-.3.31-1.06,1.07-1.48,1.41a19.9,19.9,0,0,1-3.65,1.85l-.52.24a10.17,10.17,0,0,1-.44,1.66,8.72,8.72,0,0,0-.53,2.4,4.58,4.58,0,0,0,0,.81c.41.17.87.36,1.18.46l7.59,2.22.87.25.55.72c2.09,2.73,2.18,2.95,2.32,3.3a4.51,4.51,0,0,1,.12,3.64l-.15.35.24.1.21.09a4.19,4.19,0,0,1,2.79,2.84l.05.13c.39.67.6,1.36-.05,6.24l5,3.88c3.35,1.17,6.56,2.44,9.12,4.9a17.58,17.58,0,0,1,1.2,1.29l1.38-.92.78,1.22a7.22,7.22,0,0,0,.73,1l.07,0h.12l.38-.52.86-1.17,2.12,1.63h.38c2.23,0,4.12,1.37,5.8,2.57l.74.53.69-.77,4.55,3.59a17.66,17.66,0,0,1,3.07,2.37,3.09,3.09,0,0,1,2,0,2.72,2.72,0,0,1,1.84,2c1,4.13-.48,6.51-3.1,9-1.36,1.3-1.36,1.3-.82,2.41a19,19,0,0,1,.78,1.8,6.64,6.64,0,0,1,.32,3.81,2.88,2.88,0,0,1-3,2.31,4.91,4.91,0,0,0-4.11,1.76,2.84,2.84,0,0,1-3.58.61l-.48-.26-.18-.51a16.85,16.85,0,0,1-.73-5.61c0-.87,0-1.69-.1-2.5a8.4,8.4,0,0,0-4.39.56l-.46.19-.48-.14a8.5,8.5,0,0,0-.84-.2,2.92,2.92,0,0,1-2.65.87c-1.59-.28-2.17.42-3.31,2a9.67,9.67,0,0,1-2.42,2.6,3.64,3.64,0,0,1-4.33.17c-1.73-1.15-1.94-3.2-2.08-4.7,0-.24,0-.47-.07-.69l0-.39-1.25,0-4.1-4.1-.08-1c-.23-3-.48-5.67-.66-7.08l-2.71.63-.53-.09-2.43,2.23-1.15-.5-2.32,1.8-.84-.49-2.46,2.42-.56-.44L283.43,197l.85,1.32L281.49,202l.94.68-1.14,1.77,2.56,2L269,215.16l1.85-8-5.63-4.85-1.25.89-.48-.31-1.54,1.69-1.17-.54-1,1.22-1.34-.82-1.86,2.41L255,205.71l-.89,1-1-.66-1.19,1.35-1.64-1.4-1.06.49-.21-.12-2.29,2.49-1-.74L243,212l-1.51-.78-2.29,2.59-1.33-.66-3.29,4-1.41-1.28a21.17,21.17,0,0,0-2.52,2.28c0,.39,0,.62,0,.72L233,230.68l-7.31-9.82a31.86,31.86,0,0,0-3.35-3.87,13.87,13.87,0,0,0-1.48.55l-.1,0a8.85,8.85,0,0,1-.92.34c-.12,0-.84.35-1.6.71l-1,.45-.13,0c-.65.79-1.08,1.34-1.28,1.61a18.85,18.85,0,0,1-2.14,4.2,32.46,32.46,0,0,1-3,2.56l-.19.13-7.7,4.8-1.51-1.12c-.68-.5-1.34-.94-1.73-1.18-1.92.1-6.9.48-7.55.62a13.6,13.6,0,0,1-2.33.38l-.8.09c-.61.22-1.49.29-3.85.09-6.63,2-7.53,2-7.87,2a40.48,40.48,0,0,0-6,.73,64,64,0,0,1-7.84,2.17l-.13,0a31.35,31.35,0,0,1-3.16.51c-.5.06-1,.13-1.2.17a15.75,15.75,0,0,1-3.67.29l-2.31,3.34a15.2,15.2,0,0,0-.2,1.79c.5.44.91.83,1,.92l.91.87-.09,4.13-.63.75a28.54,28.54,0,0,1-2.25,2.38,26.27,26.27,0,0,0-2,2.39l-1.5,2-7.48-4.49a5.88,5.88,0,0,1-2.1,1.38c-.64.23-1.41.54-2,.76a2.62,2.62,0,0,0-.36,1.21,12.14,12.14,0,0,0,.57,2.44,9,9,0,0,1,.53,2.56c0,.93-.11,2.78-.14,3.14l-.08,1.28-5.44,4.06-.27-.13-.41,1.15,1.36,1.29-6,8-2.25-2.14c-.38-.36-.78-.7-1.08-.94-.68.13-1.79.35-3,.61l-.68.77.47,2.25-.61,1c-.48.75-3,4.52-5.94,5.57-1.05.38-1.86.64-2.45.79l-1.65,1.08-1.24-.38A15.1,15.1,0,0,0,98,287a9.23,9.23,0,0,1-3.39,1.18l-1,.41-.1,0c-.58.23-1.16.46-1.49.58l-3,1.11-.16.06h0l-1.2.44-3.83-2.16-5.36-1.06L72.5,294,75.07,297l.17.47c.92,2.6,1,3.14.85,3.91-.24,1.22-.49,1.44-6.5,5.84l-.87.64L65,307.45l-5.58,6.39-3.18-2.49c-1.3,1.58-2.63,3.18-3.16,3.79l-.12.33c-.3.81-1.07,2.91-3.21,3.1l-.44.18-.15.07a9.41,9.41,0,0,1-4.37,1,.75.75,0,0,0-.37.07,10.14,10.14,0,0,1-2.45,2.73,32.66,32.66,0,0,0-2.42,2.28l-1.42,1.45-1.21-.62.41.5L32.85,333l-3-2.13-.16.08a3.85,3.85,0,0,1-2.56.16l-.2,1.45a12.68,12.68,0,0,1-.08,4.31,2.6,2.6,0,0,1-.7,1.37l0,.19a2.6,2.6,0,0,1-1.49,2A3.17,3.17,0,0,1,23.24,340.76Zm-6-8,.81.91a21,21,0,0,0,5.13,4.23l.1,0,.18-1.31.56-.31a9.74,9.74,0,0,0,0-3.44l0-.22.73-5.36,1.69.68a4.25,4.25,0,0,0,2,.47l.78-1.33,1.3.82L32.09,329l1.68-2.56-1.31-1.58,2.48-3.29,2.59,1.32a31.13,31.13,0,0,1,2.86-2.64,8.68,8.68,0,0,0,1.79-2.17l.14-.22.21-.16A3.7,3.7,0,0,1,45,317a7.05,7.05,0,0,0,3-.81l.15-.07.76-.32.23-.08h.25c.3,0,.52-.33.86-1.25a5,5,0,0,1,.36-.86l.17-.22c.28-.3,1.81-2.14,4.11-4.93l.88-1.07L59,309.95l4.79-5.49,4.12.48c2.68-2,4.94-3.63,5.38-4.11v0a19.49,19.49,0,0,0-.75-2.35l-3.84-4.59,8.69-9.35L84.77,286l3.09,1.74.21-.08,3-1.09c.31-.11.85-.33,1.38-.54l.1,0,1.28-.5.32-.07a6.48,6.48,0,0,0,2.42-.81c1-.6,3.63-1.13,6.38-1.28a20.31,20.31,0,0,1,5.81.91l1-.63.25-.06a20.94,20.94,0,0,0,2.36-.75c1.7-.61,3.68-3.14,4.5-4.41l-.53-2.5,2.23-2.54.46-.1c1.58-.35,3.48-.74,4.17-.84l.49-.07.43.25A13.55,13.55,0,0,1,126,274.1l2.54-3.39-.86-.82.52-1.49-2-1.81,2.4-3,2.68,1.23,3-2.27c.06-1,.13-2.29.13-2.94a7.44,7.44,0,0,0-.41-1.74,14.2,14.2,0,0,1-.69-3.07,5.81,5.81,0,0,1,1-3.32l.24-.37.4-.17c.45-.19,1.61-.66,2.54-1a4.26,4.26,0,0,0,1.67-1.41l.77-1,7.37,4.42a28,28,0,0,1,2.33-2.76,25.31,25.31,0,0,0,1.94-2.07l0-1.87c-.17-.16-.77-.72-1.37-1.23l-.41-.34-.08-.52a13.46,13.46,0,0,1,.27-3.48l.06-.3,3.49-5h.73a22.66,22.66,0,0,0,3.72-.21,13.15,13.15,0,0,1,1.48-.23c.94-.12,2.11-.27,2.94-.47l.13,0c1.55-.37,6.24-1.51,7.38-2s6.18-1,7.12-1c.09,0,1.14-.09,7.3-2l.26-.08.27,0a11.93,11.93,0,0,0,2.93.08l.31-.1c.21,0,.67-.09,1-.13a13.41,13.41,0,0,0,2-.3c1.12-.29,7.76-.71,8.6-.75l.37,0,.33.17a22.44,22.44,0,0,1,2.39,1.58l6.06-3.78c1.4-1.1,2.27-1.85,2.54-2.12a17.37,17.37,0,0,0,1.65-3.38l.06-.21.12-.19c.31-.48,1.73-2.2,2.16-2.72l.6-.73.9.27c.22-.1,1.58-.74,2-.86.12,0,.32-.12.58-.23l.1,0a6.93,6.93,0,0,1,3.16-.81l.26,0,.23.12c1.12.59,3.43,3.42,4.4,4.69a10.41,10.41,0,0,1,.1-1.53l0-.23.1-.21c.6-1.24,3.76-3.67,4.39-4.14l.94-.71,1,.87,2.83-3.44,1.4.69,2.32-2.62,1.26.65,2.94-4.21,1.28,1,2-2.22.89.49,1.41-.66.9.77,1-1.09,1,.66.92-1.05,1.48,1,1.79-2.32,1.36.83.78-1,1.32.61,1.76-1.93.89.58,1.5-1.06,8.61,7.42-.76,3.29,5.58-3.28-1.28-1,1.09-1.71-1.1-.79,3.34-4.48-.88-1.36,6.33-8.1.84.66,2.23-2.18,1.06.62,2.14-1.66,1,.44,2.09-1.92,1.33.22,4.41-1,.55.77c.1.14.2.28.28.42l.12.19.05.22c.27,1.12.69,6,.88,8.53l2.54,2.54,2.53,0,.17,1.2c.06.41.11.81.16,1.21l.05.42c0,.25.06.51.08.78.11,1.09.22,2.21.83,2.61.26.17.47.32,1.19-.17a7.32,7.32,0,0,0,1.68-1.89c1.13-1.59,2.69-3.76,6.1-3.17.05,0,.11,0,.18-.14l.43-1.06,1.27.22a11,11,0,0,1,1.43.25,11.23,11.23,0,0,1,5.91-.48,2.42,2.42,0,0,1,1.89,2.2c.11,1,.13,2,.14,3a19.7,19.7,0,0,0,.27,3.65,7.75,7.75,0,0,1,6.14-2.42l0,0a3.74,3.74,0,0,0-.2-2.29,16.49,16.49,0,0,0-.68-1.54c-1.08-2.23-1-3.36,1.41-5.69h0c2.13-2,3-3.44,2.3-6.34,0,0-.12,0-.2.09l-1,.84-1.55-1.24a14.92,14.92,0,0,0-2.94-2.32l-.14-.1-2.53-2-.51.56-1-.6c-.65-.39-1.29-.85-1.91-1.3-1.45-1-2.83-2-4.14-2h0a4.11,4.11,0,0,0-.59,0l-.59.08-.8-.61a2.45,2.45,0,0,1-1.59.58h0a2.38,2.38,0,0,1-2.15-.64c-.16-.16-.31-.32-.46-.5l-1,.69-.82-.81c-.28-.28-.55-.59-.83-.92a15.82,15.82,0,0,0-1.09-1.18c-2.21-2.12-5.08-3.22-8.31-4.35l-.22-.08-6.62-5.17.11-.81c.59-4.19.53-5.13.47-5.34a2.29,2.29,0,0,1-.18-.4c-.21-.56-.43-1-.92-1.16a3.29,3.29,0,0,1-.5-.18,5.25,5.25,0,0,0-1.42-.46l-2-.28,1.16-2.29c.22-.43.4-.78.52-1.09a1.75,1.75,0,0,0-.08-1.5,28.24,28.24,0,0,0-2-2.68l-7.59-2.23a19.83,19.83,0,0,1-2.16-.87l-.49-.23-.21-.5a5.75,5.75,0,0,1-.36-2.5,11.33,11.33,0,0,1,.67-3.16,7.62,7.62,0,0,0,.34-1.25,3.13,3.13,0,0,1,.64-1.48l.21-.27.3-.14.75-.35.22-.1c1.45-.67,2.88-1.34,3.07-1.49s.66-.6,1.16-1.12l3.34-4.31L298.7,127c-.71-.19-2.65-.7-3.45-1a4.72,4.72,0,0,1-2-1.94l-.12-.28-.27.15a3.33,3.33,0,0,1-2.73.54c-.64-.19-1.41-.42-1.84-.53l-.19,0-.17-.1c-3.26-1.92-3.93-2.25-4.07-2.3a37.67,37.67,0,0,0-5.9-1.47h.11l-.06-.39-.1.37a19.52,19.52,0,0,1-2.11-.93,5.61,5.61,0,0,1-2.63,1,18.41,18.41,0,0,1-3.33-.55l-12.47-1.34-1.6-2.64c-.57.3-5.12,2.59-9.24,1.65l-1.62-.37.63-1.54c.89-2.18,1.24-4,1-5-.53-1.95-1.18-4.61-1.26-5-2.11-.69-3.72-1.17-4.33-1.3l-1.09-.21a33.58,33.58,0,0,0-5.2.77,14.15,14.15,0,0,0-3,1.28,15.3,15.3,0,0,1-3.87,1.57,7,7,0,0,1-2.4,0,3.19,3.19,0,0,0-1.88.08,3.55,3.55,0,0,0-.8.83,5.16,5.16,0,0,1-2.13,1.79,5.05,5.05,0,0,1-4.62-.18c-2.79-1.69-3.5-6.14-4-10-2.94,2.92-5.94,5.93-9.57,5.86a6.72,6.72,0,0,1-4-1.49,21.72,21.72,0,0,1-2.47,2.57,2.56,2.56,0,0,1-1.6.64,2.27,2.27,0,0,1-1.82-.76,27.41,27.41,0,0,1-4-6.5c-.54-1.11-1.1-2.26-1.75-3.36-1.67-2.84-4.2-4.74-6.87-6.76-.87-.66-1.78-1.33-2.65-2.05-3.64-3-5.58-6.73-7.13-10.34-3.25-7.57-6.74-18.7-4.94-28.79.81-4.55,3.17-8,6.66-9.73,3.73-1.85,8.29-1.59,12.85.75A29.71,29.71,0,0,1,192,45.75c.55.54,1.11,1.08,1.7,1.63a11.91,11.91,0,0,0,3.08,1.85,11.18,11.18,0,0,1,4.57,3.25,12.17,12.17,0,0,1,1.77,4.15c.58,2,1,3.33,2.42,4.14a9.36,9.36,0,0,0,3,.95l.1-.26,2.48-5.22.54-.2,7.8-2.87c.93-.34,4.74-1.39,5.07-1.49l3.77-3.51c.14-2.93-.34-4.66-.85-5-.1-.07-1.12-.72-6.55-1.51l-1-.14-.22-.95a7.49,7.49,0,0,0-1.79-3.32,30.82,30.82,0,0,1-3-3.93l-3.45-1.6c-.53.26-4,2-4.79,2.35s-6.3,2.12-6.53,2.19l-.06,0a29,29,0,0,1-10.24,1.85l-1.33,0-.2-1.15c-.95-5.42-1.7-6.94-2.38-7.77a8.09,8.09,0,0,0-3.55-2.56,11.89,11.89,0,0,1-2.21-1.07A14.19,14.19,0,0,0,176.84,24c-2-.49-3.32-1.56-3.47-2.73-.09-.73-.53-3.41-.87-5.48l-.05-.31.63-2.23-.38.17-.91.62-4.51,5.26-.49.09a19.41,19.41,0,0,0-3.46,1,9.84,9.84,0,0,1-1.75.5,2.62,2.62,0,0,0-2,1.14,8.26,8.26,0,0,0-.78,1.22,2.66,2.66,0,0,1-.17.31l-.21.31-.2.1-.14.1c-.71.47-3.28,2.3-3.8,2.68l-4.68,4-.5,0c-.71,0-2.4.25-2.72,1.88l-.44,2.21-3.07,3.67-.77-.1a3.4,3.4,0,0,0-2.56,1.43c-1.68,1.9-3.74,4.06-4.33,4.67l-.23.24-.32.11c-.53.19-5.23,1.84-6.53,2.08s-7.64,1.86-8.15,2-3.33,3.37-4.59,4.7l-2,4.12-6.57,4.73-2.09,3.26,3.3-.59,2.45,4.72,12.91-4.62,2.84.53.27.77a6.08,6.08,0,0,0,.8,1.63l.53.7-.39.79c-.81,1.63-3.09,5.38-4.87,8.16l-.27.43L117.17,80l-1.38-.52-.95,1-2.33.45-4.91-4.21L103.41,76l-3.35-1.76L103.5,84l5.4,4.48,11.17,3.43a66,66,0,0,1,17.9-2.4h.79c5.82-.05,12.25.16,15,3.2a3.35,3.35,0,0,1,1,3.13c-.29,1.2-1.32,2.13-3.07,2.78a17.57,17.57,0,0,1-6.38.7c-.62,0-1.23,0-1.82,0-.93,0-1.86.06-2.79.1-1.5.07-3.06.13-4.59.12l-1.2.08-1.07,1.54a2.73,2.73,0,0,0,.06,1.2c.51,1.87,2.47,2.66,6.57,2.59a44.8,44.8,0,0,0,5.76-.58,39.72,39.72,0,0,1,7.4-.59c.33,0,.73,0,1.19,0,2.55,0,6,0,7.52,1.93a3.37,3.37,0,0,1,.47,3.09c-1.37,4.88-8.66,5.89-13,6.5-.62.09-1.18.16-1.65.24l-.82.14a61.89,61.89,0,0,0-9.48,2.14l-.87,6,19,7.45-2.57,4.16a26,26,0,0,1,1.12,3.63l0,.24,0,.24c0,.21-.08.55-.17,1.25-1,7.61-1.67,8.42-2,8.81l-.27.24-2.31,1.54,1.88,3.42c4.55,1.9,5.51,2,5.61,2h.13a14.36,14.36,0,0,1,3.12,1.09l1.16.5-.35,1.21c-2.07,7-2.81,10.24-2.81,10.84a18.69,18.69,0,0,1-1.11,4.33l-.12.35-6.73,5.85h0s-4,4-5.19,5.19a21.93,21.93,0,0,1-4.56,2.94l1.89,1.55-.69,1.06c-2.1,3.25-4,6.06-4.76,7.17l-.52.72-.88-.15-3.54-.66-9.62,14.51-2,.52-.36,1-1.42-.7c-.8-.39-2.68-1.32-3-1.48l-.12-.08a19.15,19.15,0,0,0-3.3-.14c-1.63,2.27-4.24,5.85-4.79,6.44l-.12.12a22.52,22.52,0,0,0-2.23,4l-.2.4L99,226.71l2.85,3.8.62,5.38-8.19,13-3.45-1.77c-5.46,1.43-5.93,2.61-6,2.74s-.29,1.52-.34,9.93l0,2.88-2.27-1.77c-5-3.91-8.55-6.54-9.91-7.41a12.6,12.6,0,0,1-1.4-1.05c-1.44-1.21-2.24-1.88-6.31.3l3.11,2.33-1.1,2L66,259.15l.4.58-5.47,7.36-1.87.78-3.88,9.2a7.55,7.55,0,0,1-1,1.21l-.94.89-9.87-8.7L41,275.56l1.22,1.79-.43,1.26,5.53,5.09-6.68,9.07-1-.45a6.69,6.69,0,0,0-1.71.34c-.15.08-.81.62-1.5,1.2a24.62,24.62,0,0,1-2.07,1.65,11.64,11.64,0,0,1-1.54.65c-.11.11-1.11,1.07-1.56,1.48a12.27,12.27,0,0,1-1.62,1.07l-.44.25-.5-.08a2.39,2.39,0,0,0-.58,0c-.48.44-2.09,2.6-3.51,4.51-1.21,1.63-3.24,4.41-3.46,4.75a.19.19,0,0,0,0,.12l.08.58-5.94,7.85c0,.44,0,.95,0,1.32v.76l-.64.41-.78.48.63.62-.88,1c.59.85,1.23,1.7,1.88,2.57.77,1,1.56,2.07,2.29,3.14l.56.83-.59.81a5,5,0,0,0-1,2.92l0,1.33-1.33,0h-.82a6.22,6.22,0,0,0-2.29.26c-.23.11-.23.11-.3.51,0,.15-.06.3-.1.45l-.15.57-.51.29a4.14,4.14,0,0,0-.38.25.41.41,0,0,0-.11.23l.38.07.15,0h0l0-.07.24-.48.5-.2a12.42,12.42,0,0,1,2.27-.62,6.13,6.13,0,0,0,2.08-.66ZM319.66,199.28h0Zm1-2.67h0Zm-.29-.06h0Zm-24-73.08h0ZM278.09,120v0h0Zm-102-99.46Z"/></svg>