<svg id="Layer_1" data-name="Layer 1" xmlns="http://www.w3.org/2000/svg" viewBox="0 0 350 350"><defs><style>.cls-1{fill:#999;}.cls-2{fill:#f90;}</style></defs><title>M</title><path class="cls-1" d="M336.31,61a16.74,16.74,0,0,1,1-2.25l.8-1.53-1.67-.42a2.73,2.73,0,0,0-1.83.38,3.09,3.09,0,0,0-1.44,1.69,3.49,3.49,0,0,1-.26.5,3.83,3.83,0,0,0-.49,1.21c-.13.47-.16.52-.28.6s-.53,0-1.55-.36a1.87,1.87,0,0,0-1.33-.14,1.57,1.57,0,0,0-.61.39,2.73,2.73,0,0,1-.47-.06c-.46-.07-.7-1-.7-2.9a6.13,6.13,0,0,1,.44-2,2.18,2.18,0,0,0,.19-1.33,5.52,5.52,0,0,0-2-2.49c-.85-.63-2-1.61-2-1.62l-.38-.33h-.5a12.68,12.68,0,0,0-1.83.18,2.45,2.45,0,0,1-1.58-.92,3.94,3.94,0,0,0-3.4-1.5,4.91,4.91,0,0,1-2.12-1c-.43-.28-.88-.57-1.36-.83l-.89-.48-.71.71c-.46.46-1.25.26-1.88,0a8.58,8.58,0,0,1-.72-4V40.87l-1.63.34a8.59,8.59,0,0,0-4.83,2.93l-.53.58a2.24,2.24,0,0,1-1-.48l-.58-.46-2.2.73a4.32,4.32,0,0,1-1.53-.39,11,11,0,0,0-1.25-.4,12,12,0,0,1-2.92-1.25c-.25-.43-1-1.27-3.8-3.58l-.57-.47-.7.22s-1.27.4-2.1.55a3.65,3.65,0,0,0-1.18.46l0,0h0l-1-.73-.24.31c-.25-.52-1-1.44-3.44-2.55a3.24,3.24,0,0,1-.52-.27,3.77,3.77,0,0,1-.05-.4,9,9,0,0,0-.17-1.14l-.21-1-.85-.08a3.42,3.42,0,0,1-.58-1l-.3-.8L275,31.93a4,4,0,0,1-.08-.89l0-1-1-.33a21.81,21.81,0,0,0-4.79-1.16,5.82,5.82,0,0,1-1.64-.78,10.43,10.43,0,0,0-2.05-1,5.32,5.32,0,0,1-2.69-2,2,2,0,0,0-1.64-.77c-1.35,0-2.54,1.35-3.91,3.3l-.16.23a2.64,2.64,0,0,1-1.2.44,20.22,20.22,0,0,1-3.5-.26l-.33,0-.59.22-2.25-1.5.09-.68-.72-.46a16.67,16.67,0,0,1-2.77-2.14,16.2,16.2,0,0,1-.08-2.13,16,16,0,0,0-.25-3.64A3.44,3.44,0,0,0,243.09,15a3.35,3.35,0,0,0-3,.33,5.1,5.1,0,0,1-1.57.29l-2.72.14,1.9,2.28-.91,1.24.62.77-1.09,1.27,1.35,1.35-.69,1.3.75,1L236,28.06l3,2.44L234.47,36l-1.83-.91v2.19a16.71,16.71,0,0,1-.45,3.79,5.38,5.38,0,0,1-1,1.68L228.08,40l-.68,2.05-1.18-.74-.5,1.09-.79-.49-1.17.81-3.24-1.57-3.24,4.51.4.43-.9-.38-3.34,4.87,17.45,14.27L235,61.68l9.57,8.14,2.2-2,.86.63.26.06,1.15.3,0,.08c.1.23.24.52.44.92a6.16,6.16,0,0,0,2.1,2.06l-.82.49,1.6,1.6-.58,1.19.38.48c-.78,0-1.15.3-1.85,1.36l-1.36-.53-.63.72s-.86,1-2.1,2.79l-.63.91.77.8a15.05,15.05,0,0,1,1.66,4l-1.24,1.2-.62-.37-.64,1.15-1.45-.82-.7,1-1.12,1.65-.26-.84-1.05,1.05c0-.38,0-.73-.06-1a.6.6,0,0,1,.05-.38l1.55-.54-1.6-1.92a4.56,4.56,0,0,1,.49-.42,1.76,1.76,0,0,0,.68-1.59,4.06,4.06,0,0,0-2.24-2.74,2.79,2.79,0,0,0-2.89.12l-.17.09a4.28,4.28,0,0,1-1.48.49,5.05,5.05,0,0,1-.77-.08,5.21,5.21,0,0,0-2.16,0,7.41,7.41,0,0,1-2.38.28c-2.31,0-6.25,3.44-6.29,3.48a5.41,5.41,0,0,1-1.9.82,7.78,7.78,0,0,0-1.94-1.65c.09-.59.3-1.58.53-2.5l.21-.79-.61-.55c-.13-.12-.91-.83-1.69-1.47l1.47-.68L218,77.29c-.86-.7-2.23-1.84-2.88-2.44l.05-.07,1-1.07-1.42-1.13v-.76l-.21-.23L216,69.81l-2.17-2.17-1.47,1.1L210.84,68,209,70.15l-1.31-.55L206,71.53,204.8,71l-1.7,1.86-1.37-.88-7.39,9.37,1,1.19-3.21,4.26.78,1.28-1,1.3,1.16,1.37c-.67.41-2.63,1.59-3.17,1.95l-.12.06.39-1.87.17-.82-9.8-7.77-.85.69-.23.18-.36-.24-.94-.65-2.24,2.29h-1.07l-.6.47-1.36-.82-2,2-1-.65-1,1-1.6-.7-.55.75-1.46-1-.6,1-.63-.35-.68.42a8,8,0,0,0-1.77,1.66L161.15,87l-1.42,1.42c-.07.07-1.56,1.56-2.7,2.89l-.57-1.77L154.92,92s-.73,1.16-1.41,2.07a2.53,2.53,0,0,1-.34-.3L152,92.51l-1,1.38-1.58,2.21h0L148.35,95l-.91,1.24A17.61,17.61,0,0,1,146,98.11a9.69,9.69,0,0,0-2.73,1.86,3.34,3.34,0,0,0-.87,1.46l-.1-.19c-.11-.22-3.23-4.08-4.79-3.55l-.33.09a36.1,36.1,0,0,0-4.44,1.44,1,1,0,0,1-.66,0l-1.58-.74-.33,1.71a3.4,3.4,0,0,1-.19.65c-.18.2-1.08.93-1.81,1.48l-.44.34-.08.55a7.47,7.47,0,0,1-.49,1.9c-.15.18-.36.48-.6.84a10.26,10.26,0,0,1-1.94,2.34c-.92.61-5.06,3.31-6.8,4.45-.2-.11-.41-.21-.65-.32a3.26,3.26,0,0,1-.85-.85,2.24,2.24,0,0,0-1.71-1.11h-2.79s-4,0-5.28,1a3.27,3.27,0,0,1-.4.28,1.49,1.49,0,0,1-.53-.1,2.53,2.53,0,0,0-2.57.65c-.07.06-.16.14-.11.14a3.92,3.92,0,0,1-1.35-.48,3.51,3.51,0,0,0-.91-.34,1.5,1.5,0,0,0-1.22.32,1.74,1.74,0,0,0-.58,1.37,4,4,0,0,0-1.21.55,11.71,11.71,0,0,1-2.08.55l-.79.17-.42-2.42L92.47,114s-.32.32-.68.74l-.43,0a4.48,4.48,0,0,1-1.2-.35,2.17,2.17,0,0,0-1.31-.23c-.37,0-2.14.16-3.71.25l-.35,0-.3.19-1.42.91a11.2,11.2,0,0,0-1.8,1.65,2,2,0,0,1-.34.09l-.82.1-.74,2-.73-.26a4.57,4.57,0,0,1-.73-.62,3.31,3.31,0,0,0-2.17-1.21c-.68,0-6.43.25-7.09.28l-.8,0-.36.71a35.17,35.17,0,0,1-2.43,4.29,6.45,6.45,0,0,0-1.34,4.35,4.66,4.66,0,0,0,1.5,3.1,1.71,1.71,0,0,0,.61,1.92l-.14.22a5.28,5.28,0,0,1-.78.16c-1.19,0-1.78.94-2.25,1.69l-.17.27-.59.92-.6-.35-1.52-.9-.1.36-.55-.43a6.53,6.53,0,0,0-1.69-1.15A16.47,16.47,0,0,1,55,131L54,130.21l-.83,1.08s-.92,1.19-1.81,2.13a1.9,1.9,0,0,1-1.07.61,3.53,3.53,0,0,0-.83.31,5.9,5.9,0,0,0-1.85,1.73,5,5,0,0,0-.86,3.37v.32a2.58,2.58,0,0,0,.56,1.77.79.79,0,0,1,.12.18l.19.44a11.59,11.59,0,0,0,.5,1.07,2,2,0,0,0,.06,1.43,2.25,2.25,0,0,1,0,.46,5.55,5.55,0,0,0,0,1.44l-.07,0a13.25,13.25,0,0,0-2.5,2,1.11,1.11,0,0,1-.35.32,9.31,9.31,0,0,1-1.2-1.15l-1.07-1.22-3.8,4.78,2.34,1.89-.39,1,.36.58s.12.2.37.57a1,1,0,0,1-.27.32,4.32,4.32,0,0,0-1,1.24c-.24.38-.36.57-.57.69a3.34,3.34,0,0,1-.82-.39,9,9,0,0,0-1.1-.55,5.24,5.24,0,0,0-4.06,0,1.17,1.17,0,0,1-.43.09h-.08l-.8-.64-.85.87a11.38,11.38,0,0,0-2.32,3,3.66,3.66,0,0,0,.5,2.67c-.35.34-.79.77-1.23,1.15a10.47,10.47,0,0,0-1.51,1.66c-.21.27-.45.58-.79,1a1.23,1.23,0,0,1-1.2.37,2,2,0,0,0-.63,0,2.35,2.35,0,0,0-.76.35,5.34,5.34,0,0,1-1,.52,12.76,12.76,0,0,1-2.7-.48,8.35,8.35,0,0,0-2.64-.41,23.3,23.3,0,0,1-2.77,0l-2.32-.12,1,2.08s.17.35.57,1.09a15.17,15.17,0,0,1,.4,3.66,27.62,27.62,0,0,1-1.16,4.87,4.29,4.29,0,0,0,.22,3.12c0,.1.08.18.1.26l.07.23a8.46,8.46,0,0,1,.52,2.23,21.09,21.09,0,0,0-1,3.28c-.34,1.29-1.09,4.58-1.13,4.72l0,.2.06.83a8.87,8.87,0,0,0,.73,4.49c-.13.62-.34,1.67-.38,2.13a2.18,2.18,0,0,0,1.46,2.08c.15.08.31.17.45.26a4.42,4.42,0,0,1-.55.9l-.82,1,4.82,4.31-1.48,2.16.68.79a12,12,0,0,0,1.35,1.29l-1,.25L23,217.39l-1.26,1.51.59,1.36-.82,1.2.37.56-1.43,2.45,1.85.17c0,.33.08.76.1,1.16l0,.33.17.28c.1.17.36.61.53,1l-.05.09-1.37,1.77,3,.54.29,4.95h1.39l.9,1.56,5.87,1.41a24.26,24.26,0,0,1,.66,2.38c0,.14.05.26.07.36l-1.19.17,1.35,1.83a1.8,1.8,0,0,1,.15.24c.17.34.43.59,1.57,1.6l1,.9a6.47,6.47,0,0,0,3.62,1.59,4.8,4.8,0,0,1,.92.58l10,7.25,1.75-.08.2,0,.4-.06v.18c0,.35.06.65.88,2l.84,1.14.17.19s.57.53.94.85a10.13,10.13,0,0,1,.28,1c0,.3-.12.81-.16,1a10.25,10.25,0,0,0,0,2.49l0,.73.92.57a13.21,13.21,0,0,1,1.21,3.19,8,8,0,0,0,.31,1c.17.38.47,1.06,3.12,1.61.26.43.65,1.06,1,1.68.71,1.13,3.58,4.84,4.18,5.56.34.41.75.85,1,1.16t0,.09a8,8,0,0,0,.48,2.86l.2.76,3.54.94,0-.1a1.9,1.9,0,0,1,1.68-2.74,1.74,1.74,0,0,1,1.43.67c2.44-2.93,5.82-5.3,8.79-7.83a2,2,0,0,1,2.32-.3c6,4.15,13.69,4.51,17.4,11.62a1.93,1.93,0,0,1-1.14,2.81c-4.29.89-7.32,3.31-10.09,6.58a1.58,1.58,0,0,1-1.44.59l-.86,1-1,1.12L91.51,298v3.27l2.3.56c.08.16.19.39.34.68A2.39,2.39,0,0,0,96.73,304c.57.08,1.46.2,2,.24l1,3.38L110,314.08l-1.16,2.1.15.54c.16.57.36,1.33.4,1.55l0,.62.53.41c.39.3.78.47,2.35.14.55,1.34,1.19,3,1.33,3.54a2.85,2.85,0,0,0,1.4,1.83,2.7,2.7,0,0,0,2,.3,3.85,3.85,0,0,1,1.45-.24.66.66,0,0,1,.06.13.38.38,0,0,1,0-.12h0l0,0a.64.64,0,0,1,.36-.5l.09,2.71a2.56,2.56,0,0,1,1,.25,3.44,3.44,0,0,0,2.49.09,7.05,7.05,0,0,0,2,.54,1.89,1.89,0,0,1,.07.45v1.16l1.14.18a9.25,9.25,0,0,1,2.42.67c.72.66,2.73,2,4.32,2l1,0c.6,0,1.61,0,1.83,0s.41.2.72.36a14.38,14.38,0,0,0,2.26,1,1.58,1.58,0,0,0,1.2,1.37,1.64,1.64,0,0,0,.41.07c.58,0,1.46-.5,4.39-3.38l2.56,1.45,5.69-5.57h18.79l.27-1c0-.06,1.56-5.92,2.22-8.1a8.64,8.64,0,0,1,2.29-2.88,11.2,11.2,0,0,0,2.44-3,18.87,18.87,0,0,1,3.79-4.24l1.32-1.14-10.19-7.13-.28-.06s-1.63-.33-2.28-.49l-.71-.17c-.71-.16-2.86-.65-3.22-.82-.52-.35-3.24-1.85-3.78-2.15l-.75-.42-.7.51s-.95.69-1.81,1.38c-.27.22-.56.42-.81.6a5,5,0,0,0-.6-.8,3.08,3.08,0,0,0-2.36-.62c-.08-.19-.15-.45-.19-.58a1.67,1.67,0,0,0-1.46-1.47c.14-.26.35-.6.58-.94l1.21.05.43-.46c.71-.76,1.61-1.68,1.83-1.85a1.93,1.93,0,0,1,.93-.4,10.12,10.12,0,0,0,2.85-1.17l2.93.47s.85.18,1.33.24a8.55,8.55,0,0,1,2,.92,5.05,5.05,0,0,0,2.09.67,3.23,3.23,0,0,1,.71.15l3.62,1.56.69.3L178,293l1.31.78,4.81-5.18-4.55-2.89c-.63-1.39-2.62-5.77-2.92-6.37a7.23,7.23,0,0,0-.42-.7,3.15,3.15,0,0,1-.67-1.6,9.93,9.93,0,0,1,.37-2.58l.23-.81L174.36,272l-.31-.09-1.92-.51c-.56-.14-2.19-.51-2.8-.62-.14-.07-.44-.26-.66-.4a14.17,14.17,0,0,0-1.48-.85l-1.32-.64a2.32,2.32,0,0,0,.43-1.2c0-1.1-1-1.56-1.73-1.86l-.27-.12c.15-.52.34-1.1.45-1.37a11.28,11.28,0,0,0,.65-3,3.68,3.68,0,0,0-1.34-3.1,2.42,2.42,0,0,0-.83-.45c1.68-1.18,3.3-2.29,3.85-2.57a13.34,13.34,0,0,1,3.83-1,1.56,1.56,0,0,0,1.38-1.16c.2-.83-.25-1.59-1.51-2.52-.72-1-1.71-.43-2.86.19a1.49,1.49,0,0,1-1.34.16,5.69,5.69,0,0,0-.95-.15c-.38,0-.77-.35-1.16-1-1-1.65-2.3-1.64-4.27-1.47a1.65,1.65,0,0,1-.32,0c-.06-.12-.13-.34-.18-.5a7.5,7.5,0,0,0-.67-1.57c-1.25-2.1-3.19-1.93-4.48-1.81l-.37,0a1.94,1.94,0,0,0-1.58.89,2.67,2.67,0,0,0,.11,2.49c.06.15.14.36.17.47a3.38,3.38,0,0,0,.31,1.55,4.68,4.68,0,0,1-.83-.11,9.36,9.36,0,0,1-1.76-.73l-.49-.31c-2-1.28-2.2-1.4-2.69-1.4h-.24a3.23,3.23,0,0,1-.5,0l0,0-.59-.39c-.42-.27-.68-.43-1.33-2.65-.59-2,.12-3.25.45-3.49a1.66,1.66,0,0,0,.78-1.72c-.21-1-1.23-1.26-1.83-1.4a3.07,3.07,0,0,1-.46-.12l-.21-.09a15.2,15.2,0,0,1-1.5-.69,6.92,6.92,0,0,0-1.45-.58l-.11-.06a2.68,2.68,0,0,0-2.17-.45,10.71,10.71,0,0,1-1.29.19,5.08,5.08,0,0,1-.68-.29c-.11-1.18-.4-3.51-.55-4.09s-1.22-5.12-1.22-5.12l-.16-.68c3.56-3.72,9.23-9.31,11.47-7.54a1.45,1.45,0,0,0,2.4-1.4,10.56,10.56,0,0,0-6.22-7.66,11,11,0,0,0-4-.73c-1.57,0-3.65.25-5-.8-.82-.62-1.29-1.87-2-2.61-6.39-6.66-7.77,3.25-10.86,7.65a3.07,3.07,0,0,0-1.93.68,4.94,4.94,0,0,0-1.15,1.11h0a6.66,6.66,0,0,1-1.31.2,3.78,3.78,0,0,0-2.52.9,2.13,2.13,0,0,0,0,2.68l-.54-.41c-1-.77-3.4-2.58-3.75-2.94a4.39,4.39,0,0,1-.79-1.56,4.09,4.09,0,0,1,.68-1.54,3,3,0,0,0,.35-2.17l0-.22a3,3,0,0,0-1-1.81l-.47-.54a3.89,3.89,0,0,0-1.45-1.19,1.79,1.79,0,0,1-.31-.18l-.27-.2a3.93,3.93,0,0,1-1-.85c-.22-.28-.23-.31-.4-1.06l-.11-.49a3.87,3.87,0,0,1,0-1.29,2.84,2.84,0,0,0,1.59-1.41l.2-.39a8.71,8.71,0,0,0,1.24-3.83,4.47,4.47,0,0,0-.25-1.52,1.54,1.54,0,0,1-.09-.64,13.86,13.86,0,0,1,0-1.89h0a2.33,2.33,0,0,0,.71-2.3h0a6.09,6.09,0,0,0,1-.59h0a1.49,1.49,0,0,0,1.3-.86l.07-.07a2.23,2.23,0,0,0,.91-2,1.59,1.59,0,0,1,0-.18c0-.17.06-.51.11-.88a12.24,12.24,0,0,0,3.46-1,3.61,3.61,0,0,0,1.48-1.75,1.38,1.38,0,0,1,.34-.55c.43-.32,1-.71,1.45-1a7.73,7.73,0,0,1,2.74,3c1.08,2.44,4.07,5.4,5.19,6.51l.3.3c1,1.18,2.59.23,3.71-.46l.33-.2c1.39-.84,2.5-4,2.51-4.08a1.92,1.92,0,0,0-.55-1.89l-.21-.26.07-.1.22-.16a9.31,9.31,0,0,0,1.42-1.14,3.11,3.11,0,0,0,.52-2.54,11,11,0,0,1,0-1.32c0-.21,0-.42,0-.62a5.73,5.73,0,0,0-.44-3.25,6.48,6.48,0,0,1,1.35-1.46c.53-.41,1-.74.2-4.68,3.9-.32,8.7-.65,9.23-.64.74.13,7.92.7,9.36.81h.24a17.3,17.3,0,0,1,4.69.1c2.09.59,9.35.35,9.8.32l1.52-.12,5.79-.46c0,.16,0,.29,0,.36v.91l.81.36c.89.39,1.47-.15,2.35-1l.49-.45c.91-.11,3.82-.37,6.22-.59,5.51-.5,6.27-.57,6.6-.72s2.42-.74,4.47-1.33l1.65,3.88,1-.16,1.07-.17c.72-.18,1-.78,1.35-1.54l.09-.25a12.05,12.05,0,0,0,.48-2.39v-.8c0-.6,0-1.4,0-1.95a11.26,11.26,0,0,0,6.76,1.2,24.64,24.64,0,0,0,12.94-5.2,8.54,8.54,0,0,0,2.27.22c1.51-1.86,3.83-2.89,6.14-4.28,4.16-2.51,6.29-7.21,9-11.19,0-.33,0-.69,0-1.05a1.32,1.32,0,0,1,.23-1,7.08,7.08,0,0,0,.68-1.25,2.91,2.91,0,0,0,.24-.84,1.2,1.2,0,0,1,0-.18c0-.12.06-.24.09-.36s.06-.25.09-.3a2.34,2.34,0,0,0,.31-.54,1.53,1.53,0,0,0,.63-.33,1.71,1.71,0,0,0,.53-1.39c2.54-1.71,6.05-2.31,8.9-3.5a14.74,14.74,0,0,0,3.94-2.26c1-.81,1.51-2.15,2.39-2.89,1.23-1,3.35-.17,4.55-1.56a2.08,2.08,0,0,0,.41-.77c-.1-.67-.2-1.37-.3-2.08a12.58,12.58,0,0,0-.91-1.5l.27-.13-.16-.56.11,0,.42-.08c-.32-3.9.2-7.68,4.55-9.11,3.74-1.22,8.17-.47,11.9.41,5.54,1.3,10,2.59,13.51-2.82,0-.11,0-.2,0-.28a1.87,1.87,0,0,0-.22-.58,3.39,3.39,0,0,0,.7-1.47,7.34,7.34,0,0,1,.4-1.15l.59-1.25-.93-.42v-.11c0-.09,0-.16,0-.21a6.32,6.32,0,0,0-.64-2,6.09,6.09,0,0,1-.56-1.57,2.47,2.47,0,0,0-.86-1.46,15.28,15.28,0,0,1,2.41-2.57,9.53,9.53,0,0,0,2.11-2c1.36-2.23.15-2.91-.36-5-.84-3.57,5.35-3.92,7.59-5.61a7.22,7.22,0,0,0,2.41-3c.19.06.4.14.61.23a2.67,2.67,0,0,0,3.1-.5c-2-2.06-4.39-3.9-6-6.26s-3.3-7.61-.94-10,5.81.67,8.51,4.08l.23-.24a32.27,32.27,0,0,0,4.76.84l.91.12a3.79,3.79,0,0,0,2.94-1.14l0,0,.93,0a16.24,16.24,0,0,0,1.91,0l.19,0,.36,0a9.61,9.61,0,0,1,.09,1.22c0,1.46,1.5,2.92,2.14,3.48l.25.21,1.21.3.12,0a17.49,17.49,0,0,0,2.13.29l.43.07c1.47.25,2.35.4,2.91-.44a3.1,3.1,0,0,0,.37-1.31,11.8,11.8,0,0,1,.29-1.44l.1-.34h0a3.07,3.07,0,0,0,1.35-.24,11.17,11.17,0,0,0,2.3-2l.17-.17a3.88,3.88,0,0,0,.82-1.62,3.69,3.69,0,0,1,.16-.46,3.1,3.1,0,0,0-.45-2.8c0-.2,0-.53,0-.75S336.3,61.24,336.31,61Z"/><path class="cls-2" d="M139.75,336.67a3.12,3.12,0,0,1-2.74-1.76c-.63-.26-1.26-.59-1.79-.87l-.18-.09-.25-.13-1.39,0-1.09,0c-2,0-4.25-1.52-5.12-2.26a11.4,11.4,0,0,0-1.85-.45l-2.33-.37v-1.63c-.26-.07-.51-.15-.73-.23a4.59,4.59,0,0,1-3-.31,1.17,1.17,0,0,0-.39-.1l-1.3-.07-.09-2-.06,0a4.07,4.07,0,0,1-3.11-.4,4.26,4.26,0,0,1-2.09-2.73c-.07-.26-.35-1.06-.85-2.31a3,3,0,0,1-2.32-.59l-1.06-.82,0-1.18c0-.21-.19-.76-.34-1.31l-.31-1.1.8-1.44-9.54-6-.91-3-.92-.12a3.78,3.78,0,0,1-3.84-2.35l0-.07-2.74-.67v-3.66L87.77,297l3.36-3.84.74.09c.05,0,.1,0,.19-.09,3.41-4,6.76-6.2,10.88-7.05,0,0,.12,0,.18-.16a.74.74,0,0,0,0-.61c-2.19-4.19-6-5.84-10.07-7.58a38.89,38.89,0,0,1-6.88-3.53c-.08-.05-.36,0-.6.21-.81.69-1.65,1.36-2.49,2a43.62,43.62,0,0,0-6.13,5.61l-1.13,1.35-1.08-1.39a.33.33,0,0,0-.31-.12c-.24,0-.3.09-.33.13a.74.74,0,0,0,0,.64l.24.58L73.49,285,68,283.59,67.6,282a14.48,14.48,0,0,1-.53-2.77c-.23-.25-.48-.53-.7-.79-.63-.75-3.52-4.49-4.29-5.71l-.74-1.19c-2.32-.57-3.1-1.33-3.52-2.29a8.79,8.79,0,0,1-.38-1.18,16,16,0,0,0-.86-2.54l-1.29-.81,0-1.48a10.71,10.71,0,0,1,.08-2.88c0-.09.06-.33.09-.57l-.08-.31-.66-.6-.35-.39-.84-1.14a13.45,13.45,0,0,1-.83-1.45L51,256l-10.43-7.54a5.82,5.82,0,0,0-.49-.34,8,8,0,0,1-4.18-1.94l-1-.87a7.25,7.25,0,0,1-1.91-2l-2.78-3.77,2-.29-.11-.37-5.68-1.37-.8-1.38H23.71L23.4,231l-4.25-.75,2.28-3-.06-.1-.35-.59,0-.61-2.89-.26,2.11-3.61-.41-.62.92-1.34-.63-1.44.88-1.06L14,212.25l1.43-.36-1-1.22,1.39-2-4.9-4.38,1.33-1.63a3.17,3.17,0,0,1-1.32-2.91,18.81,18.81,0,0,1,.32-1.86,9.94,9.94,0,0,1-.69-4.7l-.06-.86.15-.65c.19-.82.79-3.41,1.08-4.52a26,26,0,0,1,1-3.15,14.73,14.73,0,0,0-.43-1.58l-.12-.36a5.75,5.75,0,0,1-.26-4.13A28.62,28.62,0,0,0,13,173.5a17.11,17.11,0,0,0-.28-3.08c-.38-.7-.54-1-.54-1L10,165.13l4.75.25a22.5,22.5,0,0,0,2.52,0,9,9,0,0,1,3.14.44,20.54,20.54,0,0,0,2.09.44,4.4,4.4,0,0,0,.54-.3,3.72,3.72,0,0,1,1.22-.54,3.27,3.27,0,0,1,1-.05h.14c.27-.32.47-.58.65-.81a11.84,11.84,0,0,1,1.69-1.85l.48-.44a4.2,4.2,0,0,1-.15-2.77c.18-.54.65-1.5,2.65-3.56l1.75-1.8,1.28,1a6.51,6.51,0,0,1,4.73.13,9,9,0,0,1,1,.47,5.75,5.75,0,0,1,.49-.64l-.51-.82.27-.69-2.62-2.13,5.73-7.2,2.19,2.5.12.13a16.83,16.83,0,0,1,1.49-1.13,8.6,8.6,0,0,1,.07-.86v-.09a3.43,3.43,0,0,1-.12-1.44c-.14-.29-.22-.49-.31-.7l-.14-.33a4,4,0,0,1-.84-2.62v-.3a6.31,6.31,0,0,1,1.17-4.28,7.23,7.23,0,0,1,2.27-2.08,4.73,4.73,0,0,1,1.13-.43c.3-.08.3-.08.43-.22.84-.89,1.71-2,1.72-2l1.7-2.2,2.2,1.71A18.31,18.31,0,0,0,58,131.36a4,4,0,0,1,.9.48l0-.1,2.53,1.49,0,0A4.77,4.77,0,0,1,63.76,131a2.79,2.79,0,0,1,0-.64,5.69,5.69,0,0,1-1.4-3.53A7.76,7.76,0,0,1,64,121.58a36.11,36.11,0,0,0,2.23-4l.73-1.46,1.63-.07c.06,0,6.39-.28,7.15-.28a4.29,4.29,0,0,1,2.92,1.38l.43-1.15,1.44-.18a12.92,12.92,0,0,1,1.76-1.53c.35-.23,1.45-.93,1.45-.93l.6-.38.71,0c1.61-.1,3.17-.2,3.58-.24a3.53,3.53,0,0,1,2,.32l.54.2.22-.23,3.8-3.79.63,3.65c.51-.11.85-.2,1-.26a4.5,4.5,0,0,1,.65-.36,2.93,2.93,0,0,1,3.3-2,4.73,4.73,0,0,1,1.28.46l.1,0,.3.14a3.82,3.82,0,0,1,3.27-.62c1.75-1.14,5.54-1.18,6-1.18h2.79a3.55,3.55,0,0,1,2.82,1.64c.07.09.22.28.33.4,2-1.28,5.27-3.44,6.07-4a10.87,10.87,0,0,0,1.56-2c.21-.31.4-.58.55-.79a8.93,8.93,0,0,0,.31-1.36l.16-1.12.9-.69c.6-.46,1.15-.91,1.45-1.16l0-.11.68-3.5,3,1.39a42.92,42.92,0,0,1,4.37-1.38l.32-.09c1.73-.59,3.81,1.22,5.13,2.66h0a11.22,11.22,0,0,1,2.9-2c.23-.26.7-.82,1.18-1.48l1.86-2.54L149.27,94l.63-.88,2-2.83,1.42,1.6.37-.58,3.18-5,.75,2.34c.62-.66,1.09-1.13,1.1-1.13l2.89-2.89.52,1.22a5.86,5.86,0,0,1,.54-.39l1.38-.86.18.1.66-1.07,1.55,1,.42-.58,1.78.78,1.14-1.09,1,.64,1.93-1.93,1.48.89.21-.17h1L178,80.37l1.41,1,1.13-.92,10.21,8.09.46-.59-.77-1.26,3.1-4.12-1-1.21L201.41,70l1.45.93,1.59-1.74,1.18.55,1.62-1.9,1.33.56,1.88-2.14,1.75.8L214,65.77l3.95,4-1.77,2.17,2.08,1.65-1.09,1.19c.57.48,1.22,1,1.76,1.46L222.37,79l-1.54.71.06.05,1.24,1.13-.42,1.62c-.13.5-.25,1-.35,1.5.34.25.61.47.82.66a2.48,2.48,0,0,0,.54-.26c.73-.64,4.5-3.83,7.23-3.83a6,6,0,0,0,2-.22,6.45,6.45,0,0,1,2.76,0c.22,0,.41.06.53.07a3.64,3.64,0,0,0,.9-.34l.1-.06a4.22,4.22,0,0,1,4.21-.15,5.42,5.42,0,0,1,3,3.87A3.21,3.21,0,0,1,242.8,86l.06.08.77-1.14,1.35.76.65-1.17.66.39a12.09,12.09,0,0,0-1-2.28L243.77,81l1.29-1.87c1.14-1.65,2-2.63,2.17-2.89l1.3-1.5,1.28.5a3.63,3.63,0,0,1,.59-.55l.23-.48L248.45,72l.65-.38a5.12,5.12,0,0,1-.9-1.25L248,70l-.49-.12-.53-.13-.15-.11-2.26,2.09-9.65-8.21-4.07,3.15L211.52,50.84,216.25,44l.38.16L220,39.35l3.57,1.73,1.26-.87.22.14.5-1.09,1,.64.79-2.36,3.45,3a15.47,15.47,0,0,0,.36-3.29V32.78l2.88,1.44L237,30.7l-2.79-2.28L236.06,25l-.74-1,.62-1.17-1.54-1.54L235.58,20l-.56-.7.89-1.22-3-3.61,5.55-.28a5.63,5.63,0,0,0,.94-.13A5.17,5.17,0,0,1,246.88,17a16.86,16.86,0,0,1,.3,4c0,.34,0,1,0,1.48a22.13,22.13,0,0,0,2.19,1.6l1.46.95-.09.69.92.61.25-.09.68.09a22.3,22.3,0,0,0,3.1.26,2.62,2.62,0,0,0,.44-.12c1.34-1.89,2.89-3.8,5-3.87a3.6,3.6,0,0,1,2.79,1.3,3.88,3.88,0,0,0,2,1.51,11.66,11.66,0,0,1,2.33,1.13c.24.14.83.48,1.1.59a22.7,22.7,0,0,1,5.09,1.23l2,.67-.06,1.59,1.11.09.62,1.63.06.14,1.21.11.44,2a9.26,9.26,0,0,1,.16.94A12.43,12.43,0,0,1,282.52,37l0,0L284,38a4.55,4.55,0,0,1,.85-.24,19.77,19.77,0,0,0,1.92-.5l1.45-.45,1.16,1a25.53,25.53,0,0,1,3.91,3.63,11.91,11.91,0,0,0,2.23.91,12.23,12.23,0,0,1,1.4.44c.19.07.62.23.88.3l2.67-.89,1,.8a9.8,9.8,0,0,1,5.41-3.17l3.33-.69v3.4a10.38,10.38,0,0,0,.34,2.83l1.29-1.29,1.82,1c.52.28,1,.58,1.42.87a7.05,7.05,0,0,0,1.43.81h0a5.29,5.29,0,0,1,4.4,2,2.31,2.31,0,0,0,.54.44,13.15,13.15,0,0,1,1.82-.17h1l.78.67s1.11,1,1.92,1.56a6.78,6.78,0,0,1,2.48,3.27,3.5,3.5,0,0,1-.23,2.15,4.92,4.92,0,0,0-.36,1.53c0,.51,0,.89,0,1.18a3.29,3.29,0,0,1,2.15.2l.17.06a4.43,4.43,0,0,1,.48-1,2.15,2.15,0,0,0,.14-.29,4.5,4.5,0,0,1,2.1-2.38,4.05,4.05,0,0,1,2.8-.49l3.42.86-1.63,3.12a19.89,19.89,0,0,0-.86,1.84c0,.2,0,.43,0,.67l0,.33a4.18,4.18,0,0,1,.29,3.75l0,.12,0,.15a5.09,5.09,0,0,1-1.17,2.19l-.16.16a11.43,11.43,0,0,1-2.67,2.31,3.52,3.52,0,0,1-.9.3c0,.21-.08.44-.11.64a4.37,4.37,0,0,1-.6,1.92c-1.07,1.61-2.72,1.33-4.32,1.05l-.36-.06h0c-.5,0-1.19-.13-2.18-.29l-.18,0-1.59-.4-.5-.43c-.94-.81-2.48-2.42-2.62-4.28l-1.19,0h-.39a4.82,4.82,0,0,1-3.67,1.13l-.73-.1-.14,0c-1.67-.21-3-.41-4.14-.66l-.72.75-1.07-1.21c-3-3.75-4.63-4.38-5.35-4.42a1.29,1.29,0,0,0-1,.45c-1.57,1.58-.44,6,1.1,8.18A27.77,27.77,0,0,0,307,77.59c.66.62,1.33,1.24,2,1.89l1,1.06-1.1,1a4,4,0,0,1-4,1,9.06,9.06,0,0,1-2.23,2.36,13.21,13.21,0,0,1-3.42,1.57c-2.77,1-3.88,1.56-3.64,2.58a8.57,8.57,0,0,0,.46,1.34,4.5,4.5,0,0,1-.28,4.76A7.37,7.37,0,0,1,294,97l-.54.45a16.37,16.37,0,0,0-1.53,1.5,4.16,4.16,0,0,1,.43,1.16,4.67,4.67,0,0,0,.44,1.24,8.79,8.79,0,0,1,.73,2L295,104l-1.21,2.55a6.19,6.19,0,0,0-.32.92,6.3,6.3,0,0,1-.49,1.3l0,.1c0,.1,0,.24.06.39l.06.51-.28.43c-3.93,6-9,4.85-14.41,3.58l-.62-.15c-3.6-.84-7.73-1.55-11.14-.44-2.91,1-3.94,3.17-3.58,7.64l.1,1.26-.24,0c.09.16.18.32.26.49l.1.2.38,2.61-.09.3a3.48,3.48,0,0,1-.7,1.29,4.69,4.69,0,0,1-3.4,1.42,2.85,2.85,0,0,0-1.31.3,6.26,6.26,0,0,0-.89,1.12,8.93,8.93,0,0,1-1.49,1.77,16.1,16.1,0,0,1-4.31,2.48c-1.09.46-2.26.83-3.39,1.19a24.83,24.83,0,0,0-4.71,1.84,2.92,2.92,0,0,1-.94,1.63,2.88,2.88,0,0,1-.54.38l0,.07c0,.15-.06.28-.1.41a4.25,4.25,0,0,1-.35,1.22,8.42,8.42,0,0,1-.78,1.45c0,.05,0,.11,0,.19,0,.32,0,.65,0,.95l0,.49-.28.41c-.62.91-1.23,1.89-1.82,2.83-2,3.28-4.15,6.67-7.63,8.77-.53.32-1.06.62-1.58.92a14.25,14.25,0,0,0-4.19,3l-.4.5-.64,0a9.55,9.55,0,0,1-2-.12,25.78,25.78,0,0,1-13.17,5.1,14.42,14.42,0,0,1-5.45-.46v.58a12.39,12.39,0,0,1-.52,2.73l-.18.51a3.5,3.5,0,0,1-2.29,2.32l-1.2.2-2.13.32-1.59-3.73c-1.58.46-2.77.82-3.14.94s-.89.26-7,.81h-.12c-2,.18-4.43.4-5.61.53l-.11.1c-1,.91-2.17,2-3.91,1.26l-1.65-.72v-.67l-3.83.31-1.95.16c-.07,0-7.8.33-10.29-.37a16.61,16.61,0,0,0-4.17-.06l-.24,0-.25,0c-5.36-.42-8.5-.69-9.34-.81-.66,0-4.06.25-7.47.51.39,2.62.12,3.65-1,4.51a5.4,5.4,0,0,0-.59.55,8.38,8.38,0,0,1,.23,3.12l0,.59a9.68,9.68,0,0,0,0,1.16,4.37,4.37,0,0,1-.91,3.63,7.36,7.36,0,0,1-.8.72,3,3,0,0,1,.17,2.3c-.22.64-1.37,3.79-3.13,4.85l-.32.19c-1.19.73-3.67,2.26-5.5.19l-.24-.24c-1.18-1.17-4.3-4.26-5.49-6.94a5.42,5.42,0,0,0-1.48-1.83l-.42.3-.06.13a5,5,0,0,1-2.05,2.37,10.07,10.07,0,0,1-2.86.94,3.57,3.57,0,0,1-1.27,2.77,2.86,2.86,0,0,1-1.94,1.33l-.08,0a3.51,3.51,0,0,1-.79,2.14c0,.23,0,.61,0,1.21a2.06,2.06,0,0,0,0,.21,5.7,5.7,0,0,1,.33,2,9.84,9.84,0,0,1-1.39,4.5l-.18.36a4.12,4.12,0,0,1-1.46,1.65l0,.1.11.5c0,.22.08.36.1.46a2.73,2.73,0,0,0,.7.61l.38.26a5.29,5.29,0,0,1,1.92,1.55l.42.48a4.46,4.46,0,0,1,1.34,2.62l0,.18a4.45,4.45,0,0,1-.54,3.09,7.52,7.52,0,0,0-.41.79,2.6,2.6,0,0,0,.35.64c.13.13.72.59,1.72,1.37a3.33,3.33,0,0,1,.56-.74,5.18,5.18,0,0,1,3.53-1.32,4,4,0,0,0,.53-.06,6.13,6.13,0,0,1,1.13-1,5.19,5.19,0,0,1,1.93-.87,33.49,33.49,0,0,0,1.63-3.25c1.4-3,2.84-6.19,5.58-6.65,1.72-.28,3.52.57,5.49,2.62a8.37,8.37,0,0,1,1,1.37,4.65,4.65,0,0,0,.82,1.09c.73.55,2,.53,3.2.51h1a12.38,12.38,0,0,1,4.55.83,11.91,11.91,0,0,1,7.07,8.65,2.76,2.76,0,0,1-1.19,3,3,3,0,0,1-3.47-.22c-.05,0-1.44-1-9,6.85.14.58,1.05,4.42,1.2,5s.33,2,.47,3.21l.26,0a4,4,0,0,1,3.23.54,8.14,8.14,0,0,1,1.59.66,13.89,13.89,0,0,0,1.37.62l.21.09s.06,0,.11,0l.11,0a3.4,3.4,0,0,1,2.91,2.49,3.08,3.08,0,0,1-1.23,3.07,2.73,2.73,0,0,0,0,2,7.26,7.26,0,0,0,.66,1.82h0l.07,0,.29.19h.33c.95,0,1.43.31,3.46,1.63l.25.16a3.56,3.56,0,0,1,.26-3.07,3.37,3.37,0,0,1,2.67-1.55l.36,0c1.34-.12,4.12-.37,5.82,2.5a7.83,7.83,0,0,1,.62,1.33,4.69,4.69,0,0,1,4.81,2.18,2.22,2.22,0,0,0,.25.33,7.47,7.47,0,0,1,1,.16l.24.05.14-.07c1.09-.59,3.08-1.66,4.52,0,.78.58,2.37,1.91,1.89,3.88a3,3,0,0,1-2.58,2.23,12,12,0,0,0-3.35.82c-.23.12-.89.54-2.08,1.36a5,5,0,0,1,1.16,3.64,12.71,12.71,0,0,1-.75,3.39l0,.11a3.09,3.09,0,0,1,1.69,2.71,3,3,0,0,1,0,.5l.12.06a15.24,15.24,0,0,1,1.61.92l.41.25c.76.15,2.14.46,2.66.6l2,.52.64.17,2.75,2.5-.47,1.66A8.69,8.69,0,0,0,177,277a2.15,2.15,0,0,0,.44.88,8.45,8.45,0,0,1,.5.84c.29.59,2,4.38,2.77,6l5.63,3.58-6.76,7.27-1.51-.9-2.36,1.64-5-2.17-.36-.05a6.44,6.44,0,0,1-2.64-.87,8.14,8.14,0,0,0-1.54-.73c-.53-.07-1.36-.25-1.36-.25l-2.4-.38a8.39,8.39,0,0,1-3,1.1,1.41,1.41,0,0,0-.2.13c-.12.1-.85.83-1.65,1.68l-.68.73c0,.11.09.22.13.32a3.68,3.68,0,0,1,2.16.86c.78-.61,1.53-1.16,1.53-1.16l1.43-1,1.54.85c.12.07,2.87,1.58,3.74,2.12.23.07,1.06.29,2.89.71l.73.17c.64.16,2.22.47,2.22.48l.57.11,11.93,8.34-2.7,2.33a17.92,17.92,0,0,0-3.43,3.77,12.33,12.33,0,0,1-2.72,3.36A9,9,0,0,0,175,319c-.38,1.27-1.15,4.07-2.17,7.9l-.58,2.22H153l-6,5.91-2.56-1.45C141.65,336.22,140.74,336.67,139.75,336.67ZM134.6,331a4.58,4.58,0,0,1,.82,0l.24.07a7.14,7.14,0,0,1,.72.35l.17.09a13.48,13.48,0,0,0,2,.93l.81.25.16.84c0,.23.09.24.15.25h0a17.58,17.58,0,0,0,3.42-3l.76-.75,2.56,1.45,5.34-5.23h18.27l0-.11c.59-2.23,1.67-6.24,2.19-8a9.37,9.37,0,0,1,2.65-3.48,10.32,10.32,0,0,0,2.15-2.55c.82-1.74,3.64-4.26,4.08-4.65l-8.46-5.92c-.16,0-1.7-.34-2.33-.5l-.59-.14a22.31,22.31,0,0,1-3.58-.93L166,300c-.37-.25-2.38-1.37-3.65-2.07-.17.12-1,.72-1.72,1.31-.3.24-.62.47-.89.66l-1.2.83-.79-1.23a4.57,4.57,0,0,0-.41-.58c-.19-.19-.66-.2-1.35-.2h-1l-.35-.91c-.09-.23-.18-.52-.23-.69a2.4,2.4,0,0,0-.15-.43.55.55,0,0,0-.21-.06l-1.94-.34.95-1.73c.16-.29.38-.66.63-1l.44-.67,1.36.06c.19-.2,1.55-1.65,2-2a3.35,3.35,0,0,1,1.66-.69,8.21,8.21,0,0,0,2.32-1l.42-.23,3.4.55c.08,0,.85.18,1.28.23a9.28,9.28,0,0,1,2.6,1.13,3.72,3.72,0,0,0,1.55.47,4.25,4.25,0,0,1,1.06.25l3.6,1.55,2.57-1.79,1.11.66,2.87-3.09-3.47-2.2-.17-.38c-1.28-2.83-2.68-5.88-2.9-6.32a5.56,5.56,0,0,0-.34-.56,4.44,4.44,0,0,1-.9-2.31,11.27,11.27,0,0,1,.42-3l-.94-.86-1.88-.5c-.55-.14-2.14-.5-2.71-.6l-.21,0-.19-.1c-.17-.08-.51-.3-.77-.46a13.4,13.4,0,0,0-1.32-.76l-1.35-.66-1.34-.68.76-1.3a1.76,1.76,0,0,0,.23-.49c0-.17-.62-.44-.88-.56l-.31-.14-1.1-.52.35-1.16c.07-.24.32-1.07.49-1.49a10,10,0,0,0,.56-2.61,2.27,2.27,0,0,0-.81-1.86,1,1,0,0,0-.35-.19l-2.84-.82,2.42-1.7c2.11-1.49,3.46-2.39,4-2.67a15.18,15.18,0,0,1,4.31-1.12c.16,0,.18-.08.18-.09s-.21-.48-1-1l-.25-.23a7.73,7.73,0,0,0-1.1.53,2.85,2.85,0,0,1-2.32.3,4.61,4.61,0,0,0-.73-.12,3,3,0,0,1-2.28-1.65c-.54-.86-1-1-3-.81a3,3,0,0,1-.63,0l-.76-.1-.33-.7a6.56,6.56,0,0,1-.23-.62,6.31,6.31,0,0,0-.56-1.33c-.73-1.24-1.72-1.25-3.12-1.12l-.38,0c-.38,0-.47.17-.5.22-.15.24,0,.65.22,1.21.08.19.19.48.23.63l.07.24,0,.25a2.12,2.12,0,0,0,.21.89l.85,2.08-2.24-.13a6,6,0,0,1-1.12-.15,10.5,10.5,0,0,1-2.14-.9l-.5-.32a21,21,0,0,0-1.94-1.18l-.13,0a3.55,3.55,0,0,1-.78,0l-.27,0-.45-.26-.51-.34c-.85-.55-1.23-1.1-1.92-3.44-.77-2.58.19-4.46,1-5,0,0,.25-.19.23-.29s-.6-.27-.76-.3a4.12,4.12,0,0,1-.68-.19l-.22-.09a16.53,16.53,0,0,1-1.63-.75,5.5,5.5,0,0,0-1.17-.47l-.37-.16a2.81,2.81,0,0,0-1-.39l-.12,0a11.3,11.3,0,0,1-1.59.25l-.26,0-.25-.08a6.48,6.48,0,0,1-.91-.38l-.7-.35-.08-.78c-.13-1.36-.41-3.46-.51-3.88,0,0-1-3.94-1.21-5.13h0l-.34-1.43.53-.56c6-6.23,10.52-9.92,13.38-7.67a.18.18,0,0,0,.19,0,9.32,9.32,0,0,0-5.44-6.68,9.51,9.51,0,0,0-3.54-.62H137c-1.54,0-3.45.05-5-1.08a6.59,6.59,0,0,1-1.51-1.84,6.33,6.33,0,0,0-.65-.92c-1.22-1.27-2.27-1.9-3-1.79-1.25.21-2.48,2.89-3.47,5a27.82,27.82,0,0,1-2.23,4.23l-.46.66-.8-.05c-.12,0-.44,0-1,.43a3.52,3.52,0,0,0-.81.79l-.27.4-.52.14a7.86,7.86,0,0,1-1.68.25,2.44,2.44,0,0,0-1.52.49c-.09.09-.21.21.21,1l3,5.7-5.76-4.41c-2.51-1.9-3.51-2.69-3.82-3a5.81,5.81,0,0,1-1.13-2.17l-.06-.22v-.23a5.49,5.49,0,0,1,.87-2.18,1.66,1.66,0,0,0,.17-1.25l0-.23c0-.4-.19-.57-.62-1.06l-.5-.58a2.51,2.51,0,0,0-1-.83,3.13,3.13,0,0,1-.52-.3l-.28-.2a5.24,5.24,0,0,1-1.23-1.11,3.18,3.18,0,0,1-.68-1.64l-.11-.49a5.29,5.29,0,0,1-.07-1.78l.11-.84.79-.3a1.42,1.42,0,0,0,.83-.7l.21-.42a7.68,7.68,0,0,0,1.08-3.16,3.06,3.06,0,0,0-.17-1.09,2.93,2.93,0,0,1-.16-1.09,11.12,11.12,0,0,1,.08-2.18l.11-.51.42-.32c.23-.17.2-.7.16-1l-.13-1,.93-.44a4.59,4.59,0,0,0,.73-.44l.35-.27.56,0,.11-.22.34-.35c.43-.37.43-.54.42-.85a3,3,0,0,1,0-.34c0-.18.06-.55.12-1l.15-1,1-.17a9.73,9.73,0,0,0,3-.79,2.25,2.25,0,0,0,.91-1.13,2.56,2.56,0,0,1,.79-1.09c.44-.32,1-.73,1.49-1l.79-.54.79.53a9,9,0,0,1,3.24,3.6c1,2.19,3.93,5.12,4.89,6.08l.34.34c.29.32,1.35-.34,1.93-.69l.33-.2a8.21,8.21,0,0,0,1.91-3.33c0-.08,0-.18-.3-.53l-.81-1,.46-.82a1.76,1.76,0,0,1,.37-.47l.34-.25a8.21,8.21,0,0,0,1.21-1c.21-.22.19-.72.14-1.46a12.18,12.18,0,0,1,0-1.49c0-.17,0-.34,0-.51v-.12a4.56,4.56,0,0,0-.27-2.49l-.37-.68.38-.68a7.69,7.69,0,0,1,1.71-1.89l0,0a11.27,11.27,0,0,0-.36-3.26l-.3-1.55,1.57-.13c3.27-.27,8.64-.66,9.38-.65l.22,0c.34.06,2.95.3,9.22.79a19.45,19.45,0,0,1,5.2.15c1.76.49,8.56.32,9.31.27l1.93-.16,5.38-.42,1.69-.13-.18,1.69c0,.06,0,.12,0,.16a10.17,10.17,0,0,0,.79-.69l.53-.48.33-.29.44-.05c.91-.11,3.68-.36,6.13-.58h.13c4.17-.38,5.89-.54,6.2-.62.67-.24,3.69-1.12,4.6-1.38l1.21-.35,1.71,4,.94-.15c0-.06.2-.41.33-.69l0-.12a17.45,17.45,0,0,0,.42-2v-.79c0-.6,0-1.4,0-2v-2.45l2.13,1.22a9.89,9.89,0,0,0,5.94,1A23.17,23.17,0,0,0,221,157.7l.53-.4.65.15a7.13,7.13,0,0,0,1.31.18,18.49,18.49,0,0,1,4.53-3.2c.5-.28,1-.57,1.52-.88,2.89-1.75,4.74-4.71,6.69-7.84.52-.83,1.05-1.7,1.61-2.53,0-.22,0-.44,0-.66a2.68,2.68,0,0,1,.47-1.75,5.73,5.73,0,0,0,.56-1,1.5,1.5,0,0,0,.13-.47,2.4,2.4,0,0,1,.07-.35c0-.1,0-.19.07-.28a2,2,0,0,1,.33-.84,1,1,0,0,0,.13-.23l.26-.67.7-.18c.07,0,.1-.14.1-.32l0-.78.65-.44a23.12,23.12,0,0,1,6-2.54c1.12-.36,2.18-.69,3.16-1.1a13.47,13.47,0,0,0,3.57-2,6.64,6.64,0,0,0,1-1.23,8.28,8.28,0,0,1,1.39-1.66,4.9,4.9,0,0,1,2.87-1c.78-.08,1.26-.14,1.52-.44l0,0-.21-1.46a12.82,12.82,0,0,0-.71-1.14l-.92-1.36.68-.33-.25-.89.83-.17c-.11-3.49.64-7.68,5.59-9.3,4.07-1.33,8.69-.56,12.67.37l.62.15c5.36,1.26,8.39,1.77,11-1.84l-.48-.83.75-.77a2.51,2.51,0,0,0,.36-.87,8.89,8.89,0,0,1,.46-1.32l-.51-.23.08-1.2a5.51,5.51,0,0,0-.5-1.36,7.46,7.46,0,0,1-.67-1.91,1.05,1.05,0,0,0-.37-.66l-1-.84.78-1.08a16.59,16.59,0,0,1,2.63-2.81c.21-.18.42-.35.64-.53a5.08,5.08,0,0,0,1.19-1.16c.59-1,.49-1.21.08-2.21a11.14,11.14,0,0,1-.61-1.78c-.86-3.65,2.94-5,5.45-5.9A11.94,11.94,0,0,0,301,82.6,5.84,5.84,0,0,0,303,80.2l.51-1.21,1.25.41.14,0A28.85,28.85,0,0,1,300.8,75c-1.8-2.58-3.88-8.68-.78-11.8a4.11,4.11,0,0,1,3.21-1.29c2,.11,4.2,1.62,6.79,4.72l.16,0a32.53,32.53,0,0,0,4.53.79l.14,0,.8.11a2.5,2.5,0,0,0,1.82-.82l.41-.34.56,0,.86,0h.1c.67,0,1.42.06,1.7,0l.2,0,.26,0,1.44-.23.19,1.45a11.19,11.19,0,0,1,.1,1.41,4.26,4.26,0,0,0,1.64,2.4l.94.23,1.15.17.85.1.42.07a6.2,6.2,0,0,0,1.61.18l.12-.75a12.81,12.81,0,0,1,.34-1.63l.08-.28.28-1.06h1.09a1.88,1.88,0,0,0,.76-.1,15.09,15.09,0,0,0,1.92-1.76l.17-.17a2.93,2.93,0,0,0,.48-1.06l0-.12a3.74,3.74,0,0,1,.21-.54c.16-.31-.18-1-.44-1.5l-.18-.33v-.38c0-.21,0-.53,0-.77s0-.59,0-.79l0-.33A17,17,0,0,1,336,58.21a2.41,2.41,0,0,0-.76.27,1.74,1.74,0,0,0-.78,1,5,5,0,0,1-.37.71,2.54,2.54,0,0,0-.3.78,2.09,2.09,0,0,1-.88,1.43l-.34.16a3.85,3.85,0,0,1-2.47-.38,2.49,2.49,0,0,0-.41-.13l-.44.44-.68,0a3.86,3.86,0,0,1-.68-.08c-1.84-.29-1.84-2.89-1.84-4.29a7.43,7.43,0,0,1,.52-2.47,2,2,0,0,0,.15-.53,4.48,4.48,0,0,0-1.43-1.69c-.79-.59-1.81-1.46-2-1.66a12.17,12.17,0,0,0-1.59.17c-1.33.21-2.6-1.09-2.84-1.36a2.57,2.57,0,0,0-2.35-1,5.67,5.67,0,0,1-2.9-1.24c-.41-.27-.8-.52-1.22-.75-.48.46-1.54,1.06-3.41.26l-.35-.15-.23-.3a9.37,9.37,0,0,1-1-4.77,7.26,7.26,0,0,0-4,2.49l-.14.15-.36.39-.38.44-.58,0a3.43,3.43,0,0,1-2-.76l-1.47.49a3.8,3.8,0,0,1-2.45-.39,9.86,9.86,0,0,0-1.1-.36,13.06,13.06,0,0,1-3.43-1.49l-.24-.17-.15-.25A20.33,20.33,0,0,0,287.61,40c-.47.14-1.49.44-2.23.58a2.3,2.3,0,0,0-.74.3l-.87.44-.65-.46-.83,1.05-1-2.07c-.06-.13-.49-.85-2.75-1.86a4.33,4.33,0,0,1-.72-.38l-.44-.3-.15-.52a5.47,5.47,0,0,1-.09-.64,7.67,7.67,0,0,0-.13-.92l-.31,0-.36-.35a4.68,4.68,0,0,1-.91-1.46l-1.61-.13-.22-1a5.45,5.45,0,0,1-.11-1.2A19.52,19.52,0,0,0,269.22,30a5.1,5.1,0,0,1-2.36-1,9.44,9.44,0,0,0-1.76-.87,6.71,6.71,0,0,1-3.37-2.45.64.64,0,0,0-.51-.24c-.89,0-2.25,2-2.77,2.7l-.29.39a3.75,3.75,0,0,1-2,.86,21.71,21.71,0,0,1-3.94-.25l-.94.34-3.57-2.38.08-.67A17.32,17.32,0,0,1,244.73,24l-.2-.26-.07-.32a13.5,13.5,0,0,1-.11-2.44,15.21,15.21,0,0,0-.21-3.28,2,2,0,0,0-1.46-1.39,2.13,2.13,0,0,0-1.65,0l-.2.15a5.83,5.83,0,0,1-2.1.48l.79.95-.92,1.26.67.84-1,1.17,1.16,1.16-.76,1.43.75,1-1.58,2.92,3.19,2.6-6.18,7.45-.79-.39a17.35,17.35,0,0,1-.51,4.1,6.58,6.58,0,0,1-1.23,2.17l-.92,1.15-2.65-2.3-.58,1.74-1.34-.84-.5,1.09L225,43.61l-1.08.75L221,42.94l-1.86,2.59L223.25,50l-6-2.51-1.95,2.84L230.9,63l4.1-3.18,9.49,8.07,2.13-2,1.58,1.15,1.18.31.64.18.27.61c.13.28.25.56.44.93a4.57,4.57,0,0,0,1.62,1.52l1.87,1.25-1.18.7,1,1-.63,1.3,1.77,2.24L252.08,77c-.06,0-.21.14-.59.72l-.63,1-1.49-.58c-.23.28-.94,1.15-1.95,2.6a16.07,16.07,0,0,1,2,4.5l.26.83L247,88.6l-.3-.17-.63,1.13-1.55-.88-1.1,1.62-1.65,2.41-.44-1.4-1.65,1.65-.16-3.18c0-.35,0-.68-.06-.93a2,2,0,0,1,.25-1.26l.26-.43.09,0L239,85.79l.88-.92a5.81,5.81,0,0,1,.64-.56.34.34,0,0,0,.13-.34c-.05-.54-.81-1.29-1.46-1.61a1.39,1.39,0,0,0-1.55.08l-.24.13a5.66,5.66,0,0,1-2,.63,4.59,4.59,0,0,1-1-.08,4.44,4.44,0,0,0-1.61,0,8.77,8.77,0,0,1-2.78.34c-1.22,0-3.92,1.87-5.36,3.13a6.55,6.55,0,0,1-2.48,1.12l-1,.26-.56-.85A6.08,6.08,0,0,0,219,85.83l-.75-.5.13-.89c.1-.65.31-1.67.55-2.61-.18-.17-.9-.81-1.61-1.4L215.6,79l1.46-.67c-.73-.59-2.16-1.79-2.87-2.43l-.94-.86.86-1.17-.77-.61v-.88l-.69-.73,1.46-1.75-.38-.38-1.16.87-1.37-.62-1.84,2.09-1.3-.54-1.67,2-1.26-.59-1.8,2L202,73.82l-5.87,7.45,1,1.17-3.31,4.4.8,1.3-.92,1.17,1.49,1.75-1.43.86c-.67.4-2.61,1.57-3.12,1.91a2.48,2.48,0,0,1-.33.18l-2.52,1.11,1-4.53-8.22-6.52-1,.8-1.19-.8-1.82,1.86h-1.18l-1,.76-1.25-.75-2,2-1-.67-.87.83-1.42-.62-.67.93-1.38-.92-.54.87-1.08-.6a7,7,0,0,0-1.39,1.33l-1.48,1.81-.61-1.43c-.3.3-1.57,1.59-2.56,2.75l-1.65,1.93-.42-1.3c-.25.4-.84,1.29-1.39,2l-.85,1.15-1.14-.86a4.14,4.14,0,0,1-.49-.44l-1.54,2.15-1,1.35-1.11-1.11a18,18,0,0,1-1.63,2l-.18.17-.22.1a8.29,8.29,0,0,0-2.28,1.57,1.93,1.93,0,0,0-.51.84l-1,3.37L141,102c-.65-.9-2.5-2.76-3.23-2.91l-.28.08a40.39,40.39,0,0,0-4.2,1.34,2.31,2.31,0,0,1-1.82,0,4.25,4.25,0,0,1-.34,1l-.18.25c-.36.4-1.79,1.5-2,1.64a8.33,8.33,0,0,1-.7,2.45l-.09.13c-.13.16-.31.42-.53.74a10.52,10.52,0,0,1-2.33,2.73c-.92.61-5.06,3.32-6.81,4.46l-.71.46-.75-.41q-.24-.13-.55-.27a4,4,0,0,1-1.38-1.26c-.26-.33-.47-.58-.61-.58h-2.79c-1.66,0-3.89.31-4.43.71a3.25,3.25,0,0,1-.7.45,2.09,2.09,0,0,1-1.49-.06,1.13,1.13,0,0,0-1.23.36,1.38,1.38,0,0,0,.27-1.45l-1.21.47.1,1.45a1.73,1.73,0,0,1-.36,0h-.83l-.08-.22c-.26-.1-.53-.23-.82-.36a3.58,3.58,0,0,0-.62-.26c-.1,0-.14.06-.15.34l0,1-1,.3a2.82,2.82,0,0,0-.79.34l-.1.06a8.75,8.75,0,0,1-2.53.73l-.13,0-.63.14-1.46.33-.21-1.2c-.11.11-.3.32-.52.57l-.48.57-.74-.08h-.29a4.9,4.9,0,0,1-1.72-.45,2.73,2.73,0,0,0-.49-.17l-.13,0c-.46.05-2.5.18-3.77.26l-1.38.88A10.14,10.14,0,0,0,82.37,118l-.24.3-.36.13a3.22,3.22,0,0,1-.63.16l-.91,2.45-1.29-.43-.81-.29a4.14,4.14,0,0,1-1.18-.91c-.42-.4-.86-.82-1.19-.82-.59,0-5.82.23-7,.28a37,37,0,0,1-2.61,4.55,5.06,5.06,0,0,0-1,3.42,3.32,3.32,0,0,0,1.09,2.1l.65.65-.34.86s0,.14.28.39l.79.78-.56,1-.16.25-.3.47-.55.15a5.76,5.76,0,0,1-1.08.2c-.39,0-.62.27-1.1,1l-1.5,2.34-1.7-1-.17.62-1.67-1.3-.48-.38-.08-.06A6.54,6.54,0,0,0,57,134a17.13,17.13,0,0,1-2.76-1.81c-.18.24-1,1.3-1.86,2.19a3.26,3.26,0,0,1-1.73,1,2.31,2.31,0,0,0-.51.18,4.57,4.57,0,0,0-1.44,1.38,3.69,3.69,0,0,0-.55,2.46v.33a1.2,1.2,0,0,0,.27.93,2.13,2.13,0,0,1,.29.47c.09.19.15.34.21.48s.19.46.45.95l.28.54-.19.57a.61.61,0,0,0,0,.47,2.19,2.19,0,0,1,0,1.15,4.14,4.14,0,0,0,0,1.08l.11.88-.74.48a11.81,11.81,0,0,0-2.24,1.71,2.52,2.52,0,0,1-.8.7l-.79.4-.71-.53a10.51,10.51,0,0,1-1.37-1.3l-1.87,2.35,2,1.66-.51,1.3.33.49.51.74L43,156a2.44,2.44,0,0,1-.63.72,3,3,0,0,0-.7.86,2.94,2.94,0,0,1-1.11,1.19l-.33.18h-.37a3.23,3.23,0,0,1-1.49-.57,8,8,0,0,0-.93-.47,3.86,3.86,0,0,0-3,0,2.69,2.69,0,0,1-.38.12l-.55.54-.77-.62a10,10,0,0,0-1.95,2.44s-.13.48.42,1.59l.46.92-.73.72c-.37.36-.82.8-1.28,1.2a9.09,9.09,0,0,0-1.33,1.46c-.23.29-.48.62-.84,1a2.64,2.64,0,0,1-2.39.86h-.21a1.29,1.29,0,0,0-.31.17,6.76,6.76,0,0,1-1.28.65l-.26.07a9.47,9.47,0,0,1-3.27-.5,9.12,9.12,0,0,0-2.13-.38,24.38,24.38,0,0,1-2.92,0c.07.14.24.46.5,1a15,15,0,0,1,.57,4.34,28.11,28.11,0,0,1-1.23,5.32,2.9,2.9,0,0,0,.19,2.15c.06.14.11.27.14.38l.07.21a8.74,8.74,0,0,1,.58,2.7v.29l-.13.27a20.55,20.55,0,0,0-1,3c-.28,1.09-.87,3.64-1.06,4.44l-.05.23.05.82,0,.19a7.25,7.25,0,0,0,.66,3.68l.16.4-.09.42c-.28,1.38-.34,1.84-.36,2s.08.35.73.7c.19.1.38.21.55.32l1,.65-.47,1.09A5.9,5.9,0,0,1,14.8,204l4.74,4.24L18,210.48a10.79,10.79,0,0,0,1.14,1.09l2.17,1.79-.9.23L25,217.17l-1.63,2,.56,1.28-.72,1.05.33.5-.75,1.29.77.07.14,1.14c0,.35.08.8.11,1.22.11.18.38.65.57,1l.35.69-.39.67-.09.15,1.85.33.28,4.73h.87l1,1.74,6,1.46.25.75a25.26,25.26,0,0,1,.7,2.52c0,.16.06.3.08.42l.25,1.44-.29,0a3.06,3.06,0,0,1,.22.37,12.61,12.61,0,0,0,1.25,1.18l1,.92a5.12,5.12,0,0,0,2.7,1.21h.23l.21.08a6.1,6.1,0,0,1,1.29.79l9.59,6.93,1.35-.07a3.87,3.87,0,0,1,.47-.06l1.61-.12-.1,1.79s.09.21.66,1.12l.82,1.09.85.77.28.24.12.35a11.13,11.13,0,0,1,.33,1.22l.06.26,0,.26c-.05.34-.14.9-.18,1.08a14.43,14.43,0,0,0,0,2.09l.47.29.15.18a11.15,11.15,0,0,1,1.47,3.68c.12.42.2.7.25.81s.36.44,2.12.81l.6.13.32.53c.26.42.64,1,1,1.66.68,1.08,3.5,4.72,4.07,5.4.32.39.71.8,1,1.09l.43.45-.05.76a7.75,7.75,0,0,0,.43,2.33l1,.25a3.4,3.4,0,0,1,.45-1,3.17,3.17,0,0,1,2.69-1.4,3.35,3.35,0,0,1,1.2.21,54,54,0,0,1,5.68-5c.82-.66,1.64-1.32,2.43-2a3.33,3.33,0,0,1,4-.39,36.65,36.65,0,0,0,6.4,3.26c4.33,1.86,8.8,3.78,11.46,8.87a3.59,3.59,0,0,1,.05,3.14,3.08,3.08,0,0,1-2.17,1.72c-3.5.73-6.28,2.55-9.29,6.11a3,3,0,0,1-1.85,1.06l-.42.48,1,.7v2.88l1.85.45.3.58c.09.17.21.41.36.72.33.7.76.78,1.07.73l.21,0,.21,0c.85.12,1.52.2,1.89.23l1,.07,1.16,3.81,10.91,6.88-1.52,2.76c.1.37.37,1.32.42,1.69l0,.14a3,3,0,0,0,1.18-.13l1.15-.24.45,1.09c.44,1.07,1.21,3,1.4,3.73a1.43,1.43,0,0,0,.71.94,1.45,1.45,0,0,0,.84.19,6.53,6.53,0,0,1,.64-.18l0-.32.61.09a1.78,1.78,0,0,1,.61-.34l1.78-.56.11,3.5.22.1a2.13,2.13,0,0,0,1.45,0l.49-.15.47.2a5.59,5.59,0,0,0,1.57.43l.94.09.27.91a3.27,3.27,0,0,1,.13.8,10,10,0,0,1,3,.9l.13.11A6.78,6.78,0,0,0,132.3,331l1,0Zm-15.37-5.29h.09a.82.82,0,0,0,.55-.66l-.87-.1Zm-.24-.75.88.08a1,1,0,0,0,0-.34l-.86.22Zm-.15,0h0Zm27.16-83h0Zm.13-.12ZM117,183.13h0ZM46.11,142.3h0Zm91.66-43.24Zm.15,0h0Zm-5.85-1.08h0ZM297.56,43.16h0Z"/></svg>