<svg id="Layer_1" data-name="Layer 1" xmlns="http://www.w3.org/2000/svg" viewBox="0 0 350 350"><defs><style>.cls-1{fill:#999;}.cls-2{fill:#f90;}</style></defs><title>M</title><path class="cls-1" d="M280.88,71.89c1.64-4.51,3.44-9,4-13.7l-.57.06c-2.92.41-6.62-1.22-6.33-4.82a25.56,25.56,0,0,1,1.44-6.07c.13-.39.24-1,.39-1.58-3.4-1.37-3.36-6.74-.36-9-1.46,1.09.55-1.4,0-2.69a2,2,0,0,0-1.76-1.35l-.08,0a19.56,19.56,0,0,1-3.67.33c-5.32-.3-7.17-9-1.33-9.82l.61-.07c.5-2.56,1.17-5.09,1.52-7.67l-1.44.38a5.15,5.15,0,0,0-.43-2,1.49,1.49,0,0,0-1.3-.74c-2.79-.11-5.49,1.55-8.26,1-1.56-.29-2.66-1.45-4.38-1.4a10.64,10.64,0,0,0-2.4.74,35.66,35.66,0,0,1-4.13.46A7.94,7.94,0,0,0,249,15.15a15.74,15.74,0,0,0-4-2.2,1.53,1.53,0,0,0-2.2.9l-2.08,5.07c-2.46.94-5.1,1.93-5.52,2.05-1.18.18-5.22.94-9,1.67a1.3,1.3,0,0,0-1.41-1.08l-4.12.19c-1,0-2.42-.1-3.31.53s-1,1.66-1.14,2.66l-.12.65c-2.88,1.57-7.14,4-9.38,5.28l-.26.15-2.9,4.09L199.31,37l-.18.24a10.08,10.08,0,0,0-2.79,1.47,1.31,1.31,0,0,0-1.29.09c-1.31.84-5.31,3.72-5.54,5.89l-3.24,1.71L183.63,50l-2.58,3.16-8.56,4.06a1.22,1.22,0,0,0-1.88-.39c-3.83,2.91-9.54,3.78-11.54,8.29q-.64.62-1.26,1.26a6.34,6.34,0,0,0-1.42,1.33c-3.1,1.63-4.11,2.18-4.48,2.41h0l-1.66.84c-1.93-.48-3.8-.71-5.22.52A23.29,23.29,0,0,0,142,75.08l-1.31.65-.25.12-3.29,3.78-.12.2a36.63,36.63,0,0,1-5.87,3.36,1.5,1.5,0,0,0-.69,1.69l1,3a1.58,1.58,0,0,0,.21.41l-4.67,5.41-1.12,5.13L120,111.41l-1.76,7.24-.21.29,0,0c-1.18.61-2.8.85-3.57,2.07-1.6,2.52,1.8,7.56,2.73,9.81a1.69,1.69,0,0,0,.57.73l-.06,2.58-.79,3.44s-.1.34-.32.92-.35,2.07-.55,6.86c0,.83-.06,1.5-.08,1.8-.07.91-.73,5.41-1,7.07l0,.17.74,8.06-1,3.69-5.43,4.53-.12.41c0,.11-3,10.67-3.26,11.45-.23.61-2.38,4.33-3.3,5.91-.54.93-.94,1.63-1,1.77-.23.44-2.63,4.1-3.25,5-.35.26-1.32.91-2.13,1.45l-.43.29-.14.5s-.13.47-.64,1.9a14.91,14.91,0,0,1-.79,1.69,1.8,1.8,0,0,0-1.65-.62c-3.57.53-7.91,3.1-5.22,7.17l.1.12A9.32,9.32,0,0,0,92,218.32a9.23,9.23,0,0,0,.33.94v0h0c.05.12.09.24.15.36a1.53,1.53,0,0,0,.1.17,22.93,22.93,0,0,0-4.36,10c-.41,2.07-1.12,4.36-3.15,5.52-.72.41-1.74.3-2.47.76a4.08,4.08,0,0,0-1.9,2.44,5.09,5.09,0,0,0-.28.91,1.07,1.07,0,0,0-.07.1,9.73,9.73,0,0,0-.53,1.54c-.08.12-.16.23-.26.36-.34.42-1,.64-1.21,1.15a2.88,2.88,0,0,0-.08,3c.67,1.15,1.86,1.36,3.05,1.69,2.1.57,3.88.69,5.63,1.18,0,.25.06.5.07.72a6.4,6.4,0,0,0,1.32,3.53L89.6,255l.17,2.73c-.38,1.92-.8,4-.93,4.57-.16.33-.16.77.09,2.31a13.79,13.79,0,0,0-2,1.28A13.37,13.37,0,0,0,82.71,271h0l-3.27,7.32,1.24,3.27-.43,2.9v.14c0,.79.09,1.68.11,2.38a11.18,11.18,0,0,1-1.25-.28,1.52,1.52,0,0,0-1.85,1.84c1.37,5.37-3,4.84-4.71,8.07-.65,1.19-.23,1.69-.52,2.89a6.76,6.76,0,0,1-2.33,4c-1.12,1.07-4-2.78-4.5-1.2-.82,2.46,2.71,10.47.52,12.38A1.52,1.52,0,0,0,66,317a5.45,5.45,0,0,0,1.85,1c3.63-2.54,8.85-2.7,13-4.16a5.51,5.51,0,0,1,.93-.23l.14-.25,2.18-2,.28.08c1.72-2.05,4.8-2.88,7.11-.32,5,5.49,13.52,5.72,19,10.95a61.59,61.59,0,0,1,8.22,9.69,9.26,9.26,0,0,1,9.23-.28c2.92,1.52,4.9,4,7.39,5.76.52-2,1-4,1.38-6.06a5,5,0,0,1,4.82-3.67c5.21.43,18.08-9.15,12.59-14.51-2.92-2.85-1.15-7,2.21-8.36,2.19-.86,3.1-5.28,4.46-7.1a10.54,10.54,0,0,1,7.32-4.51,31.57,31.57,0,0,1,3.8.3c2.22,0,2,.28,3.75-1.59a69.24,69.24,0,0,1,5.8-6c1.88-1.61,3.9-3.14,6-4.64,4.28-9.11,11.94-20.67,21.92-21.59.07-.14.14-.29.22-.42a8.48,8.48,0,0,0,.3-1.9c0-.84,1.52-6.25,2.93-11l.34-1.15-1.09-.5a17,17,0,0,0-4.58-1.62h0a37,37,0,0,1-4.48-1.62l-1-1.79,1.19-.79c1.27-.85,2-3.25,2.75-9.51.07-.54.11-.93.12-1,.09-.28.22-.68-.3-2.41a12.89,12.89,0,0,1-3.17-8.59l-13-5.09.92-6.33-.94-.34.11-.43,4-.6a15.76,15.76,0,0,0,6.89-1,1.47,1.47,0,0,0,1-1.85l2.56-.49c2.71-.54,4.63-1.4,5.63-4.07a1.51,1.51,0,0,0-1.45-1.9l-14.63-.71c-1.22-.06-2.53-.41-3.68.06a2.27,2.27,0,0,0-.56.35l-1.23-.21a6,6,0,0,1-1.71-1.57,1.67,1.67,0,0,0-.26-.27c0-.13-.06-.25-.07-.38l.75-1.08a11.89,11.89,0,0,0,2.5-.27,20.28,20.28,0,0,0,2.56-1.35l.4-.22.19-.42,0-.07a12.89,12.89,0,0,0,4.38-.61c.73,0,1.45-.08,2.18-.16a1.53,1.53,0,0,0,.57.11,1.41,1.41,0,0,0,.92-.31,21.83,21.83,0,0,0,2.87-.67c1.12-.35,1.61-2.18.36-2.74a31.36,31.36,0,0,0-18.06-2.5c-1.51-.71-2-.67-2.48-.37-.23.09-.9.29-1.57.48l-1.72-.91-.7.55-.12.09-.74-.57-1.18-1-1.43,2.15-13.78-4.23-4.64-3.85-2-5.79.4.21,3.82.72,4.87,4.18,3.26-.63.59-.65.91.34,5.74-1.88.26-.41c5.88-9.15,5.63-9.69,5.28-10.43l-.37-.72-.35,0a9.5,9.5,0,0,1-.66-1.65l-.24-.8-3.85-.72-11.5,4.12-2.24-4.31-1.13.2.23-.36,6.29-4.53,2-4c1.58-1.67,3.33-3.49,3.9-4,1.2-.32,6.21-1.59,7.32-1.8,1.39-.26,6.14-1.94,6.68-2.13l.31-.11.23-.23s2.45-2.54,4.36-4.69c.72-.81,1.14-.91,1.26-.92l.94.8,4.11-4.91.48-2.42c.17-.82,1.54-.73,1.59-.72l.59.06,4.8-4.16c.4-.28,2.9-2.07,3.56-2.51A2.93,2.93,0,0,0,210,118.2a6.5,6.5,0,0,1,.63-1c.32-.43.4-.45,1.09-.59a10.73,10.73,0,0,0,1.88-.53,17,17,0,0,1,3.42-.91l.52-.07,5.7-6.65,6.16,2.19,6.17-2.56-2.59-6.2.27-.46c2.89.34,6.51.78,7.58,1,.19.22.5.63.76,1l.88,1.27,4.08-3.55,1.38-6,4.54-7.87-4.59-3.95-.25-2.78,5.27-.71,8.84-8.21,4,1.92.4,0c.85-.1,8.41-1,10.51-1.72a8.91,8.91,0,0,1,4,0ZM91.85,210.5a16.92,16.92,0,0,1,.39-1.88v.69l.2.24C92.25,209.87,92.06,210.19,91.85,210.5Zm-1.31,23.32-.12-.12c.3-.86.55-1.7.78-2.52l.3,0Zm5.69-17.21h-.06c-.23,0-.43-.07-.64-.11a1.62,1.62,0,0,0,.62-.58l.13-.09.07.21Z"/><path class="cls-2" d="M136.23,339.58l-1.67-1.19a33.46,33.46,0,0,1-2.92-2.42,21.44,21.44,0,0,0-4.3-3.25,7.82,7.82,0,0,0-7.89.26l-1.13.62-.73-1.06a60.2,60.2,0,0,0-8-9.47c-2.44-2.33-5.56-3.59-8.87-4.93-3.65-1.48-7.42-3-10.21-6.09a2.94,2.94,0,0,0-2.3-1.12,3.71,3.71,0,0,0-2.67,1.41l-.59.7-.39-.11-1.45,1.37-.33.6-.68.11a4.11,4.11,0,0,0-.69.17,43,43,0,0,1-4.94,1.28c-2.78.6-5.65,1.23-7.75,2.7l-.52.37-.62-.15a5.61,5.61,0,0,1-2-1l-.3-.2a3.12,3.12,0,0,1-1.38-2.35,2.71,2.71,0,0,1,.92-2.26c.65-.57-.1-4.16-.46-5.88-.5-2.41-.94-4.49-.47-5.87a1.9,1.9,0,0,1,1.21-1.26c1.07-.36,2.06.32,3,1,.27.18.67.46,1,.61a5.12,5.12,0,0,0,1.62-3,3.58,3.58,0,0,0,.08-.87,4.49,4.49,0,0,1,.57-2.37,8.73,8.73,0,0,1,2.94-3c1.56-1.1,2.27-1.6,1.64-4.08a2.89,2.89,0,0,1,.71-2.74,3,3,0,0,1,2.27-.91c0-.19,0-.38,0-.57l0-.29.39-2.68-1.31-3.47,4-8.93h.06a16.42,16.42,0,0,1,4.13-4.56,15.15,15.15,0,0,1,1.34-.91,4,4,0,0,1,.1-2c.13-.59.48-2.3.86-4.22l-.14-2.21-1.06-1.8a7.85,7.85,0,0,1-1.54-3.9c-.5-.11-1-.2-1.54-.29-1-.17-2-.35-3.13-.66l-.31-.08a5.21,5.21,0,0,1-3.6-2.26,4.3,4.3,0,0,1,0-4.4,3.29,3.29,0,0,1,1.11-1.19,2.66,2.66,0,0,0,.26-.21l.06-.08a11.19,11.19,0,0,1,.54-1.51l0-.08a6.22,6.22,0,0,1,.3-.91,5.42,5.42,0,0,1,2.46-3.1,4.91,4.91,0,0,1,1.77-.59,3.09,3.09,0,0,0,.74-.19c1.55-.89,2.11-2.81,2.46-4.57a24.61,24.61,0,0,1,4.12-10l-.14-.38A10.7,10.7,0,0,1,85.85,208a5,5,0,0,1-.43-4.71c1.14-2.56,4.41-3.89,6.86-4.25a3.25,3.25,0,0,1,.95,0l.42-1.62v1.31c.39-1.12.52-1.56.54-1.63l.28-1,.86-.58c.68-.45,1.45-1,1.89-1.27.92-1.39,2.83-4.34,3-4.71.06-.11.47-.84,1-1.81,1.92-3.32,3-5.21,3.19-5.67.34-1.16,3.21-11.27,3.24-11.37l.24-.83,5.42-4.52.8-3-.73-8,.05-.34c.35-2.29.92-6.2,1-7,0-.29,0-.92.08-1.71.22-5.26.33-6.56.64-7.37.18-.46.26-.7.27-.77l.75-3.25,0-1.83a3.24,3.24,0,0,1-.44-.76c-.18-.43-.48-1-.83-1.68-1.47-2.86-3.49-6.77-1.8-9.43a5.89,5.89,0,0,1,3.15-2.16l.58-.23,1.75-7.07,5.8-12.42,1.16-5.33L130,88l-.89-2.74a2.9,2.9,0,0,1,1.45-3.42,35.22,35.22,0,0,0,5.41-3.06l.11-.14,3.48-4L141,74l.12-.15a21.51,21.51,0,0,1,2.95-3.37c1.77-1.53,4-1.39,6-.94l1.13-.58,1.16-.65h0l3.11-1.65a7.77,7.77,0,0,1,1.42-1.29l1-1c1.55-3.22,4.63-4.72,7.61-6.18a25.52,25.52,0,0,0,4.26-2.41,2.65,2.65,0,0,1,2.11-.54,2.57,2.57,0,0,1,.9.36l7.39-3.5,2.38-2.92,2.77-3.85,3-1.56c1-2.78,5.11-5.55,6-6.12a2.72,2.72,0,0,1,1.77-.43A11.57,11.57,0,0,1,198.26,36l.15-.19L202.62,34l2.86-4,.54-.31c2.14-1.22,6-3.41,8.81-5l.06-.33a4.48,4.48,0,0,1,1.65-3.21,5.81,5.81,0,0,1,3.46-.78h.61l4.12-.19a2.76,2.76,0,0,1,2.22.91c3.13-.6,6.63-1.26,7.9-1.46.45-.15,2.24-.81,4.77-1.77l1.84-4.5a3.11,3.11,0,0,1,1.73-1.77,3,3,0,0,1,2.39.14l.78.35a16.8,16.8,0,0,1,2.76,1.44,11.06,11.06,0,0,1,3.15-.83c.61-.09,1.2-.13,1.77-.16a11,11,0,0,0,2.2-.27,6.08,6.08,0,0,0,.71-.26,5.64,5.64,0,0,1,2-.52,6.76,6.76,0,0,1,3.22.87,6,6,0,0,0,1.46.56,9.56,9.56,0,0,0,3.94-.45,14.66,14.66,0,0,1,4.12-.61,2.86,2.86,0,0,1,2.53,1.58,6,6,0,0,1,.29.77l2-.52-.28,2.1c-.24,1.76-.62,3.49-1,5.17-.19.86-.38,1.72-.55,2.58l-.2,1-1.61.19a2.55,2.55,0,0,0-2.37,2.89c.08,1.88,1.47,4,3.59,4.11a11.46,11.46,0,0,0,2.41-.19l1-.14.18,0h.24a3.42,3.42,0,0,1,2.91,2.22,4.52,4.52,0,0,1-.37,3.29c-.06.14-.11.26-.13.35a1.31,1.31,0,0,0-.5-1.28,1.33,1.33,0,0,0-1.18-.24l1.68,2.23a4.55,4.55,0,0,0-1.62,4.15,2.87,2.87,0,0,0,1.65,2.4l1.16.47-.32,1.21c-.06.23-.12.47-.17.7s-.17.71-.25,1a24.58,24.58,0,0,0-1.38,5.74,2.59,2.59,0,0,0,.82,2.23,5,5,0,0,0,3.9,1.08l.36,0,2.05-.27-.24,1.83a58.18,58.18,0,0,1-3.53,12.4l-1,2.79-1.46-.35a7.66,7.66,0,0,0-3.25-.06c-2.18.71-9.36,1.61-10.78,1.78l-.81.1L262,73.34l-8.47,7.85-4.37.59.08.85,5,4.34-5,8.7-1.44,6.2-5.62,4.89-1.78-2.58-.35-.49c-1.06-.15-3-.4-5.06-.64l2.42,5.79-8,3.31-5.76-2-5.42,6.32-1.05.15a15.56,15.56,0,0,0-3.1.83,12,12,0,0,1-2.1.6l-.25.05h0a5.13,5.13,0,0,0-.51.8,4.33,4.33,0,0,1-1.58,1.76c-.6.4-2.69,1.89-3.37,2.37l-.1.08-5.2,4.51-1.19-.11h-.15l-.47,2.36-5.26,6.29-1.22-1-.09.09c-1.84,2.08-4.14,4.47-4.4,4.73l-.46.48-.62.22c-2.05.72-5.61,1.95-6.9,2.19-.94.17-5.18,1.25-6.86,1.69-.66.65-2,2.07-3.44,3.57l-2,4.15-5,3.59,1.4,2.71,10.7-3.83,5.07,1,.49,1.63c.08.25.17.52.26.75l.32,0,.71,1.39c.73,1.55.66,2.47-5.35,11.83l-.54.84-6.69,2.19-.48-.18-.26.29-4.39.84-5.1-4.37-1.39-.26,1,3,4.12,3.42,12.5,3.83,1.71-2.57,2.23,1.81.67-.52,2,1.07.81-.25c1-.54,2-.36,3.27.2a32.7,32.7,0,0,1,18.44,2.68,2.64,2.64,0,0,1,1.57,2.63,3.1,3.1,0,0,1-2.09,2.76,22.59,22.59,0,0,1-2.75.66,3,3,0,0,1-2.16.3c-.64.06-1.23.11-1.8.13a14.32,14.32,0,0,1-3.7.62l0,.08-.81.45a18.39,18.39,0,0,1-2.81,1.46,7.39,7.39,0,0,1-1.84.26,4.37,4.37,0,0,0,.7.61l.38.06.34-.17a6.7,6.7,0,0,1,3.42-.25c.29,0,.59.07.87.08l14.63.71a3.13,3.13,0,0,1,2.42,1.39,2.66,2.66,0,0,1,.28,2.42c-1.29,3.45-4,4.43-6.68,5l-1.44.28a3,3,0,0,1-1.89,2,17.21,17.21,0,0,1-7.33,1.14l-1.85.28-.74,5.09,12.88,5,0,1a11.47,11.47,0,0,0,2.86,7.66l.17.22.08.26a5.34,5.34,0,0,1,.33,3.11c0,.18-.06.49-.11.88-.87,6.92-1.65,9.37-3.37,10.51l-.1.07.11.21c1.83.74,3.23,1.23,3.63,1.33s1.64.18,5,1.74l2.2,1-.69,2.32c-1.62,5.46-2.82,10-2.87,10.66a9.41,9.41,0,0,1-.34,2.17l-.05.21-.11.18c0,.07-.08.16-.12.24l-.35.7-.82.15c-10.38,1-18,14.86-20.76,20.78l-.15.33-.29.21c-1.68,1.22-3.87,2.85-5.88,4.57a47.8,47.8,0,0,0-4.39,4.48l-1.28,1.42c-1.68,1.83-2.1,2.12-4.12,2.07h-.69a12.71,12.71,0,0,1-1.79-.18,7.3,7.3,0,0,0-1.85-.13,9.28,9.28,0,0,0-6.33,3.95,14.06,14.06,0,0,0-1.21,2.4c-.9,2.07-1.92,4.41-3.87,5.18a4.4,4.4,0,0,0-2.72,3.08,3.11,3.11,0,0,0,1,2.95c1.9,1.86,2.28,4.35,1.06,7-2.24,4.91-10.24,10.3-14.76,9.91a3.62,3.62,0,0,0-3.31,2.52c-.34,1.86-.79,3.82-1.4,6.16Zm-12.55-10.63a10.64,10.64,0,0,1,5,1.27,23.87,23.87,0,0,1,4.88,3.65l1,.9c.33-1.38.6-2.63.82-3.84a6.39,6.39,0,0,1,6.33-4.82c3.09.23,10.06-4.13,11.94-8.26,1-2.09.2-3.18-.46-3.82a5.91,5.91,0,0,1-1.78-5.54,7.2,7.2,0,0,1,4.46-5.15c.86-.34,1.7-2.26,2.31-3.67a15.29,15.29,0,0,1,1.54-3,11.89,11.89,0,0,1,8.31-5.07,9.86,9.86,0,0,1,2.56.14,10.39,10.39,0,0,0,1.4.15l.73,0a5.4,5.4,0,0,0,.82,0,9.26,9.26,0,0,0,1.14-1.14l1.26-1.39a50.74,50.74,0,0,1,4.66-4.74c2-1.69,4.08-3.27,5.76-4.5,3.68-7.74,11.24-20.33,22-22a5.13,5.13,0,0,0,.14-1c.07-1.53,2.77-10.65,3-11.36-3.14-1.44-3.92-1.47-4-1.47h-.18a38.2,38.2,0,0,1-4.84-1.72l-.46-.19-1.85-3.36,2.27-1.51c1-.68,1.65-4.68,2.13-8.51.06-.51.11-.89.12-1l.06-.3a3.4,3.4,0,0,0-.23-1.3,14.31,14.31,0,0,1-3.29-8.28L188.06,213l.91-6.31-1.06-.39.69-2.58,5.07-.76h.16a14.25,14.25,0,0,0,6.28-1,.33.33,0,0,0,.14-.08l-.48-1.53,1.57-.31,2.54-.48c2.69-.54,3.85-1.32,4.54-3.09a.32.32,0,0,0-.15-.08l-14.63-.71c-.34,0-.69-.05-1-.09a4.47,4.47,0,0,0-2,0,.92.92,0,0,0-.2.14l-.5.41-2-.35-.31-.15a7.42,7.42,0,0,1-2.11-1.93l-.39-.32-.14-.53a4.71,4.71,0,0,1-.09-.5l-.06-.53,1.44-2.07.68,0a20.26,20.26,0,0,0,2.15-.2c.08,0,.47-.21,2.31-1.24l.38-.86,1,0a11.54,11.54,0,0,0,3.9-.55l.19-.06h.2c.64,0,1.32-.07,2.08-.16l.35,0,.32.13.29-.24.44,0a20.56,20.56,0,0,0,2.68-.62.37.37,0,0,0,.08-.15,29.84,29.84,0,0,0-17.14-2.35l-.43.07-.4-.18a3.84,3.84,0,0,0-1.2-.44l-.16.11c-.41.16-1.49.46-1.7.52l-.54.15-1.4-.74-.15.11-.83.58-.82-.6c-.23-.17-.51-.38-.77-.59l-1.15,1.73-15.06-4.62-5.16-4.28-3.35-9.56,3.4,1.79,4,.75,4.64,4,2.13-.41.92-1,1.34.5,4.79-1.57c3.31-5.16,5.06-8.19,5.19-9l0,0-.31,0-.35-.62a10.73,10.73,0,0,1-.78-1.92l-2.62-.49L162.94,162l-2.33-4.49-3.29.59,2.12-3.32,6.22-4.48,1.91-3.9.15-.16c1.46-1.54,3.32-3.48,4-4.08l.26-.25.35-.09c1.2-.32,6.26-1.61,7.42-1.83.78-.15,3.24-.93,6.43-2.06h0c.29-.3,2.53-2.63,4.31-4.64a3.61,3.61,0,0,1,2.19-1.4l.6-.06.31.26,3-3.53.41-2.07c.25-1.23,1.45-2,3.07-1.86h0l4.6-4c.69-.49,2.83-2,3.44-2.42a1.55,1.55,0,0,0,.65-.73,7.94,7.94,0,0,1,.75-1.17,2.59,2.59,0,0,1,1.94-1.12,9.33,9.33,0,0,0,1.65-.46,18.38,18.38,0,0,1,3.73-1l6-7,6.57,2.33,4.35-1.81-2.32-5.54,1.1-1.87.92.11c2.83.33,6.53.78,7.65,1l.51.08.34.39c.22.26.55.69.83,1.09l2.53-2.21,1.33-5.72,4.05-7L246.5,84l-.42-4.7,6.17-.83,9.22-8.56L266,72.11a92.47,92.47,0,0,0,10.23-1.66,9.05,9.05,0,0,1,3.76-.18l.18-.48a66.48,66.48,0,0,0,3.1-10.06,7.49,7.49,0,0,1-4.93-1.9,5.41,5.41,0,0,1-1.7-4.51,26.8,26.8,0,0,1,1.51-6.4c0-.12.08-.27.11-.43a5.78,5.78,0,0,1-2.31-4.06,7.51,7.51,0,0,1,1.66-5.77,4.4,4.4,0,0,1,.26-.85,4.22,4.22,0,0,0,.36-1.24.54.54,0,0,0-.44-.39l-.85.12a14.11,14.11,0,0,1-3,.21c-3.76-.21-6.14-3.64-6.26-6.83a5.32,5.32,0,0,1,4.43-5.75c.12-.55.24-1.1.36-1.65.21-1,.42-1.9.59-2.82l-1,.27L272,16a3.84,3.84,0,0,0-.26-1.32l-.1,0a12.49,12.49,0,0,0-3.33.53,11.78,11.78,0,0,1-5.14.48,8.48,8.48,0,0,1-2.16-.79,3.92,3.92,0,0,0-1.92-.59,3.37,3.37,0,0,0-1,.31,8.55,8.55,0,0,1-1.05.38,13.36,13.36,0,0,1-2.77.36c-.53,0-1,.06-1.51.13a6.6,6.6,0,0,0-2.92.9l-.93.61-.82-.76a10.55,10.55,0,0,0-2.8-1.58l-.85-.39a.47.47,0,0,0-.16,0,.62.62,0,0,0-.12.2L241.77,20l-.57.22c-.5.19-5,1.89-5.62,2.09l-.19,0c-1.05.16-4.8.86-8.92,1.66l-1.37.27L224.82,23l-4.08.19H220a4,4,0,0,0-1.83.26c-.27.19-.36.57-.5,1.38l-.31,1.69-.59.32c-2.82,1.54-7.07,4-9.35,5.26l-2.95,4.15-4.27,1.91-.23.29-.39.14a8.75,8.75,0,0,0-2.4,1.26l-.67.51-.77-.35c-2.21,1.45-4.71,3.74-4.83,4.84l-.08.75-3.62,1.9-2.43,3.37-2.84,3.48-10,4.74-.6-1a29.24,29.24,0,0,1-4.6,2.6c-2.72,1.33-5.29,2.58-6.38,5l-.11.25-.19.19q-.62.61-1.23,1.24l-.23.19a4.94,4.94,0,0,0-1.1,1l-.19.24L157,69c-2.74,1.44-4,2.13-4.4,2.36l-1.18.73-.06-.1-.52.26-.47.23-.51-.13c-2.07-.51-3.18-.45-4,.21a19,19,0,0,0-2.55,2.94l-.52.69-1.61.79L138,80.81l-.24.17a37.74,37.74,0,0,1-6,3.44.22.22,0,0,0,0,.08l1,3,.63.9-.69.88-4.43,5.14-1.14,5.08-5.81,12.43-1.8,7.38-.17.23-.17.24-.2.3-.32.17a12.24,12.24,0,0,1-1.29.55,3.68,3.68,0,0,0-1.78,1c-.82,1.29,1,4.75,1.92,6.61.37.72.7,1.35.92,1.89a.32.32,0,0,0,.09.13l.61.44-.12,3.61-.79,3.44a10.1,10.1,0,0,1-.38,1.12,51.61,51.61,0,0,0-.45,6.4c0,.88-.06,1.54-.09,1.84-.08,1.14-1,6.89-1,7.18l.75,8.14-1.16,4.37-5.44,4.54c-.13.46-3,10.68-3.26,11.45-.23.62-1.14,2.27-3.41,6.18-.53.91-.91,1.57-1,1.73-.33.62-3.3,5.14-3.33,5.18l-.14.22-.21.15c-.36.26-1.34.92-2.18,1.47-.09.31-.33,1-.66,2a15.56,15.56,0,0,1-.87,1.88l-1,2-.72-.93v6l.48.59-.46.83c-.2.37-.42.72-.65,1.07l-2.67,3.92a8.13,8.13,0,0,0,1.72,1.52l2.79-1.5a.2.2,0,0,0,.08-.08l.21-.34.35-.18,1.59-1.13.72,2.44-.44,2.18L95.93,218l-.48-.08-2.25-.38.12.4a7.76,7.76,0,0,0,.28.8l.14.35.54.84-.61.79a21.55,21.55,0,0,0-4.09,9.45c-.44,2.25-1.28,5-3.83,6.48a4.93,4.93,0,0,1-1.63.52,2.87,2.87,0,0,0-.79.21c-.79.5-.89.69-1.34,1.78a3.68,3.68,0,0,0-.2.67l0,.22-.15.25a8.4,8.4,0,0,0-.41,1.21l-.06.23-.13.2c-.1.15-.21.3-.34.47a4,4,0,0,1-.8.72,2.49,2.49,0,0,0-.27.22c-.41.84-.37,1.18-.09,1.65s.85.68,1.87,1l.33.09c1,.28,2,.44,2.88.61a27.84,27.84,0,0,1,2.76.58l.91.26.11.94c0,.34.07.61.08.85a5,5,0,0,0,1,2.7l.1.15L91,254.57l.21,3.25,0,.18c-.36,1.86-.8,4-.94,4.63l-.07.22a9.68,9.68,0,0,0,.18,1.53l.16,1-.9.47A13.15,13.15,0,0,0,84,271.48l-.45,1.14-.08,0L81,278.32l1.16,3.07-.46,3.11c0,.81.09,1.71.11,2.42l.05,1.73-1.7-.28a12.72,12.72,0,0,1-1.34-.29.19.19,0,0,0-.15,0c1.11,4.45-1,6-2.76,7.17a6.17,6.17,0,0,0-2.08,2,1.76,1.76,0,0,0-.23,1,6.27,6.27,0,0,1-.16,1.5,8.14,8.14,0,0,1-2.73,4.68c-1.36,1.3-3.09.15-4.16-.58.1.94.36,2.2.57,3.21.71,3.41,1.45,6.94-.45,8.6,0,0,.09.07.14.1l.31.2.61.39a26,26,0,0,1,8.12-2.72,40.17,40.17,0,0,0,4.61-1.19l.55-.16,0,0,2.76-2.56.23.06a6.31,6.31,0,0,1,4.14-1.74,5.7,5.7,0,0,1,4.46,2.06c2.35,2.61,5.66,3.95,9.17,5.36s6.93,2.8,9.76,5.51a62.65,62.65,0,0,1,7.7,8.91A11,11,0,0,1,123.68,328.95ZM81.52,240.38h0Zm6.91-33.58.5.62-.19.7a7.75,7.75,0,0,0,1.11,6.45l.59-4.27a18.29,18.29,0,0,1,.42-2l1.64-6.37c-2.11.36-4,1.42-4.49,2.57C87.9,204.71,87.56,205.46,88.42,206.8Zm104.73-72.12h0ZM91,236.7l-1.58-2-.64-.63.29-.85c.25-.73.49-1.51.75-2.45l.29-1h1.07l2.44-.46-.8,2.33-1,2.66Z"/></svg>