<svg id="Layer_1" data-name="Layer 1" xmlns="http://www.w3.org/2000/svg" viewBox="0 0 350 350"><defs><style>.cls-1{fill:#999;}.cls-2{fill:#f90;}</style></defs><title>M</title><path class="cls-1" d="M309.55,136.83c-1-.18-2.56-1-2.7-1.7-.62-3.26-1.31-6.63-1.06-9.89.84-10.69,5.43-18.29,4.56-29.28a60.28,60.28,0,0,1,.52-13.86,13.14,13.14,0,0,1-.78-1.56c-.06-.13-.09-.27-.15-.4a10.24,10.24,0,0,1-2.77-10l.53.12q-.14-1.52-.21-3.05l-4-16.95a34.84,34.84,0,0,1-1.12-6.72c-.33-9.48.12-14.1-3.54-22.87-1.58-3.76-17.29,8-18.94,9.22-5.48,3.91-16.76,16.77-23.31,11.12-1.38-1.19-4.37-1.54-5.26-.53s-1.37,2.08-2.22,3c-3.62,3.73-7.27,7.43-12.39,9.19-5.28,1.82-9.12,0-10.82-5.31-.16-.51-.3-1-.45-1.53a41.39,41.39,0,0,0-7-13.65c-4.05,1.15-5.48.49-7-3.5-1.24-3.34-2.46-6.71-3.38-10.14s-3.42-4.66-6.62-5.21a6.79,6.79,0,0,1-3.44-1.46,10.8,10.8,0,0,0-6-3.17c-2.11-.17-4.22-.35-6.32-.6-2.31-.27-2.68,1.16-2.64,2.92.06,2.27.22,4.55.29,6.82,0,1.42.38,3-.1,4.23-1.43,3.71-3.26,4.48-7.31,4.14-2.35-.2-4.85-1.35-7.09.61-.23.2-1-.14-1.48-.3-3.08-.95-6.14-1.92-9.22-2.87-4.85-1.5-8.6.3-12.19,3.55-3.35,3-8.15,5.14-11.1,8.54-2.6,3-3.22,7.61-6.25,10.18a15.19,15.19,0,0,1-5,2.3,32,32,0,0,0-13.26,8.92c-.92,1-1.95,2.22-3.33,2.26-1.73,0-3.06-1.77-4.79-1.85-1.38-.06-2.53,1-3.57,1.89C90.62,66.47,75,67.2,69.08,76.19,67.64,78.36,66.92,81,65,82.83s-5,2.45-6.85,4.42c-1.13,1.18-1.93,2.9-3.53,3.26-1.21.28-2.47-.36-3.7-.2-2.33.31-3.36,3.29-2.84,5.6,1,4.35,5.73,8.16,6,12.53.44,6.74-.32,3.73-5.44,5.73-2.33.91-1.61,4.4-2.59,6.7-1.34,3.18-5.93,3.81-7.54,6.86s.64,6.77,3.29,9,5.94,4,7.35,7.17c2.59,5.79-2.22,13.78,2.13,18.4,1.77,1.88,4.5,2.42,7,2.93,4,.8,8.34,2,10.67,5.34s2.31,8.41,5.79,10.51c3.95,2.38,8.69-1,13-2.59a34.71,34.71,0,0,1,7.57-1.63c6.75-.93,13.56-1.69,20.37-1,9.17.86,10.78,4.25,17.66,7.86,2,1.06,4.34,1.92,5.52,3.86a27.86,27.86,0,0,1,1.42,3.77,7.74,7.74,0,0,0,6.84,4.61c1.61,0,3.23-.46,4.83-.23,2.95.42,5,3.12,6.33,5.79s2.32,5.63,4.53,7.63a1.74,1.74,0,0,1,.71,1c.07.73-.83,1.18-1,1.89a2.13,2.13,0,0,0,.46,1.59l6.48,10.6c2.21-.34,3-3.81,1.21-5.1,4.28,2.73,9.68,1,8.6,7.23-.75,4.31-1.2,8.72-2.45,12.88-.92,3.07-2.89,5.82-4.42,8.71-1.68,3.18-12.11,17.51-8.92,20.53,1.06,1,2.58,1.41,3.57,2.48,2.2,2.36.6,6.24-1.47,8.72s-4.7,5.13-4.33,8.34a5.32,5.32,0,0,1,.09,2.63,9.16,9.16,0,0,1-1,1.43c-2,3,2.81,7.12,1.23,10.4-.66,1.37-2.36,2.3-2.32,3.82,0,1.73,2.18,2.41,3.6,3.41,5.18,3.62.73,10.86,4.05,14.87s15,2.81,19.93,2.79c4.43,0,8.16,1,11.48,3.8a21.05,21.05,0,0,0,2.33,1.83,22.2,22.2,0,0,0,4.23,2.38c2.28.81,4.69,1.28,6.91,1.86a13.85,13.85,0,0,1,3.68.38c3.43,1.36,6.77,2.94,10.19,4.46l1.54-11.23,7.49.47c2-5,3.85-9.84,5.83-14.67,1.43-3.48,1.53-3.53-1.86-5.44a2.27,2.27,0,0,1-1.24-2.57c.26-3.89,1.36-7.2,5.1-9.19a14.36,14.36,0,0,0,2.92-2.54c3.43-3.31,7.15-6.17,11.83-7.42a3.89,3.89,0,0,1,2.78.34c2.87,1.8,8.26,8,8.28.46l0-6.86c0-1.56.06-3.26,1.06-4.45s2.44-1.48,3.62-2.29c2.41-1.67,3.11-4.84,4.26-7.53s3.78-5.43,6.57-4.56c-1.29-3.2,1.28-6.9,4.51-8.11s6.82-.63,10.22,0c1.48-13.2,4.54-23.41,9.33-35.85a14,14,0,0,0,1.25-5.06,20.91,20.91,0,0,0-1.31-5.46c-2.89-10,10.08-31.12-3.7-36.33-2-.77-4.31-.84-6.2-1.89s-3.17-3.79-1.7-5.38a19.31,19.31,0,0,1-4.32.65c-2.24.08,5.62-7.51,6.08-7.74,9.54-4.87,7.09-12,13.58-19.14C312.69,138.94,311.29,137.15,309.55,136.83Z"/><path class="cls-2" d="M226.81,344.06l-1.72-.76L222.23,342c-2.38-1.07-4.83-2.18-7.27-3.15a6.18,6.18,0,0,0-1.95-.23c-.44,0-.89,0-1.34-.06l-.23,0-2-.49a49.93,49.93,0,0,1-5.05-1.41,18.23,18.23,0,0,1-3.77-2l-.74-.48a19.28,19.28,0,0,1-2.21-1.71l-.28-.24c-2.84-2.41-6.07-3.52-10.55-3.46-.73,0-1.61,0-2.6.06-6.08.18-15.26.46-18.42-3.36-1.82-2.2-1.75-5-1.68-7.63.08-2.9.15-5.41-2.1-7-.31-.22-.66-.42-1-.62-1.32-.76-3.13-1.8-3.19-3.91a4.83,4.83,0,0,1,1.6-3.34,5.64,5.64,0,0,0,.86-1.13c.49-1-.11-2.46-.75-4-.82-2-1.84-4.4-.38-6.59a7.11,7.11,0,0,1,.53-.67,2.61,2.61,0,0,0,.38-.51,2.72,2.72,0,0,0-.07-1.16c0-.26-.09-.51-.12-.76-.4-3.47,1.92-6.19,4-8.59l.69-.82c1.79-2.16,3-5.22,1.52-6.85a6.45,6.45,0,0,0-1.53-1.06,9.83,9.83,0,0,1-2-1.35c-3.14-3,1.2-10.43,6.76-19.16.84-1.32,1.56-2.46,1.88-3.06.46-.87,1-1.73,1.46-2.59a28,28,0,0,0,2.85-5.86,68.63,68.63,0,0,0,1.84-9.15c.18-1.19.37-2.38.57-3.56.51-2.91-.44-3.17-3.25-3.93-.5-.14-1-.28-1.55-.44a5,5,0,0,1-.11.62,4.14,4.14,0,0,1-3.28,3.27l-.93.14-7-11.4a3.46,3.46,0,0,1-.62-2.7,3.54,3.54,0,0,1,.79-1.36l0,0,0,0a18.28,18.28,0,0,1-4.08-6.36c-.27-.58-.53-1.16-.81-1.73-1-2.09-2.79-4.66-5.26-5a9.63,9.63,0,0,0-2.43.09,15.75,15.75,0,0,1-2.22.16,9.1,9.1,0,0,1-8.12-5.48,16.42,16.42,0,0,1-.57-1.65,8.66,8.66,0,0,0-.76-1.94c-.76-1.26-2.27-2-3.87-2.79l-1.1-.56a54.47,54.47,0,0,1-5.31-3.24c-3.37-2.26-5.8-3.89-11.83-4.46-6.85-.65-13.66.16-20,1a33.67,33.67,0,0,0-7.26,1.55c-.91.34-1.84.77-2.82,1.21-3.61,1.64-7.7,3.5-11.41,1.27-2.55-1.54-3.49-4.21-4.39-6.8a17.1,17.1,0,0,0-1.83-4.11c-2-2.86-5.88-4-9.78-4.76-2.69-.54-5.71-1.14-7.79-3.35-2.84-3-2.41-7-2-10.9.31-2.9.61-5.64-.4-7.89-.91-2-2.83-3.49-4.86-5-.7-.53-1.42-1.07-2.11-1.65-3.2-2.69-5.57-7.05-3.63-10.74a10.7,10.7,0,0,1,4.23-3.84c1.41-.87,2.74-1.69,3.26-2.91a9.85,9.85,0,0,0,.51-2.36c.26-1.88.58-4.22,2.87-5.11a14.64,14.64,0,0,1,4-.94l.61-.08a21.84,21.84,0,0,0-.05-3.29c-.13-2-1.44-4-2.83-6.07a19.63,19.63,0,0,1-3.15-6.24,7,7,0,0,1,1-5.39,4.38,4.38,0,0,1,3.06-1.93,7,7,0,0,1,2.16.13,3.93,3.93,0,0,0,1.41.09c.64-.15,1.18-.84,1.81-1.65a15.5,15.5,0,0,1,1-1.21,13.68,13.68,0,0,1,3.93-2.62,12.64,12.64,0,0,0,3-1.86,12.46,12.46,0,0,0,2.34-3.65,24.69,24.69,0,0,1,1.5-2.73c3.61-5.45,10.35-8,16.88-10.49,4.76-1.81,9.68-3.68,13-6.61l.08-.07c1.15-1,2.58-2.25,4.49-2.17a6.33,6.33,0,0,1,3,1.13,3.83,3.83,0,0,0,1.67.72h0c.75,0,1.55-.93,2.26-1.73a33.44,33.44,0,0,1,13.89-9.37l.84-.29a11.2,11.2,0,0,0,3.71-1.75,14.08,14.08,0,0,0,3.18-5,20.49,20.49,0,0,1,2.92-5,31.31,31.31,0,0,1,6.53-5.23A39.26,39.26,0,0,0,145,26.09c3.08-2.79,7.41-5.76,13.56-3.85l4.1,1.28,5.12,1.59.41.14.2.07c2.09-1.52,4.33-1.12,6.14-.8.54.09,1,.18,1.53.23,3.64.31,4.74-.29,5.87-3.23A6.24,6.24,0,0,0,182,19c0-.41-.07-.82-.08-1.22,0-1.1-.08-2.19-.14-3.28s-.12-2.36-.15-3.54a4.48,4.48,0,0,1,1.13-3.58,3.74,3.74,0,0,1,3.09-.79c2.16.25,4.37.44,6.27.59,3.14.25,5.86,2.57,6.89,3.56a5.41,5.41,0,0,0,2.7,1.08c3,.51,6.52,1.67,7.75,6.24.9,3.34,2.09,6.65,3.34,10s1.85,3.6,5.24,2.63l.92-.26.59.76a43,43,0,0,1,7.23,14.11l.14.47c.1.34.2.68.31,1a7.09,7.09,0,0,0,3.3,4.46c1.5.75,3.43.73,5.71-.05,4.89-1.68,8.42-5.32,11.83-8.84a10.25,10.25,0,0,0,1.06-1.4,14.74,14.74,0,0,1,1.12-1.51c1.51-1.72,5.36-1.24,7.25.39,4.22,3.64,11.75-2.88,17.25-7.65,1.66-1.44,3.09-2.68,4.32-3.55l.5-.36c13.34-9.72,17.15-10.21,18.86-9.74a2.55,2.55,0,0,1,1.71,1.48c3.25,7.78,3.36,12.49,3.54,19.63,0,1.17.06,2.41.11,3.74a33.87,33.87,0,0,0,1.09,6.44l4,17.21c0,1,.12,2,.21,3l.18,2-1-.24a8.89,8.89,0,0,0,2.65,7.29l.22.21.12.29.09.25,0,.12a11.73,11.73,0,0,0,.69,1.4l.25.43-.08.5a58.86,58.86,0,0,0-.51,13.54c.52,6.63-.89,12.15-2.26,17.49a69.29,69.29,0,0,0-2.3,12,34.8,34.8,0,0,0,.93,9l.07.37a3.89,3.89,0,0,0,1.59.73,4.48,4.48,0,0,1,3.44,2.77,2.83,2.83,0,0,1-.59,2.88,24.57,24.57,0,0,0-4.64,8.18c-1.58,4-3.21,8.11-9.25,11.23a52.43,52.43,0,0,0-4.78,4.92,17.83,17.83,0,0,0,1.91-.4l4.71-1.26-3.3,3.59a1.09,1.09,0,0,0-.24,1,3.35,3.35,0,0,0,1.59,2.18,12.16,12.16,0,0,0,3.23,1,20.42,20.42,0,0,1,2.78.77c9.87,3.73,7.66,14.39,5.71,23.79-1.08,5.21-2.1,10.14-1.14,13.48.13.44.27.87.41,1.3a11.79,11.79,0,0,1-.39,10.12c-4.59,11.92-7.73,22-9.25,35.5l-.17,1.5-1.48-.26c-3.06-.53-6.52-1.14-9.48,0a6.48,6.48,0,0,0-3.55,3.32,3.77,3.77,0,0,0-.15,2.93l1.11,2.77-2.85-.89c-1.86-.58-3.88,1.51-4.85,3.77-.25.57-.47,1.16-.69,1.76-.85,2.26-1.82,4.82-4.06,6.38a12.82,12.82,0,0,1-1.59.9,5.51,5.51,0,0,0-1.75,1.15c-.67.79-.72,2.12-.73,3.53l0,6.86c0,1.66-.21,4-1.95,4.79-2.06,1-4.4-.87-6.66-2.67-.68-.54-1.33-1.06-1.84-1.38a2.53,2.53,0,0,0-1.66-.17c-4.77,1.28-8.5,4.46-11.21,7.08l-.61.61a11.07,11.07,0,0,1-2.62,2.16c-2.78,1.48-4.08,3.88-4.35,8-.06.88,0,1,.53,1.24,3.88,2.19,4.19,3,2.55,7l-.08.19c-1.38,3.37-2.68,6.68-4.06,10.18L236,331.76l-.38,1-7.21-.45ZM212,335.76c.35,0,.69,0,1,0a8.24,8.24,0,0,1,2.93.43c2.5,1,5,2.12,7.39,3.2l1.12.51L226,329.27l7.78.49,1.38-3.5c1.32-3.36,2.69-6.84,4.08-10.22l.08-.19a9.63,9.63,0,0,0,.75-2.17,13,13,0,0,0-2.08-1.31,3.65,3.65,0,0,1-2-3.89c.23-3.49,1.1-7.82,5.85-10.35a8.88,8.88,0,0,0,1.93-1.65l.67-.67c3-2.86,7-6.32,12.44-7.77a5.3,5.3,0,0,1,3.9.51,25.46,25.46,0,0,1,2.09,1.56c1,.78,3,2.4,3.7,2.32a5.23,5.23,0,0,0,.31-2.23l0-6.86c0-1.48,0-3.72,1.4-5.36a7.87,7.87,0,0,1,2.65-1.85,10.46,10.46,0,0,0,1.25-.69c1.52-1.05,2.25-3,3-5.05.24-.63.48-1.27.74-1.87,1.18-2.74,3.5-5.16,6.12-5.53a7,7,0,0,1,.62-3.07,9.4,9.4,0,0,1,5.15-4.83c3.14-1.18,6.54-.84,9.49-.36,1.61-13,4.74-23,9.24-34.71a9.13,9.13,0,0,0,.33-8.23c-.15-.46-.3-.93-.43-1.39-1.16-4-.07-9.27,1.09-14.84,2.22-10.69,3.14-17.89-3.93-20.56a18.13,18.13,0,0,0-2.4-.65,14.44,14.44,0,0,1-4-1.33,6.14,6.14,0,0,1-3-4.21,4.46,4.46,0,0,1-.06-.55,20.66,20.66,0,0,1-2.22.2,1.71,1.71,0,0,1-1.81-1.26c-.67-2.57,7.11-9.12,7.2-9.16,5.16-2.64,6.47-6,8-9.79a27.24,27.24,0,0,1,5.18-9c0-.22-.48-.82-1.25-1h0c-1.11-.2-3.52-1.16-3.84-2.83l-.1-.53a36.94,36.94,0,0,1-1-9.73,71.52,71.52,0,0,1,2.38-12.5c1.37-5.35,2.66-10.4,2.18-16.56a61.74,61.74,0,0,1,.46-13.7c-.22-.42-.43-.85-.61-1.29l-.06-.17a11.7,11.7,0,0,1-2.91-11.2l.34-1.16q0-.59-.07-1.17l-4-16.82a36,36,0,0,1-1.16-7c0-1.34-.08-2.59-.11-3.77-.18-7-.28-11.27-3.27-18.47-.61-.09-3.77.16-16.34,9.32l-.52.38c-1.12.8-2.5,2-4.11,3.39-6.28,5.44-14.87,12.89-21,7.65a4,4,0,0,0-3.29-.64,13.4,13.4,0,0,0-.87,1.2,12.54,12.54,0,0,1-1.37,1.78c-3.47,3.58-7.41,7.64-12.94,9.54-3,1-5.69,1-7.9-.09s-3.77-3.15-4.73-6.12c-.12-.37-.23-.74-.33-1.11l-.13-.46a40.07,40.07,0,0,0-6.19-12.44c-4.13.94-6.13-.31-7.73-4.62-1.27-3.44-2.49-6.81-3.42-10.27-.66-2.47-2.15-3.61-5.49-4.18a8.16,8.16,0,0,1-4.18-1.83A9.32,9.32,0,0,0,191.94,10c-1.93-.16-4.17-.34-6.37-.6a1.33,1.33,0,0,0-.84.07s-.24.25-.21,1.41.09,2.32.14,3.48.11,2.23.14,3.34c0,.35,0,.71.07,1.07a8.38,8.38,0,0,1-.26,3.71c-1.8,4.69-4.57,5.4-8.76,5-.61-.05-1.2-.16-1.78-.26-1.89-.33-3.11-.49-4.26.52a2.41,2.41,0,0,1-2.53.09l-.3-.1-5.13-1.6-4.09-1.28c-3.78-1.17-7-.2-10.82,3.24a41.86,41.86,0,0,1-5,3.7,28.84,28.84,0,0,0-6,4.72A18.18,18.18,0,0,0,133.49,41a16.33,16.33,0,0,1-3.91,6,13.44,13.44,0,0,1-4.63,2.28l-.8.28A30.53,30.53,0,0,0,111.47,58c-1,1.16-2.38,2.68-4.36,2.73a6,6,0,0,1-3.23-1.12,4.17,4.17,0,0,0-1.66-.73c-.78,0-1.65.73-2.49,1.47l-.08.07c-3.72,3.26-8.88,5.23-13.87,7.12C79.39,70,73.36,72.28,70.26,77a22.37,22.37,0,0,0-1.32,2.43A14.76,14.76,0,0,1,66,83.86a15,15,0,0,1-3.64,2.32,11.41,11.41,0,0,0-3.16,2c-.27.29-.54.63-.82,1A6.2,6.2,0,0,1,55,91.89a6.2,6.2,0,0,1-2.52-.06,4.93,4.93,0,0,0-1.31-.12,1.6,1.6,0,0,0-1.11.74,4.2,4.2,0,0,0-.53,3.14,17.41,17.41,0,0,0,2.75,5.3c1.53,2.32,3.12,4.71,3.3,7.45.29,4.44.22,6-3.07,6.37a11.78,11.78,0,0,0-3.27.77c-.66.26-.85,1.11-1.09,2.86a12.06,12.06,0,0,1-.71,3.08c-.87,2.06-2.74,3.21-4.38,4.22a8.38,8.38,0,0,0-3.21,2.75c-1.2,2.28.69,5.36,2.94,7.25.63.53,1.29,1,2,1.55,2.23,1.68,4.53,3.41,5.74,6.13,1.32,2.95,1,6.2.63,9.35-.38,3.53-.71,6.58,1.24,8.65,1.46,1.55,3.9,2,6.26,2.5,4.51.9,9,2.23,11.58,5.92a19.46,19.46,0,0,1,2.18,4.79c.77,2.21,1.5,4.3,3.18,5.31,2.44,1.47,5.51.07,8.77-1.42,1-.45,2-.91,3-1.29a35.81,35.81,0,0,1,7.87-1.7c6.26-.86,13.55-1.73,20.7-1.06,6.74.63,9.71,2.62,13.14,4.92a51.48,51.48,0,0,0,5,3.09l1,.53c1.8.89,3.84,1.9,5,3.86a10.91,10.91,0,0,1,1,2.59,14.06,14.06,0,0,0,.47,1.37,6.31,6.31,0,0,0,5.56,3.75,14.19,14.19,0,0,0,1.84-.14,12.08,12.08,0,0,1,3.16-.08c2.93.42,5.49,2.69,7.4,6.56.29.59.57,1.2.85,1.81a15.94,15.94,0,0,0,3.36,5.4A3,3,0,0,1,165,210a2.81,2.81,0,0,1-.83,2.12l-.2.26a3.25,3.25,0,0,0,.27.51l5.76,9.42a2,2,0,0,0,.25-.6,1.37,1.37,0,0,0-.35-1.42l1.58-2.35a13.78,13.78,0,0,0,3.92,1.52c2.79.76,6.25,1.7,5.3,7.15-.2,1.17-.38,2.34-.56,3.51a70.7,70.7,0,0,1-1.93,9.54,30.45,30.45,0,0,1-3.12,6.48c-.48.83-1,1.65-1.41,2.49s-1.09,1.83-2,3.25c-7.35,11.56-8,14.85-7.21,15.58a7.45,7.45,0,0,0,1.42.95,8.76,8.76,0,0,1,2.21,1.59c2.7,2.9,1.24,7.41-1.41,10.59l-.71.85c-1.75,2.06-3.56,4.18-3.3,6.43,0,.19.06.39.09.59a3.93,3.93,0,0,1-1,4,4.14,4.14,0,0,0-.32.4c-.57.86-.14,2.05.64,3.92s1.73,4.14.69,6.31a7.87,7.87,0,0,1-1.29,1.78c-.46.52-.9,1-.89,1.39s.74.94,1.77,1.53c.43.24.85.49,1.22.75,3.5,2.44,3.4,6.13,3.31,9.38-.06,2.25-.12,4.37,1,5.75,2.29,2.76,11.31,2.48,16.16,2.33,1,0,1.92-.06,2.67-.06,5.13,0,9.06,1.29,12.4,4.13l.29.24a16.79,16.79,0,0,0,1.88,1.47l.77.5a15.87,15.87,0,0,0,3.18,1.75,47.7,47.7,0,0,0,4.77,1.32Z"/></svg>