<svg xmlns="http://www.w3.org/2000/svg" viewBox="0 200 1200 1600"><defs><style>.cls-1{font-size:108.64px;}.cls-1,.cls-8{fill:#333;}.cls-1,.cls-20,.cls-27,.cls-36,.cls-8{font-family:OpenSans-Light, Open Sans;}.cls-2{letter-spacing:-0.04em;}.cls-3{font-size:35px;font-family:OpenSans-Bold, Open Sans;}.cls-15,.cls-16,.cls-18,.cls-19,.cls-23,.cls-3,.cls-31,.cls-39{font-weight:700;}.cls-4{letter-spacing:0.02em;}.cls-5{letter-spacing:-0.04em;}.cls-6{letter-spacing:-0.02em;}.cls-7{letter-spacing:0.02em;}.cls-8{font-size:39.74px;letter-spacing:-0.04em;}.cls-13,.cls-25,.cls-40,.cls-9{fill:none;}.cls-9{stroke:#333;stroke-width:0.67px;}.cls-25,.cls-9{stroke-miterlimit:10;}.cls-10,.cls-19{fill:#999;}.cls-11,.cls-14{fill:#ccc;}.cls-12{fill:#7bd9bf;}.cls-13,.cls-14,.cls-40{stroke:#fff;}.cls-13,.cls-14{stroke-width:0.98px;stroke-dasharray:3.63 3.63;}.cls-15,.cls-16{font-size:19.75px;fill:#fff;}.cls-15,.cls-16,.cls-23,.cls-31{font-family:OpenSans-SemiBold, Open Sans;}.cls-15,.cls-17{letter-spacing:-0.02em;}.cls-16{letter-spacing:-0.02em;}.cls-18,.cls-19,.cls-39{font-size:24.38px;font-family:OpenSans-ExtraBold, Open Sans;}.cls-18,.cls-26,.cls-39{fill:#f90;}.cls-18,.cls-19{letter-spacing:-0.04em;}.cls-20,.cls-27,.cls-36{font-size:61.83px;fill:#525252;}.cls-20,.cls-28{letter-spacing:-0.04em;}.cls-21,.cls-27{letter-spacing:-0.14em;}.cls-22,.cls-30{font-size:28.65px;}.cls-22{letter-spacing:-0.04em;}.cls-23,.cls-31{font-size:44.72px;fill:#666;}.cls-23,.cls-34{letter-spacing:-0.14em;}.cls-24,.cls-31{letter-spacing:-0.04em;}.cls-25{stroke:#525252;stroke-width:0.82px;}.cls-29{letter-spacing:-0.14em;}.cls-30{letter-spacing:-0.04em;}.cls-32{letter-spacing:-0.12em;}.cls-33{letter-spacing:-0.08em;}.cls-35{letter-spacing:-0.04em;}.cls-36{letter-spacing:-0.16em;}.cls-37{letter-spacing:-0.08em;}.cls-38{letter-spacing:-0.1em;}.cls-39{letter-spacing:-0.06em;}.cls-40{stroke-linecap:round;stroke-linejoin:round;stroke-width:3.19px;stroke-dasharray:3.19 8.5;}</style></defs><title>GEOGRAPHICAL MAPS5_FINAL</title><g id="_2018" data-name="2018"><text class="cls-1" transform="translate(46.14 386.42)"><tspan class="cls-2">272</tspan><tspan class="cls-3"><tspan x="0" y="42">CONTESTABLE SEATS</tspan><tspan class="cls-4" x="273.44" y="42"></tspan><tspan class="cls-5" x="293.74" y="42"></tspan><tspan class="cls-6" x="316.49" y="42"></tspan><tspan class="cls-7" x="336.06" y="42"></tspan></tspan></text><text class="cls-8" transform="translate(46.14 497.99)">+ 60 reserved for women<tspan x="0" y="45.71">+ 10 reserved for minorities</tspan></text><line class="cls-9" x1="43.59" y1="452.12" x2="492.05" y2="452.12"/><path class="cls-10" d="M1211.4,880.77c-.24-1.73-2.41-3.95-1.2-8.65s-2.89-9.65-4.57-9.65-2.4-5.93-2.4-7.91.72-12.12-8.65-14.1-10.56-8.16-11.53-11.87a5.33,5.33,0,0,0-5.28-4.2c-1.2,0-5-9.15-4.56-13.36s4.8-6.18,4.8-6.18,3.12-3.21.72-4.45-2.88-5.93-4.32-8.9-1-7.67-1.92-7.67-2.65-3.71-1.2-4.2,14.65-11.87,14.65-13.36,0-12.36-4.57-14.09l-5-1.74c-1.44-.49-7.69-7.91-10.81-7.91s-8.89-2-11.53-2-14.17-11.13-14.89-20-4.8-13.35-7.92-14.34-10.57-8.91-11.29-10.14,3.36-10.14,3.36-10.14,4.8-9.65,2.64-9.65-3.84-1.48-5.52-1.73-5.53-3.95-7.45-2.47-4.08,1.24-6.72,1.48-6.73.5-6.73.5l-14.17-1s-8.73-1.07-11.87-1.34-4.29-2.92-8.29-2.92-5.15-1.47-8.29-2.06-7.43-2.06-13.15-5.88-9.43-10-10-11.77-4-3.83-5.43-3.83-7.43-.29-9.71.88-10.58,7.07-12.29,6.18-2-5-2-8.53-2.58-6.77-2.58-6.77-6,.3-8-3.53-.61-8.53,2-13.54.31-7.35.31-8.23,1.14-12.36,1.14-12.36-1.71-4.42-10-7.36-10.29-9.71-11.43-12.36-6-7.65-11.15-10.3-7.43-2.94-8-7.94-4.29-3.83-4.29-3.83-4-5.88-5.14-5.88-6.86,6.47-7.72,7.06-6.86-1.18-8,0-7.43,6.18-7.43,6.18l-8.29-12.07-4.57-2.06-9.72,4.71.58,4.42-8-3.83-3.42,5-3.15,1.47-2,3.54s-5.14-2.65-8-2.06-3.15,4-3.15,4-10.48,2.39-13.5.42c-3.21-2.11-17.9-7.85-18.94,1.11-.51,4.38,9.56,7,9.56,7s6.11,1.94,3.83,1.94-.95,4.15-3.81,3a17.73,17.73,0,0,0-7.14-1.18c-1.72,0,.57-4.71-8,1.18,0,0-.59-1.47-3.44-1.47s-6-3.74-8.59-3.15-5.11,4-7.68,4-3.92-4.57-12.76,4.18c-3.47,3.43-4.63,12.83-4.63,12.83s-2.28,4.29-3.42,4.29L791.15,606l-1.88-1.31-.15,1-1.06,1.62-2.66.56-2.66,1.65-2.66,1.09-.51,2.73v1.63l-3.2,1.09-2.66-1.63-1.06-.55L770,615.48v3.28l-.52,3.82v9.3l1.06,3.27,1.06,1.12v4.92l-2.12,1.62v3.83l1.58,1.11,3.2,2.71,3.18,1.65h3.2l3.17-.53,3.2-2.74,3.18-.56,3.17,1.09H796l4.26.56,2.66-1.09,1.06-.56h5.31l1.58,1.65.54,2.74-1.6,1.62v3.3l.54,2.18L813,662.5l4.24,2.74,4.26,2.18,6.89,3.3,4.26,1.09h3.17l3.2,1.09,1.06-.56h2.66l4.78,1.09,4.23.56h2.14l2.64,1.09,2.66,1.09v1.09l-2.66.55-1.06.56L853.91,680l-.54.56-.54,3.27-1.06,1.09-1.58,1.65,1.06,3.29-1.06,3.83,2.12,3.83v3.27l1.06.56.54-1.12,1.06-1.09h1.58l1.06-1.09v.56l2.14,1.62,1.57,1.12,1.6-.56,1.6-.56h1.06l2.66,2.21.52,1.62h3.71l2.66,1.11h2.14l.81.83-1.64.84-1.18-.62-1.32,1.14-1,.51-1,2.59v2.06l-1,2.6-1,1.56-1.51,1v2.59l-3,1.54-3.52,2.08-3.52.51h-3.52l-3,2.09-1.51,3.09-.51,3.63-2,1v2.06l.51,1.56v5.19l-1,2.06-1.49-.5-1-.53-1.51-1-1,.5h-2l-1,1.06h-3l-1.52,2.06-.49,2.59-.51,2.07L833.2,756v4.66l.51,2.09v2.06l1.52,2.07.49,1,1,1.56,1.51,3.62v2.07l.52,2.59.49,1.56.51,3.62,1,5.69v2.07l1,2.08,1,2.07,2,2.06,1,2.09,1,2.57v2.09l-.51,1.53-1,1.06-.49.5v1.56l1.5,2.07v2.06l1,2.09v1l-1,2.07-1,2.59.52,1.56,1.49.5,1,1,.49,1,.52,1.56,1,2.06v2.09l-1.52,2.06-.49.53,1,1,1,.51v1l-.51,1.56-1.5,1-2,1-1,1.56,1,1,1.51,1,1,1.56v5.69l.52,2.08,1,1,1.51,1,1,1.56.49,3.09-.49,1-1,.52-.51,1.56,1,1,1.52.51,1.49.53,1.52.5,1.51,1.06,1,.5,1,1.56,1,1.56,1.51.51h1l1-.51,1.51-.53,3-1.56h1.52l1,2.09,2,1,1.5,2.07h1l2.52,2.59,3,.5,2,1.56,4,1.56,3,1.56,3,2.07,4,1,.25.07-.19-.17,2.26-4.11c2,1.21,4.41,2,6,.4,3.13-3.21,4.09-6.43,6-4.7s3.12,2.72,2.16,5.2a29.94,29.94,0,0,1-3.12,5.44l1.68,3.21s-4.56,13.61,6.72,12.86,18-.49,25.46,2.48,14.41,9.89,14.41,9.89,3.13,3,8.65-1.24,6.73-6.18,8.17-6.18,7-.5,7-1.24,4.33-4.45,4.33-4.45-2.17-5.19,2.4-5.19,5.68-3.71,5.48-4.45-2.6-13.61-3.56-13.85-4.56-5.69-1.92-5.69,6.24,1,7.68,0,19.46-13.85,19.46-13.85.48-7.42,6.72-8.9,7-2.48,9.61-1.24,3.84,7.17,5.28,7.42,3.13-3.21,6.49-3.21,3.12-.5,4.56.49,3.13,4.7,3.13,4.7,1.2,2.22,4.8,2,4.56,4.45,4.56,4.45,5.29,6.68,7.69,6.68,10.09,6.81,16.33,5.13,6.49-5.63,10.33-5.88,7.93-5.19,11.29-5.19,6,5.44,6,7.42,4.57,2.72,4.57,5.69,4.32,12.12,6.24,12.12,5,5.93,5.52,4.69.73-6.92,3.85-7.17,9.12.5,9.84-.74,2.41-3,3.61-3,1.44,4.45,1.44,4.45-1.68,8.41-.48,8.41,5.76-2.22,6-3.21,4.09-3.22,8.17-3.46,2.88-4.7,6-5.2,10.33-6.92,10.33.5v12.11s2.64,7.67,7,9.15,4.8,4,4.8,4a34.07,34.07,0,0,1,4.08-4.7c2.17-2,2.17-8.41,3.61-8.41s6,.75,6,.75,3.84.74,4.08-3.71,4.81-5.44,4.81-5.44A67,67,0,0,1,1211.4,880.77Z"/><path id="path1351" class="cls-11" d="M839.82,786.38l-2.45,2-2.92,1-1.47,1-1,1-1,2-.5,2.92-3.41,3.92h-2.43l-1.47,1.47-2.29,1,.82,1,1.47,1.47.48,1,2,2,2.44,1,1.95,1.47,1,1v1.47l-.5.47h-2.42l-1,2v3.9l-2,1.95-1,1.47-1,1.47-1.47,2-2-1L817.36,823l-2-1.48L811,818.6l-2.95-.47-1.94.47h-1l-1,1-2,1.45-2,1.47-1-1-1.47-2.44v-2.92l-2-2.95v-2.44h3.42l1.94-.48,1.95-.49.87-1.28-1.34.3-1.48-.47-1-1.48V805l-2.44-.5v-1l1-3,.5-1.95-1.95-.47-2.45-2v-1.45l-2-1.47h-1l-1,2.44-1,1.45-1.47,2-1.45,1.45-.5-1-2.92-1-1.47-1,1-.5,1-1,1-1,.5-1v-.5l-2.44-1h-2.93l-1.47-.48-.49-2-1-1-1.47-.47h-3.9l-.49,1.94-1,1.47-1.47.48-3.42.5-1.45,1-2.44,1v1.47l.47,1v1.95l.5,1.47v1.47l-.5,2v1.47l-1,1.45h-2.92l-3.42-.48-4.39,1L749,809.34l-2.45,1.45v2l-.48,2-.49,1v1.47l-1.48,3.42-1,1-1,2.45,1.94,2.45-1,1-1.45,2-.5,1.47-1.94,1v2l-3.92,1.47-2.92,1.95-2.45,1-1.47.5.5,2.45,1,1v2h-1l-1.47,1.47,1.94,1v1l1.48,1,1,1,1,1.47,1.48,1.95-2.45,3-1.47,1-.48,1.95-.5,1.47h-3.89l-1-2v-.5l-2-1.47-1.45-2.92v-2.45l-.5-1.47h-3.92l-1.45,1-2.44-1-.5-1H708l.49,2,1,1v1.45l.47,1,.5,1v2.92l-.5,1v1.47l1,1,1.45.5v1.95l.5,1.47h-3.92L707,866.47v1h-2.44l-1.47-.49-2.93,1h-2.44l-1.47,1-2.43,2v2l-1.47,1.95.48,2.44v3.92l-1.45,2.42.47,1.48.5,1.47,1,1v3.42l.49,2,1,2.44,1.45,2h2.44l1.47-.48h1l1,2v2.45l-2.44,1.47v1l1,1,1-1,1.94-.5,1-.47,1-1h2l1,1.45.48,1.48-.48,1.47v2.44l-.49,1.45-.48,1v3.42l-2.45.49h-2.44l-2.45,1.47-1,2.45v1.45l-2.44,2.45-.5,1.94.5,1,1,2.44-2.45,1.47-1.94,1-1.48.49v5.37l-.47,1-1.47,1.47-1,.47v3.42l1,1.47v3l-2,1.94v3.42l-2,1-1,1.47-1,1.45-1.47,4.41-2.92,2.92-1.47,1-.48,1.47-.5,2,.5,1.94-.5,2.45-.47,1v3l1,1,1,1.47v.48l-1,1.47-1.47,1,.5,1.47,1.45,1.48v1.45h-3.9l-.49,1.47.49,1,1,1.47-.5,1.47-.48,1-2,1-1.45.48-2-1h-2.43L664,994h-1.48l-3.41-1h-2.93l-3.91,2-2.92,1.95-3,4.39-1,2.45-2.45,1h-3.41l-1.45,1.95v1.47l.47,2-.47,2-1,2.42-.82,1.37.34,3v9.76l2,.47.5.5-1,1.47v1l-1.48.47h-3.42v1l1,1v2h-1.47l-1.45,1-.5.5v1l-1,1.47-1.48-.49-1.47.49v1.45l-1,1.48v1l.5,1.47.47,1v1.47l-1.45,3.42-2.94,3.89-.48,2-1.47,2.92-1,3.92v2.42l-1,2.94-.49,1.95-1,.5,1,1H620l-.47,2v1h2l1-1,1-.47h2l.48,1-1,2-1.94,2.44-1.47,2.92-1,1.47-.5,2.93v2.44l-.47,3.42-3.42,4.89-1,2.92-1,1.47-.5,3.92-1,2-2.45,1-.49,1.47-1.45,1-1,1v1.47l-3.42,2-3.41.5L599,1118h-1.47l-1.47,2,1,1.45v2.94l-.5,2.45v2.44l-1,2v1.47l-1,1v1.95l.48.48H599l1.48,1.47L602,1139l.49,1.47-1,1-1,.47.47,2.45,1,2.44,1,.5h1.47v-1l2.45-.47v3.42l-1,3.42v3.89l-.5,1-1,2.42v1l-1,.47-2.92,2-1,3.42-3.42,3.92-2.92,1.94-1.47,1.47-.48,2.93V1181l1.45,2.45-1,2-1.45,1.94-.5,2.45-.5,1-1.94,3.92-.48,2-2,1.47-2.92,1.47-2,1-1,1,1.47,1.47,1,2.44.59,2h2.83l2-1,2.92-1h1.47l1.45-.49,3.42.49,2,1.45,1.45,1,4.89,1,3.92,2,2.92,2.92v5.39l2,3.9.49,3.91,1.48,4.39,2.44,4.9,2.42,4.39,3.42,3.89,3.92,3,3.42,1.45,4.39,1.47,3.33,2.55.09-.11,3.92-2.94,4.87-5.84,2.94-1.47,2.92-.5,2.94-1h1l3.42,1,2.92,2,2.94,2.92,1.45,1,1,1v1l.49,1v4.86l1.47,2.45,2.45,3.42,2,2,1.47,1,1,1H686l3.92-1.48,8.78-5.36,7.81-3.42,6.84-1.47,6.84-1,6.36.48,6.84-.48,15.63-6.36,2.44-2,1-1.94,1-5.37v-3.92l1.47-2.92,2.92-3.92,3.42-2.92,5.39-5.39,3.89-3.89,1.95-2.94,2-10.26,2-9.76.5-2,5.36-6.36,3.9-1.45,3.42-.5,1.47-2.44,4.39-2.45,25.41-14.65,1-5.36,1-2.95,2.45-2.92,3.42-2.92,1.47-3.92,9.59-20.71,7.24-29,.7-1.36,13.48-6.23,10.36-3.44,2.41-1,2.42-2.42,5.86-5.52.7-2.08-1-4.82-1-2.43-1.71-2.08-2.42-1-1.39-.35-.69-.35,1-1.38.34-.69v-1l1.39-.69.34-1,.7.34h1l1.36-.69,1-1,.69-1.38,1-1,.69-1.73,1.39-1,1.38-1V1046l.35-2.42v-1l1.38-1.38.67-2.06,1-.69,1-.35,1.73-1,.69-1,1.39-1.39v-1.73h1v-.67l1.36-1.39.35-1,1-1.38,1-.69v-1l-.34-1.39v-.69l1.73-.69,1.38-.67v-3.81l1.74-1.39,1-.34.68.34,1.38.35.69.35.7-.7.34-1.38,1-1.71.69-.69h3.47l1.36-1,1.73-.69.69-3.47v-1.38l2.08-1h2.42l1.37-2.4,1.38-1.73-.34-1-2.06-.69-1-.35-1.38.35-1,.69-2.08-1-1.73-.69v-4.48l.69-1,.35-1.73-.35-2.08-.35-1,.35-2.75,1.39-1.38v-2.77l.69-1,.34-1.36,1.39-2.08.69-2.08.35-1.73-.69-1.38-.35-1.37-1-1.38-1.38-.69.69-2.08-1-2.08v-2.06l-1.73-1v-1.39l-.69-1-.35-.69-.67-1.39-1-.34-.69-1.39v-1l.34-1,.7-.69.69-1v-.7l-.35-.69V950l.7-1.39,2-2.42,4.5-3.44,2.4-3.46,1-.69H925l.69.34h2.42l1.74-.34.69-1v-3.81l1-1H935l.69-.35v-.69h1.39l2.07-.34,2.06-.7,1-1.38,1.38-.33v-1l.69-1.39,1.39-.35h1.73l1.39,1,.67.7h1l.34-1,.69-.7h.7l1.38.35.69-.35v-2.07l.7-.7,1.73-.69,1.71-1,3-.52,2-.47.48-3.42,1-1.95,1.47-2v-3.89l-2.44-2-3.42-2.43-2-1-2.92-.48-2.44-1.47-4.4-.48-2-2.94-2.92-1.47-2-.48L939,899.69l-2.92,1-1.47-1.95-2.92-1.47-2.95,1.47-2.44,1h-2.45l-2.42-1.45-2-3-.48-2.92v-.5l1.95-3.42.5-1.94-2-2.45v-2.92l-.48-2,1-2.44,1.47-2.93-1-1-1.94,2.45-1,1-3.42,1.47h-4.89l-1.94-2-2.45-.47-1.95,1.45-2.44.49-1.47-1L897.55,874l-.58-.16-3.92-1-2.92-2-2.92-1.47-3.92-1.47-1.95-1.47L878.4,866,876,863.55h-1l-1.45-1.95-2-1-1-2h-1.47l-2.92,1.47-1.47.5-1,.47h-1l-1.47-.47-1-1.48-1-1.47-1-.47-1.48-1-1.47-.47-1.45-.5-1.47-.48-1-1,.49-1.47,1-.5.47-1-.47-2.92-1-1.47-1.47-1-1-1-.5-2v-5.37l-1-1.47-1.47-1-1-1,1-1.47,2-1,1.45-1,.49-1.47v-1l-1-.48-1-1,.47-.5,1.47-2v-2l-1-1.95-.5-1.47-.47-1-1-1-1.45-.47-.5-1.47,1-2.45,1-2v-1l-1-2v-2l-1.45-1.94V802l.47-.47,1-1,.49-1.45v-2l-1-2.42-1-2-2-2-1-1.94-1-2v-.07l-.5.07Z"/><path id="path1331" class="cls-11" d="M638.5,1252.93l-3.33-2.55-4.39-1.47-3.42-1.45-3.92-3-3.42-3.89-2.42-4.39-2.44-4.9-1.48-4.39-.49-3.91-2-3.9v-5.39l-2.92-2.92-3.92-2-4.89-1-1.45-1-2-1.45-3.42-.49-1.45.49h-1.47l-2.92,1-2,1H581l-6.83,1H562.4l-7.81.49-11.73-.49-7.81.49-6.34.48-4.4.5-3.91,1.45-1.95,3.42-1,2-1.47,1.45-3.42,1.48-4.39,2.94-3.92,3.42-3.89,2-2.94,2.92-3.42,1-2.45,2.94-2.44,2-1.45,1v2l-1,1.95-1,1-3.9,1.47-3.42,1-3.91,2.45-5.87,2.42-3.42,1.47-3.89.5H453l-1.95.48-2,1.47v4.39l-1,2.44-.48,1.48-1.47,2.44L443.7,1266l-2.92,2v1l-1,2-.5,2.92-1,1.47-1.95,1.48-.5,1.94-.47,2.45-1,3.42v5.86l-1.45,1-1.47,2.44v1.47l.5,5.37v5.86l.47,2.45v7.31l.5,2,.48,1,.5.47v1h-1l.48,1.47-1.45,2-.5.49V1328l1,3.42.5,1.47v2l.48,1.47-1,1-.47,1v6.34l1,1.47V1351l.48,1.45v1l1.47,2.44,1.47,1v2.45l1.95,1,1,2,.5,1.45,2.44,3.92.48,2.92,1.95,3.42,2.44,3.92,2,2.92,2,2.94,1,3.42v3.9l-1,2.94-.5,1.47v9.26l.5,1v3.42l-2,1.94-1,2-1.45,3.42-.5,1.47v3.42H444.2l-1.95,1-1.47,1.48-1.47,1.94v4.4l-2.92,1-2,1.47-.47,2-1,2-1,1.45-1,.5-.47,1.47,1,2.92-.5,2.44-1,2.45-.48,1.45v1l-1,1.45-2.94.5-.48,1-2.45,2.44-1,2v2l-.5,2.94-2.92,3.42-1,1-3,1-2.44.49H409l-3,2-2.42,2.45-1.47,1.45-1,1-.5,1.45-.48,1h-3.59l-.82.49v2l-1.45,1.47h2.44l2.92.5,1-1h3.91l1.95,1,1-1H412l.5,1,2.92,1.45,1,.5h1.47v-.5l1-1,1,.49.5,1.45,3.42,2,1.95,1v-2.45l2,.5,1.95.48h1l.47,1,.5,1h1l2.95-.47h1l1,1.47v1l-1.94,1-1,1-1.95,1-.47,1.95-2.45,1v1l.48,2h1.47l2.45.5h1l1.95,1-1.95,1H432v1l.47,1.47v1h1.95l1,1.47v.48l-1.47,1,.47,1,.5,1.47,1.47,1.47,1.45,1h1v1h-1l.5,2.44V1518h3.91l.48,1-1,.5-1.95,1h-1l-.5.48,1,1.47-1,1.47v1.45l1.47,1,.48,1-1.45,1.45v1l.47,1,1,1.45,1,1.47.5,1.95v2l.49,1,.48.48,1,1.47,1.48,2v1.47l1.94.5,1,.47,1.47,1,1,1,1.47.48,1,.5,1,1v.48l-.47,2,1.45.47-.48,1.47-1.47.5-1-.5.5.5,1,.48,1,1,3.42,1h1l1.47,1,1.45.48v1.94l1,.5,2.42,1,2,.49h2.45l.47-1.47-.47-1-.5-.5-.5-1h2l1.95,1.47,2,1,2.44-1v-1.47l1-1.95h.49l.48,1,1.47-.5,1,.5v1l2,1,1,1.47,1.45,1,.49-1,1.48.48,1,2.44,1.47,1h.48v-4.4l.5-2.42-1-3.42-.5-1.47-.49-1.47,1,1,1,.5,1,.48v1l-.5,1v1.95l2,.5.48,2,.49,1.45-1,1-.5.48v1.47l-.49,1-1,1,.5,1.47.48,1.47,1.47-.5v-1l1-.5,1.47.5.5,1.47,1.45,1,2,.48.47-2.44,1-2.93.5-4.89v-2.42l1.47-1.47,1.95-1.47,3.89-2h1.47l1-1.47h1.47l.5-2,1.44-.5,24.91-.47,1-23-.48-3,2-.47h1.47l1.47.47v1l1.45,1.45.5,2,.47,1.45,1,.5v-2.45l1.45-1.95h1l.5-1v-1h1.47l1,.5,1,2v2.44H559l.5-1,3.42-1.47,1.45-.48h1l2.44,1.45,2,.5,1.45,1,2-1,2.43-.5,2-1,1.94-.48h2.45l2.92.48h3.42l4.39.5h3.42l3.42.47,2,1.47,2.92,2.45,2.94,2.44,2.43,1.48h15.64l5.37-1.48,2-.49v-1.45l1-2,1-2.45,1.94-1.94,2-.48,2.45-1,1.47-.47,2-.5h1l1-1,3-1.48,1.94-.47h2l1.47.47.48-1.45,2.44-2h1.48l2.92-.48,4.41-1,1,.47,1,1.47-1.47,1.47v3.42l-.48,1.45,1.95,2.45,2,1.47,1.47.5,2.92,1h3.42l4.39-1,4.89-2h1.47v-1.45h-1l-.5-1v-1.45l3.42-1.47,1.95-2h2l.47.48h2l1,1,1,.5v-2.92l1.47-1h2l1-1.45v-.5l1.47-1-2.44-1-2-1h-3.42l-1-2,1-1.45v-2.45l-2-1,.5-2-.5-1-1-2,2-2,2-1,3.89-2v-.48l-.47-1.47-2.45-2.45v-2.44l-2.44-4.39L692.8,1477l-1.45-4.89-2.45-3.9v-6.36l-2.44-3.42L686,1456l-3.42-2.92-2.42-1.95-2.45-2.45v-3.42l-2-1.47-1-2.44-2-2.45v-18.07l-.5-2.92-1.94-2.44h-1l-2.92,1.94h-1l-3.42,1.48-3.42-.5-3.42,1-2.42.48-3.42-1-3-.5L644,1416l-1-3.91-.47-2.45-2.94-2.44-2.45-2-2-3.92-2.92-2.92-.5-3.42,1-2v-4.89l1.47-2.92,1.95-3.42,1.47-3.91v-1.95l-1-2.45V1371l1-1,.5-1.94.47-2-1-2v-2.44l-.5-.48,1-2v-4.87l-2.45-2.44-4.89-1.48H617.6l-4.41-.49-3.42-1-1.95-2.44-1.47-1.45-2.92-2-2.45-1-3.42-1.45-2.44-.49-2.45-1.47-1.45-2.93-.5-1v-2l1-2V1328l.5-4.89.47-4.39,2-3.42.48-3.42.49-3.42,1-2,2.92-2,3.42-3.89,1.47-2,2.94-2,2.43-1,4.41-4.89,3.9-4.39,1.94-3.9,1-1.47,3.42-3.42,2.92-3.42,1-2.44.5-3.9,1.95-3.92,1.47-5.36,1.45-2,1-1,2.42-1Z"/><path id="path1336" class="cls-11" d="M582,1207.4l-.59-2-1-2.44-1.47-1.47,1-1,2-1,2.92-1.47,2-1.47.48-2,1.94-3.92.5-1,.5-2.45,1.45-1.94,1-2-1.45-2.45v-3.91l.48-2.93,1.47-1.47,2.92-1.94,3.42-3.92,1-3.42,2.92-2,1-.47v-1l1-2.42.5-1v-3.89l1-3.42v-3.42l-2.45.47v1h-1.47l-1-.5-1-2.44-.47-2.45,1-.47,1-1L602,1139l-1.45-1.47-1.48-1.47h-3.91l-.48-.48v-1.95l1-1v-1.47l1-2v-2.44l.5-2.45v-2.94l-1-1.45,1.47-2H599l1.48-1.45,3.41-.5,3.42-2v-1.47l1-1,1.45-1,.49-1.47,2.45-1,1-2,.5-3.92,1-1.47,1-2.92,3.42-4.89.47-3.42v-2.44l.5-2.93,1-1.47,1.47-2.92,1.94-2.44,1-2-.48-1h-2l-1,.47-1,1h-2v-1l.47-2h-1.94l-1-1,1-.5.49-1.95,1-2.94v-2.42l1-3.92,1.47-2.92.48-2,2.94-3.89,1.45-3.42v-1.47l-.47-1-.5-1.47v-1l1-1.48v-1.45l1.47-.49,1.48.49,1-1.47v-1l.5-.5,1.45-1h1.47v-2l-1-1v-1h3.42l1.48-.47v-1l1-1.47-.5-.5-2-.47v-9.76l-.49-4.42v-2.92l-.48-2.92V983.69l-.5-1h-1l-2.45,2-2.44,1.45-2.45,1h-1.45v1.47l-1.47,2.94V993l-.5,1-1-2.43-1-2.44-1-3.42v-3.42l-1.47-2-1.95-1-1.94-1-.5-1.47-.48-18.54,1.45-2,.5-3.9-1-1.47-1,.5v1.45l-1,1.47-1.45,1-.5-1.45h-1v-1.47L608.79,951l.5-2,1-1,1.48-.5.47-.47-2-1.48v-.49l-1.47-1-1.45-2.44,1.45-1.45,1-2.45h-1l-2.44.48h-2.43l-3.41,1-1.48,1-.49,2-1.95,2.92-1.47,1-2,1h-3.92l-2.42,1h-1.47l-4.4.48-2.44-.44v.44l-2.45,1L574.6,952l-1.94,1-1.48,1v3.42l-2.44.48-1,2-1,2.44-2.44,2-1.45,1-1,1.45-1.45,1.47-2.94,1.47h-1.45l-2.95.47-3.41,2-2.93,1.45h-2L543.36,970l-.5-1.45-2-1L539,964.65V962.2l-2-2-2.92-.49-2-.48v-1l-2-1.47-1.94-1-2.92,1.95-3.42.5v.47l1.94,1,1.48.49h1l2.45.5,1,1.45-1,1.47h-2l-2.93-1-2.44-.5-2.92-1-2-.48h-4.87l-1.47-1.47-1.95-1-1-2h-3l-1.47,1-1,1.95-1.95,2.45-2.44,1.45-.48,1.47.48,1v1.47h-2.93l-1,1L492.07,970l-2.45,1h-5.36l-2.95,2.92-1,2-2.92,2-2.94,1h-2.93l-2.94-1h-3.42l-.47.47,1.47,1.48.47,1.47,1,1-.48,2.45v1l1.45,1,2,1H475l2.93-.5,1.47,1.47.49,2.45L478.39,993H475l-1.94,2-3.92,2.92h-3.42l-1.95,1-2.94,1-4.87,1-4.89.49-2.94.5h-2.43l-2.44-1-2-.48-3.42-1H432l-2-1v-2l1-1.45-1.45-1-2.44-.48-4.4,1-4.89,1.94-1.94,3-1.95,1.45-2,.49-2.92.5-1.47,2.42v2.95l-1,3.89-2.44,1.47L402.2,1015l-1.47,1.95-3.42,2.44-4.89,1-4.87,1-3.42,9.28-4.39,17.6v1.45l1.95,3.42,1.94,2v2l.5,2.45-1,2.44-1,2-.47,11.23-1.48,1.47-1.47,2-1,2.94-1,2.92-.47,2.93,2.42,2.44,4.89,4.89-.47,3.42-6.37,5.37-80.08,21-2.95-.5-10.25-2.44-8.79-1h-7.81l-8.31.5-4.39,1h-2.45l-5.37,1.95-4.39,1-2.44,2.44-2.45,2.94-2,2.93h-2.44l-4.4-2.45-7.33-2.44-8.31-2.43-13.18-2.94-71.3,3.92-3.42-.5L22.21,1085.79v1l26.38,36.14h1.94l1,1v1.47l-.5,2.93-1,1.47v1.47l2,2.92,1.44,1,.5,1.47.48,2v2l1,1,1.45,1,1,1v1.47l1,1h1l.47,1.47-1.45,2-.49,1.47,2.44,2,.48,1.47,2.44,7.81,4.39,7.31,3.42,4.4,3,3.42,4.39,5.86,4.89,4.89,3.42,2.45h2.44l2,1.94,3.42,1,4.89,1.47,2.92.5,5.37,2.92,5.86,1,3.42,2.45,2.45,2.44,2,1,1,2.92,2.94,3.91,2.92,2.93,3.92-1,7.81-.47,1,1.94v3.92l-.5,2.92-.48,3.42-1.47,3.42v5.86l.5,4.89,1.45,6.34,1.47,4.4v4.89l-.48,4.39v12.7l-.49,2.45-2.45,5.37-2,1.47v.47l1,2,.5,1.47-1,1.47-2,1,1,1,1.47,1,1.95,1h2l2.93,1,1.94.48h3.42l3.42-1,3.92-1h4.39l1.47-.5h1.95l1.47.5,1.45,2h1l3.42,2.94.47,2.92v2.45h-1.47l-1.45,1.47-2,2.92v9.76l.5,1,1.47,1.45-1,2-2.45,1-2,1.45v2l-1.45,5.37-1,6.83-1,1.48-3.89-.5H156l-2.92-.48-2.45-1H139.91l-3.9-.48h-2.94l-1.45,1.47-2,1H128.2l-2.45,1-1.47.48-2,1-2-.5h-2.42l-2.94.5h-2l-2.92.48-.5,1.47h-2.92l-1.47,1h-1.95l-1.47,2v2.45l-1.95,2.44-1,1v1l.49,1.47v1l-1,1-2-.48-4.41-2H89.61l-.49,1.47-.5,1.47-1,1.45-3.42,1-3.42,1.45-10.74,2.94-2,2.45-1.94,8.78-2,10.26L62.74,1391V1394H59.32l-2.92.47-.5,2v3.42l.5,2,1,1v1.48l-1.47,1.47-1.95,1v1.45l.48,1.47-1,1v2l-1,3.41-.47,8.29-1,6.36L48.09,1436l-1,2,1,1H52l2.42.5,1,.5,1.95,1,1.47-.5h1.45v1l-1,2-2,1.94-1.47,2.45-.48,2,.48,1.47,1,1,3.42-.5,3,.5,1.45-1v-1.47l2-2,2.44-1,1-.5H73l5.36,1.47,3.42,1,.5-1-.5-.5-1.45-1.47-.5-2,.5-1.94,2.92-1,2-.5,4.41-.47,4.87,1.95,1.48,1.94.49,1.47-2,2-1,1-.48.49,2.43,1,3.42.49h2.44v-1l-2.44-1-1-1.45v-1l2.45-2.92,4.89-1,2.44-.5,1-1h-1l.48-.47,2.45-.5h5.86l11.73.5,10.26,1.95,5.36,1.47h3.42l3.42-2,2.45-.48,5.36,1,3.42,1.94,5.37.5,4.39.48,3.92,2H178l2.45-.5.47-1-1.45-1.94-1.47-1.47-1-1.48.48-.47,1.47-2,2.92-2.45,5.86-1.94,6.84-.48,3.92,1H200l2.42,1.45,3.92,1.47,1.47.5h3.42l3.42.48,1.45-.48,2.94-.5v-3.41l-2-1.48-1.95.5-1-.5-2-.47v-1h1l1.94-1,1.48-.5h1l1,.5H220l3.41-.5,1,.5,1,1-1.95.48H221l-1.47,1v1l.5,1.45,1,1,.5,1-1,1v1.45h1l2.92.5,2.92.5h2.94l1,.47,2.44,1.48,2.92.47h1l1,1.47,1.95,1,1.95,1h3.91l1.45-1,.5-1h1.95l1,.5,2,.48,2,2.44v1.47l-1,2,.47,1,.5.5h4.39l1.95-1.47.5-1h-1.95l-.5-.5-1-1,.5-2.93,1-1,1.95-1.47,1.47-1.47,3.42-.48h5.86l4.4-.5h1.94l1.47,1,2.93,1.47,3.42-.5,1.94.5,1,.5,1.95,1h2.44l.48-1,1-2v-1.95l2.45-2h2l1.94,1,1-.5,2.44-.48,1.47-.5,2.43.5v2h2l3.42-2,2.44.48,1.45.5,1,.47,3.42,1.47,3.42.5,2,1,1.95-1,1.47-2,4.39-1.45,1.95-.5,2.92-1h6.36l3.9-.5,2.94-.47,1.95-1,3.42.48,1.47.5,3.42-.5,2-1.45H369l3.92.48,4.87,1,5.86,2.94,1,1,1.47-.5-1-2-1.47-1-1-.5,1.47-2v-.5l-2.94-1-1.95-.48-.5-1.47-1.95-1-1.47-1.47h-3.89l-2.94,2-3.9,2.44-4.39.5-2.45-.5v-1h2.45l1.45-2.45,1.47-2.92,1.95-1.47,2.44-.48,2.94-.5,1,.5h4.39l.5-.5,1-.49.48.49v1.48l3.42.47,1,.5.5,1,1.95,1.48,1,1.94H388l1,.5.5,1.95v1l.49,2,.48,1,1.95,2-.48,2H389.5l-1.47.5,1.47,1.45.49,1,1,1.47,3.42,2,1.45,2.45,4.41,2.44.48,1.47,1,2.92v2.45l-2.44,2v1.47l-.48,1.95v6.36l-1.47,3.89-1,1,1,1.47,1,1-1.62,1h3.59l.48-1,.5-1.45,1-1,1.47-1.45,2.42-2.45,3-2H412l2.44-.49,3-1,1-1,2.92-3.42.5-2.94v-2l1-2,2.45-2.44.48-1,2.94-.5,1-1.45v-1l.48-1.45,1-2.45.5-2.44-1-2.92.47-1.47,1-.5,1-1.45,1-2,.47-2,2-1.47,2.92-1v-4.4l1.47-1.94,1.47-1.48,1.95-1h1.95v-3.42l.5-1.47,1.45-3.42,1-2,2-1.94v-3.42l-.5-1v-9.26l.5-1.47,1-2.94v-3.9l-1-3.42-2-2.94-2-2.92-2.44-3.92-1.95-3.42-.48-2.92-2.44-3.92-.5-1.45-1-2-1.95-1v-2.45l-1.47-1-1.47-2.44v-1L433,1351v-4.89l-1-1.47v-6.34l.47-1,1-1-.48-1.47v-2l-.5-1.47-1-3.42v-3.42l.5-.49,1.45-2-.48-1.47h1v-1l-.5-.47-.48-1-.5-2V1309l-.47-2.45v-5.86l-.5-5.37v-1.47l1.47-2.44,1.45-1v-5.86l1-3.42.47-2.45.5-1.94,1.95-1.48,1-1.47.5-2.92,1-2v-1l2.92-2,2.45-1.45,1.47-2.44.48-1.48,1-2.44v-4.39l2-1.47,1.95-.48h8.31l3.89-.5,3.42-1.47,5.87-2.42,3.91-2.45,3.42-1,3.9-1.47,1-1,1-1.95v-2l1.45-1,2.44-2,2.45-2.94,3.42-1,2.94-2.92,3.89-2,3.92-3.42,4.39-2.94,3.42-1.48,1.47-1.45,1-2,1.95-3.42,3.91-1.45,4.4-.5,6.34-.48,7.81-.49,11.73.49,7.81-.49h11.73l6.83-1Z"/><path id="path1361" class="cls-11" d="M804.05,808.54l-.87,1.28-1.95.49-1.94.48h-3.42v2.44l2,2.95v2.92l1.47,2.44,1,1,2-1.47,2-1.45,1-1h1l1.94-.47,2.95.47,4.39,2.94,2,1.48L819.8,825l2,1,1.47-2,1-1.47,1-1.47,2-1.95v-3.9l1-2h2.42l.5-.47v-1.47l-1-1-1.95-1.47-2.44-1-2-2-.48-1-1.47-1.47-.82-1-1.13.48h-3.42l-2.94,1v1.47L810,806.89l-2.92,1Z"/><path id="path1366" class="cls-12" d="M647.46,999.68l-2.53-.84-.47-3.42-2-6.84L641,981.27,639.57,973l-2.45-3.42-1.45-4.89-1-4.89-2-5.37V949.5l-1-3.9-2.92-3.41-.5-3.42-2.44-3.42v-3l1-5.36,1.47-1,3.92-3.41,4.87-3.42,3.42-1.48,5.86-4.39,2-5.36,1.47-2.93,1.47-.49,1.48.49,1.45,1,1,1.45,2,1.47.47-1.47,1-1.45V903.1l-2.43-1-2-2-3.42-3.91-2.45-1.95-3.42-4.89L643.48,888v-3.42l.48-4.42,1.47-1,1-1.95,3-5.86,1.45-3.9,2.44-3.91.5-1.47h1l.48,1,2.44,1.47h2.45l2.94-1,3.42-1.47,3.42-2.93,2.42-3.91,2-2,1.45-1.47-2.92-.48-2.92-.5-1.47-.47-2.94-.5L663,848.4V847h-2.94l-2-2.45L654.22,843v-1.94l1-.5,1-1.47-.49-.48-2-1H650.8l.49-2.45,1.48-.5h4.86l1.48-1.94,1.94-1.95,2.45-.5,2.94-1V824l1.95-.5h2.44l1.95.5,2.92.48,3.92.49,2.45-1,1.94-1,3,.47,1.45-1.47.49-2.42.48-1.47,1.47-.5-.48-1.45-.49-1.47v-1.48l-.5-2.44,2.44-.48,1,.48,2.94,1,1,2.42,2.44,1,2,1.95,1.47,1H708l1.94-.5,1.48,1,3.91,1h6.84V823L720.65,825l1,1.48,3.92,1,2-1,2.44-2.45,3.42-2.94,1.95-1.95v-2l-1.95-1v-2.45l2.45-1,1.45-2.45-1.45-2.94-3.92-1-1.47-1-1.95.5-.48,2-2,1.47-2.93,1.95h-6.83l-2.45-1v-2.44l2-2-1.45-2.44-2-1-2.92-2-.5-1.45v-3.91L706,791.75l-1-4.89,1-3.42,3.42-4.4,3.42-6.83,2.92-4.4,1.47-1.47,1-2.42,2.45-1,2.92-4.39,1-2.92-.5-1.47-1-1.95-1.94-2,.47-1,1-1.45,1-.5v-1l-1.45-1,1.45-1.47,1.47-1,2.45-1.48,1-1.94L728,737l-.49-2.92,1.94-1.47-.47-1-1-1.48h-1l-3.42-.47-2.92-.5-2.45-2.45-1.94-4.39-1.48-2.92-1.14-2.9-.8,2.4-3,1.47L706,722.39l-3.42,1-1.47,2.94-1,2.42v2l-1.47,1.95-1.94,1-2,2-3.42,2.94-2,1-1,1v7.81L687,749.74l-2.45-.49-2.44.49v4.89l-.5,1.45,2.44,1.48,2,1.47,1.47,2.44,2,1.45,2,.5,1,.5v4.39l-1,.48-1,2-.49,1v1l.49,1.48,1.45.47.5,1-1,1,1,2.44-1.47,2h-1l-2,1.45v2l1.45,2.92-2,1H685l-2,1-1.95,2h-1.47l-1.47-.5H676.7v2l-.5,1.47h-3.92l-1,.5-1.95,1-2.92-1H663.5l-3.42.48-2.45.49h-2.92l-2.44.48h-2.45l-3.42-.48-1-1.47-3.42.5-2.44-1h-1.45l-2.45-1-2.45-1-2.44-1-3.42-.49h-2.92l-2.45-1H617.6l-2.94,1-1,.49,1,2v1l-1.95,1.48-1,1,.47,1.47,1.47,1.47,1,1.45.5,1,.47,2,1.47,1.94.5,1.47,1.45,1v2l1,.49,1.48,1,1.94.5,3.92,1,1.95-.5,1,2.45v1.47l.5,1.45,1,.5,1.47,1.47-.49,2.42-.48,3.92-1,2.44,1,1,1,1v1.95h1.95l2,2,1,1.45,2.42,2.44.5,2v3.42l-2.45.48-1,1.47-2.92,3.42-2,.47-1.45,1-1,1.45-1,1.47h-1.95l-1.47-.5-1.45.5v1.47l-1.47,2-.5,1h-2.92l-1.95,1.47-2.44,1.48-2.45,1h-1.47l-1.47-1.47-1.95-1.47h-1l-2,1-2,2.45-1.45-.48-4.39-.5-3.92,1-1.47,1.47L589.25,866l-.47,2v2.45l.47,2.92.5,1.47-.5,2.44-.47.5-1.47,1-1,1.95-1,2-2.45,1.47-1,1,1,1.94,1.47,1,1,1,.47,1.45v1.47l.5,2-1.47,2.94-2.92,3.42-1,2.45H578l-1.45,1-2,1-.47,2.92-1,2.94v3.42l1.45,1.95,1,1.94.49,2v1.45l-.49,2-.48,2.43,1,2-1,2.44-.5,2.42v1l.5,2,1,1.95v2.44l1,3.42,1.47,2.44v2.49l2.44.44,4.4-.48h1.47l2.42-1h3.92l2-1,1.47-1,1.95-2.92.49-2,1.48-1,3.41-1h2.43l2.44-.48h1l-1,2.45-1.45,1.45,1.45,2.44,1.47,1v.49l2,1.48-.47.47-1.48.5-1,1-.5,2,1.47,1.47v1.47h1l.5,1.45,1.45-1,1-1.47v-1.45l1-.5,1,1.47-.5,3.9-1.45,2,.48,18.54.5,1.47,1.94,1,1.95,1,1.47,2v3.42l1,3.42,1,2.44,1,2.43.5-1v-1.45l1.47-2.94v-1.47h1.45l2.45-1,2.44-1.45,2.45-2h1l.5,1v24.93l.48,2.92v2.92l.15,1.37.82-1.37,1-2.42.47-2-.47-2v-1.47l1.45-1.95H643l2.45-1,1-2.45Z"/><path id="path1343" class="cls-11" d="M840.79,566.59a5.22,5.22,0,0,1-2.92,1.94c-2,.49-2,2-2,2l-2.44-.49L832,569l-1.48-.5h-4.39l-3.42,1-5.36,1H807.1l-2.92,2h-5.87l-2,1-3.89,1h-9.28l-3.92,1-4.39.5-2,1.47-1.47,1.95-2.45,1-3.89.5-2.45-.5-2.92,1.47-2.94,1.45-3.42.5-2.45.5.5,1.45,2,1.47v1.95h-4.89L747,590.52l-2.45,1v3l-1.47.47-2,1-1.47,2-2.44,1-1,1.45-3.89,1.47H728l-.49,1.47,1.47,1.45.47,2.45v1.47l-1,1-1.47-.47-1.45-.5-.5-1.47-2.44-2-2.92-.5-2.95.5v2l-.47,2-1,1-2,1,.5,1,.5.5,1,1-.5,1.45h-2.44l-1.45,1-1.47,1.45-1,1L706,621.29l-.5,1-1,1h-2.92l-1.48,2.44-.49,2.45-1.45.48-2.45,1.47-.5,1-.47,1.47-1.47,2-1,.5v1.95l1,.49,1.47,1.45,2,2.45,3.41,1,2,1,1.47,1,1,1v2.45l1,1H707l1.47,1.48,1.45,2.92v1.47l1.48,1-.48,1.47,1,1.45,1.45,1,1,.49v4.4l-1,1.47-.47,1.47.47,1.45,1.47.5.5,1,1.45.5,1.47,1,1,1.95v1l-.48,1h-1.47l1,1,.5,1.47.48,1.95,1.47,1,1.47,1.94v1.48l-1.47,2.42-1.47,1-1.45.48-1,1h-1.45l-.5,1-.47,2,2.42,2L718.2,696l1.95,1.47.5,1h2v2.94l-1,2.92-1.94,1.47-1.95.48-1.47,1-1.48,3.42.5,1.47,1,1.48-2,1.45-.5,1-.17.52,1.14,2.9,1.48,2.92,1.94,4.39,2.45,2.45,2.92.5,3.42.47h1l1,1.48.47,1-1.94,1.47L728,737l.48,2.45-1,1.94L725,742.91l-1.47,1-1.45,1.47,1.45,1v1l-1,.5-1,1.45-.47,1,1.94,2,1,1.95.5,1.47-1,2.92-2.92,4.39-2.45,1-1,2.42-1.47,1.47-2.92,4.4L709.42,779l-3.42,4.4-1,3.42,1,4.89,2.92,3.42v3.91l.5,1.45,2.92,2,2,1,1.45,2.44-2,2v2.44l2.45,1h6.83l2.93-1.95,2-1.47.48-2,1.95-.5,1.47,1,3.92,1,1.45,2.94-1.45,2.45-2.45,1v2.45l1.95,1v2l-1.95,1.95L729.93,824l-2.44,2.45-2,1-3.92-1-1-1.48,1.47-1.94V819.6h-6.84l-3.91-1-1.48-1-1.94.5h-5.37l-1.47-1-2-1.95-2.44-1-1-2.42-2.94-1-1-.48-2.44.48.5,2.44v1.48l.49,1.47.48,1.45-1.47.5-.48,1.47-.49,2.42L687,823.49l-3-.47-1.94,1-2.45,1-3.92-.49-2.92-.48-1.95-.5h-2.44l-1.95.5v5.37l-2.94,1-2.45.5-1.94,1.95-1.48,1.94h-4.86l-1.48.5-.49,2.45h2.94l2,1,.49.48-1,1.47-1,.5V843l3.91,1.47,2,2.45H663v1.45l2.43,1.47,2.94.5,1.47.47,2.92.5,2.92.48-1.45,1.47-2,2-2.42,3.91-3.42,2.93L663,863.55l-2.94,1h-2.45l-2.44-1.47-.48-1h-1l-.5,1.47-2.44,3.91-1.45,3.9-3,5.86-1,1.95-1.47,1-.48,4.42V888l1.45,1.45,3.42,4.89,2.45,1.95,3.42,3.91,2,2,2.43,1v2.95l-1,1.45-.47,1.47-2-1.47-1-1.45-1.45-1-1.48-.49-1.47.49L648.35,908l-2,5.36-5.86,4.39-3.42,1.48-4.87,3.42-3.92,3.41-1.47,1-1,5.36v3l2.44,3.42.5,3.42,2.92,3.41,1,3.9v4.89l2,5.37,1,4.89,1.45,4.89,2.45,3.42,1.47,8.31,1.47,7.31,2,6.84.47,3.42,2.53.84,1.89-2.79,2.92-1.95,3.91-2h2.93l3.41,1H664l2.44-1h2.43l2,1,1.45-.48,2-1,.48-1,.5-1.47-1-1.47-.49-1,.49-1.47h3.9v-1.45l-1.45-1.48-.5-1.47,1.47-1,1-1.47v-.48l-1-1.47-1-1v-3l.47-1,.5-2.45-.5-1.94.5-2,.48-1.47,1.47-1,2.92-2.92,1.47-4.41,1-1.45,1-1.47,2-1V949l2-1.94v-3l-1-1.47v-3.42l1-.47,1.47-1.47.47-1V931l1.48-.49,1.94-1,2.45-1.47-1-2.44-.5-1,.5-1.94,2.44-2.45v-1.45l1-2.45,2.45-1.47H705l2.45-.49v-3.42l.48-1,.49-1.45v-2.44l.48-1.47-.48-1.48-1-1.45h-2l-1,1-1,.47-1.94.5-1,1-1-1v-1l2.44-1.47v-2.45l-1-2h-1l-1.47.48h-2.44l-1.45-2-1-2.44-.49-2v-3.42l-1-1-.5-1.47-.47-1.48,1.45-2.42v-3.92l-.48-2.44,1.47-1.95v-2l2.43-2,1.47-1h2.44l2.93-1,1.47.49H707v-1l1.95-1.45h3.92l-.5-1.47V861.6l-1.45-.5-1-1v-1.47l.5-1v-2.92l-.5-1-.47-1v-1.45l-1-1-.49-2h4.39l.5,1,2.44,1,1.45-1h3.92l.5,1.47v2.45l1.45,2.92,2,1.47v.5l1,2h3.89l.5-1.47.48-1.95,1.47-1,2.45-3-1.48-1.95-1-1.47-1-1-1.48-1v-1l-1.94-1L729,844h1v-2l-1-1-.5-2.45,1.47-.5,2.45-1,2.92-1.95,3.92-1.47v-2l1.94-1,.5-1.47,1.45-2,1-1L742.14,824l1-2.45,1-1,1.48-3.42v-1.47l.49-1,.48-2v-2l2.45-1.45,1.47-1.47,4.39-1,3.42.48h2.92l1-1.45v-1.47l.5-2V801l-.5-1.47v-1.95l-.47-1v-1.47l2.44-1,1.45-1,3.42-.5,1.47-.48,1-1.47.49-1.94h3.9l1.47.47,1,1,.49,2,1.47.48h2.93l2.44,1v.5l-.5,1-1,1-1,1-1,.5,1.47,1,2.92,1,.5,1,1.45-1.45,1.47-2,1-1.45,1-2.44h1l2,1.47v1.45l2.45,2,1.95.47-.5,1.95-1,3v1l2.44.5v1.94l1,1.48,1.48.47,4.39-1,2.92-1,3.42-1.47V804l2.94-1h3.42l3.42-1.45,1.47-1.47h2.43l3.41-3.92.5-2.92,1-2,1-1,1.47-1,2.92-1,2.45-2,1,.48.5-.07v-1.88l-1-5.37-.5-3.42-.48-1.47-.5-2.44v-2l-1.47-3.42-1-1.47-.48-1-1.47-1.94v-2l-.5-2v-4.39l.5-4.4.5-1.94.48-2.45,1.47-2h2.92l1-1h2l1-.48,1.47,1,1,.49,1.45.48,1-2V737l-.5-1.47v-2l2-1,.49-3.42,1.47-2.92,2.93-2h3.42l3.41-.48,3.42-2,2.92-1.45V718l1.48-1,1-1.48,1-2.44v-2l1-2.44,1-.48,3.43-1.82,1.12-.43-2.34-.66-4.18-1.51,1-1.44h1l1.45-1h2l.48-1-1-1-1.94-.47-1-1h-2l-2.44-1H865.7l-.48-1.45-2.44-2h-1l-1.47.5-1.47.49-1.45-1-2-1.45v-.5l-1,1H853l-1,1-.49-.08h0l-1-.9,0-3.12-1.21-2.37,2.91-2.72.74-2.79,1.8-2.55,1.33-1.29,3.05-.49.34-.81-2.64-3.4v-1l-2.44-1-2.43-1h-2l-3.9-.5-4.39-1h-2.45l-1,.5-2.94-1H832.5l-3.91-1-6.34-2.94-3.92-1.95-3.89-2.45L812,657.43l-.5-1.95v-2.94l1.47-1.45-.49-2.45L811,647.17h-4.89l-1,.5-2.44,1-3.92-.49h-2.45l-2.92-1-2.92.5-2.94,2.45-2.92.47h-2.95l-2.92-1.47-2.94-2.42-1.45-1v-3.42l2-1.45v-4.39l-1-1-1-2.92v-8.31l.48-3.42v-2.92l2.44-1.47,1,.5,2.44,1.45,2.94-1v-1.45l.48-2.44,2.44-1L789,611l2.45-.49,1-1.45.48-3,1-1.47v-1.95l2.42-1,1-1,1.95-1.47,1-1,2.45-2,1.47-2.44,1-1,1.45-1.47v-1.94l-1.45-1.95-1-.5v-2.44l1.45-.48,2.44-1,1.95-1.45,3.92.48h2.44l1.47-.48,2.43-1.47,2.94-1.47h4.39l2.45,1,2.44.5,4.4-1,1,1.47,2.92,1h2l2.45-1h2.42l2.45.48h2l2-1.48,1-.47v-1.95l-1-1-.5-1.45-.47-1h-2.45l-1-1-.5-1-1-1h-3.92l-2.42-.48v-1l-1-2.92Z"/><path id="path1351-2" data-name="path1351" class="cls-13" d="M840,786.38l-2.45,2-2.92,1-1.47,1-1,1-1,2-.49,2.92-3.42,3.92H824.9l-1.47,1.47-2.29,1,.82,1,1.47,1.47.48,1,2,2,2.44,1,1.95,1.47,1,1v1.47l-.49.47h-2.43l-1,2v3.9l-2,1.95-1,1.47-1,1.47-1.47,2-2-1L817.57,823l-2-1.48-4.39-2.94-3-.47-1.94.47h-1l-1,1-2,1.45-1.95,1.47-1-1L798,819.1v-2.92l-1.95-2.95v-2.44h3.42l2-.48,1.94-.49.87-1.28-1.34.3-1.47-.47-1-1.48V805l-2.44-.5v-1l1-3,.5-1.95-2-.47-2.44-2v-1.45l-2-1.47h-1l-1,2.44-1,1.45-1.48,2-1.45,1.45-.49-1-2.93-1-1.47-1,1-.5,1-1,1-1,.5-1v-.5l-2.44-1h-2.92l-1.48-.48-.49-2-1-1-1.47-.47h-3.89l-.5,1.94-1,1.47-1.47.48-3.42.5-1.45,1-2.44,1v1.47l.48,1v1.95l.49,1.47v1.47l-.49,2v1.47l-1,1.45h-2.92l-3.42-.48-4.39,1-1.47,1.47-2.45,1.45v2l-.47,2-.5,1v1.47l-1.47,3.42-1,1-1,2.45,1.95,2.45-1,1-1.45,2-.5,1.47-1.94,1v2l-3.92,1.47-2.92,1.95-2.45,1-1.47.5.5,2.45,1,1v2h-1l-1.47,1.47,1.95,1v1l1.47,1,1,1,1,1.47,1.48,1.95-2.45,3-1.47,1-.48,1.95-.49,1.47h-3.9l-1-2v-.5l-2-1.47-1.45-2.92v-2.45l-.5-1.47h-3.92l-1.45,1-2.44-1-.5-1h-4.39l.5,2,1,1v1.45l.48,1,.49,1v2.92l-.49,1v1.47l1,1,1.45.5v1.95l.5,1.47h-3.92l-2,1.45v1h-2.44l-1.47-.49-2.92,1H697.9l-1.47,1-2.42,2v2l-1.48,1.95.48,2.44v3.92l-1.45,2.42L692,885l.49,1.47,1,1v3.42l.5,2,1,2.44,1.45,2h2.44l1.48-.48h1l1,2v2.45l-2.44,1.47v1l1,1,1-1,1.94-.5,1-.47,1-1h2l1,1.45.47,1.48-.47,1.47v2.44l-.5,1.45-.48,1v3.42l-2.44.49h-2.45l-2.44,1.47-1,2.45v1.45l-2.44,2.45-.5,1.94.5,1,1,2.44-2.44,1.47-2,1L692,931v5.37l-.48,1-1.47,1.47-1,.47v3.42l1,1.47v3l-2,1.94v3.42l-2,1-1,1.47-1,1.45-1.47,4.41-2.92,2.92-1.47,1-.48,1.47-.49,2,.49,1.94-.49,2.45-.48,1v3l1,1,1,1.47v.48l-1,1.47-1.47,1,.5,1.47,1.45,1.48v1.45h-3.9l-.49,1.47.49,1,1,1.47-.5,1.47-.48,1-2,1-1.45.48-2-1h-2.43l-2.44,1h-1.47l-3.42-1H656.4l-3.92,2-2.92,1.95-2.95,4.39-1,2.45-2.44,1h-3.42l-1.45,1.95v1.47l.47,2-.47,2-1,2.42-.82,1.37.35,3v9.76l1.94.47.5.5-1,1.47v1l-1.47.47h-3.42v1l1,1v2h-1.47l-1.45,1-.5.5v1l-1,1.47-1.47-.49-1.48.49v1.45l-1,1.48v1l.5,1.47.47,1v1.47l-1.45,3.42-2.94,3.89-.47,2-1.48,2.92-1,3.92v2.42l-1,2.94-.5,1.95-1,.5,1,1h2l-.48,2v1h2l1-1,1-.47h2l.48,1-1,2-2,2.44-1.47,2.92-1,1.47-.49,2.93v2.44l-.48,3.42-3.42,4.89-1,2.92-1,1.47-.49,3.92-1,2-2.44,1-.5,1.47-1.45,1-1,1v1.47l-3.41,2-3.42.5-1.47,1.45h-1.48l-1.47,2,1,1.45v2.94l-.5,2.45v2.44l-1,2v1.47l-1,1v1.95l.48.48h3.92l1.47,1.47,1.45,1.47.49,1.47-1,1-1,.47.47,2.45,1,2.44,1,.5h1.47v-1l2.45-.47v3.42l-1,3.42v3.89l-.49,1-1,2.42v1l-1,.47-2.92,2-1,3.42-3.42,3.92-2.92,1.94-1.47,1.47-.48,2.93V1181l1.45,2.45-1,2-1.45,1.94-.5,2.45-.5,1-1.94,3.92-.48,2-2,1.47-2.92,1.47-1.95,1-1,1,1.47,1.47,1,2.44.59,2h2.83l2-1,2.92-1h1.47l1.45-.49,3.42.49,2,1.45,1.45,1,4.89,1,3.92,2,2.92,2.92v5.39l1.95,3.9.5,3.91,1.47,4.39,2.44,4.9,2.43,4.39,3.41,3.89,3.92,3,3.42,1.45,4.39,1.47,3.34,2.55.08-.11,3.92-2.94,4.87-5.84,2.94-1.47,2.92-.5,2.95-1h1l3.42,1,2.92,2,2.94,2.92,1.45,1,1,1v1l.49,1v4.86l1.48,2.45,2.44,3.42,2,2,1.47,1,1,1h8.29l3.92-1.48,8.78-5.36,7.82-3.42,6.83-1.47,6.84-1,6.36.48,6.84-.48,15.63-6.36,2.44-2,1-1.94,1-5.37v-3.92l1.47-2.92,2.92-3.92,3.42-2.92,5.39-5.39,3.89-3.89,2-2.94,2-10.26,1.95-9.76.5-2,5.36-6.36,3.9-1.45,3.42-.5,1.47-2.44,4.39-2.45L821,1161.48l1-5.36,1-2.95,2.45-2.92,3.42-2.92,1.47-3.92,9.59-20.71,7.25-29,.69-1.36,13.48-6.23,10.37-3.44,2.4-1,2.42-2.42,5.87-5.52.69-2.08-1-4.82-1-2.43-1.71-2.08-2.42-1-1.39-.35-.69-.35,1-1.38.34-.69v-1l1.39-.69.35-1,.69.34h1l1.36-.69,1-1,.69-1.38,1-1,.69-1.73,1.39-1,1.38-1V1046l.35-2.42v-1l1.38-1.38.67-2.06,1-.69,1-.35,1.73-1,.7-1,1.38-1.39v-1.73h1v-.67l1.36-1.39.35-1,1-1.38,1-.69v-1l-.35-1.39v-.69l1.73-.69,1.39-.67v-3.81l1.73-1.39,1-.34.67.34,1.38.35.69.35.7-.7.34-1.38,1-1.71.69-.69h3.47l1.36-1,1.73-.69.69-3.47v-1.38l2.08-1h2.42l1.37-2.4,1.38-1.73-.34-1-2.06-.69-1-.35-1.38.35-1,.69-2.08-1-1.73-.69v-4.48l.69-1,.35-1.73-.35-2.08-.34-1,.34-2.75,1.39-1.38v-2.77l.69-1,.35-1.36,1.38-2.08.69-2.08.35-1.73-.69-1.38-.35-1.37-1-1.38-1.38-.69.69-2.08-1-2.08v-2.06l-1.73-1v-1.39l-.69-1-.35-.69-.67-1.39-1-.34-.69-1.39v-1l.35-1,.69-.69.69-1v-.7l-.35-.69V950l.7-1.39,2-2.42,4.5-3.44,2.41-3.46,1-.69h.35l.69.34h2.43l1.73-.34.69-1v-3.81l1-1h3.44l.69-.35v-.69h1.39l2.07-.34,2.06-.7,1-1.38,1.38-.33v-1l.7-1.39,1.38-.35h1.73l1.39,1,.67.7h1l.34-1,.7-.7h.69l1.38.35.7-.35v-2.07l.69-.7,1.73-.69,1.71-1,3-.52,2-.47.48-3.42,1-1.95,1.48-2v-3.89l-2.45-2-3.42-2.43-1.95-1-2.92-.48-2.44-1.47-4.4-.48-2-2.94-2.92-1.47-1.94-.48-3,2.93-2.92,1-1.47-1.95-2.92-1.47-2.94,1.47-2.45,1H924l-2.42-1.45-2-3-.47-2.92v-.5l1.94-3.42.5-1.94-2-2.45v-2.92l-.47-2,1-2.44,1.47-2.93-1-1-2,2.45-1,1-3.41,1.47h-4.9l-1.94-2-2.45-.47-2,1.45-2.44.49-1.47-1L897.76,874l-.58-.16-3.92-1-2.92-2-2.92-1.47-3.92-1.47-1.94-1.47-2.95-.48-2.44-2.44h-1l-1.45-1.95-2-1-1-2h-1.47l-2.92,1.47-1.47.5-1,.47h-1l-1.47-.47-1-1.48-1-1.47-1-.47-1.47-1-1.48-.47-1.45-.5-1.47-.48-1-1,.5-1.47,1-.5.48-1-.48-2.92-1-1.47-1.48-1-1-1-.5-2v-5.37l-1-1.47-1.47-1-1-1,1-1.47,2-1,1.45-1,.49-1.47v-1l-1-.48-1-1,.47-.5,1.47-2v-2l-1-1.95-.5-1.47-.47-1-1-1-1.45-.47-.5-1.47,1-2.45,1-2v-1l-1-2v-2l-1.45-1.94V802l.47-.47,1-1,.5-1.45v-2l-1-2.42-1-2-2-2-1-1.94-1-2v-.07l-.5.07Z"/><path id="path1331-2" data-name="path1331" class="cls-13" d="M638.72,1252.93l-3.34-2.55-4.39-1.47-3.42-1.45-3.92-3-3.41-3.89-2.43-4.39-2.44-4.9-1.47-4.39-.5-3.91-1.95-3.9v-5.39l-2.92-2.92-3.92-2-4.89-1-1.45-1-2-1.45-3.42-.49-1.45.49H590l-2.92,1-2,1h-3.89l-6.84,1H562.61l-7.81.49-11.73-.49-7.81.49-6.34.48-4.4.5-3.91,1.45-2,3.42-1,2-1.48,1.45-3.42,1.48-4.39,2.94-3.91,3.42-3.9,2-2.94,2.92-3.42,1-2.45,2.94-2.44,2-1.45,1v2l-1,1.95-1,1L482,1244l-3.42,1-3.91,2.45-5.87,2.42-3.42,1.47-3.89.5H453.2l-1.95.48-1.95,1.47v4.39l-1,2.44-.48,1.48-1.47,2.44-2.44,1.45-2.93,2v1l-1,2-.5,2.92-1,1.47-1.95,1.48-.5,1.94-.47,2.45-1,3.42v5.86l-1.45,1-1.47,2.44v1.47l.5,5.37v5.86l.47,2.45v7.31l.5,2,.48,1,.5.47v1h-1l.48,1.47-1.45,2-.5.49V1328l1,3.42.5,1.47v2l.48,1.47-1,1-.47,1v6.34l1,1.47V1351l.48,1.45v1l1.47,2.44,1.47,1v2.45l1.95,1,1,2,.5,1.45,2.45,3.92.47,2.92,1.95,3.42,2.44,3.92,2,2.92,1.95,2.94,1,3.42v3.9l-1,2.94-.5,1.47v9.26l.5,1v3.42l-1.95,1.94-1,2-1.45,3.42-.5,1.47v3.42h-1.95l-1.94,1-1.48,1.48-1.47,1.94v4.4l-2.92,1-2,1.47-.47,2-1,2-1,1.45-1,.5-.47,1.47,1,2.92-.5,2.44-1,2.45-.48,1.45v1l-1,1.45-2.94.5-.48,1-2.44,2.44-1,2v2l-.5,2.94-2.92,3.42-1,1-2.94,1-2.45.49h-2.92l-2.94,2-2.43,2.45-1.47,1.45-1,1-.5,1.45-.48,1h-3.59l-.82.49v2l-1.45,1.47H397l2.93.5,1-1h3.92l1.94,1,1-1h4.39l.5,1,2.92,1.45,1,.5H418v-.5l1-1,1,.49.5,1.45,3.42,2,2,1v-2.45l2,.5,1.94.48h1l.47,1,.5,1h1l2.95-.47h1l1,1.47v1l-1.95,1-1,1-1.95,1-.47,1.95-2.45,1v1l.48,2h1.47l2.45.5h1l1.95,1-1.95,1h-2.92v1l.47,1.47v1h1.95l1,1.47v.48l-1.47,1,.47,1,.5,1.47,1.47,1.47,1.45,1h1v1h-1l.5,2.44V1518h3.92l.47,1-1,.5-2,1h-1l-.5.48,1,1.47-1,1.47v1.45l1.47,1,.48,1-1.45,1.45v1l.47,1,1,1.45,1,1.47.5,1.95v2l.5,1,.47.48,1,1.47,1.47,2v1.47l1.94.5,1,.47,1.47,1,1,1,1.48.48,1,.5,1,1v.48l-.47,2,1.45.47-.48,1.47-1.47.5-1-.5.49.5,1,.48,1,1,3.42,1h1l1.48,1,1.45.48v1.94l1,.5,2.42,1,2,.49h2.45l.47-1.47-.47-1-.5-.5-.5-1h2l1.95,1.47,1.95,1,2.44-1v-1.47l1-1.95h.49l.48,1,1.47-.5,1,.5v1l2,1,1,1.47,1.45,1,.5-1,1.47.48,1,2.44,1.47,1h.48v-4.4l.5-2.42-1-3.42-.49-1.47-.5-1.47,1,1,1,.5,1,.48v1l-.5,1v1.95l2,.5.48,2,.5,1.45-1,1-.5.48v1.47l-.49,1-1,1,.5,1.47.48,1.47,1.47-.5v-1l1-.5,1.47.5.5,1.47,1.45,1,2,.48.48-2.44,1-2.93.5-4.89v-2.42l1.47-1.47,1.95-1.47,3.89-2h1.47l1-1.47h1.47l.5-2,1.45-.5,24.9-.47,1-23-.48-3,2-.47h1.47l1.47.47v1l1.45,1.45.5,2,.48,1.45,1,.5v-2.45l1.45-1.95h1l.5-1v-1h1.47l1,.5,1,2v2.44h3.42l.5-1,3.42-1.47,1.45-.48h1l2.45,1.45,2,.5,1.45,1,2-1,2.43-.5,2-1,1.94-.48h2.45l2.92.48h3.42l4.39.5h3.42l3.42.47,2,1.47,2.92,2.45,2.94,2.44,2.43,1.48h15.64l5.37-1.48,2-.49v-1.45l1-2,1-2.45,2-1.94,1.94-.48,2.45-1,1.47-.47,1.95-.5h1l1-1,2.95-1.48,2-.47h1.94l1.47.47.48-1.45,2.45-2h1.47l2.92-.48,4.41-1,1,.47,1,1.47-1.47,1.47v3.42l-.48,1.45,2,2.45,1.95,1.47,1.47.5,2.92,1h3.42l4.39-1,4.89-2h1.47v-1.45h-1l-.5-1v-1.45l3.42-1.47,2-2h2l.48.48h2l1,1,1,.5v-2.92l1.47-1h1.95l1-1.45v-.5l1.48-1-2.45-1-1.95-1h-3.42l-1-2,1-1.45v-2.45l-2-1,.49-2-.49-1-1-2,1.95-2,2-1,3.89-2v-.48l-.47-1.47-2.45-2.45v-2.44l-2.44-4.39L693,1477l-1.45-4.89-2.45-3.9v-6.36l-2.44-3.42-.5-2.44-3.42-2.92-2.42-1.95-2.45-2.45v-3.42l-2-1.47-1-2.44-2-2.45v-18.07l-.49-2.92-2-2.44h-1l-2.92,1.94h-1l-3.42,1.48-3.42-.5-3.42,1-2.42.48-3.42-1-2.95-.5-2.44-2.43-1-3.91-.48-2.45-2.94-2.44-2.45-2-2-3.92-2.92-2.92L632,1395l1-2v-4.89l1.47-2.92,2-3.42,1.47-3.91v-1.95l-1-2.45V1371l1-1,.5-1.94.47-2-1-2v-2.44l-.5-.48,1-2v-4.87l-2.45-2.44L631,1350.5H617.81l-4.41-.49-3.42-1-2-2.44-1.47-1.45-2.92-2-2.45-1-3.42-1.45-2.44-.49-2.45-1.47-1.45-2.93-.49-1v-2l1-2V1328l.5-4.89.47-4.39,2-3.42.48-3.42.5-3.42,1-2,2.92-2,3.42-3.89,1.47-2,2.94-2,2.43-1,4.41-4.89,3.9-4.39,2-3.9,1-1.47,3.42-3.42,2.92-3.42,1-2.44.49-3.9,2-3.92,1.47-5.36,1.45-2,1-1,2.42-1Z"/><path id="path1336-2" data-name="path1336" class="cls-13" d="M582.24,1207.4l-.59-2-1-2.44-1.47-1.47,1-1,1.95-1,2.92-1.47,2-1.47.48-2,1.94-3.92.5-1,.5-2.45,1.45-1.94,1-2-1.45-2.45v-3.91l.48-2.93,1.47-1.47,2.92-1.94,3.42-3.92,1-3.42,2.92-2,1-.47v-1l1-2.42.49-1v-3.89l1-3.42v-3.42l-2.45.47v1h-1.47l-1-.5-1-2.44-.47-2.45,1-.47,1-1-.49-1.47-1.45-1.47-1.47-1.47h-3.92l-.48-.48v-1.95l1-1v-1.47l1-2v-2.44l.5-2.45v-2.94l-1-1.45,1.47-2h1.48l1.47-1.45,3.42-.5,3.41-2v-1.47l1-1,1.45-1,.5-1.47,2.44-1,1-2,.49-3.92,1-1.47,1-2.92,3.42-4.89.48-3.42v-2.44l.49-2.93,1-1.47,1.47-2.92,2-2.44,1-2-.48-1h-2l-1,.47-1,1h-2v-1l.48-2h-2l-1-1,1-.5.5-1.95,1-2.94v-2.42l1-3.92,1.48-2.92.47-2,2.94-3.89,1.45-3.42v-1.47l-.47-1-.5-1.47v-1l1-1.48v-1.45l1.48-.49,1.47.49,1-1.47v-1l.5-.5,1.45-1h1.47v-2l-1-1v-1h3.42l1.47-.47v-1l1-1.47-.5-.5-1.94-.47v-9.76l-.5-4.42v-2.92l-.48-2.92V983.69l-.5-1h-1l-2.45,2-2.44,1.45-2.45,1h-1.45v1.47l-1.47,2.94V993l-.5,1-1-2.43-1-2.44-1-3.42v-3.42l-1.47-2-2-1-1.94-1-.5-1.47-.48-18.54,1.45-2,.5-3.9-1-1.47-1,.5v1.45l-1,1.47-1.45,1-.5-1.45h-1v-1.47L609,951l.5-2,1-1,1.47-.5.47-.47-1.94-1.48v-.49l-1.48-1-1.45-2.44,1.45-1.45,1-2.45h-1l-2.44.48h-2.42l-3.42,1-1.47,1-.5,2-2,2.92-1.47,1-2,1h-3.92l-2.42,1h-1.47l-4.39.48-2.45-.44v.44l-2.44,1L574.81,952l-1.94,1-1.47,1v3.42l-2.45.48-1,2-1,2.44-2.44,2-1.45,1-1,1.45-1.45,1.47-2.94,1.47h-1.45l-2.94.47-3.42,2L547,973.43h-2L543.57,970l-.5-1.45-2-1-2-2.94V962.2l-2-2-2.92-.49-1.94-.48v-1l-2-1.47-2-1-2.92,1.95-3.42.5v.47l1.95,1,1.47.49h1l2.45.5,1,1.45-1,1.47h-2l-2.92-1-2.45-.5-2.92-1-2-.48h-4.87l-1.47-1.47-2-1-1-2h-2.94l-1.48,1-1,1.95-2,2.45-2.44,1.45-.48,1.47.48,1v1.47h-2.92l-1,1L492.28,970l-2.44,1h-5.37l-2.94,2.92-1,2-2.92,2-2.94,1h-2.92l-2.95-1H465.4l-.47.47,1.47,1.48.48,1.47,1,1-.48,2.45v1l1.45,1,2,1h4.4l2.92-.5,1.47,1.47.5,2.45L478.6,993h-3.41l-1.95,2-3.92,2.92H465.9l-1.95,1-2.94,1-4.87,1-4.89.49-2.94.5h-2.42l-2.45-1-2-.48-3.42-1h-5.84l-2-1v-2l1-1.45-1.45-1-2.44-.48-4.39,1-4.9,1.94-1.94,3-1.95,1.45-2,.49-2.92.5-1.47,2.42v2.95l-1,3.89-2.44,1.47-1.95,2.45-1.47,1.95-3.42,2.44-4.89,1-4.87,1-3.42,9.28-4.39,17.6v1.45l1.95,3.42,1.94,2v2l.5,2.45-1,2.44-1,2L381.9,1075l-1.47,1.47-1.48,2-1,2.94-1,2.92-.48,2.93,2.42,2.44,4.89,4.89-.47,3.42-6.36,5.37-80.09,21-2.95-.5-10.25-2.44-8.79-1h-7.81l-8.31.5-4.39,1H252l-5.36,1.95-4.4,1-2.44,2.44-2.45,2.94-1.95,2.93h-2.44l-4.39-2.45-7.34-2.44-8.31-2.43-13.18-2.94-71.3,3.92-3.42-.5L22.42,1085.79v1L48.8,1122.9h1.94l1,1v1.47l-.5,2.93-1,1.47v1.47l2,2.92,1.45,1,.49,1.47.48,2v2l1,1,1.45,1,1,1v1.47l1,1h1l.47,1.47-1.45,2-.49,1.47,2.44,2,.48,1.47,2.44,7.81,4.4,7.31,3.42,4.4,2.94,3.42,4.39,5.86,4.89,4.89,3.42,2.45h2.45l1.94,1.94,3.42,1,4.89,1.47,2.92.5,5.37,2.92,5.87,1,3.41,2.45,2.45,2.44,2,1,1,2.92,2.94,3.91,2.93,2.93,3.91-1,7.81-.47,1,1.94v3.92l-.5,2.92-.48,3.42-1.47,3.42v5.86l.5,4.89,1.45,6.34,1.47,4.4v4.89l-.47,4.39v12.7l-.5,2.45-2.45,5.37-1.94,1.47v.47l1,2,.5,1.47-1,1.47-1.95,1,1,1,1.47,1,2,1h2l2.92,1,1.94.48h3.42l3.42-1,3.92-1h4.39l1.47-.5h2l1.47.5,1.45,2h1l3.42,2.94.47,2.92v2.45h-1.47l-1.45,1.47-2,2.92v9.76l.5,1,1.47,1.45-1,2-2.45,1-2,1.45v2l-1.45,5.37-1,6.83-1,1.48-3.89-.5h-1.47l-2.92-.48-2.45-1H140.12l-3.9-.48h-2.94l-1.45,1.47-2,1h-1.45l-2.45,1-1.47.48-1.94,1-2-.5h-2.43l-2.94.5h-1.95l-2.92.48-.5,1.47h-2.92l-1.47,1h-2l-1.47,2v2.45l-2,2.44-1,1v1l.5,1.47v1l-1,1-2-.48-4.41-2H89.83l-.5,1.47-.5,1.47-1,1.45-3.42,1L81,1359.29l-10.73,2.94-2,2.45-1.95,8.78-2,10.26L63,1391V1394H59.53l-2.92.47-.5,2v3.42l.5,2,1,1v1.48l-1.47,1.47-2,1v1.45l.48,1.47-1,1v2l-1,3.41-.47,8.29-1,6.36L48.3,1436l-1,2,1,1h3.92l2.42.5,1,.5,1.94,1,1.47-.5H60.5v1l-1,2-2,1.94-1.47,2.45-.47,2,.47,1.47,1,1,3.41-.5,3,.5,1.45-1v-1.47l2-2,2.44-1,1-.5h2.92l5.36,1.47,3.42,1,.5-1-.5-.5-1.45-1.47-.49-2,.49-1.94,2.92-1,2-.5,4.42-.47,4.87,1.95,1.47,1.94.49,1.47-2,2-1,1-.47.49,2.42,1,3.42.49h2.44v-1l-2.44-1-1-1.45v-1l2.45-2.92,4.89-1,2.45-.5,1-1h-1l.47-.47,2.45-.5h5.86l11.73.5,10.26,1.95,5.36,1.47h3.42l3.42-2,2.45-.48,5.36,1,3.42,1.94,5.37.5,4.39.48,3.92,2h2.44l2.45-.5.48-1-1.45-1.94-1.48-1.47-1-1.48.48-.47,1.47-2,2.92-2.45,5.86-1.94,6.84-.48,3.92,1h1.47l2.42,1.45,3.92,1.47,1.47.5h3.42l3.42.48,1.45-.48,2.94-.5v-3.41l-2-1.48-1.94.5-1-.5-2-.47v-1h1l2-1,1.47-.5h1l1,.5h1.47l3.42-.5,1,.5,1,1-1.94.48H221.2l-1.47,1v1l.5,1.45,1,1,.5,1-1,1v1.45h1l2.92.5,2.92.5h2.94l1,.47,2.44,1.48,2.92.47h1l1,1.47,2,1,1.95,1h3.92l1.45-1,.49-1h1.95l1,.5,2,.48,1.95,2.44v1.47l-1,2,.47,1,.5.5h4.39l2-1.47.5-1h-2l-.5-.5-1-1,.5-2.93,1-1,2-1.47,1.47-1.47,3.42-.48H273l4.4-.5h1.94l1.48,1,2.92,1.47,3.42-.5,1.94.5,1,.5,1.95,1h2.44l.48-1,1-2v-1.95l2.45-2h2l1.94,1,1-.5,2.44-.48,1.47-.5,2.43.5v2h2l3.42-2,2.44.48,1.45.5,1,.47,3.41,1.47,3.42.5,2,1,1.95-1,1.47-2,4.4-1.45,1.94-.5,2.92-1h6.37l3.89-.5,2.94-.47,1.95-1,3.42.48,1.47.5,3.42-.5,1.95-1.45h2.44l3.92.48,4.87,1,5.86,2.94,1,1,1.47-.5-1-2-1.48-1-1-.5,1.47-2v-.5l-2.94-1-1.95-.48-.5-1.47-1.94-1-1.48-1.47h-3.89l-2.94,2-3.9,2.44-4.39.5-2.45-.5v-1h2.45l1.45-2.45,1.47-2.92,1.95-1.47,2.44-.48,2.95-.5,1,.5H376l.5-.5,1-.49.48.49v1.48l3.42.47,1,.5.5,1,1.95,1.48,1,1.94h2.45l1,.5.5,1.95v1l.5,2,.47,1,1.95,2-.48,2h-2.44l-1.47.5,1.47,1.45.5,1,1,1.47,3.42,2,1.45,2.45,4.41,2.44.48,1.47,1,2.92v2.45l-2.44,2v1.47l-.48,1.95v6.36l-1.47,3.89-1,1,1,1.47,1,1-1.62,1h3.59l.48-1,.5-1.45,1-1,1.47-1.45,2.43-2.45,2.94-2h2.92l2.45-.49,2.94-1,1-1,2.92-3.42.5-2.94v-2l1-2,2.44-2.44.48-1,2.94-.5,1-1.45v-1l.48-1.45,1-2.45.5-2.44-1-2.92.47-1.47,1-.5,1-1.45,1-2,.47-2,2-1.47,2.92-1v-4.4l1.47-1.94,1.48-1.48,1.94-1h1.95v-3.42l.5-1.47,1.45-3.42,1-2,1.95-1.94v-3.42l-.5-1v-9.26l.5-1.47,1-2.94v-3.9l-1-3.42-1.95-2.94-2-2.92-2.44-3.92-1.95-3.42-.47-2.92-2.45-3.92-.5-1.45-1-2-1.95-1v-2.45l-1.47-1-1.47-2.44v-1l-.48-1.45v-4.89l-1-1.47v-6.34l.47-1,1-1-.48-1.47v-2l-.5-1.47-1-3.42v-3.42l.5-.49,1.45-2-.48-1.47h1v-1l-.5-.47-.48-1-.5-2V1309l-.47-2.45v-5.86l-.5-5.37v-1.47l1.47-2.44,1.45-1v-5.86l1-3.42.47-2.45.5-1.94,1.95-1.48,1-1.47.5-2.92,1-2v-1l2.93-2,2.44-1.45,1.47-2.44.48-1.48,1-2.44v-4.39l1.95-1.47,1.95-.48h8.31l3.89-.5,3.42-1.47,5.87-2.42,3.91-2.45,3.42-1,3.9-1.47,1-1,1-1.95v-2l1.45-1,2.44-2,2.45-2.94,3.42-1,2.94-2.92,3.9-2,3.91-3.42,4.39-2.94,3.42-1.48,1.48-1.45,1-2,2-3.42,3.91-1.45,4.4-.5,6.34-.48,7.81-.49,11.73.49,7.81-.49h11.73l6.84-1Z"/><path id="path1366-2" data-name="path1366" class="cls-14" d="M647.67,999.68l-2.53-.84-.47-3.42-1.95-6.84-1.47-7.31L639.78,973l-2.45-3.42-1.45-4.89-1-4.89-2-5.37V949.5l-1-3.9L629,942.19l-.49-3.42-2.45-3.42v-3l1-5.36,1.48-1,3.91-3.41,4.87-3.42,3.42-1.48,5.86-4.39,1.95-5.36,1.47-2.93,1.48-.49,1.47.49,1.45,1,1,1.45,2,1.47.48-1.47,1-1.45V903.1l-2.42-1-2-2L651,896.27l-2.45-1.95-3.42-4.89L643.69,888v-3.42l.48-4.42,1.47-1,1-1.95,2.95-5.86,1.45-3.9,2.44-3.91.5-1.47h1l.48,1,2.45,1.47h2.44l2.94-1,3.42-1.47,3.42-2.93,2.43-3.91,2-2,1.45-1.47-2.92-.48-2.92-.5-1.47-.47-2.94-.5-2.43-1.47V847h-2.94l-1.95-2.45L654.43,843v-1.94l1-.5,1-1.47-.5-.48-1.95-1H651l.5-2.45,1.47-.5h4.87l1.47-1.94,1.94-1.95,2.45-.5,2.94-1V824l2-.5h2.45l1.94.5,2.92.48,3.92.49,2.45-1,1.94-1,2.95.47,1.45-1.47.49-2.42.48-1.47,1.47-.5-.47-1.45-.5-1.47v-1.48l-.5-2.44,2.45-.48,1,.48,2.94,1,1,2.42,2.44,1,2,1.95,1.47,1h5.37l2-.5,1.47,1,3.91,1h6.84V823L720.86,825l1,1.48,3.92,1,2-1,2.44-2.45,3.42-2.94,2-1.95v-2l-2-1v-2.45l2.45-1,1.45-2.45L736,807.37l-3.92-1-1.47-1-2,.5-.47,2-2,1.47-2.92,1.95h-6.84l-2.45-1v-2.44l2-2-1.45-2.44-2-1-2.92-2-.5-1.45v-3.91l-2.92-3.42-1-4.89,1-3.42,3.42-4.4,3.42-6.83,2.92-4.4,1.47-1.47,1-2.42,2.45-1,2.92-4.39,1-2.92-.5-1.47-1-1.95-1.95-2,.47-1,1-1.45,1-.5v-1l-1.45-1,1.45-1.47,1.47-1,2.45-1.48,1-1.94L728.2,737l-.5-2.92,1.95-1.47-.48-1-1-1.48h-1l-3.42-.47-2.92-.5-2.45-2.45-1.94-4.39L715,719.47l-1.15-2.9-.8,2.4-2.94,1.47-3.9,1.95-3.42,1-1.47,2.94-1,2.42v2l-1.48,1.95-1.94,1-1.95,2-3.42,2.94-2,1-1,1v7.81l-1.45,1.47-2.45-.49-2.44.49v4.89l-.5,1.45,2.44,1.48,1.95,1.47,1.47,2.44,2,1.45,2,.5,1,.5v4.39l-1,.48-1,2-.5,1v1l.5,1.48,1.45.47.49,1-1,1,1,2.44-1.47,2h-1l-2,1.45v2l1.45,2.92-2,1H685.2l-2,1-2,2h-1.47l-1.47-.5h-1.45v2l-.5,1.47H672.5l-1,.5-1.95,1-2.92-1h-2.94l-3.42.48-2.44.49h-2.93l-2.44.48H650l-3.42-.48-1-1.47-3.42.5-2.44-1h-1.45l-2.45-1-2.44-1-2.45-1-3.42-.49h-2.92l-2.44-1h-4.4l-2.94,1-1,.49,1,2v1l-2,1.48-1,1,.47,1.47,1.48,1.47,1,1.45.5,1,.47,2,1.47,1.94.5,1.47,1.45,1v2l1,.49,1.47,1,1.94.5,3.92,1,1.95-.5,1,2.45v1.47l.5,1.45,1,.5,1.48,1.47-.5,2.42-.48,3.92-1,2.44,1,1,1,1v1.95h1.94l2,2,1,1.45,2.42,2.44.5,2v3.42l-2.45.48-1,1.47-2.92,3.42-2,.47-1.45,1-1,1.45-1,1.47h-1.95l-1.47-.5-1.45.5v1.47l-1.47,2-.5,1h-2.92l-2,1.47-2.44,1.48-2.45,1h-1.47L610,860.13l-2-1.47h-1l-1.95,1-2,2.45-1.45-.48-4.39-.5-3.92,1-1.47,1.47L589.46,866l-.47,2v2.45l.47,2.92.5,1.47-.5,2.44-.47.5-1.47,1-1,1.95-1,2-2.45,1.47-1,1,1,1.94,1.48,1,1,1,.48,1.45v1.47l.49,2-1.47,2.94-2.92,3.42-1,2.45h-2.95l-1.45,1-2,1-.47,2.92-1,2.94v3.42l1.45,1.95,1,1.94.5,2v1.45l-.5,2-.48,2.43,1,2-1,2.44-.5,2.42v1l.5,2,1,1.95v2.44l1,3.42,1.47,2.44v2.49l2.45.44,4.39-.48H587l2.42-1h3.92l2-1,1.47-1,2-2.92.5-2,1.47-1,3.42-1h2.42l2.44-.48h1l-1,2.45-1.45,1.45,1.45,2.44,1.48,1v.49l1.94,1.48-.47.47-1.47.5-1,1-.5,2,1.48,1.47v1.47h1l.5,1.45,1.45-1,1-1.47v-1.45l1-.5,1,1.47-.5,3.9-1.45,2,.48,18.54.5,1.47,1.94,1,2,1,1.47,2v3.42l1,3.42,1,2.44,1,2.43.5-1v-1.45l1.47-2.94v-1.47h1.45l2.45-1,2.44-1.45,2.45-2h1l.5,1v24.93l.48,2.92v2.92l.15,1.37.82-1.37,1-2.42.47-2-.47-2v-1.47l1.45-1.95h3.42l2.44-1,1-2.45Z"/><path id="path1343-2" data-name="path1343" class="cls-13" d="M841,566.59a5.17,5.17,0,0,1-2.92,1.94c-2,.49-2,2-2,2l-2.44-.49-1.47-1-1.47-.5h-4.4l-3.42,1-5.36,1H807.31l-2.92,2h-5.87l-2,1-3.9,1h-9.28l-3.92,1-4.39.5-2,1.47-1.47,1.95-2.45,1-3.89.5-2.45-.5-2.92,1.47L757,583.18l-3.42.5-2.45.5.5,1.45,2,1.47v1.95h-4.89l-1.45,1.47-2.45,1v3l-1.47.47-2,1-1.47,2-2.44,1-1,1.45-3.89,1.47H728.2l-.5,1.47,1.47,1.45.48,2.45v1.47l-1,1-1.47-.47-1.45-.5-.5-1.47-2.44-2-2.92-.5-2.95.5v2l-.47,2-1,1-2,1,.5,1,.5.5,1,1-.49,1.45h-2.45l-1.45,1-1.47,1.45-1,1-2.45,2.94-.5,1-1,1h-2.92l-1.47,2.44-.5,2.45-1.45.48L696,630.08l-.49,1-.48,1.47-1.47,2-1,.5v1.95l1,.49,1.47,1.45,1.95,2.45,3.42,1,1.94,1,1.47,1,1,1v2.45l1,1h1.47l1.48,1.48,1.45,2.92v1.47l1.47,1L711.1,657l1,1.45,1.45,1,1,.49v4.4l-1,1.47-.47,1.47.47,1.45,1.48.5.49,1,1.45.5,1.47,1,1,1.95v1l-.48,1h-1.47l1,1,.5,1.47.48,1.95,1.47,1,1.47,1.94v1.48l-1.47,2.42-1.47,1-1.45.48-1,1h-1.45l-.49,1-.48,2,2.42,2,1.47,1.94,2,1.47.5,1h1.95v2.94l-1,2.92-1.94,1.47-1.95.48-1.47,1L715,710.66l.49,1.47,1,1.48-2,1.45-.5,1-.17.52,1.15,2.9,1.47,2.92,1.94,4.39,2.45,2.45,2.92.5,3.42.47h1l1,1.48.48,1-1.95,1.47.5,2.92.47,2.45-1,1.94-2.45,1.48-1.47,1-1.45,1.47,1.45,1v1l-1,.5-1,1.45-.47,1,1.95,2,1,1.95.5,1.47-1,2.92-2.92,4.39-2.45,1-1,2.42L716,767.81l-2.92,4.4L709.63,779l-3.42,4.4-1,3.42,1,4.89,2.92,3.42v3.91l.5,1.45,2.92,2,2,1,1.45,2.44-2,2v2.44l2.45,1h6.84l2.92-1.95,2-1.47.47-2,2-.5,1.47,1,3.92,1,1.45,2.94L736,812.76l-2.45,1v2.45l2,1v2l-2,1.95L730.14,824l-2.44,2.45-2,1-3.92-1-1-1.48,1.47-1.94V819.6h-6.84l-3.91-1-1.47-1-2,.5h-5.37l-1.47-1-2-1.95-2.44-1-1-2.42-2.94-1-1-.48-2.45.48.5,2.44v1.48l.5,1.47.47,1.45-1.47.5-.48,1.47-.49,2.42-1.45,1.47-2.95-.47-1.94,1-2.45,1-3.92-.49L673,824l-1.94-.5H668.6l-2,.5v5.37l-2.94,1-2.45.5-1.94,1.95-1.47,1.94H653l-1.47.5-.5,2.45H654l1.95,1,.5.48-1,1.47-1,.5V843l3.91,1.47,1.95,2.45h2.94v1.45l2.43,1.47,2.94.5,1.47.47,2.92.5,2.92.48-1.45,1.47-2,2-2.43,3.91-3.42,2.93-3.42,1.47-2.94,1h-2.44l-2.45-1.47-.48-1h-1l-.5,1.47L651,867.46l-1.45,3.9-2.95,5.86-1,1.95-1.47,1-.48,4.42V888l1.45,1.45,3.42,4.89,2.45,1.95,3.42,3.91,2,2,2.42,1v2.95l-1,1.45-.48,1.47-2-1.47-1-1.45-1.45-1-1.47-.49-1.48.49L648.56,908l-1.95,5.36-5.86,4.39-3.42,1.48-4.87,3.42-3.91,3.41-1.48,1-1,5.36v3l2.45,3.42.49,3.42L632,945.6l1,3.9v4.89l2,5.37,1,4.89,1.45,4.89,2.45,3.42,1.47,8.31,1.47,7.31,1.95,6.84.47,3.42,2.53.84,1.89-2.79,2.92-1.95,3.92-2h2.92l3.42,1h1.47l2.44-1h2.43l2,1,1.45-.48,2-1,.48-1,.5-1.47-1-1.47-.49-1,.49-1.47h3.9v-1.45l-1.45-1.48-.5-1.47,1.47-1,1-1.47v-.48l-1-1.47-1-1v-3l.48-1,.49-2.45-.49-1.94.49-2,.48-1.47,1.47-1,2.92-2.92,1.47-4.41,1-1.45,1-1.47,2-1V949l2-1.94v-3l-1-1.47v-3.42l1-.47,1.47-1.47.48-1V931l1.47-.49,2-1L697.9,928l-1-2.44-.5-1,.5-1.94,2.44-2.45v-1.45l1-2.45,2.44-1.47h2.45l2.44-.49v-3.42l.48-1,.5-1.45v-2.44l.47-1.47-.47-1.48-1-1.45h-2l-1,1-1,.47-1.94.5-1,1-1-1v-1l2.44-1.47v-2.45l-1-2h-1l-1.48.48h-2.44l-1.45-2-1-2.44-.5-2v-3.42l-1-1L692,885l-.48-1.48,1.45-2.42v-3.92l-.48-2.44,1.48-1.95v-2l2.42-2,1.47-1h2.45l2.92-1,1.47.49h2.44v-1l2-1.45h3.92l-.5-1.47V861.6l-1.45-.5-1-1v-1.47l.49-1v-2.92l-.49-1-.48-1v-1.45l-1-1-.5-2h4.39l.5,1,2.44,1,1.45-1h3.92l.5,1.47v2.45l1.45,2.92,2,1.47v.5l1,2h3.9l.49-1.47.48-1.95,1.47-1,2.45-3-1.48-1.95-1-1.47-1-1-1.47-1v-1l-1.95-1,1.47-1.47h1v-2l-1-1-.5-2.45,1.47-.5,2.45-1,2.92-1.95,3.92-1.47v-2l1.94-1,.5-1.47,1.45-2,1-1L742.35,824l1-2.45,1-1,1.47-3.42v-1.47l.5-1,.47-2v-2l2.45-1.45,1.47-1.47,4.39-1,3.42.48h2.92l1-1.45v-1.47l.49-2V801l-.49-1.47v-1.95l-.48-1v-1.47l2.44-1,1.45-1,3.42-.5,1.47-.48,1-1.47.5-1.94H776l1.47.47,1,1,.49,2,1.48.48h2.92l2.44,1v.5l-.5,1-1,1-1,1-1,.5,1.47,1,2.93,1,.49,1,1.45-1.45,1.48-2,1-1.45,1-2.44h1l2,1.47v1.45l2.44,2,2,.47-.5,1.95-1,3v1l2.44.5v1.94l1,1.48,1.47.47,4.39-1,2.92-1,3.42-1.47V804l2.94-1H820l3.42-1.45,1.47-1.47h2.43l3.42-3.92.49-2.92,1-2,1-1,1.47-1,2.92-1,2.45-2,1,.48.5-.07v-1.88l-1-5.37-.5-3.42-.48-1.47-.49-2.44v-2l-1.48-3.42-1-1.47-.48-1-1.47-1.94v-2l-.49-2v-4.39l.49-4.4.5-1.94.48-2.45,1.47-2H840l1-1h2l1-.48,1.47,1,1,.49,1.45.48,1-2V737l-.5-1.47v-2l1.95-1,.49-3.42,1.48-2.92,2.92-2h3.42l3.42-.48,3.41-2,2.93-1.45V718l1.47-1,1-1.48,1-2.44v-2l1-2.44,1-.48,1.28-1.08,3.06-1.17-3-.83-3.35-1.34,1-1.44h1l1.45-1h2l.48-1-1-1-1.95-.47-1-1h-2l-2.45-1h-3.42l-.48-1.45-2.44-2h-1l-1.48.5-1.47.49-1.45-1-.66-1-1.31-1-1,1h-1.45l-1,1-.5,1-.26-1.35-.72-.62v-1.45l.47-1.29-1.06-3.29,1.58-1.65,1.06-1.09,1.08-3.83,1.58-1.62,3.72-1.11.46-1.09-5-5.06-2.42-1h-2l-3.9-.5-4.39-1h-2.45l-1,.5-2.94-1h-2.92l-3.92-1-6.34-2.94-3.92-1.95-3.89-2.45-2.45-2.44-.5-1.95v-2.94l1.48-1.45-.5-2.45-1.45-1.47h-4.89l-1,.5-2.44,1-3.92-.49h-2.44l-2.93-1-2.92.5-2.94,2.45-2.92.47h-2.94L779,649.12,776,646.7l-1.45-1v-3.42l1.95-1.45v-4.39l-1-1-1-2.92v-8.31l.48-3.42v-2.92l2.44-1.47,1,.5,2.44,1.45,2.94-1v-1.45l.48-2.44,2.45-1,2.44-1.48,2.45-.49,1-1.45.48-3,1-1.47v-1.95l2.43-1,1-1,2-1.47,1-1,2.45-2,1.47-2.44,1-1,1.45-1.47v-1.94l-1.45-1.95-1-.5v-2.44l1.45-.48,2.44-1,2-1.45,3.92.48h2.44l1.48-.48,2.42-1.47,2.94-1.47h4.4l2.44,1,2.45.5,4.39-1,1,1.47,2.92,1h2l2.45-1h2.42l2.45.48h2l1.94-1.48,1-.47v-1.95l-1-1-.49-1.45-.48-1h-2.45l-1-1-.5-1-1-1h-3.92L842,570.5v-1l-1-2.92Z"/><text class="cls-15" transform="translate(865.46 620.29)">PAKISTAN<tspan x="-24.24" y="20.32">ADMINISTERED</tspan><tspan x="2.89" y="40.64">KASHMIR</tspan></text><text class="cls-16" transform="translate(1001.45 777.41)">INDIAN<tspan class="cls-17"><tspan x="-35.78" y="20.32">ADMINISTERED</tspan><tspan x="-8.65" y="40.64">KASHMIR</tspan></tspan></text><text class="cls-18" transform="translate(536.44 498.29)">KHYBER PAKHTUNKHWA</text><text class="cls-19" transform="translate(540.44 578.67)">VOTERS</text><text class="cls-20" transform="translate(536.44 471.66)">39<tspan class="cls-21" x="65.64" y="0"> </tspan><tspan class="cls-22" x="73.04" y="0">seats</tspan></text><text class="cls-23" transform="translate(536.44 550.44)">1<tspan class="cls-24" x="19.27" y="0">5,316,299</tspan></text><line class="cls-25" x1="812.36" y1="507.66" x2="536.44" y2="507.66"/><line class="cls-25" x1="754.7" y1="507.13" x2="754.7" y2="724.78"/><circle class="cls-26" cx="754.23" cy="725.24" r="10.7"/><text class="cls-18" transform="translate(374.03 804.05)">TRIBAL AREAS</text><text class="cls-19" transform="translate(373.21 884.43)">VOTERS</text><text class="cls-27" transform="translate(366.85 777.41)">1<tspan class="cls-28" x="26.64" y="0">2</tspan><tspan class="cls-29" x="59.45" y="0"> </tspan><tspan class="cls-30" x="66.86" y="0">seats</tspan></text><text class="cls-31" transform="translate(372.4 856.2)">2,<tspan class="cls-32" x="33.89" y="0">5</tspan><tspan class="cls-33" x="54.06" y="0">1</tspan><tspan x="76" y="0">0</tspan><tspan class="cls-34" x="99.74" y="0">,</tspan><tspan class="cls-32" x="105.43" y="0">1</tspan><tspan x="125.59" y="0">54</tspan></text><line class="cls-25" x1="372.58" y1="813.41" x2="646.8" y2="813.41"/><circle class="cls-26" cx="648.66" cy="815" r="10.7"/><text class="cls-18" transform="translate(113.6 1017.98)">BALOCHISTAN</text><text class="cls-19" transform="translate(112.78 1098.35)">VOTERS</text><text class="cls-27" transform="translate(106.41 991.34)">1<tspan class="cls-35" x="26.64" y="0">6</tspan><tspan x="59.45" y="0"> </tspan><tspan class="cls-30" x="66.86" y="0">seats</tspan></text><text class="cls-31" transform="translate(111.96 1070.13)">4,299,494</text><line class="cls-25" x1="112.14" y1="1027.34" x2="505.42" y2="1027.34"/><circle class="cls-26" cx="505.42" cy="1027.07" r="10.7"/><text class="cls-18" transform="translate(786.51 1298.63)">PUNJAB</text><text class="cls-19" transform="translate(785.69 1379.01)">VOTERS</text><text class="cls-36" transform="translate(779.32 1272)">1<tspan class="cls-37" x="25.4" y="0">4</tspan><tspan class="cls-28" x="55.74" y="0">1</tspan><tspan class="cls-21" x="88.56" y="0"> </tspan><tspan class="cls-22" x="95.97" y="0">seats</tspan></text><text class="cls-31" transform="translate(784.87 1350.78)">60,672,868</text><polyline class="cls-25" points="961.03 1307.99 749.12 1307.99 749.12 1045.67"/><circle class="cls-26" cx="749.12" cy="1049.39" r="10.7"/><text class="cls-18" transform="translate(733.74 1555.59)">SINDH</text><text class="cls-19" transform="translate(732.92 1635.04)">VOTERS</text><text class="cls-20" transform="translate(732.7 1528.03)">6<tspan class="cls-37" x="32.82" y="0">1</tspan><tspan class="cls-30" x="63.16" y="0">seats</tspan></text><text class="cls-31" transform="translate(732.1 1606.81)">22,3<tspan class="cls-38" x="81.37" y="0">91</tspan><tspan x="123.48" y="0">,244</tspan></text><polyline class="cls-25" points="908.27 1564.02 550.07 1564.02 550.07 1412.14"/><circle class="cls-26" cx="552.86" cy="1412.14" r="10.7"/><text class="cls-39" transform="translate(897.99 1116.3)">FEDERAL CAPITAL</text><text class="cls-19" transform="translate(897.17 1196.68)">VOTERS</text><text class="cls-20" transform="translate(896.54 1089.67)">3<tspan class="cls-21" x="32.82" y="0"> </tspan><tspan class="cls-22" x="40.22" y="0">seats</tspan></text><text class="cls-31" transform="translate(896.36 1168.45)">765,348</text><polyline class="cls-25" points="1097.45 1125.66 896.54 1125.66 812.36 1125.66 812.36 815"/><circle class="cls-26" cx="812.36" cy="815" r="10.7"/><path class="cls-40" d="M910.39,878.34s1.08-4.3-1.38-6.29-6.3-1.69-6.61-2.16,2.46-6.76.77-7.83a29.17,29.17,0,0,0-6.45-2.61c-2.77-.93-5.38-4.46-6.3-7.22s-2.61-3.54-4.15-3.54-6.45-2.46-5.22-5.38,4.3-2.76,5.53-2.76,6.91-3.54,6.3-11.37.3-10.14-6.3-12.6-6.69-12.14-5.73-13.37,3.58-6,6.19-6.45,14.9-2.15,14-10.14-7.07-8-7.07-8-14.9.77-16.29.77-4.3-2.46-4.3-2.46,7.84-6,7.84-11.52,2-12-2.15-12S868.14,751,868.14,751s-.46-4.14,1.84-5.07,10.14-7.22,10.6-8.91,1.08-8.75,2.16-9.83,6.45.31,10.6-.46,12-8.76,15-8.76a46.36,46.36,0,0,1,14.91,2.92c5.53,2.15,11.67,8.3,14.59,8.3S949.57,731,953.1,731s11.68-1.69,12.91-.15,6.61,8,9.37,8.14,6,3.38,12.75,3.38,8.15,3.23,13.06,1.08,17.06-9.38,17.06-9.38,5.38-2.61,9.06-2.61a21.27,21.27,0,0,0,10.6-2.61c3.23-1.84,10.15-4.76,11.68-5.38s4.15,1.08,8.76,1.08,8,1.07,8-3.38,2.61-11.83,5.53-12a15.15,15.15,0,0,0,5.84-1.84"/></g></svg>