<svg id="_2008" data-name="2008" xmlns="http://www.w3.org/2000/svg" viewBox="0 200 1200 1600"><defs><style>.cls-1{font-size:108.64px;}.cls-1,.cls-8{fill:#333;}.cls-1,.cls-16,.cls-25,.cls-30,.cls-8{font-family:OpenSans-Light, Open Sans;}.cls-2{letter-spacing:-0.04em;}.cls-3{font-size:35px;font-family:OpenSans-Bold, Open Sans;}.cls-14,.cls-15,.cls-20,.cls-22,.cls-3,.cls-31,.cls-33,.cls-39,.cls-40{font-weight:700;}.cls-4{letter-spacing:0.02em;}.cls-5{letter-spacing:-0.04em;}.cls-6{letter-spacing:-0.02em;}.cls-7{letter-spacing:0.02em;}.cls-8{font-size:39.74px;letter-spacing:-0.04em;}.cls-12,.cls-21,.cls-42,.cls-9{fill:none;}.cls-9{stroke:#333;stroke-width:0.67px;}.cls-21,.cls-9{stroke-miterlimit:10;}.cls-10,.cls-13{fill:#ccc;}.cls-11{fill:#7bd9bf;}.cls-12,.cls-13,.cls-42{stroke:#fff;}.cls-12,.cls-13{stroke-width:0.98px;stroke-dasharray:3.63 3.63;}.cls-14,.cls-15,.cls-22,.cls-31{font-size:26.21px;font-family:OpenSans-ExtraBold, Open Sans;}.cls-14,.cls-22,.cls-31,.cls-37{fill:#f90;}.cls-14,.cls-15{letter-spacing:-0.04em;}.cls-15,.cls-38{fill:#999;}.cls-16,.cls-25,.cls-30{font-size:66.47px;fill:#525252;}.cls-16{letter-spacing:-0.14em;}.cls-17{letter-spacing:-0.02em;}.cls-18{letter-spacing:-0.14em;}.cls-19{font-size:30.8px;letter-spacing:-0.04em;}.cls-20,.cls-33{font-size:48.08px;fill:#666;}.cls-20,.cls-33,.cls-39,.cls-40{font-family:OpenSans-SemiBold, Open Sans;}.cls-20,.cls-34{letter-spacing:-0.04em;}.cls-21{stroke:#525252;stroke-width:0.88px;}.cls-22{letter-spacing:-0.04em;}.cls-23,.cls-30{letter-spacing:-0.04em;}.cls-24{letter-spacing:-0.14em;}.cls-25{letter-spacing:-0.16em;}.cls-26{letter-spacing:-0.08em;}.cls-27{letter-spacing:-0.1em;}.cls-28{letter-spacing:-0.06em;}.cls-29{letter-spacing:-0.04em;}.cls-31{letter-spacing:-0.06em;}.cls-32{letter-spacing:-0.18em;}.cls-33{letter-spacing:-0.14em;}.cls-35{letter-spacing:-0.1em;}.cls-36{letter-spacing:-0.08em;}.cls-39,.cls-40{font-size:19.75px;fill:#fff;}.cls-39,.cls-41{letter-spacing:-0.02em;}.cls-40{letter-spacing:-0.02em;}.cls-42{stroke-linecap:round;stroke-linejoin:round;stroke-width:3.19px;stroke-dasharray:3.19 8.5;}</style></defs><title>GEOGRAPHICAL MAPS5_FINAL</title><text class="cls-1" transform="translate(40.15 386.42)"><tspan class="cls-2">272</tspan><tspan class="cls-3"><tspan x="0" y="42">CONTESTABLE SEATS</tspan><tspan class="cls-4" x="273.44" y="42"></tspan><tspan class="cls-5" x="293.74" y="42"></tspan><tspan class="cls-6" x="316.49" y="42"></tspan><tspan class="cls-7" x="336.06" y="42"></tspan></tspan></text><text class="cls-8" transform="translate(40.15 497.99)">+ 60 reserved for women<tspan x="0" y="45.71">+ 10 reserved for minorities</tspan></text><line class="cls-9" x1="37.6" y1="452.12" x2="486.06" y2="452.12"/><path id="path1351" class="cls-10" d="M839.74,848l-2.44,2-2.92,1-1.47,1-1,1-1,2-.5,2.92L827,861.69h-2.42l-1.47,1.47-2.3,1,.83,1,1.47,1.47.47,1,2,2,2.45,1,2,1.47,1,1v1.47l-.5.48H828l-1,2v3.89l-1.95,1.95-1,1.47-1,1.47-1.47,2-1.95-1-2.45-1.94-1.94-1.47-4.4-2.95-2.94-.47-2,.47h-1l-1,1-2,1.45-1.95,1.47-1-1-1.47-2.45v-2.92l-2-2.94v-2.45h3.42l1.95-.48,2-.49.86-1.28-1.34.3-1.47-.47-1-1.47v-1.95l-2.45-.5v-1l1-3,.49-1.94-1.94-.48-2.45-2v-1.45l-2-1.47h-1l-1,2.44-1,1.45-1.47,2L787,862.16l-.5-1-2.92-1-1.47-1,1-.5,1-1,1-1,.5-1v-.49l-2.45-1h-2.92l-1.47-.47-.5-2-1-1-1.47-.47h-3.9l-.5,1.94-1,1.48-1.47.47-3.42.5-1.45,1-2.45,1v1.47l.48,1v2l.5,1.47v1.47l-.5,2v1.47l-1,1.45h-2.93l-3.41-.47-4.4,1L748.9,871l-2.44,1.45v2l-.48,2-.5,1v1.47L744,882.2l-1,1-1,2.44,2,2.45-1,1-1.45,2-.5,1.47-2,1v2l-3.91,1.47-2.93,1.95-2.44,1-1.47.5.49,2.45,1,1v1.95h-1l-1.47,1.47,2,1v1l1.47,1,1,1,1,1.48,1.47,1.94-2.44,3-1.48,1-.47,1.95-.5,1.47h-3.89l-1-2v-.5l-2-1.47-1.45-2.92v-2.44l-.49-1.48h-3.92l-1.45,1-2.45-1-.49-1h-4.4l.5,2,1,1v1.45l.48,1,.5,1v2.92l-.5,1v1.47l1,1,1.45.5v1.95l.49,1.47h-3.91l-2,1.45v1h-2.45L703,928.6l-2.92,1h-2.44l-1.48,1-2.42,2v2l-1.47,1.95.47,2.44v3.92l-1.44,2.42.47,1.48.5,1.47,1,1v3.42l.5,2,1,2.44,1.45,2h2.45l1.47-.48h1l1,2v2.45l-2.45,1.47v1l1,1,1-1,2-.49,1-.48,1-1h2l1,1.45.48,1.47-.48,1.47v2.44l-.5,1.45-.47,1V976l-2.45.49h-2.44l-2.45,1.48-1,2.44v1.45l-2.45,2.45-.5,1.94.5,1,1,2.44-2.45,1.47-1.95,1-1.47.5V998l-.47,1-1.48,1.47-1,.47v3.42l1,1.47v3l-1.94,1.94v3.42l-2,1-1,1.47-1,1.45-1.47,4.41-2.92,2.92-1.48,1-.47,1.47-.5,2,.5,2-.5,2.44-.47,1v3l1,1,1,1.47v.48l-1,1.47-1.47,1,.5,1.48,1.44,1.47v1.45h-3.89l-.5,1.47.5,1,1,1.47-.49,1.48-.48,1-2,1-1.45.48-2-1h-2.42l-2.45,1h-1.47l-3.42-1h-2.92l-3.92,2-2.92,2-2.94,4.39-1,2.45-2.45,1h-3.42l-1.45,2v1.47l.48,2-.48,2-1,2.42-.83,1.37.35,3v9.76l1.95.47.5.5-1,1.47v1l-1.47.47h-3.42v1l1,1v1.95h-1.47l-1.45,1-.49.5v1l-1,1.48-1.47-.5-1.47.5v1.45l-1,1.47v1l.49,1.47.48,1v1.47l-1.45,3.42-2.94,3.89-.48,2-1.47,2.92-1,3.92v2.42l-1,3-.5,1.94-1,.5,1,1h2l-.48,2v1h1.95l1-1,1-.47h2l.48,1-1,1.95-2,2.44-1.47,2.92-1,1.48-.5,2.92v2.44l-.48,3.42-3.41,4.89-1,2.92-1,1.48-.5,3.91-1,2-2.45,1-.5,1.47-1.45,1-1,1v1.47l-3.42,2-3.42.5-1.47,1.45h-1.47l-1.47,2,1,1.45V1186l-.49,2.45v2.44l-1,1.95v1.47l-1,1v2l.47.48H599l1.47,1.47,1.45,1.47.5,1.47-1,1-1,.47.48,2.45,1,2.44,1,.5h1.47v-1l2.44-.48v3.42l-1,3.42v3.89l-.5,1-1,2.42v1l-1,.47-2.92,2-1,3.42L596,1232.4l-2.92,1.94-1.48,1.48-.47,2.92v3.91l1.45,2.45-1,2-1.45,1.94-.49,2.45-.5,1-1.95,3.92-.47,2-2,1.47-2.92,1.47-2,1-1,1,1.47,1.47,1,2.44.58,2h2.84l2-1,2.92-1h1.47l1.45-.49,3.42.49,2,1.45,1.45,1,4.89,1,3.91,2,2.93,2.92v5.39l1.94,3.9.5,3.91,1.47,4.4,2.45,4.89,2.42,4.39,3.42,3.89,3.92,2.95,3.42,1.45,4.39,1.47,3.33,2.55.09-.11,3.91-2.94,4.87-5.84,3-1.47,2.92-.5,2.94-1h1l3.42,1,2.92,2,3,2.92,1.45,1,1,1v1l.5,1v4.87l1.47,2.44,2.45,3.42,1.94,2,1.48,1,1,1h8.29l3.91-1.48,8.79-5.36,7.81-3.42,6.84-1.47,6.84-1,6.36.48,6.84-.48,15.62-6.36,2.45-1.95,1-1.94,1-5.37v-3.92l1.48-2.92,2.92-3.91,3.42-2.93,5.38-5.38,3.9-3.9,2-2.94,2-10.26,1.94-9.76.5-2,5.37-6.36,3.89-1.45,3.42-.5,1.47-2.44,4.4-2.45,25.4-14.65,1-5.36,1-3,2.44-2.92,3.42-2.92L830,1205l9.58-20.71,7.25-29,.69-1.37,13.48-6.23,10.37-3.44,2.4-1,2.43-2.42,5.86-5.52.69-2.08-1-4.82-1-2.43L879,1123.9l-2.43-1-1.38-.35-.7-.35,1-1.38.35-.69v-1l1.38-.69.35-1,.69.34h1l1.37-.69,1-1,.7-1.38,1-1,.69-1.73,1.38-1,1.39-1v-2.07l.34-2.43v-1l1.39-1.38.67-2.06,1-.69,1-.35,1.73-1,.69-1,1.39-1.39v-1.73h1v-.67l1.37-1.39.34-1,1-1.39,1-.69v-1l-.35-1.39v-.69l1.74-.69,1.38-.67v-3.81l1.73-1.38,1-.35.67.35,1.39.34.69.35.69-.69.35-1.39,1-1.71.69-.69h3.46l1.36-1,1.74-.69.69-3.47v-1.38l2.08-1h2.42l1.36-2.4,1.39-1.73-.35-1-2.05-.69-1-.35-1.39.35-1,.69-2.07-1-1.74-.69v-4.48l.7-1,.34-1.73-.34-2.08-.35-1,.35-2.75,1.38-1.38v-2.77l.69-1,.35-1.36,1.39-2.08.69-2.08.34-1.73-.69-1.38-.34-1.37-1-1.38L918,1031l.69-2.08-1-2.08v-2l-1.74-1v-1.39l-.69-1-.34-.69-.67-1.38-1-.35-.7-1.39v-1l.35-1,.69-.69.7-1V1013l-.35-.7v-.69l.69-1.38,2.06-2.43,4.5-3.44,2.4-3.46,1-.69h.35l.69.34H928l1.73-.34.69-1v-3.81l1-1h3.44l.7-.34v-.7H937l2.08-.34,2.05-.7,1-1.38,1.39-.33v-1l.69-1.39,1.39-.35h1.73l1.38,1,.67.7h1l.35-1,.69-.7h.69l1.39.35.69-.35v-2.07l.69-.69,1.73-.7,1.71-1,3-.52,2-.47.47-3.42,1-1.95,1.47-2V971.1l-2.45-2-3.41-2.43-1.95-1-2.92-.48-2.45-1.47-4.39-.47-2-2.95-2.92-1.47-1.95-.48-2.94,2.93-2.92,1-1.48-1.95-2.92-1.47-2.94,1.47-2.44,1h-2.45l-2.42-1.45-2-3-.48-2.92v-.5l2-3.41.5-2-2-2.45v-2.92l-.48-2,1-2.44,1.48-2.92-1-1-2,2.45-1,1L914,939.35H909.1l-2-2-2.44-.47-2,1.45-2.45.49-1.47-1-1.36-2.29-.58-.15-3.92-1-2.92-2L887.14,931l-3.92-1.47-2-1.47-2.94-.48-2.45-2.44h-1l-1.45-1.95-2-1-1-2H869l-2.92,1.47-1.47.5-1,.47h-1l-1.47-.47-1-1.47-1-1.48-1-.47-1.47-1-1.47-.47-1.45-.5-1.47-.48-1-1L852,914l1-.5.48-1-.48-2.93-1-1.47-1.47-1-1-1-.5-2V898.8l-1-1.47-1.47-1-1-1,1-1.47,2-1,1.45-1,.5-1.47v-1l-1-.48-1-1,.48-.5,1.47-2v-2l-1-1.95-.5-1.47-.48-1-1-1-1.45-.48-.5-1.47,1-2.45,1-1.95v-1l-1-2v-2l-1.45-1.94v-1.48l.48-.47,1-1,.5-1.45v-2l-1-2.42-1-2-2-2-1-1.94-1-2v-.07l-.5.07Z"/><path id="path1331" class="cls-10" d="M638.43,1314.56,635.1,1312l-4.39-1.47-3.42-1.45-3.92-2.95-3.42-3.89-2.42-4.39-2.45-4.89-1.47-4.4-.5-3.91-1.94-3.9v-5.39l-2.93-2.92-3.91-2-4.89-1-1.45-1-2-1.45-3.42-.49-1.45.49h-1.47l-2.92,1-2,1h-3.9l-6.84,1H562.32l-7.81.49-11.73-.49-7.81.49-6.34.48-4.39.5-3.92,1.45-2,3.42-1,2-1.47,1.45-3.42,1.47-4.39,2.94-3.92,3.42-3.89,2-2.95,2.92-3.42,1-2.44,2.94-2.45,1.95-1.45,1v2l-1,1.94-1,1-3.89,1.47-3.42,1-3.92,2.45-5.86,2.42-3.42,1.47-3.9.5h-8.31L451,1314l-2,1.47v4.39l-1,2.45-.47,1.47-1.47,2.44-2.45,1.45-2.92,2v1l-1,1.94-.5,2.92-1,1.48-1.94,1.47-.5,1.94-.48,2.45-1,3.42v5.86l-1.45,1-1.47,2.44V1357l.49,5.37v5.87l.48,2.44v7.31l.5,2,.47,1,.5.47v1h-1l.47,1.47-1.45,2-.49.49v3.42l1,3.42.5,1.47v2l.47,1.47-1,1-.48,1v6.34l1,1.47v4.89l.47,1.45v1l1.48,2.44,1.47,1v2.44l1.94,1,1,2,.5,1.45,2.44,3.92.48,2.92,1.94,3.42,2.45,3.92,2,2.92,2,2.94,1,3.42v3.9l-1,2.94-.5,1.47v9.26l.5,1v3.42l-2,1.94-1,2-1.45,3.42-.49,1.47V1483h-1.95l-1.95,1-1.47,1.47-1.47,1.94v4.4l-2.92,1-2,1.47-.48,2-1,2-1,1.45-1,.5-.48,1.47,1,2.92-.5,2.45-1,2.44-.47,1.45v1l-1,1.45-2.94.49-.47,1-2.45,2.44-1,1.95v2l-.5,2.94-2.92,3.42-1,1-2.94,1-2.44.5H409L406,1531.8l-2.42,2.45-1.47,1.45-1,1-.5,1.45-.47,1h-3.59l-.83.49v2l-1.45,1.47h2.45l2.92.5,1-1h3.92l1.95,1,1-1h4.4l.49,1,2.92,1.45,1,.5h1.47v-.5l1-1,1,.5.5,1.44,3.41,2,1.95,1v-2.45l2,.5,2,.48h1l.48,1,.5,1h1l2.94-.47h1l1,1.47v1l-2,1-1,1-2,1-.48,2-2.44,1v1l.47,2h1.48l2.44.5h1l1.94,1-1.94,1h-2.93v1l.48,1.47v1h2l1,1.47v.48l-1.47,1,.48,1,.5,1.47,1.47,1.47,1.45,1h1v1h-1l.49,2.44v2.45h3.92l.48,1-1,.5-1.94,1h-1l-.5.48,1,1.47-1,1.47V1587l1.48,1,.47,1-1.45,1.45v1l.48,1,1,1.45,1,1.47.49,2v2l.5,1,.48.48,1,1.47,1.47,1.95v1.47l1.95.5,1,.47,1.48,1,1,1,1.47.48,1,.5,1,1v.48l-.48,2,1.45.47-.47,1.47-1.48.5-1-.5.5.5,1,.48,1,1,3.41,1h1l1.47,1,1.45.48v1.94l1,.5,2.42,1,2,.49h2.44l.48-1.47-.48-1-.49-.5-.5-1h2l1.94,1.47,1.95,1,2.45-1v-1.47l1-2h.5l.48,1,1.47-.49,1,.49v1l2,1,1,1.47,1.45,1,.5-1,1.47.48,1,2.44,1.47,1h.47v-4.4l.5-2.42-1-3.42-.5-1.47-.5-1.47,1,1,1,.5,1,.48v1l-.5,1v1.94l2,.5.47,2,.5,1.45-1,1-.5.48v1.47l-.5,1-1,1,.5,1.47.47,1.47,1.47-.5v-1l1-.5,1.47.5.5,1.47,1.45,1,2,.47.47-2.44,1-2.92.5-4.9v-2.42l1.47-1.47,1.95-1.47,3.9-2H511l1-1.47h1.47l.5-2,1.45-.5,24.91-.47,1-23-.47-3,1.94-.47h1.48l1.47.47v1l1.45,1.45.49,2,.48,1.45,1,.5v-2.45l1.45-2h1l.5-1v-1h1.47l1,.5,1,2v2.45h3.42l.49-1,3.42-1.47,1.45-.48h1l2.44,1.45,2,.5,1.45,1,2-1,2.42-.5,2-1,1.95-.48h2.45l2.92.48h3.42l4.39.5H596l3.42.47,2,1.48,2.92,2.44,2.94,2.45,2.42,1.47h15.65l5.37-1.47,1.94-.5v-1.45l1-2,1-2.45,2-1.94,1.95-.48,2.44-1,1.47-.47,2-.5h1l1-1,2.94-1.47,2-.48h1.95l1.47.48.48-1.45,2.44-2H659l2.92-.48,4.42-1,1,.47,1,1.47-1.48,1.48v3.41l-.47,1.45,2,2.45,1.94,1.47,1.47.5,2.93,1h3.41l4.4-1,4.89-2h1.47v-1.45h-1l-.5-1v-1.45l3.42-1.47,1.94-1.94h2l.48.47h2l1,1,1,.49v-2.92l1.47-1h2l1-1.45v-.5l1.47-1-2.44-1-2-1h-3.42l-1-2,1-1.45V1566l-2-1,.5-2-.5-1-1-1.95,1.94-2,2-1,3.9-2v-.48l-.48-1.47-2.44-2.44v-2.45l-2.45-4.39-3.92-5.37-1.44-4.89-2.45-3.89v-6.37l-2.45-3.42-.49-2.44-3.42-2.92-2.43-2-2.44-2.45v-3.41l-2-1.48-1-2.44-1.95-2.45v-18.07l-.5-2.92-2-2.44h-1l-2.92,2h-1l-3.42,1.47-3.42-.5-3.41,1-2.43.48-3.42-1-2.94-.5-2.45-2.42-1-3.92-.48-2.45-2.94-2.44-2.44-2-1.95-3.92-2.92-2.92-.5-3.42,1-1.94v-4.89l1.47-2.93,2-3.42,1.47-3.91v-2l-1-2.45v-2.44l1-1,.5-2,.48-2-1-2v-2.44l-.49-.48,1-2v-4.87l-2.44-2.44-4.89-1.47H617.53l-4.42-.5-3.42-1-1.94-2.44-1.48-1.45-2.92-2-2.44-1-3.42-1.45-2.45-.5-2.44-1.47-1.45-2.92-.5-1v-2l1-2v-2.92l.5-4.89.48-4.39,2-3.42.47-3.42.5-3.42,1-1.94,2.92-2,3.42-3.9,1.47-2,2.94-2,2.42-1,4.42-4.89,3.89-4.39,2-3.9,1-1.47,3.42-3.42,2.92-3.42,1-2.44.5-3.9,2-3.92,1.47-5.36,1.45-2,1-1,2.43-1Z"/><path id="path1336" class="cls-10" d="M582,1269l-.58-2-1-2.44-1.47-1.47,1-1,2-1,2.92-1.47,2-1.47.47-2,1.95-3.92.5-1,.49-2.45,1.45-1.94,1-2-1.45-2.45v-3.91l.47-2.92,1.48-1.48,2.92-1.94,3.42-3.92,1-3.42,2.92-2,1-.47v-1l1-2.42.5-1v-3.89l1-3.42v-3.42l-2.44.48v1h-1.47l-1-.5-1-2.44-.48-2.45,1-.47,1-1-.5-1.47-1.45-1.47-1.47-1.47H595l-.47-.48v-2l1-1v-1.47l1-1.95v-2.44L597,1186v-2.94l-1-1.45,1.47-2H599l1.47-1.45,3.42-.5,3.42-2v-1.47l1-1,1.45-1,.5-1.47,2.45-1,1-2,.5-3.91,1-1.48,1-2.92,3.41-4.89.48-3.42v-2.44l.5-2.92,1-1.48,1.47-2.92,2-2.44,1-1.95-.48-1h-2l-1,.47-1,1h-1.95v-1l.48-2h-2l-1-1,1-.5.5-1.94,1-3v-2.42l1-3.92,1.47-2.92.48-2,2.94-3.89,1.45-3.42v-1.47l-.48-1-.49-1.47v-1l1-1.47V1102l1.47-.5,1.47.5,1-1.48v-1l.49-.5,1.45-1h1.47v-1.95l-1-1v-1h3.42l1.47-.47v-1l1-1.47-.5-.5-1.95-.47v-9.76l-.5-4.42v-2.92l-.47-2.92v-24.93l-.5-1h-1l-2.44,2-2.45,1.45-2.44,1h-1.45v1.47l-1.47,3v1.44l-.5,1-1-2.42-1-2.45-1-3.42v-3.42l-1.47-2-2-1-1.95-1-.5-1.47-.47-18.54,1.45-2,.5-3.9-1-1.47-1,.5v1.45l-1,1.47-1.45,1-.49-1.45h-1v-1.48l-1.47-1.47.5-2,1-1,1.47-.5.48-.47-1.95-1.47v-.5l-1.47-1-1.45-2.44,1.45-1.45,1-2.45h-1l-2.45.48h-2.42l-3.42,1-1.47,1-.5,2-1.94,2.92-1.48,1-1.94,1h-3.92l-2.42,1h-1.48l-4.39.48-2.44-.44v.44l-2.45,1-1.47,2.45-1.95,1-1.47,1V1019l-2.45.48-1,1.95-1,2.44-2.45,2-1.45,1-1,1.45-1.45,1.47-3,1.47H556l-2.94.48-3.42,2-2.92,1.45h-2l-1.45-3.41-.5-1.45-1.94-1-2-2.94v-2.45l-2-1.94-2.92-.5-2-.48v-1l-2-1.47-2-1-2.92,2-3.42.5v.47l2,1,1.47.5h1l2.44.49,1,1.45-1,1.47h-2l-2.92-1-2.44-.5-2.93-1-2-.48h-4.87l-1.48-1.47-1.94-1-1-2H504.2l-1.47,1-1,1.95-1.94,2.45-2.45,1.45-.47,1.47.47,1v1.47h-2.92l-1,1-1.47,2-2.45,1h-5.37l-2.94,2.92-1,2-2.92,2-3,1h-2.92l-2.94-1h-3.42l-.48.47,1.47,1.48.48,1.47,1,1-.47,2.45v1l1.45,1,2,1h4.39l2.92-.5,1.47,1.47.5,2.45-1.47,1.94H474.9l-1.95,2L469,1059.5h-3.42l-1.95,1-2.94,1-4.87,1-4.89.49-3,.5H445.6l-2.45-1-2-.48-3.42-1h-5.85l-2-1v-2l1-1.45-1.45-1-2.45-.48-4.39,1-4.89,1.94-1.95,3-1.95,1.45-2,.49-2.93.5-1.47,2.43v2.94l-1,3.89-2.45,1.48-1.94,2.44-1.48,2-3.41,2.44-4.9,1-4.86,1-3.42,9.28-4.4,17.6v1.45l1.95,3.42,1.95,2v1.94l.5,2.45-1,2.44-1,2-.48,11.23-1.47,1.47-1.47,1.95-1,2.94-1,2.93-.48,2.92,2.43,2.44,4.89,4.89-.48,3.42-6.36,5.37-80.09,21-2.94-.5-10.26-2.44-8.78-1h-7.82l-8.3.5-4.4,1h-2.44l-5.37,1.94-4.39,1-2.45,2.44-2.44,2.95-1.95,2.92h-2.45l-4.39-2.45-7.33-2.44-8.31-2.43-13.18-2.94-71.31,3.92-3.41-.5L22.13,1147.42v1l26.38,36.14h2l1,1V1187l-.49,2.93-1,1.47v1.47l2,2.92,1.45,1,.5,1.48.48,1.94v2l1,1,1.45,1,1,1v1.48l1,1h1l.48,1.47-1.45,2-.5,1.47,2.45,1.95.47,1.47,2.45,7.81,4.39,7.31,3.42,4.4,2.94,3.42,4.4,5.86,4.89,4.89,3.42,2.45h2.44l1.95,1.94,3.42,1,4.89,1.47,2.92.5,5.37,2.92,5.86,1,3.42,2.45,2.45,2.44,1.94,1,1,2.92,2.94,3.92,2.92,2.92,3.92-1,7.81-.47,1,1.94v3.92l-.49,2.92-.48,3.42-1.47,3.42v5.86l.5,4.9,1.45,6.34,1.47,4.39v4.89l-.48,4.39V1334l-.5,2.45-2.44,5.37-2,1.47v.47l1,2,.5,1.47-1,1.47-1.95,1,1,1,1.47,1,2,1h2l2.92,1,1.95.47h3.42l3.42-1,3.91-1h4.4l1.47-.49h2l1.47.49,1.45,2h1l3.42,2.94.48,2.93v2.44h-1.47l-1.45,1.47-2,2.92v9.76l.5,1,1.47,1.45-1,2-2.44,1-2,1.45v2l-1.45,5.37-1,6.84-1,1.47-3.9-.5H156L153,1398l-2.44-1H139.83l-3.89-.48H133l-1.45,1.47-2,1h-1.45l-2.44,1-1.47.48-1.95,1-2-.5h-2.42l-3,.5H113l-2.92.48-.5,1.47h-2.92l-1.48,1h-1.94l-1.47,2v2.45l-2,2.44-1,1v1l.5,1.47v1l-1,1-2-.48-4.42-2H89.54l-.5,1.47-.49,1.48-1,1.45-3.42,1-3.42,1.45L70,1423.86l-2,2.45-2,8.78-1.94,10.26-1.48,7.32v2.94H59.25l-2.93.48-.49,2v3.42l.49,2,1,1v1.47l-1.47,1.47-1.95,1v1.45l.48,1.47-1,1v2l-1,3.42-.48,8.28-1,6.37L48,1497.61l-1,2,1,1h3.92l2.43.5,1,.5,1.95,1,1.47-.5h1.45v1l-1,2-2,2-1.47,2.44-.48,2,.48,1.47,1,1,3.42-.49,2.94.49,1.45-1v-1.47l2-2,2.45-1,1-.5h2.92l5.37,1.47,3.42,1,.5-1-.5-.5-1.45-1.47-.5-1.95.5-1.94,2.92-1,1.95-.5,4.41-.47,4.87,2,1.47,1.94.5,1.48-2,1.94-1,1-.48.49,2.42,1,3.42.5h2.45v-1l-2.45-1-1-1.45v-1l2.44-2.92,4.89-1,2.45-.5,1-1h-1l.48-.47,2.44-.5h5.87l11.72.5,10.26,2,5.37,1.47h3.42l3.42-2,2.44-.48,5.37,1,3.42,1.94,5.36.5,4.4.48,3.91,2h2.45l2.44-.5.48-1-1.45-2-1.47-1.47-1-1.48.47-.47,1.47-2,2.92-2.45,5.87-1.94,6.84-.48,3.91,1h1.48l2.42,1.45,3.92,1.48,1.47.49h3.42l3.42.48,1.44-.48,2.95-.49v-3.42l-2-1.47-1.95.49-1-.49-2-.48v-1h1l2-1,1.47-.5h1l1,.5h1.47l3.42-.5,1,.5,1,1-1.95.47h-2.44l-1.48,1v1l.5,1.45,1,1,.49,1-1,1v1.45h1l2.92.5,2.93.5h2.94l1,.47,2.45,1.48,2.92.47h1l1,1.47,2,1,1.94,1h3.92l1.45-1,.5-1h1.95l1,.5,2,.48,2,2.44v1.47l-1,2,.48,1,.5.49h4.39l1.95-1.47.49-1H260l-.5-.5-1-1,.49-2.92,1-1,1.94-1.47,1.48-1.47,3.41-.48h5.87l4.39-.5h2l1.47,1,2.92,1.47,3.42-.5,1.95.5,1,.5,1.95,1h2.45l.47-1,1-2v-2l2.44-2h2l1.95,1,1-.5,2.45-.48,1.47-.49,2.42.49v2h2l3.42-2,2.45.48,1.45.5,1,.47L323,1502l3.42.5,2,1,1.95-1,1.47-2,4.39-1.45,1.95-.49,2.92-1h6.36l3.9-.5,2.94-.47,1.95-1,3.42.48,1.47.5,3.42-.5,1.94-1.45h2.45l3.92.48,4.86,1,5.87,2.94,1,1,1.47-.5-1-2-1.47-1-1-.5,1.47-2v-.49l-2.95-1-1.94-.47-.5-1.48-1.95-1-1.47-1.47h-3.9l-2.94,2-3.89,2.44-4.4.5-2.44-.5v-1h2.44l1.45-2.45,1.47-2.92,1.95-1.47,2.45-.48,2.94-.49,1,.49h4.4l.49-.49,1-.5.47.5v1.47l3.42.47,1,.5.5,1,1.94,1.48,1,1.94H388l1,.5.49,2v1l.5,2,.48,1,1.94,2-.47,2h-2.45l-1.47.5,1.47,1.45.5,1,1,1.47,3.41,1.95,1.45,2.45,4.42,2.44.47,1.47,1,2.92v2.45l-2.45,2v1.47l-.47,2v6.36l-1.47,3.89-1,1,1,1.47,1,1-1.62,1h3.59l.47-1,.5-1.45,1-1,1.47-1.45,2.42-2.45,2.94-1.94h2.93l2.44-.5,2.94-1,1-1,2.92-3.42.5-2.94v-2l1-1.95,2.45-2.44.47-1,2.94-.49,1-1.45v-1l.47-1.45,1-2.44.5-2.45-1-2.92.48-1.47,1-.5,1-1.45,1-2,.48-2,2-1.47,2.92-1v-4.4l1.47-1.94,1.47-1.47,1.95-1h1.95v-3.42l.49-1.47,1.45-3.42,1-2,2-1.94v-3.42l-.5-1v-9.26l.5-1.47,1-2.94v-3.9l-1-3.42-2-2.94-2-2.92-2.45-3.92-1.94-3.42-.48-2.92-2.44-3.92-.5-1.45-1-2-1.94-1v-2.44l-1.47-1-1.48-2.44v-1l-.47-1.45v-4.89l-1-1.47v-6.34l.48-1,1-1-.47-1.47v-2l-.5-1.47-1-3.42v-3.42l.49-.49,1.45-2-.47-1.47h1v-1l-.5-.47-.47-1-.5-2v-7.31l-.48-2.44v-5.87l-.49-5.37v-1.47l1.47-2.44,1.45-1v-5.86l1-3.42.48-2.45.5-1.94,1.94-1.47,1-1.48.5-2.92,1-1.94v-1l2.92-2,2.45-1.45,1.47-2.44.47-1.47,1-2.45v-4.39l2-1.47,1.94-.48h8.31l3.9-.5,3.42-1.47,5.86-2.42,3.92-2.45,3.42-1,3.89-1.47,1-1,1-1.94v-2l1.45-1,2.45-1.95,2.44-2.94,3.42-1,2.95-2.92,3.89-2,3.92-3.42,4.39-2.94,3.42-1.47,1.47-1.45,1-2,2-3.42,3.92-1.45,4.39-.5,6.34-.48,7.81-.49,11.73.49,7.81-.49h11.73l6.84-1Z"/><path id="path1361" class="cls-10" d="M804,870.17l-.86,1.28-2,.49-1.95.48h-3.42v2.45l2,2.94v2.92l1.47,2.45,1,1,1.95-1.47,2-1.45,1-1h1l2-.47,2.94.47,4.4,2.95,1.94,1.47,2.45,1.94,1.95,1,1.47-2,1-1.47,1-1.47,1.95-1.95v-3.89l1-2h2.42l.5-.48v-1.47l-1-1-2-1.47-2.45-1-2-2-.47-1-1.47-1.47-.83-1-1.12.48h-3.42l-2.94,1v1.47L810,868.53l-2.92,1Z"/><path id="path1366" class="cls-11" d="M647.39,1061.31l-2.53-.84-.48-3.42-2-6.84L641,1042.9l-1.47-8.31-2.44-3.42-1.45-4.89-1-4.89-2-5.37v-4.89l-1-3.89-2.92-3.42-.5-3.42L625.82,997V994l1-5.37,1.47-1,3.92-3.42,4.87-3.42,3.42-1.47,5.86-4.4,1.95-5.36,1.47-2.93,1.47-.49,1.47.49,1.45,1,1,1.45,2,1.47.48-1.47,1-1.45v-2.94l-2.42-1-2-2-3.42-3.91L648.28,956l-3.42-4.89-1.45-1.45v-3.42l.47-4.41,1.48-1,1-1.95,2.94-5.86,1.45-3.9,2.45-3.91.5-1.47h1l.48,1,2.44,1.47H660l2.94-1,3.42-1.47,3.42-2.92,2.42-3.92,2-2,1.45-1.47-2.92-.48-2.92-.49-1.47-.48-3-.5L663,910v-1.45H660l-2-2.44-3.92-1.48v-1.94l1-.5,1-1.47-.5-.48-1.94-1h-2.95l.5-2.45,1.47-.5h4.87l1.47-1.94,2-1.95,2.44-.5,3-1v-5.37l2-.5h2.44l2,.5,2.92.48,3.92.49,2.44-1,2-1,2.94.47,1.45-1.47.5-2.42.48-1.47,1.47-.5-.48-1.45-.5-1.47v-1.47l-.49-2.45,2.44-.48,1,.48,2.95,1,1,2.42,2.45,1,1.94,1.94,1.48,1h5.36l2-.5,1.47,1,3.92,1h6.84v3.42l-1.47,1.94,1,1.48,3.92,1,1.94-1,2.45-2.45,3.42-2.94,2-1.95v-2l-2-1v-2.45l2.44-1,1.45-2.45L735.72,869l-3.91-1-1.48-1-1.94.5-.48,2-2,1.47L723,872.92h-6.84l-2.44-1V869.5l1.94-2-1.45-2.44-2-1-2.93-2-.49-1.45V856.8l-2.92-3.42-1-4.89,1-3.42,3.41-4.39,3.42-6.84,2.92-4.4,1.48-1.47,1-2.42,2.45-1,2.92-4.39,1-2.92-.5-1.47-1-1.95-1.95-2,.48-1,1-1.45,1-.5v-1l-1.45-1,1.45-1.47,1.47-1,2.44-1.47,1-2-.48-2.45-.5-2.92,2-1.47-.48-1-1-1.48h-1l-3.42-.47-2.92-.5-2.45-2.44-2-4.4-1.47-2.92-1.15-2.9-.8,2.4-2.94,1.48L705.93,784l-3.42,1L701,787.94l-1,2.42v2l-1.47,1.95-2,1-1.95,2-3.41,2.94-2,1-1,1v7.81l-1.45,1.48-2.44-.5-2.45.5v4.89l-.5,1.45,2.45,1.47,1.95,1.47,1.47,2.44,1.95,1.45,2,.5,1,.5v4.39l-1,.48-1,2-.5,1v1l.5,1.48,1.45.47.5,1-1,1,1,2.45-1.47,2h-1l-1.94,1.45v2l1.45,2.92-1.95,1h-2.45l-1.94,1-2,2h-1.47l-1.48-.5h-1.44v2l-.5,1.47h-3.92l-1,.5-2,1-2.92-1h-3l-3.41.48-2.45.49h-2.92l-2.45.48h-2.44l-3.42-.48-1-1.47-3.42.5-2.45-1H638l-2.44-1-2.45-1-2.44-1-3.42-.49h-2.92l-2.45-1h-4.39l-2.95,1-1,.49,1,2v1l-1.94,1.47-1,1,.48,1.47,1.47,1.47,1,1.45.5,1,.48,2,1.47,1.94.5,1.48,1.45,1v2l1,.49,1.47,1,2,.5,3.92,1,1.94-.5,1,2.45v1.47l.5,1.45,1,.5,1.47,1.47-.5,2.42-.47,3.92-1,2.44,1,1,1,1v1.95h2l1.95,2,1,1.45,2.43,2.44.49,2v3.42l-2.44.48-1,1.47-2.92,3.42-2,.47-1.45,1-1,1.45-1,1.47h-1.94l-1.47-.5-1.45.5v1.47l-1.48,2-.49,1h-2.93l-1.94,1.48-2.45,1.47-2.44,1h-1.47l-1.48-1.47-1.94-1.47h-1l-1.95,1-2,2.45-1.45-.48-4.4-.5-3.91,1-1.48,1.47-2.44,2.44-.48,2V932l.48,2.92.5,1.47-.5,2.44-.48.5-1.47,1-1,1.94-1,2-2.44,1.47-1,1,1,1.94,1.47,1,1,1,.48,1.45v1.47l.5,2-1.47,2.94-2.92,3.42-1,2.45H578l-1.45,1-2,1-.48,2.92-1,2.94v3.42l1.45,2,1,1.95.5,2v1.45l-.5,2L575,987.2l1,2-1,2.44-.5,2.43v1l.5,2,1,1.95v2.44l1,3.42,1.48,2.45v2.48l2.44.44,4.39-.48h1.48l2.42-1h3.92l1.94-1,1.48-1,1.94-2.92.5-2,1.47-1,3.42-1h2.42l2.45-.48h1l-1,2.45-1.45,1.45,1.45,2.44,1.47,1v.5l1.95,1.47-.48.47-1.47.5-1,1-.5,2,1.47,1.47v1.48h1l.49,1.45,1.45-1,1-1.47v-1.45l1-.5,1,1.47-.5,3.9-1.45,2,.47,18.54.5,1.47,1.95,1,2,1,1.47,2v3.42l1,3.42,1,2.45,1,2.42.5-1v-1.44l1.47-3v-1.47h1.45l2.44-1,2.45-1.45,2.44-2h1l.5,1v24.93l.47,2.92v2.92l.15,1.37.83-1.37,1-2.42.48-2-.48-2v-1.47l1.45-2h3.42l2.45-1,1-2.45Z"/><path id="path1343" class="cls-10" d="M840.72,628.22a5.22,5.22,0,0,1-2.92,1.94c-2,.49-1.95,2-1.95,2l-2.45-.49-1.47-1-1.47-.5h-4.39l-3.42,1-5.37,1H807l-2.93,2h-5.86l-2,1-3.89,1h-9.29l-3.91,1-4.4.5L772.83,639l-1.47,1.95-2.44,1-3.9.5-2.44-.5-2.92,1.47-2.95,1.45-3.42.5-2.44.5.5,1.45,1.94,1.47v1.95H748.4L747,652.15l-2.44,1v3l-1.47.47-1.95,1-1.47,2-2.45,1-1,1.45-3.9,1.47h-4.39l-.5,1.47,1.47,1.45.48,2.45v1.47l-1,1-1.47-.47-1.45-.5-.5-1.47-2.45-2-2.92-.5-2.94.5v2l-.48,2-1,1-2,1,.5,1,.49.5,1,1-.5,1.45h-2.44l-1.45,1L709.34,679l-1,1-2.44,2.94-.5,1-1,1h-2.92l-1.47,2.45-.5,2.44-1.45.48-2.44,1.47-.5,1-.48,1.47-1.47,2-1,.5v1.95l1,.49,1.47,1.45,1.95,2.45,3.42,1,2,1,1.47,1,1,1v2.44l1,1h1.47l1.47,1.48,1.45,2.92v1.47l1.47,1-.47,1.47,1,1.45,1.45,1,1,.5v4.39l-1,1.47-.48,1.47.48,1.45,1.47.5.5,1,1.45.5,1.47,1,1,1.95v1l-.47,1h-1.47l1,1,.5,1.47.47,1.95,1.48,1,1.47,2v1.47l-1.47,2.42-1.48,1-1.45.47-1,1h-1.45l-.5,1-.48,2,2.43,2,1.47,1.94,2,1.48.5,1h1.94V763l-1,2.92-1.95,1.48-2,.47-1.47,1-1.47,3.42.5,1.48,1,1.47-1.95,1.45-.49,1-.18.52,1.15,2.9,1.47,2.92,2,4.4,2.45,2.44,2.92.5,3.42.47h1l1,1.48.48,1-2,1.47.5,2.92.48,2.45-1,2L725,804.54l-1.47,1L722.05,807l1.45,1v1l-1,.5-1,1.45-.48,1,1.95,2,1,1.95.5,1.47-1,2.92-2.92,4.39-2.45,1-1,2.42-1.48,1.47-2.92,4.4-3.42,6.84-3.41,4.39-1,3.42,1,4.89,2.92,3.42v3.91l.49,1.45,2.93,2,2,1,1.45,2.44-1.94,2v2.44l2.44,1H723l2.92-1.95,2-1.47.48-2,1.94-.5,1.48,1,3.91,1,1.45,2.94-1.45,2.45-2.44,1v2.45l2,1v2l-2,1.95-3.42,2.94-2.45,2.45-1.94,1-3.92-1-1-1.48,1.47-1.94v-3.42h-6.84l-3.92-1-1.47-1-2,.5h-5.36l-1.48-1-1.94-1.94-2.45-1-1-2.42-2.95-1-1-.48-2.44.48.49,2.45v1.47l.5,1.47.48,1.45-1.47.5-.48,1.47-.5,2.42-1.45,1.47-2.94-.47-2,1-2.44,1-3.92-.49-2.92-.48-2-.5h-2.44l-2,.5V891l-3,1-2.44.5-2,1.95-1.47,1.94h-4.87l-1.47.5-.5,2.45h2.95l1.94,1,.5.48-1,1.47-1,.5v1.94l3.92,1.48,2,2.44H663V910l2.42,1.47,3,.5,1.47.48,2.92.49,2.92.48-1.45,1.47-2,2-2.42,3.92-3.42,2.92L663,925.18l-2.94,1h-2.45l-2.44-1.47-.48-1h-1l-.5,1.47-2.45,3.91-1.45,3.9-2.94,5.86-1,1.95-1.48,1-.47,4.41v3.42l1.45,1.45,3.42,4.89,2.44,1.95,3.42,3.91,2,2,2.42,1v2.94l-1,1.45-.48,1.47-2-1.47-1-1.45-1.45-1-1.47-.49-1.47.49-1.47,2.93L646.33,975l-5.86,4.4-3.42,1.47-4.87,3.42-3.92,3.42-1.47,1-1,5.37V997l2.44,3.42.5,3.42,2.92,3.42,1,3.89V1016l2,5.37,1,4.89,1.45,4.89,2.44,3.42,1.47,8.31,1.47,7.31,2,6.84.48,3.42,2.53.84,1.88-2.79,2.92-2,3.92-2H659l3.42,1h1.47l2.45-1h2.42l2,1,1.45-.48,2-1,.48-1,.49-1.48-1-1.47-.5-1,.5-1.47h3.89v-1.45l-1.44-1.47-.5-1.48,1.47-1,1-1.47v-.48l-1-1.47-1-1v-3l.47-1,.5-2.44-.5-2,.5-2,.47-1.47,1.48-1,2.92-2.92,1.47-4.41,1-1.45,1-1.47,2-1v-3.42l1.94-1.94v-3l-1-1.47v-3.42l1-.47,1.48-1.47.47-1v-5.36l1.47-.5,1.95-1,2.45-1.47-1-2.44-.5-1,.5-1.94,2.45-2.45v-1.45l1-2.44,2.45-1.48H705l2.45-.49v-3.42l.47-1,.5-1.45v-2.44l.48-1.47-.48-1.47-1-1.45h-2l-1,1-1,.48-2,.49-1,1-1-1v-1l2.45-1.47v-2.45l-1-2h-1l-1.47.48h-2.45l-1.45-2-1-2.44-.5-2v-3.42l-1-1-.5-1.47-.47-1.48,1.44-2.42v-3.92l-.47-2.44,1.47-1.95v-2l2.42-2,1.48-1h2.44l2.92-1,1.47.49h2.45v-1l2-1.45h3.91l-.49-1.47v-1.95l-1.45-.5-1-1v-1.47l.5-1v-2.92l-.5-1-.48-1V913l-1-1-.5-2h4.4l.49,1,2.45,1,1.45-1h3.92l.49,1.48v2.44l1.45,2.92,2,1.47v.5l1,2h3.89l.5-1.47.47-1.95,1.48-1,2.44-3-1.47-1.94-1-1.48-1-1-1.47-1v-1l-2-1,1.47-1.47h1v-1.95l-1-1-.49-2.45,1.47-.5,2.44-1,2.93-1.95,3.91-1.47v-2l2-1,.5-1.47,1.45-2,1-1-2-2.45,1-2.44,1-1,1.47-3.42v-1.47l.5-1,.48-2v-2L748.9,871l1.47-1.47,4.4-1,3.41.47h2.93l1-1.45v-1.47l.5-2v-1.47l-.5-1.47v-2l-.48-1V856.8l2.45-1,1.45-1,3.42-.5,1.47-.47,1-1.48.5-1.94h3.9l1.47.47,1,1,.5,2,1.47.47h2.92l2.45,1v.49l-.5,1-1,1-1,1-1,.5,1.47,1,2.92,1,.5,1,1.45-1.45,1.47-2,1-1.45,1-2.44h1l2,1.47v1.45l2.45,2,1.94.48-.49,1.94-1,3v1l2.45.5v1.95l1,1.47,1.47.47,4.4-1,2.92-1,3.42-1.48v-1.47l2.94-1h3.42l3.42-1.45,1.47-1.47H827l3.42-3.92.5-2.92,1-2,1-1,1.47-1,2.92-1,2.44-2,1,.48.5-.07v-1.88l-1-5.37-.5-3.42-.47-1.47-.5-2.44v-2l-1.47-3.42-1-1.47-.48-1-1.47-1.95v-2l-.5-2v-4.39l.5-4.39.5-2,.47-2.45,1.47-2h2.92l1-1h2l1-.48,1.47,1,1,.49,1.45.48,1-2v-4.89l-.5-1.47v-2l2-1,.5-3.42,1.47-2.92,2.92-2h3.42l3.42-.48,3.42-2,2.92-1.44v-2.45l1.47-1,1-1.48,1-2.44v-2l1-2.44,1-.48,3.43-1.82,1.12-.43-2.34-.65-4.18-1.51,1-1.45h1l1.45-1h2l.47-1-1-1-2-.47-1-1h-2l-2.45-1h-3.41l-.48-1.45-2.45-2h-1l-1.47.5-1.47.49-1.45-1-2-1.45v-.5l-1,1h-1.45l-1,1-.49-.08h0l-1-.9,0-3.12-1.22-2.37,2.92-2.72.73-2.79,1.81-2.54,1.33-1.3,3-.49.35-.81-2.64-3.4v-1l-2.45-1-2.42-1h-2l-3.89-.49-4.4-1h-2.44l-1,.5-2.94-1h-2.92l-3.92-1-6.34-2.94L818.26,724l-3.9-2.44-2.44-2.45-.5-1.95v-2.94l1.47-1.45-.5-2.45-1.45-1.47h-4.89l-1,.5-2.45,1-3.91-.49h-2.45l-2.92-1-2.92.5-2.95,2.45-2.92.47h-2.94l-2.92-1.47-2.94-2.42-1.45-1v-3.42l1.94-1.45v-4.39l-1-1-1-2.92v-8.31l.47-3.42V679.5l2.45-1.47,1,.5,2.45,1.45,2.94-1v-1.45l.48-2.45,2.44-1,2.45-1.48,2.44-.49,1-1.45.47-3,1-1.47v-1.94l2.42-1,1-1,1.94-1.47,1-1,2.44-2,1.47-2.44,1-1,1.45-1.48v-1.94l-1.45-1.95-1-.5v-2.44l1.45-.48,2.45-1,2-1.45,3.91.48h2.45l1.47-.48,2.42-1.47,2.95-1.47h4.39l2.45,1,2.44.49,4.39-1,1,1.47,2.92,1h2l2.44-1h2.43l2.44.48h2l1.95-1.47,1-.48V639l-1-1-.5-1.45-.48-1H850.5l-1-1-.5-1-1-1h-3.91l-2.43-.48v-1l-1-2.92Z"/><path id="path1351-2" data-name="path1351" class="cls-12" d="M840,848l-2.45,2-2.92,1-1.47,1-1,1-1,2-.5,2.92-3.42,3.92h-2.42l-1.47,1.47-2.3,1,.83,1,1.47,1.47.47,1,2,2,2.45,1,2,1.47,1,1v1.47l-.5.48h-2.42l-1,2v3.89l-1.94,1.95-1,1.47-1,1.47-1.47,2-1.95-1-2.45-1.94-1.94-1.47-4.4-2.95-2.94-.47-2,.47h-1l-1,1-2,1.45-2,1.47-1-1L798,880.73v-2.92L796,874.87v-2.45h3.42l1.94-.48,2-.49.87-1.28-1.35.3-1.47-.47-1-1.47v-1.95l-2.45-.5v-1l1-3,.5-1.94-1.95-.48-2.45-2v-1.45l-2-1.47h-1l-1,2.44-1,1.45-1.47,2-1.45,1.45-.5-1-2.92-1-1.47-1,1-.5,1-1,1-1,.5-1v-.49l-2.45-1h-2.92l-1.47-.47-.5-2-1-1-1.47-.47h-3.9l-.5,1.94-1,1.48-1.47.47-3.42.5-1.45,1-2.44,1v1.47l.47,1v2l.5,1.47v1.47l-.5,2v1.47l-1,1.45H758.4l-3.42-.47-4.4,1L749.11,871l-2.44,1.45v2l-.48,2-.5,1v1.47l-1.47,3.42-1,1-1,2.44,2,2.45-1,1-1.45,2-.5,1.47-1.95,1v2l-3.91,1.47-2.92,1.95-2.45,1-1.47.5.5,2.45,1,1v1.95h-1l-1.48,1.47,2,1v1l1.47,1,1,1,1,1.48,1.47,1.94-2.44,3-1.47,1-.48,1.95-.5,1.47h-3.89l-1-2v-.5l-2-1.47-1.45-2.92v-2.44l-.49-1.48h-3.92l-1.45,1L713,911l-.49-1h-4.4l.5,2,1,1v1.45l.47,1,.5,1v2.92l-.5,1v1.47l1,1,1.45.5v1.95l.49,1.47h-3.91l-1.95,1.45v1h-2.44l-1.48-.49-2.92,1h-2.44l-1.47,1-2.43,2v2l-1.47,1.95.48,2.44v3.92l-1.45,2.42.47,1.48.5,1.47,1,1v3.42l.5,2,1,2.44,1.45,2h2.44l1.47-.48h1l1,2v2.45l-2.45,1.47v1l1,1,1-1,2-.49,1-.48,1-1h2l1,1.45.48,1.47-.48,1.47v2.44l-.5,1.45-.47,1V976l-2.45.49h-2.44l-2.45,1.48-1,2.44v1.45l-2.45,2.45-.49,1.94.49,1,1,2.44-2.45,1.47-2,1-1.47.5V998l-.47,1L690,1000.4l-1,.47v3.42l1,1.47v3l-1.95,1.94v3.42l-2,1-1,1.47-1,1.45-1.47,4.41-2.92,2.92-1.47,1-.48,1.47-.5,2,.5,2-.5,2.44-.47,1v3l1,1,1,1.47v.48l-1,1.47-1.47,1,.5,1.48,1.45,1.47v1.45h-3.9l-.5,1.47.5,1,1,1.47-.49,1.48-.48,1-2,1-1.45.48-2-1h-2.42l-2.45,1h-1.47l-3.42-1h-2.92l-3.91,2-2.93,2-2.94,4.39-1,2.45-2.45,1H639.7l-1.45,2v1.47l.48,2-.48,2-1,2.42-.82,1.37.34,3v9.76l2,.47.5.5-1,1.47v1l-1.47.47h-3.42v1l1,1v1.95h-1.48l-1.45,1-.49.5v1l-1,1.48-1.47-.5-1.47.5v1.45l-1,1.47v1l.49,1.47.48,1v1.47l-1.45,3.42-2.94,3.89-.48,2-1.47,2.92-1,3.92v2.42l-1,3-.5,1.94-1,.5,1,1h1.95l-.47,2v1h1.94l1-1,1-.47h2l.48,1-1,1.95-1.94,2.44-1.48,2.92-1,1.48-.5,2.92v2.44l-.47,3.42-3.42,4.89-1,2.92-1,1.48-.5,3.91-1,2-2.45,1-.5,1.47-1.44,1-1,1v1.47l-3.42,2-3.42.5-1.47,1.45H597.7l-1.47,2,1,1.45V1186l-.49,2.45v2.44l-1,1.95v1.47l-1,1v2l.47.48h3.92l1.47,1.47,1.45,1.47.5,1.47-1,1-1,.47.48,2.45,1,2.44,1,.5h1.47v-1l2.44-.48v3.42l-1,3.42v3.89l-.5,1-1,2.42v1l-1,.47-2.92,2-1,3.42-3.42,3.92-2.92,1.94-1.47,1.48-.48,2.92v3.91l1.45,2.45-1,2-1.45,1.94-.5,2.45-.5,1-1.95,3.92-.47,2-2,1.47-2.92,1.47-2,1-1,1,1.47,1.47,1,2.44.58,2H585l2-1,2.92-1h1.47l1.45-.49,3.42.49,2,1.45,1.45,1,4.89,1,3.92,2,2.92,2.92v5.39l1.94,3.9.5,3.91,1.47,4.4,2.45,4.89,2.42,4.39,3.42,3.89,3.92,2.95,3.42,1.45,4.39,1.47,3.33,2.55.09-.11,3.92-2.94,4.86-5.84,3-1.47,2.92-.5,2.94-1h1l3.41,1,2.93,2,2.94,2.92,1.45,1,1,1v1l.5,1v4.87l1.47,2.44,2.45,3.42,1.94,2,1.48,1,1,1h8.29l3.92-1.48,8.78-5.36,7.81-3.42,6.84-1.47,6.84-1,6.36.48,6.84-.48,15.62-6.36,2.45-1.95,1-1.94,1-5.37v-3.92L755,1292l2.92-3.91,3.42-2.93,5.39-5.38,3.89-3.9,1.95-2.94,2-10.26,2-9.76.49-2,5.37-6.36,3.89-1.45,3.42-.5,1.48-2.44,4.39-2.45,25.4-14.65,1-5.36,1-3,2.45-2.92,3.42-2.92,1.47-3.92,9.58-20.71,7.25-29,.69-1.37,13.49-6.23,10.36-3.44,2.4-1,2.43-2.42,5.86-5.52.69-2.08-1-4.82-1-2.43-1.71-2.07-2.43-1-1.38-.35-.69-.35,1-1.38.35-.69v-1l1.39-.69.34-1,.69.34h1l1.37-.69,1-1,.69-1.38,1-1,.69-1.73,1.38-1,1.39-1v-2.07l.35-2.43v-1l1.38-1.38.67-2.06,1-.69,1-.35,1.73-1,.69-1,1.39-1.39v-1.73h1v-.67l1.36-1.39.35-1,1-1.39,1-.69v-1l-.34-1.39v-.69l1.73-.69,1.38-.67v-3.81l1.73-1.38,1-.35.67.35,1.39.34.69.35.69-.69.35-1.39,1-1.71.69-.69h3.46l1.37-1,1.73-.69.69-3.47v-1.38l2.08-1H923l1.36-2.4,1.39-1.73-.35-1-2-.69-1-.35-1.39.35-1,.69-2.07-1-1.73-.69v-4.48l.69-1,.34-1.73-.34-2.08-.35-1,.35-2.75,1.38-1.38v-2.77l.7-1,.34-1.36,1.39-2.08.69-2.08.35-1.73-.7-1.38-.34-1.37-1-1.38-1.39-.69.7-2.08-1-2.08v-2l-1.73-1v-1.39l-.7-1-.34-.69-.67-1.38-1-.35-.69-1.39v-1l.34-1,.69-.69.7-1V1013l-.35-.7v-.69l.69-1.38,2.06-2.43,4.5-3.44,2.4-3.46,1-.69h.35l.69.34h2.42l1.73-.34.7-1v-3.81l1-1h3.44l.69-.34v-.7h1.38l2.08-.34,2.06-.7,1-1.38,1.38-.33v-1l.69-1.39,1.39-.35h1.73l1.38,1,.67.7h1l.35-1,.69-.7h.69l1.39.35.69-.35v-2.07l.69-.69,1.74-.7,1.7-1,3-.52,2-.47.48-3.42,1-1.95,1.47-2V971.1l-2.44-2-3.42-2.43-2-1-2.92-.48-2.45-1.47-4.39-.47-2-2.95L944,958.87l-2-.48-2.94,2.93-2.92,1-1.47-1.95-2.93-1.47-2.94,1.47-2.44,1H924l-2.42-1.45-2-3-.48-2.92v-.5l1.95-3.41.5-2-2-2.45v-2.92l-.48-2,1-2.44,1.47-2.92-1-1-1.95,2.45-1,1-3.42,1.47h-4.89l-1.95-2-2.44-.47L903,938.36l-2.44.49-1.48-1-1.36-2.29-.58-.15-3.92-1-2.92-2L887.35,931l-3.92-1.47-1.95-1.47-2.94-.48-2.45-2.44h-1l-1.45-1.95-2-1-1-2h-1.47l-2.93,1.47-1.47.5-1,.47h-1l-1.48-.47-1-1.47-1-1.48-1-.47-1.47-1-1.47-.47-1.45-.5-1.47-.48-1-1,.5-1.47,1-.5.47-1-.47-2.93-1-1.47-1.47-1-1-1-.5-2V898.8l-1-1.47-1.48-1-1-1,1-1.47,2-1,1.45-1,.5-1.47v-1l-1-.48-1-1,.48-.5,1.47-2v-2l-1-1.95-.5-1.47-.48-1-1-1-1.45-.48-.5-1.47,1-2.45,1-1.95v-1l-1-2v-2l-1.45-1.94v-1.48l.48-.47,1-1,.5-1.45v-2l-1-2.42-1-2-2-2-1-1.94-1-2v-.07l-.5.07Z"/><path id="path1331-2" data-name="path1331" class="cls-12" d="M638.64,1314.56l-3.33-2.55-4.39-1.47-3.42-1.45-3.92-2.95-3.42-3.89-2.42-4.39-2.45-4.89-1.47-4.4-.5-3.91-1.94-3.9v-5.39l-2.92-2.92-3.92-2-4.89-1-1.45-1-2-1.45-3.42-.49-1.45.49h-1.47l-2.92,1-2,1h-3.9l-6.84,1H562.54l-7.82.49L543,1270l-7.82.49-6.34.48-4.39.5-3.92,1.45-1.94,3.42-1,2-1.47,1.45-3.42,1.47-4.39,2.94-3.92,3.42-3.89,2-2.95,2.92-3.42,1-2.44,2.94-2.45,1.95-1.45,1v2l-1,1.94-1,1-3.89,1.47-3.42,1-3.92,2.45-5.86,2.42-3.42,1.47-3.89.5h-8.31l-1.95.48-1.95,1.47v4.39l-1,2.45-.48,1.47-1.47,2.44-2.45,1.45-2.92,2v1l-1,1.94-.5,2.92-1,1.48-2,1.47-.5,1.94-.48,2.45-1,3.42v5.86l-1.45,1-1.47,2.44V1357l.5,5.37v5.87l.47,2.44v7.31l.5,2,.48,1,.49.47v1h-1l.48,1.47-1.45,2-.5.49v3.42l1,3.42.5,1.47v2l.48,1.47-1,1-.47,1v6.34l1,1.47v4.89l.48,1.45v1l1.47,2.44,1.47,1v2.44l2,1,1,2,.5,1.45,2.44,3.92.48,2.92,1.95,3.42,2.44,3.92,2,2.92,1.95,2.94,1,3.42v3.9l-1,2.94-.5,1.47v9.26l.5,1v3.42l-1.95,1.94-1,2-1.45,3.42-.5,1.47V1483h-2l-1.95,1-1.47,1.47-1.47,1.94v4.4l-2.92,1-2,1.47-.48,2-1,2-1,1.45-1,.5-.48,1.47,1,2.92-.5,2.45-1,2.44-.48,1.45v1l-1,1.45-3,.49-.47,1-2.45,2.44-1,1.95v2l-.5,2.94-2.92,3.42-1,1-2.95,1-2.44.5h-2.92l-2.95,1.94-2.42,2.45-1.47,1.45-1,1-.49,1.45-.48,1H396.8l-.82.49v2l-1.45,1.47H397l2.92.5,1-1h3.91l2,1,1-1h4.4l.49,1,2.93,1.45,1,.5H418v-.5l1-1,1,.5.5,1.44,3.42,2,1.94,1v-2.45l2,.5,1.95.48h1l.48,1,.5,1h1l2.94-.47h1l1,1.47v1l-1.95,1-1,1-1.95,1-.47,2-2.45,1v1l.48,2h1.47l2.44.5h1l1.94,1-1.94,1h-2.92v1l.47,1.47v1h1.95l1,1.47v.48l-1.47,1,.48,1,.5,1.47,1.47,1.47,1.45,1h1v1h-1l.5,2.44v2.45h3.91l.48,1-1,.5-1.94,1h-1l-.49.48,1,1.47-1,1.47V1587l1.47,1,.47,1L439,1590.4v1l.48,1,1,1.45,1,1.47.49,2v2l.5,1,.48.48,1,1.47,1.47,1.95v1.47l1.95.5,1,.47,1.47,1,1,1,1.47.48,1,.5,1,1v.48l-.48,2,1.45.47-.47,1.47-1.47.5-1-.5.5.5,1,.48,1,1,3.42,1h1l1.47,1,1.45.48v1.94l1,.5,2.42,1,2,.49h2.44l.48-1.47-.48-1-.49-.5-.5-1h2l1.95,1.47,1.94,1,2.45-1v-1.47l1-2h.5l.48,1,1.47-.49,1,.49v1l2,1,1,1.47,1.45,1,.5-1,1.47.48,1,2.44,1.47,1h.48v-4.4l.49-2.42-1-3.42-.5-1.47-.5-1.47,1,1,1,.5,1,.48v1l-.5,1v1.94l2,.5.47,2,.5,1.45-1,1-.5.48v1.47l-.5,1-1,1,.5,1.47.47,1.47,1.47-.5v-1l1-.5,1.47.5.5,1.47,1.45,1,2,.47L501,1629l1-2.92.49-4.9v-2.42l1.48-1.47,1.94-1.47,3.9-2h1.47l1-1.47h1.48l.49-2,1.45-.5,24.91-.47,1-23-.47-3,2-.47h1.47l1.47.47v1l1.45,1.45.5,2,.47,1.45,1,.5v-2.45l1.45-2h1l.5-1v-1h1.47l1,.5,1,2v2.45h3.42l.49-1L563,1586l1.45-.48h1l2.44,1.45,2,.5,1.45,1,2-1,2.42-.5,2-1,2-.48h2.45l2.92.48h3.42l4.39.5h3.42l3.42.47,2,1.48,2.92,2.44,2.94,2.45,2.42,1.47h15.65l5.37-1.47,1.94-.5v-1.45l1-2,1-2.45,1.95-1.94,2-.48,2.44-1,1.48-.47,1.94-.5h1l1-1,2.94-1.47,1.95-.48h2l1.47.48.48-1.45,2.44-2h1.47l2.92-.48,4.42-1,1,.47,1,1.47-1.47,1.48v3.41l-.48,1.45,1.95,2.45,1.94,1.47,1.48.5,2.92,1h3.42l4.39-1,4.89-2H689v-1.45h-1l-.5-1v-1.45l3.42-1.47,2-1.94h2l.47.47h2l1,1,1,.49v-2.92l1.47-1h2l1-1.45v-.5l1.47-1-2.44-1-2-1h-3.42l-1-2,1-1.45V1566l-2-1,.5-2-.5-1-1-1.95,2-2,2-1,3.9-2v-.48l-.48-1.47-2.44-2.44v-2.45l-2.45-4.39-3.91-5.37-1.45-4.89-2.45-3.89v-6.37l-2.44-3.42-.5-2.44-3.42-2.92-2.42-2-2.45-2.45v-3.41l-2-1.48-1-2.44-2-2.45v-18.07l-.5-2.92-1.95-2.44h-1l-2.92,2h-1l-3.42,1.47-3.41-.5-3.42,1-2.43.48-3.42-1-2.94-.5-2.44-2.42-1-3.92-.47-2.45-2.95-2.44-2.44-2-2-3.92-2.92-2.92-.5-3.42,1-1.94v-4.89l1.48-2.93,1.94-3.42,1.48-3.91v-2l-1-2.45v-2.44l1-1,.49-2,.48-2-1-2v-2.44l-.5-.48,1-2v-4.87l-2.44-2.44-4.89-1.47H617.74l-4.42-.5-3.42-1-1.94-2.44-1.47-1.45-2.93-2-2.44-1-3.42-1.45-2.45-.5-2.44-1.47-1.45-2.92-.5-1v-2l1-2v-2.92l.49-4.89.48-4.39,2-3.42.47-3.42.5-3.42,1-1.94,2.92-2,3.42-3.9,1.47-2,2.94-2,2.42-1,4.42-4.89,3.89-4.39,1.95-3.9,1-1.47,3.42-3.42,2.92-3.42,1-2.44.5-3.9,1.95-3.92,1.47-5.36,1.45-2,1-1,2.43-1Z"/><path id="path1336-2" data-name="path1336" class="cls-12" d="M582.16,1269l-.58-2-1-2.44-1.47-1.47,1-1,2-1,2.92-1.47,2-1.47.47-2,1.95-3.92.5-1,.5-2.45,1.45-1.94,1-2-1.45-2.45v-3.91l.48-2.92,1.47-1.48,2.92-1.94,3.42-3.92,1-3.42,2.92-2,1-.47v-1l1-2.42.5-1v-3.89l1-3.42v-3.42l-2.44.48v1h-1.47l-1-.5-1-2.44-.48-2.45,1-.47,1-1-.5-1.47-1.45-1.47-1.47-1.47h-3.92l-.47-.48v-2l1-1v-1.47l1-1.95v-2.44l.49-2.45v-2.94l-1-1.45,1.47-2h1.47l1.47-1.45,3.42-.5,3.42-2v-1.47l1-1,1.44-1,.5-1.47,2.45-1,1-2,.5-3.91,1-1.48,1-2.92,3.42-4.89.47-3.42v-2.44l.5-2.92,1-1.48,1.48-2.92,1.94-2.44,1-1.95-.48-1h-2l-1,.47-1,1h-1.94v-1l.47-2h-1.95l-1-1,1-.5.5-1.94,1-3v-2.42l1-3.92,1.47-2.92.48-2,2.94-3.89,1.45-3.42v-1.47l-.48-1-.49-1.47v-1l1-1.47V1102l1.47-.5,1.47.5,1-1.48v-1l.49-.5,1.45-1h1.48v-1.95l-1-1v-1h3.42l1.47-.47v-1l1-1.47-.5-.5-2-.47v-9.76l-.5-4.42v-2.92l-.47-2.92v-24.93l-.5-1h-1l-2.45,2-2.44,1.45-2.45,1h-1.45v1.47l-1.47,3v1.44l-.5,1-1-2.42-1-2.45-1-3.42v-3.42l-1.47-2-2-1-2-1-.49-1.47-.48-18.54,1.45-2,.5-3.9-1-1.47-1,.5v1.45l-1,1.47-1.45,1-.49-1.45h-1v-1.48l-1.47-1.47.5-2,1-1,1.47-.5.48-.47-2-1.47v-.5l-1.47-1-1.45-2.44,1.45-1.45,1-2.45h-1l-2.44.48h-2.43l-3.42,1-1.47,1-.5,2-1.94,2.92-1.48,1-1.94,1h-3.92l-2.42,1H585.5l-4.4.48-2.44-.44v.44l-2.45,1-1.47,2.45-2,1-1.47,1V1019l-2.44.48-1,1.95-1,2.44-2.45,2-1.45,1-1,1.45-1.45,1.47-2.94,1.47H556.2l-3,.48-3.42,2-2.92,1.45h-2l-1.45-3.41-.49-1.45-2-1-1.95-2.94v-2.45l-2-1.94-2.92-.5-2-.48v-1l-2-1.47-1.94-1-2.93,2-3.42.5v.47l2,1,1.47.5h1l2.44.49,1,1.45-1,1.47h-2l-2.92-1-2.44-.5-2.92-1-2-.48h-4.87l-1.47-1.47-1.95-1-1-2h-2.94l-1.47,1-1,1.95-2,2.45-2.45,1.45-.47,1.47.47,1v1.47h-2.92l-1,1-1.47,2-2.45,1h-5.37l-2.94,2.92-1,2-2.92,2-2.95,1h-2.92l-2.94-1h-3.42l-.48.47,1.48,1.48.47,1.47,1,1-.48,2.45v1l1.45,1,2,1h4.39l2.92-.5,1.47,1.47.5,2.45-1.47,1.94h-3.42l-1.95,2-3.91,2.93h-3.42l-1.95,1-2.94,1-4.87,1-4.89.49-2.94.5h-2.43l-2.44-1-2-.48-3.42-1h-5.84l-2-1v-2l1-1.45-1.45-1-2.45-.48-4.39,1L418,1058l-1.95,3-1.94,1.45-2,.49-2.92.5-1.48,2.43v2.94l-1,3.89-2.45,1.48-1.94,2.44-1.47,2-3.42,2.44-4.89,1-4.87,1-3.42,9.28-4.39,17.6v1.45l1.94,3.42,1.95,2v1.94l.5,2.45-1,2.44-1,2-.48,11.23-1.47,1.47-1.47,1.95-1,2.94-1,2.93-.47,2.92,2.42,2.44,4.89,4.89-.48,3.42-6.36,5.37-80.09,21-2.94-.5-10.26-2.44-8.78-1h-7.81l-8.31.5-4.4,1H251.9l-5.37,1.94-4.39,1-2.45,2.44-2.44,2.95-1.95,2.92h-2.44l-4.4-2.45-7.33-2.44-8.31-2.43-13.18-2.94-71.3,3.92-3.42-.5L22.35,1147.42v1l26.37,36.14h2l1,1V1187l-.5,2.93-1,1.47v1.47l2,2.92,1.45,1,.5,1.48.48,1.94v2l1,1,1.45,1,1,1v1.48l1,1h1l.48,1.47-1.45,2-.5,1.47,2.45,1.95.47,1.47,2.45,7.81,4.39,7.31,3.42,4.4,2.94,3.42,4.4,5.86,4.89,4.89,3.42,2.45h2.44l2,1.94,3.42,1,4.89,1.47,2.92.5,5.37,2.92,5.86,1,3.42,2.45,2.45,2.44,1.94,1,1,2.92,2.94,3.92,2.92,2.92,3.92-1,7.81-.47,1,1.94v3.92l-.49,2.92-.48,3.42-1.47,3.42v5.86l.5,4.9,1.45,6.34,1.47,4.39v4.89l-.48,4.39V1334l-.5,2.45-2.44,5.37-1.95,1.47v.47l1,2,.49,1.47-1,1.47-1.95,1,1,1,1.48,1,1.94,1h2l2.92,1,1.95.47h3.42l3.42-1,3.92-1H162l1.47-.49h1.95l1.47.49,1.45,2h1l3.42,2.94.48,2.93v2.44h-1.47l-1.45,1.47-2,2.92v9.76l.5,1,1.47,1.45-1,2-2.44,1-2,1.45v2l-1.45,5.37-1,6.84-1,1.47-3.89-.5h-1.48l-2.92-.48-2.44-1H140l-3.89-.48h-2.94l-1.45,1.47-2,1h-1.45l-2.45,1-1.47.48-2,1-2-.5h-2.42l-2.94.5h-2l-2.92.48-.5,1.47h-2.92l-1.47,1h-1.95l-1.47,2v2.45l-1.95,2.44-1,1v1l.5,1.47v1l-1,1-2-.48-4.41-2H89.75l-.5,1.47-.49,1.48-1,1.45-3.42,1L81,1420.92l-10.74,2.94-2,2.45-1.94,8.78-2,10.26-1.47,7.32v2.94H59.46l-2.92.48-.5,2v3.42l.5,2,1,1v1.47L56,1467.34l-1.95,1v1.45l.48,1.47-1,1v2l-1,3.42-.48,8.28-1,6.37-2.92,5.36-1,2,1,1h3.91l2.43.5,1,.5,1.95,1L59,1502h1.45v1l-1,2-2,2L56,1509.34l-.48,2,.48,1.47,1,1,3.42-.49,2.94.49,1.45-1v-1.47l2-2,2.45-1,1-.5h2.92l5.37,1.47,3.42,1,.5-1-.5-.5-1.45-1.47-.5-1.95.5-1.94,2.92-1,2-.5,4.41-.47,4.87,2,1.47,1.94.5,1.48-2,1.94-1,1-.48.49,2.43,1,3.41.5h2.45v-1l-2.45-1-1-1.45v-1l2.45-2.92,4.89-1,2.44-.5,1-1h-1l.48-.47,2.44-.5h5.87l11.73.5,10.25,2L144,1505h3.42l3.42-2,2.44-.48,5.37,1,3.42,1.94,5.37.5,4.39.48,3.92,2h2.44l2.45-.5.47-1-1.45-2-1.47-1.47-1-1.48.47-.47,1.47-2,2.93-2.45,5.86-1.94,6.84-.48,3.91,1h1.48l2.42,1.45,3.92,1.48,1.47.49h3.42l3.42.48,1.45-.48,2.94-.49v-3.42l-2-1.47-2,.49-1-.49-1.95-.48v-1h1l1.94-1,1.47-.5h1l1,.5h1.47l3.42-.5,1,.5,1,1-2,.47h-2.44l-1.47,1v1l.49,1.45,1,1,.49,1-1,1v1.45h1l2.93.5,2.92.5h2.94l1,.47,2.45,1.48,2.92.47h1l1,1.47,1.95,1,2,1h3.91l1.45-1,.5-1h2l1,.5,2,.48,1.95,2.44v1.47l-1,2,.48,1,.5.49h4.39l2-1.47.5-1h-2l-.5-.5-1-1,.49-2.92,1-1,2-1.47,1.47-1.47,3.42-.48h5.86l4.39-.5h1.95l1.47,1,2.92,1.47,3.42-.5,1.95.5,1,.5,1.94,1h2.45l.47-1,1-2v-2l2.44-2h2l1.95,1,1-.5,2.45-.48,1.47-.49,2.42.49v2h2l3.42-2,2.45.48,1.45.5,1,.47,3.42,1.47,3.42.5,2,1,2-1,1.47-2,4.39-1.45,2-.49,2.92-1h6.36l3.9-.5,2.94-.47,1.95-1,3.42.48,1.47.5,3.42-.5,1.95-1.45h2.44l3.92.48,4.87,1,5.86,2.94,1,1,1.48-.5-1-2-1.47-1-1-.5,1.47-2v-.49l-2.94-1-1.95-.47-.5-1.48-1.95-1-1.47-1.47h-3.89l-2.95,2-3.89,2.44-4.4.5-2.44-.5v-1h2.44l1.45-2.45,1.48-2.92,1.94-1.47,2.45-.48,2.94-.49,1,.49H376l.5-.49,1-.5.48.5v1.47l3.42.47,1,.5.5,1,1.94,1.48,1,1.94h2.44l1,.5.49,2v1l.5,2,.48,1,1.95,2-.48,2h-2.45l-1.47.5,1.47,1.45.5,1,1,1.47,3.42,1.95,1.45,2.45,4.41,2.44.48,1.47,1,2.92v2.45l-2.45,2v1.47l-.47,2v6.36l-1.47,3.89-1,1,1,1.47,1,1-1.62,1h3.59l.48-1,.49-1.45,1-1,1.47-1.45,2.42-2.45,2.95-1.94h2.92l2.44-.5,2.95-1,1-1,2.92-3.42.5-2.94v-2l1-1.95,2.45-2.44.47-1,3-.49,1-1.45v-1l.48-1.45,1-2.44.5-2.45-1-2.92.48-1.47,1-.5,1-1.45,1-2,.48-2,2-1.47,2.92-1v-4.4l1.47-1.94,1.47-1.47,1.95-1h2v-3.42l.5-1.47,1.45-3.42,1-2,1.95-1.94v-3.42l-.5-1v-9.26l.5-1.47,1-2.94v-3.9l-1-3.42-1.95-2.94-2-2.92-2.44-3.92-1.95-3.42-.48-2.92-2.44-3.92-.5-1.45-1-2-2-1v-2.44l-1.47-1-1.47-2.44v-1l-.48-1.45v-4.89l-1-1.47v-6.34l.47-1,1-1-.48-1.47v-2l-.5-1.47-1-3.42v-3.42l.5-.49,1.45-2-.48-1.47h1v-1l-.49-.47-.48-1-.5-2v-7.31l-.47-2.44v-5.87l-.5-5.37v-1.47l1.47-2.44,1.45-1v-5.86l1-3.42.48-2.45.5-1.94,2-1.47,1-1.48.5-2.92,1-1.94v-1l2.92-2,2.45-1.45,1.47-2.44.48-1.47,1-2.45v-4.39l1.95-1.47,1.95-.48h8.31l3.89-.5,3.42-1.47,5.86-2.42,3.92-2.45,3.42-1,3.89-1.47,1-1,1-1.94v-2l1.45-1,2.45-1.95,2.44-2.94,3.42-1,2.95-2.92,3.89-2,3.92-3.42,4.39-2.94,3.42-1.47,1.47-1.45,1-2,1.94-3.42,3.92-1.45,4.39-.5,6.34-.48L543,1270l11.72.49,7.82-.49h11.72l6.84-1Z"/><path id="path1366-2" data-name="path1366" class="cls-13" d="M647.6,1061.31l-2.53-.84-.48-3.42-1.94-6.84-1.48-7.31-1.47-8.31-2.44-3.42-1.45-4.89-1-4.89-2-5.37v-4.89l-1-3.89-2.92-3.42-.5-3.42L626,997V994l1-5.37,1.47-1,3.92-3.42,4.87-3.42,3.42-1.47,5.86-4.4,2-5.36L650,966.7l1.47-.49,1.47.49,1.45,1,1,1.45,2,1.47.47-1.47,1-1.45v-2.94l-2.43-1-2-2-3.42-3.91L648.49,956l-3.42-4.89-1.45-1.45v-3.42l.48-4.41,1.47-1,1-1.95,2.94-5.86,1.45-3.9,2.45-3.91.5-1.47h1l.48,1,2.44,1.47h2.45l2.94-1,3.42-1.47,3.42-2.92,2.42-3.92,2-2,1.45-1.47-2.92-.48-2.92-.49-1.47-.48-2.95-.5L663.16,910v-1.45h-2.94l-2-2.44-3.92-1.48v-1.94l1-.5,1-1.47-.5-.48-1.94-1h-3l.5-2.45,1.47-.5h4.87l1.47-1.94,2-1.95,2.45-.5,2.94-1v-5.37l1.95-.5H671l1.95.5,2.92.48,3.92.49,2.44-1,1.95-1,2.94.47,1.45-1.47.5-2.42.48-1.47,1.47-.5-.48-1.45-.49-1.47v-1.47l-.5-2.45,2.44-.48,1,.48,2.94,1,1,2.42,2.45,1,2,1.94,1.47,1h5.36l1.95-.5,1.47,1,3.92,1h6.84v3.42l-1.47,1.94,1,1.48,3.92,1,1.94-1,2.45-2.45,3.42-2.94,2-1.95v-2l-2-1v-2.45l2.44-1,1.45-2.45L735.93,869,732,868l-1.47-1-1.95.5-.48,2-2,1.47-2.92,1.95h-6.84l-2.44-1V869.5l1.95-2-1.45-2.44-2-1-2.92-2-.5-1.45V856.8l-2.92-3.42-1-4.89,1-3.42,3.42-4.39,3.41-6.84,2.93-4.4,1.47-1.47,1-2.42,2.45-1,2.92-4.39,1-2.92-.49-1.47-1-1.95-2-2,.48-1,1-1.45,1-.5v-1l-1.45-1,1.45-1.47,1.47-1,2.44-1.47,1-2-.48-2.45-.5-2.92,2-1.47-.47-1-1-1.48h-1l-3.42-.47-2.92-.5-2.45-2.44-2-4.4-1.47-2.92-1.14-2.9-.81,2.4L710,782.08,706.14,784l-3.42,1-1.47,2.94-1,2.42v2l-1.47,1.95-1.95,1-1.94,2-3.42,2.94-2,1-1,1v7.81l-1.45,1.48-2.44-.5-2.45.5v4.89l-.49,1.45,2.44,1.47,2,1.47,1.47,2.44,1.95,1.45,2,.5,1,.5v4.39l-1,.48-1,2-.49,1v1l.49,1.48,1.45.47.5,1-1,1,1,2.45-1.47,2h-1l-1.95,1.45v2l1.45,2.92-1.95,1h-2.45l-1.94,1-1.95,2h-1.47l-1.47-.5h-1.45v2l-.5,1.47h-3.92l-1,.5-2,1-2.92-1h-2.94l-3.42.48-2.45.49h-2.92l-2.44.48H650l-3.42-.48-1-1.47-3.42.5-2.45-1h-1.45l-2.44-1-2.45-1-2.44-1-3.42-.49h-2.92l-2.45-1h-4.39l-2.94,1-1,.49,1,2v1l-1.95,1.47-1,1,.48,1.47,1.47,1.47,1,1.45.49,1,.48,2,1.47,1.94.5,1.48,1.45,1v2l1,.49,1.47,1,2,.5,3.92,1,2-.5,1,2.45v1.47l.5,1.45,1,.5,1.47,1.47-.5,2.42-.47,3.92-1,2.44,1,1,1,1v1.95h1.95l2,2,1,1.45,2.43,2.44.49,2v3.42l-2.44.48-1,1.47-2.93,3.42-2,.47-1.45,1-1,1.45-1,1.47h-2l-1.47-.5-1.45.5v1.47l-1.47,2-.5,1h-2.92l-2,1.48-2.45,1.47-2.44,1h-1.47l-1.48-1.47L608,920.29h-1l-1.94,1-2,2.45-1.45-.48-4.4-.5-3.91,1-1.47,1.47-2.45,2.44-.48,2V932l.48,2.92.5,1.47-.5,2.44-.48.5-1.47,1-1,1.94-1,2-2.45,1.47-1,1,1,1.94,1.47,1,1,1L586,952v1.47l.5,2L585,958.39l-2.92,3.42-1,2.45h-2.94l-1.45,1-2,1-.48,2.92-1,2.94v3.42l1.45,2,1,1.95.5,2v1.45l-.5,2-.47,2.43,1,2-1,2.44-.5,2.43v1l.5,2,1,1.95v2.44l1,3.42,1.47,2.45v2.48l2.44.44,4.4-.48H587l2.42-1h3.92l1.94-1,1.48-1,1.94-2.92.5-2,1.47-1,3.42-1h2.43l2.44-.48h1l-1,2.45-1.45,1.45,1.45,2.44,1.47,1v.5l2,1.47-.48.47-1.47.5-1,1-.5,2,1.47,1.47v1.48h1l.49,1.45,1.45-1,1-1.47v-1.45l1-.5,1,1.47-.5,3.9-1.45,2,.48,18.54.49,1.47,2,1,2,1,1.47,2v3.42l1,3.42,1,2.45,1,2.42.5-1v-1.44l1.47-3v-1.47H627l2.45-1,2.44-1.45,2.45-2h1l.5,1v24.93l.47,2.92v2.92l.16,1.37.82-1.37,1-2.42.48-2-.48-2v-1.47l1.45-2h3.42l2.45-1,1-2.45Z"/><path id="path1343-2" data-name="path1343" class="cls-12" d="M840.93,628.22a5.22,5.22,0,0,1-2.92,1.94c-2,.49-2,2-2,2l-2.44-.49-1.48-1-1.47-.5h-4.39l-3.42,1-5.37,1H807.24l-2.92,2h-5.87l-2,1-3.89,1H783.3l-3.91,1-4.4.5L773.05,639l-1.48,1.95-2.44,1-3.9.5-2.44-.5-2.92,1.47-3,1.45-3.41.5-2.45.5.5,1.45,2,1.47v1.95h-4.89l-1.45,1.47-2.45,1v3l-1.47.47-2,1-1.47,2-2.45,1-1,1.45-3.89,1.47h-4.4l-.5,1.47,1.48,1.45.47,2.45v1.47l-1,1-1.47-.47-1.45-.5-.5-1.47-2.45-2-2.92-.5-2.94.5v2l-.48,2-1,1-2,1,.5,1,.5.5,1,1-.5,1.45h-2.44l-1.45,1L709.56,679l-1,1-2.44,2.94-.5,1-1,1h-2.93l-1.47,2.45-.5,2.44-1.45.48-2.44,1.47-.5,1-.47,1.47-1.48,2-1,.5v1.95l1,.49,1.48,1.45,1.94,2.45,3.42,1,2,1,1.47,1,1,1v2.44l1,1h1.47l1.47,1.48,1.45,2.92v1.47l1.47,1-.47,1.47,1,1.45,1.45,1,1,.5v4.39l-1,1.47-.48,1.47.48,1.45,1.47.5.5,1,1.45.5,1.47,1,1,1.95v1l-.48,1h-1.47l1,1,.5,1.47.48,1.95,1.47,1,1.47,2v1.47l-1.47,2.42-1.47,1-1.45.47-1,1h-1.45l-.5,1-.47,2,2.42,2,1.47,1.94,1.95,1.48.5,1h1.94V763l-1,2.92-2,1.48-1.94.47-1.48,1-1.47,3.42.5,1.48,1,1.47-1.94,1.45-.5,1-.17.52,1.14,2.9,1.47,2.92,2,4.4,2.45,2.44,2.92.5,3.42.47h1l1,1.48.47,1-2,1.47.5,2.92.48,2.45-1,2-2.44,1.47-1.47,1L722.26,807l1.45,1v1l-1,.5-1,1.45-.48,1,2,2,1,1.95.49,1.47-1,2.92-2.92,4.39-2.45,1-1,2.42-1.47,1.47-2.93,4.4-3.41,6.84-3.42,4.39-1,3.42,1,4.89,2.92,3.42v3.91l.5,1.45,2.92,2,2,1,1.45,2.44-1.95,2v2.44l2.44,1h6.84l2.92-1.95,2-1.47.48-2,1.95-.5,1.47,1,3.91,1,1.45,2.94-1.45,2.45-2.44,1v2.45l2,1v2l-2,1.95-3.42,2.94-2.45,2.45-1.94,1-3.92-1-1-1.48,1.47-1.94v-3.42h-6.84l-3.92-1-1.47-1-1.95.5h-5.36l-1.47-1-2-1.94-2.45-1-1-2.42-2.94-1-1-.48-2.44.48.5,2.45v1.47l.49,1.47.48,1.45-1.47.5-.48,1.47-.5,2.42-1.45,1.47-2.94-.47-1.95,1-2.44,1-3.92-.49-2.92-.48-1.95-.5h-2.44l-1.95.5V891l-2.94,1-2.45.5-2,1.95-1.47,1.94H652.9l-1.47.5-.5,2.45h3l1.94,1,.5.48-1,1.47-1,.5v1.94l3.92,1.48,2,2.44h2.94V910l2.42,1.47,2.95.5,1.47.48,2.92.49,2.92.48-1.45,1.47-2,2L670,920.79l-3.42,2.92-3.42,1.47-2.94,1h-2.45l-2.44-1.47-.48-1h-1l-.5,1.47-2.45,3.91-1.45,3.9-2.94,5.86-1,1.95-1.47,1-.48,4.41v3.42l1.45,1.45,3.42,4.89,2.44,1.95,3.42,3.91,2,2,2.43,1v2.94l-1,1.45-.47,1.47-2-1.47-1-1.45-1.45-1-1.47-.49-1.47.49-1.47,2.93-2,5.36-5.86,4.4-3.42,1.47-4.87,3.42-3.92,3.42-1.47,1L626,994V997l2.44,3.42.5,3.42,2.92,3.42,1,3.89V1016l2,5.37,1,4.89,1.45,4.89,2.44,3.42,1.47,8.31,1.48,7.31,1.94,6.84.48,3.42,2.53.84,1.88-2.79,2.93-2,3.91-2h2.92l3.42,1h1.47l2.45-1H669l2,1,1.45-.48,2-1,.48-1,.49-1.48-1-1.47-.5-1,.5-1.47h3.9v-1.45l-1.45-1.47-.5-1.48,1.47-1,1-1.47v-.48l-1-1.47-1-1v-3l.47-1,.5-2.44-.5-2,.5-2,.48-1.47,1.47-1,2.92-2.92,1.47-4.41,1-1.45,1-1.47,2-1v-3.42l1.95-1.94v-3l-1-1.47v-3.42l1-.47,1.47-1.47.47-1v-5.36l1.47-.5,2-1,2.45-1.47-1-2.44-.49-1,.49-1.94,2.45-2.45v-1.45l1-2.44,2.45-1.48h2.44l2.45-.49v-3.42l.47-1,.5-1.45v-2.44l.48-1.47-.48-1.47-1-1.45h-2l-1,1-1,.48-2,.49-1,1-1-1v-1l2.45-1.47v-2.45l-1-2h-1l-1.47.48h-2.44l-1.45-2-1-2.44-.5-2v-3.42l-1-1-.5-1.47-.47-1.48,1.45-2.42v-3.92l-.48-2.44,1.47-1.95v-2l2.43-2,1.47-1h2.44l2.92-1,1.48.49h2.44v-1l1.95-1.45H713l-.49-1.47v-1.95l-1.45-.5-1-1v-1.47l.5-1v-2.92l-.5-1-.47-1V913l-1-1-.5-2h4.4l.49,1,2.45,1,1.45-1h3.92l.49,1.48v2.44l1.45,2.92,2,1.47v.5l1,2h3.89l.5-1.47.48-1.95,1.47-1,2.44-3L733,912.48,732,911l-1-1-1.47-1v-1l-2-1,1.48-1.47h1v-1.95l-1-1-.5-2.45,1.47-.5,2.45-1,2.92-1.95,3.91-1.47v-2l1.95-1,.5-1.47,1.45-2,1-1-2-2.45,1-2.44,1-1,1.47-3.42v-1.47l.5-1,.48-2v-2l2.44-1.45,1.47-1.47,4.4-1,3.42.47h2.92l1-1.45v-1.47l.5-2v-1.47l-.5-1.47v-2l-.47-1V856.8l2.44-1,1.45-1,3.42-.5,1.47-.47,1-1.48.5-1.94H776l1.47.47,1,1,.5,2,1.47.47h2.92l2.45,1v.49l-.5,1-1,1-1,1-1,.5,1.47,1,2.92,1,.5,1,1.45-1.45,1.47-2,1-1.45,1-2.44h1l2,1.47v1.45l2.45,2,1.95.48-.5,1.94-1,3v1l2.45.5v1.95l1,1.47,1.47.47,4.4-1,2.92-1,3.42-1.48v-1.47l2.94-1h3.42l3.42-1.45,1.47-1.47h2.42l3.42-3.92.5-2.92,1-2,1-1,1.47-1,2.92-1,2.45-2,1,.48.5-.07v-1.88l-1-5.37-.49-3.42-.48-1.47-.5-2.44v-2l-1.47-3.42-1-1.47-.48-1-1.47-1.95v-2l-.5-2v-4.39l.5-4.39.5-2,.47-2.45,1.47-2H840l1-1h2l1-.48,1.47,1,1,.49,1.45.48,1-2v-4.89l-.49-1.47v-2l1.94-1,.5-3.42,1.47-2.92,2.92-2h3.42l3.42-.48,3.42-2,2.92-1.44v-2.45l1.47-1,1-1.48,1-2.44v-2l1-2.44,1-.48,1.28-1.08,3.06-1.17-3-.83-3.36-1.33,1-1.45h1l1.45-1h2l.48-1-1-1-2-.47-1-1h-2l-2.44-1h-3.42l-.48-1.45-2.44-2h-1l-1.47.5-1.47.49-1.45-1-.66-1-1.31-1-1,1h-1.45l-1,1-.5,1-.26-1.35-.71-.62v-1.45l.47-1.29-1.06-3.29,1.58-1.65,1.06-1.09,1.08-3.82,1.57-1.63,3.72-1.11.46-1.09-5-5.06-2.43-1h-2l-3.89-.49-4.39-1h-2.45l-1,.5-3-1h-2.92l-3.91-1-6.35-2.94L818.47,724l-3.9-2.44-2.44-2.45-.5-1.95v-2.94l1.47-1.45-.5-2.45-1.45-1.47h-4.89l-1,.5-2.45,1-3.91-.49h-2.45l-2.92-1-2.92.5-2.94,2.45-2.92.47h-2.95l-2.92-1.47L776,708.33l-1.45-1v-3.42l2-1.45v-4.39l-1-1-1-2.92v-8.31l.47-3.42V679.5l2.45-1.47,1,.5,2.45,1.45,2.94-1v-1.45l.48-2.45,2.44-1,2.45-1.48,2.44-.49,1-1.45.47-3,1-1.47v-1.94l2.42-1,1-1,1.95-1.47,1-1,2.44-2,1.48-2.44,1-1,1.45-1.48v-1.94l-1.45-1.95-1-.5v-2.44l1.45-.48,2.44-1,1.95-1.45,3.92.48h2.44l1.47-.48,2.43-1.47,2.94-1.47h4.39l2.45,1,2.44.49,4.39-1,1,1.47,2.92,1h2l2.44-1h2.43l2.44.48h2l2-1.47,1-.48V639l-1-1-.5-1.45-.47-1h-2.45l-1-1-.5-1-1-1h-3.92l-2.42-.48v-1l-1-2.92Z"/><path id="path1361-2" data-name="path1361" class="cls-10" d="M846.63,837.83l-.93,1.37-2.09.53-2.1.51h-3.67v2.63l2.09,3.17v3.14l1.58,2.63,1,1,2.1-1.58,2.11-1.56,1.05-1.07h1l2.09-.51,3.16.51,4.73,3.17,2.09,1.58,2.63,2.09,2.09,1,1.59-2.09,1-1.59,1.05-1.58,2.09-2.09V845l1.07-2.12h2.61l.53-.51v-1.58l-1-1-2.1-1.58-2.62-1L867.76,835l-.51-1-1.59-1.58-.88-1-1.21.52h-3.68l-3.16,1v1.59l-3.68,1.58-3.14,1Z"/><text class="cls-14" transform="translate(384.32 832.99)">TRIBAL AREAS</text><text class="cls-15" transform="translate(383.44 919.41)">VOTERS</text><text class="cls-16" transform="translate(376.59 804.36)">12<tspan class="cls-17" x="28.64" y="0"></tspan><tspan class="cls-18" x="65.25" y="0"> </tspan><tspan class="cls-19" x="73.21" y="0">seats</tspan></text><text class="cls-20" transform="translate(382.56 889.06)">1,280,356</text><line class="cls-21" x1="382.75" y1="843.06" x2="677.57" y2="843.06"/><text class="cls-22" transform="translate(104.32 1062.99)">BALOCHISTAN</text><text class="cls-15" transform="translate(103.44 1149.41)">VOTERS</text><text class="cls-16" transform="translate(96.59 1034.36)">14<tspan class="cls-23" x="28.64" y="0"></tspan><tspan class="cls-24" x="63.92" y="0"> </tspan><tspan class="cls-19" x="71.88" y="0">seats</tspan></text><text class="cls-20" transform="translate(102.56 1119.06)">4,365,274</text><line class="cls-21" x1="102.75" y1="1073.06" x2="525.57" y2="1073.06"/><text class="cls-22" transform="translate(827.77 1364.73)">PUNJAB</text><text class="cls-15" transform="translate(826.89 1451.15)">VOTERS</text><text class="cls-25" transform="translate(820.05 1336.1)">148<tspan class="cls-26" x="27.31" y="0"></tspan><tspan class="cls-23" x="59.93" y="0"></tspan><tspan class="cls-24" x="95.21" y="0"> </tspan><tspan class="cls-19" x="103.17" y="0">seats</tspan></text><text class="cls-20" transform="translate(826.01 1420.8)">44,500,257<tspan class="cls-27" x="113.01" y="0"></tspan><tspan class="cls-28" x="135.64" y="0"></tspan><tspan class="cls-29" x="145.6" y="0"></tspan></text><polyline class="cls-21" points="1015.41 1374.8 787.57 1374.8 787.57 1092.77"/><text class="cls-14" transform="translate(771.05 1640.99)">SINDH</text><text class="cls-15" transform="translate(770.16 1726.41)">VOTERS</text><text class="cls-30" transform="translate(769.92 1611.36)">61<tspan class="cls-19" x="70.57" y="0">seats</tspan></text><text class="cls-20" transform="translate(769.29 1696.06)">19,506,473</text><polyline class="cls-21" points="958.68 1650.06 573.57 1650.06 573.57 1486.77"/><text class="cls-31" transform="translate(947.64 1168.71)">FEDERAL CAPITAL</text><text class="cls-15" transform="translate(946.76 1255.12)">VOTERS</text><text class="cls-30" transform="translate(946.07 1140.07)">2<tspan class="cls-32" x="35.28" y="0"> </tspan><tspan class="cls-19" x="40.58" y="0">seats</tspan></text><text class="cls-20" transform="translate(945.88 1224.77)">482,801</text><polyline class="cls-21" points="1164.07 1178.77 948.07 1178.77 816.99 1178.77 816.99 872.92"/><text class="cls-22" transform="translate(558.92 504.27)">KHYBER PAKHTUNKHWA</text><text class="cls-15" transform="translate(558.92 590.69)">VOTERS</text><text class="cls-30" transform="translate(558.92 475.64)">35<tspan class="cls-24" x="70.57" y="0"> </tspan><tspan class="cls-19" x="78.53" y="0">seats</tspan></text><text class="cls-33" transform="translate(558.92 560.34)">10,661,212<tspan class="cls-34" x="20.71" y="0"></tspan><tspan class="cls-35" x="108.2" y="0"></tspan><tspan class="cls-36" x="130.83" y="0"></tspan><tspan class="cls-27" x="163.43" y="0"></tspan><tspan class="cls-34" x="186.07" y="0"></tspan></text><line class="cls-21" x1="855.57" y1="514.34" x2="558.92" y2="514.34"/><circle class="cls-37" cx="793.07" cy="748.27" r="11.5"/><circle class="cls-37" cx="679.57" cy="844.77" r="11.5"/><circle class="cls-37" cx="525.57" cy="1072.77" r="11.5"/><circle class="cls-37" cx="787.57" cy="1096.77" r="11.5"/><circle class="cls-37" cx="576.57" cy="1486.77" r="11.5"/><circle class="cls-37" cx="816.07" cy="872.93" r="11.5"/><path class="cls-38" d="M1211.32,942.41c-.24-1.74-2.4-4-1.2-8.66s-2.88-9.65-4.56-9.65-2.4-5.93-2.4-7.91.72-12.12-8.65-14.1-10.57-8.16-11.53-11.87a5.33,5.33,0,0,0-5.28-4.2c-1.2,0-5-9.15-4.57-13.35s4.81-6.19,4.81-6.19,3.12-3.21.72-4.45-2.88-5.93-4.33-8.9-1-7.67-1.92-7.67-2.64-3.71-1.2-4.2,14.65-11.87,14.65-13.36,0-12.36-4.56-14.09l-5-1.73c-1.45-.5-7.69-7.92-10.81-7.92s-8.89-2-11.53-2-14.17-11.13-14.89-20-4.81-13.35-7.93-14.34-10.57-8.9-11.29-10.14,3.37-10.14,3.37-10.14,4.8-9.65,2.64-9.65-3.85-1.48-5.53-1.73-5.52-3.95-7.44-2.47-4.09,1.24-6.73,1.48-6.72.5-6.72.5l-14.17-1s-8.73-1.07-11.88-1.34-4.28-2.92-8.28-2.92-5.15-1.47-8.29-2.06-7.43-2.06-13.15-5.88-9.43-10-10-11.77-4-3.83-5.43-3.83-7.43-.29-9.72.88-10.57,7.07-12.29,6.18-2-5-2-8.53-2.57-6.77-2.57-6.77-6,.3-8-3.53-.61-8.53,2-13.53.31-7.36.31-8.24S997.05,661,997.05,661s-1.72-4.42-10-7.36-10.29-9.71-11.44-12.36-6-7.65-11.14-10.3-7.43-2.94-8-7.94-4.29-3.83-4.29-3.83-4-5.88-5.14-5.88-6.86,6.47-7.72,7.06-6.86-1.18-8,0-7.43,6.18-7.43,6.18l-8.29-12.07L911,612.42l-9.72,4.7.57,4.42-8-3.83-3.42,5-3.15,1.48-2,3.53s-5.15-2.65-8-2.06-3.14,4-3.14,4-10.48,2.39-13.5.42c-3.21-2.11-17.9-7.85-18.95,1.11-.51,4.38,9.57,7,9.57,7s6.11,1.94,3.82,1.94-.94,4.16-3.8,3a17.75,17.75,0,0,0-7.15-1.18c-1.71,0,.57-4.71-8,1.18,0,0-.59-1.47-3.44-1.47s-6-3.74-8.59-3.15-5.12,4-7.69,4-3.91-4.57-12.76,4.18c-3.47,3.43-4.62,12.83-4.62,12.83s-2.28,4.29-3.43,4.29l-4.54,3.88-1.88-1.3-.15,1L788,668.9l-2.66.56-2.66,1.65L780,672.2l-.52,2.74v1.62l-3.2,1.09L773.64,676l-1.06-.56-2.66,1.65v3.27l-.52,3.82v9.31l1.06,3.27,1.06,1.11v4.92l-2.12,1.62v3.83l1.58,1.11,3.2,2.72,3.17,1.64h3.2l3.18-.53,3.2-2.74,3.17-.55,3.18,1.09h2.66l4.26.55,2.66-1.09,1-.55h5.32l1.58,1.64.54,2.74-1.6,1.62v3.3l.54,2.18,2.66,2.74,4.23,2.73,4.26,2.18,6.89,3.3,4.26,1.09h3.18l3.2,1.09L840,734h2.66l4.77,1.09,4.24.56h2.14l2.63,1.09,2.66,1.09v1.09l-2.66.56-1.06.55-1.57,1.63-.54.55-.54,3.27-1.06,1.09-1.58,1.65,1.06,3.29-1.06,3.83,2.12,3.83v3.27l1.06.56.54-1.12,1.06-1.09h1.57l1.06-1.09v.56l2.14,1.62,1.58,1.12,1.6-.56,1.6-.56h1.06l2.66,2.21.51,1.62h3.72l2.66,1.11h2.14l.81.83-1.64.84-1.18-.62L873.87,769l-1,.51-1,2.59v2.07l-1,2.59-1,1.56-1.52,1v2.59l-3,1.54-3.52,2.09-3.52.5h-3.52l-3,2.09-1.52,3.09-.51,3.63-2,1V798l.51,1.55v5.19l-1,2.06-1.5-.5-1-.53-1.51-1-1,.5h-2l-1,1.06h-3l-1.52,2.06-.49,2.6-.51,2.06-.51,4.66v4.65l.51,2.09v2.06l1.51,2.07.49,1,1,1.56,1.51,3.62v2.07l.51,2.59.49,1.56.52,3.62,1,5.69v2.07l1,2.08,1,2.07,2,2.06,1,2.09,1,2.57v2.09l-.52,1.53-1,1.06-.49.5v1.56L846.2,872v2.06l1,2.09v1l-1,2.07-1,2.59.51,1.56,1.5.5,1,1,.49,1,.51,1.56,1,2.06v2.09l-1.51,2.06-.49.53,1,1,1,.51v1l-.51,1.56-1.49,1-2,1-1,1.56,1,1,1.52,1,1,1.56v5.69l.51,2.08,1,1,1.52,1,1,1.56.49,3.09-.49,1-1,.52-.51,1.56,1,1,1.51.5,1.5.53,1.51.5,1.52,1.06,1,.5,1,1.56,1,1.56,1.52.51h1l1-.51,1.52-.53,3-1.56h1.51l1,2.09,2,1,1.49,2.07h1l2.51,2.59,3,.51,2,1.55,4,1.56,3,1.56,3,2.07,4,1,.24.07-.19-.17,2.27-4.11c2,1.21,4.41,2,6,.4,3.12-3.21,4.08-6.43,6-4.69s3.13,2.72,2.17,5.19a29.72,29.72,0,0,1-3.13,5.44l1.69,3.21s-4.57,13.61,6.72,12.86,18-.49,25.46,2.48,14.41,9.89,14.41,9.89,3.12,3,8.65-1.24,6.72-6.18,8.16-6.18,7-.49,7-1.24,4.32-4.45,4.32-4.45-2.16-5.19,2.4-5.19,5.69-3.71,5.49-4.45S993,938.7,992,938.45s-4.57-5.69-1.93-5.69,6.25,1,7.69,0,19.45-13.85,19.45-13.85.49-7.42,6.73-8.9,7-2.47,9.61-1.24,3.84,7.17,5.28,7.42,3.12-3.21,6.49-3.21,3.12-.5,4.56.49,3.12,4.7,3.12,4.7,1.2,2.23,4.81,2,4.56,4.45,4.56,4.45,5.28,6.68,7.69,6.68,10.08,6.81,16.33,5.14,6.48-5.64,10.33-5.89,7.92-5.19,11.28-5.19,6,5.44,6,7.42,4.56,2.72,4.56,5.69,4.33,12.12,6.25,12.12,5,5.93,5.52,4.7.72-6.93,3.84-7.18,9.13.5,9.85-.74,2.4-3,3.6-3,1.45,4.46,1.45,4.46-1.69,8.4-.49,8.4,5.77-2.22,6-3.21,4.08-3.22,8.17-3.46,2.88-4.7,6-5.2,10.33-6.92,10.33.5V958s2.64,7.66,7,9.15,4.81,4,4.81,4a34.07,34.07,0,0,1,4.08-4.7c2.16-2,2.16-8.4,3.6-8.4s6,.74,6,.74,3.84.74,4.08-3.71,4.8-5.44,4.8-5.44A67.41,67.41,0,0,1,1211.32,942.41Z"/><text class="cls-39" transform="translate(865.39 681.92)">PAKISTAN<tspan x="-24.24" y="20.32">ADMINISTERED</tspan><tspan x="2.89" y="40.64">KASHMIR</tspan></text><text class="cls-40" transform="translate(1001.38 839.04)">INDIAN<tspan class="cls-41"><tspan x="-35.78" y="20.32">ADMINISTERED</tspan><tspan x="-8.65" y="40.64">KASHMIR</tspan></tspan></text><path class="cls-42" d="M910.32,940s1.07-4.31-1.39-6.3-6.29-1.69-6.6-2.15,2.46-6.76.77-7.84a29.07,29.07,0,0,0-6.46-2.61c-2.76-.92-5.37-4.46-6.3-7.22s-2.61-3.54-4.14-3.54-6.46-2.46-5.23-5.37,4.3-2.77,5.53-2.77,6.92-3.53,6.3-11.37.31-10.14-6.3-12.6-6.69-12.14-5.72-13.37,3.57-6,6.18-6.45,14.91-2.15,14-10.14-7.07-8-7.07-8S879,841,877.59,841s-4.3-2.46-4.3-2.46,7.84-6,7.84-11.52,2-12-2.16-12-10.9-2.45-10.9-2.45-.47-4.15,1.84-5.07,10.14-7.23,10.6-8.92,1.08-8.75,2.15-9.83,6.45.31,10.6-.46,12-8.76,15.06-8.76a46.35,46.35,0,0,1,14.9,2.92c5.53,2.15,11.68,8.3,14.6,8.3s11.68,1.84,15.21,1.84,11.68-1.69,12.91-.15,6.6,8,9.37,8.14,6,3.38,12.75,3.38,8.14,3.23,13.06,1.08,17-9.38,17-9.38,5.38-2.61,9.07-2.61a21.3,21.3,0,0,0,10.6-2.61c3.23-1.84,10.14-4.76,11.68-5.38s4.15,1.08,8.76,1.08,8,1.07,8-3.38,2.62-11.83,5.54-12a15.07,15.07,0,0,0,5.83-1.84"/><line class="cls-21" x1="793.57" y1="513.77" x2="793.57" y2="747.77"/></svg>