<svg id="svg-2018" xmlns="http://www.w3.org/2000/svg" viewBox="-100 0 1200 1650" preserveAspectRatio="xMidYMid"> <defs> <style>.cls-1, .cls-12, .cls-35{fill: #ccc;}.cls-2, .cls-22, .cls-28, .cls-39, .cls-40{fill: none; stroke-miterlimit: 10;}.cls-2{stroke: #f90; stroke-width: 4px;}.cls-3{font-size: 108.64px;}.cls-10, .cls-3{fill: #333;}.cls-10, .cls-13, .cls-16, .cls-23, .cls-29, .cls-3, .cls-34{font-family: OpenSans-Light, Open Sans;}.cls-4{letter-spacing: -0.04em;}.cls-5{font-size: 35px; font-family: OpenSans-Bold, Open Sans;}.cls-11, .cls-12, .cls-15, .cls-33, .cls-35, .cls-5{font-weight: 700;}.cls-6{letter-spacing: 0.02em;}.cls-7{letter-spacing: -0.04em;}.cls-8{letter-spacing: -0.02em;}.cls-9{letter-spacing: 0.02em;}.cls-10{font-size: 39.74px; letter-spacing: -0.04em;}.cls-11, .cls-33{font-size: 31.33px; fill: #f90;}.cls-11, .cls-12, .cls-33, .cls-35{font-family: OpenSans-ExtraBold, Open Sans;}.cls-11{letter-spacing: -0.02em;}.cls-12{font-size: 30.64px; letter-spacing: -0.04em;}.cls-13, .cls-16{font-size: 71.58px;}.cls-13, .cls-16, .cls-23, .cls-29, .cls-34{fill: #525252;}.cls-13, .cls-17{letter-spacing: -0.04em;}.cls-14, .cls-16{letter-spacing: -0.14em;}.cls-15{font-size: 46.3px; font-family: OpenSans-SemiBold, Open Sans; letter-spacing: -0.04em;}.cls-18, .cls-27, .cls-37{font-size: 56.2px; fill: #666; font-family: OpenSans-Regular, Open Sans;}.cls-18, .cls-38{letter-spacing: -0.06em;}.cls-19{letter-spacing: -0.14em;}.cls-20{letter-spacing: -0.1em;}.cls-21{letter-spacing: -0.16em;}.cls-22, .cls-28, .cls-39{stroke: #525252;}.cls-22{stroke-width: 1.02px;}.cls-23, .cls-29, .cls-34{font-size: 69.74px;}.cls-23, .cls-31{letter-spacing: -0.14em;}.cls-24, .cls-34{letter-spacing: -0.04em;}.cls-25{letter-spacing: -0.14em;}.cls-26, .cls-32{font-size: 32.31px;}.cls-26{letter-spacing: -0.04em;}.cls-27{letter-spacing: -0.06em;}.cls-28{stroke-width: 0.92px;}.cls-29{letter-spacing: -0.2em;}.cls-30{letter-spacing: -0.1em;}.cls-32{letter-spacing: -0.04em;}.cls-33{letter-spacing: -0.02em;}.cls-35{font-size: 29.74px; letter-spacing: -0.04em;}.cls-36{letter-spacing: -0.12em;}.cls-37{letter-spacing: -0.16em;}.cls-39{stroke-width: 0.86px;}.cls-40{stroke: #333; stroke-width: 0.67px;}</style> </defs> <title>Political Cartogram 2013</title> <g transform="matrix(1 0 0 1 -36 1)"> <g id="BALOCHISTAN" data-name="province"> <g id="NA-272"> <polygon class="cls-1" points="164.24 1245.79 139.26 1245.79 126.76 1267.43 139.26 1289.08 164.24 1289.08 176.74 1267.43 164.24 1245.79"/> </g> <g id="NA-271"> <polygon class="cls-1" points="164.24 1196.89 139.26 1196.89 126.76 1218.53 139.26 1240.17 164.24 1240.17 176.74 1218.53 164.24 1196.89"/> </g> <g id="NA-270"> <polygon class="cls-1" points="207.62 1123.58 182.63 1123.58 170.14 1145.22 182.63 1166.86 207.62 1166.86 220.11 1145.22 207.62 1123.58"/> </g> <g id="NA-269"> <polygon class="cls-1" points="250.88 1097.54 225.89 1097.54 213.4 1119.18 225.89 1140.82 250.88 1140.82 263.38 1119.18 250.88 1097.54"/> </g> <g id="NA-268"> <polygon class="cls-1" points="250.88 1048.36 225.89 1048.36 213.4 1070 225.89 1091.64 250.88 1091.64 263.38 1070 250.88 1048.36"/> </g> <g id="NA-267"> <polygon class="cls-1" points="337.82 898.89 312.83 898.89 300.33 920.53 312.83 942.17 337.82 942.17 350.31 920.53 337.82 898.89"/> </g> <g id="NA-266"> <polygon class="cls-1" points="294.13 973.63 269.14 973.63 256.64 995.27 269.14 1016.91 294.13 1016.91 306.62 995.27 294.13 973.63"/> </g> <g id="NA-265"> <polygon class="cls-1" points="337.82 848.99 312.83 848.99 300.33 870.63 312.83 892.27 337.82 892.27 350.31 870.63 337.82 848.99"/> </g> <g id="NA-264"> <polygon class="cls-1" points="337.82 799.1 312.83 799.1 300.33 820.74 312.83 842.38 337.82 842.38 350.31 820.74 337.82 799.1"/> </g> <g id="NA-263"> <polygon class="cls-1" points="382.34 773.4 357.35 773.4 344.85 795.04 357.35 816.68 382.34 816.68 394.83 795.04 382.34 773.4"/> </g> <g id="NA-262"> <polygon class="cls-1" points="250.88 950.01 225.89 950.01 213.4 971.65 225.89 993.29 250.88 993.29 263.38 971.65 250.88 950.01"/> </g> <g id="NA-261"> <polygon class="cls-1" points="294.13 924.34 269.14 924.34 256.64 945.98 269.14 967.62 294.13 967.62 306.62 945.98 294.13 924.34"/> </g> <g id="NA-260"> <polygon class="cls-1" points="164.24 1147.98 139.26 1147.98 126.76 1169.62 139.26 1191.26 164.24 1191.26 176.74 1169.62 164.24 1147.98"/> </g> <g id="NA-259"> <polygon class="cls-1" points="250.88 999.19 225.89 999.19 213.4 1020.83 225.89 1042.47 250.88 1042.47 263.38 1020.83 250.88 999.19"/> </g> </g> <g id="SINDH" data-name="province"> <g id="NA-258"> <polygon class="cls-1" points="121.31 1270.24 96.32 1270.24 83.83 1291.88 96.32 1313.52 121.31 1313.52 133.8 1291.88 121.31 1270.24"/> </g> <g id="NA-257"> <polygon class="cls-1" points="206.71 1368.46 181.72 1368.46 169.23 1390.1 181.72 1411.74 206.71 1411.74 219.21 1390.1 206.71 1368.46"/> </g> <g id="NA-256"> <polygon class="cls-1" points="206.71 1465.51 181.72 1465.51 169.23 1487.15 181.72 1508.8 206.71 1508.8 219.21 1487.15 206.71 1465.51"/> </g> <g id="NA-255"> <polygon class="cls-1" points="250.88 1490.93 225.89 1490.93 213.4 1512.57 225.89 1534.21 250.88 1534.21 263.38 1512.57 250.88 1490.93"/> </g> <g id="NA-254"> <polygon class="cls-1" points="250.88 1540.11 225.89 1540.11 213.4 1561.75 225.89 1583.39 250.88 1583.39 263.38 1561.75 250.88 1540.11"/> </g> <g id="NA-253"> <polygon class="cls-1" points="164.24 1392.51 139.26 1392.51 126.76 1414.15 139.26 1435.79 164.24 1435.79 176.74 1414.15 164.24 1392.51"/> </g> <g id="NA-252"> <polygon class="cls-1" points="205.8 1514.5 180.81 1514.5 168.32 1536.14 180.81 1557.78 205.8 1557.78 218.3 1536.14 205.8 1514.5"/> </g> <g id="NA-251"> <polygon class="cls-1" points="206 1563.87 181.01 1563.87 168.52 1585.51 181.01 1607.15 206 1607.15 218.49 1585.51 206 1563.87"/> </g> <g id="NA-250"> <polygon class="cls-1" points="164.24 1539.23 139.26 1539.23 126.76 1560.87 139.26 1582.51 164.24 1582.51 176.74 1560.87 164.24 1539.23"/> </g> <g id="NA-249"> <polygon class="cls-1" points="121.31 1514.89 96.32 1514.89 83.83 1536.53 96.32 1558.17 121.31 1558.17 133.8 1536.53 121.31 1514.89"/> </g> <g id="NA-248"> <polygon class="cls-1" points="121.31 1465.96 96.32 1465.96 83.83 1487.6 96.32 1509.24 121.31 1509.24 133.8 1487.6 121.31 1465.96"/> </g> <g id="NA-247"> <polygon class="cls-1" points="164.24 1490.32 139.26 1490.32 126.76 1511.96 139.26 1533.61 164.24 1533.61 176.74 1511.96 164.24 1490.32"/> </g> <g id="NA-246"> <polygon class="cls-1" points="164.24 1441.42 139.26 1441.42 126.76 1463.06 139.26 1484.7 164.24 1484.7 176.74 1463.06 164.24 1441.42"/> </g> <g id="NA-245"> <polygon class="cls-1" points="121.31 1417.03 96.32 1417.03 83.83 1438.67 96.32 1460.31 121.31 1460.31 133.8 1438.67 121.31 1417.03"/> </g> <g id="NA-244"> <polygon class="cls-1" points="250.88 1441.76 225.89 1441.76 213.4 1463.4 225.89 1485.04 250.88 1485.04 263.38 1463.4 250.88 1441.76"/> </g> <g id="NA-243"> <polygon class="cls-1" points="121.31 1319.17 96.32 1319.17 83.83 1340.81 96.32 1362.45 121.31 1362.45 133.8 1340.81 121.31 1319.17"/> </g> <g id="NA-242"> <polygon class="cls-1" points="78.7 1391.47 53.72 1391.47 41.22 1413.11 53.72 1434.76 78.7 1434.76 91.2 1413.11 78.7 1391.47"/> </g> <g id="NA-241"> <polygon class="cls-1" points="121.31 1368.1 96.32 1368.1 83.83 1389.74 96.32 1411.38 121.31 1411.38 133.8 1389.74 121.31 1368.1"/> </g> <g id="NA-240"> <polygon class="cls-1" points="78.7 1440.46 53.72 1440.46 41.22 1462.1 53.72 1483.74 78.7 1483.74 91.2 1462.1 78.7 1440.46"/> </g> <g id="NA-239"> <polygon class="cls-1" points="78.7 1489.44 53.72 1489.44 41.22 1511.08 53.72 1532.72 78.7 1532.72 91.2 1511.08 78.7 1489.44"/> </g> <g id="NA-238"> <polygon class="cls-1" points="337.63 1543.07 312.64 1543.07 300.14 1564.71 312.64 1586.35 337.63 1586.35 350.12 1564.71 337.63 1543.07"/> </g> <g id="NA-237"> <polygon class="cls-1" points="294.47 1518.02 269.49 1518.02 256.99 1539.66 269.49 1561.3 294.47 1561.3 306.97 1539.66 294.47 1518.02"/> </g> <g id="NA-236"> <polygon class="cls-1" points="337.63 1345.5 312.64 1345.5 300.14 1367.14 312.64 1388.79 337.63 1388.79 350.12 1367.14 337.63 1345.5"/> </g> <g id="NA-235"> <polygon class="cls-1" points="380.85 1371.24 355.86 1371.24 343.37 1392.88 355.86 1414.52 380.85 1414.52 393.35 1392.88 380.85 1371.24"/> </g> <g id="NA-234"> <polygon class="cls-1" points="380.85 1420.5 355.86 1420.5 343.37 1442.14 355.86 1463.79 380.85 1463.79 393.35 1442.14 380.85 1420.5"/> </g> <g id="NA-233"> <polygon class="cls-1" points="207.62 1269.62 182.63 1269.62 170.14 1291.26 182.63 1312.9 207.62 1312.9 220.11 1291.26 207.62 1269.62"/> </g> <g id="NA-232"> <polygon class="cls-1" points="164.24 1343.61 139.26 1343.61 126.76 1365.25 139.26 1386.89 164.24 1386.89 176.74 1365.25 164.24 1343.61"/> </g> <g id="NA-231"> <polygon class="cls-1" points="250.88 1343.41 225.89 1343.41 213.4 1365.05 225.89 1386.69 250.88 1386.69 263.38 1365.05 250.88 1343.41"/> </g> <g id="NA-230"> <polygon class="cls-1" points="424.4 1396.53 399.42 1396.53 386.92 1418.17 399.42 1439.81 424.4 1439.81 436.9 1418.17 424.4 1396.53"/> </g> <g id="NA-229"> <polygon class="cls-1" points="423.46 1493.89 398.47 1493.89 385.98 1515.53 398.47 1537.17 423.46 1537.17 435.95 1515.53 423.46 1493.89"/> </g> <g id="NA-228"> <polygon class="cls-1" points="423.46 1445.63 398.47 1445.63 385.98 1467.27 398.47 1488.91 423.46 1488.91 435.95 1467.27 423.46 1445.63"/> </g> <g id="NA-227"> <polygon class="cls-1" points="381.76 1519.2 356.77 1519.2 344.28 1540.84 356.77 1562.48 381.76 1562.48 394.25 1540.84 381.76 1519.2"/> </g> <g id="NA-226"> <polygon class="cls-1" points="380.6 1470.31 355.61 1470.31 343.12 1491.94 355.61 1513.59 380.6 1513.59 393.1 1491.94 380.6 1470.31"/> </g> <g id="NA-225"> <polygon class="cls-1" points="380.85 1568.09 355.86 1568.09 343.37 1589.73 355.86 1611.37 380.85 1611.37 393.35 1589.73 380.85 1568.09"/> </g> <g id="NA-224"> <polygon class="cls-1" points="337.63 1494.13 312.64 1494.13 300.14 1515.77 312.64 1537.41 337.63 1537.41 350.12 1515.77 337.63 1494.13"/> </g> <g id="NA-223"> <polygon class="cls-1" points="337.63 1444.29 312.64 1444.29 300.14 1465.93 312.64 1487.57 337.63 1487.57 350.12 1465.93 337.63 1444.29"/> </g> <g id="NA-222"> <polygon class="cls-1" points="295.38 1467.96 270.39 1467.96 257.9 1489.61 270.39 1511.24 295.38 1511.24 307.88 1489.61 295.38 1467.96"/> </g> <g id="NA-221"> <polygon class="cls-1" points="337.63 1394.44 312.64 1394.44 300.14 1416.08 312.64 1437.72 337.63 1437.72 350.12 1416.08 337.63 1394.44"/> </g> <g id="NA-220"> <polygon class="cls-1" points="207.62 1417.44 182.63 1417.44 170.14 1439.08 182.63 1460.72 207.62 1460.72 220.11 1439.08 207.62 1417.44"/> </g> <g id="NA-219"> <polygon class="cls-1" points="250.88 1392.58 225.89 1392.58 213.4 1414.22 225.89 1435.86 250.88 1435.86 263.38 1414.22 250.88 1392.58"/> </g> <g id="NA-218"> <polygon class="cls-1" points="206.71 1319.47 181.72 1319.47 169.23 1341.12 181.72 1362.76 206.71 1362.76 219.21 1341.12 206.71 1319.47"/> </g> <g id="NA-217"> <polygon class="cls-1" points="293.55 1222.92 268.56 1222.92 256.06 1244.56 268.56 1266.2 293.55 1266.2 306.04 1244.56 293.55 1222.92"/> </g> <g id="NA-216"> <polygon class="cls-1" points="380.85 1321.98 355.86 1321.98 343.37 1343.62 355.86 1365.26 380.85 1365.26 393.35 1343.62 380.85 1321.98"/> </g> <g id="NA-215"> <polygon class="cls-1" points="294.47 1271.37 269.49 1271.37 256.99 1293.01 269.49 1314.65 294.47 1314.65 306.97 1293.01 294.47 1271.37"/> </g> <g id="NA-214"> <polygon class="cls-1" points="294.47 1418.82 269.49 1418.82 256.99 1440.45 269.49 1462.1 294.47 1462.1 306.97 1440.45 294.47 1418.82"/> </g> <g id="NA-213"> <polygon class="cls-1" points="337.63 1296.57 312.64 1296.57 300.14 1318.21 312.64 1339.85 337.63 1339.85 350.12 1318.21 337.63 1296.57"/> </g> <g id="NA-212"> <polygon class="cls-1" points="294.47 1320.52 269.49 1320.52 256.99 1342.16 269.49 1363.8 294.47 1363.8 306.97 1342.16 294.47 1320.52"/> </g> <g id="NA-211"> <polygon class="cls-1" points="294.47 1369.66 269.49 1369.66 256.99 1391.31 269.49 1412.95 294.47 1412.95 306.97 1391.31 294.47 1369.66"/> </g> <g id="NA-210"> <polygon class="cls-1" points="294.13 1174.11 269.14 1174.11 256.64 1195.75 269.14 1217.39 294.13 1217.39 306.62 1195.75 294.13 1174.11"/> </g> <g id="NA-209"> <polygon class="cls-1" points="294.13 1122.88 269.14 1122.88 256.64 1144.52 269.14 1166.16 294.13 1166.16 306.62 1144.52 294.13 1122.88"/> </g> <g id="NA-208"> <polygon class="cls-1" points="250.88 1146.71 225.89 1146.71 213.4 1168.35 225.89 1189.99 250.88 1189.99 263.38 1168.35 250.88 1146.71"/> </g> <g id="NA-207"> <polygon class="cls-1" points="207.62 1172.26 182.63 1172.26 170.14 1193.9 182.63 1215.54 207.62 1215.54 220.11 1193.9 207.62 1172.26"/> </g> <g id="NA-206"> <polygon class="cls-1" points="207.62 1220.94 182.63 1220.94 170.14 1242.58 182.63 1264.22 207.62 1264.22 220.11 1242.58 207.62 1220.94"/> </g> <g id="NA-205"> <polygon class="cls-1" points="164.24 1294.7 139.26 1294.7 126.76 1316.34 139.26 1337.98 164.24 1337.98 176.74 1316.34 164.24 1294.7"/> </g> <g id="NA-204"> <polygon class="cls-1" points="250.88 1294.23 225.89 1294.23 213.4 1315.88 225.89 1337.52 250.88 1337.52 263.38 1315.88 250.88 1294.23"/> </g> <g id="NA-203"> <polygon class="cls-1" points="250.88 1245.06 225.89 1245.06 213.4 1266.7 225.89 1288.34 250.88 1288.34 263.38 1266.7 250.88 1245.06"/> </g> <g id="NA-202"> <polygon class="cls-1" points="250.88 1195.88 225.89 1195.88 213.4 1217.53 225.89 1239.17 250.88 1239.17 263.38 1217.53 250.88 1195.88"/> </g> <g id="NA-201"> <polygon class="cls-1" points="380.85 1223.45 355.86 1223.45 343.37 1245.1 355.86 1266.74 380.85 1266.74 393.35 1245.1 380.85 1223.45"/> </g> <g id="NA-200"> <polygon class="cls-1" points="338.05 1198.35 313.06 1198.35 300.56 1219.99 313.06 1241.63 338.05 1241.63 350.54 1219.99 338.05 1198.35"/> </g> <g id="NA-199"> <polygon class="cls-1" points="380.85 1272.72 355.86 1272.72 343.37 1294.36 355.86 1316 380.85 1316 393.35 1294.36 380.85 1272.72"/> </g> <g id="NA-198"> <polygon class="cls-1" points="338.05 1247.5 313.06 1247.5 300.56 1269.14 313.06 1290.78 338.05 1290.78 350.54 1269.14 338.05 1247.5"/> </g> </g> <g id="PUNJAB" data-name="province"> <g id="NA-197"> <polygon class="cls-1" points="337.63 1148.85 312.64 1148.85 300.14 1170.48 312.64 1192.13 337.63 1192.13 350.12 1170.48 337.63 1148.85"/> </g> <g id="NA-196"> <polygon class="cls-1" points="424.81 1247.48 399.82 1247.48 387.33 1269.12 399.82 1290.76 424.81 1290.76 437.31 1269.12 424.81 1247.48"/> </g> <g id="NA-195"> <polygon class="cls-1" points="424.81 1197.19 399.82 1197.19 387.33 1218.83 399.82 1240.47 424.81 1240.47 437.31 1218.83 424.81 1197.19"/> </g> <g id="NA-194"> <polygon class="cls-1" points="380.85 1174.19 355.86 1174.19 343.37 1195.83 355.86 1217.47 380.85 1217.47 393.35 1195.83 380.85 1174.19"/> </g> <g id="NA-193"> <polygon class="cls-1" points="424.81 1297.77 399.82 1297.77 387.33 1319.41 399.82 1341.05 424.81 1341.05 437.31 1319.41 424.81 1297.77"/> </g> <g id="NA-192"> <polygon class="cls-1" points="381.47 1124.65 356.48 1124.65 343.99 1146.29 356.48 1167.93 381.47 1167.93 393.97 1146.29 381.47 1124.65"/> </g> <g id="NA-191"> <polygon class="cls-1" points="558.58 1320.92 533.59 1320.92 521.1 1342.56 533.59 1364.2 558.58 1364.2 571.08 1342.56 558.58 1320.92"/> </g> <g id="NA-190"> <polygon class="cls-1" points="558.58 1271.16 533.59 1271.16 521.1 1292.8 533.59 1314.44 558.58 1314.44 571.08 1292.8 558.58 1271.16"/> </g> <g id="NA-189"> <polygon class="cls-1" points="603.01 1247.42 578.03 1247.42 565.53 1269.06 578.03 1290.7 603.01 1290.7 615.51 1269.06 603.01 1247.42"/> </g> <g id="NA-188"> <polygon class="cls-1" points="603.01 1197.06 578.03 1197.06 565.53 1218.7 578.03 1240.34 603.01 1240.34 615.51 1218.7 603.01 1197.06"/> </g> <g id="NA-187"> <polygon class="cls-1" points="424.81 1348.06 399.82 1348.06 387.33 1369.7 399.82 1391.34 424.81 1391.34 437.31 1369.7 424.81 1348.06"/> </g> <g id="NA-186"> <polygon class="cls-1" points="514.68 1296.13 489.69 1296.13 477.2 1317.77 489.69 1339.41 514.68 1339.41 527.18 1317.77 514.68 1296.13"/> </g> <g id="NA-185"> <polygon class="cls-1" points="470 1370.75 445.01 1370.75 432.52 1392.39 445.01 1414.03 470 1414.03 482.5 1392.39 470 1370.75"/> </g> <g id="NA-184"> <polygon class="cls-1" points="514.68 1345.25 489.69 1345.25 477.2 1366.89 489.69 1388.53 514.68 1388.53 527.18 1366.89 514.68 1345.25"/> </g> <g id="NA-183"> <polygon class="cls-1" points="470 1320.66 445.01 1320.66 432.52 1342.3 445.01 1363.94 470 1363.94 482.5 1342.3 470 1320.66"/> </g> <g id="NA-182"> <polygon class="cls-1" points="381.99 824.91 357 824.91 344.5 846.55 357 868.19 381.99 868.19 394.48 846.55 381.99 824.91"/> </g> <g id="NA-181"> <polygon class="cls-1" points="425.72 798.97 400.73 798.97 388.24 820.61 400.73 842.25 425.72 842.25 438.21 820.61 425.72 798.97"/> </g> <g id="NA-180"> <polygon class="cls-1" points="337.82 1098.45 312.83 1098.45 300.33 1120.1 312.83 1141.74 337.82 1141.74 350.31 1120.1 337.82 1098.45"/> </g> <g id="NA-179"> <polygon class="cls-1" points="337.82 1048.56 312.83 1048.56 300.33 1070.2 312.83 1091.84 337.82 1091.84 350.31 1070.2 337.82 1048.56"/> </g> <g id="NA-178"> <polygon class="cls-1" points="381.26 1073.13 356.28 1073.13 343.78 1094.77 356.28 1116.41 381.26 1116.41 393.76 1094.77 381.26 1073.13"/> </g> <g id="NA-177"> <polygon class="cls-1" points="381.99 925.02 357 925.02 344.5 946.66 357 968.3 381.99 968.3 394.48 946.66 381.99 925.02"/> </g> <g id="NA-176"> <polygon class="cls-1" points="381.99 874.97 357 874.97 344.5 896.61 357 918.25 381.99 918.25 394.48 896.61 381.99 874.97"/> </g> <g id="NA-175"> <polygon class="cls-1" points="294.13 1072.21 269.14 1072.21 256.64 1093.85 269.14 1115.49 294.13 1115.49 306.62 1093.85 294.13 1072.21"/> </g> <g id="NA-174"> <polygon class="cls-1" points="294.13 1022.92 269.14 1022.92 256.64 1044.56 269.14 1066.2 294.13 1066.2 306.62 1044.56 294.13 1022.92"/> </g> <g id="NA-173"> <polygon class="cls-1" points="381.08 974.17 356.09 974.17 343.6 995.81 356.09 1017.45 381.08 1017.45 393.57 995.81 381.08 974.17"/> </g> <g id="NA-172"> <polygon class="cls-1" points="337.82 998.67 312.83 998.67 300.33 1020.31 312.83 1041.95 337.82 1041.95 350.31 1020.31 337.82 998.67"/> </g> <g id="NA-171"> <polygon class="cls-1" points="337.82 948.78 312.83 948.78 300.33 970.42 312.83 992.06 337.82 992.06 350.31 970.42 337.82 948.78"/> </g> <g id="NA-170"> <polygon class="cls-1" points="470 1169.5 445.01 1169.5 432.52 1191.14 445.01 1212.78 470 1212.78 482.5 1191.14 470 1169.5"/> </g> <g id="NA-169"> <polygon class="cls-1" points="514.68 1146.98 489.69 1146.98 477.2 1168.62 489.69 1190.26 514.68 1190.26 527.18 1168.62 514.68 1146.98"/> </g> <g id="NA-168"> <polygon class="cls-1" points="514.68 1196.09 489.69 1196.09 477.2 1217.73 489.69 1239.37 514.68 1239.37 527.18 1217.73 514.68 1196.09"/> </g> <g id="NA-167"> <polygon class="cls-1" points="558.58 1171.64 533.59 1171.64 521.1 1193.28 533.59 1214.92 558.58 1214.92 571.08 1193.28 558.58 1171.64"/> </g> <g id="NA-166"> <polygon class="cls-1" points="603.01 1147.75 578.03 1147.75 565.53 1169.39 578.03 1191.03 603.01 1191.03 615.51 1169.39 603.01 1147.75"/> </g> <g id="NA-165"> <polygon class="cls-1" points="646.53 1123.28 621.54 1123.28 609.05 1144.92 621.54 1166.56 646.53 1166.56 659.02 1144.92 646.53 1123.28"/> </g> <g id="NA-164"> <polygon class="cls-1" points="603.01 1098.01 578.03 1098.01 565.53 1119.65 578.03 1141.29 603.01 1141.29 615.51 1119.65 603.01 1098.01"/> </g> <g id="NA-163"> <polygon class="cls-1" points="515.21 1096.55 490.22 1096.55 477.72 1118.19 490.22 1139.83 515.21 1139.83 527.7 1118.19 515.21 1096.55"/> </g> <g id="NA-162"> <polygon class="cls-1" points="470 1069.87 445.01 1069.87 432.52 1091.51 445.01 1113.15 470 1113.15 482.5 1091.51 470 1069.87"/> </g> <g id="NA-161"> <polygon class="cls-1" points="558.59 1121.57 533.61 1121.57 521.11 1143.21 533.61 1164.85 558.59 1164.85 571.09 1143.21 558.59 1121.57"/> </g> <g id="NA-160"> <polygon class="cls-1" points="558.59 1071.5 533.61 1071.5 521.11 1093.14 533.61 1114.78 558.59 1114.78 571.09 1093.14 558.59 1071.5"/> </g> <g id="NA-159"> <polygon class="cls-1" points="425.72 1046.46 400.73 1046.46 388.24 1068.1 400.73 1089.74 425.72 1089.74 438.21 1068.1 425.72 1046.46"/> </g> <g id="NA-158"> <polygon class="cls-1" points="470 1020.5 445.01 1020.5 432.52 1042.14 445.01 1063.78 470 1063.78 482.5 1042.14 470 1020.5"/> </g> <g id="NA-157"> <polygon class="cls-1" points="425.72 996.23 400.73 996.23 388.24 1017.87 400.73 1039.51 425.72 1039.51 438.21 1017.87 425.72 996.23"/> </g> <g id="NA-156"> <polygon class="cls-1" points="425.72 946.91 400.73 946.91 388.24 968.56 400.73 990.2 425.72 990.2 438.21 968.56 425.72 946.91"/> </g> <g id="NA-155"> <polygon class="cls-1" points="558.58 1221.4 533.59 1221.4 521.1 1243.04 533.59 1264.68 558.58 1264.68 571.08 1243.04 558.58 1221.4"/> </g> <g id="NA-154"> <polygon class="cls-1" points="514.68 1246.11 489.69 1246.11 477.2 1267.75 489.69 1289.39 514.68 1289.39 527.18 1267.75 514.68 1246.11"/> </g> <g id="NA-153"> <polygon class="cls-1" points="470 1270.58 445.01 1270.58 432.52 1292.22 445.01 1313.86 470 1313.86 482.5 1292.22 470 1270.58"/> </g> <g id="NA-152"> <polygon class="cls-1" points="470 1220.49 445.01 1220.49 432.52 1242.13 445.01 1263.77 470 1263.77 482.5 1242.13 470 1220.49"/> </g> <g id="NA-151"> <polygon class="cls-1" points="381.99 1023.32 357 1023.32 344.5 1044.96 357 1066.6 381.99 1066.6 394.48 1044.96 381.99 1023.32"/> </g> <g id="NA-150"> <polygon class="cls-1" points="470 1119.23 445.01 1119.23 432.52 1140.87 445.01 1162.51 470 1162.51 482.5 1140.87 470 1119.23"/> </g> <g id="NA-149"> <polygon class="cls-1" points="425.72 1096.68 400.73 1096.68 388.24 1118.32 400.73 1139.96 425.72 1139.96 438.21 1118.32 425.72 1096.68"/> </g> <g id="NA-148"> <polygon class="cls-1" points="425.72 1146.9 400.73 1146.9 388.24 1168.54 400.73 1190.18 425.72 1190.18 438.21 1168.54 425.72 1146.9"/> </g> <g id="NA-147"> <polygon class="cls-1" points="688.87 1100.08 663.88 1100.08 651.38 1121.72 663.88 1143.36 688.87 1143.36 701.36 1121.72 688.87 1100.08"/> </g> <g id="NA-146"> <polygon class="cls-1" points="646.53 1073.58 621.54 1073.58 609.05 1095.22 621.54 1116.86 646.53 1116.86 659.02 1095.22 646.53 1073.58"/> </g> <g id="NA-145"> <polygon class="cls-1" points="603.01 1048.27 578.03 1048.27 565.53 1069.91 578.03 1091.55 603.01 1091.55 615.51 1069.91 603.01 1048.27"/> </g> <g id="NA-144"> <polygon class="cls-1" points="558.59 1021.43 533.61 1021.43 521.11 1043.07 533.61 1064.71 558.59 1064.71 571.09 1043.07 558.59 1021.43"/> </g> <g id="NA-143"> <polygon class="cls-1" points="603.01 998.53 578.03 998.53 565.53 1020.17 578.03 1041.81 603.01 1041.81 615.51 1020.17 603.01 998.53"/> </g> <g id="NA-142"> <polygon class="cls-1" points="646.53 974.17 621.54 974.17 609.05 995.81 621.54 1017.45 646.53 1017.45 659.02 995.81 646.53 974.17"/> </g> <g id="NA-141"> <polygon class="cls-1" points="646.53 1023.87 621.54 1023.87 609.05 1045.51 621.54 1067.15 646.53 1067.15 659.02 1045.51 646.53 1023.87"/> </g> <g id="NA-140"> <polygon class="cls-1" points="688.87 1049.99 663.88 1049.99 651.38 1071.63 663.88 1093.27 688.87 1093.27 701.36 1071.63 688.87 1049.99"/> </g> <g id="NA-139"> <polygon class="cls-1" points="733.45 1024.31 708.46 1024.31 695.96 1045.95 708.46 1067.59 733.45 1067.59 745.94 1045.95 733.45 1024.31"/> </g> <g id="NA-138"> <polygon class="cls-1" points="733.45 974.52 708.46 974.52 695.96 996.16 708.46 1017.8 733.45 1017.8 745.94 996.16 733.45 974.52"/> </g> <g id="NA-137"> <polygon class="cls-1" points="603.01 749.83 578.03 749.83 565.53 771.47 578.03 793.11 603.01 793.11 615.51 771.47 603.01 749.83"/> </g> <g id="NA-136"> <polygon class="cls-1" points="646.53 825.06 621.54 825.06 609.05 846.7 621.54 868.34 646.53 868.34 659.02 846.7 646.53 825.06"/> </g> <g id="NA-135"> <polygon class="cls-1" points="819.43 827.32 794.44 827.32 781.95 848.96 794.44 870.6 819.43 870.6 831.92 848.96 819.43 827.32"/> </g> <g id="NA-134"> <polygon class="cls-1" points="646.53 775.36 621.54 775.36 609.05 797 621.54 818.64 646.53 818.64 659.02 797 646.53 775.36"/> </g> <g id="NA-133"> <polygon class="cls-1" points="689.77 750.35 664.79 750.35 652.29 771.99 664.79 793.63 689.77 793.63 702.27 771.99 689.77 750.35"/> </g> <g id="NA-132"> <polygon class="cls-1" points="603.01 948.79 578.03 948.79 565.53 970.43 578.03 992.07 603.01 992.07 615.51 970.43 603.01 948.79"/> </g> <g id="NA-131"> <polygon class="cls-1" points="861.62 801.4 836.63 801.4 824.13 823.04 836.63 844.68 861.62 844.68 874.11 823.04 861.62 801.4"/> </g> <g id="NA-130"> <polygon class="cls-1" points="819.43 876.87 794.44 876.87 781.95 898.51 794.44 920.15 819.43 920.15 831.92 898.51 819.43 876.87"/> </g> <g id="NA-129"> <polygon class="cls-1" points="733.45 924.74 708.46 924.74 695.96 946.38 708.46 968.02 733.45 968.02 745.94 946.38 733.45 924.74"/> </g> <g id="NA-128"> <polygon class="cls-1" points="689.77 999.89 664.79 999.89 652.29 1021.53 664.79 1043.18 689.77 1043.18 702.27 1021.53 689.77 999.89"/> </g> <g id="NA-127"> <polygon class="cls-1" points="689.77 949.8 664.79 949.8 652.29 971.45 664.79 993.09 689.77 993.09 702.27 971.45 689.77 949.8"/> </g> <g id="NA-126"> <polygon class="cls-1" points="689.77 900.62 664.79 900.62 652.29 922.26 664.79 943.9 689.77 943.9 702.27 922.26 689.77 900.62"/> </g> <g id="NA-125"> <polygon class="cls-1" points="775.59 900.36 750.6 900.36 738.1 922 750.6 943.64 775.59 943.64 788.08 922 775.59 900.36"/> </g> <g id="NA-124"> <polygon class="cls-1" points="775.59 851.25 750.6 851.25 738.1 872.89 750.6 894.53 775.59 894.53 788.08 872.89 775.59 851.25"/> </g> <g id="NA-123"> <polygon class="cls-1" points="733.45 825.17 708.46 825.17 695.96 846.81 708.46 868.46 733.45 868.46 745.94 846.81 733.45 825.17"/> </g> <g id="NA-122"> <polygon class="cls-1" points="733.45 874.96 708.46 874.96 695.96 896.6 708.46 918.24 733.45 918.24 745.94 896.6 733.45 874.96"/> </g> <g id="NA-121"> <polygon class="cls-1" points="646.53 924.47 621.54 924.47 609.05 946.11 621.54 967.75 646.53 967.75 659.02 946.11 646.53 924.47"/> </g> <g id="NA-120"> <polygon class="cls-1" points="646.53 874.76 621.54 874.76 609.05 896.4 621.54 918.04 646.53 918.04 659.02 896.4 646.53 874.76"/> </g> <g id="NA-119"> <polygon class="cls-1" points="689.77 850.53 664.79 850.53 652.29 872.17 664.79 893.81 689.77 893.81 702.27 872.17 689.77 850.53"/> </g> <g id="NA-118"> <polygon class="cls-1" points="689.77 800.44 664.79 800.44 652.29 822.08 664.79 843.72 689.77 843.72 702.27 822.08 689.77 800.44"/> </g> <g id="NA-117"> <polygon class="cls-1" points="862.36 753.31 837.37 753.31 824.88 774.95 837.37 796.59 862.36 796.59 874.86 774.95 862.36 753.31"/> </g> <g id="NA-116"> <polygon class="cls-1" points="904.43 728.8 879.44 728.8 866.95 750.44 879.44 772.08 904.43 772.08 916.92 750.44 904.43 728.8"/> </g> <g id="NA-115"> <polygon class="cls-1" points="862.36 703.53 837.37 703.53 824.88 725.17 837.37 746.81 862.36 746.81 874.86 725.17 862.36 703.53"/> </g> <g id="NA-114"> <polygon class="cls-1" points="862.36 653.76 837.37 653.76 824.88 675.4 837.37 697.04 862.36 697.04 874.86 675.4 862.36 653.76"/> </g> <g id="NA-113"> <polygon class="cls-1" points="819.43 728.21 794.44 728.21 781.95 749.85 794.44 771.49 819.43 771.49 831.92 749.85 819.43 728.21"/> </g> <g id="NA-112"> <polygon class="cls-1" points="776.49 652.99 751.5 652.99 739.01 674.63 751.5 696.27 776.49 696.27 788.99 674.63 776.49 652.99"/> </g> <g id="NA-111"> <polygon class="cls-1" points="819.43 629.11 794.44 629.11 781.95 650.75 794.44 672.39 819.43 672.39 831.92 650.75 819.43 629.11"/> </g> <g id="NA-110"> <polygon class="cls-1" points="819.43 678.66 794.44 678.66 781.95 700.3 794.44 721.94 819.43 721.94 831.92 700.3 819.43 678.66"/> </g> <g id="NA-109"> <polygon class="cls-1" points="690.68 650.17 665.69 650.17 653.2 671.81 665.69 693.45 690.68 693.45 703.18 671.81 690.68 650.17"/> </g> <g id="NA-108"> <polygon class="cls-1" points="646.53 626.24 621.54 626.24 609.05 647.88 621.54 669.52 646.53 669.52 659.02 647.88 646.53 626.24"/> </g> <g id="NA-107"> <polygon class="cls-1" points="733.45 576.26 708.46 576.26 695.96 597.9 708.46 619.54 733.45 619.54 745.94 597.9 733.45 576.26"/> </g> <g id="NA-106"> <polygon class="cls-1" points="690.68 600.08 665.69 600.08 653.2 621.72 665.69 643.36 690.68 643.36 703.18 621.72 690.68 600.08"/> </g> <g id="NA-105"> <polygon class="cls-1" points="733.45 626.04 708.46 626.04 695.96 647.68 708.46 669.32 733.45 669.32 745.94 647.68 733.45 626.04"/> </g> <g id="NA-104"> <polygon class="cls-1" points="778.31 602.97 753.32 602.97 740.83 624.61 753.32 646.25 778.31 646.25 790.8 624.61 778.31 602.97"/> </g> <g id="NA-103"> <polygon class="cls-1" points="646.53 725.65 621.54 725.65 609.05 747.29 621.54 768.93 646.53 768.93 659.02 747.29 646.53 725.65"/> </g> <g id="NA-102"> <polygon class="cls-1" points="690.68 700.26 665.69 700.26 653.2 721.9 665.69 743.54 690.68 743.54 703.18 721.9 690.68 700.26"/> </g> <g id="NA-101"> <polygon class="cls-1" points="733.45 675.83 708.46 675.83 695.96 697.47 708.46 719.11 733.45 719.11 745.94 697.47 733.45 675.83"/> </g> <g id="NA-100"> <polygon class="cls-1" points="733.45 775.39 708.46 775.39 695.96 797.03 708.46 818.67 733.45 818.67 745.94 797.03 733.45 775.39"/> </g> <g id="NA-99"> <polygon class="cls-1" points="819.43 777.76 794.44 777.76 781.95 799.4 794.44 821.04 819.43 821.04 831.92 799.4 819.43 777.76"/> </g> <g id="NA-98"> <polygon class="cls-1" points="775.59 801.23 750.6 801.23 738.1 822.87 750.6 844.51 775.59 844.51 788.08 822.87 775.59 801.23"/> </g> <g id="NA-97"> <polygon class="cls-1" points="775.59 702.1 750.6 702.1 738.1 723.74 750.6 745.38 775.59 745.38 788.08 723.74 775.59 702.1"/> </g> <g id="NA-96"> <polygon class="cls-1" points="775.59 751.21 750.6 751.21 738.1 772.85 750.6 794.49 775.59 794.49 788.08 772.85 775.59 751.21"/> </g> <g id="NA-95"> <polygon class="cls-1" points="733.45 725.61 708.46 725.61 695.96 747.25 708.46 768.89 733.45 768.89 745.94 747.25 733.45 725.61"/> </g> <g id="NA-94"> <polygon class="cls-1" points="470 971.14 445.01 971.14 432.52 992.78 445.01 1014.42 470 1014.42 482.5 992.78 470 971.14"/> </g> <g id="NA-93"> <polygon class="cls-1" points="470 921.78 445.01 921.78 432.52 943.42 445.01 965.06 470 965.06 482.5 943.42 470 921.78"/> </g> <g id="NA-92"> <polygon class="cls-1" points="470 872.41 445.01 872.41 432.52 894.06 445.01 915.7 470 915.7 482.5 894.06 470 872.41"/> </g> <g id="NA-91"> <polygon class="cls-1" points="425.72 848.28 400.73 848.28 388.24 869.92 400.73 891.56 425.72 891.56 438.21 869.92 425.72 848.28"/> </g> <g id="NA-90"> <polygon class="cls-1" points="425.72 897.6 400.73 897.6 388.24 919.24 400.73 940.88 425.72 940.88 438.21 919.24 425.72 897.6"/> </g> <g id="NA-89"> <polygon class="cls-1" points="470 823.05 445.01 823.05 432.52 844.69 445.01 866.33 470 866.33 482.5 844.69 470 823.05"/> </g> <g id="NA-88"> <polygon class="cls-1" points="559.5 773.8 534.51 773.8 522.02 795.44 534.51 817.08 559.5 817.08 572 795.44 559.5 773.8"/> </g> <g id="NA-87"> <polygon class="cls-1" points="515.21 798.52 490.22 798.52 477.72 820.16 490.22 841.8 515.21 841.8 527.7 820.16 515.21 798.52"/> </g> <g id="NA-86"> <polygon class="cls-1" points="603.01 799.57 578.03 799.57 565.53 821.21 578.03 842.85 603.01 842.85 615.51 821.21 603.01 799.57"/> </g> <g id="NA-85"> <polygon class="cls-1" points="515.21 897.56 490.22 897.56 477.72 919.2 490.22 940.84 515.21 940.84 527.7 919.2 515.21 897.56"/> </g> <g id="NA-84"> <polygon class="cls-1" points="515.21 947.08 490.22 947.08 477.72 968.72 490.22 990.36 515.21 990.36 527.7 968.72 515.21 947.08"/> </g> <g id="NA-83"> <polygon class="cls-1" points="559.5 924.01 534.51 924.01 522.02 945.65 534.51 967.29 559.5 967.29 572 945.65 559.5 924.01"/> </g> <g id="NA-82"> <polygon class="cls-1" points="559.5 873.94 534.51 873.94 522.02 895.58 534.51 917.22 559.5 917.22 572 895.58 559.5 873.94"/> </g> <g id="NA-81"> <polygon class="cls-1" points="515.21 848.04 490.22 848.04 477.72 869.68 490.22 891.32 515.21 891.32 527.7 869.68 515.21 848.04"/> </g> <g id="NA-80"> <polygon class="cls-1" points="559.5 973.17 534.51 973.17 522.02 994.82 534.51 1016.46 559.5 1016.46 572 994.82 559.5 973.17"/> </g> <g id="NA-79"> <polygon class="cls-1" points="515.21 996.6 490.22 996.6 477.72 1018.24 490.22 1039.88 515.21 1039.88 527.7 1018.24 515.21 996.6"/> </g> <g id="NA-78"> <polygon class="cls-1" points="515.21 1046.12 490.22 1046.12 477.72 1067.76 490.22 1089.4 515.21 1089.4 527.7 1067.76 515.21 1046.12"/> </g> <g id="NA-77"> <polygon class="cls-1" points="603.01 899.05 578.03 899.05 565.53 920.69 578.03 942.33 603.01 942.33 615.51 920.69 603.01 899.05"/> </g> <g id="NA-76"> <polygon class="cls-1" points="603.01 849.31 578.03 849.31 565.53 870.95 578.03 892.59 603.01 892.59 615.51 870.95 603.01 849.31"/> </g> <g id="NA-75"> <polygon class="cls-1" points="559.5 823.87 534.51 823.87 522.02 845.51 534.51 867.15 559.5 867.15 572 845.51 559.5 823.87"/> </g> <g id="NA-74"> <polygon class="cls-1" points="470 773.69 445.01 773.69 432.52 795.33 445.01 816.97 470 816.97 482.5 795.33 470 773.69"/> </g> <g id="NA-73"> <polygon class="cls-1" points="470 722.74 445.01 722.74 432.52 744.38 445.01 766.02 470 766.02 482.5 744.38 470 722.74"/> </g> <g id="NA-72"> <polygon class="cls-1" points="514.3 649.05 489.31 649.05 476.81 670.69 489.31 692.33 514.3 692.33 526.79 670.69 514.3 649.05"/> </g> <g id="NA-71"> <polygon class="cls-1" points="470.91 672.7 445.92 672.7 433.43 694.34 445.92 715.98 470.91 715.98 483.4 694.34 470.91 672.7"/> </g> <g id="NA-70"> <polygon class="cls-1" points="514.3 698.57 489.31 698.57 476.81 720.21 489.31 741.85 514.3 741.85 526.79 720.21 514.3 698.57"/> </g> <g id="NA-69"> <polygon class="cls-1" points="559.5 674.56 534.51 674.56 522.02 696.21 534.51 717.85 559.5 717.85 572 696.21 559.5 674.56"/> </g> <g id="NA-68"> <polygon class="cls-1" points="514.3 748.09 489.31 748.09 476.81 769.73 489.31 791.37 514.3 791.37 526.79 769.73 514.3 748.09"/> </g> <g id="NA-67"> <polygon class="cls-1" points="559.5 724.63 534.51 724.63 522.02 746.27 534.51 767.92 559.5 767.92 572 746.27 559.5 724.63"/> </g> <g id="NA-66"> <polygon class="cls-1" points="603.01 700.09 578.03 700.09 565.53 721.73 578.03 743.37 603.01 743.37 615.51 721.73 603.01 700.09"/> </g> <g id="NA-65"> <polygon class="cls-1" points="646.53 675.95 621.54 675.95 609.05 697.59 621.54 719.23 646.53 719.23 659.02 697.59 646.53 675.95"/> </g> <g id="NA-64"> <polygon class="cls-1" points="603.01 650.34 578.03 650.34 565.53 671.98 578.03 693.63 603.01 693.63 615.51 671.98 603.01 650.34"/> </g> <g id="NA-63"> <polygon class="cls-1" points="646.53 576.54 621.54 576.54 609.05 598.18 621.54 619.82 646.53 619.82 659.02 598.18 646.53 576.54"/> </g> <g id="NA-62"> <polygon class="cls-1" points="690.68 549.99 665.69 549.99 653.2 571.63 665.69 593.27 690.68 593.27 703.18 571.63 690.68 549.99"/> </g> <g id="NA-61"> <polygon class="cls-1" points="514.3 599.53 489.31 599.53 476.81 621.17 489.31 642.81 514.3 642.81 526.79 621.17 514.3 599.53"/> </g> <g id="NA-60"> <polygon class="cls-1" points="559.5 624.49 534.51 624.49 522.02 646.13 534.51 667.77 559.5 667.77 572 646.13 559.5 624.49"/> </g> <g id="NA-59"> <polygon class="cls-1" points="514.3 550.01 489.31 550.01 476.81 571.65 489.31 593.29 514.3 593.29 526.79 571.65 514.3 550.01"/> </g> <g id="NA-58"> <polygon class="cls-1" points="470 622.65 445.01 622.65 432.52 644.29 445.01 665.93 470 665.93 482.5 644.29 470 622.65"/> </g> <g id="NA-57"> <polygon class="cls-1" points="470 573.06 445.01 573.06 432.52 594.7 445.01 616.34 470 616.34 482.5 594.7 470 573.06"/> </g> <g id="NA-56"> <polygon class="cls-1" points="560.41 476.24 535.42 476.24 522.93 497.88 535.42 519.52 560.41 519.52 572.9 497.88 560.41 476.24"/> </g> <g id="NA-55"> <polygon class="cls-1" points="559.5 525.26 534.51 525.26 522.02 546.9 534.51 568.54 559.5 568.54 572 546.9 559.5 525.26"/> </g> <g id="NA-54"> <polygon class="cls-1" points="603.01 550.86 578.03 550.86 565.53 572.5 578.03 594.14 603.01 594.14 615.51 572.5 603.01 550.86"/> </g> <g id="NA-53"> <polygon class="cls-1" points="559.5 575.33 534.51 575.33 522.02 596.97 534.51 618.61 559.5 618.61 572 596.97 559.5 575.33"/> </g> <g id="NA-52"> <polygon class="cls-1" points="603.01 600.6 578.03 600.6 565.53 622.24 578.03 643.88 603.01 643.88 615.51 622.24 603.01 600.6"/> </g> <g id="NA-51"> <polygon class="cls-1" points="646.53 526.84 621.54 526.84 609.05 548.48 621.54 570.12 646.53 570.12 659.02 548.48 646.53 526.84"/> </g> <g id="NA-50"> <polygon class="cls-1" points="603.01 501.12 578.03 501.12 565.53 522.76 578.03 544.4 603.01 544.4 615.51 522.76 603.01 501.12"/> </g> </g> <g id="CAPITAL" data-name="province"> <g id="NA-49"> <polygon class="cls-1" points="648.12 477.13 623.13 477.13 610.64 498.77 623.13 520.41 648.12 520.41 660.61 498.77 648.12 477.13"/> </g> <g id="NA-48"> <polygon class="cls-1" points="606.26 450.88 581.27 450.88 568.78 472.52 581.27 494.16 606.26 494.16 618.76 472.52 606.26 450.88"/> </g> </g> <g id="FATA" data-name="province"> <g id="NA-47"> <polygon class="cls-1" points="339.73 592.03 314.74 592.03 302.25 613.67 314.74 635.31 339.73 635.31 352.23 613.67 339.73 592.03"/> </g> <g id="NA-46"> <polygon class="cls-1" points="427.47 546.81 402.49 546.81 389.99 568.46 402.49 590.1 427.47 590.1 439.97 568.46 427.47 546.81"/> </g> <g id="NA-45"> <polygon class="cls-1" points="383.63 520.92 358.64 520.92 346.15 542.56 358.64 564.2 383.63 564.2 396.13 542.56 383.63 520.92"/> </g> <g id="NA-44"> <polygon class="cls-1" points="470.41 472.95 445.42 472.95 432.93 494.6 445.42 516.24 470.41 516.24 482.9 494.6 470.41 472.95"/> </g> <g id="NA-43"> <polygon class="cls-1" points="427.47 496.77 402.49 496.77 389.99 518.41 402.49 540.05 427.47 540.05 439.97 518.41 427.47 496.77"/> </g> <g id="NA-42"> <polygon class="cls-1" points="425.46 744.97 400.48 744.97 387.98 766.61 400.48 788.25 425.46 788.25 437.96 766.61 425.46 744.97"/> </g> <g id="NA-41"> <polygon class="cls-1" points="426.37 694.89 401.38 694.89 388.89 716.53 401.38 738.18 426.37 738.18 438.87 716.53 426.37 694.89"/> </g> <g id="NA-40"> <polygon class="cls-1" points="425.37 645.69 400.38 645.69 387.88 667.33 400.38 688.97 425.37 688.97 437.86 667.33 425.37 645.69"/> </g> <g id="NA-39"> <polygon class="cls-1" points="425.95 595.98 400.96 595.98 388.46 617.62 400.96 639.26 425.95 639.26 438.44 617.62 425.95 595.98"/> </g> <g id="NA-38"> <polygon class="cls-1" points="383.63 569.18 358.64 569.18 346.15 590.82 358.64 612.46 383.63 612.46 396.13 590.82 383.63 569.18"/> </g> <g id="NA-37"> <polygon class="cls-1" points="340.06 543.91 315.07 543.91 302.58 565.55 315.07 587.19 340.06 587.19 352.56 565.55 340.06 543.91"/> </g> <g id="NA-36"> <polygon class="cls-1" points="427.47 447.63 402.49 447.63 389.99 469.28 402.49 490.92 427.47 490.92 439.97 469.28 427.47 447.63"/> </g> </g> <g id="KPK" data-name="province"> <g id="NA-35"> <polygon class="cls-1" points="605.74 252.49 580.75 252.49 568.26 274.13 580.75 295.77 605.74 295.77 618.23 274.13 605.74 252.49"/> </g> <g id="NA-34"> <polygon class="cls-1" points="605.74 150.42 580.75 150.42 568.26 172.06 580.75 193.7 605.74 193.7 618.23 172.06 605.74 150.42"/> </g> <g id="NA-33"> <polygon class="cls-1" points="605.74 101.19 580.75 101.19 568.26 122.83 580.75 144.47 605.74 144.47 618.23 122.83 605.74 101.19"/> </g> <g id="NA-32"> <polygon class="cls-1" points="690.35 50.23 665.37 50.23 652.87 71.87 665.37 93.51 690.35 93.51 702.85 71.87 690.35 50.23"/> </g> <g id="NA-31"> <polygon class="cls-1" points="649.25 124.38 624.26 124.38 611.77 146.02 624.26 167.66 649.25 167.66 661.75 146.02 649.25 124.38"/> </g> <g id="NA-30"> <polygon class="cls-1" points="649.25 74.98 624.26 74.98 611.77 96.62 624.26 118.26 649.25 118.26 661.75 96.62 649.25 74.98"/> </g> <g id="NA-29"> <polygon class="cls-1" points="605.74 201.45 580.75 201.45 568.26 223.09 580.75 244.73 605.74 244.73 618.23 223.09 605.74 201.45"/> </g> <g id="NA-28"> <polygon class="cls-1" points="691.59 250.51 666.6 250.51 654.11 272.15 666.6 293.8 691.59 293.8 704.08 272.15 691.59 250.51"/> </g> <g id="NA-27"> <polygon class="cls-1" points="516.57 449.58 491.58 449.58 479.08 471.22 491.58 492.86 516.57 492.86 529.06 471.22 516.57 449.58"/> </g> <g id="NA-26"> <polygon class="cls-1" points="516.57 400.4 491.58 400.4 479.08 422.04 491.58 443.68 516.57 443.68 529.06 422.04 516.57 400.4"/> </g> <g id="NA-25"> <polygon class="cls-1" points="470 523.47 445.01 523.47 432.52 545.11 445.01 566.75 470 566.75 482.5 545.11 470 523.47"/> </g> <g id="NA-24"> <polygon class="cls-1" points="515.21 499.58 490.22 499.58 477.72 521.22 490.22 542.86 515.21 542.86 527.7 521.22 515.21 499.58"/> </g> <g id="NA-23"> <polygon class="cls-1" points="649.25 174.69 624.26 174.69 611.77 196.33 624.26 217.97 649.25 217.97 661.75 196.33 649.25 174.69"/> </g> <g id="NA-22"> <polygon class="cls-1" points="691.59 200.42 666.6 200.42 654.11 222.06 666.6 243.71 691.59 243.71 704.08 222.06 691.59 200.42"/> </g> <g id="NA-21"> <polygon class="cls-1" points="736.17 225.41 711.18 225.41 698.69 247.05 711.18 268.69 736.17 268.69 748.66 247.05 736.17 225.41"/> </g> <g id="NA-20"> <polygon class="cls-1" points="780.12 249.4 755.13 249.4 742.64 271.04 755.13 292.68 780.12 292.68 792.62 271.04 780.12 249.4"/> </g> <g id="NA-19"> <polygon class="cls-1" points="736.17 375.09 711.18 375.09 698.69 396.73 711.18 418.37 736.17 418.37 748.66 396.73 736.17 375.09"/> </g> <g id="NA-18"> <polygon class="cls-1" points="736.17 325.88 711.18 325.88 698.69 347.52 711.18 369.16 736.17 369.16 748.66 347.52 736.17 325.88"/> </g> <g id="NA-17"> <polygon class="cls-1" points="736.17 274.86 711.18 274.86 698.69 296.5 711.18 318.14 736.17 318.14 748.66 296.5 736.17 274.86"/> </g> <g id="NA-16"> <polygon class="cls-1" points="516.57 350.39 491.58 350.39 479.08 372.03 491.58 393.67 516.57 393.67 529.06 372.03 516.57 350.39"/> </g> <g id="NA-15"> <polygon class="cls-1" points="560.41 426.02 535.42 426.02 522.93 447.67 535.42 469.31 560.41 469.31 572.9 447.67 560.41 426.02"/> </g> <g id="NA-14"> <polygon class="cls-1" points="562.23 375.05 537.24 375.05 524.74 396.69 537.24 418.33 562.23 418.33 574.72 396.69 562.23 375.05"/> </g> <g id="NA-13"> <polygon class="cls-1" points="692.5 399.88 667.51 399.88 655.01 421.52 667.51 443.16 692.5 443.16 704.99 421.52 692.5 399.88"/> </g> <g id="NA-12"> <polygon class="cls-1" points="692.5 300.61 667.51 300.61 655.01 322.25 667.51 343.89 692.5 343.89 704.99 322.25 692.5 300.61"/> </g> <g id="NA-11"> <polygon class="cls-1" points="649.25 224.99 624.26 224.99 611.77 246.63 624.26 268.27 649.25 268.27 661.75 246.63 649.25 224.99"/> </g> <g id="NA-10"> <polygon class="cls-1" points="649.25 275.3 624.26 275.3 611.77 296.94 624.26 318.58 649.25 318.58 661.75 296.94 649.25 275.3"/> </g> <g id="NA-9"> <polygon class="cls-1" points="692.5 350.7 667.51 350.7 655.01 372.34 667.51 393.98 692.5 393.98 704.99 372.34 692.5 350.7"/> </g> <g id="NA-8"> <polygon class="cls-1" points="562.23 276.72 537.24 276.72 524.74 298.36 537.24 320 562.23 320 574.72 298.36 562.23 276.72"/> </g> <g id="NA-7"> <polygon class="cls-1" points="605.74 301.71 580.75 301.71 568.26 323.35 580.75 344.99 605.74 344.99 618.23 323.35 605.74 301.71"/> </g> <g id="NA-6"> <polygon class="cls-1" points="649.93 426.11 624.95 426.11 612.45 447.75 624.95 469.39 649.93 469.39 662.43 447.75 649.93 426.11"/> </g> <g id="NA-5"> <polygon class="cls-1" points="649.25 375.01 624.26 375.01 611.77 396.65 624.26 418.29 649.25 418.29 661.75 396.65 649.25 375.01"/> </g> <g id="NA-4"> <polygon class="cls-1" points="606.65 400.16 581.66 400.16 569.16 421.8 581.66 443.44 606.65 443.44 619.14 421.8 606.65 400.16"/> </g> <g id="NA-3"> <polygon class="cls-1" points="649.25 325.61 624.26 325.61 611.77 347.25 624.26 368.89 649.25 368.89 661.75 347.25 649.25 325.61"/> </g> <g id="NA-2"> <polygon class="cls-1" points="562.23 324.98 537.24 324.98 524.74 346.62 537.24 368.26 562.23 368.26 574.72 346.62 562.23 324.98"/> </g> <g id="NA-1"> <polygon class="cls-1" points="605.74 350.94 580.75 350.94 568.26 372.58 580.75 394.22 605.74 394.22 618.23 372.58 605.74 350.94"/> </g> </g> <g id="MAP_BOUNDRY" data-name="MAP BOUNDRY"> <polyline class="cls-2" points="666.17 447.33 650.96 473.04 664.59 498.22 650.43 523.92 649.38 523.92 621.05 523.92 605.87 497.69 578.04 497.69 564.4 471.46 578.04 447.33 608.47 447.33 623.4 473.04 650.96 473.04"/> <polyline class="cls-2" points="564.4 471.46 563.35 472.51 532.92 472.51 518.24 497.69 531.88 520.77 517.19 547 485.84 546.81 472.85 570.12 443.75 570.12"/> <polyline class="cls-2" points="266.96 1119.32 296.34 1119.32 311.03 1145.55 295.51 1170.48 310.45 1196.09 339.99 1195.75 354.24 1220.49 382.37 1220.04 397.06 1245.22 383.42 1269.35 397.06 1294.53 383.42 1318.66 397.06 1343.84 383.42 1367.97 397.06 1393.15 427.49 1393.15 441.12 1417.28 472.6 1417.28 487.29 1392.1 518.76 1392.1 531.35 1367.97 561.78 1367.97 576.88 1343.83 562.19 1318.65 575.42 1293.48"/> <polyline class="cls-2" points="355.83 616.24 382.37 616.24 398.11 640.9 382.37 668.18 397.06 691.26 382.37 716.44 398.11 741.62 383.42 765.75 399.68 793.55 428.01 793.55 442.7 769.42 428.01 743.2 440.6 721.16 442.7 718.02 429 692.96 442.7 668.71 428.01 643.53 442.7 618.35 429.06 594.22 443.75 569.04 428.53 543.33 443 520.8 473.12 520.8 487.81 495.6 473.12 468.84 444.4 468.84 428.66 442.61 400.21 442.61 384.47 468.84 399.16 494.02 385.52 516.05 356.14 516.05 342.5 540.18 313.13 540.18 297.39 566.41 312.08 589.5 297.39 614.67 312.08 639.85 341.45 639.85 356.14 615.72"/> <polyline class="cls-2" points="474.7 469.89 488.34 446.81 473.65 421.63 488.34 396.45 474.7 371.27 489.91 345.57 519.81 345.57 533.45 323.01 518.76 297.83 534.5 272.65 562.83 272.65 577.51 248.52 561.78 222.29 577.51 197.11 561.78 171.93 577.51 146.75 562.83 122.62 577.51 97.44 606.02 97.44 621.23 70.69"/> <polyline class="cls-2" points="620.75 71.54 648.47 71.54 663.16 47.6 691.19 48.09 705.88 71.18 690.3 99.01 664.62 99.01 652.03 122.1 667.22 146.23 652.53 171.41 667.22 195.54 694.65 195.55 707.24 219.68 738.46 219.68 752.1 243.8 783.67 243.8 799.17 270.28 783.67 297.31 753.25 297.31 738.56 322.48 753.25 347.66 739.4 371.89 754.09 397.07 738.56 423.2 709.18 423.2 695.54 447.33 666.17 447.33"/> <polyline class="cls-2" points="122.18 1265.15 137.39 1291.9 166.77 1291.9 180.41 1266.72 166.77 1242.59 180.41 1217.41 166.77 1193.28 180.41 1169.15 209.78 1169.15 223.42 1143.97 252.8 1143.97 266.44 1118.79 252.8 1093.61 266.44 1068.43 252.8 1045.35 266.44 1020.17 295.82 1020.17 310.5 994.99 295.82 970.86 310.5 944.63 340.93 944.63 354.57 920.5 340.93 895.32 354.56 871.06 339.88 846.01 354.57 820.83 383.94 820.83 399.68 793.55"/> <polyline class="cls-2" points="384.47 768.9 355.09 768.9 339.36 795.13 309.98 795.13 295.29 821.36 309.98 845.49 294.24 871.72 308.93 895.85 295.29 919.98 266.96 919.98 252.28 945.16 222.9 945.16 208.21 971.39 222.9 995.52 207.16 1021.75 221.85 1044.83 207.16 1070.01 221.85 1094.14 207.16 1119.32 179.88 1119.32 166.25 1144.5 135.82 1144.5 121.13 1169.68 135.82 1194.86 121.13 1218.99 135.82 1243.12 122.18 1265.15 93.85 1265.15 77.07 1292.43 91.75 1317.61 78.12 1339.64 93.85 1365.87"/> <polyline class="cls-2" points="442.17 1417.28 427.49 1443.51 441.12 1467.64 427.49 1491.77 442.17 1515.9 426.44 1541.08 398.11 1541.08 383.42 1566.26 397.06 1589.34 382.37 1615.57 354.04 1615.57 339.36 1590.39 311.03 1590.39 295.29 1565.21 266.96 1565.21 254.37 1587.24 222.9 1587.24 209.26 1611.37 178.84 1611.37 164.15 1587.24 136.87 1587.24 123.23 1562.06 91.75 1562.06 79.17 1536.88 50.84 1536.88 35.1 1510.65 48.97 1486.52 35.33 1463.44 49.79 1437.21 35.1 1413.08 50.84 1386.85 79.17 1386.85 92.8 1365.87"/> <polyline class="cls-2" points="574.92 1294.42 606.89 1294.42 621.58 1269.35 606.89 1244.17 621.19 1218.28 607.55 1194.15 620.53 1171.78 649.64 1171.78 663.28 1147.65 693.43 1147.65 707.07 1121.42 692.92 1097.29 706.56 1073.15 736.99 1073.15 752.72 1045.88 738.03 1020.7 752.2 994.99 739.13 971.35 751.72 949.32 779.82 948.9 792.41 925.82 822.04 926.27 837.78 899 824.07 873.82 838.75 849.68 866.56 850.21 882.29 823.98 867.61 800.9 879.95 777.29 906.95 777.29 923.19 751.48 908.2 724.14 880.32 724.23 866.68 700.04 881.24 675.79 865.5 648.51 835.61 648.51 823.02 625.17 796.47 625.17 781.78 598.94 750.63 598.94 735.94 571.66 708.49 571.29 693.8 546.11 662.5 546.11 649.91 524.45"/> </g> </g> <g id="TEXT_INFO" data-name="TEXT INFO"> <text class="cls-3" transform="translate(2.56 93.1)"> <tspan class="cls-4">272</tspan> <tspan class="cls-5"> <tspan x="0" y="42">CONTESTABLE</tspan> <tspan class="cls-6" x="253.44" y="42">SEATS</tspan> <tspan class="cls-6" x="273.44" y="42"></tspan> <tspan class="cls-7" x="293.74" y="42"></tspan> <tspan class="cls-8" x="316.49" y="42"></tspan> <tspan class="cls-9" x="336.06" y="42"></tspan> </tspan> </text> <text class="cls-10" transform="translate(2.56 204.66)">+60 reserved for women <tspan x="0" y="45.71">+10 reserved for minorities</tspan> </text> <text class="cls-11" transform="translate(18.13 545.74)">TRIBAL AREAS</text> <text class="cls-12" transform="translate(17.2 643.26)">VOTERS</text> <text class="cls-13" transform="translate(701.18 65.63)">35 <tspan class="cls-14" x="75.99" y="0"> </tspan> <tspan class="cls-15" x="84.56" y="0">SEATS</tspan> </text> <text class="cls-16" transform="translate(6.98 512.7)">1 <tspan class="cls-17" x="30.84" y="0">2</tspan> <tspan x="68.83" y="0"> </tspan> <tspan class="cls-15" x="77.4" y="0">SEATS</tspan> </text> <text class="cls-13" transform="translate(764.77 426.57)">2 <tspan class="cls-14" x="37.99" y="0"> </tspan> <tspan class="cls-15" x="46.57" y="0">SEATS</tspan> </text> <text class="cls-18" transform="translate(16.1 609.36)">1,479,327 </text> <line class="cls-22" x1="16.33" y1="557.35" x2="235.94" y2="557.35"/> <text class="cls-11" transform="translate(26.93 845.16)">BALOCHISTAN</text> <text class="cls-12" transform="translate(26.01 935.82)">VOTERS</text> <text class="cls-23" transform="translate(18.83 815.11)">14 <tspan class="cls-24" x="30.04" y="0"></tspan> <tspan class="cls-25" x="67.06" y="0"> </tspan> <tspan class="cls-15" x="75.41" y="0">SEATS</tspan> </text> <text class="cls-27" transform="translate(25.09 903.98)">3,337,981</text> <line class="cls-28" x1="25.3" y1="855.72" x2="223.8" y2="855.72"/> <text class="cls-11" transform="translate(671.44 1207.6)">PUNJAB</text> <text class="cls-29" transform="translate(663.34 1175.49)">1 <tspan class="cls-30" x="25.86" y="0">48</tspan> <tspan class="cls-24" x="58.69" y="0"></tspan> <tspan class="cls-31" x="95.71" y="0"> </tspan> <tspan class="cls-15" x="104.06" y="0">SEATS</tspan> </text> <text class="cls-12" transform="translate(672.16 1305.16)">VOTERS</text> <text class="cls-27" transform="translate(671.24 1273.32)">47,168,443</text> <text class="cls-33" transform="translate(447.19 1526.34)">SINDH</text> <text class="cls-34" transform="translate(447.19 1494.24)">61 <tspan class="cls-31" x="74.04" y="0"> </tspan> <tspan class="cls-15" x="82.39" y="0">SEATS</tspan> </text> <text class="cls-35" transform="translate(451.61 1629.68)">VOTERS</text> <text class="cls-18" transform="translate(447.19 1592.06)">18,218,827 </text> <line class="cls-28" x1="671.45" y1="1219.91" x2="913.89" y2="1217.07"/> <line class="cls-28" x1="451.67" y1="1537.92" x2="642.72" y2="1536.47"/> <text class="cls-11" transform="translate(766.95 462.35)">FEDERAL CAPITAL</text> <text class="cls-12" transform="translate(770.18 557.13)">VOTERS</text> <text class="cls-27" transform="translate(765.11 523.23)">626,109</text> <line class="cls-28" x1="765.31" y1="470.85" x2="1040.89" y2="470.85"/> <text class="cls-11" transform="translate(704.04 100.29)">KHYBER PAKHTUNKHWA</text> <text class="cls-12" transform="translate(708.85 194.51)">VOTERS</text> <text class="cls-37" transform="translate(701.16 161.91)">1 <tspan class="cls-38" x="23.14" y="0">2,265,014</tspan> </text> <line class="cls-39" x1="704.04" y1="110.15" x2="1062.02" y2="110.15"/> <line class="cls-40" y1="158.79" x2="448.46" y2="158.79"/> </g></svg>