<svg id="svg-2018" xmlns="http://www.w3.org/2000/svg" viewBox="-100 0 1200 1650" preserveAspectRatio="xMidYMid"> <defs> <style>.cls-1, .cls-12, .cls-35{fill: #ccc;}.cls-2, .cls-22, .cls-28, .cls-39, .cls-40{fill: none; stroke-miterlimit: 10;}.cls-2{stroke: #f90; stroke-width: 4px;}.cls-3{font-size: 108.64px;}.cls-10, .cls-3{fill: #333;}.cls-10, .cls-13, .cls-16, .cls-23, .cls-29, .cls-3, .cls-34{font-family: OpenSans-Light, Open Sans;}.cls-4{letter-spacing: -0.04em;}.cls-5{font-size: 35px; font-family: OpenSans-Bold, Open Sans;}.cls-11, .cls-12, .cls-15, .cls-33, .cls-35, .cls-5{font-weight: 700;}.cls-6{letter-spacing: 0.02em;}.cls-7{letter-spacing: -0.04em;}.cls-8{letter-spacing: -0.02em;}.cls-9{letter-spacing: 0.02em;}.cls-10{font-size: 39.74px; letter-spacing: -0.04em;}.cls-11, .cls-33{font-size: 31.33px; fill: #f90;}.cls-11, .cls-12, .cls-33, .cls-35{font-family: OpenSans-ExtraBold, Open Sans;}.cls-11{letter-spacing: -0.02em;}.cls-12{font-size: 30.64px; letter-spacing: -0.04em;}.cls-13, .cls-16{font-size: 71.58px;}.cls-13, .cls-16, .cls-23, .cls-29, .cls-34{fill: #525252;}.cls-13, .cls-17{letter-spacing: -0.04em;}.cls-14, .cls-16{letter-spacing: -0.14em;}.cls-15{font-size: 46.3px; font-family: OpenSans-SemiBold, Open Sans; letter-spacing: -0.04em;}.cls-18, .cls-27, .cls-37{font-size: 56.2px; fill: #666; font-family: OpenSans-Regular, Open Sans;}.cls-18, .cls-38{letter-spacing: -0.06em;}.cls-19{letter-spacing: -0.14em;}.cls-20{letter-spacing: -0.1em;}.cls-21{letter-spacing: -0.16em;}.cls-22, .cls-28, .cls-39{stroke: #525252;}.cls-22{stroke-width: 1.02px;}.cls-23, .cls-29, .cls-34{font-size: 69.74px;}.cls-23, .cls-31{letter-spacing: -0.14em;}.cls-24, .cls-34{letter-spacing: -0.04em;}.cls-25{letter-spacing: -0.14em;}.cls-26, .cls-32{font-size: 32.31px;}.cls-26{letter-spacing: -0.04em;}.cls-27{letter-spacing: -0.06em;}.cls-28{stroke-width: 0.92px;}.cls-29{letter-spacing: -0.2em;}.cls-30{letter-spacing: -0.1em;}.cls-32{letter-spacing: -0.04em;}.cls-33{letter-spacing: -0.02em;}.cls-35{font-size: 29.74px; letter-spacing: -0.04em;}.cls-36{letter-spacing: -0.12em;}.cls-37{letter-spacing: -0.16em;}.cls-39{stroke-width: 0.86px;}.cls-40{stroke: #333; stroke-width: 0.67px;}</style> </defs> <title>Political Cartogram 2018</title> <g id="BALOCHISTAN" data-name="province"> <g id="NA-272" data-name="NA-272"> <polygon class="cls-1" points="89.71 1320.26 64.73 1320.26 52.23 1341.9 64.73 1363.54 89.71 1363.54 102.21 1341.9 89.71 1320.26"/> </g> <g id="NA-271" data-name="NA-271"> <polygon class="cls-1" points="89.71 1271.33 64.73 1271.33 52.23 1292.97 64.73 1314.61 89.71 1314.61 102.21 1292.97 89.71 1271.33"/> </g> <g id="NA-270" data-name="NA-270"> <polygon class="cls-1" points="133.65 1246.88 108.66 1246.88 96.17 1268.52 108.66 1290.16 133.65 1290.16 146.14 1268.52 133.65 1246.88"/> </g> <g id="NA-269" data-name="NA-269"> <polygon class="cls-1" points="133.65 1197.97 108.66 1197.97 96.17 1219.62 108.66 1241.26 133.65 1241.26 146.14 1219.62 133.65 1197.97"/> </g> <g id="NA-268" data-name="NA-268"> <polygon class="cls-1" points="133.65 1149.07 108.66 1149.07 96.17 1170.71 108.66 1192.35 133.65 1192.35 146.14 1170.71 133.65 1149.07"/> </g> <g id="NA-267" data-name="NA-267"> <polygon class="cls-1" points="177.21 1123.67 152.22 1123.67 139.73 1145.31 152.22 1166.95 177.21 1166.95 189.7 1145.31 177.21 1123.67"/> </g> <g id="NA-266" data-name="NA-266"> <polygon class="cls-1" points="220.29 1099.62 195.3 1099.62 182.81 1121.26 195.3 1142.9 220.29 1142.9 232.78 1121.26 220.29 1099.62"/> </g> <g id="NA-265" data-name="NA-265"> <polygon class="cls-1" points="220.29 1050.45 195.3 1050.45 182.81 1072.09 195.3 1093.73 220.29 1093.73 232.78 1072.09 220.29 1050.45"/> </g> <g id="NA-264" data-name="NA-264"> <polygon class="cls-1" points="220.29 1001.27 195.3 1001.27 182.81 1022.91 195.3 1044.56 220.29 1044.56 232.78 1022.91 220.29 1001.27"/> </g> <g id="NA-263" data-name="NA-263"> <polygon class="cls-1" points="220.29 952.1 195.3 952.1 182.81 973.74 195.3 995.38 220.29 995.38 232.78 973.74 220.29 952.1"/> </g> <g id="NA-262" data-name="NA-262"> <polygon class="cls-1" points="263.95 975.9 238.96 975.9 226.47 997.54 238.96 1019.18 263.95 1019.18 276.44 997.54 263.95 975.9"/> </g> <g id="NA-261" data-name="NA-261"> <polygon class="cls-1" points="263.95 926.42 238.96 926.42 226.47 948.06 238.96 969.71 263.95 969.71 276.44 948.06 263.95 926.42"/> </g> <g id="NA-260" data-name="NA-260"> <polygon class="cls-1" points="308.03 900.97 283.04 900.97 270.55 922.61 283.04 944.25 308.03 944.25 320.53 922.61 308.03 900.97"/> </g> <g id="NA-259" data-name="NA-259"> <polygon class="cls-1" points="349 873.82 324.02 873.82 311.52 895.47 324.02 917.11 349 917.11 361.5 895.47 349 873.82"/> </g> <g id="NA-258" data-name="NA-258"> <polygon class="cls-1" points="349 824.16 324.02 824.16 311.52 845.8 324.02 867.44 349 867.44 361.5 845.8 349 824.16"/> </g> <g id="NA-257" data-name="NA-257"> <polygon class="cls-1" points="349 774.49 324.02 774.49 311.52 796.13 324.02 817.77 349 817.77 361.5 796.13 349 774.49"/> </g> </g> <g id="SINDH" data-name="province"> <g id="NA-256" data-name="NA-256"> <polygon class="cls-1" points="177.21 1563.96 152.22 1563.96 139.73 1585.6 152.22 1607.24 177.21 1607.24 189.7 1585.6 177.21 1563.96"/> </g> <g id="NA-255" data-name="NA-255"> <polygon class="cls-1" points="133.65 1540.32 108.66 1540.32 96.17 1561.96 108.66 1583.6 133.65 1583.6 146.14 1561.96 133.65 1540.32"/> </g> <g id="NA-254" data-name="NA-254"> <polygon class="cls-1" points="89.71 1515.97 64.73 1515.97 52.23 1537.62 64.73 1559.26 89.71 1559.26 102.21 1537.62 89.71 1515.97"/> </g> <g id="NA-253" data-name="NA-253"> <polygon class="cls-1" points="46.11 1490.53 21.12 1490.53 8.63 1512.17 21.12 1533.81 46.11 1533.81 58.6 1512.17 46.11 1490.53"/> </g> <g id="NA-252" data-name="NA-252"> <polygon class="cls-1" points="46.11 1441.54 21.12 1441.54 8.63 1463.18 21.12 1484.83 46.11 1484.83 58.6 1463.18 46.11 1441.54"/> </g> <g id="NA-251" data-name="NA-251"> <polygon class="cls-1" points="89.71 1467.05 64.73 1467.05 52.23 1488.69 64.73 1510.33 89.71 1510.33 102.21 1488.69 89.71 1467.05"/> </g> <g id="NA-250" data-name="NA-250"> <polygon class="cls-1" points="133.65 1491.41 108.66 1491.41 96.17 1513.05 108.66 1534.69 133.65 1534.69 146.14 1513.05 133.65 1491.41"/> </g> <g id="NA-249" data-name="NA-249"> <polygon class="cls-1" points="177.21 1515.04 152.22 1515.04 139.73 1536.68 152.22 1558.32 177.21 1558.32 189.7 1536.68 177.21 1515.04"/> </g> <g id="NA-248" data-name="NA-248"> <polygon class="cls-1" points="220.29 1542.19 195.3 1542.19 182.81 1563.84 195.3 1585.48 220.29 1585.48 232.78 1563.84 220.29 1542.19"/> </g> <g id="NA-247" data-name="NA-247"> <polygon class="cls-1" points="352 1570.18 327.02 1570.18 314.52 1591.82 327.02 1613.46 352 1613.46 364.5 1591.82 352 1570.18"/> </g> <g id="NA-246" data-name="NA-246"> <polygon class="cls-1" points="308.03 1545.16 283.04 1545.16 270.55 1566.8 283.04 1588.44 308.03 1588.44 320.53 1566.8 308.03 1545.16"/> </g> <g id="NA-245" data-name="NA-245"> <polygon class="cls-1" points="263.95 1520.11 238.96 1520.11 226.47 1541.75 238.96 1563.39 263.95 1563.39 276.44 1541.75 263.95 1520.11"/> </g> <g id="NA-244" data-name="NA-244"> <polygon class="cls-1" points="220.29 1493.02 195.3 1493.02 182.81 1514.66 195.3 1536.3 220.29 1536.3 232.78 1514.66 220.29 1493.02"/> </g> <g id="NA-243" data-name="NA-243"> <polygon class="cls-1" points="177.21 1466.12 152.22 1466.12 139.73 1487.76 152.22 1509.4 177.21 1509.4 189.7 1487.76 177.21 1466.12"/> </g> <g id="NA-242" data-name="NA-242"> <polygon class="cls-1" points="133.65 1442.51 108.66 1442.51 96.17 1464.15 108.66 1485.79 133.65 1485.79 146.14 1464.15 133.65 1442.51"/> </g> <g id="NA-241" data-name="NA-241"> <polygon class="cls-1" points="89.71 1418.12 64.73 1418.12 52.23 1439.76 64.73 1461.4 89.71 1461.4 102.21 1439.76 89.71 1418.12"/> </g> <g id="NA-240" data-name="NA-240"> <polygon class="cls-1" points="46.11 1392.56 21.12 1392.56 8.63 1414.2 21.12 1435.84 46.11 1435.84 58.6 1414.2 46.11 1392.56"/> </g> <g id="NA-239" data-name="NA-239"> <polygon class="cls-1" points="89.71 1369.19 64.73 1369.19 52.23 1390.83 64.73 1412.47 89.71 1412.47 102.21 1390.83 89.71 1369.19"/> </g> <g id="NA-238" data-name="NA-238"> <polygon class="cls-1" points="133.65 1393.6 108.66 1393.6 96.17 1415.24 108.66 1436.88 133.65 1436.88 146.14 1415.24 133.65 1393.6"/> </g> <g id="NA-237" data-name="NA-237"> <polygon class="cls-1" points="177.21 1417.19 152.22 1417.19 139.73 1438.84 152.22 1460.48 177.21 1460.48 189.7 1438.84 177.21 1417.19"/> </g> <g id="NA-236" data-name="NA-236"> <polygon class="cls-1" points="220.29 1443.85 195.3 1443.85 182.81 1465.49 195.3 1487.13 220.29 1487.13 232.78 1465.49 220.29 1443.85"/> </g> <g id="NA-235" data-name="NA-235"> <polygon class="cls-1" points="133.65 1344.69 108.66 1344.69 96.17 1366.33 108.66 1387.97 133.65 1387.97 146.14 1366.33 133.65 1344.69"/> </g> <g id="NA-234" data-name="NA-234"> <polygon class="cls-1" points="133.65 1295.79 108.66 1295.79 96.17 1317.43 108.66 1339.07 133.65 1339.07 146.14 1317.43 133.65 1295.79"/> </g> <g id="NA-233" data-name="NA-233"> <polygon class="cls-1" points="352 1470.84 327.02 1470.84 314.52 1492.48 327.02 1514.12 352 1514.12 364.5 1492.48 352 1470.84"/> </g> <g id="NA-232" data-name="NA-232"> <polygon class="cls-1" points="308.03 1495.61 283.04 1495.61 270.55 1517.25 283.04 1538.89 308.03 1538.89 320.53 1517.25 308.03 1495.61"/> </g> <g id="NA-231" data-name="NA-231"> <polygon class="cls-1" points="352 1520.51 327.02 1520.51 314.52 1542.15 327.02 1563.79 352 1563.79 364.5 1542.15 352 1520.51"/> </g> <g id="NA-230" data-name="NA-230"> <polygon class="cls-1" points="394.86 1495.97 369.87 1495.97 357.38 1517.62 369.87 1539.26 394.86 1539.26 407.36 1517.62 394.86 1495.97"/> </g> <g id="NA-229" data-name="NA-229"> <polygon class="cls-1" points="177.21 1368.27 152.22 1368.27 139.73 1389.91 152.22 1411.55 177.21 1411.55 189.7 1389.91 177.21 1368.27"/> </g> <g id="NA-228" data-name="NA-228"> <polygon class="cls-1" points="263.95 1470.63 238.96 1470.63 226.47 1492.28 238.96 1513.92 263.95 1513.92 276.44 1492.28 263.95 1470.63"/> </g> <g id="NA-227" data-name="NA-227"> <polygon class="cls-1" points="220.29 1394.67 195.3 1394.67 182.81 1416.31 195.3 1437.95 220.29 1437.95 232.78 1416.31 220.29 1394.67"/> </g> <g id="NA-226" data-name="NA-226"> <polygon class="cls-1" points="177.21 1319.35 152.22 1319.35 139.73 1340.99 152.22 1362.63 177.21 1362.63 189.7 1340.99 177.21 1319.35"/> </g> <g id="NA-225" data-name="NA-225"> <polygon class="cls-1" points="220.29 1345.5 195.3 1345.5 182.81 1367.14 195.3 1388.78 220.29 1388.78 232.78 1367.14 220.29 1345.5"/> </g> <g id="NA-224" data-name="NA-224"> <polygon class="cls-1" points="263.95 1371.69 238.96 1371.69 226.47 1393.33 238.96 1414.97 263.95 1414.97 276.44 1393.33 263.95 1371.69"/> </g> <g id="NA-223" data-name="NA-223"> <polygon class="cls-1" points="308.03 1396.5 283.04 1396.5 270.55 1418.14 283.04 1439.78 308.03 1439.78 320.53 1418.14 308.03 1396.5"/> </g> <g id="NA-222" data-name="NA-222"> <polygon class="cls-1" points="394.86 1446.15 369.87 1446.15 357.38 1467.79 369.87 1489.43 394.86 1489.43 407.36 1467.79 394.86 1446.15"/> </g> <g id="NA-221" data-name="NA-221"> <polygon class="cls-1" points="394.86 1396.33 369.87 1396.33 357.38 1417.97 369.87 1439.61 394.86 1439.61 407.36 1417.97 394.86 1396.33"/> </g> <g id="NA-220" data-name="NA-220"> <polygon class="cls-1" points="352 1421.17 327.02 1421.17 314.52 1442.82 327.02 1464.45 352 1464.45 364.5 1442.82 352 1421.17"/> </g> <g id="NA-219" data-name="NA-219"> <polygon class="cls-1" points="263.95 1421.16 238.96 1421.16 226.47 1442.8 238.96 1464.44 263.95 1464.44 276.44 1442.8 263.95 1421.16"/> </g> <g id="NA-218" data-name="NA-218"> <polygon class="cls-1" points="308.03 1446.05 283.04 1446.05 270.55 1467.69 283.04 1489.33 308.03 1489.33 320.53 1467.69 308.03 1446.05"/> </g> <g id="NA-217" data-name="NA-217"> <polygon class="cls-1" points="352 1371.51 327.02 1371.51 314.52 1393.15 327.02 1414.79 352 1414.79 364.5 1393.15 352 1371.51"/> </g> <g id="NA-216" data-name="NA-216"> <polygon class="cls-1" points="352 1321.84 327.02 1321.84 314.52 1343.48 327.02 1365.12 352 1365.12 364.5 1343.48 352 1321.84"/> </g> <g id="NA-215" data-name="NA-215"> <polygon class="cls-1" points="308.03 1297.39 283.04 1297.39 270.55 1319.04 283.04 1340.68 308.03 1340.68 320.53 1319.04 308.03 1297.39"/> </g> <g id="NA-214" data-name="NA-214"> <polygon class="cls-1" points="220.29 1296.32 195.3 1296.32 182.81 1317.96 195.3 1339.6 220.29 1339.6 232.78 1317.96 220.29 1296.32"/> </g> <g id="NA-213" data-name="NA-213"> <polygon class="cls-1" points="177.21 1270.43 152.22 1270.43 139.73 1292.07 152.22 1313.71 177.21 1313.71 189.7 1292.07 177.21 1270.43"/> </g> <g id="NA-212" data-name="NA-212"> <polygon class="cls-1" points="177.21 1221.51 152.22 1221.51 139.73 1243.15 152.22 1264.79 177.21 1264.79 189.7 1243.15 177.21 1221.51"/> </g> <g id="NA-211" data-name="NA-211"> <polygon class="cls-1" points="220.29 1247.15 195.3 1247.15 182.81 1268.79 195.3 1290.43 220.29 1290.43 232.78 1268.79 220.29 1247.15"/> </g> <g id="NA-210" data-name="NA-210"> <polygon class="cls-1" points="263.95 1272.74 238.96 1272.74 226.47 1294.38 238.96 1316.02 263.95 1316.02 276.44 1294.38 263.95 1272.74"/> </g> <g id="NA-209" data-name="NA-209"> <polygon class="cls-1" points="308.03 1346.95 283.04 1346.95 270.55 1368.59 283.04 1390.23 308.03 1390.23 320.53 1368.59 308.03 1346.95"/> </g> <g id="NA-208" data-name="NA-208"> <polygon class="cls-1" points="263.95 1322.21 238.96 1322.21 226.47 1343.85 238.96 1365.49 263.95 1365.49 276.44 1343.85 263.95 1322.21"/> </g> <g id="NA-207" data-name="NA-207"> <polygon class="cls-1" points="352 1272.17 327.02 1272.17 314.52 1293.81 327.02 1315.45 352 1315.45 364.5 1293.81 352 1272.17"/> </g> <g id="NA-206" data-name="NA-206"> <polygon class="cls-1" points="308.03 1247.84 283.04 1247.84 270.55 1269.48 283.04 1291.12 308.03 1291.12 320.53 1269.48 308.03 1247.84"/> </g> <g id="NA-205" data-name="NA-205"> <polygon class="cls-1" points="352 1222.5 327.02 1222.5 314.52 1244.14 327.02 1265.78 352 1265.78 364.5 1244.14 352 1222.5"/> </g> <g id="NA-204" data-name="NA-204"> <polygon class="cls-1" points="352 1172.83 327.02 1172.83 314.52 1194.47 327.02 1216.11 352 1216.11 364.5 1194.47 352 1172.83"/> </g> <g id="NA-203" data-name="NA-203"> <polygon class="cls-1" points="177.21 1172.59 152.22 1172.59 139.73 1194.23 152.22 1215.87 177.21 1215.87 189.7 1194.23 177.21 1172.59"/> </g> <g id="NA-202" data-name="NA-202"> <polygon class="cls-1" points="263.95 1223.27 238.96 1223.27 226.47 1244.91 238.96 1266.55 263.95 1266.55 276.44 1244.91 263.95 1223.27"/> </g> <g id="NA-201" data-name="NA-201"> <polygon class="cls-1" points="308.03 1198.29 283.04 1198.29 270.55 1219.93 283.04 1241.57 308.03 1241.57 320.53 1219.93 308.03 1198.29"/> </g> <g id="NA-200" data-name="NA-200"> <polygon class="cls-1" points="263.95 1173.79 238.96 1173.79 226.47 1195.43 238.96 1217.07 263.95 1217.07 276.44 1195.43 263.95 1173.79"/> </g> <g id="NA-199" data-name="NA-199"> <polygon class="cls-1" points="220.29 1148.8 195.3 1148.8 182.81 1170.44 195.3 1192.08 220.29 1192.08 232.78 1170.44 220.29 1148.8"/> </g> <g id="NA-198" data-name="NA-198"> <polygon class="cls-1" points="220.29 1197.97 195.3 1197.97 182.81 1219.61 195.3 1241.25 220.29 1241.25 232.78 1219.61 220.29 1197.97"/> </g> <g id="NA-197" data-name="NA-197"> <polygon class="cls-1" points="308.03 1148.74 283.04 1148.74 270.55 1170.38 283.04 1192.02 308.03 1192.02 320.53 1170.38 308.03 1148.74"/> </g> <g id="NA-196" data-name="NA-196"> <polygon class="cls-1" points="263.95 1124.32 238.96 1124.32 226.47 1145.96 238.96 1167.6 263.95 1167.6 276.44 1145.96 263.95 1124.32"/> </g> </g> <g id="PUNJAB" data-name="province"> <g id="NA-195" data-name="NA-195"> <polygon class="cls-1" points="438.41 1370.92 413.42 1370.92 400.92 1392.56 413.42 1414.2 438.41 1414.2 450.9 1392.56 438.41 1370.92"/> </g> <g id="NA-194" data-name="NA-194"> <polygon class="cls-1" points="263.95 1074.85 238.96 1074.85 226.47 1096.49 238.96 1118.13 263.95 1118.13 276.44 1096.49 263.95 1074.85"/> </g> <g id="NA-193" data-name="NA-193"> <polygon class="cls-1" points="308.03 1099.18 283.04 1099.18 270.55 1120.83 283.04 1142.46 308.03 1142.46 320.53 1120.83 308.03 1099.18"/> </g> <g id="NA-192" data-name="NA-192"> <polygon class="cls-1" points="263.95 1025.37 238.96 1025.37 226.47 1047.01 238.96 1068.65 263.95 1068.65 276.44 1047.01 263.95 1025.37"/> </g> <g id="NA-191" data-name="NA-191"> <polygon class="cls-1" points="308.03 1000.08 283.04 1000.08 270.55 1021.72 283.04 1043.36 308.03 1043.36 320.53 1021.72 308.03 1000.08"/> </g> <g id="NA-190" data-name="NA-190"> <polygon class="cls-1" points="308.03 950.53 283.04 950.53 270.55 972.17 283.04 993.81 308.03 993.81 320.53 972.17 308.03 950.53"/> </g> <g id="NA-189" data-name="NA-189"> <polygon class="cls-1" points="352 924.49 327.02 924.49 314.52 946.13 327.02 967.77 352 967.77 364.5 946.13 352 924.49"/> </g> <g id="NA-188" data-name="NA-188"> <polygon class="cls-1" points="394.86 1346.51 369.87 1346.51 357.38 1368.15 369.87 1389.79 394.86 1389.79 407.36 1368.15 394.86 1346.51"/> </g> <g id="NA-187" data-name="NA-187"> <polygon class="cls-1" points="394.86 947.94 369.87 947.94 357.38 969.58 369.87 991.22 394.86 991.22 407.36 969.58 394.86 947.94"/> </g> <g id="NA-186" data-name="NA-186"> <polygon class="cls-1" points="308.03 1049.63 283.04 1049.63 270.55 1071.27 283.04 1092.91 308.03 1092.91 320.53 1071.27 308.03 1049.63"/> </g> <g id="NA-185" data-name="NA-185"> <polygon class="cls-1" points="352 1023.83 327.02 1023.83 314.52 1045.47 327.02 1067.11 352 1067.11 364.5 1045.47 352 1023.83"/> </g> <g id="NA-184" data-name="NA-184"> <polygon class="cls-1" points="438.41 1121.79 413.42 1121.79 400.92 1143.43 413.42 1165.07 438.41 1165.07 450.9 1143.43 438.41 1121.79"/> </g> <g id="NA-183" data-name="NA-183"> <polygon class="cls-1" points="394.86 1097.4 369.87 1097.4 357.38 1119.04 369.87 1140.68 394.86 1140.68 407.36 1119.04 394.86 1097.4"/> </g> <g id="NA-182" data-name="NA-182"> <polygon class="cls-1" points="394.86 1047.58 369.87 1047.58 357.38 1069.22 369.87 1090.86 394.86 1090.86 407.36 1069.22 394.86 1047.58"/> </g> <g id="NA-181" data-name="NA-181"> <polygon class="cls-1" points="352 1073.5 327.02 1073.5 314.52 1095.14 327.02 1116.78 352 1116.78 364.5 1095.14 352 1073.5"/> </g> <g id="NA-180" data-name="NA-180"> <polygon class="cls-1" points="394.86 1296.69 369.87 1296.69 357.38 1318.33 369.87 1339.97 394.86 1339.97 407.36 1318.33 394.86 1296.69"/> </g> <g id="NA-179" data-name="NA-179"> <polygon class="cls-1" points="394.86 1246.87 369.87 1246.87 357.38 1268.51 369.87 1290.15 394.86 1290.15 407.36 1268.51 394.86 1246.87"/> </g> <g id="NA-178" data-name="NA-178"> <polygon class="cls-1" points="394.86 1147.22 369.87 1147.22 357.38 1168.87 369.87 1190.51 394.86 1190.51 407.36 1168.87 394.86 1147.22"/> </g> <g id="NA-177" data-name="NA-177"> <polygon class="cls-1" points="352 1123.16 327.02 1123.16 314.52 1144.81 327.02 1166.45 352 1166.45 364.5 1144.81 352 1123.16"/> </g> <g id="NA-176" data-name="NA-176"> <polygon class="cls-1" points="394.86 1197.05 369.87 1197.05 357.38 1218.69 369.87 1240.33 394.86 1240.33 407.36 1218.69 394.86 1197.05"/> </g> <g id="NA-175" data-name="NA-175"> <polygon class="cls-1" points="568.41 1298.62 543.42 1298.62 530.92 1320.26 543.42 1341.9 568.41 1341.9 580.9 1320.26 568.41 1298.62"/> </g> <g id="NA-174" data-name="NA-174"> <polygon class="cls-1" points="525.08 1273.64 500.09 1273.64 487.6 1295.28 500.09 1316.92 525.08 1316.92 537.57 1295.28 525.08 1273.64"/> </g> <g id="NA-173" data-name="NA-173"> <polygon class="cls-1" points="525.08 1323.48 500.09 1323.48 487.6 1345.13 500.09 1366.77 525.08 1366.77 537.57 1345.13 525.08 1323.48"/> </g> <g id="NA-172" data-name="NA-172"> <polygon class="cls-1" points="438.41 1321.09 413.42 1321.09 400.92 1342.73 413.42 1364.38 438.41 1364.38 450.9 1342.73 438.41 1321.09"/> </g> <g id="NA-171" data-name="NA-171"> <polygon class="cls-1" points="481.97 1297.31 456.98 1297.31 444.48 1318.95 456.98 1340.6 481.97 1340.6 494.46 1318.95 481.97 1297.31"/> </g> <g id="NA-170" data-name="NA-170"> <polygon class="cls-1" points="481.97 1347.07 456.98 1347.07 444.48 1368.71 456.98 1390.35 481.97 1390.35 494.46 1368.71 481.97 1347.07"/> </g> <g id="NA-169" data-name="NA-169"> <polygon class="cls-1" points="611.24 1125.95 586.25 1125.95 573.76 1147.59 586.25 1169.23 611.24 1169.23 623.73 1147.59 611.24 1125.95"/> </g> <g id="NA-168" data-name="NA-168"> <polygon class="cls-1" points="611.24 1173.83 586.25 1173.83 573.76 1195.47 586.25 1217.11 611.24 1217.11 623.73 1195.47 611.24 1173.83"/> </g> <g id="NA-167" data-name="NA-167"> <polygon class="cls-1" points="525.08 1223.8 500.09 1223.8 487.6 1245.44 500.09 1267.08 525.08 1267.08 537.57 1245.44 525.08 1223.8"/> </g> <g id="NA-166" data-name="NA-166"> <polygon class="cls-1" points="568.41 1198.87 543.42 1198.87 530.92 1220.51 543.42 1242.15 568.41 1242.15 580.9 1220.51 568.41 1198.87"/> </g> <g id="NA-165" data-name="NA-165"> <polygon class="cls-1" points="568.41 1248.74 543.42 1248.74 530.92 1270.38 543.42 1292.03 568.41 1292.03 580.9 1270.38 568.41 1248.74"/> </g> <g id="NA-164" data-name="NA-164"> <polygon class="cls-1" points="438.41 1271.27 413.42 1271.27 400.92 1292.91 413.42 1314.55 438.41 1314.55 450.9 1292.91 438.41 1271.27"/> </g> <g id="NA-163" data-name="NA-163"> <polygon class="cls-1" points="438.41 1171.62 413.42 1171.62 400.92 1193.26 413.42 1214.9 438.41 1214.9 450.9 1193.26 438.41 1171.62"/> </g> <g id="NA-162" data-name="NA-162"> <polygon class="cls-1" points="438.41 1221.44 413.42 1221.44 400.92 1243.08 413.42 1264.72 438.41 1264.72 450.9 1243.08 438.41 1221.44"/> </g> <g id="NA-161" data-name="NA-161"> <polygon class="cls-1" points="481.97 1247.56 456.98 1247.56 444.48 1269.2 456.98 1290.84 481.97 1290.84 494.46 1269.2 481.97 1247.56"/> </g> <g id="NA-160" data-name="NA-160"> <polygon class="cls-1" points="481.97 1197.8 456.98 1197.8 444.48 1219.44 456.98 1241.08 481.97 1241.08 494.46 1219.44 481.97 1197.8"/> </g> <g id="NA-159" data-name="NA-159"> <polygon class="cls-1" points="481.97 1148.05 456.98 1148.05 444.48 1169.69 456.98 1191.33 481.97 1191.33 494.46 1169.69 481.97 1148.05"/> </g> <g id="NA-158" data-name="NA-158"> <polygon class="cls-1" points="525.08 1173.96 500.09 1173.96 487.6 1195.6 500.09 1217.24 525.08 1217.24 537.57 1195.6 525.08 1173.96"/> </g> <g id="NA-157" data-name="NA-157"> <polygon class="cls-1" points="568.41 1149 543.42 1149 530.92 1170.64 543.42 1192.28 568.41 1192.28 580.9 1170.64 568.41 1149"/> </g> <g id="NA-156" data-name="NA-156"> <polygon class="cls-1" points="525.08 1124.12 500.09 1124.12 487.6 1145.76 500.09 1167.4 525.08 1167.4 537.57 1145.76 525.08 1124.12"/> </g> <g id="NA-155" data-name="NA-155"> <polygon class="cls-1" points="481.97 1098.29 456.98 1098.29 444.48 1119.93 456.98 1141.57 481.97 1141.57 494.46 1119.93 481.97 1098.29"/> </g> <g id="NA-154" data-name="NA-154"> <polygon class="cls-1" points="438.41 1071.96 413.42 1071.96 400.92 1093.6 413.42 1115.24 438.41 1115.24 450.9 1093.6 438.41 1071.96"/> </g> <g id="NA-153" data-name="NA-153"> <polygon class="cls-1" points="352 974.16 327.02 974.16 314.52 995.8 327.02 1017.44 352 1017.44 364.5 995.8 352 974.16"/> </g> <g id="NA-152" data-name="NA-152"> <polygon class="cls-1" points="394.86 997.76 369.87 997.76 357.38 1019.4 369.87 1041.04 394.86 1041.04 407.36 1019.4 394.86 997.76"/> </g> <g id="NA-151" data-name="NA-151"> <polygon class="cls-1" points="438.41 1022.13 413.42 1022.13 400.92 1043.78 413.42 1065.42 438.41 1065.42 450.9 1043.78 438.41 1022.13"/> </g> <g id="NA-150" data-name="NA-150"> <polygon class="cls-1" points="481.97 1048.54 456.98 1048.54 444.48 1070.18 456.98 1091.82 481.97 1091.82 494.46 1070.18 481.97 1048.54"/> </g> <g id="NA-149" data-name="NA-149"> <polygon class="cls-1" points="481.97 998.78 456.98 998.78 444.48 1020.42 456.98 1042.06 481.97 1042.06 494.46 1020.42 481.97 998.78"/> </g> <g id="NA-148" data-name="NA-148"> <polygon class="cls-1" points="525.08 1024.44 500.09 1024.44 487.6 1046.08 500.09 1067.72 525.08 1067.72 537.57 1046.08 525.08 1024.44"/> </g> <g id="NA-147" data-name="NA-147"> <polygon class="cls-1" points="525.08 974.6 500.09 974.6 487.6 996.24 500.09 1017.88 525.08 1017.88 537.57 996.24 525.08 974.6"/> </g> <g id="NA-146" data-name="NA-146"> <polygon class="cls-1" points="568.41 1099.13 543.42 1099.13 530.92 1120.77 543.42 1142.41 568.41 1142.41 580.9 1120.77 568.41 1099.13"/> </g> <g id="NA-145" data-name="NA-145"> <polygon class="cls-1" points="525.08 1074.28 500.09 1074.28 487.6 1095.92 500.09 1117.56 525.08 1117.56 537.57 1095.92 525.08 1074.28"/> </g> <g id="NA-144" data-name="NA-144"> <polygon class="cls-1" points="568.41 999.39 543.42 999.39 530.92 1021.03 543.42 1042.67 568.41 1042.67 580.9 1021.03 568.41 999.39"/> </g> <g id="NA-143" data-name="NA-143"> <polygon class="cls-1" points="611.24 1076.07 586.25 1076.07 573.76 1097.71 586.25 1119.35 611.24 1119.35 623.73 1097.71 611.24 1076.07"/> </g> <g id="NA-142" data-name="NA-142"> <polygon class="cls-1" points="568.41 1049.26 543.42 1049.26 530.92 1070.9 543.42 1092.54 568.41 1092.54 580.9 1070.9 568.41 1049.26"/> </g> <g id="NA-141" data-name="NA-141"> <polygon class="cls-1" points="611.24 1026.2 586.25 1026.2 573.76 1047.84 586.25 1069.48 611.24 1069.48 623.73 1047.84 611.24 1026.2"/> </g> <g id="NA-140" data-name="NA-140"> <polygon class="cls-1" points="653.75 1052.29 628.76 1052.29 616.27 1073.93 628.76 1095.57 653.75 1095.57 666.25 1073.93 653.75 1052.29"/> </g> <g id="NA-139" data-name="NA-139"> <polygon class="cls-1" points="653.75 1002.51 628.76 1002.51 616.27 1024.15 628.76 1045.79 653.75 1045.79 666.25 1024.15 653.75 1002.51"/> </g> <g id="NA-138" data-name="NA-138"> <polygon class="cls-1" points="611.24 976.32 586.25 976.32 573.76 997.96 586.25 1019.6 611.24 1019.6 623.73 997.96 611.24 976.32"/> </g> <g id="NA-137" data-name="NA-137"> <polygon class="cls-1" points="568.41 949.52 543.42 949.52 530.92 971.16 543.42 992.8 568.41 992.8 580.9 971.16 568.41 949.52"/> </g> <g id="NA-136" data-name="NA-136"> <polygon class="cls-1" points="611.24 776.81 586.25 776.81 573.76 798.45 586.25 820.09 611.24 820.09 623.73 798.45 611.24 776.81"/> </g> <g id="NA-135" data-name="NA-135"> <polygon class="cls-1" points="653.75 803.42 628.76 803.42 616.27 825.06 628.76 846.7 653.75 846.7 666.25 825.06 653.75 803.42"/> </g> <g id="NA-134" data-name="NA-134"> <polygon class="cls-1" points="697.27 829.62 672.28 829.62 659.78 851.26 672.28 872.9 697.27 872.9 709.76 851.26 697.27 829.62"/> </g> <g id="NA-133" data-name="NA-133"> <polygon class="cls-1" points="740.3 853.57 715.31 853.57 702.82 875.21 715.31 896.85 740.3 896.85 752.79 875.21 740.3 853.57"/> </g> <g id="NA-132" data-name="NA-132"> <polygon class="cls-1" points="783.18 876.89 758.2 876.89 745.7 898.53 758.2 920.17 783.18 920.17 795.68 898.53 783.18 876.89"/> </g> <g id="NA-131" data-name="NA-131"> <polygon class="cls-1" points="653.75 752.84 628.76 752.84 616.27 774.48 628.76 796.12 653.75 796.12 666.25 774.48 653.75 752.84"/> </g> <g id="NA-130" data-name="NA-130"> <polygon class="cls-1" points="696.66 779.56 671.67 779.56 659.18 801.2 671.67 822.84 696.66 822.84 709.15 801.2 696.66 779.56"/> </g> <g id="NA-129" data-name="NA-129"> <polygon class="cls-1" points="739.14 803.43 714.15 803.43 701.65 825.07 714.15 846.71 739.14 846.71 751.63 825.07 739.14 803.43"/> </g> <g id="NA-128" data-name="NA-128"> <polygon class="cls-1" points="782.65 827.87 757.66 827.87 745.16 849.51 757.66 871.15 782.65 871.15 795.14 849.51 782.65 827.87"/> </g> <g id="NA-127" data-name="NA-127"> <polygon class="cls-1" points="826.28 803.67 801.3 803.67 788.8 825.31 801.3 846.95 826.28 846.95 838.78 825.31 826.28 803.67"/> </g> <g id="NA-126" data-name="NA-126"> <polygon class="cls-1" points="783.18 778.11 758.2 778.11 745.7 799.75 758.2 821.39 783.18 821.39 795.68 799.75 783.18 778.11"/> </g> <g id="NA-125" data-name="NA-125"> <polygon class="cls-1" points="740.3 754.33 715.31 754.33 702.82 775.97 715.31 797.61 740.3 797.61 752.79 775.97 740.3 754.33"/> </g> <g id="NA-124" data-name="NA-124"> <polygon class="cls-1" points="697.27 729.94 672.28 729.94 659.78 751.58 672.28 773.22 697.27 773.22 709.76 751.58 697.27 729.94"/> </g> <g id="NA-123" data-name="NA-123"> <polygon class="cls-1" points="653.75 703.87 628.76 703.87 616.27 725.51 628.76 747.15 653.75 747.15 666.25 725.51 653.75 703.87"/> </g> <g id="NA-122" data-name="NA-122"> <polygon class="cls-1" points="611.24 725.94 586.25 725.94 573.76 747.58 586.25 769.22 611.24 769.22 623.73 747.58 611.24 725.94"/> </g> <g id="NA-121" data-name="NA-121"> <polygon class="cls-1" points="525.08 725.39 500.09 725.39 487.6 747.03 500.09 768.67 525.08 768.67 537.57 747.03 525.08 725.39"/> </g> <g id="NA-120" data-name="NA-120"> <polygon class="cls-1" points="568.41 750.04 543.42 750.04 530.92 771.68 543.42 793.32 568.41 793.32 580.9 771.68 568.41 750.04"/> </g> <g id="NA-119" data-name="NA-119"> <polygon class="cls-1" points="481.97 750 456.98 750 444.48 771.64 456.98 793.28 481.97 793.28 494.46 771.64 481.97 750"/> </g> <g id="NA-118" data-name="NA-118"> <polygon class="cls-1" points="481.97 799.76 456.98 799.76 444.48 821.4 456.98 843.04 481.97 843.04 494.46 821.4 481.97 799.76"/> </g> <g id="NA-117" data-name="NA-117"> <polygon class="cls-1" points="481.97 849.51 456.98 849.51 444.48 871.15 456.98 892.79 481.97 892.79 494.46 871.15 481.97 849.51"/> </g> <g id="NA-116" data-name="NA-116"> <polygon class="cls-1" points="394.86 848.29 369.87 848.29 357.38 869.94 369.87 891.58 394.86 891.58 407.36 869.94 394.86 848.29"/> </g> <g id="NA-115" data-name="NA-115"> <polygon class="cls-1" points="438.41 822.83 413.42 822.83 400.92 844.47 413.42 866.11 438.41 866.11 450.9 844.47 438.41 822.83"/> </g> <g id="NA-114" data-name="NA-114"> <polygon class="cls-1" points="438.41 872.65 413.42 872.65 400.92 894.3 413.42 915.94 438.41 915.94 450.9 894.3 438.41 872.65"/> </g> <g id="NA-113" data-name="NA-113"> <polygon class="cls-1" points="438.41 922.48 413.42 922.48 400.92 944.12 413.42 965.76 438.41 965.76 450.9 944.12 438.41 922.48"/> </g> <g id="NA-112" data-name="NA-112"> <polygon class="cls-1" points="394.86 898.12 369.87 898.12 357.38 919.76 369.87 941.4 394.86 941.4 407.36 919.76 394.86 898.12"/> </g> <g id="NA-111" data-name="NA-111"> <polygon class="cls-1" points="438.41 972.31 413.42 972.31 400.92 993.95 413.42 1015.59 438.41 1015.59 450.9 993.95 438.41 972.31"/> </g> <g id="NA-110" data-name="NA-110"> <polygon class="cls-1" points="611.24 876.57 586.25 876.57 573.76 898.21 586.25 919.85 611.24 919.85 623.73 898.21 611.24 876.57"/> </g> <g id="NA-109" data-name="NA-109"> <polygon class="cls-1" points="653.75 902.97 628.76 902.97 616.27 924.61 628.76 946.25 653.75 946.25 666.25 924.61 653.75 902.97"/> </g> <g id="NA-108" data-name="NA-108"> <polygon class="cls-1" points="653.75 952.74 628.76 952.74 616.27 974.38 628.76 996.02 653.75 996.02 666.25 974.38 653.75 952.74"/> </g> <g id="NA-107" data-name="NA-107"> <polygon class="cls-1" points="611.24 926.44 586.25 926.44 573.76 948.08 586.25 969.72 611.24 969.72 623.73 948.08 611.24 926.44"/> </g> <g id="NA-106" data-name="NA-106"> <polygon class="cls-1" points="525.08 874.91 500.09 874.91 487.6 896.55 500.09 918.2 525.08 918.2 537.57 896.55 525.08 874.91"/> </g> <g id="NA-105" data-name="NA-105"> <polygon class="cls-1" points="568.41 899.65 543.42 899.65 530.92 921.29 543.42 942.93 568.41 942.93 580.9 921.29 568.41 899.65"/> </g> <g id="NA-104" data-name="NA-104"> <polygon class="cls-1" points="525.08 924.75 500.09 924.75 487.6 946.39 500.09 968.04 525.08 968.04 537.57 946.39 525.08 924.75"/> </g> <g id="NA-103" data-name="NA-103"> <polygon class="cls-1" points="568.41 849.78 543.42 849.78 530.92 871.42 543.42 893.06 568.41 893.06 580.9 871.42 568.41 849.78"/> </g> <g id="NA-102" data-name="NA-102"> <polygon class="cls-1" points="525.08 825.07 500.09 825.07 487.6 846.71 500.09 868.35 525.08 868.35 537.57 846.71 525.08 825.07"/> </g> <g id="NA-101" data-name="NA-101"> <polygon class="cls-1" points="697.27 929.31 672.28 929.31 659.78 950.95 672.28 972.59 697.27 972.59 709.76 950.95 697.27 929.31"/> </g> <g id="NA-100" data-name="NA-100"> <polygon class="cls-1" points="481.97 949.02 456.98 949.02 444.48 970.66 456.98 992.3 481.97 992.3 494.46 970.66 481.97 949.02"/> </g> <g id="NA-99" data-name="NA-99"> <polygon class="cls-1" points="481.97 899.27 456.98 899.27 444.48 920.91 456.98 942.55 481.97 942.55 494.46 920.91 481.97 899.27"/> </g> <g id="NA-98" data-name="NA-98"> <polygon class="cls-1" points="481.97 650.49 456.98 650.49 444.48 672.13 456.98 693.77 481.97 693.77 494.46 672.13 481.97 650.49"/> </g> <g id="NA-97" data-name="NA-97"> <polygon class="cls-1" points="481.97 700.25 456.98 700.25 444.48 721.89 456.98 743.53 481.97 743.53 494.46 721.89 481.97 700.25"/> </g> <g id="NA-96" data-name="NA-96"> <polygon class="cls-1" points="438.41 773 413.42 773 400.92 794.64 413.42 816.28 438.41 816.28 450.9 794.64 438.41 773"/> </g> <g id="NA-95" data-name="NA-95"> <polygon class="cls-1" points="394.86 798.47 369.87 798.47 357.38 820.11 369.87 841.75 394.86 841.75 407.36 820.11 394.86 798.47"/> </g> <g id="NA-94" data-name="NA-94"> <polygon class="cls-1" points="525.08 675.55 500.09 675.55 487.6 697.19 500.09 718.83 525.08 718.83 537.57 697.19 525.08 675.55"/> </g> <g id="NA-93" data-name="NA-93"> <polygon class="cls-1" points="481.97 600.73 456.98 600.73 444.48 622.38 456.98 644.01 481.97 644.01 494.46 622.38 481.97 600.73"/> </g> <g id="NA-92" data-name="NA-92"> <polygon class="cls-1" points="740.3 903.19 715.31 903.19 702.82 924.83 715.31 946.47 740.3 946.47 752.79 924.83 740.3 903.19"/> </g> <g id="NA-91" data-name="NA-91"> <polygon class="cls-1" points="697.27 879.46 672.28 879.46 659.78 901.1 672.28 922.75 697.27 922.75 709.76 901.1 697.27 879.46"/> </g> <g id="NA-90" data-name="NA-90"> <polygon class="cls-1" points="653.75 853.19 628.76 853.19 616.27 874.83 628.76 896.47 653.75 896.47 666.25 874.83 653.75 853.19"/> </g> <g id="NA-89" data-name="NA-89"> <polygon class="cls-1" points="611.24 826.69 586.25 826.69 573.76 848.33 586.25 869.97 611.24 869.97 623.73 848.33 611.24 826.69"/> </g> <g id="NA-88" data-name="NA-88"> <polygon class="cls-1" points="568.41 799.91 543.42 799.91 530.92 821.55 543.42 843.19 568.41 843.19 580.9 821.55 568.41 799.91"/> </g> <g id="NA-87" data-name="NA-87"> <polygon class="cls-1" points="525.08 775.23 500.09 775.23 487.6 796.87 500.09 818.51 525.08 818.51 537.57 796.87 525.08 775.23"/> </g> <g id="NA-86" data-name="NA-86"> <polygon class="cls-1" points="568.41 700.16 543.42 700.16 530.92 721.8 543.42 743.45 568.41 743.45 580.9 721.8 568.41 700.16"/> </g> <g id="NA-85" data-name="NA-85"> <polygon class="cls-1" points="611.24 676.06 586.25 676.06 573.76 697.7 586.25 719.34 611.24 719.34 623.73 697.7 611.24 676.06"/> </g> <g id="NA-84" data-name="NA-84"> <polygon class="cls-1" points="653.75 654.1 628.76 654.1 616.27 675.74 628.76 697.38 653.75 697.38 666.25 675.74 653.75 654.1"/> </g> <g id="NA-83" data-name="NA-83"> <polygon class="cls-1" points="697.27 680.1 672.28 680.1 659.78 701.74 672.28 723.38 697.27 723.38 709.76 701.74 697.27 680.1"/> </g> <g id="NA-82" data-name="NA-82"> <polygon class="cls-1" points="740.3 704.71 715.31 704.71 702.82 726.35 715.31 747.99 740.3 747.99 752.79 726.35 740.3 704.71"/> </g> <g id="NA-81" data-name="NA-81"> <polygon class="cls-1" points="783.18 728.72 758.2 728.72 745.7 750.36 758.2 772 783.18 772 795.68 750.36 783.18 728.72"/> </g> <g id="NA-80" data-name="NA-80"> <polygon class="cls-1" points="826.28 754.17 801.3 754.17 788.8 775.82 801.3 797.46 826.28 797.46 838.78 775.82 826.28 754.17"/> </g> <g id="NA-79" data-name="NA-79"> <polygon class="cls-1" points="783.18 679.33 758.2 679.33 745.7 700.97 758.2 722.61 783.18 722.61 795.68 700.97 783.18 679.33"/> </g> <g id="NA-78" data-name="NA-78"> <polygon class="cls-1" points="826.28 704.68 801.3 704.68 788.8 726.32 801.3 747.96 826.28 747.96 838.78 726.32 826.28 704.68"/> </g> <g id="NA-77" data-name="NA-77"> <polygon class="cls-1" points="869.1 728.37 844.11 728.37 831.62 750.01 844.11 771.65 869.1 771.65 881.59 750.01 869.1 728.37"/> </g> <g id="NA-76" data-name="NA-76"> <polygon class="cls-1" points="826.28 655.19 801.3 655.19 788.8 676.83 801.3 698.47 826.28 698.47 838.78 676.83 826.28 655.19"/> </g> <g id="NA-75" data-name="NA-75"> <polygon class="cls-1" points="740.3 655.09 715.31 655.09 702.82 676.73 715.31 698.37 740.3 698.37 752.79 676.73 740.3 655.09"/> </g> <g id="NA-74" data-name="NA-74"> <polygon class="cls-1" points="783.18 629.94 758.2 629.94 745.7 651.58 758.2 673.22 783.18 673.22 795.68 651.58 783.18 629.94"/> </g> <g id="NA-73" data-name="NA-73"> <polygon class="cls-1" points="869.1 631.34 844.11 631.34 831.62 652.98 844.11 674.63 869.1 674.63 881.59 652.98 869.1 631.34"/> </g> <g id="NA-72" data-name="NA-72"> <polygon class="cls-1" points="826.28 605.69 801.3 605.69 788.8 627.33 801.3 648.97 826.28 648.97 838.78 627.33 826.28 605.69"/> </g> <g id="NA-71" data-name="NA-71"> <polygon class="cls-1" points="740.3 605.47 715.31 605.47 702.82 627.11 715.31 648.75 740.3 648.75 752.79 627.11 740.3 605.47"/> </g> <g id="NA-70" data-name="NA-70"> <polygon class="cls-1" points="697.27 630.25 672.28 630.25 659.78 651.89 672.28 673.53 697.27 673.53 709.76 651.89 697.27 630.25"/> </g> <g id="NA-69" data-name="NA-69"> <polygon class="cls-1" points="697.27 580.41 672.28 580.41 659.78 602.05 672.28 623.69 697.27 623.69 709.76 602.05 697.27 580.41"/> </g> <g id="NA-68" data-name="NA-68"> <polygon class="cls-1" points="783.18 580.55 758.2 580.55 745.7 602.19 758.2 623.83 783.18 623.83 795.68 602.19 783.18 580.55"/> </g> <g id="NA-67" data-name="NA-67"> <polygon class="cls-1" points="740.3 555.84 715.31 555.84 702.82 577.48 715.31 599.13 740.3 599.13 752.79 577.48 740.3 555.84"/> </g> <g id="NA-66" data-name="NA-66"> <polygon class="cls-1" points="653.75 554.55 628.76 554.55 616.27 576.19 628.76 597.83 653.75 597.83 666.25 576.19 653.75 554.55"/> </g> <g id="NA-65" data-name="NA-65"> <polygon class="cls-1" points="653.75 604.33 628.76 604.33 616.27 625.97 628.76 647.61 653.75 647.61 666.25 625.97 653.75 604.33"/> </g> <g id="NA-64" data-name="NA-64"> <polygon class="cls-1" points="611.24 627.18 586.25 627.18 573.76 648.82 586.25 670.46 611.24 670.46 623.73 648.82 611.24 627.18"/> </g> <g id="NA-63" data-name="NA-63"> <polygon class="cls-1" points="568.41 650.29 543.42 650.29 530.92 671.93 543.42 693.58 568.41 693.58 580.9 671.93 568.41 650.29"/> </g> <g id="NA-62" data-name="NA-62"> <polygon class="cls-1" points="525.08 625.71 500.09 625.71 487.6 647.35 500.09 668.99 525.08 668.99 537.57 647.35 525.08 625.71"/> </g> <g id="NA-61" data-name="NA-61"> <polygon class="cls-1" points="611.24 578.31 586.25 578.31 573.76 599.95 586.25 621.59 611.24 621.59 623.73 599.95 611.24 578.31"/> </g> <g id="NA-60" data-name="NA-60"> <polygon class="cls-1" points="568.41 600.42 543.42 600.42 530.92 622.06 543.42 643.7 568.41 643.7 580.9 622.06 568.41 600.42"/> </g> <g id="NA-59" data-name="NA-59"> <polygon class="cls-1" points="525.08 575.87 500.09 575.87 487.6 597.51 500.09 619.15 525.08 619.15 537.57 597.51 525.08 575.87"/> </g> <g id="NA-58" data-name="NA-58"> <polygon class="cls-1" points="697.27 530.57 672.28 530.57 659.78 552.21 672.28 573.85 697.27 573.85 709.76 552.21 697.27 530.57"/> </g> <g id="NA-57" data-name="NA-57"> <polygon class="cls-1" points="611.24 528.43 586.25 528.43 573.76 550.07 586.25 571.71 611.24 571.71 623.73 550.07 611.24 528.43"/> </g> <g id="NA-56" data-name="NA-56"> <polygon class="cls-1" points="568.41 550.55 543.42 550.55 530.92 572.19 543.42 593.83 568.41 593.83 580.9 572.19 568.41 550.55"/> </g> <g id="NA-55" data-name="NA-55"> <polygon class="cls-1" points="525.08 526.02 500.09 526.02 487.6 547.67 500.09 569.31 525.08 569.31 537.57 547.67 525.08 526.02"/> </g> </g> <g id="CAPITAL" data-name="province"> <g id="NA-52" data-name="NA-52"> <polygon class="cls-1" points="611.24 425.68 586.25 425.68 573.76 447.32 586.25 468.96 611.24 468.96 623.73 447.32 611.24 425.68"/> </g> <g id="NA-53" data-name="NA-53"> <polygon class="cls-1" points="611.24 475.55 586.25 475.55 573.76 497.19 586.25 518.84 611.24 518.84 623.73 497.19 611.24 475.55"/> </g> <g id="NA-54" data-name="NA-54"> <polygon class="cls-1" points="568.41 500.68 543.42 500.68 530.92 522.32 543.42 543.96 568.41 543.96 580.9 522.32 568.41 500.68"/> </g> </g> <g id="FATA" data-name="province"> <g id="NA-51" data-name="NA-51"> <polygon class="cls-1" points="394.86 748.65 369.87 748.65 357.38 770.29 369.87 791.93 394.86 791.93 407.36 770.29 394.86 748.65"/> </g> <g id="NA-50" data-name="NA-50"> <polygon class="cls-1" points="394.86 698.83 369.87 698.83 357.38 720.47 369.87 742.11 394.86 742.11 407.36 720.47 394.86 698.83"/> </g> <g id="NA-49" data-name="NA-49"> <polygon class="cls-1" points="394.86 649.01 369.87 649.01 357.38 670.65 369.87 692.29 394.86 692.29 407.36 670.65 394.86 649.01"/> </g> <g id="NA-48" data-name="NA-48"> <polygon class="cls-1" points="394.86 599.19 369.87 599.19 357.38 620.83 369.87 642.47 394.86 642.47 407.36 620.83 394.86 599.19"/> </g> <g id="NA-47" data-name="NA-47"> <polygon class="cls-1" points="394.86 549.37 369.87 549.37 357.38 571.01 369.87 592.65 394.86 592.65 407.36 571.01 394.86 549.37"/> </g> <g id="NA-46" data-name="NA-46"> <polygon class="cls-1" points="352.04 573.27 327.05 573.27 314.55 594.91 327.05 616.55 352.04 616.55 364.53 594.91 352.04 573.27"/> </g> <g id="NA-45" data-name="NA-45"> <polygon class="cls-1" points="310.41 595.34 285.42 595.34 272.93 616.98 285.42 638.62 310.41 638.62 322.91 616.98 310.41 595.34"/> </g> <g id="NA-44" data-name="NA-44"> <polygon class="cls-1" points="310.74 548.51 285.75 548.51 273.26 570.16 285.75 591.8 310.74 591.8 323.23 570.16 310.74 548.51"/> </g> <g id="NA-43" data-name="NA-43"> <polygon class="cls-1" points="352.04 525.01 327.05 525.01 314.55 546.65 327.05 568.29 352.04 568.29 364.53 546.65 352.04 525.01"/> </g> <g id="NA-42" data-name="NA-42"> <polygon class="cls-1" points="394.86 499.54 369.87 499.54 357.38 521.18 369.87 542.83 394.86 542.83 407.36 521.18 394.86 499.54"/> </g> <g id="NA-41" data-name="NA-41"> <polygon class="cls-1" points="394.86 449.72 369.87 449.72 357.38 471.36 369.87 493 394.86 493 407.36 471.36 394.86 449.72"/> </g> <g id="NA-40" data-name="NA-40"> <polygon class="cls-1" points="438.41 474.04 413.42 474.04 400.92 495.68 413.42 517.32 438.41 517.32 450.9 495.68 438.41 474.04"/> </g> </g> <g id="KPK" data-name="province"> <g id="NA-39" data-name="NA-39"> <polygon class="cls-1" points="438.41 723.17 413.42 723.17 400.92 744.82 413.42 766.46 438.41 766.46 450.9 744.82 438.41 723.17"/> </g> <g id="NA-38" data-name="NA-38"> <polygon class="cls-1" points="438.41 673.35 413.42 673.35 400.92 694.99 413.42 716.63 438.41 716.63 450.9 694.99 438.41 673.35"/> </g> <g id="NA-37" data-name="NA-37"> <polygon class="cls-1" points="438.41 623.52 413.42 623.52 400.92 645.16 413.42 666.8 438.41 666.8 450.9 645.16 438.41 623.52"/> </g> <g id="NA-36" data-name="NA-36"> <polygon class="cls-1" points="438.41 573.7 413.42 573.7 400.92 595.34 413.42 616.98 438.41 616.98 450.9 595.34 438.41 573.7"/> </g> <g id="NA-35" data-name="NA-35"> <polygon class="cls-1" points="438.41 523.87 413.42 523.87 400.92 545.51 413.42 567.15 438.41 567.15 450.9 545.51 438.41 523.87"/> </g> <g id="NA-34" data-name="NA-34"> <polygon class="cls-1" points="481.97 550.98 456.98 550.98 444.48 572.62 456.98 594.26 481.97 594.26 494.46 572.62 481.97 550.98"/> </g> <g id="NA-33" data-name="NA-33"> <polygon class="cls-1" points="481.97 501.22 456.98 501.22 444.48 522.86 456.98 544.5 481.97 544.5 494.46 522.86 481.97 501.22"/> </g> <g id="NA-32" data-name="NA-32"> <polygon class="cls-1" points="481.97 451.47 456.98 451.47 444.48 473.11 456.98 494.75 481.97 494.75 494.46 473.11 481.97 451.47"/> </g> <g id="NA-31" data-name="NA-31"> <polygon class="cls-1" points="481.97 401.71 456.98 401.71 444.48 423.35 456.98 444.99 481.97 444.99 494.46 423.35 481.97 401.71"/> </g> <g id="NA-30" data-name="NA-30"> <polygon class="cls-1" points="481.97 351.96 456.98 351.96 444.48 373.6 456.98 395.24 481.97 395.24 494.46 373.6 481.97 351.96"/> </g> <g id="NA-29" data-name="NA-29"> <polygon class="cls-1" points="525.08 326.66 500.09 326.66 487.6 348.3 500.09 369.94 525.08 369.94 537.57 348.3 525.08 326.66"/> </g> <g id="NA-28" data-name="NA-28"> <polygon class="cls-1" points="525.08 376.5 500.09 376.5 487.6 398.14 500.09 419.78 525.08 419.78 537.57 398.14 525.08 376.5"/> </g> <g id="NA-27" data-name="NA-27"> <polygon class="cls-1" points="525.08 426.34 500.09 426.34 487.6 447.98 500.09 469.62 525.08 469.62 537.57 447.98 525.08 426.34"/> </g> <g id="NA-26" data-name="NA-26"> <polygon class="cls-1" points="525.08 476.18 500.09 476.18 487.6 497.82 500.09 519.47 525.08 519.47 537.57 497.82 525.08 476.18"/> </g> <g id="NA-25" data-name="NA-25"> <polygon class="cls-1" points="568.41 450.81 543.42 450.81 530.92 472.45 543.42 494.09 568.41 494.09 580.9 472.45 568.41 450.81"/> </g> <g id="NA-24" data-name="NA-24"> <polygon class="cls-1" points="568.41 400.94 543.42 400.94 530.92 422.58 543.42 444.22 568.41 444.22 580.9 422.58 568.41 400.94"/> </g> <g id="NA-23" data-name="NA-23"> <polygon class="cls-1" points="568.41 351.07 543.42 351.07 530.92 372.71 543.42 394.35 568.41 394.35 580.9 372.71 568.41 351.07"/> </g> <g id="NA-22" data-name="NA-22"> <polygon class="cls-1" points="655.26 250.85 630.27 250.85 617.77 272.49 630.27 294.13 655.26 294.13 667.75 272.49 655.26 250.85"/> </g> <g id="NA-21" data-name="NA-21"> <polygon class="cls-1" points="611.24 276.05 586.25 276.05 573.76 297.69 586.25 319.33 611.24 319.33 623.73 297.69 611.24 276.05"/> </g> <g id="NA-20" data-name="NA-20"> <polygon class="cls-1" points="655.26 300.72 630.27 300.72 617.77 322.36 630.27 344 655.26 344 667.75 322.36 655.26 300.72"/> </g> <g id="NA-19" data-name="NA-19"> <polygon class="cls-1" points="611.24 325.92 586.25 325.92 573.76 347.56 586.25 369.2 611.24 369.2 623.73 347.56 611.24 325.92"/> </g> <g id="NA-18" data-name="NA-18"> <polygon class="cls-1" points="611.24 375.8 586.25 375.8 573.76 397.44 586.25 419.08 611.24 419.08 623.73 397.44 611.24 375.8"/> </g> <g id="NA-17" data-name="NA-17"> <polygon class="cls-1" points="655.26 350.58 630.27 350.58 617.77 372.22 630.27 393.86 655.26 393.86 667.75 372.22 655.26 350.58"/> </g> <g id="NA-16" data-name="NA-16"> <polygon class="cls-1" points="655.26 400.44 630.27 400.44 617.77 422.09 630.27 443.73 655.26 443.73 667.75 422.09 655.26 400.44"/> </g> <g id="NA-15" data-name="NA-15"> <polygon class="cls-1" points="699.84 375.65 674.85 375.65 662.36 397.29 674.85 418.93 699.84 418.93 712.33 397.29 699.84 375.65"/> </g> <g id="NA-14" data-name="NA-14"> <polygon class="cls-1" points="699.84 325.76 674.85 325.76 662.36 347.4 674.85 369.04 699.84 369.04 712.33 347.4 699.84 325.76"/> </g> <g id="NA-13" data-name="NA-13"> <polygon class="cls-1" points="699.84 275.87 674.85 275.87 662.36 297.51 674.85 319.15 699.84 319.15 712.33 297.51 699.84 275.87"/> </g> <g id="NA-12" data-name="NA-12"> <polygon class="cls-1" points="743.79 249.97 718.8 249.97 706.31 271.61 718.8 293.25 743.79 293.25 756.29 271.61 743.79 249.97"/> </g> <g id="NA-11" data-name="NA-11"> <polygon class="cls-1" points="699.84 225.97 674.85 225.97 662.36 247.61 674.85 269.25 699.84 269.25 712.33 247.61 699.84 225.97"/> </g> <g id="NA-10" data-name="NA-10"> <polygon class="cls-1" points="655.26 200.99 630.27 200.99 617.77 222.63 630.27 244.27 655.26 244.27 667.75 222.63 655.26 200.99"/> </g> <g id="NA-9" data-name="NA-9"> <polygon class="cls-1" points="611.24 226.17 586.25 226.17 573.76 247.81 586.25 269.45 611.24 269.45 623.73 247.81 611.24 226.17"/> </g> <g id="NA-8" data-name="NA-8"> <polygon class="cls-1" points="568.41 301.2 543.42 301.2 530.92 322.84 543.42 344.48 568.41 344.48 580.9 322.84 568.41 301.2"/> </g> <g id="NA-7" data-name="NA-7"> <polygon class="cls-1" points="568.41 251.33 543.42 251.33 530.92 272.97 543.42 294.61 568.41 294.61 580.9 272.97 568.41 251.33"/> </g> <g id="NA-6" data-name="NA-6"> <polygon class="cls-1" points="568.41 201.46 543.42 201.46 530.92 223.1 543.42 244.74 568.41 244.74 580.9 223.1 568.41 201.46"/> </g> <g id="NA-5" data-name="NA-5"> <polygon class="cls-1" points="568.41 151.59 543.42 151.59 530.92 173.23 543.42 194.87 568.41 194.87 580.9 173.23 568.41 151.59"/> </g> <g id="NA-4" data-name="NA-4"> <polygon class="cls-1" points="611.24 176.29 586.25 176.29 573.76 197.94 586.25 219.57 611.24 219.57 623.73 197.94 611.24 176.29"/> </g> <g id="NA-3" data-name="NA-3"> <polygon class="cls-1" points="611.24 126.42 586.25 126.42 573.76 148.06 586.25 169.7 611.24 169.7 623.73 148.06 611.24 126.42"/> </g> <g id="NA-2" data-name="NA-2"> <polygon class="cls-1" points="611.24 76.54 586.25 76.54 573.76 98.18 586.25 119.82 611.24 119.82 623.73 98.18 611.24 76.54"/> </g> <g id="NA-1" data-name="NA-1"> <polygon class="cls-1" points="654.02 50.79 629.03 50.79 616.54 72.44 629.03 94.08 654.02 94.08 666.52 72.44 654.02 50.79"/> </g> </g> <g id="MAP_BOUNDRY" data-name="MAP BOUNDRY"> <polygon class="cls-2" points="785.84 925.17 758.13 925.17 742.95 951.47 715 951.47 699.92 977.59 669.94 977.59 657.42 999.27 671.79 1024.15 657.42 1049.04 671.79 1073.92 656.41 1100.57 626.47 1100.57 614.88 1120.65 629.27 1145.59 614.88 1170.53 629.27 1195.46 613.89 1222.11 585.52 1222.11 572.04 1245.45 586.44 1270.38 572.04 1295.32 586.44 1320.26 571.06 1346.9 542.09 1346.9 527.73 1371.77 498.24 1371.77 484.62 1395.35 454.83 1395.35 441.06 1419.2 412.19 1419.2 398.51 1442.88 412.9 1467.79 398.51 1492.7 412.9 1517.62 397.52 1544.26 368.82 1544.26 355.7 1566.98 370.04 1591.82 354.66 1618.46 323.9 1618.46 309.45 1593.44 279.92 1593.44 265.46 1568.39 235.84 1568.39 235.77 1568.26 222.94 1590.47 192.43 1590.47 179.86 1612.24 149.1 1612.24 135.45 1588.6 105.54 1588.6 91.49 1564.26 61.61 1564.26 46.91 1538.81 18 1538.81 2.62 1512.17 16.76 1487.67 2.62 1463.18 16.76 1438.69 2.62 1414.2 18 1387.56 48.11 1387.56 60.35 1366.36 46.23 1341.9 60.35 1317.44 46.23 1292.97 61.61 1266.33 91.42 1266.33 104.28 1244.07 90.16 1219.62 104.28 1195.16 90.16 1170.71 105.54 1144.07 134.43 1144.07 149.1 1118.67 178.3 1118.67 190.99 1096.68 176.8 1072.09 190.99 1047.5 176.8 1022.91 190.99 998.33 176.8 973.74 192.18 947.1 221.02 947.1 235.84 921.42 265.23 921.42 279.92 895.97 305.81 895.97 305.52 895.46 319.85 870.63 305.52 845.8 319.85 820.96 305.52 796.13 320.9 769.49 351.66 769.49 351.75 769.64 365.76 745.38 351.37 720.47 365.76 695.56 351.37 670.65 365.76 645.74 351.79 621.55 327.48 621.55 314.34 643.18 283.42 643.18 267.6 616.81 281.65 592.47 267.85 570.47 283.6 543.69 310.77 543.69 323.93 520.01 352.05 520.01 365.76 496.27 351.37 471.36 366.75 444.72 397.52 444.72 411.56 469.04 440.82 469.04 452.84 448.23 438.48 423.35 452.84 398.47 438.48 373.6 453.86 346.96 482.37 346.96 496.97 321.66 525.6 321.66 539.32 297.9 524.92 272.97 539.32 248.03 524.92 223.1 539.32 198.16 524.92 173.23 540.3 146.59 568.6 146.59 582.15 123.12 567.75 98.18 583.13 71.54 611.05 71.54 625.91 45.79 656.68 45.79 672.06 72.44 656.68 99.08 628.76 99.08 614.88 123.12 629.27 148.06 614.88 173 628.15 195.99 657.91 195.99 672.33 220.97 702.49 220.97 716.35 244.97 746.45 244.97 761.83 271.61 746.45 298.25 717.44 298.25 703.47 322.45 717.87 347.4 703.47 372.35 717.87 397.29 702.49 423.93 672.23 423.93 657.91 448.73 628.46 448.73 614.88 472.26 629.27 497.19 614.27 522.13 629.87 549.55 655.31 549.55 669.16 525.57 699.92 525.57 714.51 550.84 742.95 550.84 757.22 575.55 785.84 575.55 800.35 600.69 828.94 600.69 843.75 626.34 871.75 626.34 887.13 652.98 871.75 679.63 842.7 679.63 830.03 701.57 842.61 723.37 871.75 723.37 887.13 750.01 871.75 776.65 843.84 776.65 830.03 800.56 844.32 825.31 830.03 850.06 799.15 850.06 785.49 873.75 800.74 899.31 785.84 925.17"/> <polyline class="cls-2" points="58.92 1366.33 92.02 1366.76 105.95 1343.32 106.58 1342.2 92.18 1317.6 106.32 1292.97 135.51 1292.97 149.95 1268.18 136.11 1243.86 149.95 1219.45 135.74 1194.87 150.16 1169.76 179.09 1169.76 193.59 1145.76 222.64 1145.76 236.68 1121.26 222.51 1096.49 236.85 1071.96 222.13 1047.01 237.33 1022.17 266.14 1022.65 281.1 997.02 266.36 972.56 281.1 947.53 310.28 947.53 325 920.88 351.82 920.88 366.42 895.21 351.52 870.39 366.42 845.21 352 820.92 366.42 795.44 351.75 769.64"/> <polyline class="cls-2" points="366.42 795.44 396.78 795.44 411.1 769.64 396.35 744.82 410.92 719.89 396.49 694.99 410.92 670.39 396.92 645.43 411.35 619.35 396.63 594.93 411.35 570.11 397.21 546.01 411.5 520.47 440.36 520.47 454.64 496.51 439.35 469.24"/> <polyline class="cls-2" points="235.94 1120.83 266.97 1120.83 280.73 1145.96 311.23 1145.96 324.63 1169.69 354.42 1169.69 368.18 1193.84 353.72 1219.93 367.82 1243.74 353.29 1268.41 367.57 1293.25 353.37 1319.04 368 1343.18 354.25 1368.15 368 1392.9 397.8 1392.9 411.9 1418.46"/> <polyline class="cls-2" points="615.14 523.07 585 523.07 570.46 547.26 541.23 547.26 526.88 522.32 541.75 497.19 569.82 497.19 584.18 472.45 569.76 447.55 584.82 422.58 613.69 422.58 627.92 447.97"/> <polyline class="cls-2" points="409.44 769.64 440.9 769.64 455.03 745.83 440.22 720.27 454.64 696.14 439.95 669.92 455.03 646.33 440.61 620.83 454.64 597.51 484.19 597.51 498.22 572.4 483.46 547.67 498.74 522.32 527.8 522.32"/> </g> <g id="TEXT_INFO" data-name="TEXT INFO"> <text class="cls-3" transform="translate(2.56 93.1)"> <tspan class="cls-4">272</tspan> <tspan class="cls-5"> <tspan x="0" y="42">CONTESTABLE</tspan> <tspan class="cls-6" x="253.44" y="42">SEATS</tspan> </tspan> </text> <text class="cls-10" transform="translate(2.56 204.66)">+60 reserved for women <tspan x="0" y="45.71">+10 reserved for minorities</tspan> </text> <text class="cls-11" transform="translate(18.13 545.74)">TRIBAL AREAS</text> <text class="cls-12" transform="translate(17.2 643.26)">VOTERS</text> <text class="cls-13" transform="translate(701.18 65.63)">39 <tspan class="cls-14" x="75.99" y="0"> </tspan> <tspan class="cls-15" x="84.56" y="0">SEATS</tspan> </text> <text class="cls-16" transform="translate(6.98 512.7)">12 <tspan class="cls-17" x="30.84" y="0"></tspan> <tspan x="68.83" y="0"> </tspan> <tspan class="cls-15" x="77.4" y="0">SEATS</tspan> </text> <text class="cls-13" transform="translate(764.77 426.57)">3 <tspan class="cls-14" x="37.99" y="0"> </tspan> <tspan class="cls-15" x="46.57" y="0">SEATS</tspan> </text> <text class="cls-18" transform="translate(16.1 609.36)">2,510,154 <tspan class="cls-19" x="39.17" y="0"></tspan> <tspan class="cls-20" x="63.43" y="0"></tspan> <tspan x="89.95" y="0"></tspan> <tspan class="cls-21" x="118.71" y="0"></tspan> <tspan class="cls-19" x="123.5" y="0"></tspan> <tspan x="147.76" y="0"></tspan> </text> <line class="cls-22" x1="16.33" y1="557.35" x2="235.94" y2="557.35"/> <text class="cls-11" transform="translate(26.93 845.16)">BALOCHISTAN</text> <text class="cls-12" transform="translate(26.01 935.82)">VOTERS</text> <text class="cls-23" transform="translate(18.83 815.11)">16 <tspan class="cls-24" x="30.04" y="0"></tspan> <tspan class="cls-25" x="67.06" y="0"> </tspan> <tspan class="cls-15" x="75.41" y="0">SEATS</tspan> </text> <text class="cls-27" transform="translate(25.09 903.98)">4,299,494</text> <line class="cls-28" x1="25.3" y1="855.72" x2="223.8" y2="855.72"/> <text class="cls-11" transform="translate(671.44 1207.6)">PUNJAB</text> <text class="cls-29" transform="translate(663.34 1175.49)">1 <tspan class="cls-30" x="25.86" y="0">4</tspan> <tspan class="cls-24" x="58.69" y="0">1</tspan> <tspan class="cls-31" x="95.71" y="0"> </tspan> <tspan class="cls-15" x="104.06" y="0">SEATS</tspan> </text> <text class="cls-12" transform="translate(672.16 1305.16)">VOTERS</text> <text class="cls-27" transform="translate(671.24 1273.32)">60,672,868</text> <text class="cls-33" transform="translate(447.19 1526.34)">SINDH</text> <text class="cls-34" transform="translate(447.19 1494.24)">61 <tspan class="cls-31" x="74.04" y="0"> </tspan> <tspan class="cls-15" x="82.39" y="0">SEATS</tspan> </text> <text class="cls-35" transform="translate(451.61 1629.68)">VOTERS</text> <text class="cls-18" transform="translate(447.19 1592.06)">22,391,244 <tspan class="cls-36" x="96.69" y="0"></tspan> <tspan x="147.48" y="0"></tspan> </text> <line class="cls-28" x1="671.45" y1="1219.91" x2="913.89" y2="1217.07"/> <line class="cls-28" x1="451.67" y1="1537.92" x2="642.72" y2="1536.47"/> <text class="cls-11" transform="translate(766.95 462.35)">FEDERAL CAPITAL</text> <text class="cls-12" transform="translate(770.18 557.13)">VOTERS</text> <text class="cls-27" transform="translate(765.11 523.23)">765,348</text> <line class="cls-28" x1="765.31" y1="470.85" x2="1040.89" y2="470.85"/> <text class="cls-11" transform="translate(704.04 100.29)">KHYBER PAKHTUNKHWA</text> <text class="cls-12" transform="translate(708.85 194.51)">VOTERS</text> <text class="cls-37" transform="translate(701.16 161.91)">1 <tspan class="cls-38" x="23.14" y="0">5,316,299</tspan> </text> <line class="cls-39" x1="704.04" y1="110.15" x2="1062.02" y2="110.15"/> <line class="cls-40" y1="158.79" x2="448.46" y2="158.79"/> </g> </svg>