<svg xmlns="http://www.w3.org/2000/svg" viewBox="0 0 181.91 181.91"><defs><style>.cls-1{fill:#f90;}.cls-2{fill:#fff;}</style></defs><title>Asset 1</title><g id="Layer_2" data-name="Layer 2"><g id="HEADER_LOGO" data-name="HEADER LOGO"><rect class="cls-1" width="181.91" height="181.91"/><rect class="cls-2" x="82.43" y="118.72" width="5.7" height="4.85" transform="translate(-62.41 109.4) rotate(-50.31)"/><path class="cls-2" d="M104,121.59c-.23-.44-.53-.71-.7-.64s0,.42,0,.67a1,1,0,0,1-.53.93,1.25,1.25,0,0,1-1.75-.67,20.43,20.43,0,0,1-1.14-2.51c-.17-.42-.43-.93-.7-.8s-.24.35-.12.75.76,2.05.76,2.05a7.47,7.47,0,0,0,2.29,3.43c1.12.8,1.7.51,1.93.42a1.37,1.37,0,0,0,.62-1.65A7.48,7.48,0,0,0,104,121.59Z"/><path class="cls-2" d="M77.53,57.59A3.41,3.41,0,1,0,74,54.29,3.4,3.4,0,0,0,77.53,57.59Z"/><path class="cls-2" d="M98.64,69.33a4.63,4.63,0,0,1-1,1.51l-3.39,3.7L91.4,77.7a2.6,2.6,0,0,0-.9,1.78l.39,1.91a4.78,4.78,0,0,1,1-1.5c.33-.35,1.89-2.06,3.39-3.7L98.14,73A2.59,2.59,0,0,0,99,71.25Z"/><rect class="cls-2" x="92.47" y="90.24" width="5.69" height="4.85" transform="translate(-29.13 139.4) rotate(-64.78)"/><polygon class="cls-2" points="108.72 98.2 106.29 103.34 110.68 105.42 113.11 100.27 108.72 98.2"/><rect class="cls-2" x="83.27" y="111.07" width="5.69" height="4.85" transform="translate(-56.21 107.28) rotate(-50.31)"/><path class="cls-2" d="M71.14,74.35s1-.79.64-1.18c-.17-.21-1.07.52-1.07.52a12.61,12.61,0,0,0-3.83,4.51,5.58,5.58,0,0,0-.25,4.08,1.5,1.5,0,0,0,2.48.67,4.1,4.1,0,0,0,1.38-2.38,4,4,0,0,0,.15-1c0-.3-.09-.54-.37-.47-.79.25-.32,1.32-.89,1.84a1.26,1.26,0,0,1-1.75-1c-.23-1.1.62-2.52,1.39-3.45A26.37,26.37,0,0,1,71.14,74.35Z"/><path class="cls-2" d="M82.25,100.75c.19-1.26.39-1.5.79-1.83,1-.89,3.61-3.3,4.85-4.37a7.34,7.34,0,0,0,1.84-2.19A4.09,4.09,0,0,0,90,90l-.74-5.15a9.18,9.18,0,0,1-2.34,3c-1.32,1.32-4.81,4.32-5.13,4.64s-1.45,1.15-2,5.08c-1.27,10.7-3.38,15.74-7.16,17.45a8.41,8.41,0,0,1-3.37.71c-6.94-.06-8.76-8.51-8.72-13.13,0-.27,0-.54,0-.81,1.61,2.18,4,4.32,6.92,3.88,4.69-.71,3.23-8.6,2.55-10.43s-2.48-7.34-6.41-7.06c-2.79.19-4.08,3.45-4.66,6.19a22.2,22.2,0,0,1-.66-6.72c.42-4.77,2-10.74,9-16.61,5-4.17,10.57-7.16,13.7-9.63a12.56,12.56,0,0,0,3.92-5,22.7,22.7,0,0,1-1.36,5.33C80.73,69.35,72,81.85,71.87,99.53a67.86,67.86,0,0,0,1.36,14.16,6.58,6.58,0,0,0,1.35-1.25,46.54,46.54,0,0,1-1-9.46c0-17.64,8.69-30.13,11.53-37.69a25,25,0,0,0,1.53-9.75,23.07,23.07,0,0,0-1.52-8.61,3.48,3.48,0,0,0-3.42-2,3.41,3.41,0,1,0,2.73,5.58l.07-.08c.4,2.71-.9,4.88-3.92,7.39s-10.35,6-15.5,10.08c-7.25,5.72-9,12-9.41,17a25.28,25.28,0,0,0,.76,7.66A32.68,32.68,0,0,0,58.35,98l.15.27c-.18,3.35.15,9.18,2,13.58,2.53,5.68,7.09,10.34,13.62,9C80.76,119.28,81.5,108.58,82.25,100.75Zm-17.92-6.3c2.76-1.3,3.85,2,3.85,2-.3,3.57-4.45,4.43-7,2.15A7,7,0,0,1,64.33,94.45Z"/><path class="cls-2" d="M85.34,98.13l-1.77,1.6a30,30,0,0,0,7.9,10.85,36.52,36.52,0,0,1,1-5A25.48,25.48,0,0,1,85.34,98.13Z"/><path class="cls-2" d="M123.39,89.29a49.27,49.27,0,0,0-4.58-15.42C112.56,60,101,46.22,93.94,37.34A23.56,23.56,0,0,1,89.7,30c-1.32-4.11-.47-7.29,1.22-8.69a7.43,7.43,0,0,1,1.24-.86.24.24,0,0,0,0-.45c-.18,0-.63-.08-1.86.79-1.75,1.22-3.21,4-3.19,8.22a18.56,18.56,0,0,0,2.75,9.19c-2.7,3.67-3.19,7.06-2,10.29.87,2.46,1.31,3.09,1.71,4.57,1,3.75-.11,8.23-3.06,15.14-2.4,5.65-5.52,11.56-5.52,18.74a33.25,33.25,0,0,0,.39,4.83c.27-.27.87-.82,1.59-1.49-.35-5.63,1.89-11.3,4.65-16.38,4-7.44,4.52-15,3.75-19.13,2.82,3,7.57,7.5,10.35,12.12a10.47,10.47,0,0,1,1.64,4.52A11.81,11.81,0,0,1,100,80.19a4.51,4.51,0,0,0-1.16,4.44c.14.62.92,3,1.46,4.52,2.1-4.11,7.91-6.41,10.54-9.83.6,4.21-2.57,8.2-4.93,10.88-.55.6-1.17,1.22-1.87,1.89-4.45,4.25-7.37,7.18-8.92,9.88a14.55,14.55,0,0,0-1.37,3,35.69,35.69,0,0,0-1.51,7.39c-.38,2.29-.79,5-.92,6.25-.31,2.76-1.15,7.16-4.56,8.43a2.91,2.91,0,0,1-.56.15h0c-3.27.71-6.61-2-9-6.89a7.88,7.88,0,0,1-1.64,1c3.29,7.74,8.23,11.29,12.56,11.29,3.28,0,5.87-1.64,6.7-6.45.42-2.42.73-5.11,1-7.71.13-1.26.77-8.35,1.9-10.9,1.41-2.89,4.51-5.67,9.11-10.41a24.33,24.33,0,0,0,5.22-7.35c2.68-4.9-.65-16.55-1.29-18.64,0-.06,0-.09-.08-.09s-.08,0-.13.1l0,0a20,20,0,0,1-5.27,5.13,11.89,11.89,0,0,0,.36-7.28h0c0-.12-.05-.23-.07-.34h0c-2-7.73-9.92-14.6-13.51-18.57C87.4,45,89,41.66,90.69,39.56c.32.48.66,1,1,1.48,6.32,8.54,18.22,22.08,24.46,35a43.81,43.81,0,0,1,3.46,9.51c2.46,13.36-6.91,26.95-20.94,23.14h0l-.28-.08a35.46,35.46,0,0,0-1.08,5.68,19.68,19.68,0,0,0,6.66,1.53h0l.49,0C116,116,125.06,107.35,123.39,89.29Z"/><polygon class="cls-2" points="56.24 154.02 51.66 154.02 51.66 142.74 47.91 142.74 47.91 157.28 56.24 157.28 56.24 154.02"/><path class="cls-2" d="M59.56,156.35c0,2.22-.81,3-2.59,2.53-.11,0-.2-.07-.31-.1l-.87,3.14a4.06,4.06,0,0,0,.6.27c4.17,1.55,6.9-.75,6.9-4.79V142.73H59.56Z"/><polygon class="cls-2" points="99.21 151.67 104.07 151.67 104.07 148.56 99.21 148.56 99.21 145.93 104.86 145.93 104.86 142.74 95.49 142.74 95.49 157.28 105.36 157.28 105.36 154.19 99.21 154.19 99.21 151.67"/><polygon class="cls-2" points="112.07 151.67 116.94 151.67 116.94 148.56 112.07 148.56 112.07 145.93 117.72 145.93 117.72 142.74 108.35 142.74 108.35 157.28 118.22 157.28 118.22 154.19 112.07 154.19 112.07 151.67"/><path class="cls-2" d="M36.35,142.73l-5,14.55h3.73l.84-2.67h4.79l.81,2.67h4l-5.05-14.55ZM37,151.3l1.37-4.62,1.38,4.62Z"/><path class="cls-2" d="M70.45,142.73l-4.94,14.55h3.73l.84-2.67h4.78l.81,2.67h4l-5.06-14.55Zm.68,8.57,1.38-4.62,1.38,4.62Z"/><path class="cls-2" d="M138.67,142.73l-5,14.55h3.74l.84-2.67h4.79l.8,2.67h4l-5-14.55Zm.68,8.57,1.37-4.62,1.38,4.62Z"/><path class="cls-2" d="M130.64,152c-.55-1.29-.75-1.55-1.27-1.79a.93.93,0,0,0,.25-.1,3.76,3.76,0,0,0,1.79-4.71c-.5-1.72-1.82-2.67-4.33-2.67h-5.89v14.55h3.73v-5.44h.86c.61,0,1,.27,1.29,1l.19.47.11.26,1.41,3.68h3.87l-1.81-4.77Zm-3.13-3.79c-.21.26-.51.38-1.23.44h-1.43v-2.72H126l.27,0a1.83,1.83,0,0,1,1,.24A1.37,1.37,0,0,1,127.51,148.21Z"/><polygon class="cls-2" points="92.22 146.44 92.22 142.74 82.19 142.74 82.19 145.93 87.34 145.93 82.03 153.56 82.03 157.28 92.32 157.28 92.32 154.06 86.91 154.06 92.22 146.44"/></g></g></svg>